<svg xmlns="http://www.w3.org/2000/svg" width="512" height="512" viewBox="0 0 512 512">
  <g class="glyph">
    <path d="M 90 472 Q 71 486 49 482 Q 27 479 13 460 Q 0 442 4 420 Q 7 398 25 384 Q 30 382 34 379 Q 73 361 100 321 Q 125 287 145 230 Q 161 181 168 125 Q 169 117 170 108 Q 164 110 160 110 Q 120 120 88 134 H 87 Q 77 137 72 128 Q 68 119 76 113 Q 114 90 149 75 Q 157 71 174 65 Q 176 40 176 15 V 15 Q 176 8 180 4 Q 185 0 191 0 Q 213 1 205 11 Q 208 26 211 55 Q 217 54 231 51 Q 257 48 278 52 Q 306 56 327 72 Q 349 88 362 114 Q 370 132 375 164 Q 389 168 380 246 Q 383 292 389 317 Q 397 350 410 358 Q 416 361 424 362 Q 432 364 445 363 Q 470 360 488 376 Q 507 391 509 415 Q 512 440 497 458 Q 481 477 457 480 H 445 Q 412 478 389 469 Q 357 458 335 433 Q 315 411 304 381 Q 297 359 294 332 Q 290 300 294 245 Q 299 174 299 169 Q 300 154 297 142 Q 294 129 286 121 Q 272 103 233 102 Q 222 102 215 102 Q 217 118 217 127 Q 219 186 211 246 Q 197 257 199 306 Q 191 336 177 365 Q 147 430 91 471 Z" fill="black" />
  </g>
  <g class="defect" id="01">
    <path d="M 211 246 Q 197 257 199 306" fill="none" stroke="red" stroke-width="3" />
  </g>
  <g class="defect" id="02">
    <path d="M 375 164 Q 389 168 380 246" fill="none" stroke="red" stroke-width="3" />
  </g>
  <g class="defect" id="03">
    <path d="M 191 0 Q 213 1 205 11" fill="none" stroke="red" stroke-width="3" />
  </g>
</svg>