<svg xmlns="http://www.w3.org/2000/svg" width="512" height="512" viewBox="0 0 512 512">
  <g class="glyph">
    <path d="M 343 402 Q 331 386 325 369 Q 318 351 316 334 Q 316 325 326 323 Q 331 322 334 326 L 336 328 Q 345 337 357 345 Q 366 352 380 356 Q 394 359 403 358 Q 414 358 425 355 Q 446 350 465 361 Q 484 372 489 393 Q 494 415 483 434 Q 472 453 451 458 Q 432 462 415 455 L 407 451 Q 385 440 371 430 Q 354 417 343 402 Z M 359 284 Q 341 286 323 289 Q 305 290 285 292 L 286 295 Q 291 332 292 376 Q 292 419 287 461 Q 284 484 265 498 Q 246 512 224 509 Q 201 506 187 488 Q 173 469 176 447 Q 177 439 180 433 V 433 Q 195 395 202 367 Q 210 334 215 296 Q 202 297 190 296 Q 183 296 167 295 Q 158 295 142 292 Q 119 290 96 282 Q 69 272 53 256 Q 34 238 33 212 Q 32 194 38 175 Q 41 165 50 152 Q 54 142 58 137 Q 60 136 62 133 Q 70 124 79 131 Q 68 137 83 146 L 82 147 Q 81 149 80 151 Q 78 156 74 164 Q 70 178 69 184 Q 66 197 68 208 Q 71 219 81 226 Q 91 233 108 236 Q 128 240 146 240 Q 153 240 167 238 Q 178 238 188 236 Q 200 235 220 232 Q 220 225 220 222 Q 222 183 219 147 L 218 145 Q 217 139 222 134 Q 226 129 233 129 Q 244 129 249 139 Q 262 178 271 216 Q 272 219 272 220 Q 287 217 308 212 Q 325 207 342 202 Q 358 197 392 186 Q 396 184 411 180 L 412 180 Q 430 173 448 183 Q 466 192 472 210 Q 478 228 469 245 Q 459 263 441 269 Q 436 271 435 271 Q 425 273 414 275 Q 387 279 359 284 Z M 161 321 Q 166 323 166 329 Q 168 349 163 370 Q 158 389 145 410 Q 131 430 115 443 Q 105 451 96 458 Q 84 465 77 469 L 76 470 Q 58 480 39 475 Q 20 470 10 453 Q 0 435 5 416 Q 10 397 27 387 Q 37 381 51 380 H 65 Q 72 380 79 379 Q 90 378 106 371 Q 120 364 131 353 Q 142 342 148 328 L 149 326 Q 153 318 161 321 Z M 69 108 Q 59 104 62 93 Q 65 85 73 85 H 75 Q 98 85 127 79 Q 152 74 177 63 Q 198 55 224 40 Q 232 37 246 27 L 267 12 L 269 11 Q 285 0 304 4 Q 324 7 335 24 Q 347 40 343 59 Q 339 79 323 90 Q 319 93 310 96 Q 295 101 280 105 Q 261 110 251 112 Q 218 119 190 121 Q 159 124 129 121 Q 95 118 69 108 Z" fill="black" />
  </g>
  <g class="defect" id="01">
    <path d="M 79 131 Q 68 137 83 146" fill="none" stroke="red" stroke-width="3" />
  </g>
</svg>