<svg xmlns="http://www.w3.org/2000/svg" width="512" height="512" viewBox="0 0 512 512">
  <g class="glyph">
    <path d="M 449 346 Q 449 358 437 362 Q 369 376 295 385 Q 299 416 301 447 Q 302 467 289 482 Q 276 498 256 499 Q 237 500 222 487 Q 206 474 206 454 Q 205 450 206 441 Q 211 417 216 392 Q 201 394 185 394 Q 142 397 100 398 Q 84 398 73 387 Q 61 375 61 360 Q 61 345 72 333 Q 83 322 98 321 Q 102 321 104 322 Q 128 325 185 330 Q 206 332 226 333 Q 227 328 227 322 Q 227 318 229 311 Q 220 312 200 313 Q 156 316 133 316 Q 118 316 106 306 Q 95 295 94 279 Q 94 263 105 252 Q 117 241 132 240 Q 137 240 139 241 Q 175 246 201 249 Q 219 251 236 253 Q 239 216 241 201 Q 243 188 255 188 Q 265 189 267 199 Q 273 227 278 256 Q 342 259 390 256 Q 404 256 406 269 Q 406 281 395 285 Q 350 296 286 305 Q 287 316 288 322 Q 289 329 290 335 Q 374 337 433 333 H 434 Q 447 333 449 346 Z M 97 165 Q 112 148 143 157 Q 154 154 163 151 Q 160 152 156 152 Q 99 154 41 154 Q 26 154 14 142 Q 3 131 3 115 Q 3 100 14 88 Q 26 77 41 77 Q 44 77 44 78 H 45 Q 118 84 157 86 Q 159 86 164 86 Q 156 79 152 75 Q 144 63 140 57 L 138 54 Q 125 29 148 13 Q 173 0 190 23 Q 194 31 194 40 Q 193 47 194 55 Q 194 60 197 68 Q 199 75 202 82 Q 204 85 206 88 Q 230 90 241 90 Q 238 85 238 81 Q 237 74 240 66 Q 244 58 244 53 Q 246 46 245 38 Q 244 33 239 23 Q 234 15 227 9 L 227 8 Q 225 6 227 4 Q 227 3 229 3 Q 242 4 251 9 Q 262 16 269 24 Q 279 35 283 45 Q 287 56 289 71 L 290 73 Q 291 83 285 91 Q 293 91 306 91 L 309 89 Q 316 80 318 77 Q 321 71 323 63 Q 326 53 326 49 Q 326 42 326 35 Q 325 23 333 13 Q 342 3 354 3 Q 366 2 376 10 Q 386 18 387 31 Q 387 41 382 49 L 380 51 Q 374 62 367 70 Q 363 75 352 85 Q 346 90 343 91 Q 425 91 493 85 H 494 Q 509 85 512 100 Q 512 114 498 118 Q 422 133 305 143 Q 313 147 320 151 Q 338 160 365 167 Q 395 174 410 174 Q 410 175 455 174 Q 475 173 491 186 Q 506 199 508 220 Q 509 241 496 256 Q 483 271 462 273 Q 453 273 442 270 L 441 269 Q 404 256 387 246 Q 365 234 340 215 Q 317 197 300 177 Q 302 159 276 145 H 271 Q 258 147 231 148 Q 230 150 229 151 Q 221 164 211 174 Q 195 191 167 210 Q 148 223 119 238 Q 103 246 69 260 Q 51 268 33 260 Q 14 253 7 235 Q 0 217 8 199 Q 15 180 33 173 Q 41 170 48 170 H 48 Q 88 167 97 165 Z" fill="black" />
  </g>
  <g class="defect" id="01">
    <path d="M 300 177 Q 302 159 276 145" fill="none" stroke="red" stroke-width="3" />
  </g>
  <g class="defect" id="02">
    <path d="M 410 174 Q 410 175 455 174" fill="none" stroke="red" stroke-width="3" />
  </g>
  <g class="defect" id="03">
    <path d="M 97 165 Q 112 148 143 157" fill="none" stroke="red" stroke-width="3" />
  </g>
</svg>