<svg xmlns="http://www.w3.org/2000/svg" width="512" height="512" viewBox="0 0 512 512">
  <g class="glyph">
    <path d="M 254 144 Q 241 172 212 188 Q 204 202 230 222 Q 253 270 257 315 Q 260 344 255 369 Q 250 397 235 423 Q 209 468 151 499 L 149 501 Q 128 512 105 505 Q 83 498 72 477 Q 60 456 67 434 Q 74 411 95 401 Q 99 398 108 396 Q 143 386 160 370 Q 171 359 177 347 Q 183 333 186 315 Q 192 281 182 238 Q 174 197 157 160 V 159 Q 153 146 165 139 Q 192 134 183 144 Q 195 161 201 171 Q 218 153 221 133 Q 224 97 200 84 Q 179 73 148 83 Q 122 92 90 117 Q 72 131 50 129 Q 28 126 14 108 Q 0 90 3 68 Q 5 45 23 31 Q 28 26 36 23 L 38 22 Q 95 1 137 0 Q 168 0 192 8 Q 222 18 241 41 Q 260 63 263 93 Q 266 118 254 144 Z" fill="black" />
  </g>
  <g class="defect" id="01">
    <path d="M 212 188 Q 204 202 230 222" fill="none" stroke="red" stroke-width="3" />
  </g>
  <g class="defect" id="02">
    <path d="M 165 139 Q 192 134 183 144" fill="none" stroke="red" stroke-width="3" />
  </g>
</svg>