<svg xmlns="http://www.w3.org/2000/svg" width="512" height="512" viewBox="0 0 512 512">
  <g class="glyph">
    <path d="M 67 171 Q 42 168 24 148 Q 0 117 10 79 Q 16 56 33 38 Q 48 22 64 18 Q 94 13 111 39 Q 122 67 102 89 Q 98 93 91 97 Q 90 98 85 99 Q 76 103 74 108 Q 72 115 78 118 Q 83 121 90 121 Q 128 122 155 98 Q 161 93 164 92 Q 168 92 170 95 Q 173 99 174 102 Q 174 110 167 120 Q 157 135 139 148 Q 134 151 126 156 Q 124 157 121 158 Q 125 171 133 212 Q 139 249 141 281 Q 143 314 145 350 Q 145 373 144 420 Q 143 441 128 455 Q 114 469 93 468 Q 72 467 58 452 Q 44 438 45 417 Q 46 409 47 404 V 403 Q 59 365 65 341 Q 74 307 79 278 Q 85 249 89 213 Q 92 189 92 169 Q 80 172 67 171 Z M 235 62 Q 241 54 246 38 Q 249 25 248 11 V 9 Q 248 1 255 0 Q 260 0 263 4 Q 273 18 278 36 Q 282 48 283 60 Q 311 59 350 52 Q 375 48 397 42 Q 419 37 443 29 Q 473 24 472 31 Q 485 37 490 52 Q 495 67 488 81 Q 482 94 467 99 Q 461 101 457 101 H 457 Q 432 103 404 102 Q 387 102 352 99 Q 319 97 283 89 Q 295 101 279 111 Q 275 128 265 148 L 263 151 Q 256 168 239 174 Q 222 180 206 172 Q 190 164 184 147 Q 178 130 186 114 Q 191 102 201 96 Q 214 87 220 81 Q 228 75 235 62 Z M 456 174 Q 472 183 486 202 Q 493 214 496 220 Q 502 235 502 238 Q 512 268 510 308 Q 508 359 486 432 Q 480 453 462 463 Q 445 473 424 467 Q 403 461 393 443 Q 383 425 389 404 Q 390 400 392 395 Q 421 339 430 299 Q 436 274 435 254 Q 433 234 422 223 Q 424 191 383 206 Q 367 203 348 204 Q 348 213 349 222 Q 349 271 340 306 Q 329 352 303 389 Q 274 428 228 451 L 227 452 Q 209 461 191 455 Q 172 449 164 431 Q 155 414 161 396 Q 167 378 185 369 Q 189 367 194 366 Q 225 358 247 339 Q 269 320 286 287 Q 300 259 309 218 Q 310 211 310 207 Q 270 213 221 228 Q 213 231 209 223 Q 208 216 213 212 Q 266 184 315 169 Q 316 161 316 144 V 143 Q 316 139 319 135 Q 323 131 328 131 Q 337 131 339 140 Q 341 148 343 162 Q 364 158 386 157 Q 406 157 420 161 Q 423 161 438 165 Q 447 169 456 174 Z" fill="black" />
  </g>
  <g class="defect" id="01">
    <path d="M 443 29 Q 473 24 472 31" fill="none" stroke="red" stroke-width="3" />
  </g>
  <g class="defect" id="02">
    <path d="M 422 223 Q 424 191 383 206" fill="none" stroke="red" stroke-width="3" />
  </g>
  <g class="defect" id="03">
    <path d="M 283 89 Q 295 101 279 111" fill="none" stroke="red" stroke-width="3" />
  </g>
</svg>