<svg xmlns="http://www.w3.org/2000/svg" width="512" height="512" viewBox="0 0 512 512">
  <g class="glyph">
    <path d="M 420 424 Q 379 431 343 434 Q 293 439 266 440 Q 227 442 187 442 Q 172 441 161 430 Q 151 419 151 404 Q 152 389 163 379 Q 174 368 189 368 H 194 Q 230 374 267 377 Q 299 380 341 381 Q 379 382 416 381 Q 450 380 490 376 H 491 Q 506 376 509 391 Q 509 404 496 409 Q 446 419 420 424 Z M 127 165 Q 126 166 124 166 L 123 166 Q 130 189 135 221 Q 141 259 144 291 Q 147 326 147 361 Q 148 400 147 432 Q 146 453 131 467 Q 116 481 95 481 Q 75 480 60 465 Q 46 449 46 428 Q 46 421 49 415 V 415 Q 58 385 67 352 Q 75 322 82 288 Q 89 245 91 222 Q 94 196 94 180 L 93 180 Q 61 189 38 176 Q 14 164 5 138 Q 0 125 0 112 Q 1 74 31 45 Q 41 34 53 30 Q 76 22 95 38 Q 112 53 109 77 Q 106 97 85 109 Q 82 111 78 112 Q 76 112 72 115 Q 66 120 68 126 Q 72 132 79 133 Q 98 135 121 127 Q 140 120 154 108 Q 157 105 161 102 Q 165 99 170 100 Q 176 102 177 109 Q 177 115 170 125 Q 165 132 158 139 Q 143 154 127 165 Z M 456 111 Q 485 124 501 157 Q 512 184 510 218 V 218 Q 509 236 497 247 Q 484 258 467 258 Q 450 257 439 244 Q 427 231 428 215 Q 443 211 429 207 Q 432 193 431 184 Q 429 175 422 169 Q 423 145 394 157 Q 380 153 358 152 Q 325 150 277 155 Q 239 160 211 166 Q 213 175 215 179 Q 217 184 224 194 Q 240 219 218 240 Q 192 256 171 234 Q 166 226 165 218 V 213 Q 163 197 165 183 Q 166 169 171 156 Q 176 143 182 132 Q 188 121 196 111 Q 200 105 207 109 Q 210 112 209 117 V 117 Q 208 129 208 137 Q 240 124 269 116 Q 296 109 310 106 Q 309 91 311 82 Q 314 66 323 52 Q 334 35 346 26 Q 359 15 375 8 L 378 7 Q 391 0 405 5 Q 418 10 425 23 Q 431 36 427 50 Q 422 63 409 70 Q 400 74 389 73 Q 376 72 370 72 Q 360 73 350 78 Q 341 82 332 91 Q 328 96 324 103 Q 343 99 356 98 Q 380 95 403 97 Q 435 100 456 111 Z" fill="black" />
  </g>
  <g class="defect" id="01">
    <path d="M 428 215 Q 443 211 429 207" fill="none" stroke="red" stroke-width="3" />
  </g>
  <g class="defect" id="02">
    <path d="M 422 169 Q 423 145 394 157" fill="none" stroke="red" stroke-width="3" />
  </g>
</svg>