<svg xmlns="http://www.w3.org/2000/svg" width="512" height="512" viewBox="0 0 512 512">
  <g class="glyph">
    <path d="M 24 172 Q 0 141 10 103 Q 16 80 34 62 Q 49 45 64 41 Q 95 37 111 62 Q 123 90 103 113 Q 98 117 92 121 Q 89 123 86 124 Q 75 128 74 132 Q 73 139 79 143 Q 84 146 91 146 Q 129 147 156 122 Q 162 117 165 117 Q 174 118 174 126 Q 175 134 168 144 Q 158 159 140 172 Q 135 175 127 180 Q 125 181 122 183 Q 129 210 133 237 Q 137 259 142 306 Q 144 340 146 376 Q 146 399 145 447 Q 144 467 129 481 Q 114 495 93 494 Q 72 493 58 479 Q 44 464 45 443 Q 26 453 47 430 V 429 Q 60 391 66 367 Q 74 333 80 303 Q 86 274 90 238 Q 93 214 93 193 Q 80 196 68 195 Q 42 192 24 172 Z M 351 78 Q 340 83 334 91 Q 329 96 323 105 Q 344 102 357 101 Q 381 98 404 100 Q 432 102 455 113 Q 485 128 497 159 Q 507 181 506 216 Q 505 232 494 242 Q 483 252 468 251 Q 453 250 443 239 Q 432 228 433 213 Q 434 210 434 207 Q 437 192 435 182 Q 433 172 424 165 Q 403 151 358 149 Q 322 147 278 153 Q 257 155 218 163 Q 220 169 222 172 Q 225 178 232 186 Q 254 216 228 244 Q 198 266 171 240 Q 159 227 160 211 L 161 203 Q 162 186 165 174 Q 169 160 174 149 Q 195 144 202 107 Q 205 104 209 107 Q 211 108 211 110 L 210 111 Q 210 125 212 137 Q 245 125 271 118 Q 295 111 311 108 Q 310 94 312 81 Q 316 64 324 51 Q 334 35 346 26 Q 355 19 375 8 L 378 7 Q 392 0 405 5 Q 419 10 425 23 Q 432 36 427 49 Q 422 63 409 69 Q 401 74 390 72 Q 377 71 370 72 Q 363 72 351 78 Z M 502 411 Q 526 421 505 453 Q 498 474 477 484 Q 470 488 466 489 L 464 489 Q 396 505 337 493 Q 296 483 272 463 Q 259 452 248 435 Q 237 418 233 402 Q 225 375 229 338 Q 233 311 243 283 Q 258 237 289 184 Q 293 177 299 181 Q 306 184 304 190 Q 286 246 281 292 Q 279 304 279 328 Q 281 326 284 325 Q 295 319 304 309 Q 308 304 319 288 L 326 276 L 332 264 Q 340 247 358 240 Q 377 234 394 242 Q 411 250 417 269 Q 424 287 416 304 Q 410 316 400 322 L 399 323 L 383 334 Q 381 335 366 344 Q 347 354 331 359 Q 310 365 291 365 Q 288 365 284 364 Q 287 375 291 381 Q 299 396 314 402 Q 326 408 348 408 Q 387 408 429 387 Q 449 377 470 384 Q 492 392 502 411 Z" fill="black" />
  </g>
  <g class="defect" id="01">
    <path d="M 502 411 Q 526 421 505 453" fill="none" stroke="red" stroke-width="3" />
  </g>
  <g class="defect" id="02">
    <path d="M 174 149 Q 195 144 202 107" fill="none" stroke="red" stroke-width="3" />
  </g>
  <g class="defect" id="03">
    <path d="M 45 443 Q 26 453 47 430" fill="none" stroke="red" stroke-width="3" />
  </g>
</svg>