<svg xmlns="http://www.w3.org/2000/svg" width="512" height="512" viewBox="0 0 512 512">
  <g class="glyph">
    <path d="M 278 273 277 274 Q 275 283 272 303 Q 278 302 284 301 Q 302 295 316 287 Q 331 280 341 269 Q 350 261 360 247 Q 371 231 390 228 Q 408 225 424 236 Q 440 247 443 266 Q 447 285 435 300 Q 429 310 420 314 L 418 315 Q 397 328 374 335 Q 349 342 329 343 Q 310 344 286 340 Q 281 340 271 337 Q 272 358 279 371 Q 286 384 297 389 Q 319 399 359 390 Q 393 382 428 363 Q 449 353 470 359 Q 492 366 502 386 Q 512 406 505 428 Q 499 449 479 460 Q 468 464 465 465 L 463 465 Q 408 477 364 474 Q 335 473 311 466 Q 280 458 259 438 Q 236 417 231 384 Q 226 360 232 333 Q 235 320 243 297 L 210 318 Q 195 327 179 323 Q 162 320 153 305 Q 144 291 148 274 Q 152 257 166 249 Q 169 247 173 245 L 174 244 L 210 231 L 230 222 Q 210 222 189 222 Q 174 222 163 211 Q 153 201 153 186 Q 171 171 164 160 Q 175 149 190 149 Q 191 150 195 150 H 195 Q 225 154 268 157 Q 280 159 303 160 Q 307 143 308 132 Q 309 122 310 118 Q 294 119 287 120 Q 255 122 227 121 Q 211 120 201 110 Q 191 99 192 83 Q 192 68 203 57 Q 214 47 229 48 Q 234 48 236 49 Q 250 51 288 57 Q 302 59 316 60 Q 317 44 321 11 Q 323 0 335 0 Q 344 1 346 10 Q 350 36 355 62 Q 398 64 452 61 Q 468 62 470 76 Q 469 90 458 93 Q 447 96 437 98 Q 432 109 422 128 Q 409 148 398 161 H 416 Q 429 160 490 156 H 491 Q 506 156 509 171 Q 509 184 496 188 Q 454 198 420 204 Q 374 211 350 213 Q 346 217 341 222 Q 317 245 278 273 Z M 404 105 Q 402 105 362 112 Q 363 122 364 132 Q 365 138 365 143 Q 367 141 372 137 Q 395 116 399 111 Q 402 108 404 105 Z M 24 152 Q 0 121 10 83 Q 17 59 34 41 Q 49 25 63 21 Q 95 16 111 42 Q 123 70 103 93 Q 98 97 92 101 Q 89 102 86 104 Q 75 107 74 112 Q 73 119 79 122 Q 84 125 91 125 Q 129 126 156 102 Q 162 96 165 96 Q 174 98 174 106 Q 175 114 168 123 Q 158 139 140 152 Q 134 156 126 160 Q 125 161 122 162 Q 128 186 133 216 Q 137 239 142 286 Q 145 321 146 356 Q 146 379 145 426 Q 144 446 129 461 Q 113 475 93 474 Q 72 473 58 458 Q 44 444 45 423 Q 45 418 47 410 V 409 Q 60 371 66 347 Q 74 313 80 283 Q 87 240 90 217 Q 92 203 93 173 Q 80 176 68 175 Q 42 172 24 152 Z" fill="black" />
  </g>
  <g class="defect" id="01">
    <path d="M 153 186 Q 171 171 164 160" fill="none" stroke="red" stroke-width="3" />
  </g>
</svg>