<svg xmlns="http://www.w3.org/2000/svg" width="512" height="512" viewBox="0 0 512 512">
  <g class="glyph">
    <path d="M 23 132 Q 0 102 9 65 Q 16 41 33 24 Q 48 8 62 5 Q 92 0 108 25 Q 120 52 100 75 Q 96 79 89 82 Q 86 84 83 85 Q 73 89 72 93 Q 71 100 77 103 Q 82 106 89 106 Q 125 107 151 83 Q 158 78 161 78 Q 169 79 170 87 Q 170 95 163 104 Q 154 119 136 132 Q 130 136 123 140 Q 122 141 118 142 Q 125 165 129 195 Q 133 217 138 262 Q 141 296 142 330 Q 142 353 141 399 Q 140 418 125 432 Q 126 435 91 446 Q 70 444 57 430 Q 43 416 44 396 Q 44 391 46 383 V 382 Q 58 345 64 322 Q 72 288 78 259 Q 85 217 87 196 Q 89 182 90 153 Q 78 156 66 154 Q 41 151 23 132 Z M 470 328 Q 490 333 501 351 Q 512 369 507 389 Q 503 409 485 420 Q 467 431 446 426 Q 439 424 437 423 L 434 422 Q 401 407 380 381 Q 358 354 355 317 Q 355 316 354 314 Q 352 315 349 315 Q 340 316 332 312 L 329 310 Q 306 299 292 282 Q 285 275 279 265 Q 273 255 270 245 Q 267 237 274 235 Q 278 234 281 236 L 283 238 Q 289 242 296 247 Q 307 252 312 253 Q 337 239 342 255 Q 349 255 358 257 Q 358 254 360 242 L 361 235 V 226 Q 361 208 354 195 Q 348 182 334 177 Q 310 168 270 180 Q 256 223 252 256 Q 247 306 262 333 Q 270 346 283 353 Q 294 359 313 363 H 314 Q 331 366 341 381 Q 351 396 347 413 Q 344 430 330 440 Q 303 435 298 446 Q 294 445 292 444 Q 259 432 236 414 Q 210 391 199 359 Q 189 331 192 299 Q 193 273 201 245 Q 213 201 241 152 Q 259 118 285 79 Q 275 80 264 81 Q 228 83 199 82 Q 183 82 173 71 Q 163 60 164 45 Q 164 31 175 21 Q 186 10 200 11 Q 204 11 206 12 H 206 Q 224 15 265 20 Q 306 23 326 24 Q 353 26 386 24 Q 414 24 447 20 H 448 Q 462 19 465 34 Q 465 47 453 51 Q 414 62 391 65 Q 356 72 328 75 Q 320 76 312 77 Q 312 79 312 80 H 311 Q 295 112 281 147 Q 286 145 289 144 Q 317 133 341 135 Q 374 136 397 161 Q 416 182 426 213 L 429 226 Q 431 235 431 242 Q 432 260 432 267 Q 433 291 437 303 Q 441 315 448 319 Q 455 324 470 328 Z" fill="black" />
  </g>
  <g class="defect" id="01">
    <path d="M 125 432 Q 126 435 91 446" fill="none" stroke="red" stroke-width="3" />
  </g>
  <g class="defect" id="02">
    <path d="M 312 253 Q 337 239 342 255" fill="none" stroke="red" stroke-width="3" />
  </g>
  <g class="defect" id="03">
    <path d="M 330 440 Q 303 435 298 446" fill="none" stroke="red" stroke-width="3" />
  </g>
</svg>