<svg xmlns="http://www.w3.org/2000/svg" width="512" height="512" viewBox="0 0 512 512">
  <g class="glyph">
    <path d="M 66 181 Q 40 178 24 159 Q -13 128 10 91 Q 16 69 33 50 Q 47 35 63 31 Q 92 26 109 51 Q 122 79 101 101 Q 95 106 90 109 Q 85 111 84 111 Q 74 115 73 119 Q 71 125 77 130 Q 81 132 90 132 Q 126 133 152 109 Q 158 105 161 104 Q 165 104 168 107 Q 170 111 171 114 Q 171 119 164 131 Q 153 148 136 159 Q 130 163 124 167 Q 122 168 119 169 Q 126 194 130 221 Q 136 260 139 289 Q 141 312 142 358 Q 143 381 142 427 Q 140 447 126 461 Q 112 475 91 474 Q 71 473 57 458 Q 43 444 44 423 Q 44 417 46 411 L 47 410 Q 56 380 64 349 Q 58 319 78 286 Q 85 249 88 223 Q 90 201 91 180 Q 78 183 66 181 Z M 485 252 Q 492 277 498 310 Q 501 328 506 368 Q 510 408 511 427 Q 512 447 499 462 Q 486 476 466 477 Q 446 479 432 465 Q 417 452 416 432 Q 416 427 417 419 Q 424 394 429 366 Q 437 321 438 311 Q 442 281 442 256 Q 444 224 441 202 V 201 Q 441 189 453 187 Q 463 185 467 195 Q 478 224 485 252 Z M 379 331 Q 387 312 392 285 Q 396 259 394 236 V 236 Q 395 230 401 229 Q 406 229 408 233 Q 420 260 424 284 Q 431 313 430 341 V 342 Q 429 353 422 361 Q 414 368 403 367 Q 391 367 384 359 Q 376 352 377 340 Q 377 336 379 331 Z M 284 367 H 304 Q 308 351 309 346 Q 310 341 311 331 Q 293 336 284 338 Q 269 341 250 343 Q 228 345 217 345 Q 217 353 218 360 H 218 Q 231 363 250 365 Q 262 366 284 367 Z M 291 208 Q 313 211 330 224 Q 365 238 359 264 Q 373 298 375 350 Q 376 382 372 432 Q 371 449 358 460 Q 344 471 327 470 Q 309 468 298 455 Q 287 441 288 424 Q 288 419 290 415 V 415 Q 294 404 295 399 Q 291 400 288 401 Q 271 406 252 408 Q 231 412 219 413 Q 219 430 219 439 V 439 Q 218 453 209 462 Q 199 470 186 470 Q 173 469 164 459 Q 154 449 155 436 Q 155 432 157 428 Q 167 396 177 342 Q 184 304 190 252 Q 191 245 198 245 Q 204 245 205 252 Q 209 271 211 291 Q 212 291 214 291 Q 218 291 222 293 Q 233 296 251 299 Q 272 303 283 303 Q 298 305 313 305 Q 313 291 311 280 Q 305 248 280 240 Q 254 232 212 246 L 212 247 Q 204 249 201 242 Q 199 235 205 232 Q 222 221 242 214 Q 261 207 281 207 L 279 207 Q 275 207 271 205 Q 257 201 250 188 Q 243 176 248 161 Q 249 158 250 154 Q 246 158 243 159 L 241 160 Q 226 170 209 165 Q 191 160 182 145 Q 173 130 177 112 Q 182 95 197 85 Q 208 80 215 80 Q 234 78 246 74 Q 260 70 275 61 Q 287 53 301 38 Q 313 25 322 8 L 322 8 Q 326 0 333 4 Q 338 6 337 11 Q 337 20 336 25 Q 346 39 359 49 Q 374 63 390 72 Q 406 80 424 83 Q 435 84 454 81 Q 469 77 483 86 Q 497 95 500 110 Q 504 126 496 140 Q 487 153 471 156 Q 464 158 456 157 L 454 156 Q 421 150 401 138 Q 379 123 363 104 Q 348 87 338 64 Q 335 57 331 50 Q 331 50 330 54 Q 323 77 312 94 Q 298 116 282 130 Q 279 134 276 137 Q 279 136 281 136 Q 287 136 292 138 Q 300 141 307 144 Q 312 146 323 148 Q 343 153 360 154 Q 379 156 398 156 Q 411 156 438 154 Q 442 154 446 157 Q 449 159 449 163 Q 451 170 444 173 Q 422 183 404 188 Q 389 194 363 200 Q 339 205 319 207 Q 305 208 297 208 Z" fill="black" />
  </g>
  <g class="defect" id="01">
    <path d="M 330 224 Q 365 238 359 264" fill="none" stroke="red" stroke-width="3" />
  </g>
  <g class="defect" id="02">
    <path d="M 64 349 Q 58 319 78 286" fill="none" stroke="red" stroke-width="3" />
  </g>
  <g class="defect" id="03">
    <path d="M 24 159 Q -13 128 10 91" fill="none" stroke="red" stroke-width="3" />
  </g>
</svg>