<svg xmlns="http://www.w3.org/2000/svg" width="512" height="512" viewBox="0 0 512 512">
  <g class="glyph">
    <path d="M 67 166 Q 42 163 24 143 Q 0 112 10 74 Q 16 51 33 33 Q 47 17 63 13 Q 94 8 110 34 Q 122 62 102 84 Q 97 88 91 92 Q 88 93 85 94 Q 76 98 74 103 Q 72 109 78 113 Q 81 115 90 116 Q 126 117 154 93 Q 160 88 163 88 Q 167 87 170 90 Q 173 94 173 97 Q 173 104 166 115 Q 157 130 138 143 Q 134 146 126 151 Q 123 152 121 153 Q 124 164 132 206 Q 138 245 141 275 Q 144 310 144 345 Q 145 368 144 414 Q 142 435 128 449 Q 102 476 93 462 Q 72 461 58 446 Q 44 432 44 411 Q 46 403 47 398 V 397 Q 59 359 65 335 Q 74 303 79 272 Q 85 244 89 208 Q 92 184 92 164 Q 79 167 67 166 Z M 298 399 V 396 Q 299 394 307 345 Q 300 346 293 346 Q 261 348 234 348 Q 219 347 209 336 Q 198 325 199 310 Q 199 295 210 285 Q 221 275 236 275 Q 240 275 243 276 Q 257 279 294 284 Q 301 285 314 286 Q 316 273 317 260 Q 297 260 277 255 Q 247 248 227 232 Q 200 212 186 173 Q 175 142 178 100 Q 179 85 183 66 Q 185 59 186 51 Q 187 47 189 43 Q 190 42 190 40 Q 191 39 193 34 Q 209 1 241 0 Q 254 0 267 8 Q 276 14 284 27 L 285 27 H 286 Q 319 23 329 23 Q 346 21 364 21 Q 393 21 415 28 Q 440 37 456 57 Q 464 68 469 81 Q 475 97 477 106 Q 482 135 475 163 Q 468 190 449 210 Q 422 241 380 253 Q 382 278 383 290 Q 421 290 457 288 Q 464 288 469 292 Q 474 297 475 303 Q 475 317 462 320 Q 421 330 386 336 Q 388 402 388 402 Q 441 402 494 397 H 494 Q 501 396 506 401 Q 511 405 511 412 Q 512 425 500 429 Q 429 446 355 454 Q 322 458 282 460 Q 245 462 207 462 Q 192 461 181 450 Q 171 439 171 424 Q 172 409 183 399 Q 194 389 209 389 Q 212 389 214 390 H 214 Q 234 393 282 398 Q 291 399 298 399 Z M 444 147 445 145 Q 449 135 449 123 Q 424 132 402 137 Q 393 139 368 145 Q 371 172 374 199 Q 414 193 436 164 Q 437 161 440 158 L 441 155 Q 442 153 443 151 Q 444 149 444 147 Z M 370 60 Q 361 60 356 61 Q 361 93 362 109 Q 386 109 398 108 Q 422 106 446 103 Q 441 84 425 74 Q 421 70 414 67 Q 396 60 370 60 Z M 330 65 Q 296 75 279 103 Q 281 103 284 103 Q 298 105 328 107 Q 329 87 330 65 Z M 275 156 Q 287 186 323 197 Q 325 174 326 151 Q 297 155 282 155 Q 280 156 275 156 Z" fill="black" />
  </g>
  <g class="defect" id="01">
    <path d="M 128 449 Q 102 476 93 462" fill="none" stroke="red" stroke-width="3" />
  </g>
</svg>