<svg xmlns="http://www.w3.org/2000/svg" width="512" height="512" viewBox="0 0 512 512">
  <g class="glyph">
    <path d="M 375 278 Q 361 283 357 306 Q 342 316 324 312 Q 306 308 296 293 Q 286 278 289 260 Q 292 246 303 236 Q 311 228 315 223 Q 321 212 323 203 Q 326 192 327 180 Q 327 171 326 155 L 326 154 Q 326 143 336 142 Q 341 142 345 146 Q 353 155 362 171 Q 369 185 374 200 Q 380 218 380 233 Q 381 250 377 270 Z M 465 123 Q 478 188 482 238 Q 488 304 480 357 Q 476 389 465 421 Q 452 458 430 485 L 427 489 Q 412 507 389 510 Q 365 512 347 497 Q 329 482 327 459 Q 324 435 339 417 Q 342 414 348 409 Q 373 390 390 338 Q 403 296 408 238 Q 412 196 411 130 Q 409 79 402 22 V 21 Q 417 4 418 1 Q 432 0 437 14 Q 455 69 465 123 Z M 232 243 Q 258 277 277 318 Q 286 337 278 356 Q 271 375 252 384 Q 233 393 214 386 Q 195 379 186 359 Q 183 354 182 348 V 347 Q 176 316 165 289 Q 146 287 148 311 Q 117 346 85 373 L 85 374 Q 69 387 48 385 Q 27 383 13 367 Q 0 350 2 330 Q 4 309 20 296 Q 26 291 30 289 Q 61 273 92 251 Q 99 246 127 223 Q 105 194 83 170 Q 54 140 29 120 L 29 120 Q 20 112 26 102 Q 33 94 42 98 Q 75 113 111 136 Q 141 155 170 180 Q 214 130 236 79 Q 242 69 253 72 Q 262 77 261 87 Q 249 151 211 219 Q 222 231 232 243 Z" fill="black" />
  </g>
  <g class="defect" id="01">
    <path d="M 165 289 Q 146 287 148 311" fill="none" stroke="red" stroke-width="3" />
  </g>
  <g class="defect" id="02">
    <path d="M 402 21 Q 417 4 418 1" fill="none" stroke="red" stroke-width="3" />
  </g>
  <g class="defect" id="03">
    <path d="M 375 278 Q 361 283 357 306" fill="none" stroke="red" stroke-width="3" />
  </g>
</svg>