<svg xmlns="http://www.w3.org/2000/svg" width="512" height="512" viewBox="0 0 512 512">
  <g class="glyph">
    <path d="M 306 334 Q 305 349 299 364 Q 288 387 267 403 Q 253 414 233 423 Q 203 437 165 440 Q 158 441 150 441 H 147 Q 138 440 130 439 Q 110 436 96 432 Q 75 425 61 417 Q 42 405 30 385 Q 18 365 19 341 Q 19 324 26 304 Q 36 276 57 245 Q 68 231 80 215 Q 72 215 69 216 Q 47 216 34 215 Q 19 215 10 204 Q 0 193 1 179 Q 1 164 13 155 Q 24 145 38 146 Q 39 146 44 147 Q 50 148 73 152 Q 83 154 104 156 Q 111 156 127 158 Q 127 154 128 148 Q 131 135 135 115 Q 131 115 127 116 Q 100 119 78 119 H 78 Q 64 119 54 109 Q 43 99 43 85 Q 43 71 53 61 Q 63 51 76 50 Q 80 50 86 51 Q 107 57 128 59 Q 146 42 144 62 Q 147 37 150 13 Q 150 7 154 3 Q 158 0 164 1 Q 174 2 176 11 Q 182 38 186 66 Q 231 68 263 63 H 263 Q 273 63 274 72 Q 276 81 268 84 Q 234 98 192 106 Q 196 130 197 154 V 155 Q 197 158 197 160 Q 208 160 230 159 Q 250 158 294 153 Q 305 153 308 164 Q 308 174 299 177 Q 270 186 235 194 Q 212 199 170 206 Q 150 210 123 212 Q 98 252 90 266 Q 76 294 73 317 Q 71 328 72 338 Q 74 348 78 352 Q 94 368 127 370 H 131 Q 160 370 180 366 Q 207 360 216 349 Q 221 341 220 330 Q 219 329 216 326 Q 214 325 212 322 Q 199 309 198 290 Q 197 271 211 256 Q 225 242 243 242 Q 262 242 275 255 Q 277 258 280 260 Q 297 282 303 304 Q 307 317 306 334 Z M 492 81 Q 507 108 510 140 Q 512 169 501 201 Q 482 251 431 292 L 430 293 Q 412 308 391 304 Q 392 308 392 312 Q 395 372 393 412 V 412 Q 392 432 377 445 Q 363 458 343 457 Q 323 456 310 442 Q 297 427 297 408 Q 298 404 299 399 Q 307 365 314 309 Q 336 268 323 216 Q 329 139 332 51 H 330 Q 327 51 321 52 Q 318 53 314 54 L 307 55 Q 297 55 294 45 Q 293 39 298 35 Q 300 33 310 26 Q 315 23 322 20 Q 332 17 341 15 Q 344 13 347 13 H 349 Q 373 9 400 13 Q 428 18 454 37 Q 478 55 492 81 Z M 424 167 Q 441 141 430 111 Q 419 78 387 64 Q 376 58 364 55 Q 376 131 383 205 Q 412 188 424 167 Z" fill="black" />
  </g>
  <g class="defect" id="01">
    <path d="M 128 59 Q 146 42 144 62" fill="none" stroke="red" stroke-width="3" />
  </g>
  <g class="defect" id="02">
    <path d="M 314 309 Q 336 268 323 216" fill="none" stroke="red" stroke-width="3" />
  </g>
</svg>