<svg xmlns="http://www.w3.org/2000/svg" width="512" height="512" viewBox="0 0 512 512">
  <g class="glyph">
    <path d="M 498 153 Q 500 164 489 168 Q 427 185 362 196 Q 375 223 387 263 Q 399 309 399 342 Q 399 397 379 434 Q 365 458 343 476 Q 323 491 296 502 L 290 504 Q 268 512 246 502 Q 224 492 215 469 Q 207 447 217 425 Q 227 404 250 396 Q 259 392 268 392 Q 290 392 303 381 Q 320 366 328 335 Q 335 311 336 270 Q 336 231 331 201 Q 313 203 281 207 Q 241 210 208 210 Q 192 209 181 198 Q 154 187 170 171 Q 170 155 182 144 Q 193 132 209 133 Q 214 133 216 134 H 216 Q 235 137 281 142 Q 315 146 348 146 Q 421 147 484 141 Q 506 122 498 153 Z M 35 490 Q 30 468 8 458 Q 0 436 10 415 Q 12 411 16 406 L 18 403 L 32 385 L 38 377 Q 40 374 44 368 L 56 349 L 65 329 Q 85 285 93 243 Q 102 194 101 149 Q 101 115 96 76 Q 70 66 69 37 Q 70 22 82 11 Q 94 0 109 1 Q 112 1 114 1 H 115 Q 149 8 205 12 Q 251 16 297 18 Q 388 20 484 13 Q 498 13 501 27 Q 501 40 489 44 Q 395 63 299 72 Q 251 76 203 78 Q 156 79 133 78 Q 144 109 151 144 Q 161 194 163 249 Q 163 301 151 358 L 144 385 L 134 412 Q 132 419 129 425 L 110 464 Q 100 485 78 492 Q 56 500 35 490 Z" fill="black" />
  </g>
  <g class="defect" id="01">
    <path d="M 35 490 Q 30 468 8 458" fill="none" stroke="red" stroke-width="3" />
  </g>
  <g class="defect" id="02">
    <path d="M 181 198 Q 154 187 170 171" fill="none" stroke="red" stroke-width="3" />
  </g>
  <g class="defect" id="03">
    <path d="M 484 141 Q 506 122 498 153" fill="none" stroke="red" stroke-width="3" />
  </g>
</svg>