<svg xmlns="http://www.w3.org/2000/svg" width="512" height="512" viewBox="0 0 512 512">
  <g class="glyph">
    <path d="M 487 389 Q 504 401 508 420 Q 512 440 501 457 Q 490 474 470 478 Q 450 482 433 471 Q 429 469 425 465 Q 399 437 383 415 Q 362 443 337 463 L 336 465 Q 319 480 297 478 Q 274 476 260 460 Q 245 443 247 420 Q 248 398 265 383 Q 271 378 274 376 Q 303 360 333 327 Q 328 313 322 297 Q 307 254 300 206 Q 293 158 293 114 Q 294 107 302 106 Q 308 106 310 113 V 113 Q 319 155 335 197 Q 351 236 373 272 Q 395 235 409 195 Q 420 167 424 137 Q 425 123 424 111 Q 423 105 421 100 Q 436 97 414 91 Q 407 82 395 80 Q 383 77 369 80 Q 344 84 313 101 L 313 101 Q 303 106 296 97 Q 292 87 300 81 Q 330 59 363 50 Q 383 44 401 47 Q 423 49 440 64 Q 449 73 453 81 Q 456 85 459 89 Q 461 95 463 100 Q 469 115 471 137 Q 473 170 468 209 Q 457 277 427 342 Q 447 363 485 389 Z M 113 382 114 383 Q 119 385 126 386 Q 144 391 165 392 Q 190 394 206 393 Q 213 393 220 393 Q 222 378 220 365 Q 219 365 214 366 Q 199 371 171 375 Q 148 379 127 379 H 113 Q 113 380 113 382 Z M 203 325 Q 191 314 168 316 Q 143 319 129 337 L 131 337 Q 151 341 171 343 Q 195 345 211 344 H 216 Q 210 331 203 325 Z M 193 446 Q 207 436 215 414 Q 213 414 209 415 Q 193 420 167 424 Q 143 428 122 428 H 121 Q 124 434 129 439 Q 148 457 177 452 Q 187 450 193 446 Z M 140 288 Q 139 290 137 295 Q 149 292 162 291 Q 169 290 175 291 Q 158 274 150 262 Q 146 276 140 288 Z M 207 181 Q 204 182 193 185 Q 172 191 169 191 Q 170 194 172 196 Q 180 204 186 206 Q 193 209 201 209 Q 204 209 206 208 H 208 Q 218 207 226 214 Q 235 220 236 231 Q 236 241 230 249 Q 223 258 213 258 Q 205 259 197 255 L 195 254 Q 182 253 192 252 Q 188 249 184 247 Q 174 241 165 227 Q 158 216 156 203 Q 156 199 155 195 V 194 Q 152 195 149 196 Q 143 197 132 198 Q 132 203 131 209 Q 130 222 124 232 Q 118 246 108 254 Q 105 257 101 260 Q 100 261 98 262 L 95 264 Q 75 276 59 259 Q 47 239 64 223 Q 71 217 81 217 H 88 Q 95 217 102 214 Q 110 210 117 203 Q 119 201 120 199 Q 109 200 104 201 Q 93 201 89 201 H 83 Q 71 201 62 193 Q 53 184 53 171 Q 53 159 62 150 Q 71 141 83 141 Q 87 141 91 142 Q 94 143 95 143 Q 102 145 108 146 Q 129 151 148 153 Q 177 156 188 156 Q 198 155 201 155 H 207 Q 219 155 220 166 Q 222 175 212 178 Q 210 180 207 181 Z M 0 194 V 188 Q 0 183 1 179 Q 2 165 6 152 Q 11 139 18 129 Q 20 126 24 120 Q 28 116 33 120 Q 35 121 35 125 Q 43 121 71 112 Q 79 110 88 107 Q 88 104 88 101 Q 88 92 91 87 Q 92 83 95 76 Q 100 59 101 51 Q 104 38 105 24 Q 106 18 107 12 Q 108 0 120 0 Q 127 1 130 8 Q 133 14 135 21 Q 138 28 140 37 Q 150 35 154 34 Q 174 28 181 25 Q 187 23 190 21 Q 191 21 193 20 Q 218 12 231 35 Q 239 60 216 73 Q 209 75 206 75 H 189 Q 164 73 157 73 Q 153 73 149 72 Q 149 75 151 79 Q 152 91 152 92 Q 156 92 160 91 Q 191 88 214 92 Q 226 94 241 101 Q 255 107 264 117 Q 269 123 273 128 Q 275 132 279 139 Q 281 148 284 157 Q 286 168 286 169 Q 286 170 286 173 Q 287 186 280 196 Q 272 206 259 207 Q 246 208 236 200 Q 226 192 225 180 Q 225 178 225 175 L 225 172 V 166 Q 225 162 225 160 Q 225 158 224 156 Q 223 154 222 153 Q 221 151 216 146 Q 208 140 202 139 Q 188 134 161 132 Q 129 130 76 137 Q 58 140 49 143 Q 41 144 38 145 H 34 Q 23 134 36 155 Q 37 166 41 173 Q 44 177 44 178 L 46 180 Q 57 200 39 214 Q 20 225 5 207 Q 1 202 0 194 Z M 153 224 Q 154 226 154 230 Q 154 238 153 244 Q 158 247 162 250 Q 177 260 193 264 Q 199 265 209 268 Q 221 269 224 269 H 234 Q 236 269 238 268 Q 249 268 258 276 Q 267 284 267 296 Q 268 308 260 316 Q 252 325 241 325 Q 236 325 235 325 Q 244 344 244 379 Q 244 405 241 422 Q 236 440 228 452 Q 216 468 196 475 Q 180 481 158 481 Q 139 482 120 475 Q 98 468 85 453 Q 73 439 68 420 Q 63 403 63 375 Q 63 366 64 350 Q 56 347 50 341 Q 30 316 51 292 Q 57 287 64 284 Q 66 284 68 283 Q 73 281 78 280 Q 85 277 92 273 Q 96 271 100 268 Q 103 266 107 263 Q 120 252 130 237 Q 133 232 135 226 Q 136 225 137 223 Q 137 220 140 217 Q 142 215 146 215 Q 153 216 153 224 Z" fill="black" />
  </g>
  <g class="defect" id="01">
    <path d="M 195 254 Q 182 253 192 252" fill="none" stroke="red" stroke-width="3" />
  </g>
  <g class="defect" id="02">
    <path d="M 34 145 Q 23 134 36 155" fill="none" stroke="red" stroke-width="3" />
  </g>
  <g class="defect" id="03">
    <path d="M 421 100 Q 436 97 414 91" fill="none" stroke="red" stroke-width="3" />
  </g>
</svg>