<svg xmlns="http://www.w3.org/2000/svg" width="512" height="512" viewBox="0 0 512 512">
  <g class="glyph">
    <path d="M 28 397 33 393 Q 60 377 77 365 Q 45 340 22 313 Q 13 302 23 291 Q 33 282 43 290 L 44 291 Q 74 314 116 335 L 146 307 Q 148 305 153 299 Q 126 292 103 278 Q 65 256 46 216 Q 17 182 35 140 Q 36 122 41 106 Q 42 102 46 89 Q 48 86 49 81 Q 50 79 51 77 Q 53 75 55 72 Q 79 36 123 35 Q 143 35 161 43 Q 175 50 185 62 H 185 Q 221 58 240 57 Q 247 57 254 56 Q 254 29 253 17 V 16 Q 253 3 266 0 Q 261 0 281 10 Q 286 29 291 55 Q 327 56 357 63 Q 390 72 413 94 Q 423 104 431 119 Q 438 132 442 146 Q 450 177 439 205 Q 430 233 404 256 Q 361 292 291 304 Q 283 305 261 306 Q 255 306 252 307 L 245 321 L 237 336 Q 229 350 220 365 L 213 374 Q 226 377 238 380 Q 303 395 342 397 Q 368 398 394 399 Q 421 398 447 397 L 451 396 Q 474 396 491 411 Q 508 427 509 450 Q 510 474 494 491 Q 479 508 455 509 Q 448 509 446 508 Q 410 516 385 500 Q 340 491 327 487 Q 276 475 214 448 Q 195 440 173 427 L 155 446 Q 150 452 106 494 Q 87 512 61 511 Q 35 511 18 492 Q 0 473 1 447 Q 1 421 20 403 Q 24 400 28 397 Z M 350 113 Q 327 106 295 106 Q 295 130 295 142 Q 292 189 278 237 Q 282 237 284 237 Q 346 233 376 201 Q 378 199 381 196 L 382 194 Q 384 192 385 190 Q 386 189 387 186 L 388 185 Q 392 173 392 164 Q 391 133 364 119 Q 357 115 350 113 Z M 198 131 Q 167 152 169 178 Q 171 206 207 224 Q 231 181 243 134 Q 247 120 248 110 Q 217 117 198 131 Z" fill="black" />
  </g>
  <g class="defect" id="01">
    <path d="M 446 508 Q 410 516 385 500" fill="none" stroke="red" stroke-width="3" />
  </g>
  <g class="defect" id="02">
    <path d="M 46 216 Q 17 182 35 140" fill="none" stroke="red" stroke-width="3" />
  </g>
  <g class="defect" id="03">
    <path d="M 266 0 Q 261 0 281 10" fill="none" stroke="red" stroke-width="3" />
  </g>
</svg>