<svg xmlns="http://www.w3.org/2000/svg" width="512" height="512" viewBox="0 0 512 512">
  <g class="glyph">
    <path d="M 343 334 Q 341 328 342 322 Q 343 303 343 293 Q 342 278 339 262 Q 335 243 331 231 Q 326 213 321 201 L 320 200 Q 318 193 325 189 Q 330 186 335 191 Q 345 201 357 218 Q 365 227 378 247 Q 389 265 394 279 Q 401 294 407 315 Q 412 328 405 340 Q 398 353 385 357 Q 354 363 343 334 Z M 277 321 Q 273 354 264 378 Q 251 414 225 437 L 220 442 Q 206 454 187 453 Q 168 452 155 438 Q 143 423 144 404 Q 145 385 159 373 Q 165 369 170 366 Q 179 362 190 345 Q 199 328 205 307 Q 203 307 200 307 H 199 Q 187 308 177 299 Q 167 291 167 278 Q 166 276 167 271 Q 147 291 119 297 Q 112 299 105 299 Q 101 299 93 299 H 91 Q 78 299 64 296 Q 46 292 33 281 Q 15 268 7 243 Q 0 221 2 196 Q 2 190 5 175 Q 6 170 7 165 Q 8 163 9 160 L 10 158 Q 11 156 11 154 Q 22 130 44 130 Q 54 130 62 136 Q 68 140 73 146 Q 80 145 95 144 Q 102 143 117 143 Q 136 143 148 147 Q 165 153 174 167 Q 193 163 183 183 Q 187 193 188 199 Q 191 217 187 236 Q 185 244 181 250 Q 189 246 196 246 Q 199 245 204 246 Q 212 247 217 249 Q 219 232 221 215 Q 223 184 223 146 Q 221 146 218 147 Q 191 149 190 149 H 189 Q 176 149 167 140 Q 159 131 159 119 Q 159 107 168 98 Q 177 89 189 89 Q 192 89 197 90 Q 206 93 219 95 Q 221 95 222 96 Q 221 60 217 18 Q 217 8 226 6 Q 235 5 238 14 Q 249 52 259 99 Q 274 100 288 99 H 289 Q 295 99 300 103 Q 304 108 305 114 Q 305 125 295 129 Q 281 134 266 138 Q 274 179 277 214 Q 278 227 279 254 Q 292 254 305 254 V 253 Q 312 253 317 257 Q 322 262 322 269 Q 322 281 312 285 Q 300 290 279 295 Q 278 308 277 321 Z M 158 223 Q 161 216 161 211 Q 161 194 149 186 Q 148 184 143 182 Q 132 178 120 178 Q 114 178 111 178 Q 92 180 79 191 Q 66 203 67 219 Q 68 233 80 243 Q 92 252 110 252 Q 113 252 115 252 Q 142 250 154 231 Q 155 230 156 228 L 156 227 L 158 225 Z M 302 450 Q 289 449 280 439 Q 271 430 271 417 Q 272 404 281 395 Q 291 387 304 387 Q 307 387 309 388 H 310 Q 329 392 355 395 Q 369 397 393 399 Q 401 376 409 350 Q 416 327 422 296 Q 429 263 430 241 Q 432 216 429 190 Q 427 175 436 163 Q 445 150 461 148 Q 476 146 489 156 Q 501 165 503 181 Q 504 186 503 190 V 190 Q 497 245 467 310 Q 454 337 439 363 Q 435 371 417 400 Q 454 402 498 399 Q 510 400 512 412 Q 512 421 502 425 Q 453 438 404 444 Q 370 447 354 448 Q 311 450 302 450 Z M 488 115 Q 456 124 414 131 Q 390 135 376 136 Q 357 139 338 140 H 338 Q 325 140 316 131 Q 306 122 306 110 Q 305 97 314 87 Q 323 78 335 77 Q 341 77 343 78 Q 351 80 377 84 Q 380 84 382 84 Q 382 80 383 78 Q 386 64 394 51 Q 403 36 414 28 Q 422 21 441 11 L 444 10 Q 472 0 486 25 Q 497 52 472 68 Q 463 72 454 70 Q 446 69 436 70 Q 428 71 419 75 Q 410 79 403 87 Q 406 87 413 88 Q 448 91 483 90 H 484 Q 495 91 497 102 Q 497 113 488 115 Z" fill="black" />
  </g>
  <g class="defect" id="01">
    <path d="M 174 167 Q 193 163 183 183" fill="none" stroke="red" stroke-width="3" />
  </g>
</svg>