<svg xmlns="http://www.w3.org/2000/svg" width="512" height="512" viewBox="0 0 512 512">
  <g class="glyph">
    <path d="M 507 169 Q 512 186 504 201 Q 496 216 480 222 Q 477 223 468 224 H 467 Q 438 224 428 222 Q 404 219 387 208 Q 366 195 354 174 Q 345 157 343 135 Q 340 106 350 68 Q 358 37 372 8 Q 376 0 386 3 Q 394 7 393 15 V 16 Q 406 64 387 73 V 75 Q 401 72 407 69 Q 425 60 440 45 Q 460 27 480 42 Q 498 62 483 83 Q 478 88 471 91 L 468 91 Q 440 101 412 99 Q 398 98 388 95 Q 390 114 394 125 Q 398 136 404 142 Q 410 147 416 148 Q 429 151 453 142 Q 470 137 486 145 Q 501 152 507 169 Z M 305 91 Q 278 101 249 99 Q 242 99 229 96 Q 232 109 236 119 Q 241 129 247 133 Q 267 118 259 137 Q 272 139 293 133 Q 310 127 326 135 Q 341 143 346 160 Q 351 176 344 192 Q 336 207 319 212 Q 314 214 307 214 H 305 Q 281 214 269 212 Q 250 209 230 199 Q 210 188 199 169 Q 189 154 186 133 Q 182 105 189 69 Q 197 37 209 13 Q 213 2 223 7 Q 231 11 229 19 V 19 Q 226 47 226 72 V 75 Q 238 72 244 69 Q 263 60 278 45 Q 296 27 318 42 Q 335 62 320 83 Q 316 88 308 91 Z M 501 290 Q 501 301 492 303 Q 437 318 372 327 Q 376 347 378 367 Q 381 399 381 418 V 419 Q 381 439 367 452 Q 354 465 335 465 Q 315 465 302 451 Q 289 438 289 419 Q 289 410 292 404 Q 298 387 302 364 Q 306 345 308 335 Q 297 336 286 336 Q 238 339 214 338 Q 198 337 188 326 Q 178 315 179 300 Q 179 285 190 275 Q 201 264 216 265 Q 220 265 223 265 L 223 266 Q 247 271 287 275 Q 301 277 315 278 Q 319 245 320 231 V 231 Q 323 217 338 216 Q 349 217 352 228 Q 356 246 363 281 Q 421 283 488 278 Q 499 279 501 290 Z M 13 152 Q 24 127 48 126 Q 60 126 68 132 Q 75 137 79 143 Q 91 142 103 140 Q 119 139 127 139 Q 146 139 161 145 Q 179 151 189 165 Q 194 173 198 182 Q 202 191 204 201 Q 208 222 203 240 Q 198 257 185 274 Q 164 298 129 306 Q 122 308 114 308 Q 110 309 101 309 H 99 Q 84 309 70 305 Q 51 301 36 289 Q 17 275 8 247 Q 0 225 3 197 Q 3 188 6 174 Q 7 167 8 164 Q 10 161 10 158 Q 11 157 11 155 Q 12 154 13 152 Z M 121 178 Q 100 180 86 193 Q 72 206 73 222 Q 74 238 87 248 Q 100 258 119 258 Q 122 258 125 257 Q 153 256 167 235 Q 168 233 169 232 L 170 231 L 171 229 L 172 226 Q 174 219 174 213 Q 174 194 162 186 Q 160 183 156 182 Q 145 177 130 177 Q 107 164 121 178 Z" fill="black" />
  </g>
  <g class="defect" id="01">
    <path d="M 393 16 Q 406 64 387 73" fill="none" stroke="red" stroke-width="3" />
  </g>
  <g class="defect" id="02">
    <path d="M 247 133 Q 267 118 259 137" fill="none" stroke="red" stroke-width="3" />
  </g>
  <g class="defect" id="03">
    <path d="M 130 177 Q 107 164 121 178" fill="none" stroke="red" stroke-width="3" />
  </g>
</svg>