<svg xmlns="http://www.w3.org/2000/svg" width="512" height="512" viewBox="0 0 512 512">
  <g class="glyph">
    <path d="M 110 208 Q 92 209 79 220 Q 66 232 66 247 Q 68 261 80 270 Q 92 279 109 279 H 114 Q 141 276 153 259 Q 154 257 154 256 L 155 255 L 156 253 L 157 251 Q 159 243 159 239 Q 159 222 148 214 Q 144 212 142 211 Q 131 207 119 207 Q 115 208 110 208 Z M 440 76 V 81 Q 439 102 432 122 Q 424 142 412 159 Q 406 167 400 176 L 386 191 Q 367 208 347 193 Q 331 174 346 154 Q 347 152 351 150 L 352 148 L 366 140 Q 373 135 379 130 Q 394 117 401 106 Q 410 95 416 78 Q 417 72 419 66 Q 406 63 395 66 Q 389 75 379 84 Q 370 93 359 98 Q 346 104 334 104 Q 327 104 327 97 Q 327 93 330 91 L 333 90 Q 340 85 344 78 Q 348 73 351 64 Q 353 59 354 48 Q 355 42 355 31 Q 355 19 363 10 Q 371 2 383 1 Q 395 1 403 10 Q 412 18 412 29 Q 412 33 412 36 Q 418 35 431 36 Q 468 38 469 50 Q 487 63 496 83 Q 512 117 503 163 Q 496 197 477 233 V 233 Q 459 260 430 247 Q 404 230 416 200 Q 417 197 420 194 Q 439 172 449 148 Q 470 101 440 76 Z M 174 198 Q 176 200 181 212 Q 185 221 186 228 Q 190 245 185 263 Q 180 280 169 293 Q 149 316 118 322 Q 112 324 104 324 Q 100 324 92 324 H 90 Q 77 324 63 321 Q 47 317 33 307 Q 15 294 7 270 Q 0 249 2 224 Q 2 218 5 205 Q 6 199 7 195 Q 8 193 9 190 L 10 187 Q 11 185 11 184 Q 22 161 44 161 Q 53 161 62 167 Q 66 169 72 176 Q 83 175 95 174 Q 108 173 115 173 Q 131 173 147 178 Q 160 182 169 192 Q 159 175 172 160 Q 179 153 187 151 Q 199 150 208 143 Q 212 140 215 136 Q 205 137 196 137 H 195 Q 184 138 176 130 Q 169 122 168 111 Q 168 100 176 92 Q 184 84 194 84 Q 197 84 201 85 Q 215 88 229 90 Q 237 91 243 91 V 78 H 242 Q 231 80 219 78 Q 209 78 197 73 Q 191 71 193 64 Q 196 60 199 60 H 200 Q 208 59 216 55 Q 223 51 230 47 Q 235 42 240 35 Q 243 31 247 23 Q 260 0 284 9 Q 295 14 299 25 Q 303 35 298 46 Q 295 52 288 57 L 286 59 Q 273 68 265 71 Q 267 79 268 83 Q 269 86 270 93 Q 296 95 318 95 Q 328 96 329 106 Q 328 115 321 117 Q 292 124 277 127 Q 278 128 279 129 Q 284 135 290 139 Q 301 147 315 150 Q 338 159 333 182 Q 333 184 332 186 V 187 Q 333 191 333 199 Q 340 208 349 216 Q 369 231 386 239 Q 409 249 426 251 Q 436 253 446 254 Q 456 255 467 255 H 468 Q 484 255 495 267 Q 505 278 505 294 Q 504 309 493 320 Q 481 331 466 330 Q 464 330 463 330 Q 461 348 444 353 Q 438 354 435 353 Q 407 351 389 351 Q 376 352 368 355 Q 367 355 365 356 L 365 358 Q 365 368 365 378 Q 366 378 368 379 Q 380 386 395 391 Q 415 395 423 396 Q 438 398 452 398 Q 467 397 477 408 Q 488 419 488 433 Q 488 448 477 459 Q 467 470 452 470 Q 444 470 436 467 L 435 466 Q 407 450 403 448 Q 391 440 374 425 Q 370 422 362 413 Q 356 440 340 467 L 339 468 Q 319 493 290 479 Q 278 471 275 457 Q 272 442 279 430 Q 282 425 286 422 Q 300 411 309 395 Q 318 376 322 356 Q 326 337 326 313 Q 326 289 322 268 V 267 Q 322 260 330 257 Q 336 256 338 262 Q 348 282 356 309 Q 378 318 362 333 Q 371 326 380 322 Q 395 315 412 310 Q 408 307 404 305 Q 385 294 361 273 Q 346 258 330 232 Q 329 230 328 228 Q 322 248 309 267 Q 297 285 279 298 Q 275 303 269 307 Q 273 308 276 309 Q 292 315 300 322 Q 315 334 316 352 Q 317 368 309 385 Q 304 397 294 409 Q 279 426 257 444 L 256 445 Q 231 462 209 440 Q 200 429 202 415 Q 203 401 214 393 Q 218 390 223 388 Q 244 380 259 371 Q 276 361 279 352 Q 282 348 278 341 Q 275 334 267 328 Q 252 320 250 319 Q 247 321 243 324 Q 228 333 212 328 Q 196 324 187 309 Q 178 294 183 279 Q 185 264 201 253 Q 209 249 218 248 L 233 246 Q 239 245 248 243 Q 263 239 275 232 Q 288 225 299 214 Q 303 209 308 201 Q 304 201 301 200 Q 294 197 289 193 L 288 191 Q 278 179 278 179 Q 278 194 277 202 Q 273 223 252 224 Q 242 223 236 216 Q 229 208 230 199 Q 230 196 230 194 H 231 Q 233 183 238 159 Q 240 141 241 133 Q 240 133 237 133 Q 237 137 237 140 Q 237 148 234 159 Q 229 176 215 193 L 211 196 Q 193 212 174 198 Z" fill="black" />
  </g>
  <g class="defect" id="01">
    <path d="M 356 309 Q 378 318 362 333" fill="none" stroke="red" stroke-width="3" />
  </g>
  <g class="defect" id="02">
    <path d="M 431 36 Q 468 38 469 50" fill="none" stroke="red" stroke-width="3" />
  </g>
</svg>