<svg xmlns="http://www.w3.org/2000/svg" width="512" height="512" viewBox="0 0 512 512">
  <g class="glyph">
    <path d="M 370 408 Q 327 419 288 425 Q 290 440 291 454 Q 309 455 346 456 Q 372 456 425 455 H 425 Q 433 454 438 459 Q 443 463 444 471 Q 443 486 429 489 Q 375 497 348 500 Q 321 503 268 507 Q 228 510 186 511 Q 132 512 104 511 Q 89 511 78 499 Q 67 488 68 473 Q 68 457 79 447 Q 90 436 106 437 H 111 Q 144 442 189 447 Q 200 448 221 449 Q 222 444 224 433 Q 222 434 216 434 Q 181 436 162 436 Q 148 435 139 426 Q 129 418 127 405 Q 122 408 114 412 Q 101 419 89 425 L 63 436 Q 46 443 30 437 Q 14 430 7 414 Q 0 398 6 382 Q 12 366 29 359 Q 36 356 42 356 L 43 355 L 67 353 Q 79 352 91 350 Q 103 348 115 345 Q 125 343 137 338 Q 139 338 141 337 Q 123 338 86 338 Q 73 338 64 329 Q 54 320 54 306 Q 54 293 64 283 Q 73 274 86 274 Q 89 274 90 274 Q 140 279 166 281 Q 167 277 167 273 Q 142 274 129 274 Q 115 274 106 265 Q 97 255 97 242 Q 114 246 106 220 Q 115 210 128 210 H 133 Q 148 213 176 215 Q 176 212 177 205 Q 155 206 114 207 Q 101 208 91 199 Q 81 189 81 176 Q 80 163 89 153 Q 98 144 112 143 H 116 Q 159 148 183 149 Q 183 145 184 136 Q 172 137 167 137 Q 104 142 57 148 Q 62 161 68 171 Q 82 196 61 214 Q 37 228 18 207 Q 12 199 12 188 V 183 Q 13 163 20 144 Q 24 134 27 127 Q 33 118 38 112 Q 43 105 49 111 Q 52 112 52 116 L 51 119 Q 51 123 52 125 Q 101 113 162 101 Q 199 95 218 92 Q 218 82 219 77 Q 222 62 229 50 Q 240 35 249 27 Q 257 21 276 11 L 278 10 Q 305 0 320 24 Q 330 52 305 66 Q 298 70 288 69 Q 276 68 271 68 Q 263 69 254 73 Q 246 77 238 86 Q 236 87 235 89 Q 256 87 277 84 Q 349 79 398 85 Q 437 90 464 106 Q 475 113 481 119 Q 492 130 496 138 Q 500 145 505 161 Q 507 165 508 185 Q 509 200 499 211 Q 489 223 474 224 Q 458 225 446 215 Q 434 205 434 190 V 181 Q 434 174 433 172 Q 433 170 426 163 Q 413 153 386 145 Q 349 136 298 134 Q 301 148 301 155 Q 360 155 389 153 H 390 Q 402 153 404 165 Q 403 176 393 179 Q 357 187 307 193 Q 308 196 309 203 Q 310 216 312 222 Q 357 221 379 218 H 380 Q 392 218 395 230 Q 395 241 385 244 Q 362 250 315 258 Q 317 271 317 287 Q 387 285 430 280 H 430 Q 442 280 445 291 Q 445 302 434 306 Q 387 317 323 324 Q 344 335 370 342 Q 385 346 418 350 Q 419 350 443 352 H 469 Q 486 353 499 365 Q 511 377 510 395 Q 510 413 498 425 Q 486 437 467 437 Q 459 437 453 434 L 426 424 Q 412 419 400 412 Q 389 408 379 402 Q 375 407 370 408 Z M 306 347 Q 295 335 290 328 Q 281 329 271 330 Q 277 362 280 377 Q 307 379 341 378 Q 301 360 306 347 Z M 253 266 Q 246 268 232 269 Q 232 274 232 285 Q 241 285 249 285 Q 250 284 250 282 Q 252 274 253 266 Z M 262 204 Q 262 200 263 198 Q 258 199 254 199 Q 243 200 224 201 L 224 203 Q 225 208 226 219 Q 236 220 256 221 H 260 Q 261 213 262 204 Z M 269 133 Q 251 133 213 134 Q 215 143 216 152 Q 235 153 253 153 Q 257 154 267 154 Q 268 141 269 133 Z M 218 371 Q 224 373 236 374 Q 238 362 242 332 Q 224 334 205 335 Q 203 337 202 338 Q 196 350 180 365 Q 191 368 218 371 Z" fill="black" />
  </g>
  <g class="defect" id="01">
    <path d="M 341 378 Q 301 360 306 347" fill="none" stroke="red" stroke-width="3" />
  </g>
  <g class="defect" id="02">
    <path d="M 97 242 Q 114 246 106 220" fill="none" stroke="red" stroke-width="3" />
  </g>
</svg>