<svg xmlns="http://www.w3.org/2000/svg" width="512" height="512" viewBox="0 0 512 512">
  <g class="glyph">
    <path d="M 359 235 Q 340 256 329 271 Q 326 276 328 281 Q 330 285 335 286 Q 347 287 361 286 Q 371 285 397 281 Q 395 271 393 260 Q 393 249 396 237 Q 400 226 405 217 Q 409 211 415 214 Q 418 216 419 219 L 420 221 Q 421 229 425 236 Q 427 241 433 249 Q 441 257 455 259 Q 471 262 480 275 Q 489 287 487 303 Q 484 320 472 329 Q 459 339 443 336 Q 426 333 416 319 L 411 312 Q 391 320 368 327 Q 352 331 337 333 Q 315 335 299 330 Q 286 327 275 315 Q 268 305 267 302 Q 266 298 265 294 Q 264 291 263 287 Q 262 270 270 245 Q 280 221 299 188 Q 320 160 352 175 Q 366 184 369 199 Q 373 214 364 228 Q 362 232 359 235 Z M 236 79 Q 207 104 195 119 Q 192 123 199 128 Q 224 117 213 133 Q 227 134 243 133 Q 265 132 286 129 Q 285 126 283 121 Q 280 113 277 97 Q 276 86 278 74 Q 280 65 285 53 Q 289 46 295 49 Q 298 51 299 54 L 300 56 Q 302 65 306 70 Q 309 77 315 82 Q 324 91 338 95 Q 353 98 361 111 Q 369 124 366 139 Q 362 153 349 161 Q 336 170 322 166 Q 312 164 305 158 Q 275 168 249 174 Q 226 179 214 180 Q 192 183 175 180 Q 161 178 149 169 Q 133 158 129 137 Q 127 121 131 107 Q 134 97 139 86 Q 153 60 181 25 Q 205 0 235 19 Q 261 44 241 74 Q 239 75 236 79 Z M 212 438 Q 215 430 219 422 Q 220 417 221 411 Q 175 415 146 415 Q 129 415 106 415 H 90 Q 75 415 63 404 Q 52 393 52 377 Q 52 361 64 350 Q 75 339 91 339 H 95 L 96 339 Q 104 340 111 341 Q 145 333 149 346 Q 214 351 236 352 Q 237 346 238 340 Q 239 332 240 324 Q 228 334 212 330 Q 195 327 186 313 L 184 311 Q 154 320 130 325 Q 110 329 99 330 Q 74 330 61 326 Q 45 319 38 312 Q 33 307 29 297 Q 25 288 24 282 Q 23 262 33 237 Q 43 214 68 180 Q 92 154 122 172 Q 149 197 130 226 Q 128 229 124 232 Q 102 253 90 268 Q 87 278 100 282 Q 112 284 126 284 Q 150 284 168 281 L 168 280 Q 163 268 163 255 Q 163 241 166 231 Q 169 222 175 212 Q 178 206 185 209 Q 188 210 189 214 V 216 Q 191 223 194 231 Q 199 240 203 243 Q 210 251 224 254 Q 241 256 250 269 Q 259 282 257 298 Q 256 303 253 308 H 256 Q 264 310 268 318 Q 271 328 273 337 Q 276 346 278 354 Q 296 354 330 354 Q 350 354 359 354 Q 378 354 385 353 Q 388 353 424 351 Q 432 350 439 349 H 440 Q 447 349 452 353 Q 457 357 457 364 Q 457 379 444 382 Q 437 384 429 385 Q 417 388 389 393 Q 381 395 363 397 Q 354 399 334 401 Q 312 404 290 406 Q 292 420 293 427 Q 295 433 296 448 V 449 Q 405 451 492 443 Q 508 442 510 458 Q 510 472 497 476 Q 405 494 268 504 Q 210 508 154 509 Q 77 512 38 512 Q 23 512 11 501 Q 17 489 0 474 Q 0 458 11 447 Q 23 435 38 435 H 43 Q 79 439 155 444 Q 172 445 210 447 Q 212 440 212 438 Z" fill="black" />
  </g>
  <g class="defect" id="01">
    <path d="M 199 128 Q 224 117 213 133" fill="none" stroke="red" stroke-width="3" />
  </g>
  <g class="defect" id="02">
    <path d="M 111 341 Q 145 333 149 346" fill="none" stroke="red" stroke-width="3" />
  </g>
  <g class="defect" id="03">
    <path d="M 11 501 Q 17 489 0 474" fill="none" stroke="red" stroke-width="3" />
  </g>
</svg>