<svg xmlns="http://www.w3.org/2000/svg" width="512" height="512" viewBox="0 0 512 512">
  <g class="glyph">
    <path d="M 38 333 Q 22 333 11 322 Q 0 311 0 296 Q 0 280 11 269 Q 22 258 38 258 H 41 L 42 258 Q 60 260 78 261 Q 76 235 82 211 Q 85 196 89 187 Q 94 175 100 164 Q 105 156 113 161 Q 117 162 118 167 Q 157 152 193 141 Q 242 128 279 126 H 294 V 125 Q 294 121 297 117 Q 306 94 305 81 Q 305 76 302 71 Q 299 66 290 63 Q 274 56 246 57 Q 231 58 223 60 Q 220 68 214 81 Q 207 96 195 112 Q 189 119 183 125 Q 175 135 169 139 L 162 144 Q 150 154 135 153 Q 120 152 110 139 Q 100 127 101 112 Q 102 97 115 87 Q 121 81 132 79 Q 137 77 143 74 Q 153 69 155 68 Q 168 61 176 53 Q 187 44 193 34 Q 199 25 201 12 V 11 Q 203 0 214 0 Q 221 1 224 9 Q 209 32 227 31 Q 234 28 241 26 Q 273 17 300 20 Q 320 22 335 32 Q 352 45 360 66 Q 369 92 364 133 V 135 Q 363 137 363 139 Q 369 142 376 146 Q 402 162 414 192 Q 424 214 425 246 Q 425 260 417 270 Q 468 268 494 265 Q 501 265 506 269 Q 511 273 512 280 Q 512 294 499 298 Q 426 312 346 319 Q 356 325 366 332 Q 387 346 405 369 Q 422 388 436 418 L 439 423 Q 449 445 441 467 Q 433 488 412 499 Q 391 510 369 502 Q 346 494 336 472 Q 329 459 330 441 Q 333 420 331 408 Q 328 387 320 372 Q 315 357 300 336 Q 296 330 291 324 Q 283 324 270 325 Q 268 330 267 338 Q 260 364 249 389 Q 234 415 215 435 Q 177 476 115 495 L 113 496 Q 91 503 70 492 Q 50 480 43 458 Q 37 436 47 416 Q 58 395 81 389 Q 85 387 94 386 Q 131 384 155 368 Q 169 359 181 346 Q 190 333 193 330 Q 155 347 154 332 Q 95 333 38 333 Z M 339 196 Q 322 180 278 175 Q 271 175 267 175 Q 274 212 275 239 Q 257 255 275 271 Q 303 272 359 272 Q 350 262 350 249 V 243 Q 352 225 350 216 Q 346 204 339 196 Z M 131 250 Q 135 256 135 265 Q 144 266 154 267 Q 198 269 219 270 Q 224 252 226 236 Q 231 209 232 175 Q 211 176 200 177 Q 159 182 121 192 H 121 Q 118 192 116 192 Q 116 203 118 213 Q 121 234 131 250 Z" fill="black" />
  </g>
  <g class="defect" id="01">
    <path d="M 224 9 Q 209 32 227 31" fill="none" stroke="red" stroke-width="3" />
  </g>
  <g class="defect" id="02">
    <path d="M 193 330 Q 155 347 154 332" fill="none" stroke="red" stroke-width="3" />
  </g>
  <g class="defect" id="03">
    <path d="M 275 239 Q 257 255 275 271" fill="none" stroke="red" stroke-width="3" />
  </g>
</svg>