<svg xmlns="http://www.w3.org/2000/svg" width="512" height="512" viewBox="0 0 512 512">
  <g class="glyph">
    <path d="M 154 161 Q 185 163 243 166 Q 250 117 251 76 Q 216 79 199 79 Q 163 94 115 81 Q 99 80 87 68 Q 76 55 76 39 Q 77 23 89 12 Q 102 0 118 1 Q 121 1 124 1 H 124 Q 148 6 201 13 Q 235 17 278 19 Q 322 21 357 20 Q 390 20 435 16 H 436 Q 450 16 451 30 Q 451 42 440 45 Q 390 58 361 62 Q 322 69 280 74 Q 289 120 291 166 Q 404 168 493 160 H 494 Q 509 161 512 175 Q 512 190 498 194 Q 410 211 292 219 Q 271 248 286 277 Q 276 342 246 387 Q 227 416 201 434 Q 172 454 139 464 L 136 465 Q 112 472 92 460 Q 72 449 65 426 Q 58 403 69 383 Q 81 363 103 356 Q 110 354 117 354 Q 151 352 175 329 Q 201 305 218 260 Q 223 248 230 224 Q 192 226 154 228 Q 96 230 38 230 Q 23 230 11 218 Q 0 207 0 191 Q 0 175 11 164 Q 23 153 38 153 Q 41 153 42 153 Q 116 160 154 161 Z M 363 441 Q 356 425 358 409 Q 360 388 358 375 Q 356 358 347 339 Q 339 320 327 302 Q 314 285 298 269 L 297 269 Q 293 264 297 259 Q 299 256 303 257 Q 327 263 350 273 Q 369 281 394 298 Q 417 315 434 335 Q 450 354 465 386 L 467 391 Q 477 412 469 435 Q 462 458 440 468 Q 419 478 396 470 Q 373 462 363 441 Z" fill="black" />
  </g>
  <g class="defect" id="01">
    <path d="M 292 219 Q 271 248 286 277" fill="none" stroke="red" stroke-width="3" />
  </g>
  <g class="defect" id="02">
    <path d="M 199 79 Q 163 94 115 81" fill="none" stroke="red" stroke-width="3" />
  </g>
</svg>