<svg xmlns="http://www.w3.org/2000/svg" width="512" height="512" viewBox="0 0 512 512">
  <g class="glyph">
    <path d="M 495 249 Q 502 249 507 253 Q 511 257 512 264 Q 512 278 499 281 Q 404 299 286 307 Q 253 310 219 311 Q 220 316 223 320 H 223 Q 271 322 293 323 Q 381 324 433 319 Q 445 320 446 331 Q 446 341 437 344 Q 417 348 377 355 Q 376 358 368 374 Q 362 385 354 396 Q 357 396 366 398 Q 381 398 397 398 L 429 397 H 431 Q 450 396 464 409 Q 478 422 479 441 Q 481 461 468 475 Q 455 489 435 489 Q 431 490 423 489 L 387 481 Q 375 478 351 470 Q 339 466 314 457 Q 309 454 298 449 Q 297 450 296 451 Q 264 470 230 480 Q 223 482 195 488 Q 184 490 160 493 Q 146 495 134 486 Q 123 478 121 464 Q 119 449 128 438 Q 137 426 151 424 H 160 Q 189 426 190 426 Q 204 425 219 425 Q 238 423 253 419 Q 233 402 222 386 Q 218 381 216 375 Q 184 378 152 379 Q 139 380 129 371 Q 119 362 119 349 Q 118 336 127 326 Q 136 316 149 315 H 154 Q 182 317 196 318 V 312 Q 188 313 179 313 Q 136 314 92 314 Q 96 345 97 361 Q 114 374 93 413 Q 87 443 72 466 L 70 469 Q 48 496 19 480 Q 6 472 3 457 Q 0 442 8 429 Q 11 423 17 419 Q 30 411 40 393 Q 49 379 56 356 Q 62 336 65 313 Q 37 307 35 277 Q 35 259 50 248 Q 46 246 43 243 Q 22 217 43 192 Q 52 183 63 181 Q 81 178 93 169 Q 101 163 107 156 Q 108 155 111 151 Q 67 153 67 153 Q 53 153 43 143 Q 34 134 34 120 Q 34 107 43 97 Q 53 87 66 87 Q 70 87 72 88 H 73 Q 88 91 124 95 Q 133 96 151 97 Q 152 92 152 87 Q 148 87 143 88 Q 116 89 101 89 H 101 Q 88 87 80 78 Q 71 69 72 56 Q 72 44 82 35 Q 92 26 104 27 Q 108 27 111 28 Q 123 31 145 35 Q 150 36 155 36 Q 155 30 155 16 V 16 Q 157 5 167 5 Q 177 5 178 14 Q 181 31 182 39 Q 216 41 255 39 Q 268 40 270 52 Q 270 63 260 67 Q 222 78 187 83 Q 189 93 189 99 Q 240 101 285 98 Q 296 99 298 110 Q 298 120 289 122 Q 253 131 204 140 Q 205 141 206 142 Q 218 154 230 161 Q 243 169 257 174 Q 267 178 282 179 Q 295 180 305 190 Q 314 201 315 213 L 317 213 Q 330 203 336 198 Q 317 174 310 147 Q 302 119 307 91 Q 307 88 310 85 Q 309 84 307 84 Q 298 78 292 70 Q 286 61 286 49 Q 286 40 290 32 Q 295 21 307 8 Q 316 0 323 7 Q 330 14 325 22 L 324 22 Q 317 34 316 41 Q 314 45 315 49 Q 316 50 317 51 Q 321 54 330 54 Q 337 55 351 54 Q 382 50 445 31 Q 472 25 482 50 Q 487 61 481 73 Q 475 84 463 88 Q 461 89 458 89 H 457 Q 458 92 459 95 Q 460 98 460 104 L 459 107 Q 457 145 431 174 L 432 175 L 453 176 H 454 Q 474 178 486 192 Q 499 207 497 226 Q 496 240 489 250 Q 492 250 495 249 Z M 326 381 Q 340 368 347 360 Q 310 365 296 367 Q 276 369 268 370 Q 284 380 305 387 Q 311 389 316 390 Q 321 386 326 381 Z M 330 93 Q 332 105 336 113 Q 342 125 347 130 Q 357 145 376 157 H 376 Q 382 149 384 143 Q 393 124 390 108 Q 389 104 390 95 Q 369 96 351 95 Q 342 94 329 91 Z M 129 192 Q 120 218 98 239 L 95 243 Q 120 245 146 248 Q 133 238 133 222 Q 133 219 133 216 Q 139 194 142 167 Q 143 161 145 148 Q 140 148 136 149 Q 136 155 135 167 Q 133 183 129 192 Z M 175 249 Q 178 250 180 250 Q 208 252 267 254 Q 266 253 265 250 V 249 Q 264 248 263 248 L 260 246 Q 243 237 225 222 Q 212 210 199 193 Q 195 186 193 182 Q 193 209 192 223 Q 175 229 175 249 Z M 286 255 Q 347 257 408 255 L 405 253 Q 388 243 380 238 Q 372 233 364 226 Q 346 235 331 240 Q 308 249 286 255 Z" fill="black" />
  </g>
  <g class="defect" id="01">
    <path d="M 97 361 Q 114 374 93 413" fill="none" stroke="red" stroke-width="3" />
  </g>
  <g class="defect" id="02">
    <path d="M 192 223 Q 175 229 175 249" fill="none" stroke="red" stroke-width="3" />
  </g>
</svg>