<svg xmlns="http://www.w3.org/2000/svg" width="512" height="512" viewBox="0 0 512 512">
  <g class="glyph">
    <path d="M 72 432 Q 37 452 10 421 Q 0 406 3 388 Q 6 370 21 360 Q 22 359 29 355 Q 41 350 57 340 Q 58 339 60 337 Q 55 327 53 322 Q 35 275 35 213 Q 36 166 47 109 Q 48 105 48 104 Q 45 105 39 105 H 38 Q 25 105 16 95 Q 6 86 6 72 Q 5 59 15 49 Q 25 40 38 40 Q 42 40 46 41 Q 55 43 64 45 Q 72 22 76 10 Q 81 1 90 4 Q 99 8 98 17 V 17 Q 96 26 92 49 Q 106 51 107 51 Q 141 54 169 51 Q 183 51 186 65 Q 187 76 175 81 Q 167 84 159 86 L 160 88 Q 170 132 173 175 Q 176 223 169 264 Q 164 297 154 323 Q 174 295 185 269 Q 192 252 193 248 Q 180 241 179 226 Q 196 214 186 206 Q 194 198 205 197 Q 208 197 210 198 V 197 Q 213 183 214 175 H 210 Q 199 176 191 168 Q 183 160 183 149 Q 183 137 190 130 Q 198 122 210 121 Q 213 121 219 122 Q 221 123 223 124 Q 224 123 224 120 Q 229 81 229 41 V 40 L 230 38 Q 219 41 215 43 H 214 Q 205 47 201 37 Q 199 30 205 25 Q 216 19 234 12 Q 251 7 266 8 Q 285 9 301 18 Q 315 27 326 43 Q 342 67 350 104 Q 355 128 358 165 Q 360 210 354 284 Q 350 331 339 399 Q 336 420 319 432 Q 302 445 281 442 Q 260 439 248 422 Q 218 405 239 384 Q 240 378 241 376 L 242 375 Q 263 313 275 269 Q 280 252 284 235 Q 278 237 273 239 Q 269 240 260 243 Q 256 270 251 291 Q 242 331 220 376 Q 210 396 187 399 L 186 401 Q 179 416 164 421 Q 148 426 133 419 Q 133 419 128 416 H 128 Q 123 414 108 401 Q 90 419 72 431 Z M 267 205 Q 283 205 290 204 Q 295 184 298 163 V 161 Q 290 164 275 167 Q 270 169 266 169 Q 266 181 264 205 Z M 263 37 Q 259 36 256 36 L 257 38 Q 263 72 266 121 V 133 Q 269 133 272 133 Q 286 135 300 135 Q 301 119 301 111 Q 299 82 292 64 Q 283 42 263 37 Z M 109 98 Q 92 101 85 101 Q 84 110 84 114 Q 80 164 86 210 Q 91 248 104 279 Q 110 269 116 251 Q 128 219 134 173 Q 140 136 139 92 Q 128 95 109 98 Z M 484 173 Q 504 197 507 223 Q 512 256 494 284 L 490 290 L 476 307 Q 470 314 457 326 Q 448 334 436 335 Q 436 380 435 403 Q 434 420 420 433 Q 407 446 389 445 Q 371 444 359 431 Q 346 417 347 399 Q 348 396 348 392 L 348 392 Q 344 335 372 217 Q 379 145 381 71 Q 378 72 375 72 Q 361 76 348 69 Q 336 61 331 46 Q 328 32 335 20 Q 342 7 357 2 Q 363 1 365 1 H 366 Q 401 0 424 4 Q 446 9 457 15 Q 479 27 487 45 Q 495 62 492 84 Q 489 98 481 113 Q 472 133 460 148 Q 473 160 484 173 Z M 457 226 Q 459 213 451 194 Q 444 176 430 161 L 429 160 V 160 Q 422 152 427 143 V 142 Q 440 120 445 99 Q 448 87 447 80 Q 446 70 443 69 Q 441 67 435 66 Q 431 65 418 65 Q 415 66 411 66 Q 420 128 429 217 Q 431 237 432 258 H 432 L 439 253 L 442 251 L 444 249 Q 454 240 457 226 Z" fill="black" />
  </g>
  <g class="defect" id="01">
    <path d="M 348 392 Q 344 335 372 217" fill="none" stroke="red" stroke-width="3" />
  </g>
  <g class="defect" id="02">
    <path d="M 179 226 Q 196 214 186 206" fill="none" stroke="red" stroke-width="3" />
  </g>
  <g class="defect" id="03">
    <path d="M 248 422 Q 218 405 239 384" fill="none" stroke="red" stroke-width="3" />
  </g>
</svg>