<svg xmlns="http://www.w3.org/2000/svg" width="512" height="512" viewBox="0 0 512 512">
  <g class="glyph">
    <path d="M 275 290 Q 234 300 166 308 H 165 Q 168 319 170 326 Q 176 354 177 374 Q 178 404 172 426 Q 163 456 144 478 L 142 480 Q 119 503 91 483 Q 68 458 87 432 Q 89 430 95 425 Q 107 417 114 404 Q 122 393 127 370 Q 130 353 131 331 Q 131 317 131 310 Q 120 311 110 312 Q 91 313 55 314 Q 41 314 31 305 Q 21 296 21 282 Q 21 268 30 258 Q 39 249 54 249 H 59 Q 75 251 107 255 Q 117 215 121 159 V 158 Q 122 153 125 149 Q 129 146 134 147 Q 143 148 145 156 Q 150 171 154 189 Q 163 187 171 185 Q 178 183 191 178 Q 202 175 209 172 Q 221 166 233 171 Q 246 175 251 187 Q 260 215 235 229 Q 228 232 222 232 H 220 Q 212 232 196 231 Q 185 229 173 228 Q 167 227 162 226 Q 164 237 166 260 Q 231 263 271 260 Q 277 260 281 264 Q 286 268 287 275 Q 287 287 275 290 Z M 16 429 Q -11 419 23 382 Q 31 376 40 376 Q 51 374 56 373 Q 63 371 72 366 Q 79 361 86 354 Q 93 346 97 338 L 97 337 Q 101 330 107 333 Q 111 336 111 339 Q 113 353 110 365 Q 108 378 102 390 Q 96 404 86 413 Q 80 422 66 433 L 63 435 Q 36 451 16 429 Z M 257 461 Q 250 448 252 433 Q 244 433 235 427 L 232 426 Q 218 415 210 407 Q 201 399 194 384 Q 187 374 184 359 Q 182 347 182 334 Q 183 327 190 327 Q 194 327 196 331 L 197 332 Q 201 340 208 348 Q 218 356 222 359 Q 232 364 238 365 Q 244 367 255 367 Q 281 370 287 395 Q 312 385 337 365 Q 336 363 334 361 Q 314 328 302 289 Q 288 249 289 212 Q 289 205 296 205 Q 302 205 303 210 V 211 Q 311 244 330 277 Q 331 303 370 329 Q 384 309 393 284 Q 401 264 403 243 Q 405 234 404 223 Q 402 215 398 210 Q 390 199 364 199 Q 343 199 320 206 H 319 Q 311 209 307 200 Q 306 191 313 188 Q 339 177 362 174 Q 375 172 390 174 Q 408 178 419 187 Q 430 196 436 215 Q 441 228 442 243 Q 445 266 440 296 Q 435 333 417 371 Q 421 374 424 377 Q 449 394 483 409 Q 499 415 505 432 Q 512 448 505 463 Q 499 479 483 485 Q 467 491 451 485 Q 448 483 443 480 L 443 480 Q 409 455 381 426 Q 353 457 320 476 L 319 477 Q 282 494 257 461 Z M 33 181 Q 21 172 21 157 L 21 147 Q 23 128 30 116 Q 33 110 38 104 Q 45 98 49 95 Q 53 93 55 97 L 55 100 V 101 Q 55 104 55 110 Q 114 95 161 87 Q 189 82 234 76 Q 235 63 237 57 Q 241 45 250 34 Q 253 30 259 24 Q 275 21 269 15 L 269 14 Q 290 0 308 17 Q 322 38 305 55 Q 299 61 291 62 L 284 63 Q 280 64 276 65 Q 268 68 262 72 Q 267 72 277 71 Q 349 64 396 70 Q 421 74 429 76 Q 448 82 463 92 Q 480 103 492 120 Q 507 142 504 168 Q 502 181 492 189 Q 482 197 468 196 Q 455 195 447 184 Q 439 173 440 161 V 160 Q 440 155 439 153 Q 436 147 429 141 Q 421 135 411 131 Q 400 128 387 125 Q 342 115 278 115 Q 226 115 165 120 Q 132 122 65 131 Q 66 132 68 134 Q 88 152 75 175 Q 56 196 33 181 Z" fill="black" />
  </g>
  <g class="defect" id="01">
    <path d="M 16 429 Q -11 419 23 382" fill="none" stroke="red" stroke-width="3" />
  </g>
  <g class="defect" id="02">
    <path d="M 330 277 Q 331 303 370 329" fill="none" stroke="red" stroke-width="3" />
  </g>
  <g class="defect" id="03">
    <path d="M 259 24 Q 275 21 269 15" fill="none" stroke="red" stroke-width="3" />
  </g>
</svg>