<svg xmlns="http://www.w3.org/2000/svg" width="512" height="512" viewBox="0 0 512 512">
  <g class="glyph">
    <path d="M 60 448 Q 45 454 29 449 Q 14 443 7 428 Q 0 413 5 397 Q 11 382 26 375 Q 35 371 42 371 Q 64 370 73 368 Q 89 365 104 358 Q 119 350 132 339 Q 136 335 146 326 Q 112 328 95 329 Q 75 330 36 330 Q 21 329 11 319 Q 1 309 1 294 Q 4 265 32 260 Q 35 247 37 234 Q 38 233 42 197 Q 47 155 47 120 Q 47 113 53 108 Q 53 106 52 104 Q 50 98 56 96 L 56 96 Q 67 90 78 81 Q 86 75 98 63 Q 106 53 112 43 Q 116 36 123 21 Q 127 10 138 5 Q 150 0 161 4 Q 185 16 178 42 Q 176 48 172 52 V 53 Q 157 68 147 75 Q 144 77 142 79 Q 165 75 187 82 Q 207 87 222 103 Q 236 117 244 136 Q 254 164 257 204 Q 271 221 257 274 Q 261 274 263 273 Q 278 273 281 289 Q 281 302 269 306 Q 262 308 255 309 Q 254 320 253 331 Q 249 386 241 454 Q 239 473 224 485 Q 209 497 189 495 Q 170 493 157 478 Q 145 462 147 443 Q 147 441 149 436 Q 172 348 177 322 Q 173 323 170 323 Q 167 340 158 357 Q 147 379 134 394 Q 116 413 101 424 Q 85 436 61 447 Z M 198 163 Q 171 174 149 180 Q 134 184 118 187 Q 110 188 102 189 Q 96 189 94 190 Q 95 192 95 195 Q 95 195 95 198 Q 105 200 115 201 Q 125 203 146 204 Q 172 204 199 202 Q 200 175 198 163 Z M 103 250 Q 103 259 104 268 Q 121 271 152 273 Q 164 274 187 275 Q 194 247 196 224 Q 173 234 150 240 Q 141 243 116 248 Q 110 249 103 250 Z M 173 120 Q 155 112 124 116 Q 104 119 79 129 L 80 130 Q 85 130 93 133 Q 98 136 104 137 Q 111 139 118 140 Q 136 143 146 143 Q 169 145 194 143 Q 187 127 173 120 Z M 512 127 Q 512 139 500 143 Q 471 150 442 155 Q 451 210 454 248 Q 460 311 456 355 Q 453 389 446 411 Q 438 446 421 471 L 418 476 Q 406 493 386 497 Q 365 502 348 490 Q 331 479 326 458 Q 322 437 334 420 Q 335 417 342 411 Q 362 391 376 341 Q 379 329 384 304 Q 375 317 361 318 Q 349 319 340 314 L 336 311 Q 326 305 318 298 Q 312 294 303 283 Q 297 275 291 265 Q 286 255 285 245 Q 285 238 291 237 Q 294 236 297 238 L 300 240 Q 304 244 311 248 Q 322 252 325 252 Q 332 254 339 254 Q 348 254 353 254 Q 379 252 388 277 Q 391 257 391 248 Q 395 206 395 163 Q 377 166 342 170 Q 297 173 287 173 Q 272 173 262 163 Q 234 163 251 139 Q 251 124 261 113 Q 271 103 286 102 Q 289 103 292 103 Q 307 106 342 109 Q 389 113 393 113 H 394 Q 394 82 391 51 V 50 Q 391 38 403 36 Q 414 36 417 46 Q 423 69 433 113 Q 461 114 496 112 Q 502 112 507 116 Q 511 120 512 127 Z" fill="black" />
  </g>
  <g class="defect" id="01">
    <path d="M 262 163 Q 234 163 251 139" fill="none" stroke="red" stroke-width="3" />
  </g>
  <g class="defect" id="02">
    <path d="M 257 204 Q 271 221 257 274" fill="none" stroke="red" stroke-width="3" />
  </g>
</svg>