<svg xmlns="http://www.w3.org/2000/svg" width="512" height="512" viewBox="0 0 512 512">
  <g class="glyph">
    <path d="M 419 151 Q 415 172 415 197 Q 415 211 417 224 Q 418 223 420 223 Q 428 217 429 216 Q 431 213 436 206 Q 439 200 441 194 Q 457 164 456 178 Q 468 173 479 177 Q 490 181 495 193 Q 500 204 495 216 Q 492 224 484 230 L 481 231 Q 469 239 462 241 Q 451 246 442 247 Q 431 249 422 247 Q 428 265 436 270 Q 442 273 446 273 Q 450 273 459 272 Q 474 270 486 279 Q 498 288 501 304 Q 503 319 494 331 Q 484 344 469 346 Q 465 347 456 345 L 453 345 Q 433 341 419 332 Q 401 322 392 306 Q 375 280 377 244 Q 379 223 387 193 Q 395 169 407 146 Q 409 141 416 143 Q 419 146 419 150 Z M 466 367 Q 483 366 496 376 Q 509 387 511 404 Q 512 421 501 434 Q 491 447 473 448 Q 463 449 455 446 L 452 445 Q 425 434 406 418 Q 390 404 380 389 Q 380 430 379 451 Q 379 465 368 475 Q 357 485 342 485 Q 327 484 317 474 Q 307 463 308 448 Q 308 446 308 443 V 443 Q 311 428 316 397 Q 310 405 304 412 Q 293 425 273 441 L 272 442 Q 258 454 240 452 Q 223 450 211 436 Q 195 416 206 392 H 205 Q 180 392 171 370 Q 150 382 132 387 Q 97 397 69 387 Q 35 377 18 348 Q 0 319 6 285 Q 8 271 15 261 Q 30 244 52 250 Q 73 259 75 281 Q 74 295 70 308 Q 67 324 73 333 Q 76 336 79 339 Q 81 341 83 342 Q 89 344 91 345 V 344 Q 94 321 96 310 Q 100 280 104 236 Q 107 201 108 161 Q 109 151 109 136 V 126 Q 109 121 113 117 Q 117 113 122 113 Q 133 113 135 124 Q 136 129 137 133 Q 140 148 141 158 Q 146 190 151 235 Q 156 278 158 312 Q 159 325 159 338 Q 168 336 174 332 Q 176 332 177 332 Q 178 330 178 329 Q 183 321 187 304 Q 190 292 190 276 V 262 Q 190 255 196 255 Q 200 254 203 257 Q 207 263 211 269 Q 221 285 227 299 L 228 301 Q 234 289 247 285 Q 252 284 253 284 Q 268 284 277 275 Q 286 264 291 243 Q 286 246 281 249 Q 272 253 266 254 Q 257 256 250 257 H 239 Q 227 257 219 250 Q 211 242 211 231 Q 210 219 218 211 Q 226 203 237 202 Q 250 201 259 212 Q 260 213 267 217 Q 273 219 276 220 Q 286 223 293 219 L 294 219 Q 295 203 295 195 Q 294 174 292 155 Q 273 156 237 157 Q 223 157 213 147 Q 204 138 204 124 Q 204 110 213 100 Q 223 91 237 91 H 242 Q 261 94 300 99 Q 325 101 340 102 Q 340 92 341 88 Q 337 89 333 89 Q 321 89 304 86 Q 289 83 277 79 Q 270 76 273 69 Q 275 65 279 65 H 280 Q 291 64 304 60 Q 314 58 324 52 Q 332 48 341 39 Q 345 35 351 24 Q 368 0 395 12 Q 419 30 407 56 Q 404 62 396 67 L 394 69 Q 376 80 364 83 L 361 84 Q 362 93 363 103 Q 425 106 475 99 Q 487 99 490 111 Q 490 121 481 125 Q 431 140 367 148 Q 372 206 376 265 Q 377 295 379 325 Q 380 326 380 327 Q 392 340 408 351 Q 422 361 438 365 Q 448 368 466 367 Z M 320 328 Q 322 327 324 324 Q 327 304 330 264 Q 333 227 338 151 Q 321 152 312 154 Q 339 165 324 191 Q 330 219 330 243 Q 330 278 317 300 Q 309 316 295 327 Q 281 337 263 341 L 262 342 Q 249 345 237 337 Q 238 345 238 347 V 352 L 239 355 Q 239 362 237 367 Q 257 364 266 360 Q 277 357 294 348 Q 306 341 320 328 Z" fill="black" />
  </g>
  <g class="defect" id="01">
    <path d="M 312 154 Q 339 165 324 191" fill="none" stroke="red" stroke-width="3" />
  </g>
  <g class="defect" id="02">
    <path d="M 441 194 Q 457 164 456 178" fill="none" stroke="red" stroke-width="3" />
  </g>
</svg>