<svg xmlns="http://www.w3.org/2000/svg" width="512" height="512" viewBox="0 0 512 512">
  <g class="glyph">
    <path d="M 281 391 282 393 Q 291 405 297 409 Q 307 417 316 420 Q 327 424 335 424 Q 342 425 355 424 Q 371 422 384 433 Q 397 443 398 460 Q 400 476 389 489 Q 379 502 362 503 Q 351 504 341 499 L 338 498 Q 319 488 309 480 Q 295 469 285 456 Q 275 445 269 428 Q 263 414 263 397 Q 263 393 266 390 Q 269 387 272 387 Q 278 387 281 391 Z M 475 288 Q 491 290 502 305 Q 512 319 509 337 Q 506 354 492 364 Q 478 374 461 371 Q 456 371 451 368 Q 377 334 334 306 Q 319 317 293 332 Q 253 353 202 368 H 202 Q 184 373 168 364 Q 152 355 147 337 Q 142 319 151 303 Q 159 287 177 283 Q 182 282 187 281 Q 232 278 266 268 Q 274 266 282 263 Q 272 252 268 247 Q 262 240 257 230 Q 242 240 230 244 Q 213 249 200 249 Q 193 249 191 240 Q 191 235 196 232 L 198 231 Q 210 222 214 217 Q 221 210 225 200 Q 228 194 231 181 Q 233 171 233 161 Q 234 138 254 129 Q 234 131 192 132 Q 159 134 116 133 Q 127 167 133 202 Q 141 248 139 291 Q 138 341 128 382 Q 121 417 98 472 Q 91 490 72 498 Q 53 506 34 498 Q 16 490 8 471 Q 0 452 8 434 Q 10 429 13 425 L 14 423 Q 41 383 52 358 Q 67 325 77 284 Q 86 246 88 205 Q 89 167 84 129 Q 62 120 61 94 Q 62 78 73 69 Q 84 59 99 59 H 104 Q 146 66 194 70 Q 224 73 254 74 Q 255 65 258 57 Q 263 43 272 34 Q 280 24 293 14 L 295 13 Q 318 0 335 19 Q 348 42 328 59 Q 322 63 313 65 Q 306 65 298 66 Q 290 69 283 74 L 282 75 H 285 Q 347 77 377 75 Q 423 74 469 70 H 469 Q 475 69 480 74 Q 485 78 485 84 Q 485 97 473 100 Q 427 110 380 116 Q 334 123 287 127 Q 284 127 280 127 Q 302 135 306 159 Q 315 157 334 156 Q 366 156 385 168 Q 391 171 397 179 Q 403 187 405 196 Q 408 210 402 229 Q 394 248 379 266 Q 418 278 475 288 Z M 291 225 Q 306 237 324 245 Q 331 241 339 236 Q 357 223 364 212 Q 368 207 369 202 Q 386 178 365 194 Q 356 184 333 182 Q 319 180 300 181 V 182 L 299 184 Q 287 201 280 209 Q 279 211 277 212 Q 284 220 291 225 Z M 311 385 Q 304 377 297 366 Q 274 342 288 345 Q 287 338 293 335 Q 296 334 301 336 L 302 338 Q 310 344 316 347 Q 325 352 333 354 Q 348 359 364 357 Q 377 356 388 363 Q 398 371 399 385 Q 400 398 392 408 Q 385 418 371 420 Q 362 421 353 416 L 350 414 Q 325 402 311 385 Z" fill="black" />
  </g>
  <g class="defect" id="01">
    <path d="M 369 202 Q 386 178 365 194" fill="none" stroke="red" stroke-width="3" />
  </g>
  <g class="defect" id="02">
    <path d="M 297 366 Q 274 342 288 345" fill="none" stroke="red" stroke-width="3" />
  </g>
</svg>