<svg xmlns="http://www.w3.org/2000/svg" width="512" height="512" viewBox="0 0 512 512">
  <g class="glyph">
    <path d="M 333 362 Q 337 351 340 329 Q 342 322 342 315 Q 305 313 269 309 Q 268 320 255 292 Q 258 279 270 279 H 271 Q 313 278 348 275 Q 351 235 353 218 V 217 Q 334 218 316 217 Q 294 216 277 213 Q 269 210 271 203 Q 272 198 277 197 H 278 Q 296 195 313 189 Q 334 184 346 178 Q 361 172 375 162 Q 390 152 398 142 Q 420 122 443 139 Q 463 161 445 185 Q 442 188 438 190 L 437 191 Q 409 208 376 213 Q 377 214 377 216 Q 382 250 386 271 Q 393 269 396 269 Q 412 267 437 263 Q 447 261 456 267 Q 466 273 467 284 Q 469 295 463 304 Q 457 312 446 314 Q 445 315 443 315 Q 412 316 399 316 H 392 Q 393 326 393 331 Q 395 352 395 363 Q 400 362 405 362 Q 431 359 450 354 H 451 Q 491 351 481 375 Q 484 399 461 406 H 458 Q 439 407 409 408 Q 384 408 360 408 Q 317 408 263 403 Q 258 403 254 398 Q 249 393 250 387 Q 252 375 265 373 Q 298 371 332 370 Q 332 367 333 362 Z M 496 453 Q 500 470 491 485 Q 481 500 464 504 Q 458 505 456 505 L 415 507 Q 388 507 375 507 Q 324 503 293 496 Q 251 488 215 472 Q 194 462 185 456 Q 183 457 182 458 Q 161 472 143 480 Q 136 483 133 477 Q 129 470 135 467 V 466 Q 148 458 166 444 Q 155 436 145 426 Q 138 417 145 408 Q 153 401 161 406 L 163 408 Q 170 412 189 421 Q 197 411 197 411 Q 212 393 214 379 Q 216 367 205 357 Q 203 356 202 355 L 200 354 Q 199 352 196 349 Q 188 342 186 329 Q 183 316 186 298 Q 192 261 192 257 Q 192 243 185 237 Q 178 232 166 227 Q 149 222 141 206 Q 133 191 138 174 Q 144 157 159 149 Q 175 141 192 147 Q 197 148 203 152 L 206 154 Q 237 177 249 203 Q 256 220 256 238 Q 256 253 252 268 Q 243 294 235 311 Q 232 317 230 323 L 228 322 H 227 Q 229 323 229 324 Q 232 326 234 329 Q 245 342 249 357 Q 252 372 247 388 Q 240 408 218 430 L 217 430 Q 224 433 229 433 Q 262 441 299 441 Q 328 442 371 436 Q 389 433 407 430 L 442 422 H 444 Q 462 417 477 426 Q 491 436 496 453 Z M 35 504 Q 15 496 8 477 Q 0 458 9 439 Q 10 434 13 430 L 14 429 Q 41 390 53 362 Q 70 326 78 288 Q 88 249 89 207 Q 90 169 85 131 Q 62 121 62 95 Q 63 80 74 70 Q 85 59 101 60 Q 103 60 104 60 H 106 Q 152 67 196 71 Q 216 73 257 75 Q 259 64 261 58 Q 266 45 276 34 Q 283 25 296 15 L 299 13 Q 322 0 339 20 Q 353 43 332 60 Q 326 64 318 65 Q 309 65 302 68 Q 294 70 287 75 L 285 76 H 289 Q 330 78 382 77 Q 412 76 475 71 Q 489 71 491 85 Q 491 98 479 101 Q 417 114 385 118 Q 339 124 290 129 Q 243 133 195 134 Q 143 136 117 135 Q 129 168 134 204 Q 142 251 141 295 Q 140 343 130 387 Q 122 426 100 477 Q 92 496 73 504 Q 54 512 35 504 Z" fill="black" />
  </g>
  <g class="defect" id="01">
    <path d="M 269 309 Q 268 320 255 292" fill="none" stroke="red" stroke-width="3" />
  </g>
  <g class="defect" id="02">
    <path d="M 451 354 Q 491 351 481 375" fill="none" stroke="red" stroke-width="3" />
  </g>
</svg>