<svg xmlns="http://www.w3.org/2000/svg" width="512" height="512" viewBox="0 0 512 512">
  <g class="glyph">
    <path d="M 497 121 Q 505 144 509 179 Q 512 228 506 290 Q 502 341 491 398 Q 488 418 473 429 Q 457 440 438 436 Q 419 433 408 418 Q 397 402 400 383 Q 401 380 402 376 L 402 375 Q 425 307 433 278 Q 448 218 451 180 Q 453 150 451 133 Q 447 111 436 99 Q 429 94 420 91 Q 421 94 421 97 Q 422 139 418 177 Q 414 224 406 259 Q 392 307 371 340 V 341 Q 367 348 360 352 Q 374 363 376 380 Q 378 397 367 411 Q 356 425 339 427 Q 319 429 306 416 L 297 408 Q 295 407 293 405 Q 290 406 286 408 Q 261 418 244 418 Q 228 418 217 412 Q 204 405 198 392 Q 188 376 186 347 Q 185 317 195 265 Q 200 244 210 210 H 209 Q 193 211 182 198 Q 178 201 173 202 Q 161 204 150 198 L 144 194 Q 139 191 131 184 Q 131 190 132 199 Q 140 313 136 393 Q 136 411 122 424 Q 107 436 89 436 Q 71 435 58 421 Q 46 407 47 388 Q 47 386 48 380 Q 64 310 76 198 Q 86 98 88 11 Q 90 1 101 0 Q 110 0 111 10 Q 119 60 126 130 Q 128 132 129 134 Q 135 138 140 140 Q 135 155 160 141 Q 175 138 187 149 Q 195 143 206 143 Q 212 143 215 143 Q 222 145 242 148 Q 252 149 272 150 Q 297 152 330 148 H 330 Q 346 147 349 163 Q 351 176 339 181 Q 306 194 276 201 Q 275 201 272 201 Q 272 203 272 205 Q 271 207 270 208 V 209 Q 251 255 242 278 Q 229 321 226 347 Q 225 366 229 376 Q 233 385 245 387 Q 257 389 276 383 Q 285 370 267 363 Q 264 350 264 338 Q 264 329 268 316 Q 272 309 278 311 Q 280 312 283 315 L 283 317 Q 287 325 292 331 Q 298 338 304 340 L 305 341 Q 292 320 305 299 Q 308 294 309 293 Q 328 272 345 237 Q 357 213 370 168 Q 379 133 386 95 V 94 Q 372 97 354 105 L 353 106 Q 345 110 339 101 Q 335 93 342 87 Q 364 71 390 62 Q 392 48 394 19 Q 394 15 397 12 Q 401 9 405 9 Q 414 10 415 18 Q 402 37 418 57 H 425 Q 442 58 458 67 Q 485 84 497 121 Z M 312 60 Q 319 59 324 64 Q 330 69 330 76 Q 330 88 320 93 Q 298 103 271 109 Q 259 113 245 114 Q 228 117 219 117 H 217 Q 203 118 192 109 Q 181 99 180 85 Q 180 71 189 60 Q 198 49 213 49 Q 220 49 225 51 Q 231 52 246 56 Q 257 57 267 59 Q 291 62 311 60 Z M 62 142 Q 64 143 66 145 Q 71 157 72 167 Q 74 182 74 190 Q 74 213 64 238 L 63 241 Q 50 265 24 257 Q 0 245 8 219 Q 11 210 19 206 Q 32 197 43 182 Q 48 174 51 165 Q 55 156 56 147 V 146 Q 57 141 62 142 Z" fill="black" />
  </g>
  <g class="defect" id="01">
    <path d="M 276 383 Q 285 370 267 363" fill="none" stroke="red" stroke-width="3" />
  </g>
  <g class="defect" id="02">
    <path d="M 415 18 Q 402 37 418 57" fill="none" stroke="red" stroke-width="3" />
  </g>
  <g class="defect" id="03">
    <path d="M 140 140 Q 135 155 160 141" fill="none" stroke="red" stroke-width="3" />
  </g>
</svg>