<svg xmlns="http://www.w3.org/2000/svg" width="512" height="512" viewBox="0 0 512 512">
  <g class="glyph">
    <path d="M 495 210 Q 510 210 512 224 Q 512 236 500 240 Q 446 252 374 261 Q 364 263 354 263 Q 354 271 354 286 Q 368 279 386 274 Q 405 269 422 269 Q 447 270 465 289 Q 479 304 485 330 Q 488 348 488 369 Q 486 400 479 437 V 438 Q 474 457 458 467 Q 442 478 423 474 Q 404 470 393 453 Q 382 437 386 418 Q 389 409 392 404 Q 407 378 415 357 Q 425 334 422 323 Q 422 317 414 313 Q 404 309 391 309 Q 371 308 351 313 Q 346 334 339 353 Q 329 377 310 404 Q 304 413 292 427 L 272 449 Q 243 475 212 452 Q 186 423 210 392 Q 213 388 219 383 L 221 383 L 241 371 Q 258 359 260 358 Q 280 342 292 327 Q 308 308 317 288 Q 321 277 324 266 Q 316 267 311 267 Q 278 270 246 271 Q 232 271 222 261 Q 212 251 211 237 Q 214 205 245 202 H 250 L 251 202 Q 269 205 311 208 Q 328 210 345 210 Q 339 201 337 196 Q 335 191 333 181 V 176 Q 308 175 296 173 Q 266 168 246 157 Q 217 143 204 117 Q 193 94 195 68 Q 198 54 200 46 Q 202 39 204 35 Q 205 32 206 30 Q 207 29 208 27 Q 209 26 210 24 Q 227 1 261 0 Q 276 0 289 5 Q 299 10 306 17 Q 321 17 348 14 Q 371 13 383 13 Q 412 13 436 18 Q 461 24 477 39 Q 486 48 491 55 Q 494 60 499 72 Q 505 92 497 110 Q 490 128 471 142 Q 438 167 386 174 Q 365 176 364 176 Q 357 176 351 176 Q 353 179 357 181 Q 364 185 373 187 Q 382 188 387 195 Q 392 202 391 211 L 391 212 Q 447 213 495 210 Z M 442 51 Q 437 48 431 48 Q 425 46 419 45 V 45 Q 444 73 430 123 Q 444 117 452 110 Q 455 108 455 106 Q 458 102 458 102 Q 460 101 460 99 Q 464 91 464 83 Q 464 63 442 51 Z M 401 43 H 374 Q 369 43 361 45 Q 369 85 373 124 Q 374 129 372 134 H 381 Q 385 134 389 133 Q 389 132 388 129 V 123 Q 396 86 401 46 Q 401 45 401 43 Z M 294 93 Q 295 116 330 128 Q 330 124 330 122 Q 338 83 342 48 Q 329 51 316 60 Q 292 74 294 93 Z M 69 273 Q 54 298 26 288 Q 0 273 10 245 Q 14 236 24 230 Q 39 222 49 207 Q 55 201 59 191 Q 63 183 65 171 V 171 Q 66 166 71 167 Q 74 167 75 170 Q 79 179 82 193 Q 84 205 84 217 Q 83 242 71 269 Z M 223 191 Q 225 204 217 216 Q 210 227 196 230 Q 185 232 173 226 L 167 222 Q 157 215 149 209 Q 151 220 151 226 Q 160 343 154 428 Q 153 449 138 462 Q 123 475 102 474 Q 82 473 68 457 Q 55 442 56 422 Q 56 419 57 413 Q 77 336 89 225 Q 99 137 103 31 Q 104 19 115 19 Q 126 20 127 29 Q 136 85 144 154 Q 147 157 149 158 Q 154 162 160 164 Q 167 166 172 166 Q 176 166 184 164 Q 197 162 209 170 Q 220 177 223 191 Z" fill="black" />
  </g>
  <g class="defect" id="01">
    <path d="M 419 45 Q 444 73 430 123" fill="none" stroke="red" stroke-width="3" />
  </g>
</svg>