<svg xmlns="http://www.w3.org/2000/svg" width="512" height="512" viewBox="0 0 512 512">
  <g class="glyph">
    <path d="M 411 341 Q 412 340 412 337 Q 412 333 412 330 Q 410 321 407 317 Q 402 310 391 304 Q 370 293 337 291 L 335 291 Q 335 294 334 296 Q 334 299 331 321 Q 328 334 325 347 Q 321 360 317 372 Q 312 387 306 397 Q 297 413 292 419 Q 280 436 278 438 Q 273 444 264 453 Q 258 458 252 463 Q 246 468 241 473 Q 205 497 174 466 Q 161 451 163 431 Q 165 411 180 399 Q 184 396 191 392 L 193 391 Q 197 389 201 387 Q 205 386 210 383 Q 216 380 221 377 Q 226 375 233 368 Q 237 365 246 356 Q 250 352 258 341 Q 264 333 270 324 Q 274 318 280 306 Q 283 297 286 291 H 282 Q 266 291 243 295 Q 233 296 228 297 Q 219 298 216 288 Q 214 280 222 277 Q 229 274 237 271 Q 254 264 276 258 Q 283 256 299 252 Q 299 251 299 249 Q 304 230 304 222 Q 306 215 306 211 Q 306 206 310 202 Q 314 199 319 200 Q 316 219 331 210 Q 331 212 331 213 Q 331 214 332 222 Q 333 229 335 245 H 335 Q 375 238 410 245 Q 434 250 453 264 Q 473 278 484 304 Q 490 319 492 326 Q 493 333 494 336 Q 494 342 495 347 Q 495 357 495 365 Q 495 377 494 382 Q 493 389 492 396 Q 490 404 489 410 Q 487 421 485 429 Q 482 438 479 447 Q 474 468 455 478 Q 436 489 415 482 Q 394 476 384 457 Q 373 439 379 418 Q 380 414 384 407 L 384 405 Q 386 404 391 394 Q 395 387 397 381 Q 400 377 402 373 Q 402 371 405 364 Q 407 358 408 355 Q 409 352 410 346 Z M 366 98 Q 322 104 319 104 Q 319 105 319 110 Q 320 117 322 129 V 131 Q 322 137 320 143 Q 351 134 380 132 H 381 V 130 Q 381 128 382 126 Q 384 120 385 113 Q 386 108 388 94 Q 377 96 366 98 Z M 206 237 Q 205 247 197 251 Q 187 258 165 269 Q 166 319 158 359 Q 154 373 153 375 Q 151 383 148 391 Q 140 408 132 420 Q 123 437 111 449 Q 95 467 74 476 Q 55 484 36 476 Q 17 467 9 448 Q 1 426 12 405 Q 18 396 27 389 Q 68 360 86 300 Q 58 308 46 311 H 45 Q 30 314 18 305 Q 6 296 3 282 Q 0 267 8 255 Q 17 242 31 240 Q 37 238 40 239 Q 63 239 75 238 Q 89 237 97 236 Q 102 196 102 164 Q 99 165 95 166 Q 80 169 61 172 H 60 Q 45 174 33 165 Q 22 155 19 140 Q 17 126 26 114 Q 36 102 51 100 Q 56 99 61 100 Q 76 102 91 103 Q 94 104 102 104 Q 100 65 97 35 V 34 Q 97 29 100 25 Q 104 21 109 20 Q 120 20 122 29 Q 132 62 142 105 Q 156 105 183 104 Q 190 104 196 108 Q 201 113 202 121 Q 202 134 190 139 Q 177 144 152 152 Q 158 185 161 224 Q 181 219 183 218 Q 200 215 206 230 Q 206 233 206 237 Z M 206 239 V 221 Q 208 205 214 191 Q 219 178 227 167 Q 230 164 236 158 Q 240 154 243 158 Q 245 161 245 163 V 163 Q 244 165 244 168 Q 246 167 252 165 Q 261 161 270 158 Q 258 148 257 134 Q 257 131 258 124 Q 260 116 262 109 Q 245 110 228 111 Q 213 112 202 102 Q 191 92 190 77 Q 190 62 200 51 Q 209 41 224 39 H 230 L 231 40 Q 257 43 270 44 Q 271 39 271 30 Q 272 25 272 13 V 12 Q 271 7 275 4 Q 278 0 283 0 Q 293 0 296 8 Q 299 17 301 26 Q 306 39 307 47 Q 344 49 364 50 Q 378 51 392 51 Q 393 41 394 31 V 12 Q 394 7 397 4 Q 401 0 406 0 Q 415 0 418 8 Q 421 18 424 27 Q 427 39 430 50 Q 465 49 497 46 Q 509 46 511 57 Q 511 67 502 71 Q 470 79 437 86 Q 426 107 442 115 Q 443 122 444 129 Q 444 134 444 136 V 137 Q 453 139 468 147 Q 483 156 492 168 Q 500 179 505 193 Q 506 196 510 213 Q 511 221 511 229 Q 512 244 502 255 Q 491 266 476 266 Q 461 267 450 256 Q 439 246 439 231 Q 439 227 439 226 Q 440 222 440 218 Q 440 215 440 211 Q 440 209 439 205 L 438 203 L 437 201 Q 435 199 433 197 Q 430 193 421 189 Q 405 182 380 180 Q 340 176 290 184 Q 275 185 259 189 Q 251 190 248 191 H 245 Q 246 193 246 195 Q 249 205 254 213 Q 257 216 258 217 L 259 219 Q 275 242 256 261 Q 234 277 213 258 Q 206 249 206 239 Z" fill="black" />
  </g>
  <g class="defect" id="01">
    <path d="M 437 86 Q 426 107 442 115" fill="none" stroke="red" stroke-width="3" />
  </g>
  <g class="defect" id="02">
    <path d="M 319 200 Q 316 219 331 210" fill="none" stroke="red" stroke-width="3" />
  </g>
</svg>