<svg xmlns="http://www.w3.org/2000/svg" width="512" height="512" viewBox="0 0 512 512">
  <g class="glyph">
    <path d="M 374 113 Q 374 112 375 109 Q 358 112 341 110 Q 323 110 300 106 Q 293 103 294 95 Q 312 89 301 88 H 302 Q 323 85 337 80 Q 353 75 369 67 Q 383 59 395 47 Q 403 40 414 25 Q 435 0 463 16 Q 489 37 472 65 Q 469 70 464 74 H 463 Q 444 89 424 97 Q 409 103 396 105 Q 399 108 400 112 Q 405 149 409 186 Q 420 185 425 184 Q 448 180 469 176 H 469 Q 481 173 491 179 Q 501 185 504 197 Q 488 209 501 219 Q 495 229 483 232 Q 481 233 479 233 Q 461 234 430 236 H 415 Q 416 243 417 258 Q 420 290 419 307 Q 435 305 458 300 Q 470 298 480 305 Q 490 311 492 323 Q 495 350 469 358 H 465 Q 450 359 421 359 Q 407 359 378 358 Q 336 356 293 349 Q 278 345 279 330 Q 282 317 296 315 Q 305 316 349 314 V 308 Q 349 305 350 300 Q 353 290 359 257 Q 360 246 361 235 Q 319 233 287 229 Q 271 227 272 210 Q 275 197 288 195 Q 320 195 366 191 Q 356 167 374 113 Z M 508 405 Q 512 424 502 442 Q 491 459 472 463 Q 467 463 462 464 H 422 Q 402 463 383 462 Q 363 460 342 458 Q 309 452 303 450 Q 259 441 226 422 Q 213 415 203 408 Q 180 427 167 435 Q 159 439 155 433 Q 150 426 156 421 H 157 Q 177 403 186 393 Q 179 386 176 382 Q 173 378 170 373 Q 167 368 164 362 Q 159 351 171 344 Q 178 341 184 346 L 190 350 Q 192 352 194 354 Q 195 356 200 359 Q 204 362 208 365 Q 215 356 221 345 Q 233 321 234 304 Q 234 286 221 273 L 219 272 Q 218 269 215 267 Q 211 262 208 256 Q 204 245 204 235 Q 203 222 205 204 Q 210 167 209 155 Q 209 133 202 122 Q 198 119 195 115 Q 192 120 186 122 Q 173 127 148 134 Q 155 175 158 204 Q 177 200 179 199 Q 195 197 201 211 Q 204 225 192 231 Q 182 237 161 248 Q 162 296 154 336 Q 152 344 150 352 Q 147 360 144 368 Q 137 384 129 396 Q 120 413 109 424 Q 93 441 73 450 Q 54 458 35 450 Q 17 441 10 423 Q 1 402 13 381 Q 18 372 27 365 Q 68 337 84 279 Q 56 287 45 289 H 44 Q 30 292 18 284 Q 6 275 3 261 Q 0 247 8 235 Q 17 222 31 220 Q 36 219 40 219 Q 62 219 73 219 Q 85 218 95 216 Q 100 177 100 146 Q 97 147 93 148 Q 79 151 60 154 H 59 Q 44 156 33 147 Q 22 138 19 124 Q 17 109 26 97 Q 35 86 50 84 Q 55 83 60 84 Q 77 86 89 87 Q 92 88 100 88 Q 98 41 96 20 V 20 Q 95 15 99 11 Q 102 7 107 7 Q 116 7 120 15 Q 128 42 139 89 Q 150 89 161 89 Q 147 67 158 44 Q 166 26 185 20 Q 203 13 221 21 Q 227 24 232 28 L 234 31 Q 249 44 260 59 Q 272 76 277 94 Q 286 125 278 164 Q 273 180 261 216 Q 255 230 255 236 Q 254 238 254 240 H 253 L 252 240 L 255 244 Q 267 259 271 275 Q 275 291 272 309 Q 267 334 246 363 Q 243 368 234 377 Q 240 380 244 380 Q 276 389 311 389 Q 317 390 345 388 Q 363 386 380 384 Q 397 381 415 378 L 449 370 H 451 Q 470 366 487 376 Q 504 387 508 405 Z" fill="black" />
  </g>
  <g class="defect" id="01">
    <path d="M 366 191 Q 356 167 374 113" fill="none" stroke="red" stroke-width="3" />
  </g>
  <g class="defect" id="02">
    <path d="M 504 197 Q 488 209 501 219" fill="none" stroke="red" stroke-width="3" />
  </g>
  <g class="defect" id="03">
    <path d="M 294 95 Q 312 89 301 88" fill="none" stroke="red" stroke-width="3" />
  </g>
</svg>