<svg xmlns="http://www.w3.org/2000/svg" width="512" height="512" viewBox="0 0 512 512">
  <g class="glyph">
    <path d="M 455 349 Q 473 345 489 356 Q 504 366 508 384 Q 512 402 502 418 Q 492 433 473 437 Q 452 441 437 428 L 426 420 Q 411 409 404 399 Q 395 388 390 372 Q 385 359 386 346 Q 386 333 390 321 Q 393 313 401 316 Q 404 317 406 320 L 407 322 Q 411 333 416 337 Q 421 344 429 347 Q 437 350 442 350 Q 445 351 455 349 Z M 229 138 Q 211 138 200 124 Q 204 130 207 140 Q 217 170 220 212 V 202 Q 222 188 224 181 Q 226 177 227 171 Q 227 169 229 167 Q 229 165 230 164 Q 231 162 233 161 Q 243 146 260 142 Q 277 137 295 144 Q 302 148 309 156 Q 331 154 344 153 Q 389 150 415 157 Q 435 161 448 175 Q 455 182 459 189 Q 463 195 466 206 Q 471 224 464 241 Q 458 257 443 271 Q 417 292 375 299 Q 364 300 359 300 Q 359 303 361 305 Q 364 311 371 331 Q 376 346 378 362 Q 379 368 379 380 Q 368 386 378 397 Q 378 403 376 413 Q 375 422 372 428 Q 369 441 365 449 Q 363 454 361 458 L 360 461 Q 352 479 333 487 Q 314 494 295 486 Q 276 478 268 459 Q 261 440 269 421 Q 274 409 284 402 Q 286 400 288 399 Q 294 394 296 391 Q 300 389 302 385 Q 307 379 307 378 Q 311 373 313 368 Q 315 365 318 358 Q 320 351 324 335 Q 326 323 326 314 V 301 Q 309 300 302 299 Q 279 295 261 284 Q 238 271 227 247 Q 220 233 220 214 Q 220 242 219 255 Q 219 283 214 312 Q 208 341 196 366 Q 203 364 206 364 L 216 362 Q 220 361 225 360 Q 239 355 243 352 Q 232 361 258 340 Q 266 331 268 323 L 269 320 Q 273 313 281 316 Q 285 317 286 322 Q 289 335 286 352 Q 283 364 275 380 Q 268 393 257 405 Q 251 410 245 416 Q 240 421 233 425 L 232 426 Q 205 443 183 420 Q 175 409 176 396 Q 165 407 155 411 Q 136 421 110 421 Q 84 421 63 409 Q 39 395 23 364 Q 11 338 5 302 Q 0 271 1 240 Q 1 213 4 180 Q 5 171 8 151 L 10 136 Q 11 127 12 120 L 14 112 Q 19 88 34 77 Q 49 65 66 71 Q 79 76 88 90 Q 108 83 126 82 Q 152 81 172 93 Q 185 101 196 116 Q 193 109 193 102 Q 193 88 203 77 Q 214 67 229 67 Q 232 67 234 67 H 234 Q 261 71 293 74 Q 303 75 321 77 V 74 Q 324 59 331 47 Q 340 33 352 23 Q 361 16 378 7 L 381 6 Q 392 0 405 4 Q 418 9 423 20 Q 433 48 408 63 Q 401 67 391 65 Q 379 64 373 65 Q 365 65 356 70 Q 350 73 344 78 Q 351 78 354 79 Q 395 80 414 80 Q 445 80 475 78 H 476 Q 483 78 488 82 Q 493 87 493 94 Q 493 109 480 112 Q 439 120 418 123 Q 373 130 355 132 Q 313 135 292 136 Q 261 138 229 138 Z M 365 179 Q 335 181 316 194 Q 297 207 298 225 Q 299 243 321 254 Q 362 276 371 263 Q 411 260 430 240 Q 432 238 433 237 L 434 236 Q 434 234 435 233 Q 437 231 437 230 L 437 230 Q 440 223 440 216 Q 440 196 421 186 Q 417 184 412 183 Q 395 177 365 179 Z M 137 134 Q 110 130 91 154 Q 76 173 67 207 Q 77 209 87 210 Q 112 214 126 215 Q 155 218 184 217 Q 184 210 181 195 Q 170 138 137 134 Z M 130 368 Q 148 364 161 347 Q 174 332 179 310 Q 186 279 186 248 Q 161 254 127 259 Q 99 262 84 263 Q 69 264 61 264 Q 61 278 63 290 Q 69 352 104 365 Q 117 371 130 368 Z" fill="black" />
  </g>
  <g class="defect" id="01">
    <path d="M 321 254 Q 362 276 371 263" fill="none" stroke="red" stroke-width="3" />
  </g>
  <g class="defect" id="02">
    <path d="M 243 352 Q 232 361 258 340" fill="none" stroke="red" stroke-width="3" />
  </g>
  <g class="defect" id="03">
    <path d="M 379 380 Q 368 386 378 397" fill="none" stroke="red" stroke-width="3" />
  </g>
</svg>