<svg xmlns="http://www.w3.org/2000/svg" width="512" height="512" viewBox="0 0 512 512">
  <g class="glyph">
    <path d="M 66 255 Q 67 255 70 255 Q 80 257 106 262 Q 118 264 143 266 Q 173 268 200 266 Q 198 260 195 254 Q 188 240 175 234 Q 175 209 139 228 Q 104 228 64 244 Q 65 249 66 255 Z M 149 337 Q 173 338 198 335 Q 199 329 200 323 Q 203 305 203 292 Q 172 300 144 304 Q 124 307 104 307 Q 85 308 76 308 Q 77 315 78 328 Q 79 329 79 331 Q 94 333 110 334 Q 127 337 149 337 Z M 165 99 Q 152 101 139 102 Q 140 117 143 146 Q 149 146 158 147 H 170 V 146 Q 173 137 177 115 Q 178 110 179 96 Q 172 98 165 99 Z M 370 51 369 53 Q 369 54 369 56 Q 368 59 368 61 Q 368 64 369 71 Q 372 80 391 86 Q 410 91 433 89 Q 443 89 481 83 H 481 Q 494 83 496 95 Q 497 105 488 108 Q 478 113 468 117 Q 469 119 470 123 Q 473 163 465 211 Q 458 256 442 297 Q 435 314 427 330 Q 430 333 432 335 Q 455 356 481 371 L 482 372 Q 501 383 507 404 Q 495 439 501 443 Q 490 462 469 467 Q 448 472 429 461 Q 424 459 419 453 Q 397 432 379 408 Q 376 411 373 415 Q 364 427 343 450 Q 313 479 278 454 Q 275 451 272 447 Q 255 473 226 471 Q 205 470 191 455 Q 178 439 179 418 Q 180 411 181 407 Q 186 387 192 366 Q 182 369 152 375 Q 136 378 110 381 Q 101 382 82 384 Q 80 417 76 439 V 440 Q 73 456 60 464 Q 47 472 32 469 Q 17 466 8 454 Q 0 441 3 426 Q 4 421 7 416 Q 16 397 22 374 Q 8 359 33 327 Q 36 303 37 286 V 281 Q 37 278 38 273 Q 41 242 41 227 Q 42 218 51 218 Q 56 218 59 223 Q 78 210 98 201 Q 57 204 36 203 Q 21 202 12 192 Q 2 182 2 167 Q 3 152 13 142 Q 24 133 38 133 Q 40 133 44 134 Q 55 136 82 140 Q 83 131 88 108 Q 81 108 65 109 Q 50 109 40 99 Q 29 89 28 75 Q 28 60 38 50 Q 48 39 63 38 Q 68 38 71 39 Q 83 41 95 44 Q 96 34 98 14 V 13 Q 98 8 102 4 Q 106 1 111 2 Q 121 2 122 11 Q 124 21 130 48 Q 147 51 163 51 Q 170 52 184 53 Q 186 27 187 12 Q 188 7 191 4 Q 195 0 200 0 Q 210 1 211 10 Q 215 25 221 54 Q 246 54 258 54 Q 269 54 271 66 Q 271 75 262 78 Q 250 81 227 87 Q 229 101 231 115 Q 233 137 233 148 Q 260 147 275 146 Q 288 146 290 158 Q 290 169 280 172 Q 240 183 199 190 Q 226 199 242 218 Q 260 237 271 271 Q 276 292 280 324 Q 282 358 281 382 L 284 381 Q 299 369 314 358 Q 334 340 340 334 Q 334 319 332 310 Q 321 273 318 231 Q 317 191 323 153 Q 326 141 339 142 Q 348 144 350 154 V 155 Q 353 188 365 223 Q 373 250 387 276 Q 390 272 390 271 Q 410 241 426 201 Q 441 162 445 125 Q 443 126 440 127 Q 413 136 385 136 L 370 134 Q 369 134 353 131 Q 335 125 321 111 Q 305 94 301 76 Q 298 67 297 58 Q 297 55 297 49 V 44 Q 297 40 297 37 Q 300 22 312 14 Q 325 5 340 8 Q 355 11 364 24 Q 373 37 370 51 Z" fill="black" />
  </g>
  <g class="defect" id="01">
    <path d="M 507 404 Q 495 439 501 443" fill="none" stroke="red" stroke-width="3" />
  </g>
  <g class="defect" id="02">
    <path d="M 175 234 Q 175 209 139 228" fill="none" stroke="red" stroke-width="3" />
  </g>
  <g class="defect" id="03">
    <path d="M 22 374 Q 8 359 33 327" fill="none" stroke="red" stroke-width="3" />
  </g>
</svg>