<svg xmlns="http://www.w3.org/2000/svg" width="512" height="512" viewBox="0 0 512 512">
  <g class="glyph">
    <path d="M 498 448 Q 510 448 512 460 Q 512 471 502 474 Q 442 487 357 494 Q 321 496 283 498 Q 235 499 210 499 Q 197 498 188 489 Q 179 480 179 467 Q 179 454 188 445 Q 198 435 211 436 H 215 Q 236 439 285 444 Q 307 446 328 448 Q 327 443 327 441 V 436 Q 328 433 328 430 Q 313 432 297 433 Q 259 435 239 435 Q 227 436 217 426 Q 208 417 207 404 Q 207 391 216 381 Q 226 372 238 372 H 243 L 244 373 Q 276 377 298 379 Q 316 381 334 382 L 334 375 H 330 Q 310 375 290 372 Q 263 366 244 356 Q 218 343 206 317 Q 196 296 199 268 Q 199 261 203 247 Q 205 242 206 236 Q 208 233 209 231 Q 209 230 210 229 Q 211 227 212 226 Q 216 220 221 215 H 218 Q 203 215 194 205 Q 184 195 184 181 Q 184 167 194 157 Q 203 147 218 147 H 223 Q 248 151 264 152 Q 263 151 262 149 L 260 146 Q 253 128 267 118 Q 260 118 244 118 Q 229 119 220 109 Q 210 100 210 85 Q 209 71 219 61 Q 229 52 243 51 Q 246 52 248 52 H 249 Q 262 53 298 58 Q 306 58 319 59 Q 321 51 325 42 Q 332 31 341 23 Q 351 16 363 10 L 366 8 Q 387 0 400 20 Q 408 42 388 54 Q 382 58 374 57 Q 367 56 360 56 Q 354 56 346 61 Q 348 61 349 61 Q 401 63 452 59 Q 466 59 469 74 Q 469 86 457 90 Q 441 94 403 102 Q 421 103 429 121 Q 431 128 429 136 L 429 139 Q 424 152 420 161 Q 453 161 486 159 Q 493 158 498 163 Q 504 167 504 175 Q 503 189 490 192 Q 428 203 355 209 Q 334 211 292 214 Q 294 215 298 219 L 298 220 H 300 Q 323 217 336 217 Q 357 215 368 215 Q 396 215 415 220 Q 436 226 453 239 Q 460 248 465 256 Q 469 264 472 273 Q 490 292 470 310 Q 463 328 447 342 Q 419 364 376 371 L 377 385 Q 426 387 464 384 Q 476 384 478 396 Q 478 407 468 410 Q 432 418 381 426 Q 381 432 381 438 Q 382 444 379 450 Q 445 453 498 448 Z M 438 298 438 298 Q 439 295 440 293 Q 404 300 368 304 Q 370 318 372 331 Q 411 328 430 309 Q 433 306 433 305 L 435 304 Q 435 303 436 301 Q 438 299 438 298 Z M 373 245 Q 367 245 361 245 Q 343 262 364 271 H 366 Q 399 273 439 273 Q 436 261 421 254 Q 418 251 412 250 Q 394 245 373 245 Z M 299 262 Q 297 263 295 264 Q 327 268 343 269 Q 343 262 344 247 Q 313 251 299 262 Z M 298 116 Q 293 116 291 116 Q 297 119 300 126 Q 303 131 302 138 Q 301 148 304 155 Q 329 157 354 159 Q 367 160 380 160 Q 381 157 381 151 Q 381 148 378 137 Q 372 114 394 103 Q 379 106 352 110 Q 334 112 298 116 Z M 289 310 Q 306 326 338 331 Q 339 322 340 307 Q 290 310 289 310 Z M 51 415 Q 31 400 19 370 Q 7 343 3 307 Q 0 280 0 245 Q 0 211 2 185 Q 3 175 5 156 L 7 141 Q 21 152 9 125 L 11 117 Q 14 94 27 82 Q 40 70 53 76 Q 64 80 71 95 Q 85 89 102 87 Q 125 86 140 98 Q 160 111 169 145 Q 181 189 179 261 Q 178 293 174 317 Q 170 345 159 375 Q 146 405 126 417 Q 110 427 89 427 Q 68 427 51 415 Z M 146 315 Q 152 283 152 247 Q 127 253 103 258 Q 87 260 68 261 Q 55 262 49 262 Q 49 285 50 295 Q 56 358 85 371 Q 95 376 106 373 Q 120 370 131 352 Q 142 337 146 315 Z M 111 139 Q 90 136 74 158 Q 62 177 55 209 Q 63 211 71 213 Q 81 215 101 217 Q 127 219 150 218 Q 149 209 148 200 Q 139 143 111 139 Z" fill="black" />
  </g>
  <g class="defect" id="01">
    <path d="M 472 273 Q 490 292 470 310" fill="none" stroke="red" stroke-width="3" />
  </g>
  <g class="defect" id="02">
    <path d="M 361 245 Q 343 262 364 271" fill="none" stroke="red" stroke-width="3" />
  </g>
  <g class="defect" id="03">
    <path d="M 7 141 Q 21 152 9 125" fill="none" stroke="red" stroke-width="3" />
  </g>
</svg>