<svg xmlns="http://www.w3.org/2000/svg" width="512" height="512" viewBox="0 0 512 512">
  <g class="glyph">
    <path d="M 495 402 Q 510 403 512 418 Q 512 431 499 434 Q 432 449 369 455 Q 348 457 303 460 Q 258 462 235 462 Q 220 461 210 450 Q 200 439 200 425 Q 200 409 211 399 Q 222 389 237 389 Q 241 389 242 390 H 243 Q 259 393 304 398 Q 311 399 317 399 V 398 Q 327 344 331 293 Q 329 294 326 294 Q 303 296 274 296 Q 258 297 248 286 Q 237 276 237 260 Q 237 245 248 235 Q 239 238 273 224 Q 277 225 281 225 Q 301 229 327 232 Q 332 232 336 233 Q 338 199 342 136 Q 314 156 320 137 Q 290 140 266 140 Q 251 140 241 130 Q 230 119 229 105 Q 229 89 240 79 Q 251 68 265 68 Q 270 68 272 69 Q 286 71 321 75 Q 328 76 335 77 V 75 Q 338 60 345 49 Q 353 36 364 27 Q 374 19 390 11 L 392 9 Q 418 0 433 24 Q 443 50 419 65 Q 411 68 402 67 Q 391 66 385 67 Q 377 67 369 72 Q 363 75 358 79 Q 364 79 371 80 Q 425 83 472 81 H 472 Q 487 82 489 97 Q 488 110 476 113 Q 421 126 373 132 H 369 Q 376 167 388 237 Q 429 239 472 237 Q 487 238 489 252 Q 489 265 476 269 Q 439 279 395 286 Q 404 356 407 404 Q 465 404 495 402 Z M 91 188 Q 97 175 101 156 V 152 Q 97 153 94 154 Q 70 158 57 158 L 56 159 Q 41 159 30 150 Q 19 140 18 125 Q 17 111 27 100 Q 36 88 51 87 Q 55 87 62 88 Q 75 91 91 93 Q 98 94 105 94 Q 107 62 109 30 Q 111 20 123 18 Q 133 20 134 30 Q 126 73 140 96 Q 172 96 187 95 H 188 Q 203 95 206 110 Q 206 122 195 127 Q 174 135 148 142 Q 151 149 155 162 Q 164 181 170 191 Q 177 204 188 216 Q 196 225 210 234 Q 233 251 221 279 Q 203 302 176 290 Q 170 285 168 282 L 167 280 Q 161 274 152 260 Q 153 281 155 326 Q 156 386 153 427 Q 152 446 139 458 Q 126 470 107 469 Q 88 468 76 454 Q 64 441 65 423 Q 66 419 66 415 Q 75 375 83 322 Q 84 318 84 315 Q 79 322 73 329 L 72 330 Q 50 353 23 335 Q 0 312 18 285 Q 22 281 27 278 Q 43 267 53 256 Q 66 242 75 225 Q 86 204 91 188 Z" fill="black" />
  </g>
  <g class="defect" id="01">
    <path d="M 134 30 Q 126 73 140 96" fill="none" stroke="red" stroke-width="3" />
  </g>
  <g class="defect" id="02">
    <path d="M 248 235 Q 239 238 273 224" fill="none" stroke="red" stroke-width="3" />
  </g>
  <g class="defect" id="03">
    <path d="M 342 136 Q 314 156 320 137" fill="none" stroke="red" stroke-width="3" />
  </g>
</svg>