<svg xmlns="http://www.w3.org/2000/svg" width="512" height="512" viewBox="0 0 512 512">
  <g class="glyph">
    <path d="M 289 170 Q 277 171 268 163 Q 260 156 259 144 Q 258 132 266 124 Q 274 115 286 114 Q 288 113 293 115 Q 302 116 322 119 Q 332 120 352 121 Q 377 122 413 119 H 413 Q 425 119 426 129 Q 428 139 419 143 Q 391 153 356 161 Q 335 166 323 167 Q 306 170 289 170 Z M 72 318 Q 64 329 23 323 Q 0 301 18 273 Q 21 269 27 266 Q 42 256 53 244 Q 64 232 75 213 Q 84 198 91 176 Q 97 161 100 144 Q 101 143 101 140 Q 97 141 94 142 Q 68 146 57 146 L 56 147 Q 41 148 30 138 Q 19 128 18 113 Q 17 99 27 87 Q 36 76 51 75 Q 55 75 61 76 Q 75 79 91 81 Q 99 81 105 82 Q 107 61 109 18 Q 111 7 122 6 Q 132 8 134 17 Q 138 50 141 84 Q 172 84 188 83 Q 195 81 200 86 Q 206 91 206 98 Q 206 110 195 115 Q 176 122 148 129 Q 152 141 156 150 Q 163 167 170 179 Q 179 194 189 204 Q 197 214 210 222 Q 211 223 213 224 Q 216 197 219 147 Q 222 90 221 61 Q 221 57 224 54 Q 227 51 231 51 H 233 Q 232 45 238 41 Q 269 22 306 11 Q 348 0 384 6 Q 405 10 423 20 Q 434 27 441 33 Q 449 40 457 48 Q 480 75 494 121 Q 512 185 509 273 Q 508 328 495 420 Q 492 441 475 453 Q 459 466 437 463 Q 416 460 404 443 Q 391 426 394 405 Q 396 402 396 399 V 398 Q 414 338 423 290 Q 422 292 421 294 Q 402 314 372 320 Q 364 321 359 321 Q 355 321 347 321 H 346 Q 331 321 320 319 Q 301 314 290 306 Q 274 295 266 274 Q 264 267 263 259 Q 263 314 262 325 Q 260 374 252 416 Q 248 433 235 442 Q 222 451 205 448 Q 189 446 179 432 Q 170 418 173 402 Q 174 397 175 396 L 175 395 Q 189 355 198 317 Q 202 295 204 280 Q 190 285 176 278 Q 170 274 168 270 L 166 268 Q 158 258 153 248 Q 154 281 155 314 Q 155 381 153 416 Q 152 434 138 446 Q 125 459 107 458 Q 89 457 76 443 Q 64 429 65 411 Q 65 409 67 404 Q 76 359 83 310 Q 83 306 84 303 Q 80 308 73 318 Z M 414 257 Q 416 252 416 246 Q 416 230 404 222 Q 399 220 397 219 Q 388 215 374 215 Q 369 216 365 216 Q 345 217 331 228 Q 318 239 319 253 Q 320 267 333 276 Q 346 285 364 285 H 369 Q 396 283 409 266 Q 410 265 411 263 L 412 262 L 413 260 Q 413 259 414 258 Z M 246 59 Q 245 59 241 59 Q 249 100 254 147 Q 258 188 261 232 Q 263 221 264 216 Q 265 211 266 208 Q 267 204 267 203 L 268 201 Q 269 200 270 198 Q 279 179 299 179 Q 309 179 315 183 Q 321 187 326 193 H 327 Q 339 192 350 190 Q 360 190 370 189 Q 387 189 400 194 Q 415 198 425 210 Q 431 218 432 223 Q 434 225 434 227 Q 440 175 435 135 Q 425 61 374 45 Q 322 28 247 58 Z" fill="black" />
  </g>
  <g class="defect" id="01">
    <path d="M 72 318 Q 64 329 23 323" fill="none" stroke="red" stroke-width="3" />
  </g>
</svg>