<svg xmlns="http://www.w3.org/2000/svg" width="512" height="512" viewBox="0 0 512 512">
  <g class="glyph">
    <path d="M 267 383 294 371 Q 299 370 303 367 Q 295 354 290 338 Q 279 304 280 261 Q 274 262 260 262 Q 246 261 235 251 Q 225 240 225 225 Q 225 210 236 200 Q 247 190 261 190 Q 264 190 269 192 Q 280 194 290 196 Q 296 173 303 155 Q 306 148 314 151 Q 320 154 319 160 V 160 Q 316 177 316 199 L 317 200 Q 349 203 368 205 Q 424 208 471 203 Q 484 203 486 216 Q 486 226 477 230 Q 455 236 428 242 Q 431 260 429 279 Q 428 294 422 315 Q 414 338 400 358 Q 429 369 461 371 Q 482 371 497 388 Q 512 404 511 426 Q 510 448 494 463 Q 478 478 456 477 Q 446 475 442 474 L 440 473 Q 386 456 348 424 Q 347 423 345 422 Q 341 425 332 432 Q 302 444 302 453 L 271 472 Q 255 482 237 478 Q 219 474 210 458 Q 200 442 205 424 Q 209 406 225 396 Q 229 394 235 392 L 237 391 Z M 371 253 Q 357 255 323 259 Q 329 289 345 313 Q 352 323 359 330 Q 377 313 386 299 Q 395 286 400 273 Q 403 262 406 247 Q 381 252 371 253 Z M 204 160 205 153 Q 206 132 214 116 Q 219 108 223 101 Q 227 96 236 89 Q 239 86 242 90 Q 244 92 244 93 L 243 95 Q 243 103 244 108 Q 272 98 299 90 Q 318 85 328 83 Q 328 77 329 74 Q 332 59 339 47 Q 346 35 358 24 Q 369 15 385 7 L 388 6 Q 400 0 412 4 Q 424 8 430 20 Q 440 48 415 62 Q 408 66 398 65 Q 390 64 380 65 Q 371 66 364 70 Q 359 72 352 78 Q 363 77 373 75 Q 394 73 413 74 Q 437 75 456 82 Q 483 92 497 116 Q 510 136 510 168 V 168 Q 510 182 500 192 Q 490 201 477 201 Q 463 200 453 191 Q 444 182 445 167 Q 445 164 445 163 Q 447 151 445 145 Q 443 138 433 131 Q 414 121 374 118 Q 348 117 305 121 Q 280 124 251 129 Q 255 135 260 140 Q 278 163 259 186 Q 235 204 213 185 Q 203 174 204 160 Z M 72 338 Q 50 361 22 343 Q 0 320 18 293 Q 22 289 27 286 Q 43 275 53 264 Q 66 250 74 233 Q 83 218 91 196 Q 96 182 100 165 Q 101 164 101 161 Q 97 162 93 163 Q 70 166 57 167 L 56 167 Q 41 168 30 159 Q 0 149 18 134 Q 17 119 27 108 Q 36 97 51 96 Q 54 96 61 97 Q 74 100 91 102 Q 98 102 105 103 Q 120 82 109 39 Q 109 34 113 31 Q 117 27 122 27 Q 132 28 134 38 Q 137 72 140 105 Q 171 105 187 103 H 187 Q 203 103 205 119 Q 205 131 195 135 Q 176 142 148 150 Q 148 152 155 170 Q 160 184 170 200 Q 177 212 188 225 Q 196 234 209 242 Q 233 260 220 287 Q 203 310 176 298 Q 170 293 167 290 L 166 289 Q 160 282 152 268 Q 153 289 154 334 Q 155 394 153 435 Q 151 454 138 466 Q 125 478 107 477 Q 88 475 76 462 Q 64 449 65 430 Q 65 428 66 423 Q 75 383 83 330 Q 83 326 83 323 Q 79 330 73 338 Z" fill="black" />
  </g>
  <g class="defect" id="01">
    <path d="M 332 432 Q 302 444 302 453" fill="none" stroke="red" stroke-width="3" />
  </g>
  <g class="defect" id="02">
    <path d="M 30 159 Q 0 149 18 134" fill="none" stroke="red" stroke-width="3" />
  </g>
  <g class="defect" id="03">
    <path d="M 105 103 Q 120 82 109 39" fill="none" stroke="red" stroke-width="3" />
  </g>
</svg>