<svg xmlns="http://www.w3.org/2000/svg" width="512" height="512" viewBox="0 0 512 512">
  <g class="glyph">
    <path d="M 84 193 Q 89 178 93 161 V 158 Q 90 158 85 159 Q 60 163 49 164 H 48 Q 33 164 22 155 Q 10 145 9 130 Q 8 115 18 104 Q 27 93 42 92 Q 46 91 53 93 Q 61 95 84 97 Q 91 98 97 99 Q 100 67 102 35 Q 103 23 115 23 Q 124 24 126 33 Q 131 81 133 100 Q 164 100 180 99 Q 188 99 193 103 Q 198 108 198 115 Q 209 112 188 131 Q 166 140 140 146 Q 145 161 148 167 Q 157 188 163 197 Q 166 203 170 208 Q 171 192 184 183 Q 187 181 189 179 Q 225 162 249 143 Q 251 142 252 140 Q 250 137 247 133 Q 241 122 230 113 Q 224 108 218 105 Q 213 102 204 99 L 203 99 Q 197 97 198 91 Q 199 88 203 87 Q 210 84 222 83 Q 228 82 241 84 Q 261 87 280 96 L 283 98 Q 284 99 287 101 Q 289 97 290 96 Q 295 82 293 69 Q 292 54 281 43 Q 274 33 256 31 Q 240 29 222 33 H 221 Q 214 35 211 28 Q 209 21 216 19 Q 236 9 256 8 Q 267 7 279 10 Q 291 13 301 21 Q 321 36 329 59 Q 337 81 332 107 Q 324 143 289 185 Q 286 188 283 191 Q 289 192 293 192 Q 318 195 331 195 Q 345 196 373 196 Q 367 187 355 168 Q 343 142 341 133 Q 328 91 344 56 Q 358 23 391 4 Q 399 0 404 7 Q 407 13 403 18 L 403 19 Q 394 28 388 42 Q 382 58 382 67 Q 381 79 386 93 Q 388 84 393 75 Q 398 65 409 56 Q 416 50 431 42 L 434 41 Q 456 33 469 53 Q 474 63 470 73 Q 467 83 457 88 Q 450 91 442 90 Q 435 90 428 90 Q 420 91 413 95 Q 407 98 400 105 Q 399 106 396 111 Q 399 115 411 127 Q 413 130 415 131 Q 420 122 429 115 Q 437 108 452 100 L 455 99 Q 479 89 492 111 Q 501 134 480 148 Q 473 152 464 151 Q 457 149 449 151 Q 447 151 444 151 Q 449 155 454 157 L 479 169 L 480 170 Q 499 180 505 200 Q 512 219 503 238 Q 493 256 474 263 Q 454 269 435 260 Q 430 257 422 250 L 399 227 Q 370 234 333 240 Q 321 242 297 244 Q 302 247 306 252 Q 319 251 332 250 Q 346 249 354 249 Q 372 249 386 252 Q 402 257 412 266 Q 418 274 421 278 Q 424 287 425 291 Q 429 305 424 318 Q 419 332 407 342 Q 401 347 399 348 Q 419 353 421 374 Q 421 383 417 390 L 414 394 Q 401 414 379 426 Q 378 427 376 428 Q 422 429 461 425 Q 476 425 479 439 Q 479 452 466 455 Q 418 467 341 472 Q 299 474 278 475 Q 257 476 216 476 Q 204 476 195 467 Q 186 458 186 445 Q 186 433 195 424 Q 204 415 216 416 H 220 Q 239 418 275 422 Q 266 415 257 401 L 255 397 Q 243 375 262 360 Q 268 356 274 356 Q 271 354 268 352 Q 252 344 242 324 Q 235 307 237 288 Q 237 282 240 272 Q 241 269 242 265 Q 243 262 244 260 L 244 259 Q 246 258 246 256 Q 250 250 255 247 H 252 Q 239 247 231 238 Q 229 240 228 240 Q 238 264 211 247 Q 234 265 214 284 Q 196 309 168 296 Q 165 294 160 289 L 159 287 Q 152 278 145 266 Q 146 289 147 333 Q 148 393 145 435 Q 144 453 131 466 Q 117 478 99 477 Q 80 476 68 462 Q 56 448 57 430 Q 57 426 58 422 Q 67 382 75 328 Q 75 326 75 321 Q 71 329 65 336 L 64 336 Q 55 348 40 349 Q 26 351 14 341 Q 2 332 1 318 Q 0 303 10 292 Q 12 289 18 284 Q 34 274 45 262 Q 57 247 67 231 Q 78 209 84 193 Z M 367 376 Q 367 368 371 361 Q 364 363 355 364 Q 347 366 342 366 Q 338 366 329 366 H 327 Q 311 366 300 364 Q 298 364 296 363 Q 299 366 299 367 Q 304 375 304 384 Q 303 397 312 413 Q 315 417 321 425 Q 331 426 341 427 H 343 Q 351 418 359 405 Q 367 390 367 376 Z M 345 268 Q 324 269 309 279 Q 295 289 296 302 Q 298 314 311 322 Q 324 330 344 330 H 349 Q 379 328 393 313 Q 394 311 395 310 L 396 309 L 398 306 V 305 Q 400 299 400 295 Q 400 281 387 274 Q 385 272 380 271 Q 370 268 354 268 Z" fill="black" />
  </g>
  <g class="defect" id="01">
    <path d="M 211 247 Q 234 265 214 284" fill="none" stroke="red" stroke-width="3" />
  </g>
  <g class="defect" id="02">
    <path d="M 228 240 Q 238 264 211 247" fill="none" stroke="red" stroke-width="3" />
  </g>
  <g class="defect" id="03">
    <path d="M 198 115 Q 209 112 188 131" fill="none" stroke="red" stroke-width="3" />
  </g>
</svg>