<svg xmlns="http://www.w3.org/2000/svg" width="512" height="512" viewBox="0 0 512 512">
  <g class="glyph">
    <path d="M 472 239 Q 457 238 449 227 Q 440 216 442 202 Q 439 203 437 203 H 435 Q 417 203 405 198 Q 398 194 393 190 Q 387 186 383 180 Q 380 177 384 174 Q 386 173 388 174 H 389 Q 393 177 399 178 Q 406 179 409 178 Q 419 178 428 172 Q 439 166 448 175 Q 452 155 448 140 Q 447 147 443 151 Q 439 154 436 155 L 433 155 Q 415 159 402 154 Q 393 151 389 147 Q 383 144 378 137 Q 376 135 379 132 Q 381 130 383 132 H 383 Q 389 133 394 135 Q 399 136 404 135 Q 414 133 421 126 Q 430 119 441 125 Q 434 118 429 115 Q 436 121 398 103 Q 381 101 373 100 Q 374 109 375 118 Q 376 133 377 164 Q 377 186 377 210 Q 376 220 369 227 Q 361 234 351 233 Q 341 233 335 225 Q 328 218 328 208 Q 328 206 329 204 V 204 Q 333 185 336 161 Q 340 134 341 117 Q 341 109 342 100 Q 331 101 319 102 Q 284 105 242 116 Q 250 137 251 142 Q 259 172 257 194 L 256 200 Q 255 210 247 217 Q 239 225 229 226 Q 232 229 233 232 Q 249 220 267 220 Q 281 220 293 228 Q 302 232 309 244 L 310 245 L 312 245 H 313 Q 327 244 356 241 Q 372 239 391 239 Q 420 239 444 247 Q 468 255 484 273 Q 493 286 497 295 Q 501 306 504 319 Q 510 345 503 370 Q 495 394 476 414 Q 445 446 393 456 Q 379 459 371 459 Q 358 460 351 460 H 347 Q 320 459 303 455 Q 273 448 254 433 Q 226 415 213 379 Q 201 350 204 311 Q 194 280 209 282 Q 198 284 187 278 Q 184 276 178 271 L 177 269 Q 165 256 155 235 Q 157 286 158 313 Q 159 372 156 414 Q 155 433 142 445 Q 128 457 110 456 Q 92 455 80 441 Q 68 427 69 409 Q 69 407 70 402 Q 79 362 87 309 Q 88 302 88 295 Q 84 302 73 316 L 72 317 Q 50 340 23 322 Q 0 299 18 273 Q 20 270 26 265 Q 41 257 53 243 Q 66 228 74 212 Q 83 197 91 175 Q 97 159 100 140 L 98 141 Q 73 145 60 145 H 59 Q 44 146 33 136 Q 23 126 22 111 Q 21 97 31 86 Q 41 75 56 75 Q 60 74 66 75 Q 73 78 97 80 Q 103 81 108 81 Q 110 60 113 17 Q 113 12 117 9 Q 121 5 126 6 Q 136 7 137 17 Q 140 37 143 83 Q 162 101 196 82 Q 203 81 208 86 Q 213 90 213 97 Q 213 109 203 114 Q 181 122 154 129 Q 158 139 162 147 Q 169 163 178 177 Q 187 191 197 201 Q 197 197 197 193 Q 197 184 203 177 Q 212 167 216 145 Q 220 129 221 103 V 103 Q 222 97 229 95 Q 233 97 235 100 L 236 102 Q 276 84 315 74 Q 334 69 344 68 V 53 Q 330 55 316 56 Q 297 57 263 58 Q 251 58 242 50 Q 234 41 234 29 Q 234 17 242 9 Q 251 1 263 0 Q 265 0 267 1 Q 289 4 316 6 Q 341 9 366 9 Q 417 11 467 8 Q 478 8 480 19 Q 480 28 471 32 Q 415 44 368 50 H 366 Q 367 57 368 64 Q 385 62 402 62 Q 430 65 450 72 Q 478 84 493 108 Q 507 130 510 160 Q 512 177 508 209 Q 507 223 496 232 Q 485 241 472 239 Z M 297 360 Q 309 393 351 405 Q 350 402 350 399 Q 350 396 351 392 Q 354 375 357 357 Q 340 359 331 359 Q 309 360 297 360 Z M 475 356 Q 478 350 479 338 L 477 339 Q 445 347 402 353 Q 405 381 406 396 V 396 Q 407 401 405 407 Q 445 399 466 373 Q 468 369 469 367 L 471 365 Q 472 364 473 362 Q 473 360 475 357 Z M 398 273 H 390 Q 395 296 397 318 Q 438 319 473 315 Q 475 316 477 316 Q 472 297 455 286 Q 450 283 442 280 Q 424 273 398 273 Z M 369 275 Q 325 283 306 312 Q 319 313 332 315 Q 342 315 363 316 Q 366 296 369 275 Z M 270 182 Q 264 175 262 170 Q 260 166 264 164 Q 266 163 268 165 H 268 Q 271 167 279 171 Q 286 173 289 174 Q 299 175 309 172 Q 324 169 330 184 Q 334 200 319 205 Q 315 207 311 206 L 308 205 Q 290 201 280 192 Q 274 187 270 182 Z M 280 147 Q 274 143 269 137 Q 266 133 261 125 Q 260 121 263 119 Q 266 118 268 120 H 268 Q 271 122 279 126 Q 284 127 289 129 Q 299 130 309 127 Q 324 124 330 139 Q 333 155 319 160 Q 315 162 310 161 L 308 160 Q 290 156 280 147 Z" fill="black" />
  </g>
  <g class="defect" id="01">
    <path d="M 429 115 Q 436 121 398 103" fill="none" stroke="red" stroke-width="3" />
  </g>
  <g class="defect" id="02">
    <path d="M 204 311 Q 194 280 209 282" fill="none" stroke="red" stroke-width="3" />
  </g>
  <g class="defect" id="03">
    <path d="M 143 83 Q 162 101 196 82" fill="none" stroke="red" stroke-width="3" />
  </g>
</svg>