<svg xmlns="http://www.w3.org/2000/svg" width="512" height="512" viewBox="0 0 512 512">
  <g class="glyph">
    <path d="M 457 410 Q 470 405 484 411 Q 498 417 503 430 Q 512 462 483 477 Q 470 482 457 477 L 450 474 Q 435 469 426 462 Q 416 456 407 444 Q 399 435 396 423 Q 392 412 392 400 Q 393 394 399 393 Q 402 393 404 396 L 405 397 Q 411 404 418 408 Q 423 412 431 414 Q 438 415 444 414 Q 447 414 457 410 Z M 314 397 Q 318 393 323 397 Q 326 400 324 402 Q 323 414 316 427 Q 310 438 300 448 Q 290 458 279 465 Q 268 473 255 479 L 253 480 Q 225 489 209 463 Q 199 435 225 419 Q 234 415 244 417 Q 255 418 262 418 Q 271 418 280 416 Q 288 415 298 410 Q 306 405 313 398 Z M 373 88 Q 365 89 346 91 V 91 Q 348 119 348 119 Q 363 121 369 121 Q 374 121 380 121 Q 364 118 380 115 Q 384 102 386 89 Q 387 88 387 86 Q 380 87 373 88 Z M 305 298 Q 328 315 355 338 Q 360 320 362 296 Q 346 297 338 298 Q 328 298 305 298 Z M 404 340 Q 431 335 452 319 Q 476 300 476 276 Q 460 282 440 285 Q 419 288 401 291 Q 403 315 404 340 Z M 398 217 Q 400 245 400 258 Q 415 260 437 258 Q 466 256 475 258 Q 469 236 445 225 Q 426 217 399 217 Z M 395 187 Q 424 188 443 194 Q 466 202 480 218 Q 489 228 493 238 Q 498 250 500 260 Q 505 284 499 307 Q 491 328 474 347 Q 444 377 395 385 Q 348 393 310 384 Q 284 379 264 365 Q 237 347 225 315 Q 220 300 218 284 Q 200 309 172 296 Q 169 294 163 289 L 162 287 Q 155 278 147 265 Q 149 289 150 334 Q 151 393 149 438 Q 147 457 133 469 Q 119 482 100 480 Q 82 479 69 465 Q 57 451 58 432 Q 58 429 59 425 Q 68 384 76 329 Q 77 327 77 322 Q 72 329 66 337 L 65 337 Q 56 349 41 351 Q 26 352 14 342 Q 2 333 1 318 Q 0 303 10 292 Q 12 289 18 284 Q 35 274 46 261 Q 58 247 68 230 Q 80 207 85 191 Q 91 176 94 159 V 155 Q 92 155 87 156 Q 61 160 50 161 H 49 Q 33 162 22 152 Q 10 142 9 127 Q 8 112 18 101 Q 28 89 43 88 Q 47 88 54 89 Q 62 91 85 94 Q 93 94 99 95 Q 102 63 103 30 Q 105 18 117 18 Q 127 19 128 29 Q 133 77 135 97 Q 167 97 184 96 Q 191 95 196 100 Q 202 104 202 111 Q 202 124 191 128 Q 169 137 143 144 Q 148 158 150 165 Q 160 186 166 195 Q 176 211 184 221 Q 194 231 206 239 Q 214 243 218 250 Q 223 197 248 179 H 240 Q 226 179 216 169 Q 206 158 206 144 Q 206 130 216 119 Q 226 109 240 109 Q 243 110 245 110 H 246 Q 276 114 300 116 V 115 Q 302 108 304 95 Q 289 96 272 97 Q 257 97 247 87 Q 236 77 236 63 Q 236 49 246 38 Q 256 27 270 27 Q 275 27 277 27 Q 298 31 314 32 Q 315 24 317 9 Q 319 0 328 0 Q 335 1 336 8 Q 338 26 340 35 Q 361 37 370 38 Q 382 38 394 38 Q 396 24 398 9 Q 399 0 408 0 Q 415 1 416 8 Q 418 18 421 39 Q 443 39 465 37 Q 480 38 482 52 Q 482 65 471 68 Q 449 74 426 79 Q 427 88 427 91 Q 429 106 429 121 L 429 121 Q 458 121 493 118 H 494 Q 500 117 505 122 Q 510 126 511 133 Q 511 146 499 150 Q 452 161 393 169 Q 394 175 395 187 Z M 370 172 Q 335 175 301 177 Q 311 184 318 193 Q 352 189 370 188 Z M 369 220 Q 315 211 314 253 Q 327 254 340 256 Q 358 257 368 258 Q 369 248 369 220 Z" fill="black" />
  </g>
  <g class="defect" id="01">
    <path d="M 380 121 Q 364 118 380 115" fill="none" stroke="red" stroke-width="3" />
  </g>
  <g class="defect" id="02">
    <path d="M 305 298 Q 328 315 355 338" fill="none" stroke="red" stroke-width="3" />
  </g>
  <g class="defect" id="03">
    <path d="M 369 220 Q 315 211 314 253" fill="none" stroke="red" stroke-width="3" />
  </g>
</svg>