<svg xmlns="http://www.w3.org/2000/svg" width="512" height="512" viewBox="0 0 512 512">
  <g class="glyph">
    <path d="M 23 335 Q 0 313 18 286 Q 21 281 26 278 Q 41 269 53 256 Q 68 238 74 225 Q 82 209 91 188 Q 96 174 100 154 L 98 154 Q 73 158 61 158 H 59 Q 44 159 33 149 Q 23 139 22 124 Q 21 110 31 99 Q 41 88 56 87 Q 60 87 66 88 Q 79 91 97 93 Q 103 94 109 94 Q 110 73 113 30 Q 113 26 117 22 Q 121 18 126 18 Q 136 20 138 30 Q 140 53 144 96 Q 178 96 196 94 Q 200 94 203 96 Q 204 93 204 88 Q 206 72 218 63 Q 230 53 246 54 Q 248 49 251 44 Q 259 33 268 25 Q 279 15 290 11 L 292 9 Q 316 0 329 21 Q 339 44 317 57 Q 311 61 303 60 Q 295 60 287 61 Q 279 62 272 65 L 271 65 Q 276 70 278 72 Q 299 71 316 82 Q 335 94 345 119 Q 350 135 352 161 Q 357 210 342 246 Q 331 271 310 286 Q 298 295 287 299 Q 281 301 274 303 Q 269 304 266 304 L 262 304 H 257 Q 251 304 244 301 Q 244 304 244 306 Q 241 339 242 355 Q 242 383 248 400 Q 252 409 255 411 Q 260 415 267 412 Q 276 411 291 401 Q 291 396 290 389 Q 289 384 285 378 Q 284 376 277 367 L 275 365 Q 271 360 276 355 Q 278 353 282 353 Q 291 354 300 357 Q 309 360 317 365 Q 334 377 345 395 L 349 400 Q 349 402 350 403 Q 365 331 373 243 Q 379 169 381 94 H 379 Q 364 97 352 89 Q 340 81 337 67 Q 334 52 342 39 Q 351 27 365 24 Q 370 23 373 23 Q 427 24 431 29 Q 451 34 463 41 Q 484 54 492 72 Q 500 90 495 111 Q 491 126 483 140 Q 475 156 460 173 Q 475 185 484 196 Q 504 221 507 247 Q 512 281 494 307 Q 491 311 489 313 L 485 319 L 476 330 Q 466 339 456 348 Q 447 357 436 357 Q 437 396 435 428 Q 434 447 421 459 Q 408 471 389 470 Q 357 466 348 437 Q 344 442 339 444 Q 314 457 296 436 Q 291 440 278 446 Q 270 449 259 450 Q 247 450 238 445 Q 221 437 211 418 Q 199 395 195 360 Q 191 336 190 304 V 292 L 187 291 Q 182 287 179 284 L 177 282 Q 164 267 155 248 Q 157 300 158 326 Q 159 384 157 428 Q 155 446 142 458 Q 128 470 110 469 Q 92 468 80 454 Q 68 441 69 422 Q 69 419 70 416 Q 78 378 87 322 Q 88 315 88 307 Q 84 315 73 329 L 72 330 Q 50 353 23 335 Z M 422 89 Q 417 90 411 90 Q 422 163 430 243 Q 432 268 433 280 L 439 275 L 442 274 L 444 271 Q 455 262 457 249 Q 459 234 451 218 Q 443 199 430 186 L 430 185 V 185 Q 421 177 427 167 L 428 166 Q 442 142 447 125 Q 450 113 450 105 Q 450 96 447 94 Q 444 93 439 91 Q 438 90 422 89 Z M 311 129 Q 309 113 300 104 Q 294 99 284 96 V 99 Q 283 101 282 104 V 104 Q 260 118 269 156 Q 283 158 291 159 Q 306 160 313 160 Q 314 141 311 129 Z M 199 128 Q 176 136 154 142 Q 160 157 162 160 Q 170 177 178 190 Q 183 196 192 208 Q 193 202 193 196 Q 195 176 199 128 Z M 260 242 260 243 H 263 Q 251 254 269 242 Q 274 241 279 238 Q 289 234 296 222 Q 304 210 310 186 Q 298 190 294 191 Q 282 195 269 196 Q 263 198 260 198 Q 260 201 259 205 Q 257 217 252 243 Q 257 242 260 242 Z" fill="black" />
  </g>
  <g class="defect" id="01">
    <path d="M 263 243 Q 251 254 269 242" fill="none" stroke="red" stroke-width="3" />
  </g>
  <g class="defect" id="02">
    <path d="M 373 23 Q 427 24 431 29" fill="none" stroke="red" stroke-width="3" />
  </g>
  <g class="defect" id="03">
    <path d="M 282 104 Q 260 118 269 156" fill="none" stroke="red" stroke-width="3" />
  </g>
</svg>