<svg xmlns="http://www.w3.org/2000/svg" width="512" height="512" viewBox="0 0 512 512">
  <g class="glyph">
    <path d="M 33 442 Q 18 416 11 386 Q 0 339 3 279 Q 7 229 18 179 Q 29 130 46 86 Q 52 74 64 77 Q 68 78 69 80 Q 105 79 135 74 Q 170 68 200 58 Q 233 48 262 36 Q 282 27 292 22 Q 307 15 320 8 Q 333 0 349 4 Q 364 8 372 21 Q 381 35 377 50 Q 373 66 359 74 Q 356 77 352 77 L 351 78 Q 347 79 316 88 Q 309 90 302 91 Q 304 134 314 181 Q 319 198 324 216 Q 394 216 441 212 Q 455 212 458 227 Q 458 240 445 244 Q 402 253 342 261 Q 344 266 346 270 Q 347 275 367 311 Q 376 323 380 330 L 386 339 L 394 347 Q 412 372 457 407 L 459 409 Q 477 423 479 446 Q 482 468 468 486 Q 453 503 431 506 Q 409 508 391 494 Q 388 492 383 486 Q 340 435 321 393 L 315 381 L 309 368 Q 304 355 299 342 Q 286 298 284 291 Q 283 284 280 267 Q 270 268 265 268 Q 219 272 174 274 Q 129 276 83 276 Q 59 287 71 274 V 277 Q 77 323 94 357 Q 111 391 136 402 Q 157 411 166 431 Q 175 452 167 473 Q 158 494 137 503 Q 117 512 96 503 Q 89 501 83 496 L 78 492 Q 50 472 33 442 Z M 138 109 Q 110 108 73 103 Q 68 141 66 186 V 202 Q 74 198 83 198 Q 86 198 87 199 H 88 Q 140 205 175 208 Q 221 212 264 214 H 273 Q 272 200 272 186 Q 272 138 279 96 Q 249 102 209 106 Q 167 110 138 109 Z" fill="black" />
  </g>
  <g class="defect" id="01">
    <path d="M 83 276 Q 59 287 71 274" fill="none" stroke="red" stroke-width="3" />
  </g>
</svg>