<svg xmlns="http://www.w3.org/2000/svg" width="512" height="512" viewBox="0 0 512 512">
  <g class="glyph">
    <path d="M 169 311 Q 155 300 164 283 Q 175 268 192 277 Q 198 281 200 287 Q 204 296 210 304 Q 212 307 218 312 Q 223 317 226 318 L 227 319 Q 232 323 229 326 Q 227 328 225 328 Q 219 329 211 328 Q 205 327 198 325 Q 185 321 172 313 Z M 163 143 Q 145 144 133 152 Q 121 161 122 172 Q 123 183 135 190 Q 146 197 162 197 H 167 Q 192 195 204 182 Q 205 181 205 180 L 206 179 L 207 178 L 208 176 L 208 175 Q 210 171 210 167 Q 210 154 199 148 Q 196 147 193 145 Q 183 143 171 143 Z M 37 310 Q 20 296 32 277 Q 46 260 65 272 Q 73 277 74 286 Q 77 295 82 302 Q 86 306 90 310 Q 93 313 99 316 L 100 317 Q 104 320 102 325 Q 100 327 98 327 Q 93 328 83 328 Q 76 328 69 327 Q 54 323 40 313 Z M 46 418 Q 25 428 11 409 Q 0 388 19 373 Q 25 369 32 369 Q 50 368 65 361 Q 75 355 80 351 Q 90 342 94 337 Q 97 333 101 336 Q 103 338 103 341 Q 101 350 96 362 Q 93 371 85 382 Q 70 404 49 416 Z M 479 381 Q 496 387 504 402 Q 512 417 507 434 Q 503 452 487 460 Q 472 468 455 463 Q 447 461 440 456 L 438 454 Q 411 434 392 401 Q 385 389 378 368 Q 362 408 335 442 Q 324 456 306 458 Q 289 460 274 449 Q 272 447 270 445 Q 257 464 233 460 Q 219 458 210 445 Q 201 433 204 418 Q 204 418 205 411 V 410 Q 206 408 208 405 Q 197 412 191 415 L 189 415 Q 170 422 158 406 Q 157 418 155 429 Q 153 444 141 453 Q 130 463 114 461 Q 99 459 89 447 Q 80 435 82 420 Q 82 415 84 412 V 411 Q 97 374 103 352 Q 113 317 113 293 Q 113 279 110 268 Q 106 257 98 252 Q 74 243 44 257 H 43 Q 38 260 34 254 Q 32 248 36 245 Q 52 233 67 228 Q 89 221 107 225 Q 129 229 142 251 Q 152 267 156 289 Q 162 318 161 360 Q 160 371 160 376 Q 162 374 168 370 Q 185 388 178 368 Q 197 368 212 359 Q 220 355 226 350 V 349 Q 236 314 235 289 Q 233 273 229 265 Q 223 255 211 249 Q 187 240 151 252 H 150 Q 144 254 141 247 Q 140 243 145 239 Q 160 230 178 225 Q 199 219 218 221 Q 241 224 257 242 Q 270 256 278 280 Q 287 313 284 357 Q 284 365 283 372 Q 303 355 316 334 Q 334 305 345 271 Q 357 238 362 201 Q 368 165 368 128 V 127 Q 368 117 378 116 Q 387 116 389 124 Q 397 158 400 202 Q 403 246 399 283 Q 398 291 397 294 Q 405 313 413 325 Q 429 349 444 362 Q 460 375 479 381 Z M 288 124 Q 292 113 293 102 Q 293 99 293 79 Q 292 63 290 56 Q 273 53 297 28 Q 307 16 322 13 Q 337 11 349 20 Q 361 29 364 45 Q 365 54 362 62 L 362 64 Q 361 67 359 71 Q 365 69 371 66 Q 411 52 438 55 Q 462 59 477 74 Q 491 89 498 113 Q 505 140 500 184 V 184 Q 499 199 487 208 Q 476 218 461 216 Q 446 215 437 203 Q 428 191 429 177 Q 430 171 430 168 Q 440 140 440 123 Q 440 113 438 108 Q 436 102 428 99 Q 411 91 379 96 Q 360 99 344 104 Q 341 109 334 120 Q 324 135 314 144 Q 306 151 301 153 Q 291 158 284 160 Q 277 162 274 154 Q 273 151 275 147 L 278 143 Q 281 138 283 134 Q 286 129 288 124 Z M 109 114 Q 113 114 119 117 Q 123 119 128 125 H 129 Q 140 124 150 123 Q 161 122 168 122 Q 183 122 195 126 Q 208 129 218 138 Q 222 143 225 148 Q 227 152 229 160 Q 232 171 228 184 Q 224 194 214 204 Q 198 219 170 223 Q 162 225 158 225 Q 153 225 147 225 H 146 Q 132 225 123 223 Q 107 221 96 213 Q 82 205 74 188 Q 68 172 70 157 Q 71 148 72 143 Q 73 140 74 136 Q 75 134 76 133 L 77 129 Q 79 128 79 126 Q 74 132 68 137 V 138 Q 46 155 23 137 Q 6 114 25 93 Q 28 89 34 86 Q 43 83 61 73 Q 63 66 86 56 Q 101 43 108 33 Q 120 20 126 7 L 127 6 Q 129 1 134 4 Q 138 5 137 9 Q 137 26 130 45 Q 125 59 116 77 Q 123 78 130 79 Q 137 80 149 81 Q 163 83 181 82 Q 179 80 178 77 Q 168 60 162 43 Q 155 23 152 8 Q 151 2 157 1 Q 161 0 163 4 Q 170 17 182 31 Q 194 44 206 53 Q 218 63 232 70 Q 240 73 260 79 Q 273 82 280 92 Q 287 103 284 116 Q 281 130 270 137 Q 259 144 246 141 Q 240 139 235 136 Q 213 121 202 109 Q 198 104 194 99 Q 192 100 190 100 Q 172 107 150 110 Q 135 112 130 113 Q 117 114 109 114 Z M 104 114 Q 99 112 94 108 L 94 110 Q 83 122 83 123 Q 93 114 104 114 Z" fill="black" />
  </g>
  <g class="defect" id="01">
    <path d="M 290 56 Q 273 53 297 28" fill="none" stroke="red" stroke-width="3" />
  </g>
  <g class="defect" id="02">
    <path d="M 61 73 Q 63 66 86 56" fill="none" stroke="red" stroke-width="3" />
  </g>
  <g class="defect" id="03">
    <path d="M 168 370 Q 185 388 178 368" fill="none" stroke="red" stroke-width="3" />
  </g>
</svg>