<svg xmlns="http://www.w3.org/2000/svg" width="512" height="512" viewBox="0 0 512 512">
  <g class="glyph">
    <path d="M 478 374 Q 495 380 504 395 Q 512 411 507 428 Q 503 446 486 454 Q 470 462 453 457 Q 446 454 440 450 L 437 448 Q 408 426 390 395 Q 381 377 376 361 Q 362 399 333 435 Q 313 458 285 450 Q 274 460 259 459 Q 251 458 244 453 L 242 452 Q 223 440 214 428 Q 202 415 193 398 Q 187 386 183 367 Q 183 359 182 351 Q 176 352 164 354 Q 147 355 129 357 Q 129 360 128 365 Q 126 380 118 396 Q 110 412 99 425 Q 90 435 71 449 L 69 449 Q 43 463 24 440 Q 10 414 34 395 Q 40 390 47 390 Q 65 387 68 385 Q 80 381 88 374 Q 95 368 104 358 H 100 Q 72 360 36 358 Q 21 358 10 347 Q 0 336 1 321 Q 1 306 12 295 Q 24 285 39 285 Q 42 285 44 286 H 45 Q 45 282 45 277 Q 45 272 47 269 Q 53 248 60 211 Q 65 181 69 149 Q 71 128 74 107 H 63 Q 48 107 38 96 Q 27 85 28 70 Q 28 54 39 44 Q 49 33 65 34 Q 68 34 74 35 Q 77 36 79 36 Q 79 31 81 23 V 22 Q 82 11 93 11 Q 103 11 104 21 Q 106 31 107 42 Q 110 42 116 43 Q 131 46 161 48 Q 185 50 203 49 Q 205 31 205 21 Q 206 10 218 9 Q 227 9 230 19 Q 231 27 236 48 Q 240 48 251 47 H 252 Q 265 47 268 61 Q 269 72 258 76 Q 250 79 241 81 Q 246 105 251 146 Q 260 215 260 276 Q 261 288 254 300 Q 268 299 282 298 H 282 Q 298 298 301 313 Q 301 328 288 332 Q 252 341 226 345 Q 215 347 203 349 Q 205 353 208 357 Q 215 367 225 375 Q 237 383 246 386 Q 252 388 259 390 Q 262 386 264 381 Q 267 378 270 375 L 271 374 Q 298 351 314 326 Q 332 297 344 263 Q 354 232 360 192 Q 385 173 365 118 V 117 Q 366 107 377 106 Q 385 107 387 115 Q 396 153 399 193 Q 402 234 397 275 Q 397 276 395 287 Q 406 308 412 317 Q 426 339 443 355 Q 459 368 478 374 Z M 124 202 Q 128 203 138 204 Q 157 206 166 206 Q 173 207 187 207 Q 189 195 193 166 Q 186 168 170 171 Q 153 175 137 177 Q 128 178 122 179 Q 123 190 124 202 Z M 163 100 Q 139 103 115 105 Q 116 112 117 123 Q 124 126 139 129 Q 158 133 168 134 Q 177 135 196 136 Q 198 122 201 92 Q 188 95 163 100 Z M 162 300 Q 175 300 182 301 Q 174 291 174 278 Q 174 274 175 268 Q 177 260 181 240 Q 176 242 170 244 Q 158 247 141 252 Q 130 254 125 255 Q 125 269 123 284 V 284 Q 123 290 120 297 Q 148 299 162 300 Z M 428 167 Q 428 166 430 159 Q 440 131 440 113 Q 440 103 437 98 Q 434 91 427 88 Q 410 81 377 86 Q 358 89 342 94 Q 336 104 332 110 Q 323 124 311 134 Q 305 140 298 144 Q 290 149 282 151 Q 274 152 271 145 Q 270 141 272 138 L 275 133 Q 278 129 281 125 Q 284 119 285 115 Q 290 103 290 92 Q 291 84 291 69 Q 306 73 288 45 Q 285 30 295 17 Q 304 5 319 2 Q 335 0 347 9 Q 360 18 362 34 Q 364 43 360 52 L 360 53 Q 358 57 357 61 Q 363 58 369 55 Q 409 41 437 44 Q 462 48 477 64 Q 491 78 498 103 Q 505 131 500 174 V 175 Q 498 190 486 199 Q 475 209 460 207 Q 445 206 435 194 Q 426 182 428 167 Z" fill="black" />
  </g>
  <g class="defect" id="01">
    <path d="M 291 69 Q 306 73 288 45" fill="none" stroke="red" stroke-width="3" />
  </g>
  <g class="defect" id="02">
    <path d="M 360 192 Q 385 173 365 118" fill="none" stroke="red" stroke-width="3" />
  </g>
</svg>