<svg xmlns="http://www.w3.org/2000/svg" width="512" height="512" viewBox="0 0 512 512">
  <g class="glyph">
    <path d="M 98 355 Q 108 356 118 357 Q 144 360 181 361 Q 215 362 256 361 Q 255 360 251 359 Q 242 356 231 351 Q 217 346 208 340 Q 198 335 188 326 Q 182 321 172 310 Q 156 322 154 323 Q 121 317 116 344 Q 111 347 95 354 Q 96 355 98 355 Z M 106 160 Q 101 159 95 158 Q 83 155 83 141 Q 86 130 98 129 H 109 Q 123 129 137 128 Q 170 126 224 120 Q 258 115 309 107 Q 327 103 337 101 Q 343 100 348 99 Q 363 96 376 105 Q 389 113 393 129 Q 396 145 387 157 Q 379 170 363 174 Q 361 174 356 174 Q 349 174 345 175 H 315 Q 269 175 225 172 Q 178 170 136 164 Q 121 162 106 160 Z M 127 18 Q 126 26 124 34 Q 123 42 121 50 H 135 Q 145 50 154 49 Q 161 49 176 48 Q 191 47 223 43 Q 260 39 310 28 Q 325 25 338 21 Q 344 20 349 18 Q 365 14 378 22 Q 391 30 396 45 Q 400 60 392 74 Q 384 88 369 91 Q 365 93 362 93 Q 356 93 350 94 Q 341 95 319 96 Q 262 97 225 95 Q 200 94 175 91 Q 161 90 152 89 Q 142 88 133 86 Q 116 84 108 81 Q 103 94 95 104 Q 90 111 88 114 Q 102 121 80 123 Q 72 132 67 136 Q 65 138 62 141 Q 34 160 10 137 Q 0 126 1 110 Q 2 95 14 86 Q 19 81 27 78 Q 28 78 30 77 Q 35 77 42 73 Q 43 73 49 70 Q 55 67 57 66 Q 64 62 73 54 Q 90 39 100 24 Q 105 15 106 13 Q 108 11 109 8 Q 112 0 120 1 Q 128 4 127 12 Z M 321 262 V 259 Q 319 254 313 249 Q 300 238 276 232 Q 253 226 228 225 Q 186 221 140 225 Q 110 226 77 230 Q 65 232 52 233 Q 44 235 42 226 Q 40 218 48 216 Q 60 213 72 209 Q 100 201 136 193 Q 187 183 229 180 Q 261 178 284 181 Q 321 185 347 199 Q 364 210 376 226 Q 379 233 381 236 L 384 242 L 385 245 Q 387 251 388 257 Q 389 263 389 266 Q 391 276 393 322 Q 394 348 398 361 Q 402 373 408 377 Q 414 381 421 383 Q 426 385 438 386 Q 445 387 451 387 H 457 Q 480 388 496 404 Q 512 421 511 444 Q 511 467 494 483 Q 477 500 454 499 Q 451 499 444 498 Q 440 497 436 496 Q 434 495 414 490 Q 393 484 377 475 Q 350 460 333 437 Q 315 410 312 375 Q 309 348 315 317 Q 319 294 322 271 V 267 L 322 265 Z M 183 259 Q 184 259 182 257 Q 179 254 176 253 Q 164 247 141 247 Q 127 248 113 249 Q 106 251 103 252 Q 97 253 95 246 Q 93 240 100 238 Q 100 238 110 235 Q 126 230 139 229 Q 167 226 184 231 Q 193 235 197 239 Q 199 240 203 246 Q 205 246 206 251 Q 208 256 208 258 Q 208 266 203 276 Q 200 283 195 289 Q 192 292 190 294 Q 195 297 203 300 Q 208 302 222 305 Q 233 307 241 307 Q 253 307 258 306 Q 265 306 270 305 Q 273 305 275 304 Q 288 303 298 310 Q 308 318 310 331 Q 310 358 285 365 Q 288 369 288 373 Q 289 384 277 388 Q 243 396 195 403 Q 196 407 197 412 Q 202 431 203 440 Q 204 448 205 450 Q 225 450 261 450 Q 280 450 298 449 Q 304 449 309 453 Q 314 457 314 463 Q 314 477 301 480 Q 283 483 264 485 Q 231 491 183 496 Q 134 500 100 501 H 72 Q 68 501 63 500 H 60 Q 48 500 39 490 Q 30 480 31 468 Q 32 455 41 446 Q 51 437 64 438 Q 65 439 67 439 Q 70 439 70 439 Q 71 439 77 440 Q 90 442 102 444 Q 134 447 144 447 Q 145 445 147 437 Q 151 429 154 413 Q 154 411 155 408 Q 126 411 118 411 Q 100 412 96 412 Q 90 412 87 413 Q 75 413 66 405 Q 57 397 57 384 Q 56 373 64 363 Q 43 363 35 342 Q 30 330 35 318 Q 41 306 54 301 Q 57 299 62 299 Q 86 296 99 293 Q 118 290 136 284 Q 159 276 172 266 Q 181 259 182 258 V 258 Z" fill="black" />
  </g>
  <g class="defect" id="01">
    <path d="M 154 323 Q 121 317 116 344" fill="none" stroke="red" stroke-width="3" />
  </g>
  <g class="defect" id="02">
    <path d="M 88 114 Q 102 121 80 123" fill="none" stroke="red" stroke-width="3" />
  </g>
</svg>