<svg xmlns="http://www.w3.org/2000/svg" width="512" height="512" viewBox="0 0 512 512">
  <g class="glyph">
    <path d="M 181 209 Q 191 142 216 77 Q 217 75 219 72 Q 193 65 190 38 Q 190 22 200 11 Q 211 1 226 0 Q 231 0 234 1 Q 257 5 288 8 Q 316 11 345 11 Q 394 14 458 10 H 459 Q 464 9 468 13 Q 472 16 472 22 Q 473 32 463 35 Q 409 50 348 60 Q 328 64 289 69 Q 269 71 239 73 Q 243 78 242 84 L 242 85 Q 227 150 227 212 Q 225 284 250 328 Q 274 373 328 376 Q 377 379 440 356 Q 460 349 479 358 Q 498 367 505 388 Q 512 408 503 426 Q 495 445 474 453 Q 471 454 467 455 H 467 Q 380 472 315 458 Q 269 447 239 423 Q 206 396 191 354 Q 179 323 176 280 Q 176 248 181 209 Z M 258 269 V 269 Q 294 230 332 191 Q 319 176 304 162 Q 276 136 257 123 V 123 Q 250 116 255 108 Q 260 101 267 104 Q 297 117 326 133 Q 344 144 364 159 Q 392 144 396 128 Q 422 103 444 84 Q 454 77 461 85 Q 468 92 462 100 Q 458 105 425 153 Q 414 170 402 188 Q 407 193 431 217 Q 453 242 472 275 Q 460 289 476 306 Q 472 322 458 330 Q 423 345 402 315 Q 399 310 398 307 V 306 Q 389 278 377 255 Q 373 249 369 242 Q 347 279 324 317 Q 303 348 268 333 Q 253 324 249 308 Q 245 291 253 276 Q 255 272 258 269 Z M 72 119 Q 60 111 52 102 Q 44 92 40 81 Q 35 69 33 58 Q 33 51 40 50 Q 44 50 45 52 L 47 53 Q 56 61 60 63 Q 69 68 75 68 Q 89 70 101 63 Q 115 56 130 61 Q 145 66 153 80 Q 177 94 155 109 Q 150 124 136 131 Q 121 138 106 133 L 97 130 Q 83 126 72 119 Z M 17 242 Q 16 228 25 216 Q 34 204 48 202 Q 57 201 66 204 Q 88 213 110 214 Q 123 215 134 213 Q 144 212 157 209 L 159 208 Q 167 207 170 214 Q 172 220 168 223 Q 156 234 145 242 Q 129 252 120 256 Q 92 269 60 273 L 57 273 Q 42 275 31 266 Q 19 257 17 242 Z M 71 438 Q 54 447 36 442 Q 18 437 9 420 Q 0 403 5 384 Q 11 366 28 357 Q 37 352 51 352 Q 70 352 80 351 Q 92 350 108 345 Q 120 341 135 331 Q 151 321 160 312 L 161 311 Q 167 306 173 310 Q 177 314 176 319 Q 172 336 162 355 Q 150 376 139 388 Q 124 403 109 415 Q 95 426 74 437 Z" fill="black" />
  </g>
  <g class="defect" id="01">
    <path d="M 364 159 Q 392 144 396 128" fill="none" stroke="red" stroke-width="3" />
  </g>
  <g class="defect" id="02">
    <path d="M 153 80 Q 177 94 155 109" fill="none" stroke="red" stroke-width="3" />
  </g>
  <g class="defect" id="03">
    <path d="M 472 275 Q 460 289 476 306" fill="none" stroke="red" stroke-width="3" />
  </g>
</svg>