<svg xmlns="http://www.w3.org/2000/svg" width="512" height="512" viewBox="0 0 512 512">
  <g class="glyph">
    <path d="M 512 197 Q 512 208 501 212 Q 483 217 474 219 Q 484 245 490 267 Q 487 320 499 331 Q 499 371 485 402 Q 476 423 463 437 Q 450 452 431 465 L 423 470 Q 404 481 383 477 Q 362 473 350 454 Q 338 436 342 415 Q 347 393 365 382 Q 374 376 386 374 Q 403 371 413 360 Q 426 347 435 322 Q 441 302 444 272 Q 446 257 444 225 Q 423 230 399 233 Q 381 235 346 237 Q 316 239 292 238 H 292 Q 277 237 267 227 Q 258 216 258 201 Q 258 192 263 184 Q 261 182 256 176 Q 242 147 267 127 Q 269 126 277 123 H 278 Q 301 117 313 109 Q 330 99 342 86 Q 313 88 297 87 Q 283 87 273 78 Q 264 68 264 54 Q 264 41 274 31 Q 284 22 297 22 Q 301 22 304 22 Q 315 25 347 29 Q 361 30 374 31 Q 379 20 382 8 V 7 Q 383 0 391 1 Q 396 2 397 8 Q 398 16 398 32 Q 436 34 485 33 Q 491 32 496 36 Q 500 41 500 47 Q 500 59 489 62 Q 453 71 411 77 Q 413 81 416 84 Q 423 93 433 98 Q 443 103 453 105 Q 458 106 464 106 L 474 107 Q 490 108 501 120 Q 511 132 511 147 Q 510 163 498 173 Q 486 184 471 184 Q 462 183 453 179 L 452 178 Q 444 173 437 168 Q 429 163 422 158 Q 408 147 398 130 Q 388 114 384 97 Q 382 102 380 107 Q 369 132 350 153 Q 343 160 327 173 Q 339 175 349 177 Q 372 181 398 182 Q 444 187 496 183 H 496 Q 510 183 512 197 Z M 305 352 Q 289 342 283 324 Q 277 307 279 289 Q 280 279 281 273 Q 282 269 283 266 Q 284 264 285 262 L 285 260 Q 286 259 287 258 Q 295 241 313 241 Q 321 241 327 245 Q 333 248 336 254 L 337 253 Q 348 252 358 251 Q 368 250 376 250 Q 390 250 403 254 Q 416 258 424 268 Q 429 274 431 280 Q 434 285 435 292 Q 438 305 434 319 Q 431 331 420 342 Q 405 358 377 364 Q 371 364 365 365 Q 361 365 355 365 H 353 Q 345 365 331 363 Q 315 359 305 352 Z M 371 273 Q 353 274 342 284 Q 342 294 330 306 Q 331 318 342 326 Q 353 334 370 334 H 374 Q 399 332 410 317 Q 412 316 412 315 L 413 313 L 414 312 L 415 310 L 415 309 Q 417 305 417 300 Q 417 287 406 279 Q 404 278 400 276 Q 391 273 379 273 Q 374 273 371 273 Z M 146 402 Q 169 364 181 324 Q 185 309 188 295 Q 170 306 151 312 L 149 312 Q 137 316 126 310 Q 115 304 112 292 Q 108 281 114 269 Q 120 258 132 254 Q 138 252 144 254 Q 165 255 188 250 Q 192 249 196 247 Q 197 237 197 233 Q 200 206 199 179 Q 177 190 158 193 L 156 194 Q 144 196 133 190 Q 123 183 120 171 Q 117 159 124 148 Q 131 138 143 135 Q 150 133 156 135 Q 175 139 197 138 L 198 138 Q 196 92 186 43 V 42 Q 184 32 195 28 Q 205 27 209 36 Q 227 82 237 129 H 239 L 239 129 Q 248 127 251 135 Q 253 139 249 144 Q 246 147 242 150 Q 251 191 255 233 Q 260 287 254 337 Q 247 393 226 444 Q 219 462 202 469 Q 185 476 167 469 Q 150 462 142 444 Q 135 427 142 410 Q 144 405 145 403 Z M 72 121 Q 61 115 53 104 Q 44 95 39 83 Q 35 72 34 61 Q 34 54 40 53 Q 44 53 45 55 L 47 56 Q 53 62 61 66 Q 68 71 75 71 Q 89 73 101 66 Q 134 53 153 83 Q 160 97 155 112 Q 150 127 136 134 Q 122 141 107 136 L 97 133 Q 83 129 72 121 Z M 17 245 Q 16 230 25 218 Q 35 206 49 205 Q 59 203 66 207 Q 85 215 110 217 Q 118 217 134 216 Q 147 215 158 211 H 159 Q 167 208 170 217 Q 172 223 168 226 Q 157 237 145 245 Q 135 252 120 259 Q 94 271 60 276 H 57 Q 43 278 31 269 Q 19 259 17 245 Z M 72 441 Q 54 450 36 445 Q 18 440 9 422 Q 0 405 5 387 Q 11 369 28 360 Q 38 354 51 354 Q 67 355 80 354 Q 92 352 108 347 Q 122 343 135 335 Q 149 327 160 315 L 161 313 Q 167 307 173 313 Q 177 316 176 321 Q 172 339 162 358 Q 154 374 139 390 Q 125 406 109 417 Q 95 429 74 440 Z" fill="black" />
  </g>
  <g class="defect" id="01">
    <path d="M 490 267 Q 487 320 499 331" fill="none" stroke="red" stroke-width="3" />
  </g>
  <g class="defect" id="02">
    <path d="M 342 284 Q 342 294 330 306" fill="none" stroke="red" stroke-width="3" />
  </g>
</svg>