<svg xmlns="http://www.w3.org/2000/svg" width="512" height="512" viewBox="0 0 512 512">
  <g class="glyph">
    <path d="M 246 34 251 38 Q 264 56 250 74 Q 232 88 214 73 Q 208 67 207 58 Q 207 57 204 48 Q 203 46 199 37 Q 193 27 185 22 L 184 21 Q 177 16 181 10 Q 184 5 188 5 Q 203 5 220 14 Q 225 17 233 23 Q 242 30 246 34 Z M 71 100 Q 59 92 51 82 Q 43 72 39 61 Q 34 50 34 39 Q 34 33 40 31 Q 44 31 46 33 L 47 34 Q 54 42 60 45 Q 68 49 75 50 Q 87 52 100 45 Q 132 31 151 60 Q 165 93 135 112 Q 121 120 106 115 L 96 111 Q 82 107 71 100 Z M 16 225 Q 14 210 23 198 Q 33 187 47 185 Q 57 183 66 187 Q 85 196 105 197 Q 116 198 127 197 Q 135 196 148 193 L 150 192 Q 158 191 161 199 Q 162 203 159 207 Q 151 216 138 225 Q 126 234 115 239 Q 86 252 60 255 L 56 256 Q 41 258 30 249 Q 18 240 16 225 Z M 10 408 Q 0 391 4 373 Q 7 354 24 344 Q 34 337 50 337 H 62 L 75 336 Q 89 335 101 332 Q 114 329 125 323 Q 136 318 145 307 L 147 306 Q 152 299 158 304 Q 165 266 168 241 Q 178 153 177 77 V 77 Q 177 72 180 69 Q 183 66 188 66 Q 196 66 198 75 Q 207 120 212 158 Q 218 203 220 242 Q 224 284 224 327 V 329 Q 225 329 227 328 Q 229 327 234 325 Q 243 321 249 315 Q 282 302 272 285 Q 274 282 277 274 Q 264 270 253 264 Q 234 254 225 234 Q 217 218 219 196 Q 219 190 222 179 Q 223 175 225 171 Q 225 169 226 167 L 227 165 Q 228 163 229 162 Q 240 144 263 144 Q 272 144 282 149 Q 289 153 293 156 V 157 L 294 158 L 296 158 Q 309 157 315 157 Q 316 139 316 132 Q 307 133 298 135 Q 274 137 260 137 H 260 Q 248 138 238 129 Q 229 120 229 107 Q 228 95 237 85 Q 246 76 258 76 Q 264 76 266 77 Q 281 80 297 82 Q 308 83 318 83 Q 318 72 318 67 Q 319 62 322 59 Q 325 56 330 56 Q 339 57 341 65 Q 342 77 343 85 Q 361 85 397 84 Q 411 84 413 98 Q 413 109 402 113 Q 382 118 348 126 Q 350 144 351 155 Q 370 155 385 159 Q 403 164 414 174 Q 420 181 423 187 Q 426 193 428 200 Q 432 216 427 229 Q 422 242 409 253 Q 391 269 361 275 Q 362 289 362 295 Q 375 307 383 313 Q 408 310 406 325 Q 408 327 413 328 Q 415 329 416 330 Q 418 330 422 333 Q 429 290 432 269 Q 440 197 438 144 Q 437 109 431 86 Q 429 80 427 75 Q 427 74 426 72 Q 424 71 422 67 Q 415 58 405 51 Q 384 39 351 39 Q 321 39 290 49 H 290 Q 281 52 278 43 Q 275 35 283 32 Q 313 15 348 8 Q 389 0 422 11 Q 441 18 458 31 Q 462 35 466 39 Q 472 46 473 49 Q 476 54 483 68 Q 493 93 501 138 Q 511 199 511 274 Q 512 344 503 410 V 411 Q 500 430 484 442 Q 469 455 449 452 Q 430 450 418 434 Q 406 419 408 400 Q 399 401 392 398 Q 382 394 374 385 L 373 383 Q 372 381 370 379 Q 369 377 365 371 V 395 Q 365 400 365 411 Q 365 426 353 438 Q 342 449 325 449 Q 309 449 298 437 Q 287 426 287 409 Q 287 405 288 403 V 402 Q 289 394 290 388 Q 291 386 296 351 Q 301 318 305 279 Q 301 279 299 278 Q 299 285 299 292 Q 299 318 289 341 Q 284 353 275 366 Q 272 371 267 376 Q 263 382 258 386 Q 250 394 245 398 Q 242 400 238 402 L 237 403 Q 231 409 221 411 Q 221 412 220 414 Q 219 431 206 443 Q 192 454 175 453 Q 158 452 146 438 Q 135 424 136 407 Q 136 405 137 400 L 138 398 Q 142 382 150 347 Q 145 357 130 376 Q 123 385 104 400 Q 97 406 90 411 L 75 420 L 74 421 Q 57 432 39 428 Q 21 424 10 408 Z M 382 179 Q 371 175 353 175 Q 356 202 358 229 Q 360 225 362 220 Q 365 211 366 200 Q 368 186 382 186 Q 388 187 392 191 Q 397 196 396 202 Q 396 206 394 208 L 394 210 Q 388 222 378 231 Q 371 238 365 242 Q 361 245 359 246 V 248 Q 385 244 397 230 Q 399 229 400 227 L 401 226 Q 402 225 402 223 Q 403 222 404 221 Q 407 214 407 208 Q 406 191 390 182 Q 386 181 382 179 Z M 310 218 Q 312 199 313 180 Q 303 182 296 185 Q 302 188 304 192 Q 306 195 306 198 Q 307 209 310 218 Z M 277 203 Q 274 210 274 216 Q 275 224 284 232 Q 293 239 309 244 V 241 L 307 240 Q 296 231 294 229 Q 286 221 279 208 L 278 206 Q 277 205 277 203 Z" fill="black" />
  </g>
  <g class="defect" id="01">
    <path d="M 249 315 Q 282 302 272 285" fill="none" stroke="red" stroke-width="3" />
  </g>
  <g class="defect" id="02">
    <path d="M 383 313 Q 408 310 406 325" fill="none" stroke="red" stroke-width="3" />
  </g>
</svg>