<svg xmlns="http://www.w3.org/2000/svg" width="512" height="512" viewBox="0 0 512 512">
  <g class="glyph">
    <path d="M 489 58 Q 489 68 479 71 Q 463 76 434 81 Q 438 86 442 91 Q 449 100 456 107 Q 471 122 487 130 Q 512 146 501 174 Q 484 199 457 188 Q 449 184 444 176 L 442 173 Q 431 155 424 131 Q 426 166 427 200 Q 427 212 419 221 Q 411 229 399 230 Q 386 230 378 222 Q 369 213 369 201 Q 369 197 370 195 Q 376 164 380 133 Q 375 143 368 150 Q 361 159 349 168 L 348 170 Q 339 177 329 176 Q 328 179 326 182 Q 311 205 285 194 Q 279 191 273 183 L 272 180 Q 262 163 255 141 Q 256 158 257 193 Q 257 201 253 208 L 254 208 V 209 Q 254 222 256 234 H 257 Q 291 237 324 239 Q 394 243 457 239 V 238 Q 472 239 475 253 Q 475 267 462 270 Q 435 276 380 284 Q 396 288 381 315 Q 378 330 370 346 Q 367 350 364 354 L 365 355 Q 394 360 431 355 Q 451 353 466 365 Q 481 377 483 396 Q 486 416 474 430 Q 462 445 442 448 H 430 L 429 448 Q 380 441 343 424 Q 326 417 309 406 Q 305 409 300 412 Q 287 419 272 426 Q 266 436 244 438 L 216 448 Q 200 454 184 446 Q 169 439 163 423 Q 158 407 165 392 Q 172 376 188 370 Q 192 369 199 368 H 201 L 227 366 Q 240 365 252 363 Q 258 362 263 361 Q 243 332 236 295 Q 203 296 187 296 Q 172 296 162 286 Q 152 276 152 261 Q 152 247 162 237 Q 172 227 187 227 H 192 Q 212 230 235 232 Q 236 227 236 221 Q 232 223 229 223 Q 217 223 209 215 Q 200 207 200 195 Q 200 190 200 188 Q 206 160 211 128 Q 209 133 206 139 Q 199 152 192 160 Q 184 168 172 179 L 171 179 Q 151 194 132 176 Q 118 155 136 137 Q 142 132 148 131 Q 163 127 164 126 Q 168 124 180 118 Q 186 114 193 106 Q 199 99 201 91 Q 188 92 166 93 Q 157 93 150 88 Q 150 111 130 123 Q 116 130 102 126 L 93 123 Q 79 118 69 111 Q 61 107 50 95 Q 42 86 38 75 Q 33 64 33 54 Q 33 47 38 46 Q 41 46 43 48 L 45 49 Q 51 55 58 59 Q 66 63 72 63 Q 85 65 96 58 Q 119 49 137 63 Q 138 53 145 45 Q 153 38 164 37 Q 167 38 170 38 Q 186 41 201 42 Q 211 43 221 44 Q 223 26 224 8 Q 224 5 226 3 Q 229 0 232 0 Q 239 0 240 7 Q 244 30 246 45 Q 276 46 299 45 H 300 Q 312 45 314 57 Q 315 67 304 71 Q 280 78 251 83 V 86 Q 252 84 255 84 Q 260 84 261 87 L 262 88 Q 269 99 273 104 Q 281 115 285 119 Q 296 130 306 136 Q 308 131 313 127 Q 317 123 325 121 Q 334 119 341 116 Q 348 114 357 108 Q 365 102 370 95 Q 372 93 373 90 Q 362 91 343 92 Q 332 93 323 85 Q 315 78 314 66 Q 313 55 321 46 Q 329 38 340 37 Q 344 37 346 38 Q 362 40 378 42 Q 385 42 391 43 Q 392 31 393 8 Q 393 5 396 3 Q 398 0 402 0 Q 408 0 409 7 Q 412 19 415 45 Q 445 46 474 45 H 475 Q 487 45 489 58 Z M 325 290 Q 300 292 275 293 Q 288 318 308 332 Q 312 335 321 341 Q 331 334 340 325 Q 349 318 354 307 Q 359 296 359 287 Q 342 288 325 290 Z M 216 88 H 215 L 216 90 V 93 Q 216 91 216 88 Z M 163 203 Q 164 208 160 211 Q 147 224 139 229 Q 129 236 114 243 Q 87 255 58 259 L 55 259 Q 41 261 30 252 Q 18 243 17 229 Q 15 215 23 203 Q 32 192 46 191 Q 56 190 63 193 Q 67 219 105 202 Q 113 203 128 201 Q 140 200 151 197 H 152 Q 159 194 163 203 Z M 68 417 Q 52 425 35 420 Q 17 415 9 399 Q 0 382 5 365 Q 10 348 27 339 Q 37 333 49 334 Q 67 334 76 333 Q 91 331 103 327 Q 118 322 130 315 Q 143 306 152 296 L 154 295 Q 159 289 166 294 Q 169 297 168 302 Q 164 319 155 337 Q 147 352 133 368 Q 119 383 104 394 Q 93 403 71 415 Z" fill="black" />
  </g>
  <g class="defect" id="01">
    <path d="M 63 193 Q 67 219 105 202" fill="none" stroke="red" stroke-width="3" />
  </g>
  <g class="defect" id="02">
    <path d="M 380 284 Q 396 288 381 315" fill="none" stroke="red" stroke-width="3" />
  </g>
  <g class="defect" id="03">
    <path d="M 272 426 Q 266 436 244 438" fill="none" stroke="red" stroke-width="3" />
  </g>
</svg>