<svg xmlns="http://www.w3.org/2000/svg" width="512" height="512" viewBox="0 0 512 512">
  <g class="glyph">
    <path d="M 373 197 Q 366 192 362 185 Q 360 181 357 171 Q 355 162 356 158 Q 356 153 361 153 Q 363 153 364 155 L 365 155 Q 368 160 372 162 Q 376 165 380 166 Q 387 167 394 163 Q 416 151 431 171 Q 443 193 423 208 Q 411 216 398 210 L 388 207 Q 379 202 373 197 Z M 301 143 Q 302 167 309 187 Q 316 208 328 224 Q 339 237 357 243 Q 369 248 393 247 H 396 Q 408 247 418 256 Q 428 265 428 278 Q 428 291 419 301 Q 410 310 397 310 Q 391 310 388 310 Q 374 306 360 302 L 346 296 Q 340 292 333 288 Q 306 269 294 244 Q 283 221 282 192 Q 280 165 286 141 Q 287 134 295 135 Q 301 137 301 143 Z M 337 181 Q 346 189 355 191 Q 369 199 366 214 Q 359 229 343 225 Q 339 223 336 220 L 334 218 Q 324 207 319 192 Q 315 177 315 165 Q 315 160 319 160 Q 321 160 322 163 L 323 163 Q 329 174 337 181 Z M 257 255 257 253 Q 254 237 257 222 Q 258 215 260 208 Q 262 202 266 195 Q 268 191 272 194 Q 274 194 274 197 V 198 Q 273 210 277 222 Q 281 233 288 240 Q 297 254 285 265 Q 272 274 261 263 Q 258 259 257 255 Z M 503 428 Q 500 447 484 460 Q 468 472 448 470 Q 428 468 416 452 Q 404 436 407 416 Q 407 413 408 410 Q 422 354 431 286 Q 439 213 437 160 Q 436 124 430 101 Q 427 91 427 90 Q 426 88 425 87 Q 422 83 421 82 Q 414 73 404 66 Q 381 52 349 54 Q 319 54 288 63 H 288 Q 279 65 276 57 Q 274 49 280 46 Q 312 29 346 22 Q 388 13 421 25 Q 441 32 458 46 Q 461 49 465 53 Q 469 57 473 63 Q 474 66 483 82 Q 492 107 501 153 Q 511 214 511 290 Q 512 360 503 428 Z M 266 34 Q 280 52 265 69 Q 247 84 230 69 Q 224 63 222 54 Q 222 52 219 43 Q 217 38 215 33 Q 209 23 201 17 L 199 16 Q 173 0 196 4 Q 198 1 203 1 Q 218 0 235 10 Q 240 12 249 18 Q 257 24 261 29 Z M 25 450 Q 9 441 4 423 Q 0 406 9 389 Q 12 386 13 384 L 14 383 Q 41 352 58 308 Q 69 279 77 243 Q 69 261 51 263 Q 38 265 28 257 Q 18 249 17 236 Q 15 227 20 219 Q 23 211 25 202 Q 27 190 29 185 Q 31 162 27 150 L 26 149 Q 25 141 32 138 Q 37 136 41 140 Q 55 152 66 179 Q 71 190 73 201 Q 77 218 78 224 L 79 228 V 233 Q 80 226 81 218 Q 72 192 89 121 Q 89 65 84 23 V 23 Q 84 12 93 11 Q 102 9 105 18 Q 118 62 127 118 Q 130 136 134 174 Q 140 164 146 153 Q 154 135 155 131 Q 158 120 169 115 Q 179 110 190 113 Q 201 116 206 127 Q 212 137 208 148 Q 205 154 203 157 L 202 158 Q 195 167 181 180 Q 171 190 159 198 Q 146 208 136 213 Q 137 218 137 222 Q 137 233 136 244 Q 152 262 165 281 Q 177 297 191 320 Q 192 321 192 322 Q 198 288 203 252 Q 212 171 212 87 V 86 Q 212 81 215 78 Q 218 75 222 75 Q 232 75 233 84 Q 240 115 247 168 Q 254 216 256 253 Q 260 295 260 339 Q 260 382 256 427 Q 255 444 241 456 Q 227 467 210 466 Q 204 480 181 451 Q 169 437 171 420 V 418 Q 151 414 143 396 Q 140 391 139 382 Q 138 368 133 342 Q 132 332 129 318 Q 127 323 126 329 Q 113 387 85 435 Q 61 468 25 450 Z" fill="black" />
  </g>
  <g class="defect" id="01">
    <path d="M 210 466 Q 204 480 181 451" fill="none" stroke="red" stroke-width="3" />
  </g>
  <g class="defect" id="02">
    <path d="M 199 16 Q 173 0 196 4" fill="none" stroke="red" stroke-width="3" />
  </g>
  <g class="defect" id="03">
    <path d="M 81 218 Q 72 192 89 121" fill="none" stroke="red" stroke-width="3" />
  </g>
</svg>