<svg xmlns="http://www.w3.org/2000/svg" width="512" height="512" viewBox="0 0 512 512">
  <g class="glyph">
    <path d="M 494 408 Q 509 409 512 424 Q 511 437 499 440 Q 453 450 430 454 Q 398 460 361 463 Q 326 467 290 469 Q 243 471 219 471 Q 204 471 194 460 Q 183 450 183 434 Q 156 436 144 411 Q 140 405 140 397 Q 139 382 134 356 Q 131 341 127 326 Q 126 335 124 340 Q 112 398 84 445 Q 60 477 25 460 Q 8 451 4 434 Q 0 416 9 400 Q 11 397 13 395 L 14 394 Q 39 364 57 320 Q 68 291 76 255 Q 69 273 50 275 Q 38 277 28 269 Q 18 261 17 249 Q 15 240 19 232 Q 22 224 25 216 Q 27 204 28 198 Q 31 176 26 164 L 26 163 Q 25 155 32 152 Q 37 150 40 154 Q 55 166 65 192 Q 70 203 72 214 Q 76 231 77 237 L 78 241 V 246 Q 79 239 80 231 Q 87 192 88 136 Q 88 80 82 39 V 38 Q 82 28 92 26 Q 101 25 104 34 Q 117 77 126 133 Q 130 168 132 185 Q 132 184 136 179 Q 141 172 148 158 Q 154 145 157 137 Q 160 126 170 121 Q 180 115 191 118 Q 214 129 209 153 Q 207 157 204 162 L 203 163 Q 195 174 183 184 Q 172 195 161 203 Q 149 212 134 220 V 256 Q 145 268 166 294 Q 184 320 192 334 Q 224 349 215 376 L 216 377 Q 221 388 219 397 H 220 Q 224 397 225 398 H 226 Q 252 403 291 406 Q 301 407 306 407 Q 306 406 306 404 Q 316 352 320 298 Q 307 299 300 299 Q 273 302 240 301 Q 225 300 215 289 Q 204 278 205 263 Q 206 248 217 237 Q 228 227 243 227 Q 246 228 249 228 H 249 Q 264 232 302 237 Q 317 238 325 239 Q 329 194 331 139 Q 322 140 303 141 Q 264 144 243 143 Q 228 142 217 132 Q 206 121 207 106 Q 207 91 218 80 Q 229 69 244 70 Q 248 70 251 70 H 251 Q 272 75 305 78 Q 312 79 328 81 Q 328 78 328 76 Q 331 61 338 50 Q 346 37 358 27 Q 368 19 384 11 L 386 10 Q 413 0 428 25 Q 437 51 413 66 Q 404 69 397 69 Q 388 67 379 68 Q 371 69 362 73 Q 355 76 349 82 Q 355 83 360 83 Q 418 86 472 82 Q 487 83 490 98 Q 490 111 477 115 Q 418 129 362 136 H 360 Q 370 189 378 242 Q 431 243 466 240 Q 481 241 484 256 Q 484 269 471 273 Q 427 284 385 290 Q 395 362 397 410 V 411 Q 412 411 426 411 Q 456 411 494 408 Z" fill="black" />
  </g>
  <g class="defect" id="01">
    <path d="M 300 299 Q 273 302 240 301" fill="none" stroke="red" stroke-width="3" />
  </g>
  <g class="defect" id="02">
    <path d="M 192 334 Q 224 349 215 376" fill="none" stroke="red" stroke-width="3" />
  </g>
</svg>