<svg xmlns="http://www.w3.org/2000/svg" width="512" height="512" viewBox="0 0 512 512">
  <g class="glyph">
    <path d="M 254 76 Q 266 75 270 75 Q 346 68 396 74 Q 412 75 430 80 Q 447 85 466 96 Q 486 110 497 127 Q 512 150 509 177 Q 508 190 496 199 Q 485 208 471 206 Q 458 205 449 194 Q 440 183 442 170 V 168 Q 442 163 441 161 Q 438 155 430 148 Q 420 141 411 138 Q 401 134 386 131 Q 342 121 271 121 Q 226 121 153 126 Q 109 130 46 138 Q 48 139 50 141 Q 71 160 57 184 Q 37 205 13 191 Q 0 182 0 165 L 1 155 Q 2 135 9 122 Q 13 116 19 109 Q 35 105 30 101 Q 34 98 36 102 Q 36 104 36 105 V 106 Q 36 109 36 116 Q 80 104 148 92 Q 201 83 224 80 Q 226 66 228 60 Q 232 48 242 35 Q 247 30 251 25 Q 258 19 261 16 L 263 15 Q 284 0 303 18 Q 318 40 300 58 Q 293 63 285 65 L 277 66 Q 273 67 269 68 Q 261 72 254 76 Z M 151 182 V 184 Q 151 186 151 188 Q 154 194 156 197 Q 164 207 177 213 Q 197 224 241 227 Q 246 176 248 151 V 150 Q 250 138 263 138 Q 273 139 275 150 Q 279 176 285 229 Q 314 229 328 228 Q 342 227 411 223 Q 418 222 424 227 Q 429 232 430 239 Q 430 253 417 257 Q 361 268 333 273 Q 317 276 290 279 Q 291 291 293 303 V 305 Q 410 307 485 299 Q 501 300 503 314 Q 503 329 490 332 Q 407 348 297 357 Q 288 408 300 460 Q 300 481 286 494 Q 273 508 253 509 Q 232 509 218 495 Q 204 481 204 461 Q 204 457 205 450 Q 215 408 222 362 Q 178 365 154 366 Q 97 368 41 368 Q 25 368 14 356 Q 3 345 3 329 Q 3 313 14 302 Q 25 291 41 291 H 45 Q 104 297 155 300 Q 193 303 232 303 V 302 Q 233 291 234 284 Q 187 286 152 275 Q 123 264 103 245 Q 91 233 84 219 Q 82 214 78 204 Q 77 200 76 195 Q 75 193 75 190 Q 75 188 74 183 Q 74 168 85 157 Q 97 146 112 145 Q 128 145 139 156 Q 150 166 151 182 Z" fill="black" />
  </g>
  <g class="defect" id="01">
    <path d="M 297 357 Q 288 408 300 460" fill="none" stroke="red" stroke-width="3" />
  </g>
  <g class="defect" id="02">
    <path d="M 19 109 Q 35 105 30 101" fill="none" stroke="red" stroke-width="3" />
  </g>
  <g class="defect" id="03">
    <path d="M 153 126 Q 109 130 46 138" fill="none" stroke="red" stroke-width="3" />
  </g>
</svg>