<svg xmlns="http://www.w3.org/2000/svg" width="512" height="512" viewBox="0 0 512 512">
  <g class="glyph">
    <path d="M 150 219 Q 150 196 171 184 Q 155 155 180 131 Q 187 128 190 126 L 214 118 Q 226 114 236 109 Q 253 100 260 95 Q 230 96 213 96 Q 198 95 188 85 Q 178 75 178 60 Q 178 45 189 35 Q 199 25 214 25 Q 217 25 219 26 H 220 Q 246 30 278 33 Q 291 35 318 36 Q 326 21 330 8 V 6 Q 332 0 338 1 Q 344 3 344 8 Q 345 18 342 37 Q 400 40 458 35 Q 464 35 469 39 Q 474 43 475 50 Q 475 63 463 67 Q 428 75 387 82 Q 396 87 406 92 Q 425 99 437 101 Q 452 103 469 103 Q 487 104 499 117 Q 512 129 512 148 Q 511 166 499 178 Q 486 191 467 191 Q 457 190 450 187 L 449 186 Q 425 175 409 164 Q 393 153 375 136 Q 362 123 349 101 Q 346 97 342 88 L 340 89 Q 332 89 324 90 Q 318 103 309 114 Q 297 133 271 158 Q 261 168 249 177 L 237 185 Q 253 187 268 188 Q 318 192 343 193 Q 430 198 493 192 Q 499 192 504 196 Q 509 200 510 207 Q 510 219 498 223 Q 472 230 434 236 Q 449 263 456 286 Q 469 326 468 357 Q 468 401 446 438 Q 423 474 381 497 L 376 499 Q 356 511 334 504 Q 312 498 300 478 Q 289 458 295 436 Q 302 413 322 402 Q 330 397 339 395 Q 361 392 375 382 Q 391 371 400 348 Q 408 325 408 294 Q 425 261 402 241 Q 361 246 344 248 Q 319 250 267 254 Q 215 256 189 257 Q 173 258 162 247 Q 150 236 150 219 Z M 308 398 Q 305 399 297 399 H 295 Q 280 399 269 396 Q 250 392 239 384 Q 222 372 214 351 Q 207 332 209 310 Q 210 303 212 293 Q 214 288 214 284 Q 215 282 216 280 L 217 278 Q 218 275 219 275 Q 228 255 248 255 Q 256 255 264 259 Q 270 263 275 270 H 276 Q 284 268 299 267 Q 313 266 320 266 Q 337 266 351 270 Q 366 275 375 286 Q 380 292 383 300 Q 386 308 388 314 Q 391 331 387 346 Q 382 360 371 372 Q 352 391 322 397 Q 314 398 308 398 Z M 268 331 Q 270 345 282 354 Q 295 362 313 362 H 319 Q 346 361 360 344 Q 361 341 362 340 L 362 339 L 364 337 L 364 335 L 365 334 Q 367 330 367 324 Q 367 307 354 299 Q 351 297 348 296 Q 338 292 324 292 H 314 Q 294 294 281 305 Q 268 317 268 331 Z M 48 334 Q 19 344 5 317 Q 0 304 5 292 Q 9 280 23 274 Q 28 271 35 271 Q 45 271 56 269 Q 66 267 76 264 Q 78 264 80 263 Q 82 255 82 247 Q 84 216 84 192 Q 80 193 75 195 Q 60 201 44 205 H 43 Q 30 208 19 201 Q 7 194 4 181 Q 1 168 8 157 Q 0 145 28 143 Q 31 141 37 141 Q 50 143 63 141 Q 75 140 80 139 Q 56 92 60 50 V 50 Q 60 48 60 46 Q 60 36 68 35 Q 77 31 82 40 Q 104 82 120 133 Q 133 131 144 126 H 145 Q 158 123 164 134 Q 167 144 159 151 Q 147 160 129 170 Q 138 204 142 247 Q 146 301 137 359 L 132 386 L 124 414 Q 122 423 119 428 L 114 442 L 103 469 Q 95 487 77 494 Q 58 502 40 494 Q 22 487 14 469 Q 7 450 14 432 Q 16 428 18 425 L 20 422 L 33 402 L 38 393 Q 41 388 44 382 L 54 361 L 62 340 Q 65 333 67 325 Q 59 330 51 333 Z" fill="black" />
  </g>
  <g class="defect" id="01">
    <path d="M 80 139 Q 56 92 60 50" fill="none" stroke="red" stroke-width="3" />
  </g>
  <g class="defect" id="02">
    <path d="M 8 157 Q 0 145 28 143" fill="none" stroke="red" stroke-width="3" />
  </g>
  <g class="defect" id="03">
    <path d="M 408 294 Q 425 261 402 241" fill="none" stroke="red" stroke-width="3" />
  </g>
</svg>