<svg xmlns="http://www.w3.org/2000/svg" width="512" height="512" viewBox="0 0 512 512">
  <g class="glyph">
    <path d="M 334 204 Q 319 213 305 218 Q 317 219 333 217 Q 339 216 352 214 Q 349 210 343 204 Q 341 203 339 201 Q 338 202 334 204 Z M 365 13 Q 386 0 403 18 Q 416 41 397 57 Q 390 62 382 62 Q 374 63 367 65 Q 361 67 352 72 Q 349 75 345 79 Q 352 79 359 80 Q 423 82 487 76 Q 502 77 504 91 Q 504 104 492 108 Q 431 122 361 130 Q 332 134 295 136 Q 275 121 227 137 Q 213 137 203 127 Q 193 117 193 102 Q 193 88 203 77 Q 213 67 228 68 H 233 L 234 69 Q 260 73 296 76 Q 309 77 323 78 Q 323 67 328 55 Q 335 39 342 32 Q 349 23 362 14 Z M 199 402 Q 201 394 203 386 Q 207 364 208 353 Q 210 321 210 319 V 319 Q 210 316 210 315 Q 209 314 209 312 Q 207 305 214 302 Q 250 287 286 277 Q 293 261 297 253 Q 294 253 290 252 Q 265 246 246 233 Q 226 219 218 194 Q 210 175 212 149 Q 213 141 222 141 Q 228 142 229 149 Q 231 169 238 185 Q 247 202 262 209 Q 268 212 275 214 Q 300 203 320 185 V 184 L 318 183 Q 291 163 261 151 Q 256 149 258 144 Q 260 139 264 141 Q 299 146 331 162 Q 334 164 337 166 Q 339 165 339 163 Q 350 149 353 141 Q 362 126 378 132 Q 393 140 388 157 Q 387 159 386 160 Q 378 169 365 182 Q 378 191 391 203 Q 398 200 404 197 Q 417 188 422 178 Q 425 172 425 167 Q 426 165 426 162 V 159 L 425 157 Q 423 146 429 136 Q 436 126 448 124 Q 460 122 470 128 Q 479 135 482 147 Q 483 151 483 156 Q 483 161 482 164 Q 482 171 480 178 Q 476 194 469 206 Q 455 228 427 243 Q 419 246 402 250 Q 390 253 380 254 Q 362 256 355 256 V 263 Q 384 260 411 265 Q 445 271 467 291 Q 491 311 501 347 Q 507 367 510 403 Q 512 427 511 455 V 455 Q 511 474 497 488 Q 483 501 464 501 Q 445 500 431 486 Q 418 472 418 454 Q 418 449 420 443 Q 433 389 432 361 Q 430 341 424 333 Q 419 322 398 315 Q 372 305 330 305 Q 324 316 321 321 Q 308 346 304 365 Q 302 373 304 379 Q 305 383 315 385 Q 331 388 361 381 Q 361 381 359 377 Q 359 375 355 367 Q 353 363 348 358 L 346 356 Q 342 352 347 347 Q 349 345 352 345 Q 360 346 368 349 Q 375 351 384 356 Q 398 365 409 381 L 413 387 Q 425 411 404 427 Q 381 439 364 418 Q 362 413 361 408 Q 334 417 312 417 Q 309 417 303 416 Q 299 416 293 414 Q 283 410 275 401 Q 263 387 263 362 Q 263 340 274 309 Q 257 311 228 317 Q 232 328 240 349 Q 246 368 249 384 Q 257 427 255 461 L 254 464 Q 253 479 241 489 Q 229 499 214 498 Q 198 497 188 485 Q 178 473 179 458 Q 179 451 184 443 Q 190 432 198 407 Q 195 412 190 415 Q 157 433 118 446 Q 100 452 80 457 Q 62 462 41 464 L 40 465 Q 26 467 15 458 Q 4 450 2 436 Q 0 421 8 411 Q 17 400 31 398 H 38 Q 47 398 69 398 Q 67 394 67 389 Q 67 384 67 382 Q 73 344 79 278 Q 64 281 49 282 H 48 Q 35 283 24 274 Q 13 264 12 250 Q 11 236 21 226 Q 30 215 44 214 Q 48 214 55 215 Q 66 218 81 220 H 83 Q 88 165 88 122 L 89 121 Q 86 121 80 122 Q 64 124 46 124 L 45 125 Q 31 125 21 115 Q 11 105 11 91 Q 11 76 21 66 Q 31 57 45 57 Q 51 57 54 58 Q 73 62 82 63 Q 96 66 110 67 Q 138 70 169 69 Q 176 69 182 74 Q 187 79 187 86 Q 187 98 175 103 Q 151 110 119 116 Q 120 119 120 120 Q 128 166 134 222 Q 144 222 166 220 H 166 Q 182 220 184 234 Q 185 246 175 250 Q 158 258 138 265 Q 144 334 146 386 Q 146 389 145 390 Q 161 387 176 383 H 176 Q 193 380 198 395 Q 179 416 199 402 Z" fill="black" />
  </g>
  <g class="defect" id="01">
    <path d="M 295 136 Q 275 121 227 137" fill="none" stroke="red" stroke-width="3" />
  </g>
  <g class="defect" id="02">
    <path d="M 198 395 Q 179 416 199 402" fill="none" stroke="red" stroke-width="3" />
  </g>
</svg>