<svg xmlns="http://www.w3.org/2000/svg" width="512" height="512" viewBox="0 0 512 512">
  <g class="glyph">
    <path d="M 476 377 Q 497 386 504 408 Q 512 429 502 449 Q 493 469 472 477 Q 450 485 430 475 Q 424 472 420 469 Q 401 454 381 439 Q 354 415 346 405 L 345 404 Q 338 412 330 419 L 312 437 Q 302 445 271 469 Q 256 481 236 479 Q 216 476 204 461 Q 192 446 194 426 Q 182 387 212 394 Q 214 392 219 390 L 222 388 Q 253 378 260 368 L 278 356 Q 293 345 296 344 L 299 341 Q 295 334 290 327 Q 269 287 257 239 Q 246 193 247 147 Q 248 142 252 138 Q 257 133 262 133 Q 273 135 275 145 L 276 146 Q 283 184 302 223 Q 321 260 347 289 Q 349 291 351 293 Q 354 289 358 285 Q 386 249 402 210 Q 409 194 416 168 Q 421 146 423 125 V 123 Q 423 120 424 118 Q 418 121 410 123 Q 382 132 344 135 Q 299 135 269 117 Q 267 116 251 103 Q 240 91 237 85 Q 230 76 226 65 Q 223 54 223 53 Q 222 48 222 47 Q 221 43 220 39 Q 221 23 233 11 Q 245 0 260 0 Q 276 0 287 11 Q 298 22 298 39 V 40 Q 298 42 298 43 Q 298 48 299 51 Q 300 52 302 57 Q 305 61 307 64 Q 318 76 347 82 Q 375 86 403 83 Q 417 83 461 75 L 462 75 Q 475 74 478 86 Q 480 97 470 101 Q 455 107 441 113 Q 447 116 447 122 Q 454 168 443 222 Q 434 270 408 318 Q 385 323 398 335 Q 402 338 405 339 Q 413 346 437 359 Q 455 367 472 375 Z M 0 238 Q 0 210 2 195 Q 3 181 4 174 L 6 163 Q 7 156 8 152 L 10 145 Q 15 127 31 118 Q 47 109 66 114 Q 79 116 91 127 Q 113 122 133 120 Q 164 119 186 127 Q 212 136 226 161 Q 237 180 240 203 Q 242 217 242 245 Q 242 283 238 304 Q 233 330 221 347 Q 206 369 178 379 Q 159 385 128 386 Q 100 388 76 379 Q 48 369 30 347 Q 14 328 7 302 Q 2 281 0 238 Z M 68 276 Q 73 310 88 327 Q 94 335 105 340 Q 104 338 104 333 Q 104 328 104 327 Q 110 301 114 273 Q 105 274 100 274 Q 99 274 68 276 Z M 174 338 Q 191 326 201 302 Q 210 281 212 255 Q 184 263 160 267 Q 163 305 162 333 Q 162 340 160 345 Q 170 342 174 338 Z M 188 168 Q 173 155 146 156 Q 147 158 147 159 Q 151 183 157 234 Q 182 235 212 233 Q 212 231 210 213 Q 203 182 188 168 Z M 125 159 Q 99 167 84 190 Q 74 206 69 225 Q 85 228 100 230 Q 107 231 119 232 Q 123 196 124 161 Z" fill="black" />
  </g>
  <g class="defect" id="01">
    <path d="M 222 388 Q 253 378 260 368" fill="none" stroke="red" stroke-width="3" />
  </g>
  <g class="defect" id="02">
    <path d="M 408 318 Q 385 323 398 335" fill="none" stroke="red" stroke-width="3" />
  </g>
  <g class="defect" id="03">
    <path d="M 194 426 Q 182 387 212 394" fill="none" stroke="red" stroke-width="3" />
  </g>
</svg>