<svg xmlns="http://www.w3.org/2000/svg" width="512" height="512" viewBox="0 0 512 512">
  <g class="glyph">
    <path d="M 99 101 Q 122 101 140 113 Q 142 114 144 116 Q 155 107 163 97 Q 172 87 180 68 Q 182 65 186 52 L 191 36 Q 197 18 215 9 Q 232 0 250 6 Q 268 11 277 28 Q 286 45 280 64 Q 277 75 269 83 L 268 83 L 252 99 Q 240 109 234 114 Q 209 132 195 139 Q 190 141 184 143 Q 221 138 245 135 Q 282 132 302 132 H 307 Q 351 132 385 142 Q 424 155 449 187 Q 462 205 471 224 Q 480 246 483 265 Q 492 310 481 353 Q 471 394 441 429 Q 378 498 309 505 Q 287 509 273 509 Q 258 511 240 511 L 230 512 Q 197 512 165 505 Q 120 495 85 469 Q 54 436 18 376 Q 0 324 4 259 Q 6 235 11 206 Q 14 190 17 181 Q 18 177 20 168 Q 22 166 22 164 Q 24 160 26 155 Q 52 104 99 101 Z M 398 392 Q 442 356 447 298 Q 371 314 287 321 Q 246 325 202 327 Q 162 329 122 329 Q 131 366 169 392 Q 199 414 240 423 Q 282 432 322 426 Q 365 419 398 392 Z M 313 181 Q 219 178 163 221 Q 143 237 133 256 Q 132 257 132 258 Q 155 261 204 266 Q 258 270 286 271 Q 373 275 446 269 Q 441 244 427 225 Q 405 194 350 185 Q 331 182 313 181 Z" fill="black" />
  </g>
  <g class="defect" id="01">
    <path d="M 441 429 Q 378 498 309 505" fill="none" stroke="red" stroke-width="3" />
  </g>
  <g class="defect" id="02">
    <path d="M 85 469 Q 54 436 18 376" fill="none" stroke="red" stroke-width="3" />
  </g>
</svg>