<svg xmlns="http://www.w3.org/2000/svg" width="512" height="512" viewBox="0 0 512 512">
  <g class="glyph">
    <path d="M 494 7 Q 510 7 512 22 Q 512 36 499 39 Q 409 57 272 67 Q 251 68 229 69 Q 228 102 219 140 Q 202 161 206 182 Q 209 182 213 182 Q 229 182 245 190 Q 256 197 266 210 L 267 211 L 271 210 Q 305 207 320 206 Q 347 203 363 203 Q 396 203 425 211 Q 454 220 475 242 Q 483 252 491 267 Q 497 281 500 295 Q 507 326 498 354 Q 489 383 467 406 Q 428 443 366 454 Q 352 458 339 458 Q 322 459 313 459 H 310 Q 283 459 257 454 Q 221 445 196 429 Q 162 406 147 366 Q 134 333 136 294 Q 115 316 82 341 Q 43 365 13 332 Q 0 315 3 295 Q 6 274 23 262 Q 27 258 33 256 L 35 256 Q 72 240 91 226 Q 94 224 117 206 Q 130 195 141 182 Q 165 156 180 126 Q 195 100 204 70 Q 174 72 158 72 Q 82 75 43 75 Q 29 75 18 64 Q 7 53 7 37 Q 7 22 18 11 Q 29 0 44 0 H 48 Q 84 4 159 9 Q 234 12 271 13 Q 403 16 494 7 Z M 351 247 Q 307 250 277 274 Q 247 298 250 328 Q 251 357 280 377 Q 308 396 349 396 H 360 Q 421 391 450 356 Q 453 352 454 349 L 456 347 Q 457 345 458 343 Q 442 341 460 338 L 461 336 Q 466 324 465 313 Q 465 277 437 260 Q 429 256 422 253 Q 399 245 370 245 Q 364 245 351 247 Z" fill="black" />
  </g>
  <g class="defect" id="01">
    <path d="M 458 343 Q 442 341 460 338" fill="none" stroke="red" stroke-width="3" />
  </g>
  <g class="defect" id="02">
    <path d="M 219 140 Q 202 161 206 182" fill="none" stroke="red" stroke-width="3" />
  </g>
</svg>