<svg xmlns="http://www.w3.org/2000/svg" width="512" height="512" viewBox="0 0 512 512">
  <g class="glyph">
    <path d="M 506 57 Q 512 81 488 92 Q 484 93 480 94 H 480 Q 456 94 424 91 Q 427 95 430 96 Q 438 101 449 101 Q 460 101 468 109 Q 476 117 476 128 Q 477 139 469 147 Q 462 156 450 156 Q 439 156 431 149 L 425 144 Q 410 131 404 112 Q 402 101 402 95 V 89 Q 390 86 383 85 Q 379 85 376 83 Q 375 88 373 91 Q 362 114 346 128 Q 339 134 327 142 Q 351 145 364 149 Q 379 153 385 156 Q 390 159 396 161 Q 397 162 401 165 L 404 167 Q 406 168 408 170 Q 413 176 417 183 Q 421 190 423 196 Q 426 214 420 227 Q 415 240 403 250 Q 395 257 383 262 Q 365 270 344 274 Q 326 277 293 280 Q 294 291 296 302 Q 299 302 306 300 Q 314 299 336 296 L 352 292 Q 356 291 361 291 Q 367 290 372 290 Q 395 289 415 297 Q 440 307 454 327 Q 471 348 473 373 Q 475 399 463 423 Q 451 446 433 461 Q 417 474 394 482 L 392 483 Q 376 488 362 482 Q 347 476 340 459 Q 334 444 341 429 Q 348 413 364 407 Q 367 407 369 406 Q 389 401 397 389 Q 406 377 400 365 Q 393 351 372 350 H 359 L 344 351 Q 327 352 311 353 Q 305 353 300 353 L 302 379 Q 305 426 306 450 V 451 Q 306 469 293 483 Q 280 497 261 498 Q 242 499 228 485 Q 214 472 213 453 Q 213 447 214 445 Q 220 406 223 378 L 224 365 Q 207 387 189 404 Q 164 429 140 444 Q 119 460 85 476 Q 69 483 53 478 Q 36 472 29 457 Q 22 441 27 424 Q 33 408 49 401 Q 54 398 60 397 H 61 Q 95 391 112 386 Q 135 379 161 366 Q 176 359 189 350 Q 185 350 179 348 Q 157 345 145 341 Q 125 336 112 325 Q 103 319 97 310 Q 91 299 91 287 Q 91 278 95 267 Q 100 257 106 250 Q 107 243 113 238 Q 102 245 126 234 Q 185 240 236 241 Q 237 230 239 205 Q 190 214 152 224 H 151 Q 136 228 122 220 Q 108 211 103 195 Q 99 179 108 165 Q 116 151 132 147 Q 135 147 137 146 Q 156 144 174 142 Q 159 128 155 112 Q 152 103 152 95 V 89 Q 143 87 134 85 Q 130 85 126 83 Q 125 87 123 91 Q 114 113 96 128 Q 91 133 77 142 Q 67 147 57 152 Q 43 159 28 154 Q 13 148 7 134 Q 0 120 5 106 Q 10 91 24 84 Q 30 81 36 80 H 38 Q 44 80 50 79 Q 59 78 61 77 Q 74 73 81 65 Q 91 55 95 43 Q 100 31 101 14 V 12 Q 102 7 106 4 Q 109 0 114 0 Q 123 1 126 9 Q 132 27 132 48 V 54 H 136 Q 146 54 165 51 Q 193 47 221 38 Q 246 32 256 57 Q 262 81 238 92 Q 234 93 230 94 H 230 Q 207 94 174 91 Q 176 94 180 96 Q 188 101 199 101 Q 210 101 218 109 Q 227 117 227 128 Q 227 134 225 139 Q 236 139 259 139 Q 258 138 257 134 Q 250 120 255 106 Q 260 91 274 84 Q 280 81 286 80 H 288 Q 294 80 300 79 Q 309 78 311 77 Q 322 73 331 65 Q 341 54 345 43 Q 350 31 351 14 V 12 Q 351 7 355 4 Q 359 0 364 0 Q 373 1 376 9 Q 382 27 382 48 V 54 H 386 Q 397 54 415 51 Q 443 47 470 38 Q 481 35 492 40 Q 502 46 506 57 Z M 154 308 Q 172 311 183 311 Q 204 311 229 310 Q 216 295 232 280 Q 188 278 122 271 H 121 Q 116 281 118 286 Q 119 294 129 300 Q 137 305 154 308 Z M 368 199 Q 364 198 355 197 Q 329 194 289 198 H 286 Q 287 212 289 239 Q 321 237 336 233 Q 352 230 365 224 Q 397 218 380 212 V 207 Q 379 205 378 202 H 377 L 375 201 Q 371 200 368 199 Z" fill="black" />
  </g>
  <g class="defect" id="01">
    <path d="M 113 238 Q 102 245 126 234" fill="none" stroke="red" stroke-width="3" />
  </g>
  <g class="defect" id="02">
    <path d="M 229 310 Q 216 295 232 280" fill="none" stroke="red" stroke-width="3" />
  </g>
  <g class="defect" id="03">
    <path d="M 365 224 Q 397 218 380 212" fill="none" stroke="red" stroke-width="3" />
  </g>
</svg>