<svg xmlns="http://www.w3.org/2000/svg" width="512" height="512" viewBox="0 0 512 512">
  <g class="glyph">
    <path d="M 264 384 Q 314 386 350 378 Q 371 375 390 367 Q 387 361 387 357 Q 387 343 382 332 Q 381 330 375 320 Q 374 319 373 317 Q 370 319 352 329 Q 345 333 329 341 Q 313 348 296 342 Q 279 336 272 320 Q 264 304 270 287 Q 276 270 292 263 Q 301 259 307 259 H 307 L 327 257 Q 335 256 346 254 Q 369 248 384 242 Q 403 234 419 222 Q 436 210 447 194 L 448 192 Q 455 185 463 190 Q 469 194 467 201 Q 466 208 461 221 Q 475 225 487 234 Q 501 246 507 261 Q 511 275 511 292 Q 512 348 466 395 Q 433 430 373 455 Q 331 471 271 482 Q 251 485 234 473 Q 217 461 214 442 Q 210 422 222 405 Q 234 389 254 385 Q 257 384 264 384 Z M 447 247 Q 436 264 414 286 Q 405 295 390 305 Q 398 308 404 313 Q 419 324 430 340 L 432 343 L 433 344 Q 463 320 469 289 Q 471 280 470 272 Q 470 266 464 258 Q 460 251 448 245 Z M 265 178 Q 299 176 338 162 Q 349 158 361 152 Q 357 147 356 141 Q 354 129 348 117 Q 345 113 340 107 Q 334 112 327 116 Q 312 125 295 130 Q 278 134 261 134 Q 252 132 252 123 Q 252 117 257 114 L 260 113 Q 270 108 279 99 Q 287 92 293 81 Q 299 70 302 60 Q 303 54 304 48 L 305 37 Q 307 21 320 11 Q 332 0 349 1 Q 377 6 384 34 Q 392 34 400 36 Q 430 40 448 54 Q 462 64 468 81 Q 473 97 469 115 Q 447 136 445 164 Q 437 173 429 183 Q 425 189 409 201 Q 395 211 367 227 Q 317 252 274 260 L 273 260 Q 257 263 242 253 Q 228 243 226 226 Q 223 210 233 195 Q 242 181 259 178 Q 262 178 265 178 Z M 422 83 Q 414 73 392 64 Q 388 63 379 60 Q 378 63 378 63 L 377 64 Q 357 52 366 80 Q 360 87 357 90 Q 361 93 366 95 Q 383 103 396 118 L 399 120 Q 401 122 402 125 Q 415 113 422 101 Q 424 98 425 92 Q 425 87 422 83 Z M 148 103 Q 142 105 136 107 Q 139 124 144 158 Q 184 159 215 155 H 216 Q 231 154 234 169 Q 236 183 223 187 Q 189 201 151 208 V 210 Q 154 216 157 221 Q 152 235 177 245 Q 187 255 200 263 Q 209 268 226 273 Q 240 278 246 292 Q 252 305 248 319 Q 243 334 230 340 Q 217 346 202 342 Q 195 339 190 334 L 189 334 Q 170 316 161 303 Q 160 302 159 301 Q 164 366 163 435 Q 161 454 148 467 Q 134 479 115 479 Q 96 478 83 464 Q 70 451 71 432 Q 71 429 72 423 Q 81 384 90 325 Q 81 336 70 346 L 68 348 Q 42 367 19 345 Q 0 320 22 296 Q 27 291 37 288 Q 49 286 57 279 Q 67 274 77 263 Q 91 245 102 220 V 216 Q 99 217 96 217 Q 73 220 51 221 L 51 222 Q 36 222 25 212 Q 14 202 13 187 Q 12 172 22 161 Q 33 150 48 149 Q 53 149 56 149 Q 72 153 95 155 Q 98 155 106 155 Q 107 134 108 113 Q 89 116 80 116 Q 61 116 47 113 Q 39 111 39 104 Q 40 98 46 96 H 46 Q 57 93 74 87 Q 90 79 99 73 Q 112 65 120 57 Q 128 49 136 37 Q 155 13 183 27 Q 208 47 193 75 Q 189 81 183 84 L 182 86 Q 163 98 148 103 Z" fill="black" />
  </g>
  <g class="defect" id="01">
    <path d="M 469 115 Q 447 136 445 164" fill="none" stroke="red" stroke-width="3" />
  </g>
  <g class="defect" id="02">
    <path d="M 377 64 Q 357 52 366 80" fill="none" stroke="red" stroke-width="3" />
  </g>
  <g class="defect" id="03">
    <path d="M 157 221 Q 152 235 177 245" fill="none" stroke="red" stroke-width="3" />
  </g>
</svg>