<svg xmlns="http://www.w3.org/2000/svg" width="512" height="512" viewBox="0 0 512 512">
  <g class="glyph">
    <path d="M 207 281 Q 208 282 209 283 Q 219 284 230 284 Q 234 250 238 216 Q 249 198 233 216 Q 214 217 178 217 Q 181 219 181 222 Q 185 230 184 237 Q 184 243 184 249 Q 184 253 187 260 Q 190 266 195 271 Q 200 277 205 281 Z M 152 59 155 60 Q 161 63 178 68 Q 187 70 206 73 Q 226 76 236 76 L 237 77 Q 240 64 242 50 Q 245 34 247 15 V 14 Q 250 2 263 2 Q 272 3 275 11 Q 285 46 285 49 Q 289 63 292 77 Q 321 77 350 73 Q 360 72 370 70 Q 379 68 387 67 Q 394 65 401 64 H 405 L 406 62 Q 409 59 411 55 Q 415 48 419 39 Q 421 33 424 21 Q 425 17 425 12 V 11 Q 425 6 431 5 Q 434 5 435 8 Q 439 12 441 16 Q 448 27 451 38 Q 457 52 457 62 Q 458 70 458 74 L 459 79 Q 460 92 451 100 Q 443 109 431 110 Q 408 109 400 89 Q 397 90 393 91 Q 387 94 377 96 Q 369 99 355 102 Q 337 108 299 114 Q 301 129 306 160 V 161 Q 307 168 306 174 Q 334 174 369 170 Q 382 169 414 164 Q 425 161 426 161 H 428 L 429 159 Q 435 148 437 142 Q 441 132 442 122 Q 443 118 444 113 V 112 Q 445 109 446 108 Q 447 108 450 106 Q 452 106 454 108 Q 459 114 461 118 Q 467 127 472 140 Q 476 150 478 166 Q 479 174 479 178 V 184 Q 480 197 472 207 Q 463 216 450 217 Q 437 218 428 209 Q 418 201 417 189 Q 401 194 374 199 Q 328 209 269 214 L 269 215 Q 274 250 279 285 H 290 Q 299 275 306 262 Q 316 244 317 231 Q 318 221 326 213 Q 334 205 345 206 Q 357 208 364 215 Q 372 225 370 234 Q 370 241 365 249 L 362 252 Q 349 270 326 283 Q 323 285 321 286 Q 396 286 456 281 H 456 Q 468 281 470 293 Q 470 305 460 307 Q 387 322 285 330 Q 286 330 290 333 Q 317 345 323 347 Q 342 354 361 359 Q 367 360 381 363 Q 391 365 400 366 Q 419 369 434 370 Q 444 371 458 371 H 467 L 469 372 Q 487 372 500 385 Q 512 398 511 417 Q 511 435 498 447 Q 485 460 466 459 Q 459 459 452 456 Q 447 454 442 453 Q 423 446 416 442 Q 394 433 380 426 Q 374 422 361 415 Q 348 407 341 403 Q 313 383 306 376 Q 297 370 289 362 Q 290 367 290 372 Q 290 381 290 390 V 401 Q 291 405 291 410 Q 291 414 292 419 Q 293 436 282 450 Q 271 463 253 464 Q 235 466 221 454 Q 208 443 206 425 Q 206 418 207 414 V 414 Q 208 410 209 405 Q 211 397 211 394 Q 212 389 214 380 Q 216 374 217 367 Q 219 361 220 354 Q 209 364 203 369 Q 189 382 169 397 Q 153 408 133 421 Q 117 431 100 440 Q 97 442 76 453 Q 72 455 67 457 Q 35 481 33 460 Q 16 454 8 438 Q 0 422 6 404 Q 11 387 28 379 Q 33 376 39 375 H 40 Q 45 375 49 373 Q 61 371 73 369 Q 80 367 106 361 Q 125 356 143 348 Q 149 347 171 338 Q 164 338 160 338 Q 93 341 59 341 Q 46 342 35 332 Q 25 322 25 308 Q 24 294 34 284 Q 44 274 58 274 H 62 Q 111 277 161 281 H 162 Q 153 274 148 268 Q 162 262 136 249 L 134 247 Q 127 229 140 215 Q 129 214 118 213 Q 104 210 99 209 L 90 205 Q 86 203 82 202 Q 73 197 66 193 Q 61 189 53 182 Q 42 171 35 160 Q 29 147 27 142 Q 25 137 25 133 Q 23 121 31 111 Q 39 100 51 99 Q 64 97 74 104 Q 84 111 86 124 V 125 Q 86 127 88 131 Q 90 135 95 141 Q 98 144 100 146 Q 103 149 107 151 Q 110 153 112 155 L 114 155 L 115 156 H 115 L 117 156 Q 121 158 129 161 Q 147 165 160 167 Q 184 171 216 172 Q 215 162 218 155 Q 226 122 227 120 Q 219 121 202 121 Q 180 120 169 118 Q 150 116 137 111 L 133 110 H 131 L 130 109 H 130 L 128 109 Q 125 108 122 106 Q 115 103 106 98 Q 81 81 70 59 Q 65 48 64 44 Q 62 39 62 36 Q 60 24 68 14 Q 76 4 88 1 Q 116 0 123 27 V 27 Q 125 40 139 51 Q 143 54 145 55 Q 147 56 150 58 L 152 59 Z" fill="black" />
  </g>
  <g class="defect" id="01">
    <path d="M 238 216 Q 249 198 233 216" fill="none" stroke="red" stroke-width="3" />
  </g>
  <g class="defect" id="02">
    <path d="M 67 457 Q 35 481 33 460" fill="none" stroke="red" stroke-width="3" />
  </g>
  <g class="defect" id="03">
    <path d="M 148 268 Q 162 262 136 249" fill="none" stroke="red" stroke-width="3" />
  </g>
</svg>