<svg xmlns="http://www.w3.org/2000/svg" width="512" height="512" viewBox="0 0 512 512">
  <g class="glyph">
    <path d="M 489 388 Q 496 387 502 392 Q 507 397 507 404 Q 508 418 494 422 Q 432 437 371 444 Q 340 448 309 449 Q 266 451 244 450 Q 229 449 220 439 Q 210 429 211 414 Q 211 398 222 389 Q 232 379 247 379 Q 250 380 252 380 H 253 Q 269 383 310 388 Q 339 391 369 392 Q 429 394 488 388 Z M 332 343 331 340 Q 323 319 326 299 Q 326 293 330 280 Q 333 269 337 263 Q 339 258 345 261 Q 348 262 348 266 V 267 Q 349 277 350 281 Q 351 288 354 295 Q 377 307 370 316 Q 386 332 374 350 Q 359 366 339 353 Q 334 349 332 343 Z M 309 320 Q 334 334 324 362 Q 319 374 307 379 Q 295 383 283 378 Q 276 375 269 367 L 267 363 Q 251 341 247 313 Q 245 299 246 288 Q 247 273 249 265 Q 251 258 258 259 Q 263 260 264 264 L 265 265 Q 268 277 272 284 Q 276 292 282 299 Q 292 312 309 320 Z M 440 367 Q 421 386 398 371 Q 380 352 396 329 Q 400 324 407 321 Q 414 318 422 311 Q 426 307 435 294 Q 440 286 445 273 Q 450 264 454 250 V 250 Q 456 243 463 245 Q 467 246 469 251 Q 470 265 470 278 Q 470 294 468 306 Q 463 341 444 364 Z M 471 93 Q 487 93 499 105 Q 511 116 512 134 Q 512 151 500 162 Q 489 174 472 174 Q 465 174 456 171 Q 434 162 432 161 Q 416 153 409 148 Q 390 135 373 112 Q 358 92 351 70 Q 346 89 339 101 Q 349 111 327 123 Q 314 140 310 144 Q 299 156 278 170 H 281 Q 305 174 324 176 Q 353 178 368 179 Q 398 179 413 178 Q 435 178 458 175 L 458 174 Q 465 174 470 178 Q 476 182 476 189 Q 477 202 465 207 Q 440 215 419 220 Q 396 226 372 231 Q 341 235 325 237 Q 292 240 276 241 Q 261 241 250 231 Q 240 221 239 206 Q 239 193 247 184 Q 228 186 213 172 V 174 Q 216 225 213 295 Q 212 345 204 415 Q 203 433 189 444 Q 175 456 157 454 Q 140 452 128 438 Q 116 425 118 407 Q 119 403 119 401 Q 116 354 145 288 Q 145 286 145 284 Q 136 286 132 287 Q 122 289 111 290 Q 104 291 93 292 Q 92 303 92 313 Q 90 352 81 405 Q 78 422 65 431 Q 52 441 35 438 Q 19 435 10 422 Q 0 408 3 392 Q 3 390 4 386 L 5 385 Q 20 342 28 304 Q 38 258 43 218 Q 49 175 52 131 Q 54 87 53 43 Q 53 38 56 35 Q 59 32 63 32 Q 69 32 72 38 Q 82 30 92 24 Q 110 16 125 14 Q 145 13 161 24 Q 174 32 186 51 Q 198 75 206 114 V 114 Q 211 106 220 101 Q 228 96 237 94 Q 258 92 268 87 Q 272 86 283 81 Q 295 74 298 71 Q 310 60 322 44 Q 334 27 341 9 L 341 8 Q 344 0 352 3 Q 356 5 357 10 V 31 Q 365 46 375 57 Q 387 71 403 81 Q 419 90 436 92 Q 436 92 452 94 Q 460 94 469 93 Z M 76 56 76 56 Q 82 95 86 130 Q 86 136 87 140 Q 90 140 94 140 Q 103 142 113 143 Q 122 144 131 144 Q 142 145 163 145 V 118 Q 162 85 155 67 Q 145 42 125 40 Q 104 38 76 56 Z M 129 248 Q 137 248 152 248 Q 159 202 160 176 Q 148 181 134 183 Q 124 185 113 186 Q 105 188 91 189 Q 92 205 93 221 Q 93 232 93 244 Q 98 245 110 246 Q 120 248 129 248 Z" fill="black" />
  </g>
  <g class="defect" id="01">
    <path d="M 119 401 Q 116 354 145 288" fill="none" stroke="red" stroke-width="3" />
  </g>
  <g class="defect" id="02">
    <path d="M 339 101 Q 349 111 327 123" fill="none" stroke="red" stroke-width="3" />
  </g>
  <g class="defect" id="03">
    <path d="M 354 295 Q 377 307 370 316" fill="none" stroke="red" stroke-width="3" />
  </g>
</svg>