<svg xmlns="http://www.w3.org/2000/svg" width="512" height="512" viewBox="0 0 512 512">
  <g class="glyph">
    <path d="M 274 305 Q 260 306 249 297 Q 238 287 237 272 Q 236 258 245 247 Q 254 236 269 235 Q 274 235 277 236 Q 295 238 313 240 Q 314 226 318 203 Q 291 206 278 206 Q 264 208 253 198 Q 242 189 241 174 Q 240 160 250 149 Q 260 137 274 137 Q 278 137 282 137 Q 291 139 320 143 Q 325 144 330 144 Q 350 111 345 87 H 343 Q 329 88 303 88 Q 290 88 263 86 Q 256 84 256 77 Q 256 72 263 70 Q 301 63 335 51 Q 374 35 394 17 Q 416 0 437 18 Q 454 41 436 61 Q 431 64 428 66 L 427 66 Q 400 79 372 84 Q 368 111 365 147 Q 410 151 438 149 H 439 Q 454 149 455 164 Q 455 176 444 180 Q 409 190 362 198 Q 361 221 362 245 H 363 Q 414 249 450 246 Q 465 246 467 261 Q 467 273 456 277 Q 418 288 366 295 Q 369 317 374 332 Q 381 357 393 369 Q 402 380 415 381 Q 431 381 449 373 H 449 Q 466 366 482 374 Q 499 381 505 397 Q 512 414 505 431 Q 517 448 481 454 Q 478 455 474 456 Q 431 465 400 458 Q 385 454 380 451 L 370 446 Q 368 445 362 440 Q 353 434 346 425 Q 343 423 334 409 Q 318 383 313 346 Q 310 327 310 302 Q 285 304 274 305 Z M 195 378 Q 179 363 169 351 Q 167 347 166 346 Q 168 392 166 427 V 427 Q 166 444 154 456 Q 141 467 125 467 Q 108 466 96 454 Q 85 442 85 425 Q 86 422 86 420 Q 88 403 94 362 Q 91 367 90 370 Q 82 384 73 394 L 72 397 Q 50 420 23 403 Q 0 381 17 354 Q 23 347 32 343 Q 42 340 48 335 Q 55 331 64 323 Q 74 314 78 308 Q 82 304 90 290 L 91 289 Q 91 288 92 286 Q 69 289 55 289 Q 42 290 32 281 Q 23 272 22 259 Q 21 246 30 236 Q 39 227 53 226 H 58 Q 82 230 97 230 Q 99 231 104 231 V 227 Q 105 220 106 211 H 105 Q 84 214 72 214 H 71 Q 58 214 49 204 Q 39 195 39 182 Q 39 169 48 159 Q 58 150 70 150 Q 76 150 79 150 Q 87 153 106 156 H 109 Q 109 145 110 134 Q 107 134 101 135 Q 76 137 65 138 H 64 Q 51 138 41 130 Q 32 121 31 108 Q 30 95 39 85 Q 48 75 61 75 Q 66 75 68 75 Q 85 78 101 79 Q 107 80 112 81 Q 113 56 115 31 Q 116 18 129 17 Q 141 18 143 30 Q 147 64 148 83 Q 178 85 202 84 Q 217 85 218 100 Q 218 112 206 116 Q 184 122 152 127 Q 153 144 155 161 Q 173 162 192 161 H 192 Q 198 161 203 165 Q 208 169 209 176 Q 209 188 198 192 Q 179 198 158 203 Q 159 215 159 227 Q 160 229 160 234 Q 196 234 214 233 Q 221 233 226 237 Q 231 241 232 248 Q 232 261 219 264 Q 189 272 163 276 Q 172 287 182 295 Q 174 321 205 311 Q 214 317 229 322 Q 257 335 249 365 Q 244 378 232 384 Q 220 390 206 385 Q 199 382 196 378 Z" fill="black" />
  </g>
  <g class="defect" id="01">
    <path d="M 330 144 Q 350 111 345 87" fill="none" stroke="red" stroke-width="3" />
  </g>
  <g class="defect" id="02">
    <path d="M 182 295 Q 174 321 205 311" fill="none" stroke="red" stroke-width="3" />
  </g>
  <g class="defect" id="03">
    <path d="M 505 431 Q 517 448 481 454" fill="none" stroke="red" stroke-width="3" />
  </g>
</svg>