<svg xmlns="http://www.w3.org/2000/svg" width="512" height="512" viewBox="0 0 512 512">
  <g class="glyph">
    <path d="M 382 388 Q 385 388 389 389 Q 394 367 392 346 V 340 Q 390 341 388 341 Q 335 355 263 361 Q 221 364 200 365 Q 183 367 136 367 H 134 Q 135 373 136 378 Q 138 385 138 388 H 142 Q 162 390 203 392 Q 222 394 263 395 Q 303 395 323 394 Q 363 392 382 388 Z M 389 321 Q 388 318 387 315 Q 386 313 385 311 L 384 309 L 382 308 Q 367 293 341 288 Q 298 277 231 284 Q 172 290 120 304 Q 121 309 123 314 Q 129 311 135 311 H 139 V 311 Q 169 315 200 318 Q 222 320 262 322 Q 336 325 385 320 H 385 Q 388 320 389 321 Z M 409 88 Q 410 87 410 84 Q 397 86 370 88 Q 353 90 335 91 Q 334 96 332 98 Q 331 100 331 104 Q 331 106 333 111 Q 353 112 374 113 H 390 Q 394 111 399 106 Q 409 97 409 88 Z M 62 142 Q 70 121 70 101 Q 72 79 69 58 V 57 Q 68 49 76 47 Q 82 46 85 52 Q 90 61 96 82 H 102 Q 135 87 168 85 Q 184 84 196 80 Q 201 78 203 75 Q 204 74 205 73 Q 205 72 205 68 Q 205 64 202 59 Q 198 55 192 52 Q 181 48 162 47 Q 130 46 94 53 H 93 Q 88 54 87 48 Q 85 44 91 41 Q 129 29 161 27 Q 184 26 200 30 Q 212 34 220 41 Q 230 50 232 63 Q 233 67 233 75 Q 232 84 230 90 Q 224 99 212 108 Q 199 115 173 122 Q 141 129 103 129 Q 104 135 104 147 Q 126 139 126 139 Q 135 139 142 143 Q 148 147 150 149 Q 156 148 167 147 Q 176 147 185 147 Q 198 147 212 150 Q 226 153 234 162 Q 240 168 242 172 Q 245 180 245 182 Q 249 193 245 205 Q 241 215 231 225 Q 214 239 187 243 Q 181 244 175 244 Q 172 245 165 245 H 164 Q 152 245 142 243 Q 127 240 115 233 Q 100 225 94 209 Q 93 208 93 206 Q 86 225 71 250 Q 53 275 25 261 Q 0 243 14 215 Q 14 215 19 209 L 20 208 Q 38 190 45 178 Q 56 162 62 142 Z M 181 172 Q 166 172 156 179 Q 146 186 147 195 Q 147 202 157 207 Q 167 213 180 213 H 183 Q 204 212 214 201 L 216 198 L 217 197 Q 219 193 219 189 Q 219 180 210 175 Q 208 174 206 174 Q 213 154 187 171 Q 183 171 181 172 Z M 340 210 Q 325 210 296 213 Q 285 214 277 207 Q 269 200 267 189 Q 266 178 273 170 Q 281 162 291 161 H 296 Q 316 163 358 165 L 359 163 Q 360 158 361 152 Q 335 154 323 155 Q 297 156 271 157 Q 261 157 253 150 Q 245 142 245 132 Q 245 121 252 113 Q 260 105 270 105 H 274 Q 281 106 294 108 L 293 106 L 288 93 Q 285 94 278 94 Q 267 94 260 87 Q 252 80 251 69 Q 251 58 258 50 Q 265 43 276 42 H 280 Q 305 45 355 49 Q 358 42 359 41 Q 367 29 385 13 L 386 12 Q 402 0 416 14 Q 428 31 414 45 Q 409 49 404 50 Q 401 50 399 51 Q 440 52 460 52 Q 472 53 473 64 Q 473 76 462 78 Q 457 78 451 79 Q 454 84 454 90 Q 454 97 448 104 L 443 109 Q 442 111 438 114 Q 462 114 474 113 Q 486 114 487 126 Q 487 137 477 138 Q 440 145 388 150 Q 391 159 392 160 Q 392 163 394 166 Q 438 168 461 168 Q 466 168 470 171 Q 474 175 474 180 Q 473 190 463 193 Q 433 198 400 202 Q 400 203 402 223 V 225 Q 402 245 386 255 Q 403 261 413 270 Q 423 276 429 284 Q 433 287 441 300 Q 449 312 456 334 Q 465 363 466 399 Q 468 410 468 431 Q 468 452 467 465 L 466 467 Q 465 487 450 499 Q 435 512 415 510 Q 395 508 383 493 Q 370 478 372 459 Q 372 453 375 446 Q 377 442 382 422 Q 383 417 385 410 Q 365 416 326 424 Q 292 430 264 432 Q 244 434 203 438 Q 173 441 143 442 Q 144 456 143 472 V 473 Q 142 489 131 499 Q 120 509 105 508 Q 90 507 79 496 Q 69 485 69 469 Q 69 465 72 458 Q 84 427 91 379 Q 97 340 99 293 Q 99 285 108 284 Q 112 284 114 287 Q 166 267 227 254 Q 294 240 341 245 Q 335 237 335 228 Q 335 219 340 210 Z" fill="black" />
  </g>
  <g class="defect" id="01">
    <path d="M 206 174 Q 213 154 187 171" fill="none" stroke="red" stroke-width="3" />
  </g>
  <g class="defect" id="02">
    <path d="M 200 365 Q 183 367 136 367" fill="none" stroke="red" stroke-width="3" />
  </g>
  <g class="defect" id="03">
    <path d="M 104 147 Q 126 139 126 139" fill="none" stroke="red" stroke-width="3" />
  </g>
</svg>