<svg xmlns="http://www.w3.org/2000/svg" width="512" height="512" viewBox="0 0 512 512">
  <g class="glyph">
    <path d="M 461 367 Q 477 363 491 371 Q 504 380 508 396 Q 512 413 503 426 Q 494 440 478 444 Q 478 444 475 444 Q 484 461 455 447 Q 441 447 433 445 Q 407 439 392 422 Q 386 416 379 405 Q 373 393 371 387 Q 366 372 363 356 Q 360 329 361 297 Q 345 295 367 242 Q 368 238 368 232 Q 363 239 356 243 L 354 243 Q 340 250 328 253 Q 309 258 301 259 Q 298 259 292 259 Q 294 306 302 333 Q 309 356 318 365 Q 319 366 320 367 Q 321 368 323 369 Q 324 370 326 371 Q 328 371 330 371 H 334 L 343 374 Q 375 378 368 392 Q 377 406 373 420 Q 370 436 356 445 Q 343 454 327 450 Q 313 448 306 445 Q 291 438 287 436 Q 276 427 271 422 Q 266 416 264 415 L 259 407 Q 243 382 239 346 Q 234 306 240 249 Q 233 250 230 250 Q 229 288 226 318 Q 222 361 212 427 Q 209 445 195 456 Q 180 466 163 464 Q 145 461 134 446 Q 123 431 126 413 Q 126 412 127 407 V 406 Q 138 377 148 339 Q 142 342 137 340 Q 130 338 124 331 L 123 328 Q 114 315 112 304 Q 110 296 110 292 Q 110 284 112 280 Q 113 276 117 277 Q 118 277 119 278 L 120 280 Q 123 285 125 287 Q 127 291 131 292 Q 137 297 147 299 Q 153 301 158 306 Q 164 281 168 259 Q 155 261 142 262 Q 114 264 102 265 Q 102 295 99 333 Q 96 371 88 415 Q 85 431 72 441 Q 58 450 41 447 Q 25 444 16 431 Q 6 417 9 400 Q 10 396 11 393 V 393 Q 26 357 36 322 Q 41 301 48 269 Q 40 269 31 269 Q 19 270 10 261 Q 1 253 1 241 Q 0 229 9 220 Q 18 211 29 211 H 33 Q 41 212 58 213 Q 61 187 62 172 Q 66 131 65 95 V 95 Q 65 90 68 87 Q 71 84 75 84 L 76 83 L 78 82 Q 86 75 90 69 Q 92 68 100 54 Q 102 51 108 38 Q 110 32 114 20 Q 117 10 127 5 Q 135 0 146 3 Q 156 5 162 15 Q 167 25 164 35 Q 162 41 159 45 L 158 46 Q 153 51 142 62 Q 139 65 134 70 Q 149 67 165 72 Q 180 77 194 92 Q 211 112 221 148 Q 228 176 229 206 Q 229 210 229 219 Q 237 219 244 218 Q 251 176 262 136 Q 274 84 290 37 Q 294 29 304 31 Q 312 34 311 43 V 43 Q 302 92 297 142 Q 292 184 291 226 Q 297 222 305 213 Q 314 203 318 197 Q 336 175 361 189 Q 370 195 372 206 Q 377 183 388 137 Q 402 79 417 35 Q 420 26 430 29 Q 438 32 437 40 Q 427 100 423 144 Q 419 180 418 208 Q 423 204 434 195 Q 441 187 447 178 Q 466 158 490 172 Q 511 190 497 214 Q 492 221 485 224 L 484 225 Q 465 233 455 236 Q 447 239 427 241 Q 423 242 417 242 V 246 Q 416 272 419 296 Q 422 326 427 342 Q 434 365 442 370 L 443 371 H 444 L 446 370 Q 448 370 450 370 Q 452 369 455 368 Z M 141 218 Q 158 219 175 220 Q 176 214 177 205 Q 180 175 179 155 Q 177 128 167 113 Q 156 96 135 95 Q 113 95 88 108 Q 93 137 97 172 Q 100 193 101 216 Q 115 217 141 218 Z M 145 158 Q 165 154 173 172 Q 177 192 158 200 Q 149 201 142 198 L 137 196 Q 121 188 113 175 Q 109 170 107 162 Q 106 156 106 148 Q 106 145 109 145 Q 112 145 112 146 L 113 147 Q 118 152 120 154 Q 124 156 129 158 Q 136 160 145 158 Z" fill="black" />
  </g>
  <g class="defect" id="01">
    <path d="M 361 297 Q 345 295 367 242" fill="none" stroke="red" stroke-width="3" />
  </g>
  <g class="defect" id="02">
    <path d="M 475 444 Q 484 461 455 447" fill="none" stroke="red" stroke-width="3" />
  </g>
  <g class="defect" id="03">
    <path d="M 343 374 Q 375 378 368 392" fill="none" stroke="red" stroke-width="3" />
  </g>
</svg>