<svg xmlns="http://www.w3.org/2000/svg" width="512" height="512" viewBox="0 0 512 512">
  <g class="glyph">
    <path d="M 281 47 Q 285 56 285 63 Q 285 73 286 78 Q 286 84 291 92 Q 294 97 302 103 Q 309 109 318 112 Q 322 113 321 116 Q 321 118 318 119 Q 309 121 296 121 Q 283 120 273 115 Q 260 109 252 100 Q 244 93 236 80 L 234 77 Q 222 55 242 39 Q 265 28 281 47 Z M 429 93 Q 420 97 413 104 Q 408 109 403 118 Q 432 128 453 155 Q 468 176 478 208 Q 493 253 497 316 Q 500 366 498 421 Q 497 442 482 455 Q 467 469 446 468 Q 426 468 412 453 Q 398 438 399 418 Q 399 414 400 408 V 407 Q 412 363 418 321 Q 397 328 378 332 Q 352 337 339 338 Q 321 341 312 341 Q 313 349 312 357 Q 311 400 304 432 V 433 Q 299 451 284 460 Q 269 469 252 465 Q 235 461 226 445 Q 217 430 221 413 Q 223 406 224 403 Q 237 380 244 348 Q 252 324 257 285 Q 259 272 261 246 Q 241 236 255 250 Q 238 253 232 254 Q 232 276 229 321 Q 226 348 214 432 Q 212 450 197 461 Q 181 471 163 469 Q 145 466 135 451 Q 124 437 127 419 Q 127 416 128 412 L 129 411 Q 139 377 150 344 Q 145 345 138 344 Q 129 342 125 335 L 123 332 Q 115 319 113 308 Q 111 302 111 295 Q 111 289 113 283 Q 114 279 118 281 Q 119 281 120 282 L 120 283 Q 122 287 126 291 Q 128 293 133 296 Q 138 299 148 303 Q 155 305 159 309 Q 163 294 170 262 Q 152 265 144 265 Q 123 267 103 269 Q 103 308 100 337 Q 98 366 89 420 Q 86 437 72 446 Q 58 456 41 453 Q 25 450 15 436 Q 6 422 9 406 Q 10 402 11 399 L 11 397 Q 28 354 35 326 Q 43 303 48 272 Q 43 272 30 273 Q 18 273 9 265 Q 1 256 0 244 Q 0 232 9 223 Q 17 214 29 213 Q 32 213 33 214 Q 50 215 58 216 Q 62 188 63 174 Q 66 129 66 96 V 96 Q 66 86 76 85 L 76 84 L 78 83 Q 84 79 90 71 Q 96 64 101 56 Q 104 50 109 38 Q 113 27 115 21 Q 118 11 128 5 Q 138 0 148 3 Q 158 6 164 16 Q 184 6 165 35 Q 164 41 160 45 L 159 46 Q 149 58 144 63 Q 139 67 135 71 Q 153 69 167 73 Q 184 80 196 93 Q 214 114 223 150 Q 230 176 231 208 Q 231 217 232 221 Q 244 221 251 221 Q 259 221 262 226 L 263 223 V 219 Q 266 190 266 152 Q 266 147 269 144 Q 272 141 276 141 Q 285 141 287 149 Q 292 168 299 206 Q 318 211 331 212 Q 349 214 367 216 Q 394 217 420 216 Q 418 193 412 181 Q 403 162 388 154 Q 373 145 348 147 Q 327 149 304 159 H 304 Q 295 162 291 154 Q 288 148 294 142 Q 308 132 325 125 Q 323 119 322 116 Q 322 108 324 105 Q 329 82 332 60 Q 321 48 338 14 V 13 Q 340 2 350 2 Q 358 4 361 10 Q 370 42 374 58 Q 379 79 383 107 V 115 Q 386 115 392 116 Q 391 104 393 94 Q 394 80 402 67 Q 410 53 422 44 Q 432 35 448 27 L 452 25 Q 465 18 479 23 Q 494 28 500 40 Q 512 71 485 88 Q 475 93 462 92 Q 454 90 445 90 Q 438 90 429 93 Z M 142 221 Q 159 222 177 222 Q 178 215 179 207 Q 182 181 180 158 Q 178 132 169 115 Q 157 97 136 97 Q 114 97 89 109 Q 94 138 99 174 Q 101 205 102 219 Q 122 220 142 221 Z M 373 290 Q 395 290 422 287 Q 423 266 423 244 Q 396 253 370 257 Q 344 260 330 262 Q 319 262 307 263 Q 308 275 309 286 V 286 Q 318 288 337 289 Q 357 291 373 290 Z M 146 159 Q 167 155 174 174 Q 178 194 159 202 Q 151 205 144 201 L 138 198 Q 123 191 114 177 Q 109 169 108 164 Q 106 157 106 151 Q 106 146 110 146 Q 112 146 113 148 L 114 149 Q 119 154 122 156 Q 126 158 130 160 Q 138 162 146 159 Z" fill="black" />
  </g>
  <g class="defect" id="01">
    <path d="M 332 60 Q 321 48 338 14" fill="none" stroke="red" stroke-width="3" />
  </g>
  <g class="defect" id="02">
    <path d="M 261 246 Q 241 236 255 250" fill="none" stroke="red" stroke-width="3" />
  </g>
  <g class="defect" id="03">
    <path d="M 164 16 Q 184 6 165 35" fill="none" stroke="red" stroke-width="3" />
  </g>
</svg>