<svg xmlns="http://www.w3.org/2000/svg" width="512" height="512" viewBox="0 0 512 512">
  <g class="glyph">
    <path d="M 53 159 Q 23 165 8 139 Q 0 124 5 109 Q 9 94 24 86 Q 30 83 39 82 H 40 L 56 81 Q 64 79 72 77 Q 87 74 102 64 Q 116 56 126 41 Q 136 27 141 8 V 7 Q 143 0 150 2 Q 154 2 155 8 Q 156 15 156 19 Q 162 33 171 46 Q 182 59 198 70 Q 212 79 229 83 Q 241 86 261 85 H 261 Q 276 84 287 94 Q 297 104 298 119 Q 299 133 289 144 Q 279 154 264 155 Q 260 155 250 153 Q 248 153 247 151 Q 247 153 247 154 Q 247 165 237 169 Q 202 179 170 184 Q 174 200 175 211 Q 207 212 239 211 Q 252 212 254 225 Q 254 237 243 240 Q 215 247 181 252 Q 183 266 185 281 V 285 Q 202 286 216 290 Q 236 295 250 311 Q 256 318 261 328 Q 266 339 267 347 Q 272 367 266 388 Q 260 407 244 422 Q 219 448 177 455 Q 168 456 159 456 Q 148 458 142 458 H 140 Q 122 458 105 454 Q 81 449 64 437 Q 40 422 30 395 Q 20 372 23 343 Q 24 331 27 319 Q 29 313 30 307 Q 32 305 32 302 L 33 300 Q 34 299 36 296 Q 50 271 77 270 Q 89 270 99 276 Q 107 281 113 289 H 115 Q 118 289 121 288 V 287 Q 120 283 122 277 Q 123 269 125 260 Q 118 261 110 261 Q 95 262 87 263 Q 79 263 63 263 H 63 Q 67 243 40 252 Q 32 243 32 229 Q 33 216 42 207 Q 51 199 65 199 Q 68 200 71 200 Q 75 201 91 204 Q 101 206 111 207 Q 122 208 133 209 Q 134 202 136 189 Q 129 190 124 190 Q 98 192 84 192 Q 71 192 61 182 Q 52 173 53 160 Z M 221 327 Q 219 326 213 323 Q 199 318 179 318 Q 173 319 167 319 Q 140 321 121 335 Q 102 350 103 369 Q 89 399 122 399 Q 140 410 166 410 Q 171 410 172 410 Q 212 407 229 385 Q 230 383 231 381 L 233 380 Q 220 359 234 377 Q 235 376 236 375 V 373 Q 238 366 238 359 Q 238 338 221 327 Z M 135 95 Q 120 117 102 131 L 101 132 Q 113 134 126 136 Q 138 137 161 140 Q 196 142 220 140 Q 212 136 205 132 Q 186 119 170 97 Q 158 79 151 60 Q 146 79 135 95 Z M 511 268 Q 510 281 500 290 Q 490 300 476 299 Q 463 299 454 289 Q 444 279 445 265 Q 445 262 446 259 Q 448 250 448 241 Q 448 236 444 231 Q 435 221 409 219 Q 417 236 421 244 Q 434 275 438 303 Q 445 340 437 372 Q 427 411 397 441 L 392 446 Q 376 462 355 462 Q 333 462 317 446 Q 302 431 302 409 Q 302 387 317 371 Q 324 365 335 359 Q 350 354 359 342 Q 370 328 375 304 Q 379 283 378 255 Q 377 238 373 218 Q 362 219 344 221 Q 316 225 286 233 H 285 Q 276 234 272 225 Q 271 217 278 213 Q 306 200 337 190 Q 375 178 400 175 Q 410 174 419 174 Q 397 165 380 154 Q 368 146 356 136 Q 343 125 335 116 Q 329 110 335 104 Q 339 101 344 102 L 345 103 Q 362 109 369 111 Q 383 115 395 116 H 396 Q 396 115 397 113 Q 398 110 399 109 Q 401 106 406 101 Q 420 87 433 65 Q 439 57 433 53 Q 431 51 428 51 Q 419 51 403 54 Q 397 54 382 57 Q 363 60 341 67 Q 339 67 337 68 Q 317 75 297 72 Q 276 67 271 44 Q 269 22 286 9 Q 299 1 327 1 Q 354 0 382 0 Q 409 0 435 8 Q 449 12 459 18 Q 471 26 475 39 Q 480 59 463 82 Q 451 99 427 117 Q 437 116 442 115 Q 456 112 468 120 Q 479 127 482 141 Q 486 169 460 179 Q 469 182 475 186 Q 497 200 506 224 Q 512 243 511 268 Z" fill="black" />
  </g>
  <g class="defect" id="01">
    <path d="M 103 369 Q 89 399 122 399" fill="none" stroke="red" stroke-width="3" />
  </g>
  <g class="defect" id="02">
    <path d="M 63 263 Q 67 243 40 252" fill="none" stroke="red" stroke-width="3" />
  </g>
  <g class="defect" id="03">
    <path d="M 233 380 Q 220 359 234 377" fill="none" stroke="red" stroke-width="3" />
  </g>
</svg>