<svg xmlns="http://www.w3.org/2000/svg" width="512" height="512" viewBox="0 0 512 512">
  <g class="glyph">
    <path d="M 250 397 Q 237 398 229 389 Q 221 381 220 369 Q 220 358 229 349 Q 237 340 249 340 Q 252 340 254 340 Q 266 342 296 346 Q 312 348 340 350 Q 392 354 427 354 Q 432 353 436 357 Q 440 361 440 366 Q 440 376 430 379 Q 388 387 340 392 Q 311 394 295 395 Q 279 396 250 397 Z M 369 166 Q 364 166 352 167 Q 349 173 346 178 Q 326 203 323 205 Q 320 209 312 216 Q 337 208 358 205 Q 370 203 387 203 Q 395 203 404 204 Q 401 203 399 200 Q 382 185 374 173 Q 372 170 369 166 Z M 392 295 H 392 Q 388 285 390 276 Q 390 275 392 268 Q 394 264 395 259 Q 396 259 397 258 Q 397 258 395 256 Q 393 253 381 250 Q 369 247 360 247 Q 332 245 296 251 L 298 252 Q 304 257 300 263 V 264 Q 292 277 289 289 Q 288 295 288 300 L 288 302 L 289 303 Q 292 306 305 306 Q 313 305 332 303 Q 381 295 392 295 Z M 241 173 Q 222 173 214 155 Q 215 165 216 185 Q 217 200 218 214 Q 220 200 233 191 Q 235 190 237 189 L 242 187 Q 279 199 266 178 Q 272 175 278 172 Q 253 173 241 173 Z M 131 260 Q 139 260 154 260 Q 160 229 164 187 Q 151 191 137 194 Q 123 196 115 197 Q 107 199 93 200 H 93 Q 94 216 94 232 Q 95 240 95 256 Q 100 257 112 258 Q 122 260 131 260 Z M 78 64 78 65 H 77 Q 84 104 88 140 Q 88 145 88 150 Q 92 150 95 150 Q 107 152 114 153 Q 124 154 134 154 Q 144 155 166 155 Q 166 141 166 128 Q 164 94 158 75 Q 148 51 127 49 Q 106 47 78 64 Z M 284 253 Q 275 253 265 256 Q 257 257 253 251 Q 232 253 222 236 Q 219 232 218 226 Q 219 253 217 308 Q 215 370 209 430 Q 207 448 192 460 Q 178 471 160 470 Q 143 468 131 454 Q 119 440 121 421 Q 121 419 122 415 Q 138 348 147 300 Q 148 299 148 296 Q 140 299 134 299 Q 124 302 113 303 Q 106 304 94 305 Q 94 316 94 326 Q 91 367 82 420 Q 80 437 66 446 Q 52 456 36 453 Q 19 450 10 437 Q 0 424 3 407 Q 4 404 5 401 V 399 Q 19 358 29 317 Q 41 259 44 230 Q 50 180 52 141 Q 55 97 54 51 Q 54 47 57 44 Q 60 41 64 41 Q 71 41 74 46 Q 87 37 94 32 Q 111 24 127 22 Q 147 21 164 32 Q 177 40 189 60 Q 201 82 209 123 Q 211 133 212 141 Q 216 118 240 115 H 244 Q 263 118 305 120 Q 318 121 331 122 Q 333 118 336 111 Q 323 113 318 113 Q 282 114 263 113 Q 251 113 243 104 Q 234 95 235 83 Q 236 71 244 63 Q 253 55 265 55 H 269 V 56 Q 280 57 284 58 Q 281 54 278 48 L 275 43 Q 266 22 286 9 Q 308 0 320 19 Q 324 28 322 37 Q 320 49 323 58 Q 325 62 326 64 Q 339 65 352 67 Q 358 42 357 20 V 19 Q 357 15 360 13 Q 362 10 365 10 Q 372 10 374 17 Q 379 44 379 68 Q 394 69 408 70 V 69 Q 411 65 414 58 Q 418 47 415 37 Q 412 14 434 6 Q 444 4 453 10 Q 462 16 464 26 Q 467 34 463 43 L 460 48 Q 454 60 443 70 Q 464 70 474 69 H 475 Q 486 70 488 81 Q 503 91 478 94 Q 432 103 375 109 Q 391 116 371 123 Q 432 124 492 121 Q 505 122 506 134 Q 506 146 495 148 Q 465 154 411 160 Q 418 164 421 165 Q 433 170 450 173 Q 458 174 465 176 L 480 177 H 480 Q 494 178 503 189 Q 512 200 511 214 Q 509 229 498 237 Q 487 246 473 245 Q 468 245 461 241 L 447 234 Q 448 236 451 243 Q 457 260 454 284 L 453 286 Q 452 293 446 302 Q 454 304 463 310 Q 500 337 499 383 Q 498 405 485 425 Q 474 441 454 454 Q 425 470 383 474 Q 355 477 317 473 Q 301 471 292 459 Q 282 447 284 432 Q 285 416 298 406 Q 310 396 325 398 Q 328 398 329 398 Q 359 405 381 406 Q 408 407 425 400 Q 442 392 444 379 Q 447 361 434 349 Q 423 338 392 336 Q 381 336 335 339 Q 321 340 303 339 Q 295 338 285 335 Q 272 331 266 322 Q 260 314 260 309 Q 259 304 260 297 Q 261 289 266 279 Q 272 266 284 253 Z" fill="black" />
  </g>
  <g class="defect" id="01">
    <path d="M 488 81 Q 503 91 478 94" fill="none" stroke="red" stroke-width="3" />
  </g>
  <g class="defect" id="02">
    <path d="M 242 187 Q 279 199 266 178" fill="none" stroke="red" stroke-width="3" />
  </g>
  <g class="defect" id="03">
    <path d="M 375 109 Q 391 116 371 123" fill="none" stroke="red" stroke-width="3" />
  </g>
</svg>