<svg xmlns="http://www.w3.org/2000/svg" width="512" height="512" viewBox="0 0 512 512">
  <g class="glyph">
    <path d="M 492 270 Q 405 287 287 294 Q 290 313 293 325 Q 381 327 441 322 H 441 Q 448 321 453 325 Q 457 329 457 335 Q 457 348 446 351 Q 376 365 302 372 Q 309 404 314 446 V 446 Q 316 466 304 481 Q 292 497 272 499 Q 253 501 237 489 Q 222 476 220 457 Q 220 449 221 440 Q 230 405 235 377 Q 200 380 181 380 Q 121 383 91 383 Q 77 383 66 373 Q 56 362 55 347 Q 55 332 66 322 Q 76 311 91 311 H 96 Q 121 315 181 319 Q 213 321 244 323 Q 246 310 248 297 Q 189 299 157 300 Q 95 302 45 301 Q 29 301 19 291 Q 9 280 10 265 Q 10 250 20 240 Q 31 229 45 229 Q 47 230 49 230 Q 102 235 158 239 H 162 L 161 238 Q 153 227 148 215 L 146 211 V 210 Q 138 210 129 210 Q 115 210 104 200 Q 93 190 93 175 Q 112 149 103 150 Q 113 139 128 139 H 133 L 134 139 Q 176 144 201 146 Q 221 148 240 149 Q 242 145 242 142 Q 246 131 252 122 Q 259 113 267 105 L 269 103 Q 289 88 307 104 Q 323 124 306 142 Q 299 148 291 149 Q 285 150 280 151 Q 350 154 405 149 H 405 Q 412 148 416 152 Q 421 156 421 162 Q 421 174 410 178 Q 383 184 370 186 Q 372 192 372 193 Q 374 201 370 211 L 369 215 Q 361 231 356 238 Q 333 232 348 247 Q 429 247 487 242 H 488 Q 501 241 504 254 Q 504 267 492 270 Z M 204 233 Q 205 238 209 242 Q 248 245 269 245 Q 287 246 305 246 Q 310 240 313 233 Q 315 223 315 219 Q 315 213 313 205 Q 313 202 313 196 Q 292 199 270 201 Q 237 205 203 207 Q 201 213 201 219 Q 201 226 204 233 Z M 512 44 Q 512 57 499 61 Q 446 71 386 78 Q 389 88 391 99 V 99 Q 394 113 385 125 Q 377 137 362 140 Q 348 143 336 134 Q 324 126 321 112 Q 319 104 323 95 Q 323 91 326 84 Q 297 86 269 88 Q 242 90 215 91 Q 215 94 216 99 V 99 Q 220 113 211 125 Q 203 137 189 140 Q 174 143 162 134 Q 150 126 147 112 Q 146 102 148 95 V 94 Q 75 96 37 96 Q 22 96 11 85 Q 0 74 0 59 Q 0 44 11 32 Q 22 21 37 21 H 41 Q 75 25 154 30 Q 161 30 165 31 Q 167 18 168 13 V 13 Q 172 0 185 1 Q 193 3 196 11 Q 199 20 202 32 Q 235 34 267 35 Q 303 36 338 36 V 34 Q 340 27 342 13 V 13 Q 345 0 359 1 Q 367 3 370 11 Q 373 22 376 32 L 376 35 Q 440 34 494 29 H 494 Q 509 28 512 44 Z" fill="black" />
  </g>
  <g class="defect" id="01">
    <path d="M 93 175 Q 112 149 103 150" fill="none" stroke="red" stroke-width="3" />
  </g>
  <g class="defect" id="02">
    <path d="M 356 238 Q 333 232 348 247" fill="none" stroke="red" stroke-width="3" />
  </g>
</svg>