<svg xmlns="http://www.w3.org/2000/svg" width="512" height="512" viewBox="0 0 512 512">
  <g class="glyph">
    <path d="M 207 491 Q 191 491 180 480 Q 169 468 169 453 Q 170 438 181 427 Q 193 416 207 416 Q 210 416 213 416 H 213 Q 242 421 281 424 Q 296 426 326 427 Q 337 414 346 398 Q 356 381 364 359 Q 370 345 375 320 Q 378 304 377 282 Q 376 266 388 253 Q 399 240 416 239 Q 433 239 445 250 Q 457 262 458 278 Q 459 284 457 291 Q 449 319 437 342 Q 424 367 408 386 Q 394 403 373 421 Q 367 426 363 429 Q 427 431 491 427 H 492 Q 499 427 504 431 Q 509 436 510 443 Q 509 457 496 460 Q 429 475 353 483 Q 316 487 280 489 Q 232 491 207 491 Z M 270 379 Q 266 369 267 360 Q 267 343 266 339 Q 266 329 261 317 Q 258 306 252 294 Q 245 281 240 273 L 239 272 Q 235 264 242 258 Q 246 256 251 258 Q 265 266 276 273 Q 286 280 299 292 Q 310 302 319 315 Q 311 327 336 344 L 337 346 Q 344 361 339 375 Q 334 389 319 396 Q 288 408 270 379 Z M 144 246 Q 138 251 131 253 Q 129 254 126 256 Q 131 277 132 287 Q 139 324 141 338 Q 148 385 155 440 V 441 Q 156 460 144 475 Q 132 491 113 493 Q 94 495 78 483 Q 63 470 61 451 Q 60 443 62 435 Q 70 402 83 337 Q 88 313 92 288 Q 93 281 95 266 Q 65 268 71 267 Q 44 264 26 246 Q 1 218 12 182 Q 18 162 36 144 Q 51 129 67 126 Q 98 121 115 145 Q 128 170 107 191 Q 101 196 95 199 Q 93 200 89 201 Q 79 205 77 209 Q 75 215 82 219 Q 87 221 94 221 Q 132 223 161 200 Q 167 195 170 195 Q 178 196 180 204 Q 180 211 173 220 Q 162 235 144 246 Z M 37 96 Q 22 96 11 85 Q 0 74 0 59 Q 0 44 11 32 Q 22 21 37 21 H 41 Q 78 25 155 30 Q 161 30 165 31 Q 166 25 169 13 V 13 Q 172 0 185 1 Q 194 3 196 11 Q 199 22 202 32 Q 235 34 268 35 Q 303 36 338 36 L 338 34 Q 341 24 343 13 V 13 Q 343 7 348 3 Q 353 0 359 1 Q 368 3 370 11 Q 373 20 376 32 L 376 35 Q 439 34 494 29 Q 510 28 512 44 Q 512 57 499 61 Q 446 71 386 78 Q 406 86 391 99 L 391 99 Q 392 105 391 110 Q 412 109 421 128 Q 431 155 407 170 Q 399 174 389 172 Q 378 171 372 172 Q 363 172 354 177 Q 348 180 342 186 Q 346 186 353 186 Q 411 190 470 186 Q 478 186 483 191 Q 487 195 488 202 Q 487 216 475 220 Q 411 234 354 240 Q 314 245 294 246 Q 251 249 231 250 Q 216 250 205 239 Q 194 227 193 212 Q 193 197 204 186 Q 215 175 231 174 Q 234 175 237 175 Q 264 179 294 182 Q 307 183 319 185 V 180 Q 323 167 330 154 Q 335 146 342 138 Q 325 131 321 112 Q 320 102 323 95 Q 324 90 326 84 Q 297 86 269 88 Q 242 90 215 91 Q 216 95 217 99 V 99 Q 220 113 211 126 Q 202 138 188 140 Q 174 143 162 135 Q 150 126 148 112 Q 147 105 148 95 L 149 94 Q 74 96 37 96 Z" fill="black" />
  </g>
  <g class="defect" id="01">
    <path d="M 319 315 Q 311 327 336 344" fill="none" stroke="red" stroke-width="3" />
  </g>
  <g class="defect" id="02">
    <path d="M 95 266 Q 65 268 71 267" fill="none" stroke="red" stroke-width="3" />
  </g>
  <g class="defect" id="03">
    <path d="M 386 78 Q 406 86 391 99" fill="none" stroke="red" stroke-width="3" />
  </g>
</svg>