<svg xmlns="http://www.w3.org/2000/svg" width="512" height="512" viewBox="0 0 512 512">
  <g class="glyph">
    <path d="M 31 366 Q 16 364 8 353 Q 0 343 2 328 Q 3 321 6 316 Q 15 299 18 291 Q 24 274 27 263 Q 31 249 32 234 Q 35 213 35 203 V 202 Q 35 198 37 196 Q 39 194 43 194 Q 45 194 49 196 Q 79 178 108 171 Q 109 153 110 135 V 134 Q 113 120 127 120 Q 140 121 142 133 Q 143 142 146 164 H 157 Q 181 165 200 176 Q 210 183 219 191 Q 228 200 234 210 Q 245 228 250 254 Q 253 268 255 299 Q 255 298 257 296 Q 271 270 300 268 Q 312 268 324 275 Q 330 279 336 287 Q 334 281 332 275 Q 331 269 333 261 Q 339 229 342 208 Q 346 180 349 152 V 151 Q 352 139 365 140 Q 373 141 376 149 Q 380 165 386 187 L 388 187 Q 405 183 414 181 Q 434 175 440 173 Q 453 169 465 165 Q 511 158 505 184 Q 512 211 486 223 Q 482 225 477 225 H 477 Q 463 225 448 226 H 419 Q 407 225 395 224 Q 399 242 403 264 V 264 Q 405 275 400 284 H 405 Q 430 284 450 290 Q 471 296 486 313 Q 493 322 497 332 Q 501 339 504 352 Q 509 374 502 396 Q 497 416 480 433 Q 453 460 408 469 Q 399 471 389 471 Q 377 472 370 472 H 369 Q 347 472 331 468 Q 306 463 287 450 Q 262 433 251 404 Q 245 386 244 363 Q 231 376 213 377 Q 196 377 182 364 Q 169 351 168 334 Q 168 327 170 321 Q 180 284 184 259 Q 187 228 173 215 Q 167 207 151 203 Q 173 240 160 278 Q 168 366 170 425 Q 171 443 159 457 Q 146 470 128 471 Q 109 471 95 459 Q 82 446 81 428 Q 81 422 82 419 Q 93 351 99 278 Q 99 275 106 201 Q 83 203 56 212 H 55 Q 46 218 61 231 Q 66 247 68 265 Q 70 287 70 299 Q 71 314 68 336 V 337 Q 66 351 56 359 Q 45 368 31 366 Z M 346 338 Q 326 355 327 375 Q 329 396 348 409 Q 368 423 396 423 H 403 Q 444 420 465 395 Q 467 393 468 390 L 469 389 Q 470 388 471 385 Q 471 383 472 383 L 473 382 Q 476 372 476 365 Q 476 341 456 329 Q 453 326 447 324 Q 433 318 410 318 Q 402 318 397 319 Q 367 321 346 338 Z M 506 41 Q 506 55 493 58 Q 450 66 386 74 Q 388 85 390 95 V 95 Q 393 109 385 120 Q 377 132 363 134 Q 349 137 337 129 Q 326 121 324 107 Q 322 100 324 91 Q 326 84 328 80 Q 301 82 273 85 Q 248 86 222 87 Q 222 90 223 95 V 95 Q 226 109 218 120 Q 210 132 196 134 Q 183 137 171 129 Q 160 121 157 107 Q 155 99 158 91 V 90 Q 105 92 52 92 Q 37 92 26 81 Q 16 70 16 56 Q 16 41 26 31 Q 37 20 52 21 H 55 Q 124 26 163 28 Q 167 29 174 29 Q 176 19 177 12 V 12 Q 181 0 193 1 Q 200 2 203 10 Q 205 14 209 31 Q 231 32 272 33 Q 294 33 339 33 V 32 Q 341 27 343 12 V 12 Q 346 0 359 1 Q 367 2 370 10 Q 373 21 376 31 L 376 33 Q 439 32 489 27 H 489 Q 503 28 506 41 Z" fill="black" />
  </g>
  <g class="defect" id="01">
    <path d="M 151 203 Q 173 240 160 278" fill="none" stroke="red" stroke-width="3" />
  </g>
  <g class="defect" id="02">
    <path d="M 465 165 Q 511 158 505 184" fill="none" stroke="red" stroke-width="3" />
  </g>
  <g class="defect" id="03">
    <path d="M 55 212 Q 46 218 61 231" fill="none" stroke="red" stroke-width="3" />
  </g>
</svg>