<svg xmlns="http://www.w3.org/2000/svg" width="512" height="512" viewBox="0 0 512 512">
  <g class="glyph">
    <path d="M 404 52 Q 398 58 392 64 Q 399 65 405 66 Q 427 71 442 82 Q 457 94 467 115 Q 479 140 486 183 Q 492 224 493 275 L 494 274 H 494 Q 509 275 512 289 Q 512 303 499 307 Q 496 308 493 309 V 313 Q 493 367 489 441 Q 488 461 474 474 Q 459 486 440 485 Q 421 485 408 470 Q 396 455 396 436 Q 397 433 397 430 Q 408 376 417 322 Q 409 323 394 325 Q 389 341 378 363 Q 365 387 346 409 Q 326 432 303 448 Q 285 462 252 477 Q 237 484 221 478 Q 205 472 198 457 Q 190 442 196 425 Q 202 409 218 402 Q 225 399 230 399 L 230 399 Q 254 397 273 390 Q 291 385 314 372 Q 335 361 351 344 Q 357 339 366 328 Q 338 331 310 333 Q 267 335 246 336 Q 232 337 222 327 Q 211 317 211 302 Q 210 288 219 278 Q 228 268 241 267 Q 242 266 242 264 Q 247 247 250 227 Q 254 207 255 186 Q 260 149 261 102 Q 263 90 274 88 Q 289 83 298 78 Q 313 69 324 61 Q 334 53 343 42 Q 350 34 356 21 Q 360 10 371 5 Q 382 0 393 4 Q 404 9 409 20 Q 414 32 410 42 Q 408 47 405 51 Z M 372 276 Q 406 277 423 277 Q 427 251 428 224 Q 400 235 379 239 Q 357 243 347 245 Q 333 248 315 249 Q 316 257 316 273 Q 343 275 372 276 Z M 430 187 Q 430 179 429 164 Q 403 172 376 178 Q 359 181 344 183 Q 328 186 312 187 H 307 Q 308 190 309 193 H 314 Q 323 195 344 196 Q 354 198 375 198 Q 394 198 430 195 Q 430 191 430 187 Z M 424 134 Q 417 112 394 104 Q 374 97 341 101 Q 314 106 293 113 Q 295 123 297 133 Q 304 131 309 130 Q 312 131 315 131 Q 322 132 343 135 Q 353 136 372 137 Q 396 138 424 136 Z M 63 65 Q 58 65 57 62 Q 56 60 58 57 Q 58 56 61 55 L 61 54 Q 90 35 127 45 Q 137 48 144 54 Q 152 63 151 73 Q 151 84 144 92 Q 135 101 125 101 Q 113 103 105 94 Q 102 91 98 85 Q 92 76 87 73 Q 80 69 63 65 Z M 149 233 Q 138 234 129 233 H 128 Q 136 239 137 240 Q 144 245 151 247 Q 162 251 167 251 Q 171 252 181 252 Q 193 251 203 260 Q 212 269 212 281 Q 212 293 204 302 Q 196 311 183 311 Q 174 311 168 307 L 165 306 Q 151 298 145 292 Q 140 288 131 278 Q 132 290 134 315 Q 140 370 144 439 Q 144 457 132 470 Q 121 484 102 485 Q 84 486 70 474 Q 57 462 56 443 Q 55 439 57 432 Q 68 378 79 313 Q 81 303 82 292 Q 77 297 69 303 L 69 304 Q 42 323 18 300 Q 0 273 23 250 Q 27 246 30 245 Q 78 221 106 171 Q 109 165 111 159 L 113 153 Q 113 151 113 147 Q 114 138 108 134 Q 103 130 85 129 Q 72 129 57 132 H 57 Q 48 133 46 125 Q 44 116 51 113 Q 51 87 84 105 Q 106 103 122 109 Q 134 114 140 124 Q 146 134 147 146 Q 148 162 144 184 Q 141 195 135 210 Q 137 209 139 208 Q 149 199 153 186 Q 158 176 167 172 Q 176 167 187 171 Q 208 181 202 204 Q 198 213 192 217 L 188 220 Q 169 232 149 233 Z" fill="black" />
  </g>
  <g class="defect" id="01">
    <path d="M 51 113 Q 51 87 84 105" fill="none" stroke="red" stroke-width="3" />
  </g>
</svg>