<svg xmlns="http://www.w3.org/2000/svg" width="512" height="512" viewBox="0 0 512 512">
  <g class="glyph">
    <path d="M 479 357 Q 498 365 505 384 Q 512 403 504 422 Q 496 441 476 449 Q 456 456 438 448 Q 433 446 427 441 Q 390 412 372 386 Q 349 357 335 318 Q 333 315 331 306 Q 329 313 319 338 L 306 364 Q 298 378 290 390 L 282 403 L 272 414 L 253 438 Q 240 454 220 456 Q 200 458 183 445 Q 167 432 165 411 Q 163 390 176 375 Q 179 371 182 369 L 186 365 L 203 351 L 211 344 L 219 335 Q 215 310 234 318 L 248 299 Q 278 252 290 213 Q 306 165 312 116 Q 319 65 315 15 V 14 Q 315 2 327 0 Q 338 0 341 10 Q 354 61 357 118 Q 358 152 355 192 Q 358 216 366 238 Q 376 267 392 291 Q 409 314 431 330 Q 445 342 477 356 Z M 35 35 Q 35 30 41 28 Q 50 26 54 25 Q 66 22 82 24 Q 99 26 113 33 Q 118 35 122 38 Q 107 21 126 40 L 131 43 Q 158 62 143 91 Q 125 116 96 103 Q 84 95 80 82 L 79 81 Q 79 78 78 75 Q 74 66 68 59 Q 63 54 56 49 Q 47 45 37 40 Q 35 38 35 35 Z M 56 207 Q 25 209 10 180 Q 0 154 16 130 Q 23 122 32 118 Q 39 114 53 112 Q 68 112 88 119 Q 127 136 141 166 Q 155 198 140 240 Q 127 275 107 307 Q 84 347 81 378 Q 81 382 83 384 Q 84 386 87 386 Q 100 388 115 384 Q 133 377 136 377 Q 141 376 146 379 Q 152 382 153 387 Q 156 395 149 401 Q 147 403 146 404 Q 143 406 136 410 Q 111 422 95 425 Q 70 428 54 413 Q 37 397 38 361 Q 31 319 59 279 Q 70 248 75 229 Q 79 213 72 208 Q 64 204 56 207 Z" fill="black" />
  </g>
  <g class="defect" id="01">
    <path d="M 38 361 Q 31 319 59 279" fill="none" stroke="red" stroke-width="3" />
  </g>
  <g class="defect" id="02">
    <path d="M 219 335 Q 215 310 234 318" fill="none" stroke="red" stroke-width="3" />
  </g>
  <g class="defect" id="03">
    <path d="M 122 38 Q 107 21 126 40" fill="none" stroke="red" stroke-width="3" />
  </g>
</svg>