<svg xmlns="http://www.w3.org/2000/svg" width="512" height="512" viewBox="0 0 512 512">
  <g class="glyph">
    <path d="M 131 54 Q 157 73 143 102 Q 125 128 96 114 Q 84 108 80 94 L 79 92 Q 79 90 78 87 Q 75 78 68 71 Q 60 63 56 60 Q 47 56 37 51 Q 35 50 35 47 Q 35 41 41 39 Q 48 37 53 36 Q 70 34 83 35 Q 96 36 113 44 Q 118 47 122 49 Q 106 50 126 51 Z M 10 192 Q 0 165 16 142 Q 23 133 31 129 Q 42 124 53 124 Q 68 124 88 131 Q 128 147 140 177 Q 155 209 140 252 Q 150 292 106 318 Q 84 360 81 389 Q 80 393 82 396 Q 84 397 87 398 Q 102 400 115 395 Q 134 388 136 388 Q 142 388 147 390 Q 152 393 153 398 Q 155 407 149 413 Q 148 415 146 416 Q 143 418 136 422 Q 108 434 95 436 Q 70 439 54 425 Q 36 409 38 373 Q 40 342 60 289 Q 73 247 75 240 Q 79 225 72 219 Q 64 216 55 218 Q 24 220 10 192 Z M 462 453 H 462 Q 399 466 342 464 Q 306 463 280 456 Q 243 447 217 428 Q 186 406 175 371 Q 165 342 168 307 Q 171 275 179 250 Q 185 231 197 201 Q 191 195 192 185 Q 193 177 200 171 Q 207 165 215 166 H 216 Q 289 170 347 160 Q 382 154 403 143 Q 416 136 420 129 Q 422 128 423 123 Q 424 122 424 115 Q 424 104 421 97 Q 418 91 410 87 Q 396 77 361 75 Q 308 73 238 91 L 237 92 Q 222 96 207 87 Q 192 78 188 63 Q 183 47 192 32 Q 201 17 217 13 L 219 13 Q 255 6 292 3 Q 335 0 367 4 Q 389 5 407 11 Q 430 17 448 30 Q 471 46 482 71 Q 490 94 487 121 Q 472 135 481 146 Q 476 157 467 168 Q 452 185 428 195 Q 397 209 354 213 Q 292 218 219 210 Q 207 268 212 306 Q 215 332 226 348 Q 236 365 253 372 Q 283 386 337 376 Q 378 369 430 348 Q 452 339 473 347 Q 494 356 503 377 Q 512 398 503 420 Q 494 442 473 450 Q 468 453 462 453 Z" fill="black" />
  </g>
  <g class="defect" id="01">
    <path d="M 487 121 Q 472 135 481 146" fill="none" stroke="red" stroke-width="3" />
  </g>
  <g class="defect" id="02">
    <path d="M 140 252 Q 150 292 106 318" fill="none" stroke="red" stroke-width="3" />
  </g>
  <g class="defect" id="03">
    <path d="M 122 49 Q 106 50 126 51" fill="none" stroke="red" stroke-width="3" />
  </g>
</svg>