<svg xmlns="http://www.w3.org/2000/svg" width="512" height="512" viewBox="0 0 512 512">
  <g class="glyph">
    <path d="M 476 362 Q 494 368 503 385 Q 512 403 506 422 Q 499 441 482 450 Q 465 459 446 452 Q 436 449 426 440 L 422 435 Q 391 402 374 349 Q 367 325 364 307 Q 360 283 359 264 Q 359 256 368 254 Q 374 254 377 259 V 260 Q 399 276 398 293 Q 412 311 422 324 Q 440 341 449 348 Q 465 359 476 362 Z M 179 441 Q 164 428 163 407 Q 161 386 175 371 Q 184 361 197 357 Q 214 351 221 346 Q 234 337 245 325 Q 255 313 266 298 Q 276 281 282 267 L 282 266 Q 287 258 295 261 Q 300 263 301 269 Q 303 287 302 310 Q 300 332 296 350 Q 291 371 281 392 Q 272 410 254 432 L 249 437 Q 236 452 216 453 Q 195 455 179 441 Z M 456 191 Q 423 223 368 233 Q 361 234 344 235 Q 330 236 322 236 H 319 Q 296 236 273 231 Q 243 225 220 211 Q 191 191 176 157 Q 164 127 167 91 Q 170 72 173 61 Q 175 54 176 47 Q 178 43 179 39 Q 179 39 181 36 Q 182 34 184 32 Q 201 1 236 0 Q 250 0 264 8 Q 275 14 282 23 L 283 25 L 285 24 Q 300 22 328 20 Q 346 19 365 18 Q 395 18 419 25 Q 444 32 463 51 Q 472 62 477 73 Q 483 89 485 96 Q 492 123 483 148 Q 476 172 456 191 Z M 353 179 Q 358 179 362 179 Q 414 175 438 147 Q 440 145 442 141 L 443 139 Q 444 138 445 136 Q 446 134 447 132 L 447 131 Q 451 121 451 112 Q 451 84 427 69 Q 420 66 416 65 Q 400 58 371 58 Q 360 58 355 59 Q 318 61 293 80 Q 268 100 269 124 Q 271 148 295 164 Q 319 179 353 179 Z M 132 42 Q 157 60 144 90 Q 125 115 96 102 Q 84 96 80 81 L 80 80 Q 61 93 78 74 Q 75 66 68 58 Q 60 51 56 48 Q 47 44 37 39 Q 35 37 35 35 Q 35 29 41 27 Q 48 25 53 24 Q 70 22 83 23 Q 96 24 113 32 Q 118 34 123 36 Q 124 38 126 39 Z M 10 179 Q 0 153 16 130 Q 23 121 31 117 Q 42 112 53 112 Q 68 111 88 118 Q 128 135 141 165 Q 156 197 141 239 Q 133 261 106 306 Q 84 348 81 377 Q 80 381 83 383 Q 84 385 87 386 Q 102 388 115 383 Q 134 376 136 376 Q 142 376 147 378 Q 152 381 153 386 Q 156 395 148 401 Q 147 403 146 404 Q 143 406 136 410 Q 108 422 95 424 Q 54 427 54 413 Q 36 397 38 361 Q 40 330 60 276 Q 74 235 75 228 Q 80 212 72 207 Q 64 203 55 206 Q 25 208 10 179 Z" fill="black" />
  </g>
  <g class="defect" id="01">
    <path d="M 377 260 Q 399 276 398 293" fill="none" stroke="red" stroke-width="3" />
  </g>
  <g class="defect" id="02">
    <path d="M 80 80 Q 61 93 78 74" fill="none" stroke="red" stroke-width="3" />
  </g>
  <g class="defect" id="03">
    <path d="M 95 424 Q 54 427 54 413" fill="none" stroke="red" stroke-width="3" />
  </g>
</svg>