<svg xmlns="http://www.w3.org/2000/svg" width="512" height="512" viewBox="0 0 512 512">
  <g class="glyph">
    <path d="M 510 145 Q 511 155 511 160 Q 512 173 503 184 Q 495 194 481 196 Q 468 197 457 188 Q 447 179 446 166 V 159 Q 448 148 443 142 Q 438 134 420 127 Q 393 117 344 116 Q 307 115 261 120 Q 217 126 194 130 Q 199 136 202 139 Q 221 161 203 185 Q 181 205 157 186 Q 146 176 147 161 L 148 152 Q 149 131 157 116 Q 160 110 167 102 Q 172 95 179 91 Q 183 88 185 92 Q 187 93 187 95 L 186 96 Q 185 103 186 109 Q 221 97 255 89 Q 298 80 315 77 Q 315 74 316 68 Q 319 55 325 44 Q 334 31 343 24 Q 352 17 367 10 L 369 8 Q 393 0 406 22 Q 415 46 393 59 Q 387 62 378 62 Q 370 61 362 61 Q 357 61 346 65 Q 340 68 334 74 Q 338 74 342 73 Q 399 67 435 75 Q 466 82 486 101 Q 489 103 496 113 Q 499 117 505 128 Q 507 137 510 145 Z M 482 285 Q 476 306 458 324 Q 431 351 387 361 Q 391 419 392 448 Q 393 468 380 481 Q 367 495 348 495 Q 330 496 315 483 Q 301 471 301 452 Q 301 445 301 442 Q 306 418 313 367 Q 299 366 292 365 Q 263 360 244 347 Q 216 331 203 300 Q 191 274 194 241 Q 194 233 197 214 Q 199 208 201 202 Q 202 199 203 195 Q 204 193 204 192 Q 205 191 206 188 Q 221 161 251 160 H 253 Q 267 160 277 166 Q 286 170 294 180 H 294 L 295 181 L 297 181 Q 328 176 337 176 Q 339 157 341 137 Q 342 132 345 129 Q 349 125 354 126 Q 364 127 365 136 Q 367 161 369 173 H 378 Q 401 173 422 178 Q 446 185 462 201 Q 468 208 475 220 Q 481 233 483 240 Q 489 262 482 285 Z M 379 203 Q 376 203 372 203 Q 374 217 376 242 Q 417 244 453 241 H 456 Q 451 223 433 213 Q 428 210 421 208 Q 405 203 384 203 Z M 333 209 Q 303 217 287 233 Q 306 236 325 238 Q 327 238 330 238 Q 331 224 333 209 Z M 274 281 Q 283 306 321 316 Q 322 304 324 291 Q 325 283 325 280 L 324 280 Q 294 282 279 282 Q 276 282 274 281 Z M 132 77 Q 157 95 144 125 Q 125 151 96 137 Q 85 131 80 116 L 80 115 Q 79 112 78 109 Q 75 101 68 93 Q 61 86 56 83 Q 47 79 37 74 Q 35 72 35 70 Q 35 64 41 62 Q 48 59 53 59 Q 70 56 83 58 Q 98 60 113 67 Q 118 69 123 71 Q 125 73 127 74 Z M 154 423 Q 156 431 149 437 Q 148 439 146 440 Q 143 442 136 446 Q 108 459 95 460 Q 70 463 55 450 Q 36 433 38 397 Q 40 366 60 312 Q 74 271 76 264 Q 80 248 72 242 Q 64 239 55 241 Q 25 243 10 215 Q 0 188 16 165 Q 23 156 31 152 Q 43 147 53 147 Q 68 146 88 154 Q 128 170 141 200 Q 156 232 141 275 Q 134 297 107 342 Q 85 384 82 413 Q 80 417 83 420 Q 84 421 88 422 Q 103 424 115 419 Q 134 412 136 412 Q 142 412 147 414 Q 133 433 154 423 Z M 457 264 Q 426 271 379 276 Q 380 281 381 292 Q 382 306 384 319 Q 426 313 445 288 Q 448 286 449 283 L 450 282 Q 451 280 452 278 Q 453 276 454 274 L 454 273 Q 457 266 457 264 Z" fill="black" />
  </g>
  <g class="defect" id="01">
    <path d="M 147 414 Q 133 433 154 423" fill="none" stroke="red" stroke-width="3" />
  </g>
</svg>