<svg xmlns="http://www.w3.org/2000/svg" width="512" height="512" viewBox="0 0 512 512">
  <g class="glyph">
    <path d="M 482 409 Q 490 408 496 413 Q 501 418 502 426 Q 502 441 489 445 Q 445 458 378 466 Q 360 468 323 472 Q 286 474 267 475 Q 252 475 241 465 Q 230 455 230 439 Q 229 424 240 413 Q 250 402 265 402 H 271 Q 286 405 323 408 Q 359 411 376 411 Q 432 414 482 409 Z M 438 85 Q 466 93 482 111 Q 498 128 506 156 Q 511 173 511 200 Q 512 217 500 229 Q 489 241 471 242 Q 455 243 443 231 Q 430 219 430 203 Q 430 199 431 194 V 193 Q 434 174 433 170 Q 433 159 430 154 Q 427 147 418 142 Q 409 136 394 135 Q 371 131 333 135 Q 302 140 273 148 Q 274 153 275 157 Q 281 173 291 191 Q 303 219 278 235 Q 252 247 234 223 Q 229 213 230 205 V 203 Q 232 179 237 157 Q 241 144 245 134 Q 232 103 257 113 Q 261 108 267 112 Q 270 115 269 118 V 120 Q 291 108 323 97 H 324 Q 323 88 325 77 Q 328 62 336 49 Q 346 33 357 24 Q 368 15 385 7 L 387 6 Q 400 0 413 4 Q 426 9 432 21 Q 442 49 416 66 Q 407 70 398 69 Q 372 67 380 68 Q 371 69 361 73 Q 354 76 345 86 Q 342 89 340 92 Q 370 83 396 81 Q 420 80 438 85 Z M 205 88 Q 220 125 224 177 Q 228 218 226 264 Q 226 283 213 295 Q 200 307 182 306 Q 164 306 152 293 Q 139 280 140 262 Q 140 259 141 253 V 253 Q 152 208 156 176 Q 161 133 156 104 Q 149 64 125 57 Q 97 48 55 69 H 54 Q 52 70 51 70 Q 59 117 65 166 Q 69 201 70 222 Q 71 259 68 282 V 283 Q 66 296 55 303 Q 45 311 32 309 Q 18 307 11 297 Q 3 286 5 273 Q 6 268 7 266 Q 13 250 18 219 Q 21 202 25 166 Q 31 117 33 59 Q 34 52 41 51 Q 29 52 46 54 Q 64 40 83 32 Q 107 21 130 23 Q 143 24 156 30 Q 170 38 178 46 Q 194 61 205 88 Z M 21 468 Q 6 458 3 440 Q 0 423 11 408 Q 13 405 17 400 Q 38 381 55 346 Q 68 321 80 275 Q 89 238 94 197 Q 100 151 100 117 Q 101 108 109 108 Q 118 107 120 116 Q 128 155 131 198 Q 135 240 133 282 Q 132 315 127 345 Q 135 356 140 361 Q 150 372 164 378 Q 171 383 188 387 Q 207 390 218 406 Q 228 421 225 440 Q 222 459 206 470 Q 190 481 171 478 Q 157 476 147 466 L 143 461 Q 125 445 113 424 Q 110 418 107 413 Q 98 437 83 457 L 82 458 Q 72 473 54 476 Q 36 479 21 468 Z" fill="black" />
  </g>
  <g class="defect" id="01">
    <path d="M 245 134 Q 232 103 257 113" fill="none" stroke="red" stroke-width="3" />
  </g>
  <g class="defect" id="02">
    <path d="M 41 51 Q 29 52 46 54" fill="none" stroke="red" stroke-width="3" />
  </g>
  <g class="defect" id="03">
    <path d="M 398 69 Q 372 67 380 68" fill="none" stroke="red" stroke-width="3" />
  </g>
</svg>