<svg xmlns="http://www.w3.org/2000/svg" width="512" height="512" viewBox="0 0 512 512">
  <g class="glyph">
    <path d="M 481 351 Q 499 360 506 380 Q 512 399 503 418 Q 493 436 474 442 Q 454 448 436 439 Q 430 436 426 432 L 423 429 Q 396 405 382 375 Q 368 348 362 316 Q 354 267 362 205 Q 368 160 385 103 Q 396 63 418 6 Q 421 0 427 2 Q 433 4 432 10 V 11 Q 423 69 420 110 Q 418 123 418 135 Q 425 130 428 124 Q 429 123 436 111 Q 440 101 452 97 Q 463 93 473 97 Q 496 110 487 135 Q 484 142 477 147 L 475 148 Q 461 157 453 160 Q 445 164 430 167 Q 426 168 417 168 Q 417 181 418 206 Q 423 210 427 212 Q 435 215 443 216 Q 449 216 460 214 Q 472 213 482 220 Q 492 227 494 239 Q 496 251 489 261 Q 482 271 469 273 Q 462 274 453 271 L 450 270 Q 433 262 425 255 H 425 Q 429 277 437 296 Q 452 336 481 351 Z M 202 385 Q 218 383 221 398 Q 223 412 210 417 Q 174 429 148 433 Q 109 441 80 437 Q 59 434 41 423 Q 20 411 10 388 Q 1 369 1 345 Q 0 336 2 325 Q 2 321 3 316 Q 5 310 6 304 Q 20 275 51 284 Q 65 289 71 302 Q 77 316 72 329 Q 72 331 70 333 Q 70 335 69 338 Q 67 342 66 348 Q 65 358 66 365 Q 68 372 73 377 Q 77 381 83 383 V 381 Q 98 283 106 189 L 106 189 Q 90 189 79 186 Q 56 180 42 169 Q 21 155 11 128 Q 2 106 5 77 Q 6 65 8 54 Q 10 49 11 43 Q 12 40 13 38 Q 13 36 14 35 Q 16 32 16 30 Q 25 13 41 8 Q 57 3 72 12 Q 80 18 85 26 Q 101 24 116 22 Q 157 19 180 26 Q 199 32 211 47 Q 216 54 221 63 Q 224 72 226 82 Q 230 100 225 121 Q 219 140 205 154 Q 181 179 144 187 Q 139 188 133 188 V 189 Q 138 221 140 236 Q 144 235 148 234 Q 164 230 178 222 Q 202 213 215 235 Q 225 258 203 272 Q 196 275 191 275 H 189 Q 171 275 150 272 Q 146 271 144 271 Q 149 308 156 383 V 391 Q 172 389 202 385 Z M 75 103 Q 76 123 95 135 Q 114 148 141 146 Q 177 143 194 120 Q 194 120 196 116 L 197 115 Q 198 114 199 112 Q 199 111 200 109 L 201 108 Q 203 100 203 93 Q 203 72 186 60 Q 199 58 178 56 Q 161 49 135 51 Q 109 53 91 69 Q 74 84 75 103 Z M 290 253 Q 277 262 270 266 L 268 267 Q 243 277 228 255 Q 216 230 239 215 Q 247 211 255 211 Q 276 211 294 207 Q 296 206 301 205 Q 302 197 304 182 Q 303 181 301 181 Q 288 179 280 177 Q 260 170 241 157 L 239 156 Q 221 140 233 118 Q 249 100 270 112 Q 277 117 279 123 Q 286 137 297 148 Q 300 152 307 158 Q 308 143 308 112 Q 306 58 296 16 V 15 Q 294 5 303 3 Q 313 0 316 9 Q 335 55 345 108 Q 354 161 353 212 Q 341 248 350 265 Q 343 309 340 318 Q 330 360 303 420 Q 295 436 279 442 Q 262 448 246 440 Q 230 433 224 416 Q 218 400 225 384 Q 227 382 229 379 L 230 377 Q 261 330 274 297 Q 279 286 290 253 Z" fill="black" />
  </g>
  <g class="defect" id="01">
    <path d="M 353 212 Q 341 248 350 265" fill="none" stroke="red" stroke-width="3" />
  </g>
  <g class="defect" id="02">
    <path d="M 186 60 Q 199 58 178 56" fill="none" stroke="red" stroke-width="3" />
  </g>
</svg>