<svg xmlns="http://www.w3.org/2000/svg" width="512" height="512" viewBox="0 0 512 512">
  <g class="glyph">
    <path d="M 468 336 Q 483 334 495 344 Q 496 353 510 368 Q 512 383 503 395 Q 493 407 478 409 Q 463 411 452 403 L 443 397 Q 429 386 420 374 Q 411 360 408 348 Q 404 333 403 323 Q 402 309 404 298 Q 405 293 409 294 Q 412 294 413 296 V 297 Q 425 318 439 328 Q 446 334 455 336 Q 459 337 468 336 Z M 272 407 Q 248 425 226 405 Q 209 381 228 360 Q 235 353 244 351 Q 252 351 261 346 Q 268 342 277 334 Q 292 321 303 299 L 304 298 Q 306 293 312 296 Q 315 298 315 301 Q 315 314 313 327 Q 311 340 308 353 Q 297 384 276 403 Z M 505 101 Q 507 116 499 128 Q 490 139 475 142 Q 473 142 468 142 Q 469 144 470 147 Q 470 154 463 157 Q 446 165 424 173 Q 401 180 383 184 Q 360 189 340 190 Q 332 192 317 192 H 305 Q 303 191 299 191 Q 295 190 291 190 Q 267 180 266 154 Q 241 161 225 138 Q 211 109 237 89 Q 240 87 250 84 Q 270 80 278 77 Q 292 72 305 62 Q 316 53 327 38 Q 337 25 343 8 V 6 Q 347 0 353 2 Q 359 4 359 9 V 13 Q 367 28 377 39 Q 371 52 404 62 Q 418 70 434 72 Q 443 74 464 71 Q 479 69 491 77 Q 503 86 505 101 Z M 419 140 Q 434 140 450 138 Q 429 132 413 123 Q 391 109 377 91 Q 363 71 356 51 Q 355 50 354 48 V 49 Q 349 71 338 88 Q 326 110 312 122 Q 320 125 327 128 Q 336 131 343 132 Q 359 136 380 138 Q 405 141 419 140 Z M 486 237 Q 457 244 432 249 Q 415 252 381 258 Q 385 268 387 273 Q 394 298 395 325 Q 397 343 396 378 V 379 Q 395 388 393 405 L 389 432 Q 386 451 370 462 Q 354 473 336 470 Q 317 467 306 452 Q 295 436 298 417 Q 299 409 302 402 L 303 401 L 314 382 Q 319 372 323 362 Q 333 340 338 321 Q 344 296 346 278 Q 346 273 346 263 Q 328 265 320 266 Q 292 268 292 268 Q 272 269 261 268 H 260 Q 245 268 235 257 Q 226 245 226 231 Q 227 216 238 206 Q 248 196 263 196 Q 267 197 271 197 Q 281 200 294 202 Q 308 204 321 206 Q 335 220 374 209 Q 410 210 428 210 Q 455 210 482 209 Q 496 209 497 222 Q 497 234 486 237 Z M 138 244 Q 149 199 152 169 Q 158 128 153 97 Q 146 57 122 51 Q 95 42 53 62 L 53 63 Q 52 63 49 63 Q 60 128 63 158 Q 66 176 68 213 Q 69 252 66 272 V 272 Q 64 285 54 293 Q 43 301 30 299 Q 18 297 10 286 Q 2 276 5 263 Q 5 260 6 256 Q 13 240 18 210 Q 22 186 25 159 Q 29 112 32 53 V 53 Q 33 46 40 46 Q 43 46 45 48 Q 64 33 81 26 Q 105 16 128 18 Q 138 18 153 25 Q 168 32 175 40 Q 190 55 202 82 Q 215 117 220 169 Q 223 204 222 254 Q 222 272 209 284 Q 196 296 178 296 Q 161 295 149 283 Q 136 270 137 252 Q 137 250 138 244 Z M 21 456 Q 6 445 3 428 Q 0 410 10 395 Q 12 391 16 388 Q 37 368 54 335 Q 67 309 78 265 Q 88 226 92 189 Q 97 153 98 111 V 110 Q 98 106 101 103 Q 104 100 108 100 Q 116 101 117 108 Q 125 146 128 189 Q 132 235 131 272 Q 128 308 124 334 Q 132 344 137 350 Q 148 360 161 367 Q 167 371 184 375 Q 203 378 214 393 Q 224 409 221 428 Q 217 447 202 458 Q 187 468 168 465 Q 153 462 145 453 L 140 448 Q 121 429 110 411 Q 108 408 105 401 Q 95 425 81 444 L 81 445 Q 70 460 53 463 Q 35 466 21 456 Z" fill="black" />
  </g>
  <g class="defect" id="01">
    <path d="M 377 39 Q 371 52 404 62" fill="none" stroke="red" stroke-width="3" />
  </g>
  <g class="defect" id="02">
    <path d="M 321 206 Q 335 220 374 209" fill="none" stroke="red" stroke-width="3" />
  </g>
  <g class="defect" id="03">
    <path d="M 495 344 Q 496 353 510 368" fill="none" stroke="red" stroke-width="3" />
  </g>
</svg>