<svg xmlns="http://www.w3.org/2000/svg" width="512" height="512" viewBox="0 0 512 512">
  <g class="glyph">
    <path d="M 331 321 Q 327 314 323 307 Q 319 298 318 290 Q 316 283 318 273 Q 319 268 324 269 Q 326 269 329 272 L 330 274 Q 334 280 337 282 Q 340 286 345 289 Q 351 291 356 293 Q 360 295 366 296 Q 376 298 381 306 Q 387 314 385 324 Q 383 334 374 340 Q 366 345 356 343 Q 349 341 343 336 L 341 334 Q 336 327 331 321 Z M 345 124 Q 342 111 344 100 Q 325 100 309 98 Q 304 96 298 95 Q 300 104 302 109 Q 305 117 311 126 Q 321 141 337 151 Q 355 164 345 183 Q 333 200 313 191 Q 311 189 307 185 L 306 183 Q 290 161 284 136 Q 282 125 282 112 Q 282 102 284 92 Q 268 87 262 84 Q 254 80 257 71 Q 260 65 266 66 H 268 Q 287 68 309 64 Q 327 61 349 53 Q 371 44 386 34 Q 394 29 402 23 Q 410 17 419 10 L 420 9 Q 432 0 448 2 Q 464 3 474 16 Q 493 45 467 70 Q 464 73 460 75 Q 463 74 466 74 Q 475 74 482 81 Q 488 88 488 98 Q 487 103 486 106 Q 480 121 473 131 Q 466 141 453 151 Q 441 159 429 163 Q 420 165 411 165 Q 410 167 410 168 Q 399 186 379 178 Q 375 176 372 173 Q 362 162 355 151 Q 348 139 345 124 Z M 409 92 Q 387 97 365 99 Q 367 109 372 115 Q 378 123 384 128 Q 387 130 399 137 Q 408 142 411 150 Q 416 147 420 145 Q 429 138 433 131 Q 439 120 440 114 Q 442 106 442 96 Q 442 84 453 78 Q 446 80 433 85 Q 421 88 409 92 Z M 496 208 Q 510 208 512 222 Q 512 235 500 237 Q 478 243 472 244 Q 477 276 478 302 Q 479 338 474 370 Q 467 406 450 440 H 450 Q 442 456 425 461 Q 409 467 393 459 Q 377 450 372 434 Q 366 417 374 402 Q 376 398 380 393 Q 398 371 408 351 Q 419 326 424 298 Q 427 282 431 251 Q 412 254 392 256 Q 358 259 338 261 Q 301 262 282 262 Q 269 262 258 252 Q 260 276 259 307 Q 258 359 247 389 Q 237 421 212 439 Q 183 460 130 460 H 129 Q 74 459 42 424 Q 19 395 9 338 Q 0 287 5 223 Q 8 186 17 156 Q 26 125 44 119 Q 49 117 54 117 Q 71 117 82 131 Q 91 127 110 122 Q 111 110 113 84 Q 102 85 92 86 Q 62 89 38 89 Q 23 89 13 78 Q 2 68 2 53 Q 2 39 13 28 Q 23 18 38 18 Q 40 17 45 19 Q 54 20 92 26 Q 124 30 142 31 Q 191 34 241 33 Q 255 34 257 46 Q 256 58 246 61 Q 207 71 167 77 Q 168 78 168 80 Q 168 93 169 118 Q 190 121 205 131 Q 241 155 253 211 Q 263 194 283 194 Q 287 194 289 194 H 289 Q 318 200 340 202 Q 365 205 391 207 Q 412 208 432 209 Q 432 199 431 181 V 180 Q 431 168 442 167 Q 451 165 454 175 Q 460 194 464 209 Q 480 208 495 208 Z M 127 257 Q 118 277 109 290 Q 93 309 71 315 L 67 316 Q 67 317 69 331 Q 85 334 96 336 Q 124 339 140 340 Q 184 343 223 341 Q 225 333 225 325 Q 226 323 226 320 Q 222 320 221 319 L 215 319 Q 190 314 174 296 Q 161 283 154 262 Q 145 237 142 198 Q 142 178 142 158 Q 139 159 136 159 Q 138 178 136 196 Q 135 230 127 257 Z M 189 171 Q 182 167 174 164 Q 190 201 180 193 Q 187 222 199 241 Q 205 252 211 255 Q 217 259 222 258 H 226 Q 225 218 215 200 Q 206 182 189 171 Z M 143 80 Q 139 81 128 82 Q 129 84 134 118 Q 142 117 146 117 Q 150 92 152 79 Q 146 80 143 80 Z M 89 187 Q 72 210 68 253 H 68 Q 75 247 81 237 Q 92 218 99 190 Q 100 186 103 174 Q 93 181 89 187 Z M 209 384 Q 214 377 216 370 Q 186 377 142 383 Q 110 387 95 387 Q 93 388 91 388 Q 102 402 119 409 Q 132 414 149 414 H 156 Q 191 412 209 384 Z" fill="black" />
  </g>
  <g class="defect" id="01">
    <path d="M 174 164 Q 190 201 180 193" fill="none" stroke="red" stroke-width="3" />
  </g>
</svg>