<svg xmlns="http://www.w3.org/2000/svg" width="512" height="512" viewBox="0 0 512 512">
  <g class="glyph">
    <path d="M 292 180 Q 295 180 299 179 Q 322 176 348 167 Q 338 151 329 132 Q 326 124 320 107 Q 316 109 309 113 Q 293 119 282 121 Q 274 121 272 113 Q 272 108 275 105 L 278 103 Q 285 97 291 89 Q 296 80 299 72 Q 301 67 303 54 Q 305 48 305 35 Q 305 20 315 10 Q 326 0 341 1 Q 355 1 366 11 Q 376 22 375 36 V 39 Q 386 37 397 37 Q 425 37 442 48 Q 455 56 460 69 Q 465 79 466 95 Q 467 117 455 142 Q 447 158 434 174 Q 449 180 474 183 H 475 Q 491 185 501 198 Q 510 210 508 226 Q 505 243 493 252 Q 480 262 465 260 Q 459 259 454 256 Q 420 242 400 225 Q 394 220 388 215 Q 356 237 318 251 Q 303 256 289 250 Q 274 243 269 229 Q 263 214 270 200 Q 277 186 292 180 Z M 352 79 Q 345 87 337 94 Q 343 105 354 117 Q 372 137 387 148 Q 404 137 418 120 Q 427 108 430 93 Q 433 78 425 70 Q 416 62 396 60 Q 386 59 366 60 Q 354 77 352 79 Z M 501 323 Q 505 335 507 344 Q 512 367 505 390 Q 499 413 484 430 Q 458 458 416 467 Q 407 468 398 469 Q 388 470 382 470 H 380 Q 343 481 344 466 Q 321 461 304 447 Q 280 430 270 398 Q 265 385 263 361 Q 260 382 255 397 Q 243 431 219 449 Q 189 470 134 470 H 133 Q 76 468 44 433 Q 19 403 10 344 Q 0 291 6 226 Q 10 185 17 157 Q 26 125 46 119 Q 51 117 56 117 Q 72 117 85 131 Q 99 126 114 122 Q 116 96 116 83 Q 105 84 94 85 Q 63 88 39 88 Q 24 88 13 77 Q 2 66 2 51 Q 2 36 13 26 Q 24 15 39 15 Q 44 15 47 16 Q 60 19 96 23 Q 129 27 146 28 Q 197 32 249 30 H 249 Q 255 30 260 34 Q 280 39 264 44 Q 264 56 253 59 Q 213 69 172 75 Q 173 76 173 78 Q 173 99 174 118 Q 195 121 211 131 Q 247 155 260 209 Q 269 249 267 312 V 312 Q 268 308 270 300 Q 271 295 272 293 Q 273 291 273 290 Q 274 289 275 286 Q 289 257 317 257 Q 329 257 339 263 Q 347 269 353 278 Q 375 275 386 274 Q 404 273 414 273 Q 438 273 456 279 Q 476 286 489 303 Q 496 312 501 323 Z M 130 261 Q 124 281 112 295 Q 98 314 74 321 L 69 322 Q 70 330 71 338 Q 79 339 99 342 Q 114 344 145 347 Q 191 349 230 348 Q 231 342 232 331 V 326 Q 229 326 227 325 L 221 324 Q 196 320 179 301 Q 165 286 158 266 Q 149 240 146 201 Q 146 187 147 160 Q 145 160 140 160 Q 142 185 141 198 Q 139 235 130 261 Z M 195 173 Q 189 168 179 165 Q 183 185 185 195 Q 192 224 204 245 Q 211 255 217 260 Q 224 263 229 262 H 234 Q 231 219 222 202 Q 211 183 195 173 Z M 148 79 Q 143 80 133 81 Q 136 104 137 118 Q 147 117 151 117 Q 154 91 157 78 Q 151 79 148 79 Z M 92 189 Q 75 213 70 256 H 71 Q 77 252 84 241 Q 94 223 102 192 Q 104 184 106 175 Q 98 181 92 189 Z M 215 391 Q 220 383 222 377 Q 190 385 146 391 Q 114 394 97 395 Q 96 396 94 396 Q 106 410 122 418 Q 136 423 153 423 H 160 Q 197 420 215 391 Z M 474 374 Q 477 365 477 358 Q 477 335 460 323 Q 455 319 452 318 Q 439 312 419 312 Q 410 312 406 313 Q 379 315 360 332 Q 342 348 344 369 Q 345 389 363 402 Q 381 415 406 415 Q 410 415 412 415 Q 450 412 468 387 Q 470 385 471 382 L 471 381 Q 473 379 473 378 Q 474 377 474 375 Z" fill="black" />
  </g>
  <g class="defect" id="01">
    <path d="M 380 470 Q 343 481 344 466" fill="none" stroke="red" stroke-width="3" />
  </g>
  <g class="defect" id="02">
    <path d="M 260 34 Q 280 39 264 44" fill="none" stroke="red" stroke-width="3" />
  </g>
</svg>