<svg xmlns="http://www.w3.org/2000/svg" width="512" height="512" viewBox="0 0 512 512">
  <g class="glyph">
    <path d="M 124 266 Q 117 284 107 298 Q 92 317 70 322 L 66 324 Q 67 329 68 339 Q 81 341 95 343 Q 122 346 138 347 Q 181 350 219 349 Q 221 340 221 333 Q 222 331 222 327 Q 218 327 216 327 L 211 326 Q 187 322 171 304 Q 158 292 151 271 Q 158 265 140 208 Q 139 189 140 169 Q 137 170 134 170 Q 135 188 134 206 Q 133 239 124 266 Z M 185 182 Q 179 177 171 174 Q 174 194 177 203 Q 183 231 195 251 Q 201 260 207 265 Q 214 268 219 267 H 222 Q 220 228 211 210 Q 202 192 185 182 Z M 141 92 Q 136 93 126 95 Q 129 112 131 130 Q 139 129 144 129 Q 147 104 149 91 Q 144 92 141 92 Z M 88 197 Q 71 221 67 261 H 67 Q 61 256 80 247 Q 89 229 97 200 Q 99 192 101 184 Q 92 191 88 197 Z M 153 420 Q 187 417 205 390 Q 210 383 212 376 Q 182 383 139 390 Q 108 393 93 394 Q 91 394 89 394 Q 100 408 117 415 Q 130 420 146 420 Z M 416 342 Q 394 344 379 357 Q 364 370 365 387 Q 378 415 380 413 Q 395 423 415 423 H 420 Q 451 420 465 401 Q 466 400 468 398 L 469 394 Q 470 393 470 391 L 471 391 Q 473 384 473 378 Q 473 359 459 350 Q 455 347 452 346 Q 443 342 425 342 Q 419 342 416 342 Z M 449 168 Q 439 158 417 153 L 420 174 Q 432 175 455 176 Q 453 172 449 168 Z M 386 114 Q 370 116 337 118 Q 316 120 297 120 Q 302 146 306 176 Q 314 163 330 162 Q 334 162 337 162 Q 339 163 378 169 H 379 L 382 151 Q 356 152 332 158 H 331 Q 324 159 323 152 Q 321 146 327 144 Q 357 133 384 129 Z M 349 232 Q 359 234 370 236 Q 371 228 372 220 Q 353 222 334 223 H 333 Q 320 224 310 215 Q 312 230 313 258 Q 314 246 323 238 Q 333 231 345 231 Q 346 232 349 232 Z M 454 225 Q 461 218 461 206 Q 444 209 425 212 L 426 218 Q 427 224 428 236 Q 445 233 454 225 Z M 313 275 Q 313 290 310 321 Q 322 299 343 299 Q 353 299 362 304 Q 368 309 372 316 H 373 Q 390 313 399 313 Q 413 312 422 312 Q 442 312 456 316 Q 472 321 482 335 Q 489 345 491 350 Q 495 360 496 367 Q 501 385 495 403 Q 490 421 478 433 Q 458 456 424 463 Q 417 465 409 465 Q 405 465 396 465 H 394 Q 377 465 366 462 Q 349 458 333 448 Q 314 433 306 409 Q 301 396 300 377 Q 289 420 271 450 Q 263 465 247 469 Q 231 474 216 466 Q 206 460 200 449 Q 173 465 128 465 H 126 Q 72 464 42 429 Q 18 401 9 345 Q 0 295 5 232 Q 8 196 17 167 Q 25 137 43 130 Q 48 129 53 129 Q 69 129 80 142 Q 89 138 108 134 Q 109 121 110 96 Q 100 97 90 98 Q 60 101 37 101 Q 23 101 13 91 Q 2 80 2 66 Q 2 52 13 42 Q 23 31 37 31 Q 39 31 44 32 Q 53 34 91 39 Q 121 43 139 44 Q 187 47 237 46 Q 250 47 252 59 Q 251 71 241 73 Q 203 83 164 89 Q 165 91 165 92 Q 165 105 166 130 Q 187 133 201 142 Q 234 165 246 212 Q 256 248 255 304 Q 260 284 263 270 Q 269 236 272 191 Q 275 152 273 118 Q 254 110 253 88 Q 253 75 262 65 Q 272 56 285 56 Q 288 56 291 56 Q 311 60 338 63 Q 353 65 367 66 Q 368 56 370 50 Q 374 38 380 30 Q 386 22 400 14 L 405 10 Q 428 0 442 20 Q 452 42 432 56 Q 424 62 414 59 Q 408 58 404 59 Q 398 60 394 64 Q 392 65 390 67 Q 433 69 482 66 Q 488 65 493 69 Q 497 73 498 80 Q 498 91 487 95 Q 449 105 410 110 L 411 113 L 413 128 H 419 Q 450 132 468 145 Q 480 154 486 166 Q 489 171 491 176 H 501 Q 505 175 508 178 Q 511 181 511 185 Q 512 192 505 194 Q 501 195 497 196 Q 497 201 497 206 Q 498 212 497 220 Q 495 236 486 249 Q 471 272 439 282 Q 420 288 389 292 Q 363 293 339 291 Q 317 288 313 265 Z" fill="black" />
  </g>
  <g class="defect" id="01">
    <path d="M 365 387 Q 378 415 380 413" fill="none" stroke="red" stroke-width="3" />
  </g>
  <g class="defect" id="02">
    <path d="M 67 261 Q 61 256 80 247" fill="none" stroke="red" stroke-width="3" />
  </g>
  <g class="defect" id="03">
    <path d="M 151 271 Q 158 265 140 208" fill="none" stroke="red" stroke-width="3" />
  </g>
</svg>