<svg xmlns="http://www.w3.org/2000/svg" width="512" height="512" viewBox="0 0 512 512">
  <g class="glyph">
    <path d="M 512 25 Q 511 38 499 42 Q 443 55 383 62 Q 385 65 387 74 Q 387 80 384 88 L 383 89 Q 373 109 367 117 Q 360 127 346 139 Q 360 136 378 135 Q 415 133 442 145 Q 475 159 492 192 Q 504 217 508 251 Q 510 268 510 307 Q 508 336 504 363 Q 496 399 481 421 Q 462 451 429 463 Q 402 474 366 474 Q 330 474 303 462 Q 268 448 247 418 Q 229 394 220 356 Q 213 330 212 294 Q 212 261 214 235 Q 217 214 218 205 L 221 191 Q 222 182 224 175 L 226 166 Q 232 143 253 131 Q 273 118 296 124 Q 306 127 313 133 Q 316 128 320 119 Q 324 110 326 98 Q 328 88 327 77 Q 327 74 328 68 Q 319 69 315 69 Q 272 73 251 73 Q 247 63 225 63 Q 214 53 214 37 Q 213 23 224 11 Q 235 0 250 0 Q 253 0 256 0 Q 289 4 315 7 Q 354 9 375 10 Q 427 13 495 10 Q 510 10 512 25 Z M 398 420 Q 434 416 455 373 Q 474 336 472 288 Q 445 297 424 301 Q 400 307 371 311 Q 345 315 318 316 H 295 Q 295 319 295 321 Q 298 348 303 364 Q 306 370 308 376 Q 328 426 398 420 Z M 469 259 Q 460 206 429 190 Q 406 179 367 188 Q 348 192 331 209 Q 314 227 304 251 Q 315 253 321 254 Q 352 259 369 261 Q 394 262 419 262 Q 441 262 469 259 Z M 65 95 Q 39 101 21 79 Q 0 46 29 19 Q 36 14 42 12 L 49 10 Q 53 8 66 5 Q 77 3 82 2 Q 97 0 116 0 Q 139 1 157 9 Q 169 15 177 24 Q 184 31 191 45 Q 198 61 197 85 Q 195 101 190 117 Q 187 131 169 168 Q 184 162 170 187 Q 175 195 180 203 Q 196 242 199 258 Q 202 274 199 290 Q 196 307 185 321 Q 169 344 134 357 Q 125 360 118 352 Q 121 391 121 429 Q 122 447 109 460 Q 97 473 79 474 Q 61 474 48 462 Q 35 450 34 432 Q 34 426 35 424 Q 47 340 55 254 Q 62 175 65 95 Z M 139 82 Q 136 64 100 79 Q 95 80 91 82 Q 103 170 110 254 Q 126 281 116 334 Q 120 330 124 328 Q 148 319 159 303 Q 169 288 163 264 Q 158 245 144 220 Q 137 208 130 196 Q 127 188 124 180 Q 122 169 122 163 Q 123 161 124 160 L 124 157 L 125 156 L 126 153 Q 135 126 137 105 Q 140 88 139 82 Z" fill="black" />
  </g>
  <g class="defect" id="01">
    <path d="M 251 73 Q 247 63 225 63" fill="none" stroke="red" stroke-width="3" />
  </g>
  <g class="defect" id="02">
    <path d="M 110 254 Q 126 281 116 334" fill="none" stroke="red" stroke-width="3" />
  </g>
  <g class="defect" id="03">
    <path d="M 169 168 Q 184 162 170 187" fill="none" stroke="red" stroke-width="3" />
  </g>
</svg>