<svg xmlns="http://www.w3.org/2000/svg" width="512" height="512" viewBox="0 0 512 512">
  <g class="glyph">
    <path d="M 210 368 Q 196 382 174 393 Q 172 395 170 395 Q 197 402 203 430 Q 204 446 194 459 Q 184 472 167 474 Q 154 476 141 468 L 135 464 Q 117 452 111 444 Q 100 433 93 421 Q 87 411 82 396 Q 79 387 75 371 Q 75 364 82 362 Q 86 362 88 364 L 89 365 Q 95 372 106 379 Q 110 382 118 387 Q 120 383 125 381 L 126 380 Q 164 367 184 344 Q 195 331 198 318 Q 199 310 197 305 Q 196 299 192 295 Q 179 281 142 284 Q 115 286 75 300 Q 58 305 44 298 Q 29 291 23 276 Q 17 260 24 244 Q 32 229 47 223 Q 52 221 57 221 H 57 Q 106 215 145 221 Q 171 225 191 235 Q 219 249 231 274 Q 237 286 237 300 Q 237 315 234 326 Q 228 349 210 368 Z M 9 159 Q 0 145 4 128 Q 8 112 23 103 Q 30 99 39 98 Q 57 95 66 91 Q 82 83 91 72 Q 103 59 111 43 Q 119 27 123 7 V 7 Q 126 0 132 1 Q 136 2 138 7 Q 139 13 139 18 Q 147 33 157 50 Q 171 70 181 79 Q 196 93 208 97 Q 221 102 233 100 Q 249 97 261 105 Q 274 113 277 129 Q 280 144 272 157 Q 263 170 248 173 Q 238 174 232 172 L 226 170 Q 196 163 176 143 Q 160 128 148 102 Q 143 91 138 74 Q 136 85 132 95 Q 124 119 107 139 Q 100 147 96 151 Q 101 153 103 154 Q 110 156 116 156 Q 123 156 129 154 Q 137 151 141 150 Q 169 140 182 166 Q 192 193 166 207 Q 158 212 146 209 L 141 208 Q 130 205 120 201 Q 112 197 101 190 Q 94 184 86 174 Q 82 167 80 163 Q 70 170 66 172 L 65 173 Q 51 182 35 178 Q 18 173 9 159 Z M 476 385 Q 494 390 503 407 Q 512 423 507 440 Q 502 458 486 467 Q 470 476 452 471 Q 442 468 435 461 L 433 460 Q 409 438 398 421 Q 383 398 375 376 Q 373 371 372 366 Q 369 375 362 393 Q 345 431 316 458 L 315 460 Q 302 472 284 472 Q 266 472 254 459 Q 241 446 241 428 Q 241 410 254 398 Q 257 394 263 390 Q 283 379 302 358 Q 319 336 332 308 Q 328 283 352 249 Q 361 217 364 186 Q 365 176 376 177 Q 383 178 384 185 Q 389 216 389 253 Q 387 290 385 308 Q 390 317 392 321 Q 403 339 417 351 Q 429 364 445 373 Q 457 380 476 385 Z M 346 111 Q 352 104 355 95 Q 380 80 362 63 Q 355 63 343 64 Q 317 67 293 68 Q 279 69 269 60 Q 260 51 259 37 Q 258 24 267 14 Q 277 4 290 4 Q 294 4 296 4 Q 322 7 343 9 Q 359 11 390 12 Q 436 14 486 11 Q 493 10 497 14 Q 501 17 502 24 Q 502 35 491 39 Q 463 46 420 54 V 56 Q 420 63 417 70 L 416 72 Q 409 86 402 97 Q 399 101 395 104 Q 403 104 410 106 Q 435 112 452 129 Q 468 146 477 168 Q 486 189 489 209 Q 495 240 497 289 Q 497 306 485 318 Q 473 330 456 330 Q 439 330 427 318 Q 415 306 415 290 Q 415 286 416 281 Q 424 243 425 216 Q 426 179 415 161 Q 408 150 398 144 Q 386 139 370 138 Q 356 138 339 141 L 337 141 H 335 Q 317 146 308 150 Q 316 176 321 205 Q 325 225 327 244 Q 329 269 325 288 L 325 292 Q 322 306 311 314 Q 300 322 286 320 Q 272 318 264 306 Q 256 295 258 281 Q 259 276 262 269 Q 268 261 273 240 Q 278 224 280 206 Q 272 191 287 134 Q 288 125 296 125 Q 302 126 303 132 V 132 Q 326 119 346 111 Z" fill="black" />
  </g>
  <g class="defect" id="01">
    <path d="M 280 206 Q 272 191 287 134" fill="none" stroke="red" stroke-width="3" />
  </g>
  <g class="defect" id="02">
    <path d="M 355 95 Q 380 80 362 63" fill="none" stroke="red" stroke-width="3" />
  </g>
  <g class="defect" id="03">
    <path d="M 332 308 Q 328 283 352 249" fill="none" stroke="red" stroke-width="3" />
  </g>
</svg>