<svg xmlns="http://www.w3.org/2000/svg" width="512" height="512" viewBox="0 0 512 512">
  <g class="glyph">
    <path d="M 233 130 Q 225 122 221 116 Q 216 109 212 100 Q 207 90 207 82 Q 207 76 212 76 Q 216 76 218 77 L 219 79 Q 224 85 228 87 Q 233 90 240 92 Q 244 94 253 95 Q 260 96 265 96 Q 275 96 283 104 Q 291 112 290 122 Q 290 133 283 140 Q 276 147 264 147 Q 255 146 250 143 L 248 141 Q 240 136 233 130 Z M 468 73 Q 485 72 498 84 Q 511 96 511 113 Q 512 131 500 144 Q 488 157 471 157 Q 467 157 459 156 L 427 147 L 395 138 Q 352 122 332 111 Q 299 94 276 74 Q 259 60 252 51 Q 246 44 239 33 Q 235 41 233 42 Q 227 53 216 66 Q 198 87 173 105 Q 154 120 123 136 L 97 149 L 70 160 Q 52 168 34 160 Q 15 153 8 135 Q 0 117 8 99 Q 16 80 33 73 Q 41 69 50 69 H 51 L 75 68 L 100 65 Q 125 62 147 56 Q 173 50 193 38 Q 200 34 213 25 Q 223 17 230 8 L 231 7 Q 236 0 243 5 Q 247 9 246 15 Q 245 18 244 20 Q 251 28 265 37 Q 273 42 291 51 Q 317 62 348 68 Q 372 72 407 74 H 437 L 467 73 Z M 238 319 Q 184 325 119 323 Q 117 323 115 323 V 325 Q 125 361 143 381 Q 161 399 187 401 Q 204 402 216 416 Q 227 429 226 446 Q 225 464 211 475 Q 198 487 181 485 Q 156 470 168 482 L 167 482 Q 151 476 143 471 Q 127 462 122 457 Q 99 439 89 418 Q 70 381 67 331 Q 66 297 74 251 Q 79 219 91 176 Q 92 170 99 171 Q 102 169 104 168 Q 186 153 251 151 Q 299 151 328 157 Q 351 163 367 173 Q 378 180 385 189 Q 393 199 396 213 Q 399 228 396 240 Q 394 253 384 264 Q 372 280 348 292 Q 317 306 271 314 Q 267 314 262 315 Q 278 332 291 342 Q 300 350 320 363 Q 320 358 324 348 Q 329 335 339 326 Q 346 318 360 309 Q 366 306 372 303 L 383 298 H 384 Q 408 290 421 312 Q 429 337 406 349 Q 400 352 392 351 L 383 350 L 374 349 Q 358 351 355 352 Q 348 354 339 359 Q 335 361 329 369 Q 337 373 345 377 Q 352 380 374 389 Q 389 392 404 396 Q 424 400 464 400 L 465 400 Q 499 386 495 411 Q 508 423 508 441 Q 509 458 497 471 Q 485 484 467 484 Q 464 484 458 483 Q 411 473 383 459 Q 378 458 349 441 Q 331 429 318 419 Q 287 392 267 365 Q 249 341 238 319 Z M 106 184 H 105 Q 104 193 104 210 Q 112 201 123 201 H 127 Q 162 206 183 207 Q 222 211 240 212 Q 309 215 354 210 H 354 Q 352 206 347 203 Q 337 195 319 189 Q 291 180 251 178 Q 184 175 106 184 Z M 105 253 Q 106 258 106 263 Q 113 260 120 260 H 124 Q 204 268 264 264 Q 304 261 329 251 Q 345 245 352 238 Q 357 233 358 225 L 357 225 Q 312 238 241 245 Q 203 249 183 250 Q 143 253 124 253 Q 112 253 105 245 Q 105 248 105 253 Z" fill="black" />
  </g>
  <g class="defect" id="01">
    <path d="M 181 485 Q 156 470 168 482" fill="none" stroke="red" stroke-width="3" />
  </g>
  <g class="defect" id="02">
    <path d="M 465 400 Q 499 386 495 411" fill="none" stroke="red" stroke-width="3" />
  </g>
</svg>