<svg xmlns="http://www.w3.org/2000/svg" width="512" height="512" viewBox="0 0 512 512">
  <g class="glyph">
    <path d="M 297 57 Q 284 80 281 98 Q 294 109 280 116 Q 281 122 286 127 Q 300 141 333 143 Q 381 143 404 132 Q 422 123 418 109 Q 417 105 411 101 Q 387 78 409 52 Q 436 32 463 52 Q 465 53 467 55 Q 481 70 487 89 Q 491 98 490 111 Q 488 125 483 134 Q 474 152 456 164 Q 442 174 426 179 Q 401 189 366 193 H 350 Q 344 193 335 191 Q 320 189 305 186 Q 288 182 275 174 Q 257 165 248 151 Q 239 135 239 117 Q 239 106 245 89 Q 254 67 272 44 Q 287 25 307 6 Q 315 0 322 6 Q 328 12 323 18 V 18 Q 309 35 297 57 Z M 219 242 Q 236 207 269 206 Q 284 206 296 215 Q 306 221 313 233 L 314 234 H 315 Q 344 230 357 229 Q 373 227 392 227 Q 422 227 443 235 Q 468 244 485 265 Q 492 275 499 290 Q 485 290 507 318 Q 512 347 505 377 Q 497 404 478 426 Q 448 463 395 474 Q 383 477 372 477 Q 359 479 352 479 H 349 Q 326 479 305 474 Q 276 467 254 449 Q 227 428 213 387 Q 201 354 204 311 Q 207 288 209 276 Q 211 268 213 260 Q 214 258 215 252 Q 216 250 217 248 Q 218 245 219 242 Z M 309 296 Q 286 316 286 345 Q 286 381 315 398 Q 338 413 376 413 Q 383 413 391 412 Q 438 409 461 375 Q 463 372 465 369 L 466 367 Q 467 364 468 362 Q 469 360 469 358 L 470 357 Q 474 346 473 335 Q 473 307 453 289 Q 436 274 408 271 Q 402 271 395 270 Q 380 270 368 273 Q 330 278 309 296 Z M 2 135 Q 0 131 3 126 L 4 125 Q 10 118 16 107 Q 22 97 26 87 Q 29 79 30 68 Q 30 62 28 52 Q 25 38 32 26 Q 39 12 54 8 Q 69 4 82 12 Q 95 19 98 34 Q 101 43 99 49 Q 128 38 149 35 Q 168 32 185 38 Q 190 40 195 42 Q 200 46 205 49 Q 215 60 219 70 Q 225 87 224 110 Q 222 118 221 126 Q 220 132 217 142 Q 214 156 202 164 Q 189 172 175 169 Q 160 165 153 153 Q 145 140 148 126 Q 149 121 151 117 L 152 117 L 157 108 Q 159 103 160 99 Q 162 94 164 87 Q 166 87 165 84 Q 160 80 149 79 Q 132 76 103 80 Q 97 81 85 83 Q 76 100 61 113 Q 49 123 38 129 Q 26 136 15 141 Q 6 143 2 135 Z M 117 132 Q 109 171 104 213 Q 100 256 101 293 Q 103 338 117 362 Q 123 374 131 377 Q 123 391 147 379 Q 166 378 181 391 Q 196 404 196 423 Q 197 442 185 456 Q 172 471 152 472 Q 146 472 142 471 L 138 471 Q 101 464 77 442 Q 55 420 46 387 Q 36 350 43 290 Q 50 250 64 205 Q 75 166 94 124 Q 98 113 111 117 Q 119 122 118 131 Z" fill="black" />
  </g>
  <g class="defect" id="01">
    <path d="M 281 98 Q 294 109 280 116" fill="none" stroke="red" stroke-width="3" />
  </g>
  <g class="defect" id="02">
    <path d="M 131 377 Q 123 391 147 379" fill="none" stroke="red" stroke-width="3" />
  </g>
  <g class="defect" id="03">
    <path d="M 499 290 Q 485 290 507 318" fill="none" stroke="red" stroke-width="3" />
  </g>
</svg>