<svg xmlns="http://www.w3.org/2000/svg" width="512" height="512" viewBox="0 0 512 512">
  <g class="glyph">
    <path d="M 485 485 Q 386 501 259 507 Q 208 520 146 511 Q 108 512 32 512 Q 18 512 9 502 Q 0 492 0 479 Q 0 466 10 457 Q 19 447 32 447 H 36 Q 70 450 147 456 Q 221 459 259 461 Q 388 464 482 457 Q 496 458 497 471 Q 497 483 485 485 Z M 131 431 Q 99 417 84 394 Q 72 374 75 349 Q 77 340 81 329 Q 83 323 84 319 Q 86 317 88 315 Q 88 313 89 312 Q 89 312 91 309 Q 104 294 129 289 Q 131 287 133 285 Q 137 279 141 267 Q 144 261 147 248 Q 148 242 148 229 Q 148 217 157 208 Q 166 200 178 200 Q 190 201 198 210 Q 207 218 206 230 Q 206 233 206 233 Q 237 226 249 225 Q 287 218 307 217 Q 329 217 342 222 Q 353 225 359 237 Q 365 249 364 261 Q 361 280 346 297 Q 344 301 339 305 Q 341 305 343 305 Q 371 310 388 323 Q 397 329 404 338 Q 409 345 412 353 Q 419 371 410 388 Q 402 404 381 417 Q 345 440 287 446 Q 272 447 263 447 Q 255 448 239 448 H 237 Q 207 448 187 445 Q 154 441 131 431 Z M 244 358 Q 246 343 248 329 Q 246 329 240 329 Q 191 336 166 346 Q 164 346 154 351 Q 186 354 244 358 Z M 167 401 Q 183 408 207 410 Q 221 411 234 412 Q 237 398 240 384 Q 178 387 146 387 Q 152 397 167 401 Z M 329 404 Q 354 397 367 384 Q 372 379 376 371 Q 336 377 280 382 Q 282 391 283 410 Q 312 409 329 404 Z M 347 333 Q 325 325 290 325 Q 284 325 272 327 Q 275 343 277 359 Q 336 360 375 357 L 376 358 Q 374 350 366 343 Q 358 336 347 333 Z M 188 268 Q 177 282 171 288 Q 169 289 167 291 Q 174 292 177 293 Q 189 297 196 303 L 197 304 L 198 305 H 199 Q 231 302 245 301 Q 266 300 279 300 Q 277 286 291 277 Q 296 275 298 275 Q 310 272 318 266 Q 325 261 331 254 Q 331 252 332 250 Q 333 248 330 245 Q 341 242 308 242 Q 286 242 252 246 Q 223 250 196 256 Q 194 260 188 268 Z M 506 70 Q 506 82 499 91 Q 491 99 480 100 Q 472 100 469 98 L 468 98 Q 442 88 415 72 Q 391 56 372 36 Q 368 32 372 28 Q 375 26 378 27 V 27 Q 403 37 428 42 Q 454 46 476 45 Q 502 46 506 70 Z M 434 96 Q 430 112 421 124 Q 414 135 403 147 Q 384 166 357 181 Q 334 195 306 205 Q 288 211 279 214 L 252 221 Q 237 226 223 218 Q 209 209 205 194 Q 200 179 208 165 Q 216 152 232 147 Q 235 146 242 146 H 268 L 292 145 Q 324 141 339 138 Q 362 132 383 121 Q 393 114 401 107 Q 410 99 416 91 L 417 89 Q 422 82 430 86 Q 436 90 434 96 Z M 351 56 Q 356 87 357 105 V 106 Q 358 118 350 128 Q 343 137 330 138 Q 318 139 308 131 Q 299 123 298 111 Q 298 103 299 100 Q 305 81 310 56 Q 315 25 317 10 V 10 Q 319 0 330 0 Q 338 1 339 8 Q 346 34 351 56 Z M 216 119 Q 192 131 177 110 Q 166 86 187 72 Q 191 69 197 68 Q 208 67 218 64 Q 230 61 239 56 Q 249 51 257 45 Q 265 39 272 29 L 273 28 Q 277 22 282 26 Q 287 28 286 33 Q 283 47 276 60 Q 270 72 260 83 Q 249 95 240 103 Q 232 109 216 119 Z M 33 23 Q 32 20 32 17 Q 31 16 31 14 Q 30 13 30 10 Q 32 7 34 7 Q 38 5 41 8 L 43 10 Q 44 11 46 13 Q 48 14 49 15 Q 61 21 68 22 Q 74 23 78 23 Q 81 22 85 22 Q 88 22 91 20 H 93 Q 105 17 117 22 Q 129 27 133 37 Q 140 62 112 71 Q 100 74 89 70 L 84 68 Q 83 68 81 67 Q 77 66 71 63 Q 56 56 46 45 Q 39 37 33 23 Z M 17 130 Q 15 119 23 110 Q 30 102 44 100 Q 52 100 60 102 Q 62 102 63 103 Q 67 105 70 105 Q 86 108 95 109 Q 110 109 121 107 Q 124 107 129 105 Q 133 104 136 103 Q 141 103 143 105 Q 135 126 142 114 Q 141 116 140 117 Q 136 121 131 124 Q 121 132 104 139 Q 86 147 70 149 Q 64 151 58 151 Q 57 152 54 152 H 53 Q 39 154 29 147 Q 19 141 17 130 Z M 15 241 Q 6 230 10 216 Q 14 202 28 195 Q 37 191 49 191 H 53 Q 59 191 63 191 Q 68 190 70 190 Q 75 189 79 188 Q 94 185 96 184 Q 105 181 112 176 Q 126 169 135 161 Q 136 159 138 157 Q 139 156 141 154 Q 144 153 148 154 Q 151 155 152 159 L 153 161 L 152 162 V 162 Q 152 166 150 169 Q 149 174 148 176 L 147 179 Q 143 188 139 195 Q 135 202 126 213 Q 123 216 108 229 Q 104 233 99 236 Q 95 239 91 242 Q 84 246 77 249 Q 73 251 71 252 L 70 253 Q 37 266 15 241 Z" fill="black" />
  </g>
  <g class="defect" id="01">
    <path d="M 330 245 Q 341 242 308 242" fill="none" stroke="red" stroke-width="3" />
  </g>
  <g class="defect" id="02">
    <path d="M 259 507 Q 208 520 146 511" fill="none" stroke="red" stroke-width="3" />
  </g>
  <g class="defect" id="03">
    <path d="M 143 105 Q 135 126 142 114" fill="none" stroke="red" stroke-width="3" />
  </g>
</svg>