<svg xmlns="http://www.w3.org/2000/svg" width="512" height="512" viewBox="0 0 512 512">
  <g class="glyph">
    <path d="M 272 493 150 459 Q 110 448 94 437 Q 79 426 80 396 Q 80 381 85 369 Q 89 356 89 352 Q 89 350 84 340 Q 78 330 79 319 Q 80 314 80 311 Q 81 308 85 297 Q 89 285 92 280 Q 95 274 94 273 H 84 L 51 272 Q 33 272 25 268 Q 16 264 9 254 Q 1 243 1 224 Q 0 204 2 193 Q 5 173 16 165 Q 26 157 27 155 Q 27 154 22 144 Q 16 134 18 111 Q 19 93 20 83 Q 22 72 32 63 Q 42 54 69 53 L 143 52 Q 164 52 166 49 Q 168 47 173 34 Q 178 21 192 12 Q 205 2 233 1 Q 255 0 272 5 Q 289 11 296 18 Q 302 26 304 37 Q 306 48 306 49 Q 307 50 330 50 L 387 51 Q 415 52 427 57 Q 439 62 445 75 Q 451 89 450 110 Q 450 127 447 138 Q 444 148 445 151 Q 446 153 458 159 Q 469 165 474 178 Q 479 191 479 213 Q 480 235 474 247 Q 460 273 438 272 Q 417 272 417 273 Q 417 274 420 281 Q 424 287 424 296 Q 423 314 416 325 Q 410 335 388 358 Q 367 380 367 383 Q 368 385 375 390 Q 382 395 386 404 Q 391 413 391 431 Q 390 449 383 467 Q 375 486 357 499 Q 339 512 272 493 Z M 291 71 Q 283 73 282 71 Q 281 69 282 61 Q 297 32 284 49 Q 283 40 275 30 Q 267 21 233 21 Q 210 22 203 28 Q 196 35 192 47 Q 187 60 186 65 Q 185 70 184 71 Q 183 71 178 71 L 71 72 Q 53 73 48 77 Q 44 81 42 87 Q 40 93 39 115 Q 38 138 46 146 Q 55 153 64 153 L 149 152 Q 157 152 157 153 Q 158 154 158 156 Q 138 175 157 164 Q 155 169 153 171 Q 150 173 143 173 L 72 173 Q 47 173 42 174 Q 37 174 29 181 Q 21 187 21 212 Q 21 239 30 246 Q 40 253 61 253 H 116 Q 123 253 124 254 Q 124 255 123 258 L 121 263 L 102 310 Q 101 313 101 322 Q 101 330 107 332 Q 108 332 114 329 Q 121 325 134 325 Q 146 325 152 326 L 172 331 Q 175 332 181 332 L 250 332 L 263 331 Q 265 333 265 336 Q 265 339 258 344 Q 252 348 244 355 Q 237 363 231 361 L 166 347 Q 148 343 136 344 Q 125 344 116 352 Q 107 359 104 374 Q 101 389 102 395 Q 102 410 109 419 Q 116 429 199 451 L 303 479 Q 306 480 315 481 Q 325 482 328 482 Q 343 481 355 472 Q 366 462 367 442 Q 369 422 366 414 Q 363 405 347 397 Q 331 389 332 388 Q 313 398 340 378 L 387 329 Q 400 314 401 305 Q 402 296 402 293 Q 400 279 391 275 Q 382 272 355 272 H 291 Q 229 272 227 271 Q 225 270 224 270 Q 224 269 226 265 L 227 255 Q 229 252 239 252 H 424 Q 440 252 449 244 Q 458 236 458 210 Q 457 187 450 180 Q 443 173 438 172 Q 433 172 408 172 H 298 L 261 172 Q 256 173 255 172 Q 254 170 256 165 Q 257 160 257 158 Q 257 155 258 154 Q 259 153 262 152 L 271 152 L 379 151 Q 406 151 412 150 Q 417 148 423 142 Q 429 137 429 117 Q 429 97 429 95 Q 427 84 423 80 Q 419 76 412 73 Q 406 71 380 71 Z" fill="black" />
  </g>
  <g class="defect" id="01">
    <path d="M 158 156 Q 138 175 157 164" fill="none" stroke="red" stroke-width="3" />
  </g>
  <g class="defect" id="02">
    <path d="M 332 388 Q 313 398 340 378" fill="none" stroke="red" stroke-width="3" />
  </g>
  <g class="defect" id="03">
    <path d="M 282 61 Q 297 32 284 49" fill="none" stroke="red" stroke-width="3" />
  </g>
</svg>