<svg xmlns="http://www.w3.org/2000/svg" width="512" height="512" viewBox="0 0 512 512">
  <g class="glyph">
    <path d="M 45 134 62 92 78 40 Q 91 0 145 0 Q 182 0 200 14 Q 218 27 221 36 L 225 58 Q 228 62 231 54 L 235 37 Q 238 30 250 16 Q 247 -8 302 2 Q 330 2 343 8 Q 355 13 364 20 Q 373 27 377 39 L 382 61 Q 385 67 395 67 L 438 68 Q 460 68 486 74 Q 511 80 512 124 Q 512 168 498 182 Q 484 197 463 197 L 399 197 Q 361 198 357 198 Q 353 199 351 201 Q 349 203 349 208 Q 349 213 360 212 L 438 212 Q 472 212 484 223 Q 496 235 499 248 Q 502 262 502 283 Q 502 305 489 320 Q 477 333 460 336 L 438 338 Q 430 340 430 347 Q 430 351 432 354 Q 435 357 439 357 L 466 359 Q 482 361 493 373 Q 504 386 508 398 Q 512 409 512 425 Q 511 461 498 476 Q 484 490 471 492 Q 459 494 446 494 Q 443 494 432 494 Q 422 494 415 494 L 268 493 Q 226 493 223 493 L 191 483 L 165 496 Q 152 503 127 503 Q 82 503 66 486 Q 51 469 51 447 V 333 Q 51 313 47 309 Q 43 304 31 297 Q 19 289 9 276 Q 0 263 0 245 Q 0 228 7 213 Z M 68 133 50 173 29 214 Q 20 232 20 243 Q 21 255 26 264 Q 32 273 40 279 L 67 292 Q 72 297 72 308 L 71 418 Q 71 450 73 457 Q 74 465 83 474 Q 91 483 121 483 Q 158 483 165 474 Q 172 465 172 455 Q 172 451 171 444 Q 169 436 169 436 L 170 405 Q 170 397 166 391 L 142 375 Q 139 373 131 363 Q 123 354 119 345 Q 114 336 114 321 Q 113 306 129 288 L 160 251 Q 190 215 188 209 Q 187 204 185 201 L 163 189 Q 158 186 151 174 Q 143 162 144 133 Q 144 117 147 106 Q 150 95 156 87 Q 162 78 171 75 L 199 65 Q 203 61 203 52 Q 203 43 192 31 Q 180 18 144 19 Q 107 20 99 43 Z M 185 250 155 286 146 296 Q 135 309 135 325 Q 134 341 154 361 Q 173 381 195 379 Q 230 363 228 361 L 241 346 Q 249 336 248 332 Q 248 330 247 329 Q 247 328 235 314 Q 224 301 225 271 Q 226 239 237 229 Q 248 218 255 216 Q 263 214 281 214 L 308 213 Q 316 213 318 211 Q 321 209 322 207 L 333 184 Q 336 179 342 179 L 372 178 L 443 177 Q 463 177 476 173 Q 489 170 491 130 Q 492 90 447 89 L 403 88 Q 363 88 361 85 Q 359 82 358 79 L 357 49 Q 352 20 300 21 Q 288 21 279 23 Q 271 25 266 29 Q 261 33 257 40 Q 253 48 253 50 L 247 79 Q 245 83 242 85 Q 239 86 230 86 L 199 87 Q 182 88 174 96 Q 165 105 164 117 Q 163 130 163 146 Q 163 161 173 172 Q 180 180 191 182 L 211 183 Q 216 186 217 190 Q 217 193 212 205 Q 207 217 202 224 Z M 280 472 420 473 Q 456 473 463 472 Q 470 470 479 461 Q 489 452 490 426 Q 491 400 481 390 Q 471 379 459 379 L 417 377 Q 408 377 407 368 Q 406 358 406 348 Q 406 335 407 329 Q 407 323 410 319 Q 414 316 419 316 L 447 316 Q 462 316 472 306 Q 481 297 480 272 Q 479 249 472 242 Q 465 235 455 233 Q 426 213 412 231 L 298 232 Q 271 232 267 233 Q 262 234 254 241 Q 246 248 245 272 Q 244 295 253 304 Q 263 313 274 314 L 302 315 Q 306 315 309 319 Q 313 322 313 330 L 312 335 L 312 366 Q 310 372 307 375 Q 304 377 295 377 L 269 376 Q 249 376 243 378 L 219 394 L 197 401 Q 190 407 190 426 Q 190 436 193 446 Q 195 457 203 464 Q 210 472 230 472 Z M 262 354 Q 262 360 274 361 Q 285 361 289 357 Q 293 353 292 346 Q 291 335 282 334 Q 273 334 267 343 Q 262 351 262 354 Z" fill="black" />
  </g>
  <g class="defect" id="01">
    <path d="M 250 16 Q 247 -8 302 2" fill="none" stroke="red" stroke-width="3" />
  </g>
  <g class="defect" id="02">
    <path d="M 195 379 Q 230 363 228 361" fill="none" stroke="red" stroke-width="3" />
  </g>
  <g class="defect" id="03">
    <path d="M 455 233 Q 426 213 412 231" fill="none" stroke="red" stroke-width="3" />
  </g>
</svg>