<svg xmlns="http://www.w3.org/2000/svg" width="512" height="512" viewBox="0 0 512 512">
  <g class="glyph">
    <path d="M 221 330 Q 221 316 223 314 Q 226 312 235 310 Q 244 309 248 313 Q 253 317 252 334 Q 252 344 251 347 Q 251 351 249 354 Q 247 356 237 356 Q 228 356 226 354 Q 223 352 222 348 Q 221 344 221 330 Z M 376 183 Q 381 183 384 186 Q 374 189 387 193 Q 387 197 386 205 L 383 225 Q 380 241 376 239 Q 375 239 371 236 Q 368 232 366 215 Q 363 199 363 190 Q 363 182 376 183 Z M 23 184 44 134 Q 49 114 53 105 Q 57 97 58 93 L 59 87 Q 59 83 62 71 L 72 38 Q 87 3 128 1 Q 147 0 165 6 L 184 12 Q 193 16 199 15 L 217 9 Q 225 7 242 7 Q 265 8 278 18 Q 292 28 295 28 Q 297 27 301 24 L 317 12 Q 329 5 350 5 Q 365 5 382 10 Q 398 15 410 27 Q 421 39 421 49 Q 421 58 420 67 Q 419 77 429 77 L 459 78 Q 480 79 494 93 Q 508 106 510 136 Q 512 166 500 181 L 485 200 L 480 224 L 478 250 L 468 288 Q 463 305 459 315 Q 454 325 455 330 Q 455 336 462 343 L 493 370 Q 512 389 512 405 Q 512 421 510 431 Q 504 454 487 470 Q 471 486 450 486 Q 429 486 414 473 L 387 452 L 381 451 L 357 471 Q 337 488 319 488 Q 301 488 291 483 Q 281 478 268 467 Q 255 457 253 456 Q 251 455 249 455 Q 248 456 244 456 Q 240 457 238 457 L 231 456 L 187 455 Q 186 455 183 455 Q 179 456 176 457 L 161 474 Q 157 478 145 484 Q 133 489 105 489 Q 76 489 61 474 Q 46 459 46 438 L 46 310 Q 45 298 43 294 Q 40 290 20 273 Q 0 255 6 232 L 10 212 Z M 71 114 53 164 38 200 Q 21 211 29 219 Q 26 227 26 235 Q 25 242 30 251 Q 34 263 42 268 L 62 281 Q 66 287 66 296 V 429 Q 66 451 74 462 Q 83 472 111 471 Q 139 471 145 464 Q 152 457 154 453 Q 155 448 155 446 Q 155 445 155 443 L 144 425 Q 138 414 138 390 L 138 294 Q 137 272 138 262 Q 139 253 145 245 L 159 228 Q 163 221 162 211 Q 161 204 159 200 L 140 185 Q 133 179 129 166 Q 126 154 126 133 Q 125 112 137 97 Q 127 101 151 86 L 169 80 Q 172 79 174 76 Q 177 73 177 56 Q 177 49 177 46 Q 177 44 177 43 Q 177 39 170 30 Q 164 22 138 21 Q 106 21 103 29 L 86 61 Z M 155 395 Q 160 419 169 428 Q 178 437 204 437 Q 238 438 238 438 Q 240 437 242 436 Q 244 434 245 430 L 248 410 Q 251 400 262 390 L 289 366 Q 311 347 313 339 Q 316 331 316 324 Q 316 317 316 315 L 316 298 Q 316 272 313 261 Q 311 250 302 244 L 282 237 Q 281 236 280 234 Q 279 233 278 228 L 278 204 Q 277 191 281 187 Q 282 186 286 185 L 307 183 Q 330 178 331 148 Q 332 118 320 106 Q 315 101 308 98 L 287 96 Q 282 96 280 93 Q 277 91 278 73 Q 278 56 276 50 Q 273 43 267 36 Q 260 29 237 28 Q 213 28 203 37 Q 197 43 195 53 L 193 85 Q 192 90 190 93 Q 188 95 184 96 L 162 99 Q 157 101 151 107 Q 144 114 143 137 Q 143 160 153 173 Q 159 180 167 182 L 187 186 Q 190 188 190 192 Q 191 196 192 214 Q 192 232 188 236 Q 188 237 187 237 L 172 244 Q 159 250 157 261 Q 155 273 155 288 Z M 443 299 455 254 Q 458 245 459 230 L 462 197 Q 463 187 466 184 L 477 178 Q 482 174 485 165 Q 488 155 489 136 Q 489 116 479 107 Q 470 98 448 97 Q 437 97 416 98 Q 394 100 394 89 Q 394 88 396 84 Q 397 80 398 70 Q 400 59 400 57 Q 400 47 393 40 Q 386 33 372 29 Q 358 25 346 25 Q 327 25 319 33 Q 312 41 307 54 Q 303 68 303 72 Q 304 77 307 79 L 324 86 Q 333 90 341 103 Q 349 115 350 136 Q 350 157 347 166 Q 344 176 338 184 Q 332 193 324 196 L 300 204 Q 296 208 296 214 Q 296 219 300 224 L 316 234 Q 332 244 333 271 L 334 308 Q 334 312 334 326 Q 334 339 332 344 Q 330 348 320 359 Q 310 370 302 377 L 286 391 Q 271 405 268 412 Q 266 419 265 426 Q 265 432 269 437 Q 276 447 277 447 L 277 451 Q 277 452 281 453 L 288 460 Q 291 463 310 470 Q 328 477 351 452 L 375 426 Q 382 418 388 424 L 414 450 Q 447 483 469 461 Q 491 440 491 424 Q 491 407 489 401 Q 484 388 460 369 Q 436 350 433 343 Q 429 336 430 333 Z" fill="black" />
  </g>
  <g class="defect" id="01">
    <path d="M 384 186 Q 374 189 387 193" fill="none" stroke="red" stroke-width="3" />
  </g>
  <g class="defect" id="02">
    <path d="M 38 200 Q 21 211 29 219" fill="none" stroke="red" stroke-width="3" />
  </g>
  <g class="defect" id="03">
    <path d="M 137 97 Q 127 101 151 86" fill="none" stroke="red" stroke-width="3" />
  </g>
</svg>