<svg xmlns="http://www.w3.org/2000/svg" width="512" height="512" viewBox="0 0 512 512">
  <g class="glyph">
    <path d="M 315 340 Q 335 341 340 342 Q 346 343 346 346 Q 347 350 339 358 Q 331 366 322 365 Q 318 365 309 358 Q 299 351 299 349 Q 299 347 299 346 Q 299 340 315 340 Z M 233 16 387 16 Q 416 17 437 21 Q 457 26 465 41 Q 473 55 477 69 Q 481 83 481 89 L 480 176 Q 480 186 479 192 Q 478 198 478 200 Q 479 202 492 213 Q 505 224 507 239 Q 509 254 510 279 Q 510 305 506 318 Q 501 330 493 336 L 471 351 L 464 364 Q 456 376 457 379 Q 457 381 458 382 Q 459 383 470 387 Q 481 392 487 396 Q 493 401 500 411 Q 507 421 507 440 Q 506 465 491 487 Q 476 509 446 511 Q 436 512 417 509 Q 399 506 381 501 Q 364 496 347 488 Q 330 480 323 479 Q 316 477 302 482 L 253 498 Q 227 507 208 507 Q 189 507 177 502 Q 164 496 161 497 L 137 504 Q 128 507 100 507 Q 73 507 62 496 Q 50 484 46 474 Q 42 465 42 459 L 44 329 Q 45 306 41 300 L 19 284 Q 10 277 5 263 Q 0 250 0 235 Q 0 221 10 198 L 29 161 Q 41 138 49 114 Q 58 90 66 65 Q 73 40 83 25 Q 93 10 116 5 Q 139 0 156 4 Q 159 4 171 8 Q 184 12 193 17 Q 202 22 206 22 Q 207 22 217 19 Q 240 -3 233 16 Z M 59 144 Q 39 185 30 206 Q 21 227 22 239 Q 22 252 28 262 Q 17 272 43 276 L 61 285 Q 62 285 64 287 Q 66 289 66 303 V 305 L 64 433 Q 64 456 65 462 Q 66 469 74 478 Q 82 486 104 486 Q 109 487 124 486 Q 140 484 143 480 Q 146 476 147 473 Q 148 470 145 455 Q 142 440 141 429 Q 141 418 149 406 L 161 390 Q 163 388 164 385 Q 164 382 165 370 L 166 361 Q 166 360 166 358 Q 165 351 163 345 L 147 324 Q 144 318 143 308 Q 142 298 142 276 Q 142 254 144 243 Q 144 239 148 228 Q 151 218 161 211 L 173 203 Q 175 200 176 197 Q 176 195 175 187 Q 175 179 177 173 L 184 161 Q 186 158 184 149 Q 183 141 182 136 Q 182 131 184 123 Q 185 116 190 109 Q 195 101 195 98 Q 194 97 189 89 Q 184 81 186 65 Q 188 50 187 46 Q 186 40 181 35 Q 176 30 161 26 Q 146 22 135 22 Q 120 23 111 30 Q 102 36 99 42 Z M 319 453 370 475 Q 391 484 406 488 Q 422 491 441 489 Q 460 487 467 481 Q 474 474 479 463 Q 484 452 484 440 Q 484 426 477 417 Q 470 409 457 405 L 427 398 Q 419 395 418 391 Q 397 389 428 376 Q 439 363 439 359 Q 439 353 430 351 L 408 346 Q 401 343 398 340 Q 394 337 390 332 Q 387 326 386 324 L 382 308 Q 380 303 377 301 Q 374 298 361 298 Q 348 298 326 297 Q 304 297 294 297 Q 285 296 282 296 Q 273 297 271 299 Q 268 301 267 303 L 259 325 Q 252 338 237 343 Q 221 347 212 348 Q 202 348 201 351 Q 199 353 198 357 Q 197 362 205 370 Q 218 385 219 387 Q 220 389 220 391 Q 220 392 219 393 Q 217 397 197 400 Q 177 404 169 413 Q 162 421 162 437 Q 161 452 168 465 Q 172 473 179 479 Q 186 486 205 487 Q 215 487 228 484 Q 241 481 319 453 Z M 421 243 231 241 Q 226 241 215 239 Q 205 236 201 234 L 186 225 Q 180 222 171 230 Q 163 237 163 251 L 162 290 Q 162 291 162 301 Q 162 310 171 319 Q 180 328 203 329 Q 227 329 237 319 Q 242 314 244 306 L 247 285 Q 250 278 264 278 L 354 279 Q 396 279 398 282 Q 400 285 401 288 L 403 307 Q 408 331 437 331 Q 467 332 479 320 Q 482 316 485 308 Q 489 301 489 279 Q 488 258 486 247 Q 484 237 479 231 Q 473 225 469 225 Q 466 225 461 228 L 448 237 Q 439 243 421 243 Z M 290 154 337 155 Q 363 156 365 159 Q 367 161 367 164 Q 368 167 364 171 Q 361 174 355 174 L 304 173 L 240 172 Q 215 172 207 179 Q 200 186 200 199 Q 201 209 206 214 Q 211 220 219 221 Q 226 222 265 223 L 398 224 Q 431 225 439 218 Q 447 212 452 200 Q 457 189 457 160 L 458 100 Q 458 77 454 65 Q 450 52 442 46 Q 434 40 422 38 Q 409 36 381 36 L 281 36 Q 267 36 251 36 Q 235 35 221 39 Q 207 44 206 61 Q 206 78 214 85 Q 221 92 234 93 Q 248 94 271 94 L 321 95 Q 363 95 366 98 Q 369 101 369 104 Q 369 114 349 113 L 298 113 Q 260 113 231 111 Q 217 110 210 114 Q 203 119 202 132 Q 201 146 209 151 Q 216 155 223 155 Q 263 153 290 154 Z" fill="black" />
  </g>
  <g class="defect" id="01">
    <path d="M 28 262 Q 17 272 43 276" fill="none" stroke="red" stroke-width="3" />
  </g>
  <g class="defect" id="02">
    <path d="M 418 391 Q 397 389 428 376" fill="none" stroke="red" stroke-width="3" />
  </g>
  <g class="defect" id="03">
    <path d="M 217 19 Q 240 -3 233 16" fill="none" stroke="red" stroke-width="3" />
  </g>
</svg>