<svg xmlns="http://www.w3.org/2000/svg" width="512" height="512" viewBox="0 0 512 512">
  <g class="glyph">
    <path d="M 483 270 V 273 L 482 408 Q 482 448 476 465 Q 470 483 450 494 Q 429 505 379 505 Q 332 505 319 494 Q 307 483 304 477 Q 300 471 295 456 Q 290 440 289 441 L 285 462 Q 283 471 277 479 Q 270 488 263 493 Q 256 499 246 501 Q 236 504 211 504 Q 183 505 175 503 L 142 494 L 118 503 Q 109 506 95 506 Q 33 507 29 478 Q 26 450 27 437 V 388 L 28 222 L 31 181 Q 29 177 28 175 Q 27 173 13 161 Q 0 148 0 114 Q 0 79 15 64 Q 21 59 30 54 Q 39 50 46 50 L 76 49 Q 80 49 84 44 L 95 26 Q 99 21 116 11 Q 134 0 167 0 Q 187 0 202 6 Q 217 11 224 20 L 241 44 Q 248 49 261 49 Q 275 49 283 41 L 295 24 Q 311 0 351 1 Q 372 1 393 8 Q 414 16 422 27 L 435 45 Q 437 48 439 48 L 468 52 Q 481 54 493 64 Q 505 75 506 83 Q 508 91 508 91 L 509 93 Q 512 98 511 111 Q 510 134 507 145 Q 504 156 498 163 L 485 177 Q 482 183 482 185 Z M 295 65 288 68 252 70 245 70 Q 235 70 227 63 L 212 39 Q 205 29 195 24 Q 185 20 171 20 Q 150 20 136 25 Q 122 31 116 36 Q 110 42 109 47 L 107 65 Q 105 70 95 70 L 61 70 Q 43 70 33 78 Q 24 86 24 113 Q 38 139 31 146 Q 38 154 42 153 Q 44 153 46 153 L 60 144 Q 72 137 108 137 H 215 Q 243 137 254 143 L 275 156 Q 278 157 279 157 Q 283 158 293 154 Q 304 151 316 151 H 353 L 385 138 Q 396 134 410 134 Q 439 136 453 145 Q 468 154 472 153 Q 475 153 482 146 Q 490 140 488 113 Q 488 101 483 87 Q 479 73 453 72 L 418 70 Q 415 70 413 68 Q 411 66 410 58 Q 410 51 409 46 Q 407 41 393 31 Q 379 20 351 21 Q 324 22 314 36 Z M 253 261 255 211 258 187 Q 257 157 214 157 L 135 158 Q 115 171 86 159 Q 75 161 67 168 Q 60 176 55 187 Q 51 199 51 238 L 50 438 Q 49 457 53 468 Q 57 478 68 482 Q 80 485 96 486 Q 112 486 119 480 Q 126 473 126 470 L 123 440 Q 123 437 123 432 Q 123 428 126 416 Q 130 403 129 401 Q 128 397 125 395 L 109 387 Q 117 382 95 374 Q 89 365 89 351 Q 88 336 103 320 Q 113 309 124 308 L 140 307 Q 146 306 146 301 Q 147 297 145 293 Q 143 290 126 283 Q 110 276 104 266 Q 97 256 97 246 Q 97 235 106 219 Q 119 197 142 195 Q 157 194 182 205 Q 206 215 216 224 Q 225 234 226 250 Q 227 265 215 283 Q 205 298 190 301 Q 176 304 174 305 Q 173 307 172 310 Q 172 312 176 316 L 199 329 Q 209 335 214 343 Q 218 352 219 368 Q 219 383 206 396 Q 193 409 182 409 Q 181 409 181 409 L 160 407 Q 155 408 150 412 Q 145 416 145 436 Q 145 442 146 453 Q 147 464 157 474 Q 167 483 204 483 Q 240 483 252 472 Q 265 460 265 440 Q 265 419 263 413 L 254 392 Q 251 385 252 375 Z M 110 353 Q 110 360 115 367 Q 120 373 145 382 Q 170 390 176 390 Q 183 391 190 384 Q 198 376 198 366 Q 198 355 192 348 Q 187 342 165 333 Q 144 325 134 326 Q 124 328 117 335 Q 110 342 110 353 Z M 119 243 Q 119 253 123 258 Q 128 263 147 273 Q 167 284 180 282 Q 195 280 200 269 Q 205 258 205 252 Q 204 243 199 237 Q 193 232 174 222 Q 155 213 143 214 Q 134 216 126 224 Q 118 231 119 243 Z M 276 319 275 364 Q 275 389 285 399 Q 295 410 318 410 Q 326 410 340 408 Q 354 405 360 399 Q 365 393 368 385 Q 370 376 370 338 L 370 236 L 370 220 L 371 217 L 369 207 L 368 199 Q 367 190 358 182 Q 349 173 329 173 Q 300 172 288 184 Q 277 195 277 210 Z M 460 351 460 227 Q 460 196 459 190 Q 458 185 455 179 Q 451 173 446 167 Q 440 161 416 159 Q 391 156 387 161 Q 383 166 383 168 Q 383 169 384 171 L 391 187 Q 392 193 392 202 L 393 358 Q 393 385 390 394 Q 387 403 379 413 Q 372 422 347 428 Q 323 433 321 437 Q 318 440 319 450 Q 319 464 326 471 Q 333 477 343 480 Q 354 483 375 482 Q 380 482 400 482 Q 421 482 430 478 Q 440 475 450 465 Q 460 456 460 436 Z" fill="black" />
  </g>
  <g class="defect" id="01">
    <path d="M 109 387 Q 117 382 95 374" fill="none" stroke="red" stroke-width="3" />
  </g>
  <g class="defect" id="02">
    <path d="M 24 113 Q 38 139 31 146" fill="none" stroke="red" stroke-width="3" />
  </g>
  <g class="defect" id="03">
    <path d="M 135 158 Q 115 171 86 159" fill="none" stroke="red" stroke-width="3" />
  </g>
</svg>