<svg xmlns="http://www.w3.org/2000/svg" width="512" height="512" viewBox="0 0 512 512">
  <g class="glyph">
    <path d="M 190 121 Q 184 133 178 141 Q 173 149 172 149 Q 169 148 163 138 L 157 130 Q 154 126 154 124 Q 154 121 163 120 Q 164 120 168 121 Q 172 121 190 121 Z M 314 44 342 42 Q 345 42 348 40 L 363 20 Q 369 15 382 10 Q 395 5 417 5 Q 459 6 476 23 Q 493 40 494 67 L 494 104 L 493 403 Q 493 437 487 460 Q 481 484 457 493 Q 434 503 405 503 H 352 Q 307 503 290 474 Q 289 479 287 487 Q 285 496 271 504 Q 258 512 228 512 Q 213 512 201 508 Q 188 505 181 498 Q 173 491 171 476 Q 168 462 167 461 Q 166 461 157 477 Q 150 491 137 500 Q 124 509 101 509 Q 87 510 67 503 Q 47 497 40 480 Q 34 464 35 452 Q 35 440 41 427 L 46 415 Q 52 403 56 385 Q 60 367 60 361 L 61 339 Q 63 333 61 331 Q 60 331 57 331 H 50 Q 38 329 27 321 Q 15 312 8 298 Q 0 284 0 269 Q 0 255 3 245 Q 5 236 12 227 Q 18 218 28 212 Q 37 207 49 202 Q 60 196 71 191 Q 81 185 82 181 Q 82 176 76 166 Q 69 157 66 152 Q 63 147 61 146 Q 60 145 45 143 Q 30 140 22 125 Q 14 109 15 88 Q 15 61 24 51 Q 32 40 40 37 Q 49 34 68 33 L 95 33 Q 102 33 102 33 Q 103 32 107 25 Q 110 18 128 10 Q 146 2 163 1 Q 181 0 199 5 Q 217 11 222 17 L 235 32 Q 237 33 240 33 H 277 Q 295 33 314 44 Z M 293 367 Q 312 374 334 375 Q 355 376 367 363 Q 372 358 374 348 Q 377 339 377 315 L 378 149 Q 378 115 377 99 Q 376 84 368 75 Q 360 67 339 64 Q 334 64 328 64 Q 329 68 330 75 Q 332 82 333 96 Q 349 89 329 122 Q 323 134 316 139 Q 309 144 302 144 H 294 Q 291 145 289 146 Q 287 148 285 152 Q 282 157 277 166 V 180 Q 300 192 314 200 Q 327 207 339 222 Q 351 236 349 269 Q 347 286 342 298 Q 336 310 326 319 Q 315 328 306 330 Q 296 331 295 333 Q 293 335 293 344 Z M 277 125 Q 282 124 286 124 Q 291 125 292 124 Q 321 122 310 101 Q 311 81 309 73 Q 306 65 300 60 Q 294 56 274 54 H 223 Q 216 54 215 54 Q 214 53 213 44 Q 212 36 199 29 Q 185 22 163 23 Q 150 24 136 29 Q 122 34 121 44 Q 120 53 119 54 Q 118 54 115 54 H 62 Q 44 54 39 66 Q 35 77 34 92 Q 34 106 42 115 Q 49 124 60 124 H 71 L 90 157 L 115 188 L 83 207 L 41 226 Q 31 231 25 239 Q 20 247 19 267 Q 18 287 30 299 Q 35 303 44 307 Q 54 312 58 311 Q 60 311 62 309 Q 64 307 63 295 Q 63 283 68 273 Q 73 265 84 257 Q 95 249 114 249 Q 137 250 147 255 Q 156 260 157 260 L 180 243 L 201 256 Q 201 256 207 253 Q 212 250 229 250 Q 260 251 269 258 Q 279 266 284 275 Q 290 285 291 296 Q 291 307 293 308 Q 295 309 301 307 Q 311 303 315 298 Q 319 294 324 282 Q 329 270 328 258 Q 325 230 300 217 Q 276 205 263 199 Q 250 194 245 190 Q 240 187 240 183 Q 240 180 248 169 Q 249 167 255 156 L 270 131 Q 272 126 273 126 L 277 125 Z M 163 351 V 304 Q 163 292 157 284 Q 151 276 138 271 Q 126 266 113 267 Q 93 269 85 282 Q 77 295 78 310 L 78 333 Q 78 343 77 358 Q 75 373 73 387 Q 70 402 66 411 Q 63 420 58 433 Q 53 446 54 453 Q 64 447 64 476 Q 74 489 98 488 Q 122 487 135 470 Q 148 453 152 437 Q 157 421 160 396 Q 163 372 163 351 Z M 473 384 473 94 Q 472 60 470 52 Q 467 43 460 35 Q 452 27 422 27 Q 411 27 399 29 Q 387 31 381 36 Q 376 42 376 46 Q 376 50 378 53 L 387 61 Q 400 73 400 108 L 399 284 L 398 343 Q 398 363 385 377 Q 372 392 350 394 L 317 397 Q 313 398 308 403 Q 303 407 304 429 Q 304 445 309 462 Q 314 480 339 480 L 390 481 Q 431 482 450 472 Q 469 462 471 432 Z M 272 446 V 311 Q 272 297 265 284 Q 259 272 230 270 Q 186 268 186 312 V 456 Q 186 473 197 481 Q 207 490 233 489 Q 252 489 259 484 Q 266 479 269 471 Q 272 464 272 446 Z" fill="black" />
  </g>
  <g class="defect" id="01">
    <path d="M 333 96 Q 349 89 329 122" fill="none" stroke="red" stroke-width="3" />
  </g>
  <g class="defect" id="02">
    <path d="M 54 453 Q 64 447 64 476" fill="none" stroke="red" stroke-width="3" />
  </g>
  <g class="defect" id="03">
    <path d="M 292 124 Q 321 122 310 101" fill="none" stroke="red" stroke-width="3" />
  </g>
</svg>