<svg xmlns="http://www.w3.org/2000/svg" width="512" height="512" viewBox="0 0 512 512">
  <g class="glyph">
    <path d="M 127 231 Q 127 219 131 216 Q 134 213 142 213 Q 149 212 152 215 Q 155 218 155 226 Q 154 230 153 237 Q 152 244 149 247 Q 146 250 140 250 Q 128 249 127 231 Z M 147 136 Q 147 134 149 129 Q 152 123 155 120 Q 157 118 169 116 Q 180 115 184 121 Q 188 127 183 136 Q 179 142 163 143 Q 147 145 147 136 Z M 212 235 Q 212 221 216 217 Q 220 213 227 213 Q 238 214 239 233 Q 241 252 222 250 Q 212 249 212 235 Z M 506 200 Q 504 235 502 255 Q 501 275 499 293 L 494 332 Q 492 343 492 350 Q 492 357 494 361 Q 495 363 499 369 Q 503 375 506 382 Q 509 388 511 398 Q 512 407 504 431 Q 495 457 483 476 Q 451 495 448 502 Q 425 508 382 507 L 254 507 Q 213 507 197 502 Q 181 497 170 485 Q 158 474 155 474 Q 151 475 145 479 L 120 496 Q 101 509 80 510 Q 54 510 40 497 Q 26 484 19 474 Q 12 464 9 455 Q 6 445 6 432 Q 6 419 11 409 Q 12 407 17 399 Q 23 391 25 389 L 58 363 Q 76 350 74 344 Q 73 338 68 336 L 54 329 Q 45 324 37 310 Q 28 297 28 286 Q 28 275 28 275 L 29 245 Q 29 232 26 228 Q 24 224 12 212 Q 0 199 0 181 Q 0 163 3 154 Q 7 142 11 136 Q 16 130 27 118 Q 39 106 49 90 Q 59 75 69 54 Q 80 32 90 17 Q 101 1 144 0 Q 165 0 181 7 Q 198 13 205 20 L 215 30 Q 219 33 224 33 L 254 36 L 272 40 Q 278 41 285 36 L 296 24 Q 302 20 315 14 Q 327 9 344 9 Q 359 9 375 14 Q 390 18 398 25 Q 407 33 410 41 Q 414 50 415 63 Q 416 76 419 78 Q 422 80 426 81 Q 430 82 451 85 Q 472 89 483 102 Q 495 115 500 131 Q 506 147 506 168 Z M 77 82 Q 63 105 54 116 L 31 145 Q 23 158 22 175 Q 21 192 34 203 L 45 212 Q 49 217 49 222 V 265 Q 49 278 51 288 Q 54 299 62 309 Q 70 319 87 320 Q 105 321 106 323 Q 108 325 109 331 Q 110 336 100 349 Q 85 368 63 384 Q 41 401 34 408 Q 27 416 26 435 Q 26 455 43 472 Q 60 489 79 488 Q 89 488 96 484 Q 104 480 118 471 Q 133 461 141 452 Q 149 442 150 421 L 150 345 Q 150 324 153 307 Q 155 290 180 284 Q 205 278 222 280 Q 238 283 242 282 Q 246 281 251 277 Q 256 273 265 251 Q 274 228 274 217 Q 273 211 270 206 L 254 194 Q 247 188 242 175 Q 237 162 237 145 Q 237 122 244 111 Q 252 100 257 96 L 274 86 Q 284 76 272 64 Q 261 55 242 54 L 217 54 Q 212 54 207 53 Q 202 52 199 49 L 194 39 Q 191 34 182 27 Q 172 20 149 20 Q 124 20 113 27 Q 103 34 97 45 Z M 252 486 378 487 402 487 Q 443 488 460 471 Q 466 465 474 451 Q 483 436 486 423 Q 488 410 488 404 Q 488 389 476 376 Q 465 363 438 362 Q 413 361 403 380 L 391 405 Q 390 407 386 410 Q 381 412 375 413 Q 361 413 350 411 L 333 406 Q 331 406 331 406 Q 328 406 312 415 Q 297 423 286 424 Q 278 424 263 420 Q 248 416 233 405 Q 217 394 214 382 Q 210 369 210 359 Q 209 349 211 343 Q 213 336 222 324 Q 231 311 230 305 Q 230 299 210 297 Q 190 296 179 308 Q 172 316 170 325 L 169 342 Q 168 347 168 348 L 169 353 L 169 417 Q 168 437 173 454 Q 177 471 194 478 Q 212 485 252 486 Z M 391 225 385 286 Q 383 300 379 303 Q 376 306 371 307 L 352 309 Q 346 312 338 320 Q 330 329 329 351 Q 329 373 339 384 Q 350 394 363 393 Q 370 393 373 391 Q 376 389 380 384 L 393 365 Q 412 340 445 344 Q 449 344 455 346 Q 462 347 464 347 Q 472 345 473 336 Q 475 327 477 307 L 482 261 Q 482 261 483 225 Q 485 189 485 179 Q 486 169 484 156 Q 482 139 474 122 Q 466 106 437 104 L 408 103 Q 401 103 399 100 Q 396 97 395 93 L 394 63 Q 391 28 345 30 Q 322 31 312 40 Q 303 49 302 60 L 300 89 Q 300 95 298 97 Q 296 99 294 100 L 276 105 Q 256 112 255 139 Q 254 166 263 177 Q 268 183 274 186 L 290 191 Q 294 193 294 200 Q 294 204 294 207 L 292 218 L 290 228 Q 286 248 275 272 Q 263 295 249 315 Q 235 335 232 340 Q 229 346 229 360 Q 228 374 243 389 Q 257 404 277 405 Q 297 405 306 397 Q 314 388 314 382 Q 314 381 312 372 Q 311 363 311 360 Q 311 356 311 350 Q 311 337 314 326 Q 317 315 324 307 Q 331 299 340 295 L 357 290 Q 360 289 364 285 Q 368 282 369 256 L 373 199 Q 373 195 376 193 Q 378 190 382 190 Q 386 190 389 193 Q 391 196 391 198 Z" fill="black" />
  </g>
  <g class="defect" id="01">
    <path d="M 483 476 Q 451 495 448 502" fill="none" stroke="red" stroke-width="3" />
  </g>
</svg>