<svg xmlns="http://www.w3.org/2000/svg" width="512" height="512" viewBox="0 0 512 512">
  <g class="glyph">
    <path d="M 211 201 319 202 Q 335 202 340 203 Q 345 204 345 210 Q 346 216 342 219 Q 339 223 334 222 L 236 221 L 189 221 Q 160 220 155 218 Q 149 217 149 210 Q 149 200 168 200 Z M 246 173 177 172 Q 155 171 152 169 Q 149 166 149 159 Q 149 152 166 152 L 296 154 Q 335 154 340 155 Q 345 156 345 162 Q 345 168 342 171 Q 339 174 332 174 Z M 269 116 H 236 Q 218 116 215 113 Q 212 110 213 106 Q 213 103 215 100 Q 218 96 251 96 Q 273 97 276 100 Q 279 103 279 107 Q 279 110 276 113 Q 273 116 269 116 Z M 46 203 V 165 Q 46 147 44 145 Q 42 143 40 142 L 25 134 Q 0 121 0 81 Q 0 41 20 32 Q 39 23 68 22 Q 97 22 99 22 L 129 6 Q 143 0 169 0 Q 201 0 216 10 L 231 20 Q 237 23 249 23 Q 254 24 258 22 L 280 9 Q 295 2 328 2 Q 361 2 376 11 Q 391 21 394 22 Q 396 23 415 23 L 441 24 Q 465 25 479 39 Q 494 54 494 82 Q 494 110 483 125 Q 478 133 470 136 L 452 145 Q 447 148 447 155 V 196 Q 447 209 450 211 Q 452 214 454 215 L 469 222 Q 479 227 484 235 Q 489 244 491 251 Q 493 259 494 275 Q 494 292 488 303 L 479 318 Q 478 321 477 322 Q 477 323 487 339 Q 497 355 496 370 Q 495 403 483 416 Q 471 429 462 435 Q 453 441 445 443 L 424 446 Q 420 447 417 449 L 403 479 Q 398 490 387 496 Q 376 503 367 506 Q 358 508 335 508 H 294 Q 278 508 270 507 Q 261 506 253 500 Q 246 495 243 491 L 233 477 Q 230 474 228 474 Q 227 474 224 475 L 195 490 Q 184 496 160 504 Q 136 511 114 512 Q 100 512 87 507 Q 73 502 65 488 Q 58 474 56 468 L 51 443 Q 50 440 48 437 L 27 421 Q 21 417 11 400 Q 0 383 0 357 Q 0 345 8 332 Q 16 319 16 316 Q 15 316 15 314 L 7 300 Q 0 286 1 266 Q 2 249 8 237 Q 15 225 26 220 L 41 213 Q 46 209 46 203 Z M 128 309 160 309 Q 165 309 170 305 L 180 296 Q 196 283 232 283 Q 247 283 260 286 Q 272 288 279 292 L 297 305 Q 301 307 306 308 Q 321 295 316 307 Q 326 307 345 308 Q 363 309 378 312 Q 393 314 404 325 Q 414 337 418 349 Q 422 360 421 369 L 421 372 L 419 411 Q 419 412 419 417 Q 438 406 431 423 Q 444 423 459 409 Q 474 395 473 371 Q 492 361 454 339 L 424 324 Q 410 317 411 315 Q 411 312 413 310 L 451 307 Q 465 305 468 294 Q 470 283 470 275 Q 470 267 469 259 Q 469 252 463 245 Q 457 239 451 239 Q 446 239 441 243 L 430 261 Q 417 278 373 277 L 311 277 Q 270 276 268 274 Q 267 272 266 266 Q 266 261 272 260 Q 278 258 319 258 H 363 Q 390 258 399 256 Q 407 254 413 248 Q 420 242 422 229 Q 424 217 425 205 Q 425 193 425 191 L 424 149 Q 423 135 417 127 Q 410 119 403 117 L 377 112 Q 374 110 373 103 Q 373 97 388 97 Q 396 97 406 98 Q 415 99 423 104 L 444 119 Q 453 122 462 114 Q 470 107 471 86 Q 472 65 462 55 Q 456 50 448 48 Q 439 47 433 46 L 397 47 Q 381 46 375 42 L 367 33 Q 357 25 329 25 Q 306 25 296 27 Q 287 30 284 33 L 276 42 L 247 46 L 226 50 Q 220 48 215 42 L 210 34 Q 200 24 168 23 Q 136 23 127 32 L 119 41 Q 115 45 111 45 L 60 44 Q 39 44 32 51 Q 26 58 24 65 Q 22 72 23 83 Q 23 90 24 98 Q 25 106 31 112 Q 38 118 46 118 Q 48 119 50 118 L 73 102 Q 83 95 103 95 Q 119 96 119 105 Q 119 109 115 112 L 95 115 Q 85 117 76 128 Q 68 138 68 155 L 68 202 Q 68 225 72 232 Q 75 240 83 248 Q 90 256 109 256 L 135 257 Q 155 258 157 260 Q 158 261 158 264 Q 159 267 154 271 Q 149 276 134 276 Q 103 275 94 274 Q 84 273 75 267 Q 66 262 63 258 L 46 239 Q 39 235 31 243 Q 23 250 24 274 Q 24 280 26 294 Q 29 307 62 307 L 74 307 Q 86 307 86 311 Q 85 316 74 320 L 50 329 Q 32 336 27 343 Q 22 350 22 368 Q 22 386 35 399 Q 48 413 54 412 Q 56 412 58 411 L 72 402 L 93 394 Q 95 391 96 387 L 92 365 Q 91 362 92 357 Q 92 331 103 320 Q 114 310 128 309 Z M 296 486 H 348 Q 365 486 375 478 Q 384 471 389 455 Q 394 440 395 428 L 399 388 Q 399 386 399 381 L 398 365 Q 396 350 385 340 Q 374 329 353 328 L 326 328 L 285 326 Q 281 326 280 324 L 271 314 Q 262 304 234 304 Q 205 304 196 314 L 189 322 Q 185 326 180 326 H 144 Q 112 326 112 358 Q 112 375 118 381 Q 124 387 127 388 Q 129 389 141 390 Q 153 392 149 397 Q 145 402 129 406 L 102 412 Q 86 415 80 422 Q 74 428 74 442 Q 74 455 80 468 Q 84 478 91 484 Q 97 490 113 490 Q 127 492 151 484 Q 174 476 185 471 Q 196 466 211 455 Q 225 445 229 438 L 236 412 Q 240 405 248 399 Q 256 393 266 391 L 285 391 Q 299 390 303 393 Q 306 396 306 401 Q 306 408 297 410 L 271 411 Q 263 413 257 419 Q 252 424 252 445 Q 252 452 253 462 Q 254 471 260 477 Q 266 483 272 485 Q 277 486 296 486 Z" fill="black" />
  </g>
  <g class="defect" id="01">
    <path d="M 473 371 Q 492 361 454 339" fill="none" stroke="red" stroke-width="3" />
  </g>
  <g class="defect" id="02">
    <path d="M 419 417 Q 438 406 431 423" fill="none" stroke="red" stroke-width="3" />
  </g>
  <g class="defect" id="03">
    <path d="M 306 308 Q 321 295 316 307" fill="none" stroke="red" stroke-width="3" />
  </g>
</svg>