<svg xmlns="http://www.w3.org/2000/svg" width="512" height="512" viewBox="0 0 512 512">
  <g class="glyph">
    <path d="M 340 0 415 0 Q 442 1 454 3 Q 467 6 482 22 Q 498 37 498 78 Q 498 100 488 123 Q 478 146 448 146 L 416 148 Q 410 148 406 153 Q 401 158 401 166 Q 401 175 405 180 Q 408 184 428 187 Q 447 190 459 198 Q 472 205 481 217 Q 491 228 492 245 Q 493 261 486 291 Q 480 314 469 332 Q 457 351 459 356 Q 460 361 464 365 L 476 373 Q 492 384 496 403 Q 501 421 501 448 Q 501 474 481 494 Q 470 505 456 508 Q 442 511 438 511 L 337 512 L 125 511 Q 86 511 67 508 Q 47 505 23 489 Q 0 473 0 423 V 95 Q 0 55 9 38 Q 19 21 31 13 Q 27 -14 58 3 Q 73 1 96 0 Z M 138 490 372 490 396 490 Q 438 491 457 482 Q 477 473 476 434 Q 475 422 472 411 Q 469 400 462 393 Q 454 386 437 385 L 396 384 H 224 H 204 L 175 389 Q 139 394 108 363 Q 96 351 91 340 Q 67 329 86 316 Q 85 304 95 286 L 116 246 L 127 214 L 129 140 Q 129 135 132 132 Q 135 128 142 128 Q 149 128 152 132 Q 156 137 156 143 Q 156 149 156 151 L 154 188 L 152 207 L 138 248 L 123 279 L 114 297 Q 110 307 110 316 Q 110 335 126 351 Q 141 367 168 367 Q 185 367 196 357 Q 207 347 211 341 L 228 310 L 247 258 L 253 214 L 257 144 Q 257 135 262 130 Q 267 125 274 131 Q 278 135 278 151 L 278 174 V 279 Q 278 307 280 320 Q 283 334 293 345 Q 304 356 330 356 L 391 357 Q 420 357 433 345 Q 446 333 458 303 Q 470 274 469 254 Q 468 236 455 221 Q 442 205 411 207 Q 392 208 383 221 L 370 243 Q 361 252 357 247 Q 366 229 352 237 Q 351 231 360 217 L 378 187 L 380 139 Q 380 127 398 127 L 425 127 Q 454 126 464 116 Q 475 106 475 76 Q 475 44 464 35 Q 454 26 446 25 Q 438 23 343 22 L 89 21 Q 65 21 53 27 Q 42 32 31 48 Q 21 63 21 105 L 22 385 Q 22 420 25 438 Q 29 457 43 473 Q 57 488 91 489 Z M 247 362 Q 261 364 263 360 Q 266 357 267 354 Q 267 350 263 341 Q 260 335 259 327 Q 258 319 255 316 Q 253 313 249 318 Q 245 324 239 337 Q 232 350 232 353 Q 232 356 232 356 Q 232 361 247 362 Z" fill="black" />
  </g>
  <g class="defect" id="01">
    <path d="M 91 340 Q 67 329 86 316" fill="none" stroke="red" stroke-width="3" />
  </g>
  <g class="defect" id="02">
    <path d="M 357 247 Q 366 229 352 237" fill="none" stroke="red" stroke-width="3" />
  </g>
  <g class="defect" id="03">
    <path d="M 31 13 Q 27 -14 58 3" fill="none" stroke="red" stroke-width="3" />
  </g>
</svg>