<svg xmlns="http://www.w3.org/2000/svg" width="512" height="512" viewBox="0 0 512 512">
  <g class="glyph">
    <path d="M 245 214 Q 246 207 249 203 Q 251 199 266 197 Q 280 195 280 215 Q 279 222 277 226 Q 274 229 261 231 Q 248 233 247 225 Q 245 216 245 214 Z M 260 112 Q 271 112 276 115 Q 280 119 280 128 Q 280 137 278 140 Q 275 143 265 145 Q 254 148 248 140 Q 246 137 246 134 Q 245 132 245 126 Q 245 120 248 116 Q 251 113 260 112 Z M 217 28 Q 230 26 271 26 Q 315 26 333 32 Q 348 24 368 24 L 445 24 Q 463 24 478 33 Q 493 41 494 43 L 511 94 L 512 149 L 511 231 L 510 357 Q 511 386 508 400 Q 505 414 495 426 Q 485 438 471 442 L 453 446 Q 451 447 449 449 Q 447 451 446 456 L 442 472 Q 439 484 428 493 Q 417 503 378 504 Q 338 506 327 492 Q 316 478 315 463 L 315 457 Q 297 464 247 477 Q 196 491 177 485 Q 164 503 133 502 Q 116 501 101 495 Q 86 490 75 480 Q 63 469 63 455 Q 63 440 61 438 Q 60 436 54 434 L 44 431 Q 29 428 15 412 Q -16 396 0 369 Q 0 342 8 330 L 20 312 Q 22 308 22 302 Q 23 296 23 284 L 23 106 Q 23 85 33 69 Q 23 63 61 45 L 91 30 L 126 14 Q 150 3 160 2 Q 170 0 179 2 Q 201 6 217 28 Z M 126 172 123 285 Q 122 306 118 310 Q 114 313 110 314 Q 106 314 104 311 Q 102 309 101 306 L 102 283 L 106 166 L 106 144 L 107 129 Q 107 120 108 114 Q 108 109 121 95 Q 133 80 168 84 Q 169 73 171 63 Q 173 54 180 49 L 192 38 Q 179 26 167 25 Q 156 25 136 34 L 84 58 Q 59 69 52 80 Q 46 90 46 111 L 45 303 Q 45 322 42 325 L 31 335 Q 26 341 24 349 Q 23 357 23 376 Q 22 395 37 405 Q 49 414 53 412 Q 66 409 79 408 Q 93 407 93 412 Q 93 416 93 418 Q 84 441 83 448 Q 82 455 93 465 Q 100 472 112 476 Q 123 480 133 481 Q 148 482 151 478 L 158 471 Q 150 454 146 441 Q 142 428 142 405 Q 142 381 151 374 L 166 358 L 168 106 Q 145 104 137 111 Q 129 119 127 132 L 126 172 Z M 487 336 488 110 Q 489 88 484 67 Q 478 46 438 45 L 401 44 Q 372 43 354 49 Q 360 55 364 60 Q 367 65 368 75 Q 369 85 369 110 L 367 252 Q 367 265 364 275 L 359 286 L 356 296 Q 359 308 361 317 Q 363 326 363 337 Q 363 348 362 363 Q 361 379 361 401 Q 360 423 355 427 L 336 447 Q 338 470 345 476 Q 351 483 369 484 Q 401 487 411 476 Q 422 465 421 454 Q 420 448 415 445 L 395 437 Q 391 434 384 425 Q 376 415 375 380 Q 374 344 388 329 L 397 319 Q 401 314 402 303 V 281 L 402 172 Q 402 148 406 144 Q 409 141 413 141 Q 416 141 419 144 Q 422 146 423 154 L 422 200 V 313 Q 422 334 420 336 L 408 344 Q 397 352 397 374 Q 397 395 400 405 Q 402 414 408 419 Q 413 424 428 424 Q 455 426 465 421 Q 474 416 475 414 L 486 383 Z M 252 454 Q 276 447 299 440 Q 322 433 330 420 Q 337 407 338 395 Q 340 383 340 361 Q 339 341 338 330 Q 338 319 331 311 Q 325 303 304 303 Q 295 303 288 304 Q 280 306 277 311 Q 274 316 273 324 Q 273 331 272 345 Q 271 359 265 361 Q 260 362 256 355 Q 253 352 253 342 L 252 324 Q 252 320 253 310 Q 255 301 262 293 Q 269 284 292 282 Q 305 280 317 282 Q 330 284 334 281 Q 339 279 341 265 Q 344 251 344 232 L 345 107 Q 345 77 337 66 Q 344 54 315 50 Q 301 47 270 47 H 246 Q 219 48 207 56 Q 195 65 192 79 Q 188 94 188 110 V 116 L 187 319 Q 187 345 187 356 Q 186 367 184 370 L 175 379 Q 169 385 167 395 Q 165 405 165 413 Q 165 426 169 439 Q 173 453 184 460 Q 194 468 224 461 Z" fill="black" />
  </g>
  <g class="defect" id="01">
    <path d="M 337 66 Q 344 54 315 50" fill="none" stroke="red" stroke-width="3" />
  </g>
  <g class="defect" id="02">
    <path d="M 15 412 Q -16 396 0 369" fill="none" stroke="red" stroke-width="3" />
  </g>
  <g class="defect" id="03">
    <path d="M 33 69 Q 23 63 61 45" fill="none" stroke="red" stroke-width="3" />
  </g>
</svg>