<svg xmlns="http://www.w3.org/2000/svg" width="512" height="512" viewBox="0 0 512 512">
  <g class="glyph">
    <path d="M 153 144 Q 154 139 157 137 Q 159 134 178 134 Q 202 133 206 137 Q 210 140 210 144 Q 210 149 206 153 Q 202 156 184 156 Q 181 156 169 156 Q 157 157 155 151 Q 153 145 153 144 Z M 154 216 Q 155 205 174 206 Q 194 206 197 209 Q 199 212 200 219 Q 200 226 181 226 Q 161 226 158 223 Q 155 221 155 219 Q 154 216 154 216 Z M 292 217 Q 292 207 318 206 Q 344 205 348 209 Q 352 213 352 217 Q 352 221 349 224 Q 344 229 316 228 Q 295 228 293 223 Q 291 219 292 217 Z M 299 145 Q 299 133 319 134 Q 346 134 349 138 Q 351 142 351 146 Q 351 155 339 156 L 321 156 Q 308 157 304 153 Q 301 151 300 148 Q 299 145 299 145 Z M 465 141 465 233 Q 465 261 464 266 L 455 293 Q 455 295 455 296 Q 455 299 456 300 Q 457 301 458 302 L 472 306 Q 481 310 491 325 Q 501 339 501 358 Q 501 377 500 382 Q 498 406 485 418 Q 472 431 446 433 H 397 Q 390 434 387 436 Q 385 438 384 442 L 380 470 Q 377 486 362 499 Q 347 512 313 512 Q 303 512 287 510 Q 270 508 259 497 Q 247 486 244 469 L 242 443 Q 240 439 239 437 Q 237 435 234 435 Q 230 434 188 434 L 70 434 Q 46 434 23 424 Q 0 414 0 387 Q 0 359 2 349 Q 5 332 11 322 Q 17 312 24 309 L 45 300 Q 47 298 48 297 Q 48 296 44 279 Q 39 263 39 251 Q 38 238 39 216 L 39 146 Q 39 110 41 96 Q 44 81 61 63 Q 79 44 112 43 L 147 43 Q 155 41 160 37 L 171 22 Q 176 16 189 8 Q 202 1 242 0 Q 282 0 300 27 Q 307 37 310 40 Q 314 43 323 43 L 374 43 Q 423 43 443 63 Q 463 83 464 111 Z M 116 414 216 413 Q 255 413 259 417 Q 262 421 262 425 L 262 456 Q 262 472 271 482 Q 280 492 310 491 Q 342 491 352 481 Q 375 453 362 454 L 363 421 Q 373 417 370 415 Q 377 413 426 414 Q 449 414 465 410 Q 480 406 480 374 Q 466 384 479 355 Q 478 341 470 332 Q 462 322 432 322 H 393 Q 367 322 362 314 L 360 295 Q 357 269 317 269 Q 304 269 293 270 Q 282 272 274 279 Q 267 286 266 298 L 265 319 Q 262 338 232 361 Q 203 383 183 383 Q 164 383 144 372 Q 125 360 121 350 L 111 327 Q 105 322 81 322 Q 61 322 49 323 Q 38 323 33 329 Q 27 334 23 344 Q 20 354 20 383 Q 19 412 58 413 Z M 446 206 446 138 Q 446 107 441 93 Q 436 79 422 71 Q 407 63 376 62 L 305 62 Q 293 62 290 58 L 286 41 Q 284 36 274 28 Q 264 20 231 20 Q 197 21 186 35 L 174 56 Q 169 62 164 62 L 119 62 Q 80 63 69 83 Q 59 103 59 168 L 59 246 Q 59 274 72 287 Q 85 300 107 300 Q 117 300 124 296 L 149 276 Q 154 274 157 277 Q 160 280 161 283 Q 162 287 148 300 Q 134 314 135 326 Q 135 338 147 351 Q 159 365 181 364 Q 195 364 202 360 Q 209 355 220 346 Q 230 336 237 327 Q 244 318 246 309 L 247 292 Q 248 284 252 277 Q 255 269 267 258 Q 278 247 321 249 Q 348 251 359 259 Q 371 268 377 283 Q 382 299 385 301 Q 388 303 399 303 Q 420 301 430 291 Q 440 280 443 268 Q 445 255 446 206 Z" fill="black" />
  </g>
  <g class="defect" id="01">
    <path d="M 363 421 Q 373 417 370 415" fill="none" stroke="red" stroke-width="3" />
  </g>
  <g class="defect" id="02">
    <path d="M 352 481 Q 375 453 362 454" fill="none" stroke="red" stroke-width="3" />
  </g>
  <g class="defect" id="03">
    <path d="M 480 374 Q 466 384 479 355" fill="none" stroke="red" stroke-width="3" />
  </g>
</svg>