<svg xmlns="http://www.w3.org/2000/svg" width="512" height="512" viewBox="0 0 512 512">
  <g class="glyph">
    <path d="M 25 150 V 103 Q 25 65 35 51 Q 45 37 58 32 Q 70 26 97 25 Q 119 25 132 32 Q 145 40 147 38 Q 148 38 151 30 Q 153 22 162 15 Q 171 9 181 4 Q 192 0 213 0 Q 240 0 258 8 Q 276 15 282 25 Q 288 36 287 43 Q 287 51 287 54 Q 288 56 291 55 Q 292 55 293 49 Q 293 42 300 32 Q 307 21 315 11 Q 323 1 352 2 Q 372 2 382 8 Q 409 -5 413 34 Q 435 53 440 68 Q 445 83 447 84 Q 448 85 460 86 Q 471 87 480 94 Q 489 101 495 111 Q 500 122 500 145 Q 499 166 496 180 Q 493 195 489 200 Q 486 206 480 211 Q 475 215 474 217 L 474 231 Q 473 235 469 244 L 459 268 Q 454 279 443 299 Q 432 320 425 333 Q 419 346 420 351 Q 422 357 432 362 Q 442 367 456 374 Q 471 381 487 394 Q 504 406 502 440 Q 501 458 492 474 Q 483 491 471 500 Q 458 509 435 510 Q 411 512 397 506 Q 382 500 354 482 Q 326 463 318 457 Q 310 450 307 451 Q 305 452 300 455 Q 295 459 251 477 Q 207 496 192 499 Q 178 502 161 502 Q 142 503 131 497 Q 120 491 118 491 Q 115 491 106 495 Q 97 498 89 499 Q 73 500 47 491 Q 22 481 12 464 Q 2 447 1 434 Q 0 420 4 408 Q 8 398 32 365 Q 56 332 75 294 Q 94 255 97 240 Q 101 225 103 219 Q 105 213 103 211 Q 101 208 97 208 H 74 Q 51 208 42 202 Q 33 197 29 185 Q 25 173 25 150 Z M 422 290 441 248 Q 449 230 448 221 Q 447 212 442 207 Q 437 202 414 200 Q 406 198 388 198 H 249 Q 241 198 240 197 Q 240 195 239 193 Q 239 191 240 187 Q 242 183 244 181 Q 245 180 273 180 H 388 Q 425 180 438 183 Q 451 185 456 190 Q 461 195 463 195 Q 466 194 470 183 Q 474 172 476 165 Q 462 158 477 145 Q 477 130 473 121 Q 469 112 463 109 L 451 108 Q 441 106 439 107 L 436 118 Q 435 121 424 133 Q 413 145 388 147 Q 376 148 366 145 Q 357 142 345 132 Q 333 122 327 116 Q 322 111 319 108 Q 316 106 312 106 H 275 Q 269 106 268 104 Q 266 103 266 95 V 65 Q 266 46 263 41 Q 259 35 245 27 Q 232 20 198 22 Q 164 24 164 62 L 165 92 Q 165 104 162 105 L 154 106 Q 147 106 145 103 Q 142 101 143 83 Q 145 66 138 60 Q 134 56 119 52 Q 104 48 90 46 Q 77 45 64 53 Q 54 60 50 70 Q 47 79 47 92 L 46 156 Q 46 163 47 169 Q 49 176 56 182 Q 63 188 119 187 Q 122 187 127 186 Q 132 185 135 188 Q 137 192 130 203 Q 125 212 119 242 Q 112 273 93 310 Q 74 348 53 375 Q 32 403 27 412 Q 22 422 22 430 Q 23 442 37 454 Q 50 467 69 471 Q 88 476 98 476 Q 108 475 108 474 Q 108 472 103 465 Q 101 463 100 455 L 97 445 Q 95 438 96 429 Q 96 409 107 397 Q 117 384 128 380 L 169 365 L 184 356 Q 196 349 196 346 Q 197 343 192 335 Q 188 328 179 318 Q 171 307 168 299 Q 165 291 166 281 Q 168 257 187 242 Q 207 227 232 226 Q 258 225 275 241 Q 294 261 301 261 L 328 262 Q 328 263 328 265 Q 328 267 324 273 L 315 287 Q 310 294 306 296 Q 305 296 277 270 Q 248 243 234 243 Q 225 243 214 248 Q 203 253 195 261 Q 186 270 185 284 Q 183 297 208 323 L 237 352 L 202 370 L 142 396 Q 122 404 119 414 Q 115 423 116 431 Q 117 442 121 454 Q 126 466 133 473 Q 140 480 164 480 Q 174 480 185 477 Q 196 475 219 466 Q 242 457 266 445 Q 290 433 297 427 Q 304 422 307 421 Q 309 420 316 425 Q 322 429 327 433 L 353 453 Q 367 463 392 476 Q 416 488 438 486 Q 454 484 466 473 Q 479 462 479 445 Q 479 429 475 422 Q 472 416 464 411 Q 456 405 434 392 Q 412 378 398 371 Q 383 364 382 359 Q 381 353 390 343 Q 395 337 405 321 L 416 301 Z M 351 23 Q 336 25 325 36 Q 313 48 313 58 Q 313 69 329 89 Q 345 108 360 119 Q 375 130 386 129 Q 398 128 410 115 Q 423 103 423 90 Q 422 80 415 71 Q 408 61 394 46 Q 380 31 371 26 Q 362 21 351 23 Z" fill="black" />
  </g>
  <g class="defect" id="01">
    <path d="M 476 165 Q 462 158 477 145" fill="none" stroke="red" stroke-width="3" />
  </g>
  <g class="defect" id="02">
    <path d="M 382 8 Q 409 -5 413 34" fill="none" stroke="red" stroke-width="3" />
  </g>
  <g class="defect" id="03">
    <path d="M 414 200 Q 406 198 388 198" fill="none" stroke="red" stroke-width="3" />
  </g>
</svg>