<svg xmlns="http://www.w3.org/2000/svg" width="512" height="512" viewBox="0 0 512 512">
  <g class="glyph">
    <path d="M 351 206 343 164 Q 341 156 341 150 Q 342 144 344 140 Q 347 137 357 137 Q 378 137 386 138 Q 395 139 396 142 Q 398 144 396 154 Q 395 155 395 164 Q 394 172 388 193 Q 383 214 382 217 Q 381 220 377 233 Q 372 245 367 245 Q 361 245 359 235 L 353 217 Q 352 212 351 206 Z M 368 197 Q 370 197 373 190 Q 376 183 377 169 Q 377 155 371 154 Q 365 154 362 157 Q 360 160 360 166 Q 360 168 360 169 L 362 177 L 363 187 Q 366 197 368 197 Z M 502 125 497 172 490 217 479 260 467 299 Q 464 309 458 321 Q 453 332 453 336 Q 453 343 462 353 L 496 384 Q 510 402 511 418 Q 512 434 504 452 Q 497 469 487 480 Q 477 492 461 499 Q 445 506 436 506 Q 426 507 416 503 Q 406 499 388 482 Q 371 466 367 462 Q 363 459 357 463 L 324 486 Q 297 505 278 505 Q 260 504 249 498 Q 238 492 232 486 L 220 473 Q 218 472 216 471 Q 214 470 197 488 Q 187 498 171 501 Q 156 503 148 503 L 116 503 Q 101 503 98 503 Q 79 501 65 488 Q 51 475 49 454 L 47 437 Q 45 433 44 431 Q 23 429 23 417 Q 3 404 4 384 Q 4 365 7 356 L 24 303 Q 30 284 29 280 Q 29 276 28 274 Q 27 272 13 258 Q 0 245 0 212 Q 0 180 14 165 Q 26 152 47 150 Q 67 148 71 145 Q 75 141 75 118 L 75 71 Q 75 46 85 26 Q 95 5 142 3 Q 189 0 204 23 Q 213 37 215 39 Q 217 40 221 41 Q 224 42 240 42 Q 256 42 257 42 Q 261 41 264 40 L 275 33 Q 285 28 298 28 L 397 28 Q 441 29 454 33 Q 468 38 479 49 Q 490 59 495 73 Q 499 87 500 92 Z M 199 365 V 294 Q 181 255 201 264 Q 203 260 207 259 L 238 259 Q 250 259 252 256 Q 254 253 254 250 Q 255 246 253 233 L 244 185 Q 243 178 239 174 Q 235 170 207 170 Q 198 170 196 168 Q 193 165 193 159 Q 193 153 210 153 L 237 153 Q 259 153 269 144 Q 279 135 279 108 Q 278 82 269 73 Q 259 65 243 64 L 208 62 Q 200 62 198 60 Q 195 58 194 54 L 190 39 Q 182 23 148 23 Q 116 24 107 32 Q 99 41 97 50 Q 96 60 96 87 L 96 146 Q 97 162 93 166 Q 89 169 81 169 L 53 170 Q 39 170 29 181 Q 19 191 21 221 Q 22 235 26 241 Q 29 248 34 251 Q 39 255 41 255 Q 43 255 45 254 L 65 245 Q 75 242 98 242 Q 122 242 138 260 Q 154 278 154 293 Q 154 309 153 313 L 142 357 Q 139 368 138 369 L 139 375 Q 138 376 136 378 Q 133 380 129 398 Q 125 415 110 423 Q 95 432 85 434 Q 74 436 72 439 Q 69 441 69 448 Q 69 456 73 464 Q 76 471 82 478 Q 89 484 120 485 Q 152 486 164 483 Q 177 480 187 472 Q 197 463 198 426 Z M 52 284 35 339 Q 26 367 25 370 Q 25 372 25 377 Q 25 392 32 399 Q 39 406 50 410 Q 60 415 73 414 Q 90 414 100 405 Q 109 396 118 368 Q 126 339 130 322 Q 133 305 133 297 Q 133 282 124 271 Q 115 260 93 260 Q 72 260 64 266 Q 55 273 52 284 Z M 217 317 216 372 Q 215 394 220 400 Q 224 405 242 405 Q 260 406 275 391 Q 289 376 290 366 Q 290 357 288 347 Q 287 339 285 335 Q 284 332 274 311 Q 264 291 255 284 Q 247 277 236 276 Q 226 276 221 279 Q 217 282 217 317 Z M 444 301 459 258 469 219 474 197 480 152 481 116 Q 482 81 469 68 Q 456 56 444 52 Q 432 49 400 49 L 311 48 Q 284 48 287 58 L 296 87 Q 298 93 299 118 Q 300 143 281 158 Q 266 170 264 172 Q 263 175 263 181 Q 263 187 264 190 L 269 222 L 281 272 L 283 281 Q 269 283 286 288 L 291 304 Q 292 306 302 324 Q 312 342 312 361 Q 312 379 294 399 Q 278 416 264 420 Q 250 424 238 425 Q 227 425 225 427 Q 223 429 223 436 Q 223 441 224 443 Q 225 445 239 464 Q 253 482 276 485 Q 306 488 332 460 Q 359 433 364 433 Q 368 433 377 442 L 394 459 Q 409 475 428 484 Q 446 492 471 468 Q 482 457 485 444 Q 489 432 489 424 Q 489 412 484 404 Q 479 396 456 377 Q 433 358 430 351 Q 428 344 428 341 Q 429 338 430 335 Z" fill="black" />
  </g>
  <g class="defect" id="01">
    <path d="M 199 294 Q 181 255 201 264" fill="none" stroke="red" stroke-width="3" />
  </g>
  <g class="defect" id="02">
    <path d="M 44 431 Q 23 429 23 417" fill="none" stroke="red" stroke-width="3" />
  </g>
  <g class="defect" id="03">
    <path d="M 283 281 Q 269 283 286 288" fill="none" stroke="red" stroke-width="3" />
  </g>
</svg>