<svg xmlns="http://www.w3.org/2000/svg" width="512" height="512" viewBox="0 0 512 512">
  <g class="glyph">
    <path d="M 116 210 116 247 Q 116 272 112 275 Q 109 278 105 278 Q 101 278 97 275 Q 94 272 94 254 L 96 165 Q 96 161 99 158 Q 102 155 110 156 Q 117 156 117 173 Q 117 174 117 185 Q 116 196 116 210 Z M 208 103 Q 210 101 212 98 Q 213 95 213 77 Q 212 58 221 41 Q 229 25 246 13 Q 264 0 285 6 L 366 30 Q 384 35 399 43 Q 414 51 421 59 Q 428 67 431 78 Q 434 88 431 100 Q 429 111 430 113 Q 431 119 436 123 L 455 127 Q 464 129 480 144 Q 496 159 501 177 Q 505 195 505 208 Q 505 222 491 239 Q 481 252 457 271 Q 434 290 434 296 Q 434 302 442 311 L 470 344 Q 470 344 482 359 Q 494 374 497 379 Q 500 385 503 395 Q 506 406 506 416 Q 505 428 496 443 Q 488 458 472 471 Q 456 483 432 482 Q 422 482 415 479 L 402 471 Q 397 468 394 468 Q 392 468 390 469 Q 389 470 389 471 L 382 485 Q 376 496 363 504 Q 350 512 318 512 Q 264 512 253 509 Q 243 506 235 498 L 221 480 Q 219 478 218 477 Q 216 476 200 477 Q 184 478 159 464 Q 134 451 129 426 Q 126 410 134 389 L 77 388 Q 36 388 20 372 Q 4 356 2 340 Q 0 324 0 312 V 132 Q 0 99 9 71 Q 19 43 83 43 L 139 44 Q 149 44 174 50 Q 200 56 206 88 L 207 97 L 208 103 Z M 187 311 187 307 Q 169 305 158 295 Q 147 286 146 265 Q 144 244 146 234 Q 149 219 155 209 Q 162 198 167 195 L 176 189 Q 178 188 179 185 Q 180 183 179 173 Q 178 163 180 153 Q 183 140 189 128 Q 189 123 188 118 Q 175 133 186 92 Q 184 70 139 68 L 95 67 Q 57 66 40 74 Q 22 82 22 111 L 22 291 Q 22 323 24 345 Q 26 366 71 366 L 125 366 Q 135 366 148 364 L 171 333 Q 173 330 187 311 Z M 269 212 210 211 Q 191 211 184 212 Q 178 214 173 223 Q 168 233 166 248 Q 165 264 173 276 Q 177 283 186 285 Q 195 287 204 287 Q 199 287 213 288 Q 215 289 215 294 Q 215 298 213 304 Q 208 315 191 338 Q 174 362 166 374 Q 157 386 154 394 Q 150 401 150 413 Q 150 426 164 441 Q 178 457 200 455 Q 208 455 210 453 Q 212 450 213 448 L 219 412 Q 219 409 223 399 Q 227 390 233 384 Q 239 379 244 377 L 262 374 Q 268 373 272 369 Q 276 364 283 350 Q 291 335 296 323 Q 301 310 306 290 Q 311 271 310 257 Q 310 234 299 223 Q 288 212 269 212 Z M 328 285 302 360 Q 293 385 286 390 Q 279 394 275 394 L 264 395 Q 255 396 247 407 Q 238 418 238 437 Q 237 457 240 465 Q 247 489 276 489 L 307 489 Q 330 490 342 488 Q 353 486 360 478 Q 368 471 369 452 L 370 425 Q 371 404 378 413 L 397 436 Q 413 456 431 459 Q 449 461 466 446 Q 482 431 482 409 Q 481 389 462 366 L 411 304 Q 403 295 404 290 Q 404 285 408 282 L 451 248 Q 469 233 476 224 Q 482 215 483 203 Q 485 190 480 180 Q 477 171 463 158 Q 449 145 438 146 Q 427 146 418 153 L 394 172 Q 386 178 373 177 Q 359 177 351 174 L 278 147 Q 256 140 241 131 Q 226 123 221 123 Q 213 124 206 139 Q 198 154 199 170 Q 200 186 205 188 Q 211 191 216 191 L 268 192 Q 293 193 306 201 Q 320 209 325 224 Q 330 238 331 256 Q 331 275 328 285 Z M 273 122 333 145 Q 363 156 373 155 Q 383 154 389 148 Q 395 141 401 128 Q 407 115 409 108 Q 410 102 410 95 Q 410 84 402 72 Q 395 61 339 44 L 296 30 Q 283 27 266 27 Q 250 28 242 50 Q 235 71 235 82 Q 235 93 240 101 Q 245 110 252 114 Q 259 117 273 122 Z" fill="black" />
  </g>
  <g class="defect" id="01">
    <path d="M 204 287 Q 199 287 213 288" fill="none" stroke="red" stroke-width="3" />
  </g>
  <g class="defect" id="02">
    <path d="M 188 118 Q 175 133 186 92" fill="none" stroke="red" stroke-width="3" />
  </g>
</svg>