<svg xmlns="http://www.w3.org/2000/svg" width="512" height="512" viewBox="0 0 512 512">
  <g class="glyph">
    <path d="M 214 322 Q 215 310 227 309 Q 239 308 240 323 Q 242 339 226 337 Q 217 336 215 330 Q 214 324 214 322 Z M 2 419 20 367 28 336 35 283 39 230 40 161 Q 40 131 42 119 Q 44 106 60 80 Q 76 54 124 55 L 231 56 Q 254 56 259 52 L 273 25 Q 277 18 292 9 Q 306 0 334 0 Q 342 0 350 2 L 381 10 L 403 8 Q 433 8 455 39 L 473 64 L 491 77 Q 500 85 503 100 Q 507 115 507 127 Q 506 141 504 149 Q 502 158 501 161 L 484 190 L 489 206 Q 491 211 491 221 Q 492 232 491 235 L 479 272 L 462 311 Q 461 315 461 318 Q 461 321 462 323 Q 463 325 481 336 Q 499 347 505 359 Q 510 370 511 389 Q 512 407 495 445 Q 482 472 464 488 Q 447 505 418 505 Q 406 505 395 502 Q 383 499 375 493 L 361 481 Q 356 478 353 477 Q 349 477 332 488 Q 316 499 295 498 Q 283 498 273 495 Q 263 492 244 478 Q 225 465 221 445 Q 217 426 214 423 Q 211 421 198 421 L 165 421 L 163 422 L 151 452 Q 141 478 125 489 Q 110 499 79 499 Q 49 499 24 476 Q 0 452 1 441 Q 1 430 1 428 Z M 214 151 282 151 Q 311 151 321 161 Q 332 171 334 181 Q 337 191 337 203 Q 337 221 328 235 Q 320 250 320 251 Q 320 253 323 261 Q 327 269 327 289 V 329 Q 327 367 324 381 Q 321 394 309 407 Q 297 420 279 420 L 250 421 Q 247 422 245 424 Q 242 426 242 436 Q 241 445 256 459 Q 268 470 280 474 Q 292 477 295 477 Q 302 477 311 473 Q 321 468 326 464 L 348 444 Q 352 440 359 445 Q 359 445 375 464 Q 392 483 416 483 Q 436 483 450 470 Q 464 457 477 428 Q 490 399 488 383 Q 486 369 479 361 Q 471 353 456 347 Q 441 341 432 341 Q 425 342 420 346 L 407 360 Q 404 363 399 363 Q 395 363 392 359 Q 389 356 389 351 Q 388 347 395 339 Q 404 327 412 323 L 429 317 Q 435 313 447 288 Q 460 263 464 246 Q 469 229 469 223 Q 469 209 461 201 Q 453 193 442 188 Q 431 184 420 184 Q 403 184 395 193 L 388 204 Q 384 207 380 207 Q 375 207 372 203 Q 368 200 368 197 Q 368 194 371 188 Q 377 177 385 169 Q 393 160 412 160 Q 416 160 423 161 L 458 168 Q 465 170 472 164 Q 476 159 479 151 Q 482 143 482 122 Q 483 102 478 99 Q 472 96 458 114 Q 454 118 440 126 Q 427 134 412 132 Q 397 132 388 123 Q 378 114 365 95 Q 351 76 348 69 Q 345 61 345 56 Q 345 53 349 42 Q 353 31 351 27 Q 334 35 333 22 Q 331 23 318 24 Q 305 26 298 31 Q 292 35 288 51 L 284 69 Q 283 73 281 76 Q 279 78 269 79 Q 260 79 253 78 L 226 78 L 126 77 Q 96 77 79 93 Q 62 109 62 138 L 61 220 L 57 286 L 52 328 L 43 366 Q 42 372 39 380 L 26 418 Q 10 435 23 434 Q 23 443 39 459 Q 55 476 80 476 Q 89 457 116 467 Q 121 462 131 437 Q 140 413 140 406 Q 140 404 139 402 L 130 380 Q 129 377 128 373 Q 127 368 127 336 V 291 Q 127 276 131 263 Q 135 250 135 248 Q 134 246 133 243 L 123 227 Q 119 218 118 197 Q 118 176 130 163 Q 142 150 164 150 Z M 199 231 271 232 Q 292 232 303 228 Q 315 224 315 206 Q 316 187 307 179 Q 298 171 287 171 Q 276 171 274 171 L 263 171 L 248 171 L 177 170 Q 163 170 158 171 Q 152 173 146 178 Q 140 184 139 200 Q 139 217 145 223 Q 151 229 158 230 Q 164 231 199 231 Z M 188 398 223 399 Q 273 401 286 394 Q 299 388 302 376 Q 305 364 305 344 L 305 296 Q 305 271 295 261 Q 285 250 267 250 L 186 249 Q 171 249 163 257 Q 155 265 152 273 Q 149 281 149 306 L 148 354 Q 148 376 159 387 Q 170 397 188 398 Z M 418 112 Q 431 112 441 102 Q 451 93 451 81 Q 451 65 433 48 Q 415 30 401 30 Q 386 29 377 39 Q 367 49 368 58 Q 368 64 373 72 Q 377 81 390 96 Q 404 112 418 112 Z" fill="black" />
  </g>
  <g class="defect" id="01">
    <path d="M 80 476 Q 89 457 116 467" fill="none" stroke="red" stroke-width="3" />
  </g>
  <g class="defect" id="02">
    <path d="M 26 418 Q 10 435 23 434" fill="none" stroke="red" stroke-width="3" />
  </g>
  <g class="defect" id="03">
    <path d="M 351 27 Q 334 35 333 22" fill="none" stroke="red" stroke-width="3" />
  </g>
</svg>