<svg xmlns="http://www.w3.org/2000/svg" width="512" height="512" viewBox="0 0 512 512">
  <g class="glyph">
    <path d="M 91 247 92 188 92 147 Q 94 139 98 134 Q 103 130 108 135 Q 113 140 113 149 L 113 242 Q 113 270 110 278 Q 108 285 103 286 Q 99 286 95 282 Q 91 278 91 254 V 247 Z M 289 381 337 382 Q 364 382 366 387 Q 368 391 368 396 Q 368 401 365 404 Q 363 407 359 407 L 305 406 Q 285 406 282 404 Q 278 401 278 395 Q 278 389 282 385 Q 285 381 289 381 Z M 341 195 Q 368 195 367 208 Q 349 212 363 215 Q 360 218 336 218 Q 330 218 326 216 Q 336 195 322 209 Q 321 204 325 199 Q 330 195 341 195 Z M 479 403 477 450 Q 477 478 460 495 Q 444 512 405 512 L 356 511 L 246 509 Q 203 508 192 496 Q 180 484 176 473 Q 171 462 171 456 Q 170 449 171 449 L 171 410 Q 171 399 169 396 Q 167 394 162 394 L 88 393 Q 56 393 41 388 Q 27 384 16 372 Q 6 361 3 345 Q 0 329 0 285 L 1 128 Q 2 81 6 63 Q 11 45 20 36 Q 29 27 40 24 Q 52 20 67 20 L 85 21 L 112 21 L 152 22 Q 158 21 163 19 L 179 7 Q 189 0 211 0 L 236 0 L 433 2 Q 461 2 473 14 Q 485 25 488 41 Q 491 56 491 65 Q 491 73 489 85 Q 486 97 470 120 L 471 137 L 471 194 Q 471 198 473 202 L 491 216 Q 499 223 503 243 Q 506 262 506 272 Q 506 283 503 298 Q 499 314 493 323 L 480 338 Q 477 341 477 344 Z M 21 242 22 295 Q 22 325 24 337 Q 25 348 35 360 Q 45 372 84 372 H 118 L 138 373 Q 143 373 154 372 Q 166 371 169 368 Q 171 365 172 361 Q 172 356 172 346 Q 172 336 170 332 L 158 323 Q 152 318 147 308 Q 143 297 141 292 Q 140 287 140 270 Q 140 253 140 252 Q 140 240 145 228 Q 149 217 154 213 L 169 199 Q 169 197 169 196 Q 170 195 169 193 L 165 180 Q 164 176 164 168 Q 164 162 165 153 Q 165 144 169 130 Q 173 116 173 115 Q 172 113 172 110 L 160 87 Q 158 82 157 65 Q 156 49 152 47 Q 149 45 130 44 L 102 42 Q 58 41 47 45 Q 37 50 32 61 Q 26 71 25 85 L 23 129 Z M 251 21 H 205 Q 194 21 186 30 Q 177 38 176 59 Q 175 79 185 89 Q 189 93 192 94 Q 195 95 213 96 Q 232 98 233 105 Q 233 113 227 116 L 205 118 Q 201 119 192 127 Q 184 134 184 156 Q 183 178 193 189 Q 198 194 204 195 L 221 196 Q 226 199 226 205 Q 226 211 222 215 L 188 218 Q 158 221 159 266 Q 160 289 168 298 Q 176 306 182 306 Q 187 307 195 302 Q 204 297 215 292 Q 226 288 231 288 L 362 289 L 385 290 Q 419 291 431 294 Q 444 296 449 299 L 474 315 Q 474 314 480 304 Q 486 294 486 269 Q 486 255 483 245 Q 480 235 476 229 Q 472 223 465 221 L 452 218 Q 448 215 448 211 L 451 164 Q 452 135 445 128 Q 438 121 420 120 L 354 119 Q 339 119 336 117 Q 333 115 332 106 Q 332 98 357 98 L 402 99 Q 446 100 459 95 Q 471 90 471 63 Q 470 43 462 33 Q 453 23 424 23 Z M 304 487 397 487 Q 416 488 435 486 Q 454 484 456 447 L 458 395 Q 459 372 456 353 Q 453 334 447 328 Q 441 321 435 319 L 416 314 Q 411 313 410 312 L 370 311 L 273 309 Q 219 308 206 323 Q 192 338 192 371 L 191 423 Q 190 459 203 472 Q 215 486 248 486 Z" fill="black" />
  </g>
  <g class="defect" id="01">
    <path d="M 367 208 Q 349 212 363 215" fill="none" stroke="red" stroke-width="3" />
  </g>
  <g class="defect" id="02">
    <path d="M 326 216 Q 336 195 322 209" fill="none" stroke="red" stroke-width="3" />
  </g>
</svg>