<svg xmlns="http://www.w3.org/2000/svg" width="512" height="512" viewBox="0 0 512 512">
  <g class="glyph">
    <path d="M 89 245 90 201 91 173 Q 91 159 91 157 Q 91 154 92 153 Q 93 152 98 150 Q 103 148 105 148 Q 107 148 111 151 Q 114 154 114 160 L 113 226 Q 113 266 111 271 Q 110 277 103 277 Q 96 277 92 273 Q 88 270 89 260 Q 89 251 89 245 Z M 310 388 337 389 Q 352 389 356 392 Q 360 395 360 401 Q 359 407 357 411 Q 352 415 334 415 L 318 416 Q 297 416 293 411 Q 288 406 288 401 Q 288 392 295 390 Q 301 388 310 388 Z M 299 223 Q 299 217 310 216 L 327 217 Q 339 217 341 221 Q 342 225 335 230 Q 323 239 319 239 Q 315 239 309 234 Q 299 226 299 223 Z M 0 293 2 101 Q 3 71 20 54 Q 37 37 69 36 L 109 36 Q 148 36 161 40 Q 174 44 176 44 Q 179 44 180 43 L 196 40 L 226 38 Q 238 38 241 37 Q 243 35 250 26 Q 258 17 272 8 Q 286 0 317 0 Q 341 0 359 6 Q 376 12 382 18 L 396 37 Q 399 39 404 40 Q 408 42 424 41 Q 439 40 473 45 Q 506 51 509 74 Q 512 98 512 102 Q 512 106 512 112 V 141 Q 512 151 511 166 Q 510 180 505 189 Q 499 198 495 201 Q 490 205 480 211 Q 469 216 469 218 L 457 244 L 451 253 Q 450 256 450 258 Q 450 261 451 263 Q 453 265 472 274 Q 491 283 498 296 Q 506 309 506 337 Q 507 366 477 387 Q 470 391 468 394 Q 465 397 465 402 L 464 448 Q 464 455 460 468 Q 455 481 448 488 Q 441 495 427 501 Q 414 507 400 507 H 358 L 256 505 Q 219 505 201 486 Q 184 468 183 455 Q 163 423 183 439 V 434 Q 183 428 184 415 Q 184 401 181 394 Q 177 388 172 387 Q 167 387 166 387 L 136 390 L 87 389 Q 59 389 44 384 Q 28 380 15 366 Q 1 352 1 326 Z M 147 145 148 99 151 70 Q 150 65 148 62 Q 145 59 122 59 Q 98 60 99 59 Q 101 59 106 58 Q 112 57 79 59 Q 63 59 54 61 Q 44 63 36 71 Q 28 78 27 103 L 27 167 L 24 299 Q 24 326 26 336 Q 29 347 37 355 Q 45 363 66 366 L 124 367 Q 137 368 140 365 Q 142 361 143 360 Q 143 358 142 357 L 138 337 Q 136 330 137 322 Q 137 312 141 304 L 153 282 L 145 255 Q 144 251 144 243 Q 144 235 151 225 Q 153 222 159 215 Q 166 208 165 204 Q 164 202 163 200 L 155 191 Q 147 180 147 164 Q 147 147 147 145 Z M 272 305 359 306 392 306 Q 410 307 421 310 Q 433 313 442 320 Q 452 327 457 342 Q 462 357 464 359 Q 467 360 471 357 Q 476 353 479 343 Q 492 321 482 322 Q 482 313 476 304 Q 470 296 462 293 L 435 283 Q 415 275 414 273 Q 413 271 411 268 Q 410 264 410 263 Q 409 262 424 245 Q 438 229 438 224 Q 438 220 435 218 Q 433 216 420 213 Q 406 210 398 203 Q 391 196 388 191 L 381 169 Q 377 163 368 162 L 348 163 Q 347 163 346 163 Q 337 163 334 161 Q 331 159 329 156 L 322 141 Q 315 132 295 131 Q 275 131 274 141 L 271 170 Q 270 186 259 196 Q 248 207 231 209 L 207 210 Q 202 211 198 212 Q 195 214 186 221 Q 176 228 172 233 Q 168 238 168 245 Q 168 251 170 258 Q 172 264 177 269 Q 182 273 196 268 L 220 258 Q 251 264 240 256 Q 244 260 244 263 Q 244 265 243 267 Q 242 270 230 275 Q 219 280 200 287 Q 181 294 170 300 Q 159 305 158 320 Q 158 334 163 344 Q 166 352 171 358 Q 176 363 179 363 Q 182 363 185 359 L 191 336 Q 194 326 204 319 Q 213 312 223 308 Q 233 305 272 305 Z M 251 161 252 131 Q 252 121 257 116 Q 262 110 283 111 Q 299 112 307 112 Q 316 113 325 117 Q 335 121 339 125 L 349 137 Q 354 142 362 143 L 394 145 Q 397 146 399 148 Q 401 149 403 153 L 405 170 Q 409 193 438 194 Q 466 196 476 186 Q 485 177 485 158 L 486 118 Q 487 93 482 82 Q 477 71 464 68 Q 452 64 425 64 Q 399 63 393 63 Q 388 63 387 63 Q 378 63 376 61 Q 374 58 373 57 L 368 40 Q 360 23 318 23 Q 305 24 293 25 Q 281 27 277 31 Q 273 35 272 37 L 266 55 Q 263 61 254 61 L 219 62 L 202 62 Q 189 64 179 73 Q 170 82 170 109 L 170 138 Q 169 163 171 168 Q 172 174 179 182 Q 186 190 211 190 Q 235 190 243 182 Q 250 174 251 161 Z M 353 325 274 324 Q 248 324 237 326 Q 225 328 217 337 Q 208 346 208 374 L 207 420 Q 207 443 208 452 Q 210 461 220 471 Q 229 482 250 482 L 385 484 Q 419 485 428 475 Q 437 464 440 452 Q 442 439 442 416 Q 441 384 439 366 Q 438 347 428 337 Q 419 326 397 326 Z" fill="black" />
  </g>
  <g class="defect" id="01">
    <path d="M 479 343 Q 492 321 482 322" fill="none" stroke="red" stroke-width="3" />
  </g>
  <g class="defect" id="02">
    <path d="M 183 455 Q 163 423 183 439" fill="none" stroke="red" stroke-width="3" />
  </g>
  <g class="defect" id="03">
    <path d="M 220 258 Q 251 264 240 256" fill="none" stroke="red" stroke-width="3" />
  </g>
</svg>