<svg xmlns="http://www.w3.org/2000/svg" width="512" height="512" viewBox="0 0 512 512">
  <g class="glyph">
    <path d="M 118 202 V 239 Q 118 264 114 267 Q 110 270 106 270 Q 102 270 98 267 Q 95 264 96 246 L 98 157 Q 98 153 101 150 Q 103 147 112 147 Q 120 147 119 164 Q 119 165 118 175 Q 118 186 118 202 Z M 308 157 Q 315 156 323 157 Q 331 158 333 160 Q 336 162 335 168 Q 334 177 330 180 Q 325 183 317 184 Q 309 184 305 180 Q 300 176 300 167 V 167 Q 300 166 300 166 Q 300 158 308 157 Z M 148 380 Q 141 380 133 380 H 78 Q 37 380 20 364 Q 4 348 2 332 Q 0 316 0 303 V 123 Q 0 91 7 70 Q 14 50 35 42 Q 57 35 85 35 H 142 Q 149 35 164 38 Q 172 21 188 14 Q 203 7 219 7 Q 226 7 234 9 Q 243 11 246 11 L 271 2 Q 276 0 284 0 Q 288 0 293 1 L 316 7 Q 317 8 318 8 Q 319 8 320 7 L 341 2 Q 349 0 360 0 Q 370 0 376 2 L 396 9 L 425 6 Q 434 6 458 17 Q 481 27 484 52 L 486 67 Q 486 70 487 72 L 499 87 Q 508 99 508 122 Q 507 145 499 158 L 489 171 Q 486 174 486 177 L 491 201 Q 492 204 492 209 Q 492 214 492 217 Q 491 226 488 233 L 481 247 Q 480 250 479 252 Q 479 253 480 255 L 483 274 L 483 295 Q 483 298 484 300 L 499 319 Q 507 329 506 348 Q 506 362 501 372 L 496 383 Q 495 386 495 389 Q 495 392 498 398 L 505 408 Q 512 420 511 440 Q 510 456 499 480 Q 489 504 461 504 Q 432 504 417 500 L 382 490 L 370 486 Q 354 481 341 472 L 322 460 Q 312 456 308 458 L 279 477 Q 272 481 257 487 Q 241 493 226 498 Q 212 503 192 503 Q 177 503 166 498 Q 156 493 147 483 Q 138 473 134 463 Q 130 452 131 436 Q 131 414 140 404 L 149 394 Q 150 391 151 389 Q 151 386 148 380 Z M 139 357 Q 138 350 138 342 Q 138 335 142 324 Q 146 313 154 307 Q 161 300 162 299 Q 162 297 163 287 Q 163 277 164 272 L 168 255 Q 168 253 168 252 Q 168 250 168 249 L 158 231 Q 155 227 153 218 Q 151 209 153 196 Q 154 190 157 184 Q 160 179 160 177 Q 160 175 154 168 Q 148 160 144 147 Q 140 133 141 123 Q 141 118 143 105 Q 145 92 151 84 Q 157 76 157 73 Q 158 71 159 62 Q 148 59 141 59 H 96 Q 56 59 39 66 Q 22 73 22 102 V 283 Q 22 315 24 336 Q 26 358 72 358 H 127 Q 135 358 139 357 Z M 218 253 Q 193 254 186 260 Q 179 267 180 280 Q 181 291 188 296 Q 194 302 212 303 H 240 Q 254 303 260 304 Q 266 305 266 312 Q 266 319 250 319 L 188 320 Q 172 320 165 327 Q 158 334 158 348 Q 158 352 160 365 Q 162 379 188 380 L 215 380 Q 229 381 229 384 Q 228 389 213 394 L 198 399 L 175 404 Q 151 412 151 437 Q 151 460 164 471 Q 176 481 194 481 Q 212 481 229 475 L 264 462 Q 298 441 308 431 L 324 414 Q 329 410 332 410 Q 334 410 338 412 Q 341 414 342 415 L 333 439 Q 333 440 340 447 Q 347 454 358 458 L 389 471 Q 401 477 431 482 Q 460 488 475 476 Q 490 463 490 434 Q 490 428 488 423 Q 487 417 479 409 Q 472 401 453 399 Q 434 397 416 389 Q 398 382 414 381 L 457 381 Q 469 381 477 373 Q 485 364 485 347 Q 484 335 477 327 Q 469 320 440 320 H 391 Q 366 320 363 317 Q 361 315 361 312 Q 361 309 364 307 Q 368 304 375 303 L 426 303 Q 450 303 456 296 Q 463 289 462 277 Q 461 268 455 260 Q 449 253 419 253 Q 411 253 389 254 Q 368 255 365 251 Q 362 248 362 246 Q 362 243 364 241 Q 367 238 373 238 L 429 237 Q 447 237 459 235 Q 471 233 471 215 Q 471 196 463 188 Q 457 182 450 180 L 425 178 Q 421 175 421 172 Q 421 169 424 166 Q 426 164 430 163 L 465 160 Q 473 159 479 153 Q 485 148 486 127 Q 488 106 480 97 Q 478 96 477 94 L 462 87 Q 459 85 458 83 L 464 62 Q 446 33 453 39 Q 440 26 421 27 Q 413 28 409 31 Q 405 35 404 45 L 403 69 L 401 78 Q 400 85 399 87 Q 398 89 392 89 Q 386 90 386 75 V 43 Q 386 34 379 27 Q 373 21 358 20 Q 343 20 337 27 Q 313 53 330 43 L 329 82 Q 328 85 326 88 Q 324 90 320 89 Q 317 89 315 87 Q 293 85 312 82 L 312 52 Q 311 34 304 26 Q 296 19 282 20 Q 257 21 256 46 L 254 84 Q 254 86 250 89 Q 246 93 241 89 Q 237 85 237 73 L 237 50 Q 236 35 232 31 Q 227 27 214 26 Q 200 25 189 38 Q 186 41 182 48 Q 178 55 179 65 L 183 83 Q 183 86 183 87 Q 183 88 176 91 Q 169 95 165 102 Q 160 109 160 126 Q 159 143 170 153 Q 175 159 180 160 Q 185 161 198 162 Q 210 163 213 164 Q 216 165 217 167 Q 219 169 219 173 Q 219 176 216 178 Q 214 178 203 178 Q 191 178 186 181 Q 180 184 175 190 Q 170 196 170 210 Q 169 223 177 230 Q 182 235 192 237 Q 203 239 235 238 Q 267 237 267 242 Q 268 248 265 250 Q 263 253 257 253 Z" fill="black" />
  </g>
  <g class="defect" id="01">
    <path d="M 315 87 Q 293 85 312 82" fill="none" stroke="red" stroke-width="3" />
  </g>
  <g class="defect" id="02">
    <path d="M 337 27 Q 313 53 330 43" fill="none" stroke="red" stroke-width="3" />
  </g>
  <g class="defect" id="03">
    <path d="M 464 62 Q 446 33 453 39" fill="none" stroke="red" stroke-width="3" />
  </g>
</svg>