<svg xmlns="http://www.w3.org/2000/svg" width="512" height="512" viewBox="0 0 512 512">
  <g class="glyph">
    <path d="M 78 223 78 149 Q 78 134 79 129 Q 79 125 82 122 Q 85 119 90 119 Q 95 119 98 122 Q 101 126 102 130 L 102 232 Q 102 253 98 256 Q 95 259 90 259 Q 85 259 81 255 Q 77 251 78 229 V 223 Z M 359 348 Q 346 361 334 369 L 301 362 L 308 352 Z M 153 16 Q 155 16 157 16 Q 158 16 159 15 Q 160 15 166 7 Q 172 0 200 0 H 283 Q 310 0 316 9 L 325 18 Q 334 8 340 4 Q 347 0 372 0 H 434 Q 475 0 486 11 Q 497 22 498 36 Q 500 50 500 77 V 163 Q 500 182 499 191 L 497 210 Q 501 222 504 234 Q 508 247 507 256 L 506 269 Q 506 273 508 282 Q 510 290 511 307 Q 512 323 506 340 Q 500 358 492 362 Q 483 367 455 371 Q 452 373 452 374 L 480 379 Q 497 383 501 400 Q 506 417 506 430 Q 505 441 502 457 Q 500 472 487 488 Q 475 503 432 497 Q 419 496 405 492 L 367 479 L 336 471 Q 259 493 241 497 Q 222 500 202 502 Q 179 504 166 499 Q 152 494 143 481 Q 135 469 134 444 Q 133 418 139 403 Q 146 387 155 381 Q 164 376 200 378 V 372 Q 177 372 162 370 L 162 370 Q 153 367 144 364 H 81 Q 56 364 43 360 Q 29 357 17 344 Q 4 331 2 316 Q 0 302 1 289 Q 1 277 1 257 L 0 92 Q 0 66 4 54 Q 8 43 16 34 Q 24 25 30 23 Q 36 20 46 16 Q 57 12 63 12 H 155 Z M 138 343 Q 136 334 135 330 Q 135 326 135 313 Q 136 292 138 288 L 144 274 Q 141 268 138 260 Q 135 252 135 241 Q 135 231 139 219 Q 143 206 147 203 L 155 193 Q 153 188 151 182 Q 150 176 149 166 Q 148 155 148 130 V 67 Q 148 50 150 43 Q 152 36 151 34 Q 150 31 133 32 Q 117 32 82 31 Q 47 31 38 40 Q 29 49 26 58 Q 23 67 23 89 V 269 Q 23 303 27 323 Q 31 343 62 343 Z M 416 385 443 351 452 350 Q 475 348 484 345 Q 493 341 492 308 Q 491 297 490 294 L 487 286 Q 466 297 452 296 Q 438 294 419 270 Q 399 290 387 294 Q 375 299 352 299 Q 329 300 319 285 Q 309 270 308 261 L 306 244 Q 299 244 280 248 Q 262 251 260 262 L 252 285 H 236 Q 209 300 191 301 Q 174 302 170 297 L 162 290 Q 159 294 157 297 Q 156 300 155 307 Q 155 314 155 326 Q 155 336 158 342 Q 161 348 166 351 Q 172 354 191 354 H 225 Q 222 361 221 365 Q 220 368 220 375 Q 220 382 222 385 L 229 393 Q 209 395 193 395 Q 177 394 171 398 Q 165 402 160 412 Q 154 423 155 444 Q 155 465 167 474 Q 178 482 206 482 Q 235 482 265 473 Q 296 464 337 448 Q 392 468 412 473 Q 431 478 448 478 Q 465 479 474 472 Q 482 466 485 448 Q 489 431 486 421 Q 484 410 478 403 Q 471 396 450 392 L 416 385 Z M 312 169 313 75 Q 313 54 310 42 Q 308 30 301 24 Q 294 18 281 18 H 199 Q 185 18 177 29 Q 168 39 168 66 V 140 Q 168 175 171 181 L 174 187 Q 194 178 201 170 Q 207 163 208 153 Q 209 144 210 121 Q 211 98 219 87 Q 211 76 244 78 Q 260 80 267 86 Q 273 92 273 126 V 162 Q 284 157 312 169 Z M 479 190 V 78 Q 479 44 472 32 Q 465 20 444 20 L 364 20 Q 350 20 340 34 Q 330 49 330 78 V 165 Q 330 187 332 191 Q 334 194 341 193 Q 353 191 359 188 Q 364 185 368 177 Q 372 169 373 160 Q 375 151 376 125 Q 377 99 380 95 Q 382 91 387 88 Q 392 86 409 86 Q 425 85 429 89 Q 432 92 433 100 Q 434 108 435 127 L 435 160 Q 458 164 459 165 L 479 190 Z M 225 130 Q 225 155 220 170 Q 215 185 203 193 Q 191 202 179 208 Q 166 214 161 220 Q 155 227 153 241 Q 152 256 163 270 Q 174 284 188 285 Q 197 286 212 279 Q 228 273 234 263 L 245 246 Q 242 237 240 230 Q 238 223 238 207 Q 239 191 245 184 L 256 171 Q 257 141 257 128 Q 257 116 254 107 Q 250 99 240 98 Q 231 98 228 102 Q 225 106 225 116 V 130 Z M 306 225 Q 309 216 309 214 L 317 198 Q 303 184 295 180 Q 287 177 279 178 Q 266 180 261 191 Q 257 202 257 210 Q 257 221 260 224 L 267 235 Q 271 232 278 228 Q 285 225 306 225 Z M 417 169 418 130 Q 418 117 415 108 Q 412 99 403 101 Q 395 102 391 110 Q 388 116 389 132 Q 390 148 387 164 Q 385 178 380 187 Q 375 195 366 202 Q 358 209 352 211 L 337 216 Q 330 220 325 228 Q 321 237 321 249 Q 321 260 327 270 Q 335 284 354 285 Q 365 285 379 280 Q 393 274 396 266 L 404 249 Q 403 241 400 230 Q 397 219 396 210 Q 395 200 398 190 Q 401 179 408 175 L 417 169 Z M 461 279 Q 473 278 481 270 Q 489 261 488 245 Q 488 238 486 231 Q 483 225 473 205 Q 462 184 451 181 Q 441 178 430 182 Q 420 187 416 198 Q 412 209 418 226 Q 421 236 424 242 Q 427 247 438 263 Q 448 279 461 279 Z" fill="black" />
  </g>
  <g class="defect" id="01">
    <path d="M 219 87 Q 211 76 244 78" fill="none" stroke="red" stroke-width="3" />
  </g>
</svg>