<svg xmlns="http://www.w3.org/2000/svg" width="512" height="512" viewBox="0 0 512 512">
  <g class="glyph">
    <path d="M 70 245 71 177 Q 71 146 76 142 Q 81 138 87 142 Q 92 146 92 180 V 242 Q 92 266 91 274 Q 90 281 85 286 Q 80 290 75 284 Q 69 279 70 253 V 245 Z M 192 215 Q 196 215 199 218 Q 201 220 201 244 Q 200 254 199 257 Q 198 259 191 260 Q 184 260 184 245 Q 184 230 184 223 Q 185 215 192 215 Z M 268 252 V 245 L 268 225 Q 268 218 270 215 Q 272 213 278 213 Q 284 213 283 226 L 283 234 Q 283 237 282 244 Q 282 251 281 254 Q 279 256 274 257 Q 269 257 268 252 Z M 451 279 460 324 479 381 494 418 Q 500 433 500 453 Q 500 473 485 489 Q 471 505 446 506 Q 416 508 402 487 Q 389 465 387 466 L 376 478 L 365 490 Q 341 512 327 511 Q 312 510 298 506 Q 284 502 280 502 L 256 508 Q 250 509 244 509 Q 217 510 202 500 Q 187 490 184 485 L 179 469 Q 177 467 175 466 Q 172 465 161 473 Q 150 481 135 481 Q 124 480 115 477 Q 107 474 97 465 Q 88 455 86 448 Q 84 440 84 427 Q 83 424 84 422 L 92 393 Q 89 390 78 390 H 47 Q 27 390 15 378 Q 4 366 2 355 Q 0 344 0 315 V 126 Q 0 99 1 88 Q 3 77 8 64 Q 13 52 18 47 Q 24 42 36 39 Q 47 35 51 35 L 104 36 Q 120 37 123 37 L 141 43 Q 142 44 168 43 Q 175 43 177 42 Q 180 41 183 29 Q 187 18 199 10 Q 210 1 236 1 Q 250 1 264 6 Q 278 10 284 21 L 290 37 Q 298 45 307 36 L 316 20 Q 319 14 332 7 Q 344 0 365 0 Q 395 0 409 13 Q 423 26 425 37 Q 427 49 428 50 Q 429 52 431 54 L 463 56 Q 474 57 482 67 Q 491 76 492 84 Q 492 93 492 93 L 487 143 Q 485 162 478 181 Q 471 200 462 209 Q 453 218 451 221 Q 449 224 449 234 Q 449 244 449 246 Z M 21 340 Q 26 355 32 362 Q 39 369 51 369 H 81 Q 112 369 114 367 Q 116 366 120 360 Q 124 355 131 348 Q 137 341 137 338 Q 137 335 126 325 Q 116 316 116 303 L 117 206 Q 117 171 120 160 Q 124 149 124 149 L 111 125 Q 105 116 107 89 Q 107 82 108 79 L 113 63 Q 111 57 100 56 Q 98 56 92 56 Q 87 56 84 56 L 71 55 Q 57 55 46 58 Q 35 60 28 67 Q 20 74 20 107 Z M 116 395 Q 103 417 103 430 Q 103 442 112 452 Q 120 461 135 462 Q 149 463 167 443 L 191 416 Q 192 414 195 414 Q 198 414 198 420 Q 198 426 198 426 L 198 452 Q 198 452 198 461 Q 198 470 206 478 Q 213 486 237 487 Q 256 487 261 484 Q 265 481 265 481 Q 266 480 264 468 Q 262 456 261 451 Q 275 458 265 439 L 276 419 Q 276 417 276 416 Q 277 414 275 413 L 255 389 Q 245 378 245 367 Q 245 355 247 348 Q 250 341 260 329 Q 271 317 281 315 L 313 312 Q 319 311 326 304 Q 332 296 333 278 L 333 184 Q 333 164 326 158 Q 320 152 314 151 L 275 149 Q 273 149 271 146 Q 269 144 269 139 Q 268 134 271 131 Q 274 129 276 129 H 309 Q 319 129 329 126 Q 340 123 341 93 Q 342 62 307 60 L 277 59 Q 273 59 271 54 L 268 39 Q 267 34 260 28 Q 253 22 235 21 Q 217 20 207 29 Q 204 32 202 35 L 199 57 Q 196 63 192 63 L 154 64 Q 150 64 143 68 Q 136 71 131 76 Q 126 80 127 97 Q 127 123 137 127 Q 146 131 158 131 Q 171 132 184 132 Q 197 131 197 138 Q 198 144 195 147 Q 191 151 179 151 Q 167 151 158 152 Q 149 154 143 165 Q 136 177 136 205 L 136 274 Q 136 300 141 305 Q 146 310 149 311 L 163 314 Q 167 316 168 320 Q 168 323 163 332 Q 159 341 157 344 Z M 266 371 270 379 Q 272 382 282 391 L 297 407 Q 312 422 324 420 Q 333 420 340 412 Q 347 405 348 394 Q 349 382 328 357 Q 306 331 288 335 Q 281 337 272 344 Q 264 352 264 360 Q 265 369 266 371 Z M 466 403 446 348 440 326 431 277 428 230 Q 428 226 426 224 L 413 221 Q 410 220 404 216 Q 398 212 392 203 Q 385 194 384 171 Q 383 148 395 148 Q 406 148 406 156 Q 405 156 404 164 Q 403 172 404 177 Q 404 180 408 190 Q 412 201 424 201 Q 436 202 447 193 Q 459 183 461 171 L 469 135 Q 470 128 471 111 Q 471 95 471 92 Q 468 77 447 77 L 411 76 Q 408 76 407 74 Q 405 71 405 69 L 406 46 Q 405 39 397 31 Q 389 23 367 22 Q 344 21 337 29 Q 331 36 330 39 Q 330 43 333 45 L 347 54 Q 352 58 357 71 Q 361 84 361 92 Q 361 95 360 104 Q 359 113 357 118 L 343 141 Q 343 143 347 155 Q 352 168 352 185 L 352 256 Q 352 285 351 293 Q 350 301 346 309 Q 342 317 338 322 L 331 331 Q 331 332 329 333 Q 328 335 353 357 Q 359 363 363 374 Q 367 385 367 399 Q 367 412 353 427 Q 339 441 320 441 Q 315 441 306 437 Q 297 433 296 433 Q 293 434 287 439 Q 281 443 281 458 Q 281 473 291 481 Q 301 490 315 489 Q 338 489 356 467 Q 374 445 379 430 L 393 387 Q 396 380 402 380 Q 410 381 410 391 Q 410 400 405 414 Q 399 428 400 433 Q 400 442 409 457 Q 418 471 426 478 Q 434 486 447 486 Q 461 487 471 475 Q 475 471 477 465 Q 480 460 480 450 Q 480 441 477 434 Z" fill="black" />
  </g>
  <g class="defect" id="01">
    <path d="M 261 451 Q 275 458 265 439" fill="none" stroke="red" stroke-width="3" />
  </g>
</svg>