<svg xmlns="http://www.w3.org/2000/svg" width="512" height="512" viewBox="0 0 512 512">
  <g class="glyph">
    <path d="M 339 385 V 355 Q 339 345 341 342 Q 343 339 348 338 Q 353 337 374 338 H 388 Q 397 338 401 342 Q 404 345 404 353 Q 404 354 403 360 Q 403 366 403 376 Q 403 378 403 383 Q 403 388 403 392 Q 404 395 403 398 Q 402 402 399 405 Q 397 408 381 408 L 359 409 Q 347 408 343 405 Q 339 402 339 385 Z M 371 391 Q 379 390 382 387 Q 386 384 386 377 Q 386 369 386 366 Q 385 360 382 358 Q 379 355 371 355 Q 363 354 359 358 Q 359 359 358 361 Q 356 363 356 372 Q 356 382 359 386 Q 363 391 371 391 Z M 367 14 422 5 Q 453 0 475 21 Q 496 41 498 83 Q 500 105 488 117 Q 475 130 477 133 Q 477 134 479 136 L 494 145 Q 500 150 506 162 Q 511 174 512 198 Q 512 222 502 239 Q 499 245 496 248 L 486 256 Q 485 258 484 260 Q 484 262 490 279 Q 496 296 496 325 L 496 432 Q 496 467 478 486 Q 460 506 416 506 H 356 Q 313 487 282 496 Q 266 485 263 485 Q 262 485 248 491 Q 234 498 223 498 Q 200 498 182 490 Q 163 481 156 475 Q 149 468 143 459 Q 137 450 136 444 L 135 414 Q 133 412 130 411 Q 128 411 116 412 L 71 419 Q 28 425 14 397 Q 0 370 0 346 Q 0 321 11 306 Q 21 291 36 288 Q 51 284 54 281 Q 56 278 57 272 L 57 245 Q 57 227 54 224 Q 52 222 49 220 L 27 213 Q 19 209 10 197 Q 1 184 1 155 Q 0 125 12 107 Q 19 99 27 95 L 47 88 Q 50 87 51 85 Q 53 84 54 78 L 55 44 Q 58 31 71 17 Q 85 4 122 3 Q 133 -12 166 13 Q 180 22 183 27 L 189 44 Q 191 47 192 48 Q 193 48 205 40 Q 217 32 233 30 Z M 134 388 183 380 Q 198 377 206 368 Q 214 358 215 343 Q 215 327 213 317 Q 210 305 205 298 Q 200 292 192 290 L 173 287 Q 168 283 168 268 L 169 235 Q 169 206 171 204 Q 174 202 177 200 L 195 198 Q 211 195 214 181 Q 217 168 218 155 Q 218 142 216 134 Q 213 125 209 120 Q 204 115 196 113 L 175 109 Q 174 108 172 106 Q 170 105 170 90 V 64 Q 170 45 163 38 Q 157 31 127 26 Q 98 20 87 32 Q 75 45 75 57 L 75 98 Q 75 105 69 109 L 41 113 Q 23 118 21 149 Q 20 181 29 190 Q 35 196 43 198 L 67 200 Q 72 201 75 204 Q 77 206 77 217 L 77 237 Q 77 246 77 248 V 279 Q 77 296 71 302 L 39 309 Q 33 311 30 316 Q 26 320 24 325 Q 22 329 21 353 Q 20 376 35 389 Q 49 401 68 398 Z M 414 151 320 150 Q 300 150 295 148 Q 291 147 291 143 Q 291 140 293 138 Q 295 136 315 135 L 398 128 H 404 Q 414 128 436 123 Q 458 118 467 110 Q 476 101 476 77 Q 476 54 462 40 Q 448 27 434 27 Q 431 27 418 28 L 269 48 Q 233 53 224 55 Q 214 57 205 67 Q 196 76 197 84 Q 197 88 200 91 L 218 100 Q 223 103 230 114 Q 237 125 237 155 Q 237 184 230 196 Q 223 208 217 212 L 199 221 Q 211 225 193 231 Q 191 237 191 245 Q 190 253 190 257 Q 191 262 192 264 Q 194 266 196 268 L 209 273 Q 219 278 223 285 Q 227 292 231 307 Q 235 323 235 341 Q 235 367 228 375 Q 221 384 214 389 Q 206 394 199 396 L 170 402 Q 164 404 160 417 Q 157 430 157 438 Q 157 447 168 459 Q 179 471 196 474 Q 213 477 219 477 Q 237 477 243 470 Q 249 463 250 456 Q 252 448 251 421 V 407 L 251 331 Q 250 290 256 268 Q 262 245 311 241 L 360 241 L 444 241 Q 470 242 480 232 Q 490 222 490 187 Q 490 152 458 151 Z M 270 345 271 423 Q 271 446 273 456 Q 276 465 284 474 Q 291 483 315 483 L 351 485 L 412 485 Q 446 486 460 472 Q 473 458 473 426 V 309 Q 473 260 422 260 L 378 259 H 322 Q 307 259 299 261 Q 290 263 281 271 Q 272 279 271 310 Z" fill="black" />
  </g>
  <g class="defect" id="01">
    <path d="M 356 506 Q 313 487 282 496" fill="none" stroke="red" stroke-width="3" />
  </g>
  <g class="defect" id="02">
    <path d="M 199 221 Q 211 225 193 231" fill="none" stroke="red" stroke-width="3" />
  </g>
  <g class="defect" id="03">
    <path d="M 122 3 Q 133 -12 166 13" fill="none" stroke="red" stroke-width="3" />
  </g>
</svg>