<svg xmlns="http://www.w3.org/2000/svg" width="512" height="512" viewBox="0 0 512 512">
  <g class="glyph">
    <path d="M 161 411 118 423 Q 91 430 76 432 Q 61 433 39 428 Q 18 423 10 394 Q 2 365 2 352 Q 3 335 9 324 Q 16 312 23 307 L 45 294 Q 49 290 50 287 Q 51 284 52 261 Q 52 238 49 232 Q 47 230 45 228 Q 42 227 31 223 Q 20 218 15 211 Q 10 204 5 192 Q 1 180 0 157 Q 0 134 9 117 Q 15 105 20 102 Q 26 99 35 96 Q 45 93 47 89 Q 50 86 51 76 Q 51 67 51 60 Q 51 53 52 43 Q 53 33 69 17 Q 86 1 122 0 Q 147 0 161 6 Q 176 12 181 18 Q 187 25 190 34 Q 193 43 194 59 Q 195 76 195 80 Q 196 85 198 87 L 201 90 Q 201 86 201 74 Q 202 61 203 53 Q 204 45 210 34 Q 215 23 228 14 Q 240 6 275 6 H 387 Q 425 6 438 19 Q 450 32 453 45 Q 457 58 458 80 Q 459 103 462 153 Q 470 155 480 160 Q 491 165 493 181 Q 496 197 496 214 Q 496 231 495 236 L 492 249 Q 498 255 504 264 Q 510 273 508 299 Q 506 325 499 336 Q 493 346 484 349 L 468 355 Q 474 361 486 370 Q 498 379 504 386 Q 511 393 511 414 Q 512 435 496 455 Q 474 482 437 481 Q 422 481 418 479 L 401 470 Q 397 481 387 495 Q 376 508 334 508 Q 312 509 297 502 Q 283 496 275 486 L 267 475 Q 264 472 260 471 Q 258 471 244 475 Q 230 479 220 479 Q 196 479 183 462 Q 170 446 166 435 Q 162 423 162 419 L 161 411 Z M 340 157 V 183 Q 340 200 344 205 Q 347 209 352 211 Q 357 212 367 213 Q 378 214 388 219 Q 399 224 401 241 Q 403 257 405 260 Q 407 262 423 261 Q 450 260 459 254 Q 468 249 471 239 Q 474 229 474 209 Q 474 188 468 181 Q 462 174 455 173 L 447 173 Q 441 172 440 171 Q 438 170 438 160 V 134 Q 425 98 435 72 Q 432 46 425 38 Q 417 31 406 30 Q 395 28 364 28 L 287 27 Q 266 27 252 30 Q 237 33 231 43 Q 225 54 224 79 Q 223 104 223 116 Q 222 128 220 138 Q 219 149 215 159 Q 211 170 199 188 Q 187 207 186 215 Q 185 222 190 234 Q 201 258 221 262 Q 242 266 248 265 Q 260 264 270 256 Q 281 249 294 228 Q 307 207 312 194 Q 317 181 318 153 Q 319 124 321 115 Q 324 107 333 107 Q 335 108 338 110 Q 341 111 341 122 L 340 157 Z M 199 275 Q 195 281 193 284 Q 192 287 192 297 Q 191 307 196 317 Q 205 337 236 336 Q 266 336 248 352 Q 244 355 231 364 L 208 378 Q 196 386 189 393 Q 183 400 184 414 Q 185 422 191 433 Q 197 445 205 450 Q 212 456 225 456 Q 240 457 258 445 Q 277 432 283 433 Q 285 434 287 435 Q 289 436 288 444 Q 288 451 289 458 Q 291 472 299 480 Q 307 487 332 488 Q 357 489 369 477 Q 377 470 378 460 L 380 434 Q 384 428 390 432 L 414 450 Q 426 460 441 460 Q 457 460 472 446 Q 487 432 487 415 Q 487 398 478 390 Q 470 383 454 373 Q 439 363 428 353 L 423 348 Q 418 344 418 340 Q 418 337 430 336 L 460 335 Q 468 335 476 328 Q 485 320 486 299 Q 487 284 483 278 L 477 267 Q 473 270 468 273 Q 463 276 452 278 Q 441 280 412 281 Q 396 281 392 280 Q 388 279 386 278 Q 384 276 383 272 L 381 253 Q 378 238 368 235 Q 357 232 337 230 Q 325 230 322 231 Q 318 233 314 237 Q 310 241 300 254 Q 289 268 275 276 Q 262 284 243 284 Q 226 285 199 275 Z M 200 115 Q 195 113 185 112 Q 174 111 173 109 Q 171 107 171 102 L 170 72 Q 170 54 167 45 Q 165 35 154 30 Q 143 25 125 25 Q 93 25 84 35 Q 75 45 75 68 V 102 Q 75 109 69 111 L 44 115 Q 25 122 24 145 Q 23 168 27 180 Q 30 191 35 197 Q 40 203 49 204 L 68 207 Q 74 211 74 217 V 289 Q 57 286 72 309 Q 69 311 67 313 L 48 318 Q 39 321 34 328 Q 30 334 28 340 Q 27 347 26 361 Q 25 374 36 392 Q 43 404 54 407 Q 64 411 75 409 L 157 389 Q 159 389 169 385 Q 174 379 178 375 Q 182 371 207 354 Q 182 344 178 334 Q 173 324 172 317 Q 171 311 171 297 Q 170 283 172 277 L 175 259 Q 169 252 167 248 Q 166 245 164 237 Q 162 229 162 225 Q 161 220 163 215 Q 164 211 170 200 Q 175 190 176 187 L 190 163 Q 195 152 197 141 Q 199 130 199 123 L 200 115 Z" fill="black" />
  </g>
  <g class="defect" id="01">
    <path d="M 438 134 Q 425 98 435 72" fill="none" stroke="red" stroke-width="3" />
  </g>
  <g class="defect" id="02">
    <path d="M 74 289 Q 57 286 72 309" fill="none" stroke="red" stroke-width="3" />
  </g>
</svg>