<svg xmlns="http://www.w3.org/2000/svg" width="512" height="512" viewBox="0 0 512 512">
  <g class="glyph">
    <path d="M 305 315 H 371 L 376 315 Q 377 316 377 321 L 377 326 L 377 331 Q 377 332 377 333 Q 365 334 372 334 L 280 333 Q 276 333 275 332 Q 274 331 274 324 L 274 317 Q 274 316 275 316 Q 275 315 305 315 Z M 307 267 H 360 L 364 267 L 375 267 Q 378 269 378 273 Q 378 274 378 277 L 377 284 Q 376 284 320 283 L 278 283 Q 275 283 275 281 Q 274 278 275 275 V 267 Q 275 267 307 267 Z M 379 237 H 375 L 280 235 Q 277 235 276 235 Q 275 234 275 227 L 274 221 Q 275 219 278 219 L 345 219 Q 376 215 379 220 Q 380 225 380 228 L 379 237 Z M 368 188 327 188 279 188 Q 276 184 276 178 Q 276 171 286 170 Q 287 170 292 171 Q 298 172 315 172 Q 333 171 346 171 Q 358 172 367 171 Q 376 171 378 172 Q 379 173 379 176 L 378 180 L 377 188 Q 377 189 368 188 Z M 180 42 Q 188 36 193 35 Q 199 34 219 33 Q 239 31 249 33 Q 259 34 262 31 Q 262 30 264 25 Q 266 19 273 13 Q 279 7 291 4 Q 303 0 324 0 Q 352 0 363 3 Q 375 7 382 12 Q 390 17 392 24 Q 394 30 395 31 Q 396 32 411 33 L 451 33 Q 472 34 481 39 Q 491 44 496 57 Q 502 69 502 93 Q 501 113 497 125 Q 494 137 486 142 L 475 149 Q 472 153 472 181 V 285 Q 472 302 474 304 Q 475 306 486 308 Q 496 311 504 320 Q 512 328 510 363 Q 509 376 505 389 Q 502 401 496 406 L 483 417 Q 491 429 493 438 Q 495 446 493 457 Q 474 455 481 480 Q 471 493 454 500 Q 437 506 420 503 Q 403 500 391 490 Q 379 481 360 461 Q 341 441 328 423 Q 314 443 293 470 Q 272 497 246 502 Q 218 508 194 486 Q 170 465 170 443 Q 170 432 173 428 L 185 411 Q 175 410 173 408 L 164 404 L 78 424 Q 59 428 37 419 Q 16 411 9 385 Q 2 359 2 347 Q 3 330 9 319 Q 34 308 22 303 L 44 290 Q 48 286 49 283 Q 50 279 50 271 Q 50 263 50 254 Q 51 244 50 240 Q 50 233 48 230 Q 46 228 44 226 Q 41 225 30 220 Q 19 215 14 208 Q 9 202 5 190 Q 1 178 0 156 Q 0 133 9 117 Q 15 106 20 103 Q 25 100 34 96 Q 44 93 46 90 Q 49 86 49 77 Q 50 68 50 62 Q 50 55 51 44 Q 52 34 68 19 Q 85 3 119 3 Q 145 3 158 12 Q 171 22 174 27 Q 177 33 180 42 Z M 191 92 Q 204 93 220 99 Q 243 93 261 92 Q 280 91 281 94 Q 282 95 282 97 V 105 Q 282 108 281 109 Q 280 111 266 111 H 245 Q 240 111 232 112 Q 235 119 237 129 Q 238 138 238 160 Q 238 182 233 196 Q 229 210 212 218 L 213 297 Q 213 317 211 319 Q 210 322 207 323 Q 204 324 190 324 Q 176 325 172 339 Q 169 353 171 366 Q 173 382 183 389 Q 193 395 198 392 Q 202 390 214 377 L 229 361 Q 240 348 258 345 Q 275 341 297 352 Q 318 363 321 373 L 329 393 Q 330 383 335 374 Q 339 365 354 356 Q 369 348 390 346 Q 410 344 428 360 L 463 392 Q 469 398 477 390 Q 486 382 486 368 Q 487 354 486 347 Q 485 339 480 331 Q 474 323 450 324 L 451 143 Q 451 129 443 120 Q 434 112 418 111 L 377 110 Q 375 110 374 109 Q 373 108 373 103 L 372 98 Q 372 92 384 93 L 420 92 Q 436 92 450 97 Q 463 103 464 111 Q 466 120 467 121 Q 468 122 470 121 Q 472 121 475 116 Q 477 110 478 104 Q 479 98 478 82 Q 477 70 472 62 Q 467 54 451 53 L 374 53 Q 374 49 374 43 Q 374 37 368 30 Q 361 23 329 22 Q 297 21 291 27 Q 285 34 284 39 Q 283 45 283 46 L 284 52 L 223 52 Q 208 52 203 53 Q 199 54 193 61 Q 187 67 190 79 L 191 92 Z M 190 225 Q 185 227 184 229 Q 182 231 183 238 Q 183 246 183 253 Q 183 261 183 263 Q 183 269 185 269 L 190 268 Z M 190 297 Q 185 294 183 294 L 169 295 Q 166 295 165 294 Q 163 292 163 276 L 162 240 Q 162 220 164 214 Q 167 208 170 207 Q 174 205 181 204 Q 189 204 199 199 Q 209 194 211 183 Q 213 173 214 157 Q 215 142 214 136 Q 211 127 206 121 Q 200 116 191 115 L 178 113 Q 167 112 167 103 L 166 74 Q 165 59 163 51 Q 161 42 154 35 Q 147 27 122 27 Q 92 27 82 37 Q 73 47 73 69 V 103 Q 73 109 67 111 L 43 116 Q 24 123 23 145 Q 23 167 26 179 Q 29 190 34 195 Q 39 201 48 202 L 66 205 Q 72 208 72 215 V 285 Q 72 302 70 304 Q 68 307 66 308 L 47 314 Q 38 317 33 323 Q 29 329 27 335 Q 26 342 25 355 Q 24 368 35 385 Q 49 407 73 402 L 153 384 Q 151 378 150 372 Q 149 366 149 353 Q 149 341 153 328 Q 157 314 164 310 Q 170 305 190 301 Z M 271 459 298 426 Q 303 420 306 415 Q 309 409 309 401 Q 310 394 296 380 Q 269 353 243 376 Q 241 377 222 397 Q 202 416 198 426 Q 193 435 192 444 Q 192 453 211 471 Q 229 490 243 483 Q 258 475 271 459 Z M 360 428 405 472 Q 409 476 416 479 Q 424 483 431 483 Q 440 484 450 478 Q 460 472 466 462 Q 472 452 471 443 Q 470 434 463 424 Q 455 415 436 396 Q 417 378 406 372 Q 395 367 387 367 Q 373 367 359 380 Q 346 392 346 404 Q 346 415 360 428 Z" fill="black" />
  </g>
  <g class="defect" id="01">
    <path d="M 9 319 Q 34 308 22 303" fill="none" stroke="red" stroke-width="3" />
  </g>
  <g class="defect" id="02">
    <path d="M 493 457 Q 474 455 481 480" fill="none" stroke="red" stroke-width="3" />
  </g>
  <g class="defect" id="03">
    <path d="M 377 333 Q 365 334 372 334" fill="none" stroke="red" stroke-width="3" />
  </g>
</svg>