<svg xmlns="http://www.w3.org/2000/svg" width="512" height="512" viewBox="0 0 512 512">
  <g class="glyph">
    <path d="M 97 274 110 218 Q 114 204 116 201 Q 119 199 125 199 Q 128 200 130 202 Q 131 205 132 214 Q 133 223 124 257 L 119 276 Q 117 286 111 291 Q 106 296 101 290 Q 97 284 97 282 Z M 174 86 Q 195 68 200 67 L 237 59 Q 237 52 238 44 Q 238 36 242 29 Q 246 22 261 13 Q 275 4 310 2 Q 346 0 357 15 Q 367 31 374 50 L 392 47 L 416 44 Q 454 39 465 51 Q 476 62 479 76 Q 482 89 483 106 Q 484 129 479 135 L 474 142 L 477 167 Q 486 173 490 177 Q 495 181 499 190 Q 503 199 504 213 Q 505 227 501 244 Q 497 260 493 267 L 487 278 Q 489 281 493 286 Q 496 290 498 303 Q 500 317 500 321 Q 500 326 499 350 Q 498 360 496 365 Q 493 369 493 370 Q 493 371 502 379 Q 507 383 509 393 Q 511 403 511 413 Q 512 423 506 443 Q 499 467 485 482 Q 472 498 445 498 L 382 499 Q 370 499 357 496 Q 343 494 334 490 Q 325 486 319 473 Q 312 459 309 459 Q 306 459 298 464 Q 270 483 247 491 Q 223 499 209 498 Q 190 497 177 486 Q 174 459 161 464 L 159 454 Q 152 453 143 452 Q 137 459 134 462 L 119 481 Q 107 496 95 502 Q 83 509 62 509 Q 42 509 21 487 Q 0 466 1 440 Q 2 414 15 400 L 31 383 Q 38 375 38 372 Q 38 368 36 365 Q 35 363 19 349 Q 3 335 3 313 Q 3 291 8 277 L 18 243 Q 23 226 23 221 Q 22 215 19 208 L 9 195 Q 0 180 2 148 Q 3 121 12 107 Q 21 94 32 91 L 46 86 Q 51 83 52 78 L 59 50 Q 43 35 74 25 Q 86 14 111 14 Q 126 14 139 19 Q 152 25 161 35 Q 171 45 171 59 L 174 86 Z M 199 207 Q 202 186 202 181 L 203 173 Q 185 166 179 155 Q 173 145 171 133 Q 169 121 169 117 L 169 113 Q 164 112 158 111 Q 152 110 150 108 Q 148 106 148 101 Q 147 97 150 78 Q 153 59 144 48 Q 135 37 112 36 Q 80 35 75 63 L 70 96 Q 68 107 62 108 L 42 110 Q 20 117 21 154 Q 22 184 32 192 L 45 200 Q 46 203 47 206 Q 47 210 45 216 Q 41 234 39 241 L 35 254 L 26 285 Q 23 294 24 312 Q 24 329 45 345 L 66 360 Q 74 367 59 384 L 47 397 Q 31 413 26 419 Q 22 426 21 443 Q 21 459 38 476 Q 55 492 75 488 Q 85 486 93 479 Q 101 472 113 454 Q 125 435 127 428 Q 129 421 131 420 Q 132 419 137 420 Q 140 421 155 430 Q 156 420 158 407 Q 161 394 178 378 Q 170 369 161 354 Q 152 339 158 309 Q 165 280 173 276 L 183 271 Q 181 264 181 258 Q 180 252 182 239 Q 169 227 187 220 Q 190 214 199 207 Z M 221 199 Q 232 195 242 193 Q 252 190 257 188 Q 262 186 263 183 Q 264 181 260 174 Q 257 168 255 167 Q 254 166 246 167 L 230 171 L 223 173 Q 222 178 222 180 Q 222 182 221 199 Z M 472 294 Q 461 301 444 309 Q 427 318 389 317 Q 370 317 357 313 Q 345 309 320 295 Q 276 314 245 317 Q 225 319 215 315 Q 204 312 191 293 Q 187 293 184 299 Q 180 306 179 322 Q 179 339 189 354 Q 193 360 199 364 Q 206 368 223 367 Q 239 367 240 371 Q 240 374 238 377 Q 234 382 228 385 L 206 391 Q 197 394 188 402 Q 179 410 178 414 Q 177 418 175 427 Q 174 437 178 450 Q 186 475 212 476 Q 223 477 249 467 Q 275 457 291 440 Q 307 422 307 413 L 308 373 Q 308 370 310 367 Q 313 365 317 365 Q 321 365 324 368 Q 327 371 327 374 L 328 432 Q 328 442 334 459 Q 341 475 364 475 L 433 477 Q 459 477 469 467 Q 478 457 485 441 Q 491 425 489 411 Q 488 399 481 392 Q 475 385 462 379 Q 449 374 440 375 Q 427 377 421 386 L 414 398 Q 409 403 403 403 Q 399 403 397 401 Q 395 399 395 396 Q 395 393 399 386 L 403 376 Q 415 354 440 353 Q 444 353 448 354 L 467 358 Q 467 358 468 358 Q 474 358 477 350 Q 479 343 479 327 Q 478 310 477 306 Q 477 302 476 300 L 472 294 Z M 457 166 Q 457 159 457 155 Q 457 151 454 141 Q 452 132 442 125 Q 432 118 424 118 Q 415 118 404 123 Q 393 129 384 138 Q 375 146 369 141 Q 364 137 369 128 Q 373 122 389 112 Q 405 102 419 101 Q 428 101 440 104 Q 451 108 455 113 L 463 124 Q 463 121 464 119 Q 464 118 464 113 Q 463 99 462 90 Q 461 81 456 70 Q 451 59 430 62 L 391 66 L 359 71 Q 357 69 355 53 Q 353 37 344 31 Q 335 25 320 24 Q 305 22 292 24 Q 276 26 268 32 Q 261 39 258 46 Q 255 53 256 63 Q 257 73 256 74 Q 255 75 240 78 L 211 83 Q 198 85 191 96 Q 185 107 188 124 Q 191 138 195 144 Q 199 150 205 152 Q 211 155 242 149 L 258 147 Q 269 145 273 154 L 281 175 Q 286 189 285 192 Q 285 195 279 199 Q 274 202 245 211 Q 215 220 208 229 Q 201 237 200 257 Q 200 277 215 290 Q 223 299 239 297 Q 245 297 262 293 Q 278 290 290 285 L 315 274 Q 320 273 323 273 Q 328 273 345 284 Q 361 295 388 297 Q 406 298 434 293 Q 463 287 471 268 Q 480 249 482 238 Q 485 226 485 213 Q 485 199 475 191 Q 464 183 446 182 Q 431 182 421 187 Q 411 191 409 195 Q 407 198 403 209 Q 398 219 393 215 Q 387 211 389 200 Q 390 191 397 178 Q 404 165 438 164 Q 447 164 457 166 Z" fill="black" />
  </g>
  <g class="defect" id="01">
    <path d="M 177 486 Q 174 459 161 464" fill="none" stroke="red" stroke-width="3" />
  </g>
  <g class="defect" id="02">
    <path d="M 182 239 Q 169 227 187 220" fill="none" stroke="red" stroke-width="3" />
  </g>
  <g class="defect" id="03">
    <path d="M 59 50 Q 43 35 74 25" fill="none" stroke="red" stroke-width="3" />
  </g>
</svg>