<svg xmlns="http://www.w3.org/2000/svg" width="512" height="512" viewBox="0 0 512 512">
  <g class="glyph">
    <path d="M 114 258 125 213 Q 129 192 132 189 Q 117 174 141 187 Q 145 187 147 189 Q 148 191 149 204 Q 150 216 137 262 Q 135 267 134 273 Q 133 279 130 280 Q 128 282 124 282 Q 118 281 115 278 Q 113 275 113 271 Q 112 266 114 258 Z M 184 35 Q 193 17 202 11 Q 212 6 241 6 L 414 6 Q 441 7 454 14 Q 468 22 474 38 Q 480 54 481 73 Q 481 92 477 103 Q 472 113 464 122 Q 456 131 446 133 Q 436 135 436 135 Q 436 137 440 139 Q 444 140 455 141 Q 467 141 478 150 Q 489 158 495 173 Q 502 188 502 207 Q 502 226 497 243 Q 494 254 488 261 Q 483 269 469 273 Q 455 277 444 277 Q 432 277 431 281 Q 429 284 429 291 Q 430 298 429 312 Q 429 325 432 327 Q 434 329 455 330 Q 476 330 491 346 Q 505 361 509 373 Q 512 384 510 398 Q 509 411 500 437 Q 491 463 479 478 Q 466 492 455 496 Q 444 501 425 501 L 363 502 Q 336 503 323 494 Q 310 484 309 464 Q 307 443 306 443 Q 304 443 294 456 Q 288 463 277 474 Q 265 484 255 490 Q 245 495 229 495 Q 193 494 180 471 Q 166 448 165 437 Q 161 438 158 439 Q 155 441 130 470 Q 106 500 75 498 Q 45 496 24 475 Q 3 453 4 426 Q 4 396 21 382 Q 39 367 41 364 Q 43 362 43 359 Q 43 356 42 353 Q 41 352 26 339 Q 11 325 12 306 Q 13 288 14 284 L 25 239 Q 30 222 29 216 Q 28 211 26 207 L 15 194 Q 0 178 1 143 Q 1 125 5 113 Q 9 102 12 97 Q 15 93 21 88 Q 27 82 32 80 L 50 74 Q 54 71 55 64 L 62 38 Q 66 24 80 12 Q 94 1 124 0 Q 155 0 176 21 Q 182 27 183 30 L 184 35 Z M 181 98 Q 176 98 171 98 Q 165 97 162 95 Q 160 92 160 88 Q 160 87 162 74 Q 163 62 164 59 Q 164 56 164 53 Q 164 42 157 33 Q 149 23 120 23 Q 101 23 92 31 Q 82 39 78 65 Q 75 91 67 95 L 42 100 Q 22 107 23 145 Q 23 156 25 165 Q 26 174 30 179 Q 34 185 37 187 Q 41 189 47 192 Q 53 195 54 197 Q 55 199 55 202 Q 56 206 52 219 L 42 258 Q 35 287 36 304 Q 38 322 51 331 L 72 346 Q 78 350 79 357 Q 80 364 66 374 Q 35 397 31 407 Q 27 417 27 431 Q 26 445 41 460 Q 56 475 73 475 Q 90 475 103 464 Q 115 453 133 434 Q 152 415 154 414 Q 157 414 171 413 Q 184 413 195 403 Q 206 393 209 382 Q 213 370 211 362 Q 211 359 206 348 Q 201 337 199 334 L 196 329 Q 194 327 194 326 Q 194 324 197 315 L 203 292 Q 206 280 209 271 Q 196 269 185 264 Q 174 260 165 246 Q 157 233 158 202 Q 158 177 165 166 Q 172 156 184 149 Q 197 142 214 143 Q 231 144 222 136 Q 222 136 213 136 Q 204 136 192 120 Q 184 110 183 107 L 181 98 Z M 229 274 Q 225 286 222 297 Q 219 308 218 310 Q 217 313 216 322 Q 224 311 227 306 Q 229 300 238 277 Z M 245 163 Q 207 163 192 170 Q 176 176 176 204 Q 176 241 207 250 Q 216 252 232 251 Q 248 251 269 251 Q 267 262 264 273 Q 272 283 255 299 Q 248 316 230 343 Q 232 350 234 358 Q 236 366 233 380 Q 229 394 217 411 Q 204 428 198 431 L 189 435 Q 202 469 222 470 Q 241 472 252 466 Q 262 460 284 433 Q 305 405 308 394 L 313 378 V 291 Q 313 276 321 258 Q 330 240 363 237 Q 378 237 387 239 Q 415 242 406 247 Q 416 251 420 253 Q 424 254 448 252 Q 462 251 468 246 Q 474 241 477 231 Q 480 221 480 209 Q 479 190 469 176 Q 459 163 423 163 H 391 Q 378 163 377 161 Q 375 159 375 154 V 122 Q 375 119 376 117 Q 378 115 388 115 H 417 Q 454 115 456 97 Q 458 78 458 71 Q 456 56 449 42 Q 442 28 417 28 H 232 Q 219 28 211 34 Q 204 39 200 50 Q 196 61 197 71 Q 197 91 206 100 Q 215 108 234 113 Q 253 118 265 116 Q 277 113 278 115 Q 279 116 279 124 V 155 Q 279 159 278 161 Q 277 163 268 163 Z M 368 480 425 481 Q 450 481 462 462 Q 475 443 482 422 Q 489 401 489 391 Q 490 381 480 365 Q 471 348 442 353 Q 436 354 432 356 Q 428 359 425 364 Q 422 370 418 378 Q 414 387 411 395 Q 408 404 405 407 Q 402 409 397 410 Q 393 411 389 407 Q 385 404 390 392 Q 392 386 398 375 Q 404 364 405 358 Q 407 352 407 337 V 298 Q 407 281 401 268 Q 395 255 362 258 Q 330 262 330 291 V 449 Q 330 465 338 472 Q 345 480 368 480 Z" fill="black" />
  </g>
  <g class="defect" id="01">
    <path d="M 132 189 Q 117 174 141 187" fill="none" stroke="red" stroke-width="3" />
  </g>
  <g class="defect" id="02">
    <path d="M 387 239 Q 415 242 406 247" fill="none" stroke="red" stroke-width="3" />
  </g>
  <g class="defect" id="03">
    <path d="M 264 273 Q 272 283 255 299" fill="none" stroke="red" stroke-width="3" />
  </g>
</svg>