<svg xmlns="http://www.w3.org/2000/svg" width="512" height="512" viewBox="0 0 512 512">
  <g class="glyph">
    <path d="M 136 11 183 11 Q 207 12 224 19 Q 240 25 240 25 Q 241 25 247 24 L 384 7 L 419 1 Q 427 0 447 0 Q 468 0 481 13 Q 495 27 499 41 Q 504 55 504 75 Q 504 95 496 106 L 481 122 Q 478 128 478 142 Q 478 155 479 180 L 483 264 L 490 320 L 497 358 L 506 396 Q 512 423 511 437 Q 511 451 492 470 Q 474 490 434 490 Q 414 490 404 483 L 383 467 Q 379 466 376 465 Q 373 465 352 467 L 289 472 L 262 483 Q 251 487 235 486 Q 230 486 218 485 Q 207 484 192 477 Q 178 471 177 471 Q 175 471 164 477 Q 152 482 143 484 Q 135 485 100 485 Q 63 486 46 481 Q 29 476 22 462 Q 15 449 12 433 Q 9 418 10 410 Q 10 390 20 376 Q 30 361 46 355 Q 61 349 64 346 Q 66 344 65 333 Q 51 343 62 323 Q 60 321 42 317 Q 25 313 14 296 Q 4 279 2 272 Q 0 265 0 250 Q 0 232 6 216 Q 12 200 30 192 L 58 183 Q 62 181 64 178 L 67 163 L 70 151 Q 70 147 66 144 L 43 138 Q 33 135 21 121 Q 10 106 10 85 Q 10 64 12 55 Q 16 37 28 24 Q 41 12 62 11 Z M 88 306 V 346 Q 88 370 85 372 Q 81 375 76 376 L 56 378 Q 34 384 35 418 Q 36 443 43 451 Q 51 458 60 461 Q 68 463 85 463 Q 119 463 135 462 Q 150 462 156 455 Q 162 449 162 446 L 164 415 Q 165 407 169 392 Q 174 378 175 373 Q 175 368 176 337 L 177 326 V 292 Q 177 279 179 276 Q 182 273 184 271 L 212 260 Q 225 251 226 230 Q 226 209 221 202 Q 215 194 214 193 Q 213 192 192 201 Q 172 209 165 209 Q 146 209 131 200 Q 117 191 107 180 Q 97 169 95 170 Q 92 171 90 174 L 87 195 Q 85 203 78 204 L 47 211 Q 39 213 32 221 Q 25 230 24 252 Q 24 274 39 287 Q 45 294 53 295 L 81 295 Q 88 298 88 306 Z M 67 122 96 123 Q 116 123 119 125 Q 122 127 122 128 Q 123 130 122 132 L 116 144 Q 115 145 115 152 Q 131 142 129 173 Q 144 188 164 187 Q 179 186 187 179 Q 194 171 194 165 L 197 96 Q 197 75 198 71 Q 199 67 204 56 Q 209 45 209 43 Q 209 40 206 37 Q 204 34 183 34 L 100 33 Q 68 33 60 35 Q 52 37 46 42 Q 53 30 38 57 Q 35 66 35 94 Q 34 122 67 122 Z M 281 185 280 148 Q 280 133 284 130 Q 287 126 292 126 Q 296 126 299 129 Q 302 132 303 138 L 303 184 L 302 325 Q 302 360 301 364 Q 300 367 299 368 Q 297 369 284 376 Q 271 382 272 405 Q 272 414 274 424 Q 277 435 284 441 Q 291 447 304 448 L 320 448 L 374 443 Q 406 441 414 431 Q 422 422 422 413 Q 423 403 422 400 L 416 370 Q 409 333 399 326 Q 390 318 373 319 Q 358 320 351 327 Q 344 334 344 338 Q 344 342 344 342 L 345 360 Q 345 360 345 363 Q 345 365 343 368 Q 340 371 336 371 Q 322 370 325 342 Q 326 327 330 320 Q 334 312 345 306 Q 355 299 358 297 Q 360 294 361 289 L 361 235 L 362 136 Q 362 127 365 124 Q 369 121 374 121 Q 379 120 382 125 Q 384 130 384 163 V 258 Q 384 277 384 284 Q 384 290 386 292 Q 388 294 390 295 L 408 304 Q 427 315 433 345 L 441 384 Q 446 410 446 418 Q 445 426 443 432 Q 441 438 438 442 L 420 458 Q 419 460 418 461 Q 418 463 421 466 Q 424 469 431 469 Q 436 469 457 465 Q 477 462 482 449 Q 488 436 487 426 Q 487 419 484 401 Q 480 382 476 367 Q 472 352 471 349 L 466 316 L 460 271 L 456 184 L 455 129 Q 455 114 457 110 L 471 100 Q 481 92 481 78 Q 481 65 480 57 Q 476 40 465 30 Q 455 21 428 24 L 329 38 L 259 46 Q 230 50 224 70 Q 218 89 218 116 V 144 Q 218 159 219 162 Q 221 165 232 178 Q 243 192 245 206 Q 248 220 248 234 Q 248 249 241 263 Q 237 269 233 273 L 215 285 Q 208 292 207 299 L 200 363 Q 198 377 191 399 Q 184 421 186 430 Q 187 442 196 453 Q 205 464 233 465 Q 254 465 260 460 Q 266 454 266 451 Q 266 449 258 440 Q 251 432 251 417 Q 251 402 252 394 Q 253 386 256 376 Q 260 367 264 362 L 275 353 Q 277 351 278 348 Q 280 345 280 337 Q 279 330 280 290 Z" fill="black" />
  </g>
  <g class="defect" id="01">
    <path d="M 115 152 Q 131 142 129 173" fill="none" stroke="red" stroke-width="3" />
  </g>
  <g class="defect" id="02">
    <path d="M 65 333 Q 51 343 62 323" fill="none" stroke="red" stroke-width="3" />
  </g>
  <g class="defect" id="03">
    <path d="M 46 42 Q 53 30 38 57" fill="none" stroke="red" stroke-width="3" />
  </g>
</svg>