<svg xmlns="http://www.w3.org/2000/svg" width="512" height="512" viewBox="0 0 512 512">
  <g class="glyph">
    <path d="M 50 128 66 96 Q 80 67 93 58 Q 106 49 131 49 Q 145 50 156 53 L 175 58 Q 177 59 178 59 Q 180 59 182 57 Q 184 56 185 52 L 193 30 Q 197 21 211 12 Q 225 2 255 1 Q 286 0 305 10 Q 323 20 328 32 L 333 50 Q 336 55 340 56 Q 343 57 355 52 Q 368 47 397 48 Q 426 48 444 79 L 478 137 L 498 165 Q 512 184 512 203 Q 512 222 506 235 Q 500 247 492 256 Q 483 265 470 273 Q 458 281 457 282 Q 456 283 455 285 L 444 308 L 427 336 L 420 346 L 395 376 L 364 404 Q 354 414 321 436 Q 288 458 274 462 L 188 490 L 168 494 Q 142 500 103 501 Q 45 489 45 481 Q 25 461 24 434 Q 24 407 27 398 Q 30 385 41 373 Q 52 360 72 356 Q 91 351 112 348 Q 133 345 159 338 Q 185 332 185 327 Q 185 326 183 320 Q 180 314 180 303 L 181 256 V 225 Q 159 268 146 284 Q 132 299 112 303 Q 79 310 46 294 Q 12 277 6 261 Q 0 244 1 227 Q 2 211 8 200 Z M 68 141 28 208 Q 22 217 22 231 Q 23 245 34 257 Q 46 270 64 276 Q 62 282 94 281 Q 106 281 115 276 Q 124 271 133 259 Q 141 248 151 228 Q 162 207 167 197 L 183 159 Q 186 150 190 134 Q 194 117 194 110 Q 193 98 186 89 Q 178 81 160 74 Q 142 68 128 68 Q 117 69 107 74 Q 98 78 95 85 Z M 145 477 200 466 215 461 261 444 276 438 Q 296 430 312 417 L 355 385 L 391 349 L 399 339 Q 409 328 420 307 Q 432 287 432 277 Q 431 262 418 248 Q 404 234 390 228 Q 376 222 367 222 Q 351 223 344 231 Q 336 239 335 247 Q 333 255 333 265 L 334 271 Q 334 288 331 302 Q 318 350 260 351 L 230 352 Q 197 353 195 353 Q 193 354 178 358 Q 163 361 154 363 L 81 375 Q 64 378 56 388 Q 47 398 46 426 Q 44 454 62 468 Q 79 483 103 481 Z M 204 163 204 165 202 282 Q 202 298 208 312 Q 213 325 247 328 Q 284 331 297 320 Q 309 309 312 293 Q 314 277 314 247 L 315 165 Q 325 146 313 151 L 306 126 Q 304 115 303 107 Q 303 99 305 94 L 311 75 Q 312 72 312 58 Q 312 44 304 34 Q 298 28 286 24 Q 274 20 262 20 Q 255 20 240 23 Q 225 25 216 34 Q 207 43 208 65 Q 208 70 208 73 L 215 95 Q 216 101 216 113 Q 215 124 213 132 Z M 457 142 430 96 Q 420 78 409 73 Q 399 67 385 67 Q 352 67 338 84 Q 324 100 323 109 Q 323 118 324 122 L 327 131 Q 328 138 335 154 Q 342 169 347 182 Q 352 196 359 200 L 393 207 Q 400 209 410 215 Q 420 222 429 230 Q 438 238 443 245 Q 449 253 455 255 Q 461 258 476 241 Q 492 223 491 207 Q 490 190 480 176 Z" fill="black" />
  </g>
  <g class="defect" id="01">
    <path d="M 103 501 Q 45 489 45 481" fill="none" stroke="red" stroke-width="3" />
  </g>
  <g class="defect" id="02">
    <path d="M 315 165 Q 325 146 313 151" fill="none" stroke="red" stroke-width="3" />
  </g>
  <g class="defect" id="03">
    <path d="M 64 276 Q 62 282 94 281" fill="none" stroke="red" stroke-width="3" />
  </g>
</svg>