<svg xmlns="http://www.w3.org/2000/svg" width="512" height="512" viewBox="0 0 512 512">
  <g class="glyph">
    <path d="M 151 210 Q 161 211 163 215 Q 164 218 164 224 Q 165 231 161 234 Q 158 237 149 237 Q 141 237 139 234 Q 136 232 136 228 Q 135 225 136 221 Q 136 216 139 213 Q 158 210 151 210 Z M 158 270 H 291 Q 329 270 336 272 Q 342 273 342 281 Q 342 289 327 289 L 186 289 Q 151 289 148 288 Q 144 287 142 285 Q 140 283 140 279 Q 140 276 142 273 Q 145 270 158 270 Z M 223 161 Q 222 149 235 148 Q 248 147 252 152 Q 255 156 255 161 Q 255 170 241 171 Q 227 172 224 167 Q 224 166 223 162 L 223 161 Z M 225 224 Q 225 215 228 213 Q 231 210 239 210 Q 247 210 250 213 Q 253 216 253 224 Q 253 231 250 234 Q 246 237 237 236 Q 229 236 227 233 Q 225 229 225 224 Z M 314 224 Q 314 216 317 213 Q 321 210 333 208 Q 345 207 343 225 Q 342 231 340 233 Q 337 236 330 237 Q 322 237 318 234 Q 315 232 315 229 Q 314 225 314 224 Z M 216 84 H 259 Q 261 77 262 73 Q 264 68 267 63 L 285 32 Q 290 22 295 16 Q 300 9 310 4 Q 320 0 339 2 Q 370 7 384 20 Q 399 32 401 40 Q 404 49 402 60 Q 401 67 395 84 H 425 Q 447 84 457 89 Q 467 95 476 109 Q 485 124 477 153 Q 473 166 466 172 L 445 189 Q 444 192 444 193 Q 444 195 444 195 L 445 207 L 446 257 Q 446 260 446 268 Q 445 276 446 283 Q 446 290 443 304 Q 440 317 441 317 Q 441 321 444 323 L 462 334 Q 467 338 472 348 Q 478 357 478 377 Q 479 396 466 409 Q 454 422 435 423 L 398 426 L 393 430 L 388 461 Q 388 465 381 479 Q 373 492 355 500 Q 336 508 310 510 Q 283 512 275 511 L 247 508 Q 233 505 227 501 L 216 493 Q 213 492 211 491 Q 208 491 194 495 Q 180 500 171 499 Q 150 499 134 491 Q 118 482 107 458 Q 96 435 91 430 Q 86 425 80 425 L 54 423 Q 17 421 10 402 Q 3 383 3 371 Q 3 359 9 346 Q 13 337 19 332 L 37 321 Q 39 318 40 316 Q 40 314 40 313 L 35 292 Q 35 290 35 270 V 216 Q 35 213 36 208 Q 36 203 36 200 Q 37 197 34 192 Q 33 191 31 189 Q 28 186 20 180 Q 11 173 7 165 Q 2 157 1 148 Q 0 140 0 132 Q 1 117 7 105 Q 13 94 24 89 Q 35 85 55 85 H 81 Q 75 74 75 67 Q 74 59 74 54 Q 76 43 84 32 Q 91 20 105 13 Q 119 6 133 4 Q 147 1 157 2 Q 169 4 178 12 Q 186 19 200 42 Q 213 64 216 84 Z M 211 103 Q 209 108 203 116 Q 198 125 177 134 Q 156 144 140 142 Q 128 141 120 135 Q 111 129 105 121 L 99 112 L 93 103 Q 48 103 39 108 Q 30 113 26 121 Q 22 129 24 140 Q 25 148 30 156 Q 36 163 40 162 Q 41 162 46 159 Q 51 156 61 153 Q 71 151 77 151 L 139 152 Q 157 152 159 155 Q 161 157 161 160 Q 162 163 160 165 Q 157 167 144 168 L 105 168 Q 84 169 76 172 Q 69 174 65 179 Q 61 184 59 194 Q 56 205 57 217 L 58 272 Q 58 292 64 308 Q 70 323 101 324 L 151 324 L 261 324 Q 276 324 281 325 Q 286 327 286 332 Q 287 337 283 340 Q 280 343 266 343 L 219 344 L 58 343 Q 41 343 34 350 Q 26 357 27 373 Q 27 389 34 396 Q 41 403 62 405 Q 82 407 92 401 L 109 382 Q 115 375 144 364 Q 173 353 205 381 Q 210 386 216 394 Q 223 403 225 404 L 243 401 Q 248 401 253 400 L 270 400 Q 279 401 282 403 Q 286 405 286 410 Q 286 417 276 418 L 253 419 Q 228 423 227 447 Q 226 471 237 480 Q 243 485 250 487 Q 257 488 270 488 Q 309 488 326 487 Q 343 485 355 474 Q 366 462 367 441 L 369 413 Q 369 410 372 407 Q 375 404 382 404 H 421 Q 441 404 448 397 Q 455 390 455 381 Q 455 371 454 365 Q 452 356 447 351 Q 441 346 431 344 Q 421 343 406 343 Q 392 344 386 344 Q 375 343 371 340 Q 368 336 368 333 Q 368 329 371 327 Q 373 324 378 323 L 399 320 Q 406 318 416 307 Q 426 297 424 286 Q 422 276 422 275 L 422 235 Q 421 206 415 188 Q 410 170 380 169 L 326 168 Q 321 168 318 165 Q 316 163 316 159 Q 317 157 319 155 Q 321 153 328 153 L 349 152 L 406 154 Q 414 154 419 156 Q 424 159 428 162 Q 432 165 435 166 Q 438 167 444 162 Q 449 159 451 153 Q 454 148 455 138 Q 455 129 454 124 Q 451 115 443 109 Q 435 104 397 104 H 386 Q 373 125 359 135 Q 345 145 326 143 Q 307 141 296 135 Q 285 129 277 123 Q 268 117 266 112 L 261 104 Z M 117 426 139 464 Q 147 479 167 479 Q 188 480 199 470 Q 204 466 205 463 Q 207 460 207 447 L 209 430 Q 209 429 209 428 Q 209 412 197 401 Q 185 389 180 386 Q 174 383 155 382 Q 136 382 125 393 Q 114 404 114 410 Q 113 415 114 417 Z M 99 73 111 92 Q 113 97 121 105 Q 129 113 134 118 Q 139 123 149 122 Q 161 122 177 112 Q 194 102 192 83 Q 191 75 183 58 Q 174 40 166 33 Q 157 25 148 24 Q 138 22 125 27 Q 113 32 106 40 Q 98 47 96 56 Q 95 65 99 73 Z M 326 124 Q 337 125 347 119 Q 357 113 369 91 Q 380 69 381 59 Q 381 49 376 42 Q 372 36 358 30 Q 345 23 334 23 Q 317 23 307 37 L 293 64 Q 283 82 283 89 Q 283 96 288 103 Q 293 111 306 117 Q 318 123 326 124 Z" fill="black" />
  </g>
  <g class="defect" id="01">
    <path d="M 139 213 Q 158 210 151 210" fill="none" stroke="red" stroke-width="3" />
  </g>
</svg>