<svg xmlns="http://www.w3.org/2000/svg" width="512" height="512" viewBox="0 0 512 512">
  <g class="glyph">
    <path d="M 128 180 129 133 Q 129 125 133 122 Q 136 118 150 118 Q 175 118 179 121 Q 183 125 183 130 Q 184 135 184 136 L 183 188 Q 183 200 179 203 Q 176 206 162 207 Q 137 208 133 203 Q 128 199 128 182 V 180 Z M 156 188 Q 168 188 168 171 Q 168 153 168 152 Q 168 143 164 140 Q 161 137 153 136 Q 144 136 144 158 Q 144 165 145 176 Q 146 188 156 188 Z M 285 194 V 155 Q 285 128 287 124 Q 289 120 300 119 L 314 119 Q 335 121 337 124 Q 356 113 341 134 L 342 179 Q 342 201 337 204 Q 333 207 319 207 Q 299 208 292 206 Q 285 204 285 194 Z M 313 189 Q 316 190 320 187 Q 324 184 324 170 Q 324 156 324 155 Q 324 146 318 141 Q 313 136 307 142 Q 301 147 301 163 Q 301 173 303 181 Q 305 189 313 189 Z M 303 1 372 2 Q 449 3 459 38 Q 468 72 469 81 Q 470 89 470 116 L 470 206 Q 470 252 465 266 Q 459 280 460 284 Q 460 288 461 289 Q 462 291 483 306 Q 503 321 503 339 Q 504 357 502 362 L 495 398 L 493 406 Q 482 445 472 462 Q 463 479 446 494 Q 428 508 393 510 L 359 512 L 110 509 Q 13 508 6 465 Q 0 422 0 357 L 1 118 Q 1 82 12 50 Q 23 19 53 9 Q 83 0 156 0 Z M 119 488 363 491 Q 410 491 422 482 Q 435 473 443 464 Q 451 455 457 442 L 469 411 Q 473 399 477 379 Q 482 358 481 348 Q 480 333 471 323 Q 462 313 443 308 Q 423 302 408 302 Q 371 302 382 310 Q 374 319 372 324 L 359 362 Q 353 379 349 381 Q 345 383 334 383 L 181 382 Q 136 382 133 377 Q 130 372 130 359 V 355 Q 130 317 131 313 Q 132 307 134 304 Q 137 302 148 302 L 288 303 L 338 303 Q 352 304 357 302 L 379 288 Q 383 286 391 283 Q 399 280 405 280 L 426 281 Q 442 276 445 257 Q 448 238 448 218 V 135 L 448 90 Q 444 25 384 23 L 342 22 L 145 20 L 109 20 Q 64 21 46 37 Q 28 53 25 74 Q 21 95 21 118 L 20 366 Q 19 395 22 419 Q 25 442 33 457 Q 41 472 58 479 Q 75 486 84 486 Z M 172 363 321 365 Q 331 366 335 361 Q 339 357 342 347 Q 345 337 345 333 Q 345 328 342 325 Q 340 322 330 321 L 202 320 Q 158 320 156 323 Q 153 327 152 332 Q 164 325 150 346 Q 150 355 154 359 Q 159 363 172 363 Z" fill="black" />
  </g>
  <g class="defect" id="01">
    <path d="M 337 124 Q 356 113 341 134" fill="none" stroke="red" stroke-width="3" />
  </g>
  <g class="defect" id="02">
    <path d="M 152 332 Q 164 325 150 346" fill="none" stroke="red" stroke-width="3" />
  </g>
  <g class="defect" id="03">
    <path d="M 408 302 Q 371 302 382 310" fill="none" stroke="red" stroke-width="3" />
  </g>
</svg>