<svg xmlns="http://www.w3.org/2000/svg" width="512" height="512" viewBox="0 0 512 512">
  <g class="glyph">
    <path d="M 326 264 Q 326 261 328 258 Q 331 254 347 255 Q 360 256 360 262 Q 360 268 357 271 Q 354 274 347 274 Q 332 274 330 272 Q 327 270 326 268 Q 325 265 326 264 Z M 326 206 Q 326 203 328 201 Q 330 199 336 198 Q 343 197 347 196 Q 352 196 356 200 Q 360 204 360 207 Q 360 210 357 213 Q 355 216 343 217 Q 332 218 329 214 Q 327 212 326 210 Q 326 208 326 206 Z M 0 426 18 340 24 280 25 245 27 133 Q 27 99 33 74 Q 39 50 63 41 Q 87 33 97 32 L 170 29 Q 174 28 178 27 L 194 13 Q 212 0 260 0 Q 306 1 322 15 L 333 25 Q 339 29 345 29 Q 352 29 353 29 L 386 28 H 430 Q 491 28 491 95 Q 490 109 487 120 Q 485 130 483 132 L 468 153 Q 467 159 467 159 L 469 171 Q 480 179 489 189 Q 498 200 498 225 Q 497 250 492 261 Q 488 273 484 275 L 470 286 Q 465 297 462 307 Q 462 309 462 310 L 467 326 Q 468 330 468 334 Q 468 335 467 340 Q 466 345 465 350 L 457 366 Q 456 367 456 370 Q 455 372 460 376 L 479 390 Q 494 402 495 423 Q 496 444 485 464 Q 466 496 439 497 Q 411 497 392 486 L 366 472 Q 355 466 353 466 Q 352 467 351 468 Q 349 470 345 480 Q 341 491 330 498 Q 318 506 308 508 Q 297 510 258 511 Q 220 512 202 498 L 186 483 Q 182 481 178 480 Q 176 480 163 483 Q 150 486 147 486 Q 146 486 141 485 Q 137 485 135 484 Q 133 484 133 483 Q 131 483 129 484 L 110 493 Q 97 499 80 499 Q 60 499 43 491 Q 25 484 13 471 Q 0 458 0 448 Q 0 439 0 438 Z M 47 243 45 270 41 326 Q 50 371 29 393 Q 20 427 21 438 Q 22 453 31 464 Q 40 475 67 478 Q 95 480 99 475 Q 103 471 103 469 Q 103 467 102 465 L 93 449 Q 90 442 88 433 Q 86 425 85 414 Q 85 404 99 386 Q 102 383 104 381 L 129 364 Q 133 360 133 357 Q 133 354 131 350 L 121 336 Q 114 325 114 306 Q 114 287 114 285 L 102 265 Q 93 251 93 234 Q 93 217 99 204 Q 101 199 103 196 L 112 185 Q 114 183 115 180 L 117 155 Q 119 140 130 130 Q 141 120 154 120 L 203 119 Q 210 119 215 115 L 228 104 Q 242 93 282 92 Q 322 92 341 110 Q 347 115 349 117 Q 352 119 357 119 L 395 119 Q 421 120 437 126 Q 453 133 453 132 Q 471 129 470 95 Q 487 53 461 60 Q 452 51 442 50 Q 432 48 416 48 L 331 50 Q 331 50 327 50 Q 322 50 318 46 L 310 32 Q 300 20 253 19 Q 220 18 210 25 Q 200 32 197 37 L 193 46 Q 190 50 180 50 L 125 51 Q 97 51 77 56 Q 57 60 53 83 Q 49 106 49 126 Z M 329 459 330 434 Q 331 417 341 426 L 366 447 Q 384 463 403 470 Q 421 478 431 477 Q 450 476 463 459 Q 476 442 475 426 Q 474 419 470 411 Q 465 403 457 399 L 434 387 Q 427 384 426 381 Q 424 378 424 377 Q 424 375 425 373 L 439 353 Q 444 345 445 335 Q 445 325 431 309 Q 417 294 400 296 Q 388 298 379 306 Q 370 314 363 321 Q 356 329 351 333 Q 347 337 342 337 Q 338 336 337 335 Q 335 333 334 329 Q 333 324 346 312 L 364 292 Q 381 278 399 277 Q 405 277 411 279 L 437 289 Q 441 288 444 286 L 447 277 Q 449 273 453 270 L 465 263 Q 476 254 476 230 Q 477 205 469 195 Q 466 193 464 191 L 449 185 Q 448 183 447 180 L 441 157 Q 437 150 429 144 Q 421 138 407 138 L 370 137 Q 336 136 333 133 L 324 121 Q 320 117 308 114 Q 297 111 281 111 Q 262 111 252 115 Q 241 119 238 122 L 229 134 Q 225 137 206 137 H 174 Q 150 137 142 146 Q 134 155 135 170 Q 137 185 144 192 Q 152 200 192 199 Q 176 183 201 199 Q 207 199 221 198 Q 235 198 235 204 Q 236 210 233 213 Q 230 217 220 216 Q 219 216 212 216 Q 205 216 177 216 Q 148 216 137 211 Q 126 206 125 206 Q 122 207 117 211 Q 113 214 112 231 Q 111 248 117 254 Q 124 260 127 261 L 152 254 Q 156 253 163 253 Q 165 253 181 253 Q 197 253 216 253 Q 235 253 235 261 Q 236 270 218 270 L 190 271 Q 164 271 156 272 Q 148 273 142 279 Q 135 286 134 298 Q 133 310 139 310 Q 140 311 142 310 L 164 293 Q 175 286 191 287 Q 198 287 205 289 Q 212 292 224 303 Q 235 314 247 331 Q 258 349 258 362 Q 258 375 240 394 Q 223 413 200 412 Q 186 412 176 404 L 155 382 Q 151 380 148 379 Q 145 379 137 383 Q 122 391 115 398 Q 108 405 107 418 Q 107 431 114 445 Q 124 463 142 465 Q 153 467 180 455 Q 207 443 218 437 Q 228 431 235 432 Q 242 434 242 438 Q 242 443 240 446 L 209 464 Q 206 467 205 470 Q 205 473 209 477 Q 215 484 225 487 Q 236 489 262 490 Q 293 491 304 487 Q 314 484 321 476 Q 329 469 329 459 Z M 199 393 Q 205 393 215 388 Q 224 383 230 376 Q 236 369 237 358 Q 238 347 222 327 Q 203 305 187 305 Q 179 305 168 311 Q 157 318 155 324 Q 152 330 152 333 Q 152 337 152 337 Q 152 342 154 347 Q 156 351 167 368 Q 179 385 187 389 Q 194 393 199 393 Z" fill="black" />
  </g>
  <g class="defect" id="01">
    <path d="M 470 95 Q 487 53 461 60" fill="none" stroke="red" stroke-width="3" />
  </g>
  <g class="defect" id="02">
    <path d="M 41 326 Q 50 371 29 393" fill="none" stroke="red" stroke-width="3" />
  </g>
  <g class="defect" id="03">
    <path d="M 192 199 Q 176 183 201 199" fill="none" stroke="red" stroke-width="3" />
  </g>
</svg>