<svg xmlns="http://www.w3.org/2000/svg" width="512" height="512" viewBox="0 0 512 512">
  <g class="glyph">
    <path d="M 352 200 Q 353 193 370 191 Q 388 190 388 201 Q 388 211 370 210 Q 355 210 354 206 Q 352 201 352 200 Z M 352 123 Q 353 116 361 116 Q 395 96 384 119 Q 388 121 388 126 Q 387 135 373 134 Q 361 134 358 132 Q 354 130 353 127 Q 352 124 352 123 Z M 43 351 Q 42 337 39 332 L 23 317 Q 17 313 9 299 Q 2 286 1 268 Q 1 250 9 236 Q 12 227 18 222 L 37 205 Q 39 202 39 199 Q 40 197 35 191 L 22 178 Q 0 154 0 127 Q 1 100 23 82 L 84 31 Q 108 10 117 6 Q 125 2 138 1 Q 148 1 158 4 Q 168 6 173 9 L 203 25 Q 204 26 217 26 Q 242 25 247 23 L 264 11 Q 280 0 315 0 Q 338 0 350 4 Q 363 8 369 12 L 383 24 Q 388 27 394 27 L 430 28 Q 453 29 469 44 Q 485 58 488 75 L 492 103 Q 492 105 502 120 Q 512 135 511 163 Q 511 178 510 186 Q 509 194 507 200 Q 505 205 498 214 Q 492 223 492 226 L 484 266 Q 484 267 484 269 Q 484 271 486 275 L 495 289 Q 497 294 499 302 Q 501 311 501 316 Q 501 318 501 320 L 497 350 L 508 379 Q 509 384 509 398 Q 510 413 505 424 Q 496 444 481 447 Q 467 451 451 451 H 411 Q 394 451 391 453 Q 389 455 380 480 Q 371 504 319 505 Q 300 506 288 502 Q 276 499 266 492 Q 256 485 251 469 Q 245 453 243 451 Q 240 449 233 449 H 206 Q 191 449 186 454 L 178 475 Q 174 482 160 492 Q 147 501 118 501 Q 78 502 61 486 Q 44 470 44 452 Z M 83 178 119 154 141 141 155 127 Q 166 117 165 112 Q 165 112 161 103 Q 158 95 159 79 Q 159 67 163 57 L 171 41 Q 172 39 172 37 Q 172 34 168 27 Q 163 20 143 21 Q 127 22 121 26 Q 114 30 104 40 L 70 69 L 41 91 Q 33 98 27 107 Q 20 115 20 127 Q 20 140 29 155 Q 34 164 48 179 Q 61 193 83 178 Z M 65 423 Q 63 442 65 453 Q 68 464 76 473 Q 84 481 114 483 Q 157 486 156 471 Q 159 467 161 462 Q 163 457 163 454 Q 163 451 161 447 Q 160 445 147 433 Q 134 421 135 393 Q 135 385 137 378 L 148 352 Q 148 350 149 349 Q 149 348 148 345 Q 144 335 143 329 Q 142 323 142 314 Q 142 297 149 283 Q 157 270 156 267 Q 156 266 155 264 L 150 246 Q 149 241 150 234 Q 150 229 151 225 L 156 202 L 146 184 L 143 175 Q 140 170 134 169 Q 129 167 115 179 Q 107 186 75 204 Q 43 221 33 235 Q 23 250 22 266 Q 22 283 32 298 Q 36 304 40 307 L 60 320 Q 64 324 64 327 Z M 195 429 H 238 Q 257 429 260 430 Q 264 430 266 432 Q 268 434 269 438 L 271 464 Q 278 486 317 486 Q 328 486 339 484 Q 349 482 356 477 Q 362 471 364 464 L 368 437 Q 370 433 374 431 Q 378 430 395 430 L 453 431 Q 473 432 481 424 Q 489 416 489 397 Q 489 379 483 372 Q 477 366 462 364 L 378 361 Q 372 361 371 359 Q 369 357 369 355 Q 369 352 372 350 Q 375 348 378 348 Q 382 348 383 348 L 425 348 Q 462 349 471 340 Q 480 332 481 308 Q 481 284 447 284 L 395 283 Q 379 283 374 282 Q 369 280 369 274 Q 369 269 384 269 H 407 Q 438 269 446 267 Q 454 266 460 260 Q 466 254 468 243 L 471 215 Q 472 212 475 209 L 482 203 Q 491 193 491 167 Q 491 142 486 131 Q 485 128 483 126 L 472 115 Q 471 114 471 112 L 468 82 Q 467 69 456 58 Q 445 47 424 47 L 379 46 Q 374 46 371 43 L 361 31 Q 351 21 317 20 Q 301 20 288 23 Q 274 26 269 32 L 263 41 Q 258 46 253 46 L 218 45 Q 207 28 186 53 Q 177 62 177 90 Q 177 118 207 118 L 258 119 Q 262 119 264 121 Q 267 124 267 128 Q 267 133 248 133 H 215 Q 175 133 167 141 Q 159 149 160 162 Q 160 170 163 176 Q 166 182 169 186 Q 173 190 181 191 Q 189 192 209 192 H 233 Q 260 192 263 195 Q 266 197 266 199 Q 266 205 256 206 L 196 207 Q 182 209 175 215 Q 168 222 168 237 Q 167 253 177 261 Q 182 266 198 267 L 245 268 Q 265 269 266 273 Q 267 278 260 281 Q 254 283 235 283 Q 216 282 201 282 Q 187 282 180 284 Q 174 285 169 290 Q 164 295 161 304 Q 159 313 159 316 Q 159 322 162 329 Q 166 336 171 341 Q 176 346 215 347 Q 254 348 260 349 Q 267 351 266 357 Q 265 362 254 362 L 209 362 Q 187 361 184 361 Q 156 362 155 382 Q 154 403 157 411 Q 160 419 167 424 Q 173 429 195 429 Z" fill="black" />
  </g>
  <g class="defect" id="01">
    <path d="M 114 483 Q 157 486 156 471" fill="none" stroke="red" stroke-width="3" />
  </g>
  <g class="defect" id="02">
    <path d="M 218 45 Q 207 28 186 53" fill="none" stroke="red" stroke-width="3" />
  </g>
  <g class="defect" id="03">
    <path d="M 361 116 Q 395 96 384 119" fill="none" stroke="red" stroke-width="3" />
  </g>
</svg>