<svg xmlns="http://www.w3.org/2000/svg" width="512" height="512" viewBox="0 0 512 512">
  <g class="glyph">
    <path d="M 172 487 Q 157 512 113 512 Q 93 512 70 504 Q 47 496 47 452 L 48 313 Q 48 303 46 300 Q 43 297 42 296 L 25 288 Q 14 283 7 272 Q 0 260 0 247 Q 0 233 3 217 L 12 159 Q 13 155 17 139 Q 21 124 24 118 Q 26 111 32 105 L 45 94 Q 47 89 48 83 L 49 51 Q 50 38 64 19 Q 79 0 114 0 Q 151 0 167 17 Q 182 34 182 55 V 72 V 86 L 190 98 L 192 101 Q 213 99 216 95 Q 218 92 218 82 Q 217 73 218 62 Q 219 50 220 44 Q 221 37 231 23 Q 241 8 252 5 Q 263 1 281 2 Q 305 2 314 4 Q 323 7 334 13 Q 345 20 349 32 Q 352 45 353 44 L 355 38 Q 356 35 362 27 L 369 20 Q 382 8 408 9 Q 424 10 432 15 Q 440 19 454 38 Q 468 57 473 70 Q 478 83 479 91 Q 480 98 481 100 Q 482 101 489 107 Q 496 113 500 121 Q 504 130 506 140 Q 509 151 508 168 Q 507 188 498 209 Q 489 230 450 230 H 430 Q 420 230 418 231 Q 416 233 415 236 Q 414 240 414 249 V 304 Q 414 319 416 319 Q 417 320 424 317 Q 431 314 441 315 Q 457 316 468 319 Q 480 322 492 333 Q 504 343 508 353 Q 511 363 511 372 Q 511 381 509 391 Q 507 401 497 433 Q 486 465 481 476 Q 475 487 466 495 Q 456 503 436 503 H 357 Q 329 503 311 493 Q 293 484 293 456 Q 292 429 292 429 Q 290 430 283 443 L 271 462 Q 263 475 254 486 Q 246 497 216 499 Q 201 500 191 497 Q 182 493 172 487 Z M 212 235 Q 193 239 203 240 Q 201 241 194 248 Q 187 255 185 258 Q 182 262 182 274 V 337 Q 199 308 202 300 Q 205 292 208 275 Q 211 257 211 251 L 212 235 Z M 160 374 V 251 Q 160 246 161 243 Q 162 240 173 234 Q 183 229 190 221 Q 198 214 201 207 Q 204 200 203 187 Q 202 168 199 160 Q 196 152 190 142 Q 185 133 180 124 Q 175 115 171 109 L 161 97 Q 159 93 159 90 L 160 65 Q 160 23 117 23 Q 90 23 82 32 Q 74 41 72 60 Q 70 78 75 84 Q 76 85 78 86 L 104 94 Q 112 97 120 104 Q 127 111 132 117 Q 136 123 137 131 Q 138 138 138 148 Q 137 157 137 163 L 131 213 L 126 248 Q 124 261 112 275 Q 101 289 88 295 Q 75 301 72 303 Q 70 304 70 349 L 70 417 Q 69 459 72 467 Q 74 474 81 483 Q 88 491 115 490 Q 144 490 154 469 Q 149 464 148 461 Q 146 458 142 451 Q 138 443 139 430 Q 139 416 143 406 Q 146 396 160 374 Z M 222 206 Q 233 204 235 209 Q 237 213 235 221 Q 233 226 232 241 Q 231 256 229 273 Q 226 290 223 301 Q 221 312 212 326 L 197 351 L 185 372 L 166 405 Q 160 418 159 430 Q 158 441 165 452 Q 170 461 182 469 Q 194 476 208 477 Q 224 478 236 470 Q 247 463 261 439 Q 275 415 281 399 L 295 362 V 246 Q 295 223 303 213 Q 311 204 323 199 Q 336 194 351 194 Q 371 195 382 201 Q 393 208 396 208 H 450 Q 462 208 469 204 Q 476 201 481 191 Q 486 181 486 164 Q 486 153 484 143 Q 482 133 479 128 Q 477 124 473 124 Q 470 124 463 132 Q 449 149 423 149 Q 408 149 396 143 Q 385 137 378 128 Q 371 119 370 119 Q 369 119 359 119 H 344 Q 335 119 333 117 Q 331 115 331 112 V 60 Q 331 46 323 34 Q 316 21 281 23 Q 252 24 245 35 Q 238 46 237 56 L 237 81 Q 236 101 237 106 Q 238 112 238 114 Q 237 117 236 119 H 219 H 202 Q 219 154 222 168 Q 225 182 224 191 Q 223 200 222 206 Z M 313 257 V 443 Q 313 459 322 470 Q 345 481 360 481 H 435 Q 458 481 471 441 L 481 409 Q 488 385 487 375 Q 486 362 476 350 Q 466 339 448 339 Q 429 339 420 346 Q 413 352 408 370 Q 404 388 401 389 Q 399 389 394 389 Q 390 389 388 388 L 393 363 L 393 254 Q 392 247 391 239 Q 389 232 382 224 Q 376 216 353 215 Q 332 214 323 223 Q 313 232 313 257 Z M 404 28 Q 392 29 382 37 Q 372 46 370 55 Q 368 64 367 67 Q 367 70 371 79 L 380 95 Q 388 112 395 121 Q 403 131 420 131 Q 438 131 448 121 Q 457 110 457 99 Q 458 88 453 78 L 446 66 Q 434 43 426 36 Q 418 28 404 28 Z M 104 237 110 200 Q 117 163 115 148 Q 114 132 105 122 Q 97 112 74 112 Q 49 113 43 124 Q 37 135 31 172 L 20 235 Q 20 238 20 246 Q 20 253 30 264 Q 39 275 62 275 Q 97 275 104 237 Z" fill="black" />
  </g>
  <g class="defect" id="01">
    <path d="M 212 235 Q 193 239 203 240" fill="none" stroke="red" stroke-width="3" />
  </g>
  <g class="defect" id="02">
    <path d="M 322 470 Q 345 481 360 481" fill="none" stroke="red" stroke-width="3" />
  </g>
</svg>