<svg xmlns="http://www.w3.org/2000/svg" width="512" height="512" viewBox="0 0 512 512">
  <g class="glyph">
    <path d="M 316 115 343 116 Q 359 116 361 118 Q 363 120 364 122 Q 365 125 356 134 L 347 145 Q 341 152 334 154 Q 327 155 310 133 Q 309 133 305 128 Q 301 123 301 119 Q 302 115 316 115 Z M 0 243 11 174 16 131 Q 17 118 22 110 Q 27 101 31 97 L 47 84 Q 50 80 52 75 L 55 44 Q 57 28 67 19 Q 77 10 91 5 Q 106 0 123 0 Q 151 0 164 7 Q 176 14 179 17 L 193 33 Q 194 34 196 34 Q 197 35 208 28 Q 219 22 233 19 Q 247 16 269 16 L 322 16 L 387 18 Q 428 18 446 21 Q 464 23 480 42 Q 496 60 496 88 Q 495 100 494 104 Q 493 109 488 120 Q 484 132 482 135 L 467 158 Q 465 162 465 165 Q 465 169 469 171 L 485 179 Q 483 195 504 197 Q 512 210 512 222 Q 512 233 510 244 Q 508 257 501 272 Q 493 287 494 290 Q 494 291 494 291 L 501 313 Q 502 315 503 327 Q 504 340 504 340 Q 503 348 499 362 Q 494 377 494 378 Q 494 381 503 398 Q 512 415 512 440 Q 512 465 504 479 Q 494 497 479 501 Q 464 505 445 504 L 223 502 Q 206 502 202 501 Q 198 500 189 497 Q 180 494 179 494 Q 177 494 161 502 Q 145 510 117 510 Q 72 509 61 488 Q 50 466 50 452 L 50 411 L 50 329 Q 50 317 49 313 Q 49 308 45 304 L 22 290 Q 16 287 8 276 Q 0 265 0 249 Z M 113 216 118 173 Q 120 152 120 139 Q 119 127 113 120 Q 107 113 97 109 Q 87 104 74 104 Q 60 104 51 113 Q 41 122 40 135 L 33 192 L 32 196 L 24 245 Q 24 246 25 252 Q 25 259 34 270 Q 42 282 70 282 Q 98 283 106 248 Z M 74 372 V 444 Q 74 464 84 476 Q 95 487 126 486 Q 157 485 157 469 Q 157 468 157 466 L 155 445 Q 154 440 154 433 Q 154 422 156 416 L 167 383 Q 168 376 168 360 L 168 330 L 169 242 Q 169 230 171 227 Q 174 224 192 221 Q 211 218 218 208 Q 225 199 226 186 Q 228 173 208 139 Q 204 131 198 121 Q 193 110 188 106 L 176 100 Q 171 96 171 91 L 171 55 Q 170 43 160 32 Q 150 21 118 23 Q 94 24 86 33 Q 78 42 77 57 Q 76 73 81 78 Q 83 80 101 84 Q 119 88 128 99 Q 136 111 139 121 Q 143 131 142 146 Q 142 161 142 167 L 138 209 Q 133 262 122 277 Q 111 292 104 296 L 79 308 Q 75 313 74 328 Z M 265 479 426 481 Q 462 482 471 478 Q 479 475 482 466 Q 486 457 488 438 Q 490 419 483 411 Q 476 402 467 399 Q 459 396 427 396 H 401 Q 385 396 382 393 Q 379 389 379 383 Q 379 373 390 373 L 440 372 Q 454 372 460 371 Q 466 369 470 365 Q 474 361 476 352 Q 479 344 479 318 Q 479 293 446 292 L 420 292 Q 400 292 396 291 Q 391 291 389 289 Q 404 272 386 283 L 384 269 Q 379 237 331 237 Q 321 237 312 239 Q 303 241 298 246 Q 292 251 290 256 Q 268 243 286 273 Q 285 284 282 287 Q 279 290 222 290 Q 206 292 200 299 Q 194 306 193 316 Q 191 325 191 340 Q 191 354 201 362 Q 204 366 211 368 Q 218 371 222 371 L 257 372 L 274 373 Q 289 375 289 382 Q 289 388 285 392 Q 282 395 264 395 L 223 394 Q 206 394 197 396 Q 187 398 183 411 Q 178 423 178 432 Q 178 441 179 449 Q 182 463 189 470 Q 197 478 218 478 Z M 314 40 H 269 Q 246 40 235 42 Q 225 44 214 54 Q 204 64 204 77 Q 204 90 207 95 L 227 130 Q 227 130 234 145 L 240 158 Q 247 174 247 187 Q 247 202 240 214 Q 233 227 215 235 Q 198 243 196 245 Q 195 247 196 252 Q 196 261 200 265 Q 205 269 208 269 Q 210 269 211 269 L 221 268 L 253 268 Q 257 268 259 267 Q 261 265 262 263 L 269 246 Q 273 238 286 227 Q 299 216 335 216 Q 368 217 381 226 Q 394 234 398 241 L 408 265 Q 409 267 411 269 Q 413 271 427 271 L 468 272 Q 472 270 475 268 Q 478 266 483 253 L 486 243 Q 488 237 488 230 Q 488 225 486 218 Q 485 211 481 206 Q 477 200 471 198 Q 465 195 452 191 Q 440 187 433 184 Q 425 181 424 179 Q 423 176 423 175 Q 422 173 424 171 L 448 144 Q 474 113 473 91 Q 471 69 459 55 Q 446 42 414 41 Z" fill="black" />
  </g>
  <g class="defect" id="01">
    <path d="M 389 289 Q 404 272 386 283" fill="none" stroke="red" stroke-width="3" />
  </g>
  <g class="defect" id="02">
    <path d="M 290 256 Q 268 243 286 273" fill="none" stroke="red" stroke-width="3" />
  </g>
  <g class="defect" id="03">
    <path d="M 485 179 Q 483 195 504 197" fill="none" stroke="red" stroke-width="3" />
  </g>
</svg>