<svg xmlns="http://www.w3.org/2000/svg" width="512" height="512" viewBox="0 0 512 512">
  <g class="glyph">
    <path d="M 0 239 13 175 17 137 Q 19 120 24 111 Q 29 102 32 98 L 48 85 Q 52 80 55 74 L 57 47 Q 59 30 74 16 Q 90 1 125 0 Q 153 0 169 9 Q 184 18 189 28 Q 194 38 195 40 Q 197 42 198 41 Q 199 41 201 39 L 213 22 Q 219 14 233 8 Q 246 1 265 1 Q 292 2 309 12 Q 327 23 331 30 L 340 46 Q 345 52 353 52 L 414 53 Q 455 53 465 56 Q 476 58 491 73 Q 506 87 507 120 Q 508 153 490 169 Q 473 186 454 186 L 429 187 Q 417 187 415 189 Q 413 192 412 196 Q 412 201 434 202 L 458 203 Q 480 204 494 219 Q 509 235 511 268 Q 512 301 493 319 Q 482 330 471 333 Q 460 335 448 335 L 422 335 Q 417 335 414 339 Q 410 342 410 364 L 410 414 Q 410 457 408 468 Q 406 478 392 492 Q 379 506 340 505 Q 276 504 271 478 Q 267 452 267 434 V 370 Q 267 341 263 337 Q 259 334 253 334 L 227 333 L 205 332 Q 201 333 199 335 Q 184 338 196 364 L 194 423 Q 193 456 186 479 Q 179 502 133 502 Q 86 503 70 484 Q 53 466 53 442 L 54 351 Q 55 309 52 306 Q 50 304 48 302 L 25 291 Q 14 285 7 272 Q 0 260 0 254 Q 0 249 0 248 Z M 120 186 123 144 Q 123 144 122 125 Q 121 106 91 104 Q 62 102 52 111 Q 43 120 40 143 L 35 186 L 24 242 L 24 248 Q 24 248 24 254 Q 24 260 35 271 Q 45 282 67 281 Q 82 281 93 273 Q 104 265 110 236 Z M 75 384 V 433 Q 75 457 86 469 Q 96 480 124 480 Q 152 481 163 469 Q 168 464 170 456 Q 171 448 172 421 L 173 342 Q 174 324 171 315 L 161 288 Q 159 284 158 275 Q 158 266 158 262 Q 158 255 162 239 Q 167 223 167 221 L 159 197 Q 158 193 157 186 Q 157 179 166 151 Q 172 130 176 124 Q 179 118 180 116 L 175 97 Q 174 94 174 87 L 174 57 Q 173 36 159 30 Q 146 23 124 23 Q 99 23 90 33 Q 80 43 79 57 Q 78 72 82 76 Q 84 78 88 79 L 104 84 Q 124 89 134 102 Q 144 114 145 127 Q 145 140 145 140 L 143 172 L 137 218 Q 131 262 120 277 Q 109 293 104 296 L 84 306 Q 82 308 80 311 Q 78 313 78 323 Z M 415 75 345 75 Q 322 76 320 72 Q 317 68 317 64 L 316 53 Q 315 46 308 39 Q 301 31 287 28 Q 272 25 265 25 Q 230 26 221 59 L 211 93 L 194 146 L 184 172 Q 181 180 182 185 Q 182 197 190 205 Q 197 214 211 218 Q 224 222 232 221 Q 242 221 252 216 Q 261 211 266 202 L 279 179 Q 283 171 291 171 Q 298 171 299 180 Q 300 189 291 205 Q 282 221 272 231 Q 263 240 250 242 Q 238 245 232 244 Q 230 244 226 244 L 199 238 Q 196 238 194 238 Q 180 238 180 262 Q 180 308 216 310 L 255 311 Q 277 312 280 313 Q 284 314 286 316 Q 289 319 290 324 Q 290 330 290 345 V 358 L 289 435 Q 289 450 291 458 Q 292 465 300 473 Q 309 482 339 482 Q 369 483 378 474 Q 387 465 387 445 V 357 Q 387 319 391 316 Q 395 314 402 313 L 448 312 Q 468 312 474 306 Q 480 301 484 289 Q 488 278 488 268 Q 488 258 483 246 Q 480 239 474 234 Q 469 229 456 226 L 406 224 Q 395 223 391 219 Q 388 215 388 206 L 388 197 Q 388 179 389 175 Q 390 171 393 169 Q 396 167 402 167 Q 407 166 425 167 Q 443 167 463 163 Q 482 158 483 128 Q 484 98 472 87 Q 461 76 446 75 Z" fill="black" />
  </g>
  <g class="defect" id="01">
    <path d="M 199 335 Q 184 338 196 364" fill="none" stroke="red" stroke-width="3" />
  </g>
</svg>