<svg xmlns="http://www.w3.org/2000/svg" width="512" height="512" viewBox="0 0 512 512">
  <g class="glyph">
    <path d="M 169 475 Q 162 512 108 512 Q 89 512 67 504 Q 45 496 45 452 L 46 314 Q 46 304 44 301 Q 42 297 40 296 L 25 289 Q 14 284 7 272 Q 0 260 0 246 Q 0 232 2 217 L 11 159 Q 12 156 16 140 Q 20 124 22 118 Q 25 112 31 106 L 43 94 Q 46 90 46 83 L 47 51 Q 48 38 62 19 Q 76 0 110 0 Q 145 1 160 18 Q 175 35 175 55 V 72 V 86 L 181 96 Q 194 91 185 86 Q 187 82 206 57 Q 225 32 239 19 Q 252 6 281 5 Q 296 5 310 10 Q 325 14 332 21 Q 338 27 341 26 Q 343 26 356 21 Q 368 15 383 15 Q 395 14 404 19 Q 413 23 442 51 Q 470 80 477 94 Q 484 109 484 119 Q 483 126 480 132 Q 476 138 476 139 Q 476 139 489 146 Q 501 153 504 168 Q 506 184 506 195 Q 505 213 499 221 Q 493 230 486 233 Q 479 237 471 238 Q 464 239 463 241 Q 462 242 476 252 Q 482 256 492 265 Q 502 273 507 281 Q 511 290 512 302 Q 512 314 510 322 Q 508 331 504 341 Q 500 350 486 364 Q 489 373 490 379 Q 491 385 490 394 Q 488 409 477 426 Q 467 442 397 466 Q 328 490 276 499 Q 224 507 208 506 Q 195 505 185 499 Q 175 494 169 475 Z M 153 341 Q 147 334 141 325 Q 134 316 135 299 Q 135 279 153 261 V 251 Q 153 246 154 245 Q 155 243 164 237 Q 173 231 180 221 Q 186 211 189 207 Q 191 202 192 192 Q 194 173 188 155 L 178 135 Q 166 109 162 105 L 155 97 Q 153 94 153 91 L 153 65 Q 153 43 142 33 Q 131 23 112 23 Q 86 23 79 32 Q 71 41 69 60 Q 67 79 72 84 Q 73 86 75 86 L 99 94 Q 108 97 119 108 Q 130 119 131 129 Q 132 139 132 148 Q 132 158 131 163 L 121 248 Q 118 266 108 280 Q 98 293 88 297 L 74 302 Q 67 306 67 349 L 67 417 Q 67 460 69 467 Q 51 474 78 482 Q 85 491 110 490 Q 139 490 145 476 Q 151 462 152 447 Q 153 432 153 420 Z M 209 155 Q 210 158 210 160 L 211 169 L 213 184 Q 213 196 208 210 L 205 220 Q 211 220 214 222 Q 218 223 218 225 Q 219 228 214 232 Q 207 239 202 243 L 179 262 Q 170 270 163 279 Q 156 288 155 303 Q 154 319 161 323 Q 168 327 171 326 Q 175 326 177 318 Q 178 310 181 305 Q 183 299 194 293 Q 205 286 228 280 L 284 266 Q 315 236 320 232 Q 326 228 332 228 Q 339 227 346 232 L 354 239 L 365 241 Q 380 245 391 251 Q 402 257 405 273 Q 408 289 409 290 Q 410 291 421 296 Q 432 301 439 312 L 450 332 Q 454 337 462 340 Q 470 343 473 343 Q 476 343 486 334 Q 495 324 494 307 Q 493 294 485 284 L 465 267 Q 455 257 455 257 L 444 249 Q 428 237 432 232 Q 436 226 448 225 L 462 223 Q 475 222 482 214 Q 490 206 489 188 Q 488 165 477 160 Q 466 155 424 155 H 384 Q 371 155 371 146 Q 370 138 385 138 H 426 L 444 139 Q 462 138 463 124 Q 464 110 458 98 Q 451 84 432 64 Q 412 44 404 38 Q 396 32 383 31 Q 375 31 367 35 Q 359 38 355 43 Q 351 49 349 54 Q 347 60 348 63 L 349 73 Q 346 78 334 78 Q 329 78 324 77 Q 320 76 319 75 Q 318 74 323 60 Q 327 46 316 35 Q 305 24 281 24 Q 257 24 241 44 L 222 68 Q 203 91 200 98 Q 197 104 197 110 Q 197 116 199 121 Q 207 138 232 138 H 278 Q 284 138 290 146 Q 296 155 282 155 Z M 470 388 Q 470 378 463 365 Q 456 352 445 352 Q 442 352 437 354 Q 431 355 413 366 Q 394 376 353 391 Q 312 405 259 416 Q 206 426 201 428 Q 196 431 191 436 Q 186 441 186 465 Q 186 488 223 487 Q 233 487 283 479 Q 332 470 389 449 Q 445 429 457 414 Q 469 400 470 388 Z M 422 329 Q 422 324 414 315 Q 407 305 393 306 Q 389 306 385 307 Q 381 307 342 324 Q 303 340 274 348 Q 244 355 223 359 Q 183 374 196 371 Q 190 380 191 391 Q 191 398 195 402 Q 199 407 213 406 Q 224 406 265 396 Q 305 386 341 375 Q 377 365 396 354 Q 415 344 419 337 Q 422 330 422 329 Z M 384 283 Q 383 276 376 268 Q 369 259 354 259 Q 348 259 338 261 L 252 293 Q 220 301 214 303 Q 208 305 202 312 Q 196 318 195 329 Q 194 340 208 342 Q 217 344 244 335 L 294 322 L 369 295 Q 384 291 384 283 Z M 100 237 106 200 Q 112 163 111 148 Q 110 133 101 123 Q 93 113 71 113 Q 47 113 41 124 Q 35 135 29 172 L 19 235 Q 19 239 19 246 Q 19 254 28 265 Q 38 275 65 276 Q 93 276 100 237 Z" fill="black" />
  </g>
  <g class="defect" id="01">
    <path d="M 223 359 Q 183 374 196 371" fill="none" stroke="red" stroke-width="3" />
  </g>
  <g class="defect" id="02">
    <path d="M 69 467 Q 51 474 78 482" fill="none" stroke="red" stroke-width="3" />
  </g>
  <g class="defect" id="03">
    <path d="M 181 96 Q 194 91 185 86" fill="none" stroke="red" stroke-width="3" />
  </g>
</svg>