<svg xmlns="http://www.w3.org/2000/svg" width="512" height="512" viewBox="0 0 512 512">
  <g class="glyph">
    <path d="M 241 234 217 251 Q 196 265 176 265 Q 157 264 139 247 Q 122 231 122 208 Q 122 199 126 190 L 132 179 Q 133 178 133 177 Q 133 175 125 162 Q 117 149 118 133 Q 119 116 123 109 Q 126 102 134 94 Q 142 86 156 85 L 189 84 Q 194 84 200 79 L 207 71 Q 223 54 259 56 Q 291 58 302 69 Q 313 80 315 81 Q 317 83 319 83 Q 321 84 344 84 Q 367 85 378 97 Q 389 110 389 129 Q 390 149 386 156 L 375 174 Q 374 175 374 177 Q 374 178 375 180 L 384 196 Q 386 202 387 216 Q 387 230 371 248 Q 354 266 336 266 Q 326 266 315 262 Q 304 257 288 247 Q 271 238 264 233 Q 256 228 253 228 Q 249 228 241 234 Z M 178 174 158 187 Q 150 192 147 196 Q 144 201 144 212 Q 144 223 157 236 Q 170 248 193 239 Q 216 230 233 213 L 255 192 Q 262 184 265 185 Q 268 185 271 187 Q 273 189 274 189 L 272 210 Q 272 211 296 229 Q 319 247 339 244 Q 344 244 346 243 Q 348 241 354 235 Q 359 229 362 226 Q 364 222 364 209 Q 364 196 353 189 L 330 176 Q 319 170 320 167 Q 320 164 323 162 L 354 159 Q 369 155 370 137 Q 370 119 364 113 Q 358 107 345 106 L 302 104 Q 298 103 297 101 L 291 92 Q 282 77 255 77 Q 240 77 234 80 Q 227 83 225 86 L 217 100 Q 212 106 204 106 L 165 106 Q 153 106 147 113 Q 140 119 140 133 Q 139 147 147 154 Q 150 157 153 158 L 182 162 Q 184 164 185 166 Q 186 169 178 174 Z M 473 187 474 226 Q 474 264 465 281 Q 456 298 457 301 Q 457 306 464 314 L 477 332 Q 512 380 510 413 Q 509 419 506 430 Q 503 441 494 450 Q 486 459 468 470 Q 449 480 431 479 Q 427 478 411 474 Q 394 469 392 470 Q 389 471 386 473 L 379 480 Q 361 496 310 496 H 234 Q 204 496 190 495 Q 176 493 164 482 Q 152 471 147 462 Q 141 454 139 454 Q 138 455 136 457 L 126 469 Q 123 472 112 479 Q 101 486 80 487 Q 69 487 52 482 Q 34 478 18 461 Q 1 444 1 428 Q 0 411 9 390 L 32 338 L 49 303 Q 50 300 50 298 Q 51 296 43 279 Q 35 263 35 245 L 33 79 Q 33 46 50 28 Q 68 11 82 6 Q 97 1 120 0 Q 143 0 175 0 H 350 Q 389 0 410 1 Q 430 3 447 18 Q 463 34 468 47 Q 472 61 473 83 Z M 61 329 41 377 Q 25 412 25 414 Q 24 416 24 425 Q 24 433 36 446 Q 44 455 57 459 Q 70 464 81 463 Q 95 463 105 456 Q 115 449 124 428 Q 133 406 137 396 L 146 365 Q 149 356 150 353 Q 150 350 150 347 Q 150 335 138 321 Q 127 307 98 307 Q 83 307 74 312 Q 66 318 61 329 Z M 192 282 206 279 236 266 Q 269 251 298 277 L 331 312 Q 333 314 336 314 Q 338 315 349 304 Q 357 296 379 289 Q 401 282 408 283 Q 409 283 416 284 Q 424 285 427 284 Q 443 282 447 263 Q 451 245 451 220 L 449 89 Q 449 65 441 44 Q 433 22 389 22 H 122 Q 99 22 84 29 Q 68 36 63 51 Q 58 66 57 87 L 56 120 L 57 219 Q 57 250 61 265 Q 65 279 78 283 L 103 283 Q 111 284 121 287 L 145 296 Q 149 297 155 296 Z M 243 473 325 473 Q 361 473 367 460 Q 374 448 374 443 Q 375 439 370 428 Q 364 417 362 413 L 350 393 Q 345 386 342 385 Q 338 383 327 397 Q 303 386 305 414 Q 289 423 277 422 Q 263 422 250 412 Q 236 403 219 380 Q 202 358 200 355 L 195 346 Q 190 338 189 334 L 188 313 Q 182 305 175 312 Q 173 314 172 317 L 175 346 Q 175 347 173 354 L 164 389 Q 161 400 161 423 Q 161 446 173 459 Q 183 469 195 471 Q 206 473 243 473 Z M 213 330 Q 214 333 225 352 Q 235 370 251 384 Q 282 417 280 398 Q 293 399 309 382 Q 325 366 324 351 Q 324 345 321 339 Q 318 333 309 320 Q 299 307 286 295 Q 273 282 256 282 Q 258 296 229 293 Q 216 304 214 310 Q 212 317 213 323 Q 213 329 213 330 Z M 357 358 401 435 Q 411 454 434 455 Q 456 455 475 436 Q 480 430 483 424 Q 486 418 486 409 Q 486 400 484 395 L 467 363 Q 444 317 431 312 Q 418 306 408 306 Q 400 306 387 309 Q 374 312 364 323 Q 353 333 354 340 Q 354 347 355 350 Z" fill="black" />
  </g>
  <g class="defect" id="01">
    <path d="M 256 282 Q 258 296 229 293" fill="none" stroke="red" stroke-width="3" />
  </g>
  <g class="defect" id="02">
    <path d="M 327 397 Q 303 386 305 414" fill="none" stroke="red" stroke-width="3" />
  </g>
  <g class="defect" id="03">
    <path d="M 251 384 Q 282 417 280 398" fill="none" stroke="red" stroke-width="3" />
  </g>
</svg>