<svg xmlns="http://www.w3.org/2000/svg" width="512" height="512" viewBox="0 0 512 512">
  <g class="glyph">
    <path d="M 239 260 314 260 Q 343 260 347 263 Q 351 266 350 271 Q 350 277 347 281 Q 343 285 308 284 L 253 283 Q 228 283 225 280 Q 221 277 221 272 Q 222 266 225 263 Q 228 260 239 260 Z M 492 402 Q 498 413 501 420 Q 504 427 504 433 Q 504 440 502 446 Q 498 464 482 478 Q 467 492 446 495 Q 425 499 419 498 Q 415 498 411 497 L 383 488 Q 382 489 377 493 Q 372 498 360 505 Q 348 512 309 512 H 248 Q 207 512 188 508 Q 168 504 157 491 Q 146 479 143 480 Q 140 480 136 483 L 122 495 Q 110 503 91 504 Q 71 504 53 496 Q 34 488 21 475 Q 7 461 8 441 Q 8 436 9 431 Q 11 426 17 411 L 34 371 L 41 354 Q 52 334 51 331 Q 50 330 50 328 L 36 315 Q 31 311 27 303 Q 22 294 18 286 Q 14 278 15 267 Q 15 263 16 259 L 22 240 Q 23 238 23 237 Q 24 234 14 218 Q 4 203 5 180 Q 6 169 11 155 Q 16 141 16 141 L 4 115 Q 0 106 0 87 Q 0 78 2 65 Q 4 51 15 40 Q 27 29 48 27 L 97 26 Q 101 25 103 24 Q 105 23 118 12 Q 132 0 171 1 Q 194 1 204 5 Q 215 9 220 13 L 233 23 Q 240 27 246 27 Q 252 28 257 25 L 275 11 Q 279 9 293 5 Q 307 2 322 2 Q 334 2 350 5 Q 366 9 374 15 L 388 25 Q 393 27 402 27 L 435 28 Q 467 28 482 41 Q 497 55 498 66 Q 500 78 500 84 Q 500 97 498 109 Q 495 120 492 127 L 482 140 Q 480 144 480 147 Q 479 149 483 160 Q 486 172 486 182 Q 486 216 474 228 L 463 240 Q 462 243 462 247 V 283 Q 462 304 459 312 Q 457 319 454 325 Q 452 331 452 334 Q 452 337 454 339 Z M 53 126 119 127 Q 142 128 147 125 L 164 109 Q 180 95 213 95 Q 237 95 253 101 Q 269 108 274 112 L 290 126 Q 294 128 300 128 H 429 Q 452 128 461 126 Q 471 124 474 111 Q 477 97 476 83 Q 474 66 468 58 Q 461 50 439 50 L 393 49 Q 376 49 374 47 L 362 35 Q 351 23 321 23 Q 311 23 299 25 Q 288 28 283 33 L 275 44 Q 271 48 267 48 L 238 48 Q 225 48 221 46 L 209 32 Q 200 22 168 23 Q 135 25 127 35 L 119 46 Q 115 48 97 48 L 74 48 Q 38 48 32 55 Q 25 62 24 70 Q 22 77 22 94 Q 22 110 31 118 Q 40 126 53 126 Z M 113 302 113 271 Q 113 237 118 223 Q 122 208 138 199 Q 154 190 172 190 L 355 190 Q 389 190 409 192 Q 428 194 439 203 Q 451 212 453 211 Q 462 209 462 191 Q 462 167 455 160 Q 448 153 441 151 Q 433 150 412 149 L 335 148 Q 272 147 270 146 Q 269 145 268 143 L 261 131 Q 259 129 250 123 Q 240 118 214 117 Q 196 116 189 119 Q 181 123 176 127 Q 171 132 167 137 Q 163 142 160 145 Q 157 147 150 147 L 72 148 Q 54 148 48 149 Q 41 151 36 155 Q 32 159 30 168 Q 28 176 28 190 Q 28 204 37 212 Q 42 217 50 218 L 71 220 Q 76 221 76 224 Q 77 226 72 229 L 50 244 Q 40 254 38 269 Q 37 285 52 300 Q 67 314 77 316 Q 79 316 92 315 Q 106 315 109 312 Q 112 309 113 302 Z M 64 356 41 413 Q 31 439 32 447 Q 32 454 41 463 Q 51 472 67 477 Q 83 481 91 481 Q 105 480 114 472 Q 124 464 138 431 Q 151 398 153 390 Q 155 381 155 372 Q 155 363 144 349 Q 132 335 97 336 Q 81 337 74 344 Q 66 351 64 356 Z M 154 327 182 319 Q 186 318 210 318 Q 215 318 218 317 L 239 307 Q 260 298 289 313 L 317 328 Q 337 340 350 334 L 376 322 Q 389 316 401 316 Q 413 317 417 317 Q 422 318 424 318 Q 428 318 433 314 Q 438 311 439 285 Q 440 260 440 259 Q 439 252 436 241 Q 433 229 427 222 Q 420 215 411 212 Q 401 209 365 209 L 209 208 Q 177 208 164 211 Q 151 213 142 222 Q 133 231 133 253 V 289 Q 133 313 138 318 Q 142 323 147 325 Q 151 328 154 327 Z M 222 489 273 490 Q 323 491 336 489 Q 349 486 359 477 Q 369 467 369 459 Q 368 452 358 435 Q 336 433 343 416 Q 340 414 325 431 Q 313 446 291 447 Q 276 447 265 441 Q 254 436 232 421 Q 210 406 201 396 Q 193 386 193 372 Q 193 371 193 362 Q 194 353 197 347 Q 200 340 187 339 Q 184 339 180 342 Q 175 344 174 349 L 177 366 Q 177 368 177 371 Q 160 375 177 379 Q 177 383 175 390 L 163 432 Q 163 433 163 436 V 450 Q 164 465 175 477 Q 186 488 222 489 Z M 285 426 Q 298 426 315 412 Q 332 398 331 379 Q 330 368 323 360 Q 316 353 294 337 Q 271 322 255 323 Q 229 326 222 347 Q 215 368 215 373 Q 216 386 233 396 L 240 400 Q 241 401 253 410 Q 265 419 275 423 Q 284 426 285 426 Z M 393 454 Q 402 468 408 472 Q 415 475 422 475 Q 430 476 444 472 Q 458 468 465 463 Q 473 457 476 449 Q 479 441 479 434 Q 479 427 474 416 Q 471 410 456 386 Q 441 362 434 353 Q 428 344 420 340 Q 412 337 396 336 Q 380 336 367 349 Q 354 362 353 372 Q 353 381 358 390 Z" fill="black" />
  </g>
  <g class="defect" id="01">
    <path d="M 358 435 Q 336 433 343 416" fill="none" stroke="red" stroke-width="3" />
  </g>
  <g class="defect" id="02">
    <path d="M 177 371 Q 160 375 177 379" fill="none" stroke="red" stroke-width="3" />
  </g>
</svg>