<svg xmlns="http://www.w3.org/2000/svg" width="512" height="512" viewBox="0 0 512 512">
  <g class="glyph">
    <path d="M 177 43 178 72 Q 178 76 181 76 Q 183 77 185 74 L 189 40 Q 190 33 197 23 Q 204 13 221 9 Q 239 5 252 4 Q 279 4 293 12 Q 306 21 311 31 Q 316 41 316 55 Q 316 70 317 76 Q 318 83 324 75 Q 326 72 325 62 Q 325 52 327 44 Q 330 35 343 24 Q 338 13 385 12 Q 417 11 428 21 Q 440 31 443 37 Q 447 42 448 50 L 451 74 Q 453 80 455 81 Q 456 83 470 90 Q 484 96 492 108 Q 499 120 501 131 Q 503 142 504 164 Q 504 186 504 220 Q 503 276 500 306 L 496 336 Q 495 347 496 355 Q 496 359 497 362 L 508 380 Q 512 389 512 406 Q 512 422 506 447 Q 501 472 484 485 Q 467 499 452 502 Q 437 504 385 504 Q 292 505 277 498 Q 262 491 257 486 Q 251 482 250 481 L 224 498 Q 219 500 210 502 Q 200 504 193 504 Q 184 505 171 500 Q 158 496 154 497 Q 152 497 144 501 Q 135 504 121 505 Q 107 506 79 505 Q 59 505 37 499 Q 15 493 11 470 Q 7 447 7 431 Q 7 418 9 411 Q 10 404 15 396 Q 19 388 26 383 L 43 370 Q 45 367 45 363 Q 46 358 40 353 L 25 344 Q 13 336 7 319 Q 1 302 0 283 Q 0 264 8 249 Q 13 242 17 239 Q 22 236 32 231 Q 41 227 43 224 Q 45 221 45 218 Q 46 214 43 210 L 29 200 Q 19 193 13 179 Q 7 165 7 144 Q 6 124 14 104 Q 16 99 18 95 Q 21 91 25 88 Q 30 85 35 82 Q 41 78 43 76 Q 46 73 47 65 L 50 45 Q 51 33 57 21 Q 63 10 80 5 Q 97 1 110 0 Q 136 0 151 7 Q 166 15 171 24 Q 176 33 177 43 Z M 155 89 V 57 Q 155 45 150 34 Q 145 23 114 23 Q 83 22 77 33 Q 71 44 71 50 L 71 84 Q 71 92 66 96 L 46 102 Q 39 105 34 115 Q 29 124 28 139 Q 26 155 31 167 Q 35 177 41 182 Q 47 187 56 189 Q 64 190 67 192 Q 70 193 70 204 V 222 Q 71 239 67 243 Q 66 245 63 247 L 43 251 Q 25 256 24 273 Q 23 291 25 301 Q 28 315 33 321 Q 39 327 47 329 L 65 332 Q 68 335 69 341 V 370 Q 70 386 67 390 Q 65 391 62 393 L 48 396 Q 41 398 36 405 Q 31 411 30 429 Q 30 446 33 458 Q 36 469 42 475 Q 49 480 66 482 L 106 483 Q 127 484 129 478 Q 130 473 122 457 Q 119 452 118 445 Q 117 438 117 432 Q 117 426 123 411 Q 128 401 141 377 Q 154 353 155 340 Q 156 327 157 325 Q 159 323 161 322 L 170 319 Q 185 313 185 285 Q 185 258 178 249 Q 170 241 166 238 Q 162 235 161 234 Q 160 233 159 218 L 150 192 Q 147 183 146 169 Q 145 154 148 142 Q 151 130 159 120 Q 167 109 167 107 Q 167 105 166 103 L 157 94 Q 155 92 155 89 Z M 208 61 206 111 Q 206 116 202 120 L 183 125 Q 167 132 166 153 Q 165 174 168 185 Q 172 200 180 205 L 191 214 Q 193 216 193 219 L 194 228 L 203 259 Q 206 268 207 288 Q 208 309 196 322 L 184 335 Q 180 339 174 355 Q 168 370 166 374 L 143 419 Q 141 427 140 433 Q 140 440 144 449 Q 147 458 159 470 Q 171 483 193 482 Q 207 482 216 476 Q 225 469 231 461 Q 253 467 237 443 L 239 233 Q 239 217 240 212 Q 242 207 247 207 Q 253 207 256 210 Q 259 213 259 218 V 437 Q 259 450 266 462 Q 273 473 289 478 Q 305 482 333 482 Q 399 483 427 482 Q 455 481 466 471 Q 477 461 482 441 Q 488 422 488 409 Q 489 396 484 392 Q 480 388 472 394 Q 465 400 456 404 Q 446 408 426 407 Q 407 407 393 406 Q 380 404 375 405 L 355 411 Q 349 413 343 413 Q 330 413 315 407 Q 300 401 289 390 Q 278 379 277 370 Q 276 360 277 358 Q 278 347 288 322 Q 299 296 300 291 L 312 247 Q 319 225 318 215 Q 316 207 312 202 L 301 194 Q 294 189 290 178 Q 286 167 285 157 Q 284 148 284 136 Q 283 124 286 116 L 293 97 Q 295 87 294 63 Q 294 52 289 39 Q 285 25 248 26 Q 223 28 217 35 Q 211 42 209 49 Q 208 56 208 61 Z M 384 269 389 208 Q 390 193 395 189 Q 400 184 405 190 Q 409 195 409 206 L 406 262 Q 403 303 400 305 Q 397 308 396 308 L 381 312 Q 395 302 371 322 Q 366 329 365 345 Q 365 362 371 373 Q 373 377 378 382 Q 383 386 403 387 Q 445 390 456 380 Q 467 370 471 350 Q 475 330 479 262 Q 483 194 480 164 Q 477 138 476 131 Q 475 124 467 116 Q 460 108 445 105 Q 430 103 428 100 Q 426 97 426 91 L 426 59 Q 424 50 418 42 Q 411 35 385 35 Q 362 35 357 41 Q 351 46 348 54 Q 345 62 345 72 L 346 92 Q 345 99 339 101 L 324 105 Q 315 107 310 113 Q 305 120 304 141 Q 302 162 309 172 Q 315 181 326 184 Q 337 188 339 190 Q 341 193 340 203 Q 339 215 337 228 Q 335 240 331 259 Q 327 278 321 295 Q 316 312 307 331 Q 299 350 300 359 Q 300 371 311 382 Q 321 393 333 393 Q 346 393 348 390 Q 351 387 351 385 Q 351 383 351 381 L 346 358 Q 345 351 345 341 Q 345 331 352 316 Q 357 305 365 299 L 379 288 Q 382 284 384 269 Z" fill="black" />
  </g>
  <g class="defect" id="01">
    <path d="M 343 24 Q 338 13 385 12" fill="none" stroke="red" stroke-width="3" />
  </g>
  <g class="defect" id="02">
    <path d="M 381 312 Q 395 302 371 322" fill="none" stroke="red" stroke-width="3" />
  </g>
  <g class="defect" id="03">
    <path d="M 231 461 Q 253 467 237 443" fill="none" stroke="red" stroke-width="3" />
  </g>
</svg>