<svg xmlns="http://www.w3.org/2000/svg" width="512" height="512" viewBox="0 0 512 512">
  <g class="glyph">
    <path d="M 289 218 Q 289 209 292 206 Q 296 203 304 202 Q 313 202 316 205 Q 319 209 319 218 Q 318 228 315 231 Q 312 235 303 234 Q 295 233 292 230 Q 289 226 289 218 Z M 351 138 303 137 Q 299 137 295 134 Q 292 130 292 124 Q 292 118 296 114 Q 299 112 306 111 L 340 111 Q 371 108 376 114 Q 380 119 380 126 Q 379 131 376 134 Q 373 137 361 138 L 351 138 Z M 183 496 Q 167 503 152 505 Q 136 508 129 508 L 82 507 Q 61 507 34 502 Q 7 498 7 453 Q 7 409 17 393 Q 22 384 30 379 L 50 369 Q 53 366 53 363 Q 53 360 52 359 Q 51 357 49 356 L 35 351 Q 22 346 15 335 Q 7 324 4 313 Q 1 303 0 286 Q 0 269 2 261 Q 4 254 10 244 Q 17 234 29 229 L 44 223 Q 48 221 48 220 Q 47 219 46 217 L 25 208 Q 17 205 9 191 Q 1 177 0 154 Q 0 131 4 119 Q 7 110 14 101 Q 21 92 30 89 L 51 82 Q 56 80 56 74 L 58 45 Q 59 27 74 14 Q 88 0 123 0 Q 141 0 158 5 Q 174 10 180 17 L 190 28 Q 211 11 249 10 L 409 10 Q 452 10 471 29 Q 490 48 491 79 L 491 155 Q 491 167 490 174 Q 489 182 485 195 Q 481 209 483 214 L 498 232 Q 508 243 507 268 Q 505 299 494 313 Q 482 326 463 329 Q 444 332 443 334 Q 442 335 442 337 Q 442 339 448 341 L 466 345 Q 475 347 486 354 Q 497 361 505 373 Q 512 385 511 404 Q 511 422 499 453 Q 486 484 466 498 Q 446 512 419 511 Q 406 511 393 507 Q 381 502 372 495 L 352 478 Q 348 475 346 475 Q 344 474 339 476 L 250 500 Q 228 506 216 506 Q 204 506 183 496 Z M 425 310 452 309 Q 484 308 484 271 Q 484 264 482 255 Q 480 246 473 239 Q 467 232 454 231 L 424 230 Q 421 229 418 227 Q 416 224 416 219 Q 415 214 419 210 Q 422 207 436 205 Q 451 202 460 193 Q 468 183 469 156 L 469 101 Q 469 61 456 47 Q 443 34 412 34 L 292 33 Q 278 33 260 33 Q 229 33 216 43 Q 202 53 201 64 Q 200 76 200 102 V 324 Q 200 370 200 375 Q 200 381 198 385 Q 197 389 195 391 Q 194 393 188 398 Q 182 403 179 409 Q 176 415 176 431 Q 176 446 190 467 Q 204 488 239 479 L 290 466 Q 293 465 312 459 Q 332 452 340 444 Q 348 435 345 408 Q 342 388 334 380 Q 327 372 321 369 Q 316 367 306 368 Q 295 369 293 366 Q 292 364 291 356 Q 290 349 291 338 L 291 329 Q 291 317 295 313 Q 299 308 309 309 Q 315 310 318 312 Q 321 315 322 320 L 326 341 Q 327 346 330 349 L 344 359 Q 349 363 358 378 Q 366 392 366 408 Q 367 425 366 429 L 364 440 Q 364 444 364 447 Q 363 451 366 455 Q 368 461 377 470 Q 387 479 396 484 Q 404 488 424 488 Q 443 489 460 471 Q 467 465 479 440 Q 492 415 490 400 Q 488 388 478 378 Q 468 368 455 365 Q 443 362 438 362 Q 428 362 423 367 L 415 377 Q 412 380 408 381 Q 402 381 400 378 Q 399 374 402 369 L 418 345 Q 419 343 419 341 Q 419 339 417 329 Q 416 318 416 318 Q 417 310 425 310 Z M 172 95 171 63 Q 171 44 165 38 Q 159 32 150 28 Q 141 23 121 23 Q 102 23 90 35 Q 82 44 81 62 L 80 93 Q 79 99 77 102 Q 75 104 71 105 L 48 108 Q 39 110 31 117 Q 24 125 24 149 Q 24 174 32 183 Q 40 191 50 193 L 70 195 Q 75 196 77 198 Q 80 201 81 207 L 81 217 Q 80 235 78 237 Q 75 240 70 242 L 43 249 Q 35 252 30 259 Q 24 266 23 289 Q 22 312 35 324 Q 42 330 51 332 L 73 333 Q 75 335 77 336 Q 79 338 80 345 L 79 370 Q 78 384 76 386 Q 74 388 72 389 L 54 392 Q 30 398 30 434 Q 30 444 33 456 Q 35 468 46 479 Q 57 489 116 487 Q 142 486 149 483 L 167 476 Q 161 466 159 461 Q 157 456 155 445 Q 153 435 153 428 Q 152 421 155 410 Q 158 399 162 395 L 172 381 Q 172 359 171 348 Q 170 336 171 332 L 178 313 Q 164 323 179 279 Q 180 246 178 241 L 174 233 Q 173 233 173 218 Q 172 203 172 201 L 179 190 Q 182 185 182 180 Q 182 174 182 158 V 145 Q 182 134 181 120 Q 180 106 179 102 Q 178 97 175 97 Q 172 96 172 95 Z" fill="black" />
  </g>
  <g class="defect" id="01">
    <path d="M 178 313 Q 164 323 179 279" fill="none" stroke="red" stroke-width="3" />
  </g>
</svg>