<svg xmlns="http://www.w3.org/2000/svg" width="512" height="512" viewBox="0 0 512 512">
  <g class="glyph">
    <path d="M 271 270 Q 270 270 268 266 L 270 243 Q 270 232 271 231 H 283 Q 298 231 299 232 Q 300 233 300 240 Q 300 240 300 241 L 300 255 Q 301 264 300 267 Q 298 270 295 270 Q 292 271 283 270 L 271 270 Z M 273 162 Q 269 161 270 154 Q 270 147 270 137 Q 270 126 272 123 Q 274 120 292 121 Q 292 122 293 121 L 296 121 Q 299 121 300 124 Q 300 127 300 135 L 301 155 Q 298 163 296 163 Q 293 163 289 162 L 273 162 Z M 398 240 397 251 Q 397 255 397 257 Q 396 259 398 267 Q 397 273 370 273 Q 368 273 367 272 Q 366 272 365 271 L 364 249 Q 363 237 364 236 Q 365 234 369 234 Q 370 234 373 234 Q 377 234 386 234 Q 394 233 396 235 Q 397 236 398 240 Z M 396 162 366 162 Q 363 162 363 152 L 364 140 Q 364 138 364 136 L 364 129 Q 364 128 364 126 Q 364 124 364 122 Q 365 121 378 121 H 385 Q 392 122 395 125 Q 397 128 398 131 L 397 143 L 396 162 Z M 241 14 H 424 Q 447 14 463 17 Q 478 20 487 31 Q 496 42 499 56 Q 501 69 501 91 V 435 Q 501 454 498 467 Q 496 480 485 493 Q 475 505 440 505 H 393 Q 384 505 375 504 Q 366 503 359 501 Q 352 500 351 499 L 326 502 Q 319 502 304 498 Q 288 494 281 484 Q 273 474 273 470 L 271 453 Q 270 453 266 467 Q 256 490 243 498 Q 230 507 212 507 Q 200 508 192 507 Q 184 505 180 503 Q 175 501 174 501 Q 173 501 166 505 Q 159 510 145 510 L 120 512 H 69 Q 52 512 35 505 Q 18 499 14 474 Q 10 450 11 434 Q 11 422 15 412 Q 18 402 27 394 Q 35 386 45 383 Q 55 381 56 379 Q 58 378 57 365 V 356 Q 57 351 55 349 Q 53 348 45 349 Q 37 350 32 348 Q 24 347 16 339 Q 8 332 4 318 Q 1 304 0 285 Q 0 266 3 256 Q 6 246 14 237 Q 22 228 29 225 Q 37 222 45 220 Q 54 219 56 217 Q 57 216 57 210 Q 57 205 57 205 Q 56 202 52 200 L 35 198 Q 24 195 6 174 Q 2 152 1 130 Q 1 108 6 97 Q 10 87 21 78 Q 32 70 43 70 Q 55 70 56 68 Q 57 67 57 60 V 45 Q 57 37 64 20 Q 71 3 115 1 Q 137 0 149 5 Q 160 10 168 16 Q 175 21 176 29 L 177 42 L 185 29 Q 195 14 241 14 Z M 160 181 Q 164 180 166 179 H 173 Q 194 179 194 148 Q 195 117 191 109 Q 189 105 185 100 Q 180 94 176 93 H 167 Q 163 93 161 91 L 160 50 Q 159 43 155 36 Q 151 29 143 24 Q 134 20 115 20 Q 101 21 94 24 Q 87 27 82 34 Q 77 41 78 66 Q 78 91 78 91 Q 74 94 57 93 Q 40 92 33 98 Q 23 107 22 128 Q 22 148 24 158 Q 26 169 32 174 Q 37 179 47 179 L 77 180 Q 79 183 78 195 Q 77 206 77 214 Q 77 218 77 220 L 78 232 Q 78 237 76 239 Q 74 240 57 241 Q 39 242 31 250 Q 23 258 22 266 Q 22 274 22 280 Q 23 302 26 315 Q 29 329 47 330 Q 51 331 62 328 Q 73 326 75 328 Q 77 329 77 333 L 77 340 L 77 391 Q 77 397 74 400 Q 71 402 51 404 Q 31 406 32 448 Q 32 460 37 475 Q 41 490 65 490 H 116 Q 146 490 148 489 Q 151 487 151 486 Q 152 484 149 481 Q 137 465 136 463 Q 135 460 134 447 Q 134 433 136 423 L 144 391 L 150 364 Q 157 339 158 327 Q 159 316 162 313 Q 165 310 177 307 Q 190 304 194 300 Q 198 296 201 288 Q 215 292 204 272 Q 205 264 201 252 Q 197 236 188 230 Q 180 224 160 228 Z M 397 345 Q 398 349 399 350 L 398 380 Q 399 390 398 392 Q 396 395 393 396 L 377 396 Q 370 396 363 401 Q 357 406 353 415 Q 349 424 348 448 Q 347 471 356 477 Q 364 484 376 484 H 444 Q 459 484 467 476 Q 474 469 477 462 Q 480 455 480 431 V 89 Q 480 74 477 63 Q 475 52 469 47 Q 464 41 452 38 Q 440 36 429 36 H 231 Q 210 36 203 42 Q 197 49 191 60 Q 186 72 188 75 Q 189 77 197 82 Q 205 87 210 102 Q 215 118 216 135 Q 216 152 212 165 Q 208 176 201 184 Q 195 193 190 194 Q 186 195 185 196 Q 184 196 184 200 Q 183 204 184 205 Q 185 208 202 216 Q 220 225 221 255 Q 223 285 219 297 Q 215 306 208 314 Q 201 322 192 325 L 179 329 L 170 369 L 158 414 Q 153 437 154 446 Q 154 456 168 471 Q 181 485 205 486 Q 241 488 249 458 Q 257 429 262 395 L 267 357 Q 268 344 269 344 Q 270 343 273 343 L 278 343 Q 279 344 284 343 Q 290 343 290 355 L 290 446 Q 289 460 298 469 Q 306 479 339 478 Q 334 469 332 463 Q 330 457 330 442 Q 330 427 332 418 Q 335 406 343 396 Q 351 385 360 383 Q 370 380 370 380 L 371 347 Q 373 346 377 345 Q 378 345 383 346 Q 388 346 397 345 Z" fill="black" />
  </g>
  <g class="defect" id="01">
    <path d="M 201 288 Q 215 292 204 272" fill="none" stroke="red" stroke-width="3" />
  </g>
  <g class="defect" id="02">
    <path d="M 35 198 Q 24 195 6 174" fill="none" stroke="red" stroke-width="3" />
  </g>
</svg>