<svg xmlns="http://www.w3.org/2000/svg" width="512" height="512" viewBox="0 0 512 512">
  <g class="glyph">
    <path d="M 497 251 492 303 489 333 Q 489 335 489 336 Q 489 339 490 341 L 504 361 Q 510 371 510 385 Q 511 399 502 425 Q 488 465 469 483 Q 450 501 415 502 L 383 502 L 276 503 Q 246 503 228 498 Q 210 493 196 484 Q 182 474 181 474 Q 178 475 162 489 Q 145 503 109 503 Q 52 503 27 495 Q 2 487 3 436 Q 3 420 10 402 Q 17 383 34 377 Q 51 371 53 368 Q 54 366 55 363 Q 55 360 53 357 Q 51 356 50 354 L 30 346 Q 21 342 11 327 Q 1 311 0 286 Q 0 260 10 245 Q 16 235 25 230 L 50 219 Q 54 217 54 213 Q 54 209 53 206 Q 52 206 37 200 Q 21 193 12 178 Q 3 162 3 137 Q 2 112 15 94 Q 23 84 33 79 L 48 75 Q 52 73 53 71 Q 55 69 56 65 L 59 42 Q 60 37 66 24 Q 72 11 87 6 Q 102 1 117 1 Q 134 0 143 2 Q 151 3 159 6 Q 167 8 175 16 Q 183 23 185 23 Q 186 24 187 23 L 208 9 Q 224 0 250 1 Q 269 2 283 7 Q 297 13 305 21 L 319 38 Q 323 42 362 42 L 440 43 Q 463 43 474 47 Q 485 51 498 64 Q 511 77 511 107 Q 512 136 500 152 L 487 167 Q 485 170 485 172 Q 484 174 490 187 Q 496 201 496 216 Z M 164 371 V 330 Q 164 324 158 319 L 144 309 Q 140 306 133 297 Q 127 288 125 277 Q 123 266 123 257 Q 122 241 129 227 Q 136 213 135 210 Q 135 208 134 206 L 120 188 Q 118 185 114 175 Q 110 166 110 153 Q 110 141 121 127 L 150 89 Q 162 74 163 68 Q 165 62 165 53 Q 165 43 162 37 Q 154 20 121 20 Q 98 20 89 29 Q 80 37 80 49 L 79 86 Q 78 93 69 94 L 50 96 Q 24 101 24 137 Q 24 145 26 155 Q 28 166 35 173 Q 42 180 56 180 Q 69 181 71 181 Q 74 182 77 185 Q 81 188 80 207 V 222 Q 79 230 77 233 Q 75 236 68 238 L 44 246 Q 35 250 29 258 Q 22 266 22 282 Q 22 299 26 310 Q 29 318 35 324 Q 41 330 49 331 L 74 331 Q 80 335 80 343 Q 80 351 80 352 Q 80 378 79 384 Q 79 391 77 393 Q 75 396 71 396 L 45 399 Q 39 402 33 409 Q 26 417 25 440 Q 24 464 36 474 Q 41 479 49 481 Q 58 483 74 483 Q 116 482 124 482 Q 131 481 148 474 Q 164 468 164 428 Z M 396 61 H 323 Q 305 61 301 61 Q 297 60 294 56 L 291 39 Q 289 35 281 27 Q 273 19 249 18 Q 230 18 220 25 Q 209 31 206 39 L 183 85 L 164 113 L 149 134 Q 143 142 140 149 Q 137 155 136 165 Q 135 175 145 189 Q 155 203 159 202 Q 163 202 167 195 L 170 162 Q 171 159 175 150 Q 179 142 192 130 Q 204 118 240 118 Q 246 119 265 123 Q 283 128 283 127 Q 285 127 287 125 L 298 115 Q 316 101 349 101 Q 364 101 377 105 Q 389 108 398 114 Q 407 121 410 130 L 416 148 Q 436 153 427 154 Q 428 155 446 153 Q 464 152 474 149 Q 485 145 486 114 Q 488 83 476 73 Q 465 62 447 62 Z M 283 483 H 387 Q 417 483 433 480 Q 449 476 458 468 Q 467 459 471 450 Q 475 440 483 419 Q 491 397 491 387 Q 490 376 480 363 Q 470 351 444 350 Q 431 350 423 354 Q 416 359 412 366 L 398 395 Q 391 400 372 400 L 322 400 Q 292 400 283 390 Q 274 380 272 363 L 272 313 Q 270 294 273 288 Q 276 280 285 280 Q 294 280 294 291 L 295 345 Q 296 361 303 368 Q 309 374 317 375 Q 325 375 326 374 Q 328 372 329 368 L 329 342 Q 329 325 338 309 Q 341 303 346 300 L 367 285 L 376 266 Q 380 262 385 262 Q 388 263 391 266 Q 394 269 394 273 Q 394 277 393 283 Q 391 301 386 305 L 368 309 Q 363 311 357 318 Q 351 324 351 346 Q 351 367 358 374 Q 366 382 371 382 Q 378 382 383 373 L 396 349 Q 400 341 410 334 Q 421 328 433 327 L 462 327 Q 465 326 468 325 Q 470 323 472 309 L 475 274 L 477 217 Q 477 217 477 205 Q 476 194 465 183 Q 454 172 446 171 Q 437 171 436 171 L 406 173 Q 405 174 405 173 Q 398 173 396 171 Q 380 186 393 164 L 391 146 Q 389 137 380 129 Q 372 121 345 122 Q 321 122 312 131 Q 303 140 302 154 L 301 185 Q 301 187 297 190 Q 294 194 289 193 Q 285 193 282 191 Q 279 189 279 184 L 278 167 Q 276 156 267 147 Q 258 138 235 137 Q 211 136 200 147 Q 190 157 190 171 L 189 202 Q 188 207 184 210 L 158 223 Q 144 232 144 257 Q 144 277 151 286 Q 158 296 167 298 L 183 301 Q 188 304 188 312 L 188 415 Q 187 445 198 457 Q 209 468 222 474 Q 234 480 246 481 Z" fill="black" />
  </g>
  <g class="defect" id="01">
    <path d="M 416 148 Q 436 153 427 154" fill="none" stroke="red" stroke-width="3" />
  </g>
  <g class="defect" id="02">
    <path d="M 396 171 Q 380 186 393 164" fill="none" stroke="red" stroke-width="3" />
  </g>
</svg>