<svg xmlns="http://www.w3.org/2000/svg" width="512" height="512" viewBox="0 0 512 512">
  <g class="glyph">
    <path d="M 101 320 103 300 Q 103 290 106 287 Q 109 283 115 284 Q 122 284 125 287 Q 129 290 129 302 L 128 327 Q 128 335 125 338 Q 123 342 114 341 Q 110 341 106 339 Q 103 336 102 329 Q 101 322 101 320 Z M 102 174 Q 102 166 102 163 Q 101 159 102 158 Q 102 153 105 150 Q 108 147 114 147 Q 121 147 124 150 Q 126 152 127 155 Q 128 159 128 165 Q 128 172 128 182 Q 128 191 125 195 Q 121 198 113 198 Q 107 197 105 195 Q 102 192 102 186 Q 101 180 102 174 Z M 301 402 352 401 Q 372 401 375 405 Q 378 409 378 413 Q 379 417 375 421 Q 371 424 366 424 L 315 425 Q 296 425 293 422 Q 290 419 290 412 Q 291 402 301 402 Z M 302 331 347 332 Q 368 332 373 334 Q 379 336 379 342 Q 379 347 376 351 Q 373 355 350 355 H 314 Q 297 355 293 352 Q 289 349 290 343 Q 290 338 293 334 Q 296 331 302 331 Z M 302 153 Q 302 149 304 147 Q 306 145 333 144 Q 360 143 363 147 Q 365 151 366 154 Q 366 157 365 162 Q 363 171 362 180 Q 360 190 356 193 Q 352 196 339 197 Q 315 197 308 192 Q 302 187 302 161 L 302 153 Z M 332 181 Q 336 181 339 178 Q 343 175 343 170 Q 343 161 335 161 Q 327 161 325 163 Q 323 166 322 169 Q 322 171 323 176 Q 324 182 332 181 Z M 103 33 156 33 Q 171 34 182 37 L 201 44 H 233 Q 250 45 253 43 Q 255 41 268 21 Q 280 1 335 0 Q 366 0 381 9 Q 397 17 402 25 L 409 38 Q 414 44 421 44 L 454 45 Q 479 46 494 61 Q 508 76 508 105 Q 508 134 497 151 Q 490 160 483 162 L 469 166 Q 467 168 466 171 Q 466 173 469 176 L 486 183 Q 492 186 499 198 Q 506 209 507 218 Q 509 227 509 247 Q 509 266 501 279 L 490 292 Q 488 296 487 299 L 488 349 V 397 L 487 443 Q 486 460 482 471 Q 478 483 470 491 Q 461 499 451 505 Q 441 510 431 510 L 380 512 L 273 511 Q 242 511 230 508 Q 219 505 207 498 Q 195 491 189 478 L 182 463 Q 178 456 172 456 L 128 458 L 90 457 Q 66 456 41 454 Q 16 452 8 422 Q 0 393 0 351 L 1 138 Q 1 108 7 72 Q 14 35 69 34 Z M 23 292 24 366 Q 24 396 30 414 Q 37 433 68 434 L 111 435 L 144 435 Q 169 436 174 431 Q 179 426 181 419 L 182 374 L 183 299 Q 183 299 183 295 Q 183 290 183 288 Q 182 286 171 272 Q 160 257 163 229 Q 165 195 181 185 L 196 177 Q 200 174 200 172 Q 200 169 197 165 L 181 154 Q 177 151 171 138 Q 165 125 165 101 Q 180 92 169 79 Q 173 66 172 63 Q 171 61 169 58 Q 167 56 156 56 L 110 55 Q 68 55 57 58 Q 46 60 37 69 Q 27 78 25 95 Q 23 113 23 142 Z M 290 250 395 252 Q 427 252 440 254 Q 452 256 462 262 Q 472 269 474 268 Q 485 266 485 238 Q 484 229 483 217 Q 482 204 467 198 L 447 194 Q 443 193 441 191 Q 439 189 439 187 Q 439 185 440 179 Q 447 152 449 151 Q 450 150 461 147 Q 472 144 476 139 Q 480 134 482 125 Q 484 116 484 99 Q 484 83 476 75 Q 471 70 461 68 Q 450 65 429 65 Q 408 66 405 66 Q 391 66 387 61 L 384 42 Q 378 21 334 22 Q 299 23 290 32 Q 281 41 279 49 L 277 60 Q 274 66 263 66 H 223 Q 204 66 197 72 Q 190 79 189 91 Q 188 103 188 116 Q 188 129 196 138 Q 199 142 204 144 L 215 147 Q 220 150 223 164 Q 226 179 226 184 Q 225 190 221 192 L 202 195 Q 200 213 184 233 Q 184 241 186 252 Q 187 262 193 264 Q 199 265 213 259 Q 228 252 242 252 Z M 270 489 H 371 L 409 490 L 413 489 L 430 488 Q 443 487 453 476 Q 463 464 464 439 L 465 370 L 464 320 Q 463 296 450 284 Q 437 273 409 272 L 356 272 H 279 Q 247 272 226 276 Q 206 280 205 311 L 204 346 V 423 Q 221 435 206 452 Q 208 469 217 479 Q 226 490 270 489 Z" fill="black" />
  </g>
  <g class="defect" id="01">
    <path d="M 204 423 Q 221 435 206 452" fill="none" stroke="red" stroke-width="3" />
  </g>
  <g class="defect" id="02">
    <path d="M 202 195 Q 200 213 184 233" fill="none" stroke="red" stroke-width="3" />
  </g>
  <g class="defect" id="03">
    <path d="M 165 101 Q 180 92 169 79" fill="none" stroke="red" stroke-width="3" />
  </g>
</svg>