<svg xmlns="http://www.w3.org/2000/svg" width="512" height="512" viewBox="0 0 512 512">
  <g class="glyph">
    <path d="M 484 359 Q 496 370 504 381 Q 512 392 512 413 Q 512 423 507 438 Q 503 453 485 470 Q 468 488 445 489 Q 419 491 395 475 Q 372 458 357 442 Q 342 425 337 424 Q 332 423 331 450 Q 330 457 326 469 Q 321 481 312 490 Q 302 499 286 504 Q 270 509 237 510 Q 176 512 158 501 Q 140 490 134 479 Q 128 467 126 464 Q 124 461 121 461 Q 120 462 118 462 L 95 474 Q 85 478 72 478 Q 44 478 29 464 Q 15 449 8 436 Q 0 423 0 411 Q 0 398 4 387 Q 12 368 31 353 L 54 336 Q 57 333 57 331 Q 57 329 57 328 Q 56 327 41 322 Q 27 317 18 302 Q 9 288 9 269 Q 8 251 11 242 Q 14 231 22 220 Q 30 209 42 205 L 59 200 Q 62 199 63 197 Q 66 194 63 181 Q 60 167 63 153 Q 64 146 66 139 Q 69 132 79 121 Q 90 110 102 108 Q 114 107 119 106 Q 123 104 123 99 Q 122 99 121 94 Q 120 89 119 82 Q 118 74 117 67 Q 117 59 123 44 Q 134 13 152 7 Q 170 0 184 0 Q 199 0 210 2 L 334 28 Q 351 31 378 44 Q 405 57 404 92 Q 404 96 403 103 Q 401 111 402 115 Q 403 119 408 120 L 419 119 Q 420 119 421 119 Q 452 120 471 139 Q 490 157 494 172 Q 499 187 499 195 Q 498 203 495 214 Q 491 225 480 237 L 459 259 Q 449 269 436 278 Q 423 288 421 292 Q 418 295 417 300 Q 431 305 427 314 Z M 207 321 Q 215 299 219 286 Q 223 272 222 259 Q 221 243 211 233 Q 201 223 173 222 L 89 221 Q 53 221 44 229 Q 36 237 33 247 Q 31 256 30 279 Q 30 303 63 305 L 94 307 Q 98 307 99 312 Q 101 317 86 332 Q 72 347 68 350 L 46 368 Q 28 383 25 391 Q 22 399 22 412 Q 22 425 38 441 Q 54 456 72 456 Q 86 456 104 444 Q 122 432 126 423 L 130 410 Q 134 396 143 389 Q 152 382 157 379 L 172 375 Q 178 372 182 368 Q 186 364 190 355 Z M 369 425 Q 385 440 402 454 Q 420 467 441 466 Q 457 466 468 455 Q 479 445 483 434 Q 488 424 489 409 Q 489 393 472 379 L 425 340 Q 414 331 399 316 Q 384 302 385 297 Q 386 293 389 290 L 439 247 Q 462 227 468 215 Q 474 204 475 191 Q 476 177 457 157 Q 440 140 421 140 Q 414 141 408 143 Q 402 145 390 158 L 359 187 L 337 207 Q 326 216 321 215 Q 319 215 316 214 Q 314 213 309 204 Q 304 195 304 194 L 302 170 Q 301 165 298 160 Q 295 155 277 151 L 164 129 Q 152 127 128 127 Q 105 127 94 137 Q 83 147 83 169 Q 83 190 89 195 Q 95 199 97 201 Q 100 202 135 202 L 174 202 Q 202 203 214 210 Q 227 217 235 228 Q 243 240 244 256 Q 244 273 240 289 Q 236 307 225 329 Q 214 351 213 355 Q 212 358 212 362 L 211 381 Q 211 386 209 388 Q 207 391 201 392 L 175 395 Q 166 397 157 406 Q 148 415 147 439 Q 147 463 161 475 Q 168 482 179 484 Q 191 487 219 487 Q 265 488 277 484 Q 289 479 299 470 Q 308 461 308 429 V 382 Q 308 374 310 371 Q 311 367 313 367 Q 314 366 331 384 Z M 310 140 Q 329 146 338 145 Q 366 145 373 123 Q 380 102 380 92 Q 379 79 371 68 Q 363 57 330 50 L 230 27 Q 173 14 160 26 Q 148 38 144 50 Q 140 62 140 71 Q 140 89 149 98 Q 157 107 177 111 Z M 332 186 Q 335 186 340 182 Q 345 178 345 171 Q 345 162 336 161 Q 328 159 326 162 Q 324 165 325 170 Q 325 178 326 182 Q 327 186 332 186 Z" fill="black" />
  </g>
  <g class="defect" id="01">
    <path d="M 417 300 Q 431 305 427 314" fill="none" stroke="red" stroke-width="3" />
  </g>
</svg>