<svg xmlns="http://www.w3.org/2000/svg" width="512" height="512" viewBox="0 0 512 512">
  <g class="glyph">
    <path d="M 434 307 438 312 467 324 Q 476 327 486 336 Q 496 344 502 354 Q 508 364 510 385 Q 512 406 494 445 Q 480 474 463 489 Q 446 505 424 506 Q 408 507 392 501 Q 375 494 357 475 Q 339 456 336 458 Q 333 459 322 471 Q 310 483 282 485 L 250 488 L 101 496 Q 66 498 52 497 Q 37 496 20 481 Q 4 466 2 431 Q 0 396 16 381 L 30 368 Q 33 363 33 355 L 34 298 Q 34 273 38 260 Q 42 246 42 245 Q 40 241 37 237 L 22 224 Q 17 220 12 208 Q 7 197 7 183 Q 6 169 9 153 Q 10 140 13 135 Q 15 130 20 125 Q 24 119 31 115 Q 37 110 39 108 Q 41 107 42 103 Q 42 101 40 90 Q 37 79 39 69 Q 43 36 59 26 Q 76 16 97 16 L 201 17 L 246 18 L 273 23 Q 277 22 279 21 L 289 12 Q 294 8 307 4 Q 320 0 341 1 Q 356 3 367 7 Q 377 11 386 16 Q 395 22 398 23 Q 402 24 411 24 Q 419 25 431 27 Q 443 30 471 63 Q 498 95 497 118 Q 497 120 495 130 Q 494 140 494 141 L 501 159 Q 503 168 503 182 Q 502 212 492 223 Q 483 234 473 239 Q 463 243 458 243 L 427 245 Q 421 245 421 254 Q 420 262 424 276 Z M 86 476 236 466 Q 286 463 295 459 Q 304 455 308 451 Q 312 447 315 439 Q 318 431 319 412 Q 319 394 307 381 Q 295 369 278 370 L 240 370 Q 235 371 232 368 Q 228 364 228 358 Q 227 351 231 347 Q 234 345 239 344 L 265 343 Q 296 338 297 305 Q 298 273 289 263 Q 279 254 271 253 L 240 251 Q 235 251 233 248 Q 230 246 228 230 Q 227 214 215 205 Q 204 195 178 194 Q 152 193 144 202 Q 135 211 135 215 Q 135 219 139 224 L 154 236 Q 165 247 166 257 Q 167 267 167 286 L 168 297 L 167 310 V 351 Q 167 370 166 375 Q 164 380 158 380 Q 153 381 150 378 Q 146 376 146 356 V 297 Q 146 270 140 255 Q 134 241 102 241 Q 62 241 59 260 Q 56 278 56 294 L 55 340 Q 55 382 53 384 Q 51 386 49 387 L 34 394 Q 30 396 27 401 Q 23 405 24 421 Q 25 454 37 466 Q 49 478 86 476 Z M 343 416 349 427 Q 351 432 358 442 Q 366 452 380 468 Q 395 484 419 484 Q 436 484 450 471 Q 465 459 478 430 Q 491 401 490 384 Q 488 363 472 351 Q 456 340 446 340 Q 431 340 417 358 L 404 376 Q 400 381 397 381 Q 394 381 391 378 Q 388 375 387 369 Q 387 363 395 352 L 414 327 L 415 319 L 403 279 Q 401 272 398 254 Q 395 235 395 232 Q 396 221 407 221 H 440 Q 463 221 471 214 Q 480 207 482 187 Q 485 167 475 162 Q 475 162 458 169 Q 442 176 435 175 Q 420 175 406 168 Q 392 160 369 127 Q 346 94 348 76 Q 348 71 351 63 Q 354 55 361 47 Q 367 39 367 34 Q 367 32 364 28 Q 362 23 339 23 Q 310 24 303 31 Q 297 38 297 40 Q 296 43 299 55 Q 301 67 301 73 Q 301 78 301 84 Q 294 132 251 131 L 122 130 L 61 130 Q 44 132 35 141 Q 26 150 28 175 Q 28 187 31 195 Q 33 203 38 209 Q 43 214 56 217 Q 69 220 75 220 L 88 219 L 100 219 Q 105 218 110 215 L 123 194 Q 132 181 150 178 Q 169 174 181 174 Q 208 174 223 184 Q 239 194 244 206 L 249 219 Q 250 221 252 223 Q 254 225 262 226 L 289 227 Q 293 228 294 230 L 296 235 L 310 258 Q 318 273 318 288 Q 318 302 316 316 Q 313 330 314 332 Q 314 336 317 347 Q 319 357 321 361 L 334 385 Z M 120 110 219 111 Q 246 111 254 110 Q 263 108 271 101 Q 279 94 279 76 Q 279 58 270 49 Q 260 39 229 39 L 110 37 Q 91 37 84 39 Q 76 41 68 49 Q 60 56 60 74 Q 60 93 67 99 Q 74 106 82 108 Q 89 110 120 110 Z M 437 152 Q 451 152 463 140 Q 475 128 475 118 Q 492 107 470 97 Q 463 84 446 67 Q 429 50 415 44 Q 400 37 385 52 Q 371 66 371 81 Q 371 88 375 94 Q 378 100 390 117 Q 402 134 414 143 Q 425 152 437 152 Z" fill="black" />
  </g>
  <g class="defect" id="01">
    <path d="M 475 118 Q 492 107 470 97" fill="none" stroke="red" stroke-width="3" />
  </g>
</svg>