<svg xmlns="http://www.w3.org/2000/svg" width="512" height="512" viewBox="0 0 512 512">
  <g class="glyph">
    <path d="M 371 112 Q 384 113 384 118 Q 384 123 381 126 Q 378 130 369 129 L 320 129 Q 285 128 282 128 Q 280 127 278 125 Q 277 123 276 117 Q 276 110 292 111 Z M 291 67 369 68 Q 384 68 385 77 Q 385 86 365 86 L 306 86 Q 282 86 279 83 Q 277 80 277 73 Q 277 67 291 67 Z M 310 232 Q 310 229 313 226 Q 315 223 331 223 Q 347 222 349 225 Q 352 229 352 235 Q 352 241 338 241 Q 316 241 313 238 Q 310 235 310 232 Z M 311 170 Q 310 160 332 161 Q 326 180 346 163 Q 351 164 351 172 Q 352 179 334 179 Q 316 178 314 177 Q 312 175 311 170 L 311 170 Z M 408 5 Q 435 7 449 10 Q 463 13 474 25 Q 485 36 487 48 Q 490 60 491 79 Q 492 118 489 137 Q 487 155 487 158 Q 487 160 488 161 L 494 187 Q 495 191 495 195 Q 495 198 494 206 Q 493 213 494 215 Q 494 219 495 222 L 504 241 Q 508 251 508 266 Q 507 276 502 289 Q 498 301 498 303 Q 498 306 500 308 L 507 321 Q 512 329 512 337 Q 512 344 511 351 Q 510 360 507 365 L 492 391 Q 492 392 491 393 Q 491 393 492 395 L 499 413 Q 500 418 500 426 Q 500 443 491 461 Q 483 478 461 485 Q 439 492 421 485 L 390 473 Q 386 472 381 475 L 368 488 Q 360 495 349 499 Q 337 502 310 503 Q 262 504 246 495 L 231 484 Q 227 483 226 482 Q 223 481 211 484 Q 199 486 197 486 Q 186 487 173 480 Q 161 473 154 463 L 146 450 Q 142 445 140 445 Q 138 445 136 447 L 113 469 Q 98 481 73 483 Q 48 484 22 458 Q 13 449 8 440 Q 3 430 3 419 Q 2 408 4 399 Q 6 390 15 376 L 32 350 Q 51 320 50 311 Q 49 301 47 299 Q 46 297 32 291 Q 19 285 12 276 Q 5 266 3 260 Q 1 255 0 247 Q 0 240 3 224 Q 8 198 11 182 Q 13 165 15 146 Q 17 126 21 117 Q 24 108 30 101 Q 36 94 44 90 Q 51 87 55 84 Q 58 81 59 75 L 60 47 Q 61 30 75 16 Q 89 3 123 1 Q 152 0 168 12 Q 185 24 187 24 Q 189 24 191 23 L 207 13 Q 217 8 228 7 Q 240 6 258 6 Z M 112 220 117 181 Q 119 165 119 147 Q 120 129 109 117 Q 98 106 74 106 Q 58 106 51 112 Q 44 118 40 131 Q 37 144 35 162 Q 33 181 31 191 L 26 218 Q 25 226 24 232 Q 23 239 23 246 Q 23 254 33 265 Q 43 276 62 276 Q 80 277 91 268 Q 106 255 112 220 Z M 118 431 134 403 Q 135 401 143 399 Q 150 397 152 396 L 159 390 Q 163 386 164 385 Q 165 384 165 381 Q 165 379 164 375 L 153 355 Q 149 347 150 337 Q 150 329 153 322 L 165 305 Q 167 301 167 299 Q 167 297 167 294 L 161 280 Q 159 272 159 258 Q 160 249 162 242 L 168 226 L 172 204 Q 174 198 179 195 L 203 178 Q 224 163 223 150 Q 223 137 219 127 Q 215 118 206 108 Q 198 99 187 97 Q 176 96 175 95 Q 174 93 174 91 L 172 51 Q 172 43 163 34 Q 154 24 126 23 Q 99 22 90 33 Q 84 38 83 44 Q 82 49 82 64 Q 82 79 85 83 Q 86 84 88 86 L 105 91 Q 110 92 118 98 Q 127 103 133 111 Q 138 119 140 131 Q 141 143 142 153 Q 142 163 139 180 L 132 224 Q 126 263 115 275 Q 104 286 98 289 L 81 297 Q 78 300 74 313 Q 70 326 65 337 Q 59 348 57 352 L 32 391 Q 25 403 25 415 Q 24 428 40 444 Q 55 461 74 460 Q 88 460 100 450 Q 113 440 118 431 Z M 375 439 404 455 Q 443 477 460 463 Q 476 449 477 432 Q 477 414 471 407 Q 467 403 460 401 L 447 398 Q 445 398 431 392 Q 417 386 415 381 Q 412 377 412 375 Q 412 373 414 369 L 430 345 Q 432 341 433 334 Q 434 327 423 316 Q 411 304 396 305 Q 386 305 378 313 Q 371 321 369 320 Q 367 319 365 315 L 361 301 Q 355 290 333 288 Q 311 287 306 292 Q 301 297 300 301 Q 299 304 309 317 Q 319 330 319 339 Q 319 348 315 357 Q 312 363 304 371 Q 296 380 286 386 Q 262 406 263 390 Q 258 390 253 388 L 242 382 Q 241 382 238 382 Q 236 381 228 386 Q 219 391 215 392 L 193 396 Q 177 399 170 408 Q 163 417 163 430 Q 163 444 174 454 Q 185 465 198 465 Q 201 465 209 463 Q 217 461 219 458 Q 222 455 223 451 L 224 438 Q 225 432 229 424 Q 232 416 239 410 Q 245 405 265 403 Q 285 401 285 408 Q 285 415 283 416 Q 281 418 277 419 L 263 420 Q 253 422 249 428 Q 245 435 245 448 Q 246 465 251 471 Q 257 477 272 479 Q 287 480 309 480 Q 339 481 350 473 Q 361 466 363 454 Q 364 442 367 439 Q 370 436 375 439 Z M 482 322 463 301 Q 461 299 461 296 Q 461 294 464 292 L 477 287 Q 486 282 487 262 Q 488 241 476 239 Q 474 239 468 240 Q 462 241 446 241 Q 430 241 428 239 Q 425 236 425 233 Q 425 231 428 228 Q 430 226 436 225 L 457 224 Q 464 223 469 218 Q 492 197 475 196 Q 476 179 464 176 Q 462 176 453 179 Q 444 181 437 181 Q 430 181 427 178 Q 425 175 424 172 Q 424 170 427 167 Q 428 165 430 164 L 447 160 Q 455 158 461 150 Q 468 142 468 122 Q 468 102 469 81 Q 469 60 464 48 Q 461 43 455 37 Q 450 31 437 30 Q 424 28 407 27 L 268 27 Q 230 27 213 31 Q 197 35 197 53 Q 196 71 198 76 L 220 94 Q 227 101 234 113 Q 241 126 242 131 L 246 155 L 251 163 Q 252 166 252 168 Q 252 174 246 176 L 231 181 Q 228 182 219 190 L 204 202 Q 196 208 197 213 Q 197 218 201 220 Q 205 221 220 223 Q 236 225 236 231 Q 236 241 220 240 L 190 238 Q 184 238 182 246 Q 180 255 180 262 Q 179 278 191 288 Q 203 297 203 297 Q 202 299 199 302 L 177 322 Q 170 330 170 341 Q 170 352 181 363 Q 193 374 204 373 Q 213 373 217 369 Q 220 366 211 350 Q 202 334 201 330 Q 201 325 205 316 Q 210 306 219 296 Q 228 285 237 282 Q 245 279 255 279 Q 260 279 264 280 L 279 284 Q 280 284 291 276 Q 302 269 327 269 Q 351 270 365 277 Q 378 284 380 284 L 392 283 Q 414 282 432 298 Q 450 314 453 320 Q 455 325 454 334 Q 454 342 447 356 Q 440 370 440 370 Q 441 372 445 375 Q 448 379 458 380 Q 469 380 479 369 Q 490 358 490 345 Q 490 331 482 322 Z M 224 331 230 342 Q 233 349 242 359 Q 251 370 264 371 Q 282 373 290 360 Q 297 347 298 339 Q 298 330 285 316 Q 268 297 252 298 Q 243 299 233 308 Q 222 317 222 323 Q 223 330 224 331 Z" fill="black" />
  </g>
  <g class="defect" id="01">
    <path d="M 469 218 Q 492 197 475 196" fill="none" stroke="red" stroke-width="3" />
  </g>
  <g class="defect" id="02">
    <path d="M 332 161 Q 326 180 346 163" fill="none" stroke="red" stroke-width="3" />
  </g>
  <g class="defect" id="03">
    <path d="M 286 386 Q 262 406 263 390" fill="none" stroke="red" stroke-width="3" />
  </g>
</svg>