<svg xmlns="http://www.w3.org/2000/svg" width="512" height="512" viewBox="0 0 512 512">
  <g class="glyph">
    <path d="M 223 196 Q 223 196 226 189 Q 229 182 238 182 Q 244 183 247 186 Q 250 189 250 194 Q 251 199 245 204 Q 239 209 235 209 Q 232 209 226 204 Q 219 199 223 196 Z M 248 139 Q 248 135 251 131 Q 255 127 261 127 Q 267 127 270 130 Q 273 133 273 138 Q 272 146 268 148 Q 264 151 261 151 Q 257 151 253 148 Q 248 145 248 139 Z M 53 75 54 49 Q 55 38 62 24 Q 69 11 88 6 Q 106 1 119 0 Q 136 0 148 5 Q 160 9 164 12 L 179 24 Q 181 26 183 27 Q 186 28 200 13 Q 212 0 240 0 Q 246 0 258 2 Q 270 3 281 10 Q 293 17 297 22 L 307 34 Q 313 39 320 39 Q 325 39 330 36 L 342 22 Q 356 6 392 6 Q 418 6 432 17 L 450 35 L 468 49 Q 485 64 493 82 Q 500 101 502 111 L 503 131 L 508 156 Q 509 169 506 179 Q 503 188 497 196 Q 491 204 488 206 L 473 217 Q 472 218 471 222 Q 470 225 480 238 L 498 260 Q 509 275 509 295 Q 510 315 495 330 Q 481 346 482 349 Q 482 352 483 352 L 499 400 L 510 426 Q 512 434 512 441 Q 512 448 510 456 Q 503 479 480 489 Q 458 498 443 498 Q 439 498 436 497 L 408 489 Q 402 489 390 492 Q 378 494 371 494 Q 356 495 344 489 Q 332 484 331 484 Q 328 484 315 491 Q 302 498 280 497 Q 265 496 254 492 Q 242 488 239 488 Q 236 488 225 494 Q 214 500 203 500 Q 195 501 170 493 Q 146 485 138 466 L 131 452 Q 129 448 127 448 Q 125 447 120 454 Q 116 461 105 471 Q 93 480 74 480 Q 67 480 49 475 Q 32 471 20 454 Q 7 438 4 427 Q 0 416 1 405 Q 1 394 7 384 L 31 347 Q 34 342 40 325 Q 47 308 46 303 Q 45 297 39 292 L 21 282 Q 13 277 7 267 Q 2 256 1 248 Q 1 240 4 224 Q 6 212 10 182 Q 13 153 16 136 Q 18 120 22 111 Q 26 102 38 94 Q 49 87 51 84 Q 53 82 53 75 Z M 160 271 163 202 Q 163 196 167 190 L 191 174 Q 204 164 204 150 Q 204 137 202 127 Q 198 113 193 106 Q 188 100 185 98 L 168 93 Q 164 91 164 86 L 163 55 Q 163 22 118 21 Q 86 21 81 34 Q 76 46 75 62 Q 75 79 79 83 Q 80 85 83 86 L 106 94 Q 124 101 128 114 Q 132 128 132 137 L 128 198 Q 127 217 124 236 Q 122 255 114 269 Q 105 283 91 288 Q 77 293 75 294 Q 73 296 72 301 Q 70 306 66 319 Q 62 333 58 343 Q 53 353 47 362 L 29 389 Q 23 400 23 409 Q 22 418 29 430 Q 33 436 45 448 Q 56 460 75 458 Q 79 458 86 456 Q 93 454 100 448 Q 107 442 117 422 Q 128 402 130 401 Q 132 400 140 406 Q 149 411 157 411 Q 169 409 186 395 Q 203 380 200 359 Q 199 351 195 346 L 176 331 Q 170 326 164 315 Q 157 303 157 291 L 160 271 Z M 111 150 Q 111 126 103 116 Q 94 106 72 106 Q 54 107 47 114 Q 39 121 36 135 Q 33 149 31 172 Q 29 196 27 213 Q 24 231 24 243 Q 25 254 33 264 Q 41 273 64 273 Q 82 273 93 262 Q 104 251 107 210 Q 111 168 111 150 Z M 200 477 Q 212 477 226 466 Q 240 456 252 420 Q 263 384 262 368 Q 260 350 248 348 Q 243 348 235 352 Q 227 355 225 357 Q 223 359 216 378 Q 209 398 198 410 Q 187 422 180 425 L 159 434 Q 155 437 155 441 Q 155 446 156 448 Q 157 457 166 465 Q 175 473 187 475 Q 199 478 200 477 Z M 267 289 294 251 Q 302 240 310 224 Q 318 208 321 203 Q 324 198 329 197 Q 335 196 337 204 Q 339 212 332 222 L 319 248 L 290 289 Q 281 303 281 313 Q 281 324 293 336 Q 306 348 323 348 Q 335 348 343 343 Q 351 338 361 325 Q 372 312 377 304 Q 382 295 388 280 Q 393 265 396 263 Q 399 262 403 262 Q 408 261 410 264 Q 412 266 412 270 Q 412 273 409 281 L 399 307 Q 397 310 397 314 Q 397 319 407 329 Q 417 339 437 340 Q 456 340 471 324 Q 487 309 486 295 Q 486 280 479 272 L 460 248 Q 456 243 447 227 Q 438 210 439 203 Q 440 201 441 200 Q 442 199 444 198 L 460 196 Q 477 193 481 182 Q 484 170 484 163 Q 484 156 482 155 Q 479 154 468 161 Q 459 167 446 167 Q 439 168 431 165 Q 422 162 418 158 Q 413 154 400 134 Q 387 114 384 103 Q 381 92 381 87 Q 381 82 384 75 Q 388 63 402 53 Q 415 43 416 42 Q 417 40 417 38 Q 418 36 416 33 Q 413 31 405 29 Q 396 27 387 27 Q 367 27 359 35 Q 351 44 350 49 Q 350 54 351 57 L 356 77 Q 359 86 359 97 Q 358 108 348 107 Q 344 107 342 105 Q 340 103 340 103 Q 339 102 338 89 Q 336 76 328 69 Q 321 62 304 60 Q 288 58 287 57 Q 285 55 285 54 L 281 39 Q 280 36 271 29 Q 263 22 242 21 Q 225 21 216 27 Q 207 33 199 50 Q 190 67 191 73 Q 191 75 193 77 Q 194 79 203 88 Q 213 97 219 113 Q 226 130 225 149 Q 225 169 210 182 L 198 194 L 188 202 Q 185 205 183 214 Q 180 223 181 228 Q 182 235 187 237 L 203 236 Q 204 237 206 239 Q 208 242 209 244 Q 209 247 204 252 L 182 276 Q 178 283 177 291 Q 176 300 191 318 Q 206 335 227 334 Q 238 333 246 327 Q 253 321 255 317 L 260 300 Q 262 295 267 289 Z M 257 464 Q 257 465 261 470 Q 266 475 282 475 Q 305 474 312 467 Q 319 459 320 448 Q 321 437 318 401 Q 317 376 310 370 L 296 362 Q 288 358 286 359 Q 284 360 283 365 L 283 384 Q 282 386 281 391 L 276 412 Q 274 420 266 442 L 257 464 Z M 336 394 340 427 Q 343 452 348 461 Q 352 471 369 472 Q 385 473 388 469 Q 392 465 392 462 Q 392 460 392 459 L 380 421 Q 370 390 371 377 Q 371 363 374 356 Q 378 348 377 347 Q 377 346 375 345 Q 373 344 365 350 L 340 367 Q 335 371 335 378 Q 335 384 336 394 Z M 393 384 396 403 Q 397 409 402 424 L 409 445 Q 415 461 424 469 Q 433 477 451 476 Q 470 475 479 464 Q 489 453 489 444 Q 488 435 487 431 L 472 391 L 464 368 Q 461 364 457 362 L 429 360 L 410 356 Q 408 356 407 356 Q 403 356 399 359 Q 408 362 392 368 Q 391 373 393 384 Z M 403 90 405 98 Q 406 104 414 118 Q 422 132 427 139 Q 432 146 447 147 Q 461 147 470 136 Q 479 126 480 117 Q 481 108 472 90 Q 463 75 449 62 Q 434 48 418 63 Q 416 78 403 84 Q 403 90 403 90 Z" fill="black" />
  </g>
  <g class="defect" id="01">
    <path d="M 418 63 Q 416 78 403 84" fill="none" stroke="red" stroke-width="3" />
  </g>
  <g class="defect" id="02">
    <path d="M 399 359 Q 408 362 392 368" fill="none" stroke="red" stroke-width="3" />
  </g>
</svg>