<svg xmlns="http://www.w3.org/2000/svg" width="512" height="512" viewBox="0 0 512 512">
  <g class="glyph">
    <path d="M 276 221 316 221 348 220 Q 364 221 362 232 Q 361 237 356 239 L 342 241 L 337 242 L 291 243 Q 271 243 267 240 Q 264 237 264 232 Q 264 227 267 224 Q 270 221 276 221 Z M 322 186 290 186 Q 271 185 267 183 Q 264 181 264 172 Q 265 163 279 164 Q 303 165 316 164 Q 352 162 357 166 Q 363 169 363 176 Q 362 179 359 183 Q 357 187 322 186 Z M 34 351 61 309 77 288 Q 79 284 79 280 Q 80 276 66 268 L 36 249 Q 2 228 1 203 Q 0 178 9 161 Q 20 143 31 136 Q 42 129 41 126 Q 41 125 40 123 L 26 111 Q 20 105 16 95 Q 13 85 12 66 Q 12 47 35 23 Q 58 0 79 0 Q 100 1 113 6 L 145 20 Q 147 21 150 21 Q 152 22 154 20 L 177 9 Q 187 5 203 5 L 384 5 L 424 5 Q 458 6 476 24 Q 495 41 496 67 L 497 107 Q 497 136 495 156 Q 492 176 479 187 L 460 200 Q 455 205 455 209 L 453 244 L 449 269 Q 449 271 449 273 Q 449 275 450 276 Q 451 279 464 285 Q 478 292 484 302 Q 491 312 493 320 Q 495 329 495 341 Q 495 361 488 375 Q 493 371 482 391 Q 482 393 489 405 Q 496 418 496 430 Q 497 441 492 455 Q 483 483 457 497 Q 430 512 397 493 L 367 475 L 364 473 Q 331 453 324 442 Q 317 432 314 432 Q 312 433 311 434 L 274 466 Q 271 469 264 472 L 232 491 Q 212 502 197 502 Q 182 502 169 496 Q 157 489 147 476 Q 136 463 134 464 Q 133 465 130 467 L 118 478 Q 103 490 77 491 Q 50 493 21 463 Q 8 450 4 439 Q 1 429 0 416 Q -11 403 11 385 Z M 86 312 46 374 Q 29 402 26 407 Q 24 413 23 423 Q 22 433 39 449 Q 46 455 58 462 Q 70 469 83 468 Q 92 468 100 463 Q 107 459 115 448 Q 123 437 124 433 L 134 407 L 147 389 Q 148 388 148 387 Q 147 386 147 384 L 140 371 Q 138 368 137 363 Q 136 357 135 340 Q 134 325 138 312 Q 143 298 142 296 Q 140 286 124 286 Q 113 287 104 292 Q 96 297 86 312 Z M 63 240 102 263 Q 112 269 128 269 Q 144 269 155 249 Q 167 229 165 211 Q 164 193 149 184 L 129 171 Q 84 142 67 144 Q 51 147 41 157 Q 31 167 27 177 Q 23 188 24 194 Q 24 207 32 216 Q 40 226 63 240 Z M 133 138 135 88 137 47 Q 133 37 114 30 Q 96 22 84 22 Q 68 23 56 35 Q 44 47 40 58 Q 36 68 36 77 Q 36 86 42 95 Q 47 103 76 118 Q 105 132 114 139 Q 123 146 128 145 Q 133 143 133 138 Z M 219 376 179 400 163 409 Q 157 413 154 417 Q 151 422 151 429 Q 151 437 155 446 Q 160 458 170 468 Q 180 478 195 478 Q 202 479 215 473 Q 228 468 237 463 Q 245 458 262 446 Q 278 434 286 425 Q 295 415 295 403 Q 296 391 282 377 Q 268 363 250 363 Q 242 364 236 366 L 227 372 L 219 376 Z M 196 169 196 235 Q 196 253 200 260 Q 203 267 210 275 Q 217 282 230 284 L 261 288 Q 267 291 267 295 Q 267 299 264 302 Q 261 306 253 306 Q 234 306 228 305 L 208 300 Q 205 300 198 300 Q 179 299 170 303 Q 162 307 159 316 Q 156 324 156 338 Q 156 350 158 358 Q 160 365 168 372 Q 175 379 189 371 L 225 350 Q 236 343 251 342 Q 266 341 289 358 Q 297 363 304 372 Q 311 381 314 380 Q 316 380 318 379 L 334 362 Q 350 346 372 346 Q 395 346 410 354 L 435 369 Q 449 377 454 377 Q 459 376 466 370 Q 473 364 472 338 Q 472 330 470 323 Q 469 316 462 308 Q 455 300 433 300 Q 428 301 424 301 L 398 306 Q 360 312 360 296 Q 360 288 373 287 L 396 286 Q 422 282 427 264 Q 431 246 431 222 V 164 Q 431 150 430 143 Q 428 136 418 126 Q 409 117 388 116 L 269 116 L 248 115 Q 229 115 215 121 Q 202 128 199 141 Q 196 153 196 169 Z M 364 95 Q 375 95 387 95 Q 399 95 418 100 Q 437 106 444 120 Q 451 135 452 141 L 455 165 Q 457 170 459 170 Q 462 171 467 165 Q 472 159 473 140 L 474 95 Q 475 67 468 51 Q 462 34 446 31 Q 430 27 394 27 L 324 27 L 207 28 Q 181 28 169 41 Q 157 54 157 89 V 131 Q 157 154 162 165 Q 168 175 174 164 L 177 137 Q 178 135 181 128 Q 184 121 185 119 Q 186 117 193 111 Q 200 105 203 104 Q 206 103 207 102 Q 208 101 212 99 L 229 95 Z M 174 284 Q 177 284 180 281 Q 183 278 183 262 Q 182 246 176 249 Q 172 251 169 259 Q 166 267 166 270 Q 166 272 166 274 Q 165 276 166 277 Q 166 279 169 282 Q 172 284 174 284 Z M 435 480 Q 445 480 460 468 Q 474 455 474 433 Q 474 421 468 414 Q 463 407 436 391 L 417 382 L 394 368 Q 366 357 348 376 Q 331 395 332 408 Q 334 428 375 454 Q 416 480 435 480 Z" fill="black" />
  </g>
  <g class="defect" id="01">
    <path d="M 488 375 Q 493 371 482 391" fill="none" stroke="red" stroke-width="3" />
  </g>
  <g class="defect" id="02">
    <path d="M 0 416 Q -11 403 11 385" fill="none" stroke="red" stroke-width="3" />
  </g>
</svg>