<svg xmlns="http://www.w3.org/2000/svg" width="512" height="512" viewBox="0 0 512 512">
  <g class="glyph">
    <path d="M 92 149 Q 92 141 101 140 Q 109 140 111 143 Q 114 147 114 150 Q 114 153 112 156 Q 109 159 101 159 Q 94 158 93 154 Q 92 150 92 149 Z M 139 302 Q 139 298 141 295 Q 143 293 155 292 Q 180 292 181 295 Q 183 297 183 300 Q 183 303 181 305 Q 178 309 159 310 Q 139 311 139 307 Q 138 302 139 302 Z M 139 249 Q 139 241 158 241 Q 171 241 177 242 Q 183 243 183 251 Q 184 259 161 258 Q 150 258 145 257 Q 140 256 140 253 Q 139 250 139 249 Z M 210 150 Q 210 148 212 144 Q 214 141 223 141 Q 232 141 232 151 Q 231 155 230 157 Q 228 159 221 159 Q 214 160 212 156 Q 211 155 210 153 Q 209 151 210 150 Z M 284 37 292 31 298 30 408 13 437 7 Q 443 6 457 6 Q 472 6 478 11 Q 485 17 492 25 Q 499 34 502 47 Q 505 60 505 81 Q 506 102 499 113 L 487 129 Q 484 135 484 153 Q 485 171 485 187 L 489 272 L 494 328 L 499 367 L 507 405 Q 512 431 511 446 Q 511 461 496 481 Q 481 500 457 500 Q 432 501 424 494 L 407 477 Q 401 474 383 477 L 332 483 L 318 492 Q 310 498 288 497 Q 280 497 260 492 Q 251 494 244 494 Q 228 494 220 489 Q 211 484 203 475 Q 194 467 191 467 Q 189 467 180 472 Q 172 477 166 479 L 140 485 L 99 493 Q 77 498 67 496 Q 49 493 42 480 Q 34 467 34 459 L 33 439 Q 4 438 2 420 Q 0 401 1 394 Q 2 383 8 375 L 20 360 Q 23 355 23 353 Q 23 350 22 343 Q 21 335 21 330 Q 21 325 27 314 Q 35 300 35 297 L 33 274 L 36 255 L 30 238 Q 27 233 27 225 Q 27 217 31 207 Q 35 197 35 194 Q 36 191 34 181 Q 31 171 31 160 Q 30 147 32 136 Q 35 125 33 122 L 23 112 Q 18 107 18 91 Q 18 74 18 67 Q 19 55 26 43 Q 32 31 60 30 L 99 28 Q 104 28 109 24 L 117 14 Q 131 0 166 2 Q 188 3 196 8 Q 205 13 208 15 L 218 26 Q 223 30 227 30 L 254 31 Q 270 31 273 32 L 284 37 Z M 300 55 Q 307 70 307 87 Q 307 101 303 111 L 293 132 Q 292 136 292 138 L 291 166 L 287 193 Q 287 195 290 207 Q 294 218 294 223 Q 293 225 293 228 L 286 256 L 287 270 L 288 291 L 300 315 Q 303 323 303 334 Q 303 344 300 352 Q 298 359 290 373 Q 283 386 284 390 Q 284 393 290 400 Q 295 408 297 417 Q 299 426 297 441 Q 296 449 294 457 Q 291 465 290 467 L 283 475 Q 292 476 295 476 Q 298 476 308 473 Q 318 470 319 467 Q 338 464 317 458 Q 314 451 311 441 Q 309 432 308 417 Q 307 403 307 395 Q 307 387 309 383 Q 310 380 316 371 Q 321 362 322 357 Q 324 353 324 341 L 324 299 L 325 192 L 324 155 Q 324 140 327 137 Q 330 133 334 133 Q 337 133 340 136 Q 343 139 343 145 L 342 334 V 369 Q 341 376 340 378 Q 339 381 336 385 Q 332 389 331 393 Q 329 397 329 404 Q 328 411 331 426 Q 334 443 339 449 Q 343 456 348 458 Q 353 459 363 458 Q 394 454 409 450 Q 424 447 432 439 Q 439 432 440 423 Q 440 414 439 410 L 435 379 Q 429 342 421 334 Q 412 327 399 328 Q 388 329 382 336 Q 376 343 376 347 Q 376 351 376 351 Q 376 366 377 370 Q 378 374 374 379 Q 369 384 363 377 Q 356 371 358 350 Q 359 336 362 328 Q 366 320 375 314 Q 385 307 387 305 Q 389 303 390 297 L 391 143 Q 391 127 399 127 Q 405 128 406 132 Q 408 136 408 170 V 266 L 409 291 Q 408 299 411 301 Q 411 302 413 303 L 428 313 Q 443 323 448 355 L 454 393 Q 459 419 458 432 Q 457 444 452 452 L 438 468 Q 436 469 436 471 Q 436 473 439 476 Q 441 479 447 479 Q 451 479 467 475 Q 484 472 488 459 Q 493 446 492 436 Q 492 429 489 409 Q 486 388 483 375 Q 479 361 479 358 L 475 325 L 470 279 L 467 191 L 466 136 Q 465 121 468 117 L 479 107 Q 487 98 487 78 Q 487 71 485 59 Q 483 46 476 38 Q 468 30 460 29 Q 452 29 444 30 L 364 44 L 309 53 Z M 264 311 Q 238 311 237 306 Q 237 301 238 298 Q 240 296 251 296 Q 262 295 265 292 Q 268 289 269 283 Q 271 276 269 270 Q 266 258 252 257 Q 238 256 237 252 Q 237 248 239 247 Q 226 228 242 244 Q 245 243 254 243 Q 264 243 270 238 Q 275 232 275 224 Q 276 216 274 212 Q 270 200 254 200 Q 238 200 238 196 Q 237 191 240 189 Q 242 188 251 188 Q 259 187 266 182 Q 272 177 273 161 Q 273 145 273 140 Q 272 125 264 118 Q 257 111 240 111 H 199 Q 184 111 175 119 Q 167 128 168 152 Q 169 175 174 181 L 183 191 Q 183 192 183 193 Q 182 196 181 198 Q 179 199 163 200 Q 154 200 147 199 Q 141 198 141 195 Q 140 192 141 190 Q 141 190 148 182 Q 154 174 153 150 Q 153 140 152 132 Q 151 124 145 118 Q 140 112 127 110 L 99 110 L 81 110 Q 65 111 58 119 Q 51 127 51 148 Q 51 153 52 167 Q 52 181 62 185 L 81 189 Q 85 193 82 197 Q 80 200 74 200 L 56 201 Q 51 203 48 207 Q 26 210 44 221 Q 44 231 49 237 Q 52 240 57 242 L 78 244 Q 82 246 83 249 Q 83 252 80 255 L 63 257 Q 49 259 50 275 Q 50 291 62 293 L 79 296 Q 82 299 82 301 Q 82 304 81 305 Q 79 307 75 308 L 53 309 Q 40 313 41 330 Q 41 344 49 349 L 62 355 Q 63 356 64 358 Q 64 360 59 363 Q 57 364 39 373 Q 20 382 20 400 Q 20 414 27 415 L 36 419 Q 46 405 52 400 Q 57 396 63 396 Q 69 396 69 401 Q 69 406 68 408 Q 68 410 63 413 Q 59 417 55 422 Q 52 427 52 439 Q 52 448 56 461 Q 60 473 71 474 Q 82 475 91 473 L 140 463 Q 162 458 170 453 Q 177 449 177 430 Q 177 414 169 406 Q 162 397 155 397 Q 154 397 154 397 L 139 398 Q 132 396 132 388 Q 132 383 135 379 L 141 374 Q 146 369 147 369 L 152 372 L 173 384 Q 183 389 187 399 Q 191 409 192 413 L 194 430 Q 196 438 205 449 Q 213 460 230 471 Q 248 481 264 466 Q 280 450 279 434 Q 278 422 269 411 L 263 404 Q 261 401 261 399 Q 260 398 261 396 L 266 386 Q 268 381 268 372 Q 268 364 261 354 Q 253 344 246 342 Q 239 341 236 342 Q 235 342 232 343 L 218 351 Q 214 353 212 351 Q 210 348 209 345 Q 209 341 217 332 Q 224 323 239 322 Q 241 322 248 323 Q 255 324 265 334 Q 276 343 279 344 Q 283 345 284 334 Q 284 323 279 317 Q 274 311 270 311 Z M 100 50 66 50 Q 52 50 46 56 Q 39 62 38 78 Q 36 94 40 98 Q 44 102 46 102 Q 47 102 54 98 Q 61 95 64 93 Q 66 92 71 92 L 101 91 Q 102 91 109 92 L 133 93 Q 143 94 151 100 Q 159 107 161 106 Q 162 106 164 105 L 177 95 Q 183 93 198 93 L 243 94 Q 264 94 272 99 Q 279 103 281 103 Q 289 102 288 87 Q 288 80 285 68 Q 281 57 273 55 Q 265 52 261 52 L 209 51 Q 205 49 203 46 L 197 33 Q 189 23 163 23 Q 146 22 139 26 Q 131 29 129 32 L 119 48 Q 115 51 100 50 Z" fill="black" />
  </g>
  <g class="defect" id="01">
    <path d="M 319 467 Q 338 464 317 458" fill="none" stroke="red" stroke-width="3" />
  </g>
  <g class="defect" id="02">
    <path d="M 48 207 Q 26 210 44 221" fill="none" stroke="red" stroke-width="3" />
  </g>
  <g class="defect" id="03">
    <path d="M 239 247 Q 226 228 242 244" fill="none" stroke="red" stroke-width="3" />
  </g>
</svg>