<svg xmlns="http://www.w3.org/2000/svg" width="512" height="512" viewBox="0 0 512 512">
  <g class="glyph">
    <path d="M 316 331 Q 316 326 333 326 Q 352 326 354 328 Q 355 330 355 331 Q 355 333 354 334 Q 353 336 347 342 Q 340 349 334 348 Q 330 348 323 342 Q 317 337 316 331 Z M 186 496 Q 168 500 164 501 Q 161 502 156 501 L 103 501 Q 85 501 74 500 Q 63 498 47 483 Q 30 467 30 440 Q 29 413 35 396 Q 37 391 40 388 L 48 378 Q 50 375 50 373 Q 50 371 48 368 Q 46 368 40 365 Q 35 363 27 356 Q 19 349 9 335 Q 0 321 1 297 Q 1 274 22 257 L 52 234 Q 55 231 56 229 Q 57 228 35 213 Q 32 212 17 196 Q 2 180 2 149 Q 1 133 12 120 Q 23 107 22 104 Q 22 103 18 95 Q 13 87 13 83 Q 12 80 10 68 Q 9 55 34 30 Q 60 5 91 7 Q 101 7 121 18 Q 141 29 143 29 Q 145 28 147 26 L 170 11 Q 179 7 195 7 Q 219 8 232 20 Q 250 1 279 0 Q 288 0 303 3 Q 318 6 332 15 Q 347 24 350 24 Q 352 24 367 17 Q 381 11 403 11 Q 412 12 423 14 Q 434 16 445 27 Q 457 39 472 60 Q 487 81 496 96 Q 505 111 504 129 Q 504 139 499 150 Q 494 162 488 165 L 471 178 Q 478 185 485 195 Q 492 205 491 227 Q 490 244 482 256 Q 474 268 474 270 Q 473 272 473 274 Q 473 275 473 277 L 479 298 Q 479 303 480 315 Q 480 328 474 339 L 460 365 Q 471 368 459 369 Q 459 371 461 373 Q 463 376 487 382 Q 512 389 512 428 Q 512 467 492 487 Q 476 502 449 502 Q 422 501 397 493 Q 371 484 357 477 L 336 467 Q 329 464 324 466 L 276 485 Q 241 499 218 499 Q 195 500 186 496 Z M 159 476 Q 156 473 152 465 Q 147 458 147 443 Q 147 429 149 418 Q 150 410 152 405 L 165 386 Q 166 384 166 383 Q 167 381 166 379 L 151 353 Q 146 344 147 334 Q 147 325 150 319 Q 153 314 178 283 Q 172 278 168 273 Q 164 267 160 256 Q 157 245 158 237 Q 158 232 161 223 Q 164 213 166 211 L 190 187 Q 181 178 174 169 Q 168 160 168 149 Q 167 138 169 129 Q 172 119 176 109 Q 181 99 215 46 L 219 40 Q 205 30 195 30 Q 182 30 171 38 L 147 57 Q 140 61 136 57 L 112 39 Q 80 15 48 48 Q 36 61 36 73 Q 36 81 41 87 L 59 104 Q 61 107 61 110 Q 62 113 57 117 L 34 130 Q 26 137 25 147 Q 25 157 30 170 Q 45 202 69 202 Q 72 202 76 201 L 100 193 Q 105 192 107 195 Q 110 197 111 203 Q 112 209 99 221 L 72 245 L 44 267 Q 31 278 27 285 Q 24 291 23 305 Q 22 319 38 334 Q 54 349 68 349 Q 81 348 95 335 Q 109 322 113 324 Q 115 325 117 326 Q 133 328 118 333 Q 118 349 116 364 Q 115 379 112 382 Q 108 385 104 386 L 83 386 Q 71 388 62 397 Q 52 406 53 430 Q 53 445 60 461 Q 68 477 87 477 L 141 478 Q 147 478 159 476 Z M 398 247 Q 426 249 452 252 Q 465 246 469 235 Q 472 224 472 218 Q 471 210 464 202 Q 458 193 433 174 Q 409 154 397 149 Q 385 144 375 146 Q 367 147 358 155 Q 349 162 344 172 Q 338 181 342 192 Q 347 207 398 247 Z M 334 216 328 224 Q 343 237 353 250 L 367 249 Q 348 233 334 216 Z M 264 466 276 461 Q 301 453 313 446 Q 325 440 329 440 Q 332 440 336 441 L 368 458 L 397 468 L 435 478 Q 462 485 471 475 Q 481 466 486 452 Q 508 421 491 426 Q 490 419 484 409 Q 478 399 448 394 Q 418 388 418 383 Q 418 378 419 377 L 433 361 Q 446 347 452 332 Q 458 317 458 303 Q 457 288 446 277 Q 434 266 391 266 Q 347 266 343 265 Q 339 264 337 262 Q 335 261 332 253 Q 328 246 318 238 Q 307 230 286 230 Q 265 231 251 247 L 224 276 L 189 306 Q 175 318 172 323 Q 169 329 169 339 Q 168 349 183 364 Q 197 379 215 378 Q 221 377 231 373 Q 241 368 243 368 Q 245 369 249 372 Q 252 375 253 378 Q 253 381 250 385 Q 247 388 234 395 Q 220 402 212 400 Q 200 397 195 398 Q 185 400 178 407 Q 170 414 169 435 Q 168 456 183 469 Q 200 483 230 475 Z M 218 192 215 196 190 215 Q 185 219 182 226 Q 179 232 178 237 Q 178 243 182 252 Q 185 260 190 264 Q 194 268 199 268 Q 204 269 214 257 Q 238 231 249 222 Q 259 213 274 211 Q 280 210 291 211 Q 301 213 305 213 Q 320 211 320 197 Q 320 183 318 177 Q 315 168 302 158 Q 289 147 266 148 Q 245 149 234 166 Z M 330 150 Q 338 140 347 132 Q 357 123 377 122 Q 386 122 397 124 Q 407 127 415 132 Q 423 137 435 147 Q 447 157 455 158 Q 465 160 473 150 Q 481 140 481 127 Q 482 114 475 101 Q 472 96 456 75 Q 440 53 431 43 Q 421 33 403 32 Q 390 32 377 36 Q 364 41 356 49 Q 348 57 349 66 Q 349 68 354 86 Q 351 90 338 90 Q 315 92 319 81 L 330 59 Q 331 55 331 49 Q 331 43 325 35 Q 318 29 305 25 Q 292 22 282 22 Q 256 21 242 43 L 209 93 Q 195 112 192 121 Q 190 131 189 140 Q 189 149 196 156 Q 203 163 207 163 Q 210 163 214 159 L 222 147 Q 236 128 276 128 Q 302 128 307 133 L 330 150 Z" fill="black" />
  </g>
  <g class="defect" id="01">
    <path d="M 486 452 Q 508 421 491 426" fill="none" stroke="red" stroke-width="3" />
  </g>
  <g class="defect" id="02">
    <path d="M 460 365 Q 471 368 459 369" fill="none" stroke="red" stroke-width="3" />
  </g>
  <g class="defect" id="03">
    <path d="M 117 326 Q 133 328 118 333" fill="none" stroke="red" stroke-width="3" />
  </g>
</svg>