<svg xmlns="http://www.w3.org/2000/svg" width="512" height="512" viewBox="0 0 512 512">
  <g class="glyph">
    <path d="M 355 306 269 305 Q 265 305 262 302 Q 259 300 258 293 Q 258 287 279 287 L 356 288 Q 369 289 370 294 Q 370 300 366 303 Q 362 306 355 306 Z M 278 243 354 244 Q 369 245 370 250 Q 370 256 366 259 Q 362 262 356 261 L 275 261 Q 259 261 259 252 Q 259 243 278 243 Z M 299 201 Q 299 197 301 195 Q 303 193 315 192 Q 327 192 330 195 Q 334 197 334 201 Q 333 204 331 207 Q 328 209 318 210 Q 306 210 303 208 Q 300 206 299 204 Q 298 202 299 201 Z M 136 476 Q 133 480 130 482 Q 128 484 118 489 Q 108 494 102 496 Q 96 498 82 496 Q 51 494 37 482 Q 22 469 16 459 Q 10 450 9 439 Q 8 429 10 419 Q 12 415 15 407 Q 18 400 27 382 Q 37 364 37 358 Q 36 355 35 352 L 18 337 Q 13 333 7 320 Q 0 306 0 288 Q 0 265 12 253 L 24 242 Q 27 239 28 234 Q 29 230 24 216 L 8 178 Q 2 164 2 151 Q 3 138 9 130 Q 15 122 26 115 Q 37 109 40 108 L 68 99 Q 70 97 72 92 L 80 68 Q 91 44 110 38 Q 130 32 136 31 L 206 31 Q 210 30 213 28 L 225 16 Q 243 1 288 0 Q 312 0 329 4 Q 345 9 354 16 L 367 29 Q 372 33 376 33 L 419 34 Q 451 34 476 37 Q 501 40 506 67 Q 510 93 509 106 Q 507 131 498 140 L 493 146 Q 497 155 497 169 Q 496 178 495 185 Q 493 192 489 198 L 480 210 Q 477 213 477 216 Q 476 220 479 228 Q 482 237 482 240 L 482 298 Q 481 316 478 327 Q 474 337 474 338 Q 474 341 476 344 L 485 352 Q 490 358 494 370 Q 499 382 496 394 Q 495 399 492 404 L 487 414 Q 485 418 486 420 Q 486 422 491 430 Q 496 437 497 450 Q 497 464 493 476 Q 481 508 447 510 Q 420 512 384 501 Q 347 490 332 482 Q 316 473 310 473 Q 305 474 279 487 Q 253 500 219 505 Q 185 510 174 509 Q 145 504 136 476 Z M 133 448 Q 135 440 136 437 Q 137 435 148 420 Q 143 413 141 409 Q 139 404 136 396 Q 134 388 134 377 Q 134 366 141 356 Q 141 356 149 347 Q 156 338 156 336 Q 156 334 156 333 L 153 317 L 152 258 Q 152 241 153 235 Q 154 229 156 221 Q 159 214 158 211 Q 158 209 154 202 Q 149 194 146 183 Q 144 171 145 163 Q 146 151 153 143 Q 159 134 173 129 L 192 123 L 210 111 Q 229 98 264 98 Q 287 98 300 103 Q 313 108 317 108 Q 320 108 335 104 Q 351 99 365 98 Q 382 98 400 102 Q 417 105 426 111 L 439 122 Q 442 123 455 124 Q 468 125 481 130 Q 484 126 486 121 Q 488 117 489 107 Q 490 97 488 84 Q 484 67 477 60 Q 469 54 460 53 Q 451 52 430 52 L 368 51 Q 356 51 351 47 L 343 33 Q 333 19 294 18 Q 257 18 247 24 Q 237 30 235 33 L 228 45 Q 225 50 218 49 L 147 48 Q 105 48 98 71 Q 91 94 91 101 Q 91 106 92 110 Q 93 113 99 120 Q 104 127 107 131 L 113 144 Q 116 151 116 152 L 125 174 Q 134 196 133 207 Q 132 217 127 224 Q 122 231 121 233 Q 121 234 120 235 L 116 235 Q 116 236 114 238 Q 113 240 100 247 Q 86 253 73 254 L 48 255 Q 40 256 35 259 Q 29 263 24 268 Q 18 274 18 292 Q 19 310 31 324 Q 43 338 50 334 Q 68 326 77 330 Q 86 334 86 336 Q 86 338 84 340 Q 83 342 74 346 Q 64 351 62 355 L 49 381 Q 45 389 36 406 Q 26 423 27 434 Q 28 447 40 460 Q 52 472 77 477 Q 102 483 118 467 Q 120 465 133 448 Z M 295 454 314 440 Q 326 430 332 435 Q 337 440 337 443 Q 337 444 337 444 L 333 454 Q 333 458 341 465 Q 349 471 381 482 Q 413 493 437 493 Q 453 493 461 486 Q 470 480 473 467 Q 475 453 474 447 Q 473 440 468 435 Q 464 431 445 426 Q 426 422 425 422 Q 424 421 416 419 Q 407 417 408 415 Q 409 414 410 413 Q 412 412 420 412 L 450 411 Q 464 411 470 402 Q 475 393 476 388 Q 478 383 474 373 Q 470 363 465 359 Q 460 356 454 355 L 440 357 L 408 361 L 370 361 Q 352 362 352 356 Q 352 351 355 348 Q 360 343 375 344 Q 390 345 410 344 Q 431 342 440 339 Q 449 336 455 328 Q 461 320 461 311 L 461 250 Q 461 229 455 222 Q 449 215 441 213 L 417 208 Q 413 205 413 200 Q 413 195 422 194 L 448 196 Q 449 196 450 196 Q 477 195 477 181 Q 478 166 477 161 Q 475 154 471 149 Q 468 145 460 143 Q 452 142 435 140 Q 419 139 418 138 Q 417 137 412 127 Q 407 117 370 117 Q 358 118 348 120 Q 338 122 335 125 L 326 136 Q 318 143 309 138 L 297 124 Q 289 117 263 116 Q 240 116 231 121 Q 240 125 220 128 L 213 137 Q 211 139 206 140 L 188 142 Q 164 146 164 160 Q 164 174 167 181 Q 170 187 174 190 Q 178 193 189 193 Q 194 193 202 192 Q 210 192 213 195 Q 217 198 217 201 Q 217 207 204 209 Q 191 212 185 215 Q 179 218 176 225 Q 173 233 173 248 L 172 291 Q 172 306 175 316 Q 178 327 186 334 Q 194 341 212 342 L 252 344 Q 263 345 263 350 Q 263 355 260 357 Q 256 361 240 361 Q 215 361 204 359 L 190 356 Q 160 351 157 365 Q 154 380 154 383 Q 154 394 162 402 Q 169 410 182 411 L 217 411 Q 223 412 224 414 Q 225 417 212 420 L 179 428 Q 166 430 160 438 Q 154 445 155 459 Q 156 476 163 482 Q 169 489 179 490 Q 188 492 213 486 Q 237 481 253 476 Q 268 470 280 464 Q 292 457 295 454 Z M 21 158 38 207 Q 48 234 69 235 Q 81 236 91 230 Q 100 225 106 218 Q 111 212 112 204 Q 113 195 110 182 Q 108 176 106 172 Q 105 168 97 152 Q 89 135 82 128 Q 75 121 58 121 Q 40 121 31 132 Q 22 142 21 150 Q 20 157 21 158 Z" fill="black" />
  </g>
  <g class="defect" id="01">
    <path d="M 231 121 Q 240 125 220 128" fill="none" stroke="red" stroke-width="3" />
  </g>
</svg>