<svg xmlns="http://www.w3.org/2000/svg" width="512" height="512" viewBox="0 0 512 512">
  <g class="glyph">
    <path d="M 254 297 Q 254 284 264 284 Q 273 284 273 290 Q 273 295 273 297 Q 273 306 272 311 Q 270 316 264 316 Q 272 316 254 308 Q 253 299 254 297 Z M 268 206 Q 279 206 281 222 Q 282 237 268 236 Q 263 236 260 234 Q 257 231 256 219 Q 256 206 268 206 Z M 361 296 Q 362 285 371 285 Q 379 285 380 290 Q 381 295 381 304 Q 381 313 378 315 Q 376 317 372 317 Q 363 317 362 310 V 301 L 362 299 Q 361 297 361 296 Z M 363 221 Q 363 206 375 206 Q 385 206 387 221 Q 389 237 372 236 Q 366 236 364 230 Q 362 225 363 221 Z M 478 157 Q 479 167 480 173 Q 481 179 481 200 L 482 433 Q 482 451 481 463 Q 480 475 470 485 Q 460 496 447 499 Q 433 503 403 502 Q 380 502 368 500 Q 356 499 352 499 L 338 502 Q 334 503 327 503 Q 298 504 289 501 Q 280 497 273 491 Q 265 485 262 480 L 258 463 Q 256 460 255 460 Q 254 459 251 466 Q 247 475 239 487 Q 230 499 221 504 Q 212 508 198 508 Q 179 509 165 504 Q 151 499 135 483 Q 119 493 100 493 Q 80 493 62 485 Q 45 477 31 463 Q 18 449 18 433 Q 17 417 21 409 L 34 381 Q 37 375 36 372 Q 36 369 36 367 Q 35 365 25 356 Q 14 347 7 332 Q 0 318 1 300 Q 1 283 8 274 Q 15 266 23 260 Q 31 254 31 250 Q 32 246 28 237 L 13 204 Q 2 181 3 162 Q 5 144 25 132 Q 45 120 55 119 Q 66 118 67 117 Q 69 115 70 107 Q 71 98 76 79 Q 82 60 106 51 Q 131 42 155 42 L 189 43 Q 204 42 208 39 Q 212 35 225 18 Q 237 0 284 0 Q 308 0 326 6 Q 344 12 352 23 L 362 39 Q 366 42 375 43 L 416 44 L 445 44 Q 464 44 484 52 Q 505 59 508 87 Q 512 115 508 127 Q 501 145 478 157 Z M 463 142 Q 477 138 484 127 Q 491 117 490 102 Q 489 95 486 86 Q 483 77 477 72 Q 471 66 463 65 Q 455 63 432 63 L 378 63 H 356 Q 349 62 346 60 Q 344 57 343 55 L 339 41 Q 331 20 288 20 Q 255 20 245 28 Q 236 36 234 42 L 230 56 Q 227 63 214 62 L 156 62 Q 135 62 120 67 Q 105 73 98 86 Q 90 100 91 112 Q 91 123 95 128 L 112 151 Q 114 154 121 168 L 129 183 Q 139 205 137 221 Q 135 236 122 252 Q 110 269 84 269 L 56 269 Q 51 270 42 273 Q 33 277 27 284 Q 21 290 21 309 Q 22 327 34 338 Q 45 348 56 348 Q 60 348 66 346 L 95 337 Q 100 336 103 338 Q 105 340 105 344 Q 105 351 87 357 Q 70 364 67 366 Q 64 369 51 394 Q 38 419 38 430 Q 39 442 46 450 Q 54 458 66 465 Q 79 473 98 473 Q 114 473 128 463 Q 128 452 129 448 Q 130 443 138 427 Q 145 411 150 394 Q 154 377 156 364 Q 158 350 159 307 L 161 203 Q 162 175 167 163 Q 172 150 181 140 Q 191 131 231 131 L 400 131 Q 443 131 463 142 Z M 246 149 Q 202 146 194 156 Q 186 167 184 182 Q 181 197 181 205 L 179 259 Q 179 301 179 322 Q 178 343 176 362 Q 175 382 172 392 Q 169 402 161 422 Q 153 442 151 447 Q 149 453 150 459 Q 151 469 162 479 Q 174 488 194 488 Q 208 488 216 483 Q 225 478 233 459 L 243 434 L 246 424 L 252 392 L 254 375 Q 256 366 262 366 Q 268 366 271 369 Q 274 371 275 386 L 276 424 V 460 Q 278 473 283 477 Q 288 482 296 485 Q 305 488 313 488 Q 316 488 324 488 Q 331 487 332 486 Q 332 485 329 480 Q 325 477 324 468 Q 322 460 322 453 Q 322 446 323 441 Q 324 430 329 424 Q 334 419 344 415 L 355 412 Q 360 410 360 406 L 361 378 Q 361 372 365 369 Q 369 365 374 368 Q 378 371 379 387 L 380 419 Q 380 421 378 423 Q 376 425 359 426 Q 342 428 341 444 Q 339 461 344 469 Q 348 475 357 480 Q 367 486 401 485 Q 421 485 441 482 Q 460 479 461 453 L 463 421 L 462 196 Q 461 179 458 171 Q 455 163 446 156 Q 437 149 396 149 Z M 30 194 44 226 Q 49 238 57 244 Q 64 250 78 249 Q 97 249 107 238 Q 118 228 118 217 Q 118 207 114 196 L 102 172 Q 92 153 85 146 Q 77 139 63 139 Q 45 139 35 149 Q 25 159 24 169 Q 23 178 30 194 Z" fill="black" />
  </g>
  <g class="defect" id="01">
    <path d="M 264 316 Q 272 316 254 308" fill="none" stroke="red" stroke-width="3" />
  </g>
</svg>