<svg xmlns="http://www.w3.org/2000/svg" width="512" height="512" viewBox="0 0 512 512">
  <g class="glyph">
    <path d="M 114 370 Q 114 355 118 352 Q 121 348 134 348 Q 147 349 166 347 Q 185 346 190 352 Q 194 357 194 370 L 193 382 Q 194 403 190 407 Q 185 411 165 411 Q 123 412 119 408 Q 114 404 114 397 Q 114 391 114 370 Z M 149 394 Q 165 396 169 391 Q 173 387 173 379 Q 173 370 170 368 Q 167 365 155 363 Q 143 362 139 367 Q 135 373 135 377 Q 135 382 136 384 Q 137 389 139 391 Q 142 393 149 394 Z M 115 238 V 228 Q 115 219 118 216 Q 121 213 130 213 Q 140 212 162 212 Q 185 211 189 215 Q 193 219 193 225 Q 194 232 194 237 Q 194 243 194 254 Q 193 265 191 268 Q 188 271 181 272 Q 173 273 148 273 Q 122 273 118 269 Q 114 265 114 259 Q 114 252 114 246 L 115 238 Z M 154 256 Q 166 256 170 252 Q 174 248 174 240 Q 173 233 169 230 Q 166 227 151 227 Q 136 227 136 240 Q 136 249 140 253 Q 157 257 154 256 Z M 375 403 369 409 325 410 Q 302 411 298 407 Q 294 403 294 384 V 378 L 294 367 Q 294 355 298 351 Q 301 348 306 348 H 348 Q 369 348 372 352 Q 376 356 376 362 Q 376 369 376 370 Z M 332 394 Q 347 394 351 391 Q 355 388 355 380 Q 356 372 351 367 Q 346 362 330 363 Q 320 364 317 367 Q 313 371 314 378 Q 314 387 317 391 Q 321 394 332 394 Z M 309 212 H 352 Q 370 212 373 216 Q 376 219 377 227 L 377 246 Q 377 267 373 270 Q 369 274 349 274 Q 301 274 298 270 Q 294 266 295 255 Q 295 252 295 245 Q 295 237 295 228 Q 295 219 299 216 Q 287 192 309 212 Z M 331 258 Q 345 259 351 255 Q 356 250 355 241 Q 355 235 351 232 Q 347 228 331 227 Q 314 226 316 246 Q 316 252 319 255 Q 322 258 331 258 Z M 378 512 139 512 Q 84 512 49 507 Q 14 502 7 472 Q 0 442 0 425 V 197 Q 0 171 6 156 Q 12 142 30 125 Q 48 107 86 107 L 132 106 Q 155 106 160 102 Q 164 99 164 93 L 165 61 Q 165 36 183 18 Q 200 0 244 1 Q 257 1 277 4 Q 296 8 309 20 Q 322 31 324 53 L 326 96 Q 326 100 328 103 Q 330 105 336 106 Q 341 107 367 107 L 394 107 Q 443 108 465 130 Q 488 152 488 181 L 489 380 Q 489 444 484 460 Q 479 476 463 493 Q 446 510 413 511 Z M 373 129 316 128 Q 307 128 303 120 Q 302 117 303 95 L 303 76 Q 301 53 300 47 Q 298 41 289 31 Q 279 21 243 22 Q 210 23 199 35 Q 187 46 187 67 V 110 Q 187 120 184 123 Q 182 127 174 127 L 86 128 Q 56 128 40 146 Q 24 163 24 192 V 414 Q 24 448 31 465 Q 38 481 56 487 Q 73 492 109 492 L 390 491 Q 413 491 439 487 Q 466 483 466 430 L 466 199 Q 466 177 462 166 Q 459 155 446 142 Q 433 130 410 130 Z" fill="black" />
  </g>
  <g class="defect" id="01">
    <path d="M 299 216 Q 287 192 309 212" fill="none" stroke="red" stroke-width="3" />
  </g>
  <g class="defect" id="02">
    <path d="M 140 253 Q 157 257 154 256" fill="none" stroke="red" stroke-width="3" />
  </g>
</svg>