<svg xmlns="http://www.w3.org/2000/svg" width="512" height="512" viewBox="0 0 512 512">
  <g class="glyph">
    <path d="M 125 350 126 289 Q 126 281 130 278 Q 134 275 139 275 Q 144 276 148 279 Q 151 282 151 290 Q 150 299 150 300 L 149 353 Q 149 367 137 367 Q 131 367 128 364 Q 125 361 125 356 Q 125 351 125 350 Z M 336 278 Q 336 279 336 282 Q 335 285 335 286 Q 335 287 336 292 Q 337 297 337 300 Q 337 303 335 305 Q 332 307 325 307 Q 318 307 316 307 Q 315 306 315 285 V 279 Q 316 271 331 273 Q 334 273 335 274 Q 336 276 336 278 Z M 337 198 336 208 Q 335 212 336 218 Q 336 223 334 224 Q 333 226 323 225 Q 319 225 317 224 Q 316 223 316 220 L 316 208 L 316 200 Q 316 193 326 193 Q 336 193 337 198 Z M 405 307 Q 397 308 395 306 Q 394 305 394 298 Q 394 291 393 285 Q 392 279 393 277 L 404 276 Q 410 275 412 277 Q 413 278 413 292 Q 413 306 412 306 Q 411 307 405 307 Z M 415 199 414 205 Q 413 212 414 217 Q 414 222 413 224 Q 412 225 408 226 Q 404 227 400 226 Q 395 225 393 222 Q 391 220 393 200 Q 393 197 395 195 Q 397 194 402 193 Q 408 193 410 193 Q 414 195 415 199 Z M 252 52 263 40 Q 276 24 289 12 Q 302 0 330 0 Q 349 0 366 7 Q 382 13 394 20 Q 406 28 410 29 Q 415 31 433 31 Q 450 31 473 40 Q 496 49 495 79 Q 495 85 493 92 Q 491 100 489 107 Q 487 113 488 115 Q 489 116 498 121 Q 507 126 509 141 Q 511 155 512 164 Q 512 173 512 205 L 510 433 Q 509 457 503 473 Q 498 488 484 496 Q 471 504 434 504 Q 413 505 397 501 Q 381 498 377 498 L 366 499 Q 357 500 348 498 Q 340 497 330 493 Q 321 489 318 489 Q 316 489 302 498 Q 288 507 266 506 Q 205 505 187 471 L 177 473 L 131 473 Q 91 474 68 466 Q 46 458 40 440 Q 33 423 33 414 Q 33 405 33 403 L 34 374 Q 34 350 34 349 L 35 336 Q 35 328 33 325 Q 32 321 27 316 L 16 306 Q 1 290 0 272 Q 0 255 7 242 L 30 204 Q 34 197 41 179 Q 47 161 47 157 Q 46 154 45 151 L 24 137 Q 18 133 11 119 Q 4 106 6 80 Q 6 68 10 54 Q 13 40 24 29 Q 36 18 64 18 L 128 18 Q 182 18 205 20 Q 228 22 238 31 Q 248 41 252 52 Z M 235 72 Q 234 68 232 62 Q 231 55 224 48 Q 217 40 178 39 L 102 39 H 84 L 70 38 Q 33 49 37 47 Q 26 57 26 74 Q 26 92 27 99 Q 30 112 35 118 Q 40 124 44 126 L 63 129 Q 69 131 71 133 Q 73 135 73 138 Q 73 142 71 151 Q 70 160 70 161 L 59 193 L 57 196 L 32 242 Q 22 261 22 270 Q 22 280 28 288 Q 34 296 37 298 L 53 309 Q 56 314 56 317 L 55 380 L 54 406 Q 55 428 61 435 Q 68 442 75 446 Q 82 450 88 450 L 129 452 H 174 L 184 450 Q 185 447 185 443 Q 186 438 190 421 Q 195 403 199 384 Q 203 365 208 335 Q 213 306 213 279 Q 199 253 215 246 Q 216 239 214 236 Q 213 233 202 226 Q 192 218 188 214 Q 183 211 176 200 L 156 199 Q 153 199 150 196 Q 147 193 149 189 L 162 137 Q 164 132 165 132 L 169 131 L 182 130 Q 183 128 184 128 L 214 94 Z M 364 478 Q 361 470 360 462 Q 358 453 358 438 Q 346 403 375 396 Q 391 390 392 388 L 393 368 Q 394 367 400 367 Q 406 367 408 370 L 408 385 L 408 401 Q 407 403 405 404 L 395 408 Q 387 410 383 418 Q 379 425 380 446 Q 380 464 385 472 Q 389 480 399 481 Q 409 483 435 483 Q 457 484 465 481 Q 473 478 480 470 Q 487 462 487 440 L 490 197 Q 491 161 488 150 Q 485 139 476 136 L 459 134 Q 454 133 454 129 Q 454 127 457 121 Q 460 116 461 112 L 465 99 Q 470 83 470 77 Q 470 67 462 60 Q 455 53 443 52 L 406 50 L 392 49 Q 390 48 386 42 Q 381 37 364 28 Q 347 20 329 22 Q 307 24 286 48 L 250 89 L 213 128 Q 204 137 197 146 Q 191 155 190 171 Q 189 187 202 198 Q 216 210 230 209 Q 240 208 252 200 Q 264 192 268 184 L 270 137 Q 274 118 296 117 H 337 L 349 110 L 366 109 Q 369 109 371 109 Q 374 109 368 122 Q 363 136 359 135 L 307 135 Q 300 135 297 138 Q 293 142 291 149 V 181 Q 291 195 284 204 Q 277 213 258 222 L 236 233 V 265 Q 234 299 233 306 L 229 345 L 220 394 L 209 441 Q 207 453 208 458 Q 211 468 223 475 Q 235 483 260 484 Q 284 484 295 475 Q 305 465 310 442 L 324 372 L 325 368 Q 325 368 328 367 Q 331 366 333 367 Q 335 369 335 373 L 334 391 L 334 460 Q 334 473 364 478 Z" fill="black" />
  </g>
  <g class="defect" id="01">
    <path d="M 213 279 Q 199 253 215 246" fill="none" stroke="red" stroke-width="3" />
  </g>
  <g class="defect" id="02">
    <path d="M 70 38 Q 33 49 37 47" fill="none" stroke="red" stroke-width="3" />
  </g>
  <g class="defect" id="03">
    <path d="M 358 438 Q 346 403 375 396" fill="none" stroke="red" stroke-width="3" />
  </g>
</svg>