<svg xmlns="http://www.w3.org/2000/svg" width="512" height="512" viewBox="0 0 512 512">
  <g class="glyph">
    <path d="M 95 130 Q 95 120 99 117 Q 102 114 113 113 Q 123 111 127 117 Q 129 119 129 123 Q 130 127 130 133 Q 130 139 127 142 Q 123 145 113 146 Q 103 147 99 142 Q 97 140 96 136 Q 95 132 95 130 Z M 110 310 Q 122 309 126 313 Q 130 318 130 326 Q 129 329 128 334 Q 128 339 125 341 Q 123 344 113 345 Q 104 346 100 340 Q 97 337 97 327 V 326 Q 96 324 97 324 Q 97 311 110 310 Z M 96 227 Q 96 218 99 215 Q 102 213 116 211 Q 129 209 129 224 Q 129 225 128 232 Q 127 238 125 240 Q 123 242 114 244 Q 105 245 101 241 Q 97 238 97 233 Q 96 229 96 227 Z M 382 237 V 215 Q 382 209 391 207 Q 400 206 400 225 V 259 Q 400 273 394 274 Q 388 275 385 270 Q 382 265 382 237 Z M 189 12 Q 203 4 217 2 Q 231 1 269 0 L 415 0 Q 466 0 478 3 Q 489 6 496 14 Q 504 21 508 33 Q 512 46 512 62 Q 512 76 508 91 Q 504 107 498 112 L 485 123 Q 490 132 494 141 Q 498 149 500 164 Q 502 179 501 219 L 500 282 Q 499 310 494 347 Q 488 384 478 420 Q 467 455 448 468 Q 429 482 413 488 Q 397 493 383 493 L 346 495 Q 283 498 266 486 Q 249 475 244 462 Q 238 450 237 427 Q 236 411 238 408 L 244 383 Q 232 380 220 372 V 392 Q 220 455 156 455 H 79 Q 56 455 34 448 Q 11 441 6 419 Q 0 398 0 377 V 85 Q 0 62 5 49 Q 10 36 24 22 Q 39 8 68 8 L 160 7 Q 177 7 189 12 Z M 198 350 Q 195 345 193 340 Q 191 335 189 324 Q 187 313 187 296 V 143 L 188 128 L 191 119 Q 191 118 181 103 Q 178 99 175 87 Q 172 76 172 67 Q 172 55 174 45 L 177 33 Q 162 29 138 29 L 130 30 H 70 Q 45 31 35 42 Q 26 52 24 64 Q 22 76 22 134 L 22 375 Q 8 415 26 407 Q 30 416 39 424 Q 49 432 78 432 L 127 434 Q 128 434 135 433 L 157 433 Q 179 432 186 424 Q 193 416 196 412 Q 198 409 198 390 Z M 463 388 Q 469 361 472 345 Q 475 329 478 286 Q 480 244 479 184 Q 479 173 476 149 Q 472 125 433 125 H 412 Q 395 125 393 119 Q 391 113 395 109 Q 398 105 406 105 H 439 Q 458 105 469 102 Q 479 98 484 90 Q 489 81 489 63 Q 490 46 486 38 Q 482 30 474 26 Q 466 21 412 21 L 247 22 H 225 Q 213 23 206 28 Q 198 33 196 43 Q 194 52 193 64 Q 193 76 195 85 Q 200 101 215 102 L 237 99 L 260 100 H 275 Q 283 100 291 104 Q 299 107 302 111 Q 305 115 305 128 V 227 Q 305 266 302 270 Q 299 274 296 274 Q 294 274 289 269 Q 285 264 286 196 L 286 168 Q 286 148 282 133 Q 278 118 249 117 Q 237 117 228 120 Q 218 124 214 130 Q 209 136 209 152 L 208 173 L 209 304 Q 209 319 213 331 Q 216 343 229 351 Q 241 358 258 358 H 342 Q 367 358 373 358 Q 378 358 384 369 Q 390 380 348 380 H 310 Q 293 380 281 383 Q 270 385 264 393 Q 258 401 259 423 Q 259 443 266 458 Q 273 472 304 473 L 351 473 Q 397 474 421 459 Q 446 444 456 412 Z" fill="black" />
  </g>
  <g class="defect" id="01">
    <path d="M 22 375 Q 8 415 26 407" fill="none" stroke="red" stroke-width="3" />
  </g>
</svg>