<svg xmlns="http://www.w3.org/2000/svg" width="512" height="512" viewBox="0 0 512 512">
  <g class="glyph">
    <path d="M 58 445 V 417 Q 58 411 55 406 L 31 395 Q 25 391 18 383 Q 11 375 5 366 Q 0 358 0 339 Q 0 321 8 305 L 18 289 Q 22 283 36 266 Q 49 250 48 247 Q 47 246 46 244 L 32 236 Q 29 235 20 225 Q 10 216 5 204 Q 1 192 1 179 Q 1 162 8 149 L 15 136 Q 19 129 19 124 Q 18 122 12 109 Q 6 96 6 82 Q 6 67 10 55 Q 18 26 53 21 L 182 2 Q 193 0 204 2 Q 215 4 225 11 Q 234 17 242 30 L 251 50 Q 253 55 257 55 Q 262 55 263 53 Q 265 51 269 36 Q 274 22 289 12 Q 304 2 332 1 Q 340 1 355 3 Q 370 5 380 12 Q 389 19 394 25 Q 398 31 401 42 Q 403 53 406 56 Q 408 59 422 59 L 457 61 Q 474 61 486 74 Q 498 86 501 97 Q 504 109 504 122 Q 505 157 492 172 Q 479 188 479 191 Q 479 193 487 207 Q 496 220 495 244 Q 494 259 491 271 Q 500 283 482 292 Q 476 300 467 305 Q 458 309 457 310 Q 456 312 455 313 Q 455 315 458 318 L 485 334 Q 492 339 498 345 Q 504 352 507 357 Q 509 362 510 372 Q 512 383 511 393 Q 508 410 492 433 Q 475 455 446 454 Q 437 454 430 451 L 406 439 Q 401 437 398 440 Q 398 441 398 441 L 391 471 Q 388 481 374 492 Q 361 503 329 502 Q 317 502 302 499 Q 287 496 278 487 Q 269 478 265 466 Q 262 454 261 442 Q 261 430 258 429 Q 255 428 250 432 L 241 439 Q 239 441 229 445 Q 220 449 208 449 Q 197 450 195 451 Q 193 453 192 455 L 184 474 Q 181 481 168 490 Q 155 500 124 500 Q 90 500 74 484 Q 58 468 58 445 Z M 58 41 Q 48 42 40 46 Q 32 50 29 59 Q 26 68 27 78 Q 28 119 54 121 L 79 123 Q 83 125 83 130 Q 83 135 77 139 L 46 141 Q 36 142 31 148 Q 26 154 24 167 Q 22 180 22 186 Q 23 197 27 203 Q 31 208 39 215 Q 47 221 58 223 Q 70 225 73 227 Q 75 229 75 232 Q 76 236 72 242 Q 58 267 57 268 L 38 292 Q 31 302 25 313 Q 20 325 19 334 Q 18 344 24 356 Q 34 381 54 383 Q 75 385 78 388 Q 81 392 81 397 L 80 431 Q 80 450 81 456 Q 82 462 90 471 Q 98 480 126 480 Q 154 480 164 468 Q 168 463 170 455 Q 172 447 172 444 Q 171 440 170 437 Q 170 435 162 423 Q 154 410 151 399 Q 147 388 147 377 Q 147 371 149 366 L 155 344 Q 154 340 149 332 L 129 300 Q 115 279 115 264 Q 116 251 125 240 Q 134 228 145 223 Q 156 217 162 216 L 183 213 Q 188 211 191 208 Q 193 205 198 198 Q 203 192 203 189 Q 202 185 199 181 L 189 170 Q 185 166 181 155 Q 177 144 177 125 Q 177 94 187 80 Q 197 67 204 64 L 223 57 Q 226 54 227 49 Q 228 44 220 34 Q 210 21 200 21 Q 189 21 180 22 Z M 159 314 Q 168 328 175 333 Q 182 338 190 338 Q 201 339 215 329 Q 230 320 229 310 Q 229 308 227 306 Q 226 304 215 300 Q 205 296 198 287 Q 191 278 189 268 L 184 238 Q 184 235 181 233 Q 179 231 166 230 Q 153 230 144 242 Q 135 254 135 263 Q 135 271 139 279 Z M 284 394 282 437 Q 281 460 291 471 Q 301 482 338 482 Q 375 482 375 451 L 376 418 L 375 404 Q 375 404 375 399 Q 375 394 377 391 Q 380 389 383 392 L 406 414 Q 444 450 469 427 Q 494 404 491 380 Q 490 371 485 362 Q 480 354 473 349 L 433 326 Q 423 321 412 311 Q 414 301 399 299 Q 398 296 398 293 Q 398 290 405 290 H 440 Q 471 290 475 245 Q 478 199 438 199 L 389 198 Q 384 198 382 195 Q 380 193 379 187 Q 379 181 382 178 Q 384 175 389 175 L 437 174 Q 454 173 464 171 Q 473 169 478 154 Q 483 139 483 125 Q 483 113 478 97 Q 474 80 451 80 L 401 79 Q 386 79 384 76 Q 382 73 381 69 L 380 47 Q 376 21 335 21 Q 304 21 297 30 Q 290 38 288 54 Q 286 70 285 74 Q 283 77 275 77 L 234 77 Q 216 77 205 87 Q 194 98 195 128 Q 195 144 202 158 Q 208 172 229 172 L 274 173 Q 285 173 285 185 Q 285 196 274 196 H 237 Q 224 196 213 206 Q 202 216 203 244 Q 204 269 213 278 Q 222 287 239 287 Q 256 288 257 290 Q 259 291 259 292 Q 260 294 252 306 L 246 322 Q 241 332 224 344 Q 208 356 194 357 Q 180 358 173 360 Q 166 362 166 373 Q 166 385 169 394 Q 173 409 183 418 Q 193 428 207 429 Q 221 430 242 415 Q 258 405 266 396 Q 275 388 280 386 Q 284 385 284 394 Z" fill="black" />
  </g>
  <g class="defect" id="01">
    <path d="M 412 311 Q 414 301 399 299" fill="none" stroke="red" stroke-width="3" />
  </g>
  <g class="defect" id="02">
    <path d="M 491 271 Q 500 283 482 292" fill="none" stroke="red" stroke-width="3" />
  </g>
</svg>