<svg xmlns="http://www.w3.org/2000/svg" width="512" height="512" viewBox="0 0 512 512">
  <g class="glyph">
    <path d="M 121 313 122 280 Q 122 267 125 263 Q 128 259 135 259 Q 143 259 145 266 Q 147 274 147 283 Q 146 293 147 319 V 335 Q 147 337 146 342 Q 146 347 143 351 Q 140 354 134 354 Q 128 354 124 350 Q 120 347 121 321 V 313 Z M 6 246 25 211 Q 46 170 45 163 Q 44 156 42 153 L 21 140 Q 10 133 5 116 Q 1 99 1 83 Q 1 66 6 53 Q 13 34 27 28 Q 41 21 64 21 L 146 22 Q 201 22 211 30 L 227 43 Q 234 47 242 47 L 247 47 Q 253 47 256 46 Q 259 45 263 41 L 273 25 Q 279 16 294 9 Q 309 1 336 1 Q 362 0 373 4 Q 383 7 393 13 Q 402 19 408 31 Q 413 43 415 45 Q 418 46 421 46 L 451 49 Q 475 51 488 64 Q 501 78 503 89 Q 505 101 506 138 Q 507 175 498 188 L 485 208 L 478 235 L 472 248 Q 471 251 471 253 Q 471 256 472 258 L 485 278 Q 487 282 489 292 Q 491 302 492 311 Q 492 320 488 337 Q 487 342 486 345 L 478 358 Q 477 360 477 362 Q 476 364 479 367 L 497 381 Q 502 386 507 398 Q 512 410 512 427 Q 512 438 508 454 Q 504 470 493 483 Q 481 496 457 497 L 441 498 L 429 498 L 380 497 Q 372 497 347 492 Q 322 486 306 477 Q 290 468 285 469 Q 283 469 281 470 L 265 482 Q 251 493 233 494 Q 223 495 206 488 Q 188 482 183 478 L 168 469 Q 165 467 161 466 Q 157 465 124 465 H 89 Q 63 463 47 446 Q 31 429 31 403 L 31 377 L 32 352 L 31 343 Q 30 326 29 323 Q 13 321 25 317 L 13 306 Q 0 292 0 275 Q 0 257 6 246 Z M 180 367 196 325 Q 199 316 203 296 Q 206 275 209 265 Q 213 255 213 251 Q 212 249 211 246 L 202 227 L 197 209 Q 195 205 188 198 Q 180 190 178 188 Q 175 187 166 186 Q 157 185 155 183 Q 153 182 153 177 Q 152 173 156 160 L 161 139 Q 162 136 164 134 L 174 128 Q 196 125 177 110 Q 178 95 179 91 Q 180 86 182 80 Q 184 75 193 64 Q 202 53 200 49 Q 198 45 182 45 L 148 44 L 75 43 Q 52 43 45 44 Q 39 46 34 51 Q 29 55 27 67 Q 25 79 24 96 Q 24 113 34 122 Q 39 127 47 129 L 62 131 Q 67 132 70 134 Q 72 136 73 143 Q 73 149 70 159 L 60 190 L 57 199 L 43 226 L 29 250 Q 23 263 23 273 Q 24 290 38 299 L 48 306 Q 55 311 55 317 L 53 389 Q 52 420 64 432 Q 76 444 99 444 L 128 444 Q 144 444 147 441 Q 149 438 151 429 Q 153 419 157 412 Z M 212 342 210 349 195 385 181 413 Q 174 427 175 435 Q 175 443 183 451 Q 191 459 204 466 Q 217 472 231 471 Q 248 470 259 459 L 274 438 Q 276 437 279 435 Q 282 434 301 450 Q 308 456 322 462 Q 336 468 348 471 Q 360 473 375 474 Q 390 476 435 476 Q 465 476 476 465 Q 488 455 488 418 Q 488 381 448 380 L 410 380 Q 390 380 387 376 Q 384 373 384 367 Q 385 356 398 356 L 425 355 Q 440 355 450 352 Q 460 349 464 337 Q 468 325 468 311 Q 469 298 466 291 Q 462 278 453 274 Q 445 271 425 271 L 398 270 Q 391 270 388 267 Q 385 263 385 255 Q 385 248 398 247 L 428 247 Q 442 247 450 239 Q 459 231 459 222 Q 458 219 457 217 Q 455 215 453 215 L 424 212 Q 408 211 398 202 Q 388 193 385 184 L 381 168 Q 378 162 368 162 L 323 161 Q 304 161 299 165 L 290 187 Q 287 195 276 203 Q 265 211 247 213 Q 228 215 226 218 Q 225 221 225 228 Q 225 235 238 236 Q 240 237 251 235 Q 262 234 265 233 Q 276 233 292 239 Q 309 245 320 256 Q 330 266 330 282 Q 330 299 328 309 Q 319 348 314 351 Q 309 355 305 351 Q 301 347 300 344 Q 300 342 302 332 L 308 302 Q 309 296 309 286 Q 309 276 299 264 Q 300 272 268 253 Q 247 253 239 260 Q 231 267 229 274 Z M 307 141 370 141 Q 390 141 394 143 Q 398 144 401 147 L 404 169 Q 405 177 413 185 Q 421 193 442 194 Q 462 194 473 182 Q 479 176 482 167 Q 484 157 484 135 Q 484 113 483 106 Q 481 90 475 83 Q 468 76 457 72 Q 446 69 424 69 Q 403 69 399 68 Q 394 68 393 66 Q 391 64 391 63 L 386 44 Q 384 39 374 31 Q 364 23 338 22 Q 313 22 299 33 Q 293 38 291 44 L 286 62 Q 282 68 277 68 L 236 70 Q 219 71 208 81 Q 197 91 197 118 L 197 150 Q 196 175 205 185 Q 213 195 234 195 Q 255 195 262 188 Q 270 180 272 172 L 274 155 Q 275 148 279 144 Q 282 141 307 141 Z" fill="black" />
  </g>
  <g class="defect" id="01">
    <path d="M 299 264 Q 300 272 268 253" fill="none" stroke="red" stroke-width="3" />
  </g>
  <g class="defect" id="02">
    <path d="M 174 128 Q 196 125 177 110" fill="none" stroke="red" stroke-width="3" />
  </g>
  <g class="defect" id="03">
    <path d="M 29 323 Q 13 321 25 317" fill="none" stroke="red" stroke-width="3" />
  </g>
</svg>