<svg xmlns="http://www.w3.org/2000/svg" width="512" height="512" viewBox="0 0 512 512">
  <g class="glyph">
    <path d="M 245 157 Q 245 147 256 147 Q 267 146 271 150 Q 275 154 275 160 Q 275 167 259 166 Q 248 166 246 162 Q 245 158 245 157 Z M 311 256 Q 311 247 327 247 Q 345 248 345 253 Q 345 259 343 261 Q 340 265 324 265 Q 313 265 312 261 Q 310 257 311 256 Z M 382 160 Q 382 151 393 150 Q 405 150 408 154 Q 412 158 412 164 Q 412 170 396 170 Q 385 170 383 166 Q 381 161 382 160 Z M 311 308 Q 311 299 327 299 Q 345 299 345 305 Q 345 311 343 313 Q 340 317 324 317 Q 313 317 312 313 Q 310 309 311 308 Z M 500 96 Q 500 106 498 111 Q 497 117 495 122 L 483 139 Q 481 143 481 145 L 480 177 L 478 185 Q 478 187 478 189 Q 478 192 479 194 L 487 210 Q 491 220 490 235 Q 489 245 487 251 L 475 272 Q 474 274 474 283 Q 474 292 474 292 Q 474 296 475 300 L 488 318 Q 492 327 491 342 Q 490 356 486 364 L 474 379 Q 472 383 472 386 Q 471 389 475 394 L 488 407 Q 497 418 497 441 Q 497 465 473 488 Q 449 512 414 492 L 374 471 Q 370 469 366 471 L 357 478 Q 354 480 346 483 Q 338 486 331 487 L 248 497 Q 229 499 219 497 Q 209 495 200 488 Q 191 482 191 478 L 186 458 Q 181 461 175 459 Q 172 470 164 486 Q 156 501 111 501 Q 75 501 63 489 Q 52 477 49 468 Q 46 459 46 455 L 47 419 V 381 Q 47 378 47 372 Q 47 366 46 364 Q 44 362 35 356 Q 25 351 21 347 Q 16 343 8 330 Q 0 317 0 303 Q 0 290 3 282 Q 5 273 16 261 L 49 221 Q 36 218 28 214 Q 20 210 12 198 Q 3 186 2 162 Q 1 138 8 125 Q 15 111 25 106 Q 34 100 50 99 Q 43 84 40 75 Q 37 65 37 54 Q 37 42 43 32 Q 48 22 58 14 Q 68 6 82 3 Q 97 0 109 3 Q 119 5 126 10 Q 133 15 143 31 Q 153 47 164 73 Q 165 65 166 58 Q 155 51 174 42 Q 180 33 186 33 L 206 29 L 239 29 Q 258 29 263 26 L 279 13 Q 294 0 331 2 Q 366 3 381 15 L 392 26 Q 397 30 401 30 H 443 Q 483 30 492 48 Q 501 66 501 71 L 500 96 Z M 204 273 Q 207 279 209 283 Q 212 287 214 299 Q 220 300 229 301 Q 237 303 239 305 Q 240 307 240 309 Q 240 315 232 315 L 213 316 Q 209 338 190 355 Q 199 357 207 358 Q 215 359 216 362 Q 217 366 212 367 L 185 379 Q 173 384 169 391 Q 166 398 167 406 Q 167 415 169 422 Q 171 429 174 435 Q 178 441 182 439 Q 184 439 186 433 Q 188 427 192 420 Q 196 414 200 408 Q 216 418 210 404 Q 215 404 219 407 Q 222 411 218 417 Q 217 417 212 422 Q 207 426 205 431 Q 203 435 204 443 Q 204 451 206 458 Q 209 466 215 473 Q 222 479 244 476 L 319 467 Q 342 464 349 457 Q 355 449 355 436 Q 354 423 347 416 Q 340 408 331 408 L 302 409 Q 296 410 294 407 Q 293 405 292 403 Q 292 400 294 397 Q 295 396 305 388 Q 315 381 319 382 Q 320 382 324 385 Q 329 388 330 388 L 350 393 Q 369 402 373 421 Q 377 440 378 443 Q 380 445 386 451 Q 392 457 413 468 Q 434 480 444 478 Q 462 477 470 460 Q 477 443 477 433 Q 477 427 474 422 Q 471 416 465 413 L 451 406 Q 449 405 448 403 Q 447 401 446 399 Q 446 398 448 391 Q 450 384 450 378 Q 450 372 443 364 Q 440 361 431 355 Q 421 349 410 350 Q 407 351 405 352 L 386 361 Q 384 361 383 358 Q 381 356 381 353 Q 381 350 388 342 Q 396 334 414 333 Q 425 333 434 337 L 459 354 Q 462 356 464 356 Q 466 356 470 352 Q 474 349 474 339 Q 474 330 469 325 Q 464 319 456 319 L 431 318 Q 421 317 419 315 Q 417 313 417 311 Q 416 308 419 306 Q 420 304 435 303 Q 450 301 453 297 Q 457 292 457 284 Q 457 273 448 268 L 421 264 Q 417 262 417 260 Q 417 257 419 255 Q 421 253 424 252 L 454 251 Q 461 251 466 246 Q 471 241 471 227 Q 472 213 454 212 L 425 211 Q 420 211 419 209 Q 418 207 418 205 Q 417 204 419 202 Q 421 200 431 199 Q 442 197 449 195 Q 456 192 458 182 Q 460 171 460 159 Q 460 147 460 143 Q 458 133 451 125 Q 443 118 422 118 H 374 Q 362 118 351 121 Q 341 123 339 133 Q 336 143 336 155 Q 336 167 336 172 Q 337 182 340 188 L 345 198 Q 346 200 346 202 Q 346 204 343 207 Q 340 210 327 211 Q 315 212 312 208 Q 309 204 310 199 L 317 190 Q 321 186 321 175 L 320 159 V 146 Q 319 131 311 124 Q 303 116 258 116 Q 221 116 209 122 Q 197 129 198 159 Q 198 171 200 182 Q 203 194 220 196 Q 237 198 239 202 Q 240 206 230 209 Q 227 210 213 210 Q 199 210 195 214 Q 191 216 190 221 Q 188 225 188 229 Q 187 233 190 241 Q 193 248 206 248 L 232 249 Q 237 250 239 252 Q 241 254 241 257 Q 241 260 239 262 Q 237 264 232 265 L 216 266 Q 208 268 204 273 Z M 359 101 400 101 428 101 Q 449 100 459 107 Q 470 114 473 113 Q 483 111 482 83 Q 481 76 479 65 Q 477 53 450 53 L 407 52 Q 383 52 380 49 L 372 34 Q 363 23 329 24 Q 296 24 288 35 L 281 48 Q 277 51 272 51 H 222 Q 202 51 197 53 Q 191 55 186 60 Q 180 65 179 79 Q 179 93 179 96 Q 179 99 181 104 Q 182 109 184 110 Q 187 111 192 110 Q 194 109 200 106 Q 206 104 212 102 Q 218 100 234 99 Q 299 97 313 105 Q 327 113 330 113 Q 331 112 334 111 L 343 106 Q 351 102 359 101 Z M 154 248 Q 161 236 168 224 Q 174 213 184 185 Q 181 179 180 171 Q 178 164 182 139 L 182 132 Q 176 129 170 125 Q 165 133 160 140 Q 154 146 141 155 Q 127 163 113 162 Q 99 161 90 157 Q 81 152 75 142 L 60 119 Q 36 120 31 125 Q 27 130 25 137 Q 23 145 22 155 Q 22 165 25 175 Q 27 184 33 191 Q 39 197 50 198 L 77 199 Q 86 199 87 201 Q 88 203 82 210 L 38 266 L 28 279 Q 21 288 21 299 Q 20 309 29 323 Q 36 335 51 340 Q 65 345 66 347 Q 67 349 67 354 Q 68 359 68 365 L 66 437 Q 66 460 74 469 Q 83 479 109 479 Q 132 480 143 471 Q 154 462 154 455 L 156 442 Q 150 431 149 426 Q 147 420 147 407 Q 147 395 149 391 L 153 382 L 154 346 Q 165 344 174 338 Q 182 331 186 323 Q 191 315 191 306 Q 192 296 190 290 Q 188 284 182 277 Q 176 270 154 248 Z M 70 94 85 123 Q 91 134 106 139 Q 121 144 134 134 Q 147 125 150 113 Q 154 102 151 93 Q 147 84 140 70 L 123 41 Q 111 21 91 23 Q 76 24 69 31 Q 61 38 58 46 Q 55 53 57 63 Q 59 73 70 94 Z" fill="black" />
  </g>
  <g class="defect" id="01">
    <path d="M 200 408 Q 216 418 210 404" fill="none" stroke="red" stroke-width="3" />
  </g>
  <g class="defect" id="02">
    <path d="M 166 58 Q 155 51 174 42" fill="none" stroke="red" stroke-width="3" />
  </g>
</svg>