<svg xmlns="http://www.w3.org/2000/svg" width="512" height="512" viewBox="0 0 512 512">
  <g class="glyph">
    <path d="M 175 182 Q 189 181 193 185 Q 197 189 198 196 Q 198 203 194 206 Q 191 209 177 210 Q 159 211 153 205 Q 148 199 151 195 L 154 186 Q 155 183 175 182 Z M 291 197 Q 292 191 295 187 Q 299 184 316 183 Q 335 183 338 187 Q 342 190 342 197 Q 342 203 338 208 Q 334 212 317 211 Q 299 211 296 208 Q 293 206 292 202 Q 291 198 291 197 Z M 216 11 250 10 297 7 371 2 Q 395 0 413 1 Q 430 1 446 17 Q 463 32 464 70 Q 449 71 453 103 Q 443 117 443 118 Q 443 121 454 135 Q 464 149 464 176 V 211 Q 464 230 463 234 Q 462 238 460 248 Q 458 257 458 259 Q 458 261 459 263 Q 461 266 473 276 Q 486 286 491 300 Q 495 315 495 322 L 496 359 L 495 431 Q 495 472 482 486 Q 469 500 452 505 Q 436 510 421 510 L 376 510 Q 349 510 340 507 Q 331 505 323 500 Q 315 495 309 486 L 297 464 Q 295 461 292 458 Q 289 456 258 457 L 174 459 Q 153 459 150 460 Q 148 461 145 464 L 134 487 Q 130 494 118 502 Q 105 510 68 511 Q 32 512 15 494 Q 6 486 3 475 Q 0 464 0 426 L 0 358 Q 0 323 3 307 Q 6 292 17 280 L 34 266 Q 39 261 40 258 Q 40 254 39 251 L 34 237 Q 33 231 33 224 L 33 182 Q 32 165 35 156 L 45 129 Q 45 128 45 127 Q 46 124 37 108 Q 28 92 29 74 Q 29 59 33 47 Q 38 36 47 27 Q 56 17 68 16 Q 81 14 128 13 Z M 472 402 472 331 Q 471 324 469 312 Q 467 300 456 291 Q 445 283 433 282 Q 428 282 419 284 Q 410 286 406 286 L 353 286 L 313 285 L 310 285 Q 301 286 297 283 Q 293 279 292 273 Q 292 266 307 266 L 389 265 Q 417 265 427 255 Q 437 246 439 225 V 186 Q 439 171 439 170 Q 437 132 397 130 L 360 128 H 322 Q 298 128 296 125 Q 293 122 293 115 Q 293 109 309 108 L 397 106 Q 415 105 422 101 Q 428 98 434 90 Q 439 81 439 70 Q 440 58 435 44 Q 431 35 425 29 Q 418 23 407 23 Q 396 22 379 23 L 306 29 Q 275 31 258 31 L 226 32 L 193 34 L 95 34 Q 71 35 62 44 Q 52 53 53 74 Q 53 91 60 100 Q 67 109 70 109 L 76 109 L 135 108 L 178 109 Q 189 109 192 111 Q 196 113 197 120 Q 198 127 181 127 H 128 Q 82 127 73 136 Q 65 144 60 152 Q 56 161 56 171 L 57 218 Q 57 240 68 252 Q 80 264 113 264 Q 146 265 171 264 Q 195 263 195 270 Q 195 277 193 280 Q 190 284 170 284 L 109 284 L 77 282 L 67 280 Q 66 280 64 280 Q 24 282 23 338 L 23 392 V 439 Q 23 468 33 478 Q 43 488 72 488 Q 102 488 110 479 Q 116 472 117 463 Q 118 454 118 452 Q 118 450 113 433 Q 108 416 107 400 Q 107 384 110 377 Q 114 359 126 352 Q 137 345 166 342 Q 195 340 195 348 Q 195 356 192 358 Q 190 360 188 361 L 156 363 Q 144 365 137 372 Q 130 378 129 398 Q 128 418 139 428 Q 145 434 154 435 Q 162 436 198 435 L 282 435 Q 293 435 299 429 L 309 412 Q 313 406 321 401 Q 328 397 335 396 L 351 394 Q 357 392 359 383 Q 361 374 345 351 Q 339 342 333 336 Q 326 330 308 329 Q 289 329 277 338 Q 273 342 271 345 L 268 355 Q 265 360 259 360 Q 253 360 250 357 Q 247 353 246 344 Q 246 336 257 325 Q 265 317 285 312 Q 305 307 315 308 Q 324 308 334 313 Q 345 317 354 325 Q 363 332 371 350 Q 378 367 382 379 Q 386 391 386 398 Q 386 405 382 410 Q 380 413 356 414 Q 331 415 327 427 Q 323 439 322 447 Q 322 455 322 458 Q 323 471 333 479 Q 343 487 369 487 L 417 487 Q 446 487 458 476 Q 470 466 471 444 Z" fill="black" />
  </g>
  <g class="defect" id="01">
    <path d="M 464 70 Q 449 71 453 103" fill="none" stroke="red" stroke-width="3" />
  </g>
</svg>