<svg xmlns="http://www.w3.org/2000/svg" width="512" height="512" viewBox="0 0 512 512">
  <g class="glyph">
    <path d="M 206 228 303 228 Q 328 229 331 232 Q 333 234 334 240 Q 334 245 313 245 L 189 243 Q 164 243 162 240 Q 160 238 160 233 Q 159 229 176 228 Z M 276 212 216 210 181 211 Q 165 211 163 208 Q 160 205 160 203 Q 159 201 162 198 Q 164 195 201 195 L 282 196 L 316 196 Q 321 196 322 196 Q 328 196 331 199 Q 333 202 333 206 Q 333 211 315 211 Z M 321 2 Q 332 4 337 6 L 361 21 Q 364 22 385 22 H 432 Q 464 22 479 35 Q 493 49 493 76 Q 492 96 483 109 Q 474 121 464 124 L 442 131 Q 440 132 438 134 Q 436 136 436 140 Q 436 143 438 152 Q 439 155 440 160 Q 441 166 441 170 L 441 204 Q 441 218 447 223 L 466 231 Q 476 235 481 243 Q 487 251 489 258 Q 492 265 492 278 Q 492 287 491 291 L 483 316 L 494 335 Q 497 343 497 357 Q 497 371 487 388 Q 478 403 463 409 Q 448 416 446 419 Q 444 422 444 427 Q 444 429 445 438 Q 446 447 446 449 Q 446 452 440 474 Q 434 496 396 500 Q 371 504 345 489 Q 319 475 316 476 Q 312 476 310 478 Q 308 480 301 491 Q 294 502 279 506 Q 265 510 244 511 Q 223 512 204 511 Q 169 509 159 498 L 148 487 Q 111 499 97 498 Q 76 498 63 487 Q 51 475 46 462 Q 42 449 42 440 Q 42 438 42 436 Q 43 434 44 428 Q 45 422 45 420 Q 45 419 43 416 L 24 404 Q 21 402 10 389 Q 0 377 0 355 Q 0 345 4 337 Q 7 330 11 324 Q 15 318 15 316 L 7 286 Q 6 283 6 271 Q 6 260 18 243 Q 24 234 32 230 L 49 224 Q 53 222 56 219 Q 59 216 58 197 L 59 164 Q 58 158 57 156 Q 55 153 53 152 L 35 142 Q 24 135 18 125 Q 11 114 11 102 Q 10 90 19 74 L 34 51 Q 48 28 60 15 Q 71 1 108 1 Q 135 0 153 11 L 168 20 Q 172 22 174 22 L 227 24 Q 229 24 234 23 Q 238 23 242 21 L 255 10 Q 264 5 287 0 Z M 338 269 377 268 Q 407 267 413 247 Q 418 227 418 204 Q 418 180 417 170 Q 414 158 407 159 L 378 163 Q 351 167 334 157 L 313 144 L 286 150 Q 282 151 278 151 Q 275 151 263 150 Q 252 150 243 146 L 225 139 Q 222 138 219 138 Q 216 138 212 141 L 200 151 L 182 159 Q 181 160 181 161 Q 181 162 184 164 Q 187 165 228 165 H 291 Q 320 165 326 166 Q 333 167 334 172 Q 334 176 331 179 Q 329 182 312 182 L 235 181 Q 169 181 164 179 Q 160 177 159 175 L 160 163 Q 159 162 157 161 L 130 158 L 108 152 Q 107 152 105 152 Q 90 152 85 157 Q 80 163 80 179 V 204 Q 80 227 84 247 Q 88 267 124 268 L 183 269 Q 191 269 192 276 Q 192 284 185 286 Q 180 288 164 286 L 118 285 Q 95 283 84 275 Q 74 267 68 259 Q 62 250 60 249 Q 58 247 51 247 Q 45 246 37 254 Q 29 261 28 277 Q 28 293 37 301 Q 40 304 43 305 L 76 309 Q 77 311 77 314 Q 78 316 64 321 L 41 328 Q 32 331 27 338 Q 22 345 22 359 Q 22 372 31 381 Q 40 391 48 390 Q 51 390 53 388 Q 55 387 58 381 L 64 366 Q 66 362 73 356 Q 81 350 94 349 L 116 349 Q 122 348 125 344 L 138 326 Q 142 321 151 315 L 176 298 L 186 290 Q 189 289 205 287 Q 221 285 222 285 Q 225 285 233 287 Q 241 288 248 292 L 266 302 L 300 296 Q 302 296 304 296 Q 314 297 322 301 L 350 317 Q 352 318 362 318 Q 372 317 384 321 Q 396 325 410 341 L 427 359 L 444 380 Q 449 387 454 387 Q 458 387 463 382 Q 468 377 471 369 Q 474 361 474 355 Q 474 347 469 340 Q 464 333 456 329 L 435 320 Q 425 316 426 314 Q 426 311 427 310 L 454 305 Q 468 301 468 282 Q 469 262 459 252 Q 449 242 436 252 L 423 268 Q 407 286 359 286 L 315 287 Q 295 287 291 285 Q 286 283 286 280 Q 286 276 290 272 Q 295 268 304 268 Z M 206 101 218 70 224 58 Q 224 55 224 53 Q 224 46 213 44 L 159 43 Q 154 42 152 40 L 142 30 Q 131 23 104 23 Q 78 24 67 40 L 45 74 Q 32 96 33 104 Q 34 112 43 122 Q 53 133 75 133 Q 98 134 110 123 L 124 111 Q 131 107 135 110 Q 139 113 140 117 Q 140 120 135 128 Q 130 135 132 137 Q 132 137 139 140 Q 145 143 157 143 Q 165 144 178 141 Q 192 137 195 131 Q 199 125 201 117 Q 203 108 206 101 Z M 148 399 97 415 Q 82 420 75 426 Q 68 432 66 444 Q 64 456 72 465 Q 80 475 91 477 Q 102 480 118 474 L 141 466 Q 140 452 140 441 Q 141 431 146 421 Q 152 411 167 401 Q 160 398 157 398 Q 153 398 148 399 Z M 287 459 287 435 Q 286 435 287 422 Q 287 409 302 395 Q 317 380 330 380 Q 344 379 361 387 L 385 399 Q 408 410 416 409 Q 425 407 426 398 Q 427 389 415 374 Q 396 351 386 344 Q 376 337 365 336 Q 354 336 346 341 Q 338 346 335 350 L 326 363 Q 323 366 317 366 Q 311 366 311 356 Q 311 347 317 338 Q 323 330 323 327 Q 323 325 318 320 Q 313 316 301 315 Q 288 315 276 324 L 255 339 Q 237 351 233 346 Q 229 342 229 340 Q 229 338 231 334 L 240 324 Q 243 320 243 317 Q 243 314 238 309 Q 233 304 221 303 Q 208 303 199 307 Q 190 311 170 323 Q 150 335 150 345 Q 150 345 150 346 L 152 360 Q 149 366 140 366 L 111 367 Q 97 367 92 368 Q 87 369 82 374 Q 77 378 77 389 Q 76 399 86 400 Q 90 400 101 397 L 115 392 L 139 384 Q 148 381 155 381 Q 167 381 177 387 L 191 396 Q 207 407 205 414 Q 204 416 184 415 Q 164 415 161 438 Q 158 461 164 471 Q 170 480 181 484 Q 193 488 232 489 Q 272 489 279 481 Q 287 472 287 466 Q 287 459 287 459 Z M 257 38 243 66 Q 233 85 231 92 Q 228 98 228 103 Q 228 112 236 122 Q 244 131 268 132 Q 291 134 302 124 L 316 113 Q 321 110 326 114 L 332 128 Q 340 144 370 145 Q 391 145 400 139 Q 409 133 411 128 L 417 111 Q 419 109 426 108 L 449 106 Q 468 101 469 80 Q 469 59 461 51 Q 456 47 449 45 Q 443 44 429 44 Q 416 44 410 44 Q 403 44 354 44 Q 351 45 347 44 Q 344 43 341 40 L 333 31 Q 325 23 300 22 Q 277 21 269 27 Q 261 32 257 38 Z M 402 424 375 414 342 399 Q 327 395 317 405 Q 325 410 309 417 Q 306 424 306 429 Q 306 437 312 445 Q 318 453 349 467 Q 379 481 393 479 Q 404 478 413 469 Q 422 461 422 447 Q 422 432 402 424 Z" fill="black" />
  </g>
  <g class="defect" id="01">
    <path d="M 317 405 Q 325 410 309 417" fill="none" stroke="red" stroke-width="3" />
  </g>
</svg>