<svg xmlns="http://www.w3.org/2000/svg" width="512" height="512" viewBox="0 0 512 512">
  <g class="glyph">
    <path d="M 42 184 Q 23 179 16 167 Q 9 154 9 139 L 8 95 Q 8 60 23 47 Q 39 34 83 33 L 153 32 Q 173 32 174 31 Q 176 30 183 18 Q 190 7 207 3 Q 224 0 246 0 Q 272 1 286 4 Q 299 7 307 12 Q 314 18 317 24 Q 320 31 322 32 Q 323 34 340 34 L 421 34 Q 450 35 466 42 Q 482 49 487 63 Q 491 77 491 95 L 490 137 Q 490 149 487 158 Q 485 167 481 173 Q 484 180 485 187 Q 487 195 485 210 Q 483 223 480 228 Q 476 232 470 237 Q 464 243 462 246 Q 461 250 461 266 V 276 L 463 318 L 468 366 L 474 395 Q 477 409 482 421 L 489 439 Q 491 448 491 456 Q 491 475 481 484 Q 471 494 459 499 Q 447 505 434 505 Q 420 505 414 501 Q 408 497 406 495 L 397 485 Q 392 482 384 480 L 361 481 L 314 483 H 306 Q 279 510 264 506 L 231 501 Q 224 505 219 507 Q 213 508 201 506 Q 190 504 187 502 Q 184 500 175 491 L 168 483 Q 137 486 132 485 L 93 484 Q 87 492 81 497 Q 75 503 59 507 Q 43 512 19 496 Q 7 489 3 480 Q 0 472 0 463 Q 17 454 2 447 Q 4 440 13 413 Q 23 386 27 357 Q 31 329 33 301 Q 36 274 37 250 Q 38 227 38 212 Q 38 197 40 193 L 42 184 Z M 469 123 V 83 Q 469 66 457 61 Q 446 56 387 55 L 310 54 Q 305 54 304 54 Q 302 53 301 50 L 300 41 Q 298 30 287 26 Q 277 21 240 21 Q 219 21 213 22 Q 208 24 204 28 Q 201 31 198 37 L 195 49 Q 194 51 193 52 Q 192 53 183 53 L 111 52 Q 67 52 56 53 Q 46 54 38 62 Q 31 70 30 89 L 30 127 Q 30 127 30 138 Q 30 149 37 157 Q 44 165 54 166 Q 64 168 76 167 Q 90 167 101 164 Q 111 162 114 153 Q 117 144 116 136 Q 116 128 117 126 Q 118 123 126 118 L 143 105 Q 161 91 182 91 Q 198 92 212 100 Q 225 108 232 117 Q 238 126 239 126 Q 241 127 248 127 Q 263 127 264 126 Q 265 125 273 111 Q 281 97 308 96 Q 321 95 327 98 Q 334 100 357 112 L 372 118 Q 378 122 381 125 Q 383 129 382 137 Q 381 145 381 146 Q 381 172 429 171 Q 439 171 453 168 Q 466 165 467 153 Q 469 141 469 123 Z M 236 156 Q 245 161 255 171 Q 261 165 266 161 Q 264 156 263 152 Q 262 148 260 147 Q 259 146 254 145 Q 249 145 244 145 Q 240 144 240 144 L 236 156 Z M 224 173 Q 204 190 183 205 Q 163 219 151 224 Q 139 228 127 229 Q 101 230 92 220 Q 84 210 69 187 L 63 187 Q 60 193 58 198 Q 56 203 56 222 Q 55 242 55 258 Q 54 274 51 302 Q 49 331 47 345 Q 45 358 41 380 Q 37 402 33 414 L 23 440 Q 18 455 19 464 Q 19 473 23 477 Q 27 482 35 485 Q 44 489 52 488 Q 66 487 68 482 L 78 466 Q 71 451 71 443 Q 70 435 73 423 Q 74 418 76 415 Q 77 412 84 405 Q 90 399 93 394 Q 95 390 95 383 L 96 262 Q 96 257 97 251 Q 98 244 104 243 Q 110 243 111 253 Q 111 255 110 260 Q 110 264 110 269 Q 111 275 110 296 L 109 381 L 109 399 Q 109 407 106 411 L 96 418 Q 86 426 89 444 Q 93 470 114 468 L 143 467 Q 176 466 182 463 Q 188 460 192 456 Q 196 451 197 443 Q 198 435 191 419 Q 181 399 175 393 Q 170 388 161 388 Q 156 388 150 390 Q 145 393 142 395 Q 140 398 139 401 L 138 411 Q 137 415 131 415 Q 125 415 125 403 Q 125 389 135 382 L 148 375 Q 151 371 151 367 L 146 267 Q 145 247 150 243 Q 154 239 157 242 Q 160 246 161 249 L 163 339 Q 164 368 166 370 Q 168 372 178 377 Q 187 383 197 401 Q 207 418 209 426 Q 211 433 212 441 Q 214 449 213 453 Q 212 458 207 463 Q 203 468 201 469 L 191 477 Q 190 478 190 480 Q 190 482 193 486 Q 197 490 205 490 Q 226 491 235 478 Q 243 466 243 455 Q 243 452 242 447 L 238 434 L 229 403 L 224 375 L 218 329 L 216 286 Q 216 277 215 263 Q 215 249 217 240 Q 218 235 219 233 L 230 224 Q 232 222 234 217 Q 236 211 236 203 Q 236 199 235 193 Q 234 188 232 183 Q 229 178 224 173 Z M 463 186 Q 452 190 430 192 Q 425 193 424 195 Q 422 196 419 205 Q 415 213 398 224 Q 381 234 357 225 Q 333 217 312 203 Q 290 189 277 176 Q 271 183 269 188 Q 268 193 267 210 L 266 220 L 265 257 Q 265 263 261 302 Q 257 340 256 346 Q 255 353 251 373 Q 247 393 245 402 Q 246 407 246 409 L 256 441 Q 259 450 259 461 Q 259 472 248 487 Q 264 491 273 485 Q 282 480 293 468 Q 288 458 286 451 Q 285 444 286 433 Q 286 424 289 415 Q 291 407 299 401 L 307 395 Q 309 392 310 381 L 311 261 Q 311 246 312 243 Q 313 239 317 235 Q 320 231 325 236 Q 327 239 327 247 L 327 263 Q 327 265 327 276 Q 327 286 327 296 L 326 380 L 325 398 Q 324 405 322 407 L 313 413 Q 308 417 305 425 Q 303 433 304 444 Q 306 457 312 463 Q 318 468 338 467 L 376 464 Q 409 462 415 456 Q 422 451 422 442 Q 423 433 416 418 Q 405 398 399 393 Q 393 387 384 387 Q 370 386 365 392 Q 359 397 359 400 L 358 410 Q 357 412 356 413 Q 355 414 352 414 Q 349 414 346 412 Q 343 409 343 399 Q 343 389 354 382 L 368 374 Q 371 370 371 366 L 367 266 Q 365 239 370 234 Q 374 228 378 234 Q 382 240 382 249 L 385 339 Q 386 367 388 369 Q 391 371 401 377 Q 412 382 422 397 Q 431 412 436 425 Q 441 437 440 444 Q 440 450 436 457 Q 433 464 425 470 Q 417 475 416 476 Q 415 477 415 479 Q 414 481 418 485 Q 423 489 432 489 Q 438 489 456 484 Q 473 480 473 465 Q 474 450 473 446 L 462 415 L 452 374 L 446 328 L 444 286 Q 443 280 443 264 Q 443 248 445 240 Q 446 235 448 233 L 459 224 Q 461 222 464 217 Q 466 212 466 203 Q 466 197 463 186 Z M 237 356 Q 238 352 239 342 Q 241 331 245 298 Q 248 265 249 250 Q 250 235 250 224 V 218 Q 248 223 247 227 Q 246 230 240 235 Q 235 241 234 242 Q 233 243 232 248 Q 231 253 231 263 Q 231 273 232 276 L 233 318 Z M 91 185 Q 97 196 100 200 Q 104 203 111 207 Q 118 210 126 210 Q 141 211 162 195 L 192 174 Q 202 167 209 158 Q 217 149 218 140 Q 219 131 207 119 Q 194 108 180 109 Q 174 109 171 110 Q 168 111 152 121 Q 137 130 135 133 Q 134 136 134 146 Q 135 155 130 163 Q 126 171 118 176 Q 111 181 91 185 Z M 313 112 Q 302 112 293 119 Q 285 126 283 133 Q 282 140 282 147 Q 281 155 294 166 Q 299 172 315 183 Q 332 193 347 201 Q 362 210 374 210 Q 387 209 397 200 Q 408 190 404 187 Q 404 186 398 186 Q 393 185 385 183 Q 378 180 371 175 Q 364 169 363 157 L 361 142 Q 360 136 356 132 Q 352 129 336 121 Q 320 113 313 112 Z" fill="black" />
  </g>
  <g class="defect" id="01">
    <path d="M 0 463 Q 17 454 2 447" fill="none" stroke="red" stroke-width="3" />
  </g>
</svg>