<svg xmlns="http://www.w3.org/2000/svg" width="512" height="512" viewBox="0 0 512 512">
  <g class="glyph">
    <path d="M 85 268 Q 82 266 75 259 Q 69 252 67 250 L 43 226 Q 27 211 17 197 Q 7 183 4 175 Q 1 166 5 150 Q 9 135 19 123 Q 7 105 6 87 Q 4 69 7 53 Q 9 37 15 28 Q 21 19 29 13 Q 37 7 48 4 Q 60 1 65 1 L 103 0 L 238 1 L 263 4 L 289 2 L 377 1 Q 437 1 458 5 Q 479 10 491 23 Q 504 36 508 53 Q 511 69 512 89 L 512 150 L 511 417 Q 511 439 504 473 Q 498 508 432 508 H 398 Q 366 508 355 507 Q 345 506 335 502 Q 326 498 320 493 L 303 478 Q 301 475 298 475 Q 277 484 282 488 Q 275 496 261 501 Q 248 506 239 506 L 206 506 L 156 506 Q 137 506 129 503 Q 120 501 110 494 Q 100 488 94 476 L 83 446 Q 68 423 80 441 Q 78 440 62 437 Q 47 434 27 422 Q 7 409 4 385 Q 0 360 0 353 Q 0 338 5 328 Q 10 318 21 308 Q 33 298 45 291 L 74 276 L 80 272 L 85 268 Z M 98 248 Q 119 269 127 272 Q 136 275 146 271 Q 154 269 164 262 Q 173 254 179 242 L 180 238 Q 181 234 182 227 Q 183 220 177 213 L 164 196 L 160 190 L 123 147 L 103 125 Q 82 108 67 117 L 57 122 L 35 142 Q 28 156 28 162 Q 28 168 32 176 Q 35 184 43 191 Z M 103 285 54 313 Q 37 322 31 332 Q 25 343 25 364 Q 24 386 39 400 Q 54 415 69 414 Q 75 414 78 412 Q 82 410 84 407 L 95 388 Q 101 378 111 373 Q 120 367 130 366 L 154 364 L 175 357 Q 181 357 182 372 Q 182 387 171 387 L 142 388 Q 128 388 118 399 Q 108 409 108 434 Q 108 446 114 464 Q 119 483 149 483 L 201 482 Q 240 482 258 478 Q 276 474 277 450 Q 277 427 272 419 L 255 403 Q 249 396 241 382 Q 233 368 231 349 Q 230 330 234 321 Q 238 310 253 299 Q 268 287 273 281 Q 277 275 279 265 L 278 232 L 279 216 Q 250 186 247 175 Q 244 163 246 152 Q 248 141 252 134 Q 234 115 232 98 Q 231 82 231 74 Q 231 61 234 49 Q 237 37 236 34 Q 236 31 233 28 Q 230 25 219 24 L 81 24 Q 51 24 40 34 Q 29 45 29 76 Q 29 96 33 104 L 36 109 Q 51 98 61 95 Q 70 93 81 93 Q 95 94 106 101 Q 117 107 130 120 L 135 126 L 159 127 Q 170 128 173 131 Q 177 135 178 141 Q 179 147 179 150 V 174 Q 184 181 191 190 Q 197 198 201 205 Q 206 212 208 223 Q 210 234 202 250 Q 199 258 185 275 Q 171 292 147 296 Q 124 301 113 292 L 103 285 Z M 310 116 Q 301 116 284 131 Q 267 146 268 160 Q 268 169 274 178 Q 280 188 318 224 Q 355 260 366 261 Q 377 262 388 254 Q 399 247 404 239 Q 410 232 410 225 Q 411 217 407 207 Q 404 202 397 194 L 371 164 Q 345 133 333 125 Q 320 117 310 116 Z M 269 115 Q 285 102 295 99 Q 306 96 318 96 Q 330 97 333 99 L 370 123 L 381 122 Q 389 122 392 125 Q 395 127 394 138 L 394 153 Q 416 179 425 192 Q 433 206 435 217 Q 437 229 430 242 Q 427 249 413 264 Q 399 280 379 283 Q 359 287 345 279 Q 345 279 338 274 L 328 267 L 298 291 L 279 305 Q 266 315 261 324 Q 255 333 255 351 Q 255 368 269 385 Q 296 382 293 399 Q 296 399 299 397 L 313 380 Q 315 378 324 373 Q 332 369 338 368 L 365 365 Q 368 365 372 363 L 386 354 Q 388 352 391 354 Q 393 357 393 361 Q 392 366 393 374 Q 393 382 389 385 Q 386 388 376 389 L 349 390 Q 337 390 328 399 Q 320 409 319 429 Q 319 449 323 460 Q 326 467 332 474 Q 338 480 350 482 Q 361 483 396 483 L 433 484 Q 461 483 474 470 Q 487 457 487 433 L 488 95 Q 488 74 487 63 Q 486 51 476 41 Q 466 30 453 27 Q 440 25 398 25 H 301 Q 277 25 270 32 Q 263 39 259 49 Q 254 59 254 75 Q 254 102 269 115 Z" fill="black" />
  </g>
  <g class="defect" id="01">
    <path d="M 269 385 Q 296 382 293 399" fill="none" stroke="red" stroke-width="3" />
  </g>
  <g class="defect" id="02">
    <path d="M 83 446 Q 68 423 80 441" fill="none" stroke="red" stroke-width="3" />
  </g>
  <g class="defect" id="03">
    <path d="M 298 475 Q 277 484 282 488" fill="none" stroke="red" stroke-width="3" />
  </g>
</svg>