<svg xmlns="http://www.w3.org/2000/svg" width="512" height="512" viewBox="0 0 512 512">
  <g class="glyph">
    <path d="M 162 477 88 493 Q 42 503 23 485 Q 13 477 9 458 Q 4 440 5 424 Q 5 409 9 401 Q 12 392 20 384 Q 27 376 28 373 Q 28 371 21 358 Q 14 346 15 327 Q 16 316 18 309 Q 21 302 30 286 Q 39 271 43 265 Q 47 259 46 257 Q 45 255 30 252 Q 15 249 8 234 Q 0 220 0 203 Q 1 190 5 178 Q 9 167 18 147 L 51 74 Q 58 58 66 44 Q 73 30 85 23 Q 96 16 114 16 Q 131 17 149 24 Q 167 32 174 43 Q 181 55 181 67 L 180 75 Q 191 67 221 62 L 233 60 Q 233 51 235 39 Q 237 27 255 15 Q 272 4 299 2 Q 329 0 343 8 Q 358 17 363 24 Q 369 31 372 38 Q 375 46 377 47 Q 378 48 392 46 L 417 44 Q 441 41 461 48 Q 481 55 484 101 Q 485 127 478 137 L 474 144 L 476 170 Q 485 175 493 182 Q 502 190 503 211 Q 504 231 501 247 Q 497 263 493 271 L 486 282 Q 489 285 492 290 Q 495 294 497 308 Q 499 323 499 327 Q 500 331 498 355 Q 497 366 494 371 Q 491 376 491 377 Q 491 378 498 384 Q 504 389 507 399 Q 510 408 511 419 Q 512 429 505 450 Q 498 475 484 490 Q 471 506 445 506 L 378 504 Q 359 504 343 502 Q 328 500 319 483 Q 311 466 308 466 Q 305 465 297 471 Q 247 506 209 505 Q 199 505 188 501 Q 178 497 162 477 Z M 219 200 Q 250 193 256 191 Q 261 188 262 186 Q 263 183 259 176 Q 255 170 254 169 Q 253 167 234 171 L 230 172 Q 226 186 221 196 Z M 215 373 Q 223 373 231 373 Q 238 373 239 376 Q 239 380 237 382 Q 233 387 222 393 Q 222 397 223 402 Q 223 406 223 418 Q 223 430 218 441 Q 213 451 206 458 Q 198 464 184 470 Q 197 482 211 483 Q 222 484 248 474 Q 273 464 290 446 Q 306 428 306 419 L 307 378 Q 307 375 309 373 Q 312 370 316 370 Q 320 370 323 373 Q 326 376 326 379 L 327 438 Q 327 449 333 466 Q 340 482 364 483 L 432 484 Q 459 484 466 477 Q 473 469 478 461 Q 482 454 486 443 Q 491 432 489 418 Q 487 405 480 398 Q 474 391 461 385 Q 448 379 439 381 Q 427 382 420 392 L 413 404 Q 408 409 402 409 Q 398 408 396 407 Q 394 405 394 402 Q 394 399 398 392 L 403 382 Q 415 359 440 359 Q 444 359 448 359 L 466 363 Q 467 363 467 363 Q 474 363 476 355 Q 478 347 478 332 Q 478 318 477 312 Q 476 306 475 305 L 471 298 Q 460 305 443 313 Q 426 322 397 322 Q 369 322 356 318 Q 344 314 319 299 Q 275 318 256 320 Q 237 322 224 322 Q 221 332 215 341 Q 208 351 208 354 Q 208 357 215 373 Z M 186 103 Q 202 108 216 120 Q 230 132 231 144 L 232 153 L 238 152 L 256 148 Q 268 146 272 155 L 280 177 Q 285 191 284 197 Q 282 203 258 210 Q 233 217 225 219 Q 217 221 212 224 Q 207 226 203 232 Q 200 237 200 241 L 199 253 Q 215 262 221 273 Q 227 284 227 295 L 227 301 Q 232 302 236 302 Q 240 302 259 298 Q 278 293 289 289 L 315 278 Q 319 277 322 277 Q 327 277 344 288 Q 360 299 387 301 Q 405 302 433 297 Q 462 292 471 272 Q 480 252 482 241 Q 484 230 484 216 Q 484 201 474 193 Q 463 185 446 184 Q 431 184 420 189 Q 410 193 407 198 Q 405 202 401 212 Q 398 222 392 218 Q 387 213 388 203 Q 389 194 394 185 Q 398 176 417 169 Q 436 163 456 167 Q 457 160 457 157 Q 457 153 453 143 Q 450 133 441 126 Q 432 120 424 119 Q 415 119 403 125 Q 391 131 383 139 Q 374 148 368 143 Q 363 138 368 130 Q 369 127 376 121 Q 384 115 393 109 Q 403 103 419 102 Q 427 101 439 105 Q 451 109 454 114 L 462 125 Q 463 123 463 121 Q 464 119 464 114 Q 463 100 462 91 Q 461 81 455 70 Q 450 60 429 62 L 390 66 L 358 71 Q 356 69 354 53 Q 352 37 343 31 Q 334 25 319 23 Q 305 22 291 23 Q 274 26 267 32 Q 259 38 256 46 Q 253 54 255 63 Q 256 73 255 74 Q 253 76 239 78 L 210 83 Q 195 86 191 92 Q 187 97 186 103 Z M 113 165 131 130 152 93 Q 158 80 158 70 Q 158 60 149 50 Q 140 39 114 39 Q 101 39 94 43 Q 87 48 78 70 L 29 176 Q 26 185 24 191 Q 22 198 24 206 Q 25 219 32 226 Q 39 233 53 234 Q 54 234 54 234 L 81 233 Q 85 234 86 236 L 77 251 L 47 303 Q 43 311 41 317 Q 39 323 37 340 Q 36 357 65 358 Q 73 358 91 355 Q 108 352 143 347 Q 178 342 184 339 Q 190 336 198 327 Q 205 318 205 302 Q 220 289 200 282 Q 195 276 187 271 Q 178 266 174 267 L 157 269 L 201 187 Q 211 166 210 156 Q 209 146 203 139 Q 197 132 186 127 Q 174 121 166 123 Q 158 124 153 129 Q 149 135 142 148 Q 134 162 128 165 Q 123 167 113 165 Z M 124 462 169 452 Q 186 448 194 438 Q 202 427 202 408 Q 202 387 193 378 Q 184 370 169 370 L 134 376 L 55 390 Q 41 392 35 399 Q 30 406 28 413 Q 27 419 26 437 Q 26 455 35 464 Q 45 472 58 474 Q 68 475 124 462 Z" fill="black" />
  </g>
  <g class="defect" id="01">
    <path d="M 205 302 Q 220 289 200 282" fill="none" stroke="red" stroke-width="3" />
  </g>
</svg>