<svg xmlns="http://www.w3.org/2000/svg" width="512" height="512" viewBox="0 0 512 512">
  <g class="glyph">
    <path d="M 128 101 Q 128 96 131 92 Q 134 89 148 89 Q 159 90 162 93 Q 165 96 165 101 Q 164 106 162 109 Q 160 111 157 111 H 144 L 140 112 Q 139 112 139 112 Q 129 112 128 107 Q 127 102 128 101 Z M 238 100 Q 238 95 240 93 Q 242 92 245 91 L 261 90 Q 265 90 270 90 Q 274 90 274 101 Q 274 106 272 109 Q 269 112 258 113 Q 247 114 242 109 Q 239 107 238 104 Q 237 102 238 100 Z M 349 102 Q 349 93 367 91 Q 386 90 386 101 Q 385 106 382 109 Q 379 112 369 113 Q 358 113 353 110 Q 351 108 349 106 Q 348 103 349 102 Z M 96 454 58 455 Q 22 456 11 439 Q 0 422 0 398 Q 1 373 11 357 Q 21 342 21 339 Q 21 338 18 332 Q 16 325 15 316 Q 13 307 14 302 Q 14 297 15 292 L 22 271 L 11 245 Q 8 237 8 225 Q 8 200 15 192 Q 22 183 28 180 Q 34 176 35 174 Q 36 172 31 160 Q 28 153 27 141 Q 26 128 26 80 Q 26 66 29 45 Q 31 24 51 13 Q 71 2 85 1 Q 100 0 159 0 L 401 0 Q 435 1 449 7 Q 464 14 476 26 Q 487 38 489 58 L 489 71 L 490 81 L 489 134 Q 489 147 483 160 Q 478 173 479 176 Q 479 177 480 179 L 496 195 Q 504 205 504 232 Q 503 246 500 255 L 491 273 Q 491 275 491 275 Q 490 276 491 277 Q 496 290 497 295 Q 498 301 498 306 Q 499 312 499 314 Q 499 319 496 333 Q 493 347 493 347 Q 494 349 495 351 L 504 364 Q 512 376 512 399 Q 512 423 498 437 Q 490 446 479 449 Q 469 452 417 452 Q 402 453 395 453 Q 388 454 386 455 Q 385 456 384 459 L 377 476 Q 372 489 359 497 Q 347 504 318 504 Q 289 505 261 491 Q 247 499 237 503 Q 226 507 200 507 Q 181 508 165 504 Q 149 501 141 491 Q 134 482 132 474 L 130 461 Q 129 457 127 455 Q 125 453 118 453 L 96 454 Z M 246 223 Q 246 203 245 191 Q 243 179 236 172 Q 229 164 201 163 Q 173 163 165 172 Q 163 174 162 176 L 158 189 Q 157 191 155 194 Q 153 196 130 196 H 84 L 58 196 Q 43 197 36 203 Q 29 209 29 225 Q 29 242 37 249 Q 45 256 69 256 L 128 255 Q 147 255 153 257 Q 159 258 159 266 Q 158 278 140 278 L 79 277 Q 50 277 42 285 Q 34 293 36 310 Q 38 338 68 338 H 140 Q 148 338 151 341 Q 154 344 154 348 Q 154 351 149 356 Q 144 362 129 362 L 64 362 Q 36 363 30 371 Q 24 378 24 389 Q 23 400 25 411 Q 26 420 30 424 Q 33 429 38 430 Q 42 431 62 431 L 129 430 Q 144 430 147 433 Q 149 435 150 438 Q 151 440 151 455 Q 152 469 158 477 Q 165 484 174 486 Q 183 487 201 487 Q 217 487 225 485 Q 233 483 237 478 Q 242 473 243 461 Q 244 449 245 419 Z M 390 23 314 23 209 22 H 116 Q 81 22 65 30 Q 49 38 49 64 L 48 134 Q 48 152 58 163 Q 69 174 89 174 L 117 174 Q 131 175 136 171 L 148 156 Q 160 143 205 143 Q 240 160 239 149 Q 256 155 259 154 Q 260 154 262 154 L 281 146 Q 292 143 314 143 Q 358 144 372 158 Q 385 172 388 174 Q 390 175 404 174 L 417 174 Q 444 173 454 164 Q 463 155 465 138 Q 467 122 467 91 Q 467 61 464 51 Q 455 25 424 24 Z M 412 429 450 428 Q 471 428 480 420 Q 489 413 488 394 Q 487 380 478 372 Q 470 364 450 364 H 397 Q 372 364 368 364 Q 364 363 361 361 Q 359 358 359 350 Q 359 342 376 342 L 431 342 Q 461 342 468 334 Q 475 327 475 313 Q 475 285 450 284 L 410 284 Q 374 284 369 284 Q 364 283 362 281 Q 359 278 360 273 Q 360 262 375 262 H 440 Q 465 262 473 254 Q 482 246 482 228 Q 481 218 478 211 Q 474 204 468 200 Q 463 197 438 197 L 389 197 Q 366 197 363 192 L 356 177 Q 347 164 309 164 Q 286 165 280 171 Q 275 177 272 182 Q 269 187 269 257 L 268 433 Q 268 463 276 472 Q 285 481 315 481 Q 329 481 338 478 Q 347 475 352 470 Q 357 464 358 454 L 358 441 Q 359 435 361 432 Q 364 429 375 429 H 412 Z" fill="black" />
  </g>
  <g class="defect" id="01">
    <path d="M 205 143 Q 240 160 239 149" fill="none" stroke="red" stroke-width="3" />
  </g>
</svg>