<svg xmlns="http://www.w3.org/2000/svg" width="512" height="512" viewBox="0 0 512 512">
  <g class="glyph">
    <path d="M 225 367 Q 225 358 244 357 Q 264 355 264 366 Q 263 369 260 372 Q 258 375 243 376 Q 228 377 226 372 Q 224 368 225 367 Z M 226 313 Q 226 305 244 305 Q 260 306 262 308 Q 264 311 265 317 Q 265 323 246 323 Q 232 323 229 320 Q 226 318 226 313 Z M 50 115 50 96 Q 50 91 49 76 Q 49 60 51 52 Q 54 34 68 19 Q 82 5 122 4 Q 148 4 163 11 L 182 21 Q 185 23 188 23 Q 191 23 194 21 L 208 10 Q 220 1 237 0 Q 248 0 261 4 Q 274 8 289 18 Q 304 29 307 28 Q 309 28 310 27 L 329 16 Q 345 7 377 8 Q 399 8 414 15 Q 428 22 437 30 Q 446 39 446 59 L 444 167 V 212 L 445 273 Q 445 307 446 315 Q 447 323 452 325 L 478 335 Q 482 337 490 343 Q 498 350 505 359 Q 512 369 512 383 Q 512 396 510 403 L 499 443 Q 498 445 492 458 L 485 475 Q 479 483 465 493 Q 451 502 427 502 H 391 Q 358 502 352 501 L 335 496 L 310 501 Q 306 501 290 502 Q 275 502 270 501 Q 260 501 250 499 Q 241 497 236 494 Q 231 491 230 490 Q 230 490 213 495 Q 197 500 191 501 Q 169 502 153 493 Q 137 483 134 484 Q 132 485 130 486 L 116 494 Q 104 501 89 502 Q 69 503 36 488 Q 3 473 2 454 Q 0 436 0 431 Q 1 419 17 382 Q 33 344 38 318 Q 43 292 46 264 Q 49 237 49 218 L 50 115 Z M 70 119 70 164 Q 71 188 68 230 Q 65 272 63 289 Q 61 306 55 329 Q 50 352 42 372 L 26 413 Q 9 438 20 434 Q 20 448 33 462 Q 46 476 64 479 Q 82 482 88 482 Q 111 481 120 465 Q 129 449 131 440 Q 133 431 133 406 V 297 Q 133 278 135 272 Q 137 265 140 258 Q 143 251 143 251 Q 143 250 136 237 Q 130 224 129 217 Q 129 210 131 203 Q 132 195 135 190 L 147 171 Q 148 169 149 166 Q 149 164 148 161 L 135 142 Q 129 132 129 119 Q 129 106 139 94 L 158 70 Q 173 51 172 45 Q 171 40 164 31 Q 157 23 121 24 Q 90 25 80 36 Q 70 46 70 65 Z M 176 237 245 238 Q 272 239 301 237 Q 330 236 337 229 Q 343 223 344 214 Q 344 205 340 195 L 330 179 Q 324 168 323 167 L 318 160 Q 312 153 307 149 Q 303 145 287 145 Q 269 145 262 153 Q 254 160 253 166 L 253 178 Q 251 184 246 184 Q 242 184 238 180 Q 234 177 234 168 Q 234 154 247 141 Q 260 127 288 127 Q 295 127 308 131 Q 321 134 323 134 Q 328 133 333 128 Q 339 122 339 111 Q 339 99 330 89 Q 309 86 316 79 Q 305 73 290 73 Q 276 74 266 84 L 246 105 Q 239 112 236 108 Q 232 105 231 101 Q 230 96 242 85 L 257 68 Q 263 63 273 58 Q 283 54 285 49 Q 288 44 279 36 Q 271 29 259 25 Q 230 3 240 21 Q 228 21 219 28 Q 209 35 186 63 Q 163 91 155 101 Q 147 112 148 123 Q 149 134 158 143 L 173 159 Q 176 164 174 167 L 155 190 Q 147 201 147 211 Q 147 221 155 229 Q 163 237 176 237 Z M 337 441 338 349 Q 338 342 338 328 Q 338 314 338 304 Q 338 294 337 288 Q 335 272 327 264 Q 319 255 304 255 Q 290 254 276 254 L 228 253 Q 172 252 164 262 Q 155 271 153 281 Q 150 291 150 316 V 392 L 151 438 Q 151 464 158 472 Q 165 481 187 481 Q 208 481 215 473 Q 217 469 218 463 L 220 431 Q 223 418 231 409 Q 240 400 253 400 Q 262 401 262 404 Q 262 408 261 410 L 247 418 Q 234 426 237 451 Q 238 467 244 472 Q 249 478 255 480 Q 262 482 284 482 Q 307 482 322 476 Q 337 471 337 441 Z M 425 246 426 66 Q 426 23 364 28 Q 341 29 332 38 Q 324 46 324 52 Q 324 58 330 64 L 339 71 Q 359 88 359 112 Q 358 120 357 125 Q 355 130 348 141 Q 341 152 341 155 Q 341 157 342 158 L 357 190 Q 362 202 362 215 Q 362 227 355 240 Q 347 253 348 255 Q 348 256 352 265 Q 356 274 356 288 L 355 407 Q 355 434 353 452 Q 351 471 351 472 Q 351 476 353 479 Q 356 482 362 483 Q 368 483 399 483 Q 423 484 431 483 Q 439 482 449 477 Q 460 472 464 467 Q 468 463 473 453 Q 478 442 485 418 Q 493 394 492 385 Q 491 374 482 363 Q 474 352 458 349 Q 442 347 435 347 Q 423 347 418 350 Q 412 354 409 358 L 400 377 Q 396 382 392 381 Q 387 381 385 379 Q 383 377 383 374 Q 383 371 385 366 Q 387 357 390 353 L 395 348 Q 403 339 404 338 L 415 331 Q 424 323 424 316 Z" fill="black" />
  </g>
  <g class="defect" id="01">
    <path d="M 259 25 Q 230 3 240 21" fill="none" stroke="red" stroke-width="3" />
  </g>
  <g class="defect" id="02">
    <path d="M 330 89 Q 309 86 316 79" fill="none" stroke="red" stroke-width="3" />
  </g>
  <g class="defect" id="03">
    <path d="M 26 413 Q 9 438 20 434" fill="none" stroke="red" stroke-width="3" />
  </g>
</svg>