<svg xmlns="http://www.w3.org/2000/svg" width="512" height="512" viewBox="0 0 512 512">
  <g class="glyph">
    <path d="M 450 128 Q 457 144 457 159 Q 457 165 453 176 Q 449 186 449 186 Q 450 189 451 190 Q 453 192 466 195 Q 480 199 489 208 Q 498 218 498 240 Q 499 261 486 273 L 475 283 Q 474 284 473 286 Q 473 288 477 292 L 488 301 Q 499 312 500 328 Q 500 345 490 360 Q 487 364 485 366 L 468 381 Q 466 384 465 390 L 464 400 L 458 429 Q 448 481 427 495 Q 407 510 356 510 H 266 Q 228 510 216 504 Q 204 499 201 495 L 193 485 Q 189 481 185 481 Q 183 481 180 482 L 164 489 Q 129 503 106 508 Q 82 512 72 511 Q 49 510 37 491 Q 26 471 27 448 Q 27 432 36 421 Q 44 409 65 402 Q 87 396 86 393 Q 86 390 86 389 Q 85 387 64 389 Q 43 390 30 377 Q 16 365 11 351 Q 6 337 7 325 Q 8 309 17 299 L 28 289 Q 31 286 31 283 Q 31 282 30 281 Q 30 280 20 274 Q 10 268 7 255 Q 4 243 5 232 Q 6 216 13 207 Q 19 198 31 193 Q 43 189 45 187 Q 47 186 47 184 Q 48 181 47 169 Q 45 157 48 147 Q 50 140 52 137 L 58 129 H 51 Q 34 129 17 117 Q 0 106 1 77 Q 2 31 56 30 L 86 29 Q 94 29 100 27 L 115 14 Q 125 6 142 4 Q 158 1 170 1 Q 186 1 202 4 Q 218 8 224 13 L 242 27 Q 246 29 250 29 Q 255 29 259 27 L 277 12 Q 293 1 327 0 Q 343 0 361 3 Q 379 7 389 17 Q 399 26 401 27 Q 403 29 411 29 L 453 30 Q 504 33 505 62 Q 507 91 501 102 Q 495 113 485 119 Q 476 125 450 128 Z M 395 111 H 436 Q 463 111 470 106 Q 477 101 480 93 Q 483 86 483 80 Q 482 67 473 59 Q 464 51 453 49 Q 441 47 397 48 Q 385 49 382 47 Q 380 45 379 44 L 374 35 Q 366 22 331 21 Q 305 21 296 25 Q 288 30 286 33 L 279 45 Q 277 47 275 47 Q 273 48 250 49 Q 227 50 223 46 Q 221 45 221 44 L 216 34 Q 214 32 205 27 Q 196 22 173 22 Q 147 22 137 27 Q 128 31 126 33 L 119 45 Q 115 49 108 48 L 69 48 Q 53 48 36 51 Q 19 53 22 82 Q 22 89 27 100 Q 33 111 61 111 L 111 112 Q 115 112 116 112 Q 117 113 125 125 Q 132 136 165 136 Q 177 137 188 135 Q 198 134 206 132 Q 213 130 218 122 Q 223 114 224 113 Q 226 111 234 111 H 271 Q 276 111 278 113 Q 281 115 285 122 Q 289 128 296 132 Q 303 135 327 135 Q 337 136 347 134 Q 358 133 364 131 Q 370 128 373 125 L 379 116 Q 382 113 384 112 Q 387 111 395 111 Z M 422 128 H 410 Q 400 128 399 128 Q 397 129 387 142 Q 376 154 333 154 Q 312 154 299 153 Q 286 151 282 148 Q 278 144 264 131 L 241 132 Q 236 135 232 140 Q 227 145 215 150 Q 203 154 177 155 Q 152 156 134 153 Q 117 150 106 135 Q 85 136 75 142 Q 66 148 66 164 Q 66 178 79 188 Q 92 197 143 196 Q 195 195 197 198 Q 200 200 201 207 Q 203 213 191 213 L 149 214 L 104 210 L 69 206 Q 57 205 42 205 Q 26 204 26 223 Q 26 242 29 249 Q 35 266 54 266 L 85 267 Q 94 267 95 270 Q 97 274 81 282 L 50 299 Q 37 306 31 317 Q 26 327 31 343 Q 36 356 46 363 Q 56 370 69 372 Q 82 373 87 368 Q 92 362 93 359 Q 93 357 90 346 Q 86 336 86 331 Q 86 327 88 317 Q 90 306 92 302 Q 95 297 105 289 Q 114 281 136 281 H 162 Q 174 281 177 279 L 189 270 Q 194 268 199 271 Q 201 273 202 275 L 204 292 Q 209 310 253 310 Q 274 311 283 305 Q 292 299 294 292 L 298 275 Q 301 270 306 270 Q 309 270 311 271 L 320 278 Q 322 280 327 281 L 363 285 Q 373 287 382 295 Q 390 302 391 312 L 392 325 Q 393 329 395 331 Q 397 333 412 334 Q 426 335 433 338 Q 440 341 450 349 Q 461 357 463 356 Q 465 356 471 351 Q 477 345 477 335 Q 478 324 475 319 Q 472 312 467 308 Q 461 303 458 302 L 427 287 Q 410 279 412 273 Q 413 268 422 268 L 449 269 Q 475 267 476 238 Q 478 209 445 208 L 325 206 Q 302 206 300 203 Q 298 201 299 197 Q 299 192 309 191 L 371 186 Q 393 185 406 182 Q 419 180 427 173 Q 419 166 435 154 Q 436 137 422 128 Z M 138 478 165 468 Q 180 462 183 453 L 186 440 Q 188 433 197 425 Q 206 417 217 413 Q 229 409 230 408 Q 231 407 232 405 L 233 388 Q 233 384 238 374 Q 243 364 250 364 Q 257 364 259 371 Q 259 371 257 380 Q 255 388 255 390 Q 255 398 261 403 Q 266 408 284 408 L 329 409 Q 340 409 340 414 Q 320 419 337 422 Q 333 425 326 425 L 249 425 Q 210 426 208 448 Q 206 471 218 480 Q 224 486 237 487 Q 249 488 271 488 L 344 489 Q 383 489 393 487 Q 403 484 412 478 Q 421 471 428 454 Q 435 436 439 413 Q 443 390 443 384 Q 441 370 432 362 Q 422 354 402 353 Q 383 352 378 350 Q 373 349 371 347 Q 369 344 369 341 L 370 317 Q 368 311 362 308 Q 357 304 334 302 Q 328 302 323 303 Q 319 304 316 306 L 305 317 Q 299 324 278 328 Q 257 332 245 332 Q 222 332 207 325 Q 193 318 189 313 L 182 304 Q 178 300 166 301 Q 139 302 130 302 Q 122 303 117 306 Q 112 310 109 316 Q 106 323 106 333 Q 106 344 112 351 Q 115 355 119 357 L 137 363 Q 138 365 139 366 Q 140 366 140 369 Q 140 371 138 375 Q 130 390 118 396 Q 106 403 88 412 L 68 422 Q 55 428 51 433 Q 47 439 46 446 Q 45 454 48 464 Q 51 474 57 482 Q 63 490 79 490 Q 86 491 107 486 Q 129 481 138 478 Z" fill="black" />
  </g>
  <g class="defect" id="01">
    <path d="M 427 173 Q 419 166 435 154" fill="none" stroke="red" stroke-width="3" />
  </g>
  <g class="defect" id="02">
    <path d="M 340 414 Q 320 419 337 422" fill="none" stroke="red" stroke-width="3" />
  </g>
</svg>