<svg xmlns="http://www.w3.org/2000/svg" width="512" height="512" viewBox="0 0 512 512">
  <g class="glyph">
    <path d="M 282 380 327 380 Q 347 380 354 382 Q 360 383 360 390 Q 349 382 357 402 Q 354 406 348 406 L 294 405 Q 244 405 240 404 Q 236 403 234 400 Q 231 398 231 392 Q 231 387 234 384 Q 236 381 245 381 Q 254 380 282 380 Z M 34 191 62 176 Q 76 168 77 166 Q 78 165 79 163 Q 79 162 77 160 Q 75 158 62 158 Q 49 158 38 155 Q 28 152 17 141 Q 7 131 4 112 Q 0 93 3 78 Q 8 48 25 38 Q 42 28 59 28 L 84 27 Q 98 27 105 23 L 119 11 Q 120 -9 165 0 Q 186 0 200 3 Q 214 7 224 16 Q 216 25 237 27 Q 241 29 253 28 Q 258 28 261 26 L 282 11 Q 296 2 332 1 Q 367 1 384 16 Q 392 25 396 27 Q 399 29 412 29 L 443 30 Q 494 31 498 67 Q 502 103 498 119 Q 493 136 481 147 Q 469 158 454 159 L 429 161 Q 424 162 423 164 Q 421 166 422 173 Q 422 177 422 178 L 426 187 Q 428 191 428 197 Q 428 203 424 220 Q 422 226 421 228 L 418 233 L 411 246 L 392 270 Q 389 273 389 276 Q 389 279 393 280 Q 395 281 418 281 Q 441 280 461 300 Q 480 320 481 352 L 481 399 Q 481 438 477 459 Q 474 481 456 496 Q 438 512 396 512 L 222 511 Q 173 511 157 507 Q 141 502 129 493 Q 118 483 114 473 Q 109 462 109 457 L 105 433 Q 103 428 98 427 Q 94 427 86 429 Q 79 430 72 431 Q 53 434 44 431 Q 34 427 24 416 Q 14 406 7 390 Q 0 374 0 356 Q 0 339 5 330 Q 9 321 14 317 L 30 304 Q 34 301 34 299 Q 34 297 33 294 L 21 277 Q 17 272 12 260 Q 8 248 8 236 Q 8 223 15 210 Q 22 198 34 191 Z M 58 320 Q 34 326 28 334 Q 23 342 22 354 Q 22 366 28 381 Q 42 419 78 409 L 118 398 Q 133 394 147 388 Q 160 382 163 378 Q 166 375 167 368 L 169 327 Q 172 280 245 281 L 309 281 Q 334 282 344 279 Q 354 276 374 254 Q 395 232 400 221 Q 405 210 405 200 Q 405 182 395 172 Q 385 162 375 160 Q 365 158 327 158 H 268 Q 261 158 257 155 L 246 140 Q 235 125 207 127 Q 179 130 169 136 L 60 202 Q 38 215 34 222 Q 31 229 30 244 Q 30 259 47 276 Q 64 292 82 291 Q 96 291 102 286 Q 108 281 109 279 Q 110 278 108 269 Q 106 259 105 253 Q 104 247 117 234 Q 123 228 144 215 Q 165 202 189 202 Q 206 202 224 214 Q 241 226 242 226 L 266 230 Q 267 231 268 233 Q 270 235 258 242 Q 241 252 235 247 L 208 229 Q 199 223 177 224 Q 155 225 143 238 Q 131 251 131 260 Q 131 266 134 271 L 144 286 Q 144 287 145 291 Q 145 295 131 299 Z M 125 137 156 119 Q 177 106 205 106 Q 232 106 245 113 Q 259 120 262 123 L 276 135 Q 282 138 289 138 L 437 138 L 446 139 Q 453 139 465 133 Q 476 126 477 98 Q 478 70 468 61 Q 458 52 439 52 L 407 51 Q 381 51 377 45 L 371 36 Q 362 25 330 24 Q 297 23 289 34 L 279 47 Q 276 50 271 50 L 241 50 Q 223 51 219 47 L 211 34 Q 202 23 169 22 Q 137 22 129 32 L 119 46 Q 116 48 109 49 L 54 49 Q 41 52 35 58 Q 28 64 23 89 Q 17 114 31 126 Q 46 138 68 138 Z M 386 490 Q 414 492 436 484 Q 457 477 458 442 L 459 383 Q 459 361 456 343 Q 453 324 446 316 Q 439 308 429 305 Q 420 303 386 303 L 250 302 Q 207 302 199 312 Q 191 321 189 342 L 188 385 Q 188 391 186 394 Q 184 397 177 400 L 144 413 Q 135 417 131 421 Q 128 426 129 440 Q 133 488 174 488 Z" fill="black" />
  </g>
  <g class="defect" id="01">
    <path d="M 119 11 Q 120 -9 165 0" fill="none" stroke="red" stroke-width="3" />
  </g>
  <g class="defect" id="02">
    <path d="M 224 16 Q 216 25 237 27" fill="none" stroke="red" stroke-width="3" />
  </g>
  <g class="defect" id="03">
    <path d="M 360 390 Q 349 382 357 402" fill="none" stroke="red" stroke-width="3" />
  </g>
</svg>