<svg xmlns="http://www.w3.org/2000/svg" width="512" height="512" viewBox="0 0 512 512">
  <g class="glyph">
    <path d="M 18 294 Q 12 291 8 286 Q 5 282 3 271 Q 1 261 1 248 L 0 214 Q 0 200 2 187 Q 4 175 11 166 Q 17 156 29 148 Q 11 144 5 129 Q 0 113 0 96 Q 0 79 2 70 Q 7 51 19 42 Q 32 34 55 33 L 90 33 Q 98 33 100 31 Q 102 30 110 15 Q 118 0 164 0 Q 211 1 220 16 Q 229 31 231 33 Q 233 34 253 34 Q 273 33 274 32 Q 275 32 281 23 Q 286 15 298 10 Q 311 5 338 4 Q 362 4 378 8 Q 395 12 401 23 Q 407 33 407 34 Q 408 34 425 35 L 449 36 Q 486 37 493 56 Q 501 74 502 93 Q 503 112 498 126 Q 491 141 478 148 Q 490 157 495 170 Q 500 183 500 193 L 501 239 Q 501 249 499 266 Q 497 283 492 291 Q 487 299 471 301 L 475 306 Q 481 315 484 325 Q 487 336 487 345 Q 487 357 483 367 L 474 385 Q 472 390 471 392 Q 471 395 474 400 Q 480 415 481 420 Q 483 424 483 442 Q 484 459 463 481 Q 441 502 417 504 Q 392 507 369 492 L 341 474 L 327 465 Q 325 466 324 467 Q 323 468 322 473 Q 310 478 314 486 Q 308 494 298 501 Q 289 508 251 511 Q 232 512 199 511 Q 166 509 163 504 L 148 485 Q 130 495 119 498 Q 109 501 97 501 Q 80 501 56 489 Q 33 478 27 456 Q 21 434 22 424 Q 22 417 24 410 Q 27 404 29 399 Q 31 393 31 392 Q 31 391 28 388 Q 25 385 21 378 Q 17 371 14 361 Q 11 351 12 333 Q 12 313 15 305 L 18 294 Z M 305 444 Q 299 436 294 427 Q 289 418 289 406 Q 289 394 297 377 Q 304 362 318 346 Q 333 330 353 330 Q 374 330 399 346 L 440 374 Q 446 379 455 369 Q 463 359 463 345 Q 463 337 460 329 Q 457 321 441 300 Q 425 278 420 274 L 405 261 Q 392 253 383 253 Q 375 253 367 258 Q 359 262 352 269 Q 346 276 345 284 Q 345 289 347 296 Q 349 303 349 304 Q 348 307 346 309 Q 344 312 339 312 Q 333 312 327 305 Q 320 298 320 284 Q 320 271 328 262 L 343 244 Q 343 242 343 240 Q 343 237 337 230 Q 330 224 322 224 Q 312 224 300 234 L 265 260 Q 226 290 222 288 Q 218 286 214 284 Q 209 281 209 278 Q 209 276 215 271 Q 216 271 222 267 Q 228 263 237 255 Q 246 247 245 242 Q 245 238 230 229 Q 214 220 208 217 Q 201 214 189 214 Q 177 214 171 218 Q 164 221 153 229 Q 143 236 138 240 Q 133 244 126 254 Q 119 264 118 271 Q 116 278 119 284 Q 120 286 125 292 Q 129 297 128 301 Q 127 305 121 306 Q 115 306 110 301 L 99 287 Q 94 284 85 283 Q 56 284 50 289 Q 45 294 42 300 Q 38 306 37 312 Q 35 317 35 328 Q 35 346 42 362 Q 49 378 69 366 L 99 348 Q 128 330 149 330 Q 171 330 184 345 Q 198 361 202 368 Q 206 375 208 383 Q 210 391 209 393 Q 208 395 194 396 Q 180 397 173 407 Q 165 418 164 431 Q 162 444 164 456 Q 167 479 180 485 Q 192 492 217 491 L 256 490 Q 284 489 293 479 Q 302 469 304 456 L 305 444 Z M 97 262 Q 115 227 145 208 Q 160 202 208 195 Q 230 199 242 208 Q 255 216 267 228 Q 273 225 289 216 Q 305 206 324 205 Q 335 204 347 212 Q 360 219 361 228 Q 363 237 364 238 Q 366 238 368 238 Q 369 238 374 235 Q 379 232 387 233 Q 409 234 428 251 Q 447 268 457 283 Q 472 281 475 274 Q 477 271 477 260 Q 477 250 477 241 L 478 217 Q 478 199 475 186 Q 472 173 461 167 Q 450 161 429 161 L 402 162 Q 391 176 379 180 Q 366 184 341 183 Q 316 183 305 179 Q 294 174 281 163 L 224 163 Q 210 181 180 181 Q 150 181 135 179 Q 121 177 118 173 L 108 164 L 66 164 Q 34 165 29 179 Q 24 194 23 208 L 22 226 L 23 252 Q 23 265 24 268 Q 26 273 32 276 Q 37 271 49 266 Q 60 260 97 262 Z M 207 55 Q 207 52 208 47 Q 208 43 207 39 Q 202 26 189 24 Q 189 23 157 23 Q 138 23 129 31 Q 124 36 123 45 Q 122 54 122 54 Q 121 55 113 55 L 58 55 Q 42 56 32 62 Q 23 68 23 84 Q 22 100 24 109 Q 26 120 31 125 Q 36 129 43 130 Q 49 131 65 131 L 113 131 Q 119 132 120 133 Q 122 134 122 141 Q 123 148 128 154 Q 133 160 151 160 Q 157 160 176 159 Q 194 157 199 153 Q 204 149 205 147 Q 206 144 207 139 Q 207 134 208 132 Q 210 131 216 131 L 289 133 Q 293 133 293 134 Q 294 134 294 139 Q 294 144 299 149 Q 304 154 313 157 Q 323 160 345 161 Q 368 163 377 155 Q 381 151 383 148 L 385 138 Q 385 135 386 134 Q 388 133 395 133 L 448 132 Q 482 132 479 91 Q 476 58 448 57 L 392 56 Q 388 56 386 54 Q 385 53 384 47 Q 384 41 380 32 Q 375 23 334 26 Q 304 28 300 34 Q 296 39 295 47 Q 295 54 293 55 Q 292 56 285 56 Z M 110 369 76 390 Q 54 403 50 412 Q 46 420 46 433 Q 45 445 60 462 Q 76 479 95 479 Q 109 479 142 462 Q 141 448 141 435 Q 141 423 144 410 Q 147 397 154 391 Q 162 385 177 378 Q 167 363 161 360 Q 154 357 146 357 Q 129 357 110 369 Z M 416 484 Q 429 483 439 473 Q 450 463 454 451 Q 459 440 459 432 Q 459 420 451 411 Q 443 401 415 380 Q 387 360 376 355 Q 366 350 353 354 Q 343 356 333 367 Q 322 378 317 388 Q 312 399 312 406 Q 312 413 318 423 Q 324 432 339 445 Q 353 457 379 471 Q 404 484 416 484 Z" fill="black" />
  </g>
  <g class="defect" id="01">
    <path d="M 145 208 Q 160 202 208 195" fill="none" stroke="red" stroke-width="3" />
  </g>
  <g class="defect" id="02">
    <path d="M 189 24 Q 189 23 157 23" fill="none" stroke="red" stroke-width="3" />
  </g>
  <g class="defect" id="03">
    <path d="M 322 473 Q 310 478 314 486" fill="none" stroke="red" stroke-width="3" />
  </g>
</svg>