<svg xmlns="http://www.w3.org/2000/svg" width="512" height="512" viewBox="0 0 512 512">
  <g class="glyph">
    <path d="M 87 235 87 200 Q 88 182 90 177 Q 91 172 98 172 Q 105 171 108 174 Q 112 178 112 188 L 112 237 Q 113 257 109 261 Q 105 266 98 265 Q 94 265 91 263 Q 87 260 87 248 Q 87 236 87 235 Z M 146 244 V 217 Q 146 179 150 175 Q 154 172 159 172 Q 170 172 170 193 V 195 L 170 234 Q 170 238 170 248 Q 170 258 167 262 Q 163 266 157 265 Q 152 265 149 261 Q 146 258 146 244 Z M 322 336 V 365 Q 322 380 318 383 Q 315 387 306 387 Q 297 387 294 383 Q 291 380 291 372 Q 291 365 291 358 Q 291 352 291 342 Q 290 332 295 327 Q 299 322 310 323 Q 322 325 322 336 Z M 304 190 Q 316 189 319 193 Q 323 197 323 205 Q 322 212 323 215 Q 323 219 323 219 Q 322 223 322 231 Q 322 239 319 243 Q 316 247 305 246 Q 298 245 295 242 Q 292 239 292 232 Q 292 226 292 225 L 293 209 Q 293 209 293 203 Q 292 197 295 194 Q 298 191 304 190 Z M 405 324 Q 413 324 416 327 Q 418 330 419 334 V 363 Q 420 379 416 383 Q 413 388 404 387 Q 395 386 392 383 Q 388 379 388 366 Q 389 353 389 342 Q 389 332 393 328 Q 397 324 405 324 Z M 407 191 Q 414 192 417 195 Q 421 198 420 208 Q 420 218 420 228 Q 420 239 416 243 Q 412 247 402 246 Q 396 245 393 243 Q 390 240 390 233 Q 390 225 390 223 Q 390 220 390 216 Q 390 212 390 210 Q 390 209 390 203 Q 390 197 394 194 Q 398 190 407 191 Z M 232 476 Q 217 482 205 483 L 74 496 Q 54 498 41 495 Q 28 492 14 478 Q 0 465 0 436 Q 0 406 10 391 Q 17 378 28 373 L 51 364 Q 53 362 53 360 Q 53 359 50 355 L 30 344 Q 21 338 13 324 Q 5 309 5 288 L 6 157 Q 6 137 9 120 Q 13 102 26 91 Q 39 80 49 79 Q 58 77 60 76 Q 61 74 61 64 Q 61 53 64 43 Q 75 3 130 3 Q 163 3 176 15 Q 189 27 191 38 Q 194 50 194 59 Q 195 69 196 72 Q 198 75 210 78 Q 223 82 236 93 Q 248 88 260 86 L 275 85 Q 286 84 288 80 Q 290 76 291 67 L 293 45 Q 294 28 308 14 Q 323 0 358 0 Q 395 0 409 14 Q 424 29 425 44 L 427 75 Q 427 82 431 83 Q 434 85 449 87 Q 463 89 476 94 Q 489 100 496 109 Q 503 119 507 130 Q 511 142 511 152 L 512 187 L 511 376 L 510 421 Q 509 451 491 472 Q 472 492 431 491 L 290 489 Q 264 489 253 486 Q 242 484 232 476 Z M 151 465 208 459 Q 223 458 233 445 Q 243 432 243 417 Q 242 403 239 395 L 225 350 Q 219 333 212 329 Q 204 326 190 325 Q 176 324 166 334 Q 156 344 158 349 Q 162 373 161 377 Q 160 378 156 382 Q 152 387 143 380 Q 135 372 135 355 Q 134 337 145 324 Q 153 314 163 311 Q 173 307 183 306 Q 192 304 200 304 Q 208 304 213 303 Q 219 302 223 294 Q 227 287 227 267 V 162 Q 227 123 216 112 Q 206 101 191 97 Q 177 93 176 91 Q 174 90 174 85 L 172 57 Q 171 45 163 36 Q 155 28 130 27 Q 104 26 95 36 Q 85 46 85 57 L 83 82 Q 82 90 78 95 L 52 101 Q 63 115 38 111 Q 33 118 30 126 Q 27 134 27 161 V 239 Q 27 289 29 307 Q 32 325 55 332 Q 78 338 79 340 Q 81 342 81 344 Q 81 347 82 361 Q 82 376 81 380 Q 79 384 75 387 L 39 394 Q 34 396 28 402 Q 22 409 22 432 Q 21 454 32 464 Q 43 473 55 474 Q 55 474 70 472 L 112 468 Z M 248 117 Q 250 131 250 141 V 306 Q 250 310 246 319 L 245 321 Q 242 326 242 329 Q 241 332 243 337 Q 245 342 250 359 L 260 392 Q 266 409 265 425 Q 264 442 255 457 Q 260 460 267 463 Q 273 465 292 466 L 327 467 L 396 468 Q 436 468 450 466 Q 464 464 473 454 Q 482 445 483 436 Q 485 427 485 405 L 487 333 L 487 169 Q 487 135 475 123 Q 463 110 444 109 L 425 107 Q 409 107 407 104 Q 404 101 404 92 L 404 60 Q 403 42 395 32 Q 386 23 359 23 Q 333 23 324 33 Q 314 42 314 59 L 313 95 Q 312 104 303 105 L 282 107 Q 257 111 254 113 L 248 117 Z" fill="black" />
  </g>
  <g class="defect" id="01">
    <path d="M 52 101 Q 63 115 38 111" fill="none" stroke="red" stroke-width="3" />
  </g>
</svg>