<svg xmlns="http://www.w3.org/2000/svg" width="512" height="512" viewBox="0 0 512 512">
  <g class="glyph">
    <path d="M 86 245 V 214 L 85 189 Q 85 180 89 177 Q 92 173 98 174 Q 102 174 104 176 Q 107 179 108 184 L 107 230 Q 108 250 102 255 Q 96 261 91 255 Q 86 250 86 245 Z M 172 186 V 229 Q 172 251 166 256 Q 161 261 154 253 Q 152 251 151 247 Q 150 243 150 231 L 150 210 L 150 195 Q 150 187 151 184 Q 152 180 155 177 Q 158 174 162 174 Q 165 174 168 177 Q 172 180 172 186 Z M 287 317 Q 286 309 290 306 Q 293 303 305 303 Q 317 303 316 318 Q 315 324 313 326 Q 310 329 301 330 Q 293 331 290 327 Q 287 323 287 317 Z M 287 243 Q 287 236 290 233 Q 293 230 302 230 Q 310 230 313 233 Q 316 236 316 243 Q 316 252 313 254 Q 311 257 302 258 Q 293 259 290 254 Q 288 252 288 247 Q 287 243 287 243 Z M 396 303 Q 408 304 408 317 Q 409 330 397 331 Q 385 332 382 328 Q 378 324 379 317 Q 379 310 382 306 Q 385 302 396 303 Z M 381 244 Q 381 238 384 235 Q 386 232 398 230 Q 411 229 409 246 Q 409 252 406 254 Q 403 257 395 258 Q 387 258 384 255 Q 381 253 381 249 Q 380 246 381 244 Z M 502 406 Q 502 422 502 433 Q 502 444 499 463 Q 496 482 477 494 Q 457 506 431 507 L 397 507 Q 385 508 381 506 L 365 501 H 339 L 310 495 Q 307 495 305 496 L 292 504 Q 279 512 256 511 Q 241 511 230 508 Q 219 505 212 500 Q 205 496 199 486 Q 193 476 189 474 Q 186 472 168 474 L 81 484 Q 52 488 40 485 Q 28 481 18 472 Q 9 463 5 451 Q 1 439 0 424 Q 0 409 2 400 Q 5 389 11 382 Q 17 375 23 371 Q 30 367 35 366 L 55 363 Q 60 359 60 356 Q 60 353 59 351 Q 58 349 43 343 Q 29 337 21 327 Q 13 317 11 308 Q 8 299 8 287 V 152 Q 8 134 12 118 Q 15 101 27 91 Q 39 81 48 79 Q 57 76 60 74 Q 63 71 64 63 L 66 43 Q 71 15 93 9 Q 115 2 126 1 Q 142 0 156 4 Q 170 8 180 18 Q 190 28 192 43 L 193 64 Q 194 74 199 73 Q 201 73 202 72 Q 203 72 205 70 L 212 45 Q 216 33 230 24 Q 243 14 260 14 L 428 14 Q 449 15 468 26 Q 486 38 491 55 Q 495 72 495 87 Q 494 103 484 119 L 471 139 Q 465 148 466 152 Q 467 155 471 159 L 485 173 Q 501 190 501 218 Z M 31 280 Q 31 289 31 297 Q 32 304 38 314 Q 43 324 62 327 L 80 331 Q 82 332 84 334 Q 86 336 86 345 Q 86 360 86 367 Q 85 374 83 377 Q 80 381 75 381 L 49 385 Q 23 388 22 411 Q 22 435 27 444 Q 29 449 34 455 Q 38 460 44 463 Q 49 466 76 463 L 198 447 Q 216 445 224 436 Q 232 426 232 417 Q 232 407 231 400 Q 230 400 221 371 Q 211 343 205 331 Q 198 319 180 319 Q 161 318 155 326 Q 148 334 147 339 Q 147 344 148 347 L 152 363 Q 152 364 153 366 Q 153 368 150 370 Q 148 373 143 373 Q 139 373 136 370 Q 131 366 128 354 Q 126 342 126 334 Q 126 327 134 318 Q 141 309 153 305 Q 165 300 176 299 Q 187 298 189 298 Q 190 297 193 295 Q 196 293 196 260 V 217 Q 196 200 201 188 Q 206 176 211 170 L 228 155 Q 232 147 228 138 L 216 123 L 206 103 Q 203 101 197 99 L 177 95 Q 172 93 172 88 L 171 55 Q 170 23 131 24 Q 90 25 89 53 L 88 86 Q 87 92 81 94 L 59 98 Q 40 102 35 117 Q 31 133 31 149 Z M 217 307 Q 220 315 224 321 Q 227 327 228 329 L 248 387 Q 255 408 255 418 Q 254 428 250 437 Q 246 446 239 451 L 221 464 Q 219 467 218 470 Q 218 474 225 481 Q 232 488 262 489 Q 293 490 293 461 L 293 412 Q 292 399 294 390 Q 295 381 303 381 Q 310 381 311 386 Q 313 391 313 405 V 445 Q 313 465 320 471 Q 327 477 335 478 Q 343 478 344 471 Q 345 469 342 461 Q 340 453 341 439 Q 342 428 345 411 Q 347 394 361 388 Q 375 382 387 382 Q 399 381 399 392 Q 398 398 394 400 L 379 404 Q 376 406 371 410 Q 366 415 365 418 Q 363 423 366 435 Q 368 447 368 449 L 367 466 Q 367 469 369 476 Q 371 482 375 485 Q 380 488 386 489 Q 392 491 395 490 Q 385 470 407 487 Q 414 484 418 484 Q 419 484 432 487 Q 446 489 460 479 Q 475 468 477 454 Q 478 439 478 431 Q 478 424 478 418 L 478 380 L 478 236 Q 478 211 474 198 Q 470 184 457 178 Q 444 172 436 171 Q 428 170 426 168 Q 425 166 425 164 Q 424 161 427 159 L 457 119 Q 472 99 472 84 Q 471 69 466 59 Q 461 49 448 43 Q 435 37 424 37 H 268 Q 259 37 251 39 Q 243 41 240 44 Q 236 47 233 53 Q 230 59 228 70 Q 226 82 227 96 Q 228 111 234 115 Q 240 120 243 120 Q 246 120 248 118 Q 250 117 258 105 Q 265 94 282 86 Q 298 78 311 77 Q 334 77 350 91 Q 366 105 365 110 Q 365 113 360 117 Q 356 122 345 113 Q 331 102 327 100 Q 322 98 317 97 Q 306 96 286 108 Q 266 119 267 139 Q 267 143 269 145 L 277 160 Q 277 162 277 163 Q 277 167 271 168 L 254 169 Q 230 174 223 190 Q 217 207 217 241 Z" fill="black" />
  </g>
  <g class="defect" id="01">
    <path d="M 395 490 Q 385 470 407 487" fill="none" stroke="red" stroke-width="3" />
  </g>
</svg>