<svg xmlns="http://www.w3.org/2000/svg" width="512" height="512" viewBox="0 0 512 512">
  <g class="glyph">
    <path d="M 263 387 V 365 Q 263 350 267 347 Q 271 344 275 344 Q 280 344 284 347 Q 287 350 287 355 Q 287 360 287 365 L 286 393 Q 285 401 282 403 Q 279 406 271 406 Q 263 407 263 387 Z M 322 387 322 357 Q 322 344 334 344 Q 339 345 342 347 Q 344 349 345 358 Q 345 367 346 383 Q 346 399 341 403 Q 337 407 332 406 Q 328 406 325 403 Q 322 400 322 387 Z M 381 364 Q 381 345 389 344 Q 396 344 400 348 Q 404 352 404 361 Q 404 362 404 363 L 404 380 L 404 385 Q 405 400 401 403 Q 396 407 392 407 Q 388 407 385 404 Q 381 401 381 395 Q 381 389 381 381 V 364 Z M 161 458 132 476 Q 125 480 111 483 Q 97 486 88 486 Q 79 485 71 481 Q 63 476 47 456 Q 31 436 36 409 Q 38 397 45 387 L 54 373 Q 56 371 56 341 V 298 Q 56 288 53 285 Q 50 282 32 281 Q 15 279 7 260 Q 0 241 1 217 Q 2 205 4 192 Q 6 178 10 170 Q 14 163 24 156 Q 33 150 43 150 H 67 Q 41 119 30 101 Q 18 82 18 68 Q 17 54 26 40 Q 32 30 50 16 Q 68 1 92 2 Q 120 3 141 31 L 169 71 Q 178 84 180 98 Q 181 112 177 122 Q 171 134 149 152 Q 162 157 165 160 Q 168 164 173 178 L 176 187 Q 176 182 178 174 Q 180 165 190 138 Q 200 111 209 104 Q 219 97 231 96 Q 243 95 246 92 Q 249 90 250 88 Q 250 85 250 84 Q 250 82 249 81 Q 248 80 238 76 Q 228 71 228 55 Q 227 39 231 28 Q 234 19 240 11 Q 247 3 255 2 Q 262 0 279 1 Q 297 2 303 3 L 380 15 L 412 23 Q 416 23 424 21 Q 432 19 435 19 Q 445 17 461 21 Q 477 25 488 34 Q 499 43 501 50 Q 502 57 501 65 Q 501 72 499 78 L 480 117 Q 477 123 477 125 Q 478 127 480 131 Q 482 134 481 131 L 489 146 Q 493 153 498 165 Q 503 178 504 191 Q 505 205 495 215 Q 485 224 485 225 Q 485 226 487 233 Q 489 240 489 245 Q 489 249 485 263 Q 481 277 480 279 L 475 288 Q 479 292 483 296 Q 487 301 489 314 Q 491 328 491 338 V 375 Q 491 382 491 385 Q 491 387 494 391 L 503 402 Q 509 410 510 420 Q 512 430 512 442 Q 511 464 505 475 Q 516 504 489 491 Q 479 496 469 496 H 215 Q 170 496 163 466 L 161 458 Z M 182 447 Q 183 452 185 461 Q 187 470 199 473 Q 210 476 235 476 L 452 476 Q 470 476 479 469 Q 488 462 490 445 Q 492 428 486 418 Q 484 413 481 411 L 471 407 Q 468 405 468 397 Q 468 389 468 389 L 469 354 Q 469 330 467 321 Q 465 312 464 310 L 461 304 Q 449 312 431 316 Q 412 319 380 319 H 327 Q 314 319 301 317 Q 288 316 279 310 L 266 303 Q 264 302 262 302 Q 261 301 254 306 Q 249 309 239 310 Q 229 312 225 313 Q 220 313 213 311 Q 223 309 206 309 Q 205 310 204 318 L 203 322 Q 206 327 213 334 Q 220 341 230 360 Q 240 379 230 404 Q 227 414 219 423 Q 211 432 187 444 Z M 182 318 Q 183 313 185 307 Q 188 301 188 300 Q 187 299 177 284 V 288 Q 177 313 178 314 L 182 318 Z M 177 234 Q 179 231 184 227 Q 190 222 190 222 L 179 214 L 177 208 Z M 155 340 155 222 Q 155 207 153 189 Q 151 170 117 170 H 68 Q 44 170 37 177 Q 30 183 27 195 Q 23 207 24 223 Q 24 248 30 254 Q 36 259 46 261 L 73 264 Q 74 265 76 266 Q 77 266 77 295 V 367 Q 77 380 77 381 Q 76 382 66 394 Q 56 406 56 416 Q 56 423 64 438 Q 72 453 81 459 Q 90 466 101 465 Q 113 464 131 454 L 183 422 Q 196 414 201 410 Q 206 405 209 397 Q 212 389 212 381 Q 212 373 207 363 Q 202 353 194 347 Q 186 342 178 342 L 167 344 Q 162 344 159 345 Q 156 346 155 346 Q 155 346 155 340 Z M 156 105 Q 156 90 141 69 L 132 57 Q 120 40 110 33 Q 100 26 89 26 Q 77 26 66 33 Q 56 40 50 49 Q 43 58 43 68 Q 43 78 52 93 Q 62 112 78 130 Q 94 148 110 147 Q 117 147 129 142 Q 142 136 149 124 Q 155 113 156 105 Z M 337 300 H 380 Q 427 300 440 291 Q 452 283 456 277 Q 460 271 464 261 Q 468 250 467 243 Q 465 236 458 229 Q 451 221 420 222 Q 404 223 398 225 Q 392 228 389 230 L 383 238 Q 382 239 380 240 Q 378 241 370 241 Q 362 242 359 239 Q 356 237 356 235 Q 356 233 357 230 Q 358 226 360 225 L 380 209 Q 385 206 385 202 Q 385 198 384 194 L 378 174 Q 377 170 377 158 Q 376 147 389 133 Q 395 125 408 119 Q 421 112 439 111 Q 457 111 460 110 Q 462 109 467 101 Q 471 93 476 79 Q 482 65 481 60 Q 480 52 472 45 Q 464 39 446 37 Q 428 35 424 38 Q 423 39 422 41 Q 421 43 420 56 Q 418 68 411 78 Q 405 88 400 92 Q 395 95 390 97 Q 384 98 377 99 Q 370 100 368 101 Q 366 103 365 105 L 364 118 Q 361 123 353 123 Q 348 123 346 121 Q 344 120 343 115 L 341 93 Q 339 90 334 86 Q 328 82 306 81 Q 284 80 277 86 Q 270 91 270 94 Q 270 97 271 99 Q 273 101 282 105 Q 292 109 299 119 Q 305 128 305 140 Q 304 144 302 159 Q 299 174 287 199 Q 276 225 264 232 Q 252 238 237 238 Q 227 239 220 236 Q 213 234 211 234 Q 210 234 201 239 Q 192 243 191 254 Q 190 265 195 273 Q 198 280 207 287 Q 216 294 231 293 Q 235 293 240 292 Q 245 290 254 287 Q 263 283 273 277 Q 282 270 290 270 Q 294 269 298 271 Q 301 273 302 275 Q 302 278 296 282 Q 290 286 289 293 Q 288 300 337 300 Z M 239 221 Q 248 221 253 217 Q 258 214 264 203 Q 270 193 274 184 Q 278 174 281 162 Q 285 150 285 140 Q 285 130 279 123 Q 270 114 250 112 Q 233 111 227 117 Q 220 122 214 136 L 206 153 Q 200 166 197 180 Q 195 193 198 200 Q 200 207 210 215 Q 221 222 239 221 Z M 273 72 286 66 Q 293 64 307 64 Q 320 64 329 66 Q 338 68 345 72 L 361 84 Q 375 89 387 78 Q 392 74 394 70 Q 396 66 398 60 Q 400 53 400 50 Q 399 42 394 38 Q 388 34 380 32 Q 372 31 356 28 Q 340 25 313 21 Q 286 17 276 17 Q 264 17 259 20 Q 254 24 249 35 Q 244 46 247 54 Q 249 61 257 68 Q 265 74 273 72 Z M 455 213 Q 466 212 474 204 Q 482 196 482 184 Q 482 174 471 157 Q 461 140 454 135 Q 447 130 435 131 Q 421 132 409 141 Q 397 150 399 169 Q 400 178 403 184 Q 405 191 410 199 Q 415 207 418 209 Q 420 211 437 211 L 455 213 Z" fill="black" />
  </g>
  <g class="defect" id="01">
    <path d="M 505 475 Q 516 504 489 491" fill="none" stroke="red" stroke-width="3" />
  </g>
  <g class="defect" id="02">
    <path d="M 213 311 Q 223 309 206 309" fill="none" stroke="red" stroke-width="3" />
  </g>
</svg>