<svg xmlns="http://www.w3.org/2000/svg" width="512" height="512" viewBox="0 0 512 512">
  <g class="glyph">
    <path d="M 206 0 H 270 Q 272 0 284 1 Q 297 3 303 5 Q 310 7 311 7 Q 312 7 321 4 Q 330 0 360 0 L 420 1 Q 444 2 462 7 Q 480 12 486 29 Q 492 46 492 71 L 491 153 Q 491 180 491 190 Q 490 200 488 210 Q 486 219 477 225 Q 468 231 468 231 Q 468 233 480 239 Q 492 246 501 256 Q 509 265 511 280 Q 512 294 503 312 Q 496 325 483 334 Q 470 344 470 347 Q 470 350 475 362 Q 480 374 480 387 Q 479 405 467 419 Q 455 433 419 443 L 359 460 L 289 479 Q 289 479 256 486 Q 224 493 215 494 Q 197 495 187 490 Q 178 484 174 477 Q 170 470 167 461 Q 165 452 163 451 Q 161 450 149 452 L 117 460 Q 85 468 74 468 Q 63 469 52 460 Q 43 453 37 432 Q 31 411 31 392 Q 32 376 37 368 L 47 355 Q 49 350 49 343 L 49 300 Q 48 279 47 279 Q 46 278 30 277 Q 15 275 7 257 Q 0 240 1 209 Q 2 186 12 164 Q 21 143 51 144 Q 81 146 81 144 Q 82 143 67 133 Q 57 126 46 116 Q 36 105 29 94 Q 22 83 21 69 Q 21 55 29 40 Q 39 22 54 12 Q 70 3 86 4 Q 100 6 112 13 Q 123 20 134 30 Q 144 40 147 39 Q 148 39 152 26 Q 156 13 169 6 Q 182 0 206 0 Z M 70 260 V 364 Q 70 368 69 370 L 59 377 Q 57 379 55 384 Q 53 390 53 396 Q 52 403 55 414 Q 59 432 66 439 Q 73 447 81 445 L 153 429 Q 160 428 162 426 Q 163 424 167 414 Q 171 404 177 400 Q 183 397 184 395 Q 184 394 182 389 Q 179 384 178 375 Q 177 366 177 362 Q 177 357 179 350 Q 181 344 181 343 L 153 350 Q 152 349 152 348 L 151 320 Q 150 318 146 313 Q 142 308 138 298 Q 135 288 136 276 Q 136 263 143 252 L 151 239 Q 153 234 152 214 L 150 185 Q 148 178 145 174 Q 141 170 131 168 L 114 169 L 61 168 Q 42 168 31 177 Q 20 187 22 222 Q 23 245 28 251 Q 33 256 36 257 L 57 259 L 70 260 Z M 83 26 Q 80 26 70 29 Q 60 32 51 46 Q 42 60 43 70 Q 45 88 76 113 Q 108 139 120 138 Q 132 138 146 125 Q 160 113 160 97 Q 159 85 152 76 Q 145 67 123 49 Q 102 30 94 28 Q 87 26 83 26 Z M 215 228 178 247 Q 162 255 158 263 Q 153 272 153 282 Q 152 293 164 306 Q 176 320 191 318 Q 196 318 197 317 Q 199 316 199 306 Q 200 295 202 289 Q 205 282 213 275 Q 221 267 278 255 L 350 239 Q 360 236 371 237 Q 382 238 391 248 Q 400 258 402 273 Q 403 287 406 291 Q 408 295 425 310 Q 442 324 452 324 Q 462 323 476 311 Q 490 298 489 284 Q 487 274 483 270 Q 479 266 463 257 L 398 216 Q 392 213 387 213 Q 383 213 370 220 Q 358 227 342 226 Q 329 226 320 222 Q 311 217 304 205 Q 297 194 294 193 L 273 202 Z M 308 163 V 91 Q 308 90 300 79 Q 292 68 293 51 Q 293 43 295 35 Q 297 26 295 24 Q 294 22 276 22 H 228 L 191 21 Q 179 23 174 30 Q 169 36 170 52 Q 181 46 170 62 Q 171 66 173 67 Q 174 67 180 64 Q 187 60 193 60 Q 207 59 220 70 L 232 81 Q 234 83 236 83 L 249 84 Q 252 85 251 97 Q 250 109 250 113 Q 250 117 250 121 Q 250 125 250 127 Q 250 129 249 131 Q 249 132 238 137 L 181 163 Q 177 165 173 171 Q 170 177 170 187 Q 170 198 181 209 Q 193 220 224 205 Z M 173 98 Q 173 105 185 118 Q 197 130 203 134 Q 209 138 217 138 Q 224 137 230 131 Q 235 125 237 114 Q 239 103 221 89 Q 213 75 195 75 Q 185 76 180 83 Q 174 91 173 98 Z M 257 395 212 405 Q 197 409 191 417 Q 185 424 185 440 Q 186 470 199 472 Q 212 474 243 466 L 326 448 L 424 418 Q 448 410 454 403 Q 459 396 459 384 Q 458 373 448 361 Q 437 350 420 354 Z M 332 318 213 345 Q 198 348 197 359 Q 196 369 197 373 L 201 381 Q 203 391 205 390 L 257 379 L 344 358 L 401 340 Q 409 338 409 328 Q 409 317 401 311 Q 393 305 389 305 Q 384 304 374 307 Z M 239 323 371 293 Q 375 292 380 287 Q 384 282 384 274 Q 384 257 372 255 Q 360 253 326 262 L 231 285 Q 223 287 219 292 Q 215 297 214 311 Q 214 325 219 326 Q 225 327 239 323 Z M 402 182 Q 402 189 402 193 Q 402 197 405 207 Q 408 216 431 217 Q 455 217 460 212 Q 466 206 467 199 Q 469 193 469 156 L 470 62 Q 470 45 464 36 Q 457 28 447 25 Q 437 22 402 22 L 335 21 Q 325 21 318 28 Q 311 34 310 46 Q 310 58 314 65 Q 318 73 320 73 Q 322 73 329 67 Q 336 61 348 62 Q 359 62 369 69 Q 380 77 381 77 L 401 79 Q 402 80 402 81 V 106 Q 403 120 403 122 Q 402 124 401 125 Q 400 127 382 137 L 326 168 Q 323 170 321 174 Q 318 178 319 183 Q 319 195 325 201 Q 332 207 340 208 Q 349 210 380 194 L 402 182 Z M 323 101 Q 322 103 323 106 Q 323 108 338 124 Q 352 139 357 138 Q 359 138 364 135 Q 369 132 377 127 Q 386 123 387 120 Q 389 117 389 115 Q 388 113 386 109 Q 384 106 374 96 Q 365 85 360 82 Q 356 78 351 78 Q 346 77 338 82 Q 330 86 327 90 Q 324 93 323 101 Z M 172 125 143 151 Q 152 154 153 156 L 158 161 Q 167 151 170 150 L 186 140 Z" fill="black" />
  </g>
  <g class="defect" id="01">
    <path d="M 221 89 Q 213 75 195 75" fill="none" stroke="red" stroke-width="3" />
  </g>
  <g class="defect" id="02">
    <path d="M 170 52 Q 181 46 170 62" fill="none" stroke="red" stroke-width="3" />
  </g>
</svg>