<svg xmlns="http://www.w3.org/2000/svg" width="512" height="512" viewBox="0 0 512 512">
  <g class="glyph">
    <path d="M 446 40 Q 461 41 472 43 Q 484 46 493 54 Q 502 62 506 76 Q 510 90 511 109 Q 512 129 508 144 Q 504 162 495 170 Q 485 178 473 178 Q 460 179 458 180 Q 455 181 454 183 Q 452 185 453 193 L 453 213 V 412 Q 453 419 452 437 Q 450 455 445 477 Q 439 499 415 504 Q 390 510 365 510 H 314 Q 279 510 270 504 Q 261 498 255 491 Q 249 484 247 477 Q 245 470 245 470 Q 244 469 234 473 L 212 478 L 151 497 Q 126 504 118 506 Q 110 507 101 507 Q 88 506 81 502 Q 74 497 67 485 Q 59 473 55 458 Q 50 444 50 429 Q 50 418 54 406 Q 58 394 69 387 Q 79 380 80 378 Q 80 377 80 374 Q 80 372 79 371 Q 78 370 64 368 Q 50 367 42 359 Q 35 351 30 339 Q 25 326 25 314 Q 25 302 27 289 Q 38 283 31 276 Q 34 270 34 267 Q 33 265 23 259 Q 14 252 9 244 Q 4 235 2 227 Q 0 219 2 208 Q 3 201 8 186 Q 13 172 17 163 Q 21 154 33 130 Q 45 106 56 73 Q 68 41 73 30 Q 79 20 88 12 Q 98 3 120 1 Q 139 0 158 5 Q 177 10 186 19 Q 196 28 196 34 Q 197 40 198 41 Q 198 42 207 42 Q 216 42 223 44 Q 229 47 232 50 Q 236 53 237 53 Q 238 53 241 51 L 247 45 Q 249 44 260 42 L 274 40 Z M 160 141 H 198 Q 209 141 217 141 Q 224 140 225 139 Q 227 137 225 131 Q 224 127 223 114 Q 233 102 223 97 Q 223 94 224 88 Q 225 81 227 78 Q 228 74 228 73 Q 227 70 221 67 Q 216 64 207 64 Q 203 63 192 64 Q 181 64 179 62 Q 177 60 177 56 L 178 48 Q 178 43 168 34 Q 159 25 131 22 Q 112 20 102 29 Q 92 38 85 59 Q 78 80 70 99 Q 61 118 47 149 Q 32 180 27 191 Q 21 203 23 215 Q 24 226 29 233 Q 35 240 46 247 Q 57 253 60 252 Q 63 250 63 249 Q 64 248 59 243 Q 58 242 57 239 L 52 227 Q 50 219 50 204 Q 51 189 58 172 Q 65 155 102 155 H 130 Q 139 155 142 151 L 143 146 Q 145 143 147 142 Q 149 141 160 141 Z M 194 347 H 208 Q 216 347 225 346 Q 235 344 237 332 Q 240 319 240 302 Q 240 285 232 277 Q 223 269 213 269 Q 204 268 200 268 L 191 269 Q 186 269 184 267 Q 183 265 183 258 Q 184 252 184 251 Q 184 249 185 248 Q 186 247 197 247 Q 207 246 215 245 Q 222 243 227 231 Q 233 218 231 202 Q 229 188 222 181 Q 215 175 196 175 H 100 Q 70 175 70 209 Q 70 224 76 234 Q 82 244 86 245 Q 91 246 96 247 Q 100 247 101 248 Q 102 249 103 256 L 103 265 Q 103 266 101 268 L 66 268 Q 59 269 56 272 Q 52 276 49 286 Q 47 297 47 304 Q 47 311 50 324 Q 52 336 57 342 Q 62 347 73 347 H 88 Q 94 347 98 349 Q 101 352 101 363 Q 101 374 101 381 Q 101 388 101 390 Q 100 395 97 397 Q 95 399 86 403 Q 78 407 75 413 Q 73 418 72 429 Q 72 439 75 451 Q 78 460 83 468 Q 87 477 92 480 Q 97 484 105 485 Q 113 486 134 480 L 210 457 L 228 451 Q 240 448 242 446 Q 244 444 243 435 Q 243 425 244 419 Q 245 409 249 402 Q 253 395 254 391 Q 255 388 242 378 Q 230 368 223 367 Q 219 367 211 369 Q 203 371 196 374 Q 190 377 187 374 Q 185 372 185 367 L 184 355 Q 183 350 184 349 Q 185 347 194 347 Z M 332 187 V 381 Q 332 390 331 392 Q 330 394 327 396 Q 325 397 320 397 Q 315 397 302 398 Q 289 398 280 401 Q 272 405 268 414 Q 264 424 265 440 Q 268 470 277 480 Q 286 489 309 489 H 358 Q 391 489 403 484 Q 415 479 421 467 Q 428 455 430 432 Q 431 409 431 393 V 176 L 432 168 Q 432 162 434 160 Q 436 158 442 158 H 451 Q 463 158 471 156 Q 479 155 484 140 Q 489 126 488 109 Q 487 97 484 87 Q 481 77 474 69 Q 468 62 429 62 L 277 62 Q 267 62 259 68 Q 250 75 247 85 Q 244 96 245 111 Q 245 124 246 134 Q 248 144 254 151 Q 260 158 282 158 H 311 Q 325 158 327 162 Q 330 166 331 171 Q 332 177 332 187 Z M 286 377 H 299 Q 306 377 309 375 Q 311 372 311 355 V 208 Q 311 187 310 183 Q 308 178 300 178 H 285 Q 271 178 266 178 Q 260 177 258 177 Q 257 178 256 177 L 250 174 Q 248 175 247 176 Q 247 178 250 183 Q 252 186 253 194 L 254 208 Q 255 219 253 228 Q 251 234 248 240 Q 245 245 241 250 Q 238 254 237 255 Q 237 257 247 265 Q 255 271 258 282 Q 261 292 262 303 Q 262 315 262 323 Q 261 334 257 343 Q 253 352 252 354 Q 252 356 254 359 Q 255 360 260 363 Q 264 367 266 373 Q 268 379 270 379 Q 270 379 273 378 Q 276 377 286 377 Z" fill="black" />
  </g>
  <g class="defect" id="01">
    <path d="M 27 289 Q 38 283 31 276" fill="none" stroke="red" stroke-width="3" />
  </g>
  <g class="defect" id="02">
    <path d="M 223 114 Q 233 102 223 97" fill="none" stroke="red" stroke-width="3" />
  </g>
</svg>