<svg xmlns="http://www.w3.org/2000/svg" width="512" height="512" viewBox="0 0 512 512">
  <g class="glyph">
    <path d="M 80 280 V 228 Q 80 208 84 204 Q 88 200 92 204 Q 96 209 96 228 V 268 Q 96 281 95 286 Q 94 291 91 295 Q 87 299 84 295 Q 80 291 80 280 Z M 100 376 Q 100 373 103 369 Q 106 365 125 366 L 157 368 Q 166 369 166 373 Q 166 378 163 382 Q 159 387 147 387 Q 145 387 136 386 L 114 386 Q 103 385 101 381 Q 100 377 100 376 Z M 123 269 V 216 Q 123 203 132 203 Q 136 203 137 206 Q 139 209 140 224 Q 140 239 140 255 L 140 279 Q 140 290 136 295 Q 132 299 128 295 Q 124 292 124 289 Q 123 287 123 269 Z M 127 121 Q 127 112 141 112 Q 154 111 155 116 Q 155 121 152 126 Q 149 130 138 130 Q 129 130 128 126 Q 126 122 127 121 Z M 164 269 V 231 Q 164 211 169 206 Q 174 202 178 205 Q 181 208 181 216 V 269 Q 181 291 176 295 Q 172 299 168 295 Q 165 292 164 289 Q 164 286 164 269 Z M 12 186 Q 11 162 14 154 Q 16 146 19 140 Q 22 134 22 132 Q 22 131 11 112 Q 0 94 1 69 Q 2 51 6 42 Q 9 33 20 22 Q 31 11 50 10 L 182 10 Q 236 10 251 24 L 263 37 Q 269 41 277 41 Q 285 40 289 36 L 297 24 Q 299 20 306 15 Q 312 9 324 5 Q 336 0 358 0 Q 369 0 382 2 Q 395 4 403 10 Q 411 16 414 20 L 425 36 Q 429 41 435 41 L 462 42 Q 481 43 496 58 Q 511 73 511 103 Q 510 125 503 138 Q 496 150 486 157 Q 476 164 476 165 Q 475 166 475 169 Q 475 171 478 176 L 499 195 Q 512 210 512 234 Q 511 246 503 261 Q 495 277 496 281 Q 496 282 497 285 L 505 301 Q 507 308 509 317 Q 511 327 511 336 Q 511 364 497 378 Q 483 392 465 393 L 435 393 Q 430 394 427 397 Q 423 400 423 415 V 443 Q 423 470 409 487 Q 394 504 357 504 Q 320 503 305 488 Q 290 472 290 450 L 291 417 Q 291 400 287 397 Q 284 394 274 394 Q 265 394 262 397 Q 259 400 258 409 L 257 436 Q 256 448 244 468 Q 233 489 194 489 L 82 488 Q 48 488 37 477 Q 26 467 19 455 Q 13 444 13 432 Z M 31 408 Q 31 429 37 449 Q 43 469 76 469 L 196 468 Q 214 468 225 459 Q 217 432 238 424 Q 240 398 232 389 L 219 378 Q 215 374 211 364 Q 207 354 206 346 Q 204 338 204 330 Q 204 307 212 294 Q 220 281 220 277 Q 220 277 219 275 L 207 253 Q 204 245 204 235 Q 204 225 210 217 L 233 182 Q 239 172 239 169 Q 238 165 237 162 L 222 149 L 210 135 L 200 129 Q 197 127 197 124 Q 197 121 198 119 L 205 111 Q 206 109 206 106 L 207 92 Q 208 83 212 73 Q 216 63 226 53 Q 236 43 235 40 Q 232 32 220 31 Q 208 30 181 29 L 104 28 Q 81 28 63 28 Q 40 28 30 37 Q 21 46 21 65 Q 21 84 23 90 Q 27 109 44 112 L 66 115 Q 70 118 70 122 Q 70 125 68 128 L 50 135 Q 44 138 38 146 Q 32 155 32 170 Z M 255 374 296 375 Q 303 375 306 378 Q 309 381 310 386 V 452 Q 312 467 320 476 Q 328 484 355 485 Q 383 486 392 475 Q 402 464 402 454 L 403 418 Q 403 383 404 382 Q 405 380 407 378 Q 408 376 415 375 L 465 375 Q 475 372 482 366 Q 489 359 491 333 Q 492 307 481 299 Q 478 298 475 297 L 455 297 L 428 289 L 414 288 Q 408 288 406 286 Q 404 285 404 284 L 399 274 Q 391 259 360 257 Q 335 256 327 262 Q 319 267 316 270 L 312 279 Q 307 286 301 289 Q 295 292 285 294 Q 275 296 271 296 Q 270 297 268 296 L 244 292 Q 237 294 230 300 Q 222 307 222 330 Q 222 354 232 363 Q 241 373 255 374 Z M 256 174 228 221 Q 223 229 223 240 Q 222 251 237 267 Q 251 282 269 281 Q 287 280 295 268 L 311 243 Q 312 242 314 241 L 336 242 Q 338 243 347 241 Q 356 239 360 239 Q 363 238 369 232 Q 375 226 375 214 Q 375 202 366 192 L 352 180 Q 344 173 345 168 Q 345 168 347 164 Q 348 160 349 152 Q 351 145 351 140 Q 351 134 342 125 Q 333 115 313 114 Q 296 114 287 120 Q 278 126 270 145 Z M 460 62 427 62 Q 410 61 407 58 L 400 35 Q 393 21 361 20 Q 345 20 336 22 Q 326 25 321 29 Q 315 33 313 38 L 307 57 Q 305 59 303 60 Q 301 60 285 60 L 293 61 L 252 62 Q 220 81 232 73 Q 225 82 225 103 Q 225 125 234 134 Q 244 144 253 135 L 262 119 Q 275 100 315 99 Q 337 99 350 108 Q 364 117 368 116 Q 368 116 370 115 L 387 106 Q 397 100 415 100 Q 418 100 427 101 Q 436 102 439 103 Q 442 104 451 109 Q 460 114 462 116 L 475 134 Q 478 136 484 131 Q 491 127 490 104 Q 490 95 488 86 Q 487 78 480 70 Q 472 63 460 62 Z M 366 164 Q 366 167 370 173 L 387 190 Q 393 199 393 214 Q 393 219 390 228 Q 388 236 388 237 Q 388 239 390 242 Q 391 245 398 249 Q 404 253 406 255 L 425 261 L 443 272 Q 460 282 476 266 Q 486 256 488 247 Q 491 237 491 227 Q 492 216 476 201 L 457 186 Q 453 183 451 181 L 454 145 Q 453 143 452 138 Q 450 132 444 125 Q 437 118 416 117 Q 394 117 380 131 Q 371 140 368 152 Q 366 163 366 164 Z" fill="black" />
  </g>
  <g class="defect" id="01">
    <path d="M 252 62 Q 220 81 232 73" fill="none" stroke="red" stroke-width="3" />
  </g>
  <g class="defect" id="02">
    <path d="M 225 459 Q 217 432 238 424" fill="none" stroke="red" stroke-width="3" />
  </g>
</svg>