<svg xmlns="http://www.w3.org/2000/svg" width="512" height="512" viewBox="0 0 512 512">
  <g class="glyph">
    <path d="M 383 259 310 258 Q 306 258 303 255 Q 300 252 300 244 Q 300 237 318 237 L 384 238 Q 395 238 395 245 Q 395 252 392 256 Q 388 260 383 259 Z M 317 182 381 183 Q 395 184 395 190 Q 395 197 392 201 Q 388 205 383 205 L 314 204 Q 301 204 301 197 Q 301 189 304 186 Q 307 182 317 182 Z M 334 129 Q 334 125 337 122 Q 339 119 349 119 Q 358 118 361 122 Q 364 125 364 130 Q 364 134 362 137 Q 359 140 350 141 Q 341 141 338 138 Q 336 136 335 133 Q 334 130 334 129 Z M 196 479 140 498 Q 118 505 110 507 Q 102 509 94 508 Q 82 507 76 503 Q 69 498 58 479 Q 46 460 47 430 Q 47 418 49 409 Q 52 401 55 397 Q 57 394 63 390 Q 68 385 71 383 Q 74 381 74 379 Q 75 378 75 375 Q 74 372 73 372 Q 72 371 59 369 Q 47 368 39 360 Q 32 352 28 339 Q 24 326 23 315 Q 23 304 25 290 Q 26 284 29 277 Q 31 270 31 268 Q 30 265 22 259 Q 13 253 8 244 Q 4 236 2 228 Q 0 220 2 209 Q 3 202 7 187 Q 12 172 16 163 Q 20 153 31 129 Q 42 105 53 73 Q 64 40 68 30 Q 73 20 82 12 Q 91 4 112 2 Q 129 0 144 4 Q 158 9 165 13 Q 171 17 176 23 Q 182 28 182 34 Q 183 40 183 41 Q 184 42 192 42 Q 199 43 211 46 Q 215 41 220 37 Q 225 34 243 29 Q 270 9 281 5 Q 292 2 305 2 Q 325 2 336 8 Q 347 14 350 14 Q 353 15 361 11 Q 370 7 376 5 Q 382 3 392 2 Q 406 2 421 6 Q 436 11 445 21 Q 454 31 455 32 Q 456 32 471 34 Q 485 36 497 49 Q 509 62 509 90 Q 509 99 507 109 Q 505 119 500 126 L 490 140 Q 487 145 487 149 Q 486 153 489 164 Q 491 175 491 178 L 491 251 Q 490 273 487 286 Q 484 299 484 300 Q 484 304 487 307 L 495 317 Q 499 324 502 334 Q 504 344 505 352 Q 506 360 505 369 Q 503 376 501 382 L 495 394 Q 494 399 494 402 Q 494 405 501 417 Q 507 429 507 444 Q 507 458 501 473 Q 491 499 474 505 Q 458 512 446 512 Q 434 512 425 509 Q 417 506 396 498 Q 375 489 362 477 Q 348 465 344 466 Q 341 467 335 472 Q 329 477 309 486 Q 290 496 274 501 Q 258 506 238 505 Q 218 505 209 498 Q 201 491 196 479 Z M 148 142 H 183 Q 198 142 213 139 Q 228 136 225 100 Q 224 84 218 78 Q 213 71 206 68 Q 199 65 192 64 H 173 Q 168 64 166 62 Q 164 61 164 56 L 165 48 Q 164 43 156 34 Q 148 25 121 22 Q 104 20 95 29 Q 86 38 79 59 Q 72 80 65 99 Q 57 117 45 146 Q 32 175 26 190 Q 20 204 21 216 Q 22 227 27 233 Q 31 239 42 247 Q 53 254 56 252 Q 59 251 59 250 Q 59 249 55 244 Q 54 243 52 237 Q 50 232 48 225 Q 46 218 47 205 Q 47 191 54 173 Q 61 155 94 155 H 121 Q 129 155 131 152 L 133 147 Q 134 144 136 143 Q 138 142 148 142 Z M 180 348 190 348 Q 193 348 194 340 Q 195 332 199 323 Q 204 314 209 307 Q 215 301 215 298 L 212 286 L 211 273 Q 208 269 193 269 Q 188 270 181 270 Q 173 270 172 268 Q 170 267 170 259 L 171 252 Q 171 250 172 249 Q 173 248 183 247 Q 194 247 200 245 Q 206 244 211 232 Q 215 219 214 202 Q 212 188 206 182 Q 200 175 182 175 H 93 Q 75 175 70 187 Q 65 198 65 211 Q 65 225 71 235 Q 76 245 80 246 Q 84 247 89 247 Q 93 248 94 249 Q 95 249 95 257 L 96 265 Q 95 267 94 268 L 61 270 Q 73 281 52 273 Q 48 276 46 287 Q 43 298 44 305 Q 44 312 46 324 Q 49 337 53 343 Q 58 348 67 348 H 82 Q 87 348 91 350 Q 94 352 94 363 Q 94 375 94 381 Q 94 388 94 391 Q 93 396 91 398 Q 88 399 80 404 Q 72 408 70 414 Q 68 419 67 430 Q 67 441 70 452 Q 72 460 77 469 Q 81 478 86 482 Q 90 486 98 486 Q 105 487 124 482 L 183 463 Q 190 461 191 459 Q 192 457 190 448 Q 188 439 193 426 Q 196 416 201 409 Q 207 402 207 400 L 199 392 Q 195 388 195 381 Q 195 373 193 372 Q 192 371 184 374 Q 177 378 173 375 Q 171 374 171 365 Q 171 357 170 354 Q 170 351 171 350 Q 172 349 180 348 Z M 228 174 Q 231 181 233 188 Q 236 195 236 209 Q 236 226 232 236 L 229 244 Q 228 260 230 282 Q 232 303 261 305 L 295 307 Q 299 308 302 311 Q 304 313 304 317 Q 304 328 284 328 Q 263 328 248 325 Q 234 322 227 325 Q 221 329 215 343 Q 210 357 217 370 Q 224 387 233 387 L 255 390 L 264 391 Q 270 391 271 394 Q 271 396 269 398 Q 263 403 247 406 Q 231 409 222 417 Q 213 424 212 437 Q 211 449 215 460 Q 218 471 224 477 Q 230 483 243 484 Q 251 484 264 481 Q 278 477 292 471 Q 306 464 317 455 Q 329 445 332 442 L 348 423 Q 357 412 362 418 Q 367 424 367 427 Q 367 428 367 429 L 364 441 Q 364 445 370 453 Q 376 461 403 474 Q 430 488 449 487 Q 463 486 472 477 Q 482 468 484 457 Q 486 446 485 439 Q 484 430 480 424 Q 475 418 464 413 L 442 405 Q 425 398 426 395 Q 426 394 427 393 Q 429 392 436 392 L 461 390 Q 473 390 478 379 Q 483 368 484 362 Q 485 356 482 343 Q 476 323 465 321 L 452 324 L 428 328 Q 425 329 406 328 Q 386 328 383 325 Q 380 323 380 319 Q 380 315 383 312 Q 386 307 399 308 Q 412 308 428 307 Q 443 305 451 301 Q 459 297 464 287 Q 469 277 469 266 L 469 191 Q 469 171 466 160 Q 464 149 452 144 L 436 139 Q 432 136 432 129 Q 432 123 440 121 L 462 123 Q 463 124 464 123 Q 486 122 487 97 Q 488 71 480 62 Q 476 59 472 57 Q 468 56 453 55 Q 438 55 437 53 Q 436 51 431 38 Q 427 26 396 26 Q 384 26 376 28 Q 368 31 365 34 L 357 49 Q 351 57 344 51 L 333 34 Q 326 25 304 25 Q 284 25 277 30 Q 269 36 267 39 L 262 51 Q 260 53 256 53 L 241 55 L 232 59 Q 236 64 239 72 Q 243 79 244 94 Q 245 109 245 111 L 245 120 Q 248 119 249 119 Q 251 119 258 119 Q 265 120 265 128 Q 265 136 257 139 L 245 143 Q 226 144 237 149 Q 235 152 234 155 Q 231 162 230 170 L 228 174 Z" fill="black" />
  </g>
  <g class="defect" id="01">
    <path d="M 61 270 Q 73 281 52 273" fill="none" stroke="red" stroke-width="3" />
  </g>
  <g class="defect" id="02">
    <path d="M 245 143 Q 226 144 237 149" fill="none" stroke="red" stroke-width="3" />
  </g>
</svg>