<svg xmlns="http://www.w3.org/2000/svg" width="512" height="512" viewBox="0 0 512 512">
  <g class="glyph">
    <path d="M 307 343 Q 307 333 322 334 Q 329 334 332 337 Q 334 340 334 343 Q 334 345 332 348 Q 330 351 320 351 Q 310 350 308 347 Q 307 344 307 343 Z M 308 387 Q 308 383 309 382 Q 310 381 316 380 L 320 380 Q 322 380 325 380 Q 329 379 332 383 Q 334 386 335 391 Q 335 397 325 398 Q 316 399 312 396 Q 308 393 308 390 Q 308 388 308 387 Z M 386 388 Q 386 387 388 383 Q 391 380 399 379 Q 408 378 411 382 Q 413 386 414 389 Q 414 392 411 395 Q 408 398 403 398 Q 398 399 392 395 Q 387 392 386 388 Z M 399 221 Q 414 222 414 232 Q 413 240 403 241 Q 393 242 390 239 Q 387 236 387 234 Q 386 232 386 232 Q 388 231 388 226 Q 389 221 399 221 Z M 387 343 Q 387 335 397 334 Q 407 334 410 337 Q 413 340 413 343 Q 413 347 410 349 Q 408 352 401 353 Q 394 353 390 349 Q 387 346 387 343 Z M 388 179 Q 388 174 391 173 Q 394 172 399 171 Q 405 171 406 171 Q 410 172 412 174 Q 414 176 414 179 Q 414 181 412 184 Q 409 188 402 187 Q 399 187 393 185 Q 388 183 388 179 Z M 204 62 Q 217 48 227 43 Q 237 38 250 37 Q 264 36 272 36 Q 279 37 283 36 Q 287 35 290 31 L 298 20 Q 300 17 312 10 Q 324 3 338 1 Q 352 0 360 1 Q 381 2 390 9 Q 400 16 403 19 L 415 34 Q 418 37 428 37 H 449 Q 468 37 478 40 Q 487 44 494 52 Q 501 60 505 72 Q 509 84 508 103 Q 508 112 507 118 Q 505 124 499 134 Q 494 143 493 145 Q 492 148 492 153 Q 492 157 493 160 L 501 167 Q 504 171 507 179 Q 510 187 511 190 Q 512 193 512 205 Q 512 216 511 223 Q 508 239 498 247 Q 489 255 488 257 Q 486 258 485 267 Q 484 276 482 281 Q 480 286 480 288 Q 480 289 485 296 Q 490 302 493 315 Q 496 327 497 333 L 497 444 Q 497 462 492 479 Q 486 496 470 503 Q 453 511 427 511 Q 417 511 412 510 L 386 504 Q 384 504 375 505 Q 366 507 362 507 Q 354 507 342 503 Q 331 498 330 498 Q 327 499 314 505 Q 300 512 282 511 Q 267 511 257 507 Q 247 503 247 502 Q 247 502 223 501 Q 199 500 182 481 Q 167 487 135 498 Q 102 508 91 507 Q 60 507 50 480 Q 41 453 41 439 Q 41 426 42 419 Q 46 405 56 397 Q 65 388 67 386 L 67 373 Q 68 366 67 365 Q 66 365 46 364 Q 26 363 21 341 Q 15 318 15 307 Q 15 300 17 291 Q 18 282 23 275 Q 27 269 27 268 Q 27 266 18 259 Q 9 252 4 243 Q 0 234 0 222 Q 0 212 2 202 Q 5 193 15 166 Q 26 139 29 132 L 41 99 Q 53 65 57 51 Q 61 37 70 23 Q 78 9 107 9 Q 124 9 140 15 Q 155 21 162 29 Q 169 37 171 45 Q 172 52 173 53 Q 175 54 179 55 L 194 58 L 204 62 Z M 210 269 Q 222 281 222 301 Q 223 320 220 329 Q 217 339 209 349 Q 201 359 198 364 Q 195 370 193 378 Q 192 385 189 408 Q 187 430 186 437 Q 186 444 190 458 Q 195 471 207 477 Q 219 483 227 482 Q 233 481 236 478 Q 239 474 239 459 V 380 L 241 334 Q 241 314 245 306 L 255 288 Q 256 285 256 284 Q 256 283 256 282 L 253 262 L 252 246 Q 252 243 251 240 L 244 222 Q 239 211 239 195 Q 239 179 245 169 L 254 152 L 261 128 Q 264 121 271 116 Q 277 112 284 112 L 311 112 Q 327 112 327 117 Q 327 122 325 125 Q 322 128 311 128 L 287 127 Q 281 127 277 134 Q 272 140 272 150 Q 271 159 278 165 Q 271 189 298 171 L 318 171 Q 327 172 326 177 Q 326 181 324 184 Q 322 187 317 186 Q 280 186 274 183 Q 267 180 261 180 Q 255 180 255 194 Q 255 207 257 213 Q 260 220 264 222 L 281 219 L 304 220 Q 322 221 324 224 Q 326 226 326 231 Q 327 236 314 236 L 293 237 Q 270 238 270 259 Q 270 267 275 273 Q 280 278 288 278 L 311 280 Q 325 281 325 287 Q 326 293 311 294 L 287 294 Q 256 296 256 343 V 453 Q 256 476 264 484 Q 272 492 287 492 Q 302 492 308 485 Q 314 479 316 469 L 318 441 Q 319 435 322 435 Q 326 435 329 438 Q 330 440 331 443 L 333 467 Q 334 473 341 480 Q 347 487 359 487 Q 370 487 373 483 Q 392 481 375 477 L 376 449 Q 377 439 384 430 Q 392 421 405 422 Q 414 422 415 426 Q 415 431 414 432 L 401 439 Q 397 442 394 447 Q 391 452 391 463 Q 391 474 399 485 Q 407 495 439 492 Q 454 491 463 485 Q 460 468 475 471 Q 480 461 480 426 L 480 364 Q 480 329 474 313 Q 467 298 449 297 L 428 296 L 408 295 Q 401 294 399 292 Q 398 290 398 286 Q 398 282 408 282 H 432 Q 454 282 460 277 Q 466 272 468 266 Q 470 259 470 252 Q 470 244 471 243 Q 473 241 484 237 Q 495 232 495 206 Q 495 190 490 185 Q 486 180 481 178 Q 477 176 475 175 Q 474 174 474 170 L 474 154 Q 472 141 464 136 Q 457 131 437 130 Q 417 130 411 129 Q 404 129 403 127 Q 401 124 401 119 Q 400 113 416 113 Q 445 112 457 114 Q 469 117 474 122 Q 480 127 481 127 Q 483 126 487 121 Q 491 116 491 99 Q 490 93 488 75 Q 486 57 456 58 L 445 58 H 438 L 414 59 Q 402 58 400 56 Q 398 53 395 44 Q 392 35 385 28 Q 378 21 346 21 Q 324 22 318 28 Q 312 34 310 39 L 306 51 Q 302 58 296 58 H 268 Q 236 58 229 64 Q 221 71 218 79 Q 220 84 223 91 Q 226 98 226 113 Q 227 128 223 138 Q 220 147 211 157 Q 212 183 212 198 Q 212 212 212 215 L 210 260 Z M 152 77 Q 155 68 155 60 Q 155 51 143 40 Q 131 29 111 30 Q 99 31 91 37 Q 83 43 77 61 L 58 118 L 31 182 Q 19 208 20 218 Q 20 228 24 235 Q 29 242 41 251 Q 53 260 59 258 Q 62 258 62 257 Q 63 255 63 254 Q 63 252 58 248 Q 51 241 50 226 Q 48 211 48 203 Q 49 190 57 173 Q 64 156 86 156 H 111 Q 122 156 124 154 Q 126 153 127 150 Q 129 147 129 147 Q 129 146 141 146 L 187 147 Q 194 147 201 139 Q 208 132 208 109 Q 208 91 202 85 Q 196 78 180 77 Q 175 77 152 77 Z M 168 246 H 173 Q 186 246 190 233 Q 194 220 193 206 Q 192 186 183 180 Q 173 173 156 173 L 101 173 Q 86 173 80 177 Q 74 180 70 188 Q 66 196 66 203 Q 65 209 67 223 Q 68 232 71 237 Q 74 242 80 244 L 85 245 Q 88 247 88 248 Q 89 249 89 253 V 265 Q 88 271 83 271 H 63 Q 50 271 45 276 Q 41 281 38 289 Q 36 296 36 307 Q 35 318 39 328 Q 41 334 45 337 Q 48 340 55 341 Q 62 342 67 342 H 83 Q 86 342 88 344 Q 89 345 89 358 V 383 L 90 400 Q 88 402 80 406 Q 71 411 66 418 Q 61 425 61 433 Q 60 441 64 455 Q 69 472 78 481 Q 87 491 108 483 L 159 466 Q 165 464 167 461 Q 169 458 167 448 Q 165 438 165 433 Q 165 428 167 413 Q 168 403 170 395 Q 172 386 170 385 Q 168 384 167 385 L 157 387 Q 155 386 156 382 Q 156 381 156 378 Q 157 374 157 371 Q 157 368 156 361 Q 156 354 155 350 Q 155 346 157 344 Q 158 342 163 342 H 179 Q 196 342 199 329 Q 203 316 203 303 Q 202 294 200 288 Q 198 283 193 277 Q 187 272 182 272 L 166 271 Q 160 271 159 271 Q 157 270 157 266 Q 156 262 156 256 Q 156 250 158 248 Q 160 246 168 246 Z" fill="black" />
  </g>
  <g class="defect" id="01">
    <path d="M 373 483 Q 392 481 375 477" fill="none" stroke="red" stroke-width="3" />
  </g>
  <g class="defect" id="02">
    <path d="M 463 485 Q 460 468 475 471" fill="none" stroke="red" stroke-width="3" />
  </g>
  <g class="defect" id="03">
    <path d="M 278 165 Q 271 189 298 171" fill="none" stroke="red" stroke-width="3" />
  </g>
</svg>