<svg xmlns="http://www.w3.org/2000/svg" width="512" height="512" viewBox="0 0 512 512">
  <g class="glyph">
    <path d="M 248 17 Q 264 4 285 4 L 446 6 Q 482 7 492 19 Q 502 31 505 45 Q 509 60 509 73 Q 509 86 503 103 Q 498 113 493 120 Q 488 126 488 128 Q 486 130 492 143 Q 497 155 497 174 L 494 318 Q 494 339 491 351 Q 489 364 485 370 Q 481 376 474 379 Q 488 389 498 399 Q 508 410 510 424 Q 512 438 507 451 Q 503 462 489 480 Q 475 498 448 498 Q 431 498 404 483 Q 378 467 373 460 L 361 449 Q 323 478 301 487 Q 278 496 251 495 Q 225 495 215 471 Q 205 448 205 436 L 205 430 Q 204 437 204 440 V 452 Q 203 473 191 484 Q 180 494 153 494 L 103 494 Q 89 494 82 488 Q 74 483 70 477 Q 67 472 65 466 Q 62 459 62 459 Q 61 458 54 461 Q 46 463 40 462 Q 29 460 22 456 Q 14 451 7 436 Q 0 421 1 407 Q 2 399 5 390 Q 9 382 31 359 Q 53 335 52 328 Q 51 325 49 325 L 37 324 Q 25 323 17 311 Q 9 299 10 280 Q 10 258 20 246 Q 30 235 40 234 Q 51 232 64 232 H 71 Q 83 232 85 230 Q 87 229 87 224 L 87 217 Q 62 215 48 207 Q 33 198 28 182 Q 23 166 23 146 V 84 Q 23 60 25 45 Q 28 31 41 15 Q 55 0 85 0 Q 115 0 129 11 Q 142 20 144 21 Q 146 22 151 22 Q 159 23 179 18 Q 198 13 208 12 Q 217 11 227 12 Q 240 13 248 17 Z M 261 34 Q 270 52 272 67 Q 272 76 270 84 Q 269 92 269 94 L 274 103 L 277 109 L 304 111 Q 317 111 318 116 Q 318 121 315 123 Q 313 126 308 126 L 289 128 L 282 129 Q 282 132 282 134 Q 282 137 281 147 Q 280 156 275 167 Q 270 177 254 192 L 254 224 Q 270 234 276 248 Q 281 263 281 272 Q 281 281 277 290 Q 273 298 254 315 V 332 Q 278 360 284 370 Q 306 370 311 363 Q 316 357 317 348 Q 319 339 319 330 L 321 259 Q 321 230 322 215 Q 324 201 329 194 Q 334 187 343 182 Q 353 178 378 179 Q 399 179 407 189 Q 416 198 416 224 L 414 351 Q 431 357 455 368 Q 466 365 469 355 Q 473 345 473 320 L 476 183 Q 476 165 472 151 Q 468 136 447 130 L 419 127 Q 414 126 413 125 Q 412 123 411 120 Q 411 118 414 115 Q 417 112 423 111 L 453 111 Q 470 110 477 103 Q 485 96 485 80 Q 485 64 484 55 Q 483 44 478 39 Q 474 33 466 31 Q 457 28 428 28 L 321 26 Q 287 25 279 26 Q 270 28 261 34 Z M 233 206 Q 221 212 204 215 Q 204 219 203 223 Q 203 226 203 227 Q 204 228 211 222 Q 218 217 233 217 Z M 289 389 Q 288 393 287 401 Q 286 410 277 419 Q 268 428 255 435 Q 243 443 227 442 Q 228 447 230 452 Q 233 457 242 466 Q 251 474 265 475 Q 291 462 301 464 Q 325 452 349 431 Q 348 424 348 417 Q 347 409 355 388 Q 362 367 381 360 L 396 353 L 399 250 Q 400 218 399 212 Q 398 205 392 200 Q 387 196 371 196 Q 350 196 345 206 Q 340 215 339 240 Q 338 265 337 294 L 336 335 Q 336 358 329 374 Q 322 389 289 389 Z M 233 341 Q 219 326 218 325 Q 218 323 218 321 Q 218 320 219 319 L 229 311 L 233 307 L 254 286 Q 256 283 258 278 Q 260 272 256 261 Q 250 245 240 242 Q 230 239 228 239 Q 222 239 216 243 Q 210 247 202 255 Q 193 263 188 262 Q 183 261 183 256 V 225 Q 183 213 181 206 Q 178 198 171 194 Q 164 189 142 190 Q 124 191 118 196 Q 111 200 110 205 Q 109 210 108 219 Q 108 228 109 230 Q 110 232 119 235 Q 127 238 134 243 Q 140 248 143 261 Q 145 274 145 283 Q 146 292 144 303 L 138 335 L 131 362 Q 125 385 115 398 Q 106 411 98 417 Q 90 424 87 428 Q 84 432 84 445 Q 85 474 112 475 L 138 475 Q 167 475 174 468 Q 182 460 183 443 L 183 398 Q 184 382 188 382 Q 193 382 198 390 Q 205 400 211 407 Q 218 414 222 417 Q 226 419 234 418 Q 251 418 258 409 Q 265 399 266 393 Q 266 387 262 379 Q 257 368 233 341 Z M 233 180 Q 252 162 256 152 Q 260 142 260 134 Q 258 115 248 109 L 234 101 Q 221 97 212 97 Q 200 97 193 103 L 179 123 Q 172 127 153 126 Q 132 126 130 123 Q 127 120 127 118 Q 127 115 129 112 Q 131 109 145 108 Q 159 107 163 104 L 182 85 Q 192 76 206 76 Q 221 76 251 84 Q 251 76 250 57 Q 250 37 235 35 Q 221 32 199 35 L 160 40 L 138 44 Q 132 45 129 43 L 119 32 Q 111 24 87 24 Q 63 23 53 35 Q 48 40 46 49 Q 44 57 44 73 L 44 128 Q 44 156 50 172 Q 57 189 70 189 L 93 193 Q 97 187 105 177 Q 113 168 138 169 Q 163 170 176 174 Q 189 178 193 184 L 201 192 Q 221 188 233 180 Z M 108 372 119 338 124 311 Q 126 299 126 282 Q 126 264 117 256 Q 108 247 86 248 L 63 249 Q 50 249 39 252 Q 28 255 28 279 Q 28 282 29 290 Q 30 298 34 302 Q 38 306 41 307 Q 45 308 60 308 Q 75 308 77 311 Q 79 314 79 318 Q 80 322 75 333 Q 65 355 48 372 L 33 388 Q 29 393 26 398 Q 23 404 22 414 Q 21 424 32 433 Q 43 443 52 440 Q 58 438 62 430 L 68 415 Q 70 410 73 408 Q 76 406 83 402 Q 90 398 91 396 L 108 372 Z M 409 372 Q 398 372 386 380 Q 374 388 371 401 Q 367 414 367 419 Q 368 432 384 445 Q 399 458 418 469 Q 438 479 452 477 Q 462 476 471 469 Q 480 462 485 450 Q 490 439 489 429 Q 487 419 482 413 Q 477 407 457 395 Q 437 382 426 377 Q 414 372 409 372 Z" fill="black" />
  </g>
  <g class="defect" id="01">
    <path d="M 265 475 Q 291 462 301 464" fill="none" stroke="red" stroke-width="3" />
  </g>
</svg>