<svg xmlns="http://www.w3.org/2000/svg" width="512" height="512" viewBox="0 0 512 512">
  <g class="glyph">
    <path d="M 204 470 Q 200 481 195 491 Q 189 501 176 505 Q 163 510 147 510 Q 106 511 93 501 Q 80 491 79 477 Q 78 462 77 462 Q 76 461 70 463 Q 65 464 56 463 Q 45 461 36 457 Q 28 453 14 436 Q 0 419 1 397 Q 1 388 4 380 L 20 352 Q 20 351 20 350 Q 20 349 19 346 L 7 325 Q 4 318 3 307 Q 3 296 5 287 Q 6 280 8 275 L 21 254 L 17 227 Q 16 224 16 220 Q 16 214 17 209 L 23 184 Q 22 183 19 170 Q 15 157 15 151 V 82 Q 15 59 21 30 Q 26 0 85 0 Q 110 0 123 10 Q 137 20 140 21 Q 142 22 147 22 Q 156 22 182 16 Q 208 10 220 11 Q 231 12 243 18 Q 259 5 280 5 L 444 7 Q 482 8 492 20 Q 502 32 505 47 Q 509 62 509 75 Q 509 87 502 106 Q 498 118 493 124 Q 488 130 487 131 Q 486 134 492 147 Q 497 159 497 179 L 494 326 Q 494 347 491 360 Q 489 372 485 379 Q 481 385 473 388 Q 488 399 498 409 Q 508 419 510 434 Q 512 449 507 462 Q 503 473 493 487 Q 482 500 473 506 Q 464 511 447 510 Q 427 508 401 493 Q 375 478 370 471 L 358 460 Q 320 489 297 498 Q 274 507 256 507 Q 239 507 226 499 Q 213 491 204 470 Z M 267 378 Q 273 380 281 379 Q 302 378 307 372 Q 312 365 313 357 Q 314 349 315 338 L 317 265 Q 318 229 318 218 Q 319 206 325 199 Q 330 191 340 187 Q 350 183 375 184 Q 396 184 405 194 Q 415 203 414 229 L 413 360 Q 431 366 454 377 Q 465 374 469 363 Q 472 353 473 328 L 475 188 Q 475 169 471 155 Q 467 140 445 134 L 417 131 Q 412 130 411 128 Q 409 127 409 124 Q 409 121 412 118 Q 415 115 421 115 L 452 114 Q 469 113 477 106 Q 485 99 485 83 Q 485 68 484 57 Q 482 46 478 40 Q 474 35 465 32 Q 456 30 426 29 L 317 27 Q 282 27 274 28 Q 267 29 259 33 Q 262 39 265 45 Q 267 51 269 64 Q 286 77 271 86 Q 271 96 272 99 L 274 106 L 277 113 L 299 114 Q 310 114 312 117 Q 313 119 313 121 Q 314 124 311 127 Q 309 129 303 130 L 285 131 L 279 132 Q 274 160 271 164 L 264 173 Q 261 179 260 182 Q 260 185 260 186 L 264 205 Q 265 210 265 214 Q 264 228 259 239 L 250 254 Q 249 256 249 258 Q 249 260 252 265 L 261 278 Q 267 290 266 303 Q 266 316 265 317 L 253 344 Q 265 365 266 372 L 267 378 Z M 264 398 Q 256 416 246 424 Q 236 433 220 438 Q 220 442 219 451 Q 219 460 232 473 Q 245 485 259 486 Q 273 488 296 475 Q 320 463 328 456 L 346 442 Q 344 434 344 426 Q 344 419 352 398 Q 360 376 378 369 L 394 362 L 397 257 Q 397 223 396 217 Q 396 211 390 206 Q 384 201 368 201 Q 347 201 342 211 Q 336 221 335 246 Q 334 271 334 301 L 333 343 Q 332 366 325 382 Q 318 397 287 398 Q 281 399 264 398 Z M 185 179 122 184 74 186 Q 54 188 48 194 Q 42 200 40 208 Q 39 215 38 226 Q 38 236 46 245 Q 54 253 71 254 L 90 255 Q 98 256 98 261 Q 99 265 97 267 Q 95 269 92 269 L 55 271 Q 42 271 34 280 Q 25 289 26 302 Q 26 315 31 322 Q 37 329 42 331 L 65 337 Q 67 339 68 341 Q 69 344 58 352 L 40 367 Q 23 382 23 399 Q 23 415 37 430 Q 48 441 62 441 Q 72 441 79 438 L 92 432 Q 95 431 97 433 Q 98 434 99 436 Q 100 438 100 456 Q 101 475 108 481 Q 114 486 137 488 Q 160 489 169 483 Q 175 479 177 473 Q 180 468 181 459 Q 183 450 182 446 Q 181 442 170 426 L 140 387 Q 123 365 128 343 Q 131 327 148 313 Q 166 298 187 298 Q 207 298 219 311 Q 231 324 235 323 Q 239 322 242 316 Q 245 310 245 304 Q 245 292 238 283 Q 231 274 218 272 L 193 270 Q 185 268 185 261 Q 185 255 190 252 L 218 247 Q 229 245 236 236 Q 243 227 242 211 Q 242 201 236 189 Q 229 178 208 178 Q 207 178 185 179 Z M 155 163 209 157 Q 220 156 229 158 Q 238 160 240 160 Q 244 159 249 153 Q 254 147 255 134 Q 256 121 249 111 Q 241 101 228 98 Q 215 95 209 95 Q 197 95 190 101 L 175 121 Q 168 125 148 124 Q 127 124 125 121 Q 122 118 122 116 Q 122 113 125 110 Q 127 107 141 106 Q 155 105 159 103 L 178 84 Q 189 75 203 75 Q 212 75 226 79 Q 240 83 244 81 Q 249 80 249 70 Q 248 55 238 45 Q 228 34 220 34 Q 212 33 201 35 L 161 43 Q 143 46 135 46 Q 127 46 124 43 L 114 31 Q 106 24 82 23 Q 57 23 47 34 Q 42 40 40 47 Q 38 55 38 72 L 37 133 Q 37 161 42 164 Q 46 168 54 168 Q 62 169 89 167 Z M 214 417 Q 225 415 237 405 Q 248 395 242 375 Q 241 369 233 357 Q 226 344 216 331 Q 207 319 191 318 Q 175 318 164 326 Q 147 339 151 359 Q 153 369 169 391 Q 185 413 195 416 Q 205 419 214 417 Z M 407 381 Q 396 381 384 389 Q 371 398 368 411 Q 364 424 364 429 Q 365 442 381 456 Q 397 469 417 480 Q 436 491 451 488 Q 461 487 470 480 Q 479 472 484 461 Q 489 449 488 439 Q 487 429 482 423 Q 476 417 455 404 Q 434 390 424 386 Q 413 381 407 381 Z" fill="black" />
  </g>
  <g class="defect" id="01">
    <path d="M 269 64 Q 286 77 271 86" fill="none" stroke="red" stroke-width="3" />
  </g>
</svg>