<svg xmlns="http://www.w3.org/2000/svg" width="512" height="512" viewBox="0 0 512 512">
  <g class="glyph">
    <path d="M 269 118 309 118 Q 323 118 326 121 Q 328 124 328 129 Q 328 140 315 140 H 269 Q 253 140 253 129 Q 253 118 269 118 Z M 1 430 18 362 25 315 29 246 31 118 Q 33 27 119 28 L 174 29 L 185 29 Q 186 29 187 29 Q 188 29 192 28 Q 197 28 199 26 Q 202 25 216 12 Q 231 0 274 0 Q 292 0 306 3 Q 321 6 328 11 L 348 27 Q 352 30 358 30 Q 364 30 386 30 H 443 Q 463 30 488 35 Q 512 40 512 89 Q 512 104 507 113 L 498 130 Q 496 132 496 134 Q 495 136 499 144 Q 502 152 503 161 Q 504 171 502 178 Q 500 188 493 193 Q 487 198 486 200 Q 486 202 490 209 L 499 228 L 507 243 Q 511 254 511 266 Q 510 281 504 289 Q 498 296 488 303 Q 477 311 468 312 Q 462 312 453 311 Q 444 309 443 310 Q 442 311 444 318 Q 445 326 446 327 Q 446 328 446 329 L 442 354 Q 442 355 445 358 L 476 396 Q 506 431 504 452 Q 503 473 496 483 Q 489 493 485 497 Q 481 502 471 505 Q 460 508 457 508 L 422 510 L 221 510 Q 204 510 192 507 Q 180 503 171 499 Q 163 496 160 495 Q 157 495 144 500 Q 131 504 93 504 Q 62 505 42 496 Q 23 487 12 475 Q 0 463 0 454 Q 0 446 0 446 Z M 54 199 49 300 43 358 34 397 25 429 Q 24 435 24 440 Q 24 454 38 469 Q 51 484 96 482 Q 127 482 135 478 Q 144 474 148 465 Q 151 456 150 452 Q 149 449 146 446 Q 142 443 128 434 Q 114 426 108 414 Q 102 403 101 387 Q 101 372 106 362 Q 110 355 125 341 Q 140 327 144 323 Q 147 318 147 314 Q 146 310 141 306 L 121 295 Q 113 290 108 282 Q 104 274 103 267 Q 103 260 105 252 L 114 215 Q 114 213 114 211 Q 114 209 109 195 Q 104 182 103 162 Q 103 142 116 128 Q 124 120 132 119 Q 139 118 160 117 Q 169 117 175 119 Q 180 120 180 125 Q 180 131 178 133 Q 177 134 174 135 L 145 137 Q 136 139 131 145 Q 125 150 125 163 Q 124 175 128 176 Q 132 177 143 173 Q 154 169 182 169 Q 209 168 211 199 Q 212 230 204 258 Q 200 268 199 274 Q 198 279 196 282 Q 205 299 195 289 Q 195 293 203 286 L 216 276 Q 226 268 226 259 V 216 Q 226 193 238 181 Q 249 169 270 169 Q 273 169 277 169 L 297 173 L 325 170 Q 333 170 344 175 Q 354 179 361 187 Q 368 194 369 206 Q 370 217 367 234 Q 364 254 362 261 Q 360 267 361 270 Q 361 279 376 278 Q 384 278 388 275 Q 393 271 393 266 L 391 256 L 390 226 Q 388 211 389 201 Q 389 190 398 179 Q 408 169 436 168 Q 451 168 461 175 Q 472 181 474 180 Q 481 179 480 165 Q 479 151 473 145 Q 466 138 448 138 L 423 138 Q 406 138 403 135 Q 400 131 400 128 Q 400 125 403 123 Q 406 120 409 119 Q 413 118 430 118 L 458 118 Q 473 118 481 109 Q 489 101 488 86 Q 488 73 479 63 Q 470 53 442 52 L 365 52 Q 340 52 336 51 Q 331 51 328 48 L 320 35 Q 310 23 279 22 Q 251 22 239 27 Q 228 32 225 35 L 214 48 Q 209 51 203 51 L 121 51 Q 87 51 75 63 Q 62 75 58 93 Q 54 111 54 139 Z M 236 489 302 488 384 488 Q 438 489 451 486 Q 465 483 472 476 Q 479 469 480 454 Q 481 438 468 419 Q 462 410 446 392 Q 429 373 419 365 Q 410 357 388 356 Q 381 356 360 359 Q 338 362 338 374 Q 338 385 341 391 L 350 406 Q 351 409 351 410 Q 350 416 341 416 Q 333 416 329 412 Q 325 408 319 397 Q 313 386 313 377 Q 314 367 328 351 Q 343 335 388 335 Q 394 335 402 336 Q 410 338 412 337 Q 417 337 419 329 Q 421 321 418 315 Q 415 309 403 301 Q 390 293 365 295 Q 344 297 332 308 L 308 329 Q 305 332 281 355 Q 258 377 247 384 Q 237 391 211 407 Q 185 422 180 428 Q 175 435 174 444 Q 173 454 176 463 Q 178 472 185 480 Q 191 487 212 488 Z M 136 204 124 251 Q 122 256 123 263 Q 123 270 128 276 Q 134 281 143 284 Q 152 286 156 286 Q 167 286 175 279 Q 184 271 189 247 Q 195 223 193 204 Q 192 184 165 184 Q 153 184 146 190 Q 138 196 136 204 Z M 244 245 V 247 Q 244 258 254 258 Q 258 258 264 254 Q 269 251 272 234 Q 274 217 276 208 Q 278 200 278 196 Q 278 192 276 189 Q 273 187 267 187 Q 256 188 250 194 Q 243 200 243 213 Q 243 225 243 232 L 244 245 Z M 294 224 287 254 Q 287 256 287 258 Q 287 259 288 261 Q 291 265 308 276 Q 324 286 327 285 Q 327 283 347 252 Q 351 221 351 216 Q 350 200 343 193 Q 337 186 324 185 Q 312 185 306 191 Q 299 197 296 210 Q 294 223 294 224 Z M 407 224 Q 407 240 410 250 Q 413 261 422 275 Q 430 290 447 291 Q 464 292 473 286 Q 482 279 485 269 Q 487 259 478 237 Q 468 215 462 202 Q 455 190 440 186 Q 430 185 418 190 Q 406 196 407 224 Z M 127 368 Q 124 373 123 385 Q 122 397 129 407 Q 132 413 140 418 Q 147 423 155 422 Q 159 421 169 411 Q 179 402 192 395 L 217 381 Q 241 366 272 337 Q 304 308 303 298 Q 302 292 292 285 Q 282 277 264 277 Q 251 278 242 282 Q 232 287 211 305 Q 190 322 162 339 Q 133 356 127 368 Z" fill="black" />
  </g>
  <g class="defect" id="01">
    <path d="M 196 282 Q 205 299 195 289" fill="none" stroke="red" stroke-width="3" />
  </g>
  <g class="defect" id="02">
    <path d="M 327 285 Q 327 283 347 252" fill="none" stroke="red" stroke-width="3" />
  </g>
</svg>