<svg xmlns="http://www.w3.org/2000/svg" width="512" height="512" viewBox="0 0 512 512">
  <g class="glyph">
    <path d="M 270 456 Q 255 455 248 451 Q 240 447 229 433 Q 227 454 225 467 Q 223 480 217 488 Q 212 495 204 499 Q 196 503 156 504 Q 116 506 104 498 Q 92 491 87 482 Q 82 473 82 461 L 82 449 Q 67 459 58 461 Q 44 463 31 456 Q 17 450 9 438 Q 1 426 1 415 Q 0 403 3 389 Q 6 380 8 373 Q 11 367 27 337 L 43 308 Q 37 307 29 303 Q 21 299 20 285 Q 20 271 24 258 Q 27 246 30 237 L 41 206 L 49 182 Q 29 174 22 166 Q 16 159 14 140 Q 12 121 13 114 Q 13 105 16 93 Q 19 80 26 72 Q 33 64 52 59 Q 63 58 74 58 Q 86 58 88 56 Q 90 55 95 40 Q 100 26 108 17 Q 101 21 134 5 Q 152 2 175 8 Q 215 29 205 28 Q 212 42 212 49 Q 212 56 214 58 Q 215 61 228 60 Q 241 59 269 61 Q 272 55 277 48 Q 283 41 296 37 Q 309 33 312 31 L 326 14 Q 333 6 348 3 Q 363 0 377 0 Q 406 1 417 9 Q 428 17 432 22 L 442 36 L 468 43 Q 481 48 488 59 Q 495 69 499 79 Q 503 89 503 109 L 504 159 Q 504 164 502 202 Q 501 241 500 247 Q 498 253 496 260 Q 493 267 494 270 Q 494 273 499 279 Q 503 286 508 299 Q 512 311 511 339 L 510 376 L 506 426 Q 502 469 485 488 Q 469 507 427 507 Q 391 507 381 504 Q 372 500 362 492 Q 353 484 352 477 L 346 457 Q 313 457 299 457 Q 284 457 270 456 Z M 308 435 Q 319 436 347 436 Q 350 423 354 415 Q 357 408 366 401 Q 374 395 385 395 Q 396 394 398 392 Q 400 391 400 383 Q 400 376 395 371 Q 390 366 368 365 L 283 362 Q 267 361 262 367 Q 257 372 255 381 Q 254 391 254 400 Q 254 422 261 427 Q 268 433 279 434 Z M 259 189 V 182 Q 246 183 227 182 V 188 Q 248 188 259 189 Z M 250 290 Q 256 290 263 289 Q 269 287 274 277 Q 279 267 279 249 Q 279 232 275 223 Q 266 210 246 210 L 220 210 Q 211 210 209 208 Q 207 206 207 187 Q 207 170 204 163 Q 201 156 192 153 Q 184 151 172 150 Q 160 150 148 154 Q 136 157 136 177 V 181 Q 136 188 136 196 Q 137 204 136 205 Q 136 207 134 209 Q 132 210 128 210 Q 121 210 120 207 Q 118 204 119 195 Q 120 193 120 174 Q 120 154 129 142 Q 137 131 167 130 Q 180 130 190 132 Q 200 135 207 139 Q 214 143 218 150 Q 222 157 225 159 Q 228 162 253 162 Q 278 161 286 154 Q 294 146 294 120 Q 294 108 291 100 Q 289 92 282 86 Q 274 80 251 80 L 202 79 Q 192 79 191 77 Q 190 75 192 68 Q 193 62 192 56 Q 190 41 180 34 Q 171 28 158 26 Q 146 23 137 26 Q 129 28 124 32 Q 119 37 116 43 Q 114 50 111 62 Q 108 75 105 77 Q 101 79 88 78 L 60 78 Q 30 78 32 121 Q 32 134 35 143 Q 38 153 43 157 Q 48 160 58 160 Q 68 161 71 162 Q 74 163 75 166 Q 76 168 68 192 L 58 221 Q 49 243 48 248 L 44 263 Q 41 272 42 275 Q 43 282 49 285 Q 55 288 81 289 L 112 289 Q 129 290 133 294 Q 137 297 137 309 L 136 380 Q 136 391 131 394 L 119 395 Q 113 397 108 404 Q 104 411 102 417 Q 101 423 101 437 Q 102 451 103 459 Q 105 467 112 475 Q 120 482 158 482 Q 191 481 200 472 Q 208 463 208 443 Q 207 423 207 418 Q 207 413 207 412 Q 207 408 205 404 Q 204 399 199 391 L 186 367 Q 183 361 182 352 Q 181 342 182 335 Q 184 319 193 309 Q 202 300 204 297 L 206 291 Q 208 290 216 290 Z M 233 409 Q 233 398 234 380 Q 235 361 244 353 Q 254 345 263 344 Q 272 343 272 342 Q 275 337 264 323 Q 252 309 236 310 Q 221 311 214 320 Q 206 329 205 337 Q 203 345 204 352 Q 205 359 207 362 Z M 48 336 26 378 Q 21 388 20 399 Q 19 409 22 415 Q 24 425 34 432 Q 43 440 53 439 Q 61 439 68 434 Q 74 429 83 415 L 96 394 Q 119 357 117 339 Q 116 323 101 315 Q 87 306 77 308 Q 69 309 63 315 Q 56 321 48 336 Z M 382 215 Q 388 216 399 213 Q 411 210 418 201 Q 424 192 424 182 Q 424 174 420 165 Q 417 157 408 138 Q 400 120 392 114 Q 385 107 377 107 Q 369 106 355 113 Q 340 121 339 132 Q 338 144 340 151 Q 342 157 350 175 Q 358 192 364 202 Q 370 212 382 215 Z M 485 408 487 380 Q 491 335 489 316 Q 486 297 481 290 L 474 283 Q 459 287 450 289 Q 441 290 398 290 Q 378 291 369 288 Q 360 285 356 279 Q 352 273 350 265 Q 349 257 349 247 Q 348 232 350 227 L 352 216 Q 329 171 325 158 Q 321 146 322 136 Q 323 122 331 112 Q 340 102 356 95 Q 373 88 384 90 Q 397 92 406 101 Q 414 110 425 133 Q 436 155 439 167 Q 442 179 442 187 Q 441 207 428 217 Q 415 227 403 231 Q 391 234 384 233 Q 376 233 368 227 Q 367 242 368 252 Q 368 263 373 268 Q 378 274 424 272 Q 462 271 470 260 Q 478 249 479 239 Q 481 228 481 195 L 482 128 Q 482 101 480 90 Q 477 78 468 69 Q 442 60 446 58 L 426 57 Q 421 56 420 55 Q 418 53 418 51 L 414 36 Q 408 20 376 20 Q 359 20 353 22 Q 346 24 340 29 Q 335 33 330 43 Q 325 54 323 55 Q 321 57 314 58 Q 308 59 301 61 Q 294 64 294 66 Q 294 67 302 73 Q 313 82 313 110 Q 314 137 311 148 Q 308 161 303 168 Q 297 175 290 177 Q 282 180 280 181 Q 279 183 279 187 Q 279 191 280 193 Q 280 194 287 201 Q 294 208 297 221 Q 300 234 300 246 Q 299 253 298 270 Q 296 287 288 296 Q 280 304 279 306 Q 279 308 285 317 Q 295 334 307 339 Q 318 344 340 344 L 383 345 Q 411 345 416 360 Q 420 374 421 389 Q 421 404 418 407 Q 416 409 412 410 L 386 413 Q 380 414 375 420 Q 369 425 368 446 Q 368 466 376 475 Q 387 485 417 485 Q 435 485 446 483 Q 458 480 467 472 Q 476 464 479 443 Z" fill="black" />
  </g>
  <g class="defect" id="01">
    <path d="M 108 17 Q 101 21 134 5" fill="none" stroke="red" stroke-width="3" />
  </g>
  <g class="defect" id="02">
    <path d="M 175 8 Q 215 29 205 28" fill="none" stroke="red" stroke-width="3" />
  </g>
  <g class="defect" id="03">
    <path d="M 468 69 Q 442 60 446 58" fill="none" stroke="red" stroke-width="3" />
  </g>
</svg>