<svg xmlns="http://www.w3.org/2000/svg" width="512" height="512" viewBox="0 0 512 512">
  <g class="glyph">
    <path d="M 94 257 V 216 Q 94 180 96 171 Q 97 163 103 163 Q 110 163 113 166 Q 116 169 117 175 L 117 259 Q 117 297 113 300 Q 109 303 105 302 Q 98 302 96 298 Q 94 293 94 257 Z M 126 411 H 60 Q 35 411 22 397 Q 8 383 4 371 Q 0 360 0 339 L 1 141 Q 1 123 3 104 Q 5 84 18 69 Q 31 53 100 54 L 130 55 Q 153 56 169 59 Q 185 61 196 72 Q 201 60 209 53 Q 218 45 230 43 Q 243 40 246 39 Q 248 38 253 33 L 266 17 Q 276 8 289 4 Q 302 0 332 1 Q 358 1 375 6 Q 391 10 397 23 Q 402 36 404 38 Q 406 39 417 39 Q 429 40 443 43 Q 457 46 466 55 Q 476 64 478 80 Q 481 96 481 112 L 482 162 Q 482 197 480 226 Q 477 255 474 262 Q 471 270 472 272 Q 472 273 483 278 Q 494 283 496 297 Q 499 310 498 343 L 497 380 L 491 430 Q 486 472 467 492 Q 448 511 392 511 Q 330 512 315 501 Q 300 490 300 481 L 297 460 L 192 461 Q 150 462 139 448 Q 129 434 127 418 L 126 411 Z M 125 391 Q 126 385 129 372 Q 131 359 146 350 Q 161 341 187 341 L 188 334 L 189 140 Q 189 112 185 102 Q 180 92 170 85 Q 160 78 140 78 Q 121 78 85 76 Q 48 74 36 87 Q 23 99 23 126 L 23 302 V 335 Q 23 344 22 347 Q 22 350 23 354 Q 27 381 43 386 Q 60 390 75 390 Z M 195 364 Q 167 366 161 371 Q 154 375 151 384 Q 149 393 150 407 Q 151 422 155 428 Q 158 434 170 439 L 268 440 H 297 Q 299 427 305 414 Q 312 400 333 401 Q 355 402 357 399 Q 360 396 359 389 Q 358 376 349 371 Q 341 365 315 365 Z M 338 219 Q 344 221 358 218 Q 373 215 381 205 Q 388 195 388 185 Q 388 177 382 165 L 370 142 Q 360 123 352 116 Q 345 108 335 107 Q 325 106 304 115 Q 283 124 288 152 Q 290 160 300 179 Q 311 199 318 208 Q 325 218 338 219 Z M 469 411 472 384 Q 475 339 473 318 Q 471 296 464 294 L 449 287 Q 430 291 419 292 Q 409 293 357 294 Q 333 294 322 291 Q 311 289 306 283 Q 300 277 299 269 Q 297 261 297 250 Q 297 235 298 230 L 301 219 Q 288 198 279 183 Q 270 168 267 155 Q 263 141 265 132 Q 266 123 281 106 Q 295 89 329 87 Q 343 86 353 90 Q 363 94 370 105 Q 377 115 390 138 Q 403 160 406 171 Q 410 182 410 190 Q 410 213 392 224 Q 374 235 358 239 Q 342 242 337 239 L 320 233 Q 319 246 320 256 Q 321 265 326 272 Q 332 278 388 276 Q 435 275 444 264 Q 453 252 455 242 Q 457 232 457 199 L 458 131 Q 458 107 456 94 Q 453 80 445 71 Q 436 62 414 61 L 390 59 Q 385 59 383 57 Q 381 56 380 54 L 376 39 Q 374 34 367 29 Q 359 24 329 22 Q 308 21 300 23 Q 292 25 286 30 Q 280 35 274 45 Q 269 56 266 58 Q 263 60 250 61 Q 236 62 229 67 Q 221 73 217 83 Q 213 94 213 105 V 268 Q 232 315 220 327 Q 226 340 234 342 Q 223 345 272 346 L 328 346 Q 357 347 365 351 Q 373 355 377 362 Q 381 368 382 376 Q 392 384 382 395 Q 381 408 378 412 Q 374 417 362 418 L 344 419 Q 335 420 328 424 Q 321 428 321 449 Q 320 471 330 479 Q 341 489 379 489 Q 407 489 421 487 Q 436 484 447 476 Q 458 467 462 447 Z" fill="black" />
  </g>
  <g class="defect" id="01">
    <path d="M 213 268 Q 232 315 220 327" fill="none" stroke="red" stroke-width="3" />
  </g>
  <g class="defect" id="02">
    <path d="M 234 342 Q 223 345 272 346" fill="none" stroke="red" stroke-width="3" />
  </g>
  <g class="defect" id="03">
    <path d="M 382 376 Q 392 384 382 395" fill="none" stroke="red" stroke-width="3" />
  </g>
</svg>