<svg xmlns="http://www.w3.org/2000/svg" width="512" height="512" viewBox="0 0 512 512">
  <g class="glyph">
    <path d="M 328 160 Q 328 159 330 156 Q 332 153 343 153 Q 355 152 358 156 Q 361 159 359 162 Q 357 165 345 166 Q 334 167 330 162 Q 328 160 328 160 Z M 330 191 Q 330 189 334 187 Q 339 185 347 185 L 356 185 Q 362 185 362 191 Q 362 197 352 197 Q 331 197 330 191 Z M 331 223 Q 331 220 346 218 Q 361 215 360 223 Q 360 229 349 229 Q 338 230 334 227 Q 331 224 331 223 Z M 444 271 Q 451 280 453 288 Q 455 295 456 303 Q 456 311 456 323 Q 455 345 454 358 Q 452 370 450 375 Q 447 380 448 381 Q 449 383 451 384 Q 453 385 463 387 Q 473 388 485 397 Q 498 406 500 418 Q 503 429 503 437 Q 502 447 500 459 Q 498 470 491 483 Q 485 497 470 504 Q 471 522 412 512 Q 389 512 377 511 Q 364 510 357 508 Q 349 505 341 499 Q 334 493 333 492 Q 331 492 329 491 Q 326 491 317 493 Q 307 494 276 494 L 182 495 L 115 494 L 105 499 Q 95 504 79 504 Q 41 507 21 486 Q 1 465 0 454 Q 0 443 0 442 L 1 431 L 14 370 L 23 311 L 28 220 L 29 140 Q 29 90 34 76 Q 39 61 56 44 Q 74 26 111 26 H 174 Q 181 26 186 24 L 206 10 Q 212 6 229 3 Q 247 0 265 0 Q 284 0 301 4 Q 317 7 326 13 L 343 24 Q 348 27 371 27 L 447 27 Q 499 28 502 53 Q 505 78 505 85 Q 505 101 501 110 L 490 131 L 488 148 L 483 166 Q 483 167 482 176 L 481 188 Q 481 189 482 202 Q 483 214 483 214 L 491 240 Q 491 242 492 244 Q 492 246 490 253 Q 488 260 486 263 Q 483 267 473 270 Q 464 272 455 271 Q 447 270 444 271 Z M 126 265 Q 123 262 122 259 Q 120 256 120 250 L 119 240 Q 118 234 116 229 L 97 213 Q 91 208 88 198 Q 84 188 84 179 Q 84 169 90 162 L 130 115 Q 147 94 156 87 Q 166 80 186 81 Q 203 81 217 88 L 235 100 Q 239 103 241 103 Q 244 103 247 100 L 267 85 Q 280 78 304 79 Q 316 80 323 83 L 349 95 L 379 85 Q 384 83 389 83 Q 397 83 412 86 Q 426 88 432 93 L 450 108 L 463 111 Q 467 112 470 112 Q 473 112 478 107 Q 484 102 485 84 Q 485 65 476 56 Q 468 47 433 47 H 360 Q 331 47 328 44 L 318 32 Q 309 20 264 20 Q 220 20 212 31 L 203 44 Q 199 47 192 47 L 119 47 Q 96 47 76 55 Q 56 62 52 85 Q 48 108 48 130 L 48 231 L 44 306 L 36 367 L 21 436 Q 20 438 21 447 Q 21 456 34 472 Q 46 487 83 485 Q 77 482 73 477 Q 68 472 67 459 Q 67 446 75 436 Q 85 424 101 424 Q 116 425 117 423 Q 117 422 113 415 Q 109 407 109 390 L 109 305 Q 109 288 114 279 Q 119 271 126 265 Z M 214 241 Q 214 232 214 222 L 215 182 Q 216 161 217 157 L 223 145 Q 226 137 226 130 Q 225 120 220 115 Q 215 109 195 98 Q 174 88 154 114 L 138 133 L 118 155 Q 103 172 104 186 Q 105 201 119 210 L 131 217 Q 133 219 134 220 L 138 244 Q 140 251 147 255 Q 155 252 163 252 L 198 250 Q 200 250 203 249 L 208 245 L 214 241 Z M 426 257 438 257 Q 460 256 466 255 Q 471 253 471 243 Q 471 238 467 234 Q 463 230 447 229 Q 431 228 428 227 Q 425 226 424 223 Q 424 220 434 218 L 459 216 Q 464 214 465 209 Q 465 204 462 201 Q 458 198 452 197 L 430 194 Q 427 194 427 192 Q 426 191 433 190 Q 435 189 438 189 L 451 188 Q 464 187 464 180 Q 464 174 461 171 Q 458 167 450 166 L 430 164 Q 426 163 425 161 Q 425 160 433 158 L 453 157 Q 471 156 470 141 Q 470 135 466 131 Q 462 127 456 125 L 435 123 Q 433 122 432 121 L 421 110 Q 411 102 391 102 Q 371 103 362 110 L 352 119 Q 348 123 344 123 Q 341 123 339 121 L 328 104 Q 321 94 298 96 Q 275 98 264 111 L 243 134 Q 226 154 224 160 Q 221 165 221 173 Q 221 180 227 186 L 244 202 L 247 213 L 250 226 Q 255 225 261 225 Q 289 226 297 229 Q 305 232 312 236 Q 319 239 323 242 L 332 249 Q 336 251 350 251 H 383 Q 411 251 426 257 Z M 304 440 H 105 Q 97 440 91 444 Q 86 448 86 458 Q 85 467 93 473 Q 102 479 133 479 L 302 478 L 323 476 Q 329 476 330 474 Q 331 473 330 469 Q 330 465 330 460 Q 331 451 335 446 Q 338 441 338 441 Q 338 440 304 440 Z M 305 303 Q 316 311 321 318 Q 326 324 327 325 Q 329 326 333 325 Q 342 324 339 312 Q 338 308 336 306 Q 334 305 319 304 Q 305 303 305 303 Z M 264 390 Q 254 385 248 381 Q 241 378 226 366 Q 225 374 225 379 Q 224 385 226 387 Q 228 390 238 390 H 264 Z M 255 364 Q 268 373 279 375 Q 290 376 299 367 Q 308 358 310 351 Q 312 344 311 338 Q 308 326 285 309 Q 262 291 250 290 Q 241 290 232 295 Q 224 301 219 309 Q 215 318 216 326 Q 218 333 229 343 Z M 324 395 H 365 Q 415 395 425 382 Q 435 369 436 349 L 436 309 Q 436 299 434 290 Q 432 281 423 273 Q 413 265 395 265 H 336 Q 325 265 320 265 Q 316 264 312 261 L 306 252 Q 296 240 264 240 Q 239 240 229 248 L 216 260 Q 211 264 206 264 H 179 Q 147 264 140 273 Q 132 282 130 288 Q 128 295 128 301 V 374 Q 128 398 132 407 Q 136 416 144 420 Q 152 424 189 426 Q 226 427 227 427 H 372 Q 392 427 395 429 Q 397 432 397 434 Q 397 436 395 438 Q 393 440 389 441 L 368 442 Q 360 444 354 450 Q 347 456 347 466 Q 347 476 354 483 Q 363 495 390 495 H 429 Q 456 495 465 487 Q 473 479 479 464 Q 484 448 483 435 Q 482 425 477 417 Q 472 409 461 405 Q 450 401 440 401 L 419 402 Q 416 402 408 404 Q 399 406 393 407 Q 386 407 336 408 Q 301 409 287 405 Q 274 402 271 402 H 233 Q 212 402 210 400 Q 209 398 208 396 L 209 363 L 209 349 Q 204 343 201 338 Q 198 334 197 324 Q 197 315 202 304 Q 205 298 216 287 Q 227 275 245 273 Q 260 272 274 280 L 293 292 Q 300 295 318 293 Q 336 291 344 293 Q 351 295 352 296 Q 354 297 354 308 V 321 Q 354 331 350 331 L 331 337 Q 330 347 329 353 Q 327 360 322 369 Q 316 379 307 382 L 290 391 Q 293 393 295 394 Q 298 395 324 395 Z" fill="black" />
  </g>
  <g class="defect" id="01">
    <path d="M 470 504 Q 471 522 412 512" fill="none" stroke="red" stroke-width="3" />
  </g>
</svg>