<svg xmlns="http://www.w3.org/2000/svg" width="512" height="512" viewBox="0 0 512 512">
  <g class="glyph">
    <path d="M 178 102 302 102 Q 310 102 313 105 Q 317 108 317 115 Q 318 122 318 123 Q 318 130 315 133 Q 311 136 304 138 L 279 138 Q 156 142 153 135 Q 150 128 150 122 Q 150 116 150 112 Q 151 108 153 105 Q 155 103 178 102 Z M 110 350 Q 94 347 113 344 Q 115 341 127 340 Q 138 340 154 340 Q 170 341 172 343 Q 174 346 174 348 Q 174 351 171 355 Q 167 359 158 360 Q 156 360 143 360 L 121 359 Q 111 358 110 354 Q 110 351 110 350 Z M 161 295 118 294 Q 116 294 113 292 Q 111 289 111 282 Q 111 276 125 275 L 155 275 Q 174 275 175 282 Q 176 288 172 292 Q 168 295 161 295 Z M 284 341 H 317 Q 336 341 339 344 Q 341 347 342 350 Q 342 353 339 356 Q 335 360 330 360 H 293 Q 274 360 271 357 Q 268 354 268 347 Q 268 341 284 341 Z M 330 296 287 296 Q 275 296 272 293 Q 268 290 268 286 Q 267 282 271 278 Q 275 276 302 275 Q 317 275 329 276 Q 342 277 342 283 Q 343 289 339 292 Q 336 296 330 296 Z M 33 214 Q 29 210 24 204 Q 20 197 19 173 L 18 86 Q 17 70 22 52 Q 28 34 38 23 Q 49 12 65 6 Q 82 0 115 0 H 356 Q 407 0 428 22 Q 449 44 449 79 L 448 153 Q 448 196 435 208 L 429 213 Q 442 222 449 231 Q 456 240 456 263 V 344 Q 470 349 484 358 Q 498 367 499 385 Q 501 404 499 418 Q 494 451 481 470 Q 468 490 451 501 Q 435 512 414 512 L 377 512 H 233 Q 201 512 185 500 Q 169 488 163 479 Q 157 470 154 459 Q 150 447 147 445 Q 145 443 141 443 H 126 L 87 442 Q 60 441 36 433 Q 12 424 6 401 Q 0 377 0 352 V 288 Q 0 282 1 267 Q 2 253 6 239 Q 10 225 33 214 Z M 258 490 H 384 Q 425 490 437 484 Q 448 477 459 463 Q 470 449 475 432 Q 479 414 479 402 Q 478 393 475 386 Q 471 379 460 372 Q 448 366 431 368 Q 421 369 414 374 Q 406 379 398 392 L 380 422 L 373 425 L 302 427 Q 274 427 271 424 Q 267 420 268 416 Q 268 412 271 409 Q 274 406 284 406 H 333 Q 355 406 359 406 Q 363 405 366 401 L 383 374 Q 388 366 399 356 Q 410 347 415 346 L 432 344 Q 432 320 433 301 Q 433 282 432 272 Q 430 251 422 242 Q 414 234 399 231 Q 383 228 352 228 H 297 Q 275 228 274 217 Q 272 206 297 206 L 367 207 Q 395 207 410 192 Q 425 178 425 155 L 425 70 Q 424 44 408 34 Q 392 23 358 23 L 99 24 Q 69 24 59 35 Q 49 45 46 57 Q 44 68 44 85 V 142 Q 44 180 49 194 Q 55 207 69 207 L 161 206 Q 171 206 171 217 Q 171 228 158 228 L 71 228 Q 48 229 40 235 Q 33 241 28 251 Q 24 261 24 270 L 22 345 Q 22 366 24 381 Q 27 397 38 408 Q 49 419 82 420 L 120 420 L 162 421 Q 170 422 172 424 Q 175 426 176 431 L 181 456 Q 184 468 195 478 Q 206 487 222 488 Z" fill="black" />
  </g>
  <g class="defect" id="01">
    <path d="M 110 350 Q 94 347 113 344" fill="none" stroke="red" stroke-width="3" />
  </g>
</svg>