<svg xmlns="http://www.w3.org/2000/svg" width="512" height="512" viewBox="0 0 512 512">
  <g class="glyph">
    <path d="M 175 379 Q 180 379 182 380 Q 183 382 184 384 Q 185 387 185 390 L 184 396 Q 184 399 184 400 Q 183 402 179 402 Q 177 403 153 403 Q 129 403 126 401 Q 124 399 124 395 Q 123 391 124 386 Q 124 382 126 380 Q 128 378 134 378 Z M 178 332 136 331 Q 126 331 125 329 Q 123 327 124 319 Q 124 313 125 312 Q 125 311 128 309 Q 130 308 154 308 Q 178 307 181 309 Q 183 311 184 313 Q 185 315 185 322 Q 185 328 183 330 Q 182 332 178 332 Z M 147 144 151 145 Q 155 145 160 145 Q 165 145 166 146 Q 168 147 168 151 Q 170 159 170 166 Q 169 172 170 176 Q 170 179 170 180 Q 168 183 161 184 Q 149 184 146 183 Q 143 181 142 179 Q 141 177 142 170 Q 143 164 141 158 Q 140 152 141 150 Q 142 148 144 147 Q 145 145 147 144 Z M 487 106 485 218 Q 485 232 484 240 Q 483 249 480 255 Q 477 261 478 262 Q 478 265 492 281 Q 506 296 503 334 L 497 419 Q 496 429 495 438 Q 494 447 490 464 Q 486 480 477 491 Q 468 502 453 507 Q 437 512 405 510 Q 383 510 369 509 Q 355 508 344 501 Q 332 495 325 482 Q 318 469 319 455 Q 320 440 318 438 Q 317 437 296 438 H 286 Q 281 438 279 440 Q 276 442 273 453 Q 269 464 264 473 Q 259 482 248 488 Q 236 494 210 494 L 117 493 Q 83 493 66 488 Q 50 482 40 467 Q 29 452 30 418 L 31 311 Q 31 295 29 291 Q 27 287 14 271 Q 0 255 0 219 Q 0 205 4 190 Q 8 174 23 168 Q 37 162 37 161 Q 36 160 27 156 Q 18 151 13 145 Q 9 139 7 127 Q 4 114 5 99 Q 5 82 11 68 Q 18 54 32 51 Q 46 48 47 47 Q 48 45 50 35 Q 51 25 61 12 Q 71 0 105 1 Q 138 2 146 12 Q 155 23 156 23 Q 157 23 164 13 Q 172 3 204 3 Q 220 4 238 11 Q 256 18 260 36 L 261 47 Q 263 54 270 53 Q 271 52 279 47 Q 286 42 294 39 Q 301 36 303 35 Q 305 33 310 23 Q 316 12 330 6 Q 344 1 362 1 Q 377 1 390 5 Q 403 9 410 14 Q 417 19 421 26 Q 424 33 426 34 Q 428 36 438 36 Q 448 36 458 39 Q 468 43 475 50 Q 483 58 485 71 Q 488 84 487 106 Z M 103 227 163 228 Q 228 229 242 233 Q 257 237 262 245 Q 268 254 269 254 Q 271 254 275 244 Q 279 234 280 217 Q 281 199 272 191 Q 267 186 260 185 H 247 Q 242 184 240 180 Q 239 177 239 170 Q 239 163 239 157 Q 239 150 241 149 Q 242 147 245 147 L 254 146 Q 267 145 271 134 Q 276 124 276 107 Q 275 85 269 79 Q 263 74 255 72 L 246 71 Q 242 71 241 70 Q 239 69 240 58 Q 241 48 238 40 Q 237 37 235 34 Q 233 32 224 29 Q 215 26 199 26 Q 183 25 177 32 Q 152 52 171 43 Q 171 47 171 54 Q 171 61 171 64 Q 171 67 170 69 Q 169 71 167 71 Q 166 71 163 71 Q 160 71 153 72 Q 145 72 142 70 Q 140 69 139 67 Q 138 65 138 60 V 55 Q 138 44 138 44 Q 138 38 130 29 Q 123 20 98 22 Q 83 23 78 28 Q 72 34 71 43 L 70 62 Q 70 66 68 68 Q 67 69 63 69 L 46 70 Q 35 72 31 81 Q 28 90 27 107 Q 26 124 34 133 Q 38 138 44 140 Q 49 143 52 143 L 68 145 Q 69 147 70 149 Q 70 150 69 157 Q 68 165 69 168 L 70 172 Q 70 177 68 179 Q 67 181 64 182 L 44 182 Q 20 185 22 220 Q 22 240 29 249 Q 36 259 37 259 Q 38 259 45 243 Q 53 226 103 227 Z M 147 471 218 472 Q 235 472 242 465 Q 235 457 252 448 Q 254 438 254 436 Q 253 435 242 431 Q 231 428 226 413 Q 221 399 221 384 Q 221 370 224 359 Q 229 341 240 336 Q 252 330 253 329 Q 254 327 254 323 Q 255 318 255 300 Q 255 282 253 275 Q 248 259 237 254 Q 226 249 179 249 L 107 248 Q 87 248 78 250 Q 69 252 62 260 Q 55 267 53 280 Q 52 293 52 329 L 51 419 Q 51 420 51 434 Q 51 448 60 457 Q 70 467 80 469 Q 91 470 147 471 Z M 269 418 323 418 355 419 Q 389 419 397 412 Q 405 404 405 382 Q 405 374 403 367 Q 401 359 396 355 Q 391 351 383 349 Q 375 347 338 347 H 307 L 261 347 Q 254 349 250 352 Q 246 356 243 362 Q 241 368 240 393 Q 239 417 269 418 Z M 345 205 328 170 Q 318 149 319 134 Q 320 120 328 112 Q 336 103 350 97 Q 364 91 378 93 Q 408 98 423 140 Q 438 183 424 202 Q 417 210 406 215 Q 394 221 386 221 Q 378 222 377 223 Q 375 224 376 232 L 376 244 Q 377 251 381 256 Q 385 260 421 261 Q 448 262 453 256 Q 459 250 461 244 Q 464 238 465 171 L 466 94 Q 466 75 458 67 Q 450 59 437 57 L 409 57 Q 405 57 404 55 Q 403 55 403 52 L 404 44 Q 404 37 396 28 Q 387 20 359 20 Q 347 20 341 23 Q 335 25 330 31 Q 324 37 322 45 Q 320 54 318 55 Q 317 57 309 57 Q 301 57 295 61 Q 290 64 289 66 Q 288 68 291 74 Q 294 83 296 89 Q 297 96 297 108 Q 297 120 295 133 Q 293 146 287 154 Q 282 163 282 165 Q 282 168 287 175 Q 292 181 296 189 Q 300 196 301 215 Q 301 233 297 249 Q 293 261 286 272 Q 279 283 278 287 Q 278 291 277 299 Q 277 308 278 312 Q 278 321 281 326 Q 284 330 301 330 Q 309 330 320 329 Q 330 329 334 329 Q 345 329 370 330 Q 394 331 404 335 Q 413 340 418 350 Q 423 360 424 383 Q 425 405 418 416 Q 410 430 396 433 Q 383 437 362 437 Q 342 437 341 439 Q 340 441 340 446 L 341 459 Q 342 471 349 478 Q 356 486 368 489 Q 380 491 407 491 Q 428 491 437 489 Q 447 487 456 480 Q 465 473 468 460 Q 472 448 474 430 Q 477 411 477 406 V 399 L 483 328 Q 483 327 482 313 Q 481 300 470 290 Q 459 279 450 278 Q 440 278 384 279 Q 329 280 364 279 Q 400 277 403 277 L 364 277 Q 356 274 357 267 L 357 218 Q 350 213 345 205 Z M 368 110 Q 354 112 346 119 Q 337 125 336 132 Q 336 140 338 146 L 344 161 Q 356 194 364 199 Q 372 204 381 204 Q 387 204 395 200 Q 403 197 408 191 Q 413 185 412 171 Q 411 158 401 138 Q 391 117 384 113 Q 377 110 368 110 Z" fill="black" />
  </g>
  <g class="defect" id="01">
    <path d="M 242 465 Q 235 457 252 448" fill="none" stroke="red" stroke-width="3" />
  </g>
  <g class="defect" id="02">
    <path d="M 177 32 Q 152 52 171 43" fill="none" stroke="red" stroke-width="3" />
  </g>
</svg>