<svg xmlns="http://www.w3.org/2000/svg" width="512" height="512" viewBox="0 0 512 512">
  <g class="glyph">
    <path d="M 503 437 Q 512 451 500 463 Q 513 454 489 467 Q 480 467 475 460 Q 416 375 408 358 Q 401 343 415 334 Q 412 311 441 342 Q 450 358 503 437 Z M 52 72 99 130 Q 108 144 97 155 Q 91 160 86 160 Q 78 160 71 153 L 25 95 Q 15 82 27 70 Q 41 61 52 72 Z M 245 358 Q 208 420 173 460 Q 167 467 159 467 Q 152 467 148 463 Q 136 450 144 437 Q 168 409 191 374 Q 206 350 211 342 Q 214 335 223 333 Q 231 331 237 334 Q 251 343 245 358 Z M 113 281 38 435 Q 33 445 22 445 Q 18 445 14 443 Q 0 435 6 419 L 82 265 Q 90 251 105 257 Q 120 265 113 281 Z M 344 257 H 462 Q 470 257 475 262 Q 480 267 480 275 Q 480 283 475 288 Q 470 293 462 293 H 344 L 344 431 Q 344 469 323 490 Q 307 506 287 509 H 283 Q 266 507 264 493 Q 262 478 283 473 Q 295 485 308 431 V 293 H 212 Q 186 293 172 275 Q 158 258 167 234 Q 200 152 216 108 H 155 Q 148 108 143 103 Q 137 97 137 90 Q 137 82 143 77 Q 148 72 155 72 H 229 Q 249 20 250 16 Q 257 0 273 2 Q 291 8 287 25 Q 279 45 269 72 H 483 Q 491 72 496 77 Q 501 82 501 90 Q 501 97 496 103 Q 491 108 483 108 H 256 Q 229 180 205 242 Q 202 247 206 252 Q 210 257 216 257 H 308 V 161 Q 308 154 314 148 Q 319 143 326 143 Q 334 143 339 148 Q 344 154 344 161 Z" fill="black" />
  </g>
  <g class="defect" id="01">
    <path d="M 415 334 Q 412 311 441 342" fill="none" stroke="red" stroke-width="3" />
  </g>
  <g class="defect" id="02">
    <path d="M 283 473 Q 295 485 308 431" fill="none" stroke="red" stroke-width="3" />
  </g>
  <g class="defect" id="03">
    <path d="M 500 463 Q 513 454 489 467" fill="none" stroke="red" stroke-width="3" />
  </g>
</svg>