<svg xmlns="http://www.w3.org/2000/svg" width="512" height="512" viewBox="0 0 512 512">
  <g class="glyph">
    <path d="M 507 29 V 427 Q 507 465 483 490 Q 465 508 443 512 H 439 Q 424 511 420 497 Q 419 489 424 482 Q 428 476 436 474 Q 447 472 454 465 Q 468 452 468 427 V 29 Q 481 38 474 16 Q 480 11 487 11 Q 496 11 501 16 Q 507 22 507 29 Z M 394 78 V 370 Q 393 388 376 389 Q 368 389 363 384 Q 357 378 357 370 V 78 Q 357 70 363 65 Q 368 59 376 59 Q 366 40 389 65 Q 394 70 394 78 Z M 321 195 Q 321 202 315 208 Q 310 213 303 213 H 285 Q 250 213 234 194 Q 219 176 219 142 V 81 Q 219 64 205 52 Q 191 38 164 38 Q 140 38 126 52 Q 113 64 113 81 V 95 Q 113 165 64 206 Q 54 214 45 218 Q 40 221 35 221 Q 25 221 19 212 Q 12 196 26 186 Q 39 179 51 165 Q 75 138 75 95 V 81 Q 75 49 98 26 Q 124 0 164 0 Q 207 0 234 26 Q 257 49 257 81 V 142 Q 257 177 285 177 H 303 Q 310 177 315 182 Q 321 188 321 195 Z M 228 314 328 411 Q 338 424 327 437 Q 321 442 314 442 Q 307 442 301 437 L 202 340 Q 192 327 202 314 Q 215 304 228 314 Z M 184 294 V 492 Q 184 500 179 505 Q 174 510 166 510 Q 158 510 153 505 Q 148 500 148 492 V 338 Q 97 414 35 469 Q 28 474 23 474 Q 15 474 9 467 Q 0 454 11 442 Q 79 380 135 294 H 32 Q 25 294 19 288 Q 14 283 14 275 Q 14 268 19 263 Q 25 258 32 258 H 148 V 203 Q 148 195 153 189 Q 158 184 166 184 Q 174 184 179 189 Q 184 195 184 203 V 258 H 300 Q 307 258 312 263 Q 318 268 318 275 Q 318 283 312 288 Q 307 294 300 294 Z" fill="black" />
  </g>
  <g class="defect" id="01">
    <path d="M 376 59 Q 366 40 389 65" fill="none" stroke="red" stroke-width="3" />
  </g>
  <g class="defect" id="02">
    <path d="M 468 29 Q 481 38 474 16" fill="none" stroke="red" stroke-width="3" />
  </g>
</svg>