<svg xmlns="http://www.w3.org/2000/svg" width="512" height="512" viewBox="0 0 512 512">
  <g class="glyph">
    <path d="M 487 512 H 111 Q 64 512 32 480 Q 0 448 0 401 V 110 Q 0 64 32 32 Q 64 0 111 0 H 482 Q 491 0 497 6 Q 503 12 503 20 Q 503 28 497 34 Q 491 40 482 40 H 111 Q 82 40 61 61 Q 40 82 40 110 V 401 Q 40 430 61 451 Q 97 461 111 472 H 487 Q 495 472 501 478 Q 506 483 506 492 Q 506 500 501 506 Q 495 512 487 512 Z M 150 151 V 168 H 384 Q 395 168 402 161 Q 407 155 407 144 Q 407 125 384 123 H 177 Q 165 123 157 133 Q 150 141 150 151 Z M 424 355 H 366 V 420 Q 364 437 348 438 Q 340 438 335 433 Q 330 428 330 420 V 355 H 275 V 420 Q 273 437 257 438 Q 249 438 244 433 Q 239 428 239 420 V 355 H 180 V 435 Q 179 452 162 453 Q 155 453 150 448 Q 144 443 144 435 V 313 Q 159 291 167 257 Q 190 234 224 234 H 381 Q 413 234 436 257 Q 460 280 460 313 V 375 Q 460 423 426 444 Q 417 449 413 449 Q 405 451 398 448 Q 390 444 388 436 Q 385 422 404 415 Q 410 412 415 407 Q 424 396 424 375 Z M 424 320 V 313 Q 424 295 411 282 Q 399 270 381 270 H 366 V 320 Z M 330 320 V 270 H 275 V 320 Z M 303 87 H 384 Q 413 87 430 104 Q 445 120 445 143 Q 445 169 430 185 Q 413 204 384 204 H 149 Q 149 281 131 335 Q 121 364 97 403 Q 86 416 72 408 Q 60 397 67 382 Q 113 309 113 215 V 151 Q 113 127 131 108 Q 151 87 177 87 H 263 V 68 Q 263 60 268 54 Q 275 48 283 48 Q 291 48 297 54 Q 303 60 303 68 Z M 239 320 V 270 H 224 Q 205 270 193 282 Q 180 294 180 313 V 320 Z" fill="black" />
  </g>
  <g class="defect" id="01">
    <path d="M 144 313 Q 159 291 167 257" fill="none" stroke="red" stroke-width="3" />
  </g>
  <g class="defect" id="02">
    <path d="M 61 451 Q 97 461 111 472" fill="none" stroke="red" stroke-width="3" />
  </g>
</svg>