<svg xmlns="http://www.w3.org/2000/svg" width="512" height="512" viewBox="0 0 512 512">
  <g class="glyph">
    <path d="M 488 494 Q 482 494 478 490 Q 422 437 393 355 Q 360 253 352 157 Q 326 18 347 18 Q 347 10 353 5 Q 359 0 365 0 Q 373 1 378 6 Q 384 11 384 19 Q 384 124 393 196 Q 419 386 498 460 Q 512 473 503 486 Q 497 494 488 494 Z M 86 354 H 73 Q 43 354 22 332 Q 0 311 0 281 V 123 Q 0 93 22 71 Q 43 50 73 50 H 86 Q 117 50 138 71 Q 160 93 160 123 V 281 Q 160 311 138 332 Q 116 354 86 354 Z M 86 86 H 73 Q 58 86 47 97 Q 36 108 36 123 V 281 Q 36 296 47 307 Q 58 318 73 318 H 86 Q 102 318 113 307 Q 124 297 124 281 V 123 Q 124 107 113 97 Q 102 86 86 86 Z M 130 494 Q 120 494 114 486 Q 106 473 119 460 Q 173 405 198 320 Q 205 248 230 153 Q 238 30 235 19 Q 235 11 240 6 Q 245 1 252 0 Q 260 0 265 5 Q 270 10 271 18 Q 271 130 259 211 Q 230 412 140 490 Q 122 494 130 494 Z" fill="black" />
  </g>
  <g class="defect" id="01">
    <path d="M 140 490 Q 122 494 130 494" fill="none" stroke="red" stroke-width="3" />
  </g>
  <g class="defect" id="02">
    <path d="M 352 157 Q 326 18 347 18" fill="none" stroke="red" stroke-width="3" />
  </g>
  <g class="defect" id="03">
    <path d="M 198 320 Q 205 248 230 153" fill="none" stroke="red" stroke-width="3" />
  </g>
</svg>