<svg xmlns="http://www.w3.org/2000/svg" width="512" height="512" viewBox="0 0 512 512">
  <g class="glyph">
    <path d="M 331 487 Q 237 487 197 445 Q 171 416 171 377 L 171 204 Q 172 168 196 144 Q 219 120 256 119 H 339 Q 374 119 399 144 Q 423 169 423 204 L 424 254 Q 424 294 401 318 Q 383 336 360 340 Q 352 341 346 336 Q 339 331 338 323 Q 337 316 342 309 Q 347 302 354 301 Q 364 299 372 292 Q 385 279 385 254 V 204 Q 385 185 372 171 Q 358 158 339 158 H 256 Q 217 139 223 171 Q 209 185 209 204 V 377 Q 209 416 249 435 Q 280 449 331 449 Q 405 449 441 423 Q 456 413 464 395 Q 471 378 487 383 Q 495 385 499 390 Q 504 396 501 404 Q 500 410 496 419 Q 487 434 472 447 Q 425 487 331 487 Z M 22 486 Q 18 486 15 484 Q 0 476 5 459 Q 8 457 23 401 Q 39 345 42 250 V 93 Q 42 52 66 27 Q 91 0 132 0 H 493 Q 501 0 507 5 Q 512 11 512 19 Q 511 36 493 38 H 132 Q 107 38 93 53 Q 79 69 79 93 Q 79 140 79 188 V 250 Q 79 334 60 411 Q 49 456 39 474 Q 35 486 22 486 Z" fill="black" />
  </g>
  <g class="defect" id="01">
    <path d="M 256 158 Q 217 139 223 171" fill="none" stroke="red" stroke-width="3" />
  </g>
</svg>