<svg xmlns="http://www.w3.org/2000/svg" width="512" height="512" viewBox="0 0 512 512">
  <g class="glyph">
    <path d="M 417 74 H 353 Q 338 74 330 86 Q 324 97 326 113 Q 335 197 381 281 Q 435 193 445 113 Q 460 96 440 86 Q 433 74 417 74 Z M 478 456 Q 422 409 379 346 Q 335 405 279 452 Q 265 461 253 450 Q 244 436 255 425 Q 314 376 359 314 Q 301 215 291 118 Q 287 85 303 62 Q 321 38 353 38 H 417 Q 450 38 467 62 Q 484 85 480 118 Q 470 210 401 315 Q 444 381 501 429 Q 512 440 503 454 Q 492 466 478 456 Z M 227 361 V 448 Q 226 465 209 466 Q 201 466 196 461 Q 191 456 191 448 V 371 L 24 418 Q 8 421 3 407 Q 0 391 14 385 L 45 376 V 35 H 20 Q 5 34 3 17 Q -8 27 8 5 Q 13 0 20 0 H 250 Q 266 2 268 17 Q 266 34 250 35 H 227 V 325 L 261 316 Q 268 314 274 317 Q 280 321 282 328 Q 285 344 270 349 Z M 191 335 V 253 H 79 V 367 Z M 191 219 V 144 H 79 V 219 Z M 191 110 V 35 H 79 V 110 Z" fill="black" />
  </g>
  <g class="defect" id="01">
    <path d="M 3 17 Q -8 27 8 5" fill="none" stroke="red" stroke-width="3" />
  </g>
  <g class="defect" id="02">
    <path d="M 445 113 Q 460 96 440 86" fill="none" stroke="red" stroke-width="3" />
  </g>
</svg>