<svg xmlns="http://www.w3.org/2000/svg" width="512" height="512" viewBox="0 0 512 512">
  <g class="glyph">
    <path d="M 77 89 Q 58 89 47 100 Q 37 111 37 126 V 316 Q 37 334 48 344 Q 59 355 77 355 Q 96 355 107 344 Q 118 334 118 316 V 126 Q 118 111 108 100 Q 107 77 77 89 Z M 77 391 Q 56 410 22 370 Q 0 348 0 316 V 126 Q 0 95 22 74 Q 45 52 77 52 Q 110 52 132 74 Q 154 95 154 126 V 316 Q 154 349 133 370 Q 111 391 77 391 Z M 444 369 H 236 V 409 Q 236 438 255 457 Q 273 475 302 475 H 378 Q 406 475 425 456 Q 444 437 444 409 Z M 444 332 V 241 H 236 V 332 Z M 444 204 V 183 Q 444 155 425 136 Q 405 116 378 116 H 302 Q 271 116 252 141 Q 236 161 236 183 V 204 Z M 341 79 H 378 Q 422 79 452 110 Q 482 140 482 183 V 409 Q 482 452 452 482 Q 422 512 378 512 H 302 Q 258 512 228 482 Q 199 453 199 409 V 183 Q 199 147 225 115 Q 255 80 300 79 L 323 16 Q 331 0 348 5 Q 356 8 359 15 Q 362 22 359 30 Z" fill="black" />
  </g>
  <g class="defect" id="01">
    <path d="M 77 391 Q 56 410 22 370" fill="none" stroke="red" stroke-width="3" />
  </g>
  <g class="defect" id="02">
    <path d="M 108 100 Q 107 77 77 89" fill="none" stroke="red" stroke-width="3" />
  </g>
</svg>