<svg xmlns="http://www.w3.org/2000/svg" width="512" height="512" viewBox="0 0 512 512">
  <g class="glyph">
    <path d="M 83 66 Q 62 66 49 79 Q 37 91 37 108 V 287 Q 37 307 50 319 Q 62 331 83 331 Q 104 331 116 319 Q 128 308 128 287 V 108 Q 128 91 118 79 Q 115 49 83 66 Z M 83 369 Q 47 369 23 346 Q 0 323 0 287 V 108 Q 0 74 24 51 Q 48 29 83 29 Q 119 29 143 51 Q 166 73 166 108 V 287 Q 166 323 143 346 Q 119 369 83 369 Z M 444 228 V 424 Q 444 468 417 493 Q 396 511 371 511 H 370 Q 377 511 357 506 Q 352 501 352 493 Q 352 486 357 480 Q 363 475 370 474 Q 381 474 391 467 Q 407 453 407 424 V 249 Q 372 301 324 351 Q 255 426 179 475 Q 175 479 169 479 Q 160 479 154 470 Q 146 455 159 444 Q 229 398 298 325 Q 343 276 376 228 H 290 Q 257 228 236 209 Q 212 187 220 154 L 231 105 Q 233 95 240 91 Q 246 87 254 88 Q 271 92 266 113 L 257 154 Q 254 170 264 180 Q 274 191 293 191 H 407 V 38 H 209 Q 201 38 196 32 Q 191 27 191 19 Q 191 11 196 5 Q 201 0 209 0 H 493 Q 501 0 506 5 Q 511 11 511 19 Q 511 27 506 32 Q 501 38 493 38 H 444 V 191 H 493 Q 501 191 507 196 Q 512 201 512 209 Q 527 217 507 222 Q 501 228 493 228 Z" fill="black" />
  </g>
  <g class="defect" id="01">
    <path d="M 512 209 Q 527 217 507 222" fill="none" stroke="red" stroke-width="3" />
  </g>
  <g class="defect" id="02">
    <path d="M 118 79 Q 115 49 83 66" fill="none" stroke="red" stroke-width="3" />
  </g>
  <g class="defect" id="03">
    <path d="M 370 511 Q 377 511 357 506" fill="none" stroke="red" stroke-width="3" />
  </g>
</svg>