<svg xmlns="http://www.w3.org/2000/svg" width="512" height="512" viewBox="0 0 512 512">
  <g class="glyph">
    <path d="M 125 105 H 95 Q 81 105 72 114 Q 62 124 62 140 Q 62 155 72 165 Q 81 175 95 175 H 125 Q 140 175 149 165 Q 157 156 157 140 Q 157 126 149 115 Q 139 105 125 105 Z M 125 210 H 95 Q 63 210 44 187 Q 27 168 27 140 Q 27 112 44 92 Q 64 69 95 69 H 125 Q 153 69 173 89 Q 193 110 193 140 Q 193 167 175 187 Q 156 210 125 210 Z M 413 105 H 383 Q 369 105 360 114 Q 351 124 351 140 Q 351 155 360 165 Q 369 175 383 175 H 413 Q 428 175 437 165 Q 446 156 446 140 Q 446 126 437 115 Q 427 105 413 105 Z M 413 210 H 383 Q 351 210 332 187 Q 315 168 315 140 Q 315 112 332 92 Q 352 69 383 69 H 413 Q 441 69 461 89 Q 481 110 481 140 Q 481 167 464 187 Q 444 210 413 210 Z M 125 340 H 95 Q 81 340 72 350 Q 62 360 62 376 Q 62 391 72 401 Q 81 411 95 411 H 125 Q 125 411 149 401 Q 157 391 157 376 Q 157 362 149 351 Q 139 340 125 340 Z M 125 446 H 95 Q 63 446 44 423 Q 27 404 27 376 Q 27 348 44 328 Q 64 305 95 305 H 125 Q 153 305 173 325 Q 193 346 193 376 Q 193 403 175 423 Q 156 446 125 446 Z M 413 340 H 383 Q 369 340 360 350 Q 351 360 351 376 Q 351 391 360 401 Q 369 411 383 411 H 413 Q 428 411 437 401 Q 446 391 446 376 Q 446 362 437 351 Q 427 340 413 340 Z M 413 446 H 383 Q 351 446 332 423 Q 315 404 315 376 Q 315 348 332 328 Q 352 305 383 305 H 413 Q 441 305 461 325 Q 481 346 481 376 Q 481 403 464 423 Q 444 446 413 446 Z M 274 471 H 480 Q 488 471 494 477 Q 501 483 501 492 Q 499 511 480 512 H 24 Q 15 512 10 506 Q 3 500 3 492 Q 3 483 10 477 Q 15 471 24 471 H 233 V 279 H 21 Q 12 279 6 274 Q 0 267 0 259 Q 0 251 6 244 Q 12 238 21 238 H 233 V 41 H 26 Q 17 41 11 35 Q 4 29 4 20 Q 4 12 11 6 Q 17 0 26 0 H 480 Q 488 0 494 6 Q 501 12 501 20 Q 499 40 480 41 H 274 V 238 H 490 Q 499 238 504 244 Q 510 250 510 259 Q 509 278 490 279 H 274 Z" fill="black" />
  </g>
  <g class="defect" id="01">
    <path d="M 125 411 Q 125 411 149 401" fill="none" stroke="red" stroke-width="3" />
  </g>
</svg>