<svg xmlns="http://www.w3.org/2000/svg" width="512" height="512" viewBox="0 0 512 512">
  <g class="glyph">
    <path d="M 454 215 Q 450 215 446 214 Q 433 206 438 190 L 469 127 Q 477 113 492 118 Q 506 127 500 142 L 469 206 Q 465 215 454 215 Z M 336 231 Q 329 231 324 227 Q 319 222 319 215 L 315 140 Q 314 133 320 128 Q 324 122 331 122 Q 338 121 344 126 Q 349 131 350 138 L 354 213 Q 354 220 349 226 Q 345 231 337 231 Z M 62 396 Q 37 396 19 379 Q 0 361 0 328 V 124 Q 0 93 19 74 Q 37 57 62 57 Q 87 57 105 74 Q 125 92 125 124 V 328 Q 125 361 105 379 Q 88 396 62 396 Z M 62 92 Q 52 92 44 99 Q 35 108 35 124 V 328 Q 35 345 44 354 Q 51 362 62 362 Q 73 362 80 354 Q 69 332 89 328 V 124 Q 89 108 80 99 Q 72 92 62 92 Z M 416 236 Q 416 243 419 263 Q 423 296 429 325 Q 452 421 502 470 Q 512 482 502 494 Q 496 500 489 500 Q 482 500 477 495 Q 427 446 400 353 Q 382 414 345 459 Q 329 479 310 494 Q 305 498 300 498 Q 290 498 285 490 Q 277 476 289 465 Q 300 457 314 440 Q 381 362 381 238 V 236 V 18 Q 381 10 386 5 Q 391 0 399 0 Q 406 0 411 5 Q 416 10 416 18 Z M 248 268 V 491 Q 248 498 243 503 Q 238 508 231 508 Q 224 508 219 503 Q 214 498 214 491 V 291 Q 187 361 159 416 Q 154 426 144 426 Q 140 426 136 424 Q 122 416 129 401 Q 162 337 189 259 Q 209 200 209 194 Q 210 192 210 191 H 163 Q 156 191 151 186 Q 146 181 146 174 Q 146 166 151 161 Q 156 156 163 156 H 214 V 62 Q 194 65 171 68 H 170 Q 155 68 152 53 Q 151 46 155 40 Q 159 35 167 34 Q 208 28 240 19 Q 273 9 275 8 Q 290 4 297 18 Q 302 34 287 40 Q 280 44 248 53 V 156 H 286 Q 293 156 298 161 Q 304 166 304 174 Q 304 181 298 186 Q 293 191 286 191 H 248 V 253 Q 250 249 254 247 Q 267 239 278 251 L 309 293 Q 316 308 305 317 Q 300 321 294 321 Q 285 321 280 313 L 250 271 Q 249 269 248 268 Z" fill="black" />
  </g>
  <g class="defect" id="01">
    <path d="M 80 354 Q 69 332 89 328" fill="none" stroke="red" stroke-width="3" />
  </g>
</svg>