<svg xmlns="http://www.w3.org/2000/svg" width="512" height="512" viewBox="0 0 512 512">
  <g class="glyph">
    <path d="M 61 92 Q 51 92 44 98 Q 35 106 35 120 V 342 Q 35 357 44 365 Q 51 372 61 372 Q 71 372 78 365 Q 86 357 86 342 V 120 Q 86 106 78 98 Q 71 92 61 92 Z M 61 407 Q 36 407 19 390 Q 0 372 0 342 V 120 Q 0 91 19 73 Q 36 57 61 57 Q 85 57 102 73 Q 121 91 121 120 V 342 Q 121 372 102 390 Q 85 407 61 407 Z M 474 153 Q 476 272 429 380 Q 457 435 500 481 Q 510 494 499 506 Q 494 510 487 510 Q 480 510 475 505 Q 436 464 410 419 Q 383 469 349 505 Q 344 510 336 510 Q 328 510 324 506 Q 313 494 323 481 Q 364 437 391 381 Q 369 334 358 282 Q 351 250 351 238 Q 350 231 356 225 Q 360 220 367 219 Q 384 220 386 236 Q 386 243 390 265 Q 381 317 410 334 Q 429 281 435 220 Q 440 182 439 153 H 378 Q 364 191 354 213 Q 349 224 337 224 Q 334 224 330 222 Q 316 214 321 198 Q 326 148 365 79 Q 382 24 382 20 Q 387 5 404 7 Q 419 13 417 28 Q 407 67 390 118 H 491 Q 498 118 503 123 Q 509 128 509 135 Q 509 143 503 148 Q 498 153 491 153 Z M 245 231 H 305 Q 321 232 323 248 Q 321 264 305 265 H 228 V 315 H 258 Q 285 315 299 332 Q 309 343 312 370 Q 315 396 310 424 Q 301 477 270 500 Q 254 512 237 512 Q 220 512 218 495 Q 217 487 223 483 Q 228 477 237 476 Q 244 476 253 468 Q 269 453 276 418 Q 279 398 277 376 Q 275 358 272 354 Q 269 350 258 350 H 226 Q 214 421 159 484 Q 146 500 138 506 Q 133 509 128 509 Q 106 496 113 502 Q 105 488 117 477 Q 119 477 129 465 Q 143 449 155 431 Q 192 374 192 319 V 265 H 148 Q 132 264 131 248 Q 132 232 148 231 H 209 V 181 H 158 Q 151 181 146 176 Q 140 171 140 164 Q 140 156 146 151 Q 151 146 158 146 H 209 V 97 H 152 Q 145 97 140 92 Q 135 87 135 79 Q 135 72 140 67 Q 145 62 152 62 H 209 V 18 Q 209 10 215 5 Q 220 0 227 0 Q 235 0 240 5 Q 245 10 245 18 V 62 H 299 Q 306 62 311 67 Q 316 72 316 79 Q 316 87 311 92 Q 306 97 299 97 H 245 V 146 H 293 Q 300 146 305 151 Q 310 156 310 164 Q 310 171 305 176 Q 300 181 293 181 H 245 Z" fill="black" />
  </g>
  <g class="defect" id="01">
    <path d="M 390 265 Q 381 317 410 334" fill="none" stroke="red" stroke-width="3" />
  </g>
  <g class="defect" id="02">
    <path d="M 321 198 Q 326 148 365 79" fill="none" stroke="red" stroke-width="3" />
  </g>
  <g class="defect" id="03">
    <path d="M 128 509 Q 106 496 113 502" fill="none" stroke="red" stroke-width="3" />
  </g>
</svg>