<svg xmlns="http://www.w3.org/2000/svg" width="512" height="512" viewBox="0 0 512 512">
  <g class="glyph">
    <path d="M 67 108 Q 54 108 46 115 Q 35 123 35 140 V 358 Q 35 375 46 384 Q 54 391 67 391 Q 79 391 88 384 Q 98 375 98 358 V 140 Q 98 123 88 115 Q 79 108 67 108 Z M 67 427 Q 40 427 21 410 Q 0 390 0 358 V 140 Q 0 109 21 89 Q 40 72 67 72 Q 93 72 112 89 Q 133 109 133 140 V 358 Q 133 390 112 410 Q 93 427 67 427 Z M 370 512 H 287 Q 254 512 230 488 Q 207 465 207 432 V 395 Q 207 362 230 338 Q 253 315 287 315 H 370 Q 403 315 427 338 Q 450 362 450 395 V 432 Q 450 465 427 488 Q 403 512 370 512 Z M 255 216 232 167 Q 226 154 239 145 Q 253 139 262 152 L 284 201 Q 290 215 277 223 Q 263 229 255 216 Z M 250 69 224 36 Q 215 22 228 11 Q 241 2 253 14 L 279 48 Q 288 62 275 73 Q 261 82 250 69 Z M 398 216 Q 390 229 375 223 Q 364 215 368 201 L 391 152 Q 399 139 414 145 Q 426 154 421 167 Z M 415 429 H 241 V 432 Q 241 451 254 464 Q 267 477 287 477 H 370 Q 389 477 402 464 Q 415 451 415 432 Z M 415 396 Q 416 377 402 364 Q 389 349 370 350 H 287 Q 268 350 254 364 Q 241 377 241 395 Q 328 396 415 396 Z M 374 86 H 396 Q 431 86 456 112 Q 496 136 480 171 V 201 Q 480 237 456 261 Q 431 286 396 286 H 256 Q 221 286 196 262 Q 171 237 171 203 V 172 Q 171 138 196 112 Q 221 86 256 86 H 335 Q 333 80 338 75 L 385 13 Q 397 0 411 9 Q 423 21 415 35 Z M 343 251 H 396 Q 416 251 431 237 Q 428 202 446 201 V 171 Q 446 150 431 135 Q 416 121 396 121 H 343 Z M 309 251 V 121 H 256 Q 235 121 220 135 Q 205 150 205 171 V 201 Q 205 222 220 237 Q 235 251 256 251 Z" fill="black" />
  </g>
  <g class="defect" id="01">
    <path d="M 456 112 Q 496 136 480 171" fill="none" stroke="red" stroke-width="3" />
  </g>
  <g class="defect" id="02">
    <path d="M 431 237 Q 428 202 446 201" fill="none" stroke="red" stroke-width="3" />
  </g>
</svg>