<svg xmlns="http://www.w3.org/2000/svg" width="512" height="512" viewBox="0 0 512 512">
  <g class="glyph">
    <path d="M 464 67 Q 475 80 466 94 L 408 163 Q 404 168 397 169 Q 388 170 382 165 Q 370 153 380 138 L 437 70 Q 449 57 464 67 Z M 333 206 H 493 Q 500 206 505 211 Q 511 216 511 224 Q 511 232 505 237 Q 500 243 493 243 H 20 Q 12 243 7 237 Q 1 232 1 224 Q 1 216 7 211 Q 12 206 20 206 H 181 V 37 H 39 Q 31 37 26 32 Q 20 26 20 18 Q 20 11 26 5 Q 31 0 39 0 H 475 Q 482 0 488 5 Q 493 11 493 18 Q 493 26 488 32 Q 482 37 475 37 H 333 Z M 294 206 V 37 H 219 V 206 Z M 275 451 H 494 Q 501 451 507 456 Q 512 461 512 469 Q 512 477 507 482 Q 501 488 494 488 H 18 Q -6 475 5 482 Q 0 477 0 469 Q 0 461 5 456 Q 11 451 18 451 H 237 V 363 H 83 Q 76 363 70 358 Q 65 352 65 345 Q 65 337 70 331 Q 76 326 83 326 H 237 V 280 Q 237 272 243 266 Q 249 260 256 260 Q 264 260 270 266 Q 275 271 275 280 V 326 H 429 Q 436 326 442 331 Q 434 348 447 345 Q 447 352 442 358 Q 416 380 429 363 H 275 Z M 133 132 Q 144 146 134 159 Q 128 165 120 165 Q 113 165 108 159 L 58 101 Q 48 88 57 75 Q 71 64 83 75 Z" fill="black" />
  </g>
  <g class="defect" id="01">
    <path d="M 18 488 Q -6 475 5 482" fill="none" stroke="red" stroke-width="3" />
  </g>
  <g class="defect" id="02">
    <path d="M 442 358 Q 416 380 429 363" fill="none" stroke="red" stroke-width="3" />
  </g>
  <g class="defect" id="03">
    <path d="M 442 331 Q 434 348 447 345" fill="none" stroke="red" stroke-width="3" />
  </g>
</svg>