<svg xmlns="http://www.w3.org/2000/svg" width="512" height="512" viewBox="0 0 512 512">
  <g class="glyph">
    <path d="M 501 191 Q 501 199 496 204 Q 491 209 485 209 H 456 Q 423 209 408 190 Q 394 174 394 141 V 84 Q 379 68 381 56 Q 367 43 342 43 Q 319 43 306 56 Q 294 68 294 84 V 97 Q 294 135 272 169 Q 261 191 213 216 Q 212 216 209 216 Q 199 216 194 208 Q 187 193 200 183 Q 219 174 230 164 Q 258 137 258 97 V 84 Q 258 54 280 32 Q 304 7 342 7 Q 383 7 408 32 Q 430 53 430 84 V 141 Q 430 175 456 175 H 485 Q 491 175 496 180 Q 501 185 501 191 Z M 374 285 Q 441 370 501 425 Q 512 436 503 449 Q 498 455 490 455 Q 485 455 479 451 Q 416 394 361 322 V 472 Q 361 480 356 485 Q 351 490 344 490 Q 337 490 332 485 Q 327 480 327 472 V 322 Q 272 394 209 451 Q 203 455 198 455 Q 190 455 185 449 Q 176 436 186 425 Q 247 370 314 285 H 206 Q 199 285 194 280 Q 189 275 189 268 Q 189 261 194 256 Q 199 251 206 251 H 327 V 199 Q 327 191 332 186 Q 337 181 344 181 Q 351 181 356 186 Q 361 191 361 199 V 251 H 482 Q 489 251 494 256 Q 499 261 499 268 Q 499 275 494 280 Q 489 285 482 285 Z M 112 326 157 306 Q 172 301 180 314 Q 185 329 171 337 L 28 402 Q 22 403 21 403 Q 9 403 5 393 Q 0 378 13 371 L 78 341 V 163 H 22 Q 14 163 9 157 Q 4 152 4 145 Q 4 139 9 134 Q 14 129 22 129 H 78 V 17 Q 78 10 83 5 Q 88 0 95 0 Q 111 2 112 17 V 129 H 165 Q 173 129 178 134 Q 183 139 183 145 Q 193 152 178 157 Q 173 163 165 163 H 112 Z" fill="black" />
  </g>
  <g class="defect" id="01">
    <path d="M 272 169 Q 261 191 213 216" fill="none" stroke="red" stroke-width="3" />
  </g>
  <g class="defect" id="02">
    <path d="M 183 145 Q 193 152 178 157" fill="none" stroke="red" stroke-width="3" />
  </g>
  <g class="defect" id="03">
    <path d="M 394 84 Q 379 68 381 56" fill="none" stroke="red" stroke-width="3" />
  </g>
</svg>