<svg xmlns="http://www.w3.org/2000/svg" width="512" height="512" viewBox="0 0 512 512">
  <g class="glyph">
    <path d="M 407 386 501 477 Q 511 490 501 502 Q 489 512 476 503 L 381 409 Q 315 457 223 506 Q 218 509 210 506 Q 202 502 200 497 Q 196 480 210 473 Q 271 448 320 412 Q 368 376 400 343 Q 453 288 454 282 Q 465 270 480 278 Q 492 289 484 303 Q 445 351 407 386 Z M 386 217 Q 418 177 418 173 Q 428 160 443 167 Q 456 177 448 192 Q 441 204 419 232 Q 315 345 207 411 Q 191 418 182 404 Q 176 389 190 380 Q 280 332 355 252 H 263 Q 244 252 239 239 Q 234 227 243 216 L 318 110 H 202 Q 195 110 190 105 Q 185 100 185 93 Q 185 86 190 81 Q 195 76 202 76 H 333 V 18 Q 333 11 338 5 Q 343 0 351 0 Q 359 0 364 5 Q 370 10 370 18 V 76 H 489 Q 495 76 501 81 Q 506 86 506 93 Q 506 100 501 105 Q 495 110 489 110 H 352 Q 356 120 350 129 L 285 217 Z M 116 340 161 316 Q 175 309 184 322 Q 190 337 177 346 L 30 427 Q 16 433 6 420 Q 0 405 14 396 L 80 360 V 179 H 23 Q 16 179 11 174 Q 6 169 6 162 Q 6 154 11 149 Q 16 144 23 144 H 80 V 31 Q 80 23 85 18 Q 90 13 98 13 Q 105 13 110 18 Q 116 23 116 31 V 144 H 170 Q 177 144 182 149 Q 187 154 187 162 Q 187 169 182 174 Q 177 179 170 179 H 116 Z" fill="black" />
  </g>
  <g class="defect" id="01">
    <path d="M 381 409 Q 315 457 223 506" fill="none" stroke="red" stroke-width="3" />
  </g>
  <g class="defect" id="02">
    <path d="M 419 232 Q 315 345 207 411" fill="none" stroke="red" stroke-width="3" />
  </g>
</svg>