<svg xmlns="http://www.w3.org/2000/svg" width="512" height="512" viewBox="0 0 512 512">
  <g class="glyph">
    <path d="M 68 155 19 96 Q 9 83 21 70 Q 35 61 46 73 L 96 132 Q 105 145 93 157 Q 87 161 81 161 Q 74 161 68 155 Z M 456 156 Q 452 227 420 295 Q 399 342 375 374 Q 479 448 491 457 Q 504 468 496 483 Q 490 491 481 491 Q 475 491 471 489 Q 461 481 351 403 Q 289 468 195 492 Q 194 493 191 493 Q 178 492 173 480 Q 171 463 186 457 Q 267 436 321 382 Q 266 343 258 338 Q 215 308 233 251 Q 250 204 266 156 H 193 Q 186 156 180 150 Q 175 145 175 138 Q 175 130 180 125 Q 201 119 193 119 H 279 Q 314 66 316 13 Q 318 6 326 3 Q 333 0 339 2 Q 356 9 351 25 Q 335 73 318 119 H 494 Q 501 119 506 125 Q 512 131 512 138 Q 512 145 506 150 Q 501 156 494 156 Z M 419 156 H 306 Q 269 261 268 264 Q 257 292 277 306 Q 302 322 345 353 Q 368 323 387 282 Q 415 222 419 156 Z M 121 294 36 382 Q 31 388 23 388 Q 16 388 11 383 Q 0 371 10 357 L 118 245 Q 119 243 121 242 V 22 Q 121 14 126 9 Q 131 4 138 4 Q 146 4 151 9 Q 156 14 156 22 V 482 Q 155 499 138 500 Q 131 500 126 495 Q 121 490 121 482 Z" fill="black" />
  </g>
  <g class="defect" id="01">
    <path d="M 180 125 Q 201 119 193 119" fill="none" stroke="red" stroke-width="3" />
  </g>
  <g class="defect" id="02">
    <path d="M 279 119 Q 314 66 316 13" fill="none" stroke="red" stroke-width="3" />
  </g>
</svg>