<svg xmlns="http://www.w3.org/2000/svg" width="512" height="512" viewBox="0 0 512 512">
  <g class="glyph">
    <path d="M 157 276 H 126 Q 102 276 85 259 Q 68 243 67 219 L 67 218 V 218 L 67 217 Q 68 193 85 177 Q 101 160 126 160 H 157 Q 182 160 198 177 Q 215 193 215 217 V 219 Q 215 243 198 259 Q 181 276 157 276 Z M 101 218 Q 101 229 108 236 Q 115 243 126 243 H 157 Q 168 243 175 236 Q 182 229 182 218 Q 182 208 175 201 Q 167 193 157 193 H 126 Q 115 193 108 201 Q 101 208 101 218 Z M 318 135 Q 308 135 303 127 L 291 105 Q 285 90 297 82 Q 311 76 320 89 L 332 111 Q 338 125 326 133 Q 323 135 318 135 Z M 22 242 Q 17 242 12 239 Q 0 229 7 215 Q 9 214 20 189 Q 30 163 32 118 V 71 Q 32 49 47 33 Q 46 14 89 14 H 164 Q 192 14 207 33 Q 221 49 221 71 Q 221 95 206 113 Q 190 131 164 131 H 66 Q 63 171 50 205 Q 43 222 36 234 Q 31 242 22 242 Z M 66 97 H 164 Q 176 97 182 88 Q 187 81 187 71 Q 187 61 181 55 Q 176 49 164 49 H 89 Q 79 49 72 57 Q 66 63 66 71 Z M 423 143 H 475 Q 482 143 487 148 Q 491 153 491 159 Q 490 174 475 175 H 386 V 209 H 460 Q 467 209 472 214 Q 477 219 477 226 Q 475 241 460 242 H 386 V 279 Q 386 287 381 292 Q 375 297 368 297 Q 361 297 355 292 Q 350 287 350 279 V 242 H 278 Q 271 242 267 237 Q 262 233 262 226 Q 262 219 267 214 Q 272 209 278 209 H 350 V 175 H 259 Q 252 175 247 171 Q 242 166 242 159 Q 242 153 247 148 Q 252 143 259 143 H 382 L 416 87 Q 426 75 439 82 Q 453 91 445 106 Z M 386 42 H 475 Q 482 42 487 47 Q 491 51 491 58 Q 490 74 475 75 H 262 Q 255 75 251 70 Q 246 65 246 58 Q 246 51 251 47 Q 255 42 262 42 H 350 V 18 Q 350 10 355 5 Q 361 0 368 0 Q 375 0 381 5 Q 386 10 386 18 Z M 385 354 Q 378 367 364 385 Q 341 413 310 434 Q 457 474 460 475 Q 475 481 472 497 Q 468 509 455 510 Q 452 510 451 509 Q 439 505 269 459 Q 183 503 62 512 H 61 Q 54 512 49 507 Q 44 503 43 496 Q 43 489 48 483 Q 53 478 59 477 Q 150 471 216 445 Q 185 436 169 432 Q 145 426 139 406 Q 133 387 149 369 Q 156 361 163 354 H 31 Q 24 354 19 349 Q 14 343 14 336 Q 14 329 19 324 Q 24 319 31 319 H 196 Q 242 271 243 269 Q 255 258 269 268 Q 279 280 269 293 Q 269 293 245 319 H 481 Q 489 319 494 324 Q 499 329 499 336 Q 499 343 494 349 Q 489 354 481 354 Z M 343 354 H 211 Q 174 383 175 392 Q 173 394 173 396 Q 173 397 177 398 Q 221 410 265 422 Q 332 411 343 354 Z" fill="black" />
  </g>
  <g class="defect" id="01">
    <path d="M 265 422 Q 332 411 343 354" fill="none" stroke="red" stroke-width="3" />
  </g>
  <g class="defect" id="02">
    <path d="M 211 354 Q 174 383 175 392" fill="none" stroke="red" stroke-width="3" />
  </g>
  <g class="defect" id="03">
    <path d="M 47 33 Q 46 14 89 14" fill="none" stroke="red" stroke-width="3" />
  </g>
</svg>