<svg xmlns="http://www.w3.org/2000/svg" width="512" height="512" viewBox="0 0 512 512">
  <g class="glyph">
    <path d="M 357 402 H 154 Q 135 402 125 413 Q 115 423 115 439 Q 115 454 125 465 Q 135 476 154 476 H 357 Q 376 476 386 463 Q 393 453 393 439 Q 393 425 386 415 Q 376 402 357 402 Z M 357 512 H 154 Q 104 496 99 489 Q 80 469 80 439 Q 80 409 99 388 Q 119 365 154 365 H 357 Q 390 365 410 388 Q 429 409 429 439 Q 429 469 410 489 Q 391 512 357 512 Z M 272 57 H 415 Q 429 40 472 81 Q 496 104 496 139 V 153 Q 496 160 490 166 Q 485 171 477 170 Q 470 170 465 165 Q 460 160 460 152 V 138 Q 460 119 447 106 Q 433 93 415 93 H 88 Q 69 93 56 106 Q 43 119 43 138 V 153 Q 43 160 38 165 Q 32 170 25 170 H 24 Q 17 170 12 165 Q 7 160 7 152 V 138 Q 7 105 31 81 Q 55 57 88 57 H 234 V 20 Q 234 12 240 6 Q 245 0 253 0 Q 261 0 267 6 Q 272 12 272 20 Z M 272 328 V 339 Q 272 347 267 352 Q 261 357 254 357 Q 246 357 241 352 Q 236 347 236 339 V 328 H 17 Q 10 328 5 323 Q 11 318 0 311 Q 0 304 5 299 Q 10 294 17 294 H 236 V 256 H 91 Q 84 256 79 251 Q 74 246 74 239 Q 74 232 79 227 Q 84 222 91 222 H 236 V 184 H 91 Q 84 184 79 179 Q 74 174 74 167 Q 74 160 79 155 Q 84 150 91 150 H 236 V 125 Q 236 117 241 112 Q 246 107 254 107 Q 261 107 267 112 Q 272 117 272 125 V 150 H 416 Q 423 150 428 155 Q 433 160 433 167 Q 433 174 428 179 Q 423 184 416 184 H 272 V 222 H 416 Q 423 222 428 227 Q 433 232 433 239 Q 433 246 428 251 Q 423 256 416 256 H 272 V 294 H 490 Q 498 294 503 299 Q 508 304 508 311 Q 508 318 503 323 Q 498 328 490 328 Z" fill="black" />
  </g>
  <g class="defect" id="01">
    <path d="M 154 512 Q 104 496 99 489" fill="none" stroke="red" stroke-width="3" />
  </g>
  <g class="defect" id="02">
    <path d="M 5 323 Q 11 318 0 311" fill="none" stroke="red" stroke-width="3" />
  </g>
  <g class="defect" id="03">
    <path d="M 415 57 Q 429 40 472 81" fill="none" stroke="red" stroke-width="3" />
  </g>
</svg>