<svg xmlns="http://www.w3.org/2000/svg" width="512" height="512" viewBox="0 0 512 512">
  <g class="glyph">
    <path d="M 397 248 V 337 Q 397 372 372 393 Q 350 412 317 412 Q 285 412 262 393 Q 237 372 237 337 V 248 Q 237 213 262 191 Q 285 172 317 172 Q 350 172 372 191 Q 397 213 397 248 Z M 362 306 H 272 V 337 Q 272 358 288 369 Q 300 377 317 377 Q 334 377 346 369 Q 362 358 362 337 Z M 362 272 V 248 Q 362 227 346 216 Q 333 207 317 207 Q 300 207 288 216 Q 253 227 272 248 V 272 Z M 279 75 Q 336 75 393 74 Q 435 74 462 103 Q 489 131 489 177 Q 489 277 486 325 Q 481 410 465 452 Q 452 483 427 498 Q 410 509 389 511 Q 385 512 380 512 Q 373 512 367 506 Q 362 501 362 493 Q 362 486 368 480 Q 373 475 380 475 H 381 Q 372 475 400 470 Q 433 471 430 439 Q 444 402 449 317 Q 452 266 452 177 Q 452 146 436 129 Q 420 111 393 111 Q 329 112 265 112 H 263 Q 250 142 230 180 Q 225 190 215 190 Q 212 190 206 187 Q 193 178 199 163 Q 222 120 246 63 Q 264 18 264 15 Q 271 0 287 4 Q 302 10 297 27 Q 293 39 279 75 Z M 109 408 Q 123 409 134 398 Q 145 388 144 373 V 158 Q 144 151 150 146 Q 155 141 162 141 Q 169 141 174 146 Q 179 151 179 158 V 373 Q 179 402 159 422 Q 139 443 110 443 H 69 Q 40 443 20 422 Q 0 402 0 373 L 1 158 Q 1 151 6 146 Q 11 141 18 141 Q 25 141 30 146 Q 35 151 35 158 L 35 373 Q 35 387 45 398 Q 55 408 69 408 H 73 V 42 Q 73 34 79 29 Q 84 24 91 24 Q 98 24 103 29 Q 109 34 109 42 Z" fill="black" />
  </g>
  <g class="defect" id="01">
    <path d="M 400 470 Q 433 471 430 439" fill="none" stroke="red" stroke-width="3" />
  </g>
  <g class="defect" id="02">
    <path d="M 288 216 Q 253 227 272 248" fill="none" stroke="red" stroke-width="3" />
  </g>
  <g class="defect" id="03">
    <path d="M 381 475 Q 372 475 400 470" fill="none" stroke="red" stroke-width="3" />
  </g>
</svg>