<svg xmlns="http://www.w3.org/2000/svg" width="512" height="512" viewBox="0 0 512 512">
  <g class="glyph">
    <path d="M 487 512 H 339 Q 295 512 265 482 Q 235 452 235 409 V 122 Q 235 79 265 49 Q 296 18 339 18 L 479 18 Q 487 18 493 24 Q 499 30 499 38 Q 516 31 493 51 Q 488 57 479 57 H 339 Q 312 57 293 76 Q 274 95 274 122 V 409 Q 274 436 293 455 Q 312 474 339 474 L 487 473 Q 495 473 501 479 Q 507 485 507 492 Q 507 500 501 506 Q 495 512 487 512 Z M 418 259 484 361 Q 492 376 477 387 Q 473 389 468 389 Q 457 389 452 380 L 399 299 Q 371 362 335 423 Q 330 432 319 432 Q 314 432 309 429 Q 307 407 303 404 Q 339 345 376 262 L 315 167 Q 308 152 321 142 Q 336 135 346 148 L 393 221 Q 436 113 438 103 Q 445 87 461 90 Q 477 97 474 113 Q 471 131 418 259 Z M 115 416 Q 133 415 145 403 Q 157 390 157 372 V 134 Q 157 126 163 121 Q 168 116 175 116 Q 191 117 193 134 V 372 Q 193 405 170 429 Q 147 452 114 452 H 80 Q 46 452 23 429 Q 0 405 0 372 V 134 Q 0 126 5 121 Q 11 116 18 116 Q 34 117 36 134 V 372 Q 36 390 48 403 Q 61 415 79 416 V 18 Q 79 11 84 5 Q 89 0 97 0 Q 104 0 110 5 Q 115 11 115 18 Z" fill="black" />
  </g>
  <g class="defect" id="01">
    <path d="M 309 429 Q 307 407 303 404" fill="none" stroke="red" stroke-width="3" />
  </g>
  <g class="defect" id="02">
    <path d="M 499 38 Q 516 31 493 51" fill="none" stroke="red" stroke-width="3" />
  </g>
</svg>