<svg xmlns="http://www.w3.org/2000/svg" width="512" height="512" viewBox="0 0 512 512">
  <g class="glyph">
    <path d="M 495 234 V 241 Q 495 248 491 253 Q 486 259 479 259 Q 472 260 466 255 Q 461 249 461 243 V 235 Q 445 216 448 202 Q 435 189 416 189 H 288 Q 269 189 256 202 Q 243 216 243 235 V 243 Q 243 249 237 255 Q 232 260 225 259 Q 218 259 213 253 Q 208 248 208 241 V 234 Q 208 200 232 177 Q 255 154 288 154 H 416 Q 449 154 472 177 Q 495 200 495 234 Z M 419 82 V 114 Q 417 131 401 132 Q 393 132 388 127 Q 382 121 382 114 V 82 H 322 V 114 Q 321 131 304 132 Q 296 132 291 127 Q 286 122 286 114 V 82 H 224 Q 216 82 211 77 Q 206 72 206 64 Q 206 57 211 52 Q 216 47 224 47 H 286 V 18 Q 286 10 291 5 Q 296 0 304 0 Q 312 0 317 5 Q 322 10 322 18 V 47 H 382 V 18 Q 382 11 388 5 Q 393 0 401 0 Q 408 0 413 5 Q 419 11 419 18 V 47 H 481 Q 489 47 494 52 Q 499 57 499 64 Q 499 72 494 77 Q 489 82 481 82 Z M 388 316 Q 432 385 498 444 Q 509 456 499 468 Q 494 474 486 474 Q 479 474 474 470 Q 412 414 370 351 V 494 Q 370 502 364 507 Q 359 512 353 512 Q 345 512 340 507 Q 335 502 335 494 V 351 Q 292 415 230 470 Q 226 474 218 474 Q 211 474 206 468 Q 195 456 207 444 Q 273 385 317 316 H 235 Q 228 316 223 311 Q 218 306 218 298 Q 218 292 223 286 Q 228 281 235 281 H 335 V 235 Q 335 227 340 222 Q 345 217 353 217 Q 359 217 364 222 Q 370 227 370 235 V 281 H 468 Q 476 281 481 286 Q 486 292 486 298 Q 486 306 481 311 Q 476 316 468 316 Z M 107 396 H 111 Q 125 396 135 386 Q 145 376 145 362 V 156 Q 145 149 150 144 Q 155 139 162 139 Q 169 139 174 144 Q 179 149 179 156 V 363 Q 179 391 159 411 Q 140 431 111 431 H 68 Q 40 431 20 411 Q 0 391 0 362 V 156 Q 0 149 5 144 Q 10 139 17 139 Q 24 139 29 144 Q 34 149 34 156 V 362 Q 34 376 44 386 Q 55 396 68 396 H 72 V 49 Q 74 33 89 32 Q 96 32 101 37 Q 107 42 107 49 Z" fill="black" />
  </g>
  <g class="defect" id="01">
    <path d="M 461 235 Q 445 216 448 202" fill="none" stroke="red" stroke-width="3" />
  </g>
</svg>