<svg xmlns="http://www.w3.org/2000/svg" width="512" height="512" viewBox="0 0 512 512">
  <g class="glyph">
    <path d="M 359 482 Q 350 482 345 475 Q 337 462 348 451 Q 404 406 439 368 Q 474 329 476 326 Q 487 315 500 324 Q 512 335 503 348 Q 496 359 464 392 Q 418 441 369 478 Q 365 482 359 482 Z M 367 321 Q 359 321 354 315 Q 344 303 355 291 Q 401 249 433 214 Q 465 178 466 175 Q 478 164 491 173 Q 502 184 493 198 Q 490 202 458 238 Q 425 274 379 317 Q 373 321 367 321 Z M 377 165 Q 369 165 364 160 Q 354 148 364 136 Q 404 94 431 61 Q 457 28 459 26 Q 469 14 483 23 Q 509 14 486 47 Q 441 108 389 160 Q 384 165 377 165 Z M 285 236 V 474 Q 284 491 267 492 Q 251 491 250 474 V 238 Q 226 304 197 362 Q 192 372 182 372 Q 178 372 174 370 Q 160 362 167 347 Q 193 292 221 218 Q 242 158 242 154 L 243 152 H 206 Q 198 152 193 147 Q 188 142 188 135 Q 188 128 193 123 Q 198 118 206 118 H 250 V 18 Q 250 10 255 5 Q 260 0 267 0 Q 275 0 280 5 Q 285 10 285 18 V 118 H 325 Q 317 118 338 123 Q 343 128 343 135 Q 343 142 338 147 Q 333 152 325 152 H 285 V 197 Q 296 194 304 203 L 337 252 Q 344 266 333 276 Q 329 279 323 279 Q 314 279 309 271 Z M 119 236 V 475 Q 118 492 102 493 Q 94 493 89 488 Q 84 483 84 475 V 251 Q 62 309 36 362 Q 32 372 21 372 Q 18 372 13 370 Q 0 362 6 347 Q 40 277 60 218 Q 81 158 82 154 L 82 152 H 32 Q 25 152 19 147 Q -2 161 14 135 Q 14 128 19 123 Q 25 118 32 118 H 84 V 22 Q 84 15 89 10 Q 94 5 102 5 Q 109 5 114 10 Q 119 15 119 22 V 118 H 159 Q 166 118 171 123 Q 176 128 176 135 Q 176 142 171 147 Q 166 152 159 152 H 119 V 201 Q 133 196 141 207 L 170 253 Q 178 267 165 276 Q 162 279 157 279 Q 147 279 142 271 Z" fill="black" />
  </g>
  <g class="defect" id="01">
    <path d="M 483 23 Q 509 14 486 47" fill="none" stroke="red" stroke-width="3" />
  </g>
  <g class="defect" id="02">
    <path d="M 19 147 Q -2 161 14 135" fill="none" stroke="red" stroke-width="3" />
  </g>
  <g class="defect" id="03">
    <path d="M 325 118 Q 317 118 338 123" fill="none" stroke="red" stroke-width="3" />
  </g>
</svg>