<svg xmlns="http://www.w3.org/2000/svg" width="512" height="512" viewBox="0 0 512 512">
  <g class="glyph">
    <path d="M 181 448 Q 172 448 167 442 Q 158 429 170 417 Q 196 394 213 377 Q 230 360 231 359 Q 243 348 256 358 Q 267 370 257 383 Q 256 385 238 403 Q 220 420 192 444 Q 175 448 181 448 Z M 489 452 Q 481 452 475 446 L 417 382 Q 408 369 418 357 Q 431 346 444 358 L 502 422 Q 512 435 501 447 Q 495 452 489 452 Z M 393 194 H 283 Q 264 194 253 209 Q 246 221 246 236 Q 246 251 253 263 Q 264 278 283 278 H 393 Q 413 278 424 263 Q 431 252 431 236 Q 431 220 424 209 Q 413 194 393 194 Z M 97 507 Q 90 507 85 502 Q 80 497 80 489 V 20 Q 80 12 85 7 Q 105 21 97 2 Q 104 2 109 7 Q 114 12 114 20 V 489 Q 114 497 109 502 Q 104 507 97 507 Z M 17 281 15 280 Q 8 279 4 273 Q 0 268 1 261 Q 11 170 11 155 Q 12 149 17 144 Q 23 139 30 139 Q 37 140 42 145 Q 46 150 46 158 Q 46 173 35 265 Q 32 279 17 281 Z M 174 213 Q 162 213 158 201 L 144 155 Q 141 140 156 134 Q 171 132 177 146 L 190 192 Q 182 218 179 212 Q 175 213 174 213 Z M 360 79 H 482 Q 489 79 494 84 Q 499 89 499 96 Q 499 103 494 108 Q 489 113 482 113 H 206 Q 199 113 194 108 Q 189 103 189 96 Q 189 89 194 84 Q 199 79 206 79 H 323 V 19 Q 324 1 341 0 Q 350 0 355 5 Q 360 11 360 19 Z M 358 313 V 429 Q 358 464 336 486 Q 319 501 298 504 L 296 504 Q 289 504 284 500 Q 278 495 278 488 Q 277 480 282 474 Q 286 468 293 468 Q 302 466 310 460 Q 322 450 322 429 V 313 H 283 Q 250 313 230 288 Q 211 266 211 236 Q 211 206 230 184 Q 250 159 283 159 H 393 Q 426 159 447 184 Q 466 205 466 236 Q 466 266 447 288 Q 426 313 393 313 Z" fill="black" />
  </g>
  <g class="defect" id="01">
    <path d="M 190 192 Q 182 218 179 212" fill="none" stroke="red" stroke-width="3" />
  </g>
  <g class="defect" id="02">
    <path d="M 85 7 Q 105 21 97 2" fill="none" stroke="red" stroke-width="3" />
  </g>
  <g class="defect" id="03">
    <path d="M 192 444 Q 175 448 181 448" fill="none" stroke="red" stroke-width="3" />
  </g>
</svg>