<svg xmlns="http://www.w3.org/2000/svg" width="512" height="512" viewBox="0 0 512 512">
  <g class="glyph">
    <path d="M 419 477 Q 428 477 434 465 Q 425 472 439 443 V 305 Q 439 288 428 277 Q 416 265 399 265 H 203 Q 187 265 175 277 Q 163 289 163 305 V 494 Q 163 501 158 506 Q 153 511 146 511 Q 139 511 134 506 Q 129 501 129 494 V 305 Q 129 274 151 253 Q 172 231 203 231 H 399 Q 430 231 452 253 Q 474 275 474 305 V 443 Q 474 467 463 485 Q 450 506 423 512 H 420 Q 408 512 405 499 Q 403 491 407 485 Q 411 478 419 477 Z M 95 115 V 149 H 400 Q 415 149 421 134 Q 424 126 424 118 Q 424 110 421 101 Q 415 87 400 87 H 124 Q 112 87 104 94 Q 96 103 95 115 Z M 335 348 H 266 Q 253 348 244 359 Q 237 368 237 382 Q 237 396 244 405 Q 252 416 266 416 H 335 Q 350 416 358 405 Q 365 396 365 382 Q 365 368 358 359 Q 349 348 335 348 Z M 335 450 H 266 Q 236 450 219 429 Q 203 409 203 382 Q 203 355 219 335 Q 237 314 266 314 H 335 Q 365 314 383 335 Q 400 355 400 382 Q 400 409 384 429 Q 366 450 335 450 Z M 278 52 H 400 Q 427 52 444 74 Q 458 93 458 118 Q 458 143 444 162 Q 427 183 400 183 H 95 V 244 Q 92 338 68 402 Q 44 465 35 475 Q 30 482 22 482 Q 16 482 11 478 Q 0 468 8 454 Q 14 447 36 386 Q 58 325 61 244 V 115 Q 61 89 79 71 Q 97 52 124 52 H 240 V 19 Q 240 11 245 6 Q 251 0 259 0 Q 267 0 273 6 Q 278 11 278 19 Z" fill="black" />
  </g>
  <g class="defect" id="01">
    <path d="M 434 465 Q 425 472 439 443" fill="none" stroke="red" stroke-width="3" />
  </g>
</svg>