<svg xmlns="http://www.w3.org/2000/svg" width="512" height="512" viewBox="0 0 512 512">
  <g class="glyph">
    <path d="M 437 110 Q 428 110 422 103 L 395 65 Q 387 50 400 39 Q 429 46 424 44 L 451 82 Q 460 97 447 107 Q 443 110 437 110 Z M 415 509 Q 377 509 355 489 Q 333 469 333 434 V 261 Q 333 253 338 248 Q 344 243 351 243 Q 358 243 364 248 Q 369 253 369 261 V 434 Q 369 453 381 463 Q 393 473 415 473 Q 443 473 457 455 Q 466 445 467 434 Q 467 426 474 422 Q 480 417 487 418 Q 504 421 503 438 Q 501 463 482 483 Q 457 509 415 509 Z M 335 146 H 477 Q 499 162 490 151 Q 495 156 495 164 Q 495 171 490 176 Q 485 181 477 181 H 334 Q 329 303 260 413 Q 230 462 190 502 Q 184 507 177 507 Q 169 507 164 502 Q 153 488 164 475 Q 200 439 228 395 Q 292 294 297 181 H 207 Q 199 181 193 176 Q 188 171 188 164 Q 188 156 193 151 Q 199 146 207 146 H 298 V 22 Q 298 14 303 9 Q 308 4 316 4 Q 324 4 330 9 Q 335 14 335 22 Z M 122 312 V 431 Q 122 471 99 493 Q 82 510 60 512 H 58 Q 51 512 46 507 Q 40 502 40 494 Q 40 487 45 482 Q 50 477 57 476 Q 66 475 73 468 Q 86 456 86 431 V 329 L 29 356 Q 25 358 21 358 Q 10 358 5 347 Q 0 331 14 323 L 86 290 V 143 H 20 Q 13 143 8 138 Q 3 133 3 126 Q 3 118 8 113 Q 13 108 20 108 H 86 V 18 Q 86 10 91 5 Q 96 0 104 0 Q 112 0 117 5 Q 122 10 122 18 V 108 H 172 Q 179 108 184 113 Q 189 118 189 126 Q 189 133 184 138 Q 179 143 172 143 H 122 V 273 L 173 249 Q 189 244 197 258 Q 202 273 188 281 Z" fill="black" />
  </g>
  <g class="defect" id="01">
    <path d="M 477 146 Q 499 162 490 151" fill="none" stroke="red" stroke-width="3" />
  </g>
  <g class="defect" id="02">
    <path d="M 400 39 Q 429 46 424 44" fill="none" stroke="red" stroke-width="3" />
  </g>
</svg>