<svg xmlns="http://www.w3.org/2000/svg" width="512" height="512" viewBox="0 0 512 512">
  <g class="glyph">
    <path d="M 403 415 Q 394 415 389 409 L 350 357 Q 342 344 353 333 Q 367 324 377 336 L 417 388 Q 425 402 413 412 Q 409 415 403 415 Z M 376 244 Q 370 244 365 241 Q 353 230 362 217 L 392 178 Q 402 167 416 176 Q 428 186 419 200 L 390 238 Q 385 244 376 244 Z M 240 241 Q 231 241 226 233 L 209 206 Q 201 192 214 182 Q 228 174 238 187 L 255 214 Q 263 228 249 238 Q 245 241 240 241 Z M 328 303 V 486 Q 327 502 310 504 Q 302 504 297 499 Q 292 494 292 486 V 330 Q 245 390 182 435 Q 178 438 172 438 Q 163 438 157 430 Q 149 417 161 406 Q 220 364 268 303 H 184 Q 177 303 172 298 Q 167 293 167 286 Q 167 279 172 274 Q 177 269 184 269 H 292 V 165 Q 292 157 297 152 Q 302 147 310 147 Q 327 149 328 165 V 269 H 426 Q 442 270 443 286 Q 442 302 426 303 Z M 243 89 H 407 Q 447 89 473 116 Q 498 144 498 187 V 198 Q 498 305 497 352 Q 494 427 486 452 Q 474 488 444 503 Q 428 512 415 512 H 414 Q 398 511 396 495 Q 396 488 401 482 Q 406 476 413 476 Q 407 462 429 471 Q 445 461 452 441 Q 462 409 462 198 V 187 Q 462 159 447 142 Q 432 126 407 126 H 238 Q 228 126 223 118 Q 202 148 181 173 Q 176 180 167 180 Q 160 180 156 176 Q 144 164 153 150 Q 192 101 217 61 Q 243 20 244 18 Q 253 4 269 10 Q 282 20 276 35 Q 259 63 243 89 Z M 107 289 V 440 Q 107 489 70 508 Q 64 511 58 507 Q 52 503 51 496 Q 49 486 63 468 Q 54 445 71 440 V 310 L 30 333 Q 24 335 22 335 Q 12 335 6 326 Q 0 311 13 302 L 71 269 V 139 H 24 Q 17 139 12 134 Q 7 129 7 122 Q 7 115 12 110 Q 17 105 24 105 H 71 V 18 Q 71 11 76 6 Q 82 0 89 0 Q 96 0 102 6 Q 107 11 107 18 V 105 H 136 Q 144 105 149 110 Q 154 115 154 122 Q 154 129 149 134 Q 144 139 136 139 H 107 V 249 L 131 235 Q 129 228 155 242 Q 163 256 149 265 Z" fill="black" />
  </g>
  <g class="defect" id="01">
    <path d="M 63 468 Q 54 445 71 440" fill="none" stroke="red" stroke-width="3" />
  </g>
  <g class="defect" id="02">
    <path d="M 131 235 Q 129 228 155 242" fill="none" stroke="red" stroke-width="3" />
  </g>
  <g class="defect" id="03">
    <path d="M 413 476 Q 407 462 429 471" fill="none" stroke="red" stroke-width="3" />
  </g>
</svg>