<svg xmlns="http://www.w3.org/2000/svg" width="512" height="512" viewBox="0 0 512 512">
  <g class="glyph">
    <path d="M 460 378 H 403 Q 396 378 391 373 Q 400 368 386 360 Q 386 354 391 348 Q 396 343 403 343 H 460 V 320 Q 460 303 448 291 Q 436 279 419 279 L 400 278 Q 393 278 388 273 Q 383 268 383 261 Q 383 253 389 248 Q 394 243 401 243 H 401 L 420 244 Q 433 244 473 266 Q 495 288 495 320 L 496 405 Q 495 440 472 464 Q 449 486 414 487 H 271 Q 237 487 213 464 Q 189 439 189 405 V 318 Q 189 291 206 270 Q 223 249 251 242 L 279 236 Q 295 233 301 249 Q 303 265 288 270 L 259 276 Q 226 286 224 318 V 343 H 285 Q 292 343 297 348 Q 302 354 302 360 Q 302 368 297 373 Q 292 378 285 378 H 224 V 405 Q 224 425 238 438 Q 251 452 271 452 H 326 V 176 H 197 Q 181 175 179 158 Q 179 151 184 145 Q 189 140 197 140 H 326 V 65 Q 271 72 222 74 H 222 Q 214 74 209 69 Q 204 64 204 57 Q 204 50 209 45 Q 214 39 220 38 Q 291 35 379 23 Q 449 13 453 11 Q 470 10 474 25 Q 476 42 460 46 Q 411 53 362 60 V 140 H 495 Q 502 140 507 145 Q 512 151 512 158 Q 510 175 495 176 H 362 V 452 H 414 Q 433 452 447 438 Q 460 425 460 405 Z M 111 294 V 425 Q 111 462 89 482 Q 73 497 53 498 H 52 Q 45 498 40 493 Q 35 488 34 482 Q 34 475 39 469 Q 44 464 51 463 Q 59 462 65 457 Q 76 447 76 425 V 311 L 29 333 Q 25 334 21 334 Q 10 334 6 324 Q 0 310 14 301 L 76 272 V 145 H 21 Q 14 145 9 140 Q 4 135 4 128 Q 4 121 9 116 Q 14 111 21 111 H 76 V 17 Q 76 10 81 5 Q 86 0 93 0 Q 100 0 105 5 Q 111 10 111 17 V 111 H 155 Q 162 111 167 116 Q 172 121 172 128 Q 172 135 167 140 Q 162 145 155 145 H 111 V 256 L 148 238 Q 164 233 172 246 Q 177 262 164 270 Z" fill="black" />
  </g>
  <g class="defect" id="01">
    <path d="M 420 244 Q 433 244 473 266" fill="none" stroke="red" stroke-width="3" />
  </g>
  <g class="defect" id="02">
    <path d="M 391 373 Q 400 368 386 360" fill="none" stroke="red" stroke-width="3" />
  </g>
</svg>