<svg xmlns="http://www.w3.org/2000/svg" width="512" height="512" viewBox="0 0 512 512">
  <g class="glyph">
    <path d="M 334 238 Q 327 238 322 233 Q 317 228 317 221 V 125 Q 317 119 322 113 Q 327 108 334 108 Q 341 108 346 113 Q 351 119 351 125 V 221 Q 351 228 346 233 Q 341 238 334 238 Z M 447 217 Q 443 217 440 215 Q 426 207 431 192 L 469 111 Q 477 97 492 103 Q 506 111 500 125 L 463 207 Q 459 217 447 217 Z M 416 234 V 242 Q 416 265 430 316 Q 454 400 503 462 Q 512 476 500 486 Q 496 490 489 490 Q 481 490 476 483 Q 416 404 402 342 Q 379 425 329 488 Q 324 494 316 494 Q 310 494 304 489 Q 294 478 303 465 Q 310 458 323 436 Q 381 343 381 234 V 17 Q 381 10 386 5 Q 391 0 399 0 Q 406 0 411 5 Q 416 10 416 17 Z M 252 271 V 484 Q 252 491 247 496 Q 242 501 235 501 Q 227 501 222 496 Q 217 491 217 484 V 262 Q 191 321 168 360 Q 163 369 154 369 Q 148 369 145 366 Q 132 357 138 343 Q 180 272 213 184 H 168 Q 161 184 156 179 Q 151 174 151 167 Q 151 160 156 155 Q 161 150 168 150 H 217 V 56 Q 198 62 179 67 Q 178 68 176 68 Q 162 67 158 54 Q 156 38 172 33 Q 256 11 270 5 Q 286 1 292 15 Q 296 30 282 37 Q 267 42 252 46 V 48 V 150 H 281 Q 273 150 293 155 Q 298 160 298 167 Q 298 174 293 179 Q 288 184 281 184 H 252 V 243 Q 253 243 253 242 Q 267 235 277 247 L 304 288 Q 311 303 299 312 Q 294 315 289 315 Q 280 315 275 307 Z M 98 295 V 427 Q 98 462 78 482 Q 64 497 46 500 Q 45 501 43 501 Q 29 500 26 486 Q 25 470 40 466 Q 47 465 53 459 Q 63 448 63 427 V 312 L 29 329 Q 24 331 21 331 Q 11 331 6 322 Q 0 307 14 299 L 63 274 V 137 H 24 Q 17 137 12 132 Q 7 126 7 120 Q 8 104 24 103 H 63 V 20 Q 63 12 68 7 Q 73 2 81 2 Q 87 2 93 7 Q 98 12 98 20 V 103 H 130 Q 137 103 142 108 Q 147 113 147 120 Q 147 126 142 132 Q 137 137 130 137 H 98 V 256 L 124 243 Q 139 237 147 250 Q 154 265 139 273 Z" fill="black" />
  </g>
  <g class="defect" id="01">
    <path d="M 476 483 Q 416 404 402 342" fill="none" stroke="red" stroke-width="3" />
  </g>
  <g class="defect" id="02">
    <path d="M 281 150 Q 273 150 293 155" fill="none" stroke="red" stroke-width="3" />
  </g>
</svg>