<svg xmlns="http://www.w3.org/2000/svg" width="512" height="512" viewBox="0 0 512 512">
  <g class="glyph">
    <path d="M 272 123 H 237 Q 228 123 224 131 Q 221 135 221 139 Q 221 156 237 156 H 272 Q 280 156 285 151 Q 289 147 289 139 Q 289 135 287 131 Q 283 123 272 123 Z M 272 187 H 237 Q 216 187 203 172 Q 191 158 191 139 Q 191 121 203 107 Q 216 92 237 92 H 272 Q 294 92 308 107 Q 307 120 320 139 Q 320 158 308 171 Q 294 187 272 187 Z M 428 123 H 390 Q 381 123 377 131 Q 374 135 374 139 Q 374 144 377 148 Q 381 156 390 156 H 428 Q 437 156 441 151 Q 445 146 445 139 Q 445 135 443 131 Q 438 123 428 123 Z M 428 187 H 390 Q 368 187 356 172 Q 344 159 344 139 Q 344 122 355 108 Q 369 92 390 92 H 428 Q 450 92 464 107 Q 476 120 476 139 Q 476 157 464 172 Q 449 187 428 187 Z M 407 427 Q 442 457 491 477 Q 505 483 501 498 Q 496 509 485 509 Q 483 509 479 508 Q 407 480 362 430 Q 319 413 321 365 Q 301 378 261 400 V 471 L 332 453 Q 346 450 352 463 Q 354 479 340 483 L 259 506 Q 243 510 235 504 Q 226 498 226 486 V 418 Q 192 435 175 442 Q 171 443 169 443 Q 158 443 154 433 Q 150 420 163 413 Q 215 392 270 359 H 159 Q 146 358 144 344 Q 146 329 159 328 H 251 V 300 H 192 Q 179 299 177 285 Q 179 271 192 269 H 251 V 246 H 181 Q 167 245 166 231 Q 167 216 181 215 H 251 V 207 Q 251 200 256 195 Q 261 190 268 190 Q 275 190 280 195 Q 285 200 285 207 V 215 H 369 V 207 Q 369 200 374 195 Q 379 190 386 190 Q 393 190 398 195 Q 404 200 404 207 V 215 H 475 Q 490 216 491 231 Q 490 245 475 246 H 404 V 269 H 461 Q 475 271 476 285 Q 475 299 461 300 H 404 V 328 H 483 Q 497 329 498 344 Q 497 358 483 359 H 354 Q 365 382 383 403 L 437 372 Q 451 366 459 378 Q 466 393 453 401 Z M 369 328 V 300 H 285 V 328 Z M 369 269 V 246 H 285 V 269 Z M 350 45 H 489 Q 496 45 501 50 Q 506 54 506 61 Q 505 76 489 78 H 174 Q 167 78 162 73 Q 157 68 157 61 Q 157 54 162 50 Q 167 45 174 45 H 313 V 18 Q 313 11 319 5 Q 324 0 332 0 Q 340 0 345 5 Q 350 11 350 18 Z M 99 306 V 449 Q 99 477 79 495 Q 65 508 46 511 Q 45 512 43 512 Q 36 512 31 508 Q 26 503 25 497 Q 24 480 40 477 Q 63 470 63 449 V 324 L 29 341 Q 25 343 21 343 Q 11 343 5 334 Q 0 319 13 310 L 63 285 V 147 H 23 Q 16 147 11 142 Q 6 136 6 130 Q 6 122 11 117 Q 16 112 23 112 H 63 V 25 Q 63 18 68 13 Q 74 7 81 7 Q 88 7 94 13 Q 99 18 99 25 V 112 H 136 Q 143 112 148 117 Q 154 122 154 130 Q 154 136 148 142 Q 143 147 136 147 H 99 V 267 L 124 254 Q 140 248 148 261 Q 154 277 140 285 Z" fill="black" />
  </g>
  <g class="defect" id="01">
    <path d="M 362 430 Q 319 413 321 365" fill="none" stroke="red" stroke-width="3" />
  </g>
  <g class="defect" id="02">
    <path d="M 308 107 Q 307 120 320 139" fill="none" stroke="red" stroke-width="3" />
  </g>
</svg>