<svg xmlns="http://www.w3.org/2000/svg" width="512" height="512" viewBox="0 0 512 512">
  <g class="glyph">
    <path d="M 461 272 H 394 Q 386 272 381 267 Q 376 261 376 254 Q 376 247 381 242 Q 386 237 394 237 H 461 V 111 Q 461 95 449 83 Q 437 71 421 72 L 385 72 Q 378 72 373 67 Q 368 62 368 55 Q 368 47 373 42 Q 358 37 385 37 L 421 37 Q 452 36 474 58 Q 496 80 496 111 V 423 Q 480 454 474 476 Q 453 498 421 498 H 293 Q 262 498 240 476 Q 219 454 219 423 V 115 Q 219 83 227 65 Q 238 43 263 38 L 317 27 Q 333 26 338 41 Q 340 57 324 62 L 276 72 Q 263 76 257 87 Q 254 95 254 115 V 236 H 315 Q 322 236 328 241 Q 333 246 333 253 Q 333 260 328 265 Q 322 271 315 271 H 254 V 423 Q 254 440 265 451 Q 277 462 293 462 H 421 Q 438 462 449 451 Q 461 440 461 423 Z M 135 252 V 494 Q 135 502 130 507 Q 125 512 118 512 Q 111 512 106 507 Q 100 502 100 494 V 245 Q 71 319 36 383 Q 31 392 21 392 Q 15 392 13 390 Q 0 381 6 367 Q 55 275 98 157 H 25 Q 18 157 13 152 Q 8 147 8 140 Q 8 134 13 129 Q 18 124 25 124 H 100 V 18 Q 100 11 106 6 Q 111 0 118 0 Q 124 0 130 6 Q 135 11 135 18 V 124 H 180 Q 198 124 191 129 Q 196 134 196 140 Q 195 156 180 157 H 135 V 225 Q 136 225 137 224 Q 150 217 160 228 L 200 288 Q 208 302 196 312 Q 193 314 187 314 Q 177 314 172 307 Z" fill="black" />
  </g>
  <g class="defect" id="01">
    <path d="M 180 124 Q 198 124 191 129" fill="none" stroke="red" stroke-width="3" />
  </g>
  <g class="defect" id="02">
    <path d="M 373 42 Q 358 37 385 37" fill="none" stroke="red" stroke-width="3" />
  </g>
  <g class="defect" id="03">
    <path d="M 496 423 Q 480 454 474 476" fill="none" stroke="red" stroke-width="3" />
  </g>
</svg>