<svg xmlns="http://www.w3.org/2000/svg" width="512" height="512" viewBox="0 0 512 512">
  <g class="glyph">
    <path d="M 321 380 Q 291 380 270 361 Q 246 341 246 306 V 269 Q 246 235 270 214 Q 291 196 320 196 Q 350 196 372 214 Q 395 235 395 269 V 306 Q 395 340 371 361 Q 351 380 321 380 Z M 320 231 Q 307 231 296 239 Q 282 249 282 269 V 306 Q 282 326 296 336 Q 307 344 321 344 Q 337 344 348 335 Q 359 324 359 306 V 269 Q 340 259 345 239 Q 334 231 320 231 Z M 273 91 H 415 Q 450 91 474 115 Q 498 138 498 174 V 180 Q 498 238 497 271 Q 493 407 463 458 Q 446 487 416 499 Q 397 506 378 506 H 374 Q 357 503 357 486 Q 357 479 364 474 Q 369 469 377 469 Q 381 472 397 466 Q 420 460 431 440 Q 456 393 460 270 Q 461 238 461 180 V 174 Q 461 156 449 142 Q 436 127 415 127 H 255 Q 242 155 221 195 Q 216 205 205 205 Q 200 205 196 202 Q 182 193 189 177 Q 215 129 242 68 Q 265 18 265 15 Q 256 11 289 5 Q 304 13 299 29 Q 286 60 273 91 Z M 125 254 V 494 Q 124 511 107 512 Q 99 512 94 507 Q 89 502 89 494 V 248 Q 60 326 37 375 Q 32 385 21 385 Q 17 385 14 384 Q 0 376 5 360 Q 42 279 63 218 Q 84 157 84 153 L 85 151 H 29 Q 21 151 16 146 Q 11 141 11 133 Q 11 126 16 121 Q 21 116 29 116 H 89 V 18 Q 89 10 94 5 Q 99 0 107 0 Q 115 0 120 5 Q 125 11 125 18 V 116 H 164 Q 171 116 176 121 Q 181 126 181 133 Q 181 141 176 146 Q 171 151 164 151 H 125 V 222 Q 140 214 150 227 L 184 279 Q 192 294 179 304 Q 174 307 169 307 Q 173 307 155 299 Z" fill="black" />
  </g>
  <g class="defect" id="01">
    <path d="M 169 307 Q 173 307 155 299" fill="none" stroke="red" stroke-width="3" />
  </g>
  <g class="defect" id="02">
    <path d="M 265 15 Q 256 11 289 5" fill="none" stroke="red" stroke-width="3" />
  </g>
  <g class="defect" id="03">
    <path d="M 359 269 Q 340 259 345 239" fill="none" stroke="red" stroke-width="3" />
  </g>
</svg>