<svg xmlns="http://www.w3.org/2000/svg" width="512" height="512" viewBox="0 0 512 512">
  <g class="glyph">
    <path d="M 418 487 H 372 Q 333 487 327 468 Q 308 450 308 423 V 339 Q 308 312 327 293 Q 346 274 372 274 H 418 Q 445 274 463 293 Q 482 312 482 339 V 423 Q 482 450 463 468 Q 445 487 418 487 Z M 158 205 Q 151 205 146 200 Q 141 195 141 187 Q 141 180 146 175 Q 151 170 158 170 Q 194 170 211 185 Q 229 199 229 230 V 434 L 264 416 Q 278 409 287 422 Q 293 437 281 446 L 235 470 Q 225 476 218 476 Q 195 461 204 470 Q 195 463 195 447 V 230 Q 195 205 158 205 Z M 229 122 Q 220 123 213 115 L 160 49 Q 151 36 161 23 Q 175 14 186 26 L 239 93 Q 249 107 238 118 Q 234 120 229 122 Z M 448 394 H 341 V 423 Q 341 436 350 445 Q 359 454 372 454 H 418 Q 431 454 439 445 Q 448 436 448 423 Z M 448 361 V 339 Q 448 326 439 317 Q 431 308 418 308 H 372 Q 359 308 350 317 Q 341 326 341 339 V 361 Z M 424 173 H 495 Q 510 174 512 190 Q 510 205 495 206 H 396 Q 333 278 271 331 Q 266 335 259 335 Q 252 335 247 330 Q 238 317 248 306 Q 301 260 351 206 H 265 Q 258 206 253 201 Q 248 196 248 190 Q 248 183 253 178 Q 258 173 265 173 H 338 V 107 H 291 Q 284 107 279 102 Q 274 97 274 90 Q 274 83 279 78 Q 284 73 291 73 H 338 V 23 Q 338 16 343 11 Q 363 -12 355 6 Q 362 6 367 11 Q 372 16 372 23 V 73 H 418 Q 426 73 431 78 Q 436 83 436 90 Q 436 97 431 102 Q 426 107 418 107 H 372 V 173 H 380 Q 413 135 445 91 Q 468 60 470 56 Q 479 44 493 50 Q 505 59 499 74 Q 468 119 424 173 Z M 112 236 V 474 Q 111 489 96 490 Q 89 490 85 486 Q 80 481 80 474 V 236 Q 59 306 35 363 Q 30 373 20 373 Q 17 373 13 372 Q 0 364 6 350 Q 44 262 70 150 H 26 Q 20 150 15 146 Q 10 141 10 134 Q 10 128 15 123 Q 20 118 26 118 H 80 V 16 Q 80 9 85 5 Q 89 0 96 0 Q 103 0 108 5 Q 112 9 112 16 V 118 H 147 Q 154 118 159 123 Q 163 128 163 134 Q 162 149 147 150 H 112 V 209 Q 124 203 132 212 L 162 252 Q 169 263 159 273 Q 155 276 150 276 Q 142 276 138 271 Z" fill="black" />
  </g>
  <g class="defect" id="01">
    <path d="M 218 476 Q 195 461 204 470" fill="none" stroke="red" stroke-width="3" />
  </g>
  <g class="defect" id="02">
    <path d="M 343 11 Q 363 -12 355 6" fill="none" stroke="red" stroke-width="3" />
  </g>
  <g class="defect" id="03">
    <path d="M 372 487 Q 333 487 327 468" fill="none" stroke="red" stroke-width="3" />
  </g>
</svg>