<svg xmlns="http://www.w3.org/2000/svg" width="512" height="512" viewBox="0 0 512 512">
  <g class="glyph">
    <path d="M 386 336 348 255 Q 343 238 358 230 Q 373 225 381 240 L 419 321 Q 423 336 410 344 Q 406 346 403 346 Q 391 346 386 336 Z M 222 99 186 53 Q 177 40 189 28 Q 203 19 215 31 L 251 76 Q 259 90 247 102 Q 258 105 236 105 Q 227 105 222 99 Z M 108 114 Q 101 114 95 109 L 47 61 Q 36 49 46 35 Q 59 25 72 35 L 121 83 Q 132 95 121 109 Q 116 114 108 114 Z M 68 246 Q 62 246 56 242 L 11 201 Q 0 189 9 176 Q 22 165 35 174 L 80 215 Q 92 227 82 241 Q 76 246 68 246 Z M 38 506 Q 32 506 28 504 Q 14 493 21 478 L 115 322 Q 125 308 140 315 Q 154 326 147 341 L 53 497 Q 48 506 38 506 Z M 321 163 V 178 Q 318 284 284 355 Q 251 425 215 463 Q 173 507 165 509 Q 161 511 156 511 Q 146 511 139 502 Q 132 487 146 476 Q 219 422 254 330 Q 282 260 282 180 V 163 H 159 Q 151 163 146 158 Q 140 152 140 145 Q 140 137 146 131 Q 161 126 159 126 H 282 V 20 Q 282 12 288 6 Q 293 0 301 0 Q 309 0 315 6 Q 321 12 321 20 V 126 H 399 Q 439 126 464 153 Q 489 179 489 222 Q 489 383 463 448 Q 445 495 395 509 Q 382 512 377 512 H 375 Q 383 497 363 507 Q 358 502 357 495 Q 356 487 362 481 Q 367 476 374 475 Q 384 475 397 469 Q 419 458 429 434 Q 451 378 451 222 Q 451 194 437 179 Q 423 163 399 163 Z" fill="black" />
  </g>
  <g class="defect" id="01">
    <path d="M 375 512 Q 383 497 363 507" fill="none" stroke="red" stroke-width="3" />
  </g>
  <g class="defect" id="02">
    <path d="M 247 102 Q 258 105 236 105" fill="none" stroke="red" stroke-width="3" />
  </g>
  <g class="defect" id="03">
    <path d="M 146 131 Q 161 126 159 126" fill="none" stroke="red" stroke-width="3" />
  </g>
</svg>