<svg xmlns="http://www.w3.org/2000/svg" width="512" height="512" viewBox="0 0 512 512">
  <g class="glyph">
    <path d="M 410 37 H 265 Q 239 37 220 56 Q 201 75 201 102 V 404 Q 201 430 220 449 Q 239 468 265 468 H 410 Q 438 468 456 449 Q 475 430 475 404 V 102 Q 487 75 456 56 Q 438 37 410 37 Z M 410 505 H 265 Q 223 505 193 476 Q 164 446 164 404 V 102 Q 164 60 193 30 Q 223 0 265 0 H 410 Q 452 0 482 30 Q 512 60 512 102 V 404 Q 512 446 482 476 Q 453 505 410 505 Z M 109 92 Q 103 92 99 88 L 46 50 Q 33 38 43 23 Q 54 11 69 20 L 121 57 Q 134 69 125 84 Q 119 92 109 92 Z M 26 506 Q 22 506 17 504 Q 2 494 9 478 L 96 328 Q 106 313 122 320 Q 136 330 128 346 L 42 497 Q 36 506 26 506 Z M 75 236 Q 70 236 66 234 L 14 202 Q 0 192 7 176 Q 18 163 33 170 L 85 202 Q 99 212 92 228 Q 86 236 75 236 Z M 357 205 Q 358 209 358 210 Q 339 199 380 283 Q 400 338 448 396 Q 458 409 447 421 Q 441 426 435 426 Q 427 426 421 420 Q 375 368 345 293 Q 324 352 294 387 Q 262 423 257 426 Q 252 431 245 431 Q 237 431 231 425 Q 221 412 232 400 Q 234 399 251 381 Q 268 364 287 332 Q 317 287 320 218 V 198 H 242 Q 234 198 229 193 Q 223 187 223 180 Q 223 173 229 167 Q 234 162 242 162 H 320 V 72 Q 320 64 325 59 Q 330 54 338 54 Q 346 54 351 59 Q 357 64 357 72 V 162 H 435 Q 442 162 448 167 Q 453 173 453 180 Q 453 187 448 193 Q 442 198 435 198 H 357 Z" fill="black" />
  </g>
  <g class="defect" id="01">
    <path d="M 358 210 Q 339 199 380 283" fill="none" stroke="red" stroke-width="3" />
  </g>
  <g class="defect" id="02">
    <path d="M 475 102 Q 487 75 456 56" fill="none" stroke="red" stroke-width="3" />
  </g>
</svg>