<svg xmlns="http://www.w3.org/2000/svg" width="512" height="512" viewBox="0 0 512 512">
  <g class="glyph">
    <path d="M 411 503 H 287 Q 261 503 242 485 Q 224 466 224 440 V 432 Q 224 406 242 387 Q 261 368 287 368 H 411 Q 436 368 455 387 Q 474 406 474 432 V 440 Q 474 466 455 485 Q 437 503 411 503 Z M 287 403 Q 275 403 267 412 Q 259 420 259 432 V 440 Q 259 452 267 460 Q 275 468 287 468 H 411 Q 422 468 430 460 Q 438 452 438 440 V 432 Q 438 420 430 412 Q 422 403 411 403 Z M 66 239 Q 60 239 55 235 L 14 202 Q 3 190 11 177 Q 23 166 36 174 L 76 208 Q 88 219 79 232 Q 74 239 66 239 Z M 82 84 Q 75 84 70 80 L 26 42 Q 15 31 24 17 Q 36 6 49 15 L 93 54 Q 104 65 95 78 Q 90 84 82 84 Z M 22 504 Q 19 504 15 503 Q 0 496 5 480 L 59 336 Q 52 322 82 326 Q 96 334 92 349 L 38 493 Q 34 504 22 504 Z M 476 242 V 248 Q 476 275 456 295 Q 436 315 409 315 H 363 V 329 Q 363 336 357 342 Q 352 347 345 347 Q 338 347 333 342 Q 328 336 328 329 V 315 H 247 Q 241 315 235 310 Q 230 305 230 298 Q 230 291 235 286 Q 241 281 247 281 H 328 V 242 H 213 Q 206 242 201 237 Q 196 231 196 225 Q 196 218 201 213 Q 206 208 213 208 H 328 V 170 H 247 Q 241 170 235 165 Q 230 160 230 153 Q 230 147 235 141 Q 241 136 247 136 H 328 V 121 Q 328 113 333 108 Q 338 103 345 103 Q 352 103 357 108 Q 363 113 363 121 V 136 H 409 Q 436 136 456 156 Q 476 176 476 204 V 208 H 495 Q 502 208 507 213 Q 512 218 512 225 Q 510 241 495 242 Z M 442 242 H 363 V 281 H 409 Q 422 281 432 271 Q 442 262 442 248 Z M 442 208 V 204 Q 442 190 432 180 Q 422 170 409 170 H 363 V 208 Z M 348 55 H 490 Q 497 55 502 60 Q 507 66 507 73 Q 507 80 502 86 Q 497 91 490 91 Q 375 80 227 90 Q 206 90 194 103 Q 181 117 181 138 Q 182 176 182 213 V 266 Q 182 348 165 423 Q 160 446 147 485 Q 142 497 130 497 Q 128 497 123 495 Q 108 487 113 472 Q 116 470 130 415 Q 144 359 147 266 Q 147 236 146 213 V 138 Q 146 102 168 79 Q 191 55 227 55 H 310 V 19 Q 310 11 316 6 Q 322 0 329 0 Q 336 0 342 6 Q 348 11 348 19 Z" fill="black" />
  </g>
  <g class="defect" id="01">
    <path d="M 490 91 Q 375 80 227 90" fill="none" stroke="red" stroke-width="3" />
  </g>
  <g class="defect" id="02">
    <path d="M 59 336 Q 52 322 82 326" fill="none" stroke="red" stroke-width="3" />
  </g>
</svg>