<svg xmlns="http://www.w3.org/2000/svg" width="512" height="512" viewBox="0 0 512 512">
  <g class="glyph">
    <path d="M 488 317 Q 481 317 476 312 Q 378 241 330 198 Q 324 192 318 192 Q 308 192 300 201 Q 254 243 158 316 Q 155 318 148 318 Q 138 318 133 310 Q 126 296 138 285 Q 231 216 271 179 Q 296 156 318 156 Q 337 156 359 176 Q 420 201 500 285 Q 512 296 501 310 Q 496 317 488 317 Z M 23 505 Q 19 505 17 504 Q 2 497 7 481 L 72 318 Q 79 304 95 308 Q 109 316 105 331 L 40 494 Q 35 505 23 505 Z M 108 86 Q 103 86 95 81 L 39 42 Q 27 31 39 17 Q 49 7 63 17 L 120 56 Q 120 68 120 81 Q 115 86 108 86 Z M 81 229 Q 78 229 70 225 L 12 195 Q 0 185 9 170 Q 18 159 34 167 L 92 198 Q 104 208 95 222 Q 89 229 81 229 Z M 458 67 Q 458 97 437 118 Q 417 138 386 138 H 247 Q 215 138 195 118 Q 174 97 174 67 V 44 Q 174 36 179 31 Q 184 26 191 26 Q 217 42 204 31 Q 209 36 209 44 V 67 Q 209 84 221 93 Q 231 102 247 102 H 298 V 19 Q 298 11 303 6 Q 309 0 316 0 Q 323 0 329 6 Q 334 11 334 19 V 102 H 386 Q 401 102 411 93 Q 423 84 423 67 V 44 Q 423 36 428 31 Q 433 26 441 26 Q 448 26 453 31 Q 458 36 458 44 Z M 337 325 H 402 Q 430 326 443 351 Q 452 378 432 400 Q 421 412 333 500 Q 327 506 320 506 Q 312 506 306 501 Q 296 488 306 474 Q 356 425 405 375 Q 409 371 407 366 Q 406 362 402 362 H 200 Q 192 362 187 356 Q 182 351 182 343 Q 182 335 187 330 Q 192 325 200 325 H 298 V 272 Q 298 264 304 258 Q 310 252 318 252 Q 326 252 331 258 Q 337 264 337 272 Z" fill="black" />
  </g>
  <g class="defect" id="01">
    <path d="M 191 26 Q 217 42 204 31" fill="none" stroke="red" stroke-width="3" />
  </g>
  <g class="defect" id="02">
    <path d="M 359 176 Q 420 201 500 285" fill="none" stroke="red" stroke-width="3" />
  </g>
  <g class="defect" id="03">
    <path d="M 120 56 Q 120 68 120 81" fill="none" stroke="red" stroke-width="3" />
  </g>
</svg>