<svg xmlns="http://www.w3.org/2000/svg" width="512" height="512" viewBox="0 0 512 512">
  <g class="glyph">
    <path d="M 25 504 Q 21 504 18 502 Q 3 494 9 478 L 78 323 Q 86 309 102 315 Q 117 323 112 338 L 42 493 Q 38 504 25 504 Z M 90 80 Q 83 80 78 75 L 39 35 Q 28 23 39 10 Q 52 0 64 10 L 103 50 Q 113 62 102 75 Q 98 80 90 80 Z M 60 227 Q 53 227 48 222 L 10 187 Q 0 175 10 162 Q 22 152 35 161 L 72 196 Q 83 208 73 222 Q 67 227 60 227 Z M 391 254 H 420 Q 436 254 447 243 Q 458 232 458 217 V 181 Q 458 165 447 154 Q 436 143 420 143 H 391 Z M 391 108 H 420 Q 450 108 471 130 Q 492 151 492 181 V 217 Q 492 246 471 268 Q 450 289 420 289 H 226 Q 183 289 175 268 Q 154 247 154 217 V 181 Q 154 150 175 130 Q 196 108 226 108 H 255 V 54 H 156 Q 149 54 143 49 Q 138 43 138 36 Q 138 29 143 24 Q 149 19 156 19 H 491 Q 498 19 503 24 Q 508 29 508 36 Q 508 43 503 49 Q 498 54 491 54 H 391 Z M 356 254 V 143 H 290 V 254 Z M 356 108 V 54 H 290 V 108 Z M 337 461 H 494 Q 502 461 507 466 Q 512 472 512 479 Q 512 487 507 492 Q 502 497 494 497 H 141 Q 134 497 128 492 Q 123 487 123 479 Q 103 455 128 466 Q 134 461 141 461 H 301 V 392 H 186 Q 179 392 174 386 Q 168 381 168 374 Q 170 358 186 357 H 301 V 316 Q 301 308 306 303 Q 311 297 319 297 Q 327 297 332 303 Q 319 291 337 316 V 357 H 455 Q 470 358 472 374 Q 472 381 467 386 Q 462 392 455 392 H 337 Z M 255 254 V 143 H 226 Q 211 143 200 154 Q 189 165 189 181 V 217 Q 189 232 200 243 Q 211 254 226 254 Z" fill="black" />
  </g>
  <g class="defect" id="01">
    <path d="M 332 303 Q 319 291 337 316" fill="none" stroke="red" stroke-width="3" />
  </g>
  <g class="defect" id="02">
    <path d="M 226 289 Q 183 289 175 268" fill="none" stroke="red" stroke-width="3" />
  </g>
  <g class="defect" id="03">
    <path d="M 123 479 Q 103 455 128 466" fill="none" stroke="red" stroke-width="3" />
  </g>
</svg>