<svg xmlns="http://www.w3.org/2000/svg" width="512" height="512" viewBox="0 0 512 512">
  <g class="glyph">
    <path d="M 369 507 H 311 Q 278 507 254 483 Q 231 460 231 427 V 410 Q 231 377 254 353 Q 278 330 311 330 H 369 Q 403 330 426 353 Q 450 377 450 410 V 427 Q 450 460 426 483 Q 403 507 369 507 Z M 311 366 Q 293 366 279 379 Q 266 392 266 410 V 427 Q 266 445 279 458 Q 293 471 311 471 H 369 Q 387 471 401 458 Q 414 445 414 427 V 410 Q 414 392 401 379 Q 387 366 369 366 Z M 489 351 Q 484 351 479 349 Q 412 303 349 238 Q 343 233 337 233 Q 330 233 325 238 Q 265 302 205 347 Q 191 355 180 343 Q 171 329 183 318 Q 246 271 299 214 Q 314 197 337 197 Q 359 197 375 213 Q 433 274 499 319 Q 512 330 504 343 Q 499 351 489 351 Z M 471 225 Q 465 225 461 222 Q 427 197 397 167 Q 386 154 398 142 Q 410 133 422 143 Q 450 171 481 194 Q 494 205 485 218 Q 480 225 471 225 Z M 210 230 Q 202 230 197 223 Q 188 210 199 199 Q 223 181 245 159 Q 263 141 263 139 Q 275 129 289 138 Q 299 150 290 163 Q 289 165 270 184 Q 251 203 221 226 Q 217 230 210 230 Z M 25 251 Q 18 251 13 246 Q 7 241 7 234 V 146 Q 7 139 13 134 Q 18 129 25 129 Q 32 129 37 134 Q 42 139 42 146 V 234 Q 42 241 37 246 Q 32 251 25 251 Z M 359 56 H 441 Q 467 56 486 75 Q 522 94 505 120 V 134 Q 506 142 501 147 Q 495 152 488 152 Q 481 152 475 147 Q 470 142 470 135 V 121 Q 470 108 462 99 Q 453 91 441 91 H 243 Q 231 91 222 99 Q 214 108 214 120 L 214 134 Q 214 141 209 146 Q 204 151 197 152 H 197 Q 181 151 179 135 L 179 121 V 120 Q 179 94 198 75 Q 217 56 243 56 H 322 V 18 Q 322 10 327 5 Q 333 0 341 0 Q 349 0 354 5 Q 359 10 359 18 Z M 111 166 V 264 Q 111 288 108 315 Q 148 395 172 429 Q 179 443 167 453 Q 164 456 158 456 Q 147 456 143 449 Q 121 417 97 371 Q 84 421 59 464 Q 47 485 36 499 Q 30 505 22 505 Q 15 505 11 501 Q 0 490 9 477 Q 15 471 27 450 Q 76 366 76 264 V 19 Q 76 13 81 7 Q 86 2 94 2 Q 101 2 106 7 Q 111 13 111 19 V 143 L 112 142 L 137 119 Q 150 109 162 119 Q 171 132 161 144 L 137 167 Q 131 173 125 173 Q 117 173 111 167 Z" fill="black" />
  </g>
  <g class="defect" id="01">
    <path d="M 486 75 Q 522 94 505 120" fill="none" stroke="red" stroke-width="3" />
  </g>
</svg>