<svg xmlns="http://www.w3.org/2000/svg" width="512" height="512" viewBox="0 0 512 512">
  <g class="glyph">
    <path d="M 308 263 Q 300 262 295 257 L 271 232 Q 260 219 270 206 Q 284 196 295 208 L 321 233 Q 332 246 321 258 Q 316 263 308 263 Z M 261 316 Q 255 316 248 310 L 223 285 Q 213 272 223 259 Q 236 249 249 261 L 273 286 Q 285 299 273 311 Q 269 316 261 316 Z M 380 367 Q 389 389 408 412 Q 438 447 485 472 Q 499 482 493 496 Q 488 506 478 506 Q 472 506 468 504 Q 388 461 352 394 Q 320 448 261 482 Q 231 498 205 505 Q 201 506 198 506 Q 186 506 181 494 Q 179 487 182 480 Q 186 473 192 471 Q 194 470 213 463 Q 232 456 259 438 Q 296 414 324 367 H 201 Q 194 367 189 362 Q 184 357 184 350 Q 184 343 189 338 Q 194 333 201 333 H 339 Q 348 303 348 270 V 219 Q 348 211 354 206 Q 359 201 366 201 Q 374 201 379 206 Q 385 211 385 219 V 270 Q 385 302 377 333 H 475 Q 482 333 487 338 Q 492 343 492 350 Q 492 357 487 362 Q 469 367 475 367 Z M 361 147 H 461 Q 480 147 489 164 Q 498 181 489 194 Q 447 251 444 254 Q 439 261 431 261 Q 425 261 420 258 Q 408 247 417 233 Q 434 211 450 188 Q 452 182 446 181 H 215 Q 208 181 203 176 Q 198 171 198 164 Q 198 157 203 152 Q 208 147 215 147 H 325 V 94 H 241 Q 233 94 228 89 Q 223 83 223 76 Q 223 69 228 64 Q 233 59 241 59 H 325 V 19 Q 325 11 330 6 Q 336 0 343 0 Q 351 0 356 6 Q 361 11 361 19 V 59 H 447 Q 454 59 459 64 Q 453 69 464 76 Q 464 83 459 89 Q 454 94 447 94 H 361 Z M 140 169 H 171 Q 179 169 184 174 Q 189 179 189 187 Q 189 193 184 198 Q 179 204 171 204 H 58 V 280 H 98 Q 121 280 137 298 Q 152 315 152 336 Q 152 416 152 495 Q 152 502 147 507 Q 142 512 134 512 Q 127 512 122 507 Q 117 502 117 495 Q 118 416 118 336 Q 118 329 112 322 Q 106 314 98 314 H 57 Q 54 389 46 433 Q 37 478 36 480 Q 32 492 19 493 Q 17 493 15 493 Q 0 487 3 471 Q 4 470 13 417 Q 22 365 23 280 V 61 Q 23 54 28 49 Q 33 44 40 44 Q 65 25 52 49 Q 58 54 58 61 V 169 H 106 V 39 Q 106 32 111 27 Q 116 22 123 22 Q 130 22 135 27 Q 140 32 140 39 Z" fill="black" />
  </g>
  <g class="defect" id="01">
    <path d="M 40 44 Q 65 25 52 49" fill="none" stroke="red" stroke-width="3" />
  </g>
  <g class="defect" id="02">
    <path d="M 459 64 Q 453 69 464 76" fill="none" stroke="red" stroke-width="3" />
  </g>
  <g class="defect" id="03">
    <path d="M 487 362 Q 469 367 475 367" fill="none" stroke="red" stroke-width="3" />
  </g>
</svg>