<svg xmlns="http://www.w3.org/2000/svg" width="512" height="512" viewBox="0 0 512 512">
  <g class="glyph">
    <path d="M 303 390 Q 271 390 248 370 Q 223 349 223 314 V 267 Q 223 231 248 210 Q 271 191 303 191 Q 336 191 359 210 Q 384 231 384 267 V 314 Q 384 349 359 370 Q 336 390 303 390 Z M 303 226 Q 287 226 275 235 Q 259 246 259 267 V 314 Q 259 335 275 346 Q 287 354 303 354 Q 320 354 332 346 Q 348 335 348 314 V 267 Q 348 246 332 235 Q 319 226 303 226 Z M 257 82 Q 287 83 378 83 Q 427 83 457 115 Q 488 149 488 200 Q 488 287 485 334 Q 479 409 462 452 Q 448 489 413 504 Q 394 512 375 512 Q 367 511 362 506 Q 356 501 357 493 Q 357 485 362 480 Q 367 475 375 475 H 375 Q 386 475 397 470 Q 433 461 427 439 Q 427 399 448 329 Q 451 288 451 200 Q 451 164 431 142 Q 411 120 378 120 Q 309 120 238 119 Q 217 161 201 187 Q 195 197 185 197 Q 179 197 175 194 Q 162 185 169 169 Q 206 106 226 62 Q 247 18 248 15 Q 256 0 272 5 Q 287 13 282 29 Q 278 41 257 82 Z M 118 265 Q 83 322 45 370 Q 39 377 31 377 Q 24 377 19 373 Q 8 361 17 347 Q 59 296 106 214 Q 93 171 77 139 Q 63 155 37 185 Q 31 191 23 191 Q 16 191 11 186 Q 0 175 10 161 Q 31 138 59 105 Q 27 52 23 50 Q 14 37 25 25 Q 38 15 51 26 Q 61 37 84 74 Q 105 47 125 21 Q 135 9 149 17 Q 162 27 153 41 Q 140 61 103 108 Q 156 211 159 320 Q 162 411 142 457 Q 151 479 118 490 Q 103 501 91 505 Q 75 509 73 509 H 71 Q 65 509 59 503 Q 54 498 53 491 Q 53 485 58 479 Q 63 473 70 473 Q 72 473 84 468 Q 98 463 109 443 Q 126 405 123 321 Q 123 297 118 265 Z" fill="black" />
  </g>
  <g class="defect" id="01">
    <path d="M 142 457 Q 151 479 118 490" fill="none" stroke="red" stroke-width="3" />
  </g>
  <g class="defect" id="02">
    <path d="M 427 439 Q 427 399 448 329" fill="none" stroke="red" stroke-width="3" />
  </g>
  <g class="defect" id="03">
    <path d="M 397 470 Q 433 461 427 439" fill="none" stroke="red" stroke-width="3" />
  </g>
</svg>