<svg xmlns="http://www.w3.org/2000/svg" width="512" height="512" viewBox="0 0 512 512">
  <g class="glyph">
    <path d="M 261 143 Q 253 143 248 136 L 237 122 Q 230 109 241 98 Q 255 90 266 102 L 275 115 Q 284 129 271 139 Q 267 143 261 143 Z M 430 313 H 228 Q 228 328 239 339 Q 249 349 264 349 H 395 Q 410 349 420 339 Q 430 328 430 313 Z M 430 281 Q 416 266 420 255 Q 410 245 395 245 H 264 Q 249 245 239 255 Q 228 266 228 281 Z M 400 151 H 479 Q 494 152 496 168 Q 496 175 491 180 Q 486 185 479 185 H 183 Q 176 185 171 180 Q 166 175 166 168 Q 166 161 171 156 Q 176 151 183 151 H 356 Q 358 149 358 148 L 395 99 Q 405 87 419 96 Q 431 107 423 120 Z M 379 382 V 447 Q 379 459 388 467 Q 400 477 422 477 Q 455 476 468 445 Q 474 429 490 433 Q 505 440 501 455 Q 495 476 478 491 Q 454 511 422 511 Q 384 511 363 491 Q 325 455 344 447 V 382 H 298 V 383 Q 294 413 278 436 Q 241 491 158 509 Q 157 510 154 510 Q 141 509 137 496 Q 135 480 150 476 Q 208 465 239 429 Q 257 409 263 382 Q 235 382 214 362 Q 194 341 194 313 V 281 Q 194 253 215 232 Q 235 212 264 212 H 395 Q 423 212 444 232 Q 464 252 464 281 V 313 Q 464 342 444 362 Q 423 382 395 382 Z M 347 49 H 459 Q 467 49 472 54 Q 477 59 477 66 Q 477 74 472 79 Q 467 84 459 84 H 199 Q 191 84 186 79 Q 181 74 181 66 Q 181 59 186 54 Q 191 49 199 49 H 310 V 18 Q 310 11 316 5 Q 321 0 329 0 Q 336 0 341 5 Q 347 11 347 18 Z M 111 255 Q 79 308 38 354 Q 33 360 25 360 Q 18 360 13 356 Q 3 344 12 331 Q 44 295 74 250 Q 96 215 96 212 Q 98 208 99 207 Q 89 174 74 144 Q 45 169 33 179 Q 29 182 22 182 Q 14 182 9 176 Q 0 163 12 152 Q 27 140 56 113 Q 34 79 15 59 Q 4 47 15 34 Q 27 24 39 34 Q 60 54 81 87 Q 130 35 132 30 Q 143 19 156 28 Q 168 39 159 52 Q 155 60 100 117 Q 151 211 151 313 Q 151 419 124 468 Q 110 495 81 506 Q 66 512 54 512 H 52 Q 45 512 40 507 Q 36 502 36 495 Q 35 487 40 482 Q 45 477 53 477 Q 59 477 68 473 Q 85 466 93 451 Q 116 410 116 313 Q 116 282 111 255 Z" fill="black" />
  </g>
  <g class="defect" id="01">
    <path d="M 430 281 Q 416 266 420 255" fill="none" stroke="red" stroke-width="3" />
  </g>
  <g class="defect" id="02">
    <path d="M 363 491 Q 325 455 344 447" fill="none" stroke="red" stroke-width="3" />
  </g>
</svg>