<svg xmlns="http://www.w3.org/2000/svg" width="512" height="512" viewBox="0 0 512 512">
  <g class="glyph">
    <path d="M 13 245 Q 9 239 10 231 Q 11 223 18 219 Q 43 206 88 173 Q 125 146 129 142 Q 142 130 156 141 Q 168 154 157 167 Q 152 172 113 200 Q 67 234 40 250 Q 34 252 27 252 Q 19 252 13 245 Z M 504 245 Q 499 252 491 252 Q 483 252 478 250 Q 451 234 404 200 Q 366 172 361 167 Q 350 154 362 141 Q 376 130 389 142 Q 393 146 430 173 Q 475 206 500 219 Q 507 223 508 231 Q 509 239 504 245 Z M 386 477 H 494 Q 501 477 506 482 Q 511 487 511 494 Q 511 501 506 507 Q 501 512 494 512 H 18 Q 11 512 5 507 Q 0 501 0 494 Q 0 487 5 482 Q 11 477 18 477 H 244 V 404 H 83 Q 76 404 71 400 Q 66 395 66 388 Q 66 380 71 376 Q 76 371 83 371 H 244 V 311 H 53 Q 46 311 40 306 Q 35 300 35 293 Q 35 286 40 281 Q 46 276 53 276 H 470 Q 477 276 482 281 Q 487 286 487 293 Q 487 300 482 306 Q 477 311 470 311 H 281 V 371 H 440 Q 447 371 452 376 Q 456 380 456 388 Q 455 403 440 404 H 281 V 477 H 370 Q 366 475 364 472 L 350 447 Q 341 433 354 424 Q 368 416 378 428 L 392 452 Q 384 446 388 476 Q 387 476 386 477 Z M 278 88 V 161 Q 278 206 251 234 Q 230 254 204 258 H 202 Q 195 258 189 253 Q 184 248 183 241 Q 182 224 199 220 Q 210 218 221 209 Q 240 193 240 161 V 88 H 94 H 94 Q 88 121 46 147 Q 40 153 33 153 Q 26 153 20 148 Q 9 136 19 122 Q 54 84 77 50 Q 101 16 102 13 Q 111 0 126 6 Q 140 16 133 30 Q 126 41 119 53 H 432 Q 459 54 471 75 Q 481 98 465 120 L 448 137 Q 422 154 435 143 Q 428 143 423 137 Q 412 125 422 112 L 437 98 Q 440 94 438 91 Q 437 88 432 88 Z" fill="black" />
  </g>
  <g class="defect" id="01">
    <path d="M 392 452 Q 384 446 388 476" fill="none" stroke="red" stroke-width="3" />
  </g>
  <g class="defect" id="02">
    <path d="M 94 94 Q 88 121 46 147" fill="none" stroke="red" stroke-width="3" />
  </g>
  <g class="defect" id="03">
    <path d="M 448 137 Q 422 154 435 143" fill="none" stroke="red" stroke-width="3" />
  </g>
</svg>