<svg xmlns="http://www.w3.org/2000/svg" width="512" height="512" viewBox="0 0 512 512">
  <g class="glyph">
    <path d="M 381 132 Q 396 157 419 180 Q 453 214 498 236 Q 512 244 506 259 Q 501 269 491 269 Q 487 269 483 268 Q 405 230 358 157 V 229 Q 358 236 352 242 Q 347 247 340 247 Q 333 247 328 242 Q 322 236 322 229 V 159 Q 265 230 199 266 Q 193 268 191 268 Q 180 268 175 259 Q 169 244 183 235 Q 221 214 257 179 Q 282 156 299 132 H 197 Q 190 132 186 127 Q 180 122 180 115 Q 180 109 186 104 Q 190 99 197 99 H 322 V 46 Q 264 48 227 48 Q 221 48 216 43 Q 210 38 210 31 Q 210 24 216 19 Q 221 14 227 14 Q 317 14 381 8 Q 444 2 448 1 Q 454 0 460 5 Q 465 8 466 16 Q 467 23 463 29 Q 459 34 451 35 Q 405 40 358 44 V 99 H 482 Q 489 99 494 104 Q 498 109 498 115 Q 497 131 482 132 Z M 314 300 Q 307 340 286 382 Q 250 454 191 488 Q 187 491 182 491 Q 173 491 167 482 Q 161 468 174 458 Q 221 431 251 373 Q 270 337 278 300 H 243 Q 236 300 231 295 Q 226 290 226 283 Q 228 267 243 266 H 367 Q 388 266 401 284 Q 400 303 406 324 Q 405 329 398 341 H 435 Q 458 341 472 360 Q 488 380 482 408 Q 475 443 437 470 Q 418 484 394 493 Q 389 494 387 494 Q 376 494 372 483 Q 368 468 382 461 Q 387 461 415 442 Q 443 425 449 401 Q 451 388 446 381 Q 441 375 435 375 H 372 Q 364 375 358 368 Q 354 360 357 351 Q 366 332 375 311 Q 376 308 373 303 Q 371 300 367 300 Z M 108 382 157 364 Q 173 360 179 375 Q 184 390 169 397 L 28 449 Q 25 450 21 450 Q 10 450 5 440 Q 1 424 15 417 L 73 395 V 225 H 24 Q 34 206 12 220 Q 7 215 7 208 Q 7 201 12 196 Q 17 191 24 191 H 73 V 50 H 18 Q -2 62 5 45 Q 0 40 0 33 Q 0 25 5 20 Q 10 15 18 15 H 159 Q 166 15 171 20 Q 176 25 176 33 Q 176 40 171 45 Q 166 50 159 50 H 108 V 191 H 154 Q 161 191 166 196 Q 171 201 171 208 Q 171 215 166 220 Q 161 225 154 225 H 108 Z" fill="black" />
  </g>
  <g class="defect" id="01">
    <path d="M 24 225 Q 34 206 12 220" fill="none" stroke="red" stroke-width="3" />
  </g>
  <g class="defect" id="02">
    <path d="M 401 284 Q 400 303 406 324" fill="none" stroke="red" stroke-width="3" />
  </g>
  <g class="defect" id="03">
    <path d="M 18 50 Q -2 62 5 45" fill="none" stroke="red" stroke-width="3" />
  </g>
</svg>