<svg xmlns="http://www.w3.org/2000/svg" width="512" height="512" viewBox="0 0 512 512">
  <g class="glyph">
    <path d="M 492 159 V 231 Q 492 252 477 266 Q 462 281 440 281 H 387 Q 365 281 350 266 Q 336 252 336 231 V 159 Q 336 137 350 123 Q 365 109 387 109 H 440 Q 462 109 477 123 Q 492 137 492 159 Z M 48 198 Q 38 198 33 190 L 9 151 Q 1 137 14 128 Q 28 120 38 133 L 62 171 Q 70 185 57 195 Q 53 198 48 198 Z M 462 230 Q 414 230 365 229 Q 365 239 372 246 Q 379 254 389 253 H 439 Q 448 253 455 246 Q 462 239 462 230 Z M 462 206 V 183 H 365 V 206 Z M 462 159 Q 461 150 455 143 Q 448 136 439 136 H 389 Q 369 139 365 159 Z M 347 312 H 468 Q 474 312 479 316 Q 483 320 483 325 Q 483 332 479 336 Q 474 341 468 341 H 344 V 368 H 456 Q 468 368 469 380 Q 469 386 466 389 Q 462 393 456 393 H 344 V 420 H 456 Q 462 420 466 424 Q 469 427 469 432 Q 468 444 456 446 H 344 V 476 H 477 Q 483 476 487 480 Q 492 484 492 490 Q 492 496 487 501 Q 483 506 477 506 L 222 505 Q 198 505 182 490 Q 165 474 165 453 V 377 Q 158 388 151 397 Q 146 404 138 404 Q 133 404 129 401 Q 117 391 123 380 Q 145 350 164 315 Q 178 290 178 287 Q 180 282 188 280 Q 149 272 145 231 V 160 Q 145 139 160 124 Q 175 109 197 109 H 251 Q 273 109 287 124 Q 303 139 303 160 V 231 Q 303 251 287 266 Q 273 281 251 281 H 200 Q 213 287 209 300 Q 209 302 202 314 Q 212 312 220 312 H 313 L 307 295 Q 303 282 316 275 Q 330 270 337 283 L 346 309 Q 347 310 347 312 Z M 316 56 H 495 Q 502 56 507 60 Q 512 64 512 70 Q 512 77 507 82 Q 502 86 495 86 H 159 Q 137 86 124 100 Q 112 113 112 135 V 275 Q 112 357 85 437 Q 59 477 56 503 Q 52 512 41 512 Q 18 530 33 510 Q 31 517 26 486 Q 29 484 50 432 Q 70 381 77 295 L 33 334 Q 29 338 22 338 Q 14 338 9 332 Q 0 320 10 308 L 77 248 V 136 Q 77 100 100 77 Q 123 56 159 56 H 278 V 19 Q 278 11 283 6 Q 289 0 297 0 Q 304 0 310 6 Q 316 11 316 19 Z M 313 476 V 446 H 197 V 452 Q 197 462 205 469 Q 214 476 225 476 Z M 313 420 V 393 H 197 V 420 Z M 313 368 V 341 H 223 Q 213 341 205 347 Q 197 353 197 361 V 368 Z M 273 230 Q 225 230 175 229 Q 175 239 182 246 Q 188 253 198 253 H 250 Q 259 253 266 246 Q 273 239 273 230 Z M 273 206 V 183 H 175 V 206 Z M 273 159 Q 272 150 266 143 Q 259 136 250 136 H 198 Q 190 136 183 143 Q 176 150 175 159 Z" fill="black" />
  </g>
  <g class="defect" id="01">
    <path d="M 41 512 Q 18 530 33 510" fill="none" stroke="red" stroke-width="3" />
  </g>
  <g class="defect" id="02">
    <path d="M 85 437 Q 59 477 56 503" fill="none" stroke="red" stroke-width="3" />
  </g>
  <g class="defect" id="03">
    <path d="M 33 510 Q 31 517 26 486" fill="none" stroke="red" stroke-width="3" />
  </g>
</svg>