<svg xmlns="http://www.w3.org/2000/svg" width="512" height="512" viewBox="0 0 512 512">
  <g class="glyph">
    <path d="M 54 190 Q 45 190 40 184 L 17 154 Q 8 141 19 130 Q 32 122 43 133 L 67 163 Q 75 175 64 186 Q 60 190 54 190 Z M 438 171 Q 439 195 447 219 Q 460 258 489 273 Q 500 282 493 296 Q 488 303 479 303 Q 475 303 470 300 Q 439 278 422 240 Q 404 279 368 300 Q 364 302 359 302 Q 351 302 346 295 Q 339 281 352 272 Q 383 256 397 219 Q 405 197 406 172 V 166 Q 406 160 410 156 Q 414 151 421 151 H 423 Q 428 151 433 156 Q 438 161 438 166 Z M 332 453 H 493 Q 500 453 505 458 Q 510 463 510 470 Q 510 478 505 483 Q 500 488 493 488 H 134 Q 126 488 121 483 Q 116 478 116 470 Q 116 463 121 458 Q 126 453 134 453 H 297 V 382 H 174 Q 166 382 161 377 Q 156 372 156 366 Q 156 358 161 353 Q 166 348 174 348 H 297 V 119 Q 297 112 302 107 Q 307 102 315 102 Q 322 102 327 107 Q 332 112 332 119 V 348 H 454 Q 460 348 465 353 Q 470 358 470 366 Q 470 372 465 377 Q 460 382 454 382 H 332 Z M 316 50 H 495 Q 502 50 507 55 Q 512 60 512 67 Q 510 83 495 84 H 160 Q 140 84 128 97 Q 115 109 115 131 V 273 Q 115 353 89 424 Q 76 460 62 482 Q 57 490 47 490 Q 43 490 38 486 Q 26 477 33 463 Q 36 462 56 416 Q 75 371 81 289 L 31 325 Q 27 328 22 328 Q 13 328 8 321 Q 0 308 12 298 L 82 247 V 214 Q 82 173 81 131 Q 81 95 103 73 Q 125 50 160 50 H 280 V 18 Q 280 10 285 5 Q 290 0 298 0 Q 306 0 311 5 Q 297 26 316 18 Z M 234 175 Q 234 199 242 219 Q 254 251 280 270 Q 292 280 284 293 Q 280 300 271 300 Q 266 300 262 297 Q 231 277 216 241 Q 208 278 160 299 Q 156 301 152 301 Q 143 301 138 293 Q 132 280 144 271 Q 176 254 190 222 Q 200 201 201 176 Q 201 170 201 164 V 161 Q 205 149 217 148 Q 221 148 225 150 Q 230 153 232 159 Q 234 162 234 164 Z" fill="black" />
  </g>
  <g class="defect" id="01">
    <path d="M 216 241 Q 208 278 160 299" fill="none" stroke="red" stroke-width="3" />
  </g>
  <g class="defect" id="02">
    <path d="M 311 5 Q 297 26 316 18" fill="none" stroke="red" stroke-width="3" />
  </g>
</svg>