<svg xmlns="http://www.w3.org/2000/svg" width="512" height="512" viewBox="0 0 512 512">
  <g class="glyph">
    <path d="M 58 207 Q 50 207 45 200 L 17 166 Q 8 153 20 143 Q 32 134 44 145 L 71 179 Q 80 192 69 203 Q 63 207 58 207 Z M 328 392 V 494 Q 327 510 310 511 Q 302 511 297 506 Q 291 500 291 494 V 204 H 239 Q 210 262 181 304 Q 176 312 166 312 Q 162 312 156 309 Q 143 299 150 285 Q 190 224 215 174 Q 239 123 239 120 Q 246 105 263 109 Q 277 117 273 132 Q 272 137 255 171 H 491 Q 499 171 504 176 Q 509 181 509 188 Q 509 194 504 199 Q 499 204 491 204 H 328 V 265 H 466 Q 484 265 478 270 Q 483 275 483 282 Q 483 289 478 294 Q 473 299 466 299 H 328 V 359 H 477 Q 471 370 489 364 Q 494 369 494 375 Q 494 382 489 387 Q 484 392 477 392 Z M 323 54 H 495 Q 487 54 507 59 Q 512 64 512 71 Q 510 88 495 89 H 179 Q 155 89 142 104 Q 128 119 128 142 Q 128 184 128 227 V 283 Q 128 404 69 492 Q 64 499 55 499 Q 50 499 45 495 Q 32 484 41 471 Q 45 467 54 449 Q 90 381 93 295 L 32 339 Q 28 343 22 343 Q 13 343 8 336 Q 0 323 12 312 L 93 252 V 142 Q 93 104 116 80 Q 140 54 179 54 H 287 V 18 Q 287 11 292 6 Q 297 0 305 0 Q 313 0 318 6 Q 323 11 323 18 Z" fill="black" />
  </g>
  <g class="defect" id="01">
    <path d="M 495 54 Q 487 54 507 59" fill="none" stroke="red" stroke-width="3" />
  </g>
  <g class="defect" id="02">
    <path d="M 466 265 Q 484 265 478 270" fill="none" stroke="red" stroke-width="3" />
  </g>
  <g class="defect" id="03">
    <path d="M 477 359 Q 471 370 489 364" fill="none" stroke="red" stroke-width="3" />
  </g>
</svg>