<svg xmlns="http://www.w3.org/2000/svg" width="512" height="512" viewBox="0 0 512 512">
  <g class="glyph">
    <path d="M 401 185 H 92 V 195 Q 92 213 105 226 Q 118 239 137 239 H 357 Q 375 239 388 226 Q 401 214 401 195 Z M 401 151 V 142 Q 381 123 388 111 Q 375 98 357 98 H 137 Q 118 98 105 111 Q 92 124 92 142 V 151 Z M 223 62 H 357 Q 390 62 413 86 Q 437 109 437 142 V 195 Q 437 228 413 251 Q 390 275 357 275 H 137 Q 103 275 80 251 Q 70 241 57 195 V 142 Q 57 109 80 86 Q 103 62 137 62 H 179 Q 181 59 182 57 L 213 13 Q 223 0 238 8 Q 251 19 243 34 Z M 216 381 V 401 Q 216 429 231 447 Q 255 475 311 475 Q 370 475 405 439 Q 421 424 429 402 Q 422 385 453 389 Q 461 391 465 398 Q 469 405 466 413 Q 460 433 443 454 Q 396 512 311 512 Q 243 512 207 476 Q 178 446 178 401 V 386 L 22 407 H 19 Q 4 407 1 392 Q 0 385 5 379 Q 10 373 17 372 L 178 350 V 306 Q 178 298 183 292 Q 189 286 197 286 Q 205 286 210 292 Q 216 298 216 306 V 345 L 461 312 Q 478 311 482 327 Q 482 345 465 347 Z" fill="black" />
  </g>
  <g class="defect" id="01">
    <path d="M 401 142 Q 381 123 388 111" fill="none" stroke="red" stroke-width="3" />
  </g>
  <g class="defect" id="02">
    <path d="M 80 251 Q 70 241 57 195" fill="none" stroke="red" stroke-width="3" />
  </g>
  <g class="defect" id="03">
    <path d="M 429 402 Q 422 385 453 389" fill="none" stroke="red" stroke-width="3" />
  </g>
</svg>