<svg xmlns="http://www.w3.org/2000/svg" width="512" height="512" viewBox="0 0 512 512">
  <g class="glyph">
    <path d="M 180 294 Q 172 294 168 288 L 137 244 Q 130 232 140 222 Q 153 215 163 226 L 193 268 Q 181 291 190 291 Q 186 294 180 294 Z M 210 150 Q 201 137 212 126 Q 267 78 316 18 Q 331 0 354 0 Q 377 0 390 17 Q 446 82 500 124 Q 512 134 503 148 Q 493 160 479 151 Q 424 109 364 39 Q 361 35 354 35 Q 347 35 343 40 Q 290 104 234 151 Q 222 161 210 150 Z M 206 442 Q 203 442 198 441 Q 185 432 191 417 Q 206 387 218 348 Q 224 333 240 336 Q 255 342 252 358 Q 236 404 222 433 Q 197 461 206 442 Z M 361 474 Q 321 474 299 454 Q 279 436 279 410 V 318 Q 279 311 284 306 Q 289 301 296 301 Q 302 301 307 306 Q 312 311 312 318 V 410 Q 293 403 323 430 Q 337 440 361 440 Q 399 440 415 415 Q 420 409 420 406 Q 421 400 427 396 Q 433 393 440 395 Q 455 400 452 415 Q 447 436 427 452 Q 400 474 361 474 Z M 373 371 Q 364 371 359 364 L 341 336 Q 334 322 345 313 Q 358 306 367 317 L 386 346 Q 394 359 382 368 Q 379 371 373 371 Z M 486 410 Q 477 410 472 402 L 440 353 Q 433 340 445 331 Q 458 323 468 335 L 500 384 Q 507 398 495 407 Q 490 410 486 410 Z M 373 174 H 441 Q 464 175 474 196 Q 483 217 465 236 Q 433 269 400 301 Q 388 310 377 300 Q 367 289 377 276 Q 409 244 441 212 Q 442 211 442 209 Q 442 208 440 208 H 238 Q 223 207 222 191 Q 222 184 227 179 Q 232 174 238 174 H 339 V 117 Q 339 111 344 105 Q 348 100 355 100 Q 362 100 368 105 Q 373 110 373 117 Z M 132 168 V 459 Q 130 476 115 477 Q 100 476 98 459 V 249 Q 69 311 36 358 Q 32 365 22 365 Q 17 365 13 362 Q 0 352 8 338 Q 39 292 68 231 Q 86 194 96 168 H 28 Q 21 168 16 163 Q 11 158 11 150 Q 11 144 16 139 Q 21 134 28 134 H 98 V 46 Q 45 50 36 51 H 35 Q 20 50 18 35 Q 18 29 23 23 Q 28 18 34 17 Q 155 7 176 3 Q 183 2 189 6 Q 194 10 195 18 Q 196 25 191 30 Q 187 35 180 36 Q 156 39 132 42 V 134 H 185 Q 192 134 197 139 Q 202 144 202 150 Q 202 158 197 163 Q 192 168 185 168 Z" fill="black" />
  </g>
  <g class="defect" id="01">
    <path d="M 222 433 Q 197 461 206 442" fill="none" stroke="red" stroke-width="3" />
  </g>
  <g class="defect" id="02">
    <path d="M 312 410 Q 293 403 323 430" fill="none" stroke="red" stroke-width="3" />
  </g>
  <g class="defect" id="03">
    <path d="M 193 268 Q 181 291 190 291" fill="none" stroke="red" stroke-width="3" />
  </g>
</svg>