<svg xmlns="http://www.w3.org/2000/svg" width="512" height="512" viewBox="0 0 512 512">
  <g class="glyph">
    <path d="M 293 122 H 269 Q 259 122 254 127 Q 249 132 249 139 Q 249 146 254 151 Q 259 157 269 157 H 293 Q 303 157 309 152 Q 313 147 313 140 Q 313 132 309 128 Q 303 122 293 122 Z M 293 186 H 269 Q 246 186 232 171 Q 220 158 220 139 Q 220 121 232 107 Q 246 92 269 92 H 293 Q 316 92 330 107 Q 342 121 342 140 Q 342 159 329 172 Q 316 186 293 186 Z M 438 122 H 414 Q 404 122 399 127 Q 395 131 395 139 Q 395 146 399 151 Q 404 157 414 157 H 438 Q 448 157 454 152 Q 458 147 458 140 Q 458 132 454 128 Q 448 122 438 122 Z M 438 186 H 414 Q 391 186 377 171 Q 365 158 365 139 Q 365 121 377 107 Q 391 92 414 92 H 438 Q 461 92 475 107 Q 487 121 487 140 Q 487 159 475 172 Q 461 186 438 186 Z M 420 423 Q 451 452 496 467 Q 497 468 499 468 Q 512 475 507 489 Q 504 498 493 498 Q 489 498 486 497 L 485 497 Q 417 474 375 420 Q 350 388 340 357 Q 340 357 339 358 Q 335 362 294 391 V 461 L 341 454 Q 356 453 359 467 Q 360 481 346 485 L 287 494 Q 263 495 263 475 V 412 Q 232 432 208 443 Q 204 445 201 445 Q 191 445 186 436 Q 162 423 194 415 Q 237 394 288 356 H 201 Q 195 356 190 352 Q 186 347 186 341 Q 187 327 201 326 H 278 V 302 H 225 Q 213 301 211 287 Q 211 282 215 278 Q 220 273 225 273 H 278 V 249 H 219 Q 204 248 203 234 Q 203 228 208 224 Q 212 219 219 219 H 278 V 207 Q 278 201 283 196 Q 288 191 294 191 Q 301 191 306 196 Q 311 201 311 207 V 219 H 384 V 207 Q 384 201 389 196 Q 394 191 400 191 Q 407 191 412 196 Q 417 201 417 207 V 219 H 478 Q 491 220 492 234 Q 491 248 478 249 H 417 V 273 H 469 Q 483 275 484 287 Q 483 301 469 302 H 417 V 326 H 496 Q 503 326 507 330 Q 511 335 511 341 Q 511 347 507 352 Q 503 356 496 356 H 374 Q 382 379 398 399 L 447 370 Q 460 364 469 375 Q 475 388 463 397 Z M 384 326 V 302 H 311 V 326 Z M 384 273 V 249 H 311 V 273 Z M 366 45 H 490 Q 505 47 506 61 Q 505 75 490 76 H 207 Q 192 75 191 61 Q 191 54 196 50 Q 200 45 207 45 H 331 V 17 Q 331 10 336 5 Q 341 0 348 0 Q 356 0 361 5 Q 366 10 366 17 Z M 127 236 179 294 Q 188 306 178 318 Q 173 322 166 322 Q 159 322 154 316 L 117 276 V 477 Q 116 493 100 494 Q 92 494 87 489 Q 82 484 82 477 V 291 Q 61 315 34 339 Q 28 344 22 344 Q 15 344 10 338 Q 0 325 11 314 Q 89 243 140 151 Q 143 146 141 141 Q 140 138 135 138 H 29 Q 14 137 13 121 Q 13 114 17 109 Q 22 104 29 104 H 82 V 26 Q 82 19 87 14 Q 92 9 100 9 Q 107 9 112 14 Q 117 19 117 26 V 104 H 135 Q 159 104 170 123 Q 183 143 170 167 Q 149 204 127 236 Z" fill="black" />
  </g>
  <g class="defect" id="01">
    <path d="M 186 436 Q 162 423 194 415" fill="none" stroke="red" stroke-width="3" />
  </g>
</svg>