<svg xmlns="http://www.w3.org/2000/svg" width="512" height="512" viewBox="0 0 512 512">
  <g class="glyph">
    <path d="M 448 25 470 57 Q 478 71 467 81 Q 462 84 456 84 Q 447 84 442 77 L 420 45 Q 412 32 423 21 Q 437 13 448 25 Z M 173 416 Q 173 431 158 436 L 24 474 Q 22 475 21 475 Q 7 473 4 459 Q 3 444 19 439 L 154 400 Q 170 399 173 416 Z M 411 363 Q 430 427 455 457 Q 461 463 467 456 Q 470 451 475 439 Q 481 424 497 428 Q 512 434 509 450 Q 504 465 496 476 Q 483 495 467 499 Q 465 499 461 499 Q 445 499 431 484 Q 408 458 386 401 Q 347 456 299 497 Q 294 502 287 502 Q 280 502 274 496 Q 264 483 275 471 Q 332 419 372 356 Q 349 272 349 161 V 135 H 209 Q 202 135 197 130 Q 174 125 192 117 Q 192 111 197 106 Q 202 100 209 100 H 349 V 17 Q 349 10 354 5 Q 359 0 367 0 Q 374 0 380 5 Q 385 10 385 17 V 100 H 481 Q 488 100 493 106 Q 498 111 498 117 Q 498 125 493 130 Q 488 135 481 135 H 385 V 161 Q 385 240 398 312 Q 420 271 433 228 Q 437 218 443 193 Q 447 177 463 179 Q 478 184 477 200 Q 455 290 411 363 Z M 278 257 H 317 Q 323 257 328 262 Q 333 267 333 273 Q 333 280 328 285 Q 309 290 317 290 H 278 Q 275 362 247 422 Q 236 446 218 470 Q 212 477 203 477 Q 199 477 193 473 Q 180 463 189 448 Q 238 387 242 290 H 202 Q 187 289 185 273 Q 187 258 202 257 H 243 V 185 Q 243 177 248 172 Q 253 167 260 167 Q 268 167 273 172 Q 278 177 278 185 Z M 108 166 142 108 Q 152 96 166 103 Q 179 114 171 127 L 62 310 L 147 298 Q 162 295 167 311 Q 168 327 154 331 L 36 348 H 31 Q 19 348 15 339 Q 11 329 18 316 L 85 203 L 25 212 H 21 Q 8 212 4 203 Q 0 193 7 180 L 102 21 Q 112 8 126 16 Q 138 26 131 40 L 52 173 Z" fill="black" />
  </g>
  <g class="defect" id="01">
    <path d="M 197 130 Q 174 125 192 117" fill="none" stroke="red" stroke-width="3" />
  </g>
  <g class="defect" id="02">
    <path d="M 328 285 Q 309 290 317 290" fill="none" stroke="red" stroke-width="3" />
  </g>
</svg>