<svg xmlns="http://www.w3.org/2000/svg" width="512" height="512" viewBox="0 0 512 512">
  <g class="glyph">
    <path d="M 404 478 H 485 Q 492 478 497 483 Q 502 489 502 495 Q 501 511 485 512 H 126 Q 119 512 114 507 Q 109 502 109 495 Q 109 489 114 483 Q 120 478 126 478 H 223 L 234 420 H 129 Q 126 420 125 419 Q 89 457 35 502 Q 21 512 10 500 Q 0 486 13 474 Q 67 431 113 379 Q 165 322 197 265 H 22 Q 14 265 9 260 Q 4 255 4 248 Q 21 241 9 236 Q 14 231 22 231 H 215 Q 226 207 232 186 H 87 Q 80 186 75 181 Q 70 176 70 169 Q 70 162 75 157 Q 80 152 87 152 H 241 Q 245 132 245 108 H 35 Q 19 106 18 90 Q 18 84 23 78 Q 28 73 35 73 H 168 Q 164 72 161 68 L 134 34 Q 126 20 137 9 Q 151 0 162 12 L 189 46 Q 198 60 186 72 Q 184 73 184 73 H 321 Q 322 72 323 70 L 371 11 Q 382 0 396 9 Q 407 21 398 34 L 367 73 H 483 Q 490 73 495 78 Q 500 84 500 90 Q 500 97 495 102 Q 490 108 483 108 H 280 Q 281 128 277 152 H 427 Q 434 152 439 157 Q 444 162 444 169 Q 444 176 439 181 Q 434 186 427 186 H 271 Q 265 208 256 231 H 493 Q 500 231 505 236 Q 510 241 510 248 Q 510 255 505 260 Q 500 265 493 265 H 239 Q 231 282 219 301 H 352 Q 373 320 404 323 Q 423 345 420 374 Q 415 420 404 478 Z M 384 386 Q 385 381 386 370 Q 388 356 379 346 Q 369 335 352 335 H 287 L 276 386 Z M 379 420 H 269 L 258 478 H 370 Q 371 469 379 420 Z M 251 335 H 196 Q 180 357 155 386 H 241 Z" fill="black" />
  </g>
  <g class="defect" id="01">
    <path d="M 352 301 Q 373 320 404 323" fill="none" stroke="red" stroke-width="3" />
  </g>
  <g class="defect" id="02">
    <path d="M 4 248 Q 21 241 9 236" fill="none" stroke="red" stroke-width="3" />
  </g>
</svg>