<svg xmlns="http://www.w3.org/2000/svg" width="512" height="512" viewBox="0 0 512 512">
  <g class="glyph">
    <path d="M 150 498 Q 119 498 98 477 Q 76 455 76 425 V 380 Q 77 349 98 329 Q 119 307 150 307 L 168 307 Q 199 307 221 329 Q 258 367 242 381 V 425 Q 242 456 221 477 Q 199 498 168 498 Z M 150 341 Q 134 341 122 353 Q 111 364 111 380 V 425 Q 111 442 122 453 Q 133 464 150 464 L 168 464 Q 185 464 196 452 Q 207 441 207 425 V 381 Q 207 364 196 353 Q 185 342 168 342 Z M 342 86 Q 333 86 327 77 L 302 36 Q 295 21 308 12 Q 322 5 331 17 L 357 59 Q 365 73 351 83 Q 347 86 342 86 Z M 442 114 H 490 Q 497 114 502 119 Q 507 124 507 131 Q 507 138 502 143 Q 497 148 490 148 H 412 V 227 H 478 Q 485 227 490 232 Q 495 237 495 245 Q 495 251 490 257 Q 485 262 478 262 H 412 V 344 H 495 Q 502 344 507 349 Q 512 354 512 362 Q 512 369 507 374 Q 502 379 495 379 H 412 V 491 Q 410 508 394 509 Q 387 509 381 504 Q 376 499 376 491 V 379 H 286 Q 279 379 274 374 Q 250 369 269 362 Q 269 354 274 349 Q 279 344 286 344 H 376 V 262 H 305 Q 298 262 293 257 Q 288 251 288 245 Q 288 237 293 232 Q 298 227 305 227 H 376 V 148 H 300 Q 293 148 288 143 Q 282 138 282 131 Q 282 124 288 119 Q 293 114 300 114 H 401 L 459 13 Q 468 0 483 7 Q 496 16 489 31 Z M 244 154 V 177 Q 244 210 221 233 Q 197 256 165 256 H 109 Q 84 348 35 416 Q 30 423 21 423 Q 16 423 12 420 Q 0 410 7 396 Q 49 338 73 257 H 37 Q 30 257 25 251 Q 20 246 20 240 Q 20 232 25 227 Q 30 222 37 222 H 82 Q 73 209 95 154 H 25 Q 18 154 13 149 Q 8 144 8 137 Q 8 130 13 125 Q 18 120 25 120 H 98 Q 100 94 100 61 H 37 Q 30 61 25 56 Q 20 51 20 44 Q 20 37 25 32 Q 30 27 37 27 L 165 26 Q 197 26 221 50 Q 244 73 244 106 V 120 H 258 Q 264 120 270 125 Q 275 130 275 137 Q 275 144 270 149 Q 264 154 258 154 Z M 209 154 H 129 Q 124 195 118 222 H 165 Q 183 222 196 209 Q 209 196 209 177 Z M 209 120 V 106 Q 209 87 196 74 Q 183 61 165 61 H 134 Q 134 97 133 120 Z" fill="black" />
  </g>
  <g class="defect" id="01">
    <path d="M 221 329 Q 258 367 242 381" fill="none" stroke="red" stroke-width="3" />
  </g>
  <g class="defect" id="02">
    <path d="M 82 222 Q 73 209 95 154" fill="none" stroke="red" stroke-width="3" />
  </g>
  <g class="defect" id="03">
    <path d="M 274 374 Q 250 369 269 362" fill="none" stroke="red" stroke-width="3" />
  </g>
</svg>