<svg xmlns="http://www.w3.org/2000/svg" width="512" height="512" viewBox="0 0 512 512">
  <g class="glyph">
    <path d="M 378 445 H 491 Q 498 445 503 450 Q 509 456 509 462 Q 509 470 503 475 Q 498 480 491 480 H 222 Q 214 480 209 475 Q 204 470 204 462 Q 204 456 209 450 Q 214 445 222 445 H 340 V 317 H 256 Q 249 317 244 312 Q 257 288 239 299 Q 239 292 244 287 Q 249 282 256 282 H 462 Q 470 282 475 287 Q 480 292 480 299 Q 480 306 475 312 Q 470 317 462 317 H 378 Z M 378 165 Q 449 199 498 231 Q 512 241 505 256 Q 499 265 489 265 Q 483 265 480 262 Q 428 228 354 192 Q 352 191 350 190 Q 290 238 217 264 Q 215 265 207 265 Q 199 264 194 253 Q 189 238 205 230 Q 343 180 419 57 Q 424 48 420 41 Q 419 36 408 36 H 271 Q 260 36 255 31 Q 250 26 250 18 Q 250 10 255 6 Q 260 0 271 0 H 408 Q 438 0 452 24 Q 465 50 450 76 Q 418 127 378 165 Z M 147 299 H 69 Q 67 407 39 479 Q 35 489 25 489 Q 18 489 15 488 Q 0 480 5 464 Q 7 463 19 418 Q 31 373 32 291 V 74 Q 32 43 55 22 Q 77 1 110 1 Q 141 1 163 25 Q 184 47 184 74 V 411 Q 184 449 163 471 Q 147 488 128 490 Q 124 490 120 490 Q 115 490 111 484 Q 108 479 108 472 Q 108 458 124 454 Q 131 453 136 446 Q 147 434 147 411 Z M 147 264 V 172 H 69 V 264 Z M 147 138 V 74 Q 147 60 136 49 Q 126 37 110 37 Q 92 37 81 47 Q 69 58 69 74 V 138 Z" fill="black" />
  </g>
  <g class="defect" id="01">
    <path d="M 244 312 Q 257 288 239 299" fill="none" stroke="red" stroke-width="3" />
  </g>
</svg>