<svg xmlns="http://www.w3.org/2000/svg" width="512" height="512" viewBox="0 0 512 512">
  <g class="glyph">
    <path d="M 433 279 H 290 Q 272 278 271 259 Q 271 251 277 245 Q 282 240 290 240 H 433 V 157 Q 433 124 409 100 Q 385 76 351 76 L 282 77 Q 274 77 268 71 Q 262 65 262 57 Q 262 48 267 42 Q 273 36 282 36 L 351 35 Q 402 35 438 71 Q 474 107 474 157 V 390 Q 474 440 438 476 Q 402 512 351 512 H 122 Q 72 512 36 476 Q 0 440 0 390 V 153 Q 0 40 111 18 L 189 2 Q 208 0 213 18 Q 214 26 210 33 Q 205 40 197 42 L 119 57 Q 78 66 59 88 Q 41 111 41 153 V 240 H 182 Q 191 240 196 245 Q 203 251 203 259 Q 203 267 196 274 Q 191 279 182 279 H 41 V 390 Q 41 424 65 448 Q 89 472 122 472 H 351 Q 402 455 409 448 Q 433 424 433 390 Z" fill="black" />
  </g>
  <g class="defect" id="01">
    <path d="M 351 472 Q 402 455 409 448" fill="none" stroke="red" stroke-width="3" />
  </g>
</svg>