<svg xmlns="http://www.w3.org/2000/svg" width="512" height="512" viewBox="0 0 512 512">
  <g class="glyph">
    <path d="M 281 34 Q 268 34 260 42 Q 251 52 251 69 V 76 Q 251 94 260 103 Q 268 111 281 111 Q 293 111 301 103 Q 311 94 311 76 V 69 Q 311 52 301 42 Q 293 34 281 34 Z M 281 145 Q 254 145 236 128 Q 217 109 217 76 V 69 Q 217 37 236 18 Q 254 1 281 1 Q 307 1 325 18 Q 344 37 344 69 V 76 Q 344 109 325 128 Q 307 145 281 145 Z M 436 33 Q 422 33 413 42 Q 404 52 404 69 V 76 Q 404 94 413 104 Q 422 113 436 113 Q 449 113 458 104 Q 468 94 468 76 V 69 Q 468 52 458 42 Q 449 33 436 33 Z M 436 146 Q 409 146 390 129 Q 370 109 370 76 V 69 Q 370 37 390 18 Q 409 0 436 0 Q 463 0 481 18 Q 501 37 501 69 V 76 Q 501 109 481 129 Q 463 146 436 146 Z M 444 219 H 261 Q 254 219 249 214 Q 243 209 243 201 Q 243 194 249 189 Q 254 184 261 184 H 444 Q 451 184 456 189 Q 461 194 461 201 Q 461 209 456 214 Q 451 219 444 219 Z M 347 294 347 296 320 342 H 399 Q 430 342 449 364 Q 469 389 463 424 Q 455 472 401 492 Q 373 502 346 502 H 345 Q 338 502 332 497 Q 327 492 327 484 Q 327 476 332 471 Q 338 466 345 466 Q 363 466 383 460 Q 422 448 426 418 Q 430 399 420 387 Q 412 378 398 378 H 288 Q 294 395 272 369 Q 267 359 272 351 L 305 294 H 210 Q 203 294 197 289 Q 192 284 192 277 Q 192 270 197 265 Q 203 259 210 259 H 495 Q 526 245 512 277 Q 512 284 507 289 Q 502 294 495 294 Z M 136 317 H 63 Q 60 386 49 444 Q 42 480 37 492 Q 30 507 15 503 Q 0 497 3 481 Q -10 480 17 424 Q 28 367 29 266 V 84 Q 29 51 52 30 Q 72 11 99 11 Q 127 11 148 30 Q 171 51 171 84 V 431 Q 171 466 151 487 Q 136 502 117 505 Q 98 504 94 490 Q 93 483 98 478 Q 103 472 112 470 Q 136 463 136 431 Z M 136 282 V 187 H 64 V 266 V 282 Z M 136 152 V 84 Q 136 66 124 55 Q 114 46 99 46 Q 86 46 76 55 Q 64 66 64 84 V 152 Z" fill="black" />
  </g>
  <g class="defect" id="01">
    <path d="M 3 481 Q -10 480 17 424" fill="none" stroke="red" stroke-width="3" />
  </g>
  <g class="defect" id="02">
    <path d="M 495 259 Q 526 245 512 277" fill="none" stroke="red" stroke-width="3" />
  </g>
  <g class="defect" id="03">
    <path d="M 288 378 Q 294 395 272 369" fill="none" stroke="red" stroke-width="3" />
  </g>
</svg>