<svg xmlns="http://www.w3.org/2000/svg" width="512" height="512" viewBox="0 0 512 512">
  <g class="glyph">
    <path d="M 349 125 313 27 Q 309 11 323 4 Q 339 0 346 15 L 381 113 Q 385 129 371 136 Q 368 136 364 136 Q 352 136 349 125 Z M 112 203 93 151 Q 89 138 102 131 Q 117 128 123 141 L 142 193 Q 145 207 132 213 Q 130 214 127 214 Q 116 213 112 203 Z M 130 401 Q 128 402 125 402 Q 113 402 110 389 L 92 309 Q 90 294 104 289 Q 110 287 116 291 Q 122 294 123 300 L 141 381 Q 144 396 130 401 Z M 371 346 Q 430 425 499 468 Q 512 478 505 492 Q 500 500 490 500 Q 484 500 481 498 Q 411 456 349 376 Q 290 453 218 498 Q 214 500 209 500 Q 199 500 194 492 Q 187 478 200 468 Q 268 426 328 346 Q 282 279 260 210 Q 237 142 237 81 Q 237 74 242 68 Q 247 63 254 63 Q 271 65 272 80 Q 272 142 293 202 Q 297 261 349 314 Q 384 258 405 200 Q 427 143 427 80 Q 427 73 432 68 Q 437 63 445 63 Q 452 63 457 68 Q 462 74 462 81 V 81 Q 462 149 435 221 Q 411 284 371 346 Z M 163 269 H 71 Q 70 357 55 427 Q 51 448 39 483 Q 35 493 24 493 Q 37 504 17 492 Q 3 484 8 469 Q 9 469 22 418 Q 35 368 37 269 H 17 Q 10 269 5 264 Q 0 259 1 252 Q 1 246 6 241 Q 10 236 17 236 H 37 V 132 Q 37 103 52 85 Q 68 67 94 65 L 115 15 Q 123 1 139 6 Q 139 13 148 29 L 132 65 H 135 Q 164 65 181 83 Q 197 101 197 132 V 424 Q 197 459 177 479 Q 162 495 143 497 H 141 Q 135 497 130 493 Q 125 488 125 482 Q 125 467 139 463 Q 147 462 153 456 Q 163 446 163 424 Z M 163 236 V 132 Q 163 112 154 104 Q 147 99 135 99 H 99 Q 87 99 81 104 Q 71 112 71 132 V 236 Z" fill="black" />
  </g>
  <g class="defect" id="01">
    <path d="M 293 202 Q 297 261 349 314" fill="none" stroke="red" stroke-width="3" />
  </g>
  <g class="defect" id="02">
    <path d="M 24 493 Q 37 504 17 492" fill="none" stroke="red" stroke-width="3" />
  </g>
  <g class="defect" id="03">
    <path d="M 139 6 Q 139 13 148 29" fill="none" stroke="red" stroke-width="3" />
  </g>
</svg>