<svg xmlns="http://www.w3.org/2000/svg" width="512" height="512" viewBox="0 0 512 512">
  <g class="glyph">
    <path d="M 271 512 Q 188 512 140 498 Q 64 471 50 398 V 260 Q 50 226 74 200 Q 99 172 137 172 H 386 Q 423 172 446 199 Q 467 223 467 256 Q 467 291 446 315 Q 424 342 386 342 H 86 V 398 Q 86 427 109 444 Q 152 476 271 476 Q 340 474 369 468 Q 424 457 456 427 Q 466 415 481 424 Q 487 427 489 433 Q 492 439 487 446 Q 476 465 442 482 Q 379 512 271 512 Z M 367 96 V 132 Q 367 140 361 146 Q 355 151 348 151 Q 341 151 335 146 Q 329 140 329 132 V 96 H 180 V 132 Q 180 140 175 146 Q 169 151 161 151 Q 154 151 148 146 Q 143 140 143 132 V 96 H 18 Q 10 96 5 91 Q 0 86 0 79 Q -18 90 5 66 Q 10 61 18 61 H 143 V 19 Q 143 11 148 6 Q 154 0 161 0 Q 169 0 175 6 Q 180 11 180 19 V 61 H 329 V 19 Q 329 12 335 6 Q 341 0 348 0 Q 369 0 361 6 Q 367 12 367 19 V 61 H 492 Q 499 61 504 66 Q 509 71 509 79 Q 509 86 504 91 Q 499 96 492 96 Z M 274 305 H 386 Q 410 305 422 288 Q 431 274 431 256 Q 431 239 422 226 Q 410 208 386 208 H 274 Z M 238 305 V 208 H 137 Q 115 208 100 224 Q 86 239 86 260 V 305 Z" fill="black" />
  </g>
  <g class="defect" id="01">
    <path d="M 0 79 Q -18 90 5 66" fill="none" stroke="red" stroke-width="3" />
  </g>
  <g class="defect" id="02">
    <path d="M 348 0 Q 369 0 361 6" fill="none" stroke="red" stroke-width="3" />
  </g>
  <g class="defect" id="03">
    <path d="M 140 498 Q 64 471 50 398" fill="none" stroke="red" stroke-width="3" />
  </g>
</svg>