<svg xmlns="http://www.w3.org/2000/svg" width="512" height="512" viewBox="0 0 512 512">
  <g class="glyph">
    <path d="M 21 512 Q 18 512 13 510 Q 0 502 6 486 Q 8 484 23 441 Q 37 399 39 334 V 233 Q 39 200 60 178 Q 82 154 117 154 H 480 Q 488 154 493 160 Q 498 165 498 172 Q 498 180 493 185 Q 488 190 480 190 H 118 Q 99 190 87 202 Q 65 200 77 233 V 334 Q 77 392 58 452 Q 47 488 38 502 Q 34 512 21 512 Z M 317 506 Q 210 506 170 463 Q 147 439 147 396 L 147 309 Q 146 275 170 253 Q 207 230 228 230 H 342 Q 377 230 399 253 Q 421 275 421 309 V 331 Q 421 372 398 395 Q 380 413 358 416 H 355 Q 348 416 342 412 Q 337 407 336 400 Q 335 392 340 386 Q 344 379 352 378 Q 362 376 370 369 Q 384 356 384 331 V 307 Q 384 287 373 277 Q 363 266 344 266 H 226 Q 207 266 196 277 Q 184 287 184 307 V 396 Q 184 469 317 469 Q 396 469 435 444 Q 456 430 461 414 Q 465 396 485 401 Q 500 405 497 423 Q 495 434 483 448 Q 435 506 317 506 Z M 362 90 V 120 Q 361 138 344 139 Q 336 139 330 134 Q 325 128 325 120 V 90 H 188 V 120 Q 187 138 170 139 Q 161 139 156 134 Q 151 128 151 120 V 90 H 20 Q 12 90 7 85 Q 2 80 2 72 Q 2 64 7 59 Q 12 54 20 54 H 151 V 19 Q 151 10 156 5 Q 161 0 170 0 Q 178 0 183 5 Q 188 10 188 19 V 54 H 325 V 19 Q 325 10 330 5 Q 336 0 344 0 Q 352 0 357 5 Q 362 10 362 19 V 54 H 493 Q 501 54 506 59 Q 511 64 511 72 Q 511 80 506 85 Q 501 90 493 90 Z" fill="black" />
  </g>
  <g class="defect" id="01">
    <path d="M 170 253 Q 207 230 228 230" fill="none" stroke="red" stroke-width="3" />
  </g>
  <g class="defect" id="02">
    <path d="M 87 202 Q 65 200 77 233" fill="none" stroke="red" stroke-width="3" />
  </g>
</svg>