<svg xmlns="http://www.w3.org/2000/svg" width="512" height="512" viewBox="0 0 512 512">
  <g class="glyph">
    <path d="M 36 267 Q 29 267 24 262 Q 18 256 18 249 V 234 Q 18 201 41 178 Q 64 155 98 155 H 400 Q 432 155 456 178 Q 479 201 479 234 V 249 Q 496 242 474 261 Q 469 267 462 267 Q 454 267 449 262 Q 444 257 444 249 L 443 234 Q 442 216 430 203 Q 418 190 400 190 H 98 Q 80 190 66 203 Q 53 216 54 234 L 54 249 Q 55 255 49 261 Q 44 267 36 267 Z M 353 88 V 113 Q 353 121 348 126 Q 342 131 336 131 Q 328 131 323 126 Q 318 121 318 113 V 88 H 180 V 113 Q 180 121 175 126 Q 169 131 162 131 Q 155 131 149 126 Q 144 120 144 113 V 88 H 19 Q 12 88 7 83 Q 2 77 2 70 Q 2 63 7 58 Q 12 53 19 53 H 144 V 18 Q 144 11 149 5 Q 154 0 162 0 Q 170 0 175 5 Q 180 10 180 18 V 53 H 318 V 18 Q 318 10 323 5 Q 328 0 336 0 Q 343 0 348 5 Q 353 10 353 18 V 53 H 480 Q 487 53 492 58 Q 497 63 497 70 Q 497 77 492 83 Q 487 88 480 88 Z M 295 320 Q 379 396 485 450 Q 499 459 492 474 Q 487 484 476 484 Q 473 484 468 482 Q 405 449 344 404 Q 301 372 268 341 V 493 Q 268 502 263 507 Q 259 512 250 512 Q 243 512 238 507 Q 233 501 233 493 V 344 Q 141 420 31 479 Q 27 481 22 481 Q 11 481 7 472 Q 0 456 14 447 Q 121 393 208 320 H 29 Q 21 320 16 315 Q 10 310 10 303 Q 10 295 16 290 Q 21 285 29 285 H 233 V 235 Q 233 227 238 222 Q 230 217 250 217 Q 259 217 263 222 Q 268 227 268 235 V 285 H 474 Q 482 285 487 290 Q 492 295 492 303 Q 492 310 487 315 Q 482 320 474 320 Z" fill="black" />
  </g>
  <g class="defect" id="01">
    <path d="M 479 249 Q 496 242 474 261" fill="none" stroke="red" stroke-width="3" />
  </g>
  <g class="defect" id="02">
    <path d="M 238 222 Q 230 217 250 217" fill="none" stroke="red" stroke-width="3" />
  </g>
</svg>