<svg xmlns="http://www.w3.org/2000/svg" width="512" height="512" viewBox="0 0 512 512">
  <g class="glyph">
    <path d="M 395 168 375 215 H 401 Q 434 215 457 239 Q 481 263 481 296 V 385 Q 481 392 476 398 Q 471 403 464 403 Q 456 403 451 398 Q 446 392 446 385 V 296 Q 446 278 433 264 Q 419 250 401 250 H 330 Q 311 250 298 264 Q 285 278 285 296 V 385 Q 285 392 280 398 Q 275 403 268 403 Q 260 403 255 398 Q 232 392 250 385 V 296 Q 250 263 274 239 Q 297 215 330 215 H 336 L 356 168 H 247 Q 240 168 234 163 Q 229 157 229 151 Q 231 134 247 133 H 485 Q 501 134 502 151 Q 502 157 497 163 Q 492 168 485 168 Z M 382 336 Q 401 323 383 339 Q 388 366 401 387 Q 431 440 498 472 Q 512 481 505 496 Q 501 505 488 505 Q 484 505 480 502 Q 401 459 366 391 Q 344 436 297 472 Q 274 490 251 502 Q 247 504 241 504 Q 230 504 225 494 Q 218 482 233 472 Q 265 458 292 433 Q 348 384 348 320 V 305 Q 348 297 353 292 Q 359 287 366 287 Q 374 287 378 292 Q 383 297 383 305 V 320 Q 383 330 382 336 Z M 360 81 V 99 Q 360 106 355 112 Q 349 118 341 118 Q 334 118 329 112 Q 323 106 323 99 V 81 H 183 V 99 Q 183 107 178 112 Q 172 118 164 118 Q 157 118 151 112 Q 146 107 146 99 V 81 H 17 Q 10 81 5 76 Q 0 71 0 64 Q 2 48 17 47 H 146 V 18 Q 146 10 151 5 Q 156 0 164 0 Q 172 0 178 5 Q 183 10 183 18 V 47 H 323 V 18 Q 323 11 329 5 Q 334 0 341 0 Q 349 0 355 5 Q 360 11 360 18 V 47 H 490 Q 506 48 507 64 Q 507 71 502 76 Q 497 81 490 81 Z M 139 270 H 186 Q 207 270 217 286 Q 228 305 217 324 Q 200 355 198 359 Q 192 368 183 368 Q 179 368 175 365 Q 161 357 168 342 Q 172 333 186 309 Q 188 305 183 303 H 125 V 433 Q 125 469 105 490 Q 88 506 70 506 Q 55 506 52 492 Q 49 473 67 470 Q 75 469 80 464 Q 90 454 90 433 V 303 H 21 Q 5 302 3 287 Q 3 280 9 275 Q 14 270 21 270 H 117 L 117 269 L 60 220 Q 50 209 60 195 Q 71 186 83 195 L 106 215 L 153 171 Q 156 168 154 165 Q 152 163 149 163 H 34 Q 28 163 22 157 Q 17 152 17 145 Q 17 138 22 133 Q 28 128 34 128 H 152 Q 176 128 186 149 Q 206 193 180 192 L 132 238 L 139 245 Q 149 256 140 268 Z" fill="black" />
  </g>
  <g class="defect" id="01">
    <path d="M 255 398 Q 232 392 250 385" fill="none" stroke="red" stroke-width="3" />
  </g>
  <g class="defect" id="02">
    <path d="M 186 149 Q 206 193 180 192" fill="none" stroke="red" stroke-width="3" />
  </g>
  <g class="defect" id="03">
    <path d="M 382 336 Q 401 323 383 339" fill="none" stroke="red" stroke-width="3" />
  </g>
</svg>