<svg xmlns="http://www.w3.org/2000/svg" width="512" height="512" viewBox="0 0 512 512">
  <g class="glyph">
    <path d="M 121 188 Q 115 194 110 194 Q 102 196 96 190 L 27 135 Q 17 125 26 111 Q 38 100 50 109 L 119 164 Q 129 176 121 188 Z M 369 380 Q 371 391 371 406 Q 371 433 350 449 Q 333 461 311 462 Q 304 462 299 457 Q 295 453 295 446 Q 295 440 299 436 Q 304 431 310 430 Q 318 430 326 426 Q 319 409 338 406 Q 338 399 337 395 Q 288 424 236 450 Q 233 452 227 452 Q 220 450 216 444 Q 210 431 222 424 Q 311 379 327 367 Q 328 365 329 365 Q 327 360 323 350 Q 275 377 233 400 Q 230 401 225 401 Q 217 400 213 394 Q 208 381 219 374 Q 258 356 308 326 Q 304 319 299 311 Q 275 330 222 356 Q 218 358 214 357 Q 206 356 203 350 Q 198 338 209 331 Q 233 321 252 308 H 226 Q 212 307 212 294 Q 213 281 226 281 H 449 Q 455 281 459 286 Q 462 290 462 295 Q 462 300 459 304 Q 456 308 449 308 H 339 Q 352 327 361 351 Q 364 348 367 347 L 438 319 Q 451 315 457 327 Q 462 342 450 347 L 394 366 L 465 409 Q 471 412 471 420 Q 471 427 466 432 Q 461 437 455 437 Q 448 437 445 434 Z M 357 71 V 81 Q 357 88 351 94 Q 346 99 338 99 Q 330 99 325 94 Q 320 89 320 81 V 71 H 194 V 104 Q 194 112 189 117 Q 184 123 176 123 Q 159 121 157 104 V 71 H 23 Q 17 71 11 66 Q 6 60 6 54 Q 6 47 11 42 Q 17 36 23 36 H 157 V 18 Q 157 11 163 5 Q 168 0 176 0 Q 184 0 189 5 Q 194 11 194 18 V 36 H 320 V 18 Q 320 10 325 5 Q 330 0 338 0 Q 346 0 351 5 Q 357 11 357 18 V 36 H 476 Q 482 36 487 42 Q 493 47 493 54 Q 493 60 487 66 Q 482 71 476 71 Z M 311 154 H 433 Q 456 154 466 170 Q 478 185 471 204 Q 467 214 465 217 Q 464 218 463 219 Q 458 226 449 225 Q 445 225 441 222 Q 430 213 438 200 Q 440 197 441 193 Q 443 189 441 185 Q 439 183 433 183 H 299 Q 306 188 306 194 V 203 L 387 198 Q 400 200 401 210 Q 401 216 398 220 Q 395 224 388 225 L 307 230 Q 312 242 348 242 Q 395 242 406 229 Q 417 217 427 225 Q 437 233 432 243 Q 413 270 348 270 Q 282 269 272 231 L 235 234 Q 221 233 221 221 Q 221 208 234 208 L 271 205 V 194 Q 271 188 277 183 H 227 Q 211 183 201 193 Q 192 204 192 220 V 250 Q 192 315 179 373 Q 173 401 165 421 Q 161 431 149 431 Q 147 431 142 430 Q 129 424 133 409 Q 135 408 146 367 Q 157 325 159 250 V 222 Q 159 193 177 174 Q 196 154 225 154 H 277 V 111 Q 277 104 282 99 Q 286 94 293 94 Q 300 94 306 99 Q 311 104 311 111 Q 370 111 429 111 Q 436 111 440 116 Q 443 120 443 125 Q 443 131 440 135 Q 436 139 429 139 H 311 Z M 92 452 34 499 Q 29 503 22 503 Q 14 503 9 497 Q 0 483 11 472 L 79 417 V 321 Q 60 310 71 301 Q 63 291 53 291 H 25 Q 18 291 13 286 Q 7 281 7 274 Q 7 267 13 262 Q 18 257 25 257 H 53 Q 79 257 96 278 Q 94 297 113 321 V 421 Q 118 433 134 444 Q 164 463 224 471 Q 314 481 392 473 Q 469 464 475 462 Q 490 461 495 476 Q 496 483 492 489 Q 488 495 481 496 Q 418 507 348 509 Q 271 512 209 503 Q 182 499 152 488 Q 111 473 92 452 Z" fill="black" />
  </g>
  <g class="defect" id="01">
    <path d="M 96 278 Q 94 297 113 321" fill="none" stroke="red" stroke-width="3" />
  </g>
  <g class="defect" id="02">
    <path d="M 79 321 Q 60 310 71 301" fill="none" stroke="red" stroke-width="3" />
  </g>
  <g class="defect" id="03">
    <path d="M 326 426 Q 319 409 338 406" fill="none" stroke="red" stroke-width="3" />
  </g>
</svg>