<svg xmlns="http://www.w3.org/2000/svg" width="512" height="512" viewBox="0 0 512 512">
  <g class="glyph">
    <path d="M 499 230 V 237 Q 499 245 494 250 Q 490 255 482 255 Q 476 256 470 251 Q 464 246 464 239 V 231 Q 464 213 451 199 Q 438 186 420 186 H 297 Q 278 186 266 199 Q 253 213 253 231 V 239 Q 234 246 247 251 Q 241 256 235 255 Q 227 255 223 250 Q 218 245 218 237 V 230 Q 218 198 241 175 Q 264 152 297 152 H 420 Q 452 152 476 175 Q 499 198 499 230 Z M 432 81 V 112 Q 430 129 414 130 Q 406 130 401 125 Q 395 120 395 112 V 81 H 320 V 112 Q 319 129 302 130 Q 294 130 289 125 Q 284 120 284 112 V 81 H 231 Q 224 81 219 76 Q 214 71 214 63 Q 214 56 219 51 Q 224 46 231 46 H 284 V 18 Q 284 10 289 5 Q 294 0 302 0 Q 310 0 315 5 Q 320 10 320 18 V 46 H 395 V 18 Q 395 11 401 5 Q 406 0 414 0 Q 421 0 426 5 Q 432 11 432 18 V 46 H 484 Q 492 46 497 51 Q 502 56 502 63 Q 502 71 497 76 Q 492 81 484 81 Z M 393 312 Q 437 381 501 437 Q 512 449 502 461 Q 497 467 490 467 Q 482 467 478 463 Q 417 409 375 346 V 487 Q 375 495 370 500 Q 365 505 358 505 Q 351 505 346 500 Q 341 495 341 487 V 347 Q 301 412 244 466 Q 240 470 232 470 Q 225 470 220 464 Q 211 452 221 440 Q 277 387 323 312 H 244 Q 237 312 232 307 Q 227 301 227 294 Q 227 287 232 282 Q 237 277 244 277 H 341 V 231 Q 341 224 346 219 Q 351 214 358 214 Q 365 214 370 219 Q 375 224 375 231 V 277 H 472 Q 479 277 484 282 Q 471 298 489 294 Q 489 301 484 307 Q 479 312 472 312 Z M 175 434 27 499 Q 24 500 21 500 Q 8 500 5 490 Q 0 474 15 467 L 87 435 V 316 H 80 Q 53 316 34 296 Q 15 277 15 250 V 164 Q 15 137 34 118 Q 53 99 80 99 H 87 V 21 Q 87 13 92 8 Q 97 3 104 3 Q 112 3 117 8 Q 122 13 122 21 V 99 H 128 Q 155 99 174 118 Q 193 137 193 164 V 250 Q 193 277 174 296 Q 155 316 128 316 H 122 V 419 L 162 402 L 154 382 Q 150 367 164 360 Q 180 357 186 372 L 208 427 Q 212 442 197 449 Q 195 449 192 449 Q 180 449 176 437 Z M 122 282 H 128 Q 141 282 150 273 Q 159 264 159 250 V 164 Q 159 150 150 141 Q 141 132 128 132 H 122 Z M 87 282 V 132 H 80 Q 66 132 57 141 Q 48 150 48 164 V 250 Q 48 264 57 273 Q 83 299 80 282 Z" fill="black" />
  </g>
  <g class="defect" id="01">
    <path d="M 484 282 Q 471 298 489 294" fill="none" stroke="red" stroke-width="3" />
  </g>
  <g class="defect" id="02">
    <path d="M 57 273 Q 83 299 80 282" fill="none" stroke="red" stroke-width="3" />
  </g>
  <g class="defect" id="03">
    <path d="M 253 239 Q 234 246 247 251" fill="none" stroke="red" stroke-width="3" />
  </g>
</svg>