<svg xmlns="http://www.w3.org/2000/svg" width="512" height="512" viewBox="0 0 512 512">
  <g class="glyph">
    <path d="M 469 461 H 495 Q 502 461 507 466 Q 512 471 512 478 Q 512 485 507 490 Q 502 495 495 495 H 230 Q 223 495 218 490 Q 213 485 213 478 Q 213 471 218 466 Q 223 461 230 461 H 266 V 97 Q 266 69 286 49 Q 306 29 334 29 H 402 Q 429 29 449 49 Q 469 69 469 97 Z M 434 461 V 341 H 301 V 461 Z M 434 307 V 205 H 301 V 307 Z M 434 171 V 97 Q 434 83 425 74 Q 415 64 402 64 H 334 Q 320 64 311 74 Q 301 83 301 97 V 171 Z M 192 440 25 494 Q 23 494 20 494 Q 8 494 3 483 Q -17 455 14 462 L 95 435 V 323 H 78 Q 50 323 32 304 Q 13 285 13 258 V 173 Q 13 146 32 127 Q 50 108 78 108 H 95 V 17 Q 95 10 100 5 Q 105 0 113 0 Q 120 0 125 5 Q 130 10 130 17 V 108 H 149 Q 176 108 195 127 Q 214 146 214 173 V 258 Q 214 285 195 304 Q 176 323 149 323 H 130 V 424 L 180 408 L 173 389 Q 168 374 182 368 Q 196 363 204 377 L 225 432 Q 230 447 215 454 Q 212 455 209 455 Q 198 455 194 444 Z M 130 289 H 149 Q 162 289 171 280 Q 180 271 180 258 V 173 Q 180 160 171 151 Q 162 142 149 142 H 130 Z M 95 289 V 142 H 78 Q 64 142 55 151 Q 47 160 47 173 V 258 Q 47 271 55 280 Q 64 289 78 289 Z" fill="black" />
  </g>
  <g class="defect" id="01">
    <path d="M 3 483 Q -17 455 14 462" fill="none" stroke="red" stroke-width="3" />
  </g>
</svg>