<svg xmlns="http://www.w3.org/2000/svg" width="512" height="512" viewBox="0 0 512 512">
  <g class="glyph">
    <path d="M 511 398 Q 508 433 483 460 Q 450 497 395 497 Q 345 497 318 468 Q 294 441 294 402 V 32 Q 294 25 299 19 Q 305 14 312 14 Q 320 14 325 19 Q 330 25 330 32 V 402 Q 330 422 340 436 Q 356 460 395 460 Q 424 476 461 429 Q 473 412 475 393 Q 475 386 482 381 Q 488 376 495 377 Q 512 381 511 398 Z M 219 449 22 496 Q 20 496 18 496 Q 5 495 1 483 Q 0 467 14 462 L 107 440 V 327 H 96 Q 63 327 41 304 Q 18 281 18 248 V 183 Q 18 150 41 127 Q 63 105 96 105 H 107 V 18 Q 107 10 112 5 Q 117 0 125 0 Q 132 0 137 5 Q 142 11 142 18 V 105 H 156 Q 188 105 211 127 Q 234 150 234 183 V 248 Q 234 281 211 304 Q 188 327 156 327 H 142 V 431 L 207 416 L 197 385 Q 208 352 207 363 Q 223 359 231 373 L 262 461 Q 266 477 250 484 Q 248 485 244 485 Q 232 485 228 474 Z M 142 292 H 156 Q 174 292 187 280 Q 200 267 200 248 V 183 Q 200 165 187 152 Q 174 140 156 140 H 142 Z M 107 292 V 140 H 96 Q 78 140 65 152 Q 52 165 52 183 V 248 Q 52 267 65 280 Q 78 292 96 292 Z" fill="black" />
  </g>
  <g class="defect" id="01">
    <path d="M 395 460 Q 424 476 461 429" fill="none" stroke="red" stroke-width="3" />
  </g>
  <g class="defect" id="02">
    <path d="M 197 385 Q 208 352 207 363" fill="none" stroke="red" stroke-width="3" />
  </g>
</svg>