<svg xmlns="http://www.w3.org/2000/svg" width="512" height="512" viewBox="0 0 512 512">
  <g class="glyph">
    <path d="M 209 347 Q 202 347 197 342 L 148 291 Q 140 281 147 269 L 191 215 Q 202 203 215 212 Q 225 222 217 235 L 182 279 L 221 320 Q 230 332 220 343 Q 229 332 209 347 Z M 385 451 H 485 Q 492 451 497 456 Q 502 461 502 469 Q 502 476 497 481 Q 492 486 485 486 H 246 Q 238 486 233 481 Q 228 476 228 469 Q 228 461 233 456 Q 238 451 246 451 H 349 V 272 H 248 Q 241 272 236 267 Q 231 262 231 255 Q 231 247 236 242 Q 241 237 248 237 H 349 V 73 Q 284 82 257 84 H 255 Q 249 84 244 79 Q 238 75 238 68 Q 237 61 242 56 Q 246 51 254 49 Q 332 41 395 30 Q 458 19 463 18 Q 478 16 483 31 Q 497 65 469 52 Q 427 59 385 67 V 237 H 495 Q 502 237 507 242 Q 512 247 512 255 Q 512 262 507 267 Q 502 272 495 272 H 385 Z M 129 93 H 156 Q 180 93 190 111 Q 202 131 188 156 L 188 157 Q 163 197 129 240 V 241 V 484 Q 129 491 123 497 Q 118 502 111 502 Q 88 514 98 497 Q 93 492 93 484 V 281 Q 65 311 33 336 Q 29 340 22 340 Q 14 340 8 334 Q 0 321 11 309 Q 62 269 110 207 Q 139 171 158 140 Q 161 133 160 129 Q 158 128 156 128 H 32 Q 24 128 19 123 Q 14 118 14 111 Q 14 103 19 98 Q 24 93 32 93 H 93 V 18 Q 93 10 98 5 Q 103 0 111 0 Q 118 0 123 5 Q 129 11 129 18 Z" fill="black" />
  </g>
  <g class="defect" id="01">
    <path d="M 111 502 Q 88 514 98 497" fill="none" stroke="red" stroke-width="3" />
  </g>
  <g class="defect" id="02">
    <path d="M 220 343 Q 229 332 209 347" fill="none" stroke="red" stroke-width="3" />
  </g>
  <g class="defect" id="03">
    <path d="M 483 31 Q 497 65 469 52" fill="none" stroke="red" stroke-width="3" />
  </g>
</svg>