<svg xmlns="http://www.w3.org/2000/svg" width="512" height="512" viewBox="0 0 512 512">
  <g class="glyph">
    <path d="M 418 338 H 84 Q 79 338 75 334 Q 71 330 71 324 Q 71 319 75 315 Q 79 311 84 311 H 418 Q 423 311 427 315 Q 431 319 431 324 Q 431 330 427 334 Q 423 338 418 338 Z M 418 392 H 84 Q 79 392 75 388 Q 71 384 71 379 Q 71 373 75 369 Q 79 365 84 365 H 418 Q 423 365 427 369 Q 431 373 431 379 Q 431 384 427 388 Q 423 392 418 392 Z M 388 449 H 109 Q 100 449 96 456 Q 94 461 94 465 Q 94 470 96 475 Q 100 482 109 482 H 388 Q 397 482 400 475 Q 403 471 403 465 Q 403 461 400 456 Q 396 449 388 449 Z M 388 512 H 109 Q 88 512 75 497 Q 64 484 64 465 Q 64 448 75 434 Q 89 419 109 419 H 388 Q 408 419 421 434 Q 432 448 432 465 Q 432 484 421 497 Q 408 512 388 512 Z M 138 166 H 94 Q 81 167 80 181 Q 80 196 94 196 H 138 Q 144 196 147 192 Q 151 188 151 181 Q 149 167 138 166 Z M 138 223 H 94 Q 75 223 63 209 Q 53 197 53 181 Q 53 163 65 151 Q 92 139 94 139 H 138 Q 157 139 168 152 Q 178 164 178 181 Q 178 198 167 211 Q 156 223 138 223 Z M 447 76 Q 437 120 398 160 Q 435 186 483 198 Q 497 203 495 217 Q 490 232 476 229 Q 418 215 373 181 Q 338 209 291 225 Q 277 228 270 215 Q 267 201 281 195 Q 321 181 349 161 Q 333 144 319 123 Q 313 110 324 101 Q 338 95 346 106 Q 356 124 373 140 Q 404 110 414 76 H 328 Q 310 99 303 107 Q 292 117 280 109 Q 269 98 278 85 Q 300 58 315 36 Q 330 14 331 12 Q 340 0 353 6 Q 366 16 359 29 Q 354 37 350 44 H 481 Q 487 44 492 49 Q 496 54 496 60 Q 495 75 481 76 Z M 268 254 H 486 Q 492 254 496 258 Q 500 262 500 269 Q 499 282 486 284 H 16 Q 2 282 1 269 Q 1 262 5 258 Q 10 254 16 254 H 231 V 245 Q 231 238 236 232 Q 242 226 250 226 Q 257 226 263 232 Q 268 237 268 245 Z M 210 57 V 63 Q 210 70 205 74 Q 201 79 194 79 Q 188 79 183 74 Q 158 57 178 63 V 57 H 120 V 63 Q 120 70 115 74 Q 110 79 104 79 Q 97 79 93 74 Q 88 70 88 63 V 57 H 30 Q 18 56 17 43 Q 17 37 21 33 Q 25 29 30 29 H 88 V 18 Q 88 12 93 7 Q 97 2 104 2 Q 110 2 115 7 Q 120 12 120 18 V 29 H 178 V 18 Q 178 12 183 7 Q 188 2 194 2 Q 201 2 205 7 Q 210 12 210 18 V 29 H 258 Q 264 29 268 33 Q 272 37 272 43 Q 271 56 258 57 Z M 78 91 H 201 Q 227 91 242 109 Q 249 117 253 132 Q 257 148 254 168 Q 247 213 213 230 Q 204 235 201 235 Q 185 237 182 224 Q 181 217 184 212 Q 187 207 193 205 Q 202 202 207 198 Q 220 187 223 164 Q 227 139 219 129 Q 213 123 201 123 H 57 Q 47 136 32 155 Q 23 166 9 156 Q 0 147 7 135 Q 32 105 50 79 Q 59 67 72 75 Q 81 81 78 91 Z" fill="black" />
  </g>
  <g class="defect" id="01">
    <path d="M 183 74 Q 158 57 178 63" fill="none" stroke="red" stroke-width="3" />
  </g>
  <g class="defect" id="02">
    <path d="M 65 151 Q 92 139 94 139" fill="none" stroke="red" stroke-width="3" />
  </g>
</svg>