<svg xmlns="http://www.w3.org/2000/svg" width="512" height="512" viewBox="0 0 512 512">
  <g class="glyph">
    <path d="M 80 239 Q 80 201 50 201 H 18 Q 10 201 5 196 Q 0 191 0 183 Q 0 176 5 171 Q 10 166 18 166 H 50 Q 97 149 96 183 Q 117 202 117 239 V 407 L 173 370 Q 188 364 197 377 Q 204 392 190 401 L 124 444 Q 116 449 105 449 Q 83 449 80 421 Z M 147 104 Q 141 104 135 100 L 55 37 Q 43 25 53 11 Q 65 0 79 9 L 159 72 Q 172 84 162 98 Q 155 104 147 104 Z M 175 178 Q 166 164 178 153 Q 219 120 268 69 Q 296 39 311 22 Q 321 10 326 6 Q 333 2 345 2 Q 358 3 373 22 Q 390 43 413 69 Q 458 120 500 154 Q 512 166 503 179 Q 498 185 488 185 Q 483 185 478 181 Q 428 136 386 91 Q 364 66 349 47 Q 345 43 341 43 Q 338 43 333 49 Q 322 63 293 94 Q 245 144 199 180 Q 192 186 187 185 Q 180 184 175 178 Z M 354 444 H 491 Q 499 444 505 449 Q 510 454 510 462 Q 509 478 491 479 H 185 Q 177 479 172 474 Q 167 469 167 462 Q 167 454 172 449 Q 177 444 185 444 H 319 V 350 H 231 Q 224 350 219 345 Q 213 340 213 332 Q 198 306 219 320 Q 224 315 231 315 H 319 V 232 H 230 Q 223 232 217 227 Q 212 222 212 215 Q 212 207 217 202 Q 223 197 230 197 H 454 Q 461 197 466 202 Q 471 207 471 215 Q 471 222 466 227 Q 461 232 454 232 H 354 V 315 H 451 Q 458 315 463 320 Q 469 325 469 332 Q 469 340 463 345 Q 458 350 451 350 H 354 Z" fill="black" />
  </g>
  <g class="defect" id="01">
    <path d="M 213 332 Q 198 306 219 320" fill="none" stroke="red" stroke-width="3" />
  </g>
  <g class="defect" id="02">
    <path d="M 50 166 Q 97 149 96 183" fill="none" stroke="red" stroke-width="3" />
  </g>
</svg>