<svg xmlns="http://www.w3.org/2000/svg" width="512" height="512" viewBox="0 0 512 512">
  <g class="glyph">
    <path d="M 84 191 Q 84 204 97 204 H 404 Q 412 204 416 198 Q 418 195 418 191 Q 418 187 416 183 Q 412 178 404 178 H 97 Q 84 178 84 191 Z M 404 232 H 97 Q 77 232 66 219 Q 55 208 55 191 Q 55 174 66 162 Q 77 149 97 149 H 404 Q 423 149 436 162 Q 447 174 447 191 Q 447 207 436 219 Q 423 232 404 232 Z M 292 418 Q 277 418 277 402 V 312 Q 277 300 272 292 Q 266 284 255 284 H 231 Q 220 284 215 292 Q 210 299 210 312 V 402 Q 198 430 195 418 Q 180 418 179 402 V 312 Q 179 286 193 269 Q 208 251 231 251 H 255 Q 278 251 293 269 Q 308 286 308 312 V 402 Q 308 409 303 413 Q 298 418 292 418 Z M 361 356 V 380 Q 361 447 328 491 Q 323 498 317 498 Q 310 498 306 494 Q 296 485 303 473 Q 330 431 331 380 V 303 Q 331 283 348 268 Q 365 251 389 251 Q 416 251 432 268 Q 448 283 448 304 V 444 Q 448 468 463 468 Q 471 468 477 462 Q 483 455 480 447 Q 480 440 485 436 Q 490 431 496 431 Q 510 432 512 446 Q 512 470 497 485 Q 484 499 463 499 Q 442 499 430 484 Q 418 469 418 444 V 304 Q 418 296 411 289 Q 402 282 389 282 Q 379 282 370 289 Q 361 296 361 303 V 340 Q 363 338 366 335 Q 372 332 378 333 Q 385 335 388 342 L 406 379 Q 410 392 399 399 Q 385 404 379 392 Z M 272 40 H 478 Q 485 40 489 44 Q 494 49 494 55 Q 494 61 489 66 Q 485 70 478 70 H 84 Q 85 86 92 93 Q 100 100 118 100 H 452 Q 458 100 463 105 Q 467 109 467 116 Q 467 122 463 126 Q 458 131 452 131 H 115 Q 82 131 67 115 Q 53 101 50 70 H 15 Q 9 70 4 66 Q 0 61 0 55 Q 0 49 4 44 Q 9 40 15 40 H 236 V 18 Q 236 11 242 6 Q 247 0 254 0 Q 261 0 267 6 Q 261 30 272 18 Z M 257 379 Q 257 381 257 383 Q 257 390 264 406 Q 274 431 291 445 Q 303 454 298 466 Q 294 473 284 473 Q 279 473 276 471 Q 258 459 244 432 Q 226 473 187 498 Q 184 500 179 500 Q 169 500 166 492 Q 159 480 172 472 Q 175 470 182 465 Q 224 432 229 386 Q 217 361 229 380 V 375 V 323 Q 231 308 243 308 Q 255 308 257 323 V 370 Z M 128 412 H 63 Q 60 443 47 472 Q 39 489 34 494 Q 31 500 24 500 Q 17 500 14 498 Q 3 489 11 477 Q 12 476 23 453 Q 33 430 34 390 V 312 Q 34 283 49 267 Q 64 251 90 251 H 103 Q 128 251 143 267 Q 158 283 158 312 V 441 Q 158 473 141 490 Q 128 503 112 503 H 110 Q 99 503 97 489 Q 97 476 111 473 Q 128 470 128 441 Z M 128 384 V 347 H 64 V 384 Z M 128 319 V 312 Q 128 292 118 285 Q 113 281 103 281 H 90 Q 80 281 75 285 Q 64 292 64 312 V 319 Z" fill="black" />
  </g>
  <g class="defect" id="01">
    <path d="M 229 386 Q 217 361 229 380" fill="none" stroke="red" stroke-width="3" />
  </g>
  <g class="defect" id="02">
    <path d="M 267 6 Q 261 30 272 18" fill="none" stroke="red" stroke-width="3" />
  </g>
  <g class="defect" id="03">
    <path d="M 210 402 Q 198 430 195 418" fill="none" stroke="red" stroke-width="3" />
  </g>
</svg>