<svg xmlns="http://www.w3.org/2000/svg" width="512" height="512" viewBox="0 0 512 512">
  <g class="glyph">
    <path d="M 128 36 H 92 Q 77 36 67 46 Q 56 57 56 71 V 108 Q 56 123 67 133 Q 77 143 92 143 H 128 Q 144 143 154 133 Q 164 123 164 108 V 71 Q 164 56 154 46 Q 143 36 128 36 Z M 501 184 Q 501 192 496 197 Q 491 202 485 202 H 467 Q 434 202 419 183 Q 405 167 405 134 V 77 Q 405 60 394 49 Q 381 36 355 36 Q 334 36 321 49 Q 309 61 309 77 V 90 Q 309 157 262 195 Q 253 202 245 207 Q 240 209 236 209 Q 226 209 220 201 Q 213 186 227 176 Q 240 169 251 157 Q 273 130 273 90 V 77 Q 273 47 295 25 Q 319 0 355 0 Q 396 0 420 25 Q 441 46 441 77 V 134 Q 441 168 467 168 H 485 Q 491 168 496 173 Q 501 178 501 184 Z M 384 278 Q 437 359 501 418 Q 512 430 503 442 Q 498 448 490 448 Q 485 448 479 444 Q 423 394 374 323 V 466 Q 374 473 369 478 Q 364 483 357 483 Q 349 483 344 478 Q 352 487 339 466 V 325 Q 291 394 236 444 Q 229 448 224 448 Q 216 448 211 442 Q 202 430 213 418 Q 277 359 330 278 H 233 Q 226 278 221 273 Q 216 268 216 261 Q 201 268 221 249 Q 226 244 233 244 H 339 V 192 Q 339 184 344 179 Q 349 174 357 174 Q 364 174 369 179 Q 374 184 374 192 V 244 H 482 Q 489 244 494 249 Q 499 254 499 261 Q 499 268 494 273 Q 489 278 482 278 Z M 136 383 183 367 Q 197 363 203 377 Q 220 391 193 397 L 23 457 Q 21 458 19 458 Q 8 459 3 447 Q 0 432 13 426 L 29 421 V 249 Q 29 242 34 237 Q 39 232 46 232 Q 53 232 58 237 Q 63 242 63 249 V 409 L 102 395 V 178 H 92 Q 64 178 43 157 Q 22 136 22 108 V 71 Q 22 43 43 22 Q 64 2 92 2 H 128 Q 157 2 178 22 Q 198 43 198 71 V 108 Q 198 134 181 154 Q 163 174 136 177 V 262 H 182 Q 189 262 194 267 Q 199 272 199 279 Q 199 286 194 291 Q 189 296 182 296 H 136 Z" fill="black" />
  </g>
  <g class="defect" id="01">
    <path d="M 203 377 Q 220 391 193 397" fill="none" stroke="red" stroke-width="3" />
  </g>
  <g class="defect" id="02">
    <path d="M 216 261 Q 201 268 221 249" fill="none" stroke="red" stroke-width="3" />
  </g>
  <g class="defect" id="03">
    <path d="M 344 478 Q 352 487 339 466" fill="none" stroke="red" stroke-width="3" />
  </g>
</svg>