<svg xmlns="http://www.w3.org/2000/svg" width="512" height="512" viewBox="0 0 512 512">
  <g class="glyph">
    <path d="M 66 17 118 86 Q 113 100 115 112 Q 110 115 104 115 Q 95 115 90 108 L 37 39 Q 28 25 41 14 Q 55 5 66 17 Z M 365 115 Q 412 137 478 170 Q 493 179 485 194 Q 479 203 470 203 Q 465 203 461 200 Q 374 157 330 138 Q 264 177 179 202 Q 178 203 174 203 Q 161 203 157 192 Q 152 175 167 169 Q 240 147 299 114 Q 348 87 375 61 Q 383 53 383 45 Q 383 36 369 36 H 211 Q 200 36 195 30 Q 190 25 190 18 Q 190 10 195 6 Q 200 0 211 0 H 369 Q 403 2 416 27 Q 429 54 404 81 Q 389 97 365 115 Z M 341 345 H 467 Q 474 345 479 350 Q 484 355 484 361 Q 484 369 479 374 Q 474 379 467 379 H 179 Q 172 379 167 374 Q 162 369 162 361 Q 162 355 167 350 Q 172 345 179 345 H 304 V 254 H 210 Q 203 254 198 249 Q 193 244 193 236 Q 193 229 198 224 Q 203 219 210 219 H 435 Q 443 219 448 224 Q 453 229 453 236 Q 464 244 448 249 Q 443 254 435 254 H 341 Z M 102 416 34 466 Q 29 469 23 469 Q 15 469 8 462 Q 1 447 12 436 L 82 386 V 271 Q 82 257 73 245 Q 64 232 51 232 H 19 Q 11 232 6 227 Q 1 222 1 215 Q 0 207 5 202 Q 10 196 18 196 H 51 Q 78 196 98 218 Q 118 241 118 271 V 380 Q 133 398 165 415 Q 201 434 238 438 Q 341 447 412 437 Q 484 427 487 424 Q 504 422 510 437 Q 512 453 497 459 Q 485 463 442 469 Q 378 478 315 478 Q 280 478 235 474 Q 195 470 156 451 Q 124 436 102 416 Z" fill="black" />
  </g>
  <g class="defect" id="01">
    <path d="M 453 236 Q 464 244 448 249" fill="none" stroke="red" stroke-width="3" />
  </g>
  <g class="defect" id="02">
    <path d="M 118 86 Q 113 100 115 112" fill="none" stroke="red" stroke-width="3" />
  </g>
</svg>