<svg xmlns="http://www.w3.org/2000/svg" width="512" height="512" viewBox="0 0 512 512">
  <g class="glyph">
    <path d="M 504 451 Q 512 466 500 476 Q 495 479 490 479 Q 481 479 476 472 Q 452 434 440 410 Q 434 395 447 387 Q 461 381 470 394 Q 498 443 504 451 Z M 405 404 423 457 Q 427 473 413 479 Q 411 480 408 480 Q 396 480 392 468 L 373 416 Q 371 409 374 402 Q 377 395 383 393 Q 381 406 405 404 Z M 341 411 349 464 Q 351 479 336 484 Q 335 485 332 485 Q 319 484 316 471 L 309 419 Q 307 403 322 398 Q 337 397 341 411 Z M 282 410 Q 275 427 246 478 Q 241 486 233 486 Q 228 486 223 483 Q 210 472 218 458 Q 229 442 240 420 Q 246 408 250 397 Q 257 382 273 387 Q 287 394 282 410 Z M 400 295 V 310 Q 400 340 434 340 Q 450 340 464 326 Q 473 316 476 310 Q 484 297 498 304 Q 511 311 504 328 Q 497 341 486 351 Q 464 372 433 372 Q 397 372 381 351 Q 370 336 370 310 V 231 Q 370 226 372 221 H 279 Q 282 226 282 231 V 260 H 335 Q 341 260 346 264 Q 350 268 350 275 Q 350 282 346 286 Q 341 291 335 291 H 282 V 340 L 340 326 Q 355 325 357 340 V 342 Q 357 355 344 358 L 280 372 Q 277 372 272 372 Q 263 372 258 367 Q 251 361 251 346 V 231 Q 251 227 253 221 H 245 Q 239 221 234 217 Q 230 213 230 206 Q 230 199 234 195 Q 239 191 245 191 H 287 V 149 H 245 Q 231 148 230 133 Q 230 126 234 122 Q 239 118 245 118 H 287 V 87 Q 287 81 292 75 H 258 Q 240 75 229 88 Q 220 99 220 114 V 328 Q 218 387 202 430 Q 187 473 184 478 Q 180 487 169 487 Q 165 487 162 485 Q 150 477 157 463 Q 159 461 173 421 Q 187 381 189 328 V 114 Q 189 83 209 63 Q 230 43 261 43 H 330 V 23 Q 330 16 335 11 Q 339 6 346 6 Q 353 6 358 11 Q 362 16 362 23 V 43 H 481 Q 488 43 493 47 Q 498 52 498 59 Q 498 65 493 70 Q 488 75 481 75 H 394 Q 399 81 399 87 V 118 H 426 Q 449 118 463 134 Q 476 149 476 170 Q 476 190 463 205 Q 449 221 426 221 H 397 Q 400 226 400 231 V 263 Q 419 261 443 251 Q 462 243 466 240 Q 480 235 488 247 Q 493 261 481 268 Q 477 272 451 282 Q 420 294 400 295 Z M 399 191 H 429 Q 440 191 445 181 Q 448 176 448 170 Q 448 163 445 159 Q 440 149 429 149 H 399 Z M 372 75 H 314 Q 332 81 318 87 V 118 H 368 V 87 Q 368 81 372 75 Z M 368 191 V 149 H 318 V 191 Z M 107 305 V 420 L 138 404 Q 152 398 161 410 Q 167 425 154 434 L 113 456 Q 122 461 96 461 Q 74 461 74 433 V 305 H 33 Q 26 305 21 300 Q 16 295 16 288 Q 16 281 21 276 Q 26 271 33 271 H 74 V 202 H 54 Q 47 202 42 197 Q 39 205 34 214 Q 30 224 20 224 Q 16 224 12 221 Q 0 214 6 200 Q 33 139 50 78 Q 66 19 67 13 Q 68 7 75 3 Q 81 0 86 1 Q 101 4 97 23 Q 97 26 85 73 H 157 Q 164 73 169 78 Q 174 83 174 89 Q 174 97 169 102 Q 164 107 157 107 H 75 Q 64 136 54 168 H 150 Q 156 168 161 173 Q 166 178 166 185 Q 165 200 150 202 H 107 V 271 H 155 Q 162 271 167 276 Q 172 281 172 288 Q 172 295 167 300 Q 162 305 155 305 Z" fill="black" />
  </g>
  <g class="defect" id="01">
    <path d="M 113 456 Q 122 461 96 461" fill="none" stroke="red" stroke-width="3" />
  </g>
  <g class="defect" id="02">
    <path d="M 383 393 Q 381 406 405 404" fill="none" stroke="red" stroke-width="3" />
  </g>
  <g class="defect" id="03">
    <path d="M 314 75 Q 332 81 318 87" fill="none" stroke="red" stroke-width="3" />
  </g>
</svg>