<svg xmlns="http://www.w3.org/2000/svg" width="512" height="512" viewBox="0 0 512 512">
  <g class="glyph">
    <path d="M 462 129 V 397 Q 462 450 433 483 Q 409 508 382 512 H 379 Q 372 512 366 507 Q 361 503 360 496 Q 359 479 376 474 Q 389 473 402 460 Q 424 439 424 397 V 129 Q 424 102 405 83 Q 386 64 359 64 H 207 Q 199 64 193 58 Q 188 53 188 45 Q 188 36 193 31 Q 198 26 207 26 H 359 Q 384 44 433 56 Q 462 86 462 129 Z M 65 10 118 59 Q 128 73 117 86 Q 111 91 104 91 Q 96 91 90 86 L 37 37 Q 27 23 39 10 Q 51 0 65 10 Z M 38 135 V 490 Q 38 498 32 503 Q 26 509 18 509 Q 10 509 5 503 Q 0 498 0 490 V 135 Q 0 127 5 122 Q 10 116 18 116 Q 26 116 32 122 Q 38 127 38 135 Z M 343 208 Q 368 231 396 246 Q 409 255 402 271 Q 397 278 387 278 Q 382 278 379 275 Q 316 237 267 173 Q 251 151 229 113 Q 224 98 237 90 Q 253 85 260 99 Q 260 103 278 130 L 306 105 Q 320 95 331 105 Q 355 118 329 130 L 297 158 Q 310 174 319 185 Q 320 184 321 183 L 356 153 Q 370 143 381 154 Q 390 168 378 179 Z M 261 343 Q 275 366 298 384 Q 331 409 377 421 Q 393 426 392 442 Q 389 456 374 457 L 371 456 Q 313 442 271 407 Q 244 384 229 358 Q 190 433 86 457 L 84 457 Q 69 457 65 442 Q 64 426 80 421 Q 164 403 196 343 H 101 Q 94 343 89 339 Q 84 334 84 327 Q 84 320 89 315 Q 94 310 101 310 H 208 Q 215 287 214 266 H 169 Q 162 266 157 261 Q 152 257 152 250 Q 152 243 157 238 Q 162 234 169 234 H 300 Q 307 234 312 238 Q 317 243 317 250 Q 317 257 312 261 Q 307 266 300 266 H 249 Q 251 285 246 310 H 361 Q 368 310 373 315 Q 378 320 378 327 Q 378 334 373 339 Q 368 343 361 343 Z M 146 192 Q 163 171 175 145 Q 176 138 170 137 H 119 Q 112 137 107 132 Q 101 127 101 119 Q 117 126 107 107 Q 112 102 119 102 H 174 Q 202 102 211 119 Q 221 135 205 162 Q 183 199 161 223 Q 129 257 85 280 Q 81 283 75 283 Q 66 283 62 275 Q 55 260 68 251 Q 103 235 130 210 Q 124 210 118 206 L 92 184 Q 81 172 89 160 Q 101 149 113 158 L 139 180 Q 145 185 146 192 Z" fill="black" />
  </g>
  <g class="defect" id="01">
    <path d="M 101 119 Q 117 126 107 107" fill="none" stroke="red" stroke-width="3" />
  </g>
  <g class="defect" id="02">
    <path d="M 359 26 Q 384 44 433 56" fill="none" stroke="red" stroke-width="3" />
  </g>
  <g class="defect" id="03">
    <path d="M 331 105 Q 355 118 329 130" fill="none" stroke="red" stroke-width="3" />
  </g>
</svg>