<svg xmlns="http://www.w3.org/2000/svg" width="512" height="512" viewBox="0 0 512 512">
  <g class="glyph">
    <path d="M 462 129 V 397 Q 462 450 433 483 Q 409 508 382 512 H 379 Q 372 512 366 507 Q 361 503 360 496 Q 359 479 376 474 Q 389 473 402 460 Q 424 439 424 397 V 129 Q 424 102 405 83 Q 386 64 359 64 H 207 Q 199 64 193 58 Q 188 53 188 45 Q 188 36 193 31 Q 198 26 207 26 H 359 Q 403 26 433 56 Q 462 86 462 129 Z M 356 162 V 213 Q 356 242 336 262 Q 333 293 287 282 H 179 Q 149 282 129 262 Q 109 242 109 213 V 162 Q 109 133 129 113 Q 149 93 179 93 H 287 Q 316 93 336 113 Q 356 133 356 162 Z M 71 10 130 65 Q 139 78 128 91 Q 123 96 115 96 Q 107 96 102 91 L 43 37 Q 33 23 44 10 Q 57 0 71 10 Z M 38 135 V 490 Q 38 498 32 503 Q 26 509 18 509 Q 10 509 5 503 Q 0 498 0 490 V 135 Q 0 127 5 122 Q 10 116 18 116 Q 26 116 32 122 Q 38 127 38 135 Z M 358 323 H 384 Q 392 323 397 327 Q 402 332 402 339 Q 402 346 397 351 Q 392 355 384 355 H 257 Q 295 405 381 423 Q 396 428 395 444 Q 390 458 377 458 Q 393 458 373 458 Q 274 437 227 375 Q 184 441 77 464 Q 75 464 73 464 Q 59 464 55 450 Q 53 434 69 428 Q 162 409 198 355 H 85 Q 77 355 72 351 Q 67 346 67 339 Q 67 332 72 327 Q 77 323 85 323 H 213 Q 215 312 217 300 Q 220 284 237 285 Q 253 288 253 305 Q 253 309 251 323 H 332 Q 348 320 329 318 L 319 299 Q 313 284 326 275 Q 342 270 350 283 L 361 302 Q 366 314 358 323 Z M 325 199 V 175 H 139 V 199 Z M 323 226 H 143 Q 153 248 178 250 H 287 Q 313 249 323 226 Z M 323 149 Q 313 126 287 124 H 178 Q 153 126 142 149 Z" fill="black" />
  </g>
  <g class="defect" id="01">
    <path d="M 377 458 Q 393 458 373 458" fill="none" stroke="red" stroke-width="3" />
  </g>
  <g class="defect" id="02">
    <path d="M 336 262 Q 333 293 287 282" fill="none" stroke="red" stroke-width="3" />
  </g>
  <g class="defect" id="03">
    <path d="M 332 323 Q 348 320 329 318" fill="none" stroke="red" stroke-width="3" />
  </g>
</svg>