<svg xmlns="http://www.w3.org/2000/svg" width="512" height="512" viewBox="0 0 512 512">
  <g class="glyph">
    <path d="M 286 136 Q 278 136 273 130 L 263 116 Q 255 103 267 92 Q 281 84 291 96 L 301 109 Q 309 123 296 133 Q 292 136 286 136 Z M 439 306 H 252 Q 252 321 263 331 Q 273 342 288 342 H 404 Q 419 342 429 331 Q 439 321 439 306 Z M 439 274 Q 439 259 429 249 Q 419 239 404 239 H 288 Q 273 239 263 249 Q 252 259 252 274 Z M 407 145 H 486 Q 501 146 503 162 Q 503 168 498 173 Q 473 178 486 178 H 208 Q 202 178 197 173 Q 192 168 192 162 Q 192 155 197 150 Q 202 145 208 145 H 364 Q 366 143 366 141 L 402 93 Q 413 81 427 90 Q 439 101 431 114 Z M 388 375 V 440 Q 388 452 397 459 Q 408 469 429 469 Q 462 468 476 438 Q 482 422 497 426 Q 512 432 509 448 Q 502 468 485 483 Q 462 504 429 504 Q 392 504 371 483 Q 352 466 352 440 V 375 H 324 V 376 Q 323 382 319 393 Q 311 413 299 429 Q 258 483 175 501 Q 174 502 171 502 Q 158 501 154 489 Q 153 473 167 468 Q 228 454 260 420 Q 280 399 287 375 Q 258 376 237 355 Q 216 335 216 306 V 274 Q 216 246 237 225 Q 257 205 286 205 H 406 Q 434 205 454 225 Q 475 245 475 274 V 306 Q 475 335 454 355 Q 434 375 406 375 Z M 361 43 H 467 Q 474 43 479 48 Q 484 53 484 60 Q 484 68 479 73 Q 474 78 467 78 H 224 Q 217 78 212 73 Q 207 68 207 60 Q 207 53 212 48 Q 217 43 224 43 H 324 V 18 Q 324 11 330 5 Q 335 0 343 0 Q 350 0 355 5 Q 361 11 361 18 Z M 113 305 V 433 L 169 406 Q 184 400 192 413 Q 200 427 186 436 L 120 469 Q 112 474 103 474 Q 92 474 85 467 Q 78 460 78 446 V 305 H 33 Q 26 305 21 300 Q 16 295 16 288 Q 16 281 21 276 Q 26 271 33 271 H 78 V 201 H 54 Q 49 201 45 198 Q 41 206 37 214 Q 33 224 21 224 Q 18 224 14 222 Q 0 214 6 199 Q 37 127 53 75 Q 69 25 69 21 Q 71 15 78 11 Q 84 7 91 9 Q 107 15 103 31 Q 103 34 92 70 H 164 Q 172 70 177 75 Q 182 80 182 87 Q 182 94 177 99 Q 172 105 164 105 H 81 Q 68 141 58 167 H 154 Q 161 167 166 172 Q 171 177 171 184 Q 169 200 154 201 H 113 V 271 H 171 Q 178 271 183 276 Q 188 281 188 288 Q 188 295 183 300 Q 178 305 171 305 Z" fill="black" />
  </g>
  <g class="defect" id="01">
    <path d="M 498 173 Q 473 178 486 178" fill="none" stroke="red" stroke-width="3" />
  </g>
</svg>