<svg xmlns="http://www.w3.org/2000/svg" width="512" height="512" viewBox="0 0 512 512">
  <g class="glyph">
    <path d="M 38 135 V 490 Q 38 498 32 503 Q 26 509 18 509 Q 10 509 5 503 Q 0 498 0 490 V 135 Q 0 127 5 122 Q 10 116 18 116 Q 26 116 32 122 Q 38 127 38 135 Z M 85 91 26 37 Q 16 23 27 10 Q 40 0 54 10 L 112 65 Q 122 78 111 91 Q 105 96 98 96 Q 90 96 85 91 Z M 379 512 Q 372 512 366 507 Q 361 503 360 496 Q 359 479 376 474 Q 389 473 402 460 Q 424 439 424 397 V 129 Q 424 102 405 83 Q 386 64 359 64 H 201 Q 193 64 187 58 Q 182 53 182 45 Q 182 36 187 31 Q 192 26 201 26 H 359 Q 403 26 433 56 Q 462 86 462 129 V 397 Q 462 450 433 483 Q 409 508 382 512 Z M 346 327 Q 338 327 333 320 L 297 276 Q 287 263 299 252 Q 313 242 324 254 L 360 298 Q 369 311 358 323 Q 352 327 346 327 Z M 362 449 Q 354 449 349 443 L 262 351 Q 252 338 263 325 Q 293 316 289 326 L 376 419 Q 386 432 375 444 Q 369 449 362 449 Z M 374 249 Q 345 199 321 131 Q 320 128 317 128 Q 314 128 313 131 Q 294 195 259 246 Q 254 254 246 254 Q 239 254 236 252 Q 223 242 231 227 Q 266 180 282 119 Q 286 103 297 94 Q 306 88 317 88 H 317 Q 327 88 336 94 Q 345 101 350 116 Q 371 176 404 232 Q 411 247 397 256 Q 394 258 388 258 Q 379 258 374 249 Z M 163 151 H 220 Q 236 152 237 168 Q 237 176 232 181 Q 227 186 220 186 H 145 V 225 L 160 226 Q 188 227 206 246 Q 225 266 225 294 Q 223 346 217 390 Q 211 428 188 447 Q 173 458 154 461 H 150 Q 143 461 139 456 Q 135 451 135 443 Q 134 429 150 425 Q 164 422 170 416 Q 181 406 186 384 Q 194 347 192 294 Q 192 280 185 272 Q 177 263 164 262 L 144 261 Q 141 313 132 349 Q 124 386 113 409 Q 92 452 88 454 Q 81 462 74 462 Q 69 462 63 458 Q 51 447 60 433 Q 73 420 86 387 Q 111 324 111 233 V 186 H 75 Q 68 186 63 181 Q 58 176 58 168 Q 58 161 63 156 Q 68 151 75 151 H 127 V 109 Q 127 102 132 96 Q 137 90 145 90 Q 152 90 158 96 Q 163 101 163 109 Z" fill="black" />
  </g>
  <g class="defect" id="01">
    <path d="M 263 325 Q 293 316 289 326" fill="none" stroke="red" stroke-width="3" />
  </g>
</svg>