<svg xmlns="http://www.w3.org/2000/svg" width="512" height="512" viewBox="0 0 512 512">
  <g class="glyph">
    <path d="M 418 86 H 491 Q 498 86 503 91 Q 508 96 508 104 Q 506 121 491 122 H 411 V 208 H 480 Q 487 208 492 213 Q 497 218 497 225 Q 497 232 492 237 Q 487 242 480 242 H 411 V 328 H 480 Q 487 328 492 333 Q 497 338 497 345 Q 497 352 492 357 Q 472 378 480 362 H 411 V 448 H 494 Q 501 448 506 453 Q 512 459 512 466 Q 510 483 494 484 H 340 Q 304 484 278 458 Q 252 433 252 397 V 190 Q 242 207 230 224 Q 225 230 218 230 Q 210 230 207 228 Q 195 217 202 204 Q 252 128 278 73 Q 304 17 304 14 Q 311 0 326 5 Q 340 11 336 26 Q 333 37 306 93 Q 322 86 340 86 H 382 L 364 26 Q 361 8 375 3 Q 382 1 388 3 Q 375 25 398 14 Z M 375 448 V 362 H 288 V 397 Q 288 418 303 433 Q 318 448 340 448 Z M 375 328 V 242 H 288 V 328 Z M 375 208 V 122 H 340 Q 318 122 303 137 Q 288 152 288 173 V 208 Z M 190 376 208 371 Q 224 369 228 385 Q 229 400 213 405 L 21 453 H 18 Q 4 452 1 439 Q 0 424 15 419 L 35 414 V 88 Q 35 54 58 33 Q 81 11 115 11 Q 148 11 169 33 Q 202 55 190 88 Z M 155 384 V 292 H 70 V 406 Z M 155 259 V 177 H 70 V 259 Z M 155 143 V 88 Q 155 71 145 59 Q 134 46 115 46 Q 95 46 83 57 Q 70 69 70 88 V 143 Z" fill="black" />
  </g>
  <g class="defect" id="01">
    <path d="M 169 33 Q 202 55 190 88" fill="none" stroke="red" stroke-width="3" />
  </g>
  <g class="defect" id="02">
    <path d="M 492 357 Q 472 378 480 362" fill="none" stroke="red" stroke-width="3" />
  </g>
  <g class="defect" id="03">
    <path d="M 388 3 Q 375 25 398 14" fill="none" stroke="red" stroke-width="3" />
  </g>
</svg>