<svg xmlns="http://www.w3.org/2000/svg" width="512" height="512" viewBox="0 0 512 512">
  <g class="glyph">
    <path d="M 434 89 Q 427 89 422 84 L 386 50 Q 376 38 386 26 Q 398 15 410 27 L 447 61 Q 457 73 446 85 Q 441 89 434 89 Z M 407 379 Q 448 429 499 461 Q 512 469 506 484 Q 501 493 491 493 Q 487 493 482 490 Q 427 453 387 405 Q 345 455 294 490 Q 288 493 284 493 Q 275 493 270 484 Q 263 469 276 460 Q 326 429 366 380 Q 336 341 314 294 Q 312 289 310 284 Q 287 397 242 459 Q 238 465 231 465 Q 225 465 219 460 Q 220 451 218 436 Q 278 347 296 148 H 241 Q 235 148 230 143 Q 225 138 225 131 Q 225 124 230 119 Q 235 114 241 114 H 299 Q 299 107 302 22 Q 302 14 307 9 Q 312 4 319 4 Q 326 4 331 9 Q 337 15 336 22 Q 334 91 332 114 H 484 Q 491 114 496 119 Q 501 124 501 131 Q 501 138 496 143 Q 491 148 484 148 H 330 Q 326 189 320 230 Q 333 216 355 216 H 416 Q 446 216 458 241 Q 471 265 457 294 Q 436 338 407 379 Z M 386 353 Q 409 320 430 276 Q 434 267 430 260 Q 426 252 418 252 H 353 Q 344 252 340 260 Q 337 267 341 276 Q 361 320 386 353 Z M 127 300 V 471 Q 127 479 122 484 Q 117 489 110 489 Q 103 489 98 484 Q 94 479 94 471 V 300 H 17 Q 10 300 5 295 Q 0 290 0 283 Q 0 276 5 271 Q 10 266 17 266 H 94 V 202 H 46 Q 39 202 34 197 Q 29 192 29 185 Q 29 178 34 173 Q 39 168 46 168 H 94 V 105 H 29 Q 23 105 18 100 Q 13 95 13 88 Q 13 81 18 76 Q 23 71 29 71 H 94 V 17 Q 94 10 98 5 Q 86 0 110 0 Q 117 0 122 5 Q 127 10 127 17 V 71 H 204 Q 211 71 216 76 Q 221 81 221 88 Q 221 95 216 100 Q 211 105 204 105 H 127 V 168 H 186 Q 193 168 198 173 Q 203 178 203 185 Q 203 192 198 197 Q 193 202 186 202 H 127 V 266 H 147 Q 182 266 202 286 Q 221 306 221 341 V 360 Q 221 403 200 425 Q 183 442 163 442 H 162 Q 156 442 151 436 Q 146 430 146 423 Q 147 410 161 408 Q 148 408 176 402 Q 188 389 188 360 V 341 Q 188 316 171 306 Q 161 300 147 300 Z" fill="black" />
  </g>
  <g class="defect" id="01">
    <path d="M 98 5 Q 86 0 110 0" fill="none" stroke="red" stroke-width="3" />
  </g>
  <g class="defect" id="02">
    <path d="M 219 460 Q 220 451 218 436" fill="none" stroke="red" stroke-width="3" />
  </g>
  <g class="defect" id="03">
    <path d="M 161 408 Q 148 408 176 402" fill="none" stroke="red" stroke-width="3" />
  </g>
</svg>