<svg xmlns="http://www.w3.org/2000/svg" width="512" height="512" viewBox="0 0 512 512">
  <g class="glyph">
    <path d="M 272 282 Q 269 282 266 281 Q 251 273 255 257 Q 283 184 285 172 Q 291 157 307 160 Q 322 166 319 182 Q 316 196 289 271 Q 284 282 272 282 Z M 396 74 Q 397 164 396 189 Q 393 252 382 300 Q 355 421 256 507 Q 251 512 244 512 Q 235 512 229 506 Q 220 492 231 480 Q 287 431 314 378 Q 341 325 351 267 Q 362 176 359 74 H 275 Q 267 74 261 68 Q 256 62 256 55 Q 256 47 261 42 Q 267 36 275 36 H 426 Q 460 36 481 59 Q 503 82 503 118 V 160 Q 503 260 502 300 Q 500 378 491 420 Q 480 469 442 493 Q 414 512 381 512 H 380 Q 372 512 366 506 Q 361 501 361 493 Q 362 485 367 480 Q 372 474 381 474 Q 398 474 414 466 Q 445 451 454 412 Q 467 351 466 160 V 118 Q 466 98 455 86 Q 444 74 426 74 Z M 133 314 V 493 Q 133 502 128 507 Q 123 512 115 512 Q 108 512 103 507 Q 98 502 98 493 V 314 H 18 Q 10 314 5 309 Q 0 304 0 297 Q 0 289 5 284 Q 10 279 18 279 H 98 V 212 H 48 Q 41 212 36 207 Q 31 201 31 194 Q 11 187 36 182 Q 41 176 48 176 H 98 V 110 H 31 Q 24 110 19 105 Q 13 100 13 92 Q 13 85 19 80 Q 24 75 31 75 H 98 V 18 Q 98 10 103 5 Q 108 0 115 0 Q 123 0 128 5 Q 133 10 133 18 V 75 H 220 Q 227 75 232 80 Q 237 85 237 92 Q 237 100 232 105 Q 227 110 220 110 H 133 V 176 H 200 Q 208 176 213 182 Q 218 187 218 194 Q 202 214 213 207 Q 226 198 200 212 H 133 V 279 H 160 Q 196 279 217 300 Q 238 321 238 358 V 377 Q 238 422 215 445 Q 198 463 176 463 H 176 Q 170 463 164 457 Q 159 451 159 443 Q 160 429 174 428 Q 182 428 190 421 Q 203 408 203 377 V 358 Q 203 331 185 321 Q 174 314 160 314 Z" fill="black" />
  </g>
  <g class="defect" id="01">
    <path d="M 31 194 Q 11 187 36 182" fill="none" stroke="red" stroke-width="3" />
  </g>
  <g class="defect" id="02">
    <path d="M 218 194 Q 202 214 213 207" fill="none" stroke="red" stroke-width="3" />
  </g>
  <g class="defect" id="03">
    <path d="M 213 207 Q 226 198 200 212" fill="none" stroke="red" stroke-width="3" />
  </g>
</svg>