<svg xmlns="http://www.w3.org/2000/svg" width="512" height="512" viewBox="0 0 512 512">
  <g class="glyph">
    <path d="M 392 39 375 101 H 400 Q 433 101 455 123 Q 478 146 478 178 L 475 331 Q 475 338 470 343 Q 465 348 458 348 Q 450 348 445 343 Q 422 338 440 331 L 442 178 Q 443 160 429 148 Q 416 135 398 135 H 337 Q 319 135 306 148 Q 293 160 293 178 V 331 Q 293 338 288 343 Q 283 348 275 348 Q 256 363 263 343 Q 258 338 258 331 V 178 Q 258 146 280 123 Q 303 101 335 101 H 339 L 357 39 H 245 Q 238 39 233 34 Q 227 28 227 22 Q 227 14 233 9 Q 238 4 245 4 H 486 Q 493 4 498 9 Q 504 14 504 22 Q 504 28 498 34 Q 476 55 486 39 Z M 382 279 383 281 Q 389 310 405 343 Q 438 409 498 441 Q 512 450 505 465 Q 501 473 489 473 Q 485 473 481 470 Q 404 428 368 345 Q 347 405 300 444 Q 274 464 254 471 Q 250 473 246 473 Q 234 473 230 465 Q 223 449 237 441 Q 243 440 257 432 Q 279 419 297 401 Q 352 343 351 246 V 187 Q 351 179 356 174 Q 361 169 368 169 Q 375 169 379 174 Q 384 179 384 187 V 246 Q 384 263 382 279 Z M 157 122 Q 205 152 238 178 Q 250 189 241 203 Q 235 209 229 209 Q 221 209 217 205 Q 178 175 130 146 Q 76 193 27 213 Q 24 214 19 214 Q 9 214 4 202 Q 0 187 15 180 Q 64 160 108 124 Q 150 89 167 55 Q 172 46 168 40 Q 167 35 157 35 H 43 Q 33 35 28 30 Q 23 25 23 18 Q 23 10 27 6 Q 33 0 43 0 H 157 Q 185 0 199 23 Q 210 48 197 73 Q 184 94 157 122 Z M 143 390 225 366 Q 241 363 246 378 Q 249 394 234 399 L 36 458 Q 34 458 31 458 Q 18 458 14 445 Q 12 430 27 425 L 107 401 V 271 H 46 Q 39 271 34 266 Q 29 261 29 254 Q 29 247 34 242 Q 39 237 46 237 H 203 Q 210 237 215 242 Q 220 247 220 254 Q 220 261 215 266 Q 210 271 203 271 H 143 Z" fill="black" />
  </g>
  <g class="defect" id="01">
    <path d="M 498 34 Q 476 55 486 39" fill="none" stroke="red" stroke-width="3" />
  </g>
  <g class="defect" id="02">
    <path d="M 445 343 Q 422 338 440 331" fill="none" stroke="red" stroke-width="3" />
  </g>
  <g class="defect" id="03">
    <path d="M 275 348 Q 256 363 263 343" fill="none" stroke="red" stroke-width="3" />
  </g>
</svg>