<svg xmlns="http://www.w3.org/2000/svg" width="512" height="512" viewBox="0 0 512 512">
  <g class="glyph">
    <path d="M 192 395 Q 198 410 185 419 L 117 456 Q 108 461 99 461 Q 90 461 84 456 Q 74 448 74 433 V 194 Q 74 187 80 182 Q 85 176 92 176 Q 99 176 105 182 Q 110 187 110 194 V 419 L 168 388 Q 183 382 192 395 Z M 456 402 V 486 Q 456 493 451 499 Q 445 504 438 504 Q 431 504 425 499 Q 420 493 420 486 V 410 L 218 457 Q 216 458 214 458 Q 201 458 197 445 Q 196 428 210 423 L 251 414 V 413 V 60 H 214 Q 206 60 201 55 Q 196 50 196 43 Q 196 35 201 30 Q 206 25 214 25 H 487 Q 494 25 499 30 Q 504 35 504 43 Q 504 50 499 55 Q 494 60 487 60 H 456 V 366 L 488 359 Q 505 357 510 372 Q 496 407 496 393 Z M 420 375 V 296 H 287 V 406 Z M 420 261 V 180 H 287 V 261 Z M 420 145 V 60 H 287 V 145 Z M 80 78 H 151 Q 176 78 187 97 Q 198 115 187 139 Q 175 164 162 188 Q 157 196 147 196 Q 142 196 138 193 Q 125 184 132 170 Q 144 147 156 124 Q 158 117 157 115 Q 156 113 151 113 H 70 Q 56 159 37 202 Q 33 212 21 212 Q 16 212 14 211 Q 0 203 5 188 Q 31 125 44 72 Q 58 19 58 15 Q 60 8 66 4 Q 71 0 79 1 Q 94 6 93 22 Q 93 29 80 78 Z" fill="black" />
  </g>
  <g class="defect" id="01">
    <path d="M 510 372 Q 496 407 496 393" fill="none" stroke="red" stroke-width="3" />
  </g>
</svg>