<svg xmlns="http://www.w3.org/2000/svg" width="512" height="512" viewBox="0 0 512 512">
  <g class="glyph">
    <path d="M 129 378 21 395 H 18 Q 4 393 1 379 Q 0 372 5 365 Q 9 359 16 358 L 124 341 Q 140 341 144 357 Q 144 374 129 378 Z M 465 371 H 275 Q 267 371 262 366 Q 257 361 257 353 Q 257 346 262 341 Q 267 336 275 336 H 465 V 310 Q 465 283 446 263 Q 426 244 399 244 H 260 Q 253 244 247 238 Q 242 233 242 226 Q 242 218 247 212 Q 253 207 260 207 H 350 Q 372 151 410 115 Q 412 108 405 107 H 314 Q 266 174 222 221 Q 216 227 208 227 Q 201 227 196 222 Q 184 209 195 196 Q 245 141 290 72 Q 317 32 326 14 Q 336 0 353 6 Q 367 17 360 33 Q 342 15 338 69 H 407 Q 420 69 431 76 Q 442 81 447 94 Q 456 115 440 140 Q 418 174 396 207 H 399 Q 442 207 472 237 Q 502 267 502 310 V 400 Q 502 443 472 473 Q 442 503 399 503 H 245 Q 238 503 232 498 Q 226 492 226 485 Q 226 477 232 471 Q 237 466 245 466 H 399 Q 426 466 446 447 Q 465 427 465 400 Z M 167 246 Q 206 268 208 318 V 329 Q 209 404 196 444 Q 180 493 136 508 Q 125 512 120 512 H 119 Q 103 511 101 496 Q 101 479 117 476 Q 117 476 123 475 Q 128 474 136 469 Q 152 461 163 433 Q 174 401 174 329 V 318 Q 174 300 163 288 Q 152 276 136 276 H 75 Q 49 276 35 259 Q 21 242 25 217 Q 39 125 42 113 Q 42 106 49 101 Q 54 97 62 98 Q 78 102 77 119 Q 73 139 60 223 Q 60 230 64 235 Q 68 239 74 239 H 132 Q 133 230 151 104 Q 154 84 143 71 Q 132 58 112 58 H 28 Q 21 58 15 53 Q 10 48 10 40 Q 10 32 15 27 Q 20 22 28 22 H 112 Q 157 32 169 46 Q 191 72 186 109 Q 176 178 167 246 Z" fill="black" />
  </g>
  <g class="defect" id="01">
    <path d="M 360 33 Q 342 15 338 69" fill="none" stroke="red" stroke-width="3" />
  </g>
  <g class="defect" id="02">
    <path d="M 112 22 Q 157 32 169 46" fill="none" stroke="red" stroke-width="3" />
  </g>
  <g class="defect" id="03">
    <path d="M 350 207 Q 372 151 410 115" fill="none" stroke="red" stroke-width="3" />
  </g>
</svg>