<svg xmlns="http://www.w3.org/2000/svg" width="512" height="512" viewBox="0 0 512 512">
  <g class="glyph">
    <path d="M 200 421 Q 207 436 193 445 L 119 485 Q 110 490 101 490 Q 91 490 85 485 Q 75 477 75 462 V 204 Q 75 197 81 192 Q 86 186 94 186 Q 101 186 106 192 Q 112 197 112 204 V 448 L 176 415 Q 192 408 200 421 Z M 386 457 H 427 Q 448 457 462 442 Q 476 428 476 408 V 312 Q 476 304 481 299 Q 486 294 494 294 Q 502 294 507 299 Q 512 304 512 312 L 511 408 Q 511 444 487 468 Q 462 493 427 493 H 309 Q 274 493 250 468 Q 225 443 225 408 V 312 Q 225 304 230 299 Q 235 294 242 294 Q 250 294 255 299 Q 260 304 260 312 L 261 408 Q 261 428 275 442 Q 289 457 309 457 H 351 V 250 H 312 Q 280 250 257 227 Q 233 204 233 171 L 233 70 Q 233 62 238 57 Q 243 52 250 52 Q 258 52 263 57 Q 268 62 268 69 L 269 171 Q 269 189 281 202 Q 294 215 312 215 H 351 V 18 Q 351 10 356 5 Q 361 0 368 0 Q 376 0 381 5 Q 386 10 386 18 V 215 H 425 Q 443 215 456 202 Q 469 189 469 171 L 469 70 Q 469 62 474 57 Q 479 52 486 52 Q 494 52 499 57 Q 504 62 504 70 L 505 171 Q 505 204 481 227 Q 458 250 425 250 H 386 Z M 81 87 H 159 Q 185 87 196 106 Q 223 124 196 148 Q 183 173 170 198 Q 165 206 155 206 Q 150 206 145 204 Q 133 194 140 180 Q 152 156 164 133 Q 166 126 165 124 Q 164 122 159 122 H 71 Q 56 169 38 213 Q 33 223 22 223 Q 17 223 14 222 Q 0 214 5 198 Q 32 134 45 80 Q 59 27 59 23 Q 60 15 67 11 Q 72 7 80 9 Q 96 14 94 30 Q 94 37 81 87 Z" fill="black" />
  </g>
  <g class="defect" id="01">
    <path d="M 196 106 Q 223 124 196 148" fill="none" stroke="red" stroke-width="3" />
  </g>
</svg>