<svg xmlns="http://www.w3.org/2000/svg" width="512" height="512" viewBox="0 0 512 512">
  <g class="glyph">
    <path d="M 305 108 Q 293 108 290 98 Q 285 83 299 76 Q 354 52 398 30 Q 452 21 446 6 Q 460 0 469 12 Q 475 25 464 35 Q 460 37 416 59 Q 372 81 312 106 Q 310 108 305 108 Z M 315 186 Q 304 186 300 177 Q 295 162 308 155 Q 353 136 410 105 Q 456 81 459 78 Q 472 71 482 83 Q 490 96 478 106 Q 409 147 322 185 Q 319 186 315 186 Z M 314 268 Q 302 268 299 257 Q 294 243 308 236 Q 361 215 422 184 Q 475 158 479 153 Q 492 146 502 158 Q 510 171 497 181 Q 482 190 442 211 Q 377 244 320 267 Q 316 268 314 268 Z M 443 414 H 498 Q 504 414 508 419 Q 512 423 512 430 Q 512 436 508 441 Q 504 445 498 445 H 442 Q 437 474 416 492 Q 400 506 380 510 Q 378 511 374 511 Q 368 511 362 507 Q 357 502 356 495 Q 356 480 372 476 Q 380 475 388 470 Q 410 475 405 445 H 110 V 494 Q 110 501 105 506 Q 100 511 93 511 Q 85 511 80 506 Q 75 501 75 494 V 445 H 14 Q 8 445 4 441 Q 0 436 0 430 Q 0 423 4 419 Q 8 414 14 414 H 74 V 382 Q 74 341 96 319 Q 117 298 158 298 H 240 V 286 Q 240 279 246 274 Q 251 268 258 268 Q 266 268 272 274 Q 277 279 277 286 V 298 H 360 Q 443 298 443 376 Z M 407 414 V 387 H 277 V 414 Z M 406 356 Q 403 341 392 335 Q 381 329 360 329 H 277 V 356 Z M 240 414 V 387 H 110 V 414 Z M 240 356 V 329 H 158 Q 120 329 113 356 Z M 237 253 Q 236 253 234 253 L 43 279 Q 28 281 22 269 Q 17 258 23 249 L 61 197 H 18 Q 12 197 7 193 Q 3 189 3 182 Q 3 176 7 172 Q 12 167 18 167 H 50 L 51 74 Q 51 51 67 34 Q 84 17 106 17 H 247 Q 253 17 258 21 Q 262 25 262 32 Q 262 38 258 42 Q 253 47 247 47 H 112 Q 91 49 86 67 H 234 Q 240 67 244 71 Q 248 75 248 82 Q 247 96 234 97 H 85 V 117 H 234 Q 239 117 244 122 Q 248 126 248 132 Q 247 146 234 147 H 85 V 167 H 261 Q 266 167 271 172 Q 276 177 276 182 Q 274 196 261 197 H 231 L 267 238 Q 276 250 265 260 Q 261 264 255 264 Q 248 264 243 259 Z M 212 224 205 216 Q 198 207 204 197 H 102 L 101 199 L 69 243 Z" fill="black" />
  </g>
  <g class="defect" id="01">
    <path d="M 388 470 Q 410 475 405 445" fill="none" stroke="red" stroke-width="3" />
  </g>
  <g class="defect" id="02">
    <path d="M 398 30 Q 452 21 446 6" fill="none" stroke="red" stroke-width="3" />
  </g>
</svg>