<svg xmlns="http://www.w3.org/2000/svg" width="512" height="512" viewBox="0 0 512 512">
  <g class="glyph">
    <path d="M 295 65 Q 416 19 447 6 Q 463 0 469 13 Q 475 25 463 32 Q 440 43 307 93 Q 301 94 299 94 Q 290 94 286 85 Q 283 80 285 74 Q 287 68 295 65 Z M 302 128 Q 430 80 453 69 Q 469 63 476 76 Q 482 87 469 96 Q 356 141 313 156 Q 309 157 307 157 Q 296 157 292 148 Q 290 142 292 137 Q 294 130 302 128 Z M 302 194 Q 445 139 479 123 Q 495 117 501 130 Q 507 141 495 150 Q 489 152 432 176 Q 375 200 313 222 Q 308 223 306 223 Q 295 222 292 213 Q 290 207 292 202 Q 294 196 302 194 Z M 272 503 Q 196 503 165 477 Q 145 461 144 433 L 143 417 Q 143 390 163 375 Q 183 361 213 361 H 302 Q 332 361 349 375 Q 365 388 365 406 Q 365 423 349 435 Q 333 448 305 448 H 261 Q 243 447 243 434 Q 253 405 261 420 H 305 Q 327 418 327 405 Q 327 399 321 395 Q 315 390 302 390 H 213 Q 179 390 179 415 V 435 Q 179 455 210 466 Q 236 475 272 475 Q 344 475 375 441 Q 385 431 385 428 Q 393 413 406 418 Q 419 422 415 439 Q 407 457 388 472 Q 347 503 272 503 Z M 395 343 Q 444 382 500 403 Q 507 406 510 412 Q 512 418 510 424 Q 507 436 496 436 Q 492 436 488 434 Q 404 402 346 344 L 345 343 H 183 Q 113 397 24 436 Q 22 437 18 437 Q 7 437 3 426 Q 0 419 2 414 Q 5 407 14 404 Q 73 381 127 343 H 36 Q 19 341 19 329 Q 19 316 36 313 H 167 Q 184 298 191 292 H 87 Q 71 291 71 278 Q 71 265 87 263 H 152 L 133 247 Q 120 237 127 226 Q 135 214 152 224 L 174 241 Q 184 249 179 261 Q 179 262 178 263 H 221 Q 249 232 250 229 Q 253 221 261 218 Q 267 216 274 220 Q 287 226 281 241 Q 280 245 266 263 H 309 Q 309 254 318 249 L 367 219 Q 383 211 391 223 Q 398 234 385 244 L 353 263 H 436 Q 444 263 449 268 Q 453 272 453 278 Q 453 291 436 292 H 240 Q 234 299 218 313 H 488 Q 505 315 505 328 Q 505 341 488 343 Z M 221 158 Q 222 159 224 160 L 254 196 Q 262 208 252 218 Q 248 222 242 222 Q 233 222 230 217 L 220 204 L 52 227 Q 38 229 32 220 Q 27 212 33 203 L 67 158 H 23 Q 8 156 8 145 Q 8 134 23 132 H 54 L 55 72 Q 55 49 71 32 Q 88 15 110 15 H 249 Q 263 17 263 29 Q 263 40 249 42 H 115 Q 100 42 92 56 H 236 Q 250 57 250 69 Q 250 78 236 79 H 89 V 95 H 236 Q 250 97 250 108 Q 250 117 236 118 H 89 V 132 H 262 Q 277 134 277 145 Q 277 158 262 158 Z M 203 158 H 106 Q 105 162 103 163 L 76 196 L 200 180 Q 192 168 202 158 Z" fill="black" />
  </g>
  <g class="defect" id="01">
    <path d="M 243 434 Q 253 405 261 420" fill="none" stroke="red" stroke-width="3" />
  </g>
</svg>