<svg xmlns="http://www.w3.org/2000/svg" width="512" height="512" viewBox="0 0 512 512">
  <g class="glyph">
    <path d="M 2 475 Q 0 469 4 462 Q 8 456 15 454 L 199 415 Q 215 412 221 427 Q 223 443 208 448 L 24 487 Q 22 488 19 488 Q 7 487 2 475 Z M 419 183 V 473 Q 419 480 414 486 Q 408 491 401 491 Q 394 491 389 486 Q 385 480 385 473 V 183 H 343 V 473 Q 343 480 339 486 Q 334 491 327 491 Q 320 491 315 486 Q 310 480 310 473 V 183 Q 293 184 281 197 Q 269 209 269 227 L 268 494 Q 268 501 263 506 Q 258 511 251 511 Q 244 511 239 506 Q 235 501 235 493 V 227 Q 235 194 258 170 Q 281 147 314 147 H 323 L 345 62 H 230 Q 222 62 217 57 Q 212 52 212 45 Q 212 37 217 32 Q 222 27 230 27 H 494 Q 502 27 507 32 Q 512 37 512 45 Q 511 61 494 62 H 383 L 360 147 H 414 Q 447 147 470 170 Q 493 194 493 227 L 493 447 Q 493 474 478 492 Q 466 506 451 511 Q 449 511 446 511 Q 438 511 433 506 Q 429 502 429 494 Q 429 480 441 477 Q 459 470 459 447 V 227 Q 459 210 447 197 Q 435 184 419 183 Z M 168 278 H 125 V 352 Q 142 353 155 340 Q 169 326 168 309 Z M 168 246 V 217 Q 168 200 156 187 Q 143 174 126 174 Q 124 209 125 246 Z M 142 143 Q 167 149 183 169 Q 200 190 200 217 V 309 Q 200 340 178 363 Q 156 385 124 385 H 98 Q 80 373 45 363 Q 23 340 23 309 V 217 Q 23 186 45 163 Q 66 141 98 141 H 104 Q 135 103 142 92 Q 143 91 142 90 Q 142 89 140 89 H 82 Q 54 124 33 144 Q 28 149 22 149 Q 15 149 10 144 Q 0 133 10 120 Q 43 86 69 51 Q 94 16 96 12 Q 104 0 119 7 Q 131 16 124 30 Q 120 36 106 56 H 141 Q 161 56 171 73 Q 180 89 169 107 Q 163 116 142 143 Z M 96 352 V 278 H 55 V 309 Q 55 326 67 339 Q 79 352 96 352 Z M 96 246 V 174 Q 79 174 67 187 Q 55 200 55 217 V 246 Z" fill="black" />
  </g>
  <g class="defect" id="01">
    <path d="M 98 385 Q 80 373 45 363" fill="none" stroke="red" stroke-width="3" />
  </g>
</svg>