<svg xmlns="http://www.w3.org/2000/svg" width="512" height="512" viewBox="0 0 512 512">
  <g class="glyph">
    <path d="M 394 200 Q 390 200 384 196 L 344 166 Q 334 156 342 142 Q 353 132 365 141 L 405 171 Q 416 182 407 195 Q 402 200 394 200 Z M 423 401 H 242 Q 236 401 230 395 Q 225 390 225 383 Q 225 375 230 370 Q 236 364 242 364 H 423 Q 430 364 436 370 Q 441 375 441 383 Q 441 390 436 395 Q 430 401 423 401 Z M 375 62 H 410 Q 442 62 463 85 Q 485 107 485 139 V 181 Q 485 215 464 236 Q 431 251 428 254 H 425 Q 418 254 414 250 Q 408 245 408 238 Q 407 223 422 219 Q 430 217 437 211 Q 448 201 448 181 V 139 Q 448 121 438 110 Q 427 98 410 98 H 340 Q 324 98 313 110 Q 302 121 302 139 V 233 Q 302 249 313 261 Q 324 273 340 273 H 439 Q 469 273 489 295 Q 509 316 509 349 Q 509 389 498 430 Q 487 474 454 494 Q 434 505 420 505 H 419 Q 412 505 406 501 Q 401 496 401 489 Q 400 481 405 476 Q 410 469 417 469 Q 435 487 437 461 Q 456 448 463 422 Q 472 382 472 349 Q 472 331 463 320 Q 454 309 439 309 H 340 Q 309 309 287 287 Q 266 264 266 233 V 139 Q 266 108 286 86 Q 307 63 337 62 L 355 14 Q 342 11 377 4 Q 391 11 387 26 Z M 183 244 V 427 Q 182 469 162 489 Q 140 510 120 511 Q 113 512 107 508 Q 100 503 100 496 Q 99 480 115 476 Q 125 475 133 467 Q 148 454 148 427 V 273 Q 91 382 35 447 Q 31 451 24 451 Q 15 451 10 446 Q 0 434 10 421 Q 62 366 123 244 H 94 Q 65 244 44 223 Q 22 201 26 173 L 34 107 Q 35 99 41 94 Q 48 90 54 91 Q 69 94 70 109 L 61 173 Q 59 189 70 199 Q 80 208 94 208 H 148 V 61 H 51 Q 31 58 31 44 Q 30 27 51 24 H 215 Q 232 27 233 41 Q 234 49 229 54 Q 224 61 215 61 H 183 V 208 H 227 Q 234 208 240 213 Q 245 219 245 226 Q 245 233 240 238 Q 234 244 227 244 Z" fill="black" />
  </g>
  <g class="defect" id="01">
    <path d="M 464 236 Q 431 251 428 254" fill="none" stroke="red" stroke-width="3" />
  </g>
  <g class="defect" id="02">
    <path d="M 355 14 Q 342 11 377 4" fill="none" stroke="red" stroke-width="3" />
  </g>
  <g class="defect" id="03">
    <path d="M 417 469 Q 435 487 437 461" fill="none" stroke="red" stroke-width="3" />
  </g>
</svg>