<svg xmlns="http://www.w3.org/2000/svg" width="512" height="512" viewBox="0 0 512 512">
  <g class="glyph">
    <path d="M 495 505 H 20 Q 13 505 8 501 Q 3 496 3 489 Q 3 483 8 479 Q 13 474 20 474 H 495 Q 503 474 507 479 Q 512 483 512 489 Q 511 504 495 505 Z M 457 87 Q 455 106 446 124 Q 432 152 406 178 Q 442 206 495 224 Q 509 230 505 246 Q 500 257 488 257 Q 487 257 483 256 Q 423 234 380 201 Q 347 225 305 243 Q 300 245 297 245 Q 287 245 282 236 Q 275 221 289 212 Q 323 199 354 178 Q 339 163 331 150 Q 324 141 323 137 Q 319 121 333 114 Q 348 110 356 124 Q 356 126 361 134 Q 369 145 381 157 Q 416 124 423 87 H 337 Q 323 109 309 129 Q 303 137 294 137 Q 289 137 285 133 Q 272 124 281 109 Q 305 75 321 46 Q 337 16 338 14 Q 346 0 361 5 Q 375 12 370 27 Q 364 39 355 55 H 493 Q 509 56 510 71 Q 509 86 493 87 Z M 421 367 Q 416 343 390 341 H 276 V 367 Z M 421 394 H 276 V 420 V 420 H 390 Q 414 418 421 394 Z M 314 313 H 390 Q 417 313 436 330 Q 455 348 455 374 V 386 Q 455 412 436 430 Q 417 448 390 448 H 130 Q 103 448 84 430 Q 65 412 65 386 V 374 Q 65 348 84 330 Q 85 313 130 313 H 254 Q 265 307 289 291 Q 291 289 291 287 Q 289 287 286 286 H 124 Q 84 321 38 353 Q 34 355 30 355 Q 20 356 15 348 Q 8 335 18 325 Q 90 276 140 227 Q 150 216 163 226 Q 174 238 165 249 Q 160 254 155 258 H 293 Q 323 258 330 277 Q 337 297 316 312 Z M 243 420 V 420 V 394 H 99 Q 106 418 130 420 Z M 243 367 V 341 H 130 Q 104 343 99 367 Z M 154 121 H 257 Q 263 121 268 125 Q 272 129 272 136 Q 272 141 268 145 Q 264 149 257 149 H 132 V 150 Q 132 156 128 168 H 197 Q 222 168 233 180 Q 245 192 237 216 Q 231 234 220 241 Q 211 246 194 246 Q 181 245 180 233 Q 179 227 182 222 Q 186 218 193 218 Q 203 218 206 207 Q 208 201 205 199 Q 203 196 197 196 H 115 Q 92 234 43 259 Q 39 261 35 261 Q 25 261 21 252 Q 15 238 28 230 Q 69 208 88 179 Q 98 163 99 149 H 15 Q 9 149 5 145 Q 0 141 0 136 Q 0 129 5 125 Q 9 121 15 121 H 120 V 104 H 41 Q 26 103 26 91 Q 26 79 41 77 H 120 V 60 H 28 Q 4 60 17 57 Q 13 53 13 47 Q 13 40 17 37 Q 21 33 28 33 H 120 V 17 Q 120 10 125 5 Q 130 0 137 0 Q 144 0 149 5 Q 154 10 154 17 V 33 H 244 Q 249 33 254 37 Q 259 41 259 47 Q 259 53 254 57 Q 250 60 244 60 H 154 V 77 H 230 Q 237 77 241 81 Q 233 85 245 91 Q 245 98 241 101 Q 236 104 230 104 H 154 Z" fill="black" />
  </g>
  <g class="defect" id="01">
    <path d="M 241 81 Q 233 85 245 91" fill="none" stroke="red" stroke-width="3" />
  </g>
  <g class="defect" id="02">
    <path d="M 84 330 Q 85 313 130 313" fill="none" stroke="red" stroke-width="3" />
  </g>
  <g class="defect" id="03">
    <path d="M 28 60 Q 4 60 17 57" fill="none" stroke="red" stroke-width="3" />
  </g>
</svg>