<svg xmlns="http://www.w3.org/2000/svg" width="512" height="512" viewBox="0 0 512 512">
  <g class="glyph">
    <path d="M 3 474 Q 0 459 15 453 L 187 403 Q 202 400 208 415 Q 211 431 195 436 L 24 486 Q 22 487 20 487 Q 7 486 3 474 Z M 231 471 Q 223 471 220 468 Q 208 456 217 442 Q 234 422 254 390 Q 270 364 270 363 Q 280 351 294 357 Q 307 367 301 381 Q 295 394 244 465 Q 239 471 231 471 Z M 489 464 Q 481 464 476 457 Q 444 418 421 385 Q 414 371 426 360 Q 440 353 450 365 Q 474 375 502 435 Q 511 448 500 460 Q 495 464 489 464 Z M 404 198 H 316 Q 295 198 284 213 Q 276 225 276 240 Q 276 255 284 267 Q 295 281 316 281 H 404 Q 425 281 436 267 Q 444 255 444 240 Q 444 225 436 213 Q 425 198 404 198 Z M 378 81 H 489 Q 496 81 501 86 Q 506 91 506 98 Q 506 106 501 111 Q 496 116 489 116 H 230 Q 223 116 218 111 Q 213 106 213 98 Q 213 91 218 86 Q 223 81 230 81 H 342 V 27 Q 342 19 347 14 Q 353 8 360 8 Q 367 8 373 14 Q 378 19 378 27 Z M 377 317 V 433 Q 377 471 357 492 Q 342 509 322 511 Q 313 512 306 506 Q 299 501 299 493 Q 299 479 318 475 Q 326 474 332 468 Q 342 456 342 433 V 317 H 316 Q 281 317 260 292 Q 227 255 241 240 Q 241 209 260 188 Q 282 163 316 163 H 403 Q 438 163 459 188 Q 478 209 478 240 Q 478 271 459 292 Q 438 317 403 317 Z M 173 277 H 130 V 351 Q 148 352 161 339 Q 174 326 173 308 Z M 173 245 V 217 Q 173 199 161 187 Q 148 174 131 174 Q 129 208 130 245 Z M 146 142 Q 172 147 189 168 Q 207 189 207 217 V 308 Q 207 340 185 362 Q 163 385 131 385 H 98 Q 67 385 45 362 Q 24 340 24 308 V 217 Q 24 185 45 163 Q 67 141 98 141 H 106 Q 139 101 146 90 L 145 89 H 83 Q 55 124 34 144 Q 29 149 22 149 Q 16 149 11 144 Q 1 132 11 120 Q 44 85 69 51 Q 94 16 96 12 Q 104 0 119 7 Q 131 16 125 30 Q 121 36 107 56 H 145 Q 165 56 175 73 Q 184 89 172 107 Q 164 119 146 142 Z M 98 351 Q 99 314 99 277 H 57 V 308 Q 57 326 69 339 Q 81 351 98 351 Z M 99 245 V 174 Q 82 173 69 186 Q 56 199 57 217 V 245 Z" fill="black" />
  </g>
  <g class="defect" id="01">
    <path d="M 260 292 Q 227 255 241 240" fill="none" stroke="red" stroke-width="3" />
  </g>
  <g class="defect" id="02">
    <path d="M 450 365 Q 474 375 502 435" fill="none" stroke="red" stroke-width="3" />
  </g>
</svg>