<svg xmlns="http://www.w3.org/2000/svg" width="512" height="512" viewBox="0 0 512 512">
  <g class="glyph">
    <path d="M 399 203 Q 395 203 389 199 L 349 169 Q 338 158 347 144 Q 358 134 370 143 L 410 173 Q 421 184 412 197 Q 407 203 399 203 Z M 425 406 H 262 Q 255 406 249 400 Q 244 395 244 388 Q 244 380 249 375 Q 255 369 262 369 H 425 Q 432 369 438 375 Q 443 380 443 388 Q 443 395 438 400 Q 432 406 425 406 Z M 100 246 Q 77 246 77 277 V 345 Q 77 364 87 371 Q 93 375 100 375 Q 106 375 112 371 Q 122 364 122 345 V 277 Q 122 246 100 246 Z M 100 410 Q 75 410 60 394 Q 44 377 44 346 V 276 Q 44 246 61 228 Q 77 212 100 212 Q 123 212 139 228 Q 155 246 155 276 V 346 Q 155 377 139 394 Q 124 410 100 410 Z M 380 63 H 412 Q 444 63 465 86 Q 487 109 487 140 V 184 Q 497 218 466 239 Q 450 254 430 257 H 427 Q 420 257 415 253 Q 410 249 409 242 Q 408 226 424 221 Q 433 220 440 214 Q 452 204 452 184 V 140 Q 452 123 442 112 Q 431 100 414 100 H 347 Q 331 100 319 112 Q 308 123 308 140 V 236 Q 308 253 319 265 Q 330 277 347 277 H 441 Q 472 277 492 299 Q 512 320 512 353 Q 512 394 501 436 Q 490 480 456 500 Q 436 512 422 512 H 421 Q 413 512 408 507 Q 403 503 402 495 Q 402 488 406 482 Q 411 476 419 475 Q 427 475 439 467 Q 458 454 465 427 Q 475 387 475 353 Q 475 335 465 324 Q 456 314 441 314 H 349 Q 317 314 295 291 Q 273 268 273 236 V 140 Q 273 110 293 88 Q 312 66 342 63 L 360 14 Q 366 0 382 4 Q 396 12 392 26 Z M 81 100 H 143 Q 182 100 206 126 Q 231 152 231 193 Q 231 277 228 322 Q 226 378 217 419 Q 207 467 174 492 Q 150 510 123 510 H 121 Q 113 510 108 505 Q 103 499 104 491 Q 104 484 109 479 Q 115 474 122 474 Q 136 474 150 465 Q 175 450 183 412 Q 192 372 194 319 Q 196 282 196 193 Q 196 167 182 152 Q 168 136 144 136 H 60 Q 45 159 37 171 Q 31 178 22 178 Q 17 178 12 175 Q 0 165 8 150 Q 45 98 62 60 Q 80 22 80 20 Q 87 5 102 9 Q 117 16 113 31 Q 104 58 81 100 Z" fill="black" />
  </g>
  <g class="defect" id="01">
    <path d="M 487 184 Q 497 218 466 239" fill="none" stroke="red" stroke-width="3" />
  </g>
</svg>