<svg xmlns="http://www.w3.org/2000/svg" width="512" height="512" viewBox="0 0 512 512">
  <g class="glyph">
    <path d="M 216 273 V 423 Q 216 452 196 472 Q 176 492 147 492 H 93 Q 64 492 44 472 Q 24 452 24 423 V 273 Q 26 256 41 256 Q 56 256 57 273 V 423 Q 57 438 68 448 Q 78 459 93 459 H 147 Q 163 459 173 448 Q 183 438 183 423 V 273 Q 185 257 200 257 Q 214 257 216 273 Z M 430 418 311 442 H 309 Q 294 441 292 427 Q 291 412 306 409 L 359 399 V 322 H 338 Q 330 337 297 340 Q 280 357 280 380 V 493 Q 280 501 275 506 Q 270 511 263 511 Q 256 511 251 506 Q 246 501 246 493 V 380 Q 246 341 273 314 Q 300 287 338 287 H 359 V 245 H 322 Q 294 245 275 224 Q 259 205 259 180 Q 259 155 275 136 Q 293 115 322 115 H 359 V 70 Q 321 74 275 77 H 274 Q 267 77 262 72 Q 257 66 257 60 Q 256 53 261 47 Q 266 41 274 41 Q 355 38 410 28 Q 459 21 468 18 Q 476 17 482 21 Q 488 26 489 33 Q 490 49 474 53 Q 465 56 393 66 V 115 H 427 Q 456 115 474 136 Q 490 155 490 180 Q 490 205 474 224 Q 456 245 427 245 H 393 V 287 H 419 Q 457 287 484 314 Q 511 341 511 380 V 436 Q 511 467 494 488 Q 479 506 457 511 Q 455 512 453 512 Q 439 512 435 498 Q 434 483 448 477 Q 460 475 467 465 Q 476 454 476 436 V 380 Q 476 356 460 340 Q 443 322 419 322 H 393 V 392 L 420 387 L 415 369 Q 411 353 424 348 Q 440 345 445 360 L 464 422 Q 468 437 454 443 Q 452 443 449 443 Q 438 443 434 430 Z M 393 211 H 427 Q 442 211 450 201 Q 457 192 457 180 Q 457 169 450 160 Q 442 149 427 149 H 393 Z M 359 211 V 149 H 322 Q 308 149 300 160 Q 293 168 293 180 Q 293 192 300 201 Q 307 211 322 211 Z M 151 176 H 220 Q 228 176 233 181 Q 238 186 238 194 Q 238 200 233 206 Q 228 211 220 211 H 18 Q 10 211 5 206 Q 0 200 0 194 Q 0 186 5 181 Q 10 176 18 176 H 46 V 57 Q 49 40 62 40 Q 70 40 74 44 Q 80 48 80 57 V 176 H 118 V 17 Q 120 0 134 0 Q 158 -13 146 4 Q 151 9 151 17 V 74 H 199 Q 206 74 211 79 Q 216 84 216 91 Q 216 99 211 104 Q 206 109 199 109 H 151 Z M 135 297 Q 137 312 145 336 Q 157 370 175 397 Q 183 411 172 419 Q 169 422 163 422 Q 156 422 151 415 Q 135 390 122 357 Q 109 395 89 417 Q 85 422 78 422 Q 74 422 70 419 Q 58 411 67 397 Q 93 368 104 306 Q 109 275 109 248 Q 109 241 113 237 Q 117 231 124 231 Q 130 231 135 237 Q 139 241 139 248 Q 139 269 135 297 Z" fill="black" />
  </g>
  <g class="defect" id="01">
    <path d="M 338 322 Q 330 337 297 340" fill="none" stroke="red" stroke-width="3" />
  </g>
  <g class="defect" id="02">
    <path d="M 134 0 Q 158 -13 146 4" fill="none" stroke="red" stroke-width="3" />
  </g>
  <g class="defect" id="03">
    <path d="M 274 41 Q 355 38 410 28" fill="none" stroke="red" stroke-width="3" />
  </g>
</svg>