<svg xmlns="http://www.w3.org/2000/svg" width="512" height="512" viewBox="0 0 512 512">
  <g class="glyph">
    <path d="M 279 0 318 8 Q 313 27 308 46 Q 302 65 296 84 H 512 V 121 H 282 Q 271 146 260 169 Q 249 192 236 213 V 505 H 198 V 268 Q 186 282 174 295 Q 162 308 149 319 Q 145 313 136 302 Q 127 291 121 286 Q 158 255 188 213 Q 218 171 240 121 H 155 V 84 H 254 Q 269 44 279 0 Z M 369 254 Q 383 244 398 232 Q 413 219 425 206 H 292 V 171 H 455 L 462 169 L 487 186 Q 471 208 449 230 Q 427 252 405 269 V 304 H 506 V 340 H 405 V 461 Q 405 477 401 486 Q 398 494 387 499 Q 387 522 359 504 Q 342 505 316 505 Q 315 498 312 487 Q 308 477 304 469 Q 324 469 339 469 Q 354 469 360 469 Q 365 469 367 467 Q 369 465 369 461 V 340 H 258 V 304 H 369 Z M 127 2 166 13 Q 154 45 140 76 Q 126 108 110 137 V 504 H 71 V 201 Q 60 218 48 233 Q 36 248 24 262 Q 21 254 13 241 Q -12 216 0 221 Q 26 194 49 159 Q 53 124 93 84 Q 113 43 127 2 Z" fill="black" />
  </g>
  <g class="defect" id="01">
    <path d="M 49 159 Q 53 124 93 84" fill="none" stroke="red" stroke-width="3" />
  </g>
  <g class="defect" id="02">
    <path d="M 13 241 Q -12 216 0 221" fill="none" stroke="red" stroke-width="3" />
  </g>
  <g class="defect" id="03">
    <path d="M 387 499 Q 387 522 359 504" fill="none" stroke="red" stroke-width="3" />
  </g>
</svg>