<svg xmlns="http://www.w3.org/2000/svg" width="512" height="512" viewBox="0 0 512 512">
  <g class="glyph">
    <path d="M 215 84 V 274 H 429 V 84 Z M 277 325 310 312 Q 325 324 341 339 Q 357 354 370 369 Q 383 384 391 397 L 356 411 Q 348 399 336 384 Q 323 369 307 353 Q 292 338 277 325 Z M 416 348 447 334 Q 462 351 475 370 Q 487 389 497 409 Q 507 428 512 443 L 478 459 Q 473 443 464 424 Q 454 405 442 385 Q 415 365 416 348 Z M 229 343 H 267 V 444 Q 267 454 273 457 Q 278 460 298 460 Q 302 460 314 460 Q 326 460 341 460 Q 356 460 368 460 Q 381 460 387 460 Q 398 460 403 456 Q 409 452 411 441 Q 413 429 414 405 Q 420 409 430 413 Q 441 416 449 418 Q 447 448 441 464 Q 435 480 424 486 Q 412 492 391 492 Q 386 492 373 492 Q 359 492 342 492 Q 325 492 312 492 Q 298 492 294 492 Q 268 492 254 488 Q 240 484 234 473 Q 229 463 229 444 Z M 178 347 213 358 Q 206 386 195 418 Q 184 450 168 472 L 133 455 Q 149 435 161 405 Q 172 374 178 347 Z M 292 0 335 8 312 50 H 471 V 308 H 176 V 50 H 273 Q 278 37 284 24 Q 289 10 292 0 Z M 279 180 300 163 Q 309 167 318 172 Q 327 177 335 183 Q 345 173 353 162 Q 361 151 367 139 H 293 Q 284 152 273 164 Q 262 176 248 187 Q 244 182 237 177 Q 230 172 224 170 Q 248 153 263 132 Q 278 110 287 91 L 317 95 Q 313 105 307 116 H 381 L 387 115 L 406 122 Q 399 144 387 164 Q 390 167 359 199 Q 373 208 385 218 Q 397 227 405 235 L 383 253 Q 375 246 364 236 Q 353 227 339 218 Q 321 234 299 246 Q 277 258 254 265 Q 251 260 245 254 Q 240 248 235 244 Q 256 237 277 226 Q 297 216 315 201 Q 306 195 297 190 Q 288 184 279 180 Z M 123 4 160 15 Q 150 45 137 74 Q 124 103 109 131 V 505 H 70 V 198 Q 59 215 47 231 Q 35 247 23 260 Q 20 253 13 241 Q 6 228 0 221 Q 25 194 48 159 Q 83 125 90 85 Q 109 45 123 4 Z" fill="black" />
  </g>
  <g class="defect" id="01">
    <path d="M 48 159 Q 83 125 90 85" fill="none" stroke="red" stroke-width="3" />
  </g>
  <g class="defect" id="02">
    <path d="M 387 164 Q 390 167 359 199" fill="none" stroke="red" stroke-width="3" />
  </g>
  <g class="defect" id="03">
    <path d="M 442 385 Q 415 365 416 348" fill="none" stroke="red" stroke-width="3" />
  </g>
</svg>