<svg xmlns="http://www.w3.org/2000/svg" width="512" height="512" viewBox="0 0 512 512">
  <g class="glyph">
    <path d="M 63 254 Q 61 247 57 235 Q 53 222 49 213 Q 58 211 69 201 Q 80 191 93 176 Q 100 168 114 151 Q 128 133 146 109 Q 150 85 182 57 Q 185 47 215 0 L 259 15 Q 228 67 192 116 Q 155 164 119 203 L 380 185 Q 362 161 344 137 Q 325 113 308 92 L 341 71 Q 364 98 389 130 Q 414 161 437 191 Q 460 221 475 243 L 438 268 Q 432 258 424 246 Q 415 234 406 221 L 337 226 V 435 Q 337 450 342 454 Q 347 459 364 459 Q 369 459 379 459 Q 389 459 402 459 Q 414 459 425 459 Q 436 459 442 459 Q 454 459 460 451 Q 466 444 469 422 Q 471 400 472 356 Q 480 362 492 367 Q 503 372 512 374 Q 509 423 503 450 Q 497 477 484 488 Q 470 498 445 498 Q 441 498 429 498 Q 429 498 402 498 Q 388 498 376 498 Q 364 498 360 498 Q 335 498 320 493 Q 306 487 300 474 Q 295 460 295 435 V 229 L 211 236 Q 208 290 199 333 Q 191 376 171 410 Q 152 445 117 469 Q 82 494 25 511 Q 21 503 14 492 Q 7 482 0 476 Q 52 462 84 440 Q 116 419 134 390 Q 151 362 159 324 Q 166 286 169 240 Q 131 243 110 245 Q 89 247 80 249 Q 70 251 63 254 Z" fill="black" />
  </g>
  <g class="defect" id="01">
    <path d="M 182 57 Q 185 47 215 0" fill="none" stroke="red" stroke-width="3" />
  </g>
  <g class="defect" id="02">
    <path d="M 146 109 Q 150 85 182 57" fill="none" stroke="red" stroke-width="3" />
  </g>
  <g class="defect" id="03">
    <path d="M 429 498 Q 429 498 402 498" fill="none" stroke="red" stroke-width="3" />
  </g>
</svg>