<svg xmlns="http://www.w3.org/2000/svg" width="512" height="512" viewBox="0 0 512 512">
  <g class="glyph">
    <path d="M 225 208 H 268 V 460 Q 268 478 263 488 Q 258 498 245 504 Q 231 510 209 511 Q 188 512 157 512 Q 156 502 151 490 Q 146 478 141 469 Q 166 470 186 470 Q 207 470 214 470 Q 221 469 223 467 Q 242 465 225 460 Z M 114 249 157 260 Q 142 294 122 327 Q 103 360 80 389 Q 58 417 36 439 Q 30 434 19 425 Q 8 416 0 411 Q 34 381 65 338 Q 95 295 114 249 Z M 332 263 368 246 Q 391 271 415 301 Q 439 330 459 359 Q 479 389 490 412 L 451 432 Q 440 409 421 380 Q 387 368 379 319 Q 355 289 332 263 Z M 45 210 Q 43 204 39 190 Q 35 177 32 168 Q 41 167 51 159 Q 62 151 75 139 Q 82 133 96 120 Q 110 106 127 87 Q 145 68 163 45 Q 182 23 197 0 L 239 20 Q 209 59 176 94 Q 143 130 109 159 L 375 144 Q 342 105 311 72 L 348 54 Q 375 80 401 110 Q 427 140 449 169 Q 471 198 484 222 L 445 244 Q 431 217 404 182 Q 299 188 251 192 Q 189 196 152 198 Q 114 201 93 202 Q 72 204 61 206 Q 51 208 45 210 Z" fill="black" />
  </g>
  <g class="defect" id="01">
    <path d="M 421 380 Q 387 368 379 319" fill="none" stroke="red" stroke-width="3" />
  </g>
  <g class="defect" id="02">
    <path d="M 223 467 Q 242 465 225 460" fill="none" stroke="red" stroke-width="3" />
  </g>
  <g class="defect" id="03">
    <path d="M 404 182 Q 299 188 251 192" fill="none" stroke="red" stroke-width="3" />
  </g>
</svg>