<svg xmlns="http://www.w3.org/2000/svg" width="512" height="512" viewBox="0 0 512 512">
  <g class="glyph">
    <path d="M 401 127 H 285 Q 280 187 271 235 Q 261 284 245 324 Q 274 338 310 349 Q 345 361 386 369 Q 391 330 394 271 Q 398 212 401 127 Z M 115 210 Q 130 237 153 260 Q 160 273 208 303 Q 221 268 229 224 Q 237 180 241 127 H 131 Q 111 168 87 203 Q 64 239 38 266 Q 32 261 20 252 Q 8 243 0 239 Q 30 211 55 173 Q 80 135 100 91 Q 121 47 134 0 L 178 9 Q 172 29 165 48 Q 157 67 150 86 H 445 Q 445 86 445 95 Q 445 104 444 108 Q 440 202 437 268 Q 433 333 428 376 Q 448 379 469 381 Q 490 383 512 385 Q 506 393 499 405 Q 492 417 487 426 Q 470 424 454 423 Q 438 421 423 418 Q 419 443 413 458 Q 408 473 402 481 Q 393 493 383 498 Q 373 503 359 504 Q 346 505 326 505 Q 306 504 284 504 Q 284 494 280 483 Q 277 471 271 462 Q 295 464 314 464 Q 334 465 342 465 Q 357 465 364 455 Q 373 446 380 411 Q 336 401 298 389 Q 260 376 228 360 Q 214 428 152 449 Q 106 485 35 509 Q 31 503 22 492 Q 12 481 5 475 Q 75 454 120 421 Q 165 388 192 339 Q 156 317 130 289 Q 105 262 87 231 Z" fill="black" />
  </g>
  <g class="defect" id="01">
    <path d="M 153 260 Q 160 273 208 303" fill="none" stroke="red" stroke-width="3" />
  </g>
  <g class="defect" id="02">
    <path d="M 228 360 Q 214 428 152 449" fill="none" stroke="red" stroke-width="3" />
  </g>
</svg>