<svg xmlns="http://www.w3.org/2000/svg" width="512" height="512" viewBox="0 0 512 512">
  <g class="glyph">
    <path d="M 82 51 V 157 H 179 V 51 Z M 44 18 H 219 V 191 H 44 Z M 320 214 Q 339 236 369 255 Q 400 274 437 288 Q 473 302 512 309 Q 505 315 497 326 Q 489 337 485 345 Q 464 339 443 332 Q 423 324 403 315 L 403 324 Q 398 370 392 400 Q 387 430 380 447 Q 374 464 366 471 Q 358 478 349 481 Q 340 484 328 485 Q 328 486 298 486 Q 278 485 256 484 Q 255 476 252 466 Q 249 455 245 448 Q 266 450 285 450 Q 304 451 312 451 Q 320 451 325 450 Q 330 449 333 446 Q 341 439 348 415 Q 355 390 360 339 H 239 Q 226 384 199 414 Q 173 443 133 461 Q 94 479 41 490 Q 39 484 33 474 Q 27 463 22 458 Q 92 447 137 420 Q 182 393 197 339 H 102 V 310 Q 61 331 21 345 Q 19 339 12 328 Q 5 317 0 312 Q 34 301 69 287 Q 103 272 132 254 Q 162 236 181 214 L 213 228 Q 194 250 167 270 Q 141 289 110 306 H 386 Q 356 289 331 269 Q 307 249 289 226 Z M 451 20 479 51 Q 444 68 400 83 Q 356 99 314 111 V 155 Q 300 178 319 171 Q 325 175 345 175 Q 350 175 362 175 Q 375 175 389 175 Q 404 175 417 175 Q 430 175 436 175 Q 448 175 453 170 Q 459 166 461 152 Q 464 138 465 110 Q 472 115 482 119 Q 493 123 501 125 Q 499 159 493 178 Q 487 196 474 203 Q 462 210 439 210 Q 435 210 421 210 Q 407 210 390 210 Q 374 210 360 210 Q 346 210 342 210 Q 331 210 301 206 Q 286 201 280 189 Q 275 177 275 155 V 0 H 314 V 76 Q 352 64 389 49 Q 426 34 451 20 Z" fill="black" />
  </g>
  <g class="defect" id="01">
    <path d="M 328 485 Q 328 486 298 486" fill="none" stroke="red" stroke-width="3" />
  </g>
  <g class="defect" id="02">
    <path d="M 314 155 Q 300 178 319 171" fill="none" stroke="red" stroke-width="3" />
  </g>
  <g class="defect" id="03">
    <path d="M 342 210 Q 331 210 301 206" fill="none" stroke="red" stroke-width="3" />
  </g>
</svg>