<svg xmlns="http://www.w3.org/2000/svg" width="512" height="512" viewBox="0 0 512 512">
  <g class="glyph">
    <path d="M 391 21 432 28 Q 422 80 403 125 Q 422 144 443 164 Q 445 185 481 205 Q 500 224 511 239 L 481 270 Q 471 255 456 237 Q 440 219 422 199 Q 404 179 385 162 Q 370 191 351 215 Q 332 240 309 260 Q 305 255 296 246 Q 274 238 280 233 V 299 H 473 V 340 H 280 V 448 H 512 V 487 H 9 V 448 H 237 V 340 H 49 V 299 H 237 V 0 H 280 V 227 Q 322 192 350 139 Q 378 86 391 21 Z M 116 19 158 26 Q 148 75 132 119 Q 148 135 165 152 Q 182 169 197 186 Q 212 202 222 215 L 192 245 Q 180 228 159 204 Q 137 179 116 157 Q 99 191 79 220 Q 58 250 33 273 Q 28 266 18 257 Q 7 248 0 243 Q 45 206 73 148 Q 102 90 116 19 Z" fill="black" />
  </g>
  <g class="defect" id="01">
    <path d="M 296 246 Q 274 238 280 233" fill="none" stroke="red" stroke-width="3" />
  </g>
  <g class="defect" id="02">
    <path d="M 443 164 Q 445 185 481 205" fill="none" stroke="red" stroke-width="3" />
  </g>
</svg>