<svg xmlns="http://www.w3.org/2000/svg" width="512" height="512" viewBox="0 0 512 512">
  <g class="glyph">
    <path d="M 28 0 H 234 V 185 H 197 V 33 H 64 V 185 H 28 Z M 277 1 H 486 V 186 H 447 V 34 H 314 V 186 H 277 Z M 356 346 H 188 Q 179 358 170 370 Q 160 381 152 391 Q 185 398 218 404 Q 250 411 282 418 Q 331 391 356 346 Z M 82 414 Q 95 399 109 382 Q 124 364 138 346 H 1 V 308 H 165 Q 172 297 179 286 Q 185 276 191 265 L 233 277 Q 229 284 224 292 Q 219 300 214 308 H 509 V 346 H 404 Q 379 398 333 431 Q 381 443 423 455 Q 465 468 498 480 L 462 512 Q 429 499 384 485 Q 339 471 287 458 Q 238 481 171 493 Q 104 506 17 511 Q 13 491 2 475 Q 71 472 126 464 Q 181 457 224 443 Q 191 435 155 428 Q 119 421 82 414 Z M 114 68 H 149 Q 148 106 144 136 Q 140 166 131 190 L 145 174 Q 161 183 179 195 Q 197 206 214 217 Q 230 228 241 238 L 219 265 Q 209 255 193 244 Q 178 233 160 221 Q 143 210 126 200 Q 113 229 88 249 Q 62 269 20 282 Q 3 286 11 267 Q 5 258 0 254 Q 36 243 57 228 Q 79 213 91 191 Q 103 169 107 139 Q 112 108 114 68 Z M 364 69 H 400 Q 399 105 395 134 Q 392 163 384 187 L 390 180 Q 410 190 431 204 Q 452 218 471 231 Q 490 245 503 255 L 481 282 Q 470 271 453 258 Q 435 245 415 231 Q 395 217 377 205 Q 363 233 338 251 Q 314 270 273 282 Q 271 276 265 267 Q 259 259 254 254 Q 289 243 310 228 Q 332 214 343 192 Q 355 170 359 140 Q 363 110 364 69 Z" fill="black" />
  </g>
  <g class="defect" id="01">
    <path d="M 20 282 Q 3 286 11 267" fill="none" stroke="red" stroke-width="3" />
  </g>
</svg>