<svg xmlns="http://www.w3.org/2000/svg" width="512" height="512" viewBox="0 0 512 512">
  <g class="glyph">
    <path d="M 216 268 Q 241 255 266 238 Q 292 221 313 203 H 91 V 164 H 355 L 364 161 L 393 183 Q 367 210 332 236 Q 296 263 260 282 V 302 H 476 V 342 H 260 V 462 Q 260 480 254 490 Q 249 500 234 505 Q 220 510 197 511 Q 174 512 138 512 Q 136 503 131 491 Q 126 479 121 471 Q 148 471 172 471 Q 196 472 203 472 Q 200 460 214 469 Q 216 466 216 461 V 342 H 0 V 302 H 216 Z M 196 13 237 0 Q 248 14 258 31 Q 268 48 273 61 H 471 V 176 H 428 V 101 H 47 V 176 H 6 V 61 H 224 Q 213 35 196 13 Z" fill="black" />
  </g>
  <g class="defect" id="01">
    <path d="M 203 472 Q 200 460 214 469" fill="none" stroke="red" stroke-width="3" />
  </g>
</svg>