<svg xmlns="http://www.w3.org/2000/svg" width="512" height="512" viewBox="0 0 512 512">
  <g class="glyph">
    <path d="M 132 368 H 174 V 456 Q 174 467 180 470 Q 187 474 211 474 Q 216 474 231 474 Q 245 474 263 474 Q 299 474 297 474 Q 313 474 320 474 Q 343 486 340 470 Q 346 466 349 454 Q 352 442 353 416 Q 360 421 371 425 Q 382 429 391 431 Q 388 464 381 481 Q 375 498 362 505 Q 348 512 324 512 Q 320 512 308 512 Q 297 512 281 512 Q 266 512 250 512 Q 235 512 224 512 Q 212 512 208 512 Q 178 512 161 507 Q 145 502 138 490 Q 132 478 132 457 Z M 385 381 420 365 Q 437 382 454 402 Q 471 423 486 443 Q 500 463 508 479 L 470 497 Q 463 482 449 461 Q 435 440 418 420 Q 412 413 385 381 Z M 68 370 104 385 Q 92 414 76 447 Q 59 479 36 501 L 0 480 Q 23 460 40 429 Q 58 398 68 370 Z M 231 0 H 273 V 83 H 426 V 20 H 469 V 120 H 36 V 20 H 77 V 83 H 231 Z M 53 152 H 448 V 339 H 228 Q 255 354 282 374 Q 308 394 323 411 L 295 435 Q 285 423 269 410 Q 253 396 233 382 Q 214 369 196 359 L 218 339 H 53 Z M 93 261 V 307 H 230 V 261 Z M 272 261 V 307 H 406 V 261 Z M 93 185 V 229 H 230 V 185 Z M 272 185 V 229 H 406 V 185 Z" fill="black" />
  </g>
  <g class="defect" id="01">
    <path d="M 418 420 Q 412 413 385 381" fill="none" stroke="red" stroke-width="3" />
  </g>
  <g class="defect" id="02">
    <path d="M 320 474 Q 343 486 340 470" fill="none" stroke="red" stroke-width="3" />
  </g>
  <g class="defect" id="03">
    <path d="M 263 474 Q 299 474 297 474" fill="none" stroke="red" stroke-width="3" />
  </g>
</svg>