<svg xmlns="http://www.w3.org/2000/svg" width="512" height="512" viewBox="0 0 512 512">
  <g class="glyph">
    <path d="M 284 159 Q 315 155 347 150 Q 380 145 409 139 Q 439 132 459 124 L 481 157 Q 449 168 406 175 Q 363 183 322 188 V 264 H 498 V 301 H 435 V 511 H 396 V 301 H 321 Q 320 335 315 373 Q 309 410 297 446 Q 284 483 261 512 Q 256 507 246 500 Q 236 493 230 490 Q 266 445 266 422 Q 278 385 281 347 Q 284 309 284 278 Z M 226 0 H 269 V 74 H 425 V 14 H 468 V 109 H 27 V 14 H 69 V 74 H 226 Z M 0 388 133 374 V 315 H 67 Q 31 315 22 324 Q 21 317 16 305 Q 12 293 9 285 Q 16 283 23 275 Q 31 267 38 253 Q 59 247 51 232 Q 60 217 69 197 H 2 V 162 H 86 Q 92 149 97 136 Q 102 123 107 109 L 148 121 L 130 162 H 258 V 197 H 113 Q 89 243 64 280 H 133 V 227 H 172 V 280 H 259 V 315 H 172 V 369 L 260 359 L 261 394 L 172 406 V 511 H 133 V 411 L 4 428 Z" fill="black" />
  </g>
  <g class="defect" id="01">
    <path d="M 230 490 Q 266 445 266 422" fill="none" stroke="red" stroke-width="3" />
  </g>
  <g class="defect" id="02">
    <path d="M 38 253 Q 59 247 51 232" fill="none" stroke="red" stroke-width="3" />
  </g>
</svg>