<svg xmlns="http://www.w3.org/2000/svg" width="512" height="512" viewBox="0 0 512 512">
  <g class="glyph">
    <path d="M 434 24 473 36 Q 455 68 432 97 Q 409 127 382 153 Q 356 178 329 198 Q 325 192 315 183 Q 286 184 299 167 Q 338 142 375 104 Q 411 66 434 24 Z M 236 512 Q 234 505 229 494 Q 224 484 219 477 Q 226 474 235 465 Q 244 457 244 440 V 256 H 194 V 215 H 244 V 11 H 284 V 215 H 496 V 256 H 371 Q 383 301 402 341 Q 421 382 446 414 Q 472 446 503 465 Q 496 470 487 480 Q 479 490 474 498 Q 423 462 388 398 Q 352 335 333 256 H 284 V 446 L 371 414 Q 371 423 372 434 Q 373 445 375 452 Q 332 469 306 479 Q 280 490 267 496 Q 253 502 246 506 Q 239 509 236 512 Z M 0 105 H 72 V 0 H 109 V 105 H 177 V 351 Q 177 363 175 372 Q 173 381 165 386 Q 158 390 147 391 Q 135 393 119 393 Q 119 385 116 374 Q 130 363 109 356 Q 134 357 140 356 Q 145 356 145 351 V 142 H 109 V 509 H 72 V 142 H 34 V 396 H 0 Z" fill="black" />
  </g>
  <g class="defect" id="01">
    <path d="M 116 374 Q 130 363 109 356" fill="none" stroke="red" stroke-width="3" />
  </g>
  <g class="defect" id="02">
    <path d="M 315 183 Q 286 184 299 167" fill="none" stroke="red" stroke-width="3" />
  </g>
</svg>