<svg xmlns="http://www.w3.org/2000/svg" width="512" height="512" viewBox="0 0 512 512">
  <g class="glyph">
    <path d="M 212 348 246 330 Q 258 345 272 362 Q 285 379 296 395 Q 306 412 312 425 L 277 446 Q 272 432 261 415 Q 250 398 238 380 Q 225 363 212 348 Z M 124 0 162 15 Q 147 39 125 63 Q 103 87 78 109 Q 41 131 30 147 Q 26 140 19 130 Q 13 119 8 113 Q 30 99 52 80 Q 74 61 93 40 Q 112 19 124 0 Z M 317 2 H 358 V 70 H 483 V 108 H 358 V 177 H 512 V 215 H 435 V 277 H 508 V 314 H 435 V 454 Q 435 472 430 482 Q 425 491 412 496 Q 399 501 378 502 Q 356 503 324 503 Q 323 494 319 483 Q 314 472 310 463 Q 335 464 355 464 Q 376 464 382 464 Q 394 464 394 454 V 314 H 170 V 277 H 394 V 215 H 164 V 177 H 317 V 108 H 196 V 70 H 317 Z M 133 121 170 136 Q 160 153 149 170 Q 138 187 125 203 V 503 H 86 V 250 Q 70 267 54 283 Q 38 298 22 311 Q 34 304 13 291 Q 5 278 0 271 Q 25 252 49 228 Q 74 204 96 177 Q 118 149 133 121 Z" fill="black" />
  </g>
  <g class="defect" id="01">
    <path d="M 22 311 Q 34 304 13 291" fill="none" stroke="red" stroke-width="3" />
  </g>
  <g class="defect" id="02">
    <path d="M 78 109 Q 41 131 30 147" fill="none" stroke="red" stroke-width="3" />
  </g>
</svg>