<svg xmlns="http://www.w3.org/2000/svg" width="512" height="512" viewBox="0 0 512 512">
  <g class="glyph">
    <path d="M 76 1 H 116 V 510 H 76 Z M 25 107 57 112 Q 56 134 53 161 Q 49 188 44 214 Q 39 240 33 262 L 0 250 Q 7 232 12 207 Q 1 164 20 155 Q 23 129 25 107 Z M 123 91 153 83 Q 159 99 164 118 Q 170 137 174 154 Q 178 171 180 184 L 147 196 Q 145 176 138 146 Q 131 117 123 91 Z M 264 0 305 8 Q 300 29 294 49 Q 288 70 281 90 H 512 V 129 H 342 V 206 H 498 V 244 H 342 V 330 H 503 V 367 H 342 V 510 H 302 V 129 H 267 Q 254 161 239 190 Q 224 219 207 242 Q 203 235 193 226 Q 184 216 177 211 Q 206 172 229 116 Q 251 60 264 0 Z" fill="black" />
  </g>
  <g class="defect" id="01">
    <path d="M 12 207 Q 1 164 20 155" fill="none" stroke="red" stroke-width="3" />
  </g>
</svg>