<svg xmlns="http://www.w3.org/2000/svg" width="512" height="512" viewBox="0 0 512 512">
  <g class="glyph">
    <path d="M 146 351 H 186 V 449 Q 186 459 193 462 Q 199 466 221 466 Q 227 466 240 466 Q 254 466 270 466 Q 287 466 301 466 Q 316 466 323 466 Q 335 466 341 462 Q 347 457 350 444 Q 353 431 354 403 Q 361 409 371 413 Q 382 417 391 419 Q 388 453 382 471 Q 376 490 363 497 Q 349 504 326 504 Q 321 504 305 504 Q 290 504 272 504 Q 253 504 238 504 Q 223 504 219 504 Q 190 504 174 499 Q 158 494 152 482 Q 146 470 146 449 Z M 186 328 214 305 Q 232 314 250 326 Q 269 338 285 351 Q 301 363 311 375 L 281 401 Q 272 389 256 376 Q 240 363 222 350 Q 204 338 186 328 Z M 375 366 410 347 Q 430 363 450 384 Q 470 405 487 425 Q 503 446 512 465 L 475 486 Q 467 468 451 447 Q 436 426 416 405 Q 396 383 375 366 Z M 75 355 112 368 Q 102 402 84 435 Q 66 468 35 489 L 0 466 Q 29 447 48 417 Q 66 387 75 355 Z M 271 0 307 8 Q 303 22 299 35 Q 294 48 288 61 H 494 Q 494 61 493 68 Q 493 75 493 79 Q 488 156 483 202 Q 479 249 473 273 Q 467 297 459 306 Q 452 314 444 318 Q 436 321 425 322 Q 417 323 402 323 Q 388 323 372 322 Q 371 314 368 304 Q 366 294 361 286 Q 377 288 390 288 Q 402 289 408 289 Q 415 289 419 287 Q 422 286 426 282 Q 431 275 436 256 Q 441 237 445 198 Q 450 160 453 97 H 420 Q 401 168 371 226 Q 341 284 300 325 Q 296 321 287 313 Q 278 305 272 301 Q 311 266 339 213 Q 367 160 383 97 H 346 Q 327 149 299 195 Q 270 240 238 272 Q 233 268 225 261 Q 233 236 210 250 Q 241 222 267 182 Q 293 142 310 97 H 271 Q 260 117 248 134 Q 236 151 223 165 Q 218 161 208 154 Q 199 146 192 142 Q 219 117 239 79 Q 259 42 271 0 Z M 5 201 102 184 V 108 H 57 Q 51 127 45 144 Q 51 161 31 175 Q 26 171 17 165 Q 7 159 1 156 Q 16 129 26 92 Q 36 55 41 17 L 76 23 Q 73 36 71 48 Q 69 60 66 72 H 102 V 0 H 141 V 72 H 205 V 108 H 141 V 177 L 210 164 L 212 199 L 141 213 V 327 H 102 V 221 L 11 239 Z" fill="black" />
  </g>
  <g class="defect" id="01">
    <path d="M 225 261 Q 233 236 210 250" fill="none" stroke="red" stroke-width="3" />
  </g>
  <g class="defect" id="02">
    <path d="M 45 144 Q 51 161 31 175" fill="none" stroke="red" stroke-width="3" />
  </g>
</svg>