<svg xmlns="http://www.w3.org/2000/svg" width="512" height="512" viewBox="0 0 512 512">
  <g class="glyph">
    <path d="M 78 1 H 118 V 116 H 175 V 155 H 118 V 259 L 176 241 L 182 279 L 118 300 V 457 Q 118 474 113 484 Q 109 493 99 498 Q 89 503 72 505 Q 55 506 29 506 Q 28 499 24 487 Q 21 476 17 467 Q 35 467 49 467 Q 63 467 68 467 Q 78 467 78 457 V 313 L 11 334 L 0 294 L 78 271 V 155 H 8 V 116 H 78 Z M 271 0 H 312 Q 312 63 312 118 H 437 Q 434 232 434 310 Q 434 388 440 428 Q 445 467 461 467 Q 469 467 473 451 Q 476 435 477 394 Q 484 399 494 404 Q 504 410 512 412 Q 522 468 504 469 Q 498 490 487 498 Q 476 506 459 506 Q 432 506 418 483 Q 404 459 399 414 Q 394 368 394 304 Q 394 239 395 156 H 311 Q 309 191 306 222 Q 303 253 298 282 Q 325 297 349 313 Q 373 328 389 341 L 364 374 Q 351 363 331 349 Q 312 336 290 322 Q 257 382 245 427 Q 215 473 162 509 Q 159 503 149 492 Q 140 481 133 475 Q 184 444 213 401 Q 242 358 255 299 Q 238 288 221 278 Q 204 268 188 259 L 211 231 L 263 260 Q 266 236 269 210 Q 271 184 271 156 H 187 V 118 H 272 Q 273 91 272 61 Q 272 32 271 0 Z" fill="black" />
  </g>
  <g class="defect" id="01">
    <path d="M 290 322 Q 257 382 245 427" fill="none" stroke="red" stroke-width="3" />
  </g>
  <g class="defect" id="02">
    <path d="M 512 412 Q 522 468 504 469" fill="none" stroke="red" stroke-width="3" />
  </g>
</svg>