<svg xmlns="http://www.w3.org/2000/svg" width="512" height="512" viewBox="0 0 512 512">
  <g class="glyph">
    <path d="M 79 0 H 118 V 503 H 79 Z M 28 101 60 106 Q 59 128 55 155 Q 51 183 45 209 Q 40 236 32 256 L 0 245 Q 8 226 13 201 Q 19 176 23 150 Q 27 124 28 101 Z M 123 96 150 85 Q 159 102 167 120 Q 175 139 181 156 Q 188 174 190 187 L 161 201 Q 158 187 152 169 Q 146 151 139 132 Q 131 113 123 96 Z M 270 195 302 207 Q 280 232 249 255 Q 218 277 185 291 L 160 263 Q 189 252 219 234 Q 248 217 270 195 Z M 364 215 385 193 Q 405 203 427 216 Q 450 229 471 242 Q 491 255 504 265 L 483 291 Q 470 281 450 267 Q 429 254 407 240 Q 385 226 364 215 Z M 202 24 H 237 V 153 H 432 V 24 H 469 V 187 H 202 Z M 379 9 408 22 Q 391 52 366 78 Q 380 89 393 99 Q 406 109 415 119 L 391 141 Q 374 123 344 100 Q 327 114 309 127 Q 290 139 270 149 Q 266 144 260 138 Q 254 132 249 128 Q 300 123 319 82 Q 304 69 288 58 Q 271 47 256 38 L 278 19 Q 293 27 310 38 Q 326 49 341 61 Q 364 36 379 9 Z M 289 245 328 251 Q 323 261 317 270 Q 311 280 304 289 H 424 L 430 288 L 455 299 Q 441 337 419 367 Q 398 397 370 420 Q 400 437 436 449 Q 472 461 512 467 Q 491 473 499 482 Q 493 492 489 500 Q 446 491 409 477 Q 371 462 339 442 Q 304 464 263 478 Q 222 493 178 502 Q 176 494 170 485 Q 165 476 160 470 Q 200 463 238 451 Q 276 438 309 420 Q 272 390 248 351 Q 220 375 185 395 Q 181 388 173 380 Q 166 373 160 369 Q 220 358 241 310 Q 274 276 289 245 Z M 405 322 H 277 L 272 328 Q 284 348 301 366 Q 318 385 338 400 Q 381 368 405 322 Z" fill="black" />
  </g>
  <g class="defect" id="01">
    <path d="M 512 467 Q 491 473 499 482" fill="none" stroke="red" stroke-width="3" />
  </g>
  <g class="defect" id="02">
    <path d="M 249 128 Q 300 123 319 82" fill="none" stroke="red" stroke-width="3" />
  </g>
  <g class="defect" id="03">
    <path d="M 160 369 Q 220 358 241 310" fill="none" stroke="red" stroke-width="3" />
  </g>
</svg>