<svg xmlns="http://www.w3.org/2000/svg" width="512" height="512" viewBox="0 0 512 512">
  <g class="glyph">
    <path d="M 76 3 H 115 V 113 H 174 V 152 H 115 V 260 L 169 242 L 175 280 L 115 300 V 456 Q 115 473 111 482 Q 107 492 96 496 Q 86 501 69 503 Q 53 504 27 504 Q 6 476 23 485 Q 19 474 15 466 Q 33 466 48 466 Q 62 466 67 466 Q 76 466 76 456 V 313 L 10 335 L 0 294 L 76 271 V 152 H 8 V 113 H 76 Z M 184 337 H 323 V 284 L 363 285 V 337 H 512 V 376 H 363 V 508 H 323 V 376 H 184 Z M 408 122 446 129 Q 442 145 437 161 Q 432 176 426 191 Q 447 207 467 226 Q 488 244 500 259 L 476 288 Q 466 275 448 257 Q 430 240 410 224 Q 386 259 390 258 Q 379 275 366 288 L 363 285 Q 358 279 351 271 Q 344 264 338 260 Q 363 235 381 198 Q 399 162 408 122 Z M 307 11 344 0 Q 352 16 361 35 Q 369 54 375 68 H 501 V 107 H 194 V 68 H 331 Q 326 55 319 40 Q 313 24 307 11 Z M 264 120 301 128 Q 292 162 278 192 Q 294 205 310 219 Q 326 232 335 242 L 314 271 Q 305 261 291 248 Q 277 235 263 223 Q 241 265 210 296 Q 206 290 197 281 Q 188 272 182 268 Q 210 242 231 203 Q 252 164 264 120 Z" fill="black" />
  </g>
  <g class="defect" id="01">
    <path d="M 27 504 Q 6 476 23 485" fill="none" stroke="red" stroke-width="3" />
  </g>
  <g class="defect" id="02">
    <path d="M 410 224 Q 386 259 390 258" fill="none" stroke="red" stroke-width="3" />
  </g>
</svg>