<svg xmlns="http://www.w3.org/2000/svg" width="512" height="512" viewBox="0 0 512 512">
  <g class="glyph">
    <path d="M 361 174 385 152 Q 403 163 424 179 Q 445 195 464 211 Q 484 227 497 242 L 471 267 Q 459 254 441 237 Q 422 221 401 204 Q 379 187 361 174 Z M 274 153 310 168 Q 295 186 276 205 Q 257 224 238 241 Q 219 258 202 272 Q 197 266 188 257 Q 179 248 173 243 Q 200 226 227 201 Q 254 177 274 153 Z M 273 317 268 322 Q 279 342 296 360 Q 313 379 335 396 Q 358 380 376 360 Q 395 340 408 317 Z M 296 231 332 243 Q 325 254 317 264 Q 310 274 302 285 H 428 L 436 283 L 462 296 Q 447 334 423 364 Q 399 395 369 419 Q 380 435 434 449 Q 470 463 512 471 Q 505 477 499 487 Q 492 497 488 505 Q 443 495 405 478 Q 366 461 335 441 Q 297 464 253 479 Q 209 494 163 503 Q 160 496 154 486 Q 148 476 142 469 Q 185 462 227 449 Q 268 436 303 416 Q 284 400 269 382 Q 254 365 243 347 Q 215 372 188 390 Q 183 385 174 376 Q 166 367 159 362 Q 198 339 235 304 Q 272 269 296 231 Z M 207 155 Q 205 149 202 138 Q 198 126 195 118 Q 202 117 210 112 Q 217 107 226 98 Q 232 92 246 77 Q 260 62 276 42 Q 293 21 307 0 L 346 13 Q 326 40 304 64 Q 283 89 261 110 L 416 101 Q 404 86 392 71 Q 363 71 369 45 L 399 28 Q 415 46 434 67 Q 452 88 469 107 Q 485 127 496 142 L 464 162 L 443 134 Q 383 138 343 141 Q 286 154 278 146 Q 253 148 239 149 Q 226 151 218 152 Q 211 154 207 155 Z M 73 5 H 111 V 114 H 170 V 152 H 111 V 259 L 165 242 L 170 279 L 111 299 V 453 Q 111 470 107 479 Q 103 489 93 493 Q 84 498 67 499 Q 51 501 24 501 Q 24 493 21 482 Q 17 471 13 463 Q 31 464 45 464 Q 59 464 64 463 Q 73 463 73 453 V 312 L 11 333 L 0 293 Q 16 289 34 283 Q 53 278 73 271 V 152 H 8 V 114 H 73 Z" fill="black" />
  </g>
  <g class="defect" id="01">
    <path d="M 392 71 Q 363 71 369 45" fill="none" stroke="red" stroke-width="3" />
  </g>
  <g class="defect" id="02">
    <path d="M 369 419 Q 380 435 434 449" fill="none" stroke="red" stroke-width="3" />
  </g>
  <g class="defect" id="03">
    <path d="M 343 141 Q 286 154 278 146" fill="none" stroke="red" stroke-width="3" />
  </g>
</svg>