<svg xmlns="http://www.w3.org/2000/svg" width="512" height="512" viewBox="0 0 512 512">
  <g class="glyph">
    <path d="M 325 138 356 152 350 161 Q 385 196 426 220 Q 467 245 512 264 Q 505 270 498 278 Q 491 287 487 295 Q 450 277 415 255 V 283 H 244 V 260 Q 229 270 213 279 Q 197 288 181 296 Q 177 290 170 282 Q 164 274 158 269 Q 190 254 221 234 Q 238 214 280 190 Q 307 165 325 138 Z M 260 249 H 406 Q 386 235 367 220 Q 347 204 329 185 Q 314 202 296 219 Q 279 235 260 249 Z M 220 330 H 454 V 505 H 415 V 481 H 258 V 507 H 220 Z M 258 447 H 415 V 364 H 258 Z M 227 0 261 8 Q 258 19 254 29 Q 251 39 246 49 H 330 V 84 H 270 Q 278 97 285 110 Q 292 124 296 133 L 264 149 Q 260 136 250 118 Q 241 100 230 84 H 229 Q 220 101 210 117 Q 200 133 189 146 Q 184 141 175 135 Q 165 129 159 125 Q 181 101 199 68 Q 217 35 227 0 Z M 380 0 415 9 Q 395 19 408 29 Q 404 39 400 49 H 510 V 84 H 440 Q 447 97 453 110 Q 459 124 462 134 L 430 148 Q 427 135 419 117 Q 411 100 402 84 H 383 Q 366 115 346 139 Q 341 135 332 128 Q 323 121 317 118 Q 338 96 354 65 Q 371 33 380 0 Z M 69 2 H 106 V 112 H 154 V 150 H 106 V 260 L 150 246 L 156 284 L 106 301 V 453 Q 106 485 88 493 Q 78 498 62 500 Q 45 502 20 501 Q 19 493 16 482 Q 13 472 9 463 Q 26 464 40 464 Q 55 464 59 463 Q 69 463 69 453 V 313 L 10 333 L 0 292 L 69 272 V 150 H 7 V 112 H 69 Z" fill="black" />
  </g>
  <g class="defect" id="01">
    <path d="M 221 234 Q 238 214 280 190" fill="none" stroke="red" stroke-width="3" />
  </g>
  <g class="defect" id="02">
    <path d="M 415 9 Q 395 19 408 29" fill="none" stroke="red" stroke-width="3" />
  </g>
</svg>