<svg xmlns="http://www.w3.org/2000/svg" width="512" height="512" viewBox="0 0 512 512">
  <g class="glyph">
    <path d="M 114 110 V 158 H 416 V 110 Z M 114 33 V 80 H 416 V 33 Z M 73 0 H 459 V 191 H 73 Z M 14 232 H 232 V 270 H 143 V 397 L 241 378 L 244 415 Q 202 424 160 433 Q 117 441 78 449 Q 39 456 7 462 L 0 423 L 103 405 V 270 H 14 Z M 335 200 H 377 L 373 262 H 512 Q 512 262 512 269 Q 512 276 511 280 Q 509 350 505 392 Q 502 435 497 457 Q 492 479 484 488 Q 491 497 468 500 Q 459 504 446 505 Q 435 506 415 506 Q 395 506 372 505 Q 371 496 368 485 Q 345 473 360 465 Q 382 467 401 468 Q 419 468 427 468 Q 434 468 439 467 Q 443 465 447 461 Q 452 456 456 439 Q 460 422 462 388 Q 465 355 468 301 H 370 Q 363 351 348 391 Q 332 431 302 461 Q 271 490 219 510 Q 216 502 209 493 Q 202 484 195 478 Q 241 461 268 437 Q 295 412 308 378 Q 322 344 328 301 H 236 V 262 H 332 Q 333 248 333 232 Q 334 217 335 200 Z" fill="black" />
  </g>
  <g class="defect" id="01">
    <path d="M 484 488 Q 491 497 468 500" fill="none" stroke="red" stroke-width="3" />
  </g>
  <g class="defect" id="02">
    <path d="M 368 485 Q 345 473 360 465" fill="none" stroke="red" stroke-width="3" />
  </g>
</svg>