<svg xmlns="http://www.w3.org/2000/svg" width="512" height="512" viewBox="0 0 512 512">
  <g class="glyph">
    <path d="M 90 0 H 127 V 115 H 191 V 153 H 127 V 194 Q 133 201 144 215 Q 154 229 165 245 Q 176 261 185 274 Q 194 287 198 293 L 175 324 Q 168 310 155 287 Q 141 264 127 242 V 494 H 90 V 241 Q 76 286 58 326 Q 40 367 21 393 Q 18 385 12 375 Q 5 365 0 358 Q 17 335 34 301 Q 50 267 64 229 Q 77 190 86 153 H 11 V 115 H 90 Z M 210 53 240 62 Q 279 55 318 48 Q 357 40 392 31 Q 426 22 450 11 L 483 39 Q 452 64 445 52 Q 447 116 451 176 Q 454 237 462 291 Q 469 344 481 387 Q 493 430 512 459 Q 504 464 495 475 Q 486 486 480 494 Q 453 450 439 383 Q 424 317 418 235 Q 412 153 409 62 Q 379 70 344 76 H 349 V 490 H 311 V 82 L 248 93 V 182 Q 248 215 246 255 Q 243 295 236 337 Q 210 395 215 419 Q 201 460 177 496 Q 174 490 164 482 Q 154 475 147 472 Q 168 438 181 401 Q 194 364 200 326 Q 207 287 208 250 Q 210 214 210 181 Z" fill="black" />
  </g>
  <g class="defect" id="01">
    <path d="M 483 39 Q 452 64 445 52" fill="none" stroke="red" stroke-width="3" />
  </g>
  <g class="defect" id="02">
    <path d="M 236 337 Q 210 395 215 419" fill="none" stroke="red" stroke-width="3" />
  </g>
</svg>