<svg xmlns="http://www.w3.org/2000/svg" width="512" height="512" viewBox="0 0 512 512">
  <g class="glyph">
    <path d="M 366 258 H 373 L 382 257 L 412 278 Q 410 281 403 284 Q 323 319 270 344 Q 218 369 187 386 Q 156 402 141 413 Q 126 424 122 431 Q 117 438 117 443 Q 117 454 131 458 Q 144 463 166 463 H 413 Q 427 463 435 458 Q 443 454 447 438 Q 451 423 452 391 Q 471 401 493 405 Q 476 446 481 467 Q 472 488 455 495 Q 438 502 409 502 H 170 Q 121 502 97 487 Q 73 472 73 446 Q 73 439 76 429 Q 78 420 89 409 Q 100 397 123 381 Q 145 366 185 344 Q 224 323 285 295 H 53 V 259 H 365 Z M 234 0 H 276 V 62 H 474 V 100 H 314 Q 352 135 405 162 Q 458 189 512 203 Q 505 209 497 220 Q 489 230 484 238 Q 446 225 408 206 Q 371 188 337 163 Q 303 139 276 111 V 245 H 234 V 110 Q 208 139 174 164 Q 140 189 102 208 Q 44 213 26 241 Q 22 233 14 223 Q 6 214 0 208 Q 35 198 70 182 Q 105 166 137 145 Q 169 124 193 100 H 38 V 62 H 234 Z" fill="black" />
  </g>
  <g class="defect" id="01">
    <path d="M 493 405 Q 476 446 481 467" fill="none" stroke="red" stroke-width="3" />
  </g>
  <g class="defect" id="02">
    <path d="M 102 208 Q 44 213 26 241" fill="none" stroke="red" stroke-width="3" />
  </g>
</svg>