<svg xmlns="http://www.w3.org/2000/svg" width="512" height="512" viewBox="0 0 512 512">
  <g class="glyph">
    <path d="M 190 367 Q 214 340 247 302 Q 281 264 317 220 Q 353 177 387 133 L 412 167 Q 380 209 346 251 Q 312 294 280 333 Q 247 371 220 403 Z M 43 31 67 0 Q 86 7 107 17 Q 127 27 146 39 Q 165 50 176 60 L 151 95 Q 140 85 122 73 Q 103 62 83 51 Q 62 39 43 31 Z M 0 189 22 156 Q 42 162 63 171 Q 84 180 103 190 Q 122 200 135 209 L 111 246 Q 99 236 81 226 Q 62 215 41 205 Q 20 195 0 189 Z M 19 483 Q 35 461 54 430 Q 73 399 92 365 Q 91 331 128 299 L 159 327 Q 145 357 127 390 Q 109 422 91 454 Q 73 485 55 512 Z M 192 49 H 499 Q 499 49 499 59 Q 499 69 498 73 Q 494 179 491 253 Q 487 326 482 373 Q 477 419 471 445 Q 446 487 455 483 Q 446 495 435 501 Q 424 506 409 507 Q 395 509 373 509 Q 350 509 327 507 Q 326 497 323 484 Q 319 471 313 462 Q 339 465 360 465 Q 382 465 391 465 Q 407 466 415 456 Q 423 448 429 425 Q 434 402 439 359 Q 443 317 447 251 Q 451 185 454 91 H 192 Z" fill="black" />
  </g>
  <g class="defect" id="01">
    <path d="M 471 445 Q 446 487 455 483" fill="none" stroke="red" stroke-width="3" />
  </g>
  <g class="defect" id="02">
    <path d="M 92 365 Q 91 331 128 299" fill="none" stroke="red" stroke-width="3" />
  </g>
</svg>