<svg xmlns="http://www.w3.org/2000/svg" width="512" height="512" viewBox="0 0 512 512">
  <g class="glyph">
    <path d="M 260 239 289 216 Q 309 234 330 256 Q 351 278 369 299 Q 387 321 397 338 L 366 364 Q 355 347 338 325 Q 320 303 300 281 Q 279 258 260 239 Z M 36 114 67 118 Q 66 143 62 170 Q 58 196 51 220 Q 44 244 33 262 L 2 248 Q 12 233 19 211 Q 26 189 31 163 Q 35 138 36 114 Z M 190 91 227 107 Q 213 136 198 168 Q 182 200 169 222 L 141 209 Q 150 193 159 172 Q 168 151 176 130 Q 185 109 190 91 Z M 95 8 H 134 V 192 Q 134 221 132 250 Q 131 279 127 308 Q 136 318 151 334 Q 165 351 181 370 Q 197 388 210 403 Q 223 419 229 426 L 198 459 Q 190 446 176 428 Q 163 410 147 390 Q 117 370 118 353 Q 107 395 87 434 Q 66 472 29 506 Q 24 500 16 491 Q 7 482 0 476 Q 32 447 51 413 Q 70 379 79 343 Q 70 316 92 268 Q 95 230 95 192 Z M 300 0 343 8 Q 331 57 314 101 H 504 Q 504 101 503 110 Q 503 119 503 123 Q 500 217 496 282 Q 493 348 488 390 Q 483 431 477 455 Q 471 478 462 488 Q 454 500 443 505 Q 432 510 418 511 Q 404 512 382 512 Q 360 511 336 510 Q 335 501 331 489 Q 328 478 322 469 Q 348 471 370 472 Q 392 472 402 472 Q 410 472 416 470 Q 421 469 425 463 Q 435 454 441 419 Q 447 385 452 317 Q 457 250 461 140 H 298 Q 286 166 272 190 Q 259 213 244 232 Q 238 227 227 219 Q 215 211 208 207 Q 240 170 263 115 Q 287 61 300 0 Z" fill="black" />
  </g>
  <g class="defect" id="01">
    <path d="M 79 343 Q 70 316 92 268" fill="none" stroke="red" stroke-width="3" />
  </g>
  <g class="defect" id="02">
    <path d="M 147 390 Q 117 370 118 353" fill="none" stroke="red" stroke-width="3" />
  </g>
</svg>