<svg xmlns="http://www.w3.org/2000/svg" width="512" height="512" viewBox="0 0 512 512">
  <g class="glyph">
    <path d="M 199 18 H 234 V 149 H 439 V 18 H 475 V 182 H 199 Z M 261 187 294 200 Q 273 227 245 253 Q 217 279 186 295 L 159 266 Q 187 254 214 232 Q 242 211 261 187 Z M 365 206 387 185 Q 405 197 426 212 Q 447 227 466 241 Q 485 255 497 266 L 475 291 Q 463 279 444 265 Q 425 250 405 234 Q 384 218 365 206 Z M 141 0 170 20 Q 150 56 120 94 Q 144 139 150 187 Q 157 235 157 286 Q 157 325 154 360 Q 152 396 146 423 Q 140 450 129 466 Q 123 473 116 478 Q 109 483 99 484 Q 85 487 69 487 Q 53 488 35 487 Q 34 465 23 446 Q 32 432 59 448 Q 74 448 84 446 Q 95 446 101 437 Q 107 428 112 405 Q 116 383 117 352 Q 119 320 119 285 L 118 255 Q 99 286 75 314 Q 51 343 27 362 Q 23 354 17 344 Q 10 333 4 326 Q 24 312 45 292 Q 51 271 83 246 Q 101 220 113 195 Q 110 177 106 159 Q 101 142 93 125 Q 57 164 23 190 Q 19 181 13 170 Q 6 159 0 152 Q 18 141 37 125 Q 56 108 74 89 Q 63 73 50 56 Q 36 40 18 25 L 46 2 Q 96 44 99 60 Q 112 45 123 30 Q 133 14 141 0 Z M 382 0 412 13 Q 394 43 368 69 Q 385 82 399 94 Q 414 106 424 117 L 400 138 Q 390 128 376 115 Q 362 103 346 90 Q 310 121 270 145 Q 266 141 259 135 Q 253 128 247 125 Q 287 103 322 72 Q 305 59 287 47 Q 268 34 252 24 L 274 4 Q 291 15 309 26 Q 326 38 343 51 Q 368 25 382 0 Z M 289 241 328 248 Q 316 268 300 289 H 424 L 432 287 L 455 298 Q 441 333 419 361 Q 397 389 369 411 Q 433 446 512 459 Q 506 465 499 474 Q 493 483 489 491 Q 406 473 338 432 Q 303 454 261 469 Q 220 484 176 494 Q 174 487 168 478 Q 163 470 157 464 Q 198 456 236 443 Q 274 430 308 411 Q 270 381 245 346 Q 233 355 219 365 Q 206 374 190 382 Q 185 376 178 369 Q 170 361 164 357 Q 210 333 242 301 Q 273 270 289 241 Z M 404 321 H 271 L 268 324 Q 294 362 337 392 Q 358 378 375 360 Q 392 342 404 321 Z" fill="black" />
  </g>
  <g class="defect" id="01">
    <path d="M 45 292 Q 51 271 83 246" fill="none" stroke="red" stroke-width="3" />
  </g>
  <g class="defect" id="02">
    <path d="M 23 446 Q 32 432 59 448" fill="none" stroke="red" stroke-width="3" />
  </g>
  <g class="defect" id="03">
    <path d="M 46 2 Q 96 44 99 60" fill="none" stroke="red" stroke-width="3" />
  </g>
</svg>