<svg xmlns="http://www.w3.org/2000/svg" width="512" height="512" viewBox="0 0 512 512">
  <g class="glyph">
    <path d="M 209 29 244 43 Q 232 60 218 77 Q 204 93 193 105 L 167 93 Q 178 80 190 62 Q 202 43 209 29 Z M 59 32 87 43 Q 81 64 70 85 Q 59 106 39 119 L 12 102 Q 29 91 41 72 Q 53 52 59 32 Z M 456 28 492 42 Q 479 59 464 76 Q 450 93 438 105 L 411 93 Q 423 79 436 61 Q 449 42 456 28 Z M 288 30 317 41 Q 311 63 300 83 Q 289 104 270 117 L 242 100 Q 260 89 271 70 Q 283 51 288 30 Z M 182 399 201 376 Q 217 382 235 390 Q 252 399 268 408 Q 284 416 294 424 L 274 450 Q 264 441 248 432 Q 233 423 215 414 Q 198 405 182 399 Z M 18 197 H 21 Q 18 190 12 181 Q 6 173 0 168 Q 37 158 61 144 Q 84 130 97 110 Q 109 90 115 63 Q 121 36 122 0 H 160 Q 158 29 155 54 Q 151 79 143 100 Q 159 109 176 120 Q 193 132 208 143 Q 223 154 233 163 L 205 190 Q 193 177 172 161 Q 164 145 128 131 Q 114 153 89 170 Q 64 186 27 197 H 491 V 290 H 452 V 232 H 57 V 290 H 18 Z M 354 0 H 393 Q 391 27 388 50 Q 384 73 378 93 Q 399 103 422 117 Q 445 130 466 144 Q 487 157 501 168 L 473 197 Q 461 186 443 174 Q 425 161 404 148 Q 383 135 363 124 Q 349 148 323 165 Q 298 182 259 194 Q 256 187 250 178 Q 243 169 237 163 Q 284 150 308 130 Q 333 109 342 77 Q 352 45 354 0 Z M 61 512 Q 59 505 55 493 Q 50 482 46 475 Q 54 473 62 469 Q 70 465 74 455 Q 77 449 82 431 Q 87 414 92 390 Q 98 366 104 342 Q 110 318 114 299 H 67 V 269 H 436 V 299 H 153 L 143 338 H 390 V 455 Q 390 465 393 468 Q 396 470 406 470 Q 410 470 419 470 Q 428 470 438 470 Q 448 470 452 470 Q 459 470 463 466 Q 476 461 468 447 Q 469 433 470 404 Q 476 408 486 412 Q 496 416 504 418 Q 503 452 498 471 Q 493 489 483 496 Q 474 504 456 504 Q 453 504 441 504 Q 429 504 417 504 Q 405 504 401 504 Q 372 504 361 494 Q 350 484 350 456 V 370 H 135 Q 129 397 122 423 Q 116 450 109 469 L 322 448 Q 320 455 320 465 Q 319 474 319 479 Q 253 486 209 491 Q 164 496 137 499 Q 110 503 95 505 Q 80 507 73 509 Q 66 510 61 512 Z" fill="black" />
  </g>
  <g class="defect" id="01">
    <path d="M 172 161 Q 164 145 128 131" fill="none" stroke="red" stroke-width="3" />
  </g>
  <g class="defect" id="02">
    <path d="M 463 466 Q 476 461 468 447" fill="none" stroke="red" stroke-width="3" />
  </g>
</svg>