<svg xmlns="http://www.w3.org/2000/svg" width="512" height="512" viewBox="0 0 512 512">
  <g class="glyph">
    <path d="M 39 316 H 235 V 238 H 107 V 209 Q 67 238 25 257 Q 21 250 14 241 Q 23 232 0 226 Q 59 203 111 155 Q 99 143 80 127 Q 62 111 45 98 L 71 77 Q 87 89 106 103 Q 124 117 137 130 Q 152 113 165 95 Q 178 77 188 58 H 52 V 22 H 207 L 215 20 L 242 33 Q 224 84 191 126 Q 159 168 119 199 H 394 Q 351 162 318 114 Q 285 66 263 11 L 299 0 Q 312 35 333 69 Q 351 54 369 36 Q 388 18 400 4 L 431 26 Q 413 44 392 62 Q 370 81 351 95 Q 359 106 368 116 Q 377 127 387 137 Q 407 121 428 102 Q 450 82 464 66 L 495 88 Q 476 106 453 125 Q 430 144 409 159 Q 432 179 458 195 Q 468 230 512 222 Q 505 228 497 238 Q 488 249 483 257 Q 463 248 443 235 Q 423 223 406 209 V 238 H 276 V 316 H 472 V 354 H 276 V 495 H 235 V 354 H 39 Z" fill="black" />
  </g>
  <g class="defect" id="01">
    <path d="M 458 195 Q 468 230 512 222" fill="none" stroke="red" stroke-width="3" />
  </g>
  <g class="defect" id="02">
    <path d="M 14 241 Q 23 232 0 226" fill="none" stroke="red" stroke-width="3" />
  </g>
</svg>