<svg xmlns="http://www.w3.org/2000/svg" width="512" height="512" viewBox="0 0 512 512">
  <g class="glyph">
    <path d="M 215 10 H 481 V 51 H 215 Z M 194 463 V 463 Q 193 456 188 442 Q 184 429 179 419 Q 188 417 196 407 Q 204 396 215 380 Q 221 371 235 347 Q 249 323 264 291 Q 280 258 293 224 H 174 V 182 H 512 V 224 H 344 Q 338 285 297 322 Q 271 371 244 411 L 425 395 Q 414 371 402 347 Q 390 323 379 302 L 417 288 Q 433 318 451 352 Q 469 387 484 419 Q 500 450 510 474 L 468 492 Q 447 479 442 431 Q 380 438 338 442 Q 296 446 270 450 Q 255 453 229 455 Q 215 457 207 459 Q 199 461 194 463 Z M 117 156 H 40 V 238 H 117 Z M 117 119 V 39 H 40 V 119 Z M 117 276 H 40 V 360 H 117 Z M 0 0 H 156 V 399 H 40 V 449 H 0 Z" fill="black" />
  </g>
  <g class="defect" id="01">
    <path d="M 270 450 Q 255 453 229 455" fill="none" stroke="red" stroke-width="3" />
  </g>
  <g class="defect" id="02">
    <path d="M 468 492 Q 447 479 442 431" fill="none" stroke="red" stroke-width="3" />
  </g>
  <g class="defect" id="03">
    <path d="M 344 224 Q 338 285 297 322" fill="none" stroke="red" stroke-width="3" />
  </g>
</svg>