<svg xmlns="http://www.w3.org/2000/svg" width="512" height="512" viewBox="0 0 512 512">
  <g class="glyph">
    <path d="M 167 10 198 41 Q 183 47 166 52 Q 148 57 129 62 V 155 H 198 V 186 Q 226 150 248 101 Q 270 52 284 0 L 326 9 Q 321 30 314 50 Q 307 70 299 90 H 512 V 128 H 355 V 205 H 500 V 243 H 355 V 328 H 505 V 366 H 355 V 508 H 314 V 128 H 282 Q 256 184 225 224 Q 220 218 208 210 Q 197 201 189 197 L 192 194 H 129 V 214 Q 135 220 148 233 Q 160 246 173 260 Q 187 274 198 286 Q 209 298 213 303 L 188 336 Q 183 326 173 313 Q 163 299 151 283 Q 140 268 129 254 V 508 H 89 V 269 Q 75 309 57 345 Q 23 398 21 406 Q 18 397 11 386 Q 5 375 0 368 Q 16 348 32 320 Q 47 291 61 258 Q 75 225 85 194 H 8 V 155 H 89 V 70 Q 72 74 54 76 Q 36 79 19 81 Q 18 75 15 66 Q 11 56 7 50 Q 36 45 66 39 Q 96 33 122 26 Q 149 18 167 10 Z" fill="black" />
  </g>
  <g class="defect" id="01">
    <path d="M 57 345 Q 23 398 21 406" fill="none" stroke="red" stroke-width="3" />
  </g>
</svg>