<svg xmlns="http://www.w3.org/2000/svg" width="512" height="512" viewBox="0 0 512 512">
  <g class="glyph">
    <path d="M 163 9 193 39 Q 179 45 162 50 Q 145 55 126 59 V 149 H 191 V 183 Q 205 161 216 132 Q 227 104 235 75 Q 243 45 248 19 L 286 27 Q 282 43 278 60 Q 273 77 268 95 H 328 V 0 H 367 V 95 H 479 V 132 H 367 V 221 H 496 V 259 H 384 Q 400 289 421 319 Q 443 349 466 374 Q 490 400 512 416 Q 505 422 497 431 Q 488 440 483 448 Q 463 431 442 406 Q 422 381 402 352 Q 383 322 367 292 V 494 H 328 V 298 Q 302 345 269 387 Q 236 428 201 453 Q 196 446 188 437 Q 169 428 174 423 Q 199 406 225 380 Q 250 355 273 323 Q 295 292 312 259 H 192 V 221 H 328 V 132 H 256 Q 249 151 240 168 Q 232 186 223 200 Q 217 196 208 192 Q 198 187 191 184 V 186 H 126 V 206 Q 131 211 140 222 Q 150 233 160 245 Q 170 257 179 268 Q 188 278 191 283 L 167 314 Q 161 303 149 284 Q 138 265 126 249 V 494 H 87 V 260 Q 73 299 56 334 Q 39 370 20 394 Q 17 385 11 374 Q 5 364 0 357 Q 16 337 31 309 Q 46 281 60 249 Q 92 217 83 186 H 8 V 149 H 87 V 68 Q 70 71 53 73 Q 35 76 19 78 Q 18 72 14 63 Q 11 54 7 47 Q 35 43 64 37 Q 93 31 120 24 Q 146 17 163 9 Z" fill="black" />
  </g>
  <g class="defect" id="01">
    <path d="M 60 249 Q 92 217 83 186" fill="none" stroke="red" stroke-width="3" />
  </g>
  <g class="defect" id="02">
    <path d="M 188 437 Q 169 428 174 423" fill="none" stroke="red" stroke-width="3" />
  </g>
</svg>