<svg xmlns="http://www.w3.org/2000/svg" width="512" height="512" viewBox="0 0 512 512">
  <g class="glyph">
    <path d="M 266 136 307 148 Q 302 162 295 175 Q 289 188 282 201 H 508 V 238 H 353 V 286 H 494 V 323 H 353 V 378 H 498 V 414 H 353 V 511 H 311 V 238 H 261 Q 244 263 226 287 Q 208 310 189 328 Q 184 322 174 312 Q 164 303 156 298 Q 172 250 219 226 Q 249 183 266 136 Z M 127 143 133 146 Q 129 133 123 117 Q 116 101 109 87 H 87 Q 76 107 63 125 Q 50 142 37 157 Q 31 152 20 145 Q 9 138 2 134 Q 28 109 49 73 Q 70 38 84 0 L 123 10 Q 120 20 115 31 Q 111 41 106 51 H 251 V 87 H 151 Q 158 101 164 116 Q 170 131 173 142 L 147 150 L 167 156 Q 159 173 149 189 Q 139 205 129 221 V 511 H 88 V 276 Q 74 292 60 307 Q 45 322 30 335 Q 26 329 17 319 Q 7 308 0 302 Q 37 273 71 231 Q 105 189 127 143 Z M 302 0 343 10 Q 339 20 334 31 Q 329 42 324 51 H 512 V 87 H 388 Q 398 101 407 114 Q 402 108 420 139 L 383 156 Q 377 141 366 123 Q 355 104 342 87 H 303 Q 276 127 244 156 Q 220 151 227 143 Q 216 135 209 131 Q 239 107 263 73 Q 288 39 302 0 Z" fill="black" />
  </g>
  <g class="defect" id="01">
    <path d="M 244 156 Q 220 151 227 143" fill="none" stroke="red" stroke-width="3" />
  </g>
  <g class="defect" id="02">
    <path d="M 156 298 Q 172 250 219 226" fill="none" stroke="red" stroke-width="3" />
  </g>
  <g class="defect" id="03">
    <path d="M 407 114 Q 402 108 420 139" fill="none" stroke="red" stroke-width="3" />
  </g>
</svg>