<svg xmlns="http://www.w3.org/2000/svg" width="512" height="512" viewBox="0 0 512 512">
  <g class="glyph">
    <path d="M 345 212 385 216 Q 377 244 365 265 Q 382 276 401 289 Q 421 301 438 313 Q 455 325 467 335 L 437 362 Q 421 349 395 330 Q 370 311 344 295 Q 330 311 312 325 Q 294 338 273 349 V 375 H 501 V 412 H 273 V 512 H 232 V 412 H 9 V 375 H 232 V 346 H 261 Q 257 340 250 334 Q 243 327 238 324 Q 279 308 307 280 Q 335 252 345 212 Z M 208 132 247 120 Q 264 145 277 172 H 473 V 209 H 38 V 172 H 230 Q 225 162 219 151 Q 214 141 208 132 Z M 146 210 185 217 Q 181 228 177 238 Q 172 249 167 259 Q 186 270 205 285 Q 214 310 236 309 L 209 337 Q 199 327 183 314 Q 166 301 149 289 Q 132 312 111 330 Q 91 349 67 363 Q 63 357 54 349 Q 45 340 39 335 Q 78 316 106 284 Q 134 252 146 210 Z M 90 0 131 8 Q 121 33 109 54 H 249 V 86 H 165 Q 183 117 190 142 L 153 154 Q 150 141 141 122 Q 133 103 124 86 H 89 Q 64 122 35 149 Q 29 144 19 138 Q 8 131 0 127 Q 29 104 53 71 Q 76 37 90 0 Z M 305 0 346 8 Q 340 32 330 54 H 499 V 86 H 400 Q 410 100 419 113 Q 428 127 433 138 L 396 152 Q 391 139 380 121 Q 368 103 356 86 H 313 Q 306 98 298 108 Q 301 118 283 126 Q 278 122 267 116 Q 255 109 248 106 Q 284 102 283 58 Q 297 30 305 0 Z" fill="black" />
  </g>
  <g class="defect" id="01">
    <path d="M 205 285 Q 214 310 236 309" fill="none" stroke="red" stroke-width="3" />
  </g>
  <g class="defect" id="02">
    <path d="M 298 108 Q 301 118 283 126" fill="none" stroke="red" stroke-width="3" />
  </g>
  <g class="defect" id="03">
    <path d="M 248 106 Q 284 102 283 58" fill="none" stroke="red" stroke-width="3" />
  </g>
</svg>