<svg xmlns="http://www.w3.org/2000/svg" width="512" height="512" viewBox="0 0 512 512">
  <g class="glyph">
    <path d="M 7 191 H 114 Q 111 177 103 158 Q 95 139 85 124 L 120 114 Q 130 130 139 148 Q 147 166 151 181 L 116 191 H 220 V 226 H 112 L 108 278 H 205 Q 222 278 205 284 Q 205 290 205 295 Q 203 361 200 401 Q 198 441 194 461 Q 191 482 185 490 Q 179 497 172 501 Q 165 504 155 505 Q 147 505 133 505 Q 119 505 104 505 Q 104 497 101 487 Q 98 477 94 470 Q 108 471 120 471 Q 131 472 137 472 Q 147 472 151 466 Q 155 461 158 445 Q 160 429 162 397 Q 164 365 166 313 H 105 Q 98 374 81 424 Q 63 475 27 509 Q 24 502 15 494 Q 7 485 0 481 Q 30 454 45 414 Q 60 375 66 327 Q 72 278 73 226 H 7 Z M 85 0 124 10 Q 120 19 115 28 Q 110 37 106 46 H 255 V 78 H 171 Q 180 91 188 104 Q 196 118 201 128 L 165 141 Q 160 129 149 111 Q 139 93 127 78 H 85 Q 61 112 36 136 Q 30 131 20 124 Q 9 117 2 113 Q 27 92 50 62 Q 72 32 85 0 Z M 308 1 347 10 Q 344 19 339 28 Q 335 37 331 45 H 498 V 77 H 395 Q 405 89 414 102 Q 423 114 428 124 L 392 140 Q 386 127 373 110 Q 361 92 348 77 H 312 Q 301 93 290 107 Q 278 121 265 132 Q 260 127 249 121 Q 238 115 230 112 Q 256 91 276 62 Q 296 33 308 1 Z M 300 216 335 224 Q 331 232 328 242 Q 325 251 321 259 H 486 V 294 H 385 V 338 V 347 H 499 V 381 H 394 Q 410 416 440 440 Q 470 464 512 475 Q 505 481 499 491 Q 492 501 488 508 Q 446 496 417 470 Q 388 445 369 410 Q 339 426 327 462 Q 298 487 245 508 Q 253 502 234 493 Q 226 485 220 479 Q 260 466 284 450 Q 308 434 321 416 Q 334 398 339 381 H 230 V 347 H 345 V 337 V 294 H 303 Q 287 323 270 342 Q 265 338 255 332 Q 246 325 240 322 Q 259 301 275 273 Q 290 245 300 216 Z M 280 126 316 136 Q 309 155 300 174 H 499 V 208 H 283 Q 263 245 238 272 Q 233 268 223 261 Q 214 254 208 250 Q 230 226 249 194 Q 268 161 280 126 Z" fill="black" />
  </g>
  <g class="defect" id="01">
    <path d="M 205 278 Q 222 278 205 284" fill="none" stroke="red" stroke-width="3" />
  </g>
  <g class="defect" id="02">
    <path d="M 369 410 Q 339 426 327 462" fill="none" stroke="red" stroke-width="3" />
  </g>
  <g class="defect" id="03">
    <path d="M 245 508 Q 253 502 234 493" fill="none" stroke="red" stroke-width="3" />
  </g>
</svg>