<svg xmlns="http://www.w3.org/2000/svg" width="512" height="512" viewBox="0 0 512 512">
  <g class="glyph">
    <path d="M 255 169 H 451 V 205 H 255 Z M 256 337 294 349 Q 291 396 252 413 Q 229 446 208 470 Q 203 465 193 458 Q 183 450 176 446 Q 197 424 219 394 Q 241 365 256 337 Z M 410 351 443 336 Q 456 354 469 374 Q 482 394 494 413 Q 505 432 512 447 L 476 464 Q 470 450 459 430 Q 448 411 435 390 Q 422 369 410 351 Z M 84 358 113 351 Q 118 379 122 411 Q 126 444 128 468 L 97 475 Q 97 451 93 418 Q 89 386 84 358 Z M 26 353 58 359 Q 54 394 46 430 Q 39 467 31 492 Q 25 490 16 486 Q 6 482 0 480 Q 10 455 16 421 Q 22 387 26 353 Z M 142 346 169 337 Q 177 356 184 379 Q 191 401 193 417 L 165 427 Q 162 411 155 388 Q 148 365 142 346 Z M 203 267 H 499 V 303 H 373 V 457 Q 373 473 369 481 Q 366 490 355 495 Q 344 499 327 501 Q 310 502 284 501 Q 283 493 279 482 Q 275 472 272 464 Q 290 465 305 465 Q 320 465 325 465 Q 334 464 334 457 V 303 H 203 Z M 314 10 352 0 Q 361 16 371 35 Q 380 55 386 70 H 496 V 162 H 457 V 106 H 249 V 162 H 211 V 70 H 341 Q 335 56 328 40 Q 321 24 314 10 Z M 16 330 Q 15 324 11 312 Q 8 301 5 294 Q 13 292 22 282 Q 32 272 44 257 Q 50 249 63 232 Q 75 216 90 193 Q 61 196 46 199 Q 31 201 24 203 Q 17 204 13 206 Q 11 200 8 189 Q 4 177 1 170 Q 8 169 15 161 Q 22 153 31 140 Q 37 132 49 111 Q 62 89 76 60 Q 91 31 101 2 L 136 16 Q 119 55 97 94 Q 76 133 53 164 L 111 159 Q 122 141 132 121 Q 143 102 152 82 L 183 102 Q 157 150 126 198 Q 95 245 62 285 L 151 272 Q 146 258 141 244 Q 136 230 130 218 L 158 208 Q 166 226 174 245 Q 182 265 188 284 Q 194 303 197 317 L 166 329 Q 165 323 164 316 Q 162 309 160 302 Q 116 309 89 313 Q 62 318 48 321 Q 33 324 27 326 Q 20 327 16 330 Z" fill="black" />
  </g>
  <g class="defect" id="01">
    <path d="M 294 349 Q 291 396 252 413" fill="none" stroke="red" stroke-width="3" />
  </g>
</svg>