<svg xmlns="http://www.w3.org/2000/svg" width="512" height="512" viewBox="0 0 512 512">
  <g class="glyph">
    <path d="M 255 109 V 147 H 428 V 109 Z M 255 44 V 81 H 428 V 44 Z M 218 14 H 466 V 177 H 218 Z M 72 360 99 353 Q 105 379 110 409 Q 115 439 117 461 L 88 468 Q 86 446 82 416 Q 77 385 72 360 Z M 25 354 56 360 Q 52 395 47 431 Q 41 467 34 493 Q 29 490 20 487 Q 11 484 5 482 Q 13 457 18 422 Q 23 388 25 354 Z M 121 351 147 342 Q 155 363 163 387 Q 171 410 173 427 L 146 437 Q 142 420 135 395 Q 128 371 121 351 Z M 174 429 202 424 V 231 H 173 V 199 H 512 V 231 H 335 V 395 L 362 389 L 365 420 L 335 427 V 503 H 300 V 435 L 182 463 Z M 236 231 V 272 H 300 V 231 Z M 236 301 V 342 H 300 V 301 Z M 465 302 H 394 Q 407 350 429 389 Q 452 350 465 302 Z M 346 269 H 477 L 483 268 L 505 273 Q 498 319 484 356 Q 470 393 451 421 Q 476 455 509 474 Q 516 495 497 487 Q 490 495 486 503 Q 454 482 430 449 Q 415 466 398 479 Q 381 492 362 503 Q 359 496 353 487 Q 347 478 341 473 Q 360 464 377 450 Q 394 436 409 418 Q 394 393 383 363 Q 372 334 365 302 H 346 Z M 236 371 V 416 L 300 403 V 371 Z M 15 330 Q 14 324 11 314 Q 7 303 4 296 Q 12 294 21 284 Q 30 275 41 259 Q 47 251 59 234 Q 71 217 85 193 Q 58 196 44 198 Q 29 200 23 202 Q 16 204 12 205 Q 10 199 7 188 Q 3 177 0 170 Q 7 168 13 160 Q 19 152 27 140 Q 32 131 43 110 Q 55 88 67 59 Q 80 30 88 0 L 124 14 Q 109 53 90 92 Q 71 131 51 163 L 104 159 Q 128 141 123 123 Q 133 104 140 86 L 172 103 Q 149 151 120 198 Q 91 245 61 283 L 134 271 Q 130 258 127 245 Q 123 232 119 220 L 147 213 Q 157 240 165 270 Q 173 301 176 321 L 146 331 L 140 301 Q 103 308 80 313 Q 57 318 44 321 Q 31 324 25 326 Q 19 329 15 330 Z" fill="black" />
  </g>
  <g class="defect" id="01">
    <path d="M 509 474 Q 516 495 497 487" fill="none" stroke="red" stroke-width="3" />
  </g>
  <g class="defect" id="02">
    <path d="M 104 159 Q 128 141 123 123" fill="none" stroke="red" stroke-width="3" />
  </g>
</svg>