<svg xmlns="http://www.w3.org/2000/svg" width="512" height="512" viewBox="0 0 512 512">
  <g class="glyph">
    <path d="M 428 342 456 330 Q 468 348 480 370 Q 491 392 500 413 Q 508 433 512 450 L 481 465 Q 478 449 470 427 Q 461 406 451 384 Q 440 362 428 342 Z M 323 309 350 293 Q 364 304 378 318 Q 392 333 404 347 Q 416 361 423 372 L 395 391 Q 388 379 376 364 Q 364 350 350 335 Q 336 320 323 309 Z M 277 325 H 312 V 448 Q 312 459 316 462 Q 320 465 336 465 Q 339 465 348 465 Q 358 465 369 465 Q 380 465 390 465 Q 400 465 405 465 Q 413 465 418 461 Q 422 456 424 443 Q 426 431 427 404 Q 433 408 442 412 Q 451 416 458 418 Q 456 450 451 467 Q 446 484 436 491 Q 426 497 408 497 Q 405 497 394 497 Q 383 497 370 497 Q 357 497 347 497 Q 336 497 333 497 Q 299 497 288 487 Q 277 477 277 449 Z M 231 341 262 347 Q 259 368 255 391 Q 250 415 243 436 Q 248 458 227 475 L 196 461 Q 209 438 218 405 Q 227 372 231 341 Z M 249 20 277 5 Q 295 25 310 50 Q 325 75 332 94 L 302 111 Q 295 92 280 67 Q 265 41 249 20 Z M 269 150 V 250 H 439 V 150 Z M 87 362 116 356 Q 122 384 126 416 Q 130 449 132 473 L 101 480 Q 100 455 96 422 Q 92 389 87 362 Z M 34 356 65 362 Q 59 397 51 434 Q 42 470 33 495 Q 28 492 18 489 Q 9 486 2 484 Q 13 459 21 424 Q 29 390 34 356 Z M 138 351 166 342 Q 174 365 183 391 Q 191 418 195 437 L 166 446 Q 162 427 154 400 Q 146 373 138 351 Z M 231 115 H 378 Q 387 99 397 78 Q 407 58 416 38 Q 426 17 432 0 L 467 16 Q 455 40 442 66 Q 429 92 416 115 H 478 V 286 H 231 Z M 17 334 Q 27 328 11 316 Q 7 304 4 297 Q 13 295 22 285 Q 31 275 43 259 Q 50 252 62 235 Q 74 218 89 195 Q 61 198 45 201 Q 30 203 23 205 Q 17 206 13 208 Q 11 202 7 190 Q 3 179 0 172 Q 7 170 14 162 Q 21 154 28 141 Q 34 133 46 111 Q 58 89 71 60 Q 84 31 94 1 L 131 17 Q 116 56 95 94 Q 75 133 54 164 L 110 159 Q 133 121 150 83 L 184 100 Q 159 150 128 198 Q 97 246 65 285 L 150 270 Q 146 258 141 246 Q 137 234 132 224 L 161 214 Q 169 231 177 251 Q 184 270 190 288 Q 197 307 199 320 L 168 332 Q 167 325 165 317 Q 163 309 160 301 Q 116 309 89 314 Q 63 320 48 323 Q 34 326 27 329 Q 20 331 17 334 Z" fill="black" />
  </g>
  <g class="defect" id="01">
    <path d="M 243 436 Q 248 458 227 475" fill="none" stroke="red" stroke-width="3" />
  </g>
  <g class="defect" id="02">
    <path d="M 17 334 Q 27 328 11 316" fill="none" stroke="red" stroke-width="3" />
  </g>
</svg>