<svg xmlns="http://www.w3.org/2000/svg" width="512" height="512" viewBox="0 0 512 512">
  <g class="glyph">
    <path d="M 3 428 Q 35 422 80 411 Q 125 401 172 390 L 176 423 Q 131 435 88 446 Q 45 457 10 466 Z M 323 124 H 360 V 166 H 464 V 297 H 505 V 333 H 367 Q 385 384 421 418 Q 457 453 512 467 Q 506 473 499 482 Q 492 492 488 499 Q 435 482 399 448 Q 343 415 343 365 Q 328 404 291 439 Q 255 475 184 502 Q 181 496 174 488 Q 167 479 161 474 Q 213 455 244 433 Q 275 410 292 385 Q 309 359 315 333 H 176 V 297 H 220 V 166 H 323 Z M 256 297 H 321 Q 323 279 323 261 V 201 H 256 Z M 427 297 V 201 H 360 V 261 Q 360 279 358 297 Z M 385 0 H 422 V 51 H 500 V 87 H 422 V 139 H 385 V 87 H 294 V 140 H 258 V 87 H 189 V 51 H 258 V 0 H 294 V 51 H 385 Z M 12 227 Q 11 221 7 209 Q 3 197 0 189 Q 7 188 14 178 Q 21 169 29 156 Q 34 149 43 133 Q 52 118 62 96 Q 73 75 83 50 Q 94 25 102 1 L 137 17 Q 120 60 98 104 Q 76 147 52 183 L 115 176 Q 124 162 132 146 Q 126 116 148 115 L 181 134 Q 156 181 127 225 Q 98 270 68 307 L 168 288 Q 168 296 167 306 Q 167 315 168 322 Q 121 331 93 337 Q 64 343 49 347 Q 34 351 27 353 Q 20 356 16 358 Q 14 352 11 340 Q 7 329 4 321 Q 12 319 21 310 Q 30 300 42 285 Q 50 277 63 257 Q 77 238 94 212 Q 63 215 47 218 Q 30 221 23 223 Q 16 225 12 227 Z" fill="black" />
  </g>
  <g class="defect" id="01">
    <path d="M 399 448 Q 343 415 343 365" fill="none" stroke="red" stroke-width="3" />
  </g>
  <g class="defect" id="02">
    <path d="M 132 146 Q 126 116 148 115" fill="none" stroke="red" stroke-width="3" />
  </g>
</svg>