<svg xmlns="http://www.w3.org/2000/svg" width="512" height="512" viewBox="0 0 512 512">
  <g class="glyph">
    <path d="M 36 0 H 236 V 164 H 202 V 31 H 69 V 164 H 36 Z M 282 1 H 481 V 165 H 448 V 31 H 315 V 165 H 282 Z M 121 55 H 154 Q 153 91 148 118 Q 143 146 132 167 L 149 148 Q 165 155 183 166 Q 201 177 217 188 Q 233 198 243 208 L 224 234 Q 214 224 198 213 Q 193 215 165 190 Q 148 179 131 170 Q 117 196 91 214 Q 64 231 20 243 Q 17 236 11 228 Q 6 220 1 216 Q 38 207 61 195 Q 84 182 96 163 Q 108 144 114 118 Q 119 91 121 55 Z M 125 213 158 223 Q 154 231 150 239 Q 145 248 139 255 H 447 V 288 H 278 V 337 H 512 V 370 H 278 V 438 H 424 V 386 H 463 V 494 H 424 V 472 H 54 V 386 H 93 V 438 H 238 V 370 H 0 V 337 H 238 V 288 H 116 Q 99 310 83 326 Q 78 321 69 316 Q 60 310 54 306 Q 74 288 93 263 Q 112 238 125 213 Z M 367 56 H 400 Q 399 93 394 121 Q 389 149 377 170 L 395 149 Q 414 159 436 171 Q 457 183 476 195 Q 495 208 507 219 L 488 245 Q 476 234 458 221 Q 439 208 418 195 Q 396 182 377 172 Q 363 196 339 212 Q 315 229 275 239 Q 273 233 267 225 Q 262 217 257 213 Q 291 205 312 192 Q 333 179 345 161 Q 356 143 361 117 Q 366 91 367 56 Z" fill="black" />
  </g>
  <g class="defect" id="01">
    <path d="M 198 213 Q 193 215 165 190" fill="none" stroke="red" stroke-width="3" />
  </g>
</svg>