<svg xmlns="http://www.w3.org/2000/svg" width="512" height="512" viewBox="0 0 512 512">
  <g class="glyph">
    <path d="M 41 46 H 77 V 177 L 125 171 V 0 H 163 V 67 H 249 V 100 H 163 V 166 L 257 155 L 258 188 Q 213 194 167 200 Q 121 206 80 212 Q 38 218 5 222 L 0 186 L 41 181 Z M 450 34 480 62 Q 446 78 401 91 Q 356 104 312 114 V 149 Q 312 161 318 164 Q 324 168 344 168 Q 349 168 363 168 Q 376 168 392 168 Q 408 168 423 168 Q 437 168 444 168 Q 454 168 460 164 Q 465 161 467 152 Q 470 142 470 122 Q 477 126 487 131 Q 498 135 505 136 Q 503 163 497 177 Q 491 191 480 196 Q 468 202 447 202 Q 442 202 427 202 Q 412 202 394 202 Q 376 202 361 202 Q 346 202 342 202 Q 314 202 300 198 Q 285 193 279 182 Q 273 170 273 149 V 0 H 312 V 81 Q 351 72 388 59 Q 426 47 450 34 Z M 241 206 H 279 Q 278 218 275 229 Q 273 240 270 250 H 464 V 466 Q 464 483 459 492 Q 455 501 442 506 Q 430 510 410 511 Q 389 512 359 512 Q 357 504 354 494 Q 350 483 346 475 Q 368 476 387 476 Q 406 476 412 475 Q 422 475 422 466 V 284 H 296 Q 323 301 351 319 Q 379 337 396 350 L 370 374 Q 356 363 336 349 Q 316 335 293 321 Q 271 306 250 294 Q 233 321 204 341 Q 175 361 127 374 Q 125 368 119 360 Q 112 351 107 346 Q 147 336 173 320 Q 199 304 213 284 H 92 V 512 H 51 V 250 H 231 Q 238 230 241 206 Z M 240 334 H 278 Q 274 351 268 366 Q 288 378 309 393 Q 331 407 351 421 Q 371 435 384 446 L 356 471 Q 344 461 327 448 Q 309 435 290 421 Q 270 407 252 395 Q 235 421 205 440 Q 190 460 129 472 Q 126 466 119 456 Q 113 447 107 442 Q 151 432 178 417 Q 205 401 219 380 Q 234 360 240 334 Z" fill="black" />
  </g>
  <g class="defect" id="01">
    <path d="M 205 440 Q 190 460 129 472" fill="none" stroke="red" stroke-width="3" />
  </g>
</svg>