<svg xmlns="http://www.w3.org/2000/svg" width="512" height="512" viewBox="0 0 512 512">
  <g class="glyph">
    <path d="M 286 0 323 10 309 49 H 412 L 419 48 L 446 65 Q 438 84 427 105 Q 416 126 405 143 H 510 V 180 H 265 V 264 Q 265 290 263 322 Q 261 353 255 385 Q 249 418 238 449 Q 228 479 210 505 Q 206 499 196 492 Q 185 484 179 481 Q 201 449 211 411 Q 221 373 224 334 Q 227 295 227 263 V 197 Q 220 206 213 214 Q 206 222 199 230 Q 196 224 191 215 Q 185 206 180 199 V 456 Q 180 472 176 481 Q 172 491 163 496 Q 153 501 137 502 Q 121 503 96 503 Q 95 496 92 484 Q 89 473 85 465 Q 102 466 116 466 Q 130 466 135 466 Q 144 465 144 456 V 323 H 70 Q 67 371 59 420 Q 50 469 33 508 Q 28 503 18 498 Q 7 492 0 490 Q 18 451 25 404 Q 33 357 35 309 Q 55 247 37 222 V 25 H 180 V 188 Q 214 153 241 104 Q 269 54 286 0 Z M 73 62 V 153 H 144 V 62 Z M 73 191 V 222 Q 73 236 73 252 Q 73 267 72 284 H 144 V 191 Z M 294 84 Q 287 100 279 114 Q 271 129 263 143 H 364 Q 372 131 380 115 Q 387 100 393 84 Z M 304 224 H 480 Q 480 224 480 230 Q 480 235 480 239 Q 480 281 479 308 Q 479 334 477 348 Q 475 362 471 367 Q 467 374 460 376 Q 453 379 444 380 Q 437 381 422 381 Q 408 381 392 380 Q 392 373 389 363 Q 387 354 383 347 Q 398 348 410 349 Q 422 350 427 350 Q 437 350 440 345 Q 443 340 443 322 Q 444 303 444 260 H 342 V 438 Q 342 452 347 456 Q 352 460 369 460 Q 374 460 385 460 Q 413 460 409 460 Q 422 460 434 460 Q 446 460 451 460 Q 462 460 467 455 Q 472 450 474 436 Q 476 421 477 393 Q 484 398 494 403 Q 504 407 512 409 Q 510 443 504 462 Q 499 481 487 488 Q 475 496 455 496 Q 451 496 438 496 Q 425 496 410 496 Q 394 496 382 496 Q 369 496 365 496 Q 342 496 328 491 Q 315 486 309 473 Q 304 461 304 438 Z" fill="black" />
  </g>
  <g class="defect" id="01">
    <path d="M 385 460 Q 413 460 409 460" fill="none" stroke="red" stroke-width="3" />
  </g>
  <g class="defect" id="02">
    <path d="M 35 309 Q 55 247 37 222" fill="none" stroke="red" stroke-width="3" />
  </g>
</svg>