<svg xmlns="http://www.w3.org/2000/svg" width="512" height="512" viewBox="0 0 512 512">
  <g class="glyph">
    <path d="M 323 0 H 365 V 42 H 502 V 79 H 365 V 114 H 323 V 79 H 175 V 116 H 169 L 201 129 Q 190 144 175 159 Q 161 174 144 188 V 303 H 104 V 220 Q 73 242 41 260 Q 36 253 27 244 Q 18 235 10 230 Q 53 210 94 180 Q 135 150 163 116 H 133 V 79 H 0 V 42 H 133 V 0 H 175 V 42 H 323 Z M 268 319 H 309 V 383 Q 345 372 381 358 Q 416 345 440 332 L 464 361 Q 420 365 391 390 Q 349 404 309 415 V 456 Q 309 468 315 471 Q 321 475 342 475 Q 333 490 360 475 Q 373 475 389 475 Q 405 475 418 475 Q 432 475 438 475 Q 449 475 455 471 Q 461 467 463 457 Q 465 446 466 424 Q 472 428 483 432 Q 493 436 501 438 Q 499 466 493 481 Q 488 497 476 503 Q 464 509 442 509 Q 438 509 423 509 Q 408 509 390 509 Q 386 509 357 509 Q 343 509 338 509 Q 311 509 295 504 Q 280 500 274 488 Q 268 476 268 455 Z M 32 326 H 212 V 480 H 71 V 512 H 32 Z M 71 359 V 448 H 172 V 359 Z M 255 120 H 294 V 185 Q 334 172 368 157 Q 403 142 426 126 L 457 153 Q 426 173 384 189 Q 341 206 294 220 V 244 Q 294 255 300 258 Q 307 262 329 262 Q 334 262 348 262 Q 362 262 378 262 Q 395 262 410 262 Q 425 262 432 262 Q 443 262 449 259 Q 455 255 457 245 Q 459 234 461 213 Q 467 218 478 222 Q 489 226 497 227 Q 494 255 488 270 Q 482 286 470 291 Q 457 297 435 297 Q 431 297 415 297 Q 399 297 380 297 Q 362 297 346 297 Q 331 297 326 297 Q 298 297 282 292 Q 266 288 261 276 Q 255 265 255 244 V 231 Q 236 236 218 241 Q 200 245 182 249 Q 180 243 177 235 Q 173 226 169 220 Q 190 215 212 209 Q 233 204 255 197 Z" fill="black" />
  </g>
  <g class="defect" id="01">
    <path d="M 464 361 Q 420 365 391 390" fill="none" stroke="red" stroke-width="3" />
  </g>
  <g class="defect" id="02">
    <path d="M 390 509 Q 386 509 357 509" fill="none" stroke="red" stroke-width="3" />
  </g>
  <g class="defect" id="03">
    <path d="M 342 475 Q 333 490 360 475" fill="none" stroke="red" stroke-width="3" />
  </g>
</svg>