<svg xmlns="http://www.w3.org/2000/svg" width="512" height="512" viewBox="0 0 512 512">
  <g class="glyph">
    <path d="M 354 22 379 3 Q 399 13 422 27 Q 446 41 459 53 L 433 75 Q 421 63 398 48 Q 375 34 354 22 Z M 215 207 250 193 Q 262 206 273 222 Q 285 238 290 250 L 252 268 Q 247 255 236 238 Q 226 220 215 207 Z M 129 493 Q 128 486 124 476 Q 120 466 115 460 Q 122 458 129 452 Q 136 447 136 431 V 381 Q 83 405 30 420 Q 27 412 20 403 Q 13 394 7 388 Q 59 380 77 368 Q 113 355 146 339 Q 180 323 206 304 H 17 V 268 H 502 V 304 H 301 Q 320 342 351 371 Q 375 359 400 342 Q 425 326 443 313 L 475 336 Q 453 351 427 367 Q 402 382 378 393 Q 405 412 439 427 Q 472 441 512 448 Q 505 455 498 465 Q 506 476 486 484 Q 323 445 260 304 Q 243 320 221 335 Q 199 349 175 362 V 440 L 296 412 Q 296 421 297 430 Q 298 440 298 447 Q 246 459 214 467 Q 182 475 165 480 Q 149 484 141 487 Q 133 490 129 493 Z M 260 1 H 300 Q 302 24 307 47 Q 312 69 319 88 L 496 72 L 500 106 L 334 121 Q 355 160 385 182 Q 415 204 448 203 Q 461 203 465 192 Q 470 180 472 151 Q 478 157 488 161 Q 497 166 505 168 Q 502 198 495 214 Q 489 230 477 236 Q 465 242 447 242 Q 397 242 357 211 Q 316 179 291 125 L 166 137 L 162 102 L 277 91 Q 263 49 260 1 Z M 145 0 182 14 Q 150 48 133 83 V 242 H 94 V 125 Q 78 140 62 153 Q 46 166 30 177 Q 26 171 16 162 Q 7 153 0 147 Q 28 130 55 107 Q 82 83 105 56 Q 128 28 145 0 Z" fill="black" />
  </g>
  <g class="defect" id="01">
    <path d="M 182 14 Q 150 48 133 83" fill="none" stroke="red" stroke-width="3" />
  </g>
  <g class="defect" id="02">
    <path d="M 498 465 Q 506 476 486 484" fill="none" stroke="red" stroke-width="3" />
  </g>
  <g class="defect" id="03">
    <path d="M 7 388 Q 59 380 77 368" fill="none" stroke="red" stroke-width="3" />
  </g>
</svg>