<svg xmlns="http://www.w3.org/2000/svg" width="512" height="512" viewBox="0 0 512 512">
  <g class="glyph">
    <path d="M 217 45 253 33 Q 263 53 273 75 Q 282 98 289 119 Q 296 140 298 157 L 259 170 Q 258 153 251 132 Q 245 110 236 87 Q 227 65 217 45 Z M 466 29 508 43 Q 495 77 480 114 Q 447 163 452 176 L 418 163 Q 426 145 435 122 Q 445 99 453 74 Q 461 49 466 29 Z M 70 19 102 1 Q 116 17 131 37 Q 145 57 152 71 L 119 92 Q 111 77 97 56 Q 83 36 70 19 Z M 225 200 H 339 V 0 H 380 V 200 H 492 V 512 H 451 V 488 H 210 V 448 H 451 V 361 H 237 V 323 H 451 V 240 H 225 Z M 9 99 H 172 L 180 97 L 203 113 Q 190 146 172 178 Q 154 211 132 241 L 152 260 Q 149 248 174 235 Q 184 221 190 210 L 219 233 L 173 281 L 216 327 L 192 359 Q 186 350 176 337 Q 166 324 154 309 Q 142 294 130 282 V 511 H 90 V 296 Q 56 336 22 363 Q 19 355 13 343 Q 6 330 0 324 Q 28 303 56 273 Q 85 243 109 208 Q 149 153 150 137 H 9 Z" fill="black" />
  </g>
  <g class="defect" id="01">
    <path d="M 109 208 Q 149 153 150 137" fill="none" stroke="red" stroke-width="3" />
  </g>
  <g class="defect" id="02">
    <path d="M 480 114 Q 447 163 452 176" fill="none" stroke="red" stroke-width="3" />
  </g>
  <g class="defect" id="03">
    <path d="M 152 260 Q 149 248 174 235" fill="none" stroke="red" stroke-width="3" />
  </g>
</svg>