<svg xmlns="http://www.w3.org/2000/svg" width="512" height="512" viewBox="0 0 512 512">
  <g class="glyph">
    <path d="M 29 33 57 8 Q 72 20 89 35 Q 106 49 121 64 Q 136 79 145 90 L 116 120 Q 107 108 92 93 Q 77 77 61 62 Q 44 46 29 33 Z M 249 0 290 9 Q 265 29 279 48 Q 273 67 266 87 H 512 V 127 H 332 V 209 H 499 V 248 H 332 V 333 H 506 V 373 H 332 V 509 H 289 V 127 H 251 Q 237 161 221 191 Q 206 221 190 245 Q 166 239 174 230 Q 163 222 156 217 Q 185 177 209 119 Q 234 61 249 0 Z M 0 170 H 120 V 404 L 181 359 Q 184 367 188 378 Q 193 388 196 395 Q 159 423 137 441 Q 114 459 101 469 Q 89 479 83 484 Q 96 490 74 494 Q 70 488 61 479 Q 53 470 48 465 Q 53 461 61 452 Q 68 444 74 431 Q 79 419 79 405 V 210 H 0 Z" fill="black" />
  </g>
  <g class="defect" id="01">
    <path d="M 290 9 Q 265 29 279 48" fill="none" stroke="red" stroke-width="3" />
  </g>
  <g class="defect" id="02">
    <path d="M 83 484 Q 96 490 74 494" fill="none" stroke="red" stroke-width="3" />
  </g>
  <g class="defect" id="03">
    <path d="M 190 245 Q 166 239 174 230" fill="none" stroke="red" stroke-width="3" />
  </g>
</svg>