<svg xmlns="http://www.w3.org/2000/svg" width="512" height="512" viewBox="0 0 512 512">
  <g class="glyph">
    <path d="M 47 36 74 9 Q 89 21 105 34 Q 131 48 135 62 Q 133 56 158 87 L 129 117 Q 121 106 108 92 Q 94 78 78 63 Q 62 48 47 36 Z M 238 17 279 25 Q 275 44 270 63 Q 265 82 259 100 H 324 V 0 H 365 V 100 H 480 V 139 H 365 V 235 H 501 V 274 H 393 Q 407 308 426 341 Q 445 374 467 401 Q 489 428 512 446 Q 505 452 496 462 Q 487 471 481 479 Q 459 459 438 429 Q 416 400 398 365 Q 379 330 365 293 V 511 H 324 V 299 Q 301 355 267 404 Q 233 454 197 484 Q 192 477 183 467 Q 175 458 167 452 Q 178 434 217 406 Q 241 377 262 344 Q 282 310 297 274 H 177 V 235 H 324 V 139 H 245 Q 236 161 226 181 Q 217 200 206 216 Q 201 212 190 205 Q 179 198 171 195 Q 194 162 211 114 Q 228 67 238 17 Z M 0 174 H 125 V 404 L 182 360 Q 185 368 189 378 Q 193 388 197 394 Q 161 423 140 441 Q 118 459 106 469 Q 93 480 88 485 Q 82 491 79 495 Q 75 489 66 481 Q 58 472 52 468 Q 57 463 65 453 Q 73 444 79 431 Q 84 417 84 402 V 214 H 0 Z" fill="black" />
  </g>
  <g class="defect" id="01">
    <path d="M 135 62 Q 133 56 158 87" fill="none" stroke="red" stroke-width="3" />
  </g>
  <g class="defect" id="02">
    <path d="M 167 452 Q 178 434 217 406" fill="none" stroke="red" stroke-width="3" />
  </g>
  <g class="defect" id="03">
    <path d="M 105 34 Q 131 48 135 62" fill="none" stroke="red" stroke-width="3" />
  </g>
</svg>