<svg xmlns="http://www.w3.org/2000/svg" width="512" height="512" viewBox="0 0 512 512">
  <g class="glyph">
    <path d="M 54 60 V 157 H 120 V 60 Z M 202 254 H 470 V 408 H 432 V 288 H 238 V 409 H 202 Z M 351 446 371 419 Q 393 426 418 436 Q 442 446 465 456 Q 487 467 503 475 L 482 505 Q 468 497 445 486 Q 423 476 398 465 Q 373 454 351 446 Z M 314 311 H 351 V 372 Q 351 393 344 413 Q 337 433 318 450 Q 300 467 266 481 Q 233 496 180 506 Q 178 499 172 489 Q 166 479 161 473 Q 209 464 240 453 Q 270 442 286 429 Q 302 416 308 401 Q 314 386 314 370 Z M 0 439 23 433 V 245 H 54 V 425 L 83 418 V 192 H 21 V 25 H 153 V 192 H 116 V 271 H 167 V 308 H 116 V 409 L 168 395 L 173 429 Q 129 442 86 454 Q 43 467 8 476 Z M 259 234 Q 258 229 254 221 Q 250 214 247 210 Q 252 207 257 200 Q 262 192 262 177 V 134 H 240 Q 236 172 225 198 Q 213 224 185 240 Q 183 235 177 228 Q 170 221 166 218 Q 189 206 198 185 Q 207 164 209 134 H 170 V 106 H 244 V 67 H 202 Q 198 75 194 83 Q 190 90 185 96 Q 181 93 173 88 Q 166 83 161 81 Q 173 65 181 46 Q 189 27 194 7 L 221 13 Q 201 37 218 27 Q 216 33 213 40 H 244 V 1 H 276 V 40 H 318 V 67 H 276 V 106 H 322 V 134 H 291 V 184 L 329 165 Q 330 170 331 178 Q 332 185 333 189 Q 305 204 290 213 Q 275 222 269 226 Q 263 230 259 234 Z M 406 0 H 439 V 40 H 493 V 68 H 439 V 106 H 504 V 135 H 456 V 198 Q 456 203 458 204 Q 460 207 465 207 Q 467 207 470 207 Q 473 207 475 207 Q 477 207 480 206 Q 482 206 483 206 Q 485 204 487 201 Q 488 194 490 178 Q 493 182 500 186 Q 506 189 512 191 Q 511 212 507 222 Q 503 229 494 233 Q 487 236 477 236 Q 473 236 467 236 Q 461 236 458 236 Q 452 236 445 234 Q 439 233 435 229 Q 430 224 429 218 Q 428 212 428 197 V 135 H 406 Q 402 173 390 199 Q 378 226 348 242 Q 346 236 340 229 Q 334 223 329 219 Q 354 207 364 186 Q 383 152 376 135 H 335 V 106 H 406 V 68 H 364 Q 360 76 356 83 Q 351 90 346 96 Q 343 93 335 88 Q 328 83 322 81 Q 335 65 343 46 Q 351 27 355 7 L 383 13 Q 382 20 380 27 Q 378 33 376 40 H 406 Z" fill="black" />
  </g>
  <g class="defect" id="01">
    <path d="M 221 13 Q 201 37 218 27" fill="none" stroke="red" stroke-width="3" />
  </g>
  <g class="defect" id="02">
    <path d="M 364 186 Q 383 152 376 135" fill="none" stroke="red" stroke-width="3" />
  </g>
</svg>