<svg xmlns="http://www.w3.org/2000/svg" width="512" height="512" viewBox="0 0 512 512">
  <g class="glyph">
    <path d="M 235 287 H 110 V 342 H 235 Z M 235 251 V 197 H 110 V 251 Z M 128 0 167 8 Q 163 23 160 37 Q 156 51 151 65 H 301 V 104 H 138 Q 133 119 126 133 Q 120 147 112 161 H 274 V 451 Q 274 466 269 475 Q 265 484 254 489 Q 244 493 226 494 Q 208 496 180 496 Q 179 488 175 477 Q 172 467 167 459 Q 187 460 204 460 Q 220 460 225 459 Q 235 459 235 451 V 378 H 110 V 499 H 72 V 229 Q 61 243 50 256 Q 38 270 25 282 Q 22 275 14 264 Q 6 253 0 247 Q 31 220 55 183 Q 78 147 96 104 H 16 V 65 H 110 Q 107 50 128 0 Z M 323 33 H 477 L 483 32 L 512 50 Q 495 89 474 134 Q 454 179 434 217 Q 476 255 491 288 Q 505 321 505 351 Q 505 376 499 395 Q 493 413 479 423 Q 471 428 462 430 Q 453 433 442 434 Q 431 435 419 436 Q 406 436 394 435 Q 394 427 391 416 Q 388 405 383 396 Q 396 397 407 397 Q 418 397 426 397 Q 434 396 440 395 Q 446 394 451 390 Q 460 385 464 373 Q 467 362 467 347 Q 450 321 451 289 Q 436 258 394 221 Q 411 186 428 146 Q 446 105 459 72 H 362 V 505 H 323 Z" fill="black" />
  </g>
  <g class="defect" id="01">
    <path d="M 110 65 Q 107 50 128 0" fill="none" stroke="red" stroke-width="3" />
  </g>
  <g class="defect" id="02">
    <path d="M 467 347 Q 450 321 451 289" fill="none" stroke="red" stroke-width="3" />
  </g>
</svg>