<svg xmlns="http://www.w3.org/2000/svg" width="512" height="512" viewBox="0 0 512 512">
  <g class="glyph">
    <path d="M 11 53 41 32 Q 55 44 70 59 Q 86 74 100 88 Q 113 103 122 114 L 90 139 Q 81 127 68 112 Q 55 97 40 81 Q 25 66 11 53 Z M 388 2 426 11 Q 419 22 412 33 Q 405 45 398 54 H 495 V 85 H 369 V 116 H 475 V 296 H 411 V 328 H 501 V 359 H 411 V 413 Q 411 427 407 434 Q 404 441 393 444 Q 382 448 365 448 Q 347 449 321 449 Q 320 442 316 434 Q 313 426 310 419 Q 328 420 344 420 Q 359 420 363 420 Q 369 420 370 418 Q 372 416 372 412 V 359 H 234 Q 250 371 267 386 Q 284 400 294 412 L 264 435 Q 254 422 235 404 Q 216 387 198 373 L 218 359 H 139 V 328 H 372 V 296 H 161 V 116 H 262 V 85 H 142 V 54 H 237 Q 232 45 224 33 Q 216 20 208 11 L 243 0 Q 252 11 261 24 Q 270 37 274 47 L 252 54 H 357 Q 365 42 373 27 Q 382 13 388 2 Z M 438 245 H 197 V 270 H 438 Z M 197 143 V 221 H 438 V 198 H 432 Q 429 198 417 198 Q 405 198 394 198 Q 382 198 379 198 Q 353 198 345 191 Q 336 184 336 161 V 143 H 293 Q 290 163 275 182 Q 261 202 226 215 Q 222 210 214 204 Q 207 198 202 195 Q 231 185 244 171 Q 256 158 260 143 Z M 369 143 V 161 Q 369 169 371 170 Q 374 172 383 172 Q 386 172 395 172 Q 404 172 414 172 Q 423 172 427 172 Q 433 172 435 172 Q 437 171 438 170 V 143 Z M 336 116 V 85 H 295 V 116 Z M 115 202 V 416 Q 123 420 132 426 Q 126 433 156 441 Q 181 456 216 460 Q 252 463 296 463 Q 328 463 368 462 Q 407 461 445 459 Q 483 456 512 453 Q 508 461 504 474 Q 500 487 500 495 Q 500 497 456 497 Q 430 498 401 499 Q 352 500 344 500 Q 317 501 295 501 Q 247 501 211 496 Q 175 492 149 476 Q 133 467 121 458 Q 109 450 101 450 Q 87 450 67 467 Q 48 484 27 508 L 1 471 Q 20 453 39 440 Q 58 426 75 419 V 241 H 0 V 202 Z" fill="black" />
  </g>
  <g class="defect" id="01">
    <path d="M 500 495 Q 500 497 456 497" fill="none" stroke="red" stroke-width="3" />
  </g>
  <g class="defect" id="02">
    <path d="M 401 499 Q 352 500 344 500" fill="none" stroke="red" stroke-width="3" />
  </g>
  <g class="defect" id="03">
    <path d="M 132 426 Q 126 433 156 441" fill="none" stroke="red" stroke-width="3" />
  </g>
</svg>