<svg xmlns="http://www.w3.org/2000/svg" width="512" height="512" viewBox="0 0 512 512">
  <g class="glyph">
    <path d="M 236 114 H 310 V 79 H 222 V 45 H 310 V 0 H 341 V 45 H 389 V 0 H 419 V 45 H 511 V 79 H 419 V 114 H 496 V 286 H 236 Z M 341 79 V 114 H 389 V 79 Z M 267 214 V 256 H 310 V 214 Z M 341 214 V 256 H 389 V 214 Z M 267 144 V 185 H 310 V 144 Z M 341 144 V 185 H 389 V 144 Z M 419 214 V 256 H 464 V 214 Z M 419 144 V 185 H 464 V 144 Z M 293 413 V 453 H 441 V 413 Z M 293 385 H 441 V 348 H 293 Z M 257 315 H 477 V 510 H 441 V 486 H 293 V 512 H 257 Z M 43 378 V 437 H 171 V 378 Z M 43 346 H 171 V 288 Q 169 288 160 288 Q 151 288 148 288 Q 131 288 125 282 Q 119 275 119 255 V 164 H 94 V 212 Q 94 228 91 247 Q 88 267 80 286 Q 72 305 57 320 Q 55 318 51 314 Q 47 311 43 308 Z M 0 24 H 209 V 58 H 149 V 128 H 202 V 501 H 171 V 471 H 43 V 508 H 13 V 128 H 64 V 58 H 0 Z M 94 128 H 119 V 58 H 94 Z M 43 298 Q 60 277 64 254 Q 54 216 69 211 V 164 H 43 Z M 143 164 V 255 Q 143 260 145 261 Q 146 262 150 262 Q 136 262 158 262 Q 180 262 167 262 H 171 V 164 Z" fill="black" />
  </g>
  <g class="defect" id="01">
    <path d="M 64 254 Q 54 216 69 211" fill="none" stroke="red" stroke-width="3" />
  </g>
  <g class="defect" id="02">
    <path d="M 158 262 Q 180 262 167 262" fill="none" stroke="red" stroke-width="3" />
  </g>
  <g class="defect" id="03">
    <path d="M 150 262 Q 136 262 158 262" fill="none" stroke="red" stroke-width="3" />
  </g>
</svg>