<svg xmlns="http://www.w3.org/2000/svg" width="512" height="512" viewBox="0 0 512 512">
  <g class="glyph">
    <path d="M 22 309 45 300 Q 52 324 57 353 Q 62 381 64 401 L 39 410 Q 37 390 32 361 Q 28 332 22 309 Z M 142 295 169 305 Q 163 331 156 358 Q 149 385 143 404 L 121 395 Q 125 381 129 364 Q 133 346 137 328 Q 140 310 142 295 Z M 94 0 119 14 110 36 Q 131 53 151 73 Q 171 92 184 108 L 169 141 Q 156 125 135 105 Q 115 85 95 67 Q 84 87 72 106 Q 59 125 46 142 H 159 V 177 H 112 V 237 H 174 V 272 H 112 V 423 L 170 409 L 172 442 Q 131 453 89 465 Q 47 477 15 485 L 8 448 L 82 431 V 272 H 13 V 237 H 82 V 177 H 38 V 152 Q 33 159 27 165 Q 21 171 15 177 Q 13 170 8 157 Q 4 143 0 136 Q 27 112 52 76 Q 78 40 94 0 Z M 179 391 207 387 V 67 H 181 V 31 H 358 V 61 H 471 L 478 60 L 499 64 Q 506 243 446 373 Q 459 404 475 430 Q 491 455 512 473 Q 506 478 499 488 Q 491 498 487 505 Q 468 488 454 467 Q 439 445 427 419 Q 402 472 368 505 Q 364 498 357 490 Q 350 482 344 477 Q 362 457 409 372 Q 391 316 382 247 Q 373 178 368 98 H 350 V 67 H 338 V 366 L 372 360 L 374 393 L 338 399 V 504 H 304 V 406 L 187 427 Z M 240 67 V 144 H 304 V 67 Z M 464 98 H 399 Q 404 158 410 213 Q 417 268 429 315 Q 455 223 464 98 Z M 240 180 V 258 H 304 V 180 Z M 240 294 V 382 L 304 372 V 294 Z" fill="black" />
  </g>
  <g class="defect" id="01">
    <path d="M 499 64 Q 506 243 446 373" fill="none" stroke="red" stroke-width="3" />
  </g>
  <g class="defect" id="02">
    <path d="M 344 477 Q 362 457 409 372" fill="none" stroke="red" stroke-width="3" />
  </g>
</svg>