<svg xmlns="http://www.w3.org/2000/svg" width="512" height="512" viewBox="0 0 512 512">
  <g class="glyph">
    <path d="M 24 309 50 302 Q 57 326 63 354 Q 69 382 71 402 L 44 411 Q 42 390 37 362 Q 31 333 24 309 Z M 163 296 192 305 Q 185 330 177 358 Q 170 385 162 405 L 139 396 Q 143 382 148 365 Q 153 347 157 329 Q 161 310 163 296 Z M 217 33 H 251 V 161 H 442 V 33 H 477 V 193 H 217 Z M 290 200 322 210 Q 303 236 276 261 Q 249 287 220 303 L 195 276 Q 221 264 246 243 Q 272 222 290 200 Z M 381 216 402 196 Q 419 207 438 221 Q 457 236 474 249 Q 491 263 502 274 L 480 298 Q 469 287 453 273 Q 436 258 417 243 Q 398 228 381 216 Z M 107 0 138 14 127 38 Q 151 55 174 74 Q 197 93 212 109 L 194 142 Q 179 125 156 105 Q 133 85 109 67 Q 97 87 82 106 Q 68 125 52 142 H 181 V 177 H 125 V 237 H 197 V 273 H 125 V 424 L 196 409 L 198 442 Q 150 454 102 465 Q 53 477 16 486 L 8 449 L 93 431 V 273 H 14 V 237 H 93 V 177 H 42 V 153 Q 36 160 29 166 Q 23 172 17 177 Q 15 171 10 157 Q 4 143 0 136 Q 31 112 60 76 Q 89 40 107 0 Z M 308 257 345 263 Q 339 273 333 283 Q 327 293 319 303 H 433 L 441 301 L 463 311 Q 467 345 430 372 Q 410 400 384 420 Q 441 453 512 467 Q 506 473 499 481 Q 493 490 489 498 Q 414 480 356 442 Q 323 463 285 477 Q 247 492 206 501 Q 204 495 198 486 Q 193 477 188 471 Q 226 464 261 451 Q 297 438 328 420 Q 294 391 270 354 Q 248 373 217 390 Q 213 384 206 377 Q 198 370 192 366 Q 236 344 264 314 Q 303 285 308 257 Z M 415 333 H 294 Q 305 352 321 369 Q 336 387 356 401 Q 374 387 389 370 Q 404 353 415 333 Z M 390 13 419 26 Q 400 56 374 82 Q 391 96 407 109 Q 423 122 434 133 L 411 154 Q 400 143 385 129 Q 370 116 353 103 Q 318 134 279 157 Q 275 153 269 146 Q 263 140 257 136 Q 276 125 294 113 Q 294 100 329 85 Q 312 73 295 61 Q 278 49 262 38 L 284 20 Q 299 30 316 41 Q 333 53 350 65 Q 363 52 373 39 Q 383 26 390 13 Z" fill="black" />
  </g>
  <g class="defect" id="01">
    <path d="M 264 314 Q 303 285 308 257" fill="none" stroke="red" stroke-width="3" />
  </g>
  <g class="defect" id="02">
    <path d="M 463 311 Q 467 345 430 372" fill="none" stroke="red" stroke-width="3" />
  </g>
  <g class="defect" id="03">
    <path d="M 294 113 Q 294 100 329 85" fill="none" stroke="red" stroke-width="3" />
  </g>
</svg>