<svg xmlns="http://www.w3.org/2000/svg" width="512" height="512" viewBox="0 0 512 512">
  <g class="glyph">
    <path d="M 14 268 H 91 V 194 H 42 V 159 H 187 V 194 H 129 V 268 H 193 V 297 H 234 V 167 H 327 V 123 H 364 V 167 H 460 V 297 H 504 V 333 H 372 Q 390 381 425 414 Q 460 448 512 463 Q 505 469 497 479 Q 489 489 485 497 Q 437 480 403 447 Q 369 415 348 369 Q 333 406 297 441 Q 261 475 191 500 Q 187 494 180 485 Q 173 477 167 471 Q 219 454 250 432 Q 281 410 298 385 Q 314 359 320 333 H 191 V 305 H 129 V 422 L 192 392 Q 193 400 195 410 Q 196 420 199 426 Q 164 444 143 455 Q 121 467 110 474 Q 98 481 92 485 L 83 492 Q 81 484 76 472 Q 71 461 66 454 Q 74 450 83 441 Q 91 432 91 417 V 305 H 14 Z M 268 297 H 326 Q 327 290 327 282 Q 344 260 327 266 V 202 H 268 Z M 424 297 V 202 H 364 V 267 L 363 297 Z M 384 0 H 420 V 51 H 502 V 87 H 420 V 139 H 384 V 87 H 304 V 140 H 267 V 87 H 206 V 51 H 267 V 0 H 304 V 51 H 384 Z M 78 2 114 12 Q 103 40 91 65 H 193 V 101 H 71 Q 60 121 47 138 Q 34 155 20 169 Q 18 163 11 151 Q 5 139 0 133 Q 24 109 45 74 Q 65 40 78 2 Z" fill="black" />
  </g>
  <g class="defect" id="01">
    <path d="M 327 282 Q 344 260 327 266" fill="none" stroke="red" stroke-width="3" />
  </g>
</svg>