<svg xmlns="http://www.w3.org/2000/svg" width="512" height="512" viewBox="0 0 512 512">
  <g class="glyph">
    <path d="M 455 5 486 38 Q 463 46 436 53 Q 409 60 378 66 V 185 V 199 H 502 V 238 H 381 Q 390 291 407 336 Q 424 382 450 416 Q 476 450 512 470 Q 505 475 497 485 Q 488 496 484 503 Q 439 476 410 428 Q 381 380 363 318 Q 349 367 317 416 Q 296 451 222 505 Q 218 499 209 490 Q 200 481 193 475 Q 235 450 262 421 Q 289 392 304 361 Q 320 330 327 298 Q 335 267 337 238 H 218 V 199 H 338 V 185 V 74 Q 313 78 287 82 Q 262 86 238 89 Q 237 82 233 72 Q 229 62 226 55 Q 267 49 309 42 Q 352 34 390 25 Q 429 15 455 5 Z M 66 0 105 8 Q 102 27 98 47 Q 94 66 90 85 H 188 L 194 83 L 222 92 Q 212 122 200 154 Q 188 185 175 206 L 143 195 Q 151 181 158 162 Q 166 143 172 123 H 80 Q 54 170 59 186 Q 47 215 33 239 Q 27 234 17 225 Q 7 217 0 213 Q 25 174 41 118 Q 57 61 66 0 Z M 79 499 Q 76 492 69 483 Q 62 474 57 469 Q 65 463 76 449 Q 87 435 87 415 V 193 H 126 V 418 L 202 369 Q 204 377 207 388 Q 211 398 214 404 Q 172 431 148 448 Q 123 464 109 474 Q 95 484 89 489 Q 83 494 79 498 Z" fill="black" />
  </g>
  <g class="defect" id="01">
    <path d="M 80 123 Q 54 170 59 186" fill="none" stroke="red" stroke-width="3" />
  </g>
  <g class="defect" id="02">
    <path d="M 317 416 Q 296 451 222 505" fill="none" stroke="red" stroke-width="3" />
  </g>
</svg>