<svg xmlns="http://www.w3.org/2000/svg" width="512" height="512" viewBox="0 0 512 512">
  <g class="glyph">
    <path d="M 262 170 H 469 V 207 H 262 Z M 274 339 310 350 Q 297 382 279 416 Q 261 450 245 474 Q 239 470 230 463 Q 220 456 213 453 Q 230 430 246 399 Q 263 368 274 339 Z M 422 350 454 337 Q 465 355 476 377 Q 487 399 497 419 Q 506 439 512 454 L 478 470 Q 473 455 463 435 Q 454 414 443 391 Q 432 369 422 350 Z M 0 385 Q 29 379 67 370 Q 105 360 145 349 L 149 382 Q 112 393 76 403 Q 40 413 9 421 Z M 226 265 H 511 V 302 H 389 V 468 Q 389 483 385 491 Q 382 499 371 504 Q 360 508 344 509 Q 328 510 303 510 Q 303 502 299 492 Q 295 482 292 474 Q 310 475 324 475 Q 338 475 343 475 Q 348 474 350 473 Q 351 471 351 466 V 302 H 226 Z M 329 9 367 0 Q 375 17 382 36 Q 389 55 393 70 H 503 V 160 H 466 V 106 H 264 V 160 H 227 V 70 H 349 Q 345 56 340 39 Q 335 23 329 9 Z M 42 104 75 106 Q 73 142 69 184 Q 66 227 62 262 H 131 Q 121 235 139 203 Q 143 170 146 135 Q 149 101 152 68 H 20 V 31 H 192 Q 189 68 185 110 Q 181 152 177 192 Q 173 232 168 262 H 213 Q 213 262 213 268 Q 213 275 212 279 Q 208 350 203 394 Q 198 438 192 461 Q 186 484 177 494 Q 170 502 162 505 Q 153 509 140 510 Q 130 510 112 510 Q 94 510 73 509 Q 73 501 70 491 Q 49 481 62 474 Q 83 476 101 476 Q 118 477 126 477 Q 133 477 138 476 Q 142 474 146 470 Q 152 464 157 445 Q 162 426 166 390 Q 170 354 174 295 H 24 Q 28 271 31 238 Q 34 204 37 169 Q 40 134 42 104 Z" fill="black" />
  </g>
  <g class="defect" id="01">
    <path d="M 70 491 Q 49 481 62 474" fill="none" stroke="red" stroke-width="3" />
  </g>
  <g class="defect" id="02">
    <path d="M 131 262 Q 121 235 139 203" fill="none" stroke="red" stroke-width="3" />
  </g>
</svg>