<svg xmlns="http://www.w3.org/2000/svg" width="512" height="512" viewBox="0 0 512 512">
  <g class="glyph">
    <path d="M 268 408 295 392 Q 311 406 326 424 Q 342 442 350 456 L 320 473 Q 313 460 298 441 Q 282 422 268 408 Z M 183 378 209 369 Q 221 392 232 419 Q 243 446 248 465 L 220 475 Q 216 456 205 428 Q 195 401 183 378 Z M 134 383 160 377 Q 169 399 176 426 Q 183 452 185 472 L 157 478 Q 156 459 149 432 Q 143 405 134 383 Z M 87 383 114 380 Q 119 404 121 432 Q 123 460 122 481 L 93 485 Q 94 464 93 436 Q 91 408 87 383 Z M 40 378 69 386 Q 65 420 57 454 Q 49 487 29 508 L 1 492 Q 19 472 28 442 Q 36 411 40 378 Z M 426 0 462 11 Q 454 25 446 39 Q 439 52 431 63 H 511 V 95 H 420 V 131 H 500 V 325 H 440 V 356 H 512 V 388 H 440 V 467 Q 440 481 436 489 Q 433 497 422 502 Q 411 505 394 506 Q 377 508 351 508 Q 350 500 346 490 Q 343 481 339 473 Q 359 474 374 474 Q 388 474 393 474 Q 399 474 401 472 Q 402 470 402 466 V 388 H 227 V 356 H 402 V 325 H 247 V 131 H 318 V 95 H 227 V 63 H 300 Q 296 51 289 37 Q 283 23 276 12 L 307 0 Q 316 13 324 29 Q 332 45 335 57 L 320 63 H 413 L 398 58 Q 405 46 413 29 Q 422 12 426 0 Z M 466 269 H 280 V 298 H 466 Z M 280 158 V 243 H 466 V 217 L 449 218 Q 445 218 434 218 Q 424 218 420 218 Q 413 218 406 217 Q 399 216 395 212 Q 391 208 389 201 Q 387 195 387 181 V 158 H 350 V 166 Q 350 183 341 202 Q 345 239 305 236 Q 302 232 296 227 Q 289 222 285 220 Q 309 206 317 192 Q 324 178 324 165 V 158 Z M 350 95 V 131 H 387 V 95 Z M 466 196 V 158 H 413 V 184 Q 413 194 415 195 Q 417 196 420 196 Q 422 196 425 196 Q 429 196 435 196 Q 442 196 446 196 Q 450 196 454 196 Q 458 196 459 196 Q 461 196 463 196 Q 465 196 465 196 Z M 145 83 H 89 Q 78 113 63 140 H 120 Q 126 127 132 113 Q 139 98 145 83 Z M 77 1 114 6 Q 111 16 108 27 Q 104 39 100 50 H 161 L 168 47 L 192 63 Q 185 82 175 102 Q 166 122 156 140 H 218 V 353 H 35 V 186 L 29 195 Q 24 189 15 182 Q 7 175 0 172 Q 20 146 35 116 Q 50 87 60 57 Q 71 26 77 1 Z M 68 262 V 320 H 110 V 262 Z M 140 262 V 320 H 184 V 262 Z M 68 173 V 230 H 110 V 173 Z M 140 173 V 230 H 184 V 173 Z" fill="black" />
  </g>
  <g class="defect" id="01">
    <path d="M 341 202 Q 345 239 305 236" fill="none" stroke="red" stroke-width="3" />
  </g>
</svg>