<svg xmlns="http://www.w3.org/2000/svg" width="512" height="512" viewBox="0 0 512 512">
  <g class="glyph">
    <path d="M 78 79 H 103 Q 103 128 100 164 Q 97 199 88 224 Q 79 249 62 267 Q 46 284 18 297 Q 16 292 10 284 Q 4 277 0 273 Q 26 262 41 248 Q 57 233 64 211 Q 72 189 75 157 Q 77 125 78 79 Z M 88 233 110 216 Q 124 227 139 240 Q 155 253 164 263 L 140 282 Q 132 272 117 258 Q 85 244 88 233 Z M 178 26 H 308 V 213 H 279 V 55 H 206 V 213 H 178 Z M 370 132 392 113 Q 408 127 426 142 Q 443 158 453 169 L 430 190 Q 420 179 403 162 Q 386 145 370 132 Z M 299 367 H 450 V 403 H 299 Z M 23 25 H 154 V 212 H 126 V 54 H 51 V 212 H 23 Z M 16 319 H 107 Q 112 309 117 299 Q 122 289 126 279 L 162 287 L 146 319 H 255 L 263 317 L 284 324 Q 273 362 254 390 Q 235 419 209 440 Q 234 449 256 459 Q 278 469 295 479 L 265 503 Q 249 493 227 483 Q 204 472 178 461 Q 146 480 108 492 Q 70 504 27 511 Q 25 504 20 495 Q 16 485 11 479 Q 46 475 78 467 Q 110 459 137 445 Q 114 437 91 429 Q 68 421 47 416 Q 57 403 68 386 Q 79 369 89 351 H 16 Z M 97 402 Q 115 407 134 413 Q 153 419 172 426 Q 193 411 209 393 Q 225 374 237 351 H 129 Q 132 365 113 378 Q 105 391 97 402 Z M 230 79 H 255 Q 255 132 252 170 Q 249 208 240 234 L 257 221 Q 273 234 290 251 Q 308 268 318 280 L 295 299 Q 286 287 270 270 Q 253 253 238 239 Q 222 278 180 301 Q 178 295 172 288 Q 167 281 162 277 Q 185 265 198 250 Q 212 235 219 212 Q 225 190 228 157 Q 230 125 230 79 Z M 473 52 H 498 Q 498 52 498 57 Q 498 63 497 67 Q 495 123 493 157 Q 490 192 487 209 Q 483 227 478 234 Q 468 246 449 248 Q 441 248 427 248 Q 413 248 398 247 Q 398 240 395 231 Q 393 223 389 217 Q 404 218 417 218 Q 429 218 435 218 Q 445 219 449 213 Q 453 209 455 195 Q 458 182 460 155 Q 461 129 463 86 H 364 V 278 H 512 Q 512 278 512 284 Q 511 290 511 294 Q 508 361 504 401 Q 500 442 495 463 Q 490 484 482 493 Q 475 501 467 504 Q 459 507 448 508 Q 438 508 421 508 Q 404 508 385 508 Q 385 500 382 491 Q 380 482 375 475 Q 395 477 411 477 Q 427 478 434 478 Q 447 478 453 472 Q 458 466 462 449 Q 466 432 469 399 Q 473 366 475 313 H 329 V 52 H 374 Q 380 39 386 25 Q 391 11 394 0 L 431 7 L 409 52 Z" fill="black" />
  </g>
  <g class="defect" id="01">
    <path d="M 129 351 Q 132 365 113 378" fill="none" stroke="red" stroke-width="3" />
  </g>
  <g class="defect" id="02">
    <path d="M 117 258 Q 85 244 88 233" fill="none" stroke="red" stroke-width="3" />
  </g>
</svg>