<svg xmlns="http://www.w3.org/2000/svg" width="512" height="512" viewBox="0 0 512 512">
  <g class="glyph">
    <path d="M 86 424 V 55 H 35 V 457 H 60 Q 71 457 78 449 Q 86 440 86 424 Z M 121 16 V 433 Q 136 497 61 497 H 0 V 16 Z M 433 397 457 444 Q 472 473 490 473 H 504 V 512 H 480 Q 450 512 433 477 L 414 440 L 396 477 Q 380 511 344 511 H 317 V 472 H 336 Q 360 473 370 446 L 393 398 L 354 321 Q 347 307 347 283 V 175 H 383 V 275 Q 383 296 388 306 L 412 354 L 434 306 Q 440 293 440 275 V 141 H 476 V 283 Q 476 304 469 321 Z M 398 68 H 496 V 107 H 390 L 389 115 Q 384 138 374 148 Q 349 174 340 159 H 322 V 119 H 330 Q 340 119 346 113 Q 351 108 353 95 L 370 0 H 410 Z M 251 223 H 322 V 259 H 203 V 315 H 307 V 451 Q 307 512 257 512 H 226 V 477 H 241 Q 259 477 265 466 Q 271 457 271 434 V 350 H 203 V 455 Q 203 482 194 496 Q 183 512 159 512 H 131 V 477 H 143 Q 166 477 166 445 V 259 H 140 V 223 H 212 V 170 H 155 V 136 H 212 V 84 H 145 V 49 H 212 V 0 H 251 V 49 H 316 V 84 H 251 V 136 H 307 V 170 H 251 Z" fill="black" />
  </g>
  <g class="defect" id="01">
    <path d="M 121 433 Q 136 497 61 497" fill="none" stroke="red" stroke-width="3" />
  </g>
  <g class="defect" id="02">
    <path d="M 374 148 Q 349 174 340 159" fill="none" stroke="red" stroke-width="3" />
  </g>
</svg>