<svg xmlns="http://www.w3.org/2000/svg" width="512" height="512" viewBox="0 0 512 512">
  <g class="glyph">
    <path d="M 512 476 H 495 Q 451 477 445 436 L 430 345 H 465 L 477 417 Q 481 440 504 440 H 512 Z M 257 476 H 240 V 440 H 248 Q 271 440 275 417 L 288 345 H 322 L 307 433 Q 299 477 257 476 Z M 165 504 H 140 V 466 H 155 Q 170 466 174 459 Q 178 453 178 437 V 15 H 511 V 50 H 219 V 440 Q 219 472 208 487 Q 195 504 165 504 Z M 447 224 H 304 V 279 H 412 Q 432 279 440 270 Q 447 261 447 239 Z M 447 194 V 140 H 304 V 194 Z M 396 311 V 443 Q 396 474 384 488 Q 371 504 342 504 H 304 L 305 469 H 329 Q 346 469 352 461 Q 358 455 358 437 V 311 H 267 V 109 H 330 L 351 67 H 393 L 372 109 H 484 V 248 Q 484 281 470 296 Q 438 328 423 311 Z M 97 429 150 411 V 451 L 0 502 V 461 L 57 442 V 170 H 6 V 130 H 57 V 0 H 97 V 130 H 148 V 170 H 97 Z" fill="black" />
  </g>
  <g class="defect" id="01">
    <path d="M 470 296 Q 438 328 423 311" fill="none" stroke="red" stroke-width="3" />
  </g>
</svg>