<svg xmlns="http://www.w3.org/2000/svg" width="512" height="512" viewBox="0 0 512 512">
  <g class="glyph">
    <path d="M 459 72 430 131 H 509 V 162 H 215 V 131 H 293 L 264 72 H 223 V 41 H 342 L 330 0 H 376 L 388 41 H 500 V 72 Z M 446 263 V 227 H 278 V 263 Z M 446 291 H 278 V 329 H 412 Q 431 329 439 320 Q 446 311 446 291 Z M 418 72 H 305 L 334 131 H 389 Z M 384 427 V 502 H 340 V 427 H 213 V 396 H 340 V 357 H 237 V 199 H 487 V 298 Q 490 358 428 357 H 384 V 396 H 512 V 427 Z M 173 134 V 261 Q 173 292 158 320 L 126 376 L 165 446 Q 189 441 175 458 Q 180 461 191 461 H 202 V 502 H 188 Q 167 502 157 496 Q 133 491 138 473 L 104 414 L 71 473 Q 62 489 51 495 Q 40 502 22 502 H 0 V 462 H 14 Q 26 462 32 459 Q 39 456 44 446 L 83 377 L 51 320 Q 22 294 36 261 V 134 H 4 V 94 H 36 V 0 H 73 V 94 H 136 V 0 H 173 V 94 H 203 V 134 Z M 136 134 H 73 V 271 Q 73 284 79 294 L 104 339 L 130 294 Q 136 285 136 271 Z" fill="black" />
  </g>
  <g class="defect" id="01">
    <path d="M 51 320 Q 22 294 36 261" fill="none" stroke="red" stroke-width="3" />
  </g>
  <g class="defect" id="02">
    <path d="M 165 446 Q 189 441 175 458" fill="none" stroke="red" stroke-width="3" />
  </g>
  <g class="defect" id="03">
    <path d="M 157 496 Q 133 491 138 473" fill="none" stroke="red" stroke-width="3" />
  </g>
</svg>