<svg xmlns="http://www.w3.org/2000/svg" width="512" height="512" viewBox="0 0 512 512">
  <g class="glyph">
    <path d="M 75 419 H 117 L 100 474 Q 88 511 41 511 H 0 V 477 H 27 Q 52 477 60 456 Z M 282 477 V 511 H 239 Q 194 511 182 474 L 164 419 H 207 L 221 456 Q 230 477 255 477 Z M 378 161 V 423 H 337 V 161 Z M 501 142 V 444 Q 504 512 437 511 H 352 V 473 H 425 Q 446 473 454 462 Q 448 472 461 430 V 142 Z M 258 149 V 344 Q 258 369 244 383 Q 229 397 203 397 H 23 V 149 Z M 282 78 H 417 Q 432 78 437 72 Q 443 65 443 51 V 19 H 487 V 62 Q 487 90 474 101 Q 463 112 432 112 H 34 V 19 H 77 V 78 H 238 V 0 H 282 Z M 218 322 H 64 V 366 H 190 Q 202 366 210 357 Q 218 349 218 338 Z M 218 292 V 251 H 64 V 292 Z M 218 222 V 181 H 64 V 222 Z" fill="black" />
  </g>
  <g class="defect" id="01">
    <path d="M 454 462 Q 448 472 461 430" fill="none" stroke="red" stroke-width="3" />
  </g>
</svg>