<svg xmlns="http://www.w3.org/2000/svg" width="512" height="512" viewBox="0 0 512 512">
  <g class="glyph">
    <path d="M 156 367 H 198 L 181 431 Q 174 457 161 465 Q 148 473 119 473 H 106 V 443 H 111 Q 126 443 132 439 Q 138 434 142 420 Z M 413 457 V 487 H 289 Q 255 487 241 474 Q 228 461 228 427 V 358 H 270 V 416 Q 270 438 276 447 Q 284 457 305 457 Z M 403 395 V 423 H 378 Q 352 423 341 416 Q 329 409 322 386 L 311 348 H 351 L 359 374 Q 363 388 370 392 Q 376 395 391 395 Z M 509 443 V 473 H 499 Q 470 473 457 464 Q 443 454 436 428 L 421 367 H 462 L 476 418 Q 480 432 485 438 Q 491 443 503 443 Z M 416 292 392 248 H 435 L 454 280 Q 459 289 469 293 Q 475 295 488 295 H 510 V 326 H 479 Q 473 326 441 319 Q 427 311 416 292 Z M 182 248 H 225 L 201 291 Q 174 311 177 318 Q 163 326 142 326 H 110 V 295 H 129 Q 142 295 148 293 Q 157 289 163 280 Z M 43 0 H 512 V 30 H 84 V 429 Q 84 460 72 473 Q 60 487 31 487 H 0 V 449 H 19 Q 33 449 38 443 Q 43 438 43 423 Z M 431 136 V 101 H 190 V 136 Z M 431 162 H 190 V 197 H 397 Q 417 197 424 189 Q 431 182 431 162 Z M 331 225 V 281 Q 331 311 316 324 Q 304 335 274 335 H 234 L 231 304 H 256 Q 276 304 282 297 Q 289 290 289 269 V 225 H 148 V 72 H 244 L 264 43 H 313 L 293 72 H 473 V 165 Q 473 197 458 211 Q 444 225 409 225 Z" fill="black" />
  </g>
  <g class="defect" id="01">
    <path d="M 201 291 Q 174 311 177 318" fill="none" stroke="red" stroke-width="3" />
  </g>
  <g class="defect" id="02">
    <path d="M 479 326 Q 473 326 441 319" fill="none" stroke="red" stroke-width="3" />
  </g>
</svg>