<svg xmlns="http://www.w3.org/2000/svg" width="512" height="512" viewBox="0 0 512 512">
  <g class="glyph">
    <path d="M 299 155 V 194 H 280 Q 243 194 228 159 L 198 89 L 259 0 H 304 L 244 90 L 264 134 Q 269 145 274 149 Q 280 155 290 155 Z M 403 155 V 194 H 385 Q 349 194 334 159 L 304 89 L 362 0 H 407 L 347 90 L 367 134 Q 372 144 377 149 Q 383 155 393 155 Z M 508 155 V 194 H 488 Q 451 194 436 159 L 406 89 L 465 0 H 512 L 452 90 L 472 134 Q 477 145 482 149 Q 504 155 499 155 Z M 333 463 Q 368 463 380 433 L 446 277 H 283 L 279 286 Q 263 330 214 329 H 185 V 290 H 202 Q 218 290 226 285 Q 235 280 240 267 L 263 212 H 309 L 298 239 H 492 V 276 L 421 446 Q 408 477 392 488 Q 376 501 343 501 H 176 V 463 H 288 L 251 337 H 296 Z M 121 291 V 435 Q 123 501 58 501 H 10 V 461 H 44 Q 64 461 71 451 Q 78 442 78 419 V 304 L 0 327 V 288 L 78 265 V 136 H 0 V 98 H 78 V 0 H 121 V 98 H 177 V 136 H 121 V 252 L 178 235 V 274 Z" fill="black" />
  </g>
  <g class="defect" id="01">
    <path d="M 482 149 Q 504 155 499 155" fill="none" stroke="red" stroke-width="3" />
  </g>
</svg>