<svg xmlns="http://www.w3.org/2000/svg" width="512" height="512" viewBox="0 0 512 512">
  <g class="glyph">
    <path d="M 209 0 H 245 L 224 121 Q 219 146 210 155 Q 200 165 178 165 H 161 V 127 H 167 Q 178 127 183 123 Q 188 118 190 105 Z M 351 127 V 165 H 335 Q 313 165 303 155 Q 293 145 288 121 L 267 0 H 303 L 322 105 Q 324 118 329 123 Q 334 127 345 127 Z M 451 329 V 445 Q 436 458 439 490 Q 426 504 397 504 H 362 V 467 H 382 Q 398 467 406 458 Q 412 449 412 431 V 329 H 350 V 291 H 412 V 198 H 364 V 160 H 412 V 69 H 356 V 31 H 445 Q 466 31 466 12 V 0 H 506 V 28 Q 506 69 460 69 H 451 V 160 H 498 V 198 H 451 V 291 H 512 V 329 Z M 244 248 233 444 Q 229 505 175 505 H 152 V 467 H 163 Q 195 467 196 431 L 207 248 H 171 V 210 H 331 V 441 Q 331 474 319 488 Q 305 504 275 504 H 246 V 467 H 260 Q 279 467 287 458 Q 294 449 294 427 V 248 Z M 101 329 V 445 Q 90 477 90 490 Q 77 504 48 504 H 12 V 467 H 32 Q 49 467 56 458 Q 63 449 63 431 V 329 H 0 V 291 H 63 V 198 H 14 V 160 H 63 V 69 H 6 V 31 H 94 Q 116 31 116 12 V 0 H 156 V 28 Q 156 69 111 69 H 101 V 160 H 148 V 198 H 101 V 291 H 162 V 329 Z" fill="black" />
  </g>
  <g class="defect" id="01">
    <path d="M 101 445 Q 90 477 90 490" fill="none" stroke="red" stroke-width="3" />
  </g>
  <g class="defect" id="02">
    <path d="M 451 445 Q 436 458 439 490" fill="none" stroke="red" stroke-width="3" />
  </g>
</svg>