<svg xmlns="http://www.w3.org/2000/svg" width="512" height="512" viewBox="0 0 512 512">
  <g class="glyph">
    <path d="M 221 15 H 259 L 245 91 Q 238 131 200 131 H 172 V 97 H 186 Q 206 97 210 76 Z M 87 97 V 131 H 59 Q 21 131 14 91 L 0 15 H 37 L 49 76 Q 70 97 73 97 Z M 410 390 443 445 Q 458 469 486 469 H 504 V 510 H 475 Q 454 510 441 503 Q 426 496 414 476 L 387 431 L 361 476 Q 340 512 302 510 H 273 V 469 H 291 Q 306 469 315 464 Q 311 473 332 446 L 363 391 L 312 304 Q 303 289 303 266 V 175 H 343 V 260 Q 343 277 350 289 L 387 350 L 422 288 Q 428 278 428 261 V 141 H 468 V 267 Q 468 289 459 306 Z M 367 67 H 500 V 108 H 355 L 353 115 Q 341 160 298 158 H 273 V 117 H 286 Q 298 117 305 112 Q 313 106 317 93 L 342 0 H 385 Z M 220 397 149 293 V 505 H 111 V 296 L 40 398 V 510 H 2 V 163 H 108 V 0 H 152 V 163 H 258 V 455 Q 258 483 247 496 Q 235 510 207 510 H 173 V 473 H 194 Q 220 473 220 445 Z M 220 343 V 200 H 149 V 240 Z M 111 242 V 200 H 40 V 344 Z" fill="black" />
  </g>
  <g class="defect" id="01">
    <path d="M 49 76 Q 70 97 73 97" fill="none" stroke="red" stroke-width="3" />
  </g>
  <g class="defect" id="02">
    <path d="M 315 464 Q 311 473 332 446" fill="none" stroke="red" stroke-width="3" />
  </g>
</svg>