<svg xmlns="http://www.w3.org/2000/svg" width="512" height="512" viewBox="0 0 512 512">
  <g class="glyph">
    <path d="M 426 142 H 88 V 210 H 390 Q 427 210 419 200 Q 437 191 426 168 Z M 426 105 V 38 H 88 V 105 Z M 280 357 V 489 H 231 V 357 H 0 V 320 H 231 V 248 H 40 V 0 H 474 V 179 Q 474 214 459 231 Q 427 248 408 248 H 280 V 320 H 512 V 357 Z" fill="black" />
  </g>
  <g class="defect" id="01">
    <path d="M 419 200 Q 437 191 426 168" fill="none" stroke="red" stroke-width="3" />
  </g>
  <g class="defect" id="02">
    <path d="M 459 231 Q 427 248 408 248" fill="none" stroke="red" stroke-width="3" />
  </g>
  <g class="defect" id="03">
    <path d="M 390 210 Q 427 210 419 200" fill="none" stroke="red" stroke-width="3" />
  </g>
</svg>