<svg xmlns="http://www.w3.org/2000/svg" width="512" height="512" viewBox="0 0 512 512">
  <g class="glyph">
    <path d="M 114 338 H 159 L 126 430 Q 113 468 63 468 H 0 V 428 H 55 Q 81 428 89 408 Z M 512 428 V 468 H 450 Q 399 468 386 430 L 353 338 H 398 L 423 408 Q 411 428 457 428 Z M 278 304 V 444 Q 278 504 218 504 H 152 V 465 H 200 Q 206 475 228 455 Q 234 446 234 424 V 304 H 0 V 266 H 234 V 186 H 278 V 266 H 512 V 304 Z M 186 82 V 159 Q 186 195 169 211 Q 153 226 118 226 H 0 V 189 H 108 Q 125 189 132 182 Q 141 174 141 154 V 82 H 25 V 45 H 141 V 0 H 186 V 45 H 411 V 153 Q 411 173 418 181 Q 443 199 445 189 H 500 V 226 H 428 Q 396 226 381 211 Q 365 197 365 164 V 82 Z" fill="black" />
  </g>
  <g class="defect" id="01">
    <path d="M 200 465 Q 206 475 228 455" fill="none" stroke="red" stroke-width="3" />
  </g>
  <g class="defect" id="02">
    <path d="M 423 408 Q 411 428 457 428" fill="none" stroke="red" stroke-width="3" />
  </g>
  <g class="defect" id="03">
    <path d="M 418 181 Q 443 199 445 189" fill="none" stroke="red" stroke-width="3" />
  </g>
</svg>