<svg xmlns="http://www.w3.org/2000/svg" width="512" height="512" viewBox="0 0 512 512">
  <g class="glyph">
    <path d="M 59 164 V 414 Q 61 453 22 453 H 0 V 413 H 7 Q 17 413 22 408 Q 27 403 27 391 V 164 Z M 231 403 V 442 H 206 Q 167 442 168 404 V 164 H 202 V 380 Q 202 392 207 398 Q 212 403 223 403 Z M 472 131 V 260 Q 472 279 469 292 Q 465 306 455 319 L 393 401 L 428 448 Q 435 458 442 461 Q 447 462 461 462 H 512 V 503 H 456 Q 433 503 421 497 Q 396 491 394 472 L 367 435 L 339 472 Q 326 491 315 496 Q 302 503 280 503 H 221 V 463 H 272 Q 285 463 291 460 Q 300 457 306 448 L 342 400 L 283 319 Q 272 304 269 290 Q 267 280 267 256 V 167 H 308 V 269 Q 308 284 314 292 L 368 366 L 423 293 Q 430 283 430 266 V 131 H 236 V 92 H 430 V 0 H 472 V 92 H 511 V 131 Z M 134 124 V 503 H 94 V 124 H 3 V 84 H 94 V 0 H 134 V 84 H 217 V 124 Z" fill="black" />
  </g>
  <g class="defect" id="01">
    <path d="M 421 497 Q 396 491 394 472" fill="none" stroke="red" stroke-width="3" />
  </g>
</svg>