<svg xmlns="http://www.w3.org/2000/svg" width="512" height="512" viewBox="0 0 512 512">
  <g class="glyph">
    <path d="M 58 334 H 98 L 76 436 Q 72 458 61 469 Q 59 480 29 480 H 5 V 443 H 14 Q 36 443 40 421 Z M 326 443 V 480 H 295 Q 274 480 263 469 Q 253 459 249 438 L 228 334 H 268 L 286 421 Q 289 433 293 437 Q 297 443 309 443 Z M 482 12 V 68 Q 482 90 467 102 Q 453 114 429 114 H 404 V 76 H 418 Q 432 76 438 71 Q 444 64 444 50 V 12 Z M 426 400 432 438 Q 436 465 462 463 H 512 V 504 H 459 Q 428 504 412 494 Q 396 482 392 454 L 384 403 H 329 V 366 H 379 L 353 185 H 0 V 146 H 141 V 84 H 24 V 48 H 141 V 0 H 186 V 48 H 303 V 84 H 186 V 146 H 348 L 327 0 H 369 L 389 146 H 512 V 185 H 395 L 420 358 Q 429 351 434 338 L 470 229 H 511 L 468 358 Q 457 392 426 400 Z M 185 300 V 504 H 142 V 300 H 9 V 263 H 142 V 209 H 185 V 263 H 317 V 300 Z" fill="black" />
  </g>
  <g class="defect" id="01">
    <path d="M 61 469 Q 59 480 29 480" fill="none" stroke="red" stroke-width="3" />
  </g>
</svg>