<svg xmlns="http://www.w3.org/2000/svg" width="512" height="512" viewBox="0 0 512 512">
  <g class="glyph">
    <path d="M 505 241 495 296 Q 491 315 483 325 Q 473 336 455 336 H 436 V 301 H 443 Q 461 301 463 278 L 471 241 Z M 379 404 356 452 Q 367 453 340 474 Q 331 479 316 479 H 289 V 451 H 307 Q 315 451 320 447 Q 324 443 329 433 L 344 404 Z M 45 166 V 417 Q 45 437 39 445 Q 33 455 14 455 H 0 V 412 H 5 Q 13 412 16 406 Q 19 401 19 389 V 166 Z M 277 467 174 501 V 464 L 277 430 Z M 169 455 H 157 Q 138 455 132 445 Q 127 438 127 417 V 166 H 153 V 389 Q 153 402 155 406 Q 158 412 166 412 H 169 Z M 512 444 V 479 H 494 Q 474 479 464 469 Q 454 459 452 436 L 444 361 H 478 L 484 420 Q 484 444 506 444 Z M 375 314 353 359 Q 344 376 337 382 Q 329 387 315 387 H 289 V 359 H 304 Q 318 359 325 343 L 340 314 Z M 276 0 211 158 H 270 V 193 L 210 337 H 277 V 371 H 173 V 335 L 233 193 H 173 V 159 L 238 0 Z M 446 181 H 510 V 214 H 385 L 365 251 H 425 V 440 Q 425 471 416 485 Q 405 501 379 501 H 349 V 469 H 367 Q 382 469 387 460 Q 390 453 390 436 V 281 H 349 Q 342 292 333 295 Q 344 308 310 298 H 289 V 270 H 298 Q 317 270 327 252 L 347 214 H 284 V 181 H 409 L 423 139 H 313 V 111 L 350 1 H 387 L 377 29 H 488 V 56 Z M 433 111 451 56 H 368 L 350 111 Z M 103 126 V 501 H 68 V 126 H 4 V 87 H 68 V 1 H 103 V 87 H 163 V 126 Z" fill="black" />
  </g>
  <g class="defect" id="01">
    <path d="M 356 452 Q 367 453 340 474" fill="none" stroke="red" stroke-width="3" />
  </g>
  <g class="defect" id="02">
    <path d="M 333 295 Q 344 308 310 298" fill="none" stroke="red" stroke-width="3" />
  </g>
</svg>