<svg xmlns="http://www.w3.org/2000/svg" width="512" height="512" viewBox="0 0 512 512">
  <g class="glyph">
    <path d="M 216 21 251 74 Q 268 100 257 119 Q 248 137 218 137 H 21 V 101 L 94 0 H 141 L 69 102 H 194 Q 208 102 211 94 Q 214 86 206 74 L 171 21 Z M 402 278 H 422 L 461 427 Q 466 446 473 453 Q 482 462 498 462 H 512 V 503 H 487 Q 473 487 446 491 Q 432 479 425 450 L 393 324 L 369 447 Q 346 484 304 503 H 280 V 462 H 289 Q 324 462 331 425 L 375 196 H 418 Z M 363 70 H 498 V 197 H 458 V 112 H 355 L 350 139 Q 341 186 298 186 H 271 V 145 H 283 Q 296 145 303 138 Q 309 132 312 117 L 334 0 H 377 Z M 163 234 V 307 V 309 H 279 V 346 H 155 L 143 369 H 186 L 209 440 Q 214 456 226 461 Q 233 465 249 465 H 266 V 503 H 235 Q 211 503 197 495 Q 181 486 174 465 L 141 374 L 94 465 Q 83 487 70 495 Q 57 503 33 503 H 1 V 465 H 20 Q 33 465 42 460 Q 53 454 60 440 L 107 346 H 0 V 309 H 121 V 302 V 234 H 72 L 70 237 Q 63 256 54 264 Q 43 273 24 273 H 0 V 237 H 6 Q 18 237 24 233 Q 30 229 35 216 L 54 163 H 97 L 84 198 H 263 V 234 Z" fill="black" />
  </g>
  <g class="defect" id="01">
    <path d="M 487 503 Q 473 487 446 491" fill="none" stroke="red" stroke-width="3" />
  </g>
  <g class="defect" id="02">
    <path d="M 369 447 Q 346 484 304 503" fill="none" stroke="red" stroke-width="3" />
  </g>
</svg>