<svg xmlns="http://www.w3.org/2000/svg" width="512" height="512" viewBox="0 0 512 512">
  <g class="glyph">
    <path d="M 446 426 V 328 H 226 V 470 H 407 Q 429 470 438 459 Q 446 450 446 426 Z M 487 288 V 441 Q 487 510 419 510 H 185 V 288 Z M 449 70 498 161 Q 523 197 503 207 Q 493 229 459 229 H 162 V 190 L 264 0 H 310 L 208 190 H 438 Q 454 190 458 181 Q 461 173 453 158 L 405 70 Z M 136 310 102 459 Q 95 486 83 497 Q 70 510 42 510 H 0 V 470 H 28 Q 58 470 64 441 L 95 310 Z M 140 263 H 88 Q 63 263 50 252 Q 40 244 31 220 L 5 152 H 47 L 67 202 Q 72 213 78 218 Q 85 223 97 223 H 140 Z M 140 111 H 90 Q 63 111 52 102 Q 40 94 31 68 L 5 0 H 47 L 67 50 Q 72 62 78 66 Q 85 71 97 71 H 140 Z" fill="black" />
  </g>
  <g class="defect" id="01">
    <path d="M 498 161 Q 523 197 503 207" fill="none" stroke="red" stroke-width="3" />
  </g>
</svg>