<svg xmlns="http://www.w3.org/2000/svg" width="512" height="512" viewBox="0 0 512 512">
  <g class="glyph">
    <path d="M 125 70 V 109 H 89 Q 64 109 53 101 Q 42 92 32 67 L 8 0 H 49 L 70 50 Q 77 71 98 70 Z M 82 307 H 124 L 91 454 Q 85 481 76 492 Q 45 490 40 504 H 0 V 465 H 25 Q 37 465 43 458 Q 49 452 53 436 Z M 126 220 V 260 H 87 Q 63 260 52 250 Q 41 242 32 217 L 8 150 H 49 L 70 200 Q 90 221 98 220 Z M 440 72 405 131 H 506 V 163 H 144 V 131 H 243 L 208 72 H 156 V 41 H 303 L 290 0 H 334 L 348 41 H 493 V 72 Z M 436 266 V 228 H 215 V 266 Z M 436 292 H 215 V 331 H 401 Q 421 331 429 321 Q 436 313 436 292 Z M 395 72 H 253 L 287 131 H 361 Z M 347 429 V 504 H 303 V 429 H 136 V 398 H 303 V 359 H 173 V 201 H 478 V 299 Q 478 329 465 343 Q 450 359 418 359 H 347 V 398 H 512 V 429 Z" fill="black" />
  </g>
  <g class="defect" id="01">
    <path d="M 76 492 Q 45 490 40 504" fill="none" stroke="red" stroke-width="3" />
  </g>
  <g class="defect" id="02">
    <path d="M 70 200 Q 90 221 98 220" fill="none" stroke="red" stroke-width="3" />
  </g>
</svg>