<svg xmlns="http://www.w3.org/2000/svg" width="512" height="512" viewBox="0 0 512 512">
  <g class="glyph">
    <path d="M 508 490 H 461 Q 443 490 434 484 Q 424 478 418 462 L 405 430 H 447 L 455 451 Q 459 460 464 462 Q 468 464 479 464 H 508 Z M 364 309 V 452 Q 364 476 352 490 Q 340 503 318 503 H 287 V 472 H 304 Q 315 472 321 465 Q 326 459 326 447 V 309 Z M 296 413 H 246 Q 229 413 221 408 Q 212 402 205 387 L 193 359 H 234 L 242 377 Q 245 384 250 386 Q 255 389 265 389 H 296 Z M 495 359 483 387 Q 476 403 468 408 Q 459 413 442 413 H 392 V 389 H 422 Q 433 389 438 386 Q 442 384 446 377 L 454 359 Z M 283 430 270 461 Q 263 478 254 484 Q 245 489 227 489 H 184 V 464 H 209 Q 220 464 224 461 Q 229 459 232 451 L 241 430 Z M 447 100 H 246 V 133 H 424 Q 447 133 447 110 Z M 447 73 V 43 H 246 V 73 Z M 432 289 446 308 Q 458 323 472 323 H 512 V 348 H 465 Q 447 348 436 342 Q 424 336 413 321 L 390 289 H 300 L 277 321 Q 265 337 254 342 Q 243 348 225 348 H 178 V 323 H 219 Q 232 323 244 308 L 258 289 H 186 V 261 H 269 V 221 H 195 V 196 H 269 V 159 H 206 V 16 H 487 V 108 Q 487 159 437 159 H 424 V 196 H 498 V 221 H 424 V 261 H 507 V 289 Z M 387 261 V 221 H 306 V 261 Z M 387 196 V 159 H 306 V 196 Z M 113 253 V 273 Q 113 293 110 305 H 122 L 148 436 Q 151 453 158 460 Q 163 465 173 465 H 178 V 503 H 165 Q 108 505 116 457 L 97 355 L 71 457 Q 58 502 16 503 H 0 V 465 H 12 Q 22 465 28 459 Q 35 452 39 435 L 72 303 Q 76 289 76 273 V 253 H 59 Q 51 253 29 244 Q 20 235 18 215 L 7 60 H 40 L 49 192 Q 34 220 55 211 Q 59 216 70 216 H 76 V 0 H 113 V 216 H 119 Q 130 216 134 211 Q 140 206 140 192 L 149 60 H 182 L 171 215 Q 168 253 130 253 Z" fill="black" />
  </g>
  <g class="defect" id="01">
    <path d="M 59 253 Q 51 253 29 244" fill="none" stroke="red" stroke-width="3" />
  </g>
  <g class="defect" id="02">
    <path d="M 165 503 Q 108 505 116 457" fill="none" stroke="red" stroke-width="3" />
  </g>
  <g class="defect" id="03">
    <path d="M 49 192 Q 34 220 55 211" fill="none" stroke="red" stroke-width="3" />
  </g>
</svg>