<svg xmlns="http://www.w3.org/2000/svg" width="512" height="512" viewBox="0 0 512 512">
  <g class="glyph">
    <path d="M 252 362 H 291 L 265 436 Q 256 462 244 472 Q 231 481 204 481 H 187 V 447 H 195 Q 210 447 217 441 Q 223 436 229 421 Z M 512 447 V 481 H 491 Q 464 481 451 472 Q 439 462 430 436 L 403 362 H 443 L 466 421 Q 472 436 478 441 Q 486 447 500 447 Z M 331 153 V 208 Q 331 236 321 249 Q 290 263 283 263 H 200 V 153 Z M 424 61 V 42 H 270 V 92 H 400 Q 414 92 420 84 Q 424 76 424 61 Z M 459 207 V 180 H 398 V 236 H 434 Q 448 236 454 228 Q 459 221 459 207 Z M 296 207 V 180 H 236 V 236 H 271 Q 285 236 291 228 Q 296 221 296 207 Z M 494 153 V 208 Q 494 237 484 249 Q 473 263 446 263 H 363 V 153 Z M 464 15 V 60 Q 464 90 453 104 Q 441 120 412 120 H 230 V 15 Z M 367 338 V 502 H 325 V 338 H 188 V 304 H 325 V 272 H 367 V 304 H 506 V 338 Z M 115 252 V 276 Q 115 294 112 304 H 122 L 159 445 Q 164 464 178 464 H 183 V 502 H 171 Q 136 501 126 466 L 98 356 L 67 466 Q 63 483 51 492 Q 39 502 24 502 H 0 V 464 H 10 Q 29 464 34 444 L 73 304 Q 77 288 77 276 V 252 H 62 Q 26 252 22 211 L 12 59 H 43 L 52 191 Q 53 204 59 210 Q 64 215 74 215 H 77 V 0 H 115 V 215 H 119 Q 130 215 135 210 Q 141 205 141 191 L 150 59 H 181 L 170 211 Q 169 229 160 240 Q 148 252 129 252 Z" fill="black" />
  </g>
  <g class="defect" id="01">
    <path d="M 321 249 Q 290 263 283 263" fill="none" stroke="red" stroke-width="3" />
  </g>
</svg>