<svg xmlns="http://www.w3.org/2000/svg" width="512" height="512" viewBox="0 0 512 512">
  <g class="glyph">
    <path d="M 473 377 H 440 V 499 H 411 V 377 H 379 V 499 H 350 V 377 H 318 V 511 H 282 V 236 H 509 V 455 Q 509 484 500 497 Q 490 511 464 511 H 450 V 479 H 452 Q 473 479 473 453 Z M 473 346 V 269 H 440 V 346 Z M 411 346 V 269 H 379 V 346 Z M 379 47 H 504 V 119 Q 504 151 490 167 Q 475 182 443 182 H 249 V 453 Q 249 483 239 496 Q 228 511 204 511 H 189 V 472 H 196 Q 203 472 205 467 Q 208 462 208 451 V 47 H 333 L 323 0 H 369 Z M 350 346 V 269 H 318 V 346 Z M 249 150 H 428 Q 449 150 456 140 Q 462 131 462 108 V 81 H 249 Z M 115 257 V 274 Q 115 295 111 310 H 121 L 154 453 Q 159 472 173 472 H 180 V 511 H 162 Q 143 526 121 472 L 97 364 L 68 472 Q 63 491 53 500 Q 42 511 23 511 H 0 V 473 H 11 Q 29 473 33 453 L 72 309 Q 77 291 77 274 V 257 H 63 Q 25 257 22 218 L 12 60 H 43 L 52 195 Q 53 209 58 214 Q 63 219 74 219 H 77 V 0 H 115 V 219 H 117 Q 128 219 133 214 Q 138 209 139 195 L 148 60 H 178 L 168 218 Q 167 237 158 246 Q 164 257 128 257 Z" fill="black" />
  </g>
  <g class="defect" id="01">
    <path d="M 162 511 Q 143 526 121 472" fill="none" stroke="red" stroke-width="3" />
  </g>
  <g class="defect" id="02">
    <path d="M 158 246 Q 164 257 128 257" fill="none" stroke="red" stroke-width="3" />
  </g>
</svg>