<svg xmlns="http://www.w3.org/2000/svg" width="512" height="512" viewBox="0 0 512 512">
  <g class="glyph">
    <path d="M 434 246 V 223 H 251 V 285 H 401 Q 420 285 427 276 Q 434 268 434 246 Z M 47 226 H 82 L 61 372 Q 38 417 12 416 H 0 V 382 H 6 Q 25 382 28 360 Z M 414 414 434 451 Q 440 463 450 467 Q 457 470 473 470 H 512 V 504 H 466 Q 439 504 427 499 Q 413 493 401 471 L 331 343 H 375 L 397 384 H 423 Q 436 384 442 380 Q 449 375 454 365 L 466 337 H 505 L 487 379 Q 479 398 469 405 Q 457 414 438 414 Z M 364 116 H 510 V 151 H 173 V 116 H 320 V 72 H 192 V 38 H 320 V 0 H 364 V 38 H 492 V 72 H 364 Z M 339 317 286 377 V 438 Q 302 484 319 470 H 365 V 504 H 299 Q 273 504 260 491 Q 248 478 248 451 V 416 Q 235 425 206 425 H 169 V 390 H 199 Q 213 390 220 387 Q 226 385 236 375 L 291 317 H 209 V 191 H 475 V 256 Q 475 288 462 302 Q 449 317 418 317 Z M 114 109 141 155 Q 147 165 149 177 Q 151 186 151 201 V 431 Q 151 471 137 487 Q 122 504 83 504 H 19 V 469 H 74 Q 94 469 102 459 Q 109 450 109 429 V 198 Q 109 181 101 168 L 89 146 L 78 162 Q 64 180 52 186 Q 40 192 16 192 H 0 V 158 H 20 Q 49 171 49 142 L 69 112 L 4 0 H 50 L 94 76 L 145 2 H 189 Z" fill="black" />
  </g>
  <g class="defect" id="01">
    <path d="M 20 158 Q 49 171 49 142" fill="none" stroke="red" stroke-width="3" />
  </g>
  <g class="defect" id="02">
    <path d="M 61 372 Q 38 417 12 416" fill="none" stroke="red" stroke-width="3" />
  </g>
  <g class="defect" id="03">
    <path d="M 286 438 Q 302 484 319 470" fill="none" stroke="red" stroke-width="3" />
  </g>
</svg>