<svg xmlns="http://www.w3.org/2000/svg" width="512" height="512" viewBox="0 0 512 512">
  <g class="glyph">
    <path d="M 488 0 V 20 Q 488 42 477 52 Q 466 61 443 61 H 20 V 28 H 417 Q 439 28 439 13 V 0 Z M 424 140 H 499 V 174 H 189 L 175 221 H 512 V 255 H 164 L 150 301 H 489 V 332 L 348 427 L 386 454 Q 409 470 434 470 H 512 V 504 H 426 Q 392 506 359 481 L 314 451 L 268 481 Q 234 504 197 504 H 120 V 469 H 184 Q 228 486 237 453 L 275 427 L 160 353 H 228 L 308 406 L 416 334 H 140 L 99 465 Q 79 487 77 496 Q 63 505 37 505 H 0 V 469 H 23 Q 40 469 47 465 Q 54 459 59 445 L 118 255 H 0 V 221 H 129 L 144 174 H 13 V 140 H 93 L 57 82 H 108 L 145 140 H 247 L 210 82 H 261 L 298 140 H 374 L 412 82 H 462 Z" fill="black" />
  </g>
  <g class="defect" id="01">
    <path d="M 184 469 Q 228 486 237 453" fill="none" stroke="red" stroke-width="3" />
  </g>
  <g class="defect" id="02">
    <path d="M 99 465 Q 79 487 77 496" fill="none" stroke="red" stroke-width="3" />
  </g>
</svg>