<svg xmlns="http://www.w3.org/2000/svg" width="512" height="512" viewBox="0 0 512 512">
  <g class="glyph">
    <path d="M 240 295 V 444 Q 240 480 226 496 Q 212 512 180 512 H 18 V 295 Z M 426 379 V 417 H 410 Q 386 417 377 404 Q 369 393 369 364 V 228 H 401 V 350 Q 401 366 406 373 Q 411 379 422 379 Z M 354 53 348 141 H 474 V 446 Q 474 461 478 468 Q 482 474 492 474 H 504 V 512 H 481 Q 455 512 445 501 Q 445 490 435 458 V 179 H 346 L 329 427 Q 327 451 333 461 Q 339 474 360 474 H 396 V 512 H 348 Q 311 512 298 493 Q 287 477 290 439 L 315 53 H 274 V 15 H 503 V 53 Z M 203 60 H 259 V 190 Q 261 257 198 256 H 0 V 60 H 51 L 18 0 H 60 L 93 60 H 161 L 195 0 H 238 Z M 202 419 H 56 V 478 H 168 Q 188 478 195 468 Q 202 459 202 436 Z M 202 387 V 330 H 56 V 387 Z M 147 223 H 186 Q 207 223 215 213 Q 221 204 221 181 V 93 H 147 V 152 L 208 126 V 159 L 147 184 Z M 111 223 V 183 L 52 159 V 126 L 111 151 V 93 H 37 V 223 Z" fill="black" />
  </g>
  <g class="defect" id="01">
    <path d="M 445 501 Q 445 490 435 458" fill="none" stroke="red" stroke-width="3" />
  </g>
</svg>