<svg xmlns="http://www.w3.org/2000/svg" width="512" height="512" viewBox="0 0 512 512">
  <g class="glyph">
    <path d="M 47 226 H 83 L 68 371 Q 62 415 17 415 H 0 V 380 H 10 Q 30 380 33 358 Z M 452 72 422 131 H 507 V 163 H 190 V 131 H 277 L 246 72 H 198 V 41 H 325 L 314 0 H 361 L 373 41 H 499 V 72 Z M 442 263 V 229 H 255 V 263 Z M 442 292 H 255 V 329 H 408 Q 444 329 435 320 Q 442 312 442 292 Z M 407 72 H 291 L 322 131 H 377 Z M 370 428 V 504 H 327 V 428 H 185 V 397 H 327 V 360 H 213 V 198 H 484 V 300 Q 484 331 470 345 Q 456 360 425 360 H 370 V 397 H 512 V 428 Z M 120 109 145 148 Q 159 171 159 201 V 436 Q 159 473 144 489 Q 130 504 97 504 H 20 V 468 H 86 Q 101 468 108 462 Q 117 454 117 433 V 198 Q 117 179 107 164 L 95 144 L 81 163 Q 68 180 54 186 Q 42 191 20 191 H 0 V 155 H 17 Q 31 155 38 152 Q 46 149 54 138 L 74 111 L 5 0 H 51 L 100 76 L 156 0 H 201 Z" fill="black" />
  </g>
  <g class="defect" id="01">
    <path d="M 408 329 Q 444 329 435 320" fill="none" stroke="red" stroke-width="3" />
  </g>
</svg>