<svg xmlns="http://www.w3.org/2000/svg" width="512" height="512" viewBox="0 0 512 512">
  <g class="glyph">
    <path d="M 443 363 H 490 L 396 474 Q 375 499 340 498 H 161 V 465 H 336 Q 369 483 366 452 Z M 399 275 H 446 L 355 382 Q 334 407 300 406 H 161 V 372 H 297 Q 313 372 326 359 Z M 338 202 H 386 L 305 293 Q 284 319 249 317 H 161 V 285 H 244 Q 263 285 276 271 Z M 61 220 V 347 Q 61 370 53 379 Q 45 388 26 388 H 0 V 348 H 8 Q 17 348 21 343 Q 24 338 24 326 V 220 Z M 243 124 H 416 L 450 184 Q 457 195 464 200 Q 473 207 485 207 H 512 V 240 H 474 Q 452 240 438 231 Q 427 223 415 203 L 387 157 H 272 L 244 203 Q 232 223 222 230 Q 208 240 188 240 H 146 V 207 H 174 Q 187 207 195 201 Q 201 196 209 184 Z M 323 42 H 508 V 76 H 130 V 433 Q 131 498 66 498 H 1 V 459 H 53 Q 73 459 81 449 Q 89 439 89 416 V 187 H 55 Q 14 187 14 137 V 32 H 50 V 126 Q 50 139 54 144 Q 58 148 70 148 H 89 V 42 H 272 L 260 0 H 310 Z" fill="black" />
  </g>
  <g class="defect" id="01">
    <path d="M 336 465 Q 369 483 366 452" fill="none" stroke="red" stroke-width="3" />
  </g>
</svg>