<svg xmlns="http://www.w3.org/2000/svg" width="512" height="512" viewBox="0 0 512 512">
  <g class="glyph">
    <path d="M 56 220 V 350 Q 56 372 48 381 Q 40 391 21 391 H 0 V 354 H 6 Q 16 354 20 349 Q 23 343 23 331 V 220 Z M 177 403 H 213 L 202 453 Q 198 475 188 484 Q 177 494 155 494 H 131 V 464 H 144 Q 156 464 162 458 Q 166 454 169 442 Z M 425 472 V 501 H 308 Q 276 501 262 487 Q 249 474 249 444 V 399 H 288 V 434 Q 288 455 295 463 Q 288 472 322 472 Z M 415 423 V 446 H 379 Q 358 446 348 439 Q 337 431 333 412 L 327 387 H 365 L 369 404 Q 373 416 378 420 Q 383 423 393 423 Z M 512 464 V 494 H 490 Q 469 494 458 485 Q 448 476 444 457 L 433 402 H 469 L 478 445 Q 480 456 486 460 Q 491 464 503 464 Z M 408 220 V 324 H 372 V 220 Z M 489 207 V 316 Q 489 348 477 362 Q 464 377 431 377 H 381 V 349 H 418 Q 438 349 445 339 Q 452 330 452 309 V 207 Z M 438 181 H 212 Q 198 196 167 196 H 139 V 167 H 155 Q 178 167 187 152 L 217 100 H 433 L 464 152 Q 473 167 495 167 H 512 V 196 H 483 Q 452 196 438 181 Z M 420 155 404 129 H 246 L 230 155 Z M 318 39 H 511 V 70 H 121 V 434 Q 121 501 57 501 H 1 V 463 H 47 Q 68 463 76 453 Q 83 444 83 421 V 187 H 55 Q 33 187 24 175 Q -1 151 16 138 V 30 H 48 V 127 Q 48 141 53 146 Q 57 150 68 150 H 83 V 39 H 269 L 257 0 H 305 Z M 292 300 V 277 H 198 V 300 Z M 292 255 V 232 H 198 V 255 Z M 292 322 H 198 V 377 H 162 V 207 H 328 V 319 Q 328 349 315 362 Q 301 377 272 377 H 237 V 351 H 258 Q 276 351 284 344 Q 291 338 292 322 Z" fill="black" />
  </g>
  <g class="defect" id="01">
    <path d="M 24 175 Q -1 151 16 138" fill="none" stroke="red" stroke-width="3" />
  </g>
  <g class="defect" id="02">
    <path d="M 295 463 Q 288 472 322 472" fill="none" stroke="red" stroke-width="3" />
  </g>
</svg>