<svg xmlns="http://www.w3.org/2000/svg" width="512" height="512" viewBox="0 0 512 512">
  <g class="glyph">
    <path d="M 214 320 V 360 H 186 Q 150 360 156 350 Q 146 340 146 317 V 203 H 182 V 296 Q 182 310 187 315 Q 202 300 201 320 Z M 394 461 H 512 V 501 H 167 V 461 H 236 V 93 H 275 V 461 H 353 V 0 H 394 V 169 H 495 V 208 H 394 Z M 119 68 H 177 V 108 L 98 244 H 113 V 502 H 70 V 287 Q 54 303 28 303 H 0 V 262 H 20 Q 19 246 37 259 Q 44 255 50 244 L 130 108 H 13 V 68 H 75 L 67 0 H 111 Z" fill="black" />
  </g>
  <g class="defect" id="01">
    <path d="M 20 262 Q 19 246 37 259" fill="none" stroke="red" stroke-width="3" />
  </g>
  <g class="defect" id="02">
    <path d="M 187 315 Q 202 300 201 320" fill="none" stroke="red" stroke-width="3" />
  </g>
  <g class="defect" id="03">
    <path d="M 186 360 Q 150 360 156 350" fill="none" stroke="red" stroke-width="3" />
  </g>
</svg>