<svg xmlns="http://www.w3.org/2000/svg" width="512" height="512" viewBox="0 0 512 512">
  <g class="glyph">
    <path d="M 124 433 V 229 H 70 V 465 H 96 Q 124 465 124 433 Z M 227 358 H 264 L 242 458 Q 237 481 227 491 Q 216 502 195 502 H 175 V 469 H 183 Q 211 469 199 465 Q 203 460 206 449 Z M 377 475 V 502 H 352 Q 319 502 308 471 L 287 415 H 325 L 339 454 Q 344 466 350 471 Q 355 475 366 475 Z M 266 294 V 326 H 240 Q 223 326 213 318 Q 203 310 196 291 L 172 225 H 209 L 230 278 Q 236 294 251 294 Z M 268 179 V 210 H 246 Q 227 210 218 203 Q 208 196 200 175 L 175 109 H 213 L 234 162 Q 237 172 242 175 Q 246 179 255 179 Z M 482 134 H 508 V 162 H 409 V 188 H 493 V 348 H 459 V 314 H 409 V 346 H 373 V 314 H 324 V 348 H 290 V 188 H 373 V 162 H 275 V 134 H 373 V 103 H 409 V 134 H 449 L 439 103 H 472 Z M 468 400 V 455 Q 468 479 456 491 Q 456 514 424 502 H 389 V 475 H 408 Q 420 475 426 469 Q 412 444 431 446 V 400 H 274 V 371 H 431 V 354 H 468 V 371 H 512 V 400 Z M 459 291 V 264 H 409 V 291 Z M 459 240 V 214 H 409 V 240 Z M 428 62 V 92 H 390 V 62 H 302 V 92 H 263 V 62 H 178 V 32 H 263 V 0 H 302 V 32 H 390 V 0 H 428 V 32 H 512 V 62 Z M 373 291 V 264 H 324 V 291 Z M 373 240 V 214 H 324 V 240 Z M 108 51 75 193 H 157 V 439 Q 157 502 97 502 H 34 V 250 H 29 H 0 V 214 H 13 Q 24 214 29 209 Q 33 204 37 190 L 69 51 H 4 V 15 H 165 V 51 Z" fill="black" />
  </g>
  <g class="defect" id="01">
    <path d="M 456 491 Q 456 514 424 502" fill="none" stroke="red" stroke-width="3" />
  </g>
  <g class="defect" id="02">
    <path d="M 183 469 Q 211 469 199 465" fill="none" stroke="red" stroke-width="3" />
  </g>
  <g class="defect" id="03">
    <path d="M 426 469 Q 412 444 431 446" fill="none" stroke="red" stroke-width="3" />
  </g>
</svg>