<svg xmlns="http://www.w3.org/2000/svg" width="512" height="512" viewBox="0 0 512 512">
  <g class="glyph">
    <path d="M 145 198 V 228 H 97 Q 79 228 70 221 Q 62 214 53 196 L 30 151 H 74 L 92 184 Q 96 192 100 195 Q 105 198 112 198 Z M 427 68 436 96 Q 438 105 444 109 Q 448 112 458 112 H 484 V 140 H 442 Q 423 140 413 132 Q 403 125 397 107 L 385 68 H 346 L 332 103 Q 319 137 279 137 H 254 V 105 H 264 Q 276 105 283 101 Q 290 96 295 81 L 328 0 H 374 L 360 35 H 512 V 68 Z M 331 207 H 488 V 364 Q 491 429 427 429 H 339 V 394 H 410 Q 430 394 438 385 Q 445 376 445 354 V 242 H 324 L 299 364 Q 311 380 279 412 Q 262 427 227 427 H 173 V 393 H 217 Q 236 393 246 385 Q 254 377 258 357 L 281 242 H 173 V 207 H 288 L 299 153 H 342 Z M 176 68 184 93 Q 189 109 206 109 H 233 V 137 H 191 Q 189 153 162 130 Q 167 122 146 105 L 134 68 H 96 L 82 104 Q 68 138 29 138 H 1 V 106 H 13 Q 26 106 32 101 Q 39 96 45 82 L 76 0 H 122 L 108 35 H 261 V 68 Z M 122 412 186 454 Q 209 471 244 470 H 512 V 504 H 248 Q 198 506 165 482 L 122 454 Q 114 504 57 504 H 0 V 470 H 44 Q 79 470 79 433 V 294 H 10 V 261 H 122 Z" fill="black" />
  </g>
  <g class="defect" id="01">
    <path d="M 162 130 Q 167 122 146 105" fill="none" stroke="red" stroke-width="3" />
  </g>
  <g class="defect" id="02">
    <path d="M 299 364 Q 311 380 279 412" fill="none" stroke="red" stroke-width="3" />
  </g>
  <g class="defect" id="03">
    <path d="M 191 137 Q 189 153 162 130" fill="none" stroke="red" stroke-width="3" />
  </g>
</svg>