<svg xmlns="http://www.w3.org/2000/svg" width="512" height="512" viewBox="0 0 512 512">
  <g class="glyph">
    <path d="M 142 349 106 458 Q 97 484 86 493 Q 72 504 43 504 H 0 V 472 H 32 Q 47 472 56 465 Q 63 458 68 444 L 100 349 Z M 144 321 H 85 Q 60 321 47 312 Q 38 305 28 283 L 2 231 H 45 L 67 269 Q 72 279 78 284 Q 86 289 96 289 H 144 Z M 322 504 H 282 Q 259 504 246 497 Q 251 503 221 471 L 186 422 H 232 L 259 458 Q 268 469 275 473 Q 283 478 298 478 H 322 Z M 144 212 H 90 Q 65 212 53 203 Q 60 196 32 174 L 6 121 H 49 L 71 160 Q 76 171 82 175 Q 89 180 100 180 H 144 Z M 460 144 H 507 V 171 H 354 V 199 H 485 V 351 H 449 V 324 H 354 V 351 H 317 V 324 H 222 V 354 H 185 V 199 H 317 V 171 H 163 V 144 H 317 V 112 H 354 V 144 H 422 L 412 123 H 451 Z M 450 404 V 443 Q 450 473 437 488 Q 422 504 391 504 H 345 V 478 H 374 Q 393 478 401 469 Q 408 461 408 440 V 404 H 158 V 378 H 408 V 359 H 450 V 378 H 512 V 404 Z M 449 303 V 273 H 354 V 303 Z M 449 253 V 224 H 354 V 253 Z M 429 53 436 72 Q 442 89 459 89 H 482 V 111 H 446 Q 426 111 415 105 Q 403 98 398 82 L 388 53 H 344 L 334 74 Q 320 107 281 105 H 254 V 79 H 268 Q 281 79 287 75 Q 304 53 301 56 L 328 0 H 370 L 356 29 H 512 V 53 Z M 317 303 V 273 H 222 V 303 Z M 317 253 V 224 H 222 V 253 Z M 178 53 185 72 Q 191 89 209 89 H 232 V 111 H 195 Q 175 111 164 105 Q 152 98 147 82 L 137 53 H 93 L 83 74 Q 70 107 30 105 H 1 V 79 H 17 Q 31 79 36 75 Q 43 70 50 56 L 76 0 H 119 L 105 29 H 261 V 53 Z" fill="black" />
  </g>
  <g class="defect" id="01">
    <path d="M 53 203 Q 60 196 32 174" fill="none" stroke="red" stroke-width="3" />
  </g>
  <g class="defect" id="02">
    <path d="M 246 497 Q 251 503 221 471" fill="none" stroke="red" stroke-width="3" />
  </g>
  <g class="defect" id="03">
    <path d="M 287 75 Q 304 53 301 56" fill="none" stroke="red" stroke-width="3" />
  </g>
</svg>