<svg xmlns="http://www.w3.org/2000/svg" width="512" height="512" viewBox="0 0 512 512">
  <g class="glyph">
    <path d="M 466 148 V 254 Q 466 287 454 301 Q 441 317 406 317 H 46 V 148 Z M 431 60 439 84 Q 459 82 446 97 Q 450 100 459 100 H 481 V 124 H 444 Q 408 126 399 92 L 389 60 H 343 L 329 91 Q 314 126 275 125 H 254 V 94 H 261 Q 274 94 280 89 Q 302 85 293 70 L 325 0 H 370 L 357 30 H 512 V 60 Z M 423 244 H 276 V 287 H 390 Q 410 287 417 279 Q 423 270 423 249 Z M 423 220 V 178 H 276 V 220 Z M 389 386 V 504 H 342 V 386 H 171 V 442 Q 171 474 158 489 Q 143 504 111 504 H 0 V 471 H 90 Q 110 471 118 461 Q 124 452 124 430 V 386 H 0 V 352 H 512 V 386 Z M 236 287 V 244 H 89 V 287 Z M 236 220 V 178 H 89 V 220 Z M 180 60 188 84 Q 191 93 195 97 Q 199 100 208 100 H 232 V 124 H 193 Q 185 124 164 116 Q 154 109 148 92 L 138 60 H 92 L 78 90 Q 63 126 25 125 H 1 V 93 H 10 Q 24 93 30 89 Q 36 84 42 70 L 74 0 H 119 L 105 30 H 261 V 60 Z" fill="black" />
  </g>
  <g class="defect" id="01">
    <path d="M 439 84 Q 459 82 446 97" fill="none" stroke="red" stroke-width="3" />
  </g>
  <g class="defect" id="02">
    <path d="M 280 89 Q 302 85 293 70" fill="none" stroke="red" stroke-width="3" />
  </g>
  <g class="defect" id="03">
    <path d="M 193 124 Q 185 124 164 116" fill="none" stroke="red" stroke-width="3" />
  </g>
</svg>