<svg xmlns="http://www.w3.org/2000/svg" width="512" height="512" viewBox="0 0 512 512">
  <g class="glyph">
    <path d="M 426 470 V 505 H 378 V 471 L 1 479 V 451 L 89 449 V 303 H 10 V 275 H 503 V 303 H 426 V 442 L 512 440 V 468 Z M 416 186 441 206 Q 454 218 477 218 H 511 V 248 H 470 Q 450 248 441 245 Q 429 242 415 230 L 390 208 L 369 227 Q 355 239 343 244 Q 345 258 313 248 H 274 V 218 H 307 Q 326 218 340 205 L 364 186 L 325 152 Q 317 144 313 136 Q 310 128 310 115 V 94 H 351 V 118 Q 351 130 357 135 L 390 163 L 427 131 Q 433 126 433 114 V 79 H 474 V 111 Q 474 125 471 133 Q 468 140 459 148 Z M 378 443 V 411 H 136 V 448 Z M 378 387 V 356 H 136 V 387 Z M 378 331 V 303 H 136 V 331 Z M 364 35 H 510 V 63 H 353 Q 325 73 307 84 H 275 V 57 H 296 Q 306 57 311 53 Q 317 49 321 39 L 335 0 H 375 Z M 159 119 H 267 V 143 H 100 V 166 H 249 V 204 Q 249 249 207 249 H 139 V 226 H 187 Q 207 226 207 204 V 189 H 100 V 198 Q 100 249 52 249 H 0 V 219 H 34 Q 59 219 59 192 V 143 H 2 V 119 H 117 V 93 H 22 V 71 H 117 V 48 H 11 V 23 H 117 V 0 H 159 V 23 H 263 V 48 H 159 V 71 H 251 V 93 H 159 Z" fill="black" />
  </g>
  <g class="defect" id="01">
    <path d="M 353 63 Q 325 73 307 84" fill="none" stroke="red" stroke-width="3" />
  </g>
  <g class="defect" id="02">
    <path d="M 343 244 Q 345 258 313 248" fill="none" stroke="red" stroke-width="3" />
  </g>
</svg>