<svg xmlns="http://www.w3.org/2000/svg" width="512" height="512" viewBox="0 0 512 512">
  <g class="glyph">
    <path d="M 421 410 H 92 V 506 H 47 V 222 H 466 V 444 Q 467 506 406 506 H 284 V 472 H 391 Q 421 472 421 442 Z M 421 377 V 333 H 92 V 377 Z M 421 300 V 255 H 92 V 300 Z M 339 93 V 124 Q 322 125 347 150 Q 336 158 374 158 H 512 V 192 H 358 Q 323 192 308 176 Q 294 161 294 128 V 0 H 339 V 59 H 416 Q 431 59 438 55 Q 460 51 451 39 L 463 15 H 504 L 489 54 Q 481 74 467 84 Q 453 93 428 93 Z M 175 158 0 186 V 153 L 175 125 V 79 H 11 V 46 H 175 V 0 H 219 V 201 H 175 Z" fill="black" />
  </g>
  <g class="defect" id="01">
    <path d="M 438 55 Q 460 51 451 39" fill="none" stroke="red" stroke-width="3" />
  </g>
  <g class="defect" id="02">
    <path d="M 339 124 Q 322 125 347 150" fill="none" stroke="red" stroke-width="3" />
  </g>
  <g class="defect" id="03">
    <path d="M 347 150 Q 336 158 374 158" fill="none" stroke="red" stroke-width="3" />
  </g>
</svg>