<svg xmlns="http://www.w3.org/2000/svg" width="512" height="512" viewBox="0 0 512 512">
  <g class="glyph">
    <path d="M 374 87 V 138 H 332 V 87 H 180 V 138 H 138 V 87 H 0 V 53 H 138 V 0 H 180 V 53 H 332 V 0 H 374 V 53 H 512 V 87 Z M 276 320 H 405 Q 423 320 433 310 Q 459 314 444 281 V 198 H 276 Z M 236 320 V 198 H 69 V 320 Z M 69 354 V 430 Q 69 453 76 462 Q 102 489 103 470 H 512 V 504 H 89 Q 52 504 39 489 Q 46 463 28 438 V 164 H 485 V 289 Q 485 324 469 339 Q 453 354 420 354 Z" fill="black" />
  </g>
  <g class="defect" id="01">
    <path d="M 39 489 Q 46 463 28 438" fill="none" stroke="red" stroke-width="3" />
  </g>
  <g class="defect" id="02">
    <path d="M 76 462 Q 102 489 103 470" fill="none" stroke="red" stroke-width="3" />
  </g>
  <g class="defect" id="03">
    <path d="M 433 310 Q 459 314 444 281" fill="none" stroke="red" stroke-width="3" />
  </g>
</svg>