<svg xmlns="http://www.w3.org/2000/svg" width="512" height="512" viewBox="0 0 512 512">
  <g class="glyph">
    <path d="M 501 462 V 492 H 439 Q 407 492 392 484 Q 366 477 361 454 L 343 426 H 392 L 405 446 Q 413 456 423 459 Q 431 462 447 462 Z M 119 426 H 169 L 150 454 Q 137 473 125 481 Q 108 492 73 492 H 10 V 462 H 68 Q 84 462 91 459 Q 100 455 106 446 Z M 378 66 V 101 H 331 V 66 H 180 V 101 H 134 V 66 H 1 V 35 H 134 V 0 H 180 V 35 H 331 V 0 H 378 V 35 H 511 V 66 Z M 376 274 413 308 Q 428 321 464 321 H 512 V 351 H 458 Q 431 351 413 345 Q 393 339 376 323 L 363 312 Q 359 339 321 339 H 279 V 379 H 494 V 410 H 279 V 503 H 233 V 410 H 18 V 379 H 233 V 339 H 152 V 312 L 140 323 Q 122 339 103 345 Q 102 351 57 351 H 0 V 321 H 48 Q 68 310 98 308 L 134 274 H 10 V 243 H 169 L 205 210 H 39 V 182 H 230 Q 233 175 233 163 V 148 H 18 V 117 H 233 V 91 H 279 V 117 H 494 V 148 H 279 V 160 Q 279 173 277 182 H 473 V 210 H 264 Q 262 212 258 216 L 228 243 H 502 V 274 Z M 340 291 322 274 H 194 L 155 309 H 300 Q 320 309 320 297 V 291 Z" fill="black" />
  </g>
  <g class="defect" id="01">
    <path d="M 103 345 Q 102 351 57 351" fill="none" stroke="red" stroke-width="3" />
  </g>
  <g class="defect" id="02">
    <path d="M 392 484 Q 366 477 361 454" fill="none" stroke="red" stroke-width="3" />
  </g>
  <g class="defect" id="03">
    <path d="M 48 321 Q 68 310 98 308" fill="none" stroke="red" stroke-width="3" />
  </g>
</svg>