<svg xmlns="http://www.w3.org/2000/svg" width="512" height="512" viewBox="0 0 512 512">
  <g class="glyph">
    <path d="M 222 376 H 283 L 203 450 Q 186 466 169 473 Q 150 479 123 479 H 0 V 444 H 119 Q 148 444 165 429 Z M 217 249 H 279 L 203 320 Q 186 336 169 342 Q 151 349 123 349 H 2 V 313 H 119 Q 148 313 164 298 Z M 339 167 H 382 V 443 Q 382 480 368 496 Q 353 512 316 512 H 236 V 477 H 299 Q 302 477 327 466 Q 334 457 334 434 V 202 H 297 Q 269 222 226 222 H 0 V 186 H 121 L 79 115 H 131 L 173 186 H 215 Q 251 186 272 170 L 219 83 Q 198 91 161 91 H 11 V 56 H 155 Q 192 56 214 37 L 258 0 H 329 L 255 62 Q 244 71 235 76 H 270 L 308 139 L 364 91 H 429 Z" fill="black" />
  </g>
  <g class="defect" id="01">
    <path d="M 299 477 Q 302 477 327 466" fill="none" stroke="red" stroke-width="3" />
  </g>
</svg>