<svg xmlns="http://www.w3.org/2000/svg" width="512" height="512" viewBox="0 0 512 512">
  <g class="glyph">
    <path d="M 485 354 H 447 V 244 H 262 V 354 H 225 V 216 H 485 Z M 474 119 V 149 Q 474 168 493 168 H 509 V 194 H 485 Q 447 211 455 185 Q 445 176 445 155 V 119 H 417 V 155 Q 417 175 407 184 Q 398 194 377 194 H 359 V 168 H 369 Q 387 168 387 149 V 119 H 359 V 92 H 417 V 55 H 392 Q 387 77 363 77 H 350 V 54 H 353 Q 359 54 362 51 Q 365 49 366 42 L 372 8 H 400 L 396 31 H 417 V 0 H 450 V 31 H 499 V 55 H 450 V 92 H 507 V 119 Z M 371 328 Q 371 343 378 349 L 429 396 Q 443 408 464 408 H 509 V 438 H 458 Q 438 438 428 435 Q 416 431 403 419 L 354 374 L 306 419 Q 294 430 283 434 Q 272 438 254 438 H 199 V 408 H 244 Q 266 408 280 396 L 331 348 Q 338 342 338 328 V 265 H 371 Z M 324 119 V 149 Q 324 168 342 168 H 349 V 194 H 334 Q 294 194 294 155 V 119 H 266 V 155 Q 266 175 256 184 Q 246 194 225 194 H 203 V 168 H 217 Q 236 168 236 149 V 119 H 201 V 92 H 265 V 55 H 238 Q 232 77 209 77 H 192 V 54 H 198 Q 205 54 207 51 Q 210 49 212 42 L 218 8 H 246 L 242 31 H 265 V 0 H 299 V 31 H 344 V 55 H 299 V 92 H 348 V 119 Z M 135 461 Q 151 470 176 470 H 512 V 503 H 170 Q 134 503 109 481 L 59 438 V 446 Q 59 476 49 489 Q 39 503 14 503 H 0 V 464 H 9 Q 27 463 27 436 V 263 H 59 V 395 L 98 430 V 221 H 3 V 182 H 76 V 103 H 12 V 65 H 76 V 0 H 114 V 65 H 180 V 103 H 114 V 182 H 188 V 221 H 135 V 298 H 187 V 336 H 135 Z" fill="black" />
  </g>
  <g class="defect" id="01">
    <path d="M 485 194 Q 447 211 455 185" fill="none" stroke="red" stroke-width="3" />
  </g>
</svg>