<svg xmlns="http://www.w3.org/2000/svg" width="512" height="512" viewBox="0 0 512 512">
  <g class="glyph">
    <path d="M 366 47 H 233 V 23 H 366 Z M 464 423 H 420 V 310 H 93 V 423 H 49 V 279 H 464 Z M 495 71 H 509 V 102 H 442 L 458 186 Q 462 203 467 209 Q 474 218 491 218 H 511 V 252 H 479 Q 451 252 439 241 Q 426 230 421 202 L 403 102 H 211 V 71 H 397 L 384 0 H 423 L 436 71 H 464 L 453 15 H 484 Z M 341 211 397 207 V 239 L 210 253 V 221 L 236 219 V 134 H 271 V 216 L 303 214 V 116 H 341 V 145 H 386 V 171 H 341 Z M 277 385 Q 293 385 281 402 L 355 458 Q 374 473 395 473 H 512 V 504 H 387 Q 365 504 351 499 Q 340 494 322 481 L 255 429 L 190 479 Q 172 493 160 498 Q 145 504 123 504 H 0 V 473 H 112 Q 135 473 153 459 L 229 402 Q 234 398 234 385 V 335 H 277 Z M 170 66 V 117 Q 170 128 169 133 Q 167 141 160 147 L 126 181 L 152 207 Q 164 219 184 219 H 200 V 251 H 174 Q 148 251 128 232 L 100 205 L 72 232 Q 61 243 51 247 Q 42 251 25 251 H 0 V 219 H 16 Q 40 205 35 216 Q 57 203 49 207 L 75 181 L 41 147 Q 32 138 32 117 V 66 H 3 V 35 H 79 L 66 1 H 109 L 122 35 H 197 V 66 Z M 135 66 H 67 V 109 Q 67 123 72 129 L 100 156 L 129 128 Q 135 122 135 108 Z" fill="black" />
  </g>
  <g class="defect" id="01">
    <path d="M 16 219 Q 40 205 35 216" fill="none" stroke="red" stroke-width="3" />
  </g>
  <g class="defect" id="02">
    <path d="M 277 385 Q 293 385 281 402" fill="none" stroke="red" stroke-width="3" />
  </g>
  <g class="defect" id="03">
    <path d="M 35 216 Q 57 203 49 207" fill="none" stroke="red" stroke-width="3" />
  </g>
</svg>