<svg xmlns="http://www.w3.org/2000/svg" width="512" height="512" viewBox="0 0 512 512">
  <g class="glyph">
    <path d="M 47 246 V 373 Q 47 393 41 403 Q 34 416 17 416 H 0 V 379 H 3 Q -4 379 15 374 Q 17 370 17 361 V 246 Z M 251 439 H 234 Q 214 439 206 426 Q 210 415 200 392 V 246 H 229 V 377 Q 229 389 233 394 Q 237 401 248 401 H 251 Z M 459 171 H 512 V 209 H 347 L 328 268 H 487 V 437 Q 487 469 474 484 Q 459 500 428 500 H 292 V 339 Q 283 345 268 345 H 240 V 310 H 253 Q 265 310 272 304 Q 278 300 282 288 L 308 209 H 253 V 171 H 342 V 95 H 267 V 60 H 342 V 0 H 384 V 60 H 438 V 95 H 384 V 171 H 421 L 470 19 H 509 Z M 448 396 H 330 V 467 H 415 Q 435 467 442 457 Q 448 448 448 427 Z M 448 366 V 302 H 330 V 366 Z M 175 208 V 444 Q 175 468 166 483 Q 154 500 132 500 H 110 V 461 H 120 Q 140 461 140 428 V 208 H 106 V 444 Q 106 468 95 483 Q 83 500 59 500 H 17 V 461 H 46 Q 70 461 70 429 V 208 H 5 V 169 H 103 V 95 H 24 V 58 H 103 V 1 H 143 V 58 H 222 V 95 H 143 V 169 H 235 V 208 Z" fill="black" />
  </g>
  <g class="defect" id="01">
    <path d="M 206 426 Q 210 415 200 392" fill="none" stroke="red" stroke-width="3" />
  </g>
  <g class="defect" id="02">
    <path d="M 3 379 Q -4 379 15 374" fill="none" stroke="red" stroke-width="3" />
  </g>
</svg>