<svg xmlns="http://www.w3.org/2000/svg" width="512" height="512" viewBox="0 0 512 512">
  <g class="glyph">
    <path d="M 400 227 455 361 Q 460 372 468 377 Q 474 381 488 381 H 507 V 418 H 484 Q 458 418 445 412 Q 431 404 423 385 L 379 278 L 335 385 Q 327 404 312 412 Q 299 418 273 418 H 249 V 381 H 270 Q 283 381 290 377 Q 297 373 302 361 L 357 227 L 264 0 H 307 L 379 175 L 451 0 H 493 Z M 170 461 Q 182 464 196 464 H 512 V 503 H 195 Q 156 503 129 481 L 77 439 V 446 Q 90 462 66 488 Q 55 503 29 503 H 0 V 464 H 21 Q 40 464 40 437 V 263 H 77 V 391 L 129 433 V 221 H 3 V 182 H 106 V 103 H 13 V 65 H 106 V 0 H 148 V 65 H 248 V 103 H 148 V 182 H 259 V 221 H 170 V 297 H 246 V 335 H 170 Z" fill="black" />
  </g>
  <g class="defect" id="01">
    <path d="M 77 446 Q 90 462 66 488" fill="none" stroke="red" stroke-width="3" />
  </g>
</svg>