<svg xmlns="http://www.w3.org/2000/svg" width="512" height="512" viewBox="0 0 512 512">
  <g class="glyph">
    <path d="M 148 120 H 104 Q 83 120 73 111 Q 63 103 53 78 L 23 0 H 72 L 98 61 Q 107 81 120 81 H 148 Z M 454 109 V 182 Q 454 205 449 218 Q 444 233 430 247 L 367 313 L 410 359 Q 428 377 458 377 H 506 V 417 H 451 Q 427 417 412 411 Q 415 419 381 389 L 337 343 L 294 389 Q 278 405 262 411 Q 248 417 224 417 H 169 V 377 H 217 Q 246 377 264 359 L 308 313 L 244 247 Q 231 233 225 218 Q 221 205 221 182 V 109 H 167 V 70 H 313 L 291 0 H 337 L 359 70 H 507 V 109 Z M 410 109 H 264 V 184 Q 264 207 275 219 L 337 283 L 400 219 Q 410 209 410 184 Z M 129 396 188 448 Q 219 458 213 462 Q 225 465 247 465 H 512 V 504 H 251 Q 217 504 198 499 Q 178 494 161 478 L 129 449 Q 125 504 65 504 H 0 V 466 H 49 Q 85 466 86 428 V 209 H 10 V 171 H 129 Z" fill="black" />
  </g>
  <g class="defect" id="01">
    <path d="M 412 411 Q 415 419 381 389" fill="none" stroke="red" stroke-width="3" />
  </g>
  <g class="defect" id="02">
    <path d="M 188 448 Q 219 458 213 462" fill="none" stroke="red" stroke-width="3" />
  </g>
</svg>