<svg xmlns="http://www.w3.org/2000/svg" width="512" height="512" viewBox="0 0 512 512">
  <g class="glyph">
    <path d="M 449 393 466 437 Q 472 452 479 458 Q 487 463 504 463 H 512 V 504 H 498 Q 475 504 463 497 Q 462 474 441 467 L 429 438 L 417 467 Q 407 489 394 497 Q 382 504 359 504 H 341 V 463 H 350 Q 369 463 378 457 Q 386 452 393 436 L 411 393 L 375 301 Q 370 287 370 268 V 174 H 404 V 262 Q 404 276 408 287 L 431 347 L 456 287 Q 460 280 460 262 V 143 H 494 V 268 Q 494 290 489 301 Z M 423 79 H 512 V 119 H 414 Q 422 153 396 152 Q 385 161 361 161 H 349 V 120 H 354 Q 367 120 372 116 Q 379 111 382 96 L 404 0 H 442 Z M 293 404 H 218 V 504 H 183 V 236 H 328 V 448 Q 328 476 319 489 Q 324 505 284 505 H 254 V 472 H 270 Q 293 472 293 447 Z M 293 374 V 337 H 218 V 374 Z M 293 307 V 269 H 218 V 307 Z M 276 45 H 343 V 78 H 254 L 208 164 H 284 Q 292 164 294 160 Q 296 156 292 148 L 270 103 H 304 L 328 153 Q 337 172 330 184 Q 323 197 301 197 H 172 V 164 L 218 78 H 169 V 45 H 237 L 230 0 H 269 Z M 118 389 V 504 H 82 V 394 L 0 407 V 368 L 82 355 V 270 H 7 V 231 L 39 97 H 1 V 57 H 49 L 63 0 H 98 L 84 57 H 157 V 97 H 74 L 42 231 H 85 V 131 H 118 V 231 H 160 V 270 H 118 V 349 L 165 342 V 381 Z" fill="black" />
  </g>
  <g class="defect" id="01">
    <path d="M 319 489 Q 324 505 284 505" fill="none" stroke="red" stroke-width="3" />
  </g>
  <g class="defect" id="02">
    <path d="M 463 497 Q 462 474 441 467" fill="none" stroke="red" stroke-width="3" />
  </g>
  <g class="defect" id="03">
    <path d="M 414 119 Q 422 153 396 152" fill="none" stroke="red" stroke-width="3" />
  </g>
</svg>