<svg xmlns="http://www.w3.org/2000/svg" width="512" height="512" viewBox="0 0 512 512">
  <g class="glyph">
    <path d="M 477 283 V 379 Q 477 411 463 426 Q 448 443 414 443 H 187 V 283 Z M 138 80 V 120 H 104 Q 67 120 72 110 Q 62 102 53 78 L 23 0 H 68 L 93 60 Q 101 80 113 80 Z M 458 160 V 123 H 398 V 160 Z M 458 185 H 398 V 223 H 423 Q 444 223 451 213 Q 458 205 458 185 Z M 434 349 V 311 H 231 V 349 Z M 434 376 H 231 V 414 H 399 Q 419 414 427 405 Q 433 397 434 376 Z M 406 97 H 497 V 189 Q 497 220 483 234 Q 457 249 434 249 H 168 V 97 H 259 V 64 H 153 V 35 H 259 V 0 H 303 V 35 H 362 V 0 H 406 V 35 H 512 V 64 H 406 Z M 362 223 V 185 H 303 V 223 Z M 362 160 V 123 H 303 V 160 Z M 362 97 V 64 H 303 V 97 Z M 267 223 V 185 H 207 V 223 Z M 267 160 V 123 H 207 V 160 Z M 115 421 163 459 Q 183 476 222 476 H 511 V 504 H 230 Q 196 504 175 499 Q 153 493 136 479 L 113 460 Q 104 504 50 504 H 0 V 464 H 36 Q 53 464 62 455 Q 72 445 72 426 V 210 H 10 V 171 H 115 Z" fill="black" />
  </g>
  <g class="defect" id="01">
    <path d="M 483 234 Q 457 249 434 249" fill="none" stroke="red" stroke-width="3" />
  </g>
  <g class="defect" id="02">
    <path d="M 104 120 Q 67 120 72 110" fill="none" stroke="red" stroke-width="3" />
  </g>
</svg>