<svg xmlns="http://www.w3.org/2000/svg" width="512" height="512" viewBox="0 0 512 512">
  <g class="glyph">
    <path d="M 496 0 V 440 Q 496 473 484 489 Q 471 506 439 506 H 390 V 466 H 429 Q 445 466 451 456 Q 456 449 456 432 V 0 Z M 424 40 V 399 H 387 V 40 Z M 356 15 V 346 H 318 V 55 H 219 V 346 H 182 V 15 Z M 286 330 Q 286 345 290 355 L 328 448 Q 333 459 339 462 Q 344 465 357 465 H 370 V 506 H 348 Q 329 506 319 500 Q 309 493 301 474 L 268 392 L 231 475 Q 217 509 185 507 H 168 V 466 H 176 Q 188 466 194 462 Q 199 459 204 447 L 247 355 Q 251 345 251 331 V 91 H 286 Z M 98 332 V 454 Q 81 475 101 462 Q 103 464 108 462 L 149 440 V 479 L 108 501 Q 87 512 73 504 Q 59 496 59 470 V 332 H 2 V 295 H 59 V 214 H 15 V 178 H 148 V 214 H 98 V 295 H 159 V 332 Z M 89 60 H 159 V 98 H 78 L 73 113 Q 67 131 56 139 Q 43 151 20 150 H 0 V 112 H 16 Q 24 112 30 108 Q 37 103 40 92 L 69 0 H 109 Z" fill="black" />
  </g>
  <g class="defect" id="01">
    <path d="M 98 454 Q 81 475 101 462" fill="none" stroke="red" stroke-width="3" />
  </g>
</svg>