<svg xmlns="http://www.w3.org/2000/svg" width="512" height="512" viewBox="0 0 512 512">
  <g class="glyph">
    <path d="M 450 396 H 292 V 362 H 450 Z M 216 352 H 201 Q 184 352 176 347 Q 153 324 161 327 L 150 292 H 186 L 195 316 Q 197 323 201 326 Q 205 329 212 329 H 216 Z M 88 352 H 71 V 329 H 76 Q 88 329 93 316 L 102 292 H 138 L 127 327 Q 122 342 113 347 Q 105 352 88 352 Z M 60 512 H 23 V 247 H 264 V 449 Q 264 483 252 497 Q 239 512 208 512 H 166 V 483 H 195 Q 214 483 221 473 Q 227 464 227 441 V 278 H 60 Z M 118 400 V 456 H 142 Q 156 456 162 450 Q 169 443 169 429 V 400 Z M 156 483 H 86 V 372 H 201 V 437 Q 201 461 190 472 Q 180 483 156 483 Z M 400 41 H 496 V 160 Q 496 209 450 209 H 396 L 378 109 H 411 L 424 174 H 437 Q 462 174 454 168 Q 458 162 458 150 V 76 H 344 V 252 H 511 V 446 Q 511 481 498 496 Q 485 512 450 512 H 346 V 477 H 434 Q 457 477 465 467 Q 473 457 473 433 V 287 H 306 V 41 H 359 L 370 0 H 411 Z M 195 96 H 267 V 202 H 231 V 126 H 173 V 177 Q 173 203 160 215 Q 148 226 122 226 H 89 V 201 H 108 Q 123 201 129 195 Q 134 189 134 173 V 126 H 93 L 71 188 Q 73 199 27 219 H 0 V 192 H 14 Q 32 193 38 175 L 55 126 H 5 V 96 H 93 L 42 56 H 93 L 143 96 H 146 L 203 43 H 26 V 15 H 253 V 42 Z" fill="black" />
  </g>
  <g class="defect" id="01">
    <path d="M 71 188 Q 73 199 27 219" fill="none" stroke="red" stroke-width="3" />
  </g>
  <g class="defect" id="02">
    <path d="M 437 174 Q 462 174 454 168" fill="none" stroke="red" stroke-width="3" />
  </g>
  <g class="defect" id="03">
    <path d="M 176 347 Q 153 324 161 327" fill="none" stroke="red" stroke-width="3" />
  </g>
</svg>