<svg xmlns="http://www.w3.org/2000/svg" width="512" height="512" viewBox="0 0 512 512">
  <g class="glyph">
    <path d="M 339 53 H 493 V 334 Q 493 367 480 381 Q 466 396 434 396 H 390 V 358 H 425 Q 445 358 451 349 Q 457 342 457 318 V 90 H 326 L 318 115 Q 321 147 300 145 Q 288 154 268 154 H 247 V 117 H 257 Q 269 117 275 113 Q 280 109 284 97 L 317 0 H 357 Z M 305 348 V 425 Q 305 448 312 457 Q 319 467 339 467 H 512 V 504 H 330 Q 296 504 282 488 Q 269 473 269 437 V 158 H 412 V 288 Q 412 319 400 333 Q 388 348 359 348 Z M 305 310 H 346 Q 365 310 371 302 Q 377 294 377 272 V 194 H 305 Z M 188 392 V 238 H 225 V 437 Q 225 472 210 488 Q 195 504 162 504 H 17 V 238 H 56 V 392 H 59 Q 69 392 74 387 Q 79 383 82 372 L 102 306 Q 104 299 104 286 V 222 H 140 V 286 Q 140 301 142 307 L 162 372 Q 154 403 185 392 Z M 188 426 H 177 Q 142 426 133 390 L 122 357 L 112 391 Q 106 409 97 418 Q 86 427 69 427 H 56 V 467 H 153 Q 173 467 181 457 Q 188 448 188 426 Z M 155 165 H 240 V 203 H 0 V 165 H 34 V 34 H 70 V 165 H 117 V 0 H 155 V 63 H 225 V 98 H 155 Z" fill="black" />
  </g>
  <g class="defect" id="01">
    <path d="M 318 115 Q 321 147 300 145" fill="none" stroke="red" stroke-width="3" />
  </g>
  <g class="defect" id="02">
    <path d="M 162 372 Q 154 403 185 392" fill="none" stroke="red" stroke-width="3" />
  </g>
</svg>