<svg xmlns="http://www.w3.org/2000/svg" width="512" height="512" viewBox="0 0 512 512">
  <g class="glyph">
    <path d="M 419 3 Q 423 0 424 0 Q 430 13 436 25 Q 442 38 450 50 Q 449 52 446 52 Q 443 52 440 52 Q 412 53 385 53 Q 358 52 331 52 Q 331 77 331 101 Q 331 125 331 149 H 355 Q 361 141 366 132 Q 371 123 376 115 L 380 107 Q 384 105 386 108 Q 402 128 420 146 Q 438 164 457 181 Q 457 183 455 185 Q 449 190 444 196 Q 438 202 433 208 Q 433 251 433 294 Q 433 337 433 380 Q 412 382 391 384 Q 370 387 349 390 V 355 H 331 Q 331 356 331 357 Q 347 358 331 358 Q 331 379 331 400 Q 331 422 331 443 V 473 H 409 Q 412 468 416 464 Q 419 459 424 454 H 425 Q 431 466 437 477 Q 443 488 449 500 Q 450 502 451 504 Q 453 506 451 509 Q 450 510 446 510 H 112 Q 84 510 57 510 Q 29 510 0 512 Q 1 502 1 491 Q 1 481 1 471 Q 11 472 22 472 Q 33 473 44 473 H 128 Q 128 444 128 414 Q 128 385 128 356 Q 123 356 119 355 Q 115 355 110 356 V 384 Q 89 387 68 389 Q 47 390 26 393 Q 26 355 26 316 Q 26 277 26 238 Q 26 207 26 176 Q 26 146 24 116 Q 43 121 68 125 Q 93 130 114 133 Q 119 133 119 135 Q 119 137 118 139 Q 116 142 115 144 Q 114 146 113 149 H 128 V 52 Q 119 53 110 53 Q 102 52 93 52 Q 73 52 53 53 Q 33 54 13 55 Q 13 45 13 35 Q 13 25 14 15 Q 29 16 43 17 Q 57 17 72 17 Q 125 17 177 17 Q 230 17 283 17 Q 315 17 346 17 Q 377 17 408 17 Z M 218 256 Q 219 271 219 287 Q 218 303 219 319 H 239 V 185 H 219 Q 218 203 219 220 Q 219 238 218 256 Z M 349 319 V 185 Q 344 183 340 184 Q 336 185 331 185 Q 331 203 331 220 Q 349 232 331 243 Q 331 255 331 266 Q 331 280 331 293 Q 331 306 331 319 Z M 218 473 Q 223 474 229 474 Q 234 473 239 473 Q 238 443 239 414 Q 239 384 239 355 Q 234 355 229 355 Q 223 355 218 356 Q 219 385 219 414 Q 218 444 218 473 Z M 128 319 V 185 H 110 V 319 Z M 239 149 V 53 H 219 Q 219 61 219 69 Q 218 77 218 85 Q 219 101 219 117 Q 218 133 218 149 Z" fill="black" />
  </g>
  <g class="defect" id="01">
    <path d="M 331 220 Q 349 232 331 243" fill="none" stroke="red" stroke-width="3" />
  </g>
  <g class="defect" id="02">
    <path d="M 331 357 Q 347 358 331 358" fill="none" stroke="red" stroke-width="3" />
  </g>
</svg>