<svg xmlns="http://www.w3.org/2000/svg" width="512" height="512" viewBox="0 0 512 512">
  <g class="glyph">
    <path d="M 293 2 Q 293 0 295 0 Q 296 0 297 2 Q 314 22 331 41 Q 347 60 365 78 L 378 90 Q 380 93 380 95 Q 379 97 378 98 Q 374 100 371 99 Q 368 99 365 100 Q 359 102 353 104 Q 348 105 343 109 Q 327 126 308 140 Q 289 155 269 165 Q 229 178 222 186 Q 231 187 239 189 Q 248 190 257 192 Q 259 192 262 192 Q 265 192 268 194 Q 267 195 267 196 Q 267 197 266 198 Q 260 204 254 210 Q 248 216 242 223 Q 242 240 242 257 Q 242 274 242 292 Q 242 316 242 340 Q 242 364 242 388 Q 242 398 243 407 Q 243 417 242 426 Q 242 434 239 441 Q 235 448 231 454 Q 212 472 191 486 Q 179 494 166 500 Q 154 507 140 510 Q 132 512 124 511 Q 116 511 109 506 Q 91 501 102 495 Q 100 489 99 483 Q 98 474 97 466 Q 97 458 97 449 Q 80 442 64 435 Q 48 428 33 421 Q 33 416 33 412 Q 34 409 34 405 Q 56 405 78 406 Q 99 407 121 409 Q 125 409 127 406 Q 128 404 129 401 Q 130 378 130 355 Q 129 332 129 309 Q 128 274 128 240 Q 128 205 123 171 Q 136 174 151 176 Q 166 178 181 180 Q 185 173 189 166 Q 193 159 197 152 Q 204 136 211 121 Q 217 106 224 90 Q 225 88 226 86 Q 227 84 228 81 Q 210 81 192 81 Q 173 81 155 81 Q 128 81 101 81 Q 75 81 48 81 Q 36 81 24 82 Q 13 83 1 84 Q 1 74 1 64 Q 1 55 0 44 Q 16 45 32 46 Q 47 47 63 47 H 112 Q 128 47 143 47 Q 158 47 173 47 Q 188 48 203 47 Q 212 47 221 47 Q 230 47 239 47 Q 243 47 247 47 Q 239 65 256 47 Q 265 36 275 25 Q 284 13 293 2 Z" fill="black" />
  </g>
  <g class="defect" id="01">
    <path d="M 269 165 Q 229 178 222 186" fill="none" stroke="red" stroke-width="3" />
  </g>
  <g class="defect" id="02">
    <path d="M 247 47 Q 239 65 256 47" fill="none" stroke="red" stroke-width="3" />
  </g>
  <g class="defect" id="03">
    <path d="M 109 506 Q 91 501 102 495" fill="none" stroke="red" stroke-width="3" />
  </g>
</svg>