<svg xmlns="http://www.w3.org/2000/svg" width="512" height="512" viewBox="0 0 512 512">
  <g class="glyph">
    <path d="M 32 11 Q 53 15 73 18 Q 93 22 115 24 Q 117 24 118 26 Q 118 27 116 29 L 108 38 H 151 Q 156 30 162 20 Q 167 11 171 4 Q 173 0 175 3 Q 190 22 203 37 Q 217 52 235 70 Q 237 72 234 74 Q 227 80 222 85 Q 217 89 211 95 V 161 L 186 163 Q 200 180 215 194 Q 230 208 244 220 L 246 157 L 220 159 V 119 Q 228 120 234 121 Q 240 121 247 122 Q 247 111 247 99 Q 247 87 247 74 Q 248 57 247 40 Q 246 23 244 8 Q 267 14 291 17 Q 316 20 345 23 Q 347 23 348 25 Q 348 27 346 28 Q 333 40 329 47 Q 325 53 324 59 L 322 123 H 339 Q 345 114 350 105 Q 355 95 361 84 Q 362 82 363 82 Q 365 83 366 84 Q 379 103 394 122 Q 410 140 424 154 Q 428 157 423 160 Q 419 163 414 167 Q 409 170 405 176 Q 405 209 404 249 Q 403 289 403 326 Q 402 363 401 391 Q 381 420 399 430 Q 398 438 396 444 Q 394 450 391 454 Q 385 462 378 469 Q 370 476 361 483 Q 353 489 344 494 Q 335 499 327 502 Q 316 507 304 503 Q 293 499 291 486 Q 290 480 289 469 Q 289 457 289 449 L 263 434 L 220 512 L 200 505 Q 202 495 205 485 Q 208 475 210 465 Q 193 477 172 495 Q 167 499 165 494 Q 155 469 144 446 Q 118 407 120 405 L 128 396 L 148 401 V 384 H 96 V 403 L 81 405 Q 92 411 104 417 Q 116 423 130 429 Q 132 430 133 432 Q 133 434 130 436 Q 120 441 115 444 Q 111 448 107 452 Q 100 461 95 467 Q 89 473 83 478 Q 77 483 69 487 Q 61 492 54 494 Q 40 498 30 501 Q 21 505 8 510 L 0 501 Q 12 484 21 469 Q 31 455 41 436 Q 45 429 48 422 Q 51 416 53 408 L 19 411 V 236 Q 19 231 19 223 Q 19 215 19 206 Q 19 196 18 187 Q 17 177 17 168 Q 21 169 25 170 Q 29 171 33 172 V 78 Q 33 73 33 65 Q 33 57 33 48 Q 33 39 33 29 Q 32 20 32 11 Z M 325 406 Q 327 390 327 371 Q 328 352 329 324 Q 329 295 330 255 Q 330 215 330 157 H 320 Q 318 208 315 250 Q 311 291 306 325 Q 303 340 298 359 Q 293 378 284 394 L 274 413 Q 286 414 299 414 Q 311 415 317 415 Q 321 415 323 412 Q 325 410 325 406 Z M 218 435 Q 223 411 228 388 Q 232 364 235 339 Q 238 315 240 287 Q 242 260 244 229 Q 239 233 233 239 Q 227 245 222 251 V 400 L 166 406 Q 183 411 195 417 Q 208 424 218 435 Z M 39 173 Q 56 176 71 178 Q 86 181 106 182 Q 128 171 107 186 Q 103 191 101 193 H 159 Q 164 187 168 179 Q 172 172 176 164 L 137 168 V 145 H 104 V 167 Z M 104 112 H 137 V 70 H 104 Z M 96 351 H 148 V 330 H 96 Z M 96 247 H 148 V 226 H 96 Z M 96 299 H 148 V 278 H 96 Z" fill="black" />
  </g>
  <g class="defect" id="01">
    <path d="M 144 446 Q 118 407 120 405" fill="none" stroke="red" stroke-width="3" />
  </g>
  <g class="defect" id="02">
    <path d="M 401 391 Q 381 420 399 430" fill="none" stroke="red" stroke-width="3" />
  </g>
  <g class="defect" id="03">
    <path d="M 106 182 Q 128 171 107 186" fill="none" stroke="red" stroke-width="3" />
  </g>
</svg>