<svg xmlns="http://www.w3.org/2000/svg" width="512" height="512" viewBox="0 0 512 512">
  <g class="glyph">
    <path d="M 85 0 Q 107 4 128 5 Q 150 6 172 9 Q 173 9 174 10 Q 175 11 175 11 Q 171 15 167 19 Q 163 23 159 27 Q 159 34 159 41 Q 159 48 159 55 V 69 Q 163 57 170 46 Q 176 34 181 22 Q 185 25 189 29 Q 193 32 198 35 Q 205 41 213 46 Q 221 51 227 58 Q 232 50 237 43 Q 241 36 246 29 Q 247 26 249 27 Q 251 27 253 27 Q 255 27 256 29 Q 256 30 257 31 Q 262 47 262 64 Q 262 81 259 97 Q 258 102 256 109 Q 253 116 250 122 Q 247 129 243 137 Q 240 140 238 137 Q 234 133 229 127 Q 224 121 219 115 Q 213 110 208 105 Q 202 100 199 98 Q 198 97 197 96 Q 196 95 197 94 Q 200 90 203 87 Q 206 84 208 81 Q 213 76 217 71 Q 221 67 224 61 Q 217 64 213 70 Q 208 76 202 81 Q 197 85 192 89 Q 188 93 182 95 Q 175 99 169 101 Q 162 104 155 107 Q 153 111 153 115 Q 161 118 168 121 Q 175 124 183 128 Q 194 134 204 143 Q 200 135 221 161 Q 222 162 222 164 Q 223 166 222 167 L 208 176 Q 198 182 190 189 Q 182 197 173 204 Q 170 207 168 209 Q 166 212 163 214 Q 161 215 159 214 Q 156 204 153 193 Q 149 183 146 172 Q 143 165 141 159 Q 149 153 137 147 Q 131 154 123 159 Q 113 166 104 173 Q 94 180 85 185 Q 87 193 88 200 Q 90 208 91 215 Q 110 215 128 216 Q 147 216 166 215 Q 173 215 181 216 Q 189 216 197 215 Q 199 215 202 215 Q 205 215 207 215 Q 206 213 205 212 Q 205 210 204 209 Q 213 199 221 188 Q 230 177 237 166 Q 245 154 252 141 Q 259 128 263 114 Q 266 103 267 92 Q 269 82 269 70 Q 270 53 270 35 Q 270 18 267 0 Q 285 2 302 3 Q 320 4 337 5 Q 343 6 348 6 Q 353 5 359 6 Q 359 10 357 11 Q 354 13 351 16 Q 348 19 346 22 Q 345 25 346 27 Q 346 30 346 32 Q 345 41 345 50 Q 345 59 345 68 Q 348 60 352 53 Q 356 46 359 38 Q 361 34 362 29 Q 363 25 364 21 Q 377 29 389 38 Q 401 46 413 54 Q 415 55 417 57 Q 420 59 420 61 Q 417 62 415 63 Q 413 63 411 64 Q 407 66 403 70 Q 400 74 395 76 Q 384 87 370 94 Q 356 102 341 105 L 339 113 Q 351 117 361 123 Q 371 128 382 135 Q 390 141 396 147 Q 403 153 409 160 Q 410 162 411 164 Q 412 165 413 167 Q 410 169 407 171 Q 404 172 402 174 Q 395 177 389 181 Q 384 185 377 190 Q 389 202 400 214 Q 412 226 424 237 V 239 Q 422 242 419 244 Q 416 246 413 249 Q 410 251 408 255 Q 407 258 404 261 Q 399 269 392 275 Q 386 281 379 287 Q 373 292 368 296 Q 362 300 355 303 Q 367 314 378 323 Q 390 333 402 343 L 397 347 Q 380 351 388 354 Q 383 357 378 361 Q 377 372 377 383 Q 377 394 376 404 Q 375 413 374 423 Q 373 432 371 441 Q 370 449 366 456 Q 362 463 355 468 Q 346 475 336 482 Q 326 488 314 492 Q 302 498 289 502 Q 276 505 263 505 Q 253 505 247 498 Q 245 494 244 490 Q 243 485 242 480 Q 242 473 242 465 Q 241 457 241 449 Q 231 443 220 438 Q 209 433 198 429 Q 199 425 199 422 Q 199 419 200 415 Q 213 416 224 416 Q 235 416 247 417 Q 251 417 256 417 Q 261 418 265 417 Q 268 416 269 413 Q 270 410 271 408 Q 273 392 275 375 Q 276 359 276 343 Q 261 342 246 342 Q 232 343 217 343 Q 212 356 206 370 Q 200 383 192 396 Q 177 424 151 444 Q 133 456 113 466 Q 93 475 74 485 Q 60 492 47 499 Q 33 506 19 512 Q 14 508 10 502 Q 14 496 19 490 Q 25 483 29 477 Q 46 456 62 433 Q 77 410 89 385 Q 94 375 99 364 Q 104 353 108 343 Q 93 343 77 343 Q 61 343 45 346 Q 44 337 44 329 Q 44 321 43 313 Q 34 299 23 287 Q 12 274 0 263 Q 1 261 4 259 Q 20 243 36 227 L 54 205 Q 47 209 41 213 Q 34 217 27 221 L 17 211 Q 23 205 28 198 Q 33 191 39 184 Q 46 175 53 166 Q 60 157 66 147 Q 71 135 76 124 Q 80 112 83 100 Q 84 92 85 85 Q 86 78 86 70 Q 86 60 86 49 Q 87 38 86 27 Q 86 20 86 14 Q 85 7 85 0 Z M 71 308 Q 84 309 96 309 Q 108 309 120 309 Q 125 296 128 283 Q 131 270 133 256 Q 134 255 134 254 Q 134 253 135 254 Q 141 255 145 256 Q 150 257 154 258 Q 178 262 202 265 Q 226 267 250 270 Q 252 271 253 271 Q 255 271 255 273 Q 256 274 254 275 Q 253 276 253 277 Q 248 280 245 283 Q 241 286 237 290 Q 234 294 233 299 Q 232 305 229 310 Q 245 309 260 309 Q 276 309 292 309 Q 297 302 302 295 Q 307 288 313 281 Q 314 280 315 278 Q 316 277 318 276 Q 319 278 320 279 Q 321 271 323 263 Q 325 255 326 247 Q 317 248 308 247 Q 298 247 289 248 Q 279 248 269 247 Q 258 247 248 248 Q 232 248 216 247 Q 199 247 183 248 Q 170 248 157 248 Q 144 248 132 249 Q 122 249 112 248 Q 102 248 92 249 Q 89 281 71 308 Z M 10 86 Q 17 78 25 71 Q 33 64 40 55 Q 46 47 51 39 Q 56 31 62 22 Q 64 23 67 23 Q 70 23 72 24 Q 75 38 76 51 Q 77 64 76 78 Q 74 100 66 119 Q 64 124 61 128 Q 59 132 56 136 Q 53 136 52 134 Q 52 133 50 132 Q 32 108 12 89 Q 11 88 10 88 Q 10 87 10 86 Z M 264 215 Q 282 215 300 215 Q 319 215 337 214 Q 338 215 340 211 Q 338 207 338 204 Q 337 201 336 197 Q 333 184 330 172 Q 327 159 322 147 Q 314 157 304 165 Q 294 172 283 179 Q 268 189 253 198 Q 237 207 222 215 Z" fill="black" />
  </g>
  <g class="defect" id="01">
    <path d="M 397 347 Q 380 351 388 354" fill="none" stroke="red" stroke-width="3" />
  </g>
  <g class="defect" id="02">
    <path d="M 204 143 Q 200 135 221 161" fill="none" stroke="red" stroke-width="3" />
  </g>
  <g class="defect" id="03">
    <path d="M 141 159 Q 149 153 137 147" fill="none" stroke="red" stroke-width="3" />
  </g>
</svg>