<svg xmlns="http://www.w3.org/2000/svg" width="512" height="512" viewBox="0 0 512 512">
  <g class="glyph">
    <path d="M 135 4 Q 138 0 140 3 Q 153 23 169 43 Q 185 63 200 80 Q 202 83 199 85 L 182 100 Q 181 101 181 102 Q 180 102 180 103 Q 180 130 179 156 Q 179 183 179 210 Q 180 247 179 285 Q 179 322 179 361 Q 179 379 179 397 Q 179 415 178 434 Q 159 437 140 438 Q 121 440 103 443 Q 103 430 102 419 Q 102 407 103 396 H 80 Q 80 411 80 426 Q 80 440 79 456 Q 59 459 40 461 Q 21 463 1 465 Q 2 439 1 414 Q 1 388 1 362 Q 1 307 1 254 Q 1 201 2 147 Q 2 114 1 81 Q 1 48 0 15 Q 7 17 18 18 Q 29 20 41 22 Q 53 24 66 26 Q 79 27 90 28 Q 94 29 92 32 Q 89 36 86 39 Q 83 42 81 45 H 108 Q 116 36 123 26 Q 129 15 135 4 Z M 184 422 Q 184 418 184 415 Q 185 412 186 407 L 245 409 Q 248 409 251 409 Q 254 409 257 407 Q 258 404 259 401 Q 259 397 259 394 Q 260 377 260 360 Q 260 343 260 326 Q 260 275 260 225 Q 261 175 261 124 Q 261 108 260 93 Q 260 78 261 63 Q 252 63 240 63 Q 228 63 217 64 Q 204 64 190 65 V 26 Q 204 27 216 28 Q 227 28 240 28 H 324 Q 342 28 361 29 Q 381 29 399 29 L 410 16 Q 413 13 415 16 L 434 57 Q 435 58 436 60 Q 436 62 434 63 H 366 V 277 Q 366 307 367 337 Q 367 366 368 396 Q 368 405 368 415 Q 369 424 367 434 Q 364 447 356 455 Q 348 464 339 472 Q 323 485 305 495 Q 287 506 266 510 Q 260 512 254 512 Q 247 511 241 509 Q 236 505 234 500 Q 232 494 232 488 Q 231 478 230 468 Q 229 458 230 447 Q 222 444 215 439 Q 207 435 199 431 Q 195 429 191 427 Q 187 425 184 422 Z M 80 361 Q 86 361 91 361 Q 97 362 102 362 Q 122 321 103 254 Q 103 200 103 146 Q 103 130 103 113 Q 83 83 103 80 H 80 V 265 Q 80 289 80 313 Q 80 337 80 361 Z" fill="black" />
  </g>
  <g class="defect" id="01">
    <path d="M 102 362 Q 122 321 103 254" fill="none" stroke="red" stroke-width="3" />
  </g>
  <g class="defect" id="02">
    <path d="M 103 113 Q 83 83 103 80" fill="none" stroke="red" stroke-width="3" />
  </g>
</svg>