<svg xmlns="http://www.w3.org/2000/svg" width="512" height="512" viewBox="0 0 512 512">
  <g class="glyph">
    <path d="M 343 52 Q 346 55 342 57 Q 329 63 315 70 Q 302 77 291 84 H 339 Q 345 76 351 67 Q 356 58 361 49 Q 363 46 366 48 Q 369 51 374 57 Q 379 62 384 68 Q 390 74 395 80 Q 401 86 404 89 Q 409 94 412 97 Q 416 101 420 104 Q 421 105 421 107 Q 422 108 421 109 Q 418 112 415 114 Q 411 116 409 118 Q 404 123 402 128 Q 400 133 396 138 Q 386 154 373 167 Q 360 180 345 192 Q 343 194 340 196 Q 337 198 334 201 L 321 195 Q 328 157 331 117 H 234 Q 235 130 232 143 Q 229 157 224 170 Q 222 177 217 186 Q 213 195 207 202 Q 205 206 202 202 Q 192 188 180 174 Q 169 160 158 148 V 429 L 89 436 V 398 Q 85 398 81 398 Q 76 398 71 398 V 436 Q 71 441 71 446 Q 71 451 71 455 Q 60 456 48 458 Q 37 460 25 461 L 2 463 V 371 Q 1 351 1 330 Q 2 310 2 289 Q 2 274 2 260 Q 2 245 2 230 Q 2 213 2 195 Q 2 177 2 160 Q 2 129 2 99 Q 2 69 0 38 Q 17 41 35 44 Q 52 47 69 49 Q 73 50 78 51 Q 82 51 87 52 Q 98 54 85 55 Q 85 56 84 56 L 73 67 H 100 L 118 38 Q 121 33 124 29 Q 126 31 128 33 Q 130 35 131 38 Q 140 49 150 61 Q 159 72 168 83 L 180 95 Q 187 85 194 74 Q 200 64 205 52 L 216 53 Q 221 61 224 69 Q 226 77 229 84 H 257 L 253 72 Q 247 55 241 38 Q 234 22 227 6 L 232 0 Q 265 6 294 17 Q 323 29 343 52 Z M 165 412 Q 181 413 195 415 Q 209 416 225 417 Q 231 417 234 412 Q 236 408 236 397 V 252 Q 200 251 163 254 V 217 Q 179 218 196 219 Q 212 219 228 219 H 247 Q 280 218 312 219 Q 362 202 377 219 L 388 205 Q 390 202 391 206 Q 396 215 401 224 Q 406 233 411 242 Q 412 244 413 246 Q 415 247 413 250 Q 413 252 409 252 Q 389 252 370 252 Q 350 252 330 252 V 301 Q 329 320 330 340 Q 330 359 329 379 Q 329 391 329 402 Q 329 413 330 425 Q 330 431 330 436 Q 330 442 328 448 Q 327 452 325 456 Q 323 460 321 463 Q 307 479 289 490 Q 258 482 252 508 Q 245 511 237 511 Q 229 512 221 509 Q 217 507 214 503 Q 212 499 210 495 Q 207 485 208 475 Q 208 465 207 455 Q 195 448 185 442 Q 174 435 163 430 Z M 89 365 Q 91 347 90 329 Q 89 312 91 294 Q 91 250 91 207 Q 91 163 91 120 Q 91 115 91 110 Q 91 105 91 100 Q 86 100 81 100 Q 77 100 71 99 Q 72 121 72 142 Q 71 163 71 185 V 265 Q 71 290 71 315 Q 71 340 71 365 Z M 157 127 Q 162 122 167 115 Q 173 108 177 102 Q 172 105 167 108 Q 162 111 157 115 Z" fill="black" />
  </g>
  <g class="defect" id="01">
    <path d="M 87 52 Q 98 54 85 55" fill="none" stroke="red" stroke-width="3" />
  </g>
  <g class="defect" id="02">
    <path d="M 312 219 Q 362 202 377 219" fill="none" stroke="red" stroke-width="3" />
  </g>
  <g class="defect" id="03">
    <path d="M 289 490 Q 258 482 252 508" fill="none" stroke="red" stroke-width="3" />
  </g>
</svg>