<svg xmlns="http://www.w3.org/2000/svg" width="512" height="512" viewBox="0 0 512 512">
  <g class="glyph">
    <path d="M 323 40 Q 330 30 336 21 Q 342 11 348 0 Q 349 1 349 1 Q 350 1 350 1 Q 355 7 360 12 Q 365 18 369 24 Q 377 32 384 40 Q 392 47 400 55 Q 404 59 407 63 Q 411 67 416 69 Q 416 71 415 72 Q 413 74 412 75 Q 407 79 402 84 Q 397 88 393 93 Q 392 108 392 123 Q 393 138 392 154 V 211 Q 392 218 392 225 Q 392 232 391 239 Q 383 240 376 241 Q 369 242 361 243 Q 376 260 393 277 Q 409 293 427 308 Q 426 309 425 311 Q 425 312 424 312 Q 419 318 413 323 Q 408 328 403 334 Q 403 340 403 346 Q 403 351 403 357 Q 403 393 403 428 Q 403 463 402 499 Q 381 502 360 504 Q 339 507 318 508 V 474 Q 299 473 280 473 Q 261 473 242 473 V 503 Q 226 505 211 507 Q 197 508 182 510 L 158 512 Q 158 496 159 479 Q 159 463 158 447 Q 159 420 159 394 Q 159 368 159 341 Q 160 328 159 316 Q 159 304 160 292 Q 159 281 159 270 Q 159 260 157 249 L 172 251 Q 172 242 172 232 Q 172 222 172 211 V 151 Q 172 140 172 128 Q 172 116 173 104 Q 167 109 160 113 Q 154 117 148 123 Q 149 128 148 133 Q 148 138 148 144 Q 148 181 148 217 Q 148 254 148 290 Q 148 309 148 328 Q 148 346 148 364 Q 148 380 147 396 Q 147 413 147 429 V 441 Q 132 443 116 444 Q 108 445 100 446 Q 92 446 84 447 V 405 Q 84 403 82 403 Q 81 403 80 403 Q 77 403 74 403 Q 71 402 68 402 Q 68 417 68 431 Q 67 446 67 461 Q 51 464 34 465 Q 18 467 2 469 Q 1 448 2 426 Q 2 416 1 406 Q 1 396 2 387 Q 3 351 3 315 Q 3 280 3 244 Q 3 219 3 195 Q 3 171 3 146 Q 3 120 3 94 Q 3 68 0 42 Q 10 43 19 46 Q 29 48 39 49 Q 49 50 60 51 Q 71 52 81 53 Q 80 58 77 60 Q 74 62 73 66 Q 79 66 84 66 Q 89 66 95 66 Q 101 58 106 49 Q 112 40 117 31 Q 117 30 118 29 Q 119 28 119 27 Q 122 27 123 29 Q 127 36 130 41 Q 134 47 138 53 Q 146 65 155 76 Q 163 87 172 99 Q 183 77 172 55 Q 172 33 170 11 Q 194 15 217 19 Q 240 23 263 25 Q 267 25 266 28 Q 264 30 261 33 Q 258 36 257 40 Z M 178 253 Q 191 255 202 257 Q 214 259 226 260 Q 233 261 241 261 Q 248 262 255 263 Q 255 264 256 265 Q 256 266 256 266 Q 254 269 250 272 Q 247 275 245 279 Q 253 279 260 279 Q 267 279 275 279 H 323 Q 324 279 326 279 Q 328 280 330 277 Q 336 269 341 260 Q 346 252 350 243 Q 343 244 336 244 L 311 247 Q 311 239 311 232 Q 311 225 310 218 Q 296 218 281 219 Q 266 219 251 218 V 245 Q 233 248 214 249 Q 196 250 178 253 Z M 68 369 Q 72 369 76 369 Q 80 369 84 369 V 354 Q 85 332 84 311 Q 99 290 85 268 Q 85 226 85 184 Q 86 141 86 99 H 69 Q 68 115 69 131 Q 69 147 69 163 Q 69 189 68 215 Q 68 242 68 268 V 306 Q 68 323 68 338 Q 67 353 68 369 Z M 260 360 Q 274 359 289 360 Q 304 360 319 359 V 312 Q 300 311 280 311 Q 261 312 242 312 V 360 Z M 319 440 Q 318 428 318 416 Q 318 404 318 393 Q 299 391 280 392 Q 261 393 242 391 Q 242 404 242 416 Q 242 428 242 440 Z M 251 73 Q 252 83 252 93 Q 252 103 252 112 H 281 Q 288 112 296 113 Q 303 113 310 112 Q 311 102 311 92 Q 311 83 311 73 Q 306 73 302 73 Q 297 73 292 73 Z M 311 185 V 146 Q 296 146 282 146 Q 267 147 252 146 Q 251 156 251 166 Q 251 175 251 185 Z" fill="black" />
  </g>
  <g class="defect" id="01">
    <path d="M 84 311 Q 99 290 85 268" fill="none" stroke="red" stroke-width="3" />
  </g>
  <g class="defect" id="02">
    <path d="M 172 99 Q 183 77 172 55" fill="none" stroke="red" stroke-width="3" />
  </g>
</svg>