<svg xmlns="http://www.w3.org/2000/svg" width="512" height="512" viewBox="0 0 512 512">
  <g class="glyph">
    <path d="M 269 0 Q 285 4 301 6 Q 317 9 334 11 Q 342 12 351 13 Q 359 14 368 15 Q 369 15 369 16 Q 370 16 371 17 Q 370 19 369 20 Q 363 26 357 32 Q 352 38 348 44 Q 347 49 348 54 Q 348 59 348 65 Q 347 82 348 98 Q 348 115 348 131 V 132 Q 355 133 361 132 Q 368 132 375 132 Q 380 125 386 117 H 388 Q 388 117 389 117 Q 393 126 397 135 Q 402 144 408 153 Q 409 156 410 158 Q 412 160 411 162 Q 403 164 396 163 Q 388 162 380 162 H 348 Q 347 178 346 193 Q 346 208 343 223 Q 343 224 343 226 Q 343 227 344 228 Q 373 259 395 297 Q 400 304 403 311 Q 407 319 410 326 Q 411 330 412 333 Q 414 336 415 340 Q 397 351 381 363 Q 364 375 348 387 Q 347 388 346 389 Q 344 391 343 391 Q 338 391 338 387 Q 337 363 335 340 Q 333 317 330 294 Q 330 289 330 286 Q 329 282 328 279 Q 323 289 316 298 Q 310 307 303 315 Q 290 330 278 345 Q 265 360 253 374 L 233 396 Q 235 397 238 398 Q 240 400 242 400 Q 249 403 257 404 Q 265 405 272 407 Q 292 408 312 407 Q 332 407 353 405 Q 367 403 380 401 Q 394 399 407 395 Q 408 397 409 401 Q 410 404 411 407 Q 411 409 410 410 Q 409 411 408 413 Q 418 432 403 422 Q 402 428 402 433 Q 401 443 401 452 Q 401 462 402 472 Q 403 475 403 478 Q 403 482 401 485 Q 400 487 397 488 Q 395 489 393 490 Q 372 492 352 493 Q 332 494 312 493 Q 290 493 269 489 Q 261 487 253 484 Q 245 481 239 476 Q 227 466 221 453 Q 215 440 212 425 Q 206 432 199 438 Q 193 444 186 450 Q 173 461 160 471 Q 147 482 134 492 L 107 512 Q 105 510 102 508 Q 100 507 97 504 Q 103 495 109 486 Q 115 477 120 468 Q 127 456 134 444 Q 141 432 146 418 Q 150 408 152 397 Q 154 386 154 375 Q 154 337 155 298 Q 155 259 155 221 Q 151 221 146 221 Q 141 221 136 222 Q 135 226 136 231 Q 136 235 135 240 Q 136 273 136 306 Q 135 339 135 372 V 415 Q 105 419 76 421 V 387 H 63 Q 63 400 63 413 Q 63 426 63 440 L 0 444 Q 1 435 0 425 Q 0 416 1 407 V 295 Q 2 261 2 227 Q 2 193 2 159 Q 2 128 2 99 Q 2 69 1 39 Q 6 58 37 45 Q 54 48 72 48 Q 75 48 75 50 Q 73 53 71 55 Q 68 57 67 60 Q 71 61 75 61 Q 79 61 83 61 Q 85 61 86 60 Q 87 58 88 57 Q 93 50 97 43 Q 101 36 106 28 L 107 28 Q 107 27 107 27 Q 108 27 108 27 L 111 30 Q 117 40 124 50 Q 131 59 137 69 Q 142 75 146 80 Q 150 85 154 90 Q 155 91 156 92 Q 157 93 157 94 Q 157 98 153 99 Q 148 103 144 106 Q 140 109 136 113 Q 135 132 136 151 Q 136 170 135 189 Q 144 189 153 189 Q 162 189 171 189 Q 172 189 173 188 Q 173 188 174 187 Q 179 181 184 174 Q 189 168 193 161 Q 193 159 195 160 Q 196 160 197 161 Q 204 170 211 179 Q 218 188 227 196 Q 233 202 239 208 Q 245 214 251 220 Q 250 223 247 224 Q 245 225 242 227 L 227 238 V 330 Q 226 338 226 346 Q 227 353 226 361 Q 230 356 231 350 Q 233 345 236 339 Q 245 319 251 298 Q 257 278 262 257 Q 263 249 264 241 Q 265 233 266 225 Q 268 210 269 194 Q 271 178 270 162 Q 256 162 243 163 Q 230 164 217 164 V 129 Q 231 130 244 131 Q 257 131 271 132 V 81 Q 271 67 271 54 Q 271 40 270 27 Q 269 20 269 13 Q 269 7 269 0 Z M 143 31 Q 144 30 147 29 Q 149 28 150 26 Q 164 31 176 38 Q 188 44 200 52 Q 214 61 225 72 Q 235 84 244 97 Q 245 99 245 100 Q 245 102 244 103 Q 231 110 219 118 Q 207 126 195 134 Q 184 142 173 148 Q 168 148 167 144 Q 165 132 163 119 Q 161 106 157 94 Q 155 78 151 62 Q 147 47 143 31 Z M 76 354 Q 77 344 77 332 Q 76 321 76 310 Q 76 270 76 230 Q 88 190 77 150 Q 76 135 77 120 Q 78 105 77 92 Q 74 92 70 92 Q 67 92 63 92 V 229 Q 63 245 63 260 Q 63 275 63 290 Q 63 322 63 354 Z" fill="black" />
  </g>
  <g class="defect" id="01">
    <path d="M 76 230 Q 88 190 77 150" fill="none" stroke="red" stroke-width="3" />
  </g>
  <g class="defect" id="02">
    <path d="M 1 39 Q 6 58 37 45" fill="none" stroke="red" stroke-width="3" />
  </g>
  <g class="defect" id="03">
    <path d="M 408 413 Q 418 432 403 422" fill="none" stroke="red" stroke-width="3" />
  </g>
</svg>