<svg xmlns="http://www.w3.org/2000/svg" width="512" height="512" viewBox="0 0 512 512">
  <g class="glyph">
    <path d="M 182 0 Q 200 4 218 7 Q 237 10 255 12 L 269 15 Q 273 15 272 19 Q 268 23 265 26 Q 263 28 261 31 Q 259 34 259 34 V 57 H 288 Q 287 43 287 29 Q 287 15 286 1 Q 307 5 331 8 Q 355 12 373 13 Q 377 14 374 17 L 364 30 V 57 H 376 L 386 43 Q 389 40 390 44 Q 394 52 402 64 Q 409 77 414 85 Q 417 89 412 89 H 364 Q 364 98 363 107 Q 363 116 364 124 Q 374 135 390 149 Q 405 162 421 175 Q 424 177 420 179 Q 415 182 411 187 Q 407 191 403 196 Q 389 217 369 232 Q 364 236 358 240 Q 351 244 346 248 Q 352 255 360 264 Q 368 272 376 280 Q 384 289 392 296 Q 399 304 406 309 Q 407 311 408 312 Q 408 313 407 314 Q 401 319 396 323 Q 392 327 387 332 Q 386 352 386 372 Q 386 392 384 412 Q 383 421 382 430 Q 381 439 377 448 Q 373 455 368 460 Q 362 465 356 471 Q 349 477 341 482 Q 333 487 325 491 Q 317 495 308 499 Q 300 502 291 502 Q 287 502 282 500 Q 278 499 275 495 Q 272 492 272 489 Q 271 486 271 481 Q 270 474 269 466 Q 269 458 269 450 Q 268 450 263 446 Q 258 443 251 439 Q 244 435 235 429 L 237 419 Q 234 424 229 430 Q 223 436 221 438 Q 210 447 198 456 Q 186 465 175 475 Q 163 484 152 493 Q 140 503 128 512 Q 124 509 120 507 Q 117 504 113 502 Q 138 462 158 420 Q 167 402 174 383 Q 180 364 184 345 L 191 316 Q 192 314 192 311 Q 183 311 173 312 Q 164 312 155 313 V 276 Q 176 279 198 278 Q 199 270 201 263 Q 202 255 203 248 Q 186 256 204 228 Q 205 218 206 208 Q 212 209 218 211 Q 223 212 229 213 Q 247 217 266 220 Q 286 222 305 226 Q 306 226 308 227 Q 309 228 308 230 Q 304 234 300 237 Q 295 240 293 246 Q 290 248 290 252 Q 290 256 289 259 Q 288 264 287 269 Q 286 274 285 278 Q 293 278 300 278 Q 307 278 315 278 Q 319 271 323 265 Q 327 258 330 251 L 324 248 Q 325 244 326 241 Q 326 239 327 234 Q 328 223 330 214 Q 331 204 332 193 H 207 Q 206 209 201 222 Q 197 235 186 250 L 181 257 Q 178 259 176 256 Q 173 252 171 248 Q 168 245 165 242 Q 161 235 156 229 Q 151 223 146 217 Q 145 234 146 252 Q 146 270 146 287 V 322 Q 146 347 145 370 Q 145 394 146 419 Q 130 420 115 422 Q 99 424 84 426 Q 84 417 83 408 Q 83 399 83 391 H 67 Q 67 404 67 417 Q 66 430 67 443 Q 51 446 35 448 Q 18 449 1 450 Q 2 388 2 326 Q 1 264 1 202 Q 3 138 1 75 Q 1 65 1 55 Q 1 46 0 36 Q 17 40 34 42 Q 62 25 68 46 Q 73 48 78 48 Q 77 52 74 55 Q 71 57 69 61 Q 75 62 81 62 Q 86 62 92 62 Q 97 53 103 45 Q 108 36 113 27 Q 114 24 117 24 Q 121 32 127 39 Q 133 47 139 54 L 147 64 Q 148 61 147 59 Q 147 57 147 55 Q 156 55 165 56 Q 175 56 184 56 Q 184 42 183 28 Q 183 14 182 0 Z M 204 142 Q 205 147 205 150 Q 206 154 207 158 H 340 Q 347 147 354 132 L 287 140 Q 287 127 288 114 Q 288 102 287 89 H 259 V 136 Z M 84 357 Q 84 333 83 309 Q 83 285 84 260 Q 83 242 83 224 Q 84 206 84 188 Q 83 164 83 141 Q 84 118 84 95 H 67 Q 68 110 67 124 Q 67 138 68 153 Q 67 179 67 205 Q 67 231 67 257 Q 68 271 67 286 Q 67 300 67 314 V 357 Z M 253 414 Q 261 415 270 415 Q 279 415 287 415 Q 294 415 296 409 Q 298 398 298 387 Q 299 376 300 364 Q 300 350 301 337 Q 302 324 302 311 Q 296 311 290 311 Q 285 311 279 311 Q 275 330 270 350 Q 265 369 256 389 Q 254 396 249 402 Q 245 408 241 414 Z M 146 182 Q 156 170 165 158 Q 174 146 182 133 V 91 H 164 L 165 94 Q 167 97 164 99 Q 158 103 154 105 Q 150 107 146 111 Q 146 129 145 147 Q 145 164 146 182 Z" fill="black" />
  </g>
  <g class="defect" id="01">
    <path d="M 34 42 Q 62 25 68 46" fill="none" stroke="red" stroke-width="3" />
  </g>
  <g class="defect" id="02">
    <path d="M 203 248 Q 186 256 204 228" fill="none" stroke="red" stroke-width="3" />
  </g>
</svg>