<svg xmlns="http://www.w3.org/2000/svg" width="512" height="512" viewBox="0 0 512 512">
  <g class="glyph">
    <path d="M 39 0 Q 89 11 141 14 Q 144 14 144 16 Q 144 19 143 20 Q 135 24 130 30 Q 124 37 124 45 Q 122 63 120 79 Q 119 96 117 112 H 143 Q 149 103 154 92 Q 159 82 165 71 L 168 67 Q 170 69 172 72 Q 174 74 175 76 Q 186 90 197 103 Q 207 115 219 127 Q 219 114 219 103 Q 219 91 219 79 Q 212 78 206 79 Q 200 80 193 80 V 43 Q 205 44 217 44 Q 228 45 240 45 Q 263 45 285 45 Q 308 45 331 45 Q 338 36 344 27 Q 350 17 355 7 Q 356 6 357 5 Q 358 4 359 4 Q 385 41 413 71 Q 415 74 417 75 Q 418 77 420 79 Q 423 83 418 86 Q 414 89 410 92 Q 406 95 402 99 Q 401 102 401 104 Q 398 117 397 129 Q 395 142 393 154 Q 391 172 387 189 Q 384 207 379 224 Q 375 245 369 266 Q 363 286 356 307 Q 353 313 351 319 Q 349 325 345 332 Q 362 351 379 370 Q 397 388 416 405 Q 421 410 426 414 Q 426 418 424 421 Q 422 424 421 426 Q 420 429 417 429 Q 415 429 414 430 Q 406 432 399 439 Q 388 449 379 460 Q 371 472 363 484 Q 360 487 358 491 Q 356 494 354 497 Q 352 499 350 499 Q 347 499 345 499 Q 341 498 339 495 Q 337 493 334 491 Q 323 478 313 464 Q 304 451 294 436 Q 291 430 288 424 Q 284 418 282 412 Q 270 422 260 432 Q 249 443 238 453 Q 223 467 208 481 Q 194 495 179 509 Q 177 510 177 511 Q 176 512 175 511 Q 170 508 168 505 Q 165 502 161 500 Q 164 495 166 491 Q 169 486 173 482 Q 191 456 207 427 Q 217 410 226 394 Q 234 377 242 360 L 249 344 Q 250 343 250 342 Q 251 341 250 340 Q 248 336 247 331 Q 245 326 244 322 Q 240 302 235 282 Q 226 227 221 168 Q 220 162 220 157 Q 220 151 219 145 L 209 156 Q 207 160 207 164 Q 207 167 206 172 Q 202 205 197 238 Q 191 271 181 304 Q 179 313 176 321 Q 172 329 168 337 Q 180 346 192 355 Q 205 363 216 374 Q 218 376 216 378 Q 215 379 215 381 Q 206 394 197 408 Q 189 422 180 436 Q 175 445 170 453 Q 165 462 161 471 Q 160 473 159 474 Q 158 475 157 473 Q 150 463 143 453 Q 136 443 129 433 Q 125 428 121 422 Q 116 416 112 410 Q 100 420 89 430 Q 78 441 67 452 Q 55 464 42 476 Q 30 488 18 501 Q 14 498 10 495 Q 6 492 3 490 Q 24 460 42 430 Q 61 400 77 368 Q 66 355 54 344 Q 41 333 27 323 Q 22 319 17 316 Q 11 312 6 309 Q 12 275 18 241 Q 23 207 27 173 Q 28 165 29 158 Q 30 150 31 143 L 1 145 Q 0 136 0 128 Q 0 119 0 110 Q 9 111 17 111 Q 26 112 34 112 Q 35 95 37 77 Q 38 59 39 42 Q 40 21 39 0 Z M 240 78 Q 243 100 248 122 Q 253 144 260 166 Q 266 184 272 202 Q 279 220 288 237 Q 290 230 292 221 Q 293 213 296 205 Q 300 182 305 159 Q 295 124 312 112 Q 313 104 314 95 Q 315 87 316 78 Q 297 78 278 78 Q 259 77 240 78 Z M 83 301 Q 88 302 92 304 Q 96 306 100 307 Q 103 300 104 293 Q 106 285 108 278 Q 117 245 121 211 Q 126 177 129 142 H 114 Q 120 172 105 201 Q 100 230 94 260 Q 91 270 88 280 Q 86 291 83 301 Z" fill="black" />
  </g>
  <g class="defect" id="01">
    <path d="M 114 142 Q 120 172 105 201" fill="none" stroke="red" stroke-width="3" />
  </g>
  <g class="defect" id="02">
    <path d="M 305 159 Q 295 124 312 112" fill="none" stroke="red" stroke-width="3" />
  </g>
</svg>