<svg xmlns="http://www.w3.org/2000/svg" width="512" height="512" viewBox="0 0 512 512">
  <g class="glyph">
    <path d="M 387 339 Q 377 344 369 349 Q 361 353 353 356 Q 344 359 334 362 Q 325 364 315 367 Q 308 368 301 369 Q 294 369 287 370 Q 287 376 287 383 Q 287 390 287 397 Q 288 405 291 410 Q 294 411 297 412 Q 300 412 303 413 Q 312 413 321 413 Q 330 413 338 413 Q 342 412 345 411 Q 349 411 351 409 Q 344 405 357 400 Q 359 395 361 389 Q 364 379 367 370 Q 369 361 374 350 L 388 352 Q 389 364 389 375 Q 389 386 391 398 Q 398 399 405 401 Q 413 403 420 405 Q 427 409 430 416 Q 434 423 432 430 Q 430 436 428 440 Q 425 445 423 449 Q 404 447 406 471 Q 397 482 386 490 Q 371 499 355 500 Q 334 503 314 503 Q 293 503 272 501 Q 249 501 230 489 Q 215 479 206 461 Q 202 450 200 439 Q 198 428 197 416 Q 197 401 198 385 Q 198 370 197 354 Q 190 358 183 362 Q 176 367 169 370 Q 176 376 183 381 Q 190 386 196 392 Q 195 394 194 397 Q 192 399 191 400 Q 185 408 179 416 Q 174 425 169 433 Q 159 448 150 464 Q 141 479 133 496 Q 132 496 132 496 Q 131 496 130 496 Q 121 480 113 464 Q 105 448 96 432 Q 95 428 93 426 Q 89 430 86 434 Q 83 438 79 442 Q 66 455 53 469 Q 40 482 27 496 Q 24 500 20 504 Q 17 508 13 512 Q 10 509 6 507 Q 3 504 0 502 Q 13 483 25 463 Q 36 443 47 422 Q 53 413 57 403 Q 62 393 66 384 Q 63 379 58 374 Q 53 369 49 363 Q 33 346 16 331 Q 14 328 11 326 Q 8 324 5 321 Q 8 307 10 292 Q 13 277 15 263 Q 19 242 22 221 Q 25 200 27 179 Q 28 172 29 166 Q 29 159 29 152 Q 22 152 16 153 Q 9 153 2 153 V 117 Q 9 118 17 118 Q 25 119 33 120 Q 34 99 35 78 Q 36 56 38 34 V 3 Q 60 8 83 12 Q 105 16 128 17 Q 130 17 132 18 Q 135 19 137 19 Q 136 23 133 25 Q 130 27 127 30 Q 124 34 120 38 Q 116 42 115 48 Q 114 66 113 84 Q 112 102 110 120 H 132 L 153 85 Q 154 83 155 83 Q 157 83 158 84 L 185 118 V 84 Q 202 86 219 86 Q 219 64 219 43 Q 218 21 217 0 Q 239 4 261 8 Q 283 12 305 15 Q 310 15 315 16 Q 320 16 325 17 Q 325 20 324 21 Q 320 27 315 32 Q 310 38 306 43 Q 306 54 305 64 Q 305 75 305 86 H 315 L 326 72 Q 329 69 331 72 L 340 91 Q 346 78 351 65 Q 355 52 357 39 Q 368 46 378 51 Q 388 57 399 63 Q 409 67 417 72 Q 426 76 436 81 Q 437 81 438 81 Q 438 82 439 83 Q 438 86 436 87 Q 434 89 431 91 Q 429 94 426 96 Q 423 97 420 100 Q 418 103 416 106 Q 415 109 413 113 Q 409 124 403 135 Q 398 147 393 157 Q 387 168 381 180 Q 376 191 368 201 Q 373 202 379 202 Q 385 202 390 202 Q 395 196 400 189 Q 402 184 405 187 Q 409 197 414 206 Q 419 216 423 225 Q 426 230 426 233 Q 425 235 423 235 Q 404 236 385 235 Q 365 235 347 236 Q 332 252 318 269 Q 304 287 287 300 Q 287 309 287 317 Q 287 325 287 334 Q 288 334 289 332 Q 302 321 313 311 Q 325 300 336 288 Q 340 282 345 276 Q 350 271 355 264 Q 370 281 387 295 Q 403 310 421 324 Q 423 325 423 329 Q 419 330 415 330 Q 411 330 408 331 Q 402 332 397 334 Q 392 337 387 339 Z M 155 359 Q 166 347 176 335 Q 187 322 197 309 Q 197 297 196 284 Q 195 272 194 260 Q 204 263 214 264 Q 224 266 235 268 L 257 236 Q 248 236 239 236 Q 230 236 221 236 Q 212 236 203 236 Q 193 237 184 237 Q 184 242 183 247 Q 182 252 181 257 Q 179 272 175 286 Q 172 301 167 315 Q 164 326 160 336 Q 156 346 151 356 Z M 88 325 Q 99 294 105 262 Q 110 234 113 206 Q 115 179 118 150 Q 115 150 112 150 Q 109 150 107 150 Q 105 174 102 198 Q 98 222 95 246 Q 92 261 89 276 Q 87 290 84 304 Q 83 309 82 313 Q 81 318 81 322 Z M 206 145 Q 210 148 206 150 Q 202 153 199 156 Q 196 158 193 162 L 188 202 Q 196 202 204 202 Q 212 203 220 203 Q 219 182 220 161 Q 220 141 219 120 L 188 121 Z M 306 168 Q 312 155 318 143 Q 324 131 330 119 H 306 Z" fill="black" />
  </g>
  <g class="defect" id="01">
    <path d="M 351 409 Q 344 405 357 400" fill="none" stroke="red" stroke-width="3" />
  </g>
  <g class="defect" id="02">
    <path d="M 423 449 Q 404 447 406 471" fill="none" stroke="red" stroke-width="3" />
  </g>
</svg>