<svg xmlns="http://www.w3.org/2000/svg" width="512" height="512" viewBox="0 0 512 512">
  <g class="glyph">
    <path d="M 35 0 Q 40 1 45 2 Q 50 3 56 4 Q 73 9 91 11 Q 108 13 126 17 Q 127 21 124 22 Q 120 25 116 30 Q 112 34 110 39 Q 107 48 107 57 Q 93 66 106 75 Q 105 86 105 97 Q 105 108 103 119 H 124 Q 128 111 132 103 Q 135 95 139 87 Q 140 87 142 87 Q 143 86 144 87 Q 148 93 151 98 Q 155 103 159 108 Q 165 114 170 121 Q 176 127 181 133 Q 180 102 181 72 Q 182 41 179 10 Q 198 14 217 17 Q 236 20 256 22 Q 258 22 258 24 Q 259 27 258 28 Q 255 30 252 32 Q 249 35 247 37 Q 256 37 265 37 Q 274 37 283 37 Q 315 23 321 37 Q 340 37 359 37 Q 363 30 368 22 Q 373 14 377 7 Q 379 5 380 5 Q 381 5 382 7 Q 393 23 405 39 Q 418 54 432 68 Q 433 70 432 72 Q 431 73 429 74 Q 425 78 421 82 Q 417 85 412 90 Q 411 91 411 93 Q 411 95 411 97 V 293 Q 411 298 411 302 Q 411 307 412 312 L 348 318 Q 347 311 347 302 Q 348 293 348 285 H 335 V 360 H 381 Q 385 356 388 352 Q 391 348 394 344 Q 395 343 396 344 Q 398 345 398 347 Q 402 357 407 368 Q 412 378 417 389 Q 419 392 416 394 Q 396 393 375 394 Q 355 395 335 394 Q 334 409 334 425 Q 335 440 334 456 Q 350 457 366 456 Q 382 456 399 456 Q 402 452 405 448 Q 407 444 411 439 Q 413 442 414 444 Q 414 447 415 450 Q 419 457 422 463 Q 425 470 429 477 Q 430 480 431 483 Q 433 486 433 489 Q 423 490 412 489 Q 401 489 391 490 H 234 Q 213 490 193 490 Q 172 491 152 492 V 470 Q 152 465 152 462 Q 151 458 152 454 Q 178 456 203 456 Q 228 457 254 457 Q 253 446 253 436 Q 254 426 254 417 Q 254 411 253 405 Q 253 400 254 394 Q 243 394 232 394 Q 222 394 211 395 Q 205 395 198 395 Q 190 395 184 396 Q 182 401 179 405 Q 176 409 174 413 Q 159 431 148 450 Q 136 469 125 489 H 123 Q 114 472 106 456 Q 98 439 89 423 Q 78 437 67 449 Q 56 462 46 476 Q 37 484 30 494 Q 22 503 14 512 Q 10 510 7 508 Q 3 505 0 503 Q 6 494 11 485 Q 16 476 21 467 Q 33 447 43 427 Q 53 406 62 385 Q 49 369 37 353 Q 24 338 9 324 Q 9 319 10 313 Q 11 308 12 303 Q 14 287 17 271 Q 19 255 21 239 Q 23 217 25 195 Q 28 174 29 151 Q 23 151 18 151 Q 13 151 8 151 V 118 Q 14 118 20 119 Q 25 119 31 119 Q 32 102 33 85 Q 34 67 35 50 Q 36 37 35 25 Q 35 12 35 0 Z M 137 354 Q 148 363 159 372 Q 170 380 179 390 V 358 Q 197 360 216 360 Q 234 361 253 360 Q 254 351 254 343 Q 254 335 254 327 Q 253 316 254 306 Q 254 296 254 285 Q 251 285 249 285 Q 247 285 245 285 V 316 Q 228 317 212 318 Q 196 319 180 322 Q 181 297 180 272 Q 180 247 181 223 V 186 Q 180 178 180 170 Q 181 162 181 153 Q 180 154 178 155 Q 177 157 176 158 Q 175 164 174 169 Q 174 175 174 180 Q 171 208 168 234 Q 165 261 159 289 Q 156 305 151 322 Q 145 338 137 354 Z M 76 324 Q 78 325 79 325 Q 81 326 82 327 Q 86 312 90 297 Q 94 282 97 267 Q 98 255 100 244 Q 103 232 104 221 Q 106 203 107 186 Q 109 168 110 151 Q 107 151 105 151 Q 103 151 100 150 Q 99 167 98 184 Q 96 200 93 216 Q 91 244 86 270 Q 82 297 76 324 Z M 333 145 Q 336 145 340 145 Q 344 145 348 145 V 71 Q 344 71 341 70 Q 337 70 333 71 Z M 348 252 Q 365 219 347 215 Q 348 196 348 178 H 333 Q 332 185 332 193 Q 333 201 333 209 V 252 Z M 244 146 Q 247 145 251 145 Q 254 145 258 145 Q 258 126 258 108 Q 258 89 258 71 Q 254 72 251 71 Q 247 71 244 71 Q 245 89 244 108 Q 243 127 244 146 Z M 244 252 Q 247 252 251 252 Q 254 252 258 252 Q 258 234 258 215 Q 257 197 258 178 H 244 Z" fill="black" />
  </g>
  <g class="defect" id="01">
    <path d="M 107 57 Q 93 66 106 75" fill="none" stroke="red" stroke-width="3" />
  </g>
  <g class="defect" id="02">
    <path d="M 283 37 Q 315 23 321 37" fill="none" stroke="red" stroke-width="3" />
  </g>
  <g class="defect" id="03">
    <path d="M 348 252 Q 365 219 347 215" fill="none" stroke="red" stroke-width="3" />
  </g>
</svg>