<svg xmlns="http://www.w3.org/2000/svg" width="512" height="512" viewBox="0 0 512 512">
  <g class="glyph">
    <path d="M 161 124 Q 166 131 169 136 Q 172 142 175 145 Q 176 147 173 151 Q 170 155 167 157 Q 166 162 166 168 Q 165 173 165 179 L 174 179 H 247 V 138 H 227 L 223 144 Q 218 151 215 154 Q 212 158 208 164 L 187 145 L 164 124 Q 167 120 170 116 Q 173 111 173 107 Q 173 87 173 67 Q 173 48 172 28 Q 187 32 203 34 Q 219 36 235 40 Q 238 40 240 40 Q 243 41 244 43 Q 242 47 239 49 Q 235 52 233 56 V 106 Q 236 106 240 107 Q 243 107 247 107 Q 247 90 247 74 Q 247 58 248 42 Q 247 31 247 21 Q 247 10 246 0 Q 263 3 281 5 Q 299 7 318 10 Q 324 11 330 12 Q 337 13 343 13 Q 346 13 345 17 Q 343 18 342 19 Q 340 20 340 21 Q 336 26 333 29 Q 329 33 326 37 V 106 Q 330 107 334 107 Q 338 107 342 107 Q 343 87 343 67 Q 343 48 343 28 Q 360 32 377 35 Q 383 55 411 40 Q 415 40 412 44 Q 409 47 406 50 Q 403 53 401 56 Q 401 80 401 104 Q 401 128 401 152 Q 386 154 372 154 Q 357 155 342 158 Q 343 152 342 148 Q 342 143 343 138 Q 338 138 334 138 Q 330 137 326 137 V 180 Q 333 179 341 179 Q 349 179 356 179 H 388 Q 393 175 395 171 Q 398 167 403 164 Q 407 175 413 186 Q 418 197 425 208 Q 424 209 424 210 Q 423 211 423 212 H 314 Q 281 210 246 212 Q 254 213 263 215 Q 271 216 279 217 Q 286 218 293 219 Q 300 220 308 221 Q 316 223 324 224 Q 333 225 340 226 Q 342 226 345 228 Q 339 233 334 238 Q 329 243 325 249 Q 325 253 326 256 Q 326 259 326 262 Q 331 261 335 262 Q 340 262 345 261 Q 345 262 348 259 Q 354 252 359 244 Q 363 237 368 230 Q 369 228 372 228 Q 384 243 397 259 Q 409 274 425 286 Q 426 288 425 290 Q 424 292 423 293 Q 412 300 405 310 V 388 Q 394 391 382 391 Q 371 392 360 393 Q 381 407 399 426 Q 417 446 426 470 Q 426 474 423 476 Q 414 480 404 484 Q 395 488 386 493 Q 379 496 373 500 Q 366 503 360 508 Q 360 509 358 509 Q 357 509 356 510 Q 356 509 356 508 Q 356 507 356 506 Q 355 490 353 475 Q 334 447 349 445 Q 335 452 322 460 Q 310 468 296 474 Q 281 480 265 484 Q 250 488 234 491 Q 223 492 211 494 Q 199 496 188 498 Q 184 498 180 500 Q 177 502 174 505 Q 172 507 171 508 Q 170 510 167 511 Q 166 512 166 511 Q 166 510 165 509 Q 173 476 152 443 Q 151 438 150 434 Q 150 430 148 425 Q 158 426 168 426 Q 178 425 188 425 Q 203 425 217 425 Q 231 424 246 424 V 377 H 231 V 402 L 189 407 Q 184 408 178 409 Q 172 410 166 411 V 399 Q 160 407 154 415 Q 148 423 143 431 Q 136 441 130 452 Q 124 463 117 474 Q 116 476 113 476 Q 111 476 110 473 Q 103 459 95 446 Q 87 432 80 418 Q 71 431 61 442 Q 51 453 41 465 Q 35 473 28 481 Q 21 489 14 498 Q 12 495 9 493 Q 6 491 3 489 Q 9 477 15 464 Q 22 452 28 440 Q 36 425 43 411 Q 49 397 56 382 Q 55 378 52 376 Q 50 373 48 370 Q 39 356 27 342 Q 16 328 3 316 V 312 Q 11 273 17 235 Q 22 196 26 157 Q 20 157 13 157 Q 7 157 1 158 Q 0 149 1 141 Q 1 133 1 125 Q 8 125 15 125 Q 21 126 28 126 Q 29 110 30 95 Q 31 79 32 64 Q 32 49 32 34 Q 32 19 31 4 Q 47 7 63 10 Q 79 14 94 17 Q 102 17 110 18 Q 118 19 126 21 Q 126 22 126 23 Q 126 25 125 26 Q 120 29 116 32 Q 111 35 107 40 Q 105 42 105 45 Q 104 48 104 51 L 100 126 H 117 Q 121 118 126 109 Q 130 101 134 93 Q 135 90 137 90 Q 139 90 140 91 Z M 132 350 Q 141 358 150 366 Q 158 375 166 385 V 353 Q 166 323 166 294 Q 166 265 164 236 L 202 241 Q 212 242 221 243 Q 231 244 242 245 Q 243 245 243 247 Q 243 249 242 250 Q 240 253 238 256 Q 235 259 233 263 Q 236 263 239 263 Q 243 263 246 262 Q 246 249 245 237 Q 244 224 244 212 Q 223 212 203 212 Q 183 212 163 212 Q 162 221 161 230 Q 159 238 159 247 Q 158 254 156 261 Q 155 268 154 276 Q 152 283 151 290 Q 149 297 148 304 Q 142 327 132 350 Z M 80 318 Q 82 305 86 293 Q 89 280 91 268 Q 97 241 101 213 Q 104 185 106 156 H 97 Q 96 165 95 175 Q 95 185 93 194 Q 89 222 85 246 Q 82 263 79 280 Q 75 297 70 315 Z M 325 345 Q 329 345 333 345 Q 336 345 340 346 Q 340 332 340 320 Q 340 307 340 294 H 325 Q 325 307 326 320 Q 326 332 325 345 Z M 246 345 Q 246 332 245 320 Q 244 307 246 295 H 231 Q 231 307 231 320 Q 231 332 231 345 Z M 325 420 Q 330 420 334 420 Q 339 419 345 419 Q 342 413 341 407 Q 340 402 338 396 Q 338 394 339 391 Q 340 388 340 386 Q 340 383 340 381 Q 340 378 340 376 Q 336 376 333 376 Q 330 377 325 377 Q 326 387 326 398 Q 325 409 325 420 Z" fill="black" />
  </g>
  <g class="defect" id="01">
    <path d="M 165 509 Q 173 476 152 443" fill="none" stroke="red" stroke-width="3" />
  </g>
  <g class="defect" id="02">
    <path d="M 353 475 Q 334 447 349 445" fill="none" stroke="red" stroke-width="3" />
  </g>
  <g class="defect" id="03">
    <path d="M 377 35 Q 383 55 411 40" fill="none" stroke="red" stroke-width="3" />
  </g>
</svg>