<svg xmlns="http://www.w3.org/2000/svg" width="512" height="512" viewBox="0 0 512 512">
  <g class="glyph">
    <path d="M 184 321 Q 193 324 201 324 Q 209 324 212 321 Q 213 320 213 317 Q 214 314 214 311 V 302 H 177 V 364 Q 162 365 148 367 Q 134 369 119 370 V 231 Q 119 215 119 208 Q 118 201 117 192 L 124 193 V 107 Q 124 95 123 86 Q 123 76 122 66 Q 138 69 156 71 Q 173 73 190 75 Q 194 76 191 79 Q 190 79 188 80 Q 187 82 187 82 Q 186 83 185 84 H 220 Q 225 78 228 72 Q 232 66 236 60 Q 220 60 204 61 Q 188 61 172 60 H 110 Q 112 89 110 117 V 176 Q 110 183 111 189 Q 111 196 110 203 Q 111 225 111 247 Q 111 268 110 291 Q 107 313 104 334 Q 100 356 92 376 Q 89 385 84 392 Q 80 400 76 407 Q 59 440 39 471 Q 32 482 26 492 Q 21 502 15 512 L 0 508 Q 0 505 1 503 Q 2 500 2 497 Q 5 479 9 460 Q 12 441 15 422 Q 16 413 18 404 Q 19 395 20 386 Q 24 350 26 314 Q 28 278 28 241 Q 28 224 28 206 Q 28 188 28 170 Q 28 143 28 115 Q 28 87 28 59 Q 28 45 26 30 Q 25 15 24 0 Q 29 1 33 2 Q 38 3 43 4 Q 59 6 76 9 Q 92 11 109 13 Q 112 13 116 13 Q 119 13 123 14 V 14 Q 123 15 123 15 Q 121 18 119 21 Q 116 24 114 28 Q 144 26 174 27 Q 204 28 234 28 Q 274 28 314 28 Q 354 28 395 26 Q 398 23 401 19 Q 403 16 408 13 Q 412 22 417 32 Q 422 42 428 51 Q 428 53 429 54 Q 430 56 431 58 Q 430 60 427 60 Q 425 59 422 60 Q 389 59 356 60 Q 324 60 291 60 Q 278 59 266 60 Q 254 60 242 60 Q 252 72 262 82 Q 273 93 284 103 Q 284 104 285 106 Q 287 107 285 108 Q 293 112 275 116 Q 270 120 265 125 V 188 L 252 189 Q 257 195 262 200 Q 267 205 272 209 Q 277 214 282 217 Q 287 221 292 225 Q 288 230 285 232 Q 281 235 278 238 Q 275 240 275 243 Q 275 245 275 247 Q 274 261 275 274 Q 275 288 276 301 Q 277 305 277 308 Q 277 311 278 314 Q 284 294 288 273 Q 293 252 294 231 Q 295 221 296 211 Q 296 201 296 192 Q 289 192 283 192 Q 277 192 270 193 V 157 Q 278 158 284 159 Q 289 159 298 159 Q 297 146 297 133 Q 297 120 297 108 Q 296 97 296 86 Q 295 76 294 65 Q 303 66 311 68 Q 319 69 328 70 Q 333 71 341 72 Q 348 73 356 74 Q 363 75 369 75 Q 376 76 380 77 Q 381 77 382 78 Q 382 80 381 81 Q 379 84 378 85 Q 376 86 375 89 Q 383 89 392 93 Q 400 97 407 102 Q 414 108 420 114 Q 426 120 429 125 Q 430 128 427 130 Q 421 132 415 136 Q 409 139 403 143 Q 406 149 410 157 Q 414 164 417 171 Q 421 178 424 186 Q 426 191 420 191 H 388 Q 378 191 366 190 Q 367 196 368 201 Q 368 206 369 211 Q 376 226 383 241 Q 391 255 401 268 Q 408 279 417 289 Q 426 299 435 308 Q 434 312 432 315 Q 431 319 430 323 Q 428 323 426 322 Q 423 322 421 323 Q 416 325 413 328 Q 410 331 408 333 Q 402 339 398 344 Q 394 350 390 356 Q 386 362 380 363 Q 372 362 369 354 Q 364 342 362 331 Q 359 319 357 306 Q 355 295 354 285 Q 353 275 352 265 Q 348 272 345 280 Q 341 288 336 296 Q 325 309 314 322 Q 304 335 294 349 Q 289 355 284 360 Q 280 366 275 371 Q 285 373 295 374 Q 305 376 316 376 Q 316 380 315 381 Q 311 385 307 389 Q 304 394 300 398 Q 317 397 334 397 Q 351 397 368 397 Q 372 393 375 389 Q 378 385 382 382 H 383 Q 387 389 390 396 Q 393 403 396 410 Q 399 415 401 419 Q 404 424 406 429 Q 402 430 397 430 Q 393 430 388 430 Q 365 430 343 430 Q 321 431 298 431 Q 298 439 298 446 Q 298 454 298 462 Q 322 462 345 462 Q 369 462 393 462 Q 397 457 400 454 Q 403 450 408 446 Q 413 458 419 469 Q 425 481 431 492 Q 430 493 429 495 Q 412 495 395 495 Q 378 495 360 495 Q 308 495 257 496 Q 205 496 153 495 Q 139 496 126 496 Q 112 496 98 496 Q 84 497 71 497 Q 70 488 70 479 Q 70 470 70 461 Q 81 461 92 461 Q 103 462 114 462 Q 136 462 157 462 Q 179 462 200 462 V 431 Q 188 432 177 431 Q 165 431 153 432 Q 140 432 127 432 Q 113 433 100 434 V 395 Q 131 397 163 397 Q 172 397 181 398 Q 190 398 198 397 Q 198 393 197 388 Q 197 382 196 376 Q 195 371 194 367 Q 194 363 194 362 Q 202 363 206 363 Q 204 358 204 352 Q 204 346 204 341 L 181 332 Z M 178 198 Q 180 198 180 199 Q 180 200 179 201 L 174 205 H 222 Q 225 202 227 198 Q 230 194 232 190 L 208 192 V 180 H 181 V 193 L 148 196 Q 155 197 163 197 Q 171 198 178 198 Z M 366 99 Q 367 114 367 129 Q 366 144 367 159 H 388 L 399 145 L 386 151 Q 382 152 382 149 Q 381 134 378 119 Q 374 103 370 94 Z M 176 245 H 214 V 230 H 176 Z M 176 280 H 214 V 266 H 176 Z M 208 123 V 107 H 183 V 123 Z M 228 366 Q 239 367 250 368 Q 261 369 273 371 L 258 361 L 268 339 Q 265 343 262 346 Q 258 349 254 353 Q 248 357 241 360 Q 234 363 228 366 Z M 208 158 V 145 H 183 V 158 Z" fill="black" />
  </g>
  <g class="defect" id="01">
    <path d="M 285 108 Q 293 112 275 116" fill="none" stroke="red" stroke-width="3" />
  </g>
</svg>