<svg xmlns="http://www.w3.org/2000/svg" width="512" height="512" viewBox="0 0 512 512">
  <g class="glyph">
    <path d="M 154 0 Q 163 0 171 1 Q 180 3 189 4 Q 207 7 225 10 Q 242 14 259 21 Q 266 25 273 29 Q 280 32 287 37 Q 281 40 295 43 Q 295 46 292 46 Q 277 52 262 59 Q 247 66 233 74 Q 261 73 289 73 Q 318 73 346 72 Q 352 63 358 53 Q 363 44 369 35 Q 371 31 373 28 Q 377 30 377 31 Q 391 49 406 66 Q 421 84 438 100 Q 437 103 434 105 Q 432 106 429 108 Q 420 111 413 119 Q 400 133 386 142 Q 372 151 353 159 L 364 183 Q 365 187 361 187 Q 353 186 344 186 Q 334 186 328 186 Q 344 206 362 224 Q 379 242 397 259 Q 400 260 402 262 Q 405 264 404 266 Q 397 272 391 278 Q 384 284 379 291 V 303 Q 378 339 378 375 Q 379 410 379 446 Q 361 449 343 450 Q 325 451 308 454 Q 301 454 293 454 Q 286 455 279 456 Q 278 448 278 440 Q 279 432 278 424 Q 254 424 230 424 Q 207 424 183 426 Q 175 426 168 426 Q 161 426 153 424 V 451 L 137 454 Q 127 454 118 455 Q 109 456 100 457 Q 87 459 75 460 Q 64 461 51 462 Q 52 448 52 434 Q 52 421 53 406 Q 52 375 53 344 Q 53 313 52 281 Q 53 262 52 241 Q 52 221 50 200 Q 57 203 64 204 Q 72 205 79 206 Q 102 211 125 213 Q 148 215 171 216 Q 173 218 171 221 Q 168 224 166 226 Q 164 229 161 231 Q 165 232 168 232 Q 171 232 175 232 Q 199 231 223 231 Q 246 231 270 231 H 287 Q 294 224 299 216 Q 304 208 309 199 Q 312 197 313 193 Q 314 190 317 186 Q 301 187 286 186 Q 271 186 255 187 Q 219 186 184 187 Q 149 188 113 188 Q 104 188 96 188 Q 87 188 78 188 Q 77 180 78 172 Q 78 164 77 156 Q 74 164 69 171 Q 64 178 59 186 Q 58 188 56 190 Q 54 192 51 191 Q 48 188 47 184 Q 41 176 37 167 Q 32 159 26 150 Q 21 141 15 134 Q 9 126 3 118 Q 2 117 2 117 Q 1 116 1 115 Q 0 112 1 111 Q 3 111 4 108 Q 22 92 38 73 Q 54 55 64 31 H 74 Q 79 41 82 52 Q 85 63 86 74 H 187 Q 180 59 173 46 Q 166 33 157 20 Q 155 17 153 13 Q 151 10 148 6 Q 153 3 154 0 Z M 8 475 Q 47 477 86 477 Q 125 476 165 476 Q 184 476 204 476 Q 224 476 244 475 Q 281 475 317 475 Q 354 475 391 475 Q 409 470 398 467 Q 401 463 404 458 Q 405 459 405 460 Q 406 460 407 461 Q 411 470 415 479 Q 419 488 423 497 Q 424 500 426 503 Q 428 505 427 508 Q 417 509 407 509 Q 397 508 386 508 Q 375 509 363 509 Q 351 509 339 509 H 248 Q 228 509 209 510 Q 189 510 168 509 Q 156 510 142 510 Q 129 510 116 510 Q 89 509 62 510 Q 35 510 8 512 Q 8 503 8 493 Q 8 484 8 475 Z M 79 152 Q 94 154 109 153 Q 124 153 139 153 Q 184 153 230 153 Q 275 153 320 152 Q 322 152 323 151 Q 325 149 326 143 Q 328 137 330 130 Q 332 123 333 116 Q 335 110 335 106 Q 281 107 229 107 Q 177 107 122 107 Q 115 107 106 108 Q 97 108 88 108 Q 89 112 88 116 Q 88 119 86 123 Q 85 130 84 138 Q 82 145 79 152 Z M 231 313 Q 243 313 255 312 Q 266 312 279 313 Q 278 300 278 288 Q 279 277 278 264 H 153 V 313 Z M 153 393 Q 165 393 176 393 Q 187 393 198 393 Q 218 393 238 393 Q 258 393 278 393 Q 279 380 278 368 Q 278 357 278 344 Q 264 345 250 344 Q 236 344 221 345 Q 204 345 187 344 Q 170 344 153 345 Z" fill="black" />
  </g>
  <g class="defect" id="01">
    <path d="M 391 475 Q 409 470 398 467" fill="none" stroke="red" stroke-width="3" />
  </g>
  <g class="defect" id="02">
    <path d="M 287 37 Q 281 40 295 43" fill="none" stroke="red" stroke-width="3" />
  </g>
</svg>