<svg xmlns="http://www.w3.org/2000/svg" width="512" height="512" viewBox="0 0 512 512">
  <g class="glyph">
    <path d="M 341 0 Q 345 2 348 4 Q 351 7 353 10 Q 364 22 375 32 Q 386 43 399 53 Q 403 56 406 59 Q 409 62 414 65 Q 417 68 417 69 Q 410 75 404 82 Q 398 89 392 96 V 169 L 304 175 V 156 H 229 Q 202 156 177 156 Q 151 157 125 157 Q 125 182 125 207 Q 126 232 125 258 H 132 Q 133 221 132 183 Q 142 185 152 187 Q 161 188 172 189 Q 184 192 196 193 Q 208 193 220 194 Q 220 189 220 184 Q 220 179 219 173 Q 232 177 246 178 Q 259 180 273 182 Q 280 183 287 183 Q 294 184 302 185 V 180 Q 308 181 320 182 Q 331 183 344 185 Q 356 186 367 187 Q 393 188 384 188 Q 385 189 386 190 Q 386 192 385 193 Q 380 199 376 204 Q 372 209 371 212 Q 371 224 371 235 Q 371 247 371 258 Q 375 258 377 258 Q 380 255 381 253 Q 383 251 385 248 Q 387 244 391 242 Q 394 248 396 254 Q 398 259 401 265 Q 404 271 407 276 Q 409 281 412 286 Q 413 290 410 290 Q 400 291 390 290 Q 380 290 371 290 Q 370 320 370 348 Q 370 376 370 406 L 302 413 V 388 Q 298 388 294 388 Q 291 388 287 388 V 409 Q 270 413 253 414 Q 237 415 220 418 Q 220 386 220 354 Q 220 322 220 290 Q 217 291 213 290 Q 210 290 206 291 V 439 H 278 Q 301 439 324 439 Q 346 439 370 439 Q 374 435 377 431 Q 380 426 385 422 Q 389 434 394 444 Q 400 455 405 466 Q 406 467 405 469 Q 405 471 403 471 Q 384 472 366 472 Q 347 472 328 472 Q 295 472 262 472 Q 230 472 197 472 Q 188 481 180 490 Q 173 499 166 509 Q 162 508 159 505 Q 156 502 153 499 Q 142 489 131 479 Q 120 468 108 459 Q 107 458 107 457 Q 107 455 106 454 Q 110 450 115 447 Q 119 444 124 441 Q 129 435 131 427 Q 132 423 132 418 Q 131 413 131 409 Q 131 387 131 365 Q 131 344 132 322 V 291 Q 130 292 128 292 Q 126 292 124 292 Q 122 305 121 320 Q 103 350 116 347 Q 111 360 106 372 Q 101 383 94 395 Q 74 423 55 452 Q 47 463 39 474 Q 31 486 23 498 Q 21 502 18 505 Q 16 508 14 512 Q 11 510 7 509 Q 4 508 0 505 Q 8 480 13 455 Q 19 431 25 405 Q 31 377 33 350 Q 36 322 37 294 Q 37 264 37 235 Q 37 206 37 177 Q 38 150 38 123 Q 37 96 38 69 Q 37 60 37 53 Q 37 45 37 36 Q 37 30 37 24 Q 36 18 35 11 Q 42 13 48 14 Q 55 15 62 16 Q 78 19 94 22 Q 110 24 127 25 Q 130 26 134 26 Q 137 26 140 27 Q 141 27 141 28 Q 141 29 140 30 Q 124 33 135 36 Q 132 38 129 42 Q 154 41 178 41 Q 203 41 228 41 Q 250 40 272 40 Q 294 41 316 40 Q 323 32 329 19 Q 333 15 336 10 Q 339 5 341 0 Z M 126 124 Q 153 124 180 124 Q 208 124 235 123 Q 253 123 270 123 Q 286 124 304 123 Q 304 111 304 98 Q 305 86 305 74 Q 296 73 288 73 Q 280 74 272 74 Q 261 73 251 73 Q 241 74 230 74 H 126 Q 126 86 125 99 Q 125 111 126 124 Z M 287 356 Q 291 356 294 356 Q 298 356 302 356 V 291 H 287 Z M 302 258 V 207 Q 302 204 302 198 Q 302 191 302 189 Q 298 192 294 196 Q 290 199 287 204 V 258 Z M 206 218 Q 206 228 206 238 Q 206 248 206 258 Q 210 258 213 258 Q 217 258 221 258 Q 221 243 221 228 Q 220 214 220 199 Q 218 202 215 205 Q 212 208 209 212 Q 208 213 207 214 Q 206 216 206 218 Z" fill="black" />
  </g>
  <g class="defect" id="01">
    <path d="M 140 30 Q 124 33 135 36" fill="none" stroke="red" stroke-width="3" />
  </g>
  <g class="defect" id="02">
    <path d="M 121 320 Q 103 350 116 347" fill="none" stroke="red" stroke-width="3" />
  </g>
  <g class="defect" id="03">
    <path d="M 367 187 Q 393 188 384 188" fill="none" stroke="red" stroke-width="3" />
  </g>
</svg>