<svg xmlns="http://www.w3.org/2000/svg" width="512" height="512" viewBox="0 0 512 512">
  <g class="glyph">
    <path d="M 69 0 Q 99 6 130 10 Q 132 11 134 10 Q 137 10 138 12 Q 133 16 130 20 Q 126 24 123 29 Q 124 56 124 83 Q 123 109 123 137 Q 124 149 124 161 Q 123 173 123 185 Q 123 194 124 203 Q 124 212 124 222 Q 123 257 124 293 Q 123 317 123 340 Q 123 363 123 387 Q 126 387 128 387 Q 129 387 132 386 V 368 Q 131 338 132 309 Q 132 279 132 250 Q 132 232 132 214 Q 132 196 132 178 V 106 Q 132 98 132 91 Q 131 85 132 78 Q 145 80 158 83 Q 172 86 185 88 Q 185 86 185 83 Q 185 81 186 78 Q 189 78 192 79 Q 195 79 197 79 Q 211 80 225 80 Q 239 80 253 80 Q 253 68 253 57 Q 253 45 252 33 Q 251 26 251 20 Q 234 13 250 7 Q 292 29 301 15 Q 326 18 352 23 Q 354 23 354 25 Q 353 27 352 28 Q 346 33 341 39 Q 336 44 331 51 Q 331 58 332 66 Q 332 73 332 80 Q 344 80 357 80 Q 370 80 383 80 Q 385 78 388 75 Q 390 72 392 69 Q 393 68 394 67 Q 395 66 395 65 Q 400 76 405 86 Q 410 97 415 107 Q 417 108 417 110 Q 417 112 417 113 Q 408 114 399 114 Q 391 113 382 113 Q 370 114 357 114 Q 344 113 332 113 Q 331 124 332 134 Q 332 145 332 155 Q 331 173 332 190 Q 332 208 332 226 Q 332 230 332 233 Q 331 237 332 241 Q 335 226 337 211 Q 339 196 342 180 Q 343 167 344 154 Q 345 141 345 128 Q 362 132 378 136 Q 395 139 411 142 V 145 Q 407 149 403 153 Q 400 156 397 161 Q 394 172 391 183 Q 389 195 385 205 Q 393 212 400 219 Q 407 226 413 234 Q 416 238 419 243 Q 422 247 425 253 Q 428 256 426 259 Q 426 258 424 261 Q 417 265 410 271 Q 404 277 397 283 Q 393 286 390 289 Q 387 293 382 297 Q 382 298 380 297 Q 379 296 379 295 Q 377 281 376 268 Q 374 255 372 241 Q 362 254 353 266 Q 345 279 337 292 Q 336 293 334 295 Q 333 296 334 298 Q 355 331 381 361 Q 396 379 412 394 L 429 410 L 422 423 Q 420 422 417 422 Q 414 422 413 425 Q 403 434 395 446 Q 388 457 381 470 Q 378 472 375 475 Q 373 478 368 477 Q 364 477 361 474 Q 358 470 355 466 Q 350 454 344 441 Q 339 429 337 415 Q 336 409 334 403 Q 333 398 333 392 Q 333 389 331 389 Q 332 394 332 399 Q 331 404 332 409 Q 332 433 332 457 Q 331 480 332 504 Q 312 506 292 509 Q 272 511 251 512 Q 251 501 252 490 Q 252 479 252 468 Q 252 455 252 443 Q 251 431 252 419 Q 229 425 241 431 Q 222 446 203 462 Q 184 477 165 493 Q 162 492 159 489 Q 157 487 154 485 Q 158 477 162 469 Q 167 461 172 453 L 132 458 Q 130 435 132 412 Q 123 421 114 430 Q 106 438 95 444 Q 89 448 83 451 Q 76 454 69 457 Q 62 460 54 462 Q 47 465 40 469 Q 32 473 26 482 L 23 478 Q 19 459 13 442 Q 8 424 2 406 Q 1 405 1 403 Q 1 402 0 399 Q 8 398 13 395 Q 16 390 16 385 Q 16 379 16 373 Q 16 315 16 258 Q 17 201 17 143 Q 18 127 17 110 Q 17 94 16 78 Q 29 82 43 84 Q 56 86 70 89 Q 70 74 70 59 Q 69 43 69 28 Q 69 21 69 14 Q 69 7 69 0 Z M 174 365 Q 174 385 175 405 Q 175 425 175 445 Q 180 438 183 431 Q 186 424 190 417 Q 194 410 197 402 Q 201 394 205 386 Q 211 372 217 357 Q 222 343 228 328 Q 233 314 237 301 Q 242 287 246 273 Q 242 276 238 280 Q 234 284 230 287 Q 229 288 228 288 Q 226 287 226 286 Q 225 278 225 270 Q 224 262 223 254 Q 221 257 220 259 Q 219 262 218 265 Q 212 272 208 280 Q 203 287 197 294 Q 192 302 187 309 Q 181 316 175 323 Q 174 323 174 325 Q 174 326 174 327 Q 174 336 175 346 Q 175 355 174 365 Z M 174 273 Q 176 265 177 257 Q 182 237 184 217 Q 187 197 189 177 Q 190 167 191 155 Q 192 144 192 132 Q 196 133 200 134 Q 204 136 208 137 Q 218 139 227 141 Q 237 143 247 144 Q 248 145 249 145 Q 251 145 252 146 Q 253 137 253 129 Q 253 121 253 113 Q 236 114 219 114 Q 203 114 186 115 Q 186 109 185 105 Q 185 100 185 96 Q 182 99 179 101 Q 175 103 174 107 Q 175 137 175 166 Q 174 195 175 225 V 251 Q 174 257 175 262 Q 175 268 174 273 Z M 61 394 Q 63 394 65 393 Q 67 392 69 392 Q 69 370 69 347 Q 69 335 69 323 Q 69 312 69 300 Q 69 274 70 249 Q 70 224 69 198 Q 70 173 70 149 Q 69 124 70 100 Q 68 102 65 105 Q 63 108 61 110 V 160 Q 62 219 61 277 Q 60 335 61 394 Z M 234 203 Q 239 206 244 210 Q 249 214 252 218 Q 252 202 253 185 Q 253 169 252 154 Q 243 158 241 166 Q 240 175 239 184 Q 237 194 234 203 Z" fill="black" />
  </g>
  <g class="defect" id="01">
    <path d="M 250 7 Q 292 29 301 15" fill="none" stroke="red" stroke-width="3" />
  </g>
  <g class="defect" id="02">
    <path d="M 252 419 Q 229 425 241 431" fill="none" stroke="red" stroke-width="3" />
  </g>
  <g class="defect" id="03">
    <path d="M 251 20 Q 234 13 250 7" fill="none" stroke="red" stroke-width="3" />
  </g>
</svg>