<svg xmlns="http://www.w3.org/2000/svg" width="512" height="512" viewBox="0 0 512 512">
  <g class="glyph">
    <path d="M 227 16 Q 228 12 228 8 Q 229 4 230 0 Q 244 5 259 9 Q 273 13 289 17 Q 296 19 304 21 Q 312 22 320 24 Q 321 25 321 26 Q 321 27 320 27 Q 316 31 313 35 Q 309 38 305 41 Q 303 46 302 49 Q 300 53 299 57 Q 308 57 318 57 Q 328 56 337 56 Q 343 51 347 44 Q 352 38 356 31 Q 358 27 360 26 Q 363 25 364 27 Q 366 29 367 30 Q 379 46 393 59 Q 407 73 421 85 Q 419 88 416 89 Q 413 91 410 92 Q 407 94 404 97 Q 401 100 399 103 L 383 131 Q 380 138 375 143 Q 371 149 366 155 Q 379 160 391 162 Q 403 164 416 167 Q 420 168 424 169 Q 428 170 432 170 Q 432 173 432 176 Q 431 178 431 181 Q 419 186 414 198 Q 410 207 408 218 Q 406 228 403 239 Q 402 243 400 246 Q 398 249 395 252 Q 390 253 383 252 Q 358 246 333 232 Q 325 227 318 222 Q 312 217 305 211 Q 294 217 282 222 Q 270 227 257 232 Q 266 234 280 236 Q 294 239 308 241 Q 323 243 337 246 Q 350 248 360 249 Q 364 250 362 253 Q 356 259 352 263 Q 348 268 343 273 Q 344 275 344 275 Q 343 276 343 277 Q 353 278 362 277 Q 372 277 381 276 Q 387 271 392 264 Q 393 262 394 262 Q 396 263 397 264 Q 397 266 398 267 Q 401 275 405 283 Q 408 291 412 299 Q 413 301 414 303 Q 416 305 416 308 Q 416 309 414 309 Q 413 309 412 309 Q 395 309 378 309 Q 361 310 344 309 Q 343 319 343 328 Q 343 337 343 347 Q 351 347 358 347 Q 366 347 373 347 L 385 334 Q 387 331 389 335 Q 393 345 398 355 Q 403 364 408 373 Q 410 375 408 377 Q 406 379 403 378 Q 389 378 374 378 Q 358 379 343 379 V 414 Q 354 414 365 414 Q 376 414 387 414 L 400 401 Q 402 398 403 402 Q 408 412 412 421 Q 416 430 421 439 Q 422 441 422 442 Q 422 444 422 445 Q 412 446 402 445 Q 392 445 381 445 Q 372 446 362 445 Q 352 445 343 446 Q 342 460 342 475 Q 342 489 342 504 Q 333 506 324 506 Q 315 507 306 508 Q 293 509 279 511 Q 266 512 253 512 Q 254 503 253 494 Q 233 485 254 476 V 446 Q 243 446 232 446 Q 221 445 211 446 Q 199 446 189 448 Q 189 439 189 430 Q 189 421 189 412 Q 205 413 221 413 Q 237 414 254 414 V 378 Q 240 379 227 379 Q 213 379 199 380 Q 200 371 200 362 Q 200 354 200 345 Q 213 346 227 346 Q 241 347 255 346 V 309 Q 240 309 224 310 Q 209 311 193 312 Q 193 302 193 293 Q 193 284 194 276 Q 209 277 224 277 Q 240 278 255 278 Q 255 267 255 256 Q 255 245 254 234 L 191 261 L 185 253 Q 185 302 184 353 Q 184 405 183 453 Q 183 459 183 465 Q 183 471 183 477 Q 172 479 161 480 Q 150 482 138 483 Q 139 469 139 455 Q 139 440 139 426 Q 132 434 124 441 Q 116 448 106 452 Q 93 460 80 466 Q 66 472 51 476 Q 46 478 42 480 Q 37 482 33 485 Q 31 488 28 490 Q 26 493 24 495 Q 22 494 22 492 Q 22 490 21 488 Q 20 480 18 473 Q 16 465 14 457 Q -6 447 0 408 Q 4 407 7 406 Q 10 406 13 404 Q 16 400 16 396 Q 16 392 16 387 Q 17 344 17 301 Q 17 257 18 214 Q 18 181 19 147 Q 19 114 18 81 Q 46 88 76 92 Q 76 71 76 50 Q 76 29 74 8 Q 92 12 111 15 Q 129 17 147 18 L 149 20 Q 145 25 141 28 Q 137 32 133 37 Q 132 38 132 41 Q 146 92 132 142 Q 132 192 131 243 Q 131 261 131 277 Q 131 294 131 312 Q 131 332 130 353 Q 130 374 130 395 Q 132 395 134 395 Q 136 395 139 395 Q 139 376 139 355 Q 140 335 140 315 Q 140 302 140 289 Q 140 276 141 262 V 219 Q 141 199 141 179 Q 141 158 141 138 Q 142 123 142 108 Q 141 93 141 78 Q 154 82 168 85 Q 182 88 196 90 Q 200 91 198 94 Q 194 98 192 101 Q 189 104 186 108 Q 186 119 186 130 Q 186 141 185 152 Q 188 145 191 139 Q 194 132 196 126 Q 198 119 200 112 Q 203 105 205 98 Q 208 92 209 86 Q 211 80 213 74 L 218 55 Q 220 45 223 35 Q 225 26 227 16 Z M 185 244 Q 207 227 228 208 Q 248 189 265 167 Q 259 160 255 152 Q 251 145 247 137 L 191 180 Q 188 183 186 183 Q 185 198 185 214 Q 185 229 185 244 Z M 73 401 Q 74 382 74 363 Q 74 343 74 324 L 75 201 Q 74 189 74 176 Q 75 164 75 152 Q 75 138 75 125 Q 76 111 76 98 Q 74 99 72 100 Q 70 102 69 105 Q 66 108 66 111 Q 65 123 65 135 Q 65 147 65 160 V 211 Q 64 258 64 306 Q 64 353 63 401 Z M 266 114 Q 278 122 292 129 Q 299 120 304 110 Q 309 99 314 89 Q 307 89 299 89 Q 291 89 284 89 Q 280 97 276 103 Q 272 109 266 114 Z" fill="black" />
  </g>
  <g class="defect" id="01">
    <path d="M 253 494 Q 233 485 254 476" fill="none" stroke="red" stroke-width="3" />
  </g>
  <g class="defect" id="02">
    <path d="M 14 457 Q -6 447 0 408" fill="none" stroke="red" stroke-width="3" />
  </g>
  <g class="defect" id="03">
    <path d="M 132 41 Q 146 92 132 142" fill="none" stroke="red" stroke-width="3" />
  </g>
</svg>