<svg xmlns="http://www.w3.org/2000/svg" width="512" height="512" viewBox="0 0 512 512">
  <g class="glyph">
    <path d="M 243 0 Q 259 3 276 5 Q 293 7 310 10 Q 319 11 329 12 Q 338 12 348 13 Q 348 13 348 16 Q 342 22 337 28 Q 333 34 329 42 V 82 Q 338 82 348 82 Q 357 82 366 82 Q 367 82 369 82 Q 371 82 372 82 L 384 67 Q 385 66 386 67 Q 387 68 387 69 Q 391 80 397 90 Q 402 100 407 110 Q 409 112 406 116 Q 404 116 399 116 Q 381 116 364 116 Q 347 116 329 116 Q 329 133 330 151 Q 330 169 329 186 Q 329 197 329 207 Q 329 217 328 228 Q 331 216 333 204 Q 336 192 337 180 Q 340 166 342 152 Q 344 138 345 124 Q 351 126 357 129 Q 362 131 368 133 Q 380 137 393 141 Q 406 145 419 147 Q 420 147 421 149 Q 421 150 420 151 Q 416 155 413 158 Q 409 161 407 165 Q 400 179 392 192 Q 385 206 375 218 Q 367 229 357 239 Q 348 249 335 255 Q 334 257 332 257 Q 329 258 328 259 V 265 Q 342 266 356 265 Q 370 265 384 265 Q 387 262 389 259 Q 391 256 394 253 Q 396 249 398 249 Q 403 258 407 268 Q 411 277 416 287 Q 417 289 418 291 Q 419 293 420 296 Q 420 298 417 299 Q 415 299 412 299 Q 390 299 367 298 Q 345 298 322 299 Q 322 303 323 303 Q 325 308 328 313 Q 330 317 333 321 Q 340 329 346 338 Q 352 347 360 354 Q 397 364 398 394 Q 406 401 413 408 Q 421 415 429 421 L 424 434 Q 417 435 411 439 Q 406 443 402 449 Q 398 455 394 461 Q 386 470 380 480 Q 374 490 366 498 Q 363 501 358 500 Q 353 499 351 496 Q 347 494 344 490 Q 342 486 339 481 Q 330 469 325 454 Q 319 440 315 425 Q 312 411 310 396 Q 308 382 306 368 Q 298 382 287 394 Q 275 406 263 419 Q 252 430 241 439 Q 230 449 218 459 Q 209 466 201 474 Q 192 481 183 490 Q 177 495 171 500 Q 165 505 159 511 Q 158 511 157 511 Q 156 512 155 511 L 144 500 Q 151 490 158 480 Q 165 469 172 458 L 133 464 V 413 Q 129 416 125 420 Q 122 424 118 427 Q 108 437 97 442 Q 84 450 69 455 Q 55 461 40 466 Q 34 468 31 471 Q 27 475 24 478 Q 22 479 21 479 Q 19 478 20 477 Q 17 461 13 447 Q 10 432 5 417 Q 4 414 3 411 Q 2 407 0 404 Q 4 402 8 400 Q 12 397 13 393 Q 16 388 16 382 Q 15 377 15 372 Q 16 330 16 290 Q 15 249 16 207 Q 15 174 16 142 Q 16 109 14 77 Q 42 84 71 88 Q 71 66 71 44 Q 71 22 69 1 Q 102 10 135 14 Q 139 16 136 18 Q 133 21 130 25 Q 126 28 124 33 V 194 Q 136 213 123 232 Q 123 251 124 270 V 388 Q 126 388 128 387 Q 130 387 132 387 Q 132 376 132 365 Q 132 355 132 344 Q 132 311 132 279 Q 132 246 132 214 Q 132 201 132 190 Q 132 178 132 165 Q 133 155 132 146 Q 132 136 132 126 Q 133 101 131 74 Q 145 77 158 80 Q 171 82 185 85 V 79 Q 195 81 205 81 Q 215 81 224 82 Q 230 82 235 82 Q 240 82 246 81 Q 246 71 246 61 Q 246 50 245 40 Q 245 29 244 20 Q 243 10 243 0 Z M 177 450 Q 179 447 181 444 Q 183 441 185 437 Q 195 421 204 406 Q 212 390 219 373 Q 227 356 231 337 Q 236 318 239 299 H 208 Q 201 299 195 299 Q 189 299 181 300 V 263 Q 197 264 212 265 Q 227 265 243 265 Q 244 256 244 247 Q 244 239 244 230 L 214 246 Q 209 249 205 251 Q 200 254 194 257 Q 194 255 194 253 Q 193 252 193 250 Q 193 237 192 224 Q 191 212 190 198 Q 189 184 186 170 Q 184 155 183 140 Q 183 138 183 137 Q 183 135 182 134 Q 184 133 185 131 Q 186 129 189 130 Q 206 139 221 152 Q 235 165 246 183 Q 245 169 245 155 Q 246 141 246 129 Q 246 125 246 122 Q 246 119 245 116 Q 230 115 215 115 Q 218 102 186 117 Q 185 111 185 104 Q 185 98 185 91 Q 184 93 182 94 Q 180 95 179 98 Q 177 101 177 104 Q 177 108 177 110 Q 177 116 177 121 Q 176 126 176 131 Q 177 164 177 196 Q 176 229 177 262 Z M 61 357 Q 61 366 61 375 Q 61 385 62 394 Q 63 394 65 393 Q 67 393 70 393 Q 70 371 70 349 Q 71 327 70 305 Q 71 284 70 262 Q 70 252 70 242 Q 71 232 71 223 V 183 Q 71 175 71 167 Q 71 159 71 151 Q 70 137 70 123 Q 71 108 71 94 Q 68 97 67 100 Q 65 103 63 107 Q 62 108 62 110 Q 62 112 61 115 Q 62 137 61 158 Q 61 179 62 202 Q 61 234 61 266 Q 62 298 61 330 Q 61 337 61 344 Q 62 350 61 357 Z" fill="black" />
  </g>
  <g class="defect" id="01">
    <path d="M 124 194 Q 136 213 123 232" fill="none" stroke="red" stroke-width="3" />
  </g>
  <g class="defect" id="02">
    <path d="M 215 115 Q 218 102 186 117" fill="none" stroke="red" stroke-width="3" />
  </g>
  <g class="defect" id="03">
    <path d="M 360 354 Q 397 364 398 394" fill="none" stroke="red" stroke-width="3" />
  </g>
</svg>