<svg xmlns="http://www.w3.org/2000/svg" width="512" height="512" viewBox="0 0 512 512">
  <g class="glyph">
    <path d="M 251 388 H 241 V 428 Q 244 428 248 427 Q 251 427 254 427 Q 253 421 252 416 Q 251 411 250 405 L 259 398 Q 262 400 265 402 Q 269 405 270 406 Q 278 412 284 418 Q 291 424 298 433 Q 306 442 311 451 Q 316 459 322 469 Q 309 476 298 481 Q 288 487 276 494 Q 273 495 271 496 Q 270 498 267 498 Q 265 499 264 497 Q 263 495 263 494 Q 263 483 262 472 Q 260 461 258 451 Q 238 458 219 468 Q 201 478 180 484 L 130 494 Q 123 495 118 498 Q 113 501 108 505 Q 106 503 106 501 Q 106 498 105 496 L 93 431 Q 99 431 105 431 Q 111 431 117 431 Q 131 431 145 431 Q 160 431 174 430 V 386 H 166 V 402 Q 156 403 143 404 Q 131 405 119 406 V 341 Q 119 329 119 317 Q 118 305 118 293 Q 118 284 118 274 Q 117 265 117 255 Q 132 258 143 260 Q 155 262 167 263 Q 172 263 169 268 Q 168 269 167 270 Q 167 271 166 273 Q 164 277 164 278 H 174 V 245 Q 170 245 166 245 Q 163 244 158 243 Q 147 241 135 239 Q 124 237 112 235 Q 113 241 113 247 Q 113 253 113 259 Q 113 303 110 346 Q 109 357 107 367 Q 106 377 102 388 Q 99 398 93 407 Q 88 416 82 425 Q 77 431 72 437 Q 67 444 63 450 Q 57 457 51 464 Q 46 471 40 478 Q 34 487 27 495 Q 20 503 14 512 Q 10 510 7 509 Q 4 508 0 506 Q 10 475 18 443 Q 26 412 30 379 Q 34 352 34 325 Q 35 298 35 270 Q 35 245 35 219 Q 36 193 35 166 Q 34 156 34 146 Q 34 135 33 125 Q 40 126 47 128 Q 54 129 61 131 Q 53 123 43 116 Q 33 109 23 103 Q 21 100 25 99 Q 27 95 30 92 Q 33 88 34 84 Q 35 79 34 75 Q 34 71 34 67 Q 34 54 34 43 Q 35 31 34 20 Q 44 22 55 23 Q 66 25 77 26 Q 102 30 130 31 Q 131 33 130 34 Q 129 36 127 37 Q 125 41 122 45 Q 118 49 115 53 Q 116 61 115 70 Q 115 78 115 86 Q 140 87 164 86 Q 164 74 165 61 Q 165 48 164 35 Q 163 26 163 17 Q 163 9 162 0 Q 172 2 183 4 Q 194 6 204 7 Q 221 11 238 12 Q 254 13 270 16 Q 270 17 270 18 Q 265 23 260 28 Q 255 33 251 38 Q 252 51 251 62 Q 251 74 252 86 H 298 Q 297 69 297 52 Q 297 35 296 18 Q 309 21 322 23 Q 335 25 348 27 Q 359 29 370 30 Q 382 31 393 33 Q 395 33 394 34 Q 394 35 394 35 L 379 55 Q 379 74 379 91 Q 380 109 379 127 L 347 130 Q 348 132 350 134 Q 352 137 354 139 Q 362 148 370 157 Q 378 165 387 173 Q 389 176 391 178 Q 376 164 395 182 Q 395 183 394 184 Q 393 185 393 186 Q 387 190 382 195 Q 377 199 373 204 Q 373 227 373 250 Q 373 273 373 296 Q 373 315 373 333 Q 374 351 377 370 Q 377 375 378 381 Q 379 386 380 390 Q 386 376 391 362 Q 396 349 402 334 Q 402 333 403 334 Q 404 334 405 334 Q 408 335 411 336 Q 413 337 416 338 Q 415 348 413 358 Q 411 369 410 379 Q 408 391 406 403 Q 404 415 402 427 Q 406 436 412 445 Q 434 470 420 463 Q 423 472 417 480 Q 415 482 413 483 Q 412 485 409 486 Q 398 492 386 494 Q 374 497 361 494 Q 351 492 343 484 Q 335 477 330 469 Q 326 466 324 462 Q 322 458 319 453 Q 313 439 309 424 Q 305 409 302 393 Q 300 380 299 367 Q 298 355 297 342 Q 296 333 296 325 Q 296 316 296 307 Q 295 308 294 310 Q 292 311 292 314 Q 291 329 292 343 V 392 L 251 398 Z M 91 134 Q 100 135 109 135 Q 117 136 126 139 Q 126 143 123 145 Q 120 147 117 150 Q 139 150 161 150 Q 182 150 204 150 Q 216 150 228 150 Q 240 150 252 150 Q 266 150 279 150 Q 292 150 306 150 Q 309 146 313 142 Q 316 138 319 133 H 299 V 119 Q 290 119 281 119 Q 272 119 263 119 Q 234 119 205 119 Q 175 119 146 119 H 105 Q 101 122 97 126 Q 94 130 91 134 Z M 113 223 Q 139 217 165 210 Q 191 203 218 194 Q 225 191 232 188 Q 238 185 245 182 Q 231 182 218 182 Q 204 182 190 182 Q 180 182 170 182 Q 159 182 149 182 Q 140 182 131 182 Q 122 182 113 182 Q 114 192 113 202 Q 113 213 113 223 Z M 254 276 Q 258 270 260 265 Q 262 260 265 255 Q 267 251 269 254 L 283 273 Q 286 276 289 279 Q 292 283 295 285 Q 296 261 295 235 Q 277 237 258 242 Q 253 243 248 243 Q 243 244 238 244 Q 238 252 239 260 Q 239 268 238 276 Z M 252 182 Q 257 187 261 191 Q 265 196 270 201 Q 276 207 282 214 Q 289 221 296 227 Q 296 215 296 204 Q 295 193 295 182 Q 285 182 274 182 Q 263 181 252 182 Z M 177 358 V 305 H 166 V 358 Z M 236 358 H 246 V 305 H 236 Z" fill="black" />
  </g>
  <g class="defect" id="01">
    <path d="M 391 178 Q 376 164 395 182" fill="none" stroke="red" stroke-width="3" />
  </g>
  <g class="defect" id="02">
    <path d="M 412 445 Q 434 470 420 463" fill="none" stroke="red" stroke-width="3" />
  </g>
</svg>