<svg xmlns="http://www.w3.org/2000/svg" width="512" height="512" viewBox="0 0 512 512">
  <g class="glyph">
    <path d="M 167 0 Q 192 5 218 9 Q 244 12 271 14 Q 273 14 275 14 Q 277 14 278 15 Q 274 22 269 29 Q 263 35 259 42 Q 259 57 259 72 Q 259 87 258 102 Q 269 102 280 102 Q 291 102 302 102 Q 302 84 302 66 Q 302 48 302 29 V 21 Q 321 25 340 27 Q 359 30 378 32 Q 385 33 391 33 Q 398 33 405 34 Q 404 37 402 39 Q 401 41 399 42 Q 397 45 394 48 Q 391 52 389 55 Q 387 79 388 102 Q 389 125 387 149 Q 377 150 366 151 Q 356 152 345 153 Q 354 165 365 176 Q 375 187 385 198 L 398 210 Q 398 211 397 212 Q 397 213 397 214 Q 391 219 385 223 Q 379 228 374 232 Q 374 251 374 269 Q 374 287 375 306 Q 375 326 375 347 Q 376 367 382 387 Q 382 391 384 391 L 394 371 Q 398 360 402 351 Q 407 341 410 331 L 425 335 Q 424 343 422 350 Q 421 358 420 365 Q 418 381 416 395 Q 413 410 412 425 Q 416 430 420 435 Q 424 439 427 445 Q 431 452 431 460 Q 431 468 426 474 Q 424 477 421 479 Q 418 482 414 484 Q 407 488 399 491 Q 391 495 382 497 Q 375 499 366 499 Q 357 500 350 495 Q 337 488 328 476 Q 319 464 313 451 Q 307 442 304 433 Q 301 423 299 413 Q 290 420 282 428 Q 274 437 266 445 Q 260 451 255 457 Q 250 463 245 470 Q 244 474 241 474 Q 239 471 238 468 Q 237 466 236 463 Q 229 447 221 432 Q 214 416 206 400 Q 196 410 184 418 Q 172 426 161 436 Q 134 456 106 474 Q 104 476 101 477 Q 99 479 96 480 Q 94 478 91 476 Q 88 474 86 472 Q 87 468 89 465 Q 91 462 94 459 Q 106 442 117 425 Q 128 409 139 391 Q 146 379 152 368 Q 159 356 165 344 Q 166 342 167 339 Q 169 337 170 335 Q 153 301 134 268 Q 133 283 132 297 Q 132 311 131 324 Q 130 339 127 355 Q 125 370 119 384 Q 117 390 114 395 Q 112 400 108 404 Q 105 410 100 416 Q 96 421 92 426 Q 81 439 71 451 Q 40 450 49 475 Q 32 495 15 512 Q 11 510 7 508 Q 4 506 0 505 Q 7 488 13 471 Q 19 455 24 438 Q 32 416 36 394 Q 40 372 42 349 Q 31 348 45 308 Q 46 288 46 266 Q 46 236 46 205 Q 45 175 44 145 Q 59 149 72 151 Q 62 142 52 134 Q 42 126 31 118 Q 30 117 28 117 Q 26 116 26 114 Q 40 111 28 110 Q 30 108 32 107 Q 35 103 38 98 Q 39 94 39 90 Q 38 87 40 82 Q 38 67 39 51 Q 40 35 38 19 Q 52 22 66 24 Q 79 25 93 28 L 129 33 L 140 34 V 37 Q 137 41 133 45 Q 129 49 126 53 Q 125 54 125 56 Q 125 57 125 59 Q 125 69 125 79 Q 125 89 125 100 V 101 Q 125 102 125 102 H 168 Q 168 76 169 51 Q 169 26 167 0 Z M 141 161 Q 143 161 145 161 Q 148 161 149 164 Q 150 166 149 166 Q 148 167 146 168 Q 144 170 142 172 Q 141 175 138 177 Q 150 176 162 177 Q 174 177 187 177 H 261 Q 270 176 280 177 Q 289 177 298 176 Q 302 172 307 166 Q 311 160 314 156 Q 312 156 308 156 Q 305 156 302 156 V 135 Q 292 135 282 135 Q 272 136 262 135 Q 252 135 242 135 Q 231 136 221 135 Q 192 135 165 135 Q 138 135 110 136 Q 105 141 101 146 Q 97 151 92 156 Z M 133 237 Q 141 242 149 246 Q 157 250 165 255 Q 173 260 181 265 Q 189 269 197 275 Q 203 259 208 244 Q 213 228 216 212 Q 218 212 220 213 Q 221 213 223 214 Q 230 218 237 221 Q 244 224 252 227 Q 260 231 270 234 Q 279 238 288 241 V 209 Q 270 210 251 210 Q 233 209 215 210 Q 194 209 174 210 Q 153 210 134 209 Q 133 216 133 223 Q 134 230 133 237 Z M 255 328 Q 265 338 274 349 Q 283 360 292 370 Q 291 358 290 346 Q 290 333 289 322 Q 288 306 288 291 Q 288 276 288 261 Q 283 265 281 270 Q 278 275 276 280 Z" fill="black" />
  </g>
  <g class="defect" id="01">
    <path d="M 42 349 Q 31 348 45 308" fill="none" stroke="red" stroke-width="3" />
  </g>
  <g class="defect" id="02">
    <path d="M 26 114 Q 40 111 28 110" fill="none" stroke="red" stroke-width="3" />
  </g>
  <g class="defect" id="03">
    <path d="M 71 451 Q 40 450 49 475" fill="none" stroke="red" stroke-width="3" />
  </g>
</svg>