<svg xmlns="http://www.w3.org/2000/svg" width="512" height="512" viewBox="0 0 512 512">
  <g class="glyph">
    <path d="M 50 0 Q 89 9 130 14 Q 133 15 134 15 Q 136 16 138 18 Q 134 22 129 27 Q 125 32 121 37 Q 121 52 120 67 Q 120 82 121 96 Q 125 96 126 95 Q 131 89 135 82 Q 139 75 143 69 Q 145 65 147 69 Q 153 79 160 88 Q 166 97 174 107 Q 177 110 180 114 Q 183 117 186 121 Q 186 109 185 97 Q 185 85 185 73 Q 189 74 193 75 Q 197 76 201 77 Q 218 81 239 83 Q 259 86 275 89 Q 279 90 277 93 Q 275 95 273 97 Q 261 98 269 100 Q 282 100 294 100 Q 307 100 319 100 Q 325 93 330 86 Q 335 79 340 72 L 342 70 Q 345 66 347 69 Q 360 82 375 95 Q 389 108 406 124 Q 409 127 406 130 Q 401 135 396 139 Q 391 144 387 149 Q 386 152 387 155 Q 387 157 387 160 Q 387 179 387 197 Q 387 216 386 235 L 365 238 Q 370 244 374 250 Q 379 255 384 261 Q 392 270 401 279 Q 409 288 419 297 Q 420 298 421 300 Q 421 302 419 303 Q 413 309 408 314 Q 403 320 399 326 Q 398 353 398 380 Q 399 407 399 434 Q 399 451 398 468 Q 398 485 399 501 Q 381 502 362 504 Q 343 507 325 508 V 476 H 241 V 505 Q 232 506 222 507 Q 213 508 204 509 Q 196 510 188 510 Q 180 511 172 512 Q 172 480 172 449 Q 172 419 172 387 Q 172 372 172 357 Q 172 342 172 327 Q 172 314 172 301 Q 172 288 172 274 Q 171 266 171 259 Q 171 251 171 244 Q 190 248 211 252 Q 233 255 253 257 Q 257 258 254 261 Q 251 264 249 266 Q 246 269 244 272 Q 267 273 290 273 Q 312 272 335 273 Q 341 265 347 256 Q 372 262 357 238 L 310 244 V 223 H 262 V 239 L 186 245 Q 186 230 186 215 Q 186 201 186 186 Q 186 171 186 156 Q 187 141 186 125 Q 182 130 177 134 Q 172 137 168 141 Q 167 151 167 162 Q 168 172 168 182 Q 167 206 167 229 Q 167 252 167 276 Q 167 287 167 298 Q 166 309 166 319 Q 167 332 167 343 Q 166 354 166 367 Q 166 371 166 375 Q 165 379 163 383 Q 156 398 143 408 Q 138 415 128 416 Q 124 417 120 413 Q 116 409 115 404 Q 115 397 116 390 Q 116 383 115 376 Q 115 375 112 372 Q 112 389 112 406 Q 112 422 112 438 Q 112 455 112 471 Q 112 488 112 504 Q 98 506 84 507 Q 71 508 57 509 Q 57 462 56 416 Q 72 370 57 324 Q 56 274 56 225 Q 57 177 57 127 H 47 Q 47 133 47 138 Q 47 143 47 149 Q 47 165 46 181 Q 46 198 47 213 Q 46 228 46 242 Q 47 256 46 270 V 412 Q 34 413 23 414 Q 12 415 1 416 Q 0 393 1 371 Q 1 349 1 326 V 186 Q 1 158 1 134 Q 1 109 0 81 Q 12 85 27 88 Q 42 92 53 94 Q 53 70 53 46 Q 52 22 50 0 Z M 172 66 Q 172 56 172 46 Q 172 36 172 26 Q 198 28 222 29 Q 247 29 272 29 H 376 Q 379 25 383 21 Q 386 17 390 13 Q 390 13 391 14 Q 392 14 392 15 Q 396 25 401 35 Q 405 45 410 54 Q 413 58 413 61 Q 412 63 409 63 Q 407 62 406 62 H 264 Q 241 63 218 63 Q 195 63 172 66 Z M 310 189 Q 310 175 309 162 Q 309 148 310 133 H 262 Q 262 148 262 162 Q 262 175 262 189 Z M 113 353 Q 116 354 118 353 Q 120 352 123 350 Q 123 348 123 344 Q 123 341 123 338 Q 123 320 124 301 Q 125 283 123 265 Q 125 230 124 196 Q 123 162 125 128 H 114 Q 114 138 114 149 Q 114 159 114 169 V 223 Q 113 241 114 259 Q 114 277 113 296 Q 114 310 113 324 Q 112 339 113 353 Z M 257 444 V 389 H 242 V 444 Z M 311 444 H 326 V 389 H 311 Z M 326 358 V 306 H 311 V 358 Z M 257 358 V 306 H 242 V 358 Z" fill="black" />
  </g>
  <g class="defect" id="01">
    <path d="M 56 416 Q 72 370 57 324" fill="none" stroke="red" stroke-width="3" />
  </g>
  <g class="defect" id="02">
    <path d="M 347 256 Q 372 262 357 238" fill="none" stroke="red" stroke-width="3" />
  </g>
  <g class="defect" id="03">
    <path d="M 273 97 Q 261 98 269 100" fill="none" stroke="red" stroke-width="3" />
  </g>
</svg>