<svg xmlns="http://www.w3.org/2000/svg" width="512" height="512" viewBox="0 0 512 512">
  <g class="glyph">
    <path d="M 235 0 Q 252 4 269 6 Q 286 9 303 11 Q 311 12 319 13 Q 326 13 336 15 Q 334 16 334 16 Q 334 17 334 18 Q 330 24 326 28 Q 322 32 317 37 Q 317 54 318 71 Q 318 88 317 105 Q 318 114 318 122 Q 317 131 318 139 Q 319 137 320 134 Q 324 120 328 105 Q 332 91 336 77 Q 339 62 342 47 Q 345 32 348 17 Q 355 20 361 23 Q 367 27 374 30 Q 389 36 404 42 Q 419 47 434 53 Q 434 56 431 57 Q 429 58 427 59 Q 422 62 419 65 Q 416 67 414 72 Q 406 86 396 99 Q 386 112 373 122 Q 363 130 353 136 Q 343 142 332 148 Q 331 148 330 149 Q 329 149 328 148 Q 325 147 322 146 Q 320 144 317 143 V 170 Q 332 169 348 170 Q 354 161 360 152 Q 366 144 371 134 Q 372 133 373 132 Q 374 131 376 132 Q 388 150 402 167 Q 417 184 433 200 Q 434 201 431 203 Q 427 208 422 212 Q 417 216 414 222 Q 430 251 413 281 Q 414 310 413 339 Q 413 363 413 385 Q 414 408 414 431 Q 414 438 414 444 Q 414 451 411 458 Q 408 467 401 475 Q 394 482 386 488 Q 376 496 364 502 Q 352 508 338 511 Q 333 512 328 510 Q 323 509 319 506 Q 317 502 316 498 Q 315 494 314 489 Q 313 483 313 478 Q 312 472 312 466 Q 302 460 292 454 Q 282 447 271 441 Q 272 439 272 435 Q 272 432 274 429 Q 286 429 298 429 Q 311 429 323 429 Q 327 429 330 430 Q 333 430 336 429 Q 338 427 338 425 Q 338 422 339 419 Q 340 396 340 373 Q 340 351 340 327 V 271 L 329 281 Q 329 312 329 343 Q 329 373 329 404 Q 317 405 305 407 Q 293 408 281 409 Q 281 405 281 401 Q 281 396 281 391 Q 277 391 274 391 Q 271 391 267 391 V 414 Q 255 417 243 418 Q 230 419 219 421 Q 217 401 219 379 Q 217 363 218 347 Q 219 331 219 315 V 241 Q 217 229 217 221 Q 226 223 231 225 L 274 232 Q 273 235 271 237 Q 270 238 268 241 Q 274 242 279 241 Q 284 241 290 241 Q 295 235 298 229 Q 301 223 305 217 L 312 227 Q 319 236 326 244 Q 332 251 340 260 Q 339 251 340 242 Q 340 234 340 225 Q 340 219 340 214 Q 339 209 340 203 H 209 Q 209 210 209 217 Q 208 224 208 232 V 457 Q 209 468 209 479 Q 208 491 209 502 Q 190 505 173 507 Q 155 508 136 510 Q 137 468 137 427 Q 137 386 137 344 Q 138 315 137 286 Q 137 258 137 230 Q 138 219 137 209 Q 136 199 138 189 Q 135 196 132 202 Q 129 209 127 216 Q 124 225 120 234 Q 115 242 111 251 Q 117 252 123 252 Q 129 253 135 254 Q 133 258 131 260 Q 129 263 126 265 L 117 279 Q 115 282 115 284 Q 115 286 115 289 Q 115 319 115 349 Q 115 379 115 409 V 502 L 80 506 Q 71 507 60 507 Q 50 508 40 510 Q 40 467 40 424 Q 40 398 40 371 Q 40 345 40 318 Q 32 325 25 331 Q 17 338 10 344 Q 7 342 5 340 Q 3 338 0 336 Q 3 326 8 316 Q 12 307 16 297 Q 21 288 24 278 Q 27 268 31 258 Q 38 238 44 219 Q 50 200 55 179 L 61 156 Q 53 162 45 167 Q 37 172 29 177 Q 24 180 19 184 Q 15 187 9 190 Q 6 188 5 186 Q 3 184 0 182 Q 6 172 11 160 Q 15 148 20 137 Q 31 111 40 85 Q 49 59 57 31 Q 59 24 61 17 Q 63 10 64 2 Q 83 13 105 22 Q 127 31 143 35 L 151 26 Q 161 31 171 34 Q 181 37 190 43 Q 199 47 206 53 Q 213 59 220 65 Q 224 69 229 73 Q 233 77 237 81 Q 237 69 237 56 Q 237 44 237 31 Q 237 24 236 16 Q 249 26 235 0 Z M 92 135 Q 95 138 101 141 Q 107 144 113 147 Q 120 149 126 152 Q 132 154 138 156 L 138 146 Q 141 147 147 147 Q 154 148 160 149 Q 168 150 177 152 Q 173 127 163 100 Q 154 72 145 47 Q 144 49 143 49 Q 142 50 141 51 Q 138 54 136 59 Q 135 63 133 67 Q 129 77 124 87 Q 119 97 113 106 Q 109 114 104 121 Q 98 128 92 135 Z M 184 152 Q 194 153 201 153 Q 209 154 219 155 Q 221 155 223 158 Q 220 161 217 164 Q 214 166 211 169 Q 217 170 224 170 Q 230 170 236 170 Q 237 155 237 141 Q 237 127 237 112 Q 224 120 211 129 Q 197 139 184 152 Z M 267 272 Q 267 295 267 317 Q 267 339 267 362 H 281 Q 281 353 281 344 Q 281 334 281 325 Q 281 311 281 298 Q 281 285 281 272 Z" fill="black" />
  </g>
  <g class="defect" id="01">
    <path d="M 236 16 Q 249 26 235 0" fill="none" stroke="red" stroke-width="3" />
  </g>
  <g class="defect" id="02">
    <path d="M 414 222 Q 430 251 413 281" fill="none" stroke="red" stroke-width="3" />
  </g>
</svg>