<svg xmlns="http://www.w3.org/2000/svg" width="512" height="512" viewBox="0 0 512 512">
  <g class="glyph">
    <path d="M 171 113 Q 178 85 185 57 Q 192 29 195 0 L 234 12 Q 246 15 258 19 Q 271 22 283 24 Q 285 25 287 25 Q 289 26 290 27 Q 290 28 289 29 Q 288 30 287 31 Q 283 34 279 36 Q 276 39 273 44 Q 268 53 265 63 Q 261 73 257 83 Q 275 84 293 83 Q 311 83 329 84 Q 335 76 339 69 Q 344 62 349 54 Q 351 49 354 44 Q 356 39 359 35 Q 362 36 364 39 Q 366 42 367 44 Q 379 60 393 76 Q 407 92 420 108 Q 422 109 424 111 Q 426 113 425 115 Q 420 119 416 123 Q 411 128 407 132 Q 406 149 406 166 Q 406 182 406 199 Q 405 240 404 281 Q 403 321 401 362 Q 401 379 400 396 Q 400 412 398 429 Q 397 436 395 443 Q 393 450 389 457 Q 383 467 373 475 Q 362 483 352 490 Q 343 497 332 502 Q 322 508 310 511 Q 304 512 297 511 Q 290 510 285 505 Q 279 500 278 490 Q 277 482 276 474 Q 276 467 275 459 Q 265 452 253 446 Q 241 440 229 434 Q 230 430 230 426 Q 230 423 230 419 Q 247 419 264 420 Q 280 420 297 420 Q 301 420 305 420 Q 309 420 312 417 Q 316 413 316 408 Q 317 403 317 398 Q 321 346 321 294 Q 321 242 323 191 Q 318 195 314 199 Q 310 203 306 208 Q 305 224 306 239 Q 307 254 306 270 Q 306 302 306 333 Q 305 365 305 398 Q 290 400 275 401 Q 260 402 244 405 Q 244 397 244 389 Q 244 382 243 374 H 224 Q 224 382 224 390 Q 224 399 225 407 Q 208 409 192 411 Q 176 412 160 414 Q 160 378 160 342 Q 160 307 160 270 V 218 Q 156 224 152 228 Q 147 233 143 238 Q 140 235 137 233 Q 150 231 132 228 Q 132 225 134 222 Q 135 219 136 216 Q 141 205 143 196 Q 146 186 150 175 Q 151 172 152 168 Q 154 164 155 160 Q 152 163 150 166 Q 147 170 144 173 Q 142 176 137 176 Q 136 163 134 150 Q 133 137 130 124 Q 129 133 130 141 Q 130 160 129 177 Q 128 195 129 214 Q 129 223 129 232 Q 128 241 129 250 Q 128 269 129 288 Q 128 302 128 315 Q 128 328 128 342 Q 128 369 128 396 Q 128 423 128 450 Q 128 462 128 473 Q 128 484 128 496 Q 109 498 90 500 Q 71 501 52 503 Q 52 454 53 406 Q 54 357 54 308 V 250 Q 50 266 45 281 Q 40 296 33 311 Q 31 318 27 321 Q 26 322 25 321 Q 23 320 23 319 Q 22 312 21 305 Q 20 299 18 292 Q 15 277 11 262 Q 7 247 2 233 Q 0 230 1 227 Q 3 224 4 221 Q 9 209 13 197 Q 17 186 21 174 Q 26 158 30 142 Q 34 126 36 110 Q 37 109 39 109 Q 42 109 43 109 Q 46 118 48 127 Q 51 137 52 146 Q 52 152 54 157 Q 54 148 54 140 Q 54 131 54 122 Q 54 92 55 62 Q 55 32 53 2 Q 75 6 97 10 Q 119 14 142 16 Q 144 18 147 17 Q 150 17 151 20 L 141 31 Q 138 34 136 37 Q 134 40 131 43 Q 130 52 130 61 Q 131 69 130 78 Q 142 85 152 94 Q 162 103 171 113 Z M 232 159 Q 235 159 233 162 L 230 166 H 253 Q 260 159 266 149 Q 271 140 276 131 Q 278 132 279 135 Q 290 148 300 161 Q 310 173 323 184 V 153 Q 324 134 323 117 Q 317 117 311 117 Q 305 117 299 117 Q 285 117 271 117 Q 257 118 243 117 Q 240 120 238 123 Q 237 127 234 129 Q 230 137 225 144 Q 220 150 214 157 Q 223 159 232 159 Z M 245 257 V 196 Q 240 196 235 196 Q 230 196 225 196 Q 225 211 225 226 Q 225 242 225 257 Z M 224 343 Q 229 343 234 343 Q 239 343 244 344 Q 244 329 244 315 Q 244 301 245 286 H 225 Q 225 301 225 315 Q 225 329 224 343 Z" fill="black" />
  </g>
  <g class="defect" id="01">
    <path d="M 137 233 Q 150 231 132 228" fill="none" stroke="red" stroke-width="3" />
  </g>
</svg>