<svg xmlns="http://www.w3.org/2000/svg" width="512" height="512" viewBox="0 0 512 512">
  <g class="glyph">
    <path d="M 172 0 Q 181 0 189 1 Q 198 2 207 3 Q 229 6 250 12 Q 271 18 290 32 Q 291 34 293 36 Q 295 38 295 41 L 281 46 Q 273 51 265 55 Q 257 59 249 63 H 302 Q 306 63 310 64 Q 314 64 319 63 Q 328 53 335 41 Q 342 30 349 19 H 351 Q 368 38 387 55 Q 405 72 425 89 Q 425 91 422 94 Q 416 98 412 103 Q 408 108 404 114 Q 402 115 402 117 Q 402 119 402 122 V 189 Q 390 191 379 191 Q 368 192 358 193 Q 346 194 334 195 Q 322 197 310 197 V 176 Q 302 177 293 177 Q 285 176 277 176 Q 268 176 260 177 Q 252 177 243 176 H 128 Q 127 193 127 209 Q 127 225 127 242 Q 135 242 142 242 Q 150 242 157 243 Q 157 229 157 215 Q 156 201 154 187 Q 181 192 207 196 Q 234 199 260 201 Q 259 199 259 196 Q 259 194 259 191 L 308 199 Q 323 202 338 204 Q 353 205 368 207 Q 369 206 370 207 Q 370 209 369 210 Q 362 214 357 220 Q 352 226 347 232 Q 347 235 347 238 Q 347 241 347 244 H 376 Q 378 240 381 236 Q 383 232 387 228 H 388 Q 393 238 397 248 Q 402 258 406 267 Q 407 270 409 272 Q 411 274 409 276 Q 405 277 400 277 Q 395 277 391 277 Q 379 277 369 277 Q 358 278 347 277 Q 347 289 347 301 Q 347 313 347 325 H 373 L 382 312 Q 383 311 384 310 Q 385 310 386 311 Q 390 320 394 330 Q 398 340 404 350 Q 405 351 406 353 Q 407 356 406 357 Q 404 358 402 358 Q 400 357 398 358 H 347 Q 347 370 347 381 Q 347 393 347 405 Q 355 405 364 405 Q 373 405 381 405 Q 384 401 387 396 Q 389 392 394 389 Q 398 401 404 413 Q 409 424 415 436 Q 414 439 412 438 Q 409 437 408 439 H 347 Q 347 452 347 467 Q 347 481 347 496 Q 336 497 325 498 Q 315 499 304 500 Q 294 501 283 503 Q 272 505 262 505 Q 262 482 262 459 Q 263 437 262 414 Q 262 371 262 328 Q 263 285 263 242 Q 262 232 261 223 Q 261 213 260 204 Q 255 207 252 212 Q 248 216 245 221 Q 244 224 242 225 Q 241 227 241 230 V 498 Q 219 500 198 503 Q 177 505 156 507 Q 156 490 156 474 Q 155 458 156 442 Q 139 441 123 442 Q 107 442 91 443 Q 91 435 91 428 Q 91 420 91 413 Q 76 434 59 455 Q 43 475 27 496 Q 24 500 21 504 Q 17 508 15 512 L 0 507 Q 3 500 4 494 Q 6 487 8 481 Q 15 456 20 431 Q 24 406 27 380 Q 31 361 32 341 Q 33 322 34 302 Q 22 244 36 218 Q 21 177 36 135 Q 36 108 36 83 Q 36 57 34 31 Q 65 36 91 40 Q 117 43 141 45 Q 144 46 142 49 L 129 63 Q 140 62 151 63 Q 161 63 172 63 H 202 Q 199 57 196 51 Q 192 45 188 39 Q 182 31 177 23 Q 172 15 166 8 Z M 310 144 V 97 Q 291 96 272 97 Q 253 97 235 97 Q 208 97 181 97 Q 155 96 128 97 V 144 Z M 95 407 Q 107 408 119 409 Q 131 409 143 409 Q 149 411 156 409 V 359 Q 137 360 117 360 Q 116 365 115 368 Q 114 371 111 375 Q 109 384 105 392 Q 100 400 95 407 Z M 123 325 Q 132 326 139 326 Q 165 326 156 327 Q 157 313 156 301 Q 156 288 157 275 Q 150 276 142 276 Q 134 276 127 276 Q 126 281 126 285 Q 126 290 126 295 Q 125 302 124 310 Q 124 318 123 325 Z" fill="black" />
  </g>
  <g class="defect" id="01">
    <path d="M 139 326 Q 165 326 156 327" fill="none" stroke="red" stroke-width="3" />
  </g>
  <g class="defect" id="02">
    <path d="M 34 302 Q 22 244 36 218" fill="none" stroke="red" stroke-width="3" />
  </g>
  <g class="defect" id="03">
    <path d="M 36 218 Q 21 177 36 135" fill="none" stroke="red" stroke-width="3" />
  </g>
</svg>