<svg xmlns="http://www.w3.org/2000/svg" width="512" height="512" viewBox="0 0 512 512">
  <g class="glyph">
    <path d="M 245 55 Q 249 56 246 59 Q 238 64 233 73 Q 228 82 224 91 Q 219 100 212 109 Q 203 123 189 136 Q 181 143 173 149 Q 164 155 155 161 V 174 Q 160 174 165 173 Q 170 173 176 174 Q 181 167 184 160 Q 188 153 192 147 Q 193 146 193 144 Q 193 143 194 142 Q 197 140 198 142 Q 200 143 201 145 Q 212 163 226 178 Q 228 181 230 184 Q 233 186 235 189 Q 237 178 238 168 Q 240 158 241 148 Q 243 133 245 119 Q 247 104 248 89 Q 249 86 249 80 Q 250 74 250 69 Q 250 64 251 60 Q 251 56 251 56 Q 252 43 253 30 Q 253 17 253 4 Q 278 8 302 12 Q 326 15 351 18 Q 352 21 348 23 Q 343 27 339 31 Q 335 36 332 41 Q 329 47 328 53 Q 327 59 326 65 Q 324 76 322 88 Q 321 99 318 110 H 373 Q 375 110 377 110 Q 379 110 380 109 Q 383 106 385 103 Q 387 99 390 96 Q 392 96 393 95 Q 397 106 402 116 Q 407 126 413 136 Q 414 139 413 141 Q 411 143 409 143 H 386 Q 385 165 382 186 Q 392 208 376 230 Q 374 243 372 255 Q 370 268 367 281 Q 365 292 362 303 Q 360 314 357 325 Q 354 331 352 338 Q 349 345 346 351 L 378 395 Q 387 405 395 416 Q 404 427 414 438 Q 410 443 409 447 Q 405 447 401 447 Q 397 447 394 450 Q 383 456 376 465 Q 368 474 361 483 Q 357 487 354 491 Q 352 495 348 498 Q 340 503 334 497 Q 330 494 327 491 Q 325 488 323 484 Q 314 470 306 455 Q 299 441 293 425 Q 291 428 288 432 Q 270 452 252 472 Q 234 493 216 512 L 202 503 Q 207 498 211 492 Q 215 485 219 479 L 235 450 Q 237 445 239 441 Q 241 437 244 432 Q 252 415 260 398 Q 268 380 275 362 Q 271 347 269 332 Q 267 317 264 301 Q 263 288 262 275 Q 261 261 262 248 Q 253 261 246 274 Q 238 286 232 300 Q 231 302 229 304 Q 228 306 228 309 Q 228 340 228 370 Q 228 401 229 432 Q 229 438 229 444 Q 228 450 225 456 Q 220 468 211 477 Q 202 487 192 493 Q 187 496 183 498 Q 178 501 174 501 Q 168 502 164 498 Q 159 494 158 489 Q 157 481 156 474 Q 156 467 156 460 Q 156 457 154 454 Q 152 453 150 452 Q 148 451 146 450 Q 146 460 146 470 Q 146 480 146 490 Q 131 492 117 493 Q 103 494 89 496 Q 88 477 88 458 Q 89 440 88 421 V 361 Q 86 369 83 378 Q 80 386 77 395 L 65 424 Q 65 442 65 461 Q 66 480 65 498 Q 49 500 33 502 Q 18 504 2 506 Q 2 490 2 473 Q 2 457 2 441 Q 2 406 2 373 Q 2 339 2 304 Q 2 271 2 239 Q 2 207 1 174 Q 1 167 0 160 Q 0 154 0 148 Q 7 150 15 151 Q 23 153 30 156 Q 25 134 21 113 Q 16 92 11 71 Q 9 63 7 55 Q 4 47 2 39 L 12 32 Q 21 37 29 41 Q 37 46 45 50 Q 56 58 65 68 Q 73 79 81 89 Q 81 66 80 44 Q 80 22 79 0 Q 90 3 100 4 Q 110 5 121 6 Q 133 8 146 10 Q 159 11 172 12 Q 174 12 174 14 Q 175 15 174 16 Q 168 20 165 25 Q 161 30 157 35 Q 156 36 156 38 Q 156 40 156 41 Q 156 60 156 79 Q 155 97 156 116 Q 156 118 156 121 Q 157 123 157 126 Q 173 133 160 110 Q 162 103 164 95 Q 167 79 170 63 Q 173 47 174 31 Q 193 39 214 45 Q 222 48 231 50 Q 240 53 245 55 Z M 283 215 Q 286 228 291 242 Q 295 255 301 269 Q 302 263 303 258 Q 304 253 305 248 Q 308 224 311 200 Q 313 176 315 152 V 143 H 310 Q 305 162 298 180 Q 292 198 283 215 Z M 146 425 Q 151 425 156 426 Q 162 426 167 423 Q 168 417 169 411 Q 169 405 169 399 V 372 L 157 388 Q 156 389 154 389 Q 153 389 153 388 Q 153 379 153 366 Q 152 353 152 339 Q 151 326 149 313 Q 148 300 146 291 Z M 64 339 Q 64 342 65 344 Q 65 346 64 348 Q 65 345 65 341 Q 65 337 66 333 Q 67 325 68 317 Q 69 309 70 301 Q 70 285 71 269 Q 73 253 71 238 Q 75 240 80 241 Q 84 242 88 243 V 207 Q 82 208 76 207 Q 71 207 65 208 Q 64 224 65 239 Q 65 251 65 262 Q 65 273 64 285 Q 65 312 64 339 Z M 146 251 Q 153 258 160 267 Q 166 276 169 285 Q 169 265 169 246 Q 168 227 168 207 H 147 Q 147 217 147 228 Q 147 239 146 251 Z M 73 161 Q 75 161 76 163 Q 76 164 75 165 Q 73 168 71 170 Q 69 172 67 174 H 81 Q 81 162 81 151 Q 81 139 81 127 Q 75 130 70 133 Q 65 137 59 141 Q 53 144 48 149 Q 43 153 38 157 Z" fill="black" />
  </g>
  <g class="defect" id="01">
    <path d="M 382 186 Q 392 208 376 230" fill="none" stroke="red" stroke-width="3" />
  </g>
  <g class="defect" id="02">
    <path d="M 157 126 Q 173 133 160 110" fill="none" stroke="red" stroke-width="3" />
  </g>
</svg>