<svg xmlns="http://www.w3.org/2000/svg" width="512" height="512" viewBox="0 0 512 512">
  <g class="glyph">
    <path d="M 66 0 Q 81 1 96 3 Q 112 5 125 10 Q 137 14 147 21 Q 156 28 165 35 Q 168 39 165 40 Q 160 43 151 48 Q 142 54 133 59 Q 124 65 117 70 Q 109 75 108 76 Q 117 77 126 76 Q 135 76 144 76 Q 149 70 154 63 Q 160 55 164 50 Q 166 46 169 49 Q 181 64 193 79 Q 205 94 217 104 Q 216 95 216 86 Q 216 77 216 67 Q 215 55 215 44 Q 215 32 214 20 L 266 30 Q 273 31 279 32 Q 286 32 292 33 Q 295 34 298 34 Q 302 34 304 35 Q 303 40 300 42 Q 297 45 294 48 H 327 Q 328 48 330 48 Q 332 48 333 47 Q 339 38 345 28 Q 350 19 355 9 Q 355 9 357 10 Q 366 22 375 33 Q 383 45 393 56 L 412 75 Q 412 79 410 81 Q 406 84 403 88 Q 399 92 396 96 Q 395 115 395 134 Q 396 153 395 172 Q 395 182 395 194 Q 396 205 395 217 Q 396 248 395 278 Q 406 295 395 339 Q 396 359 395 379 Q 395 398 396 418 Q 396 425 395 431 Q 395 437 392 443 Q 389 450 385 455 Q 380 460 374 466 Q 364 473 354 480 Q 344 487 333 493 Q 326 495 320 497 Q 313 498 307 496 Q 301 495 297 492 Q 293 490 292 484 Q 289 473 289 462 Q 289 450 289 440 Q 283 437 277 433 Q 271 430 265 426 Q 258 422 250 417 Q 247 421 244 426 Q 240 430 238 434 Q 227 449 217 463 Q 207 477 197 491 Q 192 496 188 502 Q 185 507 180 512 L 166 505 Q 173 488 179 471 Q 186 453 192 436 Q 186 438 180 442 Q 175 446 169 450 Q 157 457 149 464 Q 148 465 147 465 Q 145 466 144 465 Q 143 462 143 459 Q 142 456 142 454 L 136 413 Q 140 438 124 427 Q 118 434 112 442 Q 100 456 85 465 Q 70 474 54 483 Q 50 485 47 489 Q 45 493 42 497 Q 42 499 41 501 Q 40 503 37 503 Q 35 501 35 499 Q 34 497 33 494 Q 26 476 18 456 Q 10 437 0 420 Q 9 417 16 409 Q 18 405 19 399 Q 19 394 20 389 Q 20 369 20 349 Q 19 328 20 309 Q 20 278 20 247 Q 19 217 20 186 Q 19 167 20 148 Q 20 128 19 108 Q 20 94 20 79 Q 19 65 18 50 Q 35 54 53 57 Q 70 59 88 63 Q 83 47 76 34 Q 69 21 61 7 Z M 128 318 145 328 Q 151 331 156 335 Q 162 339 167 343 Q 182 355 192 369 Q 196 373 199 377 Q 202 381 205 386 Q 210 370 211 352 Q 213 335 214 318 Q 216 296 216 274 Q 215 252 215 230 Q 215 202 215 174 Q 215 147 216 118 Q 212 121 209 124 Q 205 127 201 131 V 163 Q 201 182 201 201 Q 201 220 201 240 Q 201 257 201 273 Q 201 290 201 308 L 126 315 V 293 H 100 Q 99 303 99 313 Q 99 323 99 332 V 388 L 130 376 Q 128 364 125 351 Q 122 338 118 325 Z M 258 406 Q 271 406 283 407 Q 296 409 310 408 Q 312 408 314 405 Q 316 403 316 400 Q 317 380 317 359 Q 317 339 317 318 Q 310 318 303 318 Q 296 318 289 318 Q 288 327 286 337 Q 285 347 282 357 Q 278 370 271 382 Q 265 394 258 406 Z M 317 286 Q 316 262 317 240 Q 317 218 317 195 Q 304 197 291 195 Q 292 209 291 223 Q 291 237 291 251 V 286 Z M 291 163 Q 298 163 304 163 Q 310 163 317 163 Q 317 142 317 121 Q 316 100 317 80 Q 311 79 304 79 Q 298 80 292 80 Q 291 88 291 96 Q 292 105 291 114 Q 291 126 291 138 Q 292 151 291 163 Z M 126 261 Q 126 246 126 230 Q 127 214 127 198 Q 119 198 113 198 Q 106 198 99 199 Q 100 214 99 230 Q 99 246 99 261 Z M 99 167 Q 105 168 112 167 Q 132 177 127 167 V 108 H 99 Z" fill="black" />
  </g>
  <g class="defect" id="01">
    <path d="M 112 167 Q 132 177 127 167" fill="none" stroke="red" stroke-width="3" />
  </g>
  <g class="defect" id="02">
    <path d="M 395 278 Q 406 295 395 339" fill="none" stroke="red" stroke-width="3" />
  </g>
  <g class="defect" id="03">
    <path d="M 136 413 Q 140 438 124 427" fill="none" stroke="red" stroke-width="3" />
  </g>
</svg>