<svg xmlns="http://www.w3.org/2000/svg" width="512" height="512" viewBox="0 0 512 512">
  <g class="glyph">
    <path d="M 46 12 Q 71 17 101 21 Q 131 24 155 26 Q 157 26 157 28 Q 157 29 156 30 Q 154 33 151 36 Q 148 39 145 42 H 301 Q 308 34 315 24 Q 322 15 329 3 Q 330 0 332 3 Q 340 12 349 21 Q 372 31 369 41 Q 379 50 389 59 Q 399 67 408 74 Q 411 76 408 78 Q 393 88 382 101 V 180 L 302 188 Q 313 189 324 190 Q 336 192 348 193 Q 350 193 350 194 Q 350 196 349 197 Q 343 203 339 206 Q 336 210 331 217 Q 361 219 382 226 Q 403 234 420 248 Q 424 250 420 253 Q 409 261 396 274 Q 383 288 373 299 Q 385 298 397 296 Q 409 294 419 292 L 422 301 Q 417 306 414 310 Q 411 314 409 320 Q 407 326 406 334 Q 406 342 407 353 Q 408 361 405 365 Q 401 370 392 371 Q 380 374 363 375 Q 375 383 386 392 Q 398 401 409 408 Q 413 410 409 413 Q 402 418 395 424 Q 388 429 382 437 V 499 L 283 508 V 482 H 148 V 503 L 50 512 V 419 Q 50 410 50 400 Q 50 390 49 381 L 11 395 L 3 381 Q 32 361 54 344 Q 75 327 94 309 Q 89 304 84 298 Q 79 293 74 287 Q 73 288 72 288 Q 71 289 70 289 L 7 321 L 0 313 Q 17 287 29 263 Q 41 239 53 212 L 60 194 L 47 195 V 70 Q 47 61 47 51 Q 47 41 46 32 Q 46 22 46 12 Z M 148 452 H 283 V 417 H 148 Z M 246 176 Q 256 179 266 181 Q 277 183 288 185 V 170 H 141 V 185 L 110 189 Q 122 191 133 194 Q 144 196 152 198 Q 154 198 154 200 Q 154 201 152 202 Q 148 205 145 207 Q 142 210 139 212 H 174 Q 180 206 185 199 Q 190 192 195 184 Q 198 181 200 184 Q 212 200 224 212 Q 237 224 249 235 Q 249 220 248 206 Q 248 193 246 176 Z M 298 387 Q 304 381 310 375 Q 277 374 246 372 Q 215 369 199 367 Q 185 365 171 360 Q 158 356 143 348 Q 135 352 126 355 Q 118 359 109 361 Q 104 363 100 364 Q 95 366 90 367 Q 109 370 127 372 Q 146 373 162 375 Q 164 375 164 376 Q 164 377 163 378 Q 161 380 159 382 Q 157 385 155 387 Z M 141 90 H 288 V 73 H 141 Z M 141 139 H 288 V 122 H 141 Z M 249 251 V 249 Q 241 252 238 254 Q 234 257 230 262 Q 223 272 215 282 Q 192 279 199 300 Q 201 301 205 301 Q 215 302 227 303 Q 219 290 249 303 Z M 94 272 Q 100 274 106 277 Q 113 280 119 282 Q 127 273 135 263 Q 143 253 151 242 H 118 Q 113 249 107 257 Q 102 264 96 270 Q 96 271 95 271 Q 95 271 94 272 Z M 351 301 Q 354 301 358 301 Q 362 300 367 300 Q 359 288 349 272 Q 340 257 330 242 V 302 Z" fill="black" />
  </g>
  <g class="defect" id="01">
    <path d="M 349 21 Q 372 31 369 41" fill="none" stroke="red" stroke-width="3" />
  </g>
  <g class="defect" id="02">
    <path d="M 215 282 Q 192 279 199 300" fill="none" stroke="red" stroke-width="3" />
  </g>
  <g class="defect" id="03">
    <path d="M 227 303 Q 219 290 249 303" fill="none" stroke="red" stroke-width="3" />
  </g>
</svg>