<svg xmlns="http://www.w3.org/2000/svg" width="512" height="512" viewBox="0 0 512 512">
  <g class="glyph">
    <path d="M 321 2 Q 321 0 323 0 Q 324 1 324 2 Q 332 10 339 17 Q 346 25 354 33 Q 379 26 374 52 Q 384 61 395 70 Q 397 71 397 73 Q 390 79 385 84 Q 367 75 373 95 V 188 Q 349 190 327 193 Q 304 195 281 196 V 179 H 144 V 194 L 103 201 Q 109 202 117 202 Q 125 203 131 203 Q 133 203 131 205 L 125 212 H 310 Q 324 212 339 212 Q 353 211 367 211 L 378 198 Q 379 197 380 197 Q 381 197 383 198 Q 383 199 385 203 Q 387 208 390 215 Q 393 221 395 227 Q 398 234 401 238 Q 402 239 401 241 Q 400 244 398 244 H 229 Q 207 244 185 244 Q 163 244 141 244 H 118 Q 118 264 118 283 Q 118 303 117 322 H 361 Q 365 322 370 322 Q 375 322 379 322 Q 382 319 384 316 Q 386 313 388 311 Q 389 310 390 309 Q 391 309 392 308 Q 395 317 399 326 Q 404 334 408 343 Q 409 345 410 347 Q 411 349 412 351 Q 412 353 410 354 Q 408 355 407 355 Q 393 355 378 355 Q 362 355 347 355 Q 352 358 357 360 Q 362 363 367 366 Q 375 370 381 373 Q 388 377 394 381 Q 393 384 391 384 Q 389 385 388 386 Q 382 387 377 390 Q 372 393 367 396 Q 363 399 359 401 Q 354 403 349 405 Q 365 409 381 413 Q 397 416 412 421 Q 415 421 418 422 Q 418 425 418 428 Q 417 431 417 434 Q 408 436 402 443 Q 394 454 389 467 Q 384 480 378 493 Q 377 496 375 498 Q 374 500 370 501 Q 365 502 360 502 Q 356 501 350 499 Q 337 495 324 488 Q 311 482 300 474 Q 286 465 275 454 Q 264 442 255 430 Q 243 440 232 449 Q 221 459 209 468 Q 194 477 179 483 Q 164 490 148 495 Q 144 497 139 499 Q 134 500 131 503 Q 129 505 128 506 Q 126 507 126 509 Q 125 511 123 511 Q 122 511 121 512 Q 120 511 120 510 Q 119 509 119 508 Q 113 490 107 471 Q 101 452 93 434 Q 99 432 105 430 Q 111 429 116 424 Q 118 420 119 415 Q 119 410 119 406 V 355 H 115 Q 114 364 113 373 Q 111 381 108 390 Q 103 403 93 416 Q 80 433 65 448 Q 51 462 35 478 Q 29 484 23 490 Q 17 496 12 502 Q 8 501 6 499 Q 3 498 0 496 Q 4 489 6 480 Q 8 471 11 463 Q 15 451 18 439 Q 21 427 23 415 Q 26 402 27 389 Q 29 376 30 362 Q 31 343 31 325 Q 31 306 31 287 Q 31 262 30 238 Q 30 213 29 188 Q 35 190 41 192 Q 60 176 53 194 Q 53 167 53 142 Q 53 116 54 89 Q 53 70 53 51 Q 53 32 52 14 Q 104 25 159 28 Q 159 29 159 30 Q 160 31 160 32 L 149 42 Q 153 42 157 42 Q 161 42 165 41 Q 192 42 219 41 Q 246 41 273 41 Q 277 41 282 41 Q 287 42 293 41 Q 308 23 321 2 Z M 128 265 Q 145 266 163 267 Q 180 267 197 267 H 352 L 362 255 Q 364 254 365 254 Q 366 254 366 255 L 384 294 Q 386 299 381 299 H 287 Q 247 299 208 299 Q 168 299 128 301 Z M 144 148 Q 167 148 189 148 Q 212 148 235 148 Q 257 148 281 148 V 125 Q 267 126 253 125 Q 239 125 226 125 H 169 Q 162 125 156 125 Q 151 124 144 125 Z M 281 95 Q 281 89 281 83 Q 281 77 282 72 H 218 Q 199 72 181 72 Q 163 72 145 72 V 95 Z M 199 355 Q 200 371 199 387 Q 199 403 200 420 Q 222 416 244 415 Q 243 414 243 413 Q 243 412 241 411 Q 234 398 228 384 Q 222 370 218 355 Z M 246 355 Q 258 362 270 370 Q 282 378 294 384 Q 300 377 304 370 Q 309 363 313 356 Q 302 355 291 355 Q 280 355 268 355 Q 262 355 257 355 Q 252 356 246 355 Z" fill="black" />
  </g>
  <g class="defect" id="01">
    <path d="M 41 192 Q 60 176 53 194" fill="none" stroke="red" stroke-width="3" />
  </g>
  <g class="defect" id="02">
    <path d="M 354 33 Q 379 26 374 52" fill="none" stroke="red" stroke-width="3" />
  </g>
  <g class="defect" id="03">
    <path d="M 385 84 Q 367 75 373 95" fill="none" stroke="red" stroke-width="3" />
  </g>
</svg>