<svg xmlns="http://www.w3.org/2000/svg" width="512" height="512" viewBox="0 0 512 512">
  <g class="glyph">
    <path d="M 55 0 Q 80 5 104 8 Q 129 11 154 13 Q 156 14 158 14 Q 160 14 163 16 Q 162 17 161 18 Q 161 19 160 20 Q 155 24 151 29 Q 147 35 142 40 Q 141 60 142 79 Q 142 99 141 119 H 163 Q 167 116 170 111 Q 173 107 178 104 Q 183 114 187 125 Q 192 136 198 146 Q 198 147 198 149 Q 199 150 198 152 Q 195 153 193 153 Q 181 137 190 153 Q 178 152 166 153 Q 154 153 141 153 Q 141 156 141 158 Q 141 161 142 164 Q 154 175 165 187 Q 162 199 185 213 Q 189 220 193 227 Q 197 234 200 241 Q 203 234 205 225 Q 208 217 211 209 Q 213 199 216 189 Q 219 180 221 170 Q 227 146 232 122 Q 238 97 242 73 Q 222 73 203 73 Q 183 73 163 74 V 38 Q 175 39 188 39 Q 200 40 212 40 Q 225 40 239 40 Q 253 40 267 40 H 390 Q 393 36 396 32 Q 399 28 403 24 Q 403 23 405 24 Q 406 24 406 25 Q 411 37 416 47 Q 421 58 427 69 Q 429 70 427 73 Q 416 74 405 73 Q 395 73 384 73 Q 375 73 365 73 Q 356 73 346 73 Q 341 96 334 119 Q 328 142 322 165 Q 328 166 334 167 Q 341 168 347 168 Q 347 169 348 170 Q 349 172 347 172 Q 343 177 338 182 Q 333 186 329 192 V 195 Q 335 199 340 202 Q 346 206 352 211 Q 369 223 384 237 Q 399 251 411 268 Q 416 276 422 285 Q 427 294 431 303 Q 435 308 430 313 Q 419 326 409 339 Q 398 351 388 363 L 364 393 Q 363 394 361 394 Q 359 393 359 392 Q 357 379 355 366 Q 353 353 350 340 L 336 257 Q 334 250 333 242 Q 331 234 330 228 Q 327 232 327 236 V 273 Q 327 330 327 386 Q 326 442 327 500 Q 303 502 280 504 Q 258 507 234 510 Q 234 463 235 418 Q 235 372 235 326 Q 226 337 217 346 Q 208 356 199 366 Q 192 375 184 383 Q 176 392 168 400 L 156 413 Q 153 410 149 407 Q 146 403 141 400 Q 141 425 141 450 Q 141 475 141 501 Q 120 504 99 506 Q 77 508 57 512 L 59 437 Q 59 419 59 401 Q 60 382 61 364 Q 60 342 62 320 Q 57 339 48 356 Q 39 374 30 391 Q 24 402 20 412 Q 15 422 11 432 L 0 426 Q 3 410 6 393 Q 10 377 13 360 Q 17 329 21 298 Q 25 268 29 237 Q 32 216 34 195 Q 51 192 37 152 Q 29 152 21 153 Q 12 153 4 154 Q 2 135 4 117 Q 31 120 57 119 Q 57 99 57 80 Q 57 61 57 41 Q 57 30 57 20 Q 56 10 55 0 Z M 141 399 Q 146 389 150 379 Q 155 370 158 360 L 167 337 Q 172 326 175 316 Q 178 305 183 294 Q 176 300 172 306 Q 167 312 162 318 Q 160 321 159 323 Q 159 325 156 327 Q 154 326 154 324 Q 154 323 154 321 Q 152 304 150 287 Q 148 270 146 253 L 142 225 Q 141 230 141 235 Q 142 240 141 245 V 337 Q 141 352 141 368 Q 141 383 141 399 Z" fill="black" />
  </g>
  <g class="defect" id="01">
    <path d="M 193 153 Q 181 137 190 153" fill="none" stroke="red" stroke-width="3" />
  </g>
  <g class="defect" id="02">
    <path d="M 165 187 Q 162 199 185 213" fill="none" stroke="red" stroke-width="3" />
  </g>
  <g class="defect" id="03">
    <path d="M 34 195 Q 51 192 37 152" fill="none" stroke="red" stroke-width="3" />
  </g>
</svg>