<svg xmlns="http://www.w3.org/2000/svg" width="512" height="512" viewBox="0 0 512 512">
  <g class="glyph">
    <path d="M 48 0 Q 73 4 97 7 Q 121 10 146 12 Q 145 13 145 14 Q 145 16 144 17 L 126 39 V 52 Q 127 69 127 86 Q 126 104 126 120 H 135 L 145 107 Q 146 105 147 106 Q 149 106 150 107 Q 155 117 159 127 Q 164 137 169 146 Q 170 148 170 150 Q 170 153 167 154 Q 157 155 147 154 Q 136 153 127 155 Q 110 191 127 195 Q 127 197 128 198 Q 130 200 131 201 Q 145 217 156 237 Q 155 228 153 217 Q 152 207 151 197 Q 150 188 148 180 Q 147 172 146 165 L 154 161 Q 157 163 160 165 Q 162 168 165 171 Q 185 196 196 223 V 63 L 144 64 Q 144 55 143 46 Q 143 37 144 28 Q 151 28 158 29 Q 165 29 172 29 Q 217 30 262 30 Q 308 29 353 29 H 394 Q 398 25 401 20 Q 405 16 409 13 Q 414 23 419 34 Q 423 45 429 55 Q 431 56 431 58 Q 432 59 431 60 Q 429 63 428 62 Q 427 62 425 62 Q 407 63 390 63 Q 373 63 355 63 V 217 Q 355 228 355 240 Q 356 252 355 264 Q 355 274 355 283 Q 356 293 355 303 Q 346 301 359 277 Q 361 264 362 251 Q 362 242 363 233 Q 365 224 366 215 Q 378 192 368 168 Q 370 145 369 122 Q 387 128 405 134 Q 422 139 441 144 Q 442 145 443 145 Q 444 145 444 146 Q 444 147 444 149 Q 443 150 442 151 Q 439 153 436 157 Q 433 161 431 165 Q 428 183 424 201 Q 421 219 416 237 Q 408 270 397 302 Q 385 333 369 362 Q 365 368 362 374 Q 359 380 356 386 Q 355 404 355 422 Q 356 439 355 457 Q 366 458 377 457 Q 388 457 399 457 Q 401 454 404 450 Q 407 447 409 444 Q 411 443 411 443 Q 412 442 413 442 Q 416 448 418 454 Q 421 460 424 466 Q 428 477 433 483 Q 436 487 433 489 Q 431 490 429 490 Q 427 490 425 490 Q 364 490 303 490 Q 242 490 181 490 Q 170 490 159 491 Q 147 491 136 492 V 455 Q 152 456 167 457 Q 182 458 198 458 Q 198 445 198 433 Q 197 421 198 408 Q 198 396 198 383 Q 197 371 198 359 Q 192 366 185 374 Q 178 382 170 390 Q 169 391 167 390 Q 164 390 164 388 Q 163 377 163 366 Q 162 355 162 345 Q 162 339 162 332 Q 162 325 162 318 L 147 339 Q 145 341 144 343 Q 142 345 140 346 Q 139 343 139 340 Q 139 337 139 335 Q 137 314 134 293 Q 131 273 127 252 Q 126 297 127 341 V 457 Q 127 469 127 481 Q 127 493 127 504 Q 108 506 89 508 Q 70 509 51 512 Q 50 491 51 471 Q 52 451 52 431 Q 53 398 53 365 Q 53 333 54 301 Q 53 310 51 318 Q 49 326 47 335 Q 44 351 38 365 Q 33 380 27 395 Q 24 403 21 412 Q 18 420 14 429 L 0 427 Q 4 397 9 368 Q 13 340 16 310 Q 20 285 22 259 Q 25 233 27 208 Q 29 194 29 181 Q 30 167 30 154 Q 24 155 18 155 Q 12 156 5 156 V 119 Q 16 120 27 121 Q 38 121 49 120 Q 49 103 49 84 Q 49 65 49 47 Q 49 34 49 23 Q 49 11 48 0 Z M 267 233 Q 268 281 268 328 Q 268 375 268 423 V 457 H 282 Q 283 415 282 373 Q 282 331 283 289 Q 283 253 282 218 Q 282 183 283 147 Q 281 105 283 63 H 267 Q 267 79 267 94 Q 268 110 267 126 Z" fill="black" />
  </g>
  <g class="defect" id="01">
    <path d="M 127 155 Q 110 191 127 195" fill="none" stroke="red" stroke-width="3" />
  </g>
  <g class="defect" id="02">
    <path d="M 355 303 Q 346 301 359 277" fill="none" stroke="red" stroke-width="3" />
  </g>
  <g class="defect" id="03">
    <path d="M 366 215 Q 378 192 368 168" fill="none" stroke="red" stroke-width="3" />
  </g>
</svg>