<svg xmlns="http://www.w3.org/2000/svg" width="512" height="512" viewBox="0 0 512 512">
  <g class="glyph">
    <path d="M 61 0 Q 78 4 96 6 Q 114 8 132 11 Q 141 12 151 13 Q 161 14 172 16 L 174 17 Q 168 23 163 29 Q 157 35 151 41 V 120 Q 155 120 160 120 Q 164 121 168 120 L 179 106 Q 180 105 182 105 Q 184 105 185 106 Q 190 115 194 125 Q 198 135 202 145 Q 203 147 205 149 Q 206 151 205 154 Q 191 154 178 154 Q 164 154 151 154 V 185 Q 151 186 151 187 Q 151 188 152 189 Q 164 199 176 210 Q 187 221 196 234 Q 204 244 210 254 Q 216 264 222 275 Q 242 293 225 280 Q 226 283 227 286 Q 227 289 224 290 Q 210 302 197 315 Q 184 328 172 342 Q 171 344 170 345 Q 168 346 166 346 L 161 305 Q 160 294 158 282 Q 155 271 154 259 Q 153 253 153 248 Q 152 242 151 237 V 265 Q 150 275 150 284 Q 151 294 151 303 Q 150 339 150 373 Q 150 407 150 443 Q 150 458 150 474 Q 149 489 150 504 L 107 508 L 61 512 Q 62 477 63 443 Q 64 409 64 374 Q 64 363 65 351 Q 66 339 64 327 L 66 326 Q 66 326 65 326 Q 64 325 64 326 Q 62 337 57 347 Q 54 354 50 361 Q 47 368 42 376 Q 34 390 26 404 Q 17 417 10 431 Q 8 431 5 430 Q 3 429 0 429 L 12 371 Q 18 340 24 310 Q 29 280 34 249 Q 37 225 40 202 Q 43 178 46 154 Q 36 155 28 155 Q 20 155 11 156 V 119 Q 24 119 37 120 Q 50 121 62 121 Q 62 90 63 60 Q 63 30 61 0 Z M 165 485 Q 165 476 165 466 Q 165 456 165 447 Q 204 450 244 449 Q 244 419 244 391 Q 244 362 245 333 Q 245 315 246 298 Q 246 280 245 263 Q 246 232 246 200 Q 246 169 246 137 Q 246 125 247 112 Q 247 100 247 88 Q 235 88 224 88 Q 212 87 200 88 Q 197 88 193 88 Q 189 88 185 89 V 50 Q 197 51 209 52 Q 222 52 234 53 Q 254 53 274 53 Q 294 52 314 52 H 391 Q 394 52 394 51 L 406 38 Q 409 36 410 39 Q 416 50 422 61 Q 427 72 434 82 Q 435 83 433 85 Q 432 86 431 86 Q 412 87 393 86 Q 374 86 355 87 V 145 Q 354 168 355 192 Q 336 202 354 239 V 338 Q 354 357 354 376 Q 354 395 354 414 V 449 H 401 L 413 435 Q 416 432 417 435 Q 418 438 421 443 Q 424 449 427 454 Q 430 460 433 466 Q 436 471 438 475 Q 440 478 440 481 Q 439 482 436 482 Q 434 482 431 483 Q 391 482 351 482 Q 299 468 270 483 Q 244 483 218 483 Q 191 483 165 485 Z" fill="black" />
  </g>
  <g class="defect" id="01">
    <path d="M 222 275 Q 242 293 225 280" fill="none" stroke="red" stroke-width="3" />
  </g>
  <g class="defect" id="02">
    <path d="M 355 192 Q 336 202 354 239" fill="none" stroke="red" stroke-width="3" />
  </g>
  <g class="defect" id="03">
    <path d="M 351 482 Q 299 468 270 483" fill="none" stroke="red" stroke-width="3" />
  </g>
</svg>