<svg xmlns="http://www.w3.org/2000/svg" width="512" height="512" viewBox="0 0 512 512">
  <g class="glyph">
    <path d="M 197 0 Q 219 5 241 9 Q 263 13 285 16 Q 288 17 292 18 Q 295 18 299 19 Q 299 21 295 25 Q 282 34 276 48 L 264 81 H 333 Q 339 72 344 63 Q 349 54 355 45 Q 357 42 359 37 Q 361 33 364 30 Q 365 32 368 36 Q 378 54 391 70 Q 403 87 417 102 Q 419 105 423 109 Q 426 112 428 117 Q 424 121 419 125 Q 414 129 409 135 Q 408 138 408 140 Q 409 143 409 146 Q 408 171 408 195 Q 409 219 409 244 Q 408 283 407 322 Q 407 360 404 399 Q 403 421 401 441 Q 400 445 398 449 Q 397 453 394 457 Q 392 461 388 464 Q 385 466 383 469 Q 370 480 356 490 Q 341 499 326 506 Q 319 508 312 510 Q 304 512 297 511 Q 291 509 286 504 Q 282 499 281 492 Q 280 484 279 475 Q 279 466 279 457 Q 266 450 254 445 Q 242 439 230 433 L 232 417 L 299 419 Q 302 419 305 419 Q 309 419 311 419 Q 315 416 316 413 Q 317 409 317 405 Q 318 395 319 386 Q 319 377 319 367 Q 320 357 321 347 Q 321 337 322 327 L 323 203 Q 320 207 316 211 Q 312 215 308 219 Q 309 224 309 228 Q 309 232 309 235 Q 309 257 309 278 Q 308 300 309 321 Q 309 339 310 356 Q 310 373 309 390 Q 303 391 297 391 Q 291 391 285 392 Q 277 393 269 393 Q 262 394 254 395 V 365 H 238 Q 237 381 238 398 Q 224 400 209 401 Q 194 402 180 404 Q 180 397 180 390 Q 181 383 181 376 Q 180 363 180 350 Q 181 338 181 325 Q 180 315 180 304 Q 181 294 180 284 Q 174 289 169 295 Q 163 300 157 307 Q 153 311 149 316 Q 144 322 140 327 Q 137 325 137 325 Q 135 287 129 249 Q 129 244 128 240 Q 127 235 127 231 Q 127 265 127 299 Q 127 308 127 316 Q 127 324 127 333 Q 127 357 127 381 Q 127 406 127 430 Q 111 430 127 464 Q 127 480 127 498 Q 108 500 89 502 Q 70 503 51 506 Q 52 470 53 435 Q 54 400 55 365 Q 55 353 55 340 Q 55 328 55 316 Q 55 320 52 327 Q 48 343 41 357 Q 34 371 27 386 Q 22 395 18 404 Q 14 412 10 422 L 0 418 Q 10 363 18 309 Q 26 255 31 200 Q 32 188 33 176 Q 35 164 35 152 Q 28 152 22 152 Q 15 153 9 154 Q 9 144 9 135 Q 9 126 8 117 Q 19 118 29 118 Q 40 119 51 119 Q 50 90 50 61 Q 50 32 48 3 Q 52 -5 91 10 Q 113 13 135 16 Q 139 16 142 16 Q 145 15 148 17 Q 147 19 145 21 Q 144 22 143 23 Q 139 28 135 33 Q 131 39 127 44 V 120 H 136 Q 139 117 141 114 Q 143 110 146 108 Q 149 104 150 108 Q 154 116 158 123 Q 161 128 164 134 Q 166 139 167 141 Q 175 114 182 88 Q 188 62 193 35 Q 194 26 195 18 Q 196 9 197 0 Z M 245 162 Q 248 163 247 166 L 241 173 H 259 L 274 148 Q 275 147 277 146 Q 279 146 280 147 Q 288 156 296 164 Q 304 173 310 180 Q 313 185 316 188 Q 320 191 323 195 Q 323 174 324 155 Q 324 135 323 115 Q 304 115 285 115 Q 266 115 247 114 Q 240 127 231 137 Q 221 147 213 158 Q 221 160 229 161 Q 238 161 245 162 Z M 128 188 Q 131 192 133 193 Q 136 194 139 197 Q 146 205 152 213 Q 159 222 165 231 L 181 258 Q 180 240 180 223 Q 181 205 180 186 Q 174 191 169 196 Q 164 202 158 207 Q 155 204 152 202 Q 148 201 147 196 Q 151 186 155 174 Q 159 163 164 152 Q 155 152 146 152 Q 137 151 128 152 Z M 254 334 Q 254 312 253 291 Q 253 270 253 249 Q 241 220 253 226 Q 254 215 253 204 Q 248 204 245 204 Q 241 204 238 204 Q 237 215 237 226 Q 238 237 237 249 Q 237 259 237 270 Q 238 280 238 291 Q 237 302 237 312 Q 238 323 237 334 Z" fill="black" />
  </g>
  <g class="defect" id="01">
    <path d="M 48 3 Q 52 -5 91 10" fill="none" stroke="red" stroke-width="3" />
  </g>
  <g class="defect" id="02">
    <path d="M 253 249 Q 241 220 253 226" fill="none" stroke="red" stroke-width="3" />
  </g>
  <g class="defect" id="03">
    <path d="M 127 430 Q 111 430 127 464" fill="none" stroke="red" stroke-width="3" />
  </g>
</svg>