<svg xmlns="http://www.w3.org/2000/svg" width="512" height="512" viewBox="0 0 512 512">
  <g class="glyph">
    <path d="M 236 105 Q 240 106 238 110 Q 233 115 231 121 H 242 V 73 Q 242 65 242 54 Q 241 44 241 34 Q 240 24 239 15 Q 239 6 238 0 L 293 8 Q 305 10 317 11 Q 329 12 341 13 Q 344 14 346 14 Q 348 14 350 15 Q 350 18 347 20 Q 342 24 337 29 Q 332 34 327 40 V 121 H 345 Q 349 116 353 109 Q 357 102 362 96 Q 364 93 365 90 Q 366 87 369 84 Q 370 85 371 85 Q 372 85 372 86 Q 379 96 386 106 Q 393 116 401 126 Q 407 133 412 140 Q 418 147 425 154 Q 427 155 426 157 Q 424 162 419 165 Q 415 167 412 171 Q 409 174 406 178 V 496 Q 388 499 370 500 Q 352 502 334 505 V 462 Q 309 461 284 462 Q 259 463 233 463 Q 234 473 234 483 Q 233 494 234 505 Q 224 506 214 507 Q 204 508 193 510 Q 186 511 178 511 Q 170 511 163 512 V 444 Q 163 426 162 408 Q 162 391 163 373 Q 163 357 163 342 Q 163 326 162 310 Q 158 318 153 325 Q 149 333 144 341 Q 143 343 143 345 Q 142 347 139 348 Q 127 365 139 342 Q 137 323 135 304 Q 133 285 131 265 Q 130 256 129 248 Q 128 240 127 232 Q 126 240 126 249 Q 126 257 126 266 Q 127 277 127 288 Q 126 299 126 310 V 373 Q 126 406 126 437 Q 126 469 126 501 Q 112 504 98 505 Q 85 506 71 507 Q 60 510 51 510 V 482 Q 52 467 52 452 Q 51 437 52 422 Q 52 399 53 376 Q 54 353 54 330 Q 52 339 48 347 Q 44 356 40 364 Q 33 380 25 396 Q 17 412 11 429 Q 8 429 5 428 Q 3 427 0 426 Q 4 403 8 381 Q 12 358 16 335 Q 25 269 32 203 Q 33 192 34 181 Q 35 170 36 158 Q 21 159 7 159 Q 6 150 6 140 Q 6 131 6 121 Q 29 124 51 123 V 44 L 49 6 L 79 11 Q 95 14 111 16 Q 127 17 143 19 Q 144 20 148 20 Q 147 22 145 23 Q 144 25 143 26 L 127 44 Q 128 64 127 84 Q 127 104 128 125 H 132 Q 136 120 139 116 Q 142 112 146 108 Q 148 110 149 113 Q 150 116 152 118 Q 155 124 157 129 Q 159 134 161 139 Q 161 127 161 115 Q 162 103 161 91 Q 183 97 201 100 Q 218 102 236 105 Z M 127 188 Q 127 187 128 190 L 144 210 Q 148 218 153 225 Q 158 233 163 241 Q 162 220 162 199 Q 163 178 162 158 Q 144 157 127 158 Q 112 165 128 173 Q 127 180 127 188 Z M 247 430 Q 266 414 247 380 Q 247 361 247 342 Q 247 323 248 304 H 233 Q 232 367 233 430 Z M 320 429 Q 324 429 327 429 Q 331 430 334 430 Q 334 398 335 366 Q 335 335 334 304 Q 330 304 327 304 Q 324 304 320 304 Z M 248 270 V 154 H 232 V 270 Z M 320 271 Q 324 271 327 271 Q 331 271 334 270 Q 334 256 335 242 Q 335 228 334 214 V 154 H 320 Z" fill="black" />
  </g>
  <g class="defect" id="01">
    <path d="M 139 348 Q 127 365 139 342" fill="none" stroke="red" stroke-width="3" />
  </g>
  <g class="defect" id="02">
    <path d="M 247 430 Q 266 414 247 380" fill="none" stroke="red" stroke-width="3" />
  </g>
  <g class="defect" id="03">
    <path d="M 127 158 Q 112 165 128 173" fill="none" stroke="red" stroke-width="3" />
  </g>
</svg>