<svg xmlns="http://www.w3.org/2000/svg" width="512" height="512" viewBox="0 0 512 512">
  <g class="glyph">
    <path d="M 49 0 Q 58 1 66 3 Q 75 5 84 6 Q 97 8 109 10 Q 136 12 135 13 Q 137 13 140 13 Q 143 13 146 14 Q 148 17 146 20 L 130 41 Q 129 41 128 42 Q 127 44 128 45 Q 127 51 128 57 Q 128 62 128 68 Q 128 81 128 95 Q 127 108 128 121 H 134 L 145 108 Q 146 106 147 107 Q 148 107 149 109 L 161 134 Q 162 136 163 137 Q 163 138 165 139 Q 178 144 191 147 Q 204 150 217 151 V 116 Q 216 103 217 89 Q 217 76 217 62 Q 201 63 186 63 Q 170 63 155 65 Q 154 55 154 45 Q 155 35 154 26 Q 180 29 206 28 Q 231 28 257 28 Q 293 28 330 28 Q 367 29 404 28 L 415 12 Q 416 11 419 11 Q 424 23 430 35 Q 436 46 441 58 Q 442 61 440 62 Q 437 63 435 63 Q 419 62 404 62 Q 388 63 372 62 Q 371 81 372 100 Q 372 119 371 137 Q 371 141 371 144 Q 371 147 372 150 Q 376 145 380 139 Q 383 134 386 128 Q 387 124 391 127 Q 407 147 420 161 Q 434 176 444 184 Q 445 186 444 188 Q 434 196 425 206 Q 425 217 425 228 Q 425 238 425 249 Q 425 261 425 272 Q 425 284 425 295 Q 425 307 425 318 Q 425 329 425 341 Q 424 356 425 371 Q 411 373 396 375 Q 381 376 367 377 Q 366 397 366 417 Q 367 437 367 456 Q 385 455 404 456 Q 408 452 411 447 Q 414 442 418 438 L 428 458 Q 431 466 435 473 Q 439 481 443 488 Q 442 492 439 491 Q 436 491 434 492 H 350 Q 300 492 250 491 Q 200 490 150 493 Q 150 483 149 474 Q 149 464 150 454 Q 166 456 182 456 Q 199 456 215 456 Q 215 431 215 406 Q 216 380 215 354 Q 211 356 210 360 Q 206 368 202 375 Q 198 382 194 390 Q 190 387 186 383 Q 183 379 179 375 Q 170 366 162 357 Q 153 349 143 341 Q 147 337 151 334 Q 155 330 158 326 Q 163 319 163 311 Q 163 303 163 296 Q 156 303 151 310 Q 145 316 140 324 Q 137 324 137 321 Q 137 314 136 301 Q 136 289 135 275 Q 134 262 132 249 Q 130 236 128 227 V 254 Q 127 269 128 282 Q 129 296 128 311 Q 127 318 128 326 Q 128 333 128 341 Q 128 371 129 400 Q 129 429 128 458 Q 128 470 129 481 Q 129 492 129 504 Q 118 505 108 506 Q 98 507 88 508 Q 79 509 70 510 Q 62 511 52 512 V 327 Q 51 333 49 338 Q 47 343 44 349 Q 35 366 27 383 Q 19 400 11 418 Q 6 415 0 414 Q 14 349 23 284 Q 32 219 37 154 Q 30 154 23 154 Q 17 155 9 155 Q 10 146 10 137 Q 10 129 10 120 Q 20 120 30 120 Q 40 120 50 121 V 81 Q 51 61 50 41 Q 50 20 49 0 Z M 230 242 Q 231 262 230 280 Q 230 298 231 317 Q 236 311 239 303 Q 243 295 248 288 Q 250 287 251 290 Q 252 292 254 294 Q 260 302 267 310 Q 273 318 281 326 Q 285 330 289 335 Q 294 339 298 343 Q 298 332 298 320 Q 297 308 297 297 Q 312 301 327 305 Q 342 309 357 312 V 229 Q 357 222 358 216 Q 358 209 358 203 Q 357 202 357 201 Q 358 200 356 199 Q 352 205 348 211 Q 343 216 339 222 Q 338 223 337 224 Q 335 225 335 224 Q 331 221 329 218 Q 326 215 323 212 Q 314 205 307 198 Q 299 192 291 185 Q 288 182 291 179 Q 297 173 300 167 Q 303 162 303 153 V 82 Q 303 77 304 72 Q 304 67 303 62 H 285 V 94 Q 284 113 284 133 Q 285 153 284 172 V 203 L 231 209 Q 231 217 230 225 Q 230 233 230 242 Z M 281 375 Q 282 396 282 416 Q 281 436 282 456 H 299 V 425 Q 299 407 298 388 Q 298 369 299 349 Q 292 358 282 366 Q 281 369 281 375 Z M 128 177 Q 128 178 129 179 Q 129 179 130 180 Q 134 185 137 190 Q 141 194 145 199 Q 150 205 153 212 Q 157 219 161 226 Q 161 207 161 190 Q 161 172 161 154 Q 152 154 144 154 Q 136 154 128 153 Q 127 160 128 166 Q 128 172 128 177 Z" fill="black" />
  </g>
  <g class="defect" id="01">
    <path d="M 109 10 Q 136 12 135 13" fill="none" stroke="red" stroke-width="3" />
  </g>
</svg>