<svg xmlns="http://www.w3.org/2000/svg" width="512" height="512" viewBox="0 0 512 512">
  <g class="glyph">
    <path d="M 346 3 Q 346 1 348 0 Q 350 0 351 2 Q 362 16 374 29 Q 387 42 400 54 Q 404 58 408 62 Q 413 65 417 69 Q 418 70 418 71 Q 418 72 419 73 L 399 89 Q 399 113 398 136 Q 397 159 396 183 Q 396 190 395 197 Q 395 204 392 211 Q 390 218 385 224 Q 380 229 374 233 Q 362 243 346 252 Q 351 258 356 263 Q 361 269 367 274 Q 358 285 388 295 Q 399 305 410 315 Q 413 317 413 320 Q 412 321 411 323 Q 409 324 407 326 Q 402 330 399 334 Q 395 338 391 343 V 420 Q 390 437 391 453 Q 391 469 391 485 Q 345 488 299 493 Q 300 485 300 476 Q 300 467 300 458 Q 284 459 268 459 Q 252 459 237 459 V 493 Q 214 495 191 498 Q 169 500 146 502 Q 146 485 146 468 Q 146 451 146 435 Q 146 416 146 396 Q 146 377 146 357 Q 146 319 146 279 Q 141 283 137 286 Q 133 290 129 293 Q 126 290 124 287 Q 121 285 118 282 Q 125 269 131 256 Q 137 243 143 229 Q 157 194 168 159 Q 179 123 185 85 Q 186 82 186 79 Q 187 75 187 72 Q 168 72 150 74 Q 150 65 150 56 Q 150 46 150 37 Q 163 37 176 38 Q 189 39 203 39 Q 233 39 262 40 Q 291 40 321 39 Q 328 30 334 21 Q 340 12 346 3 Z M 0 299 Q 3 297 7 294 Q 31 309 55 329 L 77 285 Q 84 272 91 259 Q 97 247 105 233 Q 107 229 110 224 Q 113 219 115 213 Q 118 214 120 214 Q 122 215 125 215 Q 122 232 120 248 Q 117 264 115 281 Q 112 298 110 316 Q 107 333 105 350 Q 104 356 103 362 Q 102 367 101 373 Q 111 385 119 399 Q 127 412 134 427 Q 136 430 134 432 Q 125 438 118 444 Q 110 449 103 456 L 79 477 Q 73 484 67 490 Q 60 496 54 503 Q 52 505 51 507 Q 49 509 46 511 Q 44 512 43 509 Q 43 507 43 505 Q 37 462 28 420 Q 23 392 17 365 Q 11 339 4 312 Q 3 309 2 305 Q 1 302 0 299 Z M 168 261 Q 173 263 178 263 Q 182 264 187 265 Q 203 269 218 270 Q 233 272 249 274 Q 251 274 252 274 Q 253 274 254 276 Q 252 280 248 283 Q 245 285 242 289 H 312 Q 318 281 322 274 Q 327 266 331 258 Q 325 261 318 262 Q 312 263 306 264 Q 300 265 295 262 Q 290 259 287 254 Q 284 249 284 242 Q 283 235 283 228 Q 283 221 283 213 Q 274 207 265 203 Q 257 199 248 194 Q 247 192 247 190 Q 248 188 248 185 Q 247 188 246 189 Q 244 191 243 192 Q 240 199 235 204 Q 230 210 225 215 Q 215 225 204 233 Q 193 242 182 251 Q 175 257 168 261 Z M 2 150 Q 3 147 4 145 Q 6 143 7 140 Q 26 143 45 146 Q 63 150 81 159 Q 91 164 101 170 Q 111 177 120 186 Q 121 188 121 189 Q 114 197 107 206 Q 100 214 94 223 Q 86 233 80 244 Q 73 254 66 265 Q 65 267 63 265 Q 61 264 61 263 Q 44 222 22 183 Q 16 175 12 166 Q 7 157 2 150 Z M 28 22 Q 42 24 56 28 Q 70 32 84 37 Q 105 45 121 58 Q 127 64 132 69 Q 138 74 142 81 Q 141 82 140 83 Q 140 83 139 84 Q 122 96 106 110 Q 90 124 75 139 Q 74 141 72 141 Q 70 142 68 139 Q 64 125 59 112 Q 54 99 48 85 Q 45 76 41 68 Q 37 60 33 51 Q 31 45 28 40 Q 26 34 23 28 Z M 300 427 V 320 H 237 Q 235 326 236 330 Q 237 334 237 340 Q 235 362 236 383 Q 237 405 235 427 Z M 217 72 Q 225 74 234 75 Q 243 77 251 80 Q 262 82 273 84 Q 284 85 294 87 V 91 Q 290 94 285 98 Q 280 101 276 106 Q 274 109 274 111 Q 274 114 273 116 Q 268 133 263 149 Q 258 165 251 181 H 253 Q 264 181 275 181 Q 305 181 298 181 Q 301 181 303 180 Q 305 179 306 176 Q 307 172 308 167 Q 308 162 309 158 Q 311 116 312 72 Q 296 71 279 72 Q 263 72 247 72 Q 239 72 232 72 Q 224 71 217 72 Z" fill="black" />
  </g>
  <g class="defect" id="01">
    <path d="M 275 181 Q 305 181 298 181" fill="none" stroke="red" stroke-width="3" />
  </g>
  <g class="defect" id="02">
    <path d="M 367 274 Q 358 285 388 295" fill="none" stroke="red" stroke-width="3" />
  </g>
</svg>