<svg xmlns="http://www.w3.org/2000/svg" width="512" height="512" viewBox="0 0 512 512">
  <g class="glyph">
    <path d="M 221 0 Q 239 8 268 17 Q 297 26 325 33 Q 330 34 329 37 Q 329 39 326 40 Q 314 44 307 50 Q 300 55 294 64 Q 322 90 355 111 Q 388 131 423 147 L 417 164 Q 412 165 408 167 Q 404 169 401 173 Q 397 178 394 183 Q 390 189 387 196 Q 383 202 380 208 Q 377 213 375 217 Q 373 221 371 225 Q 368 229 364 230 Q 360 231 356 230 Q 352 229 349 227 Q 341 221 334 214 Q 326 208 320 201 Q 302 179 290 153 Q 279 127 272 100 Q 269 106 265 111 Q 262 116 259 122 Q 251 131 244 141 Q 238 150 230 158 Q 221 167 212 174 Q 202 181 192 188 Q 187 191 182 194 Q 177 198 171 200 Q 194 204 219 207 Q 243 210 267 213 Q 268 213 269 213 Q 271 214 271 215 Q 270 218 267 220 Q 265 222 262 224 Q 259 228 255 232 Q 251 235 248 240 Q 248 256 248 273 Q 249 289 249 305 L 275 271 Q 285 259 295 245 Q 304 232 312 219 Q 329 235 348 250 Q 367 264 392 280 Q 395 281 394 283 Q 394 285 390 286 Q 375 290 365 296 Q 353 305 341 312 Q 327 321 313 326 Q 299 332 284 337 Q 275 340 266 341 Q 257 343 248 345 V 393 Q 248 395 250 398 Q 251 402 255 403 Q 257 404 260 404 Q 263 404 265 404 Q 285 405 306 404 Q 310 404 314 403 Q 319 403 323 403 Q 329 401 330 396 L 351 325 Q 357 327 364 327 Q 364 343 365 360 Q 350 362 365 394 Q 373 394 381 395 Q 388 395 396 397 Q 400 398 403 400 Q 406 401 409 405 Q 414 415 411 425 Q 408 433 403 439 Q 398 446 393 453 Q 386 462 378 470 Q 371 478 361 483 Q 349 487 336 489 Q 323 490 311 491 Q 293 493 275 492 Q 257 491 240 490 Q 228 490 216 488 Q 205 486 195 480 Q 185 474 177 464 Q 170 455 166 444 Q 162 428 162 412 Q 143 379 161 381 Q 161 364 161 347 Q 160 331 161 314 Q 160 288 160 262 Q 160 236 159 209 Q 151 213 141 221 Q 130 229 120 237 L 105 223 Q 118 208 127 195 Q 136 182 142 173 Q 147 165 154 152 Q 161 138 170 123 Q 195 120 185 91 Q 193 76 199 64 Q 206 48 212 30 Q 217 13 221 0 Z M 120 244 106 369 Q 109 375 112 380 Q 116 385 119 391 Q 125 400 130 409 Q 135 419 139 429 Q 140 431 139 431 Q 138 432 137 432 L 107 455 Q 95 466 83 478 Q 72 489 62 501 Q 59 505 57 508 Q 55 510 52 512 Q 51 511 50 509 Q 50 508 50 506 Q 48 487 45 468 Q 43 448 39 429 Q 35 407 30 386 Q 26 364 21 342 Q 17 329 13 316 Q 9 303 5 290 Q 7 287 9 286 Q 11 285 13 284 Q 17 286 21 289 Q 25 292 29 294 Q 38 301 47 308 Q 56 314 64 321 L 107 240 Z M 22 28 Q 23 26 24 24 Q 25 23 26 21 Q 36 23 46 24 Q 56 26 66 28 Q 88 35 108 46 Q 129 59 143 78 Q 145 80 146 82 Q 148 84 146 87 Q 131 97 118 107 Q 105 118 92 131 Q 88 136 85 140 Q 81 144 77 148 Q 76 149 75 148 Q 74 148 74 147 Q 67 126 59 107 Q 52 88 43 69 Z M 6 142 Q 23 144 39 147 Q 56 150 73 157 Q 95 166 104 174 Q 114 182 120 190 Q 122 193 120 196 Q 112 204 106 212 Q 99 220 93 228 Q 86 236 80 245 Q 73 254 66 265 Q 65 267 63 267 Q 60 267 59 265 Q 54 251 46 235 Q 39 220 31 204 Q 23 189 15 176 Q 7 162 0 151 Z" fill="black" />
  </g>
  <g class="defect" id="01">
    <path d="M 170 123 Q 195 120 185 91" fill="none" stroke="red" stroke-width="3" />
  </g>
  <g class="defect" id="02">
    <path d="M 162 412 Q 143 379 161 381" fill="none" stroke="red" stroke-width="3" />
  </g>
  <g class="defect" id="03">
    <path d="M 365 360 Q 350 362 365 394" fill="none" stroke="red" stroke-width="3" />
  </g>
</svg>