<svg xmlns="http://www.w3.org/2000/svg" width="512" height="512" viewBox="0 0 512 512">
  <g class="glyph">
    <path d="M 215 0 Q 242 5 269 8 Q 296 12 323 14 Q 323 18 322 20 Q 316 24 312 29 Q 307 34 302 40 V 98 H 328 L 346 73 Q 347 71 348 68 Q 349 66 352 65 Q 354 67 356 70 Q 358 72 361 75 Q 371 89 382 102 Q 403 96 405 127 Q 407 130 409 131 Q 412 133 413 136 Q 406 141 401 145 Q 395 150 389 156 Q 388 173 389 190 Q 389 207 388 224 Q 388 239 389 253 Q 389 268 388 281 Q 391 278 394 274 Q 396 270 399 267 Q 401 269 402 271 Q 403 273 404 276 Q 406 283 409 289 Q 412 296 414 303 Q 416 305 417 308 Q 418 311 418 315 Q 417 315 416 316 Q 414 316 413 316 H 304 Q 300 316 299 317 Q 299 318 301 320 Q 303 321 304 323 Q 324 344 346 363 Q 368 382 393 397 Q 399 401 405 404 Q 411 407 417 411 L 413 424 Q 407 425 402 428 Q 398 432 395 436 Q 384 449 376 462 Q 368 476 361 490 Q 357 497 350 497 Q 343 496 339 490 Q 328 480 320 467 Q 311 454 305 441 Q 297 424 292 405 Q 287 387 284 369 Q 281 376 277 383 Q 273 390 268 396 Q 256 410 241 421 Q 225 432 210 443 Q 198 451 187 459 Q 176 467 164 474 Q 150 484 135 493 Q 120 502 106 512 Q 103 509 100 505 Q 97 501 93 499 Q 102 488 111 479 Q 120 469 129 459 Q 133 453 138 447 Q 143 442 148 435 Q 153 428 159 420 Q 166 412 171 403 Q 183 386 192 368 Q 202 350 207 331 Q 208 327 209 324 Q 210 321 210 316 H 153 Q 141 317 130 317 Q 120 317 108 318 Q 109 308 109 298 Q 108 289 109 279 Q 114 279 119 280 Q 124 280 130 280 Q 130 270 130 260 Q 130 250 130 240 Q 130 217 130 194 Q 148 172 130 149 Q 130 132 130 114 Q 130 97 128 79 Q 117 87 108 95 Q 98 104 89 113 L 65 140 Q 64 141 63 141 Q 62 140 61 139 Q 53 116 43 94 Q 34 72 23 51 Q 20 44 16 37 Q 13 31 10 23 Q 12 22 14 20 Q 52 21 84 36 Q 97 43 108 52 Q 120 61 130 72 Q 142 75 156 77 Q 169 79 182 80 Q 190 81 199 82 Q 207 82 215 83 Q 214 87 212 88 Q 209 91 207 93 Q 204 96 202 98 H 218 Q 218 73 218 49 Q 217 24 215 0 Z M 7 288 32 304 Q 36 308 41 312 Q 45 315 50 318 Q 59 301 69 284 Q 78 267 88 250 L 103 223 L 114 227 Q 111 249 107 270 Q 104 293 100 316 Q 95 338 93 361 Q 109 384 123 411 Q 124 415 126 419 Q 129 422 129 426 Q 116 435 106 445 Q 95 454 85 464 Q 75 474 66 484 Q 57 493 47 504 Q 42 508 39 508 Q 37 507 37 502 Q 34 480 31 457 Q 29 435 24 412 Q 21 390 17 369 Q 13 348 8 326 Q 7 318 4 310 Q 2 302 0 295 Z M 1 149 Q 2 148 3 146 Q 4 144 5 142 Q 20 143 34 145 Q 48 147 62 152 Q 72 155 82 161 Q 92 167 101 173 Q 105 178 110 181 Q 115 185 118 191 Q 112 196 107 202 Q 102 208 97 214 Q 89 224 82 235 Q 75 245 69 256 Q 67 259 65 260 Q 64 262 62 265 H 59 Q 53 252 47 239 Q 42 227 35 215 Q 30 204 25 194 Q 20 183 14 172 Q 11 167 8 161 Q 5 155 1 149 Z M 319 283 Q 320 245 320 208 Q 319 170 319 132 H 302 Q 303 143 303 155 Q 302 166 302 177 Q 302 204 302 230 Q 301 256 300 283 Z M 215 283 Q 216 269 216 256 Q 216 243 217 229 Q 217 205 218 181 Q 218 157 218 132 Q 214 131 209 132 Q 205 132 200 131 V 183 Q 202 199 201 214 Q 200 230 200 245 Q 202 254 201 264 Q 200 273 200 283 Z" fill="black" />
  </g>
  <g class="defect" id="01">
    <path d="M 130 194 Q 148 172 130 149" fill="none" stroke="red" stroke-width="3" />
  </g>
  <g class="defect" id="02">
    <path d="M 382 102 Q 403 96 405 127" fill="none" stroke="red" stroke-width="3" />
  </g>
</svg>