<svg xmlns="http://www.w3.org/2000/svg" width="512" height="512" viewBox="0 0 512 512">
  <g class="glyph">
    <path d="M 139 266 Q 152 268 164 270 Q 176 273 188 274 Q 200 275 212 277 Q 224 279 236 280 Q 240 280 244 280 Q 247 281 250 282 Q 253 282 253 283 Q 253 285 252 286 L 245 294 Q 263 295 280 295 Q 298 295 316 295 Q 323 286 329 277 Q 335 267 340 257 Q 343 254 345 257 Q 349 262 358 270 Q 367 279 377 290 Q 387 300 398 310 Q 409 319 417 326 Q 418 327 418 329 Q 417 330 416 331 Q 410 335 405 339 Q 400 343 396 348 Q 394 349 395 351 Q 395 368 394 385 Q 394 403 395 420 Q 394 437 394 454 Q 395 470 394 487 Q 372 489 349 492 Q 326 494 303 497 V 463 H 233 V 491 Q 211 494 188 496 Q 165 499 143 501 V 456 Q 142 439 143 423 Q 143 407 143 390 Q 142 375 142 361 Q 142 347 142 333 Q 142 316 141 299 Q 140 283 139 266 Z M 295 12 Q 307 13 318 14 Q 329 15 339 16 Q 341 16 341 18 Q 341 20 341 21 Q 335 27 329 31 Q 324 36 318 42 Q 317 56 317 71 Q 318 86 318 102 H 368 Q 372 99 374 95 Q 377 92 380 89 Q 382 88 382 88 Q 383 88 384 87 Q 386 96 390 104 Q 394 112 397 119 Q 401 126 402 132 Q 402 133 401 133 Q 399 133 398 134 Q 384 133 369 133 Q 354 134 339 133 Q 334 133 328 133 Q 323 133 318 134 V 218 Q 334 219 350 219 Q 366 218 382 218 Q 387 213 393 205 Q 393 204 394 203 Q 395 203 396 203 Q 397 203 397 203 Q 397 204 398 205 L 408 229 Q 410 234 413 238 Q 416 243 418 248 L 416 250 H 160 Q 152 250 143 252 Q 134 253 126 252 Q 107 243 126 233 Q 125 224 125 215 Q 140 218 156 218 Q 172 217 187 218 Q 197 219 207 219 Q 217 218 227 218 Q 210 215 227 176 Q 227 155 227 134 H 195 Q 191 140 186 147 Q 181 153 175 158 Q 172 162 164 170 Q 157 178 149 187 Q 139 197 128 210 L 116 205 L 136 123 Q 140 99 144 75 Q 148 51 149 27 Q 162 31 175 33 Q 187 36 201 39 Q 207 40 214 41 Q 220 43 227 43 Q 227 33 226 22 Q 226 11 225 0 Z M 9 285 Q 15 289 22 293 Q 28 297 35 302 Q 41 306 46 310 Q 52 315 57 320 Q 76 287 93 252 L 107 217 L 120 222 Q 113 257 108 293 Q 103 328 97 364 Q 118 391 132 426 Q 133 428 132 430 Q 123 438 114 445 Q 105 453 97 460 Q 87 470 77 479 Q 66 489 57 499 Q 54 502 52 505 Q 49 508 46 510 Q 45 511 44 512 Q 43 512 42 511 Q 41 510 41 507 Q 39 497 39 487 Q 38 478 36 468 Q 34 454 32 440 Q 31 427 28 413 Q 26 404 24 395 Q 23 386 21 377 Q 17 355 12 334 Q 7 312 3 290 Z M 16 26 Q 19 22 23 19 Q 33 21 44 23 Q 55 26 66 30 Q 78 33 88 38 Q 98 44 108 51 Q 116 56 123 62 Q 129 68 135 75 Q 136 76 137 77 Q 138 77 138 78 Q 136 82 135 82 Q 123 93 111 104 Q 98 115 88 128 Q 84 132 81 136 Q 78 139 75 143 Q 74 144 73 144 Q 72 145 71 146 Q 66 136 63 127 Q 59 117 55 107 Q 46 87 36 67 Q 26 46 16 26 Z M 233 431 Q 250 432 268 431 Q 285 431 302 432 V 326 Q 292 327 282 327 Q 271 326 260 326 H 234 Q 233 335 233 343 Q 233 352 233 360 Z M 0 152 Q 1 149 3 147 Q 5 145 6 144 Q 15 145 23 145 Q 32 146 41 148 Q 48 150 55 152 Q 62 154 67 157 Q 79 161 91 168 Q 102 176 112 185 Q 115 187 114 189 Q 95 195 106 200 Q 102 205 97 210 Q 88 225 80 238 Q 71 252 64 267 Q 63 267 62 267 Q 62 267 61 267 Q 50 245 40 224 Q 29 202 17 182 Q 13 174 9 166 Q 5 159 0 152 Z M 209 102 Q 213 102 218 102 Q 222 102 227 102 Q 227 90 227 78 Q 227 65 227 53 Q 224 56 221 59 Q 218 63 218 67 Z" fill="black" />
  </g>
  <g class="defect" id="01">
    <path d="M 227 218 Q 210 215 227 176" fill="none" stroke="red" stroke-width="3" />
  </g>
  <g class="defect" id="02">
    <path d="M 114 189 Q 95 195 106 200" fill="none" stroke="red" stroke-width="3" />
  </g>
  <g class="defect" id="03">
    <path d="M 126 252 Q 107 243 126 233" fill="none" stroke="red" stroke-width="3" />
  </g>
</svg>