<svg xmlns="http://www.w3.org/2000/svg" width="512" height="512" viewBox="0 0 512 512">
  <g class="glyph">
    <path d="M 204 0 Q 225 3 242 6 Q 271 0 273 15 Q 286 19 298 26 Q 310 32 321 42 Q 326 46 319 48 Q 304 54 290 62 Q 275 70 262 78 H 311 Q 317 72 323 62 Q 329 52 334 43 Q 336 40 338 43 Q 350 61 365 81 Q 380 100 396 116 Q 399 119 396 121 Q 391 124 385 130 Q 379 135 374 141 V 293 L 357 295 Q 367 302 379 309 Q 390 316 401 322 Q 406 324 401 326 Q 393 329 390 331 Q 386 333 382 336 Q 355 333 362 351 Q 353 357 344 361 Q 359 371 376 380 Q 392 389 411 398 L 408 410 Q 401 412 396 415 Q 391 419 386 427 Q 380 435 374 449 Q 368 463 359 486 Q 356 492 350 494 Q 343 496 335 490 Q 310 473 292 451 Q 273 430 260 400 L 234 438 Q 227 447 220 455 Q 213 463 207 467 Q 201 472 191 479 Q 181 486 174 492 Q 171 494 167 498 Q 162 503 159 510 Q 157 511 156 512 Q 154 512 153 510 Q 147 498 141 488 Q 135 478 130 468 Q 124 459 119 450 Q 113 441 106 431 Q 115 427 120 424 Q 126 421 129 416 Q 132 412 132 405 Q 133 399 133 389 V 115 Q 133 96 133 82 Q 132 69 130 50 Q 153 55 176 58 Q 200 61 226 64 Q 229 65 226 67 Q 224 70 221 73 Q 219 75 217 78 H 238 Q 229 59 220 42 Q 212 25 199 6 Z M 7 278 Q 21 287 32 295 Q 43 303 53 310 L 113 221 L 122 225 L 97 358 Q 104 368 110 380 Q 116 392 123 406 Q 125 409 122 411 Q 100 428 83 448 Q 67 468 47 496 Q 46 497 44 497 Q 43 497 42 495 Q 35 440 26 384 Q 16 328 3 283 Z M 17 23 Q 55 28 82 41 Q 109 55 129 81 Q 132 84 128 86 Q 109 99 93 113 Q 77 126 63 142 Q 60 146 58 142 Q 53 126 48 112 Q 44 98 38 86 Q 33 73 27 59 Q 21 46 13 29 Z M 3 150 Q 41 150 67 159 Q 93 168 116 191 Q 119 192 117 194 Q 102 209 89 226 Q 76 243 64 266 Q 62 270 59 266 Q 51 248 45 235 Q 38 221 31 209 Q 24 196 17 183 Q 9 170 0 155 Z M 214 252 H 296 V 194 H 214 Z M 214 164 H 296 V 108 H 214 Z M 251 376 Q 237 336 232 281 H 214 V 390 Z M 257 281 Q 277 308 307 333 Q 310 327 312 323 Q 315 318 318 313 Q 320 308 322 305 Q 324 301 325 298 L 296 301 V 281 Z" fill="black" />
  </g>
  <g class="defect" id="01">
    <path d="M 242 6 Q 271 0 273 15" fill="none" stroke="red" stroke-width="3" />
  </g>
  <g class="defect" id="02">
    <path d="M 382 336 Q 355 333 362 351" fill="none" stroke="red" stroke-width="3" />
  </g>
</svg>