<svg xmlns="http://www.w3.org/2000/svg" width="512" height="512" viewBox="0 0 512 512">
  <g class="glyph">
    <path d="M 137 192 Q 144 194 152 195 Q 140 208 167 197 Q 184 201 201 203 Q 218 205 235 207 Q 238 208 236 210 L 229 220 Q 248 222 268 221 Q 287 220 306 220 Q 312 212 318 202 Q 325 193 330 183 Q 332 180 335 183 Q 348 198 362 211 Q 376 224 387 233 Q 396 243 407 250 Q 407 253 405 255 Q 403 257 401 259 Q 396 263 392 267 Q 387 271 383 275 V 421 Q 372 423 360 424 Q 349 426 338 427 Q 346 428 315 429 Q 304 430 293 432 V 402 Q 277 403 261 403 Q 245 402 228 403 V 429 Q 206 431 184 433 Q 162 435 139 437 V 273 Q 140 253 139 232 Q 138 212 137 192 Z M 160 162 154 168 Q 153 169 151 169 Q 149 168 148 167 Q 140 156 132 145 Q 124 135 117 128 L 105 115 Q 103 112 105 109 Q 108 105 112 102 Q 115 98 117 95 Q 112 97 105 103 Q 98 108 91 115 Q 84 122 78 129 Q 72 136 67 142 Q 66 145 63 145 Q 60 146 59 142 Q 53 122 46 103 Q 38 84 29 65 Q 25 57 21 48 Q 17 40 13 31 Q 14 29 15 27 Q 16 25 17 23 Q 36 26 55 31 Q 74 35 90 45 Q 110 57 126 75 Q 127 76 128 77 Q 128 78 129 80 Q 137 69 145 59 Q 153 49 159 37 Q 163 37 165 37 Q 168 37 172 37 Q 174 45 177 53 Q 179 61 181 69 Q 195 69 209 70 Q 223 71 237 69 Q 229 54 221 39 Q 213 23 204 8 L 209 0 Q 228 1 248 4 Q 267 7 285 14 Q 295 19 305 24 Q 315 30 322 37 Q 324 40 325 42 Q 313 31 322 46 Q 310 50 300 56 Q 289 63 277 69 Q 280 71 283 70 Q 285 69 288 69 H 343 Q 348 62 355 52 Q 363 43 367 33 Q 369 29 372 32 Q 381 44 396 59 Q 411 74 424 85 Q 426 86 423 88 Q 418 92 415 96 Q 411 99 408 105 Q 400 117 390 127 Q 380 138 367 145 Q 368 152 372 158 Q 375 164 377 172 L 377 174 Q 358 174 340 175 Q 323 175 305 174 Q 276 175 247 175 Q 218 174 189 175 Q 180 175 174 175 Q 168 176 160 176 Z M 0 300 Q 2 299 4 298 Q 5 296 7 295 Q 19 302 32 310 Q 44 317 55 327 Q 64 310 72 294 Q 80 278 88 263 Q 94 252 99 242 Q 104 232 110 222 Q 114 224 120 225 Q 118 235 116 244 Q 115 253 113 263 Q 111 274 109 284 Q 107 295 106 307 Q 103 324 100 340 Q 97 356 96 373 Q 104 384 110 396 Q 117 407 123 419 Q 124 422 126 425 Q 128 428 129 431 Q 129 433 128 434 Q 127 435 126 436 Q 106 450 88 468 Q 71 485 54 504 Q 52 506 50 509 Q 48 511 45 512 Q 43 511 43 508 Q 34 456 24 404 Q 15 352 0 300 Z M 116 449 Q 137 451 157 451 Q 177 451 198 452 Q 220 451 242 452 Q 264 453 286 452 H 380 Q 384 448 387 445 Q 390 441 395 437 Q 396 438 397 440 Q 400 447 403 454 Q 406 460 410 467 Q 412 471 414 475 Q 416 478 418 481 Q 415 485 413 485 Q 372 484 332 484 Q 292 485 252 484 Q 221 485 191 484 Q 160 484 129 486 H 117 Q 117 477 117 468 Q 117 458 116 449 Z M 0 158 Q 1 156 2 154 Q 4 152 5 150 Q 22 152 38 155 Q 54 158 68 165 Q 82 170 95 179 Q 108 188 117 199 Q 103 217 89 234 Q 76 252 64 270 Q 63 273 61 273 Q 59 274 58 274 Q 51 256 43 239 Q 35 221 26 204 Q 22 198 19 191 Q 16 185 12 178 Q 9 173 6 168 Q 3 163 0 158 Z M 184 101 Q 183 108 180 119 Q 178 131 172 143 Q 187 144 204 144 Q 221 144 233 144 H 276 Q 290 144 305 144 Q 319 144 334 144 Q 335 133 336 122 Q 337 112 337 101 H 305 Q 293 101 281 101 Q 269 102 256 101 Z M 228 252 Q 229 264 229 275 Q 228 286 229 298 Q 245 298 261 298 Q 277 298 293 298 V 252 Q 277 251 261 252 Q 245 252 228 252 Z M 293 373 Q 293 362 293 351 Q 293 339 293 329 Q 274 328 256 329 H 229 Q 228 339 229 351 Q 229 362 228 373 Z" fill="black" />
  </g>
  <g class="defect" id="01">
    <path d="M 325 42 Q 313 31 322 46" fill="none" stroke="red" stroke-width="3" />
  </g>
  <g class="defect" id="02">
    <path d="M 338 427 Q 346 428 315 429" fill="none" stroke="red" stroke-width="3" />
  </g>
  <g class="defect" id="03">
    <path d="M 152 195 Q 140 208 167 197" fill="none" stroke="red" stroke-width="3" />
  </g>
</svg>