<svg xmlns="http://www.w3.org/2000/svg" width="512" height="512" viewBox="0 0 512 512">
  <g class="glyph">
    <path d="M 127 2 Q 145 5 162 11 Q 179 17 195 26 Q 205 33 213 40 Q 222 48 229 56 Q 232 59 229 62 Q 227 64 224 66 Q 221 67 219 69 Q 215 72 209 77 Q 202 81 194 88 Q 186 94 178 100 Q 170 107 163 112 Q 171 114 178 115 Q 184 116 189 116 Q 192 117 190 121 Q 184 126 181 130 Q 177 134 175 138 V 312 Q 191 325 175 337 Q 175 349 174 362 Q 174 376 174 390 Q 175 405 174 419 Q 174 426 174 432 Q 174 439 175 446 Q 190 415 202 386 L 216 349 L 184 353 V 209 L 184 180 Q 193 182 199 183 Q 206 184 213 185 L 225 186 Q 228 187 227 190 L 221 199 H 231 V 165 Q 208 165 185 167 V 131 Q 196 132 208 133 Q 220 133 232 133 Q 231 125 231 117 Q 232 109 231 101 V 88 Q 235 89 244 91 Q 253 92 264 94 Q 274 96 284 97 Q 293 99 297 100 Q 301 100 298 103 L 287 115 V 132 H 310 L 320 119 Q 322 116 324 119 L 340 150 Q 339 130 340 110 Q 341 91 341 71 Q 327 70 315 70 Q 302 71 290 71 Q 276 71 263 71 Q 250 71 236 73 Q 237 64 236 55 Q 236 46 236 36 Q 256 38 275 38 Q 295 38 314 38 Q 322 38 332 38 Q 341 39 350 38 Q 355 30 359 21 Q 364 12 368 4 Q 370 0 373 4 Q 379 11 386 18 Q 411 40 399 31 Q 401 34 405 38 Q 410 42 414 46 Q 418 50 423 54 Q 427 57 430 59 Q 433 63 430 65 Q 425 70 420 74 Q 415 79 412 84 Q 412 152 412 219 Q 411 287 412 355 Q 411 387 412 420 Q 411 430 412 439 Q 412 448 411 457 Q 409 464 405 469 Q 401 475 396 480 Q 384 494 367 502 Q 360 507 352 510 Q 343 512 335 511 Q 327 510 323 503 Q 319 496 319 489 Q 319 484 319 478 Q 319 473 319 468 Q 314 465 310 461 Q 305 458 301 455 Q 297 452 293 449 Q 289 447 286 444 Q 286 451 286 458 Q 287 464 287 471 V 476 Q 273 477 259 478 Q 246 479 232 481 Q 232 464 232 447 Q 232 430 232 413 Q 224 424 214 434 Q 204 443 194 453 Q 189 457 185 461 Q 180 465 175 469 Q 174 476 174 483 Q 175 489 174 496 Q 168 498 141 499 Q 124 501 107 503 Q 107 488 107 474 Q 107 459 107 445 Q 91 455 80 466 Q 71 473 63 481 Q 56 490 49 498 Q 46 500 44 503 Q 42 506 39 507 Q 36 506 36 504 Q 37 501 36 500 Q 34 483 32 465 Q 31 448 28 431 Q 25 409 22 387 Q 18 365 13 343 Q 10 330 7 319 Q 5 308 2 296 Q 4 294 6 292 Q 7 291 9 289 Q 19 297 28 305 Q 37 313 46 323 Q 56 296 66 268 Q 77 241 87 213 Q 90 214 93 215 Q 96 216 99 216 Q 97 235 95 254 Q 93 273 91 291 Q 88 311 86 330 Q 84 349 80 367 Q 85 375 89 382 Q 94 389 98 396 Q 101 401 103 405 Q 106 410 107 415 Q 107 400 107 385 Q 107 370 107 355 V 252 Q 108 240 107 229 Q 107 217 107 206 Q 107 187 107 169 Q 107 150 107 132 Q 107 124 106 116 Q 106 108 105 100 Q 112 102 128 106 Q 144 109 159 111 Q 158 108 156 103 Q 154 97 152 91 Q 149 84 147 78 Q 145 72 143 67 Q 139 59 136 50 Q 133 42 129 34 L 118 11 Z M 11 24 Q 13 21 15 20 Q 17 18 18 15 Q 37 19 57 26 Q 76 32 91 46 Q 99 51 105 58 Q 111 65 118 72 Q 121 74 122 78 Q 116 82 110 86 Q 104 89 99 94 Q 89 102 80 110 Q 72 117 63 126 Q 61 129 59 131 Q 57 133 55 134 Q 52 134 52 132 Q 50 127 49 123 Q 48 118 46 114 Q 38 91 30 69 Q 22 46 11 24 Z M 5 137 Q 11 138 17 139 Q 22 140 28 141 Q 42 144 55 149 Q 67 155 79 163 Q 85 168 91 172 Q 96 177 102 183 Q 104 184 103 187 Q 102 189 101 191 Q 94 199 88 207 Q 82 215 75 223 Q 70 231 65 239 Q 59 247 55 256 Q 54 258 51 259 Q 49 254 47 249 Q 45 243 42 238 Q 34 217 26 197 Q 17 177 7 158 L 0 145 Z M 287 343 Q 288 344 291 345 Q 293 347 294 347 Q 304 351 312 357 Q 321 363 328 371 Q 331 374 334 378 Q 337 381 340 384 V 285 Q 339 276 340 268 Q 341 259 340 250 Q 340 243 340 235 Q 340 228 341 221 Q 338 224 336 227 Q 333 229 332 232 Q 330 234 330 235 Q 332 261 331 288 Q 330 315 330 341 L 296 344 V 333 H 287 Z M 299 198 Q 303 193 306 188 Q 308 183 312 178 Q 314 175 316 178 Q 322 186 328 193 Q 334 201 341 207 V 165 H 287 V 198 Z M 307 433 Q 322 433 337 433 Q 337 432 338 430 Q 338 428 338 426 L 340 403 L 320 421 Q 318 424 314 427 Q 311 430 307 433 Z M 289 431 299 432 Q 298 424 296 415 Q 295 407 293 399 Q 292 391 290 383 Q 288 375 286 367 V 435 Z M 278 287 Q 279 285 280 278 Q 281 272 281 264 Q 282 257 283 249 Q 284 241 284 236 L 299 242 V 228 H 278 Z M 222 238 227 235 Q 230 238 235 246 Q 239 253 242 260 V 229 H 222 Z M 299 302 V 265 Q 296 282 290 289 Q 284 297 278 302 Z M 242 302 V 293 Q 240 294 238 295 Q 236 295 234 296 Q 232 297 230 298 Q 226 300 226 296 Q 226 292 225 285 Q 225 278 224 271 Q 224 264 223 257 Q 222 250 222 245 L 221 302 Z M 216 347 Q 218 343 219 340 Q 220 336 221 332 H 216 Z" fill="black" />
  </g>
  <g class="defect" id="01">
    <path d="M 174 496 Q 168 498 141 499" fill="none" stroke="red" stroke-width="3" />
  </g>
  <g class="defect" id="02">
    <path d="M 386 18 Q 411 40 399 31" fill="none" stroke="red" stroke-width="3" />
  </g>
  <g class="defect" id="03">
    <path d="M 175 312 Q 191 325 175 337" fill="none" stroke="red" stroke-width="3" />
  </g>
</svg>