<svg xmlns="http://www.w3.org/2000/svg" width="512" height="512" viewBox="0 0 512 512">
  <g class="glyph">
    <path d="M 348 1 Q 350 0 351 1 Q 353 2 353 3 Q 367 20 381 35 Q 388 42 396 50 Q 403 57 409 65 Q 412 67 409 70 Q 404 75 399 79 Q 394 83 390 87 Q 390 92 390 97 Q 390 101 390 105 Q 390 117 390 128 Q 390 139 390 150 Q 390 167 390 183 Q 390 199 390 215 Q 390 237 390 259 Q 390 263 390 267 Q 390 271 390 276 Q 386 276 382 276 Q 379 277 376 277 Q 387 287 400 296 Q 412 305 425 314 Q 423 317 420 318 Q 416 318 414 320 Q 405 325 396 331 Q 387 337 378 341 L 356 350 Q 379 373 405 391 Q 410 395 415 399 Q 420 402 424 407 Q 423 408 423 410 Q 422 413 421 415 Q 419 417 417 418 Q 415 420 412 422 Q 406 427 402 434 Q 397 441 392 448 Q 387 456 383 464 Q 378 472 374 480 Q 372 484 368 488 Q 365 491 360 491 Q 356 490 352 487 Q 348 485 344 482 Q 327 466 314 447 Q 301 427 292 407 Q 284 417 276 428 Q 268 438 259 449 Q 250 460 238 468 Q 226 477 214 486 Q 207 491 201 497 Q 195 502 191 510 Q 190 512 188 511 Q 186 511 185 509 Q 176 492 167 476 Q 159 459 149 443 Q 148 441 146 439 Q 145 437 143 436 Q 139 453 127 465 Q 115 478 101 488 Q 92 494 80 498 Q 69 502 57 500 Q 52 499 48 496 Q 44 493 43 488 Q 40 479 40 470 Q 40 461 40 452 Q 40 451 36 450 Q 28 444 20 440 Q 12 435 3 429 Q 3 425 3 421 Q 4 417 5 413 Q 18 413 31 414 Q 44 415 58 414 Q 60 414 63 412 Q 66 408 66 405 Q 69 391 70 378 Q 70 365 71 351 Q 72 344 72 336 Q 72 329 72 322 Q 66 326 59 330 Q 52 334 45 338 Q 37 344 28 349 Q 19 354 10 359 Q 8 357 6 355 Q 4 353 1 350 Q 18 320 35 291 Q 52 261 67 230 Q 67 227 68 226 Q 70 224 69 222 Q 68 211 66 199 Q 65 188 63 177 L 17 206 Q 14 207 10 211 Q 4 207 0 201 Q 8 189 16 176 Q 24 163 32 150 Q 36 143 40 136 Q 44 130 49 123 Q 40 100 29 80 Q 17 59 4 39 Q 7 36 9 33 Q 11 31 13 28 Q 20 32 26 36 Q 33 41 40 46 Q 49 53 58 60 Q 67 68 74 76 Q 78 66 83 55 Q 88 44 92 33 L 101 8 Q 117 16 134 24 Q 150 32 167 39 Q 167 31 167 23 Q 167 15 167 7 Q 182 12 199 14 Q 215 17 232 20 L 263 24 V 26 Q 260 29 257 31 Q 254 34 252 36 Q 270 38 288 37 Q 306 36 325 37 Q 330 30 335 23 Q 340 16 344 8 Q 345 6 346 4 Q 346 2 348 1 Z M 120 130 Q 123 136 125 143 Q 128 149 130 155 Q 139 184 144 214 Q 148 244 150 275 Q 151 287 151 298 Q 151 309 152 320 V 345 Q 151 367 150 390 Q 149 412 144 434 Q 145 431 147 430 Q 149 429 151 428 Q 156 427 159 424 Q 163 422 166 418 Q 168 412 168 406 Q 168 400 169 394 Q 168 381 168 368 Q 169 354 168 341 Q 187 322 168 304 Q 168 287 169 269 Q 168 216 168 163 Q 168 111 168 57 Q 166 59 164 62 Q 163 64 161 66 Q 150 87 138 105 Q 145 122 130 116 Q 126 121 122 126 Q 121 127 120 128 Q 119 129 120 130 Z M 274 234 Q 284 234 293 234 Q 302 234 312 234 Q 310 217 311 201 Q 325 184 310 167 H 248 Q 247 184 247 201 Q 248 217 248 234 Z M 247 135 Q 263 135 279 135 Q 295 135 310 135 V 69 H 248 Q 247 86 247 102 Q 248 118 247 135 Z M 247 392 Q 256 389 265 386 Q 275 383 283 379 L 276 352 Q 270 332 267 310 Q 263 289 261 267 H 248 V 340 Q 247 353 247 366 Q 248 379 247 392 Z M 287 267 Q 291 273 295 278 Q 298 284 301 289 L 328 323 Q 333 313 339 302 Q 344 291 348 280 Q 339 280 330 281 Q 321 282 312 284 Q 312 279 312 276 Q 312 272 312 268 Q 306 267 300 267 Q 294 267 287 267 Z" fill="black" />
  </g>
  <g class="defect" id="01">
    <path d="M 311 201 Q 325 184 310 167" fill="none" stroke="red" stroke-width="3" />
  </g>
  <g class="defect" id="02">
    <path d="M 138 105 Q 145 122 130 116" fill="none" stroke="red" stroke-width="3" />
  </g>
  <g class="defect" id="03">
    <path d="M 168 341 Q 187 322 168 304" fill="none" stroke="red" stroke-width="3" />
  </g>
</svg>