<svg xmlns="http://www.w3.org/2000/svg" width="512" height="512" viewBox="0 0 512 512">
  <g class="glyph">
    <path d="M 210 0 Q 227 4 246 8 Q 265 11 283 14 Q 296 16 309 18 Q 322 20 335 22 Q 337 22 337 24 Q 331 30 324 36 Q 317 42 311 49 Q 311 65 311 79 Q 311 94 311 109 V 176 H 373 L 383 161 Q 386 159 387 158 Q 393 168 397 178 Q 401 188 407 198 Q 408 201 410 203 Q 411 206 410 209 Q 400 209 390 209 Q 381 209 371 209 H 214 Q 198 208 183 208 Q 168 209 152 209 Q 152 226 152 244 Q 152 261 151 279 H 259 Q 261 279 263 276 Q 265 274 267 273 Q 275 262 283 251 Q 291 240 298 229 H 300 Q 305 235 310 241 Q 315 247 320 253 Q 333 268 347 283 Q 361 298 375 314 Q 378 317 376 320 Q 369 324 363 329 Q 357 334 351 340 Q 351 361 351 383 Q 351 404 351 425 V 493 L 248 502 Q 247 483 247 464 Q 247 445 247 425 V 313 Q 239 313 230 313 Q 222 312 213 313 Q 202 313 191 313 Q 180 312 169 313 Q 163 313 159 313 Q 154 313 149 312 Q 148 329 145 345 Q 141 361 134 376 Q 112 377 118 401 Q 108 413 98 423 Q 76 445 56 467 Q 35 489 15 512 L 0 504 Q 6 491 11 478 Q 16 465 20 451 Q 30 426 35 400 Q 41 374 45 347 Q 47 329 48 309 Q 49 290 49 271 Q 51 241 50 212 Q 49 182 49 152 V 86 Q 49 69 49 54 Q 48 38 47 22 Q 51 22 54 23 Q 57 23 60 24 Q 73 26 86 28 Q 99 30 112 31 Q 128 33 143 34 Q 158 35 173 38 Q 176 38 178 40 Q 161 41 177 42 Q 176 43 176 44 Q 169 49 163 56 Q 157 62 153 69 Q 152 70 152 73 Q 165 90 152 107 Q 152 124 152 140 Q 152 150 152 158 Q 153 167 152 176 H 212 Q 212 170 212 164 Q 211 158 212 152 Q 212 126 212 102 Q 212 77 211 52 Q 212 39 212 26 Q 211 13 210 0 Z" fill="black" />
  </g>
  <g class="defect" id="01">
    <path d="M 178 40 Q 161 41 177 42" fill="none" stroke="red" stroke-width="3" />
  </g>
  <g class="defect" id="02">
    <path d="M 134 376 Q 112 377 118 401" fill="none" stroke="red" stroke-width="3" />
  </g>
  <g class="defect" id="03">
    <path d="M 152 73 Q 165 90 152 107" fill="none" stroke="red" stroke-width="3" />
  </g>
</svg>