<svg xmlns="http://www.w3.org/2000/svg" width="512" height="512" viewBox="0 0 512 512">
  <g class="glyph">
    <path d="M 160 249 Q 171 252 184 254 Q 198 257 212 259 Q 227 261 240 263 Q 241 277 265 265 Q 266 265 267 266 Q 267 268 266 269 Q 263 271 259 274 Q 256 277 254 280 H 310 Q 317 280 324 280 Q 332 280 339 280 Q 345 270 351 261 Q 357 251 362 242 L 322 246 V 222 H 261 V 244 L 178 251 V 53 Q 173 54 170 57 Q 166 60 164 62 Q 156 76 150 89 Q 143 102 135 115 Q 132 120 128 125 Q 125 129 122 134 Q 126 140 128 147 Q 130 153 132 160 Q 138 178 141 197 Q 144 215 147 234 Q 148 244 149 254 Q 150 263 150 273 Q 151 302 152 330 Q 152 357 151 387 Q 151 398 150 409 Q 149 420 147 432 Q 146 438 144 445 Q 143 452 139 458 Q 132 472 120 482 Q 111 490 100 496 Q 89 502 78 507 Q 66 512 56 510 Q 51 509 47 506 Q 43 503 42 499 Q 39 489 39 479 Q 38 469 37 459 Q 28 453 19 447 Q 11 441 2 435 Q 2 431 2 427 Q 3 424 4 420 L 54 423 Q 57 423 60 422 Q 62 422 65 420 Q 68 417 68 410 Q 69 399 70 388 Q 71 377 71 366 Q 72 357 71 348 Q 71 339 72 329 Q 60 339 48 345 Q 36 352 23 359 Q 19 360 16 362 Q 13 363 10 364 Q 7 362 5 360 Q 3 357 0 354 Q 7 344 13 334 Q 19 325 25 314 Q 36 296 47 277 Q 58 258 68 238 Q 69 235 69 230 Q 67 202 62 175 L 40 191 Q 32 195 24 200 Q 17 204 9 209 Q 6 207 5 204 Q 3 201 0 199 Q 6 190 11 182 Q 17 174 22 165 Q 29 155 36 144 Q 42 134 47 122 Q 43 111 37 101 Q 32 91 26 80 Q 6 71 14 61 Q 8 51 2 41 Q 5 35 10 31 Q 27 41 42 52 Q 58 64 73 76 Q 81 57 89 39 Q 96 21 102 2 Q 113 9 125 14 Q 136 20 148 26 L 178 40 Q 177 32 177 25 Q 177 17 176 10 Q 189 12 202 15 Q 232 32 227 18 L 270 24 Q 274 25 271 28 L 264 38 Q 282 37 299 37 Q 317 38 334 38 Q 341 30 346 20 Q 352 10 357 1 Q 359 1 360 0 Q 373 18 389 33 Q 404 49 420 64 Q 422 66 424 67 Q 426 68 426 71 Q 425 74 422 76 Q 419 79 417 81 Q 413 83 411 86 Q 408 89 404 92 Q 404 108 404 124 Q 404 140 404 156 Q 404 177 405 197 Q 405 217 404 238 Q 397 239 389 240 Q 382 241 374 242 Q 381 251 389 261 Q 397 270 405 279 Q 412 288 419 296 Q 425 303 433 310 Q 434 311 435 313 Q 436 314 437 315 Q 437 317 435 318 Q 434 319 433 320 Q 429 324 426 327 Q 423 331 418 335 Q 417 338 417 339 Q 417 341 417 343 Q 417 356 417 370 Q 417 383 417 396 V 491 Q 395 493 372 496 Q 350 498 327 500 V 465 Q 307 466 288 466 Q 269 466 249 466 Q 249 473 249 481 Q 249 489 250 497 Q 228 500 206 502 Q 185 503 163 506 Q 162 443 163 381 Q 162 353 163 327 Q 163 300 162 273 Q 162 266 161 261 Q 160 255 160 249 Z M 249 433 Q 262 433 274 433 Q 286 433 298 433 Q 306 433 313 433 Q 320 433 327 432 V 388 H 249 Z M 327 355 V 313 Q 307 313 288 313 Q 269 313 249 313 V 355 Z M 322 114 V 69 H 261 V 114 Z M 322 190 V 145 Q 306 146 291 146 Q 276 145 261 145 V 190 Z" fill="black" />
  </g>
  <g class="defect" id="01">
    <path d="M 240 263 Q 241 277 265 265" fill="none" stroke="red" stroke-width="3" />
  </g>
  <g class="defect" id="02">
    <path d="M 26 80 Q 6 71 14 61" fill="none" stroke="red" stroke-width="3" />
  </g>
  <g class="defect" id="03">
    <path d="M 202 15 Q 232 32 227 18" fill="none" stroke="red" stroke-width="3" />
  </g>
</svg>