<svg xmlns="http://www.w3.org/2000/svg" width="512" height="512" viewBox="0 0 512 512">
  <g class="glyph">
    <path d="M 159 0 Q 180 4 201 7 Q 221 11 242 14 Q 264 17 286 18 Q 286 19 285 21 Q 285 22 284 23 Q 278 28 273 34 Q 267 40 262 47 Q 261 51 262 54 Q 262 58 262 62 Q 291 62 319 63 Q 347 63 377 62 L 387 49 Q 390 46 391 49 Q 395 57 398 64 Q 402 71 405 79 Q 409 87 412 93 Q 413 96 410 96 H 337 Q 345 102 355 105 Q 364 109 373 113 Q 381 115 388 118 Q 395 120 403 123 Q 405 124 405 126 Q 404 129 402 130 Q 397 133 393 134 Q 389 136 385 141 Q 380 146 378 152 Q 375 157 370 162 Q 378 168 386 173 Q 393 179 401 186 L 406 192 Q 401 199 396 204 Q 391 209 386 215 Q 364 223 373 231 Q 366 239 359 246 Q 362 247 366 249 Q 371 251 378 254 Q 384 256 390 258 Q 397 260 403 262 Q 407 263 405 266 Q 401 267 397 270 Q 393 271 390 273 Q 387 275 385 278 Q 382 282 379 287 Q 376 292 372 297 Q 383 304 392 312 Q 402 319 410 329 Q 413 332 410 333 Q 389 351 370 372 Q 367 376 364 380 Q 361 384 357 388 Q 356 387 355 386 Q 355 385 354 384 Q 348 373 340 363 Q 332 353 325 343 Q 315 348 305 352 Q 295 357 285 362 Q 288 365 291 366 Q 294 367 298 369 Q 308 375 318 379 Q 328 383 338 388 L 363 397 Q 395 408 425 417 Q 425 421 425 424 Q 424 427 424 431 Q 415 432 410 437 Q 405 440 402 445 Q 398 450 396 455 Q 390 466 385 476 Q 381 487 377 497 Q 374 508 363 509 Q 359 508 355 506 Q 352 504 347 503 Q 340 500 334 496 Q 327 493 320 489 Q 290 472 267 446 Q 244 419 232 387 Q 228 393 224 399 Q 220 405 214 411 Q 206 422 194 430 Q 187 436 178 441 Q 170 445 161 450 Q 149 456 136 462 Q 123 468 110 473 Q 91 480 73 487 Q 55 494 36 501 L 9 512 Q 8 509 5 505 Q 3 502 0 497 Q 19 482 38 468 Q 57 453 75 437 Q 84 428 94 418 Q 103 408 112 398 Q 119 391 124 383 Q 129 375 135 367 L 143 349 Q 133 358 124 369 Q 114 379 106 391 Q 104 391 103 389 Q 102 388 101 386 L 83 360 Q 66 370 50 379 Q 50 402 16 398 L 6 390 Q 8 385 10 382 Q 13 379 15 376 Q 24 361 34 345 Q 43 330 51 314 L 24 274 Q 23 272 22 270 Q 21 268 20 267 Q 21 264 23 263 Q 24 262 25 259 Q 38 262 49 266 Q 60 271 70 275 Q 76 266 80 257 Q 85 247 88 237 Q 95 240 103 245 Q 111 249 119 252 Q 129 255 140 259 Q 150 262 161 266 Q 161 257 161 248 Q 161 240 161 231 V 203 Q 159 207 155 210 Q 151 213 148 217 Q 142 223 136 230 Q 130 237 124 243 Q 123 244 122 245 Q 120 247 117 248 Q 115 247 113 245 Q 111 242 110 240 Q 104 233 100 226 Q 95 219 89 213 Q 87 214 85 215 Q 83 216 81 218 Q 66 226 52 234 Q 37 241 23 249 Q 20 247 17 245 Q 14 244 11 241 Q 17 234 21 228 Q 25 221 30 215 Q 37 204 43 193 Q 49 182 55 172 Q 45 161 36 150 Q 27 139 17 128 L 23 121 Q 36 123 49 127 Q 61 130 74 135 Q 84 116 90 95 Q 71 95 52 96 Q 33 97 15 98 Q 14 88 13 79 Q 13 69 13 60 Q 38 62 63 62 Q 75 62 86 62 Q 97 62 109 62 H 161 Q 177 63 161 31 Q 160 16 159 0 Z M 262 224 Q 271 211 279 197 Q 287 184 297 171 Q 294 168 291 165 Q 289 161 286 159 Q 281 152 275 145 Q 270 139 264 132 L 270 121 Q 282 122 292 126 Q 303 129 314 134 Q 318 124 321 115 Q 325 106 328 96 Q 311 96 295 96 Q 278 95 262 96 Q 262 106 262 116 Q 262 127 262 137 Z M 267 248 Q 281 253 293 258 Q 304 264 314 268 Q 319 259 323 250 Q 327 241 330 232 Q 336 235 342 238 Q 347 241 353 245 Q 351 240 347 235 Q 344 231 340 225 Q 338 221 335 218 Q 332 214 328 209 Q 313 218 298 228 Q 283 237 267 244 L 261 237 V 254 Z M 251 339 Q 254 342 257 344 Q 261 346 264 349 Q 272 338 280 327 Q 288 316 296 304 Q 293 300 288 294 Q 283 287 277 281 Q 272 274 268 269 Q 264 264 262 261 Q 260 282 258 301 Q 256 319 251 339 Z M 95 95 Q 111 104 127 111 Q 143 119 162 123 Q 162 116 162 110 Q 161 103 162 95 Z M 132 165 Q 148 176 161 189 Q 161 175 162 161 Q 162 147 161 133 Q 150 137 145 146 Q 139 156 132 165 Z M 130 304 Q 136 308 142 313 Q 148 318 153 324 Q 155 319 156 316 Q 156 312 157 307 Q 159 298 159 290 Q 160 281 161 272 Q 156 275 152 277 Q 148 278 145 281 Q 141 287 138 292 Q 135 298 130 304 Z" fill="black" />
  </g>
  <g class="defect" id="01">
    <path d="M 50 379 Q 50 402 16 398" fill="none" stroke="red" stroke-width="3" />
  </g>
  <g class="defect" id="02">
    <path d="M 386 215 Q 364 223 373 231" fill="none" stroke="red" stroke-width="3" />
  </g>
  <g class="defect" id="03">
    <path d="M 161 62 Q 177 63 161 31" fill="none" stroke="red" stroke-width="3" />
  </g>
</svg>