<svg xmlns="http://www.w3.org/2000/svg" width="512" height="512" viewBox="0 0 512 512">
  <g class="glyph">
    <path d="M 401 1 Q 402 0 403 0 Q 405 0 405 1 Q 410 11 415 22 Q 420 33 425 44 Q 426 45 426 46 Q 426 48 424 48 Q 387 49 351 49 Q 314 48 277 48 Q 267 61 254 74 Q 261 75 266 77 Q 271 78 279 79 Q 282 80 280 83 Q 277 86 275 89 Q 273 91 270 95 Q 270 113 270 130 Q 270 148 270 166 V 193 Q 251 195 231 197 Q 211 199 192 200 Q 182 200 172 201 Q 172 187 172 174 Q 172 160 172 146 Q 164 150 155 155 Q 146 160 137 163 Q 123 168 109 172 Q 96 176 82 181 Q 78 182 75 182 Q 71 182 67 183 Q 75 185 84 186 Q 92 188 100 189 Q 114 190 127 192 Q 139 194 153 194 Q 153 196 152 196 Q 149 200 147 203 Q 144 206 142 209 Q 172 208 202 209 Q 232 209 262 209 Q 276 208 289 209 Q 302 209 317 209 Q 323 200 329 191 Q 335 182 340 172 Q 341 169 345 166 Q 362 185 380 202 Q 398 219 418 235 Q 422 237 421 242 Q 420 243 419 244 Q 417 245 416 246 Q 411 251 406 255 Q 402 260 397 264 V 317 Q 397 341 397 365 Q 396 389 397 414 Q 397 424 397 434 Q 397 444 392 453 Q 389 458 386 462 Q 382 466 377 469 Q 368 478 357 485 Q 346 493 333 498 Q 327 501 321 502 Q 315 504 309 503 Q 302 503 297 499 Q 292 495 291 488 Q 289 480 289 471 Q 289 462 288 453 Q 282 450 277 447 Q 272 445 266 442 Q 266 453 266 464 Q 266 475 265 486 L 172 492 Q 172 475 173 458 Q 173 440 173 423 V 388 Q 162 388 152 389 Q 141 389 130 389 Q 127 402 122 414 Q 117 426 107 434 Q 93 447 78 458 Q 64 470 50 482 Q 41 490 32 497 Q 24 504 15 512 Q 10 510 7 508 Q 4 505 0 503 Q 4 496 7 488 Q 10 481 14 473 Q 20 458 25 442 Q 31 427 34 411 Q 38 397 39 382 Q 40 373 41 362 Q 41 352 42 342 Q 44 322 43 301 Q 25 290 44 259 Q 44 245 44 231 Q 44 217 43 203 Q 43 200 43 197 Q 43 194 42 191 Q 34 194 26 197 Q 18 200 10 203 Q 8 199 6 196 Q 4 193 2 189 Q 19 176 35 163 Q 52 150 68 136 Q 94 124 95 112 Q 108 100 121 87 Q 130 78 138 68 Q 157 78 156 49 H 103 Q 91 49 80 49 Q 68 48 56 49 Q 46 50 37 50 Q 28 50 19 50 V 13 Q 46 15 74 16 Q 101 16 128 16 H 228 Q 265 15 301 15 Q 337 16 374 15 Q 376 15 380 15 Q 383 16 386 16 Q 387 16 389 13 Q 392 10 395 7 Q 398 4 401 1 Z M 284 80 Q 301 79 315 80 Q 329 81 346 84 Q 362 87 376 91 Q 391 96 405 102 Q 417 107 428 116 Q 433 119 428 126 Q 416 139 405 154 Q 393 169 382 185 Q 379 191 374 185 L 347 157 Q 335 145 324 134 Q 313 123 301 112 Q 296 107 290 102 Q 284 97 278 93 Z M 266 357 Q 276 357 286 357 Q 295 357 305 358 V 312 Q 296 312 286 313 Q 276 313 267 312 Q 267 324 267 335 Q 266 346 266 357 Z M 172 357 Q 173 346 173 335 Q 173 324 173 313 H 135 Q 135 324 135 335 Q 135 346 133 357 Z M 173 281 Q 173 271 174 261 Q 174 251 173 241 Q 164 241 154 241 Q 144 242 135 241 Q 136 251 135 261 Q 135 271 135 281 Z M 267 281 Q 286 281 305 281 V 240 Q 296 241 286 241 Q 276 241 267 241 Q 268 251 267 261 Q 267 271 267 281 Z M 266 389 Q 266 397 266 403 Q 266 410 266 418 Q 274 418 282 418 Q 290 418 298 418 Q 302 418 303 415 Q 304 412 305 409 Q 305 404 305 399 Q 305 394 305 388 Q 294 388 285 389 Q 276 389 266 389 Z" fill="black" />
  </g>
  <g class="defect" id="01">
    <path d="M 138 68 Q 157 78 156 49" fill="none" stroke="red" stroke-width="3" />
  </g>
  <g class="defect" id="02">
    <path d="M 43 301 Q 25 290 44 259" fill="none" stroke="red" stroke-width="3" />
  </g>
  <g class="defect" id="03">
    <path d="M 68 136 Q 94 124 95 112" fill="none" stroke="red" stroke-width="3" />
  </g>
</svg>