<svg xmlns="http://www.w3.org/2000/svg" width="512" height="512" viewBox="0 0 512 512">
  <g class="glyph">
    <path d="M 206 1 Q 212 0 218 0 Q 224 1 230 2 Q 260 6 289 16 Q 309 23 325 35 Q 327 38 325 40 Q 324 41 322 42 Q 320 43 317 44 Q 310 47 304 50 Q 297 53 291 57 Q 286 59 281 63 Q 285 64 289 63 Q 292 63 295 63 H 383 Q 385 60 387 58 Q 390 55 391 53 Q 394 47 398 46 Q 401 52 403 57 Q 406 63 408 69 Q 411 75 413 80 Q 416 85 419 90 Q 419 91 419 93 Q 419 94 419 95 Q 404 95 390 95 Q 375 96 361 95 Q 330 96 300 95 Q 269 95 239 96 Q 253 97 267 100 Q 281 102 295 107 Q 306 111 316 117 Q 326 124 335 131 Q 337 134 338 136 Q 339 138 336 140 Q 332 141 328 142 Q 324 144 320 145 Q 312 148 305 151 Q 298 154 291 158 H 382 Q 385 154 388 150 Q 392 147 395 142 L 397 144 Q 401 153 405 161 Q 408 169 413 177 Q 414 180 416 183 Q 417 186 417 189 Q 416 191 413 191 Q 399 190 385 191 H 270 Q 281 194 294 197 Q 306 200 318 204 Q 321 204 325 206 Q 324 207 324 208 Q 323 209 322 210 Q 318 212 313 214 Q 308 216 304 219 Q 294 229 285 239 Q 275 249 264 257 Q 255 264 247 270 Q 238 276 229 282 Q 254 298 245 281 Q 253 280 262 279 Q 269 279 275 278 Q 282 278 289 277 Q 293 270 298 263 Q 303 256 307 249 Q 311 242 314 234 Q 318 227 321 220 Q 329 224 336 228 Q 344 232 352 236 Q 365 244 380 251 Q 394 258 407 264 Q 409 265 411 268 Q 407 271 405 272 Q 401 273 397 276 Q 393 278 390 282 Q 385 286 382 290 Q 380 294 375 299 Q 363 312 352 325 Q 340 339 326 350 Q 345 361 361 373 Q 377 386 391 402 Q 400 414 408 426 Q 416 438 422 451 Q 424 455 421 457 Q 418 458 417 458 Q 412 461 408 463 Q 403 466 398 468 Q 390 473 382 477 Q 374 482 366 487 Q 361 490 356 494 Q 351 498 346 501 Q 345 502 344 502 Q 343 502 342 503 Q 342 501 341 501 Q 341 500 341 499 Q 339 484 336 469 Q 334 454 330 438 Q 322 443 314 447 Q 306 451 299 456 Q 291 460 284 464 Q 277 468 270 471 Q 264 474 259 475 Q 253 477 247 479 Q 239 482 230 484 Q 221 486 212 488 Q 203 489 196 491 Q 188 492 180 494 Q 174 495 169 497 Q 164 499 160 503 Q 157 505 156 508 Q 155 510 152 511 Q 150 512 150 510 Q 149 509 149 508 Q 145 485 140 462 Q 136 438 128 415 Q 140 414 152 413 Q 164 412 175 406 Q 190 393 204 378 Q 218 364 231 349 Q 241 339 249 328 Q 244 330 241 332 Q 238 334 233 336 Q 221 343 208 347 Q 195 351 181 355 Q 177 357 174 361 Q 171 364 169 368 Q 166 367 165 365 Q 163 362 162 359 Q 161 355 160 351 Q 157 342 154 333 Q 151 324 149 315 Q 148 310 146 305 Q 144 300 142 295 Q 142 304 141 312 Q 141 320 140 329 Q 139 343 137 356 Q 135 370 129 382 Q 126 390 122 398 Q 118 405 112 412 Q 105 421 97 430 Q 89 438 80 447 L 22 511 Q 15 509 7 505 Q 16 486 23 467 Q 30 448 38 428 Q 48 401 55 373 Q 62 344 64 314 Q 43 319 59 323 Q 56 327 53 332 Q 49 337 44 342 Q 38 347 35 353 Q 33 357 30 362 Q 28 366 25 371 Q 25 371 24 370 Q 23 370 23 370 Q 19 360 17 350 Q 13 332 9 315 Q 4 298 0 280 Q 17 274 33 265 Q 49 256 64 246 Q 65 234 65 223 Q 64 211 64 199 Q 57 206 50 212 Q 43 218 37 226 Q 36 227 34 228 Q 32 230 29 229 Q 27 228 28 226 Q 28 224 28 223 Q 25 202 21 182 Q 17 162 14 141 Q 13 130 10 119 Q 8 108 7 98 L 14 92 Q 27 100 40 109 Q 54 118 64 130 V 122 Q 65 100 64 79 Q 64 57 62 36 Q 85 41 109 43 Q 132 45 156 46 Q 156 49 155 50 Q 152 54 149 57 Q 147 59 144 63 Q 167 64 188 63 Q 210 63 233 63 Q 229 54 224 46 Q 219 37 214 28 Q 211 23 207 17 Q 203 12 200 6 Z M 142 284 Q 149 283 156 282 Q 162 281 169 278 Q 174 272 178 265 Q 182 259 186 252 Q 195 238 202 223 Q 209 208 213 191 Q 197 191 182 192 Q 167 192 150 193 V 156 Q 155 157 161 157 Q 166 157 170 158 Q 190 159 208 159 Q 225 159 245 158 Q 240 144 233 130 Q 227 117 219 102 L 224 96 Q 219 95 212 96 Q 206 97 199 96 Q 186 95 171 95 Q 157 96 144 96 V 218 Q 144 234 143 251 Q 143 268 142 284 Z M 237 411 Q 244 411 252 411 Q 260 411 268 410 L 325 408 Q 322 396 319 385 Q 315 374 313 363 L 304 370 Q 288 382 271 392 Q 253 402 237 411 Z" fill="black" />
  </g>
  <g class="defect" id="01">
    <path d="M 229 282 Q 254 298 245 281" fill="none" stroke="red" stroke-width="3" />
  </g>
  <g class="defect" id="02">
    <path d="M 64 314 Q 43 319 59 323" fill="none" stroke="red" stroke-width="3" />
  </g>
</svg>