<svg xmlns="http://www.w3.org/2000/svg" width="512" height="512" viewBox="0 0 512 512">
  <g class="glyph">
    <path d="M 138 224 Q 140 225 149 227 Q 157 229 167 231 Q 177 233 187 235 Q 197 236 203 237 Q 204 237 205 238 Q 205 239 204 240 Q 202 242 200 243 Q 198 245 196 247 H 215 Q 220 241 224 235 Q 227 228 230 222 L 158 227 V 156 Q 158 140 158 124 Q 157 108 155 92 Q 151 92 146 92 Q 142 92 137 92 V 221 Q 137 223 137 226 Q 137 229 137 232 Q 137 257 136 282 Q 136 307 133 331 L 129 355 Q 127 362 126 368 Q 124 374 121 380 Q 120 384 118 387 Q 117 390 115 394 Q 109 404 101 414 Q 93 423 85 432 Q 62 460 39 487 Q 34 494 29 500 Q 23 506 19 512 L 5 507 Q 16 478 26 450 Q 36 422 44 392 Q 47 383 49 374 Q 51 365 52 356 Q 53 347 54 338 Q 55 328 55 319 Q 53 325 50 329 Q 47 333 43 337 Q 31 348 26 364 Q 26 366 22 366 Q 20 364 20 362 Q 19 359 18 356 Q 14 336 9 317 Q 5 297 0 278 Q 16 272 30 263 Q 43 254 57 245 Q 58 233 58 222 Q 58 211 58 199 Q 49 205 42 212 Q 35 219 30 226 Q 29 226 27 228 Q 25 229 23 228 Q 22 225 22 222 Q 23 219 22 215 Q 18 187 13 160 Q 9 133 4 105 Q 6 103 8 101 Q 11 99 13 98 Q 14 98 16 100 Q 27 106 38 112 Q 49 119 58 128 V 87 Q 58 73 57 60 Q 56 47 55 33 Q 69 36 83 38 Q 114 56 110 41 L 145 45 Q 146 46 148 46 Q 149 46 148 48 Q 146 51 144 54 Q 141 56 138 60 Q 160 60 183 60 Q 205 60 228 59 Q 221 45 213 32 Q 205 18 196 5 Q 197 4 199 2 Q 200 0 203 1 Q 216 1 230 3 Q 243 5 257 8 Q 273 11 289 16 Q 306 21 319 30 Q 321 31 323 32 Q 325 33 326 34 Q 328 37 326 40 Q 322 42 318 43 Q 315 44 311 46 Q 296 51 280 60 Q 306 60 331 60 Q 357 60 383 59 L 395 45 Q 397 42 399 45 Q 401 49 404 55 Q 406 60 409 66 Q 412 72 414 77 Q 417 82 419 86 Q 420 87 420 89 Q 420 92 417 91 H 352 Q 355 96 359 99 Q 363 103 367 107 Q 374 113 380 119 Q 386 124 392 129 Q 395 132 398 134 Q 402 137 404 139 L 402 144 Q 397 148 393 152 Q 388 156 384 162 Q 383 170 383 179 Q 383 187 383 196 Q 383 202 383 207 Q 384 212 383 218 L 380 219 Q 382 220 384 222 Q 385 225 387 227 Q 394 235 401 242 Q 407 250 415 256 Q 417 258 419 260 Q 422 261 423 264 L 406 279 Q 405 281 406 283 Q 406 285 406 287 V 353 L 348 359 V 340 H 332 L 331 355 L 275 359 V 270 Q 272 272 270 275 Q 268 277 265 280 Q 266 298 265 315 Q 265 333 265 350 L 232 354 Q 239 356 250 358 Q 262 360 276 362 Q 289 364 304 366 Q 318 368 331 369 Q 333 369 332 371 Q 332 373 330 374 L 315 387 Q 312 391 312 394 L 312 450 H 336 V 401 Q 336 388 335 374 Q 355 377 375 381 Q 395 384 415 387 Q 419 387 420 389 Q 417 393 414 396 Q 410 399 408 402 Q 407 414 407 427 Q 408 439 407 451 V 494 L 336 503 V 483 H 188 Q 183 489 178 494 Q 173 500 169 506 Q 168 507 168 508 Q 168 508 167 508 Q 164 507 162 505 Q 159 502 157 501 Q 147 491 136 482 Q 125 473 114 463 Q 118 460 122 456 Q 127 452 129 447 Q 132 441 132 433 Q 132 429 132 420 Q 132 411 132 401 Q 132 391 132 383 Q 132 374 132 371 L 137 372 Q 176 380 216 385 Q 217 385 218 386 Q 220 386 219 387 Q 215 392 211 396 Q 207 400 204 404 V 450 Q 216 451 228 450 V 411 Q 228 397 227 383 Q 227 369 226 355 L 207 356 V 340 H 194 Q 194 345 194 350 Q 194 354 194 358 L 139 366 Q 139 357 139 349 Q 153 342 139 334 Q 140 323 140 312 Q 139 301 140 291 Q 139 274 140 258 Q 140 241 138 224 Z M 236 219 Q 238 219 240 222 Q 243 225 245 227 Q 252 236 259 245 Q 266 254 274 261 Q 275 251 275 241 Q 274 232 274 222 Q 289 226 308 230 Q 328 234 341 237 Q 343 237 343 238 Q 343 240 342 241 L 338 245 H 355 Q 362 240 366 232 Q 369 224 376 219 L 302 225 L 303 203 Q 305 221 269 204 Q 253 204 236 203 Z M 158 92 Q 180 96 202 99 Q 224 103 246 106 Q 250 106 248 109 Q 247 111 245 112 Q 244 114 243 116 Q 261 115 279 116 Q 297 116 315 115 Q 319 109 324 103 Q 328 98 331 92 Q 309 92 287 91 Q 265 91 242 92 Q 222 91 202 92 Q 183 92 163 92 Z M 303 173 V 146 Q 269 147 236 146 V 173 Z M 333 310 Q 336 310 340 310 Q 344 310 348 310 Q 348 301 348 292 Q 347 283 347 274 Q 344 274 340 274 Q 337 274 333 274 Z M 208 310 V 274 H 194 V 310 Z" fill="black" />
  </g>
  <g class="defect" id="01">
    <path d="M 83 38 Q 114 56 110 41" fill="none" stroke="red" stroke-width="3" />
  </g>
  <g class="defect" id="02">
    <path d="M 139 349 Q 153 342 139 334" fill="none" stroke="red" stroke-width="3" />
  </g>
  <g class="defect" id="03">
    <path d="M 303 203 Q 305 221 269 204" fill="none" stroke="red" stroke-width="3" />
  </g>
</svg>