<svg xmlns="http://www.w3.org/2000/svg" width="512" height="512" viewBox="0 0 512 512">
  <g class="glyph">
    <path d="M 203 0 Q 240 3 275 14 Q 288 19 299 25 Q 310 31 321 38 Q 321 41 319 43 Q 311 45 304 48 Q 298 52 291 53 Q 301 54 312 54 Q 322 53 333 53 H 387 Q 391 49 394 45 Q 397 41 401 37 Q 404 40 405 43 Q 407 47 408 50 Q 412 57 416 65 Q 419 72 423 80 Q 425 82 425 85 Q 409 86 395 86 Q 380 86 365 86 Q 371 89 377 91 Q 384 93 391 95 Q 400 97 408 100 Q 417 102 426 105 Q 425 107 422 110 Q 420 112 417 113 Q 414 117 411 122 Q 408 126 406 131 Q 399 144 390 156 Q 381 168 368 175 H 390 Q 393 172 396 168 Q 399 164 402 161 H 403 Q 404 164 405 166 Q 406 168 407 171 Q 410 180 414 188 Q 418 196 422 205 Q 419 208 418 208 Q 408 208 398 208 Q 389 208 379 208 V 272 H 385 Q 388 270 390 267 Q 393 263 396 260 Q 397 258 399 259 Q 403 270 408 280 Q 413 291 418 302 Q 418 303 417 304 Q 407 306 398 305 Q 389 304 379 306 Q 378 321 379 337 Q 379 353 379 370 H 389 Q 391 366 395 362 Q 398 359 401 356 Q 401 355 403 355 Q 405 355 405 356 Q 408 367 412 376 Q 417 386 422 395 Q 424 397 423 398 Q 422 400 421 401 Q 410 402 400 401 Q 390 401 379 402 Q 378 414 379 427 Q 379 440 379 452 V 498 Q 370 499 362 500 Q 353 500 344 501 Q 333 502 323 503 Q 313 504 303 505 V 446 Q 302 436 303 424 Q 303 413 303 402 Q 295 402 287 402 Q 279 402 271 403 Q 271 398 270 394 Q 270 389 270 385 L 229 390 Q 230 387 230 384 Q 230 381 230 379 Q 217 378 205 378 Q 193 379 181 379 V 396 L 137 398 Q 138 377 137 355 Q 137 334 137 312 Q 137 301 137 291 Q 137 280 137 270 Q 137 262 137 254 Q 137 246 137 237 V 222 Q 136 225 134 227 Q 132 228 132 231 Q 132 243 132 255 Q 132 267 132 279 Q 131 298 130 317 Q 129 336 126 355 Q 124 369 119 383 Q 113 397 105 409 Q 96 423 86 435 Q 75 447 64 459 Q 55 469 46 480 Q 36 490 27 500 Q 24 503 22 506 Q 19 509 16 512 Q 13 509 9 508 Q 6 506 3 504 Q 7 497 11 488 Q 14 480 18 471 Q 32 438 42 402 Q 52 367 54 331 Q 53 333 52 335 Q 60 337 48 339 Q 36 349 29 362 Q 28 364 27 366 Q 26 369 23 369 Q 21 368 21 366 Q 20 365 19 362 Q 15 342 10 322 Q 6 301 0 280 Q 15 275 29 268 Q 44 260 57 252 Q 57 240 58 227 Q 58 214 57 202 L 44 215 Q 40 219 37 223 Q 34 227 30 231 Q 29 231 28 231 Q 27 231 26 231 L 20 192 Q 17 170 12 149 Q 8 127 2 106 Q 4 104 6 102 Q 7 101 9 99 Q 12 99 16 101 Q 27 106 38 115 Q 48 123 57 132 V 88 Q 57 74 57 59 Q 56 45 54 30 Q 65 33 76 34 Q 105 52 98 37 Q 110 40 122 41 Q 135 41 147 44 Q 145 47 142 50 Q 140 52 137 55 Q 159 54 180 55 Q 202 55 223 54 Q 219 41 212 30 Q 205 18 199 6 Q 200 5 201 4 Q 202 2 203 0 Z M 179 87 Q 186 90 194 92 Q 201 94 209 96 Q 212 97 215 97 Q 219 98 221 100 Q 219 102 216 105 Q 214 108 212 111 Q 208 115 206 120 Q 215 124 202 130 Q 204 130 206 130 Q 208 130 211 130 Q 217 124 222 118 Q 227 111 232 105 Q 234 102 237 104 Q 244 112 251 119 Q 258 126 265 133 Q 272 137 276 142 Q 271 145 267 148 Q 262 151 259 156 L 248 172 Q 241 179 233 186 Q 224 194 217 201 H 235 Q 239 195 242 189 Q 245 183 250 176 Q 250 175 251 174 Q 252 173 253 174 Q 258 177 259 181 L 271 198 Q 271 192 271 186 Q 271 180 270 174 Q 275 175 279 175 Q 284 175 289 176 Q 287 167 286 159 Q 285 150 282 142 L 271 95 Q 270 93 271 93 Q 272 92 273 92 Q 276 91 277 89 Q 279 88 281 89 Q 300 94 316 105 Q 332 115 342 131 Q 343 133 345 135 Q 346 137 348 139 Q 350 125 353 113 Q 355 100 356 86 Q 338 86 319 86 Q 301 86 282 87 H 237 Q 222 87 208 87 Q 193 87 179 87 Z M 144 402 145 410 Q 146 422 146 435 Q 146 447 145 459 Q 143 473 139 485 Q 134 497 127 508 Q 125 510 123 508 Q 105 485 85 465 Q 82 461 85 459 Q 91 454 96 449 Q 101 444 106 438 Q 113 431 119 424 Q 125 417 130 409 Q 132 406 134 400 Z M 273 368 Q 281 369 288 369 Q 296 369 303 369 Q 303 353 303 337 Q 303 321 303 306 Q 296 306 291 306 Q 285 306 278 306 V 272 Q 285 272 291 272 Q 296 272 303 272 V 209 H 281 Q 284 212 286 215 Q 288 218 291 221 Q 290 223 288 225 L 273 237 Z M 154 473 Q 156 456 159 437 Q 161 417 161 404 L 171 402 Q 174 406 176 409 Q 178 412 179 415 Q 186 430 192 444 Q 197 458 201 477 Q 202 482 199 484 Q 188 487 176 491 Q 165 496 155 501 Q 154 502 152 501 Q 150 500 150 498 Z M 206 396 Q 215 403 220 409 Q 226 415 231 422 Q 234 426 237 430 Q 239 435 242 439 Q 244 444 247 449 Q 249 455 250 460 Q 251 464 248 466 Q 243 468 238 469 Q 234 471 230 474 Q 224 476 220 479 Q 215 481 210 484 Q 208 485 206 484 Q 205 484 205 481 Q 204 462 203 440 Q 201 418 198 399 Z M 243 391 Q 245 392 249 393 Q 252 395 255 396 Q 260 398 262 400 Q 264 402 269 405 Q 271 407 274 410 Q 277 412 280 415 Q 284 418 287 422 Q 290 427 293 431 Q 296 434 298 436 Q 300 439 301 442 Q 301 445 298 445 Q 296 446 294 447 Q 284 452 276 458 Q 268 464 259 470 Q 256 472 255 468 Q 254 464 253 460 Q 252 456 251 452 Q 248 439 245 429 Q 242 419 239 407 Q 238 404 237 401 Q 237 399 235 395 Z M 132 180 Q 136 170 139 159 Q 142 149 145 138 Q 149 125 151 113 Q 154 101 157 87 Q 151 88 145 88 Q 139 88 132 89 Q 132 112 132 134 Q 132 157 132 180 Z M 161 195 Q 168 195 175 196 Q 182 198 189 199 Q 193 189 196 179 Q 199 169 201 159 Q 199 158 196 158 Q 193 158 190 158 Q 184 169 176 177 Q 169 186 161 195 Z M 338 176 Q 340 168 342 160 Q 344 152 346 144 Q 334 152 323 160 Q 312 168 301 176 Z M 180 349 Q 183 349 185 349 Q 186 349 189 349 V 304 H 180 Z M 221 348 Q 227 348 229 349 Q 230 338 230 327 Q 230 316 230 304 H 221 Z M 189 273 Q 189 263 189 253 Q 189 243 189 232 H 180 V 273 Z M 221 273 Q 224 273 225 273 Q 227 273 230 272 Q 230 262 230 252 Q 230 242 230 231 Q 227 232 221 232 Z" fill="black" />
  </g>
  <g class="defect" id="01">
    <path d="M 206 120 Q 215 124 202 130" fill="none" stroke="red" stroke-width="3" />
  </g>
  <g class="defect" id="02">
    <path d="M 52 335 Q 60 337 48 339" fill="none" stroke="red" stroke-width="3" />
  </g>
  <g class="defect" id="03">
    <path d="M 76 34 Q 105 52 98 37" fill="none" stroke="red" stroke-width="3" />
  </g>
</svg>