<svg xmlns="http://www.w3.org/2000/svg" width="512" height="512" viewBox="0 0 512 512">
  <g class="glyph">
    <path d="M 236 0 Q 250 4 264 7 Q 278 9 293 12 Q 304 13 314 15 Q 325 17 335 18 Q 335 19 335 20 Q 335 20 334 21 Q 329 26 325 31 Q 321 36 317 41 Q 315 42 315 43 Q 315 44 315 46 V 78 H 372 L 382 64 Q 385 62 387 64 L 390 71 Q 394 80 399 89 Q 404 97 409 107 Q 406 111 404 110 H 362 Q 350 111 338 111 Q 327 110 315 110 Q 315 114 315 116 Q 315 119 315 122 Q 315 131 315 140 Q 315 148 315 156 Q 315 168 315 179 Q 295 176 315 202 Q 314 213 315 223 Q 315 233 315 243 Q 317 237 317 231 Q 318 225 319 219 Q 322 204 324 189 Q 326 175 327 160 Q 328 150 329 140 Q 329 131 329 122 Q 344 125 359 129 Q 374 133 389 135 Q 392 137 395 137 Q 397 137 400 140 L 388 152 Q 386 154 386 156 Q 384 165 382 175 Q 380 185 377 195 Q 380 197 383 199 Q 386 202 388 205 Q 401 219 413 236 L 420 250 Q 419 252 417 254 Q 415 255 413 257 Q 402 266 392 277 Q 382 287 371 297 Q 371 298 369 298 Q 368 298 367 298 Q 367 288 367 278 Q 366 268 365 259 Q 365 251 364 243 Q 364 236 364 228 Q 357 237 350 247 Q 344 257 336 266 Q 332 272 327 278 Q 323 283 319 290 Q 329 304 340 318 Q 351 332 362 345 Q 383 371 407 395 Q 410 399 413 402 Q 417 405 419 410 Q 419 412 417 415 Q 416 417 415 419 Q 410 420 407 422 Q 404 425 401 428 Q 393 437 386 447 Q 380 456 373 466 Q 372 470 368 473 Q 365 476 360 477 Q 356 478 353 475 Q 350 473 348 470 Q 343 464 341 458 Q 338 453 336 446 Q 331 432 327 417 Q 323 402 319 386 Q 318 380 317 374 Q 316 368 314 362 Q 315 370 315 378 Q 314 386 314 394 V 501 Q 305 503 296 504 Q 286 505 277 506 Q 266 507 255 508 Q 245 509 234 512 Q 235 485 236 458 Q 237 432 237 405 Q 225 418 212 429 Q 199 440 186 451 Q 177 459 167 466 Q 158 474 149 482 Q 145 486 140 490 Q 135 493 131 496 L 119 487 Q 125 479 130 470 Q 135 462 141 454 Q 127 454 114 455 Q 100 457 87 458 V 420 H 73 V 475 L 1 484 V 420 Q 2 404 1 387 Q 1 371 1 355 Q 2 303 1 251 Q 1 200 2 148 Q 1 119 1 90 Q 2 61 0 32 Q 19 37 39 41 Q 58 44 78 47 Q 80 48 82 48 Q 84 48 87 49 Q 84 52 82 54 Q 79 57 78 59 H 101 Q 104 53 108 47 Q 111 41 115 35 Q 116 33 117 30 Q 118 27 120 26 Q 131 39 141 52 Q 150 65 163 76 Q 172 76 181 77 Q 190 78 199 78 H 237 Q 237 58 237 39 Q 237 19 236 0 Z M 152 436 Q 154 431 157 427 Q 160 422 162 417 Q 165 410 170 403 Q 174 396 177 389 Q 183 379 188 368 Q 193 357 198 347 Q 202 337 206 328 Q 209 319 214 310 Q 216 303 219 296 Q 222 290 224 283 Q 221 287 219 291 Q 216 295 213 299 Q 212 300 210 300 Q 208 300 207 299 V 275 Q 207 266 207 257 Q 207 248 206 239 L 195 259 Q 189 269 182 278 Q 175 287 168 296 Q 164 301 160 306 Q 156 311 153 317 Q 152 319 152 322 Q 152 346 152 369 Q 152 392 152 416 Q 152 420 152 426 Q 152 431 152 436 Z M 152 255 Q 155 250 156 243 Q 156 237 157 231 Q 163 206 167 179 Q 170 153 170 126 Q 178 128 185 130 Q 193 132 201 134 Q 209 136 219 137 Q 228 139 237 141 V 111 Q 221 110 205 111 Q 189 111 172 112 Q 170 112 167 112 Q 164 112 161 113 V 101 Q 156 105 153 109 Q 153 146 152 182 Q 152 219 152 255 Z M 73 168 Q 80 169 88 168 V 156 Q 88 140 88 124 Q 87 108 88 92 H 73 Z M 72 202 Q 73 221 73 240 Q 73 259 73 277 H 88 Q 87 239 88 201 Q 84 201 80 201 Q 77 201 72 202 Z M 87 388 Q 87 374 87 360 Q 87 346 87 332 Q 87 327 87 322 Q 87 316 87 311 H 72 Q 72 322 73 332 Q 73 342 72 353 Q 72 362 73 370 Q 73 379 72 388 Z M 221 190 Q 221 191 220 193 Q 220 194 221 195 Q 225 199 229 202 Q 232 206 236 210 Q 237 201 236 192 Q 236 183 237 174 Q 237 162 236 147 Q 234 150 231 153 Q 229 157 228 161 Q 227 168 225 175 Q 223 183 221 190 Z" fill="black" />
  </g>
  <g class="defect" id="01">
    <path d="M 315 179 Q 295 176 315 202" fill="none" stroke="red" stroke-width="3" />
  </g>
</svg>