<svg xmlns="http://www.w3.org/2000/svg" width="512" height="512" viewBox="0 0 512 512">
  <g class="glyph">
    <path d="M 243 0 Q 265 6 287 11 Q 310 15 332 19 Q 336 20 336 21 Q 335 23 333 26 Q 329 29 325 33 Q 321 37 319 43 Q 317 47 315 52 Q 332 52 347 53 Q 363 54 379 52 Q 383 48 386 44 Q 389 41 393 37 Q 397 45 400 53 Q 403 61 408 68 Q 409 72 411 76 Q 413 79 415 84 Q 413 86 412 85 Q 410 85 408 85 H 321 Q 329 89 337 92 Q 344 95 352 101 Q 359 105 366 111 Q 373 117 377 124 Q 373 127 369 129 Q 365 131 361 133 Q 357 137 352 140 Q 348 142 344 146 Q 346 149 348 150 Q 355 156 363 163 Q 371 169 379 175 Q 386 179 393 183 Q 399 188 405 193 Q 407 194 406 195 Q 405 197 404 197 Q 400 202 395 206 Q 390 210 386 217 Q 385 229 385 241 Q 384 253 382 264 Q 381 271 380 277 Q 379 284 375 290 Q 374 292 372 295 Q 370 297 367 298 Q 361 304 354 308 Q 347 312 339 316 Q 344 322 350 326 Q 355 331 360 337 Q 371 346 381 355 Q 390 365 401 374 Q 402 374 402 375 Q 403 376 404 377 Q 402 379 401 380 Q 390 388 379 401 Q 378 413 378 425 Q 379 436 379 448 Q 378 461 378 473 Q 379 485 379 497 Q 353 500 329 502 Q 304 504 279 507 V 476 H 189 Q 179 476 169 476 Q 159 476 148 476 Q 149 483 149 489 Q 149 496 149 502 Q 124 505 100 508 Q 76 510 51 512 Q 51 488 50 464 Q 50 440 51 416 Q 50 398 50 381 Q 51 364 51 347 Q 51 344 50 343 Q 50 341 50 340 Q 41 344 31 348 Q 22 351 13 355 Q 10 353 9 350 Q 7 347 6 345 Q 21 329 35 314 Q 50 298 63 282 Q 72 271 80 260 Q 87 250 95 238 Q 101 229 107 219 Q 112 208 118 199 Q 110 198 103 198 Q 95 198 88 198 L 44 199 Q 44 190 44 181 Q 44 171 44 161 Q 64 164 85 164 Q 106 164 126 164 Q 122 148 117 133 Q 112 117 106 102 Q 97 112 86 121 Q 74 129 62 137 Q 49 145 36 154 Q 23 163 10 172 Q 7 170 5 169 Q 2 167 0 165 L 20 128 Q 30 106 38 84 Q 46 62 53 39 Q 56 30 58 20 Q 60 11 61 1 Q 65 2 69 3 Q 72 4 77 5 Q 89 9 102 12 Q 115 16 129 18 Q 134 19 141 21 Q 147 22 154 24 Q 153 25 153 25 V 26 Q 149 29 146 31 Q 142 34 140 37 Q 136 42 135 47 Q 133 52 131 56 Q 145 56 158 57 Q 171 57 185 56 Q 188 52 191 48 Q 194 44 198 41 Q 200 42 201 47 Q 204 55 208 62 Q 212 69 215 76 Q 217 80 219 83 Q 220 86 220 90 Q 215 91 211 90 Q 207 90 202 90 Q 187 90 172 90 Q 157 90 141 89 Q 150 92 157 96 Q 164 101 171 105 Q 177 109 183 115 Q 205 120 192 126 Q 194 127 193 129 Q 192 130 191 131 Q 186 133 182 136 Q 177 138 173 141 Q 166 146 159 151 Q 152 156 144 162 Q 144 163 142 164 Q 141 164 141 166 L 143 165 Q 156 164 169 164 Q 182 164 196 164 Q 199 164 205 164 Q 210 164 217 165 Q 223 165 230 165 Q 237 165 242 165 H 299 Q 302 164 305 162 Q 307 160 306 156 Q 305 148 303 140 Q 301 131 299 123 Q 297 116 295 110 Q 293 104 290 97 Q 289 99 289 99 Q 288 100 287 101 Q 279 111 268 119 Q 256 129 245 136 Q 234 143 222 152 Q 217 154 213 157 Q 209 159 204 162 L 193 155 Q 198 147 200 142 Q 203 137 206 130 Q 210 121 213 112 Q 217 104 220 95 Q 221 90 223 85 Q 225 81 227 76 Q 232 57 236 38 Q 240 20 243 0 Z M 100 322 Q 114 323 127 325 Q 140 327 154 328 Q 160 328 163 329 Q 164 329 165 331 Q 165 333 164 334 Q 161 336 159 339 Q 156 342 154 345 Q 189 345 223 345 Q 258 345 293 345 Q 296 341 299 337 Q 302 334 304 330 Q 300 332 296 332 Q 292 333 287 334 Q 281 335 275 334 Q 268 333 263 328 Q 259 326 257 322 Q 254 319 254 314 Q 253 306 253 297 Q 271 272 253 280 Q 242 275 230 271 Q 218 268 206 264 Q 207 260 207 256 Q 207 252 207 247 Q 216 248 224 249 Q 232 249 241 249 Q 249 250 257 250 Q 265 251 273 251 Q 276 251 279 249 Q 282 248 283 244 Q 285 239 286 233 Q 287 228 287 222 Q 289 210 289 197 Q 280 198 272 198 Q 263 198 255 198 H 173 Q 187 202 204 205 Q 222 209 237 212 Q 238 212 239 213 Q 239 214 238 215 L 227 222 Q 215 231 207 244 Q 199 254 190 264 Q 180 274 170 283 Q 149 302 122 313 Q 116 314 111 317 Q 106 319 100 322 Z M 185 443 Q 199 442 212 443 Q 224 443 238 443 Q 249 443 258 443 Q 268 443 279 443 Q 279 427 279 411 Q 280 395 279 378 H 149 V 443 Z" fill="black" />
  </g>
  <g class="defect" id="01">
    <path d="M 183 115 Q 205 120 192 126" fill="none" stroke="red" stroke-width="3" />
  </g>
  <g class="defect" id="02">
    <path d="M 253 297 Q 271 272 253 280" fill="none" stroke="red" stroke-width="3" />
  </g>
</svg>