<svg xmlns="http://www.w3.org/2000/svg" width="512" height="512" viewBox="0 0 512 512">
  <g class="glyph">
    <path d="M 0 505 Q 15 473 28 441 Q 49 389 54 337 Q 57 319 57 300 Q 57 281 56 263 Q 57 240 56 219 Q 55 197 54 175 Q 74 179 96 184 Q 117 189 138 193 Q 143 194 146 194 Q 150 195 154 196 Q 178 190 202 185 Q 226 180 250 174 Q 284 164 315 151 Q 312 136 307 122 Q 301 107 297 93 Q 288 106 277 116 Q 266 127 255 138 Q 244 148 233 157 Q 221 167 211 176 Q 193 173 205 172 Q 202 170 199 169 Q 206 149 213 128 Q 221 108 226 88 Q 230 75 233 61 Q 237 48 239 34 Q 242 25 243 17 Q 245 8 246 0 Q 251 2 258 3 Q 264 4 271 5 Q 284 8 299 10 Q 313 12 327 14 Q 331 15 335 15 Q 339 15 343 18 Q 343 21 340 22 Q 337 24 335 25 Q 331 29 328 33 Q 324 36 323 41 L 316 57 Q 333 56 350 57 Q 368 57 385 56 Q 387 53 390 50 Q 392 46 395 43 Q 395 42 396 42 Q 397 42 398 41 Q 403 51 408 62 Q 413 72 418 81 Q 421 85 420 88 Q 420 90 418 90 Q 417 90 416 90 Q 396 90 376 90 Q 357 90 337 90 Q 351 99 366 108 Q 380 118 392 131 Q 393 132 393 134 Q 393 136 392 137 Q 378 145 365 153 Q 352 161 339 170 Q 350 181 362 191 Q 374 201 386 212 Q 388 213 391 214 Q 394 215 393 219 Q 385 220 377 220 Q 369 220 361 221 Q 349 223 337 226 Q 326 229 314 230 Q 319 250 326 269 Q 333 288 343 305 Q 359 338 381 366 Q 403 394 428 421 Q 428 424 427 425 L 422 436 Q 419 436 416 436 Q 401 422 409 437 Q 402 440 395 448 Q 385 458 377 469 Q 369 480 360 491 Q 358 493 355 496 Q 353 498 349 498 Q 346 499 343 497 Q 341 495 339 492 Q 331 483 324 472 Q 318 462 313 450 Q 307 437 303 422 Q 299 408 296 393 Q 289 354 286 314 Q 284 275 284 235 Q 277 236 270 237 Q 264 238 257 239 Q 256 268 257 298 Q 256 345 256 392 Q 256 439 255 487 Q 235 490 214 492 Q 193 494 171 497 Q 171 477 171 458 Q 172 438 171 419 Q 172 390 172 361 Q 172 333 172 304 Q 171 288 171 271 Q 172 255 172 239 L 147 236 Q 146 253 146 269 Q 146 285 145 302 Q 144 319 142 337 Q 141 354 136 371 Q 132 386 125 400 Q 118 413 108 425 Q 97 437 86 448 Q 75 458 63 469 L 34 497 Q 29 501 25 505 Q 21 509 16 512 Q 11 511 8 509 Q 4 506 0 505 Z M 61 0 Q 74 3 87 6 Q 100 8 113 11 Q 124 14 134 15 Q 144 17 155 20 Q 157 20 157 22 Q 157 24 156 25 Q 152 28 147 31 Q 143 34 140 39 Q 137 44 136 50 Q 134 55 132 60 Q 146 60 160 60 Q 174 61 188 60 Q 193 55 196 49 Q 197 48 199 46 Q 200 45 203 45 Q 206 51 209 59 Q 211 66 215 73 L 221 88 Q 222 89 222 91 Q 222 92 220 93 Q 218 94 215 94 Q 213 93 211 94 Q 192 94 173 94 Q 155 94 136 95 Q 159 103 177 120 Q 188 129 195 140 V 142 Q 193 144 189 146 Q 185 147 181 150 Q 171 156 160 163 Q 150 169 140 177 Q 136 179 134 181 Q 132 183 128 184 Q 127 181 126 177 Q 125 173 124 170 Q 120 154 116 138 Q 111 123 106 107 Q 96 120 81 130 Q 64 144 47 157 Q 30 170 13 184 L 2 176 V 175 Q 9 160 16 145 Q 23 130 28 115 Q 33 101 38 88 Q 42 75 47 61 Q 51 46 55 31 Q 59 16 61 0 Z" fill="black" />
  </g>
  <g class="defect" id="01">
    <path d="M 211 176 Q 193 173 205 172" fill="none" stroke="red" stroke-width="3" />
  </g>
  <g class="defect" id="02">
    <path d="M 416 436 Q 401 422 409 437" fill="none" stroke="red" stroke-width="3" />
  </g>
</svg>