<svg xmlns="http://www.w3.org/2000/svg" width="512" height="512" viewBox="0 0 512 512">
  <g class="glyph">
    <path d="M 45 0 Q 66 5 87 8 Q 107 12 129 15 Q 132 15 135 15 Q 138 15 141 17 Q 140 20 138 21 Q 136 23 134 25 Q 125 31 120 40 Q 118 47 116 56 Q 113 64 111 71 Q 129 72 147 72 Q 165 71 184 71 L 197 55 Q 199 53 201 56 L 217 92 V 54 Q 227 55 238 56 Q 248 57 258 57 Q 292 57 325 57 Q 358 57 391 57 L 400 41 Q 401 40 402 40 Q 403 40 404 41 Q 408 49 412 57 Q 415 65 419 73 Q 421 77 423 81 Q 424 84 426 89 Q 426 91 423 91 Q 407 91 391 91 Q 363 103 359 91 Q 358 140 359 188 Q 377 236 358 285 Q 358 316 358 347 Q 358 378 358 410 Q 358 421 358 432 Q 358 443 358 453 Q 365 454 373 454 Q 381 453 389 453 L 402 438 Q 403 437 404 438 Q 405 439 406 439 Q 410 450 415 461 Q 420 471 425 481 Q 426 482 426 485 Q 427 487 425 488 Q 417 488 409 488 Q 401 488 394 488 H 323 Q 299 488 274 488 Q 250 488 226 489 Q 219 489 212 490 Q 206 491 200 492 V 480 Q 193 481 187 481 Q 180 482 174 483 V 443 Q 168 446 163 450 Q 157 455 152 458 Q 140 465 128 471 Q 116 477 102 481 Q 92 485 83 488 Q 73 490 62 492 Q 56 494 50 496 Q 44 499 38 501 Q 34 503 32 506 Q 30 509 27 511 Q 26 512 24 512 Q 21 511 20 510 Q 20 509 19 507 Q 19 506 19 504 Q 15 484 10 466 Q 5 447 0 428 Q 7 427 10 424 Q 15 417 15 408 Q 15 384 15 360 Q 15 336 15 312 Q 15 305 14 298 Q 13 292 13 285 Q 29 289 45 291 Q 61 293 78 295 Q 78 283 78 271 Q 77 258 78 246 Q 60 245 42 246 Q 23 247 4 248 V 208 Q 7 208 9 209 Q 10 210 12 210 Q 29 211 45 211 Q 61 212 78 212 Q 78 192 78 173 Q 78 153 78 134 Q 71 143 62 151 Q 53 158 44 167 Q 36 174 28 181 Q 21 188 13 195 Q 9 193 6 191 Q 3 190 0 189 Q 4 177 8 166 Q 0 155 15 143 Q 20 124 25 104 Q 30 84 34 63 Q 37 48 41 32 Q 44 16 45 0 Z M 164 408 Q 167 408 169 408 Q 172 408 175 408 Q 174 375 174 343 Q 175 311 174 279 Q 190 283 205 286 Q 221 289 237 292 Q 241 292 242 295 Q 237 299 233 303 Q 229 307 225 311 Q 226 334 225 356 Q 226 380 225 404 Q 225 429 225 453 Q 234 453 243 453 Q 252 453 261 453 Q 262 433 261 412 Q 261 392 262 371 V 314 Q 262 295 262 276 Q 262 257 262 237 Q 262 200 263 165 Q 263 129 263 92 Q 241 92 218 95 L 220 101 Q 222 105 218 105 H 165 V 212 Q 174 212 182 212 Q 191 212 200 212 Q 206 202 214 194 V 195 Q 214 196 215 196 Q 220 205 224 215 Q 229 225 234 234 Q 236 237 238 243 Q 236 245 233 245 Q 228 246 223 246 Q 217 245 211 246 Q 199 245 188 246 Q 176 246 165 245 Q 165 254 164 262 Q 164 271 165 279 Q 164 292 164 304 Q 164 316 164 328 Z M 66 421 Q 68 421 71 420 Q 74 420 77 419 Q 77 389 77 359 Q 78 330 78 300 Q 74 304 71 307 Q 68 311 66 314 Z" fill="black" />
  </g>
  <g class="defect" id="01">
    <path d="M 391 91 Q 363 103 359 91" fill="none" stroke="red" stroke-width="3" />
  </g>
  <g class="defect" id="02">
    <path d="M 8 166 Q 0 155 15 143" fill="none" stroke="red" stroke-width="3" />
  </g>
  <g class="defect" id="03">
    <path d="M 359 188 Q 377 236 358 285" fill="none" stroke="red" stroke-width="3" />
  </g>
</svg>