<svg xmlns="http://www.w3.org/2000/svg" width="512" height="512" viewBox="0 0 512 512">
  <g class="glyph">
    <path d="M 50 0 Q 59 3 69 4 Q 78 5 87 6 Q 103 8 119 10 Q 135 11 151 13 Q 151 16 148 19 Q 146 21 144 23 Q 137 31 132 38 Q 131 46 131 55 Q 132 63 132 72 Q 133 72 134 73 Q 136 73 137 72 L 151 58 Q 155 66 159 74 Q 162 81 166 89 Q 166 80 167 72 Q 167 64 166 56 L 196 57 Q 197 43 196 30 Q 196 17 195 3 Q 210 6 225 8 Q 240 11 256 14 Q 264 14 272 15 Q 280 16 287 17 Q 287 18 287 20 Q 286 21 285 22 Q 282 25 278 28 Q 275 31 273 34 Q 272 40 272 46 Q 273 51 272 57 Q 278 58 285 58 Q 291 58 298 58 Q 299 44 298 31 Q 298 17 297 3 Q 309 6 320 8 Q 332 10 344 11 Q 367 15 389 17 Q 389 20 387 21 Q 384 25 380 28 Q 376 31 373 35 Q 373 41 373 47 Q 373 52 374 58 H 384 Q 388 54 392 50 Q 396 45 400 42 Q 402 43 402 44 Q 402 45 403 46 L 419 81 Q 420 84 421 87 Q 423 89 422 92 Q 409 92 397 92 Q 385 92 373 92 Q 373 101 373 111 Q 374 120 374 129 Q 380 138 388 146 Q 395 154 402 163 Q 410 172 419 180 Q 420 181 421 183 Q 422 184 420 187 Q 417 189 413 191 Q 409 193 406 196 Q 403 199 401 202 Q 399 206 396 208 Q 387 219 377 228 Q 366 237 354 245 Q 357 247 358 250 Q 360 252 362 255 Q 373 267 384 279 Q 395 291 407 302 Q 409 304 411 306 Q 413 308 414 311 Q 409 315 404 319 Q 398 323 393 328 Q 393 348 392 367 Q 392 387 390 408 Q 389 416 389 425 Q 388 433 386 441 Q 385 446 383 451 Q 381 455 378 459 Q 370 468 360 475 Q 350 482 339 488 Q 331 492 323 496 Q 315 500 306 501 Q 301 502 294 502 Q 288 502 284 498 Q 280 495 279 490 Q 278 486 278 481 Q 277 474 277 468 Q 278 462 277 455 L 250 439 Q 245 437 241 432 Q 232 440 223 449 Q 214 457 203 466 Q 190 478 178 489 Q 165 500 152 512 Q 148 509 145 506 Q 142 502 139 500 Q 147 488 153 475 Q 159 463 165 450 Q 179 419 189 387 Q 191 381 193 376 Q 196 370 197 364 Q 203 337 209 312 Q 199 312 190 312 Q 180 312 170 314 V 278 Q 160 278 150 277 Q 140 277 131 278 V 297 Q 139 304 148 311 Q 156 318 163 327 Q 170 335 176 344 Q 182 352 188 362 Q 189 365 190 369 Q 192 372 191 376 Q 189 379 185 381 Q 181 383 179 387 Q 170 395 161 403 Q 153 412 144 421 Q 144 420 144 419 Q 143 418 143 417 Q 141 399 139 381 Q 136 363 132 345 Q 132 342 131 340 Q 131 338 131 336 Q 130 343 130 350 Q 131 358 131 365 Q 130 379 130 392 Q 131 404 130 418 Q 130 437 131 457 Q 131 476 129 496 Q 109 497 90 500 Q 70 502 50 505 Q 50 492 51 481 Q 38 469 52 457 Q 52 440 53 422 Q 53 404 53 387 Q 52 390 50 393 Q 49 396 48 399 Q 39 417 29 434 Q 18 450 11 468 Q 8 467 5 466 Q 3 464 0 463 Q 7 435 13 408 Q 19 380 23 351 Q 27 333 30 315 Q 33 296 35 278 Q 29 277 22 278 Q 15 278 9 278 Q 8 269 8 260 Q 8 252 8 243 Q 30 244 50 244 Q 50 230 50 217 Q 50 203 51 189 Q 42 189 34 189 Q 25 189 16 190 Q 16 181 16 172 Q 16 163 16 153 Q 25 154 34 155 Q 42 155 51 155 Q 50 143 51 131 Q 51 118 51 106 L 11 108 V 71 Q 22 71 32 72 Q 42 73 52 72 Q 52 54 52 36 Q 51 18 50 0 Z M 139 244 Q 144 240 148 236 Q 152 232 156 228 L 168 255 Q 170 260 173 265 Q 176 270 175 276 Q 185 276 195 276 Q 204 277 215 277 Q 217 269 217 262 Q 218 254 219 246 L 222 211 Q 231 214 246 217 Q 260 219 275 221 Q 290 223 302 225 Q 314 226 318 227 Q 318 229 318 230 Q 313 234 310 239 Q 306 244 303 249 Q 302 256 301 263 Q 300 270 299 277 Q 312 278 327 277 Q 327 277 328 277 Q 330 277 330 276 L 348 248 L 336 254 L 325 248 Q 327 233 330 219 Q 333 206 334 192 H 223 L 220 212 Q 217 221 215 230 Q 212 238 208 246 Q 205 252 202 256 Q 199 260 194 264 Q 193 265 192 266 Q 190 266 189 264 Q 185 259 182 254 Q 179 248 174 244 Q 171 238 167 234 Q 163 229 160 224 Q 156 219 151 215 Q 146 211 143 205 L 160 189 Q 153 189 145 189 Q 138 189 131 189 V 208 Q 131 217 130 226 Q 130 235 131 244 Z M 214 141 Q 217 145 217 149 Q 218 153 218 158 Q 250 158 281 158 Q 312 159 344 159 Q 349 152 353 145 Q 358 139 362 132 Q 346 133 330 135 Q 314 137 298 137 Q 298 126 298 115 Q 299 104 299 92 Q 292 92 285 92 Q 278 92 272 92 Q 271 103 271 114 Q 272 125 271 136 Z M 131 156 Q 132 155 135 155 Q 138 151 141 147 Q 144 143 148 141 Q 152 151 157 161 Q 162 171 166 182 Q 181 165 190 148 Q 193 143 194 138 Q 195 133 195 127 Q 195 118 195 110 Q 195 102 196 94 Q 189 94 183 94 Q 176 95 169 95 Q 170 97 171 99 Q 172 101 171 104 Q 170 106 168 106 Q 166 106 164 106 Q 156 106 148 106 Q 139 107 131 106 Q 132 132 131 156 Z M 250 420 Q 263 421 275 421 Q 287 422 300 421 Q 303 418 304 415 Q 305 411 306 406 Q 310 383 310 359 Q 297 335 313 311 H 293 Q 289 329 285 348 Q 280 367 273 384 Q 269 394 263 403 Q 257 412 250 420 Z" fill="black" />
  </g>
  <g class="defect" id="01">
    <path d="M 51 481 Q 38 469 52 457" fill="none" stroke="red" stroke-width="3" />
  </g>
  <g class="defect" id="02">
    <path d="M 310 359 Q 297 335 313 311" fill="none" stroke="red" stroke-width="3" />
  </g>
</svg>