<svg xmlns="http://www.w3.org/2000/svg" width="512" height="512" viewBox="0 0 512 512">
  <g class="glyph">
    <path d="M 193 0 Q 203 3 213 5 Q 223 7 233 8 Q 240 9 247 10 Q 253 10 260 11 Q 262 12 262 13 Q 262 14 261 14 Q 258 19 254 23 Q 250 27 249 33 Q 248 44 248 55 Q 249 65 248 76 Q 249 70 251 66 Q 253 61 255 55 Q 259 45 261 37 Q 269 42 276 48 Q 284 53 290 60 Q 293 55 295 50 Q 297 45 298 40 Q 301 40 302 41 Q 304 41 306 42 Q 308 51 308 60 Q 308 69 309 78 Q 309 90 307 101 Q 306 113 302 125 L 297 133 Q 295 136 293 133 Q 288 127 283 123 Q 279 118 273 114 Q 271 112 269 111 Q 267 109 264 107 Q 264 105 265 105 Q 266 104 266 103 L 275 90 Q 270 93 267 95 Q 263 98 259 100 Q 256 102 252 104 Q 249 105 245 107 Q 245 112 244 118 Q 242 123 241 128 Q 252 134 262 139 Q 271 144 279 152 Q 263 155 286 159 Q 288 163 290 167 Q 292 171 288 173 Q 283 176 277 180 Q 271 185 265 190 Q 259 196 253 200 Q 248 205 245 208 Q 244 209 242 208 Q 240 208 240 206 Q 238 195 235 179 Q 232 164 228 155 Q 220 166 210 175 Q 200 183 191 193 Q 182 201 173 208 Q 165 214 156 222 L 145 213 Q 149 209 152 205 Q 154 201 157 197 H 122 V 249 Q 125 249 127 249 Q 128 249 131 248 L 142 236 Q 144 233 146 236 L 151 246 Q 156 243 162 237 Q 169 231 175 223 Q 181 216 186 208 Q 190 200 193 193 H 204 Q 206 198 207 205 Q 208 211 208 216 H 278 L 270 209 Q 281 193 290 177 Q 299 160 305 143 Q 316 113 316 84 Q 316 64 317 43 Q 317 22 314 1 Q 322 3 329 4 Q 337 5 344 6 Q 354 8 364 9 Q 375 11 385 12 Q 387 12 386 13 Q 386 15 385 16 Q 379 20 375 28 Q 372 30 372 33 V 84 Q 376 73 380 60 Q 385 48 386 36 Q 389 37 390 38 Q 392 39 393 40 Q 402 47 411 53 Q 419 59 428 65 Q 424 68 420 71 Q 415 74 412 78 Q 403 89 392 97 Q 382 105 369 112 L 367 121 Q 385 129 399 141 Q 414 153 423 170 Q 424 173 421 175 Q 412 179 404 184 Q 396 190 387 195 Q 393 202 400 209 Q 408 215 414 222 Q 417 225 420 227 Q 422 228 423 231 Q 419 235 414 239 Q 410 242 405 246 Q 403 249 401 252 Q 400 255 398 258 Q 383 275 363 286 Q 373 298 384 310 Q 395 321 407 331 Q 410 334 413 337 Q 416 339 418 342 Q 418 346 416 347 Q 414 349 412 351 Q 403 357 398 365 Q 397 367 397 372 Q 397 389 396 406 Q 396 423 394 440 Q 393 447 392 453 Q 391 460 387 465 Q 381 473 372 479 Q 363 485 353 490 Q 346 495 338 497 Q 330 500 322 502 Q 317 504 311 504 Q 305 505 300 503 Q 291 500 289 492 Q 288 484 288 477 Q 287 469 287 462 Q 279 457 269 453 Q 259 449 250 445 L 253 432 Q 249 437 245 440 Q 241 443 236 447 Q 224 456 212 465 Q 199 473 187 481 Q 175 489 163 496 Q 151 504 139 511 Q 135 512 132 510 Q 129 507 126 505 Q 133 492 141 480 Q 149 469 156 456 Q 167 439 175 421 Q 184 402 191 383 Q 197 364 201 343 Q 192 343 184 343 Q 175 343 166 344 Q 169 350 172 355 Q 175 360 178 366 Q 176 369 174 371 Q 172 373 169 375 Q 162 383 155 391 Q 147 400 140 408 Q 139 410 138 411 Q 136 413 135 414 Q 134 412 133 409 Q 133 405 132 403 Q 129 385 127 368 Q 126 350 121 333 Q 120 338 121 343 Q 122 352 121 362 Q 121 372 121 382 Q 122 402 121 423 Q 120 443 121 463 Q 121 472 121 480 Q 120 489 121 498 Q 103 500 85 502 Q 67 504 49 505 Q 49 479 49 453 Q 49 427 49 401 Q 43 413 37 425 Q 30 437 23 449 Q 20 456 17 463 Q 14 469 11 476 Q 8 474 6 473 Q 3 472 0 471 Q 6 445 12 419 Q 18 394 22 367 Q 27 346 30 325 Q 33 304 36 283 Q 29 283 21 283 Q 14 283 6 284 Q 6 275 6 266 Q 6 256 7 246 Q 17 248 27 248 Q 36 248 47 249 Q 46 235 46 222 Q 47 208 47 195 Q 39 195 31 195 Q 23 196 15 197 Q 15 187 15 178 Q 15 168 15 158 Q 23 159 31 159 Q 39 160 47 160 Q 47 146 47 133 Q 47 120 47 107 Q 38 107 29 107 Q 20 108 11 109 Q 11 99 11 90 Q 12 80 11 71 Q 20 72 29 72 Q 38 73 47 73 Q 47 65 47 58 Q 47 50 47 43 Q 47 33 46 23 Q 46 14 45 4 Q 69 8 92 12 Q 115 15 139 17 Q 140 19 140 21 Q 136 26 132 31 Q 127 36 123 41 V 73 Q 124 73 125 74 Q 127 74 128 74 Q 131 70 134 67 Q 138 63 142 60 H 143 Q 145 66 148 72 Q 151 79 155 85 Q 159 77 163 69 Q 166 61 171 53 L 176 38 Q 179 39 180 39 Q 182 39 184 39 Q 187 51 189 63 Q 191 74 190 86 Q 190 96 188 106 Q 186 116 183 126 Q 182 130 180 135 Q 179 140 175 143 Q 173 142 172 141 Q 170 140 169 138 Q 162 130 155 123 Q 148 116 142 108 Q 137 107 132 107 Q 128 107 122 107 Q 122 120 123 134 Q 123 147 122 161 Q 127 158 130 154 Q 133 149 136 146 Q 139 147 140 149 Q 140 151 142 153 Q 143 157 146 164 Q 149 170 152 177 Q 155 185 160 194 Q 164 187 168 180 Q 172 172 176 165 Q 180 156 183 148 Q 186 140 189 131 Q 193 117 194 101 Q 195 86 196 72 V 40 Q 195 31 195 21 Q 195 11 193 0 Z M 122 294 Q 129 298 136 306 Q 151 320 161 337 Q 160 322 161 307 Q 163 308 169 308 Q 188 310 208 310 Q 209 297 210 287 Q 211 278 212 270 Q 213 261 214 255 Q 223 258 236 261 Q 250 263 265 265 Q 280 267 293 268 Q 307 269 315 270 Q 317 270 317 272 Q 317 273 316 275 Q 304 283 300 294 Q 298 298 297 302 Q 296 305 295 310 H 326 Q 332 302 337 293 Q 341 285 343 276 Q 344 269 344 262 Q 345 255 345 249 Q 330 249 315 249 Q 300 249 285 249 Q 267 249 248 249 Q 229 249 210 249 Q 209 254 208 261 Q 206 268 202 275 Q 199 282 194 288 Q 190 295 184 299 Q 182 301 179 298 Q 175 291 169 282 Q 164 273 159 270 L 162 279 Q 163 283 160 283 H 122 Z M 296 431 Q 298 431 301 431 Q 304 431 306 428 Q 310 424 311 419 Q 313 400 314 381 Q 314 362 315 343 H 289 Q 287 350 285 358 Q 283 365 280 373 Q 279 379 277 385 Q 275 391 272 397 Q 269 405 264 413 Q 259 421 255 428 Z M 354 215 Q 356 210 359 206 Q 363 202 364 196 Q 365 192 364 187 Q 363 183 363 179 Q 361 171 359 163 Q 357 155 355 148 Q 352 151 350 155 Q 365 158 345 161 Q 335 170 325 179 Q 315 188 305 197 L 284 216 Z" fill="black" />
  </g>
  <g class="defect" id="01">
    <path d="M 279 152 Q 263 155 286 159" fill="none" stroke="red" stroke-width="3" />
  </g>
  <g class="defect" id="02">
    <path d="M 350 155 Q 365 158 345 161" fill="none" stroke="red" stroke-width="3" />
  </g>
</svg>