<svg xmlns="http://www.w3.org/2000/svg" width="512" height="512" viewBox="0 0 512 512">
  <g class="glyph">
    <path d="M 240 0 Q 265 1 289 6 Q 314 11 335 24 Q 340 27 344 30 Q 348 33 353 38 Q 356 41 356 44 Q 355 45 353 45 Q 352 46 351 47 Q 343 50 335 54 Q 328 57 320 62 Q 317 64 314 66 Q 310 67 307 69 Q 329 70 350 70 Q 371 69 393 69 Q 396 65 399 61 Q 402 57 406 53 Q 407 54 408 54 Q 408 55 408 56 Q 413 65 417 74 Q 422 82 426 91 Q 429 96 429 99 Q 428 101 424 101 H 396 Q 401 138 365 169 L 359 180 Q 377 186 395 192 Q 413 197 431 201 L 429 216 Q 420 218 416 226 Q 412 235 408 245 Q 405 255 402 264 Q 400 270 399 275 Q 397 280 393 284 Q 389 287 384 286 Q 379 285 375 284 Q 363 279 352 274 Q 341 270 330 264 Q 321 259 313 254 Q 304 249 295 243 Q 284 248 272 253 Q 261 257 249 262 Q 238 266 228 270 Q 218 275 207 279 Q 216 280 225 282 Q 233 284 242 285 Q 256 287 269 289 Q 283 290 296 291 Q 298 292 299 292 Q 301 293 302 293 Q 296 299 291 305 Q 286 311 282 318 Q 281 319 281 322 Q 281 335 281 348 Q 281 361 280 374 Q 280 385 279 395 Q 278 405 275 415 Q 274 423 270 430 Q 266 437 261 443 Q 253 453 243 460 Q 233 467 223 474 Q 207 485 191 494 Q 176 502 160 512 L 150 501 Q 153 497 156 494 Q 159 491 163 487 Q 167 480 172 472 Q 176 465 181 458 Q 200 426 203 387 Q 204 370 205 352 Q 205 335 205 318 Q 206 309 205 299 Q 204 289 204 280 Q 198 282 191 285 Q 184 287 177 290 Q 177 327 178 364 Q 178 400 178 437 Q 177 442 177 447 Q 177 451 176 455 Q 174 462 169 466 Q 160 477 146 485 Q 138 489 129 493 Q 121 497 112 498 Q 107 499 103 499 Q 98 498 95 496 Q 91 493 90 488 Q 89 483 89 479 Q 88 471 88 464 Q 88 458 88 450 Q 80 445 73 440 Q 66 434 59 429 L 16 510 Q 12 509 8 507 Q 4 506 0 505 L 6 467 Q 13 425 17 386 Q 18 373 20 360 Q 21 347 22 333 Q 23 313 23 293 Q 36 254 24 253 V 128 Q 24 100 24 73 Q 24 45 22 16 Q 33 19 44 21 Q 56 23 67 25 Q 76 27 86 27 Q 96 28 106 30 Q 104 33 101 36 Q 98 39 96 42 Q 102 41 108 42 Q 113 42 119 41 Q 123 37 126 32 Q 129 27 132 22 Q 134 18 136 14 Q 138 10 142 7 Q 143 8 145 10 Q 147 11 148 13 Q 158 27 170 39 Q 181 51 193 63 Q 194 65 197 68 Q 200 69 203 69 Q 206 69 208 69 Q 224 69 239 69 Q 254 69 270 69 Q 262 53 254 37 Q 245 21 235 5 Q 236 3 237 2 Q 238 1 240 0 Z M 307 277 Q 323 281 340 284 Q 357 286 374 289 Q 381 290 387 291 Q 394 292 401 293 Q 403 293 404 295 Q 398 301 393 306 Q 388 312 384 319 Q 383 327 383 335 Q 384 344 384 352 V 390 Q 383 415 383 441 Q 384 466 383 492 L 308 500 Q 307 494 307 488 Q 308 481 308 474 Q 307 455 307 436 Q 308 416 308 397 V 303 Q 308 297 307 290 Q 307 284 307 277 Z M 177 234 Q 177 242 178 250 Q 178 258 178 266 Q 190 255 203 245 Q 216 235 227 224 Q 217 218 240 211 Q 247 204 253 197 Q 249 191 245 185 Q 241 179 237 172 Q 228 155 222 137 Q 216 119 210 101 Q 204 101 199 101 Q 194 101 189 103 V 80 Q 186 82 183 84 Q 180 86 177 88 Q 178 97 178 105 Q 178 114 178 122 Q 177 151 178 178 Q 178 206 177 234 Z M 65 416 Q 73 417 81 417 Q 89 417 97 417 Q 100 417 103 418 Q 106 418 108 415 Q 109 413 110 410 Q 110 407 110 404 Q 111 384 111 365 Q 111 346 111 327 H 92 Q 91 336 89 346 Q 88 356 85 365 Q 82 379 77 391 Q 71 404 65 416 Z M 239 101 Q 243 106 248 111 Q 253 115 258 120 Q 266 126 273 132 Q 281 139 289 144 Q 296 133 301 122 Q 305 112 311 101 Z M 94 130 Q 95 140 95 150 Q 94 159 95 169 Q 99 169 103 168 Q 107 168 111 168 Q 112 123 111 78 Q 111 77 111 76 Q 112 75 112 74 Q 107 74 103 74 Q 99 74 94 75 Q 95 89 95 103 Q 94 116 94 130 Z M 94 295 Q 99 295 103 295 Q 107 295 111 294 V 200 Q 107 200 103 200 Q 98 200 94 199 Q 95 224 95 247 Q 94 271 94 295 Z" fill="black" />
  </g>
  <g class="defect" id="01">
    <path d="M 227 224 Q 217 218 240 211" fill="none" stroke="red" stroke-width="3" />
  </g>
  <g class="defect" id="02">
    <path d="M 396 101 Q 401 138 365 169" fill="none" stroke="red" stroke-width="3" />
  </g>
  <g class="defect" id="03">
    <path d="M 23 293 Q 36 254 24 253" fill="none" stroke="red" stroke-width="3" />
  </g>
</svg>