<svg xmlns="http://www.w3.org/2000/svg" width="512" height="512" viewBox="0 0 512 512">
  <g class="glyph">
    <path d="M 74 0 Q 97 5 127 8 Q 156 12 183 13 Q 186 13 186 15 Q 187 17 185 19 Q 182 23 178 27 Q 174 31 169 36 V 53 H 260 Q 260 39 259 26 Q 259 12 258 1 Q 280 6 310 9 Q 340 13 367 15 Q 370 15 370 16 Q 371 18 369 20 Q 365 24 361 28 Q 357 32 353 37 V 53 H 393 L 404 39 Q 406 37 407 39 Q 413 53 417 61 Q 420 69 427 81 Q 430 87 424 87 H 353 V 119 L 287 126 Q 280 132 276 137 Q 254 128 266 150 V 162 H 383 L 394 148 Q 396 145 397 148 Q 403 161 407 170 Q 411 178 417 191 Q 420 197 415 197 H 310 Q 328 203 347 207 Q 366 212 389 215 Q 392 216 392 218 Q 393 220 390 223 Q 380 228 376 233 Q 372 238 371 242 L 363 261 Q 383 269 399 281 Q 416 292 425 306 Q 427 308 426 310 Q 425 312 423 313 Q 409 322 393 334 Q 378 345 364 359 Q 362 362 360 361 Q 342 350 357 357 Q 354 342 350 326 Q 345 311 341 295 Q 333 304 319 312 Q 310 317 300 324 Q 289 331 279 339 Q 311 358 350 376 Q 390 394 433 407 L 428 425 Q 423 426 418 428 Q 414 431 409 437 Q 404 443 397 455 Q 391 467 380 487 Q 378 493 370 494 Q 362 496 355 492 Q 332 478 309 452 Q 285 426 266 391 V 501 L 167 512 V 430 Q 154 440 140 449 Q 126 458 114 462 Q 104 483 62 482 Q 33 493 9 502 L 0 489 Q 24 468 44 449 Q 64 430 82 411 Q 99 392 115 373 Q 130 353 146 331 Q 138 337 130 343 Q 123 350 115 357 Q 109 362 108 354 Q 106 342 105 330 Q 103 319 100 306 Q 95 314 88 321 Q 81 329 73 335 Q 61 343 47 353 Q 32 363 19 373 L 6 362 Q 20 333 33 299 Q 45 265 52 236 Q 54 227 57 217 Q 59 207 60 197 L 21 199 V 160 Q 40 161 60 162 Q 79 162 106 162 H 167 L 165 123 L 76 132 V 87 Q 57 87 41 87 Q 25 88 9 89 V 51 Q 25 52 41 53 Q 57 53 76 53 V 52 Q 76 38 76 25 Q 75 11 74 0 Z M 65 197 Q 84 205 103 210 Q 123 216 147 220 Q 149 221 150 223 Q 150 225 147 227 Q 137 233 133 238 Q 129 243 128 247 L 122 262 Q 150 274 167 295 V 197 H 106 Z M 169 107 Q 191 112 213 114 Q 234 116 260 119 V 87 H 169 Z M 293 234 Q 295 225 297 216 Q 299 206 300 197 H 266 V 316 Q 275 294 281 276 Q 286 259 293 234 Z" fill="black" />
  </g>
  <g class="defect" id="01">
    <path d="M 114 462 Q 104 483 62 482" fill="none" stroke="red" stroke-width="3" />
  </g>
  <g class="defect" id="02">
    <path d="M 360 361 Q 342 350 357 357" fill="none" stroke="red" stroke-width="3" />
  </g>
  <g class="defect" id="03">
    <path d="M 276 137 Q 254 128 266 150" fill="none" stroke="red" stroke-width="3" />
  </g>
</svg>