<svg xmlns="http://www.w3.org/2000/svg" width="512" height="512" viewBox="0 0 512 512">
  <g class="glyph">
    <path d="M 2 425 Q 30 428 57 428 Q 84 428 112 428 Q 123 429 134 428 Q 145 428 156 428 V 402 H 134 Q 134 404 134 407 Q 134 409 134 412 Q 118 413 102 414 Q 86 416 70 416 Q 63 417 55 418 Q 48 419 40 420 Q 40 385 41 351 Q 41 316 40 282 Q 39 279 39 276 Q 39 274 39 271 Q 34 271 30 272 Q 26 272 21 273 Q 22 254 21 235 Q 21 215 21 196 Q 22 182 21 167 Q 21 152 20 138 Q 26 139 37 141 Q 48 143 61 144 Q 75 146 89 147 Q 113 149 115 150 Q 119 150 117 153 L 112 162 H 125 V 133 Q 95 132 66 132 Q 36 133 6 133 Q 7 124 7 115 Q 6 106 6 97 Q 14 98 21 98 Q 28 98 35 99 Q 49 100 63 100 Q 78 99 92 100 H 379 L 390 86 Q 392 83 394 86 Q 399 93 402 100 Q 404 107 409 114 L 417 129 Q 417 132 415 132 Q 412 133 409 132 Q 405 132 403 133 Q 390 133 378 133 Q 366 133 354 132 Q 369 147 386 160 Q 403 172 422 184 V 187 Q 416 192 410 198 Q 404 205 398 211 Q 397 220 397 229 Q 398 237 397 246 V 259 Q 396 260 393 260 Q 391 260 388 261 Q 378 262 368 263 Q 357 264 348 265 Q 360 276 373 285 Q 386 294 400 302 Q 402 303 403 304 Q 404 304 404 306 Q 402 310 396 314 Q 392 319 388 323 Q 383 328 379 333 Q 378 334 378 336 Q 378 338 377 340 V 371 Q 378 381 377 390 Q 377 399 377 410 Q 367 410 358 411 Q 348 412 339 412 L 283 416 V 401 Q 279 401 274 401 Q 269 402 265 402 Q 266 409 266 415 Q 266 422 266 428 Q 285 428 303 428 Q 322 429 341 428 Q 353 428 365 428 Q 377 429 390 428 Q 392 424 396 420 Q 399 416 403 414 Q 408 421 411 429 Q 414 436 419 444 Q 421 448 422 451 Q 424 454 425 458 Q 424 460 421 460 H 338 Q 320 460 302 461 Q 284 461 266 460 Q 265 471 266 481 Q 266 491 265 502 Q 251 504 238 505 Q 225 506 211 508 Q 197 509 184 510 Q 170 511 156 512 V 460 Q 144 461 133 461 Q 121 460 110 460 H 62 Q 47 461 32 461 Q 17 461 3 462 Q 3 453 3 444 Q 2 435 2 425 Z M 83 0 Q 100 3 117 5 Q 134 8 151 10 Q 162 11 172 12 Q 183 13 194 13 Q 198 13 199 16 Q 193 21 188 25 Q 183 29 180 35 Q 195 35 210 35 Q 224 35 239 35 Q 239 17 238 0 Q 267 5 296 8 Q 325 11 355 13 Q 355 16 354 17 Q 349 22 344 26 Q 340 29 336 35 Q 349 35 360 35 Q 372 35 385 35 Q 389 31 393 27 Q 396 23 400 19 Q 411 42 422 63 Q 423 64 423 65 Q 424 67 422 68 Q 418 69 415 68 Q 411 68 407 69 Q 389 68 371 68 Q 353 68 335 68 V 88 L 239 94 V 68 Q 224 69 208 68 Q 193 68 177 69 V 89 L 83 97 V 68 Q 63 69 42 69 Q 22 69 1 70 Q 1 60 0 51 Q 0 42 1 33 Q 9 33 17 34 Q 24 35 33 35 Q 46 35 59 35 Q 72 35 84 35 Q 84 26 84 17 Q 83 9 83 0 Z M 107 262 Q 118 264 128 265 Q 139 266 150 267 Q 149 270 146 273 Q 143 275 140 278 Q 145 277 148 277 Q 152 277 156 277 H 231 Q 247 277 262 277 Q 277 277 293 276 Q 301 268 307 257 Q 309 256 309 255 Q 309 253 309 251 Q 288 251 268 251 Q 248 252 227 252 Q 210 252 192 252 Q 174 252 157 251 Q 144 252 132 251 Q 120 251 107 251 Q 107 254 107 257 Q 107 259 107 262 Z M 134 326 Q 171 326 209 326 Q 246 327 283 326 V 306 H 257 Q 239 307 221 306 Q 202 305 184 306 Q 172 306 159 306 Q 146 305 134 306 Q 115 311 134 316 Q 134 322 134 326 Z M 134 373 Q 148 372 163 372 Q 177 372 192 372 H 283 V 353 Q 261 353 240 353 Q 219 352 196 353 Q 181 352 165 353 Q 150 353 134 353 Z M 293 160 Q 299 161 305 161 Q 311 161 317 161 Q 320 161 320 160 Q 327 153 332 147 Q 338 140 342 133 Q 330 132 318 132 Q 306 133 294 133 Q 294 140 293 147 Q 293 153 293 160 Z M 287 189 Q 287 198 287 205 Q 287 213 287 221 H 310 V 190 Q 304 189 298 190 Q 293 190 287 189 Z M 219 221 Q 219 213 219 205 Q 219 198 219 189 H 197 V 221 Z M 107 221 Q 113 221 118 221 Q 124 221 129 221 V 189 H 107 Z M 219 162 V 132 Q 213 133 208 132 Q 203 132 198 132 V 162 Z" fill="black" />
  </g>
  <g class="defect" id="01">
    <path d="M 134 306 Q 115 311 134 316" fill="none" stroke="red" stroke-width="3" />
  </g>
  <g class="defect" id="02">
    <path d="M 89 147 Q 113 149 115 150" fill="none" stroke="red" stroke-width="3" />
  </g>
</svg>