<svg xmlns="http://www.w3.org/2000/svg" width="512" height="512" viewBox="0 0 512 512">
  <g class="glyph">
    <path d="M 311 415 Q 300 415 290 415 Q 280 415 269 414 Q 257 415 245 414 Q 233 414 220 415 Q 174 414 125 415 Q 133 416 140 419 Q 147 422 155 426 Q 164 430 173 437 Q 182 443 189 451 Q 194 457 198 463 Q 201 470 205 477 Q 206 479 205 482 Q 203 484 199 484 Q 178 488 157 495 Q 136 501 116 509 Q 114 509 113 508 Q 111 508 112 506 Q 114 483 116 461 Q 117 439 117 416 L 123 415 Q 121 416 119 415 Q 118 414 116 414 Q 110 415 103 414 Q 97 414 91 414 Q 92 423 93 431 Q 95 440 93 449 Q 93 468 85 485 Q 77 501 62 512 Q 59 510 58 509 Q 45 496 32 484 Q 19 472 6 460 Q 3 458 2 456 Q 3 453 4 452 Q 15 447 26 442 Q 37 436 46 430 Q 52 427 57 423 Q 62 420 67 416 Q 51 415 35 415 Q 19 416 3 416 Q 3 408 3 399 Q 3 391 2 382 Q 20 383 38 384 Q 56 384 75 384 Q 95 384 115 384 Q 135 384 155 384 V 369 Q 146 369 136 369 Q 126 369 115 369 Q 99 369 84 369 Q 68 369 52 369 Q 35 370 20 370 V 336 Q 32 336 45 337 Q 57 338 70 338 H 155 V 316 Q 143 318 131 317 Q 118 316 106 318 V 328 Q 92 329 78 330 Q 64 331 50 333 Q 45 333 39 334 Q 34 335 28 334 Q 27 312 28 290 Q 28 268 28 245 Q 27 229 27 214 Q 27 199 26 184 Q 22 184 17 184 Q 13 184 8 184 Q 8 176 8 167 Q 8 158 8 149 Q 35 151 62 151 Q 89 152 116 151 Q 126 151 135 151 Q 145 152 155 151 Q 155 148 155 146 Q 155 143 154 141 Q 128 138 103 136 Q 78 134 54 131 Q 46 131 39 130 Q 32 129 25 128 Q 25 125 25 122 Q 25 119 24 116 Q 46 114 68 113 L 206 98 Q 220 97 233 94 Q 246 92 260 90 Q 267 89 274 88 Q 280 86 287 85 Q 283 85 279 86 Q 276 86 271 86 Q 263 87 254 88 Q 245 89 236 88 Q 235 83 235 78 Q 235 74 235 69 H 171 Q 171 75 171 81 Q 171 86 171 92 L 152 93 Q 133 95 114 96 Q 96 98 77 100 V 70 Q 57 70 38 70 Q 19 70 0 71 V 37 Q 19 38 38 38 Q 57 39 77 38 Q 77 29 77 19 Q 76 10 75 0 L 104 4 Q 124 8 143 10 Q 163 12 184 13 Q 185 12 186 14 Q 187 16 186 17 Q 183 21 179 24 Q 176 28 172 32 Q 171 33 171 35 Q 171 37 171 38 H 235 Q 235 28 235 19 Q 234 10 233 0 Q 262 4 291 8 Q 319 11 349 13 Q 348 15 347 16 Q 347 17 345 18 Q 342 21 338 24 Q 335 27 333 31 Q 331 33 332 35 Q 333 37 333 38 Q 343 39 355 38 Q 366 38 377 39 Q 381 35 384 31 Q 386 26 390 23 H 392 Q 396 33 402 44 Q 407 54 413 64 Q 413 66 413 67 Q 413 68 413 69 Q 402 70 391 70 Q 380 70 370 70 Q 360 69 350 70 Q 341 70 331 70 Q 332 73 334 75 Q 336 77 338 80 Q 348 93 358 106 Q 367 118 379 131 Q 379 131 378 132 Q 371 131 364 131 Q 357 130 350 131 Q 325 134 301 137 Q 278 140 253 140 V 151 Q 284 151 315 151 Q 345 152 377 151 Q 380 147 383 142 Q 386 138 391 135 Q 394 142 397 150 Q 401 157 405 165 Q 407 169 409 172 Q 412 176 413 180 Q 413 181 412 181 Q 412 181 412 181 Q 412 182 412 182 Q 383 184 355 182 Q 364 193 375 202 Q 386 211 397 221 Q 400 223 402 225 Q 405 226 407 229 Q 408 229 409 231 Q 409 233 407 233 Q 400 238 394 243 Q 388 248 382 254 V 309 Q 382 312 382 316 Q 382 319 381 322 Q 379 323 377 323 Q 374 322 372 323 Q 375 329 377 335 Q 379 340 383 346 Q 386 351 388 356 Q 391 361 393 365 L 390 369 Q 394 377 398 385 Q 402 393 406 401 Q 411 406 411 413 Q 411 414 410 415 Q 408 416 407 415 Q 393 414 378 414 Q 364 415 350 415 H 322 Q 345 419 364 427 Q 379 431 391 439 Q 403 448 414 458 Q 416 461 418 463 Q 420 466 421 468 Q 419 471 416 471 Q 414 472 411 473 Q 393 480 376 488 Q 359 496 342 506 Q 338 509 334 509 Q 333 508 332 506 Q 331 504 331 503 Q 327 487 322 472 Q 317 457 313 442 Q 311 437 309 432 Q 307 426 305 421 Z M 208 421 Q 211 419 213 417 Q 216 416 220 416 Q 227 418 236 420 Q 244 421 251 425 Q 266 430 278 439 Q 291 448 299 460 Q 301 464 303 468 Q 305 471 304 474 Q 302 475 300 476 Q 298 477 296 478 Q 282 482 268 486 Q 255 491 242 496 Q 236 499 232 501 Q 227 503 221 506 Q 219 507 218 505 Q 217 503 217 501 Q 217 486 215 471 Q 214 457 211 442 Q 210 431 208 421 Z M 254 384 Q 263 384 272 384 Q 282 384 291 384 Q 313 384 334 384 Q 355 384 376 384 Q 383 377 387 367 Q 375 369 363 369 Q 351 369 340 369 Q 327 367 316 368 Q 304 369 292 369 H 254 Z M 254 338 Q 279 337 305 338 Q 330 338 356 338 Q 359 334 362 330 Q 365 327 369 323 Q 353 324 337 326 Q 320 328 304 329 Q 303 323 304 318 Q 292 316 279 317 Q 248 333 254 318 Z M 254 204 Q 269 204 283 204 Q 298 204 313 204 Q 317 198 321 193 Q 326 188 330 183 Q 330 167 292 183 Q 272 183 254 182 Z M 48 184 Q 52 185 62 186 Q 71 188 83 189 Q 94 190 104 191 Q 115 192 120 192 Q 124 193 122 197 Q 120 198 118 200 Q 116 202 114 204 H 155 V 183 Q 132 182 110 183 Q 87 183 64 183 Q 60 183 56 183 Q 53 183 48 184 Z M 255 290 Q 260 289 265 289 Q 269 290 275 290 H 304 V 262 Q 288 278 268 284 Q 264 285 261 286 Q 258 287 255 286 Z M 107 237 Q 112 235 117 236 Q 121 237 126 240 Q 133 242 140 246 Q 148 250 154 256 Q 155 250 154 244 Q 154 239 154 233 Q 131 231 107 233 Z M 253 275 Q 256 263 260 253 Q 265 242 268 231 H 254 Q 253 242 253 253 Q 254 264 253 275 Z M 270 231 Q 279 235 287 240 Q 294 244 304 247 Q 304 243 303 239 Q 302 236 302 232 Q 294 232 287 231 Q 279 231 270 231 Z M 106 290 Q 110 291 113 290 Q 116 290 119 290 Q 116 282 114 273 Q 112 264 109 256 L 106 248 Z M 129 290 Q 142 289 155 290 Q 155 285 155 281 Q 155 277 155 272 Q 148 276 142 280 Q 136 285 129 290 Z" fill="black" />
  </g>
  <g class="defect" id="01">
    <path d="M 330 183 Q 330 167 292 183" fill="none" stroke="red" stroke-width="3" />
  </g>
  <g class="defect" id="02">
    <path d="M 279 317 Q 248 333 254 318" fill="none" stroke="red" stroke-width="3" />
  </g>
</svg>