<svg xmlns="http://www.w3.org/2000/svg" width="512" height="512" viewBox="0 0 512 512">
  <g class="glyph">
    <path d="M 57 95 Q 60 95 59 98 L 55 107 H 64 V 78 Q 64 60 63 37 Q 63 15 61 0 Q 81 5 102 9 Q 123 12 143 16 Q 147 16 147 18 Q 146 19 145 20 Q 143 21 142 22 Q 139 25 136 28 Q 133 32 129 36 Q 130 53 130 71 Q 129 88 129 106 Q 134 103 135 98 Q 139 94 141 89 Q 144 84 147 79 Q 148 77 149 77 Q 150 77 151 76 Q 165 99 183 119 Q 185 121 187 124 Q 190 126 191 129 Q 186 132 184 135 Q 181 138 177 142 Q 174 145 174 150 Q 174 154 174 158 V 295 Q 181 289 183 282 Q 184 276 184 271 Q 184 265 184 259 Q 186 229 186 197 Q 188 178 188 160 V 141 Q 204 144 219 147 Q 234 150 248 153 Q 251 154 250 155 L 246 162 H 255 V 66 Q 237 67 219 67 Q 201 67 183 68 V 34 Q 194 36 205 36 Q 217 36 227 37 Q 237 37 246 37 Q 255 38 265 37 Q 277 23 288 7 Q 288 6 289 6 Q 277 -6 290 5 Q 302 22 317 40 Q 321 46 326 51 Q 331 57 336 61 Q 336 47 335 34 Q 335 20 334 6 Q 357 10 380 13 Q 403 17 426 19 Q 428 19 428 21 Q 428 23 428 24 Q 424 29 420 33 Q 416 38 412 43 V 322 Q 412 366 412 411 Q 412 455 413 499 Q 393 502 374 503 Q 355 505 336 506 Q 336 459 336 412 Q 335 365 336 317 Q 333 320 329 322 Q 326 325 323 328 Q 321 329 321 331 Q 322 333 322 335 Q 321 360 320 385 Q 320 411 319 437 Q 319 444 317 452 Q 316 459 313 466 Q 307 476 299 485 Q 290 493 280 499 Q 271 505 261 508 Q 251 511 240 512 Q 231 512 227 509 Q 225 507 223 504 Q 222 502 220 499 Q 219 490 219 481 Q 218 472 217 463 Q 214 461 211 460 Q 208 458 205 456 Q 202 459 198 461 Q 195 463 191 465 Q 179 472 168 478 Q 157 485 146 492 L 143 492 Q 142 475 142 459 Q 142 444 141 428 Q 135 434 129 440 Q 123 446 116 452 Q 103 463 88 470 Q 73 477 58 483 Q 52 486 46 487 Q 40 489 35 492 Q 32 495 30 498 Q 28 502 25 505 Q 22 505 22 501 L 0 415 Q 17 415 33 413 Q 50 411 66 410 V 317 H 61 V 340 L 12 346 V 124 Q 12 105 11 85 Q 24 88 35 91 Q 46 93 57 95 Z M 126 399 Q 128 399 132 399 Q 135 399 138 398 Q 138 386 136 372 Q 135 359 135 347 L 143 343 Q 154 352 162 363 Q 152 383 179 385 Q 186 396 192 407 Q 197 418 202 430 Q 210 430 219 431 Q 227 431 236 432 Q 239 432 242 431 Q 245 430 246 426 Q 247 411 247 395 Q 248 380 249 365 Q 249 352 249 340 Q 250 328 250 315 Q 247 315 245 315 Q 243 315 241 316 Q 235 322 230 330 Q 225 337 222 344 Q 220 346 219 348 Q 218 349 217 349 Q 214 348 212 346 Q 211 344 208 341 Q 200 334 192 326 Q 184 318 174 311 V 331 L 131 337 V 317 H 126 Z M 249 284 Q 252 283 255 284 Q 258 284 261 283 Q 268 275 274 266 Q 279 257 285 247 Q 288 247 288 249 L 305 271 Q 312 281 320 291 Q 328 300 336 310 Q 336 290 336 271 Q 335 252 336 233 V 73 Q 332 77 328 80 Q 325 84 322 88 Q 322 101 322 113 Q 322 126 322 139 Q 322 174 322 209 Q 306 210 289 212 Q 272 214 255 216 Q 255 210 255 203 Q 255 197 255 191 H 250 Z M 74 285 V 269 Q 74 237 74 205 Q 89 172 73 140 Q 71 140 69 140 Q 66 141 64 141 Q 64 169 64 196 Q 64 224 64 252 Q 64 260 64 268 Q 64 276 64 285 Z M 126 284 V 271 Q 125 254 125 238 Q 126 221 125 204 Q 126 180 125 155 Q 125 150 125 147 Q 126 144 125 140 Q 122 140 120 140 Q 118 140 116 140 V 284 Z" fill="black" />
  </g>
  <g class="defect" id="01">
    <path d="M 74 205 Q 89 172 73 140" fill="none" stroke="red" stroke-width="3" />
  </g>
  <g class="defect" id="02">
    <path d="M 162 363 Q 152 383 179 385" fill="none" stroke="red" stroke-width="3" />
  </g>
  <g class="defect" id="03">
    <path d="M 289 6 Q 277 -6 290 5" fill="none" stroke="red" stroke-width="3" />
  </g>
</svg>