<svg xmlns="http://www.w3.org/2000/svg" width="512" height="512" viewBox="0 0 512 512">
  <g class="glyph">
    <path d="M 96 483 Q 113 466 126 449 Q 138 433 149 416 L 104 421 Q 104 389 105 358 Q 105 327 104 295 L 157 301 Q 159 301 158 303 L 155 309 H 174 V 292 Q 158 292 144 292 Q 130 292 114 292 H 99 V 262 L 122 263 Q 136 263 148 263 Q 161 263 174 263 Q 173 257 173 251 Q 173 245 172 240 L 129 245 Q 128 242 128 239 Q 128 235 128 232 H 93 V 500 L 14 509 V 134 Q 14 123 14 111 Q 13 100 12 89 Q 16 90 21 91 Q 25 92 30 93 H 32 Q 46 95 60 97 Q 74 99 89 101 L 103 103 Q 109 103 105 108 L 98 115 Q 107 114 116 115 Q 125 115 134 114 Q 136 114 137 113 Q 137 111 138 110 Q 143 106 146 101 Q 149 95 154 90 Q 141 90 128 91 Q 115 91 103 93 Q 97 94 90 94 Q 84 95 78 95 Q 78 88 77 81 Q 77 75 77 68 Q 62 68 47 68 Q 33 68 18 69 Q 14 69 9 69 Q 5 70 0 69 V 34 Q 19 36 38 36 Q 58 36 77 36 Q 78 27 77 18 Q 77 9 76 0 L 107 4 Q 126 7 145 9 Q 164 11 184 12 Q 184 13 185 13 Q 187 13 187 15 Q 185 18 182 20 Q 179 23 177 25 Q 174 28 171 30 Q 168 32 168 36 H 254 Q 254 18 252 1 Q 278 6 305 9 Q 332 11 358 14 Q 361 13 361 14 Q 362 16 363 17 Q 354 24 347 33 V 36 H 390 Q 393 33 395 29 Q 398 26 401 22 Q 405 19 407 24 Q 411 34 416 44 Q 421 54 426 64 Q 427 65 426 67 Q 425 68 424 68 H 347 V 87 Q 349 84 350 81 Q 351 79 352 77 Q 354 72 358 76 Q 372 92 388 107 Q 405 122 423 136 Q 427 139 422 143 Q 410 150 402 162 V 261 Q 402 281 402 302 Q 402 322 402 343 Q 402 363 402 384 Q 402 404 402 424 Q 402 434 401 445 Q 401 455 396 464 Q 392 471 386 476 Q 381 481 375 485 Q 370 490 364 493 Q 358 497 352 501 Q 345 505 337 508 Q 330 510 322 511 Q 316 512 311 508 Q 305 505 303 499 Q 302 492 302 484 Q 302 476 301 469 L 289 460 Q 284 464 281 468 Q 278 473 274 478 Q 272 482 270 478 Q 262 464 255 451 Q 247 437 241 428 V 491 L 178 499 V 451 Q 168 461 154 468 Q 141 475 128 481 L 102 491 Z M 168 88 Q 191 114 217 136 Q 217 123 217 113 Q 216 103 215 91 Q 221 92 233 94 Q 244 95 257 97 Q 270 98 282 100 Q 294 102 302 102 Q 310 102 304 108 L 296 116 H 328 Q 333 109 337 103 Q 342 97 345 89 L 254 94 V 68 H 168 Q 168 78 168 88 Z M 252 247 Q 255 247 255 249 Q 255 251 253 253 Q 250 255 248 257 Q 245 260 244 262 H 290 Q 293 259 295 256 Q 296 252 298 249 Q 299 247 300 247 Q 302 247 303 248 Q 308 257 313 265 Q 318 274 324 282 V 229 Q 316 229 307 229 Q 298 229 290 229 Q 290 232 290 234 Q 290 236 290 238 L 235 244 Q 238 245 244 245 Q 249 246 252 247 Z M 185 237 Q 192 239 201 240 Q 209 242 217 243 V 142 Q 212 147 207 152 Q 203 157 198 162 V 236 Z M 271 413 Q 280 416 288 420 Q 296 425 303 431 Q 308 431 312 431 Q 316 431 319 430 Q 324 428 324 421 V 335 Q 320 336 317 339 Q 315 341 312 344 Q 312 360 312 376 Q 312 392 312 409 Z M 243 309 H 271 Q 275 305 277 300 Q 293 313 281 292 H 243 Z M 92 201 Q 102 200 111 201 Q 120 201 129 200 Q 129 197 129 193 Q 129 190 128 185 H 93 Q 93 189 93 193 Q 110 197 92 201 Z M 92 143 Q 92 148 92 151 Q 92 155 93 159 Q 102 158 111 158 Q 119 159 128 158 Q 128 155 128 151 Q 128 148 129 144 Q 120 144 111 144 Q 102 144 92 143 Z M 324 200 V 185 H 290 V 200 Z M 295 292 Q 297 294 301 299 Q 305 304 310 309 Q 315 314 319 317 Q 323 321 324 322 V 292 Z M 290 157 Q 298 158 307 158 Q 315 157 324 157 V 145 Q 315 144 307 145 Q 298 145 290 145 Z M 246 334 Q 251 336 257 338 Q 262 341 268 343 Q 268 341 269 340 V 331 H 238 V 369 L 242 354 Q 243 348 244 343 Q 245 338 246 334 Z M 152 331 Q 152 333 152 334 Q 151 336 151 337 L 156 334 Q 172 340 183 353 Q 183 347 183 341 Q 183 335 183 331 Z M 269 382 Q 268 375 268 370 Q 284 353 268 358 Q 262 367 256 373 Q 249 378 242 382 Z M 162 382 Q 161 371 158 361 Q 155 350 151 340 Q 151 350 152 361 Q 152 371 152 382 Z M 241 406 Q 246 407 253 408 Q 261 410 265 411 V 403 H 241 Z M 183 382 V 370 Q 178 373 174 376 Q 169 380 165 382 Z M 151 413 Q 152 410 154 408 Q 156 405 157 403 H 151 Z" fill="black" />
  </g>
  <g class="defect" id="01">
    <path d="M 93 193 Q 110 197 92 201" fill="none" stroke="red" stroke-width="3" />
  </g>
  <g class="defect" id="02">
    <path d="M 268 370 Q 284 353 268 358" fill="none" stroke="red" stroke-width="3" />
  </g>
  <g class="defect" id="03">
    <path d="M 277 300 Q 293 313 281 292" fill="none" stroke="red" stroke-width="3" />
  </g>
</svg>