<svg xmlns="http://www.w3.org/2000/svg" width="512" height="512" viewBox="0 0 512 512">
  <g class="glyph">
    <path d="M 91 0 Q 108 3 125 5 Q 142 8 159 10 Q 176 12 192 13 Q 193 13 195 15 Q 196 16 194 17 Q 186 24 177 33 V 46 Q 186 45 195 45 Q 204 45 213 45 H 248 Q 247 34 247 23 Q 247 12 246 2 Q 272 8 298 11 Q 324 14 350 17 Q 350 18 347 20 Q 344 23 342 26 Q 339 29 337 32 Q 334 35 334 39 Q 334 42 334 46 Q 348 45 362 46 Q 377 46 391 46 Q 393 41 396 38 Q 399 35 402 31 Q 403 29 405 28 Q 410 39 415 50 Q 419 60 425 70 Q 426 72 427 74 Q 427 75 427 77 Q 424 78 420 78 Q 417 78 414 78 Q 404 78 395 78 Q 385 79 375 78 Q 365 78 355 78 Q 345 79 334 78 Q 334 84 334 89 Q 334 94 334 99 Q 325 100 316 101 Q 307 102 297 103 Q 293 104 289 104 Q 285 103 281 105 Q 286 106 295 108 Q 304 110 313 112 Q 322 113 330 115 Q 338 116 342 116 Q 344 116 344 117 Q 344 119 343 120 L 334 128 Q 330 131 329 135 Q 328 139 327 143 Q 326 155 323 167 Q 320 178 317 190 H 325 Q 328 183 332 170 Q 337 157 341 144 Q 347 129 352 112 Q 355 113 362 118 Q 370 122 380 127 Q 389 132 398 136 Q 407 141 412 143 Q 413 144 415 144 Q 417 145 416 147 Q 413 149 409 150 Q 406 152 403 155 Q 399 159 394 165 Q 389 171 386 174 Q 383 177 377 182 Q 371 186 363 190 Q 367 190 372 190 Q 377 190 382 190 L 391 179 Q 395 176 396 179 Q 399 187 402 194 Q 405 200 408 207 Q 412 215 415 220 Q 417 224 413 224 L 309 223 Q 306 230 304 237 Q 302 244 300 251 H 392 Q 395 247 398 243 Q 401 239 405 237 Q 408 240 410 244 Q 411 247 413 252 Q 417 259 420 266 Q 424 273 428 280 Q 429 281 428 282 Q 426 283 425 283 Q 397 284 393 283 Q 377 283 361 284 Q 391 297 425 308 Q 428 309 430 310 Q 432 310 433 312 Q 433 318 431 322 Q 426 323 423 326 Q 419 329 417 333 Q 413 338 412 343 Q 410 349 408 354 Q 406 359 404 364 Q 403 368 400 372 Q 397 376 392 375 Q 388 373 383 372 Q 378 377 372 382 Q 366 386 359 390 Q 378 397 395 406 Q 412 416 428 428 Q 430 428 430 430 Q 431 431 432 433 Q 416 444 403 456 Q 390 469 377 483 Q 376 484 375 485 Q 373 485 372 486 Q 370 483 368 480 Q 366 477 365 474 L 350 448 Q 344 439 339 430 Q 334 421 328 412 V 456 Q 328 463 325 469 Q 322 474 317 480 Q 305 495 287 503 Q 279 507 270 510 Q 261 512 252 511 Q 246 510 242 506 Q 237 502 237 496 Q 237 490 237 484 Q 237 478 237 472 Q 231 468 226 465 Q 220 462 215 459 Q 208 463 201 468 Q 193 472 189 478 Q 185 482 184 487 Q 183 487 182 488 Q 182 488 181 488 Q 178 481 175 475 Q 173 468 170 461 Q 169 458 168 456 Q 167 454 166 452 Q 165 456 164 460 Q 163 464 160 467 Q 155 474 148 480 Q 141 486 133 491 Q 126 495 119 499 Q 111 503 103 504 Q 99 504 94 504 Q 90 503 86 500 Q 84 497 83 493 Q 82 490 81 486 Q 80 479 80 471 Q 80 464 79 457 Q 72 453 64 450 Q 57 447 50 442 Q 40 460 32 477 Q 23 494 13 511 Q 8 509 0 507 Q 3 489 7 472 Q 10 454 13 437 Q 17 410 20 384 Q 23 357 24 330 Q 25 292 25 254 Q 24 216 25 178 Q 25 161 25 144 Q 25 127 23 109 Q 40 112 61 114 Q 81 116 98 117 Q 103 117 100 120 Q 96 126 92 132 H 113 Q 117 126 121 121 Q 124 115 128 108 Q 119 109 111 110 Q 103 111 93 112 V 77 Q 83 78 72 78 Q 61 78 52 78 Q 42 78 32 78 Q 22 79 12 79 V 43 Q 32 44 52 45 Q 72 46 93 45 Q 103 33 92 22 Q 92 11 91 0 Z M 137 108 Q 141 113 149 122 Q 157 130 164 138 Q 172 146 178 152 Q 184 158 186 160 Q 188 162 186 164 Q 181 170 176 174 Q 171 178 167 184 V 343 Q 177 328 188 314 Q 198 300 206 284 Q 197 284 189 284 Q 182 284 172 285 V 248 Q 185 250 197 250 Q 209 250 222 251 Q 224 244 226 237 Q 227 230 230 223 Q 216 223 203 224 Q 189 224 176 225 V 188 H 199 Q 198 184 195 174 Q 192 164 188 153 Q 184 142 181 132 Q 177 122 175 117 L 179 111 Q 196 114 213 122 Q 223 126 231 131 Q 239 135 247 142 Q 248 134 249 126 Q 250 117 251 109 H 248 Q 248 101 247 94 Q 247 86 247 78 Q 229 78 212 78 Q 195 78 177 79 V 105 Z M 167 416 Q 177 411 188 408 Q 199 405 210 399 Q 214 398 219 396 Q 224 395 229 392 Q 236 388 244 384 Q 252 380 259 376 V 354 Q 259 342 258 331 Q 258 321 257 312 Q 252 315 247 319 Q 243 322 237 326 L 223 334 Q 231 337 239 342 Q 247 347 257 357 Q 259 359 257 362 Q 243 371 233 379 Q 223 386 210 396 Q 207 398 207 395 Q 204 384 201 374 Q 198 363 194 352 Q 187 357 180 362 Q 174 366 167 370 Z M 59 425 Q 77 427 94 427 Q 96 426 98 426 Q 100 426 101 424 Q 102 421 103 417 Q 103 413 103 410 Q 104 397 104 385 Q 104 373 104 361 Q 99 361 94 361 Q 89 361 85 361 Q 83 369 80 378 Q 78 386 75 395 Q 71 403 67 410 Q 64 418 59 425 Z M 266 305 Q 278 307 289 309 Q 301 310 314 312 Q 322 314 330 314 Q 326 307 323 299 Q 321 292 318 284 Q 309 284 301 283 Q 293 283 285 284 Q 280 289 276 295 Q 272 300 266 305 Z M 104 327 Q 105 311 104 295 Q 104 279 104 263 H 90 Q 91 279 91 295 Q 91 310 89 327 Z M 91 230 Q 94 230 98 229 Q 101 229 104 230 Q 104 213 104 197 Q 105 181 105 164 Q 98 163 91 164 Z M 230 441 Q 236 441 242 441 Q 248 441 254 441 Q 257 440 257 438 Q 257 437 257 434 Q 258 426 258 417 Q 258 409 259 401 Q 252 411 245 422 Q 238 432 230 441 Z M 327 374 Q 330 369 332 363 Q 333 357 336 351 Q 337 348 338 345 Q 340 342 340 338 L 334 326 Q 331 329 329 334 Q 327 338 327 343 Q 328 351 328 358 Q 327 366 327 374 Z M 238 190 243 171 Q 236 176 230 181 Q 224 185 217 190 Z" fill="black" />
  </g>
  <g class="defect" id="01">
    <path d="M 93 45 Q 103 33 92 22" fill="none" stroke="red" stroke-width="3" />
  </g>
  <g class="defect" id="02">
    <path d="M 425 283 Q 397 284 393 283" fill="none" stroke="red" stroke-width="3" />
  </g>
</svg>