<svg xmlns="http://www.w3.org/2000/svg" width="512" height="512" viewBox="0 0 512 512">
  <g class="glyph">
    <path d="M 125 3 Q 127 0 129 2 L 148 27 Q 154 33 160 39 Q 166 45 172 51 Q 175 55 178 57 Q 182 60 183 65 Q 184 65 183 66 Q 182 67 182 67 Q 177 71 173 75 Q 168 79 165 84 Q 164 90 165 96 Q 165 102 165 108 Q 165 124 165 139 Q 164 154 164 169 Q 173 169 181 170 Q 190 171 198 171 H 223 Q 226 164 227 157 Q 229 151 232 144 Q 201 144 169 146 V 108 Q 175 108 181 108 Q 187 109 194 110 Q 191 97 189 84 Q 186 71 183 58 Q 181 51 178 44 Q 176 37 174 29 Q 175 27 178 26 Q 180 25 182 24 L 189 26 Q 214 36 232 50 Q 236 55 240 58 Q 243 62 246 67 L 249 45 Q 251 35 251 24 Q 251 13 251 3 Q 272 6 292 10 Q 313 14 334 16 Q 337 17 341 17 Q 344 17 347 18 Q 348 18 349 20 Q 349 21 348 22 Q 343 25 339 29 Q 335 33 330 37 Q 328 56 325 74 Q 321 92 318 110 H 325 Q 331 94 336 77 Q 341 59 344 41 Q 345 37 344 33 Q 344 28 347 24 Q 360 30 373 35 Q 386 39 399 44 Q 404 45 407 46 Q 411 47 415 49 V 49 Q 411 52 407 55 Q 403 57 399 62 L 391 74 Q 383 85 373 94 Q 363 103 351 110 Q 360 110 369 110 Q 377 110 386 110 L 397 98 Q 397 97 398 96 Q 399 96 399 96 Q 405 106 409 117 Q 414 127 420 138 Q 421 140 420 144 Q 400 144 381 143 Q 362 143 342 144 Q 334 144 325 143 Q 317 143 309 144 Q 306 151 304 157 Q 302 164 299 170 Q 323 169 346 170 Q 370 171 394 170 Q 396 167 398 163 Q 400 160 403 157 Q 404 155 407 155 Q 412 166 417 176 Q 422 185 428 195 Q 428 197 429 198 Q 430 199 430 201 Q 429 203 427 203 Q 425 203 424 203 Q 394 204 365 203 H 351 Q 368 213 386 220 Q 404 226 422 232 Q 426 234 431 234 L 428 245 Q 420 249 416 257 Q 411 264 408 272 Q 407 275 406 278 Q 405 280 404 284 Q 407 286 410 289 Q 413 292 417 295 Q 418 296 419 297 Q 420 297 421 299 Q 420 301 417 302 Q 413 306 408 312 Q 403 317 397 321 Q 397 337 397 353 Q 397 369 397 386 Q 397 387 397 388 Q 397 390 396 390 Q 386 391 376 393 Q 365 394 355 394 Q 366 400 376 407 Q 386 414 395 423 Q 405 432 413 443 Q 421 454 428 465 Q 426 466 426 468 Q 426 469 425 470 Q 419 472 413 474 Q 408 476 402 480 Q 391 486 381 492 Q 370 497 360 504 Q 357 502 357 500 Q 356 498 356 495 Q 354 484 352 473 Q 349 463 347 452 Q 325 465 302 475 Q 290 480 278 483 Q 266 487 253 489 Q 238 492 224 494 Q 209 496 194 498 Q 190 498 186 501 Q 183 504 180 507 Q 177 510 174 507 Q 172 497 171 486 Q 169 477 168 469 Q 166 461 165 453 Q 164 457 161 460 Q 158 464 155 466 Q 148 473 140 478 Q 132 483 124 488 Q 118 490 113 493 Q 108 495 103 496 Q 98 497 93 496 Q 89 495 85 492 Q 81 488 80 480 Q 79 472 79 464 Q 78 456 79 448 Q 72 443 64 440 Q 56 436 49 431 Q 40 451 32 472 Q 23 492 13 512 Q 9 511 6 510 Q 3 509 0 508 Q 5 471 10 434 Q 14 397 17 360 Q 20 322 21 286 Q 22 249 21 211 Q 22 189 21 168 Q 21 146 21 124 Q 20 100 21 76 Q 21 52 20 28 Q 19 25 19 22 Q 19 19 19 15 Q 37 18 56 20 Q 74 23 92 25 Q 95 25 97 27 Q 96 30 93 32 Q 90 33 89 36 H 106 Q 112 28 116 20 Q 121 11 125 3 Z M 166 428 Q 178 428 190 428 Q 214 417 215 429 Q 225 430 234 429 Q 243 429 252 429 Q 252 417 252 406 Q 252 395 252 385 Q 248 385 245 385 Q 241 385 237 385 Q 237 389 237 393 Q 237 397 237 401 Q 231 403 225 403 Q 219 403 212 404 Q 203 405 194 406 Q 186 407 177 408 V 353 Q 176 339 176 325 Q 176 312 176 297 Q 174 300 171 302 Q 168 305 166 306 Q 165 325 165 344 Q 166 362 166 381 Q 166 392 166 404 Q 167 416 166 428 Z M 56 417 Q 64 417 72 417 Q 80 417 88 419 Q 91 419 93 418 Q 96 418 98 416 Q 100 414 100 412 Q 100 410 100 408 Q 101 388 101 368 Q 100 348 100 328 H 83 Q 82 337 81 347 Q 80 356 77 365 Q 73 378 67 391 Q 62 404 56 417 Z M 165 254 Q 165 259 165 264 Q 165 269 166 275 Q 177 258 188 240 Q 199 223 208 204 Q 198 205 187 205 Q 176 204 165 206 Q 165 218 165 230 Q 166 242 165 254 Z M 100 295 Q 100 270 100 246 Q 100 222 99 197 H 86 Q 86 222 86 246 Q 86 270 85 295 Z M 261 228 Q 265 229 268 229 Q 271 230 274 231 Q 287 233 300 235 Q 313 237 326 239 Q 321 231 318 222 Q 314 213 311 204 Q 304 203 297 203 Q 291 203 284 203 Q 278 209 273 216 Q 268 222 261 228 Z M 85 164 Q 92 164 100 164 Q 99 150 99 137 Q 99 124 99 112 V 69 H 85 V 101 Q 86 117 86 133 Q 85 148 85 164 Z M 252 356 V 309 H 238 Q 237 321 238 332 Q 238 344 237 356 Z M 217 267 Q 225 268 232 268 Q 239 269 246 270 Q 245 273 242 276 Q 240 278 240 282 Q 242 282 245 281 Q 248 281 252 280 Q 251 271 251 262 Q 252 253 251 245 Q 251 244 251 242 Q 250 241 250 240 Q 244 245 240 249 Q 235 252 230 257 Z M 336 356 V 308 H 323 V 356 Z M 322 385 Q 323 392 323 401 Q 322 409 323 417 V 426 Q 328 425 331 425 Q 335 425 339 425 Q 337 417 335 410 Q 334 403 331 396 Q 332 394 333 392 Q 335 390 336 389 Q 336 387 336 383 Q 333 385 330 385 Q 326 385 322 385 Z M 206 110 Q 214 110 222 110 Q 231 110 239 110 Q 240 105 241 98 Q 242 92 243 86 Q 239 88 235 90 Q 231 92 226 96 Q 215 102 206 110 Z M 322 281 Q 329 280 335 280 Q 342 280 347 280 Q 347 277 346 275 Q 342 269 338 263 Q 334 258 331 251 Q 325 255 323 258 Q 323 263 323 269 Q 322 275 322 281 Z" fill="black" />
  </g>
  <g class="defect" id="01">
    <path d="M 190 428 Q 214 417 215 429" fill="none" stroke="red" stroke-width="3" />
  </g>
</svg>