<svg xmlns="http://www.w3.org/2000/svg" width="512" height="512" viewBox="0 0 512 512">
  <g class="glyph">
    <path d="M 174 0 Q 188 3 202 6 Q 216 9 228 16 Q 240 21 249 30 Q 259 38 266 47 Q 268 48 268 49 Q 268 51 269 52 Q 261 56 252 59 Q 244 62 236 67 Q 229 70 222 74 Q 215 77 209 82 Q 225 81 240 82 Q 255 82 271 81 L 283 68 Q 286 64 287 68 Q 291 78 296 91 Q 301 103 305 111 Q 306 114 302 114 H 227 Q 219 114 211 114 Q 204 114 196 114 L 222 121 Q 231 124 240 126 Q 250 128 259 131 Q 261 132 260 134 Q 242 136 257 137 Q 251 140 246 145 Q 240 149 237 155 Q 234 162 230 168 Q 226 175 223 182 Q 214 199 202 215 Q 190 230 176 244 Q 185 243 194 243 Q 185 231 213 240 Q 218 227 222 213 Q 226 200 230 186 Q 232 181 233 175 Q 233 170 236 166 Q 245 168 254 171 Q 262 175 271 177 Q 283 181 294 184 Q 305 188 316 192 Q 320 192 321 195 Q 321 196 319 197 Q 318 198 316 199 Q 313 200 310 203 Q 307 205 305 207 Q 315 208 325 207 Q 335 207 345 207 Q 356 208 367 207 Q 377 207 388 208 L 399 193 Q 402 191 405 193 Q 406 196 407 198 Q 408 200 410 203 Q 414 211 418 219 Q 422 227 427 236 Q 427 237 428 238 Q 428 240 427 241 H 393 Q 393 264 393 287 Q 393 311 392 334 Q 393 350 392 366 Q 392 383 393 399 V 436 Q 392 442 391 449 Q 391 455 386 461 Q 384 465 380 469 Q 376 473 372 477 Q 361 487 350 495 Q 339 504 325 509 Q 320 511 314 511 Q 308 512 302 509 Q 298 507 295 503 Q 292 499 291 494 Q 289 486 289 478 Q 288 471 287 463 Q 284 460 279 456 Q 275 453 271 451 Q 266 455 263 458 Q 259 462 255 467 Q 250 467 250 463 Q 249 452 248 441 Q 247 430 244 420 Q 234 429 224 437 Q 214 445 202 452 Q 192 458 181 463 Q 170 468 159 472 Q 154 475 151 479 Q 133 483 145 488 Q 143 491 141 488 Q 139 478 135 467 Q 132 457 128 446 Q 126 438 123 431 Q 120 424 118 417 Q 116 423 118 428 Q 118 447 117 465 Q 117 482 118 501 Q 98 503 79 505 Q 59 506 40 509 Q 40 460 41 412 Q 41 363 41 314 Q 34 320 27 326 Q 19 332 12 338 Q 9 336 6 334 Q 3 333 0 330 Q 21 285 38 240 Q 45 222 51 205 Q 56 188 62 170 Q 63 164 64 159 Q 66 154 67 148 Q 53 158 40 170 Q 27 181 13 190 Q 11 188 8 186 Q 6 184 3 181 Q 9 172 12 162 Q 16 153 20 143 Q 31 121 38 98 Q 46 74 54 51 Q 57 38 60 26 Q 63 14 66 2 Q 76 6 87 11 Q 98 15 110 19 Q 121 23 132 26 Q 143 30 155 32 Q 156 32 156 34 Q 157 35 156 36 Q 150 39 145 42 Q 140 46 136 51 Q 133 54 132 58 Q 131 62 129 67 Q 121 83 113 99 Q 105 115 94 129 L 121 139 Q 129 142 138 144 Q 146 146 154 150 Q 155 150 156 152 Q 158 153 157 155 Q 153 160 148 163 Q 143 165 140 171 Q 136 184 131 196 Q 126 208 121 221 Q 117 228 114 235 Q 111 242 106 248 Q 112 248 118 248 Q 124 248 130 247 Q 133 247 134 244 Q 135 242 136 240 Q 142 227 146 213 Q 150 200 154 186 Q 156 177 158 168 Q 161 159 162 150 Q 163 141 165 132 Q 167 124 168 116 Q 158 116 148 116 Q 139 116 128 116 V 80 Q 146 81 164 81 Q 171 82 178 82 Q 185 82 192 82 Q 186 62 179 44 Q 172 25 164 6 Z M 240 330 Q 246 333 250 336 Q 254 340 258 344 Q 273 358 284 373 Q 294 389 304 408 L 307 416 Q 308 420 305 422 Q 301 425 298 427 Q 295 429 292 432 Q 293 431 300 431 Q 306 430 308 428 Q 310 426 311 420 Q 312 414 312 406 Q 313 399 313 391 Q 313 384 313 379 V 330 Q 313 319 312 308 Q 312 297 312 285 Q 312 273 312 262 Q 312 251 312 241 H 297 Q 294 241 292 241 Q 290 241 287 242 Q 283 254 277 265 Q 271 276 265 288 Q 259 298 254 309 Q 248 319 240 330 Z M 117 402 Q 121 401 125 401 Q 129 400 133 398 Q 139 394 144 389 Q 148 384 152 377 Q 158 367 163 357 Q 169 346 175 335 Q 183 318 190 299 Q 191 297 192 295 Q 193 293 194 291 Q 181 299 165 305 Q 161 307 156 308 Q 151 309 147 313 Q 145 315 144 317 Q 142 319 141 321 Q 140 322 139 322 Q 138 322 138 320 Q 135 305 131 290 Q 127 275 125 261 Q 122 264 121 268 Q 119 271 118 275 Q 118 307 118 339 Q 118 371 117 402 Z M 299 46 Q 320 48 339 48 Q 359 48 379 49 L 393 33 Q 394 32 395 34 Q 401 45 406 56 Q 411 67 417 77 Q 419 80 416 81 Q 414 82 412 82 H 354 Q 340 82 327 82 Q 313 82 299 84 Z M 188 392 Q 200 391 213 390 Q 226 389 239 387 Q 236 377 235 366 Q 233 356 230 346 Q 223 355 215 363 Q 207 371 200 380 Z" fill="black" />
  </g>
  <g class="defect" id="01">
    <path d="M 260 134 Q 242 136 257 137" fill="none" stroke="red" stroke-width="3" />
  </g>
  <g class="defect" id="02">
    <path d="M 151 479 Q 133 483 145 488" fill="none" stroke="red" stroke-width="3" />
  </g>
  <g class="defect" id="03">
    <path d="M 194 243 Q 185 231 213 240" fill="none" stroke="red" stroke-width="3" />
  </g>
</svg>