<svg xmlns="http://www.w3.org/2000/svg" width="512" height="512" viewBox="0 0 512 512">
  <g class="glyph">
    <path d="M 0 367 Q 25 333 15 328 Q 23 309 29 289 Q 35 270 40 251 Q 45 231 50 211 Q 56 180 61 149 Q 48 149 35 150 Q 22 151 8 151 Q 7 132 8 114 Q 16 114 23 115 Q 31 115 38 115 Q 50 115 61 115 Q 72 116 85 115 Q 91 107 97 98 Q 102 89 110 81 Q 119 95 130 109 Q 141 122 152 134 Q 152 127 152 120 Q 152 113 152 105 Q 152 81 152 57 Q 152 33 151 9 Q 168 12 185 15 Q 202 18 219 19 Q 221 19 221 21 Q 222 23 221 24 Q 218 26 216 28 Q 215 30 213 32 Q 228 31 243 31 Q 257 32 272 31 L 282 18 Q 284 15 285 18 L 306 61 Q 305 62 305 63 Q 304 64 303 63 Q 294 64 285 64 Q 276 64 267 64 Q 268 74 268 85 Q 267 96 267 107 L 281 87 Q 282 86 283 86 Q 284 86 285 87 Q 291 98 298 108 Q 305 118 311 125 Q 312 110 314 95 Q 316 81 316 65 Q 316 52 318 38 Q 318 29 318 21 Q 318 12 319 3 Q 359 15 399 20 Q 401 20 401 22 Q 401 24 400 25 Q 395 30 392 34 Q 388 39 386 45 Q 383 57 382 70 Q 380 84 377 96 H 395 L 406 83 Q 409 80 411 84 Q 415 93 419 101 Q 422 110 427 118 Q 428 121 430 123 Q 431 125 429 128 H 426 Q 412 129 397 129 Q 383 128 368 129 Q 366 136 364 143 Q 361 149 358 156 Q 357 161 355 165 Q 353 169 351 173 Q 371 183 387 197 Q 399 208 408 220 Q 417 233 424 247 Q 425 249 424 250 Q 424 252 424 254 Q 406 261 391 271 Q 371 293 378 279 Q 372 282 367 288 Q 364 291 359 292 Q 357 288 356 282 Q 356 277 354 273 Q 353 263 351 253 Q 350 243 347 233 Q 345 223 343 214 Q 340 204 338 194 Q 332 202 328 210 Q 324 218 318 226 Q 316 230 313 235 Q 310 240 307 244 Q 303 243 300 243 Q 297 243 293 242 Q 294 237 295 232 Q 296 227 296 222 Q 290 223 284 224 Q 278 225 272 226 Q 269 226 269 229 V 265 Q 274 264 277 265 Q 281 265 284 265 Q 286 261 289 257 Q 292 252 296 249 Q 297 248 298 249 Q 299 250 300 251 Q 303 259 306 266 Q 309 273 313 280 Q 314 283 316 286 Q 318 289 318 293 Q 318 296 317 295 Q 315 295 313 296 Q 286 296 259 296 Q 233 295 205 296 Q 202 298 199 302 Q 197 305 195 309 Q 202 310 209 310 Q 215 311 222 312 Q 226 313 229 313 Q 232 313 236 313 Q 235 318 231 320 Q 228 323 226 326 Q 239 325 252 325 Q 266 325 279 325 Q 296 324 312 325 Q 327 325 344 325 Q 349 318 353 310 Q 357 303 361 295 Q 363 293 364 292 Q 365 291 367 291 Q 372 294 376 302 Q 385 313 395 325 Q 405 336 416 346 Q 418 350 419 352 Q 414 356 411 361 Q 407 365 402 370 Q 402 391 402 412 Q 402 433 402 455 L 412 443 Q 412 443 414 445 Q 417 453 420 462 Q 423 470 427 479 Q 428 481 429 484 Q 431 488 431 490 Q 428 491 426 492 Q 424 492 421 492 Q 400 492 380 492 Q 359 492 338 493 Q 316 492 294 493 Q 272 493 250 493 H 178 Q 166 493 153 493 Q 141 494 128 494 Q 128 485 128 476 Q 128 467 128 458 Q 142 459 157 459 Q 156 434 156 408 Q 157 383 156 357 Q 156 354 156 350 Q 156 347 155 344 Q 151 350 146 356 Q 141 363 137 368 Q 134 372 132 376 Q 129 380 127 383 Q 124 379 124 376 Q 124 372 123 367 Q 120 352 118 337 Q 116 322 112 306 Q 112 357 112 406 Q 112 455 113 504 Q 104 505 95 506 Q 86 507 77 509 Q 67 510 59 510 Q 51 511 42 512 Q 42 483 42 454 Q 43 426 43 397 Q 42 383 42 370 Q 43 357 42 343 Q 35 351 26 359 Q 17 367 10 377 Z M 24 7 Q 26 5 28 3 Q 30 0 33 2 Q 48 6 62 12 Q 76 17 88 24 Q 111 37 127 56 Q 129 60 125 63 Q 121 66 116 69 Q 111 71 106 74 Q 102 78 97 81 Q 92 84 87 87 Q 82 92 76 95 Q 71 99 66 103 Q 63 105 61 107 Q 58 109 56 110 Q 50 84 42 59 Q 34 33 24 7 Z M 210 189 Q 228 188 245 189 V 138 Q 236 138 228 138 Q 219 139 210 138 Q 210 151 210 163 Q 210 176 210 189 Z M 112 277 Q 113 278 115 279 Q 120 263 125 248 Q 130 234 132 218 Q 138 221 142 224 Q 147 227 152 230 V 153 Q 144 157 141 167 Q 138 179 136 190 Q 133 202 131 213 Q 126 226 122 238 Q 118 250 112 262 Q 110 265 111 269 Q 113 274 112 277 Z M 223 461 Q 226 461 228 460 Q 230 460 233 460 Q 234 433 233 407 Q 233 381 234 353 Q 231 353 228 353 Q 226 353 223 354 Q 221 384 223 415 Q 222 426 222 438 Q 223 449 223 461 Z M 333 460 Q 334 453 333 446 Q 333 439 333 432 V 354 H 322 Q 322 369 323 384 Q 323 399 322 413 Q 322 426 323 437 Q 323 448 322 460 Z M 272 354 Q 272 370 272 385 Q 272 401 272 417 V 459 H 283 Q 283 445 283 431 Q 283 417 283 403 Q 283 391 282 378 Q 282 366 283 354 Z M 210 266 Q 214 265 217 265 Q 221 265 225 265 Q 224 241 225 218 H 210 Z M 223 109 V 63 Q 220 63 217 63 Q 213 64 210 63 V 109 Z M 298 205 Q 298 206 299 207 Q 298 200 300 194 Q 301 187 302 181 Q 304 169 306 158 Q 308 147 309 136 Q 303 141 298 148 Q 298 162 299 176 Q 299 190 298 205 Z M 135 289 Q 135 291 137 292 Q 138 293 139 295 Q 145 299 149 304 Q 153 310 157 316 Q 158 314 158 312 Q 159 310 159 308 H 163 Q 160 304 157 301 Q 153 298 151 293 Q 149 291 146 289 Q 144 288 141 285 Q 138 286 135 289 Z" fill="black" />
  </g>
  <g class="defect" id="01">
    <path d="M 391 271 Q 371 293 378 279" fill="none" stroke="red" stroke-width="3" />
  </g>
  <g class="defect" id="02">
    <path d="M 0 367 Q 25 333 15 328" fill="none" stroke="red" stroke-width="3" />
  </g>
</svg>