<svg xmlns="http://www.w3.org/2000/svg" width="512" height="512" viewBox="0 0 512 512">
  <g class="glyph">
    <path d="M 11 270 Q 12 261 12 252 Q 12 243 12 234 Q 38 236 63 236 Q 88 237 114 236 H 133 L 147 223 Q 149 220 150 223 Q 155 231 158 237 Q 161 244 164 250 L 169 260 Q 178 236 186 211 Q 195 186 200 162 Q 205 147 208 131 Q 211 116 213 100 Q 216 92 216 85 Q 217 77 217 70 Q 207 70 198 70 Q 189 71 180 71 Q 180 62 180 52 Q 180 43 179 33 Q 195 34 210 34 Q 226 35 242 35 Q 254 36 268 36 Q 281 35 294 35 H 339 Q 345 27 351 19 Q 356 11 361 2 Q 362 3 363 3 Q 364 3 365 4 Q 377 21 392 36 Q 406 51 421 66 Q 423 68 425 70 Q 427 72 426 74 Q 422 78 417 81 Q 413 85 410 89 V 95 Q 409 120 409 142 Q 409 165 406 188 Q 406 194 406 200 Q 406 205 403 210 Q 400 217 396 223 Q 392 229 386 233 Q 380 239 373 244 Q 366 248 359 252 Q 364 258 369 264 Q 373 270 379 275 Q 390 288 401 299 Q 412 309 424 319 Q 425 320 424 322 Q 424 324 423 324 Q 417 329 413 334 Q 409 338 404 344 Q 403 345 403 348 Q 402 385 402 422 Q 402 459 402 497 Q 390 498 378 499 Q 366 501 354 502 Q 344 503 334 504 Q 324 505 314 506 Q 314 496 314 486 Q 315 476 315 465 Q 304 465 293 465 Q 282 465 272 465 Q 272 475 272 484 Q 273 494 272 503 Q 257 505 242 506 Q 227 508 212 510 Q 206 510 199 511 Q 192 511 186 512 V 423 Q 186 400 186 378 Q 187 355 186 332 Q 187 318 186 303 Q 186 288 185 273 Q 183 275 180 277 Q 177 280 174 282 Q 170 279 168 277 Q 165 274 163 272 L 164 268 H 86 Q 67 268 49 269 Q 30 269 11 270 Z M 10 289 Q 20 292 31 294 Q 41 296 52 297 Q 61 300 70 301 Q 79 302 88 303 Q 88 306 86 307 Q 85 309 82 310 H 106 Q 101 301 118 293 Q 123 286 129 276 Q 130 274 132 276 Q 142 288 150 298 Q 158 307 170 320 L 183 331 Q 185 334 182 337 Q 177 342 173 347 Q 169 351 165 356 Q 165 365 165 375 Q 164 385 165 396 Q 165 405 165 416 Q 164 426 165 436 Q 164 465 165 494 Q 148 495 132 497 Q 115 500 98 501 Q 98 493 98 484 Q 97 475 98 467 H 79 Q 80 475 79 484 Q 79 493 79 501 Q 62 504 45 506 Q 29 507 11 509 V 337 Q 11 324 11 313 Q 11 301 10 289 Z M 41 7 Q 43 5 44 3 Q 46 2 47 0 Q 58 1 69 4 Q 80 7 91 11 Q 103 17 115 24 Q 127 31 137 41 Q 139 44 141 45 Q 142 47 143 50 Q 144 51 143 51 Q 142 52 141 53 Q 127 60 113 68 Q 100 76 88 86 Q 102 86 117 86 Q 131 86 146 86 L 158 69 Q 160 70 161 71 Q 162 72 162 73 Q 167 84 171 94 Q 176 103 182 113 Q 183 114 183 116 Q 183 117 182 119 Q 181 120 178 119 Q 176 119 174 119 H 97 Q 73 120 49 120 Q 24 120 0 121 V 84 Q 18 86 36 86 Q 53 86 71 86 Q 64 66 57 46 Q 51 26 41 7 Z M 195 265 Q 217 268 238 272 Q 260 276 282 279 Q 286 279 287 279 Q 286 283 283 285 Q 279 288 276 290 Q 289 292 300 291 Q 312 290 324 290 Q 327 287 329 283 Q 332 280 335 277 L 346 260 Q 338 262 331 264 Q 324 265 316 264 Q 309 263 304 257 Q 300 250 299 243 Q 297 236 297 229 Q 296 223 295 216 Q 287 211 280 207 Q 273 203 265 199 Q 259 207 252 215 Q 245 222 237 228 Q 230 234 223 240 Q 217 246 209 252 Q 205 254 201 258 Q 198 261 195 265 Z M 11 196 Q 11 186 11 177 Q 11 168 11 159 Q 26 160 41 161 Q 56 161 70 161 Q 87 161 104 161 Q 121 161 138 161 Q 141 157 144 154 Q 147 150 149 146 Q 150 144 152 145 Q 154 145 154 147 Q 158 158 163 168 Q 168 178 174 189 Q 175 190 175 192 Q 175 195 172 193 Q 157 193 142 194 Q 127 195 112 193 Q 101 195 92 194 Q 82 193 71 193 Q 56 195 41 195 Q 26 195 11 196 Z M 273 432 Q 283 431 293 431 Q 304 432 315 432 V 357 Q 315 349 315 341 Q 315 333 314 324 H 273 V 340 Q 273 363 272 386 Q 272 409 273 432 Z M 299 81 Q 303 82 307 82 Q 310 82 314 84 L 312 86 Q 307 91 303 96 Q 300 101 299 107 Q 294 126 289 145 Q 285 163 275 181 Q 285 181 295 182 Q 304 182 314 181 Q 318 181 320 177 Q 321 174 321 170 Q 323 154 324 139 Q 324 123 324 107 Q 326 98 325 88 Q 324 79 324 69 H 266 Q 258 70 250 69 Q 241 68 233 69 Z M 98 438 Q 98 427 98 417 Q 97 407 97 396 Q 98 382 98 369 Q 97 355 98 341 Q 93 341 88 341 Q 84 341 79 341 Q 80 365 79 389 Q 79 413 79 438 Z" fill="black" />
  </g>
  <g class="defect" id="01">
    <path d="M 106 310 Q 101 301 118 293" fill="none" stroke="red" stroke-width="3" />
  </g>
</svg>