<svg xmlns="http://www.w3.org/2000/svg" width="512" height="512" viewBox="0 0 512 512">
  <g class="glyph">
    <path d="M 169 10 Q 192 15 213 18 Q 235 21 263 23 Q 264 23 264 25 Q 265 27 264 28 L 255 38 H 295 Q 301 31 307 22 Q 312 13 317 4 Q 319 0 322 4 Q 333 19 349 37 Q 366 54 383 68 Q 385 71 382 73 Q 370 82 359 95 V 140 Q 359 146 361 147 Q 363 149 367 149 Q 374 149 384 146 Q 395 144 405 138 L 411 144 Q 408 151 406 156 Q 405 161 405 166 Q 405 172 407 179 Q 408 185 412 194 Q 415 200 415 206 Q 415 211 410 215 Q 405 220 397 223 Q 389 227 380 228 Q 371 229 363 230 Q 354 230 346 230 Q 359 245 371 256 Q 384 267 399 277 Q 405 281 399 283 Q 391 286 384 291 Q 377 296 374 302 Q 364 323 353 341 Q 342 359 331 376 Q 350 385 371 392 Q 392 400 416 408 L 413 420 Q 406 423 401 426 Q 397 430 392 438 Q 388 446 383 461 Q 377 475 368 500 Q 365 509 358 510 Q 351 512 342 506 Q 319 491 299 477 Q 280 462 263 446 Q 258 448 251 451 Q 234 458 219 464 Q 203 470 186 478 Q 170 485 152 493 Q 134 502 114 512 L 105 501 Q 138 473 166 445 Q 193 418 216 388 Q 190 383 193 343 Q 183 318 175 288 L 156 289 V 256 Q 142 266 130 276 L 119 266 Q 134 243 144 223 Q 154 204 160 185 Q 166 166 169 146 Q 171 126 172 100 V 69 Q 172 64 171 56 Q 171 47 171 39 Q 170 31 170 23 Q 169 15 169 10 Z M 0 183 Q 12 184 23 184 Q 33 185 47 185 H 53 Q 59 176 66 165 Q 72 154 76 143 Q 77 142 78 142 Q 79 141 80 142 Q 91 160 107 179 Q 123 198 139 211 Q 142 214 139 216 Q 126 226 117 237 V 357 Q 131 347 142 339 Q 153 331 168 320 L 178 329 L 144 406 Q 139 417 132 427 Q 125 437 118 444 Q 110 451 100 459 Q 91 467 80 476 Q 77 479 72 484 Q 67 489 63 501 Q 61 506 58 501 Q 49 485 34 464 Q 19 443 3 425 Q 15 419 21 414 Q 28 409 31 404 Q 34 398 35 392 Q 36 385 36 376 V 215 L 0 217 Z M 281 69 H 251 V 107 Q 251 123 250 135 Q 250 146 249 155 Q 248 163 247 170 Q 245 176 244 181 Q 240 192 232 202 Q 241 213 208 222 Q 197 228 186 236 Q 174 243 161 252 Q 176 254 194 254 Q 211 255 234 255 H 309 Q 315 248 319 242 Q 324 236 329 229 Q 326 229 325 229 Q 317 227 309 223 Q 302 219 295 211 Q 289 203 285 191 Q 281 179 281 162 Z M 19 7 Q 41 11 59 16 Q 77 22 91 30 Q 106 39 119 50 Q 132 62 144 78 Q 147 81 142 83 Q 126 93 105 107 Q 84 121 66 139 Q 63 142 61 138 Q 51 104 40 74 Q 30 45 15 11 Z M 255 330 Q 266 310 276 285 H 235 Q 226 285 218 286 Q 210 286 203 286 Q 216 298 229 309 Q 242 320 255 330 Z" fill="black" />
  </g>
  <g class="defect" id="01">
    <path d="M 232 202 Q 241 213 208 222" fill="none" stroke="red" stroke-width="3" />
  </g>
  <g class="defect" id="02">
    <path d="M 216 388 Q 190 383 193 343" fill="none" stroke="red" stroke-width="3" />
  </g>
</svg>