<svg xmlns="http://www.w3.org/2000/svg" width="512" height="512" viewBox="0 0 512 512">
  <g class="glyph">
    <path d="M 230 89 Q 233 90 232 93 L 226 102 H 238 Q 238 101 238 91 Q 238 82 238 69 Q 238 57 238 44 Q 238 30 237 23 Q 237 17 236 11 Q 236 6 236 0 Q 243 3 251 4 Q 259 5 267 7 Q 283 9 299 12 Q 315 14 331 16 Q 333 16 334 17 Q 334 19 333 20 Q 332 21 331 22 Q 328 25 324 28 Q 321 32 318 36 Q 316 38 316 40 Q 329 40 341 41 Q 353 41 366 40 Q 368 37 371 33 Q 373 29 377 26 Q 358 27 380 32 Q 384 41 390 50 Q 395 59 401 69 L 400 71 Q 378 73 357 72 Q 336 71 315 73 Q 316 80 316 87 Q 316 94 316 101 Q 325 102 335 102 Q 344 101 353 101 Q 358 95 362 89 Q 366 82 372 75 Q 373 76 374 77 Q 375 78 375 79 Q 383 89 392 99 Q 400 108 411 116 Q 414 119 414 121 Q 410 126 405 129 Q 399 132 395 137 Q 392 141 388 145 Q 385 148 381 152 Q 372 159 363 165 Q 355 170 349 172 L 343 168 Q 346 175 352 184 Q 357 193 360 196 L 361 174 H 377 L 380 204 Q 380 206 381 210 Q 387 214 394 215 Q 401 216 406 221 Q 408 225 408 230 Q 408 234 406 239 Q 404 244 401 249 Q 398 254 395 260 Q 386 271 375 275 Q 365 280 355 280 Q 345 281 335 281 Q 323 282 311 282 Q 299 282 288 280 Q 276 278 266 271 Q 257 265 251 254 Q 247 244 247 232 Q 247 220 246 208 Q 242 208 237 208 Q 232 208 228 208 Q 227 242 227 275 Q 228 309 226 343 Q 224 352 223 360 Q 222 368 220 377 Q 224 377 228 377 Q 232 377 236 377 Q 235 361 235 344 Q 236 327 235 311 Q 234 304 234 299 Q 234 293 234 288 L 242 289 Q 262 293 281 295 Q 300 298 320 300 Q 320 303 317 305 Q 314 306 313 309 H 361 Q 363 305 366 302 Q 368 299 372 295 L 388 325 Q 390 327 392 330 Q 394 333 395 336 Q 396 339 394 339 Q 393 340 391 340 Q 371 340 350 341 Q 330 341 310 340 Q 310 349 309 359 Q 309 368 310 377 Q 325 377 341 377 Q 357 377 374 377 Q 376 377 377 375 L 388 362 Q 392 368 395 374 Q 382 398 401 386 Q 403 392 406 397 Q 409 402 411 407 Q 411 407 410 408 Q 409 408 408 408 Q 397 409 386 409 Q 375 408 363 408 H 310 Q 309 418 309 428 Q 310 438 310 448 Q 323 448 337 449 Q 351 449 364 449 L 375 436 Q 375 435 376 435 Q 376 435 377 434 L 397 475 Q 398 476 398 480 Q 376 479 354 479 Q 333 479 311 479 Q 306 479 303 479 Q 299 479 295 480 Q 288 486 282 494 Q 275 501 269 508 Q 258 498 246 488 Q 234 477 222 468 Q 219 466 217 464 Q 214 462 213 459 Q 220 455 226 449 Q 232 443 234 434 Q 235 428 235 422 Q 235 415 236 409 Q 229 409 223 409 Q 217 409 210 408 Q 195 435 180 460 Q 164 486 148 512 L 134 505 Q 136 500 137 495 Q 138 489 139 485 L 116 486 Q 108 487 100 487 Q 91 488 83 489 Q 83 483 83 477 Q 83 470 84 464 Q 79 464 75 464 Q 71 464 66 464 V 492 Q 51 494 36 496 Q 21 498 6 499 Q 6 457 6 415 Q 6 374 5 331 Q 5 320 5 309 Q 4 298 4 288 Q 21 292 39 296 Q 56 299 74 302 Q 70 305 69 308 Q 75 309 80 309 Q 85 309 90 309 Q 95 304 98 299 Q 102 293 106 288 Q 108 285 109 282 Q 110 279 112 277 Q 123 290 133 303 Q 143 315 155 327 Q 156 297 156 268 Q 155 239 155 209 Q 155 196 156 184 Q 156 171 155 158 Q 155 149 155 140 Q 155 130 155 121 Q 153 124 151 123 Q 149 123 147 124 Q 125 124 104 124 Q 83 123 60 124 Q 45 123 30 124 Q 15 125 1 126 Q 1 117 0 107 Q 0 98 0 89 Q 14 90 28 90 Q 43 91 57 91 Q 50 69 41 49 Q 33 29 23 9 Q 27 7 28 4 Q 52 9 75 18 Q 98 27 116 43 Q 119 46 121 48 Q 124 50 125 54 Q 112 59 101 68 Q 96 71 92 75 Q 88 79 84 82 L 75 90 Q 77 91 79 91 Q 81 91 84 91 Q 92 90 100 91 Q 108 91 116 91 Q 120 87 123 83 Q 126 79 130 76 Q 131 75 132 76 Q 133 77 134 78 Q 139 89 143 99 Q 148 109 153 119 Q 155 107 154 96 Q 153 86 152 75 Q 201 86 230 89 Z M 8 267 Q 8 259 8 250 Q 9 241 9 233 Q 35 234 61 234 Q 87 234 112 234 Q 116 230 119 226 Q 122 222 125 218 Q 128 222 129 227 Q 131 231 134 236 Q 136 243 140 250 Q 145 257 147 265 Q 145 267 141 266 Q 138 265 136 267 H 78 Q 60 265 43 266 Q 26 267 8 267 Z M 9 162 Q 23 163 36 163 Q 50 164 64 164 Q 76 163 88 164 Q 100 164 112 163 L 123 150 Q 123 149 124 149 Q 125 148 126 149 Q 130 157 134 165 Q 137 173 140 181 Q 142 184 144 187 Q 146 191 147 194 Q 145 196 142 196 H 69 Q 54 196 39 196 Q 24 196 9 198 Z M 83 432 V 422 Q 83 401 83 381 Q 83 361 82 340 Q 78 340 74 340 Q 70 340 66 340 V 384 Q 66 396 67 408 Q 67 419 66 432 Z M 257 133 Q 267 136 278 139 Q 290 141 301 142 Q 306 144 311 144 Q 316 145 321 146 Q 325 147 322 150 Q 319 153 316 156 Q 313 158 311 161 V 174 L 326 173 L 333 160 Q 334 156 336 159 L 340 165 Q 342 159 344 149 Q 345 139 346 132 Q 328 133 309 133 Q 290 133 272 133 Z M 310 215 Q 310 220 312 222 Q 315 223 319 223 Q 324 224 333 223 Q 341 223 347 222 Q 350 221 352 221 Q 354 221 355 218 Q 357 213 358 209 Q 359 206 359 200 L 310 203 Z M 227 181 Q 232 181 237 180 Q 241 180 246 180 Q 246 168 246 156 Q 246 145 245 134 H 228 Q 227 146 227 157 Q 228 169 227 181 Z M 142 360 Q 144 376 143 393 Q 142 409 144 425 Q 144 434 143 442 Q 143 450 144 458 L 146 443 Q 150 418 152 393 Q 154 368 156 343 Q 151 348 147 352 Q 142 356 142 360 Z" fill="black" />
  </g>
  <g class="defect" id="01">
    <path d="M 377 26 Q 358 27 380 32" fill="none" stroke="red" stroke-width="3" />
  </g>
  <g class="defect" id="02">
    <path d="M 395 374 Q 382 398 401 386" fill="none" stroke="red" stroke-width="3" />
  </g>
</svg>