<svg xmlns="http://www.w3.org/2000/svg" width="512" height="512" viewBox="0 0 512 512">
  <g class="glyph">
    <path d="M 251 0 Q 259 2 267 3 Q 275 5 282 6 Q 298 7 314 10 Q 330 12 346 13 Q 346 14 346 14 Q 347 15 347 16 Q 343 20 340 24 Q 336 28 332 32 Q 329 35 329 38 Q 330 42 328 44 Q 327 57 324 70 Q 322 83 319 96 Q 323 96 325 97 Q 328 89 331 82 Q 334 75 337 68 Q 345 44 348 18 Q 357 22 367 26 Q 376 29 386 33 Q 393 35 401 39 Q 408 42 416 44 Q 419 44 419 48 Q 415 51 410 53 Q 406 55 403 59 Q 398 65 393 71 Q 388 77 382 81 Q 377 86 372 90 Q 367 94 361 96 Q 368 95 374 95 Q 380 95 387 95 Q 390 91 393 87 Q 395 83 398 80 Q 403 91 409 103 Q 415 114 420 125 Q 422 128 420 130 H 411 Q 385 129 360 129 Q 335 130 310 130 Q 309 136 307 141 Q 304 147 303 152 H 393 Q 396 149 399 146 Q 402 142 404 138 Q 405 137 407 137 Q 408 138 408 139 Q 413 150 419 161 Q 424 172 430 182 Q 429 183 429 186 Q 409 186 389 185 Q 370 185 349 185 Q 390 204 432 217 L 429 228 Q 426 229 424 231 Q 422 234 420 236 Q 414 244 411 254 Q 407 263 403 271 Q 402 274 401 276 Q 400 278 397 278 Q 393 280 389 279 Q 385 277 381 276 Q 385 281 387 287 Q 389 293 393 299 Q 394 301 396 304 Q 382 308 397 311 Q 394 312 391 312 Q 388 311 386 312 Q 375 313 364 313 Q 353 313 341 313 Q 311 312 282 312 Q 253 313 223 313 Q 212 313 202 313 Q 191 313 181 314 Q 181 307 181 298 Q 165 271 180 282 Q 186 281 190 282 Q 195 282 201 282 Q 228 283 255 283 Q 282 282 310 282 H 364 Q 369 276 372 269 Q 364 270 357 269 Q 350 269 343 269 Q 311 269 281 269 Q 250 269 219 269 Q 212 269 205 269 Q 198 270 190 270 Q 192 268 192 264 Q 200 266 186 268 Q 183 269 180 271 Q 176 273 172 276 Q 169 279 165 281 Q 163 282 163 284 Q 164 323 163 361 Q 163 399 163 437 Q 164 446 159 455 Q 155 464 147 471 Q 136 479 125 487 Q 113 494 99 498 Q 95 499 89 499 Q 84 499 81 495 Q 78 493 77 490 Q 75 486 75 482 Q 74 473 75 465 Q 75 456 75 447 Q 69 444 63 440 Q 56 437 50 432 Q 45 443 41 454 Q 36 464 31 475 Q 27 484 23 494 Q 19 503 14 512 Q 11 510 7 509 Q 3 508 0 506 Q 3 485 6 464 Q 9 442 11 421 Q 14 398 16 374 Q 18 351 19 328 Q 19 312 20 297 Q 21 281 21 266 Q 22 255 21 244 Q 21 233 22 222 V 159 Q 22 131 23 102 Q 24 74 22 45 L 20 14 Q 40 19 59 22 Q 79 25 98 27 Q 99 27 99 28 Q 100 28 101 29 Q 99 33 96 35 Q 93 37 90 41 Q 94 42 99 41 Q 104 41 108 41 Q 113 34 118 25 Q 122 17 126 10 Q 129 10 130 12 Q 131 13 132 14 Q 144 30 158 47 Q 164 53 170 59 Q 177 65 182 72 L 166 88 Q 164 91 164 94 V 150 Q 179 151 193 152 Q 208 152 223 152 Q 223 151 224 150 Q 224 149 224 148 Q 226 143 228 138 Q 230 133 232 129 Q 224 129 217 129 Q 210 130 203 130 Q 194 130 186 130 Q 179 131 170 131 V 95 Q 178 95 183 95 Q 189 95 196 95 Q 193 77 187 60 Q 181 43 174 26 Q 176 24 178 22 Q 180 20 183 18 Q 194 20 203 23 Q 213 26 223 32 Q 230 35 236 40 Q 243 44 247 51 Q 250 39 251 26 Q 251 13 251 0 Z M 175 362 Q 175 361 175 360 Q 175 358 178 360 Q 182 361 186 362 Q 190 362 194 363 Q 208 365 221 368 Q 235 370 249 371 L 267 373 Q 266 376 265 378 Q 263 380 262 382 Q 263 383 268 383 Q 283 384 298 383 Q 314 383 330 384 Q 334 377 338 370 Q 343 363 348 356 H 301 Q 285 357 270 357 Q 254 356 239 357 Q 224 357 208 357 Q 193 357 178 358 Q 178 350 178 342 Q 178 334 178 326 Q 188 326 200 327 Q 211 328 223 328 H 366 Q 370 325 372 322 Q 375 318 379 315 Q 380 314 381 315 Q 381 315 382 316 Q 384 318 384 320 Q 385 323 386 324 Q 388 331 392 337 Q 396 343 400 350 Q 400 351 400 353 Q 401 355 400 356 Q 391 357 381 357 Q 372 356 363 357 Q 368 362 373 366 Q 378 370 383 375 L 411 396 Q 414 398 416 399 Q 418 400 419 403 Q 420 404 419 405 Q 418 407 417 408 Q 412 411 407 416 Q 403 421 399 426 V 489 Q 378 492 359 494 Q 340 496 319 498 V 473 H 255 V 494 L 212 499 Q 203 500 194 501 Q 186 502 176 503 Q 177 480 176 458 Q 176 435 176 412 Q 177 400 176 388 Q 176 376 175 362 Z M 58 417 Q 66 417 74 417 Q 82 417 90 418 Q 91 417 94 417 Q 96 417 97 416 Q 99 412 99 409 Q 99 405 100 401 Q 101 382 101 363 Q 101 345 101 326 Q 96 326 92 326 Q 88 326 83 326 L 81 348 Q 78 366 71 384 Q 68 392 64 400 Q 61 409 58 417 Z M 319 446 V 410 Q 303 410 288 410 Q 272 410 256 410 V 446 Z M 169 243 Q 179 230 189 216 Q 198 201 207 186 Q 196 186 186 186 Q 175 186 164 186 Q 165 202 164 218 Q 164 234 164 249 Z M 85 292 Q 89 292 93 292 Q 97 292 101 292 Q 101 282 101 274 Q 101 265 101 256 Q 101 241 101 226 Q 101 212 101 197 H 86 Q 87 208 86 220 Q 86 231 86 242 Q 86 254 86 267 Q 85 279 85 292 Z M 102 163 Q 101 140 102 118 Q 102 96 102 73 Q 94 74 87 73 Q 86 96 86 118 Q 86 140 86 163 Z M 279 196 Q 291 199 303 204 Q 316 209 326 217 Q 322 209 319 201 Q 316 193 314 185 H 286 Q 284 188 282 191 Q 281 193 279 196 Z M 225 238 Q 237 239 249 238 Q 261 238 273 238 Q 270 232 266 226 Q 263 220 260 213 Q 251 220 242 226 Q 234 232 225 238 Z M 239 96 Q 240 91 241 86 Q 242 81 243 75 Q 236 80 228 85 Q 221 90 213 96 Z M 304 238 Q 314 238 323 238 Q 333 238 342 239 Q 340 235 337 232 Q 334 228 331 226 Q 323 227 317 231 Q 310 234 304 238 Z" fill="black" />
  </g>
  <g class="defect" id="01">
    <path d="M 181 298 Q 165 271 180 282" fill="none" stroke="red" stroke-width="3" />
  </g>
  <g class="defect" id="02">
    <path d="M 192 264 Q 200 266 186 268" fill="none" stroke="red" stroke-width="3" />
  </g>
  <g class="defect" id="03">
    <path d="M 396 304 Q 382 308 397 311" fill="none" stroke="red" stroke-width="3" />
  </g>
</svg>