<svg xmlns="http://www.w3.org/2000/svg" width="512" height="512" viewBox="0 0 512 512">
  <g class="glyph">
    <path d="M 65 134 Q 71 134 69 137 L 64 145 H 75 V 135 Q 75 126 75 118 Q 75 110 75 101 Q 64 100 53 101 Q 42 102 32 102 Q 21 102 11 103 V 65 Q 27 67 43 67 Q 59 68 75 68 Q 74 60 75 53 Q 75 45 74 38 Q 74 31 74 24 Q 74 17 73 10 Q 97 14 121 17 Q 145 20 169 22 Q 169 25 167 26 Q 162 31 157 37 Q 152 42 148 48 V 68 H 180 L 190 55 Q 192 52 194 55 Q 198 65 203 75 Q 207 84 213 95 Q 213 96 213 98 Q 213 100 212 100 Q 195 101 179 101 Q 164 101 147 101 V 145 H 157 Q 162 139 166 132 Q 170 125 174 118 Q 176 114 178 117 Q 184 127 188 134 Q 193 140 200 148 Q 205 135 210 122 Q 214 108 219 96 Q 224 78 228 61 Q 232 44 236 27 Q 238 20 239 13 Q 240 7 241 0 Q 258 5 275 10 Q 292 14 309 18 Q 317 20 326 22 Q 329 23 326 25 Q 315 32 311 41 L 302 60 H 318 Q 323 54 325 51 Q 327 49 331 43 L 341 27 Q 343 24 344 27 Q 348 32 354 37 Q 359 43 364 48 Q 378 64 396 79 Q 397 80 397 83 Q 392 88 386 91 Q 364 94 378 100 Q 367 117 355 130 Q 342 144 328 156 Q 335 155 341 155 Q 348 155 354 155 Q 359 148 364 140 Q 369 133 373 125 Q 373 124 374 123 Q 376 123 377 124 Q 380 128 381 131 Q 383 135 386 138 Q 393 150 402 161 Q 411 172 420 183 Q 421 184 420 186 Q 420 187 419 188 Q 415 192 410 195 Q 406 197 402 200 Q 403 246 402 292 Q 402 337 403 384 L 343 389 V 236 Q 341 240 338 243 Q 335 246 336 250 V 331 Q 336 343 335 355 Q 335 366 333 377 Q 332 382 331 387 Q 331 392 329 396 Q 334 397 338 398 Q 342 399 346 400 Q 355 403 364 406 Q 372 410 381 414 Q 405 425 425 448 Q 424 449 424 451 Q 424 452 423 453 Q 405 466 390 480 Q 374 494 358 509 Q 357 509 357 509 Q 356 508 355 508 Q 350 495 345 482 Q 341 469 335 456 Q 331 448 328 440 Q 324 433 319 425 Q 311 440 297 452 Q 285 461 272 467 Q 259 474 246 481 Q 231 489 216 496 Q 201 504 187 512 Q 184 509 182 507 Q 180 504 178 501 Q 181 483 217 464 Q 236 445 252 423 Q 259 412 265 402 Q 271 391 274 380 Q 279 366 279 351 Q 280 336 280 322 Q 280 304 280 285 Q 280 266 279 247 Q 279 238 278 230 Q 278 221 277 212 Q 281 213 290 215 Q 300 217 310 219 Q 320 221 330 222 Q 339 223 343 224 V 188 Q 325 187 306 187 Q 288 187 269 187 V 388 L 215 393 Q 218 400 220 406 Q 220 410 217 413 Q 212 417 207 421 Q 203 424 198 429 Q 191 435 184 441 Q 177 448 170 455 Q 168 457 165 458 Q 163 448 161 438 Q 159 428 157 418 Q 155 404 152 391 Q 149 378 148 366 Q 147 380 147 394 Q 148 408 148 423 V 497 Q 130 499 112 501 Q 94 504 77 506 Q 77 483 77 462 Q 77 441 77 419 Q 73 425 68 430 Q 64 435 59 440 Q 53 445 48 451 Q 43 456 37 461 Q 31 469 23 475 Q 16 481 11 489 L 0 482 Q 4 471 9 461 Q 14 450 18 440 Q 26 420 32 399 Q 39 378 44 357 L 50 336 Q 42 337 35 337 Q 27 338 20 339 V 177 Q 19 164 19 151 Q 19 138 17 125 Q 22 126 26 127 Q 29 128 32 128 Q 36 129 40 130 Q 44 130 50 131 Z M 148 330 Q 150 331 154 334 Q 157 336 158 337 Q 165 342 172 349 Q 180 356 187 363 Q 194 369 202 378 L 212 391 V 259 L 211 181 Q 205 186 201 192 V 211 Q 201 241 201 268 Q 202 295 202 324 L 153 329 V 316 H 148 Z M 249 140 Q 257 141 263 142 Q 269 143 276 143 Q 277 143 278 144 Q 278 145 277 146 L 269 155 H 292 Q 297 140 300 124 Q 303 109 307 93 H 288 Q 285 98 282 103 Q 280 108 277 112 Q 270 120 263 127 Q 256 134 249 140 Z M 71 175 Q 72 203 72 231 Q 72 259 72 286 H 82 V 176 Q 80 176 77 176 Q 74 175 71 175 Z M 141 277 Q 141 279 141 281 Q 141 283 141 285 H 151 Q 152 270 152 255 Q 151 241 151 225 Q 151 213 152 201 Q 152 188 151 175 H 141 Q 141 179 141 183 Q 141 186 141 189 Q 141 212 141 233 Q 141 255 141 277 Z" fill="black" />
  </g>
  <g class="defect" id="01">
    <path d="M 178 501 Q 181 483 217 464" fill="none" stroke="red" stroke-width="3" />
  </g>
  <g class="defect" id="02">
    <path d="M 386 91 Q 364 94 378 100" fill="none" stroke="red" stroke-width="3" />
  </g>
</svg>