<svg xmlns="http://www.w3.org/2000/svg" width="512" height="512" viewBox="0 0 512 512">
  <g class="glyph">
    <path d="M 167 73 V 35 Q 174 36 182 36 Q 191 36 199 37 Q 216 38 232 37 Q 249 37 266 37 Q 291 37 316 37 Q 340 38 365 38 Q 369 37 372 37 Q 376 38 378 37 Q 382 33 385 29 Q 387 24 391 21 Q 393 22 393 23 Q 394 23 395 24 L 414 62 Q 415 64 416 66 Q 416 68 415 69 Q 414 72 411 71 Q 409 71 406 71 Q 382 71 357 71 Q 333 72 307 71 Q 308 83 308 95 Q 307 106 307 118 Q 307 130 308 143 Q 308 156 307 169 V 241 Q 307 253 307 265 Q 307 277 307 289 Q 307 308 307 327 Q 307 346 307 365 L 318 363 Q 318 343 318 322 Q 318 301 318 281 Q 318 257 318 235 Q 318 212 318 189 Q 318 174 318 160 Q 318 146 318 131 Q 318 122 317 113 Q 317 104 317 96 Q 336 100 355 102 Q 375 105 394 107 Q 397 107 395 110 Q 393 114 389 118 Q 385 121 382 125 V 136 Q 382 185 382 233 Q 382 281 382 330 Q 382 347 381 364 Q 381 380 382 396 Q 382 402 381 408 Q 381 413 382 419 Q 383 419 384 417 Q 384 416 385 414 L 388 397 Q 390 383 393 368 Q 395 353 398 338 L 413 340 Q 412 354 412 368 Q 413 381 412 395 Q 412 400 412 404 Q 412 408 413 413 Q 415 414 419 414 Q 422 415 425 416 Q 427 418 429 421 Q 431 423 432 427 Q 432 440 428 452 Q 423 465 417 477 Q 410 490 397 498 Q 390 502 382 502 Q 374 503 365 503 Q 357 503 349 501 Q 341 500 334 495 Q 328 490 326 484 Q 323 477 321 470 Q 318 459 318 447 Q 318 434 318 422 Q 318 411 318 400 Q 318 389 318 378 Q 315 383 312 386 Q 309 390 307 393 Q 306 403 306 412 Q 307 422 307 431 Q 306 450 306 467 Q 306 485 306 504 H 305 Q 291 506 277 507 Q 262 509 248 510 V 445 L 227 455 Q 219 458 211 462 Q 187 479 195 470 Q 191 473 188 478 Q 186 482 182 486 Q 182 488 180 488 Q 178 488 178 486 Q 176 477 174 468 Q 171 459 168 450 Q 166 443 163 436 Q 161 429 158 422 Q 150 422 143 422 Q 135 422 127 422 Q 128 430 128 438 Q 127 446 127 454 V 504 Q 108 507 88 509 Q 68 510 48 512 Q 49 489 49 467 Q 48 445 49 422 Q 37 423 25 423 Q 13 423 1 424 Q 0 415 0 406 Q 0 397 0 388 Q 12 389 25 389 Q 37 389 49 390 V 358 Q 39 361 28 362 Q 17 363 6 365 Q 6 347 6 331 Q 5 315 5 299 Q 6 278 6 258 Q 5 238 6 217 Q 5 197 6 177 Q 6 157 5 136 Q 5 132 5 127 Q 5 123 4 118 Q 16 121 27 122 Q 50 108 47 124 Q 48 124 47 127 Q 46 128 45 129 Q 45 131 43 134 H 52 V 97 Q 27 97 2 99 V 62 Q 14 63 27 63 Q 39 63 52 64 Q 52 48 52 32 Q 52 16 49 0 Q 91 8 132 13 Q 136 14 140 14 Q 143 14 147 15 L 125 39 Q 125 45 125 51 Q 125 58 125 64 H 143 Q 147 60 149 57 Q 151 54 154 50 Q 156 48 157 50 L 165 69 Z M 143 389 Q 146 385 149 381 Q 152 377 156 372 Q 156 373 157 374 Q 158 375 158 376 Q 161 381 163 386 Q 166 391 169 396 Q 170 399 173 402 Q 174 401 175 400 Q 176 400 177 399 Q 159 377 178 356 Q 178 334 178 312 Q 178 290 178 269 Q 179 248 178 226 Q 178 214 178 203 Q 179 192 179 180 V 168 Q 176 170 174 173 Q 172 175 169 178 Q 168 182 168 187 Q 168 192 168 196 V 351 Q 157 353 147 354 Q 137 356 127 357 V 389 Z M 167 74 175 94 Q 176 98 173 98 H 125 V 132 H 129 Q 138 121 147 108 Q 148 106 150 108 Q 157 117 165 127 Q 172 136 180 146 V 74 Z M 237 268 Q 240 268 243 268 Q 246 268 249 268 Q 250 248 250 227 Q 250 206 250 186 Q 246 186 243 186 Q 240 186 237 187 Z M 237 152 Q 240 152 244 152 Q 247 153 250 152 Q 250 149 250 146 Q 250 142 250 140 Q 250 122 250 105 Q 250 89 250 71 H 237 Q 237 91 238 111 Q 238 131 237 152 Z M 237 385 Q 242 383 249 382 Q 249 369 249 356 Q 248 343 249 331 V 301 H 237 Q 237 322 237 343 Q 237 364 237 385 Z M 63 308 V 254 H 52 V 308 Z M 52 167 Q 52 180 52 193 Q 52 206 52 220 H 63 V 167 Z M 123 220 Q 123 206 124 193 Q 124 180 123 167 H 113 V 220 Z M 123 307 Q 123 293 123 280 Q 123 267 123 253 H 113 V 307 Z" fill="black" />
  </g>
  <g class="defect" id="01">
    <path d="M 27 122 Q 50 108 47 124" fill="none" stroke="red" stroke-width="3" />
  </g>
  <g class="defect" id="02">
    <path d="M 177 399 Q 159 377 178 356" fill="none" stroke="red" stroke-width="3" />
  </g>
  <g class="defect" id="03">
    <path d="M 211 462 Q 187 479 195 470" fill="none" stroke="red" stroke-width="3" />
  </g>
</svg>