<svg xmlns="http://www.w3.org/2000/svg" width="512" height="512" viewBox="0 0 512 512">
  <g class="glyph">
    <path d="M 310 20 Q 321 15 332 11 Q 343 6 353 0 L 373 24 Q 383 37 393 48 Q 403 59 414 70 Q 413 70 413 71 Q 413 71 412 72 Q 405 73 399 73 Q 392 73 385 75 Q 376 78 367 79 Q 359 81 349 84 Q 342 86 333 86 Q 325 87 316 88 Q 303 90 290 89 Q 277 88 263 86 L 242 84 V 146 Q 261 145 280 145 Q 298 146 317 146 Q 319 145 321 146 Q 323 146 324 143 Q 331 134 337 124 Q 343 114 350 104 Q 353 105 354 107 Q 355 108 357 110 Q 368 124 379 138 Q 391 151 404 163 Q 406 166 409 169 Q 413 172 415 175 Q 414 178 411 180 Q 409 181 407 182 Q 402 186 397 191 Q 392 196 391 202 Q 385 220 378 237 Q 370 254 362 271 Q 361 275 359 277 Q 357 279 356 281 Q 371 295 386 310 Q 400 324 413 340 Q 414 343 411 345 Q 409 346 407 348 Q 395 356 383 364 Q 371 372 359 382 Q 352 388 345 394 Q 338 400 331 406 Q 372 403 411 395 L 416 405 Q 408 413 405 423 Q 402 434 402 445 Q 402 453 402 462 Q 403 471 402 479 Q 402 483 398 487 Q 395 490 389 491 Q 387 492 384 492 Q 381 492 379 493 Q 340 494 303 496 Q 266 498 228 496 Q 216 495 204 494 Q 192 493 180 490 Q 157 487 141 472 Q 135 468 131 462 Q 127 456 123 450 Q 121 445 117 440 Q 114 435 113 430 Q 101 440 90 449 Q 78 457 66 466 Q 58 472 52 478 Q 45 484 37 490 Q 31 495 25 500 Q 20 505 14 510 Q 13 512 11 512 Q 7 511 5 509 Q 3 508 0 506 Q 8 491 15 477 Q 22 462 28 447 Q 33 432 37 415 Q 41 399 43 382 Q 44 368 44 353 Q 44 339 44 325 V 211 Q 35 212 25 212 Q 16 212 7 213 V 179 Q 21 180 34 180 Q 47 181 61 180 H 62 Q 62 180 62 179 Q 68 171 74 163 Q 80 155 86 147 Q 87 146 87 144 Q 88 142 90 143 Q 92 144 94 147 Q 96 150 98 152 Q 115 175 133 195 Q 138 200 142 204 Q 147 208 150 214 Q 146 218 141 221 Q 136 225 131 229 Q 130 229 130 231 Q 131 233 130 234 V 320 Q 130 334 130 347 Q 131 361 130 375 L 131 373 Q 132 364 135 355 Q 138 346 140 337 Q 144 316 147 295 Q 150 274 151 252 Q 171 242 153 212 Q 153 193 153 174 Q 152 138 153 103 Q 153 67 150 32 Q 169 36 189 41 Q 208 45 228 48 Q 249 42 270 35 Q 290 28 310 20 Z M 24 12 Q 33 13 42 16 Q 51 19 60 23 Q 84 32 104 49 Q 124 65 138 86 Q 140 89 139 91 Q 134 96 129 98 Q 124 101 118 104 Q 101 114 86 127 Q 78 132 71 138 Q 64 143 57 149 Q 55 152 52 152 Q 49 145 48 137 Q 46 130 45 122 Q 39 103 34 83 Q 45 64 23 45 Q 21 39 19 33 Q 18 27 15 21 Z M 195 406 Q 199 407 203 407 Q 207 407 211 407 Q 240 408 267 408 Q 295 408 324 406 Q 323 406 323 405 L 293 346 Q 283 352 273 357 Q 263 363 253 370 Q 239 379 224 388 Q 210 396 195 406 Z M 147 398 Q 160 402 170 402 Q 173 398 177 394 Q 181 390 183 387 Q 212 355 236 320 Q 242 311 248 302 Q 254 293 260 284 Q 235 291 249 265 Q 244 256 238 247 Q 236 258 233 268 Q 231 279 226 290 Q 221 302 214 312 Q 207 323 199 334 Q 187 349 174 364 Q 161 379 148 394 Q 147 395 147 398 Z M 242 214 Q 262 222 279 231 Q 280 232 281 232 Q 283 233 284 233 Q 289 219 294 205 Q 299 191 303 177 H 242 Q 242 186 242 195 Q 242 204 242 214 Z" fill="black" />
  </g>
  <g class="defect" id="01">
    <path d="M 151 252 Q 171 242 153 212" fill="none" stroke="red" stroke-width="3" />
  </g>
  <g class="defect" id="02">
    <path d="M 34 83 Q 45 64 23 45" fill="none" stroke="red" stroke-width="3" />
  </g>
  <g class="defect" id="03">
    <path d="M 260 284 Q 235 291 249 265" fill="none" stroke="red" stroke-width="3" />
  </g>
</svg>