<svg xmlns="http://www.w3.org/2000/svg" width="512" height="512" viewBox="0 0 512 512">
  <g class="glyph">
    <path d="M 175 5 Q 178 3 180 0 Q 185 1 190 2 Q 195 3 200 4 Q 208 6 215 9 Q 222 11 229 16 Q 236 20 243 26 Q 249 33 255 39 Q 256 40 256 42 Q 256 43 256 44 Q 246 49 237 53 Q 227 58 218 63 Q 237 65 255 63 L 266 51 Q 268 49 270 52 Q 273 59 278 70 Q 284 82 289 88 Q 291 68 293 47 Q 295 25 295 4 Q 314 9 334 12 Q 353 14 373 18 Q 373 22 371 24 Q 368 26 365 29 Q 362 31 360 34 Q 359 37 358 39 Q 358 42 358 44 L 344 113 Q 353 114 362 114 Q 371 114 380 114 Q 383 110 386 106 Q 373 102 392 97 Q 394 98 395 99 Q 396 99 396 101 Q 400 108 403 116 Q 406 123 410 131 Q 414 136 417 142 Q 417 145 414 145 Q 409 145 405 145 Q 400 145 395 145 Q 396 171 394 196 Q 391 221 389 245 Q 386 261 384 275 Q 382 290 379 305 Q 373 332 365 356 Q 374 377 386 396 Q 398 416 410 434 Q 413 437 414 440 Q 416 443 419 446 Q 417 450 415 452 Q 413 454 412 458 Q 408 458 405 458 Q 402 459 399 461 Q 383 475 369 494 Q 368 497 365 500 Q 362 502 358 502 Q 354 502 352 500 Q 350 498 348 495 Q 340 480 333 464 Q 327 447 321 431 Q 307 452 292 472 Q 278 492 263 512 Q 260 511 257 509 Q 254 507 252 505 Q 258 494 262 484 Q 267 474 271 464 Q 276 455 279 446 Q 282 436 286 427 Q 292 412 297 396 Q 302 381 306 365 Q 303 352 301 338 Q 299 325 297 311 Q 296 300 295 291 Q 294 281 294 272 Q 292 264 292 257 Q 291 250 292 242 Q 289 248 287 252 Q 286 257 283 261 Q 282 262 282 263 Q 281 264 282 265 L 289 276 L 276 291 Q 275 293 273 294 Q 271 296 272 298 Q 271 322 271 344 Q 271 367 271 390 Q 272 401 272 413 Q 272 424 272 435 Q 272 442 272 447 Q 272 453 271 460 Q 270 465 268 470 Q 266 476 263 480 Q 258 486 253 490 Q 247 495 241 498 Q 236 501 231 503 Q 225 505 219 504 Q 216 504 214 501 Q 213 499 211 496 Q 211 488 211 479 Q 212 471 210 463 Q 208 462 206 461 Q 204 460 202 459 Q 203 469 202 478 Q 202 488 203 497 Q 189 499 176 501 Q 162 503 149 505 Q 148 483 148 462 Q 149 442 149 420 Q 138 420 128 420 Q 118 420 108 420 Q 109 440 108 458 Q 108 477 109 496 Q 100 497 92 498 Q 84 499 76 500 Q 67 501 59 502 Q 50 503 41 505 Q 42 483 42 463 Q 42 442 43 421 L 0 424 Q 1 414 0 404 Q 0 394 1 385 Q 11 386 22 386 Q 32 386 43 387 Q 43 377 43 367 Q 43 356 42 346 V 353 Q 33 355 25 357 Q 16 358 7 360 Q 8 342 8 325 Q 7 307 8 290 Q 7 249 8 207 Q 8 166 7 124 Q 17 128 27 131 Q 37 133 47 136 V 100 Q 36 100 25 101 Q 14 102 3 103 V 65 Q 14 66 25 67 Q 36 68 47 68 Q 47 52 47 36 Q 47 21 45 6 Q 65 10 84 12 Q 103 14 122 16 Q 122 17 122 18 Q 123 19 122 20 Q 119 24 116 27 Q 113 30 110 34 Q 109 43 109 51 Q 109 60 109 68 Q 111 68 113 68 Q 115 68 117 67 Q 125 60 131 51 Q 131 51 132 51 Q 133 52 133 52 Q 137 58 139 65 Q 141 72 143 79 V 62 Q 156 63 168 64 Q 180 65 193 65 Q 190 57 189 50 Q 188 43 185 35 Q 183 28 180 20 Q 177 13 175 5 Z M 108 387 Q 111 387 112 387 Q 114 387 117 387 L 131 373 Q 133 370 134 374 L 144 397 Q 145 400 146 402 Q 148 404 149 407 Q 150 336 149 265 Q 149 257 148 245 Q 148 234 148 225 L 153 226 Q 153 222 151 216 Q 165 197 148 204 Q 146 197 144 192 Q 142 187 142 186 Q 141 197 142 208 Q 142 218 142 229 V 351 L 108 355 Z M 217 97 Q 223 99 230 101 Q 236 103 243 106 Q 244 106 245 107 Q 246 107 247 108 Q 248 110 246 111 Q 244 112 243 113 Q 234 117 230 124 Q 231 125 233 126 Q 235 127 237 129 Q 250 136 260 147 Q 271 157 280 170 Q 282 151 284 133 Q 286 115 287 97 Q 286 97 282 97 Q 266 97 249 97 Q 233 97 217 97 Z M 109 139 Q 111 139 111 140 Q 116 133 120 126 Q 123 120 127 113 Q 131 116 133 122 Q 139 131 146 140 Q 153 149 159 158 Q 165 143 168 128 Q 171 113 175 97 Q 169 98 163 98 Q 157 98 151 99 Q 151 100 150 100 Q 149 100 149 100 Q 139 100 129 100 Q 120 100 109 100 Q 109 110 109 120 Q 109 129 109 139 Z M 308 209 Q 309 216 311 223 Q 313 230 315 236 Q 318 246 321 255 Q 323 265 326 275 L 331 239 Q 334 215 336 191 Q 338 168 339 144 Q 338 144 337 144 Q 336 145 335 145 Q 332 153 330 161 Q 328 169 324 176 Q 320 185 317 193 Q 313 201 308 209 Z M 213 236 Q 216 236 214 240 L 207 247 H 228 L 238 217 L 235 190 Q 228 196 221 201 Q 214 206 205 210 Q 185 222 162 227 Z M 245 220 Q 248 221 249 223 Q 250 225 252 227 Q 255 232 259 236 Q 262 240 266 244 Q 267 246 268 246 Q 268 244 268 243 Q 269 241 269 240 Q 271 231 273 221 Q 275 212 276 203 Q 268 207 260 211 Q 252 215 245 220 Z M 194 166 Q 204 166 214 165 Q 223 163 233 163 Q 232 154 230 146 Q 227 138 226 129 Q 224 133 221 137 Q 218 141 215 145 Q 207 158 194 166 Z M 215 441 Q 216 441 217 440 Q 218 439 217 438 Q 218 430 218 422 Q 218 414 218 406 H 202 V 441 Z M 202 279 Q 203 287 202 295 Q 202 304 203 312 H 219 V 279 Z M 219 376 V 343 H 202 V 376 Z M 106 308 Q 106 295 105 282 Q 117 269 106 256 H 97 Q 96 269 96 282 Q 96 295 96 308 Z M 105 222 Q 105 209 105 196 Q 106 184 105 171 H 97 Q 96 184 96 196 Q 96 209 96 222 Z M 56 309 Q 54 296 55 283 Q 56 270 54 256 H 47 V 309 Z M 54 222 Q 56 209 55 196 Q 54 184 56 170 Q 53 171 51 171 Q 49 171 47 171 Q 45 177 46 183 Q 47 189 47 195 Q 47 202 46 208 Q 45 215 47 222 Z" fill="black" />
  </g>
  <g class="defect" id="01">
    <path d="M 151 216 Q 165 197 148 204" fill="none" stroke="red" stroke-width="3" />
  </g>
  <g class="defect" id="02">
    <path d="M 386 106 Q 373 102 392 97" fill="none" stroke="red" stroke-width="3" />
  </g>
  <g class="defect" id="03">
    <path d="M 105 282 Q 117 269 106 256" fill="none" stroke="red" stroke-width="3" />
  </g>
</svg>