<svg xmlns="http://www.w3.org/2000/svg" width="512" height="512" viewBox="0 0 512 512">
  <g class="glyph">
    <path d="M 255 9 Q 257 7 259 5 Q 260 3 263 0 Q 274 2 284 4 Q 295 5 305 8 Q 321 11 335 18 Q 349 25 362 35 Q 365 37 367 39 Q 369 41 370 43 Q 372 47 369 49 Q 356 55 345 61 Q 333 67 321 73 H 389 L 401 59 Q 403 56 405 59 Q 410 71 416 81 Q 421 91 426 100 Q 427 103 427 105 Q 425 106 423 106 Q 421 105 418 105 Q 405 105 392 106 Q 379 106 365 105 Q 324 106 283 105 Q 273 106 264 106 Q 254 105 244 106 L 208 107 Q 208 91 208 75 Q 200 74 192 76 Q 184 78 177 81 Q 170 83 164 85 Q 157 86 151 89 Q 152 101 151 114 Q 151 126 152 139 V 160 Q 159 160 167 159 Q 176 159 183 160 L 196 145 Q 199 143 200 146 L 219 185 Q 223 190 221 192 Q 204 192 187 192 Q 170 193 153 192 Q 152 202 152 212 Q 153 221 152 231 V 259 Q 156 253 159 248 Q 163 242 166 237 Q 169 235 170 238 Q 183 258 197 277 Q 212 295 228 312 Q 244 314 228 318 Q 221 322 214 327 Q 207 332 202 339 Q 203 349 202 359 Q 202 369 203 379 Q 202 407 202 434 Q 202 462 202 490 Q 182 493 162 495 Q 143 496 123 498 Q 122 478 123 457 Q 109 456 95 457 Q 95 468 95 479 Q 95 490 93 501 Q 74 503 54 506 Q 34 509 14 512 Q 15 500 14 489 Q 14 477 14 467 Q 15 444 14 423 Q 14 402 14 381 Q 14 355 14 330 Q 14 305 13 279 Q 13 268 11 257 Q 25 260 38 262 Q 50 264 64 266 V 193 Q 33 193 4 194 V 158 Q 19 158 34 159 Q 49 160 64 160 V 89 Q 48 86 32 83 Q 17 80 1 76 Q 1 73 1 71 Q 0 68 0 65 Q 22 60 44 52 Q 66 41 115 25 Q 124 19 133 14 Q 143 9 150 3 Q 154 7 158 11 Q 161 15 165 19 Q 172 28 180 36 Q 187 44 197 52 Q 200 56 204 60 Q 207 63 210 67 Q 212 69 212 72 Q 231 72 249 73 Q 267 73 285 73 Q 282 65 278 56 Q 274 48 271 40 Q 266 32 263 25 Q 259 17 255 9 Z M 203 237 Q 212 237 221 237 Q 231 237 240 238 H 305 Q 309 224 314 210 Q 318 196 321 183 Q 327 153 332 124 L 334 110 Q 344 113 356 117 Q 367 121 379 125 Q 391 129 402 132 Q 412 134 420 136 Q 422 136 423 138 Q 422 141 419 143 Q 416 144 413 147 Q 406 152 401 160 Q 393 175 383 188 Q 372 201 359 213 Q 352 220 345 226 Q 338 232 330 237 Q 346 238 362 238 Q 378 238 394 238 Q 398 234 401 231 Q 404 228 407 224 Q 407 224 408 223 Q 408 223 409 223 L 410 224 L 410 224 Q 415 235 420 245 Q 425 255 430 266 Q 431 267 431 268 Q 432 269 430 270 Q 429 271 428 271 Q 427 270 426 270 Q 408 270 392 271 Q 375 271 358 270 V 351 H 388 L 400 336 Q 402 333 405 336 L 409 346 L 424 375 Q 425 377 426 378 Q 427 380 427 381 Q 426 383 424 383 Q 422 383 420 383 H 358 Q 358 412 357 441 Q 356 470 356 500 Q 332 502 309 505 Q 285 507 261 509 Q 260 491 260 473 Q 261 455 261 436 Q 261 423 261 410 Q 261 397 260 383 Q 235 383 210 385 Q 210 375 209 366 Q 208 357 210 348 Q 222 349 235 349 Q 247 349 260 350 Q 261 331 260 311 Q 260 291 261 271 Q 246 271 232 271 Q 218 271 204 272 Q 203 255 203 237 Z M 234 112 Q 260 122 282 140 Q 287 144 292 149 Q 297 153 301 159 Q 305 164 310 171 Q 314 177 317 184 Q 317 186 316 186 L 315 187 Q 304 195 290 202 Q 280 208 271 214 Q 261 219 252 226 Q 250 227 248 228 Q 246 230 244 230 Q 243 230 243 228 Q 242 227 242 226 Q 240 219 240 211 Q 238 187 234 165 Q 230 142 223 119 Z M 122 423 Q 106 408 122 368 Q 122 341 123 313 Q 115 312 108 312 Q 102 312 95 312 V 423 Z" fill="black" />
  </g>
  <g class="defect" id="01">
    <path d="M 122 423 Q 106 408 122 368" fill="none" stroke="red" stroke-width="3" />
  </g>
  <g class="defect" id="02">
    <path d="M 228 312 Q 244 314 228 318" fill="none" stroke="red" stroke-width="3" />
  </g>
  <g class="defect" id="03">
    <path d="M 44 52 Q 66 41 115 25" fill="none" stroke="red" stroke-width="3" />
  </g>
</svg>