<svg xmlns="http://www.w3.org/2000/svg" width="512" height="512" viewBox="0 0 512 512">
  <g class="glyph">
    <path d="M 349 2 Q 350 0 352 1 Q 354 1 355 2 Q 361 10 369 17 Q 376 24 383 31 Q 392 39 400 46 Q 408 53 416 60 L 397 81 Q 398 97 396 112 Q 395 127 395 143 Q 394 150 393 157 Q 392 164 390 170 Q 386 177 381 183 Q 375 188 369 193 Q 364 196 360 200 Q 355 203 350 206 Q 365 221 380 236 Q 395 250 412 264 Q 414 266 412 269 Q 399 278 391 287 Q 390 302 390 317 Q 391 333 390 348 V 393 Q 378 394 366 396 Q 353 397 342 399 Q 334 400 327 400 Q 320 400 313 401 Q 310 402 307 402 Q 304 402 301 402 Q 301 394 302 387 Q 302 380 302 373 Q 286 371 271 371 Q 255 371 240 371 Q 240 378 240 385 Q 256 372 240 398 Q 218 400 198 401 Q 177 402 156 405 Q 172 407 187 409 Q 202 411 218 411 Q 230 411 242 412 Q 255 412 267 411 Q 276 411 284 411 Q 293 411 301 411 Q 308 410 315 410 Q 321 410 328 409 Q 336 408 345 407 Q 353 407 361 406 Q 374 404 386 402 Q 398 400 410 397 Q 411 401 412 404 Q 413 407 414 411 Q 410 417 407 422 Q 404 428 403 435 Q 402 445 403 455 Q 404 465 403 476 Q 402 481 398 485 Q 394 489 389 490 Q 378 491 366 492 Q 355 492 344 493 Q 327 494 310 494 Q 293 495 276 495 Q 256 495 236 495 Q 215 494 195 492 Q 184 491 174 488 Q 164 485 155 480 Q 139 470 129 455 Q 118 440 112 423 Q 103 436 89 447 Q 80 455 72 461 Q 64 467 55 474 Q 45 483 35 492 Q 24 500 15 509 Q 14 510 13 511 Q 11 512 10 511 Q 7 510 5 509 Q 3 508 0 507 Q 9 490 17 473 Q 26 456 32 438 Q 37 427 40 416 Q 44 404 44 392 Q 45 365 44 338 Q 44 312 45 285 V 217 Q 35 216 25 217 Q 15 218 5 219 V 184 Q 20 184 34 184 Q 48 185 63 185 L 85 152 Q 85 150 86 150 Q 88 149 89 150 Q 98 161 106 170 Q 114 180 123 189 Q 127 195 132 200 Q 137 204 141 210 Q 147 196 154 183 Q 160 171 166 157 Q 171 143 176 129 Q 181 114 185 100 Q 191 82 193 64 Q 182 64 171 64 Q 160 64 150 65 V 30 Q 170 31 190 31 Q 211 31 231 32 H 327 Q 333 25 338 17 Q 343 10 349 2 Z M 20 17 Q 38 21 56 27 Q 73 32 89 43 Q 102 52 114 63 Q 125 73 134 87 Q 137 90 133 94 Q 128 96 124 99 Q 119 101 115 104 Q 101 114 87 125 Q 73 135 60 147 Q 59 149 57 150 Q 55 151 53 150 Q 52 147 51 144 Q 51 141 49 138 Q 47 127 43 115 Q 39 104 36 93 Q 30 76 24 59 Q 28 43 11 26 Z M 186 212 Q 191 213 196 214 Q 202 214 207 215 Q 220 216 233 217 Q 246 219 260 220 V 222 Q 257 227 253 230 Q 250 233 247 237 Q 264 238 280 238 Q 297 238 314 238 Q 319 232 323 226 Q 327 220 332 215 Q 326 218 320 218 Q 302 229 308 219 Q 300 220 294 214 Q 288 209 287 201 Q 286 195 286 188 Q 286 182 286 176 L 252 160 Q 250 159 249 158 Q 248 157 247 156 Q 239 169 228 179 Q 216 189 204 199 Q 200 202 195 205 Q 190 208 186 212 Z M 240 339 Q 255 339 271 339 Q 286 339 301 340 Q 302 322 302 305 Q 302 288 302 270 H 240 Z M 126 386 Q 126 389 128 390 Q 134 394 140 399 Q 146 403 153 404 V 283 Q 153 271 154 259 Q 154 246 153 234 Q 149 237 146 239 Q 142 241 138 244 L 133 235 L 128 241 Q 128 257 128 274 Q 128 292 127 308 Q 127 328 127 348 Q 127 367 126 386 Z M 221 64 Q 238 69 255 72 Q 272 76 290 79 Q 290 80 289 81 Q 289 81 288 82 Q 284 85 281 88 Q 278 91 276 96 Q 273 102 271 108 Q 269 114 267 121 Q 265 126 263 131 Q 261 136 258 141 Q 267 141 276 141 Q 284 142 293 142 Q 295 142 298 142 Q 301 143 304 141 Q 307 137 307 134 Q 308 130 308 126 Q 311 95 311 64 H 276 Q 265 64 254 64 Q 243 65 232 64 Q 227 63 221 64 Z" fill="black" />
  </g>
  <g class="defect" id="01">
    <path d="M 24 59 Q 28 43 11 26" fill="none" stroke="red" stroke-width="3" />
  </g>
  <g class="defect" id="02">
    <path d="M 240 385 Q 256 372 240 398" fill="none" stroke="red" stroke-width="3" />
  </g>
  <g class="defect" id="03">
    <path d="M 320 218 Q 302 229 308 219" fill="none" stroke="red" stroke-width="3" />
  </g>
</svg>