<svg xmlns="http://www.w3.org/2000/svg" width="512" height="512" viewBox="0 0 512 512">
  <g class="glyph">
    <path d="M 206 7 Q 207 6 208 3 Q 209 1 211 0 Q 218 1 226 1 Q 233 2 241 4 Q 258 6 275 12 Q 292 18 306 29 Q 308 30 310 32 Q 313 34 314 36 Q 314 38 313 38 Q 313 39 311 39 Q 299 44 289 50 Q 278 55 266 61 H 321 Q 327 53 332 46 Q 337 38 342 31 Q 343 30 344 30 Q 346 29 347 30 Q 352 37 363 47 Q 373 57 380 62 Q 386 68 393 74 Q 399 80 406 85 Q 409 86 409 90 Q 404 94 398 98 Q 393 103 388 108 V 181 Q 382 181 375 182 Q 369 182 362 183 Q 368 190 373 197 Q 379 203 386 209 Q 392 216 398 221 Q 405 227 411 232 Q 410 235 408 237 Q 406 238 404 240 L 392 250 Q 392 251 392 253 Q 392 255 392 257 V 361 Q 393 371 388 380 Q 384 389 377 396 Q 372 401 366 405 Q 361 408 354 411 Q 368 410 381 407 Q 394 404 407 400 Q 408 403 409 405 Q 410 408 411 411 Q 407 416 403 421 Q 399 426 397 432 Q 395 442 398 452 Q 400 462 400 471 Q 400 475 399 480 Q 397 484 393 487 Q 389 489 385 490 Q 381 491 377 491 Q 348 495 320 496 Q 292 496 264 496 Q 256 496 248 497 Q 240 497 232 496 Q 221 496 210 495 Q 199 494 188 493 Q 175 490 161 487 Q 148 483 136 475 Q 126 468 118 458 Q 110 448 105 438 Q 103 435 101 432 Q 99 429 98 426 Q 94 432 89 438 Q 84 443 78 448 Q 61 464 44 480 Q 27 496 10 512 Q 7 511 5 509 Q 3 507 0 506 Q 7 491 14 476 Q 20 460 25 444 Q 29 432 33 420 Q 36 407 37 393 Q 39 381 39 369 Q 39 358 39 346 V 216 Q 30 216 21 217 Q 12 217 3 218 V 183 Q 16 184 29 185 Q 41 185 55 185 Q 61 177 67 170 Q 73 162 79 154 Q 82 154 82 156 Q 85 160 88 165 Q 92 170 95 174 Q 104 183 112 193 Q 120 203 129 212 Q 130 180 130 148 Q 129 117 130 85 L 128 36 Q 137 38 149 40 Q 160 41 172 43 Q 184 44 195 46 Q 206 47 214 48 Q 218 49 216 51 Q 214 54 212 56 Q 210 58 209 61 Q 215 61 220 60 Q 225 60 231 60 Q 225 44 218 29 Q 215 24 212 18 Q 209 13 206 7 Z M 15 26 Q 20 27 27 29 Q 33 30 39 32 Q 51 36 63 41 Q 75 47 85 53 Q 94 60 103 68 Q 111 75 118 85 Q 119 86 120 88 Q 122 90 122 93 Q 122 95 119 97 Q 117 98 115 100 Q 104 107 93 115 Q 82 123 72 131 Q 66 137 60 142 Q 54 148 48 153 Q 47 152 46 152 Q 46 151 44 151 L 31 103 Q 27 90 22 76 Q 18 62 13 48 Q 12 44 10 41 Q 9 38 7 34 Z M 204 142 Q 231 142 258 142 Q 284 142 311 142 V 91 Q 284 91 257 91 Q 230 91 204 91 Z M 219 199 Q 221 199 221 200 Q 222 202 221 203 Q 220 205 219 207 Q 217 208 216 210 Q 246 209 277 209 Q 307 209 337 209 Q 342 204 346 197 Q 330 179 354 185 L 312 188 Q 311 184 311 181 Q 311 177 311 173 H 204 V 196 Z M 173 416 Q 181 416 188 417 Q 196 418 205 418 Q 236 419 267 418 Q 298 417 329 415 Q 327 412 325 410 Q 323 408 323 404 Q 323 399 323 394 Q 322 388 321 383 Q 320 382 319 382 Q 318 381 317 381 Q 317 386 317 391 Q 317 396 317 401 L 280 405 V 319 Q 276 319 273 318 Q 270 318 266 319 Q 268 342 266 367 Q 266 376 267 385 Q 268 394 266 404 Q 257 404 247 405 Q 238 405 228 406 V 318 H 215 V 375 Q 214 384 214 393 Q 215 402 214 411 Q 209 413 205 413 Q 201 413 195 413 Q 190 414 184 414 Q 179 415 173 416 Z M 112 392 Q 116 394 118 397 Q 120 399 124 401 Q 139 410 158 413 Q 159 393 159 372 Q 160 351 159 330 L 125 388 Q 121 388 119 387 Q 116 386 112 385 Z M 114 250 Q 114 270 114 290 Q 114 309 114 329 V 358 Q 118 343 120 328 Q 142 302 124 297 Q 125 288 126 279 Q 127 270 128 260 Q 129 250 129 240 Q 130 230 130 220 Q 126 224 122 228 Q 118 232 114 236 Q 114 240 114 243 Q 114 246 114 250 Z M 317 287 Q 321 288 325 288 Q 329 288 332 288 V 240 H 318 Q 318 252 318 264 Q 318 275 317 287 Z M 229 288 Q 228 265 229 240 H 215 Q 215 252 214 264 Q 214 276 215 288 Z M 268 287 Q 271 287 274 288 Q 277 288 281 288 Q 280 276 280 264 Q 281 252 280 240 H 268 Q 268 252 267 264 Q 266 275 268 287 Z M 328 360 Q 330 359 331 356 Q 331 354 331 351 Q 332 343 332 335 Q 331 326 332 317 Q 329 318 325 318 Q 321 318 318 318 V 360 Z" fill="black" />
  </g>
  <g class="defect" id="01">
    <path d="M 120 328 Q 142 302 124 297" fill="none" stroke="red" stroke-width="3" />
  </g>
  <g class="defect" id="02">
    <path d="M 346 197 Q 330 179 354 185" fill="none" stroke="red" stroke-width="3" />
  </g>
</svg>