<svg xmlns="http://www.w3.org/2000/svg" width="512" height="512" viewBox="0 0 512 512">
  <g class="glyph">
    <path d="M 225 0 Q 252 6 279 9 Q 306 13 333 16 Q 334 16 335 17 Q 337 18 335 19 Q 334 21 333 22 Q 331 24 330 25 Q 325 29 322 33 Q 319 37 316 41 Q 315 55 316 68 Q 316 82 315 96 H 357 L 370 82 Q 372 79 374 83 L 391 118 Q 392 120 393 123 Q 395 125 394 127 Q 393 129 391 129 Q 388 129 387 129 H 316 Q 316 148 316 165 Q 315 183 316 201 H 378 L 387 187 Q 389 184 392 187 Q 394 192 396 197 Q 399 202 401 207 Q 404 213 407 219 Q 410 225 413 231 Q 413 235 410 235 H 344 V 305 Q 344 308 344 311 Q 344 315 345 318 Q 348 322 354 322 Q 360 322 361 316 L 373 256 L 387 257 L 391 311 Q 391 313 393 313 Q 400 315 407 317 Q 413 318 418 324 Q 421 327 421 332 Q 421 337 420 340 Q 412 363 396 381 Q 387 391 376 394 Q 362 399 347 399 Q 332 400 317 398 Q 307 395 297 390 Q 287 386 281 377 Q 273 366 271 353 Q 269 340 269 327 Q 269 304 269 281 Q 269 258 268 235 Q 265 234 262 235 Q 258 235 255 235 Q 255 256 255 275 Q 255 298 249 318 Q 243 334 231 347 Q 219 359 205 368 Q 192 378 179 388 Q 173 393 167 397 Q 144 402 155 405 Q 175 409 196 410 Q 217 411 237 411 Q 277 412 317 410 Q 357 408 396 399 Q 401 398 404 397 Q 408 396 412 395 Q 414 398 415 400 Q 417 403 418 406 Q 415 410 412 414 Q 409 418 408 423 Q 404 440 407 458 Q 408 463 408 467 Q 409 471 408 476 Q 408 478 407 482 Q 406 485 403 486 Q 395 490 389 491 Q 367 494 345 495 Q 323 495 300 496 Q 278 497 256 497 Q 234 496 212 495 Q 198 494 186 492 Q 173 490 161 485 Q 150 480 141 473 Q 132 465 125 456 Q 120 451 117 445 Q 114 440 111 434 Q 105 438 101 443 Q 96 447 90 452 Q 81 460 71 467 Q 62 475 51 483 L 16 510 L 12 512 Q 9 509 6 507 Q 3 506 0 504 Q 9 488 17 472 Q 26 455 32 438 Q 36 426 39 415 Q 41 403 42 391 Q 42 369 42 347 Q 42 326 42 305 Q 42 283 42 262 Q 42 241 42 219 Q 33 218 23 219 Q 13 220 4 220 V 185 L 58 187 L 85 153 Q 88 150 90 153 Q 94 158 100 167 Q 107 175 114 184 Q 121 193 127 200 Q 133 208 135 209 V 198 L 186 201 H 226 V 129 Q 218 130 211 130 Q 203 130 195 130 Q 188 142 179 151 Q 169 161 160 170 L 134 194 L 123 187 L 134 150 Q 139 129 143 108 Q 146 87 150 65 Q 151 56 152 46 Q 153 36 154 25 Q 172 30 190 34 Q 208 37 226 40 Q 226 19 225 0 Z M 25 21 Q 37 24 50 28 Q 62 32 74 37 Q 92 46 108 59 Q 123 72 134 88 Q 138 91 135 94 Q 123 101 112 109 Q 101 117 89 125 Q 82 131 74 137 Q 66 144 58 150 Q 57 151 55 151 Q 54 150 53 149 Q 51 147 51 143 Q 50 140 49 136 Q 42 109 34 82 Q 26 55 16 27 Z M 126 393 Q 127 393 129 395 Q 144 377 156 355 Q 167 332 173 307 Q 177 289 177 271 Q 178 253 177 235 Q 170 235 162 235 Q 155 235 147 235 Q 143 235 140 238 Q 137 241 134 243 Q 129 248 126 254 Q 125 257 126 261 Q 126 264 126 267 Z M 226 96 V 68 Q 226 64 226 60 Q 226 57 226 52 Q 221 56 220 61 Q 218 66 217 72 Q 215 78 213 84 Q 211 90 209 96 Z" fill="black" />
  </g>
  <g class="defect" id="01">
    <path d="M 167 397 Q 144 402 155 405" fill="none" stroke="red" stroke-width="3" />
  </g>
</svg>