<svg xmlns="http://www.w3.org/2000/svg" width="512" height="512" viewBox="0 0 512 512">
  <g class="glyph">
    <path d="M 341 3 Q 341 2 343 1 Q 344 0 345 1 Q 369 31 399 55 Q 402 58 402 61 Q 401 62 400 62 Q 398 62 397 63 Q 391 64 385 67 Q 380 70 375 74 Q 363 85 349 94 Q 334 103 319 108 Q 323 110 326 112 Q 330 114 332 117 V 120 Q 326 125 320 130 Q 313 134 306 138 Q 312 139 318 139 Q 324 138 330 138 Q 332 138 333 138 Q 340 131 346 123 Q 351 116 357 108 Q 357 106 359 107 Q 360 107 361 108 Q 372 125 386 140 Q 399 155 413 170 Q 415 170 415 173 Q 411 178 406 181 Q 401 184 397 188 Q 396 196 396 203 Q 397 211 397 219 Q 397 229 396 239 Q 396 249 397 260 V 345 Q 397 351 396 358 Q 396 365 393 373 Q 390 380 384 385 Q 379 391 372 396 Q 367 400 362 404 Q 357 407 351 411 L 379 406 Q 387 405 395 404 Q 404 403 413 401 Q 413 400 416 400 Q 417 404 417 407 Q 418 410 419 413 Q 417 416 414 418 Q 411 421 409 425 Q 408 429 408 432 Q 408 435 408 440 Q 408 446 408 453 Q 409 459 409 465 Q 412 475 409 483 Q 406 488 402 490 Q 398 492 393 492 Q 370 495 347 496 Q 325 498 302 499 Q 279 499 256 499 Q 233 499 209 496 Q 196 495 183 493 Q 170 491 157 486 Q 146 481 137 472 Q 128 464 120 454 Q 117 448 114 442 Q 111 435 108 429 Q 105 435 101 439 Q 97 443 93 447 Q 85 454 78 459 Q 71 464 64 470 Q 50 481 37 491 Q 24 502 10 512 L 0 503 Q 5 495 9 487 Q 12 479 17 471 Q 21 463 24 456 Q 27 449 30 441 Q 35 432 38 422 Q 41 412 43 401 Q 44 391 44 381 Q 45 372 45 361 Q 45 345 44 329 Q 44 313 45 297 Q 44 279 44 260 Q 45 241 45 222 Q 36 222 27 222 Q 18 222 9 224 V 188 Q 21 189 33 189 Q 46 189 58 189 Q 64 189 66 188 Q 72 181 78 174 Q 84 167 89 159 Q 90 157 92 157 Q 94 158 95 159 Q 99 163 102 168 Q 105 173 110 178 Q 117 188 125 197 Q 133 206 142 215 Q 124 194 142 200 Q 141 192 142 185 Q 141 168 141 151 Q 141 135 139 117 Q 150 120 161 121 Q 172 123 183 124 Q 193 127 203 127 Q 213 128 222 129 Q 224 129 224 130 Q 225 131 224 132 L 219 140 H 241 Q 238 137 235 133 Q 232 130 230 127 Q 222 119 215 112 Q 208 106 202 100 Q 195 93 190 89 Q 192 86 194 83 Q 196 80 197 77 Q 217 79 238 81 Q 258 83 277 89 Q 281 83 284 76 Q 287 70 290 64 Q 275 64 260 64 Q 245 64 229 64 Q 207 64 185 64 Q 163 64 141 66 Q 127 57 141 48 Q 140 39 140 30 Q 161 33 180 32 Q 200 32 219 33 Q 243 33 266 32 Q 289 32 313 33 Q 320 26 327 18 Q 334 11 341 3 Z M 23 28 Q 40 32 57 38 Q 74 44 88 54 Q 99 61 107 69 Q 116 78 124 88 Q 125 90 127 93 Q 129 95 129 98 Q 128 100 126 101 Q 124 103 122 104 Q 106 115 90 128 Q 75 140 61 155 Q 60 157 58 158 Q 56 160 54 160 Q 49 148 47 137 Q 45 125 41 114 L 29 75 Q 26 64 22 54 Q 18 45 14 34 Z M 182 413 Q 203 414 224 415 Q 246 416 267 415 Q 280 414 293 414 Q 306 414 318 413 Q 315 411 314 408 Q 312 405 311 402 L 310 377 Q 308 374 305 372 Q 303 371 300 370 Q 300 376 300 383 Q 300 390 299 397 Q 297 398 293 398 Q 290 399 288 400 Q 275 400 262 402 Q 249 404 235 405 V 311 H 213 Q 214 325 213 339 Q 213 354 213 367 Q 214 388 213 409 Q 205 409 198 410 Q 190 412 182 413 Z M 124 386 Q 125 388 124 390 Q 124 392 125 393 Q 130 397 134 399 Q 138 401 142 404 Q 141 394 141 384 Q 141 374 141 364 Q 141 329 142 295 Q 142 261 142 226 Q 138 230 133 234 Q 129 239 125 244 Q 125 279 125 315 Q 125 350 124 386 Z M 323 281 Q 323 271 323 261 Q 323 251 323 240 H 300 Q 300 251 300 261 Q 300 271 300 281 Z M 300 210 Q 306 210 312 211 Q 317 211 323 210 Q 323 200 323 191 Q 323 181 323 170 H 300 Q 300 181 300 190 Q 300 200 300 210 Z M 236 211 Q 235 200 235 191 Q 236 181 235 170 H 214 L 213 211 Z M 213 281 Q 219 281 224 282 Q 229 282 235 282 V 241 H 213 Q 214 262 213 281 Z M 300 345 Q 304 345 309 346 Q 313 346 317 345 Q 320 345 321 342 Q 308 340 322 339 V 311 Q 316 311 311 311 Q 306 310 300 311 Q 300 320 300 328 Q 300 337 300 345 Z" fill="black" />
  </g>
  <g class="defect" id="01">
    <path d="M 141 66 Q 127 57 141 48" fill="none" stroke="red" stroke-width="3" />
  </g>
  <g class="defect" id="02">
    <path d="M 142 215 Q 124 194 142 200" fill="none" stroke="red" stroke-width="3" />
  </g>
  <g class="defect" id="03">
    <path d="M 321 342 Q 308 340 322 339" fill="none" stroke="red" stroke-width="3" />
  </g>
</svg>