<svg xmlns="http://www.w3.org/2000/svg" width="512" height="512" viewBox="0 0 512 512">
  <g class="glyph">
    <path d="M 0 29 Q 9 30 18 30 Q 28 31 37 31 Q 72 31 107 31 Q 141 31 176 31 Q 178 28 181 25 Q 184 21 187 18 Q 188 17 190 16 L 207 51 Q 208 54 210 56 Q 212 59 213 63 Q 210 65 207 65 Q 204 64 201 64 Q 191 65 181 65 Q 170 65 160 65 Q 160 79 159 93 Q 159 107 160 119 Q 162 117 164 114 Q 166 110 169 108 Q 171 109 172 110 Q 172 112 174 113 Q 188 134 203 150 L 211 158 Q 214 161 210 164 Q 208 167 204 170 Q 200 173 197 177 V 294 Q 198 304 198 315 Q 197 325 197 335 V 377 Q 197 391 198 404 Q 198 417 197 431 Q 198 434 197 437 Q 196 441 198 443 Q 197 438 198 434 Q 200 430 201 425 Q 202 419 203 413 Q 204 406 205 400 Q 206 390 207 381 Q 209 371 210 362 Q 210 353 211 345 Q 212 337 212 329 Q 211 322 212 315 Q 212 308 212 301 Q 219 303 226 305 Q 232 307 240 308 Q 250 310 260 312 Q 270 314 281 315 V 283 Q 262 283 242 283 Q 222 283 203 285 Q 203 276 204 266 Q 204 257 203 247 Q 212 247 221 248 Q 230 249 240 249 Q 254 249 269 249 Q 284 249 299 249 Q 307 249 315 249 Q 323 249 331 249 H 389 Q 393 245 395 240 Q 398 235 402 232 Q 403 232 403 232 Q 403 232 404 232 Q 413 254 424 276 Q 426 278 424 283 Q 408 283 392 283 Q 376 283 358 283 V 333 H 382 Q 385 330 387 326 Q 390 322 393 318 Q 394 317 396 316 Q 402 327 406 338 Q 411 348 417 358 Q 418 360 419 362 Q 421 364 420 367 H 358 Q 358 381 358 395 Q 358 409 358 424 Q 375 423 392 421 Q 409 420 425 417 Q 428 421 428 428 Q 425 432 423 436 Q 422 441 421 446 Q 420 455 420 465 Q 421 475 422 484 Q 422 487 421 490 Q 421 494 418 496 Q 416 498 412 499 Q 408 500 403 500 Q 380 501 357 501 Q 335 502 312 499 Q 285 496 267 478 Q 260 469 256 459 Q 251 448 248 437 Q 243 444 239 451 Q 235 458 230 464 Q 220 476 210 488 Q 215 519 190 512 Q 185 511 178 508 Q 181 500 183 492 Q 185 484 188 477 Q 174 478 159 480 Q 145 482 130 484 Q 131 463 130 444 H 75 Q 75 454 75 464 Q 75 475 75 485 Q 68 486 62 486 Q 56 487 49 488 Q 38 489 26 490 Q 15 491 3 492 V 290 Q 2 268 3 247 Q 3 225 2 203 Q 3 183 3 164 Q 3 144 2 124 Q 12 127 24 129 Q 35 132 47 134 V 65 Q 23 65 0 67 Z M 356 4 Q 356 3 357 1 Q 357 0 358 1 Q 361 0 362 2 Q 363 3 364 4 Q 377 19 391 34 Q 405 48 420 62 Q 421 63 421 64 Q 421 66 420 67 Q 414 71 410 76 Q 405 81 401 86 V 224 Q 382 225 364 228 Q 345 230 327 231 Q 327 226 327 221 Q 327 216 327 210 Q 317 210 308 211 Q 298 211 288 210 Q 288 215 288 220 Q 287 225 287 230 Q 269 232 251 234 Q 233 235 215 238 Q 214 216 215 194 Q 215 172 214 150 Q 215 128 215 107 Q 215 86 215 64 Q 215 50 215 36 Q 215 22 214 8 L 234 12 Q 247 15 260 17 Q 273 19 285 22 Q 289 22 292 22 Q 295 21 298 24 Q 296 26 294 29 Q 291 31 290 34 H 338 Q 342 26 347 19 Q 351 11 356 4 Z M 130 357 Q 130 351 130 347 Q 130 342 131 336 Q 126 336 122 334 Q 118 331 115 329 Q 110 324 109 317 Q 108 311 107 305 Q 106 292 107 281 Q 107 269 106 257 Q 107 235 107 213 Q 106 191 107 169 H 100 Q 100 193 100 217 Q 100 241 99 265 Q 99 283 93 300 Q 90 308 86 316 Q 82 324 78 333 Q 78 335 77 337 Q 75 340 75 342 Q 75 346 75 349 Q 75 353 75 357 Z M 327 177 Q 327 167 327 157 Q 327 148 327 138 H 287 Q 287 148 288 157 Q 288 167 287 177 Z M 327 104 Q 328 95 328 86 Q 327 77 327 68 H 287 V 104 Z M 75 413 Q 89 413 102 413 Q 116 413 130 413 Q 130 407 130 401 Q 130 395 131 388 H 76 Q 75 395 75 401 Q 75 407 75 413 Z M 264 402 Q 268 406 272 410 Q 276 413 281 415 V 356 Q 280 348 281 339 Q 282 330 281 322 L 274 333 Q 272 345 271 359 Q 270 372 267 385 Q 267 390 266 394 Q 265 398 264 402 Z M 67 311 Q 69 307 69 302 Q 70 298 71 294 L 73 254 V 170 Q 71 169 69 169 Q 66 186 67 204 Q 67 222 67 240 Q 66 252 67 265 Q 67 277 67 290 Z M 99 138 Q 102 139 104 139 Q 106 139 108 139 Q 107 121 108 102 Q 108 84 108 65 H 100 Q 99 84 99 102 Q 100 119 99 138 Z M 135 263 Q 135 267 135 271 Q 135 274 136 277 Q 137 280 141 280 V 247 Q 141 237 140 228 Q 140 220 141 210 Q 141 200 141 189 Q 141 179 141 169 H 135 Q 135 179 136 188 Q 136 197 135 207 Q 135 221 135 235 Q 135 249 135 263 Z" fill="black" />
  </g>
  <g class="defect" id="01">
    <path d="M 210 488 Q 215 519 190 512" fill="none" stroke="red" stroke-width="3" />
  </g>
</svg>