<svg xmlns="http://www.w3.org/2000/svg" width="512" height="512" viewBox="0 0 512 512">
  <g class="glyph">
    <path d="M 39 0 Q 47 2 55 4 Q 63 6 72 7 Q 89 11 105 14 Q 122 17 138 20 Q 140 20 140 22 Q 140 23 140 24 Q 138 27 135 29 Q 133 31 131 33 Q 110 36 127 39 Q 126 42 125 46 Q 123 54 120 63 Q 118 72 115 80 Q 128 80 141 81 Q 170 81 166 80 Q 169 77 172 73 Q 174 70 177 65 Q 178 65 179 64 Q 180 64 182 65 Q 185 74 190 86 Q 195 99 201 110 Q 202 114 199 114 H 104 Q 93 137 74 157 Q 70 162 66 166 Q 63 170 58 175 Q 110 176 161 175 L 175 161 Q 178 158 179 162 Q 182 168 184 173 Q 186 178 189 183 Q 191 187 193 193 Q 195 198 198 203 Q 199 207 195 207 H 148 V 258 Q 148 262 148 267 Q 147 272 148 277 Q 153 277 159 276 Q 164 276 169 277 Q 173 272 176 268 Q 179 265 183 260 Q 185 260 185 261 Q 189 269 194 282 Q 200 295 205 305 Q 206 306 205 308 Q 205 310 203 310 H 148 V 379 Q 161 373 174 366 Q 187 360 200 353 L 208 366 Q 198 380 189 393 Q 185 400 180 407 Q 175 414 171 421 Q 165 432 157 441 Q 150 450 141 458 Q 131 468 120 475 Q 109 483 98 491 Q 88 499 82 508 Q 81 510 80 510 Q 78 511 77 512 Q 63 491 50 470 Q 37 449 22 428 Q 37 422 48 415 Q 52 412 55 407 Q 58 403 58 397 Q 59 375 59 353 Q 58 332 59 310 L 13 312 V 275 Q 24 275 35 276 Q 47 277 58 277 Q 59 260 59 243 Q 58 225 58 208 Q 52 208 46 208 Q 39 208 33 209 V 198 Q 28 205 22 210 Q 16 215 10 221 Q 7 220 5 218 Q 3 217 0 215 Q 1 212 1 208 Q 2 205 3 202 Q 10 175 16 148 Q 22 122 27 94 Q 30 77 33 59 Q 36 41 38 22 Z M 229 424 Q 230 421 231 417 Q 232 414 233 410 Q 237 409 240 409 Q 243 410 247 410 Q 260 410 272 410 Q 284 411 296 411 Q 299 411 302 411 Q 305 410 308 409 Q 310 404 310 400 Q 310 395 310 391 Q 311 347 310 303 Q 310 259 311 215 Q 310 175 311 134 Q 311 126 311 112 Q 311 99 310 85 Q 310 71 310 61 Q 310 50 310 47 Q 310 36 310 25 Q 309 14 308 4 Q 336 10 364 14 Q 392 19 421 22 Q 421 25 419 27 Q 409 36 401 48 Q 401 83 401 117 Q 401 151 401 186 Q 401 218 401 249 Q 401 280 401 311 V 348 Q 401 360 401 372 Q 401 383 401 395 Q 401 403 401 411 Q 401 419 401 427 Q 401 434 399 441 Q 398 448 395 454 Q 390 464 381 472 Q 373 479 363 485 Q 352 492 341 498 Q 329 504 316 507 Q 310 508 304 509 Q 297 510 291 507 Q 285 506 282 500 Q 278 495 277 490 Q 276 480 276 470 Q 275 460 275 449 L 243 433 Q 239 430 236 428 Q 232 427 229 424 Z M 255 62 Q 266 64 279 66 Q 292 67 305 69 Q 306 69 307 71 Q 307 73 306 74 L 292 90 L 291 237 V 381 Q 272 385 252 386 Q 233 388 214 391 Q 215 373 214 356 Q 214 338 214 319 V 287 Q 215 273 214 258 Q 214 244 215 229 Q 214 192 214 156 Q 215 120 214 84 Q 214 76 214 69 Q 214 62 214 54 Z" fill="black" />
  </g>
  <g class="defect" id="01">
    <path d="M 131 33 Q 110 36 127 39" fill="none" stroke="red" stroke-width="3" />
  </g>
  <g class="defect" id="02">
    <path d="M 141 81 Q 170 81 166 80" fill="none" stroke="red" stroke-width="3" />
  </g>
</svg>