<svg xmlns="http://www.w3.org/2000/svg" width="512" height="512" viewBox="0 0 512 512">
  <g class="glyph">
    <path d="M 49 0 Q 58 4 68 7 Q 77 10 87 12 Q 98 15 109 18 Q 121 20 132 23 Q 132 25 132 26 Q 118 29 125 32 Q 122 35 119 37 Q 116 40 115 43 Q 113 46 112 50 Q 120 54 128 59 Q 135 65 142 71 Q 145 74 148 77 Q 151 79 154 82 Q 154 75 154 68 Q 155 61 154 54 Q 170 56 186 56 Q 186 43 185 30 Q 185 17 183 3 Q 204 9 226 13 Q 247 17 269 20 Q 268 21 268 22 Q 268 23 267 25 Q 259 31 252 39 V 57 H 257 L 267 44 Q 269 42 271 44 Q 276 52 279 59 Q 283 66 287 73 V 37 L 285 1 Q 304 5 323 9 Q 342 12 363 14 Q 365 15 368 15 Q 370 15 373 17 Q 374 19 373 20 Q 371 22 370 23 Q 366 26 363 29 Q 359 31 357 34 V 41 Q 357 61 357 82 Q 357 102 357 122 Q 366 122 376 122 Q 385 122 395 123 Q 397 118 400 114 Q 403 110 407 108 Q 413 118 418 128 Q 423 139 429 149 Q 430 151 429 155 Q 428 155 427 155 Q 426 155 425 155 Q 408 155 391 155 Q 374 155 357 155 V 195 Q 359 210 359 225 Q 359 241 361 256 Q 363 245 365 234 Q 366 223 367 213 Q 369 203 369 192 Q 370 182 370 171 Q 379 178 389 182 Q 398 187 409 191 Q 415 195 421 197 Q 426 199 433 202 Q 433 203 433 203 Q 432 204 432 205 Q 429 207 427 210 Q 425 213 424 217 Q 422 219 422 222 Q 421 225 420 227 Q 415 244 411 261 Q 407 277 402 294 Q 396 311 390 328 Q 384 345 377 362 Q 377 363 376 364 Q 375 365 375 366 Q 375 370 376 374 Q 377 378 378 382 Q 380 388 381 394 Q 382 399 386 404 Q 390 398 394 391 Q 397 384 401 377 Q 404 370 407 363 Q 410 356 413 350 Q 417 351 421 353 Q 424 356 429 357 Q 427 365 425 372 Q 423 380 422 388 Q 421 402 418 415 Q 415 428 413 441 Q 418 447 421 453 Q 425 459 428 466 Q 430 471 431 477 Q 431 483 428 488 Q 425 493 419 496 Q 414 500 408 501 Q 399 503 390 506 Q 381 508 371 507 Q 365 506 359 504 Q 354 501 348 497 Q 344 493 341 489 Q 338 484 334 479 Q 330 471 326 463 Q 322 454 319 445 Q 311 453 304 461 Q 297 470 289 477 Q 282 486 274 495 Q 267 503 259 512 Q 253 509 247 503 Q 255 492 263 480 Q 271 469 278 457 Q 281 452 284 447 Q 287 442 290 436 Q 283 442 276 447 Q 269 452 262 458 Q 254 465 245 470 Q 235 475 226 479 Q 217 484 207 486 Q 198 489 188 492 Q 183 493 179 494 Q 174 495 170 499 Q 167 501 166 503 Q 165 505 161 505 Q 159 505 159 503 Q 158 501 158 500 Q 155 484 150 469 Q 146 453 141 438 Q 134 444 128 450 Q 121 455 114 461 Q 106 467 97 472 Q 89 477 79 482 Q 72 484 65 486 Q 58 487 51 490 Q 45 492 40 493 Q 35 495 30 499 Q 28 502 26 505 Q 25 508 22 510 Q 21 511 19 510 Q 18 509 18 508 Q 13 486 9 466 Q 4 445 0 423 Q 12 425 24 423 Q 36 422 49 421 Q 49 414 48 406 Q 47 398 47 391 L 33 404 Q 31 406 30 408 Q 28 410 25 411 Q 23 407 23 404 Q 22 401 22 396 Q 20 373 16 351 Q 12 328 9 305 Q 12 302 16 300 Q 25 309 34 319 Q 42 329 49 340 V 279 Q 39 279 29 280 Q 19 281 10 281 V 245 Q 19 245 29 245 Q 39 245 49 245 V 186 Q 44 186 40 186 Q 36 187 32 187 Q 32 185 32 183 Q 32 181 31 178 Q 28 180 27 182 Q 25 184 22 187 L 13 196 Q 10 195 7 193 Q 4 191 2 190 Q -8 186 5 182 Q 6 178 7 174 L 20 131 Q 28 106 34 79 Q 41 53 46 26 Q 47 20 48 13 Q 48 6 49 0 Z M 114 363 Q 116 362 116 358 L 126 295 Q 133 298 139 301 Q 146 303 153 305 Q 170 306 186 305 Q 203 305 220 305 Q 230 305 240 305 Q 251 305 261 306 L 269 296 Q 270 294 272 292 Q 273 290 276 290 Q 279 300 284 309 Q 289 319 293 329 Q 294 331 294 334 Q 294 335 293 335 Q 291 335 290 335 Q 281 335 271 336 Q 262 337 253 335 Q 252 351 253 366 H 259 L 263 362 Q 265 359 267 357 Q 268 355 271 354 Q 275 359 277 366 Q 279 372 283 378 Q 285 381 286 384 Q 287 387 289 389 Q 289 391 290 392 Q 291 394 290 395 Q 281 396 271 396 Q 262 395 252 396 Q 253 402 253 408 Q 252 414 252 420 Q 262 420 271 419 Q 281 418 291 417 Q 294 415 295 419 Q 298 414 302 409 Q 306 404 307 398 Q 300 366 295 333 L 293 295 Q 291 275 291 256 Q 290 236 289 216 Q 287 218 286 219 Q 284 221 283 223 Q 267 255 283 254 Q 283 269 283 284 Q 275 286 267 287 Q 259 287 251 289 L 225 292 Q 225 288 225 284 Q 224 281 225 276 Q 221 276 218 276 Q 215 276 211 276 Q 211 280 211 284 Q 211 289 211 293 Q 196 295 182 297 Q 168 298 153 301 Q 153 295 153 289 Q 154 284 154 278 H 114 Q 114 299 115 321 Q 115 342 114 363 Z M 153 221 Q 153 206 153 189 Q 152 172 151 161 L 182 165 Q 191 167 201 168 Q 210 169 219 171 Q 220 171 221 171 Q 221 172 222 173 Q 221 175 219 177 Q 217 179 215 182 Q 219 182 223 182 Q 227 181 231 182 Q 242 169 250 155 Q 232 155 215 155 Q 198 155 180 155 Q 172 156 163 156 Q 154 156 146 156 Q 146 148 146 139 Q 146 129 145 121 Q 155 121 165 121 Q 175 121 186 122 Q 186 114 186 105 Q 186 97 186 89 Q 180 89 174 89 Q 169 90 163 90 Q 164 91 166 94 Q 167 96 166 99 Q 164 101 162 103 Q 159 105 157 106 Q 155 108 151 111 Q 147 115 143 119 Q 138 124 134 129 Q 129 134 126 138 Q 127 142 130 147 Q 133 153 136 159 Q 139 165 142 171 Q 145 177 147 182 Q 149 186 146 186 H 114 Q 114 201 114 215 Q 114 230 115 245 H 123 L 133 232 Q 135 229 137 233 Q 140 239 144 247 Q 148 254 153 261 Q 154 251 153 241 Q 153 231 153 221 Z M 361 35 Q 363 33 365 31 Q 367 29 370 30 Q 377 33 384 36 Q 390 39 396 44 Q 406 50 413 59 Q 420 68 426 77 Q 428 80 429 82 Q 429 84 430 87 Q 429 87 429 88 V 90 Q 423 93 418 95 Q 412 98 406 101 Q 401 106 394 110 Q 388 114 382 118 Q 380 119 377 119 Q 374 105 372 92 Q 371 79 368 65 Q 367 58 365 50 Q 363 43 361 35 Z M 115 402 Q 115 404 115 407 Q 114 411 116 414 Q 123 411 130 410 Q 137 410 145 409 Q 148 407 151 407 Q 155 406 158 407 Q 161 407 162 409 Q 163 412 164 414 Q 165 418 161 421 Q 158 423 155 426 Q 153 428 149 431 Q 158 430 167 430 Q 175 430 184 429 Q 185 421 185 413 Q 185 404 185 396 Q 178 396 171 397 Q 164 397 157 398 Q 157 390 157 382 Q 157 374 156 366 Q 163 366 170 366 Q 177 366 185 366 Q 186 359 185 351 Q 184 343 185 335 Q 177 335 170 336 Q 163 337 156 337 L 150 350 Q 146 358 141 365 Q 136 373 131 380 L 117 397 Q 117 398 116 399 Q 115 400 115 402 Z M 52 151 Q 68 153 81 152 Q 94 151 109 153 L 119 139 Q 115 126 109 113 Q 103 100 97 88 Q 88 106 77 122 Q 66 138 52 151 Z M 287 122 Q 287 114 287 105 Q 287 97 287 88 Q 278 87 269 87 Q 260 88 251 88 V 122 Z M 254 155 Q 255 155 256 156 Q 257 157 258 158 Q 271 175 289 190 Q 289 181 289 173 Q 289 164 287 155 Z M 210 211 Q 211 220 211 229 Q 211 237 211 245 Q 214 245 217 246 Q 221 246 225 246 Q 225 237 225 229 Q 225 220 226 211 Q 221 211 218 211 Q 214 211 210 211 Z" fill="black" />
  </g>
  <g class="defect" id="01">
    <path d="M 132 26 Q 118 29 125 32" fill="none" stroke="red" stroke-width="3" />
  </g>
  <g class="defect" id="02">
    <path d="M 283 223 Q 267 255 283 254" fill="none" stroke="red" stroke-width="3" />
  </g>
  <g class="defect" id="03">
    <path d="M 2 190 Q -8 186 5 182" fill="none" stroke="red" stroke-width="3" />
  </g>
</svg>