<svg xmlns="http://www.w3.org/2000/svg" width="512" height="512" viewBox="0 0 512 512">
  <g class="glyph">
    <path d="M 347 11 Q 360 15 372 18 Q 385 21 398 24 Q 400 24 402 25 Q 404 25 406 27 Q 405 30 403 32 Q 398 34 394 38 Q 390 41 386 45 Q 383 50 379 54 Q 376 59 373 63 Q 371 67 369 70 Q 366 73 363 77 Q 348 95 328 108 Q 325 110 324 111 Q 322 112 319 113 Q 335 113 350 113 Q 366 113 381 113 L 392 99 Q 394 96 397 99 L 401 109 Q 405 118 409 127 Q 414 135 418 143 Q 419 144 419 146 Q 419 147 417 147 H 275 Q 260 147 246 147 Q 232 146 218 147 Q 227 153 238 159 Q 248 164 258 170 Q 266 174 273 178 Q 281 182 288 185 Q 291 186 291 189 Q 283 194 277 198 Q 270 203 264 210 Q 257 220 249 229 Q 240 239 231 248 Q 222 256 211 260 Q 200 265 188 269 Q 199 271 210 273 Q 221 274 232 275 Q 230 280 224 285 H 343 Q 346 280 347 274 Q 349 269 352 265 L 344 251 Q 334 236 323 219 Q 312 203 300 187 Q 295 181 292 175 Q 288 169 283 163 Q 284 160 285 158 Q 287 156 288 153 Q 298 155 309 157 Q 319 159 329 162 Q 337 164 345 166 Q 353 169 360 172 Q 378 179 394 188 Q 410 198 424 211 Q 425 212 425 213 Q 425 214 426 215 Q 420 221 414 228 Q 408 234 403 240 Q 397 248 391 255 Q 386 263 380 271 Q 388 282 397 292 Q 405 302 414 312 Q 409 317 404 321 Q 399 325 395 330 Q 394 362 395 393 Q 395 425 394 457 Q 398 454 400 449 Q 402 445 405 442 Q 408 441 408 443 Q 409 445 410 446 Q 412 453 415 460 Q 418 467 422 474 Q 423 478 425 481 Q 427 484 428 488 Q 429 489 428 491 Q 427 492 425 492 H 368 Q 351 493 335 492 Q 318 492 301 493 H 209 Q 190 493 172 493 Q 153 494 135 494 V 457 Q 141 457 147 458 Q 153 458 159 459 Q 160 425 159 391 Q 159 358 159 325 Q 159 314 159 303 Q 159 291 159 280 Q 156 281 153 283 Q 150 285 146 286 Q 149 293 151 300 Q 152 307 153 314 Q 155 320 155 326 Q 156 332 156 339 Q 157 345 158 351 Q 159 357 158 363 Q 157 369 156 375 Q 173 381 152 386 Q 147 394 141 400 Q 135 407 128 413 Q 122 418 117 423 Q 111 427 104 430 Q 97 432 90 428 Q 84 424 83 417 Q 82 411 82 404 Q 82 398 82 391 Q 82 388 83 384 Q 83 380 82 377 Q 79 375 78 374 Q 76 372 73 371 Q 73 377 73 382 Q 73 388 73 394 Q 73 422 73 449 Q 73 477 73 504 Q 55 506 37 508 Q 18 510 0 512 Q 0 489 1 467 Q 1 444 1 421 Q 0 408 1 395 Q 1 382 1 368 Q 1 297 1 227 Q 2 158 2 87 Q 3 69 2 51 Q 1 33 0 15 Q 23 20 45 22 Q 68 25 91 28 Q 90 28 90 29 Q 90 30 89 30 L 77 43 H 104 Q 110 35 115 28 Q 119 21 124 13 Q 125 11 127 12 Q 128 13 129 14 Q 142 28 156 40 Q 170 52 185 65 Q 188 68 185 69 Q 177 74 174 79 Q 167 85 165 95 Q 162 104 158 112 Q 171 113 185 112 Q 198 112 212 113 Q 231 113 249 113 Q 267 113 286 113 Q 289 105 291 97 Q 292 89 294 82 Q 298 61 303 41 Q 307 20 311 0 Z M 97 214 Q 101 217 103 219 Q 106 222 108 225 Q 118 235 125 246 Q 133 257 139 269 Q 142 263 146 258 Q 151 253 153 248 Q 169 223 184 198 Q 198 174 209 146 Q 194 147 179 148 Q 164 148 150 149 Q 150 143 150 138 Q 151 132 150 126 Q 149 131 146 136 Q 144 140 141 145 Q 135 157 129 167 Q 122 178 115 189 Q 107 203 97 214 Z M 169 15 Q 172 11 174 9 Q 176 7 179 4 Q 197 8 213 13 Q 230 19 245 28 Q 261 36 275 49 L 284 59 Q 288 64 285 67 Q 282 70 279 71 Q 276 73 272 76 Q 262 82 252 88 Q 242 94 231 101 Q 228 103 224 106 Q 221 109 218 112 Q 214 114 209 113 Q 208 112 208 109 Q 208 107 207 106 Q 200 82 190 59 Q 180 36 169 15 Z M 91 353 Q 92 349 92 346 Q 93 342 93 339 Q 94 325 93 311 Q 92 298 91 283 Q 89 256 83 229 Q 82 225 80 220 Q 78 215 77 211 Q 79 196 81 183 Q 83 169 84 155 Q 89 114 91 74 Q 87 74 83 74 Q 79 74 75 75 V 92 Q 75 109 74 126 Q 89 156 75 161 Q 73 178 74 197 Q 75 215 75 233 Q 73 263 73 293 Q 73 323 73 353 Z M 230 459 Q 231 412 230 366 Q 230 354 230 341 Q 231 329 230 317 H 221 Q 220 328 220 340 Q 220 352 220 363 Q 220 388 220 411 Q 220 435 220 459 Z M 283 459 Q 282 423 283 387 Q 283 352 283 317 Q 276 317 273 317 V 459 Z M 325 459 Q 328 459 329 459 Q 331 459 334 458 V 371 Q 334 356 334 343 Q 334 330 334 317 H 325 Q 324 334 324 350 Q 325 367 325 384 Q 325 403 324 421 Q 324 440 325 459 Z" fill="black" />
  </g>
  <g class="defect" id="01">
    <path d="M 156 375 Q 173 381 152 386" fill="none" stroke="red" stroke-width="3" />
  </g>
  <g class="defect" id="02">
    <path d="M 74 126 Q 89 156 75 161" fill="none" stroke="red" stroke-width="3" />
  </g>
</svg>