<svg xmlns="http://www.w3.org/2000/svg" width="512" height="512" viewBox="0 0 512 512">
  <g class="glyph">
    <path d="M 321 36 Q 327 28 332 19 Q 337 9 341 0 Q 345 0 346 3 Q 354 13 364 23 Q 373 33 383 43 Q 389 49 395 55 Q 401 61 408 65 Q 409 66 410 67 Q 410 69 411 70 Q 404 74 399 80 Q 394 85 388 91 Q 389 155 389 219 Q 389 283 390 348 Q 390 372 390 395 Q 391 418 392 442 Q 392 451 390 461 Q 388 471 381 478 Q 365 494 345 504 Q 337 507 329 510 Q 321 512 313 511 Q 308 510 304 509 Q 300 507 297 502 Q 293 494 293 485 Q 294 477 291 468 Q 289 467 284 466 Q 280 465 278 464 Q 273 468 268 477 Q 262 486 257 494 Q 256 496 255 495 Q 254 494 253 493 Q 243 479 230 465 Q 217 451 205 438 L 208 430 Q 216 428 227 428 Q 239 428 250 429 Q 260 430 270 432 Q 280 435 286 437 Q 289 438 288 441 L 286 444 L 305 446 Q 310 444 310 437 Q 311 429 311 425 Q 287 424 261 425 Q 236 425 211 425 H 166 Q 173 430 181 436 Q 188 441 196 446 Q 198 447 200 449 Q 185 451 200 453 Q 197 454 194 454 Q 191 454 189 456 Q 182 458 176 463 Q 169 468 162 473 Q 151 479 138 482 Q 126 484 113 487 L 88 492 Q 87 492 85 491 Q 83 490 82 489 Q 82 493 82 496 Q 82 500 82 503 Q 62 506 42 508 Q 23 510 2 512 Q 2 483 2 454 Q 2 425 1 396 Q 2 371 2 346 Q 1 321 2 296 Q 1 233 2 171 Q 2 109 1 45 Q 1 35 0 26 Q 0 16 0 6 Q 12 10 25 12 Q 38 14 51 16 L 93 23 Q 94 23 94 24 Q 95 25 94 26 L 86 36 H 122 Q 134 24 143 9 Q 144 5 147 8 L 204 63 Q 198 69 193 74 Q 188 80 183 86 V 174 L 208 178 V 70 Q 208 55 207 40 Q 206 24 207 9 Q 216 11 225 13 Q 235 15 245 16 Q 257 19 269 20 Q 280 22 292 23 Q 293 23 294 24 Q 295 25 295 25 Q 293 28 290 31 Q 288 34 286 37 Q 295 37 303 37 Q 312 37 321 36 Z M 217 179 Q 221 180 225 181 Q 228 181 231 182 Q 234 182 237 182 Q 238 182 239 182 Q 240 183 239 184 Q 237 187 235 190 Q 232 193 230 196 H 278 L 285 186 Q 287 183 289 187 L 304 221 Q 306 225 302 225 H 287 Q 278 224 269 225 Q 261 225 252 224 Q 258 230 264 237 Q 270 243 277 249 Q 283 254 289 259 Q 296 264 302 268 Q 304 269 303 271 Q 302 272 301 273 Q 296 277 292 281 Q 287 285 284 290 V 394 L 294 384 Q 297 381 298 385 L 311 410 V 372 Q 310 344 310 316 Q 310 288 310 260 Q 310 235 310 211 Q 310 186 311 161 H 280 V 172 Z M 82 394 Q 87 394 92 395 Q 97 395 102 395 Q 103 376 102 357 Q 102 338 102 319 Q 102 297 102 275 Q 102 253 101 230 Q 115 233 129 235 Q 143 237 157 238 Q 158 234 158 231 Q 158 227 159 223 Q 141 224 123 224 Q 106 224 88 224 Q 88 217 88 209 Q 88 202 88 194 Q 105 195 123 195 Q 141 195 158 196 V 176 Q 146 177 135 179 Q 124 180 113 181 Q 112 176 112 171 Q 113 167 112 162 Q 104 163 97 162 Q 89 162 82 162 Q 82 171 81 179 Q 81 187 82 195 Q 82 203 82 210 Q 82 217 82 225 V 258 Q 81 267 81 277 Q 82 286 82 295 Q 82 320 82 344 Q 93 369 82 394 Z M 82 425 Q 82 439 82 453 Q 82 467 82 481 Q 88 475 95 471 Q 106 461 117 449 Q 128 437 138 425 Q 124 425 110 425 Q 96 425 82 425 Z M 166 381 Q 166 386 165 389 Q 165 392 166 396 Q 180 395 194 396 Q 208 396 222 396 Q 222 392 223 389 Q 223 386 222 382 Q 208 382 194 382 Q 180 382 166 381 Z M 222 285 V 272 H 166 V 285 Z M 166 345 Q 166 348 165 351 Q 165 355 166 359 Q 180 358 194 358 Q 208 358 222 358 V 345 Q 208 345 194 345 Q 180 345 166 345 Z M 222 322 V 309 Q 208 309 194 308 Q 180 308 166 308 V 322 Z M 112 134 V 112 Q 97 114 82 112 Q 81 118 81 123 Q 82 129 82 134 Z M 82 85 Q 89 86 97 85 Q 104 85 112 85 V 65 Q 104 65 97 65 Q 89 65 82 65 Z M 280 132 Q 295 132 310 132 Q 310 127 310 122 Q 309 118 310 112 H 280 Z M 280 84 H 310 V 67 Q 302 66 295 66 Q 288 67 280 67 Z M 226 246 Q 229 246 230 245 Q 235 241 239 236 Q 242 230 246 224 Q 241 224 236 224 Q 232 224 226 225 Q 226 230 226 235 Q 226 240 226 246 Z" fill="black" />
  </g>
  <g class="defect" id="01">
    <path d="M 82 344 Q 93 369 82 394" fill="none" stroke="red" stroke-width="3" />
  </g>
  <g class="defect" id="02">
    <path d="M 200 449 Q 185 451 200 453" fill="none" stroke="red" stroke-width="3" />
  </g>
</svg>