<svg xmlns="http://www.w3.org/2000/svg" width="512" height="512" viewBox="0 0 512 512">
  <g class="glyph">
    <path d="M 247 0 Q 270 4 292 7 Q 315 10 337 13 Q 340 13 342 13 Q 344 13 345 16 Q 340 20 335 24 Q 331 29 327 35 V 81 H 351 Q 357 74 361 65 Q 366 57 370 48 L 373 46 Q 375 48 378 52 Q 380 56 382 59 L 409 93 Q 412 96 414 98 Q 416 101 417 104 Q 415 106 412 109 Q 409 112 406 116 Q 403 122 400 127 Q 397 133 393 139 Q 386 148 378 156 Q 370 163 362 171 Q 357 175 353 179 Q 348 182 343 185 Q 340 185 338 184 Q 336 182 333 181 Q 335 175 335 168 Q 336 161 337 155 Q 338 145 339 134 Q 357 142 340 114 Q 337 114 334 114 Q 330 114 326 115 Q 326 124 326 133 Q 327 143 326 152 Q 326 161 326 169 Q 327 177 326 186 V 222 Q 327 222 327 223 Q 328 223 328 223 Q 335 216 339 208 Q 344 200 350 192 Q 351 190 353 190 Q 354 191 355 193 Q 368 208 380 222 Q 392 237 406 250 Q 407 251 408 251 Q 408 252 408 254 Q 405 257 401 259 Q 398 261 395 264 Q 394 267 392 269 Q 390 272 389 274 Q 382 301 371 326 Q 361 352 345 376 Q 347 378 349 379 Q 351 381 353 383 Q 360 388 366 393 Q 372 398 379 402 Q 388 410 399 417 Q 409 423 418 430 Q 417 433 417 436 Q 416 439 415 442 Q 407 443 400 448 Q 393 452 388 458 Q 383 464 380 469 Q 376 474 372 480 Q 369 484 366 489 Q 362 494 360 500 Q 358 503 354 505 Q 351 507 347 507 Q 343 506 340 503 Q 337 501 335 499 Q 324 490 314 481 Q 305 472 296 461 Q 291 457 288 451 Q 285 446 280 440 Q 268 450 254 458 Q 241 466 227 475 Q 213 484 198 493 Q 183 503 169 512 Q 166 509 163 506 Q 161 502 159 500 Q 177 479 196 459 Q 215 439 231 417 Q 244 400 255 383 Q 251 367 247 352 Q 244 336 241 320 Q 240 310 239 301 Q 237 291 237 282 Q 236 275 236 269 Q 236 263 235 257 H 232 Q 231 261 231 265 Q 231 269 231 273 Q 230 302 227 331 Q 224 360 214 387 Q 208 400 201 410 Q 194 421 186 431 Q 176 446 165 459 Q 154 473 144 487 Q 138 493 133 499 Q 129 505 122 511 Q 118 508 115 507 Q 111 505 107 502 Q 117 480 125 457 Q 133 434 140 410 Q 141 406 142 403 Q 143 399 144 395 Q 138 401 131 407 Q 124 414 117 418 Q 111 423 105 426 Q 99 429 93 428 Q 89 426 85 424 Q 82 422 81 418 Q 79 414 79 409 Q 79 404 78 400 Q 78 396 78 392 Q 60 405 79 385 Q 77 382 75 381 Q 73 380 70 379 V 502 Q 56 505 42 506 Q 31 507 21 507 Q 11 508 1 509 Q 2 477 2 444 Q 2 411 2 379 Q 2 350 2 321 Q 2 293 2 265 Q 2 233 2 202 Q 2 170 2 138 Q 2 118 2 98 Q 2 79 2 58 Q 1 49 1 39 Q 1 30 0 20 Q 13 24 27 26 Q 41 28 55 30 Q 62 31 70 32 Q 78 33 86 34 Q 84 38 81 40 Q 79 42 76 45 Q 82 45 88 45 Q 95 45 101 44 Q 102 44 104 40 Q 108 35 111 30 Q 115 25 118 19 Q 119 17 122 17 Q 124 17 125 19 Q 130 25 136 31 Q 142 37 148 43 Q 151 46 154 49 Q 158 52 161 55 Q 181 60 202 63 Q 224 66 244 67 Q 245 68 244 70 Q 244 72 243 73 L 236 81 Q 239 81 243 81 Q 246 81 250 82 V 49 Q 250 37 249 25 Q 248 12 247 0 Z M 96 212 Q 102 219 108 225 Q 113 232 119 239 Q 130 252 138 268 Q 146 283 150 300 Q 152 308 153 315 Q 154 323 155 331 Q 158 308 159 286 Q 160 263 160 240 V 158 Q 160 141 160 125 Q 160 109 158 93 Q 153 109 146 125 Q 139 141 131 157 Q 127 165 123 172 Q 119 180 113 188 Q 105 202 96 212 Z M 70 354 Q 73 354 76 355 Q 80 355 82 354 Q 85 354 86 351 Q 87 349 87 347 Q 88 337 88 328 Q 88 318 88 308 Q 88 294 87 281 Q 86 268 84 254 Q 83 244 80 234 Q 77 224 75 215 Q 75 214 74 212 Q 74 211 74 209 Q 80 175 83 142 Q 87 108 89 73 H 71 Q 70 94 70 113 Q 71 132 70 153 Q 70 169 70 186 Q 71 202 70 218 Z M 232 224 Q 237 224 241 223 Q 246 223 251 223 Q 251 215 251 207 Q 251 200 251 192 Q 251 172 251 153 Q 251 133 251 115 Q 246 114 241 114 Q 237 114 233 114 Q 232 141 232 169 Q 232 196 232 224 Z M 255 255 Q 247 283 266 276 Q 272 287 279 298 Q 282 302 286 307 Q 289 311 293 316 Q 294 310 296 305 Q 298 300 300 295 Q 304 285 307 275 Q 310 266 313 255 Q 298 254 284 255 Q 270 255 255 255 Z" fill="black" />
  </g>
  <g class="defect" id="01">
    <path d="M 339 134 Q 357 142 340 114" fill="none" stroke="red" stroke-width="3" />
  </g>
  <g class="defect" id="02">
    <path d="M 255 255 Q 247 283 266 276" fill="none" stroke="red" stroke-width="3" />
  </g>
  <g class="defect" id="03">
    <path d="M 78 392 Q 60 405 79 385" fill="none" stroke="red" stroke-width="3" />
  </g>
</svg>