<svg xmlns="http://www.w3.org/2000/svg" width="512" height="512" viewBox="0 0 512 512">
  <g class="glyph">
    <path d="M 271 374 Q 276 354 276 333 Q 277 312 277 292 Q 277 280 277 268 Q 277 255 277 243 Q 277 229 277 216 Q 277 203 275 189 Q 294 193 313 196 Q 332 199 351 201 L 352 161 H 268 V 233 Q 268 251 268 271 Q 268 292 268 311 Q 268 331 267 348 Q 267 365 267 377 L 210 385 Q 210 368 210 351 Q 210 334 210 317 V 158 Q 207 160 205 163 Q 204 165 201 168 Q 201 177 201 187 Q 202 196 202 206 Q 201 220 201 234 Q 202 249 202 263 Q 201 272 201 281 Q 202 290 202 299 Q 201 311 201 324 Q 202 337 202 349 Q 197 350 193 350 Q 188 351 184 351 Q 176 352 169 353 Q 161 354 154 354 Q 154 348 154 342 Q 154 336 154 330 H 144 Q 144 350 143 369 Q 143 389 144 409 L 210 392 L 216 403 L 185 436 Q 176 444 167 453 Q 158 462 147 470 Q 140 476 131 480 Q 122 483 113 488 Q 106 490 100 493 Q 94 496 88 501 Q 86 503 84 506 Q 82 508 79 508 H 77 Q 76 506 74 502 Q 73 499 72 497 Q 66 479 59 462 Q 53 445 45 428 Q 49 427 54 427 Q 59 426 63 423 Q 69 422 71 416 Q 73 411 73 404 Q 73 385 74 367 Q 74 349 73 330 Q 71 331 69 331 Q 67 330 64 329 Q 57 335 52 343 Q 47 351 42 358 Q 41 359 40 359 Q 39 358 38 357 L 14 333 L 0 318 Q 5 313 10 307 Q 14 300 15 292 Q 16 284 16 275 Q 15 266 15 258 Q 15 227 16 197 Q 16 168 15 137 Q 29 141 44 144 Q 60 146 74 148 V 110 Q 59 110 42 110 Q 40 92 10 112 V 76 Q 26 77 42 77 Q 57 78 74 78 Q 74 59 74 39 Q 74 19 73 0 Q 80 2 86 3 Q 93 4 99 5 Q 114 7 130 10 Q 145 13 161 15 Q 162 15 163 16 Q 159 21 155 26 Q 150 30 145 35 V 78 H 185 Q 188 75 191 72 Q 194 70 196 67 Q 198 64 200 67 Q 204 77 208 87 Q 212 96 217 106 Q 219 110 214 110 H 144 V 299 Q 147 299 149 299 Q 152 299 154 299 Q 154 288 154 277 Q 154 266 154 255 Q 154 235 154 215 Q 154 195 154 175 Q 154 166 154 157 Q 154 148 154 139 L 173 144 Q 182 146 191 147 Q 201 148 210 148 Q 210 139 209 131 Q 209 122 209 113 Q 226 115 242 117 Q 259 118 271 119 Q 274 105 275 91 Q 276 77 277 62 Q 265 62 251 62 Q 238 63 226 63 Q 221 63 216 63 Q 212 64 207 63 Q 208 54 208 45 Q 207 36 208 26 Q 237 29 265 29 Q 293 29 322 29 Q 340 29 357 30 Q 374 30 391 29 L 402 16 Q 405 14 407 17 Q 411 28 415 38 Q 419 48 425 59 Q 426 63 423 63 H 306 Q 321 66 333 68 Q 344 71 358 73 Q 364 75 358 78 Q 354 81 350 86 Q 347 89 344 93 Q 342 97 338 101 Q 326 117 309 128 H 358 Q 364 121 368 113 Q 373 105 377 98 Q 378 96 379 96 Q 381 96 382 97 Q 376 111 405 127 Q 418 144 430 155 Q 432 158 430 159 Q 424 164 419 169 Q 414 174 410 180 Q 410 205 410 229 Q 410 253 410 278 Q 410 302 410 327 Q 410 351 410 376 Q 395 377 380 379 Q 366 380 351 382 V 291 Q 351 271 351 251 Q 352 232 351 211 Q 349 214 347 216 Q 345 217 343 220 Q 342 221 342 224 Q 342 226 342 227 Q 341 242 341 255 Q 342 269 342 283 Q 328 310 341 336 Q 342 361 336 387 Q 345 388 353 391 Q 362 394 370 398 Q 378 401 385 405 Q 392 410 399 415 Q 407 422 415 429 Q 422 436 427 445 Q 428 446 428 448 Q 429 450 428 451 Q 418 457 410 464 Q 401 472 392 479 Q 385 485 380 491 Q 374 497 368 503 Q 365 506 364 503 Q 358 492 353 480 Q 349 468 343 456 Q 340 449 336 442 Q 333 435 329 428 Q 328 426 327 423 Q 325 420 324 417 Q 317 427 308 436 Q 299 444 289 450 Q 272 461 256 471 Q 240 481 224 491 Q 216 496 208 501 Q 200 506 192 512 Q 188 509 186 505 Q 184 502 181 499 L 220 457 Q 234 441 247 423 Q 260 406 267 385 Z M 73 299 Q 73 292 73 284 Q 73 277 73 270 Q 74 257 74 245 Q 73 232 73 219 Q 74 204 74 188 Q 73 173 74 158 Q 72 160 69 163 Q 67 165 65 168 Q 64 187 65 206 Q 65 225 65 244 Q 64 258 65 271 Q 65 285 65 299 Z" fill="black" />
  </g>
  <g class="defect" id="01">
    <path d="M 342 283 Q 328 310 341 336" fill="none" stroke="red" stroke-width="3" />
  </g>
  <g class="defect" id="02">
    <path d="M 382 97 Q 376 111 405 127" fill="none" stroke="red" stroke-width="3" />
  </g>
  <g class="defect" id="03">
    <path d="M 42 110 Q 40 92 10 112" fill="none" stroke="red" stroke-width="3" />
  </g>
</svg>