<svg xmlns="http://www.w3.org/2000/svg" width="512" height="512" viewBox="0 0 512 512">
  <g class="glyph">
    <path d="M 262 0 Q 277 3 292 5 Q 307 7 322 9 Q 328 10 333 10 Q 338 10 344 11 Q 345 11 345 13 Q 344 14 344 14 Q 341 17 339 19 Q 336 21 335 24 Q 329 33 324 42 Q 319 51 311 59 Q 302 67 293 74 Q 302 73 311 73 Q 319 73 328 73 Q 338 59 346 47 Q 348 46 349 43 Q 350 41 351 40 Q 354 41 356 44 Q 358 46 360 49 Q 367 57 374 64 Q 380 72 388 79 Q 392 85 398 89 Q 403 93 408 98 Q 406 101 404 103 Q 400 106 397 109 Q 405 112 389 116 Q 389 140 389 165 Q 389 190 387 215 Q 386 227 380 235 Q 376 241 371 246 Q 367 250 361 253 Q 372 266 383 277 Q 395 289 406 300 Q 409 303 412 306 Q 416 308 418 312 Q 419 313 419 315 Q 418 317 417 317 Q 413 321 410 324 Q 406 327 402 330 Q 401 339 401 347 Q 402 356 401 364 Q 400 385 399 405 Q 398 426 395 447 Q 395 453 393 459 Q 391 465 388 470 Q 385 475 381 478 Q 378 482 373 485 Q 362 494 348 501 Q 335 508 319 511 Q 313 512 306 511 Q 299 511 294 507 Q 291 504 290 500 Q 289 496 288 493 Q 287 485 286 478 Q 285 470 284 463 Q 273 458 262 453 Q 251 447 239 443 L 241 429 Q 257 429 273 429 Q 288 429 304 430 Q 307 430 309 428 Q 312 427 312 425 Q 313 418 313 411 Q 313 403 314 396 Q 303 396 292 396 Q 281 396 269 396 Q 252 396 234 396 Q 216 396 198 397 V 378 Q 198 373 197 370 Q 197 366 197 362 Q 219 363 240 363 Q 262 364 284 364 Q 287 359 290 356 Q 293 352 296 349 Q 297 346 299 348 Q 303 357 307 366 Q 310 375 315 383 Q 317 362 317 338 V 315 Q 305 314 292 315 Q 280 315 268 315 Q 265 319 262 323 Q 259 327 255 332 Q 253 336 250 340 Q 247 343 244 347 Q 240 346 237 342 Q 234 339 230 336 Q 221 329 212 321 Q 204 313 194 306 Q 193 323 194 340 Q 194 356 193 373 L 163 378 Q 157 378 153 378 Q 148 379 144 379 V 347 H 136 Q 137 365 136 383 Q 136 401 136 419 Q 136 440 136 461 Q 137 481 136 503 Q 117 505 99 506 Q 80 508 62 510 V 346 Q 60 346 58 347 Q 56 347 55 347 Q 55 355 55 363 Q 55 371 56 379 Q 42 381 29 382 Q 16 383 2 384 V 199 Q 2 184 2 170 Q 2 156 2 142 Q 2 121 2 100 Q 2 80 2 59 Q 2 48 1 37 Q 1 26 0 16 Q 17 18 34 21 Q 50 24 67 25 Q 67 26 68 26 Q 68 27 69 27 Q 66 30 64 32 Q 61 34 60 37 Q 75 38 90 38 Q 104 37 120 37 H 148 Q 153 32 156 27 Q 160 21 163 14 Q 164 13 165 12 Q 166 11 168 11 Q 170 12 172 14 Q 173 17 175 19 Q 187 35 202 50 Q 203 50 203 50 Q 203 50 204 49 Q 217 52 231 55 Q 245 58 259 59 Q 260 50 261 41 Q 261 31 261 21 Q 261 16 261 11 Q 261 5 262 0 Z M 273 224 Q 274 239 273 254 Q 273 268 274 282 Q 288 282 302 282 Q 316 283 330 282 Q 334 278 336 274 Q 327 270 341 267 Q 335 269 329 270 Q 322 272 317 269 Q 312 268 309 264 Q 306 260 306 255 Q 305 250 305 244 Q 305 239 305 233 Q 305 230 302 230 Q 289 223 277 216 Q 279 209 278 203 Q 288 203 296 204 Q 305 206 314 205 Q 318 197 318 188 Q 318 180 319 171 Q 310 176 301 181 Q 293 186 284 191 Q 282 177 280 164 Q 277 150 274 136 Q 273 153 273 170 Q 273 186 273 202 Z M 193 295 Q 197 290 200 286 Q 204 281 205 275 Q 205 268 205 261 Q 185 235 205 246 V 145 Q 205 126 205 108 Q 205 90 205 72 Q 201 74 198 76 Q 195 79 193 82 V 233 Q 193 242 194 251 Q 194 261 193 270 Z M 127 314 Q 134 313 140 314 Q 141 304 140 294 Q 140 284 140 273 Q 140 256 140 239 Q 141 222 140 205 Q 137 205 134 205 Q 131 205 127 204 Q 127 214 127 223 Q 127 233 127 243 Q 127 261 127 279 Q 127 297 127 314 Z M 56 205 Q 56 232 56 259 Q 56 287 56 314 Q 59 313 62 314 Q 66 314 69 314 Q 69 287 69 259 Q 69 232 69 206 Q 66 205 62 205 Q 59 205 56 205 Z M 141 173 Q 140 147 140 122 Q 141 96 140 71 H 127 Q 126 96 127 122 Q 127 147 127 173 Z M 69 173 Q 69 147 69 122 Q 69 96 69 71 H 56 V 173 Z M 273 123 Q 275 123 278 122 Q 280 122 283 123 Q 298 127 310 135 Q 313 138 315 140 Q 318 142 320 145 Q 320 135 320 126 Q 319 116 319 105 H 273 Z" fill="black" />
  </g>
  <g class="defect" id="01">
    <path d="M 336 274 Q 327 270 341 267" fill="none" stroke="red" stroke-width="3" />
  </g>
  <g class="defect" id="02">
    <path d="M 397 109 Q 405 112 389 116" fill="none" stroke="red" stroke-width="3" />
  </g>
  <g class="defect" id="03">
    <path d="M 205 261 Q 185 235 205 246" fill="none" stroke="red" stroke-width="3" />
  </g>
</svg>