<svg xmlns="http://www.w3.org/2000/svg" width="512" height="512" viewBox="0 0 512 512">
  <g class="glyph">
    <path d="M 45 0 Q 62 4 78 8 Q 94 12 110 15 Q 115 16 118 16 Q 122 17 126 18 Q 126 20 123 23 Q 120 26 117 29 Q 115 32 112 36 Q 110 41 108 47 Q 106 52 104 58 Q 103 61 102 63 Q 101 66 101 68 Q 105 68 108 69 Q 111 69 116 69 Q 129 54 138 38 Q 139 39 140 40 Q 141 40 143 41 Q 152 51 161 59 Q 169 68 179 77 Q 181 79 183 80 Q 185 82 187 84 Q 186 87 184 88 Q 182 89 180 91 Q 174 96 170 103 Q 166 110 161 116 L 145 132 Q 141 136 138 139 Q 134 143 130 146 H 144 Q 151 137 154 132 Q 158 127 162 120 Q 163 119 164 119 Q 165 118 166 120 Q 172 129 180 140 Q 188 151 193 157 Q 199 140 205 125 Q 211 110 216 94 Q 223 70 229 47 Q 235 24 238 0 Q 243 2 248 3 Q 253 5 259 6 Q 267 9 274 10 Q 282 11 290 13 Q 297 15 306 16 Q 314 17 323 19 Q 324 19 326 21 Q 327 23 325 25 Q 322 27 318 30 Q 315 32 312 36 Q 308 41 305 48 Q 303 54 301 60 H 333 Q 335 60 337 60 Q 339 60 342 59 Q 348 52 353 44 Q 358 36 364 29 Q 367 30 368 31 Q 370 33 372 36 Q 382 48 393 61 Q 417 73 414 84 Q 415 86 417 88 Q 419 90 418 93 Q 414 96 410 98 Q 406 101 403 104 Q 398 109 395 114 Q 392 119 389 125 Q 382 137 375 149 Q 367 160 359 171 Q 368 174 376 176 Q 385 177 394 180 Q 402 183 411 184 Q 419 186 428 187 Q 428 190 428 194 Q 428 197 427 200 Q 424 201 422 203 Q 419 205 417 208 Q 414 213 412 219 Q 410 225 407 231 L 400 261 Q 399 264 395 266 Q 392 267 389 267 Q 382 267 375 264 Q 368 262 360 259 Q 356 265 351 269 Q 345 274 341 280 V 298 Q 352 298 362 299 Q 373 299 383 299 Q 385 299 386 298 Q 387 297 388 296 Q 390 293 393 289 Q 396 286 400 283 Q 401 282 401 283 Q 401 285 402 286 Q 406 296 410 305 Q 414 315 419 325 Q 420 326 421 328 Q 422 330 420 331 Q 418 332 415 332 Q 413 332 409 332 H 341 Q 341 336 342 340 Q 342 344 342 348 Q 343 347 344 346 Q 345 345 347 345 Q 357 351 368 357 Q 378 364 387 371 Q 399 380 408 391 Q 417 402 425 415 Q 428 419 430 423 Q 432 427 432 432 Q 432 433 429 436 Q 417 443 405 451 Q 393 460 381 470 Q 378 471 375 474 Q 372 476 368 477 Q 365 448 357 419 Q 350 390 341 362 Q 342 373 342 383 Q 341 393 342 403 Q 342 415 342 426 Q 342 438 343 450 Q 343 463 337 472 Q 332 479 327 483 Q 321 487 315 492 Q 304 499 293 503 Q 282 508 269 511 Q 264 512 259 511 Q 253 510 249 507 Q 244 503 243 495 Q 243 489 243 482 Q 242 475 242 468 Q 237 464 231 461 Q 225 458 220 453 Q 218 452 217 453 Q 215 454 213 456 Q 202 464 192 473 Q 182 482 171 492 Q 168 489 165 487 Q 162 486 159 483 Q 166 471 172 458 Q 177 445 183 433 Q 174 440 165 447 Q 157 454 148 461 Q 129 475 104 481 Q 91 486 78 489 Q 65 492 52 494 Q 47 495 43 496 Q 38 497 34 499 Q 31 501 29 505 Q 26 508 24 511 Q 22 511 20 511 Q 16 491 13 470 Q 10 449 4 429 Q 17 429 30 428 Q 42 428 54 427 Q 74 425 93 424 Q 112 423 131 421 L 182 416 L 185 425 Q 187 422 190 413 Q 194 404 195 400 Q 201 383 205 366 Q 208 359 209 353 Q 211 347 212 340 Q 226 346 239 351 Q 251 356 265 360 V 332 Q 248 332 231 332 Q 214 332 196 333 Q 196 324 196 315 Q 196 306 196 296 Q 214 297 230 298 Q 247 299 265 298 Q 265 295 265 291 Q 265 287 265 283 Q 264 274 264 264 Q 263 254 261 243 Q 244 251 226 259 Q 208 266 190 274 V 326 Q 191 333 191 341 Q 190 349 190 356 Q 189 366 189 376 Q 189 387 189 396 Q 175 399 161 400 Q 147 401 133 402 Q 133 396 134 391 Q 134 386 134 380 H 78 Q 77 386 78 392 Q 78 399 78 405 Q 63 407 48 409 Q 34 411 20 412 Q 19 401 19 390 Q 20 379 20 367 V 194 Q 15 198 11 204 Q 9 203 6 201 Q 3 200 0 198 Q 5 181 10 162 Q 15 144 20 125 Q 23 111 26 98 Q 30 84 32 70 Q 37 53 40 35 Q 42 17 45 0 Z M 190 253 Q 194 250 197 248 Q 200 246 203 243 Q 213 235 222 227 Q 231 219 240 211 Q 247 203 255 195 Q 262 187 270 178 Q 264 169 259 159 Q 254 150 250 141 Q 241 150 230 159 Q 219 168 209 177 Q 209 179 210 181 Q 211 182 211 184 Q 207 189 201 192 Q 195 196 190 200 Z M 268 123 Q 275 129 282 133 Q 289 137 296 142 Q 304 130 311 118 Q 317 105 324 92 H 287 Q 279 109 268 123 Z M 265 241 Q 273 243 285 245 Q 297 247 311 250 Q 324 252 336 253 Q 348 255 354 255 Q 347 251 339 247 Q 331 243 324 238 Q 319 234 312 230 Q 306 225 303 221 Q 295 226 288 230 Q 280 233 272 237 Z M 80 138 Q 83 139 81 142 L 77 146 H 97 Q 99 135 101 124 Q 104 112 106 101 Q 102 101 98 101 Q 93 101 89 101 Q 84 111 80 119 Q 75 127 68 136 Z M 137 348 Q 138 339 138 330 Q 137 321 138 312 V 276 H 126 V 348 Z M 137 245 Q 138 227 138 211 Q 137 194 138 176 H 126 Q 126 194 126 211 Q 126 227 126 245 Z M 77 348 Q 81 348 83 348 Q 86 348 89 347 Q 102 344 88 312 Q 88 294 88 276 Q 86 276 83 276 Q 80 276 77 276 Q 78 285 78 294 Q 77 303 78 311 Q 78 321 78 330 Q 77 339 77 348 Z M 76 176 Q 77 194 77 210 Q 77 227 77 244 Q 80 244 83 244 Q 86 245 88 245 Q 89 227 88 211 Q 88 194 88 176 Z M 233 437 Q 240 437 246 438 Q 252 439 259 438 Q 261 438 261 434 Q 264 422 264 411 Q 265 399 265 388 Q 262 389 261 391 Q 260 393 259 394 Q 254 406 247 416 Q 240 427 233 437 Z" fill="black" />
  </g>
  <g class="defect" id="01">
    <path d="M 393 61 Q 417 73 414 84" fill="none" stroke="red" stroke-width="3" />
  </g>
  <g class="defect" id="02">
    <path d="M 89 347 Q 102 344 88 312" fill="none" stroke="red" stroke-width="3" />
  </g>
</svg>