<svg xmlns="http://www.w3.org/2000/svg" width="512" height="512" viewBox="0 0 512 512">
  <g class="glyph">
    <path d="M 118 55 V 197 Q 118 278 109 328 Q 101 378 77 417 Q 53 456 6 494 L 0 487 Q 36 446 52 415 Q 67 383 72 336 Q 78 289 78 195 V 74 Q 78 46 76 17 L 121 39 H 415 L 449 0 L 485 42 Q 490 48 490 52 Q 490 55 481 55 Z M 294 119 Q 289 127 289 132 Q 284 225 274 270 Q 265 315 244 354 Q 208 393 169 433 Q 116 472 51 493 L 45 484 Q 134 444 180 387 Q 227 331 242 255 Q 254 190 254 96 Q 254 82 254 67 L 317 87 Q 322 88 322 92 Q 322 96 317 98 Q 312 100 307 104 Q 307 111 307 120 Q 317 192 327 251 Q 347 323 409 380 Q 470 438 512 445 V 453 Q 508 453 504 453 Q 473 453 459 480 Q 457 483 455 483 Q 445 483 390 425 Q 336 368 314 291 Q 294 222 294 137 Z" fill="black" />
  </g>
  <g class="defect" id="01">
    <path d="M 244 354 Q 208 393 169 433" fill="none" stroke="red" stroke-width="3" />
  </g>
  <g class="defect" id="02">
    <path d="M 307 120 Q 317 192 327 251" fill="none" stroke="red" stroke-width="3" />
  </g>
</svg>