<svg xmlns="http://www.w3.org/2000/svg" width="512" height="512" viewBox="0 0 512 512">
  <g class="glyph">
    <path d="M 181 41 H 110 Q 87 41 72 46 L 52 22 Q 68 25 98 25 H 365 L 385 0 L 428 30 Q 434 35 434 38 Q 434 42 425 45 L 403 51 L 354 174 H 445 L 466 147 L 506 184 Q 512 189 512 192 Q 512 195 507 198 L 488 210 Q 481 258 464 339 Q 447 420 435 438 Q 423 456 398 470 Q 373 484 365 484 Q 358 484 357 475 Q 370 438 335 441 Q 316 430 288 422 L 290 414 Q 347 425 366 425 Q 385 425 393 419 Q 419 414 407 397 Q 413 381 426 319 Q 438 257 447 189 H 353 L 338 204 Q 335 207 332 207 Q 348 207 326 204 L 301 177 Q 313 171 319 164 Q 325 157 330 142 L 365 41 H 189 L 231 58 Q 238 60 238 63 Q 238 67 232 72 Q 223 79 219 116 Q 206 243 185 301 Q 165 358 118 401 Q 71 445 5 479 L 0 472 Q 101 403 140 317 Q 179 230 181 41 Z" fill="black" />
  </g>
  <g class="defect" id="01">
    <path d="M 357 475 Q 370 438 335 441" fill="none" stroke="red" stroke-width="3" />
  </g>
  <g class="defect" id="02">
    <path d="M 393 419 Q 419 414 407 397" fill="none" stroke="red" stroke-width="3" />
  </g>
  <g class="defect" id="03">
    <path d="M 332 207 Q 348 207 326 204" fill="none" stroke="red" stroke-width="3" />
  </g>
</svg>