<svg xmlns="http://www.w3.org/2000/svg" width="512" height="512" viewBox="0 0 512 512">
  <g class="glyph">
    <path d="M 337 86 H 298 Q 252 174 133 228 L 130 220 Q 220 165 260 86 H 225 Q 204 86 188 92 L 169 68 Q 187 71 213 71 H 267 Q 281 38 287 0 L 334 16 Q 338 18 338 22 Q 338 27 330 32 Q 322 36 318 45 Q 313 54 306 71 H 436 L 462 40 L 493 77 Q 496 82 496 84 Q 496 86 489 86 H 350 Q 379 123 423 146 Q 467 170 512 173 L 511 183 Q 480 190 476 207 Q 475 212 469 212 Q 456 212 412 178 Q 367 144 337 86 Z M 82 198 Q 54 240 5 291 L 0 284 Q 86 171 131 1 L 176 22 Q 184 25 184 29 Q 184 33 175 37 Q 164 43 147 81 Q 130 119 108 157 L 125 163 Q 129 165 129 168 Q 129 171 125 175 L 118 183 V 380 Q 132 428 119 454 Q 119 480 119 482 Q 119 492 103 501 Q 87 509 83 509 Q 78 509 78 496 Q 82 395 82 368 Z M 273 375 Q 293 382 301 390 Q 308 399 308 414 Q 308 429 291 429 Q 281 429 276 412 Q 271 395 260 383 Q 223 406 176 425 L 171 417 Q 271 363 335 277 Q 262 331 147 361 L 146 353 Q 216 326 275 288 Q 334 249 364 211 H 266 Q 242 231 241 231 Q 262 238 271 246 Q 280 254 280 270 Q 280 286 262 286 Q 252 286 247 268 Q 242 251 230 239 Q 203 259 169 275 L 164 268 Q 239 216 293 133 L 329 151 Q 336 154 336 159 Q 336 165 326 166 Q 316 167 306 176 Q 297 185 285 195 H 366 L 389 174 L 424 201 Q 430 206 430 210 Q 430 214 420 214 Q 410 215 389 233 Q 359 260 338 275 L 373 294 Q 379 298 379 302 Q 379 306 372 306 Q 366 307 360 311 Q 354 315 341 326 H 423 L 442 304 L 476 328 Q 483 334 483 338 Q 483 342 475 345 Q 467 348 462 352 Q 456 357 446 369 Q 401 421 319 459 Q 219 496 140 508 L 139 497 Q 223 481 301 437 Q 379 394 420 341 H 321 Q 294 362 273 375 Z" fill="black" />
  </g>
  <g class="defect" id="01">
    <path d="M 118 380 Q 132 428 119 454" fill="none" stroke="red" stroke-width="3" />
  </g>
  <g class="defect" id="02">
    <path d="M 319 459 Q 219 496 140 508" fill="none" stroke="red" stroke-width="3" />
  </g>
</svg>