<svg xmlns="http://www.w3.org/2000/svg" width="512" height="512" viewBox="0 0 512 512">
  <g class="glyph">
    <path d="M 74 199 Q 47 243 8 291 L 0 285 Q 88 129 121 0 L 163 25 Q 170 29 170 33 Q 170 36 163 38 Q 153 40 130 89 Q 107 138 94 162 L 119 173 Q 125 175 125 179 Q 125 184 119 186 L 109 193 V 380 Q 109 429 110 455 Q 111 481 111 483 Q 111 493 95 501 Q 79 510 74 510 Q 69 510 69 497 L 72 436 Q 74 398 74 367 Z M 229 95 H 206 Q 187 95 173 101 L 156 79 Q 173 82 196 82 H 229 L 227 5 L 272 24 Q 279 27 279 29 Q 279 32 273 35 L 263 42 V 82 H 294 L 316 57 L 345 88 Q 347 92 347 93 Q 347 95 341 95 H 263 V 148 H 361 V 11 L 408 36 Q 414 39 414 41 Q 414 45 409 47 L 397 53 Q 393 89 393 148 H 447 L 471 120 L 502 150 Q 506 154 506 158 Q 506 162 498 162 H 393 Q 394 296 405 350 Q 432 290 446 212 L 483 230 Q 491 235 491 239 Q 491 242 483 245 Q 476 248 471 266 Q 447 342 416 390 Q 423 408 434 425 Q 444 442 448 445 Q 452 448 456 448 Q 460 448 462 440 L 485 357 L 496 358 Q 488 418 488 443 Q 488 468 492 479 Q 513 490 495 495 Q 495 507 485 507 Q 474 507 444 483 Q 415 460 397 419 Q 352 474 279 512 L 275 504 Q 343 460 385 389 Q 362 314 361 162 H 175 Q 154 162 142 167 L 125 145 Q 142 148 163 148 H 229 Z M 413 64 Q 437 72 451 82 Q 465 92 465 101 Q 465 131 447 131 Q 440 131 436 117 Q 432 102 427 93 Q 422 83 410 71 Z M 230 222 H 188 Q 166 222 153 228 L 134 205 Q 154 208 178 208 H 230 Q 230 188 229 163 L 267 180 Q 260 182 273 185 Q 273 188 269 191 L 260 194 V 208 H 296 L 316 184 L 341 211 Q 345 215 345 218 Q 345 222 337 222 H 260 V 257 H 287 L 303 240 L 331 258 Q 337 261 337 265 Q 337 268 331 271 L 322 276 V 313 L 323 361 Q 323 369 320 372 Q 316 375 308 379 Q 300 383 296 383 Q 293 383 293 371 V 368 H 260 V 419 H 295 L 318 392 L 344 423 Q 348 428 348 430 Q 348 432 340 432 H 260 L 261 477 Q 261 483 259 486 Q 257 489 247 493 Q 237 497 232 497 Q 228 497 228 487 V 483 Q 230 454 230 432 H 178 Q 155 432 142 438 L 124 417 Q 143 419 167 419 H 230 V 368 H 192 Q 192 379 181 385 Q 170 391 166 391 Q 161 391 161 381 L 162 332 V 283 Q 162 259 161 241 L 190 257 H 230 Z M 192 305 H 230 V 271 H 192 Z M 260 305 H 292 V 271 H 260 Z M 230 319 H 192 V 353 H 230 Z M 293 319 H 260 V 353 H 293 Z" fill="black" />
  </g>
  <g class="defect" id="01">
    <path d="M 267 180 Q 260 182 273 185" fill="none" stroke="red" stroke-width="3" />
  </g>
  <g class="defect" id="02">
    <path d="M 492 479 Q 513 490 495 495" fill="none" stroke="red" stroke-width="3" />
  </g>
</svg>