<svg xmlns="http://www.w3.org/2000/svg" width="512" height="512" viewBox="0 0 512 512">
  <g class="glyph">
    <path d="M 204 26 H 442 L 463 0 L 499 34 Q 505 38 505 42 Q 505 47 493 48 Q 482 49 468 59 Q 453 69 435 85 L 426 80 L 444 42 H 203 Q 199 74 185 86 Q 171 97 161 97 Q 150 97 145 92 Q 154 87 140 78 Q 140 69 156 60 Q 171 51 180 36 Q 189 21 194 0 L 204 1 Q 204 7 204 14 Q 204 20 204 26 Z M 25 19 Q 58 37 82 56 Q 106 76 106 97 Q 106 111 97 124 Q 88 136 77 136 Q 61 136 56 107 Q 47 52 18 27 Z M 244 97 H 390 L 405 74 L 443 98 Q 450 102 450 105 Q 450 108 444 112 L 431 120 V 203 Q 431 223 432 239 L 435 265 Q 435 275 419 284 Q 403 293 399 293 Q 395 293 395 284 V 265 H 241 V 274 Q 241 283 238 287 Q 235 291 224 296 Q 213 301 208 301 Q 204 301 204 291 L 205 261 Q 205 244 205 207 V 124 Q 205 100 204 72 Z M 241 173 H 395 V 113 H 241 Z M 395 189 H 241 V 248 H 395 Z M 157 113 99 302 Q 86 346 86 371 Q 86 397 90 418 Q 94 440 94 451 Q 94 463 89 469 Q 84 475 70 475 Q 55 475 46 467 Q 37 459 37 448 Q 37 438 38 431 Q 49 394 49 374 Q 49 354 37 343 Q 26 331 0 323 L 2 312 Q 19 315 33 315 Q 46 315 55 308 Q 64 301 72 284 L 148 109 Z M 285 268 Q 308 296 334 287 Q 346 296 346 307 Q 346 319 341 326 Q 336 333 326 333 Q 315 333 308 314 Q 299 286 281 276 Z M 505 344 Q 508 348 508 351 Q 508 354 501 354 H 186 Q 162 354 148 359 L 127 336 Q 149 338 174 338 H 434 L 467 298 Z M 298 398 Q 304 402 304 406 Q 304 410 295 410 Q 280 412 256 428 Q 181 482 121 512 L 117 503 Q 191 451 261 370 Z M 352 376 Q 400 397 428 414 Q 455 431 465 445 Q 476 459 476 473 Q 476 487 471 494 Q 467 501 459 501 Q 451 501 445 495 Q 439 489 432 475 Q 425 439 347 383 Z" fill="black" />
  </g>
  <g class="defect" id="01">
    <path d="M 432 475 Q 425 439 347 383" fill="none" stroke="red" stroke-width="3" />
  </g>
  <g class="defect" id="02">
    <path d="M 145 92 Q 154 87 140 78" fill="none" stroke="red" stroke-width="3" />
  </g>
  <g class="defect" id="03">
    <path d="M 285 268 Q 308 296 334 287" fill="none" stroke="red" stroke-width="3" />
  </g>
</svg>