<svg xmlns="http://www.w3.org/2000/svg" width="512" height="512" viewBox="0 0 512 512">
  <g class="glyph">
    <path d="M 270 84 H 377 L 412 50 L 451 89 Q 454 93 454 97 Q 454 101 446 101 H 269 Q 262 181 247 238 H 398 L 430 208 L 464 245 Q 468 252 468 255 Q 468 257 461 257 H 241 Q 215 346 161 403 Q 106 461 3 512 L 0 503 Q 166 394 202 257 H 101 L 91 270 Q 89 273 85 273 Q 82 273 76 269 L 45 243 Q 60 232 66 209 L 74 172 Q 79 144 82 121 L 125 141 Q 128 143 128 145 Q 128 148 124 151 L 113 159 L 95 238 H 207 Q 223 166 228 101 H 83 Q 61 101 47 106 L 28 81 Q 48 84 72 84 H 229 Q 231 50 231 0 L 285 20 Q 291 22 291 26 Q 291 29 284 34 Q 277 38 275 47 Q 273 57 270 84 Z M 288 431 Q 288 444 298 447 Q 307 449 360 449 Q 412 449 430 443 Q 448 437 453 346 L 465 345 Q 466 382 468 398 Q 470 414 475 421 Q 479 427 489 433 Q 498 439 498 442 Q 498 446 488 460 Q 477 474 457 478 Q 437 483 393 485 Q 350 487 311 487 Q 255 487 259 475 Q 247 462 247 442 V 319 Q 247 286 245 260 L 297 280 Q 301 282 301 283 Q 301 286 298 289 L 288 298 Z" fill="black" />
  </g>
  <g class="defect" id="01">
    <path d="M 311 487 Q 255 487 259 475" fill="none" stroke="red" stroke-width="3" />
  </g>
</svg>