<svg xmlns="http://www.w3.org/2000/svg" width="512" height="512" viewBox="0 0 512 512">
  <g class="glyph">
    <path d="M 325 238 430 224 459 184 501 223 Q 505 228 505 230 Q 505 232 498 234 L 325 256 V 449 Q 325 466 331 470 Q 338 473 370 473 Q 437 473 451 463 Q 465 452 476 362 H 486 Q 485 375 485 386 Q 485 412 488 429 Q 492 453 500 458 Q 507 462 507 466 Q 507 473 481 492 Q 454 512 380 512 Q 358 512 332 510 Q 306 507 295 499 Q 284 490 284 469 V 261 L 209 270 Q 183 274 170 280 L 147 257 Q 156 257 168 257 Q 180 257 194 255 L 284 244 V 89 Q 235 100 180 109 L 177 100 Q 316 66 429 0 L 456 31 Q 477 40 464 43 Q 464 46 456 46 H 450 Q 439 46 412 55 Q 386 63 325 79 Z M 103 367 H 44 V 408 Q 44 422 27 429 Q 11 437 7 437 Q 2 437 1 433 Q 0 430 0 427 Q 0 423 1 417 Q 5 370 5 328 V 119 Q 5 81 3 49 L 48 77 H 102 L 120 52 L 156 81 Q 160 83 160 86 Q 160 89 156 91 L 142 100 V 324 Q 142 343 143 359 L 145 387 Q 145 396 129 405 Q 112 414 108 414 Q 103 414 103 407 Z M 44 351 H 103 V 93 H 44 Z" fill="black" />
  </g>
  <g class="defect" id="01">
    <path d="M 456 31 Q 477 40 464 43" fill="none" stroke="red" stroke-width="3" />
  </g>
</svg>