<svg xmlns="http://www.w3.org/2000/svg" width="512" height="512" viewBox="0 0 512 512">
  <g class="glyph">
    <path d="M 222 38 H 432 L 464 0 L 500 44 Q 504 50 504 52 Q 504 54 496 54 H 208 V 478 H 439 L 469 442 L 504 484 Q 509 488 509 491 Q 509 494 500 494 H 210 L 192 508 Q 188 512 184 512 Q 162 501 173 505 L 150 479 Q 160 472 166 465 Q 171 457 171 442 V 100 Q 171 29 169 5 Z M 48 68 H 90 L 108 46 L 145 76 Q 149 80 149 81 Q 149 84 145 86 L 130 95 V 279 Q 130 296 132 313 L 134 342 Q 134 353 118 362 Q 103 371 99 371 Q 109 371 95 362 V 330 H 43 V 374 Q 43 385 38 389 Q 33 394 22 398 Q 11 403 7 403 Q 2 403 1 399 Q 0 397 0 392 Q 0 388 1 383 Q 5 335 5 293 V 112 Q 5 74 3 42 Z M 95 313 V 84 H 43 V 313 Z M 282 166 V 301 Q 282 342 283 357 Q 284 372 284 373 Q 284 380 269 388 Q 253 395 249 395 Q 244 395 244 383 Q 244 380 244 360 Q 245 341 245 300 V 174 Q 245 157 244 121 L 285 150 H 331 Q 331 93 329 63 L 376 81 Q 383 84 383 87 Q 383 91 378 94 L 368 102 V 150 H 416 L 436 125 L 468 156 Q 472 161 472 163 Q 472 166 468 170 L 458 177 V 336 Q 438 360 453 370 Q 448 380 432 390 Q 417 401 412 401 Q 408 401 407 391 Q 405 363 374 356 L 375 347 Q 384 347 391 347 Q 405 347 411 346 Q 420 343 420 326 V 166 H 368 V 372 Q 368 414 369 429 Q 369 443 369 444 Q 369 453 354 460 Q 339 467 334 467 Q 329 467 329 455 L 330 427 Q 331 409 331 371 V 166 Z" fill="black" />
  </g>
  <g class="defect" id="01">
    <path d="M 99 371 Q 109 371 95 362" fill="none" stroke="red" stroke-width="3" />
  </g>
  <g class="defect" id="02">
    <path d="M 184 512 Q 162 501 173 505" fill="none" stroke="red" stroke-width="3" />
  </g>
  <g class="defect" id="03">
    <path d="M 458 336 Q 438 360 453 370" fill="none" stroke="red" stroke-width="3" />
  </g>
</svg>