<svg xmlns="http://www.w3.org/2000/svg" width="512" height="512" viewBox="0 0 512 512">
  <g class="glyph">
    <path d="M 204 105 H 285 Q 279 72 277 63 Q 291 55 270 48 Q 264 40 255 36 Q 246 32 233 30 Q 221 28 221 25 Q 221 23 226 18 L 244 0 Q 276 15 288 37 Q 300 60 309 105 H 393 L 413 80 L 450 108 Q 456 112 456 114 Q 456 117 451 120 L 437 130 V 434 Q 437 466 431 479 Q 425 491 408 501 Q 391 511 386 511 Q 381 511 380 504 Q 379 490 367 482 Q 355 473 318 465 L 319 456 Q 346 458 366 458 Q 386 458 393 453 Q 400 449 400 435 V 324 H 396 Q 389 324 383 325 Q 375 328 370 335 Q 366 342 363 342 Q 360 342 358 340 Q 355 337 344 317 Q 333 297 321 263 Q 310 229 300 185 Q 281 240 259 276 Q 238 311 200 351 V 489 Q 200 498 184 505 Q 169 512 164 512 Q 158 512 158 507 Q 158 501 159 496 Q 164 463 164 411 V 135 Q 164 106 162 77 Z M 287 120 H 200 V 335 Q 255 251 288 127 Q 288 126 287 124 Q 287 122 287 120 Z M 400 309 V 120 H 312 Q 334 262 400 309 Z M 92 345 H 39 V 390 Q 39 398 36 402 Q 33 406 22 411 Q 10 417 6 417 Q 2 417 1 413 Q 0 411 0 407 Q 0 404 1 398 Q 5 353 5 313 V 129 Q 5 94 3 62 L 40 90 H 86 L 103 67 L 135 90 Q 139 93 139 96 Q 139 99 136 101 L 126 108 V 295 Q 108 304 127 331 L 129 356 Q 129 366 114 373 Q 100 381 96 381 Q 92 381 92 373 Z M 39 330 H 92 V 105 H 39 Z" fill="black" />
  </g>
  <g class="defect" id="01">
    <path d="M 277 63 Q 291 55 270 48" fill="none" stroke="red" stroke-width="3" />
  </g>
  <g class="defect" id="02">
    <path d="M 126 295 Q 108 304 127 331" fill="none" stroke="red" stroke-width="3" />
  </g>
</svg>