<svg xmlns="http://www.w3.org/2000/svg" width="512" height="512" viewBox="0 0 512 512">
  <g class="glyph">
    <path d="M 208 137 H 260 Q 256 113 284 52 H 196 Q 174 52 158 59 L 137 34 Q 158 37 183 37 H 415 L 447 0 L 484 41 Q 488 45 488 49 Q 488 52 479 52 H 326 Q 303 99 277 137 H 413 L 427 115 L 465 139 Q 470 142 470 145 Q 470 149 465 152 L 453 160 V 367 Q 453 416 456 470 Q 456 480 439 489 Q 423 498 420 498 Q 416 498 416 490 V 455 H 204 V 485 Q 204 494 202 498 Q 199 501 189 507 Q 190 493 173 512 Q 168 512 168 499 V 494 Q 170 463 170 430 V 164 Q 170 141 168 113 Z M 416 440 V 152 H 365 V 440 Z M 250 152 H 204 V 440 H 250 Z M 331 152 H 283 V 231 H 331 Z M 283 247 V 330 H 331 V 247 Z M 283 440 H 331 V 345 H 283 Z M 94 351 H 40 V 394 Q 40 404 36 409 Q 32 413 21 417 Q 11 422 7 422 Q 3 422 1 418 Q 0 416 0 410 Q 0 407 1 402 Q 6 357 6 317 V 112 Q 6 76 4 45 L 37 71 H 90 L 107 51 L 140 75 Q 143 77 143 80 Q 143 83 140 86 L 129 93 V 301 Q 129 319 130 335 L 132 361 Q 132 370 117 378 Q 115 387 99 387 Q 94 387 94 380 Z M 40 335 H 94 V 86 H 40 Z" fill="black" />
  </g>
  <g class="defect" id="01">
    <path d="M 189 507 Q 190 493 173 512" fill="none" stroke="red" stroke-width="3" />
  </g>
  <g class="defect" id="02">
    <path d="M 117 378 Q 115 387 99 387" fill="none" stroke="red" stroke-width="3" />
  </g>
  <g class="defect" id="03">
    <path d="M 260 137 Q 256 113 284 52" fill="none" stroke="red" stroke-width="3" />
  </g>
</svg>