<svg xmlns="http://www.w3.org/2000/svg" width="512" height="512" viewBox="0 0 512 512">
  <g class="glyph">
    <path d="M 494 478 493 483 Q 489 483 485 483 Q 467 483 461 492 Q 459 497 455 497 Q 448 497 432 454 Q 417 410 408 347 Q 399 283 398 198 H 390 Q 387 322 379 367 Q 372 411 350 448 Q 328 484 289 512 L 284 509 Q 334 461 349 394 Q 365 328 366 198 Q 346 198 333 203 L 314 182 Q 299 194 262 194 Q 225 194 215 189 Q 205 183 204 163 Q 193 165 184 169 L 162 151 H 168 Q 184 151 204 148 Q 204 119 201 104 H 158 V 240 Q 158 414 69 498 L 65 495 Q 100 442 116 385 Q 131 329 131 246 V 127 Q 131 101 129 71 L 157 91 H 211 V 58 Q 211 26 208 0 L 248 13 Q 252 15 252 17 Q 252 21 248 23 L 240 27 V 54 H 275 L 296 28 L 325 59 Q 329 63 329 65 Q 329 67 322 67 H 240 V 91 H 302 L 318 76 L 341 97 Q 344 100 344 103 Q 344 106 335 107 Q 325 108 297 135 L 290 132 L 306 104 H 202 L 231 115 Q 237 116 237 118 Q 237 120 233 124 L 228 129 V 144 L 248 141 L 259 124 L 279 138 Q 285 142 285 144 Q 285 147 279 149 L 228 158 Q 229 169 235 172 Q 240 175 261 175 Q 282 175 291 167 Q 300 159 302 139 H 307 Q 310 160 319 164 Q 322 165 322 169 Q 322 172 316 181 Q 340 184 356 184 H 366 V 159 Q 366 95 363 1 L 402 19 Q 408 22 408 25 Q 408 28 400 33 Q 392 38 392 69 L 390 184 H 425 L 449 154 L 477 188 Q 480 193 480 195 Q 480 198 473 198 H 407 Q 441 410 494 478 Z M 120 100 106 107 V 282 Q 106 305 108 325 Q 110 345 110 346 Q 122 356 97 362 Q 83 368 80 368 Q 77 368 77 361 V 343 H 33 V 386 Q 33 394 30 398 Q 28 403 19 408 Q 10 412 4 412 Q 0 412 0 402 Q 0 398 1 394 Q 5 341 5 305 V 122 Q 5 87 3 57 L 38 86 H 74 L 89 65 L 120 91 Q 124 94 124 96 Q 124 98 120 100 Z M 77 330 V 100 H 33 V 330 Z M 416 59 Q 467 84 467 109 Q 467 121 462 129 Q 457 136 448 136 Q 439 136 436 120 Q 433 104 428 92 Q 423 79 411 64 Z M 325 218 Q 330 222 330 224 Q 330 226 323 226 H 222 Q 199 226 186 231 L 168 211 Q 187 214 211 214 H 283 L 302 194 Z M 316 256 311 258 V 273 L 313 293 Q 313 297 304 302 Q 295 307 291 307 Q 286 307 285 300 H 210 Q 210 306 200 310 Q 190 313 186 313 Q 183 313 183 310 Q 183 309 183 307 Q 186 294 186 279 V 263 Q 186 241 185 234 L 208 247 H 281 L 295 236 L 316 249 Q 319 251 319 253 Q 319 255 316 256 Z M 285 288 V 260 H 210 V 288 Z M 336 337 328 342 V 418 Q 328 432 326 441 Q 323 449 313 459 Q 303 470 299 470 Q 295 470 293 462 Q 290 455 285 451 Q 280 446 264 441 L 266 434 Q 282 436 289 436 Q 297 436 299 433 Q 301 429 301 419 V 335 H 265 L 282 347 Q 286 349 286 351 Q 286 354 280 357 Q 274 361 252 394 H 267 L 280 379 L 296 398 Q 300 402 300 405 Q 300 408 293 408 H 255 V 443 L 256 476 Q 256 481 244 485 Q 232 489 230 489 Q 227 489 227 486 Q 227 484 228 482 Q 231 466 231 441 V 409 Q 219 409 208 414 L 190 393 V 468 Q 190 476 189 478 Q 187 481 178 485 Q 170 489 166 489 Q 163 489 163 484 V 482 Q 166 460 166 421 V 369 Q 166 323 164 307 L 190 323 H 300 L 312 308 L 335 327 Q 340 330 340 332 Q 340 335 336 337 Z M 262 335 H 190 V 392 Q 217 394 242 394 Q 256 363 262 335 Z M 207 340 Q 233 351 233 371 Q 233 377 230 381 Q 226 386 220 386 Q 214 386 214 380 Q 213 360 205 343 Z" fill="black" />
  </g>
  <g class="defect" id="01">
    <path d="M 407 198 Q 441 410 494 478" fill="none" stroke="red" stroke-width="3" />
  </g>
  <g class="defect" id="02">
    <path d="M 110 346 Q 122 356 97 362" fill="none" stroke="red" stroke-width="3" />
  </g>
</svg>