<svg xmlns="http://www.w3.org/2000/svg" width="512" height="512" viewBox="0 0 512 512">
  <g class="glyph">
    <path d="M 355 102 Q 376 67 405 0 L 443 28 Q 449 33 449 35 Q 449 39 439 42 Q 428 45 415 56 Q 401 68 373 102 H 440 L 460 78 L 494 103 Q 500 106 500 109 Q 500 112 494 115 L 482 122 V 201 Q 482 223 484 242 Q 485 260 485 261 Q 485 272 470 278 Q 454 284 450 284 Q 446 284 446 277 V 260 H 232 V 261 Q 232 274 219 280 Q 205 286 200 286 Q 195 286 195 277 L 197 250 Q 197 233 197 199 V 127 Q 197 106 195 78 L 231 102 Z M 325 174 V 116 H 232 V 174 Z M 358 116 V 174 H 446 V 116 Z M 358 246 H 446 V 188 H 358 Z M 232 246 H 325 V 188 H 232 Z M 115 369 194 345 197 352 94 402 Q 50 424 42 431 Q 33 438 31 438 Q 28 438 24 432 L 3 403 L 79 380 V 205 H 55 Q 33 205 19 211 L 0 188 Q 6 175 44 191 H 79 V 66 Q 79 30 77 3 L 121 22 Q 129 26 129 29 Q 129 32 123 37 L 115 43 V 191 H 130 L 157 159 L 187 194 Q 191 198 191 201 Q 191 205 184 205 H 115 Z M 240 14 Q 277 28 296 40 Q 314 52 314 68 Q 314 78 308 86 Q 301 95 296 95 Q 286 95 282 87 Q 268 60 260 48 Q 252 37 235 19 Z M 414 469 H 263 V 486 Q 263 494 260 498 Q 257 502 247 507 Q 236 512 231 512 Q 242 512 225 501 L 226 474 Q 226 457 226 424 V 343 Q 226 319 225 294 L 266 316 H 407 L 427 291 L 464 318 Q 469 321 469 325 Q 469 328 464 331 L 451 338 V 420 Q 451 438 452 454 L 454 478 Q 469 489 438 495 Q 422 502 418 502 Q 414 502 414 495 Z M 263 384 H 414 V 331 H 263 Z M 414 399 H 263 V 454 H 414 Z" fill="black" />
  </g>
  <g class="defect" id="01">
    <path d="M 231 512 Q 242 512 225 501" fill="none" stroke="red" stroke-width="3" />
  </g>
  <g class="defect" id="02">
    <path d="M 0 188 Q 6 175 44 191" fill="none" stroke="red" stroke-width="3" />
  </g>
  <g class="defect" id="03">
    <path d="M 454 478 Q 469 489 438 495" fill="none" stroke="red" stroke-width="3" />
  </g>
</svg>