<svg xmlns="http://www.w3.org/2000/svg" width="512" height="512" viewBox="0 0 512 512">
  <g class="glyph">
    <path d="M 288 97 H 228 Q 184 78 191 102 L 172 79 Q 192 83 217 83 H 356 Q 386 29 392 0 L 428 24 Q 435 28 435 31 Q 435 34 429 35 Q 406 37 370 83 H 430 L 459 49 L 492 85 Q 496 90 496 93 Q 496 97 488 97 H 379 V 143 H 419 L 437 117 L 468 141 Q 474 145 474 148 Q 474 151 468 154 L 457 159 V 250 Q 457 268 458 284 L 460 308 Q 460 318 446 326 Q 432 334 427 334 Q 422 334 422 322 V 314 H 241 Q 240 322 228 328 Q 215 334 209 334 Q 204 334 204 324 Q 204 321 204 318 Q 209 274 209 236 V 187 Q 209 152 207 122 L 247 143 H 287 Q 288 127 288 97 Z M 349 97 H 315 Q 316 111 316 123 Q 316 134 316 143 H 349 Z M 241 228 Q 280 200 285 157 H 241 Z M 379 157 V 196 Q 379 206 387 209 Q 392 211 408 211 Q 414 211 422 211 V 157 Z M 422 232 Q 406 232 390 232 Q 374 232 365 230 Q 355 227 352 221 Q 349 216 349 204 V 157 H 314 Q 310 186 294 204 Q 279 223 241 241 V 250 H 422 Z M 422 299 V 265 H 241 V 299 Z M 120 342 188 319 193 328 71 392 Q 46 405 39 414 Q 32 423 29 423 Q 25 423 21 417 L 0 385 L 84 355 V 199 H 65 Q 43 199 30 204 L 11 181 Q 31 184 55 184 H 84 V 55 Q 84 33 83 6 L 130 27 Q 138 31 138 34 Q 138 37 132 42 L 120 50 V 184 H 131 L 158 151 L 188 187 Q 192 192 192 195 Q 192 199 185 199 H 120 Z M 249 10 Q 284 21 297 31 Q 311 40 311 50 Q 311 62 304 70 Q 297 79 289 79 Q 280 79 278 76 Q 276 73 274 64 Q 268 36 243 15 Z M 414 363 H 447 L 476 330 L 508 367 Q 512 372 512 374 Q 512 378 505 378 H 414 V 460 Q 414 476 409 483 Q 405 491 389 500 Q 374 509 369 509 Q 365 509 364 499 Q 363 489 353 482 Q 343 476 311 465 L 312 457 Q 347 462 360 462 Q 372 462 375 459 Q 379 456 379 448 V 378 H 221 Q 198 378 184 383 L 165 361 Q 185 363 210 363 H 379 Q 379 338 376 315 L 412 325 Q 421 327 421 329 Q 421 333 417 335 L 414 339 Z M 242 382 Q 272 394 287 409 Q 302 423 302 434 Q 302 446 294 455 Q 305 464 276 464 Q 265 464 264 448 Q 261 413 238 389 Z" fill="black" />
  </g>
  <g class="defect" id="01">
    <path d="M 429 35 Q 406 37 370 83" fill="none" stroke="red" stroke-width="3" />
  </g>
  <g class="defect" id="02">
    <path d="M 294 455 Q 305 464 276 464" fill="none" stroke="red" stroke-width="3" />
  </g>
  <g class="defect" id="03">
    <path d="M 228 97 Q 184 78 191 102" fill="none" stroke="red" stroke-width="3" />
  </g>
</svg>