<svg xmlns="http://www.w3.org/2000/svg" width="512" height="512" viewBox="0 0 512 512">
  <g class="glyph">
    <path d="M 138 351 Q 178 376 178 399 Q 178 409 172 419 Q 166 429 159 429 Q 152 429 146 414 Q 139 399 124 380 Q 119 404 78 441 Q 52 466 5 494 L 0 487 Q 64 433 101 360 Q 76 340 38 322 Q 55 247 74 143 L 60 143 Q 56 130 26 153 L 2 129 H 50 L 76 128 Q 84 83 95 0 L 135 24 Q 142 29 142 31 Q 142 34 136 37 L 125 44 L 108 128 L 144 126 L 161 106 L 188 128 Q 194 132 194 136 Q 194 140 189 143 L 181 147 Q 165 291 138 351 Z M 105 142 Q 86 233 67 317 Q 100 331 112 337 Q 140 260 147 141 Z M 268 99 Q 235 150 188 200 L 179 194 Q 241 102 279 1 L 318 24 Q 323 27 323 31 Q 323 34 314 37 Q 306 40 298 52 L 278 84 H 423 L 453 46 L 492 90 Q 495 94 495 96 Q 495 99 488 99 Z M 250 403 242 420 Q 237 428 234 428 Q 231 428 227 423 L 198 400 Q 214 390 217 366 L 229 284 Q 207 284 194 290 L 174 267 Q 194 270 219 270 H 230 L 242 189 Q 247 160 249 130 L 279 154 H 396 L 417 132 L 450 158 Q 456 162 456 165 Q 456 168 450 171 L 437 178 Q 437 208 435 270 H 450 L 473 239 L 504 275 Q 509 280 509 282 Q 509 284 500 284 H 434 Q 431 362 429 389 H 439 L 463 359 L 496 394 Q 500 398 500 400 Q 500 403 492 403 H 428 Q 425 449 416 468 Q 406 488 385 500 Q 365 512 361 512 Q 357 512 356 510 Q 355 508 355 496 Q 370 485 346 478 Q 337 471 306 465 L 307 456 Q 332 458 352 458 Q 372 458 380 447 Q 388 435 392 403 Z M 277 169 263 270 H 400 L 402 169 Z M 315 176 Q 360 210 360 232 Q 360 242 352 251 Q 343 261 333 261 Q 329 261 327 256 Q 324 252 324 248 V 246 Q 325 240 325 234 Q 325 207 309 182 Z M 261 284 246 389 H 394 Q 396 356 399 284 Z M 305 293 Q 328 307 340 321 Q 352 334 352 347 Q 352 360 345 369 Q 337 377 331 377 Q 325 377 322 375 Q 319 372 318 369 Q 316 366 316 351 Q 316 336 312 324 Q 308 313 299 298 Z" fill="black" />
  </g>
  <g class="defect" id="01">
    <path d="M 355 496 Q 370 485 346 478" fill="none" stroke="red" stroke-width="3" />
  </g>
  <g class="defect" id="02">
    <path d="M 60 143 Q 56 130 26 153" fill="none" stroke="red" stroke-width="3" />
  </g>
  <g class="defect" id="03">
    <path d="M 124 380 Q 119 404 78 441" fill="none" stroke="red" stroke-width="3" />
  </g>
</svg>