<svg xmlns="http://www.w3.org/2000/svg" width="512" height="512" viewBox="0 0 512 512">
  <g class="glyph">
    <path d="M 152 357 Q 183 376 196 390 Q 208 404 208 418 Q 208 432 203 440 Q 198 449 192 449 Q 186 449 181 446 Q 177 443 172 432 Q 154 399 137 383 Q 99 449 6 501 L 1 492 Q 83 432 117 367 Q 89 347 41 327 Q 68 241 83 150 Q 43 151 26 163 L 0 135 Q 7 124 42 137 H 50 L 85 136 Q 99 59 103 0 L 150 24 Q 157 27 157 30 Q 157 34 151 38 L 139 46 L 120 135 L 167 133 L 183 109 L 217 137 Q 223 142 223 145 Q 223 148 216 151 L 202 160 Q 187 283 152 357 Z M 117 149 Q 103 214 74 320 Q 101 331 128 344 Q 151 286 169 147 Z M 381 113 Q 432 100 474 81 L 497 116 Q 502 121 502 124 Q 502 126 499 126 Q 496 126 491 125 Q 486 124 481 124 Q 487 142 446 128 Q 418 133 381 137 V 258 H 457 L 473 232 L 508 257 Q 512 260 512 263 Q 512 265 508 269 L 498 279 Q 494 343 489 367 Q 484 390 478 402 Q 471 413 453 423 Q 434 432 429 432 Q 424 432 424 428 Q 424 428 425 427 Q 425 422 425 420 Q 425 409 417 403 Q 408 397 388 390 L 391 383 Q 409 385 421 385 Q 434 385 440 382 Q 446 380 449 373 Q 452 367 455 344 Q 459 322 463 272 H 381 V 382 Q 381 437 382 459 Q 383 481 383 485 Q 383 490 380 494 Q 377 497 364 503 Q 352 509 346 509 Q 340 509 340 496 L 342 443 Q 344 408 344 369 V 283 Q 333 361 273 413 Q 230 464 152 503 L 149 497 Q 271 407 312 272 H 272 L 255 291 Q 253 294 251 294 Q 248 294 246 292 L 216 266 Q 231 257 232 247 L 245 144 Q 248 124 248 105 L 285 133 Q 314 129 344 122 Q 344 39 342 2 L 390 26 Q 396 30 396 33 Q 396 37 391 41 L 381 46 Z M 344 141 Q 308 144 279 144 L 263 258 H 344 Z" fill="black" />
  </g>
  <g class="defect" id="01">
    <path d="M 0 135 Q 7 124 42 137" fill="none" stroke="red" stroke-width="3" />
  </g>
  <g class="defect" id="02">
    <path d="M 481 124 Q 487 142 446 128" fill="none" stroke="red" stroke-width="3" />
  </g>
  <g class="defect" id="03">
    <path d="M 344 283 Q 333 361 273 413" fill="none" stroke="red" stroke-width="3" />
  </g>
</svg>