<svg xmlns="http://www.w3.org/2000/svg" width="512" height="512" viewBox="0 0 512 512">
  <g class="glyph">
    <path d="M 274 115 H 392 V 71 Q 392 50 390 23 L 442 41 Q 449 44 449 46 Q 449 48 443 54 L 431 63 V 87 Q 431 102 432 112 L 433 129 Q 433 136 417 143 Q 400 149 396 149 Q 392 149 392 138 V 130 H 117 L 105 142 Q 102 144 99 144 Q 95 144 89 140 L 65 121 Q 72 117 76 111 Q 80 106 80 94 V 75 Q 80 54 78 26 L 125 49 Q 131 52 131 54 Q 131 57 127 60 L 118 69 V 115 H 234 V 48 Q 234 27 233 0 L 284 22 Q 290 25 290 27 Q 290 30 285 33 L 274 42 Z M 91 207 Q 113 163 116 138 L 156 159 Q 161 162 161 164 Q 161 167 156 170 L 142 177 L 127 207 H 198 L 228 173 L 260 210 Q 263 214 263 217 Q 263 221 256 221 H 120 L 82 299 H 138 Q 138 263 136 235 L 177 253 Q 182 255 182 257 Q 182 260 179 264 L 172 275 V 299 H 203 L 228 270 L 256 302 Q 260 307 260 310 Q 260 313 252 313 H 172 V 365 L 260 354 L 261 362 L 172 385 V 412 Q 172 444 173 463 Q 174 483 174 485 Q 174 495 159 503 Q 144 511 139 511 Q 133 511 133 500 Q 133 497 135 480 Q 138 464 138 442 V 393 Q 78 409 54 416 Q 29 424 25 424 Q 21 424 19 419 L 3 387 L 138 370 V 313 H 76 L 62 329 Q 59 333 57 333 Q 54 333 51 330 L 27 306 Q 37 302 44 297 Q 51 291 59 275 L 85 221 H 57 Q 32 221 20 226 L 0 204 Q 21 207 46 207 Z M 312 302 Q 308 386 282 429 Q 256 473 189 508 L 183 502 Q 225 467 244 438 Q 249 410 271 375 Q 277 340 277 274 Q 277 209 275 172 L 314 193 Q 381 181 441 154 L 465 188 Q 471 195 471 198 Q 471 202 467 202 Q 463 202 454 199 Q 448 197 442 197 Q 422 197 435 198 Q 375 206 326 206 H 314 Q 314 245 312 288 H 436 L 466 252 L 502 293 Q 506 297 506 300 Q 506 302 498 302 H 412 V 408 Q 412 440 413 458 L 414 488 Q 414 495 410 498 Q 407 501 394 507 Q 381 512 375 512 Q 369 512 369 501 L 372 455 Q 374 425 374 396 V 302 Z" fill="black" />
  </g>
  <g class="defect" id="01">
    <path d="M 244 438 Q 249 410 271 375" fill="none" stroke="red" stroke-width="3" />
  </g>
  <g class="defect" id="02">
    <path d="M 442 197 Q 422 197 435 198" fill="none" stroke="red" stroke-width="3" />
  </g>
</svg>