<svg xmlns="http://www.w3.org/2000/svg" width="512" height="512" viewBox="0 0 512 512">
  <g class="glyph">
    <path d="M 212 0 Q 244 7 262 19 Q 280 30 280 43 Q 280 56 272 64 Q 264 72 251 72 Q 237 72 234 57 Q 226 25 208 7 Z M 85 91 Q 85 99 85 107 Q 85 141 73 154 Q 60 167 50 167 Q 39 167 34 162 Q 45 158 28 147 Q 28 137 43 120 Q 57 103 64 89 Q 70 74 70 56 H 79 Q 80 63 83 76 H 411 L 436 45 L 481 84 Q 488 89 488 94 Q 488 99 478 99 Q 456 99 442 105 Q 428 111 394 136 L 389 131 L 416 91 Z M 219 97 Q 245 108 261 120 Q 277 131 277 143 Q 277 155 270 162 Q 263 169 253 169 Q 244 169 239 164 Q 234 159 232 153 Q 230 132 226 123 Q 223 113 214 102 Z M 446 181 Q 450 185 450 188 Q 450 190 442 190 H 114 Q 91 190 78 196 L 58 172 Q 78 175 102 175 H 381 L 411 138 Z M 230 309 H 56 Q 34 309 20 315 L 0 292 Q 20 294 44 294 H 273 Q 300 240 315 193 L 357 218 Q 364 222 364 224 Q 364 227 356 231 Q 347 235 336 247 Q 324 258 294 294 H 431 L 464 255 L 501 299 Q 504 302 504 306 Q 504 309 496 309 H 270 V 386 H 371 L 403 347 L 440 391 Q 443 395 443 398 Q 443 401 436 401 H 270 Q 270 445 270 465 Q 271 484 271 489 Q 271 494 268 498 Q 265 502 252 507 Q 240 512 234 512 Q 243 512 226 508 Q 225 507 225 501 Q 225 494 227 480 Q 229 456 230 401 H 110 Q 89 401 74 406 L 54 383 Q 74 386 98 386 H 230 Z M 144 199 Q 178 212 195 224 Q 212 237 212 249 Q 212 262 203 275 Q 194 288 187 288 Q 180 288 177 285 Q 174 282 171 268 Q 167 254 160 240 Q 153 226 137 203 Z" fill="black" />
  </g>
  <g class="defect" id="01">
    <path d="M 34 162 Q 45 158 28 147" fill="none" stroke="red" stroke-width="3" />
  </g>
  <g class="defect" id="02">
    <path d="M 234 512 Q 243 512 226 508" fill="none" stroke="red" stroke-width="3" />
  </g>
</svg>