<svg xmlns="http://www.w3.org/2000/svg" width="512" height="512" viewBox="0 0 512 512">
  <g class="glyph">
    <path d="M 297 81 H 422 L 451 47 L 484 85 Q 487 90 487 92 Q 487 94 480 94 H 68 Q 47 94 32 100 L 12 77 Q 32 81 56 81 H 281 Q 312 37 325 0 L 360 24 Q 367 29 367 32 Q 367 36 358 38 Q 350 40 297 81 Z M 155 12 Q 181 19 201 29 Q 221 39 221 55 Q 221 64 214 71 Q 208 78 196 78 Q 185 78 180 62 Q 172 40 152 18 Z M 408 254 Q 323 261 268 277 Q 265 278 260 278 Q 255 278 253 273 L 241 243 Q 260 240 268 238 Q 276 235 281 232 Q 287 228 306 213 Q 326 198 345 181 Q 284 188 259 201 Q 257 202 254 202 Q 251 202 248 196 L 240 173 Q 268 165 328 96 L 356 112 Q 362 115 362 117 Q 362 120 353 123 Q 340 129 270 173 L 355 172 Q 385 145 411 114 L 439 142 Q 443 146 443 149 Q 443 152 435 152 Q 425 152 408 165 Q 364 200 285 246 L 404 243 Q 398 229 375 200 L 382 196 Q 412 208 428 224 Q 444 240 444 254 Q 444 268 438 278 Q 431 287 425 287 Q 418 287 415 282 Q 411 278 411 268 Q 410 259 408 254 Z M 194 254 Q 192 240 168 208 L 175 205 Q 200 217 214 229 Q 229 241 229 254 Q 229 287 208 287 Q 201 287 199 282 Q 196 276 196 264 Q 124 275 76 287 Q 70 288 67 288 Q 63 288 61 284 L 49 258 Q 68 253 76 248 Q 84 244 111 221 Q 138 198 152 186 Q 117 190 75 205 Q 69 206 66 206 Q 63 206 62 202 L 51 180 Q 80 165 96 148 Q 113 132 134 99 L 165 117 Q 170 120 170 122 Q 170 124 163 127 Q 151 133 82 179 L 162 177 Q 188 152 204 129 L 230 156 Q 233 159 233 161 Q 233 163 225 165 Q 216 166 200 179 Q 142 224 87 260 Z M 283 399 V 445 Q 283 470 279 480 Q 275 491 258 501 Q 240 512 235 512 Q 232 512 229 506 Q 221 481 169 464 L 175 457 Q 212 464 224 464 Q 235 464 240 462 Q 245 459 245 448 V 399 H 55 Q 33 399 19 405 L 0 383 Q 16 385 43 385 H 245 Q 244 346 243 345 L 279 359 L 347 321 H 123 Q 101 321 88 327 L 69 304 Q 105 322 113 307 H 354 L 378 287 L 416 316 Q 408 320 423 325 Q 423 329 412 329 Q 388 329 283 370 V 385 H 434 L 466 346 L 502 389 Q 506 392 506 396 Q 506 399 498 399 Z" fill="black" />
  </g>
  <g class="defect" id="01">
    <path d="M 345 181 Q 284 188 259 201" fill="none" stroke="red" stroke-width="3" />
  </g>
  <g class="defect" id="02">
    <path d="M 69 304 Q 105 322 113 307" fill="none" stroke="red" stroke-width="3" />
  </g>
  <g class="defect" id="03">
    <path d="M 416 316 Q 408 320 423 325" fill="none" stroke="red" stroke-width="3" />
  </g>
</svg>