<svg xmlns="http://www.w3.org/2000/svg" width="512" height="512" viewBox="0 0 512 512">
  <g class="glyph">
    <path d="M 232 0 Q 279 -10 285 18 Q 303 28 303 42 Q 289 56 297 66 Q 290 75 282 75 Q 273 75 269 71 Q 264 67 261 56 Q 254 31 228 6 Z M 107 101 V 218 Q 107 342 83 405 Q 60 467 6 512 L 0 506 Q 39 460 54 405 Q 69 350 69 217 V 120 Q 69 85 68 56 L 112 86 H 413 L 446 47 L 481 88 Q 486 95 486 98 Q 486 101 477 101 Z M 296 220 Q 279 311 250 365 Q 221 418 185 449 Q 149 479 88 508 L 84 501 Q 135 465 164 435 Q 193 404 216 355 Q 239 306 253 246 Q 266 186 270 117 L 323 141 Q 327 142 327 146 Q 327 150 319 153 Q 311 155 305 169 Q 296 262 359 337 Q 403 422 501 461 V 470 Q 496 469 493 469 Q 458 469 446 491 Q 445 494 443 494 Q 436 494 401 459 Q 365 424 336 360 Q 307 296 296 220 Z" fill="black" />
  </g>
  <g class="defect" id="01">
    <path d="M 303 42 Q 289 56 297 66" fill="none" stroke="red" stroke-width="3" />
  </g>
  <g class="defect" id="02">
    <path d="M 232 0 Q 279 -10 285 18" fill="none" stroke="red" stroke-width="3" />
  </g>
  <g class="defect" id="03">
    <path d="M 305 169 Q 296 262 359 337" fill="none" stroke="red" stroke-width="3" />
  </g>
</svg>