<svg xmlns="http://www.w3.org/2000/svg" width="512" height="512" viewBox="0 0 512 512">
  <g class="glyph">
    <path d="M 99 135 H 56 Q 34 135 19 141 L 0 118 Q 21 121 45 121 H 99 V 88 Q 99 45 96 0 L 146 17 Q 154 19 154 23 Q 154 26 146 32 L 136 40 V 121 H 172 L 199 89 L 228 124 Q 232 129 232 132 Q 232 135 225 135 H 136 V 227 L 216 187 L 221 196 L 136 252 V 429 Q 136 455 132 465 Q 128 476 111 488 Q 94 501 89 501 Q 84 501 83 491 Q 80 470 69 462 Q 58 454 20 445 L 21 436 Q 44 442 76 442 Q 89 442 94 439 Q 99 437 99 431 V 277 Q 52 307 41 324 Q 38 328 36 328 Q 33 328 30 324 L 6 290 L 99 245 Z M 335 178 Q 268 231 168 262 L 163 254 Q 259 212 316 160 Q 284 127 260 60 Q 231 60 218 65 L 198 42 Q 219 45 242 45 H 394 L 422 18 L 457 52 Q 461 58 461 61 Q 461 64 455 64 Q 436 64 421 87 Q 392 128 358 159 Q 409 189 510 195 V 202 Q 484 207 469 234 Q 467 238 464 238 Q 457 238 410 219 Q 363 200 335 178 Z M 334 142 Q 367 107 393 60 H 273 Q 300 113 334 142 Z M 356 284 H 409 L 436 252 L 467 290 Q 470 293 470 296 Q 470 299 463 299 H 356 V 366 H 446 L 475 333 L 509 372 Q 512 377 512 379 Q 512 382 504 382 H 356 Q 356 432 356 456 Q 357 480 357 484 Q 357 489 354 492 Q 351 496 337 501 Q 324 507 318 507 Q 312 507 312 500 Q 312 494 312 488 Q 317 454 317 382 H 231 Q 209 382 194 388 L 174 364 Q 195 366 219 366 H 317 V 299 H 267 Q 245 299 231 305 L 211 281 Q 232 284 255 284 H 317 Q 317 238 314 204 L 362 221 Q 370 224 370 226 Q 370 229 364 233 L 356 241 Z" fill="black" />
  </g>
  <g class="defect" id="01">
    <path d="M 21 436 Q 44 442 76 442" fill="none" stroke="red" stroke-width="3" />
  </g>
</svg>