<svg xmlns="http://www.w3.org/2000/svg" width="512" height="512" viewBox="0 0 512 512">
  <g class="glyph">
    <path d="M 127 222 183 192 188 203 127 248 V 418 Q 127 446 120 458 Q 114 470 96 481 Q 78 492 74 492 Q 69 492 67 483 Q 65 469 53 461 Q 41 452 15 445 L 17 434 Q 45 439 62 439 Q 78 439 85 435 Q 92 431 92 420 V 273 Q 50 305 42 320 Q 38 327 35 327 Q 31 327 29 324 L 0 292 L 92 242 V 139 H 60 Q 37 139 23 145 L 4 121 Q 24 125 49 125 H 92 V 89 Q 92 47 90 0 L 137 24 Q 155 27 144 30 Q 144 34 138 38 L 127 45 V 125 H 142 L 166 97 L 192 128 Q 195 132 195 135 Q 195 139 188 139 H 127 Z M 345 454 H 439 L 468 415 L 507 458 Q 512 463 512 466 Q 512 468 503 468 H 199 Q 176 468 162 474 L 144 452 Q 164 454 187 454 H 310 V 363 H 243 Q 220 363 206 368 L 187 345 Q 207 349 231 349 H 310 V 270 H 240 V 279 Q 240 289 224 295 Q 209 301 206 301 Q 201 301 200 297 Q 199 295 199 291 Q 199 288 200 283 Q 204 240 204 200 V 94 Q 204 59 202 30 L 240 52 H 413 L 432 31 L 468 57 Q 473 60 473 62 Q 473 64 468 67 L 454 77 V 209 Q 454 229 455 244 L 457 270 Q 446 279 441 286 Q 426 293 422 293 Q 418 293 418 286 V 270 H 345 V 349 H 399 L 429 312 L 466 352 Q 470 358 470 360 Q 470 363 462 363 H 345 Z M 345 151 H 418 V 67 H 345 Z M 240 151 H 310 V 67 H 240 Z M 418 166 H 345 V 256 H 418 Z M 310 166 H 240 V 256 H 310 Z" fill="black" />
  </g>
  <g class="defect" id="01">
    <path d="M 457 270 Q 446 279 441 286" fill="none" stroke="red" stroke-width="3" />
  </g>
  <g class="defect" id="02">
    <path d="M 137 24 Q 155 27 144 30" fill="none" stroke="red" stroke-width="3" />
  </g>
</svg>