<svg xmlns="http://www.w3.org/2000/svg" width="512" height="512" viewBox="0 0 512 512">
  <g class="glyph">
    <path d="M 427 307 H 247 V 308 Q 247 316 232 322 Q 216 329 210 329 Q 205 329 205 322 Q 205 317 205 310 Q 212 254 212 193 V 119 Q 212 74 209 43 L 252 74 H 290 Q 309 32 309 0 L 354 18 Q 362 21 362 24 Q 362 28 352 32 Q 342 36 333 44 Q 324 52 309 74 H 418 L 442 43 L 480 75 Q 484 79 484 81 Q 484 83 480 86 L 463 94 V 191 Q 463 237 466 262 L 471 304 Q 471 315 454 322 Q 438 330 433 330 Q 427 330 427 322 Z M 247 292 H 427 V 89 H 247 Z M 314 151 Q 294 174 255 214 L 249 208 Q 297 149 315 93 L 347 108 Q 353 111 353 116 Q 353 123 345 124 Q 337 126 327 136 H 376 L 391 118 L 420 140 Q 425 144 425 147 Q 425 151 419 152 Q 414 154 408 160 Q 403 166 390 183 Q 376 201 366 213 Q 398 229 398 250 Q 398 258 395 263 Q 391 268 386 268 Q 380 268 375 263 Q 364 248 346 231 Q 311 260 258 287 L 255 280 Q 294 255 330 216 Q 314 202 291 188 L 295 181 Q 323 192 343 201 Q 361 179 379 151 Z M 127 232 193 202 197 210 127 257 V 443 Q 127 470 122 479 Q 117 488 102 500 Q 87 512 81 512 Q 76 512 75 505 Q 71 486 58 479 Q 45 471 23 467 L 24 458 Q 42 459 58 459 Q 74 459 83 455 Q 92 451 92 436 V 280 Q 69 296 59 305 Q 48 314 41 323 Q 34 332 30 332 Q 25 332 22 326 L 3 289 L 92 248 V 144 H 57 Q 34 144 19 151 L 0 126 Q 20 130 46 130 H 92 V 92 Q 92 49 90 1 L 136 18 Q 144 20 144 23 Q 144 26 138 32 L 127 43 V 130 H 145 L 171 94 L 202 133 Q 205 137 205 141 Q 205 144 198 144 H 127 Z M 318 315 Q 381 348 381 375 Q 381 388 374 397 Q 368 407 359 407 Q 349 407 347 393 Q 338 353 312 320 Z M 416 400 Q 416 412 416 425 Q 416 438 419 449 Q 422 459 433 464 Q 439 467 439 472 Q 439 477 426 488 Q 414 500 380 501 Q 347 503 323 503 Q 299 503 284 499 Q 269 495 261 485 Q 252 475 252 460 V 392 Q 263 381 249 340 L 292 357 Q 279 371 298 361 Q 298 364 294 369 L 287 377 V 452 Q 287 460 291 463 Q 294 467 305 469 Q 317 471 344 471 Q 371 471 381 468 Q 391 465 396 451 Q 402 437 405 400 Z M 416 354 Q 471 389 487 406 Q 503 422 503 439 Q 503 455 495 466 Q 487 477 480 477 Q 472 477 469 474 Q 467 470 461 450 Q 455 429 446 410 Q 436 392 410 359 Z M 213 356 Q 219 382 219 406 Q 229 411 206 454 Q 192 477 173 477 Q 164 477 158 471 Q 153 464 153 457 Q 153 449 163 439 Q 203 399 205 356 Z" fill="black" />
  </g>
  <g class="defect" id="01">
    <path d="M 252 392 Q 263 381 249 340" fill="none" stroke="red" stroke-width="3" />
  </g>
  <g class="defect" id="02">
    <path d="M 219 406 Q 229 411 206 454" fill="none" stroke="red" stroke-width="3" />
  </g>
  <g class="defect" id="03">
    <path d="M 292 357 Q 279 371 298 361" fill="none" stroke="red" stroke-width="3" />
  </g>
</svg>