<svg xmlns="http://www.w3.org/2000/svg" width="512" height="512" viewBox="0 0 512 512">
  <g class="glyph">
    <path d="M 161 331 239 316 241 326 161 352 V 376 Q 161 431 162 453 Q 163 476 163 478 Q 163 490 146 496 Q 129 503 125 503 Q 121 503 120 500 Q 119 498 119 493 Q 119 490 120 484 Q 123 440 123 364 Q 52 389 35 400 Q 31 403 28 403 Q 25 403 22 397 L 4 358 L 123 337 V 257 H 67 L 58 269 Q 55 272 53 272 Q 51 272 46 268 L 15 242 Q 29 235 34 228 Q 39 222 44 205 L 71 116 H 56 Q 33 116 19 122 L 0 99 Q 21 101 45 101 H 76 Q 97 31 99 0 L 143 28 Q 149 31 149 34 Q 149 38 142 42 L 131 47 L 113 101 H 184 L 214 67 L 245 105 Q 249 109 249 112 Q 249 116 242 116 H 108 L 67 242 H 123 Q 123 230 121 154 L 171 176 Q 178 179 178 182 Q 178 187 172 191 L 161 198 V 242 H 184 L 210 212 L 238 245 Q 242 249 242 253 Q 242 257 235 257 H 161 Z M 306 220 Q 303 330 281 391 Q 259 453 185 508 L 177 504 Q 225 450 243 413 Q 260 377 266 314 Q 286 252 272 188 Q 272 125 267 53 L 308 76 Q 357 64 386 51 Q 415 39 440 18 L 470 56 Q 473 60 473 64 Q 473 68 467 68 H 466 Q 443 68 454 68 Q 448 68 440 69 L 307 93 Q 307 122 307 147 Q 307 180 306 205 H 443 L 474 168 L 509 210 Q 512 214 512 217 Q 512 220 504 220 H 416 V 381 Q 416 435 417 458 Q 418 480 418 485 Q 418 491 415 494 Q 412 497 398 502 Q 383 508 378 508 Q 372 508 372 498 L 375 441 Q 377 404 377 369 V 220 Z" fill="black" />
  </g>
  <g class="defect" id="01">
    <path d="M 266 314 Q 286 252 272 188" fill="none" stroke="red" stroke-width="3" />
  </g>
  <g class="defect" id="02">
    <path d="M 466 68 Q 443 68 454 68" fill="none" stroke="red" stroke-width="3" />
  </g>
</svg>