<svg xmlns="http://www.w3.org/2000/svg" width="512" height="512" viewBox="0 0 512 512">
  <g class="glyph">
    <path d="M 86 139 H 59 Q 36 139 22 145 L 3 122 Q 24 125 48 125 H 92 V 89 Q 92 47 89 0 L 137 18 Q 143 21 143 24 Q 143 27 137 31 L 126 38 V 125 H 144 L 171 92 L 202 127 Q 206 132 206 136 Q 206 139 199 139 H 126 V 194 Q 175 210 186 223 Q 198 237 198 249 Q 198 261 190 271 Q 196 298 178 280 Q 173 280 168 275 Q 164 270 161 262 Q 149 221 126 206 V 385 Q 126 432 127 458 Q 128 484 128 486 Q 128 498 114 505 Q 100 512 94 512 Q 87 512 87 500 L 90 445 Q 92 407 92 372 V 222 Q 68 296 8 376 L 0 372 Q 56 257 86 139 Z M 253 182 Q 253 320 228 386 Q 203 452 143 503 L 137 497 Q 180 443 199 381 Q 218 319 218 216 V 104 Q 218 60 216 29 L 255 52 H 411 L 428 29 L 465 53 Q 470 55 470 59 Q 470 63 466 65 L 452 74 V 126 Q 452 142 453 156 L 455 179 Q 455 189 439 198 Q 423 206 419 206 Q 415 206 415 199 V 182 Z M 253 67 V 166 H 415 V 67 Z M 329 357 V 441 Q 329 453 339 457 Q 350 462 382 462 Q 456 462 451 450 Q 465 439 473 359 H 481 Q 482 413 486 428 Q 490 444 498 449 Q 507 454 507 458 Q 507 468 484 482 Q 460 496 394 496 Q 353 496 331 493 Q 309 490 301 479 Q 293 468 293 443 V 272 Q 293 229 290 199 L 340 221 Q 347 223 347 227 Q 347 230 340 235 L 329 241 V 342 Q 401 291 448 235 L 479 266 Q 483 271 483 274 Q 483 278 471 279 Q 459 280 439 292 Q 381 337 329 357 Z" fill="black" />
  </g>
  <g class="defect" id="01">
    <path d="M 382 462 Q 456 462 451 450" fill="none" stroke="red" stroke-width="3" />
  </g>
  <g class="defect" id="02">
    <path d="M 190 271 Q 196 298 178 280" fill="none" stroke="red" stroke-width="3" />
  </g>
  <g class="defect" id="03">
    <path d="M 439 292 Q 381 337 329 357" fill="none" stroke="red" stroke-width="3" />
  </g>
</svg>