<svg xmlns="http://www.w3.org/2000/svg" width="512" height="512" viewBox="0 0 512 512">
  <g class="glyph">
    <path d="M 134 197 Q 172 211 187 226 Q 202 241 202 256 Q 202 271 196 280 Q 191 288 182 288 Q 173 288 169 275 Q 158 233 134 210 V 381 Q 134 430 135 456 Q 136 482 136 483 Q 149 494 120 503 Q 105 512 100 512 Q 95 512 95 500 L 97 441 Q 99 402 99 369 V 231 Q 70 307 8 385 L 0 378 Q 66 271 93 148 H 61 Q 38 148 24 154 L 5 130 Q 26 133 50 133 H 99 V 78 Q 99 6 99 0 L 143 19 Q 149 21 149 24 Q 149 27 144 30 L 134 37 V 133 H 147 L 174 102 L 204 137 Q 208 141 208 144 Q 208 148 201 148 H 134 Z M 292 76 Q 309 39 313 0 L 356 18 Q 363 21 363 25 Q 349 43 355 31 Q 337 37 309 76 H 409 L 430 50 L 465 74 Q 472 79 472 82 Q 472 85 465 88 L 454 93 V 192 Q 454 216 456 234 L 458 263 Q 458 271 442 280 Q 426 289 422 289 Q 418 289 418 282 V 253 H 258 V 275 Q 258 282 256 286 Q 253 290 241 295 Q 229 301 223 301 Q 219 301 219 291 Q 219 288 220 284 Q 223 254 223 202 V 110 Q 223 68 220 44 L 264 76 Z M 258 156 H 418 V 90 H 258 Z M 418 171 H 258 V 238 H 418 Z M 292 366 218 375 Q 195 379 183 385 L 159 364 Q 183 364 204 361 L 292 349 Q 292 300 290 267 L 336 283 Q 343 285 343 288 Q 343 291 337 294 L 330 298 V 344 L 430 330 L 454 300 L 494 330 Q 498 334 498 337 Q 498 340 492 341 L 330 361 V 436 Q 330 445 335 450 Q 340 454 356 456 Q 373 457 389 457 Q 450 457 458 441 Q 466 425 470 378 H 480 Q 498 420 484 426 Q 488 444 497 448 Q 505 453 505 458 Q 505 462 498 468 Q 490 475 480 480 Q 469 485 449 487 Q 429 490 386 490 Q 343 490 325 487 Q 308 483 300 475 Q 292 467 292 450 Z" fill="black" />
  </g>
  <g class="defect" id="01">
    <path d="M 480 378 Q 498 420 484 426" fill="none" stroke="red" stroke-width="3" />
  </g>
  <g class="defect" id="02">
    <path d="M 363 25 Q 349 43 355 31" fill="none" stroke="red" stroke-width="3" />
  </g>
  <g class="defect" id="03">
    <path d="M 136 483 Q 149 494 120 503" fill="none" stroke="red" stroke-width="3" />
  </g>
</svg>