<svg xmlns="http://www.w3.org/2000/svg" width="512" height="512" viewBox="0 0 512 512">
  <g class="glyph">
    <path d="M 133 115 H 148 L 170 90 L 196 119 Q 200 123 200 126 Q 200 129 193 129 H 133 V 202 Q 193 221 193 253 Q 193 264 188 273 Q 184 282 178 282 Q 173 282 168 278 Q 163 274 162 268 Q 155 242 133 218 V 372 Q 133 426 134 446 Q 135 467 135 469 Q 147 470 120 489 Q 105 496 100 496 Q 95 496 95 484 L 97 434 Q 99 402 99 360 V 202 Q 67 286 8 357 L 0 352 Q 66 241 94 129 H 59 Q 37 129 23 135 L 5 113 Q 24 115 47 115 H 99 V 86 Q 99 44 97 0 L 145 19 Q 152 22 152 24 Q 152 28 146 31 L 133 38 Z M 307 0 Q 335 12 349 23 Q 363 34 363 46 Q 363 58 357 67 Q 351 76 342 76 Q 323 76 323 58 Q 323 29 304 6 Z M 241 99 V 102 Q 241 126 233 145 Q 225 165 210 165 Q 203 165 197 162 Q 192 158 192 151 Q 192 143 197 137 Q 214 117 220 100 Q 225 82 227 57 L 236 56 Q 238 71 240 85 H 445 L 465 58 L 505 88 Q 512 94 512 98 Q 512 103 499 103 Q 487 104 475 112 Q 464 120 440 144 L 432 140 L 451 99 Z M 317 138 Q 322 142 322 145 Q 322 147 313 151 Q 303 154 290 166 Q 248 202 204 226 L 200 221 Q 250 178 290 117 Z M 356 127 Q 396 137 420 149 Q 443 161 451 170 Q 439 189 459 187 Q 459 196 453 204 Q 448 212 442 212 Q 435 212 428 202 Q 408 173 392 160 Q 377 146 351 133 Z M 341 319 H 405 L 430 290 L 458 325 Q 461 329 461 331 Q 461 333 454 333 H 341 V 389 H 432 L 457 358 L 489 395 Q 492 400 492 402 Q 492 404 484 404 H 341 Q 323 445 341 457 L 342 480 Q 342 486 339 489 Q 336 492 326 496 Q 315 499 308 499 Q 301 499 301 487 L 303 437 Q 305 404 305 365 V 267 H 285 Q 224 333 175 365 L 170 359 Q 209 321 246 272 Q 283 222 301 185 L 333 208 Q 340 213 340 217 Q 340 220 329 222 Q 323 224 298 252 H 435 L 461 221 L 492 258 Q 496 262 496 264 Q 496 267 489 267 H 341 Z" fill="black" />
  </g>
  <g class="defect" id="01">
    <path d="M 451 170 Q 439 189 459 187" fill="none" stroke="red" stroke-width="3" />
  </g>
  <g class="defect" id="02">
    <path d="M 341 404 Q 323 445 341 457" fill="none" stroke="red" stroke-width="3" />
  </g>
  <g class="defect" id="03">
    <path d="M 135 469 Q 147 470 120 489" fill="none" stroke="red" stroke-width="3" />
  </g>
</svg>