<svg xmlns="http://www.w3.org/2000/svg" width="512" height="512" viewBox="0 0 512 512">
  <g class="glyph">
    <path d="M 170 66 Q 170 31 169 2 L 209 18 Q 213 19 213 20 Q 213 22 209 26 L 200 34 V 66 H 215 L 235 43 L 261 71 Q 266 75 266 78 Q 266 81 257 81 H 200 L 202 104 Q 202 110 189 117 Q 177 123 172 123 Q 169 123 169 112 V 106 Q 152 103 170 81 H 116 L 118 105 Q 118 112 106 118 Q 93 124 90 124 Q 86 124 86 117 Q 86 110 87 81 Q 57 81 47 82 Q 36 83 26 87 L 8 63 Q 33 66 63 66 H 87 Q 87 39 86 0 L 125 17 Q 131 20 131 21 Q 131 22 126 26 L 116 34 V 66 Z M 342 81 Q 315 88 279 95 L 277 86 Q 361 57 436 7 L 463 32 Q 468 36 468 40 Q 468 43 466 44 Q 464 44 454 44 Q 442 44 426 52 Q 410 60 376 72 V 178 L 422 166 L 445 128 L 482 156 Q 488 161 488 163 Q 488 166 481 168 L 376 193 V 299 L 445 285 L 466 245 L 507 277 Q 511 282 511 284 Q 511 288 505 289 L 376 316 V 448 Q 376 463 389 465 Q 403 467 414 467 Q 426 467 439 465 Q 453 463 458 461 Q 463 458 466 450 Q 469 442 472 425 Q 474 408 479 373 H 486 Q 499 394 490 428 Q 492 445 495 451 Q 498 457 505 461 Q 512 464 512 469 Q 512 474 499 485 Q 486 496 455 499 Q 425 501 403 501 Q 380 501 365 497 Q 350 492 346 483 Q 342 474 342 458 V 323 L 291 333 Q 275 338 265 344 L 247 322 Q 265 322 283 318 L 342 306 V 202 L 321 207 Q 298 213 290 220 L 266 200 H 269 Q 283 200 318 192 L 342 186 Z M 53 148 Q 54 153 54 157 Q 54 178 44 187 Q 33 199 25 199 Q 16 199 11 195 Q 5 192 5 185 Q 5 179 17 166 Q 29 153 34 140 Q 39 128 41 113 H 49 L 52 133 H 234 L 253 112 L 284 141 Q 290 145 290 149 Q 290 153 277 154 Q 265 155 252 164 Q 240 173 224 192 L 215 188 L 236 148 Z M 206 190 Q 209 194 209 197 Q 209 200 202 200 H 114 Q 93 200 79 205 L 59 182 Q 80 184 103 184 H 159 L 182 162 Z M 129 320 Q 76 369 5 408 L 1 400 Q 69 352 114 298 Q 112 294 106 287 Q 61 317 14 339 L 10 331 Q 77 290 112 250 H 58 Q 38 250 23 256 L 4 232 Q 22 236 47 236 H 203 L 230 209 L 259 241 Q 262 245 262 247 Q 262 250 254 250 H 154 Q 138 264 118 278 Q 149 306 162 331 Q 195 306 219 275 L 251 303 Q 253 306 253 308 Q 253 313 246 313 L 238 312 Q 228 312 173 342 Q 216 365 234 384 Q 251 402 251 424 Q 251 435 246 440 Q 240 446 234 446 Q 223 446 220 432 Q 208 385 171 352 Q 182 380 182 410 Q 163 457 177 455 Q 172 468 161 481 Q 149 495 136 502 Q 123 509 119 509 Q 114 509 113 498 Q 112 487 104 481 Q 96 476 64 464 L 66 455 Q 100 460 117 460 Q 132 460 139 455 Q 146 449 149 432 Q 153 416 153 400 Q 153 385 149 372 Q 80 433 4 469 L 0 460 Q 79 412 140 343 Q 137 335 129 320 Z" fill="black" />
  </g>
  <g class="defect" id="01">
    <path d="M 486 373 Q 499 394 490 428" fill="none" stroke="red" stroke-width="3" />
  </g>
  <g class="defect" id="02">
    <path d="M 169 106 Q 152 103 170 81" fill="none" stroke="red" stroke-width="3" />
  </g>
  <g class="defect" id="03">
    <path d="M 182 410 Q 163 457 177 455" fill="none" stroke="red" stroke-width="3" />
  </g>
</svg>