<svg xmlns="http://www.w3.org/2000/svg" width="512" height="512" viewBox="0 0 512 512">
  <g class="glyph">
    <path d="M 402 194 H 312 Q 337 292 390 356 Q 442 420 512 438 L 510 449 Q 487 451 475 455 Q 463 460 457 467 Q 450 475 446 475 Q 437 475 399 433 Q 360 391 336 335 Q 312 279 298 194 H 239 Q 238 315 204 383 Q 171 452 96 506 L 90 500 Q 150 439 175 374 Q 200 308 200 183 V 76 Q 200 32 198 0 L 250 37 H 394 L 417 8 L 457 41 Q 461 45 461 47 Q 461 51 455 55 L 442 62 V 151 Q 442 167 443 181 L 445 205 Q 445 215 429 223 Q 413 232 408 232 Q 402 232 402 224 Z M 239 177 H 402 V 52 H 239 Z M 55 1 Q 138 23 138 59 Q 138 71 129 82 Q 120 93 110 93 Q 99 93 96 80 Q 86 35 50 8 Z M 178 66 108 288 Q 97 323 97 346 Q 110 383 110 429 Q 99 425 111 447 Q 111 457 104 465 Q 98 474 83 474 Q 69 474 62 467 Q 56 460 56 447 Q 56 435 59 412 Q 63 389 63 369 Q 63 349 49 340 Q 35 332 0 329 L 3 318 Q 42 318 56 312 Q 70 306 78 286 L 169 62 Z M 15 119 Q 57 134 71 144 Q 84 153 84 170 Q 84 186 77 197 Q 71 207 62 207 Q 53 207 49 204 Q 46 201 44 192 Q 37 166 30 154 Q 23 142 9 126 Z" fill="black" />
  </g>
  <g class="defect" id="01">
    <path d="M 97 346 Q 110 383 110 429" fill="none" stroke="red" stroke-width="3" />
  </g>
  <g class="defect" id="02">
    <path d="M 110 429 Q 99 425 111 447" fill="none" stroke="red" stroke-width="3" />
  </g>
</svg>