<svg xmlns="http://www.w3.org/2000/svg" width="512" height="512" viewBox="0 0 512 512">
  <g class="glyph">
    <path d="M 329 149 V 264 H 407 L 426 239 L 469 269 Q 474 273 474 275 Q 474 277 470 281 L 456 292 V 419 Q 456 437 457 454 L 459 481 Q 459 490 453 494 Q 447 498 436 502 Q 424 505 419 505 Q 414 505 414 499 V 445 H 229 V 485 Q 229 493 226 497 Q 222 500 209 506 Q 196 512 192 512 Q 184 512 184 499 V 494 Q 189 448 189 407 V 296 Q 189 260 188 229 L 235 264 H 288 V 92 Q 288 48 286 0 L 341 25 Q 348 29 348 31 Q 348 34 342 38 L 329 49 V 134 H 437 L 468 97 L 504 140 Q 507 144 507 146 Q 507 149 499 149 Z M 414 430 V 281 H 229 V 430 Z M 56 17 Q 149 39 149 66 Q 149 80 141 95 Q 132 110 125 110 Q 117 110 114 108 Q 111 105 108 98 Q 99 74 87 58 Q 74 42 53 25 Z M 201 75 122 304 Q 106 353 106 414 Q 106 438 108 452 Q 93 448 110 474 Q 110 504 86 504 Q 69 504 60 495 Q 51 486 51 474 Q 51 462 55 451 Q 68 414 68 399 Q 68 384 56 375 Q 44 367 13 357 L 15 343 Q 41 347 54 347 Q 67 347 72 342 Q 58 319 84 321 L 188 71 Z M 7 131 Q 45 143 71 157 Q 97 171 97 188 Q 97 206 87 219 Q 77 233 70 233 Q 62 233 60 231 Q 57 229 55 222 Q 49 192 36 175 Q 23 157 0 139 Z" fill="black" />
  </g>
  <g class="defect" id="01">
    <path d="M 108 452 Q 93 448 110 474" fill="none" stroke="red" stroke-width="3" />
  </g>
  <g class="defect" id="02">
    <path d="M 72 342 Q 58 319 84 321" fill="none" stroke="red" stroke-width="3" />
  </g>
</svg>