<svg xmlns="http://www.w3.org/2000/svg" width="512" height="512" viewBox="0 0 512 512">
  <g class="glyph">
    <path d="M 202 131 H 256 Q 274 91 278 52 H 190 Q 182 35 152 58 L 130 34 Q 152 36 177 36 H 434 L 464 0 L 501 42 Q 505 46 505 49 Q 505 52 496 52 H 317 Q 299 101 280 131 H 422 L 447 106 L 482 137 Q 486 141 486 143 Q 486 146 482 149 L 465 161 V 356 Q 465 416 467 441 Q 468 467 468 467 Q 468 477 452 487 Q 435 496 431 496 Q 426 496 426 488 V 454 H 201 V 484 Q 201 491 198 495 Q 195 499 182 506 Q 170 512 165 512 Q 160 512 160 501 Q 160 498 161 494 Q 163 466 163 428 V 159 Q 163 136 161 105 Z M 426 436 V 148 H 377 V 436 Z M 246 148 H 201 V 436 H 246 Z M 343 148 H 280 V 229 H 343 Z M 280 245 V 326 H 343 V 245 Z M 280 436 H 343 V 343 H 280 Z M 40 10 Q 117 31 117 74 Q 117 87 107 100 Q 98 112 89 112 Q 84 112 81 108 Q 77 104 76 97 Q 72 67 62 51 Q 53 35 35 17 Z M 156 96 105 288 Q 95 325 92 344 Q 88 363 88 386 Q 88 408 91 442 Q 93 476 93 484 Q 93 492 90 498 Q 87 504 78 504 Q 39 504 39 471 Q 39 463 45 436 Q 51 408 51 391 Q 51 374 43 366 Q 34 358 10 351 L 12 340 Q 23 340 35 340 Q 48 340 55 334 Q 63 328 69 309 L 145 93 Z M 6 132 Q 54 150 69 163 Q 65 176 83 190 Q 83 204 74 216 Q 65 228 59 228 Q 51 228 46 222 Q 41 215 40 206 Q 36 182 27 167 Q 17 152 0 139 Z" fill="black" />
  </g>
  <g class="defect" id="01">
    <path d="M 190 52 Q 182 35 152 58" fill="none" stroke="red" stroke-width="3" />
  </g>
  <g class="defect" id="02">
    <path d="M 69 163 Q 65 176 83 190" fill="none" stroke="red" stroke-width="3" />
  </g>
</svg>