<svg xmlns="http://www.w3.org/2000/svg" width="512" height="512" viewBox="0 0 512 512">
  <g class="glyph">
    <path d="M 307 31 Q 314 37 314 39 Q 314 41 305 43 L 290 47 Q 272 69 213 123 Q 269 151 286 165 Q 304 180 304 195 Q 304 211 295 221 Q 286 232 277 232 Q 267 232 264 227 Q 260 222 255 204 Q 250 186 238 170 Q 226 155 191 125 Q 217 58 269 0 Z M 178 34 Q 183 37 183 42 Q 183 46 176 48 L 160 52 Q 98 111 72 132 Q 109 150 128 164 Q 148 178 153 186 Q 157 194 157 207 Q 157 220 150 230 Q 142 240 131 240 Q 120 240 116 221 Q 110 196 97 178 Q 84 161 51 134 Q 109 69 140 2 Z M 457 35 Q 462 39 462 41 Q 462 44 455 47 L 436 54 Q 387 98 350 126 Q 415 150 436 164 Q 458 178 458 193 Q 458 208 449 220 Q 441 233 432 233 Q 422 233 413 213 Q 404 192 390 178 Q 375 163 325 126 Q 375 82 418 2 Z M 314 354 Q 358 320 377 301 Q 395 282 408 257 L 446 287 Q 453 292 453 296 Q 453 300 442 302 Q 431 305 406 317 Q 381 329 322 365 Q 378 432 511 448 L 510 459 Q 477 464 472 487 Q 470 495 465 495 Q 456 495 404 470 Q 351 445 317 406 Q 284 366 265 292 Q 247 397 190 444 Q 133 490 1 512 L 0 502 Q 80 481 129 450 Q 178 419 202 375 Q 225 331 231 231 L 278 247 Q 286 250 286 253 Q 286 256 279 260 Q 271 264 270 269 Q 288 320 314 354 Z M 145 272 Q 146 285 146 297 Q 146 347 129 373 Q 112 399 92 399 Q 81 399 73 391 Q 66 383 66 372 Q 66 362 78 358 Q 105 346 118 326 Q 131 307 136 272 Z" fill="black" />
  </g>
  <g class="defect" id="01">
    <path d="M 191 125 Q 217 58 269 0" fill="none" stroke="red" stroke-width="3" />
  </g>
</svg>