<svg xmlns="http://www.w3.org/2000/svg" width="512" height="512" viewBox="0 0 512 512">
  <g class="glyph">
    <path d="M 456 34 Q 459 38 459 41 Q 441 58 456 45 Q 452 45 450 45 Q 442 43 429 43 Q 417 43 392 45 Q 276 60 166 60 H 158 V 49 Q 325 38 434 0 Z M 44 14 Q 122 36 122 72 Q 122 85 115 96 Q 107 106 97 106 Q 86 106 83 94 Q 77 65 67 49 Q 56 33 39 22 Z M 417 225 H 199 Q 197 229 186 233 Q 175 237 171 237 Q 167 237 167 232 Q 167 227 168 217 Q 169 207 169 185 V 162 Q 169 126 168 111 L 197 134 H 357 Q 384 92 406 46 L 439 67 Q 444 70 444 73 Q 444 75 436 78 Q 428 82 415 92 Q 402 102 371 134 H 414 L 433 110 L 463 137 Q 467 140 467 143 Q 467 145 463 148 L 452 156 V 180 Q 452 194 453 202 Q 455 211 455 214 Q 455 221 442 229 Q 429 236 423 236 Q 418 236 417 225 Z M 282 210 H 336 V 149 H 282 Z M 201 210 H 253 V 149 H 201 Z M 365 210 H 417 V 149 H 365 Z M 277 64 Q 334 83 334 102 Q 334 114 329 122 Q 324 130 315 130 Q 305 130 302 113 Q 297 90 275 69 Z M 194 65 Q 222 77 236 87 Q 250 97 250 108 Q 250 130 231 130 Q 224 130 222 127 Q 219 124 217 116 Q 213 94 190 72 Z M 154 109 97 307 Q 86 348 86 380 Q 86 412 97 455 Q 99 464 99 472 Q 99 499 75 499 Q 58 499 51 492 Q 44 485 44 473 Q 44 461 49 438 Q 53 415 53 393 Q 53 372 41 361 Q 29 349 0 342 L 3 332 Q 19 334 33 334 Q 45 334 52 328 Q 59 323 66 307 L 145 107 Z M 10 137 Q 52 151 65 164 Q 79 178 79 194 Q 79 210 72 219 Q 80 243 53 228 Q 40 228 37 209 Q 33 183 26 170 Q 18 156 4 143 Z M 401 320 H 360 Q 336 320 322 326 L 302 302 Q 323 305 348 305 H 401 Q 401 278 398 239 L 442 256 Q 447 258 447 262 Q 447 266 443 267 L 434 272 V 305 H 445 L 469 276 L 497 309 Q 501 314 501 317 Q 501 320 493 320 H 434 V 448 Q 434 470 430 481 Q 425 493 410 503 Q 396 512 390 512 Q 384 512 383 502 Q 382 491 368 485 Q 354 478 329 473 L 331 463 Q 363 467 376 467 Q 389 467 395 464 Q 401 462 401 450 Z M 269 378 H 198 V 453 L 258 430 Q 246 411 231 395 L 237 389 Q 264 403 280 414 Q 295 425 301 435 Q 326 460 307 456 Q 307 469 302 477 Q 296 485 288 485 Q 278 485 275 470 Q 272 454 262 438 L 217 469 Q 196 485 186 498 Q 184 501 180 501 Q 176 501 170 496 L 147 473 Q 157 465 162 457 Q 166 449 166 431 V 326 Q 166 267 164 240 L 203 262 H 270 L 282 245 L 310 267 Q 314 269 314 271 Q 314 274 310 277 L 300 283 V 318 Q 300 336 302 350 L 303 374 Q 303 384 291 389 Q 278 393 273 393 Q 269 393 269 383 Z M 198 309 H 269 V 277 H 198 Z M 198 362 H 269 V 325 H 198 Z M 327 342 Q 352 357 364 368 Q 375 379 375 392 Q 375 404 368 413 Q 362 422 354 422 Q 346 422 343 418 Q 341 414 341 402 Q 341 375 322 346 Z" fill="black" />
  </g>
  <g class="defect" id="01">
    <path d="M 72 219 Q 80 243 53 228" fill="none" stroke="red" stroke-width="3" />
  </g>
  <g class="defect" id="02">
    <path d="M 459 41 Q 441 58 456 45" fill="none" stroke="red" stroke-width="3" />
  </g>
  <g class="defect" id="03">
    <path d="M 301 435 Q 326 460 307 456" fill="none" stroke="red" stroke-width="3" />
  </g>
</svg>