<svg xmlns="http://www.w3.org/2000/svg" width="512" height="512" viewBox="0 0 512 512">
  <g class="glyph">
    <path d="M 415 102 V 174 Q 415 216 417 227 Q 419 237 419 241 Q 419 250 405 256 Q 391 262 387 262 Q 396 243 382 251 V 241 H 271 Q 271 249 269 253 Q 266 257 255 261 Q 243 266 239 266 Q 234 266 234 256 L 236 222 Q 237 202 237 182 V 102 Q 198 102 187 108 L 168 85 Q 188 88 212 88 H 237 V 50 Q 237 28 235 0 L 281 21 Q 286 23 286 26 Q 286 29 282 31 L 271 37 V 88 H 382 V 50 Q 382 29 380 1 L 426 21 Q 433 25 433 28 Q 433 31 427 34 L 415 40 V 88 H 438 L 469 51 L 501 91 Q 506 96 506 99 Q 506 102 498 102 Z M 382 157 V 102 H 271 V 157 Z M 382 227 V 172 H 271 V 227 Z M 127 188 Q 154 154 173 111 L 204 136 Q 210 141 210 144 Q 210 147 203 148 Q 175 150 180 159 Q 168 168 126 202 Q 124 285 115 319 Q 184 348 184 377 Q 184 389 178 399 Q 171 410 163 410 Q 155 410 152 405 Q 148 399 147 388 Q 142 356 113 327 Q 95 386 73 417 Q 51 449 4 486 L 0 481 Q 29 452 57 400 Q 84 348 90 294 Q 97 241 97 172 Q 97 103 89 2 L 139 21 Q 145 23 145 26 Q 145 28 139 32 Q 132 36 131 45 Q 129 53 129 98 Q 129 143 127 188 Z M 54 144 Q 60 178 60 208 Q 60 238 50 254 Q 40 269 26 269 Q 18 269 11 263 Q 5 258 5 249 Q 5 239 18 226 Q 30 213 37 193 Q 44 173 46 144 Z M 305 325 H 305 Q 248 437 119 496 L 115 489 Q 223 420 269 325 H 214 Q 191 325 178 331 L 159 308 Q 179 310 203 310 H 305 Q 305 272 303 246 L 345 257 Q 350 258 350 261 Q 350 264 347 266 L 341 270 V 310 H 441 L 471 274 L 505 314 Q 509 319 509 322 Q 509 325 501 325 H 364 Q 390 370 424 395 Q 458 420 512 433 V 441 Q 492 443 485 447 Q 477 451 473 465 Q 470 471 466 471 Q 457 471 416 430 Q 375 388 354 325 H 341 V 414 Q 341 444 341 456 L 342 475 Q 342 483 339 487 Q 335 491 324 497 Q 312 502 307 502 Q 302 502 302 493 Q 302 490 303 486 Q 305 461 305 413 Z" fill="black" />
  </g>
  <g class="defect" id="01">
    <path d="M 387 262 Q 396 243 382 251" fill="none" stroke="red" stroke-width="3" />
  </g>
  <g class="defect" id="02">
    <path d="M 203 148 Q 175 150 180 159" fill="none" stroke="red" stroke-width="3" />
  </g>
</svg>