<svg xmlns="http://www.w3.org/2000/svg" width="512" height="512" viewBox="0 0 512 512">
  <g class="glyph">
    <path d="M 127 178 Q 153 140 166 109 L 195 131 Q 201 135 201 139 Q 201 142 192 145 Q 178 150 126 201 Q 124 277 118 311 Q 182 354 182 382 Q 182 397 176 406 Q 170 416 162 416 Q 153 416 150 412 Q 147 408 145 397 Q 139 362 114 326 Q 101 384 78 421 Q 55 458 6 496 L 0 491 Q 62 427 78 349 Q 94 271 94 149 Q 94 80 89 0 L 141 21 Q 148 24 148 26 Q 148 29 141 34 Q 114 58 127 78 Q 127 152 127 178 Z M 307 99 V 70 Q 307 27 305 7 L 349 28 Q 355 32 355 34 Q 355 36 351 39 L 338 48 V 99 H 393 V 69 Q 393 25 391 7 L 433 26 Q 438 28 438 30 Q 438 32 433 36 L 425 44 V 99 H 445 L 472 67 L 502 103 Q 505 107 505 109 Q 505 112 499 112 H 425 V 140 Q 425 163 426 172 L 426 189 Q 426 194 413 201 Q 401 208 397 208 Q 393 208 393 197 V 184 H 338 Q 339 189 339 192 Q 339 197 338 200 Q 336 205 325 210 Q 313 214 310 214 Q 307 214 306 211 Q 305 210 305 206 Q 305 201 306 194 Q 307 180 307 151 V 112 H 263 V 239 H 421 L 448 207 L 481 245 Q 484 249 484 251 Q 484 253 477 253 H 349 V 313 H 450 L 479 280 L 509 316 Q 512 320 512 323 Q 512 327 505 327 H 365 Q 389 368 428 398 Q 467 427 508 435 L 507 443 Q 479 447 469 465 Q 465 470 461 470 Q 450 470 409 426 Q 367 381 352 327 H 349 V 418 Q 349 451 349 466 Q 350 481 350 481 Q 350 488 337 495 Q 324 501 319 501 Q 313 501 313 493 Q 313 484 314 469 Q 315 453 315 417 V 339 Q 284 393 245 427 Q 205 461 142 488 L 139 481 Q 235 419 280 327 H 214 Q 193 327 179 332 L 165 311 Q 188 313 207 313 H 315 V 253 H 255 L 248 265 Q 245 269 242 269 Q 238 269 234 266 L 213 249 Q 230 238 230 217 V 112 Q 203 112 191 118 L 172 96 Q 193 99 212 99 H 230 V 74 Q 230 55 228 19 L 269 43 Q 275 47 275 48 Q 285 60 272 54 L 263 62 V 99 Z M 338 112 V 170 H 393 V 112 Z M 55 131 Q 62 168 62 202 Q 62 237 53 254 Q 43 271 28 271 Q 21 271 14 268 Q 7 265 7 256 Q 7 247 14 237 Q 34 206 41 182 Q 48 162 48 138 V 131 Z" fill="black" />
  </g>
  <g class="defect" id="01">
    <path d="M 141 34 Q 114 58 127 78" fill="none" stroke="red" stroke-width="3" />
  </g>
  <g class="defect" id="02">
    <path d="M 275 48 Q 285 60 272 54" fill="none" stroke="red" stroke-width="3" />
  </g>
</svg>