<svg xmlns="http://www.w3.org/2000/svg" width="512" height="512" viewBox="0 0 512 512">
  <g class="glyph">
    <path d="M 145 237 Q 98 315 7 380 L 0 373 Q 94 285 138 185 Q 119 167 120 125 Q 63 176 5 197 L 2 191 Q 55 160 107 103 Q 92 80 78 66 Q 64 51 31 26 L 36 19 Q 86 42 123 85 Q 160 41 180 0 L 211 28 Q 218 34 218 37 Q 218 41 208 42 Q 199 43 181 64 Q 163 85 140 107 Q 159 138 170 190 Q 181 242 181 289 Q 181 337 177 379 Q 173 421 158 444 Q 143 468 126 479 Q 109 490 105 490 Q 99 490 97 480 Q 95 469 77 456 Q 59 444 35 439 L 37 432 Q 75 436 95 436 Q 116 436 125 428 Q 133 421 140 377 Q 147 333 147 297 Q 147 262 145 237 Z M 268 448 278 248 H 248 Q 232 248 217 254 L 197 230 Q 217 233 242 233 H 279 L 289 63 Q 252 63 238 69 L 218 45 Q 238 48 263 48 H 411 L 432 21 L 469 49 Q 473 51 473 54 Q 473 57 469 61 L 451 76 L 438 448 H 445 L 474 414 L 509 453 Q 512 457 512 459 Q 512 462 504 462 H 218 Q 180 445 181 468 L 160 445 Q 181 448 205 448 Z M 324 63 315 233 H 409 L 414 63 Z M 314 248 304 448 H 402 L 408 248 Z" fill="black" />
  </g>
  <g class="defect" id="01">
    <path d="M 138 185 Q 119 167 120 125" fill="none" stroke="red" stroke-width="3" />
  </g>
  <g class="defect" id="02">
    <path d="M 218 462 Q 180 445 181 468" fill="none" stroke="red" stroke-width="3" />
  </g>
</svg>