<svg xmlns="http://www.w3.org/2000/svg" width="512" height="512" viewBox="0 0 512 512">
  <g class="glyph">
    <path d="M 91 121 Q 50 159 4 185 L 0 178 Q 36 144 78 97 Q 51 58 7 25 L 12 19 Q 66 44 94 77 Q 130 33 149 0 L 182 29 Q 187 34 187 37 Q 187 41 176 43 Q 166 44 152 59 L 111 100 Q 153 168 153 302 Q 153 342 149 388 Q 144 434 136 451 Q 127 467 110 482 Q 93 496 87 496 Q 80 496 76 484 Q 73 472 59 463 Q 45 454 9 444 L 11 434 Q 51 441 74 441 Q 95 441 103 430 Q 111 419 116 382 Q 121 344 121 306 Q 121 269 118 237 Q 80 299 9 359 L 3 352 Q 76 264 111 188 Q 105 149 91 121 Z M 255 150 V 154 Q 255 164 252 167 Q 248 172 239 175 Q 230 177 225 177 Q 219 177 219 171 Q 219 165 220 150 Q 221 135 221 99 V 58 Q 221 36 219 6 L 257 28 H 392 L 408 7 L 438 29 Q 445 33 445 36 Q 445 39 439 42 L 430 47 V 85 L 432 146 Q 432 159 418 164 Q 405 170 401 170 Q 397 170 397 164 V 150 Z M 255 43 V 83 H 397 V 43 Z M 255 98 V 135 H 397 V 98 Z M 214 293 V 296 Q 214 312 203 316 Q 189 321 184 321 Q 180 321 180 311 L 181 285 Q 197 269 182 252 V 220 Q 182 198 180 169 L 213 189 H 433 L 452 167 L 484 190 Q 488 193 488 196 Q 488 199 484 201 L 472 208 V 233 Q 472 251 474 266 L 475 290 Q 475 299 461 307 Q 446 315 442 315 Q 438 315 438 308 V 293 Z M 214 205 V 278 H 277 V 205 Z M 386 205 V 278 H 438 V 205 Z M 357 278 V 205 H 306 V 278 Z M 322 447 Q 253 492 126 511 L 124 502 Q 232 472 298 428 Q 260 396 238 352 H 228 Q 204 352 192 358 L 173 334 Q 201 352 218 337 H 387 L 410 315 L 442 345 Q 448 350 448 354 Q 448 358 435 359 Q 423 360 406 377 Q 375 409 348 428 Q 416 459 512 463 V 472 Q 480 475 470 503 Q 468 507 462 507 Q 456 507 406 489 Q 356 470 322 447 Z M 321 412 Q 362 381 381 352 H 253 Q 283 387 321 412 Z" fill="black" />
  </g>
  <g class="defect" id="01">
    <path d="M 181 285 Q 197 269 182 252" fill="none" stroke="red" stroke-width="3" />
  </g>
  <g class="defect" id="02">
    <path d="M 173 334 Q 201 352 218 337" fill="none" stroke="red" stroke-width="3" />
  </g>
</svg>