<svg xmlns="http://www.w3.org/2000/svg" width="512" height="512" viewBox="0 0 512 512">
  <g class="glyph">
    <path d="M 159 58 H 220 L 243 34 L 269 65 Q 273 70 273 72 Q 273 74 265 74 H 159 V 110 H 240 L 254 94 L 279 116 Q 284 121 284 124 Q 284 128 275 129 Q 266 130 257 137 Q 249 144 232 165 L 226 161 L 240 126 H 131 L 166 139 Q 172 141 172 144 Q 172 147 166 150 L 160 154 V 173 L 183 170 L 198 147 L 223 166 Q 230 172 230 174 Q 230 178 222 179 L 160 189 Q 160 216 169 218 Q 178 220 198 220 Q 220 220 230 217 Q 239 214 243 203 Q 246 192 249 167 H 256 Q 256 192 259 201 Q 262 211 268 214 Q 274 217 274 221 Q 274 225 263 233 Q 252 240 232 242 Q 213 243 183 243 Q 153 243 141 237 Q 111 232 130 211 V 192 Q 105 197 88 204 L 70 180 V 253 Q 70 353 55 407 Q 40 461 8 508 L 0 504 Q 20 465 29 423 Q 38 380 38 266 V 143 Q 38 111 37 83 L 72 110 H 127 V 52 Q 127 27 125 0 L 164 15 Q 173 19 173 22 Q 173 25 167 29 L 159 35 Z M 70 179 Q 81 181 92 181 Q 103 181 116 179 L 130 177 Q 130 142 128 126 H 70 Z M 402 220 H 424 L 438 199 L 471 223 Q 477 227 477 232 Q 477 237 467 240 Q 457 244 449 279 Q 432 350 410 387 Q 448 437 512 459 V 468 H 507 Q 492 468 484 470 Q 475 473 471 480 Q 466 486 463 486 Q 457 486 433 463 Q 409 439 393 413 Q 353 466 261 508 L 258 501 Q 342 449 377 386 Q 347 325 336 236 H 321 Q 321 317 312 363 Q 304 409 283 441 Q 262 473 218 504 L 213 498 Q 248 463 264 430 Q 280 396 285 351 Q 291 306 291 226 V 138 Q 291 108 289 80 L 328 104 H 369 V 53 Q 369 38 367 2 L 409 21 Q 416 23 416 26 Q 416 29 410 34 L 402 40 V 104 H 451 L 465 83 L 499 110 Q 507 116 507 120 Q 507 124 496 124 Q 485 124 473 138 L 443 172 L 436 168 L 450 120 H 402 Z M 321 220 H 369 V 120 H 321 Z M 391 359 Q 413 312 425 236 H 348 Q 365 312 391 359 Z M 103 438 V 310 Q 103 276 101 246 L 134 269 H 197 L 213 250 L 243 270 Q 249 275 249 277 Q 249 280 243 284 L 232 292 V 424 L 259 420 L 260 431 L 154 455 Q 108 464 82 477 Q 77 479 75 479 Q 71 479 69 474 L 52 443 Z M 133 323 H 202 V 284 H 133 Z M 133 376 H 202 V 338 H 133 Z M 202 390 H 133 V 434 L 202 427 Z" fill="black" />
  </g>
  <g class="defect" id="01">
    <path d="M 141 237 Q 111 232 130 211" fill="none" stroke="red" stroke-width="3" />
  </g>
</svg>