<svg xmlns="http://www.w3.org/2000/svg" width="512" height="512" viewBox="0 0 512 512">
  <g class="glyph">
    <path d="M 484 82 Q 489 87 489 89 Q 489 92 482 92 H 255 V 370 Q 255 415 257 428 Q 258 442 258 445 Q 258 456 243 464 Q 228 472 224 472 Q 220 472 220 462 Q 220 459 220 454 Q 223 429 223 380 V 92 H 54 Q 31 92 18 98 L 0 76 Q 22 79 43 79 H 223 Q 223 28 221 0 L 261 16 Q 267 18 267 21 Q 267 23 263 26 L 255 33 V 79 H 420 L 452 42 Z M 502 464 501 471 Q 477 485 456 490 Q 453 497 450 497 Q 442 497 416 453 Q 390 410 375 320 Q 325 447 223 512 L 218 506 Q 281 453 320 377 Q 358 301 378 191 H 336 Q 308 244 265 298 L 259 293 Q 306 214 332 106 L 369 120 Q 379 124 379 129 Q 379 134 370 139 Q 360 143 355 155 Q 359 182 343 177 H 373 L 387 156 L 423 178 Q 432 182 432 187 Q 432 192 422 196 Q 413 201 409 216 Q 397 261 384 296 Q 418 437 502 464 Z M 201 157 Q 205 160 205 161 Q 205 163 200 167 L 188 174 V 364 Q 177 397 190 396 L 191 422 Q 191 430 177 438 Q 164 446 160 446 Q 157 446 157 440 V 404 H 59 V 431 Q 59 445 45 451 Q 31 456 28 456 Q 23 456 23 451 Q 23 446 24 439 Q 28 401 28 357 V 191 Q 28 157 26 130 L 58 153 H 156 L 170 132 Z M 157 266 V 167 H 122 V 266 Z M 95 266 V 167 H 59 V 266 Z M 157 390 V 279 H 122 V 390 Z M 95 390 V 279 H 59 V 390 Z" fill="black" />
  </g>
  <g class="defect" id="01">
    <path d="M 355 155 Q 359 182 343 177" fill="none" stroke="red" stroke-width="3" />
  </g>
  <g class="defect" id="02">
    <path d="M 501 471 Q 477 485 456 490" fill="none" stroke="red" stroke-width="3" />
  </g>
  <g class="defect" id="03">
    <path d="M 188 364 Q 177 397 190 396" fill="none" stroke="red" stroke-width="3" />
  </g>
</svg>