<svg xmlns="http://www.w3.org/2000/svg" width="512" height="512" viewBox="0 0 512 512">
  <g class="glyph">
    <path d="M 197 73 Q 197 38 219 0 L 258 14 Q 266 17 266 21 Q 266 25 258 28 Q 250 30 242 39 Q 234 48 216 73 H 356 L 373 47 L 413 73 Q 420 77 420 81 Q 420 85 414 89 L 402 97 V 197 Q 402 220 403 239 L 406 268 Q 406 275 389 285 Q 373 294 368 294 Q 363 294 363 287 V 266 H 124 V 277 Q 124 284 121 288 Q 118 292 106 298 Q 94 303 89 303 Q 84 303 84 293 Q 84 290 84 286 Q 87 256 87 203 V 110 Q 87 65 84 43 L 129 73 Z M 363 161 V 88 H 124 V 161 Z M 363 250 V 176 H 124 V 250 Z M 263 352 H 416 L 447 317 L 484 359 Q 488 363 488 366 Q 488 369 480 369 H 263 V 426 Q 263 457 263 471 L 264 491 Q 264 497 248 505 Q 231 512 227 512 Q 221 512 221 501 Q 221 498 222 480 Q 223 462 223 425 V 369 H 55 Q 36 369 20 375 L 0 350 Q 18 352 43 352 H 223 V 320 Q 223 299 221 272 L 273 296 Q 279 298 279 301 Q 279 303 274 307 L 263 316 Z" fill="black" />
  </g>
  <g class="defect" id="01">
    <path d="M 197 73 Q 197 38 219 0" fill="none" stroke="red" stroke-width="3" />
  </g>
</svg>