<svg xmlns="http://www.w3.org/2000/svg" width="512" height="512" viewBox="0 0 512 512">
  <g class="glyph">
    <path d="M 412 199 H 446 L 473 168 L 508 202 Q 512 205 512 209 Q 512 214 503 214 H 266 Q 245 214 230 220 L 216 204 Q 205 207 166 250 L 159 247 L 179 202 H 150 V 418 Q 150 443 146 453 Q 142 463 123 476 Q 104 488 100 488 Q 95 488 94 482 Q 91 465 79 456 Q 67 447 35 438 L 37 430 Q 74 435 90 435 Q 105 435 111 432 Q 117 429 117 420 V 227 Q 96 286 72 325 Q 48 364 6 407 L 0 402 Q 69 304 94 202 H 66 Q 44 202 30 208 L 11 184 Q 30 188 55 188 H 181 L 198 167 L 224 190 Q 230 194 230 197 Q 230 198 230 199 H 285 V 110 H 273 Q 252 110 237 116 L 217 92 Q 237 95 261 95 H 285 V 51 Q 285 26 283 1 L 329 21 Q 335 23 335 27 Q 335 30 328 34 L 319 39 V 95 H 378 V 50 Q 378 28 376 0 L 419 19 Q 428 23 428 26 Q 428 28 422 31 L 412 38 V 95 H 424 L 451 64 L 484 100 Q 489 104 489 107 Q 489 110 480 110 H 412 Z M 319 199 H 378 V 110 H 319 Z M 132 128 170 67 H 76 Q 54 67 40 73 L 20 48 Q 40 51 64 51 H 167 L 189 29 L 220 61 Q 224 66 224 69 Q 224 74 213 75 Q 202 76 189 88 Q 175 99 142 133 Q 158 143 158 156 Q 158 169 152 177 Q 146 184 139 184 Q 132 184 128 175 Q 114 142 62 114 L 66 108 Q 112 118 132 128 Z M 415 445 H 285 V 472 Q 285 484 271 490 Q 257 495 253 495 Q 246 495 246 483 V 478 Q 249 453 249 406 V 295 Q 249 267 246 242 L 285 267 H 407 L 425 243 L 461 270 Q 466 273 466 275 Q 466 278 461 281 L 452 286 V 405 Q 452 427 454 466 Q 471 487 439 483 Q 424 490 419 490 Q 415 490 415 483 Z M 285 347 H 415 V 281 L 285 281 Z M 415 361 H 285 V 432 H 415 Z" fill="black" />
  </g>
  <g class="defect" id="01">
    <path d="M 454 466 Q 471 487 439 483" fill="none" stroke="red" stroke-width="3" />
  </g>
</svg>