<svg xmlns="http://www.w3.org/2000/svg" width="512" height="512" viewBox="0 0 512 512">
  <g class="glyph">
    <path d="M 457 461 H 271 V 483 Q 271 493 268 497 Q 265 501 251 506 Q 238 510 232 510 Q 227 510 227 504 Q 227 498 227 491 Q 234 437 234 368 V 143 Q 234 93 231 65 L 280 95 H 314 Q 328 42 328 0 L 380 21 Q 387 24 387 29 Q 387 35 380 38 Q 363 44 338 95 H 446 L 467 64 L 506 91 Q 512 95 512 98 Q 512 102 506 106 L 495 115 V 356 Q 495 403 499 441 Q 502 478 502 479 Q 502 490 486 497 Q 470 504 464 504 Q 457 504 457 495 Z M 271 446 H 457 V 110 H 271 Z M 381 272 Q 442 352 442 378 Q 442 393 437 402 Q 432 412 426 412 Q 413 412 407 393 Q 396 355 367 302 Q 333 369 283 425 L 277 420 Q 322 347 350 273 Q 324 229 278 164 L 285 159 Q 329 206 360 245 Q 379 192 394 127 L 435 149 Q 442 153 442 157 Q 442 162 431 167 Q 421 172 413 193 Q 405 214 381 272 Z M 107 92 H 63 Q 59 73 25 98 L 4 74 Q 25 77 50 77 H 158 L 190 39 L 226 82 Q 229 86 229 89 Q 229 92 222 92 H 148 Q 123 170 100 218 H 146 L 166 192 L 197 220 Q 200 223 200 225 Q 200 227 197 230 L 189 237 V 349 Q 189 377 190 397 L 192 427 Q 192 437 176 446 Q 161 454 156 454 Q 151 454 151 447 V 420 H 99 V 457 Q 99 467 96 471 Q 92 475 80 480 Q 68 484 61 484 Q 43 502 55 478 Q 55 472 55 466 Q 57 449 59 407 Q 61 365 61 348 V 283 Q 37 317 5 348 L 0 344 Q 80 236 107 92 Z M 151 405 V 233 H 99 V 405 Z" fill="black" />
  </g>
  <g class="defect" id="01">
    <path d="M 63 92 Q 59 73 25 98" fill="none" stroke="red" stroke-width="3" />
  </g>
  <g class="defect" id="02">
    <path d="M 61 484 Q 43 502 55 478" fill="none" stroke="red" stroke-width="3" />
  </g>
</svg>