<svg xmlns="http://www.w3.org/2000/svg" width="512" height="512" viewBox="0 0 512 512">
  <g class="glyph">
    <path d="M 345 229 H 410 L 440 194 L 474 235 Q 477 239 477 241 Q 477 244 469 244 H 345 V 348 H 427 L 459 310 L 496 354 Q 499 359 499 360 Q 499 362 491 362 H 345 Q 345 431 346 456 Q 347 481 347 486 Q 347 492 343 496 Q 340 501 326 505 Q 313 510 307 510 Q 301 510 301 499 L 304 442 Q 306 404 306 370 V 125 H 280 Q 255 167 213 218 L 205 212 Q 269 107 295 0 L 337 21 Q 344 25 344 29 Q 344 33 337 35 Q 315 23 317 62 Q 304 86 290 110 H 440 L 472 73 L 508 116 Q 512 120 512 122 Q 512 125 504 125 H 345 Z M 161 421 H 102 V 457 Q 102 464 98 468 Q 108 457 82 480 Q 69 487 64 487 Q 59 487 59 480 Q 59 473 61 461 Q 63 449 64 408 Q 66 367 66 349 V 261 Q 37 313 7 346 L 0 340 Q 65 241 91 88 H 57 Q 36 88 20 94 L 0 71 Q 21 74 45 74 H 161 L 192 37 L 227 79 Q 231 83 231 86 Q 231 88 224 88 H 133 Q 112 162 90 212 H 152 L 174 188 L 207 219 Q 211 222 211 225 Q 211 228 207 229 L 198 235 V 350 Q 183 379 199 399 L 201 431 Q 201 440 185 447 Q 169 454 165 454 Q 161 454 161 446 Z M 102 407 H 161 V 227 H 102 Z" fill="black" />
  </g>
  <g class="defect" id="01">
    <path d="M 198 350 Q 183 379 199 399" fill="none" stroke="red" stroke-width="3" />
  </g>
  <g class="defect" id="02">
    <path d="M 98 468 Q 108 457 82 480" fill="none" stroke="red" stroke-width="3" />
  </g>
  <g class="defect" id="03">
    <path d="M 337 35 Q 315 23 317 62" fill="none" stroke="red" stroke-width="3" />
  </g>
</svg>