<svg xmlns="http://www.w3.org/2000/svg" width="512" height="512" viewBox="0 0 512 512">
  <g class="glyph">
    <path d="M 263 23 H 440 L 454 3 L 490 26 Q 496 29 496 31 Q 496 34 491 38 L 481 46 V 59 Q 481 74 482 91 L 484 118 Q 484 127 470 136 Q 457 146 452 146 Q 446 146 446 131 H 336 L 374 146 Q 380 148 380 150 Q 380 153 375 156 L 366 161 V 180 H 421 L 445 150 L 473 184 Q 476 187 476 191 Q 476 194 469 194 H 366 V 236 H 454 L 477 208 L 504 239 Q 508 245 508 248 Q 508 251 501 251 H 251 Q 227 251 213 257 L 194 233 Q 215 236 239 236 H 331 V 194 H 269 Q 246 194 232 200 L 213 177 Q 233 180 258 180 H 331 Q 331 155 329 131 H 255 Q 255 139 252 143 Q 248 147 237 151 Q 210 155 223 155 Q 219 155 219 147 L 220 120 Q 222 104 222 80 V 50 Q 222 29 219 0 Z M 370 39 H 327 V 116 H 370 Z M 446 116 V 39 H 401 V 116 Z M 296 39 H 255 V 116 H 296 Z M 100 383 V 422 Q 100 435 85 443 Q 69 450 65 450 Q 59 450 59 444 Q 59 439 61 429 Q 65 393 65 334 V 222 Q 41 258 7 294 L 0 288 Q 90 192 101 55 H 65 Q 46 55 29 60 L 10 39 Q 30 41 54 41 H 149 L 174 8 L 207 45 Q 210 50 210 52 Q 210 55 204 55 H 138 Q 116 132 86 187 H 140 L 158 163 L 190 188 Q 194 191 194 193 Q 194 195 191 199 L 180 207 V 318 Q 180 344 181 363 L 182 392 Q 182 403 168 410 Q 153 418 149 418 Q 146 418 146 410 V 383 Z M 100 203 V 367 H 146 V 203 Z M 363 323 Q 384 285 394 252 L 429 271 Q 433 274 433 276 Q 433 279 426 282 Q 420 285 411 292 Q 402 300 382 323 H 427 L 450 295 L 477 325 Q 482 330 482 334 Q 482 338 473 338 H 365 V 388 H 456 L 480 359 L 508 391 Q 512 397 512 400 Q 512 403 504 403 H 365 L 366 472 Q 366 483 351 491 Q 335 500 331 500 Q 325 500 325 491 Q 325 484 325 478 Q 328 450 329 403 H 246 Q 223 403 209 409 L 189 385 Q 225 388 235 388 H 329 V 338 H 274 Q 251 338 237 344 L 218 320 Q 238 323 263 323 H 299 Q 291 318 290 309 Q 286 279 269 259 L 274 253 Q 325 277 325 298 Q 325 315 313 323 Z" fill="black" />
  </g>
  <g class="defect" id="01">
    <path d="M 237 151 Q 210 155 223 155" fill="none" stroke="red" stroke-width="3" />
  </g>
  <g class="defect" id="02">
    <path d="M 189 385 Q 225 388 235 388" fill="none" stroke="red" stroke-width="3" />
  </g>
  <g class="defect" id="03">
    <path d="M 0 288 Q 90 192 101 55" fill="none" stroke="red" stroke-width="3" />
  </g>
</svg>