<svg xmlns="http://www.w3.org/2000/svg" width="512" height="512" viewBox="0 0 512 512">
  <g class="glyph">
    <path d="M 319 128 H 249 Q 227 128 213 133 L 194 111 Q 214 114 238 114 H 319 V 72 Q 319 31 317 0 L 362 17 Q 369 20 369 22 Q 369 25 364 30 L 356 38 V 114 H 432 L 466 74 L 501 117 Q 504 122 504 125 Q 504 128 497 128 H 356 V 218 H 419 L 448 184 L 479 222 Q 482 226 482 229 Q 482 232 475 232 H 373 Q 425 380 512 392 V 401 Q 475 404 468 423 Q 465 429 461 429 Q 451 429 413 378 Q 376 327 364 232 H 356 V 404 Q 356 438 357 451 L 358 474 Q 358 480 342 488 Q 325 495 322 495 Q 317 495 317 484 L 318 456 Q 319 439 319 403 V 244 Q 285 317 251 362 Q 217 406 162 446 L 156 439 Q 239 358 289 232 H 253 Q 231 232 217 238 L 198 215 Q 217 218 242 218 H 319 Z M 137 156 H 166 L 191 127 L 219 160 Q 237 165 223 167 Q 223 170 215 170 H 137 V 223 Q 177 240 191 251 Q 205 262 205 274 Q 205 287 199 300 Q 192 314 182 314 Q 173 314 170 296 Q 164 264 137 233 V 388 Q 137 427 138 446 L 139 476 Q 139 483 124 490 Q 122 482 104 496 Q 99 496 99 485 L 100 450 Q 116 428 101 387 V 253 Q 63 334 7 398 L 0 392 Q 60 306 97 170 H 65 Q 42 170 28 177 L 9 153 Q 29 156 54 156 H 101 V 69 Q 58 76 21 79 L 20 69 Q 116 47 180 14 L 202 45 Q 205 50 205 52 Q 205 56 202 56 Q 200 56 199 55 Q 193 54 188 54 Q 173 54 137 62 Z" fill="black" />
  </g>
  <g class="defect" id="01">
    <path d="M 100 450 Q 116 428 101 387" fill="none" stroke="red" stroke-width="3" />
  </g>
  <g class="defect" id="02">
    <path d="M 219 160 Q 237 165 223 167" fill="none" stroke="red" stroke-width="3" />
  </g>
  <g class="defect" id="03">
    <path d="M 124 490 Q 122 482 104 496" fill="none" stroke="red" stroke-width="3" />
  </g>
</svg>