<svg xmlns="http://www.w3.org/2000/svg" width="512" height="512" viewBox="0 0 512 512">
  <g class="glyph">
    <path d="M 133 239 Q 163 248 181 258 Q 199 269 199 285 Q 199 291 196 305 Q 192 319 180 319 Q 175 319 170 314 Q 166 309 164 303 Q 157 275 133 252 V 385 Q 119 453 134 459 Q 135 484 135 486 Q 135 501 120 506 Q 118 511 99 511 Q 93 511 93 499 L 95 442 Q 97 404 97 373 V 272 Q 72 331 7 400 L 2 392 Q 56 311 85 210 H 56 Q 33 210 19 216 L 0 193 Q 21 196 45 196 H 97 V 90 Q 97 48 95 0 L 144 22 Q 150 25 150 26 Q 150 28 144 33 L 133 40 V 162 Q 168 111 185 63 L 218 90 Q 224 95 224 98 Q 224 101 216 104 Q 208 107 191 121 Q 175 136 133 178 V 196 H 166 L 192 166 L 220 199 Q 224 205 224 208 Q 224 210 216 210 H 133 Z M 406 208 H 336 Q 361 313 407 377 Q 453 441 509 449 L 508 460 Q 484 462 475 466 Q 466 470 459 480 Q 452 489 448 489 Q 437 489 392 427 Q 348 365 321 208 H 275 Q 273 329 246 391 Q 218 453 157 512 L 149 507 Q 197 446 217 383 Q 237 321 237 197 V 103 Q 237 66 236 24 L 285 60 H 398 L 419 32 L 458 64 Q 462 67 462 70 Q 462 73 455 77 L 444 84 V 166 L 447 219 Q 447 229 433 237 Q 418 245 412 245 Q 406 245 406 237 Z M 275 192 H 406 V 75 H 275 Z M 39 65 Q 82 105 82 131 Q 82 142 76 153 Q 70 163 61 163 Q 52 163 47 157 Q 44 153 44 146 V 142 Q 45 133 45 124 Q 45 99 33 70 Z" fill="black" />
  </g>
  <g class="defect" id="01">
    <path d="M 133 385 Q 119 453 134 459" fill="none" stroke="red" stroke-width="3" />
  </g>
  <g class="defect" id="02">
    <path d="M 120 506 Q 118 511 99 511" fill="none" stroke="red" stroke-width="3" />
  </g>
</svg>