<svg xmlns="http://www.w3.org/2000/svg" width="512" height="512" viewBox="0 0 512 512">
  <g class="glyph">
    <path d="M 166 81 Q 129 115 55 152 L 51 145 Q 139 88 188 0 L 227 18 Q 236 23 236 27 Q 236 33 226 33 Q 217 33 206 44 Q 196 54 184 65 H 304 L 330 40 L 364 71 Q 370 77 370 82 Q 370 86 357 88 Q 343 90 324 106 Q 306 121 285 136 Q 385 154 426 168 Q 467 181 476 197 Q 486 213 486 222 Q 486 231 481 235 Q 477 239 470 239 Q 464 239 445 224 Q 414 199 373 182 Q 331 165 269 147 Q 163 213 1 239 L 0 229 Q 97 203 167 169 Q 237 135 301 81 Z M 234 340 Q 152 451 3 497 L 1 488 Q 141 421 204 319 H 69 Q 46 319 32 325 L 13 301 Q 49 304 58 304 H 234 V 278 Q 234 217 232 189 L 280 207 Q 287 209 287 213 Q 287 218 281 222 L 270 230 V 304 H 306 L 359 218 L 401 240 Q 406 243 406 247 Q 406 250 399 252 Q 382 255 367 266 Q 352 276 320 304 H 424 L 456 271 L 490 307 Q 494 313 494 316 Q 478 301 486 319 H 288 Q 305 370 381 404 Q 438 438 496 443 V 453 Q 473 455 463 460 Q 454 465 451 474 Q 448 483 441 483 Q 427 483 371 441 Q 315 399 275 319 H 270 V 422 Q 270 456 271 470 L 272 492 Q 272 502 256 507 Q 240 512 237 512 Q 232 512 232 505 Q 232 498 233 479 Q 234 460 234 421 Z M 110 219 Q 144 236 159 247 Q 174 258 174 271 Q 174 284 168 293 Q 162 301 153 301 Q 139 301 137 283 Q 130 246 104 226 Z" fill="black" />
  </g>
  <g class="defect" id="01">
    <path d="M 494 316 Q 478 301 486 319" fill="none" stroke="red" stroke-width="3" />
  </g>
  <g class="defect" id="02">
    <path d="M 288 319 Q 305 370 381 404" fill="none" stroke="red" stroke-width="3" />
  </g>
  <g class="defect" id="03">
    <path d="M 13 301 Q 49 304 58 304" fill="none" stroke="red" stroke-width="3" />
  </g>
</svg>