<svg xmlns="http://www.w3.org/2000/svg" width="512" height="512" viewBox="0 0 512 512">
  <g class="glyph">
    <path d="M 305 0 Q 342 12 352 24 Q 363 36 363 48 Q 363 60 355 68 Q 348 75 338 75 Q 324 75 324 58 Q 324 28 301 7 Z M 112 178 Q 80 184 41 202 Q 36 204 34 204 Q 32 204 29 200 L 6 166 Q 24 163 35 151 Q 46 140 70 94 Q 94 49 109 7 L 147 29 Q 154 34 154 36 Q 154 40 146 43 Q 138 46 135 50 Q 131 54 105 91 Q 63 128 48 169 L 121 163 Q 140 130 157 92 L 189 116 Q 196 121 196 124 Q 196 129 189 130 Q 175 132 161 154 Q 124 209 65 276 L 153 268 Q 146 241 132 222 L 137 216 Q 193 255 193 286 Q 193 296 187 306 Q 180 316 174 316 Q 167 316 162 312 Q 157 308 157 301 L 155 281 Q 73 300 48 316 Q 44 319 40 319 Q 36 319 34 314 L 16 281 Q 38 277 53 262 Q 68 247 112 178 Z M 249 94 Q 249 100 249 106 Q 249 127 243 140 Q 234 156 218 156 Q 210 156 204 153 Q 198 149 198 139 Q 198 129 211 117 Q 224 105 229 91 Q 232 80 232 62 V 52 L 241 52 Q 245 67 247 79 H 449 L 467 58 L 501 90 Q 508 96 508 99 Q 508 102 493 104 Q 479 106 465 115 Q 452 125 431 144 L 423 139 L 448 94 Z M 310 102 Q 333 108 347 119 Q 361 131 361 143 Q 361 155 353 164 Q 345 174 337 174 Q 329 174 325 170 Q 321 168 321 161 V 159 Q 337 165 322 149 Q 322 128 306 106 Z M 480 181 Q 484 186 484 189 Q 484 193 477 193 H 260 Q 239 193 223 198 L 203 175 Q 227 179 248 179 H 422 L 449 149 Z M 320 309 H 251 Q 230 309 214 315 L 194 292 Q 215 295 239 295 H 355 Q 386 232 395 198 L 431 216 Q 439 219 439 223 Q 439 227 431 230 Q 422 233 411 245 Q 400 257 374 295 H 434 L 464 263 L 497 298 Q 501 301 501 305 Q 501 309 493 309 H 358 V 381 H 413 L 444 346 L 482 386 Q 486 389 486 392 Q 486 395 476 395 H 358 Q 358 435 359 460 Q 359 486 359 490 Q 359 495 355 498 Q 351 502 340 507 Q 329 512 324 512 Q 319 512 318 508 Q 317 506 317 500 Q 317 492 318 477 Q 320 450 320 395 H 262 Q 241 395 225 401 L 205 378 Q 226 381 251 381 H 320 Z M 258 203 Q 311 230 311 254 Q 311 269 304 278 Q 298 287 288 287 Q 274 287 274 266 Q 274 233 253 207 Z M 134 323 Q 167 345 179 360 Q 192 374 192 388 Q 192 402 186 413 Q 180 424 170 424 Q 160 424 159 410 Q 154 361 128 328 Z M 86 334 Q 127 383 127 413 Q 127 428 119 438 Q 112 447 103 447 Q 94 447 91 442 Q 89 439 89 434 Q 89 431 89 427 Q 91 416 91 402 Q 91 368 80 337 Z M 49 337 Q 56 380 56 409 Q 56 438 45 450 Q 34 463 22 463 Q 10 463 5 458 Q 0 453 0 447 Q 0 442 11 427 Q 35 395 41 337 Z" fill="black" />
  </g>
  <g class="defect" id="01">
    <path d="M 105 91 Q 63 128 48 169" fill="none" stroke="red" stroke-width="3" />
  </g>
  <g class="defect" id="02">
    <path d="M 321 159 Q 337 165 322 149" fill="none" stroke="red" stroke-width="3" />
  </g>
</svg>