<svg xmlns="http://www.w3.org/2000/svg" width="512" height="512" viewBox="0 0 512 512">
  <g class="glyph">
    <path d="M 106 168 Q 70 175 34 192 Q 30 194 28 194 Q 25 194 22 190 L 0 157 Q 18 154 29 140 Q 41 126 67 79 Q 94 31 103 0 L 140 27 Q 147 31 147 35 Q 147 38 137 39 Q 128 41 117 57 Q 70 126 41 160 L 114 154 Q 132 123 149 86 L 181 110 Q 187 114 187 118 Q 187 122 182 123 Q 177 124 169 131 Q 162 139 157 146 Q 119 201 62 265 L 153 257 Q 149 235 131 209 L 138 202 Q 189 241 189 272 Q 189 283 183 293 Q 178 302 171 302 Q 164 302 160 298 Q 155 294 155 284 Q 155 274 155 270 Q 103 282 83 288 Q 62 295 53 301 Q 43 307 41 307 Q 39 307 35 302 L 11 269 Q 33 266 48 250 Q 63 234 106 168 Z M 225 96 H 316 V 51 H 257 Q 237 51 225 57 L 209 34 Q 226 37 247 37 H 418 L 443 6 L 474 41 Q 478 45 478 48 Q 478 51 471 51 H 347 V 96 H 450 L 469 73 L 506 101 Q 512 107 512 110 Q 512 115 500 116 Q 488 117 478 126 Q 468 134 448 161 L 438 157 L 457 110 H 347 V 170 Q 347 186 348 200 L 349 225 Q 349 232 346 235 Q 342 238 331 244 Q 320 250 317 250 Q 314 250 313 246 Q 312 245 312 242 Q 312 235 314 221 Q 329 199 316 157 V 110 H 226 V 113 Q 226 138 217 154 Q 207 171 193 171 Q 185 171 179 165 Q 174 159 174 150 Q 174 141 185 132 Q 212 105 212 72 H 221 Q 222 81 225 96 Z M 300 166 H 231 V 151 H 300 Z M 429 167 H 360 V 153 H 429 Z M 438 219 H 361 V 204 H 438 Z M 299 219 H 221 V 204 H 299 Z M 446 274 Q 450 278 450 282 Q 450 285 443 285 H 258 Q 239 285 227 291 L 211 267 Q 227 270 249 270 H 391 L 420 242 Z M 310 350 H 230 Q 210 350 198 356 L 182 333 Q 199 336 220 336 H 432 L 463 304 L 494 338 Q 499 343 499 347 Q 499 350 492 350 H 326 L 347 360 Q 352 363 352 367 Q 352 372 349 374 Q 346 377 340 377 Q 335 377 317 390 Q 300 403 251 444 L 417 438 Q 398 408 371 386 L 375 378 Q 466 425 466 467 Q 466 478 461 485 Q 455 492 448 492 Q 441 492 435 478 Q 430 465 422 449 L 278 469 Q 241 474 221 486 Q 218 487 215 487 Q 212 487 210 483 L 192 444 Q 222 442 243 423 Q 265 404 310 350 Z M 127 311 Q 149 326 163 339 Q 176 351 181 360 Q 186 369 186 381 Q 186 393 180 403 Q 175 414 167 414 Q 155 414 154 400 Q 149 348 124 316 Z M 85 321 Q 119 367 119 399 Q 119 415 113 424 Q 107 433 99 433 Q 91 433 88 428 Q 85 424 85 415 Q 85 412 86 407 Q 87 393 87 370 Q 87 348 79 324 Z M 46 333 Q 53 376 53 404 Q 53 431 42 444 Q 31 457 20 457 Q 9 457 5 452 Q 0 447 0 441 Q 0 435 10 421 Q 34 389 39 333 Z" fill="black" />
  </g>
  <g class="defect" id="01">
    <path d="M 314 221 Q 329 199 316 157" fill="none" stroke="red" stroke-width="3" />
  </g>
</svg>