<svg xmlns="http://www.w3.org/2000/svg" width="512" height="512" viewBox="0 0 512 512">
  <g class="glyph">
    <path d="M 214 189 Q 219 195 219 197 Q 219 199 212 199 H 134 V 237 Q 207 264 207 294 Q 207 300 203 311 Q 198 321 188 321 Q 177 321 174 305 Q 171 297 160 279 Q 148 261 134 247 V 385 Q 134 436 135 462 Q 151 487 136 492 Q 136 497 133 500 Q 130 504 118 508 Q 106 512 101 512 Q 95 512 95 503 L 98 446 Q 100 408 100 373 V 260 Q 72 324 7 405 L 0 400 Q 62 302 88 199 H 58 Q 35 199 21 205 L 3 182 Q 22 185 47 185 H 100 V 91 Q 100 49 98 0 L 144 21 Q 161 12 150 26 Q 150 29 145 33 L 134 40 V 161 Q 164 103 179 57 L 209 79 Q 215 82 215 85 Q 215 88 208 90 Q 201 93 186 109 Q 171 126 134 174 V 185 H 161 L 186 156 Z M 505 57 Q 509 62 509 63 Q 509 66 502 66 H 357 Q 341 109 312 149 H 436 L 451 131 L 483 154 Q 487 156 487 158 Q 487 161 483 163 L 472 170 V 370 Q 472 405 473 431 L 475 471 Q 475 479 460 488 Q 446 496 443 496 Q 439 496 439 489 V 456 H 256 V 485 Q 256 493 254 497 Q 251 500 242 505 Q 232 510 228 510 Q 223 510 223 500 L 224 468 Q 226 449 226 424 V 175 Q 226 155 224 126 L 257 149 H 298 Q 331 88 321 66 H 260 Q 242 66 228 72 L 211 48 Q 228 51 251 51 H 442 L 469 19 Z M 370 241 V 163 H 325 V 241 Z M 439 441 V 163 H 398 V 441 Z M 297 441 V 163 H 256 V 441 Z M 370 333 V 256 H 325 V 333 Z M 370 441 V 347 H 325 V 441 Z M 33 62 Q 63 88 73 103 Q 83 118 83 132 Q 83 145 76 152 Q 70 158 63 158 Q 56 158 52 153 Q 48 147 48 139 Q 47 106 27 67 Z" fill="black" />
  </g>
  <g class="defect" id="01">
    <path d="M 135 462 Q 151 487 136 492" fill="none" stroke="red" stroke-width="3" />
  </g>
  <g class="defect" id="02">
    <path d="M 298 149 Q 331 88 321 66" fill="none" stroke="red" stroke-width="3" />
  </g>
  <g class="defect" id="03">
    <path d="M 144 21 Q 161 12 150 26" fill="none" stroke="red" stroke-width="3" />
  </g>
</svg>