<svg xmlns="http://www.w3.org/2000/svg" width="512" height="512" viewBox="0 0 512 512">
  <g class="glyph">
    <path d="M 363 119 Q 393 64 409 0 L 452 29 Q 459 34 459 37 Q 459 41 448 44 Q 438 48 424 61 Q 411 74 376 119 H 424 L 454 85 L 489 123 Q 492 127 492 130 Q 492 134 485 134 H 353 V 227 H 406 L 435 191 L 470 230 Q 474 234 474 238 Q 474 242 467 242 H 353 V 338 H 427 L 461 301 L 498 341 Q 502 345 502 348 Q 502 352 494 352 H 353 V 383 Q 353 419 354 444 Q 355 480 355 481 Q 355 490 351 495 Q 347 499 333 506 Q 320 512 315 512 Q 310 512 310 498 L 312 435 Q 314 396 314 352 H 242 Q 219 352 204 358 L 185 335 Q 206 338 231 338 H 314 V 242 H 266 Q 243 242 228 248 L 209 224 Q 230 227 255 227 H 314 V 134 H 246 Q 224 134 209 140 L 190 116 Q 210 119 235 119 Z M 242 5 Q 292 26 292 44 Q 323 63 309 76 Q 309 91 301 101 Q 293 111 284 111 Q 275 111 272 106 Q 269 101 269 91 Q 264 44 238 10 Z M 148 299 H 81 Q 81 357 64 403 Q 47 449 7 499 L 0 495 Q 26 446 37 402 Q 47 358 47 268 V 81 Q 47 53 46 24 L 86 53 H 142 L 160 28 L 195 56 Q 200 59 200 61 Q 200 64 195 67 L 183 74 V 436 Q 183 453 178 462 Q 173 472 155 482 Q 137 493 133 493 Q 129 493 126 485 Q 122 470 112 463 Q 103 456 76 449 L 77 439 Q 105 444 120 444 Q 135 444 141 439 Q 148 435 148 421 Z M 81 164 H 148 V 69 H 81 Z M 148 178 H 81 V 284 H 148 Z" fill="black" />
  </g>
  <g class="defect" id="01">
    <path d="M 242 5 Q 292 26 292 44" fill="none" stroke="red" stroke-width="3" />
  </g>
  <g class="defect" id="02">
    <path d="M 292 44 Q 323 63 309 76" fill="none" stroke="red" stroke-width="3" />
  </g>
</svg>