<svg xmlns="http://www.w3.org/2000/svg" width="512" height="512" viewBox="0 0 512 512">
  <g class="glyph">
    <path d="M 104 176 Q 53 191 42 198 Q 36 202 34 202 Q 31 202 29 198 L 6 165 Q 22 160 31 152 Q 41 143 64 91 Q 88 39 95 0 L 139 24 Q 148 28 148 31 Q 148 35 138 37 Q 129 40 118 59 Q 89 110 48 165 L 114 159 Q 141 114 150 85 L 188 110 Q 195 115 195 118 Q 195 121 186 123 Q 177 125 162 148 Q 118 213 51 292 L 143 280 Q 137 255 121 238 L 126 233 Q 158 249 169 261 Q 180 272 180 287 Q 180 319 161 319 Q 156 319 153 315 Q 151 311 150 306 Q 149 301 148 297 Q 147 294 147 292 Q 73 310 44 327 Q 41 330 39 330 Q 37 330 36 327 Q 35 325 34 325 L 11 292 Q 24 288 30 283 Q 37 278 60 245 Q 82 212 104 176 Z M 272 35 H 378 L 392 15 L 427 36 Q 433 39 433 41 Q 433 44 431 46 L 418 56 V 84 Q 418 98 419 109 L 422 130 Q 422 137 406 141 Q 390 146 387 146 Q 384 146 384 139 V 126 H 273 Q 273 138 270 141 Q 267 145 256 148 Q 258 152 241 152 Q 237 152 237 143 L 239 94 V 68 Q 239 47 238 18 Z M 384 113 V 48 H 273 V 113 Z M 227 173 H 274 L 285 157 L 315 177 Q 321 180 321 182 Q 321 185 319 187 L 306 197 V 222 Q 306 238 308 250 L 309 272 Q 309 278 297 283 Q 285 289 281 289 Q 276 289 276 281 V 266 H 224 V 276 Q 224 285 222 289 Q 220 292 210 297 Q 201 301 196 301 Q 190 301 190 290 L 192 235 V 200 Q 192 181 190 152 Z M 276 252 V 187 H 224 V 252 Z M 379 173 H 428 L 440 155 L 470 176 Q 476 181 476 183 Q 476 185 471 190 L 465 195 V 220 Q 465 235 466 246 L 468 266 Q 468 272 454 279 Q 440 285 436 285 Q 433 285 433 278 V 265 H 375 V 274 Q 375 279 373 282 Q 371 284 361 288 Q 351 292 347 292 Q 342 292 342 282 L 344 232 V 200 Q 344 181 342 152 Z M 433 251 V 186 H 375 V 251 Z M 338 332 H 424 L 451 299 L 484 338 Q 488 342 488 344 Q 488 347 480 347 H 356 Q 402 428 504 442 V 451 Q 488 452 479 458 Q 470 464 465 476 Q 463 481 460 481 Q 449 481 406 447 Q 363 412 344 347 H 338 V 419 Q 338 436 340 457 L 342 489 Q 342 497 327 504 Q 311 512 306 512 Q 301 512 301 501 L 303 467 Q 304 446 304 418 V 353 Q 273 404 233 436 Q 192 467 124 493 L 120 486 Q 225 424 267 347 H 239 Q 216 347 202 353 L 181 329 Q 202 332 227 332 H 304 Q 304 310 303 284 L 344 297 Q 351 299 351 301 Q 351 305 347 308 L 338 314 Z M 137 330 Q 165 347 179 362 Q 193 376 193 391 Q 193 406 186 417 Q 167 410 173 429 Q 166 429 164 424 Q 162 419 161 408 Q 159 375 131 336 Z M 89 344 Q 131 383 131 415 Q 131 428 121 438 Q 111 449 101 449 Q 94 449 94 436 Q 94 433 94 429 Q 95 418 95 408 Q 84 358 83 348 Z M 50 349 Q 56 391 56 420 Q 56 449 44 465 Q 33 480 17 480 Q 0 480 0 470 Q 0 460 16 436 Q 31 412 36 393 Q 41 374 41 349 Z" fill="black" />
  </g>
  <g class="defect" id="01">
    <path d="M 95 408 Q 84 358 83 348" fill="none" stroke="red" stroke-width="3" />
  </g>
  <g class="defect" id="02">
    <path d="M 186 417 Q 167 410 173 429" fill="none" stroke="red" stroke-width="3" />
  </g>
  <g class="defect" id="03">
    <path d="M 256 148 Q 258 152 241 152" fill="none" stroke="red" stroke-width="3" />
  </g>
</svg>