<svg xmlns="http://www.w3.org/2000/svg" width="512" height="512" viewBox="0 0 512 512">
  <g class="glyph">
    <path d="M 130 109 V 164 H 149 L 169 141 L 192 168 Q 195 173 195 176 Q 195 178 189 178 H 130 V 237 H 164 L 185 212 L 208 240 Q 212 245 212 248 Q 212 251 205 251 H 130 V 280 Q 170 296 184 307 Q 198 318 198 330 Q 198 341 192 350 Q 187 359 180 359 Q 171 359 164 340 Q 157 322 130 293 V 380 Q 130 429 131 454 Q 132 478 132 480 Q 132 492 118 499 Q 104 507 97 507 Q 91 507 91 495 L 94 439 Q 96 402 96 368 V 313 Q 66 378 6 440 L 0 434 Q 58 349 88 251 H 59 Q 37 251 22 257 L 3 234 Q 24 237 49 237 H 96 V 178 Q 90 178 84 178 Q 58 178 44 184 L 25 162 Q 45 164 69 164 H 96 V 109 H 62 Q 41 109 26 114 L 7 92 Q 27 94 51 94 H 96 Q 96 43 93 0 L 143 22 Q 150 26 150 28 Q 150 32 143 36 L 130 44 V 94 H 156 L 181 65 L 208 97 Q 212 103 212 105 Q 212 109 205 109 Z M 356 139 V 180 H 439 L 466 148 L 496 183 Q 500 188 500 191 Q 500 195 493 195 H 254 Q 231 195 217 200 L 198 177 Q 218 180 243 180 H 318 V 139 H 281 Q 258 139 244 145 L 224 122 Q 245 124 270 124 H 318 V 85 H 258 Q 235 85 221 90 L 201 67 Q 222 70 247 70 H 318 Q 318 35 317 5 L 365 21 Q 373 23 373 26 Q 373 29 366 34 L 356 42 V 70 H 425 L 455 38 L 487 73 Q 491 78 491 81 Q 491 85 484 85 H 356 V 124 H 398 L 421 98 L 450 128 Q 455 132 455 135 Q 455 139 447 139 Z M 267 231 H 401 L 419 210 L 453 234 Q 459 238 459 242 Q 459 246 454 249 L 443 255 V 343 Q 443 358 444 372 L 447 395 Q 447 403 430 409 Q 413 415 411 415 Q 406 415 406 406 V 402 H 267 V 402 Q 267 412 253 418 Q 239 424 234 424 Q 230 424 230 414 L 231 389 Q 233 374 233 359 V 264 Q 243 242 230 213 Z M 406 282 V 247 H 267 V 282 Z M 406 334 V 297 H 267 V 334 Z M 406 386 V 349 H 267 V 386 Z M 287 414 315 439 Q 321 443 321 446 Q 321 450 318 450 Q 316 451 307 451 Q 297 451 284 458 Q 223 490 153 512 L 148 503 Q 221 469 287 414 Z M 345 418 Q 435 434 460 450 Q 485 467 485 486 Q 485 494 480 500 Q 476 507 469 507 Q 461 507 455 499 Q 432 475 409 459 Q 385 443 343 427 Z" fill="black" />
  </g>
  <g class="defect" id="01">
    <path d="M 233 264 Q 243 242 230 213" fill="none" stroke="red" stroke-width="3" />
  </g>
</svg>