<svg xmlns="http://www.w3.org/2000/svg" width="512" height="512" viewBox="0 0 512 512">
  <g class="glyph">
    <path d="M 435 159 V 426 Q 435 456 431 467 Q 427 478 408 491 Q 388 504 384 504 Q 379 504 379 494 Q 378 476 361 467 Q 343 458 318 452 L 321 441 Q 355 446 371 446 Q 387 446 393 443 Q 400 440 400 429 V 159 H 333 Q 295 159 297 165 L 278 142 Q 298 145 322 145 H 400 V 89 Q 400 46 398 0 L 451 23 Q 458 26 458 28 Q 458 31 451 36 L 435 44 V 145 H 453 L 478 114 L 508 148 Q 512 154 512 157 Q 512 159 504 159 Z M 106 166 Q 125 107 129 72 H 56 Q 34 72 20 78 L 0 53 Q 22 55 45 55 H 250 L 278 25 L 306 59 Q 310 65 310 68 Q 310 72 302 72 H 171 Q 154 111 123 166 H 231 L 249 143 L 287 173 Q 292 177 292 180 Q 292 183 286 186 L 272 193 V 430 Q 272 452 268 460 Q 244 468 246 479 Q 228 490 225 490 Q 220 490 220 481 Q 218 464 211 457 Q 203 450 174 442 L 176 434 Q 203 436 216 436 Q 229 436 234 433 Q 238 430 238 422 V 181 H 197 V 295 Q 197 343 198 369 Q 199 395 199 396 Q 199 405 185 414 Q 172 423 168 423 Q 164 423 164 412 L 166 357 Q 168 321 168 283 V 181 H 131 V 317 Q 131 369 132 393 Q 133 417 133 418 Q 133 428 119 436 Q 105 445 101 445 Q 96 445 96 435 L 100 377 Q 101 340 101 305 V 181 H 65 V 458 Q 65 464 63 468 Q 60 473 49 478 Q 38 484 34 484 Q 30 484 29 480 Q 28 479 28 476 Q 28 471 29 465 Q 34 422 34 381 V 211 Q 50 192 32 146 L 69 166 Z M 301 208 Q 336 235 353 260 Q 371 285 371 299 Q 371 313 362 325 Q 354 337 347 337 Q 332 337 331 319 Q 327 277 319 254 Q 312 232 297 214 Z" fill="black" />
  </g>
  <g class="defect" id="01">
    <path d="M 333 159 Q 295 159 297 165" fill="none" stroke="red" stroke-width="3" />
  </g>
  <g class="defect" id="02">
    <path d="M 34 211 Q 50 192 32 146" fill="none" stroke="red" stroke-width="3" />
  </g>
  <g class="defect" id="03">
    <path d="M 268 460 Q 244 468 246 479" fill="none" stroke="red" stroke-width="3" />
  </g>
</svg>