<svg xmlns="http://www.w3.org/2000/svg" width="512" height="512" viewBox="0 0 512 512">
  <g class="glyph">
    <path d="M 310 0 Q 341 8 359 21 Q 377 34 377 48 Q 377 62 368 72 Q 360 83 352 83 Q 344 83 340 80 Q 337 76 335 63 Q 329 25 307 5 Z M 81 61 H 139 L 153 39 L 187 61 Q 192 66 192 68 Q 192 71 185 74 L 179 77 V 425 Q 179 448 160 467 Q 141 487 136 487 Q 118 487 129 476 Q 128 466 118 457 Q 108 447 76 435 L 78 428 Q 110 434 122 434 Q 132 434 138 432 Q 143 429 143 419 V 296 H 79 Q 78 412 7 502 L 0 499 Q 46 411 46 288 V 90 Q 46 62 43 33 Z M 143 172 V 76 H 79 V 172 Z M 143 281 V 186 H 79 V 281 Z M 263 92 H 432 L 462 59 L 491 94 Q 497 100 497 104 Q 497 108 488 108 H 262 V 244 Q 262 347 240 405 Q 218 462 163 507 L 156 502 Q 195 459 211 411 Q 227 363 227 242 V 128 Q 246 84 225 72 Z M 383 283 V 458 H 443 L 474 420 L 509 461 Q 512 465 512 468 Q 512 472 505 472 H 277 Q 255 472 241 478 L 222 455 Q 242 458 267 458 H 348 V 283 H 321 Q 303 283 285 289 L 266 266 Q 288 268 311 268 H 348 V 171 Q 348 150 346 122 L 391 141 Q 415 144 399 147 Q 399 150 391 155 L 383 159 V 268 H 415 L 444 234 L 476 272 Q 479 276 479 279 Q 479 283 472 283 Z" fill="black" />
  </g>
  <g class="defect" id="01">
    <path d="M 136 487 Q 118 487 129 476" fill="none" stroke="red" stroke-width="3" />
  </g>
  <g class="defect" id="02">
    <path d="M 391 141 Q 415 144 399 147" fill="none" stroke="red" stroke-width="3" />
  </g>
  <g class="defect" id="03">
    <path d="M 227 128 Q 246 84 225 72" fill="none" stroke="red" stroke-width="3" />
  </g>
</svg>