<svg xmlns="http://www.w3.org/2000/svg" width="512" height="512" viewBox="0 0 512 512">
  <g class="glyph">
    <path d="M 189 256 H 96 Q 94 417 14 497 L 7 491 Q 35 450 46 404 Q 57 358 58 256 Q 32 256 19 262 L 0 239 Q 21 242 50 242 H 58 V 122 Q 58 94 56 67 L 91 87 H 110 Q 122 41 123 0 L 169 17 Q 176 20 176 23 Q 176 27 168 30 Q 162 34 149 51 Q 136 67 125 87 H 185 L 201 65 L 236 88 Q 241 93 241 95 Q 241 97 237 100 L 225 106 V 436 Q 225 456 221 466 Q 216 475 201 487 Q 186 498 183 498 Q 181 498 178 494 Q 167 476 155 470 Q 143 463 111 455 L 112 446 Q 144 450 161 450 Q 178 450 183 446 Q 189 442 189 431 Z M 96 242 H 189 V 102 H 96 Z M 123 125 Q 149 151 156 163 Q 164 175 164 186 Q 164 196 155 207 Q 147 218 139 218 Q 130 218 130 211 Q 130 204 131 198 Q 116 193 132 187 Q 132 164 115 129 Z M 360 225 H 416 L 444 193 L 476 231 Q 478 234 478 237 Q 478 239 472 239 H 360 V 343 H 434 L 462 311 L 495 349 Q 498 353 498 355 Q 498 357 490 357 H 360 V 384 Q 360 434 362 458 Q 363 482 363 486 Q 363 490 359 494 Q 355 497 343 502 Q 348 507 324 507 Q 318 507 318 494 L 320 441 Q 322 405 322 373 V 122 H 306 Q 267 191 237 225 L 229 218 Q 284 129 313 3 L 356 21 Q 364 24 364 28 Q 364 31 358 33 Q 352 35 349 39 Q 346 43 335 65 Q 324 87 313 107 H 442 L 473 71 L 509 113 Q 512 117 512 119 Q 512 122 504 122 H 360 Z M 126 275 Q 167 315 167 335 Q 167 345 159 357 Q 150 369 141 369 Q 131 369 131 357 Q 131 353 132 347 Q 133 340 133 334 Q 133 313 119 280 Z" fill="black" />
  </g>
  <g class="defect" id="01">
    <path d="M 343 502 Q 348 507 324 507" fill="none" stroke="red" stroke-width="3" />
  </g>
  <g class="defect" id="02">
    <path d="M 131 198 Q 116 193 132 187" fill="none" stroke="red" stroke-width="3" />
  </g>
</svg>