<svg xmlns="http://www.w3.org/2000/svg" width="512" height="512" viewBox="0 0 512 512">
  <g class="glyph">
    <path d="M 192 86 Q 192 102 193 109 Q 194 115 194 117 Q 194 122 178 129 Q 163 137 158 137 Q 155 137 155 126 V 120 Q 157 100 157 86 H 56 Q 35 86 19 92 L 0 69 Q 21 72 45 72 H 157 V 48 Q 157 28 155 0 L 201 19 Q 208 22 208 24 Q 208 27 204 31 L 192 39 V 72 H 311 V 48 Q 311 28 308 0 L 355 22 Q 361 24 361 26 Q 361 29 356 33 L 345 41 V 72 H 422 L 453 36 L 489 76 Q 493 80 493 83 Q 493 86 486 86 H 345 L 347 118 Q 347 124 333 130 Q 319 137 313 137 Q 308 137 308 128 Q 308 125 309 122 Q 311 106 311 86 Z M 127 151 H 378 L 395 129 L 431 152 Q 438 157 438 159 Q 438 162 432 165 L 420 172 V 205 Q 420 227 421 237 L 423 255 Q 423 264 407 272 Q 392 280 388 280 Q 372 295 383 272 V 253 H 126 Q 126 351 101 407 Q 76 462 9 512 L 1 506 Q 48 460 69 411 Q 89 361 89 280 V 122 Z M 383 238 V 167 H 126 V 238 Z M 221 402 V 436 Q 221 449 226 453 Q 231 457 251 459 Q 270 461 306 461 Q 408 461 422 448 Q 436 435 441 354 H 453 Q 452 369 452 389 Q 452 409 456 424 Q 461 440 469 444 Q 478 448 478 452 Q 478 455 473 462 Q 467 469 453 477 Q 439 484 425 487 Q 411 490 375 491 Q 340 493 291 493 Q 241 493 220 491 Q 199 488 191 480 Q 183 472 183 456 V 340 Q 201 293 181 267 L 230 288 Q 236 291 236 294 Q 250 297 232 301 L 221 308 V 389 Q 327 343 392 289 L 418 314 Q 424 319 424 324 Q 424 328 415 328 Q 405 329 377 342 Q 305 374 221 402 Z" fill="black" />
  </g>
  <g class="defect" id="01">
    <path d="M 236 294 Q 250 297 232 301" fill="none" stroke="red" stroke-width="3" />
  </g>
  <g class="defect" id="02">
    <path d="M 183 340 Q 201 293 181 267" fill="none" stroke="red" stroke-width="3" />
  </g>
  <g class="defect" id="03">
    <path d="M 388 280 Q 372 295 383 272" fill="none" stroke="red" stroke-width="3" />
  </g>
</svg>