<svg xmlns="http://www.w3.org/2000/svg" width="512" height="512" viewBox="0 0 512 512">
  <g class="glyph">
    <path d="M 317 0 Q 347 15 362 32 Q 378 48 378 63 Q 378 78 369 88 Q 361 98 350 98 Q 333 98 333 76 Q 333 38 310 6 Z M 99 298 H 62 V 314 Q 62 323 59 326 Q 57 330 45 335 Q 34 341 30 341 Q 23 341 23 329 Q 23 327 24 323 Q 28 276 28 238 V 176 Q 28 124 26 110 L 61 133 H 99 V 92 Q 99 50 96 5 L 144 29 Q 150 31 150 35 Q 150 38 144 42 L 132 49 V 133 H 165 L 182 112 L 216 137 Q 220 140 220 143 Q 220 146 216 149 L 204 156 V 237 Q 204 255 205 270 L 207 295 Q 207 304 192 313 Q 177 322 173 322 Q 170 322 170 314 V 298 H 132 V 400 L 175 392 Q 169 370 155 346 L 162 340 Q 190 362 203 380 Q 216 397 216 414 Q 216 431 210 440 Q 204 450 194 450 Q 178 450 178 431 Q 178 421 177 407 L 108 429 Q 82 456 58 448 Q 44 455 39 462 Q 33 469 29 469 Q 24 469 20 464 L 0 426 L 99 407 Z M 62 283 H 99 V 148 H 62 Z M 132 283 H 170 V 148 H 132 Z M 329 125 H 265 Q 243 125 228 129 L 207 106 Q 232 109 255 109 H 441 L 471 75 L 507 113 Q 512 118 512 121 Q 512 125 504 125 H 338 L 370 142 Q 377 146 377 149 Q 377 153 369 155 Q 361 157 346 178 Q 302 246 280 275 L 376 273 Q 403 230 429 178 L 468 208 Q 474 213 474 217 Q 474 221 466 223 Q 459 224 454 229 Q 449 234 437 249 Q 330 392 273 445 L 434 430 Q 425 402 395 358 L 402 352 Q 440 381 462 406 Q 485 431 485 451 Q 485 470 476 483 Q 468 496 456 496 Q 444 496 443 477 Q 441 458 438 445 Q 363 457 315 468 Q 268 479 249 488 Q 247 490 244 490 Q 228 500 237 485 L 219 445 Q 231 443 240 440 Q 250 437 257 432 Q 264 427 283 403 Q 301 380 325 348 Q 348 317 367 289 Q 330 294 309 298 Q 289 303 256 314 Q 254 314 251 314 Q 249 314 247 311 L 229 276 Q 249 273 260 263 Q 254 233 290 215 Q 310 177 329 125 Z" fill="black" />
  </g>
  <g class="defect" id="01">
    <path d="M 260 263 Q 254 233 290 215" fill="none" stroke="red" stroke-width="3" />
  </g>
  <g class="defect" id="02">
    <path d="M 244 490 Q 228 500 237 485" fill="none" stroke="red" stroke-width="3" />
  </g>
  <g class="defect" id="03">
    <path d="M 108 429 Q 82 456 58 448" fill="none" stroke="red" stroke-width="3" />
  </g>
</svg>