<svg xmlns="http://www.w3.org/2000/svg" width="512" height="512" viewBox="0 0 512 512">
  <g class="glyph">
    <path d="M 48 144 Q 36 157 13 178 L 6 172 Q 56 80 98 0 L 137 21 Q 141 23 141 26 Q 141 29 136 30 Q 130 31 125 37 Q 120 44 106 65 H 162 L 180 44 L 212 71 Q 216 76 216 79 Q 216 81 206 84 Q 196 86 183 97 Q 170 108 143 141 H 180 L 197 120 L 228 142 Q 232 145 232 148 Q 232 150 226 154 L 219 160 V 409 Q 219 432 216 443 Q 213 454 200 464 Q 187 475 182 475 Q 178 475 177 469 Q 174 455 169 449 Q 165 443 150 438 L 152 429 Q 164 431 172 431 Q 180 431 183 426 Q 187 422 187 408 V 322 H 146 Q 146 374 147 406 Q 148 437 148 441 Q 148 446 145 450 Q 142 453 132 459 Q 121 464 116 464 Q 112 464 112 453 L 116 322 H 76 Q 73 384 58 421 Q 43 459 5 494 L 0 489 Q 16 466 28 437 Q 40 408 45 340 Q 50 272 50 225 Q 50 179 48 144 Z M 96 80 Q 73 113 56 134 L 71 141 H 125 L 161 80 Z M 187 222 V 156 H 146 V 222 Z M 79 156 Q 79 205 78 222 H 116 V 156 Z M 187 307 V 237 H 146 V 307 Z M 78 237 77 307 H 116 V 237 Z M 284 278 Q 284 290 282 294 Q 280 298 267 304 Q 255 309 250 309 Q 245 309 245 301 Q 245 298 246 295 Q 250 259 250 211 V 116 Q 250 79 249 48 L 284 71 Q 303 45 346 16 L 374 45 Q 379 50 379 53 Q 379 57 370 57 Q 350 57 284 84 V 165 H 309 L 330 138 L 357 171 Q 360 174 360 177 Q 360 180 353 180 H 284 V 263 H 435 V 177 H 424 Q 391 177 380 182 L 360 159 Q 376 162 435 162 V 82 Q 405 82 398 83 Q 391 85 383 88 L 364 65 Q 380 68 432 68 L 452 45 L 484 70 Q 489 74 489 77 Q 489 79 482 82 L 470 89 V 217 Q 470 235 471 251 L 473 276 Q 473 284 458 293 Q 444 302 440 302 Q 435 302 435 295 V 278 H 402 V 441 Q 402 450 409 453 Q 401 471 434 456 Q 452 456 461 451 Q 470 445 475 426 Q 480 407 484 363 H 493 V 377 Q 493 412 495 424 Q 498 438 505 446 Q 512 453 512 457 Q 512 460 501 471 Q 490 481 476 484 Q 462 488 431 488 Q 400 488 389 485 Q 379 482 374 473 Q 370 465 370 447 V 278 H 341 Q 335 380 304 426 Q 274 473 184 505 L 182 497 Q 256 460 281 415 Q 306 370 308 278 Z" fill="black" />
  </g>
  <g class="defect" id="01">
    <path d="M 284 71 Q 303 45 346 16" fill="none" stroke="red" stroke-width="3" />
  </g>
  <g class="defect" id="02">
    <path d="M 6 172 Q 56 80 98 0" fill="none" stroke="red" stroke-width="3" />
  </g>
  <g class="defect" id="03">
    <path d="M 409 453 Q 401 471 434 456" fill="none" stroke="red" stroke-width="3" />
  </g>
</svg>