<svg xmlns="http://www.w3.org/2000/svg" width="512" height="512" viewBox="0 0 512 512">
  <g class="glyph">
    <path d="M 128 222 Q 144 224 166 224 H 427 L 456 189 L 489 229 Q 492 233 492 236 Q 492 238 485 238 H 177 Q 157 238 141 244 L 128 227 Q 127 324 99 390 Q 70 456 9 505 L 0 498 Q 47 454 69 384 Q 91 314 91 205 V 151 Q 55 176 15 196 L 10 188 Q 133 101 201 0 L 238 22 Q 247 27 247 31 Q 262 34 237 36 Q 228 37 209 53 H 317 L 343 24 L 382 61 Q 387 65 387 68 Q 387 72 385 72 Q 382 73 373 73 Q 363 57 332 87 L 298 110 H 416 L 445 75 L 477 113 Q 482 119 482 122 Q 482 125 474 125 H 128 Z M 194 68 Q 172 88 144 110 H 281 L 314 68 Z M 257 150 Q 265 155 265 157 Q 265 160 254 161 Q 243 163 227 172 Q 174 201 134 215 L 130 207 Q 190 172 229 131 Z M 335 134 Q 380 144 399 151 Q 417 159 425 166 Q 432 174 432 187 Q 432 209 419 209 Q 411 209 406 201 Q 388 177 375 166 Q 373 156 332 139 Z M 261 162 Q 291 166 308 173 Q 324 180 324 194 Q 324 207 320 212 Q 316 217 304 217 Q 288 217 281 199 Q 275 183 259 167 Z M 425 281 Q 429 285 429 287 Q 429 289 421 289 H 215 Q 195 289 180 295 L 161 272 Q 180 275 204 275 H 375 L 398 247 Z M 431 334 Q 435 338 435 340 Q 435 343 427 343 H 218 Q 197 343 183 349 L 163 325 Q 183 328 207 328 H 382 L 404 302 Z M 379 468 H 207 V 488 Q 207 496 204 500 Q 201 504 188 508 Q 176 512 170 512 Q 164 512 164 501 L 165 477 Q 166 463 166 437 V 406 Q 166 384 164 357 L 217 383 H 377 L 393 358 L 431 386 Q 435 390 435 393 Q 435 395 431 397 L 421 402 V 420 Q 421 435 423 454 Q 424 473 424 473 Q 424 486 408 491 Q 392 496 385 496 Q 379 496 379 490 Z M 207 454 H 379 V 398 H 207 Z" fill="black" />
  </g>
  <g class="defect" id="01">
    <path d="M 247 31 Q 262 34 237 36" fill="none" stroke="red" stroke-width="3" />
  </g>
  <g class="defect" id="02">
    <path d="M 373 73 Q 363 57 332 87" fill="none" stroke="red" stroke-width="3" />
  </g>
  <g class="defect" id="03">
    <path d="M 375 166 Q 373 156 332 139" fill="none" stroke="red" stroke-width="3" />
  </g>
</svg>