<svg xmlns="http://www.w3.org/2000/svg" width="512" height="512" viewBox="0 0 512 512">
  <g class="glyph">
    <path d="M 58 0 Q 88 9 105 24 Q 122 39 122 52 Q 122 66 113 75 Q 104 84 96 84 Q 88 84 86 81 Q 83 78 83 70 Q 78 26 56 8 Z M 395 220 H 254 V 224 Q 254 233 252 237 Q 249 242 237 248 Q 224 254 221 254 Q 217 254 216 250 Q 215 249 215 245 Q 215 241 216 236 Q 220 193 220 154 V 82 Q 204 48 218 18 L 261 47 H 391 L 413 22 L 444 49 Q 451 53 451 56 Q 451 59 445 62 L 431 70 V 164 Q 431 181 433 196 L 435 221 Q 435 231 421 240 Q 407 248 401 248 Q 395 248 395 240 Z M 254 126 H 395 V 63 H 254 Z M 254 204 H 395 V 142 H 254 Z M 127 244 Q 151 210 162 178 L 190 198 Q 196 203 196 205 Q 196 208 189 211 Q 171 218 139 249 Q 158 256 168 265 Q 177 275 177 287 Q 158 310 173 307 Q 169 315 161 315 Q 152 315 146 301 Q 136 275 111 253 V 376 L 112 474 Q 93 485 99 492 Q 87 498 80 498 Q 72 498 72 487 L 75 433 Q 77 396 77 364 V 259 Q 49 292 8 326 L 3 319 Q 76 234 122 124 H 55 Q 33 124 19 130 L 0 107 Q 21 109 44 109 H 121 L 144 83 L 177 111 Q 183 116 183 118 Q 183 121 177 122 Q 170 123 162 131 Q 154 138 150 147 Q 132 180 111 212 V 239 Q 123 242 127 244 Z M 196 458 V 325 Q 196 291 195 261 L 230 282 H 417 L 435 263 L 466 286 Q 470 289 470 292 Q 470 296 465 298 L 451 305 V 458 L 477 428 L 509 464 Q 512 468 512 471 Q 512 474 505 474 H 188 Q 169 474 152 479 L 133 456 Q 151 458 196 458 Z M 378 297 V 458 H 417 V 297 Z M 273 458 V 297 H 230 V 458 Z M 302 297 V 458 H 349 V 297 Z" fill="black" />
  </g>
  <g class="defect" id="01">
    <path d="M 177 287 Q 158 310 173 307" fill="none" stroke="red" stroke-width="3" />
  </g>
  <g class="defect" id="02">
    <path d="M 112 474 Q 93 485 99 492" fill="none" stroke="red" stroke-width="3" />
  </g>
  <g class="defect" id="03">
    <path d="M 220 82 Q 204 48 218 18" fill="none" stroke="red" stroke-width="3" />
  </g>
</svg>