<svg xmlns="http://www.w3.org/2000/svg" width="512" height="512" viewBox="0 0 512 512">
  <g class="glyph">
    <path d="M 188 174 Q 191 177 191 179 Q 191 183 184 183 H 72 Q 50 183 36 188 L 18 166 Q 37 168 62 168 H 138 L 162 141 L 183 167 Q 233 92 257 0 L 294 18 Q 301 21 301 25 Q 301 29 292 32 Q 284 35 278 44 Q 271 54 260 80 H 307 L 333 53 L 361 86 Q 365 88 365 91 Q 365 94 358 94 H 280 Q 295 104 304 115 Q 312 125 312 142 Q 312 164 294 164 Q 288 164 283 158 Q 278 152 278 144 Q 278 124 267 94 H 252 Q 232 130 188 174 Z M 398 80 H 450 L 475 48 L 502 81 Q 508 87 508 90 Q 508 93 500 93 H 428 Q 445 103 454 112 Q 462 120 462 128 Q 462 137 457 149 Q 452 160 442 160 Q 432 160 431 144 Q 429 118 412 93 H 389 Q 374 115 345 146 L 338 141 Q 379 76 400 3 L 436 20 Q 443 23 443 26 Q 443 30 437 31 Q 424 35 416 49 Q 408 64 398 80 Z M 74 3 Q 135 32 135 57 Q 135 70 127 79 Q 120 88 109 88 Q 98 88 96 68 Q 94 47 88 35 Q 82 23 70 10 Z M 202 106 Q 206 110 206 113 Q 206 117 199 117 H 55 Q 33 117 19 123 L 0 100 Q 20 103 44 103 H 148 L 171 74 Z M 72 299 H 133 L 150 279 L 179 301 Q 269 235 328 146 L 362 167 Q 370 172 370 176 Q 370 180 363 181 Q 337 166 347 186 Q 430 257 508 257 H 512 V 268 Q 499 270 491 276 Q 483 282 481 295 Q 480 298 475 298 Q 468 298 428 275 Q 388 251 338 194 Q 294 238 262 262 Q 230 285 187 307 Q 187 309 187 310 Q 187 313 174 320 V 384 Q 174 402 176 417 L 178 443 Q 178 452 162 459 Q 146 466 142 466 Q 138 466 138 459 V 424 H 70 V 463 Q 70 471 67 475 Q 65 478 53 484 Q 42 489 37 489 Q 32 489 31 485 Q 30 483 30 478 Q 30 475 30 470 Q 35 426 35 387 V 344 Q 35 309 34 278 Z M 138 408 V 313 H 70 V 408 Z M 188 235 Q 192 240 192 243 Q 192 246 185 246 H 72 Q 50 246 36 252 L 18 229 Q 37 232 62 232 H 142 L 163 205 Z M 278 285 H 379 L 399 261 L 424 291 Q 427 295 427 297 Q 427 300 420 300 H 287 Q 272 300 258 305 L 235 282 Q 255 285 278 285 Z M 278 345 H 395 L 412 321 L 448 343 Q 452 346 452 348 Q 452 351 448 354 L 435 365 V 422 Q 435 427 436 442 Q 438 458 438 462 Q 438 474 426 479 Q 414 485 408 485 Q 402 485 402 478 V 449 H 269 V 469 Q 269 484 255 490 Q 241 496 236 496 Q 230 496 230 489 Q 230 483 233 459 Q 235 434 235 407 V 383 Q 235 342 234 311 Z M 402 433 V 361 H 269 V 433 Z" fill="black" />
  </g>
  <g class="defect" id="01">
    <path d="M 363 181 Q 337 166 347 186" fill="none" stroke="red" stroke-width="3" />
  </g>
</svg>