<svg xmlns="http://www.w3.org/2000/svg" width="512" height="512" viewBox="0 0 512 512">
  <g class="glyph">
    <path d="M 210 153 Q 195 166 187 172 L 182 167 Q 253 86 291 0 L 333 24 Q 337 28 337 31 Q 337 35 329 36 Q 321 38 314 44 Q 307 51 294 67 H 366 L 388 42 L 421 76 Q 427 81 427 84 Q 427 86 417 89 Q 407 91 395 99 Q 384 108 356 135 H 437 L 466 101 L 497 138 Q 503 145 503 147 Q 503 151 494 151 H 245 V 221 Q 278 190 306 152 L 330 170 Q 336 173 336 177 Q 336 180 325 180 Q 320 180 308 189 Q 276 214 245 232 V 239 H 440 L 466 208 L 496 244 Q 499 248 499 251 Q 499 254 491 254 H 245 V 261 Q 245 342 221 397 Q 196 455 139 505 L 134 498 Q 173 454 192 401 Q 210 348 210 268 Z M 282 82 Q 263 103 235 131 L 243 135 H 336 L 366 82 Z M 76 8 Q 107 23 123 35 Q 139 47 139 60 Q 139 73 132 83 Q 124 93 115 93 Q 99 93 97 77 Q 94 54 88 41 Q 82 29 71 15 Z M 206 102 Q 210 107 210 110 Q 210 114 203 114 H 57 Q 34 114 20 119 L 0 96 Q 21 99 46 99 H 149 L 176 66 Z M 182 171 Q 186 176 186 179 Q 186 183 179 183 H 87 Q 64 183 50 189 L 31 165 Q 51 168 76 168 H 129 L 153 142 Z M 377 159 Q 414 167 433 177 Q 451 188 451 204 Q 451 211 448 217 Q 444 222 439 222 Q 426 222 422 212 Q 409 185 373 167 Z M 342 173 Q 384 193 384 211 Q 384 222 377 229 Q 371 235 365 235 Q 359 235 355 232 Q 352 229 351 226 Q 350 223 350 210 Q 350 197 338 179 Z M 184 234 Q 188 239 188 242 Q 188 246 180 246 H 85 Q 62 246 48 251 L 28 228 Q 49 231 73 231 H 130 L 156 200 Z M 454 292 Q 458 296 458 299 Q 458 303 451 303 H 308 Q 285 303 271 309 L 252 285 Q 272 288 297 288 H 408 L 428 264 Z M 84 302 H 127 L 142 277 L 176 300 Q 182 303 182 306 Q 182 309 178 312 L 166 319 V 368 Q 166 388 167 404 L 169 429 Q 169 438 155 446 Q 142 454 137 454 Q 132 454 132 447 V 422 H 75 V 463 Q 75 472 72 475 Q 80 479 56 485 Q 43 490 39 490 Q 35 490 34 486 Q 33 484 33 480 Q 33 476 33 471 Q 38 427 38 386 V 341 Q 38 305 36 274 Z M 132 407 V 317 H 75 V 407 Z M 453 338 Q 457 342 457 346 Q 457 349 450 349 H 311 Q 289 349 274 355 L 255 332 Q 276 335 300 335 H 405 L 428 308 Z M 301 386 H 405 L 419 364 L 455 387 Q 460 390 460 392 Q 460 395 457 397 L 443 406 V 429 Q 443 444 444 458 L 446 481 Q 446 490 430 498 Q 414 505 410 505 Q 405 505 405 498 V 478 H 299 V 485 Q 299 495 296 499 Q 294 503 281 507 Q 268 512 263 512 Q 257 512 257 507 Q 257 503 260 485 Q 264 466 264 442 V 422 Q 264 392 262 364 Z M 405 463 V 402 H 299 V 463 Z" fill="black" />
  </g>
  <g class="defect" id="01">
    <path d="M 72 475 Q 80 479 56 485" fill="none" stroke="red" stroke-width="3" />
  </g>
</svg>