<svg xmlns="http://www.w3.org/2000/svg" width="512" height="512" viewBox="0 0 512 512">
  <g class="glyph">
    <path d="M 287 0 Q 347 25 347 53 Q 347 67 338 77 Q 330 87 322 87 Q 313 87 311 84 Q 308 80 308 71 Q 306 35 284 5 Z M 237 235 Q 193 262 133 281 L 131 271 Q 193 243 231 216 V 103 Q 231 77 229 50 L 278 80 Q 282 83 282 86 Q 282 89 277 92 L 267 99 V 186 Q 366 98 418 19 L 448 52 Q 452 56 452 59 Q 452 62 445 63 Q 432 66 409 89 Q 344 163 272 213 Q 281 219 318 219 Q 356 219 366 214 Q 375 209 380 193 Q 386 176 392 131 H 402 Q 389 142 401 156 Q 401 169 405 180 Q 408 190 418 198 Q 425 202 425 208 Q 425 213 407 228 Q 390 243 367 245 Q 343 247 324 247 Q 319 259 275 244 Q 245 242 237 235 Z M 59 27 Q 131 59 131 92 Q 131 109 121 120 Q 112 132 100 132 Q 88 132 86 114 Q 80 62 53 34 Z M 199 93 Q 201 111 201 131 Q 201 152 192 175 Q 182 199 165 199 Q 155 199 149 192 Q 142 184 142 175 Q 142 167 154 157 Q 172 142 179 129 Q 187 117 190 93 Z M 424 101 Q 460 119 479 136 Q 497 153 497 166 Q 497 180 487 190 Q 478 200 472 200 Q 466 200 460 195 Q 465 190 454 183 Q 445 134 419 108 Z M 186 347 Q 111 439 92 479 Q 90 484 87 484 Q 84 484 79 479 L 54 453 Q 72 437 72 409 V 211 H 54 Q 31 211 18 218 L 0 194 Q 24 196 44 196 H 71 L 90 169 L 126 195 Q 132 199 132 202 Q 132 205 126 208 L 108 220 V 406 L 179 342 Z M 197 467 V 331 Q 197 296 195 264 L 235 288 H 411 L 425 265 L 460 293 Q 465 296 465 298 Q 465 302 459 305 L 446 313 V 467 H 452 L 477 435 L 508 472 Q 512 476 512 479 Q 512 482 505 482 H 183 Q 162 482 147 488 L 127 464 Q 147 467 170 467 Z M 370 303 V 467 H 409 V 303 Z M 301 303 V 467 H 336 V 303 Z M 230 303 V 467 H 267 V 303 Z" fill="black" />
  </g>
  <g class="defect" id="01">
    <path d="M 324 247 Q 319 259 275 244" fill="none" stroke="red" stroke-width="3" />
  </g>
  <g class="defect" id="02">
    <path d="M 460 195 Q 465 190 454 183" fill="none" stroke="red" stroke-width="3" />
  </g>
  <g class="defect" id="03">
    <path d="M 402 131 Q 389 142 401 156" fill="none" stroke="red" stroke-width="3" />
  </g>
</svg>