<svg xmlns="http://www.w3.org/2000/svg" width="512" height="512" viewBox="0 0 512 512">
  <g class="glyph">
    <path d="M 279 90 Q 279 104 279 110 L 280 120 Q 280 127 265 134 Q 238 130 246 141 Q 240 141 240 135 Q 240 130 242 122 Q 243 114 243 90 H 201 Q 181 90 165 96 L 146 73 Q 167 76 191 76 H 243 V 34 Q 243 19 241 0 L 287 21 Q 295 24 295 26 Q 295 28 289 32 L 279 39 V 76 H 355 V 36 Q 355 22 353 2 L 398 19 Q 405 23 405 25 Q 405 29 400 32 L 390 39 V 76 H 436 L 468 37 L 507 82 Q 510 86 510 88 Q 510 90 503 90 H 390 L 391 119 Q 391 125 376 132 Q 360 139 356 139 Q 353 139 353 129 V 123 Q 355 109 355 90 Z M 54 24 Q 99 43 114 55 Q 128 67 128 82 Q 128 98 120 109 Q 111 121 100 121 Q 88 121 85 101 Q 82 81 74 65 Q 65 50 49 31 Z M 317 344 H 441 L 472 307 L 509 350 Q 512 354 512 356 Q 512 359 505 359 H 340 Q 369 405 403 424 Q 438 443 504 450 V 459 Q 468 463 460 484 Q 457 491 451 491 Q 445 491 412 473 Q 378 454 359 429 Q 339 403 325 359 H 313 Q 281 418 248 451 Q 201 484 103 506 L 103 496 Q 185 467 223 437 Q 262 406 277 359 H 196 Q 180 359 168 362 L 169 363 Q 105 445 98 467 Q 96 472 93 472 Q 90 472 84 468 L 59 442 Q 76 428 76 397 V 208 H 55 Q 31 208 18 215 L 0 192 Q 24 193 44 193 H 75 L 96 163 L 130 187 Q 136 192 136 194 Q 136 198 130 201 L 114 209 V 403 L 159 364 L 140 341 Q 162 344 185 344 H 280 Q 286 324 291 288 H 232 V 301 Q 232 307 229 311 Q 226 315 215 320 Q 204 325 199 325 Q 194 325 194 316 L 196 288 Q 196 272 196 238 V 182 Q 196 161 194 133 L 235 152 H 390 L 410 128 L 446 152 Q 451 155 451 157 Q 451 160 445 163 L 431 173 V 235 Q 431 252 432 267 L 434 293 Q 434 301 419 310 Q 392 298 401 318 Q 396 318 396 310 V 288 H 328 Q 325 317 317 344 Z M 232 167 V 211 H 396 V 167 Z M 232 226 V 274 H 396 V 226 Z" fill="black" />
  </g>
  <g class="defect" id="01">
    <path d="M 265 134 Q 238 130 246 141" fill="none" stroke="red" stroke-width="3" />
  </g>
  <g class="defect" id="02">
    <path d="M 419 310 Q 392 298 401 318" fill="none" stroke="red" stroke-width="3" />
  </g>
  <g class="defect" id="03">
    <path d="M 313 359 Q 281 418 248 451" fill="none" stroke="red" stroke-width="3" />
  </g>
</svg>