<svg xmlns="http://www.w3.org/2000/svg" width="512" height="512" viewBox="0 0 512 512">
  <g class="glyph">
    <path d="M 186 161 Q 162 178 150 187 L 143 179 Q 234 97 281 0 L 314 20 Q 322 24 322 28 Q 322 32 314 34 Q 308 37 286 63 H 379 L 404 38 L 436 70 Q 443 77 443 80 Q 443 84 430 84 Q 410 84 390 98 L 346 127 H 443 L 474 95 L 506 129 Q 512 135 512 138 Q 512 142 503 142 H 224 V 234 Q 243 236 262 236 H 440 L 470 201 L 504 240 Q 508 245 508 247 Q 508 250 500 250 H 273 Q 256 250 237 255 L 224 242 V 250 Q 224 342 200 401 Q 174 463 113 509 L 107 504 Q 150 457 168 407 Q 186 357 186 249 Z M 274 78 Q 251 104 226 127 H 329 L 372 78 Z M 44 25 Q 85 38 106 56 Q 127 73 127 90 Q 127 106 119 117 Q 111 129 103 129 Q 95 129 89 123 Q 84 117 82 107 Q 78 80 68 63 Q 58 46 39 32 Z M 319 158 Q 323 161 323 164 Q 323 168 317 169 Q 310 171 297 181 Q 266 207 234 223 L 228 215 Q 262 189 290 142 Z M 380 147 Q 451 164 451 189 Q 451 197 446 205 Q 442 212 434 212 Q 427 212 419 198 Q 403 170 376 154 Z M 327 173 Q 350 180 362 190 Q 354 199 373 208 Q 373 231 352 231 Q 342 231 337 227 Q 332 224 331 215 Q 331 191 322 178 Z M 176 327 Q 117 404 114 431 Q 98 457 92 475 Q 91 479 89 479 Q 86 479 81 474 L 55 444 Q 74 428 74 401 V 215 H 57 Q 33 215 20 222 L 0 198 Q 25 200 46 200 H 72 L 91 174 L 128 202 Q 133 207 133 210 Q 133 213 128 216 L 113 227 V 390 L 169 321 Z M 447 289 Q 450 292 450 294 Q 450 297 443 297 H 301 Q 266 297 263 303 L 243 279 Q 265 281 288 281 H 398 L 420 256 Z M 447 337 Q 450 341 450 344 Q 450 347 443 347 H 302 Q 279 347 265 352 L 244 328 Q 266 332 291 332 H 398 L 420 307 Z M 410 471 H 282 V 486 Q 282 493 279 497 Q 275 501 263 506 Q 250 511 246 511 Q 242 511 242 501 L 243 475 Q 244 460 244 434 V 413 Q 244 392 242 364 L 284 384 H 409 L 425 363 L 462 386 Q 466 389 466 390 Q 466 392 463 395 L 450 408 V 417 Q 450 451 452 465 Q 454 479 454 481 Q 454 495 437 498 Q 420 502 415 502 Q 410 502 410 495 Z M 282 456 H 410 V 398 H 282 Z" fill="black" />
  </g>
  <g class="defect" id="01">
    <path d="M 301 297 Q 266 297 263 303" fill="none" stroke="red" stroke-width="3" />
  </g>
  <g class="defect" id="02">
    <path d="M 176 327 Q 117 404 114 431" fill="none" stroke="red" stroke-width="3" />
  </g>
  <g class="defect" id="03">
    <path d="M 362 190 Q 354 199 373 208" fill="none" stroke="red" stroke-width="3" />
  </g>
</svg>