<svg xmlns="http://www.w3.org/2000/svg" width="512" height="512" viewBox="0 0 512 512">
  <g class="glyph">
    <path d="M 366 105 Q 396 42 410 0 L 451 23 Q 456 26 456 30 Q 456 33 449 35 Q 442 36 433 46 Q 424 56 386 105 H 442 L 460 78 L 494 104 Q 499 108 499 111 Q 499 115 496 117 L 485 123 V 189 Q 485 209 486 226 L 488 255 Q 488 263 483 266 Q 478 269 467 273 Q 456 277 452 277 Q 448 277 448 270 V 263 H 256 Q 256 272 254 276 Q 252 280 241 284 Q 230 288 224 288 Q 218 288 218 282 Q 218 276 219 271 Q 222 242 222 203 V 138 Q 222 110 220 81 L 264 105 Z M 335 121 H 256 V 247 H 335 Z M 274 147 Q 325 173 325 197 Q 325 210 318 218 Q 311 227 305 227 Q 298 227 295 222 Q 293 218 290 206 Q 282 170 268 153 Z M 448 247 V 121 H 368 V 247 Z M 439 161 Q 445 165 445 169 Q 445 173 437 176 Q 429 180 419 189 Q 409 199 380 233 L 371 226 Q 401 177 410 142 Z M 254 8 Q 290 19 308 34 Q 327 49 327 65 Q 327 81 320 90 Q 314 99 308 99 Q 301 99 298 95 Q 294 90 289 76 Q 285 61 273 44 Q 262 26 249 16 Z M 82 62 H 150 L 165 37 L 200 66 Q 203 70 203 71 Q 203 73 200 77 L 187 86 V 282 Q 187 302 189 318 L 191 346 Q 191 354 178 361 Q 164 368 160 368 Q 155 368 155 361 V 349 H 74 Q 74 360 71 363 Q 67 367 57 372 Q 47 377 42 377 Q 36 377 36 366 V 361 Q 41 316 41 275 V 101 Q 25 79 39 33 Z M 155 152 V 77 H 74 V 152 Z M 155 242 V 167 H 74 V 242 Z M 155 335 V 256 H 74 V 335 Z M 420 468 H 285 V 487 Q 285 496 283 499 Q 280 503 268 507 Q 255 512 250 512 Q 244 512 244 507 Q 244 502 245 496 Q 248 467 248 406 V 341 Q 248 319 247 290 L 292 315 H 416 L 433 289 L 468 315 Q 459 300 473 321 Q 473 323 468 328 L 457 336 V 423 Q 457 444 459 465 Q 460 486 460 486 Q 460 493 457 496 Q 454 499 441 504 Q 428 509 424 509 Q 420 509 420 502 Z M 285 330 V 382 H 420 V 330 Z M 285 452 H 420 V 397 H 285 Z M 78 372 107 391 Q 114 397 114 401 Q 114 405 107 406 Q 100 407 90 422 Q 52 472 5 509 L 0 504 Q 43 450 78 372 Z M 133 381 Q 166 398 183 414 Q 201 430 201 440 Q 201 457 194 469 Q 187 481 180 481 Q 175 481 170 464 Q 157 423 128 387 Z" fill="black" />
  </g>
  <g class="defect" id="01">
    <path d="M 468 315 Q 459 300 473 321" fill="none" stroke="red" stroke-width="3" />
  </g>
  <g class="defect" id="02">
    <path d="M 41 101 Q 25 79 39 33" fill="none" stroke="red" stroke-width="3" />
  </g>
</svg>