<svg xmlns="http://www.w3.org/2000/svg" width="512" height="512" viewBox="0 0 512 512">
  <g class="glyph">
    <path d="M 69 54 H 172 L 196 25 L 227 59 Q 231 63 231 64 Q 231 66 230 67 Q 247 69 263 69 H 324 Q 324 28 322 0 L 368 17 Q 376 20 376 23 Q 376 26 369 30 L 361 36 V 69 H 421 L 444 43 L 471 72 Q 474 76 474 79 Q 474 83 467 83 H 361 V 120 H 396 L 418 95 L 443 123 Q 447 127 447 130 Q 447 134 440 134 H 361 V 172 H 429 L 454 143 L 481 175 Q 484 179 484 183 Q 484 186 477 186 H 268 Q 245 186 231 192 L 212 169 Q 232 172 257 172 H 324 V 134 H 291 Q 268 134 254 139 L 235 117 Q 255 120 280 120 H 324 V 83 H 275 Q 252 83 238 88 L 221 69 H 152 V 167 H 168 L 178 150 L 209 171 Q 212 173 212 175 Q 212 178 209 181 L 200 189 V 240 Q 187 258 201 273 L 202 298 Q 202 307 188 315 Q 173 324 170 324 Q 167 324 167 317 V 306 H 151 V 427 H 175 L 201 397 L 230 432 Q 232 436 232 439 Q 232 442 225 442 H 57 L 45 457 Q 41 463 38 463 Q 35 463 30 459 L 0 437 Q 19 427 19 410 V 107 Q 19 47 17 18 Z M 121 69 H 52 V 427 H 119 V 306 H 108 Q 107 316 96 322 Q 84 327 79 327 Q 73 327 73 321 Q 73 314 75 298 Q 77 281 77 258 V 209 Q 77 178 76 149 L 108 167 H 121 Z M 167 291 V 182 H 109 V 291 Z M 272 224 H 394 L 408 203 L 445 225 Q 451 230 451 232 Q 451 236 445 239 L 437 244 V 340 Q 437 354 438 367 L 441 389 Q 441 398 424 404 Q 408 409 405 409 Q 401 409 401 403 V 394 H 271 Q 271 403 270 406 Q 268 409 256 414 Q 245 419 241 419 Q 236 419 236 410 L 238 356 V 254 Q 238 232 236 204 Z M 401 276 V 239 H 271 V 276 Z M 401 326 V 291 H 271 V 326 Z M 401 378 V 341 H 271 V 378 Z M 305 409 332 434 Q 340 441 340 443 Q 340 447 329 447 Q 319 447 299 456 Q 228 491 144 512 L 140 504 Q 238 462 305 409 Z M 344 415 Q 392 423 423 434 Q 453 445 464 456 Q 476 467 476 480 Q 476 493 472 499 Q 468 505 462 505 Q 455 505 449 497 Q 429 474 404 457 Q 380 441 343 422 Z" fill="black" />
  </g>
  <g class="defect" id="01">
    <path d="M 200 240 Q 187 258 201 273" fill="none" stroke="red" stroke-width="3" />
  </g>
</svg>