<svg xmlns="http://www.w3.org/2000/svg" width="512" height="512" viewBox="0 0 512 512">
  <g class="glyph">
    <path d="M 201 37 190 43 V 147 L 191 220 Q 191 227 175 235 Q 160 244 156 244 Q 152 244 152 236 L 154 195 Q 155 167 155 138 V 74 Q 155 19 154 0 L 201 21 Q 210 24 210 28 Q 210 32 201 37 Z M 331 171 Q 268 215 203 225 L 202 216 Q 267 192 313 155 Q 279 122 254 61 Q 239 61 224 67 L 205 43 Q 225 46 250 46 H 392 L 414 20 L 448 55 Q 453 61 453 63 Q 453 66 443 66 Q 433 67 428 71 Q 433 92 416 85 Q 392 121 356 151 Q 407 180 506 187 V 194 Q 488 198 481 203 Q 473 209 467 222 Q 465 226 460 226 Q 453 226 407 209 Q 362 193 331 171 Z M 333 138 Q 366 106 390 61 H 266 Q 284 97 333 138 Z M 95 63 85 68 V 211 Q 85 219 82 223 Q 79 226 69 231 Q 58 236 53 236 Q 49 236 49 231 Q 49 225 50 201 Q 52 176 52 155 V 96 Q 52 75 50 30 L 95 47 Q 102 51 102 55 Q 102 59 95 63 Z M 139 263 V 404 Q 139 411 136 414 Q 132 418 121 423 Q 110 429 106 429 Q 101 429 101 417 L 102 364 V 277 Q 102 262 101 227 L 141 247 H 357 L 377 219 L 415 247 Q 418 249 418 252 Q 418 255 411 260 L 400 266 V 340 Q 400 359 401 370 L 403 388 Q 403 396 388 403 Q 372 410 367 410 Q 362 410 362 404 V 263 Z M 232 281 285 301 Q 291 303 291 306 Q 291 309 286 313 Q 273 323 269 338 Q 277 401 234 431 Q 208 461 147 482 Q 85 503 2 512 L 0 503 Q 89 483 139 461 Q 189 438 205 417 Q 220 395 227 363 Q 232 336 232 295 Z M 262 412 Q 356 425 407 441 Q 459 457 459 478 Q 459 505 442 505 Q 437 505 432 502 Q 427 500 417 491 Q 372 455 258 422 Z" fill="black" />
  </g>
  <g class="defect" id="01">
    <path d="M 266 61 Q 284 97 333 138" fill="none" stroke="red" stroke-width="3" />
  </g>
  <g class="defect" id="02">
    <path d="M 428 71 Q 433 92 416 85" fill="none" stroke="red" stroke-width="3" />
  </g>
  <g class="defect" id="03">
    <path d="M 269 338 Q 277 401 234 431" fill="none" stroke="red" stroke-width="3" />
  </g>
</svg>