<svg xmlns="http://www.w3.org/2000/svg" width="512" height="512" viewBox="0 0 512 512">
  <g class="glyph">
    <path d="M 405 110 H 301 V 112 Q 301 126 290 130 Q 277 135 273 135 Q 266 135 266 130 Q 266 124 268 112 Q 270 100 270 83 V 59 Q 270 41 268 11 L 300 26 H 398 L 418 0 L 450 26 Q 454 29 454 31 Q 439 34 450 36 L 438 47 V 71 Q 438 74 439 90 Q 440 106 440 111 Q 440 123 426 128 Q 413 134 409 134 Q 405 134 405 127 Z M 301 94 H 405 V 42 H 301 Z M 149 207 H 164 L 188 176 L 216 210 Q 220 215 220 218 Q 220 221 213 221 H 125 L 156 233 Q 165 237 165 240 Q 165 243 160 246 L 152 251 V 316 H 178 L 201 288 L 229 322 Q 231 326 231 328 Q 231 331 225 331 H 152 V 435 Q 203 456 290 456 Q 376 456 512 441 V 449 Q 480 458 475 485 Q 474 489 472 491 Q 470 492 463 492 Q 340 492 279 489 Q 218 486 176 473 Q 134 461 111 440 Q 88 419 68 381 Q 54 439 9 500 L 1 496 Q 27 445 38 388 Q 49 331 50 248 L 93 266 Q 100 269 100 271 Q 100 274 95 278 Q 89 281 86 290 Q 83 298 80 322 Q 77 346 72 369 Q 93 399 118 416 V 268 Q 118 248 115 221 H 56 Q 33 221 20 227 L 0 204 Q 21 207 45 207 H 113 V 126 H 79 Q 55 126 42 132 L 22 109 Q 43 112 67 112 H 113 V 52 Q 113 30 111 1 L 156 24 Q 164 29 164 31 Q 164 34 157 39 L 149 44 V 112 H 161 L 186 81 L 215 116 Q 218 120 218 123 Q 218 126 211 126 H 149 Z M 455 231 H 393 Q 393 243 382 247 Q 370 251 366 251 Q 362 251 362 246 Q 362 241 364 234 Q 365 227 365 206 V 171 Q 365 154 363 128 L 391 148 H 451 L 464 128 L 492 150 Q 497 154 497 156 Q 497 158 492 161 L 484 165 V 191 Q 484 195 485 212 Q 486 228 486 230 Q 486 239 474 246 Q 462 252 458 252 Q 455 252 455 246 Z M 393 216 H 455 V 163 H 393 Z M 308 228 H 254 V 233 Q 254 243 252 247 Q 249 253 241 256 Q 233 259 229 259 Q 225 259 223 255 Q 223 254 223 252 Q 223 247 225 236 Q 226 221 226 210 V 178 Q 226 160 225 128 L 253 148 H 304 L 316 131 L 345 151 Q 350 154 350 157 Q 350 160 345 162 L 337 167 V 186 L 340 223 Q 340 231 327 239 Q 314 246 312 246 Q 308 246 308 239 Z M 254 213 H 308 V 164 H 254 Z M 334 289 Q 334 271 333 238 L 374 257 Q 381 260 381 263 Q 381 266 377 268 L 366 276 V 289 H 447 L 476 257 L 506 292 Q 511 298 511 301 Q 511 304 504 304 H 366 V 307 Q 434 340 455 355 Q 476 371 476 386 Q 476 403 470 413 Q 464 423 455 423 Q 449 423 439 402 Q 430 381 415 364 Q 400 346 366 318 V 358 Q 366 388 366 404 L 367 428 Q 367 439 352 444 Q 338 448 337 448 Q 332 448 332 440 L 333 411 Q 334 391 334 356 V 310 Q 290 384 191 431 L 186 425 Q 232 392 257 366 Q 281 341 303 304 H 271 Q 249 304 237 311 L 218 286 Q 238 289 260 289 Z" fill="black" />
  </g>
  <g class="defect" id="01">
    <path d="M 454 31 Q 439 34 450 36" fill="none" stroke="red" stroke-width="3" />
  </g>
</svg>