<svg xmlns="http://www.w3.org/2000/svg" width="512" height="512" viewBox="0 0 512 512">
  <g class="glyph">
    <path d="M 357 105 Q 386 55 403 0 L 446 27 Q 452 30 452 34 Q 452 37 442 40 Q 432 43 419 54 Q 406 65 371 105 H 440 L 464 80 L 496 105 Q 503 110 503 113 Q 503 115 496 119 L 483 129 V 192 Q 483 210 484 227 L 486 255 Q 486 266 472 272 Q 458 279 454 279 Q 449 279 449 268 V 261 H 250 Q 250 277 237 282 Q 224 286 219 286 Q 213 286 213 277 L 215 248 Q 215 232 215 196 V 134 Q 215 112 213 83 L 248 105 Z M 364 246 H 449 V 121 H 364 Z M 429 157 Q 435 161 435 164 Q 435 167 428 168 Q 422 170 414 180 Q 394 177 379 228 L 373 225 Q 394 178 403 134 Z M 250 246 H 330 V 121 H 250 Z M 262 142 Q 310 176 310 196 Q 310 205 303 215 Q 296 224 290 224 Q 284 224 280 218 Q 277 213 277 199 Q 277 186 271 173 Q 266 160 255 147 Z M 248 6 Q 288 24 302 37 Q 316 50 316 66 Q 316 76 308 84 Q 301 93 294 93 Q 286 93 282 89 Q 277 85 276 80 Q 273 57 267 42 Q 260 28 243 10 Z M 61 70 H 144 L 165 43 L 197 73 Q 202 77 202 79 Q 202 82 197 84 L 180 92 V 277 Q 180 298 182 311 L 184 335 Q 184 343 169 351 Q 154 359 150 359 Q 146 359 146 352 V 86 H 58 V 345 Q 58 354 56 358 Q 54 362 42 367 Q 31 373 26 373 Q 20 373 19 369 Q 18 367 18 363 Q 18 359 18 354 Q 23 309 23 268 V 109 Q 23 73 21 41 Z M 109 371 Q 195 408 195 435 Q 195 448 189 457 Q 183 465 176 465 Q 161 465 158 450 Q 147 413 108 379 Q 99 412 70 451 Q 41 489 8 509 L 0 503 Q 32 477 51 444 Q 70 411 79 372 Q 87 333 87 224 Q 87 180 86 126 L 119 140 Q 128 144 128 147 Q 128 151 124 153 Q 120 156 118 163 Q 117 171 117 182 V 220 Q 117 328 109 371 Z M 416 473 H 277 V 485 Q 277 496 274 500 Q 272 504 261 508 Q 249 512 245 512 Q 239 512 239 502 L 241 473 Q 241 455 241 420 V 343 Q 241 321 240 292 L 277 312 H 414 L 430 292 L 463 314 Q 470 318 470 321 Q 470 325 463 328 L 452 333 V 421 Q 452 443 454 463 Q 455 483 455 484 Q 455 495 440 501 Q 424 507 421 507 Q 416 507 416 500 Z M 277 379 H 416 V 328 H 277 Z M 416 395 H 277 V 458 H 416 Z" fill="black" />
  </g>
  <g class="defect" id="01">
    <path d="M 414 180 Q 394 177 379 228" fill="none" stroke="red" stroke-width="3" />
  </g>
</svg>