<svg xmlns="http://www.w3.org/2000/svg" width="512" height="512" viewBox="0 0 512 512">
  <g class="glyph">
    <path d="M 393 115 H 290 Q 290 124 285 127 Q 281 131 271 134 Q 262 138 257 138 Q 253 138 253 129 Q 253 126 253 122 Q 256 108 256 90 V 60 Q 256 28 254 0 L 294 25 H 387 L 407 4 L 438 31 Q 443 34 443 36 Q 443 39 438 41 L 426 48 V 73 L 429 115 Q 429 125 415 132 Q 400 138 396 138 Q 393 138 393 132 Z M 290 100 H 393 V 39 H 290 Z M 79 37 H 141 L 161 13 L 191 37 Q 196 40 196 43 Q 196 45 191 47 L 177 56 V 109 Q 177 131 178 150 Q 180 169 180 170 Q 180 181 166 187 Q 153 192 149 192 Q 145 192 145 186 V 169 H 127 V 261 H 138 L 160 235 L 186 266 Q 189 271 189 273 Q 189 275 182 275 H 127 V 386 L 210 365 L 213 372 L 101 420 Q 46 443 33 454 Q 29 457 27 457 Q 23 457 20 451 L 0 419 L 31 410 V 272 Q 31 251 30 223 L 74 255 Q 78 257 78 259 Q 78 262 74 265 L 64 272 V 402 L 95 394 V 169 H 72 Q 72 184 69 189 Q 66 194 58 197 Q 49 200 44 200 Q 38 200 38 190 L 39 164 Q 40 148 40 127 V 58 Q 40 36 38 9 Z M 145 154 V 53 H 72 V 154 Z M 446 251 H 387 Q 387 262 384 266 Q 381 269 372 272 Q 363 275 359 275 Q 355 275 355 270 Q 355 265 356 254 Q 357 244 357 226 V 194 Q 357 163 355 135 L 392 160 H 440 L 457 139 L 486 161 Q 490 164 490 166 Q 490 169 486 171 L 476 176 V 215 Q 476 225 478 236 Q 480 247 480 250 Q 480 258 467 264 Q 453 270 450 270 Q 446 270 446 264 Z M 387 237 H 446 V 175 H 387 Z M 286 251 H 227 V 261 Q 227 270 225 274 Q 223 279 215 282 Q 206 286 200 286 Q 193 286 193 280 Q 193 275 195 267 Q 197 258 197 236 V 196 Q 197 164 195 136 L 232 162 H 286 L 304 142 L 327 164 Q 330 167 330 169 Q 330 172 327 174 L 316 181 V 217 L 319 251 Q 319 261 306 266 Q 292 272 289 272 Q 286 272 286 266 Z M 227 237 H 286 V 176 H 227 Z M 371 322 Q 408 372 437 390 Q 466 408 512 418 V 427 Q 484 428 475 446 Q 472 451 469 451 Q 460 451 422 420 Q 368 390 360 322 H 353 V 399 Q 353 435 353 446 L 354 465 Q 354 472 339 478 Q 324 485 320 485 Q 316 485 316 476 L 318 448 Q 318 432 318 398 V 327 Q 287 379 252 410 Q 217 440 152 469 L 147 459 Q 204 425 230 397 Q 256 370 283 322 H 237 Q 215 322 201 328 L 182 306 Q 202 308 225 308 H 318 Q 318 286 316 263 L 356 278 Q 362 280 362 282 Q 362 285 357 289 L 353 294 V 308 H 451 L 477 277 L 506 312 Q 510 316 510 319 Q 510 322 502 322 Z" fill="black" />
  </g>
  <g class="defect" id="01">
    <path d="M 422 420 Q 368 390 360 322" fill="none" stroke="red" stroke-width="3" />
  </g>
</svg>