<svg xmlns="http://www.w3.org/2000/svg" width="512" height="512" viewBox="0 0 512 512">
  <g class="glyph">
    <path d="M 406 208 Q 442 154 461 110 L 495 138 Q 502 144 502 148 Q 502 152 494 153 Q 486 154 469 167 Q 453 179 407 218 Q 436 409 512 459 L 511 468 Q 505 467 501 467 Q 491 467 486 469 Q 478 472 473 477 Q 468 483 465 483 Q 455 483 431 421 Q 407 360 399 246 Q 391 345 364 400 Q 337 456 274 501 L 269 494 Q 330 432 351 353 Q 372 274 372 120 Q 372 70 371 0 L 413 19 Q 420 23 420 26 Q 420 30 415 33 Q 409 37 408 44 Q 406 52 405 95 L 402 180 Q 402 181 406 208 Z M 238 166 V 69 Q 207 75 182 77 L 181 68 Q 254 44 302 16 L 325 43 Q 329 47 329 50 Q 329 53 325 53 L 317 52 Q 311 52 269 62 V 166 H 283 L 303 144 L 324 170 Q 328 175 328 178 Q 328 181 320 181 H 269 V 245 Q 292 255 307 265 Q 311 291 322 290 Q 322 304 317 312 Q 311 321 306 321 Q 300 321 297 317 Q 294 314 291 304 Q 281 275 269 260 V 390 Q 269 430 270 453 L 270 476 Q 270 484 257 490 Q 243 496 239 496 Q 236 496 236 485 L 237 445 Q 238 420 238 389 V 245 Q 213 309 156 371 L 150 366 Q 206 279 230 181 Q 209 181 194 186 L 175 164 Q 196 166 220 166 Z M 121 279 H 137 L 158 252 L 182 281 Q 186 286 186 288 Q 186 291 179 291 H 121 V 397 L 185 376 L 185 387 L 83 437 Q 41 457 35 465 Q 29 472 26 472 Q 23 472 19 466 L 0 438 L 40 425 V 288 Q 40 267 38 238 L 75 257 Q 80 259 80 263 Q 80 267 76 268 L 68 273 V 415 L 92 407 V 185 H 71 Q 70 198 60 204 Q 49 209 44 209 Q 53 190 39 200 L 40 175 Q 41 161 41 142 V 80 Q 41 59 39 31 L 74 55 H 130 L 146 36 L 174 57 Q 180 61 180 63 Q 180 65 176 68 L 165 75 V 122 Q 165 142 166 158 L 167 182 Q 167 191 155 198 Q 142 206 139 206 Q 135 206 135 198 V 185 H 121 Z M 71 70 V 171 H 135 V 70 Z M 347 132 Q 354 175 354 200 Q 354 225 345 241 Q 335 256 320 256 Q 313 256 309 252 Q 305 249 305 242 Q 305 234 316 218 Q 314 201 332 185 Q 336 168 339 132 Z" fill="black" />
  </g>
  <g class="defect" id="01">
    <path d="M 316 218 Q 314 201 332 185" fill="none" stroke="red" stroke-width="3" />
  </g>
  <g class="defect" id="02">
    <path d="M 44 209 Q 53 190 39 200" fill="none" stroke="red" stroke-width="3" />
  </g>
  <g class="defect" id="03">
    <path d="M 307 265 Q 311 291 322 290" fill="none" stroke="red" stroke-width="3" />
  </g>
</svg>