<svg xmlns="http://www.w3.org/2000/svg" width="512" height="512" viewBox="0 0 512 512">
  <g class="glyph">
    <path d="M 62 40 Q 63 51 63 59 Q 80 69 53 99 Q 43 113 24 113 Q 15 113 10 108 Q 5 102 5 94 Q 5 88 14 78 Q 32 59 38 43 Q 44 26 44 0 H 53 L 60 25 H 243 L 268 1 L 300 38 Q 306 43 306 47 Q 306 51 294 53 Q 283 55 271 65 Q 259 75 231 106 L 221 100 L 245 40 Z M 366 48 V 372 Q 366 428 367 453 Q 368 477 368 479 Q 368 490 350 500 Q 343 509 327 509 Q 323 509 323 498 L 325 441 Q 328 404 328 360 V 96 Q 328 44 325 2 L 370 34 H 452 L 467 2 L 507 37 Q 512 42 512 45 Q 512 48 505 52 Q 489 59 477 82 L 415 199 Q 456 229 476 249 Q 497 270 504 289 Q 511 308 511 332 Q 511 356 499 377 Q 486 399 467 412 Q 448 424 440 424 Q 435 424 435 413 Q 435 402 421 387 Q 407 373 385 370 L 386 361 Q 415 366 435 366 Q 455 366 464 357 Q 474 348 474 325 Q 491 274 399 203 L 452 48 Z M 100 138 Q 120 85 125 49 L 168 72 Q 174 76 174 79 Q 174 82 167 86 L 156 92 L 138 138 H 232 L 261 105 L 292 141 Q 295 146 295 150 Q 295 154 287 154 H 131 L 91 254 H 154 Q 152 187 151 175 L 199 194 Q 205 196 205 199 Q 205 202 199 207 L 190 213 V 254 H 214 L 243 216 L 279 255 Q 284 261 284 266 Q 284 271 274 271 H 190 V 334 L 297 311 L 299 321 L 190 357 Q 190 423 191 447 L 192 485 Q 192 496 177 504 Q 162 512 156 512 Q 149 512 149 497 V 490 Q 154 440 154 369 Q 66 398 39 412 Q 35 414 32 414 Q 29 414 25 408 L 3 375 L 154 342 V 271 H 90 L 82 283 Q 80 287 76 287 Q 72 287 69 284 L 38 259 Q 60 247 67 226 L 93 154 H 59 Q 35 154 20 160 L 0 135 Q 22 138 47 138 Z" fill="black" />
  </g>
  <g class="defect" id="01">
    <path d="M 350 500 Q 343 509 327 509" fill="none" stroke="red" stroke-width="3" />
  </g>
  <g class="defect" id="02">
    <path d="M 474 325 Q 491 274 399 203" fill="none" stroke="red" stroke-width="3" />
  </g>
  <g class="defect" id="03">
    <path d="M 63 59 Q 80 69 53 99" fill="none" stroke="red" stroke-width="3" />
  </g>
</svg>