<svg xmlns="http://www.w3.org/2000/svg" width="512" height="512" viewBox="0 0 512 512">
  <g class="glyph">
    <path d="M 95 43 H 56 Q 33 43 20 49 L 0 26 Q 21 28 45 28 H 213 L 237 0 L 265 33 Q 269 37 269 40 Q 269 43 261 43 H 182 V 114 H 210 L 225 94 L 259 119 Q 263 121 263 124 Q 263 127 258 130 L 247 136 V 382 L 249 441 Q 249 451 237 458 Q 224 466 219 466 Q 214 466 214 458 V 427 H 66 V 459 Q 66 470 62 473 Q 58 477 47 481 Q 37 486 33 486 Q 28 486 27 482 Q 26 480 26 476 Q 26 472 27 467 Q 32 424 32 384 V 148 Q 32 113 30 83 L 72 114 H 98 Q 98 88 95 43 Z M 153 43 H 123 Q 124 79 124 114 H 153 Z M 66 277 Q 97 226 98 129 H 66 Z M 182 129 V 232 Q 182 241 187 243 Q 191 246 199 246 Q 207 246 214 245 V 129 Z M 214 271 Q 199 272 190 272 Q 167 272 160 265 Q 153 258 153 237 V 129 H 124 Q 124 182 111 220 Q 98 259 66 294 V 322 H 214 Z M 214 411 V 337 H 66 V 411 Z M 486 49 Q 490 54 490 56 Q 490 58 482 58 H 329 Q 308 58 293 64 L 272 40 Q 293 43 317 43 H 427 L 455 11 Z M 508 195 Q 512 200 512 202 Q 512 205 504 205 H 309 Q 287 205 272 211 L 252 187 Q 272 190 296 190 H 443 L 473 154 Z M 449 419 381 430 Q 354 435 326 441 Q 298 447 291 450 Q 284 452 282 452 Q 278 452 276 448 L 260 415 Q 272 412 280 406 Q 287 399 300 372 Q 314 345 329 300 Q 344 255 356 206 L 397 228 Q 404 232 404 234 Q 404 236 397 240 Q 391 242 376 272 Q 341 352 308 411 L 446 406 Q 434 350 395 305 L 402 299 Q 430 331 469 367 Q 492 402 492 419 Q 492 436 483 450 Q 474 464 467 464 Q 460 464 455 459 Q 451 455 451 444 Q 451 433 449 419 Z" fill="black" />
  </g>
  <g class="defect" id="01">
    <path d="M 402 299 Q 430 331 469 367" fill="none" stroke="red" stroke-width="3" />
  </g>
</svg>