<svg xmlns="http://www.w3.org/2000/svg" width="512" height="512" viewBox="0 0 512 512">
  <g class="glyph">
    <path d="M 224 66 Q 225 53 225 39 Q 225 19 224 0 L 264 20 Q 269 21 269 24 Q 269 27 265 29 L 257 34 L 255 66 H 270 L 292 38 L 317 67 Q 335 59 322 76 Q 322 79 314 79 H 254 Q 252 119 249 131 H 281 L 306 100 L 334 133 Q 340 139 340 141 Q 340 143 331 143 H 248 Q 247 149 246 154 Q 285 169 302 182 Q 318 194 318 210 Q 318 218 312 225 Q 306 231 298 231 Q 289 231 286 217 Q 279 189 243 164 Q 229 217 158 246 L 153 241 Q 188 214 201 197 Q 213 179 219 144 Q 216 126 194 150 L 178 128 Q 199 131 221 131 Q 223 112 224 79 Q 207 80 193 85 L 177 63 Q 194 66 224 66 Z M 87 249 H 248 L 263 228 L 298 251 Q 301 253 301 255 Q 301 258 298 260 L 288 267 V 346 Q 288 360 289 374 L 292 397 Q 292 404 276 410 Q 261 417 258 417 Q 254 417 254 407 V 399 H 92 V 403 Q 92 409 90 412 Q 88 416 76 422 Q 64 427 60 427 Q 56 427 56 418 L 59 362 V 283 Q 59 264 57 237 Q 39 254 7 272 L 2 265 Q 42 229 58 203 Q 73 177 79 144 Q 44 144 29 150 L 13 130 Q 32 132 54 132 H 81 Q 85 108 86 80 H 83 Q 57 80 40 87 L 25 66 Q 44 68 66 68 H 87 Q 88 61 88 50 Q 88 30 86 1 L 131 21 Q 116 23 135 26 Q 135 28 131 30 L 120 37 Q 119 49 118 68 H 131 L 148 46 L 167 68 Q 172 75 172 78 Q 172 80 165 80 H 116 Q 114 108 110 132 H 132 L 152 107 L 173 132 Q 179 139 179 142 Q 179 144 171 144 H 108 Q 108 146 107 149 Q 106 153 106 154 Q 162 180 162 200 Q 162 207 157 216 Q 152 224 143 224 Q 135 224 131 210 Q 127 189 102 167 Q 89 208 60 235 Z M 254 295 V 263 H 92 V 295 Z M 254 340 V 309 H 92 V 340 Z M 254 386 V 354 H 92 V 386 Z M 376 62 V 391 Q 376 440 377 464 Q 378 487 378 492 Q 378 498 375 501 Q 371 505 361 508 Q 351 512 346 512 Q 340 512 340 502 L 342 447 Q 344 411 344 378 V 107 Q 344 66 342 20 L 382 48 H 446 L 462 25 L 501 54 Q 505 58 505 62 Q 505 66 498 67 Q 480 73 468 97 L 416 199 Q 461 234 483 262 Q 505 291 505 321 Q 505 350 497 366 Q 490 382 468 398 Q 446 413 440 413 Q 433 413 432 405 Q 429 386 419 379 Q 408 371 386 365 L 387 356 Q 417 360 432 360 Q 457 360 462 345 Q 466 330 466 313 Q 466 267 400 201 L 447 62 Z M 137 406 164 430 Q 170 434 170 438 Q 170 441 167 443 Q 165 443 162 443 H 161 Q 158 443 156 443 Q 150 443 137 449 Q 88 473 60 482 Q 33 492 2 499 L 0 492 Q 86 451 137 406 Z M 184 412 Q 282 427 298 443 Q 315 459 315 475 Q 315 492 304 492 Q 296 492 289 484 Q 258 456 236 444 Q 214 433 182 421 Z" fill="black" />
  </g>
  <g class="defect" id="01">
    <path d="M 131 21 Q 116 23 135 26" fill="none" stroke="red" stroke-width="3" />
  </g>
  <g class="defect" id="02">
    <path d="M 317 67 Q 335 59 322 76" fill="none" stroke="red" stroke-width="3" />
  </g>
  <g class="defect" id="03">
    <path d="M 219 144 Q 216 126 194 150" fill="none" stroke="red" stroke-width="3" />
  </g>
</svg>