<svg xmlns="http://www.w3.org/2000/svg" width="512" height="512" viewBox="0 0 512 512">
  <g class="glyph">
    <path d="M 100 175 H 52 Q 34 198 8 228 L 0 223 Q 81 100 107 0 L 149 25 Q 156 28 156 32 Q 156 35 148 37 Q 139 40 132 51 Q 197 67 211 85 Q 224 103 224 119 Q 224 129 218 134 Q 212 138 207 138 Q 202 138 192 123 Q 174 93 128 61 Q 102 109 64 160 H 151 L 175 131 L 201 166 Q 205 170 205 172 Q 205 175 200 175 H 135 V 250 H 165 L 191 217 L 222 256 Q 225 260 225 262 Q 225 266 218 266 H 135 V 374 Q 165 328 179 284 L 212 307 Q 217 311 217 314 Q 217 317 209 320 Q 204 320 189 337 Q 173 353 135 390 V 403 L 219 389 L 221 399 L 89 441 Q 51 454 34 468 Q 32 470 29 470 Q 26 470 23 465 L 5 427 L 100 410 V 266 H 59 Q 37 266 23 272 L 4 247 Q 28 250 49 250 H 100 Z M 442 174 330 186 Q 258 192 248 197 Q 237 202 234 202 Q 231 202 227 196 L 208 166 Q 231 160 246 146 Q 261 132 289 87 Q 317 42 334 0 L 376 26 Q 383 30 383 34 Q 383 39 375 40 Q 358 43 343 63 Q 282 141 257 166 L 437 161 Q 420 124 384 90 L 391 83 Q 441 115 464 138 Q 487 162 487 183 Q 487 196 480 206 Q 472 216 465 216 Q 457 216 453 211 Q 448 206 447 195 Q 445 185 442 174 Z M 493 350 Q 492 375 492 394 Q 492 414 495 426 Q 497 438 504 443 Q 512 449 512 454 Q 512 460 497 474 Q 482 487 423 487 Q 388 487 373 479 Q 358 472 358 448 V 300 Q 358 259 356 212 L 406 238 Q 412 241 412 245 Q 412 249 406 254 L 394 261 V 435 Q 394 447 400 450 Q 406 453 432 453 Q 448 453 456 446 Q 463 440 470 419 Q 476 398 484 350 Z M 317 234 Q 325 237 325 242 Q 325 246 317 251 Q 327 267 306 289 Q 297 388 248 432 Q 199 477 113 504 L 112 497 Q 201 455 237 403 Q 272 353 272 222 V 214 Z M 35 296 Q 68 318 77 330 Q 86 341 86 356 Q 86 385 64 385 Q 58 385 55 368 Q 49 329 29 302 Z" fill="black" />
  </g>
  <g class="defect" id="01">
    <path d="M 317 251 Q 327 267 306 289" fill="none" stroke="red" stroke-width="3" />
  </g>
</svg>