<svg xmlns="http://www.w3.org/2000/svg" width="512" height="512" viewBox="0 0 512 512">
  <g class="glyph">
    <path d="M 113 179 H 70 Q 41 219 7 255 L 0 249 Q 88 118 123 0 L 167 22 Q 174 25 174 29 Q 174 33 164 33 Q 154 34 146 55 Q 230 86 230 114 Q 230 127 225 136 Q 221 145 215 145 Q 209 145 206 143 Q 203 141 200 134 Q 190 113 176 97 Q 161 82 141 66 Q 117 113 81 164 H 167 L 195 139 L 226 170 Q 230 175 230 177 Q 230 179 223 179 H 150 V 255 H 181 L 208 222 L 240 261 Q 244 265 244 268 Q 244 271 236 271 H 150 V 383 Q 184 326 191 292 L 228 316 Q 233 319 233 322 Q 233 325 226 327 Q 219 329 205 344 Q 177 375 150 400 V 413 L 237 395 L 241 406 L 111 453 Q 81 448 48 483 Q 44 486 42 486 Q 39 486 35 479 L 12 442 L 113 420 V 271 H 81 Q 57 271 43 277 L 22 252 Q 46 255 69 255 H 113 Z M 428 265 H 308 V 290 Q 308 297 305 300 Q 302 304 289 310 Q 276 316 272 316 Q 267 316 267 311 Q 267 305 268 298 Q 271 261 271 213 V 111 Q 271 64 270 44 L 306 67 H 423 L 442 44 L 482 71 Q 486 74 486 77 Q 486 80 482 84 L 468 93 V 217 Q 468 233 469 250 L 470 277 Q 470 285 455 295 Q 439 304 434 304 Q 428 304 428 295 Z M 308 249 H 428 V 83 H 308 Z M 43 297 Q 69 315 82 332 Q 96 349 96 365 Q 96 381 87 391 Q 79 402 74 402 Q 68 402 65 399 Q 62 396 61 392 Q 60 389 60 380 Q 60 343 38 301 Z M 356 330 Q 363 333 363 337 Q 363 341 353 344 Q 344 348 330 366 Q 280 435 195 510 L 187 504 Q 263 420 317 309 Z M 391 318 Q 438 352 475 389 Q 512 426 512 459 Q 512 492 494 492 Q 482 492 475 473 Q 451 398 384 325 Z" fill="black" />
  </g>
  <g class="defect" id="01">
    <path d="M 111 453 Q 81 448 48 483" fill="none" stroke="red" stroke-width="3" />
  </g>
</svg>