<svg xmlns="http://www.w3.org/2000/svg" width="512" height="512" viewBox="0 0 512 512">
  <g class="glyph">
    <path d="M 103 166 H 59 Q 34 202 9 227 L 0 220 Q 32 175 62 112 Q 91 49 105 0 L 149 19 Q 155 22 155 25 Q 155 29 147 30 Q 140 31 134 39 Q 216 67 216 99 Q 216 110 211 117 Q 207 125 202 125 Q 197 125 194 123 Q 191 121 187 115 Q 168 77 129 48 Q 98 110 69 152 H 150 L 176 121 L 206 157 Q 209 162 209 164 Q 209 166 204 166 H 138 V 238 H 165 L 191 207 L 219 241 Q 237 243 258 243 H 432 L 459 211 L 489 247 Q 493 251 493 254 Q 493 258 486 258 H 365 V 342 H 417 L 445 310 L 475 347 Q 479 350 479 354 Q 479 357 472 357 H 365 V 454 H 452 L 479 421 L 509 457 Q 512 462 512 465 Q 512 468 506 468 H 232 Q 211 468 197 474 L 179 451 Q 201 454 221 454 H 326 V 357 H 281 Q 259 357 248 363 L 228 340 Q 251 342 272 342 H 326 V 258 H 269 Q 250 258 234 263 L 225 251 Q 223 253 218 253 H 138 V 361 Q 165 314 176 276 L 211 298 Q 216 301 216 304 Q 216 307 209 309 Q 202 311 190 325 Q 167 350 138 378 V 397 L 225 378 L 226 387 L 101 435 Q 62 451 43 464 Q 39 468 36 468 Q 32 468 28 462 L 6 426 L 103 404 V 253 H 77 Q 55 253 41 258 L 21 235 Q 45 238 66 238 H 103 Z M 413 176 H 282 V 192 Q 282 200 280 203 Q 277 207 265 212 Q 252 217 248 217 Q 244 217 243 213 Q 243 212 243 210 Q 243 203 245 188 Q 247 166 247 145 V 82 Q 229 58 246 22 L 287 48 H 407 L 429 22 L 466 55 Q 456 59 470 60 Q 470 62 467 65 L 450 77 V 123 Q 450 139 451 155 L 453 181 Q 453 189 437 196 Q 406 204 417 204 Q 413 204 413 197 Z M 282 162 H 413 V 62 H 282 Z M 32 277 Q 52 294 66 310 Q 80 326 80 342 Q 80 357 72 368 Q 64 378 59 378 Q 54 378 51 375 Q 48 371 47 368 Q 46 365 46 356 Q 46 323 26 282 Z" fill="black" />
  </g>
  <g class="defect" id="01">
    <path d="M 437 196 Q 406 204 417 204" fill="none" stroke="red" stroke-width="3" />
  </g>
  <g class="defect" id="02">
    <path d="M 247 82 Q 229 58 246 22" fill="none" stroke="red" stroke-width="3" />
  </g>
  <g class="defect" id="03">
    <path d="M 466 55 Q 456 59 470 60" fill="none" stroke="red" stroke-width="3" />
  </g>
</svg>