<svg xmlns="http://www.w3.org/2000/svg" width="512" height="512" viewBox="0 0 512 512">
  <g class="glyph">
    <path d="M 85 104 Q 66 148 50 174 H 126 L 148 148 L 176 181 Q 178 185 178 187 Q 178 189 172 189 H 109 V 272 H 133 L 154 246 L 180 277 Q 183 282 183 284 Q 183 287 176 287 H 109 V 413 L 185 370 L 191 377 L 127 432 Q 108 448 96 466 Q 93 472 89 472 Q 85 472 82 468 L 57 439 Q 69 430 72 423 Q 75 417 75 403 V 287 Q 42 287 28 292 L 9 269 Q 27 272 75 272 V 189 H 42 Q 31 210 9 243 L 0 237 Q 50 150 82 0 L 119 21 Q 129 26 129 30 Q 129 34 121 36 Q 114 38 109 48 Q 104 58 91 89 H 128 L 149 63 L 176 95 Q 179 99 179 101 Q 179 104 173 104 Z M 495 34 Q 501 38 501 42 Q 501 45 494 47 L 486 51 V 441 Q 486 462 481 473 Q 476 484 459 497 Q 443 510 439 510 Q 435 510 433 502 Q 429 485 419 477 Q 409 469 374 459 L 376 451 Q 410 454 424 454 Q 439 454 445 452 Q 451 450 451 439 V 96 Q 451 44 449 5 Z M 227 59 H 305 L 323 36 L 354 62 Q 360 66 360 69 Q 360 72 353 75 L 343 82 V 273 Q 343 294 344 315 Q 346 335 346 336 Q 346 348 332 354 Q 318 359 315 359 Q 310 359 310 353 V 74 H 222 V 336 Q 222 347 218 351 Q 213 354 204 359 Q 195 363 189 363 Q 184 363 184 352 Q 184 349 185 345 Q 190 298 190 258 V 97 Q 190 61 188 30 Z M 420 103 412 110 V 299 Q 412 339 413 353 Q 414 368 414 370 Q 414 373 410 376 Q 407 379 396 383 Q 385 388 381 388 Q 378 388 378 379 L 380 350 Q 369 316 380 298 V 118 Q 380 95 378 67 L 420 90 Q 425 94 425 96 Q 425 100 420 103 Z M 259 391 Q 230 465 112 512 L 108 503 Q 159 475 188 447 Q 218 418 231 385 Q 243 352 249 289 Q 253 238 253 152 V 114 L 288 133 Q 294 136 294 139 Q 294 142 289 146 Q 284 150 284 174 Q 283 311 264 379 Q 307 395 327 406 Q 347 416 353 424 Q 358 433 358 446 Q 358 476 341 476 Q 336 476 327 458 Q 317 440 304 427 Q 292 414 259 391 Z" fill="black" />
  </g>
  <g class="defect" id="01">
    <path d="M 380 350 Q 369 316 380 298" fill="none" stroke="red" stroke-width="3" />
  </g>
</svg>