<svg xmlns="http://www.w3.org/2000/svg" width="512" height="512" viewBox="0 0 512 512">
  <g class="glyph">
    <path d="M 62 102 Q 64 114 64 124 Q 64 149 52 163 Q 39 177 26 177 Q 13 177 7 171 Q 1 166 1 159 Q 1 153 17 138 Q 34 123 40 110 Q 46 97 46 68 H 54 L 60 87 H 226 V 51 H 121 Q 99 51 83 56 L 63 33 Q 84 36 110 36 H 357 L 388 0 L 421 40 Q 426 45 426 48 Q 426 51 418 51 H 261 V 87 H 432 L 452 56 L 498 94 Q 504 99 504 103 Q 504 106 494 107 Q 473 109 457 121 Q 440 133 420 155 L 412 149 L 435 102 H 261 Q 261 160 262 174 L 263 196 Q 251 184 248 210 Q 234 217 229 217 Q 224 217 224 207 L 225 175 Q 226 155 226 102 Z M 390 149 H 290 V 134 H 390 Z M 195 150 H 98 V 135 H 195 Z M 406 193 H 290 V 177 H 406 Z M 198 195 H 76 V 180 H 198 Z M 294 369 V 445 Q 294 454 302 457 Q 309 460 334 460 Q 358 460 385 458 Q 412 457 422 454 Q 431 451 437 443 Q 443 434 446 417 Q 450 399 454 363 H 464 V 376 Q 464 414 466 425 Q 470 440 480 446 Q 490 452 490 457 Q 490 466 462 479 Q 434 492 345 492 Q 322 506 296 491 Q 279 489 273 485 Q 266 481 262 473 Q 258 465 258 451 V 369 H 208 Q 207 432 158 465 Q 110 498 2 512 L 0 503 Q 96 481 134 450 Q 173 419 174 369 H 104 V 380 Q 104 394 88 400 Q 73 407 68 407 Q 74 407 62 401 Q 62 394 63 389 Q 68 354 68 325 V 285 Q 68 250 66 219 L 114 246 Q 162 231 199 206 L 222 233 Q 225 238 225 240 Q 225 243 223 244 Q 220 245 212 245 Q 203 245 104 263 V 297 H 176 L 201 268 L 231 303 Q 234 307 234 309 Q 234 312 227 312 H 104 V 354 H 371 V 310 H 319 Q 296 310 281 316 L 261 292 Q 282 295 306 295 H 371 V 253 H 312 Q 289 253 274 259 L 254 235 Q 275 238 300 238 H 366 L 384 215 L 416 238 Q 420 241 420 245 Q 420 248 415 250 L 408 252 V 309 Q 408 326 409 342 L 411 368 Q 411 377 395 386 Q 380 394 375 394 Q 371 394 371 386 V 369 Z" fill="black" />
  </g>
  <g class="defect" id="01">
    <path d="M 345 492 Q 322 506 296 491" fill="none" stroke="red" stroke-width="3" />
  </g>
  <g class="defect" id="02">
    <path d="M 68 407 Q 74 407 62 401" fill="none" stroke="red" stroke-width="3" />
  </g>
  <g class="defect" id="03">
    <path d="M 263 196 Q 251 184 248 210" fill="none" stroke="red" stroke-width="3" />
  </g>
</svg>