<svg xmlns="http://www.w3.org/2000/svg" width="512" height="512" viewBox="0 0 512 512">
  <g class="glyph">
    <path d="M 95 0 Q 121 7 136 19 Q 151 31 151 42 Q 151 55 144 65 Q 136 75 124 75 Q 112 75 111 57 Q 111 40 106 29 Q 102 19 90 5 Z M 356 74 H 303 Q 280 74 266 80 L 246 56 Q 270 59 291 59 H 448 L 475 26 L 507 63 Q 511 68 511 71 Q 511 74 503 74 H 389 V 157 H 435 L 452 135 L 489 160 Q 494 163 494 166 Q 494 169 489 172 L 477 179 V 383 Q 477 416 462 428 Q 448 441 441 441 Q 435 441 434 431 Q 432 422 424 415 Q 416 408 392 400 L 393 392 Q 412 394 423 394 Q 434 394 438 391 Q 442 388 442 380 V 172 H 389 V 384 Q 389 433 390 458 Q 391 483 391 487 Q 391 492 387 495 Q 384 498 372 505 Q 360 512 356 512 Q 351 512 351 502 L 354 443 Q 356 405 356 371 V 172 H 303 V 413 Q 303 420 300 423 Q 297 427 284 433 Q 271 439 266 439 Q 264 439 264 431 Q 264 427 264 421 Q 269 363 269 302 V 195 Q 269 161 267 130 L 303 157 H 356 Z M 235 90 Q 239 94 239 96 Q 239 100 231 100 H 69 Q 46 100 32 105 L 12 83 Q 32 86 57 86 H 175 L 200 53 Z M 142 206 Q 162 155 173 106 L 214 124 Q 220 127 220 130 Q 220 133 211 138 Q 202 143 190 156 Q 179 169 154 206 H 201 L 227 174 L 258 211 Q 260 215 260 218 Q 260 221 253 221 H 56 Q 33 221 19 225 L 0 203 Q 20 206 45 206 Z M 66 115 Q 120 146 120 165 Q 120 178 113 188 Q 105 198 97 198 Q 85 198 84 181 Q 82 152 59 120 Z M 177 448 H 85 V 467 Q 85 476 83 479 Q 81 482 69 488 Q 58 493 53 493 Q 48 493 48 483 L 50 455 Q 50 438 50 404 V 283 Q 50 262 48 234 L 89 260 H 173 L 188 239 L 222 262 Q 227 265 227 269 Q 227 272 223 275 L 212 282 V 387 Q 212 409 214 429 Q 234 460 215 450 Q 215 460 200 467 Q 185 473 181 473 Q 177 473 177 465 Z M 85 340 H 177 V 275 H 85 Z M 177 356 H 85 V 433 H 177 Z" fill="black" />
  </g>
  <g class="defect" id="01">
    <path d="M 214 429 Q 234 460 215 450" fill="none" stroke="red" stroke-width="3" />
  </g>
</svg>