<svg xmlns="http://www.w3.org/2000/svg" width="512" height="512" viewBox="0 0 512 512">
  <g class="glyph">
    <path d="M 306 61 Q 310 65 310 67 Q 310 69 303 69 H 227 V 98 H 258 L 272 83 L 299 101 Q 303 104 303 105 Q 303 106 298 109 L 293 112 V 149 L 294 182 Q 294 193 283 198 Q 271 203 268 203 Q 265 203 265 194 H 227 V 225 H 263 L 279 206 L 301 229 Q 304 232 304 234 Q 304 236 297 236 H 227 L 228 261 Q 228 271 217 275 Q 206 279 203 279 Q 200 279 200 274 Q 200 271 200 269 Q 201 258 201 236 H 171 Q 147 236 134 242 L 116 223 Q 138 225 159 225 H 202 V 194 H 165 Q 163 200 154 205 Q 145 209 141 209 Q 137 209 137 200 L 138 157 V 112 Q 138 95 137 81 L 166 98 H 202 V 69 H 173 Q 149 69 138 74 L 122 57 Q 130 58 161 58 H 202 Q 202 25 199 0 L 237 17 Q 240 19 240 21 Q 240 23 236 24 L 227 28 V 58 H 261 L 283 36 Z M 265 140 V 110 H 227 V 140 Z M 202 140 V 110 H 165 V 140 Z M 265 182 V 151 H 227 V 182 Z M 202 182 V 151 H 165 V 182 Z M 487 138 Q 491 143 491 144 Q 491 146 486 146 H 427 V 183 Q 427 223 429 235 L 431 260 Q 431 271 417 276 Q 403 281 400 281 Q 396 281 395 278 Q 394 277 394 274 Q 394 270 395 264 Q 398 226 398 172 V 146 H 354 Q 353 195 336 226 Q 319 256 279 285 L 274 281 Q 302 253 312 229 Q 321 205 324 169 Q 327 133 327 112 Q 327 91 325 39 L 356 60 Q 411 46 456 23 L 478 49 Q 481 53 481 55 Q 481 58 478 58 Q 476 58 472 57 Q 468 55 461 55 Q 453 55 436 58 L 355 72 V 92 Q 365 96 354 134 H 434 L 459 108 Z M 36 25 Q 62 30 76 36 Q 90 43 94 49 Q 98 55 98 65 Q 98 88 84 88 Q 74 88 69 73 Q 62 49 34 28 Z M 11 88 Q 39 95 54 103 Q 69 111 69 122 Q 69 133 65 140 Q 60 147 51 147 Q 41 147 36 129 Q 32 110 10 92 Z M 125 92 86 176 Q 73 205 73 219 Q 73 232 75 240 Q 76 248 76 255 Q 87 263 71 269 Q 84 263 58 276 Q 35 276 35 257 Q 35 252 38 241 Q 41 231 41 222 Q 41 213 32 207 Q 23 201 4 196 L 6 187 Q 27 191 37 191 Q 48 191 54 188 Q 59 185 64 176 L 118 90 Z M 466 403 Q 465 421 465 436 Q 465 451 468 459 Q 471 466 477 469 Q 483 473 483 475 Q 483 478 476 488 Q 468 497 460 501 Q 452 505 430 507 Q 408 508 329 508 Q 250 508 234 502 Q 218 496 218 473 V 416 Q 194 449 147 471 Q 99 492 2 512 L 0 505 Q 91 481 137 455 Q 182 429 202 392 H 111 Q 111 406 98 412 Q 85 418 82 418 Q 76 418 76 407 Q 76 404 76 401 Q 78 381 78 359 V 323 Q 78 296 76 279 L 107 299 H 149 Q 159 278 164 257 L 192 269 Q 197 271 197 273 Q 197 276 190 278 Q 182 280 165 299 H 351 L 365 280 L 396 301 Q 401 304 401 307 Q 401 310 396 312 L 387 315 V 345 Q 387 364 390 376 Q 392 387 392 389 Q 392 397 379 402 Q 366 407 361 407 Q 357 407 357 392 H 232 Q 230 393 229 397 L 255 408 Q 259 410 259 412 Q 259 415 255 417 L 246 423 V 462 Q 246 478 256 483 Q 267 487 327 487 Q 425 487 440 480 Q 454 473 458 403 Z M 357 339 V 311 H 253 Q 251 325 248 339 Z M 223 311 H 111 V 339 H 219 Z M 357 379 V 351 H 245 Q 241 371 237 379 Z M 215 351 H 111 V 379 H 207 Q 213 367 215 351 Z M 367 416 Q 391 425 403 433 Q 414 440 414 450 Q 414 459 409 466 Q 404 472 397 472 Q 389 472 387 457 Q 387 453 386 451 Q 336 459 316 464 Q 297 468 292 472 Q 286 476 284 476 Q 281 476 279 473 L 264 450 Q 283 447 299 426 Q 316 404 318 394 L 342 407 Q 348 410 348 412 Q 348 415 342 417 Q 332 420 294 449 L 383 444 Q 377 430 365 420 Z" fill="black" />
  </g>
  <g class="defect" id="01">
    <path d="M 355 92 Q 365 96 354 134" fill="none" stroke="red" stroke-width="3" />
  </g>
  <g class="defect" id="02">
    <path d="M 71 269 Q 84 263 58 276" fill="none" stroke="red" stroke-width="3" />
  </g>
  <g class="defect" id="03">
    <path d="M 76 255 Q 87 263 71 269" fill="none" stroke="red" stroke-width="3" />
  </g>
</svg>