<svg xmlns="http://www.w3.org/2000/svg" width="512" height="512" viewBox="0 0 512 512">
  <g class="glyph">
    <path d="M 164 210 Q 194 221 213 232 Q 232 243 238 250 Q 244 258 244 266 Q 244 274 240 281 Q 235 288 230 288 Q 220 288 211 271 Q 198 247 164 221 Q 165 230 165 236 Q 165 250 153 255 Q 140 260 136 260 Q 130 260 130 252 Q 130 244 131 234 Q 74 305 4 344 L 0 337 Q 80 267 133 187 V 87 H 76 Q 54 87 38 93 L 18 70 Q 39 73 64 73 H 133 Q 133 46 130 0 L 173 20 Q 179 23 179 26 Q 179 30 173 33 L 163 37 V 73 H 202 L 223 47 L 252 78 Q 256 82 256 85 Q 256 87 247 87 H 163 V 193 Q 194 144 210 95 L 240 112 Q 244 115 244 117 Q 244 120 239 122 Q 233 124 215 147 Q 229 157 239 171 Q 249 186 249 192 Q 236 199 243 208 Q 238 218 233 218 Q 228 218 226 206 Q 218 176 208 157 Q 188 185 164 210 Z M 288 133 H 329 Q 336 105 345 58 H 296 Q 275 58 259 64 L 239 40 Q 260 43 284 43 H 446 L 472 8 L 508 47 Q 512 52 512 55 Q 512 58 504 58 H 387 Q 364 96 345 133 H 443 L 459 111 L 493 134 Q 498 138 498 140 Q 498 144 492 148 L 481 155 V 413 Q 481 436 482 456 Q 484 476 484 477 Q 484 486 469 493 Q 454 499 451 499 Q 448 499 448 493 V 455 H 290 V 479 Q 290 492 286 496 Q 282 499 273 502 Q 265 505 261 505 Q 257 505 256 501 Q 255 499 255 496 Q 255 492 256 487 Q 261 442 261 401 V 182 Q 261 145 259 115 Z M 322 148 H 290 V 440 H 322 Z M 389 148 H 350 V 230 H 389 Z M 448 440 V 148 H 417 V 440 Z M 350 246 V 332 H 389 V 246 Z M 350 440 H 389 V 347 H 350 Z M 76 159 Q 58 189 30 230 L 20 224 Q 53 166 72 95 L 106 112 Q 110 115 110 117 Q 110 120 104 122 Q 93 126 81 151 Q 104 160 112 171 Q 120 183 120 188 Q 120 193 116 199 Q 112 206 106 206 Q 98 206 95 196 Q 89 171 76 159 Z M 89 372 Q 70 394 42 418 L 36 410 Q 89 348 123 261 L 156 273 Q 164 277 164 280 Q 164 284 154 288 Q 145 291 134 312 H 190 L 205 293 L 235 317 Q 240 321 240 324 Q 240 327 232 330 Q 224 333 209 354 Q 194 375 179 393 Q 212 412 212 435 Q 200 454 208 450 Q 204 457 201 457 Q 193 457 182 441 Q 171 426 159 414 Q 109 463 19 507 L 12 499 Q 104 440 138 399 Q 130 385 89 372 Z M 123 328 Q 114 342 97 363 Q 132 373 153 381 Q 170 361 188 328 Z" fill="black" />
  </g>
  <g class="defect" id="01">
    <path d="M 138 399 Q 130 385 89 372" fill="none" stroke="red" stroke-width="3" />
  </g>
  <g class="defect" id="02">
    <path d="M 212 435 Q 200 454 208 450" fill="none" stroke="red" stroke-width="3" />
  </g>
  <g class="defect" id="03">
    <path d="M 249 192 Q 236 199 243 208" fill="none" stroke="red" stroke-width="3" />
  </g>
</svg>