<svg xmlns="http://www.w3.org/2000/svg" width="512" height="512" viewBox="0 0 512 512">
  <g class="glyph">
    <path d="M 339 234 H 408 L 435 202 L 467 239 Q 470 243 470 245 Q 470 248 463 248 H 339 V 354 H 424 L 453 320 L 485 358 Q 488 363 488 365 Q 488 368 481 368 H 339 V 375 Q 339 425 340 455 Q 341 484 341 486 Q 341 501 323 506 Q 305 512 302 512 Q 297 512 297 503 L 300 444 Q 302 406 302 374 V 129 H 285 Q 253 184 219 225 L 211 220 Q 277 101 303 0 L 346 22 Q 354 26 354 30 Q 367 50 343 39 Q 332 45 322 64 Q 312 84 293 115 H 427 L 458 78 L 494 120 Q 497 124 497 127 Q 497 129 489 129 H 339 Z M 48 174 Q 28 197 6 219 L 0 214 Q 70 111 111 1 L 153 18 Q 159 21 159 24 Q 159 27 151 31 Q 140 36 130 55 Q 119 74 115 80 H 154 L 173 59 L 207 87 Q 211 90 211 94 Q 211 98 201 99 Q 191 101 181 115 L 144 166 H 174 L 185 147 L 218 167 Q 223 169 223 171 Q 223 173 218 177 L 209 185 V 290 Q 209 309 210 324 L 212 349 Q 212 359 200 367 Q 187 375 183 375 Q 178 375 178 368 V 347 H 79 Q 79 360 76 364 Q 72 368 63 372 Q 54 376 48 376 Q 42 376 42 367 Q 42 364 43 361 Q 48 316 48 276 Z M 106 95 Q 72 122 63 156 L 78 166 H 128 L 157 95 Z M 79 245 H 112 V 181 H 79 Z M 144 245 H 178 V 181 H 144 Z M 112 260 H 79 V 332 H 112 Z M 178 260 H 144 V 332 H 178 Z M 244 397 115 436 Q 90 443 68 453 Q 47 462 42 467 Q 37 472 34 472 Q 30 472 26 464 L 11 428 L 242 388 Z" fill="black" />
  </g>
  <g class="defect" id="01">
    <path d="M 354 30 Q 367 50 343 39" fill="none" stroke="red" stroke-width="3" />
  </g>
  <g class="defect" id="02">
    <path d="M 106 95 Q 72 122 63 156" fill="none" stroke="red" stroke-width="3" />
  </g>
</svg>