<svg xmlns="http://www.w3.org/2000/svg" width="512" height="512" viewBox="0 0 512 512">
  <g class="glyph">
    <path d="M 490 126 Q 494 130 494 133 Q 494 137 486 138 Q 478 139 467 146 Q 444 163 437 173 L 431 169 L 446 132 H 328 L 362 146 Q 367 149 367 152 Q 367 155 361 158 L 355 162 V 190 L 389 184 L 403 161 L 428 181 Q 434 186 434 189 Q 434 192 426 193 L 355 204 V 215 Q 355 228 361 233 Q 368 237 392 237 Q 415 237 425 234 Q 435 231 439 220 Q 443 209 447 182 H 454 Q 455 209 457 218 Q 460 226 465 229 Q 470 232 470 236 Q 480 251 461 248 Q 452 255 439 257 Q 425 258 373 258 Q 345 258 337 251 Q 329 244 328 226 L 328 210 Q 303 211 287 220 L 268 198 V 232 Q 268 321 262 364 Q 257 408 241 437 Q 226 467 188 507 L 182 504 Q 215 462 227 415 Q 239 368 239 244 V 150 Q 239 121 237 92 L 269 117 H 326 V 52 Q 326 30 324 0 L 362 15 Q 369 18 369 20 Q 369 23 364 28 L 357 34 V 60 H 423 L 448 34 L 476 65 Q 479 69 479 71 Q 479 73 472 73 H 357 V 117 H 445 L 461 102 Z M 328 194 V 186 Q 328 158 325 132 H 268 V 197 Q 276 198 292 198 Q 308 198 328 194 Z M 202 66 193 71 V 123 Q 193 141 195 157 L 196 181 Q 196 190 184 196 Q 173 203 168 203 Q 163 203 163 191 H 80 Q 79 195 69 201 Q 59 206 55 206 Q 51 206 51 195 L 52 169 Q 52 154 52 127 V 79 Q 52 59 51 33 L 82 52 H 99 Q 109 31 114 2 L 143 15 Q 151 18 151 21 Q 151 24 143 26 Q 136 28 114 52 H 162 L 174 37 L 200 55 Q 206 58 206 60 Q 206 63 202 66 Z M 163 93 V 64 H 81 V 93 Z M 163 134 V 106 H 81 V 134 Z M 163 177 V 146 H 81 V 177 Z M 217 234 210 239 V 258 Q 210 276 211 291 L 213 315 Q 213 323 201 331 Q 189 338 185 338 Q 180 338 180 328 H 61 Q 60 338 51 343 Q 42 348 36 348 Q 30 348 30 336 Q 30 336 31 319 Q 32 302 32 279 V 248 Q 32 226 30 198 L 64 221 H 176 L 190 207 L 217 225 Q 220 227 220 229 Q 220 231 217 234 Z M 180 268 V 234 H 135 V 268 Z M 108 268 V 234 H 62 V 268 Z M 180 315 V 281 H 135 V 315 Z M 108 315 V 281 H 62 V 315 Z M 508 476 Q 512 480 512 482 Q 512 485 505 485 H 297 Q 278 485 263 491 L 244 468 Q 263 470 286 470 H 301 V 325 Q 301 292 299 263 L 330 284 H 411 L 426 268 L 454 287 Q 458 291 458 293 Q 458 296 454 299 L 445 303 V 470 H 456 L 477 442 Z M 414 344 V 298 H 330 V 344 Z M 414 404 V 358 H 330 V 404 Z M 414 470 V 417 H 330 V 470 Z M 219 369 Q 224 374 224 376 Q 224 379 217 379 H 176 V 416 Q 176 440 178 455 Q 181 470 181 472 Q 181 480 167 486 Q 154 493 150 493 Q 144 493 144 485 Q 144 477 145 463 Q 146 448 146 414 V 379 H 100 Q 93 435 75 456 Q 56 476 3 494 L 0 487 Q 38 467 52 447 Q 66 427 70 379 H 55 Q 34 379 21 384 L 4 363 Q 23 366 44 366 H 176 L 195 344 Z" fill="black" />
  </g>
  <g class="defect" id="01">
    <path d="M 470 236 Q 480 251 461 248" fill="none" stroke="red" stroke-width="3" />
  </g>
  <g class="defect" id="02">
    <path d="M 467 146 Q 444 163 437 173" fill="none" stroke="red" stroke-width="3" />
  </g>
</svg>