<svg xmlns="http://www.w3.org/2000/svg" width="512" height="512" viewBox="0 0 512 512">
  <g class="glyph">
    <path d="M 267 487 Q 267 493 265 497 Q 262 501 255 504 Q 242 512 237 512 Q 233 512 233 506 Q 233 503 233 495 Q 233 487 234 474 Q 235 448 235 426 L 149 446 Q 140 448 132 451 Q 124 453 117 457 Q 111 460 107 462 Q 104 464 102 464 Q 100 464 99 462 Q 97 461 96 458 L 75 429 L 143 420 V 264 Q 119 265 125 266 Q 116 268 110 270 L 92 248 Q 90 339 73 397 Q 56 453 8 507 L 0 501 Q 30 453 44 398 Q 59 342 59 270 V 86 Q 59 58 57 29 L 92 58 H 417 L 444 28 L 476 61 Q 482 67 482 69 Q 482 73 473 73 H 92 V 247 Q 111 250 135 250 H 272 L 293 224 L 324 253 Q 327 257 327 261 Q 327 264 320 264 H 265 V 404 L 320 397 L 322 406 L 265 419 V 427 Z M 358 396 Q 364 378 338 352 Q 328 325 320 292 Q 310 293 300 298 L 282 274 Q 291 275 301 276 Q 312 277 324 277 H 406 L 420 257 L 450 280 Q 456 286 456 290 Q 456 294 450 296 Q 443 297 438 303 Q 433 310 427 322 Q 417 347 408 366 Q 398 384 390 397 Q 410 416 436 429 Q 462 441 495 445 V 453 Q 489 454 484 455 Q 480 457 476 459 Q 472 461 469 465 Q 465 469 461 477 Q 459 482 456 482 Q 450 482 422 464 Q 408 454 395 443 Q 383 432 373 419 Q 339 461 277 487 L 273 478 Q 299 460 321 440 Q 343 419 358 396 Z M 375 158 V 173 Q 375 192 377 204 L 378 224 Q 378 231 366 237 Q 355 242 352 242 Q 346 242 346 229 V 225 Q 347 215 347 202 Q 348 190 348 174 V 164 Q 308 207 256 230 L 251 223 Q 280 202 302 181 Q 323 160 338 138 Q 306 138 290 144 L 270 122 Q 290 125 315 125 H 348 V 117 Q 348 109 347 99 Q 347 89 346 76 L 383 94 Q 389 97 389 100 Q 389 102 385 106 L 375 111 V 125 H 415 L 437 99 L 465 129 Q 468 134 468 136 Q 468 138 462 138 H 375 V 147 Q 430 166 442 175 Q 455 184 455 199 Q 455 207 450 215 Q 444 223 440 223 Q 433 223 427 209 Q 420 194 410 183 Q 399 172 375 158 Z M 213 127 H 223 L 244 106 L 266 131 Q 271 136 271 138 Q 271 141 264 141 H 213 V 151 Q 237 156 253 163 Q 268 171 268 185 Q 268 191 265 196 Q 261 201 254 201 Q 247 201 239 186 Q 232 172 213 163 V 190 Q 213 198 213 204 L 214 223 Q 214 232 202 237 Q 191 242 187 242 Q 183 242 183 233 Q 183 229 184 225 Q 185 205 185 180 V 169 Q 136 190 101 236 L 96 230 Q 142 188 176 141 H 155 Q 133 141 118 147 L 99 124 Q 119 127 144 127 H 185 V 117 Q 185 103 184 76 L 221 94 Q 227 97 227 100 Q 227 102 222 106 L 213 111 Z M 330 291 Q 340 317 350 338 Q 361 359 372 374 Q 382 357 391 336 Q 399 315 407 291 Z M 171 371 V 417 L 235 408 V 371 Z M 171 316 V 356 H 235 V 316 Z M 171 264 V 301 H 235 V 264 Z M 236 0 Q 272 4 287 12 Q 303 19 303 30 V 31 Q 303 38 299 44 Q 296 50 290 53 Q 286 54 283 54 Q 280 54 277 53 Q 270 51 266 40 Q 257 20 233 6 Z" fill="black" />
  </g>
  <g class="defect" id="01">
    <path d="M 358 396 Q 364 378 338 352" fill="none" stroke="red" stroke-width="3" />
  </g>
  <g class="defect" id="02">
    <path d="M 143 264 Q 119 265 125 266" fill="none" stroke="red" stroke-width="3" />
  </g>
  <g class="defect" id="03">
    <path d="M 185 169 Q 136 190 101 236" fill="none" stroke="red" stroke-width="3" />
  </g>
</svg>