<svg xmlns="http://www.w3.org/2000/svg" width="512" height="512" viewBox="0 0 512 512">
  <g class="glyph">
    <path d="M 29 512 0 501 Q 9 483 5 489 Q 50 397 68 363 Q 90 338 113 363 Q 126 383 147 404 Q 323 259 406 144 Q 415 131 413 126 Q 408 120 395 120 H 5 V 97 H 223 Q 217 74 198 27 Q 192 9 189 0 H 228 Q 250 56 264 97 H 420 Q 444 97 453 115 Q 450 135 449 156 Q 341 293 167 431 Q 171 433 178 442 Q 185 449 187 453 Q 217 480 257 480 H 489 L 480 507 H 250 Q 194 510 167 474 Q 129 431 99 390 Q 90 379 86 390 Q 63 435 29 512 Z" fill="black" />
  </g>
  <g class="defect" id="01">
    <path d="M 453 115 Q 450 135 449 156" fill="none" stroke="red" stroke-width="3" />
  </g>
</svg>