<svg xmlns="http://www.w3.org/2000/svg" width="512" height="512" viewBox="0 0 512 512">
  <g class="glyph">
    <path d="M 149 53 V 31 H 512 V 53 H 339 Q 335 69 326 111 Q 321 135 319 142 H 439 Q 483 146 488 188 V 452 Q 503 476 446 492 H 217 Q 173 490 171 446 V 188 Q 173 144 215 142 H 281 Q 284 137 286 122 Q 297 71 301 53 Z M 428 470 Q 452 468 454 443 V 328 H 206 V 441 Q 206 470 233 470 Z M 206 191 V 304 H 454 V 195 Q 452 168 426 166 H 235 Q 208 168 206 191 Z M 66 499 V 171 Q 27 204 27 233 L 0 215 Q 69 106 106 0 H 146 Q 113 86 66 168 H 102 V 499 Z" fill="black" />
  </g>
  <g class="defect" id="01">
    <path d="M 488 452 Q 503 476 446 492" fill="none" stroke="red" stroke-width="3" />
  </g>
  <g class="defect" id="02">
    <path d="M 66 171 Q 27 204 27 233" fill="none" stroke="red" stroke-width="3" />
  </g>
</svg>