<svg xmlns="http://www.w3.org/2000/svg" width="512" height="512" viewBox="0 0 512 512">
  <g class="glyph">
    <path d="M 23 233 0 215 Q 89 139 142 41 H 181 Q 178 46 171 57 Q 167 66 162 73 H 343 Q 363 75 366 89 Q 370 98 363 110 Q 357 117 345 135 Q 329 155 320 165 H 434 Q 471 167 473 201 V 279 Q 471 309 430 311 H 329 V 405 Q 327 457 384 455 H 512 L 505 478 H 350 Q 297 475 295 416 V 311 H 265 Q 226 437 48 503 L 30 478 Q 187 418 229 311 H 110 Q 71 309 69 274 V 201 Q 69 201 69 197 Q 71 192 71 190 Q 41 219 23 233 Z M 7 114 V 48 Q 7 0 59 0 H 459 Q 503 0 503 50 V 114 H 469 V 53 Q 469 23 437 23 H 71 Q 46 25 43 53 V 114 Z M 290 185 Q 300 247 272 290 H 411 Q 439 290 439 265 V 210 Q 439 185 414 185 Z M 103 263 Q 103 290 133 290 H 238 Q 251 247 256 185 H 130 Q 105 185 103 210 Z M 94 167 Q 101 165 112 165 H 281 Q 290 151 309 126 Q 318 112 322 107 Q 327 101 325 96 Q 341 74 313 94 H 149 Q 117 142 94 167 Z M 405 421 Q 386 366 370 336 H 407 Q 409 341 414 352 Q 425 373 443 421 Z" fill="black" />
  </g>
  <g class="defect" id="01">
    <path d="M 325 96 Q 341 74 313 94" fill="none" stroke="red" stroke-width="3" />
  </g>
  <g class="defect" id="02">
    <path d="M 290 185 Q 300 247 272 290" fill="none" stroke="red" stroke-width="3" />
  </g>
</svg>