<svg xmlns="http://www.w3.org/2000/svg" width="512" height="512" viewBox="0 0 512 512">
  <g class="glyph">
    <path d="M 39 436 Q 2 434 0 394 V 58 Q 2 16 46 14 H 97 Q 138 14 138 58 V 394 Q 136 434 97 436 Z M 201 355 V 60 Q 205 5 258 0 H 424 Q 470 2 473 53 V 355 H 441 V 60 Q 441 23 408 23 H 270 Q 235 23 235 65 V 355 Z M 88 413 Q 108 413 108 390 V 60 Q 108 37 85 37 H 58 Q 15 37 32 62 V 390 Q 50 402 53 413 Z M 459 505 Q 424 454 334 348 Q 300 445 168 512 L 145 487 Q 249 434 284 374 Q 321 311 321 191 V 101 H 355 V 196 Q 355 281 334 344 H 371 Q 441 413 510 505 Z" fill="black" />
  </g>
  <g class="defect" id="01">
    <path d="M 32 390 Q 50 402 53 413" fill="none" stroke="red" stroke-width="3" />
  </g>
  <g class="defect" id="02">
    <path d="M 58 37 Q 15 37 32 62" fill="none" stroke="red" stroke-width="3" />
  </g>
</svg>