<svg xmlns="http://www.w3.org/2000/svg" width="512" height="512" viewBox="0 0 512 512">
  <g class="glyph">
    <path d="M 38 467 Q 5 460 0 427 V 61 Q 5 26 42 19 H 106 Q 149 21 151 64 V 425 Q 149 465 106 467 Z M 274 385 V 170 Q 278 127 321 123 H 363 V 57 H 396 V 123 H 444 Q 488 127 493 177 V 328 Q 507 378 444 380 H 415 L 408 356 H 436 Q 465 359 462 328 V 179 Q 460 149 425 146 H 396 V 451 H 363 V 146 H 337 Q 307 146 307 179 V 385 Z M 92 441 Q 116 441 116 418 V 68 Q 116 45 92 45 H 57 Q 35 45 33 68 V 415 Q 35 439 59 441 Z M 260 507 Q 201 507 201 446 V 59 Q 203 2 260 0 H 505 V 24 H 271 Q 236 24 234 61 V 441 Q 236 481 274 484 H 512 V 507 Z" fill="black" />
  </g>
  <g class="defect" id="01">
    <path d="M 493 328 Q 507 378 444 380" fill="none" stroke="red" stroke-width="3" />
  </g>
</svg>