<svg xmlns="http://www.w3.org/2000/svg" width="512" height="512" viewBox="0 0 512 512">
  <g class="glyph">
    <path d="M 42 459 Q 2 457 0 417 V 67 Q 2 25 46 23 H 97 Q 136 25 138 69 V 417 Q 136 457 99 459 Z M 185 261 V 238 H 247 Q 256 210 263 180 H 298 Q 288 210 281 238 H 484 V 261 H 274 Q 270 274 261 302 Q 239 327 258 314 H 438 Q 466 314 470 327 Q 477 341 461 364 Q 422 415 385 441 Q 417 464 512 482 L 496 510 Q 422 496 355 459 Q 302 489 226 510 L 208 484 Q 279 464 327 438 Q 291 413 261 376 H 298 Q 325 404 355 422 Q 394 394 431 351 Q 436 344 436 341 Q 434 337 427 337 H 249 Q 210 436 148 510 L 120 498 Q 205 390 240 261 Z M 83 436 Q 108 434 108 408 V 74 Q 108 46 81 46 H 58 Q 32 46 32 74 V 408 Q 32 436 58 436 Z M 164 219 V 173 Q 164 125 214 125 H 238 Q 226 92 212 58 H 242 Q 256 83 270 125 H 330 Q 318 90 304 55 H 334 Q 348 85 360 125 H 404 Q 413 101 420 62 Q 422 58 422 55 H 454 Q 447 90 434 125 H 459 Q 505 127 507 175 V 221 H 470 V 178 Q 470 148 438 148 H 231 Q 203 148 201 178 V 219 Z M 182 39 180 14 Q 383 12 491 0 L 498 25 Q 439 32 281 37 Q 219 37 182 39 Z" fill="black" />
  </g>
  <g class="defect" id="01">
    <path d="M 385 441 Q 417 464 512 482" fill="none" stroke="red" stroke-width="3" />
  </g>
  <g class="defect" id="02">
    <path d="M 498 25 Q 439 32 281 37" fill="none" stroke="red" stroke-width="3" />
  </g>
  <g class="defect" id="03">
    <path d="M 261 302 Q 239 327 258 314" fill="none" stroke="red" stroke-width="3" />
  </g>
</svg>