<svg xmlns="http://www.w3.org/2000/svg" width="512" height="512" viewBox="0 0 512 512">
  <g class="glyph">
    <path d="M 23 505 0 487 Q 52 435 81 372 Q 74 363 59 347 Q 41 329 32 320 Q 18 307 18 295 Q 16 293 18 280 Q 18 273 18 271 L 50 106 H 2 V 83 H 52 L 68 0 H 99 L 83 83 H 138 Q 158 83 167 92 Q 174 106 171 129 Q 165 275 120 368 Q 147 392 171 426 L 151 451 Q 144 444 131 429 Q 113 406 104 397 Q 74 453 23 505 Z M 208 264 V 241 H 284 Q 293 214 300 185 H 334 Q 332 194 327 210 Q 320 230 316 241 H 485 V 264 H 309 Q 307 271 302 286 Q 295 307 291 316 H 440 Q 467 316 474 329 Q 478 343 462 365 Q 433 408 388 440 Q 429 462 512 480 L 496 507 Q 413 492 361 458 Q 311 487 237 507 L 221 483 Q 289 462 334 440 Q 300 413 271 377 H 307 Q 332 404 361 422 Q 395 401 435 352 Q 440 345 440 343 Q 424 338 431 338 H 280 Q 239 429 174 507 L 147 496 Q 241 377 277 264 Z M 185 230 V 178 Q 183 129 235 131 H 248 Q 237 97 223 63 H 253 Q 276 90 266 97 Q 273 120 277 131 H 338 Q 329 99 311 61 H 341 Q 354 95 365 131 H 408 Q 411 126 413 115 Q 420 95 426 61 H 458 Q 449 97 438 131 H 460 Q 505 133 507 180 V 230 H 471 V 183 Q 471 153 442 153 H 246 Q 219 153 219 183 V 230 Z M 54 300 Q 63 309 77 323 Q 90 336 95 343 Q 135 246 140 124 Q 142 106 126 106 H 81 L 50 275 Q 47 293 54 300 Z M 194 47 192 23 Q 386 20 492 9 L 498 34 Q 426 41 291 45 Q 228 45 194 47 Z" fill="black" />
  </g>
  <g class="defect" id="01">
    <path d="M 440 343 Q 424 338 431 338" fill="none" stroke="red" stroke-width="3" />
  </g>
  <g class="defect" id="02">
    <path d="M 253 63 Q 276 90 266 97" fill="none" stroke="red" stroke-width="3" />
  </g>
</svg>