<svg xmlns="http://www.w3.org/2000/svg" width="512" height="512" viewBox="0 0 512 512">
  <g class="glyph">
    <path d="M 181 320 V 96 Q 186 51 233 47 H 288 Q 288 45 311 4 H 347 Q 338 29 326 47 H 436 Q 478 51 485 96 V 320 H 454 V 103 Q 452 72 420 69 H 248 Q 219 74 215 103 V 320 Z M 159 371 V 349 H 313 Q 324 331 326 311 H 358 Q 355 331 349 349 H 508 V 371 H 373 Q 418 436 512 478 L 496 508 Q 389 463 340 371 Q 302 458 165 510 L 152 481 Q 266 434 302 371 Z M 67 508 V 0 H 103 V 508 Z M 241 203 V 183 H 320 V 98 H 351 V 183 H 427 V 203 H 351 V 295 H 320 V 203 Z M 0 271 Q 9 190 13 101 H 40 Q 49 101 36 165 Q 29 239 27 271 Z M 141 266 Q 136 230 130 145 Q 127 114 125 101 H 150 Q 150 110 152 132 Q 161 226 168 266 Z M 405 309 Q 387 279 373 221 H 400 Q 414 264 432 297 Z M 266 309 239 297 Q 257 264 271 221 H 297 Q 286 271 266 309 Z M 271 168 Q 271 168 268 163 Q 259 143 248 107 H 275 Q 284 139 297 168 Z M 373 168 Q 387 139 396 107 H 420 Q 416 132 400 168 Z" fill="black" />
  </g>
  <g class="defect" id="01">
    <path d="M 288 47 Q 288 45 311 4" fill="none" stroke="red" stroke-width="3" />
  </g>
  <g class="defect" id="02">
    <path d="M 40 101 Q 49 101 36 165" fill="none" stroke="red" stroke-width="3" />
  </g>
</svg>