<svg xmlns="http://www.w3.org/2000/svg" width="512" height="512" viewBox="0 0 512 512">
  <g class="glyph">
    <path d="M 148 512 132 490 Q 236 455 291 424 Q 260 371 221 318 H 256 Q 308 339 322 406 Q 404 355 461 280 Q 468 271 466 269 Q 461 265 450 265 H 258 Q 212 331 150 373 L 130 358 Q 205 291 252 218 H 285 Q 282 223 278 230 Q 274 238 271 243 H 477 Q 488 243 501 252 Q 512 267 499 287 Q 384 450 148 512 Z M 7 318 0 291 75 265 V 124 H 9 V 102 H 75 V 0 H 108 V 102 H 168 V 124 H 108 V 252 L 166 232 L 168 258 L 108 280 V 452 Q 108 501 60 501 H 20 L 13 477 H 44 Q 75 477 75 448 V 294 Z M 466 210 428 132 Q 422 117 422 104 Q 422 88 428 73 L 459 2 H 494 L 457 86 Q 450 102 459 121 L 501 210 Z M 223 210 185 132 Q 179 117 179 104 Q 179 88 185 73 L 216 2 H 252 L 214 86 Q 203 102 216 121 L 258 210 Z M 344 210 307 132 Q 300 117 300 104 Q 300 88 307 73 L 338 2 H 371 L 333 86 Q 327 102 335 121 L 380 210 Z" fill="black" />
  </g>
  <g class="defect" id="01">
    <path d="M 477 243 Q 488 243 501 252" fill="none" stroke="red" stroke-width="3" />
  </g>
  <g class="defect" id="02">
    <path d="M 256 318 Q 308 339 322 406" fill="none" stroke="red" stroke-width="3" />
  </g>
</svg>