<svg xmlns="http://www.w3.org/2000/svg" width="512" height="512" viewBox="0 0 512 512">
  <g class="glyph">
    <path d="M 188 177 V 154 H 499 V 177 H 307 Q 300 205 291 236 H 508 V 256 H 287 Q 278 287 265 313 H 452 Q 479 313 486 329 Q 488 346 474 360 Q 441 395 397 422 Q 452 448 512 468 L 494 497 Q 426 472 369 439 Q 307 472 227 497 L 210 474 Q 285 452 340 422 Q 305 395 269 364 H 307 Q 335 386 369 406 Q 410 380 444 349 Q 450 342 448 340 Q 448 335 439 335 H 256 Q 223 413 163 492 L 137 479 Q 218 364 252 256 H 183 V 236 H 258 Q 267 205 274 177 Z M 9 316 0 289 Q 13 285 40 276 Q 66 269 79 265 V 132 H 9 V 110 H 79 V 0 H 113 V 110 H 177 V 132 H 113 V 254 Q 146 247 172 236 L 174 263 Q 146 271 113 282 V 448 Q 113 494 64 494 H 18 L 11 472 H 51 Q 79 472 79 444 V 294 Q 75 296 64 298 Q 61 291 9 316 Z M 179 44 177 20 Q 349 18 494 4 L 501 29 Q 422 35 249 42 Q 203 44 179 44 Z M 415 141 Q 417 130 424 110 Q 430 93 437 57 H 468 Q 457 97 444 141 Z M 234 137 Q 225 102 207 62 H 238 Q 252 97 267 137 Z M 335 137 Q 331 128 324 104 Q 313 75 307 60 H 335 Q 351 95 364 137 Z" fill="black" />
  </g>
  <g class="defect" id="01">
    <path d="M 64 298 Q 61 291 9 316" fill="none" stroke="red" stroke-width="3" />
  </g>
</svg>