<svg xmlns="http://www.w3.org/2000/svg" width="512" height="512" viewBox="0 0 512 512">
  <g class="glyph">
    <path d="M 229 505 Q 181 505 181 460 V 317 Q 179 270 231 272 H 288 Q 299 249 306 229 H 342 Q 340 233 335 242 Q 331 251 324 272 H 460 Q 505 274 507 315 V 462 Q 505 503 467 505 Z M 11 351 0 326 Q 36 313 70 295 V 122 H 9 V 100 H 70 V 0 H 104 V 100 H 165 V 122 H 104 V 279 Q 118 274 140 263 Q 156 254 165 249 L 168 279 Q 159 283 143 290 Q 118 304 104 308 V 462 Q 104 512 54 512 H 14 L 5 487 H 41 Q 70 487 70 462 V 324 Q 66 326 59 328 Q 29 347 11 351 Z M 449 485 Q 471 485 471 462 V 399 H 217 V 462 Q 220 483 242 485 Z M 217 376 H 471 V 315 Q 469 295 446 292 H 245 Q 217 292 217 317 Z M 476 240 V 61 Q 476 32 446 32 H 338 V 11 H 458 Q 507 14 507 61 V 240 Z M 297 215 V 61 Q 297 32 270 32 H 165 V 11 H 279 Q 331 11 331 61 V 215 Z M 165 220 154 195 Q 168 188 195 177 Q 254 150 281 136 L 285 161 Q 242 179 165 220 Z M 353 202 344 179 Q 421 145 455 127 L 460 152 Q 449 156 426 168 Q 385 188 353 202 Z M 206 131 Q 204 127 202 116 Q 190 82 184 63 H 208 Q 211 68 213 75 Q 231 116 236 131 Z M 385 131 Q 383 127 381 116 Q 369 82 362 63 H 387 Q 391 108 415 131 Z" fill="black" />
  </g>
  <g class="defect" id="01">
    <path d="M 387 63 Q 391 108 415 131" fill="none" stroke="red" stroke-width="3" />
  </g>
</svg>