<svg xmlns="http://www.w3.org/2000/svg" width="512" height="512" viewBox="0 0 512 512">
  <g class="glyph">
    <path d="M 146 95 V 73 H 236 Q 236 71 234 64 Q 227 20 221 0 H 254 Q 256 13 263 44 Q 267 64 269 73 H 360 V 95 H 324 Q 316 238 269 338 Q 298 375 331 433 L 311 450 H 393 V 252 H 331 V 230 H 393 V 38 H 322 V 13 H 494 V 38 H 426 V 230 H 488 V 252 H 426 V 450 H 512 V 474 H 309 V 452 L 305 455 Q 289 399 249 373 Q 216 433 163 492 L 139 472 Q 205 393 232 335 Q 194 252 172 135 H 205 Q 225 236 249 298 Q 282 212 289 95 Z M 7 452 0 424 Q 7 422 22 419 Q 53 413 71 408 V 223 H 7 V 199 H 71 V 31 H 4 V 7 H 172 V 31 H 104 V 199 H 166 V 223 H 104 V 402 Q 141 395 177 384 V 413 Q 143 422 86 435 Q 33 446 7 452 Z" fill="black" />
  </g>
  <g class="defect" id="01">
    <path d="M 269 338 Q 298 375 331 433" fill="none" stroke="red" stroke-width="3" />
  </g>
  <g class="defect" id="02">
    <path d="M 305 455 Q 289 399 249 373" fill="none" stroke="red" stroke-width="3" />
  </g>
</svg>