<svg xmlns="http://www.w3.org/2000/svg" width="512" height="512" viewBox="0 0 512 512">
  <g class="glyph">
    <path d="M 188 243 V 219 H 212 V 55 Q 214 20 249 18 H 289 Q 324 22 326 53 V 219 H 361 V 55 Q 365 20 396 18 H 444 Q 460 20 481 53 V 219 H 512 V 243 H 481 V 455 Q 479 488 442 490 H 398 L 392 468 H 422 Q 449 470 449 444 V 243 H 389 V 284 Q 389 383 368 490 L 339 486 Q 361 376 361 289 V 243 H 326 V 442 Q 324 477 287 479 H 249 L 243 457 H 269 Q 295 457 295 433 V 243 H 241 V 287 Q 241 383 219 492 L 193 486 Q 212 370 212 287 V 243 Z M 83 492 V 116 H 7 V 94 H 83 V 0 H 114 V 94 H 186 V 116 H 114 V 492 Z M 389 63 V 219 H 449 V 63 Q 446 39 427 37 H 411 Q 392 39 389 63 Z M 241 63 V 219 H 295 V 63 Q 293 39 274 37 H 265 Q 243 39 241 63 Z M 28 449 0 446 Q 31 317 28 153 H 57 Q 57 326 28 449 Z M 166 449 Q 138 326 138 153 H 164 Q 162 317 193 446 Z" fill="black" />
  </g>
  <g class="defect" id="01">
    <path d="M 444 18 Q 460 20 481 53" fill="none" stroke="red" stroke-width="3" />
  </g>
</svg>