<svg xmlns="http://www.w3.org/2000/svg" width="512" height="512" viewBox="0 0 512 512">
  <g class="glyph">
    <path d="M 361 501 V 56 Q 363 13 398 11 H 463 Q 490 11 496 27 Q 508 40 496 65 Q 485 96 461 151 Q 454 171 450 180 Q 508 274 510 347 Q 512 390 494 405 Q 474 423 432 423 H 421 L 414 398 H 427 Q 485 401 476 338 Q 470 274 414 180 Q 430 147 461 67 Q 459 73 465 56 Q 474 33 450 33 H 419 Q 398 33 396 62 V 501 Z M 185 96 V 71 H 249 V 0 H 285 V 71 H 345 V 96 H 285 V 185 V 198 H 343 V 223 H 285 Q 287 287 280 327 H 347 V 352 H 276 Q 260 400 216 503 L 180 485 Q 232 410 240 352 H 185 V 327 H 245 Q 249 287 249 223 H 191 V 198 H 249 V 187 V 96 Z M 76 501 V 109 H 2 V 85 H 76 V 0 H 111 V 85 H 174 V 109 H 111 V 501 Z M 29 463 0 454 Q 20 314 20 149 H 49 Q 51 343 29 463 Z M 154 463 Q 112 343 134 149 H 163 Q 163 309 180 454 Z" fill="black" />
  </g>
  <g class="defect" id="01">
    <path d="M 276 352 Q 260 400 216 503" fill="none" stroke="red" stroke-width="3" />
  </g>
  <g class="defect" id="02">
    <path d="M 154 463 Q 112 343 134 149" fill="none" stroke="red" stroke-width="3" />
  </g>
</svg>