<svg xmlns="http://www.w3.org/2000/svg" width="512" height="512" viewBox="0 0 512 512">
  <g class="glyph">
    <path d="M 257 408 Q 213 408 213 361 V 250 Q 215 213 253 211 H 434 Q 479 213 481 250 V 361 Q 481 408 437 408 Z M 80 496 V 117 H 13 V 95 H 80 V 2 H 113 V 95 H 177 V 117 H 113 V 496 Z M 421 388 Q 446 386 448 361 V 319 H 246 V 363 Q 250 386 273 388 Z M 246 257 V 299 H 448 V 259 Q 446 233 419 231 H 275 Q 248 235 246 257 Z M 326 186 V 71 H 193 V 49 H 326 V 0 H 361 V 49 H 499 V 71 H 361 V 186 Z M 31 454 0 450 Q 40 288 24 155 H 53 Q 53 301 31 454 Z M 157 434 Q 137 324 137 155 H 166 Q 166 313 186 430 Z M 182 483 V 461 H 508 V 483 Z M 199 204 177 184 Q 235 144 262 95 H 293 Q 275 135 199 204 Z M 490 204 Q 430 155 397 95 H 428 Q 471 160 512 184 Z" fill="black" />
  </g>
  <g class="defect" id="01">
    <path d="M 293 95 Q 275 135 199 204" fill="none" stroke="red" stroke-width="3" />
  </g>
  <g class="defect" id="02">
    <path d="M 0 450 Q 40 288 24 155" fill="none" stroke="red" stroke-width="3" />
  </g>
  <g class="defect" id="03">
    <path d="M 428 95 Q 471 160 512 184" fill="none" stroke="red" stroke-width="3" />
  </g>
</svg>