<svg xmlns="http://www.w3.org/2000/svg" width="512" height="512" viewBox="0 0 512 512">
  <g class="glyph">
    <path d="M 200 61 V 38 H 328 Q 330 20 330 0 H 362 Q 362 7 359 20 Q 359 31 357 38 H 499 V 61 H 355 Q 353 92 346 119 H 483 V 141 H 339 Q 332 173 317 200 H 508 V 222 H 418 Q 454 269 512 323 L 492 346 Q 454 305 420 269 L 424 294 Q 395 296 364 301 V 348 H 478 V 371 H 364 V 505 H 330 V 371 H 211 V 348 H 330 V 303 Q 299 305 265 305 L 263 285 Q 236 317 200 350 L 180 332 Q 243 274 272 222 H 184 V 200 H 285 Q 299 173 310 141 H 218 V 119 H 314 Q 321 92 326 61 Z M 81 505 V 124 H 2 V 101 H 81 V 0 H 115 V 101 H 186 V 124 H 115 V 505 Z M 25 458 0 456 Q 25 337 27 153 H 49 Q 49 339 25 458 Z M 164 458 Q 141 335 141 153 H 164 Q 162 317 189 454 Z M 305 222 Q 290 252 267 281 Q 276 281 290 278 Q 373 274 420 267 Q 415 258 404 245 Q 381 229 386 222 Z M 478 496 Q 440 456 393 386 H 424 Q 456 433 501 476 Z M 218 496 198 481 Q 240 440 272 386 H 301 Q 269 447 218 496 Z" fill="black" />
  </g>
  <g class="defect" id="01">
    <path d="M 404 245 Q 381 229 386 222" fill="none" stroke="red" stroke-width="3" />
  </g>
</svg>