<svg xmlns="http://www.w3.org/2000/svg" width="512" height="512" viewBox="0 0 512 512">
  <g class="glyph">
    <path d="M 210 503 Q 162 501 160 456 V 334 Q 162 284 212 282 H 431 Q 480 284 483 334 V 453 Q 483 503 433 503 Z M 420 480 Q 444 478 447 456 V 332 Q 426 324 417 304 H 221 Q 196 307 194 332 V 456 Q 212 459 221 480 Z M 149 246 129 221 Q 271 147 273 47 H 135 V 25 H 444 Q 494 27 496 70 V 174 Q 494 223 438 226 H 309 L 300 203 H 426 Q 458 201 460 165 V 77 Q 458 50 426 47 H 311 Q 286 157 149 246 Z M 0 512 Q 50 390 86 293 H 122 Q 81 420 38 512 Z M 68 126 Q 56 97 32 43 Q 18 14 11 0 H 47 Q 81 61 108 126 Z M 56 262 Q 41 219 2 144 H 41 Q 65 192 97 262 Z" fill="black" />
  </g>
  <g class="defect" id="01">
    <path d="M 194 456 Q 212 459 221 480" fill="none" stroke="red" stroke-width="3" />
  </g>
  <g class="defect" id="02">
    <path d="M 447 332 Q 426 324 417 304" fill="none" stroke="red" stroke-width="3" />
  </g>
  <g class="defect" id="03">
    <path d="M 311 47 Q 286 157 149 246" fill="none" stroke="red" stroke-width="3" />
  </g>
</svg>