<svg xmlns="http://www.w3.org/2000/svg" width="512" height="512" viewBox="0 0 512 512">
  <g class="glyph">
    <path d="M 151 323 V 97 Q 139 52 203 47 H 273 Q 284 29 295 5 H 334 Q 325 29 314 47 H 435 Q 478 52 485 97 V 323 H 451 V 104 Q 449 72 417 70 H 217 Q 189 74 185 104 V 323 Z M 129 374 V 352 H 295 Q 304 334 311 311 H 343 Q 341 334 334 352 H 507 V 374 H 356 Q 408 442 510 483 L 494 512 Q 374 462 323 377 Q 277 462 131 512 L 117 485 Q 244 438 282 374 Z M 212 205 V 185 H 302 V 99 H 336 V 185 H 420 V 205 H 336 V 298 H 302 V 205 Z M 0 512 Q 45 408 88 293 H 124 Q 88 401 38 512 Z M 65 126 Q 38 59 9 0 H 47 Q 60 47 106 126 Z M 56 262 Q 32 196 5 147 H 41 Q 63 187 97 262 Z M 395 309 Q 377 284 363 223 H 390 Q 404 266 422 300 Z M 241 311 217 300 Q 230 275 246 223 H 275 Q 273 228 271 235 Q 257 286 241 311 Z M 363 169 Q 368 160 374 138 Q 383 117 386 108 H 413 Q 404 135 390 169 Z M 246 169 Q 230 133 226 108 H 253 Q 257 129 273 169 Z" fill="black" />
  </g>
  <g class="defect" id="01">
    <path d="M 151 97 Q 139 52 203 47" fill="none" stroke="red" stroke-width="3" />
  </g>
  <g class="defect" id="02">
    <path d="M 47 0 Q 60 47 106 126" fill="none" stroke="red" stroke-width="3" />
  </g>
</svg>