<svg xmlns="http://www.w3.org/2000/svg" width="512" height="512" viewBox="0 0 512 512">
  <g class="glyph">
    <path d="M 341 512 312 503 Q 331 429 346 357 V 255 Q 348 218 382 216 H 453 Q 494 218 496 262 V 455 Q 498 505 444 505 H 407 L 400 485 H 435 Q 466 485 466 448 V 400 H 373 Q 371 462 341 512 Z M 118 239 V 221 H 159 V 200 H 191 V 221 H 266 V 200 H 298 V 221 H 330 V 239 H 298 V 262 Q 298 294 264 294 H 241 V 321 H 282 Q 319 321 319 353 V 369 Q 319 400 284 400 H 241 V 432 H 321 V 453 H 241 V 512 H 209 V 453 H 114 V 432 H 209 V 400 H 168 Q 132 400 132 373 V 353 Q 132 321 166 321 H 209 V 294 H 196 Q 159 294 159 266 V 239 Z M 303 193 V 91 H 191 Q 166 93 166 118 V 164 H 134 V 112 Q 134 73 173 73 H 303 V 30 H 159 V 11 H 482 V 30 H 337 V 73 H 466 Q 505 75 507 116 V 166 H 476 V 118 Q 473 93 448 91 H 337 V 193 Z M 2 510 Q 48 396 82 296 H 118 Q 84 403 39 510 Z M 375 319 V 380 H 466 V 319 Z M 375 259 V 300 H 466 V 266 Q 464 237 437 234 H 398 Q 378 237 375 259 Z M 68 121 Q 53 40 16 0 H 52 Q 84 64 107 121 Z M 52 264 Q 27 200 0 146 H 36 Q 68 205 91 264 Z M 248 278 Q 269 278 266 259 V 239 H 191 V 262 Q 191 278 205 278 Z M 273 385 Q 291 385 291 366 V 353 Q 291 337 275 337 H 241 V 385 Z M 159 366 Q 159 385 175 385 H 209 V 337 H 177 Q 159 337 159 353 Z M 193 184 V 171 H 275 V 184 Z M 193 139 V 125 H 275 V 139 Z M 362 139 V 125 H 444 V 139 Z M 362 184 V 171 H 444 V 184 Z" fill="black" />
  </g>
  <g class="defect" id="01">
    <path d="M 68 121 Q 53 40 16 0" fill="none" stroke="red" stroke-width="3" />
  </g>
  <g class="defect" id="02">
    <path d="M 312 503 Q 331 429 346 357" fill="none" stroke="red" stroke-width="3" />
  </g>
</svg>