<svg xmlns="http://www.w3.org/2000/svg" width="512" height="512" viewBox="0 0 512 512">
  <g class="glyph">
    <path d="M 215 510 179 503 Q 215 365 213 236 V 102 Q 215 50 270 48 H 342 Q 338 25 324 5 H 360 Q 365 11 372 25 Q 381 41 383 48 H 453 Q 498 52 503 93 V 147 Q 515 172 453 188 H 245 V 247 Q 245 378 215 510 Z M 338 501 V 383 H 297 V 510 H 267 V 292 Q 270 247 313 242 H 451 Q 498 245 501 292 V 462 Q 503 512 458 510 H 442 L 437 487 H 446 Q 471 487 471 458 V 383 H 430 V 501 H 403 V 383 H 362 V 501 Z M 27 512 0 498 Q 48 401 63 328 Q 79 254 79 145 V 0 H 111 V 145 Q 111 238 97 315 H 127 Q 147 372 181 480 H 147 Q 143 469 136 442 Q 109 351 97 317 Q 77 417 27 512 Z M 245 102 V 168 H 437 Q 453 182 467 143 V 97 Q 467 68 435 68 H 281 Q 249 70 245 102 Z M 25 251 Q 14 188 7 97 H 34 Q 41 172 52 251 Z M 136 251 Q 145 184 156 97 H 181 Q 177 163 161 251 Z M 362 263 V 362 H 403 V 263 Z M 435 263 H 430 V 362 H 471 V 295 Q 469 265 435 263 Z M 297 295 V 362 H 338 V 263 H 326 Q 299 263 297 295 Z" fill="black" />
  </g>
  <g class="defect" id="01">
    <path d="M 503 147 Q 515 172 453 188" fill="none" stroke="red" stroke-width="3" />
  </g>
  <g class="defect" id="02">
    <path d="M 437 168 Q 453 182 467 143" fill="none" stroke="red" stroke-width="3" />
  </g>
</svg>