<svg xmlns="http://www.w3.org/2000/svg" width="512" height="512" viewBox="0 0 512 512">
  <g class="glyph">
    <path d="M 264 499 Q 199 499 212 452 V 351 Q 215 309 262 306 H 434 Q 485 309 487 353 V 447 Q 485 496 438 499 Z M 423 329 H 271 Q 248 331 248 351 V 452 Q 248 474 273 474 H 427 Q 452 474 452 449 V 353 Q 449 331 423 329 Z M 27 503 0 490 Q 56 364 72 268 Q 89 172 83 0 H 116 Q 134 168 103 277 Q 83 387 27 503 Z M 188 244 V 221 H 275 Q 250 161 235 118 H 271 Q 295 188 313 221 H 391 Q 416 170 434 118 H 470 Q 447 179 427 221 H 512 V 244 Z M 208 80 V 58 H 338 Q 331 29 320 2 H 355 Q 367 29 373 58 H 492 V 80 Z M 152 465 Q 130 369 105 293 H 132 Q 163 382 188 465 Z M 22 233 Q 13 179 4 83 H 31 Q 36 161 49 233 Z M 143 233 Q 161 123 165 83 H 190 Q 186 123 170 233 Z" fill="black" />
  </g>
  <g class="defect" id="01">
    <path d="M 264 499 Q 199 499 212 452" fill="none" stroke="red" stroke-width="3" />
  </g>
  <g class="defect" id="02">
    <path d="M 116 0 Q 134 168 103 277" fill="none" stroke="red" stroke-width="3" />
  </g>
</svg>