<svg xmlns="http://www.w3.org/2000/svg" width="512" height="512" viewBox="0 0 512 512">
  <g class="glyph">
    <path d="M 177 186 155 171 Q 218 83 252 0 H 287 Q 281 13 274 27 H 393 Q 422 27 424 36 Q 431 45 422 65 Q 402 106 384 132 H 420 Q 487 132 487 195 V 243 H 512 V 265 H 487 V 314 Q 485 368 420 373 H 341 V 427 Q 344 501 281 499 H 202 L 195 476 H 260 Q 310 478 308 431 V 373 H 186 V 353 H 308 V 265 H 162 V 243 H 308 V 155 H 202 Q 191 168 177 186 Z M 20 198 0 177 Q 40 139 67 101 Q 47 61 7 16 L 29 0 Q 63 36 88 72 Q 108 38 124 0 H 157 Q 137 56 106 101 Q 121 151 141 231 V 438 Q 139 494 83 499 H 25 L 16 476 H 65 Q 119 476 108 422 V 265 Q 67 330 22 377 L 0 359 Q 67 285 106 204 Q 103 166 85 130 Q 37 151 20 198 Z M 388 47 H 265 Q 263 52 258 61 Q 231 110 216 132 H 350 Q 384 76 391 58 Q 395 54 393 49 Q 393 47 388 47 Z M 424 155 H 341 V 243 H 454 V 182 Q 454 155 424 155 Z M 424 353 Q 451 350 454 323 V 265 H 341 V 353 Z" fill="black" />
  </g>
  <g class="defect" id="01">
    <path d="M 106 101 Q 121 151 141 231" fill="none" stroke="red" stroke-width="3" />
  </g>
  <g class="defect" id="02">
    <path d="M 65 476 Q 119 476 108 422" fill="none" stroke="red" stroke-width="3" />
  </g>
  <g class="defect" id="03">
    <path d="M 85 130 Q 37 151 20 198" fill="none" stroke="red" stroke-width="3" />
  </g>
</svg>