<svg xmlns="http://www.w3.org/2000/svg" width="512" height="512" viewBox="0 0 512 512">
  <g class="glyph">
    <path d="M 252 371 Q 207 368 204 323 V 243 Q 207 202 254 200 H 424 Q 460 214 481 243 V 330 Q 476 368 433 371 H 359 V 415 H 512 V 438 H 359 V 505 H 323 V 438 H 171 V 415 H 323 V 371 Z M 22 207 2 186 Q 22 153 74 115 Q 38 90 13 34 L 34 16 Q 72 52 94 85 Q 128 36 141 0 H 173 Q 150 63 112 115 Q 144 171 144 240 V 438 Q 141 496 81 499 H 43 L 36 476 H 74 Q 108 474 110 436 V 272 Q 72 332 20 386 L 0 366 Q 65 296 108 213 Q 106 177 88 144 Q 61 173 22 207 Z M 420 350 Q 445 348 447 326 V 294 H 238 V 323 Q 240 350 260 350 Z M 238 245 V 274 H 447 V 247 Q 447 220 422 220 H 260 Q 238 220 238 245 Z M 171 162 V 139 H 252 Q 243 112 236 83 H 267 Q 274 110 285 139 H 400 Q 411 110 415 83 H 449 Q 440 112 433 139 H 512 V 162 Z M 191 65 V 43 H 323 Q 321 38 319 25 Q 312 7 310 0 H 344 Q 353 22 359 43 H 496 V 65 Z" fill="black" />
  </g>
  <g class="defect" id="01">
    <path d="M 424 200 Q 460 214 481 243" fill="none" stroke="red" stroke-width="3" />
  </g>
  <g class="defect" id="02">
    <path d="M 2 186 Q 22 153 74 115" fill="none" stroke="red" stroke-width="3" />
  </g>
  <g class="defect" id="03">
    <path d="M 74 115 Q 38 90 13 34" fill="none" stroke="red" stroke-width="3" />
  </g>
</svg>