<svg xmlns="http://www.w3.org/2000/svg" width="512" height="512" viewBox="0 0 512 512">
  <g class="glyph">
    <path d="M 325 483 Q 289 481 287 439 V 87 Q 289 47 329 45 H 434 Q 476 49 481 87 V 443 Q 481 483 439 483 Z M 419 459 Q 443 456 445 432 V 96 Q 443 71 419 69 H 345 Q 321 69 321 96 V 432 Q 321 459 347 459 Z M 29 196 2 178 Q 51 93 76 0 H 109 Q 100 36 89 67 H 247 V 91 H 160 Q 160 171 154 232 H 265 V 254 H 149 Q 136 381 36 512 L 7 492 Q 93 381 114 254 H 0 V 232 H 118 Q 125 167 125 91 H 80 Q 62 142 29 196 Z M 220 496 Q 196 416 140 323 H 174 Q 230 407 258 496 Z" fill="black" />
  </g>
  <g class="defect" id="01">
    <path d="M 174 323 Q 230 407 258 496" fill="none" stroke="red" stroke-width="3" />
  </g>
</svg>