<svg xmlns="http://www.w3.org/2000/svg" width="512" height="512" viewBox="0 0 512 512">
  <g class="glyph">
    <path d="M 157 501 Q 110 501 107 452 V 405 Q 67 432 27 458 L 0 438 Q 110 373 179 306 H 25 V 284 H 512 V 306 H 221 Q 195 335 159 364 H 420 Q 472 362 470 409 V 452 Q 472 501 416 501 Z M 295 239 Q 248 239 248 195 V 80 Q 250 45 288 42 H 333 Q 342 22 349 0 H 385 Q 378 22 369 42 H 452 Q 499 45 501 80 V 192 Q 501 239 454 239 Z M 400 478 Q 446 489 434 449 V 411 Q 436 385 402 387 H 168 Q 141 385 143 416 V 447 Q 143 481 170 478 Z M 31 49 V 27 H 228 V 49 H 148 V 118 H 219 V 139 H 148 V 208 Q 165 206 199 201 Q 219 199 228 199 V 226 Q 217 209 150 235 Q 81 254 29 246 L 25 219 Q 29 219 40 217 Q 89 215 116 210 V 139 H 40 V 118 H 116 V 49 Z M 440 219 Q 467 219 467 190 V 150 H 284 V 188 Q 282 221 311 219 Z M 284 130 H 467 V 85 Q 467 63 443 63 H 309 Q 284 63 284 85 Z" fill="black" />
  </g>
  <g class="defect" id="01">
    <path d="M 228 226 Q 217 209 150 235" fill="none" stroke="red" stroke-width="3" />
  </g>
  <g class="defect" id="02">
    <path d="M 400 478 Q 446 489 434 449" fill="none" stroke="red" stroke-width="3" />
  </g>
  <g class="defect" id="03">
    <path d="M 150 235 Q 81 254 29 246" fill="none" stroke="red" stroke-width="3" />
  </g>
</svg>