<svg xmlns="http://www.w3.org/2000/svg" width="512" height="512" viewBox="0 0 512 512">
  <g class="glyph">
    <path d="M 146 501 Q 97 501 97 449 V 409 Q 97 402 97 397 Q 63 424 22 445 L 0 424 Q 111 371 180 294 H 9 V 272 H 512 V 294 H 225 Q 218 299 207 310 Q 193 326 153 357 H 422 Q 472 357 472 409 V 449 Q 472 501 422 501 Z M 406 478 Q 436 478 436 447 V 411 Q 436 377 406 380 H 162 Q 132 377 132 411 V 445 Q 132 481 162 478 Z M 13 227 9 200 Q 16 198 31 198 Q 45 195 52 195 V 45 H 85 V 191 Q 97 189 124 184 Q 146 182 157 180 V 0 H 191 V 63 H 267 V 85 H 191 V 175 Q 204 173 231 168 Q 258 166 272 164 V 191 Q 207 200 90 216 Q 38 222 13 227 Z M 348 213 Q 320 211 303 168 V 0 H 339 V 108 Q 418 79 463 25 H 503 Q 451 101 339 139 V 164 Q 341 193 368 193 H 512 L 505 213 Z" fill="black" />
  </g>
  <g class="defect" id="01">
    <path d="M 348 213 Q 320 211 303 168" fill="none" stroke="red" stroke-width="3" />
  </g>
  <g class="defect" id="02">
    <path d="M 0 424 Q 111 371 180 294" fill="none" stroke="red" stroke-width="3" />
  </g>
</svg>