<svg xmlns="http://www.w3.org/2000/svg" width="512" height="512" viewBox="0 0 512 512">
  <g class="glyph">
    <path d="M 4 33 V 11 H 203 V 33 H 111 Q 102 98 85 156 H 142 Q 191 151 189 207 V 421 Q 189 474 147 474 H 85 Q 53 465 38 423 V 274 Q 36 280 31 287 L 0 276 Q 62 149 76 33 Z M 229 492 203 481 Q 226 478 227 432 Q 256 370 267 349 Q 287 323 314 347 Q 314 349 318 354 Q 370 303 443 198 Q 452 187 450 183 Q 447 176 434 176 H 234 V 154 H 345 Q 343 134 332 96 Q 327 82 325 76 H 361 Q 365 89 372 114 Q 378 140 381 154 H 450 Q 476 154 483 169 Q 494 185 474 214 Q 416 292 336 378 Q 356 410 374 430 Q 396 463 441 461 H 512 L 503 488 H 434 Q 378 490 354 452 Q 345 439 327 412 Q 309 385 301 374 Q 292 363 285 374 Q 274 392 252 445 Q 236 476 229 492 Z M 145 452 Q 156 450 156 441 V 189 Q 154 180 147 178 H 80 Q 80 178 76 180 L 71 196 V 441 Q 73 450 82 452 Z M 227 49 223 22 Q 377 16 492 0 L 499 29 Q 343 45 227 49 Z" fill="black" />
  </g>
  <g class="defect" id="01">
    <path d="M 223 22 Q 377 16 492 0" fill="none" stroke="red" stroke-width="3" />
  </g>
  <g class="defect" id="02">
    <path d="M 85 474 Q 53 465 38 423" fill="none" stroke="red" stroke-width="3" />
  </g>
  <g class="defect" id="03">
    <path d="M 203 481 Q 226 478 227 432" fill="none" stroke="red" stroke-width="3" />
  </g>
</svg>