<svg xmlns="http://www.w3.org/2000/svg" width="512" height="512" viewBox="0 0 512 512">
  <g class="glyph">
    <path d="M 239 259 Q 189 259 187 212 V 106 Q 189 59 241 56 H 268 Q 235 14 244 5 H 280 Q 291 29 307 56 H 397 Q 413 29 426 2 H 462 Q 456 20 440 50 Q 438 54 435 56 H 462 Q 510 59 512 108 V 210 Q 510 257 458 259 Z M 257 503 Q 205 503 205 453 V 356 Q 205 307 257 307 H 449 Q 496 309 498 361 V 453 Q 498 503 444 503 Z M 32 210 Q 11 210 7 201 Q 0 194 9 176 L 97 0 H 135 L 36 187 H 101 L 144 106 H 180 L 59 341 H 167 L 162 363 H 38 Q 18 361 23 336 L 90 210 Z M 223 212 Q 223 239 250 239 H 336 V 79 H 250 Q 223 79 223 106 Z M 451 79 H 368 V 239 H 447 Q 478 237 478 210 V 106 Q 478 79 451 79 Z M 266 480 H 433 Q 465 480 465 453 V 413 H 239 V 456 Q 239 480 266 480 Z M 239 356 V 392 H 465 V 356 Q 462 329 438 327 H 266 Q 239 327 239 356 Z M 9 487 2 458 Q 88 447 180 429 V 458 Q 156 462 104 471 Q 45 480 9 487 Z M 280 198 Q 277 192 273 178 Q 262 140 253 117 H 282 Q 293 160 311 198 Z M 392 198 Q 406 167 420 120 H 449 Q 442 138 431 174 Q 424 192 422 198 Z" fill="black" />
  </g>
  <g class="defect" id="01">
    <path d="M 268 56 Q 235 14 244 5" fill="none" stroke="red" stroke-width="3" />
  </g>
</svg>