<svg xmlns="http://www.w3.org/2000/svg" width="512" height="512" viewBox="0 0 512 512">
  <g class="glyph">
    <path d="M 61 512 V 264 Q 64 225 107 221 H 403 Q 451 223 453 271 V 457 Q 453 505 398 505 H 323 L 316 482 H 387 Q 416 482 416 455 V 407 H 100 V 512 Z M 100 269 V 303 H 416 V 271 Q 416 241 387 241 H 125 Q 100 241 100 269 Z M 416 325 H 100 V 387 H 416 Z M 335 187 Q 307 184 291 143 V 0 H 325 V 68 Q 398 55 487 25 L 496 52 Q 391 80 325 96 V 139 Q 325 164 355 164 H 503 L 496 187 Z M 9 184 0 159 Q 93 143 171 123 V 68 H 11 V 46 H 171 V 0 H 207 V 193 H 171 V 148 Q 141 155 71 171 Q 27 180 9 184 Z" fill="black" />
  </g>
  <g class="defect" id="01">
    <path d="M 335 187 Q 307 184 291 143" fill="none" stroke="red" stroke-width="3" />
  </g>
  <g class="defect" id="02">
    <path d="M 496 52 Q 391 80 325 96" fill="none" stroke="red" stroke-width="3" />
  </g>
</svg>