<svg xmlns="http://www.w3.org/2000/svg" width="512" height="512" viewBox="0 0 512 512">
  <g class="glyph">
    <path d="M 31 508 0 499 Q 27 396 25 302 V 51 Q 27 16 63 13 H 132 Q 170 16 172 49 V 463 Q 182 496 130 499 H 85 L 78 478 H 110 Q 139 478 139 452 V 309 H 56 Q 56 405 31 508 Z M 197 235 V 212 H 277 L 311 130 H 347 L 313 212 H 512 V 235 H 456 Q 434 342 378 402 Q 440 436 501 476 L 478 501 Q 418 461 355 425 Q 300 472 203 510 L 181 483 Q 275 449 324 409 Q 293 389 259 373 Q 237 364 230 349 Q 228 335 239 311 L 268 235 Z M 277 347 Q 286 353 309 362 Q 335 378 349 387 Q 412 350 420 235 H 304 L 271 324 Q 262 340 277 347 Z M 203 172 V 105 Q 208 63 250 58 H 338 Q 338 56 335 51 Q 329 13 322 0 H 358 Q 358 2 360 9 Q 369 40 373 58 H 458 Q 482 63 501 103 V 172 H 467 V 112 Q 465 85 440 80 H 264 Q 241 85 237 112 V 172 Z M 56 60 V 154 H 139 V 56 Q 139 34 116 34 H 80 Q 56 34 56 60 Z M 56 174 V 288 H 139 V 174 Z" fill="black" />
  </g>
  <g class="defect" id="01">
    <path d="M 349 387 Q 412 350 420 235" fill="none" stroke="red" stroke-width="3" />
  </g>
  <g class="defect" id="02">
    <path d="M 458 58 Q 482 63 501 103" fill="none" stroke="red" stroke-width="3" />
  </g>
  <g class="defect" id="03">
    <path d="M 172 463 Q 182 496 130 499" fill="none" stroke="red" stroke-width="3" />
  </g>
</svg>