<svg xmlns="http://www.w3.org/2000/svg" width="512" height="512" viewBox="0 0 512 512">
  <g class="glyph">
    <path d="M 0 258 V 240 H 31 V 89 Q 33 51 71 49 H 85 Q 91 29 98 0 H 131 Q 127 9 120 38 Q 118 45 118 49 H 149 Q 187 51 189 85 V 459 Q 187 492 149 494 H 105 L 98 474 H 129 Q 158 474 158 447 V 258 H 62 V 305 Q 62 398 38 501 L 9 494 Q 33 401 31 296 V 258 Z M 232 501 203 492 Q 227 387 240 265 V 76 Q 243 40 285 33 Q 383 22 485 4 L 490 31 Q 387 51 303 56 Q 276 58 274 85 V 151 H 461 Q 479 151 490 165 Q 494 178 488 198 Q 454 305 405 374 Q 441 427 512 476 L 490 501 Q 416 445 385 401 Q 343 454 276 501 L 254 481 Q 323 427 365 372 Q 325 309 292 207 H 323 Q 349 285 385 345 Q 425 287 454 194 Q 459 174 439 174 H 274 V 267 Q 274 390 232 501 Z M 62 96 V 240 H 158 V 96 Q 158 71 136 69 H 87 Q 62 69 62 96 Z M 109 381 Q 100 345 82 298 H 109 Q 114 312 125 345 Q 134 367 138 381 Z M 107 194 Q 105 189 102 178 Q 106 134 80 118 H 107 Q 114 131 125 163 Q 131 183 136 194 Z" fill="black" />
  </g>
  <g class="defect" id="01">
    <path d="M 203 492 Q 227 387 240 265" fill="none" stroke="red" stroke-width="3" />
  </g>
  <g class="defect" id="02">
    <path d="M 102 178 Q 106 134 80 118" fill="none" stroke="red" stroke-width="3" />
  </g>
</svg>