<svg xmlns="http://www.w3.org/2000/svg" width="512" height="512" viewBox="0 0 512 512">
  <g class="glyph">
    <path d="M 82 415 Q 45 412 43 376 V 333 Q 48 299 84 295 H 238 V 258 H 274 V 295 H 428 Q 478 297 469 333 V 376 Q 469 415 428 415 H 274 V 471 L 451 467 Q 444 458 433 437 Q 428 428 426 424 H 460 Q 471 444 492 483 Q 503 503 507 512 H 471 Q 464 503 462 492 L 2 501 L 0 476 L 238 471 V 415 Z M 396 265 V 140 H 290 Q 288 193 247 256 L 215 245 Q 256 174 256 111 V 75 Q 236 27 306 23 Q 408 16 494 7 L 501 32 Q 408 43 319 48 Q 292 52 292 77 V 116 V 118 H 512 V 140 H 433 V 265 Z M 7 181 2 159 113 147 V 75 H 7 V 54 H 113 V 0 H 147 V 54 H 236 V 75 H 147 V 145 L 233 136 V 159 L 147 168 V 224 Q 145 263 102 265 H 43 L 34 245 H 88 Q 113 245 113 220 V 172 Z M 406 394 Q 435 394 435 369 V 342 Q 433 317 406 315 H 274 V 394 Z M 77 369 Q 77 394 104 394 H 238 V 315 H 104 Q 79 317 77 342 Z" fill="black" />
  </g>
  <g class="defect" id="01">
    <path d="M 428 295 Q 478 297 469 333" fill="none" stroke="red" stroke-width="3" />
  </g>
  <g class="defect" id="02">
    <path d="M 256 75 Q 236 27 306 23" fill="none" stroke="red" stroke-width="3" />
  </g>
</svg>