<svg xmlns="http://www.w3.org/2000/svg" width="512" height="512" viewBox="0 0 512 512">
  <g class="glyph">
    <path d="M 510 85 V 110 H 402 Q 407 190 420 315 Q 449 244 470 170 H 501 Q 474 279 427 373 Q 453 475 508 481 L 492 512 Q 416 483 402 420 Q 376 470 344 512 L 317 496 Q 362 438 394 373 Q 387 322 376 208 Q 369 141 367 110 H 219 V 85 H 367 Q 362 58 358 7 Q 358 2 358 0 H 391 Q 391 13 396 38 Q 398 69 400 85 H 458 Q 452 51 443 11 H 470 Q 472 20 476 36 Q 483 69 485 85 Z M 20 355 V 69 Q 22 22 67 20 H 150 Q 199 22 201 69 V 355 H 170 V 72 Q 168 45 145 42 H 76 Q 54 45 51 74 V 355 Z M 215 286 V 262 H 271 Q 271 239 271 212 V 157 H 304 V 219 Q 304 239 304 262 H 369 V 286 H 302 Q 293 407 248 505 L 217 496 Q 259 396 268 286 Z M 27 510 0 492 Q 101 382 96 239 V 98 H 125 V 244 Q 125 396 27 510 Z M 168 505 Q 165 499 161 487 Q 134 400 118 362 H 152 Q 181 432 206 505 Z" fill="black" />
  </g>
  <g class="defect" id="01">
    <path d="M 427 373 Q 453 475 508 481" fill="none" stroke="red" stroke-width="3" />
  </g>
</svg>