<svg xmlns="http://www.w3.org/2000/svg" width="512" height="512" viewBox="0 0 512 512">
  <g class="glyph">
    <path d="M 214 113 V 90 H 285 Q 289 46 291 0 H 324 Q 322 46 318 90 H 426 Q 413 46 399 13 H 430 Q 448 46 461 90 H 505 V 113 H 316 Q 309 163 302 203 H 457 Q 477 203 488 218 Q 497 236 486 256 Q 448 331 397 382 Q 446 430 512 472 L 494 499 Q 413 446 375 404 Q 318 457 238 501 L 218 479 Q 298 433 353 380 Q 316 338 282 285 Q 258 382 190 481 L 163 463 Q 170 457 172 450 Q 130 461 35 481 Q 15 486 7 488 L 0 459 Q 18 457 31 452 V 247 H 62 V 446 Q 71 444 86 441 Q 119 420 108 437 V 196 H 60 Q 29 192 24 163 V 51 Q 29 20 57 15 H 157 Q 192 20 194 53 V 157 Q 192 192 161 196 H 139 V 271 H 203 V 294 H 139 V 430 Q 166 424 192 417 Q 265 289 282 113 Z M 141 174 Q 159 172 161 148 V 60 Q 144 18 137 38 H 79 Q 60 38 57 60 V 150 Q 57 174 82 174 Z M 298 227 Q 298 232 296 241 Q 294 252 291 256 H 300 Q 333 311 375 358 Q 426 305 452 249 Q 480 227 441 227 Z" fill="black" />
  </g>
  <g class="defect" id="01">
    <path d="M 161 60 Q 144 18 137 38" fill="none" stroke="red" stroke-width="3" />
  </g>
  <g class="defect" id="02">
    <path d="M 86 441 Q 119 420 108 437" fill="none" stroke="red" stroke-width="3" />
  </g>
  <g class="defect" id="03">
    <path d="M 452 249 Q 480 227 441 227" fill="none" stroke="red" stroke-width="3" />
  </g>
</svg>