<svg xmlns="http://www.w3.org/2000/svg" width="512" height="512" viewBox="0 0 512 512">
  <g class="glyph">
    <path d="M 60 191 Q 29 186 24 157 V 33 Q 29 4 55 0 H 151 Q 182 4 186 35 V 153 Q 184 186 155 191 H 140 V 273 H 191 V 295 H 140 V 426 Q 151 423 168 419 Q 188 414 197 412 V 441 Q 146 452 24 479 Q 33 479 7 483 L 0 457 Q 4 457 16 454 Q 34 452 29 450 V 222 H 60 V 443 Q 84 439 106 432 V 191 Z M 264 117 Q 224 115 222 75 V 44 Q 222 0 266 0 H 437 Q 477 2 479 42 V 75 Q 477 115 446 117 Z M 395 270 Q 368 268 366 237 V 180 Q 368 153 395 151 H 465 Q 513 164 501 186 V 237 Q 499 266 468 270 Z M 233 270 Q 206 268 204 237 V 180 Q 206 153 233 151 H 301 Q 343 155 335 186 V 237 Q 332 268 304 270 Z M 335 490 V 339 H 197 V 317 H 335 V 273 H 370 V 317 H 512 V 339 H 370 V 490 Z M 423 98 Q 441 95 443 75 V 42 Q 441 24 423 22 H 277 Q 259 24 257 42 V 75 Q 259 95 277 98 Z M 133 168 Q 153 166 153 144 V 44 Q 153 22 131 22 H 80 Q 60 22 58 44 V 144 Q 58 168 82 168 Z M 450 250 Q 472 248 472 228 V 193 Q 472 171 450 171 H 414 Q 395 171 395 191 V 231 Q 397 248 417 250 Z M 284 250 Q 306 248 306 228 V 193 Q 304 173 286 171 H 253 Q 233 171 233 191 V 231 Q 233 250 253 250 Z M 481 479 Q 432 428 397 370 H 430 Q 465 421 508 461 Z M 215 479 191 463 Q 231 426 268 370 H 301 Q 264 432 215 479 Z" fill="black" />
  </g>
  <g class="defect" id="01">
    <path d="M 465 151 Q 513 164 501 186" fill="none" stroke="red" stroke-width="3" />
  </g>
  <g class="defect" id="02">
    <path d="M 301 151 Q 343 155 335 186" fill="none" stroke="red" stroke-width="3" />
  </g>
  <g class="defect" id="03">
    <path d="M 16 454 Q 34 452 29 450" fill="none" stroke="red" stroke-width="3" />
  </g>
</svg>