<svg xmlns="http://www.w3.org/2000/svg" width="512" height="512" viewBox="0 0 512 512">
  <g class="glyph">
    <path d="M 117 343 V 329 Q 77 352 14 377 L 0 356 Q 91 343 129 291 Q 135 286 147 280 Q 158 273 162 271 Q 180 264 196 266 H 314 Q 332 264 345 271 Q 352 273 370 284 Q 359 277 381 291 Q 426 325 512 356 L 496 377 Q 438 356 397 332 V 343 H 273 V 388 H 471 V 406 H 273 V 478 H 350 Q 368 451 377 426 H 413 Q 408 435 401 451 Q 392 469 388 478 H 510 V 498 H 0 V 478 H 122 Q 120 474 115 465 Q 121 435 97 426 H 133 Q 142 451 158 478 H 237 V 406 H 41 V 388 H 237 V 343 Z M 246 56 V 36 H 356 Q 354 29 350 14 Q 345 5 345 0 H 379 Q 383 20 390 36 H 496 V 56 H 451 Q 449 65 444 86 Q 438 108 435 117 H 510 V 138 H 386 V 187 H 498 V 205 H 386 V 257 H 352 V 205 H 244 V 187 H 352 V 138 H 232 V 117 H 304 Q 300 104 293 74 Q 291 61 289 56 Z M 29 264 0 255 Q 29 165 29 81 V 63 Q 29 9 83 11 H 176 Q 221 14 223 56 V 72 Q 223 111 176 111 H 63 Q 56 189 29 264 Z M 108 248 Q 74 246 72 212 V 178 Q 74 147 108 144 H 187 Q 226 147 228 183 V 210 Q 226 246 187 248 Z M 160 300 Q 151 307 133 318 Q 129 323 124 325 H 386 Q 381 323 377 318 Q 365 311 350 300 Q 329 284 309 284 H 201 Q 180 284 160 300 Z M 63 79 V 90 H 162 Q 192 90 192 68 V 56 Q 192 29 160 29 H 97 Q 63 29 63 61 Z M 169 230 Q 196 230 196 205 V 187 Q 196 162 171 162 H 129 Q 104 162 104 185 V 205 Q 104 230 131 230 Z M 318 56 Q 320 79 334 117 H 406 Q 408 104 415 79 Q 420 63 422 56 Z" fill="black" />
  </g>
  <g class="defect" id="01">
    <path d="M 0 356 Q 91 343 129 291" fill="none" stroke="red" stroke-width="3" />
  </g>
  <g class="defect" id="02">
    <path d="M 115 465 Q 121 435 97 426" fill="none" stroke="red" stroke-width="3" />
  </g>
</svg>