<svg xmlns="http://www.w3.org/2000/svg" width="512" height="512" viewBox="0 0 512 512">
  <g class="glyph">
    <path d="M 343 382 Q 308 385 310 347 V 154 Q 310 121 341 121 H 382 Q 418 119 418 160 V 343 Q 420 385 376 382 Z M 169 499 V 55 Q 171 20 198 18 H 253 Q 275 18 279 29 Q 290 35 286 55 Q 270 119 251 182 Q 286 255 286 330 Q 288 356 279 374 Q 268 391 246 393 H 211 L 207 371 H 231 Q 261 374 259 327 Q 255 261 224 185 Q 231 163 246 101 Q 255 68 257 57 Q 278 40 244 40 H 213 Q 213 54 198 62 V 499 Z M 22 204 0 193 Q 48 94 68 0 H 99 Q 92 35 81 68 H 158 V 92 H 73 Q 59 134 42 171 H 147 V 193 H 101 V 292 H 154 V 314 H 101 V 442 Q 101 468 130 468 H 152 L 145 492 H 110 Q 70 490 70 448 V 314 H 9 V 292 H 70 V 193 H 31 Q 26 200 22 204 Z M 374 494 367 470 H 413 Q 453 472 450 428 V 46 H 294 V 22 H 512 V 46 H 479 V 435 Q 479 494 424 494 Z M 371 360 Q 391 360 391 338 V 163 Q 391 143 369 143 H 352 Q 336 143 336 160 V 341 Q 336 363 352 360 Z" fill="black" />
  </g>
  <g class="defect" id="01">
    <path d="M 257 57 Q 278 40 244 40" fill="none" stroke="red" stroke-width="3" />
  </g>
  <g class="defect" id="02">
    <path d="M 213 40 Q 213 54 198 62" fill="none" stroke="red" stroke-width="3" />
  </g>
</svg>