<svg xmlns="http://www.w3.org/2000/svg" width="512" height="512" viewBox="0 0 512 512">
  <g class="glyph">
    <path d="M 177 510 143 501 Q 195 372 193 261 V 118 Q 197 75 236 72 H 326 V 0 H 360 V 72 H 442 Q 480 77 485 111 V 172 H 451 V 120 Q 449 97 426 95 H 360 V 220 H 437 Q 462 220 469 236 Q 478 249 467 272 Q 430 342 376 399 Q 424 442 492 487 L 469 512 Q 401 469 351 421 Q 299 469 227 512 L 204 492 Q 276 446 328 396 Q 293 357 238 279 H 272 Q 295 317 351 376 Q 423 322 435 263 Q 440 242 424 240 H 227 V 263 Q 229 385 177 510 Z M 0 510 V 45 Q 2 11 34 9 H 113 Q 131 9 145 18 Q 156 32 150 45 Q 131 113 106 179 Q 154 267 152 331 Q 152 362 143 376 Q 131 394 104 394 H 59 L 52 372 H 86 Q 120 374 120 328 Q 113 258 75 181 Q 100 109 116 48 Q 120 32 102 29 H 54 Q 34 29 34 54 V 510 Z M 227 125 V 220 H 326 V 95 H 254 Q 229 97 227 125 Z" fill="black" />
  </g>
  <g class="defect" id="01">
    <path d="M 328 396 Q 293 357 238 279" fill="none" stroke="red" stroke-width="3" />
  </g>
  <g class="defect" id="02">
    <path d="M 351 376 Q 423 322 435 263" fill="none" stroke="red" stroke-width="3" />
  </g>
</svg>