<svg xmlns="http://www.w3.org/2000/svg" width="512" height="512" viewBox="0 0 512 512">
  <g class="glyph">
    <path d="M 198 102 V 80 H 272 Q 258 40 245 0 H 280 Q 283 9 289 29 Q 303 65 309 80 H 383 Q 385 71 392 53 Q 405 18 410 0 H 447 Q 417 13 419 80 H 503 V 102 H 425 V 260 H 512 V 283 H 425 V 501 H 392 V 283 H 296 Q 292 407 203 510 L 178 490 Q 256 394 260 283 H 176 V 260 H 260 V 102 Z M 296 102 V 260 H 392 V 102 Z M 31 218 0 207 Q 47 98 67 2 H 102 Q 93 42 80 82 H 125 Q 167 85 169 125 V 220 H 136 V 129 Q 136 105 109 105 H 73 Q 56 165 31 218 Z M 107 483 Q 84 481 69 441 V 194 H 102 V 436 Q 105 459 129 461 H 174 L 167 483 Z" fill="black" />
  </g>
  <g class="defect" id="01">
    <path d="M 447 0 Q 417 13 419 80" fill="none" stroke="red" stroke-width="3" />
  </g>
  <g class="defect" id="02">
    <path d="M 107 483 Q 84 481 69 441" fill="none" stroke="red" stroke-width="3" />
  </g>
</svg>