<svg xmlns="http://www.w3.org/2000/svg" width="512" height="512" viewBox="0 0 512 512">
  <g class="glyph">
    <path d="M 81 405 59 392 Q 98 322 123 260 Q 94 184 74 90 H 101 Q 116 158 136 223 Q 160 158 173 90 H 199 Q 184 160 151 260 Q 175 322 210 389 Q 206 249 206 173 V 59 Q 206 33 186 35 H 79 Q 59 35 59 57 V 271 Q 59 398 26 492 L 0 484 Q 18 422 22 368 Q 43 297 28 228 V 57 Q 28 11 77 11 H 193 Q 236 11 236 59 V 206 Q 236 293 241 407 Q 257 442 289 455 H 501 L 492 477 H 282 Q 217 479 212 414 Q 212 405 210 392 L 190 405 Q 188 398 182 387 Q 149 328 136 293 Q 123 326 90 387 Q 83 398 81 405 Z M 492 431 Q 457 392 446 324 Q 438 392 394 431 L 379 418 L 363 429 Q 330 394 319 326 Q 309 387 263 429 L 245 414 Q 306 354 302 243 V 195 H 326 V 238 Q 326 265 324 287 H 335 Q 344 379 381 411 Q 431 365 427 243 V 195 H 451 V 238 Q 451 263 451 282 H 464 Q 473 374 512 416 Z M 490 195 Q 418 164 376 94 Q 361 158 263 195 L 247 173 Q 319 142 339 109 Q 361 81 361 0 H 392 Q 387 50 381 83 H 398 Q 440 147 505 171 Z M 287 101 Q 274 63 263 20 H 289 Q 298 50 313 92 Q 311 90 315 101 Z M 438 103 Q 438 101 440 94 Q 455 53 464 22 H 492 Q 481 63 466 103 Z M 263 311 Q 254 254 254 223 H 276 Q 276 263 284 311 Z M 470 309 Q 479 260 481 221 H 503 Q 503 228 501 245 Q 497 289 494 309 Z M 341 311 Q 341 306 344 298 Q 350 263 350 223 H 370 Q 370 238 365 282 Q 363 302 363 311 Z M 389 309 Q 383 269 383 223 H 403 Q 403 225 403 230 Q 405 263 411 309 Z" fill="black" />
  </g>
  <g class="defect" id="01">
    <path d="M 241 407 Q 257 442 289 455" fill="none" stroke="red" stroke-width="3" />
  </g>
  <g class="defect" id="02">
    <path d="M 22 368 Q 43 297 28 228" fill="none" stroke="red" stroke-width="3" />
  </g>
</svg>