<svg xmlns="http://www.w3.org/2000/svg" width="512" height="512" viewBox="0 0 512 512">
  <g class="glyph">
    <path d="M 0 272 V 199 Q 0 179 20 170 V 43 Q 23 14 52 11 H 145 Q 177 14 179 43 V 170 Q 202 174 204 199 V 272 H 177 Q 179 281 179 295 V 460 Q 177 501 138 503 H 104 L 100 483 H 118 Q 147 483 147 453 V 417 H 59 V 505 H 27 V 295 Q 29 249 72 247 H 127 Q 165 247 174 270 V 211 Q 174 188 150 188 H 54 Q 29 188 29 211 V 272 Z M 202 372 V 351 H 238 V 195 Q 236 145 290 143 Q 334 138 455 118 L 460 145 Q 360 163 299 168 Q 272 168 270 197 V 231 H 489 V 254 H 408 V 351 H 507 V 372 Z M 471 154 V 102 Q 469 77 440 72 H 272 Q 245 77 240 104 V 154 H 211 V 97 Q 215 52 258 50 H 344 Q 342 41 338 25 Q 333 7 331 0 H 362 Q 365 7 369 20 Q 376 39 378 50 H 460 Q 498 57 503 95 V 154 Z M 270 254 V 351 H 376 V 254 Z M 50 57 V 84 H 86 Q 134 88 118 113 V 168 H 152 V 57 Q 150 34 127 32 H 75 Q 50 32 50 57 Z M 59 344 V 399 H 147 V 344 Z M 59 295 V 324 H 147 V 295 Q 147 267 120 267 H 82 Q 61 267 59 295 Z M 220 512 197 492 Q 254 444 288 396 H 324 Q 267 469 220 512 Z M 483 507 Q 430 451 385 396 H 419 Q 464 444 510 487 Z M 68 102 H 50 V 168 H 91 V 127 Q 91 102 68 102 Z" fill="black" />
  </g>
  <g class="defect" id="01">
    <path d="M 290 143 Q 334 138 455 118" fill="none" stroke="red" stroke-width="3" />
  </g>
  <g class="defect" id="02">
    <path d="M 86 84 Q 134 88 118 113" fill="none" stroke="red" stroke-width="3" />
  </g>
</svg>