<svg xmlns="http://www.w3.org/2000/svg" width="512" height="512" viewBox="0 0 512 512">
  <g class="glyph">
    <path d="M 79 372 Q 20 372 20 319 V 174 Q 23 127 75 125 H 120 L 138 82 Q 145 66 140 61 Q 152 68 118 54 H 77 Q 54 104 23 152 L 0 140 Q 45 68 70 0 H 100 Q 97 5 93 18 Q 88 29 86 36 H 136 Q 161 36 168 48 Q 179 63 168 86 L 147 125 Q 197 129 199 177 V 324 Q 197 369 145 372 Z M 233 510 202 503 Q 236 372 233 236 V 100 Q 236 45 290 43 H 356 Q 353 36 347 20 Q 342 7 338 0 H 372 Q 376 7 383 25 Q 390 39 392 43 H 455 Q 496 45 501 91 V 145 Q 501 186 458 186 H 267 V 247 Q 267 362 233 510 Z M 349 501 V 381 H 313 V 510 H 285 V 288 Q 288 242 328 240 H 455 Q 503 242 505 288 V 467 Q 507 512 464 510 H 446 L 442 487 H 455 Q 476 487 473 464 V 381 H 437 V 501 H 412 V 381 H 376 V 501 Z M 267 100 V 163 H 442 Q 471 163 471 138 V 93 Q 452 49 440 66 H 299 Q 270 68 267 100 Z M 7 469 5 444 Q 106 433 208 419 V 446 Q 110 478 7 469 Z M 140 353 Q 172 353 172 317 V 258 H 125 V 353 Z M 140 145 H 125 V 238 H 172 V 179 Q 172 145 140 145 Z M 50 317 Q 50 353 82 353 H 97 V 258 H 50 Z M 50 179 V 238 H 97 V 145 H 82 Q 48 143 50 179 Z M 376 261 V 360 H 412 V 261 Z M 442 261 H 437 V 360 H 473 V 292 Q 471 263 442 261 Z M 313 292 V 360 H 349 V 261 H 342 Q 315 261 313 292 Z" fill="black" />
  </g>
  <g class="defect" id="01">
    <path d="M 208 446 Q 110 478 7 469" fill="none" stroke="red" stroke-width="3" />
  </g>
  <g class="defect" id="02">
    <path d="M 471 93 Q 452 49 440 66" fill="none" stroke="red" stroke-width="3" />
  </g>
  <g class="defect" id="03">
    <path d="M 140 61 Q 152 68 118 54" fill="none" stroke="red" stroke-width="3" />
  </g>
</svg>