<svg xmlns="http://www.w3.org/2000/svg" width="512" height="512" viewBox="0 0 512 512">
  <g class="glyph">
    <path d="M 72 411 Q 36 408 34 370 V 246 Q 38 210 72 205 H 133 V 142 H 165 V 205 H 219 Q 259 210 264 253 V 361 Q 264 408 221 411 H 165 V 444 Q 165 478 196 478 H 280 L 273 501 H 180 Q 133 498 133 449 V 411 Z M 374 507 368 485 H 444 Q 476 485 476 449 V 318 Q 476 286 444 286 H 345 Q 310 286 300 246 V 83 Q 300 45 341 45 H 361 Q 368 20 374 0 H 406 Q 401 20 395 45 H 456 Q 494 47 496 83 V 189 Q 496 235 449 235 H 406 L 399 214 H 435 Q 462 214 462 185 V 90 Q 462 65 440 65 H 356 Q 334 65 334 90 V 241 Q 334 266 356 266 H 460 Q 510 268 512 314 V 456 Q 512 507 458 507 Z M 275 221 Q 196 165 162 79 H 138 Q 111 156 16 221 L 0 201 Q 81 138 104 79 H 18 V 59 H 113 Q 120 32 124 2 H 156 Q 151 32 144 59 H 275 V 79 H 194 Q 223 149 295 196 Z M 63 255 V 298 H 133 V 226 H 92 Q 65 226 63 255 Z M 203 226 H 165 V 298 H 232 V 262 Q 232 226 203 226 Z M 63 361 Q 63 388 90 388 H 133 V 320 H 63 Z M 203 388 Q 232 388 232 356 V 320 H 165 V 388 Z M 286 390 V 368 H 451 V 390 Z M 392 178 Q 390 162 381 129 Q 374 108 372 99 H 399 Q 389 113 411 138 Q 405 165 422 178 Z" fill="black" />
  </g>
  <g class="defect" id="01">
    <path d="M 345 286 Q 310 286 300 246" fill="none" stroke="red" stroke-width="3" />
  </g>
  <g class="defect" id="02">
    <path d="M 399 99 Q 389 113 411 138" fill="none" stroke="red" stroke-width="3" />
  </g>
  <g class="defect" id="03">
    <path d="M 411 138 Q 405 165 422 178" fill="none" stroke="red" stroke-width="3" />
  </g>
</svg>