<svg xmlns="http://www.w3.org/2000/svg" width="512" height="512" viewBox="0 0 512 512">
  <g class="glyph">
    <path d="M 323 512 316 489 H 392 Q 453 492 451 438 V 413 Q 453 374 401 377 H 138 Q 81 377 81 320 V 275 Q 83 226 135 223 H 201 Q 210 203 217 183 H 250 Q 244 203 232 223 H 363 Q 422 223 422 264 V 291 Q 424 334 370 332 H 323 L 318 314 H 350 Q 392 316 388 284 V 268 Q 390 241 350 244 H 156 Q 113 244 113 284 V 316 Q 111 356 158 354 H 422 Q 485 354 485 411 V 447 Q 485 512 417 512 Z M 23 124 0 108 Q 63 52 83 0 H 117 Q 115 5 113 14 Q 108 23 106 27 H 187 Q 217 27 230 41 Q 241 59 230 83 Q 194 171 36 246 L 18 223 Q 90 187 131 153 H 99 Q 81 115 61 88 Q 43 108 23 124 Z M 329 192 Q 277 192 277 140 V 61 Q 282 23 318 20 H 422 Q 460 25 465 59 V 81 Q 465 131 420 131 H 370 L 363 115 H 406 Q 433 115 433 81 V 65 Q 431 45 406 43 H 336 Q 311 43 311 70 V 129 Q 309 169 341 167 H 487 L 480 192 Z M 7 447 V 424 H 390 V 447 Z M 180 47 H 92 Q 90 52 83 59 Q 84 90 65 81 H 92 Q 113 113 133 151 Q 180 115 198 77 Q 214 50 180 47 Z M 237 341 Q 237 338 235 329 Q 219 282 208 264 H 239 Q 259 307 271 341 Z" fill="black" />
  </g>
  <g class="defect" id="01">
    <path d="M 83 59 Q 84 90 65 81" fill="none" stroke="red" stroke-width="3" />
  </g>
</svg>