<svg xmlns="http://www.w3.org/2000/svg" width="512" height="512" viewBox="0 0 512 512">
  <g class="glyph">
    <path d="M 20 157 0 144 Q 42 78 69 0 H 98 Q 76 33 86 31 H 142 Q 166 31 175 44 Q 167 42 175 84 L 153 129 Q 199 133 202 182 V 339 Q 199 386 149 388 H 80 Q 20 390 22 335 V 177 Q 22 129 75 129 H 124 L 146 82 Q 162 51 124 51 H 80 Q 58 106 20 157 Z M 211 42 V 20 H 510 V 42 H 412 V 95 H 465 Q 473 108 494 124 V 182 Q 492 215 461 217 H 248 Q 224 215 222 186 V 124 Q 222 95 253 95 H 304 V 42 Z M 211 355 V 335 H 512 V 355 H 375 V 446 Q 375 496 328 494 H 286 L 279 474 H 317 Q 344 474 344 441 V 355 Z M 228 284 V 264 H 492 V 284 Z M 7 483 2 457 Q 111 446 206 432 V 457 Q 184 459 140 465 Q 53 479 7 483 Z M 173 266 H 124 V 368 H 140 Q 173 368 173 328 Z M 124 149 V 246 H 173 V 186 Q 173 146 140 149 Z M 51 328 Q 51 370 86 368 H 98 V 266 H 51 Z M 51 186 V 246 H 98 V 149 H 86 Q 49 146 51 186 Z M 332 113 V 197 H 383 V 113 Z M 248 175 Q 248 197 270 197 H 304 V 113 H 273 Q 250 113 248 133 Z M 443 197 Q 465 197 465 175 V 135 Q 465 113 443 113 H 412 V 197 Z M 490 488 Q 434 432 403 372 H 432 Q 461 419 510 468 Z M 224 488 204 465 Q 253 419 281 372 H 313 Q 281 428 224 488 Z M 332 42 V 95 H 383 V 42 Z" fill="black" />
  </g>
  <g class="defect" id="01">
    <path d="M 175 44 Q 167 42 175 84" fill="none" stroke="red" stroke-width="3" />
  </g>
  <g class="defect" id="02">
    <path d="M 465 95 Q 473 108 494 124" fill="none" stroke="red" stroke-width="3" />
  </g>
  <g class="defect" id="03">
    <path d="M 98 0 Q 76 33 86 31" fill="none" stroke="red" stroke-width="3" />
  </g>
</svg>