<svg xmlns="http://www.w3.org/2000/svg" width="512" height="512" viewBox="0 0 512 512">
  <g class="glyph">
    <path d="M 362 359 Q 424 376 475 378 Q 480 379 481 382 Q 481 384 477 388 Q 450 416 428 447 Q 418 462 405 448 Q 376 417 356 366 Q 355 361 356 359 Q 357 357 362 359 Z M 288 347 Q 293 342 297 342 Q 299 343 299 350 Q 297 406 280 450 Q 271 470 254 458 Q 231 442 200 411 Q 195 406 196 403 Q 196 400 202 399 Q 248 386 288 347 Z M 367 143 Q 344 141 273 141 V 169 Q 344 169 366 167 Q 374 166 373 171 Q 355 170 371 197 Q 371 204 365 203 Q 356 202 305 202 Q 282 201 273 201 V 229 Q 346 229 368 226 Q 375 225 374 231 Q 374 250 373 259 Q 372 265 366 264 Q 347 262 273 262 V 295 H 311 Q 346 295 361 295 Q 379 294 392 293 Q 393 211 392 95 Q 393 74 377 75 Q 343 73 285 77 Q 273 77 273 87 Q 273 92 273 107 Q 345 107 369 105 Q 375 103 375 109 Q 375 128 373 137 Q 372 144 367 143 Z M 34 237 Q 20 223 3 196 Q 0 192 1 189 Q 2 186 7 186 Q 29 188 47 163 Q 118 68 134 8 Q 135 2 138 1 Q 140 0 146 5 Q 160 16 200 40 Q 204 43 204 45 Q 204 48 200 52 Q 187 61 167 90 Q 166 92 162 97 Q 146 120 126 147 Q 155 160 153 175 Q 153 198 153 295 Q 153 401 153 435 Q 154 454 138 451 Q 100 447 61 427 Q 54 422 61 417 Q 83 409 88 382 Q 101 298 105 198 Q 105 185 104 176 Q 79 209 56 234 Q 45 247 34 237 Z M 500 276 Q 506 271 509 272 Q 512 273 511 280 Q 509 318 506 336 Q 504 347 491 345 Q 432 342 331 342 Q 234 341 184 344 Q 175 346 174 337 Q 170 317 168 289 Q 168 283 170 282 Q 173 281 178 284 Q 188 289 224 292 Q 224 63 220 42 Q 219 34 220 32 Q 222 30 230 31 Q 268 33 335 33 Q 395 33 439 29 Q 454 26 451 42 Q 449 52 448 113 Q 447 169 447 290 Q 486 286 500 276 Z" fill="black" />
  </g>
  <g class="defect" id="01">
    <path d="M 373 171 Q 355 170 371 197" fill="none" stroke="red" stroke-width="3" />
  </g>
</svg>