<svg xmlns="http://www.w3.org/2000/svg" width="512" height="512" viewBox="0 0 512 512">
  <g class="glyph">
    <path d="M 354 280 Q 450 325 499 333 Q 503 333 505 336 Q 505 338 501 343 Q 475 364 455 393 Q 444 410 429 397 Q 383 353 349 287 Q 347 283 349 281 Q 350 279 354 280 Z M 283 420 Q 285 387 284 316 Q 283 253 280 238 Q 278 232 284 233 Q 316 237 343 238 Q 348 238 348 243 Q 344 273 344 342 Q 344 411 348 469 Q 350 481 336 480 Q 293 479 261 475 Q 257 474 255 472 Q 255 469 259 466 Q 281 453 283 420 Z M 38 243 Q 20 229 3 204 Q 0 200 1 197 Q 2 194 7 194 Q 34 195 53 171 Q 135 71 147 19 Q 147 12 150 11 Q 153 11 159 15 Q 175 27 214 50 Q 219 52 219 55 Q 219 57 214 61 Q 197 74 180 99 Q 158 106 166 119 Q 148 144 138 156 Q 166 167 163 181 Q 164 213 164 356 Q 165 424 165 447 Q 166 466 150 463 Q 109 459 76 442 Q 69 437 76 432 Q 76 432 78 431 Q 94 424 98 393 Q 109 320 113 205 V 188 Q 88 217 63 240 Q 51 251 38 243 Z M 459 125 Q 412 121 343 123 V 176 Q 380 176 397 176 Q 416 176 427 176 Q 479 176 502 152 Q 499 133 512 156 Q 511 192 507 220 Q 505 235 489 234 Q 334 227 196 233 Q 184 234 184 223 Q 183 218 182 204 Q 180 178 180 171 Q 180 162 188 167 Q 199 172 213 174 Q 226 175 259 176 Q 263 176 271 176 Q 282 176 286 176 V 91 Q 286 39 277 6 Q 276 3 277 1 Q 278 0 283 1 Q 309 5 345 6 Q 345 6 346 6 Q 351 5 350 12 Q 345 32 343 77 Q 415 77 463 73 Q 470 72 468 77 Q 468 84 467 101 Q 465 114 465 119 Q 466 126 459 125 Z" fill="black" />
  </g>
  <g class="defect" id="01">
    <path d="M 180 99 Q 158 106 166 119" fill="none" stroke="red" stroke-width="3" />
  </g>
  <g class="defect" id="02">
    <path d="M 502 152 Q 499 133 512 156" fill="none" stroke="red" stroke-width="3" />
  </g>
</svg>