<svg xmlns="http://www.w3.org/2000/svg" width="512" height="512" viewBox="0 0 512 512">
  <g class="glyph">
    <path d="M 331 164 Q 321 166 323 154 Q 339 60 338 13 Q 337 5 345 7 Q 359 11 399 17 Q 407 17 405 25 Q 398 52 383 104 Q 379 112 388 112 Q 462 111 482 102 Q 487 99 489 100 Q 491 101 491 106 Q 491 137 488 155 Q 487 166 476 164 Q 464 162 437 162 Q 440 163 444 166 Q 467 181 474 186 Q 480 188 476 194 Q 476 195 474 197 Q 462 216 453 238 Q 437 275 422 309 Q 445 342 455 350 Q 474 371 503 358 Q 512 356 509 367 Q 493 412 468 444 Q 452 462 437 442 Q 419 417 395 366 Q 373 410 356 438 Q 348 457 321 453 Q 289 447 258 434 Q 251 429 259 425 Q 295 414 314 388 Q 336 362 367 306 Q 343 252 326 202 Q 322 190 330 186 Q 338 182 345 192 Q 361 220 389 262 Q 399 241 407 222 Q 420 185 420 162 Q 357 162 331 164 Z M 29 243 Q 16 228 3 200 Q 0 192 6 193 Q 25 199 37 173 Q 99 57 102 8 Q 102 3 104 2 Q 106 0 110 3 Q 139 21 162 28 Q 169 30 163 37 Q 152 50 139 75 Q 121 113 102 152 Q 129 162 128 175 Q 129 206 130 348 Q 130 359 130 364 Q 148 367 156 350 Q 177 304 193 236 L 157 238 Q 143 240 144 228 L 142 188 Q 142 184 144 183 Q 145 182 148 184 Q 163 192 210 192 V 165 L 172 166 Q 164 168 164 159 Q 163 152 163 131 Q 162 125 171 127 Q 177 128 197 128 Q 205 129 210 129 V 106 L 164 107 Q 155 109 156 99 Q 155 89 155 68 Q 153 60 163 63 Q 173 65 209 66 Q 225 25 205 12 Q 203 6 210 6 Q 233 10 258 10 Q 264 10 263 16 Q 260 33 258 65 Q 294 64 306 62 Q 314 60 314 66 Q 314 82 312 98 Q 313 109 300 107 Q 278 106 257 106 V 129 Q 283 128 297 126 Q 304 125 305 129 Q 305 144 303 159 Q 304 168 293 166 L 257 165 V 192 Q 303 191 314 183 Q 319 181 321 182 Q 323 182 323 187 Q 323 211 321 226 Q 320 238 309 236 Q 264 235 240 235 Q 238 249 234 263 Q 264 263 277 262 Q 294 262 303 261 Q 315 259 313 270 Q 312 284 309 330 Q 323 358 307 372 Q 304 410 273 409 Q 234 409 212 366 Q 211 363 211 362 Q 212 361 215 361 Q 260 369 261 356 Q 264 329 265 298 H 224 Q 200 383 180 412 Q 168 430 154 415 Q 142 403 130 384 V 432 Q 131 448 118 446 Q 74 440 49 426 Q 43 421 50 418 Q 67 417 71 381 Q 83 292 86 196 Q 86 190 86 182 Q 46 237 52 240 Q 41 254 29 243 Z" fill="black" />
  </g>
  <g class="defect" id="01">
    <path d="M 209 66 Q 225 25 205 12" fill="none" stroke="red" stroke-width="3" />
  </g>
  <g class="defect" id="02">
    <path d="M 309 330 Q 323 358 307 372" fill="none" stroke="red" stroke-width="3" />
  </g>
  <g class="defect" id="03">
    <path d="M 86 182 Q 46 237 52 240" fill="none" stroke="red" stroke-width="3" />
  </g>
</svg>