<svg xmlns="http://www.w3.org/2000/svg" width="512" height="512" viewBox="0 0 512 512">
  <g class="glyph">
    <path d="M 120 73 Q 120 105 120 144 Q 120 178 121 195 Q 121 208 134 207 Q 232 210 344 207 Q 358 206 357 195 Q 360 125 357 68 Q 358 59 347 59 Q 337 58 324 59 Q 317 59 317 67 Q 316 91 317 118 Q 318 142 319 158 Q 322 170 309 168 Q 237 164 170 168 Q 156 172 159 158 Q 161 144 161 117 Q 161 89 160 70 Q 160 64 154 64 Q 152 64 146 64 Q 132 63 129 64 Q 120 65 120 73 Z M 328 288 Q 318 318 318 373 Q 314 402 345 399 Q 448 403 501 322 Q 506 316 508 317 Q 512 319 512 327 Q 511 388 506 429 Q 505 460 472 459 Q 441 462 392 463 Q 339 463 302 462 Q 234 460 252 400 L 257 274 Q 256 266 262 268 Q 296 278 325 280 Q 331 280 328 288 Z M 220 289 Q 226 291 223 296 Q 179 379 130 439 Q 92 484 59 483 Q 11 480 1 400 Q 0 387 5 385 Q 11 383 18 391 Q 45 424 81 387 Q 135 330 165 268 Q 117 269 61 272 Q 47 274 50 261 Q 63 138 50 15 Q 47 2 61 5 Q 90 8 134 8 Q 175 8 201 4 Q 217 2 214 15 Q 212 30 210 60 Q 209 90 210 110 Q 210 116 217 117 Q 244 118 260 115 Q 265 114 265 105 Q 265 62 265 43 Q 264 22 261 12 Q 260 4 262 2 Q 264 0 271 1 Q 293 5 342 5 Q 392 5 415 2 Q 426 0 429 2 Q 433 5 431 15 Q 426 60 426 138 Q 426 216 432 258 Q 434 275 418 272 Q 374 268 308 267 Q 241 266 173 268 Q 202 284 220 289 Z" fill="black" />
  </g>
  <g class="defect" id="01">
    <path d="M 302 462 Q 234 460 252 400" fill="none" stroke="red" stroke-width="3" />
  </g>
</svg>