<svg xmlns="http://www.w3.org/2000/svg" width="512" height="512" viewBox="0 0 512 512">
  <g class="glyph">
    <path d="M 455 2 Q 468 0 467 8 Q 463 58 471 113 Q 438 109 400 114 Q 402 102 403 80 Q 403 75 403 72 Q 405 61 392 62 Q 341 61 265 61 Q 187 61 121 64 Q 121 51 108 78 Q 108 85 109 102 Q 110 112 110 117 Q 62 115 44 117 Q 49 56 40 11 Q 38 4 45 4 Q 122 9 250 9 Q 376 9 455 2 Z M 178 238 Q 176 242 177 244 Q 178 247 183 247 H 237 Q 235 209 230 197 Q 229 193 230 192 Q 231 191 235 191 Q 263 196 304 197 Q 308 197 308 202 Q 307 212 306 245 Q 385 244 407 237 Q 420 232 420 244 Q 420 268 414 294 Q 414 302 399 301 Q 363 299 305 299 V 338 Q 340 338 370 337 Q 474 338 499 306 Q 506 300 508 301 Q 512 302 512 311 Q 511 348 505 384 Q 502 401 483 400 Q 390 397 307 397 L 310 481 Q 312 500 295 500 Q 236 498 195 481 Q 191 478 191 476 Q 191 474 196 473 Q 231 471 234 424 L 236 397 Q 150 397 26 402 Q 5 404 5 386 Q 1 347 0 317 Q 0 311 4 310 Q 8 309 12 313 Q 36 339 74 339 H 238 Q 238 330 238 312 Q 238 304 238 299 Q 193 300 111 302 Q 101 302 97 302 Q 81 300 88 284 Q 115 238 143 184 Q 108 184 69 185 Q 62 187 61 179 Q 61 172 60 155 Q 59 137 58 130 Q 58 121 69 125 Q 81 129 167 132 Q 183 94 188 73 Q 189 64 197 68 Q 224 79 254 83 Q 260 84 260 85 Q 261 88 259 92 L 237 132 Q 408 132 435 122 Q 450 118 448 129 Q 447 138 445 155 Q 462 187 443 175 Q 441 185 431 184 Q 405 183 339 183 Q 274 182 210 183 Z" fill="black" />
  </g>
  <g class="defect" id="01">
    <path d="M 121 64 Q 121 51 108 78" fill="none" stroke="red" stroke-width="3" />
  </g>
  <g class="defect" id="02">
    <path d="M 445 155 Q 462 187 443 175" fill="none" stroke="red" stroke-width="3" />
  </g>
</svg>