<svg xmlns="http://www.w3.org/2000/svg" width="512" height="512" viewBox="0 0 512 512">
  <g class="glyph">
    <path d="M 64 135 Q 44 104 30 68 Q 28 62 29 60 Q 31 58 37 59 Q 53 61 78 62 Q 103 63 123 62 Q 128 61 129 65 Q 131 68 127 74 Q 105 111 81 135 Q 71 147 64 135 Z M 326 26 Q 346 38 376 45 Q 381 47 379 53 Q 349 145 315 214 Q 290 225 295 218 Q 277 208 263 195 Q 260 191 261 189 Q 261 187 266 186 Q 282 184 287 169 Q 288 166 290 160 Q 309 107 315 73 Q 319 54 319 48 Q 320 40 319 31 Q 318 27 321 26 Q 323 24 326 26 Z M 402 17 Q 434 78 470 130 Q 482 150 502 142 Q 509 141 510 143 Q 512 145 509 153 Q 497 188 473 215 Q 454 234 440 211 Q 409 148 386 25 Q 385 17 391 13 Q 398 10 402 17 Z M 413 281 Q 462 360 501 392 Q 511 400 501 407 Q 479 424 449 440 Q 434 447 428 432 Q 424 422 421 407 Q 358 417 284 417 Q 266 416 276 398 Q 323 310 342 197 Q 343 191 349 194 Q 369 204 402 212 Q 407 212 403 219 Q 397 233 382 276 Q 362 334 350 360 Q 349 363 349 364 Q 350 365 353 365 Q 386 365 412 361 Q 406 327 402 285 Q 401 278 405 277 Q 409 275 413 281 Z M 6 320 Q 61 261 107 197 Q 109 194 112 195 Q 115 197 115 200 Q 106 258 100 287 Q 102 287 104 288 Q 115 292 125 276 Q 145 246 181 168 Q 154 169 143 170 Q 131 172 131 163 Q 129 143 129 112 Q 130 105 136 108 Q 151 116 187 117 Q 171 31 181 8 Q 179 3 180 2 Q 181 0 185 1 Q 201 4 242 7 Q 245 7 244 14 Q 239 36 237 117 Q 265 115 276 111 Q 261 125 281 111 Q 283 112 283 116 Q 282 141 280 161 Q 280 170 270 168 Q 254 167 236 167 Q 235 177 236 196 Q 236 205 236 209 Q 260 226 301 237 Q 306 239 306 241 Q 306 242 304 246 L 273 282 Q 262 294 255 281 Q 245 259 236 233 Q 236 350 239 454 Q 240 474 224 471 Q 187 469 155 453 Q 151 451 151 449 Q 151 445 156 444 Q 178 436 179 414 Q 182 362 185 251 Q 161 312 144 342 Q 132 361 121 346 Q 108 326 99 295 Q 89 343 82 366 Q 78 377 70 373 Q 39 357 6 330 Q 0 326 6 320 Z" fill="black" />
  </g>
  <g class="defect" id="01">
    <path d="M 276 111 Q 261 125 281 111" fill="none" stroke="red" stroke-width="3" />
  </g>
  <g class="defect" id="02">
    <path d="M 315 214 Q 290 225 295 218" fill="none" stroke="red" stroke-width="3" />
  </g>
  <g class="defect" id="03">
    <path d="M 187 117 Q 171 31 181 8" fill="none" stroke="red" stroke-width="3" />
  </g>
</svg>