<svg xmlns="http://www.w3.org/2000/svg" width="512" height="512" viewBox="0 0 512 512">
  <g class="glyph">
    <path d="M 44 247 Q 42 243 43 241 Q 44 239 49 240 Q 92 244 127 244 Q 132 244 133 246 Q 135 248 132 252 Q 112 280 89 304 Q 80 311 74 304 Q 59 281 44 247 Z M 312 279 Q 283 287 229 295 Q 222 295 221 293 Q 220 291 224 286 Q 251 257 271 226 Q 277 217 284 224 Q 297 237 319 268 Q 324 276 312 279 Z M 190 137 Q 163 136 129 137 Q 98 137 80 138 Q 72 139 70 132 Q 69 125 66 101 Q 66 102 65 98 Q 64 92 72 93 Q 101 94 144 94 Q 183 94 197 92 Q 204 90 204 94 Q 204 112 201 132 Q 201 139 190 137 Z M 411 101 Q 407 129 407 174 Q 407 263 411 298 Q 413 310 402 310 Q 364 310 350 309 Q 344 309 346 302 Q 339 267 354 186 Q 354 107 349 95 Q 347 90 349 88 Q 350 87 354 88 Q 377 93 407 95 Q 411 95 411 101 Z M 510 21 Q 505 45 504 75 Q 502 102 502 159 Q 502 288 505 377 Q 506 386 506 401 Q 508 445 508 459 Q 509 481 487 480 Q 408 475 365 425 Q 361 419 362 416 Q 363 413 370 413 Q 441 418 442 378 Q 444 359 444 275 Q 445 230 445 178 Q 445 125 444 96 Q 444 38 432 7 Q 430 0 439 2 Q 463 8 504 11 Q 512 11 510 21 Z M 8 363 Q 54 346 148 297 Q 149 297 149 297 Q 150 296 151 296 Q 151 262 151 246 Q 151 227 150 215 Q 83 216 42 218 Q 32 219 30 211 Q 25 182 24 158 Q 23 153 26 151 Q 30 149 34 152 Q 45 164 83 165 Q 100 165 137 166 Q 176 166 217 165 Q 224 101 227 64 Q 222 64 208 64 Q 98 63 73 65 Q 64 67 63 59 Q 62 53 61 39 Q 60 26 59 20 Q 59 13 66 15 Q 92 19 164 19 Q 240 20 276 16 Q 295 12 291 27 Q 282 81 274 164 Q 315 162 327 152 Q 333 149 335 150 Q 338 151 338 157 Q 336 181 333 205 Q 333 219 320 217 Q 272 214 214 214 Q 212 267 212 304 Q 213 304 214 304 Q 214 305 215 305 Q 319 347 338 350 Q 346 352 340 359 Q 317 387 293 407 Q 281 418 272 407 Q 241 371 213 318 Q 213 384 217 443 Q 220 477 187 476 Q 111 476 89 429 Q 87 423 88 421 Q 89 419 94 419 Q 129 423 139 416 Q 129 394 150 388 Q 151 355 151 309 Q 91 394 61 425 Q 54 434 44 426 Q 18 395 4 373 Q 0 366 8 363 Z" fill="black" />
  </g>
  <g class="defect" id="01">
    <path d="M 139 416 Q 129 394 150 388" fill="none" stroke="red" stroke-width="3" />
  </g>
  <g class="defect" id="02">
    <path d="M 346 302 Q 339 267 354 186" fill="none" stroke="red" stroke-width="3" />
  </g>
</svg>