<svg xmlns="http://www.w3.org/2000/svg" width="512" height="512" viewBox="0 0 512 512">
  <g class="glyph">
    <path d="M 184 392 Q 184 404 201 403 Q 242 403 253 402 Q 269 402 268 389 Q 268 369 267 362 Q 265 351 249 350 Q 221 349 201 351 Q 186 352 184 360 Q 182 374 184 392 Z M 135 91 133 125 Q 164 126 234 125 Q 247 125 251 125 Q 265 125 264 116 Q 265 103 263 91 Q 263 91 263 90 Q 263 77 249 77 Q 218 76 147 78 Q 136 78 135 91 Z M 416 106 Q 412 132 412 177 Q 413 267 416 301 Q 419 314 407 313 Q 369 313 356 311 Q 349 311 351 305 Q 359 270 359 190 Q 359 112 354 99 Q 352 94 354 93 Q 355 91 360 92 Q 381 98 412 99 Q 417 99 416 106 Z M 510 21 Q 505 45 503 76 Q 502 104 502 161 Q 502 293 505 384 Q 506 393 506 408 Q 508 452 508 467 Q 509 489 486 488 Q 406 482 363 432 Q 359 426 360 423 Q 361 420 368 420 Q 440 424 440 384 Q 443 365 443 280 Q 444 234 444 181 Q 444 127 443 97 Q 443 39 431 7 Q 428 0 438 2 Q 463 8 504 11 Q 512 11 510 21 Z M 322 299 Q 335 297 332 308 Q 328 332 328 371 Q 328 412 331 442 Q 334 457 314 455 Q 277 453 230 453 Q 181 453 136 456 Q 119 459 123 442 Q 132 377 122 310 Q 120 299 132 301 Q 167 303 202 303 V 267 V 264 Q 160 265 141 267 Q 129 268 129 256 Q 126 239 126 219 Q 113 351 96 407 Q 91 426 74 432 Q 58 439 9 440 Q 2 441 1 438 Q 0 435 5 429 Q 61 335 75 107 Q 76 58 71 39 Q 67 24 81 26 Q 127 31 201 31 Q 274 31 314 26 Q 329 22 325 39 Q 322 56 323 94 Q 324 136 327 159 Q 331 172 316 170 Q 286 169 230 168 Q 173 168 130 168 L 127 208 Q 128 206 134 207 Q 133 216 201 216 Q 199 193 195 180 Q 194 174 195 173 Q 196 172 202 173 Q 221 178 260 179 Q 261 179 261 179 Q 267 178 265 185 Q 264 193 261 216 Q 338 231 338 205 Q 343 202 346 203 Q 348 204 348 210 Q 348 232 345 254 Q 345 267 334 265 Q 295 264 259 264 V 270 V 303 Q 297 302 322 299 Z" fill="black" />
  </g>
  <g class="defect" id="01">
    <path d="M 134 207 Q 133 216 201 216" fill="none" stroke="red" stroke-width="3" />
  </g>
  <g class="defect" id="02">
    <path d="M 261 216 Q 338 231 338 205" fill="none" stroke="red" stroke-width="3" />
  </g>
</svg>