<svg xmlns="http://www.w3.org/2000/svg" width="512" height="512" viewBox="0 0 512 512">
  <g class="glyph">
    <path d="M 368 115 Q 363 142 363 189 Q 364 292 367 322 Q 370 335 358 334 Q 355 334 348 334 Q 323 323 303 333 Q 296 333 298 326 Q 306 288 307 202 Q 307 122 302 110 Q 300 104 302 103 Q 303 101 308 102 Q 327 107 363 109 Q 368 109 368 115 Z M 167 66 V 120 Q 186 120 206 119 Q 213 119 213 111 Q 213 58 208 41 Q 207 37 208 37 Q 209 36 212 37 Q 253 40 266 38 Q 274 37 273 44 Q 270 66 270 99 Q 269 132 271 157 Q 274 171 258 170 Q 129 162 17 169 Q 2 172 6 156 Q 9 128 8 90 Q 8 55 4 40 Q 3 36 5 35 Q 6 33 9 34 Q 29 38 62 38 Q 66 37 68 38 Q 69 40 68 44 Q 63 63 63 110 Q 63 119 70 119 Q 86 121 110 121 V 93 Q 110 30 103 6 Q 102 2 103 1 Q 104 0 107 1 Q 146 5 168 5 Q 173 5 172 9 Q 167 36 167 66 Z M 472 24 Q 467 49 465 80 Q 464 109 464 168 Q 465 312 467 404 Q 468 414 468 429 Q 470 475 470 490 Q 471 512 448 511 Q 366 506 321 454 Q 317 447 318 444 Q 319 442 326 442 Q 400 446 401 405 Q 403 385 404 295 Q 404 246 404 190 Q 404 133 404 102 Q 403 42 391 10 Q 389 2 398 4 Q 423 10 466 13 Q 474 14 472 24 Z M 18 479 Q 22 447 22 384 Q 22 321 19 288 Q 19 283 24 284 Q 34 286 68 288 Q 78 289 83 289 Q 116 291 181 290 Q 191 290 194 290 Q 207 290 207 280 Q 207 273 207 259 Q 209 249 196 249 Q 164 248 91 249 Q 29 249 8 250 Q 2 250 2 245 Q 0 221 0 196 Q 0 191 5 192 Q 34 197 121 199 Q 211 199 256 195 Q 269 193 266 206 Q 263 228 262 264 Q 262 301 264 327 Q 265 340 253 338 Q 227 337 177 337 Q 126 337 82 338 Q 82 352 82 383 Q 82 399 82 407 Q 82 417 90 415 Q 139 407 248 374 Q 262 371 264 387 Q 236 440 36 494 Q 16 497 18 479 Z" fill="black" />
  </g>
  <g class="defect" id="01">
    <path d="M 348 334 Q 323 323 303 333" fill="none" stroke="red" stroke-width="3" />
  </g>
</svg>