<svg xmlns="http://www.w3.org/2000/svg" width="512" height="512" viewBox="0 0 512 512">
  <g class="glyph">
    <path d="M 292 240 Q 292 237 292 231 Q 293 223 293 218 Q 254 218 241 219 V 239 Q 255 240 292 240 Z M 293 190 V 167 Q 290 167 284 167 Q 256 168 249 168 Q 241 168 241 174 V 190 Z M 348 218 V 240 H 403 Q 403 236 403 229 Q 403 222 403 218 Q 397 218 382 218 Q 360 218 348 218 Z M 348 190 Q 360 190 382 189 Q 397 189 403 189 Q 403 186 403 181 Q 403 178 403 177 Q 402 167 391 167 Q 387 167 376 167 Q 358 166 348 166 Z M 434 55 Q 405 53 379 46 Q 374 46 374 43 Q 373 42 377 39 Q 394 24 419 5 Q 427 0 429 6 Q 430 8 432 13 Q 440 39 442 49 Q 444 57 434 55 Z M 242 463 Q 227 445 205 408 Q 204 404 204 402 Q 205 401 209 401 Q 235 401 299 395 Q 303 394 304 396 Q 305 398 303 403 Q 280 437 256 461 Q 248 470 242 463 Z M 424 316 423 335 Q 477 332 502 314 Q 507 310 509 311 Q 512 313 512 318 Q 510 348 506 372 Q 504 384 490 382 Q 451 381 423 381 Q 438 431 424 464 Q 424 463 424 467 Q 427 503 394 503 Q 323 499 297 459 Q 294 454 295 452 Q 296 450 301 451 Q 340 453 352 449 Q 364 446 364 430 Q 364 420 365 403 Q 365 388 365 380 Q 246 380 172 385 Q 157 387 158 376 Q 157 369 157 345 Q 156 338 156 335 Q 156 330 158 329 Q 161 328 166 330 Q 175 336 211 336 Q 289 338 364 336 Q 364 322 361 312 Q 360 307 364 307 Q 388 311 421 311 Q 425 311 424 316 Z M 166 137 Q 176 135 174 145 Q 174 151 172 171 Q 171 183 171 188 Q 171 197 160 196 L 120 193 V 220 Q 121 401 123 472 Q 124 492 108 490 Q 61 486 29 472 Q 25 471 25 467 Q 26 463 30 463 Q 55 459 56 435 Q 58 407 60 234 Q 61 206 61 193 Q 36 194 14 196 Q 3 198 3 190 Q 1 174 0 144 Q 0 142 0 142 Q 0 135 7 136 Q 19 140 61 141 Q 61 138 62 132 Q 62 127 62 124 Q 77 32 55 16 Q 53 11 54 9 Q 55 8 60 9 Q 76 11 125 15 Q 129 15 127 21 Q 122 41 120 141 Q 143 140 166 137 Z M 352 15 Q 348 37 348 63 Q 457 61 475 57 Q 484 54 483 62 Q 482 86 480 101 Q 480 107 471 107 Q 457 106 429 105 Q 415 105 397 105 Q 380 105 348 105 V 130 Q 417 129 450 126 Q 460 123 459 134 Q 458 166 458 214 Q 458 261 460 301 Q 462 309 452 310 Q 421 310 390 306 Q 388 305 388 303 Q 388 301 390 300 Q 401 295 402 274 Q 402 272 402 269 Q 396 269 380 269 Q 360 268 349 268 Q 349 285 351 299 Q 352 313 342 311 Q 325 311 290 309 Q 283 310 287 301 Q 291 290 292 268 H 241 Q 241 274 242 285 Q 242 298 242 303 Q 243 315 233 315 Q 206 314 180 309 Q 177 308 177 306 Q 176 304 179 302 Q 191 297 190 261 Q 190 258 190 247 Q 191 157 188 134 Q 188 127 195 127 Q 221 130 294 130 V 106 Q 247 107 185 108 Q 176 110 177 102 Q 175 88 175 63 Q 174 57 181 59 Q 205 63 293 63 Q 292 26 286 7 Q 284 4 286 3 Q 287 1 291 2 Q 311 6 348 7 Q 354 5 352 15 Z" fill="black" />
  </g>
  <g class="defect" id="01">
    <path d="M 423 381 Q 438 431 424 464" fill="none" stroke="red" stroke-width="3" />
  </g>
  <g class="defect" id="02">
    <path d="M 62 124 Q 77 32 55 16" fill="none" stroke="red" stroke-width="3" />
  </g>
</svg>