<svg xmlns="http://www.w3.org/2000/svg" width="512" height="512" viewBox="0 0 512 512">
  <g class="glyph">
    <path d="M 73 144 Q 60 144 60 159 Q 58 183 59 212 Q 60 227 74 228 Q 87 231 106 228 Q 116 227 116 210 Q 117 195 116 165 Q 116 166 116 162 Q 114 141 98 143 Q 82 143 73 144 Z M 163 83 Q 177 80 174 95 Q 167 188 174 274 Q 177 295 156 290 Q 127 286 86 287 Q 31 288 19 292 Q 0 297 3 275 Q 12 182 3 95 Q 3 83 15 84 Q 47 88 91 88 Q 136 88 163 83 Z M 387 188 Q 418 209 446 222 Q 449 223 449 224 Q 449 227 446 230 Q 435 241 408 278 Q 388 309 366 336 Q 401 365 423 380 Q 456 402 497 380 Q 503 377 506 380 Q 509 383 507 391 Q 488 448 453 490 Q 435 509 413 488 Q 374 452 324 388 Q 277 444 238 483 Q 209 512 182 491 Q 153 469 130 442 Q 123 430 134 430 Q 168 436 211 404 Q 238 384 285 334 Q 257 295 220 238 Q 213 225 219 218 Q 227 211 238 220 Q 241 223 248 230 Q 293 273 319 295 Q 333 278 351 254 Q 381 213 380 190 Q 380 188 380 187 Q 355 187 349 186 Q 342 186 346 180 Q 353 172 355 130 Q 348 130 336 130 Q 311 130 299 130 Q 299 160 299 171 Q 299 184 299 188 Q 299 193 294 193 Q 273 193 286 193 Q 249 194 240 193 Q 246 173 236 188 Q 243 177 244 131 Q 231 131 208 132 Q 198 133 194 133 Q 184 134 184 126 Q 182 106 182 76 Q 182 70 188 71 Q 196 74 244 76 Q 243 16 238 5 Q 237 0 243 2 Q 253 4 274 6 Q 293 7 299 6 Q 303 6 303 11 Q 301 24 299 77 H 355 Q 355 17 350 5 Q 349 1 354 1 Q 381 6 410 7 Q 415 7 414 11 Q 412 22 411 76 Q 471 74 486 69 Q 494 66 494 73 Q 493 98 488 127 Q 488 132 477 132 L 410 130 Q 410 165 411 182 Q 413 188 405 187 H 386 Q 386 188 387 188 Z" fill="black" />
  </g>
  <g class="defect" id="01">
    <path d="M 294 193 Q 273 193 286 193" fill="none" stroke="red" stroke-width="3" />
  </g>
  <g class="defect" id="02">
    <path d="M 86 287 Q 31 288 19 292" fill="none" stroke="red" stroke-width="3" />
  </g>
  <g class="defect" id="03">
    <path d="M 240 193 Q 246 173 236 188" fill="none" stroke="red" stroke-width="3" />
  </g>
</svg>