<svg xmlns="http://www.w3.org/2000/svg" width="512" height="512" viewBox="0 0 512 512">
  <g class="glyph">
    <path d="M 377 105 H 341 Q 340 120 340 136 Q 344 136 351 136 Q 359 136 362 136 Q 369 136 380 135 Q 390 135 394 135 Q 394 131 394 124 Q 394 120 394 117 Q 392 105 377 105 Z M 392 202 Q 393 194 393 182 Q 376 182 340 182 V 218 Q 361 218 374 217 Q 391 217 392 202 Z M 65 155 Q 51 157 52 169 Q 49 192 51 222 Q 49 236 64 236 Q 76 238 90 236 Q 98 236 98 219 Q 99 196 97 172 Q 97 152 83 154 Q 70 154 65 155 Z M 350 306 Q 375 324 409 343 Q 407 296 404 278 Q 403 272 407 274 Q 427 276 461 277 Q 466 277 466 281 Q 459 368 466 494 Q 469 511 453 509 Q 424 506 391 496 Q 387 495 387 493 Q 387 490 391 488 Q 408 481 409 449 Q 410 414 410 389 L 395 406 Q 384 418 376 406 Q 357 372 345 310 Q 344 306 345 305 Q 346 304 350 306 Z M 274 299 Q 277 296 278 297 Q 280 299 279 304 Q 271 356 260 412 Q 258 420 256 421 Q 254 422 248 419 Q 236 410 217 395 Q 213 427 206 453 Q 190 512 154 511 Q 118 511 73 448 Q 71 443 72 440 Q 73 438 79 439 Q 116 448 130 445 Q 145 443 151 426 Q 166 381 168 325 Q 168 297 164 282 Q 163 279 164 278 Q 165 277 168 277 Q 193 283 222 283 Q 228 283 227 289 Q 225 299 222 330 Q 222 333 222 335 Q 222 341 222 347 Q 256 314 274 299 Z M 142 103 Q 154 100 151 114 Q 148 150 148 195 Q 148 241 151 278 Q 155 297 136 293 Q 110 290 73 290 Q 38 291 14 295 Q 4 296 2 294 Q 0 292 1 279 Q 3 244 3 197 Q 3 149 1 115 Q 0 103 11 104 Q 82 110 142 103 Z M 482 185 Q 470 183 451 183 Q 453 230 454 242 Q 459 264 438 260 H 340 Q 340 316 341 407 Q 342 453 345 498 Q 346 509 336 507 Q 324 506 312 506 Q 301 506 277 506 Q 271 506 273 500 Q 279 463 280 414 Q 281 324 281 260 Q 209 261 185 264 Q 175 266 175 257 Q 173 245 173 220 Q 172 213 177 215 Q 213 218 281 218 V 182 Q 205 183 175 186 Q 163 187 163 177 Q 162 155 161 132 Q 161 128 163 127 Q 165 126 170 128 Q 186 137 281 137 Q 280 120 280 106 Q 220 107 184 108 Q 177 110 177 104 Q 175 92 174 69 Q 173 66 173 64 Q 158 46 181 58 Q 217 62 279 62 Q 260 22 271 7 Q 269 3 271 1 Q 272 0 277 1 Q 301 5 336 7 Q 345 7 344 16 Q 342 36 341 62 Q 413 61 436 57 Q 452 54 456 58 Q 460 60 457 72 Q 454 93 453 130 Q 480 125 495 112 Q 500 108 503 111 Q 506 114 506 121 Q 503 163 501 173 Q 499 187 482 185 Z" fill="black" />
  </g>
  <g class="defect" id="01">
    <path d="M 279 62 Q 260 22 271 7" fill="none" stroke="red" stroke-width="3" />
  </g>
  <g class="defect" id="02">
    <path d="M 173 64 Q 158 46 181 58" fill="none" stroke="red" stroke-width="3" />
  </g>
</svg>