<svg xmlns="http://www.w3.org/2000/svg" width="512" height="512" viewBox="0 0 512 512">
  <g class="glyph">
    <path d="M 442 91 Q 418 83 392 63 Q 386 58 392 56 Q 405 48 431 34 Q 441 29 446 26 Q 447 26 447 25 Q 453 22 453 29 Q 455 43 452 86 Q 452 95 442 91 Z M 59 148 Q 47 150 47 162 Q 45 185 46 214 Q 45 227 58 227 Q 68 229 81 227 Q 88 227 89 211 Q 89 191 88 165 Q 88 147 75 148 Q 63 148 59 148 Z M 340 262 Q 346 260 348 261 Q 350 262 350 267 Q 350 268 350 270 Q 349 293 347 303 Q 347 312 336 310 Q 331 310 317 310 Q 304 309 297 309 Q 296 313 297 323 Q 297 329 297 331 Q 298 332 298 332 Q 336 345 360 348 Q 364 348 365 350 Q 365 351 362 355 Q 347 374 336 385 Q 330 393 324 385 Q 308 370 297 340 V 343 Q 297 367 298 407 Q 298 424 298 434 Q 300 470 267 468 Q 228 465 211 430 Q 208 425 209 424 Q 209 423 213 423 Q 259 432 254 397 Q 255 344 253 309 L 221 311 Q 211 313 211 304 Q 208 279 208 268 Q 208 262 214 265 Q 224 267 252 268 V 261 Q 252 203 246 172 Q 245 167 246 166 Q 246 165 250 166 Q 270 170 297 170 Q 300 170 300 171 Q 301 172 300 175 Q 298 188 297 206 Q 323 205 331 201 Q 334 199 336 200 Q 337 201 337 205 Q 337 212 336 227 Q 336 233 336 235 Q 336 241 331 241 L 296 240 V 244 V 268 Q 325 267 340 262 Z M 128 98 Q 139 95 136 109 Q 134 143 134 187 Q 134 231 136 268 Q 139 287 122 283 Q 99 280 67 280 Q 35 281 14 285 Q 4 286 2 284 Q 1 282 2 270 Q 3 235 3 190 Q 3 143 1 109 Q 0 98 10 99 Q 74 105 128 98 Z M 240 322 Q 244 317 245 318 Q 247 319 247 324 Q 247 371 239 394 Q 234 409 221 399 Q 218 403 194 376 Q 188 415 184 435 Q 180 458 159 465 Q 139 474 80 477 Q 74 477 73 475 Q 72 472 76 468 Q 106 437 127 383 Q 153 304 156 188 Q 156 183 156 173 Q 157 122 154 110 Q 153 104 154 103 Q 156 101 162 102 Q 181 104 231 104 Q 282 105 338 103 Q 333 37 323 6 Q 321 3 323 1 Q 324 0 327 1 Q 359 7 388 6 Q 391 7 390 10 Q 386 41 388 102 Q 445 99 467 94 Q 474 92 473 100 Q 472 135 471 147 Q 470 155 461 154 Q 441 154 392 154 Q 398 217 409 275 Q 432 219 431 201 Q 430 196 432 196 Q 433 196 437 199 Q 465 218 486 228 Q 493 232 487 238 Q 480 245 448 306 Q 434 333 426 347 Q 412 359 433 367 Q 443 392 453 391 Q 463 392 487 368 Q 491 364 495 366 Q 498 368 497 374 Q 485 451 465 486 Q 448 512 430 493 Q 405 464 387 414 Q 370 440 360 451 Q 354 469 301 433 Q 298 427 299 424 Q 301 422 307 423 Q 319 428 337 405 Q 352 383 370 353 Q 351 272 342 155 Q 306 155 246 157 Q 229 157 224 157 Q 211 157 212 167 Q 208 270 196 362 Q 222 345 240 322 Z" fill="black" />
  </g>
  <g class="defect" id="01">
    <path d="M 221 399 Q 218 403 194 376" fill="none" stroke="red" stroke-width="3" />
  </g>
  <g class="defect" id="02">
    <path d="M 426 347 Q 412 359 433 367" fill="none" stroke="red" stroke-width="3" />
  </g>
  <g class="defect" id="03">
    <path d="M 360 451 Q 354 469 301 433" fill="none" stroke="red" stroke-width="3" />
  </g>
</svg>