<svg xmlns="http://www.w3.org/2000/svg" width="512" height="512" viewBox="0 0 512 512">
  <g class="glyph">
    <path d="M 279 81 Q 284 79 285 81 Q 287 83 284 88 Q 273 116 260 138 Q 255 145 251 139 Q 231 116 223 99 Q 219 93 225 92 Q 241 90 279 81 Z M 59 109 Q 47 109 47 123 L 46 176 Q 45 189 59 189 Q 68 192 81 189 Q 89 188 89 173 Q 89 142 88 126 Q 87 108 76 108 Q 68 108 59 109 Z M 404 149 Q 448 148 478 143 Q 483 141 483 148 Q 484 168 484 204 Q 483 235 483 250 Q 461 267 468 267 Q 436 265 415 236 Q 412 232 413 230 Q 413 228 417 228 Q 438 230 438 217 Q 438 211 439 196 Q 439 189 433 190 Q 383 190 354 194 Q 346 195 349 186 Q 368 124 374 71 Q 375 67 375 67 Q 377 66 379 67 Q 402 78 426 83 Q 431 85 429 91 Q 427 94 423 105 Q 411 132 404 149 Z M 412 229 Q 412 231 411 235 Q 411 253 408 281 Q 455 342 470 357 Q 484 376 506 368 Q 512 366 510 377 Q 499 415 479 446 Q 464 465 450 438 Q 428 392 402 317 Q 389 393 374 431 Q 369 446 353 451 Q 338 456 296 456 Q 291 456 290 454 Q 289 451 293 448 Q 345 400 362 280 Q 368 242 363 220 Q 363 217 364 216 Q 364 215 367 215 Q 385 220 408 222 Q 413 221 412 229 Z M 127 59 Q 133 58 134 59 Q 135 62 135 69 Q 132 107 132 152 Q 132 197 134 231 Q 138 250 121 246 Q 98 243 66 243 Q 34 244 13 248 Q 3 249 2 247 Q 0 245 1 232 Q 6 131 1 68 Q 0 57 9 59 Q 78 66 127 59 Z M 344 143 Q 348 141 348 148 Q 348 177 347 184 Q 347 192 342 190 Q 335 190 300 190 Q 300 238 297 290 Q 300 290 305 289 Q 309 289 310 289 Q 314 289 314 285 Q 314 227 312 209 Q 311 205 315 206 Q 324 209 343 209 Q 348 209 347 214 Q 343 262 347 321 Q 348 332 339 331 Q 324 329 294 329 Q 291 358 288 382 Q 276 464 240 460 Q 206 459 187 415 Q 185 410 187 408 Q 190 405 194 407 Q 237 428 251 353 Q 253 345 254 329 Q 244 329 227 330 Q 223 331 222 331 Q 211 333 214 322 Q 216 303 216 263 Q 216 224 214 210 Q 213 205 218 207 Q 233 210 245 209 Q 249 209 249 214 Q 247 232 247 284 Q 247 289 249 289 Q 250 289 252 289 Q 256 290 258 290 Q 263 230 263 190 Q 230 191 223 192 Q 217 194 218 185 Q 217 178 216 158 Q 215 152 215 149 Q 215 144 219 145 Q 225 148 247 149 Q 269 149 291 149 Q 295 107 295 79 Q 295 74 297 74 Q 297 73 300 74 Q 319 81 342 92 Q 347 95 343 101 Q 319 130 303 149 Q 338 147 344 143 Z M 480 61 Q 448 60 352 59 Q 260 59 224 61 Q 210 61 212 70 Q 209 385 155 443 Q 135 475 109 448 Q 83 421 61 375 Q 57 367 59 364 Q 62 362 70 365 Q 113 385 127 343 Q 156 262 155 97 Q 155 28 152 14 Q 150 8 152 7 Q 154 4 160 6 Q 179 8 230 9 Q 283 11 342 10 Q 455 8 485 2 Q 493 0 493 8 Q 492 38 490 54 Q 489 62 480 61 Z" fill="black" />
  </g>
  <g class="defect" id="01">
    <path d="M 483 250 Q 461 267 468 267" fill="none" stroke="red" stroke-width="3" />
  </g>
</svg>