<svg xmlns="http://www.w3.org/2000/svg" width="512" height="512" viewBox="0 0 512 512">
  <g class="glyph">
    <path d="M 237 41 Q 242 39 244 42 Q 245 43 241 49 Q 227 76 211 96 Q 204 104 199 97 Q 183 80 166 55 Q 164 51 164 49 Q 165 48 169 48 Q 195 46 237 41 Z M 408 29 Q 426 40 449 57 Q 456 62 448 67 Q 415 87 382 100 Q 378 102 376 100 Q 374 99 376 94 Q 389 62 398 31 Q 400 25 408 29 Z M 65 133 Q 52 133 52 147 Q 51 157 51 177 Q 51 201 51 218 Q 51 232 65 233 Q 75 234 88 232 Q 98 231 99 217 Q 100 184 99 151 Q 99 132 85 133 Q 83 133 78 133 Q 69 132 65 133 Z M 139 83 Q 151 80 149 93 Q 144 188 149 266 Q 152 285 135 281 Q 111 278 77 279 Q 43 279 15 282 Q 0 286 3 268 Q 5 231 5 177 Q 5 123 2 93 Q 0 82 11 84 Q 73 90 139 83 Z M 441 320 Q 454 316 453 327 Q 451 353 449 365 Q 448 373 437 372 Q 421 371 389 371 Q 357 370 322 371 Q 385 400 423 412 Q 455 423 473 410 Q 478 407 481 409 Q 483 412 482 417 Q 467 459 444 489 Q 430 505 409 490 Q 360 454 300 387 Q 270 451 227 487 Q 199 512 177 490 Q 154 470 133 439 Q 129 433 131 430 Q 132 427 139 428 Q 164 432 176 429 Q 188 428 203 416 Q 223 401 243 372 Q 187 373 171 374 Q 158 376 157 367 Q 157 360 156 336 Q 155 329 155 326 Q 154 319 163 321 Q 174 327 266 327 Q 270 318 273 305 L 217 306 Q 208 308 208 299 Q 208 291 208 271 Q 206 264 219 266 Q 232 268 279 268 L 280 247 Q 227 247 188 250 Q 180 251 180 241 Q 179 224 179 211 Q 178 203 191 206 Q 204 208 250 209 Q 234 193 221 176 Q 219 173 219 171 Q 220 169 224 169 Q 251 168 291 162 Q 298 161 299 163 Q 300 164 298 170 Q 288 190 274 209 Q 279 209 291 209 Q 313 210 324 209 Q 333 181 338 154 Q 230 154 177 157 Q 163 158 163 147 Q 163 145 162 140 Q 160 116 159 104 Q 159 97 168 101 Q 180 112 251 112 V 96 Q 251 29 246 8 Q 245 5 246 4 Q 246 4 250 4 Q 265 8 299 7 Q 301 7 302 8 Q 302 9 301 11 Q 296 35 296 73 V 112 H 322 V 92 Q 322 26 316 4 Q 315 0 320 1 Q 342 3 369 3 Q 373 3 372 8 Q 382 26 367 69 V 111 Q 434 110 450 102 Q 461 97 461 106 Q 461 129 457 147 Q 456 158 443 157 Q 423 156 349 154 L 392 176 Q 396 178 396 180 Q 396 183 391 186 Q 380 194 354 208 Q 405 207 420 204 Q 428 201 427 208 Q 427 225 425 240 Q 414 252 413 250 Q 381 247 334 247 Q 334 252 333 261 Q 333 266 333 268 Q 380 267 397 264 Q 405 262 405 268 Q 405 287 402 297 Q 387 296 390 305 Q 365 304 328 304 L 323 327 Q 421 325 441 320 Z" fill="black" />
  </g>
  <g class="defect" id="01">
    <path d="M 425 240 Q 414 252 413 250" fill="none" stroke="red" stroke-width="3" />
  </g>
  <g class="defect" id="02">
    <path d="M 402 297 Q 387 296 390 305" fill="none" stroke="red" stroke-width="3" />
  </g>
  <g class="defect" id="03">
    <path d="M 372 8 Q 382 26 367 69" fill="none" stroke="red" stroke-width="3" />
  </g>
</svg>