<svg xmlns="http://www.w3.org/2000/svg" width="512" height="512" viewBox="0 0 512 512">
  <g class="glyph">
    <path d="M 403 163 Q 401 163 394 163 Q 382 163 376 163 V 199 Q 398 199 402 199 Q 414 199 415 193 Q 416 190 416 170 Q 396 163 403 163 Z M 295 163 V 200 H 333 V 163 Z M 214 194 Q 214 200 226 199 Q 228 199 235 199 Q 248 200 255 200 V 163 Q 247 163 233 163 Q 225 163 222 163 Q 213 163 214 168 Q 213 177 214 194 Z M 208 338 Q 208 341 208 348 Q 208 354 208 358 H 254 Q 267 359 266 345 Q 267 325 266 301 Q 266 291 259 292 Q 248 291 218 291 Q 208 292 209 300 Q 209 301 209 305 Q 208 308 208 310 Q 226 310 234 310 Q 245 310 252 309 Q 257 308 257 313 L 256 334 Q 257 339 251 338 Z M 345 419 Q 332 403 316 373 Q 312 367 319 366 Q 324 365 337 364 Q 371 359 386 357 Q 389 356 391 358 Q 392 359 389 363 Q 372 401 357 418 Q 349 426 345 419 Z M 61 148 Q 50 148 50 160 Q 49 193 49 218 Q 48 233 61 233 Q 76 233 85 232 Q 95 233 94 214 Q 94 177 93 165 Q 92 145 80 147 Q 66 147 61 148 Z M 487 276 Q 493 272 495 274 Q 498 275 498 280 Q 497 309 494 329 Q 493 336 481 335 Q 477 335 469 335 Q 456 335 450 335 Q 450 394 450 422 Q 450 453 451 469 Q 454 512 416 511 Q 357 506 330 466 Q 326 460 328 458 Q 328 456 335 457 Q 372 460 383 455 Q 395 450 395 430 Q 396 416 396 394 Q 396 383 396 369 Q 396 358 396 335 Q 374 335 339 336 Q 334 337 331 337 Q 321 338 321 332 Q 319 310 319 286 Q 319 281 321 281 Q 323 280 328 282 Q 334 289 394 289 Q 393 258 391 250 Q 390 246 391 245 Q 391 245 395 245 Q 430 250 450 250 Q 454 250 452 255 Q 450 271 450 287 Q 476 284 487 276 Z M 136 94 Q 148 91 145 106 Q 143 139 142 195 Q 142 253 144 275 Q 148 295 130 291 Q 103 287 68 288 Q 35 289 14 292 Q 4 294 2 291 Q 1 290 2 276 Q 3 240 3 192 Q 3 142 1 106 Q 0 94 11 95 Q 79 101 136 94 Z M 253 392 Q 291 422 324 437 Q 331 440 325 446 Q 305 467 287 480 Q 278 486 272 479 Q 265 466 261 454 Q 212 485 167 500 Q 155 502 156 490 Q 162 426 163 373 Q 165 321 161 265 Q 159 252 170 255 Q 229 260 299 255 Q 313 252 310 265 Q 308 284 307 320 Q 307 358 309 379 Q 311 393 298 390 Q 277 389 251 389 Q 227 389 208 389 V 432 Q 208 440 216 438 Q 225 436 252 425 Q 249 411 247 397 Q 246 392 248 391 Q 250 390 253 392 Z M 391 7 Q 399 0 407 7 Q 433 30 447 45 Q 451 50 450 52 Q 448 56 442 57 Q 423 60 394 61 Q 425 74 442 81 Q 450 87 443 92 Q 416 113 385 130 Q 439 128 457 126 Q 474 122 470 135 Q 467 155 466 183 Q 465 212 467 230 Q 470 243 455 240 Q 407 236 315 236 Q 220 236 172 239 Q 158 241 161 228 Q 164 210 163 182 Q 163 154 160 138 Q 176 139 169 128 Q 197 130 230 130 Q 206 120 184 104 Q 181 101 181 99 Q 181 97 184 96 Q 205 87 240 75 Q 247 72 247 79 Q 247 104 246 129 Q 246 130 245 130 Q 265 131 307 131 V 130 Q 290 113 272 86 Q 269 81 275 81 Q 311 79 338 74 Q 345 72 347 75 Q 349 76 345 82 Q 335 105 319 129 L 317 131 Q 337 131 370 130 Q 381 89 384 65 Q 384 63 385 62 Q 318 67 216 70 Q 193 74 169 44 Q 165 40 166 37 Q 167 35 171 35 Q 305 30 391 7 Z" fill="black" />
  </g>
  <g class="defect" id="01">
    <path d="M 160 138 Q 176 139 169 128" fill="none" stroke="red" stroke-width="3" />
  </g>
  <g class="defect" id="02">
    <path d="M 416 170 Q 396 163 403 163" fill="none" stroke="red" stroke-width="3" />
  </g>
</svg>