<svg xmlns="http://www.w3.org/2000/svg" width="512" height="512" viewBox="0 0 512 512">
  <g class="glyph">
    <path d="M 264 231 V 256 L 313 257 V 222 Q 305 222 289 222 Q 277 222 272 222 Q 264 222 264 231 Z M 263 296 Q 263 302 263 313 Q 263 325 263 331 L 312 332 Q 312 314 312 295 Z M 409 222 Q 403 222 389 222 Q 375 222 368 222 V 257 L 422 256 Q 422 250 421 240 Q 421 235 421 233 Q 420 223 409 222 Z M 422 296 368 295 V 332 L 422 331 Z M 128 104 V 132 Q 155 130 172 124 Q 179 121 181 123 Q 183 124 183 130 Q 183 155 180 175 Q 180 186 167 184 L 128 183 V 301 Q 134 300 147 298 Q 171 294 180 292 Q 191 290 190 299 Q 190 338 172 340 Q 93 365 28 393 Q 18 397 15 388 Q 6 353 2 325 Q 0 316 8 316 Q 18 316 73 309 V 184 Q 47 184 27 186 Q 14 188 14 178 Q 12 155 12 130 Q 12 123 20 126 Q 31 134 73 133 Q 74 45 67 18 Q 66 12 71 13 Q 100 18 130 17 Q 135 17 134 21 Q 128 57 128 104 Z M 372 19 Q 370 37 369 92 Q 393 92 425 91 Q 438 91 449 90 Q 421 80 390 59 Q 387 57 387 54 Q 387 53 390 51 Q 405 42 436 27 Q 448 22 454 19 Q 454 19 458 17 Q 479 2 462 23 Q 464 38 461 83 Q 461 84 460 86 Q 460 87 460 88 Q 485 84 503 70 Q 507 67 509 68 Q 512 68 512 73 Q 510 114 507 133 Q 505 141 494 141 Q 432 140 368 141 Q 368 147 368 159 Q 368 172 368 178 Q 432 177 471 175 Q 483 173 481 185 Q 479 236 481 332 Q 482 415 485 452 Q 489 483 458 482 Q 410 481 374 439 Q 371 434 371 432 Q 372 431 377 431 Q 404 431 411 426 Q 419 422 420 408 Q 421 393 421 371 Q 406 370 368 370 Q 368 423 370 456 Q 372 473 360 471 Q 357 471 351 471 Q 324 472 307 470 Q 299 469 302 459 Q 303 458 303 458 Q 308 441 311 370 L 262 371 Q 262 387 262 415 Q 262 459 262 467 Q 262 481 248 481 Q 211 476 188 469 Q 180 465 186 460 Q 205 454 205 406 Q 207 328 207 261 Q 207 201 204 184 Q 202 175 211 176 Q 235 178 313 179 V 141 Q 243 155 206 144 Q 207 146 195 136 Q 192 113 191 86 Q 191 82 193 81 Q 195 80 198 82 Q 211 94 255 93 Q 260 93 271 93 Q 298 93 313 93 V 85 Q 313 28 305 8 Q 303 3 305 2 Q 305 0 311 1 Q 340 7 365 8 Q 373 7 372 19 Z" fill="black" />
  </g>
  <g class="defect" id="01">
    <path d="M 458 17 Q 479 2 462 23" fill="none" stroke="red" stroke-width="3" />
  </g>
  <g class="defect" id="02">
    <path d="M 206 144 Q 207 146 195 136" fill="none" stroke="red" stroke-width="3" />
  </g>
  <g class="defect" id="03">
    <path d="M 313 141 Q 243 155 206 144" fill="none" stroke="red" stroke-width="3" />
  </g>
</svg>