<svg xmlns="http://www.w3.org/2000/svg" width="512" height="512" viewBox="0 0 512 512">
  <g class="glyph">
    <path d="M 130 139 V 278 Q 156 278 149 277 Q 155 277 155 270 Q 157 133 153 116 Q 152 114 153 112 Q 153 111 156 112 Q 171 114 201 114 Q 207 114 206 119 Q 203 153 202 214 Q 201 282 204 310 Q 205 324 203 328 Q 202 333 185 330 Q 109 322 24 330 Q 7 332 6 330 Q 3 326 6 312 Q 8 273 9 200 Q 8 143 2 122 Q 0 116 6 116 Q 26 118 53 119 Q 57 119 57 122 Q 57 122 56 146 Q 54 170 53 271 Q 53 278 60 278 H 80 V 180 Q 80 73 74 53 Q 73 49 74 48 Q 75 47 78 47 Q 101 51 130 51 Q 135 51 134 56 Q 130 89 130 139 Z M 223 213 Q 223 208 229 209 Q 251 214 310 215 V 145 Q 257 147 226 148 Q 215 149 214 142 Q 210 116 209 93 Q 208 85 217 88 Q 240 93 310 93 Q 309 37 303 7 Q 301 2 303 1 Q 304 0 309 1 Q 331 5 371 7 Q 376 7 375 13 Q 370 43 370 93 Q 446 90 467 85 Q 478 82 477 90 Q 476 117 472 139 Q 470 147 460 146 Q 418 145 370 145 V 215 Q 425 214 456 212 Q 467 212 462 224 Q 423 298 375 362 Q 404 382 423 392 Q 443 404 459 404 Q 459 424 502 393 Q 491 391 509 394 Q 512 397 510 403 Q 491 448 460 481 Q 432 509 405 482 Q 374 454 336 408 Q 300 448 261 479 Q 235 503 214 486 Q 186 467 164 439 Q 160 433 161 430 Q 163 427 169 428 Q 202 429 228 414 Q 258 395 296 358 Q 269 322 252 295 Q 244 283 250 277 Q 257 272 269 281 Q 304 310 326 326 Q 355 294 370 270 Q 373 266 371 265 Q 371 263 367 263 Q 357 263 329 264 Q 256 265 239 266 Q 227 267 227 260 Q 224 247 223 213 Z" fill="black" />
  </g>
  <g class="defect" id="01">
    <path d="M 459 404 Q 459 424 502 393" fill="none" stroke="red" stroke-width="3" />
  </g>
  <g class="defect" id="02">
    <path d="M 502 393 Q 491 391 509 394" fill="none" stroke="red" stroke-width="3" />
  </g>
  <g class="defect" id="03">
    <path d="M 130 278 Q 156 278 149 277" fill="none" stroke="red" stroke-width="3" />
  </g>
</svg>