<svg xmlns="http://www.w3.org/2000/svg" width="512" height="512" viewBox="0 0 512 512">
  <g class="glyph">
    <path d="M 200 350 Q 208 349 209 351 Q 211 354 207 361 Q 184 403 154 435 Q 147 444 139 437 Q 114 406 94 370 Q 91 365 92 363 Q 93 361 100 361 Q 156 358 200 350 Z M 435 259 Q 445 255 446 263 Q 446 294 442 324 Q 441 334 429 333 Q 412 332 351 331 Q 349 401 353 447 Q 361 512 307 507 Q 227 501 193 449 Q 202 441 190 438 Q 191 435 198 437 Q 253 442 267 434 Q 283 427 282 394 V 330 Q 138 331 66 335 Q 54 338 54 328 Q 50 301 49 274 Q 49 264 58 268 Q 85 278 232 278 H 281 Q 280 253 277 245 Q 276 240 277 239 Q 277 238 282 239 Q 300 242 339 244 Q 346 244 350 244 Q 357 244 356 251 Q 354 261 353 276 Q 414 273 435 259 Z M 388 63 Q 394 61 396 63 Q 398 63 397 70 Q 395 97 395 119 Q 395 127 385 125 Q 333 123 272 123 V 175 Q 428 175 471 147 Q 482 142 483 152 Q 479 194 471 224 Q 467 243 443 239 Q 405 235 319 232 Q 276 232 224 231 Q 172 231 123 232 Q 59 233 21 238 Q 6 241 5 230 Q 2 209 0 167 Q 0 161 3 159 Q 5 158 13 162 Q 51 175 206 175 V 123 Q 125 124 89 127 Q 78 128 79 119 Q 77 94 77 69 Q 77 65 78 64 Q 79 63 83 64 Q 91 68 119 70 Q 145 71 205 71 Q 203 31 196 7 Q 194 3 196 1 Q 197 0 202 1 Q 231 5 274 6 Q 274 6 275 6 Q 281 5 280 13 Q 274 36 273 71 Q 371 70 388 63 Z" fill="black" />
  </g>
  <g class="defect" id="01">
    <path d="M 13 162 Q 51 175 206 175" fill="none" stroke="red" stroke-width="3" />
  </g>
  <g class="defect" id="02">
    <path d="M 282 330 Q 138 331 66 335" fill="none" stroke="red" stroke-width="3" />
  </g>
  <g class="defect" id="03">
    <path d="M 193 449 Q 202 441 190 438" fill="none" stroke="red" stroke-width="3" />
  </g>
</svg>