<svg xmlns="http://www.w3.org/2000/svg" width="512" height="512" viewBox="0 0 512 512">
  <g class="glyph">
    <path d="M 225 70 V 92 Q 279 92 310 90 Q 318 89 318 82 Q 319 39 312 24 Q 310 21 312 19 Q 312 18 316 18 Q 349 21 377 21 Q 386 19 384 27 Q 381 41 381 77 Q 380 114 382 136 Q 386 155 361 151 Q 171 141 27 151 Q 3 155 7 138 Q 11 66 1 27 Q 0 23 1 21 Q 2 19 5 20 Q 24 23 66 22 Q 74 21 72 28 Q 68 53 68 82 Q 68 91 77 91 Q 119 92 163 92 Q 164 36 155 7 Q 154 0 159 1 Q 190 5 227 5 Q 231 5 230 10 Q 226 33 225 70 Z M 28 292 Q 55 299 95 303 Q 134 305 189 305 Q 243 305 280 302 Q 296 302 296 292 Q 298 275 296 259 Q 297 248 279 248 Q 258 248 208 248 Q 162 248 119 248 Q 42 249 18 250 Q 10 250 9 245 Q 6 217 5 190 Q 23 198 13 185 Q 47 190 169 191 Q 301 191 359 187 Q 375 185 372 199 Q 364 280 372 347 Q 373 360 361 361 Q 303 359 234 358 Q 143 358 89 360 Q 88 369 88 379 Q 88 389 88 407 Q 87 427 100 432 Q 111 439 149 439 Q 304 441 347 429 Q 397 418 429 372 Q 437 361 442 362 Q 447 362 447 374 Q 447 457 443 486 Q 442 507 414 508 Q 365 511 252 512 Q 142 512 84 509 Q 8 509 16 434 Q 19 390 20 351 Q 21 313 19 297 Q 19 292 21 291 Q 22 290 28 292 Z" fill="black" />
  </g>
  <g class="defect" id="01">
    <path d="M 5 190 Q 23 198 13 185" fill="none" stroke="red" stroke-width="3" />
  </g>
  <g class="defect" id="02">
    <path d="M 361 361 Q 303 359 234 358" fill="none" stroke="red" stroke-width="3" />
  </g>
</svg>