<svg xmlns="http://www.w3.org/2000/svg" width="512" height="512" viewBox="0 0 512 512">
  <g class="glyph">
    <path d="M 328 337 Q 329 320 315 320 Q 302 319 287 320 Q 275 320 275 337 Q 274 361 286 361 Q 302 363 317 361 Q 329 363 328 337 Z M 359 280 Q 368 278 370 280 Q 373 282 372 291 Q 369 342 371 391 Q 374 405 360 403 Q 293 400 240 403 Q 227 406 231 391 Q 234 369 234 341 Q 246 312 232 293 Q 231 285 233 284 Q 234 282 240 284 Q 271 286 307 284 Q 341 283 359 280 Z M 357 117 Q 418 137 475 139 Q 479 139 481 142 Q 481 144 478 148 Q 446 177 431 196 Q 424 207 410 193 Q 380 164 352 124 H 351 Q 339 148 324 170 Q 298 207 271 207 Q 235 203 209 148 Q 206 144 207 142 Q 209 140 212 142 Q 259 161 278 138 Q 291 123 299 110 Q 268 110 243 112 Q 232 114 231 105 Q 228 85 227 62 Q 226 56 236 57 Q 269 60 318 61 L 319 57 Q 326 26 315 6 Q 314 3 315 2 Q 316 0 321 1 Q 355 7 382 9 Q 389 9 387 15 Q 380 33 374 61 V 61 Q 433 60 463 56 Q 474 54 473 61 Q 472 84 469 102 Q 468 112 452 111 Q 418 109 358 109 L 354 117 Z M 503 197 Q 508 195 510 197 Q 512 198 512 204 Q 510 233 506 255 Q 504 267 488 264 L 454 262 Q 454 383 456 452 Q 460 505 414 501 Q 357 496 323 450 Q 320 446 321 444 Q 322 441 326 442 Q 400 451 397 409 Q 397 391 398 349 Q 398 304 397 261 Q 293 261 219 264 Q 207 265 207 256 Q 204 227 203 203 Q 203 198 205 197 Q 207 197 211 200 Q 225 209 256 209 Q 473 211 503 197 Z M 124 151 V 287 Q 133 287 140 286 Q 146 285 146 278 Q 148 137 144 120 Q 143 117 144 116 Q 144 115 147 116 Q 163 117 192 117 Q 198 117 197 123 Q 194 159 193 222 Q 192 291 195 320 Q 196 335 194 339 Q 193 344 176 341 Q 105 333 25 341 Q 8 343 6 341 Q 3 337 6 323 Q 9 293 9 221 Q 8 144 2 121 Q 0 115 6 116 Q 26 118 53 119 Q 57 119 57 121 Q 57 122 56 143 Q 54 164 54 279 Q 54 287 60 287 H 76 V 193 Q 76 76 71 64 Q 70 60 71 58 Q 71 57 75 58 Q 99 62 124 62 Q 129 61 128 67 Q 124 96 124 151 Z" fill="black" />
  </g>
  <g class="defect" id="01">
    <path d="M 234 341 Q 246 312 232 293" fill="none" stroke="red" stroke-width="3" />
  </g>
</svg>