<svg xmlns="http://www.w3.org/2000/svg" width="512" height="512" viewBox="0 0 512 512">
  <g class="glyph">
    <path d="M 120 102 V 239 Q 131 239 136 238 Q 143 237 143 230 Q 144 73 140 58 Q 139 55 140 54 Q 141 53 143 54 Q 159 55 188 55 Q 193 55 192 61 Q 189 97 188 165 Q 188 241 190 273 Q 191 288 189 293 Q 189 297 172 294 Q 102 286 25 294 Q 9 297 7 294 Q 5 289 7 276 Q 9 258 9 144 Q 8 85 2 60 Q 0 54 5 55 Q 25 58 52 58 Q 56 58 56 60 Q 56 61 55 68 Q 55 75 54 116 Q 54 136 54 163 Q 54 187 54 231 Q 54 239 59 239 H 75 V 146 Q 75 26 70 13 Q 68 9 70 7 Q 71 6 74 7 Q 97 11 120 11 Q 126 10 125 16 Q 121 50 120 102 Z M 278 186 Q 289 188 324 187 Q 328 187 327 193 Q 324 211 324 253 Q 325 262 330 262 H 361 Q 360 197 354 170 Q 353 166 354 166 Q 355 165 360 166 Q 386 170 412 170 Q 417 169 415 174 Q 412 198 412 259 V 262 L 445 260 Q 450 260 449 253 Q 449 207 445 190 Q 444 187 445 186 Q 445 185 448 185 Q 477 188 493 187 Q 500 186 498 192 Q 496 212 496 243 Q 496 276 498 297 Q 499 311 484 309 Q 460 307 412 307 V 412 Q 417 412 426 411 Q 445 411 452 410 Q 457 410 457 402 Q 456 355 452 327 Q 450 320 454 322 Q 457 322 465 323 Q 496 326 505 324 Q 511 323 510 330 Q 505 368 510 452 Q 512 472 495 468 Q 448 463 379 463 Q 314 462 277 467 Q 261 470 265 453 Q 271 379 265 328 Q 264 325 265 324 Q 266 323 269 323 Q 284 326 319 327 Q 324 326 323 331 Q 320 352 320 401 Q 320 411 327 411 Q 336 412 361 412 V 307 Q 319 308 292 311 Q 276 314 279 300 Q 280 286 280 267 Q 280 249 280 234 Q 278 204 276 191 Q 274 185 278 186 Z M 213 79 Q 227 84 212 72 Q 213 70 218 71 Q 242 77 266 77 Q 272 76 272 83 L 270 114 Q 395 116 415 114 Q 430 114 429 105 Q 429 71 429 64 Q 429 57 417 58 Q 376 56 307 56 Q 241 56 213 58 Q 205 58 204 52 Q 202 37 201 8 Q 201 2 209 3 Q 247 10 352 10 Q 450 9 482 2 Q 492 0 491 10 Q 489 26 489 79 Q 489 132 491 150 Q 493 161 481 161 Q 456 159 386 159 Q 355 159 324 159 Q 295 159 268 159 Q 256 378 216 441 Q 199 473 172 448 Q 145 421 124 373 Q 121 365 123 362 Q 125 360 132 362 Q 173 386 188 338 Q 209 289 218 152 Q 220 102 213 79 Z" fill="black" />
  </g>
  <g class="defect" id="01">
    <path d="M 213 79 Q 227 84 212 72" fill="none" stroke="red" stroke-width="3" />
  </g>
</svg>