<svg xmlns="http://www.w3.org/2000/svg" width="512" height="512" viewBox="0 0 512 512">
  <g class="glyph">
    <path d="M 311 126 209 128 Q 246 138 263 140 Q 270 140 268 147 Q 265 159 264 192 Q 264 193 264 194 Q 263 203 263 214 Q 278 214 311 214 Z M 121 22 Q 124 14 133 21 Q 134 22 136 23 Q 169 51 178 60 Q 187 67 176 73 Q 112 113 67 130 Q 48 139 18 120 Q 13 117 13 114 Q 13 111 18 109 Q 93 67 121 22 Z M 271 299 Q 264 290 270 283 Q 277 277 286 283 Q 306 299 344 325 Q 369 290 383 264 Q 385 258 378 258 Q 373 258 357 258 Q 285 258 260 259 Q 250 369 224 431 Q 224 431 226 431 Q 252 431 276 406 Q 293 391 319 359 Q 288 322 271 299 Z M 18 298 Q 7 279 1 249 Q 0 245 2 244 Q 3 243 6 244 Q 24 253 41 234 Q 113 159 124 117 Q 111 112 127 111 Q 129 111 133 113 Q 152 129 180 147 Q 185 151 180 156 Q 166 167 151 186 Q 148 189 141 197 Q 120 223 109 235 Q 125 243 139 257 Q 141 313 141 464 Q 143 478 129 477 Q 93 477 70 472 Q 62 470 68 463 Q 82 449 84 416 Q 90 336 90 279 Q 90 270 89 255 Q 59 286 40 301 Q 26 312 18 298 Z M 213 181 Q 213 143 205 128 H 199 Q 195 127 194 123 Q 193 115 191 96 Q 191 87 190 83 Q 187 76 196 76 Q 228 79 310 79 Q 309 32 305 6 Q 303 3 304 2 Q 305 0 309 1 Q 338 5 371 5 Q 374 5 375 6 Q 376 7 375 11 Q 368 37 367 79 Q 425 78 461 73 Q 472 72 471 81 Q 467 125 475 176 Q 450 172 413 176 Q 416 153 417 135 Q 419 126 406 126 H 367 V 214 Q 421 213 453 210 Q 462 210 461 220 Q 432 291 391 356 Q 417 372 438 382 Q 470 402 502 391 Q 512 390 509 400 Q 481 459 463 472 Q 445 487 423 466 Q 395 441 358 403 Q 346 420 320 449 Q 301 470 281 468 Q 262 467 226 441 Q 222 439 222 436 Q 220 440 216 448 Q 214 451 213 453 Q 196 479 177 459 Q 158 432 146 394 Q 143 384 145 382 Q 147 380 155 384 Q 174 401 188 357 Q 212 286 213 181 Z" fill="black" />
  </g>
  <g class="defect" id="01">
    <path d="M 109 235 Q 125 243 139 257" fill="none" stroke="red" stroke-width="3" />
  </g>
  <g class="defect" id="02">
    <path d="M 124 117 Q 111 112 127 111" fill="none" stroke="red" stroke-width="3" />
  </g>
</svg>