<svg xmlns="http://www.w3.org/2000/svg" width="512" height="512" viewBox="0 0 512 512">
  <g class="glyph">
    <path d="M 174 20 Q 172 15 173 13 Q 174 11 179 11 Q 200 12 237 13 Q 271 13 292 12 Q 297 12 299 14 Q 300 17 297 20 Q 270 60 232 94 Q 222 104 214 93 Q 189 57 174 20 Z M 102 257 Q 96 272 81 265 Q 43 251 11 227 Q 0 220 10 213 Q 58 178 93 121 Q 95 116 98 116 Q 101 117 102 121 Q 114 198 102 257 Z M 437 271 372 124 Q 370 119 373 117 Q 375 115 379 117 Q 426 144 501 181 Q 512 188 505 199 Q 486 234 454 273 Q 443 285 437 271 Z M 351 5 Q 352 1 354 1 Q 356 0 359 3 Q 388 24 421 40 Q 425 41 425 44 Q 425 45 421 49 Q 400 72 380 102 Q 311 211 223 304 Q 232 311 257 311 Q 337 315 393 239 Q 398 232 402 233 Q 420 235 406 244 Q 405 324 401 358 Q 399 380 375 382 Q 351 384 302 383 Q 253 383 208 380 Q 174 379 161 364 Q 124 398 92 419 Q 74 429 62 416 Q 35 375 23 335 Q 23 331 24 330 Q 27 328 30 330 Q 76 352 124 309 Q 135 300 147 289 Q 147 274 147 239 Q 147 199 147 179 Q 147 119 142 100 Q 140 93 146 95 Q 178 102 216 103 Q 221 104 219 111 Q 212 145 211 224 Q 275 153 318 85 Q 349 34 351 5 Z" fill="black" />
  </g>
  <g class="defect" id="01">
    <path d="M 402 233 Q 420 235 406 244" fill="none" stroke="red" stroke-width="3" />
  </g>
  <g class="defect" id="02">
    <path d="M 379 117 Q 426 144 501 181" fill="none" stroke="red" stroke-width="3" />
  </g>
</svg>