<svg xmlns="http://www.w3.org/2000/svg" width="512" height="512" viewBox="0 0 512 512">
  <g class="glyph">
    <path d="M 346 243 H 395 Q 398 182 398 153 H 344 Q 342 202 337 243 Z M 278 15 Q 276 10 277 9 Q 293 -8 282 8 Q 309 13 346 14 Q 353 13 351 21 Q 345 49 345 100 V 105 Q 408 105 442 102 Q 459 99 457 111 Q 453 143 450 240 Q 479 237 489 228 Q 495 224 498 225 Q 501 227 501 234 Q 500 257 495 287 Q 494 297 478 295 Q 448 293 345 293 Q 408 345 438 363 Q 469 381 503 376 Q 509 375 510 378 Q 494 396 509 386 Q 488 426 447 463 Q 432 477 416 459 Q 371 403 324 311 Q 302 402 247 463 Q 231 483 209 469 Q 180 450 156 418 Q 151 413 153 410 Q 154 407 162 408 Q 198 413 217 390 Q 254 349 269 293 Q 230 294 207 296 Q 197 298 197 289 Q 194 269 194 252 Q 192 266 182 269 L 136 286 Q 138 384 142 444 Q 146 486 97 486 Q 48 485 20 435 Q 17 430 18 428 Q 19 426 24 427 Q 56 431 67 426 Q 78 423 79 408 Q 82 385 82 306 Q 78 307 71 310 Q 58 315 33 326 Q 23 330 21 321 Q 18 313 14 299 Q 8 282 5 273 Q 0 263 12 261 Q 35 258 82 248 V 173 V 161 Q 54 161 27 163 Q 14 165 14 155 Q 12 132 12 110 Q 12 104 15 104 Q 16 103 23 106 Q 40 113 69 113 H 81 Q 80 33 73 7 Q 72 2 73 2 Q 74 0 79 1 Q 112 7 134 9 Q 145 9 141 20 Q 136 48 135 111 Q 162 109 177 103 Q 184 99 185 100 Q 187 102 187 108 Q 187 126 184 151 Q 184 163 168 161 Q 163 161 154 161 Q 142 161 135 161 V 208 V 234 Q 153 230 186 219 Q 193 217 195 218 Q 198 220 197 227 Q 196 232 196 236 Q 198 236 201 237 Q 214 242 280 243 Q 285 204 287 153 Q 259 154 219 155 Q 217 155 216 155 Q 205 157 205 149 Q 204 134 203 105 Q 202 98 209 100 Q 229 104 287 105 V 98 Q 287 40 278 15 Z" fill="black" />
  </g>
  <g class="defect" id="01">
    <path d="M 510 378 Q 494 396 509 386" fill="none" stroke="red" stroke-width="3" />
  </g>
  <g class="defect" id="02">
    <path d="M 277 9 Q 293 -8 282 8" fill="none" stroke="red" stroke-width="3" />
  </g>
</svg>