<svg xmlns="http://www.w3.org/2000/svg" width="512" height="512" viewBox="0 0 512 512">
  <g class="glyph">
    <path d="M 322 127 Q 328 126 329 128 Q 331 130 329 135 Q 298 153 291 192 Q 285 199 279 193 Q 260 168 245 139 Q 241 130 249 130 Q 286 131 322 127 Z M 286 394 Q 288 406 301 407 Q 338 408 381 407 Q 400 407 404 396 Q 409 387 407 352 Q 407 330 386 332 Q 346 330 300 332 Q 288 333 286 345 Q 283 371 286 394 Z M 299 10 Q 297 5 299 4 Q 301 2 305 3 Q 346 7 394 7 Q 401 6 403 9 Q 404 11 400 18 Q 383 42 353 67 Q 447 65 469 59 Q 480 55 479 64 L 473 108 Q 472 116 461 115 Q 418 113 340 113 Q 263 114 227 117 Q 217 118 217 111 Q 213 95 212 67 Q 211 59 220 62 Q 231 65 263 66 Q 313 49 331 67 Q 310 38 299 10 Z M 385 119 Q 407 126 440 140 Q 449 143 441 153 Q 414 179 382 201 Q 405 200 431 198 Q 481 197 501 176 Q 505 172 509 173 Q 512 174 512 180 Q 512 207 506 243 Q 504 254 489 253 Q 361 249 212 255 Q 196 256 195 246 Q 190 217 189 191 Q 189 185 191 184 Q 194 183 198 186 Q 216 200 273 201 Q 306 201 324 201 Q 345 202 364 201 Q 365 197 367 186 Q 376 138 378 125 Q 377 116 385 119 Z M 141 15 Q 136 43 135 109 Q 167 107 180 101 Q 186 98 189 99 Q 192 101 192 107 Q 191 129 189 149 Q 189 162 173 160 L 135 159 Q 135 178 135 188 Q 135 198 135 208 V 235 Q 161 228 180 221 Q 186 220 189 221 Q 210 223 190 229 Q 188 273 176 274 Q 171 276 161 279 Q 145 285 136 289 Q 138 371 140 444 Q 141 484 98 486 Q 48 485 21 436 Q 17 429 18 428 Q 19 427 26 428 Q 56 430 66 427 Q 76 423 77 408 Q 78 391 79 309 L 30 329 Q 20 333 17 323 Q 16 317 13 305 Q 7 282 5 271 Q 0 262 10 260 Q 37 258 80 248 Q 80 214 81 173 V 159 Q 48 160 34 161 Q 17 164 18 153 Q 18 146 16 131 Q 15 113 15 107 Q 14 97 28 104 Q 42 110 73 110 H 81 Q 80 30 73 7 Q 72 3 73 2 Q 74 0 78 1 Q 113 7 136 8 Q 142 7 141 15 Z M 460 279 Q 471 278 474 282 Q 477 285 474 295 Q 463 347 469 452 Q 472 465 451 463 Q 335 453 239 463 Q 220 468 223 453 Q 226 417 225 371 Q 224 326 219 296 Q 215 278 233 281 Q 286 284 354 283 Q 420 283 460 279 Z" fill="black" />
  </g>
  <g class="defect" id="01">
    <path d="M 263 66 Q 313 49 331 67" fill="none" stroke="red" stroke-width="3" />
  </g>
  <g class="defect" id="02">
    <path d="M 329 135 Q 298 153 291 192" fill="none" stroke="red" stroke-width="3" />
  </g>
  <g class="defect" id="03">
    <path d="M 189 221 Q 210 223 190 229" fill="none" stroke="red" stroke-width="3" />
  </g>
</svg>