<svg xmlns="http://www.w3.org/2000/svg" width="512" height="512" viewBox="0 0 512 512">
  <g class="glyph">
    <path d="M 254 19 Q 260 18 261 21 Q 263 23 261 30 Q 250 59 234 88 Q 229 98 221 92 Q 204 74 184 44 Q 179 35 187 34 Q 211 30 254 19 Z M 129 21 Q 124 51 123 119 Q 144 117 153 114 Q 160 111 162 112 Q 165 114 165 121 Q 165 133 163 158 Q 164 172 147 170 Q 143 170 135 170 Q 127 169 123 169 Q 141 172 123 196 Q 123 206 123 215 V 250 Q 149 244 165 240 Q 170 238 172 239 Q 174 242 173 248 Q 170 288 156 289 Q 151 291 138 295 Q 114 299 124 300 Q 125 385 129 458 Q 132 502 87 502 Q 34 501 12 449 Q 9 442 9 441 Q 10 440 17 441 Q 70 449 67 421 Q 69 389 70 320 L 25 336 Q 15 339 15 330 Q 7 301 5 281 Q 0 270 10 270 Q 40 266 70 260 V 178 V 169 Q 46 170 27 172 Q -2 189 13 162 Q 13 157 12 146 Q 11 125 11 117 Q 11 111 13 111 Q 15 109 22 112 Q 33 120 62 120 H 70 Q 69 34 63 7 Q 62 3 63 2 Q 63 0 68 1 Q 75 2 90 5 Q 99 7 122 10 Q 132 10 129 21 Z M 347 91 Q 353 88 353 97 Q 353 120 351 138 Q 351 145 346 144 Q 333 143 306 143 Q 279 143 251 143 Q 267 147 283 149 Q 288 151 287 157 Q 282 183 282 209 Q 281 247 278 279 Q 289 279 298 278 Q 303 277 302 269 Q 302 197 300 182 Q 299 177 302 178 Q 321 181 342 181 Q 346 180 346 186 Q 342 205 342 232 Q 342 271 344 307 Q 344 308 345 311 Q 346 325 346 328 Q 344 332 327 330 Q 303 326 274 326 Q 264 424 229 472 Q 212 499 192 476 Q 170 453 154 412 Q 152 407 153 404 Q 155 401 160 403 Q 195 419 208 388 Q 219 369 227 327 Q 204 328 192 330 Q 178 334 176 330 Q 174 326 176 310 Q 180 292 180 237 Q 180 213 179 203 Q 178 191 176 182 Q 174 178 175 178 Q 176 177 179 177 Q 196 179 218 178 Q 221 178 221 182 Q 221 184 220 186 Q 218 204 218 271 Q 218 279 224 279 Q 225 279 228 279 Q 232 279 234 279 Q 238 245 238 210 Q 238 162 234 144 Q 189 145 178 146 Q 169 148 170 139 L 168 98 Q 168 92 173 94 Q 181 96 209 97 Q 239 98 276 97 Q 283 48 283 17 Q 282 9 289 11 Q 309 17 343 31 Q 352 35 345 43 Q 319 74 295 97 Q 339 95 347 91 Z M 498 46 Q 510 43 507 55 Q 506 70 505 99 Q 505 113 505 133 Q 505 149 505 185 Q 505 360 508 456 Q 512 494 479 491 Q 432 489 413 450 Q 409 442 410 440 Q 411 437 416 438 Q 453 445 454 421 Q 456 373 456 247 Q 457 148 456 116 Q 457 100 444 100 Q 429 99 416 101 Q 410 101 410 114 V 168 Q 429 168 444 165 Q 448 164 448 169 L 446 202 Q 446 208 441 208 Q 426 206 409 206 Q 409 227 409 238 Q 409 250 409 260 Q 427 259 442 256 Q 448 255 447 260 Q 447 273 446 290 Q 446 293 446 294 Q 446 301 440 301 Q 431 301 410 300 Q 426 301 408 300 Q 408 368 404 413 Q 400 493 358 492 Q 319 489 295 432 Q 293 422 303 424 Q 343 448 350 413 Q 361 368 362 151 Q 362 92 357 52 Q 356 44 363 46 Q 428 54 498 46 Z" fill="black" />
  </g>
  <g class="defect" id="01">
    <path d="M 27 172 Q -2 189 13 162" fill="none" stroke="red" stroke-width="3" />
  </g>
  <g class="defect" id="02">
    <path d="M 123 169 Q 141 172 123 196" fill="none" stroke="red" stroke-width="3" />
  </g>
  <g class="defect" id="03">
    <path d="M 138 295 Q 114 299 124 300" fill="none" stroke="red" stroke-width="3" />
  </g>
</svg>