<svg xmlns="http://www.w3.org/2000/svg" width="512" height="512" viewBox="0 0 512 512">
  <g class="glyph">
    <path d="M 274 184 Q 279 183 280 185 Q 281 186 279 192 Q 274 223 248 244 Q 241 252 234 244 Q 219 226 205 200 Q 203 196 204 195 Q 204 193 208 192 Q 233 191 274 184 Z M 380 168 Q 414 185 428 193 Q 437 198 429 204 Q 405 224 366 245 Q 360 248 357 246 Q 356 245 358 239 Q 366 215 372 171 Q 373 165 380 168 Z M 261 322 Q 265 317 267 319 Q 270 320 270 326 Q 265 377 247 419 Q 240 435 225 425 Q 201 407 183 390 Q 174 382 184 378 Q 226 358 261 322 Z M 350 164 Q 345 195 344 257 Q 405 255 419 252 Q 427 249 427 256 Q 427 283 425 298 Q 425 311 413 308 Q 421 308 388 307 Q 380 307 370 307 Q 361 307 343 307 V 338 Q 344 405 347 452 Q 350 468 337 466 Q 291 465 268 460 Q 261 459 261 456 Q 260 454 266 450 Q 283 442 285 395 Q 287 354 287 308 Q 232 310 210 311 Q 201 312 201 305 Q 201 302 200 290 Q 197 266 197 260 Q 196 253 205 255 Q 223 258 288 258 V 227 Q 289 174 280 155 Q 279 151 280 150 Q 281 148 285 150 Q 313 155 343 155 Q 352 154 350 164 Z M 152 24 Q 147 60 146 119 Q 172 117 193 109 Q 200 106 203 107 Q 205 109 205 115 Q 204 140 200 160 Q 200 173 181 172 L 146 171 Q 146 190 146 201 Q 146 214 147 223 V 240 L 185 228 Q 196 225 195 236 Q 193 280 180 280 L 147 292 Q 147 296 147 305 Q 150 405 152 461 Q 155 507 108 506 Q 51 506 25 453 Q 22 446 23 445 Q 24 443 31 444 Q 65 447 74 443 Q 85 440 86 425 Q 89 389 89 315 Q 84 317 74 322 Q 46 333 32 339 Q 22 345 19 334 Q 17 323 10 302 Q 7 290 5 283 Q 0 272 11 271 Q 41 267 89 255 Q 89 225 91 185 V 171 Q 63 172 37 174 Q 20 177 21 165 Q 18 142 18 117 Q 18 109 31 113 Q 50 121 87 121 H 91 Q 89 35 82 11 Q 81 6 82 5 Q 83 3 88 5 Q 94 6 104 8 Q 132 12 145 13 Q 156 13 152 24 Z M 359 326 Q 408 350 442 357 H 442 Q 445 227 442 154 Q 442 141 430 141 Q 395 140 368 140 Q 341 140 317 140 Q 270 141 230 144 Q 218 144 215 140 Q 212 136 218 127 Q 254 55 264 10 Q 266 0 275 5 Q 298 18 336 28 Q 346 31 340 39 Q 320 67 299 92 Q 309 92 328 92 Q 462 92 498 85 Q 512 81 511 95 Q 503 155 506 416 Q 506 429 507 453 Q 508 467 508 474 Q 493 510 470 507 Q 406 502 372 457 Q 367 450 369 448 Q 370 445 379 445 Q 415 446 427 437 Q 439 428 440 401 Q 442 387 442 368 Q 426 386 406 402 Q 395 412 388 401 Q 367 370 353 331 Q 352 326 353 325 Q 354 323 359 326 Z" fill="black" />
  </g>
  <g class="defect" id="01">
    <path d="M 279 192 Q 274 223 248 244" fill="none" stroke="red" stroke-width="3" />
  </g>
  <g class="defect" id="02">
    <path d="M 413 308 Q 421 308 388 307" fill="none" stroke="red" stroke-width="3" />
  </g>
  <g class="defect" id="03">
    <path d="M 508 474 Q 493 510 470 507" fill="none" stroke="red" stroke-width="3" />
  </g>
</svg>