<svg xmlns="http://www.w3.org/2000/svg" width="512" height="512" viewBox="0 0 512 512">
  <g class="glyph">
    <path d="M 159 365 Q 157 359 159 358 Q 161 356 166 359 Q 208 375 248 380 Q 253 380 254 384 Q 254 387 250 391 Q 227 411 206 437 Q 197 449 188 436 Q 171 409 159 365 Z M 108 346 Q 112 342 115 342 Q 118 343 118 350 Q 114 406 90 454 Q 82 471 66 460 Q 38 444 8 412 Q 3 407 4 404 Q 5 401 11 399 Q 64 385 108 346 Z M 175 125 Q 143 124 110 125 V 159 Q 148 159 160 159 Q 165 158 164 163 Q 164 166 164 174 Q 164 180 164 184 Q 165 193 155 192 L 110 190 V 222 Q 147 222 159 222 Q 164 221 164 226 Q 164 230 163 238 Q 163 244 163 248 Q 164 257 154 256 L 110 254 V 292 H 131 Q 150 292 158 292 Q 169 292 176 291 V 152 Q 176 135 175 125 Z M 462 480 Q 463 499 449 496 Q 398 490 365 468 Q 360 466 360 463 Q 360 460 365 459 Q 383 455 388 447 Q 393 441 395 416 Q 402 357 402 275 Q 402 243 397 229 H 351 Q 340 337 328 396 Q 320 437 301 450 Q 283 464 231 466 Q 225 467 224 464 Q 223 462 227 458 Q 301 360 303 106 Q 294 101 276 86 Q 269 81 270 78 Q 271 75 278 75 Q 359 55 412 12 Q 418 4 430 12 Q 454 28 479 49 Q 485 54 485 58 Q 484 62 477 64 Q 395 94 331 108 Q 321 110 314 109 Q 332 118 356 125 Q 364 125 362 134 Q 359 149 356 179 Q 478 179 500 166 Q 512 161 511 172 Q 511 201 508 225 Q 507 234 496 232 Q 463 230 433 230 Q 447 238 449 250 Q 454 304 461 454 Q 462 471 462 480 Z M 258 276 Q 264 272 267 274 Q 269 275 269 281 Q 268 306 266 328 Q 265 338 253 337 Q 196 336 129 336 Q 65 336 17 338 Q 4 339 3 328 Q 0 302 0 283 Q 0 274 8 278 Q 26 288 61 291 V 157 Q 61 153 61 143 Q 60 132 60 126 Q 43 126 31 127 Q 20 129 20 122 Q 18 109 18 89 Q 17 84 17 81 Q 17 75 24 77 Q 35 78 58 80 Q 55 34 52 14 Q 52 9 53 8 Q 54 6 58 7 Q 83 12 111 12 Q 117 11 115 18 Q 112 37 110 82 Q 118 82 132 82 Q 160 82 174 82 Q 173 30 170 7 Q 169 2 170 1 Q 171 0 175 1 Q 198 6 230 6 Q 234 5 232 12 Q 216 45 227 81 L 258 77 Q 268 75 267 85 Q 267 102 264 122 Q 263 129 253 127 Q 239 126 226 126 V 286 Q 244 282 258 276 Z" fill="black" />
  </g>
  <g class="defect" id="01">
    <path d="M 232 12 Q 216 45 227 81" fill="none" stroke="red" stroke-width="3" />
  </g>
</svg>