<svg xmlns="http://www.w3.org/2000/svg" width="512" height="512" viewBox="0 0 512 512">
  <g class="glyph">
    <path d="M 424 289 Q 382 225 358 152 Q 357 146 360 144 Q 362 143 367 146 Q 443 206 502 226 Q 512 228 505 238 Q 484 264 447 292 Q 449 313 424 289 Z M 366 19 Q 358 51 356 147 Q 356 247 360 362 Q 361 419 363 455 Q 365 471 355 470 Q 301 470 267 460 Q 261 457 261 455 Q 261 453 267 448 Q 289 433 291 399 Q 295 338 296 250 Q 297 154 294 81 Q 291 31 286 8 Q 285 4 286 3 Q 287 2 291 2 Q 345 8 360 9 Q 369 8 366 19 Z M 178 214 Q 230 241 262 247 Q 266 247 266 249 Q 267 252 264 257 Q 246 278 228 296 Q 219 306 210 292 Q 190 264 175 228 Q 175 397 177 451 Q 179 470 164 467 Q 130 467 96 462 Q 92 461 92 459 Q 92 456 97 453 Q 109 447 112 418 Q 114 390 120 227 Q 85 301 56 339 Q 41 357 30 341 Q 14 320 2 285 Q 0 280 2 277 Q 4 276 9 278 Q 26 288 40 271 Q 71 234 114 164 Q 80 165 50 167 Q 40 168 40 161 Q 37 146 37 116 Q 37 109 43 111 Q 61 114 123 114 Q 124 37 115 8 Q 114 3 115 2 Q 116 0 121 1 Q 143 4 180 7 Q 184 7 183 14 Q 178 32 175 114 Q 212 114 240 111 Q 249 108 248 118 Q 248 140 246 160 Q 245 167 236 166 Q 203 164 175 164 Q 174 175 175 197 Q 175 206 175 212 V 212 Z" fill="black" />
  </g>
  <g class="defect" id="01">
    <path d="M 447 292 Q 449 313 424 289" fill="none" stroke="red" stroke-width="3" />
  </g>
</svg>