<svg xmlns="http://www.w3.org/2000/svg" width="512" height="512" viewBox="0 0 512 512">
  <g class="glyph">
    <path d="M 407 469 Q 407 487 395 483 Q 342 477 326 460 Q 319 454 326 450 Q 347 448 349 413 Q 355 357 355 177 Q 355 145 351 131 Q 349 123 356 124 Q 408 134 403 152 L 405 301 H 406 Q 455 301 452 275 Q 453 247 422 209 Q 414 200 419 189 Q 430 158 442 112 Q 383 112 356 114 Q 347 115 347 105 Q 345 88 344 58 Q 344 54 351 55 Q 423 72 495 56 Q 507 54 506 65 Q 487 131 466 187 Q 462 196 467 202 Q 510 249 510 313 Q 512 353 487 351 Q 450 349 405 320 Q 406 438 407 469 Z M 237 7 Q 235 2 236 1 Q 237 0 242 1 Q 269 7 295 7 Q 301 7 299 15 Q 294 38 294 84 Q 325 83 334 80 Q 340 77 339 85 Q 339 105 338 122 Q 338 134 328 132 Q 314 130 294 130 L 293 172 Q 319 170 327 168 Q 333 166 332 173 Q 332 197 331 208 Q 330 221 323 219 Q 314 218 291 217 Q 290 241 288 263 Q 322 262 337 258 Q 342 255 344 256 Q 345 257 345 263 Q 344 288 342 304 Q 341 313 332 312 Q 319 310 285 309 L 283 331 Q 270 451 218 448 Q 181 446 159 380 Q 158 375 159 373 Q 161 372 165 374 Q 198 392 210 383 Q 224 375 231 330 Q 232 321 233 310 L 197 312 Q 187 314 187 304 Q 171 294 184 268 Q 184 263 184 261 V 260 L 175 268 Q 166 275 160 264 Q 151 246 141 217 Q 141 345 144 450 Q 146 470 130 467 Q 88 462 63 449 Q 59 447 59 444 Q 59 441 64 440 Q 85 437 86 413 Q 88 390 92 260 Q 92 248 92 242 Q 72 298 51 338 Q 40 358 27 342 Q 11 318 2 287 Q 0 281 2 279 Q 18 289 9 279 Q 22 287 32 270 Q 60 228 89 161 Q 66 162 44 164 Q 34 165 34 157 Q 32 135 31 114 Q 30 107 38 109 Q 59 113 95 113 Q 95 36 89 12 Q 88 7 88 6 Q 89 4 93 5 Q 114 8 146 12 Q 149 12 148 18 Q 144 37 142 112 Q 161 111 178 108 Q 188 105 187 115 Q 187 132 184 155 Q 183 163 174 162 L 141 160 Q 140 169 141 185 Q 141 194 141 198 H 141 Q 185 222 207 228 Q 211 229 211 231 Q 211 233 208 237 Q 200 246 189 256 Q 190 256 191 257 Q 199 264 238 263 Q 240 241 241 217 Q 232 217 216 218 Q 209 218 206 218 Q 200 220 199 209 Q 198 198 198 173 Q 197 166 207 168 Q 220 170 243 172 Q 244 150 244 130 Q 215 131 203 132 Q 194 133 194 125 Q 192 104 192 87 Q 191 80 199 82 Q 211 84 244 85 Q 244 30 237 7 Z" fill="black" />
  </g>
  <g class="defect" id="01">
    <path d="M 2 279 Q 18 289 9 279" fill="none" stroke="red" stroke-width="3" />
  </g>
  <g class="defect" id="02">
    <path d="M 187 304 Q 171 294 184 268" fill="none" stroke="red" stroke-width="3" />
  </g>
  <g class="defect" id="03">
    <path d="M 395 483 Q 342 477 326 460" fill="none" stroke="red" stroke-width="3" />
  </g>
</svg>