<svg xmlns="http://www.w3.org/2000/svg" width="512" height="512" viewBox="0 0 512 512">
  <g class="glyph">
    <path d="M 386 386 Q 386 375 378 375 Q 363 373 345 375 Q 327 376 339 386 Q 338 411 345 409 Q 356 410 378 409 Q 387 411 386 386 Z M 368 288 Q 385 300 367 282 Q 369 281 374 283 Q 411 296 448 300 H 449 Q 448 294 448 288 Q 448 278 439 278 Q 421 277 393 277 Q 368 277 345 277 Q 346 278 346 281 Q 345 318 332 346 Q 374 347 407 345 Q 405 344 402 342 Q 383 323 368 288 Z M 337 280 340 277 Q 314 277 282 279 Q 275 279 275 286 Q 275 393 277 482 Q 278 494 261 493 Q 231 493 203 489 Q 200 488 200 486 Q 199 485 201 482 Q 221 472 221 426 Q 224 325 220 271 Q 204 286 196 292 Q 186 299 180 288 Q 169 272 157 238 Q 144 398 161 472 Q 162 492 145 490 Q 100 484 72 470 Q 67 468 68 465 Q 69 462 74 461 Q 96 458 98 434 Q 100 410 104 275 Q 104 262 104 256 Q 78 315 56 349 Q 42 369 30 353 Q 13 332 2 297 Q 0 291 2 289 Q 4 287 9 289 Q 24 298 36 281 Q 67 238 101 167 Q 76 168 47 170 Q 37 172 37 163 Q 35 139 33 118 Q 33 111 40 113 Q 55 116 107 117 Q 108 37 100 8 Q 99 3 100 2 Q 101 0 105 1 Q 129 4 162 8 Q 166 8 164 14 Q 160 32 158 116 Q 188 115 200 112 Q 208 109 208 120 Q 208 136 204 162 Q 204 170 194 169 L 157 167 Q 156 179 157 202 Q 157 213 157 218 Q 184 236 218 247 Q 218 247 218 245 Q 217 244 217 243 Q 216 236 225 236 Q 275 240 370 239 Q 335 234 315 205 Q 312 202 314 200 Q 315 198 319 198 Q 359 203 356 186 Q 357 167 356 183 Q 357 167 357 150 Q 346 150 334 151 Q 307 198 269 231 Q 258 242 247 232 Q 226 214 214 191 Q 212 188 213 186 Q 214 185 219 185 Q 235 189 256 179 Q 272 173 309 151 Q 249 153 234 155 Q 221 157 220 147 Q 218 135 217 113 Q 217 111 217 111 Q 217 104 224 107 Q 242 114 347 114 Q 318 99 292 80 Q 288 77 289 76 Q 289 73 294 74 Q 322 76 367 81 Q 368 79 370 78 Q 388 65 391 62 Q 342 62 316 62 Q 288 63 270 64 Q 258 66 258 56 Q 256 44 255 27 Q 255 24 255 21 Q 255 16 261 18 Q 287 24 357 25 Q 429 25 463 19 Q 471 18 474 22 Q 476 27 471 33 Q 454 59 405 96 Q 405 99 403 106 Q 402 111 402 113 Q 475 111 498 107 Q 505 105 507 107 Q 510 109 509 117 Q 504 145 508 192 Q 481 190 452 192 Q 456 174 456 149 Q 429 149 408 149 Q 408 178 410 211 Q 412 237 394 238 Q 460 237 496 234 Q 506 231 505 242 Q 504 275 504 303 Q 504 332 504 358 Q 505 410 509 460 Q 512 493 479 494 Q 428 493 395 455 Q 391 450 392 448 Q 392 445 398 446 Q 431 447 440 443 Q 449 440 449 422 Q 451 363 450 310 Q 434 329 419 342 L 417 344 Q 417 344 418 344 Q 418 344 419 344 Q 423 343 425 344 Q 426 346 425 351 Q 424 371 423 400 Q 423 424 424 435 Q 425 443 416 442 Q 363 440 306 442 Q 302 443 300 441 Q 299 440 300 435 Q 303 424 303 394 Q 302 365 300 352 Q 298 346 302 345 Q 301 344 300 343 Q 285 331 278 325 Q 272 318 279 316 Q 317 301 337 280 Z" fill="black" />
  </g>
  <g class="defect" id="01">
    <path d="M 157 238 Q 144 398 161 472" fill="none" stroke="red" stroke-width="3" />
  </g>
  <g class="defect" id="02">
    <path d="M 368 288 Q 385 300 367 282" fill="none" stroke="red" stroke-width="3" />
  </g>
  <g class="defect" id="03">
    <path d="M 345 375 Q 327 376 339 386" fill="none" stroke="red" stroke-width="3" />
  </g>
</svg>