<svg xmlns="http://www.w3.org/2000/svg" width="512" height="512" viewBox="0 0 512 512">
  <g class="glyph">
    <path d="M 332 104 Q 337 103 339 105 Q 341 107 337 112 Q 327 134 312 158 Q 355 158 376 157 Q 383 119 385 98 V 96 Q 315 96 235 99 Q 223 100 223 91 Q 223 88 221 79 Q 220 60 219 53 Q 219 50 220 49 Q 222 48 227 50 Q 236 52 266 53 Q 297 54 336 54 Q 327 41 311 9 Q 308 3 314 3 Q 360 4 390 1 Q 395 0 396 3 Q 397 5 394 8 Q 392 12 386 21 Q 370 45 361 54 Q 453 52 471 47 Q 477 45 479 46 Q 481 47 480 53 Q 480 56 479 65 Q 478 84 477 91 Q 476 99 469 98 Q 429 96 400 96 Q 427 107 441 113 Q 449 115 443 122 Q 425 137 396 157 Q 448 155 479 151 Q 491 148 490 158 Q 489 183 490 198 Q 490 215 492 237 Q 465 236 442 238 Q 445 225 445 208 Q 446 198 434 199 Q 393 199 345 199 Q 300 199 275 200 Q 260 199 262 214 Q 262 227 264 240 Q 234 239 216 241 Q 220 192 216 163 Q 214 156 221 155 Q 252 158 294 158 Q 277 140 265 121 Q 261 113 268 113 Q 295 111 332 104 Z M 501 236 Q 511 231 512 240 Q 512 243 512 246 Q 511 280 509 290 Q 508 300 497 299 Q 472 298 428 297 Q 384 296 341 297 Q 339 303 334 318 Q 332 325 331 328 Q 424 328 445 323 Q 453 322 453 329 Q 453 391 449 446 Q 448 473 420 472 Q 365 471 337 432 Q 333 427 334 424 Q 335 422 341 423 Q 417 447 399 409 Q 402 388 402 374 Q 402 368 394 368 Q 344 367 316 368 Q 273 484 240 475 Q 214 476 187 425 Q 182 417 184 415 Q 186 412 195 415 Q 227 427 249 387 Q 254 351 283 316 Q 286 306 287 297 Q 249 298 219 300 Q 209 301 208 294 Q 207 282 206 266 Q 194 277 181 286 Q 172 293 167 282 Q 158 267 148 236 Q 148 371 151 456 Q 153 476 137 473 Q 93 467 67 455 Q 63 452 63 450 Q 64 447 69 446 Q 90 443 91 419 Q 93 397 97 266 Q 98 247 98 238 Q 75 294 51 335 Q 38 355 27 339 Q 12 317 2 284 Q 0 278 2 276 Q 4 275 9 277 Q 24 285 34 269 Q 62 223 91 163 Q 57 165 42 166 Q 32 167 32 159 Q 30 136 28 115 Q 28 108 36 110 Q 55 113 100 114 Q 101 38 94 9 Q 93 4 93 3 Q 94 1 98 2 Q 121 5 153 8 Q 156 9 154 14 Q 151 34 149 113 Q 181 112 198 109 Q 208 106 207 116 Q 207 133 204 158 Q 203 166 192 165 Q 189 165 182 164 Q 161 163 148 163 Q 147 175 148 199 Q 148 210 148 216 H 148 Q 194 235 205 246 Q 206 238 215 244 Q 231 254 332 254 Q 321 241 311 222 Q 308 217 308 216 Q 310 214 314 214 Q 341 212 375 208 Q 382 207 383 209 Q 384 211 381 217 Q 372 233 353 254 Q 476 253 501 236 Z" fill="black" />
  </g>
  <g class="defect" id="01">
    <path d="M 148 216 Q 194 235 205 246" fill="none" stroke="red" stroke-width="3" />
  </g>
  <g class="defect" id="02">
    <path d="M 249 387 Q 254 351 283 316" fill="none" stroke="red" stroke-width="3" />
  </g>
  <g class="defect" id="03">
    <path d="M 341 423 Q 417 447 399 409" fill="none" stroke="red" stroke-width="3" />
  </g>
</svg>