<svg xmlns="http://www.w3.org/2000/svg" width="512" height="512" viewBox="0 0 512 512">
  <g class="glyph">
    <path d="M 424 145 367 144 Q 404 203 441 234 Q 441 190 438 155 Q 436 147 424 145 Z M 237 279 Q 269 204 272 166 Q 272 161 275 160 Q 277 160 282 162 Q 287 166 301 174 Q 325 187 334 193 Q 344 199 335 208 Q 280 267 245 289 Q 237 293 235 290 Q 233 287 237 279 Z M 36 160 Q 77 172 127 180 Q 132 181 133 184 Q 134 188 129 192 Q 97 229 46 263 Q 38 268 35 259 Q 28 221 27 167 Q 27 158 36 160 Z M 53 4 Q 111 35 143 60 Q 154 68 140 76 Q 99 96 39 111 Q 29 113 29 102 Q 31 81 38 27 Q 40 13 40 7 Q 42 0 53 4 Z M 9 375 Q 28 375 44 359 Q 114 312 148 247 Q 152 241 156 244 Q 159 246 158 253 Q 128 370 90 448 Q 81 464 69 455 Q 39 432 5 386 Q 0 377 9 375 Z M 230 156 Q 227 212 230 313 Q 230 324 242 326 Q 300 329 340 329 Q 382 330 424 327 Q 435 326 438 312 Q 441 281 441 251 Q 424 260 399 278 Q 374 295 367 260 Q 354 211 347 143 Q 286 142 242 144 Q 229 144 230 156 Z M 511 378 Q 512 393 492 391 Q 425 383 338 383 Q 249 382 173 389 Q 175 380 161 380 Q 170 319 171 237 Q 171 154 165 94 Q 163 87 165 85 Q 167 84 175 85 Q 257 91 342 91 Q 425 90 490 83 Q 509 79 505 94 Q 500 160 502 237 Q 503 313 511 378 Z" fill="black" />
  </g>
  <g class="defect" id="01">
    <path d="M 173 389 Q 175 380 161 380" fill="none" stroke="red" stroke-width="3" />
  </g>
  <g class="defect" id="02">
    <path d="M 44 359 Q 114 312 148 247" fill="none" stroke="red" stroke-width="3" />
  </g>
</svg>