<svg xmlns="http://www.w3.org/2000/svg" width="512" height="512" viewBox="0 0 512 512">
  <g class="glyph">
    <path d="M 35 179 Q 76 190 126 197 Q 130 198 132 201 Q 132 205 128 209 Q 95 246 45 277 Q 37 282 35 273 Q 27 237 26 185 Q 27 177 35 179 Z M 323 8 Q 351 27 382 56 Q 392 66 379 72 Q 340 92 269 107 Q 259 110 258 107 Q 257 104 263 97 Q 295 67 309 11 Q 312 0 323 8 Z M 304 214 Q 309 213 311 215 Q 313 217 311 223 Q 292 276 265 312 Q 257 321 250 314 Q 209 293 196 241 Q 191 230 201 229 Q 243 226 304 214 Z M 52 31 Q 111 61 141 84 Q 151 91 139 99 Q 98 118 39 133 Q 29 134 29 124 Q 30 105 37 56 Q 39 39 40 33 Q 42 27 52 31 Z M 9 383 Q 28 383 44 368 Q 95 322 146 262 Q 150 257 154 259 Q 157 261 156 268 Q 126 382 89 453 Q 81 468 68 460 Q 38 438 5 394 Q 0 385 9 383 Z M 471 116 Q 469 143 461 172 Q 458 181 449 180 Q 402 178 319 178 Q 238 178 189 181 Q 178 184 177 170 Q 174 157 171 128 Q 170 124 170 122 Q 169 112 177 113 Q 218 121 322 120 Q 426 119 463 111 Q 470 108 471 116 Z M 366 195 Q 399 206 434 221 Q 441 226 437 234 Q 403 288 343 357 Q 367 357 415 355 Q 427 354 433 354 Q 483 353 499 327 Q 505 321 508 322 Q 512 324 511 332 Q 510 346 509 377 Q 507 399 507 408 Q 504 421 492 422 Q 307 416 170 421 Q 153 423 152 409 Q 147 384 145 348 Q 145 343 147 342 Q 149 340 155 343 Q 169 354 230 356 Q 259 359 321 357 Q 348 257 354 203 Q 354 196 356 195 Q 359 193 366 195 Z" fill="black" />
  </g>
  <g class="defect" id="01">
    <path d="M 250 314 Q 209 293 196 241" fill="none" stroke="red" stroke-width="3" />
  </g>
  <g class="defect" id="02">
    <path d="M 263 97 Q 295 67 309 11" fill="none" stroke="red" stroke-width="3" />
  </g>
</svg>