<svg xmlns="http://www.w3.org/2000/svg" width="512" height="512" viewBox="0 0 512 512">
  <g class="glyph">
    <path d="M 74 37 Q 96 59 146 101 Q 150 105 149 108 Q 148 111 142 113 Q 110 118 43 117 Q 34 116 36 110 Q 51 61 61 38 Q 64 32 74 37 Z M 29 166 Q 60 168 123 164 Q 129 164 130 167 Q 132 170 128 175 Q 87 223 50 248 Q 41 252 38 244 Q 28 212 23 172 Q 21 165 29 166 Z M 265 200 V 281 Q 314 281 344 280 V 199 H 265 Z M 276 346 Q 280 341 284 342 Q 286 344 286 350 Q 285 415 259 470 Q 250 494 230 481 Q 206 465 169 430 Q 159 419 170 415 Q 231 396 276 346 Z M 352 356 Q 406 366 483 391 Q 489 393 490 396 Q 491 399 486 404 Q 450 437 427 469 Q 415 484 400 469 Q 363 422 345 362 Q 343 356 345 355 Q 347 353 352 356 Z M 9 360 Q 43 336 143 231 Q 146 228 150 229 Q 138 231 152 236 Q 121 361 94 422 Q 88 435 77 428 Q 42 406 8 374 Q 0 366 9 360 Z M 400 10 Q 422 29 446 51 Q 452 58 451 62 Q 450 66 443 68 Q 396 80 245 94 Q 243 96 217 90 Q 205 85 186 67 Q 179 61 181 58 Q 182 54 189 55 Q 331 37 382 9 Q 389 0 400 10 Z M 511 258 Q 509 299 505 328 Q 503 341 491 340 Q 434 336 339 336 Q 245 337 179 340 Q 162 342 161 330 Q 159 317 157 289 Q 156 277 155 272 Q 155 265 159 264 Q 162 263 167 268 Q 177 277 209 279 V 243 Q 209 117 200 99 Q 198 94 199 92 Q 200 91 205 92 Q 233 97 266 98 Q 273 98 272 106 Q 268 124 266 149 Q 426 149 453 136 Q 462 132 462 143 Q 462 162 459 194 Q 458 203 449 202 Q 428 200 401 200 V 279 L 435 277 Q 478 277 500 253 Q 505 247 509 249 Q 512 250 511 258 Z" fill="black" />
  </g>
  <g class="defect" id="01">
    <path d="M 352 356 Q 406 366 483 391" fill="none" stroke="red" stroke-width="3" />
  </g>
  <g class="defect" id="02">
    <path d="M 245 94 Q 243 96 217 90" fill="none" stroke="red" stroke-width="3" />
  </g>
  <g class="defect" id="03">
    <path d="M 150 229 Q 138 231 152 236" fill="none" stroke="red" stroke-width="3" />
  </g>
</svg>