<svg xmlns="http://www.w3.org/2000/svg" width="512" height="512" viewBox="0 0 512 512">
  <g class="glyph">
    <path d="M 280 263 Q 280 253 280 233 Q 280 215 280 205 L 247 207 Q 240 208 238 215 Q 235 228 236 247 Q 237 251 237 253 Q 238 260 248 261 Q 264 263 280 263 Z M 377 261 Q 385 261 385 253 Q 385 230 383 213 Q 383 208 375 207 Q 372 207 366 207 Q 349 205 340 205 V 263 Q 360 263 377 261 Z M 28 189 Q 70 192 123 187 Q 129 186 130 189 Q 131 192 127 197 Q 92 242 48 277 Q 41 281 38 274 Q 29 239 23 196 Q 21 188 28 189 Z M 43 47 Q 86 74 135 99 Q 141 103 141 106 Q 141 109 135 111 Q 97 126 35 138 Q 26 139 26 132 Q 29 89 36 53 Q 38 44 43 47 Z M 233 323 Q 238 319 241 319 Q 244 320 243 327 Q 237 396 203 447 Q 193 461 180 451 Q 159 437 123 395 Q 116 386 125 383 Q 190 360 233 323 Z M 365 321 Q 448 351 505 356 Q 511 357 511 359 Q 512 363 508 367 Q 468 404 451 434 Q 441 451 427 437 Q 392 404 358 329 Q 355 324 358 322 Q 360 320 365 321 Z M 8 385 Q 67 344 147 249 Q 150 246 153 247 Q 155 249 154 253 Q 119 355 89 445 Q 84 454 75 448 Q 42 427 8 397 Q 0 390 8 385 Z M 437 158 Q 450 156 447 167 Q 445 204 446 239 Q 446 273 450 294 Q 452 309 439 308 Q 403 305 340 305 L 341 378 Q 341 407 346 465 Q 346 474 347 479 Q 349 497 335 495 Q 284 495 245 489 Q 237 488 237 484 Q 237 481 245 476 Q 272 458 273 417 Q 278 352 279 306 Q 230 307 191 309 Q 172 311 176 297 Q 181 270 182 233 Q 182 196 178 170 Q 176 158 189 160 Q 226 163 280 163 V 128 Q 217 129 173 130 Q 165 132 163 123 Q 160 98 159 75 Q 159 66 168 70 Q 192 80 279 80 Q 278 22 271 7 Q 270 2 271 1 Q 273 0 279 1 Q 302 7 339 10 Q 349 8 346 20 Q 344 48 342 80 Q 428 76 455 61 Q 466 56 467 67 Q 466 95 461 121 Q 459 129 448 128 Q 398 127 341 127 Q 341 133 341 145 Q 340 157 340 163 Q 401 162 437 158 Z" fill="black" />
  </g>
  <g class="defect" id="01">
    <path d="M 154 253 Q 119 355 89 445" fill="none" stroke="red" stroke-width="3" />
  </g>
</svg>