<svg xmlns="http://www.w3.org/2000/svg" width="512" height="512" viewBox="0 0 512 512">
  <g class="glyph">
    <path d="M 29 159 Q 59 161 106 157 Q 111 157 112 160 Q 113 162 110 167 Q 80 207 46 234 Q 40 238 36 230 Q 32 212 26 174 Q 25 168 24 164 Q 24 158 29 159 Z M 55 42 Q 96 45 123 88 Q 130 95 120 100 Q 104 111 42 119 Q 34 119 35 113 Q 38 77 45 45 Q 48 36 55 42 Z M 326 25 Q 347 37 375 45 Q 381 47 379 53 Q 354 133 317 213 Q 311 224 298 218 Q 281 208 266 192 Q 263 189 263 186 Q 264 184 269 183 Q 283 181 288 167 Q 306 123 316 72 Q 322 42 319 29 Q 319 26 321 25 Q 322 23 326 25 Z M 402 17 Q 435 77 470 130 Q 483 149 502 142 Q 509 140 510 143 Q 512 145 509 153 Q 497 188 474 214 Q 454 233 440 210 Q 409 147 387 25 Q 386 17 392 13 Q 398 10 402 17 Z M 410 283 Q 458 356 501 391 Q 511 398 501 405 Q 476 426 449 438 Q 434 445 429 430 Q 425 422 422 410 Q 362 418 288 418 Q 270 418 280 399 Q 320 322 341 201 Q 342 195 348 198 Q 368 208 401 215 Q 407 216 402 223 Q 397 229 384 273 Q 367 336 354 361 Q 352 365 353 366 Q 353 367 357 367 Q 386 367 411 363 Q 403 326 399 288 Q 398 281 402 279 Q 406 278 410 283 Z M 7 348 Q 41 310 107 214 Q 110 210 114 211 Q 117 213 116 219 Q 114 236 106 279 Q 106 283 105 286 Q 106 286 109 287 Q 120 291 130 275 Q 150 243 184 167 Q 158 168 146 169 Q 135 172 135 163 Q 133 143 133 112 Q 133 105 140 108 Q 155 116 190 117 Q 192 49 184 8 Q 183 3 184 2 Q 184 0 189 1 Q 205 4 244 7 Q 248 7 246 14 Q 241 36 239 116 Q 267 115 277 111 Q 281 109 283 110 Q 284 111 284 115 Q 284 141 282 161 Q 281 169 271 168 Q 257 166 238 166 Q 238 176 238 195 Q 238 204 238 208 Q 262 226 302 237 Q 307 238 307 240 Q 307 241 304 245 L 275 281 Q 265 293 258 280 Q 247 258 238 232 Q 239 349 241 452 Q 242 472 226 469 Q 190 467 159 451 Q 154 449 154 447 Q 155 444 159 442 Q 181 434 182 412 Q 186 361 189 249 Q 164 311 147 340 Q 136 359 126 345 Q 113 324 104 294 Q 89 369 82 397 Q 80 408 68 402 Q 40 387 7 360 Q 0 355 7 348 Z" fill="black" />
  </g>
  <g class="defect" id="01">
    <path d="M 120 100 Q 104 111 42 119" fill="none" stroke="red" stroke-width="3" />
  </g>
  <g class="defect" id="02">
    <path d="M 55 42 Q 96 45 123 88" fill="none" stroke="red" stroke-width="3" />
  </g>
</svg>