<svg xmlns="http://www.w3.org/2000/svg" width="512" height="512" viewBox="0 0 512 512">
  <g class="glyph">
    <path d="M 172 232 Q 175 228 177 229 Q 179 231 178 235 Q 169 279 157 315 Q 155 323 149 319 Q 127 303 115 288 Q 110 283 116 279 Q 151 252 172 232 Z M 49 29 Q 83 61 106 79 Q 113 86 104 91 Q 76 102 32 108 Q 25 109 26 103 Q 27 99 28 90 Q 34 46 39 31 Q 41 25 49 29 Z M 20 158 Q 54 163 96 158 Q 124 159 98 170 Q 74 203 45 232 Q 37 238 33 231 Q 23 200 15 163 Q 14 157 20 158 Z M 7 344 Q 38 325 99 250 Q 101 247 104 248 Q 107 249 107 253 Q 96 326 80 391 Q 76 403 66 397 Q 37 380 7 355 Q 0 349 7 344 Z M 268 239 Q 269 234 274 237 Q 291 249 310 253 Q 313 254 311 260 Q 247 392 141 453 Q 126 460 117 448 Q 103 425 95 390 Q 93 387 96 385 Q 97 383 101 385 Q 126 399 152 379 Q 191 354 221 320 Q 195 320 189 319 Q 184 319 186 314 Q 194 295 193 263 Q 193 219 190 210 Q 190 206 195 208 Q 211 211 237 211 Q 240 211 240 216 Q 239 222 239 259 V 297 Q 259 269 268 239 Z M 429 212 Q 426 276 412 352 Q 471 393 505 398 Q 512 399 508 408 Q 490 440 465 466 Q 455 476 446 462 Q 441 449 407 369 Q 398 408 388 431 Q 365 476 343 476 Q 319 474 293 409 Q 291 404 292 401 Q 294 398 298 401 Q 331 422 348 390 Q 375 348 384 259 Q 388 216 380 203 Q 379 200 380 198 Q 381 197 385 198 Q 406 204 425 205 Q 429 203 429 212 Z M 180 127 V 160 H 201 V 144 Q 201 35 198 7 Q 196 0 200 1 Q 224 6 251 6 Q 255 5 254 12 Q 250 41 249 69 Q 272 68 290 64 Q 295 63 295 69 Q 293 82 292 103 Q 292 110 287 109 Q 270 107 248 107 V 159 Q 252 159 255 159 Q 289 157 298 148 Q 302 144 305 144 Q 308 146 308 151 Q 308 168 303 193 Q 301 205 292 204 Q 187 200 121 204 Q 113 205 112 196 Q 112 192 111 179 Q 110 156 110 151 Q 110 148 112 148 Q 114 147 115 149 Q 123 156 139 158 V 124 Q 139 78 134 49 Q 134 44 135 43 Q 135 42 139 43 Q 155 47 180 49 Q 184 48 183 54 Q 180 95 180 127 Z M 314 349 Q 310 349 312 344 Q 318 317 318 238 Q 318 186 317 169 Q 317 148 316 143 Q 314 129 316 126 Q 317 125 326 126 Q 329 126 330 126 Q 343 129 374 130 Q 377 108 379 77 Q 334 78 319 79 Q 308 82 308 71 Q 306 52 306 24 Q 306 20 308 19 Q 309 18 315 21 Q 332 29 390 29 Q 482 30 499 17 Q 504 14 506 15 Q 509 17 509 23 Q 508 42 505 67 Q 505 81 488 79 Q 475 78 433 76 Q 419 105 400 130 Q 454 130 477 126 Q 478 126 480 126 Q 490 124 491 127 Q 492 131 491 144 Q 491 144 491 145 Q 489 175 489 250 Q 490 317 493 340 Q 493 347 489 347 Q 473 347 440 345 Q 436 345 438 340 Q 456 343 442 296 Q 444 260 443 179 Q 443 172 438 172 Q 430 171 408 170 Q 384 170 369 171 Q 362 171 362 178 Q 362 287 364 342 Q 364 348 361 348 Q 355 349 341 349 Q 325 349 314 349 Z" fill="black" />
  </g>
  <g class="defect" id="01">
    <path d="M 96 158 Q 124 159 98 170" fill="none" stroke="red" stroke-width="3" />
  </g>
  <g class="defect" id="02">
    <path d="M 438 340 Q 456 343 442 296" fill="none" stroke="red" stroke-width="3" />
  </g>
  <g class="defect" id="03">
    <path d="M 446 462 Q 441 449 407 369" fill="none" stroke="red" stroke-width="3" />
  </g>
</svg>