<svg xmlns="http://www.w3.org/2000/svg" width="512" height="512" viewBox="0 0 512 512">
  <g class="glyph">
    <path d="M 316 157 V 193 H 351 V 157 Z M 417 157 Q 415 157 409 157 Q 398 157 392 157 V 193 Q 412 193 416 192 Q 427 192 428 186 Q 429 183 429 165 Q 429 157 417 157 Z M 240 187 Q 240 193 252 193 Q 253 193 260 193 Q 272 193 278 193 V 157 Q 271 157 258 157 Q 250 157 248 157 Q 240 157 240 162 Q 239 171 240 187 Z M 365 393 Q 356 381 339 350 Q 338 347 338 346 Q 339 344 342 343 Q 347 343 361 341 Q 390 337 402 335 Q 405 334 406 336 Q 407 337 405 341 Q 387 380 376 392 Q 370 399 365 393 Z M 234 322 Q 234 324 234 330 Q 234 337 234 340 Q 244 340 266 340 Q 277 340 283 340 Q 295 341 294 328 Q 295 309 294 286 Q 294 277 287 277 Q 277 277 244 277 Q 234 277 235 285 Q 235 286 235 290 Q 234 293 234 295 Q 267 295 283 294 Q 287 293 287 297 L 286 318 Q 287 323 281 322 Z M 502 259 Q 507 256 509 257 Q 512 258 512 263 Q 511 291 508 310 Q 507 316 496 316 L 463 315 Q 463 373 463 399 Q 463 430 464 445 Q 467 487 432 485 Q 379 482 356 444 Q 353 437 354 436 Q 355 435 360 435 Q 415 442 412 408 Q 413 354 413 315 L 352 316 Q 344 318 343 312 Q 342 292 341 268 Q 341 264 343 264 Q 345 263 349 265 Q 355 272 412 271 Q 411 248 408 239 Q 408 236 408 235 Q 409 235 413 235 Q 445 240 463 240 Q 467 239 466 244 Q 464 254 463 269 Q 490 267 502 259 Z M 413 6 Q 421 0 429 7 Q 428 23 466 43 Q 469 47 468 50 Q 467 53 460 54 Q 446 56 410 59 Q 438 70 453 77 Q 461 82 454 88 Q 429 108 398 125 Q 440 123 468 120 Q 484 117 481 130 Q 478 150 477 177 Q 459 190 478 222 Q 480 236 466 232 Q 421 229 333 229 Q 245 229 201 232 Q 187 234 190 221 Q 192 201 192 183 Q 166 193 130 203 Q 128 239 124 277 Q 165 300 191 310 Q 191 281 189 252 Q 187 240 197 243 Q 255 247 325 243 Q 338 239 336 252 Q 333 269 333 304 Q 333 340 335 360 Q 337 373 324 370 Q 266 369 234 370 V 411 Q 234 418 241 416 Q 249 414 275 403 Q 272 390 270 377 Q 269 373 271 371 Q 273 370 276 373 Q 314 402 342 415 Q 347 417 343 423 Q 324 443 307 456 Q 299 462 294 455 Q 288 445 283 430 Q 237 460 194 475 Q 183 477 184 465 Q 191 389 191 325 Q 169 348 162 355 Q 154 365 146 353 Q 133 332 122 294 Q 103 431 61 439 Q 34 439 3 376 Q 0 370 2 366 Q 3 364 9 365 Q 38 375 48 361 Q 59 350 70 293 Q 82 231 85 152 Q 81 159 72 178 Q 59 208 52 219 Q 49 225 46 225 Q 44 225 40 219 Q 34 211 18 183 Q 11 172 8 167 Q 2 158 12 156 Q 25 156 67 145 Q 77 143 82 142 Q 83 141 85 141 Q 86 129 86 117 Q 86 80 84 65 Q 82 48 78 32 Q 77 29 78 27 Q 79 26 82 27 Q 108 33 138 35 Q 145 35 143 42 Q 135 58 133 140 Q 132 173 131 191 Q 142 172 155 138 Q 158 131 164 136 Q 167 140 176 150 Q 188 163 192 169 Q 192 148 190 133 Q 188 121 198 122 Q 213 124 260 125 Q 238 116 213 98 Q 211 96 211 94 Q 211 92 214 91 Q 231 83 265 71 Q 273 69 272 75 Q 272 80 272 90 Q 273 114 270 125 H 332 Q 313 107 299 82 Q 296 78 301 77 Q 336 76 359 70 Q 366 69 368 71 Q 369 73 366 79 Q 366 80 364 83 Q 350 113 339 125 Q 357 125 367 125 Q 377 125 386 125 Q 396 93 399 59 Q 337 63 244 67 Q 222 70 201 42 Q 198 38 198 35 Q 199 33 203 33 Q 332 29 413 6 Z" fill="black" />
  </g>
  <g class="defect" id="01">
    <path d="M 429 7 Q 428 23 466 43" fill="none" stroke="red" stroke-width="3" />
  </g>
  <g class="defect" id="02">
    <path d="M 477 177 Q 459 190 478 222" fill="none" stroke="red" stroke-width="3" />
  </g>
</svg>