<svg xmlns="http://www.w3.org/2000/svg" width="512" height="512" viewBox="0 0 512 512">
  <g class="glyph">
    <path d="M 95 139 Q 91 147 78 173 Q 64 203 57 215 Q 53 220 51 220 Q 48 221 44 215 Q 23 207 24 183 Q 13 167 9 160 Q 2 149 12 148 Q 29 147 80 135 Q 86 133 89 132 Q 94 131 96 133 Q 98 135 95 139 Z M 294 198 Q 294 210 294 233 Q 293 255 293 267 Q 352 267 373 267 Q 398 267 404 266 Q 416 265 416 257 Q 418 236 417 207 Q 418 197 404 198 Q 340 198 294 198 Z M 158 191 Q 153 191 157 182 Q 174 151 186 115 Q 189 107 197 112 Q 201 116 211 127 Q 226 141 232 148 Q 231 66 228 45 Q 224 30 239 33 Q 275 37 376 37 Q 470 37 492 32 Q 500 31 500 37 Q 499 73 497 91 Q 495 96 489 96 Q 467 95 400 95 Q 334 95 306 96 Q 296 95 295 106 Q 294 112 294 128 Q 294 142 294 150 Q 329 151 385 151 Q 440 151 466 149 Q 477 148 475 156 Q 474 173 474 227 Q 475 279 477 306 Q 478 317 463 317 Q 439 316 382 315 Q 327 315 293 315 Q 293 352 294 367 Q 294 379 314 378 Q 409 379 449 377 Q 489 374 505 365 Q 511 363 512 369 Q 511 404 507 433 Q 506 440 495 439 Q 461 436 375 435 Q 285 435 238 437 Q 222 440 226 420 Q 230 391 231 330 Q 220 338 204 355 Q 197 361 194 364 Q 185 374 178 364 Q 157 329 147 279 Q 147 283 147 287 Q 132 437 86 448 Q 56 451 4 380 Q 0 373 2 369 Q 4 365 11 368 Q 47 382 60 366 Q 75 353 85 294 Q 98 220 99 99 Q 99 64 98 46 Q 95 26 91 10 Q 88 4 91 2 Q 94 0 101 2 Q 128 8 160 11 Q 168 11 165 20 Q 157 41 155 122 Q 153 191 148 265 Q 149 265 152 266 Q 153 267 153 267 Q 198 295 232 308 Q 233 230 233 164 Q 206 176 158 191 Z" fill="black" />
  </g>
  <g class="defect" id="01">
    <path d="M 44 215 Q 23 207 24 183" fill="none" stroke="red" stroke-width="3" />
  </g>
</svg>