<svg xmlns="http://www.w3.org/2000/svg" width="512" height="512" viewBox="0 0 512 512">
  <g class="glyph">
    <path d="M 164 81 Q 172 78 172 85 Q 173 119 171 145 Q 169 153 161 149 Q 131 137 103 114 Q 97 109 103 106 Q 138 90 164 81 Z M 265 81 Q 273 79 275 81 Q 277 83 273 90 Q 261 117 244 142 Q 239 152 232 145 Q 211 123 193 95 Q 191 91 192 90 Q 192 89 196 89 Q 235 86 265 81 Z M 303 6 Q 312 0 319 8 Q 347 35 358 48 Q 362 53 360 56 Q 359 60 354 60 Q 255 69 149 74 Q 126 77 102 46 Q 98 42 99 40 Q 99 37 104 37 Q 225 32 303 6 Z M 319 69 Q 354 84 372 97 Q 382 104 372 110 Q 342 133 307 152 Q 394 149 428 142 Q 439 140 438 150 Q 436 211 444 258 Q 416 256 378 259 Q 378 255 379 244 Q 381 217 381 208 Q 383 198 371 198 Q 322 181 290 196 Q 240 196 189 197 Q 227 206 240 206 Q 246 207 242 213 Q 242 214 240 217 Q 237 220 230 232 Q 294 232 320 230 Q 348 229 356 226 Q 346 208 365 230 Q 365 237 363 263 Q 362 266 362 268 Q 362 275 351 275 Q 305 272 207 273 L 191 301 Q 227 303 277 302 Q 322 302 342 299 Q 348 298 349 300 Q 351 304 348 309 Q 323 354 287 395 Q 320 406 345 413 Q 370 419 385 416 Q 400 414 423 399 Q 428 396 432 399 Q 435 403 434 409 Q 417 459 393 489 Q 378 512 350 495 Q 298 466 251 435 Q 230 456 207 475 Q 183 496 167 495 Q 141 493 107 459 Q 103 455 104 451 Q 104 448 110 448 Q 135 449 156 438 Q 178 428 207 405 Q 181 385 163 370 Q 155 363 158 356 Q 162 350 171 354 Q 201 366 237 378 Q 258 358 272 341 Q 269 341 259 341 Q 196 340 182 342 Q 180 339 178 321 Q 126 401 80 450 Q 59 474 39 454 Q 16 431 2 393 Q 0 388 2 386 Q 4 385 9 386 Q 39 399 59 379 Q 121 353 146 275 L 121 277 Q 111 278 110 269 Q 107 250 107 230 Q 107 227 108 226 Q 110 225 113 227 Q 120 231 170 232 Q 179 211 179 197 L 103 198 Q 89 197 90 215 Q 90 237 92 263 Q 61 259 32 262 Q 39 201 31 154 Q 29 146 37 146 Q 81 150 149 152 Q 218 153 289 152 V 152 Q 305 110 311 74 Q 312 66 319 69 Z" fill="black" />
  </g>
  <g class="defect" id="01">
    <path d="M 371 198 Q 322 181 290 196" fill="none" stroke="red" stroke-width="3" />
  </g>
  <g class="defect" id="02">
    <path d="M 356 226 Q 346 208 365 230" fill="none" stroke="red" stroke-width="3" />
  </g>
  <g class="defect" id="03">
    <path d="M 59 379 Q 121 353 146 275" fill="none" stroke="red" stroke-width="3" />
  </g>
</svg>