<svg xmlns="http://www.w3.org/2000/svg" width="512" height="512" viewBox="0 0 512 512">
  <g class="glyph">
    <path d="M 424 324 Q 406 294 396 264 Q 394 259 395 257 Q 396 254 401 255 Q 441 259 470 264 Q 479 266 472 274 Q 458 297 436 325 Q 429 332 424 324 Z M 25 356 Q 17 359 14 351 Q 6 315 3 285 Q 0 275 9 276 Q 28 278 83 275 V 191 Q 58 191 28 193 Q 16 195 17 185 Q 15 167 14 142 Q 13 136 21 138 Q 42 142 83 142 V 69 Q 59 69 30 71 Q 13 74 14 63 Q 11 25 11 15 Q 11 6 22 10 Q 37 18 84 18 Q 166 18 189 8 Q 197 5 199 7 Q 201 8 201 15 Q 201 36 198 61 Q 198 73 183 70 Q 157 69 140 69 V 141 Q 175 140 191 135 Q 200 132 199 142 Q 199 169 196 184 Q 196 193 189 192 Q 162 191 140 191 V 271 Q 179 268 206 264 Q 217 262 216 271 Q 210 311 194 310 Q 69 341 25 356 Z M 450 226 Q 413 224 373 224 V 338 Q 426 321 438 337 Q 479 337 500 314 Q 504 310 508 311 Q 512 313 511 319 Q 510 345 504 390 Q 501 403 490 402 Q 445 399 349 398 Q 254 398 210 402 Q 194 403 193 392 Q 188 372 187 329 Q 187 319 199 325 Q 213 338 265 338 Q 274 338 307 338 V 224 Q 271 224 239 226 Q 229 227 229 221 Q 229 216 227 200 Q 226 175 226 169 Q 225 161 234 164 Q 256 167 307 168 V 71 Q 286 71 250 72 Q 240 73 236 73 Q 222 75 224 63 Q 222 45 221 12 Q 220 8 222 6 Q 224 5 228 6 Q 256 14 351 13 Q 441 12 465 4 Q 477 0 476 9 Q 476 46 473 63 Q 472 72 463 71 Q 413 70 373 70 V 168 Q 436 167 456 162 Q 465 160 465 166 Q 450 214 463 214 Q 463 228 450 226 Z" fill="black" />
  </g>
  <g class="defect" id="01">
    <path d="M 465 166 Q 450 214 463 214" fill="none" stroke="red" stroke-width="3" />
  </g>
  <g class="defect" id="02">
    <path d="M 373 338 Q 426 321 438 337" fill="none" stroke="red" stroke-width="3" />
  </g>
</svg>