<svg xmlns="http://www.w3.org/2000/svg" width="512" height="512" viewBox="0 0 512 512">
  <g class="glyph">
    <path d="M 150 72 Q 149 81 149 96 Q 161 97 179 97 Q 187 97 197 97 Q 206 97 223 97 V 55 Q 180 56 166 57 Q 150 58 150 72 Z M 334 55 Q 319 55 276 55 V 96 Q 315 96 354 95 V 72 Q 354 56 334 55 Z M 352 158 353 136 H 276 V 180 Q 314 179 327 177 Q 351 177 352 158 Z M 166 179 Q 181 180 223 180 V 136 H 148 Q 148 152 149 164 Q 161 191 166 179 Z M 370 481 Q 372 496 357 495 Q 307 489 273 476 Q 269 475 269 473 Q 269 470 273 469 Q 311 462 301 430 Q 307 383 307 336 Q 306 327 306 320 Q 258 319 265 319 Q 255 319 242 319 Q 231 319 210 319 Q 193 407 180 442 Q 159 500 116 499 Q 72 497 36 437 Q 34 432 36 429 Q 38 426 43 428 Q 91 446 113 415 Q 135 384 146 321 Q 83 322 20 328 Q 10 329 9 321 Q 5 303 2 261 Q 1 252 1 247 Q 0 241 3 239 Q 6 238 12 242 Q 32 262 86 262 Q 237 269 403 262 Q 470 262 499 230 Q 505 225 509 226 Q 512 228 512 235 Q 511 286 506 317 Q 503 329 492 328 Q 429 324 368 321 Q 368 403 370 481 Z M 410 3 Q 425 1 422 19 Q 417 58 417 123 Q 400 184 423 219 Q 425 236 406 233 Q 358 227 255 227 Q 153 227 103 233 Q 80 237 84 220 Q 88 181 88 110 Q 88 43 83 18 Q 79 0 97 3 Q 250 13 410 3 Z" fill="black" />
  </g>
  <g class="defect" id="01">
    <path d="M 417 123 Q 400 184 423 219" fill="none" stroke="red" stroke-width="3" />
  </g>
  <g class="defect" id="02">
    <path d="M 149 164 Q 161 191 166 179" fill="none" stroke="red" stroke-width="3" />
  </g>
  <g class="defect" id="03">
    <path d="M 273 469 Q 311 462 301 430" fill="none" stroke="red" stroke-width="3" />
  </g>
</svg>