<svg xmlns="http://www.w3.org/2000/svg" width="512" height="512" viewBox="0 0 512 512">
  <g class="glyph">
    <path d="M 389 228 Q 389 210 390 193 Q 391 182 381 183 Q 351 183 334 184 L 329 239 Q 362 235 389 228 Z M 92 364 Q 93 377 104 377 Q 138 379 162 378 Q 180 383 176 324 Q 176 307 162 307 Q 133 305 104 307 Q 93 307 92 321 Q 90 346 92 364 Z M 90 7 Q 88 3 90 2 Q 91 0 95 1 Q 129 5 170 4 Q 177 4 178 6 Q 179 9 175 14 Q 164 32 139 56 Q 206 54 225 48 Q 229 46 231 47 Q 232 49 232 53 Q 232 60 230 81 Q 229 91 229 95 Q 227 103 219 102 Q 190 100 127 100 Q 65 101 40 105 Q 32 106 31 99 Q 29 81 28 57 Q 27 49 34 52 Q 47 56 116 56 Q 101 32 90 7 Z M 165 112 Q 189 121 216 133 Q 221 135 222 138 Q 222 141 217 144 Q 197 163 162 184 Q 174 184 195 183 Q 203 182 206 182 Q 243 181 252 171 Q 257 168 259 169 Q 262 170 262 175 Q 260 200 257 224 Q 255 235 246 234 Q 192 231 116 232 Q 45 232 18 236 Q 5 238 5 227 L 1 175 Q 0 170 3 169 Q 5 168 9 171 Q 20 183 58 184 Q 66 184 78 184 L 77 184 Q 77 184 75 182 Q 58 162 45 134 Q 43 130 44 129 Q 44 127 48 127 Q 84 126 115 121 Q 120 120 121 122 Q 123 124 121 128 Q 108 156 86 181 Q 84 184 82 184 Q 94 185 123 184 Q 139 184 146 184 Q 156 141 158 117 Q 159 109 165 112 Z M 225 261 Q 233 260 236 264 Q 238 266 236 275 Q 224 326 231 420 Q 233 432 217 430 Q 130 421 49 430 Q 41 432 38 430 Q 35 428 36 421 Q 39 389 38 347 Q 38 306 33 276 Q 18 261 45 263 Q 57 266 130 265 Q 188 265 225 261 Z M 254 430 Q 280 257 282 78 L 259 79 Q 250 80 250 73 Q 246 53 245 28 Q 245 20 253 23 Q 280 28 375 27 Q 458 26 481 20 Q 489 18 489 26 Q 488 51 485 73 Q 484 80 474 79 Q 443 77 392 77 Q 343 77 307 77 Q 315 79 328 82 Q 334 84 336 84 Q 343 85 341 94 Q 338 114 337 140 Q 396 144 437 137 Q 448 134 446 147 Q 440 223 440 355 Q 439 375 452 373 Q 470 380 501 310 Q 504 303 508 303 Q 501 304 512 312 Q 512 364 511 384 Q 511 407 510 415 Q 509 435 487 436 Q 447 440 418 435 Q 384 430 387 369 Q 387 314 389 246 Q 379 265 362 289 Q 356 296 350 290 Q 337 276 328 259 L 321 364 Q 320 371 328 369 Q 352 363 369 355 Q 379 351 377 369 Q 357 417 271 445 Q 252 448 254 430 Z" fill="black" />
  </g>
  <g class="defect" id="01">
    <path d="M 45 263 Q 57 266 130 265" fill="none" stroke="red" stroke-width="3" />
  </g>
  <g class="defect" id="02">
    <path d="M 33 276 Q 18 261 45 263" fill="none" stroke="red" stroke-width="3" />
  </g>
  <g class="defect" id="03">
    <path d="M 508 303 Q 501 304 512 312" fill="none" stroke="red" stroke-width="3" />
  </g>
</svg>