<svg xmlns="http://www.w3.org/2000/svg" width="512" height="512" viewBox="0 0 512 512">
  <g class="glyph">
    <path d="M 71 6 Q 71 2 73 1 Q 75 0 78 2 Q 110 15 138 23 Q 145 24 140 33 Q 119 72 92 100 Q 80 114 43 114 Q 37 114 37 112 Q 36 111 39 106 Q 64 59 71 6 Z M 105 371 Q 120 371 121 358 Q 123 337 123 285 Q 123 228 122 192 Q 123 172 110 173 Q 83 172 68 174 Q 59 175 59 186 Q 58 201 58 242 Q 83 242 105 240 Q 112 238 111 245 Q 110 255 110 285 Q 111 292 103 291 Q 91 290 58 290 Q 58 342 59 360 Q 59 372 70 372 Q 83 373 88 372 Q 92 372 105 371 Z M 362 77 V 109 Q 400 107 411 106 Q 396 105 417 98 Q 417 55 411 36 Q 409 29 415 31 Q 424 32 441 32 Q 458 33 466 33 Q 474 31 471 40 Q 470 54 469 88 Q 469 123 471 145 Q 474 165 455 161 Q 414 157 332 157 Q 253 158 216 163 Q 199 167 202 149 Q 203 120 202 85 Q 201 54 198 40 Q 197 33 202 34 Q 211 36 229 37 Q 234 47 254 37 Q 259 36 258 43 Q 255 63 255 100 Q 255 110 262 109 H 309 V 103 Q 309 46 302 15 Q 301 12 302 11 Q 302 10 305 11 Q 330 14 364 15 Q 367 15 367 19 Q 362 48 362 77 Z M 13 429 Q 2 431 5 419 Q 7 372 7 264 Q 7 164 3 129 Q 0 117 12 119 Q 41 123 88 123 Q 134 122 168 119 Q 181 117 178 133 Q 175 162 176 271 Q 176 371 179 416 Q 180 432 166 430 Q 141 427 96 427 Q 49 427 13 429 Z M 275 404 Q 271 436 313 433 Q 402 435 433 421 Q 466 411 499 362 Q 503 356 507 357 Q 512 359 512 366 Q 511 435 507 467 Q 506 494 476 495 Q 457 498 393 498 Q 323 498 271 496 Q 209 496 211 431 Q 211 330 209 297 Q 209 293 210 292 Q 211 290 214 292 Q 232 296 270 300 Q 330 302 390 300 Q 395 299 396 293 Q 397 290 397 277 Q 397 263 396 258 Q 396 253 391 252 Q 312 252 277 253 Q 237 253 216 254 Q 206 255 205 248 Q 202 233 201 192 Q 201 184 209 186 Q 240 197 328 198 Q 411 198 447 189 Q 458 186 458 197 Q 455 227 455 272 Q 456 315 459 340 Q 461 355 449 354 Q 416 353 362 352 Q 310 352 275 353 Q 275 371 275 404 Z" fill="black" />
  </g>
  <g class="defect" id="01">
    <path d="M 229 37 Q 234 47 254 37" fill="none" stroke="red" stroke-width="3" />
  </g>
  <g class="defect" id="02">
    <path d="M 411 106 Q 396 105 417 98" fill="none" stroke="red" stroke-width="3" />
  </g>
</svg>