<svg xmlns="http://www.w3.org/2000/svg" width="512" height="512" viewBox="0 0 512 512">
  <g class="glyph">
    <path d="M 147 248 Q 147 257 146 277 Q 145 287 145 292 H 187 Q 255 292 287 287 Q 298 285 297 293 Q 297 312 291 341 Q 288 353 277 351 Q 218 348 146 349 Q 146 369 147 398 Q 146 418 171 417 Q 207 418 247 418 Q 285 418 310 416 Q 333 416 334 396 Q 348 354 334 248 Q 332 230 310 229 Q 234 226 175 229 Q 148 230 147 248 Z M 24 102 Q 12 102 11 93 Q 3 63 1 23 Q 0 17 4 15 Q 7 13 12 17 Q 33 36 89 36 Q 234 40 396 36 Q 397 36 398 36 Q 462 35 498 6 Q 503 0 508 1 Q 512 2 511 9 Q 519 64 500 89 Q 496 99 486 99 Q 395 95 285 94 Q 265 132 232 172 Q 235 172 242 172 Q 247 171 250 171 Q 353 170 407 165 Q 417 165 416 175 Q 409 223 409 307 Q 409 408 417 476 Q 419 491 403 490 Q 289 481 229 481 Q 155 481 80 490 Q 66 491 67 480 Q 77 425 77 324 Q 77 220 71 177 Q 67 165 81 166 Q 121 170 184 171 Q 193 129 196 94 Q 99 96 24 102 Z" fill="black" />
  </g>
  <g class="defect" id="01">
    <path d="M 334 396 Q 348 354 334 248" fill="none" stroke="red" stroke-width="3" />
  </g>
  <g class="defect" id="02">
    <path d="M 511 9 Q 519 64 500 89" fill="none" stroke="red" stroke-width="3" />
  </g>
</svg>