<svg xmlns="http://www.w3.org/2000/svg" width="512" height="512" viewBox="0 0 512 512">
  <g class="glyph">
    <path d="M 301 170 Q 310 154 295 164 Q 278 142 271 131 Q 268 125 272 124 Q 303 122 334 116 Q 340 115 337 123 Q 329 148 313 170 Q 308 180 301 170 Z M 54 155 Q 70 194 74 213 Q 77 221 71 222 Q 43 223 16 217 Q 8 215 13 208 Q 36 177 45 156 Q 47 151 49 151 Q 52 151 54 155 Z M 4 280 Q 1 274 7 272 Q 39 264 79 246 Q 85 245 83 253 Q 66 296 45 332 Q 41 340 35 334 Q 17 310 4 280 Z M 81 123 Q 78 116 80 115 Q 82 113 89 115 Q 109 120 134 123 Q 141 123 139 131 Q 133 148 134 197 Q 132 413 92 465 Q 74 492 49 471 Q 28 454 3 405 Q 0 399 2 397 Q 3 395 9 397 Q 37 404 45 398 Q 55 394 65 368 Q 86 305 87 186 Q 87 132 81 123 Z M 367 58 Q 462 56 485 42 Q 497 36 497 45 Q 495 65 490 95 Q 488 110 469 108 Q 382 102 272 103 Q 121 103 84 110 Q 64 115 65 102 Q 63 78 63 52 Q 63 44 73 49 Q 89 57 128 58 Q 197 61 276 60 Q 276 59 275 59 Q 260 42 246 8 Q 229 -8 245 2 Q 246 0 251 1 Q 267 3 292 4 Q 317 5 335 5 Q 340 5 341 7 Q 342 9 339 13 Q 319 38 292 60 Q 332 60 367 58 Z M 150 419 Q 144 422 143 416 Q 136 383 133 367 Q 132 360 138 360 Q 150 360 178 357 V 289 Q 164 289 152 291 Q 146 292 146 285 Q 144 265 145 253 Q 144 249 150 250 Q 160 252 178 253 V 193 Q 166 193 155 194 Q 146 195 146 188 Q 145 167 145 153 Q 145 149 147 149 Q 148 148 151 149 Q 163 153 199 154 Q 238 154 248 148 Q 252 145 253 146 Q 255 147 255 152 Q 255 167 253 180 Q 301 186 355 180 L 354 146 Q 353 143 355 142 Q 356 141 359 142 Q 376 147 427 147 Q 475 146 489 140 Q 496 137 496 144 Q 496 163 494 181 Q 493 189 488 188 L 450 187 V 270 Q 478 269 487 266 Q 492 264 492 269 Q 491 291 490 308 Q 489 315 483 314 Q 481 314 477 313 Q 460 312 450 312 V 413 Q 450 413 451 413 Q 453 413 454 413 Q 492 411 504 399 Q 507 396 509 397 Q 512 398 512 402 Q 511 442 508 458 Q 508 465 499 464 Q 473 462 423 462 Q 374 462 350 464 Q 342 465 341 456 Q 338 431 338 408 Q 338 405 340 404 Q 342 403 346 405 Q 357 413 385 413 Q 387 413 391 413 Q 397 414 400 414 V 312 Q 391 312 375 313 Q 370 314 368 314 Q 362 315 362 310 Q 360 295 360 271 Q 359 264 365 267 Q 375 269 400 270 V 187 L 364 189 L 363 216 Q 362 224 356 223 Q 346 221 318 220 Q 342 234 354 237 Q 360 238 356 244 Q 351 254 344 278 Q 340 288 333 311 Q 331 317 330 319 Q 361 350 379 363 Q 396 385 380 373 Q 368 385 347 399 Q 340 404 335 395 Q 326 381 314 363 Q 295 417 278 448 Q 267 471 244 458 Q 220 443 208 430 Q 205 425 206 424 Q 207 422 212 422 Q 235 423 251 401 Q 266 379 289 319 Q 270 285 259 259 Q 255 252 259 249 Q 263 247 269 252 Q 284 271 300 287 L 309 263 Q 314 242 313 220 Q 276 220 258 222 Q 251 224 251 214 L 249 193 Q 248 194 245 193 L 221 192 V 252 Q 242 251 248 249 Q 252 247 252 252 Q 253 266 252 285 Q 252 291 246 290 L 221 289 V 354 Q 240 352 255 349 Q 261 348 261 354 Q 260 382 245 385 Q 198 400 150 419 Z" fill="black" />
  </g>
  <g class="defect" id="01">
    <path d="M 246 8 Q 229 -8 245 2" fill="none" stroke="red" stroke-width="3" />
  </g>
  <g class="defect" id="02">
    <path d="M 379 363 Q 396 385 380 373" fill="none" stroke="red" stroke-width="3" />
  </g>
  <g class="defect" id="03">
    <path d="M 301 170 Q 310 154 295 164" fill="none" stroke="red" stroke-width="3" />
  </g>
</svg>