<svg xmlns="http://www.w3.org/2000/svg" width="512" height="512" viewBox="0 0 512 512">
  <g class="glyph">
    <path d="M 280 212 Q 280 225 294 224 Q 295 224 298 224 Q 303 225 306 225 Q 312 207 317 186 Q 290 186 280 186 Q 280 210 280 212 Z M 398 110 Q 395 110 388 110 Q 377 109 372 109 Q 372 130 370 148 Q 389 148 415 147 V 129 Q 417 108 398 110 Z M 280 125 Q 280 128 280 148 H 322 Q 324 130 324 109 L 290 111 Q 280 112 280 125 Z M 414 205 Q 414 203 414 199 Q 401 179 414 186 Q 401 186 365 186 Q 361 207 356 224 Q 384 224 395 223 Q 414 223 414 205 Z M 123 255 Q 115 256 115 267 Q 113 311 115 349 Q 115 364 124 364 Q 131 365 141 364 Q 149 363 149 350 Q 151 336 150 305 Q 150 276 149 266 Q 148 255 141 255 Q 137 255 128 255 Q 124 255 123 255 Z M 196 65 Q 204 61 205 70 Q 205 103 203 119 Q 203 128 193 126 Q 157 124 98 124 Q 121 136 132 140 Q 138 144 132 148 Q 122 161 115 180 L 101 213 Q 150 215 184 210 Q 196 207 195 221 Q 193 255 193 309 Q 193 365 195 398 Q 198 415 183 412 Q 159 411 128 411 Q 99 411 79 414 Q 64 416 68 399 Q 70 378 71 344 Q 72 310 71 278 Q 57 308 46 324 Q 36 339 26 325 Q 10 301 1 264 Q 0 261 1 259 Q 3 258 5 259 Q 21 268 33 245 Q 71 179 79 124 Q 55 125 35 127 Q 26 129 25 119 Q 23 105 22 72 Q 22 65 29 68 Q 38 72 53 72 Q 66 73 117 73 Q 177 73 196 65 Z M 511 317 Q 509 353 505 379 Q 504 393 489 391 Q 466 390 400 389 Q 400 426 401 485 Q 403 503 387 501 Q 349 500 311 485 Q 307 484 308 481 Q 309 478 313 477 Q 335 474 338 452 Q 342 429 344 389 Q 268 389 220 392 Q 209 394 210 385 Q 208 358 208 337 Q 207 331 213 333 Q 229 338 248 339 Q 247 337 245 334 Q 232 317 227 301 Q 226 296 228 294 Q 230 293 234 295 Q 246 305 262 289 Q 273 279 282 267 Q 258 268 242 270 Q 228 273 230 261 Q 233 219 232 162 Q 231 109 226 81 Q 223 68 236 70 Q 249 71 300 72 Q 309 36 312 7 Q 312 0 320 3 Q 332 11 377 19 Q 382 21 383 23 Q 383 27 379 31 Q 357 51 322 72 Q 421 73 466 68 Q 477 67 474 82 Q 470 107 469 161 Q 487 204 471 258 Q 472 272 458 271 Q 443 269 409 267 Q 376 266 339 266 Q 319 304 281 338 L 280 339 H 345 Q 345 298 340 284 Q 338 280 340 279 Q 342 277 346 278 Q 370 283 401 284 Q 405 284 404 289 Q 401 306 400 337 L 428 336 Q 478 335 501 313 Q 506 310 509 311 Q 512 312 511 317 Z" fill="black" />
  </g>
  <g class="defect" id="01">
    <path d="M 320 3 Q 332 11 377 19" fill="none" stroke="red" stroke-width="3" />
  </g>
  <g class="defect" id="02">
    <path d="M 469 161 Q 487 204 471 258" fill="none" stroke="red" stroke-width="3" />
  </g>
  <g class="defect" id="03">
    <path d="M 414 199 Q 401 179 414 186" fill="none" stroke="red" stroke-width="3" />
  </g>
</svg>