<svg xmlns="http://www.w3.org/2000/svg" width="512" height="512" viewBox="0 0 512 512">
  <g class="glyph">
    <path d="M 215 330 Q 225 335 250 344 Q 260 320 265 300 Q 240 300 227 302 L 212 330 Q 214 330 215 330 Z M 263 85 Q 270 84 272 85 Q 274 86 272 93 Q 263 123 246 152 Q 240 160 231 154 Q 211 134 191 106 Q 189 102 190 101 Q 190 99 193 99 Q 221 96 263 85 Z M 353 80 Q 360 78 361 80 Q 363 82 361 89 Q 347 125 331 152 Q 325 159 319 152 Q 303 134 282 98 Q 280 94 281 92 Q 282 91 286 90 Q 317 87 353 80 Z M 91 365 Q 101 364 101 348 Q 102 316 102 254 Q 103 222 103 187 Q 102 151 102 124 Q 103 102 91 103 Q 74 102 60 103 Q 52 103 52 118 Q 51 136 51 160 L 87 158 Q 93 157 92 163 Q 92 173 92 200 Q 92 207 86 205 Q 81 205 70 205 Q 57 205 51 205 V 254 Q 69 253 88 251 Q 94 249 93 257 Q 92 276 91 291 Q 92 298 86 297 Q 75 297 51 296 V 352 Q 51 365 58 366 Q 76 368 91 365 Z M 383 5 Q 390 0 397 6 Q 418 21 447 48 Q 451 53 450 56 Q 449 59 443 60 Q 338 70 233 74 Q 217 77 183 41 Q 180 37 181 35 Q 182 32 187 33 Q 310 27 383 5 Z M 313 407 Q 305 408 307 399 Q 309 386 310 357 Q 312 328 311 316 Q 311 311 316 313 Q 329 317 354 318 Q 361 319 358 324 Q 355 335 353 365 Q 354 365 360 365 Q 369 365 374 365 V 302 Q 336 303 326 304 Q 317 307 318 296 Q 316 280 316 266 Q 316 257 325 260 Q 336 262 374 262 Q 373 232 369 221 Q 368 217 368 216 Q 369 215 374 215 Q 403 219 427 219 Q 432 220 430 225 Q 428 238 427 261 Q 464 260 472 258 Q 480 256 479 261 Q 479 281 477 293 Q 477 303 466 302 Q 447 301 427 301 Q 427 322 427 336 Q 427 351 427 365 Q 430 365 435 365 Q 438 365 439 365 Q 472 364 486 357 Q 493 353 494 359 Q 494 377 491 403 Q 490 410 482 408 Q 458 406 428 405 L 430 493 Q 432 510 418 508 Q 383 507 355 500 Q 351 499 350 497 Q 350 494 354 493 Q 371 485 373 465 Q 374 446 374 405 Q 331 406 313 407 Z M 470 152 Q 483 151 482 158 Q 480 202 485 245 Q 457 242 433 246 Q 435 232 435 208 Q 437 199 425 200 Q 396 199 342 200 Q 282 201 232 202 Q 216 201 218 214 V 216 Q 238 225 260 227 Q 264 229 261 233 L 247 263 Q 280 263 303 259 Q 312 257 311 266 Q 296 402 225 490 Q 207 512 190 497 Q 170 481 152 450 Q 149 445 151 442 Q 152 440 157 441 Q 186 448 202 425 Q 220 402 238 369 Q 226 376 218 380 Q 209 383 209 375 Q 207 356 208 338 Q 202 349 191 367 Q 190 368 190 369 Q 182 379 172 372 Q 157 358 151 342 Q 148 336 154 336 Q 165 335 171 324 Q 194 282 203 247 Q 185 246 169 248 Q 175 199 169 164 Q 167 157 175 156 Q 207 158 261 159 Q 316 159 367 158 Q 378 121 386 77 Q 387 69 395 74 Q 422 84 455 103 Q 459 107 455 111 Q 441 132 388 157 Q 449 155 470 152 Z M 9 425 Q 0 427 2 412 Q 4 361 4 209 Q 5 85 3 64 Q 0 47 10 51 Q 76 56 139 51 Q 168 48 152 62 Q 149 109 149 253 Q 149 372 151 409 Q 152 428 138 426 Q 116 423 77 422 Q 39 422 9 425 Z" fill="black" />
  </g>
  <g class="defect" id="01">
    <path d="M 139 51 Q 168 48 152 62" fill="none" stroke="red" stroke-width="3" />
  </g>
  <g class="defect" id="02">
    <path d="M 455 111 Q 441 132 388 157" fill="none" stroke="red" stroke-width="3" />
  </g>
</svg>