<svg xmlns="http://www.w3.org/2000/svg" width="512" height="512" viewBox="0 0 512 512">
  <g class="glyph">
    <path d="M 123 215 Q 113 215 113 227 Q 112 238 113 285 Q 113 300 113 304 Q 112 319 124 319 Q 131 320 142 319 Q 152 318 153 306 Q 153 295 153 268 Q 153 239 152 226 Q 152 215 142 215 Q 131 215 123 215 Z M 193 34 Q 202 31 202 40 Q 202 71 201 87 Q 201 96 190 95 Q 151 92 111 92 Q 127 100 142 106 Q 148 109 142 114 Q 134 122 124 144 L 111 173 Q 159 175 193 170 Q 205 167 203 181 Q 201 214 201 266 Q 201 319 204 352 Q 206 369 191 366 Q 166 364 129 364 Q 95 365 74 368 Q 61 371 64 353 Q 67 312 66 257 Q 57 273 49 283 Q 38 296 27 284 Q 11 262 1 224 Q 0 221 1 220 Q 3 218 6 219 Q 24 227 37 205 Q 77 142 86 93 Q 62 93 34 96 Q 24 97 23 88 Q 21 74 20 41 Q 20 35 27 37 Q 36 41 51 41 Q 65 43 117 43 Q 189 43 193 34 Z M 399 173 Q 427 193 453 205 Q 456 206 456 207 Q 456 210 453 212 Q 443 223 418 257 Q 398 286 378 312 Q 412 342 433 355 Q 463 375 500 355 Q 507 352 509 355 Q 512 358 510 365 Q 476 418 461 457 Q 443 474 423 455 Q 386 419 340 359 Q 300 407 260 446 Q 234 473 209 454 Q 182 434 161 409 Q 154 398 164 397 Q 196 403 236 373 Q 263 353 304 309 Q 268 259 244 220 Q 237 208 244 201 Q 251 195 260 204 Q 301 243 335 274 Q 351 255 365 235 Q 393 196 392 176 Q 392 174 392 173 Q 371 173 365 172 Q 359 172 362 166 Q 370 159 371 120 H 319 Q 319 148 319 158 Q 319 170 320 174 Q 319 178 315 179 Q 313 179 307 179 Q 273 179 265 178 Q 259 177 262 173 Q 268 163 268 121 Q 255 121 232 122 Q 224 123 220 123 Q 211 124 211 117 Q 210 98 209 70 Q 209 65 215 66 Q 222 68 268 70 Q 268 15 263 5 Q 262 0 267 2 Q 277 4 296 5 Q 314 6 319 6 Q 323 5 323 11 Q 321 22 320 71 Q 339 71 349 71 Q 361 71 371 71 Q 371 16 367 4 Q 365 1 370 1 Q 395 6 422 6 Q 427 6 426 11 Q 424 20 423 70 Q 476 68 490 64 Q 498 61 498 67 Q 496 91 492 117 Q 492 122 482 122 L 422 120 Q 422 152 423 168 Q 424 173 417 173 H 398 Q 398 173 399 173 Z" fill="black" />
  </g>
  <g class="defect" id="01">
    <path d="M 510 365 Q 476 418 461 457" fill="none" stroke="red" stroke-width="3" />
  </g>
  <g class="defect" id="02">
    <path d="M 117 43 Q 189 43 193 34" fill="none" stroke="red" stroke-width="3" />
  </g>
</svg>