<svg xmlns="http://www.w3.org/2000/svg" width="512" height="512" viewBox="0 0 512 512">
  <g class="glyph">
    <path d="M 130 226 Q 121 227 121 239 Q 120 254 120 307 Q 120 321 130 323 Q 139 324 146 323 Q 155 321 156 309 Q 156 297 157 273 Q 156 249 156 238 Q 155 227 147 226 Q 143 226 133 226 Q 130 226 130 226 Z M 342 103 Q 346 103 347 104 Q 349 107 346 111 Q 323 129 318 157 Q 360 157 382 157 Q 389 114 390 98 Q 322 98 244 100 Q 231 102 232 93 Q 231 89 230 80 Q 229 62 228 55 Q 228 51 229 51 Q 231 50 236 51 Q 245 53 275 55 Q 305 56 343 55 Q 332 41 315 9 Q 312 3 318 3 Q 366 4 398 1 Q 402 0 403 3 Q 404 5 402 8 Q 379 43 365 55 Q 449 54 474 49 Q 479 47 481 48 Q 483 49 482 54 Q 482 57 481 67 Q 480 86 479 92 Q 478 100 471 99 Q 434 98 407 98 Q 422 104 444 114 Q 452 116 446 123 Q 445 124 441 127 Q 417 147 402 156 Q 450 154 481 150 Q 493 148 492 157 Q 491 179 492 195 Q 492 211 495 236 Q 467 235 445 237 Q 448 224 448 208 Q 449 197 438 199 Q 408 198 363 198 Q 316 198 283 199 Q 268 199 271 213 Q 271 227 273 239 Q 253 236 226 239 Q 230 187 225 162 Q 212 154 231 154 Q 262 157 302 157 Q 283 137 273 118 Q 271 115 271 113 Q 272 112 276 112 Q 312 109 342 103 Z M 501 235 Q 511 230 512 239 Q 512 241 512 245 Q 511 279 509 289 Q 508 299 498 298 Q 474 297 432 296 Q 391 295 351 296 Q 348 301 344 314 Q 341 322 340 326 Q 431 326 451 322 Q 460 320 460 327 Q 459 389 455 445 Q 455 471 428 470 Q 370 468 340 428 Q 336 422 337 420 Q 338 418 344 419 Q 407 429 408 404 Q 410 388 410 373 Q 410 366 402 366 Q 353 365 325 366 Q 282 478 249 472 Q 209 470 179 408 Q 176 400 178 397 Q 179 394 186 397 Q 236 419 256 386 Q 273 355 288 314 Q 292 304 293 296 Q 257 297 228 299 Q 218 300 217 293 Q 214 270 214 246 Q 215 237 224 243 Q 237 254 341 253 Q 326 234 320 221 Q 317 216 317 215 Q 318 213 323 213 Q 360 211 384 207 Q 391 206 391 208 Q 393 210 389 216 Q 378 235 361 253 Q 475 252 501 235 Z M 205 47 Q 211 44 211 53 Q 211 61 210 80 Q 210 93 210 100 Q 210 110 201 108 Q 165 106 108 107 Q 124 114 140 121 Q 144 122 141 127 Q 132 137 122 160 L 112 185 Q 160 186 191 181 Q 202 178 201 192 Q 197 278 201 360 Q 204 376 188 373 Q 165 372 134 372 Q 105 372 86 375 Q 74 378 76 361 Q 62 301 79 252 Q 60 287 47 305 Q 37 317 26 306 Q 9 282 1 247 Q 0 241 5 242 Q 23 250 37 228 Q 81 158 89 107 Q 67 108 41 110 Q 32 111 31 101 Q 30 83 28 56 Q 28 49 34 51 Q 43 55 59 56 Q 72 57 125 57 Q 180 57 205 47 Z" fill="black" />
  </g>
  <g class="defect" id="01">
    <path d="M 76 361 Q 62 301 79 252" fill="none" stroke="red" stroke-width="3" />
  </g>
  <g class="defect" id="02">
    <path d="M 346 111 Q 323 129 318 157" fill="none" stroke="red" stroke-width="3" />
  </g>
  <g class="defect" id="03">
    <path d="M 225 162 Q 212 154 231 154" fill="none" stroke="red" stroke-width="3" />
  </g>
</svg>