<svg xmlns="http://www.w3.org/2000/svg" width="512" height="512" viewBox="0 0 512 512">
  <g class="glyph">
    <path d="M 176 219 Q 223 237 250 240 Q 255 241 255 244 Q 255 246 251 250 Q 229 274 213 298 Q 208 305 204 305 Q 199 304 195 297 Q 177 261 169 225 Q 167 219 169 218 Q 171 216 176 219 Z M 137 70 Q 113 39 99 7 Q 97 3 99 1 Q 100 0 105 1 Q 120 3 148 3 Q 187 -14 203 2 Q 207 2 208 4 Q 209 7 206 10 Q 188 40 157 70 Q 145 81 137 70 Z M 44 91 Q 66 97 136 97 Q 192 97 220 92 Q 227 91 230 95 Q 232 98 228 105 Q 194 170 150 228 Q 169 236 168 249 Q 185 324 172 450 Q 174 467 159 466 Q 125 464 93 456 Q 90 455 89 452 Q 89 449 92 447 Q 110 441 113 407 Q 117 374 120 273 V 265 Q 99 290 79 308 Q 52 334 34 314 Q 11 292 3 276 Q 0 270 2 268 Q 3 265 8 266 Q 24 271 47 255 Q 92 220 144 151 Q 146 149 145 147 Q 145 145 142 145 Q 138 145 128 145 Q 67 146 50 149 Q 41 150 40 142 Q 38 113 37 94 Q 37 88 44 91 Z M 455 474 Q 456 493 441 490 Q 393 484 354 463 Q 349 460 349 458 Q 349 456 354 455 Q 372 450 378 442 Q 383 436 386 412 Q 393 332 392 273 Q 392 245 389 231 Q 380 231 364 231 Q 336 231 323 231 Q 312 324 303 370 Q 295 410 275 422 Q 256 435 201 437 Q 195 437 194 435 Q 193 433 197 429 Q 270 333 276 107 Q 267 103 245 86 Q 239 81 240 78 Q 240 74 248 74 Q 344 54 398 15 Q 404 6 416 15 Q 442 34 464 53 Q 471 59 471 63 Q 470 67 463 69 Q 392 93 304 109 Q 297 111 291 110 Q 309 119 328 123 Q 337 125 335 133 Q 332 144 328 181 Q 413 181 448 179 Q 481 176 501 169 Q 512 164 511 176 Q 511 201 509 227 Q 508 237 498 236 Q 468 233 430 232 Q 437 238 438 246 Q 444 288 450 404 Q 453 452 455 474 Z" fill="black" />
  </g>
  <g class="defect" id="01">
    <path d="M 148 3 Q 187 -14 203 2" fill="none" stroke="red" stroke-width="3" />
  </g>
  <g class="defect" id="02">
    <path d="M 168 249 Q 185 324 172 450" fill="none" stroke="red" stroke-width="3" />
  </g>
</svg>