<svg xmlns="http://www.w3.org/2000/svg" width="512" height="512" viewBox="0 0 512 512">
  <g class="glyph">
    <path d="M 143 185 Q 142 190 142 200 Q 151 201 166 201 Q 173 201 183 201 Q 191 201 208 201 V 174 L 154 176 Q 144 176 143 185 Z M 321 241 Q 321 240 321 238 Q 321 235 321 234 H 254 V 260 Q 293 259 304 258 Q 318 257 321 241 Z M 308 175 Q 298 174 254 174 V 201 Q 286 201 323 200 V 191 Q 323 175 308 175 Z M 154 259 Q 177 260 208 260 V 234 H 141 Q 141 242 142 249 Q 142 259 154 259 Z M 422 88 Q 383 86 352 86 Q 368 96 380 105 Q 384 107 384 110 Q 384 113 380 115 Q 358 125 321 136 Q 317 137 316 136 Q 302 135 316 131 Q 328 104 333 86 Q 325 86 312 85 Q 301 85 296 85 L 276 116 Q 269 129 224 129 Q 218 129 217 127 Q 216 125 220 120 Q 260 67 270 7 Q 271 4 276 5 Q 300 15 327 20 Q 334 20 330 27 L 316 51 Q 415 51 428 44 Q 435 42 435 49 Q 435 67 433 80 Q 433 89 422 88 Z M 225 86 Q 202 84 152 84 Q 173 93 194 99 Q 197 100 197 102 Q 198 104 195 107 Q 180 121 159 136 Q 152 139 149 131 Q 142 114 136 84 H 115 Q 84 124 68 136 Q 56 146 46 138 Q 38 131 23 114 Q 20 110 20 108 Q 21 106 26 106 Q 41 107 53 91 Q 95 33 94 5 Q 95 0 101 3 Q 121 13 154 21 Q 160 23 156 29 L 141 50 Q 185 50 203 48 Q 222 46 231 42 Q 237 40 238 47 Q 238 65 236 79 Q 236 88 225 86 Z M 343 496 Q 344 510 330 509 Q 286 505 254 492 Q 251 491 251 489 Q 251 487 254 486 Q 277 480 280 452 Q 284 416 284 373 Q 239 372 246 372 Q 251 372 224 372 Q 213 372 193 372 Q 180 431 168 463 Q 150 512 111 512 Q 71 510 38 455 Q 36 451 37 449 Q 39 446 44 447 Q 88 463 108 437 Q 122 419 134 374 Q 76 375 19 380 Q 9 381 8 373 Q 3 338 1 307 Q 0 301 3 299 Q 6 298 11 302 Q 30 321 79 321 Q 218 325 371 321 Q 434 321 461 292 Q 466 287 469 288 Q 473 289 473 296 Q 472 337 467 370 Q 464 381 454 380 Q 389 376 341 374 Q 341 438 343 496 Z M 376 136 Q 391 135 387 148 Q 383 163 382 206 Q 381 252 383 293 Q 384 305 370 303 Q 328 299 230 299 Q 132 299 95 303 Q 82 305 84 293 Q 88 265 88 214 Q 86 166 83 149 Q 80 141 83 138 Q 85 136 94 137 Q 129 141 230 141 Q 327 140 376 136 Z" fill="black" />
  </g>
  <g class="defect" id="01">
    <path d="M 316 136 Q 302 135 316 131" fill="none" stroke="red" stroke-width="3" />
  </g>
  <g class="defect" id="02">
    <path d="M 246 372 Q 251 372 224 372" fill="none" stroke="red" stroke-width="3" />
  </g>
</svg>