<svg xmlns="http://www.w3.org/2000/svg" width="512" height="512" viewBox="0 0 512 512">
  <g class="glyph">
    <path d="M 190 220 Q 206 223 238 224 Q 243 224 242 227 Q 237 246 238 276 Q 238 399 239 411 Q 239 416 234 415 Q 193 415 184 414 Q 181 414 181 413 Q 180 412 181 409 Q 190 398 190 319 Q 191 236 186 223 Q 185 221 186 220 Q 188 219 190 220 Z M 476 109 Q 445 108 396 108 Q 406 115 425 131 Q 428 134 430 135 Q 437 142 428 146 Q 407 155 362 167 Q 358 168 356 166 Q 355 164 357 160 Q 374 126 380 108 H 336 Q 325 130 318 141 Q 311 151 299 153 Q 288 157 257 155 Q 252 155 251 153 Q 250 152 253 148 Q 296 90 310 6 Q 311 0 316 3 Q 347 16 372 22 Q 379 23 376 30 Q 370 37 356 65 Q 465 64 481 54 Q 488 50 489 59 Q 489 81 487 101 Q 486 111 476 109 Z M 155 113 Q 155 111 155 109 H 135 Q 109 149 86 174 Q 74 185 64 175 Q 52 166 36 138 Q 33 134 34 132 Q 35 130 40 130 Q 58 134 67 118 Q 117 36 117 7 Q 118 1 125 4 Q 159 19 183 26 Q 188 27 188 29 Q 189 31 186 34 Q 178 41 162 67 Q 206 67 224 65 Q 244 64 255 59 Q 263 57 263 63 Q 263 86 261 104 Q 261 112 251 111 Q 223 109 164 109 Q 195 120 226 126 Q 230 127 231 129 Q 232 131 228 134 Q 214 152 189 170 Q 179 177 175 168 Q 162 144 155 113 Z M 27 355 Q 14 338 1 316 Q 0 310 5 310 Q 25 316 41 298 Q 115 217 130 168 Q 130 164 134 163 Q 146 180 140 166 Q 169 186 192 198 Q 199 203 192 206 Q 174 218 157 240 L 123 280 Q 150 288 148 304 Q 150 394 151 496 Q 151 510 139 508 Q 89 505 71 491 Q 67 489 67 487 Q 66 483 70 482 Q 86 479 91 455 Q 100 415 100 314 V 305 Q 70 337 48 354 Q 38 364 27 355 Z M 276 313 Q 268 301 274 294 Q 281 288 292 298 Q 312 315 346 341 L 355 329 Q 377 295 376 276 Q 321 276 268 277 Q 261 278 259 275 Q 257 272 261 266 Q 289 214 301 165 Q 302 155 312 160 Q 337 172 361 179 Q 371 181 365 189 Q 363 191 356 200 Q 336 225 330 232 Q 376 232 397 232 Q 446 231 464 216 Q 470 213 472 214 Q 475 215 475 221 Q 475 247 470 269 Q 469 280 459 279 Q 425 277 394 276 Q 419 293 434 300 Q 438 302 438 304 Q 439 305 436 309 Q 423 320 404 349 L 389 372 Q 411 388 427 399 Q 450 416 488 405 Q 493 404 496 406 Q 487 423 496 414 Q 479 460 450 492 Q 435 508 419 490 Q 394 465 355 419 Q 323 462 297 490 Q 279 512 258 497 Q 238 486 217 450 Q 214 445 216 444 Q 217 442 222 443 Q 251 449 269 431 Q 297 406 321 376 Q 291 338 276 313 Z" fill="black" />
  </g>
  <g class="defect" id="01">
    <path d="M 139 508 Q 89 505 71 491" fill="none" stroke="red" stroke-width="3" />
  </g>
  <g class="defect" id="02">
    <path d="M 496 406 Q 487 423 496 414" fill="none" stroke="red" stroke-width="3" />
  </g>
  <g class="defect" id="03">
    <path d="M 134 163 Q 146 180 140 166" fill="none" stroke="red" stroke-width="3" />
  </g>
</svg>