<svg xmlns="http://www.w3.org/2000/svg" width="512" height="512" viewBox="0 0 512 512">
  <g class="glyph">
    <path d="M 124 119 Q 124 115 126 113 Q 127 112 132 114 Q 167 129 200 138 Q 205 139 205 142 Q 206 144 202 148 Q 184 166 156 185 Q 146 191 142 181 Q 130 154 124 119 Z M 143 254 Q 142 281 142 312 Q 156 313 190 312 Q 209 312 217 312 V 241 L 155 243 Q 143 244 143 254 Z M 336 242 Q 336 241 274 241 V 312 Q 317 312 341 311 Q 354 311 354 303 Q 355 277 351 252 Q 350 242 336 242 Z M 232 113 Q 195 111 115 111 Q 85 155 59 184 Q 46 199 34 187 Q 15 170 3 151 Q 0 146 1 145 Q 2 142 7 142 Q 29 143 40 124 Q 93 41 95 7 Q 96 0 104 3 Q 129 14 167 25 Q 172 26 173 28 Q 174 31 170 34 Q 162 41 145 66 Q 222 66 236 57 Q 245 54 245 61 Q 245 85 243 105 Q 242 114 232 113 Z M 455 116 Q 411 114 377 113 Q 401 127 418 140 Q 427 146 418 152 Q 386 170 341 185 Q 336 186 335 184 Q 333 183 335 178 Q 354 139 360 113 H 312 Q 300 139 290 154 Q 283 166 270 170 Q 269 160 225 174 Q 220 174 218 172 Q 216 170 220 167 Q 266 99 280 10 Q 280 4 286 6 Q 313 15 349 23 Q 354 24 355 27 Q 356 28 353 32 Q 345 41 334 66 Q 449 66 460 55 Q 468 51 469 60 Q 469 85 466 106 Q 466 117 455 116 Z M 409 364 Q 386 362 314 361 Q 232 361 142 361 Q 142 393 143 402 Q 142 426 155 433 Q 166 441 203 440 Q 335 440 392 424 Q 452 408 485 364 Q 494 354 498 354 Q 504 355 504 367 Q 503 458 496 481 Q 500 506 465 507 Q 421 511 302 512 Q 185 512 138 507 Q 98 504 85 484 Q 71 465 73 418 Q 76 264 71 203 Q 68 190 81 191 Q 134 196 248 196 Q 365 196 408 192 Q 423 189 420 207 Q 418 235 418 276 Q 418 316 421 350 Q 424 366 409 364 Z" fill="black" />
  </g>
  <g class="defect" id="01">
    <path d="M 270 170 Q 269 160 225 174" fill="none" stroke="red" stroke-width="3" />
  </g>
  <g class="defect" id="02">
    <path d="M 336 242 Q 336 241 274 241" fill="none" stroke="red" stroke-width="3" />
  </g>
  <g class="defect" id="03">
    <path d="M 496 481 Q 500 506 465 507" fill="none" stroke="red" stroke-width="3" />
  </g>
</svg>