<svg xmlns="http://www.w3.org/2000/svg" width="512" height="512" viewBox="0 0 512 512">
  <g class="glyph">
    <path d="M 304 380 Q 411 401 454 401 Q 460 401 461 404 Q 461 407 455 412 Q 429 437 403 467 Q 389 487 368 470 Q 328 438 299 387 Q 297 383 298 381 Q 299 379 304 380 Z M 263 129 Q 254 119 257 114 Q 260 108 272 113 Q 298 126 323 135 Q 347 111 358 95 Q 360 94 359 92 Q 358 91 356 91 Q 295 91 270 93 Q 262 94 262 87 Q 259 68 259 48 Q 259 41 265 43 Q 291 47 348 47 Q 407 47 431 42 Q 436 41 438 44 Q 439 47 437 53 Q 408 107 372 155 Q 428 177 462 184 Q 471 186 464 195 Q 446 219 428 239 Q 411 260 391 242 Q 373 229 336 197 Q 317 218 299 232 Q 284 246 266 242 Q 249 238 216 214 Q 212 211 213 208 Q 213 204 217 205 Q 235 206 260 189 Q 273 181 296 160 Q 278 144 263 129 Z M 148 367 Q 52 369 24 374 Q 3 379 4 365 Q 2 345 1 306 Q 0 299 2 299 Q 4 298 11 303 Q 28 315 66 317 Q 102 318 129 318 Q 115 307 91 277 Q 86 271 84 268 Q 82 269 79 270 Q 76 281 46 267 Q 25 242 16 224 Q 14 219 15 217 Q 16 215 20 216 Q 49 223 71 213 Q 146 178 182 139 Q 132 139 118 140 Q 112 141 112 137 L 110 122 Q 102 133 92 144 Q 101 148 130 157 Q 140 161 144 162 Q 148 164 148 166 Q 148 168 144 170 Q 127 178 90 190 Q 84 192 84 187 Q 84 164 85 154 Q 72 167 58 180 Q 47 188 40 178 Q 29 157 23 133 Q 22 126 29 128 Q 41 138 52 126 Q 83 94 91 63 Q 91 60 92 60 Q 93 59 96 61 Q 110 69 135 77 Q 140 79 137 84 L 123 104 L 143 106 V 94 Q 144 28 138 7 Q 137 2 138 1 Q 139 0 143 1 Q 164 4 189 4 Q 192 4 192 5 Q 193 6 192 9 Q 189 26 188 43 Q 219 43 246 39 Q 253 38 251 44 Q 249 59 249 73 Q 249 79 243 79 Q 198 60 187 77 V 106 Q 219 105 246 102 Q 250 101 252 105 Q 254 108 251 113 Q 199 206 100 260 Q 141 255 165 250 Q 171 249 172 252 Q 173 254 171 260 Q 157 289 139 314 Q 137 317 134 318 H 208 Q 207 266 203 245 Q 201 238 208 239 Q 233 244 270 245 Q 275 244 274 250 Q 271 268 270 317 Q 290 316 274 317 Q 290 316 308 316 Q 318 286 325 247 Q 326 239 333 243 Q 361 256 387 271 Q 395 276 386 282 Q 358 302 330 315 L 351 314 Q 445 313 473 286 Q 478 282 482 282 Q 485 284 484 288 Q 481 329 474 355 Q 471 372 452 369 Q 378 365 270 365 Q 270 432 273 478 Q 274 511 233 512 Q 172 512 142 462 Q 139 458 140 455 Q 141 452 146 453 Q 206 466 207 432 Q 208 398 208 366 Q 189 366 156 367 Q 150 425 118 475 Q 102 499 84 482 Q 53 453 37 429 Q 30 421 40 418 Q 102 401 148 367 Z" fill="black" />
  </g>
  <g class="defect" id="01">
    <path d="M 243 79 Q 198 60 187 77" fill="none" stroke="red" stroke-width="3" />
  </g>
  <g class="defect" id="02">
    <path d="M 79 270 Q 76 281 46 267" fill="none" stroke="red" stroke-width="3" />
  </g>
</svg>