<svg xmlns="http://www.w3.org/2000/svg" width="512" height="512" viewBox="0 0 512 512">
  <g class="glyph">
    <path d="M 390 293 Q 397 293 396 285 V 212 H 359 V 285 Q 359 294 367 294 Q 379 295 390 293 Z M 23 414 Q 14 416 12 408 Q 5 380 1 350 Q 0 343 7 342 Q 109 338 179 329 Q 189 326 188 336 Q 185 372 168 374 Q 164 375 155 378 Q 72 399 23 414 Z M 116 252 Q 145 252 177 248 Q 185 246 184 255 Q 182 293 167 292 Q 108 300 30 303 Q 13 301 22 286 Q 54 246 87 199 Q 46 203 17 203 Q 0 200 9 185 Q 78 72 99 7 Q 101 0 108 4 Q 127 17 155 30 Q 161 33 156 39 Q 151 45 129 80 Q 97 131 85 148 Q 82 152 83 154 Q 83 156 88 156 Q 104 156 115 155 Q 137 117 142 100 Q 145 92 150 97 Q 170 111 193 124 Q 202 128 195 134 Q 188 143 180 153 Q 195 157 209 159 Q 209 52 203 41 Q 202 37 204 35 Q 206 34 209 35 Q 237 40 264 41 Q 270 41 269 48 Q 266 69 266 103 Q 265 110 265 124 Q 265 130 265 139 Q 265 146 265 162 H 271 Q 280 162 307 162 V 161 Q 308 47 300 28 Q 299 24 299 22 Q 300 21 304 21 Q 335 25 359 25 Q 363 24 362 30 Q 361 46 360 115 Q 370 116 359 162 Q 366 162 378 162 Q 390 162 396 162 Q 396 149 397 125 Q 397 106 397 96 Q 397 28 390 11 Q 390 5 394 7 Q 415 12 449 13 Q 455 11 453 18 Q 450 32 449 58 Q 448 80 448 158 Q 482 156 502 137 Q 505 133 509 134 Q 512 135 512 140 Q 510 178 507 201 Q 504 214 490 213 Q 485 213 473 213 Q 457 212 448 212 Q 448 299 451 327 Q 451 328 451 330 Q 453 344 452 347 Q 450 351 431 349 Q 372 343 322 349 Q 321 349 319 350 Q 306 352 304 349 Q 301 344 304 330 Q 306 303 307 212 L 265 213 Q 265 340 266 380 Q 266 393 280 392 Q 311 393 368 393 Q 417 392 438 392 Q 476 391 488 381 Q 495 380 495 385 Q 495 414 489 445 Q 489 452 480 451 Q 451 448 354 447 Q 308 447 270 447 Q 233 447 217 448 Q 202 451 206 433 Q 223 371 209 214 L 183 215 Q 174 217 174 208 Q 171 185 170 166 Q 142 207 113 244 Q 110 249 110 250 Q 111 252 116 252 Z" fill="black" />
  </g>
  <g class="defect" id="01">
    <path d="M 206 433 Q 223 371 209 214" fill="none" stroke="red" stroke-width="3" />
  </g>
  <g class="defect" id="02">
    <path d="M 360 115 Q 370 116 359 162" fill="none" stroke="red" stroke-width="3" />
  </g>
</svg>