<svg xmlns="http://www.w3.org/2000/svg" width="512" height="512" viewBox="0 0 512 512">
  <g class="glyph">
    <path d="M 119 284 Q 132 284 157 284 Q 201 284 220 284 Q 208 255 199 222 Q 164 223 170 223 Q 162 223 152 223 Q 145 223 130 223 Q 120 223 120 231 Z M 260 2 Q 273 4 315 5 Q 320 5 319 11 Q 317 24 316 54 Q 420 54 433 34 Q 438 29 441 31 Q 444 32 443 39 Q 441 75 436 100 Q 435 112 421 109 Q 385 106 316 105 Q 316 135 316 141 Q 317 146 310 146 Q 266 146 254 145 Q 247 143 251 138 Q 256 132 258 105 Q 226 105 210 105 Q 190 105 174 105 Q 174 137 175 150 Q 175 155 168 155 Q 128 154 111 153 Q 106 153 108 148 Q 116 136 117 106 Q 43 108 19 111 Q 4 115 4 103 Q 1 73 0 49 Q 0 44 2 43 Q 4 42 8 44 Q 7 52 117 54 Q 117 28 113 5 Q 112 0 118 2 Q 137 5 173 6 Q 178 6 177 12 Q 175 29 175 54 H 259 Q 257 14 256 6 Q 255 1 260 2 Z M 352 152 Q 362 162 379 183 Q 387 192 390 196 Q 394 201 392 205 Q 375 208 385 209 Q 313 216 259 219 Q 285 237 283 283 Q 392 281 418 272 Q 442 268 430 280 Q 429 307 427 329 Q 427 339 416 337 Q 369 334 312 334 Q 345 379 386 401 Q 415 420 441 377 Q 448 367 454 367 Q 459 369 458 380 Q 454 436 440 474 Q 424 512 382 487 Q 294 436 242 333 Q 222 332 195 332 Q 181 332 164 332 Q 150 332 119 332 Q 119 383 120 396 Q 120 406 129 405 Q 168 399 224 386 Q 240 383 233 406 Q 188 455 63 483 Q 48 485 52 465 Q 57 421 59 334 Q 60 237 56 185 Q 54 175 63 175 Q 221 179 339 150 Q 348 146 352 152 Z" fill="black" />
  </g>
  <g class="defect" id="01">
    <path d="M 259 219 Q 285 237 283 283" fill="none" stroke="red" stroke-width="3" />
  </g>
  <g class="defect" id="02">
    <path d="M 418 272 Q 442 268 430 280" fill="none" stroke="red" stroke-width="3" />
  </g>
  <g class="defect" id="03">
    <path d="M 392 205 Q 375 208 385 209" fill="none" stroke="red" stroke-width="3" />
  </g>
</svg>