<svg xmlns="http://www.w3.org/2000/svg" width="512" height="512" viewBox="0 0 512 512">
  <g class="glyph">
    <path d="M 144 281 Q 144 289 158 288 Q 160 288 168 288 Q 180 289 186 289 Q 195 277 202 264 H 144 Q 144 277 144 281 Z M 147 215 Q 146 219 145 231 H 214 Q 217 219 219 205 Q 183 205 162 206 Q 150 209 147 215 Z M 319 205 Q 314 205 302 205 Q 283 205 272 205 Q 270 218 267 231 Q 280 231 304 231 Q 331 231 342 230 Q 342 227 341 222 Q 341 220 341 220 Q 340 206 319 205 Z M 340 276 Q 340 274 340 272 Q 341 267 341 264 Q 326 264 287 264 Q 267 264 257 264 Q 252 277 245 289 Q 297 289 325 288 Q 338 287 340 277 Q 340 276 340 276 Z M 292 1 Q 311 4 342 5 Q 347 5 345 10 Q 344 23 343 48 H 344 Q 411 44 434 30 Q 439 27 442 29 Q 444 30 444 34 Q 442 68 439 91 Q 437 101 426 100 Q 399 99 343 98 Q 343 130 343 136 Q 343 141 337 141 Q 314 141 285 140 Q 280 140 283 135 Q 288 126 290 97 Q 250 97 230 97 Q 207 97 188 97 Q 188 127 189 133 Q 190 142 182 141 Q 179 140 157 140 Q 136 139 132 139 Q 127 138 129 133 Q 134 126 136 98 Q 89 100 48 103 Q 36 104 35 94 Q 34 84 32 57 Q 31 49 31 45 Q 31 36 39 39 Q 53 49 98 49 Q 116 50 138 50 Q 137 20 134 6 Q 132 0 139 1 Q 156 4 188 5 Q 193 5 192 10 Q 190 27 189 51 Q 227 51 291 50 V 48 Q 291 20 287 5 Q 286 2 288 1 Q 289 0 292 1 Z M 397 162 Q 414 160 409 176 Q 402 196 402 241 Q 401 288 406 314 Q 411 331 394 329 Q 373 328 321 327 Q 271 326 218 327 Q 189 361 148 379 Q 164 380 186 380 Q 196 380 208 380 Q 219 380 239 380 Q 238 353 235 338 Q 234 335 235 335 Q 236 334 239 334 Q 267 338 298 338 Q 303 338 303 342 Q 301 355 301 380 Q 360 378 384 377 Q 466 376 473 354 Q 479 349 482 350 Q 486 352 485 359 Q 482 391 474 425 Q 472 434 461 433 Q 381 429 301 428 Q 302 473 305 496 Q 323 527 291 511 Q 248 511 212 498 Q 207 496 207 494 Q 208 491 212 490 Q 238 487 239 452 Q 239 449 239 443 Q 240 433 240 427 Q 70 426 20 433 Q 6 437 6 426 Q 1 399 0 369 Q 0 365 2 364 Q 4 363 8 366 Q 27 377 78 378 Q 79 378 82 378 Q 84 378 86 378 Q 78 367 69 352 Q 67 348 69 346 Q 71 344 75 346 Q 95 355 116 343 Q 130 336 141 329 Q 113 329 94 331 Q 78 333 82 316 Q 87 288 86 243 Q 86 200 80 177 Q 75 162 91 164 Q 116 166 187 166 Q 193 141 197 107 Q 198 101 205 103 Q 230 110 263 121 Q 271 124 264 130 Q 248 146 218 166 Q 339 166 397 162 Z" fill="black" />
  </g>
  <g class="defect" id="01">
    <path d="M 384 377 Q 466 376 473 354" fill="none" stroke="red" stroke-width="3" />
  </g>
  <g class="defect" id="02">
    <path d="M 305 496 Q 323 527 291 511" fill="none" stroke="red" stroke-width="3" />
  </g>
</svg>