<svg xmlns="http://www.w3.org/2000/svg" width="512" height="512" viewBox="0 0 512 512">
  <g class="glyph">
    <path d="M 283 347 Q 336 358 379 356 Q 384 356 385 358 Q 385 360 381 363 Q 370 374 348 410 Q 355 438 328 414 Q 299 390 280 354 Q 278 350 279 349 Q 280 347 283 347 Z M 353 330 Q 320 328 277 328 Q 277 333 277 344 Q 276 392 278 426 Q 280 437 270 436 Q 238 436 212 431 Q 208 430 207 429 Q 207 427 210 424 Q 224 414 225 389 L 227 354 Q 197 390 163 421 Q 149 434 139 420 Q 126 397 119 376 Q 117 372 120 370 Q 121 369 126 371 Q 138 378 154 368 Q 179 353 207 328 Q 172 329 147 331 Q 137 332 136 325 Q 134 316 133 291 Q 133 285 133 283 Q 133 276 141 279 Q 151 283 169 284 Q 188 285 228 285 Q 227 273 225 262 Q 220 262 211 262 Q 196 263 191 262 Q 172 263 155 233 Q 152 229 153 228 Q 154 227 157 227 Q 220 243 290 211 Q 297 206 302 211 Q 327 234 337 246 Q 340 250 339 252 Q 339 255 333 256 Q 321 257 278 260 L 277 285 Q 333 283 358 277 Q 365 274 365 281 Q 365 300 363 322 Q 363 332 353 330 Z M 19 110 Q 9 112 8 103 Q 3 77 1 44 Q 0 39 3 37 Q 6 36 12 39 Q 34 57 84 57 L 148 59 Q 147 17 145 6 Q 144 0 150 2 Q 172 6 204 8 Q 210 8 208 13 Q 207 25 206 60 Q 238 60 255 60 Q 274 60 290 59 V 55 Q 290 22 287 7 Q 285 4 287 3 Q 288 2 291 3 Q 306 6 343 7 Q 349 7 347 12 Q 346 22 344 58 L 399 57 Q 464 56 492 29 Q 497 23 501 25 Q 505 26 505 33 Q 504 72 498 100 Q 495 112 485 110 Q 416 106 344 106 Q 344 130 345 137 Q 346 143 338 142 Q 298 142 285 141 Q 279 140 282 135 Q 287 127 288 105 H 206 Q 206 130 206 137 Q 206 143 199 143 Q 158 143 146 142 Q 141 141 142 135 Q 145 126 147 106 Q 80 106 19 110 Z M 115 225 Q 113 297 115 426 Q 114 441 130 441 Q 190 432 256 443 Q 336 443 370 442 Q 386 441 386 426 Q 387 385 386 318 Q 385 257 382 224 Q 381 212 364 210 Q 324 207 255 207 Q 184 206 133 208 Q 116 209 115 225 Z M 459 491 Q 464 512 437 507 Q 379 499 264 497 Q 146 497 55 504 Q 38 505 40 492 Q 51 420 51 326 Q 52 231 43 161 Q 41 151 44 150 Q 46 148 55 148 Q 152 156 255 155 Q 354 155 433 146 Q 447 144 449 147 Q 452 149 451 160 Q 445 235 448 323 Q 450 410 459 491 Z" fill="black" />
  </g>
  <g class="defect" id="01">
    <path d="M 157 227 Q 220 243 290 211" fill="none" stroke="red" stroke-width="3" />
  </g>
  <g class="defect" id="02">
    <path d="M 130 441 Q 190 432 256 443" fill="none" stroke="red" stroke-width="3" />
  </g>
  <g class="defect" id="03">
    <path d="M 348 410 Q 355 438 328 414" fill="none" stroke="red" stroke-width="3" />
  </g>
</svg>