<svg xmlns="http://www.w3.org/2000/svg" width="512" height="512" viewBox="0 0 512 512">
  <g class="glyph">
    <path d="M 270 220 Q 271 230 281 230 Q 300 230 333 230 Q 361 230 371 229 Q 381 228 382 220 Q 383 210 382 198 Q 381 191 370 191 Q 356 190 326 190 Q 297 190 281 191 Q 270 191 270 198 Q 269 209 270 220 Z M 32 332 Q 21 322 3 291 Q 0 288 2 285 Q 3 283 7 283 Q 23 288 43 267 Q 120 190 131 143 Q 132 138 135 137 Q 137 137 141 140 Q 159 154 190 170 Q 195 173 189 178 Q 180 186 159 211 Q 157 214 154 218 Q 138 238 118 261 Q 147 268 146 278 Q 146 295 146 364 Q 145 443 145 469 Q 146 484 132 481 Q 103 480 67 468 Q 62 466 62 463 Q 61 461 66 459 Q 84 451 87 432 Q 82 380 97 296 Q 97 292 97 285 Q 75 309 54 329 Q 41 342 32 332 Z M 434 149 Q 444 147 442 157 Q 432 196 436 257 Q 438 273 423 270 Q 395 267 331 267 Q 266 268 226 271 Q 211 273 214 256 Q 220 201 213 157 Q 211 148 222 149 Q 258 153 320 153 Q 383 153 434 149 Z M 300 2 Q 311 6 349 6 Q 354 6 353 10 Q 351 21 350 53 Q 440 50 454 44 Q 460 42 462 43 Q 465 44 464 51 Q 464 55 464 63 Q 463 85 462 96 Q 461 107 446 105 Q 418 101 349 100 Q 349 119 350 131 Q 351 137 344 137 Q 343 137 339 137 Q 303 137 293 136 Q 287 135 289 131 Q 294 124 296 100 Q 258 99 220 100 Q 220 125 220 130 Q 220 137 214 137 Q 174 137 164 136 Q 160 136 162 131 Q 167 122 168 100 Q 100 102 75 105 Q 59 108 59 98 Q 58 86 57 53 Q 57 50 58 49 Q 59 48 64 50 Q 79 53 169 54 V 48 Q 169 26 167 9 Q 166 2 170 4 Q 182 6 219 6 Q 224 7 223 11 Q 222 29 220 55 Q 249 55 265 55 Q 282 55 297 54 V 43 Q 297 27 294 6 Q 293 0 300 2 Z M 356 280 Q 354 288 353 301 Q 410 301 434 298 Q 457 296 470 287 Q 476 283 478 285 Q 481 286 480 292 Q 478 312 472 338 Q 471 346 459 345 L 374 344 Q 425 374 456 388 Q 484 401 503 391 Q 508 389 510 390 Q 512 392 511 396 Q 500 430 482 452 Q 469 468 449 452 Q 407 421 351 364 Q 351 435 354 481 Q 367 492 344 492 Q 315 492 289 490 Q 286 489 285 487 Q 284 485 287 483 Q 296 477 296 456 Q 300 412 301 368 Q 265 414 225 449 Q 196 478 155 419 Q 138 414 153 412 Q 154 409 159 411 Q 180 417 207 397 Q 240 373 273 344 Q 218 345 196 346 Q 186 348 185 341 Q 182 322 181 299 Q 181 293 183 293 Q 185 292 190 295 Q 195 298 217 300 Q 239 301 300 301 Q 298 287 294 275 Q 292 271 293 270 Q 294 269 298 270 Q 328 273 352 274 Q 358 274 356 280 Z" fill="black" />
  </g>
  <g class="defect" id="01">
    <path d="M 354 481 Q 367 492 344 492" fill="none" stroke="red" stroke-width="3" />
  </g>
  <g class="defect" id="02">
    <path d="M 87 432 Q 82 380 97 296" fill="none" stroke="red" stroke-width="3" />
  </g>
  <g class="defect" id="03">
    <path d="M 155 419 Q 138 414 153 412" fill="none" stroke="red" stroke-width="3" />
  </g>
</svg>