<svg xmlns="http://www.w3.org/2000/svg" width="512" height="512" viewBox="0 0 512 512">
  <g class="glyph">
    <path d="M 91 373 V 393 Q 104 393 142 393 V 372 Z M 91 333 V 344 Q 105 345 142 345 V 323 Q 133 323 118 324 Q 105 324 100 324 Q 92 324 91 333 Z M 232 324 Q 226 324 213 324 Q 198 323 190 323 V 345 Q 225 345 245 343 Q 245 341 244 337 Q 244 334 244 333 Q 243 323 232 324 Z M 244 373 Q 216 372 190 372 V 393 Q 220 393 246 392 V 373 Z M 335 224 Q 331 250 327 270 Q 325 279 315 278 Q 270 276 190 276 V 293 Q 266 292 289 290 Q 299 289 298 299 Q 295 329 295 383 Q 296 433 300 460 Q 301 459 306 460 Q 335 461 343 454 Q 353 447 353 423 Q 354 369 351 212 Q 351 200 335 201 Q 296 201 267 201 L 269 204 Q 269 212 265 240 H 267 Q 304 239 326 221 Q 328 217 332 217 Q 335 218 335 224 Z M 267 1 Q 284 3 318 4 Q 323 4 322 9 Q 321 16 320 44 Q 425 41 442 34 Q 449 31 451 33 Q 453 35 452 42 Q 451 71 449 86 Q 448 97 434 95 Q 420 77 319 91 Q 319 128 320 135 Q 320 140 314 140 Q 289 140 260 139 Q 255 139 258 134 Q 263 125 265 90 Q 221 90 176 90 Q 176 108 177 113 Q 178 121 170 120 Q 147 120 134 120 Q 167 129 168 133 Q 163 138 149 146 Q 139 153 133 157 Q 345 156 401 148 Q 415 145 415 159 Q 413 179 413 218 Q 412 259 413 311 Q 416 428 420 479 Q 425 512 393 511 Q 327 511 301 471 Q 302 493 275 493 Q 226 493 207 465 Q 204 462 205 460 Q 206 457 210 458 Q 246 461 245 437 Q 245 435 245 430 Q 246 425 246 422 Q 218 421 191 421 L 193 476 Q 195 487 184 486 Q 160 486 136 484 Q 132 483 131 481 Q 131 480 134 477 Q 141 466 141 429 V 421 Q 116 421 92 422 V 486 Q 92 495 81 495 Q 57 493 26 487 Q 23 486 22 484 Q 22 481 26 480 Q 42 473 43 440 Q 45 391 44 350 Q 43 311 41 298 Q 39 295 41 292 Q 42 290 46 291 Q 81 294 142 294 V 276 Q 48 277 22 279 Q 7 280 6 271 Q 4 263 2 245 Q 1 236 1 233 Q 0 229 2 228 Q 4 227 9 229 Q 22 240 72 240 Q 103 241 141 241 Q 140 220 136 208 Q 135 206 135 205 Q 136 204 139 204 Q 167 208 189 208 Q 196 208 193 216 Q 192 225 191 241 Q 221 241 245 240 Q 228 232 219 225 Q 216 223 216 221 Q 216 220 220 219 Q 240 208 264 201 Q 91 202 46 205 Q 21 206 36 202 Q 34 198 39 192 Q 83 139 92 114 Q 94 108 104 111 Q 104 111 105 111 L 118 115 Q 118 114 118 113 Q 118 112 119 111 Q 121 102 123 91 Q 51 92 21 95 Q 4 99 4 87 Q 3 79 2 50 Q 2 45 2 43 Q 1 36 9 39 Q 30 43 124 45 V 40 Q 124 18 120 5 Q 119 0 125 1 Q 140 4 175 4 Q 181 4 180 9 Q 178 27 177 46 Q 192 46 221 46 Q 251 45 266 45 V 41 Q 266 19 262 4 Q 261 2 263 1 Q 264 0 267 1 Z" fill="black" />
  </g>
  <g class="defect" id="01">
    <path d="M 434 95 Q 420 77 319 91" fill="none" stroke="red" stroke-width="3" />
  </g>
  <g class="defect" id="02">
    <path d="M 46 205 Q 21 206 36 202" fill="none" stroke="red" stroke-width="3" />
  </g>
</svg>