<svg xmlns="http://www.w3.org/2000/svg" width="512" height="512" viewBox="0 0 512 512">
  <g class="glyph">
    <path d="M 215 188 Q 221 186 222 188 Q 224 190 221 196 Q 219 198 212 210 Q 200 229 194 236 Q 189 243 184 237 Q 163 217 154 203 Q 152 200 153 198 Q 154 197 157 197 Q 187 194 215 188 Z M 363 243 Q 435 243 456 239 Q 462 238 462 244 Q 463 275 461 330 Q 461 346 446 347 Q 413 347 389 319 Q 386 316 386 314 Q 386 312 390 312 Q 413 312 415 302 Q 416 298 416 285 Q 416 280 409 281 Q 337 282 312 284 Q 307 285 306 283 Q 305 281 306 277 Q 324 227 331 183 Q 333 178 338 181 Q 370 192 386 195 Q 391 197 388 201 Q 387 204 384 208 Q 369 232 363 243 Z M 378 307 Q 376 325 373 344 Q 416 382 456 411 Q 473 427 503 419 Q 512 419 508 429 Q 493 459 468 488 Q 451 506 430 480 Q 400 438 367 376 Q 356 436 344 470 Q 341 484 326 487 Q 313 491 264 491 Q 258 491 257 488 Q 257 486 262 482 Q 309 443 326 351 Q 331 317 328 298 Q 327 295 328 294 Q 329 293 332 294 Q 363 302 372 301 Q 379 301 378 307 Z M 300 236 Q 306 234 306 240 Q 305 266 304 273 Q 304 279 298 278 Q 289 278 246 278 Q 245 311 241 351 Q 257 351 261 350 Q 266 351 265 347 Q 265 309 263 295 Q 263 293 263 292 Q 264 291 265 292 Q 276 294 302 294 Q 308 293 307 298 Q 305 312 305 336 Q 305 363 306 379 Q 307 389 297 388 Q 295 388 292 388 Q 261 387 237 386 L 235 409 Q 222 492 181 492 Q 152 489 124 444 Q 121 440 123 438 Q 125 436 129 437 Q 158 444 170 437 Q 182 431 188 406 Q 207 418 189 401 Q 190 398 192 386 Q 162 386 147 388 Q 138 389 140 379 Q 141 361 141 331 Q 140 306 138 297 Q 138 292 142 293 Q 155 295 177 294 Q 183 294 182 299 Q 178 311 178 345 Q 178 350 183 350 Q 183 350 186 350 Q 192 350 197 350 Q 200 317 201 278 Q 154 279 143 280 Q 136 280 138 275 Q 136 257 135 241 Q 135 237 139 238 Q 146 240 172 240 Q 201 241 237 240 Q 243 203 243 186 Q 243 182 244 182 Q 245 181 250 182 Q 267 188 292 198 Q 298 199 294 204 Q 280 219 250 240 Q 287 239 300 236 Z M 310 2 Q 321 5 355 6 Q 359 6 358 11 Q 357 24 356 45 Q 461 42 479 35 Q 485 32 487 34 Q 489 35 488 42 Q 488 45 488 51 Q 488 74 486 85 Q 485 96 471 93 Q 444 91 356 90 Q 356 113 356 118 Q 356 122 350 122 Q 349 122 345 122 Q 312 123 302 121 Q 297 120 299 117 Q 304 110 305 90 H 223 Q 223 111 223 117 Q 223 123 217 123 Q 179 122 167 121 Q 162 120 164 117 Q 169 110 171 90 Q 86 91 57 93 Q 41 96 42 86 Q 40 74 39 44 Q 38 37 46 40 Q 81 44 172 45 V 38 Q 172 17 171 6 Q 170 0 175 2 Q 187 5 222 5 Q 228 5 227 10 Q 225 25 224 46 Q 255 46 272 46 Q 291 46 307 45 V 40 Q 307 18 305 6 Q 304 1 310 2 Z M 460 180 Q 427 179 300 178 Q 179 178 141 179 Q 128 178 129 189 Q 131 407 87 470 Q 71 497 48 475 Q 23 449 3 415 Q 0 409 2 406 Q 4 403 9 404 Q 42 414 52 385 Q 75 329 74 201 Q 74 163 69 138 Q 67 127 78 129 Q 97 131 156 133 Q 218 134 290 133 Q 432 132 465 125 Q 473 123 472 131 Q 472 162 471 172 Q 470 181 460 180 Z" fill="black" />
  </g>
  <g class="defect" id="01">
    <path d="M 188 406 Q 207 418 189 401" fill="none" stroke="red" stroke-width="3" />
  </g>
  <g class="defect" id="02">
    <path d="M 46 40 Q 81 44 172 45" fill="none" stroke="red" stroke-width="3" />
  </g>
</svg>