<svg xmlns="http://www.w3.org/2000/svg" width="512" height="512" viewBox="0 0 512 512">
  <g class="glyph">
    <path d="M 63 231 Q 70 233 78 233 Q 83 197 85 146 Q 81 146 74 146 Q 66 146 63 147 Q 57 148 56 154 Q 55 164 55 185 Q 54 207 55 224 Q 54 231 63 231 Z M 153 231 Q 162 231 162 224 Q 162 207 162 185 Q 162 165 161 153 Q 160 148 153 147 Q 151 147 146 147 Q 138 146 134 146 Q 132 194 128 233 Z M 436 482 Q 436 497 423 496 Q 381 491 350 479 Q 346 477 346 475 Q 346 472 350 471 Q 371 465 373 433 Q 375 389 375 332 Q 375 302 370 291 Q 366 285 374 284 Q 410 295 424 301 Q 432 305 432 315 Q 432 413 436 482 Z M 470 55 Q 477 51 478 59 Q 478 82 476 108 Q 475 118 463 117 Q 437 116 404 116 Q 426 131 438 138 Q 445 142 438 147 L 412 175 Q 409 177 405 182 Q 396 191 392 195 Q 431 215 448 220 Q 479 234 502 217 Q 512 214 510 225 Q 487 282 471 298 Q 456 314 436 300 Q 402 278 350 234 Q 316 262 283 285 Q 314 291 323 291 Q 328 291 327 297 Q 323 313 322 340 Q 317 399 307 453 Q 308 490 214 491 Q 209 491 206 489 Q 205 486 209 482 Q 262 431 268 330 Q 268 308 265 297 L 257 302 Q 234 318 226 301 Q 218 290 211 277 Q 208 279 202 278 Q 168 276 122 276 Q 115 317 108 345 Q 104 356 114 356 Q 128 356 146 355 Q 152 355 152 347 Q 151 336 152 316 Q 152 308 152 305 Q 152 298 156 297 Q 160 296 162 301 Q 177 326 212 372 Q 216 377 218 379 Q 228 394 211 398 Q 189 402 133 403 Q 72 405 42 403 Q 30 403 28 397 Q 25 392 32 381 Q 58 332 70 276 Q 39 277 15 278 Q 0 279 4 266 Q 9 239 9 189 Q 11 137 7 108 Q 5 99 17 100 Q 50 104 86 104 Q 87 31 79 7 Q 78 3 79 1 Q 80 0 85 1 Q 110 6 139 8 Q 144 8 143 14 Q 136 50 135 104 Q 180 103 202 99 Q 212 97 211 107 Q 209 136 208 176 Q 191 216 210 246 Q 226 251 247 238 Q 273 222 307 196 Q 279 171 258 148 Q 249 138 253 129 Q 259 122 270 128 Q 315 154 341 168 Q 357 155 369 143 Q 400 127 385 115 Q 289 114 239 118 Q 225 120 225 107 Q 224 88 223 62 Q 223 55 229 57 Q 241 62 263 64 Q 284 66 329 66 Q 308 40 296 15 Q 292 8 300 8 Q 340 8 383 4 Q 388 3 389 6 Q 390 9 388 13 Q 370 45 350 66 Q 447 66 470 55 Z" fill="black" />
  </g>
  <g class="defect" id="01">
    <path d="M 208 176 Q 191 216 210 246" fill="none" stroke="red" stroke-width="3" />
  </g>
  <g class="defect" id="02">
    <path d="M 369 143 Q 400 127 385 115" fill="none" stroke="red" stroke-width="3" />
  </g>
</svg>