<svg xmlns="http://www.w3.org/2000/svg" width="512" height="512" viewBox="0 0 512 512">
  <g class="glyph">
    <path d="M 120 71 Q 103 46 89 9 Q 85 0 94 1 Q 107 4 131 5 Q 156 6 181 6 Q 189 6 185 14 Q 167 42 138 71 Q 127 82 120 71 Z M 39 92 Q 58 97 111 97 Q 181 97 192 93 Q 200 92 203 94 Q 205 97 202 104 Q 178 156 128 229 Q 151 238 151 252 Q 156 357 157 440 Q 158 455 145 454 Q 115 452 75 439 Q 67 434 74 430 Q 96 422 99 388 Q 104 353 104 276 Q 104 268 104 261 Q 84 288 67 304 Q 52 321 39 310 Q 27 301 5 266 Q 0 256 7 256 Q 14 255 41 245 Q 94 201 122 148 Q 122 148 122 147 Q 126 144 120 144 Q 73 128 43 146 Q 34 147 33 141 Q 32 129 31 95 Q 31 89 39 92 Z M 414 20 Q 418 24 427 33 Q 448 52 454 59 Q 459 66 458 69 Q 458 72 450 74 Q 424 80 370 85 Q 368 132 364 173 Q 421 173 440 170 Q 459 168 470 160 Q 476 156 479 157 Q 482 159 482 166 Q 480 190 475 221 Q 474 231 458 229 Q 423 227 366 227 Q 425 299 454 324 Q 469 335 478 338 Q 486 341 503 338 Q 512 337 508 349 Q 488 400 461 431 Q 446 446 433 428 Q 397 379 346 261 Q 320 359 266 426 Q 246 451 227 433 Q 199 408 180 383 Q 176 378 177 376 Q 179 373 185 373 Q 212 375 235 350 Q 280 304 298 227 Q 263 227 236 229 Q 227 231 226 221 Q 211 230 179 242 Q 169 246 164 248 Q 214 264 231 264 Q 234 264 235 266 Q 235 268 233 271 Q 221 289 204 306 Q 195 317 189 308 Q 172 289 155 253 Q 153 248 155 246 Q 170 223 183 187 Q 184 181 189 185 Q 190 185 192 187 Q 215 204 224 216 Q 222 199 222 171 Q 222 167 224 167 Q 226 166 231 168 Q 240 171 256 172 Q 271 173 307 173 Q 312 136 313 90 Q 311 90 308 91 Q 282 92 274 92 Q 249 95 222 64 Q 217 58 218 55 Q 219 53 226 53 Q 336 46 397 18 Q 404 10 414 20 Z" fill="black" />
  </g>
  <g class="defect" id="01">
    <path d="M 120 144 Q 73 128 43 146" fill="none" stroke="red" stroke-width="3" />
  </g>
  <g class="defect" id="02">
    <path d="M 7 256 Q 14 255 41 245" fill="none" stroke="red" stroke-width="3" />
  </g>
  <g class="defect" id="03">
    <path d="M 111 97 Q 181 97 192 93" fill="none" stroke="red" stroke-width="3" />
  </g>
</svg>