<svg xmlns="http://www.w3.org/2000/svg" width="512" height="512" viewBox="0 0 512 512">
  <g class="glyph">
    <path d="M 146 19 Q 156 17 158 20 Q 160 23 156 34 Q 143 68 121 101 Q 116 112 106 103 Q 75 78 51 40 Q 48 36 49 34 Q 51 32 55 32 Q 99 28 146 19 Z M 277 7 Q 285 6 286 9 Q 288 12 284 20 Q 265 55 241 88 Q 233 97 226 91 Q 200 63 176 21 Q 174 16 175 14 Q 176 12 183 12 Q 230 13 277 7 Z M 106 367 Q 102 367 101 365 Q 100 364 102 360 Q 107 352 108 337 Q 110 322 110 282 Q 110 226 107 207 Q 106 201 107 199 Q 109 197 116 199 Q 144 203 225 203 Q 305 203 334 198 Q 349 194 347 210 Q 344 241 345 294 Q 346 342 349 367 Q 351 374 343 374 Q 318 375 287 373 Q 281 373 283 367 Q 268 358 287 336 Q 288 313 288 259 Q 287 251 281 249 Q 268 249 229 249 Q 190 249 174 249 Q 167 249 168 259 Q 168 309 168 328 Q 169 344 170 359 Q 170 366 166 366 Q 157 367 140 367 Q 120 367 106 367 Z M 435 107 Q 449 106 446 114 Q 446 130 446 150 Q 446 169 448 187 Q 449 222 454 244 Q 414 240 376 244 Q 378 224 380 177 Q 381 166 368 167 Q 302 165 222 165 Q 144 165 87 168 Q 71 167 73 184 Q 73 194 74 218 Q 75 238 75 248 Q 26 246 5 248 Q 10 217 9 177 Q 9 138 2 117 Q 0 109 9 109 Q 145 120 294 116 Q 310 66 318 13 Q 318 0 331 6 Q 379 25 404 41 Q 415 47 404 55 Q 375 80 317 114 Q 376 113 435 107 Z M 256 279 Q 261 278 260 283 Q 255 316 241 348 Q 261 351 271 351 Q 274 351 275 352 Q 275 354 274 357 Q 267 378 267 410 Q 263 441 297 438 Q 369 438 398 424 Q 426 412 460 361 Q 465 355 469 356 Q 473 357 473 365 Q 472 429 465 467 Q 462 494 432 495 Q 345 503 265 497 Q 213 495 215 436 V 396 Q 179 453 128 487 Q 95 509 68 509 Q 33 512 9 426 Q 6 417 11 413 Q 16 410 24 416 Q 44 432 57 433 Q 71 436 94 426 Q 156 396 191 338 Q 209 297 200 275 Q 180 270 205 271 Q 229 277 256 279 Z" fill="black" />
  </g>
  <g class="defect" id="01">
    <path d="M 283 367 Q 268 358 287 336" fill="none" stroke="red" stroke-width="3" />
  </g>
  <g class="defect" id="02">
    <path d="M 200 275 Q 180 270 205 271" fill="none" stroke="red" stroke-width="3" />
  </g>
</svg>