<svg xmlns="http://www.w3.org/2000/svg" width="512" height="512" viewBox="0 0 512 512">
  <g class="glyph">
    <path d="M 93 130 Q 61 103 31 62 Q 26 56 27 53 Q 28 49 34 49 Q 82 45 137 36 Q 144 35 145 37 Q 148 40 145 46 Q 130 93 112 126 Q 105 140 93 130 Z M 141 207 Q 139 227 135 278 Q 133 313 133 368 Q 133 381 146 377 Q 160 372 177 363 Q 186 359 190 357 Q 199 353 203 359 Q 207 365 203 377 Q 151 454 75 478 Q 56 482 59 461 Q 59 400 70 262 Q 71 252 60 253 Q 35 253 9 255 Q 3 256 2 252 Q 0 224 0 198 Q 1 192 7 194 Q 23 198 62 199 Q 104 199 132 196 Q 143 194 141 207 Z M 431 200 Q 442 198 444 204 Q 447 210 440 217 Q 360 292 302 375 Q 288 396 294 406 Q 300 416 325 417 Q 405 420 434 403 Q 465 389 497 331 Q 511 306 506 324 Q 511 325 511 333 Q 512 412 509 450 Q 507 475 487 477 Q 452 482 383 482 Q 327 483 272 479 Q 231 475 219 447 Q 207 419 230 380 Q 265 324 320 262 Q 258 262 219 265 Q 207 266 207 257 Q 203 235 203 199 Q 205 189 214 195 Q 228 208 294 207 Q 353 207 381 206 Q 409 204 431 200 Z M 328 20 Q 336 22 331 29 Q 327 36 312 58 Q 290 90 283 101 Q 344 101 412 98 Q 451 97 469 85 Q 475 81 478 83 Q 482 84 482 91 Q 481 113 476 147 Q 475 157 463 157 Q 422 155 340 155 Q 259 156 215 158 Q 203 157 206 145 Q 237 69 247 8 Q 247 0 255 3 Q 290 13 328 20 Z" fill="black" />
  </g>
  <g class="defect" id="01">
    <path d="M 497 331 Q 511 306 506 324" fill="none" stroke="red" stroke-width="3" />
  </g>
  <g class="defect" id="02">
    <path d="M 59 461 Q 59 400 70 262" fill="none" stroke="red" stroke-width="3" />
  </g>
  <g class="defect" id="03">
    <path d="M 383 482 Q 327 483 272 479" fill="none" stroke="red" stroke-width="3" />
  </g>
</svg>