<svg xmlns="http://www.w3.org/2000/svg" width="512" height="512" viewBox="0 0 512 512">
  <g class="glyph">
    <path d="M 100 134 Q 105 133 107 135 Q 109 137 106 142 Q 90 176 78 193 Q 71 203 64 196 Q 48 178 32 151 Q 28 142 35 142 Q 53 142 100 134 Z M 393 136 Q 398 135 399 137 Q 400 138 399 144 Q 389 174 373 200 Q 366 210 359 202 Q 343 184 327 153 Q 324 145 330 144 Q 353 144 393 136 Z M 367 8 Q 376 17 373 1 Q 408 5 449 5 Q 456 4 457 7 Q 458 10 455 16 Q 441 38 411 67 Q 403 73 397 66 Q 381 43 367 8 Z M 488 120 Q 455 117 409 117 Q 364 117 327 119 Q 320 120 319 114 Q 316 90 315 70 Q 316 67 321 67 Q 350 70 404 70 Q 459 70 494 68 Q 501 67 500 72 Q 500 93 498 113 Q 497 121 488 120 Z M 186 119 Q 125 114 29 119 Q 23 119 21 114 Q 18 87 18 71 Q 19 68 23 68 Q 55 71 107 70 Q 105 70 102 67 Q 86 49 67 16 Q 65 13 67 11 Q 68 9 72 9 Q 111 10 150 5 Q 156 4 158 6 Q 159 9 156 14 Q 144 38 117 67 Q 114 69 112 70 Q 149 70 192 67 Q 199 66 199 72 Q 199 89 195 112 Q 194 120 186 119 Z M 239 26 Q 236 20 238 19 Q 240 17 247 19 Q 259 22 302 27 Q 309 27 307 36 Q 301 62 301 128 Q 301 271 295 336 Q 285 472 241 466 Q 195 465 156 398 Q 153 392 155 390 Q 158 387 164 389 Q 207 404 220 390 Q 235 378 241 319 Q 266 227 249 106 Q 249 54 239 26 Z M 490 300 Q 501 296 500 304 Q 499 323 496 348 Q 494 357 482 355 Q 473 354 435 353 L 436 475 Q 437 493 422 492 Q 380 486 349 463 Q 345 460 345 459 Q 345 457 349 456 Q 366 451 370 443 Q 375 437 377 413 L 380 353 Q 353 354 338 356 Q 331 357 329 350 Q 326 336 325 308 Q 325 300 333 303 Q 344 307 381 308 Q 381 299 382 282 Q 382 266 382 259 Q 350 260 321 262 Q 313 263 312 253 Q 312 248 310 234 Q 308 216 308 211 Q 308 207 309 207 Q 310 205 313 207 Q 342 212 416 211 Q 425 158 427 130 Q 428 123 436 126 Q 468 137 483 147 Q 492 152 484 159 Q 481 162 473 170 Q 444 200 430 210 Q 437 210 444 210 Q 486 208 503 194 Q 511 189 512 196 Q 512 222 508 247 Q 507 262 495 260 Q 473 259 433 259 L 435 307 Q 475 305 490 300 Z M 133 127 Q 144 130 174 141 Q 182 144 185 145 Q 194 148 186 156 Q 164 178 129 204 Q 160 202 181 195 Q 189 193 190 197 Q 213 169 226 136 Q 228 132 231 132 Q 234 133 234 137 Q 235 162 235 195 Q 234 228 231 246 Q 226 267 209 254 Q 200 246 189 236 V 237 Q 188 250 176 249 L 137 247 Q 136 271 133 293 Q 164 292 179 288 Q 191 285 188 293 Q 187 317 184 332 Q 183 340 171 338 Q 169 338 164 338 Q 143 337 129 336 Q 112 476 70 476 Q 38 478 4 426 Q 0 421 2 418 Q 3 415 10 416 Q 43 420 53 406 Q 64 393 75 335 Q 51 335 34 336 Q 27 337 24 331 Q 23 323 20 298 Q 20 294 20 293 Q 29 285 28 288 Q 40 292 80 293 Q 82 271 84 247 Q 56 247 20 249 Q 13 250 12 241 Q 12 238 11 228 Q 8 205 8 199 Q 8 194 14 196 Q 27 201 46 202 Q 63 204 115 204 H 116 Q 122 169 125 131 Q 126 125 133 127 Z" fill="black" />
  </g>
  <g class="defect" id="01">
    <path d="M 367 8 Q 376 17 373 1" fill="none" stroke="red" stroke-width="3" />
  </g>
  <g class="defect" id="02">
    <path d="M 20 293 Q 29 285 28 288" fill="none" stroke="red" stroke-width="3" />
  </g>
  <g class="defect" id="03">
    <path d="M 241 319 Q 266 227 249 106" fill="none" stroke="red" stroke-width="3" />
  </g>
</svg>