<svg xmlns="http://www.w3.org/2000/svg" width="512" height="512" viewBox="0 0 512 512">
  <g class="glyph">
    <path d="M 100 133 Q 105 132 107 134 Q 108 136 106 141 Q 90 175 77 192 Q 71 202 63 195 Q 47 177 32 150 Q 28 141 34 141 Q 53 141 100 133 Z M 393 136 Q 399 135 400 136 Q 386 138 400 144 Q 389 173 372 199 Q 365 209 357 201 Q 340 181 324 153 Q 321 144 327 144 Q 352 143 393 136 Z M 253 127 Q 230 102 212 74 Q 208 69 208 68 Q 209 65 215 64 Q 273 53 292 47 Q 298 45 299 46 Q 300 48 298 53 Q 288 91 270 124 Q 264 135 253 127 Z M 185 118 Q 124 113 29 118 Q 22 118 21 113 Q 17 86 17 70 Q 19 67 23 67 Q 54 70 107 69 Q 104 69 102 66 Q 85 48 67 15 Q 65 12 66 10 Q 67 8 72 8 Q 110 9 150 4 Q 156 3 158 5 Q 159 7 156 13 Q 144 37 117 66 Q 114 68 111 69 Q 149 69 192 66 Q 199 65 198 71 Q 198 88 195 111 Q 194 119 185 118 Z M 488 119 Q 456 117 409 116 Q 361 116 322 119 Q 316 119 315 114 Q 311 90 311 70 Q 312 66 317 66 Q 344 69 397 69 Q 395 69 394 66 Q 378 43 364 8 Q 361 0 370 1 Q 405 5 445 5 Q 452 4 453 7 Q 455 10 451 16 Q 438 38 408 67 L 404 69 Q 466 69 494 67 Q 501 66 500 71 Q 500 92 498 112 Q 497 120 488 119 Z M 132 126 Q 144 129 174 140 Q 182 143 185 144 Q 193 148 186 155 Q 164 177 129 203 Q 160 201 181 194 Q 190 191 190 197 Q 190 202 190 213 Q 190 229 189 236 Q 188 249 176 248 L 136 246 Q 152 251 134 291 Q 166 290 180 287 Q 192 283 190 291 Q 188 321 186 332 Q 185 340 173 339 Q 172 339 167 338 Q 145 337 129 337 Q 112 477 70 478 Q 38 480 4 428 Q 0 422 2 420 Q 3 417 10 417 Q 43 421 53 407 Q 64 394 75 337 Q 51 337 34 338 Q 27 339 25 332 Q 22 322 19 292 Q 18 285 27 287 Q 40 291 80 292 Q 82 278 83 246 Q 55 246 19 248 Q 13 249 12 240 Q 11 237 10 227 Q 7 204 7 198 Q 7 193 14 195 Q 27 200 46 201 Q 63 203 115 203 H 116 Q 122 168 125 130 Q 125 124 132 126 Z M 490 299 Q 501 295 500 304 Q 499 322 495 347 Q 494 356 482 354 Q 472 353 436 352 L 437 475 Q 438 493 423 492 Q 381 486 350 463 Q 346 460 346 459 Q 346 457 350 456 Q 367 451 371 443 Q 376 437 378 413 L 381 353 Q 352 354 336 355 Q 328 356 327 349 Q 325 343 323 324 Q 323 322 323 320 Q 293 371 239 398 Q 231 401 227 399 Q 224 396 225 388 Q 232 323 232 218 Q 233 210 227 210 Q 220 210 210 211 Q 204 212 200 212 Q 196 212 195 208 Q 193 191 193 165 Q 194 160 199 162 Q 232 166 277 162 Q 285 160 284 172 Q 282 199 282 271 Q 282 294 282 306 Q 282 311 284 312 Q 286 313 289 310 Q 312 294 317 293 Q 324 294 326 302 Q 329 301 331 302 Q 343 306 382 307 Q 382 298 383 281 Q 383 265 383 258 Q 346 259 315 261 Q 307 263 307 253 Q 306 247 305 233 Q 303 215 303 210 Q 303 206 304 206 Q 305 205 307 206 Q 336 212 413 210 Q 423 157 425 129 Q 426 123 434 125 Q 467 136 485 146 Q 494 151 486 158 Q 482 162 470 173 Q 443 200 428 209 Q 436 209 444 209 Q 486 207 503 193 Q 511 189 512 196 Q 512 221 508 247 Q 507 261 495 259 Q 474 258 434 258 L 436 306 Q 488 304 490 299 Z" fill="black" />
  </g>
  <g class="defect" id="01">
    <path d="M 400 136 Q 386 138 400 144" fill="none" stroke="red" stroke-width="3" />
  </g>
  <g class="defect" id="02">
    <path d="M 136 246 Q 152 251 134 291" fill="none" stroke="red" stroke-width="3" />
  </g>
  <g class="defect" id="03">
    <path d="M 436 306 Q 488 304 490 299" fill="none" stroke="red" stroke-width="3" />
  </g>
</svg>