<svg xmlns="http://www.w3.org/2000/svg" width="512" height="512" viewBox="0 0 512 512">
  <g class="glyph">
    <path d="M 280 78 Q 288 75 288 81 Q 295 121 295 141 Q 295 148 287 145 Q 272 142 230 118 Q 224 112 230 109 Q 243 99 275 81 Q 279 79 280 78 Z M 382 73 Q 389 71 390 74 Q 392 76 389 83 Q 378 109 362 135 Q 339 143 352 137 Q 335 119 317 87 Q 314 81 319 81 Q 348 80 382 73 Z M 430 68 Q 449 79 476 98 Q 483 105 476 110 Q 449 127 403 147 Q 398 148 397 146 Q 395 144 398 141 Q 398 140 400 136 Q 419 90 422 71 Q 424 65 430 68 Z M 87 132 Q 87 143 101 144 Q 122 145 133 143 Q 143 142 143 129 Q 144 113 143 93 Q 143 79 131 79 Q 115 79 101 79 Q 87 79 87 91 Q 87 113 87 132 Z M 369 382 Q 434 411 493 419 Q 499 419 499 422 Q 499 426 494 430 Q 470 451 445 480 Q 431 498 416 481 Q 388 451 362 389 Q 360 384 362 381 Q 364 379 369 382 Z M 433 6 Q 441 0 449 7 Q 474 29 488 43 Q 492 48 491 50 Q 489 54 482 55 Q 426 62 265 68 Q 243 71 220 42 Q 216 39 217 36 Q 217 33 222 34 Q 351 29 433 6 Z M 79 313 V 352 L 100 349 V 189 Q 75 189 49 191 Q 36 194 38 179 Q 41 156 41 116 Q 41 74 37 41 Q 36 33 45 34 Q 121 42 186 33 Q 193 32 194 34 Q 196 35 195 42 Q 192 67 192 108 Q 192 149 194 179 Q 196 193 180 191 L 147 189 V 246 Q 189 246 186 238 Q 195 234 195 242 Q 195 255 194 283 Q 194 292 184 291 Q 171 290 147 289 V 343 Q 171 340 194 335 Q 204 333 202 344 Q 196 377 186 377 Q 89 401 27 421 Q 16 425 13 415 Q 4 383 1 356 Q 0 350 3 349 Q 5 348 10 350 Q 16 357 33 356 V 310 Q 33 253 28 228 Q 27 223 28 222 Q 28 221 33 222 Q 53 226 79 228 Q 84 228 83 233 Q 79 257 79 313 Z M 193 445 Q 189 441 190 438 Q 191 435 196 436 Q 240 440 261 419 Q 279 401 293 377 Q 238 378 216 379 Q 206 380 206 370 Q 203 354 201 324 Q 201 319 203 318 Q 206 316 210 319 Q 225 327 313 329 Q 319 312 318 298 Q 316 298 312 298 Q 254 301 236 300 Q 227 299 223 290 Q 222 282 229 278 Q 275 253 316 225 Q 283 228 239 229 Q 222 223 233 208 Q 296 158 317 131 Q 320 126 324 129 Q 349 143 368 150 Q 372 152 368 156 Q 344 172 318 188 Q 315 189 316 192 Q 316 193 320 193 Q 333 193 361 192 Q 359 192 363 192 L 375 184 Q 399 164 402 153 Q 404 147 409 152 Q 423 163 448 180 Q 454 184 448 188 Q 427 202 361 241 Q 346 250 339 254 Q 335 257 335 258 Q 336 260 341 260 Q 370 260 412 256 Q 407 242 403 225 Q 401 220 403 218 Q 405 217 410 220 Q 450 245 489 263 Q 497 266 491 273 Q 466 296 448 307 Q 437 314 431 302 Q 430 300 427 295 Q 426 294 426 292 L 380 296 Q 376 305 368 328 Q 478 326 501 316 Q 507 313 509 314 Q 512 316 512 323 Q 511 350 508 370 Q 507 379 498 378 Q 453 376 352 376 Q 333 424 309 458 Q 286 491 260 492 Q 229 488 193 445 Z" fill="black" />
  </g>
  <g class="defect" id="01">
    <path d="M 362 135 Q 339 143 352 137" fill="none" stroke="red" stroke-width="3" />
  </g>
  <g class="defect" id="02">
    <path d="M 147 246 Q 189 246 186 238" fill="none" stroke="red" stroke-width="3" />
  </g>
</svg>