<svg xmlns="http://www.w3.org/2000/svg" width="512" height="512" viewBox="0 0 512 512">
  <g class="glyph">
    <path d="M 261 243 Q 278 217 262 190 L 228 192 Q 221 193 219 198 Q 216 216 217 235 Q 217 241 228 242 Q 244 243 261 243 Z M 359 242 Q 368 242 368 235 Q 368 215 366 198 Q 365 193 358 192 Q 355 192 348 192 Q 331 190 322 190 V 243 Q 338 243 359 242 Z M 343 300 Q 417 319 480 324 Q 486 325 486 328 Q 487 331 482 335 Q 457 359 431 396 Q 422 411 407 399 Q 365 364 338 307 Q 336 302 337 301 Q 338 299 343 300 Z M 73 167 Q 41 144 5 102 Q 0 97 1 94 Q 1 90 7 89 Q 82 70 120 56 Q 127 54 130 56 Q 132 57 131 63 Q 116 119 94 163 Q 87 178 73 167 Z M 493 380 Q 500 372 505 374 Q 510 377 509 388 Q 501 444 488 484 Q 481 512 447 508 Q 177 493 35 494 Q 19 494 20 480 Q 24 455 30 435 Q 46 432 30 424 Q 32 277 29 238 Q 28 228 39 230 Q 84 240 111 248 Q 122 250 117 261 Q 112 277 98 322 Q 74 401 65 429 Q 188 435 398 435 Q 450 439 493 380 Z M 216 290 219 288 173 289 Q 155 292 159 277 Q 163 244 163 209 Q 164 175 160 154 Q 158 143 171 145 Q 209 147 262 148 V 118 Q 186 119 161 120 Q 153 121 151 112 Q 148 90 147 63 Q 147 58 149 57 Q 151 56 156 58 Q 182 68 261 69 Q 258 26 251 7 Q 249 3 251 1 Q 253 0 259 1 Q 283 7 319 10 Q 329 9 326 19 Q 326 22 326 26 Q 324 45 323 68 Q 411 65 434 51 Q 445 45 446 56 Q 444 88 440 111 Q 438 120 427 119 L 322 118 Q 322 132 322 148 Q 376 147 415 144 Q 428 141 426 152 Q 423 184 423 219 Q 424 253 428 275 Q 430 290 417 289 Q 396 288 322 286 Q 322 290 322 297 Q 322 303 322 306 Q 323 324 324 361 Q 325 393 325 406 Q 326 423 314 422 Q 275 422 236 415 Q 228 414 228 411 Q 227 409 235 403 Q 256 393 258 345 L 260 287 Q 243 287 226 288 Q 240 307 227 293 Q 222 361 192 406 Q 182 421 169 410 Q 142 388 118 357 Q 111 348 120 345 Q 174 329 216 290 Z" fill="black" />
  </g>
  <g class="defect" id="01">
    <path d="M 261 243 Q 278 217 262 190" fill="none" stroke="red" stroke-width="3" />
  </g>
  <g class="defect" id="02">
    <path d="M 30 435 Q 46 432 30 424" fill="none" stroke="red" stroke-width="3" />
  </g>
  <g class="defect" id="03">
    <path d="M 226 288 Q 240 307 227 293" fill="none" stroke="red" stroke-width="3" />
  </g>
</svg>