<svg xmlns="http://www.w3.org/2000/svg" width="512" height="512" viewBox="0 0 512 512">
  <g class="glyph">
    <path d="M 276 18 Q 283 16 285 18 Q 287 21 285 28 Q 268 66 246 94 Q 238 103 232 95 Q 208 66 193 40 Q 189 35 190 32 Q 191 30 196 30 Q 242 25 276 18 Z M 68 162 Q 37 133 7 90 Q 0 80 10 78 Q 65 70 120 52 Q 127 51 129 52 Q 131 55 130 61 Q 115 109 88 159 Q 79 174 68 162 Z M 309 276 Q 416 313 451 315 Q 457 316 458 319 Q 459 323 454 327 Q 426 348 395 386 Q 386 397 375 386 Q 335 344 304 284 Q 302 279 303 277 Q 305 275 309 276 Z M 407 96 Q 417 92 416 103 Q 416 126 414 147 Q 414 157 403 156 Q 397 156 384 156 Q 340 154 314 154 Q 313 175 309 206 Q 411 206 431 185 Q 438 180 441 182 Q 445 184 444 192 Q 444 216 438 248 Q 437 260 419 258 Q 377 255 299 255 Q 275 335 206 390 Q 179 414 157 390 Q 136 368 120 339 Q 117 333 119 331 Q 121 328 126 329 Q 153 341 181 321 Q 214 300 235 256 Q 188 257 158 259 Q 147 260 146 251 Q 142 218 142 196 Q 142 191 145 189 Q 147 188 151 192 Q 162 206 251 206 Q 255 177 254 155 Q 234 155 196 156 Q 185 157 179 157 Q 166 158 166 148 Q 164 119 164 102 Q 164 95 172 98 Q 187 103 210 104 Q 236 106 289 106 H 305 Q 305 105 305 105 Q 306 104 306 103 Q 339 51 324 9 Q 325 0 334 4 Q 366 18 395 33 Q 405 37 395 47 Q 370 72 323 106 Q 380 105 407 96 Z M 495 360 Q 502 351 507 353 Q 512 356 510 368 Q 502 430 490 472 Q 482 503 447 499 Q 168 482 24 483 Q 7 483 9 468 Q 13 437 18 422 Q 17 276 13 225 Q 12 214 23 215 Q 60 219 99 227 Q 112 230 108 243 Q 81 334 56 412 Q 185 419 398 420 Q 452 424 495 360 Z" fill="black" />
  </g>
  <g class="defect" id="01">
    <path d="M 306 103 Q 339 51 324 9" fill="none" stroke="red" stroke-width="3" />
  </g>
</svg>