<svg xmlns="http://www.w3.org/2000/svg" width="512" height="512" viewBox="0 0 512 512">
  <g class="glyph">
    <path d="M 429 339 Q 389 297 380 212 Q 379 206 382 204 Q 385 203 390 207 Q 477 275 505 284 Q 511 287 511 290 Q 512 293 507 297 Q 484 320 451 343 Q 437 354 429 339 Z M 26 137 Q 15 138 17 125 Q 39 52 44 8 Q 44 2 45 1 Q 46 0 51 2 Q 85 9 102 11 Q 109 12 107 17 Q 95 50 82 79 Q 80 83 81 85 Q 82 86 88 86 Q 165 86 189 81 Q 195 80 196 81 Q 198 82 197 88 Q 197 101 195 118 Q 177 132 193 125 Q 193 136 179 134 Q 140 133 92 134 Q 47 135 26 137 Z M 192 251 Q 197 249 199 250 Q 201 251 201 256 Q 201 282 199 299 Q 198 309 187 308 Q 152 307 127 307 Q 127 321 127 350 Q 127 365 127 373 Q 127 378 129 379 Q 131 380 135 378 Q 147 373 171 360 Q 176 357 178 356 Q 178 361 193 369 Q 174 426 82 459 Q 64 463 66 444 Q 72 404 73 308 Q 45 308 15 310 Q 1 312 2 301 L 0 256 Q 0 252 2 251 Q 3 250 7 251 Q 18 260 73 260 Q 73 258 73 253 Q 72 224 71 212 Q 51 212 34 213 Q 26 215 27 206 Q 25 190 24 169 Q 23 164 33 166 Q 56 168 113 168 Q 164 167 178 165 Q 185 164 185 169 Q 185 195 183 208 Q 182 216 173 214 Q 171 214 167 213 Q 146 212 132 212 Q 128 232 128 260 Q 181 259 192 251 Z M 374 465 Q 374 478 363 478 Q 315 477 287 474 Q 283 474 283 471 Q 283 468 287 465 Q 306 453 309 421 Q 313 358 315 255 Q 287 306 263 335 Q 245 374 167 337 Q 163 335 163 330 Q 163 327 167 326 Q 195 315 221 284 Q 271 223 308 148 Q 320 122 321 106 Q 273 106 233 109 Q 220 111 219 100 Q 213 73 212 43 Q 212 37 215 36 Q 217 35 223 38 Q 234 47 257 50 Q 281 53 335 53 Q 448 54 473 33 Q 478 29 481 30 Q 484 31 484 37 Q 483 72 478 99 Q 476 112 461 109 Q 398 106 348 106 Q 372 118 382 120 Q 390 122 384 129 Q 378 137 360 171 L 342 205 Q 369 215 368 229 Q 371 267 373 413 Q 374 450 374 465 Z" fill="black" />
  </g>
  <g class="defect" id="01">
    <path d="M 195 118 Q 177 132 193 125" fill="none" stroke="red" stroke-width="3" />
  </g>
  <g class="defect" id="02">
    <path d="M 178 356 Q 178 361 193 369" fill="none" stroke="red" stroke-width="3" />
  </g>
  <g class="defect" id="03">
    <path d="M 429 339 Q 389 297 380 212" fill="none" stroke="red" stroke-width="3" />
  </g>
</svg>