<svg xmlns="http://www.w3.org/2000/svg" width="512" height="512" viewBox="0 0 512 512">
  <g class="glyph">
    <path d="M 141 96 Q 156 96 171 95 V 58 H 141 Z M 227 140 H 208 V 189 Q 211 189 217 189 Q 224 189 225 188 Q 241 192 239 158 Q 238 142 227 140 Z M 74 183 Q 74 189 86 189 Q 92 191 104 191 V 141 Q 94 141 84 141 Q 74 141 74 149 Q 73 153 73 168 Q 73 180 74 183 Z M 171 140 H 141 V 191 Q 157 191 171 190 Z M 383 463 Q 385 481 370 478 Q 320 471 286 448 Q 278 441 288 437 Q 316 432 319 399 Q 323 361 324 283 Q 326 197 325 139 Q 324 102 321 90 Q 319 85 320 84 Q 321 82 326 83 Q 383 91 380 110 Q 380 244 383 463 Z M 495 9 Q 508 6 506 19 Q 501 40 478 100 Q 465 136 459 153 Q 453 164 460 170 Q 512 220 510 287 Q 512 331 485 328 Q 443 325 391 295 Q 381 288 382 282 Q 383 276 395 275 Q 447 274 445 248 Q 445 218 410 174 Q 401 165 407 154 Q 411 110 434 71 Q 426 72 404 72 Q 350 74 325 75 Q 312 77 311 65 Q 306 36 306 13 Q 306 8 307 7 Q 309 7 313 9 Q 384 34 495 9 Z M 27 435 Q 15 439 12 429 Q 6 403 0 363 Q 1 353 11 359 Q 21 368 53 367 Q 68 367 121 365 Q 127 364 130 364 V 355 Q 130 350 130 340 Q 130 329 130 322 Q 98 323 51 325 Q 42 326 41 317 Q 38 295 37 275 Q 36 269 44 270 Q 65 274 127 275 Q 126 260 124 245 Q 105 259 124 240 Q 125 239 129 240 Q 149 245 189 245 Q 192 245 192 245 Q 192 245 192 248 Q 190 258 188 274 Q 248 272 265 266 Q 272 263 274 265 Q 277 266 276 272 Q 276 276 276 286 Q 276 305 274 314 Q 274 325 262 323 Q 241 337 186 322 V 362 Q 257 358 279 355 Q 291 353 289 363 Q 285 402 271 401 Q 146 415 27 435 Z M 284 3 Q 293 0 293 8 Q 293 21 290 51 Q 288 58 278 58 Q 271 58 250 58 Q 223 58 208 58 V 94 L 277 91 Q 295 89 290 104 Q 287 118 285 158 Q 285 198 287 222 Q 290 239 272 236 Q 236 233 160 233 Q 78 234 35 237 Q 28 238 26 236 Q 23 234 25 226 Q 28 205 28 163 Q 27 124 24 105 Q 22 94 32 95 Q 34 95 34 95 Q 43 96 59 96 Q 67 96 77 96 Q 86 96 104 96 V 58 L 29 60 Q 17 61 18 52 Q 16 34 15 11 Q 15 3 23 6 Q 48 12 159 11 Q 264 10 284 3 Z" fill="black" />
  </g>
  <g class="defect" id="01">
    <path d="M 262 323 Q 241 337 186 322" fill="none" stroke="red" stroke-width="3" />
  </g>
  <g class="defect" id="02">
    <path d="M 407 154 Q 411 110 434 71" fill="none" stroke="red" stroke-width="3" />
  </g>
  <g class="defect" id="03">
    <path d="M 124 245 Q 105 259 124 240" fill="none" stroke="red" stroke-width="3" />
  </g>
</svg>