<svg xmlns="http://www.w3.org/2000/svg" width="512" height="512" viewBox="0 0 512 512">
  <g class="glyph">
    <path d="M 306 130 203 132 Q 238 142 258 144 Q 265 144 263 152 Q 260 164 259 198 Q 277 228 258 221 Q 267 221 278 221 Q 287 221 306 221 Z M 263 309 Q 256 299 262 292 Q 258 286 278 293 Q 299 309 339 336 Q 364 300 378 273 Q 381 267 374 267 Q 368 267 353 267 Q 281 266 255 267 Q 244 381 217 445 Q 244 445 268 420 Q 286 403 312 371 Q 280 333 263 309 Z M 172 45 Q 185 42 184 53 Q 176 98 154 162 Q 150 172 155 178 Q 186 219 186 272 Q 186 309 162 305 Q 127 299 88 272 H 87 Q 87 281 88 299 Q 89 428 91 457 Q 91 475 77 472 Q 35 463 4 442 Q 0 438 1 436 Q 1 432 5 431 Q 26 431 28 399 Q 33 362 35 286 Q 37 206 35 160 Q 35 133 29 119 Q 27 111 35 112 Q 93 118 87 134 Q 86 156 87 246 Q 87 252 87 255 H 90 Q 116 256 122 252 Q 130 249 129 236 Q 129 217 108 184 Q 101 175 106 164 Q 121 120 125 97 Q 74 97 35 100 Q 22 101 21 91 Q 16 68 16 51 Q 16 45 17 44 Q 20 43 24 45 Q 91 66 172 45 Z M 206 186 Q 206 146 198 132 H 191 Q 188 131 186 127 Q 185 118 183 99 Q 183 89 182 86 Q 179 79 188 79 Q 221 82 305 82 Q 304 33 299 7 Q 298 3 299 2 Q 300 0 304 1 Q 334 5 368 5 Q 371 5 372 7 Q 373 7 372 11 Q 365 39 364 81 Q 424 80 460 76 Q 471 74 470 83 Q 466 129 474 182 Q 448 178 410 182 Q 413 158 414 140 Q 415 130 402 130 H 364 V 221 Q 419 220 451 216 Q 460 216 459 227 Q 429 300 387 368 Q 414 384 435 395 Q 469 415 502 403 Q 512 403 509 413 Q 480 474 461 487 Q 443 503 420 481 Q 391 456 353 417 Q 341 434 314 463 Q 294 486 274 484 Q 254 483 216 456 Q 216 455 215 455 Q 215 455 214 453 Q 213 455 212 457 Q 210 461 206 468 Q 194 488 172 474 Q 141 453 119 419 Q 116 414 118 411 Q 119 408 125 409 Q 147 414 156 407 Q 166 401 177 375 Q 204 303 206 186 Z" fill="black" />
  </g>
  <g class="defect" id="01">
    <path d="M 259 198 Q 277 228 258 221" fill="none" stroke="red" stroke-width="3" />
  </g>
  <g class="defect" id="02">
    <path d="M 262 292 Q 258 286 278 293" fill="none" stroke="red" stroke-width="3" />
  </g>
</svg>