<svg xmlns="http://www.w3.org/2000/svg" width="512" height="512" viewBox="0 0 512 512">
  <g class="glyph">
    <path d="M 387 81 362 79 V 120 L 411 119 L 409 103 Q 407 81 387 81 Z M 273 97 Q 272 100 272 109 Q 272 117 272 121 H 318 V 80 Q 305 80 292 81 Q 274 83 273 97 Z M 410 177 Q 410 167 411 158 Q 397 157 362 157 V 197 L 391 196 Q 412 198 410 177 Z M 272 183 Q 271 198 287 197 H 318 V 157 Q 310 157 293 158 Q 279 158 272 158 Z M 320 261 Q 320 258 321 257 Q 322 256 326 257 Q 374 267 401 268 Q 406 268 407 270 Q 407 273 404 277 Q 384 305 358 332 Q 348 339 345 331 Q 329 293 320 261 Z M 443 391 Q 436 338 421 283 Q 419 278 422 277 Q 424 275 428 277 Q 473 306 505 335 Q 530 354 506 348 Q 493 365 459 394 Q 453 400 448 399 Q 444 398 443 391 Z M 325 293 Q 320 313 320 369 Q 317 395 340 392 Q 380 396 417 342 Q 420 337 423 338 Q 426 339 426 344 Q 426 384 426 401 Q 425 422 424 432 Q 422 448 409 449 Q 358 453 305 450 Q 266 449 268 400 V 340 Q 268 315 265 285 Q 264 281 265 281 Q 266 280 269 281 Q 291 285 322 287 Q 326 287 325 293 Z M 196 247 Q 200 245 202 246 Q 203 247 203 252 Q 203 277 201 297 Q 201 306 190 306 Q 166 305 140 305 V 356 Q 141 365 148 361 L 175 343 Q 188 336 188 354 Q 188 358 187 362 Q 217 340 241 295 Q 244 290 247 290 Q 249 290 250 295 Q 253 328 252 359 Q 251 390 246 406 Q 241 419 229 412 Q 227 412 225 409 Q 195 389 183 378 Q 183 378 181 377 L 181 376 Q 150 428 99 448 Q 82 452 84 434 Q 88 397 89 305 Q 64 305 39 308 Q 26 310 27 299 L 25 255 Q 25 251 27 249 Q 28 248 31 250 Q 42 258 89 258 Q 89 235 86 210 Q 86 208 86 207 Q 83 207 78 208 Q 75 208 74 208 Q 66 210 66 201 Q 66 199 66 195 Q 65 191 65 189 Q 56 204 48 214 Q 39 227 28 218 Q 16 208 2 180 Q 0 176 1 175 Q 2 173 6 174 Q 18 178 26 165 Q 50 125 72 63 Q 86 23 83 7 Q 82 3 83 1 Q 85 0 88 2 Q 105 10 143 21 Q 150 23 144 31 Q 134 45 124 71 L 119 83 Q 179 83 196 77 Q 203 75 203 81 Q 203 108 202 118 Q 202 129 192 127 Q 146 124 100 126 L 81 163 Q 107 165 144 164 Q 176 163 188 161 Q 194 160 194 164 Q 194 189 191 201 Q 191 209 183 208 Q 166 207 139 206 Q 113 206 92 207 Q 105 210 132 214 Q 135 214 137 214 Q 146 214 144 222 Q 141 236 140 258 Q 195 257 196 247 Z M 458 33 Q 473 31 468 48 Q 463 70 461 122 Q 459 178 461 234 Q 462 249 447 247 Q 401 241 338 242 Q 277 242 236 248 Q 217 252 219 236 Q 223 201 223 136 Q 223 74 220 50 Q 215 31 231 35 Q 264 39 337 38 Q 406 38 458 33 Z" fill="black" />
  </g>
  <g class="defect" id="01">
    <path d="M 505 335 Q 530 354 506 348" fill="none" stroke="red" stroke-width="3" />
  </g>
  <g class="defect" id="02">
    <path d="M 140 258 Q 195 257 196 247" fill="none" stroke="red" stroke-width="3" />
  </g>
</svg>