<svg xmlns="http://www.w3.org/2000/svg" width="512" height="512" viewBox="0 0 512 512">
  <g class="glyph">
    <path d="M 292 216 Q 292 229 305 228 Q 306 228 308 228 Q 313 229 315 229 Q 323 211 327 189 Q 302 189 292 189 Q 292 213 292 216 Z M 74 183 Q 80 184 93 183 Q 99 183 102 183 Q 104 170 104 149 Q 104 142 98 142 Q 81 142 74 143 Q 74 163 74 183 Z M 404 112 Q 401 112 395 112 Q 385 111 380 111 Q 380 132 378 150 Q 402 150 421 149 V 131 Q 423 110 404 112 Z M 292 128 Q 292 130 292 151 H 332 Q 334 133 334 111 L 300 113 Q 292 113 292 128 Z M 420 208 Q 420 207 420 203 Q 420 194 420 189 Q 409 189 374 189 Q 370 210 365 228 Q 390 228 401 226 Q 420 226 420 208 Z M 187 245 H 191 V 230 Q 192 221 181 222 Q 109 220 58 222 Q 46 222 47 235 Q 47 236 47 239 Q 46 244 47 247 Q 48 246 50 246 Q 76 249 122 248 Q 166 248 187 245 Z M 135 183 Q 138 183 147 183 Q 154 182 158 182 Q 159 143 157 94 Q 158 85 149 86 Q 142 85 117 85 Q 91 85 81 86 Q 74 86 75 92 Q 74 102 74 115 Q 106 117 129 113 Q 136 110 135 120 Q 134 141 135 183 Z M 223 178 Q 233 176 232 184 Q 231 213 232 228 Q 232 246 235 266 Q 210 263 196 266 Q 194 310 195 382 Q 196 447 199 477 Q 201 502 175 503 Q 132 500 113 467 Q 111 463 112 461 Q 113 459 116 459 Q 149 462 149 433 Q 150 418 151 361 Q 151 306 150 290 Q 148 282 141 283 Q 132 282 117 282 Q 103 282 94 282 Q 89 283 89 289 V 311 Q 112 311 133 309 Q 137 309 137 313 Q 137 316 137 324 Q 136 332 136 335 Q 138 342 128 341 Q 110 341 89 340 V 367 Q 113 367 135 366 Q 138 365 138 369 Q 138 371 138 380 Q 137 388 137 391 Q 138 398 130 397 Q 119 397 92 396 Q 111 397 89 396 Q 89 439 89 456 Q 89 477 89 488 Q 89 504 75 501 Q 42 492 21 472 Q 18 465 23 464 Q 41 467 41 453 Q 44 428 46 375 Q 47 317 46 270 Q 18 269 4 270 Q 5 248 5 224 Q 5 201 2 188 Q 0 181 8 180 Q 10 180 14 181 Q 27 182 35 182 Q 34 73 30 52 Q 29 45 36 45 Q 59 48 119 48 Q 175 47 195 45 Q 220 42 202 53 Q 200 65 200 102 Q 199 140 200 180 Q 213 179 223 178 Z M 505 325 Q 503 363 500 386 Q 498 400 485 399 Q 464 397 406 396 Q 406 433 407 493 Q 409 512 393 510 Q 359 508 322 494 Q 318 492 318 489 Q 319 486 324 485 Q 345 482 347 459 Q 350 439 352 396 Q 282 397 236 400 Q 225 402 226 393 Q 224 365 224 344 Q 223 338 229 340 Q 239 344 262 344 Q 249 326 241 305 Q 239 300 241 298 Q 243 296 247 299 Q 260 308 274 293 Q 283 283 290 272 Q 270 273 256 275 Q 243 277 244 265 Q 246 224 246 166 Q 245 112 242 83 Q 238 69 249 71 Q 262 72 308 73 Q 318 33 320 8 Q 320 0 327 3 Q 364 13 382 20 Q 391 23 383 31 Q 378 65 330 73 Q 423 74 465 69 Q 477 68 474 84 Q 470 109 469 164 Q 468 226 471 262 Q 472 276 458 275 Q 432 271 347 271 Q 331 306 295 345 Q 317 345 353 345 Q 353 306 349 289 Q 348 285 349 283 Q 350 282 354 283 Q 378 288 407 289 Q 411 289 410 294 Q 406 312 406 344 L 429 343 Q 476 344 495 322 Q 500 318 503 319 Q 506 320 505 325 Z" fill="black" />
  </g>
  <g class="defect" id="01">
    <path d="M 383 31 Q 378 65 330 73" fill="none" stroke="red" stroke-width="3" />
  </g>
  <g class="defect" id="02">
    <path d="M 195 45 Q 220 42 202 53" fill="none" stroke="red" stroke-width="3" />
  </g>
</svg>