<svg xmlns="http://www.w3.org/2000/svg" width="512" height="512" viewBox="0 0 512 512">
  <g class="glyph">
    <path d="M 369 125 H 344 Q 344 145 344 164 Q 361 164 370 164 Q 380 164 387 164 V 146 Q 390 123 369 125 Z M 246 233 Q 245 248 260 246 Q 262 246 268 246 Q 278 247 283 247 Q 286 227 288 204 Q 257 204 245 205 Q 245 226 246 233 Z M 246 143 Q 245 149 245 166 H 290 V 125 Q 270 125 256 126 Q 245 127 246 143 Z M 386 227 Q 386 225 386 220 Q 387 210 387 205 Q 393 184 342 204 Q 340 227 338 246 Q 351 246 366 245 Q 387 245 386 227 Z M 69 10 Q 69 7 70 5 Q 72 4 75 7 Q 101 16 134 25 Q 141 27 136 35 Q 116 69 90 97 Q 78 109 42 109 Q 50 109 36 108 Q 34 106 38 102 Q 62 58 69 10 Z M 99 345 Q 113 345 114 332 Q 115 313 115 265 Q 116 211 115 178 Q 115 159 103 161 Q 78 160 64 161 Q 56 162 56 173 Q 55 186 55 225 Q 86 224 101 222 Q 108 221 107 228 Q 107 237 107 265 Q 108 272 100 270 Q 88 270 55 270 Q 55 319 56 334 Q 56 345 66 345 Q 67 346 83 346 Q 87 346 99 345 Z M 13 399 Q 2 401 4 390 Q 7 345 7 245 Q 7 152 3 120 Q 0 108 12 110 Q 38 113 83 113 Q 127 113 159 109 Q 172 108 169 123 Q 166 150 167 251 Q 167 345 170 387 Q 170 401 157 400 Q 134 397 91 397 Q 46 397 13 399 Z M 435 338 Q 447 359 465 383 Q 470 394 460 397 Q 448 398 420 399 Q 392 401 373 399 Q 366 399 364 397 Q 364 400 365 407 Q 365 413 365 416 Q 364 434 389 433 Q 449 436 480 377 Q 484 370 488 370 Q 491 370 491 379 Q 491 449 490 463 Q 489 485 467 485 Q 444 487 408 487 Q 372 488 351 487 Q 309 487 311 431 V 355 V 344 Q 267 438 204 496 Q 187 512 172 499 Q 150 481 125 444 Q 122 437 123 434 Q 126 432 133 433 Q 156 439 176 422 Q 242 369 272 292 Q 223 293 205 296 Q 190 299 191 285 Q 195 242 193 181 Q 192 125 188 95 Q 184 80 198 83 Q 213 84 266 85 Q 284 33 290 7 Q 291 0 301 3 Q 328 13 360 27 Q 365 30 364 32 Q 364 35 360 39 Q 335 61 286 85 Q 392 85 441 81 Q 454 79 450 96 Q 445 123 444 181 Q 444 247 447 283 Q 448 298 433 296 Q 397 292 329 292 L 323 311 Q 346 315 364 315 Q 372 315 369 323 Q 364 346 364 390 L 366 386 Q 382 349 390 308 Q 391 304 396 306 Q 410 311 423 313 Q 428 313 426 317 Q 419 338 408 364 Q 404 372 411 371 Q 420 371 425 370 Q 428 370 428 364 Q 428 349 429 339 Q 429 336 431 336 Q 433 335 435 338 Z" fill="black" />
  </g>
  <g class="defect" id="01">
    <path d="M 42 109 Q 50 109 36 108" fill="none" stroke="red" stroke-width="3" />
  </g>
  <g class="defect" id="02">
    <path d="M 66 345 Q 67 346 83 346" fill="none" stroke="red" stroke-width="3" />
  </g>
  <g class="defect" id="03">
    <path d="M 387 205 Q 393 184 342 204" fill="none" stroke="red" stroke-width="3" />
  </g>
</svg>