<svg xmlns="http://www.w3.org/2000/svg" width="512" height="512" viewBox="0 0 512 512">
  <g class="glyph">
    <path d="M 352 201 Q 339 183 328 161 Q 326 154 332 154 Q 358 156 392 151 Q 398 151 395 157 Q 379 184 363 201 Q 358 206 352 201 Z M 95 126 Q 96 137 105 137 Q 134 139 158 137 Q 160 139 175 106 Q 175 95 163 95 Q 121 92 101 95 Q 95 96 95 106 Q 95 123 95 126 Z M 419 350 Q 423 347 425 349 Q 428 351 428 356 Q 427 384 425 403 Q 424 414 410 412 Q 375 409 332 410 Q 289 410 258 413 Q 250 415 250 405 Q 246 377 245 357 Q 245 353 247 351 Q 248 350 252 352 Q 271 363 328 362 Q 409 361 419 350 Z M 220 52 Q 235 50 231 64 Q 229 76 228 106 Q 228 142 229 170 Q 231 184 218 182 Q 185 180 138 180 Q 89 179 51 181 Q 37 183 40 170 Q 46 118 40 64 Q 36 50 50 53 Q 86 55 137 55 Q 187 54 220 52 Z M 26 210 Q 26 203 33 203 Q 74 206 131 205 Q 189 205 229 201 Q 240 200 238 213 Q 236 250 237 332 Q 238 413 241 462 Q 245 493 210 492 Q 163 488 129 449 Q 125 444 126 441 Q 128 438 134 439 Q 164 441 171 436 Q 180 431 180 411 Q 181 372 180 319 Q 180 274 179 261 Q 179 248 170 248 Q 152 248 125 248 Q 102 247 90 248 Q 83 248 83 256 V 277 Q 118 277 134 277 Q 151 276 160 276 Q 166 275 166 280 Q 166 299 165 307 Q 165 315 154 314 Q 143 313 127 313 Q 119 313 109 313 Q 100 313 83 313 V 341 Q 128 341 160 340 Q 167 339 166 343 Q 166 346 166 356 Q 165 369 165 372 Q 165 381 155 379 L 83 378 Q 83 434 84 475 Q 84 490 72 488 Q 30 485 6 478 Q 0 473 6 469 Q 19 467 24 453 Q 29 439 29 401 Q 30 376 30 343 Q 30 311 30 284 Q 29 230 26 210 Z M 327 137 Q 326 163 326 200 Q 326 240 327 262 Q 328 271 337 271 H 382 Q 466 271 497 264 Q 507 262 506 273 Q 504 293 504 362 Q 504 425 503 465 Q 504 512 460 510 Q 384 506 350 455 Q 347 451 349 448 Q 350 445 354 446 Q 409 453 424 448 Q 441 444 443 421 Q 444 412 443 354 Q 443 335 443 328 Q 443 319 435 319 H 373 Q 316 320 273 323 Q 264 323 265 314 Q 271 278 271 203 Q 271 125 266 87 Q 265 79 273 81 Q 289 83 314 84 Q 330 36 330 6 Q 330 0 339 2 Q 360 7 396 19 Q 403 22 397 30 Q 368 62 335 84 Q 406 86 452 80 Q 464 78 463 90 Q 462 105 462 137 Q 461 152 461 172 Q 461 190 461 225 Q 462 259 431 258 Q 383 259 360 219 Q 357 214 358 212 Q 359 210 364 210 Q 410 217 408 196 Q 410 179 410 139 Q 410 129 401 129 Q 374 127 333 129 Q 327 129 327 137 Z" fill="black" />
  </g>
  <g class="defect" id="01">
    <path d="M 158 137 Q 160 139 175 106" fill="none" stroke="red" stroke-width="3" />
  </g>
</svg>