<svg xmlns="http://www.w3.org/2000/svg" width="512" height="512" viewBox="0 0 512 512">
  <g class="glyph">
    <path d="M 188 401 Q 196 401 195 392 V 338 Q 184 348 170 364 Q 162 373 157 364 Q 148 342 144 310 Q 132 348 120 367 Q 113 379 103 373 Q 91 365 82 353 V 392 Q 81 401 90 401 Q 132 402 188 401 Z M 346 400 Q 380 401 417 399 Q 418 321 418 234 Q 418 153 416 117 Q 416 97 399 97 Q 385 96 381 96 Q 376 96 359 97 Q 344 97 345 112 Q 345 127 345 164 Q 369 164 391 160 Q 398 158 398 164 Q 398 182 396 204 Q 395 210 389 210 Q 389 210 388 210 Q 368 209 344 209 V 273 Q 368 273 390 269 Q 398 266 397 273 Q 397 287 396 311 Q 383 325 396 313 Q 396 320 387 319 Q 382 319 384 319 Q 358 318 345 318 Q 345 360 346 400 Z M 90 128 V 166 H 130 V 77 Q 129 28 124 5 Q 123 2 125 1 Q 126 0 130 1 Q 155 6 179 6 Q 185 5 184 11 Q 179 48 179 78 Q 222 78 235 72 Q 241 69 241 77 Q 241 100 239 115 Q 238 121 233 121 Q 221 120 179 120 V 166 Q 251 166 265 155 Q 276 150 277 159 Q 277 179 273 202 Q 273 214 257 212 Q 215 209 127 209 Q 45 210 16 212 Q 4 215 3 205 Q 1 177 0 159 Q 0 154 2 153 Q 5 152 9 155 Q 15 161 46 164 V 125 Q 46 94 41 59 Q 40 54 45 55 Q 45 55 46 55 Q 71 60 90 60 Q 95 59 94 64 Q 91 83 90 128 Z M 161 229 Q 160 252 151 283 Q 175 309 195 321 Q 195 245 192 237 Q 190 231 196 232 Q 215 235 242 235 Q 248 234 247 241 Q 242 270 242 319 Q 242 392 246 431 Q 246 433 247 437 Q 248 450 247 454 Q 246 458 226 455 Q 196 452 135 452 Q 75 452 51 456 Q 35 459 33 456 Q 29 451 33 435 Q 35 410 36 316 Q 36 280 35 266 Q 34 248 31 239 Q 29 234 30 233 Q 31 232 35 232 Q 48 234 81 234 Q 86 233 85 239 Q 83 267 82 339 Q 92 340 98 328 Q 108 303 113 267 Q 118 234 114 219 Q 113 215 117 216 Q 139 222 158 224 Q 162 224 161 229 Z M 468 41 Q 480 38 477 51 Q 472 94 472 191 Q 472 209 472 251 Q 471 349 472 392 Q 489 387 500 371 Q 520 375 508 367 Q 512 368 512 375 Q 510 407 506 443 Q 504 456 491 455 Q 461 453 397 453 Q 332 453 275 456 Q 260 458 259 446 Q 256 418 255 395 Q 255 389 258 388 Q 261 387 267 390 Q 274 397 293 398 Q 293 355 293 293 Q 293 235 293 144 Q 306 93 287 53 Q 285 44 293 45 Q 336 49 384 48 Q 432 46 468 41 Z" fill="black" />
  </g>
  <g class="defect" id="01">
    <path d="M 293 144 Q 306 93 287 53" fill="none" stroke="red" stroke-width="3" />
  </g>
  <g class="defect" id="02">
    <path d="M 500 371 Q 520 375 508 367" fill="none" stroke="red" stroke-width="3" />
  </g>
  <g class="defect" id="03">
    <path d="M 396 311 Q 383 325 396 313" fill="none" stroke="red" stroke-width="3" />
  </g>
</svg>