<svg xmlns="http://www.w3.org/2000/svg" width="512" height="512" viewBox="0 0 512 512">
  <g class="glyph">
    <path d="M 201 182 V 220 Q 202 220 205 220 Q 206 219 207 219 Q 218 219 218 209 Q 233 207 219 203 Q 220 190 218 180 Q 218 171 211 171 H 201 Z M 152 185 V 220 H 171 V 196 V 171 H 152 Z M 398 371 Q 458 387 503 389 Q 507 389 508 392 Q 508 395 504 399 Q 477 428 459 455 Q 450 469 438 457 Q 411 426 393 377 Q 392 372 393 371 Q 394 369 398 371 Z M 363 302 Q 398 302 412 301 V 143 V 121 Q 389 121 376 121 Q 362 121 350 122 V 159 Q 375 158 396 156 Q 399 154 400 156 Q 401 156 400 159 Q 400 168 399 183 Q 399 189 399 193 Q 399 198 394 198 H 394 H 350 V 224 Q 373 223 395 219 Q 400 218 400 223 Q 400 236 399 255 Q 399 253 399 258 Q 400 265 392 264 Q 387 264 373 263 Q 358 263 350 263 V 302 Z M 154 343 Q 149 343 139 342 Q 138 356 139 380 Q 139 386 139 388 Q 139 392 140 392 Q 141 393 144 392 Q 145 392 146 391 Q 153 387 157 384 Q 162 380 165 383 Q 167 387 166 395 Q 153 438 109 456 Q 96 457 97 445 Q 99 425 100 365 Q 100 295 99 274 Q 98 269 101 269 Q 114 271 136 271 Q 143 271 141 277 Q 140 281 139 304 Q 153 303 161 301 Q 168 300 167 304 Q 167 322 166 335 Q 166 344 154 343 Z M 234 338 Q 227 338 214 337 V 383 Q 214 387 215 387 Q 216 388 219 387 Q 229 382 243 373 Q 248 369 250 372 Q 253 375 252 384 Q 236 428 184 451 Q 172 452 172 440 Q 175 420 175 360 Q 176 290 174 269 Q 173 264 177 264 Q 189 266 211 266 Q 217 265 216 272 Q 214 279 214 300 Q 232 299 241 297 Q 249 296 248 301 Q 248 317 247 330 Q 247 339 234 338 Z M 104 173 Q 99 175 99 170 L 98 141 Q 96 136 102 137 L 121 139 Q 120 117 119 109 Q 118 106 119 104 Q 101 103 122 104 Q 133 107 153 107 Q 157 105 156 112 Q 153 122 153 139 H 170 Q 169 114 168 106 Q 168 102 168 102 Q 169 101 171 102 Q 180 104 203 104 Q 208 103 206 109 Q 204 120 202 139 Q 233 138 240 136 Q 250 134 253 136 Q 255 137 254 145 Q 252 160 251 186 Q 251 215 253 241 Q 256 255 243 253 Q 238 253 228 253 Q 133 253 107 256 Q 100 257 101 251 Q 99 238 99 220 Q 99 218 101 218 Q 103 218 105 218 Q 116 219 123 219 V 199 Q 123 187 122 172 Z M 123 7 Q 121 4 123 2 Q 123 1 128 2 Q 170 4 200 2 Q 205 1 206 4 Q 207 7 204 11 Q 188 33 166 54 Q 225 53 254 46 Q 261 44 260 52 Q 260 80 259 91 Q 258 99 250 99 Q 223 98 182 98 Q 141 99 106 100 Q 94 99 94 111 Q 97 395 58 439 Q 44 459 29 441 Q 12 414 2 375 Q 0 364 7 367 Q 29 381 36 342 Q 47 293 47 141 Q 46 88 42 60 Q 41 53 42 52 Q 44 50 50 51 Q 83 55 146 55 Q 132 34 123 7 Z M 492 70 Q 499 67 498 75 Q 498 85 496 118 Q 495 124 488 123 Q 474 122 459 122 V 298 Q 491 295 502 284 Q 507 281 509 282 Q 512 283 512 288 Q 511 316 506 344 Q 505 354 496 353 Q 470 351 429 350 Q 388 350 349 350 Q 351 352 351 356 Q 349 413 332 455 Q 323 476 307 464 Q 282 445 255 418 Q 246 408 256 405 Q 301 392 340 354 Q 343 351 345 350 Q 291 351 273 353 Q 264 354 263 346 Q 261 332 259 301 Q 258 296 261 294 Q 264 293 268 296 Q 274 301 303 301 V 148 V 123 Q 290 123 279 124 Q 271 125 271 119 Q 269 104 269 74 Q 268 69 274 70 Q 278 72 296 73 Q 300 73 302 73 Q 301 33 297 13 Q 296 4 302 7 Q 321 11 350 11 Q 354 11 353 17 Q 350 44 350 75 Q 391 75 412 74 Q 410 22 407 7 Q 406 2 407 1 Q 408 0 412 1 Q 429 5 461 5 Q 466 5 465 11 Q 461 25 459 73 Q 482 72 492 70 Z" fill="black" />
  </g>
  <g class="defect" id="01">
    <path d="M 218 209 Q 233 207 219 203" fill="none" stroke="red" stroke-width="3" />
  </g>
  <g class="defect" id="02">
    <path d="M 119 104 Q 101 103 122 104" fill="none" stroke="red" stroke-width="3" />
  </g>
</svg>