<svg xmlns="http://www.w3.org/2000/svg" width="512" height="512" viewBox="0 0 512 512">
  <g class="glyph">
    <path d="M 378 134 H 342 V 157 Q 361 157 374 156 Q 388 155 389 145 Q 390 134 378 134 Z M 255 107 Q 264 107 273 107 Q 282 107 299 107 V 84 H 262 H 255 Z M 299 134 Q 282 134 273 134 Q 264 134 255 135 V 158 H 299 Z M 274 208 Q 282 205 281 211 Q 281 221 280 230 Q 279 237 270 236 Q 268 236 263 236 Q 227 234 204 233 V 253 Q 203 258 208 258 Q 248 255 276 251 Q 288 248 285 259 Q 274 286 167 302 Q 151 303 154 288 Q 158 269 158 240 Q 158 210 155 196 Q 154 192 159 193 Q 183 196 202 197 Q 209 197 208 203 L 206 210 Q 260 210 274 208 Z M 74 102 Q 73 98 74 96 Q 75 95 79 96 Q 103 102 131 103 Q 138 103 136 110 Q 133 124 132 166 Q 132 178 132 186 Q 129 400 93 468 Q 77 496 51 476 Q 27 455 3 409 Q 0 402 2 399 Q 4 397 10 399 Q 47 417 57 379 Q 81 298 82 165 Q 82 118 74 102 Z M 363 43 Q 438 43 468 27 Q 473 24 476 26 Q 478 27 478 33 Q 478 53 473 77 Q 455 108 453 88 Q 392 85 342 85 V 107 Q 400 106 425 104 Q 443 100 439 114 Q 436 139 440 171 Q 432 171 424 186 Q 375 185 276 186 Q 178 187 152 190 Q 143 191 144 183 Q 142 173 142 159 Q 142 155 147 156 Q 179 158 212 158 V 136 Q 179 136 153 138 Q 146 139 146 134 Q 145 119 145 107 Q 144 102 152 103 Q 178 105 212 106 V 84 Q 145 84 82 88 Q 62 91 63 80 Q 60 65 61 42 Q 60 33 71 37 Q 87 42 119 44 Q 183 46 262 46 Q 247 30 236 10 Q 233 6 235 5 Q 237 3 242 4 Q 278 5 316 1 Q 321 0 323 2 Q 324 5 321 9 Q 307 30 292 45 Z M 258 451 Q 258 438 259 415 Q 223 452 185 483 Q 164 499 149 493 Q 133 488 103 453 Q 101 444 110 445 Q 147 453 157 442 Q 186 427 228 398 Q 173 400 152 402 Q 142 403 141 396 Q 137 371 137 358 Q 136 349 145 353 Q 155 357 179 358 Q 202 360 259 360 Q 258 345 258 339 Q 225 340 210 339 Q 192 340 175 313 Q 173 310 174 309 Q 174 307 178 308 Q 284 309 348 294 Q 338 294 332 293 Q 295 290 296 250 Q 297 209 292 194 Q 291 192 292 191 Q 293 190 295 190 Q 309 193 341 194 Q 345 194 344 199 Q 343 206 343 216 Q 389 206 405 195 Q 409 190 415 195 Q 423 201 435 211 Q 438 214 440 215 Q 444 218 443 220 Q 443 222 438 224 Q 411 233 371 236 Q 358 238 342 227 V 239 Q 339 257 370 255 Q 442 258 469 217 Q 472 213 476 214 Q 480 215 480 221 Q 480 247 480 258 Q 479 271 479 278 Q 478 291 461 293 Q 447 294 420 295 Q 392 296 366 295 Q 374 301 392 317 Q 397 321 399 323 Q 401 327 400 329 Q 399 331 394 332 Q 378 334 315 337 L 313 360 Q 423 360 443 351 Q 452 346 453 354 Q 453 370 449 392 Q 448 401 438 400 Q 406 399 337 398 Q 399 422 433 431 Q 459 439 480 427 Q 486 425 488 427 Q 490 429 488 434 Q 461 512 426 489 Q 366 455 313 414 Q 313 466 315 491 Q 317 502 304 501 Q 272 500 246 497 Q 242 496 241 493 Q 241 491 245 489 Q 257 483 258 451 Z" fill="black" />
  </g>
  <g class="defect" id="01">
    <path d="M 473 77 Q 455 108 453 88" fill="none" stroke="red" stroke-width="3" />
  </g>
  <g class="defect" id="02">
    <path d="M 110 445 Q 147 453 157 442" fill="none" stroke="red" stroke-width="3" />
  </g>
  <g class="defect" id="03">
    <path d="M 440 171 Q 432 171 424 186" fill="none" stroke="red" stroke-width="3" />
  </g>
</svg>