<svg xmlns="http://www.w3.org/2000/svg" width="512" height="512" viewBox="0 0 512 512">
  <g class="glyph">
    <path d="M 144 318 Q 145 318 152 276 Q 159 234 167 163 Q 176 92 181 2 L 243 12 Q 241 51 236 97 Q 231 143 223 183 L 284 180 L 283 145 L 249 147 L 242 88 L 362 93 L 377 80 L 383 136 L 343 140 V 177 L 396 174 Q 391 119 392 55 L 267 64 L 255 1 L 450 0 Q 447 33 447 81 Q 447 131 451 170 Q 454 206 461 230 Q 465 243 471 251 Q 477 258 490 259 Q 492 260 498 260 Q 509 260 512 256 Q 496 277 497 292 Q 485 306 463 306 Q 445 306 432 294 Q 420 282 409 246 L 406 239 L 407 315 Q 422 325 401 334 Q 395 342 382 344 Q 369 345 359 335 Q 349 325 344 310 H 357 V 232 H 342 L 342 391 L 291 397 L 286 232 H 272 L 273 339 L 227 342 L 218 205 Q 206 257 188 288 Q 169 318 144 318 Z M 126 142 133 339 81 345 64 193 Q 36 208 10 208 L 0 207 Q 23 177 51 127 Q 64 65 105 25 L 173 75 Q 151 113 126 142 Z" fill="black" />
  </g>
  <g class="defect" id="01">
    <path d="M 512 256 Q 496 277 497 292" fill="none" stroke="red" stroke-width="3" />
  </g>
  <g class="defect" id="02">
    <path d="M 407 315 Q 422 325 401 334" fill="none" stroke="red" stroke-width="3" />
  </g>
  <g class="defect" id="03">
    <path d="M 51 127 Q 64 65 105 25" fill="none" stroke="red" stroke-width="3" />
  </g>
</svg>