<svg xmlns="http://www.w3.org/2000/svg" width="512" height="512" viewBox="0 0 512 512">
  <g class="glyph">
    <path d="M 317 411 H 349 L 347 334 L 272 332 L 268 264 Q 248 323 221 361 Q 193 399 156 404 Q 157 402 181 318 Q 206 233 236 70 H 228 L 219 0 L 503 1 Q 511 31 511 64 Q 511 109 491 143 Q 472 177 422 185 Q 402 189 383 189 Q 333 189 293 168 Q 285 205 281 220 L 327 222 V 277 H 345 L 343 199 L 419 204 L 418 277 H 440 V 215 L 502 219 L 495 335 L 417 334 L 415 411 H 443 V 348 L 512 352 L 505 473 L 255 476 L 248 353 L 317 355 Z M 137 195 145 415 85 422 65 249 Q 30 257 29 261 Q 12 264 0 262 Q 26 228 57 172 Q 68 117 114 59 L 190 117 Q 166 161 137 195 Z M 301 118 Q 344 134 376 134 Q 395 134 411 127 Q 427 120 434 104 Q 441 88 440 70 H 243 L 306 85 Q 305 99 301 118 Z" fill="black" />
  </g>
  <g class="defect" id="01">
    <path d="M 65 249 Q 30 257 29 261" fill="none" stroke="red" stroke-width="3" />
  </g>
  <g class="defect" id="02">
    <path d="M 57 172 Q 68 117 114 59" fill="none" stroke="red" stroke-width="3" />
  </g>
</svg>