<svg xmlns="http://www.w3.org/2000/svg" width="512" height="512" viewBox="0 0 512 512">
  <g class="glyph">
    <path d="M 14 178 238 183 223 336 110 339 Q 101 361 101 379 Q 101 394 107 406 Q 115 422 153 422 Q 191 422 243 408 Q 234 441 201 459 Q 168 476 128 476 Q 86 476 60 458 Q 31 439 31 392 Q 31 367 38 341 L 23 342 L 9 281 H 164 V 241 L 30 243 Z M 73 33 V 102 H 96 L 93 0 L 164 5 L 160 102 H 182 V 14 L 254 25 L 238 153 L 14 156 L 0 28 Z M 464 334 Q 483 348 474 380 Q 498 376 499 393 Q 506 393 512 391 Q 507 409 493 419 Q 480 430 464 430 Q 444 430 428 413 Q 411 396 405 365 Q 401 342 401 308 Q 401 244 414 168 L 361 165 L 353 101 L 483 112 Q 464 249 464 334 Z M 279 108 347 116 V 138 Q 347 242 328 341 Q 309 440 254 439 Q 263 377 271 289 Q 278 202 279 108 Z" fill="black" />
  </g>
  <g class="defect" id="01">
    <path d="M 474 380 Q 498 376 499 393" fill="none" stroke="red" stroke-width="3" />
  </g>
  <g class="defect" id="02">
    <path d="M 464 334 Q 483 348 474 380" fill="none" stroke="red" stroke-width="3" />
  </g>
</svg>