<svg xmlns="http://www.w3.org/2000/svg" width="512" height="512" viewBox="0 0 512 512">
  <g class="glyph">
    <path d="M 325 212 310 351 39 355 20 217 Z M 288 368 277 511 70 512 57 369 Z M 496 96 490 422 Q 473 450 478 470 Q 466 490 438 490 Q 415 490 398 472 Q 381 454 374 429 L 428 429 L 424 88 Z M 126 146 219 149 238 137 247 196 102 200 99 166 Q 62 188 33 188 Q 12 188 0 179 Q 35 149 82 100 Q 129 51 172 0 L 222 39 Q 170 109 126 146 Z M 405 150 400 378 345 382 339 144 Z M 237 72 Q 261 72 287 87 Q 295 102 338 123 L 298 178 L 194 93 Q 211 72 237 72 Z M 119 409 V 423 L 197 424 L 211 415 L 216 454 L 119 456 V 469 H 227 V 409 Z M 230 263 256 279 Q 255 288 246 298 Q 236 308 222 308 Q 212 308 203 303 L 224 263 H 200 V 310 H 258 V 263 Z M 115 263 Q 124 263 132 269 Q 139 275 144 282 Q 149 289 150 292 L 126 310 H 151 V 263 H 93 V 310 H 117 L 95 271 Q 105 263 115 263 Z" fill="black" />
  </g>
  <g class="defect" id="01">
    <path d="M 287 87 Q 295 102 338 123" fill="none" stroke="red" stroke-width="3" />
  </g>
  <g class="defect" id="02">
    <path d="M 490 422 Q 473 450 478 470" fill="none" stroke="red" stroke-width="3" />
  </g>
</svg>