<svg xmlns="http://www.w3.org/2000/svg" width="512" height="512" viewBox="0 0 512 512">
  <g class="glyph">
    <path d="M 337 0 344 64 76 72 103 80 102 87 Q 112 82 123 82 Q 141 82 150 93 Q 159 104 165 116 L 131 138 L 204 142 L 221 131 L 231 183 L 99 191 L 96 155 Q 85 241 62 310 Q 39 379 0 389 Q 13 322 26 238 Q 38 153 45 73 H 37 L 31 5 L 318 14 Z M 122 292 H 131 Q 135 232 135 194 L 181 199 Q 181 246 175 292 H 189 V 220 L 225 225 L 224 236 L 232 205 Q 243 165 264 80 L 314 93 Q 312 115 306 139 L 370 143 Q 371 183 360 210 Q 348 237 320 236 V 187 H 287 Q 264 232 224 241 L 218 342 L 168 343 Q 152 421 119 426 L 127 343 H 90 L 87 225 L 125 228 Z M 512 18 506 336 Q 507 364 495 384 Q 484 404 460 404 Q 438 404 422 386 Q 407 368 400 342 L 449 343 L 447 10 Z M 436 72 431 302 381 306 375 67 Z M 275 230 329 243 Q 309 285 302 324 Q 308 322 314 322 Q 330 322 348 333 Q 366 344 381 360 L 341 401 L 290 348 Q 256 404 210 409 Q 211 408 222 384 Q 232 359 247 319 Q 261 280 275 230 Z M 183 138 Q 175 138 165 135 L 190 78 L 227 98 Q 222 115 211 126 Q 199 138 183 138 Z M 98 137 125 138 102 90 Q 102 98 98 137 Z" fill="black" />
  </g>
  <g class="defect" id="01">
    <path d="M 329 243 Q 309 285 302 324" fill="none" stroke="red" stroke-width="3" />
  </g>
</svg>