<svg xmlns="http://www.w3.org/2000/svg" width="512" height="512" viewBox="0 0 512 512">
  <g class="glyph">
    <path d="M 121 5 120 53 182 55 182 0 254 5 252 57 265 57 281 43 Q 282 49 285 67 Q 287 86 290 110 L 249 112 L 244 248 L 269 249 L 286 234 L 294 302 L 9 313 Q 1 243 0 239 L 55 241 L 51 121 L 18 122 L 9 49 L 49 51 L 48 0 Q 84 3 121 5 Z M 338 219 H 284 L 273 143 L 350 147 Q 359 93 365 51 L 433 66 Q 429 103 422 150 L 512 154 L 507 379 Q 507 403 496 419 Q 486 436 462 436 Q 436 436 422 420 Q 407 404 404 381 H 441 V 218 L 409 218 Q 386 328 350 402 Q 314 476 262 471 Q 263 472 275 442 Q 288 412 305 356 Q 322 300 338 219 Z M 90 404 Q 88 428 137 428 Q 173 428 221 418 L 236 401 L 248 455 Q 226 467 191 474 Q 157 482 122 482 Q 94 482 73 476 Q 51 471 39 461 Q 24 447 24 416 Q 24 395 31 369 Q 37 343 46 320 L 108 334 Q 102 349 97 367 Q 92 386 90 404 Z M 117 173 V 193 H 156 L 169 183 L 174 228 L 116 230 V 244 L 183 246 L 183 115 L 118 118 V 136 H 155 L 168 126 L 174 172 Z M 115 407 Q 105 407 94 403 L 131 326 L 178 350 Q 149 362 153 390 Q 137 407 115 407 Z M 205 323 Q 221 323 238 336 Q 255 350 269 369 L 225 400 L 182 330 Q 193 323 205 323 Z" fill="black" />
  </g>
  <g class="defect" id="01">
    <path d="M 178 350 Q 149 362 153 390" fill="none" stroke="red" stroke-width="3" />
  </g>
</svg>