<svg xmlns="http://www.w3.org/2000/svg" width="512" height="512" viewBox="0 0 512 512">
  <g class="glyph">
    <path d="M 314 173 H 251 L 239 90 L 329 94 Q 337 48 345 0 L 415 15 Q 411 51 403 97 L 512 101 L 507 339 Q 507 364 496 381 Q 485 398 460 398 Q 433 398 419 381 Q 404 365 401 341 H 440 V 172 H 388 Q 364 285 326 361 Q 300 437 238 433 Q 238 435 251 400 Q 263 365 280 307 Q 297 249 314 173 Z M 120 240 Q 102 236 82 236 Q 43 236 22 257 Q 0 279 0 307 Q 0 325 9 340 Q 18 356 34 365 Q 50 375 70 375 Q 95 375 121 359 Q 139 349 154 325 Q 182 343 208 365 L 250 306 Q 223 280 183 262 Q 195 225 203 181 Q 211 137 213 100 L 18 86 L 31 172 L 131 168 Q 112 202 120 240 Z M 70 288 Q 83 288 102 296 L 97 307 Q 86 330 66 330 Q 56 330 50 324 Q 43 318 43 310 Q 43 300 54 292 Q 70 303 70 288 Z" fill="black" />
  </g>
  <g class="defect" id="01">
    <path d="M 131 168 Q 112 202 120 240" fill="none" stroke="red" stroke-width="3" />
  </g>
  <g class="defect" id="02">
    <path d="M 326 361 Q 300 437 238 433" fill="none" stroke="red" stroke-width="3" />
  </g>
  <g class="defect" id="03">
    <path d="M 54 292 Q 70 303 70 288" fill="none" stroke="red" stroke-width="3" />
  </g>
</svg>