<svg xmlns="http://www.w3.org/2000/svg" width="512" height="512" viewBox="0 0 512 512">
  <g class="glyph">
    <path d="M 23 377 Q 12 377 0 374 Q 15 359 35 332 Q 75 321 80 268 L 16 271 L 6 198 L 123 197 Q 127 188 138 170 L 50 172 L 44 98 L 113 101 L 63 35 Q 99 20 103 20 Q 121 20 137 28 Q 154 37 165 47 Q 177 58 179 62 L 135 101 L 172 102 Q 201 41 218 0 L 288 25 Q 274 60 255 104 L 306 106 L 297 99 L 349 19 L 405 58 Q 400 68 387 84 Q 363 116 357 107 L 401 108 L 420 93 L 428 163 L 226 168 L 211 195 L 433 192 L 451 177 L 462 246 L 171 263 L 151 290 L 342 291 L 325 271 Q 344 259 364 259 Q 390 259 416 277 Q 442 296 461 322 L 410 369 L 362 315 L 357 399 Q 356 414 347 425 Q 338 437 320 439 Q 317 440 313 440 Q 294 440 280 425 Q 266 411 258 390 H 296 V 353 H 167 L 208 364 Q 208 364 205 376 Q 202 387 202 406 Q 202 423 207 437 Q 216 458 266 458 Q 300 458 338 449 Q 377 439 386 431 Q 376 473 337 493 Q 299 512 251 512 Q 222 512 196 505 Q 179 501 165 491 Q 151 481 141 467 Q 127 445 127 414 Q 127 384 139 353 H 127 L 124 323 Q 72 377 23 377 Z" fill="black" />
  </g>
  <g class="defect" id="01">
    <path d="M 387 84 Q 363 116 357 107" fill="none" stroke="red" stroke-width="3" />
  </g>
  <g class="defect" id="02">
    <path d="M 35 332 Q 75 321 80 268" fill="none" stroke="red" stroke-width="3" />
  </g>
  <g class="defect" id="03">
    <path d="M 63 35 Q 99 20 103 20" fill="none" stroke="red" stroke-width="3" />
  </g>
</svg>