<svg xmlns="http://www.w3.org/2000/svg" width="512" height="512" viewBox="0 0 512 512">
  <g class="glyph">
    <path d="M 493 62 Q 493 106 474 140 Q 454 174 405 182 Q 385 185 368 185 Q 321 185 287 166 Q 275 255 245 327 Q 215 399 163 409 Q 180 345 197 256 Q 215 167 227 74 L 296 88 L 294 116 Q 331 131 361 131 Q 381 131 394 125 Q 410 117 417 101 Q 424 86 423 68 H 223 L 215 0 L 485 1 Q 493 30 493 62 Z M 183 79 171 291 18 297 0 88 Z M 365 282 Q 443 268 481 226 L 512 279 Q 452 321 392 321 Q 378 321 364 318 Q 365 338 369 353 Q 376 381 424 381 Q 454 381 489 371 Q 485 389 469 405 Q 454 420 432 429 Q 409 437 385 437 Q 364 437 346 430 Q 327 422 313 406 Q 297 360 286 318 Q 286 289 293 256 Q 299 224 308 197 L 377 208 Q 356 231 365 282 Z M 111 148 H 75 V 228 H 111 Z" fill="black" />
  </g>
  <g class="defect" id="01">
    <path d="M 313 406 Q 297 360 286 318" fill="none" stroke="red" stroke-width="3" />
  </g>
  <g class="defect" id="02">
    <path d="M 365 282 Q 443 268 481 226" fill="none" stroke="red" stroke-width="3" />
  </g>
  <g class="defect" id="03">
    <path d="M 377 208 Q 356 231 365 282" fill="none" stroke="red" stroke-width="3" />
  </g>
</svg>