<svg xmlns="http://www.w3.org/2000/svg" width="512" height="512" viewBox="0 0 512 512">
  <g class="glyph">
    <path d="M 333 0 Q 340 -16 373 19 Q 388 38 394 52 L 371 67 L 502 69 Q 504 78 504 90 Q 504 120 491 145 Q 479 170 444 172 L 443 124 L 324 128 L 357 147 L 351 157 L 459 185 Q 429 225 390 264 Q 450 287 512 310 L 476 362 L 455 357 L 444 481 L 252 487 L 238 367 Q 213 353 215 370 Q 188 370 166 353 Q 194 341 229 320 Q 264 299 297 272 Q 282 260 267 243 Q 240 261 215 261 Q 201 261 188 254 Q 189 253 220 217 Q 250 181 287 129 L 250 130 L 245 64 L 325 66 L 300 11 Q 317 0 333 0 Z M 170 167 159 331 17 337 0 176 Z M 240 102 Q 240 119 235 138 Q 230 158 223 175 L 155 156 L 203 48 Q 240 57 240 102 Z M 294 344 416 343 Q 378 329 345 308 Q 318 330 294 344 Z M 376 400 H 320 V 431 H 376 Z M 103 230 H 69 V 274 H 103 Z M 292 224 333 241 Q 349 226 361 213 L 314 203 Q 300 217 292 224 Z" fill="black" />
  </g>
  <g class="defect" id="01">
    <path d="M 333 0 Q 340 -16 373 19" fill="none" stroke="red" stroke-width="3" />
  </g>
  <g class="defect" id="02">
    <path d="M 238 367 Q 213 353 215 370" fill="none" stroke="red" stroke-width="3" />
  </g>
</svg>