<svg xmlns="http://www.w3.org/2000/svg" width="512" height="512" viewBox="0 0 512 512">
  <g class="glyph">
    <path d="M 492 0 484 301 192 308 177 9 Z M 426 71 H 250 V 245 H 426 Z M 168 111 156 304 17 310 0 121 Z M 328 75 377 90 Q 376 101 372 115 L 395 115 L 412 104 L 420 159 L 355 163 L 349 178 Q 355 175 362 175 Q 376 175 390 183 Q 405 190 417 200 L 386 239 L 338 197 Q 312 237 281 237 Q 259 237 265 234 Q 280 208 296 167 L 263 169 L 259 111 L 316 113 Q 322 96 328 75 Z M 323 386 Q 323 405 330 416 Q 337 427 360 427 Q 382 427 412 418 Q 390 443 394 445 Q 381 458 364 467 Q 346 476 328 476 Q 307 476 290 465 Q 258 445 258 395 Q 258 368 267 340 L 329 348 Q 323 367 323 386 Z M 170 441 Q 163 441 152 438 L 191 329 L 252 355 Q 242 391 221 416 Q 182 422 170 441 Z M 430 327 Q 451 327 473 344 Q 495 361 512 406 L 453 441 L 411 331 Q 419 327 430 327 Z M 349 321 Q 366 321 385 333 Q 404 346 421 380 L 370 409 L 333 323 Q 339 321 349 321 Z M 98 180 H 72 V 240 H 98 Z" fill="black" />
  </g>
  <g class="defect" id="01">
    <path d="M 412 418 Q 390 443 394 445" fill="none" stroke="red" stroke-width="3" />
  </g>
  <g class="defect" id="02">
    <path d="M 221 416 Q 182 422 170 441" fill="none" stroke="red" stroke-width="3" />
  </g>
  <g class="defect" id="03">
    <path d="M 281 237 Q 259 237 265 234" fill="none" stroke="red" stroke-width="3" />
  </g>
</svg>