<svg xmlns="http://www.w3.org/2000/svg" width="512" height="512" viewBox="0 0 512 512">
  <g class="glyph">
    <path d="M 229 124 292 133 Q 292 148 291 168 L 482 168 L 499 152 L 512 220 L 300 237 L 289 196 Q 284 248 279 279 H 494 L 479 455 H 294 L 277 288 Q 265 350 242 389 Q 219 428 182 427 Q 182 432 191 401 Q 199 369 210 303 Q 203 251 229 124 Z M 135 157 168 159 187 144 197 218 135 221 134 311 189 301 Q 190 341 142 367 Q 94 392 23 403 L 6 331 L 68 321 L 65 224 L 7 226 L 0 149 L 62 153 L 59 60 L 136 65 Z M 299 103 Q 257 103 232 90 Q 207 77 199 58 Q 229 52 315 35 Q 385 19 454 0 L 475 63 Q 369 103 299 103 Z M 421 340 H 352 V 397 H 421 Z" fill="black" />
  </g>
  <g class="defect" id="01">
    <path d="M 199 58 Q 229 52 315 35" fill="none" stroke="red" stroke-width="3" />
  </g>
  <g class="defect" id="02">
    <path d="M 210 303 Q 203 251 229 124" fill="none" stroke="red" stroke-width="3" />
  </g>
</svg>