<svg xmlns="http://www.w3.org/2000/svg" width="512" height="512" viewBox="0 0 512 512">
  <g class="glyph">
    <path d="M 134 157 166 158 185 143 195 217 133 219 132 308 187 299 Q 188 338 140 363 Q 93 389 23 399 L 6 328 L 67 319 L 64 223 L 7 225 L 0 148 L 61 152 L 58 61 L 135 66 Z M 193 255 307 260 306 220 385 222 384 262 459 265 475 251 483 316 382 320 379 460 313 464 309 323 203 327 Q 182 275 193 255 Z M 444 140 443 148 Q 443 183 471 183 Q 482 183 492 179 Q 486 196 467 208 Q 449 220 429 220 Q 407 220 391 206 Q 372 189 372 143 Q 372 110 380 74 H 326 L 316 13 L 458 15 Q 449 81 444 140 Z M 238 0 308 5 308 25 Q 308 95 289 161 Q 269 227 212 227 Q 212 231 218 198 Q 240 153 230 115 Q 236 65 238 0 Z M 217 449 Q 187 462 181 437 L 251 350 L 303 391 Q 286 416 263 432 Q 240 449 217 449 Z M 427 358 Q 447 358 466 370 Q 485 381 498 394 Q 512 408 511 409 L 456 454 L 390 370 Q 408 358 427 358 Z" fill="black" />
  </g>
  <g class="defect" id="01">
    <path d="M 203 327 Q 182 275 193 255" fill="none" stroke="red" stroke-width="3" />
  </g>
  <g class="defect" id="02">
    <path d="M 217 449 Q 187 462 181 437" fill="none" stroke="red" stroke-width="3" />
  </g>
  <g class="defect" id="03">
    <path d="M 218 198 Q 240 153 230 115" fill="none" stroke="red" stroke-width="3" />
  </g>
</svg>