<svg xmlns="http://www.w3.org/2000/svg" width="512" height="512" viewBox="0 0 512 512">
  <g class="glyph">
    <path d="M 206 193 Q 197 193 191 192 Q 217 150 240 98 Q 264 47 280 0 L 349 29 Q 340 53 327 81 L 512 92 L 503 399 Q 503 424 491 442 Q 479 459 453 459 Q 428 459 413 441 Q 397 423 392 397 H 435 V 154 H 293 L 291 141 Q 267 171 245 182 Q 223 193 206 193 Z M 143 157 164 158 182 142 192 220 143 223 142 320 201 310 Q 220 352 150 379 Q 99 406 25 417 L 7 341 L 72 331 L 68 227 L 7 230 L 0 148 L 66 152 L 63 54 L 145 59 Z M 382 313 Q 382 344 347 372 Q 293 387 262 419 L 231 358 L 381 302 Q 382 310 382 313 Z M 291 195 Q 308 195 324 203 Q 340 211 348 218 Q 356 226 370 238 L 317 291 L 247 213 Q 267 195 291 195 Z" fill="black" />
  </g>
  <g class="defect" id="01">
    <path d="M 347 372 Q 293 387 262 419" fill="none" stroke="red" stroke-width="3" />
  </g>
  <g class="defect" id="02">
    <path d="M 201 310 Q 220 352 150 379" fill="none" stroke="red" stroke-width="3" />
  </g>
</svg>