<svg xmlns="http://www.w3.org/2000/svg" width="512" height="512" viewBox="0 0 512 512">
  <g class="glyph">
    <path d="M 403 151 402 200 501 199 482 391 399 393 398 470 341 475 338 394 250 396 232 202 331 201 330 146 Z M 176 133 197 121 200 153 238 52 Q 273 60 273 109 Q 273 140 261 175 L 201 159 L 205 192 L 115 197 L 81 276 Q 98 282 101 283 Q 117 259 139 218 L 190 241 Q 177 276 158 310 Q 184 324 205 337 L 170 394 Q 166 378 123 363 Q 81 417 40 417 Q 21 417 4 407 Q 4 407 13 399 Q 22 392 36 375 Q 50 359 68 334 Q 37 317 9 306 L 46 201 L 7 202 L 0 125 L 71 129 L 93 65 L 157 97 L 142 132 Z M 354 0 Q 357 -16 385 11 Q 399 22 407 35 Q 416 47 417 52 L 394 66 L 511 69 Q 512 78 512 89 Q 526 122 500 148 Q 488 175 455 177 L 454 123 L 284 129 L 281 64 L 346 65 L 322 11 Q 339 0 354 0 Z M 400 255 V 279 H 409 L 419 272 L 423 321 L 400 321 L 399 342 H 428 V 255 Z M 306 277 334 277 334 255 H 306 Z M 306 342 H 336 L 336 323 L 306 324 Z" fill="black" />
  </g>
  <g class="defect" id="01">
    <path d="M 170 394 Q 166 378 123 363" fill="none" stroke="red" stroke-width="3" />
  </g>
  <g class="defect" id="02">
    <path d="M 512 89 Q 526 122 500 148" fill="none" stroke="red" stroke-width="3" />
  </g>
  <g class="defect" id="03">
    <path d="M 354 0 Q 357 -16 385 11" fill="none" stroke="red" stroke-width="3" />
  </g>
</svg>