<svg xmlns="http://www.w3.org/2000/svg" width="512" height="512" viewBox="0 0 512 512">
  <g class="glyph">
    <path d="M 216 152 215 131 293 138 292 154 375 156 394 144 402 205 291 207 V 227 L 362 228 L 379 216 L 387 271 L 290 275 V 294 H 434 L 452 280 L 462 341 L 289 348 V 371 L 405 370 L 390 512 H 109 L 96 373 L 224 372 L 223 351 L 50 357 L 43 294 H 221 L 220 278 L 118 282 L 112 224 L 218 226 L 218 210 L 100 213 L 94 149 Z M 238 0 Q 265 0 282 17 Q 299 34 306 47 L 279 64 L 478 67 L 479 80 Q 479 114 465 146 Q 451 178 411 180 L 410 124 L 99 130 L 92 61 L 228 64 L 200 9 Q 218 0 238 0 Z M 83 106 Q 67 140 75 161 Q 67 182 67 183 L 0 167 L 44 44 Q 83 55 83 106 Z M 331 428 H 173 V 459 H 331 Z" fill="black" />
  </g>
  <g class="defect" id="01">
    <path d="M 83 106 Q 67 140 75 161" fill="none" stroke="red" stroke-width="3" />
  </g>
</svg>