<svg xmlns="http://www.w3.org/2000/svg" width="512" height="512" viewBox="0 0 512 512">
  <g class="glyph">
    <path d="M 0 181 194 178 188 0 281 7 276 177 455 174 448 452 Q 467 488 435 494 Q 422 512 394 512 Q 367 512 351 494 Q 335 477 330 452 H 376 V 255 H 82 V 491 L 8 500 Z M 322 452 136 455 Q 135 459 114 289 L 334 282 Z M 46 36 Q 79 36 105 60 Q 141 84 139 97 Q 148 111 148 111 L 78 158 L 5 48 Q 25 36 46 36 Z M 352 147 Q 330 147 311 135 L 391 26 L 456 70 Q 452 120 410 125 Q 382 147 352 147 Z M 257 351 H 199 V 389 H 257 Z" fill="black" />
  </g>
  <g class="defect" id="01">
    <path d="M 456 70 Q 452 120 410 125" fill="none" stroke="red" stroke-width="3" />
  </g>
  <g class="defect" id="02">
    <path d="M 105 60 Q 141 84 139 97" fill="none" stroke="red" stroke-width="3" />
  </g>
  <g class="defect" id="03">
    <path d="M 448 452 Q 467 488 435 494" fill="none" stroke="red" stroke-width="3" />
  </g>
</svg>