<svg xmlns="http://www.w3.org/2000/svg" width="512" height="512" viewBox="0 0 512 512">
  <g class="glyph">
    <path d="M 339 0 Q 375 -15 373 14 Q 389 28 399 47 L 366 72 L 447 73 L 463 60 L 471 124 L 344 131 Q 314 184 314 208 Q 314 217 318 220 Q 321 224 333 224 Q 353 224 401 211 L 384 154 Q 391 151 400 151 Q 424 151 440 173 Q 472 176 465 222 Q 473 249 472 249 L 421 277 L 412 247 Q 391 259 364 267 Q 336 276 312 276 Q 293 276 279 270 Q 265 263 259 250 Q 254 238 254 224 Q 254 186 282 134 L 240 136 L 235 69 L 338 71 L 305 12 Q 321 0 339 0 Z M 210 248 217 310 151 315 150 378 226 365 Q 223 404 167 428 Q 111 452 32 460 L 16 401 L 90 389 L 87 319 L 20 324 L 15 258 L 194 261 Z M 223 6 230 69 11 79 Q 4 14 3 10 L 209 19 Z M 450 358 Q 450 374 454 385 Q 460 400 480 400 Q 489 400 499 397 Q 508 394 512 392 Q 507 412 491 425 Q 475 437 456 437 Q 462 451 436 434 Q 421 429 411 418 Q 401 407 398 390 Q 394 375 394 352 Q 397 316 404 288 L 458 301 Q 450 333 450 358 Z M 266 288 320 301 Q 315 358 293 398 Q 272 438 231 438 Q 222 438 217 437 Q 217 437 223 430 Q 229 424 242 384 Q 255 345 266 288 Z M 96 211 68 247 0 190 35 91 82 115 48 176 Q 63 183 75 192 Q 88 202 96 211 Z M 243 208 213 242 150 175 191 89 235 116 199 172 Q 212 178 224 188 Q 236 198 243 208 Z M 383 297 379 428 338 434 331 295 Z M 167 208 142 238 82 178 119 99 159 121 125 176 Q 139 182 150 191 Q 160 200 167 208 Z" fill="black" />
  </g>
  <g class="defect" id="01">
    <path d="M 339 0 Q 375 -15 373 14" fill="none" stroke="red" stroke-width="3" />
  </g>
  <g class="defect" id="02">
    <path d="M 440 173 Q 472 176 465 222" fill="none" stroke="red" stroke-width="3" />
  </g>
  <g class="defect" id="03">
    <path d="M 456 437 Q 462 451 436 434" fill="none" stroke="red" stroke-width="3" />
  </g>
</svg>