<svg xmlns="http://www.w3.org/2000/svg" width="512" height="512" viewBox="0 0 512 512">
  <g class="glyph">
    <path d="M 371 415 Q 350 415 334 397 L 387 345 L 325 346 L 324 449 Q 344 475 314 494 Q 302 512 275 512 Q 250 512 235 495 Q 219 477 214 452 H 260 L 257 347 L 182 348 Q 194 354 203 362 Q 213 370 216 373 L 176 418 L 116 357 Q 131 340 151 340 Q 162 340 177 346 L 167 296 H 256 L 255 276 L 149 278 L 142 219 L 254 221 V 202 L 181 203 L 172 146 L 253 146 L 253 119 L 327 126 L 327 146 L 433 147 L 428 223 H 447 L 460 214 L 469 270 L 424 272 L 419 345 L 406 345 L 437 380 Q 428 390 409 402 Q 391 415 371 415 Z M 244 0 Q 263 0 276 9 Q 290 18 297 29 Q 305 39 306 44 L 282 58 L 419 62 L 439 47 L 448 114 L 104 122 L 145 132 Q 130 260 94 350 Q 41 439 0 442 Q 0 445 15 399 Q 30 353 48 282 Q 65 211 78 122 L 54 123 L 47 52 L 231 57 L 208 9 Q 226 0 244 0 Z M 213 411 Q 214 416 214 424 Q 214 453 193 475 Q 153 508 141 509 L 109 454 Q 150 438 181 425 Q 213 412 213 411 Z M 382 422 Q 412 422 454 454 L 417 501 L 344 441 Q 359 422 382 422 Z M 367 296 V 273 L 326 274 V 296 Z M 327 202 326 222 367 222 V 202 Z" fill="black" />
  </g>
  <g class="defect" id="01">
    <path d="M 193 475 Q 153 508 141 509" fill="none" stroke="red" stroke-width="3" />
  </g>
  <g class="defect" id="02">
    <path d="M 94 350 Q 41 439 0 442" fill="none" stroke="red" stroke-width="3" />
  </g>
  <g class="defect" id="03">
    <path d="M 324 449 Q 344 475 314 494" fill="none" stroke="red" stroke-width="3" />
  </g>
</svg>