<svg xmlns="http://www.w3.org/2000/svg" width="512" height="512" viewBox="0 0 512 512">
  <g class="glyph">
    <path d="M 333 0 Q 353 0 369 14 Q 386 27 396 46 L 363 71 L 448 72 L 464 60 L 472 122 L 339 129 Q 308 181 308 205 Q 308 213 311 217 Q 315 220 327 220 Q 348 220 398 208 L 380 152 Q 387 149 397 149 Q 422 149 438 170 Q 455 192 464 218 Q 473 245 471 245 L 418 273 L 409 243 Q 387 255 359 263 Q 331 271 306 271 Q 286 271 272 265 Q 257 259 251 246 Q 246 235 246 220 Q 246 185 275 132 L 227 134 L 220 68 L 332 70 L 298 12 Q 316 0 333 0 Z M 204 229 212 292 155 296 154 362 223 353 Q 219 390 164 412 Q 109 434 32 440 L 16 379 L 93 369 L 89 300 L 34 303 L 28 237 L 188 242 Z M 27 29 203 45 Q 196 71 183 100 Q 170 130 153 155 Q 165 148 179 148 Q 194 148 209 156 Q 224 164 235 173 Q 246 182 246 183 L 207 226 L 144 168 Q 100 227 44 227 Q 22 227 0 217 Q 21 205 57 174 Q 92 143 116 95 L 33 91 Z M 448 352 Q 448 368 452 379 Q 458 394 479 394 Q 488 394 498 391 Q 508 388 512 386 Q 507 406 491 418 Q 474 430 454 430 Q 444 430 434 427 Q 418 422 408 411 Q 398 400 394 384 Q 410 358 391 355 Q 391 319 401 283 L 457 297 Q 455 302 451 319 Q 448 335 448 352 Z M 259 283 313 296 Q 309 352 286 392 Q 264 431 222 431 Q 213 431 207 430 Q 207 430 214 423 Q 220 416 234 378 Q 247 339 259 283 Z M 380 292 375 421 333 426 325 290 Z" fill="black" />
  </g>
  <g class="defect" id="01">
    <path d="M 394 384 Q 410 358 391 355" fill="none" stroke="red" stroke-width="3" />
  </g>
</svg>