<svg xmlns="http://www.w3.org/2000/svg" width="512" height="512" viewBox="0 0 512 512">
  <g class="glyph">
    <path d="M 255 55 264 135 111 145 95 177 Q 113 181 142 191 Q 158 170 169 153 L 223 184 Q 216 199 204 216 Q 229 227 248 238 L 206 303 Q 184 286 158 270 Q 113 315 70 315 Q 33 334 24 300 Q 29 298 53 280 Q 76 263 102 236 Q 63 216 28 201 L 48 150 L 7 153 Q 1 73 0 68 L 78 70 L 104 0 L 174 27 L 151 70 L 236 71 Q 252 58 255 55 Z M 381 167 Q 363 164 342 164 Q 304 164 283 183 Q 259 205 259 234 Q 259 260 278 279 Q 297 298 326 298 Q 351 298 378 282 Q 397 272 412 250 Q 439 268 463 287 L 507 231 Q 483 208 444 189 Q 455 160 462 126 Q 469 93 472 65 L 279 52 L 289 129 L 388 125 Q 386 144 381 167 Z M 244 400 Q 244 421 252 435 Q 257 445 273 449 Q 289 454 310 454 Q 320 454 352 450 Q 373 446 385 440 Q 377 472 342 492 Q 307 512 266 512 Q 250 512 235 509 Q 209 502 192 486 Q 175 470 169 448 Q 164 432 164 414 Q 164 382 178 339 L 252 354 Q 225 376 244 400 Z M 81 334 147 372 Q 131 410 104 436 Q 76 462 40 462 Q 21 462 2 455 Q 18 438 39 407 Q 60 376 81 334 Z M 418 337 Q 442 337 462 357 Q 482 377 496 401 Q 509 424 509 427 L 442 462 L 388 347 Q 403 337 418 337 Z M 293 322 Q 316 322 334 339 Q 352 356 364 381 L 306 416 L 260 332 Q 277 322 293 322 Z M 328 213 Q 342 213 360 221 L 354 231 Q 341 252 321 252 Q 312 252 306 248 Q 300 243 300 235 Q 300 225 312 217 Q 318 213 328 213 Z" fill="black" />
  </g>
  <g class="defect" id="01">
    <path d="M 70 315 Q 33 334 24 300" fill="none" stroke="red" stroke-width="3" />
  </g>
  <g class="defect" id="02">
    <path d="M 310 454 Q 320 454 352 450" fill="none" stroke="red" stroke-width="3" />
  </g>
  <g class="defect" id="03">
    <path d="M 252 354 Q 225 376 244 400" fill="none" stroke="red" stroke-width="3" />
  </g>
</svg>