<svg xmlns="http://www.w3.org/2000/svg" width="512" height="512" viewBox="0 0 512 512">
  <g class="glyph">
    <path d="M 233 231 186 269 162 235 V 452 L 101 461 L 86 66 L 162 71 L 162 188 Q 179 187 194 196 Q 209 204 219 215 Q 230 226 233 231 Z M 440 399 Q 440 415 445 423 Q 439 426 484 445 Q 498 445 512 440 Q 502 467 483 480 Q 464 494 440 494 Q 421 494 403 484 Q 385 475 377 459 Q 368 444 368 420 Q 348 401 374 378 Q 380 356 388 337 L 242 342 L 230 271 L 467 277 Q 456 310 448 343 Q 453 357 440 399 Z M 280 0 346 31 Q 338 52 326 74 L 469 85 L 490 69 L 498 140 L 311 147 L 307 107 Q 287 136 263 155 Q 239 174 212 174 Q 199 174 186 169 Q 207 143 233 99 Q 258 55 280 0 Z M 443 186 464 170 472 241 272 245 265 179 Z M 20 169 80 176 80 193 Q 80 252 64 308 Q 48 365 0 372 Q 8 353 13 302 Q 19 251 20 169 Z" fill="black" />
  </g>
  <g class="defect" id="01">
    <path d="M 368 420 Q 348 401 374 378" fill="none" stroke="red" stroke-width="3" />
  </g>
  <g class="defect" id="02">
    <path d="M 445 423 Q 439 426 484 445" fill="none" stroke="red" stroke-width="3" />
  </g>
  <g class="defect" id="03">
    <path d="M 448 343 Q 453 357 440 399" fill="none" stroke="red" stroke-width="3" />
  </g>
</svg>