<svg xmlns="http://www.w3.org/2000/svg" width="512" height="512" viewBox="0 0 512 512">
  <g class="glyph">
    <path d="M 239 0 Q 260 0 273 13 Q 286 26 293 39 L 273 51 L 405 54 L 422 40 L 428 103 L 334 106 V 119 H 417 L 407 208 L 149 211 L 144 174 H 188 L 188 159 L 152 159 L 146 119 H 186 V 109 L 105 111 L 142 121 Q 137 168 125 219 L 446 218 Q 447 225 447 233 Q 447 258 436 279 Q 426 300 397 303 V 266 L 126 271 L 120 242 Q 101 318 71 369 Q 42 420 0 422 Q 29 343 52 258 Q 75 174 80 111 L 61 112 L 54 47 L 226 51 L 204 11 Q 221 0 239 0 Z M 90 471 Q 99 474 110 474 Q 139 474 163 452 Q 187 430 205 399 L 209 421 L 313 417 Q 313 424 309 433 Q 291 430 274 430 Q 242 430 224 442 Q 206 455 206 472 Q 206 488 222 500 Q 239 512 263 512 Q 284 512 306 503 Q 320 496 334 483 Q 356 493 376 505 L 411 471 Q 393 458 359 446 Q 352 429 374 410 Q 380 391 382 374 L 218 371 L 222 363 L 168 340 Q 149 380 128 414 Q 107 448 90 471 Z M 251 304 Q 251 316 255 324 Q 258 328 267 331 Q 276 334 288 334 Q 299 334 310 332 Q 322 330 330 326 Q 325 344 304 355 Q 283 366 259 366 Q 253 366 241 364 Q 225 360 215 351 Q 205 343 201 331 Q 199 322 199 313 Q 199 294 207 271 L 255 279 Q 251 292 251 304 Z M 148 275 191 298 Q 181 320 164 336 Q 147 351 125 351 Q 113 351 102 346 Q 102 346 114 331 Q 125 317 148 275 Z M 348 276 Q 364 276 379 292 Q 395 308 406 331 L 364 356 L 327 283 Q 337 276 348 276 Z M 284 272 Q 308 272 316 290 Q 325 308 326 308 L 291 330 L 264 278 Q 273 272 284 272 Z M 264 460 Q 275 460 290 465 L 285 471 Q 274 484 258 484 Q 251 484 246 481 Q 241 478 241 474 Q 241 468 250 463 Q 255 460 264 460 Z M 249 174 H 273 L 273 157 L 249 158 Z M 334 157 V 174 H 355 V 156 Z M 249 119 H 272 V 107 L 249 107 Z" fill="black" />
  </g>
  <g class="defect" id="01">
    <path d="M 359 446 Q 352 429 374 410" fill="none" stroke="red" stroke-width="3" />
  </g>
</svg>