<svg xmlns="http://www.w3.org/2000/svg" width="512" height="512" viewBox="0 0 512 512">
  <g class="glyph">
    <path d="M 285 367 Q 301 367 314 376 Q 327 385 336 396 Q 345 408 344 408 L 326 419 L 381 419 L 408 362 L 251 364 L 235 236 L 478 234 L 467 361 L 413 362 L 462 384 Q 452 407 435 419 H 484 L 501 405 L 510 469 L 207 485 L 201 418 L 280 419 L 258 375 Q 273 367 285 367 Z M 224 236 178 273 160 249 V 453 L 100 461 L 85 69 L 161 74 L 160 192 Q 176 194 189 202 Q 203 211 212 221 Q 221 231 224 236 Z M 295 27 V 90 H 327 L 325 0 L 396 6 L 392 90 H 423 V 15 L 494 26 L 483 138 L 234 145 L 219 22 Z M 485 160 503 148 512 209 212 221 206 157 Z M 19 172 79 180 Q 82 255 63 311 Q 44 367 0 374 Q 21 374 13 304 Q 8 240 19 172 Z M 405 285 H 313 V 318 H 405 Z" fill="black" />
  </g>
  <g class="defect" id="01">
    <path d="M 0 374 Q 21 374 13 304" fill="none" stroke="red" stroke-width="3" />
  </g>
  <g class="defect" id="02">
    <path d="M 13 304 Q 8 240 19 172" fill="none" stroke="red" stroke-width="3" />
  </g>
</svg>