<svg xmlns="http://www.w3.org/2000/svg" width="512" height="512" viewBox="0 0 512 512">
  <g class="glyph">
    <path d="M 219 260 Q 232 260 243 269 Q 254 277 262 289 L 233 313 L 268 314 L 265 251 L 332 255 L 331 298 L 364 252 L 400 279 Q 391 292 379 301 Q 366 311 353 311 Q 341 311 331 303 L 330 315 L 377 316 L 391 302 L 400 362 L 329 365 L 329 390 Q 342 379 357 379 Q 371 379 386 388 Q 400 398 410 412 L 370 445 L 329 391 L 328 447 L 275 455 L 271 368 L 191 371 L 186 312 L 220 313 L 192 270 Q 205 260 219 260 Z M 217 208 174 243 152 212 V 413 L 95 421 L 81 49 L 152 54 L 152 166 Q 168 166 182 174 Q 196 182 206 192 Q 215 202 217 208 Z M 469 348 Q 469 359 470 364 Q 475 383 493 383 Q 502 383 512 378 Q 504 392 491 402 Q 478 412 463 412 Q 450 412 436 404 Q 419 401 409 336 Q 409 314 414 288 Q 418 263 425 241 L 248 245 L 239 189 L 487 195 Q 469 304 469 348 Z M 277 0 333 28 Q 330 39 324 53 L 457 59 L 471 45 L 482 105 L 316 113 L 312 78 Q 294 115 267 141 Q 240 167 205 167 Q 193 167 181 164 Q 203 140 229 98 Q 255 55 277 0 Z M 19 146 75 153 Q 77 225 59 278 Q 41 331 0 337 Q 1 337 5 319 Q 10 301 14 258 Q 18 216 19 146 Z M 434 131 449 119 457 170 291 177 286 125 Z M 212 445 Q 198 445 185 435 L 228 374 L 269 405 Q 258 422 243 433 Q 228 445 212 445 Z" fill="black" />
  </g>
  <g class="defect" id="01">
    <path d="M 436 404 Q 419 401 409 336" fill="none" stroke="red" stroke-width="3" />
  </g>
</svg>