<svg xmlns="http://www.w3.org/2000/svg" width="512" height="512" viewBox="0 0 512 512">
  <g class="glyph">
    <path d="M 165 439 Q 184 403 209 320 Q 235 237 260 115 L 327 131 L 318 183 L 482 194 Q 496 231 470 273 Q 462 316 449 352 Q 487 369 512 395 L 471 452 Q 447 431 420 414 Q 408 434 389 447 Q 346 446 339 462 Q 312 462 293 443 Q 275 424 275 398 Q 275 384 280 371 Q 286 358 297 347 Q 317 328 355 328 Q 373 328 390 332 Q 411 311 402 261 L 314 265 L 309 221 Q 288 313 252 378 Q 216 444 165 439 Z M 73 51 149 55 V 134 L 164 135 L 183 119 L 193 194 L 149 198 V 247 L 192 237 Q 190 271 149 298 L 149 362 Q 150 390 137 408 Q 125 427 98 427 Q 74 427 59 410 Q 44 394 37 370 L 81 369 L 80 328 Q 50 338 22 342 L 4 280 L 78 264 L 76 203 L 7 208 L 0 130 L 75 132 Z M 457 0 480 64 Q 440 79 395 89 Q 350 99 314 99 Q 236 99 223 49 Q 234 47 272 41 Q 310 34 362 23 Q 414 12 457 0 Z M 341 377 Q 331 377 326 382 Q 315 390 315 399 Q 315 407 322 413 Q 328 418 337 418 Q 346 418 353 413 Q 361 408 366 396 L 371 385 Q 354 377 341 377 Z" fill="black" />
  </g>
  <g class="defect" id="01">
    <path d="M 390 332 Q 411 311 402 261" fill="none" stroke="red" stroke-width="3" />
  </g>
  <g class="defect" id="02">
    <path d="M 482 194 Q 496 231 470 273" fill="none" stroke="red" stroke-width="3" />
  </g>
  <g class="defect" id="03">
    <path d="M 389 447 Q 346 446 339 462" fill="none" stroke="red" stroke-width="3" />
  </g>
</svg>