<svg xmlns="http://www.w3.org/2000/svg" width="512" height="512" viewBox="0 0 512 512">
  <g class="glyph">
    <path d="M 280 415 210 421 195 354 307 351 320 314 267 318 263 291 Q 217 356 167 351 L 175 334 Q 181 321 199 278 Q 218 235 233 195 L 299 225 Q 294 237 287 252 L 452 258 L 468 245 L 476 305 L 391 310 Q 387 327 381 348 L 481 345 L 497 330 Q 498 336 500 354 Q 502 372 505 395 L 361 408 Q 336 508 261 508 Q 249 508 236 503 Q 257 468 280 415 Z M 71 88 145 92 V 169 L 159 170 L 178 155 L 187 227 L 145 230 V 279 L 187 269 Q 185 303 145 329 V 391 Q 146 418 134 436 Q 122 454 95 454 Q 72 454 57 438 Q 42 422 36 398 L 79 398 L 78 358 Q 49 367 22 372 L 4 311 L 76 295 L 75 236 L 7 241 L 0 165 L 73 167 Z M 402 59 Q 440 59 464 95 Q 476 130 500 175 L 439 200 L 425 166 Q 393 179 354 189 Q 300 216 282 199 Q 229 199 216 167 Q 213 157 213 148 Q 213 119 238 78 Q 263 38 299 0 L 354 43 Q 329 67 311 92 Q 293 116 291 131 Q 290 143 319 143 Q 348 143 410 130 L 383 61 Q 392 59 402 59 Z M 407 424 Q 426 424 443 434 Q 460 445 471 456 Q 483 468 487 475 L 438 512 L 374 434 Q 391 424 407 424 Z" fill="black" />
  </g>
  <g class="defect" id="01">
    <path d="M 464 95 Q 476 130 500 175" fill="none" stroke="red" stroke-width="3" />
  </g>
  <g class="defect" id="02">
    <path d="M 354 189 Q 300 216 282 199" fill="none" stroke="red" stroke-width="3" />
  </g>
  <g class="defect" id="03">
    <path d="M 361 408 Q 336 508 261 508" fill="none" stroke="red" stroke-width="3" />
  </g>
</svg>