<svg xmlns="http://www.w3.org/2000/svg" width="512" height="512" viewBox="0 0 512 512">
  <g class="glyph">
    <path d="M 69 386 210 383 210 369 116 375 Q 111 324 110 320 L 207 319 L 207 307 Q 135 307 141 278 Q 84 348 31 348 Q 19 348 8 345 Q 21 332 41 306 Q 60 280 83 244 L 13 249 L 0 183 L 120 181 Q 123 175 130 161 L 47 164 L 41 98 L 103 99 L 60 33 Q 76 21 94 21 Q 111 21 128 31 Q 144 40 155 51 Q 166 63 168 67 L 124 99 L 161 100 Q 166 49 206 0 L 272 23 Q 260 58 241 101 L 295 102 Q 288 99 281 94 L 330 18 L 383 54 Q 379 64 365 80 Q 351 95 334 102 L 379 103 L 396 89 L 404 153 L 215 159 Q 206 176 204 179 L 409 175 L 426 160 L 437 221 L 170 239 Q 159 255 145 273 Q 174 268 219 258 Q 265 248 308 233 L 325 286 Q 303 293 278 299 V 318 L 328 318 L 340 306 L 351 358 L 278 363 V 381 L 368 379 L 381 365 L 393 424 L 279 433 V 455 Q 279 479 268 496 Q 256 512 230 512 Q 208 512 193 497 Q 178 482 172 461 H 213 L 212 438 L 76 448 Z M 355 233 Q 378 233 398 247 Q 398 271 432 276 Q 446 292 446 294 L 397 335 L 322 243 Q 338 233 355 233 Z" fill="black" />
  </g>
  <g class="defect" id="01">
    <path d="M 161 100 Q 166 49 206 0" fill="none" stroke="red" stroke-width="3" />
  </g>
  <g class="defect" id="02">
    <path d="M 207 307 Q 135 307 141 278" fill="none" stroke="red" stroke-width="3" />
  </g>
  <g class="defect" id="03">
    <path d="M 398 247 Q 398 271 432 276" fill="none" stroke="red" stroke-width="3" />
  </g>
</svg>