<svg xmlns="http://www.w3.org/2000/svg" width="512" height="512" viewBox="0 0 512 512">
  <g class="glyph">
    <path d="M 494 160 414 161 Q 428 166 437 177 L 431 181 L 476 182 L 488 174 L 495 216 L 431 219 V 233 H 464 L 475 226 L 482 262 L 431 264 V 279 H 464 L 475 271 L 483 307 L 431 309 V 324 L 475 325 L 488 315 L 497 357 L 298 364 L 291 321 L 375 323 L 375 311 L 312 314 L 305 277 L 374 278 L 373 267 L 311 269 L 305 232 L 372 233 L 371 221 L 307 224 L 304 204 Q 285 220 269 230 L 274 353 L 220 361 L 210 255 Q 202 256 198 256 Q 172 256 157 237 Q 222 194 257 164 H 191 L 178 7 L 333 3 L 326 163 L 269 164 L 304 201 L 301 180 L 374 181 L 364 166 Q 367 164 370 163 Q 372 162 374 161 H 358 L 345 4 L 500 0 Z M 58 84 131 87 V 165 L 145 166 L 164 151 L 172 224 L 131 227 V 276 L 172 266 Q 170 300 131 327 L 131 390 Q 132 417 120 435 Q 108 454 82 454 Q 59 454 44 437 Q 30 421 24 397 L 66 396 L 65 357 Q 40 365 19 369 L 1 308 L 63 293 L 62 233 L 7 238 L 0 160 L 60 163 Z M 363 433 Q 344 431 321 431 Q 292 431 271 436 Q 249 441 240 450 Q 229 460 229 474 Q 229 490 248 501 Q 267 512 309 512 Q 354 512 387 483 Q 419 493 448 506 L 477 470 Q 453 456 420 446 Q 432 429 442 410 Q 438 378 456 374 L 227 372 L 236 419 L 373 417 Z M 451 38 H 400 V 52 L 430 53 L 441 47 L 446 75 L 400 77 V 88 L 430 89 L 442 83 L 446 112 L 400 113 V 124 H 451 Z M 283 41 H 233 V 54 L 263 55 L 274 49 L 279 78 L 233 79 V 90 L 263 91 L 274 86 L 279 114 L 233 116 V 127 H 283 Z M 301 464 Q 318 464 335 468 Q 328 474 317 477 Q 305 480 294 480 Q 285 480 279 478 Q 273 476 273 474 Q 273 471 278 469 Q 285 464 301 464 Z" fill="black" />
  </g>
  <g class="defect" id="01">
    <path d="M 442 410 Q 438 378 456 374" fill="none" stroke="red" stroke-width="3" />
  </g>
</svg>