<svg xmlns="http://www.w3.org/2000/svg" width="512" height="512" viewBox="0 0 512 512">
  <g class="glyph">
    <path d="M 420 75 462 76 479 63 488 122 432 124 Q 445 175 454 206 Q 464 191 471 179 L 512 207 Q 495 237 472 263 Q 464 278 493 322 Q 502 346 505 352 Q 465 353 431 297 Q 413 307 396 307 Q 387 307 380 305 L 378 337 L 261 338 Q 260 342 248 247 L 245 228 Q 232 282 209 320 Q 174 358 149 362 Q 150 361 160 325 Q 170 288 181 237 Q 192 186 198 133 L 186 133 L 179 71 L 358 74 Q 351 37 347 8 L 406 0 Q 414 49 420 75 Z M 55 74 126 78 V 154 L 140 154 L 158 140 L 167 212 L 126 215 V 262 L 166 253 Q 164 287 126 312 L 126 373 Q 127 399 116 417 Q 104 435 79 435 Q 57 435 43 419 Q 28 403 22 379 L 63 379 L 62 341 Q 38 348 17 351 L 0 292 L 61 278 L 59 221 L 8 224 L 1 150 L 57 152 Z M 325 412 Q 325 428 329 438 Q 335 449 360 449 Q 380 449 404 443 Q 400 463 379 478 Q 358 493 333 493 Q 308 493 289 478 Q 264 460 264 421 Q 264 393 275 363 L 331 373 Q 325 394 325 412 Z M 246 225 386 218 380 298 Q 389 289 413 261 Q 388 206 370 126 L 240 131 L 260 136 L 258 156 L 359 162 L 372 152 L 379 200 L 261 206 L 257 167 Q 253 194 246 225 Z M 184 455 Q 172 455 161 451 L 211 354 L 260 377 Q 251 410 231 432 Q 212 455 184 455 Z M 428 358 Q 448 358 470 374 Q 492 389 508 432 L 451 460 L 412 360 Q 419 358 428 358 Z M 348 349 Q 365 349 382 361 Q 400 372 415 402 L 364 430 L 332 352 Q 339 349 348 349 Z M 443 0 Q 464 0 479 14 Q 493 29 499 41 L 450 69 L 417 7 Q 431 0 443 0 Z M 337 265 H 301 V 293 H 337 Z" fill="black" />
  </g>
  <g class="defect" id="01">
    <path d="M 209 320 Q 174 358 149 362" fill="none" stroke="red" stroke-width="3" />
  </g>
  <g class="defect" id="02">
    <path d="M 472 263 Q 464 278 493 322" fill="none" stroke="red" stroke-width="3" />
  </g>
</svg>