<svg xmlns="http://www.w3.org/2000/svg" width="512" height="512" viewBox="0 0 512 512">
  <g class="glyph">
    <path d="M 215 193 190 194 184 146 Q 167 151 155 150 L 159 177 L 120 181 V 226 L 158 217 Q 156 250 120 274 L 120 333 Q 121 358 110 375 Q 99 392 73 392 Q 52 392 39 377 Q 10 361 20 339 L 59 339 L 58 302 Q 36 308 16 312 L 0 254 L 57 241 L 55 186 L 11 190 L 5 118 L 54 120 L 52 46 L 120 49 V 122 L 133 123 L 151 109 L 152 122 Q 195 76 252 0 L 302 38 Q 293 52 281 68 Q 286 66 292 66 Q 312 66 328 78 Q 344 91 350 97 Q 356 104 356 104 L 315 141 L 266 84 Q 237 119 207 136 L 287 141 L 304 128 L 309 187 L 276 189 L 275 219 H 298 L 315 206 L 322 264 L 274 268 L 274 311 L 300 272 L 335 295 Q 326 311 314 321 Q 320 332 287 332 Q 279 332 273 329 V 345 L 315 337 Q 314 372 278 391 Q 242 411 191 415 L 172 363 L 222 354 L 221 324 L 186 351 L 149 298 Q 162 290 175 290 Q 189 290 201 298 Q 213 307 221 317 L 219 272 L 176 276 L 166 217 L 216 218 Z M 381 198 442 212 Q 438 237 430 266 Q 422 295 410 321 Q 418 317 427 317 Q 443 317 460 326 Q 477 335 491 346 Q 505 357 504 357 L 464 403 L 403 335 Q 366 407 312 403 Q 313 403 326 376 Q 338 349 353 304 Q 368 258 381 198 Z M 343 181 Q 330 181 319 177 Q 333 165 354 127 Q 376 89 402 26 L 457 50 Q 450 74 438 100 L 510 106 Q 512 145 499 173 Q 486 201 457 204 V 158 H 415 L 413 140 Q 380 181 343 181 Z" fill="black" />
  </g>
  <g class="defect" id="01">
    <path d="M 39 377 Q 10 361 20 339" fill="none" stroke="red" stroke-width="3" />
  </g>
  <g class="defect" id="02">
    <path d="M 314 321 Q 320 332 287 332" fill="none" stroke="red" stroke-width="3" />
  </g>
</svg>