<svg xmlns="http://www.w3.org/2000/svg" width="512" height="512" viewBox="0 0 512 512">
  <g class="glyph">
    <path d="M 421 234 Q 439 234 457 240 Q 475 246 489 253 Q 503 261 502 261 L 465 314 Q 423 285 398 267 L 396 313 L 357 317 Q 435 329 500 336 L 472 397 Q 444 395 407 390 L 395 512 H 127 L 111 382 Q 97 383 90 383 Q 63 383 37 375 Q 49 371 77 357 Q 106 342 141 316 Q 119 303 107 288 Q 74 310 42 310 Q 20 310 0 300 Q -12 300 13 292 Q 26 284 57 251 Q 88 219 118 175 H 92 L 75 5 L 431 0 L 420 172 L 172 175 L 194 185 Q 192 190 187 198 L 303 224 Q 283 261 252 297 Q 293 306 332 312 L 327 182 L 404 185 L 400 236 Q 409 234 421 234 Z M 314 70 332 61 338 106 158 110 V 125 H 354 V 54 H 158 V 67 Z M 333 432 H 188 V 458 H 333 Z M 202 344 Q 160 351 142 375 H 317 Q 253 362 202 344 Z M 208 255 154 244 Q 147 253 131 269 L 182 281 Q 199 265 208 255 Z" fill="black" />
  </g>
  <g class="defect" id="01">
    <path d="M 0 300 Q -12 300 13 292" fill="none" stroke="red" stroke-width="3" />
  </g>
  <g class="defect" id="02">
    <path d="M 202 344 Q 160 351 142 375" fill="none" stroke="red" stroke-width="3" />
  </g>
</svg>