<svg xmlns="http://www.w3.org/2000/svg" width="512" height="512" viewBox="0 0 512 512">
  <g class="glyph">
    <path d="M 365 238 Q 330 225 300 225 Q 285 225 270 229 Q 245 234 233 253 Q 220 272 220 296 Q 220 312 225 325 Q 231 339 240 347 Q 266 370 297 370 Q 338 370 382 328 L 387 323 Q 427 351 468 385 L 512 330 Q 464 290 426 267 Q 449 226 466 172 Q 465 108 492 70 L 257 50 L 265 128 H 404 Q 401 146 390 177 Q 379 207 365 238 Z M 161 106 195 107 214 92 223 166 161 170 162 209 Q 182 208 201 219 Q 220 229 233 244 L 189 292 L 162 257 L 162 402 L 99 408 L 94 271 Q 80 299 60 317 Q 39 334 11 334 Q 4 334 0 334 Q 0 334 7 321 Q 14 308 29 272 Q 43 236 55 195 L 91 205 L 90 174 L 23 178 L 16 101 L 88 104 L 84 0 L 161 5 Z M 287 276 Q 305 276 335 292 Q 318 316 306 318 Q 301 320 293 320 Q 279 320 270 313 Q 262 306 262 297 Q 262 290 267 284 Q 272 279 281 276 Q 283 276 287 276 Z" fill="black" />
  </g>
  <g class="defect" id="01">
    <path d="M 466 172 Q 465 108 492 70" fill="none" stroke="red" stroke-width="3" />
  </g>
</svg>