<svg xmlns="http://www.w3.org/2000/svg" width="512" height="512" viewBox="0 0 512 512">
  <g class="glyph">
    <path d="M 512 162 471 212 Q 453 201 432 183 L 438 222 L 275 233 L 269 182 Q 237 198 208 196 L 209 210 L 151 214 L 151 259 Q 170 257 188 267 Q 206 278 219 291 L 216 268 L 214 255 L 477 261 Q 490 249 491 247 L 499 306 L 346 314 Q 336 326 325 346 Q 314 365 312 382 Q 311 396 338 396 Q 362 396 412 384 L 393 331 Q 405 328 413 328 Q 447 328 465 358 Q 484 388 490 427 L 438 452 L 426 420 Q 403 430 370 441 Q 337 452 309 452 Q 263 452 253 417 Q 250 406 250 395 Q 250 360 275 318 L 223 320 L 220 303 L 182 337 L 151 297 L 152 430 L 93 437 L 88 308 Q 58 368 10 368 Q 4 368 0 367 Q 15 347 15 340 Q 29 313 52 237 L 85 246 L 84 217 L 21 221 L 15 149 L 82 152 L 78 54 L 150 59 L 151 154 L 183 155 L 201 141 L 206 179 Q 238 150 280 101 Q 322 51 360 0 L 406 41 L 385 70 Q 409 88 447 116 Q 485 144 512 162 Z M 283 174 416 180 423 174 Q 383 136 366 97 Q 324 149 283 174 Z" fill="black" />
  </g>
  <g class="defect" id="01">
    <path d="M 0 367 Q 15 347 15 340" fill="none" stroke="red" stroke-width="3" />
  </g>
</svg>