<svg xmlns="http://www.w3.org/2000/svg" width="512" height="512" viewBox="0 0 512 512">
  <g class="glyph">
    <path d="M 358 0 365 55 322 57 322 87 356 86 Q 362 111 362 135 Q 362 153 359 164 Q 371 142 387 106 Q 402 70 414 25 L 468 43 Q 463 66 454 90 L 491 95 L 506 83 L 512 139 L 433 145 L 432 135 Q 406 173 371 173 Q 367 173 356 171 Q 350 185 339 192 Q 331 198 322 200 V 225 L 341 220 L 351 207 L 364 257 Q 340 265 313 271 Q 285 276 261 276 Q 221 276 203 259 Q 185 243 185 194 Q 185 166 191 130 Q 197 94 205 62 L 253 71 L 250 87 H 272 L 271 59 L 190 62 L 184 4 L 345 11 Z M 220 384 211 286 471 287 466 388 H 477 L 489 375 L 497 438 L 197 447 L 192 383 Z M 138 141 157 142 174 128 182 195 138 198 V 235 Q 154 237 170 248 Q 185 259 196 273 L 155 310 L 138 287 V 402 L 83 408 L 79 294 Q 83 316 51 331 Q 33 346 10 346 Q 4 346 0 345 Q 11 326 24 293 Q 36 260 49 219 L 77 227 L 77 202 L 18 206 L 13 136 L 75 139 L 72 55 L 139 59 Z M 421 179 Q 423 194 460 194 Q 490 209 495 230 L 449 267 L 395 187 Q 407 179 421 179 Z M 240 161 Q 260 164 277 164 Q 300 164 309 157 Q 314 153 316 146 Q 318 138 317 130 H 244 Q 241 145 240 161 Z M 274 385 H 293 V 342 H 274 Z M 337 386 H 356 V 342 H 337 Z M 274 230 273 206 Q 256 204 239 201 Q 240 215 244 220 Q 250 230 274 230 Z M 400 342 V 387 H 417 V 342 Z" fill="black" />
  </g>
  <g class="defect" id="01">
    <path d="M 79 294 Q 83 316 51 331" fill="none" stroke="red" stroke-width="3" />
  </g>
  <g class="defect" id="02">
    <path d="M 460 194 Q 490 209 495 230" fill="none" stroke="red" stroke-width="3" />
  </g>
  <g class="defect" id="03">
    <path d="M 421 179 Q 423 194 460 194" fill="none" stroke="red" stroke-width="3" />
  </g>
</svg>