<svg xmlns="http://www.w3.org/2000/svg" width="512" height="512" viewBox="0 0 512 512">
  <g class="glyph">
    <path d="M 278 344 Q 306 344 316 361 Q 325 379 325 379 L 317 386 L 366 386 L 392 339 L 252 341 L 245 241 Q 215 271 185 273 Q 211 281 197 286 Q 202 292 202 292 L 162 330 L 138 298 V 406 L 83 413 L 79 298 Q 68 321 51 335 Q 34 349 10 349 Q 4 349 0 349 Q 0 350 8 333 Q 16 317 27 289 Q 38 261 49 223 L 77 231 L 77 206 L 19 210 L 12 140 L 74 143 L 72 59 L 139 63 L 138 145 L 158 145 L 175 132 L 183 199 L 138 202 V 248 Q 154 250 171 262 Q 188 243 209 215 Q 229 186 246 148 L 221 175 L 178 129 Q 193 112 211 112 Q 232 112 253 130 Q 263 105 269 82 L 206 81 L 203 11 L 342 34 Q 335 60 325 92 Q 314 124 301 153 L 371 158 L 380 152 Q 350 100 350 56 Q 350 37 356 25 Q 374 63 426 126 L 474 71 L 512 112 Q 502 126 487 135 Q 472 144 457 144 Q 449 144 439 140 Q 474 182 511 218 L 468 260 Q 460 252 444 236 L 439 338 L 404 338 L 439 361 Q 431 377 420 387 L 467 388 L 482 376 L 488 435 L 197 445 L 189 383 L 266 385 L 249 354 Q 264 344 278 344 Z M 422 73 Q 422 53 388 58 L 438 0 L 477 41 Q 466 55 452 64 Q 438 73 422 73 Z M 268 212 424 212 Q 403 188 386 161 L 391 195 L 296 199 L 292 170 Q 279 196 268 212 Z M 382 262 H 307 V 289 H 382 Z" fill="black" />
  </g>
  <g class="defect" id="01">
    <path d="M 185 273 Q 211 281 197 286" fill="none" stroke="red" stroke-width="3" />
  </g>
  <g class="defect" id="02">
    <path d="M 422 73 Q 422 53 388 58" fill="none" stroke="red" stroke-width="3" />
  </g>
</svg>