<svg xmlns="http://www.w3.org/2000/svg" width="512" height="512" viewBox="0 0 512 512">
  <g class="glyph">
    <path d="M 28 362 57 305 30 306 Q 25 255 24 252 L 285 256 Q 299 248 301 246 L 306 296 L 249 298 L 289 315 L 257 348 Q 287 359 303 372 L 273 397 H 291 L 302 388 L 307 433 L 206 438 V 458 L 312 457 L 325 447 L 331 497 L 16 512 Q 10 463 9 459 L 135 458 L 133 441 L 41 445 Q 48 398 32 395 L 85 395 Z M 387 314 Q 373 323 392 349 Q 401 366 423 366 Q 436 366 449 361 Q 445 385 428 397 Q 411 409 387 409 Q 353 409 358 404 Q 344 399 336 391 Q 319 374 319 326 Q 319 285 330 236 L 75 245 L 65 188 L 402 185 Q 387 267 387 314 Z M 80 0 147 24 141 42 375 51 393 37 402 100 125 107 123 86 Q 80 167 22 167 Q 11 167 0 164 Q 15 144 36 102 Q 57 60 80 0 Z M 331 125 349 111 358 167 119 178 113 122 Z M 132 373 108 396 181 396 121 352 154 302 88 304 116 313 84 348 Q 101 353 114 360 Q 126 367 132 373 Z M 214 376 190 396 265 397 202 351 235 299 165 302 201 317 171 350 Q 187 356 198 363 Q 209 369 214 376 Z" fill="black" />
  </g>
  <g class="defect" id="01">
    <path d="M 387 314 Q 373 323 392 349" fill="none" stroke="red" stroke-width="3" />
  </g>
  <g class="defect" id="02">
    <path d="M 41 445 Q 48 398 32 395" fill="none" stroke="red" stroke-width="3" />
  </g>
  <g class="defect" id="03">
    <path d="M 387 409 Q 353 409 358 404" fill="none" stroke="red" stroke-width="3" />
  </g>
</svg>