<svg xmlns="http://www.w3.org/2000/svg" width="512" height="512" viewBox="0 0 512 512">
  <g class="glyph">
    <path d="M 331 0 Q 347 0 361 10 Q 374 19 382 31 Q 390 42 392 47 L 375 58 L 474 61 L 494 45 L 502 115 L 407 118 L 456 143 Q 445 167 429 181 L 511 181 Q 512 190 512 201 Q 512 232 500 257 Q 487 281 452 283 L 450 236 L 244 244 L 240 179 L 279 180 L 257 135 Q 273 125 287 125 Q 318 125 313 134 Q 325 142 331 152 Q 338 161 339 165 L 316 180 L 374 180 L 407 118 L 191 125 L 185 52 L 317 57 L 295 12 Q 313 0 331 0 Z M 333 244 Q 356 244 370 260 Q 385 276 391 288 L 376 298 L 476 300 L 496 286 L 506 351 L 322 358 L 320 373 L 460 378 L 454 476 Q 452 491 441 501 Q 430 511 409 511 Q 388 511 374 498 Q 361 485 356 467 H 388 V 426 H 304 Q 290 462 269 485 Q 248 508 218 508 Q 211 508 203 506 Q 205 501 212 482 Q 220 463 230 430 Q 221 414 250 361 L 188 363 L 182 295 L 321 297 L 300 255 Q 316 244 333 244 Z M 138 307 Q 149 327 149 348 Q 149 380 126 412 Q 103 445 69 470 L 14 423 Q 63 383 138 307 Z M 73 70 Q 73 80 110 77 Q 128 85 143 94 Q 157 104 156 104 L 109 163 L 24 94 Q 42 70 73 70 Z M 55 207 Q 73 207 93 214 Q 113 220 130 230 L 94 295 L 0 239 Q 17 207 55 207 Z M 226 225 Q 226 256 214 291 L 149 273 L 190 169 Q 226 178 226 225 Z" fill="black" />
  </g>
  <g class="defect" id="01">
    <path d="M 287 125 Q 318 125 313 134" fill="none" stroke="red" stroke-width="3" />
  </g>
  <g class="defect" id="02">
    <path d="M 73 70 Q 73 80 110 77" fill="none" stroke="red" stroke-width="3" />
  </g>
  <g class="defect" id="03">
    <path d="M 230 430 Q 221 414 250 361" fill="none" stroke="red" stroke-width="3" />
  </g>
</svg>