<svg xmlns="http://www.w3.org/2000/svg" width="512" height="512" viewBox="0 0 512 512">
  <g class="glyph">
    <path d="M 235 3 233 41 268 43 282 31 284 93 231 95 230 120 284 117 275 300 134 301 123 124 177 122 176 96 126 97 119 34 174 37 173 0 Z M 238 337 263 338 282 326 283 337 342 303 V 242 L 300 241 L 291 189 L 388 192 L 386 373 Q 387 389 380 402 Q 374 414 358 416 Q 355 416 351 416 Q 335 416 324 404 Q 314 393 310 376 H 342 V 339 Q 335 349 325 358 Q 314 366 303 371 L 283 342 L 288 388 L 236 390 L 235 433 L 182 436 L 180 393 L 126 396 L 119 332 L 178 335 L 177 310 L 239 314 Z M 454 238 412 237 403 183 502 186 500 371 Q 501 389 492 402 Q 498 416 465 416 Q 448 416 437 404 Q 426 392 422 375 H 454 V 336 Q 448 347 437 355 Q 426 364 415 369 L 393 336 L 454 299 Z M 394 7 448 37 Q 435 67 415 95 Q 424 92 435 92 Q 454 92 474 102 Q 495 112 512 126 L 475 171 L 404 110 Q 357 171 311 171 Q 298 171 286 166 Q 268 167 304 145 Q 321 123 345 87 Q 369 52 394 7 Z M 105 272 Q 116 289 116 308 Q 116 334 98 359 Q 80 385 54 404 L 6 362 Q 34 339 70 306 Q 105 273 105 272 Z M 52 54 Q 67 54 82 60 Q 96 66 107 74 Q 118 81 117 81 L 78 132 L 10 76 Q 26 54 52 54 Z M 44 173 Q 55 173 68 177 Q 92 181 89 186 Q 98 191 97 192 L 68 249 L 0 201 Q 13 173 44 173 Z M 229 174 H 178 V 191 L 204 192 L 219 180 L 225 229 L 178 232 V 247 H 229 Z M 418 253 Q 428 253 436 257 Q 445 262 452 268 L 429 300 L 390 266 Q 403 253 418 253 Z M 306 257 Q 314 257 322 260 Q 329 264 334 267 Q 338 271 339 273 L 317 303 L 278 271 Q 291 257 306 257 Z" fill="black" />
  </g>
  <g class="defect" id="01">
    <path d="M 492 402 Q 498 416 465 416" fill="none" stroke="red" stroke-width="3" />
  </g>
  <g class="defect" id="02">
    <path d="M 68 177 Q 92 181 89 186" fill="none" stroke="red" stroke-width="3" />
  </g>
  <g class="defect" id="03">
    <path d="M 286 166 Q 268 167 304 145" fill="none" stroke="red" stroke-width="3" />
  </g>
</svg>