<svg xmlns="http://www.w3.org/2000/svg" width="512" height="512" viewBox="0 0 512 512">
  <g class="glyph">
    <path d="M 484 0 470 195 241 197 223 2 Z M 454 222 471 206 483 275 396 279 396 315 484 315 501 299 512 367 394 375 393 448 332 455 328 379 218 386 211 315 H 324 L 322 283 L 232 288 L 227 218 Z M 22 134 Q 42 134 57 146 Q 72 158 82 175 Q 94 103 100 32 L 166 43 Q 162 110 151 178 L 183 132 L 228 165 Q 213 189 190 206 Q 156 208 142 222 Q 134 266 122 300 Q 141 298 160 308 Q 180 318 195 330 Q 211 342 211 343 L 167 388 L 111 330 Q 77 408 31 408 Q 25 408 22 407 Q 22 407 29 392 Q 37 378 51 326 Q 66 275 76 212 L 38 231 L 0 139 Q 11 134 22 134 Z M 300 61 V 78 L 383 81 L 395 74 Q 396 78 397 90 Q 398 103 400 119 L 300 123 V 140 H 409 V 61 Z" fill="black" />
  </g>
  <g class="defect" id="01">
    <path d="M 190 206 Q 156 208 142 222" fill="none" stroke="red" stroke-width="3" />
  </g>
</svg>