<svg xmlns="http://www.w3.org/2000/svg" width="512" height="512" viewBox="0 0 512 512">
  <g class="glyph">
    <path d="M 366 185 385 188 V 122 L 308 120 L 302 51 L 506 61 Q 512 91 512 123 Q 512 160 501 189 Q 490 218 464 229 Q 436 240 408 240 Q 386 240 365 234 Q 367 248 370 256 Q 378 275 418 275 Q 442 275 468 270 Q 494 264 498 260 Q 513 295 475 297 Q 457 312 432 319 Q 407 327 384 327 Q 378 327 367 325 Q 401 351 433 371 L 384 423 Q 315 377 267 321 Q 220 266 220 215 Q 220 201 224 189 Q 253 226 300 269 Q 306 251 295 225 Q 295 202 299 176 Q 302 150 308 131 L 376 143 Q 374 146 371 159 Q 368 171 366 185 Z M 63 128 128 143 Q 119 253 87 327 Q 55 402 0 396 Q 17 364 34 295 Q 51 226 63 128 Z M 256 0 285 66 Q 245 87 199 102 Q 154 116 114 116 Q 57 116 25 83 Q 29 83 53 77 Q 77 70 128 52 Q 197 33 256 0 Z M 201 184 197 390 144 396 135 180 Z M 450 133 450 123 H 426 V 183 Q 440 175 445 161 Q 450 147 450 133 Z" fill="black" />
  </g>
  <g class="defect" id="01">
    <path d="M 128 52 Q 197 33 256 0" fill="none" stroke="red" stroke-width="3" />
  </g>
  <g class="defect" id="02">
    <path d="M 498 260 Q 513 295 475 297" fill="none" stroke="red" stroke-width="3" />
  </g>
  <g class="defect" id="03">
    <path d="M 300 269 Q 306 251 295 225" fill="none" stroke="red" stroke-width="3" />
  </g>
</svg>