<svg xmlns="http://www.w3.org/2000/svg" width="512" height="512" viewBox="0 0 512 512">
  <g class="glyph">
    <path d="M 304 76 H 229 L 219 0 L 473 12 L 469 105 H 483 L 503 90 L 512 159 L 467 160 L 462 251 L 320 255 Q 314 269 306 286 L 467 285 L 454 453 L 264 458 L 255 367 Q 231 389 177 409 Q 171 409 158 406 Q 162 371 202 347 Q 226 308 248 257 L 223 257 L 213 192 H 272 Q 284 192 280 167 L 206 170 L 199 98 L 298 100 Q 299 95 301 89 Q 303 83 304 76 Z M 184 43 192 117 138 118 138 187 H 162 L 181 171 L 190 244 L 138 249 V 312 L 194 299 Q 191 342 143 369 Q 96 397 31 409 L 8 341 L 70 327 L 66 255 L 12 259 L 3 184 L 63 185 L 60 121 L 6 122 L 0 47 L 165 58 Z M 394 345 H 327 V 400 H 394 Z M 400 192 V 163 L 349 165 L 342 192 Z M 327 76 368 85 364 102 400 103 V 75 Z" fill="black" />
  </g>
  <g class="defect" id="01">
    <path d="M 158 406 Q 162 371 202 347" fill="none" stroke="red" stroke-width="3" />
  </g>
  <g class="defect" id="02">
    <path d="M 255 367 Q 231 389 177 409" fill="none" stroke="red" stroke-width="3" />
  </g>
  <g class="defect" id="03">
    <path d="M 272 192 Q 284 192 280 167" fill="none" stroke="red" stroke-width="3" />
  </g>
</svg>