<svg xmlns="http://www.w3.org/2000/svg" width="512" height="512" viewBox="0 0 512 512">
  <g class="glyph">
    <path d="M 312 0 Q 332 0 347 11 Q 363 22 373 36 Q 384 50 382 50 L 344 76 L 438 78 L 456 64 L 465 132 L 319 139 Q 306 160 295 183 Q 284 206 284 221 Q 284 230 288 234 Q 293 238 306 238 Q 321 248 384 225 L 364 163 Q 372 160 383 160 Q 399 160 429 183 Q 448 207 458 235 Q 468 263 466 265 L 407 294 L 397 262 Q 372 275 340 284 Q 308 293 281 293 Q 233 293 220 265 Q 215 254 215 238 Q 215 199 246 142 L 199 145 L 192 73 L 312 76 L 273 13 Q 293 0 312 0 Z M 176 83 183 154 132 156 131 221 H 154 L 173 207 L 182 277 L 131 281 V 342 L 186 329 Q 182 370 137 396 Q 92 423 30 434 L 8 369 L 67 356 L 64 287 L 11 291 L 3 220 L 61 220 L 57 159 L 6 161 L 0 88 L 157 99 Z M 441 382 Q 441 398 444 409 Q 451 425 475 425 Q 473 407 497 422 Q 509 419 512 416 Q 506 438 488 452 Q 470 465 448 465 Q 435 465 424 461 Q 407 455 396 443 Q 384 431 380 415 Q 377 399 377 373 Q 379 335 388 305 L 450 320 Q 448 326 444 345 Q 441 364 441 382 Z M 229 305 290 319 Q 285 380 260 423 Q 235 465 188 465 Q 181 465 172 464 Q 184 452 199 412 Q 214 373 229 305 Z M 364 315 358 455 311 461 303 313 Z" fill="black" />
  </g>
  <g class="defect" id="01">
    <path d="M 383 160 Q 399 160 429 183" fill="none" stroke="red" stroke-width="3" />
  </g>
  <g class="defect" id="02">
    <path d="M 475 425 Q 473 407 497 422" fill="none" stroke="red" stroke-width="3" />
  </g>
  <g class="defect" id="03">
    <path d="M 306 238 Q 321 248 384 225" fill="none" stroke="red" stroke-width="3" />
  </g>
</svg>