<svg xmlns="http://www.w3.org/2000/svg" width="512" height="512" viewBox="0 0 512 512">
  <g class="glyph">
    <path d="M 421 147 302 147 Q 314 149 323 155 Q 333 161 339 168 L 330 172 L 407 173 L 417 166 L 422 204 L 330 206 V 219 H 391 L 399 213 L 404 246 L 330 248 V 261 L 393 260 L 400 254 L 407 288 L 330 290 V 305 H 416 L 426 297 L 431 335 L 158 343 L 155 305 L 273 305 L 272 292 L 189 294 L 184 262 L 271 261 L 270 250 L 189 252 L 185 219 H 269 L 268 209 L 169 211 L 164 178 Q 148 193 127 208 L 132 334 L 74 342 L 64 239 Q 52 243 40 243 Q 17 243 0 229 Q 1 229 37 205 Q 72 182 109 150 L 44 150 L 28 6 L 223 3 L 214 148 L 136 149 L 164 178 L 163 171 L 269 172 L 257 152 Q 266 149 274 147 H 252 L 236 3 L 431 0 Z M 250 421 Q 211 416 177 417 Q 142 418 122 434 Q 102 450 102 472 Q 102 488 118 500 Q 134 512 166 512 Q 191 512 225 503 Q 238 512 275 476 Q 317 492 358 510 L 390 465 Q 351 445 311 434 Q 324 414 333 393 Q 342 371 347 352 L 110 350 L 121 400 L 265 398 Q 259 409 250 421 Z M 371 34 H 299 V 46 L 352 47 L 359 42 L 364 68 L 299 71 V 80 L 352 81 L 359 75 L 364 102 L 299 104 V 113 H 371 Z M 165 38 H 93 V 49 L 146 50 L 153 45 L 158 72 L 93 74 V 82 L 146 84 L 154 79 L 158 105 L 93 107 V 116 H 165 Z M 213 458 Q 203 466 190 471 Q 178 475 169 475 Q 159 475 152 472 Q 163 454 144 463 Q 144 458 151 455 Q 158 452 172 452 Q 189 452 213 458 Z" fill="black" />
  </g>
  <g class="defect" id="01">
    <path d="M 152 472 Q 163 454 144 463" fill="none" stroke="red" stroke-width="3" />
  </g>
  <g class="defect" id="02">
    <path d="M 225 503 Q 238 512 275 476" fill="none" stroke="red" stroke-width="3" />
  </g>
</svg>