<svg xmlns="http://www.w3.org/2000/svg" width="512" height="512" viewBox="0 0 512 512">
  <g class="glyph">
    <path d="M 423 204 H 475 Q 473 232 468 264 Q 462 297 453 324 Q 489 342 512 367 L 477 412 Q 454 391 430 374 Q 418 392 402 401 Q 379 415 358 415 Q 336 415 322 401 Q 308 387 308 367 Q 308 343 327 322 Q 357 287 376 304 Q 387 304 402 307 Q 408 284 408 265 L 337 267 L 332 240 Q 322 309 298 357 Q 275 406 231 407 Q 231 405 233 401 Q 236 397 238 390 L 175 394 L 174 431 L 127 437 L 126 396 L 48 400 L 45 341 L 125 344 L 125 325 H 53 L 40 160 L 121 160 L 121 144 L 71 145 L 68 90 L 120 93 V 75 L 179 79 L 179 96 L 209 97 L 222 86 L 226 140 L 178 142 V 159 L 259 158 L 245 325 H 176 L 175 345 L 223 346 L 236 334 L 241 382 Q 269 307 282 151 L 339 159 Q 339 178 337 203 H 368 L 366 140 H 287 L 278 75 L 364 77 L 362 4 L 427 8 L 425 78 L 501 80 L 501 96 Q 501 128 490 155 Q 478 181 446 184 V 139 H 424 Z M 278 33 Q 278 63 268 88 Q 258 112 231 114 L 230 64 L 76 69 L 73 9 L 277 14 Q 278 22 278 33 Z M 64 47 Q 64 76 51 111 L 0 94 L 36 0 Q 64 7 64 47 Z M 177 209 V 225 H 186 L 196 216 L 199 262 L 177 263 L 176 279 H 203 V 209 Z M 386 348 Q 374 343 363 343 Q 354 343 349 347 Q 328 366 340 362 Q 340 368 344 370 Q 348 373 355 373 Q 361 373 369 369 Q 376 364 382 355 Q 383 354 384 352 Q 385 350 386 348 Z M 96 279 H 124 V 265 L 96 267 Z M 96 222 123 223 V 209 H 96 Z" fill="black" />
  </g>
  <g class="defect" id="01">
    <path d="M 349 347 Q 328 366 340 362" fill="none" stroke="red" stroke-width="3" />
  </g>
  <g class="defect" id="02">
    <path d="M 327 322 Q 357 287 376 304" fill="none" stroke="red" stroke-width="3" />
  </g>
</svg>