<svg xmlns="http://www.w3.org/2000/svg" width="512" height="512" viewBox="0 0 512 512">
  <g class="glyph">
    <path d="M 205 2 263 6 263 48 300 50 300 0 358 4 356 52 372 39 376 104 355 105 351 222 H 359 L 375 205 L 379 270 L 279 275 L 316 293 Q 306 319 289 338 Q 291 356 253 356 Q 247 356 241 354 Q 242 361 245 363 Q 250 369 270 369 Q 297 369 338 360 L 344 344 L 364 396 Q 352 403 319 410 Q 286 417 255 417 Q 216 417 199 405 Q 184 394 184 366 Q 184 348 190 327 Q 195 306 203 286 L 255 297 Q 241 328 240 348 Q 265 301 275 275 L 193 280 L 186 217 L 213 218 L 209 110 L 190 111 L 183 44 L 207 46 Z M 175 72 179 137 108 139 130 148 Q 119 183 101 214 L 183 210 L 173 361 L 67 366 L 57 264 Q 38 277 18 277 Q 11 277 0 275 Q 0 274 18 251 Q 37 227 71 140 L 38 141 L 30 75 L 159 85 Z M 335 284 Q 360 284 378 312 Q 391 260 402 200 L 380 200 L 373 139 L 411 141 L 419 79 L 470 87 Q 469 113 464 144 L 512 147 L 509 309 Q 509 326 502 337 Q 494 348 478 348 Q 461 348 451 337 Q 441 326 437 310 H 462 V 199 H 455 Q 442 263 420 306 Q 398 349 365 350 Q 370 340 374 322 L 343 337 L 319 287 Q 328 284 335 284 Z M 262 175 H 284 L 293 166 L 298 203 L 261 205 V 220 L 302 221 L 301 107 L 262 108 V 125 H 284 L 293 116 L 298 153 L 262 155 Z M 127 265 H 111 V 310 H 127 Z" fill="black" />
  </g>
  <g class="defect" id="01">
    <path d="M 289 338 Q 291 356 253 356" fill="none" stroke="red" stroke-width="3" />
  </g>
</svg>