<svg xmlns="http://www.w3.org/2000/svg" width="512" height="512" viewBox="0 0 512 512">
  <g class="glyph">
    <path d="M 156 362 71 364 63 294 185 296 Q 199 261 214 217 L 279 238 Q 273 264 263 296 L 431 298 L 426 461 Q 426 481 414 495 Q 402 509 378 509 Q 354 509 339 492 Q 324 476 318 452 H 358 V 358 L 240 360 Q 212 426 172 469 Q 133 512 82 512 Q 69 512 59 510 Q 77 494 102 457 Q 128 420 156 362 Z M 243 0 Q 262 0 278 10 Q 294 21 305 33 Q 316 46 317 51 L 285 72 L 479 75 L 480 90 Q 480 129 466 164 Q 452 199 413 201 L 411 138 L 109 142 L 99 69 L 238 71 L 205 12 Q 209 10 243 0 Z M 91 119 Q 91 139 86 163 Q 80 187 72 207 L 0 189 L 50 53 Q 91 65 91 119 Z M 321 166 Q 346 166 371 181 Q 395 196 414 217 L 366 262 L 282 177 Q 300 166 321 166 Z M 145 166 199 202 Q 183 228 158 247 Q 134 266 107 266 Q 88 266 71 256 Q 98 214 145 166 Z" fill="black" />
  </g>
  <g class="defect" id="01">
    <path d="M 205 12 Q 209 10 243 0" fill="none" stroke="red" stroke-width="3" />
  </g>
  <g class="defect" id="02">
    <path d="M 71 256 Q 98 214 145 166" fill="none" stroke="red" stroke-width="3" />
  </g>
</svg>