<svg xmlns="http://www.w3.org/2000/svg" width="512" height="512" viewBox="0 0 512 512">
  <g class="glyph">
    <path d="M 338 0 Q 362 0 375 13 Q 388 26 394 40 L 372 55 L 475 57 L 493 42 L 502 106 L 250 118 L 279 125 Q 277 157 272 194 L 343 196 V 183 H 290 L 283 136 L 342 137 L 342 114 L 407 118 V 137 L 486 138 L 483 199 H 497 L 506 189 L 512 242 L 481 243 L 478 306 L 407 307 V 416 Q 389 438 396 454 Q 386 470 363 470 Q 341 470 329 455 Q 317 440 311 424 Q 302 436 289 445 Q 275 454 262 460 L 230 417 Q 256 407 281 395 Q 306 384 311 381 L 323 376 Q 325 383 325 390 Q 325 406 314 421 H 348 L 346 308 L 284 309 L 280 265 H 345 L 344 248 L 274 250 L 270 210 Q 259 290 232 352 Q 205 414 158 421 Q 171 397 186 337 L 163 357 L 137 316 L 136 417 L 81 424 L 79 345 Q 52 385 22 385 Q 13 385 3 380 L 7 371 Q 33 321 51 281 L 77 297 L 77 268 L 12 272 L 5 200 L 75 203 L 74 163 L 35 191 L 0 125 Q 12 116 25 116 Q 49 116 73 146 L 71 61 L 139 66 L 138 160 Q 156 129 167 105 L 210 133 Q 199 155 182 170 Q 166 186 147 186 Q 144 186 138 185 V 205 L 173 206 L 190 192 L 199 260 L 137 264 V 289 Q 143 288 146 288 Q 169 288 192 311 Q 208 236 220 119 L 206 119 L 198 52 L 327 55 L 302 10 Q 321 0 338 0 Z M 445 390 Q 463 390 479 401 Q 496 411 506 422 L 468 462 L 410 407 Q 425 390 445 390 Z M 443 378 Q 424 378 410 362 L 468 310 L 501 349 Q 469 378 443 378 Z M 274 314 Q 293 314 309 328 Q 325 342 331 351 L 291 383 L 247 325 Q 240 294 274 314 Z M 434 265 V 245 L 407 246 V 265 Z M 407 183 V 197 L 434 197 V 183 Z" fill="black" />
  </g>
  <g class="defect" id="01">
    <path d="M 247 325 Q 240 294 274 314" fill="none" stroke="red" stroke-width="3" />
  </g>
  <g class="defect" id="02">
    <path d="M 407 416 Q 389 438 396 454" fill="none" stroke="red" stroke-width="3" />
  </g>
</svg>