<svg xmlns="http://www.w3.org/2000/svg" width="512" height="512" viewBox="0 0 512 512">
  <g class="glyph">
    <path d="M 319 325 349 326 346 243 252 241 245 180 380 181 Q 400 154 412 129 L 346 122 Q 325 145 301 158 Q 278 171 252 171 Q 233 171 218 165 Q 244 144 278 102 Q 312 59 347 0 L 404 36 Q 397 50 387 67 L 504 85 Q 497 112 482 138 Q 467 165 444 181 H 507 Q 512 208 512 238 Q 512 281 497 318 Q 483 354 445 369 Q 398 381 376 381 Q 350 381 318 376 Q 321 402 331 415 Q 341 427 356 434 Q 372 441 399 441 Q 409 441 415 441 Q 431 440 447 435 Q 464 431 475 426 Q 487 422 488 420 Q 487 440 469 458 Q 452 475 425 485 Q 398 495 369 495 Q 355 495 345 493 Q 285 485 277 462 Q 255 439 250 418 Q 243 392 243 356 Q 243 329 247 301 Q 251 273 257 252 L 329 267 Q 323 295 319 325 Z M 152 144 201 182 Q 163 232 137 268 Q 112 304 115 309 Q 117 312 123 312 Q 135 312 158 303 L 147 264 Q 156 261 164 261 Q 188 261 206 287 Q 223 313 232 350 L 178 372 L 172 354 Q 155 360 129 367 Q 103 374 80 374 Q 40 374 31 349 Q 28 344 28 337 Q 28 306 69 246 L 4 200 L 113 41 L 171 82 L 95 180 L 110 192 Q 132 166 152 144 Z M 17 467 Q 8 467 0 464 L 38 381 L 85 403 Q 77 430 59 448 Q 42 467 17 467 Z M 178 379 Q 195 379 208 392 Q 238 387 231 420 Q 239 435 239 437 L 191 463 L 156 386 Q 166 379 178 379 Z M 112 386 Q 129 386 140 399 Q 152 413 157 428 Q 162 444 162 447 L 114 465 L 93 390 Q 102 386 112 386 Z M 415 318 Q 430 309 438 289 Q 445 268 444 243 H 411 L 410 320 Q 413 319 415 318 Z" fill="black" />
  </g>
  <g class="defect" id="01">
    <path d="M 445 369 Q 398 381 376 381" fill="none" stroke="red" stroke-width="3" />
  </g>
  <g class="defect" id="02">
    <path d="M 345 493 Q 285 485 277 462" fill="none" stroke="red" stroke-width="3" />
  </g>
  <g class="defect" id="03">
    <path d="M 208 392 Q 238 387 231 420" fill="none" stroke="red" stroke-width="3" />
  </g>
</svg>