<svg xmlns="http://www.w3.org/2000/svg" width="512" height="512" viewBox="0 0 512 512">
  <g class="glyph">
    <path d="M 240 114 114 118 112 104 Q 76 153 30 153 Q 17 153 7 150 Q 25 128 47 89 Q 52 50 89 1 L 150 24 Q 146 39 138 57 L 216 61 L 234 47 L 241 113 Q 272 69 300 0 L 360 22 Q 355 36 348 53 L 436 57 L 454 43 L 462 110 L 333 114 L 329 87 Q 291 148 244 152 L 287 183 L 274 197 Q 401 269 469 291 L 434 350 Q 395 336 357 314 L 361 342 L 279 345 L 278 373 L 342 374 L 356 362 L 364 420 L 278 424 V 447 L 385 448 L 403 434 L 412 498 L 72 512 L 66 445 L 212 446 L 212 427 L 129 431 L 124 369 L 210 371 L 210 347 L 114 350 L 111 322 Q 75 338 45 338 Q 20 338 0 328 Q 8 324 41 301 Q 75 278 123 239 Q 171 201 221 151 Q 204 164 212 149 Q 225 137 240 114 Z M 168 290 324 294 Q 270 255 259 213 Q 216 257 168 290 Z M 366 131 Q 384 131 401 140 Q 417 150 429 163 L 385 204 L 325 145 Q 345 131 366 131 Z M 133 133 Q 148 133 159 140 Q 171 147 178 155 Q 185 162 185 164 L 140 207 L 91 149 Q 113 133 133 133 Z" fill="black" />
  </g>
  <g class="defect" id="01">
    <path d="M 221 151 Q 204 164 212 149" fill="none" stroke="red" stroke-width="3" />
  </g>
  <g class="defect" id="02">
    <path d="M 47 89 Q 52 50 89 1" fill="none" stroke="red" stroke-width="3" />
  </g>
</svg>