<svg xmlns="http://www.w3.org/2000/svg" width="512" height="512" viewBox="0 0 512 512">
  <g class="glyph">
    <path d="M 512 158 474 214 Q 461 177 412 164 Q 382 134 366 96 Q 323 159 285 182 Q 247 205 218 205 Q 212 205 203 203 L 201 327 L 235 319 Q 229 345 201 367 L 200 455 L 149 463 L 147 396 Q 117 407 82 415 Q 48 423 18 426 L 0 361 Q 10 360 32 357 L 22 129 L 89 133 V 161 H 107 L 126 146 L 134 215 L 88 218 V 252 L 107 252 L 126 237 L 134 306 L 88 309 V 348 L 132 340 L 144 338 L 137 117 L 7 120 L 2 46 L 202 55 L 218 43 L 224 115 L 203 115 L 203 198 Q 234 167 274 112 Q 314 57 350 0 L 402 37 L 385 67 Q 493 151 512 158 Z M 246 248 467 254 Q 458 298 439 338 Q 420 379 390 400 Q 416 411 447 430 L 408 487 L 260 397 Q 283 381 314 381 Q 327 381 345 384 Q 368 350 380 318 L 254 322 Z M 340 158 Q 384 168 410 202 L 362 245 L 307 172 Q 321 158 340 158 Z" fill="black" />
  </g>
  <g class="defect" id="01">
    <path d="M 474 214 Q 461 177 412 164" fill="none" stroke="red" stroke-width="3" />
  </g>
  <g class="defect" id="02">
    <path d="M 340 158 Q 384 168 410 202" fill="none" stroke="red" stroke-width="3" />
  </g>
  <g class="defect" id="03">
    <path d="M 385 67 Q 493 151 512 158" fill="none" stroke="red" stroke-width="3" />
  </g>
</svg>