<svg xmlns="http://www.w3.org/2000/svg" width="512" height="512" viewBox="0 0 512 512">
  <g class="glyph">
    <path d="M 476 0 461 193 234 195 215 3 Z M 140 110 187 147 Q 152 192 129 225 Q 107 258 109 262 Q 111 265 117 265 Q 125 265 148 258 L 137 220 Q 146 217 154 217 Q 177 217 193 242 Q 210 266 218 302 L 167 322 L 162 306 Q 110 324 76 324 Q 38 324 29 301 Q 27 296 27 289 Q 27 260 65 203 L 4 158 L 105 9 L 160 48 L 91 139 L 105 151 Q 124 128 140 110 Z M 429 274 479 237 512 286 Q 501 296 478 308 Q 455 319 435 319 Q 429 319 427 319 Q 427 340 430 351 Q 434 359 443 363 Q 452 367 464 367 Q 476 367 487 365 Q 499 362 501 359 Q 494 388 475 406 Q 456 423 432 423 Q 422 423 412 420 Q 382 410 371 378 Q 361 346 362 305 Q 363 286 367 256 Q 371 226 377 205 L 438 218 Q 438 220 435 237 Q 431 253 429 274 Z M 291 259 332 262 346 249 354 315 286 318 Q 286 339 290 350 Q 282 348 322 366 Q 333 366 344 364 Q 355 361 358 358 Q 351 387 333 405 Q 314 423 292 423 Q 284 423 273 420 Q 243 409 233 378 Q 223 347 225 306 Q 225 286 229 256 Q 234 226 238 206 L 297 218 Q 297 221 295 231 Q 293 241 291 259 Z M 293 61 V 76 L 374 79 Q 386 72 388 70 Q 388 75 389 88 Q 390 102 391 119 L 293 122 V 138 H 398 V 61 Z M 17 413 Q 8 413 0 411 L 36 331 L 81 352 Q 90 390 57 395 Q 40 413 17 413 Z M 168 329 Q 199 329 213 357 Q 226 384 227 385 L 181 409 L 147 335 Q 157 329 168 329 Z M 106 336 Q 124 336 136 353 Q 148 370 154 395 L 108 412 L 88 340 Q 98 336 106 336 Z" fill="black" />
  </g>
  <g class="defect" id="01">
    <path d="M 81 352 Q 90 390 57 395" fill="none" stroke="red" stroke-width="3" />
  </g>
  <g class="defect" id="02">
    <path d="M 290 350 Q 282 348 322 366" fill="none" stroke="red" stroke-width="3" />
  </g>
</svg>