<svg xmlns="http://www.w3.org/2000/svg" width="512" height="512" viewBox="0 0 512 512">
  <g class="glyph">
    <path d="M 84 117 7 119 Q 1 49 0 45 L 80 50 L 78 0 L 156 6 L 154 54 L 213 57 L 228 43 Q 229 49 231 68 Q 233 88 235 114 L 151 116 L 149 147 L 221 147 L 219 170 Q 267 157 286 94 Q 340 48 353 1 L 408 41 L 392 66 L 512 138 L 471 189 Q 442 172 415 147 Q 398 136 372 93 Q 332 145 296 164 Q 259 183 231 183 Q 222 183 218 182 L 209 334 L 21 336 L 8 148 H 85 Z M 248 272 Q 260 272 272 278 Q 284 284 293 292 V 258 H 232 L 227 193 L 349 198 L 350 432 Q 351 455 339 471 Q 327 487 300 484 Q 282 483 270 469 Q 257 454 252 436 H 293 V 380 Q 285 392 273 402 Q 260 412 247 417 L 217 378 Q 240 367 293 336 V 310 L 264 336 L 217 281 Q 232 272 248 272 Z M 381 270 Q 406 270 429 293 V 258 H 368 L 363 193 L 485 198 L 486 423 Q 487 447 475 462 Q 463 477 436 475 Q 418 474 406 460 Q 393 446 388 426 H 429 V 378 Q 422 390 409 399 Q 397 408 385 413 L 355 374 Q 369 367 392 354 Q 414 341 429 332 V 306 L 398 334 L 351 280 Q 365 270 381 270 Z M 90 447 10 452 Q 3 383 2 380 L 86 381 L 85 350 L 157 355 L 156 381 H 198 L 214 368 Q 215 374 217 393 Q 219 412 222 437 L 154 442 L 153 488 L 93 494 Z M 79 206 V 222 L 128 223 L 140 215 L 145 263 L 79 265 V 283 H 153 V 206 Z" fill="black" />
  </g>
  <g class="defect" id="01">
    <path d="M 286 94 Q 340 48 353 1" fill="none" stroke="red" stroke-width="3" />
  </g>
  <g class="defect" id="02">
    <path d="M 415 147 Q 398 136 372 93" fill="none" stroke="red" stroke-width="3" />
  </g>
  <g class="defect" id="03">
    <path d="M 219 170 Q 267 157 286 94" fill="none" stroke="red" stroke-width="3" />
  </g>
</svg>