<svg xmlns="http://www.w3.org/2000/svg" width="512" height="512" viewBox="0 0 512 512">
  <g class="glyph">
    <path d="M 97 109 208 113 210 404 Q 211 421 203 433 Q 194 446 174 446 Q 155 446 143 431 Q 130 416 126 394 H 153 V 300 L 84 303 Q 81 323 79 333 Q 105 320 107 320 Q 119 320 130 328 Q 142 335 151 346 L 117 384 L 78 336 Q 68 385 51 416 Q 33 447 5 449 Q 5 448 11 421 Q 18 395 25 306 L 7 306 L 0 240 L 29 242 Q 33 190 34 123 L 92 130 L 92 166 V 184 Q 100 180 107 180 Q 128 180 140 192 Q 151 204 152 204 L 118 239 L 91 209 Q 91 215 90 230 L 90 244 L 153 247 V 168 L 103 168 Z M 423 215 480 178 512 230 Q 470 260 437 260 Q 428 260 421 258 Q 417 314 417 334 Q 417 373 423 378 Q 431 387 451 387 Q 464 387 478 384 Q 493 381 500 377 Q 493 406 470 422 Q 447 438 421 438 Q 399 438 382 427 Q 366 416 360 395 Q 353 369 353 319 Q 353 269 359 202 Q 365 135 374 72 L 435 83 Q 428 150 423 215 Z M 319 203 339 188 349 253 295 256 294 371 H 338 Q 331 394 316 411 Q 300 428 278 428 Q 252 428 239 409 Q 246 391 227 365 L 234 95 L 297 103 L 296 201 Z M 151 0 183 59 Q 161 74 134 85 Q 107 96 83 96 Q 45 96 22 65 Q 24 65 65 48 Q 106 30 151 0 Z" fill="black" />
  </g>
  <g class="defect" id="01">
    <path d="M 79 333 Q 105 320 107 320" fill="none" stroke="red" stroke-width="3" />
  </g>
  <g class="defect" id="02">
    <path d="M 239 409 Q 246 391 227 365" fill="none" stroke="red" stroke-width="3" />
  </g>
</svg>