<svg xmlns="http://www.w3.org/2000/svg" width="512" height="512" viewBox="0 0 512 512">
  <g class="glyph">
    <path d="M 436 151 428 505 31 512 14 159 Z M 360 5 357 38 428 39 449 23 458 98 351 102 347 139 283 140 283 104 173 107 172 135 105 142 103 109 7 112 0 33 97 34 94 3 175 5 175 36 281 37 281 0 Z M 299 223 H 94 V 449 H 361 V 223 H 319 L 331 271 Q 310 293 264 286 L 264 311 L 329 312 L 344 299 L 351 359 L 263 364 L 261 437 L 204 440 L 201 367 L 160 369 L 196 390 Q 186 409 171 423 Q 155 437 137 437 Q 124 437 109 427 L 146 370 L 115 371 L 110 309 L 199 311 L 198 291 Q 148 289 121 252 Q 129 252 157 249 Q 185 245 225 239 Q 265 232 299 223 Z M 296 372 Q 311 372 327 381 Q 353 403 354 404 L 311 440 L 267 384 Q 280 372 296 372 Z" fill="black" />
  </g>
  <g class="defect" id="01">
    <path d="M 331 271 Q 310 293 264 286" fill="none" stroke="red" stroke-width="3" />
  </g>
  <g class="defect" id="02">
    <path d="M 327 381 Q 353 403 354 404" fill="none" stroke="red" stroke-width="3" />
  </g>
  <g class="defect" id="03">
    <path d="M 198 291 Q 148 289 121 252" fill="none" stroke="red" stroke-width="3" />
  </g>
</svg>