<svg xmlns="http://www.w3.org/2000/svg" width="512" height="512" viewBox="0 0 512 512">
  <g class="glyph">
    <path d="M 378 5 374 38 443 39 463 23 473 99 368 103 365 139 301 141 300 105 190 108 190 135 122 141 119 110 20 113 13 34 113 35 111 2 193 4 192 36 299 37 298 0 Z M 463 183 455 346 Q 454 362 444 375 Q 434 387 414 390 Q 412 390 407 390 Q 387 390 371 375 Q 335 371 347 337 H 389 V 249 H 215 L 207 180 Z M 294 369 Q 294 397 298 417 Q 302 438 316 448 Q 330 458 346 461 Q 356 463 367 463 Q 391 463 419 457 Q 448 452 453 448 Q 446 474 416 492 Q 386 510 351 511 L 336 512 Q 305 512 281 503 Q 256 495 243 475 Q 217 436 217 367 Q 217 338 222 308 Q 240 263 234 255 L 305 266 Q 301 282 297 311 Q 294 341 294 369 Z M 169 368 Q 169 402 140 439 Q 111 475 69 505 L 18 444 L 163 341 Q 169 355 169 368 Z M 52 265 Q 71 265 91 273 Q 111 282 127 294 L 80 355 L 0 293 Q 20 265 52 265 Z M 86 161 Q 118 148 121 168 Q 138 175 151 183 Q 164 192 163 192 L 115 252 L 37 187 Q 55 161 86 161 Z" fill="black" />
  </g>
  <g class="defect" id="01">
    <path d="M 86 161 Q 118 148 121 168" fill="none" stroke="red" stroke-width="3" />
  </g>
  <g class="defect" id="02">
    <path d="M 371 375 Q 335 371 347 337" fill="none" stroke="red" stroke-width="3" />
  </g>
  <g class="defect" id="03">
    <path d="M 222 308 Q 240 263 234 255" fill="none" stroke="red" stroke-width="3" />
  </g>
</svg>