<svg xmlns="http://www.w3.org/2000/svg" width="512" height="512" viewBox="0 0 512 512">
  <g class="glyph">
    <path d="M 196 345 Q 196 371 176 393 Q 183 395 192 395 Q 211 395 220 378 Q 224 372 224 359 Q 213 339 205 262 L 240 211 L 105 216 L 99 146 L 341 161 L 273 269 Q 286 308 290 344 Q 304 337 321 337 Q 352 337 388 363 V 271 Q 374 285 355 295 Q 337 305 318 305 Q 298 305 279 290 L 358 210 L 388 239 V 203 L 469 211 L 458 506 L 10 512 L 1 220 L 85 224 V 244 Q 96 238 112 238 Q 148 238 170 256 Q 192 275 193 275 L 151 323 L 85 266 V 435 H 388 V 382 L 356 419 L 291 361 Q 292 394 282 410 Q 274 423 262 428 Q 250 434 236 434 Q 216 434 198 424 Q 180 413 173 395 Q 162 405 148 413 Q 118 405 121 425 L 89 372 L 193 325 Q 196 337 196 345 Z M 371 4 367 43 428 45 448 28 458 107 360 109 358 137 292 139 291 111 178 113 V 133 L 108 140 L 106 115 L 7 118 L 0 36 L 100 39 L 97 3 L 181 4 L 180 40 L 290 42 L 289 0 Z" fill="black" />
  </g>
  <g class="defect" id="01">
    <path d="M 224 359 Q 213 339 205 262" fill="none" stroke="red" stroke-width="3" />
  </g>
  <g class="defect" id="02">
    <path d="M 148 413 Q 118 405 121 425" fill="none" stroke="red" stroke-width="3" />
  </g>
</svg>