<svg xmlns="http://www.w3.org/2000/svg" width="512" height="512" viewBox="0 0 512 512">
  <g class="glyph">
    <path d="M 262 173 260 116 320 120 320 131 392 132 400 122 406 160 319 162 318 174 435 176 Q 436 183 436 191 Q 436 210 426 224 Q 402 251 392 240 V 214 L 329 214 L 325 227 L 369 224 L 376 215 L 384 249 L 330 255 Q 338 261 358 261 Q 369 261 381 260 Q 392 258 395 256 Q 392 265 382 272 Q 372 278 359 282 H 417 L 426 272 L 433 313 L 322 319 L 329 325 Q 299 347 269 360 L 284 373 Q 269 387 250 398 Q 230 408 210 408 Q 198 408 187 404 Q 187 405 200 397 Q 214 388 238 370 Q 234 371 223 371 Q 206 371 194 363 Q 200 360 219 348 Q 238 336 259 323 L 221 325 L 218 304 Q 206 349 184 378 Q 163 407 132 407 Q 133 407 141 381 Q 149 356 159 313 Q 169 270 176 215 H 166 L 161 170 Z M 8 295 138 304 Q 137 329 132 359 Q 127 390 119 417 Q 165 429 219 438 L 218 438 Q 221 436 241 421 Q 261 405 293 376 L 318 397 Q 303 414 285 426 Q 288 426 295 426 Q 325 426 325 403 Q 325 391 318 376 Q 310 361 300 347 L 338 329 Q 351 343 360 358 L 410 319 L 435 349 Q 424 357 411 363 Q 397 369 385 369 Q 371 369 362 362 Q 367 371 371 383 Q 380 376 393 376 Q 417 376 430 390 Q 443 405 443 405 L 412 436 L 373 394 Q 374 396 374 400 Q 374 415 364 429 Q 358 438 346 443 Q 334 448 322 448 Q 308 448 296 443 Q 284 438 279 429 Q 258 441 239 441 Q 326 453 401 453 L 379 512 Q 270 508 206 485 Q 152 462 111 436 Q 80 509 23 509 Q 10 509 0 506 Q 26 481 45 444 Q 65 407 68 364 L 15 366 Z M 344 8 341 32 394 33 413 19 421 87 336 90 333 111 274 113 273 91 171 93 170 118 108 123 105 95 18 97 11 26 100 28 98 0 173 1 172 29 271 31 270 3 Z M 58 168 Q 79 168 100 182 Q 121 196 137 216 L 75 263 L 18 182 Q 38 168 58 168 Z M 276 214 187 215 233 226 Q 230 252 223 282 L 306 282 Q 283 276 276 261 L 239 264 L 236 230 L 272 229 Q 274 221 276 214 Z" fill="black" />
  </g>
  <g class="defect" id="01">
    <path d="M 206 485 Q 152 462 111 436" fill="none" stroke="red" stroke-width="3" />
  </g>
  <g class="defect" id="02">
    <path d="M 426 224 Q 402 251 392 240" fill="none" stroke="red" stroke-width="3" />
  </g>
</svg>