<svg xmlns="http://www.w3.org/2000/svg" width="512" height="512" viewBox="0 0 512 512">
  <g class="glyph">
    <path d="M 233 428 Q 233 438 237 446 Q 242 455 270 455 Q 294 455 325 449 L 334 440 L 348 480 Q 293 493 248 493 Q 204 493 187 478 Q 172 463 172 437 Q 172 420 180 395 Q 167 400 154 400 Q 139 400 131 395 Q 183 333 210 291 H 204 L 192 139 L 434 138 L 421 288 L 250 291 L 273 304 L 268 313 L 451 314 L 445 476 Q 445 491 436 501 Q 428 512 409 512 Q 389 512 377 501 Q 365 489 362 473 H 387 V 362 L 332 363 L 351 375 Q 345 385 335 400 Q 355 400 369 411 Q 383 422 384 422 L 357 452 L 319 419 Q 295 443 267 443 Q 255 443 244 439 L 301 363 L 258 364 L 251 336 Q 235 357 216 373 L 244 381 Q 233 407 233 428 Z M 351 4 347 38 401 39 420 24 429 95 341 97 338 125 278 127 278 99 175 101 174 127 111 132 108 102 20 105 13 31 103 33 101 3 177 4 176 34 277 36 276 0 Z M 103 431 Q 105 449 131 449 Q 143 449 155 446 Q 150 460 132 473 Q 113 486 92 486 Q 70 486 51 471 Q 44 439 33 422 Q 33 400 40 373 Q 47 347 58 324 L 6 325 L 0 254 L 135 270 Q 120 323 111 368 Q 102 414 103 431 Z M 68 146 Q 90 146 110 159 Q 130 172 144 190 L 81 238 L 22 161 Q 45 146 68 146 Z M 266 184 V 199 L 338 202 L 349 193 Q 350 197 351 208 Q 369 207 353 234 L 266 236 V 251 H 361 V 184 Z" fill="black" />
  </g>
  <g class="defect" id="01">
    <path d="M 51 471 Q 44 439 33 422" fill="none" stroke="red" stroke-width="3" />
  </g>
  <g class="defect" id="02">
    <path d="M 351 208 Q 369 207 353 234" fill="none" stroke="red" stroke-width="3" />
  </g>
</svg>