<svg xmlns="http://www.w3.org/2000/svg" width="512" height="512" viewBox="0 0 512 512">
  <g class="glyph">
    <path d="M 80 374 79 306 14 308 0 135 74 134 73 55 142 59 141 133 215 132 207 302 140 304 139 364 Q 145 363 150 362 Q 155 361 158 360 L 148 329 Q 152 328 157 328 Q 185 328 203 353 Q 222 377 231 412 L 181 429 L 168 390 Q 148 409 110 424 Q 72 439 31 447 L 9 384 Q 36 381 80 374 Z M 403 4 402 40 470 44 486 32 493 93 401 94 401 116 462 116 477 105 485 156 400 160 399 184 488 182 504 168 512 224 224 244 218 186 335 184 334 163 248 167 242 113 333 115 332 94 232 95 227 31 330 36 329 0 Z M 244 257 484 250 481 433 Q 470 476 470 475 Q 459 492 436 492 Q 419 492 407 479 Q 395 466 390 448 H 420 V 309 H 311 V 331 L 389 332 L 402 321 L 408 370 L 311 376 V 395 L 393 396 L 407 384 L 413 433 L 311 439 V 481 L 250 487 Z M 158 197 H 141 L 140 244 H 158 Z M 59 244 H 77 L 76 197 H 59 Z" fill="black" />
  </g>
  <g class="defect" id="01">
    <path d="M 481 433 Q 470 476 470 475" fill="none" stroke="red" stroke-width="3" />
  </g>
</svg>