<svg xmlns="http://www.w3.org/2000/svg" width="512" height="512" viewBox="0 0 512 512">
  <g class="glyph">
    <path d="M 439 5 437 90 512 88 504 393 244 398 232 95 303 93 300 8 361 13 361 92 379 91 378 0 Z M 83 334 81 265 14 268 0 92 77 91 75 9 145 14 144 90 221 89 212 262 142 264 142 324 161 320 151 289 Q 155 288 160 288 Q 185 288 200 307 Q 216 326 225 350 Q 234 373 233 373 L 183 391 L 171 351 Q 139 358 114 386 Q 76 401 35 409 L 13 345 Q 28 358 83 334 Z M 453 267 433 268 432 333 H 453 Z M 291 333 H 313 L 310 274 L 291 274 Z M 363 333 H 381 V 270 L 363 271 Z M 436 158 434 208 453 208 V 158 Z M 362 206 380 207 380 158 H 362 Z M 160 155 H 144 L 143 202 H 160 Z M 63 202 H 80 L 79 155 H 63 Z M 291 204 308 205 305 158 H 291 Z" fill="black" />
  </g>
  <g class="defect" id="01">
    <path d="M 171 351 Q 139 358 114 386" fill="none" stroke="red" stroke-width="3" />
  </g>
  <g class="defect" id="02">
    <path d="M 13 345 Q 28 358 83 334" fill="none" stroke="red" stroke-width="3" />
  </g>
</svg>