<svg xmlns="http://www.w3.org/2000/svg" width="512" height="512" viewBox="0 0 512 512">
  <g class="glyph">
    <path d="M 234 227 Q 248 227 262 236 Q 255 227 255 217 Q 255 199 275 184 Q 307 157 325 172 Q 342 172 360 175 Q 364 163 365 155 L 279 158 L 275 129 Q 268 131 260 131 Q 254 131 246 129 Q 258 109 268 78 Q 278 47 282 10 L 339 17 Q 338 42 331 67 Q 323 93 309 109 L 386 112 Q 378 102 378 84 Q 378 76 380 69 L 353 70 L 346 13 L 435 13 Q 429 41 429 61 Q 429 77 433 83 Q 439 92 456 92 Q 465 92 475 89 Q 471 103 461 112 Q 451 120 438 124 L 432 126 Q 428 158 413 189 Q 447 202 467 216 L 430 252 Q 410 239 387 228 Q 389 241 357 248 Q 334 258 314 258 Q 294 258 278 249 Q 285 258 287 261 L 273 271 L 384 273 L 400 261 L 408 314 L 76 321 L 71 265 L 218 269 L 202 238 Q 218 227 234 227 Z M 50 176 96 187 94 201 Q 102 202 120 203 L 118 173 H 49 L 44 131 L 240 132 Q 245 148 245 166 Q 245 189 234 208 Q 224 226 197 233 Q 173 240 144 240 Q 118 240 84 233 Q 74 259 53 276 Q 33 292 0 290 Q 1 289 16 263 Q 32 236 50 176 Z M 357 414 351 508 134 512 125 417 Z M 174 3 173 28 221 30 233 21 239 66 171 67 170 85 204 86 215 78 221 116 55 123 49 82 118 84 117 68 34 69 32 23 115 26 113 0 Z M 356 372 365 363 370 401 122 409 118 372 Z M 345 330 352 321 358 359 127 364 124 326 Z M 298 453 H 184 V 475 H 298 Z M 315 204 Q 306 204 301 208 Q 292 213 292 219 Q 292 223 297 226 Q 303 230 310 230 Q 326 230 337 216 L 342 210 Q 326 204 315 204 Z M 181 196 Q 189 191 194 185 Q 198 179 199 173 H 168 L 167 201 Q 175 200 181 196 Z" fill="black" />
  </g>
  <g class="defect" id="01">
    <path d="M 275 184 Q 307 157 325 172" fill="none" stroke="red" stroke-width="3" />
  </g>
  <g class="defect" id="02">
    <path d="M 387 228 Q 389 241 357 248" fill="none" stroke="red" stroke-width="3" />
  </g>
</svg>