<svg xmlns="http://www.w3.org/2000/svg" width="512" height="512" viewBox="0 0 512 512">
  <g class="glyph">
    <path d="M 402 2 402 38 475 40 492 27 498 89 402 92 V 114 L 472 115 L 488 104 L 496 155 L 401 160 V 185 H 487 L 504 172 L 512 228 L 217 242 L 210 184 L 340 184 L 339 162 L 245 166 L 239 112 L 337 114 L 336 93 L 230 96 L 226 30 L 334 35 L 332 0 Z M 240 257 494 251 492 436 Q 473 461 480 478 Q 468 495 443 495 Q 426 495 414 482 Q 402 469 395 450 H 427 V 309 H 312 V 332 L 394 333 Q 406 323 408 322 L 415 371 L 312 377 V 397 L 398 398 L 413 386 L 419 436 L 312 441 V 484 L 247 490 Z M 195 324 188 457 35 462 24 327 Z M 98 8 Q 136 8 131 19 Q 146 29 154 41 Q 182 53 165 59 L 130 82 L 189 85 L 208 71 L 215 141 L 7 144 L 0 73 L 91 79 L 60 22 Q 80 8 98 8 Z M 177 249 195 236 202 299 27 307 20 243 Z M 166 170 184 156 191 220 35 228 28 163 Z M 130 379 H 91 V 409 H 130 Z" fill="black" />
  </g>
  <g class="defect" id="01">
    <path d="M 98 8 Q 136 8 131 19" fill="none" stroke="red" stroke-width="3" />
  </g>
  <g class="defect" id="02">
    <path d="M 154 41 Q 182 53 165 59" fill="none" stroke="red" stroke-width="3" />
  </g>
  <g class="defect" id="03">
    <path d="M 492 436 Q 473 461 480 478" fill="none" stroke="red" stroke-width="3" />
  </g>
</svg>