<svg xmlns="http://www.w3.org/2000/svg" width="512" height="512" viewBox="0 0 512 512">
  <g class="glyph">
    <path d="M 305 277 305 241 H 205 L 186 3 L 495 0 L 477 241 H 380 V 278 L 475 280 L 495 264 L 504 335 L 379 340 L 378 468 L 310 472 L 307 343 L 182 348 L 174 274 Z M 116 348 Q 116 358 118 364 Q 123 383 146 383 Q 163 383 181 375 Q 170 407 144 425 Q 124 437 102 437 Q 79 437 64 423 Q 59 390 43 356 Q 43 329 49 299 Q 54 270 63 232 L 8 233 L 0 150 L 144 160 Q 132 218 124 269 Q 116 321 116 348 Z M 208 459 Q 188 459 170 445 L 245 348 L 300 399 Q 295 407 281 422 Q 267 436 247 447 Q 211 459 208 459 Z M 74 28 Q 101 28 123 45 Q 134 48 160 79 L 102 130 L 31 45 Q 51 28 74 28 Z M 425 358 Q 451 358 475 377 Q 499 397 512 416 L 458 459 L 388 372 Q 405 358 425 358 Z M 382 67 381 107 393 108 408 94 411 152 381 153 380 183 H 418 V 67 Z M 268 100 302 102 301 67 H 268 Z M 268 183 H 304 L 303 157 L 268 159 Z" fill="black" />
  </g>
  <g class="defect" id="01">
    <path d="M 247 447 Q 211 459 208 459" fill="none" stroke="red" stroke-width="3" />
  </g>
  <g class="defect" id="02">
    <path d="M 123 45 Q 134 48 160 79" fill="none" stroke="red" stroke-width="3" />
  </g>
  <g class="defect" id="03">
    <path d="M 64 423 Q 59 390 43 356" fill="none" stroke="red" stroke-width="3" />
  </g>
</svg>