<svg xmlns="http://www.w3.org/2000/svg" width="512" height="512" viewBox="0 0 512 512">
  <g class="glyph">
    <path d="M 233 341 215 175 475 172 463 336 388 338 389 441 Q 390 469 378 488 Q 365 508 337 508 Q 314 508 298 490 Q 282 473 274 448 L 319 448 L 312 339 Z M 328 0 Q 355 0 373 19 Q 391 38 398 52 L 363 74 L 473 77 L 493 61 L 503 137 L 191 149 L 183 70 L 319 73 L 287 13 Q 308 0 328 0 Z M 116 374 Q 116 385 118 391 Q 123 409 146 409 Q 162 409 181 402 Q 170 433 144 451 Q 125 464 103 464 Q 80 464 65 450 Q 44 429 44 386 Q 44 357 49 328 Q 38 298 63 259 H 7 L 0 176 L 144 187 Q 133 243 124 295 Q 116 347 116 374 Z M 210 471 Q 192 471 175 459 L 233 364 L 295 405 Q 292 414 279 429 Q 267 445 249 458 Q 230 471 210 471 Z M 74 55 Q 111 43 123 71 Q 146 87 160 104 L 102 156 L 31 71 Q 51 55 74 55 Z M 431 370 Q 466 353 467 380 Q 484 391 497 403 Q 509 416 512 422 L 457 469 L 391 387 Q 409 370 431 370 Z M 397 238 H 300 V 280 H 397 Z" fill="black" />
  </g>
  <g class="defect" id="01">
    <path d="M 431 370 Q 466 353 467 380" fill="none" stroke="red" stroke-width="3" />
  </g>
  <g class="defect" id="02">
    <path d="M 74 55 Q 111 43 123 71" fill="none" stroke="red" stroke-width="3" />
  </g>
  <g class="defect" id="03">
    <path d="M 49 328 Q 38 298 63 259" fill="none" stroke="red" stroke-width="3" />
  </g>
</svg>