<svg xmlns="http://www.w3.org/2000/svg" width="512" height="512" viewBox="0 0 512 512">
  <g class="glyph">
    <path d="M 338 0 Q 353 0 367 9 Q 381 18 390 29 Q 399 39 401 44 L 379 61 H 499 Q 502 79 502 100 Q 502 144 483 179 Q 465 214 416 222 Q 391 227 364 227 Q 330 227 277 215 Q 273 240 272 250 L 512 249 L 506 440 Q 506 456 497 467 Q 487 477 467 476 Q 452 476 442 462 Q 432 448 428 429 H 451 V 312 H 423 L 421 348 H 426 L 442 336 L 447 398 L 419 399 L 417 459 L 380 461 L 379 400 L 357 401 L 355 454 L 319 456 L 316 402 L 292 404 V 462 L 239 469 L 235 377 Q 207 440 169 443 Q 174 424 181 395 Q 160 420 115 435 Q 70 451 19 457 L 0 391 Q 9 390 24 388 L 18 287 L 68 289 V 382 L 88 380 L 82 249 L 144 252 L 143 287 L 170 288 L 182 275 L 189 335 L 143 338 L 142 372 L 188 366 Q 214 254 228 131 L 286 143 Q 305 153 283 169 Q 305 177 356 177 Q 388 177 405 168 Q 420 161 428 150 Q 435 139 435 127 H 223 L 215 60 L 331 61 L 301 15 Q 318 0 338 0 Z M 188 52 177 234 20 237 5 58 Z M 121 120 H 75 V 170 H 121 Z M 292 348 H 314 L 312 312 H 292 Z M 357 348 H 378 L 377 312 H 358 Z" fill="black" />
  </g>
  <g class="defect" id="01">
    <path d="M 283 169 Q 305 177 356 177" fill="none" stroke="red" stroke-width="3" />
  </g>
  <g class="defect" id="02">
    <path d="M 364 227 Q 330 227 277 215" fill="none" stroke="red" stroke-width="3" />
  </g>
  <g class="defect" id="03">
    <path d="M 286 143 Q 305 153 283 169" fill="none" stroke="red" stroke-width="3" />
  </g>
</svg>