<svg xmlns="http://www.w3.org/2000/svg" width="512" height="512" viewBox="0 0 512 512">
  <g class="glyph">
    <path d="M 305 208 326 215 Q 326 215 330 202 H 294 L 288 135 Q 270 146 250 146 Q 246 146 239 144 Q 257 117 276 79 Q 296 41 310 0 L 365 21 Q 363 31 357 44 L 512 51 L 503 187 Q 518 203 494 214 Q 485 225 469 225 Q 450 225 441 215 Q 432 206 429 193 L 428 201 L 368 202 Q 360 215 350 224 L 359 227 L 354 243 L 503 250 L 494 390 Q 494 405 486 416 Q 478 427 461 427 Q 436 427 424 400 L 364 401 Q 357 417 348 427 Q 369 429 391 429 L 365 497 Q 275 496 199 475 Q 122 455 92 413 Q 65 486 15 486 Q 8 486 0 485 Q 0 487 9 468 Q 18 449 30 409 Q 41 369 52 306 L 112 321 Q 125 356 100 390 L 130 397 L 124 268 L 193 273 L 191 310 L 224 312 L 240 299 L 247 368 L 190 372 L 189 409 Q 248 420 314 425 Q 316 420 323 401 H 291 L 286 328 Q 273 334 257 334 Q 254 334 245 333 Q 245 333 267 299 Q 289 265 305 208 Z M 175 34 174 93 206 95 223 80 231 152 173 154 172 196 222 197 240 183 248 255 35 269 29 194 113 195 111 157 45 160 39 85 109 89 106 29 Z M 308 121 332 123 331 160 H 339 Q 343 134 345 103 L 389 109 Q 389 134 383 160 H 396 V 118 L 435 123 L 429 186 H 449 V 95 H 348 L 344 72 Q 329 102 308 121 Z M 307 316 330 318 Q 330 325 329 339 Q 329 352 328 358 H 334 Q 339 331 342 301 L 384 306 Q 383 332 377 358 H 392 V 311 L 431 316 L 425 389 H 442 V 293 H 345 L 342 273 Q 327 300 307 316 Z" fill="black" />
  </g>
  <g class="defect" id="01">
    <path d="M 112 321 Q 125 356 100 390" fill="none" stroke="red" stroke-width="3" />
  </g>
  <g class="defect" id="02">
    <path d="M 503 187 Q 518 203 494 214" fill="none" stroke="red" stroke-width="3" />
  </g>
</svg>