<svg xmlns="http://www.w3.org/2000/svg" width="512" height="512" viewBox="0 0 512 512">
  <g class="glyph">
    <path d="M 22 256 152 270 Q 150 298 144 331 Q 155 363 127 392 Q 219 410 303 422 Q 297 417 293 410 Q 290 403 290 396 L 288 338 Q 270 362 246 378 Q 209 383 191 395 Q 176 395 161 391 Q 168 386 193 358 Q 218 331 237 302 H 219 L 205 193 L 465 191 L 455 301 L 287 302 L 305 312 L 299 323 L 348 326 L 347 386 H 399 Q 391 400 378 412 Q 364 425 346 429 Q 400 436 464 444 L 437 504 Q 331 500 241 478 Q 151 456 117 416 Q 85 487 31 487 Q 16 487 0 481 Q 27 458 50 418 Q 72 377 78 325 H 28 Z M 483 0 472 118 200 120 188 2 Z M 472 134 491 121 499 173 180 186 172 131 Z M 367 308 Q 395 308 434 334 L 465 301 L 500 337 Q 486 353 469 361 Q 487 376 499 388 Q 511 400 512 401 L 463 435 L 346 312 Q 373 308 367 308 Z M 76 91 Q 93 91 111 100 Q 129 109 142 120 Q 155 131 159 137 L 105 191 L 36 109 Q 52 91 76 91 Z M 401 232 H 273 V 259 H 401 Z M 253 72 H 277 V 46 H 253 Z M 327 72 H 348 V 46 H 327 Z M 419 46 H 399 V 72 H 419 Z" fill="black" />
  </g>
  <g class="defect" id="01">
    <path d="M 144 331 Q 155 363 127 392" fill="none" stroke="red" stroke-width="3" />
  </g>
  <g class="defect" id="02">
    <path d="M 246 378 Q 209 383 191 395" fill="none" stroke="red" stroke-width="3" />
  </g>
  <g class="defect" id="03">
    <path d="M 346 312 Q 373 308 367 308" fill="none" stroke="red" stroke-width="3" />
  </g>
</svg>