<svg xmlns="http://www.w3.org/2000/svg" width="512" height="512" viewBox="0 0 512 512">
  <g class="glyph">
    <path d="M 297 0 361 29 Q 354 46 343 66 L 512 77 L 504 383 Q 504 406 494 421 Q 484 437 462 434 Q 447 433 437 419 Q 427 405 423 385 L 450 386 V 134 H 317 L 315 112 Q 274 164 231 164 Q 219 164 205 160 Q 208 137 248 96 Q 273 54 297 0 Z M 91 340 91 318 28 319 17 197 87 196 87 172 149 175 148 196 218 195 210 316 147 317 V 340 H 192 L 206 328 L 214 386 L 146 392 L 145 440 L 94 448 L 93 396 L 24 401 L 18 340 Z M 403 164 439 191 Q 431 209 418 222 Q 405 234 389 234 Q 363 214 365 227 L 365 248 L 410 250 L 427 236 L 435 299 L 364 303 L 363 327 Q 376 320 386 320 Q 403 320 418 331 Q 434 343 445 359 L 407 396 L 363 336 L 362 415 L 312 422 L 309 306 L 234 310 L 227 243 L 308 246 L 307 208 L 268 239 L 234 179 Q 246 171 259 171 Q 285 171 307 204 L 306 157 L 367 161 L 365 224 Q 373 212 385 193 Q 398 174 403 164 Z M 41 10 97 15 94 46 140 47 139 6 197 11 196 48 H 210 L 222 37 L 227 96 L 195 99 L 193 160 L 146 166 L 145 158 Q 112 168 92 168 Q 66 168 52 155 Q 37 143 33 108 L 5 110 L 0 44 L 36 45 Q 38 26 41 10 Z M 262 319 303 349 Q 293 370 277 385 Q 261 400 241 400 Q 226 400 211 391 Q 252 337 262 319 Z M 110 125 Q 125 125 143 120 L 143 102 L 92 105 Q 92 115 94 120 Q 115 136 110 125 Z M 71 271 H 89 L 88 247 H 71 Z M 165 247 H 148 L 147 271 H 165 Z" fill="black" />
  </g>
  <g class="defect" id="01">
    <path d="M 389 234 Q 363 214 365 227" fill="none" stroke="red" stroke-width="3" />
  </g>
  <g class="defect" id="02">
    <path d="M 94 120 Q 115 136 110 125" fill="none" stroke="red" stroke-width="3" />
  </g>
  <g class="defect" id="03">
    <path d="M 205 160 Q 208 137 248 96" fill="none" stroke="red" stroke-width="3" />
  </g>
</svg>