<svg xmlns="http://www.w3.org/2000/svg" width="512" height="512" viewBox="0 0 512 512">
  <g class="glyph">
    <path d="M 504 0 512 72 426 75 Q 424 83 418 94 Q 412 106 401 115 L 505 112 L 494 372 L 276 371 L 260 117 L 344 116 L 354 78 L 261 80 L 254 4 L 485 15 Z M 171 134 170 222 227 223 246 208 255 281 169 285 167 426 102 433 98 289 7 294 0 219 96 221 93 129 Z M 217 48 235 33 244 106 21 110 14 34 Z M 436 170 H 334 V 190 L 400 191 L 414 181 L 422 232 L 334 235 V 254 L 404 255 L 419 245 L 427 296 L 334 300 V 318 H 436 Z M 295 467 Q 263 467 263 457 L 319 373 L 372 412 Q 358 434 338 450 Q 318 467 295 467 Z M 435 382 Q 456 382 476 396 Q 495 410 510 431 L 456 471 L 398 395 Q 434 397 435 382 Z" fill="black" />
  </g>
  <g class="defect" id="01">
    <path d="M 295 467 Q 263 467 263 457" fill="none" stroke="red" stroke-width="3" />
  </g>
  <g class="defect" id="02">
    <path d="M 398 395 Q 434 397 435 382" fill="none" stroke="red" stroke-width="3" />
  </g>
</svg>