<svg xmlns="http://www.w3.org/2000/svg" width="512" height="512" viewBox="0 0 512 512">
  <g class="glyph">
    <path d="M 267 245 Q 258 245 248 242 L 249 250 L 200 253 L 199 282 L 249 283 L 247 351 Q 284 296 332 210 L 383 243 L 372 264 L 484 273 Q 479 295 472 321 Q 465 347 454 370 Q 485 387 508 410 L 472 452 Q 451 432 428 415 Q 407 441 383 449 Q 365 455 350 455 Q 323 455 311 439 Q 298 422 298 403 Q 298 385 311 369 Q 323 352 347 347 Q 356 346 366 346 Q 388 346 410 352 Q 413 344 418 326 L 343 327 L 340 313 Q 313 348 289 360 Q 249 387 246 372 L 245 413 Q 244 433 233 445 Q 221 458 198 456 Q 169 455 172 442 Q 162 429 158 412 H 191 V 397 L 171 407 L 145 351 Q 153 347 160 347 Q 178 347 191 367 V 333 L 47 335 L 42 105 L 104 112 L 103 128 L 146 131 L 146 94 L 209 100 L 207 134 L 225 136 L 241 123 L 246 177 L 205 179 L 203 208 L 228 209 L 244 197 L 247 233 L 294 157 L 346 189 Q 335 207 314 226 Q 293 245 267 245 Z M 414 37 Q 448 37 468 66 Q 488 95 498 134 L 442 157 L 436 141 Q 375 161 336 161 Q 287 161 277 129 Q 274 120 274 109 Q 274 84 290 55 Q 306 25 330 0 L 378 33 Q 351 30 352 67 Q 341 84 339 98 Q 337 110 366 110 Q 385 110 421 104 L 397 40 Q 407 37 414 37 Z M 229 37 245 24 251 85 42 90 36 26 Z M 433 162 Q 469 162 512 210 L 465 254 L 396 179 Q 412 162 433 162 Z M 12 427 Q 6 427 0 425 L 31 358 L 64 373 Q 58 395 45 411 Q 31 427 12 427 Z M 74 358 Q 87 358 96 369 Q 106 380 112 393 Q 117 407 116 407 L 85 421 L 64 360 Q 69 358 74 358 Z M 117 354 Q 131 354 141 368 Q 151 381 158 400 L 128 412 L 106 356 Q 111 354 117 354 Z M 389 392 Q 372 383 360 383 Q 357 383 353 384 Q 335 390 335 402 Q 335 407 340 411 Q 345 415 352 415 Q 355 415 358 414 Q 375 410 389 392 Z M 101 279 148 280 V 255 L 101 257 Z M 102 204 147 206 V 181 L 102 182 Z" fill="black" />
  </g>
  <g class="defect" id="01">
    <path d="M 198 456 Q 169 455 172 442" fill="none" stroke="red" stroke-width="3" />
  </g>
  <g class="defect" id="02">
    <path d="M 378 33 Q 351 30 352 67" fill="none" stroke="red" stroke-width="3" />
  </g>
  <g class="defect" id="03">
    <path d="M 289 360 Q 249 387 246 372" fill="none" stroke="red" stroke-width="3" />
  </g>
</svg>