<svg xmlns="http://www.w3.org/2000/svg" width="512" height="512" viewBox="0 0 512 512">
  <g class="glyph">
    <path d="M 141 63 191 66 210 50 219 124 140 127 V 164 L 181 166 L 200 151 L 209 221 L 140 224 L 139 263 L 223 263 Q 246 211 273 139 L 328 170 Q 308 229 280 252 Q 253 275 228 276 L 227 387 Q 227 404 217 416 Q 207 428 186 428 Q 166 428 155 413 Q 143 398 138 381 L 138 459 L 79 466 L 76 328 L 14 332 L 5 264 H 75 L 75 228 L 20 230 L 12 160 L 73 162 L 72 129 L 7 131 L 0 57 L 71 60 L 70 0 L 141 5 Z M 512 47 502 389 Q 483 405 491 418 Q 482 430 464 433 Q 462 433 457 433 Q 438 433 424 418 Q 409 403 401 381 H 435 V 114 H 284 L 273 46 Z M 361 120 422 140 Q 402 223 380 285 Q 368 326 324 388 Q 290 429 244 433 Q 255 389 297 308 Q 328 227 361 120 Z M 138 326 V 374 H 163 V 324 Z" fill="black" />
  </g>
  <g class="defect" id="01">
    <path d="M 244 433 Q 255 389 297 308" fill="none" stroke="red" stroke-width="3" />
  </g>
  <g class="defect" id="02">
    <path d="M 502 389 Q 483 405 491 418" fill="none" stroke="red" stroke-width="3" />
  </g>
  <g class="defect" id="03">
    <path d="M 380 285 Q 368 326 324 388" fill="none" stroke="red" stroke-width="3" />
  </g>
</svg>