<svg xmlns="http://www.w3.org/2000/svg" width="512" height="512" viewBox="0 0 512 512">
  <g class="glyph">
    <path d="M 108 2 163 29 Q 157 43 149 60 L 231 78 Q 225 100 212 122 Q 200 144 184 159 L 234 158 L 220 347 L 38 352 L 23 159 L 130 159 Q 145 135 151 113 L 117 105 Q 80 145 38 145 Q 25 145 13 142 Q 27 127 52 92 Q 77 57 108 2 Z M 271 283 Q 268 276 268 271 Q 268 245 308 204 L 253 173 L 306 99 Q 258 98 238 72 Q 270 64 324 46 Q 378 28 448 0 L 474 62 Q 421 84 367 94 L 385 99 L 341 153 L 356 160 Q 387 134 419 113 L 456 152 Q 424 188 374 216 Q 342 244 348 250 Q 351 253 363 253 Q 375 253 394 250 Q 413 247 429 243 L 412 197 Q 422 194 429 194 Q 458 194 477 220 Q 497 246 507 284 L 454 304 L 446 285 Q 422 292 406 296 L 407 389 Q 407 413 397 429 Q 386 445 361 445 Q 341 445 327 431 Q 312 416 306 395 L 342 395 L 339 307 Q 283 310 271 283 Z M 192 362 Q 216 362 237 391 L 282 323 L 329 357 Q 327 364 316 376 Q 306 388 292 398 Q 295 390 261 408 Q 267 408 245 405 Q 248 411 250 416 L 210 439 L 176 365 Q 184 362 192 362 Z M 442 330 Q 458 330 473 339 Q 488 348 498 359 Q 509 369 512 375 L 464 413 L 408 343 Q 423 330 442 330 Z M 4 432 Q 27 378 33 361 L 76 379 Q 67 406 51 425 Q 35 444 13 444 Q 10 444 0 442 Z M 145 371 Q 161 371 172 387 Q 183 402 189 424 L 152 440 L 133 374 Q 141 371 145 371 Z M 93 378 Q 113 378 122 395 Q 132 413 134 422 Q 136 432 136 432 L 98 445 L 82 379 Q 88 378 93 378 Z M 152 211 V 234 H 158 L 168 226 L 171 274 L 152 275 V 300 H 173 V 211 Z M 86 300 H 108 V 277 L 86 278 Z M 86 232 108 232 V 211 H 86 Z" fill="black" />
  </g>
  <g class="defect" id="01">
    <path d="M 261 408 Q 267 408 245 405" fill="none" stroke="red" stroke-width="3" />
  </g>
  <g class="defect" id="02">
    <path d="M 292 398 Q 295 390 261 408" fill="none" stroke="red" stroke-width="3" />
  </g>
  <g class="defect" id="03">
    <path d="M 456 152 Q 424 188 374 216" fill="none" stroke="red" stroke-width="3" />
  </g>
</svg>