<svg xmlns="http://www.w3.org/2000/svg" width="512" height="512" viewBox="0 0 512 512">
  <g class="glyph">
    <path d="M 246 262 H 346 L 345 232 L 264 233 L 258 112 L 343 111 L 342 86 Q 261 87 245 40 Q 255 39 292 34 Q 329 30 378 20 Q 415 -8 466 0 L 486 60 Q 449 72 408 79 L 407 110 L 493 109 L 484 231 L 405 232 L 405 262 L 512 262 L 506 407 Q 504 424 495 436 Q 485 448 466 448 Q 448 448 436 436 Q 425 424 420 407 H 452 V 389 L 433 397 L 423 369 Q 412 388 383 398 Q 355 409 321 411 L 308 366 Q 323 365 348 362 L 347 317 L 306 316 L 306 434 L 251 443 Z M 58 329 Q 58 338 59 351 Q 79 308 113 209 L 158 227 Q 148 271 130 307 Q 154 304 180 323 L 176 227 L 230 231 V 434 L 185 441 L 185 433 Q 166 438 140 442 Q 115 446 91 446 Q 43 446 24 426 Q 2 403 2 335 Q 2 286 12 231 L 66 239 Q 66 243 62 272 Q 45 300 58 329 Z M 159 15 157 60 195 63 210 49 218 113 156 116 155 147 216 148 231 135 237 201 5 211 0 142 27 143 22 44 78 47 77 144 101 145 96 10 Z M 64 370 Q 83 367 91 386 Q 106 388 115 388 Q 146 388 182 377 L 181 347 L 161 373 L 116 332 Q 91 370 64 370 Z M 420 328 Q 438 328 452 348 L 452 317 H 404 L 403 355 L 417 353 L 409 330 Q 414 328 420 328 Z M 321 187 H 344 L 344 159 H 321 Z M 428 160 H 406 L 406 188 H 428 Z" fill="black" />
  </g>
  <g class="defect" id="01">
    <path d="M 378 20 Q 415 -8 466 0" fill="none" stroke="red" stroke-width="3" />
  </g>
  <g class="defect" id="02">
    <path d="M 64 370 Q 83 367 91 386" fill="none" stroke="red" stroke-width="3" />
  </g>
  <g class="defect" id="03">
    <path d="M 62 272 Q 45 300 58 329" fill="none" stroke="red" stroke-width="3" />
  </g>
</svg>