<svg xmlns="http://www.w3.org/2000/svg" width="512" height="512" viewBox="0 0 512 512">
  <g class="glyph">
    <path d="M 386 216 359 237 337 189 340 214 303 218 302 257 Q 306 256 312 256 Q 324 256 336 263 Q 347 269 356 277 Q 364 285 364 286 L 327 327 L 302 298 L 301 415 L 253 420 L 250 303 Q 240 321 226 334 Q 212 346 194 346 Q 186 346 179 344 L 223 249 L 249 263 L 248 223 L 208 226 L 202 160 L 246 162 L 245 105 L 304 109 L 303 164 L 317 164 L 332 151 L 333 160 Q 341 156 349 156 Q 372 156 392 188 Q 405 133 414 75 L 467 87 Q 460 145 446 204 L 473 152 L 512 173 Q 504 198 490 215 Q 476 232 457 232 Q 448 232 439 229 Q 430 267 415 301 Q 422 298 430 298 Q 448 298 466 311 Q 483 324 489 332 Q 496 339 496 339 L 457 384 L 406 322 Q 372 392 329 390 Q 341 367 357 322 Q 372 277 386 216 Z M 83 0 131 26 Q 126 40 119 55 L 190 73 Q 185 94 175 115 Q 164 135 150 149 L 193 149 L 182 336 L 22 340 L 9 150 L 102 149 Q 116 128 121 106 L 91 98 Q 60 136 22 136 Q 12 136 0 133 Q 12 120 33 86 Q 55 52 83 0 Z M 329 12 350 72 Q 341 63 301 88 Q 275 95 252 95 Q 199 95 188 53 Q 228 45 266 34 Q 305 23 329 12 Z M 192 352 Q 185 388 139 407 Q 93 426 32 429 L 17 376 Q 92 366 192 352 Z M 122 201 V 225 H 127 L 136 218 L 139 263 L 122 264 V 289 H 140 V 201 Z M 64 223 84 224 V 201 H 64 Z M 64 289 H 84 V 266 L 64 267 Z" fill="black" />
  </g>
  <g class="defect" id="01">
    <path d="M 350 72 Q 341 63 301 88" fill="none" stroke="red" stroke-width="3" />
  </g>
</svg>