<svg xmlns="http://www.w3.org/2000/svg" width="512" height="512" viewBox="0 0 512 512">
  <g class="glyph">
    <path d="M 52 198 273 202 Q 255 253 218 272 L 298 261 L 290 9 L 396 0 L 392 391 H 444 Q 450 367 469 352 Q 487 336 512 334 L 497 480 L 306 486 L 300 319 L 217 341 Q 235 400 233 450 L 67 424 L 107 411 L 112 369 L 23 392 L 0 302 L 123 285 L 137 254 L 57 258 Z M 190 183 109 193 120 126 Q 52 132 11 93 L 208 29 L 279 81 Q 232 112 140 124 Q 176 139 190 183 Z M 271 108 257 197 190 176 Q 208 119 271 108 Z M 110 176 26 202 30 123 Q 82 132 110 176 Z" fill="black" />
  </g>
  <g class="defect" id="01">
    <path d="M 279 81 Q 232 112 140 124" fill="none" stroke="red" stroke-width="3" />
  </g>
</svg>