<svg xmlns="http://www.w3.org/2000/svg" width="512" height="512" viewBox="0 0 512 512">
  <g class="glyph">
    <path d="M 398 0 469 39 Q 382 70 321 79 Q 355 93 372 126 Q 386 99 414 82 Q 442 65 470 68 L 450 149 L 375 134 L 378 140 L 288 149 L 299 81 Q 246 85 204 65 Q 165 116 116 145 Q 144 166 150 217 Q 152 250 149 293 L 172 249 L 217 277 L 223 244 Q 256 245 272 254 Q 288 262 293 278 L 312 277 L 309 232 L 382 227 Q 377 257 359 272 L 400 268 L 413 252 L 438 336 L 210 322 L 215 291 Q 180 312 147 324 L 137 426 H 33 L 75 161 Q 32 171 0 155 L 135 10 L 233 19 Q 213 15 221 41 Z M 497 443 455 512 329 483 Q 268 507 209 500 L 246 464 L 160 444 Q 227 408 298 414 L 313 400 L 159 404 L 221 333 L 323 336 Q 312 349 290 356 L 453 351 Q 433 392 401 426 Q 450 433 497 443 Z M 290 129 216 154 H 503 Q 504 200 487 226 Q 470 250 427 258 L 420 219 L 249 221 Q 250 232 251 242 L 155 240 L 175 135 Q 194 139 208 149 L 213 77 Q 239 80 257 93 Q 275 105 290 129 Z M 490 343 430 298 475 255 Q 500 273 506 296 Q 511 319 490 343 Z" fill="black" />
  </g>
  <g class="defect" id="01">
    <path d="M 215 291 Q 180 312 147 324" fill="none" stroke="red" stroke-width="3" />
  </g>
  <g class="defect" id="02">
    <path d="M 469 39 Q 382 70 321 79" fill="none" stroke="red" stroke-width="3" />
  </g>
  <g class="defect" id="03">
    <path d="M 233 19 Q 213 15 221 41" fill="none" stroke="red" stroke-width="3" />
  </g>
</svg>