<svg xmlns="http://www.w3.org/2000/svg" width="512" height="512" viewBox="0 0 512 512">
  <g class="glyph">
    <path d="M 249 453 156 456 173 46 Q 190 56 200 71 L 313 85 Q 306 162 272 203 Q 307 232 315 280 L 316 177 L 402 173 L 408 373 L 313 367 L 314 302 L 241 305 Q 229 381 249 453 Z M 512 485 378 470 415 453 419 127 321 129 317 15 494 0 498 125 464 126 Q 482 158 490 206 Q 512 345 512 485 Z M 151 90 161 269 0 258 3 106 Z M 50 206 110 202 Q 90 171 98 175 Q 90 165 77 166 Q 64 167 57 178 Q 50 188 50 206 Z M 342 294 376 296 Q 377 274 375 258 Q 374 250 370 246 Q 367 243 363 242 Q 350 240 345 258 Q 342 276 342 294 Z M 256 157 225 153 231 197 Q 247 180 256 157 Z M 266 250 Q 239 241 233 215 L 236 251 Z" fill="black" />
  </g>
  <g class="defect" id="01">
    <path d="M 110 202 Q 90 171 98 175" fill="none" stroke="red" stroke-width="3" />
  </g>
  <g class="defect" id="02">
    <path d="M 241 305 Q 229 381 249 453" fill="none" stroke="red" stroke-width="3" />
  </g>
  <g class="defect" id="03">
    <path d="M 266 250 Q 239 241 233 215" fill="none" stroke="red" stroke-width="3" />
  </g>
</svg>