<svg xmlns="http://www.w3.org/2000/svg" width="512" height="512" viewBox="0 0 512 512">
  <g class="glyph">
    <path d="M 312 311 371 318 364 334 Q 372 337 379 339 Q 398 350 410 368 L 415 305 L 192 295 L 243 204 L 212 203 L 208 15 L 476 0 L 472 208 L 337 206 Q 328 220 317 230 L 493 238 L 512 487 L 379 460 L 404 449 L 410 371 L 366 399 L 346 365 Q 339 374 332 382 Q 312 404 274 404 V 406 H 369 L 371 465 L 198 470 L 205 312 Q 265 298 267 350 Q 273 366 274 390 Z M 187 96 202 274 0 263 4 113 Z M 58 212 138 208 Q 134 170 95 171 Q 78 172 69 183 Q 59 194 58 212 Z M 301 159 H 386 Q 382 134 360 132 Q 332 130 301 130 Z M 301 108 385 110 Q 382 84 358 82 Q 315 79 301 82 Z" fill="black" />
  </g>
  <g class="defect" id="01">
    <path d="M 205 312 Q 265 298 267 350" fill="none" stroke="red" stroke-width="3" />
  </g>
  <g class="defect" id="02">
    <path d="M 358 82 Q 315 79 301 82" fill="none" stroke="red" stroke-width="3" />
  </g>
</svg>