<svg xmlns="http://www.w3.org/2000/svg" width="512" height="512" viewBox="0 0 512 512">
  <g class="glyph">
    <path d="M 490 170 512 481 409 468 437 456 439 408 Q 439 392 428 386 Q 419 381 405 381 Q 402 421 390 456 Q 376 497 339 503 L 359 180 Z M 328 176 337 481 245 468 272 457 274 416 Q 274 401 265 395 Q 255 390 239 389 Q 254 426 227 457 Q 211 497 173 503 L 195 189 Z M 481 155 204 170 182 36 Q 210 34 232 48 Q 271 44 259 88 L 292 87 L 313 0 Q 336 1 349 12 Q 362 23 370 43 Q 377 62 378 84 L 416 83 L 425 29 Q 461 38 473 71 Q 487 112 481 155 Z M 163 143 184 320 0 309 4 159 Z M 52 258 125 254 Q 114 215 83 217 Q 83 219 60 229 Q 51 239 52 258 Z M 408 344 439 349 Q 439 329 432 322 Q 425 315 409 315 Z M 242 352 274 357 Q 274 338 265 329 Q 258 324 244 323 Z M 409 277 438 280 Q 440 263 432 254 Q 426 247 411 247 Z M 245 285 274 289 Q 274 271 267 264 Q 262 257 246 256 Z" fill="black" />
  </g>
  <g class="defect" id="01">
    <path d="M 239 389 Q 254 426 227 457" fill="none" stroke="red" stroke-width="3" />
  </g>
  <g class="defect" id="02">
    <path d="M 83 217 Q 83 219 60 229" fill="none" stroke="red" stroke-width="3" />
  </g>
  <g class="defect" id="03">
    <path d="M 232 48 Q 271 44 259 88" fill="none" stroke="red" stroke-width="3" />
  </g>
</svg>