<svg xmlns="http://www.w3.org/2000/svg" width="512" height="512" viewBox="0 0 512 512">
  <g class="glyph">
    <path d="M 315 472 347 482 210 498 222 448 Q 172 466 131 447 L 226 387 L 165 389 L 162 318 L 231 319 L 233 305 H 199 L 204 275 L 237 275 L 238 262 L 193 263 L 191 218 L 244 218 L 246 201 L 196 200 L 202 117 H 175 L 182 38 L 299 39 L 305 0 Q 325 1 343 11 Q 361 21 369 39 L 472 40 L 476 114 L 455 114 L 463 191 L 380 197 Q 391 204 398 216 L 454 215 L 458 255 L 414 257 L 417 278 H 443 V 304 H 419 Q 420 313 420 322 L 478 322 L 485 380 L 339 384 Q 315 401 287 417 Q 311 439 315 472 Z M 135 108 137 116 H 167 L 170 173 L 143 175 Q 142 203 142 231 L 179 220 V 297 L 15 390 L 0 271 L 48 257 L 62 177 L 18 178 L 22 117 H 72 L 86 36 Q 107 44 118 61 Q 129 79 135 108 Z M 374 385 412 414 451 388 495 427 Q 477 440 458 446 L 512 486 Q 453 505 402 480 Q 358 461 310 420 Z M 319 203 277 202 Q 284 209 289 217 L 355 216 L 356 198 L 335 200 L 336 116 H 321 Z M 369 151 409 148 Q 409 139 407 131 Q 402 119 387 119 Q 375 120 371 132 Q 368 141 369 151 Z M 290 136 Q 286 124 273 124 Q 260 124 256 136 Q 253 145 253 155 H 293 Q 291 145 290 136 Z M 304 260 Q 305 268 306 276 L 349 277 L 350 259 Z M 309 305 Q 325 313 310 321 H 345 L 346 305 Z" fill="black" />
  </g>
  <g class="defect" id="01">
    <path d="M 309 305 Q 325 313 310 321" fill="none" stroke="red" stroke-width="3" />
  </g>
</svg>