<svg xmlns="http://www.w3.org/2000/svg" width="512" height="512" viewBox="0 0 512 512">
  <g class="glyph">
    <path d="M 243 216 337 241 Q 329 249 321 256 L 506 331 Q 478 360 396 348 L 387 347 L 400 491 L 77 474 L 112 349 Q 65 354 30 343 Z M 104 165 0 161 24 27 Q 55 29 71 47 H 219 L 228 0 Q 283 5 306 47 H 512 Q 511 104 489 136 Q 467 167 414 171 L 410 132 L 103 135 Q 104 150 104 165 Z M 161 146 252 180 Q 208 222 158 243 Q 114 265 51 256 Z M 428 271 263 199 328 143 Q 387 172 416 201 Q 444 232 428 271 Z M 360 340 Q 302 325 250 304 Q 229 323 175 335 L 159 340 Z M 190 422 295 426 Q 309 404 284 396 Q 274 388 243 387 Q 215 386 204 394 Q 193 401 190 422 Z" fill="black" />
  </g>
  <g class="defect" id="01">
    <path d="M 295 426 Q 309 404 284 396" fill="none" stroke="red" stroke-width="3" />
  </g>
  <g class="defect" id="02">
    <path d="M 250 304 Q 229 323 175 335" fill="none" stroke="red" stroke-width="3" />
  </g>
</svg>