<svg xmlns="http://www.w3.org/2000/svg" width="512" height="512" viewBox="0 0 512 512">
  <g class="glyph">
    <path d="M 258 87 259 113 297 16 381 8 Q 356 34 357 46 L 459 52 L 462 135 L 430 133 Q 440 158 411 183 Q 453 204 488 231 L 440 328 L 362 261 Q 326 297 277 293 L 308 213 L 264 175 L 271 299 L 199 282 L 218 273 L 221 222 L 202 242 L 188 207 L 191 290 L 112 294 L 114 220 Q 103 240 81 243 L 82 300 L 25 306 L 42 94 L 118 92 L 122 0 L 181 3 L 183 59 Q 201 19 248 16 L 241 78 L 184 75 L 184 89 Z M 399 334 404 361 459 323 Q 512 384 461 440 L 404 364 L 424 484 L 91 453 L 100 368 Q 53 430 0 404 L 59 325 L 102 344 L 108 298 Q 158 285 157 321 Q 173 340 178 376 L 218 375 L 214 309 L 298 303 Q 290 354 265 375 L 380 373 Z M 117 77 57 80 62 10 Q 85 12 100 33 Q 115 53 117 77 Z M 263 166 Q 294 149 331 154 L 342 126 L 260 119 Z M 96 186 115 194 116 164 80 163 81 229 Z M 187 189 Q 207 186 221 217 L 225 168 L 187 167 Z" fill="black" />
  </g>
  <g class="defect" id="01">
    <path d="M 381 8 Q 356 34 357 46" fill="none" stroke="red" stroke-width="3" />
  </g>
  <g class="defect" id="02">
    <path d="M 108 298 Q 158 285 157 321" fill="none" stroke="red" stroke-width="3" />
  </g>
  <g class="defect" id="03">
    <path d="M 430 133 Q 440 158 411 183" fill="none" stroke="red" stroke-width="3" />
  </g>
</svg>