<svg xmlns="http://www.w3.org/2000/svg" width="512" height="512" viewBox="0 0 512 512">
  <g class="glyph">
    <path d="M 279 188 324 231 333 182 300 177 311 84 350 89 367 0 428 17 Q 437 70 421 97 L 494 105 L 512 505 L 363 485 L 407 471 L 430 197 L 408 194 Q 395 275 376 339 Q 378 379 347 403 Q 329 426 298 436 Q 299 455 299 474 L 112 463 L 140 418 L 17 384 L 50 374 L 57 300 L 17 317 L 0 210 L 68 195 L 73 148 L 20 149 L 27 78 L 80 80 L 87 17 Q 126 26 142 82 L 196 83 L 192 144 L 150 145 L 151 177 L 178 172 V 235 L 223 64 L 304 107 L 228 244 L 246 243 Z M 249 344 Q 284 360 293 398 L 318 261 Z M 151 260 Q 150 332 145 409 L 197 323 L 155 321 L 173 251 Z M 250 389 248 346 213 388 Z" fill="black" />
  </g>
  <g class="defect" id="01">
    <path d="M 376 339 Q 378 379 347 403" fill="none" stroke="red" stroke-width="3" />
  </g>
  <g class="defect" id="02">
    <path d="M 428 17 Q 437 70 421 97" fill="none" stroke="red" stroke-width="3" />
  </g>
</svg>