<svg xmlns="http://www.w3.org/2000/svg" width="512" height="512" viewBox="0 0 512 512">
  <g class="glyph">
    <path d="M 466 510 360 472 Q 323 512 266 505 L 296 450 L 199 416 L 238 329 L 193 330 L 200 241 L 278 239 L 305 179 L 395 194 L 371 237 L 491 233 L 490 319 L 443 321 Q 423 370 400 415 L 413 422 Q 472 451 466 510 Z M 184 175 V 246 L 161 257 Q 174 328 156 428 L 13 396 L 49 383 L 56 305 L 10 326 L 0 208 L 66 196 L 72 141 L 22 140 L 29 70 L 78 74 L 85 4 Q 131 14 149 78 L 195 81 L 191 142 H 157 L 159 179 Z M 325 0 Q 387 8 399 63 H 510 Q 509 133 494 171 Q 475 218 433 223 L 429 163 L 278 165 Q 280 198 277 221 L 192 215 L 216 36 Q 253 42 253 63 H 320 Z M 293 373 330 386 362 324 320 326 Z" fill="black" />
  </g>
  <g class="defect" id="01">
    <path d="M 161 257 Q 174 328 156 428" fill="none" stroke="red" stroke-width="3" />
  </g>
  <g class="defect" id="02">
    <path d="M 216 36 Q 253 42 253 63" fill="none" stroke="red" stroke-width="3" />
  </g>
</svg>