<svg xmlns="http://www.w3.org/2000/svg" width="512" height="512" viewBox="0 0 512 512">
  <g class="glyph">
    <path d="M 512 399 432 497 351 401 Q 328 435 300 455 Q 271 475 232 469 L 296 336 L 251 281 Q 275 285 326 274 L 348 229 L 272 222 L 296 88 L 389 81 Q 381 111 369 130 L 473 137 L 476 240 L 431 236 Q 417 270 402 305 Q 464 343 512 399 Z M 260 258 153 210 188 153 86 155 139 205 Q 111 243 76 257 Q 42 270 10 247 L 82 155 L 39 157 L 36 59 L 106 58 L 115 0 Q 168 8 181 56 L 261 54 L 263 151 L 201 152 Q 272 189 260 258 Z M 166 237 236 270 Q 223 292 205 315 Q 237 334 261 355 L 208 445 L 140 390 Q 128 401 115 411 Q 60 459 0 436 L 79 341 L 21 294 Q 66 264 129 281 Z" fill="black" />
  </g>
  <g class="defect" id="01">
    <path d="M 251 281 Q 275 285 326 274" fill="none" stroke="red" stroke-width="3" />
  </g>
</svg>