<svg xmlns="http://www.w3.org/2000/svg" width="512" height="512" viewBox="0 0 512 512">
  <g class="glyph">
    <path d="M 418 250 448 512 290 488 323 473 330 318 0 307 75 218 H 52 L 46 8 L 363 0 L 359 216 L 190 217 Q 177 233 165 240 Z M 275 424 279 487 0 492 16 324 Q 62 329 88 360 Q 108 384 107 424 Z M 162 321 242 331 Q 238 340 233 348 Q 269 370 315 388 L 255 419 L 219 371 Q 209 386 196 396 Q 166 423 110 422 Z M 153 168 261 166 Q 261 152 255 145 Q 248 138 229 137 Q 194 136 153 140 Z M 153 98 259 96 Q 258 81 251 75 Q 243 68 224 68 Q 184 67 153 70 Z" fill="black" />
  </g>
  <g class="defect" id="01">
    <path d="M 233 348 Q 269 370 315 388" fill="none" stroke="red" stroke-width="3" />
  </g>
</svg>