<svg xmlns="http://www.w3.org/2000/svg" width="512" height="512" viewBox="0 0 512 512">
  <g class="glyph">
    <path d="M 168 37 173 247 199 126 Q 218 131 229 142 H 510 Q 510 179 497 208 Q 483 239 442 247 L 437 206 L 257 210 Q 258 231 257 251 L 173 249 L 177 385 L 250 335 L 202 337 L 208 275 L 471 264 L 479 321 L 360 328 Q 338 351 343 343 Q 369 356 380 383 L 394 394 L 434 339 L 488 381 Q 460 415 424 417 L 490 468 Q 461 489 417 477 Q 407 474 396 470 Q 396 491 395 512 L 275 496 L 301 486 L 304 460 Q 275 480 244 490 Q 208 501 172 483 L 250 436 H 249 Q 216 446 182 430 L 232 394 Q 205 400 177 387 L 177 399 L 83 380 L 111 369 L 113 326 Q 114 306 106 296 Q 97 287 74 286 Q 71 328 62 364 Q 56 391 41 409 Q 27 426 0 435 L 36 50 Z M 484 32 486 116 222 125 213 47 259 45 267 3 Q 317 5 330 41 L 367 38 L 377 0 Q 421 4 435 35 Z M 273 227 425 223 422 252 271 257 Z M 77 253 114 258 Q 114 238 107 225 Q 116 209 79 211 Z M 80 176 113 181 Q 114 161 108 148 Q 81 134 82 135 Z M 317 361 Q 294 375 267 385 L 312 402 Z M 311 404 Q 296 415 281 424 L 307 441 Z" fill="black" />
  </g>
  <g class="defect" id="01">
    <path d="M 107 225 Q 116 209 79 211" fill="none" stroke="red" stroke-width="3" />
  </g>
  <g class="defect" id="02">
    <path d="M 108 148 Q 81 134 82 135" fill="none" stroke="red" stroke-width="3" />
  </g>
  <g class="defect" id="03">
    <path d="M 360 328 Q 338 351 343 343" fill="none" stroke="red" stroke-width="3" />
  </g>
</svg>