<svg xmlns="http://www.w3.org/2000/svg" width="512" height="512" viewBox="0 0 512 512">
  <g class="glyph">
    <path d="M 467 506 360 468 Q 324 507 267 503 L 297 446 L 203 413 L 240 329 L 197 331 L 203 240 L 280 238 L 307 178 L 397 193 L 373 235 L 493 232 L 491 317 L 445 320 Q 425 369 400 412 Q 408 416 415 419 Q 475 448 467 506 Z M 190 282 154 265 Q 138 339 149 417 L 47 406 L 63 284 Q 14 304 0 302 L 74 165 L 32 166 L 37 82 L 90 83 L 97 33 Q 129 34 142 83 L 192 84 L 198 162 L 153 163 Q 154 179 154 194 Q 176 207 186 233 Q 195 259 190 282 Z M 330 0 Q 392 9 403 63 H 512 Q 511 131 496 169 Q 477 216 435 221 L 432 161 L 281 164 Q 283 196 280 220 L 196 213 L 220 37 Q 243 42 257 63 H 325 Z M 296 370 332 383 365 323 321 325 Z" fill="black" />
  </g>
  <g class="defect" id="01">
    <path d="M 63 284 Q 14 304 0 302" fill="none" stroke="red" stroke-width="3" />
  </g>
  <g class="defect" id="02">
    <path d="M 154 265 Q 138 339 149 417" fill="none" stroke="red" stroke-width="3" />
  </g>
</svg>