<svg xmlns="http://www.w3.org/2000/svg" width="512" height="512" viewBox="0 0 512 512">
  <g class="glyph">
    <path d="M 408 0 483 92 Q 413 102 337 103 L 335 156 L 483 148 L 483 213 L 417 215 Q 428 234 435 256 Q 426 274 442 291 L 507 289 L 506 383 L 413 387 Q 451 398 472 436 Q 492 474 483 512 L 377 457 L 412 387 L 305 390 L 346 451 Q 316 478 282 490 Q 249 503 216 486 L 289 391 L 193 395 L 200 301 L 168 287 Q 153 349 165 451 L 60 440 L 77 308 L 66 318 Q 29 353 0 335 L 82 195 L 34 195 L 40 109 L 103 110 L 114 23 Q 157 25 166 111 L 218 112 L 223 192 L 168 193 V 213 Q 223 234 227 296 H 243 L 241 39 Z M 331 217 327 294 366 293 374 216 Z" fill="black" />
  </g>
  <g class="defect" id="01">
    <path d="M 168 287 Q 153 349 165 451" fill="none" stroke="red" stroke-width="3" />
  </g>
  <g class="defect" id="02">
    <path d="M 435 256 Q 426 274 442 291" fill="none" stroke="red" stroke-width="3" />
  </g>
</svg>