<svg xmlns="http://www.w3.org/2000/svg" width="512" height="512" viewBox="0 0 512 512">
  <g class="glyph">
    <path d="M 512 313 502 462 315 467 307 306 H 265 Q 254 366 226 420 Q 194 482 114 484 L 184 218 L 408 213 L 418 379 H 450 Q 467 320 512 313 Z M 164 72 246 71 255 0 Q 325 7 349 70 L 446 69 L 441 190 L 159 181 Z M 0 387 127 248 Q 142 265 141 292 Q 139 319 129 341 Q 91 388 54 440 Z M 141 137 V 210 L 4 220 Q 8 177 47 155 Q 83 135 141 137 Z M 148 22 V 88 L 24 77 Q 34 37 74 27 Q 103 19 148 22 Z" fill="black" />
  </g>
  <g class="defect" id="01">
    <path d="M 129 341 Q 91 388 54 440" fill="none" stroke="red" stroke-width="3" />
  </g>
</svg>