<svg xmlns="http://www.w3.org/2000/svg" width="512" height="512" viewBox="0 0 512 512">
  <g class="glyph">
    <path d="M 138 117 173 111 184 0 275 18 258 94 329 80 Q 333 215 304 335 Q 347 380 335 436 L 284 409 Q 276 479 209 476 L 229 378 L 151 336 L 164 208 L 144 213 Z M 492 57 512 411 350 429 345 72 Z M 0 389 121 268 Q 136 283 137 312 Q 137 341 124 363 Q 97 408 58 441 Z M 124 130 V 206 L 4 217 Q 9 168 46 149 Q 94 130 124 130 Z M 126 12 V 80 L 14 69 Q 26 24 64 17 Q 94 10 126 12 Z M 412 330 448 323 Q 449 265 441 217 Q 439 195 425 197 Q 412 197 411 217 Q 408 272 412 330 Z M 217 276 Q 232 283 246 291 L 268 181 L 237 189 Z" fill="black" />
  </g>
  <g class="defect" id="01">
    <path d="M 46 149 Q 94 130 124 130" fill="none" stroke="red" stroke-width="3" />
  </g>
  <g class="defect" id="02">
    <path d="M 284 409 Q 276 479 209 476" fill="none" stroke="red" stroke-width="3" />
  </g>
</svg>