<svg xmlns="http://www.w3.org/2000/svg" width="512" height="512" viewBox="0 0 512 512">
  <g class="glyph">
    <path d="M 457 43 476 314 383 308 384 277 345 267 346 299 288 296 289 263 Q 258 283 241 273 L 241 308 L 158 314 L 177 47 H 202 L 220 0 Q 261 11 277 46 Z M 281 302 369 307 356 329 H 480 L 474 404 L 390 401 L 512 488 Q 483 503 450 501 Q 417 498 383 480 Q 348 443 293 421 Q 277 441 260 458 Q 232 487 204 497 Q 176 506 134 500 L 212 395 L 151 393 L 145 329 L 261 329 Z M 0 398 124 271 Q 138 286 136 314 Q 135 342 124 364 Q 83 397 55 448 Z M 143 152 V 224 L 10 234 Q 15 187 50 170 Q 82 152 143 152 Z M 147 39 V 104 L 14 93 Q 24 55 62 43 Q 102 36 147 39 Z M 340 130 341 169 H 345 Q 348 156 355 147 Q 361 138 370 136 L 371 168 L 381 168 L 380 224 H 344 V 230 Q 380 239 385 266 L 391 124 L 239 120 L 241 260 L 278 223 H 249 L 246 172 L 261 171 L 267 135 Q 286 139 291 171 H 294 L 296 129 Z" fill="black" />
  </g>
  <g class="defect" id="01">
    <path d="M 124 364 Q 83 397 55 448" fill="none" stroke="red" stroke-width="3" />
  </g>
  <g class="defect" id="02">
    <path d="M 383 480 Q 348 443 293 421" fill="none" stroke="red" stroke-width="3" />
  </g>
</svg>