<svg xmlns="http://www.w3.org/2000/svg" width="512" height="512" viewBox="0 0 512 512">
  <g class="glyph">
    <path d="M 188 229 254 229 257 211 H 217 L 215 179 L 263 179 L 266 163 L 217 162 L 211 11 L 446 0 L 443 166 L 399 165 Q 422 188 412 181 L 445 182 L 447 209 L 419 209 Q 420 218 421 226 L 480 226 L 477 295 H 417 Q 458 315 483 335 Q 502 350 507 364 Q 494 396 508 400 L 435 364 Q 422 379 406 386 Q 418 393 428 403 Q 450 425 444 461 L 386 438 Q 386 461 385 484 L 248 463 L 278 451 L 286 422 L 230 456 L 201 402 L 249 384 L 237 368 L 231 370 Q 211 379 185 379 Q 159 379 141 367 L 163 352 L 107 294 Q 110 333 67 356 Q 40 379 0 377 L 59 178 L 13 156 L 39 74 Q 66 88 76 123 L 109 11 L 183 30 Q 167 99 147 168 L 200 122 L 206 197 Q 189 210 171 214 Q 152 217 135 208 Q 133 215 131 222 Q 162 248 179 280 Q 194 309 185 337 L 249 293 L 186 292 Z M 372 369 381 373 394 344 331 313 323 320 Q 357 333 372 369 Z M 299 90 364 91 Q 361 81 357 77 Q 352 72 343 71 Q 320 68 299 70 Z M 299 126 H 367 Q 363 110 345 108 Q 320 105 299 107 Z M 298 163 Q 306 170 312 180 L 360 180 L 363 165 Z M 311 327 Q 295 339 278 348 Q 284 359 285 370 L 301 364 Z M 321 210 324 228 H 353 L 356 209 Z" fill="black" />
  </g>
  <g class="defect" id="01">
    <path d="M 107 294 Q 110 333 67 356" fill="none" stroke="red" stroke-width="3" />
  </g>
  <g class="defect" id="02">
    <path d="M 399 165 Q 422 188 412 181" fill="none" stroke="red" stroke-width="3" />
  </g>
  <g class="defect" id="03">
    <path d="M 507 364 Q 494 396 508 400" fill="none" stroke="red" stroke-width="3" />
  </g>
</svg>