<svg xmlns="http://www.w3.org/2000/svg" width="512" height="512" viewBox="0 0 512 512">
  <g class="glyph">
    <path d="M 236 21 312 39 311 0 494 14 496 116 420 112 Q 455 124 443 165 L 485 162 L 483 251 L 452 251 Q 454 289 454 320 H 507 L 512 427 L 282 442 L 294 321 H 355 L 361 253 L 317 254 L 314 173 L 367 170 L 372 109 L 316 106 L 312 42 Q 325 122 295 200 Q 284 267 272 322 Q 260 383 232 421 Q 203 458 164 469 L 206 210 L 165 183 L 163 209 L 138 209 Q 138 230 137 251 L 181 242 L 179 305 L 16 384 L 0 278 L 45 269 L 56 206 L 29 205 L 26 147 L 66 148 L 72 112 L 18 109 L 22 37 L 183 27 L 186 117 L 111 114 Q 124 128 129 151 L 166 152 L 165 163 Q 186 136 218 135 Z" fill="black" />
  </g>
  <g class="defect" id="01">
    <path d="M 420 112 Q 455 124 443 165" fill="none" stroke="red" stroke-width="3" />
  </g>
  <g class="defect" id="02">
    <path d="M 312 42 Q 325 122 295 200" fill="none" stroke="red" stroke-width="3" />
  </g>
</svg>