<svg xmlns="http://www.w3.org/2000/svg" width="512" height="512" viewBox="0 0 512 512">
  <g class="glyph">
    <path d="M 467 406 470 503 243 487 269 426 172 422 140 481 184 495 14 512 100 355 6 356 3 282 H 468 L 463 351 L 208 354 L 197 374 L 386 378 L 363 436 H 420 Q 433 408 467 406 Z M 21 125 H 247 L 244 143 L 374 91 L 439 131 Q 363 169 316 170 Q 296 174 244 143 L 236 199 H 218 L 215 216 L 258 214 V 238 L 400 169 L 470 217 Q 402 256 337 264 Q 310 272 258 243 V 258 L 18 275 L 0 223 L 49 221 L 45 201 H 27 Z M 252 25 V 56 L 349 13 L 418 52 Q 355 83 311 84 Q 279 86 252 62 V 75 L 196 76 Q 196 84 196 91 L 241 90 L 237 115 H 33 L 37 91 H 84 L 90 78 L 24 79 L 20 33 L 110 30 L 124 0 Q 163 5 181 28 Z M 250 450 218 489 159 451 Q 177 437 201 436 Q 226 434 250 450 Z M 149 218 Q 163 204 183 200 L 78 201 Q 98 205 111 219 Z M 98 170 166 171 Q 150 158 154 153 Q 132 148 110 154 Q 100 159 98 170 Z" fill="black" />
  </g>
  <g class="defect" id="01">
    <path d="M 166 171 Q 150 158 154 153" fill="none" stroke="red" stroke-width="3" />
  </g>
  <g class="defect" id="02">
    <path d="M 316 170 Q 296 174 244 143" fill="none" stroke="red" stroke-width="3" />
  </g>
  <g class="defect" id="03">
    <path d="M 337 264 Q 310 272 258 243" fill="none" stroke="red" stroke-width="3" />
  </g>
</svg>