<svg xmlns="http://www.w3.org/2000/svg" width="512" height="512" viewBox="0 0 512 512">
  <g class="glyph">
    <path d="M 327 144 339 493 252 475 277 463 V 404 L 252 421 L 239 364 Q 247 359 277 381 L 277 344 L 225 349 L 220 404 Q 214 444 201 466 Q 187 488 161 492 L 170 356 L 155 357 L 156 319 L 147 354 Q 132 402 115 422 Q 97 442 60 447 L 92 282 L 25 349 L 0 252 L 73 209 L 11 139 L 67 90 Q 88 114 95 145 Q 102 177 84 202 L 110 187 L 138 43 L 262 38 L 270 0 Q 292 1 313 10 Q 333 18 340 34 L 456 30 L 463 108 H 201 L 193 148 L 224 147 L 230 119 Q 261 122 274 146 Z M 512 422 491 491 429 455 Q 381 497 370 485 L 389 432 L 342 404 Q 362 382 405 387 L 414 360 L 352 371 L 349 304 L 488 295 Q 498 342 461 400 Q 491 410 512 422 Z M 494 222 498 287 424 283 427 212 409 210 Q 403 245 389 270 Q 375 298 344 297 L 374 135 L 470 143 L 474 224 Z M 237 217 Q 255 217 262 233 Q 269 249 270 282 L 277 282 L 278 243 Q 279 223 265 216 Q 250 213 233 213 Q 232 249 230 285 L 234 284 Z M 180 215 Q 172 252 164 289 L 175 288 Z" fill="black" />
  </g>
  <g class="defect" id="01">
    <path d="M 429 455 Q 381 497 370 485" fill="none" stroke="red" stroke-width="3" />
  </g>
  <g class="defect" id="02">
    <path d="M 488 295 Q 498 342 461 400" fill="none" stroke="red" stroke-width="3" />
  </g>
  <g class="defect" id="03">
    <path d="M 239 364 Q 247 359 277 381" fill="none" stroke="red" stroke-width="3" />
  </g>
</svg>