<svg xmlns="http://www.w3.org/2000/svg" width="512" height="512" viewBox="0 0 512 512">
  <g class="glyph">
    <path d="M 321 0 403 24 Q 393 42 383 59 L 512 205 Q 484 225 452 213 Q 438 262 405 287 Q 367 316 307 313 L 334 274 L 243 269 L 247 211 Q 225 223 203 225 V 227 L 163 228 Q 163 235 164 241 Q 225 254 222 311 L 167 295 Q 168 374 166 447 L 74 437 L 84 319 Q 64 337 43 344 Q 22 351 0 342 L 78 230 L 34 231 L 39 139 L 100 140 L 104 102 Q 52 120 16 96 L 114 21 L 189 49 Q 161 77 124 93 Q 141 111 149 142 L 197 142 L 200 188 Z M 417 345 421 378 467 333 Q 496 355 502 381 Q 519 408 485 436 L 421 378 L 436 475 L 240 454 L 246 382 Q 233 408 214 421 Q 193 434 169 428 L 203 338 L 248 356 L 251 316 Q 276 318 293 337 Q 309 355 311 381 L 333 380 L 330 321 L 396 316 Q 385 369 348 380 L 398 377 Z M 408 189 Q 367 159 336 126 Q 328 154 289 180 Q 266 171 267 199 L 312 201 L 320 149 Q 340 149 356 165 Q 372 182 374 205 L 443 210 Q 423 201 408 189 Z" fill="black" />
  </g>
  <g class="defect" id="01">
    <path d="M 502 381 Q 519 408 485 436" fill="none" stroke="red" stroke-width="3" />
  </g>
  <g class="defect" id="02">
    <path d="M 336 126 Q 328 154 289 180" fill="none" stroke="red" stroke-width="3" />
  </g>
  <g class="defect" id="03">
    <path d="M 289 180 Q 266 171 267 199" fill="none" stroke="red" stroke-width="3" />
  </g>
</svg>