<svg xmlns="http://www.w3.org/2000/svg" width="512" height="512" viewBox="0 0 512 512">
  <g class="glyph">
    <path d="M 447 83 496 137 Q 449 199 374 281 Q 377 324 375 355 H 411 L 427 314 L 467 439 L 267 447 L 272 379 Q 222 415 178 400 Q 177 420 176 440 L 70 431 L 83 314 Q 71 323 60 331 Q 31 350 0 336 L 77 228 L 34 228 L 40 137 L 101 138 L 105 102 L 90 106 Q 51 114 16 94 L 124 20 L 201 47 Q 161 57 130 92 Q 151 107 160 139 L 208 139 L 210 224 L 176 225 Q 177 242 178 259 Q 193 265 202 274 L 226 156 L 277 178 Q 272 222 256 257 Q 243 285 212 290 Q 218 304 216 321 L 180 312 Q 180 350 178 389 L 280 274 L 293 105 Q 320 104 336 125 Q 352 145 360 182 Z M 404 118 306 65 349 0 Q 384 15 400 38 Q 423 68 404 118 Z M 478 359 416 265 464 215 Q 491 244 500 282 Q 512 325 478 359 Z" fill="black" />
  </g>
  <g class="defect" id="01">
    <path d="M 201 47 Q 161 57 130 92" fill="none" stroke="red" stroke-width="3" />
  </g>
</svg>