<svg xmlns="http://www.w3.org/2000/svg" width="512" height="512" viewBox="0 0 512 512">
  <g class="glyph">
    <path d="M 209 443 156 425 181 300 Q 208 317 215 345 Q 249 331 289 335 L 305 308 L 208 301 L 243 187 L 346 183 Q 346 200 327 221 L 463 233 L 466 320 L 404 315 Q 395 337 383 358 Q 437 378 477 410 L 418 512 L 326 438 Q 318 447 309 456 Q 259 503 197 494 L 260 386 L 216 350 Q 225 395 209 443 Z M 122 179 160 183 106 153 150 126 16 140 76 8 160 14 Q 166 33 134 47 L 238 36 L 246 117 L 177 124 Q 189 137 193 154 Q 184 188 192 186 L 213 188 Q 187 252 123 295 Q 117 299 109 303 Q 133 318 144 356 Q 156 407 155 492 H 33 L 71 320 Q 29 332 0 312 Z M 384 203 295 147 343 120 256 114 292 7 382 0 Q 371 24 352 40 L 475 44 L 469 130 L 376 123 Q 404 160 384 203 Z" fill="black" />
  </g>
  <g class="defect" id="01">
    <path d="M 193 154 Q 184 188 192 186" fill="none" stroke="red" stroke-width="3" />
  </g>
  <g class="defect" id="02">
    <path d="M 160 14 Q 166 33 134 47" fill="none" stroke="red" stroke-width="3" />
  </g>
</svg>