<svg xmlns="http://www.w3.org/2000/svg" width="512" height="512" viewBox="0 0 512 512">
  <g class="glyph">
    <path d="M 498 489 336 475 365 459 393 291 355 294 347 200 Q 307 246 271 265 Q 311 289 322 339 Q 336 410 323 508 L 195 501 L 242 278 Q 209 287 183 271 L 176 305 L 10 291 L 82 197 L 31 199 L 30 134 L 105 40 L 202 76 L 113 138 L 192 141 L 262 0 L 357 22 Q 331 55 324 86 Q 302 117 275 136 Q 224 156 192 159 Q 182 194 135 235 L 191 240 L 184 268 L 283 136 L 372 168 Q 364 180 355 191 L 512 172 L 507 280 L 442 286 Q 471 306 485 341 Q 505 400 498 489 Z M 203 313 V 379 L 14 426 L 0 336 Z M 482 44 486 129 358 140 348 67 Z" fill="black" />
  </g>
  <g class="defect" id="01">
    <path d="M 357 22 Q 331 55 324 86" fill="none" stroke="red" stroke-width="3" />
  </g>
  <g class="defect" id="02">
    <path d="M 275 136 Q 224 156 192 159" fill="none" stroke="red" stroke-width="3" />
  </g>
</svg>