<svg xmlns="http://www.w3.org/2000/svg" width="512" height="512" viewBox="0 0 512 512">
  <g class="glyph">
    <path d="M 448 97 Q 451 115 453 132 Q 470 140 483 150 Q 512 173 504 222 L 458 202 Q 460 247 458 289 L 494 267 L 503 361 Q 362 454 292 465 Q 227 486 183 454 L 402 323 L 343 318 L 372 114 Q 362 158 346 194 Q 330 231 310 234 L 314 352 H 169 V 380 L 15 414 L 0 326 L 159 315 L 164 173 Q 147 211 115 228 L 155 234 L 147 297 L 10 283 L 69 192 L 33 193 L 31 129 L 94 39 L 180 73 L 105 134 L 165 137 L 166 99 L 305 90 L 308 206 L 337 57 L 376 83 L 388 0 Q 411 7 427 33 Q 442 59 448 97 Z M 221 283 256 280 Q 254 261 243 256 Q 234 253 221 254 Z M 221 232 255 230 Q 253 212 241 208 Q 248 226 221 207 Z M 221 185 254 182 Q 252 164 239 161 Q 231 160 221 161 Z" fill="black" />
  </g>
  <g class="defect" id="01">
    <path d="M 241 208 Q 248 226 221 207" fill="none" stroke="red" stroke-width="3" />
  </g>
  <g class="defect" id="02">
    <path d="M 503 361 Q 362 454 292 465" fill="none" stroke="red" stroke-width="3" />
  </g>
</svg>