<svg xmlns="http://www.w3.org/2000/svg" width="512" height="512" viewBox="0 0 512 512">
  <g class="glyph">
    <path d="M 366 249 382 512 246 492 282 481 V 461 Q 282 449 276 441 Q 268 433 256 432 Q 212 428 150 428 V 495 L 44 503 L 68 227 Q 103 230 116 244 Z M 425 42 335 152 H 383 Q 387 130 401 114 Q 399 83 433 96 L 442 223 L 230 229 L 236 19 L 322 22 V 68 Q 331 63 339 58 Q 381 34 425 42 Z M 184 64 Q 206 131 206 223 L 97 229 L 101 189 L 11 236 L 0 152 L 106 130 L 109 102 L 20 113 L 17 60 L 114 50 L 119 0 Q 143 7 158 22 Q 173 37 184 64 Z M 150 397 282 403 Q 280 373 253 372 Q 201 368 150 369 Z M 150 338 282 342 Q 277 314 256 313 Q 186 298 150 309 Z" fill="black" />
  </g>
  <g class="defect" id="01">
    <path d="M 256 313 Q 186 298 150 309" fill="none" stroke="red" stroke-width="3" />
  </g>
  <g class="defect" id="02">
    <path d="M 401 114 Q 399 83 433 96" fill="none" stroke="red" stroke-width="3" />
  </g>
</svg>