<svg xmlns="http://www.w3.org/2000/svg" width="512" height="512" viewBox="0 0 512 512">
  <g class="glyph">
    <path d="M 201 137 297 133 325 90 232 88 241 21 470 35 Q 481 85 439 90 Q 415 114 382 129 L 488 124 L 480 209 L 399 211 Q 411 255 409 292 L 475 291 L 485 414 L 512 414 L 509 477 L 190 471 L 184 403 L 217 404 L 221 294 L 406 292 L 258 268 L 289 258 L 291 213 L 208 214 Z M 187 41 200 402 101 385 130 372 130 307 97 329 81 276 77 308 Q 67 395 19 399 L 26 266 L 4 269 L 0 191 L 30 189 L 38 44 H 55 L 66 0 Q 96 5 109 42 Z M 103 138 Q 120 140 122 184 L 131 184 L 132 154 Q 132 133 118 127 Q 107 123 93 124 L 89 186 L 101 186 Z M 415 357 Q 406 350 396 348 L 400 411 L 429 411 L 428 390 Q 425 365 415 357 Z M 348 355 Q 340 350 330 348 L 334 408 L 363 409 L 362 390 Q 359 365 348 355 Z M 274 359 Q 266 349 255 349 L 258 406 L 289 407 L 288 390 Q 286 368 274 359 Z M 82 260 81 274 Q 100 255 130 296 V 254 Z" fill="black" />
  </g>
  <g class="defect" id="01">
    <path d="M 470 35 Q 481 85 439 90" fill="none" stroke="red" stroke-width="3" />
  </g>
  <g class="defect" id="02">
    <path d="M 81 274 Q 100 255 130 296" fill="none" stroke="red" stroke-width="3" />
  </g>
</svg>