<svg xmlns="http://www.w3.org/2000/svg" width="512" height="512" viewBox="0 0 512 512">
  <g class="glyph">
    <path d="M 48 265 214 232 Q 210 221 205 209 L 87 228 L 61 177 L 186 157 L 177 129 L 253 122 Q 271 147 260 145 L 390 123 L 412 175 L 283 196 L 296 216 L 431 190 Q 429 215 413 229 Q 397 243 358 255 Q 347 259 336 262 Q 347 271 358 278 L 434 283 L 276 336 L 423 329 L 420 390 L 318 393 L 322 436 H 404 Q 409 417 426 407 Q 443 397 462 396 L 455 486 L 218 492 L 220 452 Q 183 471 139 488 Q 80 488 55 508 Q 17 512 0 492 L 179 398 L 58 401 L 54 345 L 269 336 Q 256 313 242 289 Q 165 311 77 326 Z M 57 45 132 43 138 1 Q 158 0 174 11 Q 190 22 200 41 L 282 38 L 288 1 Q 327 2 347 37 L 416 34 L 419 111 L 53 115 Z" fill="black" />
  </g>
  <g class="defect" id="01">
    <path d="M 253 122 Q 271 147 260 145" fill="none" stroke="red" stroke-width="3" />
  </g>
  <g class="defect" id="02">
    <path d="M 139 488 Q 80 488 55 508" fill="none" stroke="red" stroke-width="3" />
  </g>
</svg>