<svg xmlns="http://www.w3.org/2000/svg" width="512" height="512" viewBox="0 0 512 512">
  <g class="glyph">
    <path d="M 4 49 90 47 98 0 Q 155 2 172 45 L 257 43 L 264 0 Q 316 3 336 41 L 416 39 L 410 120 L 108 124 Q 126 132 137 149 L 380 142 L 377 340 L 39 344 L 32 152 L 61 151 L 69 124 L 4 124 Z M 414 362 323 436 H 372 Q 383 402 429 396 L 433 491 L 200 496 L 210 352 L 301 355 L 300 381 Q 311 376 321 371 Q 364 354 414 362 Z M 116 473 186 484 0 512 29 345 Q 70 354 92 379 L 185 373 L 181 434 L 115 437 Q 117 454 116 473 Z M 293 236 Q 290 213 266 209 Q 240 204 204 206 Q 152 192 147 212 Q 126 218 123 244 Q 121 268 123 295 L 295 294 Q 275 246 293 236 Z M 231 212 280 233 Q 266 241 252 249 L 291 269 L 242 290 L 206 272 Q 196 275 186 279 Q 139 289 123 274 L 164 251 L 133 235 Q 176 217 202 229 Z" fill="black" />
  </g>
  <g class="defect" id="01">
    <path d="M 133 235 Q 176 217 202 229" fill="none" stroke="red" stroke-width="3" />
  </g>
  <g class="defect" id="02">
    <path d="M 204 206 Q 152 192 147 212" fill="none" stroke="red" stroke-width="3" />
  </g>
  <g class="defect" id="03">
    <path d="M 295 294 Q 275 246 293 236" fill="none" stroke="red" stroke-width="3" />
  </g>
</svg>