<svg xmlns="http://www.w3.org/2000/svg" width="512" height="512" viewBox="0 0 512 512">
  <g class="glyph">
    <path d="M 458 235 463 277 429 279 474 307 Q 457 325 431 328 L 493 358 Q 452 384 386 367 Q 328 351 275 316 L 311 284 L 229 288 Q 236 293 242 299 Q 257 317 258 351 L 291 360 L 160 382 L 169 291 L 144 292 Q 126 350 108 390 Q 88 430 63 450 Q 38 471 0 473 L 91 138 L 430 130 L 427 183 L 172 186 Q 183 216 157 246 Z M 47 43 132 41 139 2 Q 187 0 207 39 L 296 37 L 302 0 Q 347 0 368 35 L 450 32 L 443 114 L 47 117 Z M 468 383 471 443 H 411 Q 418 477 415 512 L 270 496 L 305 483 L 314 443 L 125 442 L 123 387 L 325 385 L 331 360 Q 364 364 382 384 Z M 191 202 396 197 393 229 189 234 Z M 276 470 228 509 162 469 Q 183 450 218 452 Q 253 452 276 470 Z M 340 283 391 308 424 279 Z" fill="black" />
  </g>
  <g class="defect" id="01">
    <path d="M 172 186 Q 183 216 157 246" fill="none" stroke="red" stroke-width="3" />
  </g>
</svg>