<svg xmlns="http://www.w3.org/2000/svg" width="512" height="512" viewBox="0 0 512 512">
  <g class="glyph">
    <path d="M 338 464 294 469 304 382 276 381 279 475 197 482 219 316 255 315 269 294 223 296 216 220 471 209 V 285 L 317 292 Q 325 301 328 315 L 471 312 L 488 493 L 380 477 L 401 467 L 409 385 L 382 385 Q 384 394 386 402 Q 390 425 389 459 L 351 464 L 356 384 L 328 383 Q 333 392 335 404 Q 339 430 338 464 Z M 209 330 15 396 0 293 40 288 48 237 15 236 13 76 77 68 85 15 Q 113 25 120 63 L 182 54 L 178 242 L 125 240 Q 123 259 122 277 L 147 273 L 144 251 Q 200 259 209 330 Z M 232 7 480 0 478 48 512 47 Q 512 96 501 134 Q 473 184 454 190 L 449 106 L 387 107 Q 395 151 395 198 L 314 204 L 323 108 L 244 109 Q 254 149 256 194 L 196 201 L 189 41 Q 204 42 215 51 H 233 Z M 265 164 305 163 303 196 268 197 Z M 441 163 V 195 L 407 197 L 403 164 Z M 259 127 308 123 306 146 263 148 Z M 47 143 Q 22 156 39 179 L 58 178 L 66 131 Q 53 135 47 143 Z M 437 122 V 145 L 403 147 L 399 125 Z M 140 139 Q 134 132 126 129 Q 127 152 127 175 L 151 173 Q 151 151 140 139 Z" fill="black" />
  </g>
  <g class="defect" id="01">
    <path d="M 501 134 Q 473 184 454 190" fill="none" stroke="red" stroke-width="3" />
  </g>
  <g class="defect" id="02">
    <path d="M 47 143 Q 22 156 39 179" fill="none" stroke="red" stroke-width="3" />
  </g>
</svg>