<svg xmlns="http://www.w3.org/2000/svg" width="512" height="512" viewBox="0 0 512 512">
  <g class="glyph">
    <path d="M 135 134 H 207 L 217 113 L 135 107 L 162 6 L 261 0 Q 259 25 236 37 L 325 48 Q 311 116 262 134 H 339 L 334 312 L 233 318 L 287 331 Q 285 339 282 348 L 348 346 L 343 421 L 296 422 Q 312 433 323 445 Q 350 474 327 509 L 229 456 Q 191 511 123 499 L 157 425 H 133 L 130 350 L 192 350 L 205 320 L 140 324 Z M 495 475 357 455 386 443 405 273 355 278 348 178 512 158 508 264 465 268 Q 474 285 480 307 Q 501 386 495 475 Z M 110 337 Q 117 393 112 448 H 14 L 45 275 Q 22 278 0 260 L 76 153 L 130 205 Q 110 238 78 262 Q 72 266 65 269 Q 101 292 110 337 Z M 489 32 492 114 357 127 350 55 Z M 70 21 133 64 Q 114 102 76 133 Q 58 148 39 151 Q 21 153 1 139 Z M 194 205 219 207 222 181 Q 208 182 194 182 Z M 259 244 Q 257 244 255 243 Q 254 259 253 273 L 280 275 Q 280 261 276 253 Q 271 245 259 244 Z M 255 206 V 210 L 279 212 Q 298 206 277 191 Q 272 184 257 183 Q 242 164 248 182 Q 274 207 255 206 Z M 194 269 214 271 216 241 Q 205 241 194 240 Z" fill="black" />
  </g>
  <g class="defect" id="01">
    <path d="M 248 182 Q 274 207 255 206" fill="none" stroke="red" stroke-width="3" />
  </g>
  <g class="defect" id="02">
    <path d="M 257 183 Q 242 164 248 182" fill="none" stroke="red" stroke-width="3" />
  </g>
  <g class="defect" id="03">
    <path d="M 279 212 Q 298 206 277 191" fill="none" stroke="red" stroke-width="3" />
  </g>
</svg>