<svg xmlns="http://www.w3.org/2000/svg" width="512" height="512" viewBox="0 0 512 512">
  <g class="glyph">
    <path d="M 245 68 350 72 358 0 Q 382 7 394 26 Q 406 44 411 74 L 503 78 Q 500 181 440 208 L 445 165 L 417 165 Q 417 201 416 236 L 493 226 Q 484 314 433 367 Q 470 388 512 417 L 436 496 L 374 441 Q 309 490 253 487 L 318 393 L 278 357 Q 316 336 355 340 L 374 312 L 281 319 Q 272 353 261 387 Q 249 420 225 444 Q 186 481 170 471 L 200 311 L 142 308 Q 147 344 143 383 L 41 386 L 64 247 Q 30 251 0 246 L 92 167 L 28 161 L 38 77 L 92 84 L 99 40 Q 126 42 141 55 Q 156 67 164 92 L 222 98 Q 201 155 159 199 L 211 208 Q 207 245 180 263 Q 195 273 203 291 Z M 314 161 Q 305 207 297 251 L 331 247 L 340 162 Z M 132 222 Q 124 227 116 231 Q 122 239 125 248 Q 137 250 148 251 L 155 202 Q 144 212 132 222 Z" fill="black" />
  </g>
  <g class="defect" id="01">
    <path d="M 493 226 Q 484 314 433 367" fill="none" stroke="red" stroke-width="3" />
  </g>
  <g class="defect" id="02">
    <path d="M 374 441 Q 309 490 253 487" fill="none" stroke="red" stroke-width="3" />
  </g>
  <g class="defect" id="03">
    <path d="M 225 444 Q 186 481 170 471" fill="none" stroke="red" stroke-width="3" />
  </g>
</svg>