<svg xmlns="http://www.w3.org/2000/svg" width="512" height="512" viewBox="0 0 512 512">
  <g class="glyph">
    <path d="M 313 298 367 306 Q 364 314 361 322 Q 365 344 397 348 L 401 296 L 218 286 L 268 198 L 230 197 L 228 125 Q 194 184 124 228 Q 140 239 149 254 L 174 199 L 232 215 Q 218 249 188 268 Q 214 281 222 317 L 167 315 Q 174 359 171 400 L 51 403 L 69 252 Q 37 262 0 257 L 90 164 L 39 158 L 50 74 L 100 80 L 108 38 Q 153 41 171 88 L 228 95 L 226 14 L 474 0 L 470 201 L 351 199 Q 343 213 333 222 L 493 231 L 512 471 L 362 445 L 390 434 L 396 362 L 362 385 L 344 354 Q 324 386 287 393 H 353 L 356 450 L 220 454 L 231 301 Q 277 304 283 368 Z M 317 104 391 106 Q 388 83 365 80 Q 339 76 317 79 Z M 317 154 H 391 Q 387 132 366 129 Q 341 126 317 128 Z" fill="black" />
  </g>
  <g class="defect" id="01">
    <path d="M 361 322 Q 365 344 397 348" fill="none" stroke="red" stroke-width="3" />
  </g>
</svg>