<svg xmlns="http://www.w3.org/2000/svg" width="512" height="512" viewBox="0 0 512 512">
  <g class="glyph">
    <path d="M 48 87 96 93 104 50 Q 147 55 164 101 L 232 109 Q 227 120 223 132 L 264 118 L 266 93 L 210 96 L 207 47 L 271 42 L 275 0 Q 318 11 328 63 Q 339 118 332 212 L 253 219 L 257 184 L 213 221 L 205 162 Q 187 197 122 244 Q 133 255 141 269 L 167 211 L 218 235 Q 224 272 177 286 Q 210 302 219 337 L 157 335 Q 162 385 159 427 L 44 431 L 66 268 Q 33 275 0 271 L 87 178 L 37 173 Z M 479 243 495 506 357 483 390 474 V 449 Q 390 431 364 426 Q 340 422 310 422 L 308 477 L 209 483 L 239 221 Q 269 224 277 239 Z M 503 103 512 218 353 225 359 19 424 22 V 69 Q 431 62 439 55 Q 464 35 502 39 L 436 147 H 467 Q 471 128 479 117 Q 487 106 503 103 Z M 311 391 390 395 Q 387 371 359 367 Q 333 361 311 365 Z M 311 333 389 336 Q 387 315 361 311 Q 348 308 311 310 Z" fill="black" />
  </g>
  <g class="defect" id="01">
    <path d="M 361 311 Q 348 308 311 310" fill="none" stroke="red" stroke-width="3" />
  </g>
  <g class="defect" id="02">
    <path d="M 205 162 Q 187 197 122 244" fill="none" stroke="red" stroke-width="3" />
  </g>
  <g class="defect" id="03">
    <path d="M 218 235 Q 224 272 177 286" fill="none" stroke="red" stroke-width="3" />
  </g>
</svg>