<svg xmlns="http://www.w3.org/2000/svg" width="512" height="512" viewBox="0 0 512 512">
  <g class="glyph">
    <path d="M 221 108 246 153 286 30 397 17 Q 371 70 354 108 L 475 119 L 494 512 L 294 475 L 356 461 L 378 214 L 231 196 L 239 172 Q 211 187 183 199 Q 212 217 221 258 Q 236 348 228 446 L 90 412 L 121 401 L 133 337 Q 111 370 72 388 Q 32 406 0 393 L 71 302 Q 30 309 11 287 L 84 227 Q 34 230 12 202 L 60 180 L 46 146 Q 84 129 106 159 L 131 148 L 118 121 Q 88 113 31 110 L 188 0 L 276 23 Q 225 79 156 108 Q 174 110 186 123 Z M 364 351 276 396 236 239 Q 292 233 322 268 Q 351 302 364 351 Z M 145 269 Q 120 288 81 299 L 136 321 Z M 130 219 Q 118 223 103 225 L 146 265 L 156 210 Q 143 215 130 219 Z" fill="black" />
  </g>
  <g class="defect" id="01">
    <path d="M 397 17 Q 371 70 354 108" fill="none" stroke="red" stroke-width="3" />
  </g>
  <g class="defect" id="02">
    <path d="M 118 121 Q 88 113 31 110" fill="none" stroke="red" stroke-width="3" />
  </g>
</svg>