<svg xmlns="http://www.w3.org/2000/svg" width="512" height="512" viewBox="0 0 512 512">
  <g class="glyph">
    <path d="M 252 336 H 208 Q 210 359 212 381 L 283 320 L 289 284 L 245 286 L 248 175 H 324 L 329 135 L 270 132 L 276 57 L 337 56 L 343 0 Q 388 10 403 55 L 470 54 L 462 140 L 419 138 Q 421 157 423 175 H 494 L 500 274 L 439 277 Q 444 302 449 328 Q 473 337 490 357 Q 511 381 512 414 L 460 410 Q 450 452 467 494 L 343 470 L 376 455 L 390 279 L 368 280 Q 357 361 336 413 Q 309 482 251 487 L 267 404 Q 238 412 213 398 L 215 431 L 99 402 L 127 393 L 146 257 H 127 Q 124 317 109 360 Q 109 406 45 417 L 52 333 Q 24 338 0 322 L 59 265 L 59 257 H 31 L 28 182 L 91 181 L 97 154 L 53 153 L 59 100 L 109 101 L 119 57 Q 177 66 172 103 L 219 103 L 213 159 L 179 158 Q 179 169 178 180 L 232 179 L 230 257 H 194 Q 196 268 199 280 Q 218 284 232 296 Q 251 310 252 336 Z" fill="black" />
  </g>
  <g class="defect" id="01">
    <path d="M 460 410 Q 450 452 467 494" fill="none" stroke="red" stroke-width="3" />
  </g>
  <g class="defect" id="02">
    <path d="M 109 360 Q 109 406 45 417" fill="none" stroke="red" stroke-width="3" />
  </g>
  <g class="defect" id="03">
    <path d="M 119 57 Q 177 66 172 103" fill="none" stroke="red" stroke-width="3" />
  </g>
</svg>