<svg xmlns="http://www.w3.org/2000/svg" width="512" height="512" viewBox="0 0 512 512">
  <g class="glyph">
    <path d="M 452 319 501 401 Q 417 453 308 487 Q 226 512 155 468 L 313 388 L 332 273 L 214 277 L 207 173 L 231 173 L 243 48 Q 284 57 296 93 Q 287 102 307 171 L 327 171 L 340 0 Q 392 8 413 56 L 473 49 L 469 121 L 427 126 Q 429 148 429 169 L 492 167 L 488 268 L 392 271 Q 405 289 411 311 Q 414 324 416 336 Z M 74 299 Q 77 317 75 336 L 91 333 L 109 236 L 36 233 L 33 89 L 199 82 L 195 239 L 148 238 Q 160 248 166 263 L 207 264 L 204 292 L 173 291 Q 174 303 175 314 L 212 307 V 363 L 241 292 L 313 315 Q 296 355 270 386 Q 241 419 193 409 L 210 369 L 16 438 L 0 352 L 30 346 L 42 255 Q 72 269 74 299 Z M 94 195 H 142 Q 143 173 139 166 Q 134 157 116 158 Q 101 158 97 166 Q 81 154 94 195 Z" fill="black" />
  </g>
  <g class="defect" id="01">
    <path d="M 97 166 Q 81 154 94 195" fill="none" stroke="red" stroke-width="3" />
  </g>
  <g class="defect" id="02">
    <path d="M 296 93 Q 287 102 307 171" fill="none" stroke="red" stroke-width="3" />
  </g>
</svg>