<svg xmlns="http://www.w3.org/2000/svg" width="512" height="512" viewBox="0 0 512 512">
  <g class="glyph">
    <path d="M 76 305 Q 78 323 76 343 L 91 340 L 106 241 L 36 238 L 34 92 L 189 85 L 185 244 L 143 242 Q 141 240 158 268 L 188 270 L 185 298 L 165 297 Q 166 311 167 323 L 195 318 L 203 192 L 332 180 L 341 490 L 252 476 L 278 464 L 280 424 Q 280 410 271 403 Q 262 396 247 395 Q 246 435 232 472 Q 219 504 183 512 L 190 384 L 16 446 L 0 358 L 30 352 L 43 261 Q 73 274 76 305 Z M 487 173 510 490 410 476 436 464 438 416 Q 439 401 430 395 Q 421 387 406 387 Q 404 430 389 470 Q 375 504 341 512 L 361 183 Z M 480 157 213 173 192 36 Q 218 34 239 49 Q 259 63 264 89 L 292 89 L 309 0 Q 351 2 370 42 Q 380 62 383 86 L 418 85 L 427 30 Q 461 39 471 71 Q 485 115 480 157 Z M 90 199 H 136 Q 136 175 132 168 Q 129 161 112 161 Q 83 162 92 169 Q 89 177 90 199 Z M 409 350 439 354 Q 439 337 433 329 Q 427 320 410 320 Z M 250 358 280 363 Q 280 346 274 337 Q 268 329 252 328 Z M 411 282 438 285 Q 439 271 432 261 Q 426 251 412 251 Z M 253 290 279 293 Q 280 280 274 271 Q 249 274 254 261 Z" fill="black" />
  </g>
  <g class="defect" id="01">
    <path d="M 112 161 Q 83 162 92 169" fill="none" stroke="red" stroke-width="3" />
  </g>
  <g class="defect" id="02">
    <path d="M 274 271 Q 249 274 254 261" fill="none" stroke="red" stroke-width="3" />
  </g>
  <g class="defect" id="03">
    <path d="M 143 242 Q 141 240 158 268" fill="none" stroke="red" stroke-width="3" />
  </g>
</svg>