<svg xmlns="http://www.w3.org/2000/svg" width="512" height="512" viewBox="0 0 512 512">
  <g class="glyph">
    <path d="M 317 117 319 139 348 37 411 31 Q 405 57 394 69 L 458 74 L 461 154 L 431 151 Q 402 182 405 212 Q 433 232 470 276 L 415 353 L 362 279 Q 340 306 314 309 L 317 330 L 211 306 L 238 299 L 247 258 L 221 255 L 212 268 Q 189 306 148 310 L 512 393 Q 482 431 442 437 Q 402 443 358 433 Q 217 405 83 371 Q 76 409 16 413 L 75 142 L 15 150 L 0 61 L 47 57 L 49 8 Q 90 7 114 51 L 161 46 Q 153 176 113 302 L 137 308 L 185 186 H 162 L 161 128 L 204 125 L 208 107 L 179 109 L 181 86 L 213 84 L 216 68 L 171 70 L 168 37 L 224 32 L 232 0 Q 259 5 271 28 L 317 24 V 62 L 282 64 L 284 80 L 311 78 L 308 101 L 286 103 Q 286 111 286 119 Z M 301 206 311 283 330 235 302 193 Q 327 186 349 190 L 368 145 L 319 140 L 323 186 H 253 L 246 204 Z" fill="black" />
  </g>
  <g class="defect" id="01">
    <path d="M 431 151 Q 402 182 405 212" fill="none" stroke="red" stroke-width="3" />
  </g>
  <g class="defect" id="02">
    <path d="M 83 371 Q 76 409 16 413" fill="none" stroke="red" stroke-width="3" />
  </g>
</svg>