<svg xmlns="http://www.w3.org/2000/svg" width="512" height="512" viewBox="0 0 512 512">
  <g class="glyph">
    <path d="M 0 67 47 63 49 14 Q 90 13 115 58 L 177 52 Q 168 179 126 306 L 171 317 L 197 115 Q 217 116 220 129 L 275 130 L 277 109 L 195 106 L 198 36 L 282 39 L 285 0 Q 316 7 332 41 L 371 42 L 368 13 Q 400 22 414 51 Q 426 81 426 114 L 349 112 L 351 131 L 437 133 L 453 359 L 375 342 L 399 333 V 306 Q 399 289 359 288 H 356 Q 356 315 356 342 L 274 340 L 512 394 Q 503 449 443 442 Q 402 449 358 438 Q 241 412 90 378 Q 58 420 16 419 L 74 159 L 15 166 Z M 230 327 221 328 259 337 264 286 H 230 Z M 230 207 269 209 271 184 Q 250 185 230 185 Z M 230 258 265 259 267 235 H 230 Z M 356 238 V 263 L 399 264 Q 397 251 390 246 Q 383 241 362 238 Q 359 238 356 238 Z M 355 188 356 212 397 213 Q 406 201 387 195 Q 378 189 355 188 Z" fill="black" />
  </g>
  <g class="defect" id="01">
    <path d="M 358 438 Q 241 412 90 378" fill="none" stroke="red" stroke-width="3" />
  </g>
  <g class="defect" id="02">
    <path d="M 397 213 Q 406 201 387 195" fill="none" stroke="red" stroke-width="3" />
  </g>
  <g class="defect" id="03">
    <path d="M 512 394 Q 503 449 443 442" fill="none" stroke="red" stroke-width="3" />
  </g>
</svg>