<svg xmlns="http://www.w3.org/2000/svg" width="512" height="512" viewBox="0 0 512 512">
  <g class="glyph">
    <path d="M 0 56 47 52 49 4 Q 90 1 115 47 L 177 42 Q 169 171 124 300 L 170 311 L 182 203 L 440 195 L 449 346 L 297 340 L 512 388 Q 482 425 443 432 Q 403 438 358 428 Q 221 402 89 368 Q 58 409 16 408 L 78 137 L 15 145 Z M 204 98 409 85 408 186 209 184 Z M 430 0 436 68 190 81 185 21 Z M 278 152 344 150 Q 338 128 308 129 Q 260 131 278 152 Z M 292 239 Q 253 243 249 264 L 290 261 Z M 365 257 Q 338 226 321 238 Q 324 248 327 259 Z M 368 297 Q 368 291 368 285 L 329 287 V 298 Z M 249 300 288 299 288 289 248 291 Q 249 296 249 300 Z" fill="black" />
  </g>
  <g class="defect" id="01">
    <path d="M 308 129 Q 260 131 278 152" fill="none" stroke="red" stroke-width="3" />
  </g>
  <g class="defect" id="02">
    <path d="M 365 257 Q 338 226 321 238" fill="none" stroke="red" stroke-width="3" />
  </g>
</svg>