<svg xmlns="http://www.w3.org/2000/svg" width="512" height="512" viewBox="0 0 512 512">
  <g class="glyph">
    <path d="M 134 397 171 413 236 108 452 23 479 122 319 180 Q 316 200 311 221 L 490 185 Q 472 265 428 345 Q 485 362 512 412 L 424 497 L 366 433 Q 314 491 247 487 L 311 372 L 280 337 Q 288 370 257 399 Q 222 479 156 482 L 169 417 L 31 441 L 52 326 L 5 325 L 0 240 L 67 240 L 71 214 L 15 214 L 13 164 L 198 157 L 195 214 H 109 Q 119 225 125 239 L 185 238 L 180 327 H 139 Q 138 365 134 397 Z M 99 57 214 61 204 142 10 133 49 0 144 9 Q 129 42 99 57 Z M 294 288 Q 290 304 285 319 Q 316 311 344 314 L 364 279 Z" fill="black" />
  </g>
  <g class="defect" id="01">
    <path d="M 428 345 Q 485 362 512 412" fill="none" stroke="red" stroke-width="3" />
  </g>
  <g class="defect" id="02">
    <path d="M 280 337 Q 288 370 257 399" fill="none" stroke="red" stroke-width="3" />
  </g>
</svg>