<svg xmlns="http://www.w3.org/2000/svg" width="512" height="512" viewBox="0 0 512 512">
  <g class="glyph">
    <path d="M 276 218 296 399 0 393 20 225 99 223 102 206 7 208 9 153 111 150 114 131 39 130 32 12 262 0 258 131 H 164 Q 174 138 182 148 L 293 144 L 302 202 L 206 204 L 209 220 Z M 427 462 311 465 317 61 Q 337 65 352 87 L 512 99 Q 507 131 493 160 Q 479 188 457 205 Q 497 236 498 301 L 412 304 Q 443 422 427 462 Z M 72 356 228 354 Q 230 323 226 293 Q 225 284 219 278 L 223 348 L 81 350 L 86 277 Q 77 284 74 297 Q 83 338 72 356 Z M 115 81 H 177 Q 177 65 169 59 Q 144 53 146 53 Q 116 51 115 81 Z M 435 161 382 158 Q 388 180 393 203 Q 422 188 435 161 Z M 440 248 Q 426 217 395 206 Q 399 227 402 248 Z M 150 264 Q 110 264 91 273 L 215 274 Q 200 264 150 264 Z M 126 317 H 177 Q 177 301 153 301 Q 126 303 126 317 Z" fill="black" />
  </g>
  <g class="defect" id="01">
    <path d="M 74 297 Q 83 338 72 356" fill="none" stroke="red" stroke-width="3" />
  </g>
  <g class="defect" id="02">
    <path d="M 169 59 Q 144 53 146 53" fill="none" stroke="red" stroke-width="3" />
  </g>
  <g class="defect" id="03">
    <path d="M 412 304 Q 443 422 427 462" fill="none" stroke="red" stroke-width="3" />
  </g>
</svg>