<svg xmlns="http://www.w3.org/2000/svg" width="512" height="512" viewBox="0 0 512 512">
  <g class="glyph">
    <path d="M 150 486 159 433 226 47 310 45 318 0 Q 366 5 388 43 L 465 41 L 476 139 L 408 137 Q 412 150 414 167 L 471 168 L 486 280 L 282 287 Q 310 297 320 316 L 363 311 L 360 362 L 333 365 Q 333 381 333 398 L 361 406 L 263 435 L 299 444 Q 291 479 272 496 Q 253 512 217 509 L 238 429 L 251 433 L 272 288 H 263 Q 253 329 242 370 Q 232 408 211 440 Q 191 472 150 486 Z M 131 421 157 433 28 465 47 341 5 341 0 255 61 254 66 216 20 217 17 167 169 159 166 215 98 216 Q 96 231 123 253 L 171 253 L 166 343 L 135 343 Q 133 382 131 421 Z M 118 64 202 68 191 145 14 136 56 17 156 26 Q 144 53 118 64 Z M 503 303 454 368 H 477 Q 482 344 500 339 L 507 423 L 371 427 L 377 292 L 434 294 V 323 Q 443 318 452 312 Q 490 299 503 303 Z M 459 511 436 448 495 425 Q 509 450 498 477 Q 488 505 459 511 Z M 370 445 422 435 Q 426 462 416 484 Q 405 507 380 511 Z M 307 446 360 438 Q 363 464 353 486 Q 343 507 318 512 Z M 343 134 Q 351 149 352 165 L 379 166 L 380 135 Z M 280 212 274 241 H 304 L 307 211 Z M 351 210 Q 332 240 349 241 H 376 L 377 209 Z M 293 132 288 164 313 165 316 133 Z M 417 208 Q 418 224 418 240 H 439 L 440 207 Z" fill="black" />
  </g>
  <g class="defect" id="01">
    <path d="M 351 210 Q 332 240 349 241" fill="none" stroke="red" stroke-width="3" />
  </g>
  <g class="defect" id="02">
    <path d="M 452 312 Q 490 299 503 303" fill="none" stroke="red" stroke-width="3" />
  </g>
  <g class="defect" id="03">
    <path d="M 98 216 Q 96 231 123 253" fill="none" stroke="red" stroke-width="3" />
  </g>
</svg>