<svg xmlns="http://www.w3.org/2000/svg" width="512" height="512" viewBox="0 0 512 512">
  <g class="glyph">
    <path d="M 107 6 400 0 397 47 H 512 Q 509 101 492 139 Q 476 176 422 188 L 416 104 L 284 106 Q 303 136 306 183 L 199 194 L 215 106 L 87 107 Q 92 134 92 188 L 0 185 L 16 31 Q 40 35 55 47 H 109 Z M 452 206 466 501 337 480 372 468 372 439 Q 372 426 367 419 Q 362 412 350 408 Q 334 405 309 403 Q 303 432 283 458 Q 262 483 233 487 L 262 199 Z M 38 295 111 297 113 287 64 286 66 257 H 27 L 25 217 L 70 217 L 72 194 Q 103 194 121 216 L 158 216 L 158 190 Q 172 189 188 196 Q 186 203 206 215 L 247 214 L 245 257 H 216 L 218 290 L 127 288 Q 135 291 141 298 L 233 299 L 227 371 L 175 372 Q 176 378 178 385 H 235 L 233 423 L 183 425 Q 184 441 184 457 L 76 460 L 83 428 L 17 430 L 15 385 H 92 L 95 373 L 40 373 Z M 403 153 V 181 L 326 183 L 319 154 Z M 106 155 188 153 186 181 111 183 Z M 100 122 191 117 190 139 104 141 Z M 400 117 V 138 L 321 140 L 316 121 Z M 317 367 373 374 Q 373 350 359 344 Q 347 337 321 336 Z M 325 302 376 308 Q 391 267 362 278 Q 351 272 328 271 Z M 122 270 H 160 Q 140 246 150 258 Q 139 255 122 257 Z M 73 347 H 101 L 104 329 Q 103 330 101 330 Q 75 333 73 347 Z M 162 329 Q 165 338 168 347 H 192 Q 191 333 164 329 Z" fill="black" />
  </g>
  <g class="defect" id="01">
    <path d="M 188 196 Q 186 203 206 215" fill="none" stroke="red" stroke-width="3" />
  </g>
  <g class="defect" id="02">
    <path d="M 160 270 Q 140 246 150 258" fill="none" stroke="red" stroke-width="3" />
  </g>
  <g class="defect" id="03">
    <path d="M 376 308 Q 391 267 362 278" fill="none" stroke="red" stroke-width="3" />
  </g>
</svg>