<svg xmlns="http://www.w3.org/2000/svg" width="512" height="512" viewBox="0 0 512 512">
  <g class="glyph">
    <path d="M 88 9 257 11 255 56 166 53 166 68 244 67 242 93 168 92 168 104 243 103 241 129 170 128 171 137 253 136 Q 238 161 205 176 Q 253 177 279 225 L 246 226 Q 279 232 299 253 H 496 Q 495 296 470 315 Q 444 333 400 336 L 397 305 L 99 307 Q 102 318 102 329 L 0 331 L 23 240 Q 48 242 65 253 H 212 L 220 227 L 41 233 L 100 184 L 31 185 L 39 139 L 72 138 Z M 330 314 387 355 187 362 185 376 403 371 402 398 312 400 Q 321 407 324 416 L 440 414 L 440 458 L 368 459 Q 406 483 389 512 L 288 486 L 314 461 L 181 462 L 206 486 Q 189 503 145 507 Q 92 511 83 489 L 134 463 L 47 464 L 55 419 L 99 419 L 97 337 Z M 430 133 496 175 Q 452 199 393 213 Q 314 232 270 198 Z M 401 65 461 102 Q 413 124 364 134 Q 333 142 304 135 Q 275 128 259 112 Z M 372 0 438 35 Q 400 53 353 64 Q 326 68 301 62 Q 275 56 259 38 Z M 181 403 179 418 251 417 255 402 Z M 206 195 196 180 Q 175 189 154 198 Z" fill="black" />
  </g>
  <g class="defect" id="01">
    <path d="M 145 507 Q 92 511 83 489" fill="none" stroke="red" stroke-width="3" />
  </g>
  <g class="defect" id="02">
    <path d="M 393 213 Q 314 232 270 198" fill="none" stroke="red" stroke-width="3" />
  </g>
  <g class="defect" id="03">
    <path d="M 206 486 Q 189 503 145 507" fill="none" stroke="red" stroke-width="3" />
  </g>
</svg>