<svg xmlns="http://www.w3.org/2000/svg" width="512" height="512" viewBox="0 0 512 512">
  <g class="glyph">
    <path d="M 97 301 10 297 63 207 22 206 16 26 243 12 239 210 159 209 Q 131 210 139 232 L 247 240 L 262 479 L 160 459 L 177 450 L 180 368 L 149 394 L 135 360 Q 129 369 122 379 Q 105 399 76 401 H 155 L 152 458 L 0 462 L 22 315 Q 67 321 72 379 Z M 495 255 512 494 367 475 399 459 403 332 275 339 259 48 H 284 L 296 0 Q 354 2 373 46 L 477 45 L 481 248 L 380 231 L 405 218 L 407 190 L 379 213 L 358 173 L 356 262 Z M 379 357 388 444 267 442 273 360 Z M 106 167 H 161 Q 159 147 143 141 Q 124 136 106 138 Z M 106 113 162 116 Q 156 94 140 88 Q 124 82 106 85 Z M 97 301 154 313 Q 152 321 149 328 Q 170 332 182 348 L 184 305 Z M 359 155 Q 392 154 409 177 L 412 137 L 360 139 Z" fill="black" />
  </g>
  <g class="defect" id="01">
    <path d="M 159 209 Q 131 210 139 232" fill="none" stroke="red" stroke-width="3" />
  </g>
</svg>