<svg xmlns="http://www.w3.org/2000/svg" width="512" height="512" viewBox="0 0 512 512">
  <g class="glyph">
    <path d="M 81 223 205 228 207 203 79 198 76 11 455 0 448 212 313 207 315 231 451 235 447 284 317 283 Q 317 297 317 310 L 487 312 L 493 376 L 464 377 Q 497 401 505 431 Q 512 460 488 495 L 385 433 L 459 377 L 34 383 L 45 306 L 195 308 L 199 282 L 77 282 Z M 59 387 145 411 Q 127 460 89 482 Q 50 503 0 478 Z M 308 493 276 405 368 390 Q 377 429 362 459 Q 347 488 308 493 Z M 193 495 156 407 247 392 Q 258 430 245 459 Q 231 488 193 495 Z M 305 131 Q 307 140 308 149 H 319 Q 326 110 356 99 V 148 L 382 148 Q 382 120 372 107 Q 362 94 336 89 Q 317 86 292 84 Q 314 86 305 131 Z M 141 151 H 168 L 168 101 Q 200 107 204 150 H 213 L 221 84 L 192 86 Q 166 89 153 107 Q 158 124 141 151 Z" fill="black" />
  </g>
  <g class="defect" id="01">
    <path d="M 292 84 Q 314 86 305 131" fill="none" stroke="red" stroke-width="3" />
  </g>
  <g class="defect" id="02">
    <path d="M 153 107 Q 158 124 141 151" fill="none" stroke="red" stroke-width="3" />
  </g>
</svg>