<svg xmlns="http://www.w3.org/2000/svg" width="512" height="512" viewBox="0 0 512 512">
  <g class="glyph">
    <path d="M 190 0 249 7 Q 235 40 220 72 H 269 Q 270 108 257 141 Q 261 175 205 183 L 200 141 L 187 141 Q 168 176 148 207 L 166 208 L 170 175 Q 187 175 203 184 Q 218 193 224 209 L 259 209 L 263 266 L 192 264 Q 187 254 202 284 L 255 283 L 254 309 L 208 309 Q 209 320 211 330 L 254 329 L 255 355 L 213 355 V 375 L 257 373 L 261 441 L 24 455 L 44 300 Q 23 305 0 298 L 99 143 L 71 143 Q 71 160 71 177 L 10 173 L 25 54 Q 42 58 51 72 H 144 Z M 479 264 494 512 355 493 394 477 397 343 284 351 270 51 H 294 L 304 4 Q 342 30 374 50 L 464 48 L 467 258 L 377 240 L 401 227 L 402 197 L 376 220 L 358 179 L 356 271 Z M 378 375 385 461 268 459 273 377 Z M 358 162 Q 389 160 403 184 L 406 141 L 358 144 Z M 108 262 105 265 Q 110 274 113 285 L 149 284 L 151 263 Z M 116 310 118 331 147 331 148 309 Z M 119 355 Q 119 368 119 381 L 144 380 L 145 355 Z" fill="black" />
  </g>
  <g class="defect" id="01">
    <path d="M 257 141 Q 261 175 205 183" fill="none" stroke="red" stroke-width="3" />
  </g>
  <g class="defect" id="02">
    <path d="M 304 4 Q 342 30 374 50" fill="none" stroke="red" stroke-width="3" />
  </g>
  <g class="defect" id="03">
    <path d="M 192 264 Q 187 254 202 284" fill="none" stroke="red" stroke-width="3" />
  </g>
</svg>