<svg xmlns="http://www.w3.org/2000/svg" width="512" height="512" viewBox="0 0 512 512">
  <g class="glyph">
    <path d="M 111 17 Q 112 0 133 2 Q 159 6 179 22 Q 196 34 183 64 Q 162 111 128 167 Q 143 182 142 203 Q 141 270 141 402 Q 141 418 135 434 Q 128 451 119 458 Q 105 469 89 455 Q 67 434 70 396 Q 75 332 75 287 Q 76 242 71 223 Q 42 243 9 256 Q 2 256 1 254 Q 0 252 4 245 Q 66 153 97 67 Q 109 42 111 17 Z M 371 285 Q 376 284 380 283 Q 392 281 406 284 Q 416 287 423 291 Q 432 231 437 177 Q 438 161 461 166 Q 489 172 502 187 Q 512 198 506 230 Q 500 267 485 342 Q 481 360 467 374 Q 451 391 436 385 Q 415 378 419 337 Q 375 340 290 371 Q 278 380 231 386 Q 217 389 208 382 Q 193 367 187 347 Q 166 310 185 287 Q 190 244 183 223 Q 177 206 191 201 Q 215 192 243 205 Q 263 216 260 237 Q 257 269 253 301 Q 253 306 260 305 Q 280 302 297 298 Q 298 217 294 88 Q 293 51 291 35 Q 288 22 297 15 Q 305 8 319 10 Q 345 15 361 25 Q 378 34 379 47 Q 379 91 376 145 Q 372 210 371 285 Z" fill="black" />
  </g>
  <g class="defect" id="01">
    <path d="M 290 371 Q 278 380 231 386" fill="none" stroke="red" stroke-width="3" />
  </g>
  <g class="defect" id="02">
    <path d="M 187 347 Q 166 310 185 287" fill="none" stroke="red" stroke-width="3" />
  </g>
</svg>