<svg xmlns="http://www.w3.org/2000/svg" width="512" height="512" viewBox="0 0 512 512">
  <g class="glyph">
    <path d="M 330 266 Q 347 261 363 256 Q 379 251 390 252 Q 412 253 423 278 Q 429 292 426 301 Q 423 310 410 310 Q 369 310 318 319 Q 330 324 327 336 Q 334 335 349 329 Q 362 325 369 327 Q 394 336 401 340 Q 420 350 415 368 Q 386 461 347 499 Q 334 512 315 511 Q 297 511 285 496 Q 267 475 261 447 Q 260 443 261 441 Q 263 439 269 440 Q 281 444 293 449 Q 305 452 313 442 Q 334 414 341 376 Q 341 372 338 370 Q 334 368 329 369 Q 308 373 307 372 Q 294 393 263 423 Q 235 448 182 451 Q 172 453 166 450 Q 162 447 170 439 Q 213 401 254 337 Q 252 338 237 341 Q 219 346 204 335 Q 192 328 186 314 Q 183 307 185 304 Q 188 301 199 298 Q 259 286 282 279 Q 273 272 265 254 Q 263 247 266 244 Q 270 241 279 241 Q 326 238 330 266 Z M 264 8 Q 290 0 317 10 Q 339 19 338 44 Q 335 68 313 65 Q 298 62 288 51 Q 275 37 260 21 Q 253 12 264 8 Z M 87 114 Q 102 81 107 52 Q 110 34 128 38 Q 160 41 177 57 Q 193 72 181 94 Q 164 132 121 195 Q 135 210 135 233 Q 137 343 137 454 Q 136 470 128 480 Q 117 490 100 487 Q 77 481 73 455 Q 71 428 72 373 Q 74 296 71 244 Q 41 272 10 276 Q 18 296 2 275 Q 0 273 5 266 Q 46 210 87 114 Z M 232 152 Q 231 147 233 144 Q 234 143 240 142 Q 267 141 282 144 Q 290 146 292 156 Q 297 173 291 185 Q 287 197 272 196 Q 260 195 252 186 Q 235 167 232 152 Z M 367 113 Q 375 118 383 125 Q 399 140 384 152 Q 366 168 351 186 Q 397 175 430 172 Q 449 170 462 178 Q 480 189 489 203 Q 496 215 492 223 Q 488 232 469 237 Q 444 244 405 250 Q 397 251 395 249 Q 377 246 396 242 Q 399 237 402 231 Q 404 228 403 225 Q 403 222 399 222 Q 327 230 260 241 Q 241 245 221 249 Q 210 249 204 240 Q 202 263 196 278 Q 186 301 168 296 Q 156 293 149 279 Q 141 264 154 230 Q 165 208 174 195 Q 178 186 181 185 Q 186 182 192 188 Q 201 197 201 209 Q 247 203 304 193 Q 319 165 332 119 Q 317 122 283 127 Q 242 134 225 125 Q 212 119 207 113 Q 203 106 206 103 Q 208 100 214 99 Q 261 86 307 73 Q 366 57 373 56 Q 385 55 395 58 Q 405 59 410 68 Q 415 76 413 85 Q 407 104 369 113 Q 368 113 367 113 Z" fill="black" />
  </g>
  <g class="defect" id="01">
    <path d="M 395 249 Q 377 246 396 242" fill="none" stroke="red" stroke-width="3" />
  </g>
  <g class="defect" id="02">
    <path d="M 10 276 Q 18 296 2 275" fill="none" stroke="red" stroke-width="3" />
  </g>
  <g class="defect" id="03">
    <path d="M 170 439 Q 213 401 254 337" fill="none" stroke="red" stroke-width="3" />
  </g>
</svg>