<svg xmlns="http://www.w3.org/2000/svg" width="512" height="512" viewBox="0 0 512 512">
  <g class="glyph">
    <path d="M 20 115 Q 51 109 76 117 Q 95 123 101 144 Q 106 162 102 184 Q 97 205 78 207 Q 59 208 49 190 Q 46 185 12 130 Q 8 123 9 120 Q 11 117 20 115 Z M 81 283 Q 86 278 89 279 Q 93 281 94 292 Q 96 312 89 343 Q 81 377 69 399 Q 63 412 54 417 Q 45 421 31 412 Q 14 402 9 381 Q 0 352 23 338 Q 30 335 43 323 Q 53 314 81 283 Z M 305 214 307 216 Q 335 245 380 276 Q 453 327 502 352 Q 511 356 510 361 Q 509 365 501 370 Q 468 393 443 402 Q 426 408 410 402 Q 398 398 381 385 Q 340 353 302 287 Q 302 321 303 398 Q 304 441 297 467 Q 290 496 267 504 Q 245 512 224 494 Q 199 473 184 449 Q 176 437 177 434 Q 179 430 191 431 Q 201 432 212 433 Q 220 435 224 431 Q 227 427 228 415 Q 230 364 230 277 Q 194 333 188 361 Q 152 408 90 420 Q 82 422 82 419 Q 81 417 88 409 Q 114 377 137 340 Q 164 295 177 257 Q 169 255 161 259 Q 145 268 132 263 Q 121 260 111 248 Q 102 237 98 223 Q 96 216 97 213 Q 98 210 106 209 Q 167 216 195 184 Q 205 179 212 184 Q 221 190 229 195 Q 228 161 226 107 Q 222 41 217 23 Q 214 12 220 6 Q 225 0 235 0 Q 270 0 291 11 Q 289 15 305 22 Q 311 31 311 48 Q 311 96 307 153 Q 306 171 305 188 Q 335 150 350 108 Q 356 93 384 101 Q 414 109 428 125 Q 442 140 428 157 Q 403 188 352 203 Q 336 207 305 214 Z" fill="black" />
  </g>
  <g class="defect" id="01">
    <path d="M 230 277 Q 194 333 188 361" fill="none" stroke="red" stroke-width="3" />
  </g>
  <g class="defect" id="02">
    <path d="M 291 11 Q 289 15 305 22" fill="none" stroke="red" stroke-width="3" />
  </g>
  <g class="defect" id="03">
    <path d="M 106 209 Q 167 216 195 184" fill="none" stroke="red" stroke-width="3" />
  </g>
</svg>