<svg xmlns="http://www.w3.org/2000/svg" width="512" height="512" viewBox="0 0 512 512">
  <g class="glyph">
    <path d="M 386 9 Q 385 0 395 0 Q 435 0 456 15 Q 472 27 470 44 Q 463 139 464 236 Q 466 329 466 422 Q 466 457 461 474 Q 456 497 435 504 Q 415 512 398 498 Q 368 474 351 442 Q 347 434 348 431 Q 349 428 354 430 Q 368 433 383 436 Q 388 437 391 435 Q 394 433 394 430 Q 394 321 394 212 Q 394 182 393 121 Q 390 49 386 9 Z M 299 123 Q 327 123 348 134 Q 360 140 363 148 Q 368 158 366 179 Q 363 221 362 232 Q 362 260 361 286 Q 343 307 345 320 Q 331 330 318 320 Q 301 305 298 281 Q 298 224 294 154 Q 293 142 292 129 Q 293 124 299 123 Z M 251 398 Q 244 381 235 364 Q 224 340 214 324 Q 211 319 212 317 Q 214 314 218 314 Q 244 312 268 321 Q 285 327 293 335 Q 301 343 304 355 Q 307 370 304 384 Q 300 399 289 407 Q 278 415 268 414 Q 257 412 251 398 Z M 101 332 Q 105 330 108 332 Q 109 333 109 338 Q 109 366 105 389 Q 99 417 90 431 Q 82 444 69 443 Q 58 443 49 431 Q 39 418 37 400 Q 35 381 42 373 Q 67 345 101 332 Z M 213 123 Q 245 145 247 164 Q 249 179 245 193 Q 239 213 217 210 Q 205 207 194 198 Q 183 190 163 174 Q 138 197 112 210 Q 69 233 24 234 Q 14 233 18 227 Q 70 182 112 133 Q 103 125 47 84 Q 44 81 44 78 Q 45 75 49 73 Q 79 61 104 69 Q 124 75 149 87 Q 167 58 183 25 Q 189 8 202 12 Q 227 17 242 29 Q 261 46 245 77 Q 235 97 213 123 Z M 205 289 Q 205 409 204 433 Q 204 455 197 471 Q 198 507 171 501 Q 148 506 128 488 Q 111 473 100 445 Q 99 440 101 438 Q 102 436 106 437 Q 118 440 127 441 Q 132 443 133 441 Q 135 439 135 431 Q 138 391 138 304 Q 125 308 108 314 Q 81 326 71 329 Q 45 337 27 325 Q 13 314 6 297 Q 0 284 14 281 Q 56 263 68 267 Q 98 258 128 250 Q 133 248 138 247 Q 135 225 131 215 Q 127 201 145 200 Q 174 198 191 210 Q 202 218 205 232 Q 218 230 244 227 Q 262 225 274 235 Q 286 247 291 265 Q 294 288 271 286 Q 237 283 205 289 Z" fill="black" />
  </g>
  <g class="defect" id="01">
    <path d="M 14 281 Q 56 263 68 267" fill="none" stroke="red" stroke-width="3" />
  </g>
  <g class="defect" id="02">
    <path d="M 197 471 Q 198 507 171 501" fill="none" stroke="red" stroke-width="3" />
  </g>
  <g class="defect" id="03">
    <path d="M 361 286 Q 343 307 345 320" fill="none" stroke="red" stroke-width="3" />
  </g>
</svg>