<svg xmlns="http://www.w3.org/2000/svg" width="512" height="512" viewBox="0 0 512 512">
  <g class="glyph">
    <path d="M 65 113 Q 81 113 93 116 Q 113 120 117 151 Q 100 166 114 180 Q 110 196 98 200 Q 87 204 76 193 Q 66 183 46 159 Q 34 145 22 131 Q 18 123 26 120 Q 43 114 65 113 Z M 108 249 Q 113 248 114 253 Q 117 274 95 343 Q 80 390 59 410 Q 47 422 31 412 Q 14 402 5 376 Q 0 360 2 344 Q 20 332 8 331 Q 15 330 18 327 Q 63 288 108 249 Z M 324 266 Q 339 278 328 310 Q 318 349 318 378 Q 318 402 347 407 Q 385 412 420 406 Q 443 402 449 382 Q 457 358 464 335 Q 465 331 467 331 Q 469 331 471 335 Q 490 369 501 411 Q 512 455 476 469 Q 453 482 415 487 Q 384 491 350 486 Q 310 479 286 463 Q 268 451 260 435 Q 251 417 253 391 Q 271 352 266 280 Q 242 289 231 294 Q 236 296 239 298 Q 257 309 247 337 Q 229 384 194 421 Q 156 462 110 475 Q 102 477 98 474 Q 94 471 100 464 Q 161 388 178 316 Q 159 325 144 313 Q 126 300 117 272 Q 114 263 125 261 Q 139 259 161 253 Q 197 241 239 231 Q 239 219 240 195 H 239 Q 228 195 215 192 Q 208 191 193 187 Q 167 216 143 225 Q 135 229 130 226 Q 126 224 128 218 Q 144 170 154 133 Q 159 112 158 99 Q 158 92 164 89 Q 171 85 180 86 Q 195 89 215 98 Q 229 105 225 126 Q 224 133 219 143 Q 234 140 241 138 Q 242 88 242 64 Q 242 37 240 15 Q 241 4 251 3 Q 272 0 299 9 Q 331 18 322 61 Q 316 88 313 120 Q 327 117 341 114 Q 356 111 369 116 Q 383 120 388 130 Q 395 144 386 157 Q 378 168 360 174 Q 345 181 311 186 Q 309 206 309 215 Q 331 210 366 204 Q 386 200 395 207 Q 419 221 422 251 Q 424 267 400 266 Q 343 264 324 266 Z" fill="black" />
  </g>
  <g class="defect" id="01">
    <path d="M 117 151 Q 100 166 114 180" fill="none" stroke="red" stroke-width="3" />
  </g>
  <g class="defect" id="02">
    <path d="M 2 344 Q 20 332 8 331" fill="none" stroke="red" stroke-width="3" />
  </g>
  <g class="defect" id="03">
    <path d="M 253 391 Q 271 352 266 280" fill="none" stroke="red" stroke-width="3" />
  </g>
</svg>