<svg xmlns="http://www.w3.org/2000/svg" width="512" height="512" viewBox="0 0 512 512">
  <g class="glyph">
    <path d="M 321 26 Q 320 14 321 11 Q 322 3 331 2 Q 360 0 396 17 Q 416 32 414 58 Q 408 112 409 166 Q 439 165 449 167 Q 470 170 481 186 Q 493 206 495 233 Q 496 245 492 253 Q 486 262 475 257 Q 438 244 409 241 Q 411 333 410 355 Q 410 388 409 422 Q 408 456 403 485 Q 400 499 391 506 Q 382 512 371 511 Q 351 510 344 492 Q 336 464 334 426 Q 334 426 332 355 Q 332 296 331 235 Q 314 233 286 235 Q 288 291 287 318 Q 286 385 268 409 Q 252 427 233 411 Q 220 396 216 371 Q 199 354 213 325 Q 213 258 212 245 Q 192 249 179 253 Q 177 276 177 299 Q 176 322 170 344 Q 161 381 135 409 Q 108 438 72 448 Q 58 451 55 446 Q 52 441 61 431 Q 103 371 104 289 Q 84 297 79 299 Q 61 304 52 300 Q 24 289 3 246 Q 0 240 2 236 Q 3 231 10 230 Q 90 213 104 209 Q 106 183 100 138 Q 99 109 90 83 Q 87 74 88 68 Q 89 61 98 60 Q 137 59 159 70 Q 175 77 177 103 Q 180 148 179 193 Q 192 191 211 187 Q 212 125 206 83 Q 205 72 209 66 Q 215 59 224 61 Q 256 64 277 79 Q 289 89 289 118 Q 289 146 289 173 Q 318 170 331 170 Q 329 86 321 26 Z" fill="black" />
  </g>
  <g class="defect" id="01">
    <path d="M 216 371 Q 199 354 213 325" fill="none" stroke="red" stroke-width="3" />
  </g>
</svg>