<svg xmlns="http://www.w3.org/2000/svg" width="512" height="512" viewBox="0 0 512 512">
  <g class="glyph">
    <path d="M 6 31 Q 2 21 6 13 Q 10 4 21 3 Q 48 0 90 18 Q 109 26 116 52 Q 122 75 117 102 Q 112 132 102 236 Q 196 161 242 73 Q 266 36 272 50 Q 297 48 318 54 Q 342 61 353 78 Q 370 102 343 129 Q 289 178 230 220 Q 170 263 100 277 Q 95 311 95 341 Q 95 395 130 400 Q 183 409 221 407 Q 267 406 337 390 Q 382 365 382 344 Q 393 316 405 287 Q 407 282 412 284 Q 418 285 420 289 Q 438 348 446 378 Q 459 417 442 442 Q 420 471 378 481 Q 336 491 301 494 Q 170 512 78 481 Q 43 469 23 442 Q 6 416 4 378 Q 0 282 14 129 Q 19 60 6 31 Z" fill="black" />
  </g>
  <g class="defect" id="01">
    <path d="M 337 390 Q 382 365 382 344" fill="none" stroke="red" stroke-width="3" />
  </g>
  <g class="defect" id="02">
    <path d="M 242 73 Q 266 36 272 50" fill="none" stroke="red" stroke-width="3" />
  </g>
</svg>