<svg xmlns="http://www.w3.org/2000/svg" width="512" height="512" viewBox="0 0 512 512">
  <g class="glyph">
    <path d="M 259 318 Q 270 344 247 365 Q 225 384 197 402 Q 293 396 319 393 Q 316 387 303 352 Q 300 343 302 340 Q 304 337 315 338 Q 352 341 401 382 Q 421 399 422 426 Q 423 453 406 473 Q 384 498 370 483 Q 345 460 336 434 Q 216 455 143 483 Q 115 497 103 483 Q 92 475 84 455 Q 79 441 79 434 Q 80 423 90 416 Q 96 411 106 405 Q 113 393 128 388 Q 146 371 177 332 Q 110 343 73 358 Q 56 366 36 351 Q 17 336 4 306 Q 0 295 3 291 Q 6 285 18 284 Q 73 280 145 268 Q 144 153 143 37 Q 143 18 167 18 Q 186 19 204 21 Q 261 14 285 7 Q 308 0 322 6 Q 348 14 362 23 Q 385 36 382 64 Q 372 153 370 252 Q 418 249 475 251 Q 491 252 500 273 Q 510 294 511 320 Q 512 330 506 334 Q 501 339 493 336 Q 385 306 259 318 Z M 297 76 Q 296 68 294 66 Q 291 63 284 64 Q 239 65 225 73 Q 217 75 216 83 Q 216 92 216 101 Q 243 95 258 97 Q 275 101 283 118 Q 289 130 280 140 Q 260 153 216 158 V 182 Q 248 177 268 181 Q 286 187 288 202 Q 289 218 272 228 Q 261 234 243 236 Q 242 236 216 237 V 260 Q 261 258 302 253 Q 300 132 297 76 Z" fill="black" />
  </g>
  <g class="defect" id="01">
    <path d="M 106 405 Q 113 393 128 388" fill="none" stroke="red" stroke-width="3" />
  </g>
  <g class="defect" id="02">
    <path d="M 284 64 Q 239 65 225 73" fill="none" stroke="red" stroke-width="3" />
  </g>
</svg>