<svg xmlns="http://www.w3.org/2000/svg" width="512" height="512" viewBox="0 0 512 512">
  <g class="glyph">
    <path d="M 350 334 Q 424 378 505 410 Q 512 413 511 419 Q 511 424 504 429 Q 463 454 421 467 Q 397 475 379 463 Q 359 451 340 433 Q 334 428 306 398 Q 277 428 238 441 Q 195 454 156 446 Q 148 445 147 441 Q 147 437 153 434 Q 215 407 260 344 Q 234 310 223 299 Q 201 273 182 258 Q 177 255 178 251 Q 179 248 184 247 Q 218 239 249 260 Q 257 265 291 290 Q 309 251 317 199 Q 320 186 340 190 Q 380 183 378 216 Q 386 227 384 240 Q 375 282 350 334 Z M 332 20 Q 334 0 356 3 Q 372 6 389 16 Q 403 25 402 40 Q 401 51 394 76 Q 409 74 424 71 Q 438 69 447 78 Q 464 97 467 130 Q 467 140 462 145 Q 457 150 450 148 Q 410 139 370 139 Q 359 156 350 167 Q 336 179 321 171 Q 308 161 311 145 Q 300 129 266 156 Q 269 183 251 200 Q 240 208 229 197 Q 211 193 211 173 Q 174 180 156 155 Q 149 147 153 138 Q 156 130 165 127 Q 177 122 200 117 Q 197 92 187 54 Q 184 42 190 36 Q 196 29 214 30 Q 243 31 257 58 Q 262 68 265 100 Q 304 93 318 90 Q 326 59 332 20 Z M 93 222 Q 93 217 91 215 Q 89 213 85 214 Q 76 217 69 221 Q 63 224 63 233 Q 66 248 74 262 Q 85 258 89 255 Q 93 234 93 222 Z M 100 151 Q 113 144 120 144 Q 128 144 145 153 Q 159 160 165 170 Q 169 179 167 190 Q 160 217 147 259 Q 152 272 152 279 Q 152 297 136 306 Q 124 312 102 317 Q 86 322 71 333 Q 57 344 42 334 Q 12 315 7 273 Q 2 234 1 193 Q 0 183 6 176 Q 11 169 23 169 Q 67 167 100 151 Z" fill="black" />
  </g>
  <g class="defect" id="01">
    <path d="M 340 190 Q 380 183 378 216" fill="none" stroke="red" stroke-width="3" />
  </g>
  <g class="defect" id="02">
    <path d="M 311 145 Q 300 129 266 156" fill="none" stroke="red" stroke-width="3" />
  </g>
  <g class="defect" id="03">
    <path d="M 229 197 Q 211 193 211 173" fill="none" stroke="red" stroke-width="3" />
  </g>
</svg>