<svg xmlns="http://www.w3.org/2000/svg" width="512" height="512" viewBox="0 0 512 512">
  <g class="glyph">
    <path d="M 341 279 Q 409 273 452 272 Q 470 270 481 281 Q 506 307 499 344 Q 496 352 485 350 Q 430 339 413 336 Q 373 331 340 334 Q 334 465 311 499 Q 321 511 299 511 Q 294 512 290 502 Q 268 430 272 342 Q 233 349 183 365 Q 169 369 157 356 Q 140 341 133 325 Q 129 317 132 313 Q 134 309 144 309 Q 204 301 271 289 Q 270 272 269 254 Q 268 248 273 245 Q 278 241 284 242 Q 304 242 316 246 Q 344 253 341 279 Z M 98 189 Q 98 184 96 182 Q 94 179 89 180 Q 82 182 73 183 Q 61 185 63 197 Q 65 216 72 227 Q 89 228 96 218 Q 98 205 98 189 Z M 34 141 Q 59 153 88 133 Q 110 122 130 129 Q 155 138 163 148 Q 173 160 164 179 Q 148 217 144 235 Q 152 261 128 267 Q 86 276 67 285 Q 58 289 46 286 Q 33 284 28 276 Q 7 242 3 188 Q 0 170 8 156 Q 17 141 34 141 Z M 292 179 Q 275 220 225 259 Q 211 271 192 259 Q 176 249 177 213 Q 180 129 174 52 Q 174 43 180 41 Q 202 38 228 45 Q 245 50 244 63 Q 243 84 242 95 Q 254 92 264 90 Q 281 86 289 102 Q 297 122 280 132 Q 267 140 240 141 Q 238 160 238 186 Q 239 191 246 190 Q 263 183 283 173 Q 288 171 291 173 Q 294 175 292 179 Z M 350 13 Q 365 23 361 43 Q 358 66 355 98 Q 382 73 391 58 Q 402 42 415 52 Q 428 62 438 77 Q 446 89 430 98 Q 389 121 353 133 Q 349 153 353 173 Q 358 191 377 192 Q 392 194 415 187 Q 428 185 435 172 Q 439 166 446 143 Q 448 135 451 134 Q 456 133 459 142 Q 471 196 475 211 Q 478 236 457 243 Q 391 266 333 247 Q 319 242 308 226 Q 298 209 298 194 Q 298 104 295 23 Q 295 15 296 13 Q 297 9 302 7 Q 327 0 350 13 Z" fill="black" />
  </g>
  <g class="defect" id="01">
    <path d="M 34 141 Q 59 153 88 133" fill="none" stroke="red" stroke-width="3" />
  </g>
  <g class="defect" id="02">
    <path d="M 311 499 Q 321 511 299 511" fill="none" stroke="red" stroke-width="3" />
  </g>
</svg>