<svg xmlns="http://www.w3.org/2000/svg" width="512" height="512" viewBox="0 0 512 512">
  <g class="glyph">
    <path d="M 288 157 Q 259 180 261 201 Q 270 264 258 332 Q 251 374 222 397 Q 201 413 180 393 Q 163 375 145 348 Q 141 342 143 338 Q 145 335 153 336 Q 169 340 179 339 Q 196 340 199 326 Q 207 286 207 258 Q 182 283 147 306 Q 129 319 117 308 Q 101 290 91 263 Q 86 253 98 249 Q 140 236 204 195 Q 200 159 182 135 Q 177 129 180 125 Q 184 120 195 119 Q 208 104 230 59 Q 230 57 230 57 Q 229 56 227 57 Q 198 77 168 98 Q 155 106 143 99 Q 133 94 126 82 Q 120 72 116 59 Q 112 51 122 49 Q 179 35 234 10 Q 242 6 250 8 Q 291 18 296 33 Q 299 41 298 44 Q 297 47 293 53 Q 264 92 229 126 Q 247 143 253 167 Q 277 151 279 149 Q 285 145 288 148 Q 290 152 288 157 Z M 101 98 Q 114 93 122 96 Q 144 103 152 110 Q 166 123 159 140 Q 150 162 145 191 Q 153 200 148 211 Q 143 223 131 224 Q 100 230 85 234 Q 94 239 69 246 Q 57 253 41 244 Q 16 227 7 191 Q 0 159 8 127 Q 15 108 35 111 Q 69 111 101 98 Z M 94 150 Q 94 148 93 147 Q 93 147 91 148 Q 80 151 64 155 Q 53 159 56 171 Q 60 184 66 190 Q 82 189 88 184 Q 97 177 94 150 Z M 314 4 Q 331 0 351 6 Q 373 13 381 27 Q 387 37 383 52 Q 358 183 367 297 Q 368 304 373 310 Q 378 316 384 317 Q 414 319 445 306 Q 458 300 464 289 Q 470 277 475 254 Q 477 245 481 244 Q 484 243 490 253 Q 512 290 508 330 Q 506 349 484 362 Q 456 379 416 382 Q 377 385 347 374 Q 310 359 306 321 Q 296 195 308 13 Q 309 7 314 4 Z" fill="black" />
  </g>
  <g class="defect" id="01">
    <path d="M 288 157 Q 259 180 261 201" fill="none" stroke="red" stroke-width="3" />
  </g>
  <g class="defect" id="02">
    <path d="M 85 234 Q 94 239 69 246" fill="none" stroke="red" stroke-width="3" />
  </g>
</svg>