<svg xmlns="http://www.w3.org/2000/svg" width="512" height="512" viewBox="0 0 512 512">
  <g class="glyph">
    <path d="M 103 189 Q 103 185 97 187 Q 76 192 61 203 Q 63 222 70 238 Q 78 242 88 237 Q 99 232 102 225 Q 105 204 103 189 Z M 95 130 Q 118 115 147 129 Q 174 141 167 170 Q 164 209 156 238 Q 164 252 156 266 Q 149 278 137 280 Q 106 286 88 297 Q 84 305 73 308 Q 64 310 55 307 Q 21 296 10 248 Q 0 207 5 171 Q 6 162 12 156 Q 19 149 28 149 Q 43 151 58 147 Q 75 141 95 130 Z M 395 230 Q 395 247 394 256 Q 409 255 415 259 Q 427 272 418 286 Q 413 293 392 300 Q 391 311 391 321 Q 391 327 390 329 Q 401 330 412 330 Q 425 332 424 349 Q 423 366 410 371 Q 400 374 382 377 Q 370 419 349 448 Q 328 479 307 483 Q 298 484 297 483 Q 295 481 300 472 Q 333 409 337 310 Q 338 277 341 210 Q 341 191 356 189 Q 363 188 377 189 Q 383 191 387 192 Q 407 188 424 180 Q 439 174 464 184 Q 487 193 487 212 Q 487 332 487 452 Q 483 478 472 491 Q 452 512 428 496 Q 411 482 397 456 Q 388 442 391 439 Q 393 436 409 439 Q 424 443 425 429 Q 429 305 423 233 Q 422 225 414 227 Q 408 228 395 230 Z M 341 99 Q 343 98 346 98 Q 364 96 384 100 Q 386 75 387 49 Q 387 34 398 36 Q 427 39 439 45 Q 457 53 453 74 Q 427 105 442 130 Q 437 148 419 155 Q 407 160 396 153 Q 388 149 382 140 Q 299 146 225 177 Q 210 183 200 174 Q 191 166 186 153 Q 180 141 183 122 Q 189 82 188 58 Q 187 52 190 48 Q 193 45 201 46 Q 231 48 242 63 Q 247 70 247 88 Q 247 100 241 116 Q 262 111 279 109 Q 280 75 277 19 Q 277 7 283 3 Q 288 0 298 2 Q 329 5 343 20 Q 352 28 350 44 Q 346 73 341 99 Z M 220 237 Q 220 249 220 261 Q 226 262 232 265 Q 243 270 243 282 Q 244 294 234 299 Q 226 302 218 305 Q 218 311 216 323 Q 225 323 234 326 Q 246 332 244 347 Q 242 362 233 364 Q 222 365 210 365 Q 193 434 120 466 Q 107 473 104 470 Q 101 467 110 457 Q 161 397 166 323 Q 170 260 167 219 Q 167 202 181 201 Q 193 200 205 203 Q 227 196 249 188 Q 271 180 292 191 Q 302 196 305 201 Q 307 207 306 223 Q 301 323 301 388 Q 301 436 291 466 Q 269 489 276 479 Q 265 482 255 475 Q 237 464 219 428 Q 212 414 215 411 Q 217 409 233 413 Q 248 416 250 401 Q 253 311 248 242 Q 247 229 235 233 Q 228 235 220 237 Z" fill="black" />
  </g>
  <g class="defect" id="01">
    <path d="M 453 74 Q 427 105 442 130" fill="none" stroke="red" stroke-width="3" />
  </g>
  <g class="defect" id="02">
    <path d="M 291 466 Q 269 489 276 479" fill="none" stroke="red" stroke-width="3" />
  </g>
</svg>