<svg xmlns="http://www.w3.org/2000/svg" width="512" height="512" viewBox="0 0 512 512">
  <g class="glyph">
    <path d="M 308 223 Q 292 228 279 221 Q 296 246 275 246 Q 291 236 305 252 Q 319 266 332 281 Q 344 243 351 216 Q 352 213 350 212 Q 349 211 346 212 Q 327 218 308 223 Z M 286 96 V 98 Q 286 104 284 177 Q 325 166 369 152 Q 380 148 396 152 Q 416 157 436 169 Q 447 175 440 196 Q 417 276 384 331 Q 431 369 503 403 Q 512 406 511 412 Q 511 418 502 421 Q 467 439 422 452 Q 392 462 374 446 Q 357 430 328 396 Q 280 433 221 430 Q 208 429 207 425 Q 207 421 217 417 Q 242 402 264 382 Q 286 360 295 342 Q 276 309 263 290 Q 256 336 223 373 Q 189 412 135 431 Q 119 437 118 433 Q 116 430 128 417 Q 193 345 206 246 Q 211 190 211 102 Q 211 81 221 79 Q 222 79 244 76 Q 301 36 333 12 Q 349 0 372 6 Q 395 12 401 26 Q 409 42 392 55 Q 348 86 286 96 Z M 143 153 Q 170 148 184 161 Q 203 182 165 204 Q 154 211 141 216 Q 140 250 138 282 Q 157 271 170 262 Q 190 248 178 272 Q 134 363 67 425 Q 49 441 33 428 Q 16 415 5 389 Q 0 378 2 372 Q 3 367 10 364 Q 52 342 74 322 Q 56 263 74 230 Q 33 229 27 214 Q 17 207 20 201 Q 23 194 35 189 Q 53 182 73 176 Q 71 114 67 43 Q 66 25 80 23 Q 113 19 134 35 Q 148 44 147 65 Q 145 109 143 153 Z" fill="black" />
  </g>
  <g class="defect" id="01">
    <path d="M 74 322 Q 56 263 74 230" fill="none" stroke="red" stroke-width="3" />
  </g>
  <g class="defect" id="02">
    <path d="M 74 230 Q 33 229 27 214" fill="none" stroke="red" stroke-width="3" />
  </g>
  <g class="defect" id="03">
    <path d="M 279 221 Q 296 246 275 246" fill="none" stroke="red" stroke-width="3" />
  </g>
</svg>