<svg xmlns="http://www.w3.org/2000/svg" width="512" height="512" viewBox="0 0 512 512">
  <g class="glyph">
    <path d="M 63 151 Q 62 113 58 25 Q 57 8 71 9 Q 109 14 123 27 Q 134 37 133 55 Q 131 96 129 138 Q 142 137 151 147 Q 159 155 158 166 Q 156 189 126 201 Q 125 220 127 278 Q 151 265 154 264 Q 148 280 162 264 Q 164 266 161 272 Q 135 326 122 347 Q 101 381 72 411 Q 50 434 29 417 Q 12 404 2 370 Q 0 362 7 358 Q 35 341 63 323 Q 63 266 61 217 Q 49 218 36 211 Q 21 205 16 195 Q 8 180 21 171 Q 26 168 63 151 Z M 368 1 Q 442 5 436 46 Q 425 108 417 167 Q 428 164 440 162 Q 476 160 501 182 Q 511 190 512 204 Q 512 205 510 230 Q 499 331 487 379 Q 474 431 451 458 Q 439 472 426 474 Q 411 477 399 465 Q 379 449 355 412 Q 352 408 354 404 Q 356 401 361 402 Q 374 403 387 404 Q 405 404 409 391 Q 429 324 434 232 Q 435 224 433 222 Q 431 220 425 222 Q 411 226 406 230 Q 388 339 351 396 Q 311 460 240 470 Q 232 472 231 468 Q 230 464 236 458 Q 333 370 337 240 Q 312 235 301 212 Q 297 203 308 198 Q 326 192 343 185 Q 356 88 355 14 Q 356 0 368 1 Z M 310 161 Q 317 171 310 185 Q 259 275 223 319 Q 243 310 263 301 Q 259 284 259 281 Q 260 268 274 271 Q 296 276 311 301 Q 317 311 316 325 Q 314 338 307 348 Q 294 364 284 355 Q 286 343 270 333 Q 242 364 198 389 Q 180 399 168 390 Q 154 381 151 351 Q 150 342 155 334 Q 160 327 166 320 Q 188 293 200 272 Q 171 260 155 245 Q 138 228 155 208 Q 198 136 209 37 Q 211 24 223 28 Q 235 31 247 34 Q 260 38 269 46 Q 295 35 279 61 Q 279 66 276 79 Q 269 105 251 140 Q 247 148 210 214 Q 217 221 224 228 Q 247 179 255 152 Q 258 139 272 143 Q 302 151 310 161 Z" fill="black" />
  </g>
  <g class="defect" id="01">
    <path d="M 154 264 Q 148 280 162 264" fill="none" stroke="red" stroke-width="3" />
  </g>
  <g class="defect" id="02">
    <path d="M 284 355 Q 286 343 270 333" fill="none" stroke="red" stroke-width="3" />
  </g>
  <g class="defect" id="03">
    <path d="M 269 46 Q 295 35 279 61" fill="none" stroke="red" stroke-width="3" />
  </g>
</svg>