<svg xmlns="http://www.w3.org/2000/svg" width="512" height="512" viewBox="0 0 512 512">
  <g class="glyph">
    <path d="M 427 375 Q 423 365 425 363 Q 427 360 436 360 Q 474 363 501 385 Q 509 392 511 405 Q 512 416 508 428 Q 503 446 490 454 Q 472 466 464 451 Q 442 410 427 375 Z M 327 385 Q 326 379 328 375 Q 330 372 337 371 Q 368 369 387 385 Q 401 398 393 419 Q 389 434 378 440 Q 364 449 353 436 Q 334 408 327 385 Z M 160 391 Q 168 384 171 385 Q 175 385 178 394 Q 191 449 161 479 Q 147 493 132 481 Q 120 470 117 450 Q 114 435 124 425 Q 138 408 160 391 Z M 229 395 Q 228 388 230 385 Q 233 383 239 383 Q 273 384 287 400 Q 300 412 294 431 Q 289 448 275 455 Q 262 462 252 450 Q 237 426 229 395 Z M 234 103 Q 231 96 234 92 Q 236 89 244 88 Q 257 87 267 97 Q 278 109 266 127 Q 257 139 246 126 Q 241 118 234 103 Z M 345 76 Q 348 68 359 68 Q 368 68 377 77 Q 369 65 380 93 Q 368 110 347 121 Q 341 124 339 122 Q 337 120 338 111 Q 328 110 345 76 Z M 105 181 Q 106 176 105 175 Q 104 173 100 174 Q 80 176 68 184 Q 66 197 68 208 Q 70 220 77 222 Q 89 226 101 214 Q 103 206 105 181 Z M 109 116 Q 135 107 160 123 Q 180 136 173 164 Q 172 168 159 230 Q 166 248 159 257 Q 152 267 128 269 Q 91 273 82 280 Q 55 300 36 287 Q 16 275 8 227 Q 0 182 10 154 Q 19 125 50 131 Q 66 128 109 116 Z M 334 148 Q 355 146 365 145 Q 372 136 380 109 Q 386 85 388 65 Q 391 49 380 48 Q 352 48 323 54 Q 334 56 334 70 Q 334 109 334 148 Z M 334 192 V 218 Q 343 216 352 214 Q 391 206 405 235 Q 412 249 406 257 Q 400 265 380 269 Q 364 273 334 278 Q 333 284 333 294 Q 388 286 429 282 Q 449 278 457 292 Q 470 307 471 325 Q 472 335 467 339 Q 462 342 452 341 Q 399 338 337 345 Q 281 350 230 371 Q 204 381 192 375 Q 167 364 160 336 Q 159 328 162 325 Q 166 322 173 322 Q 195 321 223 316 Q 263 308 278 305 V 284 Q 263 285 257 285 Q 232 286 216 269 Q 208 259 208 253 Q 208 247 216 245 Q 242 238 278 230 V 203 Q 273 204 269 206 Q 259 220 236 212 Q 199 200 182 145 Q 169 101 172 48 Q 174 32 190 25 Q 205 19 223 23 Q 326 5 379 3 Q 415 0 442 15 Q 475 34 464 70 Q 447 121 416 178 Q 411 191 400 194 Q 388 197 363 191 Q 351 191 334 192 Z M 277 157 Q 275 101 271 60 Q 251 61 223 70 Q 225 94 232 123 Q 228 168 250 164 Q 263 159 277 157 Z" fill="black" />
  </g>
  <g class="defect" id="01">
    <path d="M 338 111 Q 328 110 345 76" fill="none" stroke="red" stroke-width="3" />
  </g>
  <g class="defect" id="02">
    <path d="M 377 77 Q 369 65 380 93" fill="none" stroke="red" stroke-width="3" />
  </g>
  <g class="defect" id="03">
    <path d="M 232 123 Q 228 168 250 164" fill="none" stroke="red" stroke-width="3" />
  </g>
</svg>