<svg xmlns="http://www.w3.org/2000/svg" width="512" height="512" viewBox="0 0 512 512">
  <g class="glyph">
    <path d="M 265 300 Q 265 290 265 288 Q 254 290 242 293 Q 238 294 238 297 Q 237 303 238 307 Q 260 301 265 300 Z M 313 292 Q 330 288 339 294 Q 340 286 340 278 Q 340 273 335 274 Q 327 275 314 278 Q 313 282 313 292 Z M 311 384 Q 312 388 313 398 Q 316 419 334 421 Q 340 422 382 417 Q 398 413 406 395 Q 412 381 417 366 Q 420 361 424 360 Q 428 360 431 366 Q 450 398 453 425 Q 461 477 386 484 Q 325 490 288 471 Q 252 455 257 404 Q 258 399 258 393 L 256 394 Q 242 405 229 403 Q 215 401 207 385 Q 191 351 188 310 Q 164 344 139 347 Q 129 348 126 345 Q 124 341 128 332 Q 192 225 215 145 Q 205 141 195 139 Q 184 135 176 129 Q 168 123 167 116 Q 166 109 173 108 Q 204 101 235 95 Q 244 61 250 12 Q 252 0 265 2 Q 299 5 313 16 Q 326 27 322 43 Q 339 60 313 72 Q 369 61 388 75 Q 400 84 398 99 Q 395 112 381 118 Q 370 122 337 131 Q 367 161 414 186 Q 444 201 502 223 Q 512 227 512 231 Q 511 235 503 241 Q 477 258 448 270 Q 432 278 415 269 Q 394 256 375 238 Q 346 211 286 145 Q 267 188 229 249 Q 244 245 259 241 Q 260 238 257 215 Q 255 193 271 193 Q 294 192 307 197 Q 320 203 318 220 Q 317 229 317 232 Q 328 229 338 230 Q 364 230 386 255 Q 401 271 393 298 Q 389 310 384 322 Q 380 334 380 345 Q 387 359 378 371 Q 368 383 354 384 Q 340 383 327 381 Q 317 383 311 384 Z M 310 351 Q 319 349 327 347 Q 330 340 333 322 Q 334 321 334 319 Q 321 319 312 325 Q 310 342 310 351 Z M 261 361 Q 262 353 263 338 Q 254 337 239 323 Q 242 347 248 362 Q 254 361 261 361 Z M 133 244 Q 151 235 167 225 Q 175 221 178 225 Q 181 229 176 236 Q 132 300 65 352 Q 48 365 28 353 Q 10 343 5 330 Q 0 318 10 313 Q 30 302 75 277 Q 81 230 80 205 Q 47 204 32 185 Q 28 180 28 176 Q 29 170 36 168 Q 62 162 81 153 Q 79 93 72 50 Q 70 27 89 24 Q 120 21 140 38 Q 152 48 147 77 Q 146 109 144 140 Q 153 138 164 144 Q 174 150 177 158 Q 182 169 171 179 Q 161 188 138 198 Q 134 230 133 244 Z" fill="black" />
  </g>
  <g class="defect" id="01">
    <path d="M 322 43 Q 339 60 313 72" fill="none" stroke="red" stroke-width="3" />
  </g>
  <g class="defect" id="02">
    <path d="M 334 421 Q 340 422 382 417" fill="none" stroke="red" stroke-width="3" />
  </g>
</svg>