<svg xmlns="http://www.w3.org/2000/svg" width="512" height="512" viewBox="0 0 512 512">
  <g class="glyph">
    <path d="M 212 427 Q 199 401 211 379 Q 216 365 244 343 Q 250 338 253 340 Q 256 341 257 348 Q 258 366 254 388 Q 249 415 240 427 Q 231 436 225 436 Q 218 437 212 427 Z M 385 111 Q 384 104 376 106 Q 348 111 312 121 Q 308 122 307 130 Q 305 138 307 144 Q 327 136 344 133 Q 361 129 369 144 Q 378 156 364 169 Q 351 182 307 182 Q 317 207 307 200 Q 334 193 348 193 Q 361 193 369 200 Q 380 207 377 215 Q 374 223 359 231 Q 334 242 308 245 Q 307 249 308 264 Q 338 257 391 256 Q 391 206 385 111 Z M 276 81 Q 307 47 323 11 Q 326 0 343 2 Q 363 7 374 23 Q 381 35 371 48 Q 360 61 348 72 Q 367 66 392 62 Q 411 59 433 72 Q 444 77 448 83 Q 453 90 452 102 Q 448 241 446 281 Q 444 298 433 307 Q 421 315 405 308 Q 373 301 299 317 Q 282 321 269 309 Q 256 298 255 279 Q 249 196 253 102 Q 254 79 276 81 Z M 261 347 Q 260 344 263 341 Q 267 338 271 342 Q 326 393 357 407 Q 382 419 418 417 Q 425 416 426 414 Q 427 413 426 408 Q 422 393 410 363 Q 408 360 410 358 Q 412 357 417 359 Q 436 368 458 391 Q 470 405 484 417 Q 512 443 488 462 Q 466 483 429 486 Q 391 489 352 473 Q 286 446 261 347 Z M 327 335 Q 322 326 333 324 Q 343 323 353 324 Q 375 326 382 344 Q 390 361 377 381 Q 372 387 365 388 Q 357 390 353 383 Q 339 360 327 335 Z M 446 330 Q 442 320 452 318 Q 481 314 494 322 Q 507 330 506 353 Q 505 361 501 368 Q 496 376 489 379 Q 477 383 465 364 Q 452 343 446 330 Z M 196 318 Q 209 326 211 337 Q 213 358 210 373 Q 206 388 195 393 Q 184 397 174 385 Q 169 375 163 369 Q 126 413 72 424 Q 63 426 61 423 Q 59 419 65 413 Q 98 381 123 336 Q 107 328 89 322 Q 79 317 73 309 Q 69 301 71 293 Q 74 283 76 274 Q 74 275 48 290 Q 36 298 26 286 Q 6 261 3 241 Q 0 226 13 225 Q 21 223 28 222 Q 65 210 93 200 Q 106 129 106 61 Q 106 52 106 42 Q 105 32 108 28 Q 111 24 121 22 Q 140 18 173 32 Q 188 38 184 54 Q 181 61 179 71 Q 170 128 159 175 Q 164 173 168 171 Q 168 167 167 163 Q 166 152 177 148 Q 199 140 219 156 Q 230 162 229 176 Q 226 257 196 318 Z M 144 230 Q 134 265 126 287 Q 140 292 143 293 Q 158 257 163 218 Q 154 225 144 230 Z" fill="black" />
  </g>
  <g class="defect" id="01">
    <path d="M 307 182 Q 317 207 307 200" fill="none" stroke="red" stroke-width="3" />
  </g>
  <g class="defect" id="02">
    <path d="M 308 264 Q 338 257 391 256" fill="none" stroke="red" stroke-width="3" />
  </g>
</svg>