<svg xmlns="http://www.w3.org/2000/svg" width="512" height="512" viewBox="0 0 512 512">
  <g class="glyph">
    <path d="M 344 8 Q 354 0 368 3 Q 388 8 404 26 Q 410 32 408 38 Q 407 43 399 46 Q 339 66 307 70 Q 283 74 264 69 Q 260 68 259 65 Q 258 62 263 60 Q 305 36 344 8 Z M 390 68 Q 391 62 393 61 Q 395 58 401 59 Q 415 60 429 70 Q 450 84 428 103 Q 402 128 377 129 Q 369 128 372 122 Q 387 85 390 68 Z M 316 78 Q 327 75 336 76 Q 354 78 358 90 Q 362 102 350 123 Q 344 133 335 134 Q 325 134 320 119 Q 311 96 309 91 Q 304 81 316 78 Z M 255 107 Q 252 93 267 92 Q 279 91 288 99 Q 295 105 297 118 Q 299 131 293 142 Q 284 157 270 143 Q 260 131 255 107 Z M 410 385 Q 453 410 503 427 Q 510 429 511 432 Q 512 436 506 440 Q 487 453 464 464 Q 443 473 423 470 Q 403 466 386 448 Q 388 438 367 428 Q 325 457 274 448 Q 268 447 267 445 Q 266 442 273 438 Q 309 421 334 397 Q 308 373 299 364 Q 246 428 182 432 Q 178 433 177 430 Q 176 427 180 425 Q 217 393 240 364 Q 266 332 283 292 Q 272 295 261 289 Q 244 279 236 267 Q 231 259 233 256 Q 234 252 243 251 Q 273 246 297 238 Q 302 225 304 199 Q 279 209 268 207 Q 264 228 257 236 Q 249 248 237 240 Q 222 232 219 222 Q 211 229 200 234 Q 190 287 175 326 Q 183 331 190 334 Q 205 343 208 358 Q 210 372 202 389 Q 196 400 186 401 Q 176 402 168 394 Q 159 386 150 378 Q 113 434 56 430 Q 46 429 45 425 Q 55 401 50 413 Q 83 382 107 340 Q 94 332 85 327 Q 58 310 71 281 Q 42 296 27 282 Q 13 269 5 250 Q 0 234 15 232 Q 63 222 86 213 Q 95 158 103 85 Q 105 56 105 46 Q 105 39 108 37 Q 111 34 119 34 Q 144 36 157 48 Q 172 61 165 91 Q 143 170 138 201 Q 146 198 150 197 Q 154 187 156 175 Q 158 158 178 162 Q 198 166 205 173 Q 209 179 207 189 Q 215 190 219 196 Q 228 177 246 150 Q 253 140 263 149 Q 268 156 270 167 Q 356 144 434 137 Q 469 133 484 164 Q 488 174 484 183 Q 480 192 469 196 Q 442 204 414 202 Q 406 202 404 198 Q 403 195 408 190 Q 410 187 413 183 Q 414 180 413 179 Q 411 178 409 178 Q 371 182 326 192 Q 350 195 357 203 Q 363 210 357 223 Q 368 220 402 214 Q 423 208 436 231 Q 443 242 440 251 Q 437 260 428 261 Q 379 265 345 275 Q 340 291 337 299 Q 353 296 384 285 Q 415 272 430 296 Q 444 309 427 351 Q 420 368 410 385 Z M 366 358 Q 355 344 378 333 Q 379 330 379 329 Q 378 328 374 329 Q 356 334 337 338 Q 352 349 366 358 Z M 127 297 Q 134 278 142 252 Q 131 258 123 261 Q 121 274 116 291 Q 122 294 127 297 Z" fill="black" />
  </g>
  <g class="defect" id="01">
    <path d="M 366 358 Q 355 344 378 333" fill="none" stroke="red" stroke-width="3" />
  </g>
  <g class="defect" id="02">
    <path d="M 45 425 Q 55 401 50 413" fill="none" stroke="red" stroke-width="3" />
  </g>
  <g class="defect" id="03">
    <path d="M 386 448 Q 388 438 367 428" fill="none" stroke="red" stroke-width="3" />
  </g>
</svg>