<svg xmlns="http://www.w3.org/2000/svg" width="512" height="512" viewBox="0 0 512 512">
  <g class="glyph">
    <path d="M 338 171 Q 357 164 377 169 Q 392 173 408 184 Q 417 190 416 211 Q 412 312 412 427 Q 412 466 397 488 Q 379 512 354 499 Q 326 480 307 440 Q 305 437 306 434 Q 307 431 311 433 Q 329 442 338 438 Q 345 434 346 421 Q 352 323 347 228 Q 346 222 344 221 Q 342 219 337 219 Q 321 220 307 225 Q 306 241 306 252 Q 313 252 321 252 Q 330 250 337 257 Q 342 263 343 273 Q 343 291 320 298 Q 307 302 305 302 Q 303 317 304 329 Q 327 327 336 337 Q 353 358 325 376 Q 314 383 302 384 Q 295 423 275 448 Q 258 469 225 487 Q 220 490 216 489 Q 212 487 215 480 Q 241 422 248 341 Q 253 278 246 209 Q 234 193 257 186 Q 271 180 303 180 Q 310 179 338 171 Z M 158 185 Q 175 176 195 181 Q 214 187 220 195 Q 227 205 223 224 Q 220 240 219 268 Q 216 308 215 425 Q 215 469 197 491 Q 180 510 160 494 Q 140 471 118 437 Q 114 430 116 427 Q 119 423 126 425 Q 153 434 155 406 Q 164 312 155 239 Q 155 233 148 233 Q 133 234 119 241 Q 118 249 118 265 Q 137 257 148 271 Q 153 279 151 288 Q 149 298 139 303 Q 135 306 119 308 Q 119 314 116 331 Q 121 331 133 329 Q 150 329 152 346 Q 154 358 146 367 Q 139 374 125 374 Q 116 376 109 378 Q 100 414 74 441 Q 47 469 11 476 Q 3 478 2 475 Q 0 472 5 467 Q 83 375 60 228 Q 58 212 69 204 Q 80 196 94 202 Q 128 195 158 185 Z M 270 96 Q 286 94 331 90 Q 335 78 335 55 Q 335 43 344 39 Q 352 36 363 40 Q 379 45 394 55 Q 407 64 402 92 Q 394 131 374 148 Q 355 165 340 150 Q 331 141 327 138 Q 204 149 109 187 Q 81 198 70 167 Q 58 136 66 124 Q 73 105 77 72 Q 80 49 98 54 Q 125 62 136 70 Q 146 79 145 97 Q 132 108 144 113 Q 170 109 197 105 Q 197 82 197 77 Q 196 53 191 34 Q 187 19 190 12 Q 194 3 207 2 Q 242 0 263 13 Q 282 22 274 55 Q 272 66 270 96 Z" fill="black" />
  </g>
  <g class="defect" id="01">
    <path d="M 246 209 Q 234 193 257 186" fill="none" stroke="red" stroke-width="3" />
  </g>
  <g class="defect" id="02">
    <path d="M 145 97 Q 132 108 144 113" fill="none" stroke="red" stroke-width="3" />
  </g>
</svg>