<svg xmlns="http://www.w3.org/2000/svg" width="512" height="512" viewBox="0 0 512 512">
  <g class="glyph">
    <path d="M 149 242 Q 168 207 188 160 Q 191 152 200 152 Q 226 153 239 172 Q 246 186 235 201 Q 194 250 141 267 Q 111 351 79 391 Q 52 426 9 444 Q 4 446 2 444 Q 0 442 2 436 Q 114 261 111 53 Q 110 30 132 23 Q 153 17 171 30 Q 224 27 334 4 Q 350 0 363 3 Q 392 11 403 27 Q 414 39 402 53 Q 403 68 380 83 Q 388 98 384 108 Q 379 119 361 120 Q 242 129 170 148 Q 166 189 149 242 Z M 300 197 Q 290 207 278 217 Q 285 213 294 213 Q 305 213 313 211 Q 326 208 352 204 Q 365 202 373 200 Q 384 197 402 205 Q 419 213 418 227 Q 416 277 404 320 Q 397 337 376 332 Q 361 328 312 340 Q 300 343 291 340 Q 280 336 276 325 Q 265 297 265 252 Q 265 229 272 221 Q 259 231 241 234 Q 237 234 236 233 Q 235 232 238 228 Q 263 185 278 143 Q 281 134 289 133 Q 314 132 325 154 Q 342 153 378 142 Q 391 139 406 143 Q 422 148 424 159 Q 425 168 421 173 Q 417 178 403 182 Q 349 195 300 197 Z M 325 58 Q 326 55 325 54 Q 324 53 321 53 Q 255 62 183 79 Q 181 94 181 98 Q 245 87 320 77 Q 324 69 325 58 Z M 354 236 Q 332 238 309 246 Q 309 254 310 258 Q 315 258 335 255 Q 351 252 357 263 Q 362 273 351 281 Q 336 290 312 291 Q 312 296 313 303 Q 335 305 363 294 Q 366 262 362 243 Q 361 235 354 236 Z M 210 237 Q 224 234 238 242 Q 251 249 255 263 Q 256 275 248 288 Q 243 295 230 309 Q 220 320 216 326 Q 217 381 216 435 Q 216 450 214 467 Q 213 483 206 495 Q 199 505 190 510 Q 179 512 169 505 Q 156 495 153 477 Q 152 470 155 444 Q 157 426 158 407 Q 160 389 157 372 Q 137 382 115 388 Q 110 388 107 385 Q 105 381 109 378 Q 168 302 197 254 Q 200 249 202 244 Q 205 239 210 237 Z M 386 421 Q 429 437 494 446 Q 502 447 503 450 Q 503 454 495 462 Q 466 489 434 498 Q 416 502 405 496 Q 373 479 350 461 Q 329 479 306 483 Q 287 487 262 479 Q 272 478 257 475 Q 255 472 263 470 Q 296 460 320 434 Q 309 425 295 417 Q 264 439 226 442 Q 220 443 219 441 Q 218 438 222 434 Q 266 388 279 357 Q 285 342 300 347 Q 311 350 320 357 Q 332 354 355 346 Q 385 336 409 354 Q 423 365 414 380 Q 398 405 386 421 Z M 343 402 Q 347 393 350 384 Q 350 380 345 380 Q 335 380 326 381 Q 323 385 320 388 Q 332 396 343 402 Z" fill="black" />
  </g>
  <g class="defect" id="01">
    <path d="M 262 479 Q 272 478 257 475" fill="none" stroke="red" stroke-width="3" />
  </g>
  <g class="defect" id="02">
    <path d="M 402 53 Q 403 68 380 83" fill="none" stroke="red" stroke-width="3" />
  </g>
</svg>