<svg xmlns="http://www.w3.org/2000/svg" width="512" height="512" viewBox="0 0 512 512">
  <g class="glyph">
    <path d="M 125 11 Q 152 24 164 38 Q 176 50 167 69 Q 154 100 145 131 Q 155 142 152 154 Q 149 168 132 171 Q 108 173 85 178 Q 80 201 76 224 Q 81 224 90 220 Q 107 211 119 216 Q 141 224 151 243 Q 160 260 157 279 Q 153 298 151 324 Q 148 344 145 364 Q 135 423 114 445 Q 100 462 82 464 Q 64 465 48 450 Q 38 441 17 413 Q 10 405 13 399 Q 15 393 25 397 Q 59 409 70 376 Q 81 349 84 287 Q 76 276 46 298 Q 32 304 18 294 Q 9 287 4 271 Q 0 257 8 249 Q 18 238 22 225 Q 30 199 24 159 Q 21 141 41 134 Q 63 126 87 122 Q 87 116 93 101 Q 102 76 101 69 Q 86 76 64 82 Q 55 85 44 78 Q 34 72 31 65 Q 21 45 39 39 Q 73 28 91 16 Q 105 7 125 11 Z M 272 307 Q 272 258 273 209 Q 273 201 256 201 Q 226 203 215 207 V 243 Q 234 240 244 242 Q 253 244 259 251 Q 263 256 264 264 Q 266 274 262 278 Q 251 290 218 289 Q 219 309 219 328 Q 235 329 261 326 Q 272 324 272 307 Z M 373 294 Q 358 300 352 293 Q 346 286 343 260 Q 341 248 349 238 Q 354 232 355 217 Q 358 186 351 162 Q 360 131 363 128 Q 379 125 413 117 Q 413 113 419 96 Q 425 77 425 71 Q 399 74 398 74 Q 366 74 354 54 Q 349 46 350 41 Q 351 34 360 31 Q 403 18 426 8 Q 442 0 458 4 Q 485 10 502 28 Q 508 33 507 42 Q 507 46 504 59 Q 501 67 488 91 Q 477 110 472 122 Q 484 155 457 162 Q 433 166 410 173 Q 409 176 407 225 Q 424 217 442 209 Q 461 203 477 214 Q 485 220 494 225 Q 502 231 507 240 Q 512 248 511 256 Q 510 264 507 272 Q 502 313 496 353 Q 487 426 456 465 Q 442 483 422 485 Q 403 488 386 471 Q 362 449 351 417 Q 347 407 349 404 Q 350 401 361 403 Q 381 410 394 408 Q 409 405 413 383 Q 427 320 424 272 Q 396 283 373 294 Z M 174 67 Q 171 56 183 53 Q 232 42 280 31 Q 300 27 310 34 Q 326 43 331 60 Q 334 78 315 84 Q 284 90 252 93 Q 271 109 268 118 Q 266 130 249 157 Q 266 154 280 153 Q 290 151 301 153 Q 319 155 329 163 Q 340 174 336 188 Q 331 237 322 349 Q 321 365 316 372 Q 310 379 299 381 Q 281 384 268 372 Q 247 372 239 373 Q 222 374 211 379 Q 197 387 183 375 Q 155 375 169 349 Q 164 272 159 195 Q 159 176 169 169 Q 174 165 194 163 Q 204 135 211 98 H 202 Q 192 98 183 88 Q 175 79 174 67 Z" fill="black" />
  </g>
  <g class="defect" id="01">
    <path d="M 183 375 Q 155 375 169 349" fill="none" stroke="red" stroke-width="3" />
  </g>
  <g class="defect" id="02">
    <path d="M 351 162 Q 360 131 363 128" fill="none" stroke="red" stroke-width="3" />
  </g>
</svg>