<svg xmlns="http://www.w3.org/2000/svg" width="512" height="512" viewBox="0 0 512 512">
  <g class="glyph">
    <path d="M 286 74 Q 355 64 387 60 Q 409 57 421 78 Q 429 91 430 107 Q 442 128 426 121 Q 421 126 407 125 Q 346 124 261 134 Q 190 142 144 152 Q 137 258 115 327 Q 84 423 19 472 Q 5 481 2 476 Q 0 471 7 458 Q 62 302 68 132 Q 67 116 73 108 Q 80 99 93 99 Q 113 100 133 100 Q 167 96 237 84 Q 226 76 214 56 Q 207 43 197 21 Q 193 13 195 9 Q 197 5 206 3 Q 233 0 256 6 Q 315 22 286 74 Z M 375 256 Q 392 242 418 212 Q 426 203 436 209 Q 460 225 468 243 Q 473 256 457 268 Q 420 295 369 314 Q 366 347 365 379 Q 367 404 392 408 Q 419 412 446 404 Q 461 401 465 387 Q 471 367 475 348 Q 477 342 481 341 Q 484 340 487 346 Q 512 387 510 431 Q 510 444 503 454 Q 496 466 485 469 Q 420 489 360 474 Q 333 468 318 442 Q 303 418 304 389 Q 309 285 308 180 Q 308 165 313 158 Q 318 152 328 151 Q 352 151 371 164 Q 381 170 379 186 Q 375 225 375 256 Z M 157 197 Q 155 175 173 173 Q 200 173 218 187 Q 227 195 226 207 Q 223 259 223 259 Q 246 251 262 247 Q 279 244 287 255 Q 292 260 296 273 Q 301 288 291 294 Q 257 311 222 314 Q 220 354 217 394 Q 249 376 282 357 Q 276 352 294 356 Q 296 360 289 373 Q 257 431 200 475 Q 185 487 172 482 Q 152 473 144 453 Q 136 434 144 420 Q 153 403 154 393 Q 162 288 157 197 Z" fill="black" />
  </g>
  <g class="defect" id="01">
    <path d="M 430 107 Q 442 128 426 121" fill="none" stroke="red" stroke-width="3" />
  </g>
  <g class="defect" id="02">
    <path d="M 7 458 Q 62 302 68 132" fill="none" stroke="red" stroke-width="3" />
  </g>
  <g class="defect" id="03">
    <path d="M 282 357 Q 276 352 294 356" fill="none" stroke="red" stroke-width="3" />
  </g>
</svg>