<svg xmlns="http://www.w3.org/2000/svg" width="512" height="512" viewBox="0 0 512 512">
  <g class="glyph">
    <path d="M 181 26 Q 163 67 181 87 Q 190 68 197 42 Q 202 29 215 32 Q 232 35 244 49 Q 252 59 242 71 Q 216 97 180 101 Q 180 106 180 119 Q 207 115 226 116 Q 245 118 253 126 Q 272 71 285 8 Q 286 0 305 4 Q 322 8 332 16 Q 340 24 337 37 Q 334 52 317 75 Q 352 70 382 58 Q 401 51 411 61 Q 419 68 420 76 Q 422 86 405 91 Q 337 112 293 103 Q 274 122 259 129 Q 276 151 264 145 Q 259 238 254 264 Q 250 286 220 280 Q 203 275 191 259 Q 187 253 188 250 Q 190 245 197 247 Q 208 250 211 237 Q 214 227 213 218 Q 205 226 194 219 Q 184 213 177 198 Q 177 216 177 233 Q 177 249 170 261 Q 158 276 147 269 Q 140 265 137 255 Q 135 248 134 237 Q 134 227 133 216 Q 116 241 87 247 Q 87 259 86 270 Q 85 284 74 292 Q 62 300 53 287 Q 42 274 42 253 Q 42 206 41 159 Q 41 149 59 145 Q 93 136 128 127 Q 127 69 118 13 Q 119 3 127 2 Q 151 1 166 8 Q 181 15 181 26 Z M 51 74 Q 47 66 64 63 Q 81 60 95 66 Q 110 73 115 87 Q 120 107 108 118 Q 96 130 77 112 Q 62 96 51 74 Z M 351 118 Q 364 120 382 130 Q 395 137 388 152 Q 381 170 373 187 Q 396 202 426 212 Q 440 217 441 221 Q 441 225 431 234 Q 409 256 382 260 Q 367 264 357 257 Q 345 249 336 238 Q 303 259 275 259 Q 266 260 263 255 Q 259 250 267 245 Q 297 221 306 201 Q 300 195 276 167 Q 269 160 273 151 Q 277 142 288 147 Q 306 155 323 163 Q 329 146 332 127 Q 336 118 351 118 Z M 213 160 Q 212 153 211 152 Q 198 164 204 150 Q 177 150 168 152 Q 180 161 178 176 Q 205 175 213 188 Q 213 174 213 160 Z M 131 162 Q 115 163 96 171 Q 91 173 90 188 Q 89 208 88 227 Q 90 226 100 192 Q 101 187 105 185 Q 110 182 115 185 Q 118 186 132 193 Q 132 171 131 162 Z M 261 282 Q 261 270 268 270 Q 297 270 320 279 Q 327 282 330 290 Q 331 294 331 297 Q 360 293 399 294 Q 414 294 422 302 Q 444 322 441 351 Q 439 370 419 365 Q 372 346 329 347 Q 330 389 325 430 Q 320 479 309 498 Q 301 512 295 510 Q 289 509 282 495 Q 264 455 263 347 Q 230 353 197 359 Q 189 443 125 478 Q 112 484 107 480 Q 101 476 108 465 Q 128 436 135 381 Q 107 391 80 400 Q 52 411 32 398 Q 12 384 4 363 Q 0 351 3 347 Q 6 344 19 342 Q 66 336 138 320 Q 137 307 137 299 Q 137 285 152 285 Q 170 285 188 292 Q 197 296 200 305 Q 200 311 200 312 Q 220 309 261 303 Q 261 293 261 282 Z" fill="black" />
  </g>
  <g class="defect" id="01">
    <path d="M 211 152 Q 198 164 204 150" fill="none" stroke="red" stroke-width="3" />
  </g>
  <g class="defect" id="02">
    <path d="M 259 129 Q 276 151 264 145" fill="none" stroke="red" stroke-width="3" />
  </g>
  <g class="defect" id="03">
    <path d="M 181 26 Q 163 67 181 87" fill="none" stroke="red" stroke-width="3" />
  </g>
</svg>