<svg xmlns="http://www.w3.org/2000/svg" width="512" height="512" viewBox="0 0 512 512">
  <g class="glyph">
    <path d="M 431 318 Q 438 301 459 305 Q 479 308 492 321 Q 512 337 500 358 Q 458 417 425 438 Q 377 472 327 476 Q 311 477 309 472 Q 307 467 317 459 Q 397 395 431 318 Z M 428 173 Q 434 161 453 169 Q 470 175 480 189 Q 486 195 485 207 Q 485 217 479 224 Q 459 255 421 282 Q 385 309 349 320 Q 330 326 326 321 Q 322 316 337 301 Q 389 244 428 173 Z M 399 50 Q 402 38 410 34 Q 417 31 431 35 Q 457 42 469 57 Q 483 70 473 92 Q 459 123 425 154 Q 391 185 359 196 Q 345 201 343 197 Q 342 193 349 181 Q 380 122 399 50 Z M 224 23 Q 222 11 226 5 Q 231 0 242 2 Q 276 4 294 18 Q 308 29 305 43 Q 301 75 299 128 Q 317 123 332 133 Q 361 157 345 166 Q 345 174 339 180 Q 334 186 325 188 Q 322 189 299 196 Q 299 206 299 215 Q 320 214 338 230 Q 348 240 350 251 Q 353 263 344 274 Q 338 281 326 279 Q 312 277 297 262 Q 297 343 296 425 Q 295 457 287 472 Q 280 483 267 483 Q 255 482 244 472 Q 229 460 230 432 Q 231 372 231 312 Q 204 333 162 343 Q 152 346 151 342 Q 150 338 156 331 Q 205 278 233 220 V 204 Q 222 204 207 196 Q 199 192 196 185 Q 193 181 194 174 Q 195 166 200 162 Q 210 155 233 148 Q 233 66 224 23 Z M 189 170 Q 189 182 184 186 Q 179 192 161 197 Q 155 199 148 200 Q 148 205 147 210 Q 172 213 184 223 Q 192 230 193 242 Q 194 253 188 263 Q 177 282 158 267 Q 151 263 145 258 Q 145 327 145 395 Q 144 444 141 459 Q 137 474 123 474 Q 108 474 96 459 Q 83 442 83 400 Q 84 354 84 308 Q 59 332 18 346 Q 3 350 2 346 Q 17 328 9 331 Q 53 281 84 212 Q 63 217 52 210 Q 39 207 24 190 Q 14 180 17 173 Q 20 167 35 166 Q 69 159 89 151 Q 89 101 86 42 Q 84 19 102 21 Q 125 20 144 29 Q 163 38 158 59 Q 152 125 152 140 Q 163 139 168 140 Q 186 149 189 170 Z" fill="black" />
  </g>
  <g class="defect" id="01">
    <path d="M 500 358 Q 458 417 425 438" fill="none" stroke="red" stroke-width="3" />
  </g>
  <g class="defect" id="02">
    <path d="M 2 346 Q 17 328 9 331" fill="none" stroke="red" stroke-width="3" />
  </g>
  <g class="defect" id="03">
    <path d="M 332 133 Q 361 157 345 166" fill="none" stroke="red" stroke-width="3" />
  </g>
</svg>