<svg xmlns="http://www.w3.org/2000/svg" width="512" height="512" viewBox="0 0 512 512">
  <g class="glyph">
    <path d="M 292 29 Q 290 11 295 6 Q 300 0 317 3 Q 345 7 368 24 Q 386 36 388 61 Q 389 80 381 104 Q 337 222 287 282 Q 309 288 335 291 Q 352 292 358 289 Q 365 284 362 269 Q 359 254 356 239 Q 351 219 359 219 Q 365 219 379 229 Q 394 240 407 256 Q 420 270 434 285 Q 469 322 453 351 Q 438 380 389 381 Q 282 380 225 345 Q 154 398 98 401 Q 81 404 79 398 Q 76 391 91 384 Q 143 347 180 303 Q 136 253 132 186 Q 132 167 140 160 Q 144 157 149 168 Q 160 193 178 213 Q 196 235 218 244 Q 252 205 272 144 Q 275 107 292 29 Z M 172 15 Q 200 14 228 25 Q 251 33 252 62 Q 271 87 238 105 Q 229 114 217 117 Q 204 119 197 108 Q 174 70 156 29 Q 152 23 159 19 Q 165 15 172 15 Z M 405 160 Q 397 148 399 141 Q 401 134 416 134 Q 462 145 456 136 Q 479 140 490 155 Q 512 185 494 217 Q 487 231 476 236 Q 464 242 454 229 Q 438 212 427 193 Q 415 175 405 160 Z M 53 208 Q 58 201 64 202 Q 69 203 73 210 Q 76 217 79 233 Q 89 296 70 329 Q 61 343 49 343 Q 37 343 27 332 Q 0 303 12 269 Q 33 226 53 208 Z" fill="black" />
  </g>
  <g class="defect" id="01">
    <path d="M 416 134 Q 462 145 456 136" fill="none" stroke="red" stroke-width="3" />
  </g>
  <g class="defect" id="02">
    <path d="M 272 144 Q 275 107 292 29" fill="none" stroke="red" stroke-width="3" />
  </g>
  <g class="defect" id="03">
    <path d="M 252 62 Q 271 87 238 105" fill="none" stroke="red" stroke-width="3" />
  </g>
</svg>