<svg xmlns="http://www.w3.org/2000/svg" width="512" height="512" viewBox="0 0 512 512">
  <g class="glyph">
    <path d="M 90 20 Q 90 0 106 1 Q 133 2 150 12 Q 159 18 162 28 Q 164 35 163 51 Q 161 84 159 117 Q 175 118 183 124 Q 189 126 194 134 Q 202 152 185 167 Q 178 173 157 183 V 203 Q 160 201 173 193 Q 178 189 181 190 Q 184 190 182 197 Q 180 209 169 228 Q 176 230 158 255 Q 155 386 154 402 Q 153 422 152 427 Q 149 441 142 449 Q 126 471 102 461 Q 89 454 74 438 Q 63 427 49 410 Q 43 403 45 399 Q 46 394 56 395 Q 71 397 74 397 Q 90 396 90 383 Q 90 363 91 330 Q 83 335 70 344 Q 58 354 48 355 Q 33 357 22 344 Q 17 339 8 323 Q 0 310 2 305 Q 3 300 17 293 Q 58 272 92 243 V 196 Q 56 190 37 180 Q 27 174 25 168 Q 24 161 36 157 Q 79 143 93 136 Q 93 78 90 20 Z M 225 119 Q 227 111 228 108 Q 231 103 239 104 Q 254 105 279 117 Q 296 124 289 147 Q 274 193 250 224 Q 221 260 180 273 Q 165 278 162 277 Q 158 274 166 261 Q 194 180 225 119 Z M 349 230 Q 366 224 377 228 Q 407 239 423 262 Q 426 267 424 282 Q 414 340 407 367 Q 395 414 378 439 Q 366 459 346 466 Q 323 475 307 460 Q 292 448 273 417 Q 270 409 271 406 Q 272 402 280 405 Q 299 410 307 409 Q 321 408 326 392 Q 341 346 345 287 Q 345 282 344 281 Q 343 280 337 281 Q 323 285 310 288 Q 301 346 273 384 Q 240 429 189 434 Q 173 436 172 434 Q 171 432 182 420 Q 204 398 222 364 Q 240 331 242 309 Q 232 315 221 309 Q 211 302 201 287 Q 197 280 198 274 Q 199 267 206 266 Q 264 257 349 230 Z M 322 35 Q 347 48 357 64 Q 376 95 396 117 Q 416 142 445 167 Q 465 183 502 209 Q 512 216 511 223 Q 510 229 502 233 Q 492 239 459 245 Q 412 254 393 226 Q 374 200 359 172 Q 344 144 328 115 Q 316 90 290 75 Q 280 67 269 58 Q 260 49 262 42 Q 263 35 275 31 Q 295 24 322 35 Z" fill="black" />
  </g>
  <g class="defect" id="01">
    <path d="M 166 261 Q 194 180 225 119" fill="none" stroke="red" stroke-width="3" />
  </g>
  <g class="defect" id="02">
    <path d="M 169 228 Q 176 230 158 255" fill="none" stroke="red" stroke-width="3" />
  </g>
</svg>