<svg xmlns="http://www.w3.org/2000/svg" width="512" height="512" viewBox="0 0 512 512">
  <g class="glyph">
    <path d="M 378 25 Q 406 26 423 37 Q 440 48 437 67 Q 425 148 420 181 Q 429 180 445 174 Q 455 172 463 176 Q 489 184 505 204 Q 528 215 508 229 Q 494 332 486 369 Q 478 407 462 442 Q 451 468 429 470 Q 408 473 390 450 Q 376 435 365 418 Q 359 408 360 405 Q 361 401 371 402 Q 383 403 394 404 Q 409 403 412 392 Q 434 316 436 242 Q 436 237 435 235 Q 434 233 431 233 Q 416 237 412 240 Q 394 350 347 410 Q 312 456 263 465 Q 250 468 244 465 Q 241 463 249 455 Q 286 419 305 388 Q 344 318 345 249 Q 330 248 317 235 Q 310 226 311 219 Q 312 211 324 208 Q 339 202 352 197 Q 361 120 361 38 Q 361 24 378 25 Z M 81 17 Q 80 7 86 3 Q 91 0 101 1 Q 124 4 141 13 Q 153 20 154 33 Q 152 76 150 118 Q 165 116 172 123 Q 181 133 181 143 Q 180 152 172 160 Q 165 167 148 174 V 211 Q 157 206 157 205 Q 165 201 168 205 Q 171 209 166 222 Q 161 236 149 260 Q 151 373 148 417 Q 147 433 145 439 Q 142 452 134 460 Q 116 479 89 459 Q 71 447 54 419 Q 49 411 49 404 Q 50 400 60 403 Q 68 406 75 408 Q 83 409 85 404 Q 86 402 86 393 Q 89 359 86 325 Q 69 339 62 342 Q 44 352 30 339 Q 18 325 10 310 Q 0 292 18 285 Q 60 269 86 247 L 85 192 Q 49 191 33 175 Q 25 166 26 163 Q 27 160 39 156 Q 64 148 86 138 Q 82 36 81 17 Z M 318 176 Q 326 185 317 201 Q 277 276 237 325 Q 255 316 273 308 Q 272 301 271 293 Q 270 285 275 281 Q 280 277 287 280 Q 303 302 325 312 Q 332 339 314 360 Q 300 373 288 355 Q 286 352 282 340 Q 247 374 206 394 Q 192 400 180 387 Q 169 373 169 355 Q 169 340 180 330 Q 206 298 215 281 Q 193 271 181 262 Q 158 244 173 220 Q 194 188 209 141 Q 221 97 224 59 Q 224 52 231 50 Q 239 49 248 52 Q 273 62 283 70 Q 290 75 291 80 Q 291 86 286 100 Q 262 167 225 226 Q 231 233 238 239 Q 257 205 265 170 Q 269 155 283 159 Q 308 165 318 176 Z" fill="black" />
  </g>
  <g class="defect" id="01">
    <path d="M 505 204 Q 528 215 508 229" fill="none" stroke="red" stroke-width="3" />
  </g>
  <g class="defect" id="02">
    <path d="M 287 280 Q 303 302 325 312" fill="none" stroke="red" stroke-width="3" />
  </g>
</svg>