<svg xmlns="http://www.w3.org/2000/svg" width="512" height="512" viewBox="0 0 512 512">
  <g class="glyph">
    <path d="M 254 13 Q 255 4 259 2 Q 263 0 271 1 Q 294 4 309 12 Q 325 20 320 42 Q 312 75 294 109 Q 313 110 355 98 Q 370 93 385 87 Q 394 84 404 87 Q 429 93 444 109 Q 452 120 448 131 Q 435 214 417 280 Q 408 316 391 331 Q 368 351 351 335 Q 338 324 328 299 Q 322 285 325 283 Q 327 282 343 283 Q 334 283 353 274 Q 371 208 374 139 Q 374 136 371 135 Q 369 134 367 135 Q 329 151 288 155 Q 276 155 262 155 Q 261 170 228 182 Q 213 190 206 190 Q 200 189 206 174 Q 242 96 254 13 Z M 93 31 Q 92 21 96 17 Q 100 12 109 13 Q 132 14 154 24 Q 170 30 167 53 Q 166 70 164 124 Q 177 123 188 127 Q 207 135 202 158 Q 200 169 184 178 Q 174 183 163 188 L 163 222 Q 170 218 178 213 Q 184 208 188 213 Q 190 218 187 226 Q 175 251 166 280 Q 167 357 163 436 Q 161 462 144 475 Q 124 488 103 472 Q 92 465 80 450 Q 79 449 62 427 Q 51 414 57 411 Q 60 410 75 412 H 75 Q 82 414 89 414 Q 97 414 100 410 Q 102 407 103 395 Q 103 366 102 342 Q 82 359 69 366 Q 48 378 34 367 Q 15 356 5 338 Q 0 327 5 322 Q 10 317 19 312 Q 40 299 61 285 Q 82 272 101 255 L 99 198 Q 71 197 51 191 Q 24 188 36 183 Q 29 175 40 168 Q 69 153 98 137 Q 96 84 93 31 Z M 301 178 Q 307 177 317 180 Q 329 184 339 194 Q 350 204 343 220 Q 332 243 320 265 Q 322 280 320 287 Q 317 296 306 300 Q 280 307 254 315 Q 251 332 250 353 Q 250 371 263 381 Q 274 389 293 391 Q 362 397 417 379 Q 438 372 450 345 Q 460 323 466 302 Q 468 297 473 299 Q 477 301 479 306 Q 494 339 499 360 Q 512 408 479 428 Q 431 456 375 462 Q 316 469 266 450 Q 219 431 207 391 Q 201 373 201 350 Q 201 337 203 308 Q 210 258 208 209 Q 205 197 213 191 Q 220 186 233 188 Q 249 191 262 189 Q 282 184 301 178 Z M 282 234 Q 283 229 279 229 Q 266 229 259 233 L 255 262 Q 261 262 272 258 Q 276 257 278 252 Q 282 242 282 234 Z" fill="black" />
  </g>
  <g class="defect" id="01">
    <path d="M 51 191 Q 24 188 36 183" fill="none" stroke="red" stroke-width="3" />
  </g>
  <g class="defect" id="02">
    <path d="M 262 155 Q 261 170 228 182" fill="none" stroke="red" stroke-width="3" />
  </g>
  <g class="defect" id="03">
    <path d="M 343 283 Q 334 283 353 274" fill="none" stroke="red" stroke-width="3" />
  </g>
</svg>