<svg xmlns="http://www.w3.org/2000/svg" width="512" height="512" viewBox="0 0 512 512">
  <g class="glyph">
    <path d="M 278 12 Q 282 0 297 3 Q 321 5 335 25 Q 345 38 331 51 Q 308 72 302 80 Q 338 75 380 64 Q 401 59 417 63 Q 440 68 457 84 Q 468 92 463 112 Q 439 194 416 231 Q 407 245 399 248 Q 391 250 374 247 Q 344 247 322 255 Q 303 286 297 295 L 315 289 Q 317 271 321 263 Q 325 256 333 253 Q 351 249 364 256 Q 376 262 379 279 Q 412 277 442 279 Q 455 280 461 287 Q 468 295 474 320 Q 478 338 471 345 Q 465 350 449 346 Q 397 334 376 333 Q 379 465 350 506 Q 346 512 340 510 Q 335 509 332 502 Q 322 479 319 452 Q 314 417 315 338 Q 274 344 237 366 Q 212 373 219 373 Q 214 373 207 368 Q 193 359 184 339 Q 180 329 182 324 Q 184 319 192 319 Q 215 317 235 310 Q 247 298 261 272 Q 218 276 214 252 Q 218 245 225 241 Q 210 208 208 118 Q 207 93 234 88 Q 270 38 278 12 Z M 389 115 Q 390 113 389 111 Q 388 108 385 109 Q 365 111 342 116 Q 354 124 349 141 Q 361 140 369 145 Q 377 150 376 160 Q 375 168 368 173 Q 360 179 342 182 Q 341 193 339 203 L 374 198 Q 387 158 389 115 Z M 293 125 Q 278 128 270 131 Q 270 145 270 153 Q 269 174 270 187 Q 271 207 278 218 L 288 214 Q 290 206 292 186 Q 269 177 274 161 Q 275 158 282 155 Q 289 154 294 151 Q 295 135 293 125 Z M 168 132 Q 190 132 198 153 Q 203 170 178 183 Q 170 186 167 188 Q 167 201 166 213 Q 174 209 181 203 Q 187 199 189 201 Q 191 203 187 211 Q 177 230 166 247 Q 147 332 164 396 Q 162 467 127 467 Q 100 467 57 411 Q 54 406 56 403 Q 57 401 62 401 Q 69 403 89 403 Q 102 403 102 391 Q 103 373 103 329 Q 94 339 76 357 Q 61 370 43 362 Q 23 354 9 335 Q 0 323 13 316 Q 42 301 103 257 V 205 Q 63 209 40 187 Q 29 176 38 170 Q 67 158 103 147 Q 102 55 100 29 Q 98 14 112 14 Q 144 15 163 28 Q 170 34 172 38 Q 174 42 173 53 Q 170 87 168 132 Z" fill="black" />
  </g>
  <g class="defect" id="01">
    <path d="M 166 247 Q 147 332 164 396" fill="none" stroke="red" stroke-width="3" />
  </g>
  <g class="defect" id="02">
    <path d="M 237 366 Q 212 373 219 373" fill="none" stroke="red" stroke-width="3" />
  </g>
</svg>