<svg xmlns="http://www.w3.org/2000/svg" width="512" height="512" viewBox="0 0 512 512">
  <g class="glyph">
    <path d="M 103 252 Q 209 230 266 195 Q 276 190 286 195 Q 306 207 314 226 Q 319 238 305 244 Q 294 250 241 265 L 246 276 Q 265 271 281 272 Q 303 273 306 288 Q 308 303 292 312 Q 275 320 247 322 V 337 Q 331 331 385 336 Q 397 337 403 344 Q 410 351 419 376 Q 424 390 420 398 Q 415 406 401 403 Q 300 382 246 386 Q 243 444 237 464 Q 224 512 189 510 Q 155 508 123 447 Q 122 445 124 442 Q 127 441 130 441 Q 154 446 164 444 Q 175 442 177 430 Q 181 413 181 393 Q 134 402 66 425 Q 41 433 20 411 Q 10 399 3 384 Q 0 378 2 376 Q 3 373 10 372 Q 35 369 183 344 V 333 Q 157 333 146 331 Q 126 327 114 314 Q 109 308 110 304 Q 112 299 122 299 Q 147 297 182 288 L 180 277 Q 172 276 156 275 Q 120 273 102 264 Q 83 254 103 252 Z M 60 176 Q 80 155 101 144 Q 113 140 114 149 Q 119 187 99 216 Q 83 234 61 204 Q 50 188 60 176 Z M 354 105 Q 290 99 259 101 Q 272 109 271 116 Q 271 151 267 182 Q 260 204 237 204 Q 224 203 218 191 Q 213 183 213 166 Q 213 153 213 146 Q 216 121 212 108 L 186 112 Q 199 127 198 147 Q 198 176 192 200 Q 188 214 174 214 Q 162 214 151 205 Q 139 195 140 185 Q 145 142 142 123 Q 119 129 85 144 Q 67 154 53 140 Q 34 122 26 104 Q 24 99 25 95 Q 27 92 33 91 Q 90 87 197 66 Q 168 39 160 20 Q 158 16 161 14 Q 163 12 169 11 Q 223 0 235 32 Q 240 45 230 62 Q 260 56 330 47 Q 344 45 355 57 Q 367 68 368 88 Q 368 95 364 100 Q 360 105 354 105 Z M 288 129 Q 263 100 293 120 Q 320 121 331 123 Q 348 125 354 139 Q 363 162 349 179 Q 345 185 336 185 Q 307 173 323 179 Q 306 154 288 129 Z" fill="black" />
  </g>
  <g class="defect" id="01">
    <path d="M 336 185 Q 307 173 323 179" fill="none" stroke="red" stroke-width="3" />
  </g>
  <g class="defect" id="02">
    <path d="M 288 129 Q 263 100 293 120" fill="none" stroke="red" stroke-width="3" />
  </g>
</svg>