<svg xmlns="http://www.w3.org/2000/svg" width="512" height="512" viewBox="0 0 512 512">
  <g class="glyph">
    <path d="M 383 33 Q 382 28 382 27 Q 383 25 386 24 Q 406 23 423 28 Q 441 34 445 43 Q 449 55 446 67 Q 442 81 429 84 Q 418 86 403 66 Q 379 54 383 33 Z M 339 270 Q 374 268 397 284 Q 425 280 456 278 Q 472 277 483 290 Q 494 304 497 329 Q 498 338 491 344 Q 485 349 473 347 Q 440 338 403 337 Q 404 393 403 439 Q 401 512 365 512 Q 344 512 322 495 Q 302 479 292 458 Q 289 453 292 450 Q 294 448 299 450 Q 322 451 327 451 Q 334 450 337 448 Q 339 445 340 439 Q 343 382 338 336 Q 280 340 220 370 Q 200 383 189 374 Q 168 360 162 335 Q 161 332 161 328 Q 160 324 164 322 Q 195 319 267 305 Q 301 297 336 292 Q 336 289 334 281 Q 330 272 339 270 Z M 247 362 Q 274 358 290 362 Q 304 365 310 378 Q 316 389 313 403 Q 309 419 298 422 Q 288 425 279 415 Q 261 395 243 375 Q 239 371 240 367 Q 242 363 247 362 Z M 379 152 Q 379 147 378 144 Q 376 142 371 142 Q 356 142 342 144 V 150 Q 350 146 360 153 Q 370 159 370 169 Q 370 179 361 185 Q 354 190 339 194 V 202 Q 350 203 358 207 Q 368 213 367 223 Q 366 238 339 243 Q 334 277 317 277 Q 309 277 302 269 Q 294 262 294 250 Q 279 247 270 237 Q 265 227 274 222 Q 282 217 290 214 L 288 195 Q 278 194 271 189 Q 262 184 264 175 Q 268 170 275 168 Q 282 166 288 164 V 150 Q 276 152 259 158 Q 258 182 262 218 Q 265 244 260 260 Q 254 278 240 278 Q 220 279 215 260 Q 198 195 208 135 Q 210 126 225 124 Q 257 122 287 116 V 98 Q 245 94 245 83 Q 233 71 248 68 Q 267 64 284 56 Q 284 47 282 32 Q 279 16 281 11 Q 284 1 298 0 Q 335 1 346 13 Q 353 22 350 42 Q 378 37 386 61 Q 389 74 380 81 Q 372 88 343 94 V 107 Q 369 104 383 99 Q 398 94 412 99 Q 439 111 445 118 Q 451 125 450 143 Q 448 164 429 227 Q 419 263 403 264 Q 391 265 382 257 Q 373 248 374 234 Q 379 185 379 152 Z M 154 133 Q 161 130 163 130 Q 175 127 184 132 Q 193 137 197 150 Q 199 159 194 168 Q 189 177 177 183 Q 160 191 152 194 V 221 Q 158 216 172 206 Q 178 202 181 204 Q 184 206 180 213 Q 168 237 152 264 Q 152 339 152 415 Q 152 491 115 491 Q 87 491 43 430 Q 41 426 43 423 Q 44 420 49 421 Q 62 422 76 423 Q 83 424 86 421 Q 89 419 89 411 Q 91 346 91 343 Q 85 350 71 364 Q 56 379 37 368 Q 20 358 7 335 Q 0 322 10 317 Q 42 300 92 265 V 210 Q 61 213 38 192 Q 33 187 33 182 Q 32 177 37 175 Q 64 165 92 155 Q 90 81 85 34 Q 83 19 98 19 Q 127 18 148 31 Q 162 37 158 56 Q 156 79 154 133 Z" fill="black" />
  </g>
  <g class="defect" id="01">
    <path d="M 403 66 Q 379 54 383 33" fill="none" stroke="red" stroke-width="3" />
  </g>
  <g class="defect" id="02">
    <path d="M 287 98 Q 245 94 245 83" fill="none" stroke="red" stroke-width="3" />
  </g>
</svg>