<svg xmlns="http://www.w3.org/2000/svg" width="512" height="512" viewBox="0 0 512 512">
  <g class="glyph">
    <path d="M 418 56 Q 419 53 417 52 Q 415 51 411 51 Q 389 52 373 56 V 76 Q 371 88 395 78 Q 405 84 405 95 Q 405 107 398 113 Q 392 119 372 127 L 372 140 Q 391 137 405 137 Q 417 98 418 56 Z M 315 64 Q 301 66 289 73 Q 277 113 294 155 Q 309 152 324 148 L 322 133 Q 309 129 301 121 Q 292 111 296 102 Q 298 97 306 94 Q 315 91 318 89 Z M 399 180 Q 372 181 351 188 Q 362 195 357 204 Q 354 210 341 220 Q 334 226 330 231 Q 337 232 343 234 Q 363 212 381 187 Q 388 180 398 183 Q 434 199 428 218 Q 411 239 382 260 Q 375 265 330 294 Q 394 280 412 275 Q 404 260 405 255 Q 405 248 412 247 Q 439 247 453 253 Q 472 258 473 282 Q 475 305 463 317 Q 440 326 423 304 Q 410 312 389 321 Q 392 373 392 425 Q 391 465 380 488 Q 369 512 350 512 Q 332 512 312 494 Q 296 479 280 457 Q 278 453 279 450 Q 279 446 284 446 Q 298 448 312 450 Q 319 450 322 447 Q 324 444 325 436 Q 327 388 322 344 Q 296 353 273 364 Q 255 369 242 355 Q 231 344 226 324 Q 223 315 229 311 Q 233 308 243 307 Q 250 306 253 305 Q 280 289 293 274 Q 274 265 259 261 Q 244 257 245 241 Q 245 227 256 219 Q 268 212 283 217 Q 289 216 299 207 Q 309 199 308 196 Q 263 211 247 184 Q 228 158 226 111 Q 223 72 232 35 Q 239 8 288 20 Q 377 8 433 0 Q 447 1 461 9 Q 510 37 496 66 Q 491 76 482 104 Q 468 145 456 163 Q 447 177 440 181 Q 434 186 422 187 Q 410 188 399 180 Z M 421 356 Q 420 353 423 350 Q 426 348 430 348 Q 463 351 471 353 Q 496 360 503 376 Q 508 391 504 407 Q 500 423 488 431 Q 487 438 466 431 Q 457 425 453 412 Q 437 384 421 356 Z M 206 407 Q 207 399 222 391 Q 235 383 248 379 Q 259 377 261 387 Q 264 411 259 432 Q 253 459 238 465 Q 220 469 211 446 Q 203 425 206 407 Z M 180 132 Q 212 129 216 150 Q 222 173 193 185 Q 188 187 178 191 Q 178 212 178 222 Q 196 210 204 204 Q 211 199 215 201 Q 219 204 214 213 Q 197 240 178 264 Q 179 361 179 408 Q 179 452 165 473 Q 154 492 136 492 Q 118 492 98 477 Q 78 462 63 435 Q 60 429 61 426 Q 62 423 67 424 Q 75 425 96 425 Q 104 425 107 423 Q 110 420 110 412 Q 111 371 111 341 Q 91 361 82 370 Q 63 386 47 378 Q 23 364 9 343 Q 0 328 11 323 Q 50 304 111 265 V 208 Q 65 212 41 186 Q 30 173 39 168 Q 71 155 111 145 Q 109 47 105 17 Q 104 1 119 1 Q 152 1 173 14 Q 188 21 184 41 Q 180 86 180 132 Z" fill="black" />
  </g>
  <g class="defect" id="01">
    <path d="M 488 431 Q 487 438 466 431" fill="none" stroke="red" stroke-width="3" />
  </g>
  <g class="defect" id="02">
    <path d="M 373 76 Q 371 88 395 78" fill="none" stroke="red" stroke-width="3" />
  </g>
</svg>