<svg xmlns="http://www.w3.org/2000/svg" width="512" height="512" viewBox="0 0 512 512">
  <g class="glyph">
    <path d="M 352 9 Q 379 0 392 3 Q 418 7 431 23 Q 444 38 435 57 Q 424 86 413 106 Q 409 113 409 121 Q 410 130 402 135 Q 386 147 350 152 Q 336 154 320 149 Q 306 143 300 124 Q 298 115 308 114 Q 325 110 343 106 Q 354 103 357 94 Q 362 82 363 69 Q 364 65 362 64 Q 360 62 357 64 Q 323 69 304 40 Q 300 33 301 27 Q 304 21 313 20 Q 329 17 352 9 Z M 242 20 Q 251 16 260 18 Q 276 21 290 32 Q 304 42 304 56 Q 305 65 298 83 Q 294 96 283 135 Q 275 163 256 165 Q 235 169 223 174 V 199 Q 245 189 265 201 Q 279 211 274 225 Q 268 238 244 242 Q 233 244 223 249 Q 223 264 222 277 Q 263 270 275 285 Q 286 300 277 312 Q 265 328 243 331 Q 240 331 222 333 Q 220 372 220 395 Q 220 422 215 438 Q 212 450 202 459 Q 189 471 174 461 Q 158 451 160 420 Q 165 239 163 133 Q 163 131 159 74 Q 158 47 163 37 Q 170 25 190 30 Q 185 50 217 28 Q 220 27 242 20 Z M 80 68 Q 94 62 108 66 Q 126 70 137 82 Q 148 93 146 117 Q 145 176 144 207 Q 142 289 142 330 Q 142 356 128 375 Q 121 385 109 385 Q 97 385 89 376 Q 78 364 57 374 Q 39 383 27 374 Q 17 367 7 351 Q 0 340 4 328 Q 7 321 6 308 Q 6 237 3 101 Q 3 86 14 84 Q 52 76 80 68 Z M 246 71 Q 246 69 244 67 Q 242 66 240 67 Q 215 71 221 76 Q 221 86 221 116 Q 221 123 227 122 Q 232 121 237 118 Q 241 115 241 111 Q 245 89 246 71 Z M 80 131 Q 80 120 71 123 Q 62 126 57 132 Q 56 155 56 167 Q 56 173 60 173 Q 70 172 75 182 Q 84 198 77 216 Q 71 233 55 240 L 55 291 Q 55 303 64 304 Q 80 302 88 294 Q 84 169 80 131 Z M 373 164 Q 386 159 394 162 Q 414 167 424 178 Q 447 190 429 206 Q 426 214 420 242 Q 406 295 397 316 Q 435 350 505 376 Q 512 378 511 382 Q 511 387 504 391 Q 470 417 436 425 Q 410 432 390 413 Q 380 403 355 371 Q 334 391 304 399 Q 270 409 242 400 Q 238 399 237 396 Q 237 393 242 390 Q 305 360 323 325 Q 296 284 282 268 Q 276 262 277 255 Q 278 248 287 247 Q 305 244 321 253 Q 332 259 349 276 Q 357 259 361 234 Q 362 230 360 228 Q 359 227 355 228 Q 342 231 333 232 Q 313 236 303 225 Q 294 214 291 206 Q 286 192 299 189 Q 341 180 373 164 Z" fill="black" />
  </g>
  <g class="defect" id="01">
    <path d="M 190 30 Q 185 50 217 28" fill="none" stroke="red" stroke-width="3" />
  </g>
  <g class="defect" id="02">
    <path d="M 424 178 Q 447 190 429 206" fill="none" stroke="red" stroke-width="3" />
  </g>
  <g class="defect" id="03">
    <path d="M 240 67 Q 215 71 221 76" fill="none" stroke="red" stroke-width="3" />
  </g>
</svg>