<svg xmlns="http://www.w3.org/2000/svg" width="512" height="512" viewBox="0 0 512 512">
  <g class="glyph">
    <path d="M 266 23 Q 348 4 393 2 Q 443 13 450 16 Q 463 32 455 49 Q 448 62 417 70 Q 393 76 378 78 Q 394 86 388 113 Q 385 127 385 133 Q 402 134 420 131 Q 445 126 458 133 Q 479 144 498 165 Q 512 179 506 207 Q 491 275 467 343 Q 461 362 453 374 Q 443 389 429 397 Q 417 403 405 395 Q 393 388 389 375 Q 365 367 336 368 Q 314 370 278 377 Q 267 379 255 385 Q 227 403 203 381 Q 188 367 180 341 Q 154 253 168 179 Q 171 166 182 160 Q 189 156 205 155 Q 238 152 253 147 Q 252 106 250 92 Q 197 81 184 57 Q 179 47 190 43 Q 223 33 266 23 Z M 382 184 Q 381 198 382 213 Q 382 220 385 222 Q 387 225 392 225 Q 404 227 409 235 Q 413 243 413 249 Q 413 256 407 263 Q 386 279 360 271 Q 332 262 328 226 Q 326 207 326 191 Q 311 194 308 194 Q 299 263 245 287 Q 240 290 236 288 Q 231 287 233 281 Q 249 235 251 203 Q 235 207 227 210 Q 222 211 222 216 Q 219 285 233 310 Q 241 322 253 321 Q 278 314 279 314 Q 313 310 363 308 Q 378 307 395 311 Q 406 313 408 302 Q 416 246 424 187 Q 425 182 419 182 Q 400 182 382 184 Z M 328 137 Q 331 95 328 86 Q 319 88 309 89 Q 311 114 311 140 Q 319 138 328 137 Z M 33 39 Q 45 42 55 39 Q 62 37 96 27 Q 109 24 127 29 Q 144 34 154 45 Q 165 57 160 80 Q 154 123 155 195 Q 158 293 152 337 Q 150 351 136 363 Q 120 375 108 365 Q 83 353 61 364 Q 45 379 25 365 Q 6 352 5 330 Q 2 272 2 187 Q 4 137 2 90 Q 2 82 1 67 Q 0 52 9 45 Q 20 37 33 39 Z M 91 93 Q 91 89 90 88 Q 89 87 85 88 Q 79 89 64 92 Q 61 132 61 169 Q 74 168 79 170 Q 90 175 90 191 Q 90 204 84 213 Q 78 222 69 222 Q 60 222 60 229 Q 58 264 61 305 Q 76 305 89 301 Q 95 300 93 295 Q 93 160 91 93 Z" fill="black" />
  </g>
  <g class="defect" id="01">
    <path d="M 393 2 Q 443 13 450 16" fill="none" stroke="red" stroke-width="3" />
  </g>
</svg>