<svg xmlns="http://www.w3.org/2000/svg" width="512" height="512" viewBox="0 0 512 512">
  <g class="glyph">
    <path d="M 233 2 Q 256 0 269 8 Q 282 17 282 37 Q 282 58 267 64 Q 247 62 234 48 Q 220 33 209 18 Q 205 10 215 6 Q 223 2 233 2 Z M 434 15 Q 452 14 466 28 Q 481 45 466 60 Q 455 73 433 77 Q 425 79 417 81 Q 422 90 422 109 Q 423 127 419 170 Q 428 169 441 171 Q 431 173 455 180 Q 460 186 462 195 Q 465 215 447 222 Q 433 228 418 231 L 415 315 Q 427 315 458 315 Q 482 315 497 330 Q 511 346 512 371 Q 512 383 506 387 Q 500 391 486 388 Q 394 362 310 394 Q 294 400 280 392 Q 264 381 254 353 Q 250 345 258 340 Q 312 327 351 321 L 353 235 Q 326 233 313 210 Q 308 201 312 196 Q 315 190 325 188 Q 341 185 354 178 Q 354 104 353 95 Q 335 95 323 88 Q 294 61 305 66 Q 301 57 304 51 Q 308 45 320 47 Q 339 45 380 31 Q 418 17 434 15 Z M 150 32 Q 165 31 179 39 Q 194 49 191 64 Q 190 77 173 86 Q 156 95 132 102 Q 134 112 133 139 V 170 Q 146 164 159 173 Q 171 181 170 195 Q 170 206 159 216 Q 151 223 130 235 L 129 276 Q 144 265 158 252 Q 165 247 167 248 Q 170 249 169 252 Q 139 361 67 400 Q 48 433 16 389 Q 6 371 5 370 Q 0 356 7 349 Q 44 335 69 313 L 70 248 Q 66 247 56 243 Q 46 240 37 230 Q 26 218 35 211 Q 52 204 68 194 Q 69 150 66 107 Q 42 107 28 91 Q 21 84 22 79 Q 22 73 32 70 Q 61 59 90 47 Q 119 36 150 32 Z M 292 85 Q 304 82 311 94 Q 327 125 302 133 Q 284 139 278 141 Q 303 154 303 167 Q 300 199 285 235 Q 304 254 317 274 Q 330 298 310 316 Q 300 325 286 325 Q 269 326 262 314 Q 258 305 253 301 Q 211 353 147 370 Q 141 373 138 370 Q 135 368 141 363 Q 185 317 219 249 Q 210 233 187 194 Q 182 187 183 182 Q 184 176 194 177 Q 204 177 212 181 Q 221 184 238 196 Q 245 176 245 152 Q 219 160 216 160 Q 199 163 189 158 Q 177 152 170 138 Q 161 121 176 117 Q 202 111 229 102 Q 278 88 292 85 Z" fill="black" />
  </g>
  <g class="defect" id="01">
    <path d="M 323 88 Q 294 61 305 66" fill="none" stroke="red" stroke-width="3" />
  </g>
  <g class="defect" id="02">
    <path d="M 67 400 Q 48 433 16 389" fill="none" stroke="red" stroke-width="3" />
  </g>
  <g class="defect" id="03">
    <path d="M 441 171 Q 431 173 455 180" fill="none" stroke="red" stroke-width="3" />
  </g>
</svg>