<svg xmlns="http://www.w3.org/2000/svg" width="512" height="512" viewBox="0 0 512 512">
  <g class="glyph">
    <path d="M 163 36 Q 157 0 178 1 Q 196 2 221 10 Q 247 16 243 43 Q 241 111 241 114 Q 284 110 298 108 Q 319 106 326 106 Q 343 107 351 116 Q 362 127 367 145 Q 373 163 365 169 Q 358 175 338 174 Q 276 171 241 174 Q 331 269 459 309 Q 466 311 467 315 Q 467 319 460 322 Q 420 349 380 361 Q 352 369 329 348 Q 306 329 283 304 Q 256 275 241 252 Q 240 250 239 250 Q 238 250 238 252 L 239 327 Q 252 324 261 324 Q 292 322 303 344 Q 313 362 303 373 Q 296 380 277 385 Q 250 392 240 393 Q 256 409 241 418 Q 245 465 225 490 Q 204 512 185 492 Q 166 473 170 421 V 399 Q 170 396 167 396 Q 123 394 104 375 Q 97 367 100 362 Q 103 358 112 356 Q 142 348 171 339 Q 172 320 171 281 Q 149 315 106 345 Q 63 375 13 374 Q 4 374 2 371 Q 0 367 8 361 Q 55 327 92 284 Q 133 238 156 190 Q 148 193 141 196 Q 115 204 99 201 Q 66 197 48 165 Q 44 159 45 154 Q 45 149 53 147 Q 95 141 167 125 Q 180 76 163 36 Z" fill="black" />
  </g>
  <g class="defect" id="01">
    <path d="M 240 393 Q 256 409 241 418" fill="none" stroke="red" stroke-width="3" />
  </g>
  <g class="defect" id="02">
    <path d="M 167 125 Q 180 76 163 36" fill="none" stroke="red" stroke-width="3" />
  </g>
</svg>