<svg xmlns="http://www.w3.org/2000/svg" width="512" height="512" viewBox="0 0 512 512">
  <g class="glyph">
    <path d="M 282 360 Q 295 368 312 378 Q 322 363 327 354 Q 328 350 327 348 Q 326 346 321 348 Q 303 354 282 360 Z M 291 202 Q 309 206 317 215 Q 325 225 315 240 Q 324 239 340 235 Q 366 227 379 229 Q 398 231 405 250 Q 410 264 404 271 Q 398 279 381 280 Q 354 281 334 285 Q 314 291 293 296 Q 290 303 277 323 Q 292 320 316 310 Q 339 300 351 300 Q 367 300 385 313 Q 406 327 392 347 Q 389 353 383 365 Q 372 387 359 405 Q 414 432 491 451 Q 499 453 499 458 Q 499 462 490 468 Q 457 491 425 503 Q 402 512 374 495 Q 353 482 315 450 Q 286 471 258 480 Q 224 491 194 484 Q 189 483 189 479 Q 189 476 194 473 Q 229 457 240 450 Q 264 436 280 418 Q 254 396 241 385 Q 207 426 179 443 Q 149 461 114 459 Q 108 459 107 457 Q 107 454 111 451 Q 187 385 221 313 Q 186 297 185 277 Q 184 269 191 269 Q 210 267 246 255 Q 249 248 254 233 Q 258 218 261 212 Q 242 216 233 216 Q 216 216 211 201 Q 212 215 207 232 Q 203 251 194 262 Q 189 270 177 272 Q 166 273 161 261 Q 154 241 159 219 Q 166 194 169 170 Q 170 161 177 159 Q 183 157 192 162 Q 208 170 210 187 Q 212 183 220 181 Q 292 162 409 142 Q 429 138 442 147 Q 473 180 470 180 Q 473 187 470 194 Q 468 201 459 203 Q 446 205 424 213 Q 403 220 387 223 Q 376 225 373 221 Q 372 217 376 210 Q 381 201 384 195 Q 385 191 384 190 Q 383 189 379 189 Q 343 189 291 202 Z M 324 9 Q 339 0 353 6 Q 367 12 376 24 Q 382 34 382 39 Q 382 45 373 50 Q 295 91 208 77 Q 201 75 201 71 Q 201 66 209 63 Q 284 26 324 9 Z M 353 77 Q 355 65 369 65 Q 388 68 402 77 Q 415 87 409 98 Q 381 132 337 141 Q 330 142 327 140 Q 324 138 327 131 Q 336 114 341 105 Q 350 88 353 77 Z M 91 72 Q 110 65 121 68 Q 144 74 154 94 Q 158 103 157 113 Q 149 162 148 247 Q 148 290 146 331 Q 164 394 129 391 Q 111 406 95 392 Q 89 386 76 389 Q 75 389 57 396 Q 32 407 18 389 Q 3 370 3 344 Q 2 317 2 264 Q 3 205 1 138 Q 0 118 3 107 Q 8 93 23 88 Q 61 81 91 72 Z M 256 98 Q 254 90 264 90 Q 287 89 297 99 Q 306 106 304 118 Q 303 129 295 138 Q 285 150 276 147 Q 270 144 265 132 Q 262 124 256 98 Z M 90 132 Q 90 127 83 128 Q 61 131 53 143 Q 51 181 53 212 Q 72 209 78 212 Q 90 219 89 242 Q 88 268 54 265 Q 53 311 55 333 Q 73 335 89 331 Q 92 331 92 324 Q 91 294 92 232 Q 92 166 90 132 Z M 187 113 Q 229 101 240 125 Q 249 144 238 159 Q 227 170 213 162 Q 194 146 181 123 Q 179 116 187 113 Z" fill="black" />
  </g>
  <g class="defect" id="01">
    <path d="M 146 331 Q 164 394 129 391" fill="none" stroke="red" stroke-width="3" />
  </g>
  <g class="defect" id="02">
    <path d="M 442 147 Q 473 180 470 180" fill="none" stroke="red" stroke-width="3" />
  </g>
</svg>