<svg xmlns="http://www.w3.org/2000/svg" width="512" height="512" viewBox="0 0 512 512">
  <g class="glyph">
    <path d="M 250 293 Q 271 286 281 283 V 274 Q 280 270 280 261 Q 279 242 295 244 Q 313 246 326 251 Q 338 257 336 274 Q 347 271 362 277 Q 376 283 375 296 Q 374 306 366 309 Q 356 314 335 319 Q 335 331 336 332 Q 357 331 379 329 Q 394 328 402 337 Q 417 350 418 369 Q 420 376 417 381 Q 413 387 405 386 Q 362 379 335 382 Q 334 420 329 449 Q 324 475 318 487 Q 314 494 310 494 Q 306 495 302 490 Q 291 476 288 453 Q 283 409 283 393 Q 265 398 254 402 Q 236 407 223 397 Q 233 390 206 373 Q 202 365 202 362 Q 214 357 212 357 Q 248 352 282 342 Q 281 335 281 327 Q 271 326 262 323 Q 246 317 241 308 Q 205 352 162 353 Q 153 353 152 348 Q 151 344 158 339 Q 172 329 190 302 Q 207 275 218 251 Q 204 249 193 238 Q 182 228 181 214 Q 179 203 188 203 Q 208 202 237 195 Q 244 182 245 172 Q 225 168 215 155 Q 206 141 220 137 Q 238 130 255 125 Q 257 120 258 106 Q 234 106 218 95 Q 210 89 209 83 Q 206 75 221 71 Q 256 66 262 60 Q 265 41 263 20 Q 262 10 266 5 Q 270 2 280 1 Q 302 0 317 10 Q 330 17 328 32 Q 327 38 327 45 Q 350 38 364 39 Q 381 41 384 60 Q 385 76 368 87 Q 357 93 343 96 Q 329 99 318 101 Q 317 108 315 114 Q 347 107 356 106 Q 379 102 385 119 Q 390 130 384 140 Q 379 148 367 151 Q 337 160 305 164 Q 302 172 299 180 Q 356 169 405 163 Q 423 160 434 178 Q 445 194 445 207 Q 445 213 442 217 Q 439 220 433 220 Q 406 217 383 217 Q 401 239 435 261 Q 466 282 505 298 Q 511 300 511 304 Q 512 309 504 314 Q 482 327 463 334 Q 436 345 420 332 Q 379 298 327 222 Q 306 225 280 234 Q 269 266 250 293 Z M 87 36 Q 86 21 97 20 Q 116 20 140 28 Q 161 34 157 61 Q 151 102 151 132 Q 171 129 185 140 Q 193 146 193 157 Q 193 167 185 174 Q 164 188 148 190 Q 147 206 147 211 Q 148 211 169 220 Q 179 225 184 236 Q 189 246 189 257 Q 189 269 182 275 Q 175 280 165 279 Q 156 278 147 271 Q 147 325 143 427 Q 142 446 128 455 Q 119 461 107 455 Q 91 446 90 428 Q 90 414 90 293 Q 63 322 15 333 Q 6 336 3 332 Q 0 329 6 322 Q 61 253 84 203 Q 46 202 25 183 Q 18 177 18 173 Q 17 167 23 166 Q 60 156 92 143 Q 90 60 87 36 Z" fill="black" />
  </g>
  <g class="defect" id="01">
    <path d="M 221 71 Q 256 66 262 60" fill="none" stroke="red" stroke-width="3" />
  </g>
  <g class="defect" id="02">
    <path d="M 223 397 Q 233 390 206 373" fill="none" stroke="red" stroke-width="3" />
  </g>
  <g class="defect" id="03">
    <path d="M 202 362 Q 214 357 212 357" fill="none" stroke="red" stroke-width="3" />
  </g>
</svg>