<svg xmlns="http://www.w3.org/2000/svg" width="512" height="512" viewBox="0 0 512 512">
  <g class="glyph">
    <path d="M 170 306 Q 165 298 165 294 Q 165 288 173 285 Q 215 266 227 260 Q 229 244 227 227 Q 204 225 194 214 Q 189 209 192 205 Q 194 201 201 199 Q 214 194 227 189 Q 229 183 226 164 Q 204 163 192 151 Q 187 145 187 141 Q 187 135 195 132 Q 218 124 224 119 Q 224 92 221 47 Q 217 26 234 24 Q 256 23 280 31 Q 295 37 295 58 Q 295 73 292 95 Q 306 90 317 94 Q 329 98 334 111 Q 338 121 336 130 Q 333 140 323 143 Q 308 148 292 153 Q 292 163 292 172 Q 316 173 322 184 Q 327 192 325 201 Q 322 211 311 215 Q 298 220 290 225 Q 291 234 290 246 Q 298 244 313 246 Q 323 248 329 257 Q 336 267 334 277 Q 333 291 315 292 Q 295 295 281 301 Q 272 357 252 388 Q 228 425 180 437 Q 171 439 168 437 Q 165 435 171 429 Q 213 374 216 323 Q 189 332 170 306 Z M 358 478 Q 343 429 344 358 V 322 Q 344 241 340 125 Q 338 106 338 97 Q 339 89 345 87 Q 349 85 358 84 Q 372 85 391 84 Q 419 80 449 72 Q 464 68 480 77 Q 496 87 501 97 Q 508 110 498 124 Q 459 174 441 195 Q 488 220 504 258 Q 512 280 508 306 Q 503 334 484 347 Q 446 374 454 347 Q 434 330 410 287 Q 407 282 408 280 Q 408 277 414 278 Q 429 282 443 285 Q 448 286 450 282 Q 453 278 452 273 Q 441 242 413 212 Q 403 202 408 182 Q 419 133 420 125 Q 407 125 396 130 Q 397 303 399 355 Q 401 414 382 476 Q 377 493 371 494 Q 364 496 358 478 Z M 73 18 Q 73 0 91 0 Q 100 0 114 4 Q 130 8 138 14 Q 145 20 147 29 Q 148 34 148 47 Q 146 87 144 127 Q 170 123 179 141 Q 186 157 174 169 Q 158 180 140 183 Q 140 196 139 200 Q 161 189 177 234 Q 180 254 160 263 Q 151 268 139 258 Q 152 322 139 403 Q 138 442 125 462 Q 114 478 94 466 Q 72 449 74 407 Q 76 353 76 301 Q 44 337 9 354 Q 6 355 3 353 Q 0 351 1 348 Q 40 275 78 201 Q 46 195 22 173 Q 8 159 23 156 Q 49 152 75 142 Q 77 68 73 18 Z" fill="black" />
  </g>
  <g class="defect" id="01">
    <path d="M 139 200 Q 161 189 177 234" fill="none" stroke="red" stroke-width="3" />
  </g>
  <g class="defect" id="02">
    <path d="M 484 347 Q 446 374 454 347" fill="none" stroke="red" stroke-width="3" />
  </g>
  <g class="defect" id="03">
    <path d="M 139 258 Q 152 322 139 403" fill="none" stroke="red" stroke-width="3" />
  </g>
</svg>