<svg xmlns="http://www.w3.org/2000/svg" width="512" height="512" viewBox="0 0 512 512">
  <g class="glyph">
    <path d="M 249 422 Q 242 430 232 431 Q 220 431 214 423 Q 201 410 202 378 Q 205 206 205 198 V 180 Q 205 156 208 140 Q 212 123 232 128 Q 247 131 262 142 Q 271 149 270 173 Q 263 276 261 381 Q 260 411 249 422 Z M 232 44 Q 276 40 293 60 Q 306 80 294 105 Q 287 118 277 118 Q 267 118 259 106 Q 242 86 228 60 Q 225 53 226 49 Q 226 45 232 44 Z M 411 52 Q 438 45 456 51 Q 476 56 493 68 Q 512 79 509 103 Q 505 163 504 256 Q 503 304 504 369 Q 505 425 490 468 Q 483 489 462 494 Q 441 498 424 483 Q 395 457 375 431 Q 366 420 379 420 Q 396 422 415 421 Q 434 419 434 404 Q 440 253 430 124 Q 430 114 426 111 Q 424 109 415 110 Q 398 111 360 120 Q 346 124 334 116 Q 323 109 320 93 Q 315 78 324 72 Q 385 59 411 52 Z M 362 148 Q 381 144 389 147 Q 403 149 412 160 Q 420 171 416 186 Q 408 218 405 229 Q 405 239 400 243 Q 395 249 383 250 Q 347 252 329 256 Q 317 259 304 251 Q 287 241 284 222 Q 278 189 284 173 Q 289 156 308 158 Q 335 153 362 148 Z M 363 195 Q 363 189 355 189 Q 333 191 324 195 Q 321 201 325 210 Q 349 210 360 206 Q 361 203 363 195 Z M 381 266 Q 394 264 403 267 Q 413 271 421 279 Q 435 289 426 307 Q 421 325 415 341 Q 417 352 411 361 Q 404 370 393 370 Q 354 370 329 380 Q 321 383 312 382 Q 302 380 297 373 Q 270 343 275 297 Q 275 282 281 278 Q 286 274 300 276 Q 309 275 317 274 Q 336 272 381 266 Z M 373 317 Q 374 306 364 306 Q 342 305 326 312 Q 320 316 322 325 Q 326 333 331 332 Q 349 329 368 328 Q 370 327 373 317 Z M 199 161 Q 193 173 178 182 Q 166 189 151 190 V 201 Q 154 205 170 215 Q 194 236 185 263 Q 180 274 168 276 Q 162 277 159 274 Q 156 271 151 266 Q 152 382 150 435 Q 147 461 128 477 Q 118 486 105 477 Q 88 463 87 436 Q 85 398 87 312 Q 54 337 17 349 Q 1 353 1 348 Q 0 344 9 332 Q 60 268 81 202 Q 55 214 30 182 Q 20 174 20 168 Q 20 162 32 160 Q 58 151 85 140 Q 85 73 80 24 Q 79 9 81 6 Q 83 2 93 1 Q 120 0 141 10 Q 161 15 159 39 Q 154 98 154 128 Q 167 126 181 125 Q 195 123 201 136 Q 206 148 199 161 Z" fill="black" />
  </g>
  <g class="defect" id="01">
    <path d="M 81 202 Q 55 214 30 182" fill="none" stroke="red" stroke-width="3" />
  </g>
</svg>