<svg xmlns="http://www.w3.org/2000/svg" width="512" height="512" viewBox="0 0 512 512">
  <g class="glyph">
    <path d="M 358 265 Q 383 258 414 254 Q 433 252 443 266 Q 451 279 451 288 Q 452 296 448 301 Q 443 306 434 307 Q 390 309 358 317 Q 355 324 352 329 Q 373 324 387 324 Q 400 325 408 330 Q 422 339 433 350 Q 440 357 436 371 Q 425 407 411 439 Q 393 481 365 498 Q 345 506 325 493 Q 297 472 286 438 Q 285 435 287 434 Q 289 433 292 433 Q 304 435 319 439 Q 329 442 333 441 Q 337 439 342 433 Q 358 409 363 376 Q 383 369 357 365 Q 346 361 336 364 Q 306 404 275 424 Q 239 446 190 448 Q 182 449 182 445 Q 181 441 187 436 Q 246 386 277 335 Q 246 337 224 315 Q 221 310 222 305 Q 224 300 230 299 Q 269 293 321 277 Q 306 266 293 248 Q 287 240 296 234 Q 321 220 345 230 Q 366 241 358 265 Z M 184 243 Q 185 254 176 260 Q 167 266 157 262 Q 156 352 156 422 Q 156 466 142 479 Q 127 488 112 479 Q 88 461 90 422 Q 92 372 91 323 Q 54 354 17 361 Q 4 364 2 361 Q 0 357 7 348 Q 50 294 89 226 V 214 Q 57 215 30 197 Q 10 181 28 175 Q 88 156 95 152 Q 96 111 90 30 Q 90 22 92 17 Q 95 12 103 11 Q 133 11 153 25 Q 170 35 169 53 Q 162 132 162 138 Q 183 133 199 144 Q 214 156 211 172 Q 209 188 191 194 Q 179 199 158 205 Q 156 214 157 219 Q 151 219 177 225 Q 185 231 184 243 Z M 365 57 Q 374 55 392 52 Q 415 49 429 64 Q 439 77 422 92 Q 409 101 395 108 Q 402 114 410 119 Q 415 123 415 127 Q 415 132 409 139 Q 399 154 388 164 Q 428 158 445 154 Q 457 151 471 157 Q 501 174 509 192 Q 512 206 497 211 Q 452 226 415 232 Q 407 233 406 232 Q 404 230 407 225 Q 413 218 418 209 Q 419 206 418 205 Q 416 204 410 205 Q 338 210 252 233 Q 248 275 226 292 Q 211 303 198 291 Q 177 265 193 233 Q 220 189 227 179 Q 233 172 242 178 Q 250 183 250 192 Q 282 186 289 184 Q 273 175 257 143 Q 253 133 261 132 Q 298 128 310 146 Q 319 165 304 182 Q 328 179 332 175 Q 354 121 356 114 Q 304 122 269 119 Q 245 116 237 110 Q 226 102 226 98 Q 226 93 238 89 Q 277 79 316 69 Q 302 51 290 19 Q 287 12 288 9 Q 289 6 297 4 Q 321 0 344 10 Q 357 16 363 30 Q 369 43 365 57 Z" fill="black" />
  </g>
  <g class="defect" id="01">
    <path d="M 157 219 Q 151 219 177 225" fill="none" stroke="red" stroke-width="3" />
  </g>
  <g class="defect" id="02">
    <path d="M 363 376 Q 383 369 357 365" fill="none" stroke="red" stroke-width="3" />
  </g>
</svg>