<svg xmlns="http://www.w3.org/2000/svg" width="512" height="512" viewBox="0 0 512 512">
  <g class="glyph">
    <path d="M 439 232 Q 454 307 446 403 Q 445 442 430 463 Q 406 498 373 473 Q 340 448 327 420 Q 324 413 326 410 Q 328 407 334 408 Q 346 411 358 413 Q 374 416 376 399 Q 382 332 372 245 Q 361 247 346 252 Q 322 260 308 244 Q 299 235 296 225 Q 293 230 282 242 Q 294 251 293 267 Q 293 319 293 371 Q 293 394 289 407 Q 282 429 262 433 Q 245 432 236 414 Q 228 396 230 363 Q 233 321 229 294 Q 229 288 227 287 Q 224 286 220 289 Q 193 303 160 307 Q 154 307 153 304 Q 152 302 157 297 Q 227 222 261 149 Q 265 140 273 138 Q 278 136 288 139 Q 311 144 322 161 Q 328 172 325 180 Q 321 192 313 202 Q 398 179 468 173 Q 487 171 497 181 Q 496 198 512 214 Q 512 227 508 229 Q 504 232 489 230 Q 453 228 439 232 Z M 90 17 Q 90 0 109 1 Q 132 3 152 12 Q 175 23 169 55 Q 160 95 158 126 Q 174 121 188 122 Q 205 125 208 138 Q 212 159 194 174 Q 181 185 153 191 V 206 Q 163 211 170 214 Q 189 222 187 242 Q 185 256 176 264 Q 166 274 152 269 Q 150 268 149 269 Q 148 269 148 272 Q 147 352 146 431 Q 146 464 135 478 Q 125 489 113 489 Q 103 489 95 483 Q 86 477 84 467 Q 81 451 81 421 Q 81 401 82 368 Q 84 339 85 310 Q 85 308 83 307 Q 82 306 81 308 Q 52 339 9 347 Q 4 347 2 346 Q 0 344 3 339 Q 58 263 71 208 Q 41 204 17 181 Q 11 174 11 170 Q 12 165 21 162 Q 70 149 92 141 Q 92 78 90 17 Z M 259 31 Q 263 21 279 23 Q 306 25 318 40 Q 326 50 325 61 Q 324 71 316 81 Q 299 106 273 123 Q 246 141 219 142 Q 214 143 211 138 Q 208 133 211 128 Q 244 72 259 31 Z M 429 60 Q 444 58 456 63 Q 470 70 471 82 Q 471 95 458 105 Q 437 120 413 128 Q 386 137 366 134 Q 355 131 346 126 Q 334 119 330 110 Q 324 99 334 93 Q 360 84 392 71 Q 413 62 429 60 Z" fill="black" />
  </g>
  <g class="defect" id="01">
    <path d="M 497 181 Q 496 198 512 214" fill="none" stroke="red" stroke-width="3" />
  </g>
  <g class="defect" id="02">
    <path d="M 489 230 Q 453 228 439 232" fill="none" stroke="red" stroke-width="3" />
  </g>
</svg>