<svg xmlns="http://www.w3.org/2000/svg" width="512" height="512" viewBox="0 0 512 512">
  <g class="glyph">
    <path d="M 113 288 Q 109 377 76 449 Q 69 466 58 469 Q 47 473 36 461 Q 21 441 13 422 Q 7 409 8 404 Q 9 397 18 391 Q 54 343 97 285 Q 103 276 108 277 Q 113 277 113 288 Z M 56 41 Q 93 29 124 45 Q 138 54 141 71 Q 144 86 138 101 Q 129 122 113 125 Q 97 128 84 111 Q 63 82 49 67 Q 40 58 42 51 Q 43 46 56 41 Z M 16 178 Q 50 168 75 182 Q 84 188 90 204 Q 95 220 92 234 Q 87 252 74 257 Q 59 261 45 247 Q 20 225 6 201 Q 0 192 2 187 Q 3 182 16 178 Z M 258 208 Q 259 256 262 278 Q 285 275 307 269 Q 312 233 312 209 Q 287 211 258 208 Z M 143 448 Q 184 411 209 368 Q 217 350 237 355 Q 249 358 262 365 Q 274 372 275 384 Q 276 396 264 409 Q 214 465 149 465 Q 134 465 132 462 Q 131 458 143 448 Z M 331 372 Q 327 364 327 362 Q 328 360 335 359 Q 364 358 391 364 Q 421 371 432 383 Q 443 396 444 417 Q 444 437 434 454 Q 424 475 405 473 Q 385 472 378 450 Q 335 422 331 372 Z M 189 353 Q 169 360 155 356 Q 138 351 125 332 Q 96 302 117 314 Q 119 308 132 306 Q 144 303 194 291 Q 189 197 174 111 Q 172 87 194 86 Q 205 87 217 88 Q 257 65 303 18 Q 315 0 338 10 Q 357 18 369 33 Q 379 44 376 55 Q 374 67 359 74 Q 305 97 249 113 Q 257 123 257 144 Q 257 153 257 163 Q 277 169 327 147 Q 373 133 396 131 Q 431 129 442 160 Q 446 171 438 181 Q 432 190 420 193 Q 403 197 369 202 Q 382 209 378 225 Q 376 236 369 261 Q 412 256 452 257 Q 478 256 489 274 Q 498 289 504 304 Q 512 327 505 335 Q 498 344 477 338 Q 389 312 314 320 Q 270 325 189 353 Z" fill="black" />
  </g>
  <g class="defect" id="01">
    <path d="M 378 450 Q 335 422 331 372" fill="none" stroke="red" stroke-width="3" />
  </g>
  <g class="defect" id="02">
    <path d="M 257 163 Q 277 169 327 147" fill="none" stroke="red" stroke-width="3" />
  </g>
  <g class="defect" id="03">
    <path d="M 125 332 Q 96 302 117 314" fill="none" stroke="red" stroke-width="3" />
  </g>
</svg>