<svg xmlns="http://www.w3.org/2000/svg" width="512" height="512" viewBox="0 0 512 512">
  <g class="glyph">
    <path d="M 333 294 Q 304 304 277 314 Q 290 319 293 334 Q 323 329 387 324 Q 417 322 426 330 Q 446 352 451 378 Q 453 390 447 394 Q 443 397 428 394 Q 333 374 312 385 Q 385 442 460 462 Q 468 464 469 468 Q 469 471 462 477 Q 428 502 394 507 Q 356 512 338 495 Q 302 460 276 426 Q 256 468 221 485 Q 188 501 146 495 Q 132 494 131 491 Q 130 488 141 480 Q 195 446 215 403 Q 195 408 181 416 Q 165 424 157 424 Q 146 426 135 417 Q 116 402 110 381 Q 108 374 111 371 Q 114 369 126 368 Q 165 366 221 347 Q 222 341 221 331 Q 195 340 183 331 Q 171 325 160 310 Q 149 298 165 288 Q 179 281 209 258 Q 192 261 183 263 Q 172 266 163 261 Q 151 254 148 244 Q 145 236 158 228 Q 191 206 232 160 Q 250 169 251 157 Q 263 163 269 171 Q 274 180 268 188 Q 261 196 251 204 Q 241 212 240 214 Q 251 214 257 213 Q 260 210 285 183 Q 299 165 314 170 Q 334 173 351 187 Q 362 198 345 209 Q 296 237 247 274 Q 275 274 318 263 Q 314 256 314 254 Q 311 247 313 244 Q 315 242 322 242 Q 334 242 352 247 Q 370 253 375 268 Q 381 282 375 300 Q 372 310 362 313 Q 353 317 346 311 Q 341 307 333 294 Z M 46 69 Q 71 61 96 64 Q 120 67 126 85 Q 132 103 122 126 Q 110 151 85 140 Q 66 129 36 89 Q 31 82 33 77 Q 35 72 46 69 Z M 19 206 Q 39 201 57 204 Q 78 206 87 221 Q 96 236 92 257 Q 88 272 77 276 Q 67 280 54 272 Q 29 258 10 234 Q 0 223 2 217 Q 3 210 19 206 Z M 109 302 Q 118 293 121 295 Q 123 296 121 309 Q 112 354 97 398 Q 81 447 65 467 Q 58 477 48 478 Q 40 479 33 473 Q 18 458 10 433 Q 6 420 18 405 Q 82 329 109 302 Z M 148 118 Q 174 114 190 123 Q 203 131 204 147 Q 205 163 194 173 Q 180 185 168 175 Q 153 161 141 133 Q 138 126 139 123 Q 141 119 148 118 Z M 236 112 Q 236 104 238 102 Q 239 100 244 99 Q 270 97 282 108 Q 295 118 293 131 Q 292 143 280 152 Q 266 164 254 155 Q 239 142 236 112 Z M 342 85 Q 348 73 360 77 Q 379 81 393 95 Q 406 109 393 121 Q 363 147 311 156 Q 300 159 298 156 Q 296 153 304 144 Q 323 120 342 85 Z M 284 10 Q 293 0 304 2 Q 320 4 334 12 Q 349 21 354 33 Q 359 49 347 58 Q 325 72 276 84 Q 223 97 187 95 Q 176 94 175 91 Q 175 88 185 82 Q 240 47 284 10 Z" fill="black" />
  </g>
  <g class="defect" id="01">
    <path d="M 232 160 Q 250 169 251 157" fill="none" stroke="red" stroke-width="3" />
  </g>
</svg>