<svg xmlns="http://www.w3.org/2000/svg" width="512" height="512" viewBox="0 0 512 512">
  <g class="glyph">
    <path d="M 183 28 Q 180 11 185 5 Q 189 0 203 1 Q 226 3 246 12 Q 262 18 259 39 Q 257 54 256 69 Q 253 86 278 71 Q 297 77 301 90 Q 305 109 280 120 Q 273 123 249 130 Q 245 143 242 156 Q 257 154 276 147 Q 290 141 295 141 Q 302 140 312 145 Q 325 153 330 159 Q 346 176 322 190 Q 297 206 266 213 Q 260 214 259 213 Q 257 212 259 206 Q 260 202 261 195 Q 217 205 150 222 Q 142 251 131 272 Q 126 282 118 284 Q 109 285 101 276 Q 82 256 91 228 Q 97 208 120 179 Q 129 167 141 180 Q 164 178 179 170 Q 181 166 184 145 Q 163 145 159 143 Q 149 139 140 128 Q 135 122 135 116 Q 134 110 144 107 Q 151 106 188 90 Q 189 63 183 28 Z M 55 63 Q 82 61 103 66 Q 116 70 123 89 Q 130 106 126 123 Q 122 143 106 146 Q 90 149 77 133 Q 48 127 41 86 Q 33 74 35 69 Q 38 64 55 63 Z M 15 202 Q 40 198 61 204 Q 72 207 77 219 Q 83 230 82 242 Q 82 261 64 267 Q 45 272 33 258 Q 13 242 5 222 Q 0 212 2 208 Q 5 204 15 202 Z M 106 307 Q 111 303 114 305 Q 116 306 115 313 Q 100 391 76 458 Q 70 474 60 474 Q 49 474 38 459 Q 28 443 20 427 Q 9 407 26 392 Q 72 342 106 307 Z M 145 261 Q 140 249 145 244 Q 150 240 163 240 Q 180 239 202 234 Q 229 227 244 220 Q 262 214 277 222 Q 296 230 298 240 Q 299 249 288 263 Q 263 289 240 304 Q 248 314 251 323 Q 264 319 277 310 Q 281 307 284 310 Q 287 312 285 316 Q 278 334 262 357 Q 262 398 259 424 Q 255 454 243 478 Q 234 498 216 499 Q 198 501 182 485 Q 165 467 155 449 Q 152 443 153 440 Q 155 438 162 439 Q 170 440 175 440 Q 186 440 189 438 Q 193 435 194 427 Q 197 413 196 399 Q 177 415 156 423 Q 137 434 127 418 Q 115 402 111 388 Q 107 375 126 370 Q 169 359 198 340 Q 193 321 184 308 Q 179 300 182 297 Q 186 293 197 292 Q 202 292 209 292 Q 223 284 227 266 Q 214 272 192 284 Q 168 298 155 280 Q 152 274 145 261 Z M 418 181 Q 432 179 438 179 Q 462 180 496 197 Q 512 206 511 224 Q 507 245 503 266 Q 492 343 486 375 Q 478 422 459 460 Q 444 490 423 496 Q 401 501 382 481 Q 364 461 351 436 Q 347 426 348 424 Q 350 422 361 425 Q 379 431 389 427 Q 398 424 403 409 Q 428 332 432 243 Q 432 236 430 234 Q 428 231 423 232 Q 421 233 407 235 Q 388 320 360 369 Q 327 426 275 444 Q 267 447 264 444 Q 262 441 267 433 Q 314 360 338 252 Q 326 255 318 251 Q 311 247 302 233 Q 295 224 296 218 Q 297 214 307 212 Q 324 210 347 203 Q 354 155 357 108 Q 357 90 353 65 Q 350 50 357 45 Q 363 41 381 44 Q 404 48 417 57 Q 436 69 431 95 Q 424 143 418 181 Z" fill="black" />
  </g>
  <g class="defect" id="01">
    <path d="M 77 133 Q 48 127 41 86" fill="none" stroke="red" stroke-width="3" />
  </g>
  <g class="defect" id="02">
    <path d="M 256 69 Q 253 86 278 71" fill="none" stroke="red" stroke-width="3" />
  </g>
</svg>