<svg xmlns="http://www.w3.org/2000/svg" width="512" height="512" viewBox="0 0 512 512">
  <g class="glyph">
    <path d="M 142 14 Q 148 0 164 6 Q 193 18 215 38 Q 226 47 214 64 Q 185 106 163 126 Q 171 146 174 164 Q 194 301 177 384 Q 170 422 148 446 Q 121 476 88 454 Q 64 437 44 404 Q 41 397 43 394 Q 46 391 54 392 Q 64 394 81 395 Q 97 396 101 382 Q 114 332 109 291 Q 83 314 64 323 Q 41 334 21 331 Q 4 328 2 326 Q 0 324 10 314 Q 39 287 64 256 Q 92 220 103 195 Q 104 184 99 171 Q 66 194 21 195 Q 12 195 12 192 Q 11 189 17 183 Q 50 151 72 119 Q 46 93 12 69 Q 5 63 6 60 Q 7 56 18 53 Q 64 43 109 71 Q 128 48 142 14 Z M 485 234 Q 428 223 383 227 Q 382 318 374 415 Q 371 458 353 497 Q 366 494 340 508 Q 333 508 329 499 Q 314 467 311 421 Q 304 335 302 247 Q 285 253 240 272 Q 212 285 190 229 Q 165 227 187 209 Q 190 204 206 201 Q 247 193 301 176 Q 300 136 298 107 Q 259 107 243 92 Q 234 83 234 77 Q 235 71 246 65 Q 284 46 362 26 Q 379 22 397 21 Q 435 21 446 56 Q 445 70 424 80 Q 399 92 370 99 Q 384 107 384 125 Q 384 144 383 163 Q 442 156 465 157 Q 480 157 488 168 Q 504 186 509 210 Q 512 224 505 230 Q 498 237 485 234 Z" fill="black" />
  </g>
  <g class="defect" id="01">
    <path d="M 397 21 Q 435 21 446 56" fill="none" stroke="red" stroke-width="3" />
  </g>
  <g class="defect" id="02">
    <path d="M 353 497 Q 366 494 340 508" fill="none" stroke="red" stroke-width="3" />
  </g>
  <g class="defect" id="03">
    <path d="M 190 229 Q 165 227 187 209" fill="none" stroke="red" stroke-width="3" />
  </g>
</svg>