<svg xmlns="http://www.w3.org/2000/svg" width="512" height="512" viewBox="0 0 512 512">
  <g class="glyph">
    <path d="M 256 373 Q 270 381 250 444 Q 246 478 236 495 Q 225 512 218 512 Q 211 512 204 496 Q 195 478 192 448 Q 188 419 187 381 Q 141 390 61 420 Q 41 427 25 411 Q 9 395 2 368 Q 0 358 2 356 Q 3 354 12 353 Q 80 350 186 328 Q 188 319 185 311 Q 176 316 167 319 Q 153 325 144 319 Q 131 308 131 287 Q 131 276 142 266 Q 165 248 184 222 Q 167 223 137 220 Q 124 219 122 210 Q 120 199 124 182 Q 126 173 134 173 Q 142 171 147 165 Q 166 143 179 123 Q 167 126 152 126 Q 113 125 94 106 Q 90 103 90 100 Q 91 95 98 94 Q 135 86 188 69 Q 172 39 164 21 Q 159 9 174 6 Q 211 0 234 19 Q 253 34 246 57 Q 278 50 307 48 Q 341 45 347 72 Q 349 87 334 92 Q 279 106 230 116 Q 232 121 233 126 Q 235 134 231 140 Q 219 157 197 181 Q 201 184 209 186 Q 230 163 254 124 Q 261 112 273 118 Q 295 126 301 143 Q 305 154 296 166 Q 278 192 255 215 Q 239 230 229 242 Q 248 239 262 236 Q 259 231 259 228 Q 259 224 261 222 Q 262 220 268 219 Q 294 215 316 234 Q 323 242 323 258 Q 323 280 312 291 Q 296 305 281 292 Q 274 285 270 272 Q 237 287 218 294 Q 241 299 242 300 Q 255 306 256 318 Q 325 310 400 310 Q 423 310 433 330 Q 441 348 442 372 Q 442 384 433 388 Q 426 391 415 387 Q 351 365 256 373 Z M 343 117 Q 347 105 360 106 Q 372 108 384 117 Q 397 126 399 136 Q 401 150 388 158 Q 354 177 324 186 Q 296 189 312 185 Q 310 181 315 172 Q 334 141 343 117 Z M 40 158 Q 67 150 79 150 Q 101 152 108 169 Q 116 185 104 203 Q 91 221 72 209 Q 55 197 35 175 Q 30 171 32 165 Q 34 161 40 158 Z M 393 277 Q 379 293 362 280 Q 338 256 323 219 Q 320 214 322 212 Q 323 210 328 210 Q 366 226 378 215 Q 396 219 400 236 Q 405 259 393 277 Z M 121 238 Q 127 235 128 236 Q 131 238 128 244 Q 110 297 90 327 Q 80 343 61 333 Q 49 326 36 293 Q 32 284 41 279 Q 84 256 121 238 Z" fill="black" />
  </g>
  <g class="defect" id="01">
    <path d="M 256 373 Q 270 381 250 444" fill="none" stroke="red" stroke-width="3" />
  </g>
  <g class="defect" id="02">
    <path d="M 324 186 Q 296 189 312 185" fill="none" stroke="red" stroke-width="3" />
  </g>
  <g class="defect" id="03">
    <path d="M 328 210 Q 366 226 378 215" fill="none" stroke="red" stroke-width="3" />
  </g>
</svg>