<svg xmlns="http://www.w3.org/2000/svg" width="512" height="512" viewBox="0 0 512 512">
  <g class="glyph">
    <path d="M 163 289 Q 218 280 274 270 Q 279 217 277 174 Q 242 172 222 156 Q 215 151 215 147 Q 216 143 225 140 Q 264 127 279 120 Q 297 87 277 27 Q 276 15 280 9 Q 285 3 295 3 Q 317 0 335 8 Q 355 16 353 39 Q 351 68 348 97 Q 361 92 371 92 Q 396 93 407 117 Q 413 133 395 142 Q 368 157 342 165 Q 335 214 332 261 Q 373 255 430 250 Q 447 248 458 262 Q 467 273 471 292 Q 473 304 468 310 Q 461 317 446 314 Q 390 305 336 308 Q 369 344 398 374 Q 429 405 497 440 Q 511 445 511 452 Q 512 459 496 465 Q 466 476 425 477 Q 399 478 377 456 Q 349 427 311 368 Q 293 414 261 440 Q 229 465 192 463 Q 178 462 176 458 Q 173 452 185 445 Q 212 422 232 389 Q 251 357 260 323 Q 235 332 209 342 Q 191 347 178 334 Q 169 323 163 307 Q 163 342 153 390 Q 142 442 127 462 Q 101 496 73 471 Q 48 445 36 418 Q 32 409 36 405 Q 38 402 44 404 Q 57 409 67 409 Q 81 409 85 392 Q 96 351 96 308 Q 56 334 21 341 Q 7 344 3 337 Q -19 318 10 321 Q 76 256 97 218 Q 97 200 90 182 Q 48 208 23 215 Q 9 218 6 213 Q 3 208 12 198 Q 31 141 67 131 Q 48 103 28 86 Q 21 80 22 75 Q 22 70 29 69 Q 62 62 98 82 Q 114 55 120 20 Q 122 7 138 8 Q 152 8 167 15 Q 184 22 192 33 Q 206 49 190 73 Q 172 101 143 137 Q 168 229 163 289 Z M 199 196 Q 221 189 237 193 Q 255 197 263 215 Q 273 238 260 255 Q 254 263 243 264 Q 233 264 227 257 Q 219 248 208 226 Q 203 216 196 210 Q 191 206 192 202 Q 193 198 199 196 Z M 366 176 Q 369 170 374 167 Q 381 165 387 166 Q 406 171 419 186 Q 428 198 417 208 Q 387 238 350 253 Q 344 255 341 252 Q 338 250 341 243 Q 356 212 366 176 Z" fill="black" />
  </g>
  <g class="defect" id="01">
    <path d="M 12 198 Q 31 141 67 131" fill="none" stroke="red" stroke-width="3" />
  </g>
  <g class="defect" id="02">
    <path d="M 3 337 Q -19 318 10 321" fill="none" stroke="red" stroke-width="3" />
  </g>
  <g class="defect" id="03">
    <path d="M 279 120 Q 297 87 277 27" fill="none" stroke="red" stroke-width="3" />
  </g>
</svg>