<svg xmlns="http://www.w3.org/2000/svg" width="512" height="512" viewBox="0 0 512 512">
  <g class="glyph">
    <path d="M 203 9 Q 236 0 265 8 Q 292 17 292 37 Q 293 51 286 68 Q 280 83 261 84 Q 242 84 232 72 Q 211 47 197 24 Q 205 33 195 15 Q 196 11 203 9 Z M 336 178 Q 369 176 365 179 Q 391 186 403 196 Q 411 202 413 209 Q 417 218 412 226 Q 388 263 384 286 Q 389 300 385 312 Q 380 326 366 327 Q 270 332 222 351 Q 218 367 221 386 Q 225 402 236 412 Q 247 421 264 423 Q 353 436 409 412 Q 429 404 440 382 Q 445 370 450 351 Q 454 343 456 343 Q 459 343 464 351 Q 479 376 485 408 Q 491 436 472 457 Q 456 475 425 486 Q 330 512 259 496 Q 220 489 194 460 Q 168 432 165 396 Q 162 347 170 276 Q 174 246 169 217 Q 168 208 177 202 Q 188 196 214 198 Q 269 188 336 178 Z M 27 181 Q 56 175 75 185 Q 91 194 90 214 Q 90 225 83 237 Q 72 255 53 241 Q 30 225 18 197 Q 14 189 17 186 Q 19 182 27 181 Z M 90 139 Q 86 117 103 107 Q 119 98 139 105 Q 155 108 184 103 Q 216 97 361 72 Q 380 68 396 80 Q 413 94 415 108 Q 417 128 396 131 Q 322 138 161 160 Q 166 221 148 307 Q 130 395 103 436 Q 72 482 32 494 Q 22 497 19 493 Q 18 489 23 478 Q 66 404 83 322 Q 63 343 53 352 Q 39 364 26 351 Q 14 342 3 311 Q 0 302 3 298 Q 6 295 17 294 Q 35 288 90 259 Q 98 205 90 139 Z M 302 277 H 310 Q 321 277 326 263 Q 328 256 330 238 Q 330 233 328 231 Q 327 229 323 230 Q 318 230 301 233 L 302 233 Q 314 238 310 252 Q 303 275 302 277 Z M 255 241 Q 236 245 224 249 Q 233 255 231 266 Q 229 279 227 293 Q 232 292 250 289 Q 250 265 255 241 Z" fill="black" />
  </g>
  <g class="defect" id="01">
    <path d="M 336 178 Q 369 176 365 179" fill="none" stroke="red" stroke-width="3" />
  </g>
  <g class="defect" id="02">
    <path d="M 197 24 Q 205 33 195 15" fill="none" stroke="red" stroke-width="3" />
  </g>
  <g class="defect" id="03">
    <path d="M 425 486 Q 330 512 259 496" fill="none" stroke="red" stroke-width="3" />
  </g>
</svg>