<svg xmlns="http://www.w3.org/2000/svg" width="512" height="512" viewBox="0 0 512 512">
  <g class="glyph">
    <path d="M 189 216 Q 185 222 179 226 Q 188 222 204 226 Q 211 228 213 233 Q 215 237 206 241 Q 114 277 62 296 Q 92 291 125 283 Q 193 266 279 256 Q 295 254 303 263 Q 314 275 314 291 Q 314 299 309 302 Q 306 303 297 302 Q 263 299 158 316 Q 162 322 162 335 Q 182 332 226 319 Q 251 312 265 317 Q 279 323 292 332 Q 302 343 295 357 Q 281 385 281 404 Q 281 424 304 429 Q 338 436 376 424 Q 391 418 397 402 Q 404 386 410 370 Q 411 366 414 366 Q 418 366 420 369 Q 442 402 445 431 Q 450 458 427 475 Q 406 491 374 495 Q 312 501 265 483 Q 226 467 223 428 Q 195 445 163 468 Q 135 488 111 503 Q 98 512 88 503 Q 81 496 75 481 Q 69 468 74 450 Q 97 384 98 332 Q 81 337 68 327 Q 54 318 51 300 Q 35 310 22 299 Q 10 290 4 276 Q 0 265 2 262 Q 4 258 14 257 Q 46 253 76 246 Q 62 229 60 225 Q 57 220 58 217 Q 60 214 66 213 Q 93 212 104 222 Q 111 228 108 239 Q 122 236 135 233 Q 145 217 148 202 Q 107 207 84 212 Q 65 216 53 197 Q 40 172 52 146 Q 56 138 67 137 Q 76 137 86 135 Q 112 133 139 125 Q 149 121 161 124 Q 173 126 188 134 Q 201 143 199 155 Q 195 173 192 181 Q 204 193 174 196 Q 183 200 187 204 Q 193 211 189 216 Z M 99 2 Q 118 0 133 5 Q 145 10 149 20 Q 152 25 152 33 Q 163 31 182 30 Q 194 29 206 32 Q 219 36 221 46 Q 219 58 205 62 Q 179 70 149 70 V 81 Q 163 79 176 79 Q 208 62 199 92 Q 200 100 193 106 Q 188 110 179 111 Q 133 120 86 124 Q 58 125 41 115 Q 36 112 36 108 Q 36 105 41 103 Q 58 98 87 90 V 77 Q 61 80 59 80 Q 37 81 19 71 Q 15 69 14 63 Q 13 57 18 56 Q 53 49 87 41 Q 87 29 86 16 Q 86 9 88 6 Q 91 2 99 2 Z M 279 24 Q 283 17 286 15 Q 290 12 298 14 Q 321 20 334 29 Q 343 33 342 41 Q 342 47 336 56 Q 301 103 231 113 Q 224 114 222 111 Q 220 108 224 103 Q 263 57 279 24 Z M 141 171 Q 146 170 146 167 Q 147 162 147 159 Q 147 154 139 155 Q 118 158 94 165 Q 91 173 96 180 Q 121 174 141 171 Z M 228 371 Q 229 364 227 363 Q 226 361 219 363 Q 193 371 154 379 Q 147 406 140 428 Q 137 436 138 438 Q 139 440 144 438 Q 200 413 223 417 Q 223 397 228 371 Z M 171 380 Q 179 378 188 379 Q 204 381 209 391 Q 215 402 202 412 Q 190 420 181 414 Q 172 407 164 389 Q 161 382 171 380 Z M 320 94 Q 335 101 345 111 Q 353 125 342 138 Q 295 181 229 184 Q 221 184 221 180 Q 221 176 227 171 Q 241 159 271 128 Q 295 104 296 102 Q 309 90 320 94 Z M 222 249 Q 203 247 221 238 Q 274 209 331 153 Q 342 142 354 156 Q 364 166 367 175 Q 373 188 362 198 Q 308 247 222 249 Z" fill="black" />
  </g>
  <g class="defect" id="01">
    <path d="M 192 181 Q 204 193 174 196" fill="none" stroke="red" stroke-width="3" />
  </g>
  <g class="defect" id="02">
    <path d="M 176 79 Q 208 62 199 92" fill="none" stroke="red" stroke-width="3" />
  </g>
  <g class="defect" id="03">
    <path d="M 297 302 Q 263 299 158 316" fill="none" stroke="red" stroke-width="3" />
  </g>
</svg>