<svg xmlns="http://www.w3.org/2000/svg" width="512" height="512" viewBox="0 0 512 512">
  <g class="glyph">
    <path d="M 189 308 Q 240 305 288 294 Q 287 287 286 279 Q 285 266 296 266 Q 341 266 347 283 Q 351 286 356 284 Q 436 276 446 276 Q 472 274 479 283 Q 488 293 491 310 Q 494 324 490 330 Q 487 335 477 333 Q 423 325 368 328 Q 421 367 507 402 Q 512 404 511 408 Q 511 412 507 415 Q 488 427 465 437 Q 432 451 397 416 Q 374 394 351 372 Q 355 430 355 443 Q 356 462 348 479 Q 338 500 320 500 Q 302 499 294 485 Q 287 471 288 439 Q 289 403 289 397 Q 237 454 167 447 Q 159 446 156 443 Q 154 439 162 434 Q 225 394 266 347 Q 247 353 227 358 Q 198 367 184 347 Q 178 365 159 368 Q 135 372 124 375 Q 119 394 106 398 Q 92 401 82 392 Q 71 382 68 365 Q 66 350 65 331 Q 41 351 15 361 Q 7 365 3 361 Q 0 358 5 350 Q 35 305 62 249 Q 90 191 98 155 Q 65 156 46 142 Q 38 136 39 130 Q 39 123 50 118 Q 120 89 161 80 Q 181 76 196 83 Q 209 90 210 104 Q 209 119 193 127 Q 176 136 142 149 Q 163 160 149 191 Q 143 204 133 225 Q 156 221 168 223 Q 202 229 196 254 Q 191 277 189 308 Z M 351 4 Q 366 0 379 8 Q 390 14 397 20 Q 410 34 402 44 Q 385 64 368 83 Q 379 86 386 93 Q 393 99 392 107 Q 391 118 384 122 Q 376 126 358 123 Q 335 118 330 118 Q 304 137 284 146 Q 261 156 230 160 Q 221 161 221 155 Q 220 149 227 145 Q 258 128 283 101 Q 268 97 242 85 Q 235 82 237 76 Q 239 69 250 67 Q 279 64 312 71 Q 321 61 326 48 Q 287 61 248 46 Q 239 42 239 36 Q 240 30 250 28 Q 303 18 351 4 Z M 321 246 Q 324 262 311 263 Q 295 263 282 260 Q 253 299 203 298 Q 194 297 193 294 Q 191 290 198 286 Q 226 267 235 250 Q 205 244 199 225 Q 199 220 212 218 Q 220 217 231 217 Q 241 217 251 217 Q 255 211 256 204 Q 256 200 250 201 Q 235 209 220 203 Q 205 198 198 182 Q 197 175 205 175 Q 247 174 270 158 Q 280 151 302 160 Q 321 171 318 185 Q 310 207 301 224 Q 318 229 321 246 Z M 465 242 Q 468 255 458 263 Q 448 271 436 263 Q 412 250 402 242 Q 373 271 345 272 Q 335 271 332 266 Q 330 260 335 254 Q 348 239 358 221 Q 356 219 347 215 Q 332 208 328 204 Q 324 199 326 196 Q 328 192 334 190 Q 347 186 376 189 Q 381 183 385 173 Q 388 165 384 166 Q 370 171 355 175 Q 338 177 319 161 Q 313 156 314 152 Q 316 148 326 146 Q 352 142 409 124 Q 416 123 423 126 Q 436 133 448 145 Q 462 158 453 173 Q 445 190 432 208 Q 480 222 465 242 Z M 143 273 Q 143 267 136 268 Q 117 272 110 276 Q 109 307 115 334 Q 131 330 139 325 Q 142 295 143 273 Z" fill="black" />
  </g>
  <g class="defect" id="01">
    <path d="M 432 208 Q 480 222 465 242" fill="none" stroke="red" stroke-width="3" />
  </g>
</svg>