<svg xmlns="http://www.w3.org/2000/svg" width="512" height="512" viewBox="0 0 512 512">
  <g class="glyph">
    <path d="M 244 16 Q 246 4 249 2 Q 252 0 263 1 Q 308 3 306 34 Q 340 30 365 31 Q 375 33 380 36 Q 385 40 387 46 Q 395 68 372 73 Q 332 81 271 82 Q 250 101 224 113 Q 216 116 208 114 Q 203 112 208 103 Q 238 55 244 16 Z M 126 120 Q 123 112 132 111 Q 156 110 168 115 Q 180 120 179 135 Q 178 151 166 156 Q 154 162 142 149 Q 130 137 126 120 Z M 223 316 Q 350 296 413 306 Q 426 308 437 325 Q 446 339 449 355 Q 431 363 449 372 Q 448 384 435 384 Q 425 383 391 372 Q 349 358 330 359 Q 331 404 324 469 Q 323 485 315 498 Q 307 510 298 511 Q 291 512 282 497 Q 288 482 272 472 Q 265 426 262 353 Q 227 352 185 365 Q 204 371 204 383 Q 202 420 175 447 Q 149 473 106 481 Q 97 482 93 479 Q 89 476 95 471 Q 111 451 121 429 Q 133 403 132 386 Q 96 401 58 410 Q 38 409 23 394 Q 9 380 3 360 Q 0 349 4 345 Q 8 342 23 342 Q 55 341 136 328 Q 183 320 223 316 Z M 191 42 Q 206 41 216 56 Q 228 71 217 82 Q 188 103 123 106 Q 85 132 58 151 Q 51 154 46 153 Q 39 151 43 142 Q 74 81 89 27 Q 94 8 116 13 Q 136 17 146 29 Q 154 40 149 50 Q 170 46 191 42 Z M 312 137 Q 318 137 320 137 Q 339 142 353 156 Q 369 172 365 191 Q 352 252 330 284 Q 320 297 306 296 Q 275 294 238 300 Q 219 304 170 316 Q 143 322 127 310 Q 111 297 104 275 Q 92 225 102 185 Q 106 166 119 164 Q 182 159 285 141 Q 296 140 305 138 Q 304 138 303 137 Q 294 135 286 123 Q 279 113 274 100 Q 272 93 273 90 Q 275 87 282 86 Q 294 84 306 88 Q 320 91 325 100 Q 330 109 326 122 Q 321 134 312 137 Z M 252 261 Q 265 260 291 255 Q 299 207 299 178 Q 273 182 247 186 Q 248 191 249 202 Q 259 201 263 201 Q 272 200 279 206 Q 285 212 286 219 Q 287 234 267 240 Q 255 243 251 244 Q 251 253 252 261 Z M 201 270 Q 200 261 200 252 Q 193 252 185 252 Q 179 252 170 245 Q 162 238 161 231 Q 160 221 167 218 Q 176 216 197 212 Q 196 203 196 194 Q 170 198 151 200 Q 148 212 153 239 Q 157 268 165 274 Q 181 273 201 270 Z" fill="black" />
  </g>
  <g class="defect" id="01">
    <path d="M 282 497 Q 288 482 272 472" fill="none" stroke="red" stroke-width="3" />
  </g>
  <g class="defect" id="02">
    <path d="M 123 106 Q 85 132 58 151" fill="none" stroke="red" stroke-width="3" />
  </g>
  <g class="defect" id="03">
    <path d="M 449 355 Q 431 363 449 372" fill="none" stroke="red" stroke-width="3" />
  </g>
</svg>