<svg xmlns="http://www.w3.org/2000/svg" width="512" height="512" viewBox="0 0 512 512">
  <g class="glyph">
    <path d="M 264 111 Q 293 108 308 116 Q 319 121 319 136 Q 318 147 312 159 Q 308 168 298 168 Q 288 168 282 162 Q 268 150 257 125 Q 253 118 254 115 Q 255 111 264 111 Z M 103 133 Q 127 133 140 135 Q 154 138 155 156 Q 157 173 145 181 Q 127 192 109 172 Q 101 162 91 148 Q 84 140 89 136 Q 93 133 103 133 Z M 289 47 Q 307 41 312 39 Q 312 51 344 35 Q 361 40 368 53 Q 363 55 363 75 Q 350 87 333 91 Q 297 99 251 101 Q 227 126 198 144 Q 187 151 182 147 Q 177 142 184 129 Q 214 67 229 8 Q 230 0 241 0 Q 268 1 289 17 Q 299 28 289 45 Z M 201 282 Q 205 281 241 272 Q 253 228 255 221 Q 225 226 194 231 Q 209 240 204 259 Q 201 268 201 282 Z M 145 293 Q 145 271 145 249 Q 145 246 141 241 Q 131 244 112 250 Q 110 276 105 300 Q 118 297 145 293 Z M 126 70 Q 147 65 157 62 Q 170 57 182 62 Q 194 67 197 82 Q 200 93 183 104 Q 168 113 141 119 Q 116 125 80 130 Q 49 163 17 178 Q 4 184 2 180 Q 0 176 7 163 Q 46 94 59 36 Q 62 19 76 19 Q 105 19 126 39 Q 137 50 127 67 Q 126 69 126 70 Z M 93 354 Q 91 367 92 381 Q 90 423 138 425 Q 254 429 333 406 Q 352 400 363 392 Q 376 382 381 365 Q 385 351 396 311 Q 396 305 400 305 Q 404 305 407 310 Q 426 335 435 363 Q 445 394 439 423 Q 436 440 419 454 Q 405 467 387 472 Q 258 512 120 488 Q 95 483 74 469 Q 50 453 42 431 Q 34 407 33 379 Q 33 360 37 327 Q 45 278 48 221 Q 49 210 58 205 Q 65 200 77 202 Q 94 205 111 203 Q 192 189 254 171 Q 273 165 288 171 Q 307 179 327 197 Q 343 215 329 232 Q 312 253 304 271 Q 308 282 308 289 Q 312 302 304 312 Q 296 321 283 322 Q 227 328 175 342 Q 131 354 93 354 Z" fill="black" />
  </g>
  <g class="defect" id="01">
    <path d="M 312 39 Q 312 51 344 35" fill="none" stroke="red" stroke-width="3" />
  </g>
  <g class="defect" id="02">
    <path d="M 368 53 Q 363 55 363 75" fill="none" stroke="red" stroke-width="3" />
  </g>
</svg>