<svg xmlns="http://www.w3.org/2000/svg" width="512" height="512" viewBox="0 0 512 512">
  <g class="glyph">
    <path d="M 248 166 Q 256 178 255 196 Q 267 218 255 305 Q 255 361 251 421 Q 250 442 237 455 Q 226 466 216 459 Q 208 453 200 438 Q 195 428 196 413 Q 202 311 200 224 Q 189 233 170 240 Q 165 242 163 241 Q 159 239 162 235 Q 165 230 167 225 Q 154 233 139 238 V 245 Q 157 246 162 248 Q 172 253 175 263 Q 179 273 176 284 Q 172 300 158 298 Q 147 295 138 285 Q 139 326 140 348 Q 141 407 139 428 Q 136 452 131 459 Q 126 466 114 468 Q 103 470 93 459 Q 84 448 83 435 Q 81 379 85 324 Q 62 351 16 370 Q 6 373 3 370 Q 0 366 6 359 Q 57 293 74 250 Q 34 252 11 240 Q 3 236 2 230 Q 1 221 12 216 Q 34 205 87 188 Q 88 126 80 26 Q 79 14 87 9 Q 103 0 124 9 Q 146 19 145 37 Q 142 81 141 173 Q 162 168 172 170 Q 181 172 187 181 Q 207 133 226 54 Q 229 41 228 32 Q 228 21 232 17 Q 235 12 244 13 Q 270 16 284 36 Q 292 47 287 64 Q 277 104 248 166 Z M 28 109 Q 40 106 52 108 Q 68 110 75 126 Q 82 141 76 157 Q 66 177 48 165 Q 32 152 23 127 Q 20 119 20 116 Q 21 111 28 109 Z M 156 89 Q 157 79 167 78 Q 182 77 193 88 Q 201 96 193 110 Q 182 128 156 141 Q 151 144 148 142 Q 146 140 147 134 Q 149 116 156 89 Z M 331 332 Q 323 337 310 340 Q 292 345 277 333 Q 264 323 258 304 Q 257 301 258 298 Q 259 295 264 295 Q 288 295 339 280 Q 341 261 338 244 Q 335 244 334 244 Q 313 265 285 274 Q 273 277 271 273 Q 268 270 273 261 Q 300 215 309 173 Q 288 186 278 172 Q 270 163 263 144 Q 260 133 272 132 Q 294 129 323 119 Q 339 114 361 108 Q 365 93 370 79 Q 371 77 370 76 Q 369 75 366 76 Q 354 80 349 82 Q 339 87 320 77 Q 302 67 299 52 Q 296 42 301 40 Q 302 39 314 36 Q 352 29 387 19 Q 395 16 408 21 Q 421 27 431 44 Q 438 56 431 68 Q 426 77 421 85 Q 417 93 416 98 Q 432 96 448 96 Q 462 96 469 108 Q 472 114 476 126 Q 468 138 477 143 Q 473 149 460 148 Q 426 143 403 145 Q 358 148 332 161 Q 360 167 357 195 Q 369 194 393 182 Q 414 173 428 183 Q 439 192 442 200 Q 448 220 419 230 Q 400 236 389 238 Q 396 249 391 270 Q 393 270 410 265 Q 453 253 465 271 Q 477 288 479 301 Q 482 312 477 316 Q 473 318 461 317 Q 414 311 388 316 Q 434 383 506 415 Q 512 419 505 425 Q 485 442 457 452 Q 427 460 411 440 Q 389 408 373 379 Q 360 415 333 436 Q 302 460 267 452 Q 255 449 254 446 Q 251 441 264 434 Q 307 411 324 360 Q 330 341 331 332 Z" fill="black" />
  </g>
  <g class="defect" id="01">
    <path d="M 255 196 Q 267 218 255 305" fill="none" stroke="red" stroke-width="3" />
  </g>
  <g class="defect" id="02">
    <path d="M 476 126 Q 468 138 477 143" fill="none" stroke="red" stroke-width="3" />
  </g>
</svg>