<svg xmlns="http://www.w3.org/2000/svg" width="512" height="512" viewBox="0 0 512 512">
  <g class="glyph">
    <path d="M 90 9 Q 133 -15 139 12 Q 160 23 155 51 Q 152 110 152 180 Q 163 176 183 171 Q 198 167 209 176 Q 221 185 221 200 Q 221 212 216 217 Q 212 221 198 227 Q 171 239 151 245 V 253 Q 169 254 175 257 Q 193 264 192 287 Q 191 300 186 307 Q 179 316 166 312 Q 156 308 151 301 Q 152 387 150 429 Q 150 446 146 464 Q 142 478 129 482 Q 117 485 108 480 Q 92 469 89 445 Q 106 422 93 334 Q 67 366 16 382 Q 4 386 2 382 Q 1 378 9 368 Q 54 315 80 258 Q 35 260 8 247 Q 0 243 1 235 Q 1 227 11 224 Q 33 217 93 196 Q 94 122 89 67 Q 88 47 86 26 Q 85 17 85 16 Q 86 11 90 9 Z M 32 113 Q 50 110 64 114 Q 81 119 87 135 Q 91 149 87 165 Q 83 178 72 180 Q 62 181 53 174 Q 35 160 24 133 Q 17 116 32 113 Z M 172 83 Q 175 74 186 74 Q 205 73 217 84 Q 232 96 221 111 Q 207 133 174 150 Q 165 155 161 153 Q 158 151 159 141 Q 142 116 172 83 Z M 397 198 Q 409 197 434 195 Q 458 192 471 203 Q 488 215 499 227 Q 512 241 505 260 Q 491 316 464 391 Q 456 412 436 422 Q 423 428 411 417 Q 403 411 401 403 Q 357 390 303 404 Q 290 407 279 413 Q 260 423 245 415 Q 225 403 216 373 Q 194 302 205 238 Q 208 219 234 217 Q 257 215 258 215 Q 270 214 281 212 Q 282 185 278 162 Q 242 156 223 137 Q 216 130 219 125 Q 221 120 232 116 Q 348 82 413 82 Q 432 82 445 88 Q 460 95 462 107 Q 467 134 425 142 Q 409 146 388 148 Q 404 153 400 174 Q 398 189 397 198 Z M 394 241 Q 394 261 395 270 Q 396 276 401 278 Q 409 280 410 280 Q 421 286 422 301 Q 421 313 408 318 Q 397 323 385 320 Q 360 316 351 297 Q 345 282 345 250 V 246 Q 340 247 330 248 Q 330 250 330 252 Q 323 304 279 330 Q 269 337 265 333 Q 260 330 265 320 Q 275 295 279 258 Q 266 261 257 265 Q 250 280 255 316 Q 261 353 274 355 Q 349 339 398 343 Q 409 345 416 348 Q 425 313 431 250 Q 432 245 431 242 Q 430 241 426 241 Q 418 240 394 241 Z M 346 204 Q 349 169 347 154 Q 339 156 330 157 Q 332 181 332 206 Q 339 205 346 204 Z" fill="black" />
  </g>
  <g class="defect" id="01">
    <path d="M 89 445 Q 106 422 93 334" fill="none" stroke="red" stroke-width="3" />
  </g>
  <g class="defect" id="02">
    <path d="M 159 141 Q 142 116 172 83" fill="none" stroke="red" stroke-width="3" />
  </g>
  <g class="defect" id="03">
    <path d="M 90 9 Q 133 -15 139 12" fill="none" stroke="red" stroke-width="3" />
  </g>
</svg>