<svg xmlns="http://www.w3.org/2000/svg" width="512" height="512" viewBox="0 0 512 512">
  <g class="glyph">
    <path d="M 384 159 Q 428 157 433 157 Q 442 157 447 159 Q 452 160 458 165 Q 474 179 474 211 Q 474 228 456 224 Q 415 212 379 212 Q 305 210 242 234 Q 226 240 210 235 Q 178 223 169 190 Q 149 216 113 257 Q 126 256 138 255 Q 152 253 159 256 Q 164 259 170 268 Q 178 282 160 290 Q 123 308 52 341 Q 34 350 24 334 Q 19 327 10 310 Q 1 296 17 282 Q 44 258 71 221 Q 54 215 26 213 Q 9 211 6 201 Q 2 187 2 171 Q -15 143 10 154 Q 17 149 26 135 Q 62 79 83 17 Q 83 8 90 4 Q 96 0 106 2 Q 134 9 149 23 Q 167 38 154 62 Q 128 108 81 155 Q 79 157 80 159 Q 80 160 83 160 Q 87 162 105 164 Q 122 138 136 107 Q 141 96 153 98 Q 180 102 194 124 Q 203 140 192 157 Q 181 174 173 184 Q 194 184 213 181 Q 285 166 335 160 Q 339 117 342 73 Q 343 66 341 64 Q 339 62 332 63 Q 295 71 257 72 Q 229 73 215 56 Q 211 52 212 48 Q 213 45 219 42 Q 285 20 361 9 Q 373 8 381 11 Q 396 18 407 24 Q 423 34 417 54 Q 410 74 403 95 Q 389 139 384 159 Z M 295 91 Q 308 87 317 94 Q 327 99 330 110 Q 334 124 320 133 Q 288 153 249 144 Q 222 138 211 121 Q 207 113 216 111 Q 265 100 295 91 Z M 188 267 Q 183 257 194 255 Q 226 248 250 264 Q 262 271 264 285 Q 267 299 261 313 Q 256 324 242 320 Q 207 308 188 267 Z M 191 363 Q 232 339 259 323 Q 264 320 267 321 Q 270 323 268 328 Q 248 380 207 424 Q 191 442 175 428 Q 159 413 153 388 Q 150 378 160 375 Q 175 371 191 363 Z M 165 307 Q 171 303 174 305 Q 177 307 175 313 Q 144 394 84 438 Q 81 442 43 442 Q 26 433 9 408 Q 0 395 16 386 Q 113 340 165 307 Z M 349 262 Q 349 277 348 282 Q 368 260 379 234 Q 385 219 400 222 Q 427 225 441 242 Q 454 260 434 274 Q 400 298 349 296 Q 416 345 496 378 Q 502 380 502 385 Q 502 388 496 393 Q 474 414 446 425 Q 423 438 400 418 Q 372 395 342 357 Q 341 422 338 452 Q 335 481 315 496 Q 295 512 272 495 Q 242 471 225 445 Q 222 439 223 436 Q 225 434 231 435 Q 241 438 254 438 Q 266 438 270 434 Q 275 429 276 420 Q 281 356 280 295 Q 279 269 276 239 Q 274 222 292 223 Q 316 224 337 239 Q 349 246 349 262 Z" fill="black" />
  </g>
  <g class="defect" id="01">
    <path d="M 84 438 Q 81 442 43 442" fill="none" stroke="red" stroke-width="3" />
  </g>
  <g class="defect" id="02">
    <path d="M 2 171 Q -15 143 10 154" fill="none" stroke="red" stroke-width="3" />
  </g>
</svg>