<svg xmlns="http://www.w3.org/2000/svg" width="512" height="512" viewBox="0 0 512 512">
  <g class="glyph">
    <path d="M 292 20 Q 288 8 289 4 Q 292 0 303 0 Q 329 0 346 6 Q 378 17 365 57 Q 356 79 331 68 Q 305 56 292 20 Z M 83 37 Q 91 14 115 22 Q 133 27 147 38 Q 163 50 149 76 Q 126 120 92 169 Q 91 172 91 173 Q 92 174 94 175 Q 102 178 110 181 Q 130 140 141 112 Q 147 96 166 104 Q 172 111 195 120 Q 205 130 196 148 Q 156 220 129 257 Q 127 261 128 262 Q 129 263 134 262 Q 141 259 149 259 Q 163 258 171 263 Q 182 272 171 283 Q 127 320 67 352 Q 40 365 30 344 Q 22 331 20 318 Q 18 301 29 292 Q 62 257 73 235 Q 40 230 28 230 Q 18 229 14 226 Q 10 222 9 212 Q 8 197 5 182 Q 2 165 18 160 Q 33 156 40 139 Q 69 78 83 37 Z M 153 324 Q 164 317 169 319 Q 174 321 170 333 Q 159 363 131 399 Q 103 436 79 455 Q 58 472 37 455 Q 20 440 11 423 Q 0 405 20 398 Q 52 385 58 382 Q 113 351 153 324 Z M 350 410 Q 346 404 347 401 Q 349 398 357 398 Q 417 396 445 424 Q 454 433 454 452 Q 472 470 444 484 Q 421 512 400 485 Q 369 441 350 410 Z M 291 141 Q 278 144 262 140 Q 253 168 243 186 Q 234 204 224 207 Q 214 210 204 199 Q 185 178 199 150 Q 221 111 229 96 Q 233 89 241 92 Q 252 95 262 102 Q 330 82 445 76 Q 458 75 466 79 Q 484 88 494 104 Q 506 124 482 136 Q 455 147 411 157 Q 402 160 400 157 Q 407 155 401 148 Q 406 140 408 136 Q 410 131 408 128 Q 407 126 402 126 Q 358 126 291 141 Z M 402 323 Q 428 321 450 321 Q 461 321 467 323 Q 473 324 479 330 Q 498 348 501 379 Q 502 390 494 394 Q 487 398 477 395 Q 424 380 376 378 Q 323 375 262 394 Q 265 395 267 395 Q 283 401 297 413 Q 310 424 299 441 Q 263 495 189 489 Q 179 488 178 484 Q 178 480 185 475 Q 224 446 245 405 Q 246 402 249 398 Q 223 408 207 413 Q 186 420 178 407 Q 170 397 166 375 Q 163 366 166 362 Q 169 358 179 356 Q 210 354 234 348 Q 237 347 240 346 Q 234 301 234 247 Q 234 231 237 214 Q 239 203 244 198 Q 249 193 262 191 Q 304 181 333 154 Q 344 141 362 147 Q 379 152 389 165 Q 404 182 378 195 Q 340 212 297 226 Q 296 234 296 252 Q 347 237 389 228 Q 432 220 441 259 Q 443 268 437 276 Q 432 284 420 285 Q 413 286 397 287 Q 398 288 401 289 Q 412 295 405 313 Q 402 320 402 323 Z M 337 292 Q 317 294 297 296 Q 297 315 297 335 Q 320 331 330 330 Q 333 322 337 310 Q 339 300 337 292 Z" fill="black" />
  </g>
  <g class="defect" id="01">
    <path d="M 166 104 Q 172 111 195 120" fill="none" stroke="red" stroke-width="3" />
  </g>
  <g class="defect" id="02">
    <path d="M 454 452 Q 472 470 444 484" fill="none" stroke="red" stroke-width="3" />
  </g>
  <g class="defect" id="03">
    <path d="M 400 157 Q 407 155 401 148" fill="none" stroke="red" stroke-width="3" />
  </g>
</svg>