<svg xmlns="http://www.w3.org/2000/svg" width="512" height="512" viewBox="0 0 512 512">
  <g class="glyph">
    <path d="M 329 144 Q 326 154 311 158 Q 298 162 288 165 V 186 Q 312 185 318 204 Q 325 221 308 232 Q 302 236 286 240 Q 286 253 285 266 L 287 265 Q 325 259 329 292 Q 331 304 326 309 Q 323 313 310 316 Q 293 320 277 323 Q 253 451 168 471 Q 157 473 155 471 Q 152 468 159 460 Q 194 420 209 346 Q 205 349 199 350 Q 187 356 177 348 Q 171 344 165 338 Q 133 404 78 446 Q 55 463 37 442 Q 24 428 19 412 Q 16 402 18 397 Q 20 392 29 389 Q 82 369 159 331 Q 156 328 154 324 Q 150 318 151 314 Q 153 311 162 307 Q 178 299 200 290 Q 224 285 219 283 Q 220 265 220 245 Q 194 243 182 231 Q 177 221 184 219 Q 207 209 220 205 L 221 204 Q 221 190 220 176 Q 194 178 182 166 Q 181 167 179 171 Q 150 216 115 261 Q 112 265 113 266 Q 114 269 119 266 Q 125 262 134 259 Q 156 252 166 272 Q 173 285 158 294 Q 104 327 59 347 Q 40 357 29 344 Q 19 333 17 311 Q 16 300 25 294 Q 55 267 72 238 Q 54 232 30 236 Q 15 239 10 226 Q 5 211 2 193 Q 0 181 9 174 Q 25 161 34 147 Q 61 105 75 33 Q 80 17 100 20 Q 123 24 141 39 Q 151 49 143 68 Q 123 120 86 174 Q 83 178 83 179 Q 84 180 88 182 Q 100 187 101 188 Q 113 165 130 119 Q 134 108 147 111 Q 170 118 181 135 Q 183 137 185 143 Q 208 132 217 128 Q 216 115 215 101 Q 208 29 207 23 Q 205 13 212 6 Q 217 0 226 0 Q 251 0 273 9 Q 290 14 288 38 Q 286 79 286 100 V 103 Q 318 97 327 119 Q 327 113 333 108 Q 338 102 343 102 Q 356 102 373 100 Q 399 97 422 89 Q 432 86 442 82 Q 457 74 470 82 Q 485 89 496 100 Q 510 113 494 135 Q 454 190 442 204 Q 437 211 437 215 Q 438 217 443 219 Q 482 235 500 277 Q 507 293 505 318 Q 503 344 491 362 Q 482 375 467 379 Q 453 383 443 373 Q 422 353 400 315 Q 398 311 399 308 Q 401 305 406 306 Q 416 307 429 310 Q 438 312 442 308 Q 447 304 445 296 Q 435 263 403 234 Q 397 227 397 219 Q 385 229 400 204 Q 410 175 414 150 Q 415 146 413 144 Q 411 142 408 143 Q 399 145 389 146 Q 389 274 388 399 Q 386 457 366 502 Q 361 510 357 511 Q 351 512 347 502 Q 328 452 331 393 Q 333 293 330 178 Q 330 161 329 144 Z" fill="black" />
  </g>
  <g class="defect" id="01">
    <path d="M 200 290 Q 224 285 219 283" fill="none" stroke="red" stroke-width="3" />
  </g>
  <g class="defect" id="02">
    <path d="M 397 219 Q 385 229 400 204" fill="none" stroke="red" stroke-width="3" />
  </g>
</svg>