<svg xmlns="http://www.w3.org/2000/svg" width="512" height="512" viewBox="0 0 512 512">
  <g class="glyph">
    <path d="M 143 145 Q 153 146 167 143 Q 177 140 187 145 Q 194 148 204 157 Q 214 164 207 187 Q 192 248 175 271 Q 166 284 154 288 Q 139 293 128 286 Q 112 274 104 245 Q 101 236 104 233 Q 108 229 114 234 Q 122 240 127 238 Q 131 236 134 228 Q 140 210 142 190 Q 143 185 141 183 Q 139 181 136 182 Q 107 232 80 254 Q 55 275 21 281 Q 9 284 7 279 Q 6 275 13 267 Q 63 212 84 154 Q 65 165 45 163 Q 22 162 10 144 Q 0 130 2 127 Q 4 123 26 117 Q 85 102 144 84 Q 191 67 200 87 Q 205 96 200 103 Q 195 110 174 121 Q 155 131 140 137 Q 144 140 143 145 Z M 115 17 Q 136 15 152 23 Q 166 30 163 54 Q 161 69 149 73 Q 137 77 123 66 Q 111 56 101 37 Q 96 26 99 22 Q 102 18 115 17 Z M 341 174 Q 392 195 447 213 Q 454 215 455 219 Q 455 223 449 228 Q 425 249 399 260 Q 382 268 365 254 Q 303 205 273 179 Q 272 193 272 223 Q 272 226 274 228 Q 276 229 280 228 Q 289 226 297 223 Q 308 219 310 223 Q 312 226 303 236 Q 284 257 261 272 Q 254 277 249 275 Q 242 272 231 261 Q 222 251 226 241 Q 230 227 230 209 Q 230 157 229 138 Q 228 121 225 117 Q 216 123 204 129 Q 197 133 195 130 Q 192 127 197 120 Q 232 69 241 22 Q 243 9 248 5 Q 254 0 266 2 Q 283 6 295 16 Q 304 21 299 37 Q 313 34 339 27 Q 354 23 365 27 Q 379 32 382 47 Q 384 57 375 63 Q 368 66 349 70 Q 312 78 280 78 Q 266 92 249 103 Q 259 105 271 110 Q 289 102 306 87 Q 314 80 319 79 Q 324 78 332 81 Q 341 85 349 90 Q 355 94 355 100 Q 354 105 346 111 Q 311 132 275 132 V 145 Q 302 157 317 164 Q 333 148 355 118 Q 360 108 372 111 Q 381 114 391 122 Q 402 131 390 142 Q 366 162 341 174 Z M 176 381 V 393 Q 193 390 206 388 Q 226 384 235 387 Q 231 390 246 399 Q 251 411 243 418 Q 235 424 205 430 Q 181 413 174 435 Q 174 444 173 453 Q 172 473 165 481 Q 158 488 144 484 Q 115 477 117 430 Q 118 387 125 328 Q 127 304 134 298 Q 140 293 164 295 Q 197 284 248 278 Q 274 275 285 277 Q 298 278 318 288 Q 330 295 334 301 Q 337 306 337 318 Q 335 372 337 456 Q 337 475 329 490 Q 320 504 306 508 Q 289 512 266 500 Q 242 487 224 461 Q 218 452 219 448 Q 221 444 231 445 Q 242 447 252 446 Q 259 446 262 443 Q 265 439 265 431 Q 266 376 264 333 Q 263 325 261 323 Q 259 320 254 321 Q 222 322 188 329 Q 181 329 178 332 Q 175 334 176 341 Q 191 339 195 338 Q 220 333 231 334 Q 241 336 244 346 Q 249 360 242 366 Q 236 372 214 376 Q 198 379 176 381 Z" fill="black" />
  </g>
  <g class="defect" id="01">
    <path d="M 235 387 Q 231 390 246 399" fill="none" stroke="red" stroke-width="3" />
  </g>
  <g class="defect" id="02">
    <path d="M 205 430 Q 181 413 174 435" fill="none" stroke="red" stroke-width="3" />
  </g>
</svg>