<svg xmlns="http://www.w3.org/2000/svg" width="512" height="512" viewBox="0 0 512 512">
  <g class="glyph">
    <path d="M 336 198 Q 353 192 362 195 Q 371 197 391 210 Q 409 222 408 232 Q 408 242 391 255 Q 370 270 348 282 Q 353 284 359 289 Q 389 284 418 282 Q 447 281 457 285 Q 468 290 476 310 Q 486 334 481 341 Q 476 347 453 342 Q 416 335 380 335 Q 387 441 363 473 Q 341 512 309 487 Q 284 468 267 443 Q 259 432 261 428 Q 263 424 274 427 Q 287 431 298 431 Q 308 432 311 429 Q 315 425 317 414 Q 326 374 320 345 Q 307 349 279 363 Q 258 373 247 371 Q 234 369 220 351 Q 207 335 210 328 Q 212 321 233 318 Q 264 312 309 301 Q 304 294 303 287 Q 301 278 305 275 Q 310 271 322 272 Q 333 259 343 240 Q 345 237 343 236 Q 342 236 338 237 Q 327 242 312 251 Q 279 273 257 241 Q 250 231 253 225 Q 256 221 267 218 Q 297 212 336 198 Z M 358 58 Q 360 58 363 58 Q 381 57 389 61 Q 399 65 402 77 Q 420 106 392 99 Q 380 108 356 111 Q 351 111 347 112 Q 345 125 342 138 Q 379 131 408 127 Q 434 124 444 128 Q 456 132 474 151 Q 483 162 480 169 Q 477 176 462 182 Q 441 191 417 194 Q 393 197 390 196 Q 386 194 397 181 Q 402 174 401 172 Q 398 170 388 171 Q 317 182 260 201 Q 251 223 244 232 Q 236 242 229 241 Q 210 240 207 216 Q 203 194 214 177 Q 229 152 240 149 Q 250 145 258 159 Q 292 149 301 148 Q 301 137 300 111 Q 283 109 262 99 Q 251 94 251 89 Q 251 84 264 79 Q 285 72 297 69 Q 297 63 296 53 Q 292 14 297 7 Q 302 0 330 6 Q 352 11 358 19 Q 366 28 361 49 Q 360 54 358 58 Z M 106 161 Q 127 161 130 177 Q 135 200 124 209 Q 115 216 105 218 Q 104 247 103 261 Q 124 260 129 275 Q 137 299 117 308 Q 111 310 98 312 Q 90 371 71 404 Q 54 433 20 455 Q 24 449 5 459 Q 0 456 5 444 Q 63 320 44 114 Q 41 78 48 70 Q 35 79 78 70 Q 92 63 123 55 Q 151 48 162 48 Q 175 49 195 59 Q 211 69 205 109 Q 196 198 197 358 Q 199 417 194 437 Q 189 457 172 469 Q 154 484 123 452 Q 108 436 101 420 Q 96 412 97 409 Q 98 405 105 408 Q 116 411 124 410 Q 131 410 133 407 Q 136 404 136 396 Q 140 275 135 121 Q 135 111 130 112 Q 114 115 106 121 Z" fill="black" />
  </g>
  <g class="defect" id="01">
    <path d="M 48 70 Q 35 79 78 70" fill="none" stroke="red" stroke-width="3" />
  </g>
  <g class="defect" id="02">
    <path d="M 20 455 Q 24 449 5 459" fill="none" stroke="red" stroke-width="3" />
  </g>
  <g class="defect" id="03">
    <path d="M 402 77 Q 420 106 392 99" fill="none" stroke="red" stroke-width="3" />
  </g>
</svg>