<svg xmlns="http://www.w3.org/2000/svg" width="512" height="512" viewBox="0 0 512 512">
  <g class="glyph">
    <path d="M 343 109 Q 312 111 282 116 Q 268 118 265 122 Q 263 125 265 136 Q 284 132 302 129 Q 324 126 332 129 Q 342 133 344 149 Q 345 160 337 165 Q 329 170 305 173 Q 280 177 271 180 Q 272 189 274 197 Q 311 193 350 185 Q 356 158 359 128 Q 360 115 357 112 Q 354 109 343 109 Z M 351 368 Q 355 421 354 441 Q 354 459 350 475 Q 340 512 303 508 Q 280 503 252 463 Q 244 451 246 446 Q 247 442 260 446 Q 278 451 285 447 Q 291 444 292 428 Q 294 390 292 342 Q 270 406 202 430 Q 190 435 186 432 Q 183 429 190 418 Q 220 373 232 345 Q 237 335 230 337 Q 208 344 195 315 Q 189 303 191 299 Q 194 295 205 293 Q 220 291 237 286 Q 238 294 273 287 Q 288 293 291 301 Q 289 263 286 247 Q 283 247 281 247 Q 256 260 238 248 Q 223 238 220 213 Q 214 160 210 133 Q 205 103 212 91 Q 219 79 244 76 Q 261 49 272 19 Q 277 5 283 3 Q 290 0 301 4 Q 321 11 328 15 Q 352 28 333 50 Q 322 64 313 71 Q 333 69 348 65 Q 383 54 419 79 Q 443 93 429 122 Q 413 162 403 200 Q 396 228 384 236 Q 373 243 351 236 Q 331 237 340 237 Q 351 249 349 278 Q 349 287 349 295 Q 366 277 396 237 Q 405 224 419 229 Q 441 237 451 251 Q 461 267 441 278 Q 403 300 372 311 Q 423 350 497 378 Q 508 382 509 385 Q 510 390 502 397 Q 471 422 441 434 Q 428 440 420 439 Q 413 437 403 426 Q 374 396 351 368 Z M 100 167 Q 118 167 122 184 Q 126 210 116 216 Q 106 221 99 223 Q 99 225 98 261 Q 118 261 122 276 Q 129 301 111 310 Q 104 313 92 315 Q 84 374 65 406 Q 49 435 18 453 Q 7 460 3 458 Q 0 456 4 443 Q 32 362 39 298 Q 47 225 38 103 Q 37 86 44 81 Q 51 75 71 81 Q 82 78 112 65 Q 146 47 183 77 Q 193 82 189 115 Q 184 203 186 363 Q 188 422 182 447 Q 177 468 162 478 Q 152 485 143 483 Q 131 481 117 465 Q 98 445 89 428 Q 84 418 86 414 Q 88 410 95 411 Q 106 413 115 414 Q 119 414 122 411 Q 144 406 125 399 Q 127 223 124 132 Q 124 123 119 123 Q 112 123 100 130 Q 100 149 100 167 Z" fill="black" />
  </g>
  <g class="defect" id="01">
    <path d="M 122 411 Q 144 406 125 399" fill="none" stroke="red" stroke-width="3" />
  </g>
  <g class="defect" id="02">
    <path d="M 351 236 Q 331 237 340 237" fill="none" stroke="red" stroke-width="3" />
  </g>
  <g class="defect" id="03">
    <path d="M 237 286 Q 238 294 273 287" fill="none" stroke="red" stroke-width="3" />
  </g>
</svg>