<svg xmlns="http://www.w3.org/2000/svg" width="512" height="512" viewBox="0 0 512 512">
  <g class="glyph">
    <path d="M 241 150 Q 262 164 242 186 Q 224 212 179 243 Q 184 244 188 244 Q 200 243 212 242 Q 245 204 253 188 Q 259 176 273 181 Q 300 192 308 203 Q 319 218 307 230 Q 288 249 271 264 Q 245 289 196 331 Q 230 327 264 323 Q 277 304 285 277 Q 288 265 290 262 Q 294 258 301 258 Q 322 261 338 274 Q 357 289 350 308 Q 343 367 280 416 Q 239 457 168 484 Q 95 512 29 509 Q 18 508 16 503 Q 15 499 28 495 Q 94 474 149 442 Q 207 408 233 370 Q 178 410 125 410 Q 107 418 92 407 Q 79 397 71 377 Q 65 363 68 355 Q 71 346 83 345 Q 108 343 133 325 Q 146 316 167 295 Q 124 299 113 301 Q 98 305 91 296 Q 83 287 82 262 Q 82 254 87 250 Q 90 247 103 241 Q 129 230 154 200 Q 180 170 182 148 Q 183 131 196 135 Q 220 138 241 150 Z M 338 49 Q 373 48 395 49 Q 405 49 417 64 Q 430 82 432 106 Q 433 114 426 118 Q 420 121 411 119 Q 366 108 316 106 Q 301 130 274 146 Q 261 154 257 152 Q 251 149 254 134 Q 257 120 259 106 Q 240 107 218 109 Q 194 113 174 117 V 139 Q 174 152 169 160 Q 163 170 152 170 Q 139 169 129 162 Q 119 154 117 143 Q 115 138 114 132 Q 103 135 63 148 Q 48 152 33 142 Q 15 131 5 106 Q 0 95 2 91 Q 4 86 15 85 Q 38 83 102 73 Q 100 65 95 48 Q 91 32 94 26 Q 97 21 110 21 Q 130 20 153 25 Q 171 30 173 59 V 63 Q 195 60 216 56 Q 223 55 266 51 Q 266 30 265 18 Q 265 6 268 3 Q 271 0 282 1 Q 347 6 340 36 Q 340 41 338 49 Z" fill="black" />
  </g>
  <g class="defect" id="01">
    <path d="M 350 308 Q 343 367 280 416" fill="none" stroke="red" stroke-width="3" />
  </g>
  <g class="defect" id="02">
    <path d="M 233 370 Q 178 410 125 410" fill="none" stroke="red" stroke-width="3" />
  </g>
</svg>