<svg xmlns="http://www.w3.org/2000/svg" width="512" height="512" viewBox="0 0 512 512">
  <g class="glyph">
    <path d="M 63 174 Q 84 169 102 173 Q 123 177 130 192 Q 138 209 131 228 Q 124 246 107 245 Q 88 241 76 223 Q 64 206 56 190 Q 52 184 54 180 Q 55 176 63 174 Z M 343 197 Q 392 188 411 205 Q 427 220 424 253 Q 423 278 409 285 Q 399 289 383 270 Q 368 250 339 218 Q 332 209 332 205 Q 332 200 343 197 Z M 315 280 Q 324 261 344 270 Q 360 275 367 281 Q 393 299 384 315 Q 334 411 273 461 Q 210 512 148 503 Q 136 502 132 499 Q 129 496 139 490 Q 193 459 238 406 Q 286 350 315 280 Z M 10 275 Q 36 266 59 269 Q 84 271 92 291 Q 97 303 92 315 Q 87 328 74 332 Q 46 341 7 291 Q 3 286 2 282 Q 0 278 10 275 Z M 107 351 Q 117 345 120 345 Q 141 345 123 355 Q 119 395 105 438 Q 90 487 75 497 Q 62 506 48 495 Q 34 486 29 466 Q 17 426 48 395 Q 77 367 107 351 Z M 239 175 Q 239 162 242 158 Q 245 154 255 155 Q 291 157 307 189 Q 307 218 304 261 Q 300 306 287 319 Q 274 333 258 325 Q 241 317 241 298 Q 239 176 239 175 Z M 154 274 Q 166 243 192 229 Q 199 225 202 225 Q 206 226 207 234 Q 211 266 204 294 Q 195 326 176 327 Q 161 328 153 311 Q 146 293 154 274 Z M 324 54 Q 367 52 391 54 Q 401 55 413 74 Q 426 93 425 112 Q 426 121 422 127 Q 418 133 410 131 Q 360 116 295 115 Q 274 141 253 147 Q 242 151 235 148 Q 227 145 231 136 Q 234 129 238 115 Q 227 116 216 117 Q 198 119 172 125 Q 172 128 172 134 Q 171 144 166 152 Q 145 162 151 162 Q 141 161 133 155 Q 126 148 125 140 Q 125 139 124 137 Q 88 147 71 154 Q 56 160 38 152 Q 17 142 8 115 Q 5 105 6 103 Q 8 99 18 98 Q 35 97 109 82 Q 102 52 100 42 Q 97 30 103 26 Q 105 23 117 21 Q 144 20 161 27 Q 168 31 170 38 Q 172 43 173 55 Q 173 63 173 70 Q 195 67 216 63 Q 232 62 248 59 Q 251 31 250 16 Q 250 9 254 6 Q 257 5 266 3 Q 295 0 314 10 Q 330 19 328 34 Q 328 35 324 54 Z" fill="black" />
  </g>
  <g class="defect" id="01">
    <path d="M 255 155 Q 291 157 307 189" fill="none" stroke="red" stroke-width="3" />
  </g>
  <g class="defect" id="02">
    <path d="M 120 345 Q 141 345 123 355" fill="none" stroke="red" stroke-width="3" />
  </g>
  <g class="defect" id="03">
    <path d="M 166 152 Q 145 162 151 162" fill="none" stroke="red" stroke-width="3" />
  </g>
</svg>