<svg xmlns="http://www.w3.org/2000/svg" width="512" height="512" viewBox="0 0 512 512">
  <g class="glyph">
    <path d="M 327 378 Q 269 376 212 383 Q 211 419 220 432 Q 242 431 273 430 Q 304 430 317 425 Q 324 405 327 378 Z M 177 211 Q 182 207 188 194 Q 193 181 198 173 Q 213 155 235 165 Q 246 170 256 181 Q 265 191 270 202 Q 297 200 324 198 Q 408 191 451 196 Q 467 199 479 223 Q 491 248 489 270 Q 487 278 477 281 Q 469 282 460 280 Q 356 251 245 263 Q 239 268 230 284 Q 221 301 211 316 Q 237 319 339 308 Q 373 302 406 325 Q 436 346 424 380 Q 410 408 387 446 Q 396 466 392 479 Q 386 494 363 496 Q 340 494 275 496 Q 238 497 220 497 Q 178 512 159 482 Q 144 460 141 412 Q 93 459 28 477 Q 13 481 5 477 Q 1 474 6 467 Q 109 362 143 289 Q 85 312 62 313 Q 28 315 11 285 Q 5 276 3 267 Q 0 254 6 250 Q 13 245 19 245 Q 26 245 33 244 Q 113 232 177 211 Z M 383 47 Q 409 45 425 48 Q 433 49 443 65 Q 454 83 453 103 Q 453 114 447 119 Q 440 126 429 123 Q 395 117 360 115 Q 335 161 290 179 Q 257 193 270 169 Q 260 166 287 117 Q 281 117 261 120 Q 250 121 208 131 Q 208 138 208 144 Q 207 158 202 166 Q 196 176 187 177 Q 174 178 163 168 Q 152 159 149 146 Q 119 154 103 156 Q 86 158 70 143 Q 53 129 53 110 Q 52 102 56 99 Q 59 95 67 95 Q 89 93 136 86 Q 131 66 126 46 Q 123 30 127 23 Q 132 19 144 18 Q 158 16 186 22 Q 207 27 208 52 Q 208 65 208 72 Q 231 69 253 65 Q 277 60 298 58 Q 300 32 300 22 Q 300 9 306 5 Q 312 0 324 1 Q 352 3 368 12 Q 388 23 384 42 Q 384 45 383 47 Z" fill="black" />
  </g>
  <g class="defect" id="01">
    <path d="M 270 169 Q 260 166 287 117" fill="none" stroke="red" stroke-width="3" />
  </g>
</svg>