<svg xmlns="http://www.w3.org/2000/svg" width="512" height="512" viewBox="0 0 512 512">
  <g class="glyph">
    <path d="M 205 344 Q 204 333 212 325 Q 221 318 231 317 Q 240 317 249 321 Q 258 326 261 333 Q 337 331 376 333 Q 400 333 410 341 Q 419 348 426 366 Q 433 385 429 394 Q 424 402 409 399 Q 330 379 263 384 Q 261 428 255 472 Q 253 485 244 498 Q 234 512 226 510 Q 218 509 213 497 Q 206 482 204 459 Q 204 423 203 387 Q 123 408 47 430 Q 19 439 3 387 Q 0 379 4 376 Q 8 372 24 371 Q 67 367 132 353 Q 141 342 145 333 Q 98 330 98 230 Q 98 197 107 184 Q 114 175 128 173 Q 129 173 151 172 Q 159 155 168 138 Q 174 127 179 125 Q 184 122 195 123 Q 215 126 220 130 Q 228 135 225 143 Q 222 152 206 164 Q 265 152 290 148 Q 311 152 328 162 Q 350 174 346 188 Q 335 226 324 263 Q 335 308 306 305 Q 296 314 280 311 Q 250 311 210 318 Q 201 332 193 346 Q 197 346 205 344 Z M 274 194 Q 247 194 233 197 Q 233 205 232 212 Q 240 210 246 212 Q 263 218 264 231 Q 264 243 249 250 Q 244 253 230 256 Q 228 267 225 275 Q 246 273 267 271 Q 275 219 274 194 Z M 179 220 Q 182 212 183 204 Q 163 206 151 212 Q 141 252 155 290 Q 162 289 165 286 Q 178 284 173 260 Q 157 258 153 246 Q 149 235 156 227 Q 168 223 179 220 Z M 313 52 Q 351 52 375 57 Q 382 58 391 77 Q 400 97 397 110 Q 394 123 381 118 Q 344 104 283 102 Q 262 123 241 127 Q 233 129 231 128 Q 228 126 230 119 Q 233 110 235 102 Q 225 103 214 103 Q 198 105 173 111 V 114 Q 172 136 157 140 Q 137 144 127 123 Q 103 130 82 137 Q 70 141 60 134 Q 46 126 36 102 Q 33 95 35 92 Q 37 87 45 87 Q 57 85 113 75 Q 109 58 104 41 Q 97 18 114 16 Q 139 15 156 21 Q 169 24 170 43 Q 171 55 171 65 Q 191 62 212 58 Q 227 56 246 55 Q 249 40 252 13 Q 254 0 265 2 Q 323 19 319 34 Q 318 40 313 52 Z" fill="black" />
  </g>
  <g class="defect" id="01">
    <path d="M 165 286 Q 178 284 173 260" fill="none" stroke="red" stroke-width="3" />
  </g>
  <g class="defect" id="02">
    <path d="M 324 263 Q 335 308 306 305" fill="none" stroke="red" stroke-width="3" />
  </g>
</svg>