<svg xmlns="http://www.w3.org/2000/svg" width="512" height="512" viewBox="0 0 512 512">
  <g class="glyph">
    <path d="M 260 14 Q 264 0 279 1 Q 304 3 319 16 Q 332 29 326 39 Q 346 35 362 35 Q 371 35 396 47 Q 408 57 411 78 Q 413 90 404 94 Q 397 97 385 95 Q 354 89 308 89 Q 286 113 270 119 Q 262 122 254 122 Q 256 123 241 118 Q 237 108 244 91 Q 213 96 181 107 Q 180 122 172 131 Q 165 140 156 141 Q 145 141 139 132 Q 136 126 134 120 Q 109 129 84 138 Q 62 145 45 129 Q 46 130 29 101 Q 27 94 30 91 Q 33 87 44 86 Q 70 83 122 68 Q 120 58 116 42 Q 114 33 116 30 Q 119 26 128 24 Q 147 21 157 23 Q 182 27 182 55 Q 242 46 253 44 Q 257 29 260 14 Z M 320 160 Q 321 158 319 157 Q 318 155 315 156 Q 281 158 248 164 Q 248 169 247 174 Q 255 172 269 171 Q 293 169 299 180 Q 306 190 303 195 Q 301 200 291 202 Q 269 204 247 206 Q 247 214 246 217 Q 277 214 308 210 Q 316 209 316 201 Q 318 181 320 160 Z M 74 160 Q 98 156 126 163 Q 156 172 150 198 Q 145 214 135 219 Q 126 224 114 220 Q 85 207 68 179 Q 64 172 65 167 Q 66 162 74 160 Z M 78 254 Q 89 249 97 251 Q 127 255 136 270 Q 140 276 138 284 Q 125 345 128 382 Q 141 373 153 364 Q 162 359 164 362 Q 167 365 163 378 Q 146 426 111 463 Q 100 475 86 471 Q 71 467 60 444 Q 53 433 61 418 Q 65 409 67 397 Q 71 348 65 320 Q 63 321 55 325 Q 43 331 30 326 Q 20 321 10 310 Q 3 303 2 296 Q 0 289 13 286 Q 31 280 47 271 Q 62 262 78 254 Z M 201 204 Q 200 191 199 173 Q 198 156 202 142 Q 209 126 231 126 Q 259 127 284 122 Q 305 118 327 114 Q 351 111 367 123 Q 382 135 383 137 Q 387 144 385 150 Q 381 163 357 229 Q 350 250 328 252 Q 312 251 296 251 Q 269 254 242 258 Q 224 261 215 250 Q 203 237 201 204 Z M 220 314 Q 196 333 152 339 Q 149 340 147 337 Q 144 334 145 332 Q 185 290 199 260 Q 202 252 215 255 Q 233 260 239 273 Q 294 265 346 260 Q 360 260 375 263 Q 402 268 421 286 Q 434 296 428 312 Q 424 332 422 350 Q 416 425 392 477 Q 381 500 362 506 Q 342 512 324 495 Q 303 477 285 447 Q 282 443 285 441 Q 288 440 294 441 Q 309 444 318 445 Q 337 449 342 431 Q 354 390 355 312 Q 355 304 349 304 Q 315 303 285 308 Q 294 311 297 318 Q 299 326 292 333 Q 338 335 335 363 Q 334 378 325 379 Q 316 381 304 374 Q 290 365 281 353 Q 268 362 248 373 Q 236 378 231 375 Q 226 372 229 360 Q 232 349 243 332 Q 247 324 252 313 Q 225 315 220 314 Z M 211 342 Q 216 345 218 350 Q 220 353 221 360 Q 221 379 218 399 Q 264 391 297 389 Q 321 389 332 409 Q 337 421 333 426 Q 328 432 310 430 Q 276 425 224 442 Q 207 448 196 444 Q 179 439 173 422 Q 169 411 173 399 Q 178 381 175 353 Q 174 344 180 341 Q 185 338 196 338 Q 203 338 211 342 Z" fill="black" />
  </g>
  <g class="defect" id="01">
    <path d="M 45 129 Q 46 130 29 101" fill="none" stroke="red" stroke-width="3" />
  </g>
  <g class="defect" id="02">
    <path d="M 254 122 Q 256 123 241 118" fill="none" stroke="red" stroke-width="3" />
  </g>
  <g class="defect" id="03">
    <path d="M 362 35 Q 371 35 396 47" fill="none" stroke="red" stroke-width="3" />
  </g>
</svg>