<svg xmlns="http://www.w3.org/2000/svg" width="512" height="512" viewBox="0 0 512 512">
  <g class="glyph">
    <path d="M 378 328 Q 403 326 424 335 Q 435 339 439 352 Q 442 363 441 377 Q 439 390 427 398 Q 415 405 404 395 Q 382 374 366 345 Q 361 336 363 332 Q 365 328 378 328 Z M 203 363 Q 200 358 202 354 Q 205 351 211 350 Q 243 343 260 353 Q 269 357 273 369 Q 276 381 272 392 Q 268 407 257 412 Q 244 417 233 404 Q 221 391 203 363 Z M 134 431 Q 122 407 117 379 Q 116 373 119 373 Q 124 372 129 378 Q 144 400 175 416 Q 203 430 238 434 Q 289 440 322 435 Q 328 434 329 429 Q 330 424 326 416 Q 322 409 315 391 Q 310 379 314 377 Q 317 374 327 380 Q 361 399 389 423 Q 411 443 412 462 Q 412 482 389 490 Q 323 512 241 502 Q 208 498 179 479 Q 150 459 134 431 Z M 56 362 Q 64 357 69 359 Q 75 361 75 370 Q 79 420 65 449 Q 58 465 43 467 Q 27 469 18 454 Q 0 422 19 398 Q 38 373 56 362 Z M 260 17 Q 260 0 278 1 Q 313 3 328 16 Q 338 24 328 45 Q 359 46 382 49 Q 400 51 408 65 Q 415 77 420 96 Q 423 106 415 111 Q 407 116 394 113 Q 375 109 352 105 Q 328 101 306 100 Q 304 102 293 112 Q 278 129 264 134 Q 252 138 247 137 Q 238 136 240 126 Q 243 108 244 95 Q 222 97 184 106 Q 187 140 176 150 Q 165 161 150 152 Q 143 147 139 137 Q 135 128 133 123 Q 111 134 89 148 Q 70 159 54 145 Q 41 127 31 102 Q 29 92 33 88 Q 37 86 48 85 Q 73 82 119 70 Q 116 58 112 46 Q 109 33 113 28 Q 117 23 128 22 Q 149 20 162 25 Q 171 29 175 33 Q 180 38 181 45 Q 182 51 182 58 Q 226 50 257 46 Q 260 33 260 17 Z M 301 142 Q 315 138 329 140 Q 372 155 381 174 Q 386 184 380 194 Q 360 250 336 306 Q 321 338 298 346 Q 288 349 279 344 Q 255 335 224 338 Q 194 330 170 350 Q 144 360 119 345 Q 95 331 88 303 Q 72 232 81 192 Q 86 174 103 168 Q 118 162 137 166 Q 219 154 301 142 Z M 300 200 Q 300 194 298 192 Q 296 190 290 191 Q 269 194 247 197 Q 247 210 247 222 Q 268 222 274 236 Q 280 248 276 256 Q 273 264 262 267 Q 260 268 245 271 V 285 Q 257 283 277 284 Q 290 256 300 200 Z M 189 229 Q 188 216 187 203 Q 155 207 147 211 Q 142 214 140 218 Q 139 221 139 228 Q 138 267 147 290 Q 151 299 160 298 Q 171 298 188 293 Q 188 284 187 275 Q 176 274 163 267 Q 151 262 150 250 Q 148 239 161 236 Q 185 231 189 229 Z" fill="black" />
  </g>
  <g class="defect" id="01">
    <path d="M 224 338 Q 194 330 170 350" fill="none" stroke="red" stroke-width="3" />
  </g>
</svg>