<svg xmlns="http://www.w3.org/2000/svg" width="512" height="512" viewBox="0 0 512 512">
  <g class="glyph">
    <path d="M 203 231 Q 254 237 254 262 Q 273 259 290 257 Q 317 252 336 265 Q 348 273 356 282 Q 366 292 356 311 Q 347 328 332 353 Q 336 389 307 387 Q 265 385 247 387 Q 247 399 247 410 Q 262 408 276 405 Q 275 397 278 394 Q 281 391 292 394 Q 328 400 352 415 Q 370 425 377 441 Q 384 456 381 473 Q 375 498 356 504 Q 338 510 324 488 Q 305 451 294 435 Q 196 482 134 505 Q 117 512 97 507 Q 76 502 67 488 Q 43 475 53 461 Q 49 448 52 444 Q 56 441 75 440 Q 123 437 181 422 Q 181 410 180 397 Q 173 399 158 405 Q 126 418 104 395 Q 71 360 88 301 Q 97 277 127 278 Q 153 281 179 275 Q 178 254 174 247 Q 158 243 148 228 Q 140 217 142 199 Q 146 170 143 139 Q 122 143 87 161 Q 53 179 29 151 Q 13 133 5 117 Q 0 108 2 105 Q 5 101 16 100 Q 77 96 211 70 Q 191 53 170 26 Q 165 18 167 13 Q 169 7 182 4 Q 197 0 215 2 Q 234 3 243 11 Q 258 24 259 40 Q 261 54 250 65 Q 329 55 368 49 Q 391 45 403 56 Q 418 69 422 91 Q 425 106 418 112 Q 411 118 393 116 Q 328 109 286 113 Q 294 117 296 123 Q 298 129 298 139 Q 298 184 296 216 Q 293 241 267 242 Q 254 244 243 236 Q 232 227 232 213 Q 231 157 231 139 Q 231 126 227 121 Q 213 121 198 125 Q 211 143 209 165 Q 207 209 203 231 Z M 179 320 Q 167 321 153 327 Q 144 330 144 339 Q 144 348 152 350 Q 168 354 179 346 Z M 280 311 Q 265 308 250 312 Q 250 332 250 339 Q 266 339 272 339 Q 279 325 280 311 Z M 52 205 Q 72 187 94 176 Q 100 172 105 174 Q 110 177 110 185 Q 114 226 98 255 Q 87 273 73 273 Q 59 273 45 255 Q 26 229 52 205 Z M 321 163 Q 315 155 317 152 Q 319 149 331 148 Q 362 145 392 157 Q 408 163 413 181 Q 417 199 409 216 Q 401 235 387 235 Q 373 235 361 217 Q 362 195 321 163 Z" fill="black" />
  </g>
  <g class="defect" id="01">
    <path d="M 67 488 Q 43 475 53 461" fill="none" stroke="red" stroke-width="3" />
  </g>
  <g class="defect" id="02">
    <path d="M 361 217 Q 362 195 321 163" fill="none" stroke="red" stroke-width="3" />
  </g>
</svg>