<svg xmlns="http://www.w3.org/2000/svg" width="512" height="512" viewBox="0 0 512 512">
  <g class="glyph">
    <path d="M 392 142 Q 402 140 413 144 Q 425 148 429 155 Q 437 170 421 180 Q 398 195 357 197 Q 338 198 320 185 Q 309 174 322 166 Q 360 148 392 142 Z M 96 153 Q 102 141 116 144 Q 133 148 141 163 Q 148 173 140 184 Q 106 239 46 258 Q 37 260 34 258 Q 30 256 35 249 Q 66 214 96 153 Z M 156 281 Q 144 297 129 312 Q 138 320 137 335 Q 134 388 135 445 Q 135 462 129 475 Q 122 490 109 492 Q 96 493 87 478 Q 78 465 79 451 Q 81 409 82 341 Q 49 361 15 365 Q 3 366 2 364 Q 19 361 9 353 Q 57 315 80 289 Q 101 263 120 225 Q 128 209 144 222 Q 158 234 162 250 Q 166 267 156 281 Z M 247 410 Q 245 406 246 404 Q 247 401 251 401 Q 274 399 289 409 Q 300 417 303 429 Q 306 442 296 449 Q 282 458 269 446 Q 256 435 247 410 Z M 255 349 Q 281 344 297 342 Q 309 340 317 348 Q 321 353 327 363 Q 330 370 328 375 Q 325 382 317 383 Q 285 385 244 393 Q 232 427 214 445 Q 196 461 168 466 Q 159 468 157 464 Q 155 461 161 455 Q 181 431 194 403 Q 189 404 184 405 Q 163 408 151 387 Q 147 383 147 378 Q 147 373 155 372 Q 176 369 193 365 Q 205 361 211 360 Q 212 354 214 348 Q 207 348 204 348 Q 177 344 172 316 Q 165 282 165 244 Q 165 226 187 226 Q 195 225 221 220 Q 227 204 239 187 Q 242 184 241 183 Q 241 182 236 183 Q 230 184 227 186 Q 198 213 170 224 Q 164 226 161 222 Q 159 218 163 213 Q 176 180 184 147 Q 164 142 153 116 Q 139 120 109 132 Q 89 140 74 128 Q 57 114 51 100 Q 47 92 49 89 Q 51 86 61 84 Q 114 74 137 69 Q 131 52 129 42 Q 128 32 131 28 Q 134 23 144 23 Q 163 21 179 27 Q 191 31 192 46 Q 193 51 193 60 Q 204 57 268 48 Q 270 34 271 19 Q 274 0 294 4 Q 332 7 332 17 Q 340 22 338 30 Q 337 33 335 39 Q 365 39 393 37 Q 412 36 424 49 Q 436 61 436 79 Q 436 88 430 95 Q 424 102 414 101 Q 398 100 308 95 Q 289 119 269 124 Q 260 126 257 124 Q 254 122 255 116 Q 257 106 260 96 Q 227 98 198 108 Q 197 127 197 131 Q 215 131 232 138 Q 246 144 243 152 Q 242 157 240 160 Q 247 159 256 154 Q 262 151 274 153 Q 285 155 295 161 Q 309 168 299 181 Q 284 198 268 210 Q 273 210 280 206 Q 287 203 294 206 Q 310 211 322 222 Q 335 233 326 249 Q 399 234 445 230 Q 462 228 469 241 Q 475 252 480 266 Q 484 276 481 282 Q 477 288 466 287 Q 426 282 399 284 Q 414 289 419 312 Q 426 361 424 435 Q 423 466 409 484 Q 387 512 357 494 Q 335 481 315 446 Q 310 440 312 438 Q 313 436 320 436 Q 327 437 339 439 Q 355 442 356 424 Q 360 383 359 323 Q 359 301 352 290 Q 325 293 316 276 Q 314 286 302 313 Q 300 331 284 335 Q 268 339 253 339 Q 255 343 255 349 Z M 253 257 Q 255 257 256 256 Q 262 255 268 260 Q 273 265 273 273 Q 273 284 265 286 Q 259 288 252 289 Q 252 297 251 309 Q 257 308 262 307 Q 270 306 273 295 Q 282 264 283 246 Q 283 238 280 236 Q 277 234 270 237 Q 255 242 253 243 Z M 223 313 Q 223 307 223 293 H 219 Q 213 293 209 288 Q 202 280 208 276 Q 212 274 222 269 Q 221 260 221 251 Q 205 253 198 254 Q 202 284 205 315 Q 213 314 223 313 Z" fill="black" />
  </g>
  <g class="defect" id="01">
    <path d="M 294 4 Q 332 7 332 17" fill="none" stroke="red" stroke-width="3" />
  </g>
  <g class="defect" id="02">
    <path d="M 2 364 Q 19 361 9 353" fill="none" stroke="red" stroke-width="3" />
  </g>
</svg>