<svg xmlns="http://www.w3.org/2000/svg" width="512" height="512" viewBox="0 0 512 512">
  <g class="glyph">
    <path d="M 186 229 Q 197 230 202 242 Q 207 253 203 263 Q 243 251 259 251 Q 275 251 286 264 Q 296 275 292 282 Q 289 287 273 292 Q 246 300 207 310 Q 201 312 206 314 Q 228 328 252 338 Q 264 320 288 287 Q 293 284 294 283 Q 313 283 299 281 Q 303 280 311 286 Q 320 292 329 300 Q 340 310 341 319 Q 342 329 329 335 Q 307 346 283 355 Q 335 373 432 404 Q 445 405 446 410 Q 448 416 437 424 Q 412 443 386 454 Q 355 469 332 458 Q 290 441 249 401 Q 204 357 191 345 Q 187 342 186 345 Q 185 347 178 354 Q 195 367 193 383 Q 192 404 190 420 Q 189 423 190 424 Q 191 424 193 423 Q 211 413 228 407 Q 235 404 239 405 Q 243 406 240 413 Q 216 465 172 494 Q 149 512 134 498 Q 125 490 120 479 Q 115 465 120 457 Q 133 431 134 402 Q 108 427 76 442 Q 40 459 11 456 Q 3 455 2 452 Q 0 449 8 444 Q 70 408 129 331 Q 131 328 130 328 Q 129 327 127 328 Q 58 353 47 300 Q 45 291 54 289 Q 115 282 164 271 Q 157 264 150 254 Q 143 244 143 240 Q 142 236 148 234 Q 165 226 186 229 Z M 254 186 Q 279 199 337 185 Q 349 183 357 167 Q 362 158 370 129 Q 371 124 374 123 Q 377 123 383 132 Q 405 167 406 194 Q 408 225 379 234 Q 325 226 275 243 Q 222 241 207 214 Q 185 222 162 225 Q 157 226 156 224 Q 155 222 159 219 Q 176 204 193 190 Q 186 162 194 117 Q 193 118 191 118 Q 130 255 42 268 Q 31 269 30 266 Q 27 263 36 256 Q 92 207 124 130 Q 92 135 75 116 Q 66 107 67 98 Q 67 91 80 89 Q 113 85 142 78 Q 152 51 157 15 Q 159 4 169 2 Q 176 0 192 3 Q 210 6 219 12 Q 233 21 225 38 Q 218 58 218 60 Q 241 51 251 50 Q 273 47 287 57 Q 300 64 299 73 Q 298 81 285 86 Q 267 94 227 107 Q 243 114 240 131 Q 238 139 236 148 Q 243 136 248 121 Q 251 109 265 112 Q 276 114 286 125 Q 297 136 286 151 Q 274 169 254 186 Z M 265 21 Q 261 15 261 13 Q 261 12 267 10 Q 289 0 307 4 Q 329 9 331 32 Q 333 46 322 53 Q 311 60 299 51 Q 279 39 265 21 Z" fill="black" />
  </g>
  <g class="defect" id="01">
    <path d="M 294 283 Q 313 283 299 281" fill="none" stroke="red" stroke-width="3" />
  </g>
  <g class="defect" id="02">
    <path d="M 283 355 Q 335 373 432 404" fill="none" stroke="red" stroke-width="3" />
  </g>
  <g class="defect" id="03">
    <path d="M 379 234 Q 325 226 275 243" fill="none" stroke="red" stroke-width="3" />
  </g>
</svg>