<svg xmlns="http://www.w3.org/2000/svg" width="512" height="512" viewBox="0 0 512 512">
  <g class="glyph">
    <path d="M 91 207 Q 115 195 148 215 Q 160 221 159 236 Q 148 300 150 355 Q 153 338 187 328 Q 191 326 194 328 Q 197 330 196 334 Q 180 392 139 465 Q 123 496 101 479 Q 83 466 73 451 Q 65 439 72 423 Q 80 402 82 361 Q 84 326 81 286 Q 53 306 29 289 Q 20 283 10 266 Q 0 246 12 242 Q 56 228 91 207 Z M 88 64 Q 107 62 133 68 Q 148 70 156 84 Q 162 96 162 113 Q 161 137 149 149 Q 137 160 126 151 Q 99 126 75 87 Q 68 76 71 70 Q 74 65 88 64 Z M 260 9 Q 285 0 319 10 Q 342 17 342 42 Q 342 62 331 70 Q 319 79 303 72 Q 292 66 278 50 Q 267 38 258 25 Q 253 18 254 14 Q 255 12 260 9 Z M 227 164 Q 289 154 289 192 Q 290 209 279 220 Q 268 231 256 222 Q 246 215 235 199 Q 225 186 219 175 Q 216 166 227 164 Z M 369 279 Q 384 276 405 283 Q 422 290 436 301 Q 444 307 442 318 Q 439 347 438 387 Q 436 428 429 471 Q 427 482 417 492 Q 408 501 395 504 Q 375 511 364 491 Q 320 489 289 501 Q 271 508 253 497 Q 236 487 233 470 Q 223 416 227 339 Q 230 300 251 298 Q 311 293 369 279 Z M 372 125 Q 384 130 392 134 Q 405 141 408 152 Q 410 163 402 171 Q 379 195 345 215 Q 412 202 478 204 Q 485 204 495 216 Q 504 229 508 245 Q 512 260 509 269 Q 504 280 487 276 Q 407 261 347 267 Q 292 272 239 298 Q 213 311 199 303 Q 185 296 175 262 Q 173 255 175 252 Q 178 249 186 249 Q 225 247 269 234 Q 283 230 303 225 Q 340 161 343 132 Q 307 141 245 151 Q 228 154 210 144 Q 191 134 186 116 Q 185 110 192 109 Q 246 103 305 85 Q 369 65 401 63 Q 411 63 420 67 Q 430 72 433 83 Q 437 104 408 114 Q 388 121 372 125 Z M 288 416 V 431 Q 288 436 291 440 Q 294 443 298 443 Q 329 440 359 436 Q 364 436 364 424 Q 365 378 362 337 Q 361 330 352 332 Q 334 335 303 339 Q 294 340 287 337 Q 287 346 287 368 Q 308 362 321 361 Q 345 358 352 376 Q 377 411 345 406 Q 332 414 302 414 Q 295 414 288 416 Z" fill="black" />
  </g>
  <g class="defect" id="01">
    <path d="M 352 376 Q 377 411 345 406" fill="none" stroke="red" stroke-width="3" />
  </g>
  <g class="defect" id="02">
    <path d="M 150 355 Q 153 338 187 328" fill="none" stroke="red" stroke-width="3" />
  </g>
</svg>