<svg xmlns="http://www.w3.org/2000/svg" width="512" height="512" viewBox="0 0 512 512">
  <g class="glyph">
    <path d="M 143 359 Q 217 363 214 411 Q 213 434 198 445 Q 182 456 169 434 Q 155 410 137 368 Q 135 363 137 361 Q 139 359 143 359 Z M 105 153 Q 129 154 139 166 Q 162 176 150 197 Q 151 314 125 369 Q 95 434 10 458 Q 2 460 1 456 Q 0 452 6 446 Q 56 396 75 345 Q 96 291 92 162 Q 92 152 105 153 Z M 36 88 Q 101 77 154 60 Q 164 56 173 58 Q 196 65 211 77 Q 223 88 222 106 Q 218 128 218 157 Q 222 293 213 323 Q 206 346 191 345 Q 176 346 167 331 Q 156 313 157 278 Q 159 189 153 128 Q 152 119 145 121 Q 116 129 92 131 Q 81 132 81 141 Q 78 206 79 276 Q 79 310 73 323 Q 67 336 50 336 Q 37 337 29 319 Q 23 303 24 285 Q 7 174 21 112 Q 19 91 36 88 Z M 379 175 Q 392 180 395 182 Q 411 191 408 211 Q 399 289 378 341 Q 436 392 505 422 Q 512 425 512 431 Q 512 438 506 442 Q 478 459 441 467 Q 414 472 392 458 Q 371 445 340 402 Q 299 447 229 452 Q 220 452 218 448 Q 215 444 224 437 Q 272 397 301 345 Q 270 301 240 256 Q 235 249 237 245 Q 238 241 244 239 Q 259 234 273 241 Q 290 248 310 272 Q 317 280 324 287 Q 338 235 333 179 Q 315 177 299 175 Q 271 206 230 225 Q 225 227 222 224 Q 208 234 224 214 Q 243 179 260 117 Q 275 64 280 22 Q 281 12 285 7 Q 289 3 296 2 Q 330 0 350 18 Q 360 29 356 41 Q 346 91 332 123 Q 372 112 401 97 Q 410 92 425 95 Q 441 99 455 110 Q 467 120 463 134 Q 460 146 451 151 Q 421 168 379 175 Z" fill="black" />
  </g>
  <g class="defect" id="01">
    <path d="M 222 224 Q 208 234 224 214" fill="none" stroke="red" stroke-width="3" />
  </g>
  <g class="defect" id="02">
    <path d="M 139 166 Q 162 176 150 197" fill="none" stroke="red" stroke-width="3" />
  </g>
  <g class="defect" id="03">
    <path d="M 24 285 Q 7 174 21 112" fill="none" stroke="red" stroke-width="3" />
  </g>
</svg>