<svg xmlns="http://www.w3.org/2000/svg" width="512" height="512" viewBox="0 0 512 512">
  <g class="glyph">
    <path d="M 185 311 Q 264 297 303 287 Q 302 274 300 261 Q 298 251 302 246 Q 306 240 314 240 Q 335 240 356 248 Q 369 254 369 268 V 282 Q 417 277 455 276 Q 480 275 487 292 Q 496 308 500 325 Q 502 336 498 342 Q 495 348 485 347 Q 472 345 441 342 Q 394 336 368 340 Q 366 394 364 435 Q 359 475 348 497 Q 342 509 336 510 Q 330 512 324 498 Q 313 473 310 436 Q 308 391 304 345 Q 297 345 245 365 Q 222 373 210 361 Q 190 341 183 314 Q 125 396 66 429 Q 48 441 33 423 Q 25 416 10 392 Q 0 376 14 372 Q 22 369 32 362 Q 22 279 16 246 Q 14 231 24 229 Q 50 229 69 236 Q 83 241 84 261 Q 86 291 84 340 Q 81 336 101 331 Q 101 314 96 190 Q 84 196 70 189 Q 57 182 51 170 Q 32 134 37 78 Q 37 70 45 63 Q 52 57 61 57 Q 78 54 95 51 Q 110 48 139 40 Q 159 29 180 38 Q 193 42 204 52 Q 198 79 211 79 Q 197 117 191 136 Q 199 156 178 168 Q 163 174 155 174 Q 177 182 161 206 Q 169 204 177 202 Q 197 199 200 219 Q 203 232 193 241 Q 178 256 159 259 Q 160 290 160 302 Q 172 296 185 290 Q 192 287 193 288 Q 194 290 191 298 Q 189 305 185 311 Z M 322 20 Q 320 0 336 2 Q 359 3 379 13 Q 393 20 390 39 Q 387 54 382 95 Q 400 77 414 51 Q 420 38 431 43 Q 453 53 463 70 Q 472 86 454 96 Q 441 106 417 117 Q 415 118 378 134 Q 376 158 380 167 Q 383 175 394 178 Q 409 182 425 180 Q 442 178 447 169 Q 453 157 456 140 Q 457 134 461 133 Q 465 133 467 138 Q 481 177 485 193 Q 489 208 481 222 Q 473 236 459 239 Q 415 248 379 244 Q 347 240 334 219 Q 322 200 323 160 Q 325 107 324 50 Q 324 41 322 20 Z M 319 174 Q 301 223 249 258 Q 235 268 225 257 Q 214 245 208 234 Q 202 221 209 215 Q 210 214 224 203 Q 221 131 219 104 Q 218 79 216 53 Q 215 45 219 41 Q 223 37 231 38 Q 249 38 266 44 Q 279 49 279 66 Q 279 82 279 99 Q 285 95 295 94 Q 310 91 317 104 Q 325 122 306 130 Q 286 138 276 139 Q 276 158 276 177 Q 276 180 277 181 Q 278 182 280 182 Q 297 175 313 168 Q 318 167 320 168 Q 322 169 319 174 Z M 138 105 Q 138 95 128 97 Q 106 101 98 108 Q 98 122 106 133 Q 121 130 134 123 Q 138 119 138 105 Z" fill="black" />
  </g>
  <g class="defect" id="01">
    <path d="M 84 340 Q 81 336 101 331" fill="none" stroke="red" stroke-width="3" />
  </g>
  <g class="defect" id="02">
    <path d="M 204 52 Q 198 79 211 79" fill="none" stroke="red" stroke-width="3" />
  </g>
  <g class="defect" id="03">
    <path d="M 155 174 Q 177 182 161 206" fill="none" stroke="red" stroke-width="3" />
  </g>
</svg>