<svg xmlns="http://www.w3.org/2000/svg" width="512" height="512" viewBox="0 0 512 512">
  <g class="glyph">
    <path d="M 232 51 Q 228 55 221 57 Q 298 44 357 42 Q 373 41 382 51 Q 397 66 405 84 Q 411 96 400 103 Q 373 115 317 113 Q 310 112 309 109 Q 309 106 312 102 Q 317 96 322 90 Q 323 88 323 87 Q 323 85 321 85 Q 272 83 196 99 Q 146 111 98 120 Q 87 122 73 112 Q 77 162 61 183 Q 53 195 40 192 Q 28 190 19 178 Q 4 159 11 137 Q 24 102 44 81 Q 53 72 57 73 Q 62 73 68 85 Q 142 72 215 58 Q 188 53 173 16 Q 170 8 174 4 Q 177 1 186 1 Q 206 0 215 3 Q 227 6 232 12 Q 236 17 238 27 Q 240 42 232 51 Z M 185 360 Q 185 345 201 346 Q 214 347 222 352 Q 240 362 233 400 Q 226 434 205 461 Q 183 488 153 499 Q 131 506 97 501 Q 94 500 94 499 Q 94 497 97 495 Q 115 488 132 472 Q 157 451 171 420 Q 185 390 185 360 Z M 233 446 Q 229 442 230 439 Q 231 436 235 435 Q 302 430 323 459 Q 343 470 324 493 Q 321 507 311 510 Q 301 512 292 504 Q 269 486 233 446 Z M 309 264 Q 334 287 380 309 Q 419 327 457 345 Q 464 350 460 355 Q 430 380 388 388 Q 370 393 355 383 Q 326 360 292 321 Q 292 326 292 331 Q 294 350 292 377 Q 291 399 284 412 Q 280 421 270 423 Q 262 425 253 420 Q 240 413 240 399 Q 240 367 239 335 Q 239 327 233 329 Q 201 333 180 339 Q 174 342 174 346 Q 174 366 173 392 Q 173 410 166 419 Q 158 429 145 426 Q 124 418 125 397 Q 129 373 125 351 Q 80 405 11 413 Q 2 414 1 412 Q 0 410 7 404 Q 74 346 97 302 L 95 302 Q 78 308 63 292 Q 51 279 47 260 Q 46 256 47 253 Q 49 248 54 248 Q 71 247 104 241 Q 125 236 137 235 V 225 H 129 Q 118 225 109 217 Q 102 210 99 202 Q 109 197 98 196 Q 99 194 103 193 Q 120 190 136 187 Q 135 180 135 172 Q 110 168 98 152 Q 95 149 94 146 Q 94 144 98 143 Q 116 139 133 136 Q 132 130 132 124 Q 131 118 133 116 Q 136 114 141 114 Q 160 113 174 120 Q 181 123 184 127 Q 213 122 232 120 Q 232 110 232 101 Q 232 97 237 95 Q 238 95 246 94 Q 267 93 285 106 Q 290 111 291 113 Q 295 113 299 113 Q 316 114 323 131 Q 328 148 313 150 Q 300 152 291 153 Q 290 158 290 163 Q 300 161 309 168 Q 317 173 318 180 Q 320 190 313 193 Q 303 196 286 200 Q 285 210 285 214 Q 302 212 338 209 Q 354 207 367 229 Q 373 240 374 253 Q 375 266 358 266 Q 316 264 309 264 Z M 265 290 Q 257 279 247 265 Q 242 265 238 265 Q 210 268 176 277 Q 179 288 167 306 Q 179 305 191 302 Q 220 296 242 289 Q 256 285 265 290 Z M 231 160 Q 211 164 191 166 V 177 Q 202 175 231 170 Q 231 167 231 160 Z M 231 211 Q 206 215 194 217 Q 193 218 191 218 Q 191 221 191 227 Q 206 225 213 224 Q 221 222 230 221 Q 231 216 231 211 Z" fill="black" />
  </g>
  <g class="defect" id="01">
    <path d="M 323 459 Q 343 470 324 493" fill="none" stroke="red" stroke-width="3" />
  </g>
  <g class="defect" id="02">
    <path d="M 99 202 Q 109 197 98 196" fill="none" stroke="red" stroke-width="3" />
  </g>
  <g class="defect" id="03">
    <path d="M 358 266 Q 316 264 309 264" fill="none" stroke="red" stroke-width="3" />
  </g>
</svg>