<svg xmlns="http://www.w3.org/2000/svg" width="512" height="512" viewBox="0 0 512 512">
  <g class="glyph">
    <path d="M 349 118 Q 334 147 320 161 Q 349 157 368 150 Q 368 148 366 141 Q 365 136 367 131 Q 369 126 373 126 Q 400 125 418 140 Q 439 157 432 178 Q 429 189 415 189 Q 404 190 394 183 Q 338 194 299 209 Q 276 218 261 210 Q 250 204 242 191 Q 236 178 247 171 Q 248 140 286 128 Q 255 132 236 112 Q 231 107 231 102 Q 230 96 236 95 Q 308 83 375 63 Q 391 59 404 61 Q 420 64 423 76 Q 429 97 400 106 Q 385 110 349 118 Z M 296 12 Q 293 5 298 2 Q 302 0 311 1 Q 326 3 337 6 Q 364 13 362 41 Q 361 57 350 63 Q 333 72 320 54 Q 305 35 296 12 Z M 292 238 Q 294 273 281 303 Q 267 337 237 349 Q 227 354 224 352 Q 220 349 224 340 Q 243 290 242 234 Q 241 225 244 221 Q 246 217 253 216 Q 268 213 284 223 Q 292 227 292 238 Z M 372 200 Q 391 202 402 209 Q 416 216 412 229 Q 410 239 409 259 Q 408 270 422 271 Q 441 272 450 264 Q 455 252 460 239 Q 468 216 476 237 Q 485 261 487 264 Q 495 282 493 295 Q 508 297 475 316 Q 435 330 400 320 Q 369 310 364 276 Q 361 241 360 213 Q 359 207 363 203 Q 367 199 372 200 Z M 305 230 Q 304 225 306 222 Q 309 218 313 218 Q 327 218 338 223 Q 351 228 351 238 Q 357 265 351 296 Q 348 314 340 322 Q 326 334 315 321 Q 305 309 306 293 Q 307 274 305 230 Z M 421 379 Q 421 373 417 372 Q 408 369 397 373 Q 396 399 385 415 L 409 414 Q 421 400 421 379 Z M 360 377 Q 347 379 334 380 Q 333 413 330 421 Q 352 418 355 418 Q 359 401 360 377 Z M 226 377 Q 224 362 234 354 Q 242 347 259 348 Q 335 341 390 327 Q 418 320 437 330 Q 449 336 464 354 Q 475 366 470 383 Q 464 400 454 414 Q 462 414 471 414 Q 485 414 495 430 Q 504 442 509 460 Q 512 471 509 476 Q 504 483 490 479 Q 421 464 342 472 Q 298 477 250 487 Q 223 493 204 479 Q 189 467 181 450 Q 178 443 179 438 Q 181 433 189 433 Q 225 433 235 431 Q 230 412 226 377 Z M 174 44 Q 195 41 210 57 Q 218 68 214 79 Q 210 89 196 97 Q 179 107 139 113 Q 149 122 148 132 Q 147 151 147 156 Q 163 151 179 153 Q 221 156 219 203 Q 214 296 213 362 Q 213 399 205 411 Q 195 428 185 429 Q 177 430 169 422 Q 163 415 158 406 Q 114 408 71 425 Q 44 441 29 435 Q 13 428 9 397 Q 0 327 3 216 Q 4 193 30 187 Q 44 183 59 180 Q 60 156 54 122 Q 36 120 17 110 Q 9 103 10 97 Q 11 90 21 87 Q 100 62 174 44 Z M 108 167 Q 109 144 105 119 L 94 121 Q 96 144 96 170 Q 101 169 108 167 Z M 160 199 Q 151 198 144 202 Q 142 212 143 231 Q 144 243 163 241 Q 163 212 160 199 Z M 109 210 Q 103 212 97 214 Q 97 224 96 242 Q 94 285 49 295 Q 49 327 54 359 Q 56 372 69 373 Q 79 372 122 365 Q 143 361 160 372 Q 162 342 162 280 Q 136 302 112 251 Q 109 236 109 210 Z M 61 224 Q 50 226 48 228 Q 47 243 48 275 Q 62 260 61 224 Z M 128 295 Q 143 292 152 302 Q 160 311 156 322 Q 152 331 141 335 Q 97 351 61 328 Q 55 322 55 319 Q 56 315 67 311 Q 101 300 128 295 Z M 275 428 Q 290 427 298 425 Q 298 402 296 383 Q 280 386 270 384 Q 270 385 275 428 Z" fill="black" />
  </g>
  <g class="defect" id="01">
    <path d="M 247 171 Q 248 140 286 128" fill="none" stroke="red" stroke-width="3" />
  </g>
  <g class="defect" id="02">
    <path d="M 493 295 Q 508 297 475 316" fill="none" stroke="red" stroke-width="3" />
  </g>
  <g class="defect" id="03">
    <path d="M 162 280 Q 136 302 112 251" fill="none" stroke="red" stroke-width="3" />
  </g>
</svg>