<svg xmlns="http://www.w3.org/2000/svg" width="512" height="512" viewBox="0 0 512 512">
  <g class="glyph">
    <path d="M 343 10 Q 357 0 374 6 Q 388 11 405 25 Q 416 35 414 44 Q 413 51 402 58 Q 331 98 248 99 Q 239 99 238 94 Q 238 89 245 84 Q 294 47 343 10 Z M 12 254 Q 3 257 1 253 Q 0 250 3 244 Q 62 127 83 29 Q 85 17 98 18 Q 127 21 142 33 Q 160 45 153 64 Q 150 80 138 106 Q 151 102 163 97 Q 200 80 219 96 Q 234 108 229 123 Q 225 134 202 145 Q 184 153 161 159 Q 138 164 111 164 Q 58 237 12 254 Z M 411 85 Q 419 72 433 76 Q 456 79 467 89 Q 484 104 465 123 Q 427 163 380 168 Q 372 170 368 167 Q 365 163 368 157 Q 388 118 411 85 Z M 306 100 Q 320 91 341 99 Q 362 109 361 126 Q 359 151 348 162 Q 335 173 320 163 Q 301 144 297 115 Q 296 106 306 100 Z M 229 138 Q 229 133 232 131 Q 235 129 241 128 Q 259 125 270 129 Q 284 135 288 155 Q 290 181 285 193 Q 276 210 258 200 Q 244 192 236 173 Q 229 157 229 138 Z M 277 327 Q 319 343 319 338 Q 332 350 328 372 Q 326 382 320 389 Q 315 396 307 395 Q 290 394 271 369 Q 253 346 250 343 Q 245 336 253 332 Q 263 327 277 327 Z M 419 288 Q 423 355 418 432 Q 416 473 401 491 Q 384 512 358 502 Q 339 495 320 478 Q 303 463 293 445 Q 291 441 292 439 Q 293 437 298 438 Q 319 440 325 439 Q 342 438 344 422 Q 350 362 348 291 Q 315 296 289 309 Q 268 319 245 305 Q 229 295 218 277 Q 215 272 216 268 Q 219 264 224 263 Q 247 261 319 241 Q 326 240 344 236 Q 342 218 339 206 Q 333 189 349 188 Q 379 183 402 202 Q 410 209 413 222 Q 413 224 413 225 Q 441 223 455 222 Q 475 221 485 235 Q 503 259 499 278 Q 497 288 494 290 Q 490 292 476 291 Q 424 288 419 288 Z M 169 267 Q 184 265 193 267 Q 210 274 214 293 Q 214 311 172 320 Q 170 320 164 323 Q 162 345 160 370 Q 160 372 162 373 Q 163 374 167 372 Q 187 360 207 348 Q 210 346 212 348 Q 215 349 214 351 Q 193 414 131 481 Q 122 493 110 482 Q 96 470 82 450 Q 76 441 83 431 Q 84 428 89 422 Q 92 418 93 412 Q 97 388 98 355 Q 96 357 94 358 Q 58 383 40 363 Q 32 354 23 336 Q 15 320 28 318 Q 61 309 98 290 Q 97 267 96 255 Q 79 250 70 245 Q 61 236 72 229 Q 124 197 177 188 Q 197 184 206 198 Q 214 210 205 221 Q 199 229 185 236 Q 182 238 155 248 Q 166 255 169 267 Z" fill="black" />
  </g>
  <g class="defect" id="01">
    <path d="M 277 327 Q 319 343 319 338" fill="none" stroke="red" stroke-width="3" />
  </g>
</svg>