<svg xmlns="http://www.w3.org/2000/svg" width="512" height="512" viewBox="0 0 512 512">
  <g class="glyph">
    <path d="M 209 259 Q 215 250 233 234 Q 238 230 242 231 Q 246 232 248 238 Q 254 254 255 275 Q 257 296 246 315 Q 235 334 212 320 Q 199 309 196 296 Q 175 306 162 310 Q 161 334 160 357 Q 191 359 197 330 Q 200 328 203 330 Q 206 331 205 335 Q 199 369 176 407 Q 159 438 136 462 Q 123 476 104 460 Q 95 453 87 439 Q 78 422 86 410 Q 96 397 97 394 Q 99 385 99 340 Q 91 342 66 352 Q 54 357 44 347 Q 32 336 23 313 Q 20 306 20 302 Q 21 297 27 297 Q 68 275 99 274 Q 98 253 94 241 Q 81 239 67 228 Q 61 223 62 218 Q 64 213 74 210 Q 121 194 166 178 Q 182 173 194 184 Q 206 194 205 203 Q 204 210 192 218 Q 183 225 151 236 Q 161 241 162 252 Q 198 244 209 259 Z M 434 97 Q 417 218 364 307 Q 382 317 402 322 Q 422 328 423 313 Q 424 299 421 270 Q 420 262 423 259 Q 426 257 434 264 Q 460 291 475 321 Q 486 344 488 356 Q 491 378 479 392 Q 468 405 449 406 Q 417 408 382 396 Q 350 385 322 366 Q 265 429 214 426 Q 208 425 206 422 Q 205 420 210 415 Q 260 370 289 323 Q 270 293 263 261 Q 256 230 262 197 Q 264 190 267 188 Q 270 187 273 194 Q 292 247 319 271 Q 340 228 352 171 Q 366 110 364 55 Q 364 47 367 44 Q 369 41 375 42 Q 411 51 427 70 Q 452 65 434 97 Z M 275 90 Q 299 89 319 99 Q 337 108 338 130 Q 339 150 327 165 Q 317 178 306 175 Q 296 173 290 160 Q 277 135 263 107 Q 260 101 262 96 Q 265 90 275 90 Z M 428 186 Q 423 179 424 175 Q 426 170 434 169 Q 477 162 495 182 Q 512 203 504 232 Q 497 249 487 252 Q 475 255 465 243 Q 454 231 446 214 Q 441 201 428 186 Z M 90 18 Q 94 0 113 7 Q 133 14 149 26 Q 165 39 157 58 Q 148 84 139 97 Q 157 97 187 87 Q 210 83 225 100 Q 233 110 233 119 Q 233 130 221 137 Q 195 149 139 160 Q 119 164 103 159 Q 68 207 17 230 Q 9 233 5 230 Q 0 227 5 218 Q 67 110 90 18 Z" fill="black" />
  </g>
  <g class="defect" id="01">
    <path d="M 160 357 Q 191 359 197 330" fill="none" stroke="red" stroke-width="3" />
  </g>
  <g class="defect" id="02">
    <path d="M 27 297 Q 68 275 99 274" fill="none" stroke="red" stroke-width="3" />
  </g>
  <g class="defect" id="03">
    <path d="M 427 70 Q 452 65 434 97" fill="none" stroke="red" stroke-width="3" />
  </g>
</svg>