<svg xmlns="http://www.w3.org/2000/svg" width="512" height="512" viewBox="0 0 512 512">
  <g class="glyph">
    <path d="M 338 6 Q 368 0 398 12 Q 422 22 446 40 Q 453 45 453 54 Q 454 60 451 71 Q 449 82 450 88 Q 445 148 447 250 Q 450 387 448 430 Q 447 448 440 465 Q 432 484 420 494 Q 400 512 370 496 Q 354 488 336 469 Q 324 456 308 434 Q 300 425 300 420 Q 301 414 313 417 Q 333 423 349 419 Q 359 417 361 410 Q 363 403 363 392 Q 368 234 355 80 Q 354 66 336 68 Q 293 73 236 87 Q 203 95 190 82 Q 178 72 173 51 Q 166 35 180 32 Q 286 13 338 6 Z M 56 10 Q 103 1 130 13 Q 148 21 147 50 Q 146 76 130 88 Q 114 98 100 89 Q 67 56 50 28 Q 42 15 56 10 Z M 163 117 Q 210 116 249 105 Q 269 101 282 108 Q 296 114 304 124 Q 319 141 308 160 Q 297 179 295 186 Q 293 193 293 199 Q 293 226 277 228 Q 224 234 197 240 Q 180 245 173 245 Q 161 245 150 237 Q 131 223 128 193 Q 124 169 126 150 Q 132 117 163 117 Z M 1 122 Q 0 117 2 112 Q 6 107 10 107 Q 43 107 65 122 Q 84 132 83 167 Q 80 395 80 398 Q 80 443 65 462 Q 53 477 34 471 Q 16 465 8 448 Q 1 432 3 396 Q 9 303 10 259 Q 10 183 1 122 Z M 231 182 Q 236 174 239 161 Q 239 157 235 156 Q 218 158 196 163 Q 182 167 182 177 Q 184 189 199 188 Q 220 184 231 182 Z M 262 246 Q 285 240 299 247 Q 316 252 328 265 Q 344 278 332 302 Q 325 315 311 331 Q 308 335 309 339 Q 316 354 304 365 Q 293 374 276 374 Q 220 373 177 389 Q 154 396 144 386 Q 98 365 113 298 Q 114 260 143 260 Q 196 260 262 246 Z M 256 302 Q 258 297 257 295 Q 256 293 251 294 Q 218 297 195 304 Q 189 306 187 312 Q 183 319 190 326 Q 220 326 247 320 Q 253 317 256 302 Z" fill="black" />
  </g>
  <g class="defect" id="01">
    <path d="M 144 386 Q 98 365 113 298" fill="none" stroke="red" stroke-width="3" />
  </g>
</svg>