<svg xmlns="http://www.w3.org/2000/svg" width="512" height="512" viewBox="0 0 512 512">
  <g class="glyph">
    <path d="M 265 135 Q 265 195 261 232 Q 277 231 286 227 Q 289 216 287 206 Q 274 198 270 190 Q 269 187 270 181 Q 271 176 274 176 Q 281 175 284 173 Q 284 167 279 148 Q 276 133 290 133 Q 309 135 317 141 Q 327 148 326 163 Q 332 163 342 161 Q 344 153 341 138 Q 340 127 350 124 Q 371 121 386 128 Q 396 132 395 150 Q 428 139 451 155 Q 469 167 464 185 Q 456 210 438 237 Q 430 251 411 250 Q 370 247 347 254 Q 319 263 296 265 Q 269 268 261 240 Q 256 307 231 362 Q 201 429 150 454 Q 139 459 137 455 Q 136 452 141 443 Q 184 374 201 289 Q 217 208 208 125 Q 206 106 209 99 Q 213 89 227 89 Q 250 89 261 90 Q 270 88 414 64 Q 451 58 462 82 Q 465 91 465 97 Q 465 113 441 114 Q 351 118 265 135 Z M 303 3 Q 345 0 358 16 Q 364 23 363 36 Q 362 47 357 57 Q 352 68 340 67 Q 327 66 321 56 Q 308 39 297 17 Q 293 12 295 7 Q 296 3 303 3 Z M 84 18 Q 116 22 134 36 Q 143 43 145 51 Q 146 57 143 68 Q 153 86 131 102 Q 145 100 157 98 Q 173 96 183 101 Q 193 106 197 118 Q 199 125 197 131 Q 195 143 180 147 Q 142 158 101 165 Q 82 193 66 210 Q 43 232 17 243 Q 9 246 5 245 Q 0 243 4 235 Q 32 173 44 140 Q 63 86 69 40 Q 70 29 72 24 Q 76 17 84 18 Z M 348 344 Q 346 319 346 270 Q 345 256 356 256 Q 367 254 382 259 Q 391 261 391 270 Q 391 282 391 285 Q 397 279 407 275 Q 419 269 430 274 Q 438 277 442 283 Q 451 295 438 301 Q 420 310 393 316 Q 393 322 394 328 Q 394 335 406 335 Q 421 335 440 331 Q 475 323 482 351 Q 485 361 478 368 Q 473 374 462 375 Q 444 377 423 377 Q 400 377 390 376 Q 372 374 362 367 Q 350 358 348 344 Z M 403 193 Q 404 190 403 188 Q 402 187 400 187 Q 393 188 388 191 Q 387 200 385 208 Q 393 208 400 206 Q 401 200 403 193 Z M 325 218 337 216 Q 339 210 339 200 Q 335 203 326 205 Q 326 211 325 218 Z M 442 406 Q 439 397 440 394 Q 442 389 450 390 Q 485 392 503 416 Q 512 433 499 448 Q 486 463 469 453 Q 454 441 442 406 Z M 349 443 Q 341 458 332 459 Q 325 459 316 450 Q 300 432 297 411 Q 296 403 298 400 Q 300 396 307 396 Q 329 395 343 408 Q 358 422 349 443 Z M 369 414 Q 367 409 369 404 Q 370 399 375 398 Q 411 395 420 419 Q 423 434 414 448 Q 404 461 392 451 Q 377 438 369 414 Z M 218 417 Q 218 412 222 412 Q 241 412 260 419 Q 274 424 275 440 Q 277 455 269 469 Q 264 481 252 483 Q 240 484 232 474 Q 224 465 220 446 Q 217 431 218 417 Z M 79 391 Q 82 385 82 378 Q 84 363 84 347 Q 62 361 46 355 Q 24 345 14 320 Q 11 310 20 309 Q 50 302 87 287 Q 91 280 90 266 Q 90 253 87 247 Q 78 246 64 237 Q 58 233 60 227 Q 62 221 67 218 Q 106 194 149 187 Q 184 182 185 205 Q 186 217 167 226 Q 137 235 128 243 Q 143 255 136 270 Q 147 267 157 266 Q 179 265 184 277 Q 188 287 184 295 Q 181 300 171 306 Q 156 314 140 322 Q 138 349 136 362 Q 151 354 165 344 Q 173 337 175 341 Q 176 344 173 353 Q 155 402 120 448 Q 109 461 96 455 Q 82 447 71 422 Q 67 412 71 405 Q 78 392 79 391 Z M 322 280 Q 335 275 340 282 Q 343 286 344 293 Q 345 306 330 315 Q 317 321 300 323 Q 299 330 298 336 Q 301 337 308 334 Q 317 330 332 321 Q 341 316 342 321 Q 344 325 341 334 Q 330 362 284 386 Q 267 395 256 377 Q 248 366 252 350 Q 258 322 259 286 Q 259 270 272 270 Q 292 269 300 285 Q 310 285 322 280 Z" fill="black" />
  </g>
  <g class="defect" id="01">
    <path d="M 167 226 Q 137 235 128 243" fill="none" stroke="red" stroke-width="3" />
  </g>
  <g class="defect" id="02">
    <path d="M 143 68 Q 153 86 131 102" fill="none" stroke="red" stroke-width="3" />
  </g>
</svg>