<svg xmlns="http://www.w3.org/2000/svg" width="512" height="512" viewBox="0 0 512 512">
  <g class="glyph">
    <path d="M 342 3 Q 351 1 360 1 Q 377 3 392 10 Q 408 19 416 32 Q 422 43 416 59 Q 411 75 398 127 Q 386 183 376 209 Q 370 223 353 230 Q 333 238 275 242 Q 297 249 325 267 Q 360 246 389 210 Q 395 199 407 207 Q 433 223 435 249 Q 435 265 423 270 Q 389 284 358 287 Q 414 322 502 348 Q 512 351 510 358 Q 509 362 500 369 Q 465 394 433 402 Q 401 411 385 398 Q 316 343 268 292 Q 264 351 262 377 Q 262 380 264 382 Q 266 382 268 381 Q 292 372 307 362 Q 314 358 317 359 Q 321 360 318 369 Q 297 429 246 467 Q 232 477 215 464 Q 195 446 194 416 Q 193 406 197 399 Q 201 388 201 387 Q 211 230 201 55 Q 203 34 223 28 Q 293 3 342 3 Z M 125 2 Q 136 0 139 1 Q 174 3 190 23 Q 202 35 194 48 Q 169 85 133 123 Q 142 129 132 133 Q 168 169 180 225 Q 184 241 181 255 Q 177 272 166 280 Q 150 293 135 281 Q 110 256 89 232 Q 84 227 84 223 Q 85 219 92 217 Q 95 216 105 215 Q 111 214 113 213 Q 115 211 114 205 Q 112 184 95 141 Q 90 131 95 121 Q 106 89 110 71 Q 111 60 104 60 Q 86 61 67 67 Q 85 72 83 95 Q 77 243 82 391 Q 83 433 61 459 Q 50 471 38 463 Q 27 457 19 441 Q 13 431 13 404 Q 17 184 2 61 Q 10 44 1 38 Q 2 24 14 21 Q 20 20 34 20 Q 50 18 52 18 Q 93 12 125 2 Z M 345 64 Q 346 61 344 60 Q 342 59 339 60 Q 311 66 271 77 Q 272 89 272 101 Q 288 100 298 101 Q 313 103 321 111 Q 334 133 313 148 Q 298 157 274 161 Q 274 172 273 181 Q 292 185 318 177 Q 328 174 329 167 Q 339 112 345 64 Z" fill="black" />
  </g>
  <g class="defect" id="01">
    <path d="M 223 28 Q 293 3 342 3" fill="none" stroke="red" stroke-width="3" />
  </g>
  <g class="defect" id="02">
    <path d="M 2 61 Q 10 44 1 38" fill="none" stroke="red" stroke-width="3" />
  </g>
  <g class="defect" id="03">
    <path d="M 133 123 Q 142 129 132 133" fill="none" stroke="red" stroke-width="3" />
  </g>
</svg>