<svg xmlns="http://www.w3.org/2000/svg" width="512" height="512" viewBox="0 0 512 512">
  <g class="glyph">
    <path d="M 356 14 Q 360 5 364 2 Q 369 0 380 3 Q 408 9 417 21 Q 429 35 417 49 Q 383 87 336 113 Q 370 108 415 104 Q 432 103 442 114 Q 457 128 462 147 Q 464 158 460 165 Q 455 173 443 171 Q 332 155 256 186 Q 290 191 304 208 Q 316 223 301 236 Q 255 277 203 285 Q 192 287 189 284 Q 186 281 192 273 Q 238 211 249 189 Q 254 197 227 200 Q 212 205 200 197 Q 184 186 175 163 Q 172 151 186 148 Q 242 135 307 118 Q 337 60 356 14 Z M 233 36 Q 258 33 281 41 Q 292 46 295 59 Q 297 72 294 87 Q 291 100 280 104 Q 270 108 260 102 Q 242 91 224 58 Q 219 49 221 44 Q 223 38 233 36 Z M 338 196 Q 333 191 334 189 Q 335 186 343 185 Q 376 180 399 185 Q 428 191 435 214 Q 440 236 426 257 Q 413 275 394 258 Q 368 231 338 196 Z M 131 17 Q 143 10 158 19 Q 172 30 194 47 Q 212 64 195 80 Q 187 89 171 105 Q 151 123 146 130 Q 134 144 126 158 Q 182 223 175 288 Q 172 308 155 312 Q 138 316 125 303 Q 96 275 77 243 Q 90 250 75 238 Q 76 236 80 236 Q 90 237 101 237 Q 112 237 108 224 Q 104 207 95 180 Q 88 160 91 132 Q 94 113 98 94 Q 100 90 98 89 Q 97 89 92 90 Q 83 95 74 101 Q 72 146 74 261 Q 78 387 72 457 Q 72 473 64 487 Q 55 503 40 504 Q 25 504 13 484 Q -14 466 4 449 Q 12 205 7 128 Q 4 91 2 86 Q 0 68 4 59 Q 9 47 26 47 Q 50 47 80 38 Q 99 32 131 17 Z M 439 395 Q 453 395 468 395 Q 484 395 494 406 Q 512 423 510 449 Q 509 465 502 470 Q 496 476 481 473 Q 310 437 168 487 Q 150 493 132 480 Q 117 469 111 450 Q 107 437 109 434 Q 111 431 123 428 Q 147 424 172 419 Q 163 375 163 353 Q 163 337 171 326 Q 179 313 194 312 Q 287 291 403 277 Q 420 273 434 280 Q 456 288 470 302 Q 487 316 477 333 Q 469 346 439 395 Z M 384 396 Q 389 369 397 336 Q 398 332 395 330 Q 393 327 387 328 Q 378 329 369 329 Q 375 344 374 357 Q 374 358 367 397 Q 376 397 384 396 Z M 320 401 Q 321 378 319 336 Q 308 338 296 341 Q 298 350 298 355 Q 301 398 301 403 Q 311 402 320 401 Z M 255 408 Q 254 402 251 352 Q 242 354 234 357 Q 227 358 227 367 Q 227 385 235 410 Q 245 409 255 408 Z" fill="black" />
  </g>
  <g class="defect" id="01">
    <path d="M 13 484 Q -14 466 4 449" fill="none" stroke="red" stroke-width="3" />
  </g>
  <g class="defect" id="02">
    <path d="M 77 243 Q 90 250 75 238" fill="none" stroke="red" stroke-width="3" />
  </g>
  <g class="defect" id="03">
    <path d="M 249 189 Q 254 197 227 200" fill="none" stroke="red" stroke-width="3" />
  </g>
</svg>