<svg xmlns="http://www.w3.org/2000/svg" width="512" height="512" viewBox="0 0 512 512">
  <g class="glyph">
    <path d="M 259 17 Q 258 0 280 1 Q 298 1 321 8 Q 339 12 340 32 Q 338 80 332 124 Q 331 138 320 146 Q 310 154 298 155 Q 287 157 280 150 Q 271 143 270 131 Q 266 82 259 17 Z M 110 34 Q 125 30 142 36 Q 162 44 173 62 Q 188 80 171 97 Q 145 124 127 148 Q 120 158 125 168 Q 140 194 146 207 Q 157 231 159 250 Q 162 275 158 292 Q 151 317 129 318 Q 118 318 112 301 Q 96 259 79 226 Q 76 221 78 219 Q 79 217 83 218 Q 89 220 92 220 Q 97 220 95 214 Q 94 199 88 183 Q 79 164 87 143 Q 93 117 98 97 Q 99 92 98 91 Q 95 89 91 92 Q 81 99 66 97 Q 73 105 73 133 Q 70 388 69 433 Q 68 459 64 472 Q 57 490 37 491 Q 17 489 8 470 Q 1 456 0 433 Q 6 266 6 119 Q 6 92 5 83 Q 2 65 10 57 Q 18 49 38 50 Q 75 45 110 34 Z M 372 69 Q 369 64 371 60 Q 373 57 379 56 Q 413 51 437 67 Q 448 76 452 94 Q 455 111 447 121 Q 413 156 410 122 Q 389 98 372 69 Z M 362 151 Q 381 147 400 153 Q 421 157 435 169 Q 452 183 444 203 Q 422 271 398 315 Q 385 338 365 332 Q 343 327 337 330 Q 350 339 351 363 Q 353 405 350 447 Q 348 468 342 484 Q 335 503 318 507 Q 302 512 285 502 Q 255 481 233 444 Q 231 440 232 437 Q 234 435 241 436 Q 254 437 267 438 Q 275 439 279 435 Q 281 432 283 422 Q 287 383 282 337 Q 277 325 251 346 Q 227 353 213 332 Q 179 279 183 198 Q 182 183 190 177 Q 198 170 213 173 Q 233 176 253 171 Q 289 164 362 151 Z M 402 348 Q 425 348 445 357 Q 460 363 466 382 Q 471 403 463 421 Q 457 435 442 438 Q 409 453 421 428 Q 409 399 387 363 Q 384 356 387 353 Q 390 348 402 348 Z M 206 358 Q 212 354 215 355 Q 217 355 218 362 Q 221 411 200 441 Q 192 452 183 452 Q 175 451 168 442 Q 155 428 152 411 Q 149 395 161 387 Q 184 373 206 358 Z M 225 74 Q 229 72 231 73 Q 233 73 233 77 Q 238 116 229 136 Q 222 148 212 149 Q 194 150 181 134 Q 170 118 181 103 Q 196 87 225 74 Z M 248 277 Q 250 281 254 290 Q 294 288 346 280 Q 352 279 354 276 Q 357 274 358 267 Q 364 242 367 213 Q 368 205 365 203 Q 362 201 353 201 Q 288 205 239 225 Q 240 231 240 236 Q 306 227 327 223 Q 336 222 343 226 Q 350 231 351 240 Q 352 250 344 257 Q 338 264 328 266 Q 299 273 248 277 Z" fill="black" />
  </g>
  <g class="defect" id="01">
    <path d="M 442 438 Q 409 453 421 428" fill="none" stroke="red" stroke-width="3" />
  </g>
  <g class="defect" id="02">
    <path d="M 282 337 Q 277 325 251 346" fill="none" stroke="red" stroke-width="3" />
  </g>
  <g class="defect" id="03">
    <path d="M 447 121 Q 413 156 410 122" fill="none" stroke="red" stroke-width="3" />
  </g>
</svg>