<svg xmlns="http://www.w3.org/2000/svg" width="512" height="512" viewBox="0 0 512 512">
  <g class="glyph">
    <path d="M 127 296 Q 130 292 132 285 Q 135 271 147 270 Q 159 270 192 287 Q 197 287 220 283 Q 251 278 268 305 Q 275 316 271 324 Q 267 333 252 333 Q 214 333 197 336 Q 196 342 196 346 Q 214 348 227 351 Q 249 355 258 365 Q 267 374 269 394 Q 270 412 256 419 Q 242 425 230 411 Q 203 374 196 371 Q 196 444 192 474 Q 190 490 184 499 Q 176 512 161 512 Q 145 511 136 501 Q 127 492 128 479 Q 131 432 129 413 Q 75 460 19 462 Q 12 462 11 458 Q 10 455 15 450 Q 77 399 108 355 Q 95 360 69 375 Q 43 391 22 371 Q 10 358 2 332 Q 0 326 1 323 Q 2 319 8 319 Q 20 320 34 318 Q 92 309 127 296 Z M 345 239 Q 345 231 347 228 Q 349 225 356 225 Q 388 227 402 240 Q 410 246 411 254 Q 412 260 410 279 Q 404 344 390 381 Q 376 432 339 461 Q 299 494 249 486 Q 246 485 243 483 Q 240 481 242 479 Q 243 477 247 475 Q 289 440 305 420 Q 322 398 332 366 Q 348 316 345 239 Z M 400 393 Q 430 384 465 397 Q 506 413 499 464 Q 495 487 479 493 Q 462 499 447 479 Q 422 442 397 405 Q 394 401 394 399 Q 393 395 400 393 Z M 284 369 Q 274 353 277 330 Q 279 264 276 196 Q 275 182 282 178 Q 287 173 305 172 Q 325 133 321 117 Q 306 118 289 112 Q 272 106 265 93 Q 257 75 273 71 Q 380 42 447 35 Q 463 33 477 45 Q 489 56 495 72 Q 498 84 495 90 Q 492 97 479 98 Q 418 101 391 106 Q 400 118 391 136 Q 386 147 374 159 Q 390 159 408 152 Q 428 145 446 150 Q 465 155 480 165 Q 493 172 490 191 Q 486 246 487 310 Q 484 368 453 370 Q 434 370 425 352 Q 419 338 420 318 Q 422 250 417 214 Q 416 207 410 206 Q 373 207 342 217 Q 333 220 333 234 Q 333 287 332 312 Q 330 355 317 368 Q 308 377 300 378 Q 291 379 284 369 Z M 150 248 Q 153 258 146 266 Q 139 274 129 273 Q 120 271 109 266 Q 74 295 36 296 Q 31 296 28 294 Q 25 291 31 285 Q 64 252 68 245 Q 56 237 48 230 Q 43 224 46 220 Q 48 217 56 216 Q 71 215 83 218 Q 90 212 95 199 Q 97 194 92 193 Q 84 194 76 195 Q 53 200 42 181 Q 40 177 42 175 Q 43 173 47 172 Q 71 166 107 163 Q 116 163 121 160 Q 132 154 141 162 Q 149 169 155 183 Q 157 188 151 202 Q 147 212 134 233 Q 147 236 150 248 Z M 232 96 Q 246 106 237 120 Q 233 130 215 128 Q 202 127 173 123 Q 136 157 86 158 Q 80 158 78 154 Q 77 151 81 148 Q 112 126 127 105 Q 114 100 99 87 Q 95 77 106 74 Q 126 71 153 73 Q 139 67 162 60 Q 163 57 162 56 Q 161 54 159 55 Q 147 58 133 59 Q 106 63 90 47 Q 85 43 86 39 Q 86 35 93 32 Q 126 29 183 4 Q 200 0 211 4 Q 227 10 243 30 Q 250 39 243 48 Q 229 68 212 86 Q 223 89 232 96 Z M 152 167 Q 145 160 147 156 Q 148 151 157 150 Q 190 145 215 138 Q 225 136 232 132 Q 240 130 248 134 Q 260 141 273 152 Q 284 164 270 179 Q 265 183 262 191 Q 255 205 248 216 Q 275 230 268 251 Q 265 274 245 266 Q 233 261 220 249 Q 191 273 166 271 Q 160 270 157 267 Q 154 264 159 260 Q 174 246 183 227 Q 171 220 162 212 Q 155 206 159 200 Q 163 196 171 195 Q 186 194 200 197 Q 205 185 206 180 Q 206 177 205 175 Q 203 173 199 175 Q 181 180 170 178 Q 160 176 152 167 Z" fill="black" />
  </g>
  <g class="defect" id="01">
    <path d="M 153 73 Q 139 67 162 60" fill="none" stroke="red" stroke-width="3" />
  </g>
  <g class="defect" id="02">
    <path d="M 93 32 Q 126 29 183 4" fill="none" stroke="red" stroke-width="3" />
  </g>
  <g class="defect" id="03">
    <path d="M 215 128 Q 202 127 173 123" fill="none" stroke="red" stroke-width="3" />
  </g>
</svg>