<svg xmlns="http://www.w3.org/2000/svg" width="512" height="512" viewBox="0 0 512 512">
  <g class="glyph">
    <path d="M 259 5 Q 275 0 293 6 Q 326 14 343 30 Q 356 46 349 65 Q 330 128 309 190 Q 298 221 276 221 Q 258 221 249 210 Q 239 198 243 178 Q 252 133 260 81 Q 260 78 259 78 Q 259 77 256 78 Q 228 84 173 104 Q 165 111 136 102 Q 120 92 105 58 Q 102 49 103 44 Q 105 38 112 37 Q 167 28 259 5 Z M 134 131 Q 133 121 137 118 Q 141 115 151 116 Q 208 120 204 154 Q 197 211 192 238 Q 289 221 376 221 Q 391 221 400 223 Q 410 226 424 232 Q 450 244 464 260 Q 475 272 468 300 Q 450 385 421 446 Q 389 512 345 512 Q 320 512 298 488 Q 297 467 270 436 Q 268 429 270 427 Q 272 425 278 427 Q 314 436 315 437 Q 326 439 334 426 Q 346 408 358 366 Q 370 325 370 301 Q 370 293 367 290 Q 364 287 356 287 Q 249 286 147 320 Q 134 324 126 315 Q 114 299 110 276 Q 106 262 114 248 Q 127 227 134 131 Z M 269 318 Q 288 315 299 329 Q 313 347 319 369 Q 323 381 316 388 Q 310 394 298 391 Q 255 381 208 389 Q 157 397 78 428 Q 55 437 40 427 Q 15 410 3 379 Q 0 371 2 368 Q 4 363 13 363 Q 33 362 67 356 Q 239 322 269 318 Z" fill="black" />
  </g>
  <g class="defect" id="01">
    <path d="M 173 104 Q 165 111 136 102" fill="none" stroke="red" stroke-width="3" />
  </g>
  <g class="defect" id="02">
    <path d="M 298 488 Q 297 467 270 436" fill="none" stroke="red" stroke-width="3" />
  </g>
  <g class="defect" id="03">
    <path d="M 278 427 Q 314 436 315 437" fill="none" stroke="red" stroke-width="3" />
  </g>
</svg>