<svg xmlns="http://www.w3.org/2000/svg" width="512" height="512" viewBox="0 0 512 512">
  <g class="glyph">
    <path d="M 81 239 Q 78 228 84 224 Q 88 220 98 221 Q 147 226 148 254 Q 148 298 143 351 Q 169 330 193 316 Q 198 313 200 315 Q 202 317 201 322 Q 161 423 129 457 Q 117 471 100 460 Q 83 449 73 429 Q 46 417 73 402 Q 98 353 86 291 Q 86 259 81 239 Z M 275 231 Q 339 209 357 204 Q 360 203 370 201 Q 379 201 384 204 Q 395 210 406 216 Q 418 225 424 235 Q 432 253 415 262 Q 395 277 360 296 L 372 305 Q 433 298 468 301 Q 480 302 490 319 Q 499 333 502 351 Q 504 361 499 366 Q 495 371 485 367 Q 427 353 395 352 Q 400 377 398 407 Q 397 440 388 464 Q 381 483 367 497 Q 353 512 341 512 Q 322 512 304 496 Q 290 482 270 453 Q 267 448 268 445 Q 269 442 275 442 Q 298 446 309 446 Q 328 446 332 432 Q 341 400 333 357 Q 306 359 268 376 Q 243 387 229 381 Q 215 375 208 352 Q 206 344 209 339 Q 212 335 221 332 Q 251 325 322 310 Q 318 305 305 293 Q 300 288 302 284 Q 304 281 311 280 Q 325 278 333 281 Q 336 277 358 251 Q 360 248 359 247 Q 359 246 355 246 Q 346 249 323 259 Q 309 266 298 269 Q 290 271 278 264 Q 266 256 264 247 Q 261 235 275 231 Z M 409 180 Q 373 187 328 199 Q 278 213 260 224 Q 254 240 248 254 Q 243 268 230 270 Q 215 273 207 251 Q 199 232 210 207 Q 220 186 238 171 Q 246 167 257 176 Q 277 170 306 161 V 121 Q 279 117 257 101 Q 254 99 253 95 Q 253 90 257 89 Q 282 83 306 72 Q 306 53 302 24 Q 301 17 302 12 Q 303 8 309 6 Q 331 0 355 10 Q 381 21 377 45 Q 375 54 373 62 Q 411 57 421 81 Q 425 103 404 113 Q 395 117 364 121 L 358 150 Q 382 144 430 136 Q 465 129 487 157 Q 497 170 496 178 Q 494 186 478 193 Q 454 203 415 207 Q 409 207 407 204 Q 419 215 408 195 Q 422 177 409 180 Z M 122 153 Q 150 149 171 140 Q 198 127 217 156 Q 229 175 213 189 Q 179 216 149 227 Q 141 230 139 228 Q 136 225 140 218 Q 146 206 148 201 Q 150 197 148 195 Q 147 194 142 195 Q 119 200 86 203 Q 49 246 13 254 Q 3 256 2 254 Q 0 252 5 244 Q 32 203 56 145 Q 81 86 87 51 Q 89 39 99 39 Q 128 39 149 52 Q 164 62 156 83 Q 140 123 122 153 Z" fill="black" />
  </g>
  <g class="defect" id="01">
    <path d="M 73 402 Q 98 353 86 291" fill="none" stroke="red" stroke-width="3" />
  </g>
  <g class="defect" id="02">
    <path d="M 407 204 Q 419 215 408 195" fill="none" stroke="red" stroke-width="3" />
  </g>
  <g class="defect" id="03">
    <path d="M 73 429 Q 46 417 73 402" fill="none" stroke="red" stroke-width="3" />
  </g>
</svg>