<svg xmlns="http://www.w3.org/2000/svg" width="512" height="512" viewBox="0 0 512 512">
  <g class="glyph">
    <path d="M 419 112 Q 417 113 385 120 Q 385 127 385 134 Q 412 138 412 150 Q 415 173 378 179 L 374 196 L 412 189 Q 423 154 425 118 Q 425 115 424 114 Q 421 111 419 112 Z M 334 127 Q 326 128 304 128 Q 298 159 314 202 L 322 200 Q 325 192 328 177 Q 320 174 314 169 Q 307 162 308 155 Q 311 148 332 144 Q 334 137 334 127 Z M 255 191 Q 253 196 248 197 Q 219 208 190 217 Q 204 219 182 218 Q 180 216 183 210 Q 185 206 187 202 Q 189 198 187 197 Q 186 194 183 195 Q 88 215 44 237 Q 36 263 22 263 Q 14 263 7 251 Q 19 239 0 226 Q 0 206 22 181 Q 28 174 32 175 Q 36 175 41 183 Q 46 182 55 179 Q 55 178 40 76 Q 37 56 54 45 Q 62 40 83 40 Q 136 29 166 21 Q 178 18 191 21 Q 208 25 226 39 Q 234 45 230 60 Q 223 96 209 147 Q 233 151 251 174 Q 252 177 252 177 Q 248 148 250 123 Q 251 89 285 81 Q 311 41 319 14 Q 322 0 340 5 Q 364 9 378 24 Q 389 36 379 47 Q 376 50 348 75 Q 384 72 419 64 Q 437 57 455 62 Q 483 71 499 90 Q 505 97 501 111 Q 482 173 456 221 Q 443 246 428 244 Q 419 240 408 236 Q 385 236 354 243 Q 331 280 327 287 L 355 282 Q 355 270 354 261 Q 352 253 357 249 Q 362 245 378 245 Q 396 244 406 251 Q 415 257 419 273 Q 454 269 476 269 Q 487 269 498 284 Q 507 297 510 313 Q 512 323 505 329 Q 497 335 488 331 Q 449 323 419 324 Q 419 388 415 434 Q 408 505 384 506 Q 366 505 359 438 Q 355 400 355 333 Q 321 339 275 353 Q 244 357 233 313 Q 230 302 243 302 Q 259 300 275 295 Q 289 275 301 250 Q 282 257 273 245 Q 259 220 255 191 Z M 161 154 Q 165 107 165 76 Q 165 69 157 70 Q 121 73 99 80 Q 100 86 101 92 Q 102 92 118 88 Q 136 85 145 96 Q 150 101 150 118 Q 150 124 147 157 Q 156 154 161 154 Z M 116 163 Q 117 142 115 130 Q 115 124 110 126 Q 107 126 104 127 Q 107 153 107 165 Q 112 165 116 163 Z M 107 295 Q 123 292 131 292 Q 148 292 149 306 Q 150 322 135 327 Q 125 330 107 333 V 354 Q 138 367 130 351 Q 139 351 144 356 Q 151 362 151 370 Q 151 389 131 391 Q 119 392 106 392 Q 106 409 105 425 Q 105 452 99 465 Q 93 477 82 477 Q 69 477 60 464 Q 50 450 52 431 Q 56 384 56 272 Q 56 249 65 242 Q 73 235 99 232 Q 142 223 153 221 Q 177 217 209 241 Q 217 247 218 252 Q 220 256 219 269 Q 215 305 214 436 Q 213 493 178 493 Q 136 489 115 448 Q 112 443 114 440 Q 115 437 121 437 Q 134 437 147 437 Q 157 437 157 425 Q 158 406 154 323 Q 154 321 152 280 Q 152 274 150 272 Q 147 269 142 270 Q 124 271 107 276 Z" fill="black" />
  </g>
  <g class="defect" id="01">
    <path d="M 190 217 Q 204 219 182 218" fill="none" stroke="red" stroke-width="3" />
  </g>
  <g class="defect" id="02">
    <path d="M 7 251 Q 19 239 0 226" fill="none" stroke="red" stroke-width="3" />
  </g>
  <g class="defect" id="03">
    <path d="M 107 354 Q 138 367 130 351" fill="none" stroke="red" stroke-width="3" />
  </g>
</svg>