<svg xmlns="http://www.w3.org/2000/svg" width="512" height="512" viewBox="0 0 512 512">
  <g class="glyph">
    <path d="M 324 3 Q 345 0 376 6 Q 396 10 404 27 Q 412 44 406 66 Q 401 82 389 86 Q 377 90 365 81 Q 345 64 316 22 Q 312 15 313 10 Q 315 4 324 3 Z M 154 31 Q 170 29 189 35 Q 210 42 221 55 Q 227 63 223 83 Q 211 152 197 190 Q 190 211 160 210 Q 145 210 139 199 Q 132 188 136 170 Q 142 135 145 95 Q 145 93 142 93 Q 140 93 134 94 Q 100 105 84 103 Q 55 117 48 78 Q 41 69 43 63 Q 45 58 53 56 Q 86 50 154 31 Z M 440 98 Q 471 103 500 127 Q 511 136 511 145 Q 512 153 504 168 Q 486 199 467 229 Q 472 241 470 251 Q 468 266 450 271 Q 406 274 329 285 Q 312 378 281 430 Q 251 481 206 494 Q 201 496 198 492 Q 194 489 198 484 Q 238 428 258 336 Q 276 251 269 169 Q 256 155 249 139 Q 247 134 248 130 Q 249 126 255 126 Q 322 140 362 111 Q 415 100 440 98 Z M 414 169 Q 414 166 413 165 Q 411 163 408 164 Q 377 170 337 180 Q 338 191 336 221 Q 367 218 397 214 Q 410 189 414 169 Z M 143 298 Q 149 297 150 301 Q 152 306 149 311 Q 120 359 67 408 Q 57 419 44 414 Q 30 410 18 397 Q 7 385 3 372 Q 0 359 9 356 Q 33 349 51 340 Q 112 309 143 298 Z M 108 234 Q 126 231 166 219 Q 188 213 203 216 Q 227 222 241 239 Q 248 247 245 265 Q 233 335 219 405 Q 211 439 199 457 Q 185 475 169 475 Q 149 475 127 454 Q 107 435 98 409 Q 97 405 99 403 Q 101 401 104 402 Q 120 407 135 407 Q 147 407 150 395 Q 168 329 169 283 Q 169 279 168 277 Q 166 275 162 276 Q 129 282 88 300 Q 74 306 64 299 Q 48 285 47 263 Q 64 191 62 132 Q 62 111 79 112 Q 103 115 113 125 Q 124 136 122 154 Q 120 169 108 234 Z" fill="black" />
  </g>
  <g class="defect" id="01">
    <path d="M 255 126 Q 322 140 362 111" fill="none" stroke="red" stroke-width="3" />
  </g>
  <g class="defect" id="02">
    <path d="M 84 103 Q 55 117 48 78" fill="none" stroke="red" stroke-width="3" />
  </g>
</svg>