<svg xmlns="http://www.w3.org/2000/svg" width="512" height="512" viewBox="0 0 512 512">
  <g class="glyph">
    <path d="M 141 300 Q 146 297 148 300 Q 151 303 148 308 Q 101 383 61 409 Q 42 422 28 409 Q 10 393 3 369 Q 0 358 11 356 Q 20 354 28 351 Q 75 331 141 300 Z M 144 25 Q 155 21 169 25 Q 191 31 209 45 Q 217 52 215 70 Q 209 104 195 177 Q 192 197 180 208 Q 170 218 156 218 Q 144 218 138 208 Q 132 198 134 182 Q 141 130 144 92 Q 144 85 137 87 Q 115 94 96 99 Q 78 104 64 97 Q 48 88 41 66 Q 36 50 47 49 Q 75 45 144 25 Z M 60 121 Q 60 104 79 108 Q 126 118 121 153 Q 117 184 108 234 Q 133 230 168 219 Q 181 215 194 219 Q 215 226 231 244 Q 237 250 235 266 Q 226 352 206 417 Q 188 476 155 476 Q 121 476 87 411 Q 85 405 86 403 Q 89 400 94 402 Q 100 404 118 406 Q 128 406 132 404 Q 136 401 139 392 Q 157 329 160 281 Q 160 277 158 276 Q 157 275 154 276 Q 131 303 84 304 Q 71 310 60 301 Q 48 289 43 274 Q 39 264 45 246 Q 59 190 60 121 Z M 423 56 Q 423 53 422 52 Q 420 50 415 50 Q 394 52 379 55 V 75 Q 391 72 400 77 Q 409 82 409 93 Q 409 106 403 111 Q 397 117 377 125 L 377 137 Q 384 135 409 135 Q 422 97 423 56 Z M 322 64 Q 303 67 296 71 Q 290 86 292 111 Q 293 137 301 152 Q 316 149 331 146 L 329 130 Q 315 126 308 119 Q 299 110 303 100 Q 305 96 313 93 Q 322 89 324 88 Z M 425 350 Q 424 346 426 344 Q 428 341 434 342 Q 495 343 506 369 Q 511 383 507 399 Q 503 415 491 423 Q 480 430 470 423 Q 461 417 456 405 Q 441 377 425 350 Z M 229 399 Q 231 393 245 383 Q 258 375 270 371 Q 281 369 282 379 Q 285 402 281 423 Q 275 449 260 455 Q 244 460 234 438 Q 225 417 229 399 Z M 399 177 Q 401 177 405 179 Q 444 198 433 213 Q 417 232 388 254 Q 363 273 335 289 Q 407 273 416 270 Q 409 256 409 250 Q 409 244 416 242 Q 476 242 476 279 Q 476 296 470 305 Q 463 315 452 315 Q 440 315 428 299 Q 425 301 394 315 Q 397 366 397 417 Q 395 456 386 478 Q 375 502 356 502 Q 339 502 318 484 Q 303 470 288 448 Q 285 444 286 441 Q 286 438 291 437 Q 305 440 319 441 Q 326 442 328 439 Q 331 436 331 428 Q 333 380 329 337 Q 302 346 281 356 Q 264 362 250 348 Q 240 338 235 319 Q 231 306 245 303 Q 262 299 268 296 Q 291 284 306 267 Q 299 264 270 258 Q 257 257 260 238 Q 261 221 268 217 Q 276 212 294 217 Q 303 208 314 192 Q 288 197 276 195 Q 263 193 255 180 Q 237 155 234 110 Q 232 71 240 35 Q 248 9 295 20 Q 363 13 434 2 Q 448 0 464 10 Q 512 38 499 66 Q 494 75 485 102 Q 471 143 460 160 Q 451 174 444 179 Q 438 183 426 183 Q 413 183 404 177 Q 402 177 399 177 Z M 393 179 Q 369 182 360 185 Q 371 198 356 210 Q 335 227 333 229 L 344 232 Q 369 209 388 182 Q 390 180 393 179 Z" fill="black" />
  </g>
  <g class="defect" id="01">
    <path d="M 154 276 Q 131 303 84 304" fill="none" stroke="red" stroke-width="3" />
  </g>
  <g class="defect" id="02">
    <path d="M 377 137 Q 384 135 409 135" fill="none" stroke="red" stroke-width="3" />
  </g>
</svg>