<svg xmlns="http://www.w3.org/2000/svg" width="512" height="512" viewBox="0 0 512 512">
  <g class="glyph">
    <path d="M 140 26 Q 154 22 171 27 Q 193 34 206 45 Q 216 52 211 74 Q 199 142 183 188 Q 176 210 150 210 Q 138 210 132 201 Q 125 193 127 181 Q 140 114 143 92 Q 144 86 143 85 Q 142 85 136 87 Q 110 94 98 97 Q 58 106 43 63 Q 40 55 42 51 Q 44 48 50 48 Q 79 45 140 26 Z M 61 118 Q 61 106 74 107 Q 98 109 108 118 Q 120 128 117 149 Q 107 208 101 231 Q 148 221 158 219 Q 176 216 191 222 Q 212 229 229 243 Q 237 250 235 261 Q 221 318 208 375 Q 185 462 145 462 Q 130 462 118 448 Q 107 436 90 401 Q 86 394 88 390 Q 90 387 96 389 Q 110 393 122 393 Q 133 393 137 381 Q 151 332 161 276 Q 162 272 160 270 Q 159 269 154 270 Q 130 274 83 295 Q 65 303 52 285 Q 37 266 41 249 Q 58 178 61 118 Z M 123 297 Q 128 295 130 298 Q 132 302 128 309 Q 105 365 56 398 Q 41 409 29 399 Q 9 381 2 357 Q 0 352 1 350 Q 3 346 10 345 Q 28 342 47 332 Q 72 319 123 297 Z M 398 214 Q 424 209 434 230 Q 443 250 423 257 Q 376 271 333 274 Q 312 275 298 271 Q 279 267 267 253 Q 263 247 264 243 Q 266 239 275 238 Q 292 237 337 227 Q 371 218 398 214 Z M 419 369 Q 415 361 417 358 Q 418 356 423 356 Q 452 356 473 365 Q 497 376 497 395 Q 497 415 490 427 Q 482 439 470 439 Q 458 439 450 427 Q 431 397 419 369 Z M 300 135 Q 285 138 278 141 Q 277 157 285 171 L 308 168 Q 303 160 300 135 Z M 364 125 344 127 Q 344 145 343 162 L 362 160 Q 363 142 364 125 Z M 410 121 401 157 H 421 Q 426 142 428 127 Q 429 121 425 121 Q 415 121 410 121 Z M 365 85 Q 366 68 365 57 Q 347 59 329 61 Q 348 69 346 88 Z M 250 33 Q 331 7 417 0 Q 431 0 441 6 Q 451 13 451 27 Q 431 33 430 50 Q 417 51 408 52 Q 414 56 416 61 Q 418 66 417 78 Q 424 78 437 74 Q 447 71 458 75 Q 480 86 493 106 Q 499 115 492 130 Q 484 146 467 179 Q 460 193 453 198 Q 464 216 429 203 Q 363 205 300 217 Q 290 223 278 224 Q 264 224 253 217 Q 236 206 227 176 Q 219 150 223 127 Q 227 116 237 109 Q 235 84 268 102 Q 282 99 295 97 Q 291 70 295 63 Q 265 63 245 49 Q 239 44 240 40 Q 240 36 250 33 Z M 463 272 Q 483 269 497 283 Q 510 296 511 316 Q 512 326 506 330 Q 502 333 492 332 Q 430 326 381 329 Q 387 332 390 339 Q 395 387 389 440 Q 386 460 375 473 Q 363 486 348 486 Q 336 486 323 476 Q 309 466 289 440 Q 283 432 284 427 Q 284 423 289 423 Q 303 425 313 425 Q 327 424 328 414 Q 331 385 326 337 Q 303 341 285 347 Q 253 358 228 321 Q 223 314 226 310 Q 227 305 236 303 Q 337 286 463 272 Z M 225 394 Q 250 372 274 365 Q 281 363 283 365 Q 285 366 286 374 Q 287 397 281 415 Q 274 436 257 447 Q 246 454 234 447 Q 222 439 218 421 Q 214 403 225 394 Z" fill="black" />
  </g>
  <g class="defect" id="01">
    <path d="M 237 109 Q 235 84 268 102" fill="none" stroke="red" stroke-width="3" />
  </g>
  <g class="defect" id="02">
    <path d="M 453 198 Q 464 216 429 203" fill="none" stroke="red" stroke-width="3" />
  </g>
  <g class="defect" id="03">
    <path d="M 451 27 Q 431 33 430 50" fill="none" stroke="red" stroke-width="3" />
  </g>
</svg>