<svg xmlns="http://www.w3.org/2000/svg" width="512" height="512" viewBox="0 0 512 512">
  <g class="glyph">
    <path d="M 147 193 122 199 Q 132 203 131 220 Q 135 220 139 221 Q 144 221 150 231 Q 153 240 144 248 Q 137 253 130 257 L 129 281 L 140 280 Q 143 279 144 278 Q 145 276 146 271 Q 158 238 156 201 Q 156 198 154 196 Q 151 192 147 193 Z M 83 207 67 211 Q 45 224 63 220 Q 62 253 71 282 Q 72 291 77 289 L 90 287 L 88 268 Q 82 263 75 259 Q 62 247 72 239 Q 81 235 86 231 Z M 72 17 Q 78 0 92 2 Q 108 3 130 17 Q 146 25 141 37 Q 135 55 128 68 Q 131 67 151 58 Q 155 56 166 58 Q 189 64 196 75 Q 203 87 194 98 Q 172 125 151 152 Q 157 153 170 150 Q 180 150 187 155 Q 197 162 203 170 Q 209 178 208 192 Q 194 275 176 314 Q 166 326 155 327 Q 144 328 131 329 Q 108 334 87 342 Q 80 345 77 346 Q 69 351 63 350 Q 52 350 41 340 Q 21 318 16 273 Q 13 246 16 201 Q 16 193 24 186 Q 32 179 41 177 Q 48 175 63 173 Q 86 167 93 165 Q 110 138 120 114 Q 124 106 117 109 L 99 113 Q 69 142 24 162 Q 10 167 6 166 Q 0 163 9 149 Q 51 85 72 17 Z M 13 384 Q 33 381 51 375 Q 88 364 125 349 Q 161 333 197 318 Q 205 315 207 318 Q 208 320 204 328 Q 193 350 151 387 Q 110 422 72 442 Q 65 456 31 445 Q 20 438 6 406 Q 2 396 3 392 Q 4 385 13 384 Z M 390 57 Q 402 54 414 57 Q 445 63 460 79 Q 473 94 464 113 Q 448 170 418 241 Q 412 254 401 257 Q 397 258 377 258 Q 324 259 288 274 Q 263 292 240 268 Q 229 257 224 235 Q 220 221 217 194 Q 213 166 212 161 Q 208 142 209 124 Q 210 101 219 87 Q 230 69 254 71 Q 328 68 390 57 Z M 385 113 Q 385 107 380 108 Q 368 110 355 112 L 354 139 Q 358 142 366 143 Q 375 146 375 157 Q 374 167 366 174 Q 359 179 351 185 L 350 208 Q 357 207 365 206 Q 373 204 373 196 Q 385 136 385 113 Z M 298 148 Q 298 134 297 120 Q 284 121 272 125 Q 266 128 267 137 Q 271 192 276 212 Q 278 221 288 219 Q 293 218 299 216 L 299 190 Q 288 189 280 182 Q 270 173 272 165 Q 272 155 284 152 Q 295 150 298 148 Z M 425 278 Q 423 273 423 273 Q 423 270 429 269 Q 449 267 467 270 Q 488 274 498 284 Q 512 298 503 324 Q 499 338 490 343 Q 479 349 468 342 Q 441 323 425 278 Z M 311 288 Q 309 282 311 279 Q 314 277 320 276 Q 348 275 364 286 Q 372 292 373 305 Q 375 318 369 328 Q 359 346 338 328 Q 320 313 311 288 Z M 253 336 Q 250 324 255 323 Q 262 322 270 330 Q 304 358 333 371 Q 368 386 404 383 Q 411 383 415 381 Q 418 379 415 370 Q 410 356 404 341 Q 402 334 403 332 Q 404 329 412 333 Q 453 356 476 375 Q 495 389 495 403 Q 495 418 474 433 Q 421 467 360 450 Q 300 435 270 382 Q 265 373 253 336 Z M 175 383 Q 194 350 221 333 Q 228 329 232 331 Q 236 334 236 341 Q 239 383 229 415 Q 225 429 211 432 Q 197 435 186 426 Q 165 407 175 383 Z" fill="black" />
  </g>
  <g class="defect" id="01">
    <path d="M 72 442 Q 65 456 31 445" fill="none" stroke="red" stroke-width="3" />
  </g>
  <g class="defect" id="02">
    <path d="M 67 211 Q 45 224 63 220" fill="none" stroke="red" stroke-width="3" />
  </g>
</svg>