<svg xmlns="http://www.w3.org/2000/svg" width="512" height="512" viewBox="0 0 512 512">
  <g class="glyph">
    <path d="M 11 388 Q 30 387 46 383 Q 78 374 111 361 Q 143 350 175 338 Q 183 334 184 339 Q 185 343 182 351 Q 169 371 137 400 Q 103 428 69 446 Q 58 451 48 452 Q 36 453 29 447 Q 22 443 14 430 Q -4 418 3 409 Q 0 400 1 395 Q 3 389 11 388 Z M 71 19 Q 77 3 92 4 Q 105 6 129 19 Q 139 26 135 40 Q 131 54 130 58 Q 153 48 153 48 Q 159 47 168 48 Q 186 55 197 71 Q 204 81 196 93 Q 159 137 145 159 Q 144 160 145 161 Q 146 161 147 161 Q 157 158 167 156 Q 175 154 185 159 Q 201 169 205 177 Q 209 187 208 200 Q 197 257 196 264 Q 188 301 177 323 Q 169 333 161 334 Q 155 336 147 333 Q 143 333 132 334 Q 110 338 87 345 Q 83 346 77 349 Q 68 354 63 353 Q 52 353 41 343 Q 6 304 13 202 Q 13 194 21 187 Q 28 179 37 178 Q 51 175 61 175 Q 82 174 91 170 Q 105 149 122 112 Q 125 105 120 107 L 101 111 Q 64 147 31 160 Q 18 166 13 164 Q 7 162 16 148 Q 52 86 71 19 Z M 80 219 66 222 Q 62 225 62 230 Q 49 269 70 287 Q 71 291 71 292 Q 73 294 75 292 L 87 291 L 85 273 Q 84 272 73 266 Q 62 255 70 247 Q 79 244 83 240 Z M 139 206 119 212 Q 128 215 125 231 Q 129 231 133 232 Q 138 233 142 240 Q 144 249 137 255 Q 135 257 125 264 L 124 285 L 133 284 Q 139 284 139 277 Q 148 239 147 214 Q 147 211 145 209 Q 143 206 139 206 Z M 279 343 Q 261 350 242 355 Q 224 357 212 349 Q 201 340 189 314 Q 188 309 193 307 Q 226 303 277 291 L 276 257 Q 244 253 234 241 Q 223 228 231 223 Q 253 215 276 206 L 274 178 Q 250 179 224 167 Q 210 160 211 152 Q 212 145 228 142 Q 296 128 350 112 Q 390 99 405 119 Q 413 130 410 141 Q 408 149 398 157 Q 374 170 348 171 L 349 194 Q 371 192 383 195 Q 400 198 402 212 Q 405 227 391 237 Q 371 248 350 254 V 280 Q 378 278 406 277 Q 422 276 431 279 Q 442 283 448 293 Q 455 305 459 320 Q 463 334 460 341 Q 457 349 441 346 Q 374 332 350 334 Q 350 398 342 443 Q 340 459 325 499 Q 321 508 314 510 Q 306 512 303 502 Q 282 477 289 447 Q 283 413 279 343 Z M 351 17 Q 353 6 361 3 Q 368 0 378 4 Q 408 14 414 29 Q 419 40 410 53 Q 398 72 374 85 Q 353 98 329 102 Q 327 103 325 102 Q 323 101 324 97 Q 347 43 351 17 Z M 229 55 Q 226 48 228 44 Q 230 42 236 42 Q 254 40 275 45 Q 290 48 296 60 Q 301 71 297 85 Q 294 99 284 105 Q 273 111 261 103 Q 243 91 229 55 Z" fill="black" />
  </g>
  <g class="defect" id="01">
    <path d="M 14 430 Q -4 418 3 409" fill="none" stroke="red" stroke-width="3" />
  </g>
  <g class="defect" id="02">
    <path d="M 62 230 Q 49 269 70 287" fill="none" stroke="red" stroke-width="3" />
  </g>
  <g class="defect" id="03">
    <path d="M 303 502 Q 282 477 289 447" fill="none" stroke="red" stroke-width="3" />
  </g>
</svg>