<svg xmlns="http://www.w3.org/2000/svg" width="512" height="512" viewBox="0 0 512 512">
  <g class="glyph">
    <path d="M 333 222 Q 333 215 329 216 Q 318 217 314 221 L 313 260 Q 320 259 325 253 Q 332 245 333 222 Z M 511 389 Q 510 409 491 424 Q 476 437 455 442 Q 407 452 347 443 Q 305 437 283 416 Q 259 395 258 360 Q 256 304 264 202 Q 265 187 293 192 Q 320 177 344 169 Q 361 162 386 184 Q 397 193 399 198 Q 401 203 395 213 Q 381 239 374 264 Q 371 277 370 288 Q 369 298 353 301 Q 332 305 314 311 Q 314 328 314 344 Q 314 363 327 374 Q 338 382 357 383 Q 396 384 432 374 Q 450 369 461 351 Q 465 344 476 313 Q 477 309 481 309 Q 484 309 485 312 Q 512 363 511 389 Z M 488 119 Q 476 150 471 194 Q 464 248 461 264 Q 454 295 443 317 Q 428 344 405 350 Q 389 355 374 338 Q 361 323 358 305 Q 357 299 370 302 Q 381 304 386 299 Q 391 294 396 276 Q 410 218 413 141 Q 413 136 410 134 Q 409 132 406 132 Q 346 156 322 145 Q 301 163 281 172 Q 260 182 253 179 Q 250 178 253 173 Q 274 138 293 85 Q 312 35 313 15 Q 313 9 314 7 Q 315 5 323 4 Q 346 3 367 15 Q 388 27 380 50 Q 368 74 353 99 Q 395 95 423 83 Q 436 76 465 92 Q 492 107 488 119 Z M 203 308 Q 203 286 202 268 Q 200 259 202 255 Q 203 252 206 252 Q 228 251 242 263 Q 254 274 253 289 Q 249 354 235 396 Q 229 420 216 424 Q 203 427 190 405 Q 154 409 102 430 Q 81 437 66 429 Q 44 407 44 386 Q 46 343 40 303 Q 20 279 40 291 Q 42 286 49 285 Q 93 282 93 314 Q 93 355 97 374 Q 122 371 150 364 Q 178 358 197 355 Q 200 345 200 335 Q 192 344 177 336 Q 163 328 150 313 Q 129 336 108 346 Q 98 349 96 344 Q 94 340 99 329 Q 116 291 122 241 Q 104 247 71 261 Q 49 270 34 265 Q 17 259 4 235 Q 0 226 2 221 Q 3 216 11 216 Q 34 214 62 205 Q 48 132 40 110 Q 34 90 47 89 Q 95 87 111 117 Q 112 160 115 187 Q 123 184 131 182 Q 130 127 121 19 Q 120 12 122 9 Q 124 7 130 6 Q 168 0 188 19 Q 182 25 193 43 Q 192 60 190 77 Q 213 72 227 74 Q 241 76 249 84 Q 259 92 258 105 Q 257 117 236 124 Q 217 130 188 133 Q 187 145 187 166 Q 193 165 198 164 Q 230 157 241 170 Q 251 182 253 197 Q 255 212 244 213 Q 206 218 167 228 Q 184 237 180 254 Q 176 272 168 286 Q 190 289 199 301 Q 200 303 203 308 Z" fill="black" />
  </g>
  <g class="defect" id="01">
    <path d="M 40 303 Q 20 279 40 291" fill="none" stroke="red" stroke-width="3" />
  </g>
  <g class="defect" id="02">
    <path d="M 188 19 Q 182 25 193 43" fill="none" stroke="red" stroke-width="3" />
  </g>
  <g class="defect" id="03">
    <path d="M 47 89 Q 95 87 111 117" fill="none" stroke="red" stroke-width="3" />
  </g>
</svg>