<svg xmlns="http://www.w3.org/2000/svg" width="512" height="512" viewBox="0 0 512 512">
  <g class="glyph">
    <path d="M 419 229 Q 416 234 415 235 Q 415 237 416 239 Q 418 238 424 236 Q 425 237 425 238 Q 426 238 426 239 Q 438 260 436 287 Q 435 298 433 308 Q 430 318 427 327 Q 423 342 418 358 Q 413 373 408 388 Q 406 394 405 399 Q 403 405 402 411 Q 413 410 423 406 Q 432 403 442 398 Q 447 406 453 412 Q 454 414 455 416 Q 457 418 460 417 Q 460 417 461 417 Q 461 418 462 418 Q 465 423 469 428 Q 473 433 478 438 Q 476 440 475 441 Q 474 442 473 443 Q 473 443 474 446 Q 475 446 477 445 Q 479 445 481 445 Q 491 459 496 477 Q 495 478 491 481 Q 473 491 452 497 Q 432 503 410 502 Q 394 502 379 497 Q 364 493 351 482 Q 345 475 338 469 Q 331 463 325 456 Q 316 446 312 435 Q 309 423 307 410 Q 307 397 309 384 Q 311 371 314 359 Q 318 343 323 327 Q 328 311 333 294 Q 334 290 335 285 Q 337 281 338 276 Q 337 276 335 276 Q 334 275 333 275 Q 300 274 270 283 Q 237 291 205 303 Q 174 314 143 329 Q 139 331 138 335 Q 137 375 136 414 Q 136 454 136 494 V 503 Q 133 505 125 507 Q 117 508 110 507 Q 110 503 109 498 Q 109 493 109 487 Q 107 489 107 491 Q 106 493 106 494 Q 105 500 102 502 Q 100 505 93 506 Q 89 506 85 509 Q 85 510 84 511 Q 83 511 82 512 Q 82 509 82 505 Q 82 502 82 499 H 81 Q 80 502 80 504 Q 79 506 78 509 Q 75 508 72 508 Q 69 508 66 507 Q 65 501 65 494 Q 64 487 63 481 H 63 Q 62 484 61 486 Q 61 488 60 491 L 48 489 Q 43 415 41 341 Q 39 268 42 193 Q 65 188 86 190 Q 107 193 129 199 Q 129 202 129 205 Q 129 209 129 211 Q 133 214 139 212 Q 161 205 182 198 Q 203 191 225 186 Q 262 177 301 176 Q 316 176 330 177 Q 344 178 358 183 Q 369 186 378 192 Q 388 197 396 206 Q 400 211 405 215 Q 410 219 414 224 Q 415 225 417 227 Q 418 228 419 229 Z M 122 303 Q 124 302 126 302 Q 127 301 129 301 Q 154 289 179 279 Q 205 270 232 262 Q 250 257 267 254 Q 285 250 303 250 Q 311 249 320 249 Q 328 250 336 252 Q 344 254 347 258 Q 349 261 347 270 V 270 Q 346 277 344 283 Q 343 290 341 297 Q 336 315 330 333 Q 325 351 321 369 Q 318 381 317 392 Q 315 404 317 415 Q 319 431 327 443 Q 334 455 347 463 Q 366 475 390 477 Q 410 478 429 473 Q 449 468 467 458 Q 468 458 469 457 Q 469 457 470 456 Q 467 451 465 446 Q 463 441 461 436 Q 445 441 429 446 Q 414 450 398 453 Q 411 445 424 437 Q 437 428 450 419 Q 447 417 445 414 Q 443 411 442 409 H 440 Q 439 409 437 410 Q 419 418 401 419 Q 396 419 392 418 Q 387 418 383 416 Q 376 414 376 407 Q 376 401 377 398 Q 379 389 381 379 Q 383 369 386 359 Q 391 342 396 327 Q 402 311 407 295 Q 411 282 412 270 Q 413 257 410 245 Q 409 240 407 236 Q 406 232 403 227 Q 389 233 376 239 Q 362 245 348 250 Q 359 240 371 231 Q 382 222 393 211 Q 389 208 387 206 Q 384 204 381 202 Q 372 195 362 192 Q 351 188 341 186 Q 329 184 319 184 Q 308 183 297 183 Q 285 184 273 185 Q 261 186 249 189 Q 219 194 190 203 Q 161 211 133 222 Q 128 224 128 229 Q 127 242 126 257 Q 125 271 124 285 Q 122 293 122 303 Z M 55 477 Q 57 469 58 462 Q 59 455 62 449 Q 66 457 68 464 Q 70 472 71 480 Q 78 480 79 479 Q 80 478 81 473 Q 83 455 85 439 Q 87 422 89 405 Q 89 403 89 401 Q 89 399 90 398 Q 92 398 94 398 Q 95 398 97 398 Q 98 419 98 440 Q 98 461 99 482 Q 103 481 105 481 Q 108 481 111 479 Q 110 410 112 342 Q 115 273 121 204 Q 103 199 86 198 Q 68 196 50 199 Q 49 206 48 228 Q 47 250 48 279 Q 48 308 49 340 Q 49 373 50 401 Q 51 430 52 450 Q 53 471 55 477 Z M 187 72 Q 182 65 177 57 Q 172 50 167 43 Q 171 38 180 31 Q 189 25 199 18 Q 210 12 221 7 Q 233 2 244 0 Q 246 5 249 10 Q 251 15 253 20 Q 255 20 257 19 Q 259 19 262 18 L 269 32 Q 270 35 272 39 Q 274 42 275 46 Q 274 47 273 49 Q 273 50 271 51 Q 273 51 274 51 Q 276 51 278 50 Q 281 55 283 61 Q 285 66 288 71 Q 290 76 296 77 Q 314 77 332 78 Q 350 78 369 79 Q 391 80 414 81 Q 437 81 460 82 Q 465 82 466 87 Q 466 89 466 91 Q 466 94 467 97 Q 467 100 471 100 H 483 Q 487 118 486 136 Q 486 153 482 171 H 231 Q 231 167 231 164 Q 230 160 230 156 H 229 Q 227 160 226 164 Q 225 167 223 171 H 25 Q 23 166 23 162 Q 22 158 21 153 H 6 Q 6 150 5 148 Q 4 145 3 142 Q 0 125 1 107 Q -8 89 6 71 Q 7 67 8 66 Q 9 66 13 66 Q 25 67 37 67 Q 49 67 61 67 Q 80 69 99 69 Q 117 69 136 70 Q 147 71 159 71 Q 171 71 183 71 Q 183 72 187 72 Z M 199 146 Q 201 139 203 132 Q 205 126 207 119 Q 209 113 210 107 Q 211 100 213 94 Q 216 107 217 120 Q 218 133 219 146 H 458 Q 460 132 461 118 Q 461 105 458 90 Q 346 86 236 82 Q 125 78 13 74 Q 9 92 8 110 Q 7 127 12 146 Z M 177 44 Q 181 51 186 57 Q 190 64 195 70 Q 197 73 201 73 Q 215 74 230 74 Q 244 74 259 75 H 273 Q 268 66 264 58 Q 259 50 255 41 Q 248 42 241 44 Q 235 46 227 47 Q 233 42 238 37 Q 243 32 248 27 Q 246 22 244 18 Q 242 14 239 9 Q 222 15 206 23 Q 190 31 177 44 Z" fill="black" />
  </g>
  <g class="defect" id="01">
    <path d="M 1 107 Q -8 89 6 71" fill="none" stroke="red" stroke-width="3" />
  </g>
</svg>