<svg xmlns="http://www.w3.org/2000/svg" width="512" height="512" viewBox="0 0 512 512">
  <g class="glyph">
    <path d="M 477 395 Q 477 396 477 397 Q 477 397 477 398 Q 476 408 473 418 Q 470 428 467 438 Q 461 451 455 464 Q 448 477 440 489 Q 439 489 437 489 Q 436 489 435 488 Q 420 483 407 475 Q 394 467 383 457 Q 380 455 381 453 Q 381 451 379 450 Q 376 447 372 445 Q 369 443 366 440 Q 365 439 362 437 Q 363 435 364 434 Q 365 432 366 430 Q 370 422 374 414 Q 378 405 381 397 Q 384 392 385 387 Q 386 381 387 376 V 369 Q 388 362 381 360 Q 373 357 364 355 Q 355 353 347 353 Q 326 351 306 352 Q 286 353 266 356 Q 254 357 244 358 Q 234 360 223 362 Q 223 374 224 386 Q 224 398 225 410 Q 226 422 226 434 Q 227 445 228 457 Q 228 469 229 481 Q 230 493 231 505 Q 226 507 221 508 Q 216 509 210 510 Q 210 505 210 502 Q 209 498 209 495 Q 206 498 203 498 Q 200 498 197 500 Q 194 501 191 502 Q 188 504 185 506 V 491 H 183 Q 182 496 182 501 Q 181 506 180 512 Q 176 512 171 512 Q 166 511 161 510 Q 161 506 160 503 Q 160 499 159 495 Q 155 494 152 494 Q 148 493 143 493 Q 126 466 138 439 Q 136 412 133 385 Q 110 392 89 399 Q 68 406 46 414 Q 42 410 39 405 Q 37 399 33 395 Q 32 395 30 396 Q 29 396 27 397 Q 14 378 8 358 Q 2 338 0 316 Q 30 306 61 297 Q 92 288 123 280 Q 122 263 121 247 Q 119 230 118 213 Q 109 217 99 221 Q 89 224 80 227 Q 77 223 74 218 Q 71 213 68 208 Q 67 208 62 209 Q 57 204 52 194 Q 47 185 43 173 Q 39 161 36 150 Q 33 138 33 130 Q 52 123 71 117 Q 90 111 110 106 Q 109 84 107 63 Q 105 42 104 21 Q 125 14 146 13 Q 168 12 189 17 V 32 Q 194 33 198 33 Q 202 33 206 34 Q 206 35 207 37 Q 207 38 207 39 V 60 Q 207 64 204 65 Q 199 68 194 71 Q 192 71 192 72 Q 192 72 191 73 Q 191 73 191 74 Q 197 73 199 72 Q 201 71 203 71 Q 205 70 208 70 Q 208 74 208 78 Q 208 82 209 86 Q 211 86 212 86 Q 214 86 215 86 Q 226 85 236 84 Q 246 84 257 83 Q 268 83 280 83 Q 291 84 303 86 Q 321 89 338 96 Q 355 103 369 116 Q 375 122 381 127 Q 387 133 393 140 Q 416 165 416 199 Q 401 216 413 232 Q 409 249 404 265 Q 402 270 400 277 Q 401 278 402 279 Q 403 279 404 280 Q 422 290 437 307 Q 440 311 444 314 Q 448 317 451 321 Q 454 324 456 327 Q 458 330 461 333 Q 460 337 457 339 Q 453 341 456 345 Q 458 344 460 343 Q 462 343 465 342 Q 466 344 467 345 Q 468 347 469 349 Q 471 356 473 361 Q 475 367 475 374 Q 475 375 475 375 Q 475 376 475 377 Q 477 381 477 386 Q 477 390 477 395 Z M 372 435 Q 384 444 395 451 Q 406 458 419 462 Q 420 462 420 461 Q 430 446 437 430 Q 444 414 449 397 Q 453 382 453 367 Q 453 353 448 338 Q 448 337 447 336 Q 447 335 446 333 Q 436 338 426 342 Q 415 345 405 349 Q 413 340 421 333 Q 429 325 437 315 Q 435 314 435 313 Q 435 313 434 312 Q 433 311 433 311 Q 433 311 432 309 Q 423 298 411 291 Q 399 283 385 277 Q 370 271 354 269 Q 338 266 321 265 Q 303 264 284 264 Q 266 264 247 266 Q 220 268 194 273 Q 169 277 142 284 Q 110 291 78 301 Q 46 310 14 320 Q 11 321 11 321 Q 11 329 13 338 Q 15 348 19 358 Q 22 368 26 376 Q 30 384 33 387 Q 34 387 34 387 Q 34 387 35 387 H 35 Q 44 383 53 380 Q 61 378 69 375 Q 102 363 135 354 Q 167 344 201 338 Q 222 333 244 330 Q 265 327 286 326 Q 301 326 315 326 Q 329 326 344 329 Q 363 331 379 340 Q 399 353 396 378 Q 394 384 392 391 Q 390 397 388 403 Q 381 420 372 435 Z M 373 267 Q 374 266 375 265 Q 381 248 387 230 Q 392 213 393 194 Q 395 176 391 160 Q 387 145 375 131 Q 367 121 356 114 Q 345 106 333 102 Q 316 96 299 93 Q 282 91 264 92 Q 251 92 239 93 Q 227 93 215 95 Q 210 95 205 96 Q 199 96 194 97 Q 195 114 195 130 Q 196 146 197 163 Q 204 161 210 160 Q 217 159 223 158 Q 233 157 243 156 Q 254 155 264 154 Q 268 154 270 150 Q 275 141 279 131 Q 284 122 289 112 Q 289 112 291 109 Q 291 115 291 121 Q 290 127 290 132 Q 290 138 289 143 Q 289 149 289 155 L 301 156 Q 307 158 313 160 Q 319 161 325 165 Q 329 169 332 174 Q 335 178 335 185 Q 334 190 334 195 Q 334 200 333 206 Q 331 218 327 230 Q 324 241 319 253 Q 318 254 318 255 Q 318 257 317 259 Q 331 259 345 261 Q 360 263 373 267 Z M 143 68 Q 143 67 142 66 Q 154 60 164 54 Q 174 47 185 41 Q 184 37 184 32 Q 184 28 184 23 Q 146 33 149 21 Q 132 21 115 26 Q 114 29 115 48 Q 116 67 118 95 Q 120 122 123 154 Q 125 185 128 212 Q 130 239 132 258 Q 133 276 134 277 Q 149 275 164 271 Q 179 268 194 265 V 257 Q 192 228 191 201 Q 190 174 188 146 Q 187 126 187 106 Q 187 87 186 67 Q 186 66 186 65 Q 186 64 186 62 Q 179 64 175 64 Q 170 65 165 66 Q 159 67 154 67 Q 149 68 143 68 Z M 214 187 Q 215 206 216 225 Q 217 244 218 263 Q 264 256 309 258 Q 317 240 322 221 Q 328 203 328 183 Q 321 181 314 180 Q 307 179 299 179 Q 299 174 299 171 Q 299 168 300 164 Q 299 164 299 163 Q 298 166 296 169 Q 294 171 293 174 Q 291 179 286 179 Q 272 179 258 180 Q 244 182 230 184 Q 226 185 222 186 Q 219 187 214 187 Z M 206 482 Q 205 471 204 459 Q 204 448 203 437 Q 202 425 202 414 Q 201 402 200 391 Q 199 380 199 369 Q 198 357 197 346 Q 182 350 168 353 Q 154 357 140 361 Q 142 393 145 424 Q 148 455 151 487 H 157 Q 159 477 160 467 Q 161 457 163 446 Q 168 453 171 460 Q 174 467 176 475 Q 177 474 179 474 Q 181 474 183 473 Q 185 453 185 434 Q 185 415 185 395 H 192 Q 194 417 196 439 Q 197 461 199 483 Q 203 483 206 482 Z M 43 136 Q 48 172 67 202 Q 80 197 92 193 Q 104 188 117 183 Q 116 166 114 149 Q 113 132 112 114 Q 94 119 77 124 Q 60 130 43 136 Z M 472 97 Q 464 112 452 124 Q 441 137 426 147 Q 405 131 382 116 Q 360 102 336 89 Q 337 87 337 86 Q 337 84 338 83 Q 333 80 328 77 Q 323 74 318 71 Q 332 30 365 0 Q 367 1 369 3 Q 371 4 372 5 Q 384 15 396 25 Q 407 35 419 44 Q 420 46 423 50 Q 424 51 425 51 Q 426 52 427 53 Q 430 55 433 58 Q 435 60 438 63 Q 447 71 455 79 Q 463 87 471 95 L 471 96 Q 471 96 472 97 Z M 327 68 Q 348 79 369 93 Q 389 106 408 120 Q 431 102 446 79 Q 436 71 429 62 Q 423 66 416 70 Q 410 73 404 77 Q 401 80 397 80 Q 393 80 389 80 Q 395 72 401 64 Q 407 56 413 48 Q 402 38 390 28 Q 379 19 366 9 Q 353 22 343 36 Q 334 51 327 68 Z" fill="black" />
  </g>
  <g class="defect" id="01">
    <path d="M 416 199 Q 401 216 413 232" fill="none" stroke="red" stroke-width="3" />
  </g>
  <g class="defect" id="02">
    <path d="M 143 493 Q 126 466 138 439" fill="none" stroke="red" stroke-width="3" />
  </g>
  <g class="defect" id="03">
    <path d="M 184 23 Q 146 33 149 21" fill="none" stroke="red" stroke-width="3" />
  </g>
</svg>