<svg xmlns="http://www.w3.org/2000/svg" width="512" height="512" viewBox="0 0 512 512">
  <g class="glyph">
    <path d="M 330 0 Q 342 7 351 16 Q 357 22 363 28 Q 369 33 374 39 Q 382 47 389 56 Q 395 65 400 75 Q 400 76 400 77 Q 400 78 402 79 Q 400 80 399 81 Q 398 81 397 82 Q 410 90 423 99 Q 435 107 448 115 Q 446 117 446 119 Q 446 120 448 121 Q 450 123 451 122 Q 454 120 455 121 Q 457 122 459 123 Q 468 129 477 135 Q 485 141 494 147 Q 494 148 494 149 Q 494 150 493 152 Q 498 155 502 158 Q 507 161 512 164 Q 500 195 477 220 Q 455 209 434 197 Q 437 211 437 224 Q 437 237 435 251 H 482 Q 483 255 484 259 Q 484 263 485 268 H 499 Q 502 281 503 292 Q 499 294 496 296 Q 493 297 489 299 Q 485 301 487 305 H 504 Q 505 312 504 319 Q 503 327 502 334 Q 488 335 474 336 Q 460 337 446 338 Q 462 366 477 394 Q 492 421 508 448 Q 502 454 496 459 Q 490 464 483 468 Q 480 464 478 461 Q 475 457 473 454 Q 473 454 472 454 Q 473 458 475 462 Q 476 466 477 471 Q 471 475 464 478 Q 458 481 451 483 Q 447 479 444 474 Q 441 470 438 465 Q 437 465 437 465 Q 436 465 436 465 Q 434 465 433 466 Q 431 462 429 459 Q 426 456 424 453 Q 420 455 415 457 Q 410 459 406 461 Q 385 470 363 477 Q 341 483 318 488 Q 305 490 292 490 Q 278 491 265 488 Q 257 486 247 481 Q 249 479 251 477 Q 252 475 254 473 Q 253 471 250 472 Q 248 473 246 474 Q 244 475 243 476 Q 240 477 238 475 Q 235 472 232 469 Q 228 466 225 463 Q 223 459 220 458 Q 194 438 194 402 Q 194 392 197 384 Q 199 375 202 366 Q 203 364 203 362 Q 199 361 195 362 Q 192 363 187 362 Q 185 358 184 354 Q 183 349 181 345 Q 178 345 176 345 Q 174 345 170 345 Q 168 341 167 337 Q 166 332 164 328 H 164 Q 164 360 164 391 Q 176 422 165 454 Q 158 456 151 457 Q 144 458 137 458 Q 136 454 135 449 Q 134 445 133 440 Q 132 440 131 440 Q 130 440 129 440 Q 129 445 128 450 Q 128 454 127 459 Q 120 459 113 458 Q 105 458 98 457 Q 97 453 97 449 Q 97 446 96 441 Q 89 441 80 440 Q 76 387 73 334 Q 70 281 67 228 Q 64 229 62 231 Q 61 232 58 233 L 52 227 Q 48 224 45 220 Q 42 217 39 214 Q 32 209 28 202 Q 23 195 18 189 Q 21 185 22 184 Q 21 182 21 181 Q 20 180 19 177 Q 15 178 12 179 Q 8 173 6 167 Q 3 161 0 155 Q 38 127 78 104 Q 117 80 159 59 Q 161 62 163 64 Q 164 66 166 69 Q 167 71 169 74 Q 170 76 172 78 Q 173 78 174 78 Q 175 78 176 77 Q 185 87 191 98 Q 197 109 202 122 Q 210 114 218 106 Q 226 98 234 91 Q 242 83 249 75 Q 257 67 265 60 Q 273 52 281 45 Q 289 37 297 30 Q 314 15 330 0 Z M 480 294 Q 465 295 450 295 Q 436 296 422 295 Q 437 289 451 283 Q 465 278 479 270 Q 479 267 478 264 Q 478 261 477 258 Q 473 257 458 257 Q 443 258 421 258 Q 400 259 373 260 Q 347 261 319 262 Q 292 263 266 265 Q 240 266 219 267 Q 199 269 185 270 Q 172 271 170 271 Q 168 288 169 305 Q 170 321 176 337 H 180 Q 195 335 212 333 Q 228 331 244 330 Q 266 328 288 326 Q 309 323 331 321 Q 348 320 364 319 Q 381 318 397 316 Q 400 315 402 315 Q 404 314 406 313 Q 414 311 420 308 Q 422 310 422 310 Q 424 314 429 313 Q 438 312 447 312 Q 457 312 466 311 Q 469 310 472 310 Q 475 310 479 310 Q 479 306 479 302 Q 480 298 480 294 Z M 242 461 Q 245 462 248 463 Q 260 466 273 466 Q 285 465 297 463 Q 335 457 372 441 Q 389 435 407 427 Q 398 415 390 404 Q 382 394 374 382 Q 373 382 370 383 Q 332 399 291 404 Q 286 405 281 405 Q 277 405 272 405 Q 263 404 267 396 Q 270 391 272 386 Q 274 381 278 376 Q 283 368 288 361 Q 294 354 300 346 Q 301 345 302 344 Q 303 343 304 342 Q 302 339 301 338 Q 299 336 297 335 Q 295 332 291 332 Q 286 333 281 333 Q 276 334 270 334 Q 259 335 249 336 Q 238 337 227 338 Q 224 339 220 343 Q 215 354 210 365 Q 206 376 203 388 Q 201 402 203 415 Q 206 428 214 440 Q 218 446 225 451 Q 235 445 245 439 Q 255 433 266 428 Q 267 429 267 430 Q 268 431 269 433 Q 262 440 256 447 Q 265 454 242 461 Z M 196 216 Q 240 175 285 137 Q 329 98 376 60 Q 367 45 356 32 Q 346 20 332 10 Q 331 10 329 12 Q 264 72 201 135 Q 198 139 198 143 Q 190 144 185 152 Q 182 156 178 159 Q 175 162 173 165 L 160 178 Q 167 189 176 198 Q 185 208 196 216 Z M 74 200 Q 76 259 80 317 Q 83 375 88 434 H 93 Q 94 424 94 414 Q 95 404 96 394 H 96 Q 98 403 100 413 Q 103 423 105 433 H 106 Q 107 411 108 390 Q 109 368 110 346 H 112 Q 116 369 120 390 Q 124 412 128 434 Q 132 433 136 433 Q 139 433 143 432 V 426 Q 143 417 143 408 Q 142 399 142 390 Q 142 366 142 343 Q 142 320 142 296 Q 142 274 142 251 Q 142 229 142 207 V 200 Q 135 200 127 200 Q 120 200 113 200 V 199 Q 120 194 127 190 Q 135 186 142 182 V 168 Q 124 175 107 183 Q 90 191 74 200 Z M 61 158 Q 61 159 62 159 Q 53 167 45 174 Q 37 182 28 190 Q 32 194 36 199 Q 39 203 43 207 Q 79 187 116 171 Q 152 155 190 138 Q 184 120 177 102 Q 169 84 158 69 Q 119 89 82 110 Q 46 132 10 158 Q 13 166 17 171 Q 29 168 40 165 Q 50 161 61 158 Z M 411 184 Q 410 184 409 184 Q 409 183 408 183 Q 398 183 389 183 Q 379 183 369 182 Q 346 181 323 180 Q 300 179 277 178 Q 264 177 253 176 Q 250 176 248 178 Q 245 181 242 183 Q 240 185 238 187 Q 235 190 235 192 Q 235 200 234 207 Q 234 214 234 221 Q 234 225 235 228 Q 236 232 236 236 Q 263 235 290 235 Q 316 234 343 233 Q 346 221 348 209 Q 351 198 355 186 Q 356 198 358 209 Q 360 221 361 233 Q 374 233 387 232 Q 400 232 412 231 Q 413 218 413 207 Q 413 195 411 184 Z M 317 117 Q 353 137 388 156 Q 423 174 459 193 Q 468 183 475 172 Q 482 161 487 149 Q 479 144 473 140 Q 466 135 460 131 Q 455 127 449 131 Q 445 133 440 135 Q 436 138 432 139 Q 424 142 417 140 Q 423 134 428 128 Q 432 123 438 117 Q 421 106 404 95 Q 387 84 370 73 Q 356 85 343 96 Q 330 107 317 117 Z M 437 457 Q 441 455 444 453 Q 448 451 452 450 Q 449 440 446 431 Q 443 422 441 413 H 442 Q 442 413 443 413 Q 443 414 443 414 Q 453 419 459 428 Q 462 431 464 434 Q 466 437 468 440 Q 472 438 475 435 Q 478 432 482 430 Q 466 400 451 373 Q 435 345 418 317 Q 411 319 402 324 Q 394 328 386 334 Q 378 339 372 345 Q 365 350 363 354 Q 381 380 400 405 Q 418 430 437 457 Z M 247 259 Q 246 254 245 251 Q 245 247 244 243 H 230 Q 229 239 228 236 Q 228 233 227 229 Q 223 232 220 235 Q 217 238 213 241 Q 199 232 188 220 Q 177 209 165 198 Q 165 200 165 201 Q 165 202 164 203 Q 161 204 159 206 Q 157 207 155 208 Q 155 209 155 209 H 164 Q 165 223 164 236 Q 164 249 164 263 Q 185 262 206 261 Q 226 260 247 259 Z M 394 176 Q 394 175 395 174 Q 378 166 361 157 Q 345 149 329 140 Q 326 142 321 146 Q 315 151 309 156 Q 303 161 298 166 Q 294 170 293 172 Q 319 173 344 174 Q 369 175 394 176 Z M 302 396 Q 306 396 316 394 Q 326 391 337 388 Q 347 385 357 382 Q 366 379 370 376 Q 365 370 361 365 Q 357 360 353 354 Q 355 351 357 349 Q 359 347 361 344 Q 350 345 341 346 Q 331 347 321 348 Q 324 351 326 354 Q 328 356 330 359 Q 322 368 315 377 Q 308 386 302 396 Z M 371 253 Q 371 250 370 247 Q 370 244 370 242 H 369 Q 368 244 367 247 Q 367 250 366 253 Z M 419 189 Q 420 191 420 193 H 428 Q 425 192 424 192 Q 423 191 422 190 Q 421 190 419 189 Z" fill="black" />
  </g>
  <g class="defect" id="01">
    <path d="M 256 447 Q 265 454 242 461" fill="none" stroke="red" stroke-width="3" />
  </g>
  <g class="defect" id="02">
    <path d="M 164 391 Q 176 422 165 454" fill="none" stroke="red" stroke-width="3" />
  </g>
</svg>