<svg xmlns="http://www.w3.org/2000/svg" width="512" height="512" viewBox="0 0 512 512">
  <g class="glyph">
    <path d="M 26 211 Q 37 210 47 212 Q 58 214 68 216 Q 79 219 88 224 Q 98 228 108 233 Q 106 226 105 221 Q 104 216 102 210 Q 109 207 115 204 Q 122 201 129 198 Q 149 190 170 185 Q 190 180 211 177 Q 246 170 281 168 Q 289 167 336 170 Q 362 174 389 186 Q 401 191 413 198 Q 425 205 435 216 Q 440 222 446 227 Q 451 232 456 237 Q 454 242 456 245 Q 458 248 460 251 Q 461 251 463 251 Q 464 251 466 250 Q 468 253 470 255 Q 479 270 484 286 Q 488 301 489 318 Q 490 343 486 365 Q 481 388 473 410 Q 468 425 462 438 Q 456 452 449 467 Q 449 468 448 470 Q 447 471 446 472 Q 433 470 421 465 Q 410 460 398 453 Q 400 463 401 472 Q 402 481 403 490 Q 401 490 400 491 Q 399 492 398 492 Q 372 497 347 502 Q 322 506 296 509 Q 258 512 220 510 Q 194 509 168 505 Q 143 502 118 494 Q 102 489 88 482 Q 74 474 62 463 Q 56 457 50 451 Q 44 445 38 438 Q 26 425 19 409 Q 12 394 8 377 Q 5 361 4 344 Q -13 328 6 311 Q 8 287 13 264 Q 18 241 24 219 Q 24 216 26 211 Z M 32 218 Q 32 219 31 220 Q 31 221 31 222 Q 29 229 27 236 Q 25 243 23 250 Q 19 268 16 285 Q 13 303 12 322 Q 11 337 12 351 Q 13 366 17 381 Q 23 406 37 424 Q 50 443 72 456 Q 83 461 93 465 Q 104 469 115 472 Q 180 488 248 484 Q 275 483 302 479 Q 329 476 355 471 Q 361 470 366 468 Q 371 467 376 466 Q 376 461 375 454 Q 374 446 372 438 Q 371 430 368 422 Q 366 415 364 411 Q 364 411 363 411 Q 361 411 360 411 Q 329 418 297 421 Q 266 424 233 423 Q 208 423 184 420 Q 159 417 134 410 Q 127 408 120 406 Q 113 403 107 399 Q 90 390 84 369 Q 80 351 82 330 Q 83 313 86 297 Q 90 282 94 266 Q 97 259 98 252 Q 100 244 102 237 Q 86 229 68 224 Q 51 219 32 218 Z M 144 279 Q 148 278 152 276 Q 155 274 159 272 Q 176 265 193 260 Q 210 255 228 251 Q 248 247 269 244 Q 290 241 311 242 Q 326 243 340 246 Q 355 248 368 255 Q 381 261 389 269 Q 397 278 401 291 Q 404 303 403 315 Q 403 336 397 354 Q 393 369 387 384 Q 382 399 376 414 Q 372 422 380 426 Q 389 432 399 436 Q 408 440 418 443 Q 422 444 424 445 Q 425 443 426 440 Q 433 426 439 413 Q 446 399 450 383 Q 457 361 461 339 Q 465 317 464 294 Q 461 266 447 244 Q 447 243 446 242 Q 446 241 445 240 L 410 254 Q 403 257 394 252 Q 404 244 412 236 Q 421 228 429 219 Q 428 218 427 218 Q 426 217 425 216 Q 411 203 394 195 Q 378 187 360 183 Q 336 176 313 175 Q 289 174 265 176 Q 230 180 195 187 Q 154 195 117 211 Q 116 212 114 212 Q 112 213 111 214 Q 116 233 124 248 Q 132 264 144 279 Z M 209 270 Q 209 274 209 285 Q 209 297 210 312 Q 210 327 211 344 Q 212 361 213 376 Q 214 391 214 402 Q 215 413 216 416 Q 232 417 246 417 Q 261 417 275 415 Q 276 379 278 344 Q 279 308 280 272 Q 263 268 245 267 Q 227 266 209 270 Z M 205 378 Q 204 362 204 346 Q 203 330 202 314 Q 192 315 182 316 Q 172 317 162 318 Q 159 328 157 337 Q 154 346 150 354 Q 142 351 140 343 Q 140 340 139 338 Q 139 335 138 333 Q 137 330 137 327 Q 137 323 136 321 Q 124 322 112 323 Q 100 323 88 325 Q 86 346 89 362 Q 90 367 92 370 Q 94 374 95 379 Q 97 384 102 383 Q 123 382 144 381 Q 165 380 186 379 Q 191 379 195 378 Q 200 378 205 378 Z M 369 368 Q 371 350 370 332 Q 368 314 362 296 Q 343 298 325 300 Q 306 303 287 305 Q 286 322 286 339 Q 285 357 285 374 Q 306 372 327 371 Q 347 369 369 368 Z M 394 330 Q 394 327 395 323 Q 395 320 396 316 Q 396 310 395 303 Q 394 297 393 290 Q 392 287 390 284 Q 387 280 383 279 Q 381 279 379 278 Q 378 277 375 276 Q 365 284 333 268 Q 311 268 289 271 Q 289 276 289 279 Q 293 280 298 282 Q 303 283 308 284 V 294 Q 323 293 337 291 Q 352 289 367 287 Q 369 292 371 297 Q 372 302 374 307 Q 376 306 379 306 Q 382 306 385 305 Q 387 312 390 319 Q 392 325 393 330 Z M 112 315 Q 120 314 127 314 Q 134 313 143 312 Q 144 317 145 322 Q 145 327 146 332 Q 149 332 150 330 Q 150 329 151 328 Q 152 325 153 321 Q 154 318 155 314 Q 157 310 161 310 Q 167 310 174 309 Q 180 308 187 307 Q 194 307 201 305 V 290 Q 180 296 159 307 Q 157 303 154 299 Q 151 296 148 291 Q 147 290 146 288 Q 145 287 142 288 Q 141 288 139 286 Q 136 282 133 278 Q 130 274 127 271 Q 126 269 126 269 Q 126 268 125 266 Q 121 279 118 291 Q 115 303 112 315 Z M 303 413 Q 307 413 310 412 Q 335 408 362 403 Q 365 403 367 403 Q 369 403 371 406 Q 372 403 373 401 Q 374 398 375 394 Q 357 396 339 397 Q 321 398 303 399 Z M 158 407 Q 161 408 168 410 Q 176 411 184 413 Q 191 414 198 414 Q 205 414 208 414 Q 207 411 207 409 Q 207 407 207 405 Q 195 406 183 406 Q 170 406 158 407 Z M 110 237 Q 109 241 109 241 Q 109 242 112 243 Q 112 242 111 241 Q 111 240 110 237 Z M 461 71 Q 462 76 462 80 Q 463 84 464 89 Q 467 90 471 90 Q 475 90 479 90 Q 485 124 478 161 H 466 H 442 Q 419 161 396 161 Q 374 162 350 162 Q 333 163 316 163 Q 299 163 282 163 Q 262 164 242 165 Q 222 165 202 166 L 115 169 H 112 Q 111 165 110 160 Q 110 155 109 151 H 104 Q 103 155 102 160 Q 101 165 99 170 Q 81 171 63 172 Q 44 172 26 173 Q 24 169 23 164 Q 22 159 21 155 H 8 Q 0 133 0 111 Q 0 90 4 67 Q 51 66 98 66 Q 144 66 191 66 Q 187 59 183 52 Q 179 45 175 38 Q 192 23 212 14 Q 232 5 254 0 Q 258 5 259 10 Q 260 15 263 20 Q 268 20 273 18 Q 276 24 278 31 Q 280 37 283 42 Q 281 45 278 47 Q 274 48 273 53 Q 277 52 280 52 Q 282 52 285 51 Q 288 58 291 66 Q 333 67 375 69 Q 417 70 461 71 Z M 99 143 Q 108 143 115 143 Q 122 143 130 142 Q 149 141 168 141 Q 187 140 207 140 Q 223 139 240 139 Q 257 138 273 138 Q 295 137 317 137 Q 338 137 359 136 Q 381 136 403 136 Q 426 136 448 136 H 453 Q 456 121 456 107 Q 457 93 454 79 Q 445 79 435 78 Q 426 78 417 77 Q 398 77 380 77 Q 362 76 344 76 Q 319 75 294 74 Q 269 74 244 74 Q 190 73 137 74 H 19 Q 16 74 14 74 Q 12 74 10 74 Q 7 93 7 111 Q 8 129 13 147 Q 29 146 44 145 Q 59 145 75 144 Q 76 143 76 141 Q 76 140 76 138 Q 79 128 82 118 Q 85 108 88 98 Q 89 97 90 96 Q 90 95 91 94 L 91 95 Q 94 107 96 119 Q 98 130 99 143 Z M 270 66 Q 268 60 266 54 Q 264 48 261 42 Q 251 44 241 46 Q 231 47 221 48 Q 229 41 238 35 Q 246 29 255 22 Q 254 19 253 15 Q 251 12 250 9 Q 232 13 216 21 Q 200 28 184 40 Q 189 46 192 51 Q 195 56 198 62 Q 201 66 205 66 Q 218 66 229 66 Q 241 66 253 67 Q 257 67 261 67 Q 265 66 270 66 Z" fill="black" />
  </g>
  <g class="defect" id="01">
    <path d="M 4 344 Q -13 328 6 311" fill="none" stroke="red" stroke-width="3" />
  </g>
  <g class="defect" id="02">
    <path d="M 375 276 Q 365 284 333 268" fill="none" stroke="red" stroke-width="3" />
  </g>
  <g class="defect" id="03">
    <path d="M 281 168 Q 289 167 336 170" fill="none" stroke="red" stroke-width="3" />
  </g>
</svg>