<svg xmlns="http://www.w3.org/2000/svg" width="512" height="512" viewBox="0 0 512 512">
  <g class="glyph">
    <path d="M 82 55 Q 87 56 91 56 Q 96 57 101 58 Q 98 54 95 50 Q 91 47 88 43 Q 92 34 97 25 Q 101 16 106 7 Q 108 8 112 8 Q 130 13 146 22 Q 161 31 175 44 Q 176 45 176 46 Q 176 47 177 48 Q 177 48 177 49 Q 177 49 178 50 Q 184 55 193 62 Q 193 53 192 44 Q 191 36 191 27 Q 195 26 200 25 Q 204 24 209 23 Q 240 16 271 23 Q 273 23 276 22 Q 288 16 301 12 Q 313 7 327 4 Q 345 1 363 0 Q 381 0 399 5 Q 432 13 453 38 Q 456 42 459 45 Q 463 48 466 51 Q 473 58 479 68 Q 484 78 487 86 Q 484 88 482 89 Q 480 91 477 94 Q 477 98 479 104 Q 482 103 485 102 Q 489 102 492 101 Q 493 105 493 109 Q 494 112 495 116 Q 498 132 498 147 Q 499 163 498 178 Q 497 194 497 210 Q 496 226 494 242 Q 493 259 491 277 Q 489 295 487 312 Q 485 325 484 337 Q 482 349 480 362 H 490 Q 491 366 492 370 Q 493 375 494 379 H 506 Q 508 383 510 391 Q 511 399 511 409 Q 522 419 511 428 Q 511 438 509 445 Q 473 448 416 451 Q 370 454 322 457 Q 321 453 321 449 Q 320 445 319 440 Q 315 438 314 442 Q 312 448 310 457 Q 284 459 258 460 Q 233 462 206 464 L 201 446 Q 198 447 195 447 Q 192 447 189 447 Q 187 444 187 441 Q 186 439 185 436 Q 185 433 182 431 Q 165 420 147 410 Q 130 399 112 389 Q 112 389 110 388 Q 101 403 92 417 Q 83 432 74 447 Q 69 446 64 444 Q 59 442 55 440 Q 56 437 57 435 Q 57 433 58 430 H 57 Q 57 431 56 432 Q 56 433 55 434 Q 54 435 52 438 Q 44 429 32 426 Q 32 424 33 423 Q 33 422 35 421 Q 34 420 33 420 Q 33 419 32 418 Q 31 420 29 421 Q 28 422 27 423 Q 21 419 18 416 Q 18 414 18 413 Q 18 412 19 411 Q 18 411 17 410 Q 16 409 15 409 Q 17 405 19 402 Q 21 399 23 395 Q 19 397 16 400 Q 13 403 10 406 Q 7 404 5 402 Q 3 400 0 398 Q 22 355 45 314 Q 67 272 92 231 Q 61 220 35 199 Q 36 198 36 197 Q 36 196 36 195 Q 31 192 27 189 Q 22 185 18 182 Q 35 149 50 118 Q 66 87 82 55 Z M 280 364 Q 274 280 271 197 Q 268 113 265 29 Q 248 27 232 27 Q 215 28 198 32 Q 204 116 211 199 Q 217 281 226 364 Z M 479 369 Q 473 369 466 369 Q 459 369 453 369 Q 432 370 412 370 Q 391 370 370 370 Q 348 370 327 370 Q 306 371 285 371 Q 266 371 247 371 Q 228 371 209 372 H 192 Q 189 389 189 405 Q 190 422 194 439 Q 218 437 241 436 Q 264 434 287 433 Q 290 422 293 411 Q 297 400 301 390 H 302 Q 305 400 307 411 Q 309 421 312 431 Q 356 429 399 426 Q 442 423 487 420 Q 490 395 485 369 Z M 453 362 Q 453 361 453 361 Q 453 360 454 359 Q 456 344 458 328 Q 461 313 463 298 Q 465 281 467 263 Q 469 246 471 229 Q 473 198 474 165 Q 475 150 474 135 Q 474 121 472 105 Q 471 102 471 99 Q 471 96 470 92 Q 462 94 455 96 Q 447 97 440 99 Q 432 101 425 102 Q 417 103 410 106 Q 411 107 411 108 Q 411 109 411 110 Q 412 120 413 129 Q 414 138 414 147 Q 415 176 414 205 Q 413 241 409 278 Q 407 298 405 317 Q 403 337 400 357 Q 400 361 399 363 Q 413 362 426 362 Q 439 362 453 362 Z M 462 66 Q 449 37 423 21 Q 407 13 391 9 Q 376 6 359 7 Q 336 8 316 14 Q 295 20 276 30 Q 272 31 272 35 Q 273 48 273 61 Q 274 73 275 86 Q 275 89 276 90 Q 279 93 282 96 Q 285 98 288 101 Q 289 100 290 100 Q 291 99 292 98 Q 304 89 319 82 Q 331 76 344 74 Q 357 71 371 71 Q 386 71 396 78 Q 405 84 409 100 Q 409 100 409 101 Q 410 101 410 102 Q 424 95 437 86 Q 449 76 462 66 Z M 111 213 Q 108 217 99 232 Q 91 246 80 266 Q 69 285 57 307 Q 45 329 35 348 Q 24 366 18 379 Q 11 392 11 395 Q 17 389 23 384 Q 28 379 35 373 Q 34 382 32 390 Q 30 397 25 405 Q 28 406 30 407 Q 32 408 34 409 L 67 355 Q 69 356 71 357 Q 72 357 74 359 Q 67 374 61 389 Q 54 404 47 419 Q 49 420 50 420 Q 52 421 54 422 Q 81 378 109 335 Q 136 292 166 250 Q 161 244 154 238 Q 147 233 140 227 Q 132 222 125 218 Q 117 215 111 213 Z M 73 204 Q 97 165 121 126 Q 144 87 168 48 Q 163 43 155 37 Q 147 31 138 27 Q 129 22 121 19 Q 114 15 109 16 L 97 41 Q 104 49 110 57 Q 117 65 123 73 Q 114 70 105 67 Q 96 64 86 63 Q 71 92 57 121 Q 42 150 27 180 Q 47 195 73 204 Z M 219 365 Q 215 325 211 285 Q 208 245 203 204 Q 200 208 198 211 Q 195 214 192 217 Q 174 208 157 200 Q 139 191 121 184 Q 114 194 108 204 Q 110 205 110 205 Q 126 210 139 219 Q 153 227 165 238 L 188 261 Q 191 263 193 265 Q 183 279 174 292 Q 165 305 156 319 L 156 320 Q 158 322 160 323 Q 161 325 163 328 Q 163 329 165 331 Q 167 332 168 332 Q 170 332 172 333 Q 173 334 174 335 Q 182 340 189 347 Q 196 353 203 359 Q 204 360 205 361 Q 206 363 207 364 Q 210 365 213 365 Q 216 365 219 365 Z M 375 240 Q 351 243 328 247 Q 304 250 280 254 Q 281 268 282 281 Q 301 281 284 309 Q 308 309 332 308 Q 357 308 381 307 Q 382 301 383 291 Q 383 282 382 272 Q 381 263 379 254 Q 378 245 375 240 Z M 381 201 Q 383 184 382 168 Q 381 151 376 134 Q 370 135 366 136 Q 361 136 356 138 Q 356 140 355 142 Q 355 144 354 146 Q 353 149 352 153 Q 351 156 349 159 Q 347 166 338 167 Q 338 161 338 154 Q 338 148 337 140 Q 322 143 306 145 Q 291 147 276 149 Q 277 163 277 177 Q 277 191 278 204 Q 304 203 330 203 Q 355 202 381 201 Z M 140 108 Q 132 121 124 134 Q 116 148 108 160 Q 125 168 141 176 Q 157 184 174 192 Q 190 173 199 152 Q 201 147 197 144 Q 189 139 180 133 Q 172 128 164 123 Q 158 118 152 115 Q 146 112 140 108 Z M 170 341 Q 162 348 154 356 Q 146 363 137 371 L 136 370 Q 140 359 144 348 Q 149 338 153 327 Q 149 323 144 319 Q 139 315 133 311 Q 124 325 116 338 Q 107 351 98 365 Q 116 376 133 386 Q 151 396 168 407 Q 171 404 174 400 Q 177 397 180 394 Q 183 391 183 387 Q 183 381 184 376 Q 185 371 186 365 H 198 Q 198 365 198 365 Q 198 364 198 364 Q 191 358 185 352 Q 178 347 170 341 Z M 407 198 Q 408 182 408 165 Q 408 149 406 132 Q 406 124 405 117 Q 404 109 402 101 Q 400 96 396 96 Q 392 96 389 95 Q 385 95 381 96 Q 341 98 310 124 Q 309 125 308 126 Q 306 126 305 127 Q 298 122 291 117 Q 291 123 291 129 Q 291 134 292 140 Q 306 139 318 136 Q 331 134 344 133 Q 344 138 344 141 Q 345 144 345 149 Q 346 147 347 146 Q 347 146 347 144 Q 348 142 349 140 Q 349 138 350 135 Q 351 131 354 131 Q 357 131 361 130 Q 364 130 367 129 Q 370 129 374 129 Q 377 128 381 127 Q 382 132 384 137 Q 385 141 387 146 Q 389 145 392 145 Q 395 144 398 144 Q 403 157 404 171 Q 406 184 407 198 Z M 391 363 Q 392 354 394 346 Q 395 338 396 330 Q 372 331 348 331 Q 325 332 301 332 Q 302 340 302 348 Q 302 356 303 363 Q 326 363 347 363 Q 369 363 391 363 Z M 295 228 Q 296 232 296 236 Q 296 240 296 244 Q 318 241 339 238 Q 360 234 381 232 Q 382 237 384 241 Q 386 246 387 250 Q 389 250 392 250 Q 395 250 398 249 Q 399 253 400 257 Q 402 260 403 264 Q 404 252 405 239 Q 406 227 406 215 Q 406 217 405 220 Q 405 223 404 225 Q 377 226 350 227 Q 323 227 295 228 Z M 164 114 Q 173 120 181 126 Q 190 131 199 137 Q 199 131 198 119 Q 198 108 197 97 Q 196 86 195 77 Q 193 68 193 66 Q 185 79 178 90 Q 171 102 164 114 Z" fill="black" />
  </g>
  <g class="defect" id="01">
    <path d="M 509 445 Q 473 448 416 451" fill="none" stroke="red" stroke-width="3" />
  </g>
  <g class="defect" id="02">
    <path d="M 511 409 Q 522 419 511 428" fill="none" stroke="red" stroke-width="3" />
  </g>
  <g class="defect" id="03">
    <path d="M 282 281 Q 301 281 284 309" fill="none" stroke="red" stroke-width="3" />
  </g>
</svg>