<svg xmlns="http://www.w3.org/2000/svg" width="512" height="512" viewBox="0 0 512 512">
  <g class="glyph">
    <path d="M 477 90 Q 478 90 479 90 Q 480 89 481 89 Q 477 88 493 111 Q 499 122 502 134 Q 510 164 511 194 Q 512 216 511 238 Q 510 261 508 282 Q 506 307 503 330 Q 501 354 496 378 Q 490 408 484 437 Q 478 466 471 496 Q 471 499 469 503 Q 462 504 454 503 Q 447 502 438 501 Q 439 497 439 493 Q 439 489 439 484 Q 436 486 436 488 Q 436 490 435 492 Q 432 496 431 499 Q 423 498 415 495 Q 408 493 399 489 Q 400 486 400 484 Q 400 481 401 478 Q 396 477 391 475 Q 386 473 381 471 Q 382 465 383 459 Q 384 454 385 448 Q 390 421 395 394 Q 400 367 404 340 Q 407 315 409 291 Q 412 267 413 242 Q 414 224 414 206 Q 399 202 412 170 Q 411 159 408 148 Q 406 137 400 126 Q 397 120 391 117 Q 381 111 369 108 Q 357 104 344 103 Q 313 100 285 104 Q 256 107 227 117 Q 173 135 129 166 Q 128 167 127 168 Q 125 169 124 170 Q 121 167 118 164 Q 115 160 110 157 Q 110 165 111 173 Q 111 181 112 188 Q 112 196 112 204 Q 112 211 113 220 Q 113 227 114 235 Q 114 243 114 251 Q 115 259 115 267 Q 115 274 116 282 Q 116 290 116 297 Q 117 305 118 313 Q 118 321 119 329 Q 119 336 120 345 Q 121 352 121 360 Q 121 368 122 376 Q 123 384 123 391 Q 124 399 124 407 Q 125 415 126 422 Q 126 430 127 438 Q 128 446 128 453 Q 128 461 129 469 Q 130 477 131 485 Q 131 492 131 501 Q 126 502 120 504 Q 115 505 108 506 Q 107 501 107 495 Q 106 490 105 486 Q 102 486 102 490 Q 104 495 98 498 Q 94 500 91 502 Q 88 504 84 507 Q 83 501 82 499 H 82 Q 82 501 82 504 Q 82 506 81 509 Q 75 510 70 510 Q 65 509 59 509 Q 58 504 58 500 Q 57 496 57 492 Q 53 491 49 491 Q 46 490 41 490 Q 28 388 18 288 Q 8 187 2 84 Q 5 82 8 81 Q 11 79 14 78 V 77 H 2 V 74 L 0 41 Q 22 34 44 34 Q 66 34 88 38 Q 89 42 89 46 Q 89 50 89 53 Q 92 55 94 55 Q 96 54 99 53 Q 125 39 152 28 Q 179 17 208 11 Q 226 6 245 4 Q 264 2 283 1 Q 305 0 327 2 Q 349 5 371 11 Q 389 17 406 26 Q 423 34 436 46 Q 439 49 442 51 Q 445 53 448 56 Q 453 61 457 66 Q 462 71 467 76 L 476 86 Q 479 86 479 88 Q 478 89 477 90 Z M 408 472 Q 414 457 420 443 Q 426 429 432 414 Q 432 414 433 415 Q 432 430 431 446 Q 430 461 429 477 Q 433 477 437 477 Q 441 478 445 478 Q 445 477 446 476 Q 446 476 446 475 Q 451 451 456 427 Q 461 403 466 379 Q 469 360 472 342 Q 475 323 477 304 Q 479 289 480 275 Q 482 260 483 245 Q 484 228 485 211 Q 486 193 484 176 Q 483 160 481 146 Q 480 131 475 117 Q 472 107 468 98 Q 465 89 459 80 Q 452 82 445 83 Q 438 85 430 86 V 86 Q 435 82 440 77 Q 445 73 451 68 Q 450 67 449 66 Q 448 65 447 64 Q 435 50 422 41 Q 408 32 393 26 Q 369 16 345 12 Q 321 8 296 7 Q 282 7 270 8 Q 257 10 244 11 Q 203 17 167 31 Q 130 44 95 64 Q 91 65 91 70 Q 92 82 92 95 Q 92 108 92 121 Q 92 124 94 125 Q 97 130 101 133 Q 104 137 107 140 Q 108 140 108 140 Q 108 140 109 140 H 109 Q 112 139 113 137 Q 129 127 146 117 Q 164 108 182 101 Q 217 87 251 80 Q 286 73 324 77 Q 348 79 373 90 Q 388 97 398 108 Q 408 119 413 134 Q 417 146 419 159 Q 421 172 421 184 Q 423 218 421 252 Q 419 286 414 321 Q 411 352 405 382 Q 400 413 394 444 Q 393 450 392 456 Q 391 462 390 468 Q 394 468 399 469 Q 403 471 408 472 Z M 38 74 Q 32 77 25 80 Q 19 83 12 86 Q 18 186 28 284 Q 37 382 49 481 Q 52 481 53 481 Q 55 481 57 481 Q 58 471 59 461 Q 60 450 62 439 Q 70 455 74 472 Q 79 471 78 466 Q 77 450 77 433 Q 77 417 77 400 V 378 H 85 Q 88 403 92 428 Q 95 452 98 477 Q 101 476 103 476 Q 104 476 106 475 V 468 Q 106 459 105 450 Q 104 441 103 431 Q 102 410 100 390 Q 98 370 97 349 Q 95 319 93 291 Q 91 262 89 232 L 86 146 Q 85 121 85 97 Q 85 73 83 47 V 42 Q 65 39 47 39 Q 28 39 10 44 Q 10 50 11 55 Q 11 61 11 66 H 28 Q 35 67 38 74 Z" fill="black" />
  </g>
  <g class="defect" id="01">
    <path d="M 481 89 Q 477 88 493 111" fill="none" stroke="red" stroke-width="3" />
  </g>
  <g class="defect" id="02">
    <path d="M 414 206 Q 399 202 412 170" fill="none" stroke="red" stroke-width="3" />
  </g>
</svg>