<svg xmlns="http://www.w3.org/2000/svg" width="512" height="512" viewBox="0 0 512 512">
  <g class="glyph">
    <path d="M 503 284 Q 502 287 502 288 Q 503 312 499 334 Q 496 357 490 379 Q 484 407 476 434 Q 468 462 457 488 Q 454 498 449 506 Q 446 511 444 511 Q 442 512 438 511 Q 433 510 429 509 Q 426 507 421 506 Q 422 503 422 500 Q 423 497 423 493 Q 421 494 421 496 Q 420 497 419 498 Q 416 505 414 505 Q 413 506 405 505 Q 402 504 400 503 Q 397 503 394 502 Q 395 498 396 493 Q 391 490 386 487 Q 381 484 375 483 Q 376 481 376 479 Q 376 477 377 474 Q 372 471 368 469 Q 364 466 360 463 Q 364 453 368 442 Q 371 432 375 422 Q 374 422 374 421 L 365 435 Q 349 429 334 424 Q 318 418 302 412 Q 288 435 274 458 Q 260 481 245 503 Q 239 502 233 499 Q 227 497 220 493 Q 221 491 222 489 Q 223 487 224 485 Q 223 482 221 483 Q 220 485 218 486 Q 211 478 201 475 Q 200 477 199 477 Q 197 478 196 479 Q 192 476 189 473 Q 185 470 181 467 L 184 460 Q 185 459 184 458 Q 184 458 182 455 Q 181 457 180 458 Q 178 459 177 460 Q 173 457 170 454 Q 166 450 162 447 Q 172 428 182 410 Q 192 392 203 373 Q 200 371 197 370 Q 194 369 190 368 Q 179 386 168 404 Q 157 422 146 440 Q 142 438 138 437 Q 134 435 130 434 Q 107 424 85 407 Q 83 406 82 404 Q 81 403 82 400 Q 77 396 72 393 Q 68 389 62 385 Q 70 370 77 356 Q 84 342 92 327 Q 88 325 85 324 Q 85 321 85 319 Q 85 317 86 314 Q 81 312 76 310 Q 71 308 65 305 Q 66 300 67 296 Q 68 292 69 288 Q 62 285 56 283 Q 49 281 42 279 Q 43 276 44 273 Q 44 270 45 267 Q 43 267 42 266 Q 41 266 39 265 Q 38 268 37 269 Q 35 271 33 273 L 18 265 Q 21 259 23 252 Q 25 246 27 240 H 26 Q 23 244 20 247 Q 17 251 14 255 Q 10 253 7 251 Q 3 249 0 247 Q 1 243 6 227 Q 11 212 20 190 Q 29 168 39 144 Q 49 119 58 97 Q 68 74 75 57 Q 83 41 86 35 Q 90 35 93 35 Q 97 35 101 36 V 35 Q 98 33 95 31 Q 93 30 90 28 Q 93 21 96 14 Q 100 7 103 0 Q 117 2 131 8 Q 157 19 181 38 Q 184 40 184 41 Q 184 42 184 45 Q 189 49 194 53 Q 199 56 204 60 L 197 74 Q 200 74 201 73 Q 217 69 233 66 Q 249 63 265 62 Q 291 59 317 60 Q 343 61 368 68 Q 385 73 399 80 Q 414 88 427 99 Q 429 101 429 102 Q 430 102 429 106 Q 435 108 437 109 Q 438 110 439 111 L 447 119 Q 449 120 449 122 Q 450 124 451 127 Q 452 129 456 128 Q 457 128 458 129 Q 459 130 460 132 Q 469 142 476 154 Q 482 166 487 179 Q 501 220 501 261 Q 501 263 501 264 Q 502 265 502 267 Q 503 272 503 276 Q 503 280 503 284 Z M 131 189 Q 144 181 158 175 Q 172 168 186 162 Q 208 153 231 147 Q 253 141 277 138 Q 292 137 306 137 Q 320 136 334 139 Q 343 141 352 144 Q 361 146 369 152 Q 382 160 389 171 Q 397 182 402 196 Q 406 212 408 227 Q 410 243 410 259 Q 430 269 407 311 Q 402 348 393 384 Q 384 420 371 456 Q 370 457 370 458 Q 370 458 370 459 L 375 463 Q 380 455 386 447 Q 392 440 398 432 Q 398 432 398 432 Q 398 432 399 432 Q 395 444 392 455 Q 388 465 384 477 Q 388 477 392 479 Q 398 466 403 454 Q 408 442 415 429 Q 416 430 418 430 Q 419 431 422 431 Q 419 444 416 456 Q 414 469 411 481 Q 414 482 417 482 Q 420 483 423 484 Q 425 479 427 476 Q 429 472 430 468 Q 440 442 449 417 Q 457 392 463 365 Q 467 348 470 330 Q 473 313 475 295 Q 477 274 477 253 Q 477 233 474 212 Q 471 196 468 180 Q 464 164 457 149 Q 453 141 448 133 Q 443 125 437 117 Q 435 118 434 119 Q 433 119 432 120 Q 427 122 422 124 Q 416 126 412 128 Q 410 129 408 129 Q 406 130 405 128 Q 403 126 404 124 Q 405 122 406 121 Q 407 120 408 118 Q 409 117 410 114 Q 413 112 416 108 Q 418 105 421 101 Q 408 90 393 83 Q 373 73 352 69 Q 331 65 309 65 Q 291 64 274 66 Q 257 68 240 71 Q 220 74 201 79 Q 182 84 163 91 Q 159 93 157 96 Q 148 114 140 131 Q 131 148 122 165 Q 121 168 119 171 Q 117 174 116 178 Q 117 183 120 186 Q 123 190 126 193 Z M 176 43 Q 161 31 144 22 Q 128 13 109 9 Q 106 13 105 17 Q 103 21 101 25 Q 110 30 119 35 Q 128 41 137 46 V 47 Q 125 46 114 45 Q 104 44 92 43 Q 92 45 91 46 Q 90 48 90 49 Q 70 92 53 134 Q 35 176 19 219 Q 17 224 15 229 Q 14 235 11 240 Q 10 244 14 245 Q 22 233 30 222 Q 37 211 45 200 Q 46 200 46 201 Q 43 214 40 228 Q 37 241 34 255 Q 42 258 52 261 Q 62 264 66 263 Q 92 208 119 153 Q 146 98 176 43 Z M 189 171 Q 160 225 130 277 Q 101 330 73 383 Q 78 387 85 392 Q 92 396 99 401 Q 106 405 113 408 Q 120 411 124 411 Q 150 370 177 328 Q 203 287 230 245 Q 225 240 219 235 Q 213 230 208 224 Q 217 225 225 226 Q 233 227 241 228 Q 244 224 247 219 Q 251 215 253 211 Q 249 206 242 200 Q 235 194 226 188 Q 217 183 207 178 Q 197 173 189 171 Z M 343 407 Q 359 381 365 352 Q 327 335 290 318 Q 253 301 215 284 Q 213 287 207 295 Q 201 304 195 314 Q 188 324 183 332 Q 178 341 178 343 Q 219 359 260 375 Q 301 391 343 407 Z M 318 323 Q 334 298 349 274 Q 344 267 379 225 Q 364 212 349 203 Q 333 193 314 187 Q 299 215 285 241 Q 270 268 255 295 Q 272 301 287 309 Q 303 316 318 323 Z M 400 235 Q 400 235 401 235 Q 401 235 402 234 Q 401 231 401 228 Q 400 225 400 223 Q 399 212 396 203 Q 393 193 388 184 Q 385 177 379 174 Q 369 169 358 167 Q 348 165 337 164 Q 309 162 284 167 Q 258 172 232 180 Q 232 180 230 181 Q 231 182 233 182 Q 234 183 235 184 Q 241 189 247 195 Q 253 200 260 204 Q 261 205 262 207 Q 263 209 265 211 Q 269 216 274 219 Q 279 223 283 227 Q 290 215 297 202 Q 303 190 310 178 Q 312 178 312 178 Q 334 184 352 195 Q 370 205 386 220 L 388 223 Q 390 228 393 230 Q 397 232 400 235 Z M 403 254 Q 402 254 402 253 Q 388 275 376 295 Q 363 316 350 337 Q 356 340 362 342 Q 367 344 374 347 Q 373 350 373 352 Q 372 354 372 357 Q 376 359 381 361 Q 386 363 390 365 Q 396 338 400 310 Q 404 283 403 254 Z M 178 450 Q 188 440 197 430 Q 205 420 215 408 Q 212 421 208 432 Q 204 443 197 454 Q 198 454 199 454 Q 200 454 200 454 Q 200 454 203 451 Q 215 435 227 418 Q 240 402 252 385 Q 252 384 254 382 Q 244 378 235 374 Q 226 370 216 367 Q 205 387 194 406 Q 184 426 173 446 Q 175 448 178 450 Z M 108 232 Q 96 248 88 265 Q 80 281 76 301 Q 83 304 90 306 Q 96 309 103 312 Q 112 295 120 279 Q 129 264 138 247 Q 130 244 122 240 Q 115 236 108 232 Z M 257 383 Q 246 405 236 427 Q 225 450 214 471 Q 215 472 216 473 Q 217 473 218 473 Q 221 474 223 475 Q 236 454 250 432 Q 263 411 276 390 Q 266 386 257 383 Z M 153 216 Q 151 217 149 219 Q 146 220 144 221 Q 140 218 136 215 Q 133 211 129 207 Q 126 213 124 218 Q 122 223 119 229 Q 125 232 130 235 Q 136 237 141 240 Q 145 233 148 228 Q 152 223 154 217 Z M 248 291 Q 256 277 264 263 Q 271 249 279 235 Q 279 235 279 235 Q 277 236 277 237 Q 276 238 276 239 Q 273 243 271 246 Q 269 249 267 253 Q 264 256 260 256 Q 258 255 256 255 Q 255 255 252 255 Q 252 255 252 256 Q 254 257 256 259 Q 258 261 260 262 Q 255 269 251 276 Q 247 282 243 289 Q 246 289 248 291 Z" fill="black" />
  </g>
  <g class="defect" id="01">
    <path d="M 410 259 Q 430 269 407 311" fill="none" stroke="red" stroke-width="3" />
  </g>
  <g class="defect" id="02">
    <path d="M 349 274 Q 344 267 379 225" fill="none" stroke="red" stroke-width="3" />
  </g>
</svg>