<svg xmlns="http://www.w3.org/2000/svg" width="512" height="512" viewBox="0 0 512 512">
  <g class="glyph">
    <path d="M 355 512 Q 355 511 354 510 Q 347 506 341 501 Q 335 496 329 490 Q 324 485 319 480 Q 314 476 310 470 Q 306 466 304 463 Q 301 460 297 455 Q 301 451 305 446 Q 308 441 311 436 Q 306 435 301 435 Q 297 435 292 435 Q 279 434 266 435 Q 252 437 239 438 Q 235 438 234 442 Q 225 458 216 474 Q 207 490 198 506 Q 197 507 197 508 Q 197 509 196 510 Q 183 507 171 501 Q 172 499 172 497 Q 172 495 172 493 Q 172 493 172 492 Q 170 494 169 495 Q 168 496 168 497 Q 167 498 166 499 Q 160 495 155 492 Q 150 488 144 485 Q 145 483 146 481 Q 142 478 137 475 Q 132 471 128 468 Q 130 463 131 461 Q 129 462 126 462 Q 124 463 122 463 Q 119 459 117 455 Q 115 450 112 446 Q 110 446 109 446 Q 107 446 105 447 Q 101 441 99 435 Q 96 429 93 422 Q 86 429 78 435 Q 71 442 63 448 Q 53 442 47 435 Q 44 430 39 427 Q 35 424 31 420 Q 30 419 29 418 Q 28 417 29 415 Q 30 414 29 414 Q 28 413 28 412 Q 26 411 26 409 Q 25 408 23 406 Q 25 403 26 402 Q 25 401 25 401 Q 24 401 23 400 Q 24 398 26 396 Q 28 395 29 394 Q 24 395 22 397 Q 19 399 16 401 Q 13 398 11 395 Q 9 392 7 389 Q 11 385 15 382 Q 18 379 22 375 Q 21 371 20 368 Q 19 365 18 362 H 6 Q 1 344 0 327 Q 0 309 4 291 Q 8 291 12 291 Q 16 290 20 290 Q 39 290 59 290 Q 79 289 99 289 Q 102 289 104 286 Q 102 285 101 284 Q 85 276 74 262 Q 73 260 70 259 Q 55 246 49 230 Q 43 214 44 194 Q 45 179 50 164 Q 56 150 63 136 Q 64 134 65 133 Q 66 131 68 128 Q 63 129 60 129 Q 58 129 55 129 Q 52 130 49 130 Q 46 130 42 130 Q 39 126 39 122 Q 38 117 37 113 Q 34 113 31 113 Q 29 113 25 114 Q 19 97 19 79 Q 18 61 21 43 Q 22 43 24 42 Q 25 42 27 42 Q 45 41 63 41 Q 80 41 98 39 Q 99 39 100 39 Q 101 39 103 39 Q 102 35 101 30 Q 100 25 99 21 Q 115 12 133 10 Q 151 8 169 9 Q 170 14 170 17 Q 170 21 171 25 Q 174 25 178 25 Q 182 25 185 25 Q 186 28 186 31 Q 187 34 187 37 Q 196 37 205 37 Q 213 37 222 37 Q 223 39 224 42 Q 225 45 226 47 H 227 Q 228 45 228 42 Q 228 39 230 36 Q 246 36 263 36 Q 280 35 298 35 Q 300 26 303 17 Q 305 9 308 0 Q 327 2 343 8 Q 360 14 375 24 Q 374 25 374 27 Q 374 29 374 30 Q 380 34 386 34 Q 399 33 411 33 Q 424 33 436 33 H 442 Q 443 37 443 42 Q 444 46 445 50 H 458 Q 460 55 460 60 Q 461 64 461 70 Q 457 71 454 73 Q 450 74 446 76 V 76 Q 450 77 454 77 Q 457 78 462 78 Q 462 86 461 93 Q 461 101 460 108 Q 454 109 450 109 Q 445 109 440 109 Q 422 110 404 110 Q 386 111 368 112 Q 362 112 361 112 Q 360 113 358 119 Q 359 120 361 121 Q 362 121 364 122 Q 373 126 381 130 Q 388 134 396 142 Q 404 151 414 160 Q 415 161 416 163 Q 417 164 419 166 Q 415 169 414 171 Q 414 171 414 172 Q 416 171 418 171 Q 420 170 422 169 Q 430 182 432 195 Q 435 208 433 221 Q 431 234 427 248 Q 424 255 421 262 Q 417 269 413 276 Q 412 277 410 280 H 446 Q 447 285 448 288 Q 449 292 450 297 H 462 Q 465 304 466 314 Q 461 317 453 320 V 321 H 466 Q 468 338 465 354 Q 459 355 452 355 Q 446 356 438 356 Q 447 365 455 373 Q 462 381 470 389 Q 463 402 452 412 Q 442 422 430 431 Q 429 430 428 430 Q 428 429 427 429 Q 409 412 390 396 Q 372 381 353 364 Q 349 360 345 361 Q 341 361 338 362 Q 335 362 331 362 Q 333 363 335 365 Q 336 366 339 367 Q 339 369 339 370 Q 339 372 338 374 Q 340 373 342 372 Q 343 371 345 370 Q 356 376 365 387 Q 366 389 367 390 Q 369 392 370 393 Q 389 408 393 429 Q 396 447 388 463 Q 384 475 377 486 Q 370 496 361 506 Q 360 507 358 509 Q 357 510 356 511 Q 356 512 355 512 Z M 311 291 Q 302 291 293 291 Q 285 291 276 292 Q 254 292 232 293 Q 209 293 187 294 Q 166 294 144 295 Q 123 295 101 296 Q 83 296 66 296 Q 48 297 30 297 Q 25 297 20 297 Q 15 298 9 298 Q 6 313 6 327 Q 6 341 10 355 Q 89 351 167 347 Q 246 343 325 339 Q 310 326 298 315 Q 301 308 305 302 Q 309 297 314 291 Z M 340 247 Q 341 245 342 244 Q 343 242 344 240 Q 345 238 345 237 Q 344 234 343 231 Q 342 227 341 224 Q 337 224 335 225 Q 325 226 315 227 Q 306 228 297 229 Q 275 231 254 232 Q 233 234 212 234 Q 196 235 180 234 Q 165 234 149 234 Q 141 233 133 232 Q 126 231 118 227 Q 105 221 103 208 V 196 Q 105 181 114 167 Q 120 157 117 147 Q 116 146 115 145 Q 115 144 113 143 Q 99 134 83 128 Q 81 128 79 127 Q 77 127 76 127 Q 73 131 71 136 Q 69 140 66 144 Q 59 156 55 169 Q 51 182 50 195 Q 49 209 52 222 Q 56 235 66 245 Q 76 257 91 263 Q 116 275 144 275 Q 160 275 177 275 Q 193 275 209 274 Q 222 274 234 273 Q 246 272 259 271 Q 277 269 296 267 Q 315 264 333 262 Q 336 262 340 261 Q 343 261 347 260 Q 347 258 347 257 Q 347 255 347 254 Q 345 252 343 250 Q 342 249 340 247 Z M 394 150 Q 391 147 389 145 Q 387 143 385 142 Q 376 135 367 131 Q 357 127 347 124 Q 333 119 320 118 Q 306 116 293 115 Q 270 114 246 114 Q 222 115 199 117 Q 184 118 169 120 Q 154 122 139 124 Q 134 124 130 125 Q 126 125 122 126 Q 122 138 125 150 Q 127 161 133 172 Q 134 172 134 172 Q 135 171 136 171 Q 145 170 153 169 Q 161 167 170 166 Q 198 163 226 160 Q 246 158 266 157 Q 286 156 306 158 Q 315 159 325 161 Q 334 163 343 166 Q 365 176 365 199 Q 364 210 361 221 Q 357 231 352 241 Q 351 242 351 244 Q 350 245 349 246 Q 358 252 367 257 Q 375 262 386 265 Q 394 253 399 241 Q 405 230 408 216 Q 413 195 408 174 Q 407 171 406 168 Q 405 165 402 162 Q 393 166 383 170 Q 373 173 363 177 L 363 177 Q 370 170 378 163 Q 385 157 394 150 Z M 345 378 Q 338 384 332 389 Q 326 395 320 401 Q 321 397 323 393 Q 325 390 326 386 Q 328 382 329 378 Q 330 374 331 370 Q 324 368 317 366 Q 302 363 286 362 Q 271 361 255 361 Q 252 361 250 364 L 225 411 Q 225 412 225 413 Q 224 413 224 415 Q 228 414 233 414 Q 237 413 242 413 Q 258 412 273 412 Q 289 411 304 413 Q 307 414 311 415 Q 314 416 317 417 Q 326 421 322 430 Q 320 436 317 441 Q 314 446 310 451 Q 309 452 308 453 Q 307 454 306 455 Q 314 464 321 472 Q 329 480 339 486 Q 358 466 367 443 Q 369 436 370 429 Q 371 422 370 414 Q 366 393 345 378 Z M 445 374 Q 420 348 396 323 Q 372 298 347 272 Q 335 280 325 290 Q 315 300 307 313 Q 334 336 360 360 Q 387 384 414 407 Q 423 400 430 392 Q 438 384 445 374 Z M 176 487 Q 194 454 211 422 Q 228 389 247 356 Q 243 354 240 352 Q 238 349 233 350 Q 223 351 212 352 Q 201 352 191 353 Q 185 353 183 358 Q 171 384 160 411 Q 149 438 137 464 V 466 Q 139 468 142 470 Q 145 471 148 473 Q 154 465 159 458 Q 164 450 170 442 Q 170 442 170 443 Q 168 452 166 462 Q 165 471 162 481 Q 166 482 169 484 Q 172 486 176 487 Z M 113 187 Q 111 191 110 198 Q 110 204 111 208 Q 112 212 112 213 Q 113 213 117 213 H 181 Q 196 213 211 213 Q 225 213 240 213 Q 252 213 264 213 Q 276 212 288 212 H 299 Q 301 203 300 193 Q 299 184 297 178 Q 251 181 205 183 Q 159 184 113 187 Z M 227 76 Q 225 68 223 60 Q 220 52 218 44 Q 207 44 196 44 Q 185 44 173 45 Q 173 47 174 55 Q 176 63 177 71 Q 178 80 179 87 Q 194 77 181 97 Q 206 96 231 95 Q 255 93 281 92 Q 285 80 288 68 Q 291 56 295 43 Q 280 43 265 43 Q 249 43 234 44 Q 221 52 232 60 Q 230 68 228 76 Z M 330 112 Q 340 91 349 70 Q 358 49 367 28 Q 354 20 341 15 Q 328 10 313 8 Q 305 33 299 57 Q 292 81 285 105 Q 288 109 292 109 Q 301 110 311 110 Q 320 111 330 112 Z M 104 47 Q 85 47 65 48 Q 46 48 26 49 Q 24 64 25 78 Q 25 92 30 107 Q 52 105 75 104 Q 97 102 119 101 Q 116 87 112 73 Q 109 60 104 47 Z M 163 16 Q 149 16 134 18 Q 120 20 106 25 Q 112 48 118 70 Q 124 92 131 114 Q 136 114 142 113 Q 149 112 155 111 Q 161 109 166 107 Q 171 105 174 103 Q 171 81 169 59 Q 166 37 163 16 Z M 109 438 Q 117 436 125 434 Q 133 432 141 430 Q 145 428 147 425 Q 153 411 158 398 Q 164 385 170 372 Q 170 371 171 368 Q 131 373 93 384 Q 93 391 95 399 Q 96 407 98 415 Q 100 422 103 428 Q 106 435 109 438 Z M 348 89 Q 371 88 393 87 Q 415 87 438 86 Q 438 82 438 79 Q 438 76 439 73 Q 439 70 438 69 Q 429 68 420 66 Q 410 65 401 64 V 64 Q 410 60 420 57 Q 429 53 438 49 Q 438 45 437 41 H 435 H 372 Q 369 41 367 45 L 350 85 Q 349 86 348 89 Z M 80 370 Q 69 382 59 393 Q 48 405 38 416 Q 41 418 42 420 Q 44 421 45 423 H 47 Q 56 414 66 406 Q 75 398 85 389 Q 86 387 86 386 V 379 Q 88 377 88 378 Q 101 377 111 365 Q 111 364 112 364 Q 114 362 115 361 Q 117 359 119 358 Q 117 357 115 357 Q 109 357 103 358 Q 97 358 91 358 Q 80 359 71 359 Q 61 359 50 360 Q 47 360 44 363 L 25 382 Q 24 383 22 385 Q 20 387 18 389 Q 18 390 17 390 Q 17 391 17 392 Q 18 392 18 392 Q 25 387 32 382 Q 40 377 48 371 V 373 Q 46 380 43 385 Q 40 391 36 397 Q 35 397 35 398 Q 34 399 36 400 L 75 366 Q 76 367 77 368 Q 78 369 80 370 Z M 442 332 Q 443 327 444 322 Q 444 318 443 313 Q 434 312 425 313 Q 415 314 406 313 V 312 Q 415 307 424 303 Q 433 298 442 294 Q 442 290 440 288 Q 424 288 407 288 Q 391 288 374 289 Q 374 290 375 291 Q 385 302 395 312 Q 405 321 414 332 Q 416 334 420 334 Q 424 333 429 333 Q 434 333 438 333 Q 439 333 440 333 Q 441 332 442 332 Z M 351 228 Q 354 220 356 211 Q 358 203 357 194 Q 357 188 351 186 Q 342 184 333 183 Q 323 181 314 181 H 305 Q 306 185 306 187 H 318 Q 321 194 322 203 Q 323 211 324 219 Q 329 218 334 218 Q 339 218 345 217 Q 346 220 347 223 Q 348 225 349 228 Z M 117 288 184 287 Q 187 287 188 286 Q 188 286 190 282 Q 188 282 188 282 Q 187 282 186 282 Q 177 282 169 282 Q 160 282 152 282 Q 140 282 129 280 Q 122 279 119 280 Q 117 281 113 287 Q 112 287 112 288 Z M 99 127 Q 103 129 107 131 Q 111 133 115 135 V 125 Q 111 126 107 126 Q 103 126 99 126 Z M 382 281 Q 380 279 376 278 Q 373 276 370 275 V 279 V 282 Q 373 282 376 282 Q 379 282 382 282 Z" fill="black" />
  </g>
  <g class="defect" id="01">
    <path d="M 234 44 Q 221 52 232 60" fill="none" stroke="red" stroke-width="3" />
  </g>
  <g class="defect" id="02">
    <path d="M 179 87 Q 194 77 181 97" fill="none" stroke="red" stroke-width="3" />
  </g>
</svg>