<svg xmlns="http://www.w3.org/2000/svg" width="512" height="512" viewBox="0 0 512 512">
  <g class="glyph">
    <path d="M 144 296 Q 114 298 84 298 Q 55 299 24 300 Q 23 295 22 291 Q 21 287 20 282 H 7 Q 3 271 1 261 Q 0 250 0 238 Q 3 238 5 237 Q 7 236 10 236 V 235 Q 7 234 5 234 Q 3 234 1 234 Q 0 231 0 226 Q 1 221 1 215 Q 2 210 3 204 Q 4 199 5 195 Q 42 196 79 196 Q 115 196 153 196 Q 148 148 146 101 Q 158 54 140 7 Q 148 4 160 2 Q 171 0 184 0 Q 196 0 207 1 Q 219 3 226 5 V 20 Q 231 21 236 21 Q 241 22 245 23 V 50 Q 243 51 241 53 Q 239 54 236 56 H 245 V 74 Q 292 72 339 68 Q 385 65 432 62 Q 433 67 435 71 Q 436 76 437 81 Q 440 81 444 81 Q 447 80 450 80 Q 457 102 457 123 Q 457 145 452 167 H 394 Q 393 162 392 159 Q 392 155 391 151 H 389 Q 388 155 387 159 Q 385 163 383 167 H 245 V 198 Q 273 199 301 199 Q 329 200 357 201 Q 385 201 412 202 Q 440 203 468 204 Q 468 208 469 213 Q 469 217 470 221 Q 474 222 478 222 Q 481 222 486 222 Q 488 240 488 257 Q 488 275 485 292 H 474 H 386 Q 380 276 350 292 Q 331 293 312 293 Q 302 293 293 293 Q 283 293 272 293 Q 271 293 267 294 Q 296 311 324 326 Q 353 342 381 358 Q 380 359 380 361 Q 379 362 378 364 Q 380 366 384 367 Q 388 363 392 363 Q 395 364 400 367 Q 407 371 414 374 Q 421 378 428 382 Q 428 384 428 386 Q 428 388 427 391 Q 432 393 437 395 Q 441 398 447 401 Q 443 418 435 434 Q 428 450 417 465 Q 395 456 374 446 Q 352 437 330 428 Q 309 418 288 409 Q 267 400 245 390 Q 243 420 243 449 Q 242 478 242 508 Q 230 510 216 511 L 214 492 H 213 Q 212 496 212 499 Q 213 503 212 507 Q 210 508 207 508 Q 206 508 204 508 Q 202 508 200 509 Q 196 512 191 512 Q 186 512 181 511 Q 179 510 177 510 Q 174 510 172 510 Q 171 505 171 502 Q 171 498 170 494 Q 166 493 162 492 Q 158 492 154 492 Q 150 443 148 394 Q 146 346 144 296 Z M 12 275 Q 18 274 24 274 Q 30 274 36 274 Q 54 273 71 273 Q 88 272 106 271 Q 129 271 151 270 Q 173 270 196 269 Q 212 269 228 268 Q 244 268 260 268 Q 287 268 314 268 Q 341 267 368 267 H 454 H 459 Q 464 238 461 211 Q 451 211 443 210 Q 434 210 424 210 Q 406 209 388 209 Q 370 208 351 207 Q 328 207 306 206 Q 283 206 260 205 Q 241 205 222 204 Q 202 204 183 204 Q 155 203 127 203 Q 99 203 71 203 H 16 H 10 Q 9 209 8 215 Q 8 221 8 227 Q 23 228 38 229 Q 53 230 67 231 V 231 Q 53 235 38 238 Q 23 241 8 244 Q 8 258 12 275 Z M 428 141 Q 430 123 431 105 Q 431 87 426 69 Q 376 73 326 76 Q 276 79 226 83 V 141 H 360 Q 364 131 367 121 Q 370 111 374 101 H 375 L 381 141 Z M 148 11 Q 150 58 153 104 Q 156 149 160 196 Q 176 196 190 196 Q 204 196 218 196 V 45 Q 210 46 202 46 Q 194 47 185 48 Q 187 45 189 44 Q 196 40 202 36 Q 209 33 216 28 Q 219 26 219 25 Q 219 21 219 18 Q 219 14 219 10 Q 201 7 184 7 Q 166 7 148 11 Z M 217 484 Q 218 457 218 431 Q 218 406 219 380 Q 220 353 221 328 Q 222 302 223 276 Q 205 276 187 276 Q 170 276 152 277 Q 154 329 156 381 Q 158 432 161 484 Q 162 484 164 484 Q 165 485 166 485 Q 168 472 170 458 Q 172 445 174 432 H 176 Q 177 444 178 457 Q 179 469 181 482 Q 183 482 184 482 Q 185 481 187 481 Q 188 457 190 434 Q 191 411 193 388 H 200 Q 201 412 202 436 Q 203 459 205 484 Q 208 485 211 484 Q 214 484 217 484 Z M 371 361 Q 343 345 316 330 Q 289 316 261 300 Q 249 314 241 330 Q 232 346 228 363 Q 231 365 244 371 Q 257 377 275 385 Q 293 393 314 402 Q 334 411 352 418 Q 370 426 382 431 Q 394 436 397 437 Q 380 420 404 425 Q 408 418 411 411 Q 415 404 417 397 Q 420 391 420 386 Q 412 383 406 379 Q 399 376 392 372 Q 387 375 382 377 Q 377 380 373 382 Q 362 387 351 391 Q 356 382 361 376 Q 366 369 371 361 Z M 248 294 Q 249 296 248 298 Q 248 300 249 302 Q 251 300 252 298 Q 253 296 255 294 Z" fill="black" />
  </g>
  <g class="defect" id="01">
    <path d="M 386 474 Q 380 276 350 292" fill="none" stroke="red" stroke-width="3" />
  </g>
  <g class="defect" id="02">
    <path d="M 397 437 Q 380 420 404 425" fill="none" stroke="red" stroke-width="3" />
  </g>
  <g class="defect" id="03">
    <path d="M 146 101 Q 158 54 140 7" fill="none" stroke="red" stroke-width="3" />
  </g>
</svg>