<svg xmlns="http://www.w3.org/2000/svg" width="512" height="512" viewBox="0 0 512 512">
  <g class="glyph">
    <path d="M 31 51 Q 38 50 44 51 Q 50 52 55 53 Q 61 54 67 56 Q 73 58 79 60 L 78 45 Q 83 44 88 41 Q 93 39 98 38 Q 128 27 157 19 Q 186 11 217 6 Q 242 2 268 1 Q 294 0 319 4 Q 343 7 365 13 Q 387 19 408 32 Q 411 33 414 35 Q 417 36 420 38 Q 418 43 417 45 Q 420 46 423 48 Q 425 50 429 46 Q 430 47 431 48 Q 433 49 434 50 Q 442 57 449 64 Q 457 72 464 80 Q 480 97 490 117 Q 499 137 505 159 Q 510 179 511 199 Q 512 220 511 240 Q 509 274 502 307 Q 495 340 486 373 Q 485 378 483 383 Q 482 388 480 393 Q 473 393 465 392 Q 458 390 451 389 Q 452 396 453 403 Q 454 411 455 418 Q 451 420 448 421 Q 421 429 394 435 Q 368 442 340 445 Q 326 447 312 449 Q 298 451 284 452 Q 250 455 215 454 Q 189 452 163 447 Q 137 441 112 429 Q 109 427 106 425 Q 103 424 99 422 Q 101 420 103 415 Q 102 414 101 413 Q 99 412 98 412 Q 95 414 93 412 Q 91 411 89 409 Q 87 407 84 405 Q 82 404 80 402 Q 82 399 84 396 Q 84 396 83 396 Q 81 397 78 399 Q 76 400 74 402 Q 73 401 72 400 Q 70 399 69 398 Q 64 393 59 388 Q 54 382 49 377 Q 38 367 30 354 Q 22 341 17 327 Q 10 312 7 297 Q 4 282 2 267 Q 10 244 1 221 Q 2 199 4 176 Q 7 144 14 115 Q 21 85 30 54 Q 30 52 31 51 Z M 110 201 Q 108 218 107 234 Q 105 251 105 267 Q 106 280 107 292 Q 109 304 113 315 Q 118 330 134 338 Q 150 347 167 350 Q 184 353 202 354 Q 212 355 223 355 Q 233 356 243 354 Q 273 353 302 351 Q 325 348 346 344 Q 368 340 389 335 Q 394 334 396 328 Q 399 314 402 300 Q 405 286 408 272 Q 412 249 413 227 Q 415 205 412 183 Q 411 170 407 158 Q 404 146 397 134 Q 392 125 386 122 Q 362 110 331 107 Q 308 104 285 107 Q 263 109 240 113 Q 213 119 187 127 Q 161 136 136 147 Q 135 147 134 148 Q 132 149 131 149 Q 129 147 128 144 Q 126 142 124 140 Q 124 141 123 142 Q 122 143 122 144 Q 120 153 118 162 Q 116 171 115 180 Q 113 183 112 186 Q 111 188 107 189 Q 104 190 98 193 Q 105 195 110 198 Z M 115 121 Q 119 118 120 118 Q 132 113 143 109 Q 155 104 166 100 Q 200 90 233 84 Q 266 78 301 79 Q 325 80 346 86 Q 368 92 384 105 Q 400 118 409 139 Q 418 161 420 181 Q 422 202 421 222 Q 420 243 417 263 Q 414 284 409 304 Q 405 324 400 344 Q 399 346 399 347 Q 399 348 399 349 Q 405 352 413 355 Q 409 358 429 360 Q 437 363 444 364 Q 451 365 455 365 Q 456 362 456 361 Q 466 328 473 294 Q 480 261 483 227 Q 484 206 483 185 Q 483 164 478 143 Q 473 121 463 101 Q 453 81 437 64 Q 435 62 433 60 Q 430 58 428 55 Q 418 62 408 68 Q 398 73 388 79 Q 387 78 387 78 Q 392 69 398 59 Q 403 50 409 41 Q 408 39 406 39 Q 405 38 404 38 Q 399 35 394 32 Q 389 30 384 27 Q 366 19 347 15 Q 328 11 308 9 Q 285 7 263 8 Q 240 9 217 13 Q 184 18 152 27 Q 121 36 90 48 L 86 50 Q 90 69 96 87 Q 103 104 115 121 Z M 128 344 Q 125 343 123 341 Q 122 340 121 340 Q 109 332 101 323 Q 91 311 86 298 Q 82 285 79 270 Q 78 253 78 237 Q 79 220 80 203 Q 81 199 81 194 Q 82 189 82 183 Q 78 182 75 181 Q 72 181 68 180 Q 61 177 66 172 Q 67 171 68 171 Q 69 170 70 169 Q 73 168 76 166 Q 79 165 82 164 Q 87 162 87 158 Q 90 147 92 137 Q 95 126 98 115 Q 98 111 97 108 Q 88 91 83 73 Q 81 69 77 68 Q 72 67 67 65 Q 61 63 55 62 Q 51 61 46 60 Q 41 60 36 59 Q 35 64 33 70 Q 32 75 30 81 Q 18 121 12 161 Q 7 202 7 243 Q 7 255 9 267 Q 10 279 12 291 Q 19 327 40 356 Q 43 360 47 365 Q 50 369 55 373 Q 62 368 69 363 Q 75 357 82 353 Q 82 356 81 357 Q 80 359 79 362 Q 78 365 76 367 Q 75 370 74 373 Q 72 380 76 384 Q 89 374 101 364 Q 114 354 128 344 Z M 391 343 Q 388 343 386 343 Q 326 359 261 362 Q 242 363 224 363 Q 206 363 188 361 Q 175 360 162 357 Q 150 354 138 349 Q 136 348 134 347 Q 132 346 130 345 Q 120 359 111 372 Q 101 386 91 400 Q 94 402 95 402 Q 102 405 109 408 Q 116 411 123 414 Q 144 422 166 424 Q 188 427 211 427 Q 232 427 253 425 Q 269 424 284 423 Q 299 421 314 420 Q 335 417 356 412 Q 376 408 396 403 L 426 394 Q 426 388 425 382 Q 424 377 423 371 Q 422 368 418 366 Q 412 363 406 360 Q 400 358 393 356 Q 392 355 390 353 Q 390 350 391 348 Q 391 346 391 343 Z" fill="black" />
  </g>
  <g class="defect" id="01">
    <path d="M 413 355 Q 409 358 429 360" fill="none" stroke="red" stroke-width="3" />
  </g>
  <g class="defect" id="02">
    <path d="M 2 267 Q 10 244 1 221" fill="none" stroke="red" stroke-width="3" />
  </g>
</svg>