<svg xmlns="http://www.w3.org/2000/svg" width="512" height="512" viewBox="0 0 512 512">
  <g class="glyph">
    <path d="M 505 291 Q 470 291 437 291 Q 403 291 368 290 Q 368 298 367 306 Q 367 314 366 322 Q 386 304 407 292 Q 411 296 414 300 Q 417 304 420 307 Q 421 308 422 310 Q 423 311 426 311 Q 427 311 428 313 Q 439 326 449 338 Q 460 350 470 363 Q 470 364 470 365 Q 470 367 471 368 Q 474 369 475 370 Q 484 381 493 392 Q 502 403 511 414 Q 492 442 460 462 Q 436 439 412 417 Q 389 395 364 372 Q 362 406 362 438 Q 361 470 360 503 Q 355 505 350 506 Q 345 506 340 507 Q 340 502 339 497 Q 339 492 339 487 Q 336 491 335 495 Q 335 499 333 503 Q 332 503 331 503 Q 331 502 330 502 Q 325 502 320 503 Q 315 504 312 507 Q 311 507 311 507 Q 310 507 310 508 Q 305 507 300 507 Q 295 507 291 506 Q 291 504 290 501 Q 290 498 290 495 Q 290 492 289 491 Q 288 491 285 490 Q 282 489 279 489 Q 276 489 273 488 Q 270 438 268 389 Q 267 340 266 289 Q 253 288 241 288 Q 229 288 217 288 Q 216 284 215 282 Q 213 315 212 348 Q 192 364 208 414 Q 201 416 193 415 Q 186 415 179 416 Q 180 418 180 421 Q 180 423 181 426 Q 177 428 174 429 Q 171 430 167 431 Q 153 437 138 440 Q 123 443 108 443 Q 88 442 72 435 Q 56 428 43 412 Q 42 410 40 408 Q 29 399 21 388 Q 14 377 10 363 Q 0 335 0 302 Q 0 285 0 268 Q 0 250 1 233 Q 2 186 7 139 Q 9 127 11 115 Q 12 104 14 92 Q 14 91 14 90 Q 14 88 14 86 Q 20 86 25 86 Q 30 86 35 85 Q 36 90 36 93 Q 36 97 37 101 H 38 L 44 86 Q 49 86 54 87 Q 59 87 64 88 Q 69 90 72 87 Q 95 75 118 75 Q 151 77 171 103 Q 173 105 175 106 Q 184 113 190 121 Q 195 130 200 140 Q 201 143 202 146 Q 203 149 204 152 Q 202 155 198 156 Q 194 158 191 161 Q 195 162 199 161 Q 203 161 207 162 Q 208 167 209 172 Q 210 177 211 184 Q 227 185 244 186 Q 261 188 278 189 Q 275 143 272 97 Q 270 52 267 6 Q 288 0 310 0 Q 332 0 354 5 V 19 Q 358 20 363 21 Q 367 22 372 23 V 32 V 36 Q 372 39 373 41 Q 373 43 372 45 Q 371 47 369 48 Q 367 50 364 51 Q 367 51 368 51 Q 369 51 372 51 V 66 Q 399 64 425 61 Q 451 58 477 55 Q 480 65 483 74 Q 486 74 489 74 Q 492 74 495 74 Q 498 81 501 92 Q 503 103 503 115 Q 504 127 502 139 Q 501 152 499 161 Q 491 161 483 161 Q 474 161 465 160 Q 464 155 463 151 Q 462 147 461 143 Q 457 141 456 145 Q 455 149 454 152 Q 452 155 451 160 Q 431 159 411 159 Q 391 159 370 158 V 195 Q 400 197 430 199 Q 460 201 491 203 Q 492 207 492 211 Q 492 215 493 220 Q 497 220 501 221 Q 505 221 509 221 Q 512 239 511 256 Q 510 273 505 291 Z M 20 93 Q 20 96 19 99 Q 19 101 19 104 Q 16 126 14 147 Q 11 169 10 191 Q 8 210 8 228 Q 7 247 7 265 Q 6 280 6 294 Q 7 308 8 323 Q 10 336 12 348 Q 15 359 21 371 Q 32 394 51 406 Q 70 417 96 416 Q 110 416 124 412 Q 137 409 152 404 Q 152 403 153 403 Q 153 403 154 402 Q 151 388 144 376 Q 138 364 133 351 Q 131 351 128 353 Q 121 355 113 357 Q 106 359 99 359 Q 87 360 81 356 Q 75 351 72 342 Q 71 341 70 340 Q 70 339 70 337 Q 60 336 50 335 Q 40 335 30 333 V 332 Q 39 329 49 326 Q 58 323 68 320 Q 66 265 72 211 Q 78 157 87 103 Q 78 99 68 96 Q 59 94 49 93 Q 44 104 40 115 Q 35 126 31 137 Q 30 126 30 114 Q 30 103 28 92 Q 25 93 24 93 Q 22 93 20 93 Z M 182 390 Q 183 386 183 385 Q 184 363 185 342 Q 186 320 188 299 Q 189 282 188 265 Q 188 248 188 231 Q 188 213 187 197 Q 186 180 184 162 Q 183 159 182 157 Q 182 154 181 150 Q 170 151 159 152 Q 148 152 136 153 Q 136 152 135 152 Q 145 146 155 141 Q 166 136 176 130 Q 171 114 161 103 Q 152 92 136 86 Q 122 81 107 83 Q 93 84 78 92 Q 83 94 87 95 Q 91 96 95 98 Q 95 99 94 100 Q 94 100 94 101 Q 91 115 89 129 Q 87 143 84 157 Q 84 165 90 169 Q 90 170 91 170 Q 92 169 94 167 Q 96 166 99 163 Q 102 161 105 159 Q 116 153 120 165 Q 121 167 121 169 Q 121 171 122 174 Q 123 189 124 204 Q 126 219 127 234 Q 128 258 128 281 Q 129 305 130 328 Q 130 332 130 336 Q 131 339 131 343 Q 133 342 134 342 Q 136 342 137 342 Q 143 354 148 366 Q 153 378 158 390 Z M 204 263 Q 274 264 343 264 Q 411 265 481 266 Q 487 237 484 210 Q 413 206 345 201 Q 276 196 206 191 Q 202 209 201 227 Q 200 244 204 263 Z M 306 477 Q 307 477 308 477 Q 309 477 310 477 Q 313 457 315 438 Q 317 419 318 400 H 325 Q 326 420 327 440 Q 327 460 328 482 Q 332 480 335 479 Q 335 427 337 376 Q 339 324 342 272 Q 324 271 307 271 Q 290 271 273 271 Q 273 324 275 377 Q 276 429 279 482 H 287 Q 288 469 290 457 Q 292 445 294 433 H 296 Q 297 444 299 455 Q 301 466 302 477 Z M 342 193 Q 342 192 343 191 Q 343 190 343 189 Q 344 177 344 166 Q 344 154 344 143 Q 344 141 343 137 Q 322 121 338 104 Q 338 87 340 71 Q 340 70 341 70 Q 343 69 345 68 V 40 Q 337 41 331 42 Q 324 43 317 44 Q 303 48 290 50 Q 304 42 318 36 Q 332 30 345 23 V 10 Q 336 8 326 7 Q 316 6 306 6 Q 296 7 288 8 Q 279 10 274 12 Q 277 56 280 100 Q 282 144 285 188 Q 300 189 314 190 Q 328 192 342 193 Z M 443 435 Q 468 418 484 397 Q 476 387 469 378 Q 461 369 453 359 Q 446 362 438 365 Q 430 367 422 370 Q 422 369 422 369 Q 427 364 432 359 Q 438 353 443 348 Q 434 336 425 325 Q 416 314 406 302 Q 399 306 390 312 Q 382 319 374 326 Q 367 333 361 340 Q 355 347 354 351 Q 376 372 399 393 Q 421 413 443 435 Z M 471 63 Q 439 66 409 70 Q 378 73 347 77 Q 342 105 349 132 Q 368 132 388 133 Q 407 133 426 133 L 428 130 Q 410 124 431 118 Q 433 112 435 106 Q 437 102 440 102 Q 444 102 445 106 Q 446 108 446 110 Q 447 112 447 114 Q 448 119 449 124 Q 451 128 452 133 H 474 Q 477 116 476 99 Q 476 81 471 63 Z M 123 346 Q 123 307 122 269 Q 121 231 117 192 Q 115 193 113 195 Q 112 196 110 197 Q 108 196 106 194 Q 104 193 101 191 Q 97 230 94 268 Q 91 305 94 344 Q 91 345 89 346 Q 87 346 84 347 Q 87 348 91 348 Q 94 349 96 351 Q 96 351 99 351 Q 109 351 123 346 Z" fill="black" />
  </g>
  <g class="defect" id="01">
    <path d="M 212 348 Q 192 364 208 414" fill="none" stroke="red" stroke-width="3" />
  </g>
  <g class="defect" id="02">
    <path d="M 428 130 Q 410 124 431 118" fill="none" stroke="red" stroke-width="3" />
  </g>
  <g class="defect" id="03">
    <path d="M 343 137 Q 322 121 338 104" fill="none" stroke="red" stroke-width="3" />
  </g>
</svg>