<svg xmlns="http://www.w3.org/2000/svg" width="512" height="512" viewBox="0 0 512 512">
  <g class="glyph">
    <path d="M 396 176 H 477 Q 478 181 478 185 Q 479 189 480 193 Q 483 194 487 194 Q 491 194 494 194 Q 498 206 498 220 Q 496 221 493 222 Q 490 222 487 223 V 224 H 499 Q 499 234 499 244 Q 498 253 496 263 Q 468 265 440 266 Q 413 268 385 270 Q 385 272 384 273 Q 384 275 384 277 L 402 280 V 299 Q 419 299 436 299 Q 453 299 470 299 Q 472 304 473 308 Q 474 313 475 317 H 489 Q 493 335 493 352 Q 493 369 491 387 Q 477 387 463 388 Q 449 388 436 389 Q 435 385 434 381 Q 433 376 432 372 H 430 Q 429 376 428 381 Q 427 386 426 390 Q 420 391 413 391 Q 407 391 401 392 V 403 H 489 Q 491 407 491 411 Q 492 416 493 421 H 507 Q 509 426 510 435 Q 511 444 511 454 Q 512 464 511 474 Q 510 483 509 490 Q 450 493 393 497 Q 323 519 277 503 Q 276 499 275 492 Q 274 485 274 485 Q 274 485 272 488 Q 271 491 270 494 Q 269 497 268 500 Q 267 503 267 503 Q 254 504 243 505 Q 233 506 223 506 Q 213 507 208 507 Q 207 502 205 498 Q 204 493 203 488 Q 200 489 197 489 Q 193 489 191 489 Q 184 470 183 451 Q 183 432 186 413 H 171 Q 171 416 171 422 Q 171 422 169 424 Q 155 429 142 433 Q 129 437 114 438 Q 92 440 75 433 Q 57 427 43 409 Q 42 408 42 407 Q 41 407 40 406 Q 28 397 21 385 Q 14 373 9 359 Q 5 348 4 338 Q 3 328 2 318 Q 0 299 0 281 Q 0 263 1 244 Q 2 233 2 222 Q 2 212 3 201 Q 4 186 5 171 Q 7 156 8 141 Q 9 129 10 117 Q 12 105 14 93 Q 14 89 14 88 Q 15 88 19 87 Q 23 87 27 87 Q 30 86 35 87 Q 35 91 35 94 Q 35 97 35 101 Q 36 101 36 101 Q 37 99 38 98 Q 38 97 39 95 Q 40 93 41 91 Q 41 90 42 87 Q 45 88 48 88 Q 52 88 54 89 Q 65 91 74 86 Q 101 73 127 80 Q 148 86 160 102 Q 162 103 163 105 Q 165 107 166 108 Q 176 115 182 126 Q 190 138 193 153 Q 190 155 187 157 Q 183 158 180 160 Q 183 162 185 162 Q 186 162 188 162 Q 190 162 191 162 Q 193 162 195 162 Q 197 169 198 177 Q 199 184 201 192 Q 202 188 202 184 Q 203 181 204 176 Q 216 176 229 176 Q 241 176 254 176 H 303 V 155 Q 286 157 270 158 Q 253 159 236 160 Q 235 155 234 151 Q 233 146 231 141 H 219 Q 216 134 214 123 Q 212 111 212 99 Q 212 86 213 75 Q 214 64 216 57 H 300 Q 300 44 300 31 Q 299 19 299 6 Q 320 0 342 1 Q 363 2 384 7 V 21 Q 388 23 393 23 Q 398 24 403 26 L 401 47 Q 398 49 394 50 Q 391 52 387 53 V 54 H 400 Q 400 56 401 57 Q 401 58 401 60 Q 415 61 430 62 Q 445 62 460 63 Q 461 67 461 71 Q 461 75 463 80 Q 465 80 468 80 Q 471 80 474 80 Q 477 80 478 84 Q 480 95 480 106 Q 481 118 480 129 Q 479 134 478 139 Q 477 144 476 150 H 445 Q 444 146 444 143 Q 443 140 442 136 H 442 Q 441 140 440 143 Q 439 147 438 151 Q 428 151 418 151 Q 407 152 396 152 Z M 21 96 Q 21 97 21 99 Q 20 101 20 102 Q 19 110 18 117 Q 18 125 16 132 Q 15 150 13 167 Q 12 184 11 201 Q 10 215 9 230 Q 9 245 9 259 Q 8 276 8 293 Q 8 310 11 327 Q 13 340 16 352 Q 19 364 25 375 Q 32 388 42 398 Q 53 407 68 411 Q 74 413 81 414 Q 87 415 94 414 Q 108 413 121 409 Q 133 406 146 400 Q 144 387 138 374 Q 131 362 127 349 Q 125 350 121 352 Q 108 357 95 358 Q 76 360 69 342 Q 69 341 68 340 Q 68 338 68 337 Q 58 336 49 335 Q 40 333 31 332 V 331 Q 40 329 48 325 Q 57 322 65 320 Q 64 265 69 212 Q 75 159 84 105 Q 68 99 48 96 Q 43 107 40 118 Q 36 129 32 140 Q 30 129 30 117 Q 30 106 29 95 Q 23 95 21 96 Z M 129 154 Q 129 153 129 153 Q 138 147 147 142 Q 157 137 166 132 Q 161 114 151 103 Q 141 92 128 88 Q 115 84 102 85 Q 88 87 76 94 Q 80 95 83 97 Q 87 98 91 100 Q 90 102 90 107 Q 88 120 86 134 Q 84 148 81 162 Q 81 163 81 164 Q 81 165 82 165 Q 84 167 85 168 Q 86 169 88 170 Q 89 169 90 168 Q 91 168 92 167 Q 94 165 96 163 Q 98 162 101 160 Q 105 157 110 159 Q 114 160 115 166 L 116 172 L 120 209 Q 121 228 122 247 Q 123 267 124 287 Q 124 299 124 311 Q 124 322 124 335 Q 124 337 124 338 Q 125 340 125 341 Q 126 341 128 340 Q 129 340 131 340 Q 132 343 133 347 Q 137 357 141 366 Q 145 375 149 385 Q 151 387 152 387 Q 158 387 162 387 Q 167 387 172 386 Q 172 385 172 384 Q 172 383 172 382 Q 174 371 174 360 Q 175 348 175 337 Q 176 323 176 308 Q 176 294 177 280 Q 177 254 177 229 Q 177 203 175 177 Q 174 171 173 165 Q 172 158 171 152 Q 141 153 150 153 Q 140 153 129 154 Z M 210 184 Q 207 202 207 219 Q 208 237 213 254 Q 215 254 235 253 Q 254 252 283 251 Q 311 249 344 247 Q 377 245 405 243 Q 433 241 453 240 Q 472 238 473 238 Q 473 232 473 226 Q 474 220 474 214 Q 463 214 453 214 Q 443 214 433 213 Q 433 213 432 212 Q 443 208 452 204 Q 462 200 472 196 V 192 Q 471 189 471 184 Z M 263 411 Q 264 428 265 444 Q 265 461 266 478 Q 321 475 376 471 Q 430 468 485 465 Q 487 451 486 438 Q 486 424 483 411 Z M 370 176 Q 371 143 372 110 Q 374 77 375 44 Q 368 43 360 44 Q 352 44 344 40 Q 353 36 361 32 Q 369 28 377 24 V 19 V 13 Q 359 9 342 8 Q 324 8 307 12 Q 308 53 308 94 Q 289 135 311 176 Z M 375 403 Q 376 369 376 335 Q 376 302 377 268 Q 359 265 342 265 Q 324 265 307 270 Q 309 303 311 336 Q 314 369 316 402 Q 331 403 346 403 Q 360 403 375 403 Z M 209 306 Q 208 314 207 324 Q 206 334 206 344 Q 207 354 208 363 Q 209 371 212 376 Q 236 375 259 373 Q 282 372 307 371 Q 305 354 304 338 Q 303 322 302 306 Z M 302 130 Q 302 113 301 97 Q 300 81 300 64 H 222 Q 219 82 219 99 Q 219 116 224 134 Q 244 133 263 132 Q 282 131 302 130 Z M 466 362 Q 470 335 465 307 H 384 Q 383 322 383 337 Q 383 352 383 367 Q 388 366 393 367 Q 398 367 402 366 Q 403 360 404 355 Q 405 350 407 346 Q 408 340 414 340 Q 419 345 420 352 Q 422 358 424 365 Q 435 364 445 364 Q 455 363 466 362 Z M 454 70 Q 436 69 418 68 Q 400 67 382 67 Q 381 82 380 97 Q 380 112 379 126 H 415 Q 418 115 421 104 Q 423 93 427 82 Q 429 93 431 104 Q 432 114 435 125 H 453 Q 454 121 455 113 Q 455 105 456 98 Q 456 90 455 82 Q 455 74 454 70 Z M 194 411 Q 191 425 191 443 Q 191 461 194 476 Q 195 481 196 482 Q 197 482 202 481 Q 204 481 207 481 Q 209 481 211 481 Q 215 481 218 480 Q 221 480 226 480 Q 227 470 229 460 Q 230 450 232 441 H 233 Q 236 449 237 457 Q 239 465 241 474 H 246 Q 250 458 254 442 Q 257 427 261 411 Z M 117 344 Q 118 340 117 327 Q 117 314 117 298 Q 116 282 116 264 Q 115 247 114 232 Q 113 217 112 207 Q 112 196 111 194 Q 110 195 109 196 Q 108 196 107 197 Q 103 195 103 194 Q 102 193 101 193 Q 99 192 98 191 Q 94 229 91 266 Q 88 304 91 341 L 82 344 Q 83 344 83 345 Q 84 345 84 345 Q 87 346 89 346 Q 91 346 93 349 H 96 Q 105 349 117 344 Z M 203 251 V 297 Q 207 298 221 298 Q 236 298 254 298 Q 271 298 285 298 Q 299 298 301 298 Q 300 292 300 287 Q 300 281 299 275 Q 280 276 262 277 Q 244 279 225 280 Q 224 275 223 270 Q 221 266 220 261 H 207 Q 206 259 205 256 Q 205 254 204 251 Z M 309 403 Q 309 402 309 400 Q 309 399 308 397 Q 287 398 266 399 Q 244 400 224 402 Q 222 397 221 392 Q 220 388 219 383 H 205 Q 204 379 204 376 Q 203 372 202 370 H 201 Q 200 378 200 386 Q 199 395 198 403 Z" fill="black" />
  </g>
  <g class="defect" id="01">
    <path d="M 393 497 Q 323 519 277 503" fill="none" stroke="red" stroke-width="3" />
  </g>
  <g class="defect" id="02">
    <path d="M 308 94 Q 289 135 311 176" fill="none" stroke="red" stroke-width="3" />
  </g>
  <g class="defect" id="03">
    <path d="M 171 152 Q 141 153 150 153" fill="none" stroke="red" stroke-width="3" />
  </g>
</svg>