<svg xmlns="http://www.w3.org/2000/svg" width="512" height="512" viewBox="0 0 512 512">
  <g class="glyph">
    <path d="M 12 56 Q 16 56 20 56 Q 25 55 30 55 Q 30 59 30 61 Q 30 64 30 67 Q 31 67 31 67 Q 31 67 31 67 Q 32 65 33 62 Q 34 59 35 56 Q 39 56 42 57 Q 46 57 50 58 Q 54 60 60 56 Q 75 47 92 47 Q 105 47 115 52 Q 125 57 133 67 Q 136 71 140 74 Q 151 82 156 93 Q 159 99 161 104 Q 162 110 165 115 Q 162 118 159 120 Q 144 121 153 123 Q 153 124 153 124 H 166 Q 167 125 167 126 Q 167 127 167 127 Q 171 128 175 128 Q 179 128 183 128 Q 184 118 185 109 Q 186 99 187 89 Q 183 90 182 90 Q 170 75 164 58 Q 158 42 156 24 Q 161 22 167 20 Q 172 17 178 15 Q 190 11 202 8 Q 214 4 226 3 Q 240 0 254 1 Q 268 2 282 8 Q 295 14 305 23 Q 304 25 303 27 Q 309 28 313 32 Q 317 36 321 40 Q 320 41 319 43 Q 318 45 321 47 Q 322 46 323 46 Q 324 45 325 45 Q 327 46 329 49 Q 342 67 343 91 Q 344 100 344 108 Q 344 117 345 125 V 129 Q 370 128 393 134 V 147 Q 395 148 396 148 Q 398 148 400 149 Q 405 136 412 123 Q 419 111 422 96 Q 407 94 393 96 Q 379 99 364 102 Q 362 97 360 93 Q 358 88 356 84 Q 354 84 352 84 Q 350 85 347 85 Q 332 56 334 23 Q 339 22 344 21 Q 349 20 353 19 Q 372 16 392 16 Q 418 16 443 25 Q 450 28 457 32 Q 463 36 469 42 Q 470 43 470 44 Q 470 45 471 46 Q 472 47 472 48 Q 473 49 474 49 Q 478 52 481 55 Q 485 57 488 62 Q 487 64 485 66 Q 484 68 483 70 L 484 71 Q 488 69 491 67 Q 500 80 501 97 Q 502 109 499 120 Q 497 131 493 141 Q 489 151 485 161 Q 480 170 476 179 Q 473 184 471 189 Q 468 195 466 200 Q 467 201 467 202 Q 468 202 469 204 Q 472 207 476 210 Q 479 214 483 217 L 488 222 Q 494 227 499 234 Q 504 240 507 248 Q 512 262 509 274 Q 507 287 499 299 Q 495 305 491 310 Q 486 314 481 318 Q 477 322 472 325 Q 468 328 463 332 Q 462 330 461 329 Q 459 327 458 326 V 331 Q 459 336 455 338 Q 445 345 433 352 Q 422 358 411 364 Q 408 366 407 367 Q 407 368 407 371 Q 408 383 408 394 Q 408 405 409 418 V 421 Q 383 428 357 425 Q 356 421 356 417 Q 356 414 355 410 Q 351 409 348 409 Q 344 409 340 409 Q 339 388 337 368 Q 335 347 333 327 Q 330 352 327 376 Q 324 400 320 425 Q 315 426 307 426 Q 300 426 291 425 Q 283 423 276 422 Q 268 420 263 417 Q 263 414 263 412 Q 263 409 263 407 Q 259 405 254 404 Q 250 403 246 401 Q 247 390 248 379 Q 249 368 250 358 Q 252 347 253 336 Q 243 340 255 315 Q 251 314 248 314 Q 245 315 240 315 Q 238 337 236 358 Q 234 379 231 401 Q 222 403 215 402 V 389 H 213 Q 212 392 211 395 Q 210 398 209 402 Q 202 402 194 401 Q 186 400 179 398 Q 179 394 179 391 Q 179 388 179 385 Q 175 384 171 383 Q 167 382 162 381 Q 163 374 163 368 Q 163 362 164 355 H 144 Q 145 358 145 359 Q 146 361 146 363 Q 145 364 145 364 Q 144 364 143 365 Q 132 370 121 374 Q 110 378 98 379 Q 62 382 41 355 Q 39 354 37 352 Q 36 351 34 349 Q 27 344 23 337 Q 18 331 14 324 Q 9 313 7 302 Q 4 291 2 279 Q 0 262 0 244 Q 0 226 1 209 Q 1 195 1 182 Q 2 169 3 156 Q 4 142 5 128 Q 6 114 7 100 Q 8 91 9 81 Q 11 71 12 62 Z M 162 28 Q 165 43 170 56 Q 175 69 183 81 Q 186 80 187 80 Q 188 80 190 79 Q 197 76 204 73 Q 211 71 219 68 Q 226 65 234 64 Q 241 63 249 63 Q 253 63 257 64 Q 260 65 264 69 L 268 67 Q 269 69 270 70 Q 270 72 271 73 Q 270 74 269 75 Q 267 75 266 76 V 79 Q 271 106 269 133 Q 269 155 269 176 Q 268 198 267 220 Q 266 245 264 271 Q 263 296 260 321 Q 259 338 258 355 Q 256 372 254 389 V 392 H 255 Q 258 387 260 382 Q 262 377 265 371 Q 268 385 267 399 Q 269 399 272 399 Q 275 378 277 356 Q 279 335 282 314 Q 284 314 286 315 Q 287 315 289 315 Q 288 337 287 358 Q 286 379 285 401 H 298 Q 300 394 300 387 Q 301 381 302 374 Q 304 359 306 344 Q 307 330 310 315 Q 311 301 312 287 Q 314 273 315 259 Q 316 243 317 227 Q 318 211 320 195 Q 320 183 321 172 Q 321 161 322 150 V 89 Q 322 80 321 71 Q 320 62 316 53 Q 313 43 308 36 Q 304 39 300 42 Q 295 45 291 47 Q 287 50 283 53 Q 279 55 274 57 Q 280 49 285 41 Q 291 33 296 24 Q 294 22 293 21 Q 292 20 289 19 Q 277 11 263 9 Q 249 6 235 8 Q 221 9 209 12 Q 196 15 184 20 Q 178 22 172 24 Q 167 25 162 28 Z M 448 305 Q 452 302 456 299 Q 459 296 462 293 Q 471 286 477 277 Q 488 259 485 242 Q 483 225 468 211 Q 462 207 457 204 Q 455 202 452 200 Q 449 198 446 196 Q 439 191 441 183 Q 442 181 443 178 Q 445 175 446 172 Q 448 166 451 161 Q 454 156 457 150 Q 463 138 468 124 Q 474 111 476 97 Q 479 79 474 63 Q 473 62 471 60 Q 468 62 465 64 Q 462 66 459 67 Q 452 71 444 73 Q 449 65 453 59 Q 458 53 462 46 Q 459 44 457 42 Q 455 40 452 38 Q 444 33 435 31 Q 427 28 418 26 Q 401 22 384 23 Q 368 24 351 26 Q 349 27 345 27 Q 342 28 339 28 Q 339 54 350 78 Q 354 77 358 76 Q 362 76 366 75 Q 376 73 385 73 Q 395 72 404 74 Q 410 75 415 76 Q 420 78 425 79 Q 430 80 429 86 Q 429 91 428 95 Q 427 100 426 104 Q 422 115 418 124 Q 414 133 409 143 Q 405 151 402 159 Q 399 167 397 176 Q 395 188 397 199 Q 400 210 407 219 Q 411 225 416 229 Q 421 233 427 236 Q 429 238 433 240 Q 436 242 439 245 Q 446 249 441 256 Q 437 262 433 265 Q 423 273 413 280 Q 403 287 392 294 Q 389 296 389 301 Q 389 310 389 318 Q 389 327 390 336 Q 390 339 390 341 Q 392 341 393 339 Q 410 331 427 320 Q 429 319 431 318 Q 433 316 434 314 Q 436 312 435 310 Q 434 307 434 304 V 287 Q 437 292 441 296 Q 444 301 448 305 Z M 122 342 Q 120 330 115 319 Q 110 307 105 296 Q 100 297 96 300 Q 91 301 86 302 Q 81 304 75 303 Q 63 302 59 292 Q 57 290 56 287 Q 56 283 52 283 Q 46 283 42 282 Q 37 282 33 281 Q 31 281 29 280 Q 27 280 24 279 V 279 Q 32 276 39 274 Q 46 271 54 268 Q 53 243 54 219 Q 55 194 57 170 Q 59 145 62 121 Q 65 96 69 71 Q 62 69 55 66 Q 47 64 40 63 Q 36 74 33 84 Q 29 94 26 104 H 24 Q 24 94 24 83 Q 23 73 23 62 Q 21 63 20 63 Q 18 63 17 63 Q 17 65 17 69 Q 16 76 15 84 Q 14 91 13 99 Q 12 113 11 127 Q 10 141 9 156 Q 8 169 8 182 Q 7 195 7 208 Q 6 226 6 243 Q 6 260 9 278 Q 11 290 13 301 Q 16 313 22 323 Q 34 346 56 353 Q 64 355 71 356 Q 78 356 85 355 Q 95 352 104 349 Q 113 346 122 342 Z M 73 131 Q 74 130 75 130 Q 75 130 76 129 Q 78 127 80 125 Q 82 124 84 122 Q 88 120 92 121 Q 95 122 96 127 Q 96 129 97 131 Q 98 132 98 134 Q 99 150 100 166 Q 101 181 102 197 Q 103 217 103 237 Q 104 257 104 277 V 288 Q 108 287 109 287 Q 113 298 118 309 Q 122 320 126 330 H 144 V 325 Q 146 300 147 274 Q 148 249 148 224 V 178 Q 148 163 147 148 Q 146 133 144 118 Q 143 117 143 116 Q 143 115 143 114 Q 134 115 125 115 Q 117 115 108 116 V 115 Q 115 110 123 105 Q 131 101 139 96 Q 136 84 130 76 Q 113 50 84 53 Q 72 55 63 61 Q 66 63 70 64 Q 73 65 76 67 Q 75 69 75 72 Q 73 84 72 96 Q 70 109 69 121 Q 68 127 73 131 Z M 242 101 Q 230 97 218 95 Q 205 94 192 95 Q 192 98 191 111 Q 190 124 188 144 Q 186 163 184 188 Q 182 212 180 237 Q 178 262 176 286 Q 174 310 173 329 Q 171 348 171 360 Q 170 373 170 375 Q 179 378 188 378 Q 190 369 194 360 Q 197 351 201 342 Q 202 346 203 351 Q 204 356 205 360 Q 205 364 205 369 Q 205 373 205 378 Q 207 379 208 377 Q 209 375 209 374 Q 210 362 211 350 Q 212 338 214 326 Q 216 311 217 295 Q 219 279 221 264 Q 225 227 231 190 Q 233 174 235 158 Q 237 142 239 125 Q 240 120 241 114 Q 241 108 242 101 Z M 347 401 Q 356 402 368 401 Q 379 400 385 398 Q 384 366 383 335 Q 382 304 381 272 H 355 Q 356 271 358 271 Q 359 270 360 269 Q 370 262 378 257 Q 380 256 380 255 Q 381 254 381 252 Q 381 245 381 238 Q 381 231 381 224 Q 382 204 383 184 Q 383 165 384 144 V 139 Q 372 137 359 136 Q 347 135 334 138 Q 333 145 334 166 Q 334 186 335 214 Q 335 241 337 271 Q 338 302 340 329 Q 342 355 344 375 Q 345 395 347 401 Z M 97 292 Q 98 288 98 277 Q 98 266 97 251 Q 96 237 96 221 Q 95 205 95 191 Q 94 177 94 168 Q 93 158 92 156 Q 89 158 88 156 Q 86 153 83 153 Q 79 187 77 221 Q 75 255 76 289 Q 75 290 73 291 Q 71 292 69 293 Q 71 293 74 293 Q 76 293 77 294 Q 79 297 81 297 Q 82 296 84 296 Q 88 295 91 294 Q 94 293 97 292 Z M 256 288 Q 257 276 258 264 Q 258 252 259 240 H 231 Q 229 253 228 266 Q 226 278 225 291 Q 233 290 240 289 Q 248 289 256 288 Z M 254 160 Q 255 161 255 162 Q 255 162 255 163 Q 256 170 256 176 Q 257 182 258 189 Q 258 190 258 191 Q 258 192 261 191 Q 262 180 262 168 Q 262 157 263 145 Q 258 145 253 144 Q 250 143 248 143 Q 246 143 244 143 Q 242 155 240 167 Q 238 179 237 191 H 244 Q 247 183 249 175 Q 250 168 253 160 Z M 407 228 Q 406 228 406 228 Q 405 228 405 228 V 274 Q 402 276 400 277 Q 398 279 395 281 Q 398 280 403 277 Q 408 274 414 269 Q 420 265 425 260 Q 430 256 432 254 Q 426 247 419 241 Q 413 235 407 228 Z M 176 191 Q 177 177 179 163 Q 180 149 181 134 Q 179 134 176 134 Q 174 134 171 134 Q 168 149 167 163 Q 166 177 169 191 Z M 167 297 Q 167 296 168 288 Q 169 280 170 270 Q 171 260 171 252 Q 172 243 172 240 H 162 Q 161 244 161 253 Q 160 262 161 271 Q 161 280 162 288 Q 164 295 167 297 Z M 262 111 Q 261 104 261 98 Q 261 92 259 86 Q 247 88 235 91 Q 239 93 243 94 Q 246 95 249 96 Q 249 99 249 102 Q 249 105 248 108 Q 255 109 262 111 Z M 253 215 Q 252 220 251 224 Q 250 228 251 233 Q 253 233 255 233 Q 257 233 259 233 Q 260 223 260 216 Q 257 215 256 215 Q 255 215 253 215 Z M 172 231 H 173 Q 174 223 174 215 Q 175 207 176 198 H 172 Z" fill="black" />
  </g>
  <g class="defect" id="01">
    <path d="M 253 336 Q 243 340 255 315" fill="none" stroke="red" stroke-width="3" />
  </g>
  <g class="defect" id="02">
    <path d="M 159 120 Q 144 121 153 123" fill="none" stroke="red" stroke-width="3" />
  </g>
</svg>