<svg xmlns="http://www.w3.org/2000/svg" width="512" height="512" viewBox="0 0 512 512">
  <g class="glyph">
    <path d="M 490 412 Q 476 412 463 409 Q 450 406 437 400 L 439 390 Q 434 388 429 387 Q 425 385 420 383 Q 420 380 421 378 Q 421 377 421 374 H 412 V 391 Q 412 392 413 393 Q 417 395 418 400 Q 419 404 422 407 Q 419 409 418 411 Q 422 414 425 412 Q 428 411 432 411 Q 434 414 435 418 Q 437 421 439 425 L 434 429 Q 439 429 440 433 Q 440 434 440 434 Q 440 434 440 435 Q 442 441 441 443 Q 440 445 435 447 Q 433 448 431 450 Q 435 449 439 448 Q 442 446 447 445 Q 448 449 448 453 Q 449 458 450 462 Q 448 462 446 464 Q 432 469 417 473 Q 403 476 388 479 Q 373 482 357 484 Q 340 486 325 488 Q 306 489 287 488 Q 269 487 250 481 Q 239 477 230 472 Q 220 467 211 459 Q 212 458 212 457 Q 212 456 213 454 Q 211 455 210 455 Q 209 455 208 455 Q 207 455 207 454 Q 204 452 201 449 Q 199 446 196 443 Q 195 442 194 441 Q 194 440 194 438 Q 191 439 190 437 Q 188 436 187 434 Q 173 419 167 400 Q 166 398 165 395 Q 165 395 164 394 H 152 Q 152 397 152 399 Q 152 401 152 402 Q 151 403 151 404 Q 150 404 149 405 Q 137 410 125 414 Q 113 418 101 419 Q 64 421 41 393 L 37 388 Q 29 383 24 376 Q 19 368 15 360 Q 4 338 3 313 Q 2 300 1 287 Q 0 274 1 261 Q 1 238 2 216 Q 3 194 4 172 Q 5 153 8 134 Q 10 115 12 97 Q 12 95 12 94 Q 13 92 13 91 Q 18 91 22 90 Q 26 90 31 90 Q 32 93 32 96 Q 32 99 32 101 H 33 Q 34 99 35 96 Q 36 93 37 90 Q 42 91 46 91 Q 50 92 54 93 Q 58 93 61 91 Q 77 82 93 80 Q 122 80 140 103 Q 141 104 142 105 Q 144 106 145 108 Q 146 106 146 105 Q 147 103 148 101 Q 155 92 163 85 Q 172 77 182 71 Q 187 68 191 66 Q 195 64 199 62 Q 202 60 204 59 Q 208 64 211 69 Q 214 73 217 78 Q 218 78 222 77 Q 235 95 247 114 Q 258 133 271 152 Q 270 154 269 155 Q 268 157 266 159 Q 264 161 264 164 Q 265 167 265 169 Q 265 172 267 175 Q 268 171 268 168 Q 269 164 269 160 Q 272 159 275 160 Q 278 160 281 161 Q 284 161 286 161 Q 288 160 290 159 Q 293 158 295 157 Q 297 156 299 155 Q 301 154 301 154 Q 302 153 302 150 Q 298 148 293 146 Q 288 144 284 141 Q 285 133 288 125 Q 291 117 295 110 Q 292 105 289 101 Q 285 96 282 92 Q 278 93 276 90 Q 267 79 259 64 Q 261 62 263 60 Q 265 59 267 57 Q 267 54 266 52 Q 263 53 260 54 Q 257 54 255 54 Q 252 49 251 44 Q 249 38 248 32 Q 259 28 269 23 Q 279 19 290 15 Q 321 4 351 1 Q 365 0 378 1 Q 392 1 405 6 Q 425 13 438 29 Q 440 33 444 35 Q 458 46 463 60 Q 468 73 466 91 Q 465 104 460 115 Q 455 126 447 137 Q 447 138 446 139 Q 446 140 445 141 Q 445 141 445 141 Q 445 142 448 144 Q 452 147 456 150 Q 460 153 464 155 Q 466 157 468 159 Q 470 160 470 163 Q 470 164 473 165 Q 477 168 480 171 Q 484 174 487 179 Q 487 181 485 182 Q 483 183 486 186 Q 487 185 488 185 Q 490 184 491 183 Q 496 190 500 197 Q 503 204 506 211 Q 508 221 509 231 Q 510 240 511 250 Q 512 283 508 315 Q 504 347 498 379 Q 496 387 494 394 Q 493 401 491 409 Q 491 409 490 412 Z M 413 406 Q 411 404 410 403 Q 409 402 407 403 Q 400 405 393 407 Q 386 409 379 410 Q 361 414 344 416 Q 326 418 309 419 Q 296 420 284 420 Q 272 419 260 417 Q 225 408 217 373 Q 203 364 215 354 Q 215 344 215 335 Q 216 320 218 305 Q 221 290 223 275 Q 224 269 226 262 Q 227 256 229 248 Q 216 243 203 241 Q 190 238 177 239 Q 176 240 176 241 Q 176 241 176 242 Q 173 258 170 274 Q 168 290 166 307 Q 165 324 165 340 Q 165 357 167 374 Q 170 386 174 398 Q 178 410 186 421 Q 187 423 188 425 Q 190 427 192 429 Q 199 422 207 417 Q 215 411 223 405 L 224 406 Q 219 415 214 423 Q 209 432 203 441 Q 211 448 221 452 Q 230 457 240 460 Q 257 465 275 465 Q 293 466 312 464 Q 337 461 361 458 Q 391 453 418 444 Q 419 443 421 443 Q 422 443 424 442 Q 424 441 424 441 Q 424 440 425 439 Q 424 439 424 439 Q 410 443 396 447 Q 383 451 368 454 Q 367 450 366 447 Q 368 446 370 446 Q 371 445 373 444 Q 383 439 393 435 Q 403 430 413 425 Q 414 425 415 424 Q 417 424 416 421 Q 410 421 404 423 Q 399 424 392 424 Q 398 419 403 415 Q 408 411 413 406 Z M 461 162 Q 460 160 460 160 Q 459 159 458 158 Q 458 158 456 157 Q 438 142 413 140 Q 390 139 369 142 Q 332 148 298 163 Q 295 166 295 169 V 200 Q 295 203 295 203 Q 298 208 301 211 Q 304 215 307 218 Q 309 218 310 217 Q 325 208 342 202 Q 358 196 375 193 Q 385 191 394 190 Q 404 189 415 190 Q 420 191 424 193 Q 428 196 432 200 Q 438 207 440 217 Q 442 232 442 247 Q 443 261 442 276 Q 441 296 439 317 Q 437 337 433 358 Q 432 363 431 368 Q 430 373 429 379 Q 433 380 438 382 Q 443 384 449 385 Q 455 387 460 388 Q 466 388 469 388 Q 470 385 470 384 Q 475 363 479 343 Q 482 323 485 302 Q 487 282 488 263 Q 489 243 487 223 Q 487 214 485 204 Q 483 195 479 186 Q 478 183 476 180 Q 474 178 473 175 Q 463 180 453 184 Q 444 188 434 192 Q 440 185 447 177 Q 454 169 461 162 Z M 19 97 Q 18 105 17 112 Q 16 120 16 127 Q 14 145 12 162 Q 11 179 10 196 Q 9 207 9 218 Q 9 228 9 239 Q 8 257 8 275 Q 8 293 10 312 Q 11 324 14 335 Q 16 346 22 357 Q 31 376 47 386 Q 63 396 84 394 Q 105 392 125 383 Q 126 383 127 382 Q 127 381 128 381 Q 126 370 122 359 Q 119 349 113 340 Q 106 342 99 344 Q 93 346 86 347 Q 67 350 61 332 V 331 Q 60 328 57 327 Q 54 326 52 326 Q 50 326 47 326 Q 42 325 37 325 Q 32 324 27 323 V 322 Q 35 319 42 317 Q 50 314 58 311 Q 57 285 58 259 Q 59 234 61 208 Q 63 182 67 157 Q 70 132 74 106 Q 66 102 57 100 Q 48 97 43 98 Q 39 108 36 118 Q 32 128 28 139 Q 27 128 27 117 Q 26 106 25 95 Q 23 97 22 97 Q 21 97 19 97 Z M 77 158 Q 80 155 83 153 Q 86 151 90 148 Q 95 142 99 151 Q 100 153 100 156 Q 101 160 102 163 Q 105 175 106 188 Q 107 201 107 214 Q 111 268 111 320 Q 111 323 110 325 Q 110 327 110 330 Q 110 330 111 331 Q 112 331 116 331 Q 121 341 125 350 Q 128 354 129 359 Q 131 364 133 368 H 152 Q 152 367 152 364 Q 154 337 155 309 Q 156 282 156 254 Q 156 243 156 231 Q 156 220 155 209 Q 155 198 154 188 Q 154 178 153 167 Q 152 162 152 158 Q 152 154 151 150 Q 145 150 141 150 Q 136 151 132 151 Q 127 152 122 152 Q 118 152 112 152 Q 121 146 129 141 Q 138 136 146 131 Q 140 113 131 103 Q 121 93 110 90 Q 99 86 87 88 Q 76 91 67 96 Q 71 97 74 99 Q 77 100 80 101 Q 78 115 77 129 Q 75 142 73 154 Q 74 155 77 158 Z M 282 372 Q 282 372 283 371 Q 285 377 288 382 Q 290 387 293 392 Q 295 392 298 391 L 297 381 Q 296 364 294 347 Q 292 330 291 313 Q 289 289 289 265 Q 288 241 288 216 Q 288 205 288 194 Q 288 184 288 173 Q 288 172 287 171 Q 287 170 287 169 Q 284 168 281 168 Q 278 167 275 167 Q 274 178 271 189 Q 269 200 264 211 Q 262 200 261 189 Q 260 178 257 167 Q 254 167 251 167 Q 248 167 245 168 Q 243 168 240 169 Q 237 169 235 170 Q 237 228 243 284 Q 248 340 257 397 Q 267 398 277 396 Q 278 390 279 384 Q 281 378 282 372 Z M 417 18 Q 411 15 407 14 Q 404 13 401 12 Q 398 11 395 10 Q 383 6 370 7 Q 357 7 344 9 Q 313 13 283 25 Q 276 28 270 30 Q 264 33 257 36 Q 258 38 258 41 Q 259 43 260 46 Q 272 43 284 39 Q 296 36 307 32 V 33 Q 297 42 288 49 Q 278 57 269 65 Q 274 76 281 83 Q 283 82 286 81 Q 292 78 299 75 Q 306 72 313 69 Q 331 62 350 58 Q 368 54 389 57 Q 396 47 402 38 Q 409 28 417 18 Z M 421 350 Q 422 345 422 339 Q 423 333 423 326 Q 423 320 422 314 Q 421 308 420 305 Q 390 306 359 308 Q 329 310 298 313 Q 299 323 300 331 Q 301 340 301 350 Z M 391 197 Q 386 197 379 199 Q 372 200 364 202 Q 357 204 350 206 Q 343 209 339 211 Q 338 214 339 228 Q 339 242 340 258 Q 340 274 341 287 Q 342 301 343 303 L 388 299 Q 389 274 389 248 Q 390 223 391 197 Z M 371 116 Q 374 118 377 120 Q 380 122 384 125 Q 394 134 408 133 H 408 Q 411 133 413 131 Q 422 120 429 107 Q 437 95 441 80 Q 443 71 443 63 Q 442 54 439 45 Q 435 33 427 26 Q 418 34 409 42 Q 400 49 391 57 Q 397 60 397 64 Q 398 68 396 72 Q 393 82 390 90 Q 385 96 380 103 Q 376 109 371 116 Z M 154 105 Q 162 113 169 121 Q 176 129 183 136 Q 189 132 194 128 Q 200 124 205 120 Q 210 126 206 133 Q 203 138 201 142 Q 199 146 196 150 Q 199 153 202 156 Q 204 160 207 163 Q 217 159 228 150 Q 239 141 245 134 Q 234 118 224 101 Q 213 85 202 68 Q 188 76 176 84 Q 163 93 154 105 Z M 223 189 Q 220 185 218 183 Q 214 179 210 175 Q 206 171 201 167 Q 197 162 193 158 Q 189 154 186 148 L 184 146 Q 182 144 180 142 Q 160 158 176 140 Q 174 136 171 133 Q 168 130 165 127 Q 163 126 162 125 Q 169 138 172 152 Q 169 154 166 156 Q 163 157 160 160 H 174 Q 176 169 177 178 Q 178 187 179 195 Q 180 204 180 213 Q 180 222 181 231 Q 206 231 232 242 Q 231 228 230 215 Q 229 201 228 188 Q 227 188 225 188 Q 224 188 223 189 Z M 103 335 Q 104 330 104 317 Q 104 304 103 288 Q 103 272 102 254 Q 101 236 101 221 Q 100 207 99 196 Q 98 185 97 183 Q 94 185 93 183 Q 91 181 88 181 Q 84 219 82 257 Q 80 294 81 333 Q 79 334 77 334 Q 76 335 73 336 Q 76 337 78 337 Q 81 337 83 339 Q 84 340 86 339 Q 90 338 94 337 Q 99 336 103 335 Z M 382 133 Q 379 131 370 125 Q 361 119 350 112 Q 339 105 330 99 Q 320 93 316 91 Q 308 102 301 113 Q 295 125 292 138 Q 297 140 302 142 Q 306 145 311 147 Q 316 149 320 148 Q 345 139 370 135 Q 376 134 382 133 Z M 388 357 Q 377 356 367 356 Q 356 356 345 356 Q 346 365 346 374 Q 346 382 347 390 Q 368 393 388 388 Z M 296 244 Q 296 253 296 262 Q 296 270 297 279 Q 306 279 315 279 Q 324 278 333 277 Q 332 268 332 258 Q 332 249 331 239 Q 322 241 313 242 Q 305 243 296 244 Z M 397 232 Q 396 243 396 254 Q 395 265 396 276 Q 399 275 403 275 Q 404 272 405 269 Q 406 266 407 263 Q 408 260 409 257 Q 409 254 411 250 Q 412 251 412 252 Q 412 252 412 252 L 417 272 Q 418 273 418 274 Q 418 276 420 275 Q 422 263 421 252 Q 421 241 418 230 Q 413 231 408 231 Q 402 231 397 232 Z M 323 411 Q 332 410 340 409 Q 365 408 357 407 Q 356 404 356 402 Q 356 400 356 398 Q 352 398 348 397 Q 344 397 340 397 Q 339 385 339 373 H 329 H 319 Q 320 383 321 392 Q 322 401 323 411 Z M 364 112 Q 371 104 378 94 Q 385 85 386 80 Q 381 80 374 81 Q 367 82 359 84 Q 351 86 344 88 Q 337 91 334 93 Q 348 102 364 112 Z M 241 338 Q 241 338 241 340 L 239 359 Q 239 368 240 378 Q 241 387 243 396 Q 247 406 256 408 Q 258 409 261 410 Q 264 411 267 411 Q 267 409 267 408 Q 267 406 266 405 H 252 Q 249 387 246 371 Q 244 354 241 338 Z M 434 240 Q 434 234 434 228 Q 433 222 432 216 Q 431 215 431 214 Q 430 214 429 214 Q 425 213 422 213 Q 419 214 415 214 Q 415 216 415 218 Q 414 220 414 222 H 423 Q 424 227 425 231 Q 427 236 428 240 Z M 430 315 Q 432 311 432 308 Q 432 304 433 300 Q 432 299 431 300 Q 430 300 429 299 Q 428 299 428 298 Q 428 297 427 296 Q 426 302 428 306 Q 429 311 430 315 Z" fill="black" />
  </g>
  <g class="defect" id="01">
    <path d="M 217 373 Q 203 364 215 354" fill="none" stroke="red" stroke-width="3" />
  </g>
  <g class="defect" id="02">
    <path d="M 180 142 Q 160 158 176 140" fill="none" stroke="red" stroke-width="3" />
  </g>
  <g class="defect" id="03">
    <path d="M 340 409 Q 365 408 357 407" fill="none" stroke="red" stroke-width="3" />
  </g>
</svg>