<svg xmlns="http://www.w3.org/2000/svg" width="512" height="512" viewBox="0 0 512 512">
  <g class="glyph">
    <path d="M 421 204 Q 432 210 440 222 Q 441 223 442 224 Q 443 224 444 225 Q 452 231 457 239 Q 462 247 463 257 Q 463 260 463 264 Q 463 267 462 271 Q 459 284 451 295 Q 444 306 435 316 Q 430 314 425 311 Q 420 309 416 306 Q 416 304 416 302 Q 416 300 416 299 Q 416 299 415 298 Q 414 298 413 297 Q 412 299 411 300 Q 410 301 409 302 Q 403 299 398 295 Q 393 292 388 288 V 319 Q 393 320 398 320 Q 404 319 409 319 Q 415 320 420 319 Q 426 319 432 319 Q 433 323 433 326 Q 433 329 434 333 Q 433 334 432 334 Q 430 335 429 336 H 448 Q 449 340 450 343 Q 450 347 450 350 Q 449 351 444 353 Q 446 354 447 355 V 361 Q 449 368 442 372 Q 440 373 438 373 Q 436 374 434 375 Q 430 376 429 378 Q 434 377 439 377 Q 444 376 450 376 Q 449 380 449 383 Q 449 386 448 390 Q 429 391 410 392 Q 390 392 372 393 V 394 Q 373 395 374 395 Q 375 395 376 396 Q 382 399 387 402 Q 392 405 396 410 Q 405 420 414 427 Q 420 432 422 439 L 420 442 Q 421 442 423 442 Q 427 455 421 469 Q 416 480 406 489 L 388 502 Q 386 504 382 503 Q 379 502 376 500 Q 373 498 370 497 Q 369 501 368 502 Q 366 503 352 504 Q 339 506 319 507 Q 300 508 277 509 Q 253 510 232 511 Q 210 511 192 512 Q 174 512 165 511 Q 165 511 164 508 Q 163 509 162 510 Q 161 511 159 511 Q 145 510 132 509 Q 119 508 107 504 Q 98 501 90 497 Q 82 493 75 485 Q 72 481 69 478 Q 65 474 62 471 Q 48 460 46 442 Q 46 435 48 429 Q 50 422 54 416 Q 56 414 57 411 Q 59 409 60 406 Q 51 405 43 406 Q 34 406 25 406 Q 24 402 22 398 Q 21 394 20 389 H 8 Q 2 373 2 357 Q 2 340 5 323 Q 25 322 45 322 Q 65 322 85 322 Q 85 321 85 321 Q 84 320 83 319 Q 83 319 82 317 Q 80 316 80 314 Q 80 311 76 311 Q 74 311 71 312 Q 70 309 69 308 Q 69 306 68 303 Q 66 306 66 308 Q 66 311 66 313 Q 62 314 57 315 Q 53 315 49 316 Q 47 311 45 307 Q 44 302 42 298 Q 39 298 37 298 Q 35 298 31 299 Q 24 276 16 254 Q 8 231 0 208 Q 10 202 21 199 Q 32 196 44 194 Q 39 172 35 150 Q 30 129 26 107 Q 24 107 19 108 Q 16 104 13 98 Q 10 91 8 84 Q 5 77 4 70 Q 2 63 2 57 Q 25 48 49 38 Q 72 29 97 21 Q 98 23 99 24 Q 99 26 100 28 Q 100 25 101 24 Q 101 22 102 20 Q 109 17 116 15 Q 123 12 131 10 Q 133 14 136 19 Q 138 24 141 29 L 147 27 Q 149 30 151 32 Q 152 35 154 38 Q 160 29 166 21 Q 172 13 179 5 Q 187 11 196 17 Q 205 22 214 28 Q 223 21 232 14 Q 241 8 251 0 Q 259 6 266 15 Q 265 16 264 18 Q 263 19 262 20 L 262 21 Q 264 19 265 19 Q 266 18 268 17 Q 272 19 276 23 Q 280 27 283 31 Q 281 33 280 35 Q 280 36 280 36 Q 281 37 281 38 Q 283 38 283 38 Q 285 38 285 36 V 28 Q 298 24 311 22 Q 320 19 330 18 Q 340 17 350 18 Q 364 19 376 24 Q 388 29 398 39 Q 399 41 400 41 Q 401 42 400 44 Q 400 45 401 45 Q 402 46 403 47 Q 410 51 418 60 Q 417 61 416 63 Q 415 64 415 65 Q 415 66 415 67 Q 420 66 422 65 Q 423 66 423 66 Q 424 67 425 68 Q 430 77 433 86 Q 436 96 437 106 Q 439 120 437 134 Q 435 148 431 161 Q 429 173 426 183 Q 423 193 421 204 Z M 425 327 Q 425 327 424 326 Q 423 326 422 326 Q 409 327 397 327 Q 385 327 372 327 Q 349 327 326 328 Q 304 328 281 328 Q 258 328 235 329 Q 213 329 190 329 Q 173 329 156 329 Q 138 329 121 329 Q 105 329 90 330 Q 76 330 60 330 Q 49 330 38 330 Q 27 331 16 331 Q 15 331 14 331 Q 14 331 12 331 Q 10 344 10 357 Q 10 370 14 383 H 20 L 56 381 Q 75 380 93 380 Q 112 379 131 378 L 219 375 Q 242 374 265 373 Q 288 372 311 371 Q 329 370 347 370 Q 365 369 382 368 Q 385 368 386 368 Q 388 368 390 368 Q 388 367 386 367 Q 383 367 381 366 Q 379 366 377 366 Q 375 366 372 366 Q 370 365 368 365 Q 366 365 363 364 Q 366 363 366 363 Q 377 360 388 358 Q 400 355 410 352 Q 417 351 422 348 Q 422 348 423 347 Q 424 347 424 346 Q 424 343 421 343 Q 418 343 416 343 Q 413 343 410 343 Q 408 343 406 343 Q 405 342 402 342 Q 403 341 406 340 Q 410 337 415 335 Q 419 333 423 330 Q 425 330 425 329 Q 426 329 425 327 Z M 105 220 Q 118 222 126 229 Q 129 232 132 234 Q 135 237 138 239 Q 140 243 145 242 Q 150 241 153 241 Q 157 240 161 240 Q 177 239 191 237 Q 206 235 221 234 Q 239 233 256 232 Q 274 231 291 231 Q 305 230 320 231 Q 334 231 348 232 Q 354 232 360 232 Q 366 233 371 235 Q 379 238 382 244 Q 384 251 380 258 Q 379 260 377 261 Q 376 263 375 265 Q 379 268 382 271 Q 386 273 390 276 Q 396 268 402 261 Q 407 253 414 246 Q 414 246 414 247 Q 414 247 415 247 Q 412 266 407 286 Q 409 287 411 288 Q 413 289 415 291 Q 416 290 416 290 Q 416 289 417 289 Q 423 281 429 274 Q 434 266 437 257 Q 443 238 430 221 Q 426 215 420 212 Q 415 209 409 206 Q 398 200 386 198 Q 373 196 360 195 Q 348 194 336 194 Q 324 194 311 194 Q 293 193 276 194 Q 258 194 240 196 Q 221 197 203 199 Q 184 200 165 203 Q 144 205 123 208 Q 102 212 80 214 Q 77 215 74 215 Q 71 216 68 217 Q 70 226 73 235 Q 76 243 80 251 H 84 Q 90 251 91 245 Q 93 241 95 238 Q 97 234 99 231 Q 100 228 102 225 Q 104 223 105 220 Z M 99 399 Q 97 398 95 398 Q 94 397 92 396 Q 86 394 85 395 Q 83 395 79 399 Q 72 406 67 413 Q 61 420 58 429 Q 50 447 64 463 Q 72 472 84 477 Q 97 483 111 485 Q 125 487 139 487 Q 142 487 143 485 Q 145 481 146 478 Q 148 474 150 470 Q 151 469 151 469 Q 151 468 152 467 Q 153 473 154 478 Q 154 483 156 488 Q 204 488 251 486 Q 298 484 346 480 Q 347 477 346 476 Q 345 475 343 474 Q 338 470 333 466 Q 328 462 322 458 Q 320 456 321 453 H 316 Q 302 454 288 454 Q 275 455 261 455 Q 230 456 199 456 Q 168 455 137 453 Q 132 453 127 452 Q 124 450 123 447 Q 121 444 122 441 Q 123 438 125 435 Q 126 433 128 430 Q 129 429 130 428 Q 131 427 131 426 Q 130 422 128 419 Q 126 416 125 413 Q 125 410 123 410 Q 121 409 119 408 Q 117 407 114 406 Q 109 411 103 415 Q 97 420 89 422 Q 92 416 94 410 Q 97 405 99 399 Z M 379 435 Q 379 435 379 435 Q 383 431 387 428 Q 392 425 396 421 Q 395 417 393 416 Q 383 407 370 402 Q 359 398 348 396 Q 336 394 325 392 Q 297 388 269 388 Q 241 388 213 389 Q 193 390 173 393 Q 153 395 133 398 Q 131 398 129 399 Q 132 419 145 431 Q 146 433 149 433 Q 150 433 151 432 Q 152 432 153 432 Q 170 429 187 427 Q 203 425 220 423 Q 239 422 257 421 Q 274 421 293 421 Q 300 422 307 422 Q 314 422 322 423 Q 326 424 330 425 Q 334 426 338 429 Q 349 438 341 449 Q 338 453 335 455 Q 334 456 334 456 Q 333 457 332 457 Q 333 459 333 459 Q 340 465 348 470 Q 356 475 366 480 Q 369 481 371 479 Q 375 476 379 473 Q 383 470 387 467 Q 396 458 399 447 Q 400 444 401 441 Q 401 438 400 435 Q 395 434 390 434 Q 385 435 379 435 Z M 307 86 Q 310 85 312 84 Q 314 84 317 83 Q 320 82 322 82 Q 325 81 327 80 Q 333 79 338 78 Q 343 77 348 77 Q 356 77 361 81 Q 365 85 368 92 Q 370 102 369 114 Q 367 128 364 141 Q 361 154 358 167 Q 356 172 355 177 Q 353 181 352 186 Q 363 188 373 189 Q 383 191 394 192 Q 396 188 397 184 Q 399 180 400 176 Q 405 159 410 143 Q 414 127 415 110 Q 416 98 415 86 Q 413 75 407 64 Q 406 62 404 59 Q 387 65 372 71 V 70 L 393 46 Q 392 45 391 44 Q 390 43 389 42 Q 378 33 364 30 Q 351 26 337 28 Q 326 28 316 31 Q 305 33 294 36 Q 293 36 293 37 Q 294 49 297 62 Q 301 74 307 86 Z M 33 96 Q 33 98 35 106 Q 37 114 39 124 Q 41 135 43 147 Q 45 159 48 169 Q 50 179 52 186 Q 53 193 54 194 H 67 Q 68 198 69 202 Q 69 205 70 208 Q 75 208 78 207 Q 82 207 85 206 Q 89 205 92 205 Q 96 205 98 204 Q 95 174 91 146 Q 88 118 84 89 Q 71 88 58 90 Q 46 91 33 96 Z M 95 32 Q 74 39 53 47 Q 32 55 12 63 Q 12 68 14 73 Q 15 79 17 85 Q 19 91 21 95 Q 24 100 26 102 Q 27 99 26 97 Q 25 95 25 92 Q 26 91 28 90 Q 30 90 31 89 Q 54 80 78 82 Q 86 82 94 82 Q 102 81 109 78 Q 115 76 122 75 Q 128 73 134 72 Q 137 71 139 70 Q 140 70 143 69 Q 143 64 142 56 Q 140 49 138 41 Q 136 34 133 28 Q 131 22 128 19 Q 125 20 123 21 Q 122 22 119 22 Q 117 23 114 24 Q 112 25 110 26 V 36 Q 111 45 102 50 Q 100 45 99 41 Q 97 36 95 32 Z M 157 54 Q 179 65 200 77 Q 221 89 243 100 Q 246 98 248 97 Q 250 95 253 93 Q 255 96 258 97 Q 260 99 262 102 Q 271 91 277 79 Q 252 63 229 48 Q 206 32 181 16 Q 174 24 168 33 Q 161 43 157 54 Z M 158 145 Q 159 146 159 146 Q 160 146 161 147 Q 180 157 198 167 Q 217 177 236 187 Q 238 188 240 188 Q 246 188 252 188 Q 259 188 265 187 Q 268 187 268 186 Q 271 182 273 178 Q 275 174 277 171 Q 253 154 229 139 Q 206 123 181 107 Q 174 116 168 125 Q 162 134 158 145 Z M 210 246 Q 210 265 211 284 Q 212 303 213 321 H 258 Q 259 302 260 284 Q 260 266 261 247 Q 249 245 236 244 Q 223 244 210 246 Z M 107 319 Q 118 305 128 290 Q 139 275 150 261 Q 147 258 144 255 Q 141 252 138 249 Q 134 246 131 242 Q 128 239 124 236 Q 118 230 109 228 Q 99 245 90 263 Q 82 280 72 298 Q 80 305 89 310 Q 98 315 107 319 Z M 10 214 Q 18 234 24 254 Q 31 273 38 293 Q 41 293 44 292 Q 44 285 45 279 Q 45 272 46 266 Q 51 267 53 268 Q 55 268 56 273 Q 57 277 58 280 Q 58 282 59 284 Q 59 285 60 287 Q 62 287 64 286 Q 65 286 66 285 Q 77 282 75 271 Q 75 267 74 263 Q 73 260 72 256 Q 71 252 70 247 Q 69 242 67 238 Q 65 232 63 226 Q 62 220 59 214 Q 59 213 59 211 Q 60 211 62 209 Q 62 207 62 205 Q 61 204 60 201 Q 48 202 35 205 Q 23 207 10 214 Z M 362 271 Q 354 270 339 269 Q 324 268 309 268 Q 293 268 281 268 Q 270 268 267 269 Q 267 278 267 287 Q 266 297 265 307 Q 289 306 314 306 Q 338 305 362 305 Q 365 288 362 271 Z M 205 308 Q 204 297 204 287 Q 204 277 203 267 Q 202 267 202 267 Q 201 266 201 266 L 159 265 Q 156 265 154 268 Q 149 275 143 283 Q 138 290 132 298 Q 130 300 131 304 Q 131 306 132 309 H 162 Q 165 309 167 305 Q 169 301 171 296 Q 172 291 174 287 Q 174 287 177 284 Q 178 290 180 296 Q 181 302 184 308 Z M 362 104 Q 346 101 330 99 Q 314 97 298 95 Q 295 104 295 113 Q 294 123 295 132 H 359 Q 360 125 362 118 Q 363 111 362 104 Z M 294 183 Q 307 182 320 182 Q 333 181 346 181 Q 349 173 351 166 Q 353 158 355 150 Q 352 150 349 150 Q 346 150 343 149 Q 340 149 338 152 Q 336 154 334 157 Q 344 179 329 163 Q 328 164 326 166 Q 325 161 325 157 Q 325 152 324 148 Q 316 147 309 147 Q 302 146 295 146 Q 290 164 294 183 Z M 222 125 Q 232 131 241 138 Q 251 144 260 150 Q 265 147 269 144 Q 273 142 278 139 Q 273 128 267 119 Q 261 110 253 102 Z M 139 128 Q 139 120 139 113 Q 138 106 136 99 Q 125 100 114 100 Q 104 99 93 100 Q 94 109 95 117 Q 96 126 97 134 Z M 103 189 Q 112 188 121 187 Q 130 185 138 184 Q 140 169 136 155 Q 126 156 117 155 Q 108 155 99 156 Q 100 165 101 173 Q 102 180 103 189 Z M 158 171 Q 159 174 161 177 Q 162 180 164 183 Q 165 185 167 187 Q 169 190 170 192 Q 172 194 174 194 Q 181 194 188 192 Q 195 190 201 186 Q 202 185 203 184 Q 205 184 206 183 L 208 181 Q 199 176 190 171 Q 181 166 172 161 Q 169 164 165 166 Q 162 168 158 171 Z M 173 105 Q 176 103 177 102 Q 179 100 181 99 Q 182 99 183 100 Q 184 100 186 102 Q 187 103 189 102 Q 194 99 199 96 Q 204 93 210 90 Q 200 85 191 80 Q 183 75 173 71 Q 172 70 171 71 Q 164 76 158 79 Q 161 86 165 93 Q 170 101 173 105 Z M 372 256 Q 347 255 323 255 Q 299 255 275 257 Q 277 257 277 257 Q 279 258 281 258 Q 284 259 285 260 Q 287 261 291 261 Q 300 262 309 262 Q 318 262 327 262 Q 336 262 346 262 Q 355 262 364 263 Q 367 263 369 261 Q 370 260 370 259 Q 371 258 372 256 Z M 260 59 Q 264 56 269 53 Q 273 50 279 47 Q 276 43 274 39 Q 272 35 270 31 Q 261 34 254 37 Q 246 40 237 43 Q 242 48 248 51 Q 254 55 260 59 Z M 234 42 Q 240 36 246 30 Q 252 24 258 17 Q 256 15 255 14 Q 253 12 252 11 Q 245 17 237 22 Q 230 28 222 34 Q 225 36 228 38 Q 231 40 234 42 Z M 143 99 Q 144 102 144 104 Q 145 107 145 110 H 159 Q 159 112 160 115 Q 161 118 162 121 Q 166 116 169 112 L 158 96 Q 151 97 143 99 Z M 228 449 Q 241 449 254 449 Q 266 449 279 448 Q 289 448 299 447 Q 309 447 320 447 Q 324 447 325 445 Q 317 444 302 444 Q 288 444 272 444 Q 255 445 241 446 Q 227 447 222 449 Z M 164 157 Q 159 153 154 153 Q 150 152 144 154 Q 144 157 145 160 Q 145 162 145 164 Q 151 167 156 164 Q 160 160 164 157 Z M 300 87 Q 298 84 297 80 Q 295 77 294 74 Q 291 76 289 77 Q 286 79 284 80 Q 288 83 291 86 Q 294 89 300 87 Z M 382 280 Q 382 280 382 280 Q 382 280 382 279 Q 380 277 376 275 Q 373 273 370 270 Q 370 274 371 280 Q 373 280 375 280 Q 378 280 380 280 Z M 287 123 Q 285 124 285 125 Q 285 125 288 127 Q 288 126 288 125 Q 287 124 287 123 Z" fill="black" />
  </g>
  <g class="defect" id="01">
    <path d="M 334 157 Q 344 179 329 163" fill="none" stroke="red" stroke-width="3" />
  </g>
</svg>