<svg xmlns="http://www.w3.org/2000/svg" width="512" height="512" viewBox="0 0 512 512">
  <g class="glyph">
    <path d="M 461 84 Q 460 88 460 92 Q 460 95 460 100 Q 459 103 459 108 Q 459 113 456 113 Q 452 116 450 117 Q 452 117 454 117 Q 456 118 458 118 Q 458 128 457 139 Q 457 149 456 160 H 469 Q 470 164 471 169 Q 472 173 473 177 H 487 Q 488 180 488 182 Q 489 184 489 186 Q 490 196 491 205 Q 491 214 489 223 Q 489 226 489 227 Q 486 228 486 229 Q 487 231 487 233 Q 487 235 487 236 Q 488 238 488 241 Q 491 241 495 241 Q 498 241 503 241 Q 506 255 506 269 Q 507 283 504 297 Q 501 298 496 298 Q 496 304 495 311 Q 495 318 495 324 Q 495 332 489 335 Q 488 336 487 337 Q 485 338 483 339 Q 487 340 489 340 Q 491 340 494 340 Q 494 361 493 381 Q 492 401 491 422 H 503 Q 507 434 507 447 Q 508 459 507 471 Q 503 472 500 472 Q 497 472 494 472 Q 490 473 490 477 Q 489 483 489 489 Q 489 495 489 501 Q 489 502 489 502 Q 485 504 479 504 Q 472 505 465 505 Q 457 504 450 504 Q 443 503 439 501 V 488 Q 436 487 433 486 Q 430 486 427 485 Q 423 484 423 484 Q 422 483 421 479 Q 402 481 383 483 Q 365 485 346 487 Q 345 482 344 478 Q 343 473 341 469 H 334 Q 333 477 333 485 Q 332 494 332 503 Q 322 505 313 505 Q 312 503 312 501 Q 311 500 309 500 Q 306 501 305 503 Q 304 508 301 512 Q 300 510 300 509 Q 300 507 300 505 Q 296 504 291 503 Q 287 503 283 502 V 488 Q 278 487 273 486 Q 268 486 264 482 Q 245 485 225 488 Q 205 491 185 495 Q 183 490 181 485 Q 180 481 178 476 Q 176 476 173 476 Q 170 477 168 477 Q 165 471 163 466 Q 162 460 161 454 Q 165 451 168 449 Q 172 447 175 445 V 444 Q 171 445 168 445 Q 164 445 159 446 Q 158 439 159 432 Q 159 425 159 418 Q 167 416 174 416 Q 181 416 189 414 Q 188 404 187 394 Q 187 383 185 373 H 184 Q 184 381 183 389 Q 183 396 182 404 Q 176 406 169 406 Q 163 405 157 406 Q 157 408 158 410 Q 158 412 158 415 Q 154 417 151 418 Q 147 420 144 421 Q 133 425 123 428 Q 112 430 101 431 Q 65 432 42 405 Q 40 402 36 399 Q 27 392 21 383 Q 16 374 11 364 Q 4 344 2 324 Q 1 305 0 287 Q 0 268 1 249 Q 1 237 1 225 Q 2 213 2 201 L 7 143 Q 8 132 9 122 Q 10 112 11 103 Q 12 100 12 99 Q 12 97 12 95 Q 16 94 21 93 Q 27 93 31 94 Q 31 97 32 100 Q 32 103 32 106 H 33 Q 34 104 36 100 Q 37 97 38 93 Q 42 94 46 95 Q 49 95 53 96 Q 59 98 63 94 Q 72 90 80 87 Q 88 85 98 85 Q 126 84 145 107 Q 149 111 151 113 Q 163 121 169 136 Q 172 141 174 146 Q 176 151 178 157 Q 174 159 171 161 Q 168 163 165 165 Q 165 165 166 165 H 180 Q 181 168 181 171 Q 182 174 182 176 H 183 Q 184 174 184 171 Q 184 169 185 165 Q 193 165 200 165 Q 208 165 215 165 Q 213 140 210 117 Q 208 93 206 68 H 193 Q 188 51 188 34 Q 188 17 191 0 Q 254 0 314 3 Q 375 6 436 9 Q 436 11 436 12 Q 437 14 437 15 Q 438 14 439 12 Q 439 11 440 10 H 450 Q 452 10 455 10 Q 457 10 460 11 Q 460 15 461 19 Q 462 23 462 28 Q 466 28 469 28 Q 473 28 477 28 Q 480 42 479 56 Q 478 69 476 84 Z M 18 101 Q 16 121 14 142 Q 12 162 10 182 Q 8 208 8 234 Q 7 260 7 286 Q 7 299 8 311 Q 9 324 11 336 Q 13 347 16 357 Q 20 367 25 376 Q 42 402 72 406 Q 81 407 90 406 Q 99 405 108 402 Q 114 400 120 398 Q 126 396 132 393 Q 130 381 126 371 Q 122 360 116 350 Q 114 351 113 351 Q 111 351 110 352 Q 105 353 100 355 Q 95 357 90 358 Q 67 361 61 341 Q 61 338 56 337 Q 51 337 46 336 Q 41 336 36 335 L 27 334 V 333 Q 34 330 42 327 Q 50 324 58 322 Q 57 268 62 215 Q 66 163 75 110 Q 67 107 59 105 Q 52 103 43 102 Q 41 107 39 113 Q 37 118 35 123 Q 33 129 31 134 Q 30 139 27 144 Q 27 144 27 144 Q 26 133 25 122 Q 25 112 25 101 Z M 119 341 Q 120 343 121 344 Q 121 345 123 347 Q 131 362 137 381 Q 142 381 147 381 Q 152 381 157 380 V 376 Q 158 353 160 330 Q 161 306 162 283 Q 162 259 162 234 Q 161 210 159 185 Q 159 178 158 170 Q 157 162 156 155 Q 146 155 136 156 Q 127 156 117 156 Q 126 150 134 146 Q 138 143 143 141 Q 147 138 151 136 Q 140 100 114 93 Q 103 89 91 91 Q 80 93 69 99 Q 73 101 76 102 Q 80 104 83 105 Q 81 118 79 130 Q 77 142 75 154 Q 74 158 75 159 Q 75 161 80 163 Q 81 162 81 162 Q 81 161 82 161 Q 85 158 87 156 Q 90 154 93 152 Q 98 148 101 154 Q 101 155 102 158 Q 104 165 105 173 Q 107 180 108 188 Q 111 232 113 276 Q 114 291 114 306 Q 113 321 113 336 V 341 Q 116 342 119 341 Z M 458 168 Q 452 168 446 168 Q 439 168 433 168 Q 418 169 404 169 Q 389 169 374 169 Q 360 170 345 170 Q 330 170 316 170 Q 300 170 286 171 Q 271 171 256 171 Q 243 171 230 171 Q 217 171 204 172 H 190 Q 187 183 188 197 Q 189 210 192 218 Q 215 217 237 216 Q 259 214 282 213 Q 305 212 327 211 Q 350 209 373 208 Q 395 207 418 206 Q 440 204 463 203 Q 467 186 463 168 Z M 429 16 Q 371 12 313 10 Q 256 7 197 7 Q 195 21 194 34 Q 194 47 198 61 Q 200 61 201 60 Q 203 60 204 60 Q 204 56 204 52 Q 204 48 203 44 Q 210 42 219 40 Q 228 39 238 39 Q 248 39 257 39 Q 266 40 272 42 V 59 H 452 Q 454 48 455 38 Q 455 28 453 17 H 444 Q 443 20 442 22 Q 441 24 440 27 Q 439 31 435 31 Q 431 30 430 25 Q 430 23 430 21 Q 430 18 429 16 Z M 470 412 Q 455 412 439 412 Q 423 413 407 413 Q 389 414 371 414 Q 353 414 335 414 Q 332 414 332 415 Q 331 416 330 419 Q 330 425 330 430 Q 330 434 330 440 Q 330 445 330 450 Q 331 456 334 461 Q 371 458 408 455 Q 444 451 482 447 Q 483 438 482 430 Q 482 421 479 412 Z M 322 231 Q 286 230 251 229 Q 216 229 180 228 Q 178 239 177 250 Q 176 261 178 273 Q 178 270 179 269 Q 181 268 183 267 Q 193 265 201 264 Q 210 264 220 264 Q 225 265 230 265 Q 235 266 240 268 V 277 Q 261 276 282 275 Q 303 274 323 273 Q 324 262 324 252 Q 324 242 322 231 Z M 397 278 Q 418 277 438 275 Q 459 274 479 273 Q 483 252 478 232 Q 442 231 407 230 Q 373 229 337 228 Q 336 232 335 238 Q 335 245 334 251 Q 334 257 334 262 Q 334 267 335 270 Q 364 261 396 268 Q 396 271 396 273 Q 396 275 397 278 Z M 321 404 Q 282 409 244 415 Q 205 420 166 423 V 437 Q 175 435 183 434 Q 191 433 201 432 Q 193 439 185 445 Q 177 451 168 457 L 171 468 Q 210 462 247 455 Q 285 448 323 439 V 433 Q 323 429 323 425 Q 323 421 324 417 Q 324 411 321 404 Z M 195 413 Q 204 412 213 411 Q 222 411 232 409 V 274 Q 227 273 220 272 Q 214 272 207 272 Q 200 272 194 273 Q 189 273 187 275 Q 188 309 190 344 Q 192 378 195 413 Z M 265 48 Q 251 45 238 45 Q 225 46 211 50 Q 214 79 216 108 Q 219 136 222 164 H 265 Z M 389 274 Q 377 272 366 272 Q 355 272 343 275 Q 344 292 345 310 Q 346 328 347 345 H 361 Q 368 345 366 351 Q 365 353 364 354 Q 363 355 362 356 Q 356 360 352 363 Q 348 366 348 370 Q 349 375 349 379 Q 349 383 350 387 Q 350 392 351 397 Q 351 402 351 408 Q 361 407 370 407 Q 379 407 389 407 Z M 268 283 Q 269 314 269 344 Q 270 373 270 404 Q 280 402 290 401 Q 300 400 310 398 Q 311 368 312 339 Q 313 310 314 280 Q 302 281 291 282 Q 280 282 268 283 Z M 466 405 Q 467 386 468 367 Q 468 348 469 329 Q 463 329 458 329 Q 452 329 446 328 Q 448 327 449 326 Q 449 325 450 324 Q 455 321 459 318 Q 463 315 467 311 Q 470 309 470 305 Q 470 301 471 297 Q 471 293 471 289 V 280 Q 459 281 448 281 Q 437 282 425 283 Q 426 313 426 344 Q 426 374 427 405 Q 437 405 446 405 Q 456 405 466 405 Z M 404 109 Q 405 107 406 107 Q 414 101 424 95 Q 427 94 430 93 Q 433 92 434 89 Q 435 87 435 83 Q 436 80 436 77 V 67 Q 423 67 410 66 Q 397 66 384 67 V 162 Q 387 162 394 162 Q 401 162 408 162 Q 415 162 422 161 Q 428 161 430 161 Q 431 147 431 134 Q 432 121 433 108 Q 426 108 418 108 Q 411 108 404 109 Z M 91 187 Q 87 226 84 265 Q 81 304 83 344 Q 81 344 79 345 Q 78 346 75 347 Q 78 348 81 348 Q 84 348 85 351 Q 86 351 87 351 Q 92 350 97 349 Q 102 348 107 345 Q 108 306 107 267 Q 105 228 101 188 Q 99 190 98 190 Q 95 189 94 188 Q 93 188 91 187 Z M 272 153 H 290 Q 307 153 324 153 Q 342 152 359 152 Q 362 152 364 152 Q 367 135 363 121 Q 340 123 317 125 Q 295 126 272 128 Z M 363 105 Q 366 98 366 88 Q 366 79 363 75 Q 341 75 318 76 Q 295 76 272 78 V 103 Q 277 103 282 103 Q 287 103 292 103 Q 295 98 297 93 Q 299 88 302 84 Q 304 89 306 94 Q 308 99 309 104 Q 323 104 337 104 Q 350 105 363 105 Z M 428 478 Q 436 480 448 480 Q 459 481 464 478 Q 464 473 464 468 Q 464 462 464 456 Q 445 458 428 459 Z M 239 392 Q 244 393 247 393 Q 251 393 255 394 Q 257 384 257 374 Q 257 364 254 355 Q 250 356 246 356 Q 242 356 239 357 Z M 411 394 Q 413 384 413 374 Q 402 364 411 355 Q 407 356 403 356 Q 400 356 396 356 V 392 Q 400 393 404 393 Q 407 393 411 394 Z M 411 337 Q 414 317 410 299 Q 406 299 403 300 Q 400 300 396 300 V 336 Q 400 336 403 337 Q 406 337 411 337 Z M 254 337 Q 255 328 255 318 Q 255 308 253 299 Q 249 299 246 300 Q 242 300 239 300 Q 239 309 238 318 Q 238 327 239 336 Q 244 336 247 337 Q 250 337 254 337 Z M 344 407 Q 344 406 344 405 Q 343 404 343 402 Q 343 393 342 384 Q 342 375 341 367 Q 341 362 345 359 Q 348 357 354 352 Q 349 351 346 351 Q 343 351 341 350 Q 340 347 340 344 Q 340 341 340 338 Q 339 335 339 332 Q 339 329 338 327 Q 337 347 337 367 Q 336 387 335 407 Z M 384 215 Q 385 217 386 218 Q 388 219 389 219 Q 396 219 404 219 Q 411 220 418 220 Q 419 220 421 219 Q 423 219 426 219 V 212 Q 415 213 405 214 Q 395 214 384 215 Z M 308 451 Q 303 452 300 453 Q 301 460 301 466 Q 301 473 302 480 Q 303 479 308 479 Z M 276 478 Q 277 472 278 468 Q 279 463 279 457 Q 275 458 271 459 V 475 Q 272 477 272 478 Q 273 478 276 478 Z M 290 475 Q 291 470 291 465 Q 291 459 292 455 Q 290 455 288 455 Q 287 456 285 456 Q 286 460 287 465 Q 287 470 289 475 Z M 373 131 Q 375 133 377 130 H 373 Z M 373 85 H 376 V 83 Q 375 84 373 84 Z" fill="black" />
  </g>
  <g class="defect" id="01">
    <path d="M 413 374 Q 402 364 411 355" fill="none" stroke="red" stroke-width="3" />
  </g>
</svg>