<svg xmlns="http://www.w3.org/2000/svg" width="512" height="512" viewBox="0 0 512 512">
  <g class="glyph">
    <path d="M 45 424 Q 43 418 40 413 Q 38 409 36 404 Q 32 405 27 405 Q 26 403 24 400 Q 23 397 22 394 Q 20 391 19 388 Q 17 385 16 382 Q 14 382 12 382 Q 10 382 8 383 Q 7 380 6 377 Q 6 375 6 372 V 371 Q 6 370 6 370 Q 9 368 8 366 Q 6 363 6 361 Q 5 353 5 346 Q 4 339 3 331 V 327 Q 18 324 33 320 Q 47 317 63 314 Q 61 292 60 271 Q 58 250 57 229 H 48 Q 47 226 46 223 Q 46 220 46 217 H 45 Q 44 220 43 223 Q 43 226 42 228 H 22 Q 21 224 20 220 Q 20 215 19 211 H 5 Q 0 189 1 169 Q 2 148 8 127 Q 19 128 29 129 Q 39 130 50 130 Q 48 109 47 88 Q 46 67 45 45 Q 65 39 86 39 Q 107 39 129 43 V 57 L 146 60 V 116 Q 142 117 138 118 Q 134 120 130 121 V 121 Q 134 122 137 123 Q 141 124 145 125 V 140 Q 152 141 160 142 Q 167 142 174 143 Q 177 147 176 151 Q 176 155 177 159 Q 181 159 185 160 Q 188 160 192 161 Q 193 164 194 166 Q 197 151 199 137 Q 202 123 205 108 Q 208 94 211 79 Q 214 65 217 51 Q 226 50 234 51 Q 242 52 260 55 Q 259 52 258 48 Q 257 45 256 41 Q 255 38 254 34 Q 254 31 253 27 Q 254 26 255 25 Q 256 25 257 25 Q 296 8 339 2 Q 353 0 367 1 Q 382 1 396 5 Q 423 13 440 33 Q 443 37 446 39 Q 458 50 465 62 Q 473 74 478 89 Q 493 121 486 118 Q 488 132 489 147 Q 474 163 491 178 Q 492 194 492 211 V 217 Q 495 217 499 217 Q 502 218 506 218 Q 512 252 506 285 Q 501 286 498 286 Q 494 286 490 286 Q 489 311 486 334 Q 484 357 481 381 Q 478 404 474 428 Q 470 451 465 474 Q 447 475 431 471 Q 424 469 417 467 Q 410 465 402 462 Q 399 461 395 462 Q 378 467 360 470 Q 342 473 324 473 Q 307 473 291 470 Q 275 467 260 460 Q 242 451 229 436 Q 228 434 227 433 Q 226 432 225 431 Q 204 413 192 384 Q 191 383 191 382 Q 191 381 190 380 Q 190 380 189 379 Q 154 392 118 402 Q 82 413 45 424 Z M 442 450 Q 446 432 448 418 Q 459 362 463 304 Q 467 259 468 215 Q 468 202 468 191 Q 468 179 467 167 Q 467 153 466 139 Q 465 125 463 111 Q 460 97 457 84 Q 453 71 447 59 Q 438 41 425 30 Q 412 18 394 12 Q 383 9 371 8 Q 360 7 349 8 Q 327 10 306 16 Q 285 21 264 30 Q 263 30 263 31 Q 262 31 261 32 Q 265 49 272 64 Q 279 79 290 93 H 292 Q 292 93 294 92 Q 308 86 321 82 Q 335 78 349 75 Q 362 74 372 74 Q 384 76 388 85 Q 390 89 392 92 Q 394 96 395 100 Q 399 114 402 128 Q 404 142 405 156 Q 408 211 406 264 Q 405 289 404 314 Q 403 338 400 363 Q 413 397 395 398 Q 392 416 390 433 Q 389 434 389 436 Q 389 438 389 439 Q 402 444 415 447 Q 428 450 442 450 Z M 384 378 Q 371 383 359 386 Q 346 389 332 391 Q 321 392 311 392 Q 300 392 290 390 Q 264 386 256 362 Q 250 348 250 334 Q 249 320 250 306 Q 250 292 252 278 V 273 Q 236 273 220 273 Q 205 273 189 275 V 278 Q 188 289 188 299 Q 187 310 188 321 Q 188 338 191 353 Q 194 369 200 384 Q 215 421 250 438 Q 262 444 276 446 Q 289 448 303 448 Q 332 448 360 442 Q 366 440 371 439 Q 376 438 381 437 Q 382 434 383 431 Q 384 422 385 413 Q 387 404 388 395 Q 391 387 384 378 Z M 125 301 Q 125 300 125 299 Q 125 297 125 296 Q 125 287 125 278 Q 124 269 124 259 Q 123 243 123 227 Q 123 212 122 196 Q 122 177 121 157 Q 121 138 121 119 V 114 Q 111 111 101 108 Q 92 106 83 103 V 102 Q 102 99 122 93 V 50 Q 115 48 106 47 Q 96 46 86 46 Q 76 46 67 48 Q 58 49 53 52 Q 60 182 71 313 Q 85 310 98 307 Q 111 304 125 301 Z M 174 198 Q 171 216 170 233 Q 170 250 174 268 Q 221 266 267 266 Q 313 265 360 264 Q 364 251 369 240 Q 373 228 377 216 H 378 Q 379 228 380 240 Q 380 251 381 263 H 399 Q 400 248 400 234 Q 399 219 399 205 Q 288 202 174 198 Z M 31 398 Q 68 387 105 376 Q 142 366 178 352 Q 177 338 173 325 Q 169 312 164 299 Q 125 308 87 316 Q 49 325 10 333 Q 11 340 11 346 Q 12 353 13 359 Q 15 359 16 359 Q 17 359 18 358 Q 24 357 30 356 Q 36 354 41 353 Q 48 352 48 355 Q 50 358 45 360 Q 42 362 39 363 Q 34 366 30 367 Q 25 369 20 372 Q 19 372 18 373 Q 17 373 16 374 V 374 Q 23 373 30 372 Q 38 371 45 369 Q 45 370 45 370 Q 46 370 46 371 Q 40 375 36 378 Q 31 381 25 385 Q 27 388 28 391 Q 30 394 31 398 Z M 224 58 Q 222 64 220 76 Q 217 87 214 101 Q 212 115 209 129 Q 206 144 204 157 Q 201 170 200 179 Q 199 188 199 192 Q 215 192 232 193 Q 248 193 264 194 V 192 Q 269 169 273 146 Q 278 123 284 100 Q 285 97 283 95 Q 280 90 277 86 Q 274 81 271 76 Q 269 74 268 70 Q 267 66 263 64 Q 260 62 256 62 Q 253 61 249 60 Q 243 59 237 58 Q 230 58 224 58 Z M 366 346 Q 357 329 348 313 Q 339 297 329 282 Q 313 290 299 300 Q 285 310 275 324 Q 286 337 297 350 Q 309 362 320 376 Q 333 370 344 363 Q 355 355 366 346 Z M 332 160 Q 340 154 347 148 Q 355 142 362 135 Q 360 128 358 120 Q 356 113 354 105 Q 336 109 320 115 Q 304 121 290 131 Q 298 146 306 162 Q 314 177 323 192 Q 350 187 373 172 Q 372 167 370 163 Q 369 159 368 154 Q 359 156 350 158 Q 342 159 333 161 Z M 54 204 Q 54 202 54 192 Q 53 181 52 170 Q 52 159 51 149 Q 50 139 50 138 Q 41 137 32 136 Q 24 136 15 135 Q 12 142 10 152 Q 9 162 9 171 Q 8 181 9 190 Q 9 198 11 204 H 19 Q 22 193 23 182 Q 25 172 27 161 H 29 Q 31 172 33 183 Q 34 193 36 204 Z M 128 145 Q 129 160 129 175 Q 129 189 130 203 H 165 Q 167 198 168 190 Q 170 183 170 175 Q 170 167 170 160 Q 170 153 169 149 Q 159 148 149 147 Q 139 146 128 145 Z M 349 290 Q 361 308 371 327 Q 382 346 392 365 Q 389 368 388 369 Q 389 371 390 372 Q 390 373 391 374 Q 394 352 396 331 Q 398 310 399 289 Q 397 288 396 288 Q 395 288 393 287 Q 392 283 392 279 Q 391 275 391 270 Q 390 270 390 270 Q 387 274 386 279 Q 385 283 382 287 Q 373 288 363 288 Q 353 288 342 289 Q 345 292 346 291 Q 347 290 349 290 Z M 147 229 Q 148 246 148 262 Q 149 278 149 295 Q 155 294 159 293 Q 164 292 169 291 Q 171 296 173 301 Q 175 306 177 311 Q 180 311 180 306 Q 181 299 181 292 Q 181 285 181 278 V 275 H 169 Q 165 263 164 252 Q 163 241 163 229 Z M 398 189 Q 399 189 399 188 Q 398 166 397 143 Q 395 121 387 99 Q 382 98 374 99 Q 367 99 360 101 Q 361 105 362 108 Q 363 112 364 116 Q 371 115 376 114 Q 380 124 383 135 Q 385 145 388 155 Q 386 157 383 159 Q 380 161 378 165 Q 384 164 390 163 Q 392 170 394 176 Q 396 183 398 189 Z M 275 336 Q 273 357 280 377 Q 280 381 285 382 Q 292 383 299 384 Q 305 384 312 384 Q 313 384 314 384 Q 315 384 318 384 Q 307 371 296 359 Q 286 347 275 336 Z M 482 261 Q 485 247 485 234 Q 485 221 482 208 H 475 Q 475 221 475 234 Q 474 247 474 261 Z M 316 194 Q 312 187 308 179 Q 304 171 299 164 Q 299 164 299 164 Q 297 172 296 179 Q 294 187 292 194 Z M 275 311 Q 281 305 286 300 Q 292 296 298 290 H 277 Q 276 296 276 300 Q 276 305 275 311 Z M 400 197 Q 399 196 399 195 Q 399 194 399 193 Q 397 194 396 194 Q 395 195 394 197 Z" fill="black" />
  </g>
  <g class="defect" id="01">
    <path d="M 478 89 Q 493 121 486 118" fill="none" stroke="red" stroke-width="3" />
  </g>
  <g class="defect" id="02">
    <path d="M 489 147 Q 474 163 491 178" fill="none" stroke="red" stroke-width="3" />
  </g>
  <g class="defect" id="03">
    <path d="M 400 363 Q 413 397 395 398" fill="none" stroke="red" stroke-width="3" />
  </g>
</svg>