<svg xmlns="http://www.w3.org/2000/svg" width="512" height="512" viewBox="0 0 512 512">
  <g class="glyph">
    <path d="M 476 475 Q 458 474 441 469 Q 425 463 409 455 Q 410 453 410 450 Q 410 450 411 446 Q 406 444 401 441 Q 396 439 391 437 Q 393 431 394 426 Q 396 420 397 415 Q 403 390 407 366 Q 411 342 412 316 Q 412 304 411 292 Q 410 280 407 267 Q 407 265 406 262 Q 405 263 403 273 Q 400 282 396 296 Q 374 294 388 329 Q 384 347 380 368 Q 374 395 369 422 Q 364 448 358 476 Q 350 477 342 476 Q 333 476 325 475 Q 325 470 325 467 Q 326 463 326 459 Q 321 458 320 459 Q 319 459 317 463 Q 315 465 314 467 Q 313 470 312 472 L 289 466 Q 289 462 290 459 Q 290 457 290 453 Q 285 452 281 450 Q 276 449 271 447 Q 272 440 273 434 Q 274 427 275 421 Q 279 397 282 374 Q 285 351 289 327 Q 292 314 294 301 Q 296 288 299 275 Q 300 271 299 268 Q 299 264 296 261 Q 296 261 295 259 Q 292 260 291 261 Q 289 259 288 257 Q 287 256 285 254 Q 276 313 268 370 Q 261 427 254 486 Q 251 487 247 487 Q 244 488 241 488 Q 238 488 234 488 Q 231 488 229 488 Q 227 488 224 485 Q 219 482 212 484 Q 210 485 207 486 Q 207 484 207 481 Q 206 479 206 476 Q 205 479 204 481 Q 204 482 203 484 Q 197 483 193 482 Q 191 482 188 481 Q 186 481 184 479 V 466 Q 179 465 175 464 Q 170 463 166 462 Q 167 444 168 427 Q 169 410 170 392 Q 139 401 109 410 Q 78 420 47 429 Q 43 424 41 419 Q 39 414 36 408 Q 35 409 33 409 Q 31 410 29 410 Q 24 404 22 399 Q 20 393 17 385 Q 15 386 12 386 Q 10 387 8 387 Q 8 384 7 381 Q 7 378 6 376 V 374 Q 9 372 8 370 Q 8 368 7 366 Q 6 358 5 350 Q 4 342 3 334 V 330 Q 18 326 34 323 Q 49 320 65 316 Q 74 277 61 273 Q 60 251 58 229 H 49 Q 48 226 48 223 Q 47 220 47 217 H 46 Q 45 219 44 222 Q 44 225 43 228 H 23 Q 22 224 21 219 Q 20 215 19 211 H 5 Q 3 204 1 194 Q 0 184 1 172 Q 1 160 3 147 Q 5 135 8 124 Q 19 124 29 126 Q 40 127 50 128 Q 49 105 48 84 Q 47 62 46 40 Q 67 33 88 33 Q 110 33 132 37 V 52 Q 137 53 141 54 Q 146 55 150 56 V 112 Q 146 113 141 115 Q 137 116 133 117 V 118 Q 137 119 141 120 Q 145 121 149 122 V 137 Q 157 138 165 139 Q 172 140 180 140 Q 181 144 181 148 Q 181 151 182 156 Q 185 157 188 157 Q 191 157 194 158 Q 196 140 198 122 Q 200 105 202 86 H 189 Q 183 64 184 43 Q 184 22 189 0 Q 209 1 229 1 Q 248 2 268 3 Q 269 7 270 11 Q 271 14 272 18 Q 275 15 276 11 Q 276 8 279 4 Q 332 8 385 12 Q 438 16 491 21 Q 491 23 492 25 Q 492 27 492 29 Q 492 30 492 32 Q 492 34 493 37 Q 500 38 509 39 Q 512 56 510 73 Q 509 91 504 109 Q 477 108 449 107 Q 421 106 393 105 Q 393 106 392 106 Q 400 109 406 112 Q 413 115 420 119 Q 420 121 419 123 Q 419 125 418 127 Q 423 129 428 132 Q 433 134 439 137 Q 436 145 434 153 Q 431 162 428 170 Q 429 172 431 172 Q 432 172 433 173 Q 447 182 459 195 Q 460 198 464 200 Q 470 206 475 211 Q 479 217 484 223 Q 483 225 482 227 Q 484 227 486 226 Q 490 233 493 240 Q 496 248 499 256 Q 502 267 503 277 Q 504 287 504 298 Q 506 323 504 346 Q 502 370 497 394 Q 493 413 488 432 Q 483 452 477 471 Q 477 472 476 475 Z M 222 385 Q 220 404 219 424 Q 217 444 216 463 Q 219 463 223 463 Q 226 463 229 462 Q 230 449 232 437 Q 233 425 235 412 Q 238 390 241 369 Q 244 347 246 326 Q 250 301 253 276 Q 257 250 261 225 Q 262 218 262 211 Q 262 204 260 197 Q 258 193 258 190 Q 258 186 257 182 Q 260 181 261 180 Q 262 180 264 179 Q 268 178 269 173 Q 272 156 275 139 Q 277 122 280 105 Q 281 102 281 98 Q 281 94 282 91 Q 276 89 272 87 Q 268 86 262 86 Q 250 86 239 87 Q 227 87 216 87 Q 213 87 211 87 Q 210 92 210 96 Q 210 100 209 104 Q 206 131 203 158 Q 200 185 197 211 Q 194 237 192 262 Q 189 287 186 312 Q 186 318 186 323 Q 186 328 188 334 Q 189 339 189 340 Q 190 346 191 351 Q 192 356 192 362 Q 190 363 189 363 Q 187 363 186 364 Q 183 365 182 366 Q 181 368 181 371 Q 179 390 178 409 Q 176 427 174 446 Q 174 449 174 452 Q 174 454 174 457 Q 175 458 177 458 Q 179 458 180 458 Q 185 443 194 430 Q 194 438 195 445 Q 195 452 197 459 Q 198 459 199 459 Q 200 458 201 458 Q 205 440 208 421 Q 211 403 215 384 H 218 Q 220 384 222 385 Z M 343 105 Q 323 189 306 273 Q 290 357 279 443 Q 282 444 285 444 Q 287 445 290 446 Q 299 429 306 413 Q 313 396 319 379 Q 320 379 320 380 Q 319 397 317 415 Q 315 433 314 450 Q 319 451 324 452 Q 329 452 334 451 Q 350 368 369 286 Q 388 205 412 124 Q 406 120 397 116 Q 388 112 378 110 Q 368 107 359 106 Q 350 104 343 105 Z M 197 8 Q 192 26 192 43 Q 191 61 195 79 Q 268 78 339 79 Q 409 80 481 83 Q 484 69 485 55 Q 486 42 485 28 Q 434 23 384 19 Q 334 15 284 12 Q 281 21 278 29 Q 275 36 271 44 Q 270 44 270 43 Q 268 35 267 27 Q 265 20 263 11 Q 246 10 230 10 Q 213 9 197 8 Z M 129 298 Q 129 293 128 288 Q 128 283 128 278 Q 127 258 126 239 Q 126 219 125 199 L 124 124 Q 124 121 124 117 Q 124 114 123 111 Q 113 108 104 106 Q 94 103 84 100 V 99 Q 94 97 104 94 Q 114 92 124 90 V 44 Q 106 41 89 41 Q 72 41 54 46 Q 54 48 54 60 Q 55 72 56 91 Q 57 110 58 133 Q 60 157 61 181 Q 63 206 65 229 Q 67 253 68 271 Q 69 290 71 302 Q 72 314 73 315 Q 87 312 101 309 Q 115 306 129 303 Z M 400 432 Q 403 435 411 438 Q 418 441 426 443 Q 434 446 441 447 Q 448 448 453 448 Q 454 445 454 443 Q 455 440 456 437 Q 467 400 474 362 Q 481 325 479 286 Q 479 273 478 260 Q 476 247 472 235 Q 469 225 465 218 Q 457 223 450 226 Q 443 230 435 234 Q 435 233 435 233 Q 434 233 434 233 Q 440 226 445 219 Q 451 212 457 205 Q 452 199 446 193 Q 439 187 432 182 Q 425 176 418 173 Q 411 170 406 169 Q 401 185 397 201 Q 393 217 389 232 Q 393 235 394 235 Q 407 242 411 254 Q 412 256 413 259 Q 414 262 414 265 Q 419 292 418 320 Q 417 339 415 358 Q 412 377 408 396 Q 404 414 400 432 Z M 169 302 Q 129 311 90 319 Q 50 328 11 337 Q 11 344 12 351 Q 12 357 14 364 Q 19 363 24 362 Q 29 361 34 359 Q 36 358 39 358 Q 42 358 45 357 Q 49 356 50 359 Q 52 363 48 364 Q 46 366 44 366 Q 39 369 33 371 Q 28 372 23 375 Q 21 376 20 377 Q 18 377 17 378 Q 17 379 17 379 Q 25 378 32 377 Q 40 376 47 375 V 376 Q 37 383 26 390 Q 29 396 32 403 Q 38 402 51 398 Q 64 395 80 390 Q 96 385 113 380 Q 130 374 145 369 Q 160 365 170 361 Q 181 357 184 356 Q 182 342 178 328 Q 174 315 169 302 Z M 293 252 Q 294 251 295 251 Q 296 250 298 250 Q 302 249 303 246 Q 305 244 306 239 Q 309 224 312 207 Q 316 191 319 175 Q 319 173 320 169 Q 306 172 292 176 Q 279 181 265 186 Q 271 222 293 252 Z M 52 136 Q 42 135 33 134 Q 24 133 15 132 Q 10 150 9 167 Q 8 185 11 203 H 20 Q 22 192 24 181 Q 27 169 29 159 H 29 Q 31 170 33 181 Q 35 192 37 203 H 56 Q 55 186 54 170 Q 53 153 52 136 Z M 132 174 Q 133 181 133 188 Q 132 195 134 203 H 170 Q 177 175 174 148 Q 163 147 153 146 Q 143 144 132 143 Z M 151 229 Q 152 246 152 263 Q 153 280 154 298 Q 159 296 164 296 Q 169 295 174 294 Q 175 296 176 299 Q 178 301 179 304 L 179 304 Q 181 285 183 267 Q 185 248 187 229 Z M 323 161 Q 326 147 329 132 Q 332 118 336 104 H 308 Q 305 120 303 135 Q 300 151 298 167 Q 305 165 311 164 Q 317 162 323 161 Z" fill="black" />
  </g>
  <g class="defect" id="01">
    <path d="M 65 316 Q 74 277 61 273" fill="none" stroke="red" stroke-width="3" />
  </g>
  <g class="defect" id="02">
    <path d="M 396 296 Q 374 294 388 329" fill="none" stroke="red" stroke-width="3" />
  </g>
</svg>