<svg xmlns="http://www.w3.org/2000/svg" width="512" height="512" viewBox="0 0 512 512">
  <g class="glyph">
    <path d="M 430 511 Q 429 511 428 511 Q 427 510 426 509 Q 419 506 413 503 Q 407 500 400 497 Q 399 496 398 496 Q 396 495 395 494 L 398 489 Q 396 490 395 491 Q 394 491 392 492 Q 388 489 385 486 Q 381 483 377 480 Q 376 479 376 478 Q 376 477 375 476 Q 368 470 358 462 Q 361 457 364 452 Q 367 446 370 441 Q 367 441 364 442 Q 362 442 360 443 Q 349 446 339 449 Q 329 453 319 457 Q 309 461 299 464 Q 289 466 279 467 Q 259 469 242 460 Q 240 459 238 458 Q 236 456 233 455 Q 234 454 235 452 Q 236 450 237 449 Q 234 446 232 448 Q 230 449 228 450 Q 223 445 217 438 Q 217 434 217 431 Q 215 432 212 434 Q 203 425 200 415 Q 197 405 196 393 Q 186 396 177 399 Q 167 403 158 406 Q 140 412 120 417 Q 111 420 101 423 Q 92 426 82 429 L 45 440 Q 41 435 39 431 Q 38 426 35 421 Q 33 421 31 422 Q 29 422 27 423 Q 25 417 22 411 Q 19 406 17 399 Q 15 400 13 400 Q 11 400 8 400 Q 7 398 7 395 Q 7 392 6 389 Q 9 384 7 379 Q 5 374 5 369 Q 5 364 5 358 Q 4 353 4 347 Q 18 344 32 341 Q 46 338 61 334 Q 59 313 58 293 Q 56 273 55 253 Q 53 253 51 253 Q 49 252 46 252 Q 45 249 45 247 Q 45 244 44 241 H 43 Q 43 246 41 251 H 22 L 19 236 Q 16 236 12 235 Q 9 235 5 235 Q 0 214 1 194 Q 3 175 8 154 Q 18 155 28 156 Q 38 157 47 158 Q 48 151 47 144 Q 47 138 46 131 Q 46 124 46 117 Q 45 111 45 103 Q 44 96 44 89 Q 44 83 43 76 Q 63 69 83 69 Q 103 69 124 74 V 87 Q 128 88 132 88 Q 136 89 140 90 V 143 Q 136 144 132 145 Q 129 147 125 148 V 149 Q 128 150 131 150 Q 135 151 139 152 V 166 Q 146 167 153 168 Q 161 168 168 169 Q 169 173 169 177 Q 169 180 170 184 Q 172 185 172 185 Q 178 187 181 181 Q 186 172 192 163 Q 177 177 187 158 Q 187 155 186 152 Q 185 149 184 145 H 173 Q 169 139 168 128 Q 166 118 166 106 Q 165 94 166 83 Q 167 72 170 65 H 203 Q 204 68 204 71 Q 204 75 205 77 H 206 Q 207 74 209 71 Q 210 68 211 65 Q 212 65 213 65 Q 213 65 214 65 Q 223 65 231 65 Q 239 65 247 65 Q 251 65 254 61 L 279 20 Q 283 15 286 10 Q 289 5 292 0 Q 298 1 303 3 Q 308 6 313 8 Q 340 22 360 45 Q 363 48 367 51 Q 370 54 373 56 Q 375 59 377 61 Q 375 64 374 65 Q 372 67 371 70 Q 380 71 388 71 Q 396 71 404 72 V 78 Q 405 78 405 78 Q 407 72 414 72 Q 423 74 432 74 Q 441 74 450 75 Q 451 75 454 76 Q 455 80 455 83 Q 455 87 456 91 Q 460 91 463 92 Q 467 92 471 92 Q 476 125 468 157 H 444 Q 444 158 444 158 V 159 Q 445 160 445 160 Q 457 175 469 190 Q 481 205 493 220 Q 483 234 471 244 Q 459 254 445 263 Q 436 255 428 247 Q 420 239 411 231 Q 410 240 409 249 Q 409 258 408 266 H 440 Q 441 271 441 275 Q 442 279 443 283 H 456 Q 458 287 459 295 Q 460 302 460 307 L 450 312 V 313 Q 453 313 455 313 Q 458 313 460 313 Q 461 322 461 331 Q 460 339 459 348 Q 442 350 425 351 Q 409 352 392 354 V 355 Q 394 356 395 356 Q 397 357 399 358 Q 418 364 430 380 Q 432 383 434 385 Q 449 397 455 412 Q 461 428 459 447 Q 458 457 455 467 Q 451 477 446 486 Q 442 493 438 499 Q 434 505 431 512 Q 431 511 430 511 Z M 250 398 Q 250 398 250 399 Q 245 408 239 417 Q 233 426 226 436 Q 228 437 229 437 Q 247 446 266 443 Q 276 442 285 438 Q 295 435 304 432 Q 316 427 328 423 Q 340 419 353 417 Q 359 416 365 415 Q 370 415 376 416 Q 383 418 383 424 Q 383 427 382 430 Q 381 434 379 438 Q 378 442 376 445 Q 374 449 372 453 Q 370 456 368 460 Q 370 461 372 463 Q 373 465 375 466 Q 380 463 384 460 Q 388 456 392 453 Q 392 466 388 474 Q 389 475 390 475 Q 391 476 392 476 Q 399 465 406 453 Q 413 441 419 428 Q 421 429 422 429 Q 424 430 425 431 Q 421 444 416 457 Q 411 470 405 482 Q 407 483 408 484 Q 410 484 412 485 Q 418 476 424 466 Q 429 456 433 445 Q 437 430 437 415 Q 436 404 432 395 Q 428 386 421 378 Q 413 371 405 366 Q 396 362 386 359 Q 373 357 361 357 Q 348 357 336 360 Q 322 362 307 367 Q 293 371 279 376 Q 278 376 277 376 Q 276 377 275 377 Q 271 378 269 376 Q 267 373 269 370 Q 271 364 273 359 Q 274 353 276 347 Q 276 346 277 346 Q 277 346 277 345 Q 260 346 242 348 Q 225 349 208 350 Q 205 361 204 371 Q 203 382 203 392 Q 203 396 204 400 Q 205 404 206 408 Q 208 417 214 423 Q 223 417 231 411 Q 240 404 250 398 Z M 179 280 Q 177 285 177 294 Q 176 303 177 313 Q 177 323 179 332 Q 180 341 183 346 Q 246 340 309 336 Q 372 331 436 325 Q 437 320 437 314 Q 437 309 437 303 Q 429 302 420 302 Q 412 301 403 299 Q 412 296 420 293 Q 429 290 436 286 Q 436 281 435 279 Q 435 276 433 274 Q 370 275 306 277 Q 243 278 179 280 Z M 51 80 Q 51 88 52 109 Q 53 130 55 158 Q 57 185 59 215 Q 61 245 63 271 Q 65 296 67 313 Q 68 331 69 332 Q 81 330 94 326 Q 107 323 120 321 Q 119 275 118 231 Q 117 187 116 141 L 80 131 V 130 Q 89 128 98 125 Q 107 123 117 121 V 79 Q 100 76 84 76 Q 68 76 51 80 Z M 203 103 Q 202 95 201 87 Q 200 80 198 71 H 187 H 177 Q 175 78 174 87 Q 174 96 174 106 Q 174 115 175 124 Q 176 133 179 138 H 182 Q 189 138 196 137 Q 202 137 209 137 Q 228 136 249 135 Q 269 135 289 134 Q 307 134 325 134 Q 342 134 360 133 Q 365 133 368 131 Q 381 119 395 111 Q 398 108 398 105 V 82 Q 398 81 398 81 Q 397 80 397 80 Q 394 79 380 78 Q 366 77 347 76 Q 327 75 306 74 Q 284 74 265 73 Q 246 72 233 72 Q 220 72 217 73 Q 214 80 210 88 Q 207 95 204 103 Z M 14 377 Q 15 376 16 376 Q 17 376 18 376 Q 24 375 29 374 Q 35 372 41 371 Q 46 370 47 373 Q 48 376 43 379 Q 37 381 31 384 Q 25 387 19 389 Q 18 390 17 390 Q 17 391 16 391 Q 23 391 30 389 Q 34 388 37 388 Q 41 387 44 388 Q 40 392 35 395 Q 30 398 25 402 Q 26 405 27 408 Q 29 411 30 413 Q 36 412 48 409 Q 60 406 75 401 Q 72 412 106 392 Q 122 387 136 382 Q 150 378 159 374 Q 169 371 172 369 Q 170 356 166 344 Q 163 332 158 320 Q 120 328 84 336 Q 48 344 10 352 Q 11 359 11 365 Q 12 371 14 377 Z M 384 245 Q 385 242 385 242 Q 387 225 386 210 Q 386 206 384 204 Q 383 203 380 201 Q 377 198 373 198 L 340 197 Q 318 196 296 194 Q 274 193 252 192 H 242 Q 239 207 239 221 Q 238 236 242 251 Q 278 249 313 248 Q 348 246 384 245 Z M 349 163 Q 370 182 389 201 Q 409 220 429 238 Q 450 225 468 204 Q 450 182 433 160 Q 416 139 398 117 Q 383 126 371 137 Q 359 148 349 163 Z M 186 241 Q 192 243 197 246 Q 201 249 206 252 Q 208 251 208 250 Q 209 249 209 248 Q 213 242 217 236 Q 222 230 226 224 Q 233 215 233 205 Q 220 201 234 197 Q 235 193 236 189 L 237 185 H 250 Q 254 185 255 181 L 282 144 Q 282 143 283 141 H 272 Q 258 141 245 142 Q 231 142 217 143 Q 213 143 211 147 Q 201 162 192 178 Q 182 193 172 209 Q 168 215 167 221 Q 166 225 167 226 Q 168 227 172 230 Q 181 222 190 215 Q 199 207 209 199 L 209 199 Q 203 210 198 220 Q 192 230 186 241 Z M 297 9 Q 288 23 279 37 Q 270 51 261 66 Q 263 66 264 66 Q 275 67 286 67 Q 297 67 308 67 Q 314 68 320 68 Q 326 68 332 68 Q 335 68 336 66 Q 340 60 344 56 Q 347 51 351 45 Q 340 33 327 24 Q 313 15 297 9 Z M 212 272 Q 208 269 203 266 Q 199 263 194 261 Q 196 258 196 255 Q 194 252 192 254 Q 191 255 189 256 Q 188 256 188 255 Q 187 255 187 255 Q 185 252 182 252 Q 179 251 176 251 Q 168 251 160 251 Q 152 251 145 251 Q 143 251 142 252 Q 142 268 143 284 Q 143 299 144 315 Q 149 314 154 314 Q 158 313 163 312 Q 164 313 164 314 Q 164 314 164 315 Q 165 319 167 322 Q 168 325 169 328 Q 170 328 170 329 Q 170 330 171 330 Q 172 330 172 330 Q 170 315 170 301 Q 170 287 173 273 Q 182 273 192 272 Q 202 272 212 272 Z M 49 165 Q 40 164 31 163 Q 23 162 14 162 Q 10 179 9 195 Q 7 211 11 228 H 19 Q 20 222 21 217 Q 22 212 23 207 Q 24 202 25 197 Q 26 192 28 187 Q 30 197 32 207 Q 33 217 36 228 H 54 Q 51 197 49 165 Z M 412 80 Q 410 88 407 94 Q 405 101 402 108 Q 401 109 401 111 Q 402 112 403 113 Q 407 117 411 122 Q 415 127 418 131 Q 420 134 424 134 H 442 H 446 Q 449 121 449 108 Q 450 95 448 82 Q 440 82 430 81 Q 421 81 412 80 Z M 163 175 Q 153 174 143 173 Q 133 173 123 172 Q 124 186 124 199 Q 124 213 125 227 Q 133 227 142 227 Q 151 227 160 227 Q 162 214 163 201 Q 164 189 163 175 Z M 290 187 Q 310 188 328 189 Q 347 190 367 191 Q 367 190 367 190 L 341 164 L 344 158 H 341 H 313 Q 310 158 308 161 Q 304 167 300 173 Q 296 179 291 185 Q 291 185 291 185 Q 291 186 290 187 Z M 230 272 Q 236 272 242 272 Q 247 272 252 271 Q 252 267 251 264 Q 251 261 250 258 H 241 Q 240 258 239 259 Q 237 262 235 265 Q 233 268 230 272 Z M 191 362 Q 192 367 193 372 Q 194 377 195 382 H 196 Q 196 380 196 377 Q 196 375 196 373 Q 194 370 193 367 Q 192 364 191 362 Z" fill="black" />
  </g>
  <g class="defect" id="01">
    <path d="M 75 401 Q 72 412 106 392" fill="none" stroke="red" stroke-width="3" />
  </g>
  <g class="defect" id="02">
    <path d="M 233 205 Q 220 201 234 197" fill="none" stroke="red" stroke-width="3" />
  </g>
  <g class="defect" id="03">
    <path d="M 192 163 Q 177 177 187 158" fill="none" stroke="red" stroke-width="3" />
  </g>
</svg>