<svg xmlns="http://www.w3.org/2000/svg" width="512" height="512" viewBox="0 0 512 512">
  <g class="glyph">
    <path d="M 368 172 Q 373 176 378 180 Q 384 184 389 188 Q 404 202 420 215 Q 435 229 451 242 Q 455 248 460 253 Q 466 257 471 263 Q 456 293 427 317 Q 426 316 425 315 Q 423 314 421 313 Q 422 317 423 320 Q 423 323 424 326 H 438 Q 439 329 440 332 Q 441 335 441 339 Q 442 342 442 346 Q 442 349 443 352 Q 441 353 440 354 Q 438 355 436 356 L 443 358 Q 443 367 443 376 Q 443 386 441 396 Q 405 398 370 400 Q 335 402 299 404 Q 299 430 299 455 Q 299 480 299 506 Q 295 508 288 510 Q 281 511 275 510 L 273 499 H 272 Q 272 502 271 505 Q 270 508 269 511 Q 259 512 249 512 Q 240 511 230 509 L 228 493 Q 224 493 220 492 Q 216 492 211 491 Q 210 471 209 451 Q 207 430 206 410 Q 169 413 133 415 Q 97 416 61 419 Q 58 415 58 410 Q 57 405 55 400 Q 52 400 49 401 Q 46 401 42 401 Q 35 380 35 359 Q 49 338 39 316 Q 52 315 65 315 Q 77 314 90 314 Q 90 313 90 313 Q 88 312 86 310 Q 84 309 82 308 Q 84 305 84 301 Q 82 300 80 299 Q 78 298 76 297 Q 74 298 70 301 Q 66 296 61 292 Q 56 289 52 284 Q 48 280 44 276 Q 40 273 36 268 Q 33 266 31 265 Q 45 243 59 222 Q 72 201 86 179 Q 78 178 71 179 Q 63 180 56 180 Q 48 180 41 180 Q 33 180 25 181 Q 24 176 23 172 Q 21 167 20 163 H 7 Q 0 142 0 120 Q 1 99 5 78 Q 6 78 7 78 Q 8 77 9 77 Q 21 77 34 77 Q 46 77 58 77 H 150 Q 155 77 157 72 Q 167 55 178 39 Q 189 23 200 5 Q 201 4 201 3 Q 202 2 203 0 Q 205 1 207 1 Q 208 2 210 3 Q 229 10 244 21 Q 260 32 274 47 Q 277 50 280 54 Q 284 57 288 61 Q 289 62 290 63 Q 291 64 292 66 Q 290 69 289 71 Q 287 74 285 77 Q 319 78 352 78 Q 385 79 419 79 V 92 Q 421 90 422 88 Q 422 86 423 85 Q 426 78 433 79 Q 441 80 448 80 Q 456 81 465 81 Q 466 89 468 98 Q 472 98 475 98 Q 478 98 482 99 Q 484 103 485 112 Q 486 121 486 131 Q 486 142 485 152 Q 484 162 482 169 Q 467 169 453 169 Q 439 169 425 169 Q 411 170 397 170 Q 383 170 369 170 Q 368 171 368 172 Z M 11 85 Q 8 103 8 120 Q 8 138 12 155 H 19 Q 38 155 57 154 Q 76 153 95 152 Q 107 152 120 152 Q 133 151 145 150 Q 166 150 187 149 Q 208 149 229 148 Q 247 147 265 147 Q 283 147 302 146 Q 306 146 311 142 Q 314 138 321 133 Q 324 136 327 138 Q 330 140 333 142 Q 337 145 340 145 Q 348 144 356 144 Q 364 144 372 144 H 437 Q 442 144 447 144 Q 452 143 458 143 Q 460 129 461 116 Q 461 102 458 88 H 430 Q 426 99 420 111 Q 415 122 409 134 Q 409 134 408 133 Q 409 122 411 110 Q 413 99 412 87 Q 408 87 390 86 Q 371 86 343 86 Q 316 85 281 85 Q 246 85 210 85 Q 174 84 139 84 Q 105 84 77 84 Q 49 84 31 85 Q 13 85 11 85 Z M 275 476 Q 274 459 274 443 Q 274 427 274 409 Q 273 375 273 340 Q 273 306 273 271 V 241 Q 273 240 272 239 Q 272 238 272 237 Q 254 233 237 234 Q 219 234 201 239 Q 206 301 210 361 Q 215 422 220 484 Q 226 485 232 486 Q 239 487 246 486 Q 248 475 251 464 Q 253 454 255 443 H 261 Q 262 454 263 464 Q 263 474 264 484 Q 266 484 269 484 Q 272 484 275 483 Z M 269 203 Q 272 195 276 188 Q 280 180 284 173 Q 283 173 283 173 Q 282 172 282 172 Q 266 173 250 173 Q 233 174 217 174 Q 215 174 214 175 Q 213 177 211 178 Q 187 211 163 244 Q 140 276 115 309 Q 115 310 113 314 Q 135 313 156 313 Q 177 313 199 312 Q 198 292 196 273 Q 194 254 193 235 Q 202 231 215 229 Q 227 227 239 227 Q 252 227 263 229 Q 274 230 280 232 V 246 L 297 249 Q 297 264 298 279 Q 298 295 298 310 Q 327 309 355 309 Q 384 308 413 307 Q 382 284 351 263 Q 320 242 288 221 Q 288 220 288 218 Q 288 217 289 216 Q 284 213 280 210 Q 275 207 269 203 Z M 48 393 Q 49 393 61 392 Q 73 392 90 391 Q 107 390 127 389 Q 147 387 163 386 Q 180 385 192 384 Q 203 383 204 383 Q 203 367 202 351 Q 201 335 200 319 Q 161 320 123 321 Q 84 321 46 323 Q 42 341 43 358 Q 43 376 48 393 Z M 321 143 Q 316 148 309 155 Q 302 163 296 171 Q 290 179 286 186 Q 281 194 280 200 Q 312 222 344 244 Q 377 266 409 289 Q 420 280 428 269 Q 437 259 444 246 Q 414 219 383 194 Q 353 169 321 143 Z M 186 157 Q 185 157 183 157 Q 182 157 181 157 Q 164 158 147 158 Q 130 158 113 159 Q 109 159 106 163 Q 71 187 74 211 Q 58 236 42 260 Q 42 261 42 262 Q 41 262 41 264 Q 44 266 47 269 Q 49 271 53 274 Q 55 271 57 269 Q 60 267 62 265 L 71 257 L 81 249 Q 83 247 86 245 Q 88 243 91 241 Q 93 239 96 237 Q 98 236 100 235 Q 93 247 86 260 Q 79 273 73 288 Q 77 289 80 291 Q 83 292 86 294 Z M 414 316 Q 380 316 347 317 Q 314 317 281 318 V 379 Q 315 377 349 375 Q 382 373 416 371 Q 416 364 416 358 Q 416 352 417 346 Q 412 345 407 344 Q 401 342 396 341 Q 401 338 406 335 Q 411 333 416 330 Q 416 326 415 323 Q 415 319 414 316 Z M 170 77 H 210 Q 218 77 226 77 Q 233 77 242 77 Q 245 77 247 75 Q 265 88 256 62 Q 260 56 265 49 Q 261 44 254 37 Q 246 31 237 25 Q 228 19 220 15 Q 211 11 206 10 Q 195 26 185 43 Q 174 60 163 77 Z" fill="black" />
  </g>
  <g class="defect" id="01">
    <path d="M 35 359 Q 49 338 39 316" fill="none" stroke="red" stroke-width="3" />
  </g>
  <g class="defect" id="02">
    <path d="M 106 163 Q 71 187 74 211" fill="none" stroke="red" stroke-width="3" />
  </g>
  <g class="defect" id="03">
    <path d="M 247 75 Q 265 88 256 62" fill="none" stroke="red" stroke-width="3" />
  </g>
</svg>