<svg xmlns="http://www.w3.org/2000/svg" width="512" height="512" viewBox="0 0 512 512">
  <g class="glyph">
    <path d="M 6 184 Q 0 163 1 142 Q 2 120 7 99 Q 14 99 21 99 Q 28 99 36 100 Q 38 88 41 75 Q 44 63 47 50 Q 51 50 55 50 Q 59 50 63 49 Q 63 49 64 49 Q 60 47 57 45 Q 54 44 49 42 Q 52 32 54 22 Q 55 12 58 2 Q 81 1 101 7 Q 122 13 141 23 L 140 32 Q 142 33 144 34 Q 146 34 148 36 Q 151 37 154 38 Q 157 40 159 42 Q 159 44 160 44 Q 162 44 163 44 Q 166 44 169 44 Q 172 44 176 44 Q 180 44 183 45 Q 183 49 183 53 Q 184 57 184 61 Q 186 63 188 59 Q 189 57 189 55 Q 190 53 190 50 Q 192 48 192 46 Q 207 48 220 53 Q 220 56 220 59 Q 220 62 220 66 Q 224 67 228 68 Q 232 68 236 70 Q 233 62 231 54 Q 229 46 228 38 Q 228 37 228 36 Q 246 28 264 21 Q 281 15 300 10 Q 320 5 339 2 Q 358 0 379 1 Q 396 2 411 7 Q 427 11 442 21 Q 445 24 447 26 Q 450 28 452 30 Q 459 37 466 44 Q 473 51 480 59 Q 482 60 483 62 Q 484 64 485 66 Q 484 68 482 71 Q 479 73 483 77 Q 484 76 486 75 Q 488 75 490 73 Q 491 75 491 76 Q 492 77 493 78 Q 498 89 502 101 Q 505 112 506 125 Q 510 149 509 172 Q 507 196 504 220 Q 498 257 491 293 Q 484 328 475 365 Q 474 366 474 367 Q 474 368 473 370 H 489 Q 491 374 491 378 Q 492 383 493 387 H 506 Q 509 390 510 400 Q 511 409 512 420 Q 512 431 511 441 Q 510 452 509 457 Q 462 459 416 462 Q 371 465 324 468 Q 324 465 324 462 Q 323 459 323 456 Q 320 458 320 460 Q 320 462 319 464 Q 318 468 312 468 Q 296 470 280 470 Q 264 471 248 472 H 242 Q 241 468 240 464 Q 238 459 237 455 H 224 Q 221 446 220 438 Q 219 429 218 419 Q 213 421 210 423 Q 209 424 209 426 Q 209 427 209 428 Q 207 438 207 447 Q 207 457 206 466 Q 206 468 206 470 Q 201 472 192 473 Q 183 474 172 473 Q 162 472 152 471 Q 142 470 137 467 V 454 Q 133 453 130 453 Q 127 452 124 452 Q 115 453 107 452 Q 98 452 90 449 Q 71 442 58 431 Q 54 429 57 425 Q 51 421 47 418 Q 42 414 37 411 Q 38 406 37 404 Q 35 401 33 398 Q 30 399 28 400 Q 27 398 26 397 Q 25 396 24 395 Q 17 384 13 372 Q 9 361 7 348 Q 5 335 5 321 Q 5 307 6 294 Q 7 279 8 264 Q 8 250 10 235 Q 12 223 14 211 Q 15 199 17 186 Q 20 186 20 184 Z M 202 327 Q 199 329 196 331 Q 193 333 190 335 Q 177 342 163 350 Q 149 358 134 362 Q 118 368 103 368 Q 83 368 79 350 Q 77 339 76 327 Q 75 314 77 301 Q 79 288 80 275 Q 83 250 86 226 Q 90 202 95 177 Q 102 145 110 114 Q 118 82 126 50 Q 127 44 129 39 Q 131 33 132 28 Q 126 24 116 21 Q 107 17 97 14 Q 86 12 77 11 Q 68 10 63 11 Q 62 18 60 24 Q 59 31 57 38 Q 67 42 76 46 Q 85 50 95 55 V 55 Q 84 57 74 57 Q 51 67 53 58 Q 52 60 51 63 Q 47 80 44 96 Q 40 113 37 129 Q 33 151 29 172 Q 25 193 23 214 Q 20 229 18 245 Q 17 261 16 276 Q 15 292 14 308 Q 13 324 15 341 Q 16 351 18 361 Q 21 371 25 380 Q 27 383 28 386 Q 30 389 32 392 Q 42 387 52 383 Q 62 379 71 375 Q 71 375 71 375 Q 72 375 72 376 Q 66 384 60 393 Q 54 401 49 409 Q 50 410 51 411 Q 52 412 53 413 Q 65 421 78 424 Q 91 428 106 427 Q 117 427 128 424 Q 140 422 151 417 Q 169 411 185 402 Q 202 393 218 382 Q 222 380 222 376 Q 222 374 223 370 Q 225 369 227 369 Q 229 369 231 368 Q 229 367 229 365 Q 228 364 228 363 Q 224 365 222 365 Q 216 367 211 369 Q 206 371 200 373 Q 199 373 198 374 Q 197 374 196 374 Q 193 374 192 372 Q 191 370 192 368 Q 194 366 197 364 Q 201 361 205 357 Q 209 354 212 351 Q 214 350 215 349 Q 216 348 218 346 Q 214 342 211 337 Q 207 332 202 327 Z M 266 106 Q 268 105 270 104 Q 272 103 274 102 Q 287 96 299 91 Q 311 85 325 83 Q 340 79 354 77 Q 369 75 384 76 Q 409 79 416 102 Q 417 104 417 106 Q 418 108 419 110 Q 422 121 423 133 Q 424 145 423 157 Q 422 170 421 183 Q 420 196 418 209 Q 414 244 407 277 Q 401 311 393 345 Q 392 352 391 357 Q 389 363 388 370 H 445 L 447 365 Q 457 326 465 288 Q 473 250 479 211 Q 482 192 484 172 Q 486 153 485 133 Q 484 120 483 108 Q 481 96 477 83 Q 476 79 474 75 Q 472 71 471 66 Q 466 69 462 71 Q 458 73 453 76 Q 449 79 445 81 Q 441 83 436 85 Q 429 90 420 94 Q 429 83 440 71 Q 450 60 459 49 Q 458 47 458 47 Q 458 46 457 45 Q 453 40 448 36 Q 444 32 439 28 Q 425 18 410 14 Q 395 10 379 8 Q 361 7 343 9 Q 325 11 307 15 Q 291 20 275 25 Q 260 31 245 38 Q 242 38 241 39 Q 239 40 237 41 Q 238 47 241 57 Q 244 66 248 76 Q 252 85 257 94 Q 262 102 266 106 Z M 197 54 Q 194 66 191 76 Q 188 87 185 98 Q 184 103 181 102 Q 177 102 177 97 Q 177 86 177 76 Q 177 66 176 55 Q 176 54 176 53 Q 176 52 176 51 Q 168 50 161 51 Q 154 51 146 52 Q 144 53 144 56 Q 143 60 143 64 Q 142 68 142 72 Q 141 106 139 139 Q 137 172 136 205 Q 134 230 134 254 Q 133 279 132 303 Q 132 311 131 319 Q 131 327 131 335 V 356 Q 132 355 133 355 Q 134 355 135 355 Q 150 349 163 342 Q 176 335 190 327 Q 192 326 192 322 Q 193 307 194 292 Q 195 277 197 263 Q 198 248 199 233 Q 200 219 201 203 Q 202 187 204 170 Q 206 154 207 137 Q 208 121 210 105 Q 211 89 213 73 Q 214 69 214 66 Q 214 62 214 58 Q 210 57 206 56 Q 202 55 197 54 Z M 294 329 Q 297 328 298 327 Q 305 324 311 321 Q 318 318 324 315 Q 328 313 329 308 Q 339 262 348 216 Q 357 170 366 124 Q 366 122 366 121 Q 367 119 367 117 Q 351 110 334 107 Q 316 103 298 104 Q 288 171 279 237 Q 270 302 262 369 H 318 Q 319 361 321 353 Q 323 345 324 337 Q 316 336 309 334 Q 302 332 294 331 Z M 230 378 Q 227 396 227 413 Q 227 430 232 448 Q 249 447 264 446 Q 280 445 296 444 Q 300 436 301 428 Q 303 420 304 412 Q 305 406 305 401 Q 305 396 305 390 H 306 Q 309 403 311 416 Q 313 429 315 443 Q 359 440 402 438 Q 444 436 487 433 Q 488 429 489 422 Q 489 414 489 406 Q 489 398 488 390 Q 487 382 485 378 Z M 254 370 Q 257 350 259 331 Q 262 312 264 292 H 254 Q 253 288 252 283 Q 251 279 250 274 H 243 H 236 Q 232 257 232 240 Q 232 223 235 205 H 227 Q 226 223 224 241 Q 223 258 222 276 Q 220 289 220 301 Q 234 314 218 326 Q 217 330 217 333 Q 218 337 222 338 Q 222 338 223 339 Q 229 345 235 352 Q 241 359 246 367 Q 245 368 244 371 Q 246 370 249 370 Q 251 370 254 370 Z M 357 205 Q 354 219 351 234 Q 348 249 345 264 Q 360 264 374 264 Q 388 264 402 263 Q 403 253 405 244 Q 406 236 408 227 Q 409 222 409 218 Q 408 213 407 209 Q 394 207 382 207 Q 370 206 357 205 Z M 411 201 Q 413 187 414 174 Q 415 161 415 148 Q 414 128 410 109 Q 409 102 402 102 Q 393 101 385 101 Q 376 102 366 103 Q 363 103 361 104 Q 358 104 355 105 V 106 Q 361 107 365 109 Q 370 111 375 114 Q 374 116 374 119 Q 374 121 373 123 Q 378 125 383 127 Q 388 129 393 131 Q 389 149 386 165 Q 382 181 379 199 Q 388 199 396 200 Q 403 201 411 201 Z M 380 370 Q 385 350 389 330 Q 393 310 397 290 H 362 Q 359 302 357 313 Q 355 325 353 337 Q 349 339 344 341 Q 339 344 333 346 Q 338 348 342 348 Q 346 349 351 349 Q 350 355 349 360 Q 349 365 348 371 Q 355 370 363 370 Q 371 370 380 370 Z M 120 202 Q 119 207 118 211 Q 118 215 116 219 Q 112 241 109 262 Q 106 284 103 305 Q 102 316 101 327 Q 100 338 101 349 Q 102 352 102 355 Q 102 359 103 362 Q 108 362 113 361 Q 118 359 123 358 L 128 202 Z M 255 136 Q 258 150 257 163 Q 256 176 254 189 Q 261 190 266 190 Q 272 190 277 191 Q 279 188 280 178 Q 281 169 283 159 Q 284 149 285 141 Q 286 133 286 132 Q 282 134 279 130 Q 276 126 274 123 Q 272 119 269 116 Q 268 115 268 115 Q 268 115 268 114 Q 267 115 266 115 Q 264 115 264 115 Q 256 107 251 97 Q 245 88 240 77 Q 240 78 239 79 Q 239 79 239 80 Q 238 89 237 97 Q 237 106 236 115 Q 236 118 236 119 Q 238 120 238 122 Q 238 125 239 127 Q 239 133 240 136 Q 244 135 247 135 Q 251 136 255 136 Z M 245 196 Q 242 203 241 212 Q 240 222 239 232 Q 239 242 240 251 Q 240 261 242 266 H 267 Q 270 249 272 233 Q 274 216 276 199 Q 268 198 261 197 Q 253 197 245 196 Z M 129 445 Q 134 446 142 447 Q 150 448 158 448 Q 166 449 173 448 Q 180 448 184 446 Q 184 437 185 429 Q 185 420 185 411 Q 171 418 157 423 Q 144 429 129 432 Q 129 435 129 437 Q 128 440 128 442 Q 128 443 129 443 Q 129 444 129 445 Z M 118 114 Q 114 130 110 145 Q 107 160 103 177 Q 110 178 116 178 Q 123 177 129 177 Q 130 162 131 146 Q 131 131 132 115 Q 128 115 125 114 Q 122 114 118 114 Z M 34 108 Q 29 107 24 107 Q 19 107 13 106 Q 9 124 8 142 Q 7 159 12 177 H 21 Q 24 159 27 142 Q 31 125 34 108 Z M 227 179 Q 229 166 231 152 Q 232 139 231 125 L 215 123 Q 214 138 213 151 Q 211 165 210 179 Z" fill="black" />
  </g>
  <g class="defect" id="01">
    <path d="M 220 301 Q 234 314 218 326" fill="none" stroke="red" stroke-width="3" />
  </g>
  <g class="defect" id="02">
    <path d="M 74 57 Q 51 67 53 58" fill="none" stroke="red" stroke-width="3" />
  </g>
</svg>