<svg xmlns="http://www.w3.org/2000/svg" width="512" height="512" viewBox="0 0 512 512">
  <g class="glyph">
    <path d="M 375 19 Q 379 20 383 21 Q 388 22 392 23 V 56 Q 388 58 385 60 Q 387 60 389 60 Q 390 61 392 61 Q 392 64 392 68 Q 392 71 392 75 Q 408 76 423 78 Q 438 79 454 80 Q 455 84 455 88 Q 455 91 456 96 Q 460 96 463 97 Q 467 97 470 98 Q 472 103 472 111 Q 472 120 472 129 Q 472 139 470 148 Q 469 157 467 164 Q 448 163 430 163 Q 412 163 393 163 Q 393 175 394 187 Q 394 199 395 212 Q 413 211 431 210 Q 449 209 467 209 Q 470 213 470 217 Q 471 221 472 226 H 484 Q 487 231 488 241 Q 490 250 491 260 Q 491 270 491 279 Q 491 288 489 292 Q 472 294 455 296 Q 438 298 421 299 Q 422 300 422 300 Q 422 301 423 302 Q 429 307 434 313 Q 438 318 444 323 Q 461 342 479 359 Q 481 362 482 364 Q 483 365 483 366 Q 484 367 485 368 Q 490 371 493 375 Q 496 379 501 383 L 512 396 Q 510 401 506 407 Q 501 413 494 420 Q 487 427 480 433 Q 472 439 465 443 Q 450 429 434 416 Q 417 403 400 390 Q 401 413 402 435 Q 403 457 404 480 Q 398 483 392 483 Q 385 484 379 485 Q 379 482 379 480 Q 378 477 378 475 Q 373 476 368 476 Q 364 476 358 476 Q 358 478 357 481 Q 357 483 357 485 Q 352 485 347 485 Q 343 484 337 484 Q 337 480 337 476 Q 337 472 336 469 Q 332 468 328 468 Q 325 468 320 467 Q 319 455 319 444 Q 318 433 317 421 Q 305 432 294 442 Q 284 452 273 463 Q 257 455 245 443 Q 233 430 221 418 Q 216 421 213 423 Q 209 425 205 428 Q 202 429 202 432 L 201 460 Q 200 463 200 467 Q 200 470 200 472 Q 195 474 187 475 Q 179 476 169 475 Q 160 475 150 474 Q 140 473 134 471 V 457 Q 130 456 127 456 Q 124 455 121 456 Q 95 457 74 447 Q 69 444 64 440 Q 61 438 60 437 Q 58 435 55 433 L 57 430 Q 52 426 47 423 Q 43 419 38 417 Q 40 412 38 410 Q 36 407 35 404 Q 33 404 32 405 Q 30 405 29 406 Q 25 402 23 398 Q 21 395 19 390 Q 10 370 8 346 Q 6 329 7 312 Q 8 296 10 278 Q 11 264 13 249 Q 15 235 16 220 Q 16 215 17 212 Q 18 208 18 204 Q 18 201 19 199 H 6 Q 0 178 1 158 Q 2 137 8 117 Q 14 117 21 118 Q 28 118 35 119 Q 36 114 37 109 Q 37 105 38 101 Q 40 94 42 88 Q 43 81 44 74 Q 45 70 49 70 Q 52 70 55 70 Q 58 70 61 70 Q 61 69 61 69 Q 58 67 55 66 Q 51 64 48 62 Q 50 53 52 44 Q 54 34 56 25 Q 57 25 59 24 Q 61 24 62 24 Q 81 25 100 30 Q 118 35 136 44 Q 135 47 135 48 Q 134 50 134 52 Q 140 55 146 58 Q 148 59 150 60 Q 152 60 153 63 Q 153 63 156 63 Q 160 63 163 64 Q 167 64 170 64 Q 171 64 172 64 Q 174 64 175 64 Q 176 68 176 72 Q 176 76 176 80 Q 180 82 181 77 Q 183 73 185 65 Q 192 67 199 68 Q 206 70 213 73 Q 212 75 212 78 Q 212 81 212 84 Q 215 85 218 86 Q 221 87 225 88 Q 226 82 227 76 Q 228 71 229 65 Q 246 65 263 66 Q 279 67 296 68 Q 296 52 295 37 Q 294 22 294 6 Q 314 0 334 1 Q 355 1 375 5 Z M 193 336 Q 191 337 188 339 Q 166 353 140 365 Q 130 369 121 372 Q 111 375 101 376 Q 89 377 83 372 Q 76 366 74 356 Q 73 351 73 345 Q 72 340 72 334 Q 71 321 73 309 Q 74 296 76 284 Q 78 257 83 231 Q 88 206 93 180 Q 100 149 108 118 Q 116 87 124 56 Q 124 54 125 52 Q 126 51 126 49 Q 110 41 94 37 Q 78 32 61 32 Q 59 39 57 45 Q 56 52 54 59 Q 63 63 73 67 Q 82 71 91 76 Q 80 77 70 77 Q 60 77 50 78 Q 49 82 49 83 Q 44 102 40 121 Q 36 140 32 159 Q 29 177 26 195 Q 23 212 21 230 Q 19 245 17 260 Q 16 275 14 291 Q 13 305 13 318 Q 12 332 14 346 Q 15 357 17 368 Q 20 379 25 390 Q 27 393 30 397 Q 40 393 49 389 Q 58 385 68 382 Q 68 382 69 382 L 46 415 Q 48 416 50 417 Q 51 418 52 419 Q 63 426 75 429 Q 87 432 99 431 Q 111 431 123 428 Q 134 426 146 422 Q 166 414 184 404 Q 202 393 219 382 Q 221 380 222 379 Q 221 377 220 375 Q 219 373 218 371 Q 216 372 215 372 Q 214 372 213 372 Q 207 375 202 377 Q 196 379 191 380 Q 185 383 183 380 Q 182 377 184 376 Q 185 374 187 373 L 205 358 Q 206 358 206 357 Q 207 356 209 355 Q 205 350 201 345 Q 198 340 193 336 Z M 124 364 Q 127 362 130 362 Q 143 357 155 350 Q 168 344 180 336 Q 182 335 182 331 Q 184 315 185 299 Q 186 283 187 267 Q 189 247 191 227 Q 192 207 194 186 Q 196 160 199 135 Q 201 110 204 84 V 78 Q 200 77 196 77 Q 193 76 188 75 Q 186 86 183 96 Q 180 106 176 116 Q 175 122 173 121 Q 169 121 169 116 Q 169 108 169 100 Q 168 92 168 84 Q 168 81 168 78 Q 168 75 167 71 Q 159 71 151 71 Q 143 71 136 73 Q 132 146 129 218 Q 126 290 124 364 Z M 463 216 Q 402 218 342 220 Q 281 222 221 225 Q 220 229 219 238 Q 218 247 218 258 Q 219 268 220 278 Q 222 287 225 292 Q 229 291 234 291 Q 239 291 244 290 Q 247 283 249 276 Q 252 269 256 263 Q 257 270 258 276 Q 259 282 260 288 Q 312 283 363 278 Q 415 273 467 268 Q 468 254 467 241 Q 465 228 463 216 Z M 371 212 Q 370 171 369 131 Q 369 90 367 50 Q 362 49 356 48 Q 350 48 344 47 V 45 Q 350 43 356 40 Q 362 37 367 35 V 12 Q 362 10 353 9 Q 344 8 334 8 Q 324 8 315 9 Q 306 11 300 13 Q 304 113 310 214 Q 326 214 340 213 Q 355 213 371 212 Z M 314 291 Q 318 333 321 376 Q 342 432 326 461 Q 329 461 333 461 Q 334 450 336 439 Q 338 429 341 418 Q 344 426 346 435 Q 347 443 349 452 Q 350 452 351 452 Q 352 452 353 452 Q 355 435 355 418 Q 355 401 356 383 H 363 Q 364 402 365 422 Q 366 441 367 460 Q 370 460 373 459 Q 375 459 378 458 V 454 Q 377 434 377 413 Q 376 393 376 373 Q 376 368 371 365 Q 369 363 366 360 Q 363 358 359 356 Q 362 351 365 347 Q 368 342 371 338 Q 374 332 373 327 Q 373 318 373 308 Q 373 298 372 289 Q 372 288 371 285 Q 357 286 343 288 Q 330 289 314 291 Z M 296 305 Q 275 330 255 354 Q 235 378 215 402 Q 231 422 254 437 Q 254 437 255 437 Q 255 437 255 436 Q 270 423 283 409 Q 297 396 311 383 Q 313 382 313 380 Q 313 379 313 377 L 310 326 Q 310 323 310 320 Q 310 317 308 314 Q 307 311 304 310 Q 300 308 298 306 Q 297 305 296 305 Z M 469 360 Q 461 366 454 371 Q 446 376 437 382 Q 445 362 456 346 Q 445 335 435 325 Q 425 314 415 304 Q 409 307 402 313 Q 395 320 389 327 Q 382 334 377 342 Q 372 349 370 354 Q 390 370 410 385 Q 430 401 450 417 Q 461 409 470 400 Q 480 391 487 380 Q 477 371 469 360 Z M 235 74 Q 231 90 230 107 Q 229 124 233 141 Q 250 141 266 140 Q 282 140 299 140 Q 298 124 297 108 Q 297 93 296 76 Q 280 75 265 75 Q 251 74 235 74 Z M 448 87 Q 430 86 412 84 Q 394 82 376 81 Q 376 96 376 110 Q 377 124 377 139 H 445 Q 450 114 448 87 Z M 246 165 Q 246 179 245 192 Q 243 204 240 217 Q 256 216 272 216 Q 287 215 303 214 Q 303 202 302 189 Q 301 176 300 164 Q 286 165 273 165 Q 259 165 246 165 Z M 213 279 Q 213 280 212 280 Q 212 281 212 281 Q 211 296 210 310 Q 209 325 208 339 Q 208 343 211 345 Q 212 346 213 346 Q 213 346 214 347 Q 218 351 221 355 Q 224 358 227 362 Q 229 363 230 365 Q 232 367 233 369 Q 234 367 242 359 Q 249 351 257 341 Q 265 331 272 323 Q 278 314 279 313 H 271 Q 270 312 270 310 Q 270 309 270 307 Q 268 312 267 314 Q 259 315 251 316 Q 244 316 235 317 Q 233 308 230 299 Q 227 299 224 299 Q 221 299 218 299 Q 217 294 216 289 Q 214 284 213 279 Z M 98 369 Q 103 368 108 367 Q 113 367 117 365 Q 119 328 120 291 Q 121 254 122 216 H 114 Q 113 225 111 234 Q 89 231 108 250 Q 105 267 103 284 Q 101 300 99 317 Q 98 326 98 335 Q 97 345 97 354 Q 96 358 97 362 Q 97 365 98 369 Z M 177 416 Q 163 422 150 428 Q 137 433 123 436 V 448 Q 136 451 149 451 Q 162 452 175 450 Q 176 442 176 433 Q 176 425 177 416 Z M 99 192 Q 105 192 111 192 Q 117 192 124 192 Q 124 176 125 162 Q 126 148 127 133 Q 123 133 120 132 Q 116 132 112 133 Q 109 147 106 162 Q 102 176 99 192 Z M 19 192 Q 23 175 26 159 Q 29 142 32 126 Q 27 125 22 125 Q 17 124 12 124 Q 8 141 8 158 Q 7 174 10 192 Z M 217 194 Q 220 181 221 169 Q 222 156 221 142 Q 216 142 213 141 Q 210 141 206 141 Q 205 154 203 167 Q 202 180 201 194 Z M 229 148 Q 229 151 231 152 Q 233 152 236 152 Q 239 153 242 153 Q 241 151 241 148 Z M 397 301 Q 397 303 398 304 Q 398 306 398 307 Q 400 305 402 304 Q 404 303 406 300 Q 403 300 401 301 Q 399 301 397 301 Z" fill="black" />
  </g>
  <g class="defect" id="01">
    <path d="M 111 234 Q 89 231 108 250" fill="none" stroke="red" stroke-width="3" />
  </g>
  <g class="defect" id="02">
    <path d="M 321 376 Q 342 432 326 461" fill="none" stroke="red" stroke-width="3" />
  </g>
</svg>