<svg xmlns="http://www.w3.org/2000/svg" width="512" height="512" viewBox="0 0 512 512">
  <g class="glyph">
    <path d="M 479 324 Q 478 327 478 327 Q 477 337 473 350 Q 468 363 464 373 Q 455 370 448 369 Q 440 367 432 364 Q 424 362 416 360 Q 408 359 399 356 Q 401 359 401 360 Q 405 364 409 367 Q 412 371 416 375 Q 447 404 435 446 Q 431 459 424 470 Q 417 481 408 492 Q 404 489 400 488 Q 396 486 392 483 Q 391 486 391 488 Q 391 490 391 493 Q 342 502 293 507 Q 244 512 193 511 Q 193 507 193 503 Q 193 499 192 495 Q 188 494 188 494 Q 187 494 185 497 Q 184 500 182 502 Q 180 505 178 508 Q 177 510 174 510 Q 162 509 150 507 Q 139 504 128 499 Q 115 493 105 480 Q 104 478 102 477 Q 101 475 100 474 Q 76 455 74 427 Q 74 423 74 418 Q 74 413 74 408 Q 73 409 70 409 Q 66 404 64 399 Q 61 395 59 390 Q 57 391 53 392 Q 50 388 46 381 Q 43 374 40 367 Q 44 363 47 361 Q 47 360 47 360 Q 46 360 46 360 Q 44 360 42 361 Q 40 361 38 362 Q 35 356 34 350 Q 32 343 31 336 Q 48 329 65 323 Q 81 316 99 308 Q 95 306 95 306 Q 89 301 83 297 Q 76 293 72 287 Q 67 282 62 278 Q 57 273 52 268 Q 51 268 50 265 Q 52 263 54 260 Q 55 257 58 254 Q 60 251 58 247 Q 57 244 56 241 Q 55 238 54 235 Q 51 235 49 235 Q 46 235 44 236 Q 41 230 40 226 Q 39 221 37 216 Q 39 215 41 214 Q 43 212 46 211 Q 45 208 45 207 Q 42 207 39 208 Q 37 208 34 208 Q 24 179 15 150 Q 7 121 0 90 Q 19 80 39 77 Q 59 74 80 75 Q 80 80 81 84 Q 81 88 82 92 Q 89 90 96 88 Q 102 86 109 85 Q 113 92 118 100 Q 121 96 120 91 Q 120 86 121 81 Q 141 75 161 70 Q 181 65 202 61 Q 194 46 187 34 Q 190 32 193 30 Q 196 28 199 26 Q 212 17 227 10 Q 242 4 258 1 Q 259 1 261 0 H 261 Q 263 5 265 10 Q 266 15 268 19 Q 271 19 273 18 Q 275 18 278 17 Q 280 23 282 27 Q 284 32 285 38 Q 283 40 280 41 Q 278 43 276 44 Q 276 44 276 44 Q 276 44 276 45 Q 279 44 282 44 Q 284 44 287 44 Q 288 46 289 47 Q 289 48 290 50 Q 304 50 317 50 Q 331 50 345 51 Q 367 52 389 57 Q 406 61 420 70 Q 435 78 446 92 Q 447 93 448 94 Q 448 94 450 95 Q 469 111 475 132 Q 482 152 478 177 Q 474 194 465 209 Q 457 225 446 239 H 445 Q 440 237 436 235 Q 432 233 428 230 Q 429 227 430 224 Q 431 221 432 219 Q 432 219 432 218 L 429 221 Q 426 221 425 221 Q 424 222 422 223 Q 421 224 420 225 Q 415 221 410 217 Q 405 213 399 209 L 399 209 V 212 Q 398 221 395 230 Q 393 238 387 246 Q 384 250 380 255 Q 376 259 372 264 Q 371 265 370 266 Q 369 268 367 269 Q 392 276 416 283 Q 440 290 464 297 Q 464 300 464 303 Q 464 306 464 308 Q 465 310 466 310 Q 470 311 474 311 Q 477 312 480 313 Q 479 317 479 319 Q 479 321 479 324 Z M 424 213 Q 425 213 425 212 Q 438 195 446 177 Q 456 152 453 128 Q 450 114 443 102 Q 436 90 424 81 Q 412 72 399 67 Q 385 62 371 60 Q 353 57 334 56 Q 316 55 298 56 Q 278 57 259 59 Q 241 61 222 64 Q 198 68 175 73 Q 152 79 129 85 Q 125 86 125 89 Q 124 97 124 104 Q 124 112 124 120 Q 124 121 124 122 Q 123 124 123 125 Q 122 125 122 125 Q 117 117 113 109 Q 109 101 104 92 Q 98 94 93 96 Q 87 97 81 100 Q 81 102 82 103 L 85 121 Q 86 132 89 141 Q 92 151 98 160 Q 99 161 101 163 Q 111 159 122 156 Q 132 152 143 149 Q 177 138 211 130 Q 244 122 279 117 Q 299 115 318 115 Q 338 114 357 116 Q 364 117 371 118 Q 378 119 384 122 Q 401 128 400 146 Q 400 147 399 150 Q 398 156 395 161 Q 393 166 390 171 Q 388 174 387 177 Q 385 180 383 183 Q 392 193 401 199 Q 410 190 418 182 Q 426 173 436 165 Q 436 165 436 165 Q 432 177 427 188 Q 423 199 418 210 Q 419 211 421 212 Q 423 212 424 213 Z M 137 270 Q 139 271 153 275 Q 167 278 189 284 Q 211 289 238 296 Q 265 303 293 310 Q 321 317 348 324 Q 374 330 395 335 Q 416 340 429 343 Q 443 347 443 347 Q 448 336 451 325 Q 454 315 455 304 L 452 302 Q 415 291 378 280 Q 342 270 305 259 Q 270 248 235 238 Q 200 228 165 218 Q 162 216 161 216 Q 160 216 158 219 Q 154 225 150 230 Q 146 235 142 241 Q 141 242 141 243 Q 140 244 139 245 Q 138 251 138 258 Q 137 264 137 270 Z M 352 426 Q 349 427 348 427 Q 347 427 345 427 Q 328 429 311 430 Q 294 432 277 433 Q 239 437 201 435 Q 192 434 182 434 Q 172 433 163 432 Q 158 432 153 431 Q 149 430 144 429 Q 135 425 137 416 Q 138 412 140 408 Q 142 404 144 400 Q 145 396 145 393 Q 144 391 143 389 Q 143 387 142 384 Q 141 380 138 378 Q 130 373 122 368 Q 114 364 105 360 Q 102 359 100 359 Q 99 361 97 363 Q 96 364 95 366 Q 89 377 85 389 Q 81 401 80 414 Q 79 427 83 439 Q 86 451 95 461 Q 108 475 123 480 Q 139 485 156 486 Q 159 481 162 477 Q 165 472 167 467 Q 170 463 173 458 Q 175 454 178 449 Q 178 449 179 450 Q 180 459 181 468 Q 182 478 183 487 Q 230 488 276 483 Q 321 478 367 471 Q 368 465 368 462 Q 367 459 363 456 L 359 452 Q 355 448 351 444 Q 348 441 345 437 Q 348 431 352 426 Z M 389 466 Q 390 465 390 464 Q 397 456 402 447 Q 408 438 411 428 Q 422 395 399 368 Q 389 356 372 348 Q 360 342 346 340 Q 333 338 320 336 Q 274 331 230 336 Q 212 338 194 341 Q 177 343 158 346 Q 155 347 152 348 Q 149 348 145 349 Q 145 364 148 379 Q 150 393 157 406 Q 190 399 222 394 Q 254 388 287 387 Q 291 376 295 366 Q 299 355 305 345 H 306 Q 307 355 309 366 Q 310 376 311 387 Q 313 388 315 388 Q 317 388 319 388 Q 324 389 328 389 Q 333 389 337 390 Q 343 391 349 393 Q 354 395 360 398 Q 369 404 366 415 Q 363 419 361 424 Q 359 429 356 433 Q 355 434 355 435 Q 354 436 353 437 Q 361 446 370 453 Q 378 460 389 466 Z M 264 239 Q 264 239 265 240 Q 269 241 273 242 Q 277 243 282 244 Q 293 248 304 251 Q 315 255 326 258 Q 327 258 329 258 Q 330 259 332 257 Q 342 250 350 241 Q 359 232 366 221 Q 369 214 371 207 Q 374 200 373 192 Q 373 185 370 178 Q 368 172 363 166 Q 353 172 342 177 Q 332 183 321 187 Q 328 178 336 170 Q 343 163 349 153 Q 345 151 342 149 Q 338 148 334 146 Q 320 142 306 141 Q 291 141 277 142 Q 262 143 248 145 Q 233 148 219 152 Q 214 153 210 154 Q 205 155 200 156 Q 201 157 202 159 Q 202 160 203 161 Q 202 162 201 163 Q 201 164 200 165 Q 195 172 190 178 Q 186 185 180 191 Q 177 195 179 200 Q 180 203 182 206 Q 184 210 185 214 Q 185 216 189 218 Q 193 219 199 218 Q 219 212 239 206 Q 259 201 280 199 Q 287 198 293 197 Q 299 197 306 198 Q 310 199 311 201 Q 312 204 310 207 L 306 211 Q 298 218 288 224 Q 279 230 270 236 Q 268 236 264 239 Z M 195 160 Q 191 157 188 154 Q 185 151 181 149 Q 179 145 173 146 Q 162 151 150 154 Q 139 157 127 162 Q 124 162 121 166 Q 116 173 112 181 Q 107 188 102 195 Q 100 199 101 204 Q 102 207 103 210 Q 103 213 104 217 Q 100 219 95 221 Q 90 223 86 226 Q 85 227 83 227 Q 82 228 81 229 Q 75 238 70 247 Q 64 256 58 265 Q 75 281 96 291 Q 145 226 195 160 Z M 245 305 Q 244 304 243 304 Q 225 300 207 295 Q 190 291 172 286 Q 170 286 166 287 L 43 339 Q 42 339 41 340 Q 40 340 39 341 Q 40 343 41 347 Q 41 350 42 353 Q 52 350 60 347 Q 69 343 77 338 Q 78 339 79 341 Q 80 342 81 343 Q 72 349 64 356 Q 55 362 47 369 Q 50 373 51 376 Q 53 380 55 383 Q 62 381 68 378 Q 74 376 81 374 Q 85 373 86 369 Q 88 364 91 359 Q 93 355 96 350 Q 97 351 98 351 Q 99 351 100 352 Q 104 353 108 355 Q 113 356 117 357 Q 120 359 122 358 Q 126 356 130 355 Q 134 353 138 351 Q 139 349 139 347 Q 139 345 139 342 L 141 341 Q 148 340 154 339 Q 160 338 166 337 Q 176 336 184 332 Q 196 327 208 321 Q 220 316 233 311 Q 238 310 245 306 Z M 92 192 Q 86 165 81 137 Q 76 110 72 82 Q 54 82 38 85 Q 22 87 6 94 Q 13 122 20 148 Q 28 174 37 200 Q 51 198 64 196 Q 78 194 92 192 Z M 255 8 Q 238 12 223 18 Q 208 25 194 36 Q 198 41 201 47 Q 205 53 208 59 Q 223 57 239 55 Q 254 53 269 50 Q 268 46 266 42 Q 265 38 264 33 Q 251 36 240 38 Q 228 40 215 42 Q 215 42 215 41 Q 226 35 236 29 Q 247 23 258 17 Q 256 12 255 8 Z M 314 395 Q 313 399 311 403 Q 310 406 308 411 Q 280 411 250 416 Q 251 436 221 420 Q 206 423 192 427 H 193 Q 227 430 262 427 Q 280 426 298 424 Q 315 423 333 421 Q 339 420 344 420 Q 349 419 354 418 Q 358 417 357 415 Q 348 412 339 412 Q 331 412 322 411 Q 321 406 321 403 Q 321 399 320 395 Q 319 395 317 395 Q 316 395 314 395 Z M 359 152 Q 357 155 356 157 Q 359 159 361 159 Q 363 158 366 157 Q 368 160 369 162 Q 371 164 373 166 Q 374 167 375 168 Q 376 169 375 171 Q 375 172 376 173 Q 377 174 378 177 Q 384 168 388 160 Q 392 152 393 143 Q 389 142 381 140 Q 373 139 364 138 Q 355 138 348 138 Q 340 138 337 139 Q 343 142 349 145 Q 354 148 359 152 Z M 47 228 Q 60 227 72 223 Q 85 219 97 213 Q 94 204 92 193 Q 79 200 68 206 Q 56 213 44 219 Q 45 222 45 224 Q 46 226 47 228 Z M 133 292 Q 134 293 134 293 Q 136 292 138 292 Q 139 291 141 290 Q 147 287 146 283 V 281 Q 144 280 143 280 Q 143 280 141 282 Q 139 284 137 287 Q 135 290 133 292 Z M 246 234 Q 248 235 250 236 Q 253 236 255 236 Q 258 235 262 233 Q 265 231 268 229 Q 268 228 267 228 Q 262 229 256 230 Q 251 232 246 233 Z M 278 327 Q 275 326 274 326 Q 273 326 272 327 Z M 167 425 Q 166 424 166 424 Q 166 423 166 423 Q 165 424 165 425 Q 165 425 167 425 Z" fill="black" />
  </g>
  <g class="defect" id="01">
    <path d="M 250 416 Q 251 436 221 420" fill="none" stroke="red" stroke-width="3" />
  </g>
</svg>