<svg xmlns="http://www.w3.org/2000/svg" width="512" height="512" viewBox="0 0 512 512">
  <g class="glyph">
    <path d="M 182 512 Q 180 511 178 511 Q 177 510 174 509 Q 148 503 124 490 Q 122 489 121 488 Q 121 488 120 486 Q 121 483 122 480 Q 117 477 112 474 Q 108 472 102 469 Q 103 467 103 467 Q 103 466 103 465 Q 111 443 118 422 Q 126 401 133 379 Q 134 375 134 371 Q 134 368 131 364 Q 129 365 128 365 Q 126 365 124 365 Q 122 362 120 358 Q 117 354 115 350 Q 107 384 101 417 Q 97 433 94 450 Q 90 466 86 483 Q 80 483 73 483 Q 66 483 59 482 Q 48 490 60 474 Q 60 470 61 467 Q 57 465 56 466 Q 55 466 54 469 Q 53 472 51 475 Q 50 478 49 480 Q 41 479 33 476 Q 26 474 18 471 Q 18 469 19 466 Q 19 463 20 460 Q 15 458 10 457 Q 5 455 0 453 Q 1 447 2 441 Q 3 435 4 429 Q 9 399 14 369 Q 19 339 24 309 Q 29 279 35 249 Q 40 218 46 188 Q 49 169 53 151 Q 56 132 60 114 Q 60 111 59 107 Q 50 90 46 72 Q 42 54 41 35 V 30 Q 46 29 51 28 Q 56 27 61 26 Q 84 21 106 16 Q 129 11 152 8 Q 171 5 190 4 Q 209 2 228 1 Q 240 1 251 0 Q 263 0 276 1 Q 297 1 319 4 Q 340 8 360 15 Q 374 21 386 28 Q 398 35 408 46 Q 413 52 419 57 Q 425 61 429 67 Q 426 72 428 75 Q 430 78 431 82 Q 433 80 435 80 Q 436 79 439 78 Q 446 89 450 101 Q 454 114 455 127 Q 455 152 443 177 Q 444 178 445 178 Q 446 178 447 178 Q 454 213 447 248 Q 420 248 394 249 Q 368 249 342 249 V 251 Q 342 251 345 251 Q 365 255 381 266 Q 388 271 394 278 Q 397 280 400 283 Q 403 286 405 289 Q 409 292 412 295 Q 415 298 418 302 Q 416 303 415 304 Q 414 305 413 307 Q 409 310 411 314 Q 414 313 417 312 Q 419 311 422 310 Q 427 320 429 333 Q 430 345 429 357 Q 427 368 423 379 Q 434 403 417 392 Q 415 398 412 405 Q 416 404 421 402 Q 425 399 429 398 Q 434 402 437 407 Q 440 412 444 417 Q 445 417 446 417 Q 447 417 448 416 Q 451 420 453 423 Q 455 427 458 430 Q 460 434 462 437 Q 464 440 466 444 Q 467 445 468 447 Q 468 449 470 451 Q 471 452 472 454 Q 473 457 474 459 Q 477 465 479 472 Q 480 476 480 478 Q 479 479 478 479 Q 477 480 476 480 Q 446 497 414 502 Q 401 504 388 503 Q 375 502 363 496 Q 350 489 342 478 Q 339 474 337 473 Q 324 463 317 450 Q 311 436 310 421 Q 309 408 311 395 Q 314 383 319 371 Q 321 366 323 361 Q 325 357 327 352 Q 328 351 328 349 Q 328 348 329 346 Q 328 346 326 346 Q 325 346 324 346 Q 307 345 289 347 Q 272 349 255 352 Q 252 353 250 357 Q 244 371 238 385 Q 233 399 227 413 Q 224 419 223 419 Q 222 420 216 421 Q 215 421 214 422 Q 214 422 212 422 Q 215 423 217 425 Q 218 426 220 428 Q 220 429 219 430 Q 219 430 218 432 Q 211 450 204 468 Q 196 486 189 504 Q 188 507 186 510 Q 185 512 182 512 Z M 339 326 Q 343 331 340 338 Q 339 342 338 346 Q 336 349 334 354 Q 332 360 329 367 Q 326 374 323 380 Q 313 405 318 430 Q 321 444 328 455 Q 335 465 349 472 Q 359 477 369 478 Q 379 479 390 478 Q 406 477 421 472 Q 435 467 449 460 Q 451 459 454 457 Q 452 453 451 449 Q 449 445 447 441 Q 440 443 433 445 Q 427 446 420 448 Q 419 447 418 445 Q 418 443 417 442 Q 428 436 441 428 Q 438 423 435 418 Q 445 414 428 409 Q 422 411 416 414 Q 410 416 404 417 Q 400 419 395 420 Q 390 420 386 421 Q 380 421 378 418 Q 376 414 377 409 Q 377 406 378 404 Q 380 400 382 396 Q 384 392 386 389 Q 389 381 392 374 Q 396 367 398 360 Q 405 343 404 324 Q 404 319 403 314 Q 402 309 399 304 Q 398 304 397 305 Q 396 305 395 305 Q 383 310 371 314 Q 359 318 347 322 Q 345 323 343 324 Q 341 324 339 325 Q 352 315 364 305 Q 377 296 389 285 Q 386 283 383 280 Q 380 278 378 276 Q 370 270 361 266 Q 352 263 342 261 Q 327 258 311 257 Q 296 256 280 257 Q 276 257 273 257 Q 270 257 265 257 Q 258 275 251 292 Q 244 310 236 328 H 239 Q 247 327 255 326 Q 264 324 272 323 Q 288 322 304 321 Q 321 321 336 326 Q 337 326 338 325 Q 338 325 339 325 H 339 Z M 401 51 Q 399 50 398 49 Q 397 48 396 47 Q 385 38 373 32 Q 361 25 348 21 Q 332 15 315 13 Q 298 10 280 9 Q 267 9 254 9 Q 241 9 228 10 Q 211 10 194 12 Q 177 13 160 16 Q 132 20 106 25 Q 79 30 53 37 Q 51 38 48 38 Q 49 54 52 69 Q 55 84 61 98 Q 63 95 65 95 Q 67 95 68 95 Q 76 96 83 96 Q 89 96 97 97 Q 99 97 101 97 Q 103 97 105 96 Q 134 89 164 83 Q 193 78 224 76 Q 240 74 255 73 Q 271 72 286 73 Q 297 74 308 76 Q 318 77 328 79 Q 346 84 358 93 Q 376 109 366 130 Q 363 138 359 143 Q 354 149 350 155 Q 349 158 347 159 Q 365 160 381 161 Q 398 161 415 161 Q 422 149 425 137 Q 428 125 428 113 Q 428 101 424 91 Q 421 80 415 72 Q 404 77 394 81 Q 383 85 371 87 Q 378 78 386 69 Q 393 60 401 51 Z M 62 459 Q 71 416 80 373 Q 90 331 99 288 Q 109 245 119 203 Q 129 160 139 117 Q 122 109 105 105 Q 88 101 70 102 Q 68 108 64 125 Q 61 143 56 168 Q 52 192 46 223 Q 41 253 35 283 Q 30 314 25 343 Q 20 372 16 395 Q 13 418 10 433 Q 8 447 8 449 Q 13 451 17 452 Q 21 453 26 454 Q 32 440 39 427 Q 45 414 52 402 H 53 Q 52 409 52 416 Q 52 422 52 430 Q 52 437 51 444 Q 51 451 49 458 Q 53 459 55 459 Q 58 459 62 459 Z M 191 210 Q 196 210 198 210 Q 208 211 217 214 Q 227 216 236 221 Q 252 229 270 227 H 273 Q 295 227 316 226 Q 338 226 360 225 Q 373 225 386 225 Q 399 225 412 224 Q 415 224 417 224 Q 419 224 421 223 Q 426 195 421 168 Q 349 166 279 164 Q 208 162 136 160 Q 132 177 128 194 Q 124 211 120 229 Q 136 228 152 228 Q 168 228 184 228 Q 186 223 188 219 Q 190 215 191 210 Z M 169 399 Q 169 399 170 398 H 176 Q 181 398 186 398 Q 190 398 195 398 Q 199 398 202 394 Q 216 357 231 320 Q 246 284 262 248 Q 263 247 263 246 Q 263 245 263 243 Q 247 234 231 228 Q 215 221 197 218 Q 176 281 154 342 Q 133 404 111 466 Q 124 473 136 478 Q 149 483 163 486 Q 171 468 178 450 Q 185 433 192 415 Q 186 410 181 407 Q 175 403 169 399 Z M 160 154 Q 168 154 176 154 Q 183 154 191 154 Q 205 155 220 155 Q 235 155 249 156 Q 271 157 292 157 Q 314 158 335 159 Q 338 159 339 157 Q 345 150 351 143 Q 356 135 360 127 Q 361 124 362 122 Q 362 120 363 117 Q 363 113 362 112 Q 361 110 357 109 Q 355 108 353 107 Q 352 107 349 106 Q 339 102 328 101 Q 317 99 307 98 Q 290 98 273 99 Q 257 99 241 101 Q 224 102 208 105 Q 191 108 174 110 Q 167 111 161 113 Q 154 115 147 116 Q 147 118 146 119 Q 146 121 146 122 Q 151 124 156 126 Q 161 128 165 131 Z M 107 290 Q 109 308 114 324 Q 118 341 128 357 Q 130 356 133 355 Q 136 354 139 354 Q 143 353 143 349 Q 150 331 156 313 Q 162 294 168 276 Q 169 275 169 272 Q 166 273 158 275 Q 150 277 140 279 Q 130 282 121 285 Q 112 288 107 290 Z M 133 273 Q 134 273 134 274 Q 134 274 134 274 Q 143 271 152 269 Q 161 267 171 265 Q 171 264 172 264 Q 173 263 173 262 Q 175 258 176 254 Q 166 254 156 254 Q 146 254 136 255 Q 135 260 135 264 Q 134 269 133 273 Z" fill="black" />
  </g>
  <g class="defect" id="01">
    <path d="M 435 418 Q 445 414 428 409" fill="none" stroke="red" stroke-width="3" />
  </g>
  <g class="defect" id="02">
    <path d="M 59 482 Q 48 490 60 474" fill="none" stroke="red" stroke-width="3" />
  </g>
  <g class="defect" id="03">
    <path d="M 423 379 Q 434 403 417 392" fill="none" stroke="red" stroke-width="3" />
  </g>
</svg>