<svg xmlns="http://www.w3.org/2000/svg" width="512" height="512" viewBox="0 0 512 512">
  <g class="glyph">
    <path d="M 274 336 Q 277 335 279 335 Q 282 335 284 334 Q 285 335 288 344 Q 290 353 294 366 Q 298 378 302 393 Q 306 408 309 423 Q 313 437 315 448 Q 318 459 319 464 Q 316 467 307 471 Q 299 475 289 477 Q 279 480 268 482 Q 258 484 250 484 Q 248 480 247 475 Q 245 470 243 465 Q 240 465 237 465 Q 234 466 231 466 Q 230 463 230 461 Q 229 459 228 457 Q 226 458 223 459 Q 178 480 129 488 Q 116 490 104 490 Q 91 489 78 485 Q 78 485 75 484 Q 76 481 78 477 Q 79 474 80 470 Q 75 472 73 475 Q 71 478 68 480 Q 57 476 49 466 Q 46 462 42 458 Q 38 455 35 452 Q 14 433 13 403 Q 12 392 14 382 Q 17 371 20 361 Q 26 345 34 329 Q 42 314 51 299 Q 52 298 53 297 Q 54 295 55 292 Q 52 291 51 290 Q 44 283 37 276 Q 29 269 23 261 Q 10 247 5 230 Q 0 213 2 194 Q 5 175 12 158 Q 19 141 29 125 Q 38 110 50 97 Q 61 84 72 71 Q 89 53 106 36 Q 124 19 143 2 Q 143 1 144 1 Q 144 1 145 0 Q 151 3 156 8 Q 162 12 167 17 Q 173 23 179 30 Q 186 36 192 42 Q 193 44 194 45 Q 195 46 196 48 Q 196 49 195 50 Q 195 51 195 52 Q 196 53 196 54 Q 197 55 198 57 Q 199 57 201 56 Q 202 56 203 55 Q 207 62 211 68 Q 215 74 220 81 Q 221 80 222 80 Q 223 79 225 79 Q 247 71 269 64 Q 291 58 315 55 Q 329 53 343 51 Q 356 50 371 50 Q 401 52 425 67 Q 427 68 428 68 Q 429 69 431 70 Q 429 72 429 73 Q 428 75 427 76 Q 430 78 433 79 Q 436 80 439 78 Q 444 80 447 84 Q 450 87 453 91 L 462 99 Q 486 122 498 153 Q 504 169 506 184 Q 509 199 510 215 Q 512 238 511 260 Q 510 282 507 305 Q 504 338 499 371 Q 494 403 488 436 Q 485 448 483 460 Q 481 471 478 483 Q 478 484 478 484 Q 477 485 477 485 Q 470 487 462 486 Q 455 485 447 484 Q 448 479 448 476 Q 449 472 449 467 Q 446 467 446 469 Q 446 470 445 471 Q 445 473 444 477 Q 440 475 435 474 Q 431 473 428 468 Q 427 471 425 473 Q 424 475 423 478 Q 414 475 407 472 Q 407 467 409 461 Q 410 456 409 450 Q 407 455 405 459 Q 400 458 396 457 Q 393 455 388 454 Q 389 449 390 445 Q 390 441 391 436 Q 395 409 399 382 Q 403 355 406 328 Q 410 289 412 248 Q 414 231 413 214 Q 412 196 407 179 Q 406 175 404 170 Q 402 166 401 161 Q 399 156 392 154 Q 386 153 381 153 Q 375 153 369 154 Q 343 157 320 165 Q 296 172 273 182 Q 271 182 269 183 Q 268 183 265 184 Q 262 179 258 174 Q 255 169 252 164 Q 251 165 246 166 Q 234 149 227 131 Q 220 113 216 92 Q 213 93 213 94 Q 189 113 167 134 Q 145 155 126 178 Q 119 186 113 194 Q 107 203 103 212 Q 102 215 101 217 Q 101 219 100 222 Q 104 224 106 224 Q 107 223 109 220 Q 108 202 139 184 Q 153 166 168 148 Q 169 148 169 147 Q 170 147 171 145 Q 174 147 177 149 Q 180 150 183 152 Q 202 162 216 176 Q 223 183 231 190 Q 238 197 244 205 Q 248 209 251 212 Q 254 216 258 221 Q 245 235 233 249 Q 220 264 207 278 Q 207 279 207 279 Q 208 279 208 279 Q 219 276 230 273 Q 242 270 253 269 Q 255 275 257 279 Q 258 284 260 289 Q 263 289 266 288 Q 269 288 272 288 Q 275 298 278 307 Q 281 317 284 328 Q 282 330 280 332 Q 278 334 275 337 Q 274 336 274 336 Z M 446 361 Q 444 410 436 458 Q 441 458 444 458 Q 448 458 451 459 Q 453 455 453 454 Q 456 441 459 427 Q 461 414 463 399 Q 467 374 471 348 Q 475 323 478 298 Q 502 256 484 210 Q 483 196 482 183 Q 480 169 477 155 Q 472 138 465 123 Q 458 107 446 94 Q 444 92 442 90 Q 440 88 438 85 Q 428 91 418 95 Q 408 100 397 103 Q 403 94 408 87 Q 414 79 418 71 Q 417 71 416 70 Q 415 68 413 68 Q 412 68 410 67 Q 398 61 385 58 Q 372 56 359 56 Q 337 56 313 61 Q 276 67 242 79 Q 237 81 232 83 Q 227 84 222 86 Q 222 91 225 100 Q 227 109 231 119 Q 234 130 239 139 Q 243 149 248 154 Q 251 153 255 152 Q 275 144 294 138 Q 314 132 335 129 Q 343 128 352 127 Q 360 126 368 126 Q 382 127 391 135 Q 403 146 408 160 Q 414 175 416 190 Q 418 205 419 220 Q 420 239 419 257 Q 418 276 415 294 Q 414 311 412 327 Q 410 344 408 361 Q 406 377 404 393 Q 402 410 399 426 Q 398 431 397 435 Q 397 440 396 444 Q 396 445 397 446 Q 397 446 397 447 Q 399 447 400 445 Q 401 444 401 444 Q 401 443 401 442 Q 406 431 411 420 Q 415 409 420 398 Q 421 395 423 393 Q 423 406 421 419 Q 420 425 420 431 Q 419 438 418 444 H 419 Q 424 423 429 401 Q 433 380 438 359 H 442 Q 443 360 444 360 Q 445 360 446 361 Z M 67 460 Q 68 461 70 461 Q 71 461 73 462 Q 83 464 92 463 Q 102 463 112 461 Q 139 457 164 448 Q 189 440 213 428 Q 214 427 216 427 Q 217 426 218 425 Q 213 412 208 398 Q 203 385 198 372 Q 197 372 196 372 Q 195 372 194 373 Q 182 378 170 383 Q 158 388 145 391 Q 134 394 122 397 Q 110 399 98 401 Q 92 401 88 398 Q 84 394 88 386 Q 92 377 96 368 Q 100 359 106 350 Q 118 331 131 313 Q 145 296 160 279 Q 176 260 192 241 Q 208 223 224 205 Q 226 201 228 199 Q 217 184 203 173 Q 189 161 172 152 Q 167 158 162 164 Q 157 170 152 176 Q 130 203 109 230 Q 88 257 68 285 Q 56 302 46 319 Q 37 336 29 355 Q 25 366 22 377 Q 19 389 20 401 Q 21 426 37 442 Q 40 444 42 446 Q 45 448 48 450 Q 57 442 65 433 Q 73 425 81 417 Q 82 417 82 417 Q 82 418 83 418 Q 75 440 67 460 Z M 100 230 Q 98 229 96 229 Q 95 229 94 228 Q 91 226 87 225 Q 83 223 80 221 Q 71 216 73 207 Q 73 199 75 194 Q 81 176 93 162 Q 102 152 111 142 Q 119 132 128 123 Q 143 108 158 94 Q 173 81 189 68 Q 190 67 191 66 Q 192 66 193 64 Q 190 59 188 55 Q 185 51 181 46 Q 179 48 177 49 Q 171 51 166 55 Q 161 59 154 62 Q 151 63 147 63 Q 144 63 143 61 Q 143 59 144 57 Q 145 54 148 53 Q 152 48 156 42 Q 161 37 165 32 Q 166 31 167 29 Q 162 23 157 18 Q 152 13 145 8 Q 144 10 143 11 Q 124 27 107 44 Q 91 61 74 80 Q 63 93 52 106 Q 42 118 33 133 Q 24 147 18 161 Q 12 175 10 192 Q 6 221 19 244 Q 32 267 58 278 Q 62 279 63 279 Q 72 268 81 255 Q 91 243 100 230 Z M 225 333 Q 225 333 225 333 Q 226 332 227 330 Q 229 329 230 328 Q 235 324 241 319 Q 247 313 252 308 Q 253 307 255 306 Q 256 306 255 303 Q 253 297 251 290 Q 249 283 247 276 Q 228 279 211 285 Q 194 290 178 301 Q 194 340 208 379 Q 223 418 236 457 Q 240 457 249 456 Q 257 454 265 452 Q 274 449 281 447 Q 289 444 291 442 Q 291 438 289 429 Q 286 419 283 406 Q 280 394 276 380 Q 273 367 270 355 Q 266 343 264 335 Q 261 326 260 325 Q 252 327 243 329 Q 234 332 225 333 Z M 195 364 Q 190 351 185 339 Q 180 327 175 314 Q 161 332 147 350 Q 133 368 122 390 Q 141 385 159 379 Q 177 373 195 364 Z" fill="black" />
  </g>
  <g class="defect" id="01">
    <path d="M 109 220 Q 108 202 139 184" fill="none" stroke="red" stroke-width="3" />
  </g>
  <g class="defect" id="02">
    <path d="M 478 298 Q 502 256 484 210" fill="none" stroke="red" stroke-width="3" />
  </g>
</svg>