<svg xmlns="http://www.w3.org/2000/svg" width="512" height="512" viewBox="0 0 512 512">
  <g class="glyph">
    <path d="M 220 334 Q 172 338 125 342 Q 78 346 31 350 Q 30 345 28 340 Q 26 335 24 331 H 12 Q 11 327 10 323 Q 9 320 8 315 Q 0 282 5 247 Q 6 244 7 243 Q 8 243 11 243 Q 26 241 42 241 Q 58 240 73 240 Q 96 239 118 237 Q 152 219 163 235 Q 174 234 184 234 Q 194 234 205 233 Q 206 233 208 233 Q 209 233 212 233 Q 209 201 207 169 Q 205 138 202 106 Q 183 105 164 106 Q 145 106 125 106 Q 107 106 88 106 Q 69 107 49 107 Q 48 103 47 98 Q 45 93 44 89 H 31 Q 27 82 26 70 Q 24 59 24 46 Q 24 33 26 21 Q 28 9 31 0 Q 43 1 54 1 Q 66 1 78 2 Q 79 5 80 8 Q 80 10 82 13 Q 82 16 82 17 Q 83 20 85 20 Q 87 18 87 17 Q 89 11 90 7 Q 90 6 90 5 Q 90 3 91 2 Q 184 5 275 8 Q 367 12 459 19 Q 460 24 460 28 Q 460 31 461 36 Q 465 37 469 37 Q 472 37 476 37 Q 478 42 479 51 Q 479 60 479 71 Q 479 81 477 92 Q 475 102 473 109 Q 427 108 381 106 Q 336 105 290 105 V 110 Q 294 111 299 112 Q 303 112 307 113 Q 308 142 309 170 Q 310 198 311 227 Q 355 226 399 224 Q 442 222 486 219 Q 488 223 489 228 Q 489 233 490 237 H 504 Q 507 243 507 248 Q 508 253 509 258 Q 510 264 509 266 Q 509 268 503 271 Q 501 273 495 275 Q 495 276 494 277 Q 493 278 492 279 Q 497 280 502 279 Q 506 278 511 278 Q 512 286 511 293 Q 511 300 510 308 Q 461 313 413 316 Q 364 320 315 324 Q 316 363 318 402 Q 302 421 322 480 Q 299 494 312 483 Q 307 484 302 485 Q 302 479 302 474 Q 301 469 301 464 Q 298 463 298 465 V 474 V 481 Q 292 482 286 482 Q 281 482 275 483 V 476 H 274 Q 273 482 272 488 Q 262 487 251 486 Q 250 481 250 477 Q 250 473 248 469 Q 244 468 241 468 Q 237 468 232 467 Q 227 402 220 334 Z M 482 228 Q 363 234 247 240 Q 131 245 13 251 Q 12 258 11 268 Q 10 278 11 289 Q 12 300 14 309 Q 16 319 19 324 Q 251 304 486 285 V 270 Q 474 271 464 272 Q 453 273 442 268 Q 453 263 464 258 Q 475 253 485 246 Q 482 236 482 228 Z M 453 27 Q 363 20 274 16 Q 186 13 97 10 Q 94 20 92 30 Q 90 39 82 47 Q 79 37 77 28 Q 75 19 72 10 Q 63 9 54 9 Q 45 9 36 9 Q 33 27 32 45 Q 31 63 36 82 H 42 Q 54 82 64 81 Q 75 81 87 81 Q 110 81 133 81 Q 156 80 180 80 Q 209 80 237 80 Q 265 80 294 81 Q 314 81 335 81 Q 355 81 376 82 Q 388 82 400 83 Q 412 83 424 83 H 448 Q 452 69 453 55 Q 454 41 453 27 Z M 209 106 Q 212 138 214 169 Q 216 201 219 234 Q 236 233 253 232 Q 270 231 287 230 Q 286 197 285 166 Q 284 134 283 102 Q 264 99 246 100 Q 228 100 209 106 Z M 272 458 Q 273 428 275 399 Q 278 371 282 342 Q 289 399 292 459 Q 293 458 294 458 Q 296 458 297 458 Q 295 420 293 383 Q 292 346 289 308 Q 273 310 258 311 Q 243 313 226 314 Q 230 351 233 388 Q 236 425 240 462 H 248 Q 250 453 251 445 Q 253 436 255 427 Q 260 436 262 443 Q 264 447 264 450 Q 265 454 266 459 Q 267 458 269 458 Q 270 458 272 458 Z" fill="black" />
  </g>
  <g class="defect" id="01">
    <path d="M 118 237 Q 152 219 163 235" fill="none" stroke="red" stroke-width="3" />
  </g>
  <g class="defect" id="02">
    <path d="M 322 480 Q 299 494 312 483" fill="none" stroke="red" stroke-width="3" />
  </g>
  <g class="defect" id="03">
    <path d="M 318 402 Q 302 421 322 480" fill="none" stroke="red" stroke-width="3" />
  </g>
</svg>