<svg xmlns="http://www.w3.org/2000/svg" width="512" height="512" viewBox="0 0 512 512">
  <g class="glyph">
    <path d="M 22 150 Q 20 151 17 151 Q 14 151 11 151 Q 8 145 6 134 Q 3 124 2 112 Q 2 101 2 89 Q 3 77 5 69 Q 48 66 91 65 Q 133 63 177 61 Q 170 50 163 40 Q 178 24 196 15 Q 215 5 235 0 Q 238 4 239 9 Q 241 14 244 19 Q 246 18 248 18 Q 250 18 252 17 Q 256 24 259 30 Q 261 37 264 45 Q 262 46 260 48 Q 258 49 256 50 Q 256 51 257 51 Q 259 50 261 50 Q 263 49 265 49 Q 267 52 268 55 Q 269 59 273 59 Q 280 59 287 59 Q 294 59 301 58 Q 329 58 356 58 Q 384 58 411 57 Q 414 57 417 57 Q 420 58 423 58 Q 424 62 425 66 Q 426 70 427 74 H 440 Q 441 77 442 80 Q 443 84 444 89 Q 444 93 444 97 Q 445 102 444 104 Q 442 105 440 105 Q 438 106 435 107 Q 434 107 432 107 Q 430 108 427 109 Q 432 111 436 111 Q 440 111 445 113 Q 445 126 442 142 Q 349 147 256 152 Q 259 155 261 157 Q 263 159 264 162 Q 267 165 270 164 Q 283 163 295 163 Q 308 163 320 162 L 369 160 Q 380 160 390 160 Q 400 159 411 159 H 420 Q 421 163 422 167 Q 422 171 423 176 H 437 Q 439 182 440 188 Q 440 193 441 200 Q 438 202 435 203 Q 432 204 428 206 V 207 L 441 209 V 231 Q 441 234 440 239 Q 440 242 436 242 Q 427 243 417 244 Q 407 245 397 246 Q 383 247 369 248 Q 354 249 340 251 H 332 Q 328 251 327 253 Q 331 254 335 254 Q 339 255 344 256 Q 344 261 344 266 Q 344 270 345 275 Q 359 272 372 269 Q 385 266 398 262 Q 401 266 403 271 Q 404 276 407 281 Q 409 280 411 280 Q 413 279 415 279 Q 418 282 421 290 Q 424 298 427 307 Q 430 317 432 326 Q 434 336 434 342 Q 433 343 432 344 Q 431 344 430 344 Q 411 350 392 355 Q 373 360 354 365 Q 351 365 350 365 Q 348 366 348 366 Q 348 367 348 370 Q 372 369 397 367 Q 421 366 446 365 Q 447 370 448 374 Q 449 378 450 383 H 462 Q 464 386 466 394 Q 468 403 469 413 Q 470 423 469 433 Q 469 442 467 449 Q 438 452 409 454 Q 379 457 350 460 V 503 Q 319 512 284 507 Q 283 503 283 499 Q 283 498 283 496 Q 283 494 282 492 Q 278 491 274 491 Q 271 491 266 490 Q 266 484 266 479 Q 265 473 264 467 Q 246 469 229 470 Q 211 472 193 473 Q 192 470 192 466 Q 191 462 190 458 H 189 Q 188 461 187 464 Q 186 467 185 471 Q 184 474 181 474 Q 153 478 124 479 Q 122 475 121 470 Q 120 466 118 461 Q 115 462 112 462 Q 109 462 107 463 Q 99 442 98 422 Q 97 401 101 380 Q 132 379 163 377 Q 193 376 225 375 Q 218 373 213 371 Q 207 370 201 368 Q 190 364 180 357 Q 181 355 182 354 Q 182 352 183 351 Q 177 347 176 347 Q 174 347 170 349 Q 166 346 163 343 Q 160 339 157 335 Q 155 332 152 332 Q 152 332 149 329 Q 129 309 126 281 Q 126 278 125 274 Q 125 271 124 267 Q 121 267 120 263 Q 119 258 117 254 L 116 249 Q 114 249 114 253 Q 112 261 111 270 Q 109 278 108 286 Q 105 305 103 324 Q 100 344 97 363 Q 95 381 92 400 Q 90 419 87 438 Q 86 444 85 451 Q 85 458 84 465 Q 84 466 83 467 Q 83 469 83 470 Q 79 471 71 471 Q 64 472 60 471 V 454 Q 57 453 57 457 Q 55 461 54 466 Q 52 471 51 476 Q 51 477 51 478 Q 51 479 50 480 Q 46 479 42 478 Q 39 477 35 476 V 465 Q 33 468 32 468 Q 31 468 28 467 Q 25 466 23 466 Q 20 465 17 465 V 447 Q 17 448 16 449 Q 16 450 15 451 Q 11 450 8 449 Q 4 448 0 447 Q 1 442 1 438 Q 1 433 1 428 Q 2 415 3 402 Q 4 390 5 377 Q 7 360 8 343 Q 10 326 11 309 Q 13 294 14 279 Q 15 265 17 251 Q 18 235 20 220 Q 22 204 24 189 Q 24 184 25 179 Q 26 174 26 169 V 164 Q 26 160 24 157 Q 23 154 22 150 Z M 21 142 Q 34 141 46 141 Q 58 140 71 139 Q 95 136 120 134 Q 145 132 170 130 Q 193 129 217 127 Q 240 126 264 124 Q 288 123 311 122 Q 335 121 359 120 Q 373 118 387 118 Q 400 118 414 117 Q 415 117 417 117 Q 418 116 419 116 Q 420 112 420 108 Q 420 104 421 99 Q 407 98 394 96 Q 380 94 366 92 V 91 Q 380 89 393 86 Q 407 84 420 81 Q 420 73 417 64 H 409 Q 388 64 366 64 Q 345 64 324 64 Q 312 64 301 64 Q 289 65 277 65 Q 259 65 242 66 Q 224 66 207 67 Q 186 68 166 68 Q 145 69 124 70 Q 97 71 70 73 Q 43 74 16 75 Q 13 75 11 76 Q 9 93 9 110 Q 10 126 16 142 Z M 108 388 Q 102 423 111 455 Q 124 454 135 453 Q 147 452 158 451 Q 161 451 163 447 Q 165 440 167 433 Q 168 426 171 419 Q 172 414 173 411 H 174 Q 176 420 178 430 Q 180 439 183 448 Q 188 448 209 447 Q 230 445 259 442 Q 288 440 320 437 Q 352 434 379 431 Q 407 428 425 426 Q 443 424 444 424 Q 447 397 440 372 Q 356 376 274 380 Q 191 384 108 388 Z M 9 441 Q 13 444 14 440 Q 15 435 17 431 Q 18 427 20 422 Q 21 421 21 420 Q 22 419 22 417 Q 24 415 27 416 Q 28 416 29 419 Q 30 421 29 426 Q 28 432 28 438 Q 28 444 27 450 Q 27 453 30 453 Q 36 429 42 405 Q 48 381 55 357 Q 54 379 54 401 Q 53 423 52 446 Q 54 446 57 446 Q 59 446 61 446 Q 68 385 77 325 Q 85 266 95 205 Q 86 201 78 198 Q 55 179 61 191 V 190 Q 71 189 79 189 Q 88 188 97 188 Q 99 178 101 168 Q 102 159 104 149 Q 101 148 98 148 Q 95 147 92 146 Q 88 145 84 144 Q 80 143 76 144 Q 69 145 63 145 Q 56 146 49 146 Q 46 147 42 147 Q 39 147 36 147 Q 27 222 21 295 Q 14 367 9 441 Z M 238 293 Q 222 293 209 288 Q 200 284 198 279 Q 195 274 197 265 Q 198 257 201 250 Q 204 243 208 236 Q 217 216 228 198 Q 239 179 250 161 Q 251 159 252 157 Q 249 154 246 152 Q 243 149 241 147 Q 237 145 233 142 Q 229 139 225 136 Q 223 135 221 135 Q 220 134 217 134 Q 211 135 204 136 Q 197 136 191 136 Q 185 136 183 140 Q 177 154 170 167 Q 163 180 156 194 Q 149 207 144 221 Q 139 234 136 248 Q 133 262 133 275 Q 134 288 140 301 Q 145 314 154 322 Q 164 316 173 310 Q 182 304 191 298 Q 191 309 187 316 Q 183 320 181 325 Q 179 328 177 330 Q 176 333 173 336 Q 192 347 213 349 Q 233 352 255 351 Q 253 336 252 322 Q 251 308 249 293 Z M 411 165 Q 394 165 377 166 Q 360 166 342 167 Q 322 168 301 168 Q 279 169 258 170 Q 252 170 250 174 Q 242 189 234 202 Q 226 216 218 230 Q 218 231 217 234 Q 268 230 317 226 Q 366 222 417 217 Q 417 212 418 207 Q 419 202 417 197 Q 410 196 402 194 Q 395 193 387 190 Q 395 187 402 184 Q 409 180 417 177 Q 416 174 416 171 Q 415 168 415 165 Z M 320 244 Q 303 241 286 242 Q 269 242 252 247 Q 255 279 258 310 Q 260 341 263 373 Q 278 373 293 372 Q 308 372 323 371 Q 322 338 322 307 Q 321 276 320 244 Z M 395 270 Q 378 274 361 278 Q 345 282 328 285 Q 329 299 329 313 Q 329 327 329 341 Q 350 337 370 332 Q 390 327 409 320 Q 407 294 395 270 Z M 108 175 Q 103 192 104 209 Q 105 226 111 242 Q 116 242 121 242 Q 126 241 130 241 Q 134 223 142 207 Q 150 190 158 173 Q 145 174 133 174 Q 121 174 108 175 Z M 172 41 Q 175 45 178 50 Q 181 55 185 59 Q 185 61 189 61 Q 201 60 214 60 Q 227 60 240 59 Q 242 59 245 59 Q 248 59 251 59 Q 248 54 247 49 Q 246 44 243 40 Q 230 43 217 47 Q 205 51 192 55 Q 192 54 192 54 Q 191 54 191 54 L 214 39 L 237 24 Q 235 20 234 16 Q 233 13 230 8 Q 214 13 198 22 Q 181 32 172 41 Z M 326 480 Q 326 471 325 462 Q 325 453 324 444 Q 310 445 297 446 Q 284 447 270 448 Q 271 458 271 466 Q 272 475 272 484 Q 286 485 299 484 Q 313 484 326 480 Z M 246 257 Q 242 258 239 258 Q 236 258 233 258 Q 230 258 230 260 Q 224 271 222 283 Q 229 285 235 285 Q 242 285 249 285 Q 247 271 246 257 Z M 124 159 Q 126 162 128 163 Q 130 163 130 167 Q 132 167 134 167 Q 136 166 138 166 Q 143 166 148 166 Q 154 166 159 165 Q 161 165 163 164 Q 164 162 165 160 Q 166 158 167 156 Q 145 159 124 159 Z" fill="black" />
  </g>
  <g class="defect" id="01">
    <path d="M 78 198 Q 55 179 61 191" fill="none" stroke="red" stroke-width="3" />
  </g>
</svg>