<svg xmlns="http://www.w3.org/2000/svg" width="512" height="512" viewBox="0 0 512 512">
  <g class="glyph">
    <path d="M 491 136 Q 495 136 499 136 Q 502 137 507 137 Q 512 171 503 205 Q 473 205 442 205 Q 411 204 380 204 Q 379 214 378 225 Q 377 236 376 247 Q 379 246 380 246 Q 381 247 382 248 Q 385 250 388 254 L 458 324 Q 467 332 475 341 Q 483 350 492 359 Q 485 374 473 386 Q 462 399 448 410 Q 428 394 408 379 Q 388 363 368 347 Q 366 366 365 385 Q 364 403 363 421 Q 376 422 361 458 Q 360 477 359 495 Q 352 498 339 498 Q 326 499 319 498 Q 318 494 318 490 Q 318 486 318 482 Q 316 484 316 486 Q 316 488 315 490 Q 314 492 314 494 Q 314 495 313 498 Q 310 498 307 497 Q 305 497 302 496 Q 299 496 296 496 Q 294 495 291 494 V 480 Q 286 479 282 478 Q 278 478 273 477 Q 273 409 274 341 Q 276 274 279 205 Q 262 206 244 206 Q 227 207 210 207 Q 209 203 208 199 Q 207 194 206 190 H 194 Q 193 194 193 198 Q 192 202 191 205 Q 191 208 191 211 Q 191 213 190 216 Q 189 221 190 225 Q 191 229 194 233 Q 196 232 198 232 Q 201 231 203 230 Q 210 246 215 262 Q 219 279 223 296 Q 213 302 202 307 Q 191 311 180 315 Q 176 357 172 398 Q 169 440 166 482 Q 160 482 155 483 Q 150 483 144 484 V 465 Q 140 464 140 465 Q 139 466 138 469 Q 137 474 136 480 Q 135 486 134 492 Q 133 493 133 494 Q 133 495 132 497 Q 129 496 126 495 Q 123 494 120 492 V 477 H 116 Q 115 479 111 478 Q 105 476 97 473 V 459 Q 92 458 88 458 Q 84 457 79 456 Q 79 423 80 391 Q 81 358 83 325 Q 72 322 64 318 Q 55 313 48 306 Q 48 305 49 304 Q 49 303 49 302 Q 44 299 40 296 Q 35 292 30 288 Q 32 284 29 281 Q 27 278 27 274 Q 25 274 23 275 Q 21 276 20 276 Q 17 272 15 269 Q 12 265 10 261 Q 5 250 3 239 Q 1 228 1 216 Q 0 198 3 181 Q 5 163 10 146 Q 12 134 15 123 Q 18 111 21 100 Q 22 97 22 95 Q 41 95 60 102 Q 59 105 59 108 Q 58 111 58 114 Q 60 116 61 113 Q 63 111 64 109 Q 65 107 66 105 Q 75 107 81 111 Q 88 115 96 120 Q 98 103 99 87 Q 101 70 103 54 Q 125 50 146 53 Q 167 56 188 63 Q 187 66 187 69 Q 187 72 186 75 Q 191 76 196 78 Q 198 79 201 80 Q 203 80 205 81 Q 204 87 204 93 Q 203 99 203 105 Q 229 106 255 107 Q 280 108 308 109 Q 307 107 306 106 Q 306 105 305 103 L 271 49 L 266 41 Q 281 25 300 16 Q 319 6 340 0 Q 343 5 345 10 Q 347 15 350 20 L 358 18 Q 362 27 366 37 Q 370 46 375 56 Q 373 57 372 57 Q 371 58 370 59 Q 370 59 370 60 Q 372 60 373 60 Q 374 60 376 59 Q 382 73 387 87 Q 393 100 398 114 Q 407 115 416 115 Q 424 115 433 116 Q 446 117 459 118 Q 471 118 484 120 Q 487 120 487 121 Q 488 121 488 124 Q 489 127 490 129 Q 491 132 491 136 Z M 197 112 Q 194 130 193 147 Q 193 165 197 182 Q 233 181 268 180 Q 303 180 338 180 Q 374 179 409 179 Q 444 180 480 180 Q 481 176 482 168 Q 464 160 483 152 Q 484 144 483 137 Q 483 130 482 127 Q 411 121 340 117 Q 269 114 197 112 Z M 52 107 Q 46 105 40 104 Q 35 102 29 102 Q 28 105 28 105 Q 22 126 17 147 Q 12 168 10 191 Q 9 203 9 216 Q 9 228 12 240 Q 13 247 16 254 Q 18 261 23 267 Q 33 262 43 257 Q 53 253 63 248 Q 57 258 51 268 Q 46 277 39 287 Q 43 289 46 291 Q 48 293 51 295 Q 64 302 78 303 Q 92 305 106 303 Q 121 302 136 298 Q 150 294 165 289 Q 173 286 181 283 Q 189 279 197 274 Q 194 261 191 248 Q 187 235 181 222 Q 175 225 170 227 Q 165 228 159 231 Q 147 235 135 239 Q 122 242 109 244 Q 103 245 97 245 Q 91 245 85 244 Q 69 240 68 225 Q 67 219 67 214 Q 68 209 68 204 Q 70 189 73 174 Q 77 160 81 146 Q 83 140 85 135 Q 86 129 88 123 Q 84 120 80 118 Q 75 116 71 113 Q 63 125 57 136 Q 50 148 42 159 Q 45 146 47 133 Q 50 120 52 107 Z M 287 187 Q 279 329 280 470 Q 283 471 285 471 Q 287 471 290 472 Q 294 458 297 444 Q 300 431 303 418 H 305 Q 306 432 306 446 Q 307 459 308 473 Q 322 474 335 472 Q 336 468 336 464 Q 336 460 336 456 Q 337 442 337 428 Q 338 414 339 400 Q 341 365 344 330 Q 344 324 340 321 Q 336 318 332 315 Q 329 312 324 308 Q 326 304 328 301 Q 332 294 336 288 Q 340 282 345 276 Q 348 273 348 269 Q 350 253 351 237 Q 353 221 354 205 Q 354 201 355 196 Q 355 191 355 187 Z M 175 110 Q 165 108 156 106 Q 146 105 137 102 V 102 Q 147 99 157 97 Q 167 94 177 92 Q 179 86 179 80 Q 192 90 181 68 Q 163 62 146 60 Q 129 57 110 59 Q 106 104 102 148 Q 98 191 95 235 Q 99 237 107 236 Q 115 235 124 232 Q 134 230 144 227 Q 154 223 163 219 Q 166 192 169 165 Q 172 138 175 110 Z M 110 464 Q 115 440 120 415 Q 124 391 129 367 H 130 Q 131 389 132 412 Q 132 434 133 457 Q 136 457 137 457 Q 139 457 140 457 Q 144 417 147 378 Q 151 339 154 300 Q 138 304 123 307 Q 107 310 91 310 Q 89 346 88 380 Q 87 414 87 449 Q 90 450 92 450 Q 94 450 97 451 Q 100 441 102 432 Q 105 422 108 412 H 109 Q 109 426 109 439 Q 109 451 110 464 Z M 333 306 Q 357 325 381 344 Q 406 363 431 382 Q 441 373 450 363 Q 458 353 465 342 Q 458 335 451 328 Q 444 321 437 314 Q 428 318 419 324 Q 410 329 400 333 Q 400 332 399 332 Q 405 323 411 315 Q 416 306 421 298 Q 410 287 400 276 Q 389 265 379 254 Q 373 258 366 264 Q 359 270 353 278 Q 346 285 341 293 Q 336 300 333 306 Z M 349 35 Q 346 28 343 22 Q 340 16 337 9 Q 320 14 305 22 Q 290 29 277 41 V 43 Q 287 59 296 75 Q 306 91 316 107 Q 318 110 321 110 Q 331 110 341 110 Q 351 111 361 112 Q 366 112 370 110 Q 374 108 377 105 Q 372 91 366 77 Q 361 64 355 50 Q 346 53 337 56 Q 328 59 318 62 Q 318 61 318 61 Q 325 54 333 48 Q 340 42 349 35 Z" fill="black" />
  </g>
  <g class="defect" id="01">
    <path d="M 482 168 Q 464 160 483 152" fill="none" stroke="red" stroke-width="3" />
  </g>
  <g class="defect" id="02">
    <path d="M 179 80 Q 192 90 181 68" fill="none" stroke="red" stroke-width="3" />
  </g>
  <g class="defect" id="03">
    <path d="M 363 421 Q 376 422 361 458" fill="none" stroke="red" stroke-width="3" />
  </g>
</svg>