<svg xmlns="http://www.w3.org/2000/svg" width="512" height="512" viewBox="0 0 512 512">
  <g class="glyph">
    <path d="M 1 186 Q 1 183 2 181 Q 2 178 2 176 Q 3 154 8 134 Q 12 114 19 93 Q 20 91 20 88 Q 21 86 22 84 Q 29 82 36 85 Q 43 87 50 90 Q 50 93 49 96 Q 49 98 49 101 Q 50 101 51 100 Q 52 99 57 92 Q 64 95 70 99 Q 77 103 84 108 Q 86 91 87 75 Q 88 58 90 42 Q 111 38 131 41 Q 151 44 170 52 Q 170 55 170 57 Q 170 60 169 63 Q 174 64 178 66 Q 183 68 188 69 Q 187 79 186 87 Q 184 96 183 105 Q 196 102 208 101 Q 220 100 233 102 Q 233 104 233 107 Q 234 109 234 112 Q 237 111 239 111 Q 241 110 244 109 Q 244 105 244 102 Q 243 98 243 95 H 227 Q 226 91 225 86 Q 223 82 222 77 H 210 Q 207 72 205 62 Q 204 52 203 41 Q 203 29 204 19 Q 205 8 207 1 Q 254 0 300 1 Q 347 2 394 4 Q 394 7 394 9 Q 395 11 395 13 Q 395 16 397 22 Q 399 17 400 13 Q 400 9 402 5 Q 418 6 434 7 Q 449 8 465 9 Q 466 13 467 17 Q 467 21 467 25 Q 471 26 475 26 Q 478 26 483 27 Q 485 43 485 58 Q 484 73 481 88 H 445 Q 445 92 443 97 Q 446 98 449 99 Q 452 100 455 101 Q 457 102 460 103 Q 461 103 462 104 Q 463 104 463 106 Q 463 108 465 109 Q 468 112 472 115 Q 475 118 478 122 Q 479 123 480 124 Q 481 125 483 126 Q 493 135 499 145 Q 497 146 495 148 Q 493 150 492 151 Q 492 152 492 152 Q 492 152 492 152 Q 495 151 497 151 Q 499 150 501 149 Q 508 159 509 171 Q 512 183 511 194 Q 510 205 508 216 Q 502 237 492 256 Q 486 257 482 254 Q 477 252 471 251 Q 471 254 472 255 H 485 Q 487 260 488 266 Q 489 272 489 276 Q 484 278 480 280 Q 478 281 475 282 Q 473 283 472 286 Q 474 287 476 286 Q 478 286 480 286 H 489 Q 490 291 490 298 Q 489 306 487 312 Q 473 313 458 314 Q 444 314 429 317 Q 430 317 431 318 Q 432 318 433 318 Q 446 323 457 330 Q 468 337 475 347 Q 477 349 479 350 Q 495 363 502 380 Q 509 397 508 417 Q 507 432 503 446 Q 499 460 493 474 Q 491 478 489 483 Q 487 487 484 492 Q 481 491 478 491 Q 475 490 472 490 Q 474 479 477 470 Q 477 470 477 469 Q 474 474 472 478 Q 471 482 468 487 Q 464 484 461 482 Q 457 480 454 478 Q 454 477 454 475 Q 454 473 455 472 Q 454 472 454 472 Q 454 472 454 472 Q 453 473 451 475 Q 450 477 448 478 Q 444 475 440 473 Q 437 471 433 469 Q 434 465 436 461 Q 437 457 438 454 Q 437 454 437 453 Q 437 453 437 453 Q 434 457 431 461 Q 427 459 423 456 Q 419 454 415 451 Q 421 437 426 424 Q 431 410 431 394 Q 428 393 426 392 Q 424 392 420 391 Q 420 396 419 401 Q 419 406 418 410 Q 416 426 414 443 Q 413 460 411 476 Q 410 480 408 480 Q 398 481 384 480 Q 370 479 360 475 V 462 Q 356 461 353 460 Q 349 460 346 459 V 475 Q 333 479 321 479 Q 308 480 296 478 Q 295 474 295 470 Q 295 466 294 462 Q 290 462 286 461 Q 283 461 278 460 Q 277 450 276 440 Q 275 431 273 420 Q 271 421 268 423 Q 266 424 263 425 Q 266 439 268 453 Q 270 467 272 481 Q 259 487 246 490 Q 232 493 218 494 Q 217 489 215 485 Q 214 480 212 476 H 200 Q 199 472 198 468 Q 197 463 195 460 Q 193 451 191 442 Q 189 434 187 425 Q 186 422 188 419 Q 190 418 192 416 Q 193 415 194 413 Q 195 413 197 410 Q 193 409 190 411 Q 187 412 184 412 Q 183 410 180 400 Q 178 390 175 378 Q 173 366 171 355 Q 169 345 169 342 Q 180 337 192 335 Q 203 332 215 331 Q 214 326 213 322 Q 211 318 210 313 Q 207 313 204 313 Q 201 313 198 313 Q 195 307 194 301 Q 193 295 192 289 Q 187 290 184 292 Q 181 294 177 295 Q 173 297 170 298 Q 166 300 163 301 Q 154 384 150 467 Q 144 468 139 468 Q 134 469 129 469 Q 129 464 129 460 Q 128 455 128 451 Q 125 450 125 451 Q 124 451 124 453 Q 123 457 123 461 Q 122 465 122 469 Q 121 472 120 475 Q 120 479 119 483 Q 116 481 113 480 Q 110 479 106 478 V 463 Q 103 460 101 465 Q 97 463 93 461 Q 89 460 85 458 V 444 Q 80 444 76 443 Q 73 442 68 442 Q 68 425 68 408 Q 68 391 68 374 Q 69 358 70 342 Q 70 325 70 308 Q 68 307 66 306 Q 63 304 61 302 Q 58 301 55 299 Q 52 296 50 294 Q 46 291 47 289 Q 43 285 38 282 Q 33 278 29 275 Q 32 270 29 266 Q 27 263 26 259 Q 24 260 23 260 Q 21 261 20 261 Q 19 261 18 260 Q 18 259 17 259 Q 10 248 7 237 Q 3 226 2 213 Q 2 211 1 208 Q 1 206 0 203 Q 1 200 1 195 Q 1 190 1 186 Z M 466 455 Q 469 450 470 446 Q 475 433 479 420 Q 483 407 483 392 Q 481 352 447 331 Q 437 325 425 322 Q 414 319 403 317 Q 388 314 372 314 Q 356 314 340 315 Q 314 319 290 326 Q 266 332 242 342 Q 241 343 240 343 Q 239 343 238 344 Q 240 356 241 370 Q 242 383 244 395 Q 244 396 246 399 Q 248 398 250 397 Q 252 396 253 395 Q 266 389 279 384 Q 291 379 305 376 Q 324 370 343 366 Q 362 362 383 363 Q 403 364 420 370 Q 430 374 434 380 Q 438 386 438 397 V 398 Q 438 412 432 426 Q 430 431 428 436 Q 426 442 425 448 Q 426 449 427 449 Q 427 449 428 450 Q 434 443 439 436 Q 444 429 449 422 Q 450 426 449 428 Q 448 434 447 441 Q 446 447 445 453 Q 444 454 444 455 Q 444 456 447 457 Q 454 442 462 426 Q 485 410 477 395 H 478 Z M 51 233 Q 51 233 52 233 Q 48 243 45 254 Q 41 264 38 273 Q 46 281 56 285 Q 66 289 77 291 Q 84 292 91 291 Q 97 290 104 289 Q 122 285 138 280 Q 155 275 171 266 Q 172 265 174 264 Q 175 263 177 261 Q 175 248 171 235 Q 168 222 163 210 Q 159 211 157 212 Q 145 217 132 221 Q 120 226 108 229 Q 92 234 76 232 Q 57 229 56 211 Q 55 204 56 197 Q 57 190 58 183 Q 60 169 64 155 Q 67 141 72 127 Q 73 123 74 119 Q 75 115 76 110 Q 72 108 68 106 Q 64 104 59 102 Q 53 114 47 125 Q 40 136 34 147 Q 33 147 33 147 Q 35 134 37 121 Q 40 108 41 94 Q 38 93 34 91 Q 31 90 28 91 Q 27 93 27 93 Q 19 116 14 139 Q 10 163 9 187 Q 8 200 9 212 Q 10 224 14 236 Q 16 241 17 245 Q 19 250 22 255 Q 30 249 37 244 Q 44 239 51 233 Z M 456 63 Q 461 40 459 16 Q 445 15 433 14 Q 420 14 407 13 Q 404 23 401 35 Q 398 46 395 56 Q 376 45 391 34 Q 389 23 386 11 Q 342 9 299 8 Q 255 7 211 8 Q 209 24 209 39 Q 210 54 214 70 Q 275 66 335 65 Q 395 63 456 63 Z M 199 253 Q 198 267 198 280 Q 199 294 204 307 Q 269 301 334 296 Q 398 290 463 287 Q 463 284 464 281 Q 465 278 464 275 Q 451 275 438 275 Q 425 276 412 275 Q 425 269 437 264 Q 450 259 463 253 V 249 Q 462 248 462 247 Q 462 246 462 245 Q 331 246 199 253 Z M 157 98 Q 148 96 139 94 Q 131 92 122 91 Q 126 88 131 87 Q 136 86 140 85 Q 145 84 150 83 Q 154 81 159 80 Q 160 74 161 68 Q 161 62 162 56 Q 157 53 147 51 Q 138 49 129 48 Q 119 47 110 47 Q 102 47 97 49 Q 92 93 89 137 Q 85 181 82 225 Q 100 225 115 220 Q 130 215 145 209 Q 148 181 151 153 Q 154 126 157 98 Z M 390 94 Q 349 92 311 99 Q 273 105 235 120 Q 235 123 236 132 Q 237 140 238 149 Q 240 158 241 166 Q 242 173 242 175 Q 259 167 276 161 Q 293 156 311 151 Q 342 166 347 145 Q 365 142 383 142 Q 385 129 386 118 Q 388 106 390 94 Z M 116 352 Q 116 375 117 398 Q 118 421 118 445 Q 123 445 125 444 Q 128 405 132 366 Q 135 328 138 288 Q 123 292 109 296 Q 95 300 79 299 Q 78 334 76 368 Q 75 403 75 438 Q 78 438 80 438 Q 82 438 84 439 Q 87 428 89 419 Q 92 409 96 400 L 97 449 H 98 Q 102 424 106 400 Q 110 376 115 352 Z M 242 228 Q 237 197 234 168 Q 230 138 225 108 Q 212 106 199 108 Q 186 110 172 116 Q 178 147 186 177 Q 193 206 201 236 Q 212 236 222 234 Q 232 231 242 228 Z M 206 469 Q 226 467 246 460 Q 241 430 238 400 Q 234 370 230 341 Q 225 340 218 340 Q 211 340 203 341 Q 194 342 187 344 Q 180 347 177 349 Q 180 363 183 377 Q 186 390 189 404 Q 200 400 210 397 Q 221 394 230 389 Q 230 391 228 392 Q 221 400 213 407 Q 205 414 197 421 Q 194 424 195 428 Q 197 436 199 442 Q 200 449 202 456 Q 203 459 204 462 Q 205 466 206 469 Z M 398 84 Q 394 117 389 150 Q 385 182 380 215 Q 395 221 409 220 Q 416 187 423 155 Q 430 123 437 90 Q 427 87 418 85 Q 408 83 398 84 Z M 480 140 Q 477 141 474 142 Q 472 144 469 145 Q 467 146 464 147 Q 462 148 459 149 Q 457 150 454 151 Q 452 153 449 153 Q 458 137 472 126 Q 460 110 443 104 Q 442 104 442 105 Q 439 116 437 126 Q 435 137 433 148 Q 432 151 434 152 Q 440 157 442 166 Q 443 169 443 171 Q 443 174 443 176 Q 442 184 440 191 Q 438 198 436 206 Q 435 207 434 209 Q 434 210 433 211 Q 443 217 452 222 Q 461 227 472 229 Q 473 225 475 221 Q 477 218 478 214 Q 483 203 485 191 Q 487 180 487 168 Q 486 161 484 154 Q 483 147 480 140 Z M 311 221 Q 315 222 322 223 Q 329 224 336 224 Q 343 224 349 223 Q 356 222 359 221 Q 359 219 360 208 Q 360 198 361 185 Q 361 173 362 163 Q 362 152 361 151 Q 348 151 335 153 Q 323 156 309 159 Q 309 175 310 190 Q 311 205 311 221 Z M 386 455 Q 389 434 391 413 Q 393 392 396 372 Q 372 369 351 372 V 451 Q 357 454 367 455 Q 377 456 386 455 Z M 320 451 Q 320 450 320 439 Q 320 427 320 415 Q 320 402 320 391 Q 320 380 319 379 Q 308 382 298 385 Q 288 389 277 393 Q 279 408 281 423 Q 283 438 285 454 Q 305 455 320 451 Z M 264 223 Q 271 223 278 223 Q 285 222 293 220 Q 292 206 292 192 Q 291 178 291 164 Q 282 167 274 170 Q 266 173 259 176 Q 260 188 261 199 Q 263 210 264 223 Z M 307 91 Q 322 90 336 89 Q 350 87 366 86 V 72 Q 351 72 337 72 Q 322 72 307 73 Z M 251 106 Q 260 103 269 101 Q 278 98 288 96 Q 287 92 287 88 Q 287 85 287 81 Q 277 80 267 81 Q 258 81 248 84 Q 249 90 250 95 Q 251 100 251 106 Z M 195 243 Q 191 225 186 208 Q 182 190 177 171 Q 176 172 176 173 V 174 Q 175 182 174 191 Q 174 200 172 209 Q 172 212 173 215 Q 174 218 176 221 Q 178 220 180 219 Q 183 218 186 217 Q 188 225 190 232 Q 193 239 195 246 Q 199 245 203 245 Q 206 246 209 243 Z M 293 318 Q 295 317 296 317 Q 309 314 323 312 Q 336 309 350 308 Q 354 308 355 307 Q 356 306 358 301 L 299 306 Q 296 310 293 318 Z M 434 237 Q 438 237 442 237 Q 445 237 448 237 Q 446 235 444 234 Q 443 233 441 231 Q 442 230 442 229 Q 442 227 443 226 Q 441 225 440 225 Q 439 224 437 223 Q 436 227 436 230 Q 436 234 434 237 Z M 265 230 Q 265 234 266 236 Q 266 239 267 242 H 274 Q 273 239 273 236 Q 273 233 273 230 Z M 384 239 H 389 L 391 225 Q 389 225 388 225 Q 386 225 384 224 Z M 240 335 Q 242 334 246 332 Q 249 331 253 329 V 329 Q 246 329 240 330 Q 233 330 226 331 Q 228 332 229 332 Q 231 332 232 333 Q 235 334 240 335 Z M 321 240 Q 323 231 319 230 Q 317 240 321 240 Z" fill="black" />
  </g>
  <g class="defect" id="01">
    <path d="M 462 426 Q 485 410 477 395" fill="none" stroke="red" stroke-width="3" />
  </g>
  <g class="defect" id="02">
    <path d="M 395 56 Q 376 45 391 34" fill="none" stroke="red" stroke-width="3" />
  </g>
  <g class="defect" id="03">
    <path d="M 311 151 Q 342 166 347 145" fill="none" stroke="red" stroke-width="3" />
  </g>
</svg>