<svg xmlns="http://www.w3.org/2000/svg" width="512" height="512" viewBox="0 0 512 512">
  <g class="glyph">
    <path d="M 512 316 Q 511 319 511 320 Q 510 351 507 380 Q 504 408 499 438 Q 498 441 497 444 Q 497 447 496 450 Q 496 450 495 451 Q 487 452 479 451 Q 471 450 463 448 Q 464 453 465 457 Q 466 461 467 465 Q 464 466 462 468 Q 460 469 457 470 Q 437 481 415 486 Q 393 492 371 495 Q 350 498 328 497 Q 318 497 308 495 Q 298 494 289 490 Q 289 487 289 484 Q 289 481 289 478 Q 287 477 285 476 Q 283 476 280 476 Q 279 478 278 480 Q 276 482 274 484 Q 266 480 259 475 Q 252 470 246 464 Q 233 452 220 439 Q 210 428 202 414 Q 194 401 190 387 Q 187 379 185 372 Q 184 364 182 357 Q 181 353 179 353 Q 177 353 177 356 Q 174 357 170 359 Q 167 361 163 363 V 470 Q 157 471 152 471 Q 147 472 142 473 Q 141 468 140 463 Q 139 459 138 453 Q 136 454 136 458 L 134 482 Q 134 483 134 484 Q 133 485 133 486 Q 131 485 128 485 Q 125 484 123 484 Q 122 481 122 478 Q 122 475 121 471 Q 119 471 117 471 Q 115 470 112 470 Q 112 472 111 474 Q 111 476 111 478 Q 106 477 103 477 Q 99 477 95 476 Q 95 471 95 466 Q 94 461 94 456 H 94 Q 93 458 93 458 Q 93 459 93 461 Q 89 460 85 459 Q 82 459 77 459 Q 77 444 76 430 Q 76 416 75 402 Q 70 404 65 406 Q 61 407 55 410 Q 52 405 49 400 Q 46 396 43 390 Q 40 391 37 392 Q 25 374 18 354 Q 12 334 10 312 Q 24 308 38 303 Q 53 298 67 294 Q 66 283 66 273 Q 65 263 65 253 Q 56 253 46 254 Q 37 256 27 257 Q 26 252 25 247 Q 23 243 21 238 Q 18 239 15 239 Q 13 239 10 239 Q 5 229 3 218 Q 2 208 1 196 Q 4 195 8 194 Q 11 192 15 191 Q 19 190 18 186 Q 13 185 9 185 Q 5 185 1 185 Q 0 180 1 172 Q 2 163 3 155 Q 10 154 16 154 Q 22 154 29 154 Q 35 154 42 153 Q 49 153 56 153 Q 53 131 52 110 Q 50 89 48 68 Q 55 64 66 62 Q 76 59 88 58 Q 100 57 111 57 Q 123 58 132 60 Q 132 64 133 67 Q 133 70 133 75 Q 137 75 141 76 Q 145 76 149 77 Q 151 91 151 104 Q 152 117 153 131 Q 151 132 148 133 Q 146 134 143 135 V 136 Q 145 136 148 136 Q 150 136 153 137 Q 153 140 153 143 Q 154 146 154 149 Q 162 149 170 149 Q 178 149 186 148 Q 187 152 188 154 Q 188 157 190 161 Q 192 156 192 151 Q 193 146 194 141 Q 195 136 196 131 Q 197 127 199 121 Q 208 120 216 120 Q 225 121 234 122 Q 233 116 233 111 Q 232 105 231 99 Q 248 93 264 87 Q 281 81 298 77 Q 299 59 299 41 Q 299 24 300 6 Q 320 0 341 1 Q 362 3 383 9 V 15 V 22 Q 386 23 388 23 Q 390 23 392 25 Q 395 25 396 26 Q 398 26 401 27 Q 400 39 400 50 Q 400 62 399 74 Q 400 75 402 75 Q 403 75 405 76 Q 421 81 435 89 Q 448 98 459 111 Q 462 115 465 117 Q 468 120 471 123 Q 474 125 476 128 Q 478 131 481 134 Q 480 136 479 137 Q 478 139 477 140 Q 477 140 477 141 Q 479 140 483 138 Q 484 139 485 140 Q 485 141 486 143 Q 500 164 503 189 Q 511 222 511 254 Q 511 257 512 261 Z M 472 427 Q 472 425 473 424 Q 473 422 473 421 Q 477 405 479 388 Q 482 372 483 355 Q 487 318 488 280 Q 489 232 482 186 Q 479 172 476 160 Q 472 147 466 135 Q 466 134 465 133 Q 464 131 463 130 Q 442 144 421 154 Q 429 144 438 135 Q 446 125 454 116 Q 452 114 451 112 Q 450 111 448 109 Q 437 98 424 91 Q 411 84 396 81 Q 376 76 357 77 Q 338 77 318 81 Q 298 84 279 90 Q 261 96 242 103 Q 241 103 240 104 Q 240 104 239 105 Q 242 122 248 138 Q 254 154 264 169 Q 268 168 271 167 Q 273 166 276 164 Q 293 157 310 152 Q 328 147 346 144 Q 357 143 366 143 Q 376 143 387 146 Q 403 149 411 166 Q 415 172 417 180 Q 419 187 421 194 Q 443 254 429 289 Q 429 306 428 322 Q 428 338 427 355 Q 426 366 424 377 Q 423 389 422 399 Q 421 404 420 408 Q 420 412 419 416 Q 431 421 445 423 Q 458 426 472 427 Z M 204 127 Q 203 129 203 131 Q 202 139 200 147 Q 198 155 196 164 Q 195 173 193 182 Q 191 190 192 199 Q 193 203 192 206 Q 192 210 191 213 Q 191 214 191 215 Q 191 216 191 217 Q 188 217 188 219 Q 188 220 187 222 Q 186 237 185 251 Q 184 265 183 279 Q 182 294 183 308 Q 184 323 186 337 Q 187 349 190 360 Q 192 372 195 383 Q 209 423 241 448 Q 243 451 247 453 Q 250 455 254 458 Q 262 445 268 433 Q 275 421 282 409 Q 283 409 283 409 Q 282 424 281 439 Q 279 453 278 468 Q 280 468 283 469 Q 294 472 305 473 Q 316 474 327 473 Q 379 471 427 451 Q 430 449 433 447 Q 436 446 440 444 Q 439 442 438 440 Q 438 438 437 436 Q 435 429 429 428 Q 424 426 420 424 Q 415 423 410 421 Q 411 415 412 409 Q 412 403 413 397 Q 411 398 409 398 Q 407 399 405 400 Q 382 409 358 413 Q 334 417 308 414 Q 288 413 275 400 Q 266 392 261 382 Q 256 372 253 360 Q 249 343 247 324 Q 246 306 247 287 Q 249 243 259 198 Q 260 193 261 188 Q 262 183 263 179 Q 261 177 260 176 Q 258 175 257 174 Q 251 166 246 156 Q 242 147 239 137 Q 237 133 237 131 Q 229 129 221 127 Q 213 126 204 127 Z M 308 406 Q 336 409 363 404 Q 364 340 366 277 Q 368 214 369 149 Q 352 148 337 152 Q 321 155 305 161 Q 305 163 305 182 Q 305 200 305 227 Q 305 253 306 283 Q 306 314 306 340 Q 306 367 307 385 Q 307 404 308 406 Z M 117 365 Q 120 385 123 405 Q 127 426 130 446 Q 132 446 134 446 Q 136 446 138 445 V 435 V 365 Q 138 350 138 336 Q 138 321 137 306 Q 136 287 136 267 Q 136 248 135 229 Q 135 227 133 224 Q 117 226 102 228 Q 86 230 70 232 L 72 254 Q 72 260 72 265 Q 73 271 73 276 Q 74 282 74 287 Q 75 293 75 298 Q 75 304 76 309 Q 76 314 77 320 Q 77 326 77 331 Q 77 336 78 342 Q 78 348 79 353 Q 79 358 80 364 Q 80 369 80 374 Q 80 380 81 385 L 82 408 Q 83 414 83 419 Q 83 424 83 430 Q 83 435 83 440 Q 83 446 84 451 H 85 Q 87 442 88 432 Q 89 423 90 414 Q 93 421 94 429 Q 95 436 97 444 H 98 Q 100 437 102 431 Q 104 424 105 419 H 106 Q 107 424 108 430 Q 108 435 108 441 Q 112 422 113 403 Q 115 384 117 365 Z M 67 182 Q 52 187 38 192 Q 23 196 8 201 Q 9 209 10 217 Q 12 224 14 232 Q 36 229 57 226 Q 78 224 99 221 Q 121 218 142 216 Q 163 213 184 210 Q 184 205 184 198 Q 185 190 184 182 Q 183 175 182 167 Q 180 160 179 156 Q 137 158 94 159 Q 51 161 9 162 Q 8 167 8 170 Q 7 174 7 178 Q 22 179 37 179 Q 52 179 67 180 Z M 88 123 Q 98 120 108 116 Q 117 112 128 108 Q 127 97 127 86 Q 126 76 125 65 Q 107 63 89 64 Q 72 66 55 72 Q 57 92 59 112 Q 61 132 62 152 Q 80 151 96 151 Q 113 151 130 150 Q 129 137 129 126 Q 108 126 88 124 Z M 375 14 Q 358 10 341 9 Q 324 7 306 11 Q 306 16 305 26 Q 305 36 305 46 Q 305 56 305 65 Q 305 73 306 75 Q 322 72 339 70 Q 356 68 373 69 Q 374 55 374 41 Q 375 28 375 14 Z M 41 383 Q 48 380 55 377 Q 62 374 70 371 Q 74 369 73 365 Q 73 363 73 360 Q 73 358 73 355 Q 72 343 71 330 Q 70 318 69 306 Q 69 304 68 302 Q 55 306 43 310 Q 30 313 18 318 Q 20 335 25 352 Q 30 368 41 383 Z M 374 245 Q 373 262 373 278 Q 373 294 372 310 H 411 Q 414 293 413 275 Q 413 258 408 241 Q 399 242 391 243 Q 382 243 374 245 Z M 294 312 Q 298 312 298 308 Q 298 296 298 284 Q 298 272 298 260 Q 298 257 297 252 Q 287 253 278 254 Q 268 255 258 256 Q 256 270 255 284 Q 255 298 256 312 H 279 Q 281 300 284 288 Q 287 276 292 264 Q 292 276 293 288 Q 294 300 294 312 Z M 388 398 Q 376 385 401 393 Q 407 391 414 388 Q 416 387 416 384 Q 417 376 418 368 Q 418 360 419 352 Q 420 348 420 344 Q 420 340 420 336 H 389 Q 389 352 388 367 Q 388 382 388 398 Z M 419 252 Q 420 251 420 249 Q 420 248 420 247 Q 419 232 417 218 Q 414 197 409 179 Q 407 169 397 169 H 395 Q 393 185 393 202 Q 393 218 392 235 Q 398 234 403 234 Q 408 234 413 233 Q 414 238 416 243 Q 417 248 419 252 Z M 274 337 Q 274 342 274 347 Q 274 352 275 356 Q 277 376 287 395 Q 290 402 300 404 Q 300 387 300 370 Q 300 354 299 337 Z M 178 321 176 287 Q 176 285 176 284 Q 173 279 171 275 Q 168 271 166 266 Q 160 269 156 270 Q 151 272 147 274 Q 144 275 144 276 L 145 336 Q 147 335 149 335 Q 150 334 152 333 Q 155 332 160 330 Q 164 328 168 326 Z M 297 188 Q 290 188 289 195 Q 287 204 285 214 Q 283 223 282 232 Q 281 235 281 238 Q 280 242 279 246 Q 284 246 288 245 Q 293 245 297 245 Q 297 230 297 216 Q 297 202 297 188 Z M 168 257 Q 170 260 172 263 Q 174 265 176 268 L 176 267 Q 177 260 178 253 Q 178 245 178 238 Q 173 239 169 239 Q 164 239 159 240 Q 160 245 160 250 Q 160 255 160 260 Q 165 259 168 257 Z" fill="black" />
  </g>
  <g class="defect" id="01">
    <path d="M 421 194 Q 443 254 429 289" fill="none" stroke="red" stroke-width="3" />
  </g>
  <g class="defect" id="02">
    <path d="M 388 398 Q 376 385 401 393" fill="none" stroke="red" stroke-width="3" />
  </g>
</svg>