<svg xmlns="http://www.w3.org/2000/svg" width="512" height="512" viewBox="0 0 512 512">
  <g class="glyph">
    <path d="M 211 167 Q 237 165 261 170 Q 262 172 262 173 Q 262 174 262 176 Q 267 174 271 172 Q 275 169 280 167 Q 276 165 273 162 Q 271 160 268 158 Q 273 144 281 133 Q 289 122 300 111 Q 300 111 298 110 Q 288 115 277 119 Q 266 123 255 127 Q 251 123 248 118 Q 245 113 243 108 Q 241 109 237 110 Q 225 94 219 76 Q 212 58 210 38 Q 217 35 224 33 Q 231 31 238 28 Q 255 22 273 17 Q 290 12 308 8 Q 346 0 383 2 Q 393 3 401 5 Q 410 6 418 10 Q 424 12 429 16 Q 430 17 432 18 Q 433 19 435 20 L 432 25 Q 435 29 440 26 Q 443 30 446 33 Q 449 35 452 38 Q 449 43 453 46 Q 456 45 458 44 Q 466 52 471 66 Q 476 88 468 109 Q 460 129 445 143 Q 442 147 438 151 Q 435 154 431 159 Q 432 159 432 159 Q 433 160 434 160 Q 456 170 470 187 Q 471 188 471 189 Q 472 190 473 191 Q 488 203 496 218 Q 504 233 508 251 Q 511 264 511 277 Q 512 290 511 303 Q 509 327 506 351 Q 503 375 499 400 Q 495 418 491 435 Q 487 453 483 471 Q 483 472 482 473 Q 479 474 472 473 Q 465 473 460 471 Q 461 469 461 467 Q 461 465 461 464 Q 462 461 463 456 Q 460 456 460 458 Q 459 460 458 461 Q 456 461 454 461 Q 452 461 449 460 Q 446 460 445 460 Q 443 459 440 459 Q 439 460 439 462 Q 438 464 437 465 Q 433 464 429 463 Q 426 461 422 459 Q 423 455 424 451 Q 424 446 425 442 Q 422 441 421 444 Q 421 446 419 447 Q 415 446 412 445 Q 408 443 404 442 Q 405 438 406 434 Q 407 431 407 426 Q 404 425 402 426 Q 399 426 396 426 Q 396 436 396 445 Q 396 454 396 464 Q 380 468 365 468 Q 349 468 333 466 Q 333 462 333 458 Q 332 454 332 451 Q 328 450 324 449 Q 319 449 315 449 Q 315 443 315 437 Q 315 432 314 426 H 289 Q 290 437 291 449 Q 292 460 293 472 Q 265 482 231 480 Q 231 475 230 471 Q 230 467 229 463 Q 225 463 221 463 Q 218 463 214 462 Q 206 410 201 360 Q 203 359 205 358 Q 207 357 209 355 Q 211 354 214 352 Q 215 351 215 350 Q 215 349 212 349 Q 210 349 208 349 Q 207 349 204 349 Q 203 349 202 349 Q 201 349 199 350 Q 198 342 198 336 Q 197 329 196 322 Q 190 324 184 328 Q 182 328 179 330 Q 175 332 172 334 Q 168 336 164 337 V 444 Q 159 445 154 446 Q 148 446 143 447 Q 142 443 141 438 Q 140 433 140 429 Q 137 429 137 431 Q 137 436 136 440 Q 136 444 136 449 Q 135 451 135 454 Q 134 457 134 460 Q 131 460 129 459 Q 126 459 123 458 Q 123 455 122 452 Q 122 449 122 446 Q 119 445 117 445 Q 115 445 112 445 Q 112 449 111 453 Q 107 452 104 452 Q 100 452 96 451 Q 95 446 95 441 Q 95 436 95 431 H 95 Q 94 432 94 433 Q 94 435 93 436 Q 89 435 86 434 Q 82 434 78 433 Q 77 419 77 405 Q 76 391 75 377 Q 70 379 66 381 Q 61 382 56 385 Q 52 380 49 375 Q 47 371 44 365 Q 40 366 38 366 Q 32 359 27 348 Q 22 337 18 326 Q 14 315 12 304 Q 11 294 11 287 Q 18 284 25 282 Q 32 280 39 278 Q 47 275 54 273 Q 61 271 68 268 Q 67 258 67 248 Q 66 238 65 227 Q 55 228 46 229 Q 37 230 28 231 Q 26 227 25 222 Q 23 217 22 212 Q 19 213 16 213 Q 13 213 10 214 Q 6 203 4 192 Q 2 182 1 170 Q 5 169 8 168 Q 12 167 16 166 Q 19 164 18 160 Q 14 160 9 160 Q 5 160 1 160 Q 0 152 1 145 Q 2 137 3 130 Q 16 129 29 128 Q 42 128 55 127 Q 54 105 52 84 Q 50 63 48 41 Q 68 34 89 32 Q 110 31 132 33 Q 132 38 132 41 Q 132 45 133 49 Q 137 51 141 51 Q 145 51 150 52 Q 151 66 151 79 Q 152 92 153 106 Q 150 107 148 108 Q 146 109 143 110 V 111 Q 146 111 148 112 Q 151 112 153 112 Q 154 115 154 118 Q 154 121 154 125 Q 162 124 170 124 Q 178 124 186 124 Q 187 128 188 133 Q 189 137 190 141 H 203 Q 207 147 208 154 Q 209 160 211 167 Z M 459 449 Q 460 447 460 446 Q 466 423 471 399 Q 477 375 479 351 Q 481 336 483 321 Q 485 305 486 290 Q 487 277 487 264 Q 487 251 485 238 Q 473 180 419 162 Q 404 158 390 156 Q 375 154 359 155 Q 321 158 286 172 Q 274 177 263 184 Q 252 190 240 196 Q 239 197 239 198 Q 238 198 237 199 Q 242 214 250 227 Q 257 241 268 253 Q 273 250 278 247 Q 282 244 287 241 Q 318 221 357 215 Q 367 213 379 213 Q 390 214 401 216 Q 424 222 430 246 Q 431 252 432 259 Q 433 265 433 271 Q 432 283 432 297 Q 431 310 430 322 Q 429 345 425 367 Q 422 389 418 411 Q 417 417 415 423 Q 414 429 413 435 Q 412 438 416 439 Q 420 429 424 419 Q 428 409 432 399 Q 433 408 434 417 Q 434 426 432 436 Q 433 436 434 436 H 436 Q 446 408 453 377 Q 455 378 460 378 Q 459 387 458 396 Q 458 404 457 413 Q 456 422 454 430 Q 453 439 451 448 Q 454 449 456 449 Q 458 449 459 449 Z M 268 450 Q 267 436 266 424 Q 265 411 264 399 Q 263 381 262 363 Q 260 345 259 327 Q 258 309 258 290 Q 257 272 256 253 Q 256 250 254 247 Q 245 236 238 221 Q 236 215 233 208 Q 230 202 229 196 Q 230 195 233 193 Q 238 190 243 187 Q 247 184 253 182 Q 257 180 254 176 Q 250 176 246 175 Q 243 175 238 174 Q 220 173 200 177 Q 196 177 195 178 Q 195 179 195 182 Q 195 188 195 194 Q 195 201 195 207 Q 196 219 197 232 Q 198 245 199 258 Q 200 275 202 291 Q 203 307 205 324 Q 205 328 206 333 Q 207 337 207 342 Q 218 341 229 340 Q 240 340 251 339 Q 251 340 252 340 L 210 364 Q 212 387 215 410 Q 218 432 222 455 Q 233 456 245 454 Q 257 453 268 450 Z M 71 207 Q 75 261 79 315 Q 83 369 86 424 Q 86 425 87 427 Q 89 423 89 418 Q 89 414 90 409 Q 91 404 92 400 Q 93 395 93 391 Q 95 399 96 406 Q 97 413 99 420 H 101 Q 102 414 104 407 Q 106 401 108 395 H 109 Q 110 401 110 406 Q 110 411 111 417 Q 113 398 115 379 Q 116 359 118 340 Q 122 360 125 381 Q 128 402 132 422 Q 134 422 136 422 Q 138 422 139 421 Q 139 416 140 411 Q 140 406 140 401 Q 140 388 140 375 Q 140 362 139 349 Q 139 333 139 317 Q 139 301 138 286 Q 138 265 137 245 Q 137 225 136 205 Q 136 204 135 202 Q 135 201 134 198 Q 119 201 103 202 Q 87 204 71 207 Z M 425 22 Q 418 17 410 14 Q 403 12 395 11 Q 376 8 358 9 Q 340 10 321 13 Q 300 18 278 23 Q 257 29 236 36 Q 232 38 227 39 Q 223 41 218 42 Q 221 58 226 73 Q 231 87 240 100 Q 242 99 244 99 Q 245 98 247 98 Q 266 90 286 83 Q 305 76 325 71 Q 340 68 354 66 Q 369 64 384 65 Q 386 65 387 64 Q 388 63 389 62 Q 393 58 397 54 Q 401 50 404 46 Q 410 40 415 34 Q 420 29 425 22 Z M 16 206 Q 59 201 101 195 Q 143 190 186 184 Q 188 158 182 131 Q 180 131 166 131 Q 153 131 134 132 Q 116 132 94 133 Q 73 134 54 135 Q 36 136 23 136 Q 11 137 10 137 Q 9 141 9 144 Q 9 148 9 152 Q 24 153 38 154 Q 53 154 68 155 V 156 Q 53 161 38 166 Q 24 171 9 176 Q 10 182 12 190 Q 13 199 16 206 Z M 408 402 Q 411 388 411 374 Q 410 361 407 347 Q 372 350 337 351 Q 303 353 268 356 Q 269 367 269 379 Q 270 390 271 401 Q 306 401 340 401 Q 374 401 408 402 Z M 318 345 Q 332 344 346 344 Q 359 343 372 342 Q 373 311 374 281 Q 375 251 376 221 Q 372 221 363 222 Q 354 223 345 225 Q 336 226 327 229 Q 319 232 315 234 Q 316 262 317 289 Q 317 317 318 345 Z M 342 123 Q 348 129 354 134 Q 360 140 366 146 Q 367 148 371 148 Q 375 148 378 148 Q 382 148 386 148 Q 389 149 394 146 Q 400 141 405 137 Q 410 132 416 127 Q 425 119 432 110 Q 439 101 444 90 Q 447 80 448 69 Q 449 59 446 48 Q 445 45 443 42 Q 442 39 438 36 Q 426 44 414 51 Q 402 58 389 66 Q 393 70 393 73 Q 393 76 389 81 Q 386 84 385 86 Q 380 90 375 95 Q 371 100 366 104 Q 360 109 354 113 Q 349 118 342 123 Z M 126 40 Q 109 38 91 39 Q 74 40 56 46 Q 59 67 61 87 Q 62 107 65 127 Q 82 126 98 126 Q 115 125 131 125 Q 132 123 132 119 Q 132 116 131 112 Q 131 109 130 105 Q 130 102 130 101 Q 119 100 109 100 Q 99 100 90 99 V 98 Q 99 94 109 91 Q 119 87 130 83 Q 129 72 128 62 Q 127 51 126 40 Z M 69 276 Q 56 280 44 284 Q 31 288 18 293 Q 21 310 26 326 Q 32 343 42 358 Q 51 354 58 351 Q 66 348 75 345 Q 73 328 72 311 Q 70 294 69 276 Z M 357 148 Q 346 137 336 127 Q 326 117 315 107 Q 303 117 293 129 Q 283 141 276 155 Q 279 157 281 159 Q 283 160 286 162 Q 288 164 293 162 Q 302 160 310 157 Q 319 155 328 153 Q 335 151 342 150 Q 349 149 357 148 Z M 310 315 309 268 Q 297 269 286 270 Q 275 271 264 272 Q 265 283 265 294 Q 265 304 266 315 Z M 321 409 Q 322 417 322 426 Q 322 434 323 442 Q 326 443 333 443 Q 340 444 348 443 Q 355 443 361 442 Q 368 442 371 440 V 409 Z M 410 314 Q 412 300 412 286 Q 411 273 407 259 Q 401 260 394 261 Q 388 261 382 261 Q 393 276 380 313 Q 388 314 395 314 Q 403 314 410 314 Z M 168 300 Q 179 295 188 290 Q 186 280 180 266 Q 174 252 167 241 Q 161 243 155 245 Q 150 247 145 249 V 259 V 268 Q 145 279 145 290 Q 146 300 146 311 Q 148 310 150 310 Q 151 309 153 308 Q 156 307 160 304 Q 164 302 168 300 Z M 187 211 Q 180 212 173 213 Q 167 214 160 215 Q 161 221 161 225 Q 161 230 161 235 Q 163 234 165 234 Q 167 233 169 232 Q 173 237 176 242 Q 179 247 182 251 H 190 Q 189 242 188 232 Q 188 222 187 211 Z M 337 117 Q 340 115 345 112 Q 350 108 354 104 Q 358 101 362 97 Q 366 94 367 93 Q 355 95 344 97 Q 333 99 323 103 Q 326 106 330 110 Q 333 113 337 117 Z M 426 269 Q 426 257 423 245 Q 421 243 421 243 Q 416 241 411 240 Q 406 239 401 239 V 253 Q 403 252 406 252 Q 409 252 413 252 Q 414 257 415 261 Q 417 265 418 271 Q 423 269 426 269 Z M 311 346 Q 311 344 311 342 H 285 Q 285 344 285 345 Q 285 346 285 347 Q 291 347 298 347 Q 304 346 311 346 Z M 417 358 Q 417 358 418 358 Q 418 358 419 358 Q 421 354 421 349 Q 421 344 421 340 H 413 Q 414 344 415 349 Q 416 353 417 358 Z M 408 340 H 399 Z" fill="black" />
  </g>
  <g class="defect" id="01">
    <path d="M 382 261 Q 393 276 380 313" fill="none" stroke="red" stroke-width="3" />
  </g>
</svg>