<svg xmlns="http://www.w3.org/2000/svg" width="512" height="512" viewBox="0 0 512 512">
  <g class="glyph">
    <path d="M 249 172 Q 251 168 253 163 Q 255 159 258 154 Q 263 154 268 155 Q 273 155 278 156 Q 308 162 326 185 Q 328 188 332 191 Q 335 194 339 197 V 172 Q 335 174 332 176 Q 329 177 326 179 Q 322 175 319 171 Q 316 168 313 164 Q 310 162 309 161 Q 308 160 307 160 Q 307 159 306 159 Q 291 141 276 125 Q 262 108 247 91 Q 243 86 238 82 Q 233 77 229 73 Q 228 72 227 71 Q 225 71 224 70 Q 235 52 249 40 Q 263 27 281 18 Q 283 22 287 26 Q 290 29 292 33 Q 293 34 294 35 Q 295 37 298 36 Q 298 36 302 39 Q 308 48 315 57 Q 321 65 328 73 Q 330 77 332 78 Q 329 69 328 59 Q 327 49 327 39 Q 362 29 397 20 Q 433 10 469 0 Q 472 10 477 19 Q 479 18 481 18 Q 484 18 486 18 Q 490 27 495 36 Q 492 38 490 40 Q 488 41 487 42 Q 484 44 484 46 Q 484 47 485 51 Q 487 50 491 49 Q 494 48 497 47 Q 500 57 501 68 Q 502 79 502 90 Q 488 93 475 95 Q 461 97 447 100 Q 447 103 448 107 Q 448 110 448 114 Q 468 127 456 114 Q 460 115 464 115 Q 465 123 466 131 Q 467 140 468 148 H 488 Q 490 152 491 156 Q 491 161 493 165 H 506 Q 507 171 508 176 Q 509 182 510 188 Q 506 190 502 192 Q 498 194 493 197 Q 498 198 502 197 Q 506 196 510 197 Q 511 211 509 226 Q 500 227 491 228 Q 482 229 473 230 Q 473 241 473 252 Q 473 263 473 274 Q 478 275 482 275 Q 487 275 492 275 Q 493 280 493 283 Q 494 287 495 291 Q 499 292 502 292 Q 505 292 509 292 Q 512 308 512 323 Q 512 337 510 353 Q 500 354 491 354 Q 482 355 473 356 Q 471 384 469 412 Q 466 440 459 467 Q 443 467 429 464 Q 414 460 400 454 Q 400 451 400 449 Q 400 447 401 444 Q 396 442 392 441 Q 387 439 382 437 Q 385 418 387 400 Q 388 382 389 363 Q 383 363 379 363 Q 374 364 369 364 Q 368 360 367 355 Q 365 351 364 346 Q 363 346 361 346 Q 359 347 357 347 Q 352 374 347 400 Q 342 426 335 452 Q 330 453 321 452 Q 311 451 304 448 Q 305 445 305 442 Q 305 439 305 434 Q 302 438 300 441 Q 299 444 297 447 Q 291 445 286 443 Q 281 441 276 439 Q 276 436 276 434 Q 277 432 277 429 Q 273 427 268 425 Q 263 424 258 421 Q 260 412 262 404 Q 263 396 265 387 Q 267 378 268 369 Q 269 360 271 352 Q 272 343 273 334 Q 274 325 275 317 Q 274 317 274 316 Q 265 349 255 382 Q 245 415 235 448 Q 205 448 176 434 Q 176 432 177 430 Q 177 427 178 425 Q 173 423 168 421 Q 163 420 159 418 Q 163 397 168 376 Q 172 355 177 334 Q 165 335 155 337 Q 144 338 132 340 Q 130 371 129 401 Q 127 432 126 464 Q 121 465 116 465 Q 112 465 107 466 V 449 H 106 Q 106 451 104 456 H 103 Q 97 453 89 456 Q 88 456 87 456 Q 86 455 85 455 Q 85 457 84 460 Q 83 462 82 465 Q 78 464 73 464 Q 69 463 65 462 V 448 Q 61 447 56 446 Q 52 446 48 445 V 352 Q 42 353 37 354 Q 33 355 27 356 Q 26 351 24 347 Q 22 342 21 337 Q 18 337 16 338 Q 13 338 10 338 Q 2 320 1 302 Q 0 283 3 263 Q 14 263 26 262 Q 37 262 48 261 V 244 Q 45 245 42 245 Q 39 245 34 245 Q 33 240 32 236 Q 31 232 29 227 Q 26 228 23 228 Q 20 228 17 228 Q 11 209 10 191 Q 10 172 13 153 H 49 V 126 Q 48 127 46 127 Q 44 127 42 127 Q 40 123 38 118 Q 36 114 34 108 Q 32 109 30 109 Q 28 109 25 110 Q 11 82 9 51 Q 29 44 50 37 Q 71 31 91 24 L 94 31 H 95 Q 95 28 95 27 Q 95 25 95 22 Q 107 19 119 15 Q 131 11 144 6 Q 149 16 154 25 Q 158 24 161 24 Q 168 34 172 44 Q 176 55 179 66 Q 182 64 183 61 Q 185 58 187 55 Q 192 57 195 59 Q 199 61 202 63 Q 211 68 218 74 Q 225 80 233 88 Q 237 93 242 97 Q 247 102 251 106 Q 254 109 257 113 Q 260 116 263 120 Q 255 130 246 138 Q 238 147 229 156 Q 234 155 239 155 Q 244 155 249 154 V 172 Z M 276 420 Q 277 417 279 415 Q 280 413 281 410 Q 282 408 283 406 Q 284 403 285 401 Q 287 398 287 396 Q 288 394 289 392 Q 290 389 291 387 Q 292 385 293 382 Q 295 380 295 377 Q 296 375 298 372 Q 297 386 296 399 Q 296 412 295 425 Q 299 426 303 426 Q 307 427 312 427 Q 312 426 313 425 Q 313 425 313 424 Q 318 403 323 383 Q 327 362 330 341 Q 334 312 336 285 Q 337 273 338 261 Q 338 249 337 236 Q 336 227 334 217 Q 332 208 327 199 Q 316 180 300 171 Q 283 162 262 161 Q 258 170 254 178 Q 250 186 245 195 Q 240 187 240 178 Q 241 170 240 162 Q 239 162 239 161 Q 239 161 238 162 Q 233 162 229 163 Q 210 168 193 175 Q 176 183 159 193 Q 159 193 158 194 Q 157 195 157 195 Q 157 198 157 201 Q 156 205 158 208 Q 162 216 166 224 Q 171 231 177 239 Q 179 241 181 243 Q 183 245 185 248 Q 189 245 192 244 Q 196 242 197 236 Q 198 233 198 231 Q 198 229 199 226 H 214 Q 218 227 221 226 Q 224 225 228 224 Q 235 221 243 219 Q 251 217 260 217 Q 270 219 275 222 Q 279 225 282 236 Q 284 249 284 260 Q 284 274 283 288 Q 283 302 282 315 Q 279 340 276 364 Q 272 388 267 412 V 417 Q 269 418 272 419 Q 274 419 276 420 Z M 435 442 Q 435 441 436 440 Q 436 439 436 438 Q 438 428 440 419 Q 441 410 442 401 Q 446 374 447 348 Q 448 321 448 295 Q 449 275 449 256 Q 448 237 448 217 Q 448 216 447 216 Q 447 215 447 214 Q 445 214 436 214 Q 427 215 418 216 Q 408 216 400 217 Q 393 218 391 219 V 221 Q 393 240 394 260 Q 395 279 395 299 Q 396 317 396 334 Q 395 352 395 370 Q 395 383 394 396 Q 393 409 391 423 Q 390 425 390 427 Q 390 429 389 432 Q 401 436 412 439 Q 423 442 435 442 Z M 212 423 Q 225 380 238 336 Q 251 293 263 250 Q 258 246 249 243 Q 241 239 232 237 Q 224 235 216 234 Q 209 233 205 234 Q 195 278 185 323 Q 176 367 166 412 Q 187 421 212 423 Z M 56 223 Q 56 225 56 227 Q 56 229 56 231 V 263 Q 56 283 55 303 Q 73 322 55 342 Q 55 351 55 359 Q 55 367 55 376 V 438 Q 56 438 57 438 Q 58 438 59 438 Q 64 424 67 411 Q 71 397 76 383 Q 79 406 77 427 Q 80 428 80 428 Q 81 427 81 425 L 88 375 Q 89 371 89 366 Q 89 362 90 357 Q 92 357 94 357 Q 95 357 96 358 Q 96 359 97 359 Q 97 359 97 360 Q 97 374 97 387 Q 97 401 96 415 V 438 Q 96 439 97 439 Q 99 439 101 439 Q 104 383 107 327 Q 109 272 112 216 Q 98 219 84 220 Q 70 222 56 223 Z M 23 220 Q 55 216 86 213 Q 117 209 149 206 Q 150 193 149 182 Q 149 171 146 159 H 20 Q 18 165 18 173 Q 17 182 17 190 Q 18 199 19 206 Q 20 214 23 220 Z M 442 186 Q 453 181 463 176 Q 473 172 484 167 Q 483 164 483 161 Q 482 158 481 155 Q 448 155 415 154 Q 382 154 349 153 Q 345 168 346 183 Q 346 198 350 213 Q 384 210 417 208 Q 451 206 485 201 V 186 Q 475 188 464 188 Q 453 187 442 186 Z M 464 9 Q 461 9 450 12 Q 439 14 424 18 Q 410 22 394 27 Q 379 32 365 36 Q 352 40 343 42 Q 334 45 333 46 Q 333 51 334 58 Q 335 65 336 71 Q 338 78 340 83 Q 342 88 344 91 Q 378 85 411 79 Q 443 73 477 67 Q 477 53 474 39 Q 462 43 449 46 Q 436 49 423 51 Q 434 42 445 34 Q 457 26 468 18 Q 467 14 466 12 Q 465 10 464 9 Z M 29 102 Q 35 99 41 99 Q 47 99 52 94 Q 52 94 54 94 Q 57 93 59 93 Q 61 93 63 92 Q 67 91 71 91 Q 75 91 79 91 Q 97 86 116 82 Q 135 78 154 73 Q 155 73 156 73 Q 156 73 157 72 Q 157 66 156 57 Q 154 49 151 40 Q 149 32 146 25 Q 143 18 140 15 Q 131 18 121 21 Q 112 24 103 27 V 44 Q 103 48 103 52 Q 103 56 103 60 Q 104 64 104 68 Q 104 72 104 76 H 103 L 87 33 Q 69 39 52 44 Q 34 50 17 56 Q 18 69 21 80 Q 24 91 29 102 Z M 234 67 Q 254 88 272 109 Q 291 131 310 152 Q 314 150 319 146 Q 324 143 329 139 Q 334 135 339 131 Q 343 126 347 123 Q 330 99 314 74 Q 297 50 278 27 Q 252 43 234 67 Z M 189 64 Q 176 83 163 101 Q 149 119 136 138 Q 139 141 142 144 Q 145 147 147 149 Q 150 152 153 155 Q 156 157 159 160 Q 162 162 165 164 Q 169 166 172 168 Q 188 152 204 135 Q 220 119 235 102 Q 232 98 226 92 Q 221 86 214 81 Q 207 75 201 70 Q 194 66 189 64 Z M 118 102 Q 102 99 87 98 Q 72 97 57 100 V 152 Q 59 152 69 152 Q 78 152 88 152 Q 97 152 106 152 Q 114 151 115 150 Q 116 139 116 126 Q 117 114 118 102 Z M 384 146 Q 415 148 444 148 Q 443 137 442 126 Q 441 115 440 104 Q 408 103 380 113 Q 381 122 382 130 Q 383 138 384 146 Z M 167 307 Q 167 295 166 283 Q 164 272 161 260 Q 150 261 139 261 Q 128 261 117 262 Q 116 276 116 288 Q 115 301 115 314 Q 128 313 141 311 Q 154 309 167 307 Z M 48 267 Q 37 268 28 268 Q 18 268 8 269 Q 7 284 8 300 Q 9 315 14 329 Q 22 328 31 327 Q 39 325 48 324 Z M 353 279 Q 351 294 352 309 Q 352 323 357 338 Q 365 337 373 337 Q 381 336 389 336 Q 389 321 389 307 Q 389 293 388 279 Z M 455 330 Q 463 330 471 330 Q 478 329 486 328 Q 487 316 488 304 Q 488 293 485 282 Q 478 281 470 281 Q 473 295 456 281 Q 456 293 455 306 Q 455 318 455 330 Z M 188 280 Q 189 277 190 273 Q 190 270 191 267 Q 192 264 190 262 Q 187 260 186 258 Q 184 257 182 254 Q 178 250 174 246 Q 170 241 167 236 Q 162 230 156 231 Q 151 232 146 233 Q 142 233 137 234 Q 137 239 136 244 Q 136 249 136 254 Q 151 254 167 253 Q 168 258 169 262 Q 170 266 171 270 H 184 Q 185 273 185 275 Q 186 277 187 280 Z M 362 238 Q 360 234 359 229 Q 358 225 357 221 H 355 Q 355 221 354 221 Q 354 221 353 221 Q 358 234 360 246 Q 362 259 362 271 H 387 Q 387 262 386 254 Q 386 245 385 237 Q 379 237 374 237 Q 368 238 362 238 Z M 377 146 Q 376 138 375 130 Q 373 122 372 113 Q 368 114 364 114 Q 360 115 356 115 Q 360 122 365 128 Q 369 134 373 140 Q 372 142 371 143 Q 370 145 369 146 Z M 153 103 Q 153 102 152 102 Q 152 102 152 102 Q 150 103 148 103 Q 146 103 143 104 Q 140 105 138 105 Q 136 106 134 106 Q 131 107 129 107 Q 127 107 125 109 Q 130 112 134 112 Q 139 111 144 116 Q 146 112 148 109 Q 150 106 153 103 Z M 268 243 Q 270 245 272 246 Q 272 248 271 250 Q 271 251 270 253 Q 272 254 274 255 Q 275 255 278 257 Q 277 252 277 249 Q 277 246 276 243 Z M 353 111 Q 353 111 353 110 Q 352 107 351 104 Q 350 101 349 97 Q 348 97 347 97 Q 345 97 344 97 Q 347 101 348 104 Q 350 108 353 111 Z" fill="black" />
  </g>
  <g class="defect" id="01">
    <path d="M 470 281 Q 473 295 456 281" fill="none" stroke="red" stroke-width="3" />
  </g>
  <g class="defect" id="02">
    <path d="M 448 114 Q 468 127 456 114" fill="none" stroke="red" stroke-width="3" />
  </g>
  <g class="defect" id="03">
    <path d="M 55 303 Q 73 322 55 342" fill="none" stroke="red" stroke-width="3" />
  </g>
</svg>