<svg xmlns="http://www.w3.org/2000/svg" width="512" height="512" viewBox="0 0 512 512">
  <g class="glyph">
    <path d="M 0 442 Q 1 439 2 436 Q 9 397 15 359 Q 21 320 27 281 Q 30 264 33 247 Q 36 230 39 213 L 40 208 Q 44 207 47 207 Q 51 207 54 205 V 205 Q 52 204 50 204 Q 48 203 46 203 Q 45 203 44 202 Q 42 202 41 200 H 40 Q 39 200 39 200 Q 38 200 38 200 H 30 Q 29 195 27 191 Q 26 187 25 182 H 12 Q 6 161 6 140 Q 7 119 12 98 Q 27 98 41 99 Q 56 99 72 100 Q 72 98 70 95 Q 66 86 62 77 Q 59 67 55 58 Q 54 56 53 54 Q 52 52 51 49 Q 70 37 90 30 Q 110 24 132 22 Q 133 27 134 31 Q 136 36 137 41 Q 140 40 143 40 Q 146 40 149 40 Q 152 50 154 60 Q 157 69 159 79 Q 157 82 153 83 Q 150 84 148 88 Q 148 88 148 89 Q 151 89 154 88 Q 157 88 161 88 Q 162 93 163 98 Q 165 102 166 107 Q 175 108 184 109 Q 193 110 202 111 Q 202 112 202 112 Q 202 113 202 114 Q 203 115 203 116 Q 203 117 203 118 Q 208 111 211 105 Q 214 98 217 91 Q 220 85 223 78 Q 226 72 230 65 Q 233 58 237 51 Q 240 45 244 37 Q 248 38 253 39 Q 258 39 262 40 Q 264 40 265 40 Q 266 40 267 40 Q 269 40 269 37 Q 265 34 261 30 Q 256 27 251 23 Q 254 17 257 12 Q 260 6 264 0 Q 269 1 271 2 Q 289 8 304 18 Q 319 29 332 42 Q 335 45 338 48 Q 341 51 344 53 Q 346 55 347 58 Q 349 60 352 62 Q 351 63 351 64 Q 351 65 351 66 Q 380 66 409 65 Q 438 65 467 64 Q 468 68 470 73 Q 471 77 472 81 H 484 Q 486 84 487 90 Q 488 95 489 101 Q 489 107 489 113 Q 489 119 489 123 Q 485 123 481 123 Q 477 124 472 125 V 126 Q 477 126 481 127 Q 485 127 489 128 Q 489 137 487 147 Q 486 156 483 165 Q 449 163 417 160 Q 402 146 350 157 Q 351 158 352 159 Q 353 160 354 161 Q 355 162 357 163 Q 358 163 357 166 Q 357 167 358 167 Q 362 169 366 173 Q 369 177 376 177 Q 397 175 417 175 Q 436 174 456 173 H 462 Q 463 177 464 182 Q 465 187 466 191 H 479 Q 485 212 485 233 Q 485 253 479 274 Q 465 273 452 273 Q 439 272 425 271 Q 422 278 419 284 Q 416 290 413 296 Q 432 296 451 296 Q 470 295 489 295 Q 490 299 491 303 Q 492 308 493 312 H 507 Q 509 318 510 323 Q 510 329 511 335 Q 508 337 504 338 Q 500 339 496 342 Q 500 344 504 344 Q 508 344 512 345 Q 512 354 512 362 Q 511 371 510 380 Q 492 381 475 383 Q 457 385 439 386 Q 454 405 469 423 Q 485 442 500 460 Q 482 488 453 508 Q 451 506 450 505 Q 448 503 446 502 Q 440 496 433 490 Q 426 485 420 479 Q 418 477 417 475 Q 415 473 414 471 Q 413 471 412 470 Q 404 466 399 460 Q 393 454 386 448 Q 379 442 372 435 Q 366 428 359 421 Q 358 420 356 418 Q 354 417 353 415 Q 341 437 330 459 Q 319 481 308 503 Q 302 503 294 501 Q 286 498 277 494 Q 268 490 259 485 Q 251 480 246 475 Q 246 474 247 473 Q 247 472 247 471 Q 243 468 238 465 Q 233 461 228 458 Q 231 451 234 444 Q 238 437 240 430 Q 243 423 246 416 Q 250 409 253 401 Q 248 401 244 401 Q 240 402 236 402 Q 233 397 233 393 Q 232 388 230 383 Q 227 384 225 384 Q 222 384 218 385 Q 217 379 215 374 Q 214 368 212 362 Q 210 366 210 369 Q 209 373 208 375 Q 207 379 206 382 Q 205 386 204 389 Q 203 393 201 396 Q 200 400 199 403 Q 198 406 196 410 Q 195 413 194 416 Q 193 419 191 423 Q 190 426 188 429 Q 187 432 186 436 Q 184 439 183 443 L 176 456 Q 175 459 173 462 Q 172 465 170 468 Q 164 467 159 465 Q 154 464 149 461 Q 150 459 151 456 Q 151 454 152 451 Q 149 449 147 452 Q 146 456 144 459 Q 142 462 140 465 Q 139 466 138 468 Q 138 469 137 471 Q 133 468 130 465 Q 126 463 123 460 Q 125 456 126 453 Q 128 450 130 446 Q 127 444 125 443 Q 124 445 122 448 Q 121 451 119 453 Q 116 451 113 448 Q 110 445 106 443 Q 108 439 109 436 Q 111 432 112 429 Q 109 426 106 424 Q 103 422 99 419 Q 112 392 120 363 Q 128 334 132 304 Q 133 302 133 301 Q 132 300 132 297 Q 131 297 130 298 Q 130 298 129 298 Q 121 299 120 300 Q 118 302 117 309 Q 109 348 101 387 Q 93 425 84 464 Q 84 466 84 467 Q 83 468 83 470 Q 52 472 22 459 Q 22 457 22 454 Q 22 451 23 449 Q 17 446 12 445 Q 8 443 3 442 Q 0 443 0 442 Z M 325 248 Q 303 301 280 352 Q 258 404 235 456 Q 259 472 284 479 Q 312 423 340 368 Q 368 313 397 258 Q 393 253 388 253 Q 383 253 380 253 Q 376 252 372 252 Q 360 251 349 250 Q 338 249 325 248 Z M 115 184 Q 111 182 106 181 Q 102 180 98 180 Q 90 180 84 180 Q 77 180 69 181 H 55 Q 52 181 52 184 Q 51 187 50 190 Q 50 193 49 196 Q 60 199 70 201 Q 80 203 90 206 V 207 Q 79 209 68 211 Q 57 212 46 215 Q 45 218 42 235 Q 39 252 35 277 Q 31 301 26 329 Q 22 356 18 380 Q 14 404 12 420 Q 9 437 10 438 Q 32 446 56 446 Q 57 444 57 444 Q 83 315 115 184 Z M 146 444 Q 148 439 149 438 Q 158 419 165 401 Q 173 383 179 364 Q 184 348 188 332 Q 192 316 194 300 Q 195 288 193 276 Q 192 264 187 253 L 184 247 Q 175 250 167 253 Q 159 257 150 259 Q 156 252 161 245 Q 167 239 173 232 Q 160 221 146 216 Q 132 211 116 212 Q 114 220 112 228 Q 110 236 109 244 Q 107 251 105 259 Q 103 267 102 275 Q 103 275 105 274 Q 106 274 107 274 Q 117 272 125 272 Q 137 272 137 284 Q 137 291 137 299 Q 137 306 136 314 Q 132 338 126 361 Q 119 385 110 408 Q 109 411 106 415 Q 106 418 109 419 Q 116 412 122 405 Q 129 399 136 392 Q 136 392 137 393 Q 136 394 136 394 Q 136 395 134 396 Q 130 405 126 414 Q 122 422 118 431 Q 117 433 116 435 Q 115 436 113 438 Q 113 439 113 440 Q 113 442 115 443 Q 119 436 123 428 Q 127 421 132 414 Q 136 406 140 399 Q 145 392 149 384 Q 153 376 158 369 Q 162 362 166 354 Q 167 354 167 355 Q 167 355 167 355 Q 160 376 153 398 Q 146 419 138 440 Q 140 442 142 442 Q 144 443 146 444 Z M 18 105 Q 14 123 14 141 Q 13 158 18 175 Q 60 173 102 173 Q 145 172 187 172 Q 187 172 187 171 Q 188 171 188 170 Q 184 169 182 166 Q 185 159 188 152 Q 191 145 195 138 Q 197 133 197 128 Q 196 123 195 117 Q 151 113 106 110 Q 62 108 18 105 Z M 260 22 Q 262 23 264 25 Q 266 26 268 28 L 276 34 Q 278 36 280 38 Q 282 39 285 40 Q 287 42 289 43 Q 290 45 293 46 Q 295 48 297 49 Q 298 51 300 53 Q 286 52 273 49 Q 260 47 247 45 Q 232 75 218 104 Q 204 134 190 165 Q 201 173 213 179 Q 225 186 238 190 Q 258 153 280 117 Q 302 81 325 46 Q 312 33 298 24 Q 283 15 266 9 Q 265 12 263 15 Q 262 18 260 22 Z M 267 298 Q 287 265 307 232 Q 327 199 346 166 Q 342 160 333 155 Q 325 149 317 144 Q 308 139 300 136 Q 291 133 287 133 Q 269 168 252 203 Q 236 238 219 274 Q 231 282 243 288 Q 254 294 267 298 Z M 458 72 Q 440 72 422 72 Q 404 73 386 73 Q 369 74 353 74 Q 337 74 320 74 Q 315 74 314 79 Q 307 89 300 100 Q 294 110 288 121 Q 286 123 286 125 Q 293 126 298 128 Q 304 131 311 131 Q 320 132 329 132 Q 337 133 346 133 Q 359 134 372 135 Q 385 136 397 137 Q 413 138 427 139 Q 442 140 457 141 Q 458 141 458 141 Q 458 141 459 141 Q 460 135 462 130 Q 463 124 463 118 Q 446 116 429 113 Q 412 111 395 107 Q 413 105 429 104 Q 446 102 464 99 Q 464 86 460 72 Z M 316 240 Q 351 243 385 245 Q 419 247 455 250 Q 459 233 459 216 Q 459 198 455 181 H 449 Q 440 182 431 182 Q 421 182 411 183 Q 396 184 380 184 Q 364 184 348 185 Q 343 185 342 189 Q 335 200 329 209 Q 323 219 316 230 Q 312 235 316 240 Z M 390 443 Q 395 440 398 438 Q 401 435 405 432 Q 408 430 409 431 Q 413 433 413 436 Q 412 438 411 443 Q 408 449 404 455 Q 411 461 419 468 Q 426 475 434 482 Q 445 473 455 464 Q 464 455 472 444 Q 454 423 437 402 Q 419 381 402 361 Q 395 365 387 371 Q 379 376 372 383 Q 365 389 359 396 Q 354 402 352 407 Q 361 416 371 425 Q 380 434 390 443 Z M 404 350 Q 406 352 408 354 Q 410 357 411 359 Q 413 361 417 361 Q 433 360 449 359 Q 465 358 481 357 Q 482 357 484 355 Q 485 350 486 344 Q 486 339 485 333 Q 474 332 464 330 Q 453 329 443 327 Q 453 323 463 321 Q 473 318 484 313 Q 483 310 483 308 Q 482 305 482 302 H 476 Q 472 302 467 303 Q 461 303 457 303 Q 438 303 421 303 Q 403 303 385 304 Q 381 304 379 308 Q 372 322 365 335 Q 358 349 351 363 Q 340 352 350 364 Q 350 365 350 366 Q 357 366 364 365 Q 372 365 379 364 Q 381 364 385 362 Q 389 359 394 356 Q 399 353 404 350 Z M 291 307 Q 273 308 254 308 Q 236 308 218 309 Q 217 315 216 325 Q 215 334 215 344 Q 216 354 217 363 Q 219 372 222 378 H 225 Q 233 376 241 376 Q 249 375 258 375 Q 262 375 265 370 Q 271 356 277 342 Q 283 328 289 313 Q 290 310 291 307 Z M 90 83 Q 90 83 90 82 Q 101 76 111 71 Q 122 65 133 59 Q 131 52 129 45 Q 127 38 126 31 Q 108 33 91 38 Q 75 44 60 53 Q 65 66 70 77 Q 75 89 80 102 Q 95 103 111 104 Q 127 105 144 106 Q 142 98 141 92 Q 139 86 138 79 Q 125 80 114 81 Q 103 82 90 83 Z M 141 197 Q 140 200 140 202 Q 139 205 139 207 Q 139 208 139 208 Q 143 209 144 210 Q 162 215 177 228 Q 178 229 179 230 Q 181 231 181 232 Q 181 235 183 237 Q 185 238 187 239 Q 190 242 194 245 Q 197 247 200 251 Q 198 253 197 255 Q 195 257 197 259 Q 199 259 201 258 Q 202 258 205 257 Q 207 261 209 264 Q 211 268 214 272 Q 221 257 227 241 Q 234 226 241 211 Q 236 208 230 204 Q 224 201 218 198 Q 217 197 214 197 H 149 Q 145 197 141 197 Z M 230 289 Q 226 287 223 285 Q 219 283 216 281 Q 236 287 217 291 Q 218 296 219 301 H 237 Q 234 298 232 297 Q 231 295 229 294 Q 229 293 230 289 Z" fill="black" />
  </g>
  <g class="defect" id="01">
    <path d="M 351 363 Q 340 352 350 364" fill="none" stroke="red" stroke-width="3" />
  </g>
  <g class="defect" id="02">
    <path d="M 216 281 Q 236 287 217 291" fill="none" stroke="red" stroke-width="3" />
  </g>
  <g class="defect" id="03">
    <path d="M 417 160 Q 402 146 350 157" fill="none" stroke="red" stroke-width="3" />
  </g>
</svg>