<svg xmlns="http://www.w3.org/2000/svg" width="512" height="512" viewBox="0 0 512 512">
  <g class="glyph">
    <path d="M 372 359 Q 353 382 334 404 Q 315 426 296 448 Q 293 446 291 445 Q 288 444 286 442 L 276 435 Q 277 432 278 430 Q 273 426 271 426 Q 270 426 266 427 Q 256 417 246 407 Q 235 397 226 386 Q 243 366 259 345 Q 275 325 292 304 Q 283 297 273 291 Q 264 285 255 278 Q 235 304 209 322 Q 202 316 196 311 Q 189 306 183 301 Q 182 301 182 301 Q 182 302 181 302 Q 182 334 183 366 Q 184 398 185 431 Q 180 432 176 433 Q 171 434 166 435 Q 164 425 163 416 Q 160 416 159 416 Q 158 416 158 418 Q 158 425 158 432 Q 157 439 157 445 Q 157 446 157 448 Q 156 449 156 451 Q 154 451 151 450 Q 148 449 145 449 Q 143 449 143 445 Q 142 442 141 439 Q 141 436 140 432 Q 134 434 129 432 Q 123 430 117 429 Q 117 425 117 421 Q 117 418 117 413 Q 112 413 108 413 Q 104 412 100 412 Q 99 392 97 371 Q 96 350 94 329 Q 87 335 81 342 Q 76 348 69 354 Q 63 351 58 348 Q 53 345 48 340 Q 48 339 48 338 Q 48 337 49 336 Q 46 334 45 333 Q 43 331 40 334 Q 30 323 19 314 Q 9 304 0 292 Q 20 267 39 242 Q 58 218 77 193 Q 77 193 76 192 Q 68 193 60 194 Q 52 195 43 196 Q 42 191 40 187 Q 39 182 37 178 Q 34 178 32 178 Q 29 178 26 178 Q 18 157 17 137 Q 15 117 19 94 Q 34 93 48 93 Q 63 93 78 92 Q 77 70 76 50 Q 74 29 73 8 Q 81 4 92 2 Q 103 1 115 0 Q 127 0 138 1 Q 149 3 156 5 Q 157 8 157 12 Q 157 15 157 19 Q 162 20 166 21 Q 170 21 174 22 V 52 Q 166 56 158 58 V 60 Q 163 60 167 60 Q 171 60 175 61 Q 176 68 176 75 Q 176 82 176 89 Q 186 88 195 88 Q 205 88 214 87 Q 215 92 216 96 Q 217 100 218 104 Q 222 105 225 105 Q 228 104 232 105 Q 254 137 237 173 Q 232 173 228 174 Q 224 174 219 175 Q 218 173 218 171 Q 217 170 216 168 H 215 Q 215 170 215 171 Q 215 173 215 175 Q 206 176 197 178 Q 188 179 179 180 V 198 Q 181 197 183 196 Q 184 195 186 194 L 192 200 Q 196 204 199 208 Q 203 211 207 215 Q 213 220 218 227 Q 223 233 228 239 Q 229 240 230 241 Q 231 242 233 243 Q 241 226 253 212 Q 264 198 279 186 Q 284 190 288 193 Q 292 196 296 199 Q 299 202 302 204 Q 306 207 308 209 Q 312 210 311 213 Q 310 214 312 216 Q 314 217 315 217 Q 316 216 317 216 Q 319 217 320 218 Q 325 222 330 226 Q 335 229 340 233 Q 340 234 341 234 Q 341 234 342 235 Q 343 234 343 233 Q 344 232 345 231 Q 360 209 372 186 Q 385 163 395 138 Q 398 133 399 128 Q 400 123 402 118 Q 402 117 402 114 Q 395 111 385 111 Q 375 111 366 113 Q 356 114 346 117 Q 330 120 315 126 Q 299 132 285 139 Q 283 140 279 142 Q 275 137 272 133 Q 269 128 266 123 Q 262 124 261 123 Q 259 121 258 119 Q 245 104 238 86 Q 230 68 226 48 Q 227 47 228 47 Q 228 47 229 46 Q 250 37 270 30 Q 290 23 312 19 Q 333 14 355 13 Q 376 12 398 17 Q 427 23 449 43 Q 449 46 449 47 Q 451 49 452 49 Q 454 48 455 49 Q 456 50 457 51 Q 460 53 461 55 Q 463 57 465 59 Q 468 61 467 64 Q 467 65 468 66 Q 469 67 470 66 Q 472 65 473 66 Q 473 67 474 68 Q 483 77 488 88 Q 494 99 496 111 Q 500 128 497 144 Q 495 160 488 175 Q 481 193 473 210 Q 464 226 455 243 L 423 292 Q 422 294 420 297 Q 421 298 422 298 Q 423 299 424 300 Q 441 313 457 326 Q 474 339 491 352 Q 492 353 493 354 Q 495 355 493 357 Q 493 358 494 358 Q 495 359 496 360 Q 500 363 504 366 Q 508 369 512 373 Q 505 389 495 403 Q 485 416 472 428 Q 447 411 422 394 Q 398 376 372 359 Z M 235 52 Q 240 70 246 86 Q 253 102 264 116 Q 266 115 267 114 Q 269 114 271 113 Q 281 108 292 104 Q 303 100 315 96 Q 330 92 346 89 Q 361 86 377 88 Q 383 89 389 90 Q 395 92 401 96 Q 413 104 411 119 Q 410 124 408 129 Q 407 134 405 138 Q 395 163 382 187 Q 369 211 354 234 Q 353 236 352 237 Q 351 239 349 241 Q 361 250 373 259 Q 384 268 396 277 Q 397 276 398 275 Q 398 275 399 274 Q 411 257 422 240 Q 432 223 442 204 Q 449 191 456 178 Q 463 164 467 151 Q 473 137 475 122 Q 476 108 473 93 Q 468 74 454 57 Q 445 61 436 65 Q 427 69 418 74 Q 424 66 430 60 Q 436 53 442 46 Q 436 40 426 34 Q 416 29 407 27 Q 388 21 369 21 Q 351 21 332 23 Q 312 26 293 31 Q 257 49 256 44 Q 245 48 235 52 Z M 238 253 Q 293 290 346 327 Q 399 364 454 401 Q 464 391 472 381 Q 480 370 485 357 Q 443 324 401 292 Q 359 259 317 226 Q 308 233 300 240 Q 292 247 280 250 Q 286 241 292 232 Q 295 228 297 223 Q 300 219 303 215 Q 297 210 292 205 Q 286 201 280 197 Q 275 201 268 208 Q 261 215 255 223 Q 250 231 245 239 Q 240 246 238 253 Z M 91 172 Q 95 231 99 289 Q 102 347 107 407 Q 109 407 112 407 Q 114 407 117 408 Q 118 400 119 392 Q 120 385 123 377 Q 126 389 127 400 Q 129 412 132 423 Q 134 396 135 369 Q 136 342 138 315 H 139 Q 143 339 147 363 Q 150 386 154 410 Q 157 408 160 408 V 400 Q 160 384 159 368 Q 158 351 158 336 Q 158 322 158 308 Q 157 295 157 281 Q 157 277 154 276 Q 149 273 146 270 Q 143 268 139 264 Q 136 263 134 261 Q 133 260 130 258 Q 131 256 132 253 Q 136 246 140 240 Q 144 234 148 228 Q 152 224 153 220 Q 155 217 155 211 Q 154 202 154 194 Q 154 186 154 176 Q 154 174 153 170 Q 153 167 153 164 Q 137 166 122 168 Q 107 170 91 172 Z M 190 96 Q 148 98 108 99 Q 67 101 25 102 Q 23 120 24 137 Q 25 154 31 171 Q 71 167 111 162 Q 151 157 190 153 Z M 250 400 Q 262 391 275 381 Q 287 371 300 361 Q 300 361 301 361 Q 286 389 269 416 Q 271 417 273 418 Q 275 419 277 421 Q 279 419 285 413 Q 291 406 299 397 Q 306 388 315 378 Q 323 368 330 359 Q 338 350 343 344 Q 348 338 348 337 Q 337 329 325 321 Q 314 313 302 305 Q 285 326 269 346 Q 253 366 236 386 Q 240 390 242 393 Q 245 396 250 400 Z M 86 92 Q 89 93 99 92 Q 110 92 121 92 Q 132 91 141 91 Q 151 90 152 90 Q 152 80 152 70 Q 152 61 151 51 Q 139 50 126 49 Q 113 49 101 48 V 47 Q 113 43 126 39 Q 138 35 150 31 V 11 Q 133 8 115 8 Q 98 8 81 13 Q 82 33 83 53 Q 84 73 86 92 Z M 49 328 Q 50 328 51 328 Q 51 328 51 328 Q 70 308 90 289 Q 92 287 91 284 L 90 257 Q 89 243 88 230 Q 87 217 86 204 Q 86 202 86 200 Q 86 199 85 196 Q 66 221 47 245 Q 17 257 9 293 Q 12 296 16 300 Q 19 303 23 307 Q 28 302 33 297 Q 38 293 43 288 Q 44 287 46 286 Q 47 285 48 284 Q 50 283 52 284 Q 52 284 53 285 Q 53 286 54 287 Q 54 288 53 289 Q 52 289 52 290 Q 49 298 46 305 Q 42 313 39 320 Q 40 321 41 323 Q 43 324 45 325 Q 47 326 49 328 Z M 186 204 Q 171 215 160 228 Q 148 241 140 256 Q 154 266 166 276 Q 179 285 192 295 Q 204 287 213 278 Q 223 269 231 258 Q 220 244 209 231 Q 198 218 186 204 Z M 213 150 Q 214 136 213 123 Q 212 110 209 96 H 192 Q 196 110 199 124 Q 203 137 207 151 Q 209 150 213 150 Z" fill="black" />
  </g>
  <g class="defect" id="01">
    <path d="M 47 245 Q 17 257 9 293" fill="none" stroke="red" stroke-width="3" />
  </g>
  <g class="defect" id="02">
    <path d="M 293 31 Q 257 49 256 44" fill="none" stroke="red" stroke-width="3" />
  </g>
  <g class="defect" id="03">
    <path d="M 232 105 Q 254 137 237 173" fill="none" stroke="red" stroke-width="3" />
  </g>
</svg>