<svg xmlns="http://www.w3.org/2000/svg" width="512" height="512" viewBox="0 0 512 512">
  <g class="glyph">
    <path d="M 0 329 Q 19 304 38 280 Q 57 255 77 230 Q 68 231 60 232 Q 52 233 43 234 Q 42 229 41 225 Q 39 220 37 216 Q 34 216 32 216 Q 29 216 27 217 Q 22 209 20 198 Q 17 187 17 174 Q 16 162 17 151 Q 17 140 20 134 Q 34 133 48 133 Q 62 133 77 131 Q 77 121 76 111 Q 76 100 75 90 Q 74 79 73 69 Q 73 58 72 47 Q 93 40 113 40 Q 134 40 156 45 V 59 Q 160 60 164 60 Q 169 61 173 62 Q 173 69 173 77 Q 173 84 173 92 Q 169 93 165 95 Q 161 96 157 98 V 99 Q 161 100 165 100 Q 169 100 173 101 Q 174 108 174 114 Q 191 120 174 128 Q 181 128 187 128 Q 192 128 200 127 Q 196 118 193 108 Q 190 98 187 89 Q 205 77 225 72 Q 245 67 267 66 Q 268 69 269 71 Q 269 74 270 76 Q 278 74 285 70 Q 293 67 301 64 Q 297 58 293 53 Q 289 47 285 41 Q 301 26 319 16 Q 337 6 358 0 Q 362 10 367 20 Q 369 19 371 19 Q 373 18 375 18 Q 379 25 383 33 Q 386 41 390 49 Q 394 49 398 50 Q 402 50 406 50 Q 421 51 436 56 Q 450 61 463 70 Q 466 72 469 74 Q 472 77 474 80 Q 478 85 482 89 Q 487 92 491 96 Q 492 98 495 101 Q 492 104 491 109 Q 491 110 492 112 Q 494 111 496 109 Q 497 108 499 107 Q 507 120 510 135 Q 512 147 510 159 Q 508 171 504 182 Q 498 199 488 216 Q 485 220 487 225 Q 488 227 488 229 Q 488 232 489 234 H 502 Q 504 239 506 248 Q 507 257 508 267 Q 508 277 508 286 Q 508 296 506 302 Q 487 304 468 306 Q 449 307 430 310 Q 431 315 432 321 Q 433 326 434 331 Q 442 369 440 405 Q 439 415 438 425 Q 437 435 432 444 Q 416 487 370 495 Q 347 499 326 493 Q 305 487 285 474 Q 286 472 286 471 Q 286 470 287 467 Q 282 465 277 462 Q 272 459 268 456 Q 270 447 274 440 Q 278 432 284 425 Q 285 426 287 427 Q 288 428 290 429 Q 289 427 288 425 Q 287 423 286 420 Q 290 415 295 410 Q 299 404 304 399 Q 306 400 307 400 Q 309 401 311 402 Q 317 405 324 407 Q 330 408 337 407 Q 342 406 344 404 Q 346 403 346 398 V 368 Q 343 345 337 322 Q 337 322 336 319 Q 316 322 298 324 Q 279 325 259 328 Q 258 324 256 321 Q 255 318 254 315 Q 248 321 243 327 Q 238 333 232 339 Q 226 345 220 349 Q 214 354 207 358 L 182 338 Q 181 338 181 338 Q 181 349 181 359 Q 181 370 181 381 Q 182 391 182 402 Q 182 412 182 423 Q 183 434 183 444 Q 183 455 183 466 Q 179 467 174 468 Q 170 469 165 470 Q 164 465 163 460 Q 162 455 161 451 Q 160 451 159 451 Q 158 451 157 451 Q 157 460 157 469 Q 156 477 156 486 Q 152 485 149 485 Q 146 485 142 484 Q 142 480 141 476 Q 140 472 139 468 Q 134 469 128 467 Q 123 465 117 465 L 116 449 Q 111 448 108 448 Q 104 448 100 447 Q 99 427 97 407 Q 95 386 94 366 Q 87 372 81 378 Q 75 384 69 390 Q 63 387 58 384 Q 53 381 48 376 Q 49 374 49 373 Q 48 371 46 370 Q 43 368 42 369 Q 40 370 38 368 L 35 365 Q 28 357 20 349 Q 12 341 4 334 Q 1 331 0 329 Z M 468 84 Q 466 82 465 81 Q 457 74 448 69 Q 438 65 428 62 Q 409 56 390 56 Q 372 56 353 59 Q 333 62 314 68 Q 295 74 276 83 Q 275 84 274 84 Q 273 84 272 85 V 86 Q 275 99 277 111 Q 280 123 283 135 Q 283 136 283 137 Q 283 137 284 138 Q 286 142 289 145 Q 291 148 294 151 Q 295 150 297 149 Q 298 149 299 148 Q 309 143 319 138 Q 328 134 339 130 Q 356 124 372 121 Q 389 118 405 120 Q 416 121 424 125 Q 430 127 429 134 Q 429 137 428 142 Q 426 150 423 158 Q 420 165 416 173 Q 414 174 414 175 Q 414 176 413 177 Q 424 186 435 192 Q 447 199 460 204 Q 466 193 471 182 Q 477 172 481 160 Q 484 151 485 141 Q 487 132 485 122 Q 485 112 479 101 Q 471 106 465 111 Q 461 114 456 116 Q 452 117 446 118 Q 452 109 457 101 Q 462 93 468 84 Z M 246 303 Q 305 296 364 290 Q 423 284 482 277 Q 485 251 479 224 Q 451 225 423 226 Q 395 227 366 228 Q 364 239 361 250 Q 358 260 354 271 Q 351 260 350 250 Q 348 239 346 229 Q 319 230 292 231 Q 266 233 239 235 Q 237 253 239 270 Q 240 286 246 303 Z M 276 453 Q 278 454 278 455 Q 310 473 345 471 Q 370 469 388 454 Q 406 438 412 413 Q 414 403 415 392 Q 416 382 416 372 Q 416 334 405 296 Q 405 295 405 295 Q 404 294 404 293 Q 387 295 371 297 Q 355 298 338 300 V 302 Q 339 303 339 304 Q 339 305 339 306 Q 344 321 348 336 Q 351 351 353 366 Q 354 375 354 383 Q 354 391 354 399 Q 352 407 349 410 Q 346 413 338 414 Q 329 416 317 412 Q 315 411 312 410 Q 308 409 305 408 Q 303 411 300 415 Q 298 418 295 421 Q 301 432 307 442 Q 314 452 320 462 Q 312 455 303 448 Q 295 442 286 435 Q 283 441 280 444 Q 279 446 278 448 Q 277 451 276 453 Z M 159 438 Q 158 427 158 415 Q 158 404 157 393 L 156 318 Q 156 315 153 312 Q 148 309 144 306 Q 140 303 136 300 Q 134 298 133 297 Q 131 296 129 295 Q 134 285 139 277 Q 145 269 152 261 Q 153 260 153 258 Q 154 257 154 254 Q 154 242 153 231 Q 153 219 153 207 Q 153 206 152 204 Q 152 203 152 202 Q 137 204 121 206 Q 106 207 91 209 Q 94 268 98 325 Q 102 383 106 442 Q 109 442 111 442 Q 113 442 116 442 Q 133 444 119 427 Q 120 419 122 412 H 123 Q 125 423 127 435 Q 129 446 131 458 H 132 Q 134 432 135 406 Q 136 379 138 354 H 139 Q 143 376 147 399 Q 150 422 154 445 Q 155 444 159 444 Z M 188 135 Q 147 136 107 138 Q 66 139 25 140 Q 24 147 24 156 Q 23 166 24 176 Q 25 186 27 194 Q 29 203 32 208 Q 71 204 110 199 Q 149 195 189 190 Q 188 176 188 163 Q 188 149 188 135 Z M 289 198 Q 283 167 276 136 Q 269 105 261 74 Q 244 75 227 79 Q 210 83 195 92 Q 206 123 217 154 Q 227 184 239 215 Q 252 213 265 208 Q 277 204 289 198 Z M 361 222 Q 384 220 407 220 Q 429 219 452 218 L 448 214 Q 443 210 437 206 Q 431 202 425 198 Q 421 195 422 192 Q 418 188 413 185 Q 408 182 404 178 Q 407 173 409 169 Q 411 165 413 160 Q 415 156 417 152 Q 419 148 419 142 Q 389 142 362 151 Q 335 161 310 176 Q 308 174 307 173 Q 306 172 305 171 L 304 172 Q 307 184 310 195 Q 313 207 315 218 Q 313 219 312 220 Q 310 222 308 223 Q 308 223 309 224 Q 320 223 330 222 Q 341 222 351 222 Q 353 226 354 230 Q 354 235 356 239 Q 357 235 358 230 Q 359 226 361 222 Z M 80 54 Q 81 73 82 92 Q 84 112 85 131 Q 102 130 118 130 Q 134 130 151 129 Q 150 119 150 109 Q 149 100 149 90 Q 137 89 125 89 Q 113 88 101 87 V 86 L 125 78 Q 130 76 136 74 Q 142 72 148 70 V 51 Q 142 50 133 49 Q 123 48 114 48 Q 104 48 95 50 Q 86 51 80 54 Z M 23 343 Q 28 338 33 333 Q 39 328 43 323 L 47 320 Q 50 320 52 320 Q 52 321 52 324 Q 52 325 52 325 Q 52 326 52 326 Q 49 332 47 338 Q 44 343 42 349 Q 41 351 40 352 Q 40 354 39 356 Q 41 358 44 360 Q 47 361 50 364 Q 52 363 54 359 Q 61 351 69 344 Q 77 337 85 329 Q 90 324 90 322 Q 91 320 91 313 Q 89 294 88 275 Q 86 257 85 237 Q 85 236 85 236 Q 85 235 85 233 Q 66 258 47 281 Q 29 305 10 329 Q 15 337 23 343 Z M 184 241 Q 170 252 158 264 Q 146 277 138 293 Q 152 302 165 312 Q 178 322 190 332 Q 201 324 211 315 Q 220 306 229 294 Q 217 280 206 267 Q 196 254 184 241 Z M 370 49 Q 370 47 368 41 Q 366 34 363 28 Q 360 22 358 16 Q 355 11 354 9 Q 348 10 340 14 Q 331 17 323 22 Q 314 27 306 33 Q 299 38 295 43 Q 298 48 301 52 Q 304 57 308 62 Q 323 56 339 53 Q 354 50 370 49 Z M 233 228 Q 236 228 240 228 Q 243 227 246 227 Q 245 225 245 224 Q 244 223 244 222 Q 241 222 239 222 Q 236 222 234 222 Q 233 219 232 217 Q 231 215 230 213 Q 226 213 223 213 Q 220 213 217 214 Q 216 211 216 210 Q 215 208 215 207 H 214 Q 214 209 214 210 Q 214 212 214 214 Q 205 215 196 216 Q 187 217 178 218 Q 178 223 178 227 Q 178 232 179 236 Q 181 235 182 234 Q 184 233 185 232 Q 186 232 187 233 Q 193 240 199 246 Q 206 252 212 259 Q 217 264 221 270 Q 226 275 230 281 Q 231 281 232 282 Q 232 283 234 284 Q 231 270 231 256 Q 231 242 233 228 Z M 204 188 Q 208 188 210 188 Q 211 188 211 185 Q 211 176 211 168 Q 211 160 208 152 Q 207 147 205 143 Q 204 139 202 135 Q 199 135 196 135 Q 193 135 190 135 Q 193 149 197 162 Q 200 175 204 188 Z" fill="black" />
  </g>
  <g class="defect" id="01">
    <path d="M 174 114 Q 191 120 174 128" fill="none" stroke="red" stroke-width="3" />
  </g>
  <g class="defect" id="02">
    <path d="M 116 442 Q 133 444 119 427" fill="none" stroke="red" stroke-width="3" />
  </g>
</svg>