<svg xmlns="http://www.w3.org/2000/svg" width="512" height="512" viewBox="0 0 512 512">
  <g class="glyph">
    <path d="M 229 128 Q 227 124 227 119 Q 226 115 225 110 Q 217 74 212 40 Q 212 39 212 35 Q 216 33 225 31 Q 233 29 240 28 Q 241 29 241 30 Q 241 31 241 33 Q 243 32 243 31 Q 243 30 243 28 Q 245 27 247 27 Q 254 26 262 26 Q 269 26 277 27 Q 283 29 289 26 Q 300 22 311 18 Q 322 15 334 13 Q 342 11 350 10 Q 358 9 367 10 Q 374 10 381 11 Q 388 13 395 15 Q 406 21 414 31 Q 416 34 420 37 Q 441 52 441 78 Q 441 84 440 90 Q 439 96 438 101 Q 436 106 434 109 Q 432 113 431 117 Q 432 119 433 121 Q 433 122 435 125 Q 437 124 438 124 Q 439 124 441 123 Q 443 125 447 132 Q 451 138 452 144 Q 451 145 450 145 Q 449 146 448 147 Q 447 148 445 148 Q 444 149 443 150 Q 445 151 445 151 Q 447 151 449 151 Q 450 150 452 150 H 456 Q 458 156 459 162 Q 461 169 461 174 Q 460 174 460 175 Q 459 175 458 176 Q 453 178 448 179 Q 443 181 437 183 Q 435 183 434 183 Q 433 183 432 184 Q 435 189 438 193 Q 440 197 441 200 Q 442 203 443 205 Q 443 207 444 210 Q 445 213 446 217 Q 447 220 446 224 Q 443 226 440 227 Q 437 229 433 231 Q 437 232 439 232 Q 442 232 444 233 Q 445 235 444 239 Q 443 244 442 249 Q 440 253 438 258 Q 435 262 433 266 Q 430 270 428 273 Q 426 274 426 276 Q 425 277 424 278 Q 427 280 430 280 Q 433 281 436 282 Q 437 285 436 288 Q 435 290 435 293 Q 440 295 444 296 Q 449 298 453 299 Q 454 300 454 302 Q 453 304 453 305 Q 452 312 451 319 Q 449 326 446 333 L 444 338 Q 447 339 450 338 Q 452 338 455 338 Q 457 343 459 351 Q 460 360 460 365 Q 457 366 455 367 Q 452 367 450 368 Q 447 369 445 369 Q 443 369 440 370 Q 441 372 442 372 Q 445 372 447 372 Q 449 372 452 372 Q 453 372 454 372 Q 455 373 456 373 Q 457 377 456 384 Q 456 392 454 398 Q 452 398 450 399 Q 441 400 433 400 Q 425 401 416 402 Q 409 402 401 402 Q 394 403 386 404 Q 385 404 385 404 Q 384 404 382 405 Q 386 407 389 409 Q 392 411 395 413 Q 397 415 401 416 Q 404 418 407 420 Q 410 422 413 424 Q 416 426 419 428 Q 422 429 425 431 Q 428 433 431 434 Q 431 436 431 437 Q 431 439 430 440 Q 432 442 434 443 Q 437 444 439 446 Q 441 447 444 448 Q 446 450 449 451 Q 449 452 448 454 Q 447 458 445 462 Q 443 465 442 469 Q 438 478 432 486 Q 426 495 420 502 Q 419 503 418 504 Q 418 504 416 505 H 416 H 415 Q 389 494 363 482 Q 338 471 311 460 Q 310 459 310 459 Q 309 457 310 455 Q 311 453 311 451 Q 309 449 307 448 Q 305 448 302 447 Q 299 445 297 444 Q 295 443 292 442 Q 292 441 292 439 Q 293 438 293 437 Q 295 431 297 426 Q 300 420 302 414 Q 303 413 303 413 Q 304 412 304 411 V 410 Q 301 410 293 410 Q 285 411 283 412 Q 283 433 283 455 Q 284 476 285 497 Q 280 499 273 500 Q 267 501 261 501 Q 259 497 258 493 Q 257 488 255 484 Q 252 483 252 486 Q 251 488 251 490 Q 251 492 250 495 Q 249 497 248 502 Q 247 502 246 503 Q 246 503 245 503 Q 239 504 233 503 Q 227 502 221 502 Q 220 502 220 502 Q 219 501 218 501 Q 217 497 217 494 Q 217 490 216 486 Q 212 486 208 485 Q 205 485 201 485 Q 201 483 200 483 Q 200 482 200 481 Q 199 471 198 461 Q 197 450 196 440 Q 195 435 195 430 Q 195 425 194 421 Q 194 419 193 419 Q 189 418 182 418 Q 175 419 173 420 Q 173 422 176 425 Q 177 426 178 427 Q 179 429 179 430 Q 181 431 181 433 Q 182 434 183 435 Q 184 437 185 438 Q 185 439 186 441 Q 186 442 185 442 Q 185 442 184 443 Q 181 445 178 447 Q 175 449 172 452 Q 164 458 156 463 Q 148 469 139 475 Q 138 476 137 476 Q 136 476 135 477 Q 132 476 130 474 Q 128 472 126 471 Q 124 470 121 468 Q 119 467 117 465 Q 116 466 116 467 Q 117 467 117 468 Q 118 470 120 474 Q 121 477 123 480 Q 124 481 124 482 Q 124 483 125 484 Q 124 486 122 486 Q 115 492 106 497 Q 98 502 90 507 Q 89 508 87 510 Q 86 511 83 512 H 81 L 79 510 Q 73 506 68 501 Q 63 496 59 490 Q 56 488 52 485 Q 45 478 38 470 Q 31 462 25 453 Q 24 452 24 451 Q 24 449 23 448 L 34 439 Q 36 436 39 434 Q 42 432 44 430 Q 44 429 43 429 Q 43 429 42 429 Q 39 429 36 429 Q 32 429 29 430 Q 27 425 26 421 Q 24 417 23 412 Q 22 412 21 412 Q 21 412 20 412 Q 18 412 16 412 Q 14 412 12 412 Q 8 406 6 396 Q 4 387 3 376 Q 3 366 3 355 Q 4 345 6 338 H 10 Q 18 337 27 337 Q 36 337 45 336 Q 47 336 49 336 Q 50 333 49 328 Q 44 327 41 327 Q 37 327 33 326 Q 33 325 33 324 Q 33 323 33 321 Q 32 311 31 301 Q 31 290 31 280 Q 31 279 30 278 Q 30 277 30 276 H 24 Q 24 274 24 274 Q 23 273 23 272 Q 22 270 22 267 Q 21 264 20 262 Q 20 261 20 260 Q 20 259 19 258 Q 16 258 13 258 Q 10 258 6 258 Q 5 256 5 254 Q 2 243 1 232 Q 0 223 0 214 Q 1 204 2 195 Q 2 192 3 191 Q 9 190 15 190 Q 21 191 27 190 Q 28 187 28 185 Q 27 183 27 181 V 170 V 161 Q 30 158 34 157 Q 37 156 41 153 V 153 Q 41 152 40 152 L 29 150 H 28 Q 27 147 27 144 Q 27 141 27 139 V 127 V 115 V 103 Q 30 102 33 101 Q 36 101 40 100 Q 39 99 39 98 Q 39 98 39 97 Q 36 98 32 99 Q 30 97 29 94 Q 20 80 16 61 L 15 55 Q 15 54 15 53 Q 55 37 96 25 Q 137 12 178 0 Q 178 0 179 3 Q 183 8 185 14 Q 186 15 186 16 Q 186 17 187 19 Q 189 18 191 18 Q 193 17 195 17 Q 196 19 197 20 Q 201 26 203 32 Q 205 39 206 46 Q 208 52 208 59 Q 209 65 210 71 Q 210 73 209 75 Q 203 76 197 78 Q 191 80 184 81 Q 185 81 185 82 Q 185 82 186 83 Q 199 90 208 102 Q 209 103 210 104 Q 210 105 211 105 Q 223 115 230 126 Q 227 127 227 128 Q 227 128 229 128 Q 229 128 229 129 Q 229 129 229 128 Z M 214 285 Q 214 282 215 279 Q 215 277 215 274 Q 216 270 216 265 Q 216 260 216 255 Q 217 244 218 234 Q 219 223 219 212 Q 220 200 219 187 Q 219 175 218 163 Q 217 148 213 135 Q 210 126 206 117 Q 202 109 195 102 Q 187 93 178 89 Q 169 84 159 82 Q 151 81 144 82 Q 136 82 128 83 Q 115 85 103 89 Q 91 93 79 99 Q 78 100 77 101 Q 81 102 84 103 Q 88 103 92 105 V 110 Q 91 117 91 124 Q 91 130 91 137 Q 91 138 91 139 Q 90 140 91 141 Q 94 146 98 148 Q 101 147 103 146 Q 105 145 107 144 Q 116 139 126 135 Q 136 132 146 131 Q 159 129 165 141 Q 166 142 166 144 Q 167 145 167 146 Q 169 150 170 153 Q 170 157 172 160 Q 173 169 173 177 Q 174 185 174 193 Q 175 213 175 234 Q 174 255 173 276 Q 173 282 172 289 Q 172 296 170 302 V 305 Q 172 305 173 305 Q 175 306 176 306 Q 177 307 179 307 Q 179 302 179 298 Q 178 294 178 290 Q 182 288 187 287 Q 191 286 195 285 Q 200 286 205 286 Q 209 285 214 285 Z M 302 84 Q 307 82 310 81 Q 314 79 317 78 Q 335 71 352 67 Q 354 67 356 66 Q 358 65 360 65 Q 366 64 366 71 Q 366 72 366 73 Q 366 74 366 75 Q 365 78 363 82 Q 361 87 358 91 Q 356 96 355 100 Q 353 107 352 114 Q 351 120 352 128 Q 353 133 355 137 Q 357 141 361 146 H 363 Q 385 146 403 157 Q 406 159 410 158 Q 421 157 433 153 Q 433 152 434 152 Q 434 151 435 151 Q 434 147 434 145 Q 433 143 432 141 H 432 Q 429 141 427 141 Q 424 141 422 142 Q 416 143 413 143 Q 406 144 399 144 Q 393 144 386 145 H 385 H 384 V 144 Q 390 141 395 139 Q 400 137 405 135 Q 418 129 426 123 Q 425 120 424 118 Q 423 116 421 113 Q 420 113 418 114 Q 416 115 415 115 Q 413 116 411 116 Q 409 116 406 116 Q 402 114 402 109 Q 402 107 402 106 Q 403 105 403 104 Q 406 98 409 93 Q 412 87 414 81 Q 417 73 417 64 Q 418 47 409 35 Q 400 22 384 18 Q 380 17 375 16 Q 371 16 367 16 Q 361 16 354 17 Q 348 17 341 18 Q 328 21 316 25 Q 303 29 291 33 Q 290 33 288 34 Q 288 34 288 35 Q 288 35 288 35 Q 288 42 288 48 Q 289 55 289 61 Q 289 62 290 63 Q 290 64 290 65 Q 292 69 294 73 Q 296 78 299 82 Q 299 83 300 85 Z M 258 471 Q 257 449 257 427 Q 257 405 255 383 Q 255 368 255 354 Q 255 339 254 325 Q 254 324 254 322 Q 254 321 253 319 H 246 Q 244 319 243 319 Q 241 319 239 319 Q 234 319 232 318 Q 230 318 229 318 Q 227 318 225 318 Q 223 318 221 317 Q 220 317 217 317 Q 213 317 211 317 H 203 Q 202 317 200 317 Q 198 317 196 316 Q 197 315 197 315 Q 197 315 198 315 Q 211 312 223 310 Q 235 307 247 305 Q 249 304 250 304 Q 251 304 253 303 V 293 Q 251 292 249 292 Q 248 292 247 292 Q 244 291 242 291 Q 240 291 237 291 Q 212 290 189 295 Q 188 296 187 296 Q 186 296 185 297 Q 185 299 185 301 Q 185 304 186 306 Q 187 314 187 322 Q 188 330 189 338 Q 190 347 191 355 Q 192 364 193 373 Q 194 381 195 389 Q 195 397 196 405 Q 197 413 198 422 Q 199 430 200 439 Q 201 447 201 455 Q 202 463 203 471 Q 203 475 204 477 Q 207 477 209 477 Q 211 477 213 478 Q 215 478 218 478 Q 220 478 223 477 Q 225 467 227 456 Q 230 445 232 434 L 234 439 Q 237 447 239 455 Q 242 463 244 471 Q 245 472 245 473 Q 246 475 246 476 Q 249 476 252 476 Q 254 475 258 475 Z M 31 165 Q 32 203 33 241 Q 34 280 36 318 Q 40 319 45 319 Q 51 320 57 320 Q 63 319 68 319 Q 74 318 77 317 Q 78 266 79 215 Q 81 165 84 114 V 112 Q 84 111 83 111 Q 80 110 73 108 Q 66 107 58 107 Q 51 107 43 107 Q 36 108 31 109 V 111 V 141 V 144 Q 33 145 36 145 Q 43 145 50 145 Q 56 146 63 146 Q 65 146 65 147 Q 57 151 49 156 Q 40 160 31 165 Z M 344 246 Q 350 250 359 253 Q 363 254 367 256 Q 371 258 375 259 Q 379 261 383 262 Q 386 264 391 265 Q 396 260 401 254 Q 405 248 409 242 Q 412 238 414 234 Q 416 229 418 224 Q 418 223 418 221 Q 414 221 409 220 Q 405 220 401 220 Q 396 219 392 219 Q 387 219 382 217 Q 393 213 402 210 Q 411 207 420 202 Q 421 200 420 198 Q 420 196 419 195 Q 415 172 394 160 Q 377 153 362 153 Q 355 153 349 154 Q 343 154 337 155 Q 320 158 303 162 Q 287 166 270 172 Q 268 172 266 173 V 176 Q 268 186 271 196 Q 274 205 279 214 Q 281 217 285 219 Q 286 220 286 220 Q 287 220 288 221 Q 290 220 293 219 Q 307 214 320 210 Q 334 206 348 204 Q 352 203 356 203 Q 359 203 363 201 H 364 Q 365 201 366 201 Q 367 202 368 202 Q 369 203 369 203 Q 370 203 371 204 Q 373 206 373 210 Q 372 211 372 212 Q 372 213 371 214 Q 368 220 365 224 Q 362 230 357 234 Q 353 238 348 242 Q 347 243 346 244 Q 345 245 344 246 Z M 111 367 Q 114 368 115 369 Q 126 375 135 384 Q 137 386 139 388 Q 141 390 144 393 Q 146 394 149 394 Q 151 394 154 394 Q 157 394 160 393 Q 167 393 173 393 Q 179 392 185 392 Q 186 392 188 391 Q 188 386 187 383 Q 187 380 186 375 Q 185 367 185 359 Q 184 351 183 343 Q 183 339 182 338 H 177 Q 166 338 156 338 Q 146 338 135 339 Q 118 340 101 340 Q 84 340 68 342 Q 56 342 45 342 Q 34 342 22 343 Q 20 343 17 343 Q 14 344 11 344 Q 9 348 8 357 Q 8 365 8 374 Q 10 382 11 389 Q 12 396 15 404 Q 20 404 22 403 Q 34 402 47 401 Q 59 401 72 400 Q 74 400 76 399 Q 78 398 79 397 Q 86 391 92 385 Q 99 379 105 373 Q 107 371 111 367 Z M 249 268 Q 255 271 268 277 Q 281 282 298 288 Q 316 294 334 301 Q 353 307 370 312 Q 386 318 399 321 Q 411 325 414 325 Q 416 323 419 317 Q 421 312 423 306 Q 424 300 425 295 Q 426 290 426 287 Q 386 273 348 256 Q 309 240 271 221 Q 268 224 264 230 Q 261 236 257 244 Q 254 251 252 257 Q 249 264 249 268 Z M 419 335 Q 413 333 405 331 Q 400 328 394 329 Q 379 330 364 331 Q 349 331 334 331 Q 327 332 321 332 Q 314 333 308 333 Q 304 333 302 334 Q 300 335 298 336 Q 297 337 295 338 Q 295 339 294 339 Q 293 339 292 340 Q 290 338 288 337 Q 287 335 285 334 Q 278 333 272 334 Q 266 334 262 335 Q 262 336 262 336 Q 262 337 262 338 Q 262 340 262 342 Q 262 344 262 347 Q 263 356 263 365 Q 263 374 263 383 Q 263 384 264 385 Q 264 385 264 386 L 422 375 Q 424 375 426 375 Q 428 375 430 375 Q 431 371 431 368 Q 431 366 431 363 Q 423 362 415 361 Q 407 361 400 361 Q 392 361 385 360 Q 377 359 370 359 Q 375 357 381 355 Q 386 354 391 353 Q 396 352 401 351 Q 406 349 412 348 Q 418 347 423 346 Q 428 345 433 343 Q 434 339 431 329 Q 426 328 423 329 Q 420 331 419 335 Z M 181 49 Q 181 48 181 46 Q 181 44 181 42 Q 179 35 178 28 Q 176 21 173 14 Q 172 13 172 12 Q 172 11 170 10 Q 169 10 168 10 Q 167 10 166 11 Q 145 16 124 22 Q 103 29 83 36 Q 68 41 53 46 Q 39 51 24 57 Q 20 58 20 59 Q 20 65 23 75 Q 27 86 31 91 Q 31 91 31 91 Q 69 79 106 70 Q 143 60 181 53 Z M 220 40 Q 220 43 221 53 Q 223 62 225 75 Q 227 87 230 101 Q 233 114 236 126 Q 239 138 241 147 Q 243 156 244 159 Q 248 160 255 159 Q 261 158 268 157 Q 275 155 281 153 Q 287 151 290 149 Q 290 146 289 143 Q 289 140 288 137 L 287 124 L 285 111 Q 285 108 285 105 Q 285 101 284 98 Q 283 95 283 92 Q 283 89 283 86 Q 282 82 282 79 Q 282 75 282 72 Q 281 69 281 66 Q 281 63 281 60 Q 280 56 280 53 Q 280 50 280 47 Q 280 43 280 40 Q 280 37 279 34 Q 277 34 272 33 Q 268 33 264 33 Q 260 33 256 33 Q 252 33 250 34 Q 249 38 248 42 Q 248 46 246 51 Q 246 55 245 60 Q 245 64 244 69 H 238 Q 236 64 236 60 Q 236 56 235 52 Q 234 48 234 44 Q 234 40 234 36 Q 226 37 220 40 Z M 396 479 Q 396 479 397 478 Q 404 469 410 459 Q 416 450 421 439 Q 421 439 421 437 Q 420 436 419 435 Q 418 435 417 434 Q 400 424 382 413 Q 365 403 347 392 Q 342 388 339 388 Q 337 387 330 388 Q 327 388 325 391 Q 323 394 320 397 Q 318 401 315 404 Q 311 411 307 418 Q 304 425 301 432 Q 301 433 301 434 Q 301 435 300 437 Q 301 437 308 440 Q 315 444 325 448 Q 335 453 347 458 Q 358 463 369 467 Q 379 472 387 475 Q 394 478 396 479 Z M 97 463 Q 91 453 87 444 Q 82 434 77 424 Q 79 425 81 426 Q 82 427 84 428 Q 87 430 88 431 Q 90 433 93 434 Q 95 435 97 436 Q 99 438 100 439 Q 102 441 104 442 Q 106 444 109 445 Q 111 446 112 448 Q 114 449 117 450 Q 118 449 120 448 Q 121 447 122 446 Q 131 440 140 434 Q 148 428 157 421 Q 157 421 158 421 Q 155 415 149 408 Q 143 401 136 395 Q 130 388 123 383 Q 117 378 112 376 Q 111 377 110 378 Q 109 378 108 380 Q 90 396 71 413 Q 52 430 33 446 L 31 449 Q 44 469 63 485 Q 72 480 80 475 Q 88 469 97 463 Z M 88 195 Q 87 198 86 210 Q 86 221 86 239 Q 86 241 87 243 Q 94 244 98 239 Q 101 235 105 231 Q 108 228 112 224 Q 115 223 116 222 Q 121 226 125 230 Q 129 235 134 239 H 136 Q 143 238 150 238 Q 157 237 164 236 Q 166 236 167 235 V 221 V 206 Q 167 203 167 200 Q 167 196 166 193 H 163 Q 159 193 156 193 Q 153 193 149 193 Q 146 193 142 196 Q 138 198 135 200 Q 131 202 128 205 L 126 206 Q 141 187 121 202 Q 118 200 117 197 Q 102 209 108 194 Q 104 194 100 194 Q 96 194 91 195 Q 90 195 89 195 Q 89 195 88 195 Z M 87 267 Q 91 269 94 272 Q 98 274 102 277 Q 106 280 110 282 Q 113 285 117 287 Q 121 289 124 292 Q 128 295 132 297 Q 138 292 144 284 Q 151 276 154 270 Q 153 269 147 263 Q 141 257 135 250 Q 128 244 122 239 Q 117 233 116 232 Q 112 234 108 238 Q 103 242 99 247 Q 96 252 92 257 Q 88 262 87 267 Z M 98 169 Q 99 171 103 175 Q 107 179 111 183 Q 116 188 120 192 Q 124 196 126 197 Q 129 196 133 193 Q 137 191 141 187 Q 145 184 148 181 Q 151 178 153 176 Q 151 173 149 168 Q 146 163 143 158 Q 139 153 137 149 Q 134 145 133 144 Q 129 145 124 148 Q 119 150 114 154 Q 109 158 105 162 Q 100 166 98 169 Z M 181 329 Q 179 328 179 325 Q 179 324 179 323 Q 179 321 180 320 Q 180 319 180 318 Q 180 317 179 316 Q 177 315 175 315 Q 174 315 171 314 Q 166 311 163 311 Q 159 314 157 317 Q 154 320 149 323 L 148 321 Q 137 315 127 308 Q 116 301 106 293 Q 105 293 103 292 Q 103 295 103 301 Q 102 307 102 314 Q 102 320 102 325 Q 102 330 103 332 Q 105 333 116 332 Q 128 332 141 331 Q 155 331 167 330 Q 179 330 181 329 Z M 315 111 Q 313 109 311 106 Q 310 104 307 101 V 105 Q 308 109 308 113 Q 308 117 308 121 Q 309 128 310 135 Q 311 143 312 150 Q 312 150 312 151 Q 313 151 313 153 H 315 Q 323 151 331 150 Q 340 148 348 147 Q 350 147 350 146 Q 350 145 349 144 Q 342 130 344 113 Q 345 110 345 107 Q 345 105 346 102 V 99 Q 342 101 338 102 Q 334 104 330 106 Q 327 107 323 108 Q 319 110 315 111 Z M 331 308 Q 327 307 326 306 Q 316 302 307 299 Q 298 296 288 292 Q 287 291 283 290 Q 283 290 282 290 Q 281 290 280 290 Q 278 292 276 293 Q 273 295 271 297 Q 274 304 281 315 Q 287 326 293 331 Q 295 330 300 327 Q 305 324 311 320 Q 317 317 323 313 Q 329 309 331 308 Z M 26 243 Q 26 237 26 231 Q 26 225 25 220 Q 25 214 25 210 Q 25 205 25 201 Q 25 200 25 199 Q 24 198 24 197 Q 21 197 15 197 Q 8 197 6 198 Q 5 202 4 210 Q 4 217 5 225 Q 5 232 6 239 Q 7 246 9 250 Q 12 250 18 249 Q 24 249 26 248 Z M 243 202 Q 247 202 254 202 Q 261 202 264 201 Q 264 198 262 192 Q 260 186 260 185 Q 259 185 255 184 Q 254 179 253 175 Q 252 171 251 167 H 246 Q 242 167 241 168 Q 242 176 243 184 Q 243 193 243 202 Z M 260 281 Q 257 280 255 279 Q 252 278 250 277 Q 248 276 245 275 Q 243 274 241 274 Q 240 277 240 279 Q 240 281 240 284 Q 242 285 248 286 Q 254 286 258 286 Q 258 285 259 285 Q 259 283 259 283 Q 259 282 260 281 Z M 336 243 Q 344 238 347 233 Q 344 234 338 235 Q 331 237 328 238 Q 328 238 327 239 Q 329 240 331 241 Q 334 242 336 243 Z M 158 157 Q 159 160 160 162 Q 162 164 163 166 H 163 Q 163 166 164 165 Q 164 161 162 156 Q 161 157 160 157 Q 159 157 158 157 Z M 264 301 Q 264 297 262 292 H 261 Q 260 295 260 297 Q 261 299 261 301 Q 262 302 264 302 Z M 160 264 Q 161 266 162 267 Q 163 268 165 270 Q 165 269 165 267 Q 166 266 165 264 Z" fill="black" />
  </g>
  <g class="defect" id="01">
    <path d="M 126 206 Q 141 187 121 202" fill="none" stroke="red" stroke-width="3" />
  </g>
  <g class="defect" id="02">
    <path d="M 117 197 Q 102 209 108 194" fill="none" stroke="red" stroke-width="3" />
  </g>
</svg>