<svg xmlns="http://www.w3.org/2000/svg" width="512" height="512" viewBox="0 0 512 512">
  <g class="glyph">
    <path d="M 457 34 Q 459 36 461 36 Q 464 35 465 37 Q 466 38 467 40 Q 468 41 470 42 Q 471 44 472 45 Q 474 46 475 47 Q 477 48 476 51 Q 476 51 477 52 Q 478 53 479 53 Q 481 52 484 56 Q 491 65 497 76 Q 503 86 506 99 Q 511 119 511 139 Q 510 160 505 180 Q 502 194 498 209 Q 493 223 488 237 Q 488 237 486 239 Q 483 238 479 237 Q 475 237 471 236 Q 471 239 472 241 Q 472 243 472 245 Q 464 250 455 253 Q 446 257 437 260 H 457 H 479 Q 480 264 481 269 Q 481 273 483 277 H 496 Q 498 283 499 289 Q 499 295 500 301 Q 496 303 493 304 Q 489 306 486 308 V 308 Q 493 309 500 310 Q 501 317 500 323 Q 499 330 498 337 Q 483 338 467 339 Q 452 340 437 341 Q 438 342 439 344 Q 467 368 492 392 Q 497 397 502 401 Q 507 406 512 411 Q 505 425 496 436 Q 487 448 475 458 Q 455 444 434 430 Q 413 417 392 403 Q 391 419 391 434 Q 392 450 391 465 Q 383 468 376 469 Q 368 469 359 469 Q 359 466 358 462 Q 358 459 357 456 H 357 Q 356 457 356 459 Q 355 460 355 462 Q 355 464 354 465 Q 353 467 353 469 Q 348 469 342 468 Q 337 468 331 467 Q 331 463 331 460 Q 330 456 330 452 Q 326 451 322 451 Q 318 450 314 449 Q 301 441 313 433 Q 313 425 313 416 Q 309 418 307 420 Q 304 422 302 424 Q 299 427 297 429 Q 294 430 292 432 Q 289 435 287 437 Q 284 439 281 441 Q 279 444 276 446 Q 273 448 271 450 Q 268 452 265 455 Q 263 457 260 459 Q 258 461 255 463 Q 253 465 251 467 Q 246 465 238 458 Q 229 451 220 443 Q 211 434 203 425 Q 195 416 191 409 Q 202 396 214 382 Q 225 369 238 356 H 227 Q 225 351 224 347 Q 223 343 222 339 H 210 Q 209 336 208 333 Q 207 330 206 327 Q 200 331 195 334 Q 191 338 185 342 Q 181 339 177 336 Q 173 333 169 329 Q 168 344 169 359 Q 170 373 170 388 Q 170 403 170 417 Q 171 432 171 447 Q 166 448 162 449 Q 157 450 153 451 Q 151 441 150 432 Q 159 444 145 436 L 144 461 V 467 Q 141 466 137 465 Q 134 465 131 465 L 127 449 Q 122 450 116 448 Q 111 446 105 446 Q 105 441 105 438 Q 105 435 104 430 L 88 429 Q 87 410 86 392 Q 85 373 83 355 Q 78 359 73 364 Q 69 369 63 374 Q 58 371 54 367 Q 49 364 44 361 Q 45 358 45 357 Q 43 353 37 355 Q 28 344 18 336 Q 8 327 0 316 Q 18 291 37 267 Q 56 243 74 219 Q 66 218 58 220 Q 50 221 42 221 Q 40 216 39 212 Q 37 208 36 204 Q 33 204 31 204 Q 28 204 25 204 Q 17 184 16 164 Q 15 144 18 123 Q 30 123 42 123 Q 55 122 67 122 Q 66 101 65 80 Q 63 60 62 40 Q 68 36 78 35 Q 88 33 100 32 Q 111 32 123 33 Q 134 34 143 36 V 50 Q 147 51 152 52 Q 156 52 160 53 V 83 Q 156 84 152 85 Q 149 87 145 88 V 90 Q 149 91 153 90 Q 157 90 161 91 V 119 Q 165 120 168 120 Q 171 119 174 119 Q 178 119 181 119 Q 184 119 188 119 Q 189 119 190 119 Q 191 120 193 120 Q 192 93 200 69 Q 207 44 216 19 Q 220 18 226 19 Q 232 20 238 22 Q 238 25 238 27 Q 238 30 238 33 Q 238 33 238 33 Q 239 31 240 28 Q 242 26 243 23 Q 246 23 249 25 Q 252 26 257 24 Q 272 18 288 13 Q 304 8 321 5 Q 330 3 340 2 Q 349 1 359 1 Q 373 0 387 1 Q 401 3 415 7 Q 427 11 437 16 Q 447 21 457 29 Q 458 30 458 31 Q 459 32 457 34 Z M 418 186 Q 416 186 416 187 Q 415 187 413 188 Q 391 195 369 198 Q 348 201 324 200 Q 315 199 306 198 Q 297 196 288 192 Q 264 181 259 158 Q 257 146 255 133 Q 254 104 264 79 Q 266 75 263 71 Q 254 54 251 36 Q 250 32 245 32 Q 239 45 234 58 Q 229 72 223 86 H 222 Q 224 71 226 57 Q 228 42 230 27 Q 227 26 225 26 Q 223 26 221 25 Q 220 26 220 27 Q 220 27 220 28 Q 216 37 213 47 Q 210 56 208 65 Q 201 89 199 113 Q 198 137 203 162 Q 216 224 278 244 Q 290 248 302 250 Q 315 251 328 251 Q 388 251 444 227 Q 446 226 447 225 Q 447 217 440 215 Q 437 214 433 213 Q 430 211 427 210 Q 423 208 420 206 Q 417 204 413 203 Q 414 199 415 195 Q 417 191 418 186 Z M 146 415 V 402 Q 145 379 144 356 Q 144 333 144 310 Q 144 306 140 303 Q 134 299 128 294 Q 122 290 116 285 Q 114 284 112 283 Q 111 281 109 280 Q 109 279 109 278 Q 110 277 110 275 Q 121 255 139 238 Q 142 235 142 231 Q 141 222 141 214 Q 141 205 141 197 V 189 Q 125 191 110 193 Q 95 195 80 197 Q 84 253 87 309 Q 91 365 95 422 Q 97 422 100 422 Q 102 422 105 422 Q 93 415 108 408 Q 109 400 110 393 H 111 Q 113 405 115 416 Q 116 427 119 438 H 120 Q 121 412 122 386 Q 124 361 125 334 H 126 Q 130 357 134 380 Q 137 402 141 425 Q 142 424 143 424 Q 144 424 146 424 Z M 281 85 Q 283 84 284 84 Q 284 84 285 83 Q 300 77 314 72 Q 329 67 344 64 Q 360 62 375 62 Q 391 62 407 67 Q 409 68 411 67 Q 420 59 430 51 Q 439 44 447 34 Q 448 34 449 32 Q 441 25 432 21 Q 416 12 399 9 Q 382 6 363 6 Q 341 7 321 11 Q 300 14 280 22 Q 274 24 268 26 Q 263 28 257 30 Q 263 61 281 85 Z M 348 445 Q 353 444 357 444 Q 362 443 367 443 Q 367 395 367 349 Q 368 302 368 255 Q 354 257 341 257 Q 328 258 314 257 Q 316 304 317 350 Q 319 397 320 443 Q 323 444 325 444 Q 327 444 330 445 Q 333 434 336 422 Q 339 411 342 401 H 343 Q 344 411 345 422 Q 347 434 348 445 Z M 168 125 Q 131 126 96 127 Q 61 128 25 129 Q 23 134 23 143 Q 22 152 23 162 Q 24 172 26 181 Q 27 190 31 196 Q 65 192 99 188 Q 133 183 168 179 Q 168 165 168 152 Q 168 139 168 125 Z M 411 70 Q 421 75 427 84 Q 432 92 434 103 Q 437 113 437 124 Q 437 135 435 146 Q 434 157 431 169 Q 428 180 424 191 Q 423 194 422 199 Q 444 210 465 214 Q 466 213 466 212 Q 466 211 467 210 Q 469 202 472 193 Q 475 185 478 176 Q 483 157 485 139 Q 488 121 486 101 Q 484 90 481 78 Q 477 67 471 57 Q 469 54 467 51 Q 465 47 462 44 Q 449 51 436 57 Q 424 63 411 70 Z M 312 191 Q 327 193 340 193 Q 354 193 368 191 V 80 Q 363 78 355 77 Q 346 76 337 77 Q 329 77 321 78 Q 313 80 309 82 Q 310 109 311 136 Q 311 163 312 191 Z M 214 331 Q 238 329 262 328 Q 285 326 309 324 Q 309 311 309 297 Q 308 283 308 270 Q 283 271 259 271 Q 236 271 212 271 Q 210 274 211 276 Q 213 277 213 280 Q 210 283 209 288 Q 209 292 209 297 Q 209 299 209 302 Q 209 304 210 307 Q 210 313 211 319 Q 212 325 214 331 Z M 486 396 Q 451 363 417 334 Q 411 339 406 345 Q 400 351 395 358 Q 390 366 387 372 Q 383 378 382 382 Q 401 395 420 407 Q 438 419 457 432 Q 475 416 486 396 Z M 232 441 Q 249 427 266 413 Q 283 399 300 384 Q 292 371 282 361 Q 272 350 259 341 Q 243 358 229 375 Q 214 392 199 409 Q 204 417 214 426 Q 224 436 232 441 Z M 70 43 Q 71 62 72 82 Q 73 101 74 121 Q 91 120 106 120 Q 122 119 139 119 Q 138 109 138 99 Q 137 90 137 79 Q 125 78 114 77 Q 102 77 90 75 Q 102 71 113 67 Q 125 63 136 60 V 41 Q 119 38 103 38 Q 86 38 70 43 Z M 375 320 Q 400 319 425 317 Q 450 315 475 313 Q 476 309 476 306 Q 476 303 476 299 Q 467 298 459 297 Q 450 296 442 293 Q 450 290 459 287 Q 467 284 475 280 Q 475 277 474 273 Q 474 270 473 267 Q 448 268 424 268 Q 400 269 375 269 Z M 117 278 Q 130 287 142 297 Q 155 306 168 316 Q 172 313 177 309 Q 183 304 188 299 Q 194 293 198 288 Q 203 283 205 280 Q 195 267 184 254 Q 173 241 161 228 Q 147 238 136 250 Q 125 262 117 278 Z M 280 262 Q 278 261 277 260 Q 259 253 244 239 Q 241 235 237 231 Q 234 228 230 224 Q 225 220 221 215 Q 216 210 213 204 Q 211 199 205 200 Q 202 201 200 201 Q 197 201 194 201 Q 193 197 192 194 Q 191 197 191 199 Q 191 200 190 202 Q 183 203 176 204 Q 170 204 163 205 V 217 Q 163 220 166 223 Q 170 227 174 231 Q 178 235 182 239 Q 187 244 191 249 Q 196 255 201 260 Q 204 264 209 264 Q 222 264 235 264 Q 247 264 260 263 H 280 Z M 45 347 Q 46 346 46 346 Q 47 346 47 345 Q 55 337 63 329 Q 71 321 78 314 Q 81 311 80 308 Q 78 289 77 271 Q 76 252 74 234 Q 74 232 74 230 Q 57 252 41 273 Q 25 293 8 315 Q 11 318 14 321 Q 17 324 20 328 Q 22 327 23 326 Q 24 324 25 323 Q 29 320 33 316 Q 37 312 42 308 Q 43 306 46 307 Q 48 309 47 312 Q 46 315 46 317 Q 45 319 44 321 Q 39 332 35 342 Q 38 343 40 344 Q 42 346 45 347 Z M 263 119 Q 262 127 263 138 Q 264 149 266 154 H 304 Q 304 144 304 135 Q 303 126 303 116 Z M 376 153 H 400 Q 401 141 401 130 Q 401 119 398 108 Q 392 109 387 109 Q 381 110 376 110 Z M 419 119 Q 423 127 424 137 Q 425 146 425 155 Q 428 147 428 140 Q 429 132 429 124 Q 429 110 425 99 Q 424 92 418 91 Q 414 90 411 89 Q 407 88 403 87 Q 389 85 377 88 L 392 91 V 101 H 402 Q 403 105 405 110 Q 406 114 407 119 Z M 169 125 Q 176 152 183 177 H 186 Q 187 177 188 177 Q 188 176 189 176 Q 192 151 185 125 Q 181 125 177 125 Q 173 125 169 125 Z M 311 380 Q 311 372 311 365 Q 310 358 310 351 Q 308 350 304 350 Q 300 350 296 351 Q 292 351 288 352 Q 285 352 283 353 Q 290 359 297 366 Q 303 373 310 380 Z M 392 178 V 186 Q 400 184 406 183 Q 413 181 419 178 Z M 285 179 Q 287 182 288 183 Q 296 188 305 189 V 179 Z M 288 100 Q 288 100 287 101 Q 286 103 285 105 Q 285 108 284 111 Q 287 110 289 110 Q 292 110 295 110 Q 291 103 288 100 Z M 392 350 Q 393 349 395 348 Q 396 347 397 344 Q 396 344 394 344 Q 393 344 392 344 Z" fill="black" />
  </g>
  <g class="defect" id="01">
    <path d="M 150 432 Q 159 444 145 436" fill="none" stroke="red" stroke-width="3" />
  </g>
  <g class="defect" id="02">
    <path d="M 314 449 Q 301 441 313 433" fill="none" stroke="red" stroke-width="3" />
  </g>
  <g class="defect" id="03">
    <path d="M 105 422 Q 93 415 108 408" fill="none" stroke="red" stroke-width="3" />
  </g>
</svg>