<svg xmlns="http://www.w3.org/2000/svg" width="512" height="512" viewBox="0 0 512 512">
  <g class="glyph">
    <path d="M 206 367 Q 230 366 254 366 Q 277 365 301 364 Q 302 361 301 361 Q 299 360 298 360 Q 283 355 270 350 Q 250 340 235 322 Q 233 319 230 317 Q 228 315 225 313 Q 220 318 215 323 Q 211 329 205 333 Q 194 343 183 350 Q 179 347 175 344 Q 171 341 167 336 Q 167 352 167 366 Q 168 381 168 396 Q 169 410 169 425 Q 169 439 170 454 Q 161 456 152 458 Q 151 453 150 449 Q 149 444 148 440 Q 146 439 145 440 Q 144 441 144 443 Q 144 449 143 454 Q 143 460 143 466 Q 143 468 143 470 Q 143 472 143 474 Q 139 473 136 473 Q 133 473 129 472 Q 128 468 128 465 Q 128 461 127 458 Q 121 457 116 456 Q 111 455 105 454 Q 104 450 104 446 Q 104 442 104 439 Q 100 438 96 438 Q 92 437 88 437 Q 87 418 86 400 Q 84 382 83 363 Q 78 367 73 372 Q 69 377 64 382 Q 60 380 54 377 Q 49 373 44 369 Q 45 368 45 367 Q 45 366 45 365 Q 45 364 42 363 Q 40 362 39 363 Q 38 364 36 362 Q 27 353 18 344 Q 9 336 2 325 Q 1 325 0 323 Q 19 299 37 275 Q 56 252 74 227 Q 66 227 58 228 Q 50 229 42 230 Q 41 225 39 221 Q 38 216 36 212 Q 34 212 31 212 Q 28 212 25 213 Q 17 193 16 173 Q 15 153 18 132 Q 30 132 42 131 Q 55 131 67 130 Q 66 110 65 89 Q 63 69 62 48 Q 82 41 102 41 Q 122 41 143 45 Q 143 49 143 52 Q 143 56 143 59 Q 147 60 151 61 Q 156 61 160 62 V 91 Q 156 92 152 94 Q 149 95 145 96 V 98 Q 149 98 152 98 Q 156 99 160 99 Q 160 106 160 113 Q 160 121 161 128 Q 168 127 175 127 Q 182 127 190 127 Q 191 131 192 135 Q 193 139 194 144 H 208 Q 210 138 211 133 Q 213 128 216 122 Q 219 122 222 122 Q 225 123 228 124 Q 233 125 237 126 Q 242 127 246 128 H 250 Q 259 125 268 122 Q 277 119 286 115 Q 282 89 278 63 Q 275 36 271 9 Q 291 2 311 1 Q 332 0 352 4 V 18 Q 356 19 361 19 Q 365 20 369 20 Q 369 22 369 23 Q 369 25 370 27 Q 377 26 384 26 Q 390 25 397 24 Q 398 28 399 32 Q 399 37 399 41 Q 401 39 402 37 Q 402 35 404 32 Q 404 30 405 28 Q 406 26 407 24 Q 417 23 427 22 Q 437 21 448 20 L 452 37 H 464 Q 471 56 470 74 Q 470 92 466 111 Q 453 111 440 110 Q 427 110 413 111 Q 416 112 420 113 Q 444 122 461 138 Q 465 142 469 146 Q 474 150 478 155 Q 479 156 480 156 Q 482 157 481 159 Q 483 160 484 161 Q 485 162 486 163 Q 492 170 496 178 Q 500 187 503 195 Q 511 225 507 256 Q 504 276 498 294 Q 492 312 485 330 Q 481 331 477 330 Q 473 328 469 328 L 470 337 Q 454 345 438 350 Q 421 355 404 359 Q 415 360 425 359 Q 435 358 445 358 Q 456 358 466 357 Q 476 357 487 356 Q 488 361 489 365 Q 490 369 491 374 H 504 Q 512 402 507 433 Q 480 435 452 438 Q 425 440 397 443 Q 397 454 397 465 Q 398 476 398 488 Q 388 491 379 492 Q 369 494 359 494 Q 358 492 358 491 Q 358 490 357 487 Q 356 489 356 491 Q 356 492 355 494 Q 349 493 344 493 Q 338 493 332 493 Q 332 488 331 485 Q 331 481 330 477 Q 326 476 323 476 Q 320 475 315 475 Q 314 469 314 462 Q 313 456 312 450 Q 291 452 270 454 Q 249 455 227 457 Q 226 453 224 449 Q 223 444 222 440 Q 219 440 216 440 Q 214 440 211 440 Q 208 435 206 426 Q 204 418 204 407 Q 203 397 203 387 Q 204 376 206 367 Z M 221 129 Q 220 132 219 134 Q 218 137 217 139 Q 211 156 206 172 Q 219 188 200 205 Q 199 219 200 232 Q 201 246 204 259 Q 209 278 219 293 Q 228 309 245 319 Q 264 333 290 337 Q 322 343 356 339 Q 379 337 400 331 Q 421 326 442 318 L 445 316 Q 445 307 438 306 Q 436 306 436 304 Q 422 299 412 293 Q 413 289 415 286 Q 417 282 417 278 H 416 Q 415 278 415 279 Q 415 279 413 279 Q 390 286 366 289 Q 342 292 318 289 Q 309 288 301 287 Q 293 285 286 281 Q 265 272 259 250 Q 257 239 257 229 Q 257 219 258 208 Q 259 201 261 194 Q 263 187 266 180 Q 267 178 266 175 Q 262 166 259 157 Q 255 149 254 139 Q 253 137 250 136 Q 235 131 221 129 Z M 462 306 Q 464 303 465 301 Q 465 298 466 296 Q 473 279 478 262 Q 483 244 484 226 Q 485 211 482 197 Q 480 182 474 169 Q 472 164 470 160 Q 467 155 463 151 Q 457 154 452 155 Q 446 157 440 160 Q 440 159 440 159 Q 440 159 440 159 Q 443 155 447 150 Q 450 146 454 141 Q 453 139 453 139 Q 452 138 451 138 Q 451 137 450 137 Q 441 129 432 125 Q 422 120 412 117 Q 396 112 380 111 Q 364 110 347 111 Q 317 113 288 122 Q 280 124 273 127 Q 265 129 257 132 Q 262 161 280 187 Q 282 186 285 184 Q 287 183 289 182 Q 310 175 331 170 Q 352 165 375 165 Q 391 165 407 171 Q 424 178 429 196 Q 433 206 433 217 Q 433 228 432 239 Q 428 260 420 285 Q 419 288 419 289 Q 440 301 462 306 Z M 146 428 Q 146 423 145 418 Q 145 412 145 407 Q 144 385 144 362 Q 162 355 143 318 Q 143 314 140 312 Q 134 308 127 303 Q 121 298 115 293 Q 113 292 112 291 Q 110 289 108 288 Q 110 285 112 281 Q 113 278 115 276 Q 119 268 125 260 Q 130 253 138 247 Q 141 244 141 239 Q 140 233 140 227 Q 140 221 140 215 Q 140 211 140 207 Q 140 203 139 198 Q 124 200 109 201 Q 94 203 79 205 Q 83 262 87 317 Q 90 373 94 429 H 104 Q 105 422 107 415 Q 108 408 109 401 H 110 Q 112 412 114 423 Q 116 434 118 445 Q 119 419 121 393 Q 122 367 124 342 H 125 Q 129 364 132 386 Q 136 409 139 432 Q 142 432 143 432 Q 145 432 146 432 Z M 167 135 Q 131 136 96 137 Q 60 137 25 139 Q 23 146 23 155 Q 23 164 23 174 Q 24 183 26 192 Q 28 200 30 205 Q 65 201 99 197 Q 133 193 167 189 Z M 374 466 Q 373 435 373 405 Q 373 375 372 344 Q 355 347 339 347 Q 323 348 307 347 Q 314 409 322 470 Q 325 470 328 470 Q 331 470 333 471 Q 336 463 338 456 Q 340 449 342 442 H 343 Q 344 449 346 456 Q 347 463 348 470 Q 355 470 361 469 Q 367 467 374 466 Z M 292 113 Q 306 111 319 108 Q 332 106 346 104 V 87 Q 346 70 346 52 Q 345 35 345 18 V 14 Q 345 13 345 12 Q 345 10 345 9 Q 328 7 312 8 Q 295 9 278 15 Q 282 40 286 64 Q 289 89 292 113 Z M 212 374 Q 210 389 211 404 Q 211 419 216 433 Q 239 431 263 429 Q 286 427 310 425 Q 308 411 307 397 Q 305 384 303 371 Q 280 372 257 372 Q 235 373 212 374 Z M 380 419 Q 407 417 432 414 Q 458 412 484 410 Q 485 398 485 386 Q 484 375 482 364 Q 455 365 430 366 Q 405 367 379 368 Q 379 381 379 393 Q 379 406 380 419 Z M 344 251 Q 345 246 346 241 Q 347 236 348 232 Q 350 222 353 213 H 354 Q 356 222 357 232 Q 359 241 361 251 Q 370 250 379 250 Q 389 250 398 250 Q 399 238 399 227 Q 399 216 396 206 Q 362 209 329 211 Q 296 214 263 216 Q 262 226 263 235 Q 264 243 266 252 Q 286 252 305 252 Q 324 252 344 251 Z M 70 52 Q 71 72 72 91 Q 73 111 74 130 Q 91 129 106 129 Q 122 128 138 128 Q 138 118 138 108 Q 137 99 137 89 L 90 85 V 85 Q 102 81 113 77 Q 125 73 136 69 V 50 Q 119 48 102 48 Q 86 48 70 52 Z M 353 84 Q 376 85 399 85 Q 421 85 443 86 Q 446 71 446 56 Q 446 41 442 27 Q 435 28 428 28 Q 421 29 414 29 Q 412 29 412 31 Q 411 32 410 33 Q 407 42 404 51 Q 400 59 397 68 Q 397 69 396 70 Q 396 71 395 72 Q 394 62 393 52 Q 393 42 391 31 Q 381 32 372 33 Q 362 34 353 35 Q 353 48 353 60 Q 353 72 353 84 Z M 117 286 Q 130 296 142 305 Q 155 314 167 324 Q 189 309 204 288 Q 194 275 183 262 Q 172 249 161 236 Q 147 247 136 259 Q 125 271 117 286 Z M 46 356 Q 47 355 47 354 Q 48 353 49 352 Q 56 345 63 338 Q 69 331 77 323 Q 80 320 80 314 Q 79 300 78 285 Q 77 270 76 255 Q 75 251 75 247 Q 75 243 74 239 H 74 Q 57 260 41 281 Q 25 301 9 323 Q 15 329 20 336 Q 21 335 22 334 Q 23 334 24 333 Q 28 329 32 325 Q 36 321 40 317 Q 42 315 43 315 Q 45 314 46 315 Q 47 315 48 315 Q 48 316 48 319 Q 48 320 48 320 Q 48 321 48 321 Q 45 327 42 333 Q 40 339 37 345 Q 37 346 37 347 Q 37 348 36 349 Q 38 351 41 353 Q 43 354 46 356 Z M 319 204 Q 340 203 360 201 Q 380 200 401 198 Q 402 203 403 207 Q 404 211 406 215 H 418 Q 421 223 422 232 Q 423 240 424 248 Q 425 244 426 239 Q 427 234 427 230 Q 428 222 427 215 Q 427 208 425 201 Q 423 195 418 193 Q 408 191 396 190 Q 375 189 355 193 Q 346 195 337 198 Q 328 200 319 203 Z M 164 226 Q 164 228 165 229 Q 165 231 166 232 Q 170 236 174 240 Q 177 244 181 247 Q 185 250 188 254 Q 191 257 194 261 L 197 264 Q 192 249 192 234 Q 192 219 192 204 H 191 Q 191 206 191 208 Q 191 210 190 211 Q 184 212 178 213 Q 171 214 164 215 Z M 293 278 Q 320 285 346 284 Q 373 282 399 276 V 274 H 371 Q 371 270 370 265 H 369 Q 368 267 368 270 Q 368 272 367 275 Q 348 275 330 275 Q 311 276 293 276 Z M 189 186 Q 191 160 184 134 Q 180 135 176 135 Q 172 135 168 135 Q 172 148 175 161 Q 179 174 182 187 Q 184 186 189 186 Z M 285 208 Q 287 207 288 207 Q 289 207 290 206 Q 289 205 288 204 Q 288 203 287 202 Q 286 204 286 205 Q 286 206 285 208 Z" fill="black" />
  </g>
  <g class="defect" id="01">
    <path d="M 206 172 Q 219 188 200 205" fill="none" stroke="red" stroke-width="3" />
  </g>
  <g class="defect" id="02">
    <path d="M 144 362 Q 162 355 143 318" fill="none" stroke="red" stroke-width="3" />
  </g>
</svg>