<svg xmlns="http://www.w3.org/2000/svg" width="512" height="512" viewBox="0 0 512 512">
  <g class="glyph">
    <path d="M 512 367 Q 510 371 504 377 Q 499 383 492 390 Q 485 396 477 402 Q 469 408 462 411 L 379 328 Q 378 328 378 329 Q 378 329 378 329 Q 378 366 379 403 Q 380 440 381 479 Q 377 479 373 480 Q 370 481 366 482 Q 359 483 351 483 Q 343 484 336 483 Q 334 483 333 483 Q 332 483 331 483 L 331 482 Q 326 484 322 483 Q 318 482 313 482 Q 313 478 312 474 Q 312 471 312 466 Q 308 466 304 466 Q 300 465 295 464 Q 294 434 292 405 Q 290 375 289 344 Q 269 363 250 381 Q 231 399 212 416 Q 210 415 209 415 Q 207 414 206 413 Q 199 408 192 402 Q 185 395 179 389 Q 176 387 175 385 Q 173 383 171 382 Q 174 389 176 397 Q 179 405 180 414 Q 157 426 133 437 Q 109 447 84 457 Q 81 453 79 449 Q 77 446 75 442 Q 74 442 74 443 V 462 Q 68 464 62 466 Q 55 469 49 471 Q 45 466 43 462 Q 40 457 37 452 Q 36 452 34 453 Q 33 453 31 453 Q 19 437 14 418 Q 10 399 9 378 Q 37 371 64 363 Q 92 355 119 344 Q 118 344 116 343 Q 115 343 113 342 Q 102 339 91 334 Q 79 330 68 324 Q 58 318 49 311 Q 41 305 33 295 Q 32 294 31 293 Q 29 292 28 291 Q 17 282 11 271 Q 5 260 2 248 Q 0 237 1 225 Q 2 213 7 203 Q 10 194 16 187 Q 3 179 29 172 Q 43 160 56 150 Q 60 147 63 144 Q 67 142 70 139 Q 72 137 73 136 Q 75 134 77 131 Q 65 125 52 120 Q 40 115 27 110 V 100 Q 23 98 18 97 Q 14 95 10 93 Q 9 89 10 86 Q 10 83 11 79 Q 12 72 15 65 Q 18 59 21 53 Q 26 45 32 35 Q 39 26 44 20 Q 45 20 46 21 Q 60 26 73 32 Q 86 37 99 45 Q 110 52 121 59 Q 131 67 139 77 Q 141 79 142 80 Q 144 82 146 84 Q 151 89 155 93 Q 160 98 163 104 Q 159 109 158 110 Q 157 112 157 113 Q 160 112 162 112 Q 165 112 167 111 Q 168 108 169 105 Q 170 102 171 99 L 280 105 Q 280 80 280 56 Q 279 31 279 6 Q 299 0 320 1 Q 341 1 362 6 V 13 V 20 Q 366 21 370 21 Q 375 22 378 23 V 56 Q 369 59 361 62 V 67 Q 365 67 369 68 Q 374 68 378 68 V 111 Q 388 112 399 113 Q 409 113 420 114 Q 431 115 441 115 Q 452 116 463 117 Q 464 121 464 125 Q 464 128 465 132 Q 469 133 472 133 Q 476 134 480 134 Q 486 168 478 201 Q 453 201 428 201 Q 403 201 377 200 V 230 Q 384 226 390 223 Q 392 224 393 226 Q 396 229 398 232 Q 400 235 403 238 Q 404 239 404 240 Q 405 241 407 241 Q 408 241 409 242 Q 410 243 411 244 Q 421 257 431 268 Q 440 280 450 292 Q 452 294 453 296 Q 455 298 457 300 Q 459 303 458 305 Q 458 306 459 307 Q 459 308 460 308 Q 462 307 464 310 L 511 367 Q 511 366 512 366 Q 512 366 512 367 Z M 137 85 Q 135 84 134 82 Q 133 81 132 79 Q 121 67 105 56 Q 91 48 77 41 Q 62 34 47 28 H 46 Q 36 42 28 56 Q 20 70 17 87 L 26 91 Q 33 94 41 97 Q 49 100 57 104 Q 68 109 79 117 Q 92 125 81 137 Q 78 143 73 146 Q 66 151 58 157 Q 50 163 43 169 Q 32 179 22 192 Q 8 212 9 236 Q 11 261 28 279 Q 33 283 38 287 Q 43 292 49 295 Q 62 303 77 308 Q 91 314 105 318 Q 108 319 111 320 Q 114 320 117 321 Q 118 319 119 317 Q 119 316 120 314 Q 109 306 97 298 Q 86 289 75 282 Q 75 281 76 281 Q 76 281 76 281 Q 89 283 102 287 Q 115 290 128 293 Q 130 288 132 283 Q 134 279 135 273 Q 133 273 131 271 Q 123 269 116 266 Q 108 263 100 259 Q 94 256 89 253 Q 84 250 78 246 Q 62 236 75 220 Q 75 218 77 218 Q 81 214 86 210 Q 90 206 94 203 Q 102 197 110 190 Q 119 184 127 178 Q 132 173 137 168 Q 141 163 144 157 Q 152 144 152 130 Q 153 117 148 103 Q 148 103 147 100 Q 141 102 134 104 Q 128 105 122 106 Q 116 108 115 105 Q 114 102 116 101 Q 117 100 118 99 Q 126 93 137 85 Z M 176 106 Q 172 123 171 140 Q 170 157 174 174 Q 244 175 314 175 Q 384 175 455 176 Q 458 162 458 150 Q 459 137 457 123 Q 385 119 316 115 Q 246 110 176 106 Z M 307 458 Q 308 447 310 436 Q 311 425 312 414 Q 317 425 319 436 Q 320 447 321 459 Q 339 459 356 456 V 450 Q 356 440 355 430 Q 355 420 355 410 Q 355 384 355 359 Q 355 334 354 308 Q 354 304 351 299 Q 345 294 340 289 Q 346 299 330 279 Q 331 278 331 277 Q 332 275 333 274 Q 337 269 342 263 Q 346 258 350 252 Q 353 250 353 245 V 188 V 182 H 290 V 189 Q 291 204 291 218 Q 292 232 293 247 Q 294 271 295 295 Q 296 318 297 342 Q 298 363 299 383 Q 300 402 301 423 Q 301 431 302 438 Q 302 446 303 454 Q 302 459 307 458 Z M 128 315 Q 128 315 128 317 Q 132 320 137 323 Q 141 326 146 330 Q 145 333 144 335 Q 143 337 142 339 Q 141 342 142 343 Q 143 345 144 347 Q 146 349 147 351 Q 179 317 210 282 Q 241 248 271 214 L 285 220 Q 285 215 284 210 Q 284 205 283 199 Q 258 199 234 199 Q 210 199 186 198 Q 185 194 184 190 Q 183 186 182 181 Q 178 180 174 181 Q 170 181 167 180 Q 163 184 159 189 Q 155 193 151 198 Q 142 206 133 213 Q 124 220 114 227 Q 110 231 105 235 Q 101 238 97 243 Q 96 244 94 249 Q 106 255 118 260 Q 130 264 143 269 Q 142 271 141 274 Q 141 276 141 279 Q 146 281 151 283 Q 156 285 161 286 Q 158 295 156 303 Q 153 312 149 319 Q 143 318 138 317 Q 133 316 128 315 Z M 194 389 Q 195 388 199 385 Q 220 365 241 346 Q 263 326 285 306 Q 288 303 288 298 Q 287 288 287 278 Q 287 268 286 257 Q 286 252 286 246 Q 286 241 285 236 Q 285 233 285 232 Q 285 230 282 229 Q 280 228 278 226 Q 276 225 273 223 Q 243 256 214 288 Q 185 320 156 352 Q 164 363 173 372 Q 182 382 194 389 Z M 389 231 Q 383 235 375 241 Q 367 247 360 254 Q 353 260 347 267 Q 342 273 340 278 Q 366 305 393 331 Q 419 357 447 384 Q 458 378 467 369 Q 477 361 486 350 Q 475 337 464 324 Q 453 311 443 298 Q 439 299 436 300 Q 433 302 431 303 Q 426 304 424 301 Q 422 299 424 295 Q 425 294 426 293 Q 441 292 427 290 Q 428 289 430 287 Q 431 286 432 285 Q 421 271 411 258 Q 400 245 389 231 Z M 17 383 Q 18 400 22 415 Q 26 431 35 445 Q 43 441 49 438 Q 49 418 48 397 H 49 Q 54 406 59 413 Q 64 421 69 429 Q 92 420 113 411 Q 134 402 154 391 Q 151 378 146 367 Q 141 356 135 346 Q 106 357 77 366 Q 47 375 17 383 Z M 288 105 Q 305 106 321 107 Q 337 108 353 109 V 57 Q 340 56 327 55 Q 314 54 301 53 Q 314 47 327 42 Q 340 37 354 33 Q 353 28 354 22 Q 355 17 354 11 Q 337 8 320 7 Q 303 7 286 11 Q 287 35 287 58 Q 287 81 288 105 Z" fill="black" />
  </g>
  <g class="defect" id="01">
    <path d="M 426 293 Q 441 292 427 290" fill="none" stroke="red" stroke-width="3" />
  </g>
  <g class="defect" id="02">
    <path d="M 16 187 Q 3 179 29 172" fill="none" stroke="red" stroke-width="3" />
  </g>
  <g class="defect" id="03">
    <path d="M 340 289 Q 346 299 330 279" fill="none" stroke="red" stroke-width="3" />
  </g>
</svg>