<svg xmlns="http://www.w3.org/2000/svg" width="512" height="512" viewBox="0 0 512 512">
  <g class="glyph">
    <path d="M 494 455 Q 484 469 471 480 Q 458 490 443 498 Q 441 497 440 496 Q 439 495 438 494 Q 422 477 407 461 Q 391 445 376 429 Q 375 428 375 428 Q 374 427 373 426 Q 374 445 374 462 Q 374 480 374 498 Q 367 501 360 502 Q 353 503 345 503 V 485 H 344 L 339 504 Q 331 505 323 504 Q 315 503 307 502 Q 306 498 306 495 Q 306 491 305 487 Q 301 486 297 486 Q 293 485 289 484 Q 288 473 287 461 Q 287 449 286 437 Q 271 453 258 468 Q 244 484 230 499 L 223 496 Q 210 489 199 481 Q 187 473 178 463 Q 173 458 169 454 Q 164 450 160 445 Q 141 454 123 462 Q 105 470 86 477 Q 81 470 75 461 V 482 Q 69 484 63 486 Q 57 489 50 492 Q 47 486 44 482 Q 41 477 39 472 Q 38 472 36 472 Q 34 473 32 474 Q 20 457 16 438 Q 11 419 10 398 Q 38 390 66 382 Q 93 374 121 364 Q 119 363 118 363 Q 116 362 115 362 Q 103 358 91 353 Q 80 349 68 343 Q 58 337 50 331 Q 41 324 34 315 Q 32 313 31 312 Q 29 310 27 309 Q 15 299 9 285 Q 3 272 2 258 Q 1 244 5 230 Q 9 216 18 204 Q 24 198 29 192 Q 35 187 42 181 Q 49 175 56 170 Q 62 165 70 159 Q 72 157 74 155 Q 75 153 78 151 Q 71 147 65 144 Q 59 142 52 139 Q 47 137 40 134 Q 34 132 27 129 Q 27 127 28 124 Q 28 122 28 119 Q 24 117 19 116 Q 15 114 10 112 Q 10 106 11 101 Q 12 96 14 92 Q 18 77 26 64 Q 34 52 43 40 Q 44 40 44 40 Q 45 40 45 39 H 47 Q 63 46 80 53 Q 113 74 112 71 Q 127 81 140 96 Q 143 99 146 102 Q 149 105 152 108 Q 156 112 159 115 Q 162 119 165 123 Q 164 126 161 127 Q 158 128 158 133 Q 162 132 169 130 Q 170 132 170 133 Q 171 134 172 135 Q 208 102 243 68 Q 278 35 314 0 Q 316 2 319 3 Q 332 13 341 22 Q 345 26 350 31 Q 354 35 358 40 Q 366 47 372 55 Q 377 63 383 72 Q 384 74 388 79 Q 395 83 402 88 Q 409 93 416 98 Q 416 99 415 100 Q 415 101 415 103 Q 418 100 420 101 Q 422 102 424 104 Q 441 117 458 130 Q 474 143 491 156 Q 494 158 494 160 Q 494 160 496 163 Q 500 166 504 169 Q 508 172 512 176 Q 498 206 472 230 Q 466 225 460 221 Q 453 217 447 213 Q 447 225 446 237 Q 445 248 443 260 Q 425 260 407 261 Q 390 261 372 262 V 280 Q 395 280 417 280 Q 439 279 462 279 Q 463 283 464 287 Q 465 292 466 296 H 480 Q 484 313 485 330 Q 486 347 483 364 Q 470 365 458 366 Q 446 366 432 367 Q 435 372 439 376 Q 442 380 445 385 Q 448 389 451 393 Q 454 397 457 402 Q 455 404 455 406 Q 455 409 462 409 Q 469 420 477 432 Q 486 443 494 455 Z M 137 105 Q 136 103 135 102 Q 134 101 133 100 Q 126 92 118 86 Q 111 80 102 74 Q 91 67 79 62 Q 67 56 55 51 Q 53 50 51 49 Q 49 49 47 48 Q 36 61 28 75 Q 20 90 17 107 Q 19 108 20 108 Q 21 108 23 110 Q 31 114 41 117 Q 50 121 60 125 Q 70 130 81 138 Q 90 145 83 156 Q 83 157 80 160 Q 77 162 75 164 Q 73 166 71 168 Q 64 173 58 178 Q 51 183 45 189 Q 39 193 34 199 Q 28 204 23 211 Q 0 241 14 278 Q 18 289 25 297 Q 32 306 42 312 Q 55 321 69 327 Q 83 333 97 337 Q 102 339 107 340 Q 112 342 117 343 Q 118 341 119 340 Q 119 338 121 336 Q 109 327 98 319 Q 87 311 75 303 V 302 Q 89 305 102 308 Q 115 311 128 314 L 135 294 Q 131 293 128 292 Q 125 290 122 289 Q 112 285 102 281 Q 92 277 83 270 Q 80 269 78 267 Q 75 266 74 263 Q 46 254 73 243 Q 74 242 76 240 Q 77 238 78 237 Q 83 233 88 229 Q 92 225 97 222 Q 106 214 116 207 Q 125 200 133 191 Q 136 188 138 185 Q 141 181 144 178 Q 147 174 144 170 Q 143 169 142 167 Q 141 166 140 164 Q 143 161 145 160 Q 147 158 149 156 Q 150 155 151 153 Q 152 152 152 150 Q 152 143 151 135 Q 150 127 147 120 Q 145 121 144 121 Q 143 121 141 121 Q 136 122 130 124 Q 125 125 119 126 Q 116 127 114 125 Q 113 122 116 120 Q 118 118 120 117 Q 122 115 124 114 Q 128 112 131 110 Q 134 107 137 105 Z M 443 286 Q 419 286 395 286 Q 371 287 346 287 Q 333 288 320 288 Q 307 288 294 288 Q 274 288 254 288 Q 235 289 215 289 Q 203 289 192 289 Q 181 289 169 289 Q 168 289 166 290 Q 165 290 164 290 Q 161 307 161 324 Q 161 341 166 358 Q 168 358 181 357 Q 194 356 215 355 Q 235 354 261 352 Q 287 350 314 348 Q 341 347 367 345 Q 393 343 413 342 Q 433 341 445 340 Q 458 339 459 338 Q 462 312 455 286 Z M 185 206 Q 230 170 273 134 Q 316 97 360 61 Q 351 46 340 33 Q 329 20 314 10 Q 273 49 232 88 Q 191 127 149 167 Q 164 188 185 206 Z M 262 239 Q 301 238 340 237 Q 379 236 418 235 Q 421 222 421 209 Q 421 195 419 182 Q 418 181 416 181 Q 415 181 414 181 Q 402 180 390 180 Q 378 180 366 179 Q 351 178 335 178 Q 320 177 305 176 Q 288 176 272 175 Q 256 175 239 173 Q 237 173 236 174 Q 234 174 233 176 Q 227 180 222 184 Q 216 189 211 194 Q 207 196 207 200 Q 208 207 208 214 Q 208 220 208 227 Q 209 231 209 233 Q 210 236 211 239 H 239 Q 242 239 243 236 Q 244 232 246 228 Q 247 225 249 221 Q 250 217 252 214 Q 254 210 255 206 H 256 Q 258 215 259 223 Q 260 231 262 239 Z M 367 139 Q 376 129 386 119 Q 396 110 405 100 Q 394 92 383 84 Q 373 77 362 69 Q 360 70 359 71 Q 357 72 356 74 Q 347 81 338 89 Q 329 97 319 104 Q 315 107 314 110 Q 313 114 312 118 Q 313 119 315 120 Q 337 133 360 146 Q 382 159 405 172 Q 408 173 412 175 Q 416 175 419 175 Q 422 175 426 176 Q 426 178 426 180 Q 427 182 428 184 Q 428 187 430 188 L 453 204 Q 472 186 485 160 Q 469 147 452 134 Q 435 122 418 109 Q 405 116 393 124 Q 380 132 367 139 Z M 168 201 Q 164 206 159 211 Q 155 216 150 220 Q 141 227 133 234 Q 124 241 115 248 Q 111 252 106 255 Q 102 259 99 264 Q 97 265 94 270 Q 101 273 107 276 Q 113 278 119 280 Q 125 283 131 285 Q 137 287 144 290 Q 143 292 143 295 Q 143 297 141 300 Q 145 301 148 302 Q 151 303 155 304 Q 156 299 156 294 Q 157 289 158 283 Q 188 282 217 282 Q 245 281 275 281 Q 276 273 273 266 Q 271 258 270 251 Q 269 254 268 258 Q 266 261 264 265 Q 254 265 244 265 Q 234 265 223 266 Q 222 262 221 257 Q 220 253 219 248 H 205 Q 205 245 204 242 Q 203 239 203 236 Q 202 234 201 233 Q 200 232 199 230 Q 193 225 188 220 Q 183 215 178 210 Q 176 208 173 205 Q 171 203 168 201 Z M 71 451 Q 93 442 115 433 Q 136 423 157 413 Q 154 400 149 389 Q 144 378 137 367 Q 107 378 77 387 Q 48 396 18 404 Q 19 420 23 435 Q 27 451 36 465 Q 40 464 43 462 Q 47 461 51 459 Q 50 449 50 439 Q 50 429 50 419 Q 50 419 51 419 Q 56 427 61 435 Q 66 443 71 451 Z M 287 357 Q 289 388 291 418 Q 293 448 295 478 Q 301 479 306 479 Q 311 480 317 480 Q 319 466 322 452 Q 324 439 326 424 Q 329 431 330 438 Q 332 444 333 451 Q 334 457 334 464 Q 334 471 335 478 Q 339 477 342 477 Q 345 477 348 476 V 474 V 408 Q 348 405 348 402 Q 347 399 344 396 Q 345 394 347 392 Q 348 390 348 387 Q 347 382 348 376 Q 348 370 347 364 Q 347 362 347 359 Q 347 357 347 354 Q 332 355 317 356 Q 302 356 287 357 Z M 427 472 Q 451 457 468 438 Q 461 428 454 418 Q 448 408 440 399 Q 429 404 417 408 Q 406 412 394 416 Q 403 408 412 400 Q 420 391 429 383 Q 423 375 418 367 Q 413 360 407 352 Q 391 360 378 371 Q 364 382 353 395 Q 372 415 390 433 Q 408 452 427 472 Z M 210 473 Q 225 456 239 439 Q 254 423 269 406 Q 266 401 260 395 Q 234 388 246 382 Q 238 376 230 371 Q 222 366 216 364 Q 203 384 191 403 Q 179 422 167 441 Q 170 445 175 450 Q 181 455 187 460 Q 193 464 199 468 Q 205 471 210 473 Z M 346 245 Q 330 245 313 245 Q 296 246 279 246 Q 280 255 281 264 Q 281 272 282 281 Q 299 280 315 280 Q 331 280 346 280 Z M 321 135 Q 317 138 310 143 Q 304 148 298 153 Q 292 158 288 162 Q 283 167 282 168 L 378 173 Q 377 171 374 169 Q 362 162 349 155 Q 336 148 324 141 Q 323 140 322 139 Q 320 138 321 135 Z M 129 336 Q 129 336 128 337 Q 133 341 137 344 Q 141 347 147 351 Q 145 355 143 360 Q 142 363 143 364 Q 145 368 147 371 Q 149 374 151 377 Q 153 377 154 377 Q 155 377 157 376 Q 168 393 176 413 Q 181 405 186 397 Q 190 390 195 383 Q 190 383 186 383 Q 182 383 178 384 Q 177 379 176 375 Q 175 371 173 366 H 160 Q 158 358 156 350 Q 155 342 152 334 Q 151 335 151 337 Q 150 339 149 341 Q 144 340 139 338 Q 134 337 129 336 Z M 281 377 Q 276 376 266 377 Q 256 378 254 379 Q 262 385 268 393 Q 275 401 284 408 Q 282 400 282 392 Q 282 385 281 377 Z" fill="black" />
  </g>
  <g class="defect" id="01">
    <path d="M 74 263 Q 46 254 73 243" fill="none" stroke="red" stroke-width="3" />
  </g>
  <g class="defect" id="02">
    <path d="M 80 53 Q 113 74 112 71" fill="none" stroke="red" stroke-width="3" />
  </g>
  <g class="defect" id="03">
    <path d="M 260 395 Q 234 388 246 382" fill="none" stroke="red" stroke-width="3" />
  </g>
</svg>