<svg xmlns="http://www.w3.org/2000/svg" width="512" height="512" viewBox="0 0 512 512">
  <g class="glyph">
    <path d="M 139 20 Q 142 19 144 18 Q 146 17 149 16 Q 162 12 174 8 Q 186 4 199 2 Q 213 0 226 0 Q 240 1 253 5 Q 272 11 286 25 Q 286 26 286 27 Q 285 27 285 28 Q 290 31 295 35 Q 300 39 304 42 Q 302 47 302 48 Q 303 49 305 53 Q 306 52 308 51 Q 309 50 310 49 Q 315 55 318 60 Q 321 66 323 72 Q 328 86 329 99 Q 330 113 329 127 Q 327 143 323 158 Q 318 174 312 188 Q 311 190 311 191 Q 311 192 310 194 Q 312 194 315 194 Q 317 195 320 195 Q 332 155 345 114 Q 358 73 370 32 Q 391 33 409 39 Q 427 44 444 55 Q 443 57 443 59 Q 443 60 443 62 Q 447 65 452 67 Q 457 70 463 73 Q 455 96 446 119 Q 438 142 431 165 Q 438 164 446 164 Q 453 164 460 164 Q 462 169 462 173 Q 463 177 464 182 Q 468 182 472 182 Q 475 182 479 182 Q 480 188 481 193 Q 482 197 483 202 Q 483 204 481 207 Q 478 208 476 210 Q 475 211 472 213 Q 471 214 471 215 Q 471 216 470 217 L 471 219 Q 474 218 478 217 Q 481 217 485 216 Q 494 271 501 325 Q 507 380 512 435 Q 509 437 502 439 Q 495 441 486 442 Q 477 443 467 444 Q 458 444 450 443 Q 449 439 448 435 Q 448 431 447 427 L 432 425 L 431 420 Q 428 420 426 422 Q 410 429 394 433 Q 387 434 380 434 Q 373 434 366 433 Q 345 428 331 410 Q 329 407 326 405 Q 323 403 321 400 Q 315 419 308 437 Q 300 455 290 472 Q 280 471 270 465 Q 261 462 252 456 Q 247 453 243 450 Q 239 446 234 444 Q 235 442 236 440 Q 231 436 226 433 Q 222 430 216 426 Q 224 410 231 394 Q 237 378 240 360 Q 237 361 234 362 Q 219 367 205 369 Q 190 370 178 365 Q 165 360 156 348 Q 156 345 154 345 Q 152 343 149 342 Q 147 340 144 337 Q 142 335 140 333 Q 138 330 137 328 Q 134 331 136 334 Q 139 341 143 345 Q 144 345 146 345 Q 147 344 149 344 Q 167 371 174 402 Q 169 405 156 412 Q 144 418 129 425 Q 115 432 101 438 Q 88 444 81 446 Q 80 443 78 440 Q 75 436 73 432 Q 73 432 73 433 Q 73 433 72 433 V 450 Q 66 453 60 455 Q 54 458 48 460 Q 45 455 42 450 Q 40 446 37 440 Q 35 440 34 441 Q 32 441 30 442 Q 18 425 14 406 Q 10 387 9 366 Q 35 359 62 351 Q 88 343 114 332 Q 112 331 110 331 Q 108 330 107 330 Q 94 325 83 321 Q 71 316 60 308 Q 53 304 47 298 Q 41 293 35 286 Q 32 284 29 281 Q 27 278 24 276 Q 13 265 7 252 Q 2 239 1 225 Q 0 210 4 197 Q 8 184 16 173 Q 29 158 43 146 L 66 126 Q 68 125 69 123 Q 71 121 73 119 Q 62 113 50 108 Q 39 103 27 98 V 88 Q 22 86 18 84 Q 13 82 9 80 Q 8 72 11 62 Q 15 49 22 37 Q 28 25 36 14 Q 37 12 39 10 Q 40 9 42 7 Q 48 10 55 12 Q 61 15 67 18 Q 80 24 91 30 Q 103 36 113 46 Q 116 48 119 52 Q 123 55 126 58 Q 131 62 135 67 Q 140 72 144 76 Q 148 80 151 84 Q 154 88 157 93 Q 155 95 153 97 Q 151 99 149 101 Q 152 102 155 101 Q 157 99 161 100 Q 175 130 163 163 Q 179 165 194 166 Q 209 168 225 169 Q 233 151 239 133 Q 245 114 244 94 Q 239 93 236 94 Q 233 95 229 96 Q 220 98 211 101 Q 202 105 194 108 Q 191 109 186 111 Q 182 107 179 102 Q 176 97 173 92 Q 170 93 168 93 Q 156 76 149 58 Q 142 40 139 20 Z M 362 359 Q 362 360 361 360 Q 361 361 361 362 Q 359 369 356 376 Q 354 382 352 389 Q 351 394 350 398 Q 348 402 347 406 Q 354 408 360 409 Q 366 409 372 408 Q 392 404 412 394 Q 415 392 419 390 Q 422 388 426 386 Q 424 373 422 360 Q 420 347 417 334 Q 413 336 411 338 Q 394 349 374 355 Q 368 356 366 356 Q 364 355 363 356 Q 363 357 362 359 Q 363 356 361 354 Q 359 351 359 348 Q 359 346 358 344 Q 358 342 358 340 Q 358 324 360 309 Q 363 295 366 279 Q 383 279 376 241 Q 381 221 387 202 Q 389 195 388 190 Q 387 188 386 185 Q 386 182 385 178 Q 388 177 389 177 Q 391 176 393 175 Q 396 174 398 170 Q 407 143 416 116 Q 425 89 434 62 Q 436 59 436 57 Q 421 49 407 44 Q 393 40 376 39 Q 375 43 374 48 Q 373 53 371 57 Q 362 87 353 116 Q 343 146 335 175 Q 326 204 319 232 Q 312 261 308 291 Q 306 303 305 316 Q 304 328 304 341 Q 305 350 306 359 Q 308 367 312 375 Q 316 383 321 389 Q 326 396 334 400 Q 335 399 336 398 Q 336 397 337 396 Q 343 387 348 379 Q 353 370 359 362 Q 360 361 362 359 Z M 129 72 Q 125 66 120 60 Q 116 55 110 51 Q 95 39 79 31 Q 62 23 45 15 H 44 Q 39 21 34 30 Q 29 38 25 46 Q 21 55 18 62 Q 16 70 17 74 Q 18 75 20 76 Q 22 76 24 78 Q 35 82 46 87 Q 57 92 67 99 Q 73 101 76 105 Q 84 112 79 121 Q 76 127 72 131 Q 65 137 58 142 Q 52 148 44 153 Q 39 159 33 165 Q 28 170 22 176 Q -9 186 10 238 Q 14 252 22 262 Q 30 273 42 280 Q 54 289 68 295 Q 81 301 95 305 Q 99 306 103 308 Q 106 309 111 310 Q 112 308 112 306 Q 112 304 113 303 Q 103 294 92 286 Q 81 278 71 270 Q 71 269 71 269 Q 72 269 72 268 Q 84 272 96 275 Q 108 278 121 281 Q 123 276 124 271 Q 125 266 127 260 Q 123 259 118 257 Q 113 255 109 253 Q 101 249 94 246 Q 87 242 79 238 Q 74 235 69 229 Q 61 221 68 211 Q 70 209 72 207 Q 73 204 75 202 Q 79 199 83 195 Q 87 192 91 189 Q 101 181 110 173 Q 120 165 129 156 Q 138 145 142 132 Q 145 120 144 106 Q 143 95 139 88 Q 136 88 134 89 Q 130 90 125 91 Q 121 92 117 93 Q 114 94 113 95 Q 111 95 108 93 Q 106 90 112 86 Q 117 82 121 79 Q 125 75 129 72 Z M 268 446 Q 270 445 270 445 Q 279 427 286 409 Q 293 391 298 370 Q 298 368 299 365 Q 299 362 298 359 Q 297 349 296 338 Q 296 328 297 318 Q 298 312 296 308 Q 291 295 282 287 Q 273 279 261 276 Q 250 272 239 273 Q 229 273 218 276 Q 214 277 211 278 Q 208 279 204 280 Q 196 281 197 273 Q 199 266 201 258 Q 203 249 205 241 Q 206 240 206 239 Q 206 238 206 237 H 143 Q 143 238 143 238 Q 143 239 142 240 Q 139 252 138 263 Q 137 275 136 287 Q 136 293 137 299 Q 137 305 138 310 Q 145 338 171 343 Q 183 345 195 342 Q 203 339 212 336 Q 220 334 229 331 Q 231 330 233 329 Q 235 329 238 328 Q 246 327 247 334 Q 248 337 247 338 Q 247 344 247 349 Q 247 355 246 361 Q 244 375 239 389 Q 234 404 228 417 Q 227 418 226 420 Q 226 421 225 423 Q 229 425 232 428 Q 236 430 240 433 Q 245 425 249 416 Q 252 408 256 399 Q 258 400 260 400 Q 261 400 264 401 Q 261 411 258 421 Q 256 430 254 440 Q 258 442 261 443 Q 265 445 268 446 Z M 394 183 Q 407 242 418 300 Q 429 359 438 418 Q 464 419 487 413 Q 482 360 476 309 Q 470 258 462 206 Q 452 208 443 209 Q 434 210 423 210 Q 425 209 426 209 Q 427 208 428 207 Q 435 202 441 197 Q 448 191 455 186 Q 456 185 457 185 Q 458 184 458 182 Q 457 178 456 171 Q 439 171 424 174 Q 408 176 394 183 Z M 277 26 Q 274 23 271 21 Q 268 19 265 17 Q 251 10 236 8 Q 222 7 206 8 Q 193 10 180 14 Q 167 17 153 22 Q 149 24 146 24 Q 150 40 155 55 Q 161 69 170 82 Q 177 79 183 77 Q 189 74 196 72 Q 213 66 229 66 Q 243 67 248 80 Q 250 86 250 92 Q 251 98 250 104 Q 249 117 246 129 Q 243 140 239 152 Q 237 156 235 160 Q 234 163 232 168 Q 246 169 259 171 Q 272 172 285 174 Q 293 156 299 137 Q 304 119 305 99 Q 306 75 298 54 Q 297 50 295 47 Q 293 44 291 41 Q 281 47 272 52 Q 263 57 252 60 Q 259 52 265 44 Q 271 35 277 26 Z M 145 229 Q 183 230 220 230 Q 258 231 295 232 Q 297 227 298 220 Q 299 214 300 207 Q 300 200 300 194 Q 300 188 299 184 Q 261 178 224 174 Q 186 170 148 167 Q 139 199 145 229 Z M 67 418 Q 87 409 107 400 Q 127 391 147 380 Q 144 368 140 356 Q 135 345 128 335 Q 100 345 72 354 Q 44 363 16 371 Q 16 377 18 386 Q 19 395 21 404 Q 24 413 27 421 Q 30 428 33 433 Q 36 431 40 430 Q 43 428 47 427 Q 46 416 46 406 Q 46 396 45 386 Q 46 386 47 385 Q 52 394 56 402 Q 61 410 67 418 Z M 136 195 Q 127 202 119 209 Q 110 215 102 222 Q 99 224 97 226 Q 95 229 93 232 Q 92 233 92 234 Q 92 235 91 237 Q 101 243 111 247 Q 122 251 133 255 Q 134 252 134 251 Q 135 247 136 243 Q 136 240 137 235 Q 139 231 138 226 Q 137 221 137 216 Q 137 212 137 207 Q 136 204 136 201 Q 136 199 136 195 Z M 401 258 Q 395 279 391 300 Q 386 321 384 343 Q 402 335 416 325 Q 408 290 403 258 Z M 306 257 Q 287 256 269 255 Q 251 255 233 255 Q 232 258 231 261 Q 231 263 230 266 Q 244 266 257 267 Q 264 268 269 271 Q 275 273 281 277 Q 287 281 291 286 Q 296 290 300 296 Q 302 286 303 277 Q 304 267 306 257 Z M 131 311 Q 131 309 130 305 Q 127 305 126 304 Q 124 304 122 303 Q 123 305 123 305 Q 124 306 124 306 Q 126 308 127 309 Q 129 310 131 311 Z" fill="black" />
  </g>
  <g class="defect" id="01">
    <path d="M 22 176 Q -9 186 10 238" fill="none" stroke="red" stroke-width="3" />
  </g>
  <g class="defect" id="02">
    <path d="M 366 279 Q 383 279 376 241" fill="none" stroke="red" stroke-width="3" />
  </g>
</svg>