<svg xmlns="http://www.w3.org/2000/svg" width="512" height="512" viewBox="0 0 512 512">
  <g class="glyph">
    <path d="M 357 0 Q 361 1 365 1 Q 368 1 373 2 Q 381 4 390 5 V 19 Q 398 21 408 23 Q 407 34 407 43 Q 407 53 407 63 Q 408 64 409 65 Q 410 65 411 65 Q 421 70 429 76 Q 436 82 443 90 Q 445 91 446 93 Q 448 94 449 95 Q 462 105 468 116 Q 466 119 464 121 Q 461 122 463 127 Q 465 125 467 125 Q 469 124 471 123 Q 472 124 472 125 Q 472 125 473 126 Q 481 145 483 167 Q 483 175 482 183 Q 481 191 479 199 V 206 Q 482 220 482 233 Q 483 247 481 261 Q 481 261 481 262 Q 480 262 480 263 Q 471 264 461 264 Q 451 264 441 265 Q 432 266 422 266 Q 412 267 403 268 Q 403 270 406 270 Q 413 271 419 272 Q 426 273 432 275 Q 454 282 469 299 Q 472 303 474 305 Q 496 322 501 351 Q 504 365 503 378 Q 501 391 496 405 Q 493 414 488 424 Q 484 433 479 442 Q 470 440 460 435 Q 461 433 461 430 Q 462 427 463 425 Q 460 425 458 424 Q 457 424 455 423 Q 453 425 452 426 Q 451 428 449 430 Q 436 424 425 414 Q 425 413 425 412 Q 426 411 426 410 Q 421 406 417 403 Q 412 400 407 397 Q 412 386 417 376 Q 422 366 424 354 Q 419 353 413 353 Q 407 353 403 354 V 431 V 508 Q 400 509 398 509 Q 396 509 394 509 Q 382 512 370 512 Q 358 511 346 509 Q 343 509 342 508 Q 342 508 342 504 V 494 Q 337 493 333 493 Q 329 493 324 492 Q 323 462 323 433 Q 322 404 321 373 Q 317 375 313 376 Q 308 377 304 379 Q 302 404 301 428 Q 299 452 298 478 Q 292 479 286 480 Q 280 480 274 480 V 472 Q 273 472 273 471 Q 273 472 273 473 Q 272 474 272 476 Q 271 477 271 478 Q 271 479 270 480 Q 255 480 236 476 V 462 Q 232 461 228 460 Q 223 459 219 458 Q 220 443 220 428 Q 220 413 221 397 Q 220 397 219 396 Q 218 396 216 396 Q 217 392 218 388 Q 218 384 219 381 Q 212 377 208 384 Q 207 387 205 388 Q 204 390 202 392 Q 189 388 180 380 Q 175 374 170 369 Q 165 363 159 359 Q 154 354 151 349 Q 149 344 146 338 Q 144 332 139 332 Q 137 332 135 331 Q 132 331 130 331 Q 134 335 139 338 Q 143 342 147 345 Q 146 348 145 351 Q 144 354 143 357 Q 146 361 148 364 Q 150 368 152 372 Q 155 371 158 370 Q 176 396 183 428 Q 159 440 136 451 Q 112 461 87 471 Q 85 467 82 463 Q 80 459 77 455 V 475 Q 70 478 64 480 Q 58 482 51 485 Q 49 480 46 475 Q 43 470 41 465 Q 40 466 38 466 Q 36 467 35 467 Q 29 461 25 451 Q 21 441 18 431 Q 15 420 14 409 Q 12 399 13 392 Q 41 384 68 377 Q 95 369 123 359 Q 119 358 116 357 Q 112 355 109 354 Q 97 350 84 345 Q 72 340 62 332 Q 36 343 49 323 Q 42 318 37 311 Q 35 308 33 307 Q 10 287 5 261 Q 0 228 19 202 Q 26 194 33 187 Q 41 180 48 173 Q 54 169 60 164 Q 66 159 72 155 Q 74 153 76 151 Q 77 149 79 147 Q 67 140 54 135 Q 42 130 29 125 Q 29 123 30 120 Q 30 117 31 115 Q 26 113 22 111 Q 17 109 13 108 Q 12 103 13 100 Q 14 97 15 93 Q 18 79 26 66 Q 35 49 47 35 Q 48 36 49 36 Q 49 36 50 36 Q 65 42 80 49 Q 95 55 109 64 Q 118 70 127 77 Q 135 83 142 92 Q 144 94 146 95 Q 147 97 150 99 Q 159 108 167 119 Q 166 122 163 123 Q 160 123 160 128 Q 162 127 165 127 Q 168 127 170 126 Q 176 137 178 149 Q 180 161 178 174 Q 180 175 181 175 Q 188 176 195 178 Q 202 181 207 183 Q 214 187 220 186 H 228 Q 229 185 229 184 Q 229 182 229 180 Q 227 181 225 182 Q 223 183 220 184 Q 215 175 208 165 Q 207 166 203 167 Q 191 151 184 134 Q 178 116 175 97 Q 189 91 203 87 Q 217 82 232 78 Q 232 65 233 53 Q 233 41 234 29 Q 253 25 271 26 Q 290 27 309 33 Q 309 36 309 39 Q 308 42 308 46 Q 310 47 313 47 Q 315 47 317 48 V 5 Q 327 3 337 2 Q 339 2 340 1 Q 342 1 343 1 Q 346 0 350 0 Q 353 0 357 0 Z M 323 17 Q 323 25 323 33 Q 323 41 323 49 Q 324 83 324 117 Q 324 151 324 185 Q 325 205 325 225 Q 325 245 325 265 Q 326 279 326 294 Q 327 308 327 323 Q 327 335 327 347 Q 327 358 327 370 Q 328 395 328 419 Q 329 444 329 468 Q 329 472 329 476 Q 330 480 330 485 Q 354 488 377 484 V 480 Q 377 438 377 398 Q 377 357 377 316 Q 377 299 378 282 Q 378 265 379 248 Q 379 232 379 215 Q 380 199 380 183 Q 380 165 380 146 Q 380 128 381 110 Q 381 89 381 68 Q 382 47 383 25 V 11 Q 377 10 369 9 Q 361 8 353 7 Q 344 7 336 8 Q 328 9 323 11 Z M 138 100 Q 133 94 129 90 Q 124 85 119 81 Q 108 72 95 65 Q 83 58 69 52 Q 64 50 59 48 Q 54 46 48 43 Q 39 55 31 68 Q 24 81 20 95 Q 19 97 19 99 Q 19 101 19 102 Q 21 103 24 105 Q 34 109 44 113 Q 55 118 65 123 Q 69 125 73 127 Q 77 130 80 132 Q 91 140 83 152 Q 80 154 78 157 Q 76 159 73 161 Q 68 165 63 169 Q 58 173 53 177 Q 44 184 38 190 Q 31 197 24 204 Q 9 224 9 249 Q 10 274 27 293 Q 39 305 52 312 Q 66 321 81 326 Q 97 332 113 336 Q 114 337 118 337 Q 119 335 119 333 Q 120 331 121 330 L 120 330 Q 109 322 99 314 Q 89 307 78 299 Q 78 299 77 299 Q 77 299 77 298 V 298 L 77 297 Q 90 300 103 303 Q 115 306 128 309 Q 132 300 135 289 Q 133 288 132 288 Q 131 288 130 287 Q 118 283 107 278 Q 97 273 86 267 Q 80 264 77 261 Q 65 250 75 238 Q 76 236 77 235 Q 78 234 79 233 Q 84 229 87 225 Q 91 222 95 219 Q 103 213 111 206 Q 119 200 127 194 Q 131 189 135 185 Q 140 180 143 175 Q 152 162 152 149 Q 153 135 149 121 Q 147 118 147 117 Q 141 118 135 120 Q 128 121 122 122 Q 120 123 118 123 Q 116 124 115 122 Q 114 118 119 115 Q 123 111 128 108 Q 132 105 138 100 Z M 210 372 Q 219 373 228 371 Q 238 369 247 367 Q 264 361 282 355 Q 300 349 317 343 Q 318 343 320 342 Q 319 329 319 316 Q 318 302 318 288 Q 316 289 314 289 Q 308 291 303 292 Q 297 293 291 295 Q 276 300 261 305 Q 247 309 231 314 Q 221 316 212 317 Q 206 317 205 315 Q 203 314 203 308 Q 202 300 203 291 Q 205 283 207 274 Q 211 259 217 245 Q 222 231 229 217 Q 231 214 231 213 Q 232 211 233 209 Q 221 200 207 193 Q 194 185 179 182 Q 179 183 178 184 Q 177 184 177 185 Q 173 197 168 208 Q 162 220 158 232 Q 152 247 149 264 Q 145 280 145 297 Q 144 309 146 320 Q 149 331 154 342 Q 163 358 180 366 Q 181 366 181 366 Q 189 356 196 346 Q 204 336 212 327 L 213 325 H 214 L 214 325 Q 213 331 213 337 Q 212 343 211 348 Q 210 354 209 360 Q 207 366 206 372 Z M 316 68 Q 299 87 247 81 Q 214 90 182 102 Q 182 108 185 117 Q 187 125 190 133 Q 194 141 197 148 Q 201 154 205 158 Q 232 147 259 138 Q 287 129 316 124 Z M 72 444 Q 94 435 115 426 Q 136 417 157 406 Q 153 394 148 382 Q 143 371 137 361 Q 107 372 78 380 Q 49 389 19 397 Q 20 413 24 429 Q 28 444 36 458 Q 41 456 44 455 Q 47 454 51 452 Q 51 441 51 432 Q 50 422 50 412 Q 50 412 51 412 Q 56 420 61 428 Q 66 436 72 444 Z M 430 403 Q 437 391 445 380 Q 452 368 460 357 Q 459 372 457 385 Q 455 399 451 414 Q 452 414 454 415 Q 456 415 457 416 Q 464 404 469 393 Q 474 381 477 369 Q 480 351 477 333 Q 470 299 437 284 Q 428 280 418 279 Q 409 278 400 277 H 386 V 329 Q 390 329 391 328 Q 398 328 404 328 Q 410 328 417 330 Q 426 333 428 342 Q 429 346 430 350 Q 430 354 429 358 Q 428 367 425 374 Q 422 382 418 389 Q 417 390 417 392 Q 417 393 416 394 Q 419 396 421 398 Q 424 399 426 401 Q 427 402 428 402 Q 428 402 430 403 Z M 317 192 Q 294 193 271 193 Q 248 193 225 193 Q 229 197 234 200 Q 239 203 242 207 Q 236 218 231 229 Q 225 241 221 253 Q 246 251 269 250 Q 293 249 317 247 Z M 247 456 Q 250 442 254 430 Q 257 418 259 406 Q 262 419 262 431 Q 263 436 263 443 Q 263 449 263 456 Q 265 456 267 455 Q 269 455 272 455 Q 273 432 275 410 Q 276 387 278 365 Q 265 368 253 372 Q 240 375 227 380 Q 226 397 226 415 Q 225 434 225 452 Q 231 454 236 454 Q 241 455 247 456 Z M 387 192 Q 387 205 386 218 Q 386 231 386 243 Q 404 242 422 241 Q 439 240 457 239 Q 458 226 458 215 Q 458 203 456 192 Z M 454 184 Q 458 166 458 149 Q 458 132 451 115 Q 439 120 427 125 Q 416 130 404 135 Q 410 147 408 159 Q 407 165 406 171 Q 405 177 404 184 Z M 290 185 Q 291 173 291 161 Q 292 149 293 136 Q 277 139 263 144 Q 249 149 234 153 Q 234 161 234 170 Q 234 178 234 185 Z M 404 133 Q 413 124 423 116 Q 432 107 441 98 Q 431 85 418 77 Q 406 69 389 66 Q 388 80 388 94 Q 388 107 388 120 Q 397 123 404 133 Z M 283 290 Q 283 282 284 274 Q 285 265 285 257 L 232 260 Q 231 272 231 283 Q 231 294 230 307 Q 243 302 257 298 Q 270 294 283 290 Z M 238 76 Q 253 72 268 69 Q 283 66 298 63 Q 298 57 298 51 Q 299 45 300 39 Q 284 35 269 34 Q 254 33 239 36 Q 238 46 238 55 Q 238 65 238 76 Z M 139 281 Q 142 261 147 243 Q 152 225 160 206 Q 157 208 155 210 Q 154 212 151 213 Q 142 221 132 229 Q 122 236 113 244 Q 105 251 98 258 Q 97 259 95 264 Q 106 270 116 274 Q 127 278 139 281 Z M 318 281 Q 318 278 318 277 Q 317 275 317 273 Q 315 273 313 273 Q 311 273 309 273 Q 309 276 309 278 Q 309 280 309 283 Q 311 282 314 282 Q 316 281 318 281 Z M 317 184 Q 317 180 317 178 Q 315 181 316 184 Z" fill="black" />
  </g>
  <g class="defect" id="01">
    <path d="M 62 332 Q 36 343 49 323" fill="none" stroke="red" stroke-width="3" />
  </g>
  <g class="defect" id="02">
    <path d="M 316 68 Q 299 87 247 81" fill="none" stroke="red" stroke-width="3" />
  </g>
</svg>