<svg xmlns="http://www.w3.org/2000/svg" width="512" height="512" viewBox="0 0 512 512">
  <g class="glyph">
    <path d="M 130 358 Q 125 356 120 355 Q 116 354 111 352 Q 98 347 86 342 Q 74 337 63 329 Q 57 325 51 320 Q 45 315 41 309 Q 39 308 38 306 Q 37 305 35 304 Q 24 294 17 283 Q 10 273 7 259 Q 0 220 27 190 Q 33 182 40 176 Q 48 170 55 163 Q 61 159 66 154 Q 71 150 78 145 Q 80 144 81 142 Q 83 140 85 137 Q 72 131 59 126 Q 46 120 33 115 Q 34 112 34 110 Q 34 107 34 104 Q 29 103 25 101 Q 21 99 16 97 Q 15 93 16 89 Q 17 85 18 81 Q 21 69 26 58 Q 32 47 39 36 Q 42 32 45 29 Q 48 25 51 21 Q 64 25 77 31 Q 89 37 101 43 Q 111 48 119 54 Q 128 59 136 66 Q 141 71 146 76 Q 151 81 155 86 Q 160 90 164 95 Q 167 98 170 101 Q 172 105 175 108 Q 174 111 171 112 Q 167 114 168 117 Q 171 117 174 117 Q 176 116 179 116 Q 184 125 186 135 Q 188 145 188 155 Q 209 148 230 142 Q 250 137 273 132 Q 259 112 268 70 Q 266 38 265 7 Q 272 3 283 2 Q 294 0 306 0 Q 318 0 329 2 Q 341 3 351 6 V 20 Q 355 21 360 22 Q 365 23 369 24 V 43 Q 385 42 400 42 Q 416 42 432 40 Q 432 43 432 44 Q 432 46 433 48 H 433 Q 434 46 434 44 Q 434 42 436 40 Q 444 40 453 40 Q 462 39 472 39 Q 473 43 473 48 Q 474 52 475 57 H 489 Q 495 79 495 100 Q 494 121 488 144 Q 472 142 455 142 Q 438 141 422 140 V 141 Q 422 142 423 142 Q 424 142 424 143 Q 432 147 438 152 Q 445 156 451 162 Q 452 163 453 165 Q 454 167 455 168 Q 457 170 458 171 Q 465 178 473 184 Q 473 187 470 188 Q 468 189 471 192 Q 472 191 473 191 Q 475 190 476 190 Q 477 190 477 191 Q 478 191 479 192 Q 499 221 494 255 Q 493 268 490 280 Q 486 293 481 304 Q 480 305 480 307 Q 479 309 478 310 Q 483 310 483 315 Q 489 347 483 378 Q 483 380 482 380 Q 482 380 482 381 Q 429 383 378 385 Q 326 387 274 389 Q 268 419 262 449 Q 257 479 253 510 Q 244 512 235 512 Q 227 511 217 510 L 219 494 Q 217 494 216 493 Q 214 493 213 493 L 207 508 Q 203 509 196 507 Q 188 505 183 503 Q 183 500 183 496 Q 183 493 183 490 Q 179 489 174 488 Q 170 487 165 485 Q 166 475 166 465 Q 167 454 168 443 Q 149 453 130 461 Q 111 469 91 477 Q 89 473 86 469 Q 84 465 81 460 V 482 L 54 491 Q 52 486 49 481 Q 46 477 43 472 Q 39 473 37 474 Q 25 456 20 436 Q 14 417 14 395 Q 28 391 43 387 Q 57 383 71 379 Q 87 373 101 369 Q 115 364 130 358 Z M 23 91 Q 33 95 42 99 Q 52 104 62 108 Q 68 111 75 114 Q 81 118 87 122 Q 98 132 90 142 Q 87 147 82 151 Q 74 157 67 163 Q 60 168 53 175 Q 45 181 39 186 Q 33 192 27 199 Q 9 224 14 255 Q 19 282 43 299 Q 55 309 68 315 Q 82 322 96 327 Q 104 329 111 331 Q 118 333 126 336 Q 127 334 128 332 Q 129 330 130 328 Q 117 320 106 311 Q 95 303 83 294 Q 83 294 84 294 Q 97 296 110 300 Q 124 303 137 306 Q 139 303 140 301 Q 141 298 142 295 Q 142 293 143 290 Q 144 288 145 285 Q 143 284 141 284 Q 140 283 139 283 Q 126 278 114 273 Q 103 268 91 261 Q 85 258 82 253 Q 74 245 80 234 Q 82 231 84 229 Q 88 223 93 219 Q 99 216 104 211 Q 115 203 124 196 Q 134 188 144 178 Q 164 158 163 129 Q 163 116 158 105 Q 152 106 145 108 Q 139 110 132 111 Q 130 112 129 112 Q 127 112 125 110 Q 125 109 125 108 Q 125 107 125 106 Q 126 105 130 103 Q 134 99 139 96 Q 144 93 149 89 Q 147 87 146 85 Q 144 83 143 81 Q 131 68 116 59 Q 102 50 88 43 Q 73 37 58 31 Q 56 30 54 29 Q 43 44 34 58 Q 25 73 23 91 Z M 218 228 Q 219 227 219 227 Q 220 227 221 227 Q 246 217 272 210 Q 298 203 325 199 Q 336 198 349 197 Q 361 197 372 199 Q 388 202 400 209 Q 412 218 411 231 Q 410 234 410 236 Q 410 239 409 242 Q 407 254 402 264 Q 397 275 390 285 L 387 290 Q 388 290 389 291 Q 404 291 419 291 Q 434 291 448 292 Q 453 292 455 288 Q 460 276 464 264 Q 468 252 470 239 Q 472 225 470 212 Q 468 198 460 186 Q 459 185 457 181 Q 448 186 439 191 Q 429 197 417 196 Q 424 188 431 181 Q 438 175 446 167 Q 443 165 441 163 Q 431 154 419 149 Q 407 143 393 139 Q 375 134 357 133 Q 339 132 321 134 Q 262 139 204 158 Q 201 160 198 160 Q 196 161 192 162 Q 198 198 218 228 Z M 277 250 Q 259 243 242 239 Q 225 234 207 235 Q 206 238 205 242 L 200 270 Q 197 290 194 310 Q 191 330 188 351 Q 185 366 183 382 Q 182 397 180 413 Q 178 429 177 444 Q 175 459 173 475 V 479 Q 177 481 182 482 Q 183 482 183 482 Q 183 482 185 482 Q 193 463 200 444 Q 207 425 214 406 Q 214 406 214 406 Q 213 426 211 445 Q 209 465 208 485 Q 213 486 219 486 Q 226 486 229 485 Q 238 425 250 367 Q 262 309 277 250 Z M 274 295 Q 273 299 270 309 Q 268 319 265 330 Q 263 341 261 351 Q 259 361 259 363 Q 310 361 359 359 Q 409 357 459 355 Q 464 327 459 299 Q 413 298 367 297 Q 321 296 274 295 Z M 157 344 Q 155 347 154 350 Q 153 353 152 356 Q 154 360 156 364 Q 158 367 161 371 Q 163 371 164 371 Q 166 371 167 370 Q 172 377 176 383 Q 182 344 188 305 Q 193 267 201 228 Q 203 228 204 228 Q 206 228 208 227 Q 204 220 201 214 Q 198 207 195 199 Q 192 192 190 185 Q 188 178 186 170 Q 183 181 178 188 Q 172 196 166 203 Q 162 206 159 209 Q 156 213 152 216 Q 145 222 138 227 Q 131 232 124 238 Q 120 240 116 244 Q 112 247 109 250 Q 104 254 103 260 Q 115 266 128 271 Q 141 275 154 280 Q 153 283 152 285 Q 152 288 152 291 Q 157 293 162 295 Q 167 296 172 298 Q 170 308 167 316 Q 165 325 161 332 Q 155 332 150 331 Q 145 329 139 328 Q 139 329 139 329 Q 139 329 139 330 Q 143 334 147 337 Q 152 340 157 344 Z M 340 124 Q 341 96 342 68 Q 342 40 343 12 Q 335 9 325 9 Q 315 8 304 8 Q 294 8 286 9 Q 287 21 273 12 Q 273 18 273 37 Q 274 55 276 75 Q 277 95 278 112 Q 280 128 280 130 Q 296 129 311 127 Q 325 125 340 124 Z M 24 399 Q 23 403 24 412 Q 25 421 28 431 Q 30 441 34 450 Q 38 459 42 463 Q 46 462 50 460 Q 53 458 58 457 Q 57 446 57 436 Q 57 426 56 415 H 57 Q 68 433 79 448 Q 84 447 97 441 Q 111 436 126 429 Q 140 422 152 416 Q 165 410 167 408 Q 161 384 146 361 Q 116 372 85 382 Q 55 391 24 399 Z M 350 51 Q 350 66 349 81 Q 348 96 349 111 Q 407 114 465 117 Q 469 100 470 82 Q 470 64 466 47 Q 460 47 454 47 Q 447 48 441 48 Q 438 62 434 75 Q 430 88 424 101 Q 424 88 425 75 Q 426 62 424 48 Q 406 49 387 49 Q 368 50 350 51 Z M 283 255 Q 288 258 293 260 Q 298 262 303 264 Q 302 270 300 276 Q 299 282 297 289 H 313 Q 327 289 343 289 Q 358 289 373 290 Q 377 290 378 287 Q 386 278 392 267 Q 397 257 401 245 Q 402 240 403 237 Q 404 233 403 229 Q 402 228 401 228 Q 400 227 398 227 Q 397 226 396 226 Q 385 223 373 223 Q 361 223 349 224 Q 331 227 314 231 Q 296 234 280 239 Q 278 240 277 240 Q 276 240 274 241 Q 277 243 280 244 Q 282 245 284 247 Q 284 249 283 255 Z" fill="black" />
  </g>
  <g class="defect" id="01">
    <path d="M 286 9 Q 287 21 273 12" fill="none" stroke="red" stroke-width="3" />
  </g>
  <g class="defect" id="02">
    <path d="M 273 132 Q 259 112 268 70" fill="none" stroke="red" stroke-width="3" />
  </g>
</svg>