<svg xmlns="http://www.w3.org/2000/svg" width="512" height="512" viewBox="0 0 512 512">
  <g class="glyph">
    <path d="M 426 104 V 105 Q 426 105 428 107 Q 445 114 457 130 Q 459 132 461 133 Q 479 147 485 167 Q 491 186 485 207 Q 482 220 475 230 Q 469 241 461 252 Q 457 249 453 248 Q 449 246 445 244 Q 446 241 447 238 Q 448 235 449 232 L 448 232 Q 446 234 444 237 Q 442 239 440 242 Q 436 239 431 236 Q 427 233 422 229 Q 423 235 423 239 Q 423 244 424 248 Q 425 253 428 257 Q 431 260 434 265 Q 435 264 440 263 Q 447 274 453 287 Q 459 300 462 314 Q 452 320 441 324 Q 430 328 419 332 Q 424 341 430 349 Q 436 357 442 365 Q 447 364 454 361 Q 457 366 459 371 Q 461 376 464 381 Q 466 380 467 380 Q 469 380 472 379 Q 476 386 479 393 Q 482 399 486 407 L 480 412 Q 481 414 482 415 Q 482 416 483 417 L 491 416 Q 492 419 493 421 Q 495 424 497 427 Q 499 432 501 437 Q 504 441 506 446 Q 508 449 508 450 Q 508 451 505 453 Q 486 471 461 480 Q 458 477 455 473 Q 453 469 449 465 Q 448 464 447 463 Q 446 461 443 463 Q 437 454 431 446 Q 424 438 419 429 Q 413 422 408 415 Q 403 408 397 402 Q 394 397 389 394 Q 385 390 380 385 Q 370 376 360 366 Q 349 357 340 346 Q 334 340 326 338 Q 307 331 294 315 Q 291 311 287 308 Q 278 301 270 289 Q 266 290 262 290 Q 258 291 253 292 Q 251 287 249 282 Q 247 278 245 273 Q 242 272 242 274 Q 242 275 241 276 Q 240 283 239 290 Q 239 297 238 304 Q 236 312 235 320 Q 234 328 233 335 Q 233 336 233 338 Q 233 339 233 341 Q 244 342 255 345 Q 266 348 277 354 Q 276 355 276 357 Q 276 359 276 360 Q 275 361 275 362 Q 274 363 276 364 Q 278 364 278 363 Q 278 361 279 360 Q 280 356 281 351 Q 282 346 284 342 Q 284 340 284 339 Q 303 338 319 344 Q 335 349 351 358 Q 349 363 348 365 Q 353 368 358 370 Q 363 372 369 375 Q 364 389 360 403 Q 355 417 354 431 Q 360 432 368 429 Q 376 426 393 416 Q 394 417 395 418 Q 396 419 397 420 Q 402 424 405 429 Q 409 433 413 436 Q 421 442 426 450 Q 432 458 437 467 Q 440 473 442 479 Q 433 488 420 494 Q 408 501 394 505 Q 380 509 367 511 Q 354 512 343 510 Q 344 506 345 502 Q 345 498 346 494 Q 345 494 345 494 Q 341 497 339 501 Q 337 504 334 508 Q 326 505 319 501 Q 312 497 307 491 Q 299 483 293 478 Q 283 469 278 455 Q 277 454 276 452 Q 276 451 274 449 Q 272 459 270 467 Q 269 476 266 485 Q 240 486 216 477 Q 215 483 215 489 Q 214 495 213 502 Q 208 502 203 502 Q 198 502 193 503 Q 193 498 193 494 Q 193 490 194 486 Q 193 486 193 485 Q 192 490 190 494 Q 189 498 187 502 Q 179 501 172 500 Q 165 499 158 497 Q 158 494 158 491 Q 158 488 158 484 Q 154 483 149 481 Q 145 480 140 479 Q 141 470 141 462 Q 141 454 142 445 Q 128 451 114 457 Q 100 464 86 470 Q 83 466 81 462 Q 79 459 77 455 H 76 V 474 Q 70 477 64 479 Q 58 482 52 484 Q 47 479 45 474 Q 42 470 40 464 Q 35 465 33 466 Q 22 448 17 429 Q 13 410 11 389 Q 39 382 66 374 Q 92 366 120 355 Q 118 354 117 354 Q 116 354 115 353 Q 102 349 89 344 Q 76 339 64 331 Q 48 321 36 308 L 32 303 Q 0 276 3 234 Q 5 208 23 188 Q 29 182 36 176 Q 42 171 48 165 Q 53 161 59 156 Q 64 152 70 147 Q 72 146 73 144 Q 74 142 77 140 Q 65 133 53 128 Q 41 123 28 118 Q 29 115 29 113 Q 29 110 29 108 Q 24 105 20 104 Q 16 102 11 100 Q 11 91 14 81 Q 18 66 26 52 Q 34 39 44 27 Q 45 27 45 26 Q 66 35 86 44 Q 105 54 123 69 Q 126 71 128 73 Q 130 76 133 78 Q 138 83 142 87 Q 147 92 151 96 Q 157 102 163 111 Q 161 114 158 115 Q 155 116 155 120 Q 157 120 158 119 Q 159 119 160 119 Q 163 119 166 118 Q 167 120 168 120 Q 169 121 172 121 L 237 106 Q 238 106 238 106 Q 238 105 239 105 V 102 Q 236 84 235 65 Q 233 47 232 29 Q 230 24 230 20 Q 230 15 229 10 Q 229 7 233 5 Q 248 1 265 1 Q 276 0 286 1 Q 296 2 306 5 V 19 Q 308 20 310 20 Q 311 20 314 20 Q 316 21 319 22 Q 322 22 324 23 Q 327 24 328 23 Q 340 22 351 21 Q 363 21 374 20 Q 380 20 386 19 Q 392 18 399 18 Q 399 23 399 27 Q 399 32 400 36 Q 403 32 404 27 Q 392 22 407 17 Q 415 16 423 16 Q 432 15 440 15 Q 441 20 443 24 Q 444 28 445 33 Q 448 33 451 33 Q 454 33 458 32 Q 464 51 464 69 Q 464 86 460 104 Z M 132 286 Q 130 285 128 284 Q 121 281 114 278 Q 108 276 101 273 Q 94 270 88 266 Q 82 263 76 258 Q 63 247 73 233 Q 74 232 74 231 Q 75 230 76 229 Q 80 224 85 221 Q 90 217 95 213 Q 105 205 114 197 Q 124 189 133 179 Q 142 169 146 157 Q 149 145 148 132 Q 147 121 143 111 Q 137 112 130 114 Q 127 115 123 116 Q 120 116 117 117 Q 114 118 113 115 Q 112 114 113 113 Q 113 112 113 111 Q 114 110 114 110 Q 115 109 116 109 Q 120 106 123 103 Q 127 100 131 97 Q 133 96 134 95 Q 127 85 119 77 Q 110 70 101 64 Q 88 55 74 49 Q 61 43 47 37 Q 36 51 29 65 Q 21 80 18 97 Q 22 99 26 100 Q 36 105 47 110 Q 57 115 68 120 Q 72 122 75 124 Q 78 127 80 129 Q 88 135 83 143 Q 81 148 76 153 Q 72 158 67 161 Q 63 164 59 168 Q 51 174 43 182 Q 35 189 27 197 Q 17 208 13 220 Q 9 233 9 246 Q 10 259 14 271 Q 19 283 28 292 Q 34 297 39 302 Q 45 307 52 310 Q 66 318 80 324 Q 95 329 111 334 Q 112 334 115 334 Q 116 333 116 331 Q 117 329 118 327 Q 107 319 96 311 Q 85 303 74 295 Q 74 294 75 294 Q 88 297 100 300 Q 113 303 125 306 Q 127 301 129 296 Q 130 291 132 286 Z M 441 224 Q 447 215 452 206 Q 458 197 460 187 Q 465 170 461 157 Q 458 141 448 130 Q 439 120 424 113 Q 412 107 399 104 Q 385 102 371 102 Q 359 118 327 104 Q 306 105 284 108 Q 258 111 233 116 Q 207 121 182 127 Q 178 128 175 129 Q 171 130 167 131 Q 168 138 169 143 Q 170 149 172 155 Q 189 153 205 156 Q 222 159 238 165 Q 237 168 237 170 Q 236 173 236 176 Q 238 176 239 176 Q 240 176 241 175 Q 250 173 260 171 Q 270 168 279 167 Q 293 165 307 163 Q 320 161 334 159 Q 345 157 356 156 Q 367 155 379 155 Q 391 155 404 159 Q 410 162 411 165 Q 413 168 411 175 Q 410 179 409 182 Q 408 185 406 189 Q 405 191 403 193 Q 402 196 401 198 Q 405 202 410 206 Q 415 210 420 214 Q 428 204 435 196 Q 442 188 449 179 Q 447 190 444 201 Q 441 211 436 222 Q 438 223 441 224 Z M 189 478 Q 208 388 207 324 Q 217 248 229 171 Q 224 169 217 167 Q 210 165 202 164 Q 195 163 187 163 Q 180 163 176 164 Q 174 170 171 194 Q 168 218 165 252 Q 162 286 158 324 Q 155 361 152 394 Q 149 427 148 449 Q 147 472 147 474 Q 152 476 155 476 Q 159 477 163 477 Q 167 466 170 455 Q 174 445 178 434 Q 182 445 182 456 Q 183 467 182 478 Q 185 478 189 478 Z M 290 347 Q 289 353 287 358 Q 285 364 284 369 Q 282 383 280 396 Q 278 410 279 423 Q 279 433 281 442 Q 283 451 287 459 Q 296 476 314 483 Q 316 480 318 477 Q 320 474 321 472 Q 323 469 325 466 Q 327 464 330 461 Q 332 458 334 456 Q 336 453 339 451 Q 338 460 337 469 Q 335 478 334 487 Q 357 488 377 480 Q 397 473 416 460 Q 411 451 405 442 Q 399 434 391 426 Q 374 435 358 439 Q 353 440 348 441 Q 342 441 336 440 Q 332 439 330 438 Q 329 436 328 432 Q 327 420 329 408 Q 332 398 334 388 Q 336 379 339 370 Q 340 367 341 361 Q 336 358 329 355 Q 321 353 314 351 Q 307 348 300 348 Q 293 347 290 347 Z M 392 193 Q 351 197 311 202 Q 271 207 231 213 Q 229 217 230 225 Q 230 233 231 241 Q 232 248 234 255 Q 236 263 239 266 Q 319 249 397 235 Q 398 227 397 214 Q 395 202 392 193 Z M 134 360 Q 119 365 105 370 Q 90 375 76 379 Q 62 384 47 388 Q 33 392 18 396 Q 18 401 19 410 Q 21 419 23 429 Q 26 438 29 446 Q 32 454 36 458 Q 39 457 43 455 Q 46 454 50 453 Q 49 442 49 432 Q 49 422 49 412 Q 49 412 50 411 Q 55 420 60 428 Q 65 436 70 444 H 72 Q 89 436 107 428 Q 124 420 141 411 Q 143 410 144 409 Q 144 408 145 407 Q 145 402 146 397 Q 146 391 146 386 V 382 Q 142 376 140 371 Q 137 365 134 360 Z M 269 267 Q 279 301 308 311 Q 319 316 331 317 Q 342 318 354 316 Q 356 316 357 316 Q 358 315 359 314 Q 363 311 366 309 Q 369 307 372 304 Q 376 302 379 300 Q 383 298 388 295 Q 390 298 392 301 Q 394 304 397 307 Q 407 304 417 300 Q 427 296 436 292 Q 433 282 429 272 Q 425 263 419 254 Q 417 255 414 256 Q 402 260 391 263 Q 379 266 367 269 Q 360 270 352 271 Q 344 272 335 271 Q 329 270 325 267 Q 320 264 319 258 Q 319 258 317 257 Q 305 260 294 262 Q 282 264 269 267 Z M 392 28 Q 370 30 349 32 Q 328 34 305 35 Q 305 46 305 57 Q 305 68 304 79 H 436 Q 439 65 439 52 Q 439 39 435 24 Q 430 25 425 26 Q 421 26 416 26 Q 411 26 411 30 Q 410 36 408 42 Q 407 47 405 53 Q 402 63 392 67 Z M 299 14 Q 292 12 283 11 Q 274 10 266 10 Q 257 10 249 12 Q 241 13 236 15 Q 239 38 241 61 Q 243 84 246 107 Q 259 105 271 104 Q 284 102 296 100 Q 297 78 298 57 Q 298 35 299 14 Z M 268 358 Q 257 353 246 351 Q 235 348 223 348 Q 218 375 214 402 Q 210 428 207 455 Q 216 458 225 460 Q 233 461 242 461 Q 248 435 255 410 Q 261 384 268 358 Z M 93 261 Q 105 267 117 272 Q 129 276 141 280 Q 140 285 139 291 Q 146 294 153 297 Q 156 270 159 244 Q 162 218 165 192 Q 161 197 158 200 Q 154 204 151 208 Q 142 216 133 224 Q 124 232 114 239 Q 110 242 107 245 Q 104 248 101 251 Q 97 253 93 261 Z M 420 355 Q 411 343 402 330 Q 394 318 385 305 Q 359 320 345 341 Q 355 352 366 362 Q 377 372 388 382 Q 408 371 420 355 Z M 404 400 Q 415 414 424 427 Q 434 440 445 454 Q 464 446 480 431 Q 477 424 474 419 Q 471 413 468 407 Q 466 407 465 407 Q 464 407 463 408 Q 458 409 453 410 Q 448 411 444 412 Q 440 413 439 410 Q 437 408 440 405 Q 440 404 442 402 Q 447 398 451 395 Q 454 391 459 387 Q 456 383 454 379 Q 452 374 449 370 Q 437 376 425 383 Q 414 390 404 400 Z M 272 177 Q 271 183 270 188 Q 269 194 267 200 Q 282 198 296 197 Q 310 195 324 193 Q 325 189 326 185 Q 327 182 328 177 Q 325 176 323 174 Q 314 169 303 171 Q 302 172 300 172 Q 298 172 297 172 Q 291 173 285 174 Q 279 176 272 177 Z M 145 343 Q 143 346 143 348 Q 142 349 141 352 Q 141 353 140 354 Q 140 355 140 356 Q 142 361 147 367 Q 148 357 149 347 Q 150 338 151 327 H 151 Q 149 329 149 330 Q 148 331 147 332 Q 142 332 137 330 Q 132 328 127 328 Q 127 328 126 328 Q 126 328 126 329 Q 130 332 135 336 Q 140 339 145 343 Z M 402 182 Q 388 180 374 182 Q 361 184 347 185 Q 349 188 352 189 Q 354 190 358 190 Q 367 188 376 187 Q 384 186 394 185 Q 395 185 399 186 Q 399 186 402 182 Z" fill="black" />
  </g>
  <g class="defect" id="01">
    <path d="M 189 478 Q 208 388 207 324" fill="none" stroke="red" stroke-width="3" />
  </g>
  <g class="defect" id="02">
    <path d="M 404 27 Q 392 22 407 17" fill="none" stroke="red" stroke-width="3" />
  </g>
  <g class="defect" id="03">
    <path d="M 371 102 Q 359 118 327 104" fill="none" stroke="red" stroke-width="3" />
  </g>
</svg>