<svg xmlns="http://www.w3.org/2000/svg" width="512" height="512" viewBox="0 0 512 512">
  <g class="glyph">
    <path d="M 112 357 Q 105 355 99 353 Q 92 350 87 348 Q 75 343 65 337 Q 54 332 45 324 Q 38 317 31 311 Q 25 304 18 297 Q 10 287 6 275 Q 1 263 1 251 Q 0 238 3 226 Q 7 213 15 202 Q 20 195 28 188 Q 35 181 42 174 Q 48 170 54 165 Q 59 160 65 156 Q 66 154 67 152 Q 69 151 71 148 Q 60 142 49 137 Q 37 133 26 128 V 118 Q 22 116 17 115 Q 13 113 8 111 Q 8 98 12 89 Q 16 75 23 63 Q 30 51 39 40 Q 40 40 40 40 Q 40 39 41 39 Q 56 46 71 52 Q 86 59 99 69 Q 113 79 127 93 Q 131 98 136 102 Q 141 106 146 111 Q 141 83 147 55 Q 176 54 205 54 Q 234 53 264 52 Q 259 45 256 40 Q 260 35 267 29 Q 274 23 282 17 Q 291 12 301 7 Q 310 3 319 0 Q 323 4 324 9 Q 326 15 329 19 Q 331 18 333 18 Q 334 18 337 17 Q 338 19 339 21 Q 340 23 341 26 Q 343 29 344 33 Q 346 36 347 39 Q 349 44 346 46 Q 348 46 350 46 Q 351 48 351 48 Q 352 51 355 51 H 372 H 459 Q 460 51 460 51 Q 460 51 461 51 Q 463 59 464 68 H 477 Q 479 72 480 80 Q 481 88 481 97 Q 482 106 481 115 Q 480 123 478 129 Q 465 130 451 130 Q 437 130 423 131 Q 423 132 422 133 Q 427 136 431 140 Q 436 143 441 147 Q 440 150 438 152 Q 436 155 435 157 Q 438 159 439 159 Q 445 164 450 168 Q 455 172 458 178 Q 458 179 460 179 Q 461 179 461 180 Q 465 183 469 186 Q 472 189 475 194 Q 474 196 471 197 Q 468 198 470 202 Q 472 201 474 201 Q 476 200 479 200 Q 483 206 485 213 Q 487 220 488 228 Q 489 240 486 252 Q 484 263 479 274 Q 478 278 477 281 Q 475 284 474 286 Q 471 291 472 297 Q 474 310 473 322 Q 473 335 470 347 Q 470 347 469 349 H 409 Q 409 350 408 350 Q 410 351 411 353 Q 414 357 418 360 Q 421 363 425 367 Q 426 368 427 369 Q 428 370 430 371 Q 434 376 439 380 Q 443 385 446 390 Q 444 392 442 394 Q 441 396 439 397 Q 439 399 439 400 Q 439 401 440 403 Q 443 402 445 401 Q 448 400 451 399 Q 437 417 454 407 Q 455 411 456 415 Q 460 442 450 467 Q 445 479 438 490 Q 430 501 423 512 Q 422 511 420 511 Q 419 511 418 510 Q 393 500 375 482 Q 372 481 372 478 Q 372 477 371 477 Q 370 476 369 475 Q 365 472 362 469 Q 358 466 354 463 Q 360 452 366 443 Q 372 433 375 422 Q 370 421 367 422 Q 364 422 360 422 Q 342 425 325 431 Q 308 436 291 443 Q 290 443 289 444 Q 289 444 287 444 H 286 Q 283 440 280 436 Q 278 432 274 426 Q 268 446 261 466 Q 255 486 249 506 Q 242 506 237 505 Q 231 504 226 503 Q 226 499 226 496 Q 227 493 228 489 Q 225 488 224 488 Q 223 488 221 491 Q 220 494 218 496 Q 217 498 216 500 Q 209 498 203 495 Q 197 493 190 490 Q 191 486 193 481 Q 187 479 183 477 Q 178 475 173 473 Q 180 443 188 414 Q 195 385 202 355 H 189 Q 188 350 187 346 Q 186 342 185 337 H 173 Q 170 332 169 326 Q 168 320 167 314 Q 166 300 167 286 Q 168 283 167 282 Q 166 280 166 278 Q 161 263 156 249 Q 151 234 146 220 Q 145 218 145 216 Q 145 214 144 212 Q 143 212 142 213 Q 142 213 141 214 Q 133 220 126 227 Q 118 233 110 240 Q 106 243 102 247 Q 99 250 95 253 Q 93 255 91 258 Q 90 260 89 264 Q 100 270 111 274 Q 122 278 133 282 Q 132 287 131 292 Q 136 294 140 296 Q 159 285 150 300 Q 146 317 140 332 Q 134 331 130 330 Q 125 328 120 327 Q 120 328 120 328 Q 124 332 128 335 Q 133 338 137 342 Q 136 345 136 347 Q 135 349 134 351 Q 132 355 134 357 Q 136 359 137 362 Q 139 365 141 368 Q 142 367 146 366 Q 164 391 170 423 Q 148 435 126 445 Q 104 456 81 465 Q 78 462 77 458 Q 75 455 72 452 Q 72 452 71 452 V 470 Q 66 473 60 475 Q 54 477 48 479 Q 44 475 42 470 Q 40 465 37 460 Q 35 461 34 461 Q 32 461 30 462 Q 19 445 15 426 Q 10 408 9 388 Q 35 382 60 374 Q 86 367 112 357 Z M 16 106 Q 20 108 24 110 Q 28 111 31 113 Q 48 121 63 128 Q 66 130 69 132 Q 71 133 74 136 Q 83 143 77 153 Q 76 155 74 157 Q 72 159 71 161 Q 65 165 59 170 Q 54 175 48 180 Q 40 186 34 192 Q 28 198 22 206 Q 10 221 8 238 Q 6 255 13 274 Q 17 285 25 294 Q 34 302 44 310 Q 58 318 73 324 Q 88 330 104 334 Q 105 335 106 335 Q 107 335 109 335 Q 109 333 111 329 Q 101 321 90 313 Q 80 305 70 297 Q 70 296 70 296 Q 70 296 70 296 Q 82 299 94 302 Q 106 305 119 308 Q 120 303 122 298 Q 123 293 124 289 Q 122 287 121 287 Q 120 286 118 286 Q 107 282 97 277 Q 86 272 76 265 Q 73 264 72 262 Q 70 260 68 258 Q 60 249 67 240 L 71 233 Q 76 230 79 227 Q 83 223 87 220 Q 95 213 103 206 Q 111 200 119 193 Q 124 188 128 183 Q 132 177 135 172 Q 143 153 139 132 Q 138 129 137 126 Q 137 123 135 120 Q 130 121 124 122 Q 118 124 112 125 Q 111 126 109 126 Q 107 127 106 125 Q 103 122 109 119 Q 111 116 114 115 Q 116 113 119 111 Q 120 109 122 108 Q 124 106 127 104 Q 126 103 126 103 Q 126 102 125 102 Q 120 95 114 89 Q 109 84 102 79 Q 89 69 74 62 Q 60 55 45 49 H 43 Q 34 61 26 76 Q 19 90 16 106 Z M 360 97 Q 368 98 375 101 Q 382 103 389 106 Q 393 109 396 109 Q 409 108 421 108 Q 434 107 446 106 Q 449 106 452 106 Q 454 106 457 105 Q 459 93 459 82 Q 459 71 456 59 H 452 Q 442 59 433 58 Q 424 58 414 58 Q 393 58 374 58 Q 354 59 333 59 H 305 Q 280 59 255 60 Q 231 60 207 61 Q 196 61 185 61 Q 175 61 164 62 Q 161 62 158 62 Q 156 62 153 62 Q 151 78 151 92 Q 152 107 156 122 Q 159 122 162 122 Q 165 122 167 122 L 193 120 Q 202 119 211 119 Q 220 119 230 118 Q 231 118 233 117 Q 235 116 237 116 Q 244 113 251 111 Q 258 109 265 106 Q 270 105 276 104 Q 278 111 280 114 H 284 Q 289 114 294 114 Q 300 114 305 113 Q 316 112 327 112 Q 337 111 348 111 Q 353 111 354 106 Q 355 104 356 102 Q 357 99 358 97 Z M 449 176 Q 442 169 432 164 Q 422 158 410 156 Q 399 153 387 152 Q 365 150 343 151 Q 322 153 301 157 Q 280 161 260 166 Q 240 172 221 179 Q 217 180 213 182 Q 209 184 205 185 Q 211 217 230 240 Q 231 240 232 239 Q 232 239 233 239 Q 251 231 269 224 Q 287 217 306 213 Q 310 212 313 211 Q 317 209 320 208 Q 324 206 328 204 Q 332 202 336 201 Q 337 202 338 204 Q 338 205 339 206 Q 344 206 348 205 Q 353 205 357 205 Q 367 204 376 204 Q 386 204 396 205 Q 400 206 404 207 Q 408 209 412 210 Q 418 212 418 218 Q 418 222 417 223 Q 415 229 414 234 Q 412 240 410 245 Q 410 247 409 248 Q 409 249 408 251 Q 417 258 425 262 Q 434 267 444 271 Q 446 271 450 271 Q 451 270 451 270 Q 451 269 452 268 Q 460 252 464 237 Q 466 230 467 222 Q 467 215 466 208 Q 465 198 461 190 Q 460 191 458 191 Q 457 192 456 193 L 437 199 Q 433 200 429 200 Q 425 200 421 199 Q 428 194 435 188 Q 442 183 449 176 Z M 447 326 Q 447 325 448 325 Q 448 324 448 323 Q 450 313 450 303 Q 451 293 449 283 Q 449 281 448 280 Q 447 279 445 279 Q 440 279 434 278 Q 429 278 424 278 Q 398 277 373 276 Q 347 275 322 274 Q 301 273 280 273 Q 260 272 239 272 H 182 H 176 Q 174 287 174 302 Q 174 316 178 332 Q 246 328 312 327 Q 379 326 447 326 Z M 382 408 Q 392 399 402 390 Q 411 381 421 372 Q 415 364 408 360 Q 395 349 380 346 Q 365 342 349 343 Q 332 344 315 347 Q 298 350 281 354 Q 277 356 275 359 Q 273 367 270 375 Q 268 382 264 390 Q 263 394 262 396 Q 262 399 262 401 Q 262 402 263 404 Q 264 407 266 410 Q 268 413 269 415 Q 270 418 272 419 Q 282 415 292 412 Q 302 409 313 406 Q 323 403 334 401 Q 345 398 356 398 Q 364 398 370 399 Q 377 400 382 408 Z M 276 335 Q 261 336 246 336 Q 230 336 215 337 Q 214 340 211 351 Q 208 361 205 375 Q 201 389 197 405 Q 194 421 190 435 Q 187 449 185 458 Q 183 468 183 471 Q 188 473 196 476 Q 202 465 208 455 Q 214 444 225 436 Q 222 447 221 459 Q 219 470 217 482 Q 220 482 222 482 Q 225 482 227 483 Q 239 445 252 409 Q 264 372 276 335 Z M 144 404 Q 143 400 141 393 Q 139 387 136 380 Q 133 374 130 368 Q 127 362 125 360 Q 98 370 71 379 Q 44 387 16 395 Q 17 411 21 426 Q 25 441 33 455 Q 36 453 40 452 Q 43 451 46 449 Q 46 439 45 429 Q 45 419 45 409 Q 45 409 45 408 Q 45 408 46 408 Q 50 417 55 424 Q 60 432 66 441 Q 86 432 105 423 Q 125 414 144 404 Z M 217 262 Q 216 254 214 247 Q 212 240 211 232 Q 210 228 209 223 Q 208 218 206 214 Q 199 198 197 183 V 181 Q 198 180 199 180 Q 199 180 200 179 Q 200 176 200 173 Q 199 170 198 166 Q 194 166 185 167 Q 176 167 167 169 Q 158 172 151 174 Q 143 177 140 180 Q 147 202 154 224 Q 161 245 168 267 Q 170 265 171 265 Q 172 264 174 264 H 208 Q 210 264 212 264 Q 215 264 217 262 Z M 365 462 Q 374 470 384 476 Q 394 482 405 487 Q 413 476 420 465 Q 426 454 431 440 Q 434 430 435 419 Q 435 409 433 398 Q 432 394 431 392 Q 428 393 421 396 Q 414 399 407 402 Q 399 406 393 409 Q 387 412 384 414 Q 385 428 378 439 Q 372 450 365 462 Z M 355 259 Q 349 246 344 234 Q 339 222 332 210 Q 317 216 305 224 Q 293 232 282 244 Q 287 249 291 254 Q 295 259 300 264 Q 302 266 304 266 Q 313 266 322 267 Q 331 267 340 267 Q 341 267 342 267 Q 343 267 344 266 Q 347 264 350 263 Q 352 261 355 259 Z M 283 152 Q 280 142 278 132 Q 275 122 272 112 Q 257 115 243 121 Q 229 126 217 136 Q 221 144 226 151 Q 230 159 235 166 Q 247 163 259 159 Q 271 156 283 152 Z M 417 133 Q 404 123 391 116 Q 378 109 362 104 Q 359 115 355 124 Q 352 134 348 144 Q 363 144 377 144 Q 391 145 406 147 Q 409 144 411 140 Q 414 136 417 133 Z M 265 41 Q 267 44 269 45 Q 270 47 272 49 Q 275 52 280 52 Q 284 52 287 52 Q 291 52 295 52 Q 304 52 313 52 Q 323 51 333 51 Q 335 51 336 51 Q 333 44 329 37 Q 321 39 312 41 Q 303 43 294 46 Q 294 45 294 45 Q 294 45 294 45 Q 319 49 309 34 Q 316 29 324 24 Q 320 16 317 8 Q 302 14 289 22 Q 276 29 265 41 Z M 416 267 Q 411 263 407 260 Q 402 257 398 254 Q 400 247 403 242 Q 406 236 407 229 Q 383 228 359 231 L 377 269 Q 386 269 394 269 Q 403 270 412 270 Q 416 271 416 267 Z M 208 176 Q 214 174 218 173 Q 223 171 228 169 Q 227 167 226 166 Q 223 162 221 157 Q 218 153 215 147 Q 214 144 209 145 Q 200 145 191 146 Q 183 146 174 147 H 169 L 164 130 Q 162 130 158 130 Q 166 147 165 163 Q 175 161 185 160 Q 195 158 205 159 Q 206 163 206 167 Q 207 172 208 176 Z M 343 136 Q 332 137 321 137 Q 311 137 300 138 Q 300 144 303 148 Q 312 147 321 146 Q 330 145 340 144 Q 341 143 342 141 Q 342 138 343 136 Z M 280 252 Q 272 254 263 258 Q 253 262 251 265 H 291 Q 288 261 285 258 Q 282 255 280 252 Z M 145 129 Q 147 131 146 131 Q 147 131 149 130 Q 150 130 152 130 Q 151 129 150 128 Q 150 127 150 125 Q 147 128 145 129 Z M 242 264 Q 240 262 238 260 Q 238 261 238 261 Q 239 262 239 263 Q 239 264 242 264 Z" fill="black" />
  </g>
  <g class="defect" id="01">
    <path d="M 140 296 Q 159 285 150 300" fill="none" stroke="red" stroke-width="3" />
  </g>
  <g class="defect" id="02">
    <path d="M 294 45 Q 319 49 309 34" fill="none" stroke="red" stroke-width="3" />
  </g>
  <g class="defect" id="03">
    <path d="M 451 399 Q 437 417 454 407" fill="none" stroke="red" stroke-width="3" />
  </g>
</svg>