<svg xmlns="http://www.w3.org/2000/svg" width="512" height="512" viewBox="0 0 512 512">
  <g class="glyph">
    <path d="M 408 121 Q 407 126 405 131 Q 403 135 402 140 Q 409 144 415 147 Q 421 151 425 156 Q 425 157 425 158 Q 424 158 424 159 Q 425 160 425 161 Q 426 161 426 161 Q 429 160 430 161 Q 432 163 433 164 L 442 173 Q 442 174 441 179 Q 446 177 447 178 Q 449 180 450 182 Q 466 201 468 225 Q 471 255 464 282 Q 457 310 441 335 Q 441 336 441 337 Q 441 337 440 338 Q 432 336 425 332 Q 418 328 410 324 V 342 Q 395 345 380 347 Q 365 349 350 351 V 352 H 455 Q 456 356 457 360 Q 457 364 458 369 H 472 Q 477 384 477 399 Q 477 415 474 430 Q 462 431 449 431 Q 437 432 423 433 Q 443 438 434 442 Q 435 443 436 444 Q 437 445 437 447 Q 437 448 438 448 Q 439 449 440 450 Q 444 453 447 456 Q 450 459 455 462 Q 449 476 440 488 Q 431 501 419 512 Q 406 503 391 494 Q 377 485 363 476 Q 363 475 364 473 Q 364 472 365 471 Q 363 470 362 471 Q 361 471 358 472 Q 353 469 348 466 Q 343 462 338 459 Q 334 456 337 453 Q 331 448 326 446 Q 325 445 323 444 Q 322 443 320 441 Q 318 439 315 438 Q 312 438 309 438 Q 307 439 304 439 Q 302 439 299 439 Q 294 439 292 442 Q 282 459 273 475 Q 263 491 253 508 Q 253 509 252 510 Q 251 511 251 512 Q 236 508 223 500 Q 210 493 197 484 Q 198 482 198 480 Q 194 477 189 473 Q 185 470 180 467 Q 182 461 185 455 Q 188 450 190 444 Q 183 445 177 445 Q 170 445 163 446 Q 162 441 161 437 Q 160 432 158 428 Q 156 428 154 428 Q 151 429 149 428 Q 145 427 142 429 Q 140 430 136 431 Q 123 437 109 444 Q 96 450 81 456 Q 79 452 77 449 Q 74 445 72 441 H 71 V 460 Q 65 462 59 465 Q 53 467 47 470 Q 43 465 41 460 Q 39 455 36 450 Q 35 450 33 451 Q 32 452 29 452 Q 18 435 14 416 Q 9 398 8 377 Q 35 370 61 362 Q 87 354 114 344 Q 112 343 112 343 Q 111 342 110 342 Q 88 335 67 324 Q 49 315 34 297 Q 31 294 28 292 Q 26 289 23 287 Q 13 277 8 265 Q 2 252 1 239 Q 0 226 3 213 Q 7 200 15 188 Q 21 181 27 174 Q 34 167 41 162 Q 47 157 53 152 Q 59 147 65 142 Q 67 140 69 137 Q 71 135 73 133 Q 62 127 50 122 Q 39 117 26 112 V 102 Q 22 100 18 98 Q 13 96 9 95 Q 9 90 9 86 Q 10 82 11 78 Q 16 62 23 49 Q 31 36 41 24 Q 41 24 42 23 Q 44 24 45 24 Q 59 30 73 36 Q 86 42 98 50 Q 108 56 116 63 Q 124 69 132 78 Q 133 80 136 82 Q 138 83 141 86 Q 141 73 141 61 Q 142 49 145 36 H 191 Q 190 32 189 27 Q 189 22 188 18 Q 206 9 225 7 Q 243 5 263 7 Q 263 11 263 15 Q 264 19 264 23 Q 268 24 272 24 Q 276 24 280 24 L 281 37 H 300 Q 301 39 301 40 Q 301 41 302 42 Q 303 39 304 37 Q 313 37 322 37 Q 330 37 339 38 Q 341 29 343 20 Q 345 11 346 2 Q 353 0 362 1 Q 372 2 382 5 Q 393 7 403 12 Q 412 16 419 20 Q 419 21 418 23 Q 418 25 417 27 Q 422 29 427 31 Q 431 33 436 36 Q 436 37 436 39 Q 435 40 435 41 Q 440 42 445 42 Q 450 42 455 42 Q 456 47 457 51 Q 457 55 458 59 Q 462 59 465 59 Q 468 59 472 59 Q 473 62 473 70 Q 474 77 474 86 Q 474 95 473 105 Q 472 114 470 121 Z M 113 315 Q 102 307 92 299 Q 81 291 71 282 Q 71 282 71 282 Q 83 285 96 288 Q 108 291 120 294 Q 124 285 127 273 Q 126 273 125 273 Q 124 272 123 272 Q 115 269 108 266 Q 101 264 94 260 Q 83 255 73 247 Q 66 242 65 235 Q 64 228 70 221 Q 74 216 79 212 Q 83 209 88 205 Q 96 198 104 192 Q 112 185 120 178 Q 131 169 136 158 Q 142 148 143 137 Q 144 126 143 115 Q 142 112 141 109 Q 140 106 138 103 Q 132 104 127 106 Q 121 107 116 109 Q 112 110 111 110 Q 108 110 108 108 Q 107 106 108 104 L 111 102 Q 113 100 116 98 Q 119 96 122 93 Q 124 91 126 90 Q 128 89 129 87 Q 113 65 90 53 Q 68 41 43 30 Q 33 44 26 59 Q 18 73 16 89 Q 18 90 21 91 Q 28 95 36 98 Q 43 101 50 104 Q 57 107 63 110 Q 69 114 74 119 Q 86 128 77 139 Q 73 145 68 148 Q 63 152 57 157 Q 52 162 46 166 Q 39 172 33 179 Q 26 185 20 192 Q 13 202 10 214 Q 6 226 7 238 Q 9 250 13 261 Q 18 273 27 281 Q 33 287 40 292 Q 47 297 54 301 Q 66 308 79 312 Q 91 317 105 321 Q 108 322 110 322 Q 111 320 112 318 Q 112 317 113 315 Z M 375 272 Q 362 273 350 274 Q 337 276 324 278 Q 309 279 294 280 Q 279 280 264 278 Q 255 277 247 275 Q 239 272 231 268 Q 213 259 213 240 Q 213 231 215 223 Q 216 215 219 207 Q 220 203 219 201 Q 212 183 210 164 Q 209 161 207 159 Q 201 156 195 154 Q 189 151 182 149 Q 181 149 180 149 Q 179 149 178 148 Q 174 155 172 162 Q 169 169 167 176 Q 161 193 158 210 Q 155 227 157 245 Q 160 278 182 299 Q 185 301 186 302 Q 197 295 207 287 Q 217 279 226 270 Q 226 271 227 271 Q 221 282 215 293 Q 209 303 203 314 Q 204 315 205 315 Q 207 316 208 317 Q 213 319 218 321 Q 223 323 228 324 Q 247 330 266 330 Q 286 331 305 328 Q 322 327 338 324 Q 354 322 370 320 L 386 317 Q 386 313 386 310 Q 386 307 386 303 Q 386 300 383 297 Q 380 294 377 292 Q 373 291 371 288 Q 373 284 375 280 Q 376 277 379 272 Z M 450 406 Q 452 394 452 382 Q 452 371 449 359 H 431 Q 395 359 360 359 Q 325 360 289 360 H 161 H 148 Q 146 375 146 390 Q 146 405 150 420 H 156 Q 177 419 197 418 Q 218 417 239 416 Q 261 415 283 414 Q 305 413 327 412 Q 330 412 333 409 Q 338 404 342 400 Q 346 395 350 391 Q 353 388 356 386 Q 359 383 362 380 Q 364 382 366 383 Q 368 385 369 386 Q 375 391 380 396 Q 385 401 390 406 Q 393 409 398 409 Q 409 408 420 408 Q 431 408 442 407 Q 445 406 450 406 Z M 231 208 Q 235 207 240 206 Q 244 204 249 203 Q 269 198 290 195 Q 311 192 332 190 Q 343 189 354 190 Q 364 190 375 194 Q 359 195 379 193 Q 387 186 394 179 Q 401 172 408 165 Q 410 164 412 162 Q 414 159 416 157 Q 415 156 414 156 Q 414 155 414 155 Q 412 154 410 152 Q 398 144 385 141 Q 372 137 358 136 Q 341 134 323 135 Q 305 135 288 137 Q 271 139 254 142 Q 238 144 220 148 Q 219 149 216 150 Q 217 165 220 180 Q 223 194 231 208 Z M 326 97 Q 328 84 331 71 Q 333 58 336 45 Q 328 45 322 45 Q 315 45 308 44 Q 305 53 303 61 Q 301 69 298 77 H 297 Q 296 69 295 61 Q 294 53 293 45 Q 291 44 279 44 Q 268 44 252 44 Q 236 43 219 43 Q 201 43 186 43 Q 171 43 160 43 Q 149 43 148 44 Q 146 59 146 74 Q 146 88 150 103 Q 195 102 238 100 Q 282 98 326 97 Z M 156 186 152 189 Q 148 194 144 198 Q 140 202 135 207 Q 128 213 120 219 Q 112 225 105 231 Q 101 234 98 237 Q 95 240 92 243 Q 91 244 90 246 Q 90 248 89 249 Q 100 255 111 260 Q 123 264 135 269 Q 134 271 134 274 Q 134 276 133 279 Q 137 281 142 282 Q 147 284 152 286 Q 150 295 148 303 Q 146 311 141 319 Q 136 318 131 316 Q 126 315 121 314 Q 121 315 121 315 Q 120 315 120 316 Q 131 322 139 329 Q 137 332 137 334 Q 136 337 135 339 Q 134 341 135 343 Q 136 346 138 348 Q 140 351 141 354 Q 143 353 147 353 H 181 Q 193 353 205 353 Q 218 353 230 353 Q 233 353 234 352 Q 235 351 236 347 Q 229 345 222 342 Q 216 339 210 335 Q 211 333 212 332 Q 212 330 213 329 Q 210 327 208 327 Q 207 327 202 330 Q 198 327 196 324 Q 193 321 189 318 Q 185 313 180 308 Q 158 289 151 259 Q 148 245 149 231 Q 149 217 152 203 Q 153 198 154 195 Q 155 191 156 187 Z M 128 346 Q 100 356 72 365 Q 44 374 15 382 Q 16 398 20 413 Q 24 429 32 442 Q 36 441 40 440 Q 43 438 47 437 Q 46 426 46 417 Q 45 407 45 396 Q 45 396 47 396 Q 51 404 56 412 Q 62 420 66 428 Q 85 420 104 412 Q 122 403 139 394 Q 140 388 140 381 Q 140 375 140 369 Q 140 367 140 366 Q 134 357 128 346 Z M 375 131 Q 384 104 392 77 Q 401 50 410 23 Q 395 16 381 12 Q 366 8 351 8 Q 345 37 340 65 Q 334 93 328 121 Q 334 124 340 126 Q 345 128 351 128 Q 356 129 361 130 Q 366 130 372 131 Q 373 130 375 131 Z M 427 169 Q 415 174 403 181 Q 391 188 379 196 Q 381 197 381 197 Q 388 201 391 206 Q 393 212 394 219 Q 395 254 381 283 Q 381 284 381 285 Q 380 286 380 287 Q 389 295 399 301 Q 409 308 420 311 Q 422 308 424 304 Q 426 301 427 298 Q 442 269 445 233 Q 445 225 445 216 Q 445 208 443 200 Q 438 182 427 169 Z M 223 221 Q 219 234 221 245 Q 222 250 224 254 Q 226 257 231 257 Q 250 256 269 256 Q 288 256 307 255 Q 321 254 335 254 Q 350 254 364 254 Q 365 254 367 253 Q 368 253 370 253 Q 371 241 370 230 Q 370 219 366 208 Q 330 211 294 215 Q 259 218 223 221 Z M 363 389 Q 351 400 341 411 Q 332 422 325 437 Q 329 439 333 442 Q 337 444 340 447 Q 347 442 354 437 Q 361 433 368 428 Q 368 428 368 429 Q 365 435 362 442 Q 358 449 355 456 Q 366 463 378 471 Q 389 478 401 485 Q 418 467 428 447 Q 411 433 395 418 Q 379 404 363 389 Z M 229 486 Q 230 485 230 485 Q 231 484 231 484 Q 240 469 249 454 Q 257 439 266 424 V 423 V 423 V 422 L 207 425 Q 202 435 197 444 Q 193 454 188 463 Q 191 466 196 469 Q 201 473 206 476 Q 212 479 218 482 Q 224 484 229 486 Z M 409 48 Q 405 60 401 72 Q 398 84 393 97 H 447 Q 449 85 449 73 Q 450 62 448 50 Q 439 49 429 48 Q 419 48 409 48 Z M 195 22 Q 196 25 196 29 Q 197 32 198 36 H 257 L 255 13 Q 240 12 223 14 Q 206 16 195 22 Z M 260 106 Q 248 107 236 107 Q 224 107 211 108 Q 212 114 213 119 Q 214 124 215 129 Q 239 131 262 124 Q 261 120 261 117 Q 261 113 261 110 Q 261 109 260 106 Z M 316 340 Q 312 336 307 337 Q 295 338 283 338 Q 271 339 258 338 Q 256 338 254 337 Q 253 337 250 337 Q 248 341 247 345 Q 246 346 245 348 Q 244 350 243 353 H 309 Q 310 349 312 346 Q 314 343 316 340 Z M 209 143 Q 213 142 216 142 Q 219 141 223 140 Q 224 136 219 136 Q 217 136 214 136 Q 211 135 209 135 Q 208 133 207 131 Q 207 128 207 126 Q 196 126 186 127 Q 176 127 165 128 Q 166 131 166 134 Q 167 137 167 141 V 154 H 167 Q 169 151 170 148 Q 172 144 173 141 Q 182 142 191 146 Q 199 149 208 152 Q 209 150 209 143 Z M 286 130 Q 295 129 304 129 Q 314 128 323 128 Q 322 126 321 125 Q 320 124 319 122 Q 311 123 303 123 Q 295 123 286 123 Z M 149 114 Q 151 113 154 113 Q 156 113 158 111 Q 149 109 149 114 Z M 376 216 Q 377 218 378 219 Q 380 219 385 217 Q 382 216 380 216 Q 378 216 376 216 Z" fill="black" />
  </g>
  <g class="defect" id="01">
    <path d="M 423 433 Q 443 438 434 442" fill="none" stroke="red" stroke-width="3" />
  </g>
  <g class="defect" id="02">
    <path d="M 375 194 Q 359 195 379 193" fill="none" stroke="red" stroke-width="3" />
  </g>
</svg>