<svg xmlns="http://www.w3.org/2000/svg" width="512" height="512" viewBox="0 0 512 512">
  <g class="glyph">
    <path d="M 486 108 Q 490 108 493 108 Q 497 108 501 109 Q 504 126 503 143 Q 502 160 498 177 Q 469 177 441 177 Q 413 176 383 177 V 185 Q 388 186 392 187 Q 396 187 401 188 V 234 Q 404 235 408 235 Q 412 235 415 235 H 430 H 444 H 460 Q 461 239 461 243 Q 462 248 463 252 H 477 Q 480 265 481 278 Q 478 280 474 281 Q 471 282 467 283 Q 465 284 465 285 Q 465 285 465 288 Q 469 288 473 288 Q 477 288 481 288 Q 483 296 482 304 Q 481 312 479 321 Q 460 323 441 324 Q 422 325 402 326 Q 403 341 403 356 Q 403 370 403 385 Q 425 385 446 384 Q 467 383 488 382 Q 489 386 490 391 Q 491 395 492 400 H 505 Q 507 404 509 413 Q 511 422 511 433 Q 512 443 512 453 Q 493 463 510 468 Q 438 476 367 481 Q 295 486 223 490 Q 222 487 221 486 Q 221 484 220 481 Q 219 479 219 477 Q 219 474 218 472 H 205 Q 202 465 201 458 Q 200 451 198 444 Q 195 448 192 452 Q 189 456 186 460 Q 171 452 156 444 Q 141 436 127 428 Q 123 443 121 456 Q 118 470 115 484 Q 109 485 102 485 Q 96 484 90 483 V 468 Q 87 468 87 469 Q 87 469 86 471 Q 85 475 84 480 Q 83 484 81 489 Q 78 487 75 486 Q 72 484 68 482 Q 67 483 67 484 Q 66 485 65 486 Q 58 484 51 481 Q 50 477 51 472 Q 52 468 51 464 Q 50 465 49 466 Q 49 467 47 468 Q 44 467 40 466 Q 37 465 32 463 Q 39 422 46 381 Q 52 341 59 300 Q 49 299 38 297 Q 28 295 18 290 Q 19 288 19 285 Q 19 282 19 279 Q 15 277 10 276 Q 5 275 0 273 Q 4 240 8 207 Q 11 175 16 141 Q 17 141 19 141 Q 21 141 23 140 Q 21 139 20 139 Q 19 138 17 137 Q 17 131 18 126 Q 19 120 20 114 Q 37 112 52 116 Q 68 120 84 127 Q 84 129 83 132 Q 83 134 83 137 L 85 138 Q 88 126 90 114 Q 91 103 93 91 Q 95 79 97 68 Q 99 56 100 44 Q 107 43 117 43 Q 128 44 139 46 Q 150 48 161 52 Q 172 56 179 61 Q 178 62 178 64 Q 178 67 178 69 Q 187 74 198 78 Q 195 88 193 99 Q 191 109 189 120 H 171 Q 175 123 179 124 Q 183 125 188 128 Q 186 134 185 139 Q 184 145 183 151 Q 183 154 182 156 Q 181 159 182 162 Q 183 164 185 165 Q 187 166 189 168 Q 199 178 210 189 Q 221 199 229 210 Q 232 213 234 217 Q 236 220 239 224 Q 236 227 234 229 Q 232 231 229 234 Q 231 235 241 235 Q 252 235 264 235 Q 277 235 288 235 Q 299 235 301 235 Q 301 233 301 226 Q 301 219 300 210 Q 300 201 299 193 Q 297 184 297 179 H 264 Q 263 175 263 172 Q 263 168 262 164 H 261 Q 260 168 259 172 Q 258 176 257 180 Q 248 181 239 181 Q 230 181 221 181 Q 219 177 218 172 Q 217 168 216 164 H 204 Q 200 158 199 147 Q 197 136 197 124 Q 197 112 198 100 Q 199 88 202 79 Q 225 79 249 79 Q 272 80 296 81 Q 290 68 284 56 Q 278 43 272 31 Q 290 17 310 10 Q 330 3 352 0 Q 353 5 355 10 Q 356 14 358 19 Q 361 19 364 18 Q 367 18 370 18 Q 372 25 374 32 Q 376 39 378 46 Q 376 50 373 51 Q 370 52 368 56 Q 368 56 369 56 Q 369 57 369 58 Q 372 57 375 56 Q 378 56 380 56 Q 383 63 385 71 Q 387 78 389 86 L 483 92 Q 484 96 484 99 Q 485 103 486 108 Z M 108 50 Q 108 52 108 55 Q 103 81 99 107 Q 94 134 90 160 Q 85 192 79 224 Q 74 255 69 288 Q 62 326 56 364 Q 69 401 44 439 Q 43 443 43 447 Q 42 451 41 455 Q 40 459 44 459 Q 49 448 53 436 Q 57 425 62 414 Q 63 414 63 415 Q 62 426 61 437 Q 59 449 58 460 Q 59 460 60 460 Q 66 439 72 418 Q 77 396 84 376 Q 83 396 82 417 Q 81 438 80 459 Q 84 459 86 460 Q 89 460 92 459 Q 109 372 127 286 Q 144 200 162 113 Q 138 104 115 95 V 94 H 166 Q 168 86 169 78 Q 170 70 172 63 Q 157 56 141 52 Q 126 49 108 50 Z M 211 465 Q 281 461 349 456 Q 417 451 486 444 Q 488 430 487 416 Q 486 403 483 390 Q 482 390 481 389 Q 480 389 479 389 Q 471 390 463 390 Q 455 390 447 391 Q 428 392 410 392 Q 391 392 373 393 Q 356 394 341 394 Q 325 394 309 394 H 215 H 209 Q 206 412 206 430 Q 206 448 211 465 Z M 477 98 Q 409 93 343 90 Q 276 86 209 85 Q 205 103 205 120 Q 205 138 209 155 Q 216 155 222 155 Q 228 154 235 154 Q 237 142 239 131 Q 241 119 242 108 Q 243 108 243 108 Q 243 108 244 109 Q 251 120 252 132 Q 252 142 253 154 Q 309 152 364 152 Q 419 152 475 153 Q 480 126 477 98 Z M 378 371 Q 395 351 377 331 Q 377 311 377 290 Q 377 267 376 244 Q 376 221 376 197 V 176 Q 358 174 341 174 Q 323 174 306 179 Q 310 231 314 283 Q 318 335 323 387 Q 337 386 350 386 Q 364 386 378 386 Z M 223 319 Q 216 301 216 282 Q 215 264 218 245 Q 206 255 194 265 Q 182 275 171 285 Q 165 280 159 275 Q 158 278 157 281 Q 157 283 157 286 Q 154 300 151 313 Q 148 326 145 340 Q 145 342 145 343 Q 146 345 148 346 Q 150 347 151 349 Q 153 350 155 351 Q 155 354 154 356 Q 156 357 157 358 Q 159 359 160 360 Q 161 359 162 358 Q 163 358 164 357 Q 165 358 167 359 Q 168 360 169 361 Q 176 366 182 371 Q 188 377 195 382 Q 197 383 198 385 Q 200 386 199 389 Q 199 389 200 390 Q 200 390 200 391 Q 203 388 204 388 Q 205 387 207 387 H 307 Q 312 387 314 386 Q 313 372 312 359 Q 311 346 310 332 Q 292 334 275 335 Q 257 336 240 337 Q 236 326 235 318 Q 232 319 229 319 Q 226 319 223 319 Z M 47 274 Q 55 238 62 203 Q 69 167 76 131 Q 64 126 52 123 Q 39 120 27 121 Q 26 123 26 126 Q 26 129 25 132 Q 34 135 41 139 Q 49 142 57 145 Q 57 146 56 146 Q 48 146 40 147 Q 32 147 23 148 Q 19 178 16 208 Q 12 238 8 268 Q 19 271 28 273 Q 38 275 47 274 Z M 226 242 Q 223 259 223 276 Q 223 294 228 311 L 308 306 Q 307 290 306 274 Q 305 258 303 242 Z M 348 7 Q 330 10 313 16 Q 297 21 282 32 Q 288 44 293 55 Q 299 67 304 78 Q 305 80 306 81 Q 308 81 309 81 L 344 82 Q 350 83 357 83 Q 363 84 370 84 Q 367 74 365 64 Q 362 55 359 46 Q 346 49 332 51 Q 319 53 306 56 Q 306 56 305 56 Q 318 49 330 41 Q 342 34 354 26 Q 352 21 350 16 Q 349 11 348 7 Z M 190 389 Q 184 383 178 378 Q 171 373 164 367 Q 162 370 160 372 Q 158 374 156 377 Q 153 379 151 383 Q 148 386 146 389 Q 144 392 141 390 Q 141 389 140 388 Q 140 388 140 386 Q 140 385 140 385 Q 140 384 140 383 Q 142 376 144 369 Q 145 362 147 354 Q 141 350 135 347 Q 130 343 124 339 Q 121 356 117 372 Q 114 388 111 404 Q 125 412 139 419 Q 152 426 166 434 Q 174 423 180 412 Q 186 401 190 389 Z M 457 277 Q 428 279 403 273 L 456 255 Q 455 252 455 248 Q 455 245 454 242 H 384 V 301 Q 402 300 420 299 Q 438 297 455 296 Q 456 291 456 287 Q 456 282 457 277 Z M 170 162 Q 166 167 163 171 Q 160 176 157 180 Q 156 181 156 182 Q 156 182 155 183 Q 152 199 149 214 Q 146 229 143 245 Q 142 247 144 250 Q 146 252 148 254 Q 150 256 152 258 Q 157 255 166 247 Q 175 239 185 231 Q 195 222 203 215 Q 210 207 211 205 Q 203 192 193 181 Q 183 170 170 162 Z" fill="black" />
  </g>
  <g class="defect" id="01">
    <path d="M 56 364 Q 69 401 44 439" fill="none" stroke="red" stroke-width="3" />
  </g>
  <g class="defect" id="02">
    <path d="M 378 371 Q 395 351 377 331" fill="none" stroke="red" stroke-width="3" />
  </g>
  <g class="defect" id="03">
    <path d="M 512 453 Q 493 463 510 468" fill="none" stroke="red" stroke-width="3" />
  </g>
</svg>