<svg xmlns="http://www.w3.org/2000/svg" width="512" height="512" viewBox="0 0 512 512">
  <g class="glyph">
    <path d="M 67 463 Q 66 464 64 467 Q 60 466 56 465 Q 53 463 49 462 Q 49 457 50 453 Q 51 450 50 445 Q 49 447 48 448 Q 48 449 46 450 Q 43 449 39 447 Q 36 446 31 444 Q 38 404 44 364 Q 51 324 58 284 Q 48 283 37 281 Q 27 279 18 275 Q 18 272 18 269 Q 18 266 19 264 Q 14 262 9 261 Q 4 259 0 258 Q 4 225 8 193 Q 11 161 15 128 Q 17 128 19 128 Q 20 127 23 127 Q 20 126 19 125 Q 18 125 16 124 Q 17 118 17 112 Q 18 107 19 102 Q 24 100 33 100 Q 41 101 50 103 Q 60 104 68 108 Q 77 111 82 114 Q 82 117 80 121 Q 80 124 84 124 Q 88 101 91 78 Q 95 55 99 32 Q 106 31 115 31 Q 125 31 136 33 Q 147 36 158 39 Q 168 43 176 48 Q 176 50 175 52 Q 175 54 174 56 Q 179 59 184 60 Q 189 62 194 65 Q 191 75 190 86 Q 188 96 185 107 H 169 V 107 Q 173 109 177 110 Q 181 112 185 114 Q 183 122 182 130 Q 180 138 178 147 Q 182 150 185 153 Q 188 155 191 158 Q 191 159 194 159 Q 212 159 228 158 Q 245 158 263 158 Q 263 158 264 157 V 152 Q 256 152 248 152 Q 241 153 233 154 L 228 136 Q 225 136 222 136 Q 219 136 216 136 Q 208 115 208 95 Q 208 74 213 53 H 258 Q 258 40 257 29 Q 257 18 256 7 Q 277 0 298 0 Q 318 0 340 4 V 19 Q 344 20 348 20 Q 353 21 357 22 V 51 Q 358 51 359 52 Q 360 52 362 53 V 69 Q 364 70 365 69 Q 365 68 366 67 Q 368 63 369 60 Q 370 56 371 52 H 394 Q 395 56 396 60 Q 397 65 398 69 H 411 Q 412 72 412 74 Q 413 76 414 79 Q 422 71 429 64 Q 437 57 445 50 Q 447 51 451 54 Q 455 58 460 62 Q 464 66 469 70 Q 474 74 478 79 Q 483 84 487 88 Q 501 104 510 121 Q 512 124 512 125 Q 504 132 496 139 Q 487 146 480 152 Q 481 157 482 162 Q 483 166 484 171 H 498 Q 499 176 499 180 Q 500 184 501 188 Q 499 189 497 190 Q 494 191 492 192 Q 491 193 488 194 Q 486 195 485 198 H 494 H 502 Q 503 208 503 218 Q 503 228 501 238 Q 491 239 481 240 Q 470 241 460 241 Q 462 246 463 249 Q 464 253 465 258 Q 468 258 470 257 Q 473 257 476 257 Q 480 263 482 274 Q 485 284 485 296 Q 486 307 486 319 Q 485 331 483 340 Q 475 340 467 341 Q 459 341 450 341 Q 452 343 456 345 Q 469 359 483 373 Q 485 375 486 376 Q 485 377 484 379 Q 482 380 481 381 Q 484 381 484 381 Q 487 380 489 382 Q 490 383 491 386 Q 502 409 498 434 Q 495 447 490 459 Q 485 470 479 482 Q 475 490 470 497 Q 465 505 459 512 Q 453 511 446 507 Q 439 503 434 499 Q 435 497 437 493 Q 435 492 433 491 Q 431 491 429 490 Q 428 491 427 491 Q 426 492 425 493 Q 419 488 414 484 Q 409 480 405 475 Q 400 469 395 465 Q 391 461 386 456 Q 389 452 391 449 Q 393 445 395 441 Q 397 438 399 434 Q 400 431 403 427 Q 400 426 395 427 Q 383 430 371 432 Q 358 435 346 438 Q 339 439 333 440 Q 327 441 319 441 Q 319 437 321 433 Q 322 429 323 424 L 320 427 Q 315 432 310 439 Q 306 442 302 441 Q 291 439 281 433 Q 272 428 265 418 Q 264 417 263 416 Q 262 415 261 414 Q 250 406 244 396 Q 238 385 236 373 Q 236 369 236 365 Q 236 360 235 356 Q 230 360 225 364 Q 220 368 216 372 Q 213 369 210 367 Q 206 364 203 362 Q 197 355 190 349 Q 184 342 178 335 Q 172 329 167 322 Q 162 316 158 307 Q 172 295 185 283 Q 199 270 213 258 Q 212 253 211 249 Q 210 245 209 241 Q 205 241 202 241 Q 198 242 195 245 Q 189 251 182 257 Q 175 262 168 268 L 156 258 Q 156 260 155 261 Q 155 263 155 265 Q 152 279 149 293 Q 146 307 143 321 Q 142 326 146 328 Q 148 329 149 331 Q 151 332 153 333 V 338 Q 154 339 155 340 Q 156 341 158 342 Q 159 341 160 341 Q 161 340 162 339 Q 166 343 171 346 Q 176 350 180 353 Q 183 356 186 359 Q 189 361 193 364 Q 194 365 196 366 Q 197 367 197 370 Q 197 371 198 371 Q 199 372 200 373 Q 203 376 206 379 Q 210 382 214 385 Q 210 401 202 415 Q 194 428 184 441 Q 170 433 155 426 Q 141 418 126 410 Q 123 424 120 438 Q 117 451 114 465 Q 108 466 102 465 Q 96 464 90 463 V 449 Q 88 447 87 449 Q 87 450 86 451 Q 85 455 84 459 Q 83 462 82 467 Q 82 467 82 468 Q 82 468 81 469 Q 77 468 73 467 Q 70 466 67 463 Z M 106 38 Q 105 42 105 43 Q 101 65 98 86 Q 94 108 90 130 Q 66 170 77 208 Q 71 247 65 286 Q 59 321 53 354 Q 48 387 42 422 Q 41 426 41 430 Q 40 433 39 437 Q 38 441 43 441 Q 47 430 51 419 Q 55 408 60 397 Q 60 397 61 398 Q 60 409 59 420 Q 58 431 57 442 Q 63 422 69 402 Q 74 382 80 362 H 82 Q 61 382 80 402 Q 79 421 78 441 Q 80 441 83 442 Q 86 442 89 442 Q 107 356 124 272 Q 141 187 158 101 Q 146 97 135 92 Q 123 88 112 84 V 83 Q 112 83 112 82 H 162 Q 164 74 165 67 Q 167 60 168 52 Q 153 45 138 41 Q 123 38 106 38 Z M 166 310 Q 168 315 173 321 Q 177 326 181 331 Q 185 336 190 341 Q 194 345 197 346 Q 270 286 341 226 Q 412 167 485 106 Q 477 92 467 81 Q 458 69 445 60 Q 445 61 444 61 H 444 Q 433 71 421 81 Q 410 91 399 101 Q 397 103 397 107 Q 396 110 396 113 Q 395 117 395 120 Q 392 120 389 121 Q 386 121 382 121 Q 379 121 376 123 Q 373 124 370 127 Q 326 167 281 207 Q 237 247 192 287 Q 186 293 179 299 Q 173 304 166 310 Z M 406 467 Q 411 462 416 457 Q 421 452 426 447 Q 430 443 434 438 Q 439 433 444 429 Q 436 456 425 481 Q 428 482 431 484 Q 434 486 438 488 Q 439 486 439 486 Q 447 474 454 462 Q 461 450 467 438 Q 471 427 473 415 Q 475 404 473 392 Q 472 387 470 382 Q 469 377 467 373 Q 459 374 452 375 Q 444 375 437 376 V 376 Q 441 371 447 368 Q 452 364 457 360 Q 451 353 444 349 Q 437 345 429 342 Q 411 338 392 341 Q 375 344 359 346 Q 342 348 327 351 Q 324 351 321 351 Q 318 352 316 352 Q 312 353 310 350 Q 309 348 310 345 Q 313 336 316 328 Q 319 320 323 311 Q 324 309 325 307 Q 326 305 327 303 Q 326 301 326 301 Q 308 290 288 283 Q 286 282 285 283 Q 283 284 282 285 Q 276 290 270 295 Q 264 300 258 305 Q 252 311 250 313 Q 249 315 247 323 Q 243 336 242 349 Q 241 362 243 374 Q 246 391 255 402 Q 264 412 281 417 Q 285 418 288 415 Q 300 400 312 387 Q 315 382 317 380 Q 318 380 318 380 Q 318 381 318 381 Q 316 390 314 399 Q 312 408 310 417 H 314 L 385 403 Q 390 402 395 401 Q 400 400 406 399 Q 417 398 416 409 Q 416 411 415 415 Q 412 421 410 428 Q 407 434 404 440 Q 402 445 399 448 Q 397 452 394 456 Q 397 459 400 462 Q 403 464 406 467 Z M 389 114 Q 393 87 387 60 H 375 Q 367 86 352 109 Q 353 97 354 85 Q 354 73 353 60 H 218 Q 217 67 216 77 Q 215 86 215 96 Q 216 106 217 115 Q 218 124 221 129 Q 263 125 305 121 Q 347 117 389 114 Z M 327 321 Q 361 319 393 319 Q 426 318 458 317 Q 461 300 460 283 Q 459 265 453 249 H 450 Q 442 250 434 251 Q 427 251 419 252 Q 392 255 365 258 Q 338 261 311 264 Q 309 264 306 265 Q 299 270 293 277 L 316 287 Q 327 293 336 300 Q 334 305 332 310 Q 330 315 327 321 Z M 22 135 Q 19 165 15 194 Q 11 223 8 253 Q 18 255 27 257 Q 36 259 46 259 Q 54 223 61 189 Q 68 154 75 119 Q 71 117 64 114 Q 57 112 50 110 Q 42 108 36 108 Q 29 108 26 109 Q 26 112 25 114 Q 25 117 25 119 Q 32 123 40 126 Q 48 129 56 133 Q 47 133 39 134 Q 31 135 22 135 Z M 201 235 Q 211 234 221 234 Q 230 234 240 232 Q 241 232 242 232 Q 243 231 245 230 Q 262 214 279 199 Q 296 183 314 167 L 317 164 Q 301 165 287 165 Q 272 165 258 165 Q 243 166 229 166 Q 214 166 199 166 Q 204 173 209 179 Q 213 185 217 192 Q 216 193 214 194 Q 213 195 212 196 Q 209 200 205 203 Q 202 206 199 209 Q 196 211 196 213 Q 197 219 198 224 Q 199 230 201 235 Z M 474 162 Q 473 162 472 162 Q 462 162 452 162 Q 442 162 432 162 Q 428 162 427 165 Q 410 179 393 193 Q 376 207 359 222 Q 358 222 357 224 Q 388 222 417 220 Q 446 218 477 215 Q 478 208 478 202 Q 478 195 478 189 Q 466 188 454 188 Q 442 189 430 188 V 187 Q 441 182 453 177 Q 464 172 475 168 Q 474 165 474 162 Z M 161 350 Q 160 352 158 354 Q 156 356 155 357 Q 152 360 149 364 Q 146 367 143 371 Q 141 374 138 373 Q 136 372 137 368 Q 137 366 137 365 Q 137 363 138 362 Q 139 356 141 350 Q 142 344 144 338 Q 138 333 133 330 Q 127 326 121 322 Q 118 339 115 354 Q 112 370 108 386 Q 123 394 136 401 Q 149 408 164 415 Q 178 397 187 371 Q 181 365 174 360 Q 167 356 161 350 Z M 150 242 Q 165 230 179 217 Q 194 205 207 191 Q 205 186 199 179 Q 194 172 188 166 Q 182 160 176 156 Q 170 151 166 150 Q 163 154 160 158 Q 156 161 154 166 Q 153 167 153 168 Q 153 168 152 170 Q 149 183 147 196 Q 144 209 141 223 Q 140 227 140 230 Q 139 232 140 234 Q 141 236 143 238 Q 145 240 148 242 Q 148 242 150 242 Z M 262 13 Q 263 23 264 33 Q 264 43 264 53 H 330 Q 331 42 331 32 Q 331 22 331 11 Q 313 8 296 8 Q 280 8 262 13 Z M 329 126 Q 313 127 299 129 Q 284 130 269 132 Q 269 139 270 145 Q 270 152 271 158 H 303 Q 308 158 313 158 Q 318 158 323 157 Q 326 157 327 156 Q 328 155 328 153 Q 328 148 328 145 Q 328 141 328 137 Q 329 135 329 132 Q 329 129 329 126 Z" fill="black" />
  </g>
  <g class="defect" id="01">
    <path d="M 90 130 Q 66 170 77 208" fill="none" stroke="red" stroke-width="3" />
  </g>
  <g class="defect" id="02">
    <path d="M 82 362 Q 61 382 80 402" fill="none" stroke="red" stroke-width="3" />
  </g>
</svg>