<svg xmlns="http://www.w3.org/2000/svg" width="512" height="512" viewBox="0 0 512 512">
  <g class="glyph">
    <path d="M 510 162 Q 510 163 510 163 Q 510 164 510 164 Q 509 180 504 194 Q 500 209 494 223 L 487 236 Q 486 238 486 243 Q 491 268 486 294 Q 486 295 486 296 Q 486 297 486 298 Q 478 298 472 298 Q 465 298 459 299 Q 454 299 453 299 Q 452 299 451 300 Q 451 300 450 301 Q 447 300 444 300 Q 424 301 403 302 Q 382 302 361 303 Q 360 303 357 304 Q 361 307 365 307 Q 369 308 373 309 Q 387 310 400 309 Q 413 308 427 306 Q 433 305 439 304 Q 444 302 450 301 Q 452 299 453 302 Q 443 307 457 310 Q 459 314 460 318 Q 460 318 461 320 Q 464 320 466 319 Q 468 319 470 318 Q 475 326 478 336 Q 478 340 477 341 L 472 344 Q 468 347 470 350 Q 473 350 476 349 Q 479 348 482 347 Q 485 355 486 362 Q 488 370 488 378 Q 483 380 478 381 Q 474 382 469 384 Q 431 394 394 393 Q 379 393 364 390 Q 349 387 336 381 Q 329 377 322 372 Q 316 368 310 362 Q 309 361 308 361 Q 308 360 307 360 Q 307 361 308 362 Q 308 363 308 364 Q 318 378 330 388 Q 343 398 358 406 Q 365 409 372 412 Q 380 415 387 418 Q 390 419 392 420 Q 392 423 392 425 Q 392 427 391 430 Q 396 432 400 433 Q 405 435 410 437 Q 410 442 409 445 Q 408 450 407 455 Q 407 460 405 465 Q 405 468 401 468 Q 397 468 393 468 Q 389 468 385 469 Q 384 469 383 469 Q 381 469 380 470 Q 385 474 390 476 Q 395 478 400 481 Q 398 487 395 492 Q 393 498 390 504 Q 383 501 376 499 Q 369 497 363 495 Q 338 486 317 472 Q 296 459 277 441 Q 267 431 257 421 Q 248 411 238 400 Q 219 377 205 352 Q 191 326 181 298 Q 180 294 179 292 Q 179 293 178 291 Q 177 337 176 382 Q 176 426 175 471 Q 172 473 165 474 Q 157 475 149 475 Q 141 476 133 475 Q 125 475 119 473 Q 119 469 118 466 Q 118 463 118 458 Q 114 457 110 457 Q 106 457 102 456 Q 101 444 100 432 Q 100 420 99 409 H 98 Q 96 426 93 444 Q 91 461 88 480 Q 82 481 76 480 Q 70 480 64 480 Q 65 476 65 472 Q 65 468 65 464 H 64 Q 63 467 62 470 Q 62 474 60 477 Q 55 476 51 474 Q 46 473 42 471 Q 42 468 43 465 Q 43 462 43 459 H 42 Q 39 463 38 467 Q 37 471 34 475 Q 30 474 26 473 Q 23 472 18 471 Q 19 467 19 463 Q 19 458 20 454 H 19 Q 18 455 17 456 Q 17 457 16 458 Q 12 457 8 456 Q 4 455 0 454 Q 8 372 17 293 Q 26 213 36 132 Q 35 133 33 133 Q 32 133 31 133 Q 23 118 18 101 Q 14 85 13 67 Q 54 54 94 41 Q 133 27 175 15 Q 177 19 179 24 H 179 Q 179 21 179 19 Q 180 16 180 14 Q 201 7 222 0 Q 225 5 228 10 Q 231 14 233 19 Q 238 18 240 18 Q 247 28 251 39 Q 255 49 259 61 Q 261 60 264 59 Q 266 59 268 58 Q 286 52 305 48 Q 323 43 342 41 Q 357 39 371 38 Q 385 38 399 40 Q 417 42 433 48 Q 449 53 463 66 Q 470 72 476 78 Q 483 85 489 91 Q 492 94 494 98 Q 497 102 499 105 Q 498 109 495 110 Q 491 112 492 116 Q 494 115 497 114 Q 499 113 502 112 Q 505 119 508 126 Q 510 133 510 141 Q 511 142 511 144 Q 511 146 512 148 Q 511 151 511 154 Q 510 158 510 162 Z M 326 438 Q 340 440 352 441 Q 365 443 379 442 Q 380 437 381 433 Q 382 428 382 424 Q 382 424 381 423 Q 381 423 381 422 Q 377 421 375 420 Q 361 415 348 408 Q 335 401 322 391 Q 302 375 287 354 Q 272 334 261 310 Q 247 279 241 247 Q 235 215 233 181 V 162 Q 216 158 199 157 Q 181 157 164 161 V 165 Q 164 181 166 197 Q 167 213 170 229 Q 175 258 184 287 Q 193 315 208 342 Q 231 385 263 417 Q 296 448 341 466 Q 347 469 354 471 Q 360 473 367 475 Q 368 472 369 470 Q 370 468 372 465 Q 359 459 348 453 Q 337 446 326 438 Z M 43 130 Q 43 133 41 148 Q 39 164 36 186 Q 34 209 30 236 Q 27 264 24 293 Q 20 321 17 349 Q 14 376 12 397 Q 10 419 9 432 Q 7 446 8 447 Q 10 448 10 447 Q 11 447 13 444 Q 18 433 22 421 Q 27 410 32 399 Q 32 398 33 397 Q 34 397 34 396 Q 35 409 34 422 Q 33 435 30 448 Q 31 448 33 448 Q 34 448 36 448 Q 39 432 43 416 Q 47 400 51 385 Q 55 386 58 386 Q 57 403 55 420 Q 53 437 52 454 Q 54 454 57 453 Q 59 453 61 453 Q 73 371 86 290 Q 99 209 114 127 Q 109 125 105 124 Q 101 123 96 121 Q 90 120 85 119 Q 80 119 74 121 Q 71 122 70 122 Q 63 124 57 126 Q 50 128 43 130 Z M 480 102 Q 466 107 453 112 Q 439 117 426 122 Q 426 121 426 121 Q 437 112 448 103 Q 460 94 471 85 Q 470 83 468 81 Q 467 79 465 77 Q 457 68 446 61 Q 436 55 423 51 Q 410 46 396 45 Q 383 43 369 44 Q 346 46 323 50 Q 300 54 277 62 L 256 68 Q 259 86 265 102 Q 271 119 281 134 Q 286 132 289 131 Q 293 129 296 128 Q 316 120 337 115 Q 358 110 380 109 Q 388 109 396 110 Q 404 110 413 114 Q 424 119 426 131 Q 426 135 427 139 Q 427 143 426 147 Q 426 154 425 161 Q 423 168 420 175 Q 418 183 413 191 Q 409 199 404 207 Q 408 212 410 214 Q 413 217 418 217 Q 425 217 432 218 Q 439 218 447 218 H 463 Q 463 217 465 214 Q 476 192 483 165 Q 486 152 486 139 Q 487 126 483 114 Q 482 110 482 108 Q 481 105 480 102 Z M 266 200 Q 265 204 265 208 Q 264 233 265 259 Q 266 271 269 282 Q 271 294 275 305 Q 290 342 325 358 Q 338 364 352 366 Q 366 368 380 368 Q 400 368 420 365 Q 439 361 458 355 Q 459 355 460 355 Q 461 354 463 354 Q 461 349 461 346 Q 460 342 459 338 Q 444 342 431 345 Q 418 348 404 349 Q 416 341 428 333 Q 439 325 452 317 Q 450 314 450 312 Q 449 310 448 308 Q 446 309 445 309 Q 443 309 442 309 Q 428 313 414 315 Q 400 316 386 316 Q 370 316 354 311 Q 332 304 327 284 Q 325 277 325 270 Q 324 263 324 256 Q 322 235 325 215 Q 327 195 332 175 Q 333 171 334 168 Q 335 165 336 161 Q 321 154 307 149 Q 292 144 276 144 Q 274 152 272 160 Q 271 168 270 176 Q 276 177 282 179 Q 288 181 294 182 Q 300 183 306 185 Q 311 186 318 187 Q 304 190 292 192 Q 279 194 266 200 Z M 20 71 Q 20 76 21 83 Q 23 91 25 98 Q 27 106 29 113 Q 32 120 35 124 Q 86 111 136 99 Q 187 87 238 74 Q 237 56 232 39 Q 228 23 219 7 Q 210 9 202 12 Q 194 15 186 18 V 46 Q 181 47 179 46 Q 177 44 176 41 Q 174 36 173 32 Q 171 27 170 23 Q 132 35 95 47 Q 58 59 20 71 Z M 154 179 Q 143 176 133 176 Q 123 175 113 176 Q 110 189 108 202 Q 106 216 104 229 Q 103 237 101 245 Q 100 254 101 263 Q 102 285 102 307 Q 102 330 103 352 Q 104 371 104 391 Q 104 410 105 430 Q 106 435 106 439 Q 106 444 107 448 Q 118 449 128 449 Q 138 449 149 447 Q 149 313 154 179 Z M 460 225 Q 459 225 449 224 Q 439 224 425 223 Q 411 222 395 222 Q 379 221 365 221 Q 352 221 342 221 Q 332 221 331 221 Q 330 235 330 250 Q 330 264 333 279 Q 366 277 397 276 Q 429 274 461 272 Q 465 247 460 225 Z M 156 156 Q 164 153 176 151 Q 188 150 200 150 Q 212 151 222 152 Q 233 154 241 157 V 170 Q 245 171 249 171 Q 254 172 258 173 V 196 Q 263 192 268 191 Q 273 190 279 187 Q 274 186 270 184 Q 265 182 261 181 Q 264 158 270 138 Q 271 137 272 137 Q 273 137 274 137 Q 269 127 265 118 Q 260 109 255 99 Q 224 107 192 114 Q 160 122 129 130 Q 127 130 125 131 Q 123 131 121 132 Q 121 132 121 132 V 133 Q 125 136 130 137 Q 135 138 140 141 Q 138 148 137 154 Q 136 161 135 168 Q 140 169 145 170 Q 150 170 155 171 Q 156 167 156 164 Q 156 160 156 156 Z M 350 214 Q 360 214 369 214 Q 379 214 388 215 Q 389 190 391 166 Q 393 141 394 116 Q 382 115 371 117 Q 359 118 348 120 Q 349 143 349 166 Q 350 190 350 214 Z M 326 150 Q 330 152 333 153 Q 337 155 342 157 V 144 Q 337 145 334 146 Q 330 147 326 148 Z" fill="black" />
  </g>
  <g class="defect" id="01">
    <path d="M 453 302 Q 443 307 457 310" fill="none" stroke="red" stroke-width="3" />
  </g>
</svg>