<svg xmlns="http://www.w3.org/2000/svg" width="512" height="512" viewBox="0 0 512 512">
  <g class="glyph">
    <path d="M 230 378 Q 229 373 229 369 Q 229 365 228 361 Q 226 359 225 362 Q 224 365 223 367 Q 223 369 221 371 Q 220 376 219 378 H 166 Q 167 379 168 380 Q 170 381 171 382 Q 156 416 139 448 Q 123 480 104 512 Q 86 508 71 500 Q 55 492 41 482 Q 41 480 41 479 Q 41 478 42 477 Q 37 473 32 470 Q 27 466 22 463 Q 30 441 39 420 Q 47 398 55 376 Q 50 374 47 375 Q 43 376 39 376 Q 35 376 31 375 Q 28 375 24 375 Q 23 370 22 366 Q 22 362 21 357 Q 17 357 13 357 Q 10 357 6 357 Q 0 334 2 313 Q 3 291 10 269 Q 79 273 147 278 Q 216 282 285 287 Q 284 277 284 268 Q 284 260 283 251 H 279 Q 260 254 242 257 Q 224 259 206 261 Q 193 263 180 264 Q 166 265 153 264 Q 138 263 123 260 Q 108 257 95 249 Q 91 247 86 244 Q 82 241 78 236 Q 78 235 79 232 Q 68 227 59 218 Q 61 215 59 212 Q 58 209 57 207 Q 55 208 53 208 Q 52 209 51 209 Q 50 209 49 208 Q 49 208 48 207 Q 35 190 32 166 Q 29 151 30 136 Q 43 136 33 107 Q 38 66 53 26 Q 53 25 53 24 Q 54 23 54 22 Q 64 22 76 25 Q 87 28 99 33 Q 110 37 120 43 Q 130 49 136 53 Q 135 57 134 59 L 155 71 Q 146 94 139 118 Q 132 141 132 167 Q 142 170 153 168 Q 170 167 186 166 Q 201 166 218 164 Q 231 163 244 161 Q 257 159 271 158 Q 272 158 276 156 Q 273 119 271 83 Q 269 47 266 9 Q 273 5 285 3 Q 297 1 310 1 Q 322 0 334 1 Q 346 2 354 5 Q 354 8 354 12 Q 354 15 355 19 Q 360 20 364 21 Q 368 21 373 22 Q 373 30 374 39 Q 374 47 374 56 Q 370 58 366 61 Q 362 63 358 66 V 67 Q 362 67 366 67 Q 370 67 374 68 Q 378 176 380 283 Q 382 389 388 497 Q 384 499 376 501 Q 368 503 361 503 Q 361 501 361 499 Q 361 497 361 494 Q 361 490 360 485 Q 359 487 359 490 Q 359 492 358 495 Q 354 495 349 496 Q 344 497 340 498 Q 338 502 337 506 Q 333 506 328 505 Q 322 505 317 505 Q 316 501 316 496 Q 316 492 315 488 Q 311 487 307 487 Q 303 487 299 486 Q 295 459 294 433 Q 292 407 289 380 Q 294 366 260 379 Q 245 378 230 378 Z M 362 469 Q 362 462 362 457 Q 362 451 361 445 Q 360 422 360 400 Q 359 377 358 354 Q 357 334 357 315 Q 357 296 356 276 Q 355 256 355 237 Q 354 217 353 197 Q 353 178 352 157 Q 352 137 351 117 Q 350 103 350 89 Q 350 75 350 61 Q 350 58 349 56 Q 340 55 331 55 Q 322 55 313 54 Q 315 53 316 53 Q 317 52 319 51 Q 325 46 332 43 Q 338 39 345 35 Q 346 34 347 33 Q 348 33 348 30 Q 348 25 348 20 Q 348 15 348 9 Q 329 6 311 7 Q 293 7 275 13 Q 276 21 276 29 Q 276 37 277 45 Q 279 64 280 83 Q 281 102 282 120 Q 283 136 284 151 Q 285 167 286 182 Q 287 206 289 230 Q 291 255 292 279 Q 293 299 295 318 Q 296 337 297 357 Q 299 384 301 410 Q 303 436 305 462 Q 305 466 306 470 Q 306 474 307 478 H 314 Q 315 475 315 472 Q 315 469 316 466 Q 316 463 317 460 Q 317 457 317 454 Q 317 451 317 448 Q 317 445 318 442 H 320 Q 321 449 324 456 Q 326 463 329 470 Q 330 469 331 469 Q 332 469 334 469 Q 336 446 336 424 Q 337 402 338 380 H 346 Q 346 392 347 404 Q 348 416 349 428 Q 350 440 350 451 Q 350 463 351 475 Q 354 474 357 474 Q 360 474 362 473 Z M 94 174 Q 88 184 82 195 Q 75 205 69 216 Q 70 217 72 218 Q 74 219 75 220 Q 90 229 108 234 Q 123 237 138 238 Q 152 239 167 237 Q 216 233 266 224 Q 269 223 273 222 Q 277 221 282 221 Q 281 206 280 192 Q 279 178 278 163 Q 272 164 270 164 Q 258 166 246 167 Q 235 168 223 170 Q 211 171 198 172 Q 186 173 173 174 Q 163 175 154 174 Q 144 174 134 173 Q 130 172 125 171 Q 120 170 116 168 Q 108 164 108 156 Q 107 147 108 137 Q 108 128 110 118 Q 112 103 116 89 Q 120 74 126 59 Q 127 58 127 57 Q 127 56 128 54 Q 123 51 116 47 Q 109 43 101 39 Q 93 36 85 33 Q 77 31 71 30 L 61 28 Q 58 35 56 41 Q 54 47 53 54 Q 46 76 42 98 Q 38 121 39 145 Q 40 156 41 166 Q 59 177 47 187 L 54 199 Q 64 192 74 186 Q 83 180 93 174 Z M 286 293 Q 217 289 151 285 Q 84 281 16 277 Q 11 295 10 313 Q 9 331 13 349 H 64 Q 66 345 67 340 Q 69 336 71 331 H 75 Q 102 334 128 348 Q 131 349 134 350 Q 136 350 139 350 Q 152 350 165 350 Q 179 350 192 351 H 196 Q 200 339 204 327 Q 208 315 212 303 H 213 Q 215 315 216 327 Q 217 338 219 351 Q 237 352 254 352 Q 272 352 289 352 Q 288 338 288 323 Q 287 309 286 293 Z M 32 461 Q 55 477 82 485 Q 99 456 114 426 Q 128 397 143 366 Q 127 356 111 349 Q 94 342 76 339 Q 65 370 54 400 Q 43 430 32 461 Z" fill="black" />
  </g>
  <g class="defect" id="01">
    <path d="M 30 136 Q 43 136 33 107" fill="none" stroke="red" stroke-width="3" />
  </g>
  <g class="defect" id="02">
    <path d="M 41 166 Q 59 177 47 187" fill="none" stroke="red" stroke-width="3" />
  </g>
  <g class="defect" id="03">
    <path d="M 289 380 Q 294 366 260 379" fill="none" stroke="red" stroke-width="3" />
  </g>
</svg>