<svg xmlns="http://www.w3.org/2000/svg" width="512" height="512" viewBox="0 0 512 512">
  <g class="glyph">
    <path d="M 93 112 Q 92 114 92 117 Q 92 119 92 121 Q 92 123 92 123 Q 92 123 95 125 Q 95 114 94 104 Q 94 94 94 84 Q 94 73 94 63 Q 94 53 93 43 Q 100 40 110 38 Q 121 37 134 37 Q 146 37 158 38 Q 169 40 177 43 V 56 Q 182 57 187 58 Q 191 59 195 60 V 93 Q 192 94 189 95 Q 186 96 183 97 V 98 Q 186 98 189 98 Q 192 98 195 99 V 146 Q 198 146 201 146 Q 204 146 209 145 L 213 163 H 226 Q 227 165 228 168 Q 231 164 232 160 Q 233 156 234 152 Q 235 148 237 145 Q 221 126 240 137 Q 241 133 242 129 Q 243 125 245 121 Q 246 117 247 113 Q 249 109 250 105 Q 252 101 254 97 Q 255 93 256 89 Q 257 85 259 81 Q 260 77 262 73 Q 263 69 265 65 Q 266 61 268 57 H 292 Q 290 54 287 53 Q 285 52 282 51 Q 279 49 277 48 Q 275 47 272 45 Q 276 34 280 23 Q 285 12 289 0 Q 311 3 330 12 Q 349 21 367 34 Q 367 35 366 35 Q 366 36 366 36 Q 366 37 365 38 Q 374 45 385 52 Q 381 59 378 66 Q 363 89 371 80 Q 374 81 375 81 Q 376 81 378 81 Q 398 82 418 83 Q 438 83 458 84 H 462 Q 464 88 464 92 Q 464 96 465 101 Q 469 101 472 101 Q 476 102 480 102 Q 484 123 482 144 Q 481 165 474 186 Q 439 182 403 177 Q 368 173 333 169 Q 323 194 313 218 Q 303 243 294 268 Q 290 267 287 267 Q 283 267 280 266 Q 268 263 256 259 Q 244 255 233 249 Q 230 247 227 248 Q 222 248 218 248 Q 214 248 210 247 H 194 Q 193 257 193 266 Q 193 275 194 284 Q 198 282 203 282 Q 205 286 208 291 Q 211 296 214 301 Q 216 300 217 300 Q 218 300 220 299 Q 223 303 225 307 Q 227 311 230 316 Q 245 289 266 269 Q 278 278 291 287 Q 303 295 316 304 Q 330 274 342 243 Q 354 212 366 180 Q 373 179 383 182 Q 394 184 405 188 Q 416 193 427 198 Q 437 204 444 210 Q 444 212 443 215 Q 448 218 453 221 Q 458 224 463 227 Q 458 237 454 247 Q 450 257 445 267 Q 421 254 435 269 Q 438 270 440 271 Q 441 271 443 272 Q 433 295 422 318 Q 411 340 400 363 Q 416 374 432 385 Q 448 396 464 407 Q 463 408 463 409 Q 463 410 463 411 Q 467 415 472 418 Q 477 421 482 425 Q 469 457 444 483 Q 424 470 404 459 Q 384 447 364 434 Q 352 454 341 473 Q 330 492 319 512 Q 311 510 305 507 Q 299 505 292 501 Q 293 499 294 497 Q 295 496 296 493 Q 294 492 292 492 Q 290 491 287 490 Q 284 493 282 495 Q 271 489 260 480 Q 260 478 260 477 Q 260 476 259 475 Q 255 472 250 468 Q 246 465 241 461 Q 251 442 261 423 Q 270 404 280 385 Q 279 384 278 384 Q 278 383 277 383 Q 269 378 262 374 Q 255 370 248 366 Q 245 364 243 365 Q 230 370 219 375 Q 208 379 196 385 Q 196 385 194 386 Q 195 410 195 433 Q 195 457 195 481 Q 189 482 184 483 Q 179 484 174 485 Q 173 482 173 480 Q 172 477 172 475 Q 170 483 170 491 Q 169 499 168 507 Q 164 507 161 507 Q 158 506 154 506 Q 153 502 153 498 Q 153 495 152 491 Q 151 493 149 494 Q 147 494 145 494 Q 142 494 138 494 Q 135 493 131 493 Q 128 493 128 489 V 477 Q 124 476 120 476 Q 116 476 112 475 Q 111 461 110 447 Q 110 433 108 419 Q 105 420 103 420 Q 101 421 98 422 Q 96 419 94 416 Q 93 413 91 409 H 90 V 425 Q 84 427 77 430 Q 70 432 63 435 Q 60 431 57 425 Q 54 420 52 415 Q 50 416 49 416 Q 47 416 45 417 Q 40 412 36 402 Q 31 391 27 379 Q 24 367 22 355 Q 20 343 21 336 Q 41 330 61 324 Q 82 319 103 313 Q 102 296 102 279 Q 101 263 100 246 Q 96 246 94 245 L 85 303 Q 52 306 18 297 V 284 Q 14 283 9 282 Q 5 280 0 279 Q 3 235 6 192 Q 9 148 12 105 Q 28 102 45 103 V 121 Q 49 120 49 118 Q 49 115 51 113 Q 53 110 54 104 Q 63 104 73 106 Q 82 109 93 112 Z M 101 47 Q 102 113 104 178 Q 106 243 109 309 Q 124 304 139 300 Q 154 296 168 292 Q 169 240 169 189 Q 169 139 170 87 Q 158 86 146 86 Q 135 86 123 85 V 84 Q 135 80 146 77 Q 158 73 170 69 V 47 Q 152 44 135 44 Q 118 43 101 47 Z M 454 408 Q 406 375 359 343 Q 312 310 266 278 Q 253 291 243 305 Q 233 319 227 336 Q 277 366 326 395 Q 375 424 424 454 Q 427 452 432 446 Q 436 440 441 433 Q 445 427 449 420 Q 452 413 454 408 Z M 281 41 Q 293 48 305 55 Q 318 62 330 69 Q 316 67 301 65 Q 287 63 272 63 Q 258 103 244 143 Q 231 183 219 225 Q 232 230 244 235 Q 257 239 271 241 Q 290 188 312 137 Q 333 86 357 36 Q 351 31 342 26 Q 333 20 324 16 Q 315 12 306 10 Q 298 7 293 8 Q 290 16 287 24 Q 284 32 281 41 Z M 62 359 Q 63 359 63 359 Q 68 367 73 376 Q 78 384 82 393 Q 117 381 150 367 Q 184 354 217 340 Q 217 336 215 328 Q 213 321 210 313 Q 208 306 204 299 Q 201 293 198 290 Q 113 317 27 339 Q 27 346 29 356 Q 31 366 34 375 Q 37 385 40 393 Q 44 401 48 406 Q 52 404 56 403 Q 60 401 64 400 Q 63 390 63 379 Q 63 369 62 359 Z M 17 109 Q 14 151 12 191 Q 9 231 6 272 Q 34 279 59 277 Q 60 274 62 261 Q 64 247 67 230 Q 70 213 73 193 Q 76 174 79 157 Q 81 141 82 129 Q 84 118 84 116 Q 78 115 71 113 Q 64 112 58 111 Q 53 126 48 140 Q 43 154 38 169 Q 38 169 37 168 V 139 Q 37 131 38 124 Q 38 116 37 109 Q 31 109 27 109 Q 22 109 17 109 Z M 373 343 Q 375 341 382 328 Q 388 315 395 300 Q 402 285 408 272 Q 414 259 414 257 Q 408 255 403 253 Q 398 252 392 250 Q 392 249 392 247 Q 392 245 392 244 Q 393 244 394 243 Q 395 243 396 243 Q 402 243 407 243 Q 412 242 418 242 Q 422 242 424 238 Q 426 232 429 226 Q 431 220 434 214 Q 434 212 434 211 Q 419 202 403 195 Q 387 188 370 186 Q 358 217 346 247 Q 334 277 321 308 Q 334 317 347 325 Q 360 334 373 343 Z M 451 159 Q 456 142 457 125 Q 459 108 456 89 Q 427 88 399 88 Q 370 87 342 86 Q 336 100 329 114 Q 323 128 317 143 Q 351 147 384 151 Q 417 155 451 159 Z M 288 381 Q 278 400 269 419 Q 259 439 250 457 Q 256 462 262 466 Q 273 456 284 445 Q 295 434 307 425 Q 303 439 297 452 Q 292 465 284 478 Q 292 482 297 484 Q 308 466 318 448 Q 328 430 339 411 Q 312 397 288 381 Z M 143 479 Q 144 475 144 472 Q 145 458 146 444 Q 147 430 148 415 Q 148 413 149 409 Q 149 406 152 406 Q 155 406 156 409 V 411 Q 157 420 158 429 Q 159 437 159 447 Q 160 449 160 452 Q 160 455 161 457 Q 163 457 165 456 Q 167 456 169 456 Q 168 434 168 413 Q 168 392 167 369 Q 153 375 140 380 Q 126 385 112 391 Q 113 410 114 429 Q 115 448 116 467 Q 119 468 121 468 Q 123 468 126 468 Q 128 458 131 448 Q 134 439 136 429 H 137 Q 138 441 139 454 Q 140 466 141 479 Z M 204 222 Q 208 204 208 187 Q 208 170 203 152 Q 196 153 189 153 Q 183 153 176 154 Q 176 171 176 188 Q 176 204 175 221 Q 183 222 189 222 Q 196 222 204 222 Z M 77 219 Q 82 219 88 219 Q 93 220 98 219 Q 97 204 97 189 Q 97 175 96 160 H 90 Q 88 160 85 161 Q 82 176 81 190 Q 79 204 77 219 Z" fill="black" />
  </g>
  <g class="defect" id="01">
    <path d="M 237 145 Q 221 126 240 137" fill="none" stroke="red" stroke-width="3" />
  </g>
  <g class="defect" id="02">
    <path d="M 378 66 Q 363 89 371 80" fill="none" stroke="red" stroke-width="3" />
  </g>
  <g class="defect" id="03">
    <path d="M 445 267 Q 421 254 435 269" fill="none" stroke="red" stroke-width="3" />
  </g>
</svg>