<svg xmlns="http://www.w3.org/2000/svg" width="512" height="512" viewBox="0 0 512 512">
  <g class="glyph">
    <path d="M 432 512 Q 426 511 420 510 Q 415 509 409 509 Q 410 505 410 501 Q 411 498 412 495 Q 409 494 407 494 Q 405 493 403 493 Q 401 496 399 499 Q 397 501 396 505 Q 381 500 367 492 L 369 484 Q 364 482 360 480 Q 355 478 349 475 Q 351 469 352 463 Q 354 457 355 451 Q 354 450 345 450 Q 336 450 325 450 Q 315 450 306 450 Q 297 450 295 451 Q 295 463 296 475 Q 296 487 296 500 Q 280 505 263 506 Q 246 506 229 504 Q 228 500 228 496 Q 228 492 227 489 Q 223 488 219 488 Q 216 487 211 487 Q 210 478 210 469 Q 209 460 208 451 H 130 Q 131 464 132 476 Q 134 487 135 499 Q 131 502 124 504 Q 116 506 106 508 Q 97 510 86 511 Q 76 512 68 511 Q 67 506 67 502 Q 66 498 65 493 H 52 Q 51 490 48 477 Q 45 464 42 446 Q 39 428 36 407 Q 33 386 30 368 Q 28 349 26 335 Q 24 321 24 316 Q 27 314 29 313 Q 32 311 35 309 Q 38 308 38 307 Q 38 306 37 302 Q 34 303 30 303 Q 26 303 22 303 Q 19 276 17 248 Q 14 221 11 194 Q 25 189 39 187 Q 52 185 65 186 Q 77 186 90 188 H 94 Q 102 185 110 182 Q 118 180 126 177 Q 100 178 76 179 Q 51 181 25 182 Q 24 178 23 173 Q 21 169 20 164 H 8 Q 1 144 0 123 Q 0 103 3 81 Q 17 81 31 81 Q 44 80 58 80 Q 58 85 59 89 Q 60 93 61 97 H 62 Q 63 93 64 89 Q 65 84 66 80 Q 95 79 124 78 Q 153 78 182 77 Q 181 64 181 51 Q 180 38 179 25 Q 185 22 195 20 Q 204 19 216 18 Q 228 17 240 18 Q 253 19 263 21 Q 263 24 263 28 Q 263 31 264 35 Q 268 36 272 37 Q 276 38 280 39 Q 281 48 281 56 Q 281 65 282 75 Q 295 75 307 75 Q 319 74 331 74 V 73 Q 328 71 324 69 Q 321 67 317 65 Q 323 45 333 30 Q 344 14 358 0 Q 360 2 362 4 Q 364 5 367 7 Q 380 17 392 27 Q 404 37 417 47 Q 419 48 420 49 Q 422 51 423 52 Q 425 53 425 53 Q 424 57 426 58 Q 428 60 430 61 Q 433 63 436 65 Q 438 67 441 70 Q 442 71 444 71 Q 445 71 447 72 Q 447 76 448 80 Q 449 84 450 88 H 463 Q 468 106 468 122 Q 469 139 466 157 Q 441 158 417 159 Q 394 161 369 162 V 163 Q 371 163 371 164 Q 372 164 373 164 Q 396 173 414 191 Q 415 193 415 193 Q 415 194 416 195 Q 417 196 417 196 Q 418 197 419 198 Q 423 201 426 204 Q 430 208 434 211 Q 434 213 433 214 Q 432 216 435 218 Q 436 217 436 217 Q 437 216 438 216 Q 446 225 451 235 Q 456 245 460 256 Q 466 272 468 289 Q 469 305 469 322 Q 469 338 467 354 Q 465 369 463 385 Q 459 408 455 430 Q 451 452 445 474 Q 442 483 440 492 Q 438 500 435 509 Q 432 509 432 512 Z M 12 156 Q 120 150 227 144 Q 333 138 440 131 Q 441 128 442 120 Q 442 113 442 104 Q 442 96 441 88 Q 440 81 438 77 Q 437 77 436 77 Q 435 77 434 77 Q 429 77 425 77 Q 420 77 415 77 Q 409 77 406 82 Q 403 88 398 93 Q 394 98 388 103 Q 378 97 368 92 Q 358 86 349 81 Q 345 80 341 80 Q 331 80 320 80 Q 310 80 299 80 Q 286 81 274 81 Q 261 81 249 82 Q 223 83 199 83 Q 174 84 149 84 Q 132 84 116 84 Q 99 85 83 85 Q 80 85 77 86 Q 74 86 71 86 Q 68 100 66 114 Q 63 127 60 141 H 60 Q 57 127 55 114 Q 53 100 51 86 Q 40 86 30 86 Q 20 86 9 88 Q 6 105 6 122 Q 7 139 12 156 Z M 405 194 Q 404 194 404 193 Q 404 192 403 192 Q 403 192 402 191 Q 386 177 367 170 Q 351 163 333 160 Q 316 158 298 157 Q 278 157 260 159 Q 241 161 221 163 Q 167 171 115 186 Q 111 188 105 189 Q 100 191 95 193 Q 95 194 95 195 Q 95 195 95 196 Q 95 205 95 213 Q 95 221 96 230 Q 96 232 98 234 Q 100 240 104 245 Q 107 251 110 257 Q 111 258 111 259 Q 112 259 112 260 Q 115 259 115 259 Q 145 246 179 238 Q 200 233 221 229 Q 241 225 263 223 Q 277 221 292 221 Q 306 220 320 222 Q 329 223 337 225 Q 346 227 354 231 Q 358 234 361 236 Q 364 239 369 241 Q 378 230 387 219 Q 397 207 405 194 Z M 19 198 Q 21 222 23 246 Q 25 270 28 294 Q 41 293 54 291 Q 66 290 79 289 Q 79 290 80 290 Q 67 298 55 304 Q 43 311 31 318 Q 36 360 42 402 Q 49 444 57 485 Q 85 485 109 476 Q 100 405 95 335 Q 90 265 88 193 Q 70 191 53 191 Q 36 192 19 198 Z M 105 371 Q 106 385 108 398 Q 109 411 111 424 H 349 Q 352 408 352 391 Q 352 374 348 356 Z M 369 243 Q 372 249 374 254 Q 377 259 378 264 Q 386 285 383 310 Q 382 324 381 339 Q 380 353 378 367 Q 375 391 371 413 Q 367 436 360 459 Q 359 462 359 465 Q 359 468 358 470 Q 362 473 366 474 Q 371 476 375 478 Q 383 465 392 452 Q 400 439 409 426 Q 408 441 406 456 Q 404 470 401 485 Q 404 485 405 485 Q 407 486 409 486 Q 410 485 410 484 Q 410 484 410 483 Q 413 472 416 461 Q 419 451 422 440 Q 428 414 433 389 Q 437 363 440 337 Q 441 323 442 308 Q 444 294 442 279 Q 441 265 438 252 Q 435 238 428 225 Q 426 221 423 216 Q 420 212 418 207 Q 405 217 393 226 Q 381 235 369 243 Z M 262 231 Q 231 235 200 241 Q 203 271 205 299 Q 206 328 209 358 Q 223 356 238 356 Q 252 355 267 354 Q 266 323 264 292 Q 263 262 262 231 Z M 103 340 Q 127 339 151 337 Q 175 336 200 335 Q 199 319 198 304 Q 197 289 196 275 Q 171 277 147 280 Q 124 284 99 286 Q 100 300 101 313 Q 102 326 103 340 Z M 356 8 Q 334 30 323 60 Q 340 68 355 77 Q 371 85 387 94 Q 396 85 403 75 Q 409 66 414 54 Q 380 43 385 31 Q 371 20 356 8 Z M 319 328 Q 330 327 340 326 Q 342 308 341 291 Q 340 275 334 257 Q 318 259 302 261 Q 287 263 271 265 Q 272 281 272 298 Q 272 314 273 330 Q 280 330 285 330 Q 291 330 297 329 Q 300 317 304 306 Q 307 294 310 282 Q 316 293 317 305 Q 318 316 319 328 Z M 255 26 Q 247 25 237 24 Q 227 23 217 24 Q 207 24 199 26 Q 190 27 186 29 Q 187 41 188 52 Q 203 81 189 76 L 257 74 Q 256 62 255 50 Q 255 38 255 26 Z M 214 433 Q 215 445 216 456 Q 216 468 217 479 Q 231 481 244 480 Q 258 480 271 477 Q 271 465 271 455 Q 271 444 269 433 Z M 371 366 Q 371 364 371 364 Q 372 363 372 362 Q 373 348 374 335 Q 395 311 377 309 Q 377 299 376 288 Q 376 278 373 268 Q 371 262 370 259 Q 369 257 367 255 Q 366 254 363 253 Q 360 252 355 250 Q 354 249 351 249 Q 338 246 324 246 Q 310 245 296 246 Q 294 247 292 247 Q 290 247 287 247 Q 287 250 288 252 Q 288 253 288 255 Q 301 254 314 252 Q 326 251 339 249 Q 341 254 342 259 Q 344 263 345 268 L 357 267 Q 365 287 366 308 Q 367 328 364 350 Q 361 350 359 351 Q 357 351 355 351 L 358 367 Q 361 367 364 367 Q 367 367 371 366 Z M 194 153 Q 195 154 195 156 Q 195 158 195 159 Q 197 159 198 159 Q 199 159 200 159 Q 210 158 219 157 Q 228 156 237 154 Q 242 153 247 153 Q 252 153 257 152 Q 258 152 259 152 Q 260 152 259 149 Q 243 150 227 151 Q 211 152 194 153 Z M 328 333 Q 327 335 326 335 Q 326 335 325 336 Q 324 339 323 342 Q 322 346 321 350 Q 324 350 330 350 Q 330 346 329 342 Q 329 338 328 333 Z M 195 267 Q 193 263 183 268 Z M 119 276 Q 117 274 115 271 Q 115 272 115 273 Q 115 275 115 275 Q 115 276 115 277 Q 116 276 119 276 Z" fill="black" />
  </g>
  <g class="defect" id="01">
    <path d="M 414 54 Q 380 43 385 31" fill="none" stroke="red" stroke-width="3" />
  </g>
  <g class="defect" id="02">
    <path d="M 374 335 Q 395 311 377 309" fill="none" stroke="red" stroke-width="3" />
  </g>
  <g class="defect" id="03">
    <path d="M 188 52 Q 203 81 189 76" fill="none" stroke="red" stroke-width="3" />
  </g>
</svg>