<svg xmlns="http://www.w3.org/2000/svg" width="512" height="512" viewBox="0 0 512 512">
  <g class="glyph">
    <path d="M 506 208 Q 507 212 507 216 Q 507 220 507 225 Q 508 232 508 237 Q 508 243 508 250 Q 508 254 505 256 L 496 261 Q 495 262 493 265 Q 497 264 501 263 Q 504 263 509 262 Q 511 315 512 366 Q 512 417 510 469 Q 502 472 493 472 Q 485 473 477 473 Q 476 472 476 470 Q 476 468 475 466 Q 474 470 472 473 Q 457 473 440 469 Q 440 467 440 465 Q 440 463 440 460 Q 439 461 438 461 Q 437 461 436 461 Q 407 470 379 476 Q 350 482 321 486 Q 298 490 276 492 Q 253 493 231 495 Q 209 495 188 495 Q 166 494 145 491 Q 105 486 73 466 Q 71 465 69 464 Q 68 463 66 462 Q 67 461 67 459 Q 68 458 69 457 Q 64 454 63 454 Q 62 454 58 455 Q 55 452 52 449 Q 49 445 45 442 Q 44 441 42 440 Q 41 438 40 437 Q 37 436 35 433 Q 34 431 32 430 Q 10 406 5 372 Q 1 349 0 326 Q 0 304 2 281 Q 4 258 8 236 Q 11 214 16 193 Q 16 191 16 190 Q 39 188 60 193 Q 81 198 100 208 Q 101 211 100 213 Q 98 215 101 218 Q 102 211 103 204 Q 105 197 106 190 Q 107 184 109 176 Q 111 169 112 162 Q 114 155 116 148 Q 118 141 119 134 Q 130 133 140 135 Q 150 137 161 140 Q 159 133 158 126 Q 156 119 157 111 Q 162 109 167 108 Q 172 106 177 105 V 103 Q 144 103 112 104 Q 80 104 47 105 Q 46 100 45 96 Q 44 91 43 87 H 29 Q 26 78 25 66 Q 23 54 24 42 Q 24 29 26 18 Q 27 7 30 0 Q 49 0 69 1 Q 88 1 108 2 Q 108 7 109 11 Q 109 14 110 18 H 111 Q 113 15 113 12 Q 114 10 115 7 Q 116 4 117 3 Q 117 2 120 2 Q 141 4 163 4 Q 185 4 206 5 Q 232 7 257 8 Q 282 8 307 10 Q 338 11 369 13 Q 399 15 430 16 Q 439 16 448 17 Q 457 17 465 18 Q 467 18 469 18 Q 471 19 473 19 Q 474 23 474 27 Q 475 31 476 36 Q 479 36 482 36 Q 484 36 487 37 Q 490 37 491 38 Q 492 39 492 42 Q 494 57 493 73 Q 493 89 489 105 Q 489 106 488 107 Q 448 106 409 106 Q 371 105 331 105 Q 331 105 330 106 Q 332 107 332 107 Q 333 107 334 108 Q 347 115 358 126 Q 362 129 362 131 Q 362 132 363 133 Q 364 134 365 134 Q 368 138 372 141 Q 376 144 380 147 Q 378 152 378 152 Q 378 153 379 155 Q 380 156 381 158 Q 383 157 384 156 Q 385 156 386 155 Q 394 164 399 174 Q 404 185 407 196 Q 427 190 447 188 Q 466 187 487 190 Q 488 194 488 198 Q 489 202 489 206 Q 498 206 506 208 Z M 407 380 Q 387 386 368 390 Q 348 395 328 398 Q 307 401 285 403 Q 264 406 242 407 Q 227 408 213 408 Q 199 408 185 407 Q 171 407 157 406 Q 143 405 129 402 Q 111 398 95 388 Q 81 379 78 362 Q 76 350 76 338 Q 76 326 76 314 Q 78 294 80 273 Q 83 253 88 233 Q 89 228 90 223 Q 91 218 92 212 Q 75 205 58 201 Q 41 197 23 197 Q 22 199 22 200 Q 22 202 22 203 Q 17 222 14 242 Q 11 262 10 281 Q 21 290 8 327 Q 8 350 12 373 Q 17 404 40 427 Q 40 428 41 428 Q 41 428 42 429 Q 51 424 60 419 Q 69 413 78 408 Q 76 419 70 427 Q 65 434 60 442 Q 60 444 61 444 Q 63 445 63 445 Q 64 445 65 446 Q 81 455 98 460 Q 115 465 133 467 Q 152 469 171 470 Q 190 471 209 470 Q 246 469 282 464 Q 310 461 338 456 Q 349 470 393 444 Q 401 442 408 440 Q 415 438 422 435 Q 423 419 419 406 Q 416 392 409 380 Z M 467 26 Q 460 26 432 24 Q 405 22 367 20 Q 330 19 288 17 Q 246 14 210 13 Q 174 11 149 11 Q 125 10 122 11 Q 119 23 116 34 Q 113 46 110 58 Q 107 46 106 34 Q 104 22 101 10 Q 84 9 68 9 Q 52 8 35 8 Q 32 26 31 43 Q 31 61 35 78 H 143 H 250 Q 277 78 304 79 Q 331 79 358 80 Q 371 80 388 80 Q 406 81 423 81 Q 439 81 452 81 Q 464 81 465 81 Q 468 67 469 54 Q 469 40 467 26 Z M 126 141 Q 125 144 125 145 Q 122 153 120 160 Q 119 167 117 175 Q 112 194 109 214 Q 106 234 106 254 Q 106 270 109 285 Q 113 300 119 313 Q 138 357 184 367 Q 193 369 202 370 Q 212 371 221 371 Q 253 373 283 368 Q 313 363 344 353 Q 347 353 353 350 L 349 333 Q 341 331 333 329 Q 325 327 318 324 Q 319 320 320 316 Q 320 312 321 308 Q 318 309 315 310 Q 289 316 264 318 Q 239 319 212 316 Q 206 315 201 314 Q 195 313 189 310 Q 179 307 175 298 Q 173 293 171 288 Q 169 284 168 279 Q 165 265 165 252 Q 166 239 168 225 Q 171 215 173 205 Q 176 195 178 185 Q 179 181 178 177 Q 174 171 171 164 Q 168 157 165 150 Q 164 149 161 147 Q 153 144 144 143 Q 135 141 126 141 Z M 486 444 Q 487 396 486 349 Q 486 301 484 253 Q 472 254 460 256 Q 448 258 436 260 V 259 Q 448 253 460 246 Q 472 239 484 232 Q 483 222 483 214 Q 483 205 481 196 Q 463 194 445 196 Q 428 197 410 203 Q 425 324 430 444 Q 435 445 440 446 Q 445 446 449 446 Q 451 440 452 434 Q 454 428 455 422 Q 460 422 462 424 Q 463 425 464 428 Q 465 431 465 435 Q 465 438 465 441 Q 465 443 466 446 Q 476 446 486 444 Z M 186 176 Q 192 174 197 173 Q 203 171 208 170 Q 223 165 239 162 Q 255 158 273 159 Q 285 159 297 162 Q 308 165 317 174 H 318 L 318 175 Q 327 164 335 153 Q 344 142 353 131 Q 351 129 351 129 L 349 127 Q 336 116 320 109 Q 301 102 281 100 Q 262 99 242 100 Q 207 103 174 114 Q 170 116 165 117 Q 170 149 186 176 Z M 368 147 Q 356 155 344 162 Q 332 170 320 177 Q 330 191 333 206 Q 336 226 336 248 Q 336 261 335 274 Q 333 287 331 300 Q 330 305 329 310 Q 328 315 327 319 Q 351 328 376 328 Q 377 324 378 320 Q 378 316 380 312 Q 384 290 387 269 Q 390 247 389 225 Q 388 213 387 201 Q 386 190 382 177 Q 379 169 376 162 Q 372 155 368 147 Z M 276 310 Q 276 309 276 299 Q 277 289 277 275 Q 278 261 278 244 Q 279 228 279 214 Q 280 200 280 191 Q 280 181 280 180 Q 264 177 248 177 Q 220 177 217 181 Q 220 214 221 246 Q 223 279 226 311 Q 238 312 251 312 Q 263 311 276 310 Z M 247 398 H 242 Q 235 397 227 397 Q 220 396 212 395 Q 197 393 184 389 Q 170 384 159 374 Q 150 366 143 359 Q 136 351 128 343 Q 126 341 125 339 Q 124 338 123 336 Q 113 322 108 305 Q 106 303 106 301 H 105 Q 104 309 103 316 Q 103 324 103 331 Q 101 354 104 380 Q 105 386 111 389 Q 122 393 132 395 Q 142 396 153 398 Q 162 398 172 399 Q 182 400 191 400 H 247 Z M 215 270 Q 214 256 214 243 Q 213 229 212 215 Q 203 216 195 217 Q 187 217 178 217 Q 175 230 174 243 Q 173 256 174 269 Q 184 270 195 270 Q 205 270 215 270 Z M 313 273 Q 316 258 316 242 Q 315 226 311 210 Q 304 211 299 211 Q 293 211 287 212 Q 286 227 286 242 Q 286 258 285 273 Z M 419 381 Q 418 360 417 338 Q 415 317 412 295 Q 409 310 406 325 Q 403 339 400 354 Q 394 354 388 354 Q 383 354 377 353 Q 378 359 378 363 Q 379 368 380 373 Q 369 378 357 381 Q 346 385 335 389 Q 354 386 374 381 Q 393 377 413 371 Q 414 374 415 376 Q 417 378 418 381 Z M 288 188 Q 292 190 297 190 Q 301 191 306 192 V 202 H 316 Q 318 207 319 211 Q 320 215 321 220 Q 325 220 327 220 V 215 Q 325 212 325 209 Q 325 206 324 203 Q 322 197 322 194 Q 321 191 319 190 Q 318 188 315 187 Q 312 187 306 185 Q 301 184 297 184 Q 293 183 288 184 Q 288 185 288 186 Q 288 187 288 188 Z M 194 295 Q 195 298 195 300 Q 196 301 197 304 Q 198 306 199 306 Q 208 309 218 310 Q 217 306 217 302 Q 218 299 216 295 Z M 322 299 H 304 V 305 Q 309 304 313 303 Q 318 302 322 300 Z M 211 201 Q 206 202 205 203 Q 205 203 203 208 H 211 Z" fill="black" />
  </g>
  <g class="defect" id="01">
    <path d="M 248 177 Q 220 177 217 181" fill="none" stroke="red" stroke-width="3" />
  </g>
  <g class="defect" id="02">
    <path d="M 10 281 Q 21 290 8 327" fill="none" stroke="red" stroke-width="3" />
  </g>
  <g class="defect" id="03">
    <path d="M 338 456 Q 349 470 393 444" fill="none" stroke="red" stroke-width="3" />
  </g>
</svg>