<svg xmlns="http://www.w3.org/2000/svg" width="512" height="512" viewBox="0 0 512 512">
  <g class="glyph">
    <path d="M 28 354 Q 31 353 33 353 Q 36 352 39 351 V 350 Q 36 350 33 349 Q 30 349 27 348 Q 26 342 25 336 Q 23 330 22 323 Q 36 317 50 315 Q 57 314 64 314 Q 71 313 78 312 Q 77 306 76 301 Q 75 295 73 289 H 61 Q 60 285 60 281 Q 59 277 59 272 Q 57 274 57 276 Q 57 279 56 280 Q 55 283 55 285 Q 55 287 54 290 Q 48 291 42 291 Q 35 292 29 292 Q 28 287 26 283 Q 25 279 24 274 H 12 Q 9 268 7 258 Q 5 248 5 237 Q 4 226 5 216 Q 6 206 8 199 L 55 198 Q 52 177 49 157 Q 46 137 43 116 Q 56 110 70 108 Q 84 106 98 106 Q 95 96 92 85 Q 89 74 89 63 Q 134 50 179 37 Q 224 24 270 10 Q 271 15 271 18 Q 272 22 273 26 H 274 Q 274 22 275 18 Q 275 14 275 9 Q 283 6 291 5 Q 299 3 306 0 Q 309 5 311 10 Q 313 15 316 19 Q 318 19 320 19 Q 321 18 323 18 Q 327 23 330 31 Q 333 38 336 48 Q 338 57 339 66 Q 340 76 340 84 Q 339 84 337 85 Q 335 85 333 86 Q 336 87 338 87 Q 341 88 343 89 Q 383 99 409 129 Q 412 132 415 134 Q 418 137 421 140 Q 423 142 425 145 Q 427 147 430 150 Q 428 152 427 153 Q 427 155 426 156 Q 426 157 426 157 Q 429 156 433 155 Q 439 163 443 172 Q 446 181 448 191 H 467 Q 468 196 469 200 Q 469 204 470 208 H 484 Q 488 224 489 239 Q 489 254 486 270 Q 474 271 463 271 Q 451 272 439 272 Q 434 286 429 300 Q 424 314 419 327 Q 424 333 429 338 Q 434 343 439 348 Q 452 360 458 373 Q 465 387 464 404 V 408 V 413 Q 467 413 468 415 Q 468 416 469 419 Q 470 423 471 430 H 484 Q 489 446 489 462 Q 489 478 487 495 Q 456 496 427 497 Q 398 498 368 500 Q 367 495 366 491 Q 365 487 364 482 H 363 Q 362 486 361 490 Q 360 493 359 497 Q 356 497 353 497 Q 349 497 346 496 Q 345 495 345 494 Q 345 492 343 490 Q 342 494 342 496 Q 341 498 340 501 Q 336 502 331 502 Q 326 502 322 502 L 233 505 Q 211 506 189 507 Q 168 507 146 508 Q 123 509 102 510 Q 80 510 57 511 Q 52 511 47 511 Q 42 511 36 512 Q 35 508 33 503 Q 32 499 31 495 H 18 Q 17 490 16 486 Q 15 481 14 477 Q 17 476 18 475 Q 19 475 19 473 Q 19 472 17 472 Q 16 471 12 471 Q 9 471 3 470 Q 0 443 7 416 H 41 Q 38 400 35 385 Q 31 370 28 354 Z M 67 468 Q 56 472 45 475 Q 35 478 24 482 Q 24 484 25 487 H 30 Q 42 486 53 486 Q 65 486 77 486 Q 94 484 112 484 Q 130 484 147 483 Q 158 482 170 482 Q 181 482 193 482 Q 210 481 228 480 Q 245 480 262 479 Q 275 478 288 478 Q 301 477 314 477 Q 317 477 318 476 Q 318 476 319 473 L 324 456 Q 325 454 326 451 Q 326 448 327 445 Q 328 447 329 448 Q 329 449 329 450 L 334 470 Q 335 471 335 472 Q 335 473 338 472 Q 340 461 342 449 Q 345 437 347 427 H 348 Q 351 439 353 451 Q 355 463 358 475 Q 385 474 411 473 Q 437 471 464 470 Q 466 457 466 445 Q 466 433 463 420 H 457 Q 448 420 439 420 Q 429 421 420 421 H 396 Q 362 421 329 421 Q 295 421 261 421 Q 235 421 210 422 Q 185 422 159 422 Q 143 422 128 423 Q 112 423 97 423 Q 77 423 58 423 Q 38 423 18 423 H 14 Q 11 434 11 444 Q 10 454 11 464 Q 25 465 39 466 Q 53 467 67 468 Z M 373 355 Q 373 355 373 355 Q 373 354 372 354 Q 375 345 379 336 Q 382 327 385 318 Q 383 317 381 316 Q 370 312 359 310 Q 348 308 336 307 Q 294 304 252 307 Q 235 308 220 310 Q 204 312 187 314 Q 167 317 147 321 Q 126 325 106 329 Q 105 330 104 330 Q 103 331 102 331 Q 102 335 103 338 Q 103 342 104 347 Q 104 352 105 356 Q 106 365 109 372 Q 113 379 117 386 Q 120 386 121 385 Q 139 379 158 375 Q 177 371 196 368 Q 212 365 229 363 Q 245 361 262 359 Q 273 358 284 358 Q 295 358 307 356 Q 319 356 330 356 Q 341 357 353 359 Q 359 360 365 362 Q 372 365 378 368 Q 373 388 388 387 Q 388 393 386 398 Q 385 403 383 408 Q 382 409 381 413 H 435 Q 445 388 437 365 Q 428 341 407 329 Z M 140 259 206 256 Q 209 256 211 252 Q 215 246 219 241 Q 223 236 227 231 Q 230 226 233 223 Q 237 220 240 216 Q 242 218 244 219 Q 246 220 248 221 Q 257 228 266 235 Q 274 242 283 250 Q 287 253 292 252 Q 305 251 317 251 Q 329 251 342 250 Q 361 249 381 248 Q 400 247 419 247 Q 429 246 438 246 Q 448 246 457 245 Q 458 245 459 245 Q 461 245 462 245 Q 465 220 461 198 H 455 Q 434 198 413 198 Q 392 198 371 198 Q 347 199 322 199 Q 297 199 272 199 Q 257 200 242 200 Q 227 200 212 200 Q 192 200 173 201 Q 153 201 134 201 Q 132 201 126 203 Q 129 217 130 231 Q 132 245 133 259 Z M 237 120 Q 239 122 241 123 Q 242 124 244 125 Q 251 130 257 135 Q 264 140 270 145 Q 272 147 277 147 Q 288 146 299 145 Q 310 145 321 146 Q 331 148 340 152 Q 349 156 357 161 Q 368 170 372 183 Q 373 184 373 186 Q 374 188 374 191 Q 387 191 400 191 Q 412 192 426 191 Q 425 178 422 167 Q 419 157 413 146 Q 402 152 391 157 Q 380 163 369 168 Q 369 168 369 167 Q 378 158 386 150 Q 394 142 402 133 Q 401 131 401 131 Q 401 130 400 129 Q 399 129 399 127 Q 386 113 368 105 Q 352 97 335 93 Q 317 90 299 90 Q 286 90 274 90 Q 261 91 248 93 Q 220 98 192 105 Q 165 111 138 120 L 120 127 Q 125 158 142 184 Q 145 183 147 182 Q 160 177 173 173 Q 186 168 200 164 Q 204 162 206 158 Q 219 137 237 120 Z M 51 120 Q 58 169 67 215 Q 75 262 85 309 Q 110 309 132 301 Q 126 254 121 208 Q 96 145 112 114 Q 109 113 100 113 Q 92 113 83 114 Q 74 114 65 116 Q 57 118 51 120 Z M 316 60 Q 316 55 315 48 Q 314 41 312 33 Q 311 25 308 18 Q 306 11 303 8 Q 298 10 293 11 Q 288 13 283 14 Q 282 19 282 23 Q 282 28 281 32 Q 281 42 273 50 Q 270 42 268 34 Q 267 26 264 19 Q 222 31 180 43 Q 139 55 97 67 Q 97 68 96 68 V 69 Q 98 85 105 103 Q 107 106 110 106 Q 113 106 117 105 Q 126 103 135 101 Q 144 99 152 97 Q 192 88 232 79 Q 271 70 312 60 Q 313 60 314 60 Q 315 60 316 60 Z M 33 342 Q 44 344 56 345 Q 67 346 78 349 Q 68 352 58 354 Q 48 357 37 360 Q 40 374 43 388 Q 46 401 49 415 H 104 Q 101 391 99 368 Q 97 345 94 321 Q 90 320 80 320 Q 71 320 61 321 Q 51 322 43 324 Q 34 326 31 328 Q 31 332 31 335 Q 32 339 33 342 Z M 208 277 Q 219 283 230 288 Q 241 294 252 299 Q 253 300 256 300 Q 261 299 267 299 Q 272 299 278 299 Q 280 299 283 296 Q 285 293 287 290 Q 288 287 290 285 Q 292 281 294 277 Q 296 274 298 270 Q 284 259 270 248 Q 255 237 241 226 Q 231 237 222 249 Q 213 262 208 277 Z M 238 130 Q 227 141 218 154 Q 210 166 205 181 Q 211 184 216 187 Q 222 190 228 193 Q 229 193 232 193 H 255 Q 262 193 269 193 Q 276 193 283 193 Q 285 193 286 193 Q 287 193 288 191 Q 293 183 297 174 Q 281 163 267 151 Q 252 140 238 130 Z M 278 379 Q 280 379 280 378 L 324 372 Q 328 370 329 370 Q 329 369 329 364 Q 314 363 299 364 Q 285 365 270 366 Q 269 378 269 390 Q 268 401 267 414 H 321 Q 322 407 324 400 Q 326 394 327 388 Q 314 386 302 384 Q 277 382 278 380 Z M 14 206 Q 11 221 12 237 Q 12 252 17 267 Q 21 266 24 266 Q 27 266 30 266 Q 33 252 37 239 Q 40 226 43 213 H 44 Q 47 238 50 265 Q 55 264 59 264 Q 63 264 68 263 Q 65 248 63 234 Q 60 219 57 204 Q 46 205 36 205 Q 25 205 14 206 Z M 158 382 Q 159 391 160 399 Q 161 407 163 415 H 216 V 372 Q 201 375 187 377 Q 173 380 158 382 Z M 352 285 Q 372 298 396 303 Q 401 291 405 279 Q 409 267 414 254 Q 400 255 387 255 Q 374 256 362 256 Z M 152 285 Q 153 292 154 298 Q 154 305 156 312 Q 173 309 190 307 Q 207 305 224 302 Q 221 301 220 300 Q 219 299 217 298 Q 218 295 218 294 Q 218 293 219 291 Q 214 288 210 287 Q 206 285 203 282 Q 201 282 199 282 Q 191 282 183 283 Q 174 283 166 283 Q 163 284 160 284 Q 156 284 152 285 Z M 367 191 Q 366 186 365 183 Q 363 179 358 177 Q 345 171 332 170 Q 319 170 306 171 Q 304 171 303 173 Q 303 175 305 176 Q 311 181 318 186 Q 322 188 321 191 Z M 367 414 Q 368 414 368 414 Q 368 414 369 414 Q 370 413 371 412 Q 372 412 373 411 Q 374 407 376 403 Q 378 399 379 394 Q 380 393 380 391 Q 380 389 380 387 Q 374 385 366 383 Q 359 382 354 383 Q 354 386 353 389 Q 353 392 352 394 Q 349 395 347 396 Q 345 396 342 396 V 397 Q 346 398 351 399 Q 351 403 350 406 Q 350 409 349 414 Z M 318 299 Q 329 300 339 301 Q 348 302 359 303 Q 362 304 362 300 Q 357 297 352 294 Q 348 292 343 289 Q 344 285 345 282 Q 346 279 347 276 Q 343 276 338 276 Q 333 276 328 276 Q 323 277 319 277 Q 315 278 314 278 Q 317 280 319 282 Q 321 284 324 285 Q 321 291 318 299 Z M 260 414 Q 260 407 261 400 Q 261 393 260 386 Q 255 386 251 387 Q 246 387 241 388 V 414 Z M 156 415 Q 155 413 155 410 Q 154 408 154 406 L 131 412 Q 130 409 128 408 Q 127 406 126 404 Q 125 404 125 405 Q 125 407 126 410 Q 126 412 126 415 Z M 142 194 Q 145 194 147 195 Q 145 189 142 194 Z M 399 325 Q 395 323 394 323 Q 393 322 390 324 Q 393 325 395 325 Q 397 325 399 326 Z M 211 193 Q 208 190 205 193 Z" fill="black" />
  </g>
  <g class="defect" id="01">
    <path d="M 302 384 Q 277 382 278 380" fill="none" stroke="red" stroke-width="3" />
  </g>
  <g class="defect" id="02">
    <path d="M 378 368 Q 373 388 388 387" fill="none" stroke="red" stroke-width="3" />
  </g>
  <g class="defect" id="03">
    <path d="M 121 208 Q 96 145 112 114" fill="none" stroke="red" stroke-width="3" />
  </g>
</svg>