<svg xmlns="http://www.w3.org/2000/svg" width="512" height="512" viewBox="0 0 512 512">
  <g class="glyph">
    <path d="M 411 353 Q 413 354 415 355 Q 416 356 418 357 Q 422 360 426 363 Q 430 365 435 369 Q 439 372 440 376 Q 440 377 442 379 Q 444 380 446 381 Q 449 384 452 386 Q 455 389 458 391 Q 457 393 456 394 Q 456 394 455 396 Q 458 395 459 394 Q 470 409 471 427 Q 471 439 468 449 Q 465 460 460 471 Q 457 477 453 482 Q 449 488 445 494 Q 438 492 433 489 Q 427 486 421 482 Q 421 487 421 492 Q 421 496 420 501 Q 413 502 407 503 Q 400 503 394 504 Q 379 506 364 507 Q 349 509 334 510 Q 325 511 316 511 Q 306 512 297 512 Q 287 512 276 512 Q 266 511 255 510 Q 229 509 207 499 Q 192 492 182 478 Q 181 477 180 476 Q 180 476 179 475 Q 168 466 160 455 Q 158 457 156 459 Q 155 460 153 463 Q 151 465 149 467 Q 148 469 146 471 Q 144 473 142 475 Q 141 477 139 480 Q 138 479 137 479 Q 136 479 135 478 Q 124 472 114 465 Q 105 458 96 449 Q 93 447 91 444 Q 88 441 85 438 Q 83 451 81 462 Q 80 473 79 485 Q 73 486 67 486 Q 62 486 56 485 Q 56 483 56 481 Q 56 479 55 477 Q 53 480 53 480 Q 52 482 52 482 Q 48 482 44 482 Q 40 482 35 481 Q 35 478 36 475 Q 36 472 37 469 H 36 Q 35 472 34 475 Q 32 478 31 482 Q 27 481 24 480 Q 20 479 17 478 Q 18 472 18 465 Q 19 459 19 452 Q 19 452 18 452 Q 17 455 16 458 Q 14 460 13 464 Q 10 464 7 463 Q 4 462 0 460 Q 6 377 14 295 Q 21 213 30 130 H 24 Q 17 111 17 92 Q 16 74 19 54 Q 65 52 111 51 Q 156 49 202 48 Q 200 43 198 39 Q 196 34 193 30 Q 209 17 226 10 Q 244 3 264 0 L 270 19 Q 275 19 282 18 Q 283 23 285 28 Q 286 32 288 36 Q 288 39 287 40 Q 286 41 285 42 Q 284 42 283 43 Q 284 43 286 43 Q 287 42 289 42 Q 290 43 290 44 Q 290 45 291 46 H 455 Q 456 50 456 54 Q 457 58 458 63 H 472 Q 473 67 474 75 Q 476 84 476 93 Q 476 102 475 111 Q 474 120 472 125 H 451 Q 446 126 441 126 Q 436 126 430 126 V 131 Q 441 133 450 133 Q 459 133 470 133 Q 471 137 471 141 Q 472 145 473 150 H 487 Q 489 157 490 163 Q 491 170 491 177 Q 488 178 485 180 Q 482 181 479 183 H 491 Q 491 195 487 206 Q 479 207 470 207 Q 462 207 452 208 Q 464 220 474 231 Q 485 243 496 254 Q 490 265 482 274 Q 474 283 463 291 H 477 Q 481 305 481 319 Q 481 333 479 347 Q 462 348 446 349 Q 429 350 413 351 Q 411 353 411 353 Q 410 353 411 353 Z M 448 56 Q 447 56 446 56 Q 445 55 444 55 H 366 Q 342 55 319 56 Q 295 56 271 56 Q 257 57 243 57 Q 229 57 214 57 Q 194 57 173 58 Q 152 58 132 60 Q 109 60 86 61 Q 64 62 41 62 Q 37 62 33 63 Q 30 63 25 63 Q 23 79 23 94 Q 24 109 28 124 Q 34 123 38 123 Q 42 123 47 123 Q 50 122 53 123 Q 56 123 59 122 Q 73 121 87 120 Q 101 119 115 118 Q 144 118 134 117 Q 144 117 153 116 Q 157 116 157 115 Q 158 113 163 112 Q 175 109 188 108 Q 201 108 213 109 Q 217 111 221 111 Q 225 112 229 112 Q 281 110 334 107 Q 342 107 348 105 Q 362 100 377 100 Q 392 100 407 103 Q 411 104 415 104 Q 419 104 423 104 Q 428 104 433 104 Q 437 104 441 103 Q 445 103 449 103 Q 450 91 450 79 Q 450 68 448 56 Z M 53 462 Q 64 380 75 300 Q 85 220 96 138 V 138 Q 69 128 39 130 Q 36 130 35 134 Q 35 141 34 148 Q 33 156 33 163 Q 31 180 30 197 Q 28 214 26 231 Q 25 250 23 267 Q 21 285 19 304 Q 18 320 16 337 Q 14 353 13 369 Q 12 389 10 410 Q 8 430 6 451 V 457 Q 8 457 8 457 Q 12 445 17 433 Q 22 421 28 410 Q 28 422 27 434 Q 26 447 25 458 Q 27 459 28 458 Q 28 457 30 456 Q 32 448 35 441 Q 39 433 41 426 Q 42 425 42 424 Q 42 423 43 422 Q 43 422 44 422 V 463 Q 47 462 49 462 Q 51 462 53 462 Z M 453 325 Q 456 305 451 284 H 447 H 413 Q 394 284 376 285 Q 359 285 341 286 L 264 287 L 206 289 Q 183 290 160 291 Q 138 291 114 292 Q 110 293 106 293 Q 102 294 98 294 Q 97 299 96 307 Q 96 314 96 322 Q 97 330 98 337 Q 99 343 101 347 Q 190 340 277 335 Q 364 330 453 325 Z M 409 394 Q 414 390 419 385 Q 424 380 430 374 Q 426 371 422 369 Q 419 366 415 364 Q 405 358 394 355 Q 383 352 371 350 Q 350 348 330 348 Q 309 347 288 349 Q 274 350 259 352 Q 244 354 229 356 Q 225 356 221 357 Q 216 357 212 359 Q 212 372 214 386 Q 216 399 222 411 Q 223 411 226 411 Q 238 408 249 406 Q 261 404 273 402 Q 288 399 303 398 Q 319 397 334 396 Q 346 396 358 397 Q 369 397 381 400 Q 390 401 397 406 Q 402 409 402 415 Q 402 419 401 423 Q 399 428 397 432 Q 396 435 394 438 Q 392 442 390 445 Q 398 452 406 458 Q 414 464 423 469 Q 430 461 436 448 Q 442 435 444 426 Q 448 408 441 392 Q 440 391 440 389 Q 439 388 438 387 Q 434 388 430 389 Q 427 391 423 392 Q 421 393 417 394 Q 414 394 410 396 Z M 266 441 Q 263 441 260 441 Q 258 441 255 441 Q 247 440 239 438 Q 230 437 222 434 Q 220 433 218 432 Q 216 431 214 430 Q 209 428 210 422 Q 210 420 211 417 Q 211 414 212 412 Q 213 409 212 406 Q 211 400 209 394 Q 188 408 206 383 Q 206 380 203 377 Q 191 370 179 367 Q 176 365 173 365 Q 171 369 169 375 Q 166 382 164 388 Q 162 395 160 402 Q 159 408 158 413 Q 156 432 164 449 Q 173 466 192 476 Q 202 480 212 483 Q 222 485 232 487 Q 250 489 268 489 Q 286 488 304 487 Q 320 486 336 484 Q 353 482 369 481 Q 381 480 395 478 V 464 Q 395 458 391 456 Q 389 454 386 451 Q 383 449 381 447 Q 382 444 383 442 Q 384 440 386 438 Q 359 440 333 441 Q 307 443 281 442 Q 278 451 276 459 Q 273 467 270 476 H 269 Q 268 466 268 458 Q 267 450 266 441 Z M 110 196 Q 150 193 190 191 Q 230 188 270 186 Q 272 175 272 165 Q 272 155 269 144 Q 229 143 189 143 Q 149 143 108 142 Q 106 156 107 170 Q 107 183 110 196 Z M 295 191 Q 337 189 378 188 Q 420 186 462 184 Q 463 181 463 175 Q 452 177 443 177 Q 434 177 424 178 V 177 Q 434 172 444 167 Q 454 163 463 158 V 150 Q 463 148 462 143 Q 420 142 378 140 Q 336 139 294 137 Q 291 151 291 164 Q 291 178 295 191 Z M 201 355 Q 199 349 195 348 Q 192 347 187 347 Q 176 348 166 349 Q 155 349 144 350 Q 138 351 135 355 Q 125 371 114 387 Q 103 403 92 419 Q 90 421 89 424 Q 87 426 85 429 Q 87 432 92 436 Q 96 439 101 442 Q 105 446 110 449 Q 115 452 118 453 Q 119 453 119 452 Q 127 443 134 434 Q 142 425 150 415 Q 150 414 151 411 Q 152 400 156 390 Q 159 379 163 370 Q 164 367 166 363 Q 167 360 169 356 Q 176 357 182 359 Q 188 361 194 363 Q 198 360 201 355 Z M 216 196 Q 204 198 193 198 Q 181 199 169 200 L 174 277 Q 185 279 195 279 Q 206 279 216 276 V 252 Q 216 248 213 246 Q 207 242 203 237 Q 206 232 209 228 Q 211 224 215 220 Q 215 218 216 218 Q 217 217 217 216 Q 216 211 216 206 Q 216 202 216 196 Z M 355 196 Q 357 215 358 233 Q 359 251 360 270 Q 371 272 381 271 Q 391 270 402 268 V 249 Q 402 246 399 243 Q 396 241 393 239 Q 391 237 388 235 Q 393 223 400 216 Q 400 215 401 214 Q 402 213 402 211 Q 403 207 402 203 Q 402 199 402 194 Q 379 195 355 196 Z M 467 240 Q 457 229 448 219 Q 438 209 428 199 Q 419 206 411 214 Q 403 222 397 233 L 444 267 Q 451 261 457 254 Q 462 247 467 240 Z M 350 228 Q 344 218 333 210 Q 321 202 314 199 Q 306 210 299 222 Q 292 233 284 244 Q 290 251 298 258 Q 306 264 312 267 Q 321 257 331 247 Q 341 237 350 228 Z M 244 203 Q 239 205 234 209 Q 229 213 225 218 Q 220 223 217 228 Q 213 232 212 236 Q 221 243 231 250 Q 240 257 250 265 Q 257 259 263 253 Q 269 247 274 239 Q 267 230 259 221 Q 251 212 244 203 Z M 137 234 Q 138 235 138 235 Q 135 244 131 252 Q 128 260 125 268 Q 127 272 129 268 Q 138 259 146 251 Q 154 243 162 234 Q 165 230 162 226 Q 156 220 149 214 Q 142 208 134 204 Q 131 203 130 202 Q 122 214 115 225 Q 107 237 100 248 Q 103 251 106 254 Q 108 257 111 259 Q 118 253 124 246 Q 131 240 137 234 Z M 201 34 Q 203 38 205 41 Q 207 44 208 47 Q 210 50 215 50 Q 218 49 221 49 Q 224 49 227 49 Q 231 49 234 46 Q 239 41 244 36 Q 249 32 254 27 Q 255 26 257 24 Q 259 22 261 20 Q 260 18 260 15 Q 259 13 258 10 Q 243 13 228 19 Q 214 25 201 34 Z M 350 111 Q 350 116 351 122 Q 351 127 352 132 Q 365 133 378 133 Q 390 133 404 134 V 110 Q 376 105 350 111 Z M 290 434 Q 314 434 338 433 Q 362 431 386 430 Q 390 429 391 429 Q 392 428 392 423 Q 385 422 379 422 Q 372 421 365 421 Q 343 420 322 422 Q 301 425 280 428 Q 274 429 269 430 Q 264 431 258 432 V 433 Q 262 433 265 433 Q 269 434 273 434 Q 273 436 273 437 Q 273 438 274 440 H 274 Q 274 438 275 437 Q 275 436 276 434 Z M 217 118 Q 204 115 191 115 Q 178 115 164 119 Q 164 123 164 127 Q 165 131 165 136 H 217 Z M 94 354 Q 92 368 91 382 Q 89 396 87 410 Q 87 410 88 410 Q 88 411 89 411 Q 95 401 101 392 Q 108 382 114 373 Q 112 368 111 363 Q 109 359 108 354 Z M 296 199 Q 296 201 295 203 Q 295 204 295 207 Q 295 210 290 210 Q 285 211 280 211 Q 275 211 269 211 Q 268 211 267 212 Q 266 212 264 212 Q 269 218 273 223 Q 277 229 282 233 Q 283 233 283 233 Q 292 220 303 203 Q 304 201 302 198 Q 301 198 299 198 Q 298 198 296 199 Z M 104 286 Q 109 285 114 285 Q 119 284 123 284 Q 119 280 115 276 Q 111 271 106 267 Q 106 271 105 276 Q 105 280 104 286 Z M 284 154 Q 286 149 286 144 Q 286 139 287 134 Q 279 135 271 135 Q 263 135 255 136 V 137 H 276 Q 276 141 277 145 Q 278 150 279 153 Q 281 154 284 154 Z M 240 49 Q 248 49 255 49 Q 261 49 269 48 Q 268 45 267 42 Q 267 40 266 36 Q 259 40 253 43 Q 246 46 240 48 Z M 295 266 Q 291 269 288 272 Q 286 276 283 279 H 307 Q 304 275 301 272 Q 298 269 295 266 Z M 252 280 Q 249 277 246 276 Q 244 274 241 272 V 280 Z M 436 276 Q 434 274 432 272 Q 430 270 427 269 V 276 Z M 356 277 Q 357 276 357 276 Q 354 277 353 275 Q 353 273 352 272 Q 351 273 349 275 Q 348 276 347 278 Q 349 277 352 277 Q 354 277 356 277 Z M 167 283 Q 166 281 166 276 Q 164 278 163 279 Q 161 281 159 283 Z M 116 209 Q 117 208 119 204 L 117 203 Q 117 203 116 204 Q 115 204 115 204 Q 115 206 115 209 Z M 134 282 Q 134 282 134 283 Q 134 283 133 284 H 134 Q 134 283 134 283 Q 135 282 135 282 Z" fill="black" />
  </g>
  <g class="defect" id="01">
    <path d="M 209 394 Q 188 408 206 383" fill="none" stroke="red" stroke-width="3" />
  </g>
  <g class="defect" id="02">
    <path d="M 115 118 Q 144 118 134 117" fill="none" stroke="red" stroke-width="3" />
  </g>
</svg>