<svg xmlns="http://www.w3.org/2000/svg" width="512" height="512" viewBox="0 0 512 512">
  <g class="glyph">
    <path d="M 73 39 Q 74 36 75 33 Q 76 29 77 26 Q 117 30 158 34 Q 198 38 239 42 Q 239 46 240 50 Q 240 53 240 57 Q 244 58 248 58 Q 251 59 255 59 Q 257 65 257 71 Q 257 78 258 84 Q 261 74 264 64 Q 267 55 270 46 Q 276 46 278 46 Q 278 46 278 46 Q 277 45 275 43 Q 273 42 271 41 Q 274 31 278 21 Q 281 11 285 1 Q 288 0 291 1 Q 295 1 298 2 Q 315 4 330 11 Q 346 18 360 27 L 361 28 Q 361 30 359 34 Q 364 36 369 39 Q 373 42 378 45 Q 377 48 377 50 Q 376 52 375 54 Q 379 53 383 53 Q 387 53 390 52 Q 403 51 415 52 Q 427 52 439 57 Q 460 64 475 82 Q 477 85 480 88 Q 486 92 491 98 Q 496 104 499 111 Q 498 113 496 115 Q 495 116 494 117 Q 492 119 492 120 Q 492 121 493 123 Q 498 121 504 120 Q 510 133 510 147 Q 512 167 510 186 Q 507 206 502 225 Q 496 246 488 265 Q 480 285 472 304 Q 471 306 470 308 Q 469 311 468 313 Q 468 314 466 314 Q 463 313 459 312 Q 455 311 451 310 Q 453 301 454 294 Q 454 294 453 294 Q 451 297 448 301 Q 446 304 444 308 Q 437 306 426 300 Q 414 295 407 289 Q 407 287 408 283 Q 406 282 404 280 Q 402 279 399 278 Q 398 279 396 283 Q 394 287 392 292 Q 390 297 388 301 Q 386 306 385 308 Q 391 313 397 317 Q 403 322 409 327 Q 429 341 449 356 Q 469 371 488 385 Q 491 388 490 390 Q 490 391 492 392 Q 495 395 498 397 Q 501 399 504 402 Q 505 402 506 403 Q 507 403 508 404 Q 502 420 492 433 Q 483 446 471 458 Q 441 440 411 422 Q 382 404 351 385 Q 341 409 331 432 Q 321 454 310 478 Q 305 477 301 476 Q 296 474 291 473 Q 292 470 292 467 Q 293 464 294 461 Q 293 461 292 461 Q 290 460 289 460 L 283 470 Q 273 467 265 463 Q 257 459 249 453 Q 249 452 250 450 Q 250 449 251 447 Q 246 445 241 442 Q 236 439 232 436 Q 235 429 238 421 Q 233 420 230 420 Q 226 420 222 420 Q 224 425 225 430 Q 227 434 228 439 Q 223 443 213 447 Q 203 452 192 455 Q 182 458 171 460 Q 160 462 153 461 Q 152 457 152 454 Q 151 450 151 446 H 150 Q 149 449 148 453 Q 146 457 145 460 Q 142 459 140 458 Q 138 458 135 456 Q 134 459 130 458 Q 110 453 97 439 Q 95 436 91 433 Q 88 429 85 427 Q 64 407 57 378 Q 54 368 53 358 Q 52 347 52 337 Q 52 324 53 311 Q 53 299 53 286 Q 50 283 45 280 Q 40 278 37 272 Q 35 274 33 277 Q 31 279 28 282 Q 26 278 23 275 Q 21 272 18 269 Q 19 267 20 265 Q 22 263 23 260 Q 22 259 22 258 Q 21 257 20 255 Q 18 258 16 260 Q 14 261 12 264 Q 8 261 5 258 Q 3 255 0 253 Q 21 220 42 187 Q 63 154 84 121 H 59 Q 58 116 57 112 Q 57 108 55 104 Q 52 104 49 104 Q 46 104 42 103 Q 37 83 38 63 Q 40 43 45 22 Q 52 23 58 23 Q 64 24 71 24 Q 71 28 72 32 Q 72 35 73 38 Q 72 39 72 39 Q 72 39 73 39 Z M 473 92 Q 472 91 472 90 Q 471 89 470 88 Q 457 72 441 65 Q 424 58 405 58 Q 391 58 376 61 Q 361 65 347 69 Q 344 71 343 73 Q 341 78 339 83 Q 338 88 336 92 L 321 133 Q 321 134 320 135 Q 320 136 321 138 Q 324 141 326 144 Q 329 147 332 150 H 333 Q 335 149 337 148 Q 339 146 341 145 Q 354 137 368 131 Q 381 126 396 123 Q 400 122 404 121 Q 409 121 413 121 Q 424 121 427 132 Q 427 134 427 137 Q 428 140 428 142 Q 443 168 427 170 Q 426 184 423 197 Q 419 215 413 231 Q 407 247 401 263 Q 399 264 399 265 Q 399 266 399 267 Q 405 272 413 276 Q 421 280 425 281 Q 433 271 439 261 Q 445 251 452 240 Q 452 240 453 241 Q 450 252 448 264 Q 445 276 442 288 Q 444 288 445 288 Q 445 289 446 289 Q 448 284 451 280 Q 453 276 454 271 Q 464 249 472 227 Q 480 205 484 182 Q 486 168 488 154 Q 489 141 486 127 Q 486 122 485 119 Q 485 115 483 111 Q 478 113 474 115 Q 470 116 465 117 Q 461 119 460 118 Q 458 117 455 114 Q 460 109 464 104 Q 469 98 473 92 Z M 337 177 Q 313 241 288 305 Q 264 369 240 434 Q 246 437 251 440 Q 256 443 262 446 Q 271 433 279 421 Q 286 408 295 396 L 295 396 Q 292 410 289 424 Q 286 438 283 452 Q 284 452 286 452 Q 287 453 289 453 Q 298 430 308 409 Q 317 388 327 365 Q 324 363 321 361 Q 318 360 315 358 Q 334 344 316 355 Q 316 354 317 352 Q 317 351 318 349 Q 308 333 335 320 Q 345 306 357 294 Q 360 291 361 288 Q 370 267 379 247 Q 388 227 397 207 Q 398 205 398 205 Q 398 204 398 203 Q 393 198 385 194 Q 377 189 368 186 Q 359 182 351 180 Q 343 177 337 177 Z M 279 239 Q 295 186 314 134 Q 332 83 353 31 Q 338 22 322 16 Q 307 10 289 8 Q 286 16 284 23 Q 282 30 279 38 Q 286 41 291 45 Q 294 46 296 48 Q 299 50 302 52 Q 305 53 307 55 Q 309 57 312 59 Q 303 58 294 56 Q 284 54 275 53 Q 261 97 250 139 Q 239 182 228 226 Q 233 228 240 231 Q 247 233 254 235 Q 262 237 269 238 Q 275 239 279 239 Z M 141 438 Q 158 438 172 432 Q 187 427 201 419 Q 200 416 199 414 Q 199 412 198 409 Q 196 402 189 401 Q 186 401 184 400 Q 182 399 179 399 L 170 396 Q 170 392 170 389 Q 170 386 170 383 Q 169 383 169 383 Q 168 383 167 383 Q 166 384 165 384 Q 158 386 150 388 Q 142 389 135 388 Q 119 385 114 372 Q 113 370 112 367 Q 112 365 111 363 Q 108 336 113 310 Q 115 298 117 287 Q 119 276 121 265 Q 122 261 119 257 Q 115 252 111 247 Q 107 242 103 238 Q 101 234 97 233 Q 95 233 93 232 Q 89 231 86 235 L 68 259 Q 63 266 63 273 Q 63 276 62 278 Q 61 279 61 282 Q 58 301 57 319 Q 57 338 59 356 Q 60 369 63 380 Q 66 392 73 403 Q 85 424 107 434 Q 108 435 111 435 Q 114 426 117 417 Q 120 408 123 399 Q 123 399 124 399 Q 123 407 123 415 Q 123 423 123 432 H 124 L 135 392 H 137 Q 138 403 139 415 Q 140 426 141 438 Z M 169 191 Q 167 195 166 198 Q 164 202 163 205 Q 162 207 161 209 Q 161 211 158 211 Q 154 211 154 204 Q 154 201 154 197 Q 153 194 153 190 H 148 Q 129 192 111 201 Q 110 202 110 202 Q 109 203 108 203 Q 105 207 104 210 Q 102 213 99 216 Q 105 228 113 238 Q 121 248 131 258 Q 133 257 133 256 Q 134 255 135 255 Q 140 253 144 251 Q 148 249 153 248 Q 166 243 171 256 Q 172 259 172 261 Q 173 264 174 267 Q 175 270 176 273 Q 176 276 177 279 Q 187 280 197 281 Q 207 281 217 282 V 283 Q 208 286 198 290 Q 189 294 179 297 Q 179 309 180 321 Q 180 332 179 344 Q 179 355 178 367 Q 178 378 177 390 Q 188 393 199 395 Q 210 397 221 396 Q 222 392 222 391 L 226 361 Q 227 342 228 324 Q 229 305 228 286 Q 228 273 226 260 Q 224 247 219 235 Q 216 226 211 217 Q 205 209 198 203 Q 185 193 169 191 Z M 229 101 Q 235 74 233 48 Q 195 45 157 41 Q 120 38 82 34 Q 79 44 76 53 Q 73 63 71 72 H 69 Q 67 63 66 52 Q 65 42 63 32 Q 59 32 56 32 Q 52 32 48 31 Q 45 48 43 64 Q 42 80 46 98 Q 92 99 138 99 Q 183 100 229 101 Z M 482 390 Q 451 367 422 345 Q 392 322 361 299 Q 355 304 349 312 Q 343 319 338 327 Q 332 335 328 342 Q 324 350 324 355 Q 356 374 388 394 Q 419 413 452 433 Q 455 429 459 424 Q 464 420 468 414 Q 472 408 476 401 Q 479 395 482 390 Z M 10 255 Q 23 242 34 229 Q 45 216 56 202 Q 57 202 57 202 Q 57 203 57 203 Q 49 216 43 229 Q 36 242 29 257 Q 34 260 40 264 Q 45 267 51 270 Q 80 230 109 191 Q 138 152 167 113 Q 165 108 164 108 Q 163 107 158 107 Q 151 107 143 107 Q 135 107 128 107 H 102 Q 101 108 101 109 Q 100 110 99 111 Q 77 145 55 180 Q 33 215 11 249 Q 10 251 9 252 Q 8 254 10 255 Z M 223 218 Q 229 193 235 171 Q 240 148 246 125 Q 232 124 218 124 Q 204 124 190 124 Q 191 126 192 127 Q 192 128 193 129 Q 183 142 173 156 Q 164 169 154 183 Q 157 184 160 184 Q 160 185 160 187 Q 160 189 160 191 H 161 Q 163 188 165 184 H 167 Q 195 187 213 209 Q 215 211 218 213 Q 220 215 223 218 Z M 168 273 Q 159 276 151 283 Q 148 285 145 283 Q 145 286 144 289 Q 143 292 143 295 Q 139 314 136 332 Q 134 351 135 370 Q 135 373 135 375 Q 135 377 136 380 Q 139 380 144 380 Q 149 380 154 379 Q 159 378 164 377 Q 169 375 172 373 Q 173 353 173 333 Q 173 313 172 294 Q 175 291 178 291 Q 182 290 184 288 Q 181 288 178 287 Q 174 287 172 287 Q 171 283 170 279 Q 170 276 168 273 Z M 250 383 Q 250 383 251 383 Q 262 353 273 324 Q 285 295 296 264 Q 270 261 244 251 Q 244 253 245 255 Q 248 264 249 273 Q 251 281 252 290 Q 253 308 253 326 Q 253 344 252 361 Q 251 366 251 371 Q 251 377 250 383 Z M 421 145 Q 402 148 386 155 Q 370 163 354 173 Q 369 178 382 184 Q 396 191 407 200 Q 407 202 406 203 Q 406 204 405 205 Q 407 206 408 207 Q 410 208 411 209 Q 421 177 421 145 Z M 334 161 Q 334 164 333 165 Q 333 167 332 168 Q 335 169 337 169 Q 339 169 341 170 Q 339 167 338 165 Q 336 164 334 161 Z" fill="black" />
  </g>
  <g class="defect" id="01">
    <path d="M 428 142 Q 443 168 427 170" fill="none" stroke="red" stroke-width="3" />
  </g>
  <g class="defect" id="02">
    <path d="M 318 349 Q 308 333 335 320" fill="none" stroke="red" stroke-width="3" />
  </g>
  <g class="defect" id="03">
    <path d="M 315 358 Q 334 344 316 355" fill="none" stroke="red" stroke-width="3" />
  </g>
</svg>