<svg xmlns="http://www.w3.org/2000/svg" width="512" height="512" viewBox="0 0 512 512">
  <g class="glyph">
    <path d="M 76 197 Q 71 196 66 195 Q 62 194 57 193 Q 58 189 58 187 Q 59 184 59 181 Q 56 180 55 180 Q 54 180 53 182 Q 50 187 47 191 Q 44 195 42 199 Q 41 201 40 201 Q 39 202 38 203 Q 36 201 33 199 Q 30 197 28 195 Q 28 194 29 192 Q 29 190 30 188 Q 28 187 26 185 Q 24 183 21 186 Q 19 183 16 182 Q 13 180 11 178 Q 12 176 12 174 Q 12 173 13 170 Q 11 169 8 167 Q 6 166 3 164 Q 17 123 31 82 Q 45 41 61 0 Q 83 3 101 11 Q 120 19 138 32 Q 137 35 136 36 Q 140 39 144 42 Q 148 44 151 47 Q 153 47 154 47 Q 155 47 156 47 Q 168 46 179 45 Q 191 44 203 43 Q 211 43 218 42 Q 226 42 234 41 L 239 58 H 251 Q 252 61 254 65 Q 257 56 260 48 Q 276 40 266 32 Q 270 32 274 33 Q 278 33 282 34 Q 282 33 282 33 Q 283 33 283 33 Q 279 30 277 27 Q 274 25 270 21 Q 271 17 273 13 Q 275 9 277 3 Q 299 6 317 14 Q 335 23 353 35 Q 352 38 352 40 Q 354 41 356 43 Q 358 44 361 45 Q 362 46 365 46 Q 374 45 384 45 Q 393 44 403 43 Q 418 42 432 41 Q 447 40 462 39 Q 464 43 465 47 Q 466 52 467 57 H 479 Q 483 66 484 78 Q 483 78 482 79 Q 481 79 478 80 Q 479 92 479 105 Q 478 117 475 130 H 442 L 447 135 Q 446 138 445 141 Q 443 145 442 147 V 148 Q 446 145 451 141 Q 454 143 458 146 Q 461 149 465 152 Q 465 154 464 155 Q 463 157 462 159 Q 450 182 432 199 Q 431 200 428 202 Q 429 204 430 206 Q 432 208 434 211 Q 431 213 430 215 Q 428 217 426 219 Q 426 220 427 220 Q 429 219 431 218 Q 434 217 436 215 Q 439 220 441 222 Q 443 226 449 226 Q 452 225 455 225 Q 459 225 462 224 Q 465 228 466 233 Q 467 238 468 242 Q 471 242 474 242 Q 476 242 480 242 Q 486 258 487 274 Q 489 291 488 308 Q 479 309 471 310 Q 463 311 454 313 Q 455 314 455 315 Q 455 316 457 317 Q 467 332 473 347 Q 474 350 474 351 Q 474 351 471 354 Q 470 355 469 356 Q 468 357 467 358 Q 466 359 466 360 Q 466 361 466 362 L 467 363 Q 469 362 472 361 Q 474 359 477 358 Q 479 365 481 371 Q 483 378 484 385 Q 469 391 455 397 Q 441 403 427 409 Q 429 411 429 412 Q 437 418 445 425 Q 453 431 461 437 Q 462 438 464 439 Q 466 441 465 443 Q 465 444 465 445 Q 466 445 467 446 Q 471 449 474 451 Q 478 454 482 458 Q 481 462 476 471 Q 470 481 466 486 Q 458 483 451 479 Q 444 475 436 471 Q 442 478 447 484 Q 453 490 459 495 Q 454 500 451 504 Q 447 508 443 512 Q 419 495 396 477 Q 373 458 353 436 Q 318 449 284 461 Q 250 473 213 484 Q 211 479 209 475 Q 206 470 204 465 Q 202 465 201 466 Q 199 466 197 467 Q 194 463 190 455 Q 187 447 183 437 Q 180 428 178 418 Q 175 409 175 403 Q 204 393 233 381 Q 261 370 290 357 Q 284 348 280 340 Q 265 342 249 345 Q 234 347 218 350 Q 217 347 217 344 Q 217 341 217 338 H 215 Q 215 341 215 344 Q 214 347 213 350 Q 203 352 193 354 Q 182 355 172 357 Q 170 352 168 347 Q 166 343 165 339 Q 163 339 161 339 Q 158 339 156 340 Q 156 375 157 410 Q 157 444 157 480 Q 125 489 91 484 Q 90 480 90 476 Q 89 473 89 469 Q 85 468 81 468 Q 77 467 73 467 Q 70 441 69 415 Q 67 389 64 362 L 75 356 Q 78 354 78 353 Q 78 353 78 349 H 63 Q 62 341 62 334 Q 61 326 60 318 Q 57 319 54 320 Q 52 322 49 323 Q 44 318 41 314 Q 38 309 35 305 Q 31 306 28 303 Q 10 277 0 249 V 247 Q 1 246 2 246 Q 2 245 3 244 Q 23 234 42 223 Q 48 199 81 201 Q 81 201 84 197 Q 86 197 89 196 Q 98 191 107 187 Q 116 182 125 177 Q 126 177 127 176 Q 127 175 129 175 Q 126 174 124 172 Q 122 171 119 170 Q 120 167 120 165 Q 120 164 121 162 Q 116 160 112 158 Q 108 156 104 154 Q 103 156 102 158 Q 98 167 94 176 Q 90 185 86 194 Q 85 196 84 197 Z M 322 202 Q 322 203 322 204 Q 322 205 322 206 Q 324 213 326 220 Q 327 226 330 233 Q 330 236 331 238 Q 337 237 343 237 Q 349 236 355 235 Q 343 225 334 214 Q 331 211 328 208 Q 325 205 322 202 Q 323 201 323 199 Q 323 198 324 197 Q 331 188 339 180 Q 347 172 356 164 Q 357 163 361 161 Q 355 157 349 154 Q 350 152 350 151 Q 351 150 351 149 Q 347 146 342 143 Q 337 140 333 137 Q 332 134 334 133 Q 335 131 334 128 Q 333 130 329 137 Q 325 145 321 154 Q 316 163 313 171 Q 309 179 309 181 H 315 Q 316 184 316 185 Q 317 188 318 192 Q 319 195 320 198 Q 321 199 321 200 Q 321 201 322 202 Z M 448 332 Q 442 315 430 301 Q 369 330 307 357 Q 245 384 182 408 Q 184 422 188 434 Q 193 446 199 458 Q 266 437 329 413 Q 393 389 458 363 Q 457 360 456 357 Q 455 354 454 350 Q 438 357 423 363 Q 408 369 393 374 Q 407 364 421 354 Q 436 344 448 332 Z M 293 171 Q 287 169 286 172 Q 285 175 283 178 Q 280 177 277 176 Q 274 175 270 175 Q 269 174 267 174 Q 265 174 263 174 Q 248 178 233 185 Q 230 186 227 188 Q 240 231 256 273 Q 272 315 295 354 Q 309 348 323 342 Q 337 337 351 330 Q 330 292 317 252 Q 303 212 293 171 Z M 131 447 Q 131 419 131 391 Q 131 363 130 335 Q 130 323 130 311 Q 130 298 130 286 Q 130 282 129 278 Q 129 275 129 270 Q 126 270 123 270 Q 121 269 118 269 Q 113 268 107 270 Q 99 275 90 278 Q 83 281 77 284 Q 70 287 63 290 Q 65 303 66 316 Q 67 329 68 342 Q 82 342 95 341 Q 109 340 122 339 Q 121 340 120 340 Q 119 341 118 341 Q 107 347 96 353 Q 85 358 74 364 Q 70 365 70 366 Q 69 367 70 370 Q 71 386 73 403 Q 74 419 76 436 Q 76 442 77 448 Q 77 454 78 460 Q 106 463 131 457 Z M 32 297 Q 69 279 106 263 Q 144 247 182 233 Q 179 215 173 200 Q 166 184 156 170 Q 117 189 81 209 Q 44 229 7 250 Q 9 255 11 262 Q 14 269 18 276 Q 21 283 25 289 Q 29 294 32 297 Z M 19 174 Q 20 175 20 175 Q 20 175 21 175 Q 31 159 41 144 Q 52 128 62 111 Q 63 111 63 112 Q 63 112 63 112 Q 60 126 56 141 Q 53 155 49 170 Q 52 171 56 171 Q 59 172 62 173 Q 79 138 96 104 Q 112 69 129 34 Q 114 25 99 18 Q 83 11 66 8 Q 52 45 39 81 Q 26 118 13 156 H 14 Q 19 149 24 143 Q 29 137 34 130 Q 34 130 35 131 Q 31 141 27 152 Q 23 163 19 174 Z M 279 169 Q 295 136 312 103 Q 328 71 344 38 Q 339 34 331 30 Q 324 25 315 21 Q 306 17 297 14 Q 287 11 281 11 Q 280 13 279 15 Q 279 17 278 19 Q 285 25 291 30 Q 298 36 305 42 Q 305 42 304 42 Q 304 43 304 43 Q 295 42 287 41 Q 279 41 270 39 Q 260 67 250 94 Q 241 122 230 149 Q 235 152 241 155 Q 247 158 255 161 Q 262 164 269 166 Q 275 169 279 169 Z M 377 254 Q 374 251 372 249 Q 370 246 367 244 Q 365 242 361 242 Q 354 243 347 243 Q 341 244 334 245 Q 331 245 328 246 Q 325 246 322 246 Q 327 261 333 275 Q 339 289 345 303 Q 375 299 404 294 Q 434 289 463 284 Q 465 258 458 232 H 455 Q 442 233 430 234 Q 417 236 405 237 Q 402 237 400 238 Q 398 239 396 241 Q 391 244 387 247 Q 382 251 377 254 Z M 225 47 Q 207 49 189 51 Q 171 53 153 54 Q 147 55 141 56 Q 135 57 129 57 Q 125 57 124 60 Q 119 70 115 79 Q 110 89 105 98 Q 103 101 106 107 Q 137 107 168 107 Q 199 107 230 108 Q 233 92 233 77 Q 233 62 228 47 Z M 266 315 Q 259 299 253 285 Q 247 270 241 254 Q 218 257 195 259 Q 172 261 149 264 Q 159 282 150 299 Q 151 315 158 332 Q 166 331 174 329 Q 181 328 189 327 Q 191 317 193 308 Q 194 298 197 288 Q 204 307 206 324 Q 221 322 236 319 Q 251 317 266 315 Z M 323 103 Q 355 105 387 105 Q 420 105 452 106 Q 454 97 455 87 Q 455 78 454 69 Q 441 68 428 68 Q 415 68 403 67 V 66 Q 417 63 431 61 Q 445 58 460 55 Q 459 53 458 51 Q 458 49 458 46 H 452 Q 437 47 423 49 Q 409 50 394 51 Q 382 52 371 53 Q 359 53 347 54 Q 343 54 342 58 Q 338 68 333 78 Q 328 87 323 97 Q 322 100 323 103 Z M 387 433 Q 403 437 417 445 Q 431 453 445 460 Q 448 457 451 451 Q 454 446 455 442 Q 455 442 454 442 Q 440 431 427 420 Q 414 409 402 396 Q 399 394 396 395 Q 383 400 371 405 Q 358 410 346 414 Q 344 416 342 416 Q 361 436 381 453 Q 402 469 424 485 Q 426 483 427 482 Q 429 480 431 478 Q 420 467 409 455 Q 397 444 387 433 Z M 110 149 Q 111 149 111 149 Q 119 154 128 157 Q 136 161 145 165 Q 147 165 149 164 Q 151 164 153 163 Q 155 162 157 161 Q 159 164 162 167 Q 164 170 166 173 Q 167 174 169 177 Q 172 178 175 179 Q 178 181 181 182 Q 189 173 195 163 Q 201 153 206 142 Q 196 135 186 129 Q 177 122 167 115 Q 166 114 165 114 Q 164 114 163 114 Q 155 114 146 114 Q 138 114 130 114 Q 126 114 125 117 Q 123 121 121 124 Q 118 127 117 131 Q 115 135 113 139 Q 111 144 110 149 Z M 364 231 Q 375 222 386 213 Q 397 204 407 193 Q 404 188 400 183 Q 397 179 394 174 Q 394 173 393 173 Q 388 170 383 167 Q 378 163 373 161 Q 347 177 330 200 Q 339 208 347 216 Q 355 224 364 231 Z M 419 121 Q 417 119 415 118 Q 414 116 412 115 Q 409 112 405 112 Q 400 112 395 112 Q 391 111 387 111 H 356 Q 353 111 352 113 Q 345 123 341 134 Q 354 142 367 150 Q 380 157 394 165 Q 401 154 407 143 Q 413 132 419 121 Z M 238 248 Q 233 231 228 216 Q 223 201 218 185 Q 214 191 209 198 Q 205 204 199 209 Q 198 207 196 207 Q 195 206 192 205 Q 195 211 197 216 Q 199 222 201 228 Q 203 234 204 239 Q 205 245 207 251 Q 215 250 223 249 Q 230 249 238 248 Z M 434 133 Q 423 141 414 149 Q 404 157 394 165 Q 399 168 403 170 Q 407 173 411 175 Q 420 167 427 158 Q 434 148 439 138 Q 438 137 437 135 Q 435 134 434 133 Z M 378 244 Q 382 242 388 238 Q 394 234 399 229 Q 405 225 410 219 Q 415 214 418 210 Q 418 209 417 209 Q 417 208 416 207 Q 403 213 390 219 Q 378 226 365 232 Q 369 236 372 238 Q 375 241 378 244 Z M 219 184 Q 225 181 231 178 Q 237 175 244 172 Q 242 171 241 170 Q 240 170 239 169 Q 239 167 239 165 Q 239 164 240 163 Q 238 162 236 161 Q 234 159 232 158 Q 229 165 226 171 Q 222 178 219 184 Z M 204 132 Q 207 134 210 136 Q 212 138 214 139 Q 214 140 214 142 Q 214 143 213 144 Q 216 145 218 147 Q 220 148 222 149 Q 223 145 225 141 Q 227 137 228 132 Z" fill="black" />
  </g>
  <g class="defect" id="01">
    <path d="M 260 48 Q 276 40 266 32" fill="none" stroke="red" stroke-width="3" />
  </g>
  <g class="defect" id="02">
    <path d="M 42 223 Q 48 199 81 201" fill="none" stroke="red" stroke-width="3" />
  </g>
  <g class="defect" id="03">
    <path d="M 149 264 Q 159 282 150 299" fill="none" stroke="red" stroke-width="3" />
  </g>
</svg>