<svg xmlns="http://www.w3.org/2000/svg" width="512" height="512" viewBox="0 0 512 512">
  <g class="glyph">
    <path d="M 321 99 Q 323 100 326 102 Q 326 105 326 108 Q 325 111 325 114 Q 365 117 405 118 Q 454 103 484 122 Q 485 126 486 130 Q 486 134 487 138 Q 491 139 494 139 Q 498 139 502 139 Q 503 144 503 149 Q 504 154 505 160 Q 500 162 496 164 Q 491 166 486 169 Q 486 170 487 170 Q 491 169 495 169 Q 500 169 505 169 Q 505 179 504 188 Q 502 197 500 207 Q 480 207 460 208 Q 440 208 419 210 Q 418 212 417 215 Q 417 218 416 221 Q 418 221 421 221 Q 436 224 448 231 Q 460 239 470 250 Q 472 252 474 254 Q 476 256 478 258 Q 502 280 509 312 Q 512 329 511 345 Q 510 361 506 378 Q 502 398 495 416 Q 488 435 479 453 Q 479 454 479 454 Q 479 454 478 455 Q 469 455 455 449 Q 456 447 456 444 Q 457 441 458 438 Q 457 438 457 438 Q 457 438 456 438 Q 455 439 454 441 Q 453 443 452 445 Q 469 462 449 444 Q 448 443 447 443 Q 445 442 444 441 Q 443 441 441 441 Q 436 442 432 440 Q 429 437 424 435 Q 422 433 420 432 Q 418 431 416 430 Q 417 428 417 427 Q 418 425 418 424 Q 414 421 409 418 Q 404 415 399 412 Q 407 390 414 367 Q 421 345 420 319 Q 412 322 406 326 Q 402 328 399 329 Q 396 331 393 333 Q 391 330 389 329 Q 380 360 373 391 Q 366 422 358 454 Q 324 454 292 441 Q 292 439 292 438 Q 292 437 293 435 Q 293 434 293 433 Q 293 432 293 430 Q 291 429 287 428 Q 286 436 285 443 Q 284 449 283 457 Q 249 461 216 451 V 438 Q 212 437 208 436 Q 203 435 198 433 Q 199 426 200 420 Q 200 414 200 408 Q 201 401 202 395 Q 202 389 203 382 Q 203 379 202 378 Q 198 374 193 369 Q 188 365 182 361 Q 183 380 183 399 Q 183 418 184 437 Q 177 439 171 440 Q 165 441 157 442 Q 156 431 153 423 Q 151 423 150 425 Q 150 426 150 428 Q 150 433 149 439 Q 149 445 149 451 Q 149 452 149 453 Q 149 454 149 455 Q 145 455 142 454 Q 138 454 135 454 Q 135 449 134 446 Q 134 442 133 438 Q 129 437 125 437 Q 122 437 118 436 Q 117 431 117 428 Q 117 424 116 420 Q 113 420 110 419 Q 107 419 105 419 Q 101 418 100 418 Q 100 417 100 413 Q 99 404 98 395 Q 98 386 97 377 Q 94 379 92 381 Q 90 384 88 386 Q 87 388 85 390 Q 83 392 81 395 Q 79 398 77 400 Q 75 402 72 405 Q 68 402 64 400 Q 60 398 56 395 Q 58 392 59 389 Q 60 385 61 382 Q 61 382 60 382 Q 59 383 58 384 Q 57 385 55 386 Q 50 385 47 383 Q 43 381 39 378 Q 40 374 37 370 Q 31 364 26 359 Q 20 354 14 348 Q 13 347 13 346 Q 12 345 11 344 Q 14 338 18 332 Q 21 327 25 321 Q 32 311 38 300 Q 45 290 52 280 Q 54 276 53 271 Q 52 269 51 265 Q 50 262 49 259 Q 46 259 43 259 Q 41 260 37 260 Q 32 246 29 231 Q 27 216 27 200 Q 30 200 33 198 V 197 Q 29 197 25 196 Q 21 196 17 196 Q 17 186 19 178 Q 26 177 34 177 Q 42 177 50 176 Q 51 172 48 173 Q 43 174 41 174 Q 30 152 20 130 Q 10 108 0 86 Q 7 80 18 75 Q 29 69 37 67 Q 39 70 41 73 Q 43 76 45 79 H 46 Q 45 76 45 74 Q 45 71 44 68 Q 57 64 71 63 Q 72 66 73 68 Q 74 71 75 74 H 75 Q 75 67 75 60 Q 74 53 74 46 Q 73 40 73 33 Q 72 26 72 19 Q 92 11 113 11 Q 134 10 155 14 V 28 Q 159 29 164 30 Q 168 30 172 32 V 48 Q 170 48 169 48 Q 167 49 165 49 Q 166 50 167 50 Q 167 50 168 51 Q 170 51 171 51 Q 173 51 173 53 L 175 55 Q 187 58 196 63 Q 206 68 216 74 H 216 Q 213 56 214 37 Q 215 18 219 0 Q 276 2 331 4 Q 386 5 443 7 Q 443 12 443 16 Q 443 20 444 24 Q 445 25 446 24 Q 447 24 447 22 Q 449 18 449 14 Q 450 13 451 11 Q 451 10 452 8 Q 461 9 469 9 Q 478 9 487 9 Q 488 13 489 17 Q 490 21 491 26 Q 494 26 498 26 Q 501 26 505 27 Q 509 44 508 60 Q 508 77 505 94 Q 482 95 459 95 Q 436 96 413 97 Q 390 98 367 98 Q 345 98 322 99 Q 321 99 321 99 Z M 258 433 Q 263 390 269 348 Q 274 305 279 262 Q 271 262 263 261 Q 256 260 249 256 Q 251 255 252 254 Q 253 254 254 253 Q 260 249 266 245 Q 273 242 279 237 Q 282 236 282 232 Q 283 223 284 215 Q 285 206 286 197 Q 290 173 293 149 Q 296 126 299 102 L 300 89 Q 283 81 266 82 Q 249 82 232 83 Q 231 87 231 91 Q 231 94 230 98 Q 229 116 227 134 Q 226 152 224 170 Q 223 184 222 198 Q 221 212 220 226 Q 219 243 218 261 Q 216 278 214 296 Q 213 301 218 305 Q 220 309 223 313 Q 227 317 229 321 Q 226 325 222 329 Q 219 333 215 337 Q 213 339 212 342 Q 211 344 210 348 Q 209 363 208 378 Q 206 393 205 409 Q 205 413 205 418 Q 205 423 204 428 Q 229 435 258 433 Z M 223 76 Q 288 75 352 73 Q 415 72 480 69 Q 480 66 481 64 Q 482 61 482 58 Q 484 38 482 19 Q 481 15 477 15 H 469 H 456 Q 452 27 448 38 Q 444 50 440 63 Q 435 50 436 38 Q 451 26 435 14 Q 382 12 329 10 Q 277 9 223 7 Q 220 25 219 42 Q 219 59 223 76 Z M 323 195 Q 311 251 301 306 Q 290 362 281 418 Q 307 428 333 428 Q 347 368 362 310 Q 377 251 393 192 Q 376 193 358 193 Q 341 194 323 195 Z M 376 306 Q 377 305 379 304 Q 380 304 382 302 Q 387 300 392 298 Q 397 296 402 294 Q 409 292 413 293 Q 416 295 420 301 Q 422 304 423 308 Q 424 311 425 314 Q 425 317 425 321 Q 426 331 425 340 Q 424 350 422 359 Q 419 371 415 383 Q 412 395 407 407 V 409 L 412 412 Q 416 402 421 393 Q 426 384 431 375 Q 431 385 430 395 Q 429 406 424 416 Q 426 417 428 417 Q 429 417 431 418 Q 432 415 434 413 Q 435 410 436 407 Q 443 393 448 378 Q 453 363 457 348 Q 457 347 458 346 Q 459 344 459 343 Q 463 344 466 345 Q 461 366 456 387 Q 451 407 446 428 Q 448 429 451 430 Q 453 430 456 431 Q 456 430 456 429 Q 457 429 457 428 Q 464 412 471 395 Q 477 378 481 360 Q 484 345 486 331 Q 487 316 484 300 Q 480 280 470 263 Q 459 247 439 236 Q 416 224 391 229 Q 391 230 391 231 Q 386 249 382 265 Q 377 282 373 299 Q 371 304 376 306 Z M 296 189 Q 342 187 386 185 Q 431 184 477 183 Q 478 177 479 171 Q 479 166 479 160 Q 464 161 450 162 Q 435 164 421 165 Q 435 158 450 152 Q 465 146 479 139 L 478 129 Q 434 127 391 125 Q 347 123 304 121 Q 302 138 300 155 Q 298 172 296 189 Z M 196 178 Q 153 179 110 181 Q 67 182 23 184 V 189 Q 35 190 46 191 Q 57 192 68 193 V 193 Q 59 197 51 200 Q 42 203 33 205 Q 32 210 33 217 Q 33 223 34 230 Q 35 237 37 243 Q 39 249 41 251 Q 80 246 119 241 Q 159 236 199 231 Q 202 205 196 178 Z M 151 172 Q 150 139 149 106 Q 148 73 147 40 Q 133 38 120 37 Q 107 36 94 35 V 34 Q 107 31 120 29 Q 133 27 146 25 Q 147 20 143 20 Q 129 18 116 18 Q 103 18 89 21 Q 87 22 84 22 Q 81 23 79 24 V 27 Q 80 45 81 63 Q 82 81 83 99 Q 84 111 87 121 Q 89 126 90 130 Q 91 135 93 141 Q 94 144 95 147 Q 96 150 97 153 Q 91 157 87 159 Q 88 164 88 167 Q 88 170 88 175 Q 104 174 119 173 Q 135 172 151 172 Z M 123 426 Q 124 402 125 378 Q 127 355 128 331 Q 131 342 133 352 Q 135 362 137 373 Q 139 384 140 395 Q 142 406 144 416 Q 146 416 148 416 Q 150 416 151 415 Q 156 414 158 414 Q 157 371 155 329 Q 154 287 153 244 Q 137 246 123 248 Q 108 250 93 252 Q 96 292 99 332 Q 102 371 105 412 Q 105 412 105 412 H 107 Q 107 411 108 409 Q 110 402 111 397 Q 112 391 114 384 Q 114 384 116 381 Q 117 392 119 404 Q 120 415 122 426 Z M 43 166 Q 68 161 88 149 Q 82 129 76 110 Q 71 91 65 71 Q 61 72 58 72 Q 55 72 51 73 Q 51 76 51 77 Q 51 79 52 81 Q 53 85 53 88 Q 54 92 55 96 Q 56 99 53 100 Q 50 102 48 98 Q 47 97 46 95 Q 44 94 43 91 Q 41 87 38 83 Q 35 79 32 75 Q 25 77 19 81 Q 13 84 7 88 Q 16 108 25 127 Q 34 146 43 166 Z M 51 377 Q 61 366 71 355 Q 80 344 90 333 Q 91 331 91 328 Q 91 318 90 308 Q 90 298 89 288 Q 89 285 88 284 Q 82 281 76 277 Q 70 274 64 271 Q 52 290 41 307 Q 30 325 19 343 Q 25 351 36 359 Q 42 353 49 348 Q 55 343 61 338 Q 61 338 62 339 Q 58 348 54 357 Q 51 366 46 375 Q 48 375 49 376 Q 50 376 51 377 Z M 178 154 Q 189 137 199 121 Q 210 104 220 88 Q 208 78 195 71 Q 181 64 166 60 Q 164 66 161 71 Q 159 76 157 82 Q 156 86 156 89 Q 156 98 156 106 Q 156 115 156 123 Q 156 128 156 132 Q 156 136 157 140 Q 157 144 160 146 Q 165 149 169 150 Q 174 152 178 154 Z M 180 270 Q 175 274 171 277 Q 167 281 163 284 Q 160 286 160 290 Q 161 294 161 298 Q 161 302 161 306 Q 162 312 162 318 Q 162 324 162 330 Q 162 333 164 335 L 185 352 Q 189 350 195 346 Q 200 342 205 338 Q 210 333 214 328 Q 219 323 220 320 Q 210 308 200 295 Q 191 283 180 270 Z M 207 289 Q 207 288 208 288 Q 210 280 210 273 Q 210 265 211 257 H 207 Q 201 258 196 258 Q 190 259 184 260 Q 183 260 181 260 Q 180 260 178 261 Q 177 261 177 263 Q 179 262 180 262 Q 181 262 182 261 Q 187 268 193 274 Q 199 280 205 285 Q 206 286 207 289 Z M 216 188 Q 218 178 218 168 Q 219 159 220 149 Q 219 149 219 149 Q 215 154 211 160 Q 208 166 204 172 Q 203 173 203 175 Q 204 178 204 181 Q 205 185 205 188 Q 208 188 211 188 Q 214 188 216 188 Z M 302 261 Q 297 263 293 266 Q 288 269 286 271 H 300 Q 300 269 301 266 Q 301 264 302 261 Z M 88 276 Q 88 272 84 273 Q 84 274 88 276 Z" fill="black" />
  </g>
  <g class="defect" id="01">
    <path d="M 452 445 Q 469 462 449 444" fill="none" stroke="red" stroke-width="3" />
  </g>
  <g class="defect" id="02">
    <path d="M 436 38 Q 451 26 435 14" fill="none" stroke="red" stroke-width="3" />
  </g>
  <g class="defect" id="03">
    <path d="M 405 118 Q 454 103 484 122" fill="none" stroke="red" stroke-width="3" />
  </g>
</svg>