<svg xmlns="http://www.w3.org/2000/svg" width="512" height="512" viewBox="0 0 512 512">
  <g class="glyph">
    <path d="M 398 299 Q 400 309 403 317 Q 407 326 411 333 Q 413 333 414 332 Q 416 332 419 332 Q 424 339 427 348 Q 430 358 433 367 Q 439 366 445 364 Q 447 369 450 373 Q 452 378 455 383 L 461 382 Q 466 388 470 397 Q 474 407 477 417 Q 479 428 481 438 Q 482 448 482 455 Q 462 460 441 465 Q 440 459 440 455 Q 440 450 439 445 H 438 Q 436 450 435 455 Q 434 460 432 466 Q 379 479 326 489 Q 273 498 218 505 Q 217 501 216 496 Q 214 492 213 487 Q 210 488 207 488 Q 204 488 202 488 Q 199 484 198 478 Q 196 471 195 464 Q 196 463 197 462 Q 199 461 201 460 H 193 Q 193 455 192 451 Q 192 447 191 441 Q 177 446 164 451 Q 151 456 137 461 Q 123 466 110 471 Q 97 476 83 480 Q 81 476 79 472 Q 78 467 76 463 H 76 Q 75 467 74 471 Q 74 475 73 479 Q 68 481 64 483 Q 59 485 53 487 Q 50 482 48 477 Q 46 472 43 467 Q 41 467 39 468 Q 38 469 35 469 Q 24 452 21 433 Q 18 414 17 393 Q 34 389 50 385 Q 66 381 83 377 V 376 Q 81 375 79 375 Q 78 375 76 374 Q 44 370 42 353 Q 41 352 40 351 Q 40 350 39 349 Q 24 339 19 325 Q 13 311 14 295 Q 15 282 19 270 Q 23 259 29 247 Q 30 242 33 238 Q 35 234 38 230 Q 35 227 33 225 Q 31 223 29 221 Q 6 202 2 172 Q 0 159 2 147 Q 5 135 10 123 Q 13 117 15 112 Q 18 107 21 101 Q 25 102 29 103 Q 34 104 38 105 Q 38 104 38 104 Q 39 104 39 104 Q 36 101 33 99 Q 29 96 26 93 Q 40 71 57 51 Q 74 32 92 11 Q 96 14 100 17 Q 103 19 107 22 Q 116 32 125 41 Q 135 50 143 60 Q 148 65 152 71 Q 156 78 160 84 Q 161 85 162 86 Q 163 88 164 90 Q 159 95 154 99 Q 148 104 143 110 Q 146 111 148 113 Q 150 115 152 117 Q 154 120 157 121 Q 159 122 159 126 Q 159 128 161 128 Q 165 131 169 134 Q 173 138 177 141 Q 176 143 174 145 Q 173 147 172 150 Q 174 148 176 150 Q 178 151 179 153 Q 180 154 182 156 Q 183 158 185 160 Q 191 158 196 155 Q 201 153 207 150 Q 197 141 188 132 Q 178 122 168 113 Q 173 107 178 101 Q 183 96 188 90 Q 170 66 163 40 Q 162 35 161 30 Q 160 25 159 20 Q 167 16 176 13 Q 188 9 200 6 Q 211 3 224 2 Q 239 0 254 2 Q 268 3 282 11 Q 286 13 289 15 Q 293 18 296 21 Q 296 22 295 23 Q 295 24 294 26 Q 298 29 301 29 Q 307 34 312 40 Q 311 43 315 47 Q 316 47 318 46 Q 319 45 321 45 Q 319 39 318 33 Q 317 27 316 21 Q 317 20 318 20 Q 319 20 320 19 Q 335 13 349 9 Q 364 5 380 3 Q 403 17 406 2 Q 419 3 431 8 Q 449 15 463 31 Q 464 33 467 35 Q 479 45 486 56 Q 492 68 495 82 Q 498 92 498 103 Q 498 113 497 123 Q 496 144 495 164 Q 493 185 490 205 Q 489 213 488 220 Q 488 227 487 235 Q 476 236 464 236 Q 452 235 441 233 Q 447 237 453 241 Q 459 244 465 248 V 249 H 469 Q 475 253 481 256 Q 488 259 495 263 Q 494 265 494 266 Q 494 268 494 271 Q 498 273 502 276 Q 507 278 512 280 V 283 Q 504 313 485 336 Q 464 327 442 317 Q 421 308 398 299 Z M 424 292 Q 428 294 429 294 Q 438 297 445 301 Q 453 304 460 307 Q 463 308 466 309 Q 473 299 478 289 Q 484 278 487 266 Q 482 264 477 261 Q 473 259 469 256 Q 461 263 453 269 Q 446 276 438 282 Q 434 284 431 287 Q 428 290 424 292 Q 427 289 427 288 L 452 253 Q 453 252 453 251 Q 453 250 454 249 Q 434 238 413 227 Q 393 216 372 204 Q 374 209 375 213 Q 377 217 378 221 Q 376 223 373 223 Q 364 229 356 234 Q 347 239 339 243 Q 332 247 334 253 Q 337 254 341 256 Q 345 259 350 256 Q 353 254 357 253 Q 360 252 364 251 Q 367 255 369 258 Q 372 262 373 266 Q 376 271 382 274 Q 392 278 402 282 Q 411 286 421 291 Q 423 292 424 292 Z M 157 277 Q 154 278 151 278 Q 140 282 129 285 Q 118 289 108 291 Q 100 293 91 293 Q 85 293 83 289 Q 82 286 84 280 Q 85 278 86 277 Q 102 252 120 230 Q 138 207 157 186 Q 161 181 166 176 Q 170 171 175 166 Q 171 159 166 153 Q 162 147 157 141 Q 154 143 152 144 Q 149 146 146 147 Q 143 149 141 150 Q 139 152 136 153 Q 134 154 132 156 Q 129 158 127 159 Q 133 150 139 142 Q 145 134 151 124 Q 147 122 143 119 Q 140 116 136 113 Q 134 115 134 116 Q 95 159 63 207 Q 52 221 43 236 Q 35 251 29 267 Q 25 277 23 287 Q 22 297 23 307 Q 24 323 34 334 Q 44 345 59 349 Q 70 352 80 352 Q 90 352 100 350 Q 133 344 164 330 Q 168 329 172 327 Q 176 326 180 323 Q 179 318 178 314 Q 159 318 142 321 Q 124 324 106 328 Q 106 328 106 328 Q 105 328 105 327 L 177 291 Q 176 290 174 286 Q 168 288 163 289 Q 157 291 151 292 Q 150 290 150 289 Q 149 287 148 285 Q 151 284 154 283 Q 157 282 159 280 Q 158 278 157 277 Z M 463 210 Q 463 209 463 209 Q 463 208 463 207 Q 465 195 466 182 Q 468 169 469 157 Q 471 144 471 132 Q 472 120 473 107 Q 474 96 473 85 Q 473 74 470 64 Q 459 21 417 10 Q 408 8 399 8 Q 390 8 382 9 Q 367 11 354 15 Q 341 19 328 23 L 324 25 Q 327 41 333 55 Q 339 68 348 81 Q 349 80 351 80 Q 353 79 354 79 Q 361 76 369 73 Q 377 70 386 68 Q 389 68 392 67 Q 396 67 399 67 Q 409 66 412 69 Q 416 72 417 82 Q 420 94 420 107 Q 420 120 419 133 Q 418 149 417 166 Q 416 183 415 200 V 205 Q 420 207 427 208 Q 434 209 441 210 Q 447 211 453 211 Q 459 211 463 210 Z M 259 198 Q 262 199 264 199 Q 266 199 269 200 Q 271 201 274 199 Q 282 193 291 188 Q 299 183 307 177 Q 310 175 310 171 Q 311 164 312 157 Q 313 151 313 143 Q 314 129 315 115 Q 315 101 316 85 Q 316 68 309 49 Q 308 46 306 43 Q 304 39 301 36 Q 291 43 281 49 Q 271 56 261 63 L 260 63 Q 267 52 274 42 Q 280 33 287 22 Q 285 21 284 20 Q 282 19 281 18 Q 270 12 258 10 Q 246 7 234 8 Q 221 9 208 11 Q 196 14 183 18 Q 179 20 175 21 Q 171 23 167 24 Q 170 40 176 54 Q 182 68 191 81 Q 198 78 204 75 Q 211 72 217 70 Q 218 70 219 69 Q 220 68 221 69 Q 223 70 225 70 Q 227 69 228 68 Q 238 66 247 67 Q 255 67 258 74 Q 259 76 259 77 Q 260 78 260 79 Q 260 84 261 89 Q 261 93 262 98 Q 263 117 262 136 Q 261 145 261 155 Q 261 165 260 174 Q 260 180 260 186 Q 260 192 259 198 Z M 211 480 Q 231 477 251 474 Q 272 471 292 467 Q 321 462 349 456 Q 377 450 405 445 Q 410 443 411 439 Q 414 429 417 419 Q 420 409 423 400 Q 423 398 424 396 H 426 Q 427 407 428 417 Q 430 427 431 438 Q 438 436 445 435 Q 451 433 458 432 Q 457 416 453 401 Q 449 386 442 373 Q 381 391 321 406 Q 261 422 199 434 Q 200 439 200 443 Q 201 448 201 453 Q 212 452 221 450 Q 231 448 241 447 Q 242 449 242 451 Q 242 452 243 454 Q 233 457 224 461 Q 214 465 204 469 Q 204 471 205 474 Q 205 476 206 477 Q 207 479 207 480 Z M 95 21 Q 79 39 64 56 Q 49 73 37 92 Q 42 96 47 100 Q 52 103 56 108 Q 58 109 60 111 Q 60 112 60 114 Q 58 116 57 116 H 54 L 29 110 H 25 Q 11 132 9 159 Q 7 185 23 205 Q 28 210 32 214 Q 36 218 42 221 Q 51 209 59 198 Q 67 186 76 173 Q 74 173 70 173 Q 63 171 63 164 Q 64 159 65 157 Q 67 150 71 144 Q 76 138 80 132 Q 92 116 106 102 Q 120 88 134 73 Q 135 72 136 71 Q 129 56 119 43 Q 109 31 95 21 Z M 176 270 Q 177 274 180 280 Q 183 286 187 292 Q 190 298 193 303 Q 197 308 199 310 Q 242 288 285 266 Q 327 243 369 218 Q 358 188 335 166 Q 296 194 256 219 Q 216 244 176 270 Z M 172 361 Q 98 381 25 399 Q 26 415 29 431 Q 32 446 40 461 Q 42 460 43 460 Q 45 459 47 459 Q 51 458 51 453 Q 52 448 52 443 Q 53 438 53 433 Q 53 432 54 430 Q 54 429 54 428 Q 55 424 58 424 Q 61 424 62 428 Q 63 429 63 432 Q 65 438 67 443 Q 68 449 71 455 Q 100 444 129 433 Q 158 423 187 412 Q 183 386 172 361 Z M 380 310 Q 378 296 373 284 Q 369 271 361 260 Q 324 274 288 289 Q 252 303 215 318 Q 218 339 229 357 Q 267 346 305 335 Q 342 323 380 310 Z M 247 410 Q 288 399 329 388 Q 370 378 410 366 Q 409 354 406 344 Q 403 333 397 322 L 236 376 Q 237 385 240 394 Q 242 402 247 410 Z M 206 217 Q 207 217 207 217 Q 218 210 229 203 Q 239 196 250 189 Q 252 188 252 186 Q 252 185 253 184 Q 253 176 253 168 Q 253 161 254 153 Q 255 145 249 139 Q 232 147 215 155 Q 198 163 182 171 Q 186 183 191 195 Q 197 207 206 217 Z M 186 202 Q 168 220 153 239 Q 137 258 123 278 Q 123 279 123 279 Q 123 279 124 280 Q 133 277 142 274 Q 152 271 161 268 Q 164 273 166 279 Q 168 282 171 280 Q 170 277 169 274 Q 167 271 166 267 Q 179 259 191 252 Q 203 244 215 236 Q 214 235 214 234 Q 213 233 212 232 Q 210 230 209 227 Q 208 224 204 226 Q 203 226 203 225 L 203 224 Q 202 223 201 222 Q 200 221 199 220 Q 196 216 193 211 Q 190 207 186 202 Z M 193 371 Q 200 383 204 397 Q 208 410 211 424 Q 219 422 226 421 Q 234 419 242 417 Q 236 406 233 395 Q 229 384 228 372 Q 230 371 232 370 Q 233 370 235 369 Q 234 367 233 364 Q 230 364 228 365 Q 227 365 224 366 Q 220 359 217 352 Q 215 345 212 337 Q 211 335 211 334 Q 210 333 209 332 Q 207 329 205 326 Q 203 322 201 320 Q 199 320 198 320 Q 197 320 197 320 Q 195 317 193 318 Q 191 319 190 320 Q 185 322 188 326 Q 191 325 194 325 Q 197 324 200 323 Q 203 328 204 335 Q 205 342 205 346 Q 198 349 192 352 Q 185 355 178 358 Q 180 362 182 366 Q 183 369 185 373 Q 188 372 189 371 Q 191 371 193 371 Z M 403 138 Q 390 143 377 148 Q 364 152 352 157 Q 353 164 355 170 Q 358 177 360 183 Q 364 194 374 198 Q 376 198 376 199 Q 377 199 377 199 Q 380 203 384 199 Q 390 196 395 193 Q 400 189 406 186 Q 409 183 409 179 L 411 155 Q 411 152 410 151 Q 409 147 407 144 Q 405 141 403 138 Z M 336 113 Q 345 120 352 127 Q 360 134 368 142 Q 388 131 401 116 Q 395 107 389 97 Q 383 87 377 77 Q 365 85 355 93 Q 345 102 336 113 Z M 179 112 Q 187 120 195 127 Q 203 134 211 141 Q 220 136 228 130 Q 236 124 244 116 L 220 77 Q 207 84 197 93 Q 187 101 179 112 Z M 341 128 Q 340 128 340 129 Q 339 136 339 143 Q 339 150 339 157 Q 339 158 340 160 Q 341 163 346 166 Q 345 163 345 159 Q 344 156 344 153 Q 348 151 352 149 Q 355 148 359 146 Q 355 141 350 137 Q 346 132 341 128 Z M 402 93 Q 404 98 407 102 Q 409 105 412 110 V 92 Q 408 92 402 93 Z M 255 91 Q 252 92 250 92 Q 247 93 245 93 Q 247 98 250 102 Q 252 105 255 110 Z M 413 218 Q 416 220 419 221 Q 422 223 425 224 Q 426 222 426 220 Q 426 217 426 215 Q 422 214 419 215 Q 416 216 413 218 Z M 346 90 Q 344 88 342 86 Q 341 84 339 81 L 339 82 Q 339 85 339 89 Q 340 92 341 96 Q 341 96 341 96 Q 344 92 346 90 Z" fill="black" />
  </g>
  <g class="defect" id="01">
    <path d="M 380 3 Q 403 17 406 2" fill="none" stroke="red" stroke-width="3" />
  </g>
  <g class="defect" id="02">
    <path d="M 76 374 Q 44 370 42 353" fill="none" stroke="red" stroke-width="3" />
  </g>
</svg>