<svg xmlns="http://www.w3.org/2000/svg" width="512" height="512" viewBox="0 0 512 512">
  <g class="glyph">
    <path d="M 323 2 Q 326 3 330 5 Q 340 12 349 19 Q 357 26 365 34 Q 369 38 373 42 Q 377 45 381 49 Q 386 55 390 60 Q 395 66 400 72 Q 401 74 402 76 Q 400 79 398 81 Q 395 82 393 85 L 449 123 Q 448 126 447 127 Q 449 130 451 129 Q 453 129 455 128 Q 465 135 475 142 Q 485 148 494 156 Q 494 158 494 160 Q 498 163 503 167 Q 507 170 512 173 Q 500 204 475 230 Q 468 225 461 222 Q 455 218 447 214 Q 449 227 450 240 Q 450 252 448 265 H 472 Q 473 269 474 274 Q 475 278 476 282 H 489 Q 492 290 493 296 Q 494 303 494 311 Q 490 313 485 315 Q 480 317 477 321 L 478 322 Q 482 321 486 320 Q 491 320 495 319 Q 496 327 495 334 Q 494 342 493 350 Q 482 351 471 351 Q 460 352 449 353 Q 459 379 469 404 Q 479 429 488 455 Q 484 458 480 463 Q 483 464 486 463 Q 488 461 491 461 Q 493 466 495 472 Q 497 477 499 482 Q 471 502 437 509 Q 432 499 428 490 Q 426 490 424 490 Q 422 491 420 491 Q 417 487 415 482 Q 414 478 411 474 Q 408 475 406 476 Q 404 477 402 478 Q 384 486 365 492 Q 347 498 328 502 Q 317 504 305 504 Q 294 504 285 502 Q 286 498 287 495 Q 288 491 289 488 Q 284 487 283 487 Q 281 487 278 491 Q 277 492 276 494 Q 275 495 274 497 Q 274 497 272 498 Q 266 495 261 492 Q 256 488 252 483 Q 248 479 244 476 Q 241 472 237 468 Q 217 450 216 421 Q 214 410 216 399 Q 218 388 222 378 Q 225 370 222 361 Q 221 359 221 357 H 216 Q 213 386 210 413 Q 207 441 203 469 Q 197 470 189 470 Q 181 471 172 470 Q 163 469 155 467 Q 146 466 140 463 V 451 Q 136 449 131 448 Q 127 447 123 446 Q 124 432 124 419 Q 125 406 126 392 Q 119 391 112 391 Q 105 391 98 391 Q 97 401 98 412 Q 98 422 98 432 Q 98 443 98 453 Q 98 464 99 474 Q 96 476 88 478 Q 81 480 73 480 Q 73 477 72 475 Q 72 472 72 470 Q 71 467 71 465 Q 71 463 70 461 H 69 Q 69 462 68 463 Q 68 463 68 464 Q 68 469 67 474 Q 67 478 66 483 Q 65 486 65 492 Q 61 492 58 491 Q 54 491 50 491 Q 49 487 49 483 Q 49 478 48 475 Q 44 474 40 474 Q 37 474 32 474 Q 32 469 32 464 Q 31 460 31 455 Q 27 455 24 455 Q 21 454 18 453 Q 14 377 10 302 Q 5 227 3 150 Q 7 148 11 148 Q 15 147 20 146 Q 18 142 16 142 Q 14 142 11 141 Q 9 141 7 141 Q 5 140 2 140 Q 2 121 1 103 Q 1 85 0 67 Q 20 61 39 61 Q 59 62 78 66 Q 78 67 78 68 Q 79 69 79 70 H 80 Q 86 69 92 67 Q 97 65 103 64 Q 143 57 171 83 Q 173 84 174 86 Q 176 87 176 90 Q 176 91 179 92 Q 183 95 187 98 Q 190 101 194 106 Q 192 107 192 108 Q 191 109 191 111 Q 191 113 194 117 Q 196 117 197 116 Q 199 115 202 115 Q 205 119 207 125 Q 209 130 212 135 Q 213 134 213 134 Q 214 133 214 132 Q 241 99 268 67 Q 295 34 323 2 Q 323 1 323 0 Q 323 1 323 1 Z M 178 447 Q 179 446 179 444 Q 181 425 183 405 Q 186 385 188 365 Q 190 344 191 323 Q 192 301 194 280 Q 195 263 195 247 Q 196 230 196 214 Q 196 211 194 209 Q 190 206 187 203 Q 184 200 181 196 Q 178 194 176 191 Q 174 189 172 187 Q 173 185 174 185 Q 174 184 175 183 Q 179 177 183 172 Q 188 167 192 161 Q 194 159 194 156 Q 192 145 190 136 Q 188 126 184 117 Q 197 94 179 108 Q 169 113 160 117 Q 150 120 140 125 L 140 124 L 166 91 Q 157 82 146 78 Q 131 71 115 72 Q 96 74 78 81 Q 78 82 78 82 Q 78 82 78 83 V 132 Q 78 133 78 134 Q 78 135 78 136 Q 81 140 84 143 Q 86 147 89 150 Q 91 150 92 149 Q 93 148 94 148 Q 98 146 102 144 Q 106 142 111 141 Q 123 136 129 148 Q 131 152 132 155 Q 133 159 134 162 Q 136 171 136 179 Q 136 188 137 197 Q 137 222 137 246 Q 137 271 136 296 Q 136 317 135 338 Q 134 360 133 381 L 130 437 Q 130 438 130 440 Q 129 441 129 443 Q 142 445 154 447 Q 166 448 178 447 Z M 60 145 9 156 Q 9 161 10 185 Q 10 208 12 240 Q -1 272 16 308 Q 18 344 20 375 Q 21 405 23 426 Q 25 448 26 449 Q 27 438 29 428 Q 31 419 32 409 Q 34 413 34 417 Q 34 421 35 426 Q 35 436 36 446 Q 37 456 37 466 Q 37 467 38 467 Q 38 467 39 469 H 40 Q 42 444 44 420 Q 46 397 49 372 H 49 Q 52 393 55 414 Q 58 435 60 456 Q 64 455 67 455 Q 70 455 73 454 V 451 Q 73 433 72 416 Q 72 399 71 381 Q 71 365 71 349 Q 70 333 70 317 Q 70 296 70 274 Q 70 252 70 231 Q 70 207 70 184 Q 70 161 70 137 Q 70 123 70 108 Q 70 93 71 79 Q 71 75 70 74 Q 63 72 54 71 Q 45 70 35 70 Q 26 70 18 72 Q 10 73 7 75 Q 8 91 8 106 Q 8 120 8 136 Q 22 137 35 139 Q 48 141 60 144 Z M 466 272 Q 401 273 336 276 Q 272 279 206 284 Q 205 301 206 318 Q 208 335 214 352 Q 278 343 341 337 Q 404 330 469 325 Q 470 321 470 317 Q 470 313 470 310 Q 463 311 456 312 Q 449 313 443 315 Q 432 316 422 311 Q 434 305 446 300 Q 458 294 469 288 Q 468 284 468 280 Q 467 276 466 272 Z M 325 11 Q 288 54 252 98 Q 216 142 181 187 Q 199 207 223 221 Q 260 178 298 138 Q 335 97 375 57 Q 364 43 352 31 Q 340 20 325 11 Z M 422 199 Q 389 199 386 198 Q 368 197 350 197 Q 350 199 350 200 Q 349 201 349 202 Q 347 207 345 212 Q 344 217 343 222 Q 342 226 339 226 Q 336 226 335 224 Q 333 222 333 218 V 201 Q 333 200 333 199 Q 333 198 333 197 H 332 V 196 Q 314 195 296 194 Q 279 194 262 192 Q 260 192 259 193 Q 256 195 254 197 Q 252 200 251 203 Q 248 218 249 236 Q 250 240 250 244 Q 251 249 251 253 Q 295 252 338 251 Q 381 250 424 247 Q 425 234 425 223 Q 425 211 422 199 Z M 454 136 Q 443 143 432 149 Q 421 155 409 160 Q 416 151 424 143 Q 431 134 439 125 Q 421 112 403 100 Q 385 89 367 76 Q 366 78 365 78 Q 364 79 363 80 Q 357 86 351 93 Q 344 100 338 107 Q 332 112 330 118 Q 328 125 326 131 Q 359 149 391 167 Q 423 185 456 202 Q 465 192 473 181 Q 480 170 485 158 Q 477 152 470 147 Q 462 142 454 136 Z M 361 363 Q 377 394 392 424 Q 408 454 423 484 Q 437 480 449 475 Q 461 470 472 463 Q 470 458 468 453 Q 458 456 448 459 Q 439 463 429 465 V 464 Q 437 457 445 450 Q 454 443 462 436 Q 461 432 458 423 Q 454 415 450 404 Q 446 394 442 382 Q 437 371 433 361 Q 430 351 426 344 Q 423 338 422 336 Q 418 337 414 337 Q 410 338 406 339 Q 397 342 389 345 Q 381 349 373 354 Q 370 356 367 358 Q 364 361 361 363 Z M 252 472 Q 272 446 289 420 Q 284 415 287 410 Q 290 400 294 393 Q 302 375 315 358 Q 316 357 317 356 Q 318 354 319 353 Q 316 350 315 348 Q 313 346 309 347 Q 292 349 275 351 Q 258 353 241 355 Q 238 356 237 359 Q 228 377 224 396 Q 219 414 222 431 Q 225 444 232 455 Q 239 465 252 472 Z M 295 420 Q 290 436 285 450 Q 280 465 276 480 Q 278 481 279 481 Q 280 481 282 481 Q 290 482 297 481 Q 304 480 311 478 Q 353 470 393 449 Q 394 449 397 447 Q 390 434 384 422 Q 378 410 371 399 Q 352 406 333 412 Q 315 417 295 420 Z M 115 300 Q 106 302 97 304 Q 87 305 78 306 Q 78 322 78 337 Q 79 352 79 368 H 120 Q 122 351 121 334 Q 120 317 115 300 Z M 78 256 H 98 Q 100 247 102 238 Q 103 229 105 221 H 107 Q 108 230 110 239 Q 112 247 114 256 Q 115 256 115 257 Q 116 257 117 257 Q 118 257 119 257 Q 119 256 120 256 Q 122 239 121 222 Q 120 206 115 189 Q 105 190 96 192 Q 87 194 78 195 Z M 336 146 Q 335 146 334 145 Q 331 148 328 152 Q 324 155 322 158 Q 315 166 309 173 Q 303 178 296 187 Q 307 188 318 188 Q 329 189 340 189 V 200 H 341 Q 342 197 343 195 Q 344 192 345 189 Q 360 190 375 190 Q 390 191 405 191 Q 405 191 405 190 Q 388 180 370 171 Q 353 162 334 152 Z M 221 234 Q 221 245 220 255 Q 220 265 219 276 Q 230 274 241 274 Q 251 273 262 272 Q 261 268 260 265 Q 260 262 259 259 H 245 Q 245 256 244 253 Q 243 250 243 247 Q 237 245 232 241 Q 227 238 221 234 Z M 345 371 Q 339 380 332 389 Q 326 398 320 408 Q 333 405 344 401 Q 356 397 367 392 Q 362 384 359 377 Q 355 370 351 362 Q 348 362 345 363 Q 343 363 340 364 Q 342 366 343 367 Q 344 369 345 371 Z M 125 311 Q 129 313 129 309 Q 129 302 130 296 Q 130 290 130 284 Q 130 283 130 283 Q 129 283 129 282 Q 128 282 127 282 Q 126 282 125 281 Q 124 278 123 273 Q 122 276 122 278 Q 122 280 121 282 H 95 V 296 Q 101 295 107 294 Q 113 294 119 293 Q 121 297 122 302 Q 124 306 125 311 Z M 128 166 Q 122 167 116 170 Q 111 174 106 177 Q 102 172 101 170 Q 99 169 98 167 Q 97 166 95 164 Q 95 170 95 175 Q 95 179 95 184 Q 102 183 108 182 Q 113 181 119 180 Q 121 185 122 190 Q 124 195 125 199 Q 126 199 128 199 Q 129 199 130 199 Q 129 190 129 182 Q 129 174 128 166 Z M 437 209 V 208 Q 436 207 434 207 Q 432 206 431 205 Q 431 206 431 209 Z" fill="black" />
  </g>
  <g class="defect" id="01">
    <path d="M 184 117 Q 197 94 179 108" fill="none" stroke="red" stroke-width="3" />
  </g>
  <g class="defect" id="02">
    <path d="M 12 240 Q -1 272 16 308" fill="none" stroke="red" stroke-width="3" />
  </g>
  <g class="defect" id="03">
    <path d="M 422 199 Q 389 199 386 198" fill="none" stroke="red" stroke-width="3" />
  </g>
</svg>