<svg xmlns="http://www.w3.org/2000/svg" width="512" height="512" viewBox="0 0 512 512">
  <g class="glyph">
    <path d="M 447 0 Q 449 5 451 10 Q 453 15 455 19 Q 457 19 460 19 Q 462 19 464 18 Q 475 37 478 58 Q 482 79 482 100 Q 469 103 456 105 Q 444 107 431 109 Q 433 126 435 142 Q 438 158 441 175 Q 448 174 456 173 Q 464 171 471 170 Q 474 175 475 179 Q 477 184 479 189 Q 483 188 489 188 Q 491 192 492 196 Q 494 201 496 205 Q 491 210 487 212 Q 485 214 484 216 Q 483 218 484 221 Q 488 220 491 220 Q 494 220 499 219 Q 501 231 502 245 Q 502 258 501 271 Q 480 274 460 276 Q 470 323 483 370 Q 497 416 512 462 Q 505 467 497 471 Q 490 474 480 478 Q 479 472 478 467 Q 477 461 476 456 Q 472 455 472 460 V 476 V 480 Q 466 483 460 484 Q 454 485 448 486 Q 447 482 445 477 Q 443 472 441 467 Q 438 468 436 468 Q 433 468 431 468 Q 414 424 399 379 Q 384 334 371 287 Q 355 289 341 290 Q 326 292 311 294 Q 309 301 309 309 Q 308 316 307 324 Q 319 318 332 314 Q 344 311 358 308 Q 361 318 365 328 Q 368 327 370 327 Q 373 327 376 326 Q 377 330 378 333 Q 379 337 381 340 Q 382 345 383 349 Q 385 354 387 359 Q 389 362 385 366 Q 384 367 383 368 Q 382 369 381 370 Q 381 370 380 374 Q 383 372 385 371 Q 387 370 391 369 Q 400 394 408 419 Q 417 444 426 470 Q 413 479 398 485 Q 384 491 368 494 L 359 475 Q 356 475 355 475 Q 353 475 351 476 Q 350 475 349 473 Q 348 472 347 470 Q 332 478 316 484 Q 301 490 283 488 Q 283 484 284 479 Q 285 475 285 470 Q 281 470 278 471 Q 275 471 273 475 Q 271 477 270 479 Q 268 480 267 483 Q 264 482 261 480 Q 259 479 257 477 Q 242 462 227 447 Q 222 442 220 436 Q 217 430 214 424 Q 214 421 212 420 Q 211 431 209 442 Q 208 453 206 465 Q 173 468 142 458 Q 142 455 142 452 Q 142 449 142 446 Q 138 445 133 443 Q 129 442 123 441 Q 125 427 125 413 Q 126 400 127 386 H 98 Q 98 407 99 428 Q 99 449 99 470 Q 93 473 87 474 Q 80 475 73 475 Q 71 471 71 466 Q 72 461 69 455 Q 67 458 67 461 Q 68 463 67 466 Q 66 469 67 472 Q 67 475 66 477 Q 66 480 66 483 Q 66 485 65 488 Q 61 487 57 487 Q 54 487 50 486 L 48 470 Q 44 470 40 470 Q 36 469 32 469 Q 32 464 31 460 Q 30 455 30 451 Q 27 450 24 450 Q 21 449 18 449 Q 18 446 17 443 Q 17 440 17 437 Q 16 422 15 407 Q 14 392 13 377 Q 12 358 11 340 Q 10 322 9 304 Q 8 288 7 272 Q 7 256 6 241 Q 5 222 4 203 Q 4 184 3 166 Q 3 159 3 153 Q 3 147 2 140 Q 6 139 11 138 Q 15 137 20 136 Q 19 135 18 134 Q 18 134 17 133 Q 14 132 11 132 Q 8 132 5 131 Q 4 131 2 130 Q 0 93 0 56 Q 20 50 39 50 Q 59 50 79 55 L 80 60 H 81 Q 88 58 95 56 Q 101 55 108 53 Q 147 47 175 74 Q 176 75 178 76 Q 179 77 179 80 Q 179 81 182 82 Q 186 86 189 88 Q 193 91 197 96 Q 192 101 197 107 Q 201 106 204 105 Q 215 122 219 141 Q 223 160 224 180 Q 227 170 228 161 Q 218 151 231 142 Q 234 142 235 141 Q 237 141 239 141 Q 238 136 236 131 Q 234 127 233 122 Q 230 122 228 122 Q 226 122 223 123 Q 220 119 218 111 Q 215 103 213 93 Q 223 83 210 73 Q 210 64 210 56 Q 234 50 258 45 Q 282 40 307 34 Q 308 38 309 41 Q 311 45 312 49 Q 313 46 313 45 Q 313 43 313 40 Q 314 38 314 36 Q 314 34 314 31 Q 347 23 380 15 Q 413 7 447 0 Z M 144 112 Q 150 104 157 95 Q 164 87 170 78 Q 154 61 131 59 Q 119 58 107 60 Q 96 62 84 66 Q 83 66 83 67 Q 82 67 81 68 V 69 Q 80 82 80 95 Q 80 107 80 120 Q 80 122 81 123 Q 83 127 86 131 Q 89 134 92 138 Q 94 137 95 137 Q 97 136 98 135 Q 102 133 107 131 Q 112 129 116 128 Q 124 126 130 133 Q 131 135 133 137 Q 134 139 135 142 Q 136 146 137 151 Q 138 156 139 161 Q 140 174 141 188 Q 141 201 141 214 Q 141 240 140 265 Q 139 291 139 316 Q 138 330 138 344 Q 137 359 136 373 Q 135 387 134 402 Q 134 416 133 431 V 436 Q 145 439 157 440 Q 170 442 182 441 Q 183 438 183 437 Q 186 416 188 395 Q 191 375 192 354 Q 195 327 196 300 Q 198 273 199 245 Q 200 223 201 201 Q 201 179 199 157 Q 198 144 196 133 Q 194 121 189 109 Q 187 103 184 97 Q 174 100 164 105 Q 154 109 144 113 Z M 486 441 Q 457 355 437 269 Q 417 182 406 92 Q 389 96 371 98 Q 354 101 337 104 Q 353 196 377 284 Q 401 372 435 460 Q 438 459 441 458 Q 444 457 447 457 Q 447 438 447 420 Q 447 402 448 384 Q 455 400 460 417 Q 464 433 468 450 Q 473 447 477 445 Q 482 444 486 441 Z M 334 440 Q 328 428 322 415 Q 316 402 311 390 Q 305 393 300 397 Q 297 399 294 400 Q 291 401 288 402 Q 283 404 280 402 Q 277 400 277 395 Q 276 390 276 385 Q 276 379 276 374 Q 276 367 276 361 Q 277 354 277 347 Q 280 331 281 315 Q 282 298 284 282 Q 289 253 294 224 Q 299 196 305 167 Q 306 166 306 164 Q 306 163 306 162 Q 290 154 273 151 Q 257 147 238 148 Q 238 150 238 151 Q 237 153 237 154 Q 234 175 230 196 Q 227 217 224 238 Q 221 258 219 277 Q 218 297 217 316 Q 216 324 216 333 Q 216 341 215 349 Q 214 363 215 378 Q 215 392 218 406 Q 220 416 223 426 Q 227 435 234 444 Q 236 447 240 450 Q 243 453 247 455 Q 238 429 265 432 Q 274 421 283 409 Q 281 423 279 436 Q 276 449 274 463 Q 291 462 306 456 Q 320 449 334 440 Z M 76 447 Q 73 350 72 254 Q 71 158 73 60 Q 56 57 40 57 Q 25 57 8 61 Q 9 76 9 92 Q 10 108 10 123 Q 24 126 37 128 Q 50 130 63 132 V 133 Q 50 136 37 139 Q 24 142 11 145 V 151 L 12 188 Q 13 208 14 228 Q 15 247 16 268 Q 17 282 17 295 Q 18 308 19 321 Q 20 337 21 353 Q 21 369 22 384 Q 24 398 24 412 Q 25 425 26 439 Q 26 440 26 440 Q 27 441 27 441 H 28 Q 29 431 31 421 Q 33 411 34 400 Q 35 402 35 407 Q 36 415 37 423 Q 37 431 38 440 Q 38 444 39 449 Q 39 454 40 459 Q 40 460 40 460 Q 41 460 41 461 Q 42 461 42 461 Q 45 436 47 411 Q 49 387 51 362 H 52 Q 55 384 57 405 Q 60 426 63 449 Q 67 448 69 448 Q 72 448 76 447 Z M 439 9 Q 410 15 382 22 Q 354 29 325 36 Q 322 36 321 37 Q 321 37 321 41 Q 320 52 319 63 Q 318 74 317 84 Q 317 86 316 88 H 315 Q 312 76 308 64 Q 305 53 301 41 Q 280 46 259 51 Q 238 56 217 61 Q 217 89 227 114 Q 285 105 342 95 Q 399 86 457 76 Q 457 58 453 41 Q 450 25 443 9 Z M 368 361 Q 358 366 347 370 Q 337 375 327 379 Q 328 377 329 376 Q 331 374 332 373 L 359 344 Q 362 343 361 340 Q 359 335 357 328 Q 355 322 353 316 Q 347 316 339 319 Q 330 321 321 325 Q 312 328 305 332 Q 298 336 295 339 Q 311 371 325 403 Q 340 435 355 467 Q 380 461 399 449 Q 391 426 383 405 Q 376 383 368 361 Z M 363 260 Q 355 231 349 201 Q 337 204 326 205 Q 315 207 304 210 Q 301 224 298 239 Q 296 253 293 268 Q 311 266 328 264 Q 346 262 363 260 Z M 81 360 Q 91 360 102 360 Q 112 361 122 361 Q 125 343 124 325 Q 123 308 117 291 Q 107 293 98 295 Q 89 297 80 298 Q 81 314 81 329 Q 81 344 81 360 Z M 123 247 Q 125 229 124 212 Q 123 195 118 177 Q 108 180 99 181 Q 89 183 80 184 V 246 H 101 Q 103 237 105 228 Q 106 219 108 210 H 109 Q 111 219 113 228 Q 115 237 117 246 Q 119 247 123 247 Z M 328 198 Q 333 197 338 196 Q 343 195 348 193 Q 344 176 341 159 Q 337 142 333 125 Q 312 128 290 132 Q 269 136 247 139 Q 283 142 315 157 Q 315 160 314 162 Q 314 164 313 167 Q 319 169 323 171 Q 328 173 333 175 Q 332 177 331 180 Q 331 182 331 185 Q 330 188 329 191 Q 329 193 328 198 Z M 477 247 Q 478 240 477 228 Q 476 216 475 210 Q 464 211 454 213 Q 444 215 433 217 Q 436 226 437 234 Q 439 243 440 251 Q 449 250 459 249 Q 468 248 477 247 Z M 469 185 Q 468 183 467 181 Q 467 180 466 177 Q 456 180 447 181 Q 437 183 427 185 Q 429 192 430 199 Q 431 206 433 213 Q 443 205 451 199 Q 460 192 469 185 Z M 98 287 Q 104 286 110 285 Q 117 284 123 283 Q 125 288 126 293 Q 127 298 129 302 Q 133 302 133 299 Q 133 293 133 286 Q 133 280 133 274 Q 133 273 133 273 Q 133 273 133 272 Q 132 272 129 271 Q 129 269 128 268 Q 128 266 127 263 Q 126 265 126 266 Q 126 267 126 268 Q 125 270 125 271 Q 118 271 111 271 Q 105 271 98 271 Z M 133 188 Q 133 180 132 171 Q 132 162 130 154 Q 124 156 119 159 Q 114 162 108 165 Q 106 162 103 159 Q 100 156 98 153 V 173 Q 104 173 110 171 Q 116 170 123 170 Q 124 175 125 179 Q 127 184 128 189 Q 131 189 133 188 Z M 300 386 Q 301 386 301 386 Q 301 386 302 387 Q 303 386 304 385 Q 306 384 307 383 Q 306 380 305 378 Q 304 376 301 373 Q 301 377 301 380 Q 301 383 300 386 Z" fill="black" />
  </g>
  <g class="defect" id="01">
    <path d="M 228 161 Q 218 151 231 142" fill="none" stroke="red" stroke-width="3" />
  </g>
  <g class="defect" id="02">
    <path d="M 247 455 Q 238 429 265 432" fill="none" stroke="red" stroke-width="3" />
  </g>
  <g class="defect" id="03">
    <path d="M 213 93 Q 223 83 210 73" fill="none" stroke="red" stroke-width="3" />
  </g>
</svg>