<svg xmlns="http://www.w3.org/2000/svg" width="512" height="512" viewBox="0 0 512 512">
  <g class="glyph">
    <path d="M 190 90 Q 184 95 190 102 Q 191 101 193 100 Q 195 100 196 99 Q 204 110 208 123 Q 211 135 214 150 Q 216 146 217 142 Q 218 139 220 136 Q 221 132 222 129 Q 223 126 225 122 Q 236 122 246 126 Q 256 129 267 134 Q 265 127 265 121 Q 264 114 260 108 Q 250 95 241 82 Q 232 68 222 54 Q 221 52 220 50 Q 219 48 218 45 Q 234 30 252 20 Q 271 11 292 5 Q 295 10 297 15 Q 299 20 301 25 Q 303 24 305 24 Q 307 24 310 23 Q 314 32 318 41 Q 322 50 326 58 Q 324 62 322 63 Q 319 65 319 69 Q 323 67 328 65 Q 332 73 335 82 Q 339 90 343 98 Q 343 98 344 99 Q 351 99 353 98 Q 355 97 359 90 Q 369 69 378 48 Q 388 28 398 7 Q 401 2 402 0 Q 411 2 420 6 Q 435 12 447 20 Q 460 29 472 39 Q 473 41 474 44 Q 476 45 477 47 Q 481 50 485 54 Q 489 57 493 60 Q 482 76 472 92 Q 462 108 451 124 Q 453 125 454 126 Q 460 132 466 137 Q 471 142 477 148 Q 498 170 504 202 Q 508 225 505 246 Q 503 268 497 290 Q 493 302 488 315 Q 482 327 477 335 Q 472 334 467 332 Q 462 330 457 329 Q 457 333 458 336 Q 458 339 458 343 Q 444 347 428 352 Q 431 355 435 356 Q 438 358 441 360 Q 436 373 433 386 Q 429 398 428 412 Q 428 415 427 417 Q 436 415 444 412 Q 451 408 459 404 Q 462 408 465 412 Q 468 415 472 420 Q 473 421 473 422 Q 474 424 476 423 Q 477 423 478 424 Q 483 429 487 434 Q 491 439 495 445 Q 494 446 492 447 Q 490 448 489 449 Q 490 451 491 452 Q 491 454 492 455 Q 497 454 500 453 Q 504 459 506 466 Q 509 472 512 479 Q 510 481 510 481 Q 494 491 478 498 Q 462 505 444 508 Q 427 511 411 508 Q 395 506 381 496 Q 376 493 373 490 Q 369 486 366 482 L 359 476 Q 351 469 346 462 Q 348 459 350 457 Q 353 455 350 451 Q 348 452 346 453 Q 344 454 342 455 Q 333 440 331 424 Q 329 408 329 392 H 328 Q 316 420 304 448 Q 292 476 280 504 Q 265 503 249 497 Q 249 493 250 491 Q 252 488 250 484 Q 249 487 247 489 Q 246 492 244 494 Q 239 493 231 489 Q 222 484 216 481 L 218 474 Q 214 471 209 469 Q 204 466 199 463 Q 200 460 201 456 Q 201 453 203 449 Q 212 419 221 390 Q 230 360 239 330 Q 241 325 238 322 L 236 319 Q 230 315 224 309 Q 218 303 214 297 Q 213 307 212 318 Q 212 328 211 338 Q 210 348 209 358 Q 209 367 207 378 Q 206 388 205 398 Q 204 408 203 418 Q 202 428 201 438 Q 200 448 199 458 Q 183 461 167 459 Q 152 457 137 452 V 439 Q 132 438 128 437 Q 124 435 119 434 Q 120 420 121 407 Q 121 393 122 379 H 95 Q 95 400 96 421 Q 97 442 97 463 Q 90 466 84 466 Q 78 467 71 468 Q 71 463 70 458 Q 70 454 68 449 H 67 Q 66 456 66 464 Q 66 472 65 479 Q 61 481 57 480 Q 54 479 49 479 Q 49 474 49 471 Q 49 467 48 463 Q 44 462 40 462 Q 36 462 32 461 Q 31 456 31 452 Q 31 447 30 443 Q 27 442 24 442 Q 21 442 18 441 Q 13 364 9 287 Q 5 211 2 133 Q 5 132 7 132 Q 9 131 12 130 Q 14 130 16 129 Q 18 129 19 126 Q 15 125 11 125 Q 7 124 2 123 Q 2 104 1 86 Q 1 67 0 49 Q 19 43 38 43 Q 57 44 76 48 Q 77 49 77 50 Q 77 52 77 53 Q 84 50 92 49 Q 102 46 113 45 Q 123 44 134 47 Q 154 52 169 68 Q 172 70 172 71 Q 172 73 173 73 Q 174 74 175 75 Q 179 79 183 83 Q 187 86 190 90 Z M 88 133 Q 75 131 93 130 Q 97 129 101 127 Q 105 125 110 124 Q 120 120 126 129 Q 127 131 128 134 Q 129 136 130 138 Q 131 145 132 151 Q 134 157 134 163 Q 135 186 135 210 Q 135 235 135 260 Q 135 284 134 309 Q 132 335 131 362 Q 129 388 128 414 Q 127 418 127 422 Q 127 425 127 430 Q 151 438 175 435 Q 177 422 178 410 Q 180 398 182 386 Q 183 365 185 344 Q 187 324 188 303 Q 189 282 190 261 Q 191 240 192 218 Q 193 199 193 180 Q 193 161 190 141 Q 189 130 186 118 Q 184 106 179 95 Q 178 94 178 94 Q 177 93 177 92 Q 167 96 158 100 Q 148 104 138 109 Q 138 108 138 108 Q 145 99 151 91 Q 157 83 164 74 Q 156 66 148 62 Q 139 57 129 55 Q 115 53 103 55 Q 91 58 79 63 Q 79 63 77 65 V 116 Q 77 118 79 120 Q 81 122 83 126 Q 86 129 88 133 Z M 10 140 Q 13 214 17 287 Q 21 361 26 435 Q 29 424 30 414 Q 31 403 34 392 Q 34 394 34 395 Q 34 396 35 397 Q 35 402 36 406 Q 36 411 36 416 Q 37 424 38 433 Q 38 441 39 450 Q 39 452 40 455 H 41 Q 43 430 45 406 Q 47 382 49 357 H 51 Q 54 378 56 400 Q 58 421 61 443 Q 65 442 67 442 Q 70 442 73 441 V 434 L 72 366 Q 71 349 71 332 Q 71 315 71 297 V 189 V 101 Q 71 92 71 84 Q 71 76 71 67 V 56 Q 65 54 57 52 Q 48 51 39 51 Q 30 51 23 53 Q 15 54 10 56 Q 10 71 10 87 Q 11 102 12 118 Q 24 121 37 122 Q 49 124 62 127 V 128 Q 48 131 36 134 Q 23 137 10 140 Z M 433 321 Q 433 318 432 316 Q 432 313 432 311 Q 432 307 428 305 Q 422 300 415 296 Q 409 292 402 288 L 399 285 Q 401 281 402 278 Q 403 275 405 271 Q 402 271 401 272 Q 395 273 390 274 Q 385 275 379 276 Q 346 283 311 278 Q 303 277 297 275 Q 290 273 283 268 Q 272 262 272 250 Q 271 238 272 225 Q 273 214 276 204 Q 279 194 283 184 Q 284 179 282 174 Q 280 169 278 164 Q 276 159 274 154 Q 273 151 272 148 Q 271 145 269 143 Q 267 141 264 140 Q 260 138 258 137 Q 251 135 244 133 Q 238 131 231 130 Q 229 133 229 134 Q 226 141 224 147 Q 222 153 220 160 Q 212 183 208 206 Q 205 228 207 252 Q 209 264 212 275 Q 216 286 222 295 Q 232 308 244 316 Q 256 325 270 330 Q 291 338 311 339 Q 332 340 353 338 Q 379 336 406 328 Q 413 326 419 324 Q 426 322 433 321 Z M 350 172 Q 355 172 359 171 Q 364 171 368 171 Q 376 170 384 171 Q 392 172 399 173 Q 412 177 417 189 Q 419 195 420 200 Q 422 205 422 211 Q 424 246 409 278 L 408 283 Q 419 291 430 298 Q 442 305 455 309 Q 456 308 456 307 Q 456 306 457 306 Q 465 291 470 276 Q 475 261 478 245 Q 481 230 481 214 Q 481 199 478 184 Q 466 126 411 111 Q 398 107 385 106 Q 371 105 358 106 Q 317 106 279 119 Q 277 119 276 120 Q 274 120 273 121 Q 278 155 296 185 Q 305 183 314 180 Q 322 178 331 175 Q 322 161 337 146 Q 340 132 344 118 H 346 Q 347 132 348 145 Q 349 158 350 172 Z M 406 461 Q 422 454 438 446 Q 454 439 467 426 Q 465 423 462 420 Q 460 417 457 413 Q 456 414 455 414 Q 454 415 452 415 Q 446 418 439 421 Q 433 423 425 424 Q 417 426 409 425 Q 402 425 402 419 Q 401 413 401 409 Q 402 397 404 384 Q 406 371 410 359 Q 411 355 412 352 Q 413 349 414 345 Q 411 344 408 342 Q 405 340 402 339 Q 399 338 395 338 Q 387 339 379 341 Q 371 343 363 344 Q 359 345 353 345 Q 348 345 343 346 Q 342 349 342 351 Q 340 359 339 366 Q 338 372 337 380 Q 336 391 336 401 Q 336 412 338 423 Q 339 429 340 434 Q 342 439 345 445 Q 354 441 364 436 Q 373 432 383 429 V 429 Q 376 438 370 446 Q 363 454 355 463 Q 358 466 361 468 Q 364 471 367 473 Q 379 481 393 484 Q 406 487 420 484 Q 435 483 447 478 Q 460 473 472 467 Q 475 465 478 463 Q 482 461 485 459 Q 483 455 482 451 Q 481 447 478 444 Q 461 450 442 454 Q 424 458 406 461 Z M 248 329 Q 238 362 228 395 Q 218 428 207 461 Q 212 463 216 465 Q 220 466 225 468 Q 233 454 241 440 Q 249 425 257 412 H 258 Q 254 428 250 443 Q 246 459 242 475 Q 246 476 250 477 Q 254 478 258 479 Q 259 477 264 466 Q 268 456 274 442 Q 281 428 288 411 Q 295 395 300 381 Q 306 367 310 358 Q 314 348 314 347 Q 314 347 312 346 Q 311 345 310 345 Q 309 345 308 345 Q 298 344 290 342 Q 281 341 272 338 Q 266 336 260 334 Q 254 331 248 329 Z M 296 266 Q 297 267 298 267 Q 300 268 301 268 Q 316 273 333 273 Q 351 274 369 271 Q 387 268 404 264 Q 408 263 409 260 Q 410 257 410 253 Q 411 250 412 247 Q 417 224 413 202 Q 413 199 412 198 Q 412 198 408 197 Q 399 195 391 196 Q 382 196 374 197 Q 367 197 359 199 Q 359 194 359 191 Q 360 187 358 183 Q 357 187 356 190 Q 356 193 355 196 Q 355 200 350 201 Q 341 202 332 205 Q 324 208 316 211 Q 312 212 311 212 Q 309 210 307 206 Q 301 221 298 236 Q 295 250 296 266 Z M 406 8 Q 394 31 384 53 Q 374 75 362 98 Q 378 99 394 100 Q 409 102 424 108 Q 434 92 445 76 Q 455 60 466 44 Q 452 32 438 23 Q 423 13 406 8 Z M 227 47 Q 238 64 250 80 Q 261 97 272 113 Q 300 104 320 87 L 307 57 Q 295 63 284 68 Q 272 73 260 79 Q 260 78 260 78 Q 260 78 260 78 Q 270 68 280 59 Q 290 49 300 40 Q 297 33 294 27 Q 291 20 289 14 Q 271 19 255 27 Q 240 35 227 47 Z M 113 286 Q 103 287 95 289 Q 86 291 77 292 Q 77 308 78 323 Q 78 339 78 354 Q 88 355 98 355 Q 107 355 117 355 Q 122 318 113 286 Z M 118 241 Q 119 223 118 206 Q 118 189 112 172 Q 103 174 94 175 Q 86 177 77 179 V 241 H 96 Q 98 231 100 222 Q 102 214 103 204 H 104 Q 106 214 108 223 Q 109 232 111 241 Z M 124 298 Q 139 310 126 296 Q 127 296 127 295 V 267 Q 124 267 123 265 Q 123 262 122 260 Q 121 262 121 263 Q 121 265 120 266 H 95 V 281 Q 101 280 106 280 Q 112 279 118 278 Q 119 282 121 287 Q 122 292 124 298 Z M 123 183 Q 127 183 127 180 Q 127 175 127 170 Q 127 164 126 159 Q 126 157 126 154 Q 125 152 125 150 Q 119 151 114 154 Q 109 157 104 160 Q 102 157 99 154 Q 97 152 94 148 V 168 Q 100 167 106 166 Q 111 166 118 164 Q 119 169 121 174 Q 122 179 123 183 Z" fill="black" />
  </g>
  <g class="defect" id="01">
    <path d="M 331 175 Q 322 161 337 146" fill="none" stroke="red" stroke-width="3" />
  </g>
  <g class="defect" id="02">
    <path d="M 88 133 Q 75 131 93 130" fill="none" stroke="red" stroke-width="3" />
  </g>
  <g class="defect" id="03">
    <path d="M 124 298 Q 139 310 126 296" fill="none" stroke="red" stroke-width="3" />
  </g>
</svg>