<svg xmlns="http://www.w3.org/2000/svg" width="512" height="512" viewBox="0 0 512 512">
  <g class="glyph">
    <path d="M 323 277 Q 326 278 330 279 Q 334 279 338 279 Q 355 282 372 286 Q 389 290 405 297 Q 428 308 443 326 L 448 332 Q 473 353 478 385 Q 480 396 478 407 Q 477 418 474 430 Q 469 446 461 460 Q 453 474 444 487 Q 443 488 443 489 Q 440 488 437 486 Q 434 484 431 483 Q 432 480 433 476 Q 434 473 435 470 H 434 Q 431 476 427 481 Q 422 478 418 476 Q 414 473 410 470 Q 409 477 409 484 Q 409 490 409 497 Q 400 498 393 498 Q 377 500 360 502 Q 344 504 328 505 Q 311 506 293 508 Q 276 509 259 510 Q 241 511 223 512 Q 206 512 188 511 Q 168 511 149 509 Q 129 507 110 501 Q 95 497 81 490 Q 67 484 55 473 Q 50 467 45 462 Q 39 457 34 451 Q 8 423 10 382 Q 11 363 16 345 Q 21 326 29 309 Q 30 306 31 303 Q 32 301 33 298 Q 33 297 35 296 Q 48 297 60 303 Q 72 308 85 315 V 293 Q 101 290 116 288 Q 131 286 147 284 V 283 Q 138 283 129 283 Q 120 284 110 284 V 266 Q 106 265 105 268 Q 104 271 104 273 Q 103 276 102 279 Q 101 280 101 281 Q 101 283 100 284 Q 82 285 63 286 Q 45 286 26 287 L 21 268 H 8 Q 1 247 1 226 Q 1 205 6 183 H 63 H 120 Q 119 179 118 175 Q 118 172 117 169 Q 113 168 110 168 Q 106 168 101 167 Q 101 164 101 161 Q 100 158 99 155 Q 93 155 86 155 Q 80 156 73 156 Q 72 153 71 151 Q 70 148 70 145 H 69 Q 68 148 68 151 Q 67 154 66 157 Q 56 158 47 158 Q 37 159 27 160 L 21 142 Q 19 142 16 142 Q 12 142 9 142 Q 2 121 1 99 Q 0 77 4 54 Q 24 52 44 52 Q 64 51 85 50 Q 84 41 83 31 Q 81 22 80 12 Q 101 5 123 3 Q 144 2 166 5 Q 166 10 166 13 Q 166 16 167 20 Q 171 21 175 22 Q 179 22 184 23 Q 184 29 184 35 Q 184 40 185 46 Q 200 46 215 45 Q 231 45 246 44 Q 261 44 275 43 Q 290 43 307 42 Q 308 33 310 23 Q 311 14 313 5 Q 317 3 327 4 Q 336 4 341 6 Q 342 8 343 12 Q 345 10 346 6 Q 347 3 348 0 Q 352 0 358 2 Q 365 3 372 6 Q 379 9 386 12 Q 393 15 397 18 Q 396 20 396 22 Q 396 24 396 27 Q 400 28 403 30 Q 407 32 412 34 Q 416 37 415 39 Q 426 39 437 39 Q 448 39 459 39 Q 460 43 461 48 Q 462 52 463 57 H 477 Q 478 63 479 68 Q 495 57 481 79 Q 483 80 485 80 Q 488 80 491 80 Q 491 83 491 86 Q 491 89 491 92 Q 487 94 482 95 Q 476 96 472 97 V 98 H 489 Q 489 106 489 113 Q 488 121 487 129 Q 462 130 438 132 Q 414 133 390 134 Q 386 147 383 158 Q 379 170 376 183 H 460 Q 461 188 461 192 Q 462 196 463 201 H 476 Q 479 206 480 214 Q 481 223 480 230 Q 474 233 465 236 Q 462 237 463 241 Q 467 241 472 240 Q 476 240 480 240 Q 482 244 481 253 Q 480 263 478 272 Q 458 273 438 273 Q 419 273 399 275 Q 379 275 360 276 Q 341 276 321 277 Q 323 277 323 277 Z M 289 156 Q 290 152 291 149 Q 292 145 291 140 Q 286 141 281 141 Q 276 142 271 142 V 153 Q 275 155 279 155 Q 284 156 288 157 V 183 H 325 V 182 Q 321 180 316 178 Q 311 176 307 174 Q 307 171 308 169 Q 308 167 308 164 Q 303 162 299 160 Q 294 158 289 156 Z M 376 418 Q 324 422 275 424 Q 226 426 175 424 Q 171 433 167 442 Q 164 450 159 458 Q 153 456 153 447 Q 153 444 153 442 Q 153 440 153 437 V 422 Q 149 421 145 421 Q 141 421 137 420 Q 127 417 117 415 Q 107 412 98 408 Q 89 403 86 398 Q 83 392 86 383 Q 87 378 88 372 Q 90 367 91 361 Q 92 357 91 355 Q 88 341 86 328 Q 86 324 83 323 Q 75 319 67 314 Q 59 310 51 307 Q 44 305 39 303 Q 37 306 37 306 Q 23 336 17 368 Q 16 379 16 390 Q 16 401 20 412 Q 25 430 36 443 Q 48 456 64 465 Q 79 473 94 477 Q 110 480 126 483 Q 149 486 172 487 Q 195 487 219 486 Q 259 484 297 481 Q 315 480 333 478 Q 351 476 369 474 Q 373 474 376 473 Q 379 473 384 473 V 450 Q 384 446 381 443 Q 374 438 368 431 Q 369 428 371 425 Q 373 421 376 418 Z M 422 460 Q 423 460 423 460 Q 423 461 423 461 Q 426 457 428 454 Q 430 451 432 448 Q 440 434 446 420 Q 452 405 454 389 Q 457 352 432 325 Q 422 316 411 310 Q 400 303 388 299 Q 372 293 355 290 Q 339 286 321 285 Q 292 283 263 283 Q 233 283 204 285 Q 180 287 156 290 Q 132 293 108 297 Q 104 298 101 298 Q 97 299 93 299 Q 92 317 95 335 Q 98 352 105 369 Q 153 360 201 354 Q 226 350 250 349 Q 273 348 298 348 Q 302 338 306 328 Q 310 318 315 309 H 316 Q 317 319 318 328 Q 318 338 319 348 Q 323 348 327 349 Q 331 349 336 350 Q 345 351 355 353 Q 365 355 374 359 Q 378 360 382 363 Q 386 365 390 368 Q 395 372 396 381 Q 396 383 396 385 Q 396 387 395 390 Q 394 397 391 404 Q 389 411 385 418 Q 383 421 381 424 Q 379 427 378 431 Q 385 437 392 443 Q 399 449 407 454 Q 414 442 421 430 Q 427 418 434 406 Q 435 406 435 407 Q 432 420 430 433 Q 427 447 422 460 Z M 11 61 Q 9 68 8 79 Q 8 89 9 100 Q 10 111 11 120 Q 12 129 15 134 Q 22 133 29 133 Q 36 133 43 132 Q 45 122 47 112 Q 48 102 51 92 H 51 Q 54 102 56 111 Q 59 121 61 130 Q 121 126 179 122 Q 237 117 296 113 Q 299 97 301 81 Q 303 65 306 50 Q 232 52 158 55 Q 85 58 11 61 Z M 95 209 Q 96 215 98 221 Q 99 227 99 233 V 258 Q 123 257 146 257 Q 169 256 193 255 Q 192 239 191 223 Q 189 207 188 191 Q 144 191 100 190 Q 56 189 12 190 Q 8 208 8 226 Q 8 243 14 261 Q 30 260 45 260 Q 61 259 77 259 Q 81 246 85 234 Q 89 222 93 209 Z M 455 191 Q 453 191 439 191 Q 425 191 405 191 Q 385 191 361 190 Q 338 190 318 190 Q 298 191 284 191 Q 271 191 270 191 Q 269 206 268 222 Q 268 237 268 253 Q 315 251 361 249 Q 408 248 454 246 Q 457 236 456 229 Q 443 231 430 230 Q 417 229 404 226 Q 417 222 430 217 Q 443 211 457 207 Q 456 202 456 199 Q 456 196 455 191 Z M 321 372 Q 295 372 270 374 Q 245 376 219 378 Q 194 382 169 386 Q 144 391 119 396 Q 118 394 117 392 Q 116 390 114 388 Q 113 392 112 397 Q 111 401 111 405 Q 123 410 135 412 Q 148 414 161 416 V 424 Q 161 426 161 428 Q 160 430 163 432 Q 166 429 167 424 Q 168 420 170 416 H 175 Q 180 417 186 417 Q 192 417 197 417 Q 215 417 234 417 Q 253 417 271 416 Q 288 416 304 415 Q 320 414 337 413 Q 346 412 356 412 Q 367 412 376 411 Q 379 411 381 408 Q 382 403 384 399 Q 385 394 387 390 Q 387 388 387 383 Q 373 378 359 377 Q 351 376 343 375 Q 336 374 328 373 Q 327 369 328 365 Q 328 361 326 357 Q 325 360 324 364 Q 323 368 321 372 Z M 320 11 Q 314 46 308 81 Q 303 116 297 151 Q 310 157 324 160 Q 337 164 352 164 Q 361 128 370 93 Q 379 58 389 22 Q 380 17 372 14 Q 363 11 354 8 Q 350 16 347 24 Q 343 32 339 39 Q 338 33 337 26 Q 336 19 334 11 Q 331 11 328 11 Q 324 11 320 11 Z M 259 275 Q 261 242 262 210 Q 263 178 263 145 Q 255 143 245 142 Q 235 142 225 142 Q 215 142 207 144 Q 198 145 192 147 Q 195 180 197 212 Q 200 245 202 277 Q 217 277 231 276 Q 245 276 259 275 Z M 465 87 Q 447 86 429 86 Q 411 86 394 85 V 84 Q 411 80 428 76 Q 445 73 462 69 Q 451 67 438 65 Q 426 64 415 61 Q 425 60 435 59 Q 445 57 456 55 Q 456 52 455 50 Q 454 48 454 46 Q 438 46 423 47 Q 407 47 392 47 Q 391 50 388 59 Q 385 69 383 79 Q 380 89 378 98 Q 376 107 376 108 Q 398 107 420 106 Q 442 105 464 104 Q 464 99 464 96 Q 464 92 465 87 Z M 93 50 Q 111 48 127 48 Q 144 48 161 47 Q 160 38 160 29 Q 160 21 159 12 Q 152 10 142 10 Q 133 9 122 10 Q 112 11 103 13 Q 94 15 89 17 Q 90 25 91 33 Q 92 41 93 50 Z M 109 161 Q 138 162 164 155 V 143 V 131 Q 161 130 152 131 Q 143 131 133 132 Q 123 133 115 134 Q 107 135 105 135 Q 106 142 107 148 Q 108 154 109 161 Z M 187 179 Q 184 180 182 180 Q 180 181 178 182 Q 183 184 187 182 Q 187 182 187 179 Z" fill="black" />
  </g>
  <g class="defect" id="01">
    <path d="M 479 68 Q 495 57 481 79" fill="none" stroke="red" stroke-width="3" />
  </g>
</svg>