<svg xmlns="http://www.w3.org/2000/svg" width="512" height="512" viewBox="0 0 512 512">
  <g class="glyph">
    <path d="M 403 15 Q 403 18 402 20 Q 402 22 401 24 Q 403 25 403 25 Q 404 25 405 26 Q 401 39 418 31 Q 419 32 420 33 Q 422 34 420 38 Q 432 37 443 37 Q 454 37 465 37 Q 466 41 467 46 Q 468 50 469 55 H 484 Q 485 60 486 65 Q 487 70 488 76 Q 490 77 492 77 Q 494 77 497 78 Q 498 81 498 84 Q 498 86 498 89 Q 494 90 489 91 Q 485 92 481 93 V 94 Q 485 94 488 95 Q 492 95 496 96 Q 497 103 496 110 Q 495 117 494 125 L 394 131 Q 392 137 390 143 Q 388 149 387 156 Q 388 156 390 157 Q 391 157 392 157 Q 404 162 414 168 Q 425 174 433 183 Q 439 190 446 196 Q 452 202 459 208 Q 458 210 455 213 H 462 Q 473 227 480 243 Q 486 257 490 272 Q 493 287 494 302 Q 497 330 494 357 Q 492 384 487 412 Q 483 436 477 460 Q 471 483 464 507 Q 464 509 463 512 Q 456 512 451 511 Q 445 510 439 509 Q 439 506 440 503 Q 440 501 442 498 Q 440 499 440 501 Q 439 502 438 504 Q 436 503 436 503 Q 428 495 419 501 Q 416 503 413 502 Q 409 500 405 498 Q 400 496 396 494 Q 396 491 397 489 Q 397 487 397 485 Q 392 482 387 480 Q 382 478 377 475 Q 376 477 376 478 Q 375 480 374 482 Q 370 482 366 481 Q 363 480 359 479 Q 355 478 351 476 Q 348 475 344 474 V 495 Q 322 500 300 504 Q 277 507 254 508 V 499 V 490 H 251 Q 244 489 242 495 Q 239 502 235 509 Q 217 508 200 504 Q 183 501 169 489 Q 160 482 153 474 Q 145 466 138 458 Q 132 451 129 444 Q 127 436 125 428 Q 122 412 124 397 Q 126 382 132 367 L 142 343 Q 150 344 157 346 Q 164 349 171 352 Q 170 349 170 346 Q 170 342 169 340 Q 164 340 159 340 Q 154 340 149 341 Q 147 336 146 332 Q 145 327 144 322 H 131 Q 131 321 130 320 Q 129 320 129 318 Q 128 313 127 307 Q 126 301 125 296 Q 125 293 125 292 Q 124 290 121 288 Q 119 285 118 282 Q 116 279 114 276 Q 113 275 112 273 Q 112 272 110 271 Q 113 329 118 386 Q 123 443 129 501 Q 124 503 115 506 Q 107 508 97 509 Q 86 510 77 511 Q 67 511 59 510 Q 58 505 58 501 Q 57 497 56 493 Q 52 492 49 492 Q 45 492 41 491 Q 21 364 6 238 Q 9 237 11 236 Q 13 235 14 234 Q 16 233 18 232 Q 21 231 22 228 Q 17 227 13 228 Q 10 229 5 228 Q 4 218 3 207 Q 1 196 0 186 Q 22 178 43 176 Q 64 175 86 178 Q 86 180 86 182 Q 86 184 87 186 Q 96 183 105 180 Q 113 178 123 175 Q 122 172 122 170 Q 121 167 121 164 Q 117 164 113 164 Q 109 164 105 163 Q 105 160 104 157 Q 104 155 104 151 Q 97 152 90 152 Q 84 153 77 153 Q 76 151 75 148 Q 74 145 73 142 H 72 Q 72 145 71 148 Q 70 151 70 153 Q 60 155 50 155 Q 40 156 30 157 Q 29 152 27 147 Q 25 143 24 138 Q 21 139 18 139 Q 15 139 12 139 Q 8 131 6 119 Q 3 107 3 94 Q 3 81 4 70 Q 5 59 7 53 Q 27 52 47 51 Q 67 50 88 49 Q 86 39 85 30 Q 84 22 82 13 Q 104 5 126 3 Q 147 2 169 6 Q 170 7 170 9 Q 170 11 170 13 V 21 Q 174 22 178 23 Q 183 23 187 23 Q 187 29 188 34 Q 188 40 188 45 Q 219 44 249 44 Q 279 43 310 42 Q 312 32 314 23 Q 316 14 317 5 Q 333 21 330 4 Q 339 4 345 6 Q 345 9 347 13 Q 349 9 350 6 Q 352 3 353 0 Q 367 1 379 5 Q 392 10 403 15 Z M 440 203 Q 428 207 417 211 Q 405 214 393 218 Q 402 211 411 204 Q 421 198 430 191 Q 411 172 386 164 Q 373 159 359 157 Q 344 156 330 155 Q 300 153 271 156 Q 242 159 212 163 Q 182 168 153 175 Q 124 182 95 191 Q 93 192 89 193 Q 86 230 108 262 Q 109 261 111 261 Q 112 260 113 260 Q 139 251 165 244 Q 190 237 217 231 Q 253 224 290 221 Q 306 220 321 219 Q 336 219 352 222 Q 369 223 381 232 Q 388 237 393 245 Q 397 252 401 260 Q 405 271 407 283 Q 408 294 409 305 Q 411 325 409 344 Q 408 363 405 381 Q 402 403 397 424 Q 392 445 387 467 Q 386 468 386 472 Q 388 473 391 474 Q 393 475 396 476 Q 401 466 406 455 Q 411 445 416 435 Q 417 442 416 451 Q 415 461 413 468 Q 413 469 413 471 Q 412 472 414 474 Q 417 475 417 473 Q 418 471 418 470 Q 424 455 429 440 Q 434 425 437 409 Q 438 407 439 403 Q 439 400 440 397 Q 444 397 447 397 Q 444 420 440 442 Q 436 463 430 485 Q 431 486 433 486 Q 434 486 436 487 H 439 Q 440 484 442 481 Q 446 462 451 444 Q 455 425 459 407 Q 466 380 468 353 Q 471 326 470 299 Q 469 281 466 264 Q 463 247 456 231 Q 453 224 449 217 Q 446 210 440 203 Z M 47 128 Q 48 123 49 118 Q 49 113 50 108 Q 52 103 52 99 Q 53 94 56 89 Q 58 99 60 107 Q 62 116 65 125 Q 125 121 183 118 Q 241 114 301 109 Q 304 94 306 79 Q 308 64 311 48 Q 236 50 163 52 Q 89 55 14 58 Q 12 77 13 94 Q 13 112 19 130 Q 26 129 33 129 Q 40 128 47 128 Z M 104 476 Q 96 403 90 330 Q 85 257 80 183 Q 62 181 44 182 Q 27 183 9 190 Q 10 198 11 205 Q 11 212 13 220 Q 26 218 40 216 Q 54 215 67 213 V 214 Q 54 221 41 228 Q 28 234 15 241 Q 22 302 30 362 Q 38 422 48 483 Q 53 484 61 484 Q 69 483 77 483 Q 85 482 92 480 Q 100 478 104 476 Z M 176 335 Q 178 352 184 367 Q 189 381 197 395 Q 201 394 204 393 Q 208 392 211 391 Q 226 386 241 383 Q 257 381 273 382 Q 283 382 294 385 Q 309 389 309 404 Q 309 408 309 413 Q 309 417 309 422 Q 307 430 305 438 Q 316 444 327 449 Q 338 454 350 456 Q 353 447 356 442 Q 360 429 362 415 Q 364 401 361 388 Q 359 376 352 364 Q 344 367 336 371 Q 328 376 320 380 Q 318 379 318 377 Q 317 376 316 375 Q 322 368 328 362 Q 335 356 341 350 Q 333 341 322 336 Q 309 329 296 327 Q 282 324 267 324 Q 250 322 233 324 Q 215 326 199 330 Q 193 331 188 332 Q 182 334 176 335 Z M 136 315 Q 194 311 251 308 Q 309 304 367 301 Q 367 297 368 291 Q 368 285 368 278 Q 368 272 367 267 Q 366 261 365 258 H 360 Q 353 258 346 258 Q 340 258 333 258 H 234 Q 220 258 206 259 Q 191 259 177 259 H 144 Q 142 259 139 259 Q 137 260 134 260 Q 132 274 133 288 Q 133 301 136 315 Z M 302 137 Q 330 148 357 149 Q 357 147 361 137 Q 364 127 368 113 Q 372 99 377 83 Q 381 67 385 53 Q 389 40 391 30 Q 394 21 394 19 Q 385 15 377 13 Q 368 10 359 8 Q 357 11 355 15 Q 353 19 352 22 Q 350 26 349 29 Q 348 33 345 37 Q 344 30 342 24 Q 341 17 340 10 Q 336 10 333 10 Q 329 10 325 10 Q 319 42 314 74 Q 309 105 302 137 Z M 147 352 Q 147 352 145 353 Q 138 368 134 383 Q 129 399 130 415 Q 131 427 135 438 Q 139 449 147 459 Q 155 467 165 472 Q 175 478 187 481 Q 200 483 211 483 Q 218 470 224 457 Q 231 443 238 430 Q 232 429 227 429 Q 222 429 218 428 Q 211 427 206 426 Q 200 426 195 423 Q 190 420 190 415 Q 191 412 191 410 Q 191 408 191 406 Q 192 403 191 401 Q 186 392 182 384 Q 178 375 174 365 Q 174 364 174 364 Q 173 363 172 362 Q 160 355 147 352 Z M 388 425 Q 389 423 389 422 Q 389 421 390 420 Q 392 408 394 397 Q 396 385 398 373 Q 401 353 402 334 Q 403 314 401 294 Q 400 284 397 275 Q 395 266 392 257 Q 389 251 385 251 Q 380 250 375 249 Q 369 247 364 246 Q 347 244 330 245 Q 313 246 296 247 Q 292 248 288 249 Q 285 249 281 250 H 371 Q 372 254 373 259 Q 373 263 375 267 H 389 Q 396 295 391 325 Q 375 326 359 327 Q 344 328 327 329 Q 331 332 333 333 Q 337 337 342 340 Q 346 343 349 348 Q 352 350 354 353 Q 357 355 359 357 Q 362 360 365 362 Q 367 364 369 368 Q 368 369 368 369 Q 367 369 367 371 Q 366 371 364 375 Q 367 373 369 373 Q 371 373 373 372 Q 381 384 384 397 Q 388 410 388 425 Z M 399 81 467 68 V 66 Q 455 65 443 64 Q 431 62 418 61 V 60 Q 429 59 440 57 Q 450 56 461 54 Q 460 51 460 49 Q 460 47 459 45 Q 443 45 427 46 Q 411 46 395 46 Q 391 61 387 76 Q 383 90 378 105 Q 424 103 469 100 L 471 85 Q 452 84 434 83 Q 416 83 399 82 Z M 318 472 Q 318 468 318 466 Q 317 463 317 460 Q 317 451 310 448 Q 308 448 307 448 Q 305 447 304 446 Q 302 444 300 443 Q 298 442 296 440 Q 298 436 299 433 Q 300 429 301 425 Q 287 426 273 427 Q 259 428 246 429 Q 246 431 245 439 Q 245 447 244 456 Q 244 465 244 473 Q 243 481 244 483 Q 262 482 281 479 Q 300 476 318 472 Z M 164 11 Q 157 9 147 9 Q 136 9 126 9 Q 115 10 106 12 Q 97 14 93 17 Q 94 25 95 32 Q 96 40 97 48 Q 115 46 131 46 Q 148 46 165 45 Q 165 36 165 28 Q 164 19 164 11 Z M 113 156 Q 141 157 168 149 Q 168 143 168 138 Q 168 132 168 126 Q 153 127 139 128 Q 124 129 109 130 Z M 194 158 Q 208 156 221 154 Q 235 152 248 151 Q 261 149 275 148 Q 288 147 302 146 Q 300 145 298 144 Q 296 143 294 143 V 137 Q 269 139 244 140 Q 219 142 194 144 Z M 246 422 Q 261 422 274 420 Q 288 419 302 416 V 408 Q 281 406 261 409 Q 241 413 221 420 Q 226 421 230 421 Q 234 421 238 422 Q 243 422 245 418 Q 245 418 245 418 Q 245 419 246 422 Z" fill="black" />
  </g>
  <g class="defect" id="01">
    <path d="M 405 26 Q 401 39 418 31" fill="none" stroke="red" stroke-width="3" />
  </g>
  <g class="defect" id="02">
    <path d="M 317 5 Q 333 21 330 4" fill="none" stroke="red" stroke-width="3" />
  </g>
</svg>