<svg xmlns="http://www.w3.org/2000/svg" width="512" height="512" viewBox="0 0 512 512">
  <g class="glyph">
    <path d="M 488 291 Q 488 292 488 292 Q 488 292 488 292 Q 487 303 483 313 Q 479 323 474 333 Q 470 342 464 350 Q 458 358 451 365 Q 450 366 450 367 Q 449 367 448 368 Q 442 366 437 362 Q 432 358 426 354 Q 425 360 425 365 Q 424 370 424 376 Q 394 378 366 381 Q 337 383 308 386 V 391 Q 308 397 308 404 Q 308 411 308 418 Q 310 424 304 426 Q 303 426 302 428 Q 305 429 308 429 Q 309 449 308 468 Q 308 488 306 509 Q 297 511 289 511 Q 280 512 271 511 V 497 H 270 Q 269 500 268 502 Q 267 504 266 507 Q 265 510 264 511 Q 263 511 260 511 Q 254 510 248 510 Q 243 509 237 508 Q 237 504 237 500 Q 237 497 236 493 Q 232 492 228 492 Q 223 491 219 490 Q 218 466 216 442 Q 214 419 210 395 Q 179 398 148 401 Q 116 403 85 406 Q 83 401 82 397 Q 80 392 79 387 Q 76 388 73 388 Q 70 388 67 388 Q 64 381 63 374 Q 61 367 60 359 H 51 Q 50 355 49 350 Q 47 346 46 342 H 33 Q 26 316 20 291 Q 14 266 8 240 Q 11 238 14 237 Q 18 236 20 234 Q 20 233 20 233 Q 17 233 14 233 Q 11 233 7 233 Q 6 226 4 218 Q 2 210 0 201 Q 20 191 41 189 Q 62 186 84 188 Q 85 191 85 194 Q 85 198 86 201 Q 95 199 103 197 Q 111 195 120 194 Q 129 192 137 190 Q 145 188 153 186 Q 170 183 188 180 Q 187 178 186 177 Q 186 175 185 174 Q 169 178 153 180 Q 137 182 120 179 Q 119 175 119 171 Q 119 167 118 163 Q 114 162 110 162 Q 106 162 103 162 Q 101 156 101 150 Q 94 150 87 150 Q 81 151 74 151 Q 73 148 73 146 Q 72 143 71 140 H 70 Q 69 143 69 146 Q 68 149 67 152 Q 58 153 48 153 Q 38 154 28 155 Q 27 151 26 146 Q 24 142 23 137 H 10 Q 3 116 2 95 Q 2 74 5 52 Q 26 51 46 50 Q 66 50 86 49 Q 85 39 84 31 Q 82 22 81 13 Q 102 5 123 4 Q 145 3 166 6 Q 167 10 167 14 Q 167 17 167 21 Q 172 22 176 22 Q 180 23 184 23 Q 185 29 185 34 Q 185 39 185 45 Q 215 44 244 43 Q 274 42 303 41 Q 305 32 306 23 Q 307 14 308 5 Q 313 4 322 4 Q 330 4 336 6 Q 337 7 337 9 Q 338 10 338 12 H 339 Q 341 7 344 0 Q 370 6 392 17 Q 392 20 391 22 Q 391 24 391 26 L 406 33 Q 408 34 409 35 Q 410 36 410 39 H 456 Q 457 43 458 47 Q 458 51 460 56 H 474 Q 475 61 476 66 Q 477 71 478 77 Q 481 77 482 78 Q 484 78 487 78 Q 487 81 487 84 Q 488 87 488 90 Q 483 92 479 92 Q 475 93 471 94 V 95 H 486 Q 486 103 485 110 Q 484 117 483 125 Q 458 126 435 127 Q 412 129 387 130 Q 385 141 382 151 Q 380 161 377 171 Q 382 172 386 173 Q 390 174 394 175 Q 419 181 438 194 Q 443 198 447 202 L 468 222 Q 471 225 473 228 Q 474 230 474 231 Q 474 232 475 234 L 476 234 Q 478 234 478 235 Q 479 236 479 237 Q 483 244 485 250 Q 488 257 488 264 Q 488 265 489 266 Q 488 273 488 279 Q 488 285 488 291 Z M 448 215 Q 447 214 445 211 Q 436 202 425 196 Q 415 191 404 186 Q 388 181 373 179 Q 358 177 343 176 Q 308 174 274 177 Q 241 179 206 184 Q 177 189 148 195 Q 119 201 90 207 Q 89 208 88 208 Q 88 208 87 209 V 212 Q 88 222 89 232 Q 90 242 91 253 Q 92 259 94 265 Q 95 271 99 278 Q 100 277 101 277 Q 102 277 103 276 Q 119 273 135 269 Q 151 265 167 260 Q 192 254 217 250 Q 242 245 267 242 Q 271 242 273 238 Q 275 230 279 222 Q 282 214 285 205 Q 286 204 286 203 Q 287 202 287 201 H 288 Q 289 211 290 220 Q 291 230 292 239 H 296 Q 307 238 319 238 Q 330 238 343 237 Q 368 248 362 238 Q 372 239 381 242 Q 386 243 391 245 Q 395 247 399 249 Q 407 253 407 263 Q 407 270 404 279 Q 403 281 402 284 Q 401 286 399 289 Q 402 289 402 291 Q 403 292 403 294 Q 404 301 405 308 Q 406 314 407 321 Q 408 322 408 323 Q 408 324 408 326 Q 413 330 418 334 Q 423 338 429 341 Q 429 340 430 340 Q 430 339 431 338 Q 440 328 446 317 Q 453 306 457 295 Q 462 284 463 272 Q 465 260 463 248 Q 462 242 460 237 Q 458 232 455 226 Q 447 229 441 232 Q 434 235 427 237 Q 426 236 425 234 Q 425 233 424 231 Q 430 227 436 223 Q 442 220 448 215 Z M 72 379 Q 154 372 236 365 Q 317 359 399 351 Q 402 324 396 297 Q 394 297 394 297 Q 393 297 392 297 Q 381 297 370 298 Q 359 298 348 298 Q 330 299 313 300 Q 296 300 278 301 Q 266 301 255 302 Q 243 302 232 302 Q 215 303 197 304 Q 180 304 162 305 Q 150 306 137 306 Q 124 306 111 307 Q 108 307 105 307 Q 102 307 98 308 Q 99 313 99 318 Q 99 322 100 327 Q 92 331 83 333 Q 74 335 66 338 Q 66 349 68 359 Q 69 369 72 379 Z M 12 60 Q 10 68 9 78 Q 9 89 10 99 Q 10 109 12 117 Q 14 126 17 130 Q 23 129 30 129 Q 36 129 44 128 Q 46 118 47 109 Q 49 99 51 90 H 52 Q 55 99 57 108 Q 59 117 62 126 Q 120 122 177 118 Q 233 115 291 110 Q 292 110 293 110 Q 293 110 294 110 H 295 V 109 Q 296 94 298 79 Q 300 65 302 49 Q 228 52 156 54 Q 84 57 12 60 Z M 297 142 Q 323 152 351 154 Q 359 121 367 88 Q 375 56 383 23 Q 374 18 365 15 Q 356 12 347 10 Q 344 18 341 25 Q 338 33 334 41 Q 331 26 329 13 Q 324 13 321 13 Q 318 13 313 12 Q 310 45 306 77 Q 302 109 297 142 Z M 13 225 Q 15 225 17 225 Q 19 225 20 225 Q 33 222 46 220 Q 58 218 71 217 Q 72 217 72 217 Q 73 216 73 216 H 76 Q 61 223 46 230 Q 31 236 17 243 Q 23 266 28 289 Q 33 311 39 333 Q 44 333 52 332 Q 59 331 67 329 Q 75 328 82 326 Q 89 324 92 322 Q 88 290 85 258 Q 82 227 78 194 Q 60 193 43 195 Q 25 198 9 205 Q 9 211 10 215 Q 12 220 13 225 Z M 215 375 Q 224 429 226 483 Q 230 484 234 485 Q 237 485 242 486 Q 246 474 249 463 Q 252 452 256 441 H 258 Q 258 447 259 452 Q 259 458 260 463 Q 260 470 260 475 Q 260 481 260 487 Q 265 486 271 486 Q 276 486 281 485 Q 282 468 282 452 Q 283 435 283 419 Q 280 419 278 420 Q 275 420 272 420 L 262 422 Q 259 422 257 423 Q 254 423 251 422 Q 253 421 255 420 Q 256 419 257 418 Q 263 415 268 412 Q 273 408 279 406 Q 283 403 283 397 Q 283 391 283 385 Q 283 380 282 374 Q 282 373 282 372 Q 282 371 281 370 Q 265 371 248 372 Q 232 374 215 375 Z M 295 266 Q 255 271 215 279 Q 194 284 175 288 Q 155 293 135 299 H 137 Q 154 298 173 298 Q 191 297 209 297 Q 220 296 230 296 Q 241 296 252 295 Q 270 295 287 294 Q 305 294 322 292 Q 338 292 354 291 Q 370 291 386 290 Q 390 290 390 288 Q 393 284 395 278 Q 397 273 398 267 Q 374 262 350 263 Q 327 264 302 265 Q 301 261 301 257 Q 301 253 301 249 H 300 Q 299 253 298 257 Q 296 262 295 266 Z M 458 101 Q 458 97 459 94 Q 459 90 460 86 Q 442 85 425 85 Q 407 84 390 83 Q 398 81 406 79 Q 415 77 423 76 Q 431 73 440 72 Q 448 70 456 67 Q 444 66 432 65 Q 420 63 408 62 V 61 Q 419 60 429 58 Q 440 57 451 55 Q 450 50 450 47 Q 433 47 417 47 Q 413 33 385 48 Q 382 62 378 77 Q 375 92 371 106 Q 393 105 415 103 Q 436 102 458 101 Z M 196 179 Q 212 177 228 175 Q 244 173 260 170 Q 255 158 252 146 Q 248 135 244 122 Q 226 126 210 134 Q 194 141 180 152 Q 184 159 188 166 Q 192 173 196 179 Z M 159 46 Q 159 38 159 29 Q 159 21 158 13 Q 141 10 123 11 Q 106 12 88 18 Q 89 26 90 34 Q 92 41 93 49 Q 110 48 126 48 Q 143 47 159 46 Z M 108 155 Q 136 158 162 150 V 126 Q 147 127 133 128 Q 119 129 105 130 Q 106 137 106 143 Q 107 149 108 155 Z M 307 164 Q 308 162 308 159 Q 308 157 308 154 Q 303 152 298 150 Q 294 148 290 146 Q 290 143 290 142 Q 290 140 290 137 Q 285 137 278 137 Q 272 138 269 140 Q 271 147 274 154 Q 276 162 279 169 Q 288 169 297 169 Q 305 168 314 168 V 167 Q 312 167 311 166 Q 310 165 307 164 Z" fill="black" />
  </g>
  <g class="defect" id="01">
    <path d="M 417 47 Q 413 33 385 48" fill="none" stroke="red" stroke-width="3" />
  </g>
  <g class="defect" id="02">
    <path d="M 343 237 Q 368 248 362 238" fill="none" stroke="red" stroke-width="3" />
  </g>
</svg>