<svg xmlns="http://www.w3.org/2000/svg" width="512" height="512" viewBox="0 0 512 512">
  <g class="glyph">
    <path d="M 403 109 Q 403 113 403 116 Q 403 119 404 122 Q 407 119 407 116 Q 408 112 409 108 Q 418 108 428 108 Q 437 108 446 107 Q 447 111 447 116 Q 448 120 449 124 H 462 Q 464 127 465 134 Q 466 141 467 150 Q 467 159 467 167 Q 466 175 465 180 Q 458 180 450 180 Q 443 181 435 181 Q 436 185 436 189 Q 436 192 437 196 Q 441 196 444 196 Q 447 196 451 197 Q 454 209 455 221 Q 455 233 453 245 Q 450 246 447 246 Q 444 246 441 247 Q 442 248 442 248 Q 443 249 444 250 Q 446 251 448 253 Q 450 255 452 257 Q 453 258 454 259 Q 456 260 456 262 Q 456 263 456 264 Q 457 264 458 265 Q 461 268 465 271 Q 469 274 473 278 Q 471 283 468 289 Q 464 294 461 299 Q 462 304 463 309 Q 464 314 465 319 Q 461 320 458 322 Q 455 323 452 325 V 325 Q 455 325 458 325 Q 461 325 464 324 Q 466 339 463 355 Q 447 357 432 358 Q 417 359 401 360 Q 401 360 401 361 Q 402 362 403 362 Q 404 362 406 363 Q 415 367 422 373 Q 429 379 435 387 Q 436 388 437 389 Q 438 390 439 391 Q 459 407 463 430 Q 464 437 463 443 Q 463 449 461 456 Q 458 467 449 480 Q 439 492 430 498 Q 426 495 422 492 Q 418 489 414 486 V 499 Q 354 508 296 511 Q 295 508 295 505 Q 295 502 295 498 H 294 Q 293 501 291 505 Q 290 508 289 511 Q 287 511 286 512 Q 285 512 283 512 Q 269 512 255 512 Q 229 522 226 509 Q 214 506 202 501 Q 190 495 181 485 L 166 470 Q 162 467 159 463 Q 157 459 153 456 Q 148 463 143 470 Q 137 478 131 485 Q 129 484 126 483 Q 124 482 122 481 L 129 465 H 127 Q 125 468 122 471 Q 120 475 117 478 Q 113 477 110 474 Q 101 467 91 459 Q 87 457 85 452 Q 84 450 82 449 Q 80 448 78 446 Q 76 458 75 469 Q 74 480 73 492 Q 58 493 45 492 Q 31 490 18 487 Q 18 483 18 480 Q 18 477 18 474 Q 14 473 9 472 Q 5 471 0 470 Q 1 465 1 462 Q 1 458 1 454 Q 3 435 4 415 Q 5 395 7 375 L 15 290 Q 16 277 17 264 Q 19 252 20 238 Q 21 234 24 233 Q 26 231 29 230 Q 32 228 35 225 Q 32 225 29 225 Q 26 225 22 225 Q 22 220 23 216 Q 23 211 24 207 Q 24 203 24 200 Q 25 196 25 191 V 186 H 12 Q 6 168 6 152 Q 6 135 9 118 H 29 Q 27 113 26 110 Q 25 106 24 102 H 12 Q 5 85 4 68 Q 4 51 8 33 Q 26 32 44 32 Q 61 32 80 31 Q 79 26 79 22 Q 78 17 77 11 Q 97 6 117 5 Q 137 4 158 7 Q 158 11 158 15 Q 158 19 159 23 Q 166 23 174 24 Q 175 25 175 26 Q 175 27 175 29 Q 203 28 230 28 Q 257 27 285 27 Q 286 21 286 15 Q 287 9 288 3 Q 295 2 301 2 Q 308 3 314 3 Q 315 4 315 6 Q 316 8 317 9 Q 318 6 319 4 Q 321 2 322 0 Q 345 3 369 11 Q 368 14 368 17 Q 368 19 367 23 Q 371 24 374 25 Q 378 26 382 25 Q 383 25 385 25 Q 387 25 388 25 Q 397 25 406 25 Q 416 25 425 25 H 431 Q 432 29 433 33 Q 433 38 435 42 H 448 Q 449 47 450 51 Q 451 55 452 59 Q 457 60 461 60 Q 461 63 461 66 Q 461 68 461 71 Q 457 72 452 73 V 74 Q 457 74 459 74 Q 460 81 459 87 Q 458 93 457 98 Q 434 99 412 100 Q 389 101 366 102 Q 366 104 365 105 Q 365 107 365 109 Q 375 109 384 109 Q 394 109 403 109 Z M 393 116 Q 382 117 371 117 Q 359 117 349 118 Q 330 118 312 119 Q 295 119 277 119 Q 253 120 230 121 Q 207 121 183 122 Q 166 122 148 122 Q 130 123 111 123 Q 92 124 73 124 Q 54 125 35 125 Q 31 125 26 125 Q 21 125 17 126 Q 15 140 15 153 Q 15 166 19 179 H 27 Q 45 177 63 177 Q 81 176 100 175 Q 119 174 138 173 Q 158 172 177 170 Q 196 169 216 168 Q 236 167 255 166 Q 274 165 294 164 Q 313 163 333 162 Q 359 161 384 159 Q 410 158 436 156 Q 440 156 442 155 Q 445 135 441 115 H 416 Q 415 118 414 121 Q 413 124 412 127 Q 411 130 410 133 Q 409 137 408 139 Q 407 142 406 145 Q 405 148 402 150 Q 398 142 398 134 Q 397 125 396 116 Z M 438 290 Q 425 291 414 291 Q 403 291 391 292 Q 366 293 342 294 Q 318 295 294 296 Q 274 296 255 297 Q 236 297 216 298 Q 196 299 176 300 Q 157 300 137 301 Q 126 301 116 301 Q 105 302 95 302 Q 91 302 91 303 Q 90 304 89 307 Q 88 323 89 339 Q 90 343 91 347 Q 91 352 93 356 Q 180 350 266 344 Q 353 338 440 331 Q 440 327 440 323 Q 440 319 440 315 Q 428 316 417 317 Q 406 317 394 316 Q 405 311 417 307 Q 428 303 439 298 Q 439 296 439 296 Q 438 295 438 294 Q 438 293 438 292 Q 438 291 438 290 Z M 414 472 Q 422 464 428 456 Q 435 447 438 436 Q 445 411 430 391 Q 421 379 407 372 Q 395 365 382 362 Q 369 359 355 358 Q 337 356 318 356 Q 300 357 281 358 Q 264 359 248 361 Q 231 362 215 365 Q 210 365 205 366 Q 200 367 195 367 Q 195 381 197 394 Q 200 407 205 420 Q 265 407 326 404 Q 328 398 330 393 Q 332 387 335 381 H 336 Q 337 387 337 392 Q 338 397 339 403 Q 340 403 342 404 Q 343 404 344 404 Q 359 404 374 407 Q 379 409 384 411 Q 389 413 393 416 Q 399 420 396 426 Q 393 432 390 437 Q 389 438 388 440 Q 387 441 386 443 Q 392 451 398 459 Q 405 466 414 472 Z M 53 64 Q 55 72 58 78 Q 60 85 62 93 Q 69 92 75 92 Q 81 91 87 91 Q 103 90 120 89 Q 137 88 153 87 Q 166 87 178 86 Q 190 86 203 85 Q 207 84 210 83 Q 214 82 217 81 Q 232 75 245 72 Q 249 70 254 69 Q 255 73 257 76 Q 258 79 260 82 Q 262 82 265 82 Q 267 82 269 82 Q 272 82 274 81 Q 276 81 279 81 Q 280 77 281 70 Q 282 63 283 55 Q 283 48 284 42 Q 285 36 285 34 Q 148 37 15 41 Q 12 55 13 68 Q 13 82 18 96 Q 25 95 31 95 Q 38 95 44 94 Q 46 86 48 79 Q 49 72 52 64 Z M 382 436 Q 371 437 365 437 Q 339 440 313 441 Q 287 442 261 441 Q 252 440 243 440 Q 233 439 224 437 Q 220 436 216 435 Q 212 434 209 431 Q 207 430 205 428 Q 203 427 201 428 Q 193 413 190 396 Q 189 395 189 394 Q 188 392 187 392 Q 182 388 176 385 Q 170 382 164 381 Q 163 382 163 383 Q 162 383 162 383 Q 158 393 156 402 Q 153 411 153 421 Q 152 452 177 471 Q 183 475 190 478 Q 197 481 204 483 Q 217 486 230 487 Q 244 488 258 488 H 267 Q 270 479 273 470 Q 276 461 279 452 Q 285 470 286 487 Q 313 486 339 483 Q 364 480 390 476 Q 390 473 390 470 Q 390 466 390 463 Q 390 459 387 457 Q 385 453 382 449 Q 379 446 376 442 Q 377 440 379 439 Q 380 438 382 436 Z M 49 468 Q 56 405 64 342 Q 72 280 83 216 V 214 Q 83 214 82 213 H 82 Q 69 219 56 225 Q 44 231 31 237 Q 29 239 27 243 Q 27 248 26 254 Q 26 260 25 266 Q 24 280 22 294 Q 20 309 19 323 Q 18 340 16 356 Q 15 373 13 390 Q 12 402 11 414 Q 10 426 9 438 L 8 464 Q 18 467 28 468 Q 38 470 49 468 Z M 373 285 Q 373 283 373 274 Q 374 265 374 252 Q 375 239 375 225 Q 376 210 376 198 Q 376 186 376 177 Q 376 168 376 167 Q 364 168 351 168 Q 338 169 324 169 Q 326 199 328 227 Q 329 256 331 285 Q 343 287 353 286 Q 363 286 373 285 Z M 317 30 Q 315 24 314 20 Q 312 15 311 11 Q 304 10 302 10 Q 299 11 295 12 Q 293 33 290 55 Q 287 76 285 98 Q 298 102 311 104 Q 324 106 337 106 Q 343 83 349 62 Q 355 40 362 17 Q 353 15 345 12 Q 336 10 327 9 Q 324 14 322 19 Q 319 24 317 30 Z M 196 265 Q 197 262 198 261 Q 202 253 202 241 V 236 Q 203 223 203 209 Q 203 196 204 183 V 176 Q 191 177 178 178 Q 165 178 152 179 Q 153 206 155 232 Q 157 258 159 285 Q 180 288 200 285 Q 200 282 200 279 Q 200 277 201 274 Q 201 272 201 269 Q 200 266 196 265 Z M 176 376 Q 181 372 185 365 Q 190 359 191 357 H 190 Q 175 358 160 359 Q 145 360 129 361 Q 126 361 124 365 Q 113 382 102 399 Q 91 416 81 433 Q 80 434 80 435 Q 80 436 79 437 Q 83 441 88 445 Q 93 449 99 452 Q 108 440 117 428 Q 126 417 135 406 Q 135 406 136 407 Q 132 417 129 427 Q 125 437 122 446 Q 124 445 125 443 Q 130 437 134 432 Q 138 426 142 421 Q 147 415 149 407 Q 151 399 154 389 Q 157 382 161 374 Q 165 374 169 375 Q 172 375 176 376 Z M 365 33 Q 361 45 358 56 Q 355 67 352 78 Q 373 77 394 76 Q 415 76 435 75 Q 436 72 436 69 Q 436 67 436 64 Q 425 63 415 63 Q 406 63 395 62 V 55 Q 403 54 411 53 Q 419 51 428 49 V 49 Q 417 48 406 47 Q 394 46 383 45 V 43 Q 394 42 405 41 Q 416 40 427 38 Q 427 37 427 35 Q 426 34 426 33 Z M 279 230 Q 290 229 300 229 Q 311 229 322 227 Q 321 216 320 206 Q 320 196 319 185 Q 309 184 299 184 Q 289 184 279 184 Q 276 193 276 207 Q 276 221 279 230 Z M 447 262 Q 437 254 427 246 Q 417 237 406 228 Q 399 235 393 242 Q 388 250 384 259 Q 395 265 404 271 Q 414 277 424 283 Q 426 284 429 284 Q 432 285 433 282 Q 442 274 447 262 Z M 107 233 Q 118 233 128 233 Q 138 232 148 232 Q 147 221 147 210 Q 146 199 145 188 H 106 Q 104 200 104 211 Q 104 222 107 233 Z M 211 189 Q 210 200 210 209 Q 210 218 210 227 Q 216 229 220 228 Q 224 227 227 223 Q 230 224 232 225 Q 234 227 236 227 Q 241 227 247 227 Q 252 226 258 226 Q 259 217 259 208 Q 259 200 257 191 Q 234 189 211 189 Z M 429 222 Q 431 213 431 204 Q 430 196 429 187 Q 417 187 407 187 Q 396 187 385 186 Q 385 196 384 205 Q 384 215 383 224 H 393 Q 397 224 400 223 Q 403 223 406 220 H 406 Q 408 221 410 222 Q 411 223 413 223 Q 417 223 421 223 Q 425 223 429 222 Z M 31 218 Q 45 220 58 216 Q 71 213 84 210 Q 86 204 86 199 Q 87 193 88 187 Q 85 186 82 184 Q 79 183 75 183 Q 66 184 56 185 Q 47 185 38 186 Q 36 186 35 187 Q 34 194 33 202 Q 32 210 31 218 Z M 89 267 Q 91 273 97 280 Q 102 287 107 291 Q 117 284 127 277 Q 137 271 148 263 Q 145 258 142 254 Q 139 250 136 246 Q 131 240 129 240 Q 127 239 121 239 Q 118 239 115 242 Q 110 246 106 251 Q 101 255 97 260 Z M 251 77 Q 233 82 218 89 Q 202 96 189 107 Q 190 109 191 110 Q 193 114 198 114 Q 210 113 221 113 Q 232 113 244 112 Q 248 112 253 112 Q 257 112 262 112 Q 255 94 251 77 Z M 324 262 Q 323 261 322 259 Q 322 258 321 257 Q 318 253 315 248 Q 311 243 307 239 Q 301 231 293 238 L 269 261 Q 268 262 267 262 Q 267 263 266 264 Q 269 271 273 276 Q 277 282 282 287 Q 303 275 324 262 Z M 240 282 Q 245 278 250 270 Q 255 263 257 258 Q 250 252 243 245 Q 236 238 228 232 Q 221 238 215 246 Q 209 253 205 262 Q 223 273 240 282 Z M 87 17 Q 87 21 88 24 Q 88 27 89 32 Q 105 31 121 31 Q 137 30 153 30 Q 153 25 153 22 Q 153 18 153 13 Q 136 12 119 13 Q 103 13 87 17 Z M 155 95 Q 142 96 129 96 Q 116 97 102 98 Q 103 101 104 103 Q 104 106 104 109 Q 118 109 131 108 Q 144 108 156 105 Q 156 102 156 99 Q 155 97 155 95 Z M 82 413 Q 84 411 84 411 Q 95 396 103 381 Q 104 379 104 378 Q 103 374 102 370 Q 101 366 100 362 Q 97 362 94 363 Q 91 363 89 364 Q 87 376 86 388 Q 84 401 82 413 Z M 367 429 Q 347 428 328 430 Q 309 431 290 434 Q 309 433 328 433 Q 347 432 367 429 Z M 295 111 Q 296 108 294 107 Q 290 106 287 106 Q 283 106 280 107 Q 280 111 284 111 Z M 265 191 Q 265 193 265 195 Q 265 196 266 198 Q 266 198 266 199 Q 267 200 267 201 Q 269 199 269 198 Q 269 196 269 191 Z M 70 108 Q 69 110 69 112 Q 69 115 68 117 Q 69 117 71 117 Q 72 117 73 116 Q 73 114 72 112 Q 72 110 71 108 Z M 269 251 Q 267 250 265 250 Q 262 250 260 251 Q 262 252 263 253 Q 264 254 265 255 Q 266 254 269 251 Z M 184 113 Q 183 112 183 112 Q 182 112 181 111 Q 180 112 180 113 Q 182 115 184 113 Z M 110 116 H 106 Z" fill="black" />
  </g>
  <g class="defect" id="01">
    <path d="M 255 512 Q 229 522 226 509" fill="none" stroke="red" stroke-width="3" />
  </g>
</svg>