<svg xmlns="http://www.w3.org/2000/svg" width="512" height="512" viewBox="0 0 512 512">
  <g class="glyph">
    <path d="M 113 457 Q 111 453 110 448 Q 109 443 107 438 Q 104 439 101 439 Q 98 439 95 439 Q 94 434 91 427 H 91 Q 89 443 88 457 Q 87 472 86 488 Q 81 488 77 489 Q 73 489 68 490 Q 68 485 67 480 Q 67 475 66 471 Q 63 470 63 474 Q 60 486 58 501 Q 58 501 57 504 Q 53 504 50 503 Q 47 503 43 502 Q 42 498 42 494 Q 41 490 41 485 Q 40 487 39 488 Q 38 489 37 491 Q 33 490 28 489 Q 23 489 18 487 V 473 Q 13 472 9 471 Q 4 471 0 469 Q 2 387 5 305 Q 9 224 15 141 Q 20 140 24 140 Q 29 139 33 138 V 137 Q 24 134 16 130 Q 16 124 16 119 Q 17 113 17 107 Q 25 105 33 105 Q 48 104 63 106 Q 78 108 93 112 Q 96 114 101 113 Q 111 111 121 109 Q 131 107 142 105 Q 142 105 147 104 Q 144 89 141 75 Q 138 60 136 45 Q 138 44 141 43 Q 143 43 144 41 V 40 Q 142 40 140 41 Q 138 41 135 41 Q 134 33 132 26 Q 131 19 130 11 Q 150 3 171 1 Q 192 0 214 3 Q 214 7 214 10 Q 214 14 215 19 Q 218 19 220 19 Q 222 19 225 19 Q 227 20 229 20 Q 231 20 232 23 Q 232 23 237 23 Q 242 23 247 22 Q 252 22 258 21 Q 273 20 287 18 Q 302 16 316 15 L 370 10 Q 376 10 382 10 Q 388 9 395 9 Q 396 13 397 18 Q 398 22 399 27 Q 402 27 405 27 Q 408 27 412 27 Q 418 44 418 61 Q 418 79 415 96 L 417 98 Q 417 101 416 103 Q 415 105 414 107 Q 419 111 421 109 Q 424 106 427 104 Q 432 107 435 111 Q 439 115 443 118 Q 444 120 445 121 Q 447 123 448 124 Q 475 146 478 183 Q 479 206 471 225 Q 463 244 448 261 Q 447 262 445 263 Q 444 264 442 266 Q 438 263 434 261 Q 430 259 425 256 Q 426 254 426 252 Q 426 251 427 249 Q 424 251 420 254 Q 417 256 414 259 Q 407 255 402 249 Q 396 244 390 238 Q 404 248 396 257 Q 399 267 399 278 Q 396 279 393 279 Q 389 280 387 281 V 282 H 414 Q 415 286 415 290 Q 416 294 417 299 H 431 Q 432 303 433 308 Q 433 313 435 317 Q 432 319 427 322 Q 430 321 431 321 Q 433 321 435 321 Q 436 328 435 334 Q 435 340 435 346 Q 440 346 445 346 Q 450 346 455 346 Q 456 350 457 354 Q 457 359 459 363 H 472 Q 477 379 477 394 Q 478 409 476 425 Q 470 425 465 426 Q 459 426 454 427 Q 453 423 452 420 Q 451 416 451 413 H 450 L 447 427 Q 436 429 425 429 Q 414 430 403 431 Q 403 433 404 434 Q 404 436 405 437 Q 407 437 410 436 Q 412 436 415 436 Q 421 448 424 462 Q 426 476 426 490 Q 415 493 405 495 Q 387 499 368 502 Q 350 505 332 508 Q 318 509 304 510 Q 291 511 277 511 Q 268 512 259 512 Q 250 511 242 511 Q 232 511 224 509 Q 215 507 206 504 Q 204 503 203 503 Q 202 502 201 502 Q 201 499 201 496 Q 201 493 201 491 Q 201 491 201 490 Q 199 492 198 494 Q 197 496 196 498 Q 186 495 180 488 Q 174 481 167 475 Q 161 468 154 461 Q 152 459 151 457 Q 149 455 147 452 Q 132 456 113 457 Z M 417 236 Q 419 237 421 238 Q 423 239 424 240 L 429 236 Q 451 209 454 176 Q 455 144 435 121 Q 432 117 428 114 Q 420 120 412 126 Q 404 131 396 137 Q 396 136 395 136 L 408 102 Q 403 100 397 98 Q 385 94 374 94 Q 362 93 349 92 Q 285 90 219 100 Q 190 104 161 109 Q 132 115 104 121 L 100 122 Q 99 129 99 136 Q 99 142 97 149 Q 95 158 97 165 Q 99 173 103 180 Q 104 183 105 184 Q 107 184 111 183 Q 141 175 171 168 Q 202 162 233 156 Q 264 151 294 148 Q 325 146 356 146 Q 363 147 370 147 Q 377 147 383 148 Q 395 150 401 159 Q 407 167 404 179 Q 402 188 398 194 Q 394 201 390 208 Q 388 210 386 213 Q 384 215 382 218 Q 384 221 388 226 Q 393 231 397 233 Q 405 227 412 221 Q 419 215 426 209 Q 427 210 427 210 Q 425 216 422 222 Q 420 229 417 236 Z M 63 143 Q 43 146 22 148 Q 21 151 20 166 Q 19 180 18 203 Q 16 225 15 253 Q 14 280 12 309 Q 11 338 10 365 Q 9 392 8 414 Q 7 435 7 449 Q 7 463 8 465 Q 12 466 15 466 Q 16 463 17 460 Q 17 457 19 454 Q 20 451 21 449 Q 22 446 23 443 Q 24 441 25 438 Q 25 435 27 432 Q 28 442 29 452 Q 29 458 29 463 Q 29 469 31 474 Q 31 475 31 477 Q 31 478 33 479 Q 38 457 41 435 Q 45 414 50 393 H 51 Q 52 411 53 429 Q 55 447 57 464 Q 61 466 61 461 Q 50 472 62 451 Q 63 446 63 441 Q 64 426 65 412 Q 67 399 68 384 Q 69 371 70 357 Q 71 344 73 330 Q 74 317 75 304 Q 76 291 77 278 Q 79 260 80 242 Q 82 225 83 207 Q 85 190 87 173 Q 89 157 91 141 Q 91 136 92 131 Q 92 127 93 121 Q 75 116 58 113 Q 41 111 24 114 Q 23 117 23 121 Q 23 124 23 127 Q 33 131 43 134 Q 53 138 63 142 Z M 392 427 Q 368 432 343 435 Q 318 439 293 440 Q 276 441 260 441 Q 243 441 227 439 Q 222 438 219 437 Q 215 436 210 435 Q 198 430 195 418 Q 193 406 195 394 Q 196 384 198 375 Q 201 366 203 357 Q 203 356 203 355 Q 203 353 204 351 Q 190 352 176 353 Q 162 354 148 355 Q 145 369 143 384 Q 141 398 142 412 Q 143 423 146 433 Q 149 442 155 451 Q 164 465 176 472 Q 181 462 186 452 Q 191 442 196 433 L 197 433 Q 196 445 194 457 Q 192 468 191 480 Q 192 480 193 481 Q 194 481 194 481 Q 203 484 211 486 Q 219 487 228 487 Q 251 489 273 487 Q 294 486 317 483 Q 358 477 398 468 Q 399 468 400 468 Q 401 468 402 467 Q 402 459 400 447 Q 397 435 394 427 Z M 119 350 Q 192 346 265 341 Q 338 336 411 332 Q 412 327 412 322 Q 412 317 412 312 Q 401 314 392 315 Q 382 317 372 318 Q 372 316 371 315 Q 371 314 370 311 Q 381 308 391 304 Q 401 300 411 296 L 409 290 H 401 Q 391 290 381 290 Q 371 290 360 290 Q 348 291 336 291 Q 324 291 312 291 Q 286 292 261 292 Q 237 292 211 293 Q 191 294 171 294 Q 152 294 131 294 Q 128 294 124 295 Q 121 295 116 295 Q 114 310 114 323 Q 115 336 119 350 Z M 424 404 Q 426 395 428 386 Q 430 377 432 366 Q 436 376 439 384 Q 441 393 443 402 Q 445 402 448 402 Q 450 402 453 401 Q 456 378 450 353 Q 389 356 329 359 Q 269 362 209 365 L 206 378 Q 203 385 202 393 Q 201 401 201 409 Q 201 415 206 423 Q 261 418 315 413 Q 369 408 424 404 Z M 361 185 Q 344 186 326 188 Q 309 189 291 190 V 190 Q 305 185 320 180 Q 334 176 349 171 Q 348 168 347 167 Q 346 165 345 162 Q 284 173 222 184 Q 161 195 100 206 Q 99 212 100 221 Q 101 231 105 238 Q 170 228 233 219 Q 297 210 362 201 Q 361 197 361 194 Q 361 190 361 185 Z M 217 78 Q 261 76 305 74 Q 348 73 392 70 Q 394 57 394 44 Q 394 31 389 17 Q 345 20 302 24 Q 259 28 215 34 Q 216 45 216 56 Q 216 67 217 78 Z M 154 239 Q 155 241 156 244 Q 163 258 176 266 Q 187 272 198 275 Q 209 278 221 279 Q 238 280 255 279 Q 271 279 287 276 Q 308 273 329 267 Q 350 262 370 256 Q 371 256 372 255 Q 373 255 374 255 Q 373 245 371 237 Q 368 228 363 221 Q 360 222 359 222 Q 338 227 318 231 Q 297 236 276 238 Q 264 239 253 239 Q 241 239 230 236 Q 227 236 224 234 Q 221 233 219 232 Q 215 230 212 231 Q 202 232 192 234 Q 182 235 172 236 Q 167 237 163 237 Q 159 238 154 239 Z M 196 32 Q 183 36 170 41 Q 158 45 144 51 Q 147 64 149 77 Q 152 90 154 103 Q 168 100 183 98 Q 197 95 211 93 L 208 10 Q 190 8 173 9 Q 155 10 138 16 L 140 25 Q 140 29 142 34 Q 155 33 169 32 Q 182 32 196 31 Z M 185 287 Q 178 281 173 274 Q 167 268 160 262 Q 159 261 157 259 Q 155 258 152 259 Q 147 260 142 261 Q 137 261 132 262 L 117 264 Q 116 259 114 254 Q 112 250 111 245 Q 107 246 107 246 Q 106 246 106 249 Q 104 267 103 284 Q 101 300 100 317 Q 99 334 97 350 Q 97 353 97 356 Q 97 359 96 363 Q 104 362 112 362 Q 119 362 127 361 Q 127 356 123 357 Q 120 357 118 357 Q 116 357 113 357 Q 108 340 108 323 Q 107 306 111 288 Q 129 288 148 288 Q 166 287 185 287 Z M 100 432 Q 110 431 119 430 Q 129 430 138 429 Q 135 413 135 399 Q 136 384 138 368 Q 128 369 117 369 Q 106 369 95 370 Q 93 386 94 401 Q 95 417 100 432 Z M 219 166 Q 218 166 216 166 Q 215 166 214 166 Q 211 167 208 167 Q 205 168 202 168 Q 191 171 181 173 Q 170 175 159 178 Q 158 178 157 179 Q 156 179 155 180 Q 154 186 153 189 Q 156 189 158 188 Q 170 186 182 184 Q 194 182 206 180 Q 214 179 215 177 Q 217 176 219 168 Q 219 168 219 166 Z M 366 172 Q 373 183 375 193 Q 374 194 373 194 Q 372 195 371 195 Q 376 196 381 195 Q 383 195 385 195 Q 387 196 388 198 Q 391 192 394 186 Q 397 180 398 173 Q 396 172 390 172 Q 385 171 379 171 Q 372 171 366 171 Q 360 171 358 171 Q 358 172 358 173 Q 358 173 358 174 Q 362 173 366 172 Z M 382 231 Q 379 225 376 228 Q 377 230 377 232 Q 378 231 380 231 Q 381 231 382 231 Z" fill="black" />
  </g>
  <g class="defect" id="01">
    <path d="M 390 238 Q 404 248 396 257" fill="none" stroke="red" stroke-width="3" />
  </g>
  <g class="defect" id="02">
    <path d="M 61 461 Q 50 472 62 451" fill="none" stroke="red" stroke-width="3" />
  </g>
</svg>