<svg xmlns="http://www.w3.org/2000/svg" width="512" height="512" viewBox="0 0 512 512">
  <g class="glyph">
    <path d="M 121 163 Q 102 166 86 171 Q 69 176 52 182 Q 49 178 46 173 Q 42 168 39 163 Q 38 164 37 164 Q 36 164 34 165 Q 30 160 27 154 Q 24 149 21 142 Q 23 141 25 139 Q 27 138 29 136 Q 28 133 27 131 Q 24 132 22 132 Q 20 132 16 133 Q 7 110 5 88 Q 18 83 31 79 Q 44 75 57 72 Q 52 63 47 54 Q 42 46 36 37 Q 53 22 72 13 Q 90 5 111 0 Q 113 5 115 10 Q 117 14 119 19 Q 121 19 124 19 Q 126 18 129 17 Q 131 23 133 28 Q 135 33 137 39 Q 136 40 134 42 Q 133 43 131 44 Q 130 46 130 47 Q 130 47 131 51 Q 133 50 135 50 Q 138 50 141 50 Q 142 54 144 58 Q 145 62 147 66 Q 149 72 155 74 Q 172 81 184 96 Q 184 97 185 98 Q 186 99 187 100 Q 210 118 215 148 Q 217 166 214 182 Q 211 199 204 216 Q 202 220 198 225 Q 198 225 197 227 Q 195 226 193 226 Q 191 225 187 224 Q 190 228 191 228 Q 193 230 193 230 Q 194 235 197 236 Q 200 238 203 241 Q 205 243 208 245 Q 210 246 212 249 Q 212 246 213 243 Q 213 240 213 238 Q 216 206 221 174 Q 225 143 232 111 Q 233 105 230 100 Q 222 88 216 76 Q 210 63 207 50 Q 206 48 206 48 Q 206 47 206 46 Q 209 44 218 39 Q 227 35 237 31 Q 248 27 257 23 Q 267 20 272 19 Q 273 22 273 24 Q 274 26 275 28 H 276 Q 276 23 277 17 Q 284 15 291 14 Q 298 12 306 11 Q 321 8 335 7 Q 350 5 365 7 Q 386 8 404 14 Q 423 21 438 35 Q 445 41 451 47 Q 458 53 464 60 Q 475 72 481 87 Q 488 101 491 117 Q 495 139 493 161 Q 491 182 485 203 Q 484 208 483 211 Q 481 215 480 219 Q 481 221 482 222 Q 483 223 483 224 Q 488 256 483 285 Q 483 286 481 287 Q 467 288 452 289 Q 453 290 453 290 Q 454 291 454 291 Q 459 295 462 299 Q 466 303 471 308 Q 475 312 479 315 Q 483 319 487 322 Q 487 324 486 327 Q 487 327 488 327 Q 490 327 491 326 Q 497 334 502 342 Q 508 350 512 359 Q 501 368 489 376 Q 477 385 465 393 Q 476 405 486 416 Q 496 428 507 440 Q 489 468 460 488 Q 437 467 415 445 Q 392 424 369 403 Q 373 409 376 414 Q 380 420 383 426 Q 387 432 389 438 Q 392 445 394 452 Q 383 452 393 453 Q 379 462 363 471 Q 348 480 330 485 Q 307 492 287 487 Q 285 487 283 486 Q 284 483 284 479 Q 284 476 284 471 Q 281 474 280 477 Q 279 481 276 484 Q 275 483 273 482 Q 271 481 269 481 Q 262 477 257 473 Q 251 468 246 462 Q 245 461 244 460 Q 243 459 242 458 Q 230 449 224 437 Q 217 425 212 411 Q 210 400 208 389 Q 207 378 206 367 Q 206 363 203 362 Q 205 366 205 370 L 196 378 Q 186 371 178 364 Q 170 358 161 351 Q 160 367 161 381 Q 161 396 162 410 Q 162 425 162 439 Q 163 454 163 469 L 142 474 Q 141 472 140 470 Q 140 468 139 466 Q 138 468 138 470 Q 138 472 137 474 Q 127 475 117 475 Q 107 475 96 474 Q 95 470 95 466 Q 95 462 94 458 Q 87 458 78 456 Q 76 431 73 405 Q 71 380 68 353 Q 67 355 66 355 Q 64 356 63 357 Q 56 352 51 347 Q 46 341 40 335 Q 36 338 33 340 Q 31 342 27 343 Q 26 340 24 337 Q 22 334 20 330 L 27 325 Q 26 323 25 322 Q 24 320 23 319 Q 20 321 16 323 Q 13 325 10 326 Q 8 324 7 320 Q 5 317 3 314 Q 5 312 6 310 Q 8 309 9 308 Q 7 303 4 300 Q 2 296 0 291 Q 3 289 4 288 Q 33 263 59 237 Q 85 211 108 182 Q 111 179 114 175 Q 116 172 119 168 Q 119 166 121 163 Z M 342 386 Q 339 387 336 389 Q 320 398 306 404 Q 298 407 291 409 Q 281 411 278 401 Q 277 400 276 398 Q 275 391 274 385 Q 273 378 273 371 Q 273 354 274 337 Q 275 320 277 303 Q 279 283 282 264 Q 284 245 287 225 Q 290 202 294 179 Q 298 156 304 133 Q 305 130 305 127 Q 289 120 273 116 Q 256 112 238 113 Q 237 123 235 133 Q 233 143 231 153 Q 227 178 224 203 Q 221 228 218 253 Q 218 257 220 259 Q 221 259 221 260 Q 221 261 222 261 Q 221 263 220 263 Q 220 264 219 266 Q 217 267 217 270 Q 216 281 216 291 Q 215 302 214 313 Q 213 321 218 324 L 218 325 Q 218 326 218 327 Q 217 328 217 328 Q 214 332 214 335 Q 213 338 213 341 V 365 Q 214 379 215 391 Q 217 404 222 416 Q 226 428 233 438 Q 239 448 250 455 Q 233 470 255 458 Q 259 450 262 443 Q 265 436 269 429 Q 276 431 275 438 Q 275 443 274 447 Q 274 452 274 456 V 465 H 276 Q 285 466 294 465 Q 303 464 313 461 Q 326 457 338 451 Q 350 444 362 437 Q 363 436 365 435 Q 367 434 368 433 Q 363 420 357 409 Q 351 397 342 386 Z M 176 201 Q 178 200 178 200 Q 178 199 178 199 Q 186 184 190 168 Q 194 152 191 135 Q 188 114 178 100 Q 167 86 146 78 Q 133 74 120 73 Q 106 72 93 74 Q 56 77 18 91 Q 15 92 14 93 Q 15 109 22 125 Q 34 122 46 119 Q 58 115 71 113 V 113 Q 61 121 51 129 Q 41 137 31 144 Q 33 148 34 150 Q 36 153 38 156 Q 45 153 52 151 Q 58 149 66 147 Q 76 143 86 141 Q 95 139 105 138 Q 109 138 112 138 Q 116 138 119 139 Q 132 142 131 156 Q 130 159 129 162 Q 128 166 126 168 Q 124 173 121 177 Q 118 181 115 185 Q 77 231 33 271 Q 27 277 21 282 Q 15 287 9 292 Q 10 294 11 295 Q 11 296 12 297 L 27 289 Q 28 288 29 288 Q 30 287 31 287 Q 34 287 35 289 Q 36 290 35 292 L 33 295 Q 28 299 24 303 Q 19 307 14 312 Q 13 314 13 314 Q 13 315 13 315 Q 28 306 43 296 Q 57 287 72 277 Q 73 278 73 278 Q 64 289 54 299 Q 45 309 35 320 Q 38 322 41 325 Q 43 327 46 330 Q 47 328 48 328 Q 67 314 86 298 Q 106 283 123 266 Q 134 255 145 244 Q 155 232 164 220 Q 165 218 166 218 Q 166 217 167 216 Q 161 210 156 205 Q 155 204 154 203 Q 153 203 153 201 Q 151 198 153 197 Q 153 195 156 195 Q 158 195 160 196 Q 162 197 163 197 Q 167 198 170 199 Q 173 200 176 201 Z M 214 50 Q 215 52 216 55 Q 216 57 217 60 Q 225 83 240 102 Q 241 105 244 106 Q 247 106 250 106 Q 253 106 256 105 Q 271 97 287 91 Q 303 85 320 82 Q 332 79 345 77 Q 357 76 370 77 Q 398 80 407 105 Q 411 119 411 132 Q 411 164 399 196 Q 399 197 398 198 Q 398 199 397 201 Q 403 201 408 201 Q 412 202 417 202 Q 426 202 434 202 Q 442 202 451 203 Q 454 203 455 202 Q 455 202 456 199 Q 459 191 461 184 Q 463 176 465 169 Q 469 151 470 134 Q 470 116 466 99 Q 463 83 456 69 Q 449 55 438 44 Q 423 28 405 22 Q 386 15 365 14 Q 349 13 333 14 Q 317 16 301 19 Q 296 20 292 21 Q 288 22 284 23 Q 283 35 281 47 Q 280 58 279 69 H 278 Q 275 59 273 49 Q 270 39 267 28 Q 264 29 257 31 Q 249 34 240 37 Q 232 41 225 44 Q 217 47 214 50 Z M 480 423 Q 415 355 356 282 Q 341 291 328 302 Q 315 313 305 327 Q 338 362 373 395 Q 407 429 443 461 Q 465 446 480 423 Z M 297 208 Q 294 225 292 241 Q 290 257 288 273 Q 331 271 373 268 Q 416 265 458 263 Q 460 259 460 251 Q 461 244 461 236 Q 461 228 460 220 Q 460 213 458 210 Q 418 208 378 208 Q 338 208 297 208 Z M 136 265 Q 133 266 133 266 Q 107 292 75 317 Q 73 319 73 323 Q 75 338 76 353 Q 77 368 79 383 Q 80 398 82 412 Q 83 425 84 440 Q 85 442 85 445 Q 86 447 86 450 Q 100 452 114 450 Q 115 443 115 437 Q 115 431 116 424 Q 117 418 117 411 Q 118 405 119 399 Q 121 411 124 423 Q 127 436 130 449 Q 132 448 134 448 Q 136 448 138 447 Q 137 400 137 356 Q 136 311 136 265 Z M 303 173 Q 326 174 348 174 Q 370 174 393 173 Q 394 168 394 160 Q 394 153 394 145 Q 394 137 392 131 Q 391 124 389 120 Q 370 123 351 124 Q 332 126 313 128 Q 310 139 308 150 Q 306 161 303 173 Z M 442 371 Q 453 364 464 356 Q 474 349 485 341 Q 482 335 479 330 Q 475 324 471 319 Q 460 326 449 331 Q 439 337 428 341 Q 444 325 460 307 Q 455 302 450 298 Q 446 294 440 290 Q 430 299 421 309 Q 412 318 403 327 Q 413 338 422 349 Q 432 360 442 371 Z M 179 351 Q 179 351 179 351 Q 179 351 180 351 Q 176 343 172 336 Q 169 328 165 321 Q 166 321 166 321 Q 166 321 166 321 Q 174 327 181 333 Q 188 338 197 344 Q 200 340 204 335 Q 207 331 211 326 Q 194 309 179 293 Q 163 277 148 261 Q 143 264 143 266 Q 143 280 144 294 Q 144 308 144 321 Q 144 325 147 327 Q 154 333 161 339 Q 168 344 175 349 Q 176 350 177 350 Q 178 351 179 351 Z M 129 67 Q 126 59 124 53 Q 121 46 119 40 Q 109 41 100 43 Q 90 45 81 46 Q 81 46 81 46 Q 88 39 96 33 Q 103 26 111 20 Q 110 17 109 14 Q 108 11 107 8 Q 90 13 75 20 Q 59 27 46 39 Q 51 47 55 55 Q 60 63 65 71 Q 81 68 96 67 Q 112 65 129 67 Z M 213 261 Q 205 252 197 245 Q 188 238 178 233 Q 173 241 168 248 Q 163 254 158 261 Q 165 269 172 276 Q 179 283 186 290 Q 193 283 200 276 Q 206 269 213 261 Z M 343 377 Q 332 366 322 356 Q 312 345 301 334 Q 300 337 299 347 Q 298 356 298 367 Q 298 378 298 388 Q 298 397 299 400 Q 311 395 322 389 Q 332 383 343 377 Z M 301 117 Q 306 120 307 120 Q 309 121 314 120 Q 333 118 352 116 Q 372 114 391 113 H 395 Q 398 121 399 128 Q 400 132 404 130 Q 404 124 403 118 Q 402 113 400 108 Q 399 103 395 103 Q 391 102 386 102 Q 381 101 376 101 Q 357 102 339 106 Q 321 110 304 117 Q 303 116 303 117 Q 302 117 301 117 Z M 379 294 Q 383 301 389 307 Q 394 314 400 320 Q 407 313 415 306 Q 422 299 429 291 Q 429 291 428 291 Q 428 291 428 290 Q 416 291 403 291 Q 391 292 379 293 Z M 325 201 H 373 H 386 Q 389 201 389 197 Q 388 197 387 197 Q 386 197 385 197 H 336 H 322 Q 318 197 320 201 Z M 302 318 Q 307 312 312 307 Q 316 302 322 297 Q 317 297 313 298 Q 308 298 304 299 Q 303 303 303 308 Q 303 313 302 318 Z M 351 386 Q 352 388 354 390 Q 355 392 357 394 Q 358 397 359 394 Q 357 392 355 390 Q 353 388 351 386 Z" fill="black" />
  </g>
  <g class="defect" id="01">
    <path d="M 394 452 Q 383 452 393 453" fill="none" stroke="red" stroke-width="3" />
  </g>
  <g class="defect" id="02">
    <path d="M 250 455 Q 233 470 255 458" fill="none" stroke="red" stroke-width="3" />
  </g>
</svg>