<svg xmlns="http://www.w3.org/2000/svg" width="512" height="512" viewBox="0 0 512 512">
  <g class="glyph">
    <path d="M 485 72 Q 483 74 482 75 Q 480 76 479 77 Q 479 79 481 82 Q 484 82 486 81 Q 487 81 490 80 Q 491 81 491 82 Q 492 83 492 85 Q 498 96 501 107 Q 504 119 505 130 Q 508 154 504 176 Q 501 198 495 221 Q 492 229 490 237 Q 488 245 485 253 Q 485 255 483 258 Q 479 258 475 258 Q 472 257 467 257 Q 469 261 469 266 Q 458 272 447 276 Q 436 281 425 285 H 481 Q 484 292 485 303 H 499 Q 502 313 503 325 Q 499 327 496 329 Q 492 331 489 333 Q 485 334 486 338 Q 491 337 495 336 Q 499 336 504 336 Q 504 343 504 351 Q 504 358 502 366 Q 489 367 475 368 Q 461 368 447 369 Q 464 387 479 404 Q 487 413 496 421 Q 504 430 512 438 Q 495 466 469 485 Q 450 470 431 455 Q 412 440 392 425 Q 392 442 392 459 Q 392 477 392 493 Q 385 496 378 496 Q 371 497 364 497 V 478 Q 361 478 360 480 Q 359 483 359 486 Q 358 489 357 491 Q 356 496 356 497 Q 343 497 328 494 V 479 Q 323 478 319 478 Q 315 478 310 477 Q 309 467 309 458 Q 309 448 309 439 Q 309 439 308 438 Q 296 451 285 463 Q 273 475 261 487 Q 257 485 252 483 Q 248 480 244 478 Q 247 472 250 467 Q 253 462 257 458 Q 256 458 256 457 Q 256 457 255 457 Q 251 461 247 465 Q 242 469 238 473 Q 230 468 224 462 Q 217 455 211 448 Q 209 454 207 459 Q 205 465 203 470 Q 196 470 191 468 Q 185 466 179 464 V 477 Q 174 478 169 480 Q 164 481 159 483 Q 145 487 131 489 Q 117 491 102 490 Q 92 489 82 487 Q 72 484 63 478 L 66 470 Q 63 467 61 468 Q 59 470 56 471 Q 55 470 52 466 Q 51 465 50 463 Q 48 461 46 462 Q 45 462 45 462 L 44 461 Q 41 457 38 454 Q 36 451 34 448 L 32 443 Q 31 443 30 444 Q 29 444 28 445 Q 23 441 21 435 Q 18 430 15 425 Q 8 407 8 387 Q 8 369 10 352 Q 13 336 17 318 Q 17 317 18 316 Q 27 315 35 317 Q 43 318 52 321 Q 51 318 51 316 Q 48 316 43 318 Q 40 309 38 298 Q 34 298 31 298 Q 28 298 25 299 Q 19 282 18 264 Q 17 247 20 229 Q 25 229 30 228 Q 35 228 40 228 Q 39 223 39 221 H 26 Q 23 215 22 206 Q 21 197 21 192 L 29 191 V 190 Q 27 190 25 189 Q 23 188 21 188 V 173 Q 21 170 22 167 Q 22 164 22 162 Q 21 158 21 154 Q 7 166 19 147 H 6 Q 3 141 1 129 Q 0 118 0 106 Q 0 93 2 81 Q 3 69 6 61 Q 19 62 32 62 Q 45 62 59 63 Q 55 53 51 45 Q 48 38 44 29 Q 60 16 80 10 Q 99 3 119 0 Q 120 5 122 10 Q 123 14 124 19 L 137 17 Q 140 30 143 42 Q 145 53 149 65 Q 160 65 172 66 Q 183 66 195 66 Q 196 71 197 75 Q 197 79 198 83 Q 202 85 203 81 L 204 73 Q 208 62 211 50 Q 215 39 218 28 Q 218 27 218 27 Q 218 26 219 25 Q 224 25 230 26 Q 235 26 241 28 Q 241 32 240 35 Q 240 39 239 42 Q 240 42 240 43 Q 240 43 241 43 Q 243 40 244 37 Q 245 33 248 30 H 249 Q 253 32 257 31 Q 260 29 265 28 Q 282 20 300 15 Q 318 9 337 7 Q 356 4 375 5 Q 395 6 414 13 Q 428 18 440 26 Q 453 34 462 46 Q 464 48 466 50 Q 472 56 476 61 Q 480 66 485 72 Z M 409 205 Q 407 205 407 206 Q 406 206 406 206 Q 391 211 376 215 Q 361 218 345 218 Q 323 220 303 215 Q 290 211 281 203 Q 271 194 267 180 Q 265 174 264 168 Q 264 162 263 156 Q 261 139 263 124 Q 265 108 270 92 Q 272 87 269 83 Q 263 74 259 64 Q 255 54 252 44 Q 252 43 252 42 Q 252 41 251 40 Q 242 59 233 77 Q 224 95 216 113 H 215 Q 215 111 215 110 Q 216 108 216 107 Q 221 90 225 74 Q 229 58 231 41 Q 231 37 232 34 Q 229 34 227 34 Q 225 34 224 34 Q 218 53 212 72 Q 206 92 205 112 Q 203 131 204 149 Q 205 167 209 185 Q 217 216 236 236 Q 254 256 285 265 Q 302 270 319 271 Q 337 272 354 270 Q 397 265 437 246 Q 441 243 442 243 Q 442 235 434 233 H 433 Q 419 229 404 221 Q 407 214 409 205 Z M 419 84 Q 419 84 419 84 Q 419 83 419 83 Q 428 75 438 68 Q 447 60 456 53 Q 455 51 455 50 Q 454 49 453 48 Q 439 33 418 23 Q 401 16 383 14 Q 365 13 346 14 Q 325 16 304 22 Q 283 28 264 38 Q 263 38 262 38 Q 261 39 259 40 Q 264 55 270 69 Q 277 83 288 95 Q 289 95 289 95 Q 290 94 291 94 Q 315 81 341 76 Q 353 73 364 72 Q 376 72 388 74 Q 400 77 409 83 Q 417 90 422 102 Q 424 108 425 115 Q 426 123 428 130 Q 429 147 426 163 Q 424 179 419 196 Q 418 201 417 206 Q 415 212 414 218 Q 436 229 460 233 Q 460 230 461 230 Q 468 211 473 191 Q 478 171 480 150 Q 481 135 481 119 Q 480 103 475 88 Q 474 83 472 79 Q 471 75 468 70 Q 455 74 443 77 Q 431 81 419 84 Z M 469 292 Q 458 292 447 293 Q 437 293 426 293 Q 402 294 379 294 Q 356 294 332 294 Q 304 295 277 295 Q 250 295 222 295 Q 218 295 213 295 Q 208 295 204 296 Q 201 312 201 327 Q 202 343 206 358 Q 274 354 342 350 Q 409 345 477 341 Q 478 337 478 333 Q 478 330 478 326 Q 451 330 427 328 Q 440 322 452 316 Q 464 309 477 303 Q 477 300 477 298 Q 477 295 476 292 Z M 11 140 Q 101 134 190 130 Q 193 102 188 75 Q 143 73 99 72 Q 56 70 11 69 Q 8 87 7 104 Q 7 122 11 140 Z M 58 312 Q 59 328 65 342 Q 71 356 78 370 Q 85 368 92 367 Q 98 365 105 363 Q 107 354 108 346 Q 110 338 112 330 H 113 Q 114 337 116 345 Q 118 353 120 361 Q 123 362 125 362 Q 127 362 130 362 Q 136 363 141 367 Q 145 370 147 377 Q 148 384 148 391 Q 147 397 146 404 Q 144 410 142 416 Q 141 419 141 421 Q 140 423 139 426 Q 149 432 159 437 Q 169 442 180 444 Q 180 443 181 443 Q 181 442 181 441 Q 184 433 187 425 Q 189 416 191 407 Q 198 383 192 361 Q 188 341 173 324 Q 159 307 131 303 Q 120 301 108 302 Q 97 302 86 304 Q 74 306 58 312 Z M 43 442 Q 51 436 57 431 Q 64 426 72 420 Q 72 420 72 421 Q 68 430 63 440 Q 59 449 54 459 Q 56 459 57 460 Q 59 460 60 461 Q 69 465 78 465 Q 87 466 96 466 Q 110 466 124 463 Q 137 460 151 456 Q 154 455 154 454 Q 155 442 145 438 Q 141 437 137 435 Q 134 432 130 430 Q 132 424 133 419 Q 135 415 136 409 Q 133 409 131 410 Q 127 411 122 411 Q 118 412 113 412 Q 106 413 99 413 Q 92 413 85 412 Q 69 410 69 393 Q 69 389 69 386 Q 69 382 70 377 Q 70 374 69 368 Q 59 351 54 333 Q 54 331 51 329 Q 46 328 42 327 Q 38 326 33 325 Q 31 324 28 324 Q 26 324 23 324 Q 23 326 23 327 Q 20 338 18 349 Q 16 361 16 373 Q 15 383 16 394 Q 16 405 20 416 Q 21 422 23 426 Q 26 431 29 436 Q 34 433 39 429 Q 43 425 49 423 Q 47 428 45 432 Q 44 437 42 441 Z M 176 232 Q 138 233 101 234 Q 64 236 27 237 Q 26 243 25 251 Q 25 259 26 267 Q 26 275 28 282 Q 29 289 31 292 Q 68 288 105 284 Q 141 279 179 275 Q 180 254 176 232 Z M 307 95 Q 308 124 309 152 Q 309 180 310 209 Q 325 212 340 212 Q 354 211 369 209 Q 369 179 370 150 Q 370 121 370 92 Q 369 92 369 91 Q 368 91 367 91 Q 359 90 352 90 Q 344 89 336 88 Q 328 87 321 89 Q 314 92 307 95 Z M 81 193 Q 68 194 54 196 Q 41 198 28 199 Q 29 203 29 207 Q 29 210 31 214 Q 65 212 100 210 Q 135 208 169 205 Q 170 202 170 196 Q 170 190 170 184 Q 170 177 170 171 Q 169 166 168 163 Q 133 162 99 161 Q 64 160 30 159 Q 29 165 28 171 Q 27 177 28 183 Q 41 185 54 187 Q 68 190 81 192 Z M 379 401 Q 397 416 415 430 Q 432 444 451 458 Q 471 442 484 423 Q 468 405 452 388 Q 436 370 419 353 Q 406 363 396 375 Q 386 387 379 401 Z M 365 471 Q 366 467 366 458 Q 367 449 367 437 Q 367 424 367 410 Q 367 397 367 385 Q 367 373 367 365 Q 367 357 366 356 Q 340 357 314 359 Q 315 387 315 415 Q 316 443 316 471 Q 324 471 332 473 Q 336 456 340 441 Q 345 425 351 409 Q 353 425 353 441 Q 353 456 353 472 Q 357 471 360 471 Q 363 471 365 471 Z M 304 395 Q 298 388 292 381 Q 287 375 279 369 Q 274 366 272 364 Q 270 362 268 362 Q 266 362 264 362 Q 261 362 256 363 H 255 Q 251 362 248 367 Q 237 382 227 397 Q 216 412 206 426 Q 205 428 205 428 Q 204 429 204 431 Q 208 435 211 438 Q 215 442 220 446 Q 233 434 245 421 Q 258 409 271 397 Q 271 397 271 398 Q 263 413 254 428 Q 246 442 236 458 Q 238 459 239 459 Q 240 460 241 461 Q 257 444 273 428 Q 289 412 304 395 Z M 287 286 Q 286 285 285 285 Q 285 285 284 285 Q 275 281 266 274 Q 257 268 249 260 Q 245 256 241 252 Q 236 247 232 243 Q 229 240 227 237 Q 224 234 222 231 Q 212 217 207 202 Q 202 187 199 171 Q 198 167 198 164 Q 198 160 197 156 Q 192 156 187 157 Q 182 157 176 157 Q 177 162 177 165 Q 178 169 179 173 Q 182 173 186 173 Q 190 173 193 173 Q 196 187 197 202 Q 197 216 194 230 Q 192 230 189 231 Q 186 231 184 231 Q 184 234 185 237 Q 185 240 186 243 H 194 Q 199 243 200 244 Q 200 245 202 249 Q 203 258 204 266 Q 204 273 204 282 V 289 Q 225 288 245 288 Q 266 288 287 287 Z M 126 65 Q 124 57 122 49 Q 120 41 119 33 Q 107 35 95 38 Q 84 40 72 43 Q 72 42 71 42 Q 82 36 93 31 Q 105 26 116 20 Q 115 19 115 17 Q 115 16 115 15 Q 114 13 114 12 Q 114 10 113 8 Q 96 11 81 17 Q 66 22 53 32 Q 57 40 60 48 Q 43 71 67 63 Q 82 64 96 64 Q 111 64 126 65 Z M 301 130 Q 293 131 286 131 Q 278 132 271 133 Q 270 142 270 152 Q 270 161 273 170 H 302 Q 301 161 301 151 Q 301 141 301 130 Z M 395 168 Q 397 156 397 145 Q 397 133 393 121 Q 388 121 385 122 Q 381 123 377 123 V 168 Z M 395 110 Q 395 112 397 113 Q 399 114 399 118 Q 400 121 401 125 Q 403 129 404 133 Q 406 132 410 132 Q 413 132 416 132 Q 417 135 418 137 Q 418 139 419 143 Q 419 142 420 142 Q 420 142 420 141 V 141 Q 420 124 416 107 Q 414 102 409 101 Q 396 97 380 99 Q 380 99 378 100 Q 382 101 387 101 Q 391 102 395 103 Z M 129 387 Q 121 389 115 391 Q 108 392 101 394 Q 95 397 95 397 Q 95 398 94 404 Q 94 404 95 404 Q 95 404 95 405 Q 106 406 117 404 Q 127 403 138 400 Q 139 397 140 394 Q 141 390 141 387 H 132 Q 131 386 131 385 Q 131 385 130 383 Q 129 386 129 387 Z M 194 334 Q 194 325 194 317 Q 194 309 194 301 Q 186 302 177 303 Q 169 303 160 304 Q 161 306 161 306 Q 161 306 162 307 Q 174 314 185 327 Q 186 329 189 331 Q 191 332 194 334 Z M 313 286 H 368 V 276 Q 354 278 340 279 Q 327 280 313 278 Z M 394 194 V 202 Q 405 199 411 194 Z M 294 197 Q 295 202 296 204 Q 298 205 302 205 V 197 Z M 295 114 Q 294 117 294 118 Q 294 120 292 123 Q 295 123 297 123 Q 298 123 300 123 Q 301 119 299 118 Q 297 116 296 114 Z M 219 384 Q 220 386 220 388 Q 220 390 220 392 Q 221 392 221 392 Q 222 390 224 388 Q 225 386 227 383 Q 224 383 223 384 Q 221 384 219 384 Z M 307 386 H 307 Q 307 384 307 382 Q 307 380 307 379 Q 303 379 300 379 Z" fill="black" />
  </g>
  <g class="defect" id="01">
    <path d="M 60 48 Q 43 71 67 63" fill="none" stroke="red" stroke-width="3" />
  </g>
  <g class="defect" id="02">
    <path d="M 21 154 Q 7 166 19 147" fill="none" stroke="red" stroke-width="3" />
  </g>
</svg>