<svg xmlns="http://www.w3.org/2000/svg" width="512" height="512" viewBox="0 0 512 512">
  <g class="glyph">
    <path d="M 7 143 Q 19 139 31 135 Q 44 132 57 130 Q 74 127 90 129 Q 106 131 122 138 Q 138 147 150 161 Q 152 162 153 163 Q 154 165 155 166 Q 174 181 182 201 Q 190 221 187 245 Q 186 261 181 275 Q 176 290 170 304 Q 167 309 165 314 Q 162 313 160 313 Q 158 312 155 312 V 312 Q 157 315 158 316 Q 160 318 162 320 Q 157 331 151 342 Q 146 353 140 365 Q 145 363 147 363 Q 151 368 154 373 Q 157 378 161 382 Q 162 382 163 382 Q 164 382 165 381 Q 169 386 174 394 Q 180 402 184 411 Q 189 420 193 429 Q 196 438 197 444 Q 197 444 196 444 Q 196 445 195 445 Q 181 453 166 459 Q 152 465 136 468 Q 116 472 98 468 Q 78 463 66 446 Q 64 443 61 441 Q 41 425 36 400 Q 34 387 36 375 Q 37 363 40 351 Q 44 335 50 319 Q 56 304 63 288 Q 68 277 73 265 Q 78 254 83 243 Q 84 241 84 238 Q 85 236 86 233 Q 76 235 67 238 Q 58 241 50 245 Q 45 241 43 236 Q 40 230 37 224 Q 36 225 34 225 Q 33 226 31 227 Q 26 222 24 217 Q 21 212 19 206 Q 18 206 16 206 Q 14 206 12 207 Q 10 202 9 198 Q 8 193 7 189 Q 6 179 4 169 Q 3 159 2 148 Q 2 147 1 147 Q 1 147 1 145 Q 0 145 0 145 Z M 142 288 Q 145 278 150 270 Q 155 256 159 242 Q 163 228 162 213 Q 160 180 136 157 Q 124 146 110 141 Q 95 137 79 136 Q 68 136 57 138 Q 46 139 35 142 Q 29 144 22 146 Q 16 148 9 150 Q 11 176 17 199 Q 26 197 36 196 Q 45 194 55 192 Q 55 192 55 192 Q 55 192 55 193 Q 48 197 42 202 Q 35 206 28 211 Q 29 213 30 215 Q 31 217 33 219 Q 37 217 39 216 Q 46 213 54 211 Q 62 208 71 207 Q 74 206 78 206 Q 82 206 85 207 Q 94 208 95 218 V 224 Q 94 230 93 236 Q 91 242 88 248 Q 84 260 79 271 Q 73 282 69 294 Q 62 309 56 325 Q 50 341 46 358 Q 43 368 42 379 Q 41 390 43 401 Q 46 413 52 423 Q 58 433 70 439 Q 85 446 104 445 Q 117 444 130 440 Q 143 436 155 430 Q 159 428 163 427 Q 166 425 170 423 Q 166 408 159 396 Q 153 384 144 373 Q 141 374 138 376 Q 135 378 132 379 Q 128 380 125 381 Q 121 382 117 384 Q 100 386 105 370 Q 108 359 113 348 Q 117 338 122 327 Q 125 321 128 316 Q 131 310 133 304 Q 129 300 123 296 L 114 288 Q 111 285 109 284 Q 106 282 105 279 Q 114 281 123 283 Q 132 285 142 288 Z M 483 86 Q 483 87 484 87 Q 484 87 484 87 Q 487 86 489 85 Q 491 85 494 84 L 495 88 Q 500 98 502 109 Q 503 120 504 131 Q 505 157 499 181 Q 493 206 483 229 Q 479 240 475 250 Q 470 260 466 270 Q 461 270 456 268 Q 452 267 447 266 Q 448 267 448 267 Q 449 267 449 267 L 451 269 Q 462 277 471 288 Q 472 289 473 289 Q 473 290 475 291 Q 489 303 498 319 Q 506 335 509 353 Q 512 369 511 385 Q 510 401 506 417 Q 504 433 499 448 Q 494 462 489 477 Q 489 478 489 479 Q 488 479 488 480 Q 477 479 467 476 Q 457 474 448 471 Q 448 475 448 478 Q 448 482 449 486 Q 415 497 376 500 V 481 H 375 Q 373 486 372 491 Q 371 495 369 500 Q 365 502 363 502 Q 347 503 332 502 Q 316 502 301 500 Q 284 498 269 493 Q 254 487 241 476 Q 229 464 218 452 Q 208 441 203 429 Q 197 417 195 403 Q 192 385 193 368 Q 195 350 198 333 Q 202 317 208 301 Q 213 286 219 271 Q 220 271 220 270 Q 220 270 220 270 Q 233 271 244 274 Q 255 278 267 284 Q 266 279 265 276 Q 265 273 265 269 Q 257 266 250 262 Q 244 258 238 254 Q 239 252 239 251 Q 239 250 240 248 Q 238 247 237 246 Q 236 247 235 248 Q 234 249 233 251 Q 224 245 214 236 Q 214 236 214 235 Q 214 231 211 230 Q 208 229 206 227 Q 203 224 200 222 Q 197 219 194 216 Q 204 198 214 180 Q 224 161 235 143 Q 231 144 228 140 Q 225 136 222 132 Q 219 128 216 124 Q 213 125 210 122 Q 197 106 188 88 Q 180 71 175 51 Q 174 50 174 48 V 47 Q 175 46 176 46 Q 176 45 177 45 Q 207 31 237 22 Q 267 13 298 7 Q 314 4 330 2 Q 345 0 361 1 Q 379 1 397 5 Q 414 9 430 18 Q 438 23 446 28 Q 454 34 460 42 Q 461 44 462 45 Q 464 47 466 48 Q 483 61 492 79 Z M 216 116 Q 217 115 217 115 Q 218 115 219 114 Q 251 98 284 88 Q 317 78 353 74 Q 374 71 392 78 Q 400 81 406 86 Q 412 91 414 100 Q 415 102 416 104 Q 416 106 417 109 Q 419 121 418 133 Q 417 145 414 157 Q 411 171 406 185 Q 401 200 395 214 Q 394 216 392 219 Q 405 228 417 234 Q 429 240 443 243 Q 444 241 444 241 Q 453 223 460 204 Q 467 186 472 166 Q 477 149 478 131 Q 479 114 477 96 Q 476 91 475 86 Q 474 80 471 76 Q 461 79 450 81 Q 439 84 428 85 Q 438 79 446 72 Q 455 66 464 60 Q 463 58 462 58 L 459 53 Q 451 41 440 34 Q 429 26 417 20 Q 401 13 385 11 Q 369 8 351 9 Q 335 10 320 12 Q 305 15 289 18 Q 263 23 239 31 Q 214 39 190 50 Q 188 50 187 51 Q 186 51 184 52 Q 193 88 216 116 Z M 352 300 V 254 Q 331 256 312 261 Q 293 266 274 272 Q 279 310 298 340 Q 304 338 309 336 Q 314 335 318 333 Q 331 328 343 325 Q 355 322 369 321 Q 377 320 386 321 Q 394 322 402 325 Q 418 331 423 348 Q 425 366 423 382 Q 422 395 419 407 Q 416 419 412 432 Q 412 433 412 436 Q 424 443 437 447 Q 450 452 465 454 Q 465 452 465 452 Q 466 452 466 451 Q 471 435 475 419 Q 479 403 482 387 Q 484 374 485 360 Q 486 347 483 333 Q 475 293 440 271 Q 407 281 411 259 Q 397 255 381 254 H 369 Q 361 278 353 300 Z M 226 277 Q 223 286 219 295 Q 215 304 213 313 Q 206 333 203 353 Q 200 373 202 394 Q 203 409 209 422 Q 214 435 224 446 Q 234 457 245 463 Q 256 469 270 472 Q 284 475 298 476 Q 312 476 326 476 Q 331 476 336 476 Q 341 476 346 476 Q 349 462 353 449 Q 357 437 363 424 H 364 Q 365 436 366 449 Q 366 461 367 473 Q 381 471 395 469 Q 409 466 423 462 Q 423 459 423 457 Q 423 456 423 454 Q 423 449 417 446 Q 413 445 410 443 Q 407 441 403 440 Q 404 438 404 435 Q 407 425 409 415 Q 412 409 408 408 Q 400 409 392 410 Q 384 412 376 413 Q 340 418 301 413 Q 297 412 292 411 Q 288 411 283 409 Q 270 406 270 392 Q 270 387 270 383 Q 270 379 270 374 Q 273 352 282 332 Q 283 328 282 324 Q 279 317 277 311 Q 274 305 272 298 Q 271 294 267 292 Q 261 289 257 287 Q 252 285 246 283 Q 241 281 236 280 Q 231 278 226 277 Z M 382 222 Q 382 220 383 219 Q 384 218 384 217 Q 385 215 385 214 Q 392 199 398 183 Q 404 168 407 150 Q 409 140 410 130 Q 411 120 409 110 Q 409 105 407 104 Q 405 102 401 101 Q 393 99 385 99 Q 376 99 368 100 Q 364 101 360 101 Q 357 101 352 103 Q 357 110 363 115 Q 369 120 374 126 L 282 260 Q 285 261 289 259 Q 304 255 319 251 Q 335 247 351 246 Q 353 245 355 245 Q 357 245 360 245 Q 360 247 360 249 Q 360 251 361 253 H 362 Q 363 251 365 245 Q 379 244 392 246 Q 405 248 418 251 Q 413 248 409 246 Q 406 243 401 240 Q 402 236 403 235 Q 397 231 392 228 Q 387 225 382 222 Z M 252 244 Q 276 209 300 176 Q 323 143 346 109 Q 334 96 321 89 Q 319 87 316 88 Q 305 91 294 95 Q 283 98 272 101 Q 268 101 265 106 Q 251 133 236 158 Q 235 195 207 211 Q 206 212 206 213 Q 206 214 205 215 Q 208 217 210 218 Q 212 220 214 222 Q 226 207 238 194 Q 249 180 261 166 Q 262 166 262 167 Q 254 184 246 200 Q 238 216 230 233 Q 236 236 241 239 Q 246 241 252 244 Z M 305 355 Q 301 368 298 380 Q 295 392 295 405 Q 300 406 303 406 Q 315 407 327 408 Q 338 408 351 407 Q 365 406 380 404 Q 395 402 409 400 Q 413 398 414 395 Q 416 385 416 375 Q 417 365 416 355 Q 416 351 415 350 Q 414 349 409 348 Q 401 346 393 347 Q 384 347 375 348 Q 361 351 347 356 Q 333 360 320 366 Q 319 367 317 367 Q 315 367 314 368 Q 311 364 309 362 Q 308 359 305 355 Z M 142 149 Q 119 134 96 121 Q 72 108 48 95 Q 49 93 49 91 Q 50 90 50 88 Q 45 85 40 82 Q 35 80 30 77 Q 36 55 48 36 Q 60 18 76 2 Q 79 4 81 5 Q 83 6 84 8 Q 96 17 108 26 Q 120 35 131 45 Q 136 47 135 50 Q 135 50 136 51 Q 137 52 138 52 Q 139 51 141 52 Q 142 52 143 53 L 164 71 Q 165 71 165 72 Q 168 78 173 82 Q 179 85 183 90 Q 183 90 185 91 Q 177 109 166 122 Q 155 136 142 149 Z M 77 12 Q 64 26 55 41 Q 45 55 39 73 Q 60 85 81 96 Q 103 108 123 120 Q 133 110 142 99 Q 150 88 157 76 Q 153 72 148 68 Q 144 64 139 61 Q 138 62 136 63 Q 135 63 133 64 Q 131 67 128 69 Q 125 71 122 73 Q 121 74 119 75 Q 118 76 116 74 Q 114 73 114 71 Q 115 69 116 68 Q 117 66 118 64 Q 118 63 120 61 Q 121 58 122 55 Q 124 52 126 50 Q 114 40 102 31 Q 90 21 77 12 Z" fill="black" />
  </g>
  <g class="defect" id="01">
    <path d="M 440 271 Q 407 281 411 259" fill="none" stroke="red" stroke-width="3" />
  </g>
  <g class="defect" id="02">
    <path d="M 236 158 Q 235 195 207 211" fill="none" stroke="red" stroke-width="3" />
  </g>
</svg>