<svg xmlns="http://www.w3.org/2000/svg" width="512" height="512" viewBox="0 0 512 512">
  <g class="glyph">
    <path d="M 512 452 Q 512 453 512 454 Q 511 455 511 458 Q 511 462 511 465 Q 510 469 510 474 Q 500 475 490 475 Q 480 475 470 476 Q 451 477 431 477 Q 421 478 411 479 Q 401 479 390 480 Q 390 476 389 473 Q 389 470 389 466 Q 389 466 388 466 Q 387 468 387 470 Q 386 471 385 474 Q 384 479 383 479 Q 382 480 376 480 Q 350 482 323 483 Q 297 485 270 486 Q 241 487 211 489 H 207 L 202 471 H 189 Q 188 466 186 462 Q 185 457 184 452 Q 182 453 180 453 Q 167 458 154 462 Q 142 466 128 468 Q 118 470 108 469 Q 98 469 88 465 Q 72 460 61 446 Q 59 443 58 442 Q 46 434 40 422 Q 34 411 32 397 Q 31 385 33 372 Q 36 360 39 347 Q 43 331 50 316 Q 56 301 63 286 Q 67 276 71 266 Q 76 256 80 246 Q 81 245 81 243 Q 82 240 83 238 Q 74 240 64 243 Q 55 246 47 250 Q 42 245 40 240 Q 37 235 35 229 Q 31 231 28 232 Q 24 227 21 222 Q 19 217 17 211 H 14 Q 13 211 12 212 Q 11 212 10 212 Q 5 197 3 182 Q 1 166 0 151 Q 3 150 5 149 Q 8 148 11 147 Q 24 142 36 139 Q 49 136 62 135 Q 75 134 87 135 Q 99 136 110 140 Q 133 149 147 166 Q 148 169 152 171 Q 185 199 184 244 Q 183 257 180 270 Q 177 283 171 295 Q 168 300 166 306 Q 164 311 161 317 Q 158 317 156 317 Q 154 316 151 316 Q 151 316 151 316 Q 151 316 151 317 Q 153 318 154 320 Q 156 321 158 323 Q 153 334 147 345 Q 142 356 137 369 Q 142 367 145 365 Q 149 363 153 362 Q 157 366 160 371 Q 164 376 167 381 Q 168 380 169 380 Q 170 380 171 380 Q 175 384 178 389 Q 169 393 184 398 Q 185 395 186 392 Q 187 389 188 385 H 221 Q 212 296 206 207 Q 199 119 193 29 Q 195 28 196 27 Q 198 27 199 26 Q 202 25 206 24 Q 210 24 215 22 Q 216 28 216 33 Q 216 38 217 43 Q 220 43 220 40 Q 221 36 221 31 Q 221 26 222 22 Q 228 21 230 21 Q 240 21 251 21 Q 261 21 271 23 Q 275 23 278 21 Q 291 15 304 11 Q 317 7 331 4 Q 354 0 376 2 Q 398 4 419 15 Q 436 24 449 40 Q 451 42 453 43 Q 454 44 455 46 Q 468 57 476 70 L 470 75 Q 470 76 471 76 Q 472 75 474 75 Q 476 74 478 74 Q 479 76 480 78 Q 482 80 483 83 Q 489 95 492 108 Q 495 120 496 133 Q 498 153 498 172 Q 497 192 497 211 Q 496 223 496 234 Q 495 246 494 258 Q 493 274 491 289 Q 490 305 488 320 Q 486 336 484 351 Q 482 367 480 382 V 385 Q 482 386 489 386 Q 490 390 491 395 Q 491 399 492 403 H 507 Q 510 414 510 424 Q 510 427 510 429 Q 511 431 511 434 Q 512 438 512 443 Q 512 447 512 452 Z M 296 101 Q 299 100 299 100 Q 308 92 320 87 Q 331 82 344 79 Q 359 75 374 77 Q 391 80 399 93 Q 400 96 401 99 Q 402 102 403 104 Q 407 115 408 126 Q 409 137 409 148 Q 409 169 409 191 Q 409 212 408 234 Q 407 252 406 269 Q 404 287 403 305 Q 402 320 400 336 Q 398 351 397 367 Q 396 371 396 376 Q 396 381 395 385 H 452 Q 453 382 453 381 L 459 335 Q 463 311 465 288 Q 468 264 470 239 Q 471 214 473 189 Q 474 163 474 138 Q 474 109 465 81 Q 464 77 463 72 Q 461 68 458 64 Q 449 68 440 72 Q 431 75 421 79 Q 421 78 420 78 Q 427 71 435 64 Q 442 57 449 49 Q 442 39 432 31 Q 414 17 393 12 Q 372 7 349 8 Q 317 12 288 25 Q 281 27 280 28 Q 280 29 280 37 V 41 Q 280 52 281 62 Q 281 73 281 84 Q 281 88 283 88 Q 285 92 289 95 Q 292 98 296 101 Z M 138 291 Q 138 290 139 290 Q 147 275 152 259 Q 157 244 158 227 Q 160 199 146 178 Q 134 160 117 152 Q 100 143 80 142 Q 67 141 56 143 Q 44 145 33 148 Q 27 150 21 152 Q 14 154 8 156 Q 10 182 15 204 Q 25 202 34 200 Q 43 199 53 197 V 198 Q 47 202 40 207 Q 33 211 27 215 Q 29 217 29 219 Q 30 221 31 222 Q 40 220 47 217 Q 55 215 63 213 Q 67 212 71 212 Q 76 211 80 211 Q 93 211 93 224 Q 93 235 88 247 Q 84 258 79 270 Q 74 282 69 292 Q 62 307 56 322 Q 50 337 46 352 Q 43 363 42 375 Q 40 386 41 398 Q 43 413 52 426 Q 61 438 82 442 Q 89 444 97 444 Q 105 443 112 442 Q 128 440 144 434 Q 159 429 173 421 Q 175 420 176 419 Q 172 405 165 393 Q 159 381 151 370 Q 149 371 147 372 Q 146 372 144 373 Q 133 379 120 384 Q 116 385 110 385 Q 106 386 103 383 Q 101 380 102 375 Q 103 374 103 373 Q 103 372 103 370 Q 106 359 111 348 Q 116 337 122 326 Q 125 321 126 316 Q 128 311 131 307 Q 127 303 124 300 Q 120 297 117 295 Q 114 292 110 289 Q 106 286 103 282 Q 112 285 121 287 Q 130 289 138 291 Z M 286 385 Q 280 296 277 208 Q 274 120 272 30 Q 261 27 251 27 Q 240 27 229 28 Q 228 39 227 49 Q 226 59 224 69 Q 223 79 221 89 Q 220 99 218 109 Q 215 89 213 70 Q 211 51 209 31 Q 206 32 204 33 Q 202 33 201 34 Q 207 122 213 210 Q 220 297 229 385 Q 243 385 257 385 Q 272 385 286 385 Z M 485 449 Q 486 443 486 435 Q 470 427 486 419 Q 486 411 485 404 Q 485 397 483 393 Q 410 393 338 393 Q 267 393 193 392 Q 190 411 190 429 Q 190 446 195 464 Q 237 462 278 459 Q 319 457 360 455 L 373 410 H 374 Q 378 431 379 454 Q 406 453 432 451 Q 458 450 485 449 Z M 397 285 Q 398 283 398 281 Q 399 263 400 247 Q 401 230 402 212 Q 402 193 402 173 Q 421 153 401 133 Q 400 126 398 120 Q 397 114 396 108 Q 395 103 391 103 Q 389 103 386 103 Q 382 102 380 102 Q 344 105 318 126 Q 316 128 315 128 Q 311 125 307 122 Q 303 120 299 116 Q 300 123 300 130 Q 300 137 300 144 Q 318 141 335 138 Q 353 135 370 132 Q 372 137 374 142 Q 375 147 376 152 Q 379 151 382 151 Q 384 151 388 151 Q 396 172 398 193 Q 399 214 396 237 Q 384 237 372 237 Q 360 238 348 238 Q 347 233 348 229 Q 348 226 347 222 H 346 Q 345 226 343 229 Q 341 233 340 238 L 302 239 Q 302 246 302 252 Q 302 258 303 265 Q 321 262 338 259 Q 355 256 373 254 Q 374 258 376 263 Q 378 268 379 273 Q 382 272 385 272 Q 387 272 390 272 Q 393 275 394 278 Q 396 282 397 285 Z M 290 336 Q 312 335 333 334 Q 355 334 376 333 Q 379 315 377 297 Q 375 280 369 262 Q 348 266 328 269 Q 308 273 288 276 Q 289 291 289 306 Q 289 320 290 336 Z M 372 211 Q 374 193 373 176 Q 372 158 365 141 Q 345 144 324 148 Q 303 151 283 154 Q 284 170 284 184 Q 284 199 285 214 Q 294 214 301 214 Q 309 214 318 213 Q 322 204 325 194 Q 328 184 332 173 Q 335 183 337 193 Q 338 202 338 213 Q 347 212 355 212 Q 364 212 372 211 Z M 390 359 Q 369 359 350 360 Q 330 361 309 361 Q 309 373 311 385 H 387 Q 389 374 390 359 Z M 75 10 Q 83 16 92 23 Q 100 30 109 36 Q 114 40 119 43 Q 123 47 128 51 Q 130 53 131 54 Q 133 55 133 58 Q 133 58 134 59 Q 135 59 136 59 Q 138 58 140 61 Q 146 65 151 70 Q 156 74 161 78 Q 162 78 162 79 Q 165 85 170 88 Q 175 92 179 96 L 181 98 Q 179 104 175 112 Q 170 120 164 128 Q 157 137 151 144 Q 144 150 139 154 Q 117 139 94 127 Q 71 115 48 102 Q 48 99 49 94 Q 40 90 30 84 Q 30 78 34 68 Q 38 58 45 47 Q 52 36 60 26 Q 67 16 75 10 Z M 120 126 Q 125 123 130 117 Q 135 111 140 105 Q 144 98 148 92 Q 151 86 153 82 Q 149 78 145 75 Q 140 71 136 67 Q 132 70 128 74 Q 123 77 119 80 Q 115 82 114 81 Q 111 80 113 75 Q 114 74 114 72 Q 115 71 116 69 Q 117 66 119 63 Q 121 60 123 57 Q 111 47 99 38 Q 87 29 75 19 Q 49 46 37 79 Q 58 92 79 103 Q 99 115 120 126 Z" fill="black" />
  </g>
  <g class="defect" id="01">
    <path d="M 402 173 Q 421 153 401 133" fill="none" stroke="red" stroke-width="3" />
  </g>
  <g class="defect" id="02">
    <path d="M 486 435 Q 470 427 486 419" fill="none" stroke="red" stroke-width="3" />
  </g>
  <g class="defect" id="03">
    <path d="M 178 389 Q 169 393 184 398" fill="none" stroke="red" stroke-width="3" />
  </g>
</svg>