<svg xmlns="http://www.w3.org/2000/svg" width="512" height="512" viewBox="0 0 512 512">
  <g class="glyph">
    <path d="M 510 483 Q 490 489 471 493 Q 451 498 431 501 Q 405 504 381 504 Q 356 504 331 498 Q 315 495 300 489 Q 285 484 271 474 L 266 471 L 264 469 Q 265 466 266 464 Q 263 463 262 461 Q 261 462 260 463 Q 259 463 258 464 H 257 Q 246 453 236 443 Q 225 433 216 421 Q 205 406 199 388 Q 192 371 189 352 Q 186 336 185 319 Q 185 302 186 285 Q 186 284 185 283 Q 181 293 177 303 Q 173 313 168 323 Q 164 322 156 321 Q 159 324 161 325 Q 163 327 165 329 Q 159 340 154 352 Q 159 374 142 376 Q 145 375 150 374 Q 154 379 157 384 Q 160 389 164 395 Q 166 394 169 393 Q 180 408 189 424 Q 198 440 203 459 Q 198 461 193 464 Q 189 466 184 468 Q 172 474 159 478 Q 146 482 133 484 Q 122 486 112 485 Q 102 485 92 481 Q 76 474 65 461 Q 64 458 60 455 Q 39 440 35 413 Q 32 402 34 390 Q 35 378 38 367 Q 42 351 47 335 Q 53 320 60 305 Q 66 292 72 278 Q 77 264 83 250 Q 84 248 85 246 Q 86 243 87 240 Q 77 242 67 246 Q 58 249 48 253 Q 44 249 42 243 Q 39 237 36 232 Q 34 233 30 234 Q 25 229 22 224 Q 20 218 18 212 Q 16 213 14 213 Q 13 213 11 213 Q 9 211 7 203 Q 5 195 3 185 Q 2 175 1 165 Q 0 155 0 148 Q 1 147 3 147 Q 16 142 30 138 Q 44 134 59 133 Q 74 131 89 132 Q 104 133 118 139 Q 139 148 154 165 Q 156 168 159 171 Q 185 192 192 227 Q 192 227 193 230 Q 193 229 194 228 Q 194 227 194 226 Q 199 199 205 174 Q 212 148 219 122 Q 221 117 221 112 Q 222 107 220 102 Q 219 101 219 99 Q 219 98 218 96 H 204 Q 197 73 197 50 Q 198 28 203 5 Q 229 6 253 7 Q 278 8 304 9 Q 304 14 304 18 Q 304 22 304 26 Q 307 22 308 18 Q 309 14 311 9 Q 353 11 395 13 Q 436 15 479 16 Q 480 21 480 25 Q 481 30 482 34 Q 486 35 490 35 Q 493 35 498 35 Q 502 53 501 72 Q 501 90 497 109 Q 486 110 476 110 Q 466 109 456 110 Q 446 110 436 111 Q 426 111 415 111 Q 426 115 435 119 Q 444 123 453 130 Q 453 131 453 132 Q 453 133 452 134 Q 454 133 456 131 Q 468 139 478 148 Q 480 150 483 152 Q 485 154 485 157 Q 485 159 488 159 Q 492 163 496 166 Q 500 170 505 174 L 447 267 Q 461 285 476 302 Q 491 320 506 338 Q 483 368 451 386 Q 439 374 426 363 Q 414 351 402 339 Q 393 354 383 369 Q 374 385 364 400 Q 361 399 357 398 Q 342 393 329 385 Q 315 377 303 367 Q 302 366 301 365 Q 300 364 301 361 Q 300 361 300 360 L 299 359 Q 298 358 296 356 Q 294 355 291 353 V 358 Q 292 365 294 373 Q 296 380 299 387 Q 302 391 305 393 Q 317 399 330 402 Q 342 406 355 407 Q 378 409 400 406 Q 422 403 444 399 Q 450 398 457 396 Q 463 395 469 393 Q 471 393 474 393 Q 477 397 479 402 Q 481 408 484 413 Q 486 412 488 412 Q 490 412 493 411 Q 497 418 499 424 Q 501 430 503 436 Q 501 439 497 441 Q 499 441 501 441 Q 502 440 505 440 Q 506 445 507 451 Q 509 456 510 462 Q 511 465 511 469 Q 511 472 511 475 Q 511 477 512 478 Q 512 480 512 481 Q 510 482 510 483 Z M 234 94 Q 233 95 233 96 Q 233 97 233 98 Q 231 105 229 112 Q 227 118 225 125 Q 215 160 207 196 Q 198 232 195 269 Q 192 290 193 311 Q 193 332 196 353 Q 200 371 206 387 Q 213 403 224 418 Q 226 423 230 427 Q 233 431 238 435 Q 246 427 254 419 Q 262 411 270 403 Q 270 403 271 403 Q 266 415 263 425 Q 259 436 254 447 L 259 451 Q 267 455 275 459 Q 283 463 291 465 Q 317 474 343 476 Q 369 478 396 475 Q 432 471 466 461 Q 471 460 474 459 Q 478 459 482 457 Q 481 450 480 443 Q 480 437 478 430 Q 463 433 448 435 Q 433 438 419 441 L 419 440 Q 432 433 446 428 Q 459 422 472 414 Q 471 410 470 407 Q 468 404 467 401 Q 463 402 458 403 Q 453 404 449 405 Q 425 410 401 413 Q 377 416 353 414 Q 324 412 299 399 Q 289 393 281 385 Q 274 378 270 366 Q 265 354 263 344 Q 261 327 261 310 Q 262 293 264 276 Q 267 245 276 216 Q 276 210 273 207 Q 271 205 270 203 Q 269 201 267 200 Q 275 186 284 176 Q 287 174 288 172 Q 288 170 290 168 Q 292 159 295 149 Q 298 140 301 131 Q 302 126 303 123 Q 304 119 305 114 Q 288 105 271 100 Q 253 95 234 94 Z M 31 224 Q 32 224 34 223 Q 35 222 36 222 Q 43 220 48 218 Q 54 216 60 214 Q 72 211 81 211 Q 97 211 96 228 Q 94 241 90 251 Q 84 264 79 276 Q 74 288 68 301 Q 61 317 55 334 Q 48 350 44 368 Q 42 379 40 390 Q 39 401 42 412 Q 44 429 53 440 Q 63 451 79 456 Q 93 460 105 459 Q 120 457 135 453 Q 149 448 162 441 Q 168 439 174 436 Q 169 422 162 409 Q 155 396 146 384 Q 142 387 139 387 Q 133 391 128 393 Q 119 395 113 395 Q 104 397 105 387 Q 105 385 106 381 Q 110 368 115 356 Q 121 344 126 332 Q 129 327 131 322 Q 133 317 136 313 Q 134 311 132 309 Q 130 308 128 306 Q 126 304 124 303 Q 122 301 120 299 Q 115 296 113 293 Q 111 292 109 290 Q 107 289 106 286 Q 115 288 125 291 Q 134 293 144 296 Q 147 291 149 286 Q 151 282 153 277 Q 158 266 161 253 Q 164 241 165 228 Q 168 188 141 162 Q 127 150 112 144 Q 97 139 80 139 Q 61 138 43 142 Q 26 146 9 152 Q 9 152 7 154 Q 7 159 8 166 Q 9 174 10 181 Q 11 189 13 195 Q 14 201 16 203 Q 26 201 35 200 Q 44 198 54 196 Q 54 196 55 197 Q 42 206 27 215 Q 28 216 28 217 Q 28 218 29 219 Q 29 221 30 222 Q 10 204 31 224 Z M 209 12 Q 205 31 205 50 Q 204 68 209 87 H 215 L 230 85 H 292 Q 319 85 346 84 Q 372 84 399 82 Q 415 82 430 82 Q 445 82 461 82 Q 466 82 469 81 Q 475 52 471 23 Q 432 21 393 20 Q 355 18 316 16 Q 311 30 307 42 Q 303 54 296 65 Q 296 53 296 41 Q 296 28 295 15 Q 274 14 252 14 Q 230 13 209 12 Z M 276 199 Q 316 239 354 278 Q 392 317 431 357 Q 444 349 455 340 Q 465 330 475 319 Q 439 276 404 234 Q 368 191 332 148 Q 316 159 302 171 Q 287 183 276 199 Z M 410 118 Q 408 119 408 119 Q 408 119 408 120 Q 400 135 392 151 Q 383 167 375 182 Q 373 186 376 189 Q 386 201 397 214 Q 407 226 418 239 Q 419 240 419 241 Q 419 242 420 243 Q 434 220 448 199 Q 461 177 474 155 Q 470 152 465 148 Q 461 144 456 141 Q 435 164 408 183 Q 416 170 425 158 Q 433 145 442 132 Q 434 127 426 124 Q 418 121 410 118 Z M 330 266 Q 320 286 309 305 Q 299 324 290 342 Q 293 346 300 351 Q 307 356 314 360 Q 322 365 329 368 Q 336 371 340 371 Q 349 357 358 342 Q 367 328 376 313 Q 365 301 353 289 Q 342 278 330 266 Z M 404 110 Q 381 111 359 111 Q 337 112 315 112 Q 314 115 313 119 Q 319 122 324 125 Q 329 127 334 131 Q 333 133 333 135 Q 333 137 332 138 Q 333 139 335 140 Q 336 141 336 142 Q 339 146 342 149 Q 345 152 347 155 Q 349 158 350 158 Q 353 158 355 160 Q 356 163 358 165 Q 361 168 363 171 Q 366 174 369 176 Q 378 160 387 143 Q 395 127 404 110 Z M 324 259 Q 319 254 314 248 Q 308 243 302 237 Q 296 259 293 281 Q 290 303 288 324 Q 289 324 289 325 Q 290 325 290 325 Q 299 308 307 292 Q 316 276 324 259 Z M 188 93 Q 180 110 169 124 Q 158 139 144 151 Q 121 136 96 123 Q 72 110 47 97 Q 48 91 48 88 Q 43 85 38 83 Q 33 80 28 77 Q 30 69 35 58 Q 40 47 47 36 Q 53 24 61 15 Q 69 5 76 0 Q 77 1 79 2 Q 81 3 82 5 Q 96 14 108 24 Q 121 35 134 44 Q 136 46 136 48 Q 136 49 137 51 Q 138 52 141 52 Q 143 51 144 53 Q 150 58 155 63 Q 161 67 167 72 Q 168 73 168 73 Q 169 77 172 80 Q 176 82 179 85 Q 181 87 183 89 Q 185 90 188 93 Z M 37 73 Q 59 86 81 98 Q 103 110 125 122 Q 135 113 144 101 Q 153 90 159 77 Q 155 72 150 69 Q 146 65 141 61 Q 137 64 133 67 Q 129 69 125 73 Q 121 76 119 76 Q 118 76 117 75 Q 114 72 115 70 Q 117 68 118 67 Q 120 62 122 58 Q 125 54 127 49 Q 114 40 102 30 Q 90 20 77 10 Q 64 24 53 40 Q 43 55 37 73 Z" fill="black" />
  </g>
  <g class="defect" id="01">
    <path d="M 154 352 Q 159 374 142 376" fill="none" stroke="red" stroke-width="3" />
  </g>
  <g class="defect" id="02">
    <path d="M 30 222 Q 10 204 31 224" fill="none" stroke="red" stroke-width="3" />
  </g>
</svg>