<svg xmlns="http://www.w3.org/2000/svg" width="512" height="512" viewBox="0 0 512 512">
  <g class="glyph">
    <path d="M 360 0 Q 369 3 376 6 Q 383 9 390 13 Q 411 26 429 45 Q 432 47 435 50 Q 437 52 440 55 Q 443 58 445 60 Q 448 63 450 66 Q 445 73 440 79 Q 435 85 429 93 H 449 Q 450 98 450 102 Q 451 104 451 106 Q 451 108 452 111 H 467 Q 471 128 471 146 Q 471 163 468 180 Q 457 181 445 181 Q 434 182 423 182 Q 422 190 423 198 Q 423 207 423 215 Q 434 215 445 215 Q 455 214 466 214 Q 467 218 468 223 Q 469 227 471 232 H 484 Q 494 266 489 301 Q 473 302 456 304 Q 440 305 423 307 V 433 Q 421 433 420 434 Q 418 435 417 435 Q 412 436 408 436 Q 405 437 400 437 Q 398 437 396 437 Q 396 437 395 436 Q 393 439 389 439 Q 385 438 382 438 Q 376 438 369 438 Q 363 437 357 437 Q 356 437 354 436 Q 354 433 354 430 Q 353 427 353 425 Q 353 421 352 421 Q 352 420 349 420 Q 346 420 343 420 Q 340 419 338 419 V 418 H 337 Q 336 418 336 418 Q 334 393 333 367 Q 331 341 329 315 Q 316 316 303 317 Q 291 318 278 320 Q 273 342 269 365 Q 265 387 261 410 Q 274 408 287 405 Q 300 402 313 400 Q 315 405 317 409 Q 318 414 320 420 Q 323 419 325 419 Q 328 418 330 418 Q 334 425 336 432 Q 338 439 340 447 Q 339 448 338 449 Q 336 450 335 451 Q 339 450 343 450 Q 347 450 351 449 Q 352 453 354 456 Q 355 459 356 463 Q 351 465 347 466 Q 342 467 338 468 V 487 Q 333 488 332 489 Q 305 496 279 501 Q 254 506 227 509 Q 210 511 194 511 Q 177 512 159 510 Q 138 508 119 502 Q 100 496 82 485 Q 80 484 77 481 Q 79 478 80 475 Q 75 477 73 478 Q 70 475 68 474 Q 67 472 64 469 L 45 450 Q 29 435 19 417 Q 10 399 5 378 Q 1 359 0 340 Q 0 321 1 301 Q 3 282 6 263 Q 9 245 15 227 Q 15 224 17 220 H 35 Q 35 220 36 219 Q 32 216 28 214 Q 24 211 20 208 Q 22 201 25 194 Q 27 186 30 179 Q 53 180 72 189 Q 91 198 109 210 Q 109 212 108 213 Q 108 214 107 215 Q 108 216 108 216 Q 108 216 109 217 Q 112 219 115 221 Q 118 223 122 225 Q 124 226 127 226 Q 140 226 153 225 Q 166 225 178 225 Q 181 225 184 224 Q 188 224 191 224 Q 192 215 194 207 Q 183 208 196 190 H 167 Q 166 185 165 181 Q 164 177 163 172 H 150 Q 149 170 148 166 Q 147 163 146 159 Q 142 164 139 167 Q 136 171 131 174 Q 128 178 124 182 Q 120 185 116 189 Q 94 174 72 160 Q 50 145 29 130 Q 29 129 29 128 Q 29 127 30 126 Q 26 123 21 119 Q 16 116 11 112 Q 19 92 33 75 Q 46 58 64 44 Q 85 63 104 82 Q 124 100 143 119 Q 144 111 145 103 Q 146 94 149 87 H 203 Q 197 77 189 70 Q 182 62 175 52 Q 189 35 207 24 Q 226 13 246 4 Q 249 10 252 15 Q 255 20 257 25 Q 260 24 261 24 Q 262 23 264 23 Q 270 32 275 42 Q 280 52 286 62 Q 284 65 280 68 Q 282 71 283 73 Q 285 72 286 71 Q 288 71 290 70 Q 292 74 294 77 Q 296 80 298 85 Q 300 91 306 90 Q 309 89 312 90 Q 315 90 319 90 L 313 84 Q 326 63 338 42 Q 349 21 360 0 Z M 309 408 Q 308 408 306 408 Q 275 415 245 420 Q 215 424 184 425 Q 170 426 157 425 Q 144 424 131 420 Q 82 407 75 358 Q 73 342 74 327 Q 75 311 77 295 Q 81 275 86 257 Q 92 238 99 220 Q 100 218 100 217 Q 100 215 100 214 Q 87 205 73 198 Q 60 191 44 188 Q 42 188 40 187 Q 38 187 35 187 Q 34 191 32 196 Q 31 200 29 204 Q 38 210 46 216 Q 55 221 62 227 Q 52 228 42 227 Q 32 226 22 227 Q 21 232 21 232 Q 13 264 9 299 Q 8 317 8 335 Q 8 353 12 371 Q 18 406 39 432 Q 43 437 47 441 Q 51 445 56 450 Q 64 444 72 438 Q 80 432 88 426 L 89 427 Q 79 443 69 460 Q 70 461 71 461 Q 73 462 74 462 Q 86 470 98 474 Q 111 478 125 481 Q 144 485 164 485 Q 183 485 202 483 Q 223 481 244 477 Q 264 473 285 469 Q 292 467 298 466 Q 305 464 312 462 Q 312 461 312 460 Q 312 459 311 457 Q 302 459 294 459 Q 285 460 276 461 Q 275 459 275 457 Q 275 455 275 454 Q 288 450 301 446 Q 314 443 327 439 V 438 Q 316 440 304 442 Q 293 443 282 445 Q 282 445 281 444 Q 290 439 297 434 Q 305 429 314 425 Q 312 420 311 416 Q 310 412 309 408 Z M 155 95 Q 152 113 152 131 Q 152 148 156 165 Q 157 165 158 165 Q 158 166 159 166 Q 172 165 184 165 Q 196 165 209 165 Q 228 164 247 163 Q 266 162 285 162 Q 297 161 310 161 Q 323 161 335 160 Q 357 159 378 159 Q 399 158 420 157 Q 426 156 431 156 Q 437 156 443 156 Q 448 128 443 101 Q 437 101 433 101 Q 428 100 423 100 Q 412 100 400 100 Q 389 100 378 99 Q 358 99 339 99 Q 320 98 300 98 Q 292 98 285 97 Q 277 97 269 97 Q 264 97 262 99 Q 257 103 252 106 Q 246 109 242 112 Q 239 113 236 115 Q 233 116 230 117 Q 226 113 222 108 Q 219 104 215 99 Q 212 96 207 96 Q 198 96 190 96 Q 182 95 174 95 Q 170 95 165 95 Q 161 95 155 95 Z M 342 412 Q 348 413 357 413 Q 365 414 370 413 Q 372 401 374 389 Q 376 377 380 365 Q 381 377 383 388 Q 384 400 385 412 Q 391 411 398 410 V 405 Q 398 398 398 392 Q 397 385 397 378 Q 397 326 397 275 Q 397 223 397 171 V 168 Q 397 167 397 167 Q 396 166 396 165 Q 379 166 362 166 Q 345 166 327 167 Q 332 229 335 290 Q 339 350 342 412 Z M 323 227 Q 275 229 228 231 Q 180 232 132 234 Q 130 240 129 253 Q 129 266 130 272 Q 142 269 155 267 Q 167 264 179 262 Q 167 270 155 276 Q 143 282 131 290 Q 132 293 133 297 Q 134 299 134 301 Q 135 303 135 305 Q 184 300 231 296 Q 279 292 328 288 Q 327 272 326 257 Q 324 242 323 227 Z M 121 248 Q 119 253 117 258 Q 115 263 114 268 Q 107 290 103 312 Q 99 335 99 358 Q 100 369 101 379 Q 103 389 108 400 Q 111 405 115 406 Q 119 408 122 409 Q 126 411 130 412 Q 143 417 157 418 Q 171 419 185 418 Q 186 418 187 418 Q 188 418 189 418 Q 189 415 189 412 Q 190 409 190 406 Q 185 405 180 403 Q 176 402 171 400 L 179 328 Q 171 329 163 330 Q 155 330 148 330 Q 147 326 145 321 Q 157 317 142 312 H 130 Q 125 298 124 287 Q 127 285 130 283 Q 133 281 136 279 Q 136 279 135 278 Q 130 279 122 280 V 248 Z M 104 92 Q 94 82 84 73 Q 74 64 65 55 Q 51 67 40 80 Q 46 94 21 110 Q 40 123 60 136 Q 79 149 98 162 Q 102 159 108 154 Q 113 148 119 142 Q 124 136 128 131 Q 132 125 133 122 Q 129 117 125 112 Q 121 107 116 103 Q 107 107 99 111 Q 91 115 82 119 V 118 Q 88 112 93 105 Q 98 99 104 92 Z M 178 395 Q 206 404 233 402 Q 238 378 242 353 Q 246 328 251 303 Q 236 304 220 305 Q 204 307 188 308 Q 185 330 183 352 Q 181 373 178 395 Z M 324 83 Q 326 85 328 86 Q 329 88 332 89 Q 335 92 338 92 Q 349 92 360 92 Q 371 92 383 93 Q 387 93 390 89 Q 398 80 405 71 Q 413 61 420 52 Q 421 51 421 51 Q 421 50 423 49 Q 409 36 396 26 Q 382 15 364 9 Q 354 28 344 46 Q 334 64 324 83 Z M 225 82 Q 224 81 224 81 Q 224 81 224 80 Q 233 71 242 62 Q 251 53 260 44 Q 256 36 252 29 Q 249 22 244 14 Q 227 22 212 31 Q 197 40 185 54 Q 197 68 209 81 Q 220 94 232 109 Q 258 95 277 77 Q 275 73 273 70 Q 272 66 269 63 Q 258 68 247 73 Q 236 78 225 82 Z M 201 225 Q 218 224 234 223 Q 251 222 269 222 Q 272 210 273 199 Q 275 188 278 177 Q 274 176 269 174 Q 265 173 261 172 Q 256 170 251 170 Q 245 170 239 170 Q 233 171 227 171 Q 222 172 218 172 Q 213 172 208 172 Q 207 174 206 182 Q 204 190 203 199 Q 202 208 201 215 Q 201 223 201 225 Z M 405 224 Q 405 238 404 253 Q 404 267 405 282 Q 420 280 435 279 Q 450 278 465 276 Q 466 262 465 249 Q 465 235 460 221 Q 446 222 432 222 Q 419 222 405 224 Z M 298 188 Q 300 189 302 189 Q 303 190 305 191 Q 303 199 302 206 Q 300 213 298 220 Q 305 220 311 220 Q 317 220 323 220 Q 322 210 322 203 Q 322 195 321 187 H 298 Z" fill="black" />
  </g>
  <g class="defect" id="01">
    <path d="M 40 80 Q 46 94 21 110" fill="none" stroke="red" stroke-width="3" />
  </g>
  <g class="defect" id="02">
    <path d="M 145 321 Q 157 317 142 312" fill="none" stroke="red" stroke-width="3" />
  </g>
  <g class="defect" id="03">
    <path d="M 194 207 Q 183 208 196 190" fill="none" stroke="red" stroke-width="3" />
  </g>
</svg>