<svg xmlns="http://www.w3.org/2000/svg" width="512" height="512" viewBox="0 0 512 512">
  <g class="glyph">
    <path d="M 179 400 Q 180 395 181 392 Q 181 388 182 384 Q 182 384 181 383 Q 181 383 180 383 Q 178 386 177 391 Q 176 395 174 399 Q 157 396 143 392 Q 143 388 144 385 Q 144 382 144 379 Q 139 377 135 376 Q 130 375 125 373 Q 130 318 136 263 Q 126 208 149 152 Q 142 159 135 167 Q 127 174 119 180 Q 96 165 75 150 Q 53 136 30 121 Q 31 119 31 116 Q 27 112 22 109 Q 17 106 12 102 Q 20 81 34 64 Q 48 47 66 33 Q 70 36 72 38 Q 82 47 93 57 Q 103 66 113 76 Q 117 80 122 84 Q 126 88 131 92 Q 132 94 133 94 Q 134 95 135 96 Q 134 88 133 81 Q 132 74 131 66 Q 131 59 131 51 Q 131 44 132 36 Q 157 33 181 30 Q 205 28 230 25 Q 230 27 231 29 Q 231 31 231 34 Q 232 31 233 29 Q 234 27 235 24 Q 287 18 338 12 Q 390 6 443 0 Q 444 4 446 9 Q 447 14 449 19 Q 452 19 455 19 Q 458 19 461 19 Q 469 40 471 62 Q 472 84 468 106 Q 446 108 423 109 Q 401 111 379 112 V 113 Q 382 114 386 114 Q 389 115 392 116 Q 405 118 415 124 Q 426 130 435 140 Q 441 147 447 153 Q 450 156 452 158 Q 454 161 457 163 Q 454 168 452 169 Q 452 170 452 170 Q 456 168 459 167 Q 464 173 466 180 Q 468 186 469 194 Q 474 221 463 247 Q 457 262 449 276 Q 440 289 431 303 Q 430 304 429 305 Q 428 307 427 308 Q 436 314 446 319 Q 455 323 464 329 Q 464 330 464 332 Q 463 334 463 337 Q 468 339 473 342 Q 478 344 482 347 Q 482 351 479 360 Q 477 368 472 377 Q 468 387 462 396 Q 457 405 451 411 Q 442 407 432 403 Q 422 399 413 394 Q 414 392 414 390 Q 414 388 415 385 Q 414 384 413 384 Q 412 384 411 383 Q 409 385 408 386 Q 406 388 405 390 Q 395 386 385 381 Q 375 377 364 373 Q 354 381 344 389 Q 334 397 324 405 Q 325 408 326 411 Q 327 413 328 416 Q 330 416 333 415 Q 336 415 339 415 Q 342 422 344 429 Q 346 437 348 444 Q 347 446 346 447 Q 344 448 343 449 Q 347 448 351 448 Q 355 448 360 447 Q 360 449 361 451 Q 361 452 363 454 Q 364 459 365 462 Q 360 463 355 465 Q 350 466 345 467 Q 346 472 346 477 Q 346 482 346 486 Q 343 487 339 488 Q 336 489 333 490 Q 307 497 282 501 Q 257 506 231 509 Q 215 511 198 511 Q 182 512 164 510 Q 143 508 124 503 Q 105 497 87 486 Q 85 485 83 483 Q 81 482 79 480 Q 80 479 80 478 Q 81 477 82 474 Q 78 476 74 478 Q 70 474 66 470 Q 63 466 58 462 Q 56 460 54 458 Q 53 456 50 454 Q 32 438 21 418 Q 10 398 5 374 Q 1 356 1 337 Q 0 319 2 300 Q 4 260 16 219 Q 17 216 18 214 H 37 Q 37 214 38 213 Q 29 207 22 202 Q 24 194 27 187 Q 29 180 32 172 Q 55 174 75 183 Q 95 192 113 205 Q 112 208 112 210 Q 116 213 121 217 Q 127 220 132 224 Q 131 226 130 228 Q 129 230 128 233 Q 120 254 114 274 Q 108 295 105 317 Q 102 332 102 346 Q 101 361 104 375 Q 107 388 111 397 Q 113 402 119 406 Q 128 411 139 414 Q 149 416 161 417 Q 179 419 197 418 Q 215 417 233 415 Q 239 413 246 413 Q 253 412 260 411 Q 261 411 262 410 Q 263 410 266 410 Q 242 387 228 359 Q 237 351 247 343 Q 256 336 266 328 Q 256 324 248 320 Q 239 316 230 311 Q 223 358 215 402 Q 206 402 197 401 Q 189 401 179 400 Z M 71 459 Q 73 460 74 461 Q 76 462 77 462 Q 88 468 99 473 Q 111 477 123 480 Q 143 484 164 485 Q 185 485 206 483 Q 226 481 245 478 Q 263 475 282 470 Q 291 468 300 466 Q 308 464 317 462 Q 322 462 319 457 Q 311 458 302 458 Q 293 459 284 460 Q 283 458 283 456 Q 283 454 283 453 Q 296 448 309 445 Q 323 442 336 437 Q 324 438 313 440 Q 302 442 290 443 V 442 Q 298 437 306 433 Q 314 428 322 423 Q 321 418 320 414 Q 318 410 317 405 H 314 Q 296 410 278 413 Q 260 416 241 418 Q 224 421 206 423 Q 188 424 170 423 Q 153 423 135 418 Q 84 404 77 353 Q 75 335 76 319 Q 77 302 80 285 Q 84 266 89 247 Q 95 229 101 211 Q 102 210 102 209 Q 103 208 104 206 Q 90 198 77 191 Q 64 185 48 181 Q 43 180 37 179 Q 35 184 33 188 Q 32 193 30 198 Q 35 200 39 203 Q 43 206 48 209 Q 52 212 56 215 Q 60 218 64 220 Q 64 221 64 221 Q 83 238 64 221 L 24 220 Q 23 224 22 226 Q 20 232 19 239 Q 17 246 16 252 Q 11 279 9 306 Q 7 332 11 359 Q 14 377 19 393 Q 25 410 35 424 Q 40 431 46 437 Q 51 443 58 449 Q 66 443 75 437 Q 83 431 91 425 Q 91 425 92 425 Q 92 425 92 426 Q 87 433 82 442 Q 76 450 71 459 Z M 139 44 Q 137 73 144 100 H 153 Q 170 99 187 98 Q 204 97 221 96 L 283 92 Q 302 91 322 90 Q 343 89 362 87 Q 381 86 401 85 Q 420 84 439 82 Q 441 82 444 81 Q 446 64 445 46 Q 444 28 438 10 H 434 Q 421 11 409 13 Q 397 14 385 16 Q 367 18 350 20 Q 332 22 314 24 Q 297 27 280 29 Q 262 30 245 32 Q 241 33 240 36 Q 238 44 236 52 Q 234 60 231 69 Q 231 70 231 71 Q 231 73 230 74 H 229 Q 228 64 226 54 Q 225 44 224 35 Q 203 37 182 39 Q 161 42 139 44 Z M 257 209 Q 258 208 260 208 Q 261 208 263 208 Q 280 202 297 198 Q 314 194 332 191 Q 341 190 350 189 Q 359 188 368 189 Q 373 189 377 190 Q 381 192 382 197 Q 379 201 378 205 Q 377 210 374 214 Q 371 218 369 222 Q 368 226 365 230 Q 362 235 360 239 Q 357 242 354 246 Q 351 250 348 254 Q 345 258 342 262 Q 356 270 370 277 Q 384 284 398 292 Q 399 291 400 289 Q 401 288 402 287 Q 409 277 416 267 Q 422 257 429 247 Q 438 234 443 215 Q 446 203 446 190 Q 447 178 442 166 Q 441 164 441 162 Q 440 161 439 159 Q 428 164 418 168 Q 408 172 398 175 Q 406 168 414 160 Q 422 153 430 145 Q 427 143 426 141 Q 424 140 422 138 Q 415 132 408 129 Q 400 126 391 123 Q 376 120 360 119 Q 345 119 329 121 Q 309 123 291 126 Q 272 130 253 135 Q 249 136 244 137 Q 239 139 234 140 Q 237 178 255 209 Z M 164 107 Q 154 173 147 238 Q 139 303 133 368 Q 136 369 138 370 Q 140 370 142 370 Q 144 371 146 371 Q 148 371 151 373 Q 154 365 156 358 Q 158 351 161 345 Q 164 339 166 332 Q 169 325 172 319 Q 176 333 174 347 Q 172 360 170 375 Q 179 375 189 375 Q 190 371 190 370 Q 193 350 196 332 Q 199 313 203 294 Q 209 261 214 229 Q 220 197 226 165 Q 227 158 226 150 Q 225 147 225 143 Q 225 140 225 136 Q 227 135 228 135 Q 229 135 230 134 Q 231 133 231 133 Q 232 133 232 132 Q 234 127 234 123 Q 235 118 236 114 Q 228 111 220 109 Q 212 106 204 105 H 202 Q 193 105 183 105 Q 174 106 164 107 Z M 431 384 Q 448 361 457 333 Q 405 305 354 278 Q 303 250 251 222 Q 246 227 240 236 Q 235 244 230 253 Q 225 262 221 271 Q 218 280 218 285 Q 299 324 385 362 Q 392 352 400 342 Q 407 332 415 322 Q 414 334 411 346 Q 408 359 405 371 Q 412 374 418 377 Q 425 381 431 384 Z M 107 80 Q 96 71 86 61 Q 76 52 66 43 Q 51 55 40 69 Q 29 82 21 100 Q 41 113 61 126 Q 81 140 101 153 Q 123 133 136 111 Q 132 106 127 101 Q 122 96 118 92 Q 110 96 101 100 Q 93 104 85 108 Q 85 107 84 107 Q 84 107 84 107 Q 90 101 95 94 Q 101 87 107 80 Z M 280 323 Q 269 332 258 341 Q 248 349 237 358 Q 251 384 271 402 Q 289 390 306 377 Q 323 364 339 350 Q 323 343 309 337 Q 294 330 280 323 Z M 364 216 Q 359 215 348 217 Q 336 219 324 222 Q 311 224 301 227 Q 290 230 287 232 Q 299 239 311 245 Q 323 252 334 258 Q 344 249 351 238 Q 358 227 364 216 Z M 250 122 Q 252 123 255 125 Q 258 126 260 125 Q 267 124 274 123 Q 281 121 287 120 V 119 Q 277 120 268 120 Q 259 120 250 121 Z M 147 108 Q 149 112 150 113 Q 151 113 154 115 Q 153 113 153 111 Q 152 110 152 108 H 149 H 149 Q 148 108 148 108 Q 147 108 147 108 Z" fill="black" />
  </g>
  <g class="defect" id="01">
    <path d="M 136 263 Q 126 208 149 152" fill="none" stroke="red" stroke-width="3" />
  </g>
  <g class="defect" id="02">
    <path d="M 64 221 Q 83 238 64 221" fill="none" stroke="red" stroke-width="3" />
  </g>
</svg>