<svg xmlns="http://www.w3.org/2000/svg" width="512" height="512" viewBox="0 0 512 512">
  <g class="glyph">
    <path d="M 230 173 Q 231 172 231 171 Q 231 170 232 169 Q 243 143 255 118 Q 266 93 278 68 Q 281 61 284 54 Q 287 47 290 40 Q 292 38 292 36 Q 294 35 296 36 Q 298 37 300 37 Q 299 34 297 34 Q 296 33 294 32 Q 295 30 297 26 Q 299 21 301 16 Q 304 11 306 6 Q 308 2 310 1 Q 311 0 314 1 Q 323 3 331 6 Q 339 9 346 13 Q 364 22 380 36 Q 383 39 383 41 H 390 Q 409 40 427 45 Q 452 51 469 66 Q 471 68 473 69 Q 472 70 472 71 Q 472 71 472 72 Q 473 73 474 73 Q 474 73 475 73 Q 479 76 482 80 Q 486 83 490 87 Q 489 88 489 89 Q 488 90 487 92 Q 489 91 490 91 Q 492 91 493 90 Q 494 92 495 92 Q 495 93 496 94 Q 512 117 511 142 Q 511 157 507 170 Q 502 183 493 194 Q 486 204 478 212 Q 470 220 461 227 Q 451 236 440 243 Q 430 251 418 258 Q 417 259 416 260 Q 415 261 413 262 Q 415 263 419 263 Q 431 266 443 272 Q 454 278 462 288 Q 466 292 469 295 Q 473 298 476 301 Q 481 305 485 311 Q 484 313 481 315 Q 482 318 482 318 Q 482 319 483 319 Q 483 319 483 320 Q 485 320 486 319 Q 488 318 490 318 Q 491 319 492 320 Q 492 321 493 322 Q 499 331 502 340 Q 504 349 507 359 Q 511 387 508 413 Q 507 427 503 441 Q 500 455 496 469 V 472 Q 486 472 476 470 Q 472 469 467 469 Q 462 468 458 467 Q 457 470 458 473 Q 459 476 458 480 Q 457 481 456 481 Q 445 484 434 487 Q 423 490 411 493 Q 402 495 392 496 Q 383 497 374 497 Q 371 497 369 497 Q 367 497 364 497 Q 363 493 364 489 Q 364 485 363 481 Q 376 481 359 480 Q 357 484 356 488 Q 354 492 352 496 Q 336 493 325 487 Q 309 479 299 466 Q 298 465 297 464 Q 296 462 294 462 Q 272 444 265 416 Q 263 410 262 403 Q 261 396 259 389 Q 259 388 258 386 Q 256 405 253 423 Q 250 442 246 460 Q 241 461 236 460 Q 232 459 227 460 Q 227 462 228 465 Q 229 468 228 472 Q 227 472 225 474 Q 215 478 205 481 Q 194 485 184 487 Q 173 489 162 491 Q 152 492 141 493 Q 114 494 89 487 Q 71 481 57 468 Q 56 467 56 466 Q 55 465 55 462 Q 51 460 47 456 Q 43 453 38 448 Q 39 445 39 444 Q 39 443 36 438 Q 34 438 31 440 Q 30 439 30 439 Q 30 438 29 438 Q 20 425 15 409 Q 8 391 5 371 Q 3 359 2 348 Q 2 336 1 325 Q 1 319 0 314 Q 0 309 1 303 Q 1 299 1 295 Q 1 292 1 288 Q 2 270 3 253 Q 4 236 6 219 Q 9 204 10 189 Q 12 174 15 160 Q 15 159 15 157 Q 15 156 15 155 Q 20 154 25 154 Q 31 153 35 154 Q 36 156 37 158 Q 38 155 39 152 Q 39 149 41 146 Q 43 145 44 145 Q 46 146 47 146 Q 50 147 53 147 Q 56 147 59 148 Q 62 149 65 146 Q 66 143 65 140 Q 65 136 65 132 Q 65 129 65 125 Q 65 122 64 118 H 59 H 36 H 30 Q 29 114 28 109 Q 27 105 26 100 H 12 Q 12 99 12 98 Q 12 97 11 96 Q 9 87 8 78 Q 8 69 8 60 Q 8 51 9 41 Q 10 32 12 22 L 14 17 Q 15 17 19 17 Q 22 17 26 17 Q 30 18 34 18 Q 38 18 39 19 Q 39 20 40 22 Q 40 24 40 26 Q 42 24 42 22 Q 43 20 44 19 Q 45 18 47 19 Q 48 19 50 19 Q 64 20 78 21 Q 91 22 105 23 Q 117 24 129 24 Q 142 25 154 26 Q 165 27 175 28 Q 186 29 197 30 Q 204 31 211 31 Q 218 32 225 33 Q 229 33 232 33 Q 233 37 233 41 Q 233 45 234 49 Q 240 50 242 50 Q 244 51 246 51 Q 247 51 249 51 Q 250 54 250 59 Q 251 64 251 69 Q 251 75 251 81 Q 250 87 250 92 Q 246 93 243 93 Q 239 93 235 94 Q 236 96 239 96 Q 241 96 241 96 Q 242 100 241 105 Q 240 111 238 116 Q 237 116 236 117 Q 235 117 234 117 H 212 Q 211 117 209 117 Q 208 116 206 117 Q 205 124 205 131 Q 205 138 205 145 Q 206 146 208 148 Q 209 150 211 151 Q 218 159 226 166 Q 227 169 228 170 Q 229 172 230 173 Q 233 175 235 179 Q 239 185 243 192 Q 249 202 252 213 Q 255 223 258 234 Q 258 236 258 238 Q 258 240 259 241 Q 263 240 273 234 Q 284 228 298 220 Q 299 219 300 219 Q 300 219 301 218 Q 294 215 287 212 Q 280 209 273 206 Q 266 202 260 198 Q 254 194 248 190 Q 248 187 249 185 Q 245 182 241 179 Q 237 177 233 174 Q 232 174 232 174 Q 232 173 232 173 Z M 340 114 Q 343 117 344 120 Q 346 123 348 125 Q 352 124 356 123 Q 359 122 362 121 Q 373 117 383 116 Q 393 114 404 115 Q 408 115 411 116 Q 415 116 419 118 Q 425 121 424 129 Q 423 131 422 133 Q 421 135 419 137 Q 415 144 408 151 Q 403 157 397 162 Q 391 167 385 172 Q 370 184 354 194 Q 339 205 322 214 Q 307 224 291 233 Q 276 242 259 250 Q 258 251 257 252 Q 256 253 255 254 Q 257 262 263 276 Q 269 290 276 299 L 278 301 Q 280 300 284 299 Q 288 297 292 294 Q 296 292 299 291 Q 303 289 304 288 V 284 Q 305 284 306 283 Q 307 283 308 282 Q 314 279 321 277 Q 327 275 333 272 Q 337 272 341 269 Q 352 263 362 257 Q 371 251 382 246 Q 396 237 409 228 Q 422 219 435 208 Q 444 201 453 192 Q 462 184 469 174 Q 476 164 481 152 Q 486 141 487 128 Q 488 104 475 85 Q 474 85 474 84 Q 473 84 473 83 Q 471 84 470 85 Q 468 85 467 86 Q 459 90 452 94 Q 445 98 437 102 Q 436 102 436 103 Q 435 103 434 102 Q 438 99 441 95 Q 445 92 448 87 Q 452 83 455 80 Q 458 76 462 72 Q 461 71 460 71 Q 459 69 458 69 Q 447 60 433 56 Q 419 50 406 49 Q 392 48 377 50 Z M 63 411 Q 63 412 63 412 Q 64 412 64 412 Q 62 415 61 418 Q 59 421 58 424 Q 56 427 54 430 Q 53 433 52 436 Q 51 439 49 441 Q 47 444 46 447 L 48 450 Q 58 458 68 461 Q 78 465 87 467 Q 96 468 106 468 Q 120 469 132 468 Q 145 467 158 464 Q 168 462 178 459 Q 188 457 198 452 Q 199 452 202 450 Q 202 446 200 440 Q 198 434 195 428 Q 192 422 189 416 Q 186 410 184 408 Q 183 408 182 408 Q 181 408 180 409 Q 147 420 112 418 Q 102 418 91 416 Q 80 412 74 402 Q 71 398 69 394 Q 68 390 66 386 Q 64 375 62 365 Q 61 355 60 344 Q 60 336 60 329 Q 60 322 60 315 Q 61 303 61 290 Q 62 278 64 266 Q 65 245 68 225 Q 70 213 72 200 Q 74 187 76 175 Q 76 172 77 170 Q 77 167 78 164 Q 72 161 61 158 Q 51 155 45 155 Q 45 156 44 157 Q 44 159 44 160 Q 41 169 38 178 Q 36 187 33 196 Q 33 198 32 197 Q 31 193 31 188 Q 31 184 30 180 Q 30 176 30 171 Q 30 167 29 163 Q 26 162 22 163 Q 21 165 21 166 Q 21 168 20 170 Q 18 185 16 200 Q 15 215 12 230 Q 11 244 10 259 Q 9 273 8 288 Q 8 307 8 325 Q 8 344 10 363 Q 12 374 14 385 Q 16 395 20 406 Q 23 412 25 418 Q 27 424 31 429 Q 32 431 33 431 Q 47 422 63 411 Z M 87 211 Q 89 210 91 209 Q 95 207 99 205 Q 103 202 107 201 Q 124 193 139 192 Q 143 192 147 192 Q 151 192 156 192 Q 166 195 171 201 Q 172 204 174 206 Q 175 208 176 211 Q 179 217 181 226 Q 184 236 185 246 Q 187 256 187 266 Q 188 286 189 305 Q 189 324 188 343 Q 187 352 186 360 Q 186 368 185 376 Q 184 381 184 386 Q 183 391 183 396 Q 183 398 183 398 H 187 Q 193 406 197 415 Q 201 424 206 433 Q 210 434 215 434 Q 219 435 222 434 V 433 Q 226 417 229 402 Q 231 387 233 371 Q 235 359 236 346 Q 237 334 238 322 Q 239 303 239 283 Q 240 264 238 245 Q 237 236 236 228 Q 235 220 232 211 Q 227 188 215 170 Q 197 142 167 136 Q 148 131 127 134 Q 99 138 74 150 Q 73 150 73 150 Q 73 151 72 151 Q 75 153 79 155 Q 83 156 86 158 Q 85 162 85 165 Q 85 168 84 171 Q 83 178 82 184 Q 80 190 79 197 Q 79 199 80 201 Q 82 206 87 211 Z M 458 294 Q 455 291 453 289 Q 451 287 448 285 Q 438 277 427 273 Q 415 270 402 269 Q 387 268 373 270 Q 357 272 343 276 Q 329 280 315 286 Q 314 287 312 288 Q 313 294 316 303 Q 320 311 324 320 Q 329 329 334 337 Q 339 345 343 348 Q 345 348 345 348 Q 346 347 347 347 Q 366 338 387 334 Q 396 332 404 333 Q 413 334 417 341 Q 420 348 423 356 Q 425 366 426 375 Q 426 384 426 394 Q 425 403 424 413 Q 423 422 420 431 Q 420 433 420 436 Q 421 437 422 437 Q 423 437 424 438 Q 427 439 431 440 Q 435 441 439 443 Q 445 445 452 446 Q 458 447 465 448 Q 450 439 472 448 Q 473 445 473 443 Q 475 437 476 430 Q 478 424 479 418 Q 487 382 482 349 Q 479 331 471 314 Q 471 313 469 311 Q 458 315 447 320 Q 437 325 425 329 Q 428 325 431 322 Q 433 320 436 317 Q 438 314 441 312 Q 444 309 446 306 Q 449 303 452 300 Q 454 297 458 294 Z M 432 458 Q 432 455 432 454 Q 432 452 431 450 Q 431 447 429 447 L 425 445 Q 422 444 419 443 Q 415 441 412 440 Q 412 438 412 435 Q 413 429 415 423 Q 416 417 417 411 Q 417 410 417 409 Q 417 409 417 407 Q 415 407 415 408 Q 405 410 396 412 Q 386 414 376 415 Q 366 416 356 416 Q 353 416 350 415 Q 347 415 343 413 Q 335 410 333 403 Q 332 400 332 397 Q 331 395 331 391 Q 329 382 330 372 Q 331 363 333 353 Q 334 352 334 350 Q 334 348 332 347 Q 327 340 323 332 Q 318 325 314 317 Q 314 314 311 314 Q 295 309 278 307 Q 276 307 276 308 Q 275 311 274 313 Q 274 315 273 318 Q 263 351 266 387 Q 267 396 269 404 Q 270 413 273 421 Q 288 459 327 470 Q 328 471 328 470 Q 329 470 330 470 Q 331 469 331 468 Q 331 467 332 466 Q 335 458 338 451 Q 341 443 344 436 Q 345 432 346 432 Q 349 437 351 441 Q 353 446 353 452 V 469 V 473 Q 359 474 369 473 Q 379 472 391 469 Q 396 468 402 467 Q 409 465 415 464 Q 421 462 426 460 Q 431 459 432 458 Z M 47 28 Q 46 30 45 33 Q 43 39 41 45 Q 39 51 37 57 Q 36 58 36 58 Q 36 59 34 59 Q 34 57 34 54 Q 33 51 33 48 Q 32 46 32 43 Q 32 40 32 38 Q 31 35 31 32 Q 31 29 30 26 H 24 Q 22 26 20 26 Q 19 26 18 26 Q 16 32 15 42 Q 13 51 13 61 Q 13 72 14 80 Q 15 89 17 94 H 21 Q 45 94 69 93 Q 93 93 117 93 H 206 H 210 Q 211 93 212 93 Q 213 93 214 93 Q 214 91 214 89 Q 215 88 215 86 Q 204 83 194 80 Q 183 78 172 74 Q 176 73 176 73 Q 179 73 183 73 Q 186 73 190 72 Q 197 71 204 71 Q 212 71 219 69 Q 223 69 225 68 Q 226 62 226 55 Q 226 48 225 42 Q 223 41 223 41 Q 179 37 136 33 Q 94 30 50 27 Q 49 28 47 28 Z M 370 38 Q 363 32 356 27 Q 349 23 341 18 Q 330 13 317 9 H 314 Q 311 13 309 18 Q 307 23 304 29 Q 308 31 311 33 Q 314 34 318 37 Q 325 41 332 44 Q 323 46 338 48 Q 342 50 346 53 H 343 Q 333 50 322 48 Q 311 46 301 44 H 297 Q 297 44 296 46 Q 282 77 268 107 Q 255 136 241 167 Q 241 169 240 170 Q 241 170 241 170 Q 241 171 241 171 Q 261 185 285 193 Q 285 193 287 193 Q 287 192 287 192 Q 308 155 329 117 Q 350 80 373 43 Q 373 43 374 41 Z M 68 344 Q 67 348 68 354 Q 68 360 69 366 Q 70 373 72 379 Q 73 385 75 388 Q 78 389 90 389 Q 103 389 118 388 Q 132 388 145 387 Q 158 387 162 386 Q 163 382 162 378 Q 160 378 157 377 L 128 370 Q 127 370 127 369 Q 132 368 138 368 Q 143 368 149 367 Q 154 366 159 366 Q 165 366 171 364 Q 172 359 170 349 Q 169 339 166 334 H 164 Q 140 337 116 339 Q 92 342 68 344 Z M 136 211 Q 135 227 135 243 Q 135 259 135 276 Q 135 278 135 280 Q 135 282 136 285 Q 139 303 156 306 Q 162 308 167 308 Q 173 308 179 308 Q 179 308 181 307 Q 182 303 182 300 Q 181 296 181 293 Q 181 289 181 286 Q 181 283 181 279 Q 180 275 181 272 Q 181 269 180 265 Q 176 265 171 266 Q 167 267 163 264 Q 164 259 164 254 Q 164 249 164 244 Q 165 236 166 228 Q 166 220 166 212 Q 166 208 164 207 Q 161 202 155 201 Q 146 198 136 200 Z M 82 219 Q 83 241 84 262 Q 85 283 86 304 V 305 Q 86 306 86 306 Q 91 308 99 308 Q 106 307 111 305 Q 112 304 112 303 Q 111 301 111 299 V 240 V 211 Q 111 210 112 209 Q 112 208 111 207 Q 104 209 98 213 Q 92 216 86 220 Q 85 219 84 219 Q 83 218 82 217 Z M 416 357 Q 415 357 413 357 Q 412 357 411 357 Q 405 358 400 359 Q 395 360 390 362 Q 374 367 357 376 Q 355 385 355 394 Q 355 403 356 408 Q 357 408 357 408 Q 357 408 359 408 Q 371 409 384 406 Q 391 405 398 403 Q 405 402 413 400 Q 415 400 418 399 Q 418 396 419 390 Q 419 385 419 379 Q 419 373 418 367 Q 417 362 416 357 Z M 327 202 Q 330 201 336 197 Q 341 193 348 189 Q 354 185 361 180 Q 368 175 372 172 Q 373 171 373 170 Q 374 170 375 169 Q 373 165 370 164 H 370 Q 369 164 369 164 Q 369 165 369 165 Q 365 167 362 169 Q 358 172 354 174 Q 349 178 344 181 Q 339 184 334 187 H 333 H 333 H 332 Q 334 185 336 182 Q 339 179 341 176 Q 344 173 346 171 Q 348 168 351 165 Q 354 163 356 160 Q 358 157 361 155 Q 358 151 353 146 Q 348 142 346 141 Q 334 151 324 162 Q 314 173 308 187 Q 312 193 327 202 Z M 111 129 Q 111 127 111 123 Q 111 119 111 114 Q 111 110 111 106 Q 111 102 111 101 Q 108 100 106 100 Q 103 101 101 101 H 90 H 80 Q 77 101 75 100 Q 72 100 70 101 Q 69 103 69 110 Q 69 116 70 122 Q 71 129 71 135 Q 72 142 72 143 L 85 138 Q 88 137 92 136 Q 95 135 97 134 Q 101 132 104 132 Q 107 131 111 129 Z M 137 101 Q 137 102 137 106 Q 137 109 137 113 Q 137 117 137 121 Q 137 124 137 126 Q 141 127 144 127 Q 147 127 151 127 Q 154 127 157 127 Q 160 128 164 128 Q 167 129 170 130 Q 173 130 177 131 Q 177 130 177 125 Q 178 121 178 116 Q 179 111 179 107 Q 179 102 178 101 Q 178 101 177 100 Q 177 100 176 100 Q 165 100 156 100 Q 146 100 137 101 Z M 382 164 Q 388 158 394 153 Q 401 148 406 142 V 140 Q 395 141 386 143 Q 378 146 374 147 Q 370 149 368 151 Q 375 159 382 164 Z M 133 330 Q 134 330 134 330 Q 134 331 135 331 H 135 Q 141 329 146 329 Q 151 328 156 328 Q 157 328 157 328 Q 158 328 159 328 Q 159 328 159 327 V 326 Q 153 321 150 314 Q 150 313 148 312 Q 145 311 143 310 Q 142 308 140 307 Q 139 306 138 306 Q 138 305 137 305 Q 136 311 136 317 Q 137 322 136 328 Q 135 328 133 330 Z M 95 315 Q 93 315 91 315 Q 89 314 88 314 Q 87 314 86 315 Q 86 315 85 315 Q 85 320 85 324 Q 85 329 85 333 Q 85 334 86 335 Q 91 334 97 334 Q 102 333 108 333 Q 106 331 102 331 Q 99 331 96 329 Q 96 326 96 322 Q 95 319 95 315 Z M 263 324 Q 265 322 265 319 Q 266 317 267 314 Q 268 311 268 308 Q 269 303 269 302 Q 269 301 266 297 Q 265 296 265 295 Q 265 294 263 293 Q 263 301 263 309 Q 263 317 263 324 Z M 174 334 Q 176 337 176 339 Q 176 342 177 345 H 180 Q 182 340 181 335 Q 179 334 178 334 Q 177 334 174 334 Z M 313 211 Q 315 209 316 209 Q 317 209 316 206 Q 315 207 314 208 Q 314 209 313 211 Z" fill="black" />
  </g>
  <g class="defect" id="01">
    <path d="M 332 44 Q 323 46 338 48" fill="none" stroke="red" stroke-width="3" />
  </g>
  <g class="defect" id="02">
    <path d="M 363 481 Q 376 481 359 480" fill="none" stroke="red" stroke-width="3" />
  </g>
  <g class="defect" id="03">
    <path d="M 465 448 Q 450 439 472 448" fill="none" stroke="red" stroke-width="3" />
  </g>
</svg>