<svg xmlns="http://www.w3.org/2000/svg" width="512" height="512" viewBox="0 0 512 512">
  <g class="glyph">
    <path d="M 106 0 Q 111 3 116 6 Q 121 9 125 11 Q 131 8 136 4 Q 140 6 148 14 Q 157 21 166 31 Q 176 40 184 49 Q 192 59 196 65 Q 195 66 194 67 Q 194 68 193 70 Q 205 77 218 85 Q 231 92 244 99 Q 243 101 243 103 Q 243 104 242 106 Q 247 109 251 112 Q 256 114 261 118 Q 261 120 261 122 Q 260 124 259 126 Q 259 129 258 131 Q 257 133 256 136 Q 272 137 287 137 Q 302 138 318 138 Q 317 109 316 79 Q 314 50 313 21 Q 334 15 356 14 Q 377 14 399 18 V 33 Q 403 34 407 35 Q 412 35 416 36 V 92 Q 413 94 410 96 Q 407 97 404 99 Q 404 100 405 100 Q 407 100 410 100 Q 413 99 416 99 Q 417 103 417 106 Q 417 110 417 113 V 126 V 141 Q 430 141 442 141 Q 437 142 467 142 Q 468 146 469 151 Q 470 155 471 160 H 485 Q 489 177 489 194 Q 489 211 486 228 Q 469 230 453 230 Q 436 231 419 232 Q 419 233 419 243 Q 419 253 418 269 Q 418 284 418 302 Q 419 320 419 335 Q 419 351 419 362 Q 419 373 419 375 H 489 Q 490 378 490 379 Q 490 381 491 383 Q 491 386 492 388 Q 493 390 493 393 H 506 Q 508 397 510 406 Q 511 414 511 425 Q 512 435 511 445 Q 511 455 509 462 Q 491 463 472 464 Q 454 466 435 467 Q 434 463 434 459 Q 434 455 433 450 Q 430 455 429 459 Q 428 463 426 468 Q 387 470 348 473 Q 309 476 270 479 Q 268 474 267 470 Q 265 466 264 460 Q 261 460 258 460 Q 255 461 252 461 Q 251 460 251 458 Q 251 457 250 455 Q 209 463 169 471 Q 129 479 87 487 Q 86 484 85 481 Q 83 478 82 475 Q 80 479 81 481 Q 81 484 80 488 Q 75 489 69 490 Q 64 491 58 493 Q 56 488 54 483 Q 52 479 50 473 Q 48 474 45 474 Q 43 474 40 475 Q 37 468 35 462 Q 32 455 31 448 Q 28 437 28 426 Q 27 414 28 403 Q 29 400 29 399 Q 30 399 33 399 Q 38 398 43 397 Q 49 396 55 396 Q 44 385 34 375 Q 24 365 15 354 Q 3 324 32 335 Q 42 326 53 319 V 318 Q 51 318 48 318 Q 45 318 42 319 Q 33 298 33 272 Q 31 272 29 272 Q 27 272 24 272 Q 24 264 25 257 Q 25 251 26 243 Q 43 242 58 241 Q 74 241 90 240 Q 82 239 73 239 Q 65 240 57 240 Q 55 235 54 231 Q 53 226 52 222 H 39 Q 38 219 38 216 Q 37 213 36 211 Q 35 203 34 194 Q 33 186 34 178 Q 34 171 31 169 Q 25 163 20 157 Q 15 152 9 147 Q 7 144 5 142 Q 3 139 0 136 Q 25 101 52 68 Q 79 34 106 0 Z M 321 30 Q 321 42 322 54 Q 322 65 323 77 Q 324 98 325 120 Q 325 141 326 161 Q 327 178 328 194 Q 328 210 329 226 Q 330 248 331 269 Q 332 290 333 311 Q 334 326 334 341 Q 335 355 335 370 V 374 H 392 Q 392 302 392 232 Q 392 161 391 89 Q 377 91 364 93 Q 351 95 338 97 Q 351 89 364 83 Q 378 77 390 70 V 24 Q 373 21 356 21 Q 339 22 321 26 Z M 418 402 Q 419 412 420 421 Q 421 431 422 441 Q 438 440 453 439 Q 469 437 483 436 Q 484 431 485 423 Q 486 416 485 408 Q 484 400 484 393 Q 483 386 481 382 H 475 Q 460 382 445 382 Q 430 382 414 382 Q 379 382 344 383 Q 309 383 274 383 Q 268 383 263 383 Q 258 383 253 383 Q 250 401 250 418 Q 250 435 255 453 Q 260 453 263 453 Q 267 453 271 452 Q 287 451 304 450 Q 320 448 336 447 Q 352 446 367 445 Q 382 444 398 443 Q 401 443 403 439 L 408 426 Q 410 420 413 414 Q 415 408 417 402 Z M 244 158 Q 242 162 240 165 Q 238 169 235 171 Q 233 174 234 177 Q 237 202 233 225 Q 233 227 232 230 Q 230 231 228 231 Q 227 231 225 231 Q 226 236 227 240 Q 228 245 230 250 H 243 Q 252 279 248 312 Q 241 313 235 313 Q 229 314 223 315 Q 232 326 243 335 Q 253 345 260 358 Q 257 361 253 364 Q 250 367 246 370 Q 244 369 242 367 Q 240 366 238 364 Q 239 368 240 370 Q 240 372 241 374 Q 238 377 235 380 Q 232 383 229 386 Q 230 391 231 393 Q 234 394 238 393 Q 241 392 244 393 Q 245 389 245 385 Q 246 381 247 376 Q 267 375 287 376 Q 307 376 328 375 Q 326 340 325 306 Q 324 271 322 237 Q 308 238 295 238 Q 281 238 267 239 Q 266 234 265 230 Q 264 225 263 221 H 250 Q 245 205 244 190 Q 243 174 244 158 Z M 48 171 Q 78 139 109 108 Q 139 77 170 46 Q 162 37 154 28 Q 146 20 137 12 Q 125 22 114 30 Q 103 38 92 46 H 92 Q 92 46 91 46 Q 97 38 103 30 Q 109 22 114 13 Q 112 11 109 10 L 7 135 Q 16 146 25 154 Q 35 163 48 171 Z M 220 382 Q 173 388 127 393 Q 80 399 33 405 Q 32 420 35 436 Q 37 451 43 466 Q 45 465 48 465 Q 51 465 53 464 Q 54 455 55 445 Q 55 436 56 427 H 56 Q 60 435 64 444 Q 68 452 72 460 Q 111 453 149 445 Q 188 438 227 430 Q 227 405 220 382 Z M 106 388 Q 119 387 132 385 Q 144 383 157 382 V 376 Q 157 347 156 318 Q 156 290 156 261 Q 156 251 156 240 Q 156 230 156 220 Q 156 219 155 218 Q 155 217 155 215 Q 140 217 125 217 Q 110 218 95 218 Z M 208 158 Q 207 158 206 157 Q 205 157 204 157 Q 193 157 182 156 Q 171 156 159 156 Q 139 154 119 154 Q 99 153 79 152 Q 76 152 72 156 Q 69 159 66 163 Q 62 166 58 170 Q 56 172 53 175 Q 51 178 48 180 Q 45 179 43 177 Q 41 176 38 175 Q 37 185 38 194 Q 39 204 42 213 Q 84 211 125 209 Q 166 207 208 206 Q 211 193 211 179 Q 211 165 208 158 Z M 128 111 Q 150 120 171 129 Q 192 137 213 146 Q 228 126 235 103 Q 218 92 200 82 Q 183 71 165 60 Q 159 67 153 73 Q 146 80 140 86 Q 134 92 133 98 Q 131 104 128 111 Z M 255 143 Q 270 144 251 178 Q 251 196 255 213 Q 272 212 288 211 Q 305 211 321 210 Q 320 193 320 177 Q 320 161 319 145 Z M 399 206 Q 415 205 430 205 Q 445 204 461 203 Q 461 201 461 198 Q 463 187 463 176 Q 462 165 461 153 Q 460 150 459 149 Q 459 149 454 149 Q 443 148 432 148 Q 421 147 410 147 H 398 Q 399 163 399 177 Q 399 192 399 206 Z M 163 242 Q 164 255 163 268 Q 163 281 164 295 Q 179 293 194 291 Q 209 289 224 287 Q 226 264 220 239 Z M 93 304 Q 92 289 91 274 Q 90 260 89 246 Q 74 247 59 247 Q 45 248 30 249 Q 30 253 30 257 Q 30 260 29 264 Q 43 265 57 265 Q 70 266 84 267 V 267 Q 72 270 61 273 Q 50 275 38 278 Q 38 287 40 294 Q 41 302 44 309 Q 56 308 68 306 Q 80 305 93 304 Z M 65 319 Q 60 321 54 325 Q 48 329 41 334 Q 35 339 30 344 Q 25 349 23 353 Q 32 363 42 373 Q 51 382 60 392 Q 64 390 69 388 Q 74 385 79 381 Q 83 378 87 373 Q 91 369 94 366 Q 87 355 80 343 Q 73 332 65 319 Z M 193 302 Q 192 303 192 304 Q 191 305 190 306 Q 186 312 181 318 Q 176 324 172 330 Q 169 334 167 336 Q 166 339 165 341 Q 164 342 164 345 Q 164 348 164 353 Q 164 358 167 360 Q 172 364 176 368 Q 181 371 185 375 Q 187 376 189 378 Q 196 372 202 366 Q 208 360 215 354 Q 212 347 210 341 Q 207 334 204 327 H 205 Q 211 331 217 335 Q 223 339 228 343 Q 231 340 233 339 Q 224 327 215 318 Q 205 309 193 302 Z M 117 146 Q 123 147 131 147 Q 140 148 148 148 Q 157 148 163 148 Q 170 148 172 147 Q 163 144 154 140 Q 146 137 138 133 Q 138 131 139 129 Q 139 126 140 124 Q 138 125 138 125 Q 137 126 136 126 Q 131 131 127 136 Q 122 141 117 146 Z M 95 331 Q 93 332 89 332 Q 91 339 96 342 Q 96 339 95 336 Q 95 334 95 331 Z" fill="black" />
  </g>
  <g class="defect" id="01">
    <path d="M 255 143 Q 270 144 251 178" fill="none" stroke="red" stroke-width="3" />
  </g>
  <g class="defect" id="02">
    <path d="M 442 141 Q 437 142 467 142" fill="none" stroke="red" stroke-width="3" />
  </g>
  <g class="defect" id="03">
    <path d="M 15 354 Q 3 324 32 335" fill="none" stroke="red" stroke-width="3" />
  </g>
</svg>