<svg xmlns="http://www.w3.org/2000/svg" width="512" height="512" viewBox="0 0 512 512">
  <g class="glyph">
    <path d="M 489 221 Q 487 235 486 244 Q 484 253 483 260 Q 482 267 480 273 Q 478 280 476 288 Q 473 295 471 302 Q 469 309 467 316 Q 466 316 466 319 Q 460 318 456 317 Q 452 315 446 314 V 323 Q 441 325 436 327 Q 436 327 436 327 H 462 Q 463 330 463 334 Q 464 337 465 340 Q 464 341 460 344 H 479 Q 479 348 480 350 Q 481 353 481 357 Q 478 360 473 363 Q 469 365 465 368 Q 470 370 474 369 Q 478 368 482 369 Q 483 375 483 385 Q 482 396 481 403 Q 472 404 463 405 Q 454 405 445 406 Q 445 406 445 407 Q 445 408 446 408 Q 446 409 446 410 Q 457 424 467 438 Q 478 452 488 466 Q 479 478 468 488 Q 457 497 444 505 Q 431 492 417 479 Q 403 467 390 453 Q 389 460 389 467 Q 390 473 389 480 V 507 Q 384 508 379 509 Q 374 510 368 510 Q 367 506 367 501 Q 367 497 367 493 Q 364 492 363 495 Q 362 498 362 502 Q 361 505 360 508 Q 360 510 360 511 Q 354 512 346 512 Q 337 511 330 509 Q 330 506 330 502 Q 329 499 329 495 Q 325 494 321 494 Q 317 494 313 493 Q 313 488 312 482 Q 312 477 311 470 Q 301 479 291 489 Q 282 498 272 507 Q 267 503 261 500 Q 247 490 237 478 Q 234 476 232 473 Q 229 471 227 469 Q 223 465 220 467 Q 206 470 191 473 Q 177 476 162 479 Q 143 483 123 487 Q 103 491 83 495 H 80 Q 79 493 77 491 Q 76 488 74 485 Q 74 489 74 491 Q 74 494 73 497 Q 68 498 63 499 Q 59 500 54 501 Q 51 497 50 492 Q 48 488 46 482 Q 44 483 42 483 Q 40 484 37 484 Q 34 480 31 471 Q 29 462 27 452 Q 25 441 25 431 Q 25 420 27 412 Q 32 412 37 411 Q 43 410 49 409 Q 40 399 31 389 Q 22 380 14 370 Q 21 359 30 351 Q 34 347 39 343 Q 44 340 48 336 Q 46 335 43 335 Q 41 336 37 336 Q 33 326 31 315 Q 30 304 29 292 Q 28 292 22 291 Q 21 284 22 278 Q 23 272 24 265 Q 31 264 38 264 Q 45 263 52 263 Q 59 263 66 262 Q 72 262 80 261 V 260 Q 72 261 66 261 Q 59 261 52 261 Q 50 257 50 253 Q 49 249 48 245 H 35 Q 33 239 32 234 Q 29 218 31 201 Q 31 198 30 196 Q 29 194 27 191 Q 21 187 17 182 Q 12 177 7 172 Q 5 170 4 167 Q 2 165 0 162 Q 24 131 48 99 Q 71 67 96 35 Q 100 37 104 40 Q 108 43 112 46 Q 115 44 117 42 Q 120 41 122 39 Q 125 41 133 48 Q 141 55 149 64 Q 158 73 165 82 Q 173 91 176 97 Q 174 98 173 101 Q 183 108 193 114 Q 203 121 214 127 Q 215 121 217 116 Q 218 110 220 104 H 233 Q 227 92 223 80 Q 220 68 218 55 Q 233 49 247 43 Q 261 38 276 32 Q 276 35 277 37 Q 277 39 278 42 L 280 31 Q 285 29 290 27 Q 295 25 300 23 Q 315 18 329 12 Q 343 7 359 2 Q 360 2 360 1 Q 361 1 362 0 H 363 Q 364 3 366 5 Q 367 7 368 10 Q 369 12 370 15 Q 372 17 373 19 Q 374 19 375 19 Q 375 19 376 19 Q 377 18 378 18 Q 378 18 379 18 Q 390 34 395 51 Q 400 69 401 87 Q 401 87 401 88 Q 402 88 403 88 Q 404 88 405 89 Q 418 93 427 98 Q 437 103 449 114 Q 450 115 452 117 Q 454 119 456 121 Q 464 131 468 138 Q 472 145 477 155 Q 482 168 485 181 Q 487 194 488 209 Q 489 212 489 215 Q 489 217 489 221 Z M 407 263 Q 403 264 400 265 Q 397 266 394 267 Q 377 271 359 274 Q 342 277 324 276 Q 312 276 302 273 Q 291 271 280 265 Q 260 253 257 229 Q 256 219 257 209 Q 258 200 259 190 Q 261 182 263 173 Q 264 164 266 155 Q 267 151 266 150 Q 260 134 257 118 Q 241 112 226 112 Q 225 114 225 114 Q 221 132 217 149 Q 213 166 211 184 Q 210 198 209 212 Q 209 226 212 240 Q 222 293 271 311 Q 289 318 307 319 Q 326 321 345 318 Q 364 316 383 312 Q 402 308 420 302 Q 421 302 421 302 Q 422 302 423 301 Q 424 295 418 292 Q 414 291 409 289 Q 405 286 401 284 Q 403 279 404 274 Q 406 269 407 263 Z M 424 164 Q 424 164 424 163 Q 431 156 438 148 Q 445 141 452 134 Q 451 131 450 130 Q 449 128 447 126 Q 439 114 427 107 Q 416 99 403 95 Q 385 89 367 89 Q 367 71 331 92 Q 314 94 299 98 Q 283 103 267 108 Q 266 108 265 108 Q 264 109 263 109 Q 265 123 268 135 Q 272 147 279 159 Q 282 157 284 157 Q 299 151 314 147 Q 329 143 345 140 Q 355 139 365 139 Q 375 138 385 140 Q 412 143 419 170 Q 419 170 420 171 Q 424 184 424 196 Q 425 209 423 222 Q 421 236 418 249 Q 415 262 412 275 Q 411 276 411 278 Q 410 279 410 280 Q 419 285 428 289 Q 437 292 446 294 Q 446 293 447 291 Q 451 281 454 271 Q 457 261 460 250 Q 466 229 467 209 Q 468 188 464 166 Q 461 155 457 144 Q 449 149 440 154 Q 432 159 424 164 Z M 222 396 Q 282 392 341 388 Q 399 385 458 380 Q 459 376 459 370 Q 460 363 459 360 Q 450 360 441 360 Q 433 360 425 358 Q 426 357 428 356 Q 430 354 431 353 Q 437 350 443 346 Q 449 343 455 339 Q 456 338 457 337 Q 458 337 457 334 H 452 Q 436 335 420 335 Q 404 335 388 335 Q 372 336 354 336 Q 337 336 321 336 Q 297 336 273 336 Q 249 337 225 337 Q 221 337 219 338 Q 216 353 217 367 Q 217 381 222 396 Z M 152 80 Q 146 71 139 63 Q 132 55 123 47 Q 113 56 104 63 Q 95 71 85 79 Q 65 79 84 80 H 84 L 83 79 Q 88 71 93 63 Q 98 56 104 47 Q 103 47 101 46 Q 100 46 99 45 Q 77 74 55 104 Q 32 133 10 162 Q 12 167 17 172 Q 22 177 28 182 Q 33 187 38 191 Q 43 195 46 196 Q 72 167 99 138 Q 125 109 152 80 Z M 197 398 Q 156 403 115 408 Q 74 413 33 418 Q 32 433 34 448 Q 36 463 42 477 Q 44 476 46 476 Q 48 476 51 475 L 53 440 V 439 H 53 H 54 Q 58 447 61 455 Q 64 463 68 471 Q 102 464 136 457 Q 169 450 203 443 Q 203 431 202 420 Q 200 409 197 398 Z M 141 398 Q 141 396 141 395 Q 142 394 142 393 Q 141 378 141 363 Q 141 348 140 333 V 288 Q 140 277 140 266 Q 140 255 140 244 Q 140 243 140 242 Q 139 241 139 240 Q 133 240 126 241 Q 120 241 113 241 Q 107 242 100 242 Q 94 242 87 243 Q 90 284 92 323 Q 95 363 97 403 Q 109 402 119 400 Q 130 399 141 398 Z M 42 238 Q 78 236 114 234 Q 150 233 186 231 Q 188 219 188 208 Q 188 197 186 185 Q 183 185 179 185 Q 176 185 173 184 Q 148 183 123 182 Q 99 181 74 180 Q 70 180 68 183 Q 64 188 59 193 Q 55 198 50 203 Q 49 204 48 205 Q 48 206 47 207 Q 45 205 43 204 Q 41 202 39 201 Q 37 211 38 221 Q 39 232 42 238 Z M 360 10 Q 325 22 291 35 Q 288 36 287 40 Q 287 47 287 55 Q 287 62 286 69 V 75 Q 284 75 283 75 Q 281 75 279 75 Q 277 67 276 59 Q 274 51 272 42 Q 261 46 249 51 Q 238 56 227 60 Q 232 84 242 103 Q 277 93 311 84 Q 344 74 379 65 Q 378 58 376 50 Q 375 42 372 34 Q 370 27 367 20 Q 364 14 361 10 Z M 117 142 Q 154 158 190 174 Q 193 171 196 166 Q 199 161 201 155 Q 204 149 206 144 Q 209 138 210 133 Q 195 123 179 114 Q 163 104 148 94 Q 147 95 147 95 Q 147 96 146 97 Q 142 102 137 107 Q 133 112 127 117 Q 122 122 120 128 Q 119 134 117 142 Z M 374 427 Q 388 441 401 453 Q 415 466 429 479 Q 439 473 447 465 Q 455 458 463 449 Q 460 446 459 445 Q 451 433 441 420 Q 432 408 423 395 Q 423 394 420 392 Q 419 389 415 390 Q 414 390 413 392 Q 407 396 401 400 Q 396 404 390 409 Q 381 416 374 427 Z M 270 168 Q 268 175 267 183 Q 265 190 265 198 Q 296 198 327 197 Q 357 197 388 196 Q 389 187 389 178 Q 389 169 386 159 Q 357 161 328 163 Q 300 165 270 168 Z M 358 486 Q 359 486 360 486 Q 361 485 362 485 Q 363 485 365 484 Q 366 481 366 468 Q 366 454 366 438 Q 365 421 365 408 Q 365 395 364 393 Q 352 394 339 395 Q 326 396 313 396 Q 313 399 314 413 Q 315 426 316 442 Q 318 458 319 472 Q 321 485 321 487 Q 325 487 329 487 Q 333 487 337 487 Q 340 472 344 458 Q 348 444 352 431 H 353 Q 354 444 355 458 Q 356 472 358 486 Z M 304 434 Q 293 419 278 407 Q 274 403 270 401 Q 266 400 261 401 Q 256 402 254 405 Q 247 416 239 426 Q 231 437 223 448 Q 222 450 221 451 Q 224 455 228 460 Q 233 465 238 469 Q 244 473 248 477 Q 252 480 255 481 Q 268 469 280 458 Q 292 446 304 434 Z M 361 215 Q 336 217 312 219 Q 288 221 263 223 Q 264 231 266 237 Q 267 244 272 250 Q 275 252 278 252 Q 291 252 303 252 Q 316 252 328 251 Q 332 251 337 251 Q 341 251 346 250 Q 349 242 353 234 Q 356 225 361 215 Z M 200 308 Q 201 296 200 284 Q 199 273 197 262 Q 184 263 172 263 Q 160 264 148 265 Q 147 268 147 275 Q 147 283 147 291 Q 165 282 148 306 Q 148 313 149 314 Q 161 313 174 311 Q 187 310 200 308 Z M 30 285 Q 54 287 76 288 V 289 Q 67 291 57 294 Q 47 296 37 299 Q 37 306 39 314 Q 40 321 43 328 Q 53 327 64 325 Q 74 324 85 323 Q 85 309 84 295 Q 83 281 82 268 Q 69 269 56 270 Q 44 270 31 271 Q 30 275 30 278 Q 30 281 30 285 Z M 58 407 Q 67 402 73 396 Q 80 390 87 382 Q 80 371 74 360 Q 68 349 61 338 Q 37 350 23 369 Q 32 379 41 388 Q 49 398 58 407 Z M 173 321 Q 167 330 161 338 Q 155 347 149 356 Q 147 360 148 365 Q 148 370 149 374 Q 149 374 149 375 Q 153 380 158 384 Q 163 389 169 392 Q 175 387 181 381 Q 186 376 192 370 Q 189 364 187 357 Q 185 351 183 344 Q 183 344 183 344 Q 183 344 184 344 Q 193 352 204 360 Q 205 359 206 357 Q 207 356 208 355 Q 201 345 193 337 Q 184 328 173 321 Z M 222 284 Q 224 296 225 307 Q 225 318 224 330 H 273 Q 273 329 273 329 Q 272 328 271 328 Q 270 327 269 327 Q 255 319 246 308 Q 243 305 240 303 Q 238 300 235 297 Z M 387 251 Q 388 241 388 232 Q 388 223 386 214 Q 380 214 375 215 Q 369 215 365 215 Q 365 225 366 233 Q 366 242 367 251 Z M 394 220 Q 393 224 397 224 Q 400 224 402 224 Q 404 224 407 224 Q 409 229 410 234 Q 411 239 412 246 Q 412 245 412 245 Q 413 245 413 245 V 244 Q 415 231 417 218 Q 418 205 417 191 Q 416 186 415 181 Q 414 175 412 170 Q 412 166 410 166 Q 406 164 403 163 Q 399 162 395 163 Q 395 165 396 170 Q 400 169 402 169 Q 405 169 408 169 Q 413 182 413 194 Q 413 207 410 220 Z M 155 177 Q 155 176 155 176 Q 148 173 140 169 Q 133 166 125 162 Q 126 160 126 158 Q 126 157 127 154 Q 122 158 116 165 Q 110 172 108 175 Q 120 175 132 176 Q 143 176 155 177 Z M 213 393 Q 211 396 209 398 Q 207 399 205 401 Q 206 404 207 408 Q 210 407 212 407 Q 215 407 218 407 Q 220 413 221 419 Q 223 425 225 432 Q 226 431 227 430 Q 227 429 228 428 Q 235 421 231 412 Q 230 409 230 407 Q 229 405 229 403 Q 226 403 223 403 Q 220 403 217 403 Q 216 401 215 399 Q 214 396 213 393 Z M 308 325 Q 306 329 308 329 Q 310 329 311 329 Q 323 329 334 329 Q 345 329 357 328 H 365 V 323 Q 350 325 336 326 Q 322 327 308 325 Z M 202 254 Q 203 259 204 264 Q 205 268 206 272 Q 209 272 210 272 Q 212 272 215 272 Q 213 266 211 263 Q 210 259 208 254 Z M 200 334 Q 200 334 200 335 Q 202 338 205 340 Q 208 342 211 345 Q 212 341 212 338 Q 212 336 212 332 Q 204 333 200 334 Z M 307 416 Q 305 416 303 415 Q 301 415 299 416 Q 302 421 308 424 Q 308 422 308 420 Q 308 418 307 416 Z M 87 355 Q 87 354 87 352 Q 87 351 87 349 Q 86 349 83 350 Q 84 351 85 353 Q 85 354 86 355 Z M 375 259 Q 375 259 374 258 Q 373 259 373 260 Q 373 262 372 263 Q 375 263 375 263 Q 376 262 375 259 Z" fill="black" />
  </g>
  <g class="defect" id="01">
    <path d="M 85 79 Q 65 79 84 80" fill="none" stroke="red" stroke-width="3" />
  </g>
  <g class="defect" id="02">
    <path d="M 367 89 Q 367 71 331 92" fill="none" stroke="red" stroke-width="3" />
  </g>
  <g class="defect" id="03">
    <path d="M 147 291 Q 165 282 148 306" fill="none" stroke="red" stroke-width="3" />
  </g>
</svg>