<svg xmlns="http://www.w3.org/2000/svg" width="512" height="512" viewBox="0 0 512 512">
  <g class="glyph">
    <path d="M 272 50 Q 280 48 292 49 Q 303 49 315 51 Q 327 54 338 57 Q 349 61 356 64 Q 356 67 356 69 Q 356 71 355 74 Q 359 76 364 77 Q 368 79 373 81 Q 373 68 373 55 Q 372 42 372 30 Q 393 23 414 24 Q 435 24 457 29 V 43 Q 461 44 466 45 Q 470 46 475 47 Q 474 67 474 86 Q 474 104 474 124 Q 475 124 477 125 Q 478 125 480 125 Q 481 127 481 129 Q 481 130 482 133 Q 482 135 482 141 Q 486 142 490 142 Q 494 142 497 142 Q 500 147 500 157 Q 501 166 500 176 Q 500 186 498 196 Q 497 206 495 212 H 473 Q 473 213 473 215 Q 472 216 472 218 V 259 Q 472 265 468 267 Q 465 268 464 270 Q 462 271 460 273 Q 462 273 465 273 Q 469 272 472 271 V 279 V 366 Q 472 368 473 370 Q 473 372 475 373 Q 477 372 480 375 Q 501 399 512 432 Q 510 434 507 436 Q 500 440 492 444 Q 484 448 477 452 Q 472 455 473 458 Q 474 468 474 477 Q 474 487 474 496 V 502 Q 456 507 439 507 Q 422 507 405 504 Q 404 500 404 497 Q 404 493 403 489 Q 400 489 397 488 Q 394 488 391 488 Q 389 487 387 486 Q 386 485 386 482 Q 366 485 348 483 Q 329 481 312 471 Q 313 468 313 466 Q 314 464 314 462 Q 310 461 308 460 Q 306 462 302 465 Q 298 462 294 459 Q 291 455 287 451 Q 286 450 286 449 Q 285 448 284 447 Q 270 436 261 420 Q 252 405 248 387 Q 245 375 245 362 Q 244 350 244 338 Q 243 315 244 293 Q 245 272 247 250 Q 248 238 250 227 Q 251 215 252 204 Q 252 201 252 198 Q 251 195 251 192 H 236 Q 235 188 234 185 Q 234 182 233 179 Q 227 178 221 177 Q 215 176 209 175 Q 210 179 210 183 Q 211 187 211 191 Q 215 192 218 192 Q 222 192 226 192 Q 227 198 228 202 Q 228 207 229 212 Q 227 213 225 214 Q 223 214 220 215 Q 221 216 222 217 Q 223 217 224 218 Q 225 219 225 220 Q 225 221 225 222 Q 225 241 221 261 Q 213 263 204 263 Q 195 263 186 264 Q 185 270 183 274 Q 182 279 181 285 Q 189 285 198 284 Q 206 284 214 284 L 219 301 H 232 Q 242 334 238 370 L 169 380 Q 169 382 169 388 Q 168 393 168 399 Q 168 404 169 410 Q 169 415 169 417 Q 180 416 188 412 Q 196 408 206 403 Q 209 408 213 412 Q 216 417 220 422 Q 221 422 223 421 Q 224 421 225 422 Q 231 430 236 437 Q 241 444 246 451 Q 247 453 247 456 Q 245 457 243 459 Q 241 461 239 462 Q 244 467 245 472 Q 247 478 250 484 Q 246 487 242 488 Q 239 490 237 492 Q 228 497 220 501 Q 212 504 203 507 Q 186 511 169 509 Q 152 508 136 498 Q 127 492 118 483 Q 115 480 113 478 Q 110 475 107 472 Q 96 463 90 452 Q 84 440 81 426 Q 80 423 79 420 Q 78 416 77 412 Q 80 411 83 409 Q 85 408 88 407 V 406 Q 85 406 82 406 Q 80 405 77 405 Q 76 402 76 399 Q 76 397 75 394 Q 71 395 67 395 Q 62 395 57 396 Q 56 391 54 387 Q 53 382 51 377 Q 49 378 46 378 Q 43 378 40 378 Q 31 358 30 337 Q 29 316 32 293 Q 43 293 54 292 Q 65 292 76 291 Q 77 286 77 282 Q 77 278 78 273 V 271 Q 75 267 74 263 Q 74 258 73 254 Q 73 254 71 252 H 58 Q 57 248 57 244 Q 56 240 55 236 Q 54 232 54 227 Q 54 223 53 219 Q 53 215 50 214 Q 48 213 46 211 Q 44 210 41 208 Q 42 204 42 202 Q 42 202 41 202 Q 38 205 36 208 Q 33 211 30 214 Q 27 211 24 209 Q 21 206 17 204 Q 19 199 21 194 Q 23 189 25 185 L 24 184 Q 22 187 19 190 Q 16 193 13 196 Q 10 193 6 191 Q 3 188 0 185 Q 3 180 5 175 Q 8 170 10 166 Q 12 161 15 157 Q 17 152 20 147 Q 23 143 25 138 Q 28 133 30 129 Q 33 124 35 119 Q 38 115 41 110 Q 46 101 51 91 Q 54 87 56 83 Q 58 78 61 73 Q 64 69 66 64 Q 69 59 71 55 Q 74 50 77 45 Q 80 41 82 36 Q 85 32 87 27 Q 90 23 94 19 Q 95 13 98 9 Q 102 5 104 0 Q 106 1 109 2 Q 136 11 156 30 Q 161 35 165 39 Q 179 43 174 48 Q 177 50 180 53 Q 183 56 186 59 Q 187 60 189 62 Q 191 64 192 65 Q 191 68 189 70 Q 187 72 186 75 Q 187 75 188 75 Q 189 75 191 75 H 222 Q 225 75 227 76 Q 228 76 231 76 Q 232 80 232 84 Q 233 88 233 93 H 248 Q 249 96 250 99 Q 250 102 251 105 Q 253 106 256 106 Q 259 106 262 106 Q 266 93 268 78 Q 270 64 272 50 Z M 448 263 Q 438 264 428 265 Q 419 266 409 266 Q 410 265 411 265 Q 412 264 413 264 Q 421 259 429 254 Q 437 250 444 245 Q 448 243 448 239 Q 448 228 448 218 Q 448 208 448 198 Q 448 190 448 183 Q 449 176 449 168 Q 449 145 449 122 Q 449 99 450 75 Q 450 67 450 58 Q 450 50 450 42 V 36 Q 443 34 433 33 Q 423 32 413 32 Q 403 32 394 34 Q 385 35 380 37 V 42 Q 380 48 380 53 Q 380 58 381 64 Q 381 80 381 95 Q 382 110 382 126 Q 383 143 383 160 Q 383 178 384 194 Q 384 208 385 222 Q 385 235 385 249 Q 386 268 386 287 Q 387 307 388 326 Q 389 337 389 348 Q 389 359 389 370 Q 390 394 391 418 Q 392 441 393 465 Q 393 470 394 474 Q 394 477 394 481 Q 408 483 421 483 Q 435 483 448 480 Q 448 425 448 371 Q 448 318 448 263 Z M 383 397 Q 382 397 381 397 Q 380 397 379 397 Q 374 398 369 399 Q 364 400 358 401 Q 353 401 348 401 Q 343 401 339 400 Q 325 397 321 385 Q 319 381 318 376 Q 317 371 317 367 Q 316 356 315 346 Q 315 336 316 325 Q 317 310 318 294 Q 320 278 321 262 Q 323 246 325 230 Q 327 214 329 198 V 192 Q 312 192 296 192 Q 279 192 263 192 Q 262 197 262 199 Q 261 212 260 225 Q 259 237 257 250 Q 255 272 254 294 Q 253 316 253 338 Q 254 349 254 360 Q 254 371 257 382 Q 262 410 279 430 Q 281 432 283 434 Q 285 436 286 438 Q 297 428 307 419 Q 317 410 326 401 Q 322 413 316 425 Q 295 451 305 450 Q 326 460 346 460 Q 366 460 387 455 Q 385 439 385 425 Q 384 411 383 397 Z M 222 436 Q 215 424 206 412 Q 202 414 199 416 Q 196 418 193 419 Q 187 422 180 424 Q 174 426 166 425 Q 155 424 150 415 Q 146 408 146 400 Q 145 380 146 361 Q 146 330 152 297 Q 154 285 156 274 Q 159 262 161 251 Q 162 250 162 247 Q 144 248 126 250 Q 108 251 91 252 Q 85 289 83 325 Q 82 362 85 398 Q 94 399 103 399 Q 111 399 120 400 V 401 Q 111 405 104 409 Q 96 412 88 417 Q 89 423 90 429 Q 92 435 95 441 Q 106 464 126 476 Q 147 488 173 485 Q 187 483 199 477 Q 212 471 225 464 Q 225 464 225 463 Q 224 461 223 459 Q 222 457 221 454 Q 209 458 197 462 Q 185 465 172 470 Q 172 469 172 469 Q 184 461 197 453 Q 210 445 222 436 Z M 47 147 Q 47 147 47 148 Q 44 158 40 168 Q 37 178 34 188 Q 40 193 49 197 Q 58 201 63 202 Q 88 163 113 125 Q 139 87 166 50 Q 154 37 140 27 Q 126 17 109 11 Q 107 15 104 18 Q 108 21 112 25 Q 116 28 121 31 Q 121 32 120 32 Q 120 32 120 32 Q 114 31 109 31 Q 103 31 97 30 Q 96 32 89 44 Q 82 56 73 72 Q 63 88 53 107 Q 42 126 33 142 Q 24 158 18 170 Q 11 182 10 185 Q 11 185 12 186 Q 13 186 14 187 Q 22 176 30 167 Q 38 157 47 147 Z M 247 114 Q 242 132 241 149 Q 239 166 243 184 Q 271 185 298 185 Q 326 185 353 185 Q 357 173 360 160 Q 363 148 366 135 Q 368 137 368 138 Q 369 143 369 147 Q 369 152 369 157 Q 370 163 370 169 Q 370 176 371 182 Q 371 185 372 185 Q 372 186 376 185 Q 375 169 375 155 Q 375 140 373 124 Q 342 121 310 119 Q 279 116 247 114 Z M 66 246 Q 100 244 133 242 Q 166 240 199 237 Q 200 229 201 221 Q 202 213 201 206 Q 193 204 186 203 Q 179 201 171 200 V 199 Q 180 196 188 194 Q 196 192 205 189 Q 205 187 204 186 Q 204 184 204 182 Q 146 179 88 177 Q 82 186 76 194 Q 71 202 65 212 H 61 Q 62 220 63 229 Q 63 237 66 246 Z M 383 389 Q 381 344 379 300 Q 378 255 376 211 H 354 V 213 Q 350 244 346 274 Q 342 305 340 336 Q 339 346 340 357 Q 340 367 340 378 Q 340 387 343 393 Q 353 394 363 393 Q 372 391 383 389 Z M 227 84 Q 226 84 225 84 Q 225 84 224 84 Q 207 84 189 84 Q 172 84 155 83 Q 153 83 152 84 Q 150 86 149 87 Q 143 96 137 104 Q 131 113 124 122 Q 122 127 122 130 Q 121 134 122 138 Q 147 142 172 146 Q 196 149 221 154 Q 226 136 228 119 Q 229 102 227 84 Z M 340 114 Q 343 102 344 91 Q 346 80 349 68 Q 331 62 314 59 Q 298 55 279 56 Q 277 69 275 82 Q 274 95 272 108 Q 289 110 306 111 Q 323 113 340 114 Z M 160 294 Q 154 325 153 356 Q 169 353 184 351 Q 199 349 215 347 Q 216 333 215 320 Q 213 306 210 292 Q 198 293 185 293 Q 173 293 160 294 Z M 75 367 Q 75 350 76 333 Q 76 316 77 299 Q 68 300 58 300 Q 49 300 40 301 Q 37 319 39 337 Q 41 354 47 371 Q 54 370 61 369 Q 68 368 75 367 Z M 455 427 Q 456 428 456 428 Q 456 428 457 428 L 486 412 Q 481 398 474 387 Q 468 375 460 365 Q 456 365 456 367 Q 455 368 455 370 V 411 Z M 472 186 Q 475 173 475 159 Q 476 146 475 132 Q 470 132 465 131 Q 461 131 457 130 Q 456 133 456 141 Q 456 149 456 159 Q 456 168 456 176 Q 456 185 456 186 Z M 192 172 Q 177 170 162 168 Q 148 166 133 163 Q 132 161 132 160 Q 132 159 131 156 Q 128 160 126 163 Q 124 166 122 170 Q 140 172 157 172 Q 175 173 192 174 Z M 373 116 Q 375 111 374 104 Q 373 97 372 94 Q 371 100 370 105 Q 370 110 369 115 Q 372 116 373 116 Z" fill="black" />
  </g>
  <g class="defect" id="01">
    <path d="M 165 39 Q 179 43 174 48" fill="none" stroke="red" stroke-width="3" />
  </g>
  <g class="defect" id="02">
    <path d="M 316 425 Q 295 451 305 450" fill="none" stroke="red" stroke-width="3" />
  </g>
</svg>