<svg xmlns="http://www.w3.org/2000/svg" width="512" height="512" viewBox="0 0 512 512">
  <g class="glyph">
    <path d="M 319 374 Q 316 401 314 427 Q 312 453 309 480 Q 276 485 242 476 V 469 Q 240 469 239 470 Q 234 472 229 475 Q 224 478 220 480 Q 197 493 172 493 Q 135 492 112 464 Q 110 461 106 458 Q 96 449 89 438 Q 82 426 78 413 Q 77 409 76 406 Q 76 402 75 398 Q 77 396 80 395 Q 82 393 84 392 V 391 H 80 Q 76 391 74 391 Q 74 388 74 385 Q 74 383 73 380 Q 69 381 65 381 Q 61 382 57 382 Q 54 378 53 373 Q 52 368 50 364 Q 48 364 45 364 Q 42 364 39 365 Q 32 345 30 324 Q 28 304 32 283 Q 42 282 53 281 Q 64 281 74 280 Q 76 270 76 263 V 262 V 262 Q 73 258 72 253 Q 72 248 70 243 H 57 Q 56 241 55 237 Q 55 234 54 231 Q 53 227 53 222 Q 52 217 52 212 Q 51 210 51 208 Q 50 206 48 205 Q 45 204 44 203 Q 42 201 41 200 Q 41 199 41 197 Q 41 196 42 195 Q 41 195 41 194 Q 41 194 41 194 Q 38 197 35 200 Q 33 203 30 206 Q 27 203 24 201 Q 20 198 17 196 Q 19 191 22 187 Q 25 183 24 177 Q 21 180 18 183 Q 15 186 13 189 Q 10 186 6 184 Q 3 181 0 179 Q 1 177 1 177 Q 13 165 1 175 Q 22 137 44 99 Q 65 61 87 24 Q 87 22 87 22 Q 88 21 90 20 Q 90 20 91 19 Q 91 19 91 18 Q 91 13 94 10 Q 97 7 99 3 Q 99 2 101 0 Q 106 1 111 3 Q 115 5 120 7 Q 146 21 169 45 Q 172 49 175 52 Q 179 55 182 58 Q 183 59 184 60 Q 185 62 187 63 Q 185 65 183 67 Q 182 69 180 72 Q 191 73 202 72 Q 213 72 224 73 Q 225 77 226 81 Q 226 85 227 89 H 228 Q 227 79 226 67 Q 225 56 227 45 Q 250 42 272 38 Q 294 35 317 32 Q 318 35 319 39 Q 319 42 320 45 H 321 Q 321 42 321 38 Q 322 35 322 32 Q 323 31 333 29 Q 344 27 360 25 Q 376 22 394 20 Q 413 17 428 14 Q 444 12 456 10 Q 467 9 469 9 Q 470 13 472 17 Q 474 22 476 26 Q 479 26 485 25 Q 489 32 492 43 Q 495 53 496 65 Q 498 77 498 88 Q 498 99 496 107 Q 458 110 421 114 Q 384 117 346 121 Q 345 127 344 134 Q 344 140 343 147 Q 345 146 347 146 Q 348 145 350 145 Q 363 141 375 139 Q 388 137 401 137 Q 427 137 449 150 Q 451 151 452 152 Q 454 153 459 158 Q 464 162 470 168 Q 475 174 480 179 Q 485 184 486 185 Q 486 185 487 187 Q 486 189 484 191 Q 482 193 483 197 Q 485 196 487 195 Q 488 193 491 192 Q 494 198 497 204 Q 499 210 500 216 Q 505 238 504 258 Q 503 279 497 299 Q 491 319 483 336 Q 475 354 466 371 Q 465 373 464 374 Q 463 376 463 377 Q 464 378 464 379 Q 465 379 466 380 Q 472 385 479 390 Q 485 395 492 400 Q 493 401 494 401 Q 495 402 494 404 Q 494 405 495 406 Q 496 407 497 407 Q 501 410 504 413 Q 508 416 512 419 Q 498 451 474 474 Q 461 466 448 457 Q 435 449 422 441 Q 413 453 405 464 Q 397 476 387 488 Q 382 485 376 482 Q 370 479 366 475 Q 366 474 367 473 Q 367 471 368 470 Q 367 469 365 469 Q 364 469 363 468 Q 362 469 361 469 Q 360 470 359 471 Q 346 462 337 452 Q 327 441 316 431 Q 323 421 330 411 Q 336 401 343 390 Q 337 386 331 382 Q 325 378 319 374 Z M 232 453 Q 246 456 259 457 Q 272 459 285 456 Q 288 430 290 404 Q 292 378 294 352 Q 290 348 285 345 Q 280 342 276 338 Q 277 337 277 335 Q 277 333 278 332 Q 282 323 286 316 Q 291 308 297 300 Q 300 298 301 292 Q 289 290 304 259 Q 306 243 308 226 Q 308 223 308 220 Q 307 218 306 215 Q 294 197 289 179 Q 288 176 288 174 Q 288 172 286 169 Q 294 165 301 162 Q 308 159 315 155 Q 316 142 318 129 Q 320 117 321 104 Q 319 103 309 104 Q 299 104 287 105 Q 275 106 265 107 Q 255 108 253 109 Q 246 196 241 281 Q 236 367 232 453 Z M 436 358 Q 437 357 438 356 Q 449 336 458 316 Q 468 296 474 273 Q 478 255 479 238 Q 480 220 476 202 Q 475 198 473 193 Q 472 188 469 184 Q 462 189 454 194 Q 447 199 439 205 Q 438 203 437 202 Q 436 200 435 199 Q 442 192 448 184 Q 454 177 460 168 Q 453 159 444 154 Q 435 149 424 146 Q 412 142 398 142 Q 385 143 373 145 Q 353 149 335 156 Q 316 162 298 172 Q 297 172 296 172 Q 295 173 294 174 Q 298 191 307 205 Q 315 220 326 233 Q 329 232 331 231 Q 332 230 335 229 Q 358 216 381 210 Q 394 207 405 207 Q 410 208 412 210 Q 413 211 414 215 Q 417 226 417 236 Q 417 246 415 256 Q 411 277 401 299 Q 398 305 395 311 Q 392 317 390 323 Q 401 332 413 340 Q 424 349 436 358 Z M 212 438 Q 200 443 188 446 Q 176 449 164 453 Q 176 445 189 437 Q 201 429 214 420 Q 210 414 205 409 Q 201 404 197 398 Q 193 400 191 400 Q 184 404 178 406 Q 171 409 164 410 Q 149 412 143 398 Q 140 392 139 382 Q 138 365 139 348 Q 139 331 141 314 Q 144 280 153 245 Q 154 244 154 242 Q 154 239 155 237 Q 137 238 120 239 Q 103 241 86 242 Q 80 277 78 313 Q 77 348 80 384 Q 89 384 98 385 Q 106 385 114 385 V 386 Q 106 390 99 394 Q 91 398 82 402 Q 85 415 89 424 Q 105 462 145 469 Q 165 471 182 465 Q 199 459 216 448 Q 215 445 214 443 Q 213 441 212 438 Z M 284 336 Q 326 365 369 392 Q 411 420 454 447 Q 474 427 485 404 L 324 282 Q 312 293 302 307 Q 291 320 284 336 Z M 30 179 Q 37 184 44 187 Q 51 191 59 193 Q 83 156 108 119 Q 133 82 160 45 Q 155 40 148 33 Q 140 27 132 21 Q 123 15 116 12 Q 108 8 104 7 Q 103 9 102 10 Q 101 12 100 13 Q 104 17 108 20 Q 112 24 115 27 V 28 Q 110 27 104 26 Q 99 26 93 25 Q 92 26 91 27 Q 90 29 89 30 Q 73 59 57 88 Q 41 117 25 145 Q 20 152 17 159 Q 13 166 10 172 Q 9 175 9 175 Q 9 176 12 177 Q 20 168 28 159 Q 35 149 43 139 Q 43 139 43 140 Q 43 140 44 140 Q 41 150 37 160 Q 34 169 30 179 Z M 328 35 Q 327 50 325 65 Q 324 80 323 95 Q 361 91 398 88 Q 435 85 471 81 Q 473 64 471 47 Q 469 30 463 14 Q 429 20 395 25 Q 362 30 328 35 Z M 63 236 Q 75 235 87 234 Q 99 234 111 232 Q 129 231 147 230 Q 165 229 182 228 Q 186 228 188 227 Q 190 227 191 226 Q 191 226 191 224 Q 191 222 192 219 Q 193 213 193 208 Q 193 203 193 197 Q 185 195 179 193 Q 172 192 165 191 V 190 Q 173 188 181 185 Q 189 183 197 181 Q 197 179 196 177 Q 196 175 196 173 Q 195 173 194 173 Q 193 173 192 173 Q 183 172 174 172 Q 165 172 156 171 Q 139 170 121 169 Q 104 169 87 168 Q 83 168 81 171 Q 76 178 72 185 Q 68 191 64 198 Q 61 203 57 202 Q 57 208 59 219 Q 60 229 63 236 Z M 218 79 Q 216 79 215 78 Q 214 78 213 78 H 148 Q 144 78 142 81 Q 136 90 130 98 Q 124 107 118 115 Q 113 122 115 131 Q 139 136 163 139 Q 187 142 211 146 Q 216 129 218 113 Q 220 96 218 79 Z M 239 103 Q 280 99 323 95 Q 320 80 317 66 Q 314 52 310 37 Q 290 41 271 44 Q 252 47 233 50 Q 232 54 232 61 Q 250 68 233 76 Q 234 83 236 91 Q 237 98 239 103 Z M 342 260 Q 339 257 337 254 Q 334 251 331 247 Q 330 255 329 262 Q 329 268 328 275 Q 342 286 355 297 Q 369 308 383 319 Q 385 318 385 317 Q 386 315 387 313 Q 387 311 389 309 Q 394 296 399 283 Q 405 269 407 255 Q 408 250 409 244 Q 410 239 409 233 Q 406 234 404 234 Q 401 234 399 235 Q 384 239 370 246 Q 356 252 342 260 Z M 231 320 Q 234 275 237 231 Q 239 187 242 142 Q 240 149 238 157 Q 237 165 234 172 Q 226 170 218 169 Q 210 168 202 167 Q 203 172 204 175 Q 204 179 205 183 Q 208 183 212 183 Q 215 183 219 183 Q 220 189 221 193 Q 222 198 222 203 Q 219 204 217 205 Q 215 205 213 206 Q 216 207 217 208 Q 218 209 218 212 V 225 Q 216 239 214 251 Q 205 252 196 252 Q 188 253 180 254 Q 179 259 177 264 Q 176 269 175 274 Q 183 274 191 273 Q 199 273 206 273 Q 208 277 209 281 Q 210 286 211 290 Q 214 290 218 290 Q 221 290 223 290 Q 227 297 228 305 Q 229 313 231 320 Z M 146 342 Q 162 339 177 337 Q 191 335 207 333 Q 208 319 207 306 Q 205 293 202 280 Q 190 281 178 281 Q 166 282 153 283 Q 151 298 149 312 Q 147 327 146 342 Z M 226 417 Q 226 417 226 417 Q 226 417 227 417 Q 228 402 228 387 Q 229 372 230 356 Q 213 359 197 362 Q 181 364 164 367 Q 163 376 163 385 Q 163 393 164 402 Q 174 401 183 397 Q 191 393 199 389 Q 200 390 203 393 Q 205 395 207 398 Q 209 401 212 405 Q 214 407 214 407 Q 217 406 218 407 Q 218 408 219 409 Q 221 411 222 413 Q 224 415 226 417 Z M 71 353 Q 71 336 71 320 Q 72 304 72 287 Q 63 288 54 288 Q 45 288 36 289 Q 34 306 36 323 Q 37 340 43 356 Q 50 356 57 355 Q 63 354 71 353 Z M 351 389 Q 344 400 338 409 Q 331 419 324 429 Q 328 433 332 437 Q 336 440 340 444 Q 349 434 358 425 Q 367 415 376 406 Q 370 401 363 397 Q 357 393 351 389 Z M 367 461 Q 374 451 382 440 Q 390 430 397 419 Q 393 416 389 413 Q 384 410 380 408 Q 374 420 368 432 Q 362 443 356 455 Q 359 457 362 458 Q 364 460 367 461 Z M 115 162 Q 134 164 152 164 Q 169 165 187 166 V 165 Q 171 162 156 160 Q 142 158 127 155 Q 125 152 125 149 Q 122 152 120 155 Q 118 158 115 162 Z M 244 111 V 114 Z" fill="black" />
  </g>
  <g class="defect" id="01">
    <path d="M 232 61 Q 250 68 233 76" fill="none" stroke="red" stroke-width="3" />
  </g>
  <g class="defect" id="02">
    <path d="M 1 177 Q 13 165 1 175" fill="none" stroke="red" stroke-width="3" />
  </g>
  <g class="defect" id="03">
    <path d="M 301 292 Q 289 290 304 259" fill="none" stroke="red" stroke-width="3" />
  </g>
</svg>