<svg xmlns="http://www.w3.org/2000/svg" width="512" height="512" viewBox="0 0 512 512">
  <g class="glyph">
    <path d="M 502 146 Q 503 151 504 155 Q 505 159 506 164 Q 509 182 506 203 Q 506 207 505 208 Q 505 209 500 209 Q 489 209 478 209 Q 467 210 455 210 Q 452 210 450 211 V 218 Q 459 218 468 218 Q 477 219 486 219 Q 487 223 487 227 Q 488 231 489 236 Q 493 236 496 236 Q 500 236 503 237 Q 507 252 506 267 Q 506 282 503 298 Q 489 299 475 299 Q 462 299 449 300 V 301 Q 450 302 450 302 Q 451 302 452 303 Q 470 310 480 325 Q 482 328 484 329 Q 488 332 492 336 Q 495 339 498 343 L 493 350 Q 493 350 494 350 L 500 347 Q 501 349 502 350 Q 503 352 503 354 Q 508 364 510 374 Q 512 383 512 394 Q 512 433 498 469 L 496 472 Q 487 472 479 469 Q 475 468 471 466 Q 468 465 463 464 Q 463 467 464 469 Q 464 472 464 476 Q 458 477 452 479 Q 446 481 441 482 Q 409 489 375 487 Q 356 486 341 478 Q 327 473 317 460 Q 316 459 315 458 Q 315 457 314 455 Q 301 446 294 432 Q 293 431 292 429 Q 290 442 289 453 Q 288 465 286 476 Q 279 478 271 478 Q 263 478 255 477 Q 255 476 255 475 Q 255 474 255 473 V 468 Q 254 470 253 472 Q 253 474 252 477 Q 245 476 238 475 Q 232 474 225 471 V 459 Q 223 458 220 461 Q 203 470 185 474 Q 139 479 111 446 Q 111 444 109 443 Q 95 433 89 420 Q 82 407 78 391 Q 78 389 77 387 Q 77 386 76 383 Q 79 382 81 381 Q 83 380 86 378 Q 83 378 82 378 Q 80 378 78 377 Q 74 374 70 375 Q 67 376 62 377 Q 59 377 57 377 Q 55 373 54 368 Q 52 364 51 359 Q 48 359 46 359 Q 44 359 41 359 Q 38 355 35 345 Q 33 334 31 322 Q 30 310 30 298 Q 30 286 33 278 Q 43 278 54 277 Q 65 277 75 276 Q 76 272 76 268 Q 76 263 77 260 V 258 Q 76 254 74 250 Q 73 245 71 241 Q 71 241 71 240 H 59 Q 54 229 53 216 Q 53 210 51 206 Q 50 202 44 200 Q 42 199 41 198 Q 41 197 42 193 Q 39 196 37 198 Q 34 201 31 204 Q 27 201 24 199 Q 21 196 18 194 Q 20 189 22 185 Q 25 180 25 175 Q 22 178 19 181 Q 16 183 13 187 Q 10 184 6 182 Q 3 179 0 177 Q 3 172 5 167 Q 7 163 10 158 Q 13 154 15 150 Q 18 145 20 141 Q 23 136 25 131 Q 28 127 30 123 Q 33 118 35 114 Q 38 109 41 105 Q 43 100 46 96 Q 48 91 51 87 Q 53 83 56 78 Q 58 74 60 69 Q 63 65 66 61 Q 68 57 71 52 Q 74 48 76 43 Q 79 39 82 35 Q 84 30 86 26 Q 89 21 93 18 Q 94 13 97 9 Q 100 5 102 0 Q 105 1 108 2 Q 110 3 113 4 Q 131 12 145 22 Q 159 33 172 46 Q 174 50 178 53 Q 181 55 184 58 Q 185 59 187 61 Q 188 62 189 63 Q 188 67 183 72 H 227 Q 228 77 228 81 Q 229 85 229 89 H 236 Q 235 85 233 82 Q 231 79 230 76 Q 228 72 227 69 Q 226 65 225 61 Q 223 57 226 55 Q 229 53 231 51 Q 234 49 236 46 Q 233 47 229 48 Q 226 50 222 51 Q 221 45 219 41 Q 218 36 219 30 Q 226 28 234 25 Q 241 23 249 21 Q 276 13 303 9 Q 331 4 359 3 Q 373 2 387 2 Q 401 3 415 5 Q 426 7 435 11 Q 445 14 454 20 Q 460 25 465 29 Q 470 33 475 39 Q 476 40 477 41 Q 478 43 479 44 Q 510 68 506 109 Q 506 118 503 126 Q 501 134 498 141 Q 498 142 498 143 Q 497 145 497 146 Z M 263 452 Q 272 365 285 280 Q 298 195 312 109 Q 307 106 299 104 Q 291 101 282 100 Q 273 99 264 98 Q 256 98 252 100 Q 251 103 250 107 Q 250 110 250 114 Q 247 130 246 146 Q 244 162 242 177 Q 240 191 238 205 Q 252 220 235 234 Q 234 246 232 259 Q 231 273 229 285 Q 228 300 226 315 Q 210 312 224 343 Q 223 358 222 372 Q 220 387 219 402 Q 219 409 217 417 Q 216 425 220 431 Q 219 433 218 434 Q 217 435 217 436 Q 215 439 215 442 Q 215 445 215 449 Q 219 450 222 450 Q 226 451 229 452 Q 235 435 238 418 Q 242 401 246 385 Q 246 402 246 419 Q 246 436 245 453 Q 250 452 254 452 Q 259 452 263 452 Z M 85 386 Q 86 389 87 392 Q 87 394 88 395 Q 88 397 89 399 Q 95 415 105 427 Q 115 439 132 445 Q 151 451 171 447 Q 182 444 192 439 Q 202 435 212 429 Q 211 427 210 425 Q 210 423 209 421 L 162 435 V 434 Q 174 427 186 419 Q 198 411 211 404 Q 206 398 203 393 Q 199 388 195 382 Q 191 384 188 386 Q 185 387 182 388 Q 177 391 172 393 Q 166 394 161 394 Q 147 394 142 383 Q 139 374 139 367 Q 138 335 141 305 Q 144 275 151 245 Q 153 242 153 239 Q 153 236 154 233 Q 137 234 121 235 Q 105 236 89 237 Q 86 249 85 268 Q 83 288 82 309 Q 82 329 82 346 Q 83 364 85 369 Q 92 370 101 370 Q 109 370 116 371 Q 108 375 101 378 Q 93 382 85 386 Z M 359 374 Q 361 374 362 374 Q 363 373 364 373 Q 370 371 376 369 Q 382 367 389 365 Q 397 363 405 361 Q 413 359 422 359 Q 429 359 432 362 Q 434 364 435 371 V 372 Q 437 390 434 409 Q 433 414 432 419 Q 431 425 430 430 Q 441 436 451 441 Q 462 445 474 447 Q 475 444 476 441 Q 487 409 487 375 Q 487 359 481 343 Q 481 342 480 342 Q 480 341 479 339 Q 471 344 465 349 Q 458 354 450 359 Q 447 356 445 355 Q 452 347 458 340 Q 465 333 471 326 Q 465 318 454 313 Q 443 307 432 305 Q 421 303 409 304 Q 391 305 375 309 Q 358 312 342 316 Q 341 317 339 318 Q 342 347 359 374 Z M 248 90 Q 250 90 251 90 Q 298 71 349 65 Q 365 63 381 62 Q 397 61 414 65 Q 423 54 431 44 Q 439 34 448 23 Q 447 21 446 21 L 443 20 Q 433 15 422 12 Q 411 9 401 8 Q 385 6 370 7 Q 356 7 341 9 Q 287 14 234 31 Q 231 32 227 33 Q 227 35 227 36 Q 228 37 228 39 Q 242 34 255 30 Q 269 26 283 22 Q 282 23 281 24 Q 279 25 278 26 Q 269 32 259 38 Q 250 44 241 51 Q 237 54 235 55 Q 234 56 233 57 Q 233 59 234 61 Q 235 62 236 67 Q 238 74 241 79 Q 244 85 248 90 Z M 303 311 Q 301 322 299 331 Q 297 341 295 351 Q 292 365 292 378 Q 291 392 293 406 Q 296 420 303 431 Q 309 443 322 450 Q 329 455 337 458 Q 346 460 355 461 Q 389 463 422 456 Q 426 455 430 454 Q 435 453 439 452 Q 440 445 439 443 Q 437 441 432 438 Q 429 437 427 435 Q 424 434 421 433 Q 423 426 425 420 Q 427 413 427 406 Q 423 406 422 407 Q 410 410 398 410 Q 386 411 374 411 Q 370 411 365 410 Q 360 409 355 408 Q 351 407 350 405 Q 348 403 348 399 Q 348 394 349 389 Q 349 384 349 379 Q 349 377 349 374 Q 349 372 348 370 Q 346 366 344 363 Q 342 359 341 356 Q 334 339 331 320 Q 331 316 329 316 Q 323 314 317 312 Q 311 311 303 311 Z M 14 175 Q 22 166 30 157 Q 38 147 46 138 L 46 138 Q 43 148 40 157 Q 36 166 33 177 Q 39 181 46 184 Q 53 188 61 190 Q 86 153 111 117 Q 135 81 163 44 Q 150 32 137 22 Q 123 13 106 7 Q 105 9 104 10 Q 103 12 102 14 Q 106 17 110 20 Q 114 23 118 27 Q 118 27 118 27 Q 118 27 118 28 Q 113 27 107 26 Q 101 26 95 25 Q 94 27 93 29 Q 92 30 91 33 Q 76 58 62 83 Q 47 108 33 133 Q 27 142 22 151 Q 18 161 12 170 Q 11 171 11 173 Q 11 174 14 175 Z M 199 171 Q 191 170 183 170 Q 175 170 167 170 Q 148 169 129 168 Q 109 167 90 166 Q 86 166 85 169 Q 81 176 76 182 Q 71 189 67 196 Q 65 199 60 199 Q 60 208 61 216 Q 62 224 65 232 Q 98 230 130 228 Q 162 226 195 224 Q 197 209 196 194 Q 189 193 182 191 Q 175 190 167 188 Q 175 185 184 183 Q 193 181 201 178 Q 200 177 200 175 Q 200 174 199 173 Q 199 172 199 171 Z M 482 183 Q 483 171 482 160 Q 482 148 479 137 Q 450 135 421 134 Q 393 133 364 132 Q 358 146 354 160 Q 349 173 343 187 Q 379 186 413 186 Q 447 185 482 183 Z M 370 301 Q 382 299 394 298 Q 406 297 418 295 Q 420 269 421 244 Q 423 219 425 193 Q 410 193 395 193 Q 380 194 365 194 Q 366 221 367 248 Q 369 274 370 301 Z M 222 78 Q 221 78 220 78 Q 219 77 218 77 H 152 Q 149 77 148 78 Q 147 79 146 81 Q 140 89 134 97 Q 129 106 123 114 Q 119 118 119 122 Q 119 125 120 130 Q 144 133 168 137 Q 191 141 216 145 Q 226 111 222 78 Z M 418 127 Q 420 127 423 127 Q 425 127 427 127 Q 437 127 447 128 Q 457 128 467 129 Q 470 129 471 128 Q 472 127 473 125 Q 475 119 477 114 Q 479 108 481 102 Q 487 78 479 58 Q 476 50 471 43 Q 466 37 460 31 Q 458 33 451 38 Q 444 43 437 49 Q 430 54 424 59 Q 418 65 417 66 Q 418 67 418 67 Q 419 67 420 68 Q 428 71 431 76 Q 433 81 432 89 Q 432 90 432 90 Q 431 90 431 91 Q 430 99 427 107 Q 424 114 420 122 Q 419 123 419 124 Q 419 125 418 127 Z M 151 278 Q 150 284 149 293 Q 148 301 147 310 Q 146 319 146 327 Q 146 334 146 337 Q 162 335 178 333 Q 194 331 210 328 Q 211 323 211 316 Q 211 309 210 301 Q 210 293 208 287 Q 206 280 205 276 Q 191 276 178 277 Q 165 277 151 278 Z M 425 89 Q 413 86 403 87 Q 386 88 370 90 Q 353 91 337 95 Q 331 96 325 97 Q 320 99 313 100 Q 316 101 317 102 Q 318 102 320 103 Q 320 106 320 109 Q 319 111 319 114 Q 323 115 327 117 Q 330 118 334 119 Q 335 120 336 121 Q 337 122 339 123 Q 342 124 345 124 Q 349 124 353 125 Q 353 129 353 132 Q 353 135 352 139 H 353 Q 354 135 355 132 Q 357 129 358 124 Q 371 125 384 125 Q 396 125 409 126 Q 413 117 418 108 Q 422 99 425 89 Z M 308 281 Q 322 281 335 280 Q 348 279 362 278 Q 361 264 360 250 Q 360 236 359 222 Q 346 221 333 221 Q 320 220 307 220 Q 305 236 305 251 Q 305 266 308 281 Z M 427 276 Q 441 275 453 274 Q 466 274 480 274 Q 484 251 481 226 L 431 224 Q 429 237 429 250 Q 428 262 427 276 Z M 39 284 Q 37 301 39 318 Q 40 335 46 351 Q 53 350 60 349 Q 67 348 74 347 Q 74 331 74 315 Q 75 299 75 283 Q 66 283 57 283 Q 48 284 39 284 Z M 218 204 Q 220 205 221 206 Q 222 207 222 210 Q 222 223 220 236 Q 220 238 220 242 Q 219 245 218 248 Q 208 249 198 249 Q 188 250 178 251 Q 177 255 176 260 Q 175 265 174 270 Q 183 269 193 269 Q 202 269 211 268 L 216 286 Q 218 286 219 286 Q 221 285 222 285 Q 226 256 229 227 Q 233 199 236 169 Q 228 168 221 167 Q 213 166 206 165 Q 207 170 207 173 Q 208 177 209 180 Q 212 180 215 181 Q 219 181 222 181 Q 226 191 226 201 Q 223 202 221 202 Q 220 203 218 204 Z M 342 188 Q 343 173 344 159 Q 345 146 346 132 Q 338 131 330 131 Q 323 131 315 130 Q 313 145 311 159 Q 308 173 306 188 Z M 215 354 Q 202 356 189 358 Q 177 360 163 362 Q 162 374 163 387 Q 172 386 180 382 Q 188 378 196 374 Q 197 375 197 375 Q 197 376 198 377 Q 201 380 203 383 Q 206 387 209 390 Q 209 391 212 393 Q 213 382 214 373 Q 214 364 215 354 Z M 429 385 Q 426 385 425 386 Q 417 387 410 389 Q 404 390 397 392 Q 391 394 386 396 Q 381 397 375 399 Q 372 401 373 404 Q 387 404 401 403 Q 414 403 428 398 Q 429 395 429 392 Q 429 389 429 385 Z M 120 159 Q 122 160 123 160 Q 138 161 154 161 Q 169 162 185 162 Q 152 141 160 158 Q 147 156 135 154 Q 131 153 131 153 Q 130 152 130 149 Q 130 148 129 148 Q 129 148 129 147 Q 126 150 124 153 Q 122 156 120 159 Z M 316 288 Q 312 288 310 289 Q 309 293 309 296 Q 309 300 308 304 Q 311 305 314 305 Q 317 306 320 306 Q 319 301 318 297 Q 317 292 316 288 Z M 324 307 334 310 Q 337 311 339 310 Q 341 309 344 308 Q 347 307 349 307 Q 350 306 353 306 Q 353 305 353 305 Q 345 305 338 305 Q 332 305 324 306 Z M 359 214 Q 359 212 358 212 Q 356 212 355 212 Q 351 212 346 212 Q 342 212 338 212 Q 334 212 331 213 Q 328 213 324 213 V 213 Q 333 213 342 214 Q 350 214 359 214 Z" fill="black" />
  </g>
  <g class="defect" id="01">
    <path d="M 185 162 Q 152 141 160 158" fill="none" stroke="red" stroke-width="3" />
  </g>
  <g class="defect" id="02">
    <path d="M 238 205 Q 252 220 235 234" fill="none" stroke="red" stroke-width="3" />
  </g>
  <g class="defect" id="03">
    <path d="M 226 315 Q 210 312 224 343" fill="none" stroke="red" stroke-width="3" />
  </g>
</svg>