<svg xmlns="http://www.w3.org/2000/svg" width="512" height="512" viewBox="0 0 512 512">
  <g class="glyph">
    <path d="M 70 370 Q 68 370 65 371 Q 63 371 60 373 Q 58 364 58 355 Q 59 348 60 341 Q 61 334 63 327 Q 64 323 61 319 Q 60 320 58 320 Q 56 320 53 321 Q 53 283 38 285 Q 34 267 33 246 Q 39 245 45 243 Q 51 242 58 240 Q 55 239 53 238 Q 51 237 49 236 Q 50 233 50 231 Q 51 229 51 226 Q 46 224 41 222 Q 37 220 32 218 Q 34 208 36 198 Q 38 189 39 179 Q 40 175 40 173 Q 40 170 38 167 Q 35 164 33 160 Q 32 156 30 152 Q 25 153 23 153 Q 11 134 6 114 Q 1 94 0 71 Q 17 67 33 64 Q 50 60 67 56 Q 70 43 74 29 Q 77 15 80 1 Q 85 0 89 0 Q 92 1 96 1 Q 113 3 130 9 Q 146 14 161 23 Q 162 24 163 24 Q 162 29 162 32 Q 167 34 171 37 Q 176 39 181 42 Q 180 45 179 48 Q 178 51 177 55 Q 187 58 197 62 Q 206 66 214 73 Q 213 74 213 76 Q 213 77 211 78 Q 214 80 215 79 Q 217 78 220 77 Q 221 79 223 80 Q 224 82 225 84 Q 226 85 227 85 Q 227 86 228 87 Q 230 89 231 90 Q 233 91 232 95 L 234 96 Q 237 94 239 96 Q 240 99 243 100 Q 245 91 247 83 Q 249 75 251 66 Q 254 58 257 50 Q 260 42 264 34 Q 272 34 279 36 Q 286 38 292 41 Q 292 44 291 49 Q 292 49 292 50 Q 292 50 292 50 Q 293 48 294 46 Q 296 45 297 43 Q 301 45 305 47 Q 309 49 314 51 Q 314 46 314 42 Q 313 37 313 32 Q 319 30 324 29 Q 329 28 335 27 Q 349 24 362 23 Q 375 22 389 23 Q 404 24 418 29 Q 432 34 443 45 Q 449 51 455 56 Q 461 62 467 68 Q 468 70 470 72 Q 472 74 473 76 Q 470 79 466 82 Q 468 83 471 82 Q 473 80 476 80 Q 484 94 485 109 Q 488 130 485 150 Q 482 169 474 189 Q 469 203 460 218 Q 451 216 443 213 Q 436 209 427 205 Q 428 209 428 212 Q 428 215 428 218 Q 421 221 413 223 Q 405 225 396 226 Q 397 227 398 228 Q 399 229 400 230 Q 412 236 420 247 Q 421 250 425 252 Q 444 267 448 291 Q 449 300 448 309 Q 447 318 443 327 Q 439 333 437 340 Q 439 342 442 344 Q 444 345 446 348 Q 450 352 454 357 Q 459 361 463 366 Q 482 385 485 412 Q 488 431 485 448 Q 481 465 474 482 Q 472 488 469 495 Q 466 501 463 507 Q 457 506 451 505 Q 444 503 438 502 Q 438 500 438 498 Q 438 497 439 495 Q 435 496 432 494 Q 429 492 425 492 Q 423 495 421 498 Q 419 502 416 506 Q 404 501 395 494 Q 396 493 396 491 Q 396 490 397 488 Q 393 485 389 483 Q 384 482 380 479 Q 378 480 376 480 Q 375 481 373 482 Q 350 484 328 486 Q 306 488 282 489 Q 262 491 243 493 Q 223 495 203 497 Q 186 498 169 500 Q 153 501 136 503 Q 120 504 103 505 Q 86 507 70 508 Q 68 508 66 508 Q 65 509 63 509 Q 60 503 59 501 H 58 Q 58 503 58 505 Q 58 507 57 510 Q 50 510 44 511 Q 37 511 30 512 Q 28 508 27 503 Q 26 498 25 493 Q 22 494 19 494 Q 15 494 12 494 Q 6 477 5 459 Q 4 442 7 424 Q 28 423 49 422 Q 70 421 93 420 Q 88 416 86 412 Q 83 407 79 405 Q 73 400 68 395 Q 64 389 61 382 Q 60 379 63 376 Q 65 375 66 374 Q 68 372 70 370 Q 70 370 70 370 Z M 442 482 Q 445 477 447 472 Q 448 468 451 463 Q 457 448 460 433 Q 463 418 462 402 Q 459 365 430 345 Q 410 332 385 327 Q 369 324 353 324 Q 337 323 320 324 Q 294 325 270 329 Q 245 332 220 336 Q 203 339 187 341 Q 170 343 154 346 Q 146 348 137 348 Q 132 348 133 343 Q 133 340 134 338 Q 135 335 136 333 Q 137 328 139 325 Q 141 322 143 317 Q 130 307 117 299 Q 104 291 87 287 Q 85 293 82 298 Q 80 303 78 308 Q 74 319 71 330 Q 68 342 66 354 Q 66 356 66 359 Q 66 361 68 363 Q 75 360 83 358 Q 91 355 100 353 Q 92 361 85 368 Q 78 374 71 382 Q 79 398 95 405 Q 106 409 117 410 Q 133 410 148 408 Q 163 406 178 404 Q 209 397 240 392 Q 271 386 302 382 Q 319 380 336 379 Q 353 379 370 380 Q 376 380 381 381 Q 387 382 392 384 Q 406 390 408 405 Q 409 418 406 430 Q 404 440 400 450 Q 396 459 391 469 Q 389 473 388 476 Q 391 477 393 478 Q 395 479 397 480 Q 404 469 410 459 Q 416 449 422 438 Q 421 447 419 454 Q 417 462 416 470 Q 419 469 419 468 Q 420 467 421 466 Q 425 457 430 448 Q 435 439 440 431 Q 441 430 441 428 Q 442 427 443 426 Q 443 426 443 427 Q 440 440 437 453 Q 434 467 431 480 Q 436 480 442 482 Z M 82 278 Q 85 279 87 280 Q 89 280 91 280 Q 100 282 108 286 Q 116 290 124 295 Q 126 297 130 297 Q 146 294 161 291 Q 177 289 193 287 Q 209 285 225 283 Q 241 282 257 280 Q 268 279 278 278 Q 288 278 298 277 Q 309 277 319 277 Q 329 277 340 277 Q 351 277 360 281 Q 371 287 368 298 Q 366 302 364 305 Q 363 308 360 312 Q 359 313 359 314 Q 358 316 357 317 Q 371 318 384 320 Q 397 322 410 327 Q 416 316 420 305 Q 425 294 424 281 Q 423 266 416 256 Q 408 246 396 238 Q 390 244 384 251 Q 379 257 372 263 Q 373 255 376 247 Q 378 239 380 230 Q 378 229 376 229 Q 375 229 373 228 Q 364 227 356 226 Q 347 224 338 223 Q 311 221 285 221 Q 258 222 232 224 Q 192 227 154 232 Q 133 235 111 239 Q 89 242 68 245 Q 60 246 54 248 Q 48 250 42 251 Q 41 257 42 266 Q 44 275 46 283 Q 49 292 52 300 Q 55 308 58 311 Q 60 311 61 310 Q 63 310 64 310 Q 69 309 71 304 Q 74 298 77 291 Q 80 285 82 278 Z M 346 415 Q 327 416 307 417 Q 288 418 269 419 Q 248 420 227 421 Q 206 422 185 423 Q 164 425 143 425 Q 121 426 100 428 Q 81 429 61 430 Q 42 431 22 432 Q 20 432 15 433 Q 14 447 14 461 Q 14 474 19 487 Q 23 487 27 487 Q 30 487 34 486 Q 34 482 35 479 Q 35 476 35 473 Q 36 469 36 466 Q 36 462 37 459 Q 37 456 37 453 Q 37 450 38 446 Q 42 456 45 466 Q 48 475 51 484 Q 128 478 203 471 Q 279 464 355 458 Q 357 435 352 415 Z M 92 226 Q 107 176 123 126 Q 138 77 153 27 Q 137 19 121 14 Q 104 8 86 8 Q 60 111 40 213 Q 42 214 44 214 Q 45 215 48 216 Q 55 206 62 196 Q 70 186 78 177 Q 77 189 76 200 Q 75 211 72 223 Q 77 224 83 225 Q 88 225 92 226 Z M 445 58 Q 441 55 438 52 Q 435 49 432 46 Q 422 39 411 36 Q 400 33 389 32 Q 377 30 365 31 Q 354 32 342 34 Q 337 35 331 36 Q 326 37 320 38 Q 322 56 327 73 Q 332 90 340 106 Q 343 105 346 104 Q 349 104 351 102 Q 360 100 369 99 Q 378 97 387 97 Q 396 97 398 100 Q 400 102 401 111 Q 401 120 400 129 Q 400 138 397 147 Q 394 157 390 167 Q 401 174 413 181 Q 425 188 438 193 Q 439 191 441 189 Q 447 178 451 167 Q 455 155 457 143 Q 460 130 461 117 Q 462 104 459 91 Q 458 86 457 82 Q 456 77 453 73 Q 442 75 432 79 Q 422 82 411 85 Q 411 84 410 84 Q 410 84 410 84 Q 419 77 427 71 Q 436 64 445 58 Z M 338 147 Q 334 146 334 146 Q 330 144 326 143 Q 323 142 319 141 Q 313 138 313 132 Q 314 130 314 124 Q 316 116 318 108 Q 320 100 323 92 Q 323 89 323 85 Q 321 81 320 76 Q 318 71 317 66 Q 317 64 315 63 Q 311 60 307 58 Q 303 55 299 54 Q 293 64 288 74 Q 283 84 278 94 Q 277 94 277 94 Q 278 82 280 70 Q 282 58 283 46 Q 280 45 276 44 Q 272 43 268 42 Q 267 45 266 46 Q 265 48 265 50 Q 262 59 259 67 Q 256 75 254 84 Q 251 96 249 108 Q 247 120 248 132 Q 251 175 287 194 Q 300 201 316 203 Q 332 206 348 205 Q 364 205 380 202 Q 386 201 391 199 Q 396 198 402 196 Q 402 195 402 194 Q 402 193 402 192 Q 402 184 394 178 Q 390 176 387 174 Q 384 172 381 169 Q 383 164 385 160 Q 386 156 388 151 Q 390 147 387 144 Q 381 145 376 146 Q 371 146 365 147 Q 358 147 354 152 Q 351 158 347 162 Q 343 167 339 172 Q 335 177 332 172 Q 330 170 330 168 Q 330 166 331 165 Q 332 163 332 162 Q 333 158 335 154 Q 337 151 338 147 Z M 177 111 Q 177 111 176 110 Q 183 101 190 93 Q 196 84 203 75 Q 200 72 193 69 Q 187 66 180 64 Q 173 62 165 61 Q 157 59 152 59 Q 150 61 147 71 Q 143 81 140 92 Q 137 102 135 112 Q 132 121 132 122 H 135 Q 142 122 150 122 Q 158 122 166 125 Q 174 127 175 135 Q 175 147 172 157 Q 167 172 157 186 Q 167 196 177 205 Q 188 213 200 219 Q 201 219 201 218 Q 201 218 202 218 Q 211 205 219 192 Q 226 179 230 164 Q 239 135 230 109 Q 214 108 216 87 Q 207 94 197 99 Q 187 105 177 111 Z M 168 337 Q 188 333 207 330 Q 226 327 246 324 Q 262 322 278 320 Q 294 319 311 317 Q 318 316 327 316 Q 335 316 343 316 Q 344 316 346 316 Q 347 316 348 316 Q 353 309 357 302 Q 353 301 349 301 Q 345 301 342 301 Q 330 302 319 302 Q 307 303 296 304 Q 280 305 265 306 Q 250 308 234 309 Q 219 311 204 313 Q 189 316 175 318 Q 170 318 165 319 Q 159 320 153 321 Q 156 323 157 324 Q 159 325 160 327 Q 161 328 163 329 Q 164 330 166 331 Q 170 333 168 337 Z M 7 76 Q 8 95 12 112 Q 17 128 25 144 Q 32 143 37 141 Q 42 139 48 138 Q 52 120 56 102 Q 60 84 64 64 Q 50 67 36 70 Q 22 73 7 76 Z M 148 148 Q 147 151 143 163 Q 139 175 135 189 Q 131 203 127 215 Q 124 227 124 229 Q 138 227 153 225 Q 167 224 183 221 Q 164 204 148 187 Q 154 177 159 168 Q 164 159 167 148 Z M 375 425 Q 379 436 380 447 Q 381 458 381 469 Q 386 459 391 449 Q 395 439 398 428 Q 399 422 400 417 Q 400 412 399 406 Q 374 402 351 404 Q 327 406 302 410 Q 317 409 330 408 Q 344 408 358 407 Q 359 412 360 416 Q 360 421 361 425 Z M 257 180 Q 254 190 250 198 Q 247 207 243 216 Q 256 216 268 215 Q 280 215 292 215 Q 283 205 275 197 Q 266 188 257 180 Z M 344 153 Q 344 153 344 153 Q 348 150 350 146 Q 354 139 360 140 Q 363 141 364 140 Q 366 140 369 139 Q 375 138 381 138 Q 386 137 391 136 Q 392 133 392 131 Q 392 128 393 125 Q 383 126 373 128 Q 364 131 354 133 Q 352 130 350 126 Q 349 123 346 119 H 345 Q 344 123 342 129 Q 341 134 340 139 Q 343 139 348 139 Q 347 143 346 146 Q 345 149 344 153 Z M 85 233 Q 82 232 80 232 Q 79 232 76 231 Q 74 235 73 236 Q 76 236 79 236 Q 82 236 85 233 Z M 394 229 Q 392 229 391 229 Q 389 229 387 230 L 386 236 Q 386 236 386 237 Q 386 237 387 237 Q 389 235 390 233 Q 392 231 394 230 Z" fill="black" />
  </g>
  <g class="defect" id="01">
    <path d="M 230 109 Q 214 108 216 87" fill="none" stroke="red" stroke-width="3" />
  </g>
  <g class="defect" id="02">
    <path d="M 53 321 Q 53 283 38 285" fill="none" stroke="red" stroke-width="3" />
  </g>
</svg>