<svg xmlns="http://www.w3.org/2000/svg" width="512" height="512" viewBox="0 0 512 512">
  <g class="glyph">
    <path d="M 468 506 Q 458 497 449 488 Q 439 480 429 471 Q 424 467 419 462 Q 414 458 409 454 Q 407 452 405 450 Q 403 448 402 446 Q 401 444 400 443 Q 399 442 397 441 L 340 504 Q 334 502 328 498 Q 322 495 316 490 Q 318 488 318 486 Q 316 484 313 483 Q 312 483 309 486 Q 305 482 302 479 Q 299 476 295 473 Q 294 473 292 474 Q 291 474 290 475 Q 266 488 241 488 Q 212 487 196 466 Q 194 464 194 464 Q 194 463 193 463 Q 193 463 192 462 Q 192 464 193 465 Q 193 467 193 469 Q 192 470 190 471 Q 188 472 186 473 Q 175 479 163 483 Q 152 486 139 486 Q 114 484 98 464 Q 96 461 92 458 Q 89 455 86 452 Q 83 449 80 446 Q 79 446 79 445 Q 78 444 77 443 Q 76 454 75 464 Q 75 475 73 486 Q 68 487 63 487 Q 57 487 51 488 Q 51 485 51 482 Q 51 480 50 476 Q 50 478 50 479 Q 50 480 49 481 Q 45 480 41 480 Q 38 481 34 484 Q 33 480 33 477 Q 33 473 32 469 Q 31 473 30 477 Q 29 480 28 484 Q 25 483 23 483 Q 21 483 18 482 Q 18 479 18 476 Q 18 473 18 470 Q 18 468 18 467 Q 18 466 16 466 Q 16 465 16 461 Q 16 459 15 457 Q 15 455 15 452 H 14 Q 13 456 12 459 Q 11 463 10 467 Q 7 466 5 466 Q 3 466 0 465 Q 4 388 8 312 Q 12 235 16 158 Q 18 157 21 156 Q 23 155 25 154 V 153 Q 23 153 21 153 Q 19 153 16 153 Q 17 145 17 138 Q 17 131 18 124 Q 17 124 15 124 Q 14 124 12 123 Q 6 103 7 82 Q 8 62 14 40 Q 36 42 59 42 Q 82 43 105 44 Q 103 39 101 34 Q 99 29 97 23 Q 113 12 131 7 Q 149 2 168 0 Q 171 4 171 9 Q 171 14 173 18 Q 176 18 179 18 Q 183 18 186 17 Q 188 23 188 26 Q 189 31 190 35 Q 191 39 192 44 Q 192 48 193 48 Q 193 49 198 49 Q 205 50 213 50 Q 220 50 228 51 H 234 Q 234 54 235 57 Q 235 60 235 63 H 236 Q 237 60 238 57 Q 240 55 241 51 Q 247 51 254 52 Q 260 52 268 52 Q 268 57 269 60 Q 270 64 271 69 H 275 Q 274 59 274 50 Q 274 41 273 31 Q 307 14 311 25 Q 330 25 349 30 V 44 Q 354 45 358 45 Q 362 46 367 47 V 67 H 394 Q 394 55 393 42 Q 393 30 393 18 Q 412 12 431 13 Q 450 14 469 18 V 31 Q 473 32 477 33 Q 482 34 487 35 Q 486 48 486 60 Q 486 72 486 84 H 500 Q 502 89 503 97 Q 504 106 504 116 Q 505 126 504 136 Q 503 145 502 151 Q 497 152 493 152 Q 489 152 484 153 V 158 Q 484 173 484 187 Q 483 201 483 216 Q 482 234 482 253 Q 482 271 481 289 Q 481 295 481 302 Q 481 308 481 314 V 316 Q 484 321 484 325 Q 485 330 486 334 Q 486 334 487 335 H 500 Q 508 368 503 402 L 466 406 Q 478 421 489 435 Q 500 449 512 463 Q 503 477 493 487 Q 482 497 468 506 Z M 342 36 Q 340 36 337 35 Q 333 34 329 33 Q 325 33 321 33 Q 304 31 285 36 Q 281 36 281 40 Q 282 51 282 61 Q 282 72 284 83 Q 285 107 286 131 Q 287 155 288 179 Q 289 198 290 217 Q 291 237 292 256 Q 293 271 293 286 Q 294 301 295 316 Q 295 318 296 321 Q 308 321 320 321 Q 332 321 345 320 Q 344 248 343 178 Q 324 92 342 36 Z M 24 116 H 52 Q 80 115 108 115 Q 136 114 164 114 Q 184 113 205 113 Q 226 113 246 113 Q 250 113 254 113 Q 258 113 261 113 Q 264 99 265 86 Q 265 73 262 59 Q 258 59 254 59 Q 251 59 246 58 Q 245 62 244 66 Q 242 69 241 72 Q 238 80 230 79 Q 230 73 229 68 Q 228 63 228 58 Q 176 55 124 52 Q 72 50 19 47 Q 15 64 15 81 Q 14 98 18 116 Z M 23 163 Q 22 186 21 209 Q 19 232 18 255 Q 17 279 16 302 Q 15 325 14 349 Q 13 363 12 379 Q 11 394 11 408 Q 10 421 10 431 Q 10 440 10 441 Q 11 439 12 436 Q 13 433 14 430 Q 21 430 22 435 Q 23 439 23 441 V 452 Q 23 453 23 454 Q 24 455 25 454 Q 28 437 29 422 Q 31 406 33 390 H 41 V 461 H 50 Q 57 376 65 292 Q 72 209 79 124 Q 77 124 75 123 Q 73 123 72 123 H 26 Q 25 129 25 134 Q 25 139 25 145 Q 36 146 45 145 Q 55 144 65 144 V 145 Q 54 149 44 154 Q 34 158 23 163 Z M 472 325 Q 463 326 453 326 Q 444 326 435 326 Q 410 327 386 327 Q 362 327 338 328 Q 322 328 307 329 Q 292 329 276 329 H 268 Q 266 347 266 364 Q 267 381 272 398 H 277 Q 290 396 303 395 Q 316 394 329 393 Q 342 392 355 390 Q 368 389 381 388 Q 391 387 401 386 Q 412 385 422 384 Q 426 384 428 381 Q 430 380 433 378 Q 435 377 438 375 Q 439 376 440 379 Q 443 382 449 382 Q 456 381 462 380 Q 469 380 476 379 Q 477 379 478 379 Q 480 379 481 379 Q 482 365 481 352 Q 481 339 478 325 Z M 187 279 Q 187 280 187 281 Q 186 281 186 282 Q 184 294 181 305 Q 178 316 176 328 Q 172 347 170 366 Q 169 385 171 405 Q 172 413 174 420 Q 176 428 179 435 Q 192 460 218 463 Q 227 464 236 463 Q 244 461 253 459 Q 262 455 271 450 Q 267 440 262 431 Q 256 423 250 414 Q 249 415 248 415 Q 246 416 245 416 Q 241 417 238 418 Q 235 419 231 420 Q 225 421 223 419 Q 220 417 219 411 Q 218 402 218 394 Q 218 386 219 378 Q 220 360 224 344 Q 228 327 233 311 Q 234 307 236 303 Q 238 300 239 295 Q 226 289 214 285 Q 201 280 187 279 Z M 87 281 Q 87 284 86 286 Q 80 311 77 336 Q 73 362 72 388 Q 72 399 74 410 Q 76 421 80 431 Q 87 447 100 454 Q 113 461 130 460 Q 148 459 164 449 Q 165 449 166 448 Q 166 448 167 447 Q 164 437 158 429 Q 152 421 146 413 Q 142 414 139 415 Q 136 416 132 416 Q 122 419 121 409 Q 119 398 120 389 Q 122 368 126 347 Q 130 327 136 306 Q 137 304 137 302 Q 138 300 139 298 Q 126 292 114 287 Q 102 282 87 281 Z M 456 319 Q 457 273 458 227 Q 459 182 460 136 Q 446 137 432 138 Q 417 139 403 140 Q 405 186 405 230 Q 406 274 407 319 Q 420 319 432 319 Q 427 335 456 319 Z M 77 227 Q 76 239 75 250 Q 74 261 73 273 Q 121 271 169 269 Q 216 267 264 265 Q 266 256 265 248 Q 265 239 264 230 Q 217 229 170 228 Q 124 228 77 227 Z M 477 75 Q 445 73 414 74 Q 382 75 350 76 Q 349 91 350 107 Q 350 122 350 138 Q 382 135 414 133 Q 446 130 478 127 Q 483 103 477 75 Z M 152 181 Q 164 180 175 180 Q 186 179 197 178 Q 202 178 207 178 Q 212 179 217 180 Q 224 183 224 191 Q 224 193 224 196 Q 224 199 223 202 Q 222 206 220 210 Q 219 214 218 219 Q 217 220 217 223 H 256 Q 260 211 262 199 Q 265 187 260 175 Q 253 178 246 181 Q 239 184 231 187 Q 231 186 231 186 Q 231 186 231 186 Q 235 179 241 172 Q 246 165 251 158 Q 248 154 245 152 Q 242 150 239 147 Q 223 138 202 138 H 158 Q 155 138 150 139 Q 149 150 148 160 Q 148 171 147 181 Z M 451 479 Q 460 473 471 463 Q 482 454 486 447 Q 474 431 462 416 Q 449 400 436 385 Q 409 403 394 428 Q 408 441 423 453 Q 437 466 451 479 Z M 99 122 Q 98 124 98 132 Q 98 140 99 150 Q 99 161 99 173 Q 99 184 100 194 Q 100 205 100 212 Q 100 219 101 220 H 137 Q 139 172 144 122 Z M 292 458 Q 301 450 311 442 Q 321 435 331 429 Q 325 439 319 449 Q 314 460 308 470 Q 312 472 315 474 Q 318 476 321 478 Q 335 463 348 448 Q 361 434 374 419 Q 369 414 364 409 Q 360 405 355 401 Q 352 398 347 398 Q 340 399 332 399 Q 325 400 318 401 Q 313 401 311 405 L 285 447 L 284 450 Q 287 454 292 458 Z M 462 24 Q 447 21 432 20 Q 417 19 401 24 Q 401 35 401 45 Q 401 56 402 67 H 462 Z M 390 302 Q 393 288 393 275 Q 393 262 389 248 Q 379 250 370 251 Q 361 252 351 253 Q 351 266 351 277 Q 352 289 352 301 Q 362 301 371 301 Q 381 301 390 302 Z M 389 212 Q 391 198 391 185 Q 391 172 387 158 Q 378 159 369 161 Q 360 162 351 163 Q 351 176 350 187 Q 350 199 351 211 Q 360 211 369 211 Q 379 211 389 212 Z M 164 7 Q 149 9 134 13 Q 119 17 106 25 Q 107 30 109 33 Q 111 36 112 40 Q 113 43 115 44 Q 117 45 120 45 Q 130 46 139 46 Q 147 46 157 47 H 172 Q 170 37 168 27 Q 166 17 164 7 Z M 157 318 Q 153 319 149 319 Q 146 319 143 320 Q 139 321 138 325 Q 137 332 135 339 Q 133 346 132 353 Q 131 357 131 361 Q 130 365 130 370 H 162 Q 165 343 157 318 Z M 259 341 Q 260 335 258 329 Q 256 325 255 321 Q 253 317 251 313 Q 248 314 246 315 Q 244 316 241 316 Q 237 318 237 321 Q 234 332 231 343 Q 229 353 226 364 Q 226 366 226 371 Q 235 369 243 368 Q 251 367 259 365 Z M 198 221 Q 199 212 200 204 Q 201 195 203 186 Q 192 185 182 186 Q 172 186 162 187 Q 161 196 161 204 Q 160 212 160 221 Z M 245 299 Q 250 302 254 304 Q 259 307 264 309 Q 263 314 262 316 Q 260 322 267 322 Q 271 322 276 322 Q 280 322 285 322 Q 286 322 287 322 Q 287 321 288 321 Q 287 313 287 306 Q 287 298 286 289 Q 276 290 266 290 Q 257 291 247 292 Q 246 293 246 295 Q 246 297 245 299 Z M 284 422 Q 283 418 282 413 Q 280 408 279 404 Q 276 405 273 405 Q 270 405 267 405 Q 266 402 265 399 Q 264 395 263 392 Q 258 393 253 394 Q 248 395 243 396 Q 242 400 242 403 Q 242 406 241 410 Q 244 408 247 407 Q 249 407 252 406 Q 255 410 258 415 Q 262 419 266 423 Q 269 422 272 426 Q 274 429 277 432 Q 279 435 281 439 Q 284 434 286 430 Q 288 427 291 422 Z M 237 138 Q 240 140 242 141 Q 246 144 250 147 Q 254 150 257 154 Q 259 157 262 159 Q 264 161 267 164 Q 274 169 278 176 Q 275 179 274 181 Q 272 184 270 186 Q 270 187 271 187 Q 273 186 276 185 Q 278 184 281 183 Q 280 175 280 168 Q 280 161 279 154 Q 277 154 274 154 Q 272 154 269 155 Q 267 151 266 147 Q 265 143 264 138 Q 257 138 251 138 Q 244 138 237 138 Z M 279 146 Q 278 129 277 112 Q 277 96 276 79 H 272 Q 272 81 271 82 Q 271 90 270 97 Q 270 105 268 113 Q 267 122 269 130 Q 271 138 273 147 Q 275 147 276 147 Q 278 147 279 146 Z M 145 301 Q 150 304 155 306 Q 160 309 165 312 Q 164 316 165 320 Q 166 324 167 327 H 168 Q 170 319 172 311 Q 173 302 176 294 Q 169 294 161 294 Q 154 294 148 295 Q 146 298 145 301 Z M 209 131 Q 210 128 210 126 Q 210 124 210 121 H 166 Q 166 124 166 126 Q 166 128 165 131 Z M 84 147 Q 83 154 83 161 Q 83 167 82 173 Q 80 179 82 184 Q 84 188 87 194 Q 90 193 92 192 Q 92 180 92 169 Q 91 158 91 146 Q 89 147 88 147 Q 86 147 84 147 Z M 146 395 Q 145 398 145 399 Q 145 401 145 402 Q 151 406 154 412 Q 157 417 161 421 Q 163 421 164 421 Q 165 421 166 420 Q 165 414 164 407 Q 163 401 162 394 Q 158 395 154 395 Q 150 395 146 395 Z M 398 236 Q 390 236 383 235 Q 375 235 368 236 V 244 Q 375 243 382 243 Q 388 242 394 241 Q 395 244 396 247 Q 396 250 398 252 H 398 Z M 395 412 Q 391 413 387 413 Q 383 413 379 414 Q 382 417 384 419 Q 386 420 388 422 Q 390 420 392 417 Q 393 415 395 412 Z M 280 240 Q 283 239 283 238 Q 283 237 282 234 Q 281 236 281 237 Q 281 239 280 240 Z M 396 166 Q 398 163 395 161 Q 395 163 396 166 Z" fill="black" />
  </g>
  <g class="defect" id="01">
    <path d="M 273 31 Q 307 14 311 25" fill="none" stroke="red" stroke-width="3" />
  </g>
  <g class="defect" id="02">
    <path d="M 432 319 Q 427 335 456 319" fill="none" stroke="red" stroke-width="3" />
  </g>
  <g class="defect" id="03">
    <path d="M 343 178 Q 324 92 342 36" fill="none" stroke="red" stroke-width="3" />
  </g>
</svg>