<svg xmlns="http://www.w3.org/2000/svg" width="512" height="512" viewBox="0 0 512 512">
  <g class="glyph">
    <path d="M 425 13 Q 425 17 425 20 Q 425 23 424 25 Q 428 27 433 28 Q 438 29 443 30 Q 442 45 441 61 Q 439 76 438 91 Q 449 92 461 93 Q 472 94 483 95 Q 483 104 485 111 Q 488 111 492 112 Q 495 112 499 112 Q 501 117 502 126 Q 503 135 502 145 Q 501 156 500 165 Q 499 175 497 181 H 432 Q 432 190 432 198 Q 431 207 431 216 Q 432 217 435 218 Q 454 227 467 242 Q 468 244 470 245 Q 471 247 472 248 Q 477 252 480 255 Q 484 259 487 264 Q 486 266 485 267 Q 483 269 483 271 Q 483 272 484 275 Q 485 277 486 279 Q 489 278 491 277 Q 494 276 496 275 Q 497 278 498 280 Q 499 282 500 285 Q 508 306 510 329 Q 512 350 511 370 Q 511 391 509 412 Q 508 425 506 437 Q 504 449 502 462 Q 502 464 502 465 Q 501 467 501 469 Q 493 470 485 469 Q 477 468 469 467 Q 469 470 469 473 Q 469 476 469 479 Q 465 480 461 482 Q 457 483 452 484 Q 436 489 419 492 Q 402 495 385 497 Q 377 497 371 496 Q 364 495 356 494 Q 355 494 353 493 Q 352 493 350 493 Q 351 489 351 486 Q 351 483 352 479 Q 348 478 346 478 Q 345 478 342 482 Q 341 483 340 485 Q 339 487 338 488 Q 321 480 308 467 Q 314 461 298 456 Q 286 446 279 433 Q 272 420 268 405 Q 266 395 264 384 Q 263 374 262 363 Q 261 380 260 397 Q 260 413 258 430 Q 257 446 255 462 Q 253 478 250 495 Q 244 496 238 496 Q 232 495 225 496 V 478 Q 223 480 223 482 Q 223 484 222 487 Q 221 489 221 491 Q 221 493 220 495 Q 219 498 219 500 Q 218 502 217 505 Q 214 504 211 503 Q 209 503 206 503 V 489 Q 201 488 197 487 Q 193 486 188 485 V 472 Q 187 471 185 471 Q 184 470 182 470 Q 180 470 179 470 Q 177 469 175 468 Q 173 466 170 466 Q 167 467 164 467 H 134 Q 133 473 134 479 Q 135 484 135 491 Q 106 500 74 497 Q 74 493 73 489 Q 73 485 72 480 Q 68 480 64 480 Q 60 479 56 479 Q 52 442 49 406 Q 45 369 43 332 Q 45 331 48 330 Q 50 329 53 328 V 327 Q 51 327 50 327 Q 48 325 46 326 Q 44 327 43 324 Q 42 322 40 320 Q 39 319 39 316 Q 38 313 38 310 Q 37 307 36 304 H 23 Q 8 244 0 182 Q 9 177 18 175 Q 27 173 37 172 Q 34 159 32 148 Q 30 136 28 124 Q 26 111 24 100 Q 22 88 19 75 Q 17 63 15 51 Q 14 39 12 27 Q 18 24 25 22 Q 31 20 38 20 Q 38 17 38 15 Q 38 13 38 11 Q 60 7 83 11 Q 84 13 84 14 Q 84 16 84 19 Q 86 18 87 18 Q 88 18 89 18 Q 117 6 148 3 Q 164 0 180 2 Q 195 4 210 13 Q 211 13 212 14 Q 213 15 215 15 Q 214 20 213 23 Q 219 28 224 23 Q 228 26 231 30 Q 234 34 236 38 Q 237 39 238 40 Q 239 42 242 42 Q 243 42 244 42 Q 244 43 245 44 Q 252 51 257 59 Q 261 67 265 76 Q 265 78 266 79 Q 266 81 267 83 Q 278 84 288 84 Q 299 84 311 85 Q 311 90 311 94 Q 311 97 312 102 Q 315 101 315 99 Q 316 96 317 95 Q 318 92 318 90 Q 318 88 319 85 Q 324 86 330 86 Q 335 86 341 86 V 11 Q 362 4 383 6 Q 404 7 425 13 Z M 474 267 Q 463 272 451 277 Q 440 282 428 286 Q 436 276 444 266 Q 453 256 461 246 Q 459 244 457 242 Q 435 219 402 218 Q 377 216 356 224 Q 334 231 314 244 Q 313 244 312 245 Q 319 262 330 276 Q 340 289 353 301 Q 354 301 354 301 Q 357 299 358 298 Q 376 286 399 283 Q 406 283 411 285 Q 415 288 418 294 Q 419 296 419 298 Q 420 299 421 301 Q 423 308 425 316 Q 426 323 427 330 Q 429 353 429 374 Q 428 396 426 418 Q 426 422 426 426 Q 426 431 425 435 Q 430 437 437 439 Q 444 441 452 442 Q 459 443 467 443 Q 474 444 478 443 Q 479 441 479 440 Q 484 415 486 390 Q 488 365 488 339 Q 488 325 486 311 Q 485 297 480 283 Q 479 278 477 275 Q 475 271 474 267 Z M 85 238 Q 91 236 96 234 Q 102 232 108 231 Q 145 221 180 218 Q 187 218 192 218 Q 197 218 203 218 Q 215 218 215 229 Q 215 232 215 235 Q 215 237 214 240 Q 211 248 210 256 Q 208 265 205 272 Q 204 273 204 275 Q 204 276 203 277 Q 213 283 224 288 Q 234 293 246 296 Q 249 288 252 281 Q 255 275 257 267 Q 261 255 263 242 Q 266 230 265 216 Q 263 189 242 174 Q 231 166 216 163 Q 205 161 195 161 Q 184 161 173 162 Q 149 163 127 166 Q 105 170 82 175 Q 80 175 79 176 Q 77 177 75 177 Q 75 187 76 195 Q 76 204 76 213 Q 75 221 78 227 Q 81 232 85 238 Z M 84 25 Q 85 38 86 49 Q 87 61 89 73 Q 89 79 92 82 Q 95 85 97 89 Q 99 87 100 87 Q 112 81 124 76 Q 137 71 149 68 Q 160 65 172 65 Q 185 65 189 77 Q 192 87 192 97 Q 192 118 189 138 Q 188 142 187 146 Q 187 149 187 153 Q 193 154 199 154 Q 205 154 211 155 Q 217 156 223 158 Q 229 159 235 161 Q 236 156 237 151 Q 239 146 240 141 Q 242 126 244 112 Q 246 97 245 82 Q 242 55 227 35 L 223 31 Q 215 34 209 38 Q 202 42 194 46 Q 197 38 200 31 Q 203 24 205 18 Q 203 17 204 17 Q 203 15 201 15 Q 182 6 160 7 Q 144 8 129 12 Q 114 15 99 20 Q 96 21 92 23 Q 89 24 84 25 Z M 268 158 Q 320 157 371 157 Q 422 156 474 155 Q 477 142 477 129 Q 478 115 476 101 Q 438 99 400 96 Q 363 94 324 92 Q 320 103 316 112 Q 312 122 306 131 Q 304 121 304 111 Q 304 101 303 91 Q 294 90 286 90 Q 277 90 269 90 Q 266 107 265 124 Q 264 141 268 158 Z M 226 470 Q 233 428 236 386 Q 239 344 235 302 Q 224 298 214 293 Q 203 288 194 281 Q 196 272 200 265 Q 203 257 204 248 Q 201 246 198 245 Q 195 244 192 243 Q 189 242 185 241 Q 174 239 163 239 Q 152 240 141 243 Q 134 245 127 247 Q 120 249 113 252 Q 113 262 113 271 Q 114 281 119 289 Q 121 292 122 295 Q 123 297 125 300 Q 127 303 128 306 Q 130 308 132 311 Q 137 309 141 307 Q 145 305 149 303 Q 149 277 151 252 H 152 Q 155 264 158 276 Q 162 287 165 299 H 169 Q 177 299 180 305 Q 182 307 183 309 Q 184 312 184 314 Q 185 318 186 322 Q 187 326 187 330 Q 185 353 185 376 Q 184 398 184 421 Q 183 430 183 439 Q 182 447 182 456 Q 182 457 182 459 Q 182 461 183 462 Q 187 454 189 447 Q 192 440 195 433 Q 196 433 196 433 V 470 H 197 Q 202 451 207 432 Q 212 413 217 395 H 218 Q 218 414 217 433 Q 217 452 216 471 Q 219 470 226 470 Z M 351 411 Q 343 405 341 401 Q 338 397 337 390 Q 336 385 336 381 Q 335 376 335 372 Q 334 338 340 305 Q 342 299 337 294 Q 322 280 312 261 Q 311 258 309 256 Q 308 253 306 252 Q 303 250 301 250 Q 298 250 295 250 Q 291 249 288 249 Q 284 250 280 250 Q 279 256 278 262 Q 277 268 276 275 Q 273 291 271 308 Q 270 324 270 342 Q 270 355 271 369 Q 272 382 275 396 Q 277 410 283 422 Q 288 435 298 445 Q 303 449 308 454 Q 313 458 319 461 Q 327 448 335 436 Q 343 423 351 411 Z M 110 460 Q 109 441 108 420 Q 108 400 107 380 Q 107 356 107 332 Q 106 308 106 283 V 262 V 258 Q 86 255 79 257 L 82 290 Q 77 292 73 293 Q 69 295 65 296 Q 60 297 56 298 Q 53 299 48 301 Q 49 305 49 309 Q 49 313 49 317 Q 59 318 68 318 Q 72 318 76 319 Q 81 319 85 320 Q 76 324 68 327 Q 59 331 51 335 Q 54 370 56 403 Q 59 437 63 470 Q 88 472 110 467 Z M 75 15 Q 60 14 45 15 Q 45 17 45 19 Q 44 20 44 22 Q 44 28 44 33 Q 44 39 44 44 Q 44 50 40 50 Q 38 50 37 48 Q 36 46 35 45 Q 34 41 33 38 Q 33 34 32 31 Q 31 29 29 27 Q 27 28 24 29 Q 22 29 19 30 Q 24 65 30 100 Q 36 136 43 170 Q 48 170 53 170 Q 59 170 64 170 Q 71 172 77 169 Q 83 167 89 166 Q 86 128 83 91 Q 79 54 75 15 Z M 74 286 Q 74 282 73 280 Q 73 273 72 266 Q 71 259 71 251 Q 70 234 69 216 Q 68 199 67 182 Q 67 177 63 177 Q 51 176 41 177 Q 30 177 19 180 L 7 183 Q 12 211 17 239 Q 22 266 28 294 Q 40 294 51 292 Q 63 290 74 286 Z M 420 399 Q 420 397 420 395 Q 420 394 420 393 Q 420 383 420 373 Q 421 364 420 354 Q 420 343 419 333 Q 418 323 416 313 Q 415 312 415 311 Q 415 309 415 308 Q 408 309 402 311 Q 396 312 391 315 Q 385 318 380 321 Q 375 324 370 327 Q 369 326 367 325 Q 366 324 364 323 Q 361 344 360 364 Q 359 384 361 405 Q 377 406 391 404 Q 405 402 420 399 Z M 348 85 Q 364 86 380 87 Q 396 88 413 89 Q 414 71 415 53 Q 416 35 417 18 Q 400 14 382 12 Q 365 11 348 15 Z M 420 406 Q 402 410 386 412 Q 369 415 352 411 Q 349 426 347 440 Q 344 454 342 469 Q 349 472 362 472 Q 376 472 391 469 Q 406 467 420 464 Q 435 460 444 456 Q 443 451 443 448 Q 440 447 436 446 Q 433 446 430 444 Q 427 443 423 442 Q 420 441 417 440 Q 417 431 418 423 Q 420 415 420 406 Z M 263 166 Q 262 169 262 172 Q 262 175 261 178 Q 259 183 264 186 Q 283 199 288 225 Q 289 229 290 233 Q 290 237 291 242 Q 293 242 295 243 Q 298 243 300 244 Q 301 244 303 242 Q 309 239 314 236 Q 320 232 325 229 Q 330 226 334 225 Q 338 223 342 221 V 183 Q 326 183 311 183 Q 296 184 281 184 Q 280 180 278 175 Q 277 171 276 167 Q 273 166 270 166 Q 267 166 263 166 Z M 131 158 Q 140 157 150 156 Q 159 155 169 154 Q 169 147 167 136 Q 166 126 163 122 Q 156 124 148 127 Q 139 130 131 131 Q 137 125 142 119 Q 148 113 154 107 Q 148 100 138 97 Q 131 95 124 95 Q 117 95 110 96 Q 105 97 100 99 Q 95 100 91 102 Q 92 108 92 114 Q 93 121 94 127 Q 94 133 97 138 Q 100 142 104 147 Q 108 145 112 143 Q 116 142 120 140 Q 126 138 128 144 Q 129 146 130 148 Q 130 150 130 152 Q 130 155 131 158 Z M 408 163 Q 394 163 379 163 Q 364 163 350 164 Q 349 167 349 175 Q 349 183 350 192 Q 350 201 350 208 Q 350 216 351 217 Q 358 216 364 214 Q 371 213 378 211 Q 385 210 392 210 Q 399 210 406 210 Q 406 198 407 187 Q 407 175 408 163 Z M 114 335 Q 115 345 114 354 Q 114 363 115 373 H 167 Q 169 361 169 350 Q 168 338 165 327 Q 152 329 139 331 Q 127 333 114 335 Z M 166 440 Q 168 428 168 417 Q 168 406 164 395 Q 152 396 140 398 Q 128 400 115 401 Q 115 421 117 439 H 140 Q 142 430 143 422 Q 144 413 146 405 Q 149 413 150 422 Q 151 431 154 440 Z M 174 133 Q 180 132 181 131 Q 183 131 183 128 Q 184 120 184 112 Q 184 105 185 97 Q 185 95 184 90 Q 168 93 156 97 Q 158 101 161 103 Q 165 105 164 110 Q 176 115 182 125 Q 180 126 178 128 Q 177 130 174 133 Z M 174 319 Q 172 329 175 338 Q 178 339 178 336 Q 179 331 178 327 Q 177 323 174 319 Z M 260 322 Q 261 326 261 330 Q 261 334 262 339 Q 264 325 260 322 Z M 138 324 Q 137 322 136 321 Q 135 320 134 319 Q 130 320 132 325 Q 133 325 134 325 Q 136 324 138 324 Z M 173 398 Q 174 401 174 402 Q 174 404 175 405 Q 177 401 177 400 Q 176 399 173 398 Z" fill="black" />
  </g>
  <g class="defect" id="01">
    <path d="M 308 467 Q 314 461 298 456" fill="none" stroke="red" stroke-width="3" />
  </g>
</svg>