<svg xmlns="http://www.w3.org/2000/svg" width="512" height="512" viewBox="0 0 512 512">
  <g class="glyph">
    <path d="M 333 43 Q 282 43 243 55 Q 230 60 230 43 Q 252 9 269 9 Q 282 13 290 13 H 397 Q 489 17 512 21 Q 495 60 478 60 Q 444 51 384 43 V 77 Q 401 85 422 77 Q 457 85 457 107 V 226 Q 452 243 422 243 Q 414 239 414 119 Q 405 107 393 107 H 341 Q 324 111 311 115 Q 307 124 307 132 V 222 Q 307 239 286 243 Q 273 243 269 230 V 137 Q 269 107 265 98 Q 265 73 290 77 Q 303 85 333 77 Z M 183 47 Q 192 51 192 64 Q 188 81 183 107 Q 209 94 230 77 Q 239 77 243 81 Q 260 102 247 111 Q 226 115 183 124 V 158 Q 183 179 222 175 Q 235 171 247 171 Q 256 171 256 183 Q 247 209 205 213 Q 175 213 162 209 Q 154 196 149 183 Q 154 145 154 115 V 68 Q 158 43 183 47 Z M 397 243 Q 414 252 435 265 Q 495 307 495 320 Q 495 329 482 329 Q 444 320 401 290 Q 388 273 380 260 Q 375 235 397 243 Z M 350 115 Q 375 119 380 141 Q 384 192 358 243 Q 303 324 235 320 Q 201 307 201 294 Q 201 290 226 286 Q 252 277 286 265 Q 337 235 341 188 Q 341 154 337 137 Q 333 119 350 115 Z M 154 0 Q 166 0 162 17 Q 145 38 128 60 V 286 Q 128 299 124 311 Q 115 324 102 324 Q 73 324 77 299 Q 68 217 81 171 V 90 Q 47 119 30 111 Q 0 94 0 68 Q 9 55 34 47 Q 68 38 102 26 Q 128 13 154 0 Z" fill="black" />
  </g>
  <g class="defect" id="01">
    <path d="M 397 13 Q 489 17 512 21" fill="none" stroke="red" stroke-width="3" />
  </g>
  <g class="defect" id="02">
    <path d="M 77 299 Q 68 217 81 171" fill="none" stroke="red" stroke-width="3" />
  </g>
</svg>