<svg xmlns="http://www.w3.org/2000/svg" width="512" height="512" viewBox="0 0 512 512">
  <g class="glyph">
    <path d="M 314 157 Q 297 215 306 252 Q 297 281 281 297 Q 260 314 227 310 Q 206 306 178 289 Q 149 268 161 264 Q 198 281 244 273 Q 273 260 277 206 V 161 Q 277 140 260 145 H 194 Q 161 165 140 169 Q 124 165 132 157 Q 161 136 190 107 Q 215 107 206 124 Q 239 124 260 120 Q 318 99 314 157 Z M 322 136 Q 347 83 351 17 Q 355 0 384 17 Q 396 25 396 41 Q 388 70 380 87 Q 405 87 454 83 Q 458 83 467 91 Q 475 103 462 107 Q 429 111 401 116 Q 425 120 421 149 Q 417 178 401 206 Q 434 239 512 273 Q 500 293 475 310 Q 429 326 409 293 Q 392 273 376 244 Q 355 268 339 277 Q 301 285 310 268 Q 310 264 322 256 Q 343 239 359 223 Q 339 194 326 178 Q 326 169 330 165 Q 334 161 339 161 L 376 190 Q 388 165 388 116 Q 376 116 367 111 Q 322 157 322 136 Z M 190 194 Q 182 198 182 215 Q 182 219 186 219 H 211 Q 227 219 223 194 Z M 256 186 V 206 Q 256 215 252 227 Q 244 244 227 244 Q 223 239 215 235 H 194 Q 182 239 173 244 Q 161 244 153 235 Q 153 206 149 186 Q 149 178 161 173 Q 169 173 186 178 H 223 Q 235 173 244 173 Q 252 178 256 186 Z M 223 54 H 248 Q 248 25 260 25 Q 285 25 285 54 Q 301 58 314 58 Q 326 62 318 74 Q 310 78 285 78 Q 285 99 268 107 H 256 Q 248 103 248 91 V 78 H 223 V 95 Q 223 103 206 107 Q 186 103 186 95 V 78 Q 157 83 145 87 Q 132 87 136 74 Q 149 54 161 54 H 182 Q 190 54 186 37 Q 190 25 206 25 Q 223 25 223 54 Z M 83 99 Q 50 124 33 124 Q 21 124 8 103 Q 0 83 4 74 Q 70 58 149 12 Q 157 8 161 21 Q 161 33 124 70 V 301 Q 120 318 103 322 Q 83 326 83 293 Z" fill="black" />
  </g>
  <g class="defect" id="01">
    <path d="M 314 157 Q 297 215 306 252" fill="none" stroke="red" stroke-width="3" />
  </g>
</svg>