<svg xmlns="http://www.w3.org/2000/svg" width="512" height="512" viewBox="0 0 512 512">
  <g class="glyph">
    <path d="M 169 173 Q 169 149 173 140 Q 178 120 190 124 Q 202 128 211 132 H 413 Q 421 132 438 124 Q 458 124 458 153 Q 458 178 454 202 Q 450 211 442 211 Q 434 211 434 194 Q 434 178 429 165 Q 425 153 413 149 Q 326 145 219 149 Q 206 149 198 157 Q 194 182 190 198 Q 186 206 178 206 Q 173 202 169 173 Z M 343 33 Q 438 37 438 41 Q 446 50 434 54 H 256 Q 223 54 194 62 Q 182 62 190 45 Q 198 33 211 33 Q 248 33 277 29 Q 285 4 297 0 Q 318 0 330 12 Q 339 25 343 33 Z M 388 169 Q 376 178 355 178 H 326 Q 318 186 310 190 Q 322 194 330 202 Q 339 202 355 215 Q 367 202 380 186 Q 388 178 401 190 Q 417 198 401 206 Q 380 215 367 223 Q 446 256 512 260 Q 512 273 483 301 Q 458 322 434 301 Q 401 277 367 252 Q 343 231 339 235 Q 339 252 343 273 Q 347 289 339 310 Q 326 334 306 339 Q 293 343 260 330 Q 231 310 244 306 Q 277 318 293 306 Q 306 289 301 268 Q 260 289 231 297 Q 206 306 186 310 Q 165 314 149 306 Q 132 297 136 289 Q 145 293 198 281 Q 252 268 297 244 L 293 223 Q 277 235 256 244 Q 227 256 198 256 Q 169 256 182 244 Q 248 231 289 206 L 285 198 Q 235 219 206 219 Q 186 215 194 206 Q 260 194 289 178 H 252 Q 239 178 227 182 Q 219 182 219 173 Q 219 165 231 161 H 359 Q 388 161 388 169 Z M 392 78 V 107 Q 392 120 376 116 H 293 Q 268 116 244 120 Q 227 124 227 116 Q 223 103 219 91 Q 215 74 231 70 H 363 Q 367 66 376 66 Q 392 66 392 78 Z M 359 83 H 277 Q 267 66 252 91 Q 252 99 256 103 H 351 Q 363 103 363 95 Q 363 87 359 83 Z M 128 301 Q 128 326 103 330 Q 83 326 87 310 V 107 Q 64 124 33 128 Q 0 103 12 87 Q 78 66 161 12 Q 178 4 173 25 Q 161 45 128 74 Z" fill="black" />
  </g>
  <g class="defect" id="01">
    <path d="M 277 83 Q 267 66 252 91" fill="none" stroke="red" stroke-width="3" />
  </g>
  <g class="defect" id="02">
    <path d="M 87 107 Q 64 124 33 128" fill="none" stroke="red" stroke-width="3" />
  </g>
</svg>