<svg xmlns="http://www.w3.org/2000/svg" width="512" height="512" viewBox="0 0 512 512">
  <g class="glyph">
    <path d="M 403 23 Q 421 50 381 54 Q 362 54 340 59 Q 335 82 340 104 Q 494 104 512 109 Q 503 122 485 145 Q 467 163 449 154 Q 426 136 340 136 Q 335 204 340 285 Q 349 295 390 295 Q 403 290 403 276 Q 408 258 399 249 Q 372 249 358 254 Q 344 254 349 240 Q 358 222 372 222 Q 381 227 399 227 Q 412 227 408 199 Q 394 190 362 190 Q 349 195 349 177 Q 358 159 372 163 Q 385 172 399 172 Q 421 159 435 163 Q 470 173 453 199 Q 444 263 444 308 Q 444 340 412 340 Q 313 317 222 340 Q 208 340 195 322 Q 190 313 190 304 Q 199 258 181 195 Q 172 172 217 172 Q 236 172 254 159 Q 267 150 276 163 Q 290 181 263 186 Q 227 190 227 199 L 231 222 Q 261 222 276 227 Q 285 240 272 249 H 231 Q 231 295 240 295 Q 263 290 285 290 Q 290 208 285 136 Q 222 136 177 150 Q 159 154 163 136 Q 181 100 208 100 Q 222 109 285 104 Q 295 77 281 63 Q 249 63 222 59 Q 199 63 208 45 Q 213 32 263 36 Q 344 27 376 5 Q 390 0 403 23 Z M 150 190 Q 139 200 122 208 Q 104 204 77 204 Q 63 204 45 208 Q 27 213 23 204 Q 0 145 0 82 Q 9 59 32 59 Q 50 68 77 68 H 109 Q 118 63 127 59 Q 159 63 159 86 Q 154 131 150 190 Z M 50 136 Q 54 172 72 168 H 95 Q 113 168 113 127 Q 113 100 95 100 H 72 Q 45 100 50 136 Z" fill="black" />
  </g>
  <g class="defect" id="01">
    <path d="M 150 190 Q 139 200 122 208" fill="none" stroke="red" stroke-width="3" />
  </g>
  <g class="defect" id="02">
    <path d="M 435 163 Q 470 173 453 199" fill="none" stroke="red" stroke-width="3" />
  </g>
  <g class="defect" id="03">
    <path d="M 231 222 Q 261 222 276 227" fill="none" stroke="red" stroke-width="3" />
  </g>
</svg>