<svg xmlns="http://www.w3.org/2000/svg" width="512" height="512" viewBox="0 0 512 512">
  <g class="glyph">
    <path d="M 298 21 Q 311 34 302 50 L 294 71 Q 344 76 382 71 Q 432 50 441 97 Q 445 130 432 189 Q 421 224 374 260 Q 353 269 348 256 Q 394 222 399 147 Q 403 101 374 101 Q 315 97 277 101 Q 269 118 260 130 Q 264 138 315 138 Q 361 126 361 155 Q 357 180 357 206 Q 348 235 315 218 Q 285 214 264 218 Q 252 285 327 294 Q 420 302 499 260 Q 496 256 495 294 Q 466 353 403 353 Q 273 340 239 298 Q 218 277 222 201 Q 222 176 227 151 Q 218 164 189 168 Q 172 168 180 151 Q 243 97 260 17 Q 277 0 298 21 Z M 264 193 Q 319 197 323 185 Q 332 164 302 159 Q 290 159 269 164 Q 256 176 264 193 Z M 143 138 Q 138 172 143 206 L 193 193 Q 214 197 201 214 Q 126 248 46 277 Q 21 285 8 256 Q 0 239 25 235 Q 80 218 97 214 Q 97 159 92 138 Q 55 143 38 147 Q 21 147 21 134 Q 29 101 46 101 Q 67 109 97 105 Q 97 76 92 46 Q 88 17 118 17 Q 155 21 147 55 Q 143 76 143 105 Q 201 109 189 130 Q 180 138 143 138 Z" fill="black" />
  </g>
  <g class="defect" id="01">
    <path d="M 499 260 Q 496 256 495 294" fill="none" stroke="red" stroke-width="3" />
  </g>
  <g class="defect" id="02">
    <path d="M 432 189 Q 421 224 374 260" fill="none" stroke="red" stroke-width="3" />
  </g>
</svg>