<svg xmlns="http://www.w3.org/2000/svg" width="512" height="512" viewBox="0 0 512 512">
  <g class="glyph">
    <path d="M 280 118 H 319 V 105 H 280 Z M 280 140 V 158 H 319 V 140 Z M 359 158 Q 433 162 455 166 Q 468 188 424 184 Q 391 198 368 179 Q 468 245 512 245 Q 468 302 438 276 Q 385 228 324 179 H 271 Q 254 197 236 214 Q 210 236 184 254 Q 158 267 140 263 Q 123 254 131 245 Q 140 241 162 232 Q 210 210 236 179 Q 193 184 162 193 Q 153 197 153 184 Q 158 162 171 158 Q 206 162 245 158 V 140 H 219 Q 201 140 184 144 Q 175 140 179 131 Q 184 118 197 118 Q 232 123 245 118 V 105 H 232 Q 197 123 193 101 Q 188 57 184 26 Q 179 0 214 9 Q 302 18 381 9 Q 398 0 416 13 Q 424 26 420 44 Q 416 74 411 96 Q 398 118 372 105 H 359 V 118 Q 407 118 424 123 Q 442 136 424 140 H 359 Z M 372 66 228 70 Q 223 88 241 88 L 368 83 Q 376 79 372 66 Z M 368 31 Q 280 31 232 31 Q 223 39 228 53 Q 324 48 372 48 Q 381 35 368 31 Z M 315 214 V 245 Q 389 289 424 311 Q 429 324 411 324 Q 363 306 315 276 V 298 Q 315 328 302 337 Q 276 350 236 328 Q 210 306 228 306 Q 236 311 258 311 Q 271 315 271 263 Q 241 298 193 311 Q 175 311 175 298 Q 175 280 188 280 Q 228 271 271 249 V 210 Q 271 197 284 193 Q 315 193 315 214 Z M 258 241 Q 271 254 236 249 Q 223 245 223 236 Q 223 223 236 223 Z M 350 223 Q 359 219 368 228 Q 376 236 368 245 Q 354 249 341 254 Q 311 254 333 245 Q 341 232 350 223 Z M 144 184 Q 144 206 118 201 Q 101 197 74 197 Q 61 197 39 201 Q 18 210 13 175 Q 9 131 0 88 Q 9 61 31 61 Q 48 70 74 70 H 105 Q 114 66 123 61 Q 153 66 153 88 Q 149 127 144 184 Z M 48 131 Q 53 166 70 162 H 92 Q 109 162 109 123 Q 109 101 92 101 H 70 Q 44 101 48 131 Z" fill="black" />
  </g>
  <g class="defect" id="01">
    <path d="M 341 254 Q 311 254 333 245" fill="none" stroke="red" stroke-width="3" />
  </g>
  <g class="defect" id="02">
    <path d="M 424 184 Q 391 198 368 179" fill="none" stroke="red" stroke-width="3" />
  </g>
</svg>