<svg xmlns="http://www.w3.org/2000/svg" width="512" height="512" viewBox="0 0 512 512">
  <g class="glyph">
    <path d="M 67 147 Q 38 147 17 155 Q 4 159 0 143 Q 8 113 34 105 Q 55 113 80 109 Q 88 84 109 55 Q 126 29 143 8 Q 151 0 164 4 Q 185 4 176 25 Q 147 63 122 109 Q 151 113 164 109 Q 214 97 201 138 Q 189 189 164 227 Q 197 248 231 264 Q 239 285 222 285 Q 176 273 138 252 Q 101 285 59 298 Q 29 298 13 281 Q 4 269 29 264 Q 76 256 105 231 Q 84 218 67 193 Q 55 168 67 147 Z M 105 147 Q 88 185 130 210 Q 140 166 159 143 Q 138 138 105 147 Z M 273 29 Q 332 38 403 29 Q 445 29 441 46 Q 441 63 424 63 Q 386 59 348 63 L 353 130 Q 415 134 470 134 Q 504 134 512 138 Q 525 175 487 180 Q 466 210 420 185 Q 386 172 357 168 V 294 Q 361 327 327 336 Q 298 336 302 306 V 168 Q 256 164 222 180 Q 201 180 214 151 Q 235 118 269 130 Q 306 134 302 118 V 63 Q 264 59 227 67 Q 210 67 214 50 Q 222 34 239 25 Q 264 40 273 29 Z" fill="black" />
  </g>
  <g class="defect" id="01">
    <path d="M 239 25 Q 264 40 273 29" fill="none" stroke="red" stroke-width="3" />
  </g>
  <g class="defect" id="02">
    <path d="M 512 138 Q 525 175 487 180" fill="none" stroke="red" stroke-width="3" />
  </g>
  <g class="defect" id="03">
    <path d="M 130 210 Q 140 166 159 143" fill="none" stroke="red" stroke-width="3" />
  </g>
</svg>