<svg xmlns="http://www.w3.org/2000/svg" width="512" height="512" viewBox="0 0 512 512">
  <g class="glyph">
    <path d="M 300 67 H 362 Q 370 50 383 17 Q 391 0 412 21 Q 402 24 383 67 H 454 Q 470 79 441 87 H 350 Q 345 100 350 104 H 404 Q 416 104 420 112 Q 425 125 412 125 H 350 Q 345 137 350 146 H 437 Q 454 146 454 154 Q 454 162 445 162 L 350 167 Q 345 187 350 208 H 383 Q 387 196 391 179 Q 400 158 416 171 Q 429 175 425 191 Q 420 204 412 208 Q 491 208 512 212 Q 479 266 445 246 Q 387 229 312 229 Q 237 229 200 246 Q 175 254 183 233 Q 191 204 221 204 Q 241 208 258 208 Q 246 196 237 183 Q 229 171 241 167 Q 221 167 208 171 Q 196 171 200 158 Q 212 142 225 142 Q 262 150 300 146 V 125 Q 283 125 241 129 Q 221 133 225 121 Q 229 108 246 104 H 300 V 87 Q 246 87 212 96 Q 191 100 204 75 Q 212 62 221 62 Q 246 67 275 67 L 258 46 Q 246 17 275 12 Q 291 8 300 67 Z M 300 167 H 262 Q 275 183 279 208 H 300 Q 308 191 300 167 Z M 279 250 Q 333 258 391 250 Q 437 237 433 287 Q 429 308 425 329 Q 416 354 375 333 Q 337 325 283 333 Q 279 337 275 341 Q 250 354 237 333 Q 233 308 229 279 Q 229 237 279 250 Z M 383 279 Q 333 271 283 275 Q 271 279 283 312 Q 325 316 366 312 Q 391 312 383 279 Z M 142 142 Q 137 175 142 208 L 179 196 Q 196 196 183 221 Q 125 250 46 279 Q 21 287 8 258 Q 0 237 25 233 Q 79 221 96 216 Q 96 162 92 142 Q 54 146 37 150 Q 21 150 21 137 Q 29 104 46 104 Q 67 112 96 108 Q 96 79 92 50 Q 87 21 117 21 Q 154 25 146 58 Q 142 79 142 108 Q 200 112 187 133 Q 179 142 142 142 Z" fill="black" />
  </g>
  <g class="defect" id="01">
    <path d="M 412 21 Q 402 24 383 67" fill="none" stroke="red" stroke-width="3" />
  </g>
  <g class="defect" id="02">
    <path d="M 300 125 Q 283 125 241 129" fill="none" stroke="red" stroke-width="3" />
  </g>
</svg>