<svg xmlns="http://www.w3.org/2000/svg" width="512" height="512" viewBox="0 0 512 512">
  <g class="glyph">
    <path d="M 121 196 Q 137 167 142 150 Q 150 133 108 137 Q 96 154 96 167 Q 100 179 121 196 Z M 237 133 H 271 Q 290 46 266 54 Q 254 50 241 54 Q 233 58 237 133 Z M 387 54 Q 379 50 366 54 Q 358 62 358 133 H 395 Q 400 62 387 54 Z M 333 162 H 300 V 241 Q 304 266 279 275 Q 266 275 266 262 Q 275 212 271 162 H 241 Q 241 216 229 250 Q 216 283 183 304 Q 133 321 121 296 Q 121 287 142 283 Q 158 279 175 266 Q 200 250 208 212 Q 212 191 212 162 Q 204 167 196 171 Q 179 175 179 158 Q 183 137 196 133 H 212 Q 212 83 208 37 Q 208 21 229 25 Q 254 37 287 25 Q 304 25 304 42 Q 300 75 300 133 H 333 Q 333 79 325 42 Q 321 21 345 21 Q 383 42 408 21 Q 433 25 433 46 Q 425 67 425 133 Q 470 133 512 137 Q 487 183 458 171 Q 454 167 425 162 Q 425 241 433 279 Q 437 325 404 329 Q 387 329 387 312 L 391 162 H 362 Q 345 187 358 208 Q 350 271 316 296 Q 287 312 271 296 Q 271 287 283 283 Q 300 275 312 258 Q 333 212 333 162 Z M 71 137 Q 65 129 29 150 Q 0 154 4 129 Q 8 112 33 100 Q 54 108 83 104 Q 100 54 117 17 Q 129 0 142 8 Q 154 17 150 37 Q 133 67 121 104 Q 142 108 154 100 Q 179 100 179 125 Q 175 171 146 212 Q 158 221 175 233 Q 187 241 179 250 Q 171 254 154 246 Q 142 241 129 233 Q 100 266 71 279 Q 37 300 21 291 Q 12 287 4 275 Q 21 266 46 258 Q 79 246 104 216 Q 79 196 62 171 Q 62 154 71 137 Z" fill="black" />
  </g>
  <g class="defect" id="01">
    <path d="M 362 162 Q 345 187 358 208" fill="none" stroke="red" stroke-width="3" />
  </g>
  <g class="defect" id="02">
    <path d="M 71 137 Q 65 129 29 150" fill="none" stroke="red" stroke-width="3" />
  </g>
  <g class="defect" id="03">
    <path d="M 271 133 Q 290 46 266 54" fill="none" stroke="red" stroke-width="3" />
  </g>
</svg>