<svg xmlns="http://www.w3.org/2000/svg" width="512" height="512" viewBox="0 0 512 512">
  <g class="glyph">
    <path d="M 83 132 Q 78 185 83 258 Q 83 293 102 283 H 200 Q 224 283 219 171 Q 215 112 210 54 Q 205 0 234 0 Q 263 0 278 20 Q 293 44 283 117 V 258 Q 288 288 312 283 H 400 Q 410 288 429 219 Q 429 180 424 151 Q 414 102 434 98 Q 478 93 473 137 Q 473 215 488 293 Q 512 371 400 341 Q 317 332 224 332 Q 137 332 68 346 Q 0 366 10 302 Q 44 249 39 180 Q 24 102 49 98 Q 83 93 83 132 Z" fill="black" />
  </g>
  <g class="defect" id="01">
    <path d="M 400 283 Q 410 288 429 219" fill="none" stroke="red" stroke-width="3" />
  </g>
</svg>