<svg xmlns="http://www.w3.org/2000/svg" width="512" height="512" viewBox="0 0 512 512">
  <g class="glyph">
    <path d="M 254 4 Q 298 9 289 53 Q 276 125 294 138 Q 370 151 432 142 Q 472 138 472 178 Q 454 254 467 325 Q 459 370 419 361 Q 383 378 410 276 V 209 Q 410 183 378 178 Q 316 165 223 169 Q 183 169 156 178 Q 138 187 138 205 Q 142 249 120 307 Q 98 356 36 338 Q 0 321 22 303 Q 125 280 80 169 Q 76 134 116 138 Q 138 151 151 147 Q 183 142 227 138 Q 227 107 223 36 Q 218 0 254 4 Z M 223 205 H 303 Q 312 205 329 200 Q 365 196 365 227 Q 356 258 356 298 Q 356 338 307 316 Q 263 307 236 316 Q 187 338 183 307 Q 183 267 169 232 Q 174 187 223 205 Z M 218 249 Q 218 289 236 285 H 289 Q 316 289 316 258 Q 321 232 294 232 H 240 Q 208 218 218 249 Z M 174 40 Q 196 58 178 85 Q 156 102 116 116 Q 76 129 49 134 Q 27 138 36 120 Q 102 85 142 45 Q 156 31 174 40 Z M 361 45 Q 436 80 512 85 Q 483 123 485 120 Q 459 142 427 125 Q 396 107 334 76 Q 312 62 321 45 Q 338 27 361 45 Z" fill="black" />
  </g>
  <g class="defect" id="01">
    <path d="M 512 85 Q 483 123 485 120" fill="none" stroke="red" stroke-width="3" />
  </g>
  <g class="defect" id="02">
    <path d="M 240 232 Q 208 218 218 249" fill="none" stroke="red" stroke-width="3" />
  </g>
  <g class="defect" id="03">
    <path d="M 419 361 Q 383 378 410 276" fill="none" stroke="red" stroke-width="3" />
  </g>
</svg>