<svg xmlns="http://www.w3.org/2000/svg" width="512" height="512" viewBox="0 0 512 512">
  <g class="glyph">
    <path d="M 162 225 Q 196 254 187 262 Q 175 266 146 250 Q 108 283 71 296 Q 21 308 12 275 Q 12 271 46 266 Q 87 258 117 233 Q 75 208 71 191 Q 71 171 79 150 Q 42 154 25 158 Q 0 171 8 133 Q 17 117 37 112 Q 62 125 92 117 Q 112 50 129 29 Q 117 17 154 21 Q 171 29 167 42 Q 146 79 133 117 Q 158 121 162 108 Q 196 108 191 137 Q 187 179 162 225 Z M 271 208 Q 258 212 262 225 H 370 Q 370 212 362 208 Z M 121 150 Q 108 167 108 183 Q 117 196 133 208 Q 150 179 150 154 Q 150 146 121 150 Z M 216 29 Q 237 37 283 37 V 17 Q 300 4 296 0 Q 312 0 333 8 Q 341 21 341 33 Q 458 33 462 46 Q 470 54 458 58 Q 425 54 379 54 Q 237 54 204 67 Q 201 67 191 54 Q 196 33 216 29 Z M 237 71 Q 283 75 345 75 Q 387 75 400 71 Q 425 71 429 92 Q 420 125 420 167 Q 420 187 404 183 Q 395 179 375 179 H 271 Q 250 179 233 183 Q 216 187 216 171 Q 216 142 208 96 Q 208 71 237 71 Z M 283 104 Q 312 112 341 104 Q 362 100 362 129 Q 362 154 345 154 Q 333 150 312 150 Q 291 150 279 154 Q 266 154 266 142 Q 266 125 262 117 Q 271 100 283 104 Z M 296 137 H 333 Q 337 129 333 121 H 296 Q 291 129 296 137 Z M 246 96 Q 237 125 246 158 Q 316 162 383 158 Q 391 125 383 96 Q 312 92 246 96 Z M 246 187 Q 316 196 383 187 Q 404 191 408 208 Q 400 233 400 266 Q 404 283 379 279 Q 312 271 254 279 Q 233 283 233 266 Q 229 229 225 208 Q 229 191 246 187 Z M 187 287 Q 291 291 450 291 Q 512 291 508 304 Q 483 354 441 337 Q 395 321 325 316 Q 212 316 179 333 Q 154 345 154 321 Q 158 296 187 287 Z M 366 258 Q 379 250 370 241 H 262 Q 254 254 262 258 Z" fill="black" />
  </g>
  <g class="defect" id="01">
    <path d="M 204 67 Q 201 67 191 54" fill="none" stroke="red" stroke-width="3" />
  </g>
  <g class="defect" id="02">
    <path d="M 129 29 Q 117 17 154 21" fill="none" stroke="red" stroke-width="3" />
  </g>
  <g class="defect" id="03">
    <path d="M 283 17 Q 300 4 296 0" fill="none" stroke="red" stroke-width="3" />
  </g>
</svg>