<svg xmlns="http://www.w3.org/2000/svg" width="512" height="512" viewBox="0 0 512 512">
  <g class="glyph">
    <path d="M 168 210 197 185 Q 206 172 168 172 Q 155 172 147 176 Q 109 185 84 197 Q 67 201 67 185 Q 76 164 88 164 Q 97 168 118 164 Q 138 159 164 155 Q 180 151 201 159 Q 210 159 222 159 Q 239 159 243 176 Q 243 193 185 210 Q 218 210 248 214 Q 260 222 235 227 Q 210 231 189 235 Q 189 285 168 302 Q 155 315 130 319 Q 101 327 63 294 Q 59 285 55 277 Q 55 269 63 273 Q 76 281 101 290 Q 134 294 143 269 Q 151 256 147 239 Q 84 256 25 269 Q 21 273 0 243 Q 4 227 25 227 Q 67 222 109 218 L 143 214 L 130 201 V 193 Q 134 185 143 189 Q 159 193 168 210 Z M 189 109 Q 147 101 130 109 Q 118 122 134 126 Q 164 122 185 126 Q 201 122 189 109 Z M 113 84 Q 122 84 130 88 Q 159 84 189 88 Q 201 84 210 84 Q 231 84 235 97 Q 235 101 235 105 Q 231 122 227 138 Q 222 155 206 147 Q 197 143 185 143 Q 155 138 138 143 Q 122 147 105 147 Q 92 151 88 138 Q 84 122 80 101 Q 80 84 113 84 Z M 126 46 Q 130 17 138 8 Q 155 0 172 8 Q 185 25 193 46 L 248 50 Q 264 63 248 71 Q 172 67 118 71 Q 84 76 55 84 Q 34 92 38 67 Q 55 46 63 46 Q 67 46 76 50 Q 97 55 126 46 Z M 327 109 Q 323 151 319 172 Q 336 185 348 189 Q 361 105 327 109 Z M 290 80 Q 290 50 285 29 Q 277 17 298 13 Q 332 13 332 50 L 327 80 Q 357 80 378 71 Q 394 67 407 88 Q 415 101 407 109 Q 390 130 390 164 Q 390 243 420 260 Q 441 273 512 252 Q 466 357 407 332 Q 378 323 361 285 Q 365 248 348 201 Q 332 210 311 201 Q 302 227 277 256 Q 252 277 222 285 Q 197 285 201 269 Q 206 264 227 256 Q 260 239 277 193 Q 256 185 252 180 Q 235 159 256 143 Q 264 138 285 155 Q 290 130 290 109 Q 277 109 260 118 Q 248 118 248 105 Q 256 80 269 76 Q 277 80 290 80 Z" fill="black" />
  </g>
  <g class="defect" id="01">
    <path d="M 25 269 Q 21 273 0 243" fill="none" stroke="red" stroke-width="3" />
  </g>
  <g class="defect" id="02">
    <path d="M 361 285 Q 365 248 348 201" fill="none" stroke="red" stroke-width="3" />
  </g>
</svg>