<svg xmlns="http://www.w3.org/2000/svg" width="512" height="512" viewBox="0 0 512 512">
  <g class="glyph">
    <path d="M 228 114 Q 232 85 236 65 Q 134 69 134 77 Q 134 118 134 150 Q 134 211 106 260 Q 81 297 45 297 Q 0 289 12 268 Q 77 240 93 175 Q 106 98 89 61 Q 89 49 102 37 Q 114 28 126 37 Q 142 45 240 41 Q 236 20 248 4 Q 256 0 264 0 Q 301 4 301 37 Q 337 41 386 41 Q 451 41 447 49 Q 451 61 439 69 Q 337 65 248 65 Q 284 77 276 98 L 272 110 Q 329 114 398 114 Q 423 114 427 122 Q 431 134 410 138 H 321 Q 313 154 305 191 Q 344 160 358 150 Q 370 142 382 163 Q 386 171 374 179 Q 345 203 309 215 Q 329 252 386 256 Q 467 260 512 232 Q 500 276 484 297 Q 459 337 362 309 Q 280 272 276 236 Q 240 248 223 232 Q 175 305 142 305 Q 118 305 102 284 Q 102 276 114 272 Q 163 264 195 207 Q 219 163 223 138 L 195 142 Q 179 146 163 150 Q 138 150 150 130 Q 163 110 175 110 Q 195 114 228 114 Z M 276 207 Q 284 167 293 138 H 264 Q 248 187 228 223 Q 256 219 276 207 Z M 317 106 Q 297 106 313 93 Q 329 73 349 69 Q 367 93 362 98 Q 341 106 317 106 Z" fill="black" />
  </g>
  <g class="defect" id="01">
    <path d="M 349 69 Q 367 93 362 98" fill="none" stroke="red" stroke-width="3" />
  </g>
  <g class="defect" id="02">
    <path d="M 305 191 Q 344 160 358 150" fill="none" stroke="red" stroke-width="3" />
  </g>
</svg>