<svg xmlns="http://www.w3.org/2000/svg" width="512" height="512" viewBox="0 0 512 512">
  <g class="glyph">
    <path d="M 366 18 Q 390 0 414 6 Q 451 18 451 37 Q 445 73 439 98 Q 458 102 439 146 Q 433 171 396 165 Q 389 146 347 158 Q 262 152 195 158 Q 177 177 177 219 Q 232 226 372 219 Q 414 213 439 213 Q 451 207 469 213 Q 512 232 500 262 Q 488 329 457 384 Q 414 457 305 463 Q 165 475 73 421 Q 37 396 6 372 Q 0 354 30 366 Q 116 402 219 408 Q 329 408 384 360 Q 421 293 396 280 Q 341 256 152 280 Q 128 293 116 286 Q 79 262 85 250 Q 98 213 104 177 Q 110 158 104 134 Q 104 122 116 116 Q 140 98 177 110 Q 256 116 360 116 Q 390 61 360 61 Q 250 61 122 67 Q 98 67 55 79 Q 30 85 30 67 Q 49 12 85 6 Q 98 18 171 18 Q 268 24 366 18 Z" fill="black" />
  </g>
  <g class="defect" id="01">
    <path d="M 439 98 Q 458 102 439 146" fill="none" stroke="red" stroke-width="3" />
  </g>
  <g class="defect" id="02">
    <path d="M 396 165 Q 389 146 347 158" fill="none" stroke="red" stroke-width="3" />
  </g>
</svg>