<svg xmlns="http://www.w3.org/2000/svg" width="512" height="512" viewBox="0 0 512 512">
  <g class="glyph">
    <path d="M 316 29 Q 441 29 458 33 Q 466 37 462 50 Q 450 62 425 58 Q 350 50 225 54 Q 191 54 158 62 Q 142 75 142 108 Q 142 158 121 229 Q 100 279 46 287 Q 29 287 8 271 Q 0 258 17 250 Q 108 204 104 100 Q 96 71 92 46 Q 96 25 129 25 Q 137 29 146 33 Q 175 33 241 29 Q 246 25 250 12 Q 254 0 279 0 Q 280 -8 308 12 Q 312 25 316 29 Z M 150 96 Q 162 67 191 71 Q 291 79 408 71 Q 445 71 441 79 Q 445 92 433 92 H 316 Q 300 100 304 108 Q 350 112 404 104 Q 425 108 425 129 Q 416 167 416 212 Q 416 233 379 221 Q 345 216 266 216 Q 279 225 279 233 Q 296 233 337 225 Q 370 225 362 254 Q 337 279 329 283 Q 375 296 425 296 Q 475 296 512 291 Q 466 354 412 341 Q 358 329 304 308 Q 229 333 175 337 Q 100 341 112 329 Q 112 321 142 321 Q 196 316 262 291 Q 229 275 212 275 Q 187 283 162 287 Q 125 287 129 275 Q 133 266 146 266 Q 216 254 246 216 Q 221 221 204 229 Q 175 237 175 212 Q 179 175 171 142 Q 162 104 200 108 Q 221 112 246 112 Q 258 108 258 92 Q 208 92 167 104 Q 150 112 150 96 Z M 375 142 Q 379 125 362 125 H 216 Q 212 125 212 142 Z M 212 154 Q 204 167 212 171 H 370 Q 368 158 366 154 Z M 212 183 Q 208 200 216 200 H 370 Q 383 191 370 183 Z M 258 254 Q 254 266 296 275 Q 321 258 312 250 Q 275 250 258 254 Z" fill="black" />
  </g>
  <g class="defect" id="01">
    <path d="M 279 0 Q 280 -8 308 12" fill="none" stroke="red" stroke-width="3" />
  </g>
  <g class="defect" id="02">
    <path d="M 370 171 Q 368 158 366 154" fill="none" stroke="red" stroke-width="3" />
  </g>
</svg>