<svg xmlns="http://www.w3.org/2000/svg" width="512" height="512" viewBox="0 0 512 512">
  <g class="glyph">
    <path d="M 300 93 Q 347 89 394 89 Q 419 97 406 114 Q 385 118 339 123 Q 254 127 228 131 Q 228 161 245 186 Q 284 165 322 140 Q 330 135 339 148 Q 339 152 339 157 Q 339 186 275 216 Q 290 251 351 254 Q 389 287 449 267 Q 487 262 512 250 Q 512 275 499 296 Q 470 339 432 343 Q 389 347 334 317 Q 279 284 237 241 L 190 271 Q 122 300 89 317 Q 55 326 17 309 Q 0 296 4 288 Q 13 279 135 245 Q 178 228 207 212 Q 186 173 178 140 Q 114 144 59 161 Q 30 161 51 127 Q 63 110 76 106 Q 106 110 173 102 Q 178 59 190 25 Q 203 0 216 4 Q 220 4 228 8 Q 237 17 237 25 Q 228 51 224 76 V 97 Z M 309 51 Q 317 38 326 21 Q 334 8 343 8 Q 360 4 372 25 Q 377 34 364 47 Q 339 59 309 68 Q 300 68 309 51 Z" fill="black" />
  </g>
  <g class="defect" id="01">
    <path d="M 190 271 Q 122 300 89 317" fill="none" stroke="red" stroke-width="3" />
  </g>
  <g class="defect" id="02">
    <path d="M 275 216 Q 290 251 351 254" fill="none" stroke="red" stroke-width="3" />
  </g>
  <g class="defect" id="03">
    <path d="M 351 254 Q 389 287 449 267" fill="none" stroke="red" stroke-width="3" />
  </g>
</svg>