<svg xmlns="http://www.w3.org/2000/svg" width="512" height="512" viewBox="0 0 512 512">
  <g class="glyph">
    <path d="M 266 108 Q 254 108 237 112 Q 221 112 221 100 Q 229 79 246 79 H 283 Q 274 62 250 33 Q 246 17 262 8 Q 283 4 291 29 Q 296 58 304 79 H 358 Q 370 58 379 25 Q 383 0 404 12 Q 416 21 416 33 Q 408 62 383 79 Q 454 83 458 92 Q 458 104 445 108 H 395 V 162 Q 454 171 504 171 Q 512 179 487 208 Q 470 225 454 212 Q 429 204 395 196 V 321 Q 387 345 362 341 Q 350 337 350 321 V 196 H 308 Q 304 271 262 308 Q 233 329 208 325 Q 187 316 179 304 Q 167 291 183 287 Q 212 283 229 275 Q 266 250 266 196 Q 233 196 204 208 Q 187 208 196 183 Q 208 162 221 162 H 266 Z M 308 162 H 350 V 108 H 308 Z M 117 108 Q 75 112 50 121 Q 33 129 29 112 Q 33 92 42 83 Q 50 75 58 75 Q 71 79 92 79 H 117 V 29 Q 121 4 142 4 Q 171 8 162 42 Q 158 54 158 79 Q 191 79 212 87 Q 216 100 204 104 Q 183 108 158 108 V 146 Q 204 142 204 154 Q 196 171 158 183 Q 154 212 158 246 Q 140 287 146 304 Q 125 333 71 333 Q 42 333 12 304 Q 0 287 8 283 Q 62 308 96 283 Q 117 275 117 196 Q 62 216 42 212 Q 25 196 37 179 Q 58 167 117 154 Z" fill="black" />
  </g>
  <g class="defect" id="01">
    <path d="M 283 79 Q 274 62 250 33" fill="none" stroke="red" stroke-width="3" />
  </g>
  <g class="defect" id="02">
    <path d="M 158 246 Q 140 287 146 304" fill="none" stroke="red" stroke-width="3" />
  </g>
</svg>