<svg xmlns="http://www.w3.org/2000/svg" width="512" height="512" viewBox="0 0 512 512">
  <g class="glyph">
    <path d="M 260 145 Q 252 165 260 190 Q 281 198 318 190 Q 326 161 314 145 Q 297 140 260 145 Z M 326 116 Q 355 103 355 132 Q 351 153 355 206 Q 351 227 326 215 Q 289 211 252 219 Q 223 231 223 198 Q 227 165 223 140 Q 215 107 248 116 Q 293 124 326 116 Z M 244 37 Q 277 41 301 37 Q 351 33 405 35 Q 504 37 512 41 Q 491 103 462 87 Q 446 78 425 74 Q 429 140 425 235 Q 438 281 380 310 Q 318 334 268 306 Q 239 289 235 264 Q 277 285 326 281 Q 376 273 380 223 Q 388 95 376 70 Q 293 66 219 83 Q 202 87 211 62 Q 227 33 244 37 Z M 140 0 Q 177 0 169 29 V 78 Q 194 78 206 87 Q 215 103 202 107 Q 190 111 169 111 Q 165 128 169 149 Q 186 145 211 149 Q 223 157 211 169 Q 190 178 169 182 Q 173 219 169 252 Q 183 279 165 273 Q 157 293 136 310 Q 111 330 91 326 Q 54 326 21 297 Q 0 277 12 273 Q 45 285 74 285 Q 99 285 111 264 Q 124 248 120 194 Q 74 211 58 211 Q 25 206 45 182 Q 50 165 120 157 Q 124 132 120 111 Q 87 111 62 120 Q 33 128 41 107 Q 45 74 78 78 Q 95 83 120 78 V 21 Q 120 0 140 0 Z" fill="black" />
  </g>
  <g class="defect" id="01">
    <path d="M 58 211 Q 25 206 45 182" fill="none" stroke="red" stroke-width="3" />
  </g>
  <g class="defect" id="02">
    <path d="M 140 0 Q 177 0 169 29" fill="none" stroke="red" stroke-width="3" />
  </g>
  <g class="defect" id="03">
    <path d="M 169 252 Q 183 279 165 273" fill="none" stroke="red" stroke-width="3" />
  </g>
</svg>