<svg xmlns="http://www.w3.org/2000/svg" width="512" height="512" viewBox="0 0 512 512">
  <g class="glyph">
    <path d="M 384 77 Q 380 85 384 102 H 405 Q 422 94 410 77 Q 397 73 384 77 Z M 350 132 Q 320 128 316 132 L 311 162 Q 333 166 350 162 Q 354 149 350 132 Z M 282 166 Q 290 145 286 128 Q 269 128 260 132 Q 256 141 256 162 Q 256 175 282 166 Z M 124 102 Q 102 102 64 111 Q 43 124 38 98 Q 43 68 77 68 Q 102 68 124 73 Q 115 13 137 4 Q 179 4 175 43 Q 188 51 171 73 Q 201 73 205 77 Q 213 85 201 98 Q 183 94 171 98 V 137 L 201 132 Q 222 132 213 149 Q 201 158 171 175 Q 171 218 175 256 Q 179 299 141 324 Q 94 354 38 320 Q 17 303 4 290 Q 0 277 13 277 Q 34 290 64 294 Q 98 299 115 273 Q 117 256 128 226 Q 128 209 128 183 Q 90 196 68 205 Q 47 213 38 192 Q 30 171 73 158 Q 102 149 124 145 Q 128 124 124 102 Z M 277 196 Q 244 196 252 201 Q 222 205 218 183 Q 226 145 222 115 Q 222 94 247 94 Q 265 102 286 102 Q 286 94 282 73 Q 252 73 226 85 Q 213 85 213 73 Q 226 43 247 47 Q 269 51 282 51 Q 277 4 290 4 Q 316 4 316 26 V 51 H 346 V 21 Q 346 0 367 0 Q 388 4 384 51 Q 397 51 414 47 Q 457 34 452 81 Q 448 94 452 115 Q 448 137 418 128 Q 401 124 384 128 Q 380 145 384 162 Q 418 166 457 162 Q 512 145 512 188 Q 499 273 405 256 Q 388 247 393 243 Q 457 235 461 209 Q 465 196 448 196 Q 414 188 384 196 Q 384 256 384 311 Q 388 337 367 341 Q 346 346 341 316 Q 350 235 350 196 Q 329 192 311 196 Q 273 316 183 286 Q 171 277 179 269 Q 247 260 277 196 Z M 320 73 Q 316 81 320 102 Q 333 107 350 102 Q 350 81 346 73 Q 329 68 320 73 Z" fill="black" />
  </g>
  <g class="defect" id="01">
    <path d="M 277 196 Q 244 196 252 201" fill="none" stroke="red" stroke-width="3" />
  </g>
  <g class="defect" id="02">
    <path d="M 115 273 Q 117 256 128 226" fill="none" stroke="red" stroke-width="3" />
  </g>
  <g class="defect" id="03">
    <path d="M 175 43 Q 188 51 171 73" fill="none" stroke="red" stroke-width="3" />
  </g>
</svg>