<svg xmlns="http://www.w3.org/2000/svg" width="512" height="512" viewBox="0 0 512 512">
  <g class="glyph">
    <path d="M 404 202 Q 413 193 422 202 Q 436 216 445 234 Q 449 243 436 243 Q 418 234 404 229 Q 391 216 404 202 Z M 283 202 Q 296 193 305 202 Q 314 216 319 229 Q 323 247 310 243 Q 287 234 278 220 Q 274 207 283 202 Z M 265 108 H 431 Q 458 108 445 90 H 287 Q 260 90 265 108 Z M 296 9 Q 314 0 328 9 Q 346 41 418 45 Q 422 58 382 54 Q 310 54 292 40 Q 274 27 296 9 Z M 391 162 Q 404 144 418 148 Q 445 162 476 153 Q 508 139 508 180 Q 503 211 503 278 Q 512 364 454 355 Q 409 346 404 319 Q 431 323 445 323 Q 472 328 467 260 Q 395 314 386 283 Q 386 269 413 260 L 467 247 V 216 Q 472 180 449 180 Q 436 175 400 184 Q 377 184 391 162 Z M 229 139 Q 225 112 220 90 Q 220 49 265 67 Q 364 72 445 63 Q 485 54 490 81 Q 485 108 485 126 Q 481 139 463 139 Q 449 135 436 130 H 265 V 166 Q 274 148 292 148 Q 314 157 341 153 Q 382 144 377 175 Q 377 184 373 198 Q 368 260 373 314 Q 368 355 328 355 Q 283 355 274 319 Q 346 332 337 296 V 265 Q 260 319 247 283 Q 247 269 265 265 Q 296 260 337 247 V 193 Q 341 180 323 175 Q 310 175 283 184 Q 269 189 265 171 Q 260 238 238 283 Q 207 350 166 301 Q 193 278 207 256 Q 234 207 229 139 Z M 108 112 Q 72 112 45 121 Q 27 130 22 112 Q 22 81 45 76 Q 67 81 108 81 Q 108 49 103 18 Q 103 0 117 0 Q 162 4 157 36 Q 153 54 153 81 H 189 Q 207 85 207 99 Q 193 108 153 108 V 162 Q 198 153 202 162 Q 207 175 153 193 Q 153 265 157 305 Q 162 341 126 359 Q 99 373 49 355 Q 4 332 0 310 Q 108 337 108 301 Q 112 252 108 207 Q 54 225 31 229 Q 13 229 9 211 Q 4 189 27 184 Q 58 180 108 171 Z" fill="black" />
  </g>
  <g class="defect" id="01">
    <path d="M 328 9 Q 346 41 418 45" fill="none" stroke="red" stroke-width="3" />
  </g>
</svg>