<svg xmlns="http://www.w3.org/2000/svg" width="512" height="512" viewBox="0 0 512 512">
  <g class="glyph">
    <path d="M 133 83 Q 150 79 158 83 Q 171 96 158 108 Q 175 123 212 108 Q 214 111 237 104 Q 250 108 262 121 Q 296 71 304 25 Q 308 0 316 4 Q 329 4 341 17 Q 358 29 333 71 Q 395 75 458 71 Q 470 71 470 87 Q 462 104 445 104 H 400 Q 400 137 383 196 Q 450 246 512 262 Q 500 296 466 316 Q 441 329 425 308 Q 383 258 366 237 Q 350 266 329 283 Q 279 316 254 279 Q 316 254 337 212 Q 321 187 279 158 Q 266 150 291 137 Q 300 133 312 146 Q 333 167 350 175 Q 358 133 358 104 H 312 Q 300 121 283 133 Q 271 150 262 133 Q 236 158 258 179 Q 254 204 254 225 Q 254 266 204 300 Q 162 321 137 316 Q 100 312 79 300 Q 50 279 71 275 Q 125 287 162 275 Q 204 254 212 212 Q 216 191 216 171 Q 216 146 204 142 Q 191 133 125 133 Q 108 146 87 158 Q 129 167 146 158 Q 158 150 167 158 Q 183 175 175 183 Q 167 200 167 229 Q 167 254 146 246 Q 117 229 87 246 Q 67 258 67 237 Q 71 196 62 175 Q 17 200 0 171 Q 71 142 117 100 Q 129 87 133 83 Z M 54 37 Q 67 46 87 42 V 21 Q 92 4 108 4 Q 112 4 117 4 Q 133 12 129 37 H 183 V 29 Q 187 4 200 4 Q 216 0 225 12 Q 229 25 229 37 H 258 Q 279 50 254 62 H 229 Q 233 92 212 96 Q 187 104 183 83 V 62 H 129 Q 129 75 121 83 Q 117 92 100 92 Q 83 92 87 67 Q 71 67 46 75 Q 25 79 29 62 Q 42 37 54 37 Z M 100 212 Q 133 221 142 204 Q 142 191 133 187 Q 121 179 104 183 Q 92 191 100 212 Z" fill="black" />
  </g>
  <g class="defect" id="01">
    <path d="M 158 108 Q 175 123 212 108" fill="none" stroke="red" stroke-width="3" />
  </g>
  <g class="defect" id="02">
    <path d="M 262 133 Q 236 158 258 179" fill="none" stroke="red" stroke-width="3" />
  </g>
  <g class="defect" id="03">
    <path d="M 212 108 Q 214 111 237 104" fill="none" stroke="red" stroke-width="3" />
  </g>
</svg>