<svg xmlns="http://www.w3.org/2000/svg" width="512" height="512" viewBox="0 0 512 512">
  <g class="glyph">
    <path d="M 270 107 H 214 Q 182 144 163 140 Q 186 88 191 37 Q 209 19 228 42 Q 237 56 228 79 H 270 Q 270 42 265 19 Q 270 5 289 0 Q 330 0 330 33 Q 308 24 326 79 H 377 Q 433 79 433 93 Q 438 107 405 107 H 326 V 154 H 512 Q 475 228 428 205 Q 386 186 293 186 Q 195 182 172 195 Q 140 209 149 177 Q 163 149 186 149 Q 209 158 270 154 Z M 354 223 Q 419 209 414 247 Q 400 307 405 330 Q 405 377 344 358 Q 284 344 242 358 Q 191 372 191 330 Q 195 279 186 256 Q 177 205 242 219 Q 293 233 354 223 Z M 312 256 Q 233 256 237 284 Q 228 326 293 321 Q 363 326 354 289 Q 358 261 312 256 Z M 102 191 Q 74 186 47 191 Q 42 223 47 251 Q 61 270 98 256 Q 87 251 102 191 Z M 51 102 Q 47 112 47 163 Q 74 168 102 163 Q 102 126 98 102 Q 74 93 51 102 Z M 93 70 Q 112 61 130 65 Q 149 70 149 88 Q 144 98 144 121 Q 140 195 144 275 Q 144 293 130 293 Q 107 298 98 289 Q 70 289 47 293 Q 37 303 19 298 Q 0 293 5 270 Q 5 154 0 84 Q 0 70 14 65 Q 28 56 51 70 Q 74 65 93 70 Z" fill="black" />
  </g>
  <g class="defect" id="01">
    <path d="M 98 256 Q 87 251 102 191" fill="none" stroke="red" stroke-width="3" />
  </g>
  <g class="defect" id="02">
    <path d="M 330 33 Q 308 24 326 79" fill="none" stroke="red" stroke-width="3" />
  </g>
</svg>