<svg xmlns="http://www.w3.org/2000/svg" width="512" height="512" viewBox="0 0 512 512">
  <g class="glyph">
    <path d="M 211 188 Q 235 197 268 207 Q 272 221 216 221 Q 197 221 193 202 Q 193 183 211 188 Z M 268 235 Q 221 282 188 258 Q 178 244 188 240 Q 221 235 263 225 Q 282 221 268 235 Z M 446 207 Q 432 216 390 216 Q 366 211 362 202 Q 362 197 395 193 Q 427 178 446 188 Q 456 197 446 207 Z M 371 225 Q 409 230 456 230 Q 470 230 465 244 Q 465 263 409 254 Q 366 244 362 230 Q 357 225 371 225 Z M 249 61 Q 240 70 244 80 H 385 Q 399 70 385 61 Z M 249 117 H 385 Q 395 108 385 99 H 244 Q 235 103 249 117 Z M 249 155 H 385 Q 390 141 385 136 H 249 Q 240 141 249 155 Z M 155 296 Q 164 268 188 268 Q 216 272 296 268 V 211 Q 296 188 310 174 H 258 Q 244 178 230 183 Q 184 175 202 155 Q 202 117 197 70 Q 197 38 211 28 Q 221 28 240 33 H 277 L 287 14 Q 296 0 310 0 Q 343 0 343 19 Q 343 19 329 33 H 390 Q 404 19 427 28 Q 442 33 442 56 Q 437 108 437 160 Q 437 183 423 183 Q 404 183 390 174 H 334 Q 357 183 348 216 V 268 Q 424 272 512 272 Q 479 329 442 315 Q 404 301 348 301 V 348 Q 357 390 319 385 Q 296 390 296 343 V 301 Q 211 301 178 305 Q 150 315 155 296 Z M 103 197 Q 75 193 47 197 Q 42 230 47 258 Q 61 277 99 263 Q 103 258 103 197 Z M 52 108 Q 47 117 47 169 Q 75 174 103 169 Q 103 132 99 108 Q 75 99 52 108 Z M 94 75 Q 113 66 132 70 Q 150 75 150 94 Q 146 103 146 127 Q 141 202 146 282 Q 146 301 132 301 Q 108 305 99 296 Q 70 296 47 301 Q 38 310 19 305 Q 0 301 5 277 Q 5 160 0 89 Q 0 75 14 70 Q 28 61 52 75 Q 75 70 94 75 Z" fill="black" />
  </g>
  <g class="defect" id="01">
    <path d="M 230 183 Q 184 175 202 155" fill="none" stroke="red" stroke-width="3" />
  </g>
  <g class="defect" id="02">
    <path d="M 348 268 Q 424 272 512 272" fill="none" stroke="red" stroke-width="3" />
  </g>
</svg>