<svg xmlns="http://www.w3.org/2000/svg" width="512" height="512" viewBox="0 0 512 512">
  <g class="glyph">
    <path d="M 375 282 Q 397 305 424 340 Q 437 362 415 358 Q 362 327 335 309 Q 318 296 335 278 Q 353 265 375 282 Z M 309 260 Q 287 322 225 349 Q 177 358 159 335 Q 150 318 168 318 Q 238 309 265 260 Q 190 260 154 274 Q 128 278 141 260 Q 154 221 185 234 Q 221 238 269 234 Q 278 230 274 212 Q 207 212 185 216 Q 172 216 177 207 Q 181 185 199 185 Q 216 190 274 190 Q 278 177 274 168 Q 243 168 212 172 Q 190 181 181 163 Q 181 132 177 115 Q 177 106 190 102 Q 212 102 225 106 Q 247 110 274 106 Q 282 97 274 88 Q 252 88 238 93 Q 212 97 212 79 Q 216 66 212 53 Q 181 53 159 62 Q 150 66 150 53 Q 163 22 181 22 Q 194 26 212 26 Q 212 0 230 0 Q 260 0 256 26 Q 287 31 331 26 Q 344 21 353 0 Q 380 0 375 26 H 446 Q 455 40 441 49 Q 428 53 375 53 Q 375 62 380 75 Q 380 88 358 88 Q 340 88 322 88 Q 313 97 322 106 Q 353 110 375 106 Q 384 97 402 102 Q 419 110 419 124 Q 415 146 415 163 Q 415 177 384 172 Q 353 168 322 168 Q 313 172 318 190 H 406 Q 428 203 410 212 H 318 Q 313 221 318 234 H 512 Q 481 300 446 282 Q 380 260 309 260 Z M 335 53 Q 296 49 256 53 Q 252 62 256 66 Q 300 71 331 66 Q 340 62 335 53 Z M 274 146 Q 282 128 274 124 Q 243 124 221 128 Q 212 146 225 150 Q 265 150 274 146 Z M 322 124 Q 313 146 322 146 Q 349 150 371 146 Q 380 146 375 128 Q 371 124 322 124 Z M 93 177 Q 71 172 44 177 Q 40 207 44 234 Q 62 243 88 238 Q 93 216 93 177 Z M 49 93 Q 44 102 44 150 Q 71 154 93 150 Q 97 119 93 93 Q 71 84 49 93 Z M 88 62 Q 106 53 124 57 Q 156 62 141 79 Q 137 88 137 110 Q 132 221 137 252 Q 137 269 124 274 Q 102 278 93 269 Q 66 269 44 274 Q 35 282 18 278 Q 0 274 4 252 Q 4 141 0 75 Q 0 62 13 57 Q 26 49 49 62 Q 71 57 88 62 Z" fill="black" />
  </g>
  <g class="defect" id="01">
    <path d="M 331 26 Q 344 21 353 0" fill="none" stroke="red" stroke-width="3" />
  </g>
  <g class="defect" id="02">
    <path d="M 124 57 Q 156 62 141 79" fill="none" stroke="red" stroke-width="3" />
  </g>
</svg>