<svg xmlns="http://www.w3.org/2000/svg" width="512" height="512" viewBox="0 0 512 512">
  <g class="glyph">
    <path d="M 245 90 Q 254 112 185 108 V 163 Q 202 146 224 172 Q 237 189 245 202 Q 254 228 232 219 Q 207 198 185 185 V 288 Q 185 310 181 327 Q 185 340 159 340 Q 116 349 129 280 Q 133 241 133 181 Q 120 202 103 219 Q 56 280 13 241 Q 0 224 30 211 Q 120 163 133 108 Q 90 108 43 116 Q 22 116 34 90 Q 56 69 73 73 Q 108 77 133 77 Q 133 47 129 17 Q 129 4 151 0 Q 176 0 185 77 Q 228 77 245 90 Z M 503 181 Q 512 202 469 237 Q 297 361 211 327 Q 198 314 215 305 Q 361 293 465 176 Q 466 135 503 181 Z M 452 103 Q 473 125 452 142 Q 349 215 301 211 Q 271 202 288 189 Q 374 168 426 103 Q 439 90 452 103 Z M 443 13 Q 456 30 443 52 Q 409 77 353 103 Q 267 138 262 108 Q 353 77 404 22 Q 422 0 443 13 Z" fill="black" />
  </g>
  <g class="defect" id="01">
    <path d="M 465 176 Q 466 135 503 181" fill="none" stroke="red" stroke-width="3" />
  </g>
  <g class="defect" id="02">
    <path d="M 181 327 Q 185 340 159 340" fill="none" stroke="red" stroke-width="3" />
  </g>
  <g class="defect" id="03">
    <path d="M 151 0 Q 176 0 185 77" fill="none" stroke="red" stroke-width="3" />
  </g>
</svg>