<svg xmlns="http://www.w3.org/2000/svg" width="512" height="512" viewBox="0 0 512 512">
  <g class="glyph">
    <path d="M 344 86 Q 349 112 336 116 Q 366 99 383 73 Q 370 60 366 52 Q 361 39 379 30 Q 387 26 400 34 Q 430 65 478 99 Q 478 112 460 112 Q 435 108 417 99 Q 386 132 301 168 Q 245 181 215 181 Q 189 176 176 159 Q 262 146 305 129 Q 293 129 293 108 V 26 Q 288 4 318 4 Q 344 9 344 30 Z M 146 30 Q 198 47 198 52 Q 194 69 138 65 Q 77 60 82 34 Q 86 0 146 30 Z M 176 95 Q 181 108 90 112 Q 69 112 52 112 Q 26 112 39 86 Q 52 69 82 77 Q 193 90 176 95 Z M 181 138 Q 168 155 146 163 Q 77 198 60 163 Q 56 151 65 146 Q 116 142 172 129 Q 185 129 181 138 Z M 262 82 Q 232 116 207 125 Q 194 125 211 90 Q 224 69 232 52 Q 241 34 258 39 Q 280 52 262 82 Z M 275 241 V 327 Q 280 349 254 353 Q 224 357 224 323 V 237 H 159 Q 52 245 26 262 Q 0 271 9 245 Q 22 207 39 202 Q 56 211 77 211 Q 146 207 224 207 Q 206 164 250 181 Q 275 185 275 207 Q 443 207 512 211 Q 478 280 447 271 Q 374 241 275 241 Z M 155 258 Q 176 245 189 271 Q 194 288 168 301 Q 116 331 60 344 Q 43 349 52 331 Q 103 301 155 258 Z M 327 254 Q 340 250 366 280 Q 396 301 443 336 Q 452 349 435 349 Q 374 336 323 301 Q 310 293 305 280 Q 305 262 327 254 Z" fill="black" />
  </g>
  <g class="defect" id="01">
    <path d="M 224 207 Q 206 164 250 181" fill="none" stroke="red" stroke-width="3" />
  </g>
  <g class="defect" id="02">
    <path d="M 417 99 Q 386 132 301 168" fill="none" stroke="red" stroke-width="3" />
  </g>
  <g class="defect" id="03">
    <path d="M 82 77 Q 193 90 176 95" fill="none" stroke="red" stroke-width="3" />
  </g>
</svg>