<svg xmlns="http://www.w3.org/2000/svg" width="512" height="512" viewBox="0 0 512 512">
  <g class="glyph">
    <path d="M 321 175 V 125 Q 291 121 283 129 V 187 Q 271 208 254 187 Q 250 154 246 121 Q 246 108 254 100 Q 262 92 279 100 H 321 V 79 Q 283 79 250 87 Q 237 92 237 75 Q 241 58 254 50 Q 262 46 275 54 H 321 V 29 Q 316 12 337 8 Q 362 8 366 33 V 54 H 450 Q 454 54 458 62 Q 462 75 450 79 H 366 V 100 Q 379 104 400 104 Q 408 100 416 96 Q 445 92 445 121 Q 441 150 441 187 Q 420 208 408 183 V 137 Q 404 121 366 125 V 183 Q 450 233 512 258 Q 508 271 479 291 Q 454 304 437 283 Q 400 246 366 216 V 316 Q 366 341 337 341 Q 321 341 321 321 V 216 Q 275 275 233 283 Q 191 283 196 262 Q 262 241 321 175 Z M 162 112 H 187 Q 191 108 200 104 Q 208 104 216 112 Q 221 117 221 121 V 175 Q 216 191 204 196 Q 191 196 187 183 Q 191 142 183 137 H 162 V 187 Q 204 221 221 233 Q 214 265 212 246 Q 179 241 162 225 V 316 Q 162 333 137 333 Q 125 337 121 312 V 229 Q 96 258 62 287 Q 37 304 17 283 Q 0 266 17 262 Q 87 233 121 179 V 142 Q 104 142 92 146 Q 87 154 87 167 V 191 Q 75 208 71 208 Q 62 208 58 196 V 162 Q 58 150 54 137 Q 67 102 71 108 Q 83 108 92 117 Q 112 121 121 112 V 83 Q 71 83 37 100 Q 25 108 25 92 Q 29 58 50 54 Q 62 54 71 58 H 121 V 17 Q 125 0 146 4 Q 167 8 167 29 Q 162 42 162 54 Q 243 40 233 71 Q 233 79 229 83 H 162 Q 158 104 162 112 Z" fill="black" />
  </g>
  <g class="defect" id="01">
    <path d="M 221 233 Q 214 265 212 246" fill="none" stroke="red" stroke-width="3" />
  </g>
  <g class="defect" id="02">
    <path d="M 54 137 Q 67 102 71 108" fill="none" stroke="red" stroke-width="3" />
  </g>
  <g class="defect" id="03">
    <path d="M 162 54 Q 243 40 233 71" fill="none" stroke="red" stroke-width="3" />
  </g>
</svg>