<svg xmlns="http://www.w3.org/2000/svg" width="512" height="512" viewBox="0 0 512 512">
  <g class="glyph">
    <path d="M 245 102 Q 233 118 212 135 Q 195 144 182 148 Q 157 148 148 131 Q 148 127 169 127 Q 203 114 224 89 Q 233 76 220 68 Q 212 59 195 55 Q 186 68 178 80 Q 157 106 118 131 Q 93 148 76 148 Q 59 144 55 135 Q 68 127 85 118 Q 114 106 144 80 Q 167 82 165 51 Q 131 42 114 51 Q 89 68 80 51 Q 85 25 106 17 Q 131 25 178 30 Q 190 17 190 8 Q 199 0 212 4 Q 220 8 224 17 Q 220 25 212 38 Q 224 42 245 51 Q 267 68 245 102 Z M 427 173 Q 512 173 512 182 Q 470 245 432 228 Q 360 199 284 199 V 313 Q 284 334 245 334 Q 246 351 228 313 V 199 Q 85 190 25 228 Q 0 241 0 212 Q 13 178 42 169 Q 93 182 228 169 V 140 Q 237 127 250 131 Q 275 135 284 157 V 169 Q 355 173 427 173 Z M 419 118 Q 419 140 394 135 Q 377 127 347 127 Q 322 131 300 140 Q 288 140 284 127 Q 284 85 275 47 Q 275 21 296 21 Q 322 34 377 30 Q 394 30 406 25 Q 427 25 427 47 Q 419 80 419 118 Z M 385 51 Q 343 47 313 51 Q 309 80 317 106 Q 351 110 385 106 Q 394 76 385 51 Z M 195 224 Q 207 237 195 250 Q 135 300 68 313 Q 47 313 59 296 Q 114 267 152 224 Q 173 203 195 224 Z M 360 228 Q 385 258 444 305 Q 461 317 440 317 Q 381 300 330 267 Q 305 245 313 228 Q 330 207 360 228 Z" fill="black" />
  </g>
  <g class="defect" id="01">
    <path d="M 245 334 Q 246 351 228 313" fill="none" stroke="red" stroke-width="3" />
  </g>
  <g class="defect" id="02">
    <path d="M 144 80 Q 167 82 165 51" fill="none" stroke="red" stroke-width="3" />
  </g>
</svg>