<svg xmlns="http://www.w3.org/2000/svg" width="512" height="512" viewBox="0 0 512 512">
  <g class="glyph">
    <path d="M 250 100 Q 254 71 283 79 Q 300 96 287 125 Q 279 150 258 175 Q 237 196 221 200 Q 204 200 221 175 Q 241 142 250 100 Z M 333 8 Q 348 4 362 71 Q 345 142 362 187 Q 370 241 316 241 Q 241 229 246 200 Q 308 216 312 187 Q 321 133 312 67 Q 308 4 333 8 Z M 404 79 Q 429 79 462 183 Q 462 216 433 183 Q 395 133 383 104 Q 379 79 404 79 Z M 191 8 Q 208 0 221 17 Q 233 37 212 46 Q 183 62 142 67 V 100 H 175 Q 208 100 208 117 Q 204 129 196 129 H 142 V 158 H 204 Q 216 175 204 183 L 142 187 Q 142 237 171 246 Q 212 271 325 275 Q 412 275 500 233 Q 512 241 475 287 Q 429 337 337 325 Q 266 316 200 300 Q 125 283 108 258 Q 96 241 96 191 Q 62 191 21 208 Q 0 221 0 191 Q 4 171 21 171 Q 50 171 96 162 V 133 Q 79 133 46 146 Q 25 146 33 121 Q 42 104 58 100 Q 79 104 96 104 V 71 Q 67 75 29 71 Q 8 58 25 50 Q 54 50 79 46 Q 146 42 191 8 Z" fill="black" />
  </g>
  <g class="defect" id="01">
    <path d="M 333 8 Q 348 4 362 71" fill="none" stroke="red" stroke-width="3" />
  </g>
  <g class="defect" id="02">
    <path d="M 362 71 Q 345 142 362 187" fill="none" stroke="red" stroke-width="3" />
  </g>
</svg>