<svg xmlns="http://www.w3.org/2000/svg" width="512" height="512" viewBox="0 0 512 512">
  <g class="glyph">
    <path d="M 284 106 Q 300 93 317 106 Q 330 118 313 127 Q 324 131 292 140 Q 271 157 267 165 Q 292 169 313 173 Q 334 165 339 152 Q 322 144 322 140 Q 326 127 339 123 Q 351 123 372 135 Q 394 148 415 165 Q 423 178 406 178 Q 381 178 360 161 Q 347 186 326 195 Q 309 195 292 190 L 296 203 Q 309 203 313 207 Q 347 220 360 224 Q 368 216 377 207 Q 385 195 398 186 Q 402 186 406 186 Q 410 186 415 190 Q 432 207 419 216 Q 402 224 389 237 Q 465 275 512 279 Q 482 347 449 326 Q 419 309 398 292 L 364 271 Q 351 288 330 305 Q 305 326 279 339 Q 262 343 241 326 Q 237 322 237 313 Q 245 300 245 284 Q 245 262 241 258 L 178 288 Q 152 296 140 275 Q 140 271 140 267 Q 148 262 161 258 Q 241 233 275 186 Q 245 186 216 195 Q 207 199 195 178 Q 186 157 207 152 Q 228 148 245 140 Q 267 123 284 106 Z M 267 241 Q 279 245 284 258 Q 284 292 305 284 Q 326 275 351 258 Q 317 237 288 224 Z M 76 30 Q 97 42 118 55 Q 140 72 165 89 Q 169 97 157 97 Q 123 97 93 93 Q 72 89 55 80 Q 38 72 47 51 Q 55 25 76 30 Z M 38 131 Q 63 140 89 152 L 148 173 Q 148 182 118 186 Q 93 190 68 190 Q 42 186 21 182 Q 0 178 8 144 Q 17 127 38 131 Z M 89 254 Q 118 245 152 233 Q 161 228 161 237 Q 135 267 110 288 Q 80 309 55 317 Q 30 322 21 296 Q 8 271 34 267 Q 59 262 89 254 Z M 279 8 Q 292 0 309 4 Q 330 4 330 34 Q 330 51 351 47 H 432 Q 449 47 457 55 Q 461 72 436 72 H 228 Q 190 76 182 80 Q 161 85 165 72 Q 173 47 186 42 Q 199 42 220 47 Q 250 51 267 47 Q 275 51 279 8 Z M 245 80 Q 250 76 254 80 Q 275 89 271 97 Q 254 114 216 127 Q 190 135 165 140 Q 148 140 157 127 Q 182 118 212 106 Q 228 93 245 80 Z M 360 80 Q 385 89 440 118 Q 444 127 432 131 Q 410 127 394 123 Q 345 135 343 106 Q 330 97 339 89 Q 347 76 360 80 Z" fill="black" />
  </g>
  <g class="defect" id="01">
    <path d="M 313 127 Q 324 131 292 140" fill="none" stroke="red" stroke-width="3" />
  </g>
  <g class="defect" id="02">
    <path d="M 394 123 Q 345 135 343 106" fill="none" stroke="red" stroke-width="3" />
  </g>
</svg>