<svg xmlns="http://www.w3.org/2000/svg" width="512" height="512" viewBox="0 0 512 512">
  <g class="glyph">
    <path d="M 206 180 H 180 V 214 Q 185 235 206 227 Z M 180 151 H 206 V 97 H 189 Q 180 101 180 151 Z M 466 25 Q 487 42 470 67 Q 453 88 432 105 Q 415 118 415 101 Q 432 67 441 34 Q 445 13 466 25 Z M 336 50 Q 340 67 344 92 Q 348 109 336 105 Q 319 92 306 76 Q 285 46 306 29 Q 327 21 336 50 Z M 294 92 Q 290 168 294 231 Q 294 269 256 260 Q 227 252 189 260 Q 147 277 147 243 Q 151 164 147 92 Q 147 63 172 63 Q 180 63 189 67 Q 227 71 243 67 Q 256 59 273 63 Q 294 67 294 92 Z M 260 113 Q 260 97 235 97 V 151 H 260 Z M 449 147 H 407 V 189 Q 491 189 512 193 Q 495 239 466 227 Q 441 214 407 218 Q 407 252 407 298 Q 411 336 382 332 Q 365 336 365 306 V 218 Q 332 218 311 222 Q 298 227 298 214 Q 311 180 332 185 Q 344 189 365 189 V 147 Q 336 147 315 155 Q 298 159 298 143 Q 302 122 323 113 Q 348 122 365 118 Q 365 71 361 21 Q 361 0 394 4 Q 411 4 407 38 V 118 H 453 Q 474 118 483 130 Q 483 151 449 147 Z M 260 180 H 235 V 227 Q 248 231 260 227 Z M 92 29 Q 118 55 138 76 Q 138 84 122 84 Q 92 80 59 63 Q 34 50 50 29 Q 76 8 92 29 Z M 63 118 Q 80 130 101 143 Q 134 159 134 164 Q 115 194 101 172 Q 46 168 17 155 Q 0 143 17 118 Q 42 105 63 118 Z M 134 227 Q 122 256 92 277 Q 76 290 59 294 Q 29 298 25 273 Q 25 256 42 248 Q 80 239 122 214 Q 134 210 134 227 Z" fill="black" />
  </g>
  <g class="defect" id="01">
    <path d="M 134 164 Q 115 194 101 172" fill="none" stroke="red" stroke-width="3" />
  </g>
</svg>