<svg xmlns="http://www.w3.org/2000/svg" width="512" height="512" viewBox="0 0 512 512">
  <g class="glyph">
    <path d="M 287 8 Q 312 25 300 46 Q 354 54 395 46 Q 408 42 420 50 Q 454 67 454 87 Q 466 137 433 187 Q 408 229 358 233 Q 341 233 333 225 Q 333 216 366 204 Q 404 179 408 129 Q 412 96 395 83 Q 375 75 337 75 Q 312 79 291 71 Q 271 108 225 146 Q 204 162 187 167 Q 167 167 171 154 Q 179 146 216 112 Q 241 52 258 17 Q 258 0 287 8 Z M 329 108 Q 341 104 350 104 Q 375 104 366 129 Q 362 154 358 179 Q 354 191 333 187 Q 308 183 283 187 Q 271 241 308 254 Q 354 266 412 258 Q 462 250 504 221 Q 512 221 512 225 Q 500 279 470 308 Q 437 329 412 325 Q 325 321 287 296 Q 250 275 241 216 Q 241 175 258 121 Q 266 112 283 117 Q 312 112 329 108 Z M 150 54 Q 154 125 142 183 Q 183 216 221 254 Q 225 275 204 271 Q 162 241 129 221 Q 112 258 83 283 Q 62 300 46 300 Q 0 296 4 279 Q 12 266 42 250 Q 87 225 108 179 Q 125 96 100 46 Q 77 42 112 21 Q 154 25 150 54 Z M 87 87 Q 87 104 87 121 Q 87 154 75 171 Q 67 171 62 158 Q 58 112 46 83 Q 46 67 62 62 Q 83 58 87 87 Z M 200 71 Q 208 83 196 108 Q 204 139 179 129 Q 171 129 171 92 Q 171 79 167 71 Q 167 58 179 58 Q 191 62 200 71 Z M 287 142 Q 279 154 287 167 H 325 Q 341 154 337 137 Q 312 133 287 142 Z" fill="black" />
  </g>
  <g class="defect" id="01">
    <path d="M 216 112 Q 241 52 258 17" fill="none" stroke="red" stroke-width="3" />
  </g>
  <g class="defect" id="02">
    <path d="M 100 46 Q 77 42 112 21" fill="none" stroke="red" stroke-width="3" />
  </g>
  <g class="defect" id="03">
    <path d="M 196 108 Q 204 139 179 129" fill="none" stroke="red" stroke-width="3" />
  </g>
</svg>