<svg xmlns="http://www.w3.org/2000/svg" width="512" height="512" viewBox="0 0 512 512">
  <g class="glyph">
    <path d="M 245 18 Q 254 27 240 36 Q 294 40 343 45 Q 361 45 378 40 Q 410 45 410 76 Q 410 93 401 120 Q 383 165 356 187 Q 334 200 316 200 Q 313 216 303 191 Q 316 183 325 174 Q 338 127 361 107 Q 370 80 338 71 Q 289 62 218 58 Q 187 76 169 85 Q 218 89 272 80 Q 303 80 298 107 Q 289 134 285 165 Q 280 178 263 178 Q 209 174 169 178 Q 165 191 178 209 Q 191 223 218 227 Q 276 236 338 232 Q 423 227 472 196 Q 490 183 508 169 Q 508 267 414 276 Q 352 280 303 280 Q 254 280 205 267 Q 156 254 138 232 Q 125 205 125 178 Q 120 129 125 107 Q 71 125 49 125 Q 22 125 9 107 Q 0 93 0 85 Q 0 71 22 76 Q 102 80 183 40 Q 205 27 214 18 Q 232 0 245 18 Z M 169 116 Q 165 138 174 147 Q 218 151 249 147 Q 258 129 254 116 Q 214 111 169 116 Z M 280 289 Q 289 285 312 303 Q 334 325 374 352 Q 412 370 361 365 Q 298 347 267 321 Q 258 298 280 289 Z M 232 298 Q 227 312 196 338 Q 174 356 129 370 Q 107 370 125 352 Q 165 325 187 289 Q 214 267 232 298 Z M 102 276 Q 129 294 98 325 Q 22 392 22 361 Q 58 325 67 298 Q 85 267 102 276 Z M 405 289 Q 423 276 450 307 Q 472 334 503 361 Q 512 374 485 370 Q 432 352 405 325 Q 387 312 405 289 Z" fill="black" />
  </g>
  <g class="defect" id="01">
    <path d="M 316 200 Q 313 216 303 191" fill="none" stroke="red" stroke-width="3" />
  </g>
  <g class="defect" id="02">
    <path d="M 325 174 Q 338 127 361 107" fill="none" stroke="red" stroke-width="3" />
  </g>
  <g class="defect" id="03">
    <path d="M 374 352 Q 412 370 361 365" fill="none" stroke="red" stroke-width="3" />
  </g>
</svg>