<svg xmlns="http://www.w3.org/2000/svg" width="512" height="512" viewBox="0 0 512 512">
  <g class="glyph">
    <path d="M 111 217 Q 203 212 272 212 Q 341 217 387 231 Q 420 221 443 226 Q 457 231 461 244 Q 466 258 438 263 Q 420 268 314 286 Q 332 309 327 337 Q 323 364 286 378 Q 217 397 148 369 Q 101 346 92 327 Q 88 318 101 318 Q 157 351 208 351 Q 277 346 277 323 Q 281 291 226 268 Q 212 258 231 254 Q 272 258 300 272 Q 332 263 360 249 Q 323 235 263 235 Q 185 235 129 240 Q 97 244 74 258 Q 55 263 55 249 Q 60 226 74 221 Q 88 212 111 217 Z M 268 166 Q 263 194 254 198 Q 240 203 240 166 Q 240 152 254 152 Q 268 152 268 166 Z M 194 97 Q 208 106 291 101 Q 309 88 295 88 Q 235 88 203 88 Q 194 92 194 97 Z M 378 157 Q 397 166 411 175 Q 420 185 397 185 Q 383 185 364 180 Q 346 171 355 157 Q 364 148 378 157 Z M 327 171 Q 323 198 314 198 Q 304 203 300 171 Q 295 157 314 152 Q 327 152 327 171 Z M 203 175 Q 175 194 152 198 Q 129 208 134 194 Q 157 180 171 166 Q 185 148 198 157 Q 212 166 203 175 Z M 175 129 H 332 Q 351 120 346 120 Q 323 115 268 115 Q 206 125 185 120 Z M 161 152 Q 106 185 60 189 Q -17 194 0 166 Q 69 166 106 143 Q 148 120 157 92 Q 125 92 97 97 Q 83 101 92 83 Q 106 65 129 74 Q 240 69 304 74 Q 327 60 355 69 Q 364 78 355 88 Q 346 97 327 106 Q 337 106 346 106 Q 374 97 387 101 Q 411 106 401 120 L 383 129 Q 429 129 447 129 Q 494 120 503 138 Q 512 152 498 175 Q 480 212 429 217 Q 360 208 355 194 Q 351 185 364 189 Q 443 203 452 171 Q 457 148 424 148 H 198 Q 175 148 161 152 Z M 115 42 Q 129 32 143 42 Q 166 55 180 60 Q 189 69 166 69 Q 134 65 115 60 Q 101 51 115 42 Z M 235 42 Q 249 32 263 42 Q 277 55 291 60 Q 291 69 277 65 Q 249 65 231 55 Q 226 46 235 42 Z M 374 42 Q 387 32 401 37 Q 406 42 411 46 Q 415 55 397 60 Q 378 65 355 65 Q 337 65 341 55 Q 360 51 374 42 Z M 397 5 Q 434 0 434 18 Q 434 32 383 28 Q 208 42 97 28 Q 78 23 92 18 Q 281 18 397 5 Z" fill="black" />
  </g>
  <g class="defect" id="01">
    <path d="M 60 189 Q -17 194 0 166" fill="none" stroke="red" stroke-width="3" />
  </g>
  <g class="defect" id="02">
    <path d="M 268 115 Q 206 125 185 120" fill="none" stroke="red" stroke-width="3" />
  </g>
</svg>