<svg xmlns="http://www.w3.org/2000/svg" width="512" height="512" viewBox="0 0 512 512">
  <g class="glyph">
    <path d="M 286 77 Q 307 94 329 107 L 350 81 Q 358 73 333 68 Q 316 68 303 60 Q 299 64 286 77 Z M 286 209 Q 333 213 375 213 Q 384 213 393 209 Q 405 209 414 213 Q 435 222 431 243 Q 410 273 422 311 Q 422 333 388 329 Q 358 320 303 324 Q 294 324 273 329 Q 252 333 252 311 Q 252 273 243 247 Q 235 230 252 213 Q 265 205 286 209 Z M 341 243 Q 286 239 290 269 Q 282 303 354 294 Q 380 294 380 277 Q 388 243 341 243 Z M 188 192 Q 205 188 230 179 Q 273 158 303 132 Q 286 115 265 98 Q 256 107 235 119 Q 201 132 201 119 Q 226 94 252 64 Q 269 38 282 13 Q 290 0 299 0 Q 311 0 329 13 Q 333 21 324 34 Q 333 47 375 47 Q 384 47 401 43 Q 427 51 410 73 Q 393 98 363 128 Q 427 158 512 175 Q 469 239 427 209 Q 375 175 333 154 Q 273 205 239 213 Q 209 222 188 213 Q 183 294 137 320 Q 64 350 38 311 Q 38 303 55 303 Q 85 299 107 286 Q 149 260 137 166 Q 125 225 73 226 Q 43 239 21 230 Q 4 218 17 209 Q 77 192 128 124 L 119 102 Q 55 137 21 128 Q 0 119 17 111 Q 43 102 64 94 Q 90 81 102 73 Q 90 55 68 38 Q 60 26 77 26 Q 107 34 137 55 Q 145 51 162 26 Q 171 9 179 9 Q 213 21 201 47 Q 188 64 158 85 Q 190 115 188 192 Z" fill="black" />
  </g>
  <g class="defect" id="01">
    <path d="M 158 85 Q 190 115 188 192" fill="none" stroke="red" stroke-width="3" />
  </g>
  <g class="defect" id="02">
    <path d="M 431 243 Q 410 273 422 311" fill="none" stroke="red" stroke-width="3" />
  </g>
  <g class="defect" id="03">
    <path d="M 137 166 Q 125 225 73 226" fill="none" stroke="red" stroke-width="3" />
  </g>
</svg>