<svg xmlns="http://www.w3.org/2000/svg" width="512" height="512" viewBox="0 0 512 512">
  <g class="glyph">
    <path d="M 275 17 Q 288 13 288 30 Q 279 47 271 63 Q 258 80 254 93 V 292 Q 288 296 317 271 Q 334 250 339 224 Q 296 224 275 233 Q 262 237 262 220 Q 271 195 292 195 Q 322 199 343 195 L 351 161 H 339 Q 313 182 296 186 Q 267 182 275 169 Q 317 140 334 110 Q 296 110 279 118 Q 267 118 267 106 Q 275 85 296 80 Q 330 85 364 85 Q 368 68 368 59 Q 364 51 343 51 Q 326 55 313 59 Q 300 59 305 47 Q 317 21 334 25 Q 372 30 394 21 Q 415 21 415 38 Q 402 55 394 85 Q 449 85 470 85 Q 482 85 482 102 Q 478 110 465 110 Q 432 106 355 110 Q 368 123 360 135 Q 410 140 449 140 Q 451 157 457 157 Q 453 165 444 165 Q 415 161 389 161 L 381 195 Q 491 203 512 195 Q 495 258 465 245 Q 436 228 377 224 Q 364 267 343 296 Q 317 326 296 330 Q 275 330 254 309 Q 245 351 224 347 Q 207 343 207 322 Q 216 250 212 114 Q 190 127 173 110 Q 161 93 173 85 Q 190 72 216 59 Q 241 42 275 17 Z M 173 8 Q 195 21 190 34 Q 186 47 173 63 Q 161 80 148 93 Q 182 140 182 203 Q 182 254 165 292 Q 144 330 110 339 Q 85 339 63 322 Q 55 313 55 309 Q 59 305 76 305 Q 114 300 127 271 Q 144 237 140 199 Q 90 205 68 250 Q 42 267 17 258 Q 0 245 4 237 Q 30 224 63 207 Q 97 190 135 161 Q 131 131 118 114 Q 85 140 51 148 Q 30 152 17 135 Q 17 127 55 114 Q 72 106 102 89 Q 85 76 63 59 Q 55 47 63 42 Q 76 34 93 47 Q 110 55 123 68 Q 131 63 140 47 Q 148 30 152 17 Q 161 0 173 8 Z M 419 245 Q 432 254 457 288 Q 497 313 491 330 Q 487 343 449 326 Q 423 309 406 292 Q 394 279 385 267 Q 381 254 389 245 Q 402 237 419 245 Z" fill="black" />
  </g>
  <g class="defect" id="01">
    <path d="M 449 140 Q 451 157 457 157" fill="none" stroke="red" stroke-width="3" />
  </g>
  <g class="defect" id="02">
    <path d="M 140 199 Q 90 205 68 250" fill="none" stroke="red" stroke-width="3" />
  </g>
  <g class="defect" id="03">
    <path d="M 457 288 Q 497 313 491 330" fill="none" stroke="red" stroke-width="3" />
  </g>
</svg>