<svg xmlns="http://www.w3.org/2000/svg" width="512" height="512" viewBox="0 0 512 512">
  <g class="glyph">
    <path d="M 245 181 Q 263 190 295 199 Q 299 213 249 213 Q 231 213 227 195 Q 227 177 245 181 Z M 295 227 Q 254 272 222 249 Q 213 236 222 231 Q 270 227 290 217 Q 308 213 295 227 Z M 453 199 Q 440 208 403 208 Q 381 204 376 195 Q 376 190 408 186 Q 435 172 453 181 Q 462 190 453 199 Z M 385 217 Q 421 222 462 222 Q 476 222 471 236 Q 471 254 421 245 Q 381 236 376 222 Q 372 217 385 217 Z M 276 59 Q 267 68 272 77 H 399 Q 412 68 399 59 Z M 276 113 H 399 Q 408 104 399 91 H 276 Q 263 100 276 113 Z M 276 150 H 399 Q 403 136 399 131 H 276 Q 267 136 276 150 Z M 199 272 Q 204 254 227 258 Q 249 263 317 258 V 204 Q 317 181 331 168 H 285 Q 272 172 258 177 Q 236 181 236 150 Q 236 113 231 68 Q 231 36 245 27 Q 254 27 267 32 H 304 L 313 14 Q 317 0 331 0 Q 362 0 362 18 Q 362 18 349 32 H 403 Q 417 18 435 27 Q 449 32 449 54 Q 444 104 444 154 Q 444 177 430 177 Q 417 177 403 168 H 353 Q 372 177 367 208 V 258 Q 444 263 512 263 Q 485 317 449 304 Q 417 290 367 290 V 326 Q 372 367 340 362 Q 317 367 317 322 V 290 Q 267 285 217 295 Q 190 304 199 272 Z M 190 272 Q 177 340 109 349 Q 72 353 54 326 Q 50 317 72 317 Q 163 308 145 190 Q 104 236 82 249 Q 59 263 27 258 Q 5 254 14 240 Q 77 222 131 154 Q 122 131 109 113 Q 77 140 54 150 Q 45 159 23 154 Q 0 150 18 136 Q 50 118 91 82 Q 72 63 59 54 Q 41 41 63 36 Q 100 41 118 59 Q 145 32 154 9 Q 163 5 177 5 Q 199 18 190 36 Q 172 63 140 91 Q 199 163 190 272 Z" fill="black" />
  </g>
  <g class="defect" id="01">
    <path d="M 222 231 Q 270 227 290 217" fill="none" stroke="red" stroke-width="3" />
  </g>
</svg>