<svg xmlns="http://www.w3.org/2000/svg" width="512" height="512" viewBox="0 0 512 512">
  <g class="glyph">
    <path d="M 274 110 Q 256 115 256 124 Q 256 132 274 132 H 380 Q 397 128 388 110 Z M 269 66 Q 252 71 256 88 Q 366 93 388 84 Q 402 66 331 66 Z M 296 154 Q 260 154 243 163 Q 216 172 216 141 Q 216 102 207 66 Q 203 35 234 35 Q 227 40 260 44 Q 282 44 291 13 Q 300 0 318 0 Q 335 0 340 18 Q 344 35 322 44 Q 375 44 406 35 Q 437 26 437 62 Q 433 110 433 141 Q 428 177 388 163 Q 362 154 344 154 V 247 Q 459 247 512 252 Q 477 313 450 296 Q 402 278 344 278 V 327 Q 349 366 322 362 Q 291 366 296 313 V 278 Q 225 278 190 287 Q 150 300 168 265 Q 185 243 203 243 Q 238 252 296 247 Z M 203 190 Q 199 168 221 168 Q 243 168 269 181 Q 282 194 265 194 Q 212 203 203 190 Z M 375 199 Q 353 194 366 185 Q 384 177 428 168 Q 450 172 437 194 Q 402 203 375 199 Z M 207 212 Q 234 207 274 203 Q 291 203 278 221 Q 252 234 212 243 Q 190 234 207 212 Z M 375 207 Q 402 199 441 230 Q 455 238 437 243 Q 384 243 371 230 Q 358 221 375 207 Z M 110 49 Q 106 62 97 84 Q 132 84 137 75 Q 172 66 172 97 Q 163 163 163 256 Q 163 282 137 278 Q 124 274 115 265 Q 75 256 53 265 Q 40 269 31 274 Q 13 278 9 256 Q -14 163 0 97 Q 0 66 31 71 Q 44 84 62 84 Q 66 57 66 35 Q 66 18 93 18 Q 115 22 110 49 Z M 106 106 Q 71 106 53 110 Q 40 124 49 150 Q 75 159 119 146 Q 128 110 106 106 Z M 49 185 Q 44 234 57 234 Q 75 230 115 230 Q 124 221 119 181 Q 75 177 49 185 Z" fill="black" />
  </g>
  <g class="defect" id="01">
    <path d="M 9 256 Q -14 163 0 97" fill="none" stroke="red" stroke-width="3" />
  </g>
  <g class="defect" id="02">
    <path d="M 234 35 Q 227 40 260 44" fill="none" stroke="red" stroke-width="3" />
  </g>
</svg>