<svg xmlns="http://www.w3.org/2000/svg" width="512" height="512" viewBox="0 0 512 512">
  <g class="glyph">
    <path d="M 212 44 Q 234 49 269 49 Q 287 49 287 31 Q 291 9 305 4 Q 344 0 344 26 Q 344 49 358 49 H 512 Q 494 102 459 93 Q 424 79 358 75 Q 309 71 234 75 Q 212 75 194 84 Q 172 88 181 66 Q 194 49 212 44 Z M 278 93 Q 305 97 340 93 Q 362 93 380 88 Q 406 84 406 102 Q 406 115 406 128 Q 406 141 402 159 Q 397 172 380 168 Q 362 163 340 159 Q 318 154 278 159 Q 243 177 243 159 Q 243 137 238 115 Q 221 88 252 88 Q 256 88 278 93 Z M 459 225 Q 459 278 463 322 Q 463 331 459 340 Q 437 353 419 349 Q 410 344 410 318 Q 415 278 415 243 Q 419 216 406 212 Q 388 207 366 207 Q 313 203 260 207 Q 247 207 243 225 Q 243 238 243 260 Q 247 300 221 327 Q 181 344 163 322 Q 207 291 207 247 Q 207 212 199 190 Q 199 168 221 172 Q 243 177 265 181 Q 309 185 353 181 Q 380 181 406 185 Q 419 181 428 177 Q 446 172 459 190 Q 468 203 459 225 Z M 349 252 Q 322 247 309 252 Q 291 265 305 282 Q 331 287 353 282 Q 366 260 349 252 Z M 291 225 Q 305 225 313 230 Q 331 234 349 230 Q 371 221 384 230 Q 397 243 393 252 Q 388 269 384 300 Q 375 318 358 309 Q 353 305 349 305 Q 327 300 300 305 Q 274 318 269 305 Q 269 278 265 252 Q 260 243 265 238 Q 274 221 291 225 Z M 287 119 Q 274 128 282 137 Q 313 132 353 137 Q 371 128 353 119 Q 318 115 287 119 Z M 110 35 Q 106 49 97 71 Q 132 71 137 62 Q 191 40 172 84 Q 163 154 163 247 Q 159 269 137 265 Q 124 260 115 252 Q 75 243 53 252 Q 22 244 31 260 Q 13 265 9 243 Q 9 150 0 84 Q 0 53 31 57 Q 44 71 62 71 Q 66 44 66 22 Q 66 4 93 4 Q 115 9 110 35 Z M 110 93 Q 71 93 53 97 Q 40 110 49 137 Q 75 146 124 132 Q 132 97 110 93 Z M 49 172 Q 44 221 57 221 Q 79 216 119 216 Q 128 207 124 168 Q 79 163 49 172 Z" fill="black" />
  </g>
  <g class="defect" id="01">
    <path d="M 137 62 Q 191 40 172 84" fill="none" stroke="red" stroke-width="3" />
  </g>
  <g class="defect" id="02">
    <path d="M 53 252 Q 22 244 31 260" fill="none" stroke="red" stroke-width="3" />
  </g>
</svg>