<svg xmlns="http://www.w3.org/2000/svg" width="512" height="512" viewBox="0 0 512 512">
  <g class="glyph">
    <path d="M 18 218 Q 31 191 53 196 Q 93 205 200 200 H 370 Q 508 200 512 209 Q 490 267 450 249 Q 343 227 245 227 Q 232 236 209 258 Q 280 263 325 258 Q 334 258 356 249 Q 396 245 396 280 Q 387 298 392 325 Q 392 352 378 352 Q 365 361 334 352 Q 263 334 196 347 Q 187 356 174 356 Q 156 356 151 329 Q 151 321 151 303 Q 111 329 71 334 Q 9 329 0 307 Q 0 303 22 303 Q 107 289 156 254 Q 178 232 174 227 Q 120 227 31 240 Q 9 245 18 218 Z M 325 285 Q 276 280 227 285 Q 200 285 200 307 Q 205 312 209 316 Q 267 325 329 316 Q 347 294 325 285 Z M 138 27 Q 191 45 191 49 Q 187 67 102 53 Q 76 49 71 31 Q 71 9 93 9 Q 107 13 138 27 Z M 174 98 Q 151 111 80 116 Q 22 120 27 85 Q 40 58 71 76 Q 116 93 174 98 Z M 138 165 Q 116 178 89 183 Q 58 187 49 165 Q 45 156 62 147 Q 116 142 174 129 Q 169 147 138 165 Z M 263 80 Q 236 125 191 125 Q 183 120 205 89 Q 218 71 227 49 Q 236 31 254 36 Q 280 49 263 80 Z M 343 22 V 102 Q 334 120 312 125 Q 294 125 289 102 V 22 Q 289 9 307 4 Q 338 0 343 22 Z M 191 156 Q 267 160 338 120 Q 387 85 383 76 Q 378 67 374 58 Q 374 45 387 36 Q 401 31 441 71 Q 463 93 485 107 Q 494 125 472 120 Q 445 116 419 98 Q 402 105 365 142 Q 334 165 289 178 Q 236 191 205 178 Q 178 169 191 156 Z" fill="black" />
  </g>
  <g class="defect" id="01">
    <path d="M 419 98 Q 402 105 365 142" fill="none" stroke="red" stroke-width="3" />
  </g>
</svg>