<svg xmlns="http://www.w3.org/2000/svg" width="512" height="512" viewBox="0 0 512 512">
  <g class="glyph">
    <path d="M 260 13 Q 269 17 273 30 Q 384 26 367 43 Q 363 47 350 47 H 273 Q 273 55 273 60 Q 380 64 397 55 Q 422 43 431 51 Q 448 60 444 102 Q 444 119 435 132 Q 422 141 418 128 Q 414 107 410 90 Q 401 81 384 81 Q 286 81 188 81 Q 145 81 107 85 Q 94 85 90 94 Q 81 115 77 141 Q 55 154 60 141 Q 55 119 51 102 Q 51 85 55 68 Q 60 55 77 60 Q 90 60 107 64 Q 196 64 218 60 Q 222 51 218 21 Q 222 0 260 13 Z M 137 98 Q 149 98 162 102 Q 243 107 363 102 Q 393 107 375 119 Q 346 124 290 124 Q 427 201 512 201 Q 478 282 439 256 Q 418 243 384 218 Q 311 166 247 137 Q 230 162 192 196 Q 188 205 196 205 Q 270 182 299 205 Q 337 201 346 201 Q 371 209 375 222 Q 375 235 371 247 V 311 Q 371 329 367 341 Q 354 358 333 354 Q 277 346 196 350 Q 183 363 158 358 Q 141 354 141 337 Q 141 316 141 294 Q 141 230 132 230 Q 90 256 51 260 Q 39 251 4 243 Q 0 230 17 226 Q 77 218 111 201 Q 145 183 166 166 Q 205 128 201 124 Q 158 124 119 128 Q 102 132 111 111 Q 119 98 137 98 Z M 380 132 Q 427 149 452 158 Q 457 166 444 166 Q 427 166 393 162 Q 363 162 346 141 Q 346 107 380 132 Z M 124 141 Q 132 137 141 141 Q 162 154 115 179 Q 60 205 55 192 Q 73 179 94 162 Q 111 149 124 141 Z M 192 226 Q 183 239 192 243 Q 260 247 316 243 Q 324 230 311 226 Q 247 218 192 226 Z M 192 265 Q 183 282 196 286 Q 260 290 316 286 Q 324 273 316 265 Q 252 256 192 265 Z M 196 307 Q 188 320 205 329 Q 256 337 311 329 Q 324 320 311 307 Q 252 299 196 307 Z" fill="black" />
  </g>
  <g class="defect" id="01">
    <path d="M 196 205 Q 270 182 299 205" fill="none" stroke="red" stroke-width="3" />
  </g>
  <g class="defect" id="02">
    <path d="M 51 260 Q 39 251 4 243" fill="none" stroke="red" stroke-width="3" />
  </g>
  <g class="defect" id="03">
    <path d="M 77 141 Q 55 154 60 141" fill="none" stroke="red" stroke-width="3" />
  </g>
</svg>