<svg xmlns="http://www.w3.org/2000/svg" width="512" height="512" viewBox="0 0 512 512">
  <g class="glyph">
    <path d="M 348 92 Q 325 105 348 118 Q 374 122 403 118 Q 415 105 403 92 Q 374 88 348 92 Z M 252 118 Q 277 122 302 118 Q 306 105 302 92 Q 281 88 252 92 Q 243 105 252 118 Z M 256 8 Q 269 0 281 17 Q 285 42 306 67 H 344 Q 361 38 365 17 Q 369 4 390 4 Q 411 13 407 34 Q 394 50 369 67 Q 394 71 420 63 Q 449 63 449 88 Q 441 130 436 185 Q 424 201 407 193 Q 390 180 348 185 V 210 Q 428 214 512 210 Q 489 242 483 256 Q 462 273 436 264 Q 406 243 348 239 V 315 Q 353 344 315 344 Q 294 344 298 315 Q 302 277 302 239 Q 235 239 185 260 Q 168 269 172 239 Q 176 227 193 214 Q 231 218 302 210 V 185 Q 260 185 239 193 Q 218 197 218 176 Q 218 126 210 88 Q 214 63 239 63 Q 256 76 273 71 Q 256 59 243 46 Q 227 25 256 8 Z M 59 84 Q 105 97 176 88 Q 197 92 189 122 Q 164 138 155 151 Q 180 164 201 185 Q 210 201 189 201 Q 172 189 151 180 V 306 Q 151 332 118 332 Q 101 327 101 311 Q 105 248 105 189 Q 67 218 42 227 Q 29 231 13 222 Q 0 210 0 197 Q 8 189 34 185 Q 88 172 126 138 Q 155 118 130 113 Q 88 118 55 126 Q 25 130 34 105 Q 38 88 59 84 Z M 302 138 Q 281 134 252 138 Q 248 151 252 164 Q 285 168 302 164 Q 311 155 302 138 Z M 348 164 Q 390 164 403 159 Q 407 147 403 138 Q 378 134 348 138 Q 344 151 348 164 Z M 80 17 Q 88 8 105 13 Q 130 25 185 46 Q 193 59 143 59 Q 88 63 76 46 Q 67 34 80 17 Z" fill="black" />
  </g>
  <g class="defect" id="01">
    <path d="M 348 92 Q 325 105 348 118" fill="none" stroke="red" stroke-width="3" />
  </g>
  <g class="defect" id="02">
    <path d="M 512 210 Q 489 242 483 256" fill="none" stroke="red" stroke-width="3" />
  </g>
  <g class="defect" id="03">
    <path d="M 436 264 Q 406 243 348 239" fill="none" stroke="red" stroke-width="3" />
  </g>
</svg>