<svg xmlns="http://www.w3.org/2000/svg" width="512" height="512" viewBox="0 0 512 512">
  <g class="glyph">
    <path d="M 284 148 Q 419 228 512 245 Q 457 334 406 292 Q 372 262 347 237 Q 309 203 271 173 Q 271 237 275 300 Q 275 326 262 343 Q 250 355 228 351 Q 216 343 216 322 V 195 Q 152 237 123 258 Q 85 284 47 296 Q 30 300 13 279 Q 4 271 0 258 Q 17 265 4 250 Q 34 241 63 233 Q 148 203 216 152 Q 169 148 123 148 Q 102 152 80 157 Q 63 165 63 144 Q 68 127 76 118 Q 93 106 110 110 Q 127 114 144 114 H 216 Q 220 97 216 72 Q 141 72 106 63 Q 85 51 110 42 Q 173 47 245 38 Q 309 30 339 13 Q 360 0 381 34 Q 389 51 377 55 Q 334 68 271 72 V 114 Q 351 114 406 114 Q 423 114 436 127 Q 440 140 432 148 Q 406 152 377 152 Q 313 148 284 148 Z" fill="black" />
  </g>
  <g class="defect" id="01">
    <path d="M 0 258 Q 17 265 4 250" fill="none" stroke="red" stroke-width="3" />
  </g>
  <g class="defect" id="02">
    <path d="M 216 72 Q 141 72 106 63" fill="none" stroke="red" stroke-width="3" />
  </g>
</svg>