<svg xmlns="http://www.w3.org/2000/svg" width="512" height="512" viewBox="0 0 512 512">
  <g class="glyph">
    <path d="M 406 127 Q 410 115 422 123 Q 438 135 438 152 Q 426 188 410 217 Q 459 270 512 299 Q 512 311 475 332 Q 451 340 438 319 Q 418 295 393 250 Q 344 315 303 315 Q 283 311 287 299 Q 332 279 369 221 Q 344 197 328 176 Q 315 168 328 147 Q 344 139 352 152 Q 369 176 385 193 Q 401 160 406 127 Z M 418 16 Q 426 0 442 12 Q 455 33 438 49 Q 422 66 410 74 Q 438 98 459 119 Q 463 135 446 131 Q 410 106 389 94 Q 352 127 328 127 Q 287 119 311 106 Q 336 102 369 78 Q 356 66 336 53 Q 324 45 332 29 Q 348 8 365 25 Q 377 41 389 53 Q 406 33 418 16 Z M 205 131 Q 201 152 209 156 H 229 V 131 Z M 209 41 Q 201 45 205 66 H 229 V 41 Z M 156 225 Q 160 205 168 209 Q 180 213 180 229 Q 164 262 143 283 Q 135 291 139 279 Q 152 242 156 225 Z M 197 209 Q 209 213 209 229 Q 209 250 205 274 Q 197 287 193 274 Q 193 254 188 229 Q 188 213 197 209 Z M 233 213 Q 246 229 233 266 Q 229 283 225 270 Q 221 246 221 221 Q 221 205 233 213 Z M 205 86 V 111 H 229 V 86 Z M 270 254 274 217 Q 279 188 270 184 Q 221 180 197 188 Q 172 205 172 172 Q 176 160 176 147 Q 180 70 172 33 Q 168 8 188 12 Q 205 20 258 20 Q 287 16 303 29 Q 307 41 287 41 H 254 V 66 H 274 Q 295 66 287 82 Q 269 73 254 86 V 111 H 287 Q 282 119 287 127 Q 274 131 254 131 V 156 Q 274 156 283 152 Q 303 135 311 168 Q 307 197 303 229 Q 299 287 283 303 Q 258 328 221 311 Q 197 291 205 283 Q 246 295 262 274 Q 250 250 246 221 Q 250 197 262 213 Q 266 238 270 254 Z M 61 45 Q 102 53 143 49 Q 160 49 156 61 Q 156 70 147 78 H 102 Q 98 106 90 143 Q 111 147 127 143 Q 131 139 139 139 Q 143 139 147 143 Q 160 152 152 172 Q 147 213 147 242 Q 147 250 139 250 Q 131 250 127 246 Q 102 242 86 254 Q 74 258 74 229 V 180 Q 53 217 33 229 Q 0 225 4 209 Q 61 164 74 78 Q 53 78 41 86 Q 25 86 33 61 Q 41 41 61 45 Z M 94 180 V 209 Q 94 221 119 221 Q 127 221 127 201 Q 127 168 119 168 Q 94 164 94 180 Z" fill="black" />
  </g>
  <g class="defect" id="01">
    <path d="M 287 111 Q 282 119 287 127" fill="none" stroke="red" stroke-width="3" />
  </g>
  <g class="defect" id="02">
    <path d="M 287 82 Q 269 73 254 86" fill="none" stroke="red" stroke-width="3" />
  </g>
</svg>