<svg xmlns="http://www.w3.org/2000/svg" width="512" height="512" viewBox="0 0 512 512">
  <g class="glyph">
    <path d="M 230 107 Q 273 111 265 145 Q 316 145 337 145 Q 410 145 410 158 Q 410 175 388 175 Q 209 166 90 188 Q 73 192 77 171 Q 98 141 115 145 Q 158 154 201 145 Q 218 145 213 128 Q 213 107 230 107 Z M 179 192 Q 192 183 201 188 Q 227 201 256 201 Q 273 201 282 192 Q 290 188 307 196 Q 329 209 311 222 Q 303 265 316 282 Q 333 299 388 303 Q 439 311 512 277 Q 491 363 444 358 Q 307 350 277 307 Q 265 277 269 230 Q 239 222 209 230 Q 213 282 175 316 Q 111 375 21 341 Q 0 320 26 320 Q 111 320 149 286 Q 179 247 166 222 Q 158 213 179 192 Z M 132 26 Q 166 0 175 47 L 239 64 Q 239 73 269 64 Q 294 51 311 38 Q 320 30 333 21 Q 346 17 354 21 Q 367 26 371 38 Q 393 47 414 55 Q 508 90 508 94 Q 508 107 486 107 Q 461 102 431 94 Q 367 68 367 81 Q 356 96 341 98 Q 333 102 320 85 Q 316 68 286 90 Q 256 115 235 98 Q 222 90 213 81 Q 175 77 166 85 Q 162 90 162 94 Q 132 119 119 90 Q 119 85 119 77 Q 115 73 90 94 Q 47 124 13 98 Q 4 85 4 77 Q 43 73 68 64 Q 90 60 111 43 Q 124 34 132 26 Z" fill="black" />
  </g>
  <g class="defect" id="01">
    <path d="M 201 188 Q 227 201 256 201" fill="none" stroke="red" stroke-width="3" />
  </g>
  <g class="defect" id="02">
    <path d="M 367 81 Q 356 96 341 98" fill="none" stroke="red" stroke-width="3" />
  </g>
</svg>