<svg xmlns="http://www.w3.org/2000/svg" width="512" height="512" viewBox="0 0 512 512">
  <g class="glyph">
    <path d="M 321 121 Q 341 117 362 104 Q 383 96 391 121 Q 391 125 391 129 Q 387 142 366 142 Q 296 146 237 154 Q 229 162 233 175 Q 308 171 358 171 Q 379 175 379 187 Q 387 204 358 200 Q 304 196 241 196 Q 233 196 233 221 Q 304 225 404 216 Q 433 225 412 241 Q 304 241 237 246 Q 225 283 321 287 Q 416 291 475 266 L 512 246 Q 508 271 500 287 Q 466 350 408 345 Q 287 337 221 312 Q 179 296 183 250 Q 154 250 121 254 Q 75 258 37 271 Q 0 283 12 250 Q 21 229 42 225 Q 100 233 183 221 Q 205 208 183 200 Q 129 200 92 208 Q 71 212 75 196 Q 87 171 108 175 Q 133 179 183 179 Q 187 167 183 154 Q 137 158 104 154 Q 67 150 83 133 H 112 Q 208 142 321 121 Z M 204 33 Q 233 65 246 54 Q 254 62 233 67 Q 200 54 196 71 Q 196 112 179 112 Q 145 117 154 100 Q 162 58 146 62 Q 87 108 37 104 Q 0 100 12 75 Q 17 75 42 71 Q 104 62 171 8 Q 200 0 204 33 Z M 350 33 Q 400 58 462 71 Q 475 92 454 96 Q 433 96 354 71 Q 337 71 341 83 Q 341 108 316 108 Q 304 108 308 96 Q 308 75 300 75 Q 271 96 241 100 Q 221 87 246 75 Q 275 54 291 37 Q 308 21 316 12 Q 333 4 350 33 Z" fill="black" />
  </g>
  <g class="defect" id="01">
    <path d="M 183 221 Q 205 208 183 200" fill="none" stroke="red" stroke-width="3" />
  </g>
  <g class="defect" id="02">
    <path d="M 179 112 Q 145 117 154 100" fill="none" stroke="red" stroke-width="3" />
  </g>
  <g class="defect" id="03">
    <path d="M 204 33 Q 233 65 246 54" fill="none" stroke="red" stroke-width="3" />
  </g>
</svg>