<svg xmlns="http://www.w3.org/2000/svg" width="512" height="512" viewBox="0 0 512 512">
  <g class="glyph">
    <path d="M 258 142 V 287 Q 258 321 229 321 Q 208 321 212 283 Q 216 221 216 171 Q 200 187 175 162 Q 167 146 183 137 Q 229 121 275 83 Q 291 75 291 87 Q 283 112 258 142 Z M 508 104 Q 512 121 483 146 Q 466 162 450 154 Q 429 142 412 142 Q 404 158 412 262 Q 416 325 354 321 Q 291 312 287 283 Q 308 287 333 287 Q 366 287 362 246 V 137 Q 321 137 296 150 Q 275 154 283 133 Q 296 100 312 100 Q 391 104 508 104 Z M 296 25 Q 266 62 221 83 Q 200 87 183 75 Q 167 58 183 50 Q 229 42 283 12 Q 308 8 296 25 Z M 425 33 Q 450 33 454 46 Q 458 62 441 62 Q 391 58 333 67 Q 304 71 308 54 Q 321 33 333 29 Q 357 42 425 33 Z M 58 241 Q 79 250 67 271 Q 42 321 21 325 Q 0 333 8 316 Q 25 291 37 250 Q 42 233 58 241 Z M 125 266 Q 121 287 112 316 Q 100 333 96 316 Q 96 291 92 266 Q 87 246 108 241 Q 125 241 125 266 Z M 171 96 Q 121 146 92 179 Q 79 191 108 200 Q 137 200 146 183 Q 125 162 142 142 Q 162 129 167 154 Q 179 183 187 196 Q 187 225 162 200 Q 146 233 112 229 Q 83 212 67 216 Q 29 225 33 196 Q 33 187 58 167 Q 71 154 83 137 Q 62 133 46 137 Q 25 142 25 108 Q 29 92 42 87 Q 62 75 96 17 Q 108 0 125 12 Q 146 25 125 42 Q 104 71 75 100 Q 62 117 100 117 Q 129 87 137 71 Q 150 46 167 58 Q 187 79 171 96 Z M 175 246 Q 179 275 187 291 Q 187 308 171 296 Q 158 283 146 258 Q 137 241 154 233 Q 167 229 175 246 Z" fill="black" />
  </g>
  <g class="defect" id="01">
    <path d="M 333 29 Q 357 42 425 33" fill="none" stroke="red" stroke-width="3" />
  </g>
</svg>