<svg xmlns="http://www.w3.org/2000/svg" width="512" height="512" viewBox="0 0 512 512">
  <g class="glyph">
    <path d="M 381 209 H 303 Q 291 213 291 221 H 385 Q 389 213 381 209 Z M 385 233 H 291 Q 274 246 299 250 H 377 Q 385 250 385 233 Z M 332 4 Q 369 0 365 41 Q 430 41 459 45 Q 475 49 471 57 Q 467 61 451 61 H 274 Q 246 61 221 74 Q 205 78 209 66 Q 217 45 233 37 Q 258 41 299 41 Q 303 4 332 4 Z M 238 82 Q 254 78 295 78 H 401 Q 418 70 438 78 Q 451 86 446 111 V 160 Q 446 197 401 180 H 279 Q 262 184 250 188 Q 238 188 229 172 V 152 L 221 102 Q 217 90 238 82 Z M 393 94 H 274 Q 262 102 262 115 Q 262 143 266 160 Q 332 164 397 164 Q 406 160 410 156 V 106 Q 410 94 393 94 Z M 295 102 Q 311 106 360 106 Q 369 102 373 102 Q 385 98 389 111 V 139 Q 389 152 377 152 H 295 Q 291 147 287 147 Q 279 127 283 111 Q 287 106 295 102 Z M 365 123 Q 336 119 315 119 Q 307 123 315 135 H 348 Q 365 135 365 123 Z M 266 193 Q 274 193 283 197 Q 299 193 315 193 Q 348 193 381 197 Q 389 193 397 188 Q 406 188 418 197 Q 426 209 422 233 Q 418 246 414 258 Q 406 266 393 266 Q 365 262 299 262 Q 287 266 279 270 Q 262 270 258 258 Q 254 233 250 213 Q 246 197 266 193 Z M 270 283 Q 467 283 512 287 Q 500 307 487 319 Q 463 336 451 328 Q 414 311 348 307 H 246 Q 221 311 197 319 Q 180 328 180 311 Q 193 283 209 279 Q 229 283 270 283 Z M 201 12 Q 225 33 209 49 Q 188 70 164 90 H 205 Q 221 102 205 111 Q 180 111 156 115 V 135 Q 176 131 193 135 Q 205 143 193 152 L 156 160 V 193 L 209 188 Q 221 193 221 205 Q 225 217 156 221 Q 152 274 111 303 Q 61 332 29 311 Q 16 303 33 295 Q 111 274 119 225 Q 66 229 25 242 Q 0 246 4 225 Q 16 197 37 201 Q 74 201 119 197 V 164 Q 86 168 74 172 Q 49 176 57 156 Q 70 139 82 139 Q 98 143 119 139 V 115 Q 78 119 57 123 Q 51 127 45 102 Q 49 94 57 90 Q 70 82 78 86 Q 90 94 147 90 Q 168 37 172 20 Q 180 4 201 12 Z M 82 20 Q 111 8 115 29 Q 119 57 127 82 Q 127 90 115 86 Q 61 49 82 20 Z" fill="black" />
  </g>
  <g class="defect" id="01">
    <path d="M 291 233 Q 274 246 299 250" fill="none" stroke="red" stroke-width="3" />
  </g>
  <g class="defect" id="02">
    <path d="M 57 123 Q 51 127 45 102" fill="none" stroke="red" stroke-width="3" />
  </g>
</svg>