<svg xmlns="http://www.w3.org/2000/svg" width="512" height="512" viewBox="0 0 512 512">
  <g class="glyph">
    <path d="M 427 142 Q 398 138 370 138 H 362 V 167 Q 439 175 512 179 Q 508 191 492 211 Q 471 232 451 219 Q 419 207 362 199 V 305 Q 358 325 325 325 Q 309 321 313 297 Q 317 264 317 199 Q 272 203 236 215 Q 211 215 215 195 Q 223 175 236 171 Q 262 184 317 167 V 138 Q 293 138 252 142 Q 240 142 244 126 Q 252 114 268 114 Q 289 118 317 114 Q 317 65 313 37 Q 313 8 329 4 Q 362 0 366 37 Q 358 61 362 114 Q 463 118 451 130 Q 447 142 427 142 Z M 171 195 Q 160 206 122 191 Q 114 236 98 268 Q 73 309 45 309 Q 0 301 4 276 Q 12 268 24 264 Q 69 244 81 199 Q 98 118 81 45 Q 81 16 110 16 Q 122 20 130 28 Q 150 28 179 24 Q 187 16 199 20 Q 215 28 211 53 Q 203 98 207 150 Q 194 192 215 276 Q 215 297 203 313 Q 167 325 171 293 Z M 122 126 V 163 H 171 V 126 Z M 171 98 Q 179 61 158 53 Q 122 53 122 69 V 98 Z M 284 53 Q 293 73 301 98 Q 301 102 293 102 Q 268 98 256 85 Q 228 57 264 37 Q 280 37 284 53 Z M 435 49 Q 439 73 386 102 Q 374 102 382 85 Q 398 61 402 41 Q 414 24 435 49 Z" fill="black" />
  </g>
  <g class="defect" id="01">
    <path d="M 171 195 Q 160 206 122 191" fill="none" stroke="red" stroke-width="3" />
  </g>
  <g class="defect" id="02">
    <path d="M 207 150 Q 194 192 215 276" fill="none" stroke="red" stroke-width="3" />
  </g>
  <g class="defect" id="03">
    <path d="M 236 171 Q 262 184 317 167" fill="none" stroke="red" stroke-width="3" />
  </g>
</svg>