<svg xmlns="http://www.w3.org/2000/svg" width="512" height="512" viewBox="0 0 512 512">
  <g class="glyph">
    <path d="M 87 29 Q 96 25 117 42 H 142 Q 154 37 162 33 Q 175 29 183 37 Q 196 46 196 71 Q 196 92 191 112 V 225 Q 196 212 212 208 Q 225 212 258 212 Q 279 191 291 167 Q 281 150 250 175 Q 233 179 233 162 Q 229 121 221 75 Q 216 62 225 50 Q 233 42 241 42 Q 258 50 275 50 Q 287 37 291 17 Q 304 0 325 4 Q 345 12 312 46 Q 370 50 400 50 Q 408 46 420 42 Q 433 33 450 50 Q 443 62 458 75 Q 450 129 437 162 Q 429 179 412 175 Q 383 167 329 167 Q 316 187 296 212 L 329 208 Q 329 179 345 175 Q 375 175 379 208 Q 466 216 500 216 Q 512 221 495 246 Q 470 275 454 262 Q 408 250 379 246 V 316 Q 370 345 345 345 Q 329 345 329 321 V 241 Q 233 241 191 250 L 196 316 Q 183 337 171 337 Q 158 337 154 325 V 208 H 108 Q 96 262 67 300 Q 42 325 17 308 Q 0 296 12 287 Q 37 266 58 237 Q 92 183 79 87 Q 75 71 71 54 Q 71 33 87 29 Z M 312 117 266 121 Q 266 137 275 146 L 304 142 Z M 412 96 Q 416 79 400 71 H 358 L 354 96 Z M 350 117 341 142 Q 379 142 400 137 Q 412 129 408 112 Z M 112 112 Q 133 121 154 112 Q 154 79 146 67 Q 110 42 112 75 Z M 112 175 Q 133 179 154 175 V 146 Q 137 142 112 146 Z M 316 96 321 71 H 279 Q 266 75 266 100 Z" fill="black" />
  </g>
  <g class="defect" id="01">
    <path d="M 450 50 Q 443 62 458 75" fill="none" stroke="red" stroke-width="3" />
  </g>
  <g class="defect" id="02">
    <path d="M 146 67 Q 110 42 112 75" fill="none" stroke="red" stroke-width="3" />
  </g>
  <g class="defect" id="03">
    <path d="M 291 167 Q 281 150 250 175" fill="none" stroke="red" stroke-width="3" />
  </g>
</svg>