<svg xmlns="http://www.w3.org/2000/svg" width="512" height="512" viewBox="0 0 512 512">
  <g class="glyph">
    <path d="M 379 212 H 300 Q 287 216 287 225 H 383 Q 387 216 379 212 Z M 383 237 H 287 Q 287 250 296 254 H 375 Q 383 254 383 237 Z M 100 121 H 142 V 79 Q 142 75 137 71 Q 129 58 112 62 Q 104 62 100 67 Z M 142 187 V 146 H 100 L 96 187 Z M 96 37 H 133 Q 142 33 150 33 Q 162 33 171 37 Q 183 46 183 62 Q 179 83 175 108 Q 175 246 179 308 Q 175 321 162 325 Q 150 329 142 321 Q 137 312 137 304 Q 142 275 142 212 H 96 L 83 262 Q 67 308 25 312 Q 8 308 0 296 Q 4 291 12 283 Q 62 246 67 167 V 117 Q 62 87 58 62 Q 54 46 62 37 Q 81 33 75 29 Q 87 33 96 37 Z M 316 4 Q 325 0 341 8 Q 345 12 354 21 L 362 46 Q 429 42 466 50 Q 475 54 470 62 Q 466 67 454 67 Q 370 62 266 67 Q 237 67 212 79 Q 196 83 204 67 Q 212 46 225 46 Q 233 46 241 46 Q 266 50 296 46 Q 300 17 316 4 Z M 233 83 Q 250 79 291 75 H 404 Q 416 75 420 75 Q 429 75 437 79 Q 450 87 445 112 V 162 Q 441 179 437 183 Q 429 191 416 187 Q 408 183 400 183 H 275 Q 258 187 246 191 Q 233 191 225 175 V 154 L 216 104 Q 212 92 233 83 Z M 391 96 H 271 Q 258 104 258 117 Q 258 146 262 162 Q 329 167 395 167 Q 404 162 408 158 V 108 Q 408 96 391 96 Z M 291 104 Q 308 108 358 108 Q 366 104 370 104 Q 383 100 387 112 V 142 Q 387 154 375 154 H 291 Q 287 150 283 150 Q 275 129 279 112 Q 283 108 291 104 Z M 362 125 Q 333 121 312 121 Q 304 125 312 137 H 345 Q 362 137 362 125 Z M 262 196 Q 271 196 279 200 Q 296 196 312 196 Q 345 196 379 200 Q 387 196 395 191 Q 404 191 416 200 Q 425 212 420 237 Q 416 250 412 262 Q 404 271 391 271 Q 362 266 296 266 Q 283 271 275 275 Q 258 275 254 262 Q 250 237 246 216 Q 241 200 262 196 Z M 266 287 H 412 Q 458 291 508 287 Q 512 300 487 325 Q 462 341 450 333 Q 393 331 345 312 H 254 Q 229 316 204 325 Q 187 333 187 316 Q 200 287 216 283 Q 237 287 266 287 Z" fill="black" />
  </g>
  <g class="defect" id="01">
    <path d="M 62 37 Q 81 33 75 29" fill="none" stroke="red" stroke-width="3" />
  </g>
  <g class="defect" id="02">
    <path d="M 450 333 Q 393 331 345 312" fill="none" stroke="red" stroke-width="3" />
  </g>
</svg>