<svg xmlns="http://www.w3.org/2000/svg" width="512" height="512" viewBox="0 0 512 512">
  <g class="glyph">
    <path d="M 42 38 Q 110 47 157 42 Q 152 0 186 0 Q 212 4 207 42 Q 254 47 300 42 Q 300 0 330 4 Q 355 4 351 42 H 398 Q 474 47 512 47 Q 508 63 495 76 Q 452 110 432 89 Q 381 72 351 72 Q 351 102 317 97 Q 339 97 339 127 Q 339 169 339 216 Q 339 241 313 241 Q 284 245 288 199 Q 288 169 288 135 Q 279 97 305 93 Q 300 85 300 72 Q 258 68 207 72 Q 212 106 182 106 Q 157 106 157 72 Q 89 72 21 85 Q 0 93 4 68 Q 17 42 42 38 Z M 72 93 Q 85 85 110 97 Q 135 114 161 127 Q 169 131 178 135 Q 178 148 161 148 Q 135 144 106 140 Q 85 135 68 131 Q 42 114 72 93 Z M 102 178 Q 152 186 135 199 Q 97 207 47 212 Q 13 212 8 195 Q 4 169 34 165 Q 68 169 102 178 Z M 148 228 157 233 148 250 Q 131 271 114 284 Q 97 296 80 309 Q 47 326 34 300 Q 41 264 47 267 Q 72 258 97 250 Q 139 224 148 228 Z M 254 135 Q 267 148 258 165 Q 241 186 220 207 Q 203 224 173 241 Q 157 241 165 224 Q 182 207 195 186 Q 207 161 220 140 Q 237 123 254 135 Z M 410 135 Q 423 144 440 165 Q 470 199 499 224 Q 495 233 491 233 Q 465 224 444 212 Q 419 199 398 182 Q 381 169 368 157 Q 360 140 381 127 Q 394 123 410 135 Z M 355 228 Q 364 220 372 216 Q 385 199 402 212 Q 419 233 389 250 Q 368 262 347 275 Q 292 300 245 330 Q 186 360 144 330 Q 110 305 131 300 Q 148 300 182 296 Q 228 288 296 262 Q 322 254 355 228 Z" fill="black" />
  </g>
  <g class="defect" id="01">
    <path d="M 97 250 Q 139 224 148 228" fill="none" stroke="red" stroke-width="3" />
  </g>
  <g class="defect" id="02">
    <path d="M 34 300 Q 41 264 47 267" fill="none" stroke="red" stroke-width="3" />
  </g>
  <g class="defect" id="03">
    <path d="M 495 76 Q 452 110 432 89" fill="none" stroke="red" stroke-width="3" />
  </g>
</svg>