<svg xmlns="http://www.w3.org/2000/svg" width="512" height="512" viewBox="0 0 512 512">
  <g class="glyph">
    <path d="M 230 81 Q 273 85 265 124 Q 316 124 337 124 Q 393 128 397 137 Q 397 154 375 154 Q 209 145 119 166 Q 102 171 111 149 Q 124 119 141 124 Q 158 128 201 124 Q 218 124 213 102 Q 213 81 230 81 Z M 179 175 Q 192 166 201 171 Q 213 183 256 183 Q 273 183 282 175 Q 290 171 307 179 Q 329 192 311 209 Q 303 252 316 269 Q 333 286 388 294 Q 439 303 512 265 Q 491 354 444 350 Q 307 341 277 299 Q 265 265 269 218 Q 239 209 209 218 Q 213 269 175 307 Q 111 367 21 333 Q -18 311 26 311 Q 111 311 149 273 Q 179 235 166 209 Q 158 196 179 175 Z M 77 38 Q 98 47 141 43 Q 141 0 171 4 Q 201 13 192 43 H 303 V 17 Q 307 9 316 4 Q 329 4 341 9 Q 358 17 354 43 Q 444 43 461 47 Q 474 55 461 68 Q 452 73 439 73 H 354 Q 354 98 329 102 Q 307 107 303 73 H 192 Q 192 85 188 94 Q 171 111 154 102 Q 141 98 141 73 Q 90 73 60 81 Q 38 85 43 64 Q 55 34 77 38 Z" fill="black" />
  </g>
  <g class="defect" id="01">
    <path d="M 21 333 Q -18 311 26 311" fill="none" stroke="red" stroke-width="3" />
  </g>
</svg>