<svg xmlns="http://www.w3.org/2000/svg" width="512" height="512" viewBox="0 0 512 512">
  <g class="glyph">
    <path d="M 193 102 Q 225 102 225 123 Q 221 152 221 180 H 242 Q 262 197 238 201 H 221 Q 217 246 221 295 Q 221 307 209 319 Q 193 332 160 324 Q 139 315 127 295 Q 127 291 131 291 Q 143 295 156 295 Q 180 303 184 279 Q 188 242 184 201 H 123 Q 119 270 82 307 Q 53 328 16 319 Q 0 311 16 303 Q 25 299 37 295 Q 86 262 86 205 Q 49 205 25 213 Q 12 213 16 201 Q 25 180 41 180 Q 49 184 86 180 Q 86 139 82 119 Q 82 102 106 102 Q 119 111 123 111 Q 135 111 135 90 Q 135 70 160 74 Q 188 82 160 111 Q 180 111 193 102 Z M 369 172 Q 385 180 393 193 Q 393 209 373 246 Q 442 279 512 283 Q 467 344 422 315 Q 393 295 352 270 Q 344 274 324 291 Q 287 311 254 311 Q 233 303 229 291 Q 216 287 258 283 Q 299 274 324 254 Q 299 238 283 233 Q 258 229 266 217 Q 266 205 287 205 Q 311 213 344 233 L 356 209 Q 365 201 340 197 H 319 Q 299 205 291 201 Q 279 193 303 172 Q 332 180 369 172 Z M 127 131 Q 119 143 123 180 H 184 Q 188 156 184 131 Q 147 127 127 131 Z M 164 147 Q 168 160 172 168 Q 176 180 160 176 Q 147 172 135 160 Q 127 152 131 143 Q 149 153 147 139 Q 160 139 164 147 Z M 365 74 Q 393 74 393 94 Q 399 120 389 127 Q 389 152 430 143 Q 446 139 463 131 Q 475 127 471 139 Q 455 176 397 176 Q 369 172 360 160 Q 352 152 352 127 Q 352 106 340 106 H 315 Q 315 123 311 139 Q 307 156 295 164 Q 266 184 238 172 Q 233 168 233 164 Q 250 160 266 152 Q 283 139 283 115 Q 279 102 274 90 Q 279 70 303 74 Q 311 78 324 86 H 348 Q 360 82 365 74 Z M 164 225 Q 168 246 172 262 Q 176 274 164 270 Q 139 254 127 233 Q 127 221 135 217 Q 156 213 164 225 Z M 102 20 Q 123 29 164 25 V 8 Q 172 0 184 0 Q 217 0 213 25 H 311 V 16 Q 311 0 332 0 Q 360 0 360 25 H 426 Q 455 33 451 41 Q 455 53 426 49 H 360 Q 365 70 324 70 Q 311 66 311 49 H 213 Q 209 70 184 66 Q 168 70 164 49 Q 123 49 70 61 Q 53 61 61 45 Q 82 16 102 20 Z" fill="black" />
  </g>
  <g class="defect" id="01">
    <path d="M 131 143 Q 149 153 147 139" fill="none" stroke="red" stroke-width="3" />
  </g>
  <g class="defect" id="02">
    <path d="M 393 94 Q 399 120 389 127" fill="none" stroke="red" stroke-width="3" />
  </g>
  <g class="defect" id="03">
    <path d="M 229 291 Q 216 287 258 283" fill="none" stroke="red" stroke-width="3" />
  </g>
</svg>