<svg xmlns="http://www.w3.org/2000/svg" width="512" height="512" viewBox="0 0 512 512">
  <g class="glyph">
    <path d="M 42 33 Q 88 42 130 37 Q 126 5 149 5 Q 182 5 182 37 H 284 Q 284 5 307 0 Q 340 0 335 37 H 451 Q 470 56 451 65 H 335 Q 335 84 312 84 Q 289 84 284 65 H 182 Q 172 88 154 88 Q 130 88 130 65 Q 65 65 23 79 Q 0 88 9 65 Q 28 28 42 33 Z M 37 102 Q 56 84 84 93 Q 116 107 158 102 Q 172 98 182 93 Q 214 88 214 121 Q 205 149 209 182 Q 205 209 177 200 Q 144 191 93 191 V 223 H 168 Q 191 223 195 237 Q 195 256 163 251 H 88 V 284 H 209 Q 219 289 219 298 Q 219 312 200 312 H 88 V 358 Q 74 391 47 372 Q 22 368 42 293 V 144 Q 28 121 37 102 Z M 358 205 Q 382 200 405 214 Q 428 233 419 242 Q 400 270 377 298 Q 451 335 512 335 Q 470 410 424 377 Q 386 349 349 326 Q 276 353 233 372 Q 191 377 172 349 Q 256 335 312 303 Q 279 284 247 261 Q 247 237 279 247 Q 312 261 340 279 Q 382 233 349 228 Q 303 228 261 233 Q 223 247 228 223 Q 237 205 265 205 Q 312 214 358 205 Z M 98 126 Q 88 126 93 168 H 154 Q 168 172 168 140 Q 168 126 158 126 Z M 251 130 Q 228 140 237 112 Q 247 93 265 93 Q 304 117 377 93 Q 391 93 405 98 Q 424 112 419 130 Q 410 154 410 182 Q 400 191 382 191 Q 368 195 354 186 Q 307 186 247 191 Q 233 195 237 172 Q 242 158 265 158 Q 317 163 344 163 Q 372 168 372 135 Q 372 121 354 121 Q 303 121 251 130 Z" fill="black" />
  </g>
  <g class="defect" id="01">
    <path d="M 265 93 Q 304 117 377 93" fill="none" stroke="red" stroke-width="3" />
  </g>
  <g class="defect" id="02">
    <path d="M 47 372 Q 22 368 42 293" fill="none" stroke="red" stroke-width="3" />
  </g>
  <g class="defect" id="03">
    <path d="M 349 326 Q 276 353 233 372" fill="none" stroke="red" stroke-width="3" />
  </g>
</svg>