<svg xmlns="http://www.w3.org/2000/svg" width="512" height="512" viewBox="0 0 512 512">
  <g class="glyph">
    <path d="M 97 29 Q 118 42 164 38 V 21 Q 172 0 197 8 Q 210 13 210 25 V 38 H 285 V 21 Q 290 13 298 8 Q 323 4 327 17 V 42 Q 445 42 445 55 Q 449 63 441 67 H 327 Q 336 92 302 92 Q 285 88 285 67 H 210 Q 214 97 193 101 Q 185 101 176 101 Q 159 97 164 67 Q 105 63 63 76 Q 50 76 50 63 Q 67 25 97 29 Z M 256 84 Q 281 76 285 101 Q 319 113 344 109 Q 365 105 374 126 Q 374 138 365 147 Q 353 159 336 168 Q 386 189 436 201 Q 474 206 512 210 Q 504 231 483 252 Q 457 269 424 248 Q 318 210 311 189 Q 256 214 214 222 Q 227 231 252 231 Q 290 231 332 231 Q 348 231 357 227 Q 378 222 382 248 Q 378 273 378 311 Q 382 340 357 332 Q 294 319 222 332 Q 210 336 201 315 Q 224 269 193 243 Q 193 227 206 222 Q 180 231 155 235 Q 130 235 130 210 Q 159 206 185 201 Q 217 211 285 176 Q 256 168 239 151 Q 214 164 189 172 Q 172 176 168 164 Q 222 126 256 84 Z M 80 97 Q 109 118 155 143 Q 155 151 130 155 Q 97 155 67 138 Q 50 126 55 113 Q 63 92 80 97 Z M 25 155 Q 71 176 126 197 Q 126 206 84 210 Q 46 214 13 197 Q 0 189 0 176 Q 4 151 25 155 Z M 59 260 Q 101 256 143 248 Q 159 248 151 264 Q 126 294 63 306 Q 38 311 29 290 Q 34 260 59 260 Z M 239 260 Q 231 269 239 294 Q 294 306 340 294 Q 348 273 340 260 Q 294 252 239 260 Z M 306 155 Q 323 147 332 138 Q 336 130 319 130 Q 298 130 273 122 L 260 130 Q 281 147 306 155 Z" fill="black" />
  </g>
  <g class="defect" id="01">
    <path d="M 201 315 Q 224 269 193 243" fill="none" stroke="red" stroke-width="3" />
  </g>
  <g class="defect" id="02">
    <path d="M 185 201 Q 217 211 285 176" fill="none" stroke="red" stroke-width="3" />
  </g>
  <g class="defect" id="03">
    <path d="M 424 248 Q 318 210 311 189" fill="none" stroke="red" stroke-width="3" />
  </g>
</svg>