<svg xmlns="http://www.w3.org/2000/svg" width="512" height="512" viewBox="0 0 512 512">
  <g class="glyph">
    <path d="M 325 160 Q 316 151 352 174 Q 361 192 338 197 Q 311 206 283 206 Q 279 210 279 224 V 247 L 338 242 Q 347 242 347 251 Q 347 265 329 270 Q 311 274 279 274 V 302 Q 288 315 311 315 Q 366 320 425 315 Q 448 315 453 302 V 265 Q 421 270 398 270 Q 375 274 375 261 Q 379 242 393 238 Q 425 247 453 238 Q 457 219 448 206 Q 411 206 393 210 Q 379 215 375 201 Q 379 178 393 174 Q 407 174 425 178 Q 453 183 462 174 Q 489 169 503 187 Q 512 201 507 215 Q 503 247 498 334 Q 494 352 475 357 Q 466 357 457 357 Q 439 352 421 347 Q 366 343 306 347 Q 293 352 279 357 Q 251 370 238 334 Q 233 274 229 219 Q 229 206 229 192 Q 233 174 251 174 Q 261 174 279 187 Q 297 183 325 160 Z M 366 5 Q 379 14 379 27 Q 379 41 366 59 H 421 Q 430 55 439 55 Q 462 50 471 73 Q 475 91 462 101 Q 443 119 421 133 Q 389 151 370 155 Q 357 155 343 146 Q 334 137 347 133 Q 370 123 393 105 Q 402 91 379 87 H 343 Q 325 101 306 110 Q 265 137 247 137 Q 215 137 219 119 Q 238 110 270 91 Q 329 50 338 14 Q 343 0 366 5 Z M 165 128 Q 155 123 137 128 Q 133 165 137 178 Q 155 187 165 169 Q 174 137 165 128 Z M 87 178 Q 96 155 87 128 Q 73 123 59 128 Q 50 160 64 183 Q 73 183 87 178 Z M 137 101 Q 160 101 178 91 Q 206 82 210 114 Q 206 155 197 192 Q 192 215 165 206 Q 151 201 137 206 Q 133 238 137 265 L 169 261 Q 146 238 160 224 Q 174 210 187 224 Q 206 256 219 297 Q 219 311 206 306 Q 192 293 183 279 Q 123 297 78 311 Q 46 320 27 325 Q 5 325 0 297 Q 5 279 32 270 Q 59 274 87 270 Q 96 247 87 210 Q 73 210 59 215 Q 32 229 27 206 Q 23 160 14 114 Q 32 91 37 91 Q 64 101 87 101 Q 91 78 87 46 Q 82 23 105 18 Q 142 18 137 50 Q 133 82 137 101 Z" fill="black" />
  </g>
  <g class="defect" id="01">
    <path d="M 325 160 Q 316 151 352 174" fill="none" stroke="red" stroke-width="3" />
  </g>
  <g class="defect" id="02">
    <path d="M 14 114 Q 32 91 37 91" fill="none" stroke="red" stroke-width="3" />
  </g>
</svg>