<svg xmlns="http://www.w3.org/2000/svg" width="512" height="512" viewBox="0 0 512 512">
  <g class="glyph">
    <path d="M 368 102 Q 410 106 423 97 Q 444 89 457 97 Q 474 106 470 123 Q 465 165 453 212 Q 453 228 432 228 Q 398 220 364 216 Q 342 228 364 275 L 410 271 Q 402 254 415 241 Q 423 237 432 237 Q 449 241 465 258 Q 482 275 491 288 Q 504 305 512 326 Q 512 343 495 339 Q 461 322 427 292 Q 419 300 402 305 Q 347 313 288 322 Q 250 326 212 334 Q 186 343 182 309 Q 182 292 203 288 Q 258 288 317 279 Q 322 228 313 216 Q 288 220 258 233 Q 241 237 237 220 Q 237 199 233 178 Q 228 148 220 131 Q 231 118 228 106 Q 245 89 258 97 Q 288 110 313 102 Q 313 59 309 42 Q 309 8 326 8 Q 372 13 372 34 Q 368 63 368 102 Z M 110 25 Q 123 0 140 13 Q 152 21 157 38 Q 161 59 135 76 L 148 80 Q 157 76 173 76 Q 190 72 207 80 Q 228 93 207 110 Q 190 127 173 144 Q 152 157 135 157 Q 135 165 135 173 Q 131 207 131 254 Q 131 279 165 254 Q 182 241 203 228 Q 212 224 212 233 Q 203 254 186 275 Q 165 305 140 322 Q 127 330 110 339 Q 97 343 80 330 Q 63 317 72 296 Q 93 267 89 203 Q 89 182 85 169 Q 80 157 93 144 Q 110 135 131 148 Q 148 135 157 123 Q 165 110 148 106 Q 144 106 140 106 Q 127 106 118 97 Q 89 127 55 152 Q 30 165 8 152 Q 0 140 17 131 Q 34 118 55 102 Q 93 63 110 25 Z M 368 135 Q 364 140 364 186 Q 406 190 415 182 Q 423 161 419 148 Q 410 135 368 135 Z M 317 186 Q 322 144 309 135 Q 262 135 267 165 Q 267 195 317 186 Z" fill="black" />
  </g>
  <g class="defect" id="01">
    <path d="M 364 216 Q 342 228 364 275" fill="none" stroke="red" stroke-width="3" />
  </g>
  <g class="defect" id="02">
    <path d="M 220 131 Q 231 118 228 106" fill="none" stroke="red" stroke-width="3" />
  </g>
</svg>