<svg xmlns="http://www.w3.org/2000/svg" width="512" height="512" viewBox="0 0 512 512">
  <g class="glyph">
    <path d="M 193 337 Q 211 310 225 265 Q 247 198 238 148 Q 234 112 229 99 Q 207 51 252 63 Q 265 67 274 72 H 440 Q 449 67 458 63 Q 490 54 499 85 Q 494 108 494 135 Q 490 148 472 148 Q 458 148 449 144 H 278 Q 278 157 278 175 Q 332 180 355 166 Q 382 162 382 193 Q 377 260 382 332 Q 382 355 337 364 Q 314 364 296 359 Q 260 346 265 332 Q 310 346 332 332 Q 346 319 341 301 V 283 Q 301 305 269 314 Q 271 314 252 301 Q 260 287 274 283 Q 296 278 341 265 Q 346 198 332 198 Q 314 193 278 202 Q 269 256 256 283 Q 238 337 220 346 Q 193 355 193 337 Z M 422 171 Q 449 180 476 166 Q 512 162 508 193 Q 503 260 508 328 Q 512 341 494 359 Q 476 373 454 373 Q 427 368 413 359 Q 391 341 395 332 Q 413 337 431 341 Q 472 346 467 305 V 278 Q 436 301 413 310 Q 386 310 395 287 Q 427 283 467 260 V 211 Q 472 198 454 198 Q 431 193 413 202 Q 400 211 395 193 Q 400 175 422 171 Z M 341 13 Q 386 22 431 45 Q 427 54 391 54 Q 364 54 341 54 Q 296 54 296 31 Q 305 0 341 13 Z M 278 94 Q 265 108 278 121 H 449 Q 467 103 445 94 Z M 296 216 Q 305 216 314 220 Q 319 234 328 247 Q 328 256 319 256 Q 296 252 287 238 Q 283 220 296 216 Z M 427 220 Q 436 234 449 252 Q 449 260 440 260 Q 422 256 409 247 Q 400 238 404 229 Q 409 216 427 220 Z M 171 63 Q 180 76 117 67 Q 76 63 81 40 Q 90 9 117 22 Q 144 45 171 63 Z M 180 90 Q 198 90 202 108 Q 207 126 189 121 H 85 Q 36 126 18 139 Q 0 144 4 121 Q 18 85 40 85 Q 99 99 180 90 Z M 90 144 H 166 Q 180 144 184 157 Q 184 166 153 166 H 99 Q 65 171 72 175 Q 54 180 67 157 Q 76 139 90 144 Z M 76 189 H 166 Q 189 193 184 202 Q 189 207 180 216 Q 121 211 72 220 Q 63 225 63 211 Q 67 198 76 189 Z M 148 274 Q 117 269 103 274 Q 81 274 81 287 Q 81 305 90 310 Q 148 310 153 301 Q 162 278 148 274 Z M 189 332 Q 184 350 153 341 Q 135 337 85 341 Q 54 364 54 328 Q 49 296 45 265 Q 45 238 67 238 Q 85 252 148 247 Q 162 243 171 238 Q 202 238 198 260 Q 193 296 189 332 Z" fill="black" />
  </g>
  <g class="defect" id="01">
    <path d="M 99 166 Q 65 171 72 175" fill="none" stroke="red" stroke-width="3" />
  </g>
  <g class="defect" id="02">
    <path d="M 229 99 Q 207 51 252 63" fill="none" stroke="red" stroke-width="3" />
  </g>
  <g class="defect" id="03">
    <path d="M 269 314 Q 271 314 252 301" fill="none" stroke="red" stroke-width="3" />
  </g>
</svg>