<svg xmlns="http://www.w3.org/2000/svg" width="512" height="512" viewBox="0 0 512 512">
  <g class="glyph">
    <path d="M 337 42 Q 329 67 333 108 H 420 Q 437 112 437 125 Q 437 137 408 137 H 329 V 250 Q 504 250 512 258 Q 512 275 500 291 Q 470 333 429 316 Q 383 287 316 287 Q 237 287 191 304 Q 175 308 175 291 Q 183 262 212 246 Q 237 254 279 250 V 25 Q 279 8 291 4 Q 333 0 337 42 Z M 129 12 Q 154 25 175 42 Q 200 58 200 67 Q 162 75 104 54 Q 92 46 92 33 Q 100 0 129 12 Z M 142 158 Q 142 229 154 229 Q 183 212 208 196 Q 221 191 204 225 Q 171 275 125 300 Q 100 321 83 308 Q 54 291 92 250 Q 104 229 100 208 V 146 Q 104 117 21 146 Q 0 150 4 129 Q 35 111 33 96 Q 79 112 133 96 Q 168 117 154 112 Q 146 133 142 158 Z" fill="black" />
  </g>
  <g class="defect" id="01">
    <path d="M 133 96 Q 168 117 154 112" fill="none" stroke="red" stroke-width="3" />
  </g>
  <g class="defect" id="02">
    <path d="M 4 129 Q 35 111 33 96" fill="none" stroke="red" stroke-width="3" />
  </g>
</svg>