<svg xmlns="http://www.w3.org/2000/svg" width="512" height="512" viewBox="0 0 512 512">
  <g class="glyph">
    <path d="M 300 85 V 284 Q 300 317 275 322 Q 258 322 254 296 Q 258 262 254 254 Q 199 258 186 267 Q 169 267 173 254 Q 182 228 195 224 Q 228 228 258 224 Q 262 216 258 182 H 237 Q 216 186 199 190 Q 186 195 186 178 Q 218 167 212 152 Q 228 161 258 157 Q 262 123 254 110 Q 237 110 190 118 Q 197 98 182 102 Q 195 76 207 80 Q 228 89 254 85 Q 258 72 254 38 Q 254 17 271 13 Q 305 13 305 51 Q 300 68 300 85 Z M 377 114 Q 372 131 377 161 Q 419 157 449 157 Q 470 173 449 186 Q 423 190 377 186 Q 372 199 377 233 Q 444 241 512 233 Q 495 296 461 279 Q 423 267 377 262 Q 372 279 372 305 Q 372 334 347 334 Q 330 330 330 309 V 30 Q 330 13 343 4 Q 381 4 381 38 Q 372 85 377 85 Q 410 89 457 85 Q 474 106 453 114 Q 423 118 377 114 Z M 72 13 Q 80 0 97 21 Q 104 60 157 63 Q 161 76 144 76 Q 114 80 80 68 Q 30 47 72 13 Z M 30 110 Q 76 118 110 106 Q 148 102 127 161 Q 118 237 127 241 Q 135 241 161 203 Q 173 195 173 216 Q 161 241 148 262 Q 127 292 106 305 Q 89 317 72 309 Q 51 305 59 284 Q 93 228 89 161 Q 89 144 63 144 Q 42 148 17 157 Q 0 161 4 140 Q 8 114 30 110 Z" fill="black" />
  </g>
  <g class="defect" id="01">
    <path d="M 97 21 Q 104 60 157 63" fill="none" stroke="red" stroke-width="3" />
  </g>
  <g class="defect" id="02">
    <path d="M 186 178 Q 218 167 212 152" fill="none" stroke="red" stroke-width="3" />
  </g>
  <g class="defect" id="03">
    <path d="M 190 118 Q 197 98 182 102" fill="none" stroke="red" stroke-width="3" />
  </g>
</svg>