<svg xmlns="http://www.w3.org/2000/svg" width="512" height="512" viewBox="0 0 512 512">
  <g class="glyph">
    <path d="M 512 56 Q 490 120 447 103 Q 413 90 340 82 Q 318 108 288 133 Q 271 151 280 155 Q 297 159 318 159 L 336 133 Q 353 108 366 99 Q 392 103 379 129 Q 374 138 366 151 Q 349 172 331 198 Q 310 219 284 241 Q 224 288 185 288 Q 168 284 159 275 Q 159 271 202 254 Q 239 221 250 228 Q 284 207 305 181 Q 262 172 228 181 Q 215 189 207 176 Q 208 179 207 151 Q 215 142 224 138 Q 267 116 284 82 Q 207 86 185 95 Q 172 99 172 86 Q 176 52 207 47 Q 224 56 293 56 Q 301 4 310 4 Q 323 0 340 4 Q 349 9 353 17 Q 366 39 366 56 Q 469 60 512 56 Z M 422 172 Q 404 215 383 237 Q 400 237 417 254 Q 456 284 473 305 Q 486 318 478 323 Q 469 331 452 323 Q 400 288 361 258 Q 318 301 280 314 Q 254 327 232 327 Q 215 323 211 314 Q 215 305 250 293 Q 280 284 314 258 Q 353 224 383 172 Q 392 155 396 142 Q 409 125 426 146 Q 435 159 422 172 Z M 120 26 Q 142 39 159 56 Q 155 69 120 69 Q 86 65 69 56 Q 52 43 65 26 Q 73 17 86 13 Q 103 13 120 26 Z M 129 176 Q 125 202 125 228 Q 125 245 142 237 Q 163 224 181 215 Q 185 215 189 219 Q 189 232 172 250 Q 142 284 90 314 Q 65 323 56 293 Q 56 280 65 267 Q 73 250 82 237 Q 99 202 90 155 Q 90 146 82 142 Q 43 146 13 155 Q 0 155 0 133 Q 9 112 22 108 Q 39 108 47 112 Q 73 116 103 103 Q 112 99 129 108 Q 142 112 142 125 Q 138 151 129 176 Z" fill="black" />
  </g>
  <g class="defect" id="01">
    <path d="M 207 176 Q 208 179 207 151" fill="none" stroke="red" stroke-width="3" />
  </g>
  <g class="defect" id="02">
    <path d="M 202 254 Q 239 221 250 228" fill="none" stroke="red" stroke-width="3" />
  </g>
</svg>