<svg xmlns="http://www.w3.org/2000/svg" width="512" height="512" viewBox="0 0 512 512">
  <g class="glyph">
    <path d="M 279 180 Q 303 184 328 180 Q 336 164 332 147 Q 299 143 279 147 Q 274 160 279 180 Z M 82 152 H 115 V 127 H 90 Q 78 131 82 152 Z M 82 172 Q 78 201 94 197 H 115 V 172 Z M 152 197 H 176 Q 188 197 184 172 H 152 Z M 184 152 Q 188 127 180 127 H 152 V 152 Z M 221 123 Q 257 102 270 53 Q 279 33 283 16 Q 291 0 315 20 Q 324 37 311 61 Q 348 70 397 74 Q 410 66 426 74 Q 438 82 438 106 Q 434 147 418 188 Q 401 225 373 233 Q 352 238 356 229 Q 365 221 369 213 Q 393 168 397 123 Q 401 106 377 98 Q 328 86 299 86 Q 279 106 266 115 Q 279 115 291 123 Q 315 127 336 119 Q 360 119 360 139 Q 356 168 352 201 Q 340 213 328 209 Q 307 201 279 205 Q 274 217 283 233 Q 303 258 356 266 Q 397 274 434 266 Q 467 258 512 213 Q 504 283 475 307 Q 446 332 397 324 Q 287 295 258 262 Q 242 238 246 184 Q 246 147 250 127 Q 225 143 221 131 Q 217 168 217 213 Q 213 233 184 225 Q 172 221 152 221 Q 147 233 152 250 Q 180 254 201 250 Q 233 250 229 266 Q 225 274 205 274 L 152 279 V 324 Q 152 340 131 344 Q 111 344 115 319 V 279 Q 66 283 25 291 Q 0 295 4 274 Q 16 246 37 250 Q 74 254 115 250 Q 119 233 115 221 Q 94 221 82 225 Q 53 233 49 209 Q 53 176 45 127 Q 41 94 70 102 Q 98 106 111 102 Q 115 90 111 78 Q 94 78 49 86 Q 25 98 33 74 Q 49 45 66 49 Q 86 53 111 53 Q 111 20 119 12 Q 127 4 139 12 Q 152 20 152 53 H 197 Q 237 53 225 61 Q 233 74 217 78 H 152 Q 147 94 152 102 Q 176 106 197 98 Q 221 94 221 123 Z" fill="black" />
  </g>
  <g class="defect" id="01">
    <path d="M 221 123 Q 257 102 270 53" fill="none" stroke="red" stroke-width="3" />
  </g>
  <g class="defect" id="02">
    <path d="M 197 53 Q 237 53 225 61" fill="none" stroke="red" stroke-width="3" />
  </g>
</svg>