<svg xmlns="http://www.w3.org/2000/svg" width="512" height="512" viewBox="0 0 512 512">
  <g class="glyph">
    <path d="M 244 153 Q 239 293 165 297 Q 153 297 161 285 Q 211 239 215 153 L 178 157 Q 186 169 128 178 V 231 Q 173 206 186 219 Q 194 223 153 248 Q 120 264 87 281 Q 29 310 17 293 Q 0 264 33 256 Q 37 219 33 161 Q 37 140 58 149 Q 62 153 66 161 Q 62 219 62 252 L 91 239 V 120 Q 78 124 70 124 Q 54 124 54 116 Q 67 70 45 25 Q 64 8 62 8 Q 70 4 78 12 Q 124 17 149 12 Q 161 8 169 12 Q 182 21 178 33 Q 173 74 169 111 Q 165 124 149 124 Q 140 120 128 120 V 153 Q 153 140 169 145 Q 186 120 215 124 Q 219 54 206 29 Q 202 8 223 4 Q 227 4 231 4 Q 260 21 289 8 Q 301 4 314 21 Q 314 25 314 29 Q 306 58 306 124 H 343 Q 343 78 334 41 Q 330 25 339 17 Q 351 4 363 8 Q 392 21 421 8 Q 434 0 446 12 Q 462 29 454 37 Q 442 66 446 124 Q 467 124 512 128 Q 491 182 467 165 Q 467 157 446 153 V 268 Q 450 310 425 310 Q 409 314 409 297 V 153 H 372 Q 380 281 318 281 Q 306 281 314 268 Q 343 231 343 153 H 306 Q 306 223 306 289 L 301 297 Q 303 295 281 301 Q 273 297 273 252 V 153 Z M 409 124 Q 417 37 401 37 H 380 Q 367 37 372 124 Z M 244 124 H 273 Q 281 41 273 37 H 252 Q 239 41 244 124 Z M 87 45 V 95 Q 107 99 128 95 Q 145 99 140 41 Q 136 33 107 33 Q 87 33 87 45 Z" fill="black" />
  </g>
  <g class="defect" id="01">
    <path d="M 54 116 Q 67 70 45 25" fill="none" stroke="red" stroke-width="3" />
  </g>
  <g class="defect" id="02">
    <path d="M 45 25 Q 64 8 62 8" fill="none" stroke="red" stroke-width="3" />
  </g>
  <g class="defect" id="03">
    <path d="M 301 297 Q 303 295 281 301" fill="none" stroke="red" stroke-width="3" />
  </g>
</svg>