<svg xmlns="http://www.w3.org/2000/svg" width="512" height="512" viewBox="0 0 512 512">
  <g class="glyph">
    <path d="M 366 37 Q 433 37 454 42 Q 462 46 454 54 Q 450 67 416 67 Q 350 62 304 62 Q 254 67 221 71 Q 204 67 208 58 Q 216 37 229 33 Q 241 33 258 37 Q 272 42 300 29 Q 300 0 329 0 Q 358 4 350 21 Q 350 37 366 37 Z M 300 92 H 341 Q 387 75 383 112 Q 375 146 379 162 Q 387 187 416 191 Q 450 200 487 167 Q 508 154 500 183 Q 462 258 400 237 Q 337 225 337 183 Q 341 167 341 154 Q 345 117 337 121 Q 308 117 296 121 Q 291 137 287 154 Q 283 191 250 216 Q 221 233 196 221 Q 171 204 187 200 Q 229 187 246 162 Q 258 146 258 121 Q 254 67 300 92 Z M 75 96 Q 96 104 129 104 Q 146 96 158 104 Q 179 125 158 137 Q 150 146 142 158 Q 137 171 146 175 Q 167 204 137 225 Q 203 229 246 241 Q 333 262 437 258 H 512 Q 462 350 408 325 Q 362 312 291 287 Q 212 258 117 250 Q 62 246 17 279 Q 8 279 8 271 Q 0 246 21 229 Q 58 221 108 225 Q 133 204 121 191 Q 100 179 108 167 Q 117 150 125 137 Q 133 125 75 129 Q 58 133 46 137 Q 12 142 29 112 Q 54 92 75 96 Z M 104 17 Q 121 25 137 37 Q 191 62 191 67 Q 179 75 167 75 Q 125 79 87 62 Q 71 54 79 29 Q 87 12 104 17 Z" fill="black" />
  </g>
  <g class="defect" id="01">
    <path d="M 137 225 Q 203 229 246 241" fill="none" stroke="red" stroke-width="3" />
  </g>
  <g class="defect" id="02">
    <path d="M 258 37 Q 272 42 300 29" fill="none" stroke="red" stroke-width="3" />
  </g>
</svg>