<svg xmlns="http://www.w3.org/2000/svg" width="512" height="512" viewBox="0 0 512 512">
  <g class="glyph">
    <path d="M 227 87 Q 256 91 310 91 Q 318 66 306 50 Q 306 4 334 12 Q 355 12 351 91 Q 386 77 429 99 Q 434 103 434 107 Q 438 124 405 124 H 359 Q 380 215 467 260 Q 487 268 512 281 Q 467 359 421 326 Q 405 310 392 289 Q 372 256 347 206 Q 326 173 318 124 Q 260 124 215 132 Q 198 132 198 116 Q 206 87 227 87 Z M 235 165 Q 268 169 314 169 Q 334 173 334 190 Q 330 198 289 198 Q 285 227 289 256 L 351 252 Q 367 252 359 264 Q 297 277 211 301 Q 194 306 186 293 Q 182 277 194 268 Q 211 260 252 256 Q 260 227 252 198 Q 231 198 215 202 Q 202 202 202 194 Q 215 161 235 165 Z M 434 33 Q 454 45 438 62 Q 401 78 376 74 Q 384 62 396 54 Q 421 21 434 33 Z M 186 66 Q 202 70 194 87 Q 165 95 120 95 Q 99 120 78 165 L 116 161 Q 120 149 116 136 Q 116 111 128 111 Q 153 107 157 136 Q 153 149 157 161 L 194 165 Q 202 165 202 173 Q 202 190 190 190 H 157 Q 153 206 157 223 Q 190 219 211 227 Q 219 235 157 252 Q 153 264 157 326 Q 149 343 128 339 Q 120 339 116 326 Q 120 273 116 256 Q 66 264 25 277 Q 8 281 4 273 Q 0 260 8 248 Q 21 227 41 227 Q 74 231 116 227 Q 120 211 116 194 Q 70 194 50 202 Q 33 206 25 190 Q 17 165 33 161 Q 62 132 83 95 Q 45 95 29 103 Q 12 107 17 87 Q 29 58 62 66 H 91 Q 95 41 99 25 Q 107 0 136 21 Q 153 33 132 66 Z" fill="black" />
  </g>
  <g class="defect" id="01">
    <path d="M 351 91 Q 386 77 429 99" fill="none" stroke="red" stroke-width="3" />
  </g>
  <g class="defect" id="02">
    <path d="M 310 91 Q 318 66 306 50" fill="none" stroke="red" stroke-width="3" />
  </g>
</svg>