<svg xmlns="http://www.w3.org/2000/svg" width="512" height="512" viewBox="0 0 512 512">
  <g class="glyph">
    <path d="M 243 77 V 111 Q 265 107 277 107 Q 290 107 282 119 Q 273 128 243 137 Q 247 175 239 205 Q 269 192 286 171 Q 294 149 294 137 Q 317 94 290 55 Q 282 47 290 43 Q 307 30 324 43 Q 333 47 354 38 Q 375 30 388 21 Q 401 21 414 34 Q 431 47 418 55 Q 397 64 333 73 Q 329 77 329 102 Q 444 98 465 115 Q 478 132 448 132 H 397 V 239 Q 401 252 393 256 Q 358 269 350 247 Q 350 196 354 132 H 329 Q 324 179 307 201 Q 294 218 269 230 Q 252 235 235 218 Q 230 230 209 239 Q 179 239 158 226 Q 149 213 166 213 Q 201 209 205 188 Q 209 175 209 145 Q 171 158 158 154 Q 145 141 149 132 Q 158 119 209 115 V 81 Q 188 81 162 90 Q 149 94 149 73 Q 158 51 166 51 Q 179 55 205 55 L 201 21 Q 196 4 209 0 Q 218 0 235 4 Q 252 13 243 55 Q 277 51 277 64 Q 277 77 243 77 Z M 60 115 Q 68 119 77 124 Q 94 124 119 119 Q 137 119 141 137 Q 141 141 141 149 Q 137 166 115 179 Q 149 222 119 239 Q 213 243 303 260 Q 422 282 499 277 Q 512 294 474 333 Q 435 363 380 333 Q 299 303 256 290 Q 183 269 111 265 Q 81 269 64 273 Q 43 277 17 286 Q 4 294 0 282 Q 0 260 13 243 Q 21 235 43 235 Q 68 243 98 239 Q 111 213 90 196 Q 69 173 90 183 Q 107 158 90 149 Q 64 145 47 154 Q 26 158 30 141 Q 43 111 60 115 Z M 73 34 Q 94 43 115 55 Q 128 64 137 73 Q 141 85 119 85 Q 51 85 47 60 Q 47 26 73 34 Z" fill="black" />
  </g>
  <g class="defect" id="01">
    <path d="M 294 137 Q 317 94 290 55" fill="none" stroke="red" stroke-width="3" />
  </g>
  <g class="defect" id="02">
    <path d="M 90 196 Q 69 173 90 183" fill="none" stroke="red" stroke-width="3" />
  </g>
</svg>