<svg xmlns="http://www.w3.org/2000/svg" width="512" height="512" viewBox="0 0 512 512">
  <g class="glyph">
    <path d="M 248 42 Q 344 42 403 13 Q 415 8 420 17 Q 436 29 420 46 Q 386 55 344 63 Q 340 80 332 97 Q 386 101 432 97 Q 470 97 470 109 Q 474 122 462 122 H 365 Q 428 164 512 189 Q 504 201 491 214 Q 462 243 441 218 Q 407 185 374 155 L 336 122 H 319 Q 311 138 281 176 Q 306 168 311 201 Q 302 281 264 306 Q 231 327 201 306 Q 193 298 206 294 Q 273 277 273 201 Q 264 189 260 193 Q 235 214 214 201 Q 197 193 227 176 Q 256 159 281 122 Q 252 122 222 130 Q 201 130 206 113 Q 231 86 227 92 Q 269 101 290 97 Q 298 84 306 63 H 260 Q 228 45 231 55 Q 222 38 248 42 Z M 122 185 Q 71 189 55 193 Q 21 189 38 159 Q 71 126 80 97 Q 59 101 42 105 Q 25 109 25 92 Q 25 80 38 67 Q 46 59 55 63 Q 67 67 92 67 Q 101 42 105 25 Q 109 17 113 13 Q 126 0 151 17 Q 159 29 151 46 Q 147 50 134 71 H 189 Q 201 84 185 97 H 122 Q 105 122 92 143 Q 80 159 97 159 H 122 Q 118 113 134 109 Q 172 105 168 159 H 197 Q 214 168 193 180 Q 180 185 168 185 V 227 H 210 Q 231 227 227 248 Q 197 252 168 252 V 315 Q 172 340 138 344 Q 122 344 122 327 V 256 Q 71 256 17 273 Q 4 277 0 260 Q -6 222 29 222 Q 80 227 122 227 Z M 348 201 Q 344 172 361 168 Q 390 164 394 193 V 315 Q 394 344 374 344 Q 353 344 348 311 Z" fill="black" />
  </g>
  <g class="defect" id="01">
    <path d="M 0 260 Q -6 222 29 222" fill="none" stroke="red" stroke-width="3" />
  </g>
  <g class="defect" id="02">
    <path d="M 206 113 Q 231 86 227 92" fill="none" stroke="red" stroke-width="3" />
  </g>
  <g class="defect" id="03">
    <path d="M 260 63 Q 228 45 231 55" fill="none" stroke="red" stroke-width="3" />
  </g>
</svg>