<svg xmlns="http://www.w3.org/2000/svg" width="512" height="512" viewBox="0 0 512 512">
  <g class="glyph">
    <path d="M 159 118 Q 155 130 159 155 Q 164 164 189 159 V 126 Q 180 118 159 118 Z M 109 118 Q 118 155 109 176 Q 97 193 63 193 Q 59 214 71 214 Q 126 214 189 210 V 176 Q 134 193 134 168 Q 138 159 138 118 Z M 311 126 Q 277 126 252 130 Q 239 130 239 122 Q 243 101 269 88 Q 277 88 294 92 Q 306 92 311 88 Q 311 42 306 13 Q 306 0 319 0 Q 361 8 357 25 Q 353 50 353 88 Q 403 92 445 92 Q 466 101 457 113 Q 445 122 394 122 H 361 Q 449 256 512 273 Q 462 327 428 298 Q 415 281 386 227 Q 382 170 344 138 Q 327 214 306 248 Q 285 273 260 277 Q 243 281 227 269 Q 218 311 193 302 Q 155 290 126 290 Q 92 290 55 306 Q 38 315 29 281 Q 25 180 25 126 Q 25 88 42 88 Q 55 88 76 97 H 88 Q 92 63 84 50 Q 42 55 17 63 Q 0 67 0 50 Q 13 29 38 21 Q 46 21 55 25 Q 97 21 126 21 Q 239 29 239 38 Q 243 59 218 55 L 159 50 V 97 H 185 Q 201 92 210 88 Q 231 92 231 109 Q 227 126 227 159 V 264 Q 264 248 285 214 Q 302 185 311 126 Z M 189 235 Q 122 231 67 239 Q 63 260 80 264 Q 126 260 172 264 Q 189 264 189 235 Z M 340 243 Q 361 256 386 290 Q 399 306 374 306 Q 348 298 327 285 Q 322 261 315 260 Q 323 243 340 243 Z M 138 50 H 109 V 97 H 138 Z M 67 122 63 176 Q 88 176 88 155 Q 92 134 88 118 Q 76 118 67 122 Z" fill="black" />
  </g>
  <g class="defect" id="01">
    <path d="M 386 227 Q 382 170 344 138" fill="none" stroke="red" stroke-width="3" />
  </g>
  <g class="defect" id="02">
    <path d="M 327 285 Q 322 261 315 260" fill="none" stroke="red" stroke-width="3" />
  </g>
</svg>