<svg xmlns="http://www.w3.org/2000/svg" width="512" height="512" viewBox="0 0 512 512">
  <g class="glyph">
    <path d="M 196 121 Q 208 137 187 142 L 150 146 V 183 Q 200 179 221 187 Q 229 204 212 204 Q 175 204 150 208 V 254 Q 154 266 171 258 Q 187 250 204 237 Q 225 229 183 283 Q 154 312 125 325 Q 108 333 96 321 Q 87 304 100 283 Q 129 266 112 208 Q 67 212 46 216 Q 33 221 33 208 Q 46 175 67 179 Q 83 187 112 183 V 146 L 87 150 Q 75 137 79 125 Q 83 117 125 117 Q 158 117 196 121 Z M 146 58 Q 167 62 208 62 Q 225 79 204 83 H 129 Q 121 92 104 108 Q 83 125 67 133 Q 42 142 29 137 Q 4 125 0 108 Q 0 104 62 83 Q 87 71 108 50 Q 125 33 146 8 Q 154 0 162 12 Q 179 25 146 58 Z M 325 8 Q 354 12 350 29 Q 345 62 341 96 H 412 Q 462 96 462 104 Q 470 117 445 125 H 358 Q 450 254 512 279 Q 458 345 425 308 Q 383 225 333 154 Q 333 171 321 208 Q 325 216 329 229 Q 341 250 354 275 Q 358 296 345 291 Q 337 291 325 279 Q 304 254 300 258 Q 266 312 221 321 Q 196 325 187 312 Q 179 300 204 291 Q 250 266 271 225 Q 291 179 296 129 Q 241 133 221 137 Q 208 142 212 121 Q 229 92 254 92 Q 266 100 296 96 Q 300 71 300 25 Q 300 4 325 8 Z" fill="black" />
  </g>
  <g class="defect" id="01">
    <path d="M 100 283 Q 129 266 112 208" fill="none" stroke="red" stroke-width="3" />
  </g>
</svg>