<svg xmlns="http://www.w3.org/2000/svg" width="512" height="512" viewBox="0 0 512 512">
  <g class="glyph">
    <path d="M 194 145 Q 235 128 239 91 Q 239 54 231 41 Q 231 17 256 21 Q 273 29 301 25 Q 359 21 392 8 Q 417 0 425 25 Q 434 41 401 41 Q 339 45 289 45 Q 268 45 268 58 V 95 Q 273 132 235 153 Q 194 165 194 145 Z M 182 145 Q 186 169 161 182 Q 136 190 74 173 Q 41 161 58 153 Q 140 157 140 132 V 107 Q 91 120 66 124 Q 41 124 45 103 Q 50 91 62 91 Q 107 87 140 83 V 54 Q 103 54 70 58 Q 58 58 58 45 Q 66 33 78 33 H 140 Q 136 8 157 4 Q 186 4 182 33 H 211 Q 227 37 227 50 Q 223 54 215 54 H 182 V 78 Q 190 78 219 74 Q 235 78 223 91 Q 211 95 182 99 Z M 359 140 Q 314 169 277 161 Q 248 153 273 145 Q 289 145 334 124 Q 314 107 289 91 Q 281 91 277 83 Q 268 66 293 58 Q 310 54 334 54 Q 355 58 372 58 Q 384 54 401 54 Q 425 62 417 78 Q 401 95 380 120 Q 429 157 450 173 Q 458 186 442 186 Q 417 178 359 140 Z M 355 103 Q 367 95 372 83 Q 376 74 343 74 Q 322 74 322 83 Q 334 95 355 103 Z M 190 223 H 310 Q 339 223 343 235 Q 343 244 326 244 H 273 V 264 Q 310 264 343 268 Q 359 277 334 281 H 273 V 314 H 301 Q 310 310 314 297 Q 322 281 334 285 Q 349 311 334 314 Q 413 314 417 322 Q 425 334 405 334 H 206 Q 153 334 120 339 Q 91 347 99 330 Q 111 314 128 310 Q 140 314 173 314 Q 145 306 169 289 Q 186 285 190 297 Q 194 310 202 314 H 231 V 281 Q 178 281 165 285 Q 153 285 157 277 Q 161 268 173 264 H 231 V 244 Q 190 244 173 248 Q 157 252 161 239 Q 173 219 190 223 Z M 277 178 Q 388 206 512 211 Q 483 273 442 260 Q 330 223 244 198 Q 161 227 74 252 Q 41 260 12 239 Q 0 223 12 219 Q 157 206 239 165 Q 268 149 277 178 Z" fill="black" />
  </g>
  <g class="defect" id="01">
    <path d="M 334 285 Q 349 311 334 314" fill="none" stroke="red" stroke-width="3" />
  </g>
</svg>