<svg xmlns="http://www.w3.org/2000/svg" width="512" height="512" viewBox="0 0 512 512">
  <g class="glyph">
    <path d="M 66 136 Q 83 107 99 116 Q 145 120 198 116 Q 227 124 202 136 Q 190 140 161 145 V 178 Q 211 173 223 182 Q 227 194 219 198 Q 202 202 161 202 V 244 Q 161 252 173 252 Q 198 248 223 231 Q 231 231 231 239 Q 223 256 211 264 Q 178 289 161 297 Q 140 310 120 318 Q 103 326 95 306 Q 91 293 99 281 Q 107 268 120 252 V 202 Q 78 202 41 211 Q 21 215 25 194 Q 33 182 45 173 Q 70 178 120 178 V 145 Q 95 145 78 153 Q 58 153 66 136 Z M 153 8 Q 165 29 145 54 H 219 Q 239 66 223 78 Q 178 87 124 83 Q 74 124 37 124 Q 21 124 12 111 Q 0 99 25 95 Q 54 83 83 62 Q 116 29 132 8 Q 140 0 153 8 Z M 248 78 Q 277 78 314 66 Q 339 58 367 37 Q 384 25 405 12 Q 417 8 429 21 Q 438 33 413 54 Q 384 78 355 91 Q 318 111 289 116 Q 260 120 239 99 Q 235 78 248 78 Z M 429 91 Q 442 83 450 103 Q 454 116 446 128 Q 429 140 413 153 Q 384 169 351 186 Q 322 198 289 206 Q 248 215 235 186 Q 227 173 239 173 Q 252 173 260 173 Q 301 165 339 149 Q 408 98 429 91 Z M 475 165 Q 487 153 495 169 Q 512 198 471 223 Q 438 252 405 268 Q 376 285 343 297 Q 301 314 268 318 Q 239 318 215 293 Q 206 285 219 281 Q 268 277 310 264 Q 343 252 372 235 Q 405 219 438 194 Q 458 178 475 165 Z" fill="black" />
  </g>
  <g class="defect" id="01">
    <path d="M 339 149 Q 408 98 429 91" fill="none" stroke="red" stroke-width="3" />
  </g>
</svg>