<svg xmlns="http://www.w3.org/2000/svg" width="512" height="512" viewBox="0 0 512 512">
  <g class="glyph">
    <path d="M 168 168 Q 196 158 205 182 Q 233 195 228 200 Q 223 205 205 200 Q 172 195 163 186 Q 158 177 168 168 Z M 172 219 Q 186 223 205 242 Q 223 247 205 251 Q 163 261 154 242 Q 154 219 172 219 Z M 256 177 Q 261 163 275 177 Q 289 186 275 223 Q 265 251 242 270 Q 233 275 228 265 Q 237 247 242 223 Q 251 195 256 177 Z M 303 135 Q 340 135 340 172 V 270 Q 335 293 307 293 Q 293 289 293 279 Q 298 251 298 242 Q 298 191 293 154 Q 293 140 303 135 Z M 358 177 Q 368 168 377 177 Q 391 186 428 219 Q 438 228 447 242 Q 451 261 428 251 Q 405 242 372 214 Q 358 200 354 191 Q 349 186 358 177 Z M 386 247 Q 405 261 396 270 Q 386 298 340 326 Q 307 344 284 354 Q 242 368 214 358 Q 195 349 205 340 Q 247 335 307 307 Q 354 284 372 251 Q 377 242 386 247 Z M 154 307 Q 186 289 214 279 Q 228 279 219 293 Q 200 312 172 326 Q 158 340 144 326 Q 130 312 154 307 Z M 368 42 Q 363 51 372 56 Q 414 65 451 56 Q 461 47 447 37 Q 386 33 368 42 Z M 372 84 Q 363 88 372 98 Q 410 107 451 98 Q 461 88 451 84 Q 405 79 372 84 Z M 144 37 Q 135 47 140 56 Q 168 61 214 56 Q 223 47 209 37 Q 158 28 144 37 Z M 144 84 Q 135 93 140 102 Q 177 112 214 102 Q 223 88 209 79 Q 163 79 144 84 Z M 93 121 Q 93 70 88 37 Q 84 19 98 9 Q 116 5 126 14 Q 140 9 158 9 Q 172 9 205 14 Q 219 9 233 5 Q 242 5 251 9 Q 261 19 261 33 Q 256 79 256 112 Q 256 140 219 130 Q 158 126 140 130 Q 140 200 130 251 Q 116 298 98 317 Q 74 335 56 340 Q 33 344 19 330 Q 0 312 19 303 Q 42 293 70 261 Q 93 228 93 121 Z M 456 126 Q 424 121 372 126 Q 358 140 335 135 Q 326 135 326 112 Q 326 56 321 37 Q 321 19 330 9 Q 349 0 372 14 Q 419 9 447 14 Q 461 9 475 9 Q 512 5 507 37 Q 503 65 503 116 Q 503 247 512 326 Q 512 363 475 358 Q 456 358 456 326 Z" fill="black" />
  </g>
  <g class="defect" id="01">
    <path d="M 168 168 Q 196 158 205 182" fill="none" stroke="red" stroke-width="3" />
  </g>
</svg>