<svg xmlns="http://www.w3.org/2000/svg" width="512" height="512" viewBox="0 0 512 512">
  <g class="glyph">
    <path d="M 330 131 Q 355 93 343 72 L 275 76 Q 267 97 284 131 Z M 89 140 V 220 Q 106 228 131 207 Q 144 190 131 169 Q 110 140 89 140 Z M 89 68 V 123 Q 110 114 118 102 Q 123 93 127 80 Q 127 63 89 68 Z M 173 51 Q 174 68 169 89 Q 140 127 127 131 Q 148 135 169 161 Q 186 135 203 135 Q 220 140 258 135 Q 224 102 241 76 L 207 85 Q 190 89 190 76 Q 199 47 220 42 Q 237 47 275 47 Q 275 30 275 21 Q 279 4 296 0 Q 309 0 326 13 Q 334 21 334 42 Q 359 47 432 47 Q 449 51 449 59 Q 449 63 444 68 Q 436 72 427 72 H 368 Q 406 85 355 131 Q 432 135 504 140 Q 512 144 491 165 Q 461 199 444 190 Q 402 169 330 165 Q 250 165 207 178 Q 173 190 173 173 Q 186 216 148 241 Q 110 258 89 241 V 322 Q 89 343 59 339 Q 47 334 47 313 V 72 L 25 80 Q 0 89 21 42 Q 30 30 42 30 Q 55 34 68 38 Q 102 42 148 38 Q 161 38 173 51 Z M 419 296 Q 415 339 389 339 Q 377 334 364 330 Q 313 317 271 326 Q 258 330 245 334 Q 228 339 224 322 Q 224 262 212 224 Q 212 195 233 195 Q 250 199 267 199 Q 347 207 398 195 Q 427 195 423 228 Q 423 250 419 296 Z M 355 228 H 288 Q 258 233 258 267 Q 258 296 288 292 H 360 Q 381 296 381 262 Q 385 228 355 228 Z" fill="black" />
  </g>
  <g class="defect" id="01">
    <path d="M 334 42 Q 359 47 432 47" fill="none" stroke="red" stroke-width="3" />
  </g>
  <g class="defect" id="02">
    <path d="M 173 51 Q 174 68 169 89" fill="none" stroke="red" stroke-width="3" />
  </g>
</svg>