<svg xmlns="http://www.w3.org/2000/svg" width="512" height="512" viewBox="0 0 512 512">
  <g class="glyph">
    <path d="M 126 139 Q 87 135 56 148 Q 43 152 43 139 Q 43 113 65 113 Q 95 113 126 113 Q 130 61 121 35 Q 113 0 148 4 Q 178 17 174 30 Q 169 65 169 113 H 234 Q 243 117 239 130 Q 234 139 213 139 Q 187 139 169 139 V 169 H 230 Q 252 169 252 178 Q 256 200 243 195 Q 208 195 169 195 Q 165 247 117 295 Q 35 356 0 299 Q 0 291 4 291 Q 104 273 126 195 Q 82 195 48 204 Q 22 213 30 191 Q 43 169 56 169 Q 95 174 126 169 Z M 226 26 Q 243 48 213 78 Q 195 95 187 100 Q 182 87 187 82 Q 191 56 195 35 Q 204 9 226 26 Z M 100 52 Q 108 69 113 91 Q 113 104 100 100 Q 82 87 78 82 Q 48 48 69 35 Q 82 26 100 52 Z M 304 130 Q 347 135 408 130 Q 417 121 408 113 Q 364 108 304 113 Q 295 121 304 130 Z M 408 174 Q 417 165 408 156 Q 351 152 304 156 Q 299 165 304 174 Q 364 178 408 174 Z M 304 226 Q 351 221 408 226 Q 417 208 408 200 Q 369 195 304 200 Q 295 213 304 226 Z M 299 269 Q 321 265 330 273 Q 347 291 317 308 Q 269 338 226 347 Q 208 351 208 338 Q 226 325 247 308 Q 273 291 299 269 Z M 395 265 Q 412 260 425 278 Q 460 308 499 334 Q 512 347 495 351 Q 438 343 395 308 Q 369 286 395 265 Z M 239 48 Q 252 17 278 22 Q 330 26 391 22 H 512 Q 490 87 460 69 Q 412 56 382 56 Q 369 78 377 87 Q 404 91 421 82 Q 434 78 451 91 Q 464 104 460 117 Q 456 130 456 139 Q 456 195 456 239 Q 446 244 438 260 Q 425 260 404 252 Q 338 247 308 252 Q 299 256 278 260 Q 260 265 256 247 Q 260 187 256 126 Q 252 108 256 100 Q 265 78 286 82 Q 304 95 330 87 Q 338 69 334 56 Q 286 52 256 65 Q 230 74 239 48 Z" fill="black" />
  </g>
  <g class="defect" id="01">
    <path d="M 456 239 Q 446 244 438 260" fill="none" stroke="red" stroke-width="3" />
  </g>
</svg>