<svg xmlns="http://www.w3.org/2000/svg" width="512" height="512" viewBox="0 0 512 512">
  <g class="glyph">
    <path d="M 62 70 Q 62 54 58 21 Q 58 4 74 0 Q 95 0 107 8 Q 145 4 190 8 Q 206 0 219 0 Q 235 4 239 17 Q 239 25 235 50 Q 254 78 235 91 Q 239 107 215 111 Q 198 111 178 107 Q 165 116 173 124 H 235 Q 264 136 239 145 H 202 Q 62 145 29 153 Q 8 157 17 140 Q 45 111 70 120 Q 91 124 124 124 Q 132 116 124 107 Q 78 116 70 107 Q 62 99 62 70 Z M 194 235 Q 202 231 219 244 Q 231 252 244 264 Q 256 281 235 277 Q 198 273 182 256 Q 178 239 194 235 Z M 70 235 Q 83 227 95 235 Q 107 256 91 264 Q 66 281 21 293 Q 0 293 17 277 Q 54 256 70 235 Z M 107 182 Q 95 190 107 198 Q 194 202 194 194 Q 202 186 194 182 Q 157 178 107 182 Z M 87 153 Q 99 157 111 161 H 182 Q 202 161 215 157 Q 235 161 235 173 Q 231 198 227 219 Q 223 227 211 227 Q 194 223 190 219 H 173 Q 169 252 173 281 Q 173 322 128 318 Q 95 310 87 281 Q 87 273 103 281 Q 132 285 128 256 V 219 Q 111 219 95 223 Q 74 227 70 215 Q 66 198 62 182 Q 62 153 87 153 Z M 107 29 Q 99 37 103 50 Q 149 54 194 50 Q 206 41 194 29 Q 149 25 107 29 Z M 103 70 Q 95 78 103 87 Q 145 91 194 87 Q 198 78 194 70 Q 169 66 103 70 Z M 334 260 Q 351 277 310 297 Q 264 314 252 310 Q 235 310 248 297 Q 281 281 297 260 Q 314 248 334 260 Z M 405 264 Q 417 277 475 301 Q 487 310 471 314 Q 421 318 388 297 Q 372 285 380 273 Q 392 256 405 264 Z M 310 124 Q 355 128 405 124 Q 413 107 405 103 Q 347 99 310 103 Q 301 111 310 124 Z M 405 169 Q 413 157 405 149 Q 355 145 310 149 Q 301 157 310 169 Q 351 173 405 169 Z M 310 219 Q 359 215 405 219 Q 409 206 405 194 Q 351 190 310 194 Q 301 202 310 219 Z M 248 33 Q 260 8 281 12 Q 314 17 512 17 Q 479 78 454 62 Q 409 45 376 45 Q 367 66 372 83 Q 396 83 413 78 Q 434 74 446 83 Q 458 95 454 107 Q 446 173 450 227 Q 450 239 429 248 Q 409 252 392 239 Q 351 235 314 239 Q 306 248 289 248 Q 268 252 264 235 Q 268 165 264 95 Q 268 78 277 78 Q 289 74 293 78 Q 310 83 326 83 Q 334 70 330 45 Q 289 41 252 54 Q 235 62 248 33 Z" fill="black" />
  </g>
  <g class="defect" id="01">
    <path d="M 235 50 Q 254 78 235 91" fill="none" stroke="red" stroke-width="3" />
  </g>
</svg>