<svg xmlns="http://www.w3.org/2000/svg" width="512" height="512" viewBox="0 0 512 512">
  <g class="glyph">
    <path d="M 133 58 Q 79 58 62 42 Q 62 33 67 33 Q 158 37 200 12 Q 212 8 229 29 Q 233 42 216 46 Q 196 54 179 54 V 79 Q 208 79 225 83 Q 229 100 216 104 H 179 Q 191 117 212 129 Q 262 154 262 162 Q 262 179 250 175 Q 216 162 179 142 V 179 Q 187 179 196 175 Q 208 167 221 183 Q 225 200 225 212 Q 221 250 216 300 Q 212 316 200 312 Q 183 304 171 300 Q 150 296 137 300 Q 121 304 108 308 Q 92 316 87 291 Q 79 262 79 196 Q 87 179 96 175 Q 112 175 117 179 H 133 V 142 Q 75 183 67 191 Q 29 212 8 191 Q 0 179 17 175 Q 67 154 133 104 Q 87 108 58 117 Q 46 117 46 104 Q 54 79 71 79 Q 100 87 133 79 Z M 183 246 Q 150 241 121 246 Q 117 275 133 275 Q 154 271 171 275 Q 183 275 183 246 Z M 133 204 Q 117 204 117 225 Q 146 229 183 225 Q 187 208 179 204 Q 158 200 133 204 Z M 312 0 Q 341 8 316 37 H 445 Q 462 50 445 58 H 300 L 291 67 Q 316 89 321 71 Q 354 71 391 75 Q 404 67 420 67 Q 433 67 441 83 Q 441 117 429 158 Q 425 171 416 171 Q 395 167 358 167 L 350 179 H 387 Q 400 175 412 179 Q 425 187 420 200 Q 412 221 391 241 Q 450 275 508 287 Q 512 300 479 321 Q 450 341 425 316 Q 395 291 362 271 Q 354 279 308 300 Q 266 316 237 300 Q 247 291 233 287 Q 283 283 337 250 Q 325 237 308 225 Q 287 246 271 250 Q 241 250 237 241 Q 233 233 246 229 Q 312 191 321 167 Q 308 167 296 171 Q 283 175 279 158 V 117 Q 279 96 275 87 Q 237 112 237 96 Q 262 62 291 12 Q 300 0 312 0 Z M 312 129 Q 312 146 325 146 Q 354 154 383 146 Q 400 142 400 129 Q 358 125 312 129 Z M 325 92 Q 308 92 312 108 Q 404 112 400 100 Q 404 96 383 92 Q 354 87 325 92 Z M 379 200 Q 341 200 337 208 Q 345 216 362 225 Q 375 212 379 200 Z" fill="black" />
  </g>
  <g class="defect" id="01">
    <path d="M 237 300 Q 247 291 233 287" fill="none" stroke="red" stroke-width="3" />
  </g>
  <g class="defect" id="02">
    <path d="M 291 67 Q 316 89 321 71" fill="none" stroke="red" stroke-width="3" />
  </g>
</svg>