<svg xmlns="http://www.w3.org/2000/svg" width="512" height="512" viewBox="0 0 512 512">
  <g class="glyph">
    <path d="M 317 161 H 343 Q 343 139 364 130 H 291 Q 269 135 269 152 V 182 Q 269 200 256 200 Q 252 200 247 187 Q 243 143 243 117 Q 247 100 269 100 Q 291 113 317 108 Q 299 78 308 69 Q 282 69 269 74 Q 260 74 260 61 Q 265 39 286 35 Q 304 43 334 39 Q 343 39 343 13 Q 351 0 364 0 Q 382 0 395 13 Q 395 43 417 39 H 464 Q 477 48 477 52 Q 477 61 469 65 H 421 Q 443 74 417 108 Q 473 108 477 100 Q 495 95 503 104 Q 508 113 512 130 Q 512 161 508 191 Q 503 204 495 204 Q 482 204 482 191 V 152 Q 482 130 451 130 H 373 Q 395 139 395 161 H 421 Q 464 161 464 174 Q 460 187 451 187 Q 408 182 377 182 Q 373 195 369 204 Q 408 204 430 213 Q 460 221 447 256 Q 436 323 399 334 Q 377 347 356 347 Q 312 343 312 308 Q 312 304 338 312 Q 378 321 386 291 Q 404 265 408 252 Q 412 234 399 230 Q 369 226 356 230 Q 334 269 291 299 Q 265 312 252 317 Q 208 317 217 295 Q 304 265 347 182 Q 317 182 299 191 Q 282 195 286 178 Q 299 156 317 161 Z M 347 108 H 391 Q 399 87 404 65 H 338 Q 338 87 347 108 Z M 113 187 Q 121 191 161 187 Q 165 178 161 169 Q 135 165 113 169 Q 108 174 113 187 Z M 108 226 Q 130 230 161 226 Q 165 217 161 208 Q 135 204 108 208 Q 104 217 108 226 Z M 95 143 Q 104 143 117 148 Q 135 143 161 148 Q 165 143 178 143 Q 200 143 200 161 Q 195 174 195 208 V 312 Q 200 334 178 334 Q 156 338 156 317 Q 161 304 161 247 Q 126 243 104 252 Q 100 265 87 286 Q 65 317 48 321 Q 17 325 4 299 Q 0 291 17 286 Q 69 278 74 217 V 156 Q 78 143 95 143 Z M 169 104 V 43 Q 143 39 117 39 Q 95 43 100 61 Q 121 65 135 56 Q 152 56 156 69 Q 152 87 152 104 Z M 95 104 H 117 Q 135 100 126 78 Q 113 74 100 78 Z M 108 22 Q 130 17 156 22 Q 169 17 178 13 Q 191 13 200 17 Q 213 26 208 39 Q 200 65 200 104 Q 213 108 221 100 Q 230 91 239 117 Q 239 143 230 161 Q 213 178 213 161 Q 213 152 208 130 Q 191 121 169 121 H 100 Q 56 121 48 135 Q 43 152 43 169 Q 39 182 30 178 Q 22 174 22 156 Q 22 139 17 121 Q 17 95 30 95 Q 43 104 65 104 V 61 Q 65 48 61 35 Q 61 22 74 13 Q 87 13 108 22 Z" fill="black" />
  </g>
  <g class="defect" id="01">
    <path d="M 447 256 Q 436 323 399 334" fill="none" stroke="red" stroke-width="3" />
  </g>
  <g class="defect" id="02">
    <path d="M 338 312 Q 378 321 386 291" fill="none" stroke="red" stroke-width="3" />
  </g>
</svg>