<svg xmlns="http://www.w3.org/2000/svg" width="512" height="512" viewBox="0 0 512 512">
  <g class="glyph">
    <path d="M 247 43 Q 260 47 299 47 Q 311 51 307 30 Q 311 9 324 4 Q 358 0 358 26 Q 358 47 371 47 Q 482 47 512 51 Q 495 94 469 90 Q 435 77 371 73 Q 329 68 273 73 Q 247 77 235 81 Q 209 90 218 68 Q 230 43 247 43 Z M 299 90 H 358 Q 375 90 397 85 Q 418 81 418 98 Q 418 128 414 149 Q 410 166 388 158 Q 371 149 299 154 Q 273 166 269 154 Q 269 132 265 111 Q 256 85 277 85 Q 282 85 299 90 Z M 469 205 V 320 Q 469 337 448 337 Q 427 337 427 307 V 235 Q 431 209 418 205 Q 384 196 282 201 Q 273 201 269 218 V 252 Q 273 290 243 316 Q 209 333 192 311 Q 201 299 209 294 Q 230 273 235 239 Q 235 209 230 179 Q 235 162 252 166 Q 260 171 286 175 Q 393 179 435 171 Q 444 162 461 171 Q 474 179 469 205 Z M 363 243 Q 341 239 329 243 Q 311 256 324 273 Q 350 277 367 273 Q 380 252 363 243 Z M 311 218 Q 324 218 333 222 Q 350 226 363 222 Q 388 213 397 222 Q 410 235 405 243 Q 401 260 397 290 Q 393 307 371 299 Q 343 274 316 294 Q 294 307 290 294 Q 290 269 286 243 Q 282 235 286 230 Q 294 213 311 218 Z M 311 111 Q 299 115 307 132 H 375 Q 388 115 367 111 Z M 43 243 Q 68 226 73 256 Q 68 282 26 316 Q 0 324 9 307 Q 34 273 43 243 Z M 102 243 Q 124 243 111 277 Q 90 324 81 307 Q 85 282 85 256 Q 85 239 102 243 Z M 141 239 Q 154 235 158 256 Q 162 277 166 294 Q 171 307 158 303 Q 141 290 128 260 Q 128 243 141 239 Z M 128 34 Q 141 30 158 34 Q 179 30 179 51 Q 175 64 154 85 Q 171 85 192 81 Q 213 81 213 98 Q 209 149 205 201 Q 209 226 179 222 Q 171 218 166 213 Q 128 213 98 218 Q 90 222 77 226 Q 51 235 51 196 Q 51 154 47 98 Q 51 73 77 85 H 124 Q 137 68 137 55 Q 132 51 107 51 Q 68 77 34 85 Q 21 90 9 73 Q 0 60 13 55 Q 64 47 111 9 Q 119 4 128 9 Q 141 17 128 34 Z M 141 111 V 141 H 171 Q 179 124 175 111 Z M 141 192 H 166 Q 175 183 171 166 H 141 Z M 107 166 H 81 Q 77 183 85 192 H 107 Z M 107 141 V 111 H 85 Q 77 119 81 141 Z M 213 273 Q 218 299 192 277 Q 166 252 179 239 Q 196 222 213 273 Z" fill="black" />
  </g>
  <g class="defect" id="01">
    <path d="M 371 299 Q 343 274 316 294" fill="none" stroke="red" stroke-width="3" />
  </g>
</svg>