<svg xmlns="http://www.w3.org/2000/svg" width="512" height="512" viewBox="0 0 512 512">
  <g class="glyph">
    <path d="M 270 29 Q 307 49 307 53 Q 307 61 303 66 Q 283 66 258 61 Q 221 57 238 25 Q 246 12 270 29 Z M 279 115 Q 291 119 279 127 Q 262 139 238 143 Q 201 152 201 127 Q 205 111 217 111 Q 250 111 279 115 Z M 291 201 Q 266 242 229 250 Q 213 254 205 242 Q 201 225 213 217 Q 246 197 287 180 Q 303 176 291 201 Z M 332 102 Q 319 135 299 164 Q 268 172 287 156 Q 299 119 303 78 Q 315 57 328 70 Q 344 78 332 102 Z M 365 4 Q 406 8 401 29 Q 397 45 397 57 V 188 Q 393 205 377 213 Q 352 217 352 180 V 20 Q 352 8 365 4 Z M 471 86 Q 492 111 508 131 Q 512 143 500 143 Q 471 135 438 106 Q 410 82 430 61 Q 442 45 471 86 Z M 459 156 Q 451 188 414 238 Q 381 279 332 303 Q 295 324 266 315 Q 225 299 238 283 Q 369 266 426 156 Q 442 127 451 131 Q 467 131 459 156 Z M 193 274 Q 193 295 176 279 Q 147 225 176 225 Q 184 225 188 246 Z M 61 225 Q 74 221 78 242 Q 82 258 33 295 Q 0 315 4 299 Q 37 270 61 225 Z M 102 229 Q 111 229 115 242 Q 111 262 94 291 Q 78 303 78 287 Q 86 266 90 242 Q 90 229 102 229 Z M 147 233 Q 152 258 156 279 Q 160 299 143 287 Q 127 266 127 238 Q 135 217 147 233 Z M 127 16 Q 127 29 119 37 Q 143 37 147 33 Q 156 29 164 37 Q 176 49 164 66 Q 152 82 147 90 Q 168 90 184 86 Q 201 90 197 111 Q 197 135 188 201 Q 180 225 156 205 H 82 Q 61 229 53 197 Q 45 147 45 106 Q 49 90 66 86 Q 86 94 115 90 Q 131 70 127 57 Q 111 53 102 57 Q 74 78 37 94 Q 4 94 4 74 Q 4 66 25 61 Q 70 49 106 8 Q 123 0 127 16 Z M 106 111 Q 86 102 78 115 Q 70 123 78 135 H 106 Z M 160 135 Q 168 127 164 111 Q 152 102 135 111 V 135 Z M 135 184 H 160 Q 168 160 156 156 H 135 Z M 78 156 Q 74 172 82 184 H 106 V 156 Z" fill="black" />
  </g>
  <g class="defect" id="01">
    <path d="M 299 164 Q 268 172 287 156" fill="none" stroke="red" stroke-width="3" />
  </g>
</svg>