<svg xmlns="http://www.w3.org/2000/svg" width="512" height="512" viewBox="0 0 512 512">
  <g class="glyph">
    <path d="M 248 285 Q 289 285 367 281 Q 475 281 512 289 Q 483 339 462 330 Q 425 314 351 310 H 264 Q 244 314 219 322 Q 198 326 202 314 Q 206 293 231 281 Q 235 285 248 285 Z M 277 194 Q 285 194 293 198 Q 314 194 334 194 Q 372 194 396 198 Q 401 194 409 194 Q 421 190 429 206 Q 434 227 425 260 Q 397 277 405 268 Q 326 264 285 273 Q 273 273 268 260 Q 264 244 260 215 Q 260 202 277 194 Z M 376 128 Q 376 116 330 120 Q 322 124 330 136 Q 376 140 376 128 Z M 318 107 H 367 Q 376 107 384 103 Q 392 103 401 111 Q 405 165 384 153 H 318 Q 301 157 301 132 Q 297 107 318 107 Z M 401 95 H 322 Q 289 95 281 103 Q 273 124 285 161 Q 293 169 405 165 Q 421 161 417 107 Q 413 95 401 95 Z M 289 78 H 409 Q 417 78 429 74 Q 450 74 454 95 Q 450 116 450 169 Q 450 186 438 186 Q 429 186 417 182 H 297 Q 285 182 268 190 Q 260 190 252 169 Q 248 132 244 103 Q 239 91 248 83 Q 256 70 289 78 Z M 330 4 Q 363 0 363 33 Q 421 37 462 37 Q 491 45 467 58 Q 380 58 289 62 Q 260 62 231 70 Q 215 74 219 62 Q 223 41 239 37 Q 256 41 264 41 Q 301 41 314 37 Q 314 8 330 4 Z M 392 211 H 310 Q 293 215 301 223 Q 330 227 388 223 Q 401 223 392 211 Z M 392 239 Q 297 235 301 244 Q 310 256 376 252 Q 396 252 392 239 Z M 215 202 Q 206 227 186 219 Q 136 211 78 219 Q 58 227 54 211 Q 54 165 50 116 Q 45 87 74 95 Q 91 103 132 103 Q 153 78 149 66 H 111 Q 62 91 41 91 Q 0 87 12 66 Q 87 54 128 8 Q 149 0 153 17 Q 157 25 145 37 Q 136 45 157 45 Q 169 45 186 37 Q 223 50 202 70 Q 197 96 165 103 Q 190 103 202 99 Q 227 91 223 116 Q 215 157 215 202 Z M 149 145 Q 165 153 182 145 Q 186 132 182 124 Q 165 120 149 124 Q 140 132 149 145 Z M 149 169 Q 145 182 149 194 Q 178 202 182 190 Q 186 178 182 169 Q 176 146 149 169 Z M 116 169 Q 99 165 87 169 Q 83 182 87 194 Q 103 198 116 194 Q 124 182 116 169 Z M 116 145 Q 120 136 116 124 Q 99 120 87 124 Q 78 132 87 145 Q 95 149 116 145 Z M 41 252 Q 54 223 70 235 Q 87 248 70 273 Q 50 301 21 318 Q 4 322 12 306 Q 25 289 41 252 Z M 91 260 Q 99 231 116 235 Q 132 244 116 273 Q 103 289 87 301 Q 74 306 78 293 Q 87 277 91 260 Z M 140 235 Q 161 223 165 252 Q 165 273 169 293 Q 173 310 157 301 Q 149 289 140 277 Q 128 248 140 235 Z M 206 289 Q 198 281 182 256 Q 173 239 194 235 Q 206 235 211 252 Q 223 297 206 289 Z" fill="black" />
  </g>
  <g class="defect" id="01">
    <path d="M 202 70 Q 197 96 165 103" fill="none" stroke="red" stroke-width="3" />
  </g>
  <g class="defect" id="02">
    <path d="M 425 260 Q 397 277 405 268" fill="none" stroke="red" stroke-width="3" />
  </g>
  <g class="defect" id="03">
    <path d="M 182 169 Q 176 146 149 169" fill="none" stroke="red" stroke-width="3" />
  </g>
</svg>