<svg xmlns="http://www.w3.org/2000/svg" width="512" height="512" viewBox="0 0 512 512">
  <g class="glyph">
    <path d="M 389 127 Q 394 110 372 110 H 296 V 127 Z M 296 144 V 161 H 385 Q 398 157 389 144 Z M 279 284 Q 262 313 233 330 Q 216 339 220 322 Q 237 296 250 271 Q 250 262 254 258 Q 284 254 279 284 Z M 317 284 313 313 Q 305 334 296 313 Q 292 288 292 275 Q 292 267 309 262 Q 322 267 317 284 Z M 364 267 Q 368 288 364 300 Q 364 317 351 309 Q 343 296 339 271 Q 347 254 364 267 Z M 410 271 Q 415 284 419 296 Q 423 309 406 300 Q 389 288 385 271 Q 381 258 394 258 Q 402 254 410 271 Z M 216 127 Q 227 176 216 190 Q 216 220 186 216 Q 173 212 157 212 V 237 Q 199 237 224 241 Q 250 250 245 258 Q 241 267 212 267 H 157 V 330 Q 148 347 127 351 Q 102 355 110 334 V 267 Q 47 267 21 279 Q 0 284 4 262 Q 17 237 34 237 Q 59 241 110 237 V 212 Q 93 212 80 216 Q 47 220 51 199 Q 51 165 47 123 Q 47 93 72 93 Q 89 102 110 97 V 76 Q 59 76 42 85 Q 25 89 25 72 Q 30 47 59 47 Q 72 51 110 51 V 21 Q 114 8 131 8 Q 144 13 157 21 V 51 H 203 Q 220 51 228 59 Q 237 80 190 76 H 157 V 97 Q 173 97 190 93 Q 220 89 216 127 Z M 89 144 H 178 Q 178 123 165 118 H 106 Q 89 118 89 144 Z M 178 165 H 89 Q 89 173 93 186 Q 102 190 157 190 Q 178 190 178 165 Z M 347 68 Q 368 76 347 93 Q 368 89 389 93 Q 427 80 432 106 Q 432 144 427 169 Q 404 186 406 182 Q 389 178 372 178 H 296 V 190 H 432 Q 457 186 461 199 Q 465 207 436 207 H 296 Q 296 224 309 224 Q 372 224 444 220 Q 474 207 482 233 Q 487 245 478 292 Q 465 334 432 347 Q 385 360 339 330 Q 330 317 368 326 Q 389 330 406 326 Q 432 317 440 271 Q 444 245 423 241 Q 334 237 292 250 Q 275 258 262 245 Q 250 233 254 224 Q 258 212 258 140 Q 258 123 254 114 Q 258 85 284 89 Q 292 93 309 93 Q 317 72 334 68 H 275 Q 254 93 233 106 Q 212 114 220 97 Q 250 55 258 21 Q 271 0 296 8 Q 309 25 296 42 H 394 Q 478 42 512 51 Q 482 106 444 80 Q 406 68 347 68 Z" fill="black" />
  </g>
  <g class="defect" id="01">
    <path d="M 127 351 Q 102 355 110 334" fill="none" stroke="red" stroke-width="3" />
  </g>
  <g class="defect" id="02">
    <path d="M 427 169 Q 404 186 406 182" fill="none" stroke="red" stroke-width="3" />
  </g>
  <g class="defect" id="03">
    <path d="M 216 127 Q 227 176 216 190" fill="none" stroke="red" stroke-width="3" />
  </g>
</svg>