<svg xmlns="http://www.w3.org/2000/svg" width="512" height="512" viewBox="0 0 512 512">
  <g class="glyph">
    <path d="M 317 312 Q 320 312 323 311 L 335 233 L 253 244 V 319 Z M 253 233 336 222 347 155 228 173 259 190 Q 260 193 258 197 L 255 206 Q 253 211 253 219 Z M 74 337 Q 83 337 100 335 Q 108 335 113 334 L 220 323 V 249 L 11 276 L 0 266 Q 9 265 23 263 Q 27 263 29 263 L 220 237 V 210 Q 221 200 219 190 Q 217 182 213 176 L 97 194 L 85 184 Q 98 183 110 181 Q 128 180 123 179 Q 165 173 220 163 Q 245 124 276 72 L 190 88 L 184 81 L 179 86 Q 134 131 90 155 L 84 148 Q 125 114 150 83 Q 169 60 184 32 Q 189 25 188 19 Q 172 12 182 7 L 191 0 L 228 17 Q 233 20 229 26 Q 210 54 187 78 Q 195 76 213 73 Q 249 66 267 62 Q 272 61 276 58 Q 281 56 285 51 Q 289 46 292 50 L 318 72 Q 317 76 314 79 L 301 91 Q 299 93 296 96 Q 272 151 234 161 L 327 147 Q 333 146 342 142 Q 349 138 356 132 Q 361 129 364 131 L 387 148 Q 386 151 385 154 Q 383 156 380 161 Q 380 161 380 162 Q 378 166 377 172 L 370 218 L 416 211 Q 431 208 439 203 Q 446 199 451 194 Q 453 192 456 193 L 486 205 Q 485 210 479 212 Q 474 214 466 216 Q 464 216 464 216 L 369 229 L 357 297 L 382 308 Q 379 312 375 314 Q 369 318 359 318 L 253 330 V 471 Q 253 489 241 501 Q 232 511 212 512 Q 210 497 203 488 Q 196 480 177 472 L 181 463 Q 192 466 207 467 Q 220 467 220 451 V 334 L 87 349 Z" fill="black" />
  </g>
  <g class="defect" id="01">
    <path d="M 188 19 Q 172 12 182 7" fill="none" stroke="red" stroke-width="3" />
  </g>
  <g class="defect" id="02">
    <path d="M 296 96 Q 272 151 234 161" fill="none" stroke="red" stroke-width="3" />
  </g>
  <g class="defect" id="03">
    <path d="M 110 181 Q 128 180 123 179" fill="none" stroke="red" stroke-width="3" />
  </g>
</svg>