<svg xmlns="http://www.w3.org/2000/svg" width="512" height="512" viewBox="0 0 512 512">
  <g class="glyph">
    <path d="M 124 289 127 282 Q 137 278 139 272 Q 173 191 211 81 Q 226 73 215 63 Q 215 58 213 52 L 101 68 L 88 56 L 356 21 Q 367 19 377 13 Q 382 10 391 3 Q 391 3 391 3 Q 394 0 397 1 L 429 14 Q 429 18 424 20 Q 416 25 405 26 L 228 50 L 249 65 Q 254 68 250 77 Q 208 194 173 278 L 243 272 Q 251 271 260 265 Q 266 261 270 256 Q 274 254 277 256 L 299 267 L 333 170 L 234 185 L 223 172 Q 229 172 240 171 Q 246 170 248 170 L 313 160 Q 321 158 328 154 L 340 145 Q 345 142 348 144 L 378 166 L 362 189 L 291 394 L 422 382 Q 442 381 453 374 Q 445 367 472 362 Q 477 360 479 362 L 512 378 Q 512 382 507 384 Q 501 387 486 389 Q 484 390 484 390 L 11 432 L 0 418 Q 9 419 30 417 Q 34 417 37 417 Q 104 411 236 399 Q 236 398 253 397 L 294 279 Q 286 282 282 282 L 166 291 Q 164 297 160 301 Q 152 307 146 307 Z" fill="black" />
  </g>
  <g class="defect" id="01">
    <path d="M 453 374 Q 445 367 472 362" fill="none" stroke="red" stroke-width="3" />
  </g>
  <g class="defect" id="02">
    <path d="M 236 399 Q 236 398 253 397" fill="none" stroke="red" stroke-width="3" />
  </g>
  <g class="defect" id="03">
    <path d="M 211 81 Q 226 73 215 63" fill="none" stroke="red" stroke-width="3" />
  </g>
</svg>