<svg xmlns="http://www.w3.org/2000/svg" width="512" height="512" viewBox="0 0 512 512">
  <g class="glyph">
    <path d="M 280 317 286 310 Q 310 324 333 326 Q 345 328 349 333 Q 353 338 353 345 Q 353 346 353 349 Q 352 358 351 362 L 342 369 Q 325 360 308 345 Q 291 331 280 317 Z M 327 133 Q 331 118 328 107 L 279 113 L 294 124 Q 298 128 296 134 Q 285 153 274 168 Q 283 170 300 176 Q 304 177 307 178 Q 318 157 327 133 Z M 150 401 151 391 Q 141 393 166 366 Q 173 343 173 320 L 181 319 Q 191 352 190 377 Q 188 406 177 422 H 167 Z M 415 291 419 283 Q 455 287 475 295 Q 493 301 503 311 Q 512 321 511 334 Q 509 341 503 348 L 493 351 Q 475 329 456 316 Q 439 302 415 291 Z M 215 324 223 321 Q 239 365 272 390 Q 309 420 359 420 Q 394 420 427 409 Q 418 398 406 382 Q 402 375 400 372 L 406 367 Q 417 379 430 388 Q 444 398 461 404 Q 463 417 455 425 Q 441 441 406 446 Q 356 453 318 443 Q 280 432 253 403 Q 226 376 215 324 Z M 0 267 Q 55 211 94 150 Q 126 99 145 47 Q 151 33 146 19 L 154 11 L 184 28 Q 188 30 186 37 Q 154 107 115 161 L 142 176 Q 142 181 140 185 L 138 194 Q 136 199 136 204 V 422 Q 136 432 132 438 Q 128 445 119 445 L 101 421 V 413 Q 106 408 106 398 V 195 Q 106 187 104 178 L 104 177 Q 63 231 6 274 Z M 211 165 214 157 Q 232 160 251 163 Q 257 152 263 139 Q 269 127 267 114 L 251 116 L 245 110 Q 221 133 193 152 L 187 146 Q 221 113 242 83 Q 258 60 269 37 Q 273 29 274 20 Q 276 12 272 5 L 281 0 L 312 19 Q 315 22 313 26 Q 290 63 262 93 L 250 105 L 396 88 Q 405 87 411 83 Q 399 62 422 76 Q 425 74 428 76 L 451 96 Q 451 98 448 102 Q 448 103 448 104 Q 447 104 446 106 Q 444 108 442 111 Q 437 116 436 121 L 401 261 Q 395 280 383 289 Q 369 300 351 298 Q 350 288 343 276 Q 334 264 319 256 L 324 249 Q 343 259 355 261 Q 369 264 373 250 L 411 97 L 341 105 L 360 122 Q 364 126 361 133 Q 344 166 329 188 Q 346 197 352 206 Q 360 218 354 230 L 344 233 Q 331 220 314 209 Q 277 259 213 291 L 208 284 Q 260 249 294 198 L 282 192 Q 273 187 263 184 Q 236 217 193 243 L 187 238 Q 222 207 243 176 Q 227 170 211 165 Z" fill="black" />
  </g>
  <g class="defect" id="01">
    <path d="M 151 391 Q 141 393 166 366" fill="none" stroke="red" stroke-width="3" />
  </g>
  <g class="defect" id="02">
    <path d="M 411 83 Q 399 62 422 76" fill="none" stroke="red" stroke-width="3" />
  </g>
</svg>