<svg xmlns="http://www.w3.org/2000/svg" width="512" height="512" viewBox="0 0 512 512">
  <g class="glyph">
    <path d="M 0 283 Q 32 226 82 168 Q 102 128 119 81 Q 125 65 119 52 L 127 46 L 158 62 Q 163 65 161 71 Q 146 109 124 146 Q 130 168 98 188 L 128 203 Q 128 204 128 205 Q 127 210 125 212 Q 124 217 122 221 Q 121 227 121 233 V 430 Q 121 441 117 447 Q 113 454 104 454 L 85 429 V 421 Q 91 417 91 406 V 223 Q 91 212 88 203 L 76 219 Q 40 263 5 288 Z M 274 7 282 0 320 20 Q 320 22 319 25 Q 318 27 318 28 L 316 37 Q 315 42 315 48 V 148 L 331 143 Q 342 142 354 133 Q 360 129 367 122 Q 370 121 372 122 L 403 133 Q 403 136 400 138 Q 394 143 379 146 L 315 160 V 225 L 365 215 Q 376 212 386 205 Q 391 202 401 193 Q 402 193 402 193 Q 404 191 406 191 L 438 205 Q 439 206 437 209 Q 437 209 436 209 Q 430 214 415 217 L 315 237 V 242 Q 348 283 395 312 Q 445 344 512 360 L 509 369 Q 480 378 478 368 Q 465 369 451 379 Q 442 384 435 379 Q 397 355 367 327 Q 337 298 315 264 V 465 Q 315 474 310 480 Q 306 486 297 487 L 279 465 V 456 Q 284 451 283 441 V 284 Q 258 319 235 345 Q 192 390 143 411 L 139 403 Q 183 375 220 327 Q 253 288 274 245 L 171 265 L 158 254 Q 160 254 163 254 Q 176 252 196 248 L 283 231 V 166 L 208 182 Q 191 202 167 222 L 161 217 Q 203 159 210 125 Q 214 113 209 103 L 218 97 L 243 110 Q 250 115 246 121 Q 236 145 220 167 L 283 154 V 41 Q 283 32 282 22 Q 280 14 274 7 Z" fill="black" />
  </g>
  <g class="defect" id="01">
    <path d="M 124 146 Q 130 168 98 188" fill="none" stroke="red" stroke-width="3" />
  </g>
  <g class="defect" id="02">
    <path d="M 0 283 Q 32 226 82 168" fill="none" stroke="red" stroke-width="3" />
  </g>
  <g class="defect" id="03">
    <path d="M 509 369 Q 480 378 478 368" fill="none" stroke="red" stroke-width="3" />
  </g>
</svg>