<svg xmlns="http://www.w3.org/2000/svg" width="512" height="512" viewBox="0 0 512 512">
  <g class="glyph">
    <path d="M 339 131 346 124 385 145 Q 384 148 383 154 Q 382 155 382 156 L 380 164 Q 379 169 379 174 V 332 Q 389 321 375 347 Q 371 353 362 355 L 342 333 V 325 Q 348 321 348 310 V 173 Q 348 162 346 150 Q 344 138 339 131 Z M 394 468 397 459 402 459 Q 426 463 437 463 Q 447 462 448 446 V 45 Q 449 34 447 25 Q 444 13 439 7 L 447 0 L 488 22 Q 488 26 487 30 L 483 39 Q 481 45 481 53 V 467 Q 481 488 471 499 Q 461 511 442 512 Q 440 501 430 489 Q 419 478 394 468 Z M 0 242 36 235 Q 55 232 117 220 Q 146 214 161 211 L 164 159 Q 165 148 162 140 Q 161 138 161 136 Q 159 130 158 128 Q 104 120 88 148 L 84 139 Q 135 119 169 100 Q 185 91 214 71 Q 217 69 218 69 Q 228 62 226 49 L 237 45 L 266 74 Q 269 79 264 84 Q 227 103 186 118 L 174 122 L 204 138 L 201 146 Q 199 151 198 155 L 195 205 L 240 196 Q 241 208 266 185 Q 272 181 278 176 Q 279 174 280 174 Q 282 172 286 173 L 319 185 Q 318 189 315 191 Q 308 195 292 198 L 194 217 L 190 291 L 211 286 Q 221 284 228 280 Q 232 278 239 272 Q 240 270 242 270 Q 246 268 250 270 L 278 291 Q 278 295 275 298 L 268 307 Q 265 312 263 317 L 254 366 L 272 374 Q 272 377 269 379 Q 259 383 247 386 L 136 405 L 136 406 Q 140 416 136 423 Q 133 432 124 436 L 102 421 L 100 414 Q 103 408 102 399 L 86 339 Q 84 329 79 321 Q 76 317 69 310 L 75 301 L 117 312 L 118 318 Q 117 325 117 329 L 133 393 Q 136 393 143 391 Q 196 381 207 380 Q 208 380 209 380 Q 213 379 218 377 L 233 294 L 135 314 L 124 305 Q 131 303 150 299 Q 154 299 156 298 L 160 223 L 11 251 Z" fill="black" />
  </g>
  <g class="defect" id="01">
    <path d="M 240 196 Q 241 208 266 185" fill="none" stroke="red" stroke-width="3" />
  </g>
  <g class="defect" id="02">
    <path d="M 158 128 Q 104 120 88 148" fill="none" stroke="red" stroke-width="3" />
  </g>
  <g class="defect" id="03">
    <path d="M 379 332 Q 389 321 375 347" fill="none" stroke="red" stroke-width="3" />
  </g>
</svg>