<svg xmlns="http://www.w3.org/2000/svg" width="512" height="512" viewBox="0 0 512 512">
  <g class="glyph">
    <path d="M 125 51 131 42 Q 151 45 176 56 Q 200 68 207 81 Q 215 94 209 109 Q 207 115 202 125 Q 202 125 201 126 L 186 127 Q 177 107 168 94 Q 154 72 125 51 Z M 0 173 245 150 Q 282 112 303 85 Q 326 58 342 28 Q 349 16 346 3 L 356 0 L 390 26 Q 396 30 390 37 Q 368 63 333 95 Q 300 125 268 148 Q 313 144 403 134 Q 414 133 419 132 Q 436 130 450 123 Q 461 118 470 111 Q 473 109 477 111 L 512 129 Q 509 134 505 136 Q 499 139 485 141 Q 483 141 481 141 L 11 186 Z M 67 321 Q 58 314 47 311 L 49 301 L 83 296 Q 111 257 124 225 Q 150 209 124 198 L 134 191 L 166 212 Q 172 218 167 225 Q 148 252 130 271 Q 118 286 92 308 L 145 359 Q 177 315 196 280 Q 205 262 199 250 L 208 243 L 239 267 Q 246 273 241 280 Q 190 346 158 381 Q 133 409 86 455 Q 109 452 166 444 Q 183 441 191 440 Q 182 425 166 408 L 173 400 L 175 401 Q 196 410 211 423 Q 227 435 232 449 Q 237 459 231 472 Q 229 478 222 487 L 209 488 L 209 486 Q 203 461 198 450 L 63 495 Q 53 498 49 490 L 30 462 L 36 451 Q 52 459 67 457 Q 105 413 128 382 Z M 270 317 Q 262 310 250 307 L 251 297 L 282 288 Q 307 250 321 211 Q 327 194 319 183 L 328 177 L 360 198 Q 355 214 362 209 Q 348 234 330 255 Q 321 267 298 290 Q 294 296 291 298 L 345 349 L 353 337 Q 386 296 408 257 Q 417 241 411 229 L 420 221 L 451 247 Q 458 252 453 259 Q 410 312 371 355 Q 335 396 289 440 L 419 422 Q 410 406 394 386 L 402 379 Q 430 395 449 416 Q 468 435 472 449 Q 475 461 468 474 Q 465 481 458 489 L 445 490 Q 442 467 431 443 L 425 431 Q 411 435 379 445 Q 306 468 278 477 Q 269 480 264 474 L 245 445 L 250 435 Q 251 435 252 435 Q 262 440 270 440 Q 285 423 316 385 Q 323 376 328 371 Z" fill="black" />
  </g>
  <g class="defect" id="01">
    <path d="M 360 198 Q 355 214 362 209" fill="none" stroke="red" stroke-width="3" />
  </g>
  <g class="defect" id="02">
    <path d="M 124 225 Q 150 209 124 198" fill="none" stroke="red" stroke-width="3" />
  </g>
</svg>