<svg xmlns="http://www.w3.org/2000/svg" width="512" height="512" viewBox="0 0 512 512">
  <g class="glyph">
    <path d="M 247 259 252 251 Q 276 255 289 262 Q 303 270 308 279 Q 312 289 309 296 Q 308 303 304 311 L 291 313 Q 284 297 275 284 Q 275 269 247 259 Z M 98 146 177 135 Q 187 133 195 129 Q 206 123 210 118 Q 212 116 216 118 L 244 129 Q 244 134 240 135 Q 235 139 223 142 L 108 158 Z M 39 241 179 218 Q 191 217 197 212 Q 200 211 207 205 Q 210 202 212 201 Q 214 198 218 200 L 246 212 Q 246 215 242 218 Q 235 223 225 225 L 50 253 Z M 43 127 45 117 Q 55 104 67 81 Q 80 55 85 27 L 94 26 Q 99 66 93 97 Q 85 132 66 155 H 55 Z M 0 440 Q 42 407 71 355 Q 88 324 97 283 Q 100 271 93 259 L 102 252 L 131 266 Q 135 268 134 274 Q 119 328 95 366 Q 58 421 5 448 Z M 107 52 Q 124 52 135 50 L 364 18 Q 377 17 388 13 Q 390 12 393 11 Q 403 8 406 4 Q 415 0 419 6 L 446 42 Q 444 46 439 49 Q 432 53 425 55 Q 412 61 399 71 L 363 97 L 357 92 L 397 28 L 120 65 Z M 305 367 308 359 Q 310 359 315 360 Q 328 363 335 363 Q 347 363 347 346 V 195 L 263 206 L 253 193 Q 253 193 254 193 Q 265 193 280 191 L 347 182 V 143 Q 347 132 345 124 Q 342 113 338 109 L 345 101 L 385 123 Q 385 126 384 130 Q 384 130 383 132 Q 382 134 380 139 Q 379 144 379 151 V 177 L 393 176 Q 402 174 410 170 Q 420 165 426 160 Q 428 158 431 159 L 459 172 Q 459 172 459 174 Q 458 176 455 177 Q 450 182 438 184 L 379 191 V 364 Q 379 384 367 397 Q 357 408 340 408 Q 338 391 330 384 Q 321 373 305 367 Z M 172 356 180 274 Q 180 265 179 259 Q 179 252 174 247 L 181 241 L 218 259 Q 218 261 215 265 Q 214 266 214 268 Q 213 270 212 273 Q 209 279 209 287 L 202 357 Q 197 429 272 433 Q 348 436 380 431 Q 439 425 464 409 Q 478 401 485 368 L 494 370 Q 492 384 497 400 Q 503 415 512 416 Q 508 430 488 439 Q 452 454 382 460 Q 314 466 258 459 Q 209 453 188 424 Q 169 399 172 356 Z" fill="black" />
  </g>
  <g class="defect" id="01">
    <path d="M 272 433 Q 348 436 380 431" fill="none" stroke="red" stroke-width="3" />
  </g>
  <g class="defect" id="02">
    <path d="M 275 284 Q 275 269 247 259" fill="none" stroke="red" stroke-width="3" />
  </g>
</svg>