<svg xmlns="http://www.w3.org/2000/svg" width="512" height="512" viewBox="0 0 512 512">
  <g class="glyph">
    <path d="M 293 8 299 0 Q 324 5 350 16 Q 372 26 379 35 Q 389 47 386 60 Q 384 72 378 80 L 365 82 Q 357 65 340 47 Q 318 24 293 8 Z M 227 494 Q 299 455 342 416 Q 381 382 407 338 Q 417 322 411 307 L 420 301 L 450 322 Q 454 325 452 331 Q 429 369 395 404 Q 440 420 472 440 Q 486 449 496 463 Q 503 475 500 487 Q 498 495 490 502 L 478 505 Q 463 481 440 458 Q 408 425 387 412 Q 376 423 365 432 Q 310 477 232 503 Z M 0 150 7 141 52 157 Q 52 161 51 167 L 50 177 Q 34 182 51 187 L 64 281 L 112 270 L 135 153 L 72 166 L 60 154 Q 63 153 70 152 Q 96 147 109 143 Q 124 139 130 136 Q 131 135 132 134 Q 140 132 144 127 Q 149 125 152 127 L 180 151 Q 181 155 177 159 L 170 168 Q 166 173 163 181 L 147 258 L 166 267 Q 166 272 161 273 Q 149 278 140 280 L 65 293 Q 66 303 62 311 Q 57 318 48 321 L 27 303 L 26 296 Q 47 306 29 280 L 16 184 Q 14 174 10 165 Q 8 160 0 150 Z M 212 283 222 275 Q 228 280 236 282 Q 289 221 307 194 Q 315 183 310 169 L 197 189 L 185 177 L 225 171 Q 229 170 237 169 Q 381 145 443 134 Q 454 132 463 125 L 477 114 Q 480 112 483 112 L 512 125 Q 512 128 510 130 Q 504 136 490 138 L 324 167 L 349 186 Q 356 193 349 199 Q 327 219 275 260 Q 257 276 247 284 H 256 Q 295 284 349 281 Q 367 257 381 232 Q 373 222 385 205 L 394 200 L 423 224 Q 427 229 423 237 Q 391 284 342 333 Q 292 382 245 412 Q 177 460 102 486 L 97 478 Q 159 447 222 402 Q 274 363 317 318 L 337 295 L 235 319 Q 226 321 223 314 Z" fill="black" />
  </g>
  <g class="defect" id="01">
    <path d="M 50 177 Q 34 182 51 187" fill="none" stroke="red" stroke-width="3" />
  </g>
  <g class="defect" id="02">
    <path d="M 26 296 Q 47 306 29 280" fill="none" stroke="red" stroke-width="3" />
  </g>
  <g class="defect" id="03">
    <path d="M 381 232 Q 373 222 385 205" fill="none" stroke="red" stroke-width="3" />
  </g>
</svg>