<svg xmlns="http://www.w3.org/2000/svg" width="512" height="512" viewBox="0 0 512 512">
  <g class="glyph">
    <path d="M 0 140 5 132 41 145 Q 41 147 41 152 Q 41 149 40 154 Q 39 158 39 162 L 50 234 Q 63 232 76 230 L 85 228 L 98 141 L 55 150 L 45 139 Q 45 139 47 139 Q 60 138 76 134 Q 85 132 91 129 L 106 119 Q 109 117 113 119 L 138 140 Q 139 144 136 146 L 128 154 Q 124 158 123 164 L 113 216 L 130 224 Q 129 228 125 230 Q 116 233 106 235 L 51 244 Q 51 251 47 257 Q 42 264 36 265 L 20 250 L 19 243 Q 41 218 22 228 L 13 168 Q 12 159 8 152 Q 5 146 0 140 Z M 273 239 Q 316 237 319 232 Q 330 230 341 227 Q 348 196 354 155 L 306 164 L 296 152 Q 309 152 326 148 L 356 143 Q 362 96 366 33 Q 366 24 365 18 Q 363 13 358 7 L 365 0 L 396 12 Q 402 14 400 23 Q 396 85 387 136 L 406 132 Q 407 132 409 131 Q 420 129 425 125 Q 431 121 434 117 Q 437 113 442 115 L 469 124 Q 469 127 464 131 Q 458 134 448 136 L 385 149 Q 378 188 370 221 L 434 208 Q 449 205 458 200 Q 465 196 472 187 Q 476 184 480 185 L 512 198 Q 511 202 505 205 Q 499 207 490 209 L 366 234 Q 360 257 350 291 L 427 277 Q 434 274 437 272 Q 441 270 445 266 Q 449 262 453 266 L 480 288 Q 480 289 480 290 Q 480 294 478 294 Q 474 295 471 298 Q 467 301 463 306 Q 423 354 386 390 L 392 394 Q 414 407 425 424 Q 431 437 429 448 Q 427 457 420 464 L 408 467 Q 396 442 373 415 Q 355 394 317 371 L 322 363 Q 352 372 376 385 Q 408 338 435 287 L 344 304 Q 342 309 339 311 Q 336 314 329 317 Q 327 317 326 318 L 309 304 L 310 294 Q 317 293 320 289 Q 325 286 326 282 Q 333 260 338 240 L 285 251 Z M 137 240 138 233 Q 144 232 147 221 Q 172 166 184 131 L 157 135 L 147 125 Q 159 124 175 121 Q 182 121 188 119 Q 198 91 212 39 Q 214 30 213 23 Q 211 16 206 10 L 214 4 L 243 18 Q 251 21 248 30 Q 233 79 221 113 Q 233 111 246 109 Q 256 107 266 100 Q 268 98 272 95 Q 274 92 275 91 Q 278 89 281 90 L 309 100 Q 309 103 306 105 Q 299 110 288 112 L 217 125 Q 201 169 175 227 Q 177 227 180 226 L 226 215 V 183 Q 226 174 224 165 Q 222 158 218 149 L 224 142 L 261 162 Q 261 162 261 163 Q 261 165 259 168 Q 238 156 257 176 Q 255 180 255 189 V 207 Q 263 203 266 200 Q 270 196 276 190 Q 279 189 281 189 L 310 199 Q 310 203 306 205 Q 300 208 285 212 L 255 219 V 284 L 306 269 L 309 277 L 255 300 V 442 Q 255 454 251 458 Q 245 464 238 465 L 220 442 V 434 Q 225 430 226 419 V 313 Q 202 323 154 344 Q 132 354 121 359 Q 114 363 109 356 L 88 328 L 94 321 Q 109 329 125 323 L 226 293 V 226 L 169 239 Q 167 245 164 248 Q 160 254 153 255 Z" fill="black" />
  </g>
  <g class="defect" id="01">
    <path d="M 259 168 Q 238 156 257 176" fill="none" stroke="red" stroke-width="3" />
  </g>
  <g class="defect" id="02">
    <path d="M 19 243 Q 41 218 22 228" fill="none" stroke="red" stroke-width="3" />
  </g>
  <g class="defect" id="03">
    <path d="M 273 239 Q 316 237 319 232" fill="none" stroke="red" stroke-width="3" />
  </g>
</svg>