<svg xmlns="http://www.w3.org/2000/svg" width="512" height="512" viewBox="0 0 512 512">
  <g class="glyph">
    <path d="M 37 491 Q 116 440 158 374 Q 174 350 184 325 L 105 338 L 92 327 Q 111 325 128 322 L 189 312 Q 198 284 204 257 Q 207 247 200 234 L 207 227 L 242 242 Q 246 244 245 252 Q 243 256 241 264 Q 233 291 227 305 L 278 297 Q 291 294 300 290 Q 309 288 314 282 Q 319 279 323 281 L 351 302 Q 365 307 347 311 Q 345 313 341 319 Q 340 320 340 321 Q 336 325 335 333 Q 318 416 305 470 Q 301 489 286 501 Q 271 512 250 510 Q 246 494 238 485 Q 231 477 215 470 L 220 462 Q 241 470 254 473 Q 270 475 273 461 Q 290 389 305 305 L 222 319 Q 206 360 180 393 Q 135 454 42 498 Z M 58 136 Q 75 136 97 132 Q 141 127 185 120 Q 186 119 186 116 Q 188 113 191 104 Q 205 66 210 32 Q 211 20 203 8 L 210 0 L 243 8 Q 253 11 250 25 Q 245 53 227 101 L 221 115 L 313 102 Q 332 101 348 93 Q 376 89 367 80 Q 369 78 373 79 L 406 93 Q 405 97 402 99 Q 395 103 381 105 Q 380 105 378 105 L 253 123 Q 296 171 335 204 Q 383 246 425 268 Q 454 284 504 298 L 502 307 Q 480 304 464 309 Q 454 312 440 322 Q 432 328 425 323 Q 376 291 313 215 Q 262 155 241 124 L 215 128 Q 186 195 143 244 Q 88 307 4 347 L 0 339 Q 78 286 124 226 Q 155 188 179 133 L 72 148 Z" fill="black" />
  </g>
  <g class="defect" id="01">
    <path d="M 348 93 Q 376 89 367 80" fill="none" stroke="red" stroke-width="3" />
  </g>
  <g class="defect" id="02">
    <path d="M 351 302 Q 365 307 347 311" fill="none" stroke="red" stroke-width="3" />
  </g>
</svg>