<svg xmlns="http://www.w3.org/2000/svg" width="512" height="512" viewBox="0 0 512 512">
  <g class="glyph">
    <path d="M 312 8 317 0 Q 337 3 358 11 Q 375 19 383 29 Q 393 40 391 54 Q 389 64 382 72 L 370 74 Q 361 57 347 39 Q 328 19 312 8 Z M 254 427 Q 319 397 375 350 Q 402 326 426 296 Q 436 284 431 268 L 439 262 L 467 283 Q 471 287 469 292 Q 451 321 409 355 Q 445 365 481 390 Q 498 401 504 412 Q 494 424 509 434 Q 507 442 501 449 L 488 451 Q 471 424 452 405 Q 425 379 398 363 Q 394 366 389 370 Q 327 413 259 435 Z M 236 230 245 223 Q 253 230 266 230 Q 312 177 328 144 Q 333 131 329 120 L 237 136 L 227 125 L 265 119 Q 385 99 446 87 Q 456 86 465 79 L 478 69 Q 481 67 483 68 L 511 79 Q 511 82 509 84 Q 503 89 490 91 L 342 117 L 366 135 Q 372 141 366 147 Q 320 201 283 230 L 388 222 Q 402 204 413 184 Q 421 170 416 156 L 426 151 L 454 173 Q 458 177 455 184 Q 406 250 356 294 Q 289 352 206 385 L 201 377 Q 277 337 339 277 Q 360 256 378 234 L 259 264 Q 249 266 246 259 Z M 41 71 49 63 Q 50 64 52 64 Q 76 66 63 66 Q 70 67 77 65 L 195 39 Q 193 34 190 31 L 199 24 L 232 38 Q 235 40 234 44 Q 209 103 148 158 Q 156 167 162 178 Q 170 196 174 215 L 229 185 L 234 193 L 177 232 L 181 271 Q 184 328 176 373 Q 167 415 149 437 Q 133 455 114 458 Q 114 440 105 428 Q 94 414 75 407 L 78 399 Q 98 405 108 406 Q 123 409 131 396 Q 140 380 145 356 Q 153 310 151 273 L 150 251 L 36 328 Q 29 333 24 329 L 0 301 L 6 292 Q 22 298 33 292 Q 75 269 148 229 Q 146 204 140 184 Q 132 160 115 144 L 123 137 Q 133 143 140 150 Q 177 103 195 51 L 196 49 L 77 98 Q 66 101 62 96 Z" fill="black" />
  </g>
  <g class="defect" id="01">
    <path d="M 52 64 Q 76 66 63 66" fill="none" stroke="red" stroke-width="3" />
  </g>
  <g class="defect" id="02">
    <path d="M 504 412 Q 494 424 509 434" fill="none" stroke="red" stroke-width="3" />
  </g>
</svg>