<svg xmlns="http://www.w3.org/2000/svg" width="512" height="512" viewBox="0 0 512 512">
  <g class="glyph">
    <path d="M 346 177 227 198 252 209 Q 258 212 258 220 Q 254 280 245 315 L 310 307 Z M 85 154 Q 132 118 161 83 Q 183 54 195 30 Q 201 19 199 5 L 209 0 L 241 23 Q 244 26 241 31 Q 205 63 190 91 L 281 73 Q 287 72 291 69 Q 294 67 300 62 Q 305 58 308 60 L 336 86 Q 337 92 333 94 L 313 109 Q 282 136 218 184 L 211 179 Q 240 130 288 84 L 173 105 Q 137 137 91 161 Z M 93 205 99 196 143 209 142 227 Q 142 229 143 235 Q 142 231 143 237 L 164 324 L 213 319 Q 222 280 222 233 Q 222 231 222 229 Q 223 219 221 214 Q 219 206 214 200 L 164 208 L 152 198 Q 153 198 154 198 Q 165 197 181 195 L 322 169 Q 333 168 339 161 L 349 154 Q 353 151 357 154 L 388 173 Q 387 176 385 179 Q 382 182 380 186 Q 376 190 375 198 L 346 303 Q 364 301 384 299 Q 403 297 420 289 Q 432 285 442 276 Q 445 273 448 275 L 482 291 Q 482 295 479 297 Q 472 300 459 302 Q 456 303 455 303 L 242 327 Q 240 337 236 348 Q 283 393 310 410 Q 357 445 412 463 Q 449 473 493 481 L 491 490 Q 466 488 444 492 Q 422 497 410 506 Q 402 512 393 507 Q 336 473 295 434 Q 263 403 231 362 Q 209 417 172 452 Q 118 501 31 510 L 28 502 Q 109 484 157 432 Q 207 391 210 331 L 12 353 L 0 340 Q 17 340 37 339 L 132 328 L 109 235 Q 107 225 102 217 Q 99 211 93 205 Z" fill="black" />
  </g>
  <g class="defect" id="01">
    <path d="M 157 432 Q 207 391 210 331" fill="none" stroke="red" stroke-width="3" />
  </g>
  <g class="defect" id="02">
    <path d="M 241 31 Q 205 63 190 91" fill="none" stroke="red" stroke-width="3" />
  </g>
  <g class="defect" id="03">
    <path d="M 211 179 Q 240 130 288 84" fill="none" stroke="red" stroke-width="3" />
  </g>
</svg>