<svg xmlns="http://www.w3.org/2000/svg" width="512" height="512" viewBox="0 0 512 512">
  <g class="glyph">
    <path d="M 126 244 Q 115 278 102 309 Q 125 321 145 333 L 148 336 Q 165 304 175 270 Q 181 252 184 235 Z M 471 187 391 202 V 288 Q 394 288 397 287 Q 407 285 412 281 Q 416 277 420 275 Q 422 273 425 273 L 448 284 Q 448 287 445 289 Q 438 293 428 295 L 391 301 V 392 L 440 386 Q 444 386 450 384 Q 454 379 455 371 Z M 0 251 Q 7 250 23 249 Q 13 250 27 248 L 109 235 Q 115 202 120 168 Q 128 115 128 64 Q 128 52 126 47 Q 124 40 120 33 L 128 25 L 161 44 Q 167 47 165 53 Q 160 109 147 167 Q 138 204 129 232 L 186 222 L 189 209 Q 189 208 189 208 Q 190 199 189 192 Q 189 184 187 176 L 195 169 L 223 187 Q 226 189 225 195 Q 214 250 201 282 Q 186 324 170 351 Q 177 356 193 369 Q 198 373 200 375 Q 217 392 220 405 Q 223 422 212 435 L 200 437 Q 176 396 155 373 Q 143 389 128 402 Q 93 436 31 457 L 26 448 Q 81 424 116 382 Q 128 370 136 356 Q 123 345 96 325 Q 102 301 83 316 Q 78 313 81 310 L 84 304 Q 85 301 90 303 L 93 304 Q 100 276 106 247 L 11 263 Z M 294 208 Q 310 206 324 203 L 358 197 V 44 Q 378 21 357 25 Q 355 16 349 7 L 357 0 L 397 23 Q 397 27 396 31 L 393 40 Q 391 45 391 51 V 191 L 451 179 Q 459 177 465 174 Q 472 171 478 166 Q 482 163 485 165 L 512 189 Q 511 193 509 195 L 504 201 Q 502 205 502 209 L 483 407 Q 483 416 478 424 Q 472 433 461 435 L 442 399 L 306 415 Q 306 421 303 427 Q 299 435 292 437 L 269 420 L 269 412 Q 271 405 271 398 L 253 234 Q 252 224 249 218 Q 246 212 240 206 L 247 196 L 286 213 Q 288 218 286 222 Q 286 226 286 230 L 304 402 L 358 396 V 305 L 317 311 L 308 300 Q 321 299 331 297 L 358 293 V 208 L 306 218 Z" fill="black" />
  </g>
  <g class="defect" id="01">
    <path d="M 358 44 Q 378 21 357 25" fill="none" stroke="red" stroke-width="3" />
  </g>
  <g class="defect" id="02">
    <path d="M 96 325 Q 102 301 83 316" fill="none" stroke="red" stroke-width="3" />
  </g>
</svg>