<svg xmlns="http://www.w3.org/2000/svg" width="512" height="512" viewBox="0 0 512 512">
  <g class="glyph">
    <path d="M 114 228 Q 104 260 87 295 Q 108 303 136 318 Q 150 289 157 266 Q 163 244 167 220 Z M 328 154 Q 298 159 265 163 Q 267 203 267 243 Q 269 243 272 242 L 328 229 Z M 0 232 Q 11 232 27 229 L 93 220 Q 97 197 99 172 Q 106 119 107 68 Q 108 52 98 39 L 107 31 L 139 48 Q 144 51 143 58 Q 137 122 127 174 Q 122 195 117 216 L 169 207 L 170 200 Q 171 192 170 183 Q 169 175 166 170 L 175 162 L 200 180 Q 204 182 202 188 Q 195 235 180 279 Q 168 313 158 330 Q 178 342 189 354 Q 202 368 204 384 Q 204 396 194 405 L 184 406 Q 166 373 144 353 Q 135 365 124 376 Q 94 409 34 439 L 28 431 Q 75 400 104 367 Q 116 353 126 337 Q 99 317 69 301 Q 64 298 66 296 L 67 291 Q 68 288 73 290 L 78 292 Q 87 259 91 231 L 10 243 Z M 320 7 328 0 366 21 364 29 Q 362 34 361 39 Q 360 44 360 51 V 125 Q 399 111 419 97 Q 428 91 428 77 L 438 74 L 461 104 Q 465 110 458 114 Q 412 134 360 147 V 220 L 440 200 Q 448 199 457 194 Q 463 190 467 187 Q 471 184 475 186 L 501 206 L 493 220 Q 490 224 488 231 L 471 307 Q 466 329 451 340 Q 438 348 420 348 Q 418 336 414 327 Q 406 313 390 305 L 395 297 Q 398 298 405 300 Q 418 306 424 307 Q 436 309 440 297 Q 449 260 460 207 L 360 231 V 490 Q 360 499 355 505 Q 351 511 340 512 L 323 489 V 480 Q 327 476 328 465 V 286 Q 307 324 278 361 Q 235 413 175 453 L 169 446 Q 223 400 259 347 Q 298 294 316 242 L 266 254 Q 266 255 265 260 Q 265 260 264 261 Q 260 268 253 271 L 232 258 L 232 250 Q 253 232 237 239 Q 238 219 237 185 Q 236 175 232 168 Q 230 162 223 157 L 227 147 L 260 155 Q 287 149 328 136 V 42 Q 328 32 326 23 Q 324 15 320 7 Z" fill="black" />
  </g>
  <g class="defect" id="01">
    <path d="M 232 250 Q 253 232 237 239" fill="none" stroke="red" stroke-width="3" />
  </g>
</svg>