<svg xmlns="http://www.w3.org/2000/svg" width="512" height="512" viewBox="0 0 512 512">
  <g class="glyph">
    <path d="M 32 140 38 132 Q 56 135 72 143 Q 91 152 98 166 Q 104 175 103 187 Q 100 197 95 204 L 85 207 Q 77 189 64 170 Q 51 154 32 140 Z M 286 207 Q 273 245 255 276 Q 272 282 309 296 Q 314 298 316 299 Q 341 264 350 199 Z M 119 11 127 4 166 24 162 42 Q 161 47 161 53 V 210 Q 168 210 186 209 Q 190 208 192 208 L 267 199 L 277 155 Q 294 74 298 35 Q 299 21 290 7 L 298 0 L 332 17 Q 336 19 334 28 Q 323 92 301 163 Q 300 165 299 170 Q 296 180 290 196 Q 306 194 340 189 Q 348 189 351 188 Q 352 183 351 177 Q 350 170 346 165 L 354 158 L 382 174 Q 384 176 383 182 L 383 185 L 429 179 Q 449 176 459 170 Q 468 164 475 158 Q 478 156 480 158 L 512 171 Q 511 176 508 177 Q 501 180 486 182 L 381 195 Q 380 279 341 309 L 350 312 Q 387 329 409 347 Q 431 364 436 381 Q 442 397 432 411 L 421 412 Q 402 380 381 362 Q 359 344 328 327 Q 302 360 267 376 Q 231 394 185 400 L 182 393 Q 229 379 259 358 Q 287 339 305 315 Q 274 299 238 285 Q 233 284 234 280 L 237 274 Q 238 270 242 272 L 246 273 Q 258 235 264 210 L 168 222 L 161 213 V 428 Q 160 439 155 445 Q 150 450 143 451 L 124 429 V 420 Q 128 415 129 406 V 257 L 37 332 Q 29 336 25 332 L 0 305 L 6 296 Q 19 302 32 294 Q 79 271 129 243 V 46 Q 129 38 127 26 Q 124 16 119 11 Z" fill="black" />
  </g>
  <g class="defect" id="01">
    <path d="M 381 195 Q 380 279 341 309" fill="none" stroke="red" stroke-width="3" />
  </g>
</svg>