<svg xmlns="http://www.w3.org/2000/svg" width="512" height="512" viewBox="0 0 512 512">
  <g class="glyph">
    <path d="M 162 8 166 0 Q 194 5 215 16 Q 230 23 239 34 Q 248 44 246 56 Q 246 63 237 73 L 226 76 Q 213 55 197 40 Q 182 22 162 8 Z M 0 206 2 197 Q 21 179 31 156 Q 42 130 48 96 L 56 97 Q 61 137 55 168 Q 46 211 21 235 L 9 233 Z M 70 123 Q 80 122 93 120 Q 96 119 98 119 Q 125 116 182 108 Q 301 91 360 83 Q 371 81 383 77 Q 366 77 384 77 Q 396 72 401 68 Q 407 64 412 69 L 441 104 Q 437 108 431 111 Q 425 114 417 116 Q 407 120 399 126 Q 369 145 345 162 L 338 156 L 391 91 L 82 135 Z M 307 350 148 368 V 449 L 282 434 Z M 106 185 114 178 154 199 Q 152 203 152 206 L 149 216 L 148 228 V 281 Q 151 281 156 280 Q 233 271 256 267 L 281 189 L 170 204 L 160 193 Q 172 193 178 193 L 261 181 Q 269 180 276 177 Q 284 174 291 169 Q 296 167 299 169 L 324 192 Q 323 196 319 199 L 311 206 Q 309 208 307 214 Q 307 213 307 215 L 292 254 L 312 262 Q 313 265 309 268 Q 301 272 291 272 L 148 293 V 356 L 287 341 Q 296 340 303 337 Q 310 333 317 328 Q 322 327 325 328 L 350 350 Q 350 352 347 356 Q 346 356 345 356 L 339 362 Q 338 363 338 364 Q 335 367 333 371 L 319 420 L 343 430 Q 343 432 338 435 Q 331 439 320 440 L 148 458 V 485 Q 148 495 143 503 Q 137 511 128 512 L 110 490 V 481 Q 116 475 116 462 V 222 Q 101 198 113 202 Q 110 191 106 185 Z" fill="black" />
  </g>
  <g class="defect" id="01">
    <path d="M 116 222 Q 101 198 113 202" fill="none" stroke="red" stroke-width="3" />
  </g>
  <g class="defect" id="02">
    <path d="M 383 77 Q 366 77 384 77" fill="none" stroke="red" stroke-width="3" />
  </g>
</svg>