<svg xmlns="http://www.w3.org/2000/svg" width="512" height="512" viewBox="0 0 512 512">
  <g class="glyph">
    <path d="M 96 478 Q 117 479 125 477 Q 118 476 131 476 Q 199 470 280 462 V 362 Q 280 350 278 340 Q 277 337 274 331 Q 273 327 272 326 L 201 338 L 189 326 Q 207 325 224 321 Q 309 307 349 300 Q 362 297 371 291 Q 379 286 386 280 Q 389 278 391 279 L 421 292 Q 421 295 418 297 Q 412 302 397 304 L 289 323 L 321 341 L 319 350 Q 317 355 315 360 L 315 371 V 459 L 422 447 Q 442 445 454 439 Q 464 433 473 426 Q 477 424 479 426 L 512 441 Q 511 445 508 447 Q 501 451 484 453 L 106 492 Z M 0 480 Q 79 420 142 329 Q 187 263 216 187 L 108 206 L 96 193 Q 108 193 131 189 L 221 174 Q 227 157 232 139 Q 247 90 252 45 Q 254 32 251 24 Q 251 18 243 9 L 250 0 L 288 13 Q 294 15 294 24 Q 282 87 267 139 L 257 168 L 376 147 Q 388 144 398 138 L 412 127 Q 428 136 418 126 L 448 139 Q 447 142 445 144 Q 439 149 424 151 L 253 181 Q 218 272 164 343 Q 96 437 5 488 Z" fill="black" />
  </g>
  <g class="defect" id="01">
    <path d="M 412 127 Q 428 136 418 126" fill="none" stroke="red" stroke-width="3" />
  </g>
  <g class="defect" id="02">
    <path d="M 96 478 Q 117 479 125 477" fill="none" stroke="red" stroke-width="3" />
  </g>
  <g class="defect" id="03">
    <path d="M 125 477 Q 118 476 131 476" fill="none" stroke="red" stroke-width="3" />
  </g>
</svg>