<svg xmlns="http://www.w3.org/2000/svg" width="512" height="512" viewBox="0 0 512 512">
  <g class="glyph">
    <path d="M 295 163 303 158 Q 321 174 328 184 Q 340 200 344 217 Q 347 229 342 240 Q 336 248 325 255 L 313 251 Q 315 232 311 212 Q 306 185 295 163 Z M 12 193 20 187 Q 37 202 45 213 Q 57 230 61 247 Q 63 259 59 269 Q 54 278 42 284 L 30 281 Q 31 263 28 242 Q 22 213 12 193 Z M 155 177 163 172 Q 178 183 188 197 Q 202 216 204 231 Q 207 243 202 253 Q 197 262 185 268 L 173 264 Q 175 248 171 226 Q 166 198 155 177 Z M 225 65 232 57 272 79 Q 272 83 270 87 L 268 97 Q 266 102 266 108 V 393 Q 266 403 261 410 Q 257 417 247 418 L 227 393 V 383 Q 233 379 233 368 V 103 Q 233 91 231 82 Q 229 74 225 65 Z M 0 473 Q 58 423 77 364 Q 97 313 99 229 Q 101 143 95 99 Q 95 89 90 80 Q 86 71 78 65 L 86 57 L 125 71 Q 129 72 130 80 Q 144 131 133 153 Q 133 196 132 224 Q 130 317 101 378 Q 95 439 6 480 Z M 370 7 377 0 417 22 Q 417 26 415 30 Q 413 35 413 40 Q 411 45 411 52 V 487 Q 411 498 406 504 Q 402 511 391 512 L 372 488 V 479 Q 378 473 378 463 V 45 Q 378 35 376 25 Q 374 16 370 7 Z" fill="black" />
  </g>
  <g class="defect" id="01">
    <path d="M 130 80 Q 144 131 133 153" fill="none" stroke="red" stroke-width="3" />
  </g>
  <g class="defect" id="02">
    <path d="M 101 378 Q 95 439 6 480" fill="none" stroke="red" stroke-width="3" />
  </g>
</svg>