<svg xmlns="http://www.w3.org/2000/svg" width="512" height="512" viewBox="0 0 512 512">
  <g class="glyph">
    <path d="M 0 156 7 150 38 169 Q 38 171 37 175 Q 36 176 36 178 L 34 185 Q 34 186 34 188 Q 32 193 32 196 V 292 Q 32 300 29 306 Q 25 312 18 313 L 2 293 V 286 Q 8 282 7 273 V 189 Q 8 180 6 172 Q 4 162 0 156 Z M 68 6 76 0 111 19 Q 112 22 110 26 Q 108 31 107 34 Q 105 41 105 47 V 152 L 130 147 Q 143 145 149 139 L 157 133 Q 160 130 163 132 L 186 148 Q 186 152 184 154 L 178 164 Q 178 165 178 165 Q 175 171 175 175 V 257 Q 176 275 165 285 Q 156 294 142 295 Q 140 281 135 275 Q 130 267 118 263 L 119 255 Q 123 256 132 256 Q 137 257 139 257 Q 150 256 150 244 V 154 L 105 163 V 435 Q 106 443 101 450 Q 96 455 89 456 L 71 435 V 426 Q 76 423 76 411 V 168 L 54 172 L 46 162 Q 56 161 67 159 L 76 158 V 40 Q 76 31 75 22 Q 73 13 68 6 Z M 185 260 Q 203 258 220 255 L 283 243 Q 289 218 292 178 L 235 191 L 230 185 Q 219 205 200 227 L 193 223 Q 209 194 216 169 Q 222 150 224 129 Q 225 121 220 109 L 226 103 L 250 113 Q 256 116 255 122 Q 246 150 237 170 L 233 179 L 293 166 L 294 138 Q 296 83 293 38 Q 292 26 290 21 Q 287 14 282 8 L 287 1 L 318 12 Q 322 12 323 19 Q 324 93 322 137 L 321 160 Q 325 171 348 149 L 364 137 Q 367 135 369 136 L 399 147 Q 400 150 396 153 Q 386 158 376 159 L 320 172 Q 318 205 312 237 Q 334 234 356 229 Q 368 227 380 218 L 393 208 Q 396 206 398 207 L 429 220 Q 429 223 426 226 Q 421 230 407 233 Q 406 233 406 233 L 309 250 Q 307 259 305 266 Q 337 312 378 346 Q 432 390 512 420 L 510 429 Q 489 424 469 428 Q 455 430 442 438 Q 435 443 427 437 Q 389 404 355 362 Q 327 328 300 283 Q 294 302 285 320 Q 239 406 149 444 L 144 437 Q 224 389 259 315 Q 273 287 280 256 L 198 270 Z" fill="black" />
  </g>
  <g class="defect" id="01">
    <path d="M 321 160 Q 325 171 348 149" fill="none" stroke="red" stroke-width="3" />
  </g>
</svg>