<svg xmlns="http://www.w3.org/2000/svg" width="512" height="512" viewBox="0 0 512 512">
  <g class="glyph">
    <path d="M 250 8 254 0 Q 272 -15 307 13 Q 319 17 327 25 Q 334 34 332 44 Q 329 55 324 61 L 311 63 Q 299 43 288 32 Q 272 18 250 8 Z M 174 113 Q 186 113 209 110 L 356 90 Q 369 88 383 80 Q 394 74 399 69 Q 402 67 405 69 L 438 83 Q 436 87 434 88 Q 427 93 415 94 Q 413 95 411 95 L 185 124 Z M 146 324 Q 170 296 187 264 Q 202 235 210 205 Q 213 193 208 181 L 217 175 L 245 189 Q 250 193 247 201 Q 232 237 215 261 Q 226 263 237 266 Q 253 270 260 278 Q 266 286 266 295 Q 266 302 260 311 L 249 315 Q 240 300 227 288 Q 220 280 208 272 Q 181 309 152 330 Z M 327 292 Q 348 269 363 244 Q 381 214 389 178 Q 403 167 388 155 L 395 148 L 423 161 Q 429 163 426 170 Q 411 213 389 241 Q 386 246 383 250 Q 395 251 416 258 Q 434 262 442 270 Q 451 278 451 290 Q 452 300 449 308 L 437 310 Q 428 296 415 283 Q 399 268 376 258 Q 358 280 334 298 Z M 0 506 Q 53 444 83 380 Q 113 316 126 233 Q 133 189 134 141 Q 134 128 132 121 Q 129 112 124 104 L 130 96 L 163 111 Q 167 113 167 120 Q 162 195 155 234 Q 140 321 109 383 Q 72 456 6 511 Z M 204 359 Q 211 359 226 357 Q 231 356 232 356 L 286 350 V 178 Q 286 167 285 158 Q 282 148 278 140 L 286 134 L 325 155 L 319 172 Q 318 178 318 184 V 346 Q 329 345 342 343 Q 351 342 359 335 L 373 326 Q 375 324 377 325 L 403 338 Q 403 341 401 343 Q 394 348 383 349 L 318 357 V 440 L 429 430 Q 447 428 458 422 Q 462 420 472 414 Q 474 412 475 411 Q 477 410 481 411 L 512 427 Q 512 428 511 430 Q 510 432 508 434 Q 502 437 488 438 Q 475 426 485 438 L 122 467 L 114 456 Q 129 456 147 454 L 286 442 V 362 L 213 371 Z" fill="black" />
  </g>
  <g class="defect" id="01">
    <path d="M 488 438 Q 475 426 485 438" fill="none" stroke="red" stroke-width="3" />
  </g>
  <g class="defect" id="02">
    <path d="M 389 178 Q 403 167 388 155" fill="none" stroke="red" stroke-width="3" />
  </g>
  <g class="defect" id="03">
    <path d="M 254 0 Q 272 -15 307 13" fill="none" stroke="red" stroke-width="3" />
  </g>
</svg>