<svg xmlns="http://www.w3.org/2000/svg" width="512" height="512" viewBox="0 0 512 512">
  <g class="glyph">
    <path d="M 194 333 200 326 Q 211 335 230 345 Q 261 353 262 358 Q 274 361 276 372 Q 277 381 271 393 L 260 399 Q 241 389 224 371 Q 211 358 194 333 Z M 100 49 104 41 Q 130 47 157 61 Q 173 70 180 80 Q 189 90 186 102 Q 185 111 177 119 L 165 120 Q 157 102 138 83 Q 105 61 100 49 Z M 0 443 3 433 Q 16 420 27 401 Q 39 381 48 348 L 56 349 Q 60 381 52 416 Q 44 454 24 471 L 13 470 Z M 360 318 363 310 Q 402 317 438 334 Q 457 342 467 353 Q 478 364 478 378 Q 477 388 469 398 L 458 399 Q 443 377 422 359 Q 396 337 360 318 Z M 220 133 Q 253 106 280 73 Q 297 52 312 30 Q 320 19 314 6 L 324 0 L 357 19 Q 362 23 358 29 Q 339 55 301 87 Q 262 119 227 140 Z M 106 355 115 352 Q 132 402 156 429 Q 184 465 231 476 Q 267 484 321 479 Q 359 474 376 463 Q 358 440 339 414 L 347 408 Q 367 431 385 442 Q 400 451 419 455 Q 418 476 401 488 Q 378 504 329 508 Q 260 512 221 502 Q 167 488 138 444 Q 112 409 106 355 Z M 82 179 88 170 132 180 131 188 Q 131 196 131 199 Q 131 202 132 207 Q 133 209 134 211 L 152 278 Q 159 278 166 276 L 282 259 L 327 159 L 152 191 L 141 181 Q 155 179 167 177 L 300 152 Q 312 150 319 145 Q 328 141 336 136 Q 339 133 342 135 L 370 156 Q 370 161 366 163 L 360 170 Q 356 173 354 179 L 324 246 L 342 253 Q 342 257 338 260 Q 333 263 321 265 L 155 289 Q 156 294 154 300 Q 154 300 154 301 Q 149 310 142 313 L 116 300 L 114 291 Q 118 285 116 273 L 97 202 Q 96 196 91 189 Q 87 184 82 179 Z" fill="black" />
  </g>
  <g class="defect" id="01">
    <path d="M 138 83 Q 105 61 100 49" fill="none" stroke="red" stroke-width="3" />
  </g>
  <g class="defect" id="02">
    <path d="M 230 345 Q 261 353 262 358" fill="none" stroke="red" stroke-width="3" />
  </g>
</svg>