<svg xmlns="http://www.w3.org/2000/svg" width="512" height="512" viewBox="0 0 512 512">
  <g class="glyph">
    <path d="M 1 252 Q 8 243 15 230 Q 25 208 31 171 L 39 170 Q 42 191 40 227 Q 39 231 39 233 Q 36 266 25 281 L 14 282 L 0 260 Z M 164 319 170 310 213 323 V 333 Q 212 338 212 343 Q 211 346 213 353 Q 211 347 213 353 L 225 432 Q 226 442 222 450 Q 217 456 210 459 L 186 438 L 185 431 Q 191 425 189 414 L 178 347 Q 178 342 173 332 Q 172 331 172 330 Q 169 324 164 319 Z M 294 14 302 7 344 28 Q 343 32 341 36 Q 339 41 338 46 Q 337 51 337 57 V 135 Q 366 129 394 124 L 409 52 Q 409 46 406 39 L 416 33 L 447 57 Q 446 62 444 65 Q 442 68 440 74 Q 438 77 437 81 L 424 142 Q 422 152 416 159 Q 412 166 401 167 L 386 137 L 247 167 Q 248 173 246 179 Q 244 186 235 189 L 212 178 L 211 170 Q 214 166 213 157 L 207 102 Q 206 94 203 88 Q 199 83 195 78 L 202 70 L 241 85 Q 242 89 241 93 Q 240 96 240 101 Q 240 106 241 111 L 245 153 L 303 142 V 47 Q 320 37 301 28 Q 299 21 294 14 Z M 79 7 88 0 128 21 126 31 Q 124 35 122 41 Q 122 47 122 51 V 135 Q 142 151 168 159 Q 178 161 182 167 Q 186 170 187 177 Q 189 187 188 197 L 177 204 Q 160 195 141 176 Q 131 165 122 154 V 461 Q 122 472 116 478 Q 112 483 102 486 L 83 461 V 451 Q 88 446 88 435 V 44 Q 88 33 87 23 Q 85 15 79 7 Z M 218 318 Q 233 317 247 314 L 262 312 Q 275 289 287 258 Q 289 247 285 237 L 215 250 L 204 239 Q 217 237 229 236 Q 312 221 378 208 Q 386 206 394 201 Q 403 196 409 189 Q 412 187 415 188 L 446 199 Q 446 202 443 204 Q 435 209 424 212 L 301 234 L 325 243 Q 333 247 329 254 Q 308 282 279 309 Q 326 301 412 287 Q 432 284 442 282 Q 451 280 462 276 Q 468 272 476 265 Q 479 262 482 264 L 512 286 Q 500 304 509 293 L 503 303 Q 503 303 502 304 Q 498 311 498 317 L 487 435 Q 485 454 475 465 Q 463 476 441 477 Q 441 461 435 453 Q 428 441 411 434 L 414 425 Q 416 426 422 428 Q 435 432 441 433 Q 455 434 456 422 L 468 290 L 370 306 L 399 320 Q 399 325 398 330 L 396 339 Q 396 342 396 349 V 418 Q 396 429 392 435 Q 388 441 381 442 L 362 424 L 361 415 Q 365 411 365 399 V 338 Q 365 329 362 322 Q 360 316 357 309 L 284 321 L 310 333 Q 312 337 310 340 L 308 349 Q 307 353 307 359 V 414 Q 308 425 304 430 Q 299 436 292 437 L 274 418 L 273 409 Q 276 405 276 397 V 348 Q 276 341 275 334 Q 274 333 273 331 Q 271 326 269 323 L 230 330 Z" fill="black" />
  </g>
  <g class="defect" id="01">
    <path d="M 512 286 Q 500 304 509 293" fill="none" stroke="red" stroke-width="3" />
  </g>
  <g class="defect" id="02">
    <path d="M 303 47 Q 320 37 301 28" fill="none" stroke="red" stroke-width="3" />
  </g>
</svg>