<svg xmlns="http://www.w3.org/2000/svg" width="512" height="512" viewBox="0 0 512 512">
  <g class="glyph">
    <path d="M 1 253 Q 11 243 16 232 Q 26 212 34 176 L 42 175 Q 44 196 39 231 Q 39 234 39 236 Q 34 269 22 281 H 13 L 0 259 Z M 224 373 252 370 Q 265 370 291 367 Q 304 365 310 365 V 349 Q 310 335 308 325 Q 305 314 301 308 L 224 318 L 213 306 Q 227 305 241 303 Q 285 299 364 288 Q 370 288 372 287 Q 382 286 392 280 Q 397 278 404 271 Q 405 269 407 270 Q 408 270 409 270 L 437 281 Q 437 285 435 286 Q 427 291 416 294 L 318 306 L 349 323 Q 349 326 347 330 Q 345 335 344 339 Q 343 343 343 350 V 361 L 359 359 Q 371 357 380 352 Q 384 350 391 343 Q 393 341 396 342 L 425 354 Q 425 357 422 359 Q 414 365 403 366 L 343 373 V 432 Q 363 431 404 427 Q 420 426 428 425 Q 449 423 457 417 Q 462 415 472 407 Q 474 406 474 405 Q 478 404 480 405 L 512 421 Q 510 425 508 426 Q 499 431 485 432 L 171 458 L 162 446 Q 178 446 196 444 L 310 435 V 376 L 235 384 Z M 84 9 92 3 130 24 128 32 Q 127 37 125 42 Q 125 48 125 52 V 137 Q 144 150 169 157 Q 176 159 181 162 Q 185 167 187 174 Q 189 185 188 194 L 179 200 Q 164 192 141 172 Q 132 164 125 155 V 462 Q 125 473 120 478 Q 115 483 106 486 L 88 461 V 452 Q 92 447 93 437 V 45 Q 93 34 91 25 Q 90 18 84 9 Z M 197 128 202 118 234 124 Q 244 110 261 83 Q 266 75 269 71 Q 271 67 275 59 Q 286 39 291 29 Q 298 16 293 6 L 302 0 L 333 16 Q 342 21 336 28 Q 309 62 289 83 Q 265 108 245 127 Q 246 130 245 135 Q 245 140 246 144 L 257 183 L 259 182 Q 271 167 318 174 Q 324 172 331 169 Q 337 165 340 162 Q 329 178 344 160 L 368 170 Q 368 173 366 175 Q 360 180 349 181 L 261 194 L 274 237 L 286 235 Q 293 234 310 232 Q 352 228 372 225 Q 375 223 377 217 Q 378 215 379 213 L 415 109 L 267 135 L 256 125 Q 263 124 276 122 Q 268 123 280 122 Q 306 117 364 107 Q 381 103 389 102 Q 399 100 409 95 Q 396 104 419 88 Q 421 86 422 86 Q 427 83 431 86 L 457 105 Q 457 105 456 106 Q 455 110 453 111 L 444 126 L 406 234 Q 403 244 399 248 Q 392 255 384 256 L 367 237 L 277 248 Q 277 251 276 254 Q 273 261 266 264 L 239 254 L 238 247 Q 242 242 239 232 L 214 158 Q 211 147 207 140 Q 204 134 197 128 Z" fill="black" />
  </g>
  <g class="defect" id="01">
    <path d="M 340 162 Q 329 178 344 160" fill="none" stroke="red" stroke-width="3" />
  </g>
  <g class="defect" id="02">
    <path d="M 409 95 Q 396 104 419 88" fill="none" stroke="red" stroke-width="3" />
  </g>
  <g class="defect" id="03">
    <path d="M 259 182 Q 271 167 318 174" fill="none" stroke="red" stroke-width="3" />
  </g>
</svg>