<svg xmlns="http://www.w3.org/2000/svg" width="512" height="512" viewBox="0 0 512 512">
  <g class="glyph">
    <path d="M 0 400 3 388 Q 14 390 27 381 L 139 298 V 205 L 56 226 L 44 215 Q 59 213 75 209 L 139 192 V 46 Q 139 31 137 25 Q 136 14 130 7 L 139 0 L 180 23 Q 181 26 179 30 Q 177 36 175 41 Q 173 46 173 54 V 183 Q 179 180 185 176 L 198 165 Q 201 163 203 163 L 231 173 Q 231 177 230 178 Q 225 182 214 186 Q 213 186 211 186 L 173 196 V 273 L 211 246 L 216 253 L 173 294 V 468 Q 173 488 162 502 Q 152 511 133 512 Q 131 495 124 485 Q 114 473 95 465 L 97 456 Q 113 460 126 460 Q 149 461 139 445 V 324 L 40 415 Q 33 422 26 417 Z M 341 39 350 32 391 54 388 62 Q 398 67 385 71 Q 384 78 384 84 V 262 L 461 247 Q 463 247 467 246 Q 468 245 468 245 Q 469 243 469 237 L 472 194 Q 473 186 470 176 Q 468 169 464 163 L 473 156 L 509 179 Q 509 182 507 186 L 503 196 Q 501 201 501 206 L 499 262 Q 499 271 494 279 Q 509 304 479 288 L 465 260 L 384 275 V 409 L 464 394 Q 468 394 470 392 Q 473 388 473 382 L 473 356 Q 473 346 471 338 Q 469 330 466 323 L 474 316 L 511 338 Q 510 342 508 345 Q 508 346 507 347 Q 506 350 505 354 Q 503 360 503 366 L 502 430 Q 502 440 497 447 Q 490 455 483 456 L 466 407 L 262 446 Q 262 459 260 464 Q 258 473 248 476 L 230 456 L 229 447 Q 233 441 233 432 L 231 391 Q 231 383 227 373 Q 227 373 226 372 Q 223 364 220 362 L 228 354 L 265 370 Q 265 373 264 377 L 262 388 Q 262 394 262 399 V 433 Q 268 432 275 430 L 350 416 V 281 L 270 297 Q 269 303 267 307 Q 264 316 256 317 L 237 298 L 237 289 Q 241 284 241 275 L 239 246 Q 239 236 235 227 Q 235 226 234 224 Q 230 215 227 212 L 235 203 L 272 222 Q 273 226 271 229 L 269 239 L 269 284 Q 271 284 273 283 Q 272 284 275 282 L 350 269 V 77 Q 350 67 349 56 Q 346 44 341 39 Z" fill="black" />
  </g>
  <g class="defect" id="01">
    <path d="M 126 460 Q 149 461 139 445" fill="none" stroke="red" stroke-width="3" />
  </g>
  <g class="defect" id="02">
    <path d="M 494 279 Q 509 304 479 288" fill="none" stroke="red" stroke-width="3" />
  </g>
  <g class="defect" id="03">
    <path d="M 388 62 Q 398 67 385 71" fill="none" stroke="red" stroke-width="3" />
  </g>
</svg>