<svg xmlns="http://www.w3.org/2000/svg" width="512" height="512" viewBox="0 0 512 512">
  <g class="glyph">
    <path d="M 209 9 212 0 Q 237 1 268 10 Q 288 17 296 28 Q 303 37 301 49 Q 279 57 293 65 L 281 68 Q 264 45 250 34 Q 231 19 209 9 Z M 0 505 Q 58 464 88 399 Q 111 352 123 281 Q 112 231 130 182 Q 129 171 127 162 Q 124 148 117 141 L 123 132 L 160 144 Q 164 146 164 153 Q 164 218 158 260 L 316 237 L 347 129 L 185 156 L 174 144 Q 187 143 200 141 L 336 118 Q 342 117 349 113 L 359 106 Q 362 104 366 106 L 390 126 Q 391 131 388 133 L 380 140 Q 376 143 375 147 L 354 220 L 382 229 Q 382 231 379 235 Q 373 239 360 242 L 156 273 L 155 282 Q 141 359 111 413 Q 73 481 6 512 Z" fill="black" />
  </g>
  <g class="defect" id="01">
    <path d="M 123 281 Q 112 231 130 182" fill="none" stroke="red" stroke-width="3" />
  </g>
  <g class="defect" id="02">
    <path d="M 301 49 Q 279 57 293 65" fill="none" stroke="red" stroke-width="3" />
  </g>
</svg>