<svg xmlns="http://www.w3.org/2000/svg" width="512" height="512" viewBox="0 0 512 512">
  <g class="glyph">
    <path d="M 0 341 2 330 Q 15 331 27 323 L 146 250 V 169 L 62 185 L 51 175 L 86 169 Q 101 166 136 160 Q 142 159 146 158 V 43 Q 146 30 144 24 Q 156 13 137 7 L 145 0 L 185 22 Q 185 24 183 29 L 180 38 Q 178 45 178 51 V 150 L 197 136 Q 199 134 203 135 L 229 146 Q 229 150 226 152 Q 221 156 208 158 L 178 164 V 230 L 230 197 L 235 204 L 178 248 V 402 Q 178 423 167 433 Q 157 442 141 444 Q 141 430 130 418 Q 121 406 104 400 L 107 392 Q 117 394 134 395 Q 146 394 146 378 V 272 L 34 357 Q 26 363 21 358 Z M 192 411 Q 242 357 256 304 Q 267 267 268 210 Q 268 167 266 133 Q 266 121 264 112 Q 263 104 255 95 L 262 87 L 290 101 Q 322 85 342 70 Q 364 53 377 38 Q 384 30 381 19 L 391 13 L 422 35 Q 426 40 422 45 Q 393 68 357 86 Q 328 100 298 109 L 299 111 Q 300 161 299 192 L 432 172 Q 464 169 459 164 L 475 153 Q 478 151 481 152 L 512 164 Q 512 169 509 170 Q 502 174 486 176 L 382 191 L 415 209 L 414 216 Q 400 238 411 225 Q 409 230 409 236 V 442 Q 410 452 404 458 Q 400 464 391 464 L 372 442 V 433 Q 377 429 378 418 V 229 Q 378 219 376 208 Q 372 197 368 192 L 299 202 V 207 Q 296 272 281 313 Q 261 371 198 417 Z" fill="black" />
  </g>
  <g class="defect" id="01">
    <path d="M 144 24 Q 156 13 137 7" fill="none" stroke="red" stroke-width="3" />
  </g>
  <g class="defect" id="02">
    <path d="M 432 172 Q 464 169 459 164" fill="none" stroke="red" stroke-width="3" />
  </g>
  <g class="defect" id="03">
    <path d="M 414 216 Q 400 238 411 225" fill="none" stroke="red" stroke-width="3" />
  </g>
</svg>