<svg xmlns="http://www.w3.org/2000/svg" width="512" height="512" viewBox="0 0 512 512">
  <g class="glyph">
    <path d="M 194 73 199 66 Q 213 71 228 83 Q 238 90 241 100 Q 245 108 239 119 Q 236 128 232 131 L 220 132 Q 218 122 211 103 Q 202 82 194 73 Z M 262 132 Q 255 128 284 85 Q 291 66 295 50 Q 298 39 292 28 L 299 21 L 328 34 Q 334 37 331 42 Q 319 71 304 92 Q 296 105 277 129 Q 273 134 270 137 Z M 373 93 377 86 Q 386 88 400 86 Q 419 81 453 72 L 466 67 Q 468 66 472 63 Q 475 61 476 60 Q 480 56 483 59 L 510 79 Q 510 83 506 86 L 498 94 Q 485 113 457 151 Q 445 170 437 180 Q 472 202 483 217 Q 502 239 507 268 Q 512 298 500 316 Q 491 329 472 333 Q 467 320 456 306 Q 445 293 427 282 L 431 274 L 473 291 Q 481 267 467 233 Q 453 203 424 182 Q 451 124 472 78 L 407 110 Q 402 113 398 111 Z M 364 117 372 110 409 132 Q 409 132 408 133 Q 408 135 407 138 L 404 149 Q 403 154 403 160 V 451 Q 403 462 399 468 Q 394 474 384 476 L 367 453 V 444 Q 372 437 373 429 V 152 Q 373 146 371 136 Q 371 134 371 134 Q 369 126 364 117 Z M 157 272 Q 159 271 163 271 Q 183 266 196 262 L 245 249 Q 246 229 246 207 Q 245 189 236 179 L 179 194 L 168 184 Q 187 181 203 177 Q 217 174 230 170 L 278 158 Q 288 155 295 149 Q 298 147 303 141 Q 306 138 307 137 Q 310 135 312 137 L 339 145 Q 339 148 337 150 Q 333 154 322 157 Q 320 158 320 158 L 248 176 L 271 186 Q 277 189 277 196 Q 277 213 275 240 L 301 233 Q 312 229 320 223 L 329 213 Q 332 211 334 211 L 361 219 Q 362 223 360 224 Q 355 230 342 233 L 274 252 L 273 255 Q 271 271 269 284 Q 292 292 317 308 Q 331 317 339 329 Q 346 341 344 354 Q 342 363 336 373 H 324 Q 312 347 301 333 Q 282 311 266 295 Q 258 326 239 352 Q 217 383 175 405 L 168 399 Q 205 372 223 338 Q 241 303 244 260 L 168 280 Z M 0 301 6 292 Q 23 296 33 292 L 111 258 V 170 L 50 187 L 39 178 Q 46 177 59 173 Q 65 171 67 171 Q 75 169 96 164 Q 106 160 111 159 V 44 Q 111 31 109 24 Q 108 13 102 7 L 110 0 L 148 22 Q 148 26 146 29 L 142 39 Q 140 44 140 51 V 151 Q 145 149 152 144 Q 154 143 154 142 Q 157 140 162 134 Q 159 138 163 133 Q 167 129 170 130 L 194 140 Q 194 143 191 145 Q 187 149 178 151 Q 176 152 176 152 L 140 162 V 244 L 185 223 L 188 231 Q 164 247 140 262 V 414 Q 140 433 130 445 Q 121 454 103 456 Q 101 439 94 431 Q 86 418 67 410 L 70 401 Q 86 407 96 407 Q 111 408 111 390 V 280 L 100 286 Q 66 307 29 326 Q 22 331 16 324 Z" fill="black" />
  </g>
  <g class="defect" id="01">
    <path d="M 262 132 Q 255 128 284 85" fill="none" stroke="red" stroke-width="3" />
  </g>
</svg>