<svg xmlns="http://www.w3.org/2000/svg" width="512" height="512" viewBox="0 0 512 512">
  <g class="glyph">
    <path d="M 383 284 Q 386 284 389 283 L 399 224 L 336 233 V 292 Q 351 289 379 285 Q 382 284 383 284 Z M 411 161 313 175 344 192 Q 344 194 342 198 Q 342 199 342 200 L 338 210 Q 347 214 336 220 V 223 L 402 213 Z M 0 340 4 330 Q 17 331 29 323 L 117 257 V 174 L 51 192 L 40 182 Q 49 180 64 177 Q 66 176 67 176 L 117 163 V 52 Q 117 39 115 33 Q 114 24 109 17 L 117 10 L 155 31 Q 155 35 153 39 Q 152 41 151 46 Q 151 47 150 48 Q 149 52 149 60 V 154 Q 154 151 158 147 Q 161 145 167 138 Q 166 138 168 136 Q 170 135 173 135 L 199 143 Q 200 146 198 148 Q 193 152 183 155 Q 182 155 181 155 L 149 165 V 232 L 189 202 L 194 208 Q 170 230 149 252 V 425 Q 149 444 138 455 Q 129 466 112 466 Q 110 449 103 441 Q 96 431 76 423 L 79 415 Q 89 417 105 419 Q 135 417 117 402 V 282 L 109 289 Q 76 320 35 356 Q 28 363 22 357 Z M 216 177 309 165 Q 344 120 371 76 L 296 92 L 291 86 Q 287 92 278 104 Q 275 108 273 110 Q 241 151 204 178 L 197 173 Q 236 132 257 98 Q 272 73 288 30 Q 291 26 289 18 Q 289 11 285 5 L 294 0 L 327 18 Q 330 20 327 25 Q 313 54 295 81 Q 311 77 342 70 Q 354 67 361 66 Q 366 65 370 62 Q 374 60 379 55 Q 383 52 386 54 L 413 77 Q 411 80 406 84 Q 405 85 402 87 Q 397 91 395 93 Q 391 98 381 107 Q 345 143 323 163 L 394 152 Q 395 151 398 151 Q 405 149 409 148 L 422 139 Q 426 136 430 138 L 454 154 Q 453 158 451 160 L 445 167 Q 441 171 441 175 L 435 208 Q 447 205 458 199 Q 467 195 475 188 Q 478 186 480 186 L 512 199 Q 511 202 508 205 Q 502 208 491 210 Q 488 211 486 211 L 433 219 L 423 269 L 447 279 Q 446 279 445 280 Q 444 283 440 285 Q 434 289 425 289 L 336 302 V 438 Q 336 457 326 467 Q 316 477 299 477 Q 297 461 291 454 Q 282 444 265 436 L 267 427 Q 285 432 294 432 Q 305 431 306 416 V 307 L 216 320 L 204 310 L 306 296 V 238 L 183 257 L 173 246 Q 174 246 176 246 Q 192 245 205 242 L 306 227 V 214 Q 307 204 305 195 Q 302 185 298 177 L 225 188 Z" fill="black" />
  </g>
  <g class="defect" id="01">
    <path d="M 105 419 Q 135 417 117 402" fill="none" stroke="red" stroke-width="3" />
  </g>
  <g class="defect" id="02">
    <path d="M 338 210 Q 347 214 336 220" fill="none" stroke="red" stroke-width="3" />
  </g>
</svg>