<svg xmlns="http://www.w3.org/2000/svg" width="512" height="512" viewBox="0 0 512 512">
  <g class="glyph">
    <path d="M 233 220 Q 256 174 275 116 Q 291 69 297 40 Q 299 30 298 22 Q 297 18 292 11 Q 291 9 290 8 L 297 0 L 333 15 Q 339 17 338 26 Q 317 89 300 123 Q 290 144 280 164 L 285 162 Q 330 151 386 136 Q 396 134 404 127 Q 413 121 417 116 Q 418 114 422 114 L 450 123 Q 450 126 447 128 Q 439 134 431 137 L 272 177 Q 257 202 240 224 Z M 171 419 Q 229 399 264 369 Q 290 347 306 320 Q 285 297 264 274 Q 245 253 228 242 L 232 236 Q 253 244 274 264 Q 279 268 288 276 Q 306 291 316 300 Q 321 289 324 276 Q 333 246 333 199 Q 333 186 325 175 L 333 169 L 367 185 Q 372 187 371 195 Q 365 256 351 291 Q 350 293 349 297 Q 343 312 339 319 Q 380 354 419 376 Q 464 402 512 415 L 510 423 Q 490 420 471 424 Q 457 426 447 435 Q 441 441 433 436 Q 412 422 379 393 Q 347 365 325 340 Q 304 369 275 387 Q 237 411 176 426 Z M 53 212 61 205 95 225 Q 95 226 94 230 Q 93 232 93 232 Q 93 233 93 233 Q 93 236 91 240 Q 90 246 90 251 V 356 L 136 342 V 159 Q 136 151 134 142 Q 133 136 129 129 L 66 141 L 56 130 Q 66 130 78 127 L 175 108 Q 179 107 190 101 Q 190 101 191 101 Q 192 100 194 98 Q 200 93 203 90 Q 205 87 209 88 L 236 99 Q 236 102 233 104 Q 225 110 216 111 L 145 126 L 172 140 Q 172 144 170 147 Q 170 152 168 156 Q 166 162 166 166 V 222 L 180 219 Q 187 218 194 214 Q 198 211 202 205 V 205 Q 205 203 207 204 L 228 216 Q 228 218 226 220 Q 221 225 210 226 L 166 232 V 332 L 236 311 L 239 319 Q 92 379 31 410 Q 23 413 18 407 L 0 381 L 6 373 Q 20 378 41 371 L 61 365 V 245 Q 61 236 59 227 Q 58 222 53 212 Z" fill="black" />
  </g>
  <g class="defect" id="01">
    <path d="M 239 319 Q 92 379 31 410" fill="none" stroke="red" stroke-width="3" />
  </g>
</svg>