<svg xmlns="http://www.w3.org/2000/svg" width="512" height="512" viewBox="0 0 512 512">
  <g class="glyph">
    <path d="M 350 323 Q 353 303 356 267 L 293 274 Q 293 277 293 282 Q 295 313 296 329 Q 323 326 350 323 Z M 349 369 355 362 Q 392 376 428 400 Q 443 410 452 423 Q 460 437 458 449 Q 457 463 448 470 H 435 Q 423 443 403 421 Q 378 390 349 369 Z M 172 468 Q 210 445 230 422 Q 264 416 261 381 Q 267 371 264 361 L 273 355 L 303 374 Q 307 377 303 384 Q 283 414 251 435 Q 217 460 179 475 Z M 197 52 205 46 239 66 234 83 Q 233 89 233 95 V 121 L 270 114 Q 271 114 275 112 L 285 55 L 250 63 L 241 54 Q 256 52 269 48 Q 279 46 286 42 Q 290 39 293 36 Q 298 32 301 35 L 318 50 Q 318 53 316 55 L 312 61 Q 312 61 312 62 Q 309 66 308 69 L 302 101 L 319 109 Q 319 112 316 113 Q 310 117 300 119 L 233 132 L 233 148 Q 234 175 254 176 Q 274 176 288 172 Q 300 167 305 162 Q 313 154 317 132 L 326 133 Q 323 145 327 155 Q 333 163 341 164 Q 340 180 316 191 Q 289 202 258 202 Q 207 203 206 143 L 205 81 Q 205 72 203 66 Q 201 60 197 52 Z M 335 33 342 27 377 47 372 63 Q 370 69 370 76 L 370 99 L 407 92 Q 409 92 411 90 L 422 36 L 387 43 L 377 35 Q 392 33 406 29 Q 416 27 422 23 Q 426 21 430 17 Q 434 13 438 16 L 455 30 Q 456 33 454 36 L 449 42 Q 449 43 448 43 Q 445 47 445 49 L 439 79 L 456 86 Q 456 90 454 91 Q 448 95 438 97 L 370 110 L 371 129 Q 372 156 394 157 Q 416 157 429 153 Q 443 150 451 142 Q 458 134 462 113 L 471 114 Q 467 126 472 135 Q 476 143 486 145 Q 483 163 460 172 Q 434 183 395 183 Q 344 183 343 125 L 342 62 Q 342 53 340 46 Q 340 45 340 44 Q 338 38 335 33 Z M 243 223 250 216 284 224 Q 289 226 288 231 Q 288 234 289 238 Q 290 248 292 263 L 357 256 L 358 222 Q 359 206 352 193 L 360 186 L 391 201 Q 395 203 394 209 L 388 250 Q 395 248 399 244 L 414 233 Q 416 231 420 232 L 450 247 Q 449 252 446 253 Q 441 256 428 258 Q 426 259 425 259 L 386 264 L 375 321 L 429 314 Q 443 313 459 305 L 476 295 Q 478 292 481 294 L 512 309 Q 511 313 508 315 Q 502 318 488 319 Q 486 319 485 319 L 166 354 L 155 343 Q 171 343 190 340 Q 214 338 265 333 Q 271 332 274 332 Q 270 305 264 278 L 224 282 L 213 271 L 262 267 Q 260 261 259 254 Q 254 235 243 223 Z M 0 333 3 323 Q 17 324 28 315 L 111 258 V 160 L 29 175 L 18 165 Q 27 163 43 161 Q 47 160 50 160 Q 58 159 72 156 Q 97 152 111 150 V 44 Q 111 33 109 24 Q 108 15 103 7 L 111 0 L 149 21 Q 149 24 148 28 Q 145 33 145 38 Q 143 43 143 50 V 143 Q 148 142 153 137 L 166 128 Q 168 126 170 126 L 196 137 Q 196 141 194 142 Q 189 146 179 148 Q 177 149 177 149 L 143 155 V 236 Q 177 213 194 200 L 200 206 L 143 256 V 430 Q 143 448 132 460 Q 124 470 106 471 Q 104 456 97 445 Q 88 436 69 428 L 72 419 Q 72 419 73 420 Q 90 422 98 423 Q 111 422 111 406 V 283 L 35 349 Q 27 356 21 352 Z" fill="black" />
  </g>
  <g class="defect" id="01">
    <path d="M 230 422 Q 264 416 261 381" fill="none" stroke="red" stroke-width="3" />
  </g>
</svg>