<svg xmlns="http://www.w3.org/2000/svg" width="512" height="512" viewBox="0 0 512 512">
  <g class="glyph">
    <path d="M 231 84 234 77 Q 235 77 237 78 Q 247 78 252 80 Q 261 81 266 87 Q 269 92 268 98 Q 267 102 265 106 L 255 108 Q 250 100 244 94 Q 238 89 231 84 Z M 344 72 347 65 Q 348 65 350 65 Q 362 66 368 68 Q 375 70 380 75 Q 384 81 382 86 Q 381 91 379 95 L 368 97 Q 364 88 358 83 Q 350 75 344 72 Z M 196 450 199 443 Q 208 436 214 429 Q 225 414 228 403 L 237 404 Q 238 426 232 443 Q 225 462 211 472 L 204 470 Z M 360 402 364 395 Q 368 382 401 407 Q 414 413 422 423 Q 428 431 427 443 Q 426 453 420 459 L 410 459 Q 402 443 392 431 Q 377 413 360 402 Z M 171 120 Q 175 116 178 111 Q 196 87 204 75 Q 213 60 221 40 Q 225 31 218 21 L 225 14 L 254 28 Q 259 31 256 37 L 246 54 L 258 53 Q 266 51 271 48 Q 277 45 281 41 Q 284 38 287 39 L 309 49 Q 309 53 305 54 Q 301 58 292 60 L 237 65 L 222 83 Q 199 110 177 126 Z M 284 102 Q 301 83 315 60 Q 326 40 331 27 Q 335 17 328 8 L 335 0 L 365 14 Q 370 17 367 23 Q 362 32 356 40 L 371 39 Q 365 38 386 35 Q 390 33 395 28 Q 396 27 397 26 Q 400 24 403 25 L 431 35 Q 430 38 428 40 Q 420 45 410 46 L 347 53 Q 340 62 333 69 Q 309 95 291 108 Z M 226 321 228 312 257 305 Q 272 289 277 283 Q 283 274 277 269 L 284 264 L 305 275 Q 311 279 305 285 Q 289 301 265 315 L 290 330 Q 310 314 322 302 Q 329 295 324 286 L 332 281 L 353 297 Q 358 302 354 307 Q 310 339 262 363 L 348 351 Q 343 342 336 336 L 341 331 Q 358 336 366 343 Q 375 348 377 356 Q 380 363 377 372 Q 376 374 372 377 Q 371 379 370 380 L 360 380 Q 358 369 352 358 L 303 374 L 328 386 L 326 393 Q 325 398 323 402 Q 322 406 322 412 V 443 Q 322 465 313 477 Q 303 487 287 487 Q 287 475 278 467 Q 269 459 255 453 L 256 446 L 260 446 Q 273 450 281 450 Q 310 450 293 438 V 405 Q 293 399 292 390 Q 292 390 292 389 Q 291 387 290 385 Q 289 380 288 378 Q 275 382 249 389 Q 246 389 244 390 Q 235 393 231 386 L 221 368 L 227 361 Q 233 365 241 365 Q 251 359 268 346 Q 270 345 271 344 L 243 326 Q 234 321 226 321 Z M 0 305 5 296 Q 18 297 30 290 L 104 248 V 177 L 34 192 L 23 182 L 104 166 V 60 Q 105 50 103 42 Q 101 32 96 25 L 104 19 L 141 39 Q 141 42 140 46 Q 137 51 136 55 Q 135 60 135 67 V 158 Q 142 156 146 152 L 156 142 Q 157 141 161 141 L 186 150 Q 186 153 184 155 Q 178 160 168 162 L 135 169 V 231 L 178 205 L 183 212 L 135 249 V 423 Q 135 442 124 453 Q 114 463 98 464 Q 95 447 89 440 Q 82 430 63 421 L 66 413 Q 75 416 92 417 Q 104 416 104 400 V 272 Q 60 307 37 323 Q 29 329 23 325 Z M 218 121 226 114 256 128 Q 258 130 257 134 Q 256 137 256 141 Q 256 141 255 143 Q 255 146 255 148 L 285 143 Q 294 141 299 138 Q 304 136 308 131 Q 310 129 313 130 L 334 138 Q 334 141 331 143 Q 325 147 315 149 L 255 158 V 178 L 284 174 Q 293 172 299 169 Q 304 166 308 162 Q 311 160 313 161 L 334 169 Q 334 172 331 174 Q 325 178 315 180 L 255 189 V 207 Q 256 207 259 207 L 345 196 Q 350 192 350 184 V 116 L 265 127 L 257 117 Q 269 117 283 115 L 335 108 Q 343 107 347 105 L 356 99 Q 359 96 362 98 L 387 111 Q 387 114 386 117 L 381 125 Q 379 129 379 135 V 199 Q 379 208 375 214 Q 369 221 363 222 L 347 207 L 271 216 L 283 222 Q 287 226 286 231 L 280 241 L 378 228 Q 388 226 398 220 Q 406 216 410 211 Q 413 209 416 210 L 444 221 Q 444 223 440 227 Q 432 232 422 232 L 332 244 Q 363 271 398 289 Q 451 317 512 328 L 510 337 Q 496 335 484 340 Q 472 342 463 349 Q 456 355 449 350 Q 410 329 380 303 Q 348 278 320 246 L 273 252 Q 256 277 229 305 Q 185 347 144 366 L 139 360 Q 171 338 207 296 Q 230 270 239 257 L 172 265 L 161 255 L 247 245 Q 249 243 252 238 Q 252 236 253 235 Q 259 225 256 218 H 253 Q 252 222 250 225 Q 246 230 239 234 L 220 215 V 207 Q 226 201 225 190 V 146 Q 225 139 223 132 Q 222 126 218 121 Z" fill="black" />
  </g>
  <g class="defect" id="01">
    <path d="M 281 450 Q 310 450 293 438" fill="none" stroke="red" stroke-width="3" />
  </g>
  <g class="defect" id="02">
    <path d="M 364 395 Q 368 382 401 407" fill="none" stroke="red" stroke-width="3" />
  </g>
  <g class="defect" id="03">
    <path d="M 371 39 Q 365 38 386 35" fill="none" stroke="red" stroke-width="3" />
  </g>
</svg>