<svg xmlns="http://www.w3.org/2000/svg" width="512" height="512" viewBox="0 0 512 512">
  <g class="glyph">
    <path d="M 259 192 263 185 Q 285 188 298 192 Q 332 211 323 205 Q 334 213 333 228 Q 333 240 328 251 L 316 252 Q 302 229 293 219 Q 279 204 259 192 Z M 252 102 257 94 Q 278 97 291 101 Q 306 106 317 115 Q 327 122 327 138 Q 327 152 321 161 L 309 162 Q 296 137 286 128 Q 275 115 252 102 Z M 0 460 Q 26 424 35 381 Q 44 347 46 291 Q 47 257 45 223 Q 44 207 35 195 L 41 187 L 71 198 Q 74 200 75 205 Q 76 258 75 291 Q 73 348 61 384 Q 46 429 7 466 Z M 25 168 Q 59 137 79 109 Q 98 82 112 50 Q 116 38 112 25 L 121 20 L 150 38 Q 152 40 150 46 Q 133 76 117 96 Q 141 92 166 86 Q 173 85 179 82 Q 185 79 189 74 Q 194 70 197 73 L 224 96 Q 224 98 220 101 Q 219 102 218 103 L 197 121 Q 179 137 135 174 Q 130 179 128 180 L 121 174 Q 149 142 181 95 L 107 109 L 101 115 Q 68 152 32 175 Z M 236 283 Q 237 283 240 282 Q 257 281 270 279 Q 323 271 366 263 V 41 Q 366 32 364 23 Q 362 15 358 7 L 366 0 L 403 20 L 399 37 Q 397 42 397 48 V 258 L 433 252 Q 450 249 460 242 Q 468 237 475 230 Q 477 228 481 230 L 512 243 Q 511 248 509 249 Q 501 254 487 256 L 397 270 V 469 Q 397 479 392 484 Q 388 490 379 491 L 361 469 V 460 Q 365 456 366 445 V 275 L 246 294 Z M 74 342 Q 76 342 81 341 Q 109 337 121 335 V 283 L 89 288 L 79 279 L 121 272 V 239 Q 121 226 120 218 Q 118 209 115 202 L 94 205 L 84 195 Q 94 195 107 192 L 180 180 Q 190 179 195 174 Q 202 170 204 167 Q 207 164 211 165 L 236 182 L 234 188 Q 231 192 230 198 Q 228 205 228 211 V 422 Q 228 439 219 453 Q 208 465 192 465 Q 191 454 184 446 Q 155 418 163 433 L 165 425 Q 176 428 186 427 Q 197 427 197 417 V 188 L 128 200 L 151 212 L 150 219 Q 149 222 148 226 Q 146 231 146 239 V 267 Q 150 266 155 262 Q 157 260 162 257 Q 164 255 165 254 Q 167 252 169 254 L 193 263 Q 193 267 189 269 Q 183 273 174 274 L 146 279 V 330 Q 149 330 152 327 Q 154 326 155 326 Q 156 324 158 323 Q 162 318 165 317 Q 167 315 170 316 L 193 326 Q 193 329 191 330 Q 186 335 173 337 L 146 342 V 418 Q 146 426 142 432 Q 138 437 131 439 L 116 420 V 414 Q 122 410 121 400 V 346 L 84 352 Z" fill="black" />
  </g>
  <g class="defect" id="01">
    <path d="M 298 192 Q 332 211 323 205" fill="none" stroke="red" stroke-width="3" />
  </g>
  <g class="defect" id="02">
    <path d="M 184 446 Q 155 418 163 433" fill="none" stroke="red" stroke-width="3" />
  </g>
</svg>