<svg xmlns="http://www.w3.org/2000/svg" width="512" height="512" viewBox="0 0 512 512">
  <g class="glyph">
    <path d="M 105 246 Q 135 256 172 268 Q 191 243 202 211 L 131 222 Q 119 235 105 246 Z M 110 378 117 371 155 383 Q 156 387 156 393 L 155 401 Q 155 407 156 412 L 169 463 L 283 452 Q 286 452 290 451 Q 287 452 292 451 L 319 377 L 174 395 L 162 384 L 292 368 Q 302 367 309 363 Q 316 360 324 354 Q 328 352 331 355 L 358 376 Q 359 380 353 386 L 349 392 Q 365 392 348 394 Q 345 398 344 402 L 328 440 L 349 448 Q 349 453 341 456 Q 335 458 323 460 L 172 473 L 174 478 Q 176 487 171 493 Q 168 499 162 501 L 140 484 L 138 480 Q 141 472 139 466 L 123 407 Q 123 407 123 406 Q 122 400 119 392 Q 116 384 110 378 Z M 110 41 115 32 155 39 Q 156 42 156 46 V 55 L 166 94 L 169 93 Q 205 86 235 81 Q 236 81 238 80 Q 245 77 250 74 L 258 67 Q 260 65 263 65 L 290 74 Q 290 78 286 80 Q 283 83 274 86 Q 272 86 271 86 L 169 105 L 181 144 L 295 127 Q 298 125 301 118 L 331 24 L 175 49 L 163 40 L 193 35 Q 201 34 219 31 Q 279 21 308 16 Q 320 14 328 10 Q 330 8 335 5 Q 337 4 338 3 Q 343 0 347 3 L 369 22 Q 369 25 367 27 L 363 32 Q 358 37 357 41 L 326 138 Q 322 149 317 152 Q 312 156 305 156 L 287 140 L 184 155 Q 187 162 183 167 Q 181 172 175 174 L 149 161 L 147 154 Q 149 147 147 140 L 124 65 Q 122 58 119 50 Q 115 45 110 41 Z M 280 162 287 154 324 173 Q 324 174 324 175 Q 325 178 323 180 L 319 189 Q 319 190 319 190 Q 318 196 318 200 V 208 Q 343 210 373 218 Q 390 222 399 227 Q 410 232 414 243 Q 417 252 414 266 L 404 270 Q 384 253 366 241 Q 362 228 318 218 V 280 Q 318 288 314 295 Q 310 301 304 303 Q 411 326 511 326 L 512 335 Q 491 337 474 344 Q 460 351 449 363 Q 443 371 433 368 Q 337 347 255 317 Q 221 306 189 293 Q 172 311 149 328 Q 83 377 4 395 L 0 387 Q 80 359 132 313 Q 148 299 162 283 Q 128 268 96 253 Q 68 275 36 288 L 32 280 Q 57 264 83 237 Q 102 215 112 196 Q 119 182 117 169 L 125 162 L 157 178 Q 160 181 157 187 Q 151 199 142 210 L 191 202 Q 196 201 201 198 L 208 192 Q 213 187 217 190 L 241 207 Q 241 211 240 213 Q 238 217 235 219 Q 232 223 231 226 Q 221 251 202 277 Q 219 282 255 291 Q 262 293 265 294 Q 281 298 298 302 L 282 285 V 276 Q 287 272 287 261 V 195 Q 288 186 286 177 Q 284 167 280 162 Z" fill="black" />
  </g>
  <g class="defect" id="01">
    <path d="M 349 392 Q 365 392 348 394" fill="none" stroke="red" stroke-width="3" />
  </g>
  <g class="defect" id="02">
    <path d="M 366 241 Q 362 228 318 218" fill="none" stroke="red" stroke-width="3" />
  </g>
</svg>