<svg xmlns="http://www.w3.org/2000/svg" width="512" height="512" viewBox="0 0 512 512">
  <g class="glyph">
    <path d="M 0 378 7 370 Q 20 374 36 370 L 111 353 V 310 Q 111 300 109 292 Q 107 286 104 279 L 56 289 L 45 277 Q 57 277 70 274 Q 83 271 136 261 Q 148 258 152 257 Q 156 256 164 250 Q 165 249 166 249 Q 171 245 174 241 Q 176 238 179 239 L 202 251 Q 202 254 200 256 Q 194 261 183 263 L 118 276 L 146 290 L 142 306 Q 141 311 141 317 V 346 L 226 325 L 227 332 Q 196 351 33 407 Q 26 410 21 404 Z M 231 206 Q 254 182 267 153 Q 279 124 277 91 Q 277 78 274 55 Q 271 41 265 36 L 271 29 L 303 37 Q 311 35 330 31 Q 355 29 339 28 Q 346 26 351 22 L 358 16 Q 362 13 366 16 L 390 32 Q 390 37 387 38 L 383 44 Q 379 49 379 53 L 375 126 Q 374 143 390 144 Q 403 146 420 140 Q 410 137 433 128 L 443 126 L 454 145 Q 454 152 448 158 Q 442 164 424 167 Q 405 171 385 170 Q 342 169 346 121 L 351 36 L 305 46 Q 307 73 306 92 Q 306 130 288 161 Q 271 191 237 212 Z M 26 86 32 79 56 86 Q 76 65 102 23 Q 107 15 105 5 L 114 0 L 140 16 Q 143 18 138 25 Q 98 70 66 90 Q 67 94 66 97 L 65 103 Q 65 106 66 108 L 72 145 L 88 141 Q 91 140 95 136 Q 97 136 99 133 Q 100 131 101 131 Q 103 128 107 130 L 122 137 Q 122 141 121 142 Q 114 147 103 149 L 74 155 L 83 210 L 170 196 Q 178 193 179 180 L 185 137 L 146 143 L 136 132 L 186 124 L 193 69 L 141 79 L 131 68 L 182 59 Q 188 58 191 55 Q 196 52 201 48 Q 206 46 209 47 L 232 65 Q 232 66 232 67 Q 230 70 229 71 L 225 77 Q 223 80 221 86 L 207 198 Q 205 210 199 218 Q 194 224 185 226 L 170 208 L 85 220 L 84 227 Q 81 235 75 237 L 53 223 L 51 217 Q 53 211 52 202 L 37 108 Q 35 102 32 97 Q 30 91 26 86 Z M 196 401 Q 241 387 275 361 Q 298 343 316 318 L 276 282 Q 259 268 242 259 L 245 251 Q 266 258 289 272 Q 301 280 323 296 Q 327 298 328 300 Q 350 261 357 218 L 262 237 L 252 227 L 274 223 Q 278 223 288 220 Q 327 213 340 209 Q 348 208 355 203 Q 360 201 364 196 Q 369 193 372 195 L 400 212 Q 399 216 396 220 Q 392 224 390 227 Q 389 229 387 234 Q 387 236 386 238 Q 370 287 351 316 Q 357 319 361 323 Q 400 352 422 364 Q 463 388 512 402 L 510 410 Q 490 406 481 408 Q 469 410 456 420 Q 450 424 441 418 Q 399 393 337 336 Q 314 364 283 381 Q 250 402 200 409 Z" fill="black" />
  </g>
  <g class="defect" id="01">
    <path d="M 330 31 Q 355 29 339 28" fill="none" stroke="red" stroke-width="3" />
  </g>
  <g class="defect" id="02">
    <path d="M 420 140 Q 410 137 433 128" fill="none" stroke="red" stroke-width="3" />
  </g>
  <g class="defect" id="03">
    <path d="M 227 332 Q 196 351 33 407" fill="none" stroke="red" stroke-width="3" />
  </g>
</svg>