<svg xmlns="http://www.w3.org/2000/svg" width="512" height="512" viewBox="0 0 512 512">
  <g class="glyph">
    <path d="M 70 108 64 99 Q 79 86 83 72 Q 85 58 76 47 L 80 39 Q 96 37 109 41 Q 123 48 129 62 Q 133 75 123 84 Z M 6 148 13 139 65 162 Q 72 165 67 174 Q 59 184 58 196 Q 52 240 41 304 L 31 303 Q 30 264 26 221 Q 24 198 19 175 Q 15 156 6 148 Z M 322 392 326 383 Q 360 391 398 406 Q 432 420 452 436 Q 471 452 472 469 Q 473 482 463 496 H 450 Q 430 465 398 440 Q 366 414 322 392 Z M 0 431 5 419 Q 19 420 28 409 Q 75 337 119 263 L 128 267 Q 92 351 66 405 Q 56 426 55 452 Q 53 464 42 459 Z M 175 165 184 158 226 179 224 188 Q 224 188 224 190 Q 222 196 221 200 Q 220 204 220 211 V 371 Q 220 383 216 391 Q 211 399 204 402 L 181 375 V 365 Q 172 369 187 342 V 205 Q 170 177 186 186 Q 184 177 175 165 Z M 129 505 Q 203 471 243 427 Q 278 386 286 335 Q 288 322 288 306 Q 289 297 289 288 Q 289 279 289 261 Q 289 251 286 244 Q 283 234 276 228 L 283 221 L 320 232 Q 325 234 326 240 Q 314 289 324 298 Q 323 321 320 339 Q 307 405 261 448 Q 212 492 134 512 Z M 263 7 272 0 313 23 312 30 Q 310 35 309 40 Q 307 45 307 53 V 81 L 373 68 Q 379 66 391 60 L 405 49 Q 406 48 411 48 L 438 59 Q 438 63 437 64 Q 430 71 417 72 L 307 92 V 154 L 370 142 Q 378 141 385 136 Q 393 132 397 128 Q 401 125 404 128 L 434 147 Q 433 151 431 154 Q 429 156 427 163 Q 425 166 425 175 V 357 Q 425 367 419 375 Q 414 383 406 385 L 385 357 V 347 Q 392 341 393 331 V 151 L 240 178 L 226 168 L 274 160 V 52 Q 274 41 272 29 Q 269 17 263 7 Z" fill="black" />
  </g>
  <g class="defect" id="01">
    <path d="M 181 365 Q 172 369 187 342" fill="none" stroke="red" stroke-width="3" />
  </g>
  <g class="defect" id="02">
    <path d="M 326 240 Q 314 289 324 298" fill="none" stroke="red" stroke-width="3" />
  </g>
  <g class="defect" id="03">
    <path d="M 187 205 Q 170 177 186 186" fill="none" stroke="red" stroke-width="3" />
  </g>
</svg>