<svg xmlns="http://www.w3.org/2000/svg" width="512" height="512" viewBox="0 0 512 512">
  <g class="glyph">
    <path d="M 192 220 Q 205 220 216 218 Q 259 212 284 207 Q 292 207 300 202 Q 308 198 314 192 Q 317 190 320 191 L 346 202 Q 346 205 344 206 Q 338 211 325 212 L 203 232 Z M 79 112 74 104 Q 87 92 90 78 Q 93 66 84 55 L 89 48 Q 101 45 115 50 Q 128 56 133 69 Q 136 81 128 89 Z M 22 150 28 142 75 163 Q 82 166 77 174 Q 71 183 69 195 Q 63 235 53 294 L 45 293 Q 43 252 40 217 Q 39 197 33 175 Q 30 159 22 150 Z M 0 393 5 385 Q 18 387 28 378 Q 76 327 122 275 L 130 280 Q 100 326 63 380 Q 51 399 46 422 Q 43 432 34 426 Z M 148 417 156 411 Q 166 418 174 417 Q 197 394 213 365 Q 202 374 229 334 Q 232 328 233 326 Q 236 317 236 308 L 138 321 L 127 310 Q 141 310 162 306 L 353 279 Q 369 277 381 270 L 397 259 Q 400 257 403 258 L 433 271 Q 433 276 428 277 Q 422 281 408 283 L 253 305 L 274 318 Q 278 321 275 326 Q 258 350 237 373 Q 213 400 192 416 Q 265 408 343 396 Q 323 368 308 352 L 314 346 Q 352 367 378 393 Q 390 406 397 420 Q 403 433 399 447 Q 396 459 388 467 H 377 Q 370 442 352 411 L 348 404 L 178 450 Q 166 455 162 446 Z M 96 258 Q 156 210 202 145 Q 241 90 255 39 Q 258 27 256 20 Q 254 11 250 7 L 258 0 L 296 17 Q 301 21 300 27 Q 282 66 283 69 Q 324 115 380 152 Q 445 195 512 212 L 510 220 Q 491 216 476 219 Q 463 222 450 230 Q 444 236 435 231 Q 392 203 353 167 Q 311 127 277 81 Q 255 122 221 162 Q 166 224 101 262 Z" fill="black" />
  </g>
  <g class="defect" id="01">
    <path d="M 300 27 Q 282 66 283 69" fill="none" stroke="red" stroke-width="3" />
  </g>
  <g class="defect" id="02">
    <path d="M 213 365 Q 202 374 229 334" fill="none" stroke="red" stroke-width="3" />
  </g>
</svg>