<svg xmlns="http://www.w3.org/2000/svg" width="512" height="512" viewBox="0 0 512 512">
  <g class="glyph">
    <path d="M 53 118 46 107 Q 63 93 66 77 Q 69 63 59 51 L 64 42 Q 77 37 94 45 Q 108 53 114 64 Q 122 79 109 90 Z M 1 162 8 151 63 176 Q 71 179 65 188 Q 57 198 55 212 Q 53 222 51 240 Q 44 299 37 334 L 27 333 Q 26 297 21 239 Q 20 215 14 190 Q 11 170 1 162 Z M 0 451 4 440 Q 20 439 29 426 Q 87 330 119 274 L 129 279 L 70 422 Q 60 446 59 473 Q 58 486 46 480 Z M 217 214 Q 242 198 263 179 Q 283 164 295 151 Q 301 143 301 135 L 235 145 L 224 133 Q 227 132 235 132 Q 251 130 259 129 Q 303 122 356 114 Q 366 113 376 105 L 391 95 Q 394 93 397 94 L 430 107 Q 430 110 427 113 Q 418 119 405 120 L 316 133 L 337 151 Q 339 154 337 158 Q 301 185 282 194 Q 309 205 332 229 Q 339 238 345 247 Q 357 237 369 221 Q 378 210 384 196 Q 391 182 385 172 L 394 165 L 422 182 Q 430 188 423 196 Q 407 216 387 232 Q 371 246 352 257 Q 356 265 359 272 Q 383 277 403 285 Q 422 293 433 305 Q 440 312 441 325 Q 442 336 435 344 L 425 345 Q 412 326 397 310 Q 383 297 363 286 Q 366 295 369 312 Q 369 314 369 314 Q 373 364 355 399 Q 340 427 311 433 Q 321 421 300 410 Q 291 400 272 394 L 276 385 Q 290 391 306 394 Q 319 396 325 385 Q 336 361 336 329 Q 336 300 330 279 Q 316 307 288 335 Q 259 364 221 389 L 215 380 Q 235 349 274 317 Q 299 284 315 245 L 312 241 Q 307 233 300 226 Q 290 243 271 264 Q 251 286 224 304 L 218 297 Q 241 274 257 248 Q 271 227 279 207 L 271 200 Q 248 212 220 222 Z M 159 49 168 41 210 65 205 85 Q 203 91 203 98 V 461 Q 206 461 210 459 L 457 438 Q 463 433 463 422 V 32 L 231 59 L 218 46 L 248 44 Q 267 42 303 38 Q 390 28 444 21 Q 454 20 466 11 L 476 3 Q 480 0 483 3 L 512 25 Q 512 30 509 33 L 501 44 Q 498 51 498 59 V 465 Q 498 481 492 492 Q 485 501 473 504 L 448 453 L 203 475 V 481 Q 203 492 196 500 Q 190 508 182 511 L 162 484 V 474 Q 168 469 168 455 V 90 Q 168 78 166 68 Q 164 58 159 49 Z" fill="black" />
  </g>
  <g class="defect" id="01">
    <path d="M 311 433 Q 321 421 300 410" fill="none" stroke="red" stroke-width="3" />
  </g>
  <g class="defect" id="02">
    <path d="M 215 380 Q 235 349 274 317" fill="none" stroke="red" stroke-width="3" />
  </g>
</svg>