<svg xmlns="http://www.w3.org/2000/svg" width="512" height="512" viewBox="0 0 512 512">
  <g class="glyph">
    <path d="M 139 386 146 380 Q 172 390 194 409 Q 204 418 208 430 Q 211 441 206 450 Q 202 458 193 464 L 179 464 Q 177 448 166 425 Q 158 410 139 386 Z M 263 378 270 371 Q 289 377 314 398 Q 329 413 333 424 Q 335 433 331 444 Q 328 450 317 458 L 304 458 Q 300 437 289 417 Q 278 396 263 378 Z M 0 455 2 446 Q 33 450 29 414 Q 41 392 48 367 L 58 368 Q 60 403 52 432 Q 44 467 24 485 L 12 483 Z M 397 366 402 358 Q 441 370 467 386 Q 486 398 496 409 Q 509 423 509 439 Q 512 454 500 469 H 487 Q 473 443 451 416 Q 428 391 397 366 Z M 247 225 254 215 296 228 295 236 Q 295 241 295 246 L 308 302 L 386 290 L 405 217 L 311 234 L 301 221 Q 308 221 322 219 Q 326 218 328 218 Q 333 217 344 215 Q 378 209 395 206 Q 399 206 408 200 Q 412 198 418 194 Q 418 194 418 194 Q 422 190 426 194 L 450 213 Q 451 215 449 218 Q 447 221 443 224 Q 443 225 442 225 Q 438 230 436 236 L 425 278 L 441 288 Q 441 292 436 294 Q 432 296 423 297 Q 421 298 420 298 L 310 314 Q 310 318 309 322 Q 306 330 297 333 L 272 318 L 270 308 Q 274 304 273 296 L 261 246 Q 258 239 255 235 Q 253 231 247 225 Z M 207 214 Q 245 184 270 147 Q 289 118 301 80 Q 306 64 299 50 L 255 56 L 243 44 Q 256 43 274 41 Q 276 40 282 39 Q 371 26 403 20 Q 411 19 422 12 Q 428 8 433 3 Q 437 0 442 3 L 471 22 Q 471 23 470 24 Q 469 27 469 29 L 460 38 Q 457 41 455 48 Q 437 114 422 151 Q 414 170 402 179 Q 390 189 371 187 Q 371 173 363 162 Q 355 153 343 145 L 348 135 Q 350 136 353 137 Q 367 144 375 145 Q 385 147 390 136 Q 409 88 422 29 L 318 46 L 340 61 Q 346 67 342 73 Q 323 126 294 160 Q 267 193 214 222 Z M 43 48 52 40 94 62 92 72 Q 92 73 91 75 Q 90 77 90 81 Q 88 91 88 96 L 89 164 L 107 160 Q 113 158 118 154 Q 122 151 126 147 Q 128 145 132 145 L 154 156 Q 154 160 151 162 Q 145 166 134 168 L 90 175 L 92 287 Q 115 284 158 277 Q 164 274 164 263 L 167 45 L 109 58 L 97 48 Q 121 43 147 37 Q 151 35 160 32 Q 162 31 163 31 Q 166 29 171 24 Q 172 23 172 22 Q 177 19 181 21 L 211 43 Q 211 46 208 52 L 203 60 Q 201 66 200 71 L 197 286 Q 197 301 190 308 Q 183 316 171 320 L 152 291 L 92 299 Q 90 308 87 314 Q 80 323 71 325 L 51 301 V 292 Q 58 285 58 274 L 54 90 Q 54 77 52 67 Q 50 58 43 48 Z" fill="black" />
  </g>
  <g class="defect" id="01">
    <path d="M 2 446 Q 33 450 29 414" fill="none" stroke="red" stroke-width="3" />
  </g>
</svg>