<svg xmlns="http://www.w3.org/2000/svg" width="512" height="512" viewBox="0 0 512 512">
  <g class="glyph">
    <path d="M 169 272 175 265 Q 196 274 206 283 Q 217 292 220 302 Q 224 312 219 322 Q 216 328 210 333 L 199 332 Q 196 317 188 301 Q 181 286 169 272 Z M 300 303 Q 327 289 346 274 Q 363 260 369 252 Q 376 245 374 233 L 384 229 L 407 256 Q 410 260 405 264 Q 388 277 359 290 Q 318 301 305 311 Z M 110 443 Q 177 420 210 384 Q 243 350 254 296 Q 261 261 263 211 Q 263 204 261 197 Q 259 190 254 184 L 261 177 L 293 190 Q 297 191 297 198 Q 293 265 282 304 Q 328 352 380 384 Q 443 422 512 436 L 510 445 Q 494 443 479 448 Q 471 452 459 460 Q 450 466 440 461 Q 393 436 354 402 Q 328 365 278 319 Q 263 367 227 399 Q 187 434 115 450 Z M 0 427 Q 59 382 108 306 Q 149 242 177 169 Q 183 155 187 141 L 89 154 L 79 143 Q 92 143 112 140 L 190 130 Q 203 83 209 40 Q 210 32 206 20 Q 204 13 199 7 L 206 0 L 246 17 Q 251 20 249 25 Q 241 77 227 125 L 327 111 Q 340 109 353 103 Q 368 111 366 94 Q 369 91 371 90 Q 375 88 376 89 L 405 102 Q 404 105 401 107 Q 395 113 380 114 L 223 136 Q 217 157 209 178 Q 176 261 127 325 Q 76 394 6 433 Z" fill="black" />
  </g>
  <g class="defect" id="01">
    <path d="M 359 290 Q 318 301 305 311" fill="none" stroke="red" stroke-width="3" />
  </g>
  <g class="defect" id="02">
    <path d="M 354 402 Q 328 365 278 319" fill="none" stroke="red" stroke-width="3" />
  </g>
  <g class="defect" id="03">
    <path d="M 353 103 Q 368 111 366 94" fill="none" stroke="red" stroke-width="3" />
  </g>
</svg>