<svg xmlns="http://www.w3.org/2000/svg" width="512" height="512" viewBox="0 0 512 512">
  <g class="glyph">
    <path d="M 385 291 394 232 335 239 V 297 Z M 335 229 396 222 405 163 310 177 342 194 Q 342 197 340 201 Q 340 202 340 202 L 336 211 Q 335 215 335 221 Z M 0 345 Q 42 313 84 264 Q 121 219 135 185 Q 134 159 130 145 L 128 143 Q 86 185 33 212 L 28 206 Q 77 170 118 120 Q 110 109 97 100 Q 82 91 64 94 Q 57 96 51 90 L 35 73 L 39 66 Q 73 68 97 76 Q 119 83 134 99 Q 154 73 161 52 Q 168 39 163 25 L 171 19 L 199 36 Q 203 39 201 45 Q 184 80 148 121 Q 155 135 159 152 Q 163 174 163 212 V 347 Q 163 393 148 418 Q 135 438 113 438 Q 114 423 107 417 Q 98 407 80 401 L 82 393 Q 98 397 109 397 Q 121 398 128 382 Q 135 368 135 348 V 234 Q 119 257 98 278 Q 52 324 5 351 Z M 209 180 231 177 Q 234 177 238 177 Q 287 170 315 165 Q 342 122 363 81 L 295 96 L 290 89 Q 256 134 213 165 L 207 160 Q 260 136 267 84 Q 280 60 292 29 Q 295 15 288 5 L 297 0 L 329 18 Q 331 19 330 24 Q 314 55 293 85 L 353 72 Q 357 72 361 68 Q 366 66 370 62 Q 374 59 377 61 L 401 81 Q 399 86 396 89 Q 389 94 386 97 Q 357 134 328 164 L 389 155 Q 396 155 403 151 L 415 143 Q 420 139 423 142 L 443 157 Q 443 160 441 162 L 436 168 Q 434 172 434 177 L 426 218 Q 431 218 436 217 Q 449 215 460 209 Q 469 205 477 199 Q 480 198 482 198 L 512 211 Q 510 216 509 217 Q 502 221 488 222 L 424 229 L 417 278 L 439 288 Q 436 292 433 294 Q 427 297 419 298 L 335 307 V 424 Q 335 440 326 451 Q 317 461 300 462 Q 298 447 292 439 Q 282 428 266 421 L 269 413 Q 282 417 294 417 Q 305 416 305 401 V 310 L 213 320 L 202 310 L 305 300 V 243 L 186 256 L 176 246 L 305 232 V 214 Q 306 205 304 196 Q 303 190 298 178 L 219 189 Z" fill="black" />
  </g>
  <g class="defect" id="01">
    <path d="M 207 160 Q 260 136 267 84" fill="none" stroke="red" stroke-width="3" />
  </g>
</svg>