<svg xmlns="http://www.w3.org/2000/svg" width="512" height="512" viewBox="0 0 512 512">
  <g class="glyph">
    <path d="M 292 161 325 156 328 95 287 104 Z M 252 218 259 212 295 230 293 236 Q 291 241 290 247 Q 290 253 290 259 V 281 L 314 277 Q 325 276 331 271 Q 334 269 340 263 Q 342 262 343 261 Q 346 259 349 259 L 374 271 Q 374 274 372 276 Q 368 280 355 282 L 290 293 V 342 Q 302 340 315 338 Q 325 337 332 331 Q 337 329 345 322 Q 348 320 350 320 L 376 332 Q 375 334 372 337 Q 368 342 356 343 L 290 354 V 436 Q 290 446 285 455 Q 279 464 269 465 L 253 447 V 438 Q 258 433 258 425 V 255 Q 258 243 257 235 Q 256 225 252 218 Z M 299 217 321 213 Q 342 210 376 202 Q 384 200 390 195 Q 397 192 400 188 Q 403 186 407 188 L 431 207 Q 431 209 429 212 Q 429 212 429 213 L 424 219 Q 423 224 422 230 V 432 Q 423 451 413 465 Q 404 478 386 478 Q 386 466 377 456 Q 367 445 349 440 L 351 432 Q 354 432 358 433 Q 370 435 378 436 Q 390 436 390 422 V 210 L 308 226 Z M 242 40 249 31 288 45 Q 288 48 287 51 Q 285 56 285 60 Q 285 62 285 63 Q 284 69 285 72 L 287 94 Q 306 90 312 88 Q 318 87 326 82 L 335 74 Q 339 72 342 74 L 361 88 Q 361 91 358 94 L 354 100 Q 352 103 352 109 L 349 152 L 380 147 L 396 25 L 304 45 L 294 35 Q 292 20 318 31 Q 348 24 381 15 Q 387 14 397 8 L 406 2 Q 410 0 413 2 L 437 24 Q 436 27 434 31 L 426 41 Q 423 45 422 53 L 409 142 L 450 135 Q 459 134 466 128 L 478 120 Q 482 118 485 120 L 512 148 Q 511 152 505 154 L 493 160 Q 492 161 490 163 Q 483 167 479 172 Q 477 173 475 175 Q 460 188 451 198 L 444 193 L 470 143 L 221 186 Q 221 194 221 201 Q 219 226 207 242 L 196 244 L 183 223 V 215 Q 192 204 198 187 Q 204 172 205 152 L 214 151 Q 215 152 215 155 Q 218 167 219 173 L 264 166 L 255 70 Q 254 60 251 51 Z M 0 348 Q 41 313 77 267 Q 118 215 132 181 Q 132 163 128 145 L 125 137 Q 86 175 24 205 L 20 198 Q 76 162 114 116 Q 107 105 96 97 Q 79 86 60 89 Q 53 91 46 85 L 29 66 L 33 59 Q 68 61 93 70 Q 117 77 131 92 Q 149 65 158 38 Q 163 26 160 14 L 169 9 L 195 27 Q 199 29 196 36 Q 169 86 146 114 Q 154 131 158 150 Q 163 175 163 213 V 366 Q 145 400 146 438 Q 132 460 111 459 Q 111 444 103 436 Q 91 426 75 420 L 77 411 L 81 412 Q 98 415 106 415 Q 118 415 126 400 Q 133 386 133 364 V 231 Q 112 261 87 287 Q 45 329 5 355 Z" fill="black" />
  </g>
  <g class="defect" id="01">
    <path d="M 163 366 Q 145 400 146 438" fill="none" stroke="red" stroke-width="3" />
  </g>
  <g class="defect" id="02">
    <path d="M 294 35 Q 292 20 318 31" fill="none" stroke="red" stroke-width="3" />
  </g>
</svg>