<svg xmlns="http://www.w3.org/2000/svg" width="512" height="512" viewBox="0 0 512 512">
  <g class="glyph">
    <path d="M 244 463 Q 300 421 329 370 Q 358 317 364 235 Q 368 188 363 124 Q 363 114 361 106 Q 358 95 351 87 L 359 78 L 391 91 Q 395 93 395 100 Q 398 150 397 182 L 409 180 Q 417 179 424 175 Q 429 172 433 168 Q 435 166 438 167 L 459 178 Q 459 181 457 183 Q 450 187 439 189 L 397 193 Q 397 214 395 234 Q 393 255 390 274 L 405 273 Q 414 271 421 269 L 431 262 Q 432 260 435 261 L 457 273 Q 456 275 454 277 Q 450 281 438 282 Q 437 282 436 282 L 388 286 Q 378 342 351 384 Q 316 436 249 470 Z M 401 86 Q 436 78 459 71 Q 463 70 468 65 Q 469 65 470 64 Q 472 63 476 60 Q 477 58 479 57 Q 482 55 486 56 L 512 73 Q 511 75 510 78 L 506 87 Q 503 92 503 99 V 422 Q 503 443 492 455 Q 481 467 465 467 Q 465 456 456 447 Q 433 426 431 433 L 432 425 Q 449 429 457 428 Q 471 427 471 413 V 81 L 410 96 Z M 185 178 249 166 V 50 Q 249 38 246 27 L 246 24 Q 245 22 244 17 Q 242 9 241 7 L 249 0 L 284 26 L 280 38 Q 278 42 278 47 L 277 58 V 160 L 293 158 Q 299 157 307 152 Q 311 149 319 143 Q 320 143 320 142 Q 321 141 325 141 L 347 150 Q 348 155 344 157 Q 336 162 326 164 L 277 173 V 246 L 286 244 Q 311 262 298 240 Q 302 239 304 237 Q 308 232 312 235 L 330 250 Q 332 252 329 254 L 323 260 Q 323 262 322 266 Q 321 268 321 269 L 316 314 L 328 320 Q 328 322 325 324 L 230 343 L 232 349 Q 234 357 230 364 Q 227 370 221 372 L 200 361 L 199 354 Q 203 350 202 342 L 192 277 Q 191 271 189 266 Q 188 262 184 257 L 189 248 L 222 260 L 221 266 Q 221 268 221 271 Q 221 272 221 273 Q 221 277 222 282 L 229 332 Q 266 325 286 322 L 294 254 L 235 266 L 226 257 L 249 252 V 178 L 195 189 Z M 0 354 Q 38 325 73 280 Q 101 244 123 200 Q 123 180 120 159 Q 81 196 16 226 L 12 218 Q 74 179 113 131 Q 103 106 83 91 Q 64 79 46 83 Q 38 85 31 78 L 13 60 L 17 52 Q 56 54 81 63 Q 110 73 126 96 L 132 105 Q 144 85 153 65 Q 153 65 154 64 Q 157 57 158 49 Q 158 44 157 35 L 165 28 L 194 48 Q 200 52 196 58 Q 172 102 144 134 L 148 146 Q 153 172 153 216 V 369 Q 153 420 137 447 Q 122 471 97 471 Q 98 456 90 447 Q 77 435 60 429 L 63 421 Q 64 421 65 422 Q 81 425 92 425 Q 106 426 115 411 Q 123 396 123 370 V 253 Q 105 277 85 298 Q 51 337 5 360 Z" fill="black" />
  </g>
  <g class="defect" id="01">
    <path d="M 456 447 Q 433 426 431 433" fill="none" stroke="red" stroke-width="3" />
  </g>
  <g class="defect" id="02">
    <path d="M 286 244 Q 311 262 298 240" fill="none" stroke="red" stroke-width="3" />
  </g>
</svg>