<svg xmlns="http://www.w3.org/2000/svg" width="512" height="512" viewBox="0 0 512 512">
  <g class="glyph">
    <path d="M 230 7 235 0 Q 237 1 241 1 Q 257 4 265 6 Q 283 12 292 21 Q 300 27 300 40 Q 300 50 293 59 L 281 61 Q 270 41 260 32 Q 250 20 230 7 Z M 33 154 38 147 Q 57 154 73 167 Q 84 174 91 185 Q 96 195 94 205 Q 93 212 84 221 L 73 222 Q 69 207 57 186 Q 43 162 33 154 Z M 166 105 Q 184 103 201 101 Q 281 89 354 77 Q 363 76 372 69 L 385 59 Q 388 57 390 59 L 416 70 Q 416 73 414 74 Q 406 80 396 82 L 176 116 Z M 0 302 4 293 Q 15 294 28 290 L 122 248 L 126 224 Q 130 178 130 133 Q 130 122 127 113 Q 124 106 118 100 L 125 93 L 157 107 Q 160 108 160 114 Q 160 178 153 229 Q 144 308 115 363 Q 81 429 21 464 L 15 458 Q 66 414 93 353 Q 111 313 120 262 L 31 323 Q 23 328 18 323 Z M 162 246 Q 223 215 251 179 Q 258 172 257 164 L 204 173 L 194 164 L 225 159 Q 281 150 315 143 Q 324 141 332 135 L 344 126 Q 345 124 348 126 L 374 135 Q 374 137 372 140 Q 366 145 355 147 L 269 162 L 287 179 Q 291 185 286 190 Q 268 204 249 216 Q 285 239 304 268 L 317 277 Q 354 240 369 201 Q 374 189 368 181 L 376 174 L 402 191 Q 408 195 404 201 Q 374 249 324 283 Q 360 310 391 327 Q 454 360 512 374 L 511 382 Q 493 381 479 386 Q 467 390 460 397 Q 454 404 445 398 Q 399 367 369 341 Q 349 326 317 294 Q 330 333 330 378 Q 326 438 301 465 Q 286 480 262 480 Q 264 470 255 457 Q 243 445 232 438 L 236 431 Q 242 435 257 442 Q 262 445 265 446 Q 275 450 282 441 Q 311 402 300 374 Q 301 334 295 310 Q 270 345 241 372 Q 197 412 135 436 L 132 429 Q 188 397 229 353 Q 260 320 284 277 Q 278 263 267 250 Q 247 276 222 300 Q 223 301 225 303 Q 228 307 229 308 Q 235 317 233 328 Q 230 335 226 342 H 215 L 215 340 Q 214 338 213 335 Q 208 321 204 316 Q 177 340 136 362 L 131 355 Q 165 333 195 301 Q 186 291 174 282 L 179 275 Q 192 279 207 287 Q 229 262 249 230 L 240 222 Q 205 242 165 254 Z" fill="black" />
  </g>
  <g class="defect" id="01">
    <path d="M 282 441 Q 311 402 300 374" fill="none" stroke="red" stroke-width="3" />
  </g>
</svg>