<svg xmlns="http://www.w3.org/2000/svg" width="512" height="512" viewBox="0 0 512 512">
  <g class="glyph">
    <path d="M 26 222 Q 70 166 99 112 Q 117 75 129 39 Q 133 29 131 21 Q 131 14 127 7 L 136 0 L 172 16 Q 177 20 175 28 Q 148 87 127 120 Q 117 135 102 156 L 201 130 Q 213 127 220 122 L 233 110 Q 236 107 240 108 L 269 119 Q 270 123 264 126 Q 257 131 244 133 L 87 175 Q 64 202 33 229 Z M 0 469 Q 67 425 104 366 Q 132 320 142 268 L 16 293 L 3 282 L 144 255 Q 147 226 147 202 Q 146 185 137 174 L 148 166 L 179 179 Q 185 182 184 190 Q 182 228 179 248 L 219 239 Q 229 236 239 230 Q 243 227 251 220 Q 253 219 253 218 Q 257 216 259 217 L 288 228 Q 289 233 285 234 Q 279 240 266 242 L 177 261 Q 176 264 176 267 Q 173 288 167 307 Q 204 318 237 338 Q 253 347 263 362 Q 274 379 272 393 Q 270 402 263 409 L 250 412 Q 240 387 221 365 Q 199 339 163 318 Q 150 351 122 388 Q 79 441 5 477 Z M 285 175 292 165 337 180 Q 337 182 337 186 Q 337 187 337 188 Q 335 192 335 198 Q 337 207 337 211 L 347 343 L 355 342 Q 362 349 411 334 Q 424 332 430 331 Q 431 331 433 330 Q 438 330 441 329 L 462 165 L 357 185 L 345 173 Q 359 172 371 170 L 437 157 Q 449 155 456 150 Q 466 145 474 139 Q 479 137 482 139 L 511 163 Q 512 166 510 169 Q 509 171 509 171 L 499 180 Q 494 185 494 191 L 477 318 L 500 328 Q 500 333 497 334 Q 491 336 477 338 Q 474 339 473 339 L 349 356 Q 349 366 346 374 Q 342 381 331 385 L 310 367 L 307 358 Q 313 351 311 341 L 300 207 Q 299 196 295 189 Q 291 179 285 175 Z" fill="black" />
  </g>
  <g class="defect" id="01">
    <path d="M 355 342 Q 362 349 411 334" fill="none" stroke="red" stroke-width="3" />
  </g>
</svg>