<svg xmlns="http://www.w3.org/2000/svg" width="512" height="512" viewBox="0 0 512 512">
  <g class="glyph">
    <path d="M 89 7 94 0 Q 118 5 137 15 Q 165 37 156 31 Q 163 40 160 54 Q 159 61 152 69 L 140 70 Q 132 55 120 39 Q 104 17 89 7 Z M 14 151 22 143 Q 37 148 53 146 L 155 124 Q 156 115 153 108 L 161 100 L 190 118 Q 197 121 194 129 Q 178 160 159 190 Q 190 201 208 212 Q 223 222 227 232 Q 234 246 227 258 Q 225 264 220 268 H 209 Q 198 244 188 231 Q 178 214 155 197 L 137 225 L 167 242 L 165 250 Q 163 254 162 258 Q 160 264 160 270 V 408 Q 160 418 156 424 Q 152 431 143 432 L 124 409 V 400 Q 129 396 130 385 V 262 Q 130 255 128 246 L 126 239 L 118 249 Q 70 310 6 355 L 0 348 Q 55 296 97 233 Q 130 186 152 135 L 45 183 Q 37 187 32 179 Z M 258 88 266 79 301 100 Q 301 102 300 105 Q 300 105 299 105 Q 299 107 299 108 Q 298 111 296 117 Q 296 122 296 129 V 171 L 317 168 Q 325 167 332 162 L 342 154 Q 344 152 346 153 L 369 165 Q 369 167 366 169 Q 360 173 349 175 L 296 182 V 255 Q 307 254 317 252 Q 324 251 331 246 Q 337 243 341 239 Q 344 237 346 238 L 369 249 Q 369 252 366 254 Q 360 257 349 259 L 296 266 V 347 L 386 337 V 83 L 314 96 L 304 85 Q 315 84 326 82 Q 358 77 372 73 Q 377 73 383 68 L 394 59 Q 397 58 401 59 L 424 76 L 421 83 Q 420 86 418 89 Q 416 92 416 100 V 334 Q 422 334 427 333 Q 446 331 458 325 Q 467 320 475 314 Q 476 312 480 313 L 512 329 Q 510 333 508 334 Q 500 339 485 339 L 186 369 L 175 358 Q 190 358 210 356 L 265 351 V 124 Q 265 120 264 105 Q 262 92 258 88 Z" fill="black" />
  </g>
  <g class="defect" id="01">
    <path d="M 137 15 Q 165 37 156 31" fill="none" stroke="red" stroke-width="3" />
  </g>
</svg>