<svg xmlns="http://www.w3.org/2000/svg" width="512" height="512" viewBox="0 0 512 512">
  <g class="glyph">
    <path d="M 256 374 261 366 Q 282 371 293 377 Q 306 383 310 391 Q 315 398 313 409 Q 311 418 307 424 L 295 426 Q 289 414 277 397 Q 267 385 256 374 Z M 338 365 343 357 Q 367 361 380 369 Q 391 375 395 385 Q 380 376 397 402 Q 395 410 391 416 L 378 418 Q 371 404 360 389 Q 350 376 338 365 Z M 228 50 233 42 Q 273 31 275 55 Q 286 61 290 69 Q 295 78 292 89 Q 290 97 285 103 L 273 105 Q 265 90 255 77 Q 242 62 228 50 Z M 171 424 Q 172 416 182 408 Q 199 392 209 364 L 218 365 Q 218 390 212 414 Q 205 445 195 460 L 184 459 Q 180 456 175 440 Q 171 428 171 424 Z M 79 21 84 14 Q 109 19 130 30 Q 144 36 150 46 Q 157 56 154 71 Q 152 78 146 86 L 132 88 Q 124 71 112 55 Q 96 34 79 21 Z M 427 363 433 355 Q 455 365 480 381 Q 499 395 504 404 Q 512 417 509 432 Q 507 441 502 448 L 489 450 Q 479 428 465 406 Q 449 385 427 363 Z M 317 110 Q 355 75 382 27 Q 387 18 382 8 L 391 0 L 422 20 Q 426 24 424 28 Q 377 87 324 117 Z M 216 161 247 157 Q 323 145 358 140 Q 369 138 376 132 Q 378 131 380 129 Q 388 124 391 121 Q 394 119 396 120 L 425 133 Q 423 138 421 140 Q 416 143 403 145 L 315 159 L 346 175 L 344 182 Q 342 188 341 192 Q 339 198 339 205 V 228 L 350 226 Q 360 224 367 219 Q 372 215 381 209 Q 382 209 382 208 Q 385 205 389 207 L 417 220 Q 414 226 410 228 Q 404 232 394 233 L 339 241 V 312 L 397 305 Q 414 303 426 295 Q 431 293 439 286 Q 442 284 443 283 Q 446 282 450 282 L 482 299 Q 482 303 478 305 Q 470 309 454 311 L 193 341 L 182 329 Q 201 329 220 326 L 306 317 V 246 L 255 253 L 243 241 L 306 233 V 196 Q 306 186 304 177 Q 302 169 298 162 L 228 173 Z M 8 356 Q 66 297 104 229 Q 128 188 143 152 L 32 201 Q 23 204 19 198 L 0 167 L 8 158 Q 24 165 41 162 Q 65 157 131 143 Q 141 141 147 140 Q 147 130 144 123 L 153 116 L 184 134 Q 191 138 188 145 L 182 154 Q 166 186 149 215 Q 178 221 195 232 Q 205 238 211 247 Q 217 257 216 268 Q 214 278 208 286 L 196 286 Q 187 269 174 252 Q 162 238 143 224 Q 136 236 128 247 L 123 254 L 153 270 L 151 278 Q 149 283 148 287 Q 147 293 147 300 V 434 Q 147 445 141 450 Q 138 457 127 458 L 108 433 V 424 Q 113 420 114 409 V 292 Q 114 285 112 276 L 110 270 Q 67 324 14 362 Z" fill="black" />
  </g>
  <g class="defect" id="01">
    <path d="M 395 385 Q 380 376 397 402" fill="none" stroke="red" stroke-width="3" />
  </g>
  <g class="defect" id="02">
    <path d="M 233 42 Q 273 31 275 55" fill="none" stroke="red" stroke-width="3" />
  </g>
</svg>