<svg xmlns="http://www.w3.org/2000/svg" width="512" height="512" viewBox="0 0 512 512">
  <g class="glyph">
    <path d="M 117 132 121 124 Q 138 124 158 132 Q 169 136 174 145 Q 178 150 177 159 Q 175 165 170 171 L 159 173 Q 152 161 142 152 Q 133 143 117 132 Z M 299 110 301 101 Q 338 86 345 107 Q 358 112 365 119 Q 370 125 370 133 Q 369 141 364 147 L 352 149 Q 342 136 329 127 Q 316 117 299 110 Z M 43 169 Q 72 136 91 101 Q 102 79 112 53 Q 117 41 113 29 L 122 22 L 153 37 Q 161 40 157 47 L 142 72 Q 162 70 181 67 Q 188 66 195 61 Q 203 57 207 52 Q 209 50 212 51 L 239 63 Q 239 68 234 69 Q 230 72 220 73 Q 218 74 217 74 L 133 85 Q 125 97 116 108 Q 87 145 49 175 Z M 211 142 Q 234 114 253 75 Q 254 74 254 72 Q 265 49 270 33 Q 275 19 270 8 L 279 0 L 309 14 Q 317 18 312 27 Q 306 41 298 54 L 366 45 Q 371 44 379 40 Q 380 40 382 39 L 393 30 Q 395 28 398 29 L 425 41 Q 424 46 418 49 L 403 52 L 290 66 Q 284 76 277 86 Q 249 124 217 148 Z M 261 248 268 242 304 276 Q 339 314 371 343 Q 402 372 437 394 Q 474 416 512 432 L 510 440 Q 485 433 474 435 Q 461 435 441 443 Q 432 446 425 441 Q 387 411 346 359 Q 331 340 300 300 Q 293 290 289 286 Q 286 282 281 274 Q 268 256 261 248 Z M 0 463 Q 44 435 75 393 Q 103 358 118 314 Q 130 281 131 247 Q 132 239 128 228 Q 126 222 121 216 L 128 208 L 158 222 Q 194 216 230 201 Q 261 189 285 174 Q 296 164 298 153 L 308 150 L 331 180 Q 336 187 329 190 Q 289 207 244 218 Q 235 220 226 222 L 247 233 L 245 241 Q 244 245 243 250 Q 241 255 241 262 V 463 Q 241 475 236 480 Q 232 485 222 486 L 205 463 V 454 Q 210 450 210 440 V 256 Q 210 245 208 236 L 205 226 Q 184 230 164 232 Q 164 278 147 320 Q 128 372 88 412 Q 53 447 5 469 Z" fill="black" />
  </g>
  <g class="defect" id="01">
    <path d="M 301 101 Q 338 86 345 107" fill="none" stroke="red" stroke-width="3" />
  </g>
</svg>