<svg xmlns="http://www.w3.org/2000/svg" width="512" height="512" viewBox="0 0 512 512">
  <g class="glyph">
    <path d="M 105 141 109 132 Q 127 132 146 139 Q 159 145 164 153 Q 167 159 165 168 Q 164 175 158 181 L 147 183 Q 141 173 131 161 Q 120 150 105 141 Z M 277 131 282 123 Q 300 124 324 134 Q 334 139 341 148 Q 346 155 345 164 Q 343 171 338 176 L 325 178 Q 316 164 306 154 Q 292 140 277 131 Z M 0 203 Q 40 159 67 116 Q 87 83 99 52 Q 104 39 100 27 L 108 18 L 142 34 Q 150 37 146 45 Q 135 64 122 84 Q 143 82 162 79 Q 170 78 178 73 Q 198 80 190 63 Q 192 61 196 62 L 224 75 Q 224 80 219 82 Q 215 84 204 85 Q 202 86 201 86 L 113 97 Q 101 112 89 127 Q 51 171 7 208 Z M 195 166 Q 231 131 256 87 Q 270 64 283 34 Q 289 19 285 7 L 295 0 L 327 17 Q 333 20 329 29 Q 327 32 322 39 Q 315 51 299 74 L 366 66 Q 371 66 381 59 L 393 50 Q 395 48 398 49 L 426 61 Q 426 66 419 69 Q 413 72 404 73 L 290 87 L 275 105 Q 238 149 202 172 Z M 0 329 Q 41 300 69 268 Q 87 248 102 224 Q 107 217 109 207 Q 111 198 108 190 L 118 183 L 150 207 Q 153 210 151 215 Q 141 229 130 240 Q 258 225 345 213 Q 351 212 360 207 Q 360 206 362 206 Q 367 202 371 199 Q 373 197 377 199 L 403 222 Q 403 225 400 229 Q 397 232 394 237 Q 390 241 387 248 L 330 469 Q 324 491 311 501 Q 298 512 277 510 Q 276 500 267 488 Q 257 475 239 464 L 244 457 Q 261 465 278 469 Q 294 473 299 456 L 358 222 L 268 234 L 293 252 Q 298 256 295 263 Q 246 355 188 406 Q 129 459 35 497 L 29 489 Q 123 439 174 387 Q 223 339 254 264 Q 259 248 254 236 L 174 246 L 197 267 Q 201 272 197 278 Q 167 319 129 350 Q 83 387 30 409 L 25 401 Q 78 370 117 330 Q 143 303 158 273 Q 164 259 161 248 L 118 253 Q 99 271 80 286 Q 50 311 6 336 Z" fill="black" />
  </g>
  <g class="defect" id="01">
    <path d="M 178 73 Q 198 80 190 63" fill="none" stroke="red" stroke-width="3" />
  </g>
</svg>