<svg xmlns="http://www.w3.org/2000/svg" width="512" height="512" viewBox="0 0 512 512">
  <g class="glyph">
    <path d="M 239 364 Q 240 364 242 364 Q 256 363 273 361 Q 293 359 334 354 Q 349 352 356 351 Q 368 350 377 344 L 392 333 Q 394 331 397 333 L 427 347 Q 427 351 425 353 Q 417 359 404 360 L 251 377 Z M 0 447 8 436 Q 23 439 37 435 Q 121 410 208 378 L 213 388 Q 122 435 37 475 Q 26 480 22 474 Z M 18 180 20 168 58 161 58 162 Q 73 139 85 113 Q 94 94 108 57 Q 110 51 111 49 Q 117 32 111 23 L 119 13 L 153 33 Q 160 37 156 46 Q 132 94 108 123 Q 89 149 67 173 L 122 227 L 124 223 Q 154 180 170 142 Q 176 131 170 119 L 180 111 L 213 132 Q 220 135 216 144 Q 182 195 142 242 Q 106 286 62 323 Q 127 312 201 296 L 206 306 Q 132 335 37 364 Q 25 368 21 361 L 8 332 L 15 323 Q 25 328 39 327 Q 78 285 103 252 L 42 192 Q 32 183 18 180 Z M 213 270 Q 235 268 247 267 L 336 255 Q 387 187 426 115 L 323 132 Q 284 184 238 220 L 231 211 Q 273 163 302 111 Q 322 77 337 37 Q 343 23 337 8 L 346 0 L 382 21 Q 386 25 384 31 Q 362 75 333 117 L 408 105 Q 418 103 425 99 Q 431 95 436 89 Q 442 86 445 89 L 476 115 Q 476 120 472 124 Q 470 126 466 128 Q 464 130 463 130 L 455 139 Q 406 200 354 253 L 440 241 Q 450 239 457 234 L 470 225 Q 475 220 479 224 L 512 246 Q 511 250 508 252 Q 508 253 508 254 Q 487 272 501 263 Q 498 268 497 274 L 464 437 L 499 453 Q 498 459 488 462 Q 480 466 468 466 L 235 482 L 221 469 L 415 456 Q 419 456 423 455 L 463 251 L 226 283 Z" fill="black" />
  </g>
  <g class="defect" id="01">
    <path d="M 508 254 Q 487 272 501 263" fill="none" stroke="red" stroke-width="3" />
  </g>
</svg>