<svg xmlns="http://www.w3.org/2000/svg" width="512" height="512" viewBox="0 0 512 512">
  <g class="glyph">
    <path d="M 56 371 60 363 Q 68 363 88 367 Q 99 370 104 374 Q 111 381 109 391 Q 107 398 103 405 L 91 406 Q 81 392 75 387 Q 66 378 56 371 Z M 235 365 236 355 Q 253 353 264 353 Q 274 355 281 358 Q 291 363 292 372 Q 293 379 287 389 L 277 393 Q 268 384 257 376 Q 244 368 235 365 Z M 211 435 216 427 Q 229 430 243 425 Q 253 417 322 390 L 326 398 Q 294 424 241 461 Q 235 464 230 460 Z M 31 436 38 429 Q 51 432 70 427 Q 98 419 151 396 L 155 405 Q 118 430 61 464 Q 55 466 51 462 Z M 209 205 202 197 181 211 Q 181 212 181 213 Q 178 219 178 221 L 177 232 V 240 Q 192 240 210 236 Q 220 236 228 231 Q 231 229 237 224 Q 240 222 243 223 L 267 233 Q 267 236 265 238 Q 258 243 247 244 L 177 252 V 281 Q 190 279 216 277 Q 264 272 283 270 Q 286 267 286 260 V 193 Z M 68 341 95 338 Q 97 337 102 336 Q 128 333 141 330 Q 153 329 161 325 Q 168 320 176 314 Q 180 311 183 314 L 208 336 Q 207 339 205 343 Q 201 348 198 351 Q 197 357 196 363 V 458 Q 196 478 183 491 Q 174 501 154 503 Q 151 487 143 477 Q 136 466 121 459 L 124 450 L 150 454 Q 164 454 165 439 V 339 L 80 352 Z M 236 323 259 321 320 311 Q 329 309 334 305 Q 340 303 348 295 Q 353 292 355 295 L 382 316 Q 382 321 379 325 Q 378 327 375 331 Q 374 333 374 334 Q 374 334 373 336 Q 370 341 370 344 V 468 Q 370 489 359 501 Q 350 512 328 512 Q 327 497 319 487 Q 314 478 295 468 L 298 459 L 324 464 Q 338 464 339 449 V 320 L 247 335 Z M 125 88 Q 132 88 148 87 Q 137 88 151 87 Q 154 86 161 85 Q 181 83 192 82 V 51 Q 192 36 190 27 Q 188 15 183 7 L 192 0 L 229 21 Q 229 25 228 29 Q 227 30 226 33 Q 225 37 224 39 Q 224 44 224 50 V 78 Q 231 77 239 72 Q 245 68 251 63 Q 254 60 257 62 L 281 74 Q 281 78 277 80 Q 271 85 254 86 L 224 90 V 141 L 241 139 L 255 126 Q 298 84 321 43 Q 327 32 324 18 L 333 11 L 358 30 Q 363 34 360 39 Q 331 92 284 134 L 350 126 Q 372 124 387 118 Q 399 113 409 104 Q 411 102 415 104 L 448 119 Q 447 123 444 125 Q 432 130 420 131 L 268 148 Q 240 172 207 193 Q 248 188 272 184 Q 281 183 288 177 L 298 169 Q 301 166 305 169 L 332 188 Q 332 193 329 195 L 322 204 Q 319 210 319 219 V 269 Q 320 280 312 289 Q 306 298 293 301 L 277 281 L 176 292 Q 174 297 172 301 Q 183 326 159 309 L 139 290 V 281 Q 144 277 144 265 V 231 Q 75 269 4 294 L 0 286 Q 94 239 143 210 Q 142 209 142 207 Q 140 197 136 192 L 143 183 L 166 195 Q 197 176 226 153 L 18 176 L 6 163 Q 18 163 39 161 Q 42 161 44 161 L 192 145 V 93 L 137 99 Z" fill="black" />
  </g>
  <g class="defect" id="01">
    <path d="M 243 425 Q 253 417 322 390" fill="none" stroke="red" stroke-width="3" />
  </g>
  <g class="defect" id="02">
    <path d="M 172 301 Q 183 326 159 309" fill="none" stroke="red" stroke-width="3" />
  </g>
</svg>