<svg xmlns="http://www.w3.org/2000/svg" width="512" height="512" viewBox="0 0 512 512">
  <g class="glyph">
    <path d="M 260 95 267 87 Q 279 92 292 89 L 417 65 Q 417 61 415 56 L 425 51 L 454 70 Q 456 74 454 78 Q 431 106 405 132 Q 378 159 351 180 Q 368 198 378 221 L 441 211 Q 454 209 463 203 L 476 191 Q 478 190 481 190 L 512 204 Q 511 207 509 209 Q 503 213 490 214 Q 488 215 487 215 L 382 231 Q 399 276 397 327 Q 397 377 379 415 Q 363 446 335 451 Q 333 433 324 422 Q 314 410 297 404 L 300 395 Q 301 396 305 396 Q 321 401 328 402 Q 341 405 349 393 Q 364 370 366 316 Q 366 273 357 235 L 257 250 L 247 239 Q 266 237 281 235 L 354 224 Q 345 193 327 171 L 333 164 Q 334 165 335 165 Q 341 169 344 173 Q 366 148 385 121 Q 399 101 413 77 L 293 122 Q 282 126 279 119 Z M 79 196 Q 80 196 82 195 Q 94 194 108 192 Q 125 190 141 186 V 135 L 71 147 L 60 137 L 87 133 Q 109 130 141 124 V 41 Q 141 31 139 22 Q 137 15 133 6 L 141 0 L 178 20 L 175 30 Q 174 34 173 38 Q 171 43 171 48 V 119 L 185 116 Q 193 115 202 108 L 214 99 Q 217 97 219 97 L 246 110 Q 244 113 241 115 Q 236 119 226 120 L 171 129 V 180 L 181 175 Q 188 172 195 165 Q 197 162 200 164 L 226 175 Q 226 178 224 180 Q 217 185 207 187 L 171 193 V 244 Q 181 242 190 237 Q 199 231 206 224 Q 209 223 211 223 L 238 239 Q 238 242 234 243 Q 228 247 217 249 L 171 256 V 292 Q 194 295 208 300 Q 223 305 231 314 Q 240 322 242 333 Q 243 344 236 356 L 226 357 Q 214 340 198 325 Q 185 315 171 305 V 447 Q 171 459 165 464 Q 161 468 154 470 L 136 447 V 438 Q 141 433 141 425 V 298 Q 120 327 86 360 Q 38 394 5 424 L 0 418 Q 38 386 74 345 Q 113 301 131 263 L 18 282 L 8 271 Q 30 269 44 266 L 141 250 V 198 L 89 207 Z" fill="black" />
  </g>
  <g class="defect" id="01">
    <path d="M 86 360 Q 38 394 5 424" fill="none" stroke="red" stroke-width="3" />
  </g>
</svg>