<svg xmlns="http://www.w3.org/2000/svg" width="512" height="512" viewBox="0 0 512 512">
  <g class="glyph">
    <path d="M 316 43 408 29 Q 413 27 422 20 L 432 12 Q 435 10 438 12 L 468 31 L 466 36 Q 464 40 463 45 Q 460 51 460 57 V 449 Q 470 451 448 484 Q 435 497 419 497 Q 419 485 409 476 Q 397 465 381 461 L 383 451 Q 396 455 410 453 Q 424 452 424 438 V 37 L 326 53 Z M 138 505 Q 224 434 252 362 Q 276 302 280 193 Q 281 137 278 89 Q 276 76 273 68 Q 270 58 263 48 L 270 39 L 308 52 Q 327 36 313 62 Q 316 117 316 156 L 352 150 Q 361 148 365 144 L 376 138 Q 380 134 383 136 L 404 149 Q 404 153 400 155 Q 396 158 383 160 H 382 L 316 170 L 315 195 Q 314 231 310 262 Q 324 261 351 257 Q 353 256 353 256 Q 359 255 366 253 Q 366 252 367 252 L 377 245 Q 381 242 383 244 L 405 259 Q 405 262 401 263 Q 397 266 385 267 Q 383 268 382 268 L 308 276 Q 301 331 281 374 Q 245 455 146 512 Z M 0 180 Q 12 180 35 176 Q 18 179 37 176 Q 81 170 112 164 V 48 Q 112 36 110 26 Q 108 15 101 7 L 110 0 L 153 23 Q 153 28 150 31 L 148 42 Q 147 47 147 54 V 158 L 169 154 Q 186 152 197 144 Q 202 142 210 136 Q 214 133 216 131 Q 219 129 223 129 L 255 142 Q 255 146 251 149 Q 244 154 229 157 Q 228 157 227 157 L 147 170 V 269 L 161 266 Q 169 265 180 257 L 195 246 Q 200 243 204 246 L 235 270 Q 235 272 233 276 Q 232 277 231 278 Q 211 280 224 286 Q 219 292 217 298 L 204 349 L 225 357 Q 225 362 219 365 Q 213 368 197 370 H 197 L 89 385 Q 90 391 86 400 Q 82 408 73 411 L 49 394 L 47 385 Q 52 379 50 370 L 33 312 Q 32 310 31 306 Q 30 302 27 294 Q 22 285 17 281 L 23 270 L 69 283 Q 70 285 69 291 Q 69 290 69 293 V 302 Q 68 308 69 313 L 86 373 L 96 372 Q 131 368 159 363 Q 161 363 163 362 L 187 275 L 90 291 L 76 279 Q 84 278 98 276 Q 101 276 102 276 L 112 274 V 176 L 12 193 Z" fill="black" />
  </g>
  <g class="defect" id="01">
    <path d="M 460 449 Q 470 451 448 484" fill="none" stroke="red" stroke-width="3" />
  </g>
  <g class="defect" id="02">
    <path d="M 308 52 Q 327 36 313 62" fill="none" stroke="red" stroke-width="3" />
  </g>
  <g class="defect" id="03">
    <path d="M 231 278 Q 211 280 224 286" fill="none" stroke="red" stroke-width="3" />
  </g>
</svg>