<svg xmlns="http://www.w3.org/2000/svg" width="512" height="512" viewBox="0 0 512 512">
  <g class="glyph">
    <path d="M 0 475 Q 36 426 50 354 Q 64 297 65 199 Q 66 147 63 93 Q 62 84 60 76 Q 57 68 50 61 L 58 54 L 91 68 Q 95 70 96 76 Q 98 118 97 112 Q 97 122 97 133 Q 97 144 97 162 L 106 161 Q 113 160 119 156 L 129 149 Q 131 147 134 148 L 155 158 Q 155 161 152 163 Q 145 167 135 169 L 96 174 V 198 Q 95 231 93 262 L 100 262 Q 105 261 117 256 L 127 249 Q 130 246 133 248 L 153 257 Q 153 260 151 262 Q 145 267 134 268 L 92 274 Q 89 317 77 359 Q 56 432 6 480 Z M 96 58 Q 112 56 143 48 Q 151 47 158 40 L 167 32 Q 160 30 175 32 L 202 50 Q 202 54 200 57 Q 197 61 195 65 Q 193 69 193 76 V 418 Q 193 439 182 451 Q 171 464 155 464 Q 155 452 146 443 Q 136 433 121 429 L 123 420 Q 136 423 147 423 Q 161 423 161 408 V 57 L 105 68 Z M 256 8 265 0 304 22 Q 304 23 303 25 Q 303 28 302 30 Q 299 35 297 41 Q 297 43 297 46 Q 295 52 295 55 L 292 123 Q 336 108 363 94 Q 398 77 417 63 Q 430 55 429 42 L 440 39 L 462 64 Q 467 71 459 76 Q 431 94 379 112 Q 332 127 292 136 Q 290 178 336 180 Q 384 182 436 171 Q 459 166 472 156 Q 485 145 492 125 L 502 127 Q 496 145 500 154 Q 502 164 512 167 Q 509 181 500 188 Q 487 198 456 203 Q 431 207 390 209 Q 348 211 330 209 Q 255 204 260 135 L 262 45 Q 262 43 262 40 Q 262 30 261 26 Q 262 17 256 8 Z M 253 262 261 254 301 275 Q 301 281 300 284 Q 300 284 299 286 Q 298 288 297 293 Q 297 293 297 294 Q 295 299 295 306 V 348 L 349 343 Q 357 341 366 337 Q 367 337 369 336 Q 374 332 377 330 Q 379 328 382 329 L 407 340 Q 407 343 403 345 Q 397 350 387 351 L 295 359 V 429 Q 301 429 308 428 L 417 421 Q 420 421 423 421 Q 425 417 425 411 V 266 L 320 280 L 308 267 Q 319 267 334 265 Q 384 259 407 256 Q 413 255 423 250 L 436 240 Q 440 238 443 240 L 471 261 Q 471 264 469 267 L 461 277 Q 439 266 458 292 V 443 Q 458 456 452 467 Q 444 477 432 478 L 414 434 L 295 442 V 453 Q 295 461 290 469 Q 284 476 276 478 L 257 454 V 445 Q 261 442 262 430 V 296 Q 272 286 261 277 Q 259 269 253 262 Z" fill="black" />
  </g>
  <g class="defect" id="01">
    <path d="M 262 296 Q 272 286 261 277" fill="none" stroke="red" stroke-width="3" />
  </g>
  <g class="defect" id="02">
    <path d="M 461 277 Q 439 266 458 292" fill="none" stroke="red" stroke-width="3" />
  </g>
  <g class="defect" id="03">
    <path d="M 167 32 Q 160 30 175 32" fill="none" stroke="red" stroke-width="3" />
  </g>
</svg>