<svg xmlns="http://www.w3.org/2000/svg" width="512" height="512" viewBox="0 0 512 512">
  <g class="glyph">
    <path d="M 214 253 Q 256 199 287 132 Q 308 88 323 38 Q 329 23 321 7 L 329 0 L 363 18 Q 369 22 366 30 Q 340 91 311 143 Q 301 159 292 173 Q 298 173 305 171 Q 329 167 376 161 Q 387 160 392 159 Q 401 158 411 151 Q 422 145 425 143 Q 427 140 430 142 L 458 154 Q 458 158 455 159 Q 448 164 435 166 L 288 185 L 286 183 Q 259 223 221 258 Z M 187 431 Q 242 409 274 382 Q 298 363 311 340 Q 290 315 266 291 Q 256 281 240 272 L 245 264 Q 259 268 275 280 Q 299 299 321 319 L 327 304 Q 337 271 340 225 Q 341 208 333 199 L 340 191 L 372 206 Q 377 208 376 216 Q 371 272 359 306 Q 354 325 346 340 Q 381 371 419 392 Q 463 417 512 431 L 510 440 Q 484 437 466 442 Q 451 446 439 453 Q 429 458 421 453 Q 366 408 330 364 Q 330 392 297 395 Q 257 423 191 439 Z M 21 212 29 205 Q 44 213 58 209 Q 93 160 116 114 Q 123 101 118 88 L 52 98 L 42 87 Q 57 85 73 83 Q 78 82 91 80 Q 148 73 174 69 Q 184 67 193 60 Q 199 56 206 50 Q 209 49 211 49 L 238 61 Q 237 66 232 69 Q 227 71 216 73 L 132 86 L 156 99 Q 162 104 157 111 Q 113 167 77 205 L 195 178 L 195 176 Q 183 151 170 135 L 177 129 Q 196 139 216 161 Q 224 170 227 180 Q 232 191 228 203 Q 224 211 216 215 L 205 214 Q 203 201 198 188 Q 170 198 129 214 L 155 229 Q 154 233 153 238 L 150 246 Q 149 251 149 257 V 289 L 153 288 Q 160 287 170 281 Q 188 277 183 271 Q 185 269 188 270 L 215 280 Q 216 284 209 288 Q 204 292 195 293 L 149 300 V 371 L 229 352 L 231 361 L 30 435 Q 22 438 18 432 L 0 405 L 8 395 Q 22 401 38 397 Q 42 396 49 394 Q 76 388 117 379 V 306 L 57 316 L 46 305 L 78 300 Q 89 299 117 294 V 256 Q 117 242 116 234 L 112 220 L 47 244 Q 37 248 33 240 Z" fill="black" />
  </g>
  <g class="defect" id="01">
    <path d="M 330 364 Q 330 392 297 395" fill="none" stroke="red" stroke-width="3" />
  </g>
  <g class="defect" id="02">
    <path d="M 170 281 Q 188 277 183 271" fill="none" stroke="red" stroke-width="3" />
  </g>
</svg>