<svg xmlns="http://www.w3.org/2000/svg" width="512" height="512" viewBox="0 0 512 512">
  <g class="glyph">
    <path d="M 344 193 346 185 Q 367 180 384 183 Q 398 185 408 191 Q 419 199 420 209 Q 420 215 417 227 Q 417 226 417 228 L 407 230 Q 394 218 380 209 Q 361 198 344 193 Z M 141 35 147 27 182 32 Q 188 33 188 38 L 193 101 L 290 90 Q 299 57 306 25 Q 308 14 302 7 L 310 0 L 342 13 Q 346 16 345 21 Q 334 52 320 87 L 387 79 Q 397 78 409 71 Q 416 68 421 63 Q 424 61 426 62 L 452 76 Q 451 80 447 83 Q 443 86 431 87 Q 431 87 430 87 L 314 100 Q 296 136 279 160 L 267 154 Q 278 129 286 103 L 193 113 Q 194 139 194 153 L 180 154 L 171 115 L 50 128 L 40 116 Q 49 116 70 114 Q 54 116 72 114 L 168 103 Q 161 77 153 52 Q 151 41 141 35 Z M 0 417 Q 41 392 78 356 Q 119 317 134 281 L 128 260 Q 85 286 35 302 L 31 294 Q 76 273 117 242 Q 112 236 99 226 Q 81 216 63 221 Q 55 223 49 216 L 32 198 L 36 191 Q 74 192 98 201 Q 123 209 137 226 Q 152 213 163 198 Q 167 195 169 186 Q 170 185 171 183 Q 172 177 171 169 L 181 164 L 206 189 Q 210 192 206 198 Q 182 223 151 244 Q 159 258 162 273 Q 186 282 168 318 V 388 Q 168 436 151 462 Q 137 482 114 482 Q 115 468 107 460 Q 99 451 81 444 L 84 437 Q 86 437 90 438 Q 103 440 110 440 Q 124 440 131 426 Q 138 412 138 390 V 326 Q 119 351 93 371 Q 52 404 4 423 Z M 161 455 Q 213 429 238 390 Q 262 353 269 295 L 192 308 L 182 297 L 270 283 Q 273 254 273 226 Q 273 213 271 203 Q 271 191 262 180 L 270 172 L 305 183 Q 308 185 308 191 Q 308 192 308 192 Q 306 242 302 277 L 356 268 Q 379 267 376 261 Q 380 258 387 253 Q 388 251 390 250 Q 391 248 395 249 L 422 262 Q 422 265 420 267 Q 414 271 401 273 L 300 290 Q 300 298 298 306 Q 333 347 354 367 Q 392 404 433 423 Q 464 438 512 453 L 510 461 Q 488 457 468 459 Q 447 462 438 469 Q 445 492 425 468 Q 381 438 346 395 Q 323 367 295 323 Q 285 373 259 406 Q 227 445 166 463 Z" fill="black" />
  </g>
  <g class="defect" id="01">
    <path d="M 356 268 Q 379 267 376 261" fill="none" stroke="red" stroke-width="3" />
  </g>
  <g class="defect" id="02">
    <path d="M 438 469 Q 445 492 425 468" fill="none" stroke="red" stroke-width="3" />
  </g>
  <g class="defect" id="03">
    <path d="M 162 273 Q 186 282 168 318" fill="none" stroke="red" stroke-width="3" />
  </g>
</svg>