<svg xmlns="http://www.w3.org/2000/svg" width="512" height="512" viewBox="0 0 512 512">
  <g class="glyph">
    <path d="M 57 177 Q 70 177 92 173 L 193 158 L 185 144 Q 176 132 160 122 L 164 113 Q 174 114 185 116 Q 197 118 206 123 Q 217 130 215 143 Q 215 143 214 144 Q 213 151 209 156 L 247 150 Q 265 147 276 140 Q 284 135 293 127 Q 295 126 299 127 L 330 140 Q 329 145 327 146 Q 322 149 308 151 Q 306 152 304 152 L 69 189 Z M 18 323 27 315 67 333 Q 67 338 65 342 Q 63 347 63 353 Q 62 357 62 363 L 70 463 Q 70 470 66 478 Q 61 486 53 488 L 31 465 L 31 456 Q 37 451 36 440 L 29 356 Q 29 347 26 338 Q 23 329 18 323 Z M 107 375 113 365 149 373 148 381 157 429 227 416 243 365 164 380 154 371 Q 158 371 165 369 Q 169 369 171 369 L 238 355 Q 242 353 245 352 L 252 346 Q 257 343 259 345 L 278 361 Q 278 363 277 365 L 273 370 Q 271 372 270 376 Q 270 377 269 377 L 259 412 L 268 416 Q 268 418 265 420 L 159 439 Q 159 443 158 446 Q 156 453 151 456 L 125 442 L 124 434 Q 136 431 126 424 L 118 394 Q 117 389 115 384 Q 113 378 107 375 Z M 100 224 105 214 144 219 Q 144 223 143 227 Q 144 231 144 235 L 152 269 Q 196 263 222 258 H 224 L 239 211 L 161 225 L 151 214 Q 159 214 166 213 Q 178 210 208 205 Q 220 203 225 201 Q 235 200 239 197 Q 244 194 248 191 Q 250 188 256 191 L 276 207 Q 277 209 275 213 L 270 219 Q 268 223 266 227 L 258 251 L 271 257 Q 271 260 265 262 Q 260 265 252 266 H 252 L 154 280 L 153 285 Q 151 293 145 296 L 119 285 L 118 277 Q 121 273 120 268 L 113 241 Q 112 236 109 232 Q 105 227 100 224 Z M 86 37 91 28 127 31 Q 132 31 133 37 Q 137 59 139 80 Q 143 80 152 78 Q 195 73 252 65 Q 255 53 261 24 Q 262 15 257 7 L 265 0 L 298 12 Q 303 15 301 19 Q 293 42 282 61 Q 304 58 326 55 Q 335 53 349 46 L 361 37 Q 363 35 366 36 L 393 49 Q 392 53 388 55 Q 384 59 372 60 Q 372 60 371 60 L 276 73 L 247 129 L 235 124 Q 237 118 240 108 Q 247 88 249 78 L 140 93 Q 157 131 145 137 L 131 139 L 115 97 L 10 111 L 0 100 Q 8 99 28 96 Q 30 96 31 96 L 111 85 L 99 53 Q 94 41 86 37 Z M 73 328 Q 93 326 109 323 L 322 292 Q 331 290 341 285 L 354 275 Q 357 273 360 274 L 388 295 Q 387 298 385 301 L 380 310 Q 378 314 377 322 L 369 469 Q 368 489 356 500 Q 344 511 322 512 Q 322 499 315 489 Q 306 478 290 473 L 293 464 Q 294 464 296 464 Q 328 457 324 471 Q 336 473 337 459 L 345 300 L 85 338 Z" fill="black" />
  </g>
  <g class="defect" id="01">
    <path d="M 124 434 Q 136 431 126 424" fill="none" stroke="red" stroke-width="3" />
  </g>
  <g class="defect" id="02">
    <path d="M 140 93 Q 157 131 145 137" fill="none" stroke="red" stroke-width="3" />
  </g>
  <g class="defect" id="03">
    <path d="M 296 464 Q 328 457 324 471" fill="none" stroke="red" stroke-width="3" />
  </g>
</svg>