<svg xmlns="http://www.w3.org/2000/svg" width="512" height="512" viewBox="0 0 512 512">
  <g class="glyph">
    <path d="M 195 213 198 204 Q 214 206 227 210 Q 242 215 248 223 Q 255 231 250 240 Q 233 246 242 251 L 231 253 Q 224 242 216 231 Q 207 221 195 213 Z M 70 88 76 81 Q 90 83 104 91 Q 119 99 123 108 Q 127 115 124 124 Q 123 130 116 136 L 105 137 Q 99 124 91 112 Q 84 100 70 88 Z M 34 192 40 185 Q 52 190 66 186 L 153 152 V 60 Q 153 47 151 42 Q 151 38 147 30 Q 146 28 145 26 L 153 19 L 190 40 L 188 47 Q 186 52 185 56 Q 184 61 184 67 V 208 Q 184 218 179 224 Q 174 231 166 232 L 148 211 V 202 Q 153 198 153 187 V 164 Q 100 199 62 221 Q 55 224 51 219 Z M 195 114 Q 215 112 229 109 L 287 99 V 49 Q 288 39 286 27 Q 285 16 279 7 L 287 0 L 323 22 Q 323 24 322 27 Q 322 29 322 29 Q 321 32 320 36 Q 319 38 319 38 Q 318 44 318 49 V 93 Q 319 93 320 93 Q 326 93 334 91 Q 351 88 362 81 Q 373 76 382 68 Q 385 66 388 67 L 419 79 Q 418 83 415 85 Q 410 88 398 91 Q 395 91 394 91 L 318 105 V 168 L 328 166 Q 337 165 346 159 Q 352 156 358 150 Q 362 147 364 147 L 390 157 Q 390 161 388 163 Q 381 168 369 170 L 237 193 L 225 183 L 287 174 V 110 L 206 124 Z M 78 284 Q 80 284 84 283 Q 93 282 112 279 L 314 248 Q 325 245 332 239 L 346 230 Q 348 228 350 229 L 377 240 Q 377 244 374 245 Q 369 249 356 252 L 199 276 L 219 290 Q 208 304 221 299 L 212 309 Q 228 315 244 323 Q 261 331 279 339 Q 312 314 329 295 Q 335 288 331 277 L 340 272 L 367 292 Q 372 297 367 303 Q 335 328 292 345 Q 322 359 349 371 Q 393 391 428 401 Q 465 411 512 415 L 511 424 Q 501 408 466 427 Q 450 431 437 440 Q 428 446 421 442 Q 386 428 332 396 L 240 337 Q 238 336 233 332 Q 214 322 205 317 Q 195 329 178 346 L 207 361 Q 207 365 206 369 L 203 377 Q 201 381 201 386 V 443 L 278 389 L 284 396 Q 228 454 180 498 Q 175 503 169 498 L 147 472 L 153 464 Q 163 467 171 464 V 379 Q 171 374 169 362 L 168 355 Q 150 371 130 385 Q 77 422 4 448 L 0 440 Q 64 409 121 362 Q 162 326 180 299 Q 188 287 186 278 L 88 293 Z" fill="black" />
  </g>
  <g class="defect" id="01">
    <path d="M 219 290 Q 208 304 221 299" fill="none" stroke="red" stroke-width="3" />
  </g>
  <g class="defect" id="02">
    <path d="M 511 424 Q 501 408 466 427" fill="none" stroke="red" stroke-width="3" />
  </g>
  <g class="defect" id="03">
    <path d="M 250 240 Q 233 246 242 251" fill="none" stroke="red" stroke-width="3" />
  </g>
</svg>