<svg xmlns="http://www.w3.org/2000/svg" width="512" height="512" viewBox="0 0 512 512">
  <g class="glyph">
    <path d="M 189 176 138 189 V 255 L 153 252 Q 162 250 171 244 Z M 168 438 Q 177 438 195 437 Q 199 437 201 437 L 319 427 V 371 L 260 377 L 250 365 Q 263 363 277 363 L 319 359 V 337 Q 319 323 318 315 Q 316 305 312 297 L 241 305 L 232 294 Q 246 293 259 292 L 378 278 Q 389 277 398 271 Q 405 268 409 263 Q 411 262 414 262 L 441 274 Q 441 277 438 279 Q 432 284 420 285 L 328 295 L 356 311 Q 356 314 354 318 Q 354 319 353 321 Q 352 325 352 327 Q 351 332 351 338 V 355 L 369 353 Q 381 351 389 347 Q 393 344 400 338 Q 402 336 405 338 L 432 350 Q 432 353 429 355 Q 422 360 411 361 L 351 368 V 425 L 432 418 Q 452 416 460 411 L 476 399 Q 479 398 481 399 L 512 415 Q 510 419 508 420 Q 501 425 486 425 L 177 450 Z M 226 122 232 112 263 121 Q 278 102 301 69 Q 313 51 326 29 Q 332 15 328 7 L 336 0 L 365 16 Q 374 21 368 28 Q 353 46 323 75 Q 291 107 272 125 Q 273 127 272 133 Q 273 128 272 134 Q 271 134 272 138 Q 272 140 272 140 L 272 150 L 279 175 L 325 167 Q 331 166 338 162 Q 343 159 346 155 Q 348 153 350 154 L 373 162 Q 373 166 371 167 Q 366 172 356 173 L 281 186 L 292 227 Q 294 227 296 226 L 377 215 Q 380 213 382 205 L 416 104 L 293 129 L 283 119 Q 288 119 300 116 Q 304 116 305 115 L 392 96 Q 404 94 410 90 Q 415 88 423 81 Q 428 78 431 81 L 455 100 Q 455 104 452 106 L 448 111 Q 446 113 444 119 Q 444 119 444 120 L 408 224 Q 406 233 400 240 Q 395 244 387 246 L 371 228 L 294 238 Q 294 245 292 249 Q 305 255 282 257 L 257 244 L 256 237 Q 260 230 259 223 L 241 152 Q 240 150 240 146 Q 238 141 236 134 Q 232 127 226 122 Z M 20 195 25 187 63 197 Q 63 199 62 202 Q 63 201 62 204 Q 61 205 62 210 Q 62 212 62 213 Q 62 219 63 224 L 77 269 Q 91 269 82 268 L 108 262 V 196 L 81 203 L 71 194 L 95 189 Q 99 188 105 186 Q 107 186 108 186 V 101 Q 108 90 107 79 Q 105 69 99 60 L 107 53 L 143 75 Q 143 77 142 81 Q 141 83 141 84 Q 140 89 139 94 Q 138 99 138 103 V 178 Q 152 174 166 170 Q 172 169 183 162 Q 184 160 186 159 Q 192 154 193 153 Q 197 151 200 153 L 223 174 Q 223 178 220 182 Q 216 186 214 190 Q 211 193 210 198 L 201 237 L 214 244 Q 214 247 210 249 Q 203 253 196 254 L 138 267 V 335 L 180 319 Q 172 304 163 292 L 169 286 Q 187 294 201 309 Q 210 319 218 332 Q 225 346 220 356 Q 218 361 209 369 L 198 370 Q 197 367 195 360 Q 190 344 186 335 L 183 328 L 35 414 Q 26 418 22 413 L 0 385 L 7 377 Q 19 380 37 373 L 108 346 V 274 L 80 280 Q 80 286 76 293 Q 72 299 66 301 L 48 286 L 47 280 Q 51 274 49 263 L 35 221 Q 33 214 29 208 Q 26 202 20 195 Z" fill="black" />
  </g>
  <g class="defect" id="01">
    <path d="M 292 249 Q 305 255 282 257" fill="none" stroke="red" stroke-width="3" />
  </g>
  <g class="defect" id="02">
    <path d="M 77 269 Q 91 269 82 268" fill="none" stroke="red" stroke-width="3" />
  </g>
</svg>