<svg xmlns="http://www.w3.org/2000/svg" width="512" height="512" viewBox="0 0 512 512">
  <g class="glyph">
    <path d="M 200 8 204 0 Q 223 1 240 6 Q 258 12 265 21 Q 270 28 268 37 Q 268 44 261 53 L 250 54 Q 241 43 231 32 Q 217 19 200 8 Z M 270 105 274 97 Q 299 98 321 105 Q 344 110 358 119 Q 373 128 374 142 Q 376 151 370 161 L 359 163 Q 343 148 321 132 Q 295 116 270 105 Z M 73 187 Q 99 173 122 154 Q 142 139 159 119 Q 166 110 162 101 L 172 97 L 194 118 Q 198 123 194 127 Q 169 151 139 168 Q 115 183 77 195 Z M 67 79 Q 83 79 101 77 Q 119 75 158 71 Q 288 58 341 52 Q 360 50 370 46 Q 374 44 383 37 Q 386 35 388 34 Q 390 32 394 33 L 422 48 Q 421 52 418 54 Q 413 56 398 58 Q 398 58 397 58 L 77 91 Z M 121 239 128 232 Q 136 237 146 237 Q 188 196 210 159 Q 217 146 213 139 L 221 132 L 249 149 Q 255 153 251 158 Q 213 204 168 234 Q 192 230 255 219 Q 281 214 294 212 Q 280 194 266 182 L 271 175 Q 312 162 311 192 Q 325 200 332 211 Q 339 222 335 233 Q 333 240 326 246 H 315 L 300 220 L 211 248 L 232 260 Q 237 264 234 269 L 219 291 Q 231 295 245 303 Q 247 304 251 306 Q 265 316 286 328 Q 320 293 333 274 Q 339 264 336 254 L 344 248 L 373 270 Q 377 274 373 280 Q 342 311 298 334 Q 343 360 376 373 Q 439 401 512 414 L 510 422 Q 486 418 466 421 Q 447 426 436 437 Q 431 442 421 438 Q 384 419 351 397 Q 293 359 239 315 Q 238 315 238 314 Q 237 313 234 312 Q 224 304 212 299 Q 199 315 185 329 L 210 343 Q 211 346 209 350 Q 207 354 206 359 Q 205 363 205 368 V 433 L 272 387 L 278 393 Q 228 445 180 489 Q 173 494 168 489 L 147 464 L 152 455 Q 161 458 174 452 V 362 Q 174 353 172 344 Q 172 343 172 342 Q 139 379 127 377 Q 71 415 4 439 L 0 431 Q 61 398 109 360 Q 159 319 189 276 Q 197 263 197 252 Q 159 265 143 269 Q 134 271 132 265 Z" fill="black" />
  </g>
  <g class="defect" id="01">
    <path d="M 172 342 Q 139 379 127 377" fill="none" stroke="red" stroke-width="3" />
  </g>
  <g class="defect" id="02">
    <path d="M 271 175 Q 312 162 311 192" fill="none" stroke="red" stroke-width="3" />
  </g>
</svg>