<svg xmlns="http://www.w3.org/2000/svg" width="512" height="512" viewBox="0 0 512 512">
  <g class="glyph">
    <path d="M 52 54 56 45 Q 85 46 102 52 Q 122 58 132 69 Q 140 78 139 90 Q 138 98 133 107 L 122 110 Q 110 95 98 83 Q 74 63 52 54 Z M 209 272 Q 265 228 295 173 Q 304 158 300 146 L 308 139 L 336 160 Q 341 164 336 171 Q 314 201 289 226 Q 265 261 214 280 Z M 210 358 Q 286 308 326 247 Q 335 234 334 220 L 343 215 L 368 236 Q 373 240 369 246 Q 328 292 300 313 Q 257 349 214 366 Z M 170 472 Q 237 442 289 398 Q 332 361 360 320 Q 370 304 369 293 L 378 287 L 402 309 Q 408 314 404 320 Q 360 376 308 415 Q 245 462 175 479 Z M 55 393 61 384 Q 70 387 80 380 L 88 374 V 198 L 13 225 L 0 217 L 23 209 Q 56 198 88 185 Q 95 183 107 171 Q 113 164 116 159 Q 119 157 122 158 L 149 169 Q 148 173 144 175 Q 140 177 130 182 Q 140 184 125 184 L 119 187 V 351 Q 143 332 187 301 L 193 307 Q 156 346 90 415 Q 82 423 75 415 Z M 143 239 Q 194 192 234 124 Q 259 82 274 39 Q 277 31 277 23 Q 276 14 273 8 L 280 0 L 313 18 Q 319 22 316 27 L 302 57 Q 345 102 400 136 Q 452 169 512 186 L 510 195 Q 493 191 476 195 Q 463 198 451 207 Q 443 213 436 208 Q 402 183 369 150 Q 328 110 296 69 Q 278 105 256 137 Q 208 207 148 246 Z" fill="black" />
  </g>
  <g class="defect" id="01">
    <path d="M 130 182 Q 140 184 125 184" fill="none" stroke="red" stroke-width="3" />
  </g>
  <g class="defect" id="02">
    <path d="M 289 226 Q 265 261 214 280" fill="none" stroke="red" stroke-width="3" />
  </g>
</svg>