<svg xmlns="http://www.w3.org/2000/svg" width="512" height="512" viewBox="0 0 512 512">
  <g class="glyph">
    <path d="M 48 7 52 0 Q 75 1 96 9 Q 115 16 121 26 Q 127 34 125 44 Q 125 52 119 60 L 108 63 Q 100 48 85 34 Q 64 16 48 7 Z M 48 351 53 342 Q 62 345 71 338 L 80 331 V 162 L 12 188 L 0 181 L 78 152 Q 86 148 95 139 Q 101 132 104 127 Q 107 125 109 125 L 135 137 Q 133 140 130 143 Q 120 148 112 151 L 108 152 V 309 L 164 267 L 169 273 Q 125 322 80 370 Q 72 379 67 372 Z M 259 65 Q 259 64 259 64 Q 257 56 254 52 L 196 67 L 220 79 Q 220 83 218 87 L 216 95 Q 215 100 215 105 V 135 L 220 134 Q 224 133 230 129 Q 233 127 234 124 Q 235 121 239 122 L 257 131 Q 257 133 252 136 Q 252 137 251 137 Q 247 139 238 141 H 238 L 215 144 V 210 L 220 209 Q 224 209 230 204 Q 233 201 234 199 Q 235 197 239 197 L 257 206 Q 257 208 251 212 Q 247 214 238 216 H 238 L 215 220 V 297 L 261 272 V 82 Q 261 74 259 65 Z M 140 336 143 327 Q 159 328 172 320 L 188 312 V 99 Q 188 90 186 83 Q 186 82 186 82 Q 185 76 182 70 L 151 78 L 138 68 Q 156 66 169 62 L 272 36 Q 296 15 294 27 Q 302 22 310 14 Q 312 13 315 13 L 345 22 L 342 27 Q 319 46 326 34 Q 323 35 322 35 L 267 49 L 293 62 Q 293 64 292 67 Q 291 69 291 70 L 289 78 Q 288 82 288 88 V 257 L 311 245 L 315 252 L 288 272 V 319 Q 343 278 366 238 Q 349 209 335 190 Q 318 165 303 154 L 308 147 Q 326 158 346 180 Q 364 201 377 217 Q 394 182 409 91 L 322 116 L 314 107 Q 318 106 327 104 Q 330 103 331 103 L 388 86 Q 397 82 404 78 Q 410 74 413 70 Q 417 64 422 67 L 448 84 Q 448 86 445 89 L 439 99 Q 438 100 438 102 Q 435 108 434 113 Q 418 196 394 237 Q 426 278 448 297 Q 477 326 512 339 L 509 348 Q 493 343 475 344 Q 461 346 453 352 Q 445 357 439 350 Q 407 307 379 259 Q 348 300 288 330 V 403 Q 288 412 283 419 Q 279 424 270 425 L 256 407 V 398 Q 261 393 261 383 V 291 L 172 356 Q 166 360 161 357 Z" fill="black" />
  </g>
  <g class="defect" id="01">
    <path d="M 342 27 Q 319 46 326 34" fill="none" stroke="red" stroke-width="3" />
  </g>
  <g class="defect" id="02">
    <path d="M 272 36 Q 296 15 294 27" fill="none" stroke="red" stroke-width="3" />
  </g>
</svg>