<svg xmlns="http://www.w3.org/2000/svg" width="512" height="512" viewBox="0 0 512 512">
  <g class="glyph">
    <path d="M 275 8 279 0 Q 280 0 283 1 Q 310 2 323 7 Q 338 14 344 23 Q 350 31 347 41 Q 346 48 340 55 L 329 57 Q 320 46 307 31 Q 292 18 275 8 Z M 60 40 64 32 Q 85 34 106 41 Q 127 48 136 58 Q 146 69 144 82 Q 143 90 137 100 L 126 101 Q 115 84 100 69 Q 82 51 60 40 Z M 198 97 Q 211 96 233 92 L 406 66 Q 417 64 427 57 Q 433 54 438 48 Q 441 45 444 47 L 473 60 Q 473 64 467 67 Q 463 69 455 70 Q 452 71 451 71 L 208 108 Z M 239 134 245 126 288 138 288 146 Q 288 150 287 154 Q 287 158 288 162 L 295 184 L 360 173 L 382 128 L 303 141 L 294 130 Q 303 130 312 128 Q 316 127 324 126 Q 349 122 361 119 Q 370 118 377 113 Q 383 110 389 104 Q 393 102 396 104 L 423 124 Q 423 128 421 130 L 414 138 Q 410 143 408 147 L 402 160 L 420 168 Q 420 172 415 174 Q 407 178 398 179 L 300 196 Q 301 203 296 211 Q 291 217 284 218 L 261 205 L 260 199 Q 279 204 263 187 L 253 157 Q 238 155 251 151 Q 249 149 249 148 Q 245 141 239 134 Z M 61 406 66 396 Q 76 397 85 390 L 90 385 V 204 L 11 223 L 0 213 L 92 192 Q 103 187 112 180 L 124 169 Q 126 166 129 168 L 153 183 Q 152 186 149 187 Q 141 191 129 195 L 121 197 V 359 Q 152 330 190 294 L 196 300 Q 186 313 166 338 Q 120 396 98 424 Q 92 432 85 425 Z M 230 243 238 236 Q 251 241 270 237 L 384 213 Q 384 211 383 208 L 391 202 L 418 224 Q 425 229 419 236 Q 375 272 336 294 Q 345 304 351 315 L 431 305 Q 447 303 459 297 Q 467 293 475 285 Q 478 283 482 285 L 512 300 Q 511 304 507 306 Q 496 309 486 310 L 356 326 Q 368 356 367 393 Q 365 433 350 457 Q 333 483 306 485 Q 306 472 295 459 Q 286 449 272 440 L 274 431 Q 276 432 279 433 Q 296 440 306 442 Q 317 444 323 434 Q 332 415 334 389 Q 337 358 331 329 L 199 344 L 188 333 Q 217 332 218 331 Q 221 330 223 330 Q 230 329 248 327 Q 299 321 328 317 Q 321 300 304 276 L 312 270 Q 320 277 329 285 Q 354 263 380 229 Q 382 227 383 223 L 260 269 Q 251 271 246 267 Z" fill="black" />
  </g>
  <g class="defect" id="01">
    <path d="M 188 333 Q 217 332 218 331" fill="none" stroke="red" stroke-width="3" />
  </g>
  <g class="defect" id="02">
    <path d="M 253 157 Q 238 155 251 151" fill="none" stroke="red" stroke-width="3" />
  </g>
  <g class="defect" id="03">
    <path d="M 260 199 Q 279 204 263 187" fill="none" stroke="red" stroke-width="3" />
  </g>
</svg>