<svg xmlns="http://www.w3.org/2000/svg" width="512" height="512" viewBox="0 0 512 512">
  <g class="glyph">
    <path d="M 60 56 65 48 Q 93 50 117 60 Q 112 66 140 76 Q 147 85 145 96 Q 144 105 138 114 L 127 116 Q 117 99 104 88 Q 82 66 60 56 Z M 380 321 Q 382 321 385 320 L 396 251 L 327 259 V 326 Z M 408 173 302 188 335 206 333 215 Q 332 219 329 224 Q 327 229 327 234 V 247 Q 362 243 397 239 Z M 57 425 63 416 Q 73 420 82 413 L 93 405 V 226 L 13 252 L 0 244 L 93 213 Q 101 210 111 200 Q 118 193 122 188 Q 125 185 127 187 L 154 199 Q 153 202 149 205 Q 143 208 130 213 L 123 216 V 385 L 187 342 L 192 349 L 91 447 Q 84 455 77 448 Z M 197 190 Q 202 190 212 189 Q 218 188 221 188 Q 268 182 313 176 Q 337 132 362 88 L 288 103 L 283 97 Q 249 142 209 170 L 203 163 Q 236 129 260 88 Q 275 62 286 32 Q 288 25 287 17 Q 286 12 282 7 L 291 0 L 326 19 Q 328 21 327 26 Q 304 69 287 91 L 286 92 Q 319 85 352 78 Q 357 77 361 74 Q 366 71 370 66 Q 374 63 377 65 L 403 87 Q 402 93 398 95 Q 391 100 387 105 L 326 174 L 390 165 Q 398 164 405 160 L 419 151 Q 436 167 427 150 L 449 166 Q 448 170 446 172 Q 443 176 441 179 Q 439 182 438 188 L 430 235 Q 445 233 457 226 Q 466 222 475 216 Q 478 214 480 215 L 512 229 Q 510 234 505 235 Q 498 239 486 240 L 428 247 L 419 307 L 444 319 L 438 324 Q 431 328 422 329 L 327 337 V 470 Q 327 488 317 499 Q 309 510 290 511 Q 288 496 279 486 Q 270 476 254 468 L 256 460 Q 258 460 261 461 Q 276 464 283 464 Q 295 463 296 447 V 340 L 219 347 L 208 336 Q 208 336 210 336 Q 225 335 246 333 L 296 329 V 263 L 163 278 L 152 267 Q 166 266 187 264 L 296 251 V 228 Q 296 218 294 209 Q 293 201 287 190 L 208 201 Z" fill="black" />
  </g>
  <g class="defect" id="01">
    <path d="M 117 60 Q 112 66 140 76" fill="none" stroke="red" stroke-width="3" />
  </g>
  <g class="defect" id="02">
    <path d="M 419 151 Q 436 167 427 150" fill="none" stroke="red" stroke-width="3" />
  </g>
</svg>