<svg xmlns="http://www.w3.org/2000/svg" width="512" height="512" viewBox="0 0 512 512">
  <g class="glyph">
    <path d="M 299 409 302 403 Q 353 418 384 435 Q 404 446 413 457 Q 437 478 423 485 Q 423 493 417 502 L 406 504 Q 391 480 366 458 Q 334 429 299 409 Z M 183 230 191 222 229 241 227 248 Q 227 251 225 255 Q 225 257 225 258 Q 224 263 224 270 V 378 Q 224 389 219 397 Q 215 404 208 407 L 187 383 V 374 Q 193 369 193 357 V 264 Q 193 253 191 245 Q 190 239 183 230 Z M 134 503 Q 185 486 219 449 Q 252 415 266 369 Q 270 355 273 332 Q 275 312 274 297 Q 273 279 265 268 L 273 261 L 301 273 Q 307 276 308 285 Q 306 334 295 373 Q 278 425 236 463 Q 194 499 138 512 Z M 235 229 Q 247 229 259 227 Q 268 199 273 162 L 168 174 L 158 162 L 275 149 Q 278 129 278 109 Q 279 96 268 89 L 273 80 L 311 83 Q 317 84 316 92 Q 311 118 302 146 L 376 137 Q 388 135 400 129 Q 409 125 418 117 Q 420 115 424 115 L 454 130 Q 454 134 447 137 Q 439 141 428 143 L 298 159 Q 285 197 269 226 Q 299 222 340 216 Q 349 214 357 210 L 365 202 Q 368 199 372 201 L 399 217 Q 399 219 397 223 Q 395 226 394 231 Q 390 240 390 244 V 372 Q 390 379 385 387 Q 379 396 370 397 L 351 370 V 361 Q 358 357 358 346 V 224 L 244 240 Z M 0 460 Q 43 414 72 350 Q 99 291 110 231 Q 139 188 121 111 Q 122 101 119 92 Q 117 84 111 77 L 117 70 L 151 84 Q 197 74 245 58 Q 299 41 332 21 Q 344 14 344 3 L 355 0 L 380 23 Q 384 27 378 32 Q 333 55 256 76 Q 196 91 155 94 Q 152 179 139 237 Q 124 304 96 359 Q 60 428 7 466 Z" fill="black" />
  </g>
  <g class="defect" id="01">
    <path d="M 110 231 Q 139 188 121 111" fill="none" stroke="red" stroke-width="3" />
  </g>
  <g class="defect" id="02">
    <path d="M 413 457 Q 437 478 423 485" fill="none" stroke="red" stroke-width="3" />
  </g>
</svg>