<svg xmlns="http://www.w3.org/2000/svg" width="512" height="512" viewBox="0 0 512 512">
  <g class="glyph">
    <path d="M 193 385 198 378 Q 255 401 297 429 Q 311 438 319 452 Q 328 465 326 478 Q 324 486 317 496 L 302 496 Q 287 473 263 445 Q 242 412 193 385 Z M 48 177 57 169 94 188 Q 94 193 92 197 Q 90 201 90 206 Q 88 210 88 217 V 364 Q 88 375 84 382 Q 80 389 73 392 L 52 369 V 360 Q 58 355 58 339 V 212 Q 58 198 56 194 Q 55 188 48 177 Z M 0 505 Q 72 473 111 427 Q 148 385 157 322 Q 161 294 161 260 Q 162 252 160 241 Q 158 232 151 225 L 156 217 L 190 228 Q 194 229 195 235 Q 195 288 189 323 Q 177 393 131 442 Q 85 489 5 512 Z M 151 7 159 0 197 22 Q 197 25 195 31 Q 197 27 194 32 Q 192 35 192 39 Q 191 44 191 49 V 73 L 238 65 Q 247 63 255 57 L 268 47 Q 270 45 272 47 L 298 57 Q 298 60 296 62 Q 291 66 278 68 L 191 84 V 161 L 244 152 Q 252 151 259 146 L 270 138 Q 274 136 277 137 L 304 155 Q 304 155 303 156 Q 303 158 302 161 Q 298 165 298 168 Q 295 172 296 180 V 361 Q 296 370 290 378 Q 284 385 277 387 L 258 360 V 351 Q 265 348 265 338 V 160 L 105 185 L 93 176 L 160 165 V 48 Q 160 34 159 26 Q 157 17 151 7 Z" fill="black" />
  </g>
  <g class="defect" id="01">
    <path d="M 263 445 Q 242 412 193 385" fill="none" stroke="red" stroke-width="3" />
  </g>
</svg>