<svg xmlns="http://www.w3.org/2000/svg" width="512" height="512" viewBox="0 0 512 512">
  <g class="glyph">
    <path d="M 35 65 37 57 Q 57 52 79 53 Q 98 53 107 62 Q 114 69 115 80 Q 117 89 113 100 L 102 103 Q 90 89 75 80 Q 61 72 35 65 Z M 0 206 6 199 Q 22 205 39 198 Q 67 185 149 145 L 153 153 L 29 239 Q 22 243 19 238 Z M 215 412 220 404 Q 275 421 312 443 Q 325 450 334 464 Q 342 477 341 487 Q 339 498 333 507 L 318 508 Q 306 489 277 460 Q 239 426 215 412 Z M 95 241 103 234 139 251 137 258 Q 137 259 137 260 Q 134 267 134 269 Q 132 276 132 282 V 386 Q 132 396 129 402 Q 125 408 117 411 L 96 387 V 378 Q 102 373 102 362 V 277 Q 103 268 101 258 Q 99 248 95 241 Z M 138 123 Q 161 104 178 79 Q 195 58 204 35 Q 211 17 205 6 L 214 0 L 244 20 Q 247 22 245 28 Q 233 49 218 67 Q 228 66 239 64 L 295 57 Q 306 55 319 50 Q 328 46 336 41 Q 339 39 342 42 L 369 78 Q 366 79 361 81 L 351 85 Q 342 88 335 91 Q 327 96 313 105 Q 307 108 304 110 L 298 104 L 327 63 L 221 78 L 214 71 Q 205 83 194 93 Q 170 114 143 130 Z M 141 239 Q 163 239 166 238 Q 170 237 176 236 Q 224 231 251 227 Q 259 226 268 221 L 275 213 Q 280 211 283 212 L 309 229 Q 309 230 307 234 Q 306 235 306 235 Q 304 238 302 243 Q 298 251 298 256 V 372 Q 298 381 294 389 Q 288 395 279 396 L 261 372 V 363 Q 268 358 267 348 V 236 L 150 250 Z M 49 504 Q 110 479 140 446 Q 172 414 180 362 Q 185 336 184 303 Q 184 295 181 288 Q 179 280 174 275 L 180 268 L 211 277 Q 216 278 217 286 Q 217 338 211 364 Q 200 426 157 463 Q 123 492 54 512 Z M 127 221 Q 165 205 193 178 Q 218 153 226 122 Q 231 106 226 94 L 232 88 L 262 100 Q 267 103 265 110 Q 261 122 257 132 Q 304 156 336 171 Q 396 193 472 197 V 206 Q 448 206 434 213 Q 424 218 414 230 Q 409 236 399 232 Q 342 208 311 189 Q 273 165 250 144 Q 239 165 218 185 Q 188 212 131 229 Z" fill="black" />
  </g>
  <g class="defect" id="01">
    <path d="M 141 239 Q 163 239 166 238" fill="none" stroke="red" stroke-width="3" />
  </g>
  <g class="defect" id="02">
    <path d="M 257 132 Q 304 156 336 171" fill="none" stroke="red" stroke-width="3" />
  </g>
</svg>