<svg xmlns="http://www.w3.org/2000/svg" width="512" height="512" viewBox="0 0 512 512">
  <g class="glyph">
    <path d="M 97 61 Q 100 60 104 60 Q 115 59 122 57 L 161 49 Q 166 48 174 44 Q 176 43 176 43 Q 177 42 178 42 Q 196 37 189 34 Q 193 31 196 33 L 221 53 Q 222 57 218 60 Q 214 63 210 67 Q 208 71 206 76 L 199 124 L 220 133 Q 208 137 215 139 Q 206 142 196 143 L 108 158 Q 107 164 104 168 Q 100 174 93 176 L 76 161 L 74 155 Q 79 150 77 138 L 58 71 L 50 59 L 56 52 L 93 64 L 91 71 Q 91 74 91 79 Q 91 83 92 89 L 106 147 Q 110 147 116 146 Q 149 140 160 138 Q 161 138 163 137 Q 167 137 169 136 L 181 56 L 109 70 Z M 117 172 124 165 150 172 Q 154 174 154 178 L 154 239 Q 168 235 175 231 Q 179 229 186 222 Q 188 221 191 222 L 216 231 Q 216 234 214 236 Q 209 240 197 242 L 154 250 Q 153 285 151 320 L 204 306 L 207 314 L 28 382 Q 20 385 15 380 L 0 358 L 6 349 Q 20 352 32 349 Q 41 348 58 343 Q 62 342 65 342 Q 58 294 46 236 Q 46 230 42 223 Q 39 218 34 214 L 39 206 L 67 211 Q 70 212 72 216 Q 80 280 84 336 L 131 325 Q 129 247 126 195 Q 126 194 125 192 Q 125 185 124 182 Q 105 175 117 172 Z M 322 6 330 0 365 19 362 26 Q 361 31 360 35 L 360 44 V 177 L 405 169 Q 413 167 421 161 L 434 152 Q 436 150 439 151 L 463 161 Q 463 164 461 166 Q 455 170 444 172 L 360 187 V 353 L 433 345 Q 451 344 462 338 Q 469 334 478 327 Q 480 326 483 327 L 512 342 Q 511 345 507 347 Q 499 349 487 351 L 159 384 L 150 374 L 242 366 V 207 Q 242 195 240 187 Q 239 180 234 173 L 242 167 L 276 186 L 272 202 Q 272 203 272 204 Q 271 208 271 213 V 362 L 331 357 V 38 Q 331 29 329 20 Q 327 11 322 6 Z" fill="black" />
  </g>
  <g class="defect" id="01">
    <path d="M 124 182 Q 105 175 117 172" fill="none" stroke="red" stroke-width="3" />
  </g>
  <g class="defect" id="02">
    <path d="M 220 133 Q 208 137 215 139" fill="none" stroke="red" stroke-width="3" />
  </g>
  <g class="defect" id="03">
    <path d="M 178 42 Q 196 37 189 34" fill="none" stroke="red" stroke-width="3" />
  </g>
</svg>