<svg xmlns="http://www.w3.org/2000/svg" width="512" height="512" viewBox="0 0 512 512">
  <g class="glyph">
    <path d="M 57 28 63 20 102 34 Q 102 34 101 35 Q 101 38 101 41 Q 100 46 100 50 Q 100 54 101 60 L 119 126 L 167 118 Q 172 117 176 116 L 191 25 L 119 39 L 107 30 Q 132 11 127 27 Q 130 26 136 25 Q 156 21 169 18 Q 177 17 185 12 Q 193 8 200 2 Q 204 0 207 2 L 233 23 Q 233 27 229 30 L 222 38 Q 219 42 217 47 L 207 103 L 229 113 Q 229 117 224 119 Q 217 121 204 123 L 120 137 Q 119 144 116 148 Q 111 155 105 156 L 86 140 L 85 133 Q 89 127 87 117 L 71 57 Q 68 48 65 40 Z M 126 153 133 144 161 152 Q 166 153 167 158 Q 167 194 166 215 Q 181 211 187 207 Q 190 206 196 201 Q 198 199 200 198 Q 201 196 205 197 L 231 207 Q 231 210 228 212 Q 223 216 210 219 L 165 226 Q 165 259 162 300 L 217 283 L 221 291 Q 179 309 89 350 Q 51 367 32 376 Q 24 380 19 375 L 0 351 L 6 342 Q 20 345 34 341 L 64 331 Q 57 279 47 225 Q 46 218 42 211 Q 39 206 34 201 L 39 192 L 68 197 Q 73 199 73 203 Q 81 264 85 325 L 140 307 Q 139 248 136 177 Q 136 176 136 175 Q 135 167 133 162 Q 130 157 126 153 Z M 127 408 Q 152 372 216 314 Q 274 239 315 155 Q 329 122 338 95 Q 341 82 337 70 L 257 85 L 247 74 Q 264 72 280 69 L 437 40 Q 452 39 462 31 L 478 20 Q 480 18 483 19 L 512 30 Q 511 34 508 36 Q 501 40 488 43 L 353 67 L 377 82 Q 380 85 379 90 Q 379 135 343 164 Q 319 207 296 244 L 312 248 Q 312 251 312 255 Q 311 260 311 265 L 324 349 L 412 338 Q 417 338 421 337 L 457 226 L 324 246 L 311 235 Q 312 235 315 235 Q 331 233 338 232 L 431 217 Q 438 217 450 210 Q 452 209 455 207 Q 461 203 465 200 Q 468 198 471 200 L 498 222 Q 497 226 494 228 Q 492 230 489 233 Q 490 233 489 235 Q 486 236 485 241 L 456 325 L 477 334 Q 477 338 473 340 Q 463 345 444 346 L 326 359 L 327 361 Q 328 372 324 380 Q 319 386 312 388 L 292 373 L 290 365 Q 294 360 293 350 L 279 270 Q 259 298 237 324 Q 184 384 132 414 Z" fill="black" />
  </g>
  <g class="defect" id="01">
    <path d="M 107 30 Q 132 11 127 27" fill="none" stroke="red" stroke-width="3" />
  </g>
  <g class="defect" id="02">
    <path d="M 379 90 Q 379 135 343 164" fill="none" stroke="red" stroke-width="3" />
  </g>
  <g class="defect" id="03">
    <path d="M 127 408 Q 152 372 216 314" fill="none" stroke="red" stroke-width="3" />
  </g>
</svg>