<svg xmlns="http://www.w3.org/2000/svg" width="512" height="512" viewBox="0 0 512 512">
  <g class="glyph">
    <path d="M 430 178 350 189 V 235 Q 365 223 361 231 Q 362 230 364 230 Q 367 228 372 224 Q 374 222 375 222 Q 377 220 379 221 L 398 230 Q 398 233 396 234 Q 391 239 378 241 L 350 245 V 291 L 394 285 Q 418 263 401 273 Z M 44 78 49 69 90 84 90 91 Q 89 94 89 100 Q 89 100 89 102 Q 88 108 90 111 L 101 163 Q 102 163 104 163 Q 126 158 135 155 L 147 151 L 162 78 L 105 90 L 94 80 L 109 77 Q 111 77 114 76 Q 125 75 141 71 Q 150 69 156 65 L 171 55 Q 176 53 178 56 L 203 76 Q 204 80 200 84 Q 197 86 193 91 Q 193 91 192 91 Q 189 96 187 101 L 177 139 L 192 146 Q 192 150 189 151 Q 181 155 167 159 L 102 174 Q 100 180 99 183 Q 94 189 87 192 L 69 178 L 67 169 Q 72 164 70 152 L 59 107 Q 58 100 53 91 Q 50 84 44 78 Z M 109 190 115 181 145 193 Q 150 194 150 203 L 148 236 Q 154 234 161 230 Q 166 228 173 221 Q 175 219 178 220 L 205 230 Q 205 232 203 234 Q 197 238 184 240 L 148 247 Q 145 288 141 328 L 216 302 L 218 310 L 33 403 Q 24 406 19 402 L 0 379 L 5 370 Q 18 371 31 367 L 56 358 Q 52 309 45 263 Q 44 257 41 251 Q 38 244 34 240 L 38 231 L 68 238 Q 73 240 73 243 Q 76 302 77 351 L 118 336 Q 120 260 118 212 Q 105 206 116 200 Q 114 195 109 190 Z M 200 143 Q 206 142 218 141 Q 220 140 222 140 L 319 124 V 100 Q 319 91 317 82 Q 317 77 314 72 Q 263 87 241 92 L 239 83 Q 289 64 318 50 Q 352 34 373 20 Q 382 14 379 4 L 389 0 L 417 24 Q 421 29 415 34 Q 385 49 332 66 L 329 67 L 356 80 L 354 87 Q 352 92 351 96 Q 350 101 350 107 V 120 L 450 103 Q 460 102 469 95 L 481 85 Q 484 84 486 85 L 512 96 Q 512 99 510 101 Q 505 106 492 108 L 350 131 V 178 L 405 171 Q 414 170 423 166 Q 430 163 436 159 Q 440 156 443 157 L 469 177 Q 468 179 466 181 Q 465 182 465 183 Q 461 185 458 189 Q 456 192 454 198 L 427 290 Q 425 299 419 305 Q 414 311 406 312 L 390 296 L 350 302 V 349 Q 352 349 353 349 Q 362 347 370 343 Q 371 342 373 340 Q 380 335 383 332 Q 385 331 388 332 L 416 343 Q 416 346 413 347 Q 406 352 395 355 L 350 361 V 416 L 430 409 Q 449 407 459 402 L 475 391 Q 478 389 480 391 L 511 407 Q 509 412 507 412 Q 499 416 484 417 L 185 442 L 175 430 L 209 428 Q 237 425 307 419 Q 315 419 319 418 V 365 L 264 373 L 254 362 L 319 353 V 306 L 284 311 Q 284 314 282 319 Q 281 325 276 326 L 249 317 L 248 309 Q 251 301 249 294 L 223 212 Q 221 206 218 201 Q 214 195 209 191 L 213 182 L 254 193 Q 254 195 254 198 Q 254 200 254 200 Q 253 203 254 209 Q 254 214 255 219 L 281 301 L 319 296 V 250 L 290 254 L 279 245 L 319 240 V 193 L 272 199 L 261 190 Q 266 189 276 188 Q 281 187 284 187 L 319 182 V 136 L 210 154 Z" fill="black" />
  </g>
  <g class="defect" id="01">
    <path d="M 394 285 Q 418 263 401 273" fill="none" stroke="red" stroke-width="3" />
  </g>
  <g class="defect" id="02">
    <path d="M 118 212 Q 105 206 116 200" fill="none" stroke="red" stroke-width="3" />
  </g>
  <g class="defect" id="03">
    <path d="M 350 235 Q 365 223 361 231" fill="none" stroke="red" stroke-width="3" />
  </g>
</svg>