<svg xmlns="http://www.w3.org/2000/svg" width="512" height="512" viewBox="0 0 512 512">
  <g class="glyph">
    <path d="M 244 148 250 140 Q 270 146 286 157 Q 295 162 300 170 Q 306 181 303 191 Q 302 198 296 206 H 282 Q 274 185 267 175 Q 259 163 244 148 Z M 385 194 Q 412 162 425 133 Q 429 127 428 120 Q 428 115 426 110 L 433 104 L 463 122 Q 467 125 463 130 Q 435 172 392 200 Z M 221 255 Q 234 255 257 252 Q 260 251 262 251 L 337 241 V 121 Q 337 110 336 101 L 332 90 Q 301 106 265 116 L 262 107 Q 303 88 331 67 Q 354 50 371 31 Q 377 23 378 20 Q 380 16 378 9 L 388 5 L 417 26 Q 421 31 416 36 Q 385 62 347 83 L 376 97 Q 376 100 375 104 Q 372 109 371 114 Q 369 119 369 127 V 237 L 443 227 Q 452 226 464 219 L 477 209 Q 480 206 483 207 L 512 223 Q 490 227 504 229 Q 501 232 489 233 L 369 249 V 445 Q 369 464 358 477 Q 334 498 330 489 Q 329 471 321 462 Q 313 451 295 444 L 298 434 Q 313 438 325 438 Q 337 438 337 423 V 253 L 233 267 Z M 42 274 44 265 Q 50 264 54 255 Q 76 200 92 150 L 53 156 L 42 147 L 96 138 Q 114 84 127 37 Q 129 29 128 20 Q 127 13 122 8 L 130 0 L 160 17 Q 168 20 164 32 Q 149 80 131 132 Q 146 131 160 127 Q 170 126 180 119 L 192 108 Q 194 106 198 107 L 226 117 Q 226 120 223 123 Q 216 128 204 131 L 127 144 Q 108 196 85 259 L 130 250 V 215 Q 130 204 128 196 Q 126 188 122 179 L 131 172 L 168 192 L 166 200 Q 166 201 165 202 Q 163 206 163 209 Q 161 213 161 222 V 242 Q 167 240 173 235 Q 178 231 185 224 Q 187 223 190 223 L 219 235 Q 219 238 216 240 Q 207 245 193 247 L 161 254 V 322 L 235 303 L 238 311 Q 219 319 182 333 Q 168 338 161 340 V 473 Q 143 486 156 490 Q 153 495 143 497 L 124 474 V 465 Q 129 460 130 448 V 352 L 32 388 Q 23 392 20 385 L 0 356 L 8 349 Q 20 357 35 353 L 130 330 V 260 L 80 271 Q 76 278 72 284 Q 66 289 58 289 Z" fill="black" />
  </g>
  <g class="defect" id="01">
    <path d="M 358 477 Q 334 498 330 489" fill="none" stroke="red" stroke-width="3" />
  </g>
  <g class="defect" id="02">
    <path d="M 512 223 Q 490 227 504 229" fill="none" stroke="red" stroke-width="3" />
  </g>
  <g class="defect" id="03">
    <path d="M 161 473 Q 143 486 156 490" fill="none" stroke="red" stroke-width="3" />
  </g>
</svg>