<svg xmlns="http://www.w3.org/2000/svg" width="512" height="512" viewBox="0 0 512 512">
  <g class="glyph">
    <path d="M 65 35 70 28 Q 93 32 111 41 Q 125 50 131 58 Q 135 67 134 77 Q 133 88 126 97 L 115 98 Q 104 76 94 62 Q 81 47 65 35 Z M 233 8 238 0 Q 267 4 291 14 Q 304 21 310 31 Q 318 40 315 53 Q 314 62 307 71 L 297 73 Q 286 51 273 38 Q 260 23 233 8 Z M 11 198 Q 22 197 37 194 L 83 184 Q 91 182 99 177 Q 106 172 108 169 Q 112 166 114 167 L 141 188 Q 140 191 138 193 L 133 199 Q 129 203 126 208 Q 112 238 95 264 Q 110 282 114 309 Q 116 332 106 352 Q 152 359 230 378 Q 312 395 364 401 Q 393 405 426 405 Q 455 406 511 405 L 512 414 Q 482 416 451 424 Q 424 432 407 444 Q 398 451 381 448 Q 321 432 263 411 L 170 381 Q 131 370 89 363 Q 62 359 34 363 Q 17 366 4 372 L 0 366 L 23 351 Q 52 348 92 351 Q 94 332 89 313 Q 86 300 78 286 Q 71 273 58 271 L 61 261 L 84 263 Q 89 241 97 197 Q 97 194 97 193 L 21 208 Z M 200 185 205 176 Q 259 197 303 218 Q 319 187 325 150 Q 327 142 324 134 L 319 124 L 175 143 L 164 133 L 199 128 Q 216 145 220 125 Q 324 112 361 106 Q 381 103 390 97 L 406 85 Q 409 83 412 84 L 443 98 Q 442 103 440 104 Q 433 107 421 109 Q 419 110 418 110 L 334 121 L 354 131 Q 361 136 359 143 Q 350 194 328 232 L 344 240 Q 378 260 403 280 Q 429 300 435 319 Q 441 334 432 352 L 421 354 Q 397 316 346 276 L 314 253 Q 291 284 253 306 Q 212 330 159 340 L 156 330 Q 206 315 239 289 Q 271 267 291 238 Q 250 211 200 185 Z" fill="black" />
  </g>
  <g class="defect" id="01">
    <path d="M 199 128 Q 216 145 220 125" fill="none" stroke="red" stroke-width="3" />
  </g>
</svg>