<svg xmlns="http://www.w3.org/2000/svg" width="512" height="512" viewBox="0 0 512 512">
  <g class="glyph">
    <path d="M 181 422 Q 200 422 215 421 L 321 412 V 332 L 259 340 L 248 329 Q 263 328 276 326 L 321 319 V 290 Q 321 277 320 267 Q 318 255 313 248 L 321 241 L 358 262 Q 358 266 357 270 L 354 280 Q 353 285 353 290 V 315 L 367 313 Q 375 311 384 306 Q 394 300 397 296 Q 399 294 403 296 L 431 308 Q 432 311 428 313 Q 422 318 410 319 L 353 327 V 410 L 430 403 Q 447 402 458 395 L 475 385 Q 478 383 481 384 L 512 400 Q 510 403 506 405 Q 502 409 486 410 Q 486 410 485 410 L 191 435 Z M 235 227 243 220 Q 255 225 268 223 Q 298 165 311 125 Q 311 124 312 123 Q 314 119 314 113 Q 329 128 311 105 Q 311 104 311 103 L 262 112 L 248 101 Q 271 99 286 96 L 372 78 Q 376 84 400 68 L 416 56 Q 418 55 421 55 L 454 67 Q 454 72 450 73 Q 440 77 427 80 L 326 100 L 351 113 Q 358 116 353 123 Q 319 177 282 221 L 411 197 Q 405 190 377 160 L 382 153 Q 407 161 435 180 Q 450 190 455 201 Q 460 211 458 224 Q 455 234 449 243 L 438 243 Q 430 224 417 206 Q 327 235 261 256 Q 253 259 250 253 Z M 33 269 35 259 Q 41 258 45 250 Q 64 201 83 143 L 35 151 L 25 141 Q 41 139 52 137 Q 55 136 63 135 Q 68 134 87 131 Q 102 83 115 36 Q 117 28 116 20 Q 115 13 110 7 L 118 0 L 148 17 Q 154 20 150 31 Q 136 78 120 125 L 166 117 Q 177 114 186 107 Q 189 105 194 99 Q 195 98 196 97 Q 199 95 202 96 L 230 106 Q 230 110 226 112 Q 219 118 208 120 L 116 137 Q 104 170 80 237 Q 75 249 73 255 L 127 244 V 202 Q 127 194 126 183 Q 124 176 120 167 L 128 160 L 164 180 L 162 188 Q 162 188 161 189 Q 159 194 159 197 Q 158 201 158 209 V 237 Q 167 235 174 228 L 185 218 Q 187 216 189 217 L 218 228 Q 218 232 215 234 Q 207 238 193 240 L 158 248 V 304 Q 194 293 233 280 L 236 288 L 158 323 V 458 Q 158 468 153 475 Q 149 480 140 482 L 121 459 V 451 Q 126 445 127 434 V 336 L 31 376 Q 23 381 18 375 L 0 348 L 7 341 Q 17 348 34 342 L 127 314 V 254 L 69 267 Q 66 273 63 277 Q 56 283 50 283 Z" fill="black" />
  </g>
  <g class="defect" id="01">
    <path d="M 372 78 Q 376 84 400 68" fill="none" stroke="red" stroke-width="3" />
  </g>
  <g class="defect" id="02">
    <path d="M 411 197 Q 405 190 377 160" fill="none" stroke="red" stroke-width="3" />
  </g>
  <g class="defect" id="03">
    <path d="M 314 113 Q 329 128 311 105" fill="none" stroke="red" stroke-width="3" />
  </g>
</svg>