<svg xmlns="http://www.w3.org/2000/svg" width="512" height="512" viewBox="0 0 512 512">
  <g class="glyph">
    <path d="M 55 317 Q 70 315 59 317 Q 70 315 87 313 Q 91 312 99 311 Q 133 306 150 302 Q 161 300 168 294 L 181 284 Q 184 282 187 283 L 217 295 Q 217 298 214 300 Q 205 307 195 308 L 66 330 Z M 320 64 325 54 Q 338 56 357 53 Q 421 31 432 35 Q 442 33 450 28 Q 456 26 462 20 Q 467 14 471 18 L 500 44 Q 499 48 496 52 Q 488 57 486 60 L 414 168 Q 457 189 480 217 Q 501 239 507 273 Q 512 305 500 323 Q 491 338 469 342 Q 464 324 449 313 Q 435 300 396 282 L 400 273 Q 442 287 471 296 Q 478 272 461 237 Q 443 200 401 171 Q 429 110 455 41 L 363 83 Q 358 86 354 84 Z M 317 91 325 83 366 106 363 117 Q 361 121 361 126 Q 360 131 360 137 V 480 Q 360 493 355 499 Q 350 505 340 507 L 321 481 V 472 Q 325 465 326 455 V 130 Q 326 119 324 109 Q 321 97 317 91 Z M 49 236 Q 69 235 81 232 L 148 220 Q 186 161 209 108 L 133 128 L 126 120 Q 117 131 107 143 Q 63 195 7 229 L 0 222 Q 49 182 87 128 Q 120 81 137 34 Q 143 21 137 9 L 146 0 L 180 19 Q 183 22 181 28 Q 160 74 129 116 Q 164 108 197 99 Q 202 97 206 93 Q 212 90 216 85 Q 220 80 225 83 L 254 106 Q 255 110 252 114 L 237 129 Q 200 178 164 218 L 221 206 Q 229 204 237 200 L 248 190 Q 248 190 251 188 Q 254 187 257 189 L 288 208 Q 288 209 288 210 Q 287 213 285 214 Q 285 215 285 215 Q 281 220 279 224 Q 276 231 275 237 L 256 360 L 288 371 Q 287 377 279 381 Q 271 384 261 386 L 50 419 L 37 408 L 72 403 Q 152 390 210 381 L 218 379 L 243 216 L 61 248 Z" fill="black" />
  </g>
  <g class="defect" id="01">
    <path d="M 357 53 Q 421 31 432 35" fill="none" stroke="red" stroke-width="3" />
  </g>
</svg>