<svg xmlns="http://www.w3.org/2000/svg" width="512" height="512" viewBox="0 0 512 512">
  <g class="glyph">
    <path d="M 292 110 300 101 342 125 339 136 Q 337 140 336 145 Q 335 150 335 156 V 485 Q 335 498 330 504 Q 324 511 315 512 L 296 486 V 476 Q 300 469 301 459 V 149 Q 301 138 299 128 Q 296 115 292 110 Z M 295 82 300 72 Q 313 74 332 70 Q 383 62 415 53 Q 424 50 432 46 Q 426 43 445 37 Q 434 18 454 35 L 483 62 Q 483 66 479 70 Q 471 75 469 78 Q 439 125 396 180 Q 438 200 464 231 Q 485 255 491 287 Q 497 321 484 339 Q 474 353 452 359 Q 448 340 432 328 Q 418 316 377 297 L 381 287 Q 389 290 405 295 Q 440 306 454 312 Q 461 287 444 250 Q 425 213 383 184 Q 412 128 438 59 L 339 102 Q 333 105 329 103 Z M 136 9 145 0 186 23 184 31 Q 182 37 181 42 Q 180 48 180 54 V 123 Q 187 123 204 113 L 218 101 Q 220 100 225 100 L 259 113 Q 259 114 259 115 Q 258 119 255 120 Q 246 125 232 127 L 180 137 V 209 L 200 206 Q 212 204 225 195 Q 235 189 242 182 Q 245 180 248 180 L 283 196 Q 283 200 280 202 Q 273 206 257 210 L 180 222 V 269 L 191 271 Q 212 276 225 281 Q 241 287 249 296 Q 261 306 260 322 Q 260 330 254 341 L 243 343 Q 231 323 215 306 Q 200 292 180 280 V 460 Q 180 470 174 477 Q 170 485 159 485 L 141 459 V 449 Q 146 446 146 433 V 275 Q 126 302 102 324 Q 60 363 11 388 L 5 379 Q 49 347 84 308 Q 116 273 139 229 L 14 249 L 0 237 Q 26 235 44 231 L 146 214 V 143 L 72 156 Q 58 176 38 195 L 30 190 Q 60 141 71 94 Q 74 84 68 70 L 76 61 L 105 75 Q 112 80 109 86 Q 97 117 82 141 L 146 130 V 46 Q 146 36 144 26 Q 142 16 136 9 Z" fill="black" />
  </g>
  <g class="defect" id="01">
    <path d="M 432 46 Q 426 43 445 37" fill="none" stroke="red" stroke-width="3" />
  </g>
  <g class="defect" id="02">
    <path d="M 445 37 Q 434 18 454 35" fill="none" stroke="red" stroke-width="3" />
  </g>
</svg>