<svg xmlns="http://www.w3.org/2000/svg" width="512" height="512" viewBox="0 0 512 512">
  <g class="glyph">
    <path d="M 13 398 Q 56 365 79 332 Q 84 323 81 312 L 88 306 L 114 325 Q 118 330 114 334 Q 91 358 74 370 Q 49 390 18 405 Z M 8 480 Q 66 435 95 389 Q 99 381 97 369 L 104 364 L 130 382 Q 134 385 130 391 Q 111 419 80 444 Q 54 466 15 487 Z M 123 55 Q 121 45 117 38 L 57 49 L 83 63 Q 82 67 80 71 L 77 81 Q 77 87 77 92 V 101 L 90 97 Q 91 96 93 95 Q 96 93 99 90 Q 101 87 103 89 L 121 99 Q 121 103 118 104 Q 113 107 103 110 Q 103 110 102 110 L 77 115 V 157 L 78 156 Q 79 156 81 156 Q 86 154 89 152 Q 91 151 95 148 Q 97 146 97 146 Q 99 144 102 144 L 119 154 Q 119 156 117 158 Q 117 159 117 160 Q 111 164 101 166 L 77 170 V 211 L 124 188 V 79 Q 124 64 123 55 Z M 178 126 182 118 Q 192 136 229 133 Q 251 102 264 71 L 178 92 L 166 81 Q 187 80 191 76 L 246 61 Q 252 60 260 53 Q 261 52 263 51 Q 268 47 270 45 Q 274 41 278 44 L 307 67 Q 307 71 304 75 Q 302 79 297 84 Q 291 89 288 93 Q 270 123 252 142 Q 268 150 278 158 Q 295 170 299 185 Q 303 195 295 206 L 283 209 Q 264 185 234 162 Q 208 187 175 202 L 169 194 Q 194 178 217 149 Q 197 134 178 126 Z M 317 121 325 112 366 136 Q 365 140 362 146 Q 360 150 360 155 Q 359 160 359 166 V 485 Q 359 499 353 505 Q 348 510 339 512 L 320 486 V 476 Q 325 471 326 460 V 160 Q 326 148 323 138 Q 321 126 317 121 Z M 321 92 327 82 Q 338 85 357 81 Q 388 74 426 64 Q 433 61 438 58 Q 440 56 445 52 Q 447 50 448 50 Q 453 45 457 48 L 489 73 Q 489 76 484 81 Q 479 85 476 89 Q 448 132 398 191 Q 448 215 472 244 Q 492 271 497 299 Q 503 331 490 350 Q 479 366 458 369 Q 450 354 431 338 Q 409 321 382 311 L 386 303 L 458 323 Q 466 297 450 263 Q 430 224 385 194 Q 425 123 444 70 Q 417 83 371 108 Q 367 111 364 112 Q 358 116 354 113 Z M 81 291 Q 123 276 149 261 Q 172 248 183 237 Q 192 229 191 217 L 199 213 L 225 232 Q 228 237 224 242 Q 213 260 160 276 L 156 278 L 188 293 L 186 301 Q 184 307 183 311 Q 181 317 181 323 V 346 L 197 353 Q 230 317 250 281 Q 256 268 251 260 L 258 252 L 288 268 Q 295 272 291 279 Q 265 307 248 323 Q 229 342 206 358 Q 217 362 228 368 Q 252 382 270 401 Q 285 416 287 429 Q 289 442 280 452 L 268 454 Q 250 425 223 397 Q 204 377 181 360 V 482 Q 181 493 176 500 Q 172 506 162 507 L 144 484 V 476 Q 149 472 149 460 V 317 Q 149 307 147 297 Q 145 289 142 283 Q 113 293 85 299 Z M 13 236 18 229 Q 32 232 42 227 L 48 225 V 93 Q 48 78 46 70 Q 45 60 41 52 L 13 57 L 0 45 Q 19 43 33 40 L 117 23 Q 124 22 137 14 L 152 3 Q 154 0 158 1 L 193 14 Q 193 18 187 21 Q 179 26 166 28 L 132 34 L 159 50 L 154 68 Q 153 74 153 81 V 174 L 172 164 L 177 170 L 153 187 V 236 Q 153 246 148 251 Q 144 257 136 260 L 119 240 V 233 Q 125 229 124 218 V 207 L 43 262 Q 35 267 31 262 Z" fill="black" />
  </g>
  <g class="defect" id="01">
    <path d="M 224 242 Q 213 260 160 276" fill="none" stroke="red" stroke-width="3" />
  </g>
  <g class="defect" id="02">
    <path d="M 182 118 Q 192 136 229 133" fill="none" stroke="red" stroke-width="3" />
  </g>
  <g class="defect" id="03">
    <path d="M 166 81 Q 187 80 191 76" fill="none" stroke="red" stroke-width="3" />
  </g>
</svg>