<svg xmlns="http://www.w3.org/2000/svg" width="512" height="512" viewBox="0 0 512 512">
  <g class="glyph">
    <path d="M 66 331 Q 104 326 125 322 Q 132 321 137 317 L 144 310 Q 148 308 150 310 L 173 319 Q 174 323 170 325 Q 164 329 153 331 L 73 342 Z M 250 246 255 239 Q 275 244 297 258 Q 314 269 323 283 Q 329 296 325 308 Q 322 315 314 323 H 302 Q 292 299 284 286 Q 271 265 250 246 Z M 174 264 Q 177 264 182 263 Q 210 262 197 262 V 185 L 157 192 Q 157 229 158 246 Q 157 265 174 264 Z M 0 97 Q 15 96 40 93 L 188 75 Q 193 74 203 68 Q 208 64 213 61 Q 216 59 218 60 L 245 72 Q 246 76 242 78 Q 237 82 225 83 Q 224 83 223 83 L 10 110 Z M 310 458 313 449 Q 328 452 349 454 Q 363 453 363 436 V 180 L 253 194 L 241 182 Q 253 182 278 179 L 363 167 V 45 Q 363 34 361 26 Q 358 13 354 7 L 362 0 L 403 23 Q 403 26 402 29 Q 401 30 401 31 L 397 41 Q 396 47 396 53 V 163 L 424 159 Q 448 156 455 151 Q 465 145 474 138 Q 490 137 479 137 L 512 153 Q 511 156 509 158 Q 502 161 488 163 Q 486 163 485 163 L 396 176 V 460 Q 396 479 385 491 Q 373 503 354 503 Q 352 485 341 475 Q 331 465 310 458 Z M 99 128 Q 102 130 102 134 Q 103 144 103 156 Q 103 166 103 188 L 135 184 L 135 135 Q 122 135 127 109 L 135 102 L 163 121 Q 163 123 163 127 Q 163 125 162 128 L 159 138 Q 157 144 157 149 V 181 L 179 177 Q 190 174 196 170 Q 202 167 206 162 Q 210 158 213 160 L 236 179 Q 235 183 233 186 L 227 195 Q 225 201 225 207 V 402 Q 225 414 219 425 Q 214 433 202 436 L 183 401 L 45 417 Q 45 430 40 435 Q 37 442 29 444 L 13 420 V 412 Q 18 408 18 396 V 222 Q 18 207 16 201 Q 15 196 9 186 L 16 179 L 50 197 Q 51 200 49 204 L 46 215 Q 45 220 45 226 V 404 Q 50 404 56 403 L 193 387 Q 197 381 197 373 V 287 Q 182 290 168 288 Q 135 286 135 248 Q 135 233 135 195 L 103 199 Q 103 231 97 259 Q 87 294 64 315 L 56 309 Q 74 283 79 255 Q 83 233 82 202 L 69 204 L 58 193 L 82 192 Q 80 167 77 145 Q 75 129 66 123 L 72 114 Z" fill="black" />
  </g>
  <g class="defect" id="01">
    <path d="M 135 135 Q 122 135 127 109" fill="none" stroke="red" stroke-width="3" />
  </g>
  <g class="defect" id="02">
    <path d="M 182 263 Q 210 262 197 262" fill="none" stroke="red" stroke-width="3" />
  </g>
  <g class="defect" id="03">
    <path d="M 474 138 Q 490 137 479 137" fill="none" stroke="red" stroke-width="3" />
  </g>
</svg>