<svg xmlns="http://www.w3.org/2000/svg" width="512" height="512" viewBox="0 0 512 512">
  <g class="glyph">
    <path d="M 2 86 7 77 Q 22 81 36 77 Q 42 89 91 63 Q 95 61 98 61 Q 103 59 110 54 Q 115 51 117 47 Q 119 45 124 46 L 155 68 Q 156 72 153 75 Q 144 80 139 87 Q 105 124 76 154 Q 97 163 111 179 Q 132 200 136 231 Q 139 256 127 273 Q 120 285 103 289 Q 100 274 89 263 Q 77 251 56 241 L 59 233 L 102 246 Q 108 217 97 196 Q 87 173 62 156 Q 93 109 115 67 Q 113 69 109 71 Q 69 93 44 105 Q 38 109 35 106 Z M 0 113 7 105 46 127 44 133 Q 42 139 41 144 Q 40 149 40 155 V 444 Q 40 454 36 460 Q 32 466 22 468 L 3 443 V 434 Q 7 429 8 419 V 148 Q 9 138 7 129 Q 5 121 0 113 Z M 148 256 150 248 Q 157 248 162 241 Q 185 204 217 139 L 225 123 L 167 134 L 155 123 Q 168 122 188 118 L 230 110 Q 243 82 258 43 Q 261 33 261 22 Q 263 14 258 6 L 268 0 L 298 20 Q 302 23 300 28 Q 293 46 272 92 Q 269 98 267 102 L 327 90 Q 338 89 348 82 Q 353 79 358 73 Q 363 69 367 71 L 396 80 Q 396 85 391 87 Q 384 92 374 93 L 261 115 L 249 139 Q 216 207 192 245 Q 194 245 197 244 Q 205 243 221 240 Q 234 239 267 233 V 199 Q 267 183 266 176 Q 264 168 258 158 L 266 150 L 305 170 Q 305 171 303 175 Q 303 176 303 177 Q 301 181 300 186 Q 299 191 299 198 V 228 L 333 223 Q 344 221 354 216 Q 360 212 366 206 Q 368 204 373 205 L 402 217 Q 402 221 396 224 Q 390 227 379 228 L 299 240 V 323 L 394 311 Q 407 310 416 306 Q 422 303 429 294 Q 432 292 436 293 L 468 306 Q 467 311 462 314 Q 456 316 441 319 L 299 336 V 488 Q 299 497 293 504 Q 289 510 280 512 L 261 488 V 480 Q 247 475 267 466 V 339 L 106 358 L 95 345 Q 113 345 131 343 L 267 327 V 245 L 183 259 Q 178 266 173 268 Q 169 272 162 271 Z" fill="black" />
  </g>
  <g class="defect" id="01">
    <path d="M 261 480 Q 247 475 267 466" fill="none" stroke="red" stroke-width="3" />
  </g>
  <g class="defect" id="02">
    <path d="M 36 77 Q 42 89 91 63" fill="none" stroke="red" stroke-width="3" />
  </g>
</svg>