<svg xmlns="http://www.w3.org/2000/svg" width="512" height="512" viewBox="0 0 512 512">
  <g class="glyph">
    <path d="M 311 8 316 0 Q 340 1 357 7 Q 376 13 384 24 Q 393 34 391 45 Q 390 54 384 64 L 372 66 Q 362 49 347 35 Q 332 20 311 8 Z M 0 353 5 342 Q 20 349 37 342 Q 49 338 74 330 Q 102 322 170 298 L 173 307 Q 116 338 37 379 Q 28 384 25 378 Z M 56 60 149 41 Q 162 38 172 33 Q 178 30 187 22 Q 190 19 194 21 L 221 45 Q 222 49 217 52 L 210 62 Q 207 66 205 72 L 181 190 Q 179 204 174 211 Q 167 220 159 221 L 145 192 L 145 182 Q 152 181 154 172 L 179 48 L 65 71 Z M 280 438 Q 329 409 369 370 Q 406 335 428 298 Q 437 280 435 266 L 444 261 L 471 280 Q 476 284 473 289 Q 450 325 418 358 Q 453 369 477 385 Q 497 397 505 411 Q 500 436 509 434 Q 506 443 500 448 L 489 450 Q 475 429 452 404 Q 428 380 408 367 Q 396 378 384 388 Q 340 424 285 446 Z M 54 265 V 256 Q 60 253 63 242 Q 75 184 83 135 Q 86 125 82 116 Q 81 112 76 106 Q 75 105 74 104 L 83 96 L 113 108 Q 118 110 118 116 Q 116 128 111 153 Q 88 212 94 245 L 190 223 Q 198 221 204 218 Q 210 216 215 210 Q 221 206 223 210 L 245 236 Q 245 241 243 243 Q 238 247 236 251 Q 231 256 231 262 Q 217 361 207 409 Q 202 433 187 444 Q 175 453 154 452 Q 153 442 142 428 Q 130 416 117 408 L 121 400 Q 141 409 155 413 Q 172 418 175 402 Q 193 311 201 234 L 91 259 L 88 269 Q 81 278 74 280 Z M 261 225 271 216 Q 276 220 283 222 Q 318 181 335 148 Q 340 137 336 125 L 234 143 L 223 132 L 262 127 Q 354 110 446 94 Q 456 92 465 86 L 478 76 Q 481 74 484 74 L 511 86 Q 495 99 509 91 Q 504 96 490 98 L 350 123 L 373 139 Q 379 145 374 152 Q 340 192 301 223 Q 336 221 389 217 Q 395 207 399 198 Q 405 185 401 171 L 410 165 L 439 188 Q 444 192 439 200 Q 404 261 353 311 Q 302 359 243 388 L 238 380 Q 280 352 331 296 Q 363 261 382 230 Q 375 232 364 236 Q 314 250 285 257 Q 274 260 272 253 Z" fill="black" />
  </g>
  <g class="defect" id="01">
    <path d="M 505 411 Q 500 436 509 434" fill="none" stroke="red" stroke-width="3" />
  </g>
  <g class="defect" id="02">
    <path d="M 511 86 Q 495 99 509 91" fill="none" stroke="red" stroke-width="3" />
  </g>
  <g class="defect" id="03">
    <path d="M 111 153 Q 88 212 94 245" fill="none" stroke="red" stroke-width="3" />
  </g>
</svg>