<svg xmlns="http://www.w3.org/2000/svg" width="512" height="512" viewBox="0 0 512 512">
  <g class="glyph">
    <path d="M 91 15 96 7 Q 126 14 144 22 Q 161 30 170 42 Q 176 53 173 65 Q 171 78 165 85 L 153 87 Q 142 64 128 47 Q 113 30 91 15 Z M 13 156 Q 28 154 42 149 Q 108 137 191 118 Q 200 116 211 110 Q 205 91 226 97 Q 228 94 233 95 L 263 105 Q 264 108 259 111 Q 251 117 242 118 L 26 167 Z M 397 365 402 357 Q 444 372 474 395 Q 487 404 498 417 Q 508 431 510 445 Q 512 458 503 472 L 491 472 Q 475 443 454 418 Q 425 385 397 365 Z M 0 451 Q 39 421 58 380 Q 72 347 76 310 Q 80 277 78 245 Q 78 236 73 227 Q 71 220 64 214 L 68 205 L 105 213 Q 123 215 110 221 Q 113 269 108 306 Q 102 358 81 392 Q 56 435 5 458 Z M 337 132 Q 348 131 358 129 Q 395 123 433 115 Q 441 114 446 110 Q 449 108 454 105 Q 457 103 458 101 Q 462 99 466 101 L 491 120 Q 491 120 490 124 Q 490 127 489 129 Q 488 131 486 134 Q 486 136 485 137 Q 483 143 482 149 V 318 Q 482 330 476 339 Q 472 346 463 348 L 445 321 V 313 Q 451 306 451 296 V 125 L 347 144 Z M 216 454 Q 279 427 312 395 Q 348 358 357 308 Q 366 263 366 204 Q 366 191 357 182 L 364 172 L 394 183 Q 400 184 400 192 Q 400 265 390 310 Q 376 373 333 408 Q 294 444 222 463 Z M 140 407 146 398 Q 153 400 159 397 L 171 209 L 129 220 L 121 210 Q 146 204 162 199 Q 168 197 171 195 Q 196 191 181 187 Q 184 183 189 186 L 212 206 Q 212 210 210 212 Q 208 214 204 221 Q 200 226 200 230 L 192 368 Q 213 347 249 308 L 256 314 Q 223 371 176 435 Q 169 442 163 436 Z M 278 136 286 128 313 141 Q 314 138 318 134 Q 331 111 337 98 Q 347 77 349 67 Q 351 57 349 49 L 273 62 L 261 50 Q 275 48 265 49 Q 275 48 291 45 Q 366 34 445 21 Q 454 20 461 15 Q 465 12 474 5 Q 477 3 478 2 Q 481 0 483 1 L 512 13 Q 512 17 510 19 Q 505 24 490 26 L 364 46 L 384 58 Q 392 63 386 70 Q 374 89 359 107 Q 350 119 329 140 Q 325 144 323 146 L 318 167 Q 317 173 317 179 V 318 Q 317 328 314 335 Q 309 343 301 347 L 280 325 V 316 Q 286 310 286 297 V 175 Q 286 164 284 154 Q 283 146 278 136 Z" fill="black" />
  </g>
  <g class="defect" id="01">
    <path d="M 171 195 Q 196 191 181 187" fill="none" stroke="red" stroke-width="3" />
  </g>
  <g class="defect" id="02">
    <path d="M 105 213 Q 123 215 110 221" fill="none" stroke="red" stroke-width="3" />
  </g>
  <g class="defect" id="03">
    <path d="M 211 110 Q 205 91 226 97" fill="none" stroke="red" stroke-width="3" />
  </g>
</svg>