<svg xmlns="http://www.w3.org/2000/svg" width="512" height="512" viewBox="0 0 512 512">
  <g class="glyph">
    <path d="M 275 339 Q 283 339 298 338 Q 287 339 300 338 Q 315 337 345 333 Q 361 331 368 330 Q 379 329 388 323 L 402 313 Q 404 311 407 313 L 436 326 Q 436 329 433 331 Q 426 337 413 338 L 287 353 Z M 0 351 6 341 Q 21 348 41 342 Q 109 323 181 305 L 184 315 Q 112 347 41 380 Q 31 384 26 379 Z M 69 68 93 63 Q 101 62 115 59 Q 156 55 157 51 Q 171 49 182 43 Q 190 39 198 32 Q 203 29 205 31 L 234 56 Q 235 60 231 64 L 223 73 Q 219 79 218 85 L 196 199 Q 195 211 189 220 Q 183 229 173 231 L 156 201 L 157 191 Q 165 189 166 181 L 189 58 L 79 79 Z M 59 277 V 267 Q 66 265 69 253 L 91 151 Q 93 141 89 131 Q 88 127 83 121 Q 82 120 81 119 L 90 111 L 121 123 Q 127 126 126 132 Q 117 187 103 250 Q 107 250 109 249 L 198 231 Q 206 229 213 226 Q 216 225 223 219 Q 225 219 225 218 Q 231 213 235 217 L 257 243 Q 257 247 255 251 L 247 259 Q 242 266 241 271 Q 232 341 217 422 Q 213 445 196 457 Q 182 467 160 466 Q 159 453 148 441 Q 153 444 121 421 L 125 411 Q 142 419 162 425 Q 182 430 184 413 Q 199 337 211 242 L 100 265 L 95 281 Q 88 291 80 292 Z M 275 253 Q 285 253 304 251 Q 306 251 307 251 L 349 245 Q 392 187 427 122 L 340 138 L 333 131 Q 299 178 251 216 L 244 208 Q 281 167 307 119 Q 327 83 348 35 Q 353 20 348 8 L 357 0 L 391 20 Q 395 22 392 29 Q 361 91 336 126 Q 371 121 418 111 Q 423 110 428 106 Q 431 104 437 98 Q 442 94 446 97 L 475 123 Q 474 127 470 131 L 463 137 Q 459 140 454 145 Q 417 194 366 243 L 443 232 Q 449 231 459 226 L 471 216 Q 477 212 480 215 L 512 237 Q 511 241 509 243 L 503 252 Q 499 259 497 265 L 468 405 L 500 419 Q 499 425 490 428 Q 482 431 471 431 L 265 446 L 253 433 L 421 422 Q 425 422 429 421 L 465 241 L 287 266 Z" fill="black" />
  </g>
  <g class="defect" id="01">
    <path d="M 115 59 Q 156 55 157 51" fill="none" stroke="red" stroke-width="3" />
  </g>
  <g class="defect" id="02">
    <path d="M 148 441 Q 153 444 121 421" fill="none" stroke="red" stroke-width="3" />
  </g>
</svg>