<svg xmlns="http://www.w3.org/2000/svg" width="512" height="512" viewBox="0 0 512 512">
  <g class="glyph">
    <path d="M 133 55 Q 138 54 147 52 Q 149 52 151 52 L 204 42 Q 212 39 219 35 Q 226 31 233 24 Q 236 22 239 23 L 267 33 Q 266 36 263 38 Q 258 44 248 45 L 143 65 Z M 384 336 390 328 Q 418 340 448 363 Q 465 376 476 389 Q 489 405 489 416 Q 490 427 481 440 L 469 442 Q 457 416 433 385 Q 410 357 384 336 Z M 176 144 190 142 Q 205 139 219 134 Q 220 134 222 133 Q 227 132 229 130 Q 237 125 241 122 Q 244 117 247 120 L 268 138 Q 268 142 265 147 L 260 153 Q 257 157 256 162 L 245 236 Q 243 255 237 262 Q 226 273 209 272 Q 209 263 202 252 Q 196 243 188 239 L 191 231 Q 202 235 210 236 Q 218 236 219 228 L 232 144 L 186 155 Z M 339 132 Q 345 131 355 130 Q 354 130 358 129 Q 398 123 427 116 Q 432 115 441 110 L 452 102 Q 456 100 459 102 L 483 120 Q 484 121 481 125 Q 481 127 480 128 L 477 135 Q 474 141 474 146 V 310 Q 474 320 469 329 Q 465 335 456 337 L 440 312 V 305 Q 445 299 445 289 V 125 L 348 142 Z M 222 424 Q 285 398 313 371 Q 347 341 357 292 Q 366 258 367 199 Q 367 187 358 178 L 365 169 L 394 179 Q 399 180 399 188 Q 399 250 388 295 Q 363 353 332 386 Q 296 414 227 433 Z M 107 376 112 366 Q 125 370 139 363 Q 141 312 142 261 L 142 179 Q 142 169 140 161 Q 138 154 133 147 L 140 139 L 167 148 Q 171 149 171 155 Q 170 207 167 258 L 160 352 Q 200 331 239 308 L 245 316 Q 189 364 140 402 Q 133 406 128 402 Z M 0 395 Q 42 339 62 281 Q 98 228 89 165 Q 93 126 95 88 Q 96 73 94 65 Q 92 58 87 49 L 95 42 L 124 59 Q 127 61 127 68 Q 123 134 116 176 Q 106 242 88 287 Q 60 353 6 402 Z M 283 135 291 127 316 139 Q 327 121 337 99 Q 344 81 349 65 Q 352 56 349 48 L 284 59 L 274 47 Q 287 47 302 44 Q 376 32 450 19 Q 458 19 465 14 L 481 2 Q 483 0 485 1 L 512 12 Q 512 15 510 17 Q 505 22 492 24 L 363 46 L 381 57 Q 389 61 384 68 Q 371 87 357 107 Q 354 110 349 117 Q 333 135 324 144 L 322 154 Q 322 154 321 156 Q 320 161 320 164 Q 320 169 320 175 V 306 Q 320 313 316 322 Q 296 311 305 332 L 284 313 V 305 Q 291 299 291 287 V 171 Q 291 161 289 152 Q 286 141 283 135 Z" fill="black" />
  </g>
  <g class="defect" id="01">
    <path d="M 316 322 Q 296 311 305 332" fill="none" stroke="red" stroke-width="3" />
  </g>
  <g class="defect" id="02">
    <path d="M 62 281 Q 98 228 89 165" fill="none" stroke="red" stroke-width="3" />
  </g>
  <g class="defect" id="03">
    <path d="M 388 295 Q 363 353 332 386" fill="none" stroke="red" stroke-width="3" />
  </g>
</svg>