<svg xmlns="http://www.w3.org/2000/svg" width="512" height="512" viewBox="0 0 512 512">
  <g class="glyph">
    <path d="M 140 318 Q 141 318 143 318 Q 158 316 175 314 Q 178 313 180 302 L 199 195 L 119 207 L 145 221 Q 145 226 144 229 Q 143 230 143 232 Q 141 236 141 239 Q 140 243 140 249 V 257 L 146 253 Q 152 251 156 246 Q 157 245 160 245 L 178 255 Q 179 259 176 262 Q 171 264 159 266 H 159 L 140 269 Z M 0 422 6 413 Q 19 420 38 415 Q 127 391 213 366 L 217 374 Q 103 426 40 453 Q 30 459 24 452 Z M 323 267 331 260 371 282 Q 371 287 370 290 Q 369 293 367 299 Q 367 299 367 300 Q 366 306 366 311 V 328 L 378 326 Q 387 325 396 320 Q 405 314 411 308 Q 413 306 416 308 L 445 321 Q 445 324 443 326 Q 432 332 423 333 L 366 341 V 418 L 424 413 Q 441 412 455 405 Q 467 401 473 395 Q 476 392 480 394 L 512 410 Q 510 414 508 415 Q 500 420 484 421 L 202 444 L 192 432 L 227 429 Q 234 429 248 428 Q 303 423 332 421 V 345 L 265 353 L 254 341 L 332 332 V 311 Q 332 300 331 287 Q 328 273 323 267 Z M 323 7 331 0 371 23 Q 372 26 370 31 L 367 41 Q 366 50 366 53 V 144 L 374 142 Q 384 140 392 135 Q 399 131 404 125 Q 422 122 412 122 L 440 133 Q 440 137 437 139 Q 430 145 419 147 L 366 157 V 231 Q 370 231 378 229 Q 390 227 416 223 Q 427 220 435 215 L 448 205 Q 452 203 455 204 L 483 216 Q 484 218 480 222 Q 475 224 464 227 Q 462 227 462 227 L 246 263 L 235 252 L 332 238 V 163 L 278 173 L 267 161 Q 280 159 294 156 L 332 150 V 51 Q 332 37 331 28 Q 329 15 323 7 Z M 61 204 106 198 Q 127 167 163 112 Q 166 106 168 104 L 101 118 Q 63 157 11 190 L 4 182 Q 49 145 74 111 Q 96 84 111 50 Q 117 35 113 24 L 120 18 L 150 36 Q 155 40 152 46 Q 136 77 113 103 Q 125 101 148 96 Q 156 94 159 94 Q 164 93 169 89 Q 169 89 171 87 Q 176 84 177 83 Q 181 79 185 82 L 210 103 Q 211 106 206 111 Q 203 113 199 117 Q 196 118 194 122 L 120 196 Q 136 194 166 190 Q 174 188 178 188 Q 185 187 195 182 Q 201 180 206 176 Q 197 153 214 174 L 237 194 Q 237 197 234 199 L 230 204 Q 227 208 226 214 L 208 320 Q 207 329 202 334 Q 197 341 189 343 L 173 326 L 78 338 Q 80 345 78 351 Q 76 356 69 358 L 46 348 L 45 339 Q 47 332 46 325 L 29 230 Q 27 222 24 217 Q 22 211 15 206 L 21 197 L 58 207 L 57 222 Q 57 225 59 231 Q 57 227 59 232 L 76 327 Q 78 327 83 327 Q 80 327 85 326 L 113 322 V 273 L 84 277 L 74 267 L 113 262 V 249 Q 113 239 111 227 Q 109 215 105 209 L 72 214 Z" fill="black" />
  </g>
  <g class="defect" id="01">
    <path d="M 404 125 Q 422 122 412 122" fill="none" stroke="red" stroke-width="3" />
  </g>
  <g class="defect" id="02">
    <path d="M 206 176 Q 197 153 214 174" fill="none" stroke="red" stroke-width="3" />
  </g>
</svg>