<svg xmlns="http://www.w3.org/2000/svg" width="512" height="512" viewBox="0 0 512 512">
  <g class="glyph">
    <path d="M 260 179 333 166 Q 343 164 351 158 Q 358 154 362 149 Q 364 147 367 148 L 395 159 Q 395 161 392 163 Q 385 168 374 170 L 270 188 Z M 214 151 215 143 Q 223 135 229 123 Q 238 104 243 83 H 252 Q 258 105 254 134 Q 249 160 237 174 L 228 175 Z M 282 8 287 0 Q 288 0 289 1 Q 315 2 327 7 Q 343 13 350 24 Q 356 32 356 43 Q 355 53 348 62 L 336 63 Q 324 43 313 33 Q 300 20 282 8 Z M 218 254 Q 230 252 245 249 Q 319 236 383 224 Q 405 223 401 217 L 413 207 Q 416 205 418 206 L 444 217 Q 444 220 442 222 Q 437 226 424 228 L 228 264 Z M 178 175 109 186 133 199 Q 133 204 132 206 Q 132 208 131 209 Q 130 214 129 216 Q 128 220 128 225 V 228 L 130 227 Q 136 224 141 221 Q 141 220 145 220 L 162 229 Q 163 231 159 234 Q 156 237 146 238 Q 144 239 144 239 L 128 241 V 288 L 155 284 Q 159 283 160 273 Z M 0 380 6 371 Q 23 377 36 373 Q 105 356 190 331 L 193 340 L 38 410 Q 29 415 23 407 Z M 267 102 Q 274 100 288 98 Q 294 97 297 96 Q 321 91 371 81 Q 388 78 395 76 Q 414 72 422 65 L 435 56 Q 440 53 442 56 L 474 92 Q 471 97 462 100 Q 452 103 443 108 Q 441 110 437 113 Q 428 119 423 123 L 398 144 L 390 139 L 425 81 L 278 111 Z M 153 412 Q 202 379 228 349 Q 252 324 268 291 Q 273 282 271 268 L 279 262 L 307 279 Q 310 282 307 287 Q 285 327 251 359 Q 209 398 158 420 Z M 328 257 336 249 372 269 Q 371 274 370 276 Q 369 278 368 280 Q 367 282 367 284 Q 366 287 366 295 L 364 349 Q 361 381 388 388 Q 414 395 449 388 Q 465 383 476 373 Q 487 361 492 345 L 500 348 Q 496 361 501 374 Q 504 382 512 385 Q 510 398 495 406 Q 484 413 464 417 Q 407 426 375 416 Q 333 402 334 351 L 335 282 Q 336 275 334 268 Q 333 262 328 257 Z M 59 183 Q 64 182 74 181 Q 79 181 82 180 L 100 178 L 160 89 L 100 100 L 88 115 Q 63 142 28 166 L 21 159 Q 56 126 74 99 Q 91 75 101 44 Q 106 30 101 19 L 108 14 L 138 29 Q 143 32 139 39 Q 126 65 111 87 L 151 78 Q 156 78 160 74 L 168 68 Q 172 65 175 67 L 198 88 Q 199 92 195 96 Q 191 97 188 100 L 183 105 Q 169 120 138 152 Q 123 167 115 175 L 157 168 Q 165 167 172 163 Q 192 160 182 157 Q 186 154 190 156 L 212 174 Q 212 178 210 179 Q 208 182 206 184 Q 203 187 202 193 L 185 290 Q 184 299 180 304 Q 175 310 167 312 L 153 295 L 74 306 Q 75 313 74 318 Q 72 323 66 325 L 45 315 L 43 307 Q 45 300 44 294 L 29 207 Q 28 203 25 196 Q 25 196 25 195 Q 23 191 16 184 L 22 176 L 56 185 L 55 191 Q 54 193 55 197 Q 55 199 55 200 Q 55 202 56 208 Q 55 204 56 209 L 72 295 L 103 292 V 245 L 81 248 L 71 239 L 103 234 V 225 Q 103 216 102 205 Q 100 192 96 188 L 69 192 Z" fill="black" />
  </g>
  <g class="defect" id="01">
    <path d="M 383 224 Q 405 223 401 217" fill="none" stroke="red" stroke-width="3" />
  </g>
  <g class="defect" id="02">
    <path d="M 172 163 Q 192 160 182 157" fill="none" stroke="red" stroke-width="3" />
  </g>
</svg>