<svg xmlns="http://www.w3.org/2000/svg" width="512" height="512" viewBox="0 0 512 512">
  <g class="glyph">
    <path d="M 273 239 326 231 Q 336 229 342 226 L 351 218 Q 353 217 355 218 L 372 227 Q 372 231 370 232 Q 363 236 353 238 L 282 249 Z M 305 121 Q 308 123 308 127 L 308 152 Q 322 150 336 147 L 337 129 Q 338 122 336 115 Q 335 110 332 105 L 289 113 Z M 242 40 247 32 Q 267 36 281 44 Q 292 49 296 58 Q 299 64 295 74 Q 294 79 289 85 L 278 86 Q 270 70 265 63 Q 256 51 242 40 Z M 247 377 253 370 Q 271 375 281 381 Q 292 388 298 397 Q 304 408 300 418 Q 297 426 289 432 H 278 Q 272 412 266 402 Q 261 392 247 377 Z M 324 71 Q 348 48 362 22 Q 369 13 365 4 L 375 0 L 402 20 Q 405 23 403 27 Q 388 42 369 55 Q 346 71 329 78 Z M 162 221 94 235 117 248 Q 117 253 116 256 Q 115 257 115 259 Q 113 263 113 266 Q 112 270 112 273 L 115 272 Q 120 268 125 265 Q 126 263 129 264 L 147 273 Q 148 275 144 278 Q 139 281 129 283 L 112 286 V 331 L 140 327 Q 144 325 145 315 Z M 0 422 6 413 Q 21 419 36 416 Q 100 397 186 369 L 189 377 Q 119 415 40 453 Q 29 458 24 451 Z M 46 233 Q 57 232 69 229 L 91 225 Q 109 194 131 150 L 77 159 Q 50 192 15 213 L 9 205 Q 39 175 54 153 Q 70 130 78 102 Q 85 85 82 76 L 90 71 L 116 90 Q 120 94 117 101 Q 103 127 87 147 Q 101 144 122 139 Q 127 139 131 135 Q 132 134 134 133 Q 138 130 139 129 Q 143 125 147 128 L 170 149 Q 172 154 167 156 Q 166 157 162 159 Q 161 161 161 161 Q 158 164 155 167 L 105 223 Q 124 219 143 215 Q 150 213 158 209 Q 163 206 168 202 Q 172 199 175 201 L 197 220 Q 197 222 195 224 Q 195 224 194 224 L 190 231 Q 187 235 187 239 L 170 332 Q 169 342 165 346 Q 160 353 153 354 L 139 338 L 62 350 L 63 351 Q 64 357 62 362 Q 59 368 53 370 L 32 360 L 31 351 Q 34 345 32 338 L 15 257 Q 32 235 10 245 Q 9 239 2 234 L 8 224 L 42 235 L 42 241 Q 41 243 42 246 Q 42 248 42 249 Q 42 254 43 259 L 60 339 Q 64 339 67 338 L 87 335 V 291 L 63 295 L 53 286 L 87 281 V 275 Q 88 266 86 254 Q 84 242 80 238 L 56 242 Z M 254 161 Q 267 159 277 158 L 286 156 L 286 142 Q 285 131 283 125 Q 280 120 276 115 L 197 128 L 185 117 Q 194 117 213 113 Q 220 112 223 111 L 372 86 Q 390 83 402 76 Q 406 74 414 68 Q 417 66 419 64 Q 421 63 424 64 L 456 76 Q 455 80 453 82 Q 446 86 430 88 L 344 104 L 365 118 L 362 124 Q 361 124 359 128 Q 359 129 359 129 Q 357 132 357 136 L 357 143 L 376 140 Q 381 139 391 134 Q 398 131 402 128 Q 407 124 410 126 L 434 146 Q 434 149 431 151 L 426 158 Q 424 161 424 165 L 417 270 Q 416 277 411 283 Q 406 289 397 290 L 383 272 L 354 277 L 383 292 Q 383 296 381 299 Q 380 305 378 308 Q 376 314 376 319 V 327 L 394 324 Q 411 321 424 314 Q 432 309 440 302 Q 443 300 445 301 L 478 315 Q 477 319 474 321 Q 467 325 454 327 Q 452 327 451 327 L 376 338 V 472 Q 376 491 366 502 Q 357 511 338 512 Q 336 495 329 487 Q 324 479 305 471 L 308 462 Q 323 465 334 465 Q 345 464 345 449 V 343 L 212 363 L 197 352 Q 215 351 235 348 L 345 332 V 312 Q 345 299 344 294 Q 342 286 338 279 L 256 292 Q 256 293 254 296 Q 254 297 254 297 Q 251 304 245 307 L 226 292 L 224 285 Q 227 281 228 273 L 222 192 Q 239 191 221 188 Q 221 180 220 177 Q 217 169 212 164 L 216 157 L 251 167 Q 251 171 251 175 Q 251 179 250 182 L 256 281 L 382 261 Q 386 261 389 259 Q 390 258 391 255 Q 391 254 391 253 L 398 147 L 356 155 L 355 167 Q 355 184 364 186 Q 369 186 378 185 Q 381 185 382 185 Q 388 184 389 188 L 392 199 Q 394 205 387 207 Q 378 208 362 208 Q 332 207 335 173 L 335 158 L 307 164 Q 304 184 296 202 Q 290 215 275 232 L 268 226 Q 278 214 283 193 Q 286 180 286 167 L 264 171 Z" fill="black" />
  </g>
  <g class="defect" id="01">
    <path d="M 222 192 Q 239 191 221 188" fill="none" stroke="red" stroke-width="3" />
  </g>
  <g class="defect" id="02">
    <path d="M 15 257 Q 32 235 10 245" fill="none" stroke="red" stroke-width="3" />
  </g>
</svg>