<svg xmlns="http://www.w3.org/2000/svg" width="512" height="512" viewBox="0 0 512 512">
  <g class="glyph">
    <path d="M 317 70 342 98 323 107 317 154 330 175 79 186 77 237 Q 347 228 365 221 L 393 247 Q 354 244 70 261 L 58 270 L 37 242 L 54 230 L 58 54 Q 58 14 54 2 L 61 0 L 77 26 Q 317 12 344 5 L 370 30 Q 328 28 81 47 L 79 98 L 300 84 Z M 21 335 0 310 Q 47 310 296 293 L 319 277 L 335 312 L 310 314 Q 154 377 105 406 Q 56 435 57 453 Q 58 470 86 478 Q 114 486 171 489 Q 228 491 282 489 Q 335 486 363 483 Q 391 479 394 468 Q 398 456 398 398 H 410 Q 410 424 412 454 Q 414 484 426 491 Q 405 503 377 505 Q 349 507 289 510 Q 238 522 159 510 Q 91 507 64 496 Q 37 484 34 462 Q 30 440 64 410 Q 98 379 258 314 Q 30 330 21 335 Z M 298 105 79 119 V 163 L 293 154 Z" fill="black" />
  </g>
  <g class="defect" id="01">
    <path d="M 289 510 Q 238 522 159 510" fill="none" stroke="red" stroke-width="3" />
  </g>
</svg>