<svg xmlns="http://www.w3.org/2000/svg" width="512" height="512" viewBox="0 0 512 512">
  <g class="glyph">
    <path d="M 447 67 Q 411 65 228 81 V 120 L 348 108 L 362 90 L 387 108 L 374 127 V 277 Q 393 321 364 314 L 344 288 Q 355 279 353 249 V 129 L 228 138 V 180 Q 281 178 295 171 L 321 194 Q 291 194 228 198 V 233 Q 295 226 300 224 L 325 247 Q 295 247 228 251 V 279 Q 231 309 221 309 L 198 277 Q 208 272 208 254 Q 152 258 134 263 L 118 238 Q 148 240 208 233 V 201 Q 166 203 141 208 L 118 185 Q 148 187 208 182 V 141 L 99 150 V 279 Q 101 318 95 316 L 69 284 Q 78 274 78 258 V 157 Q 78 138 71 111 L 78 106 L 101 129 L 208 120 V 83 Q 46 92 30 97 L 0 71 Q 46 74 208 62 V 44 Q 205 9 196 5 L 201 0 L 240 23 Q 228 30 228 58 V 60 Q 309 55 355 51 Q 330 28 304 7 L 309 0 Q 346 14 364 23 Q 362 39 357 51 Q 408 44 417 39 Z M 35 364 16 339 Q 62 341 309 318 L 332 307 L 355 332 L 334 334 Q 263 360 212 382 Q 161 404 130 423 Q 99 443 92 458 Q 85 473 100 482 Q 115 491 175 491 Q 238 491 304 490 Q 371 489 396 484 Q 420 480 423 466 Q 427 452 427 411 H 436 Q 434 436 438 459 Q 443 482 454 487 Q 441 500 411 505 Q 381 510 309 511 Q 225 498 175 512 Q 113 512 91 505 Q 69 498 62 477 Q 55 457 96 423 Q 136 390 261 341 Q 58 360 35 364 Z" fill="black" />
  </g>
  <g class="defect" id="01">
    <path d="M 374 277 Q 393 321 364 314" fill="none" stroke="red" stroke-width="3" />
  </g>
  <g class="defect" id="02">
    <path d="M 309 511 Q 225 498 175 512" fill="none" stroke="red" stroke-width="3" />
  </g>
</svg>