<svg xmlns="http://www.w3.org/2000/svg" width="512" height="512" viewBox="0 0 512 512">
  <g class="glyph">
    <path d="M 317 443 Q 428 437 443 431 L 473 454 Q 435 452 314 462 Q 193 471 174 476 L 148 452 Q 189 454 296 443 L 302 300 Q 249 304 238 308 L 221 289 Q 189 345 135 398 L 129 392 Q 212 291 257 169 Q 208 176 180 182 L 156 159 Q 180 159 263 150 Q 285 92 291 56 Q 298 19 287 9 L 296 4 L 328 41 Q 321 36 314 65 Q 306 94 287 148 Q 409 133 422 126 L 446 150 Q 418 150 281 167 Q 257 227 223 287 Q 371 272 398 261 L 422 285 Q 390 287 317 298 L 330 306 Q 321 321 321 341 Z M 109 499 84 461 Q 96 448 96 426 L 101 159 Q 66 212 9 266 L 0 259 Q 58 199 110 107 Q 163 15 150 2 L 159 0 L 180 47 Q 174 45 159 66 Q 144 88 120 129 L 116 471 Q 116 512 109 499 Z" fill="black" />
  </g>
  <g class="defect" id="01">
    <path d="M 257 169 Q 208 176 180 182" fill="none" stroke="red" stroke-width="3" />
  </g>
</svg>