<svg xmlns="http://www.w3.org/2000/svg" width="512" height="512" viewBox="0 0 512 512">
  <g class="glyph">
    <path d="M 405 23 436 46 417 70 408 456 Q 470 449 484 445 L 512 470 Q 477 470 324 484 Q 171 498 153 503 L 130 477 Q 164 480 232 473 L 227 107 Q 227 67 218 28 L 227 25 L 248 67 L 392 51 Z M 250 197 Q 354 185 366 181 L 389 206 Q 331 209 250 220 V 317 Q 354 306 366 301 L 385 327 Q 364 324 250 341 L 253 470 L 387 459 L 396 74 L 248 90 Z M 183 417 Q 155 375 114 324 Q 81 424 7 503 L 0 496 Q 32 454 56 410 Q 79 366 96 308 Q 114 250 102 222 L 107 218 L 144 253 Q 134 255 131 268 Q 127 280 118 313 Q 169 357 192 378 Q 188 403 183 417 Z M 190 209 Q 164 167 116 120 Q 76 206 16 262 L 9 255 Q 44 211 67 170 Q 103 111 105 78 Q 120 25 109 5 L 114 0 L 148 35 Q 139 37 134 53 Q 130 70 120 109 Q 167 141 197 164 Q 192 188 190 209 Z" fill="black" />
  </g>
  <g class="defect" id="01">
    <path d="M 67 170 Q 103 111 105 78" fill="none" stroke="red" stroke-width="3" />
  </g>
</svg>