<svg xmlns="http://www.w3.org/2000/svg" width="512" height="512" viewBox="0 0 512 512">
  <g class="glyph">
    <path d="M 302 85 Q 414 74 421 67 L 453 91 Q 419 89 302 102 V 141 L 375 135 L 388 115 L 414 137 L 399 152 L 393 193 L 406 208 L 302 217 V 256 L 386 247 L 397 228 L 425 249 L 408 263 L 404 302 Q 460 295 460 291 L 484 315 Q 466 315 401 321 L 397 360 L 412 375 L 302 384 V 440 Q 297 495 280 512 Q 249 464 213 432 L 219 425 L 276 466 Q 282 453 282 419 V 386 Q 206 393 193 401 L 165 377 Q 195 377 282 369 V 332 Q 182 341 154 347 L 124 325 Q 167 328 282 312 V 278 Q 197 286 191 291 L 161 267 Q 195 269 282 258 V 219 L 210 226 Q 210 245 206 245 L 184 217 Q 191 213 191 187 Q 191 161 187 135 L 193 132 L 208 152 L 282 143 V 104 Q 195 115 178 119 L 150 95 Q 197 98 282 87 Q 284 28 271 4 L 278 0 L 315 35 Q 314 41 302 85 Z M 178 43 Q 169 50 157 68 Q 145 87 117 137 L 111 482 Q 111 512 104 503 L 80 460 Q 93 451 93 423 L 98 167 Q 54 228 4 278 L 0 267 Q 54 202 104 118 Q 154 35 148 4 L 154 2 Z M 302 310 384 304 388 265 302 273 Z M 302 200 373 193 377 154 302 161 Z M 302 367 377 360 382 323 302 330 Z M 210 208 282 202 V 163 L 210 169 Z" fill="black" />
  </g>
  <g class="defect" id="01">
    <path d="M 315 35 Q 314 41 302 85" fill="none" stroke="red" stroke-width="3" />
  </g>
  <g class="defect" id="02">
    <path d="M 150 95 Q 197 98 282 87" fill="none" stroke="red" stroke-width="3" />
  </g>
</svg>