<svg xmlns="http://www.w3.org/2000/svg" width="512" height="512" viewBox="0 0 512 512">
  <g class="glyph">
    <path d="M 423 218 Q 408 199 389 173 Q 253 190 181 201 Q 110 212 86 220 L 67 188 Q 84 190 98 183 Q 112 175 174 96 Q 235 17 220 4 L 231 0 L 255 37 Q 244 39 207 82 Q 169 130 121 188 L 376 160 L 309 91 L 315 82 Q 395 147 428 175 Q 428 197 423 218 Z M 229 203 261 229 Q 251 240 253 279 V 445 Q 248 495 231 512 Q 201 464 162 426 L 166 417 L 229 464 Q 233 441 233 428 V 270 Q 233 225 223 207 Z M 0 449 Q 65 389 104 339 Q 143 289 136 268 L 143 266 L 164 311 Q 151 311 117 352 Q 76 400 6 458 Z M 313 281 320 272 Q 398 343 443 385 Q 416 404 430 428 Q 395 367 313 281 Z" fill="black" />
  </g>
  <g class="defect" id="01">
    <path d="M 443 385 Q 416 404 430 428" fill="none" stroke="red" stroke-width="3" />
  </g>
</svg>