<svg xmlns="http://www.w3.org/2000/svg" width="512" height="512" viewBox="0 0 512 512">
  <g class="glyph">
    <path d="M 374 468 119 483 Q 121 510 114 512 L 88 475 Q 94 470 94 450 L 90 349 Q 86 314 81 305 L 90 301 L 112 332 L 343 312 L 360 292 L 387 316 L 369 334 L 352 448 Z M 345 336 112 354 119 464 332 448 Z M 244 222 Q 46 294 33 303 L 0 277 Q 29 275 68 264 V 154 Q 68 121 55 92 L 64 88 L 101 125 Q 86 136 88 169 V 257 L 145 242 V 88 Q 147 44 132 20 L 141 13 L 176 46 Q 163 59 165 90 V 130 Q 213 123 220 119 L 242 141 Q 207 143 165 149 V 233 L 242 211 Z M 251 0 290 35 Q 275 44 277 81 V 167 Q 332 132 366 102 Q 400 73 398 55 L 407 53 L 415 101 Q 407 97 374 120 Q 341 143 277 182 V 211 Q 279 257 323 257 H 360 Q 411 259 415 245 Q 420 231 420 165 H 431 Q 431 187 436 221 Q 442 255 453 264 Q 428 279 360 277 H 319 Q 255 275 257 211 V 79 Q 259 35 244 7 Z" fill="black" />
  </g>
  <g class="defect" id="01">
    <path d="M 453 264 Q 428 279 360 277" fill="none" stroke="red" stroke-width="3" />
  </g>
</svg>