<svg xmlns="http://www.w3.org/2000/svg" width="512" height="512" viewBox="0 0 512 512">
  <g class="glyph">
    <path d="M 0 315 Q 46 310 126 308 L 124 143 Q 124 119 119 98 L 128 95 L 143 113 L 208 106 L 213 72 Q 106 80 87 87 L 56 65 Q 102 65 215 52 Q 217 30 216 24 Q 215 17 208 2 L 217 0 L 247 17 Q 236 15 234 50 Q 369 37 375 33 L 401 54 Q 371 54 232 69 L 230 104 L 312 98 L 328 78 L 351 104 L 338 117 L 330 291 Q 410 286 434 280 L 458 302 Q 406 304 232 317 Q 59 330 30 336 Z M 315 115 145 132 V 163 Q 278 150 286 143 L 302 165 Q 258 171 145 182 V 208 Q 265 195 280 191 L 299 215 Q 278 213 148 228 V 254 Q 276 245 286 236 L 304 263 Q 300 260 148 271 V 304 L 306 293 Z M 76 341 91 369 167 360 180 341 204 367 189 380 180 447 200 464 93 475 Q 95 512 85 501 L 67 475 Q 74 469 74 445 V 406 Q 74 375 69 345 Z M 269 362 V 408 Q 295 397 333 372 Q 371 347 369 336 L 377 334 L 384 375 Q 380 369 340 389 Q 299 410 269 425 V 451 Q 271 475 312 475 Q 375 475 381 469 Q 386 462 386 404 H 399 Q 399 427 400 446 Q 401 464 417 482 Q 382 499 308 495 Q 249 495 249 456 V 371 Q 249 341 241 323 L 249 321 L 278 347 Q 267 354 269 362 Z M 167 377 93 388 V 453 L 158 447 Z" fill="black" />
  </g>
  <g class="defect" id="01">
    <path d="M 304 263 Q 300 260 148 271" fill="none" stroke="red" stroke-width="3" />
  </g>
</svg>