<svg xmlns="http://www.w3.org/2000/svg" width="512" height="512" viewBox="0 0 512 512">
  <g class="glyph">
    <path d="M 343 272 367 296 354 309 Q 323 352 276 396 Q 354 456 382 466 Q 410 476 461 474 V 485 L 363 494 Q 367 492 329 459 Q 292 425 263 407 Q 171 479 56 512 L 53 503 Q 176 454 247 392 Q 220 370 206 357 Q 206 345 185 341 Q 131 392 91 414 L 87 405 Q 122 381 165 334 Q 207 287 211 265 L 187 267 Q 189 283 180 283 L 160 252 Q 171 245 169 203 V 140 Q 169 87 165 73 L 171 69 L 187 98 L 232 93 L 245 40 Q 145 49 134 53 L 109 29 Q 131 31 267 18 Q 403 4 398 0 L 430 24 Q 396 24 269 36 L 249 91 L 345 80 L 361 60 L 385 82 L 370 98 L 358 232 L 372 252 L 223 265 L 243 287 Q 232 287 218 303 L 329 292 Z M 20 318 0 283 Q 25 288 9 252 V 163 Q 9 116 4 82 L 13 80 L 29 120 L 91 111 L 105 93 L 127 116 L 111 131 L 105 245 L 116 263 L 29 272 Q 31 327 20 318 Z M 189 118 V 145 Q 296 131 318 127 L 336 149 Q 312 149 189 165 V 194 Q 294 183 312 178 L 334 198 Q 301 200 189 216 V 245 L 338 234 L 349 100 Z M 29 249 85 245 91 134 29 145 Z M 209 332 Q 214 343 260 383 Q 301 347 325 312 Q 247 323 236 327 L 214 312 Q 203 323 194 332 Z" fill="black" />
  </g>
  <g class="defect" id="01">
    <path d="M 0 283 Q 25 288 9 252" fill="none" stroke="red" stroke-width="3" />
  </g>
  <g class="defect" id="02">
    <path d="M 206 357 Q 206 345 185 341" fill="none" stroke="red" stroke-width="3" />
  </g>
</svg>