<svg xmlns="http://www.w3.org/2000/svg" width="512" height="512" viewBox="0 0 512 512">
  <g class="glyph">
    <path d="M 396 290 422 314 404 331 396 437 409 456 280 467 Q 280 501 271 493 L 252 460 Q 279 436 258 422 L 256 344 Q 254 316 247 295 L 256 290 L 271 323 L 381 308 Z M 191 295 219 321 198 338 189 437 204 456 80 471 Q 82 512 71 499 L 49 463 Q 60 452 56 422 L 54 366 Q 54 325 45 303 L 54 299 L 75 329 L 172 314 Z M 243 209 Q 43 273 32 284 L 0 258 Q 26 256 71 247 V 142 Q 55 108 62 84 L 71 80 L 103 114 Q 90 123 90 157 V 241 L 146 224 V 80 Q 148 39 133 13 L 142 6 L 176 39 Q 163 49 166 82 V 120 Q 217 110 222 105 L 239 129 Q 213 131 166 140 V 219 L 239 198 Z M 260 0 297 34 Q 286 41 286 71 V 151 Q 338 116 364 89 Q 389 62 387 47 L 396 45 L 409 90 Q 402 86 370 111 Q 338 136 286 168 V 200 Q 286 239 327 239 H 370 Q 411 241 415 228 Q 419 215 419 155 H 432 Q 432 179 436 208 Q 439 237 450 247 Q 424 260 370 258 H 327 Q 260 262 267 196 V 67 Q 265 24 254 4 Z M 374 435 383 329 275 342 280 445 Z M 168 437 179 336 75 349 80 450 Z" fill="black" />
  </g>
  <g class="defect" id="01">
    <path d="M 252 460 Q 279 436 258 422" fill="none" stroke="red" stroke-width="3" />
  </g>
  <g class="defect" id="02">
    <path d="M 71 142 Q 55 108 62 84" fill="none" stroke="red" stroke-width="3" />
  </g>
</svg>