<svg xmlns="http://www.w3.org/2000/svg" width="512" height="512" viewBox="0 0 512 512">
  <g class="glyph">
    <path d="M 343 26 Q 339 26 318 71 Q 421 58 419 50 L 447 73 Q 398 78 339 84 L 374 106 L 361 130 L 400 125 L 413 106 L 434 125 L 421 138 L 415 194 L 428 207 L 294 220 Q 296 240 289 238 L 274 216 Q 281 212 277 145 Q 266 158 246 173 L 244 166 L 216 171 V 210 Q 246 205 253 201 L 274 220 Q 246 225 158 238 L 149 248 L 130 223 L 145 216 V 69 L 138 24 L 145 22 L 162 52 Q 207 48 255 37 L 279 58 Q 257 58 218 65 V 104 L 235 102 L 244 89 L 266 106 L 251 121 L 242 162 Q 266 143 293 84 Q 320 26 315 2 L 320 0 Z M 380 266 Q 374 367 368 401 Q 363 434 348 385 L 302 387 L 313 400 Q 305 404 304 435 Q 302 467 316 470 Q 331 473 374 473 Q 417 473 421 467 Q 426 460 428 380 H 436 Q 436 421 440 445 Q 453 483 458 477 Q 441 490 391 490 H 322 Q 294 490 294 480 Q 283 469 284 449 Q 285 430 287 389 L 244 391 L 257 413 Q 253 408 229 435 Q 205 462 165 485 Q 125 508 89 512 L 86 506 Q 143 486 179 457 Q 216 428 231 393 L 197 395 Q 199 415 190 415 L 171 385 Q 179 372 177 354 V 305 Q 177 274 173 248 L 179 246 L 192 264 L 359 248 L 372 231 L 395 253 Z M 19 322 0 287 Q 9 272 6 238 L 4 156 Q 2 114 0 89 L 9 86 L 22 130 L 89 119 L 102 97 L 125 121 L 108 138 L 99 240 L 121 255 L 26 268 Q 28 326 19 322 Z M 197 302 Q 309 294 328 289 L 348 307 Q 309 307 197 318 V 339 Q 277 333 328 326 L 350 346 Q 313 346 197 356 V 378 Q 318 369 335 365 L 348 382 Q 354 337 361 266 L 197 281 Z M 24 149 26 248 80 240 89 138 Z M 287 127 292 138 359 130 Q 348 108 328 86 L 311 89 Q 302 104 287 127 Z M 164 158 227 151 233 121 164 130 Z M 164 110 199 106 V 67 L 164 71 Z M 164 216 197 212 V 173 L 164 177 Z M 359 197 363 147 335 151 V 199 Z M 318 201 V 153 L 294 156 L 296 203 Z M 395 192 402 145 380 147 376 194 Z" fill="black" />
  </g>
  <g class="defect" id="01">
    <path d="M 440 445 Q 453 483 458 477" fill="none" stroke="red" stroke-width="3" />
  </g>
  <g class="defect" id="02">
    <path d="M 274 220 Q 246 225 158 238" fill="none" stroke="red" stroke-width="3" />
  </g>
  <g class="defect" id="03">
    <path d="M 322 490 Q 294 490 294 480" fill="none" stroke="red" stroke-width="3" />
  </g>
</svg>