<svg xmlns="http://www.w3.org/2000/svg" width="512" height="512" viewBox="0 0 512 512">
  <g class="glyph">
    <path d="M 386 0 410 22 394 37 Q 388 115 385 157 Q 381 198 375 200 L 355 170 Q 364 163 366 126 Q 290 159 283 170 L 261 150 Q 259 192 251 185 L 233 161 Q 240 157 240 137 Q 159 179 159 192 L 124 174 V 168 Q 148 170 242 122 V 48 Q 172 61 157 65 L 133 41 Q 163 41 235 28 L 251 11 L 272 33 Q 296 31 373 20 Z M 379 349 Q 329 322 322 288 Q 301 312 277 331 L 290 342 Q 279 353 281 368 Q 420 357 429 353 L 453 377 Q 425 377 281 388 V 481 Q 281 512 272 510 L 251 477 Q 264 466 261 434 V 390 Q 129 401 118 405 L 89 379 Q 137 381 261 370 Q 264 333 253 320 L 259 316 L 270 322 Q 301 288 318 248 L 214 257 L 231 275 Q 222 270 205 298 Q 227 316 244 329 Q 226 346 233 364 Q 218 331 198 307 Q 179 333 129 373 L 122 364 Q 153 333 173 306 Q 194 279 203 259 Q 155 264 148 268 L 124 244 Q 176 244 266 233 Q 255 214 237 192 L 242 185 Q 264 198 283 209 Q 279 222 272 235 Q 392 220 394 216 L 414 244 Q 394 242 325 248 L 344 259 Q 338 259 329 275 Q 362 296 386 314 Q 383 327 379 349 Z M 22 318 2 285 Q 9 277 9 237 L 7 142 Q 4 100 0 72 L 9 68 L 24 113 L 89 102 L 102 81 L 129 102 L 113 122 L 105 231 L 124 253 L 28 264 Q 31 318 22 318 Z M 373 39 Q 318 46 288 54 L 268 35 L 261 46 V 144 Q 283 144 368 113 Z M 26 135 28 242 85 235 94 126 Z M 155 76 Q 183 85 209 92 Q 211 107 207 124 Q 181 102 150 85 Z M 292 65 Q 322 72 336 78 Q 338 94 336 105 Q 314 89 288 72 Z" fill="black" />
  </g>
  <g class="defect" id="01">
    <path d="M 244 329 Q 226 346 233 364" fill="none" stroke="red" stroke-width="3" />
  </g>
  <g class="defect" id="02">
    <path d="M 379 349 Q 329 322 322 288" fill="none" stroke="red" stroke-width="3" />
  </g>
</svg>