<svg xmlns="http://www.w3.org/2000/svg" width="512" height="512" viewBox="0 0 512 512">
  <g class="glyph">
    <path d="M 286 280 Q 275 286 265 305 L 357 295 L 372 275 L 398 301 L 381 312 Q 357 355 310 407 Q 351 447 374 464 Q 398 480 416 485 Q 435 490 475 488 V 501 L 383 512 Q 381 501 359 480 L 297 417 Q 222 484 101 512 V 503 Q 217 467 282 404 L 228 353 Q 179 404 133 432 L 127 426 Q 189 374 228 321 Q 267 267 260 252 L 269 250 Z M 82 11 116 45 Q 108 52 108 95 L 105 196 Q 140 191 151 185 L 168 209 Q 138 211 105 215 L 101 359 L 168 329 L 172 340 Q 34 411 24 424 L 0 398 Q 24 392 82 368 L 84 219 Q 49 224 32 228 L 13 204 Q 41 207 84 200 L 86 99 Q 88 34 75 15 Z M 443 80 Q 435 82 432 103 L 422 174 Q 415 215 409 217 Q 402 219 398 196 L 265 209 L 278 234 Q 267 239 236 267 Q 204 295 155 323 L 151 314 Q 176 297 210 266 Q 243 234 256 209 L 224 213 L 209 226 L 189 200 L 204 194 Q 207 84 194 71 L 196 65 L 228 88 Q 219 99 224 194 L 400 176 Q 422 71 409 49 L 413 45 Z M 381 34 Q 374 32 362 47 Q 351 62 329 90 Q 355 108 381 127 Q 381 146 374 166 Q 346 131 314 105 Q 282 140 232 172 L 228 161 Q 249 129 299 95 L 226 28 L 232 22 L 312 80 Q 333 52 343 31 Q 353 11 351 2 L 357 0 Z M 262 312 232 349 H 254 Q 252 359 295 392 Q 336 351 353 314 Q 293 321 278 327 Z M 452 312 Q 409 267 340 217 L 344 211 Q 400 243 452 271 Q 454 295 452 312 Z" fill="black" />
  </g>
  <g class="defect" id="01">
    <path d="M 228 161 Q 249 129 299 95" fill="none" stroke="red" stroke-width="3" />
  </g>
</svg>