<svg xmlns="http://www.w3.org/2000/svg" width="512" height="512" viewBox="0 0 512 512">
  <g class="glyph">
    <path d="M 274 58 Q 238 156 212 190 L 246 181 L 259 164 L 283 188 L 270 199 L 261 255 L 274 270 L 203 279 L 201 331 L 235 324 L 246 307 L 270 326 L 257 343 Q 251 391 240 435 Q 229 480 210 508 Q 171 447 151 423 L 156 417 L 207 462 Q 227 430 235 346 L 197 350 L 186 363 L 166 341 L 179 331 Q 186 296 184 240 L 190 238 L 203 259 L 242 255 L 251 203 L 197 212 Q 173 242 130 279 L 123 272 Q 175 216 207 160 Q 188 140 160 121 L 162 114 Q 188 121 212 127 V 153 Q 242 93 251 60 Q 186 73 181 76 L 153 54 Q 169 56 253 39 L 261 19 L 287 43 Z M 400 37 Q 393 30 343 80 L 367 121 Q 419 67 415 52 H 421 L 434 91 Q 428 82 374 132 Q 408 192 426 204 Q 443 216 482 216 V 227 L 406 235 Q 410 227 385 184 L 372 199 Q 363 261 370 268 Q 378 274 394 271 Q 410 268 415 266 L 428 287 Q 410 292 396 294 Q 372 296 361 289 Q 350 283 349 273 Q 348 264 352 199 L 322 203 Q 320 272 270 322 L 264 315 Q 281 292 289 271 Q 298 251 301 223 Q 305 194 300 156 L 307 153 L 318 184 L 354 177 L 365 162 L 378 173 Q 339 104 314 59 Q 289 15 279 15 V 9 H 307 Q 309 26 337 67 Q 382 15 378 2 L 385 0 Z M 80 11 114 48 Q 104 50 104 93 L 102 190 Q 134 181 145 175 L 160 201 Q 147 201 102 210 L 99 346 L 156 318 L 160 326 Q 136 341 83 374 Q 30 406 26 413 L 0 389 Q 19 387 80 354 L 82 214 Q 41 223 37 227 L 11 203 Q 41 203 82 194 L 84 99 Q 86 39 73 15 Z M 387 337 Q 374 369 352 406 Q 399 446 421 456 Q 423 482 421 506 Q 385 460 341 421 Q 294 482 238 512 L 233 503 Q 281 469 326 410 L 277 367 L 281 361 L 335 398 Q 352 365 363 339 Q 300 348 292 352 L 268 331 Q 298 331 365 315 L 376 298 L 404 320 Z" fill="black" />
  </g>
  <g class="defect" id="01">
    <path d="M 352 406 Q 399 446 421 456" fill="none" stroke="red" stroke-width="3" />
  </g>
  <g class="defect" id="02">
    <path d="M 428 287 Q 410 292 396 294" fill="none" stroke="red" stroke-width="3" />
  </g>
</svg>