<svg xmlns="http://www.w3.org/2000/svg" width="512" height="512" viewBox="0 0 512 512">
  <g class="glyph">
    <path d="M 109 105 Q 105 111 85 137 Q 109 159 137 185 Q 131 203 122 218 Q 92 193 78 146 Q 52 179 13 214 L 7 207 Q 50 159 89 94 Q 129 28 120 11 L 126 9 L 150 48 Q 137 52 113 94 L 214 83 L 227 63 L 255 85 L 235 105 Q 176 229 48 307 L 65 333 L 174 320 L 190 303 L 216 327 L 196 342 L 183 440 L 200 458 L 72 471 Q 74 512 63 501 L 41 471 Q 50 462 48 430 Q 46 399 46 364 Q 44 331 41 309 Q 24 320 4 329 L 0 320 Q 153 229 209 100 Q 133 109 122 115 Z M 272 399 Q 340 359 371 337 Q 403 314 403 296 L 410 294 L 418 344 Q 403 344 362 367 Q 320 390 272 414 V 447 Q 272 466 293 473 Q 314 479 344 477 Q 375 475 395 473 Q 416 471 425 463 Q 434 455 431 394 H 442 Q 442 427 446 449 Q 449 471 460 484 Q 444 488 416 491 Q 388 495 358 497 Q 329 499 292 493 Q 255 488 253 451 V 327 Q 253 298 244 279 L 248 275 L 283 303 Q 272 312 272 336 Z M 161 440 172 342 68 353 72 451 Z M 303 248 Q 305 307 296 296 L 272 261 Q 285 253 283 216 V 65 Q 283 22 270 4 L 277 0 L 312 31 Q 303 41 303 74 Z M 320 113 325 102 Q 383 131 444 159 Q 444 179 442 200 Q 392 157 320 113 Z" fill="black" />
  </g>
  <g class="defect" id="01">
    <path d="M 122 218 Q 92 193 78 146" fill="none" stroke="red" stroke-width="3" />
  </g>
</svg>