<svg xmlns="http://www.w3.org/2000/svg" width="512" height="512" viewBox="0 0 512 512">
  <g class="glyph">
    <path d="M 275 441 280 435 338 471 Q 344 454 342 428 V 372 L 226 383 Q 243 402 260 417 L 243 450 Q 232 415 213 383 Q 174 387 151 394 L 123 370 Q 170 370 342 353 V 329 Q 342 318 340 305 L 215 316 Q 215 349 209 338 L 187 310 Q 196 301 196 278 V 191 Q 196 157 187 138 L 194 133 L 213 157 L 256 153 V 110 Q 185 118 163 125 L 142 99 Q 172 101 312 86 Q 331 58 340 35 Q 349 13 342 2 L 349 0 L 372 37 Q 368 34 358 46 Q 349 58 331 84 Q 435 73 437 69 L 460 93 Q 429 90 321 103 V 146 L 379 142 L 392 125 L 419 144 L 402 159 L 398 280 L 413 301 L 344 305 L 368 318 Q 359 323 361 338 V 353 Q 447 344 454 338 L 480 364 Q 452 364 361 370 V 445 Q 364 488 344 512 Q 333 497 275 441 Z M 110 333 179 299 183 308 Q 32 396 28 409 L 0 383 Q 26 376 88 344 L 90 204 Q 49 211 45 215 L 19 194 Q 54 191 90 185 L 93 73 Q 95 34 82 19 L 88 15 L 123 45 Q 112 52 114 99 L 112 181 Q 153 174 155 168 L 174 194 Q 161 191 112 200 Z M 215 299 379 282 381 217 Q 323 224 312 212 Q 301 200 303 168 L 278 172 Q 275 194 265 214 Q 254 234 215 254 Z M 321 185 Q 325 202 342 202 Q 359 202 370 198 L 381 215 L 383 161 L 321 166 Z M 215 243 Q 256 211 256 174 L 215 179 Z M 346 256 Q 329 256 304 259 Q 280 262 265 267 L 245 250 Q 267 247 295 244 Q 323 241 329 237 Z M 250 90 Q 237 60 211 19 L 215 15 Q 241 37 265 58 Q 258 75 250 90 Z M 275 153 301 151 V 105 L 275 108 Z" fill="black" />
  </g>
  <g class="defect" id="01">
    <path d="M 460 93 Q 429 90 321 103" fill="none" stroke="red" stroke-width="3" />
  </g>
</svg>