<svg xmlns="http://www.w3.org/2000/svg" width="512" height="512" viewBox="0 0 512 512">
  <g class="glyph">
    <path d="M 404 380 397 472 Q 458 469 458 463 L 490 490 Q 451 487 298 497 Q 144 508 121 512 L 94 487 Q 144 487 182 485 V 404 Q 184 384 175 357 L 184 353 L 198 375 L 377 362 L 391 344 Q 382 330 368 317 Q 218 344 202 350 L 182 321 Q 198 323 221 304 Q 245 285 265 263 Q 186 267 162 274 L 130 252 Q 163 238 287 238 V 204 Q 243 207 218 213 L 195 186 Q 222 189 287 182 Q 290 150 281 126 L 285 119 L 314 146 Q 305 141 308 177 Q 359 173 391 166 L 420 189 Q 397 186 308 200 V 236 Q 429 225 440 220 L 469 247 Q 429 245 278 260 L 294 274 Q 264 276 227 321 L 357 303 L 319 269 L 323 263 Q 366 285 402 310 Q 400 328 393 346 L 420 366 Z M 112 88 110 186 Q 153 180 159 175 L 180 202 Q 164 200 110 209 L 108 346 L 177 310 L 182 319 Q 157 332 102 366 Q 47 400 31 411 L 0 391 Q 45 377 88 355 L 90 211 Q 40 218 36 222 L 13 198 Q 43 198 90 189 L 92 83 Q 94 25 85 11 L 90 7 L 124 38 Q 110 38 112 88 Z M 386 31 Q 377 29 366 76 Q 415 72 436 65 L 465 90 Q 438 90 359 99 L 337 159 L 326 157 L 339 101 L 260 110 Q 263 182 254 175 L 236 144 Q 240 139 240 110 Q 214 95 182 119 L 155 97 Q 211 94 240 88 Q 243 27 229 11 L 236 4 L 269 29 Q 260 34 260 52 V 88 L 346 79 Q 357 36 357 27 Q 357 18 355 4 L 359 0 Z M 330 474 377 472 384 382 335 384 Z M 265 478 310 476 314 386 265 391 Z M 202 483 247 481 V 391 L 202 397 Z" fill="black" />
  </g>
  <g class="defect" id="01">
    <path d="M 294 274 Q 264 276 227 321" fill="none" stroke="red" stroke-width="3" />
  </g>
  <g class="defect" id="02">
    <path d="M 130 252 Q 163 238 287 238" fill="none" stroke="red" stroke-width="3" />
  </g>
  <g class="defect" id="03">
    <path d="M 240 110 Q 214 95 182 119" fill="none" stroke="red" stroke-width="3" />
  </g>
</svg>