<svg xmlns="http://www.w3.org/2000/svg" width="512" height="512" viewBox="0 0 512 512">
  <g class="glyph">
    <path d="M 151 444 Q 139 410 117 378 Q 41 384 28 388 L 0 365 Q 17 369 269 348 Q 269 320 267 307 L 113 318 Q 115 333 107 337 L 85 311 Q 92 303 92 284 L 90 186 Q 90 158 83 145 L 90 141 L 107 164 L 173 158 V 115 Q 51 126 43 128 L 15 105 Q 51 107 169 98 Q 158 70 128 28 L 134 21 Q 162 47 188 70 Q 181 85 175 98 L 250 94 Q 267 58 273 39 Q 279 21 277 2 L 284 0 L 307 41 Q 303 34 292 49 Q 282 64 265 92 Q 386 79 397 75 L 425 100 Q 395 98 254 111 V 149 L 322 145 L 339 128 L 363 154 L 348 166 L 331 279 L 348 303 L 275 307 L 301 324 Q 290 331 290 346 Q 425 351 429 333 L 452 358 Q 416 356 290 367 V 446 Q 290 491 271 512 Q 250 484 198 444 L 205 437 L 265 469 Q 269 452 271 427 V 369 L 132 378 Q 149 393 164 407 Q 160 425 151 444 Z M 254 171 V 190 Q 232 200 270 210 Q 288 209 299 205 L 307 226 Q 256 235 243 225 Q 230 215 235 196 V 173 L 192 175 Q 183 207 165 228 Q 147 250 113 262 V 299 L 311 282 L 326 166 Z M 171 177 111 183 V 254 Q 137 241 153 219 Q 169 196 171 177 Z M 284 260 Q 258 260 218 265 Q 177 269 171 271 L 151 250 Q 175 252 215 247 Q 256 243 265 241 Z M 235 154 V 113 L 192 115 V 156 Z" fill="black" />
  </g>
  <g class="defect" id="01">
    <path d="M 254 190 Q 232 200 270 210" fill="none" stroke="red" stroke-width="3" />
  </g>
  <g class="defect" id="02">
    <path d="M 290 346 Q 425 351 429 333" fill="none" stroke="red" stroke-width="3" />
  </g>
</svg>