<svg xmlns="http://www.w3.org/2000/svg" width="512" height="512" viewBox="0 0 512 512">
  <g class="glyph">
    <path d="M 254 47 V 116 L 353 110 Q 372 39 366 26 L 370 24 L 396 52 Q 405 36 384 76 Q 379 97 373 117 Q 368 138 361 144 L 376 172 Q 370 174 349 211 L 413 250 Q 415 267 411 286 Q 374 245 344 219 Q 325 250 299 275 L 293 269 Q 325 224 340 188 Q 355 153 351 144 L 355 142 L 349 129 L 161 144 L 174 174 Q 159 176 123 210 Q 86 243 28 275 L 24 267 Q 60 243 103 203 Q 146 163 155 144 L 125 146 L 112 157 L 95 129 L 112 123 V 75 Q 112 54 101 37 L 105 32 L 138 56 Q 131 65 131 77 V 125 L 234 118 V 43 Q 234 15 226 4 L 230 0 L 262 22 Q 256 30 254 47 Z M 243 211 Q 267 224 288 241 Q 286 256 282 262 L 312 290 Q 301 295 303 312 V 336 Q 351 331 379 321 L 411 344 Q 392 342 303 355 V 426 Q 368 469 401 480 Q 435 490 475 484 V 495 L 385 512 Q 379 499 345 475 Q 312 452 276 425 Q 241 398 222 383 Q 182 430 138 503 L 133 495 Q 172 445 188 410 Q 204 374 213 345 Q 222 316 213 308 L 219 303 L 243 331 Q 239 338 228 370 L 284 411 V 321 Q 284 290 275 271 L 278 267 Q 256 239 237 222 Q 215 260 170 303 L 161 297 Q 202 250 223 208 Q 243 166 237 151 L 241 146 L 267 174 Q 258 179 243 211 Z M 176 250 Q 163 252 129 290 L 127 460 Q 129 508 123 510 L 97 473 Q 108 463 105 439 L 108 308 Q 62 349 4 387 L 0 379 Q 75 318 115 274 Q 155 230 153 213 L 157 211 Z" fill="black" />
  </g>
  <g class="defect" id="01">
    <path d="M 396 52 Q 405 36 384 76" fill="none" stroke="red" stroke-width="3" />
  </g>
  <g class="defect" id="02">
    <path d="M 222 383 Q 182 430 138 503" fill="none" stroke="red" stroke-width="3" />
  </g>
</svg>