<svg xmlns="http://www.w3.org/2000/svg" width="512" height="512" viewBox="0 0 512 512">
  <g class="glyph">
    <path d="M 446 131 215 146 Q 215 168 206 162 L 188 135 Q 197 122 195 102 V 58 Q 195 29 191 13 L 197 9 L 215 38 L 417 20 L 428 2 L 454 22 L 439 40 L 430 111 Z M 18 395 0 368 13 359 11 235 Q 13 168 0 157 L 4 153 L 38 180 Q 29 184 31 231 L 33 357 L 71 348 L 75 84 Q 78 22 69 4 L 73 0 L 106 33 Q 95 40 98 86 L 93 344 L 131 335 Q 140 239 143 191 Q 146 142 137 137 L 142 133 L 173 160 Q 166 155 161 223 Q 155 290 151 336 Q 146 381 139 382 Q 131 383 131 355 L 33 381 Z M 337 434 V 195 Q 339 166 330 149 L 335 146 L 366 171 Q 355 182 357 204 V 222 Q 444 231 443 208 L 468 235 Q 430 235 357 246 V 301 Q 428 295 434 290 L 454 313 Q 423 315 357 326 V 381 Q 441 375 459 368 L 481 395 Q 443 395 357 403 V 496 Q 357 512 350 512 L 328 477 Q 339 461 337 434 Z M 284 472 Q 286 510 277 508 L 253 472 Q 264 457 264 441 V 412 Q 163 419 171 426 L 146 399 Q 166 401 264 390 V 330 Q 202 337 195 339 L 171 315 Q 216 334 264 306 V 253 Q 197 259 197 264 L 168 239 Q 202 239 262 231 V 211 Q 264 191 255 166 L 259 162 L 293 193 Q 279 202 284 231 Z M 270 120 V 55 L 215 60 V 126 Z M 359 49 357 113 410 109 417 44 Z M 337 115 339 49 290 53 V 117 Z" fill="black" />
  </g>
  <g class="defect" id="01">
    <path d="M 264 412 Q 163 419 171 426" fill="none" stroke="red" stroke-width="3" />
  </g>
  <g class="defect" id="02">
    <path d="M 357 222 Q 444 231 443 208" fill="none" stroke="red" stroke-width="3" />
  </g>
  <g class="defect" id="03">
    <path d="M 171 315 Q 216 334 264 306" fill="none" stroke="red" stroke-width="3" />
  </g>
</svg>