<svg xmlns="http://www.w3.org/2000/svg" width="512" height="512" viewBox="0 0 512 512">
  <g class="glyph">
    <path d="M 245 135 254 132 273 167 Q 263 174 230 223 Q 258 221 323 213 Q 401 222 408 197 L 432 221 Q 406 219 341 228 V 276 Q 388 269 399 265 L 421 286 Q 399 286 341 293 V 345 Q 401 338 410 334 L 434 356 Q 399 358 341 362 V 425 Q 414 419 434 414 L 456 436 Q 430 436 347 444 Q 265 451 252 456 L 230 440 V 466 Q 232 512 221 503 L 197 464 Q 208 460 210 432 V 254 Q 193 276 154 310 L 148 304 Q 191 254 223 202 Q 256 150 245 135 Z M 108 204 Q 108 163 98 152 L 102 148 L 137 171 Q 128 180 128 208 V 230 Q 158 228 167 221 L 187 245 Q 165 245 128 249 V 325 L 189 308 L 191 317 L 128 343 V 436 Q 126 477 108 501 Q 89 473 43 430 L 48 423 L 102 458 Q 108 440 108 425 V 349 Q 41 377 26 386 L 0 362 Q 39 356 108 332 V 254 Q 61 258 43 265 L 17 243 Q 59 241 108 234 Z M 228 102 V 54 Q 230 26 217 4 L 223 0 L 256 28 Q 249 39 247 61 V 100 L 367 91 Q 371 80 375 60 Q 380 39 375 26 L 380 22 L 408 48 Q 399 56 395 72 Q 391 87 384 110 Q 377 132 373 133 Q 369 135 362 111 L 100 130 L 87 143 L 67 119 L 82 108 Q 80 50 69 39 L 76 33 L 108 54 Q 100 65 102 111 Z M 321 427 V 367 Q 263 371 245 375 L 230 362 V 432 Q 256 434 321 427 Z M 321 347 V 297 Q 263 304 243 310 L 230 295 V 354 Q 269 354 321 347 Z M 230 232 V 286 Q 258 286 321 280 V 232 Q 263 239 243 243 Z M 336 200 Q 321 167 297 135 L 304 128 Q 328 148 349 167 Q 345 184 336 200 Z" fill="black" />
  </g>
  <g class="defect" id="01">
    <path d="M 323 213 Q 401 222 408 197" fill="none" stroke="red" stroke-width="3" />
  </g>
</svg>