<svg xmlns="http://www.w3.org/2000/svg" width="512" height="512" viewBox="0 0 512 512">
  <g class="glyph">
    <path d="M 435 116 460 142 Q 441 140 290 161 V 241 Q 305 241 350 233 Q 394 226 398 222 L 426 243 Q 402 245 366 251 Q 329 256 308 262 L 290 250 V 336 Q 305 336 358 328 Q 411 321 417 316 L 445 340 Q 413 324 370 347 Q 316 355 305 359 L 290 346 L 288 495 Q 288 512 284 508 L 256 467 Q 271 458 269 424 L 271 163 L 226 170 Q 183 252 142 301 L 136 295 Q 187 213 212 152 Q 237 90 247 52 Q 258 13 250 4 L 254 0 L 286 37 Q 278 39 267 67 Q 262 103 234 146 Q 424 125 435 116 Z M 163 194 Q 142 163 108 131 L 105 480 Q 105 510 99 508 L 75 465 Q 107 447 86 417 L 88 82 Q 90 28 77 4 L 82 0 L 118 32 Q 110 41 108 69 V 118 Q 138 136 170 155 Q 170 174 163 194 Z M 54 133 Q 49 234 13 286 L 0 250 Q 34 215 45 131 Z" fill="black" />
  </g>
  <g class="defect" id="01">
    <path d="M 75 465 Q 107 447 86 417" fill="none" stroke="red" stroke-width="3" />
  </g>
  <g class="defect" id="02">
    <path d="M 267 67 Q 262 103 234 146" fill="none" stroke="red" stroke-width="3" />
  </g>
  <g class="defect" id="03">
    <path d="M 445 340 Q 413 324 370 347" fill="none" stroke="red" stroke-width="3" />
  </g>
</svg>