<svg xmlns="http://www.w3.org/2000/svg" width="512" height="512" viewBox="0 0 512 512">
  <g class="glyph">
    <path d="M 414 50 440 72 420 92 407 223 422 243 236 260 V 418 Q 236 466 306 466 H 383 Q 440 466 442 452 Q 444 438 444 354 H 453 Q 455 392 461 423 Q 466 455 484 470 Q 442 486 381 486 H 304 Q 221 486 217 424 V 131 Q 212 79 203 53 L 212 48 L 234 94 L 396 74 Z M 131 249 195 217 199 228 131 269 129 424 Q 129 488 114 512 Q 88 477 39 429 L 44 422 L 105 462 Q 109 446 109 427 L 112 282 Q 46 326 42 333 L 0 315 Q 26 309 112 260 V 177 Q 48 186 37 190 L 9 171 Q 35 168 112 158 L 114 66 Q 116 26 105 4 L 109 0 L 144 35 Q 145 49 133 74 L 131 153 Q 166 144 188 140 L 208 164 Q 186 164 131 173 Z M 400 94 324 103 V 232 L 387 225 Z M 304 105 236 114 V 241 L 304 234 Z" fill="black" />
  </g>
  <g class="defect" id="01">
    <path d="M 131 153 Q 166 144 188 140" fill="none" stroke="red" stroke-width="3" />
  </g>
  <g class="defect" id="02">
    <path d="M 144 35 Q 145 49 133 74" fill="none" stroke="red" stroke-width="3" />
  </g>
</svg>