<svg xmlns="http://www.w3.org/2000/svg" width="512" height="512" viewBox="0 0 512 512">
  <g class="glyph">
    <path d="M 155 269 Q 179 271 258 263 Q 289 201 292 183 Q 295 164 291 160 L 298 155 L 322 190 Q 317 188 313 197 Q 294 195 282 260 Q 449 245 455 241 L 479 265 Q 440 265 385 269 Q 365 337 330 392 Q 398 427 446 453 Q 446 473 444 490 Q 381 438 319 405 Q 247 479 136 512 L 133 503 Q 259 483 300 396 Q 267 379 214 354 Q 236 317 249 282 Q 188 291 182 293 Z M 7 166 Q 35 166 98 155 L 101 72 Q 89 5 88 4 L 94 0 L 131 31 Q 118 42 120 77 L 118 153 Q 160 147 162 142 L 182 164 Q 168 164 118 173 V 256 L 175 223 L 179 234 L 118 271 L 116 427 Q 114 484 101 510 Q 77 475 26 429 L 31 420 L 92 462 Q 96 440 96 409 L 98 287 Q 33 328 31 333 L 0 313 Q 20 311 98 265 V 175 Q 42 186 31 190 Z M 221 144 Q 217 173 197 203 L 182 173 Q 208 155 214 79 H 225 L 223 123 L 424 105 L 440 81 L 468 107 Q 444 123 398 188 L 392 182 L 420 127 Z M 241 350 313 383 Q 350 319 359 271 L 274 280 Z M 317 96 Q 302 50 276 7 L 282 2 Q 311 31 337 59 Q 328 77 317 96 Z" fill="black" />
  </g>
  <g class="defect" id="01">
    <path d="M 313 197 Q 294 195 282 260" fill="none" stroke="red" stroke-width="3" />
  </g>
  <g class="defect" id="02">
    <path d="M 133 503 Q 259 483 300 396" fill="none" stroke="red" stroke-width="3" />
  </g>
  <g class="defect" id="03">
    <path d="M 101 72 Q 89 5 88 4" fill="none" stroke="red" stroke-width="3" />
  </g>
</svg>