<svg xmlns="http://www.w3.org/2000/svg" width="512" height="512" viewBox="0 0 512 512">
  <g class="glyph">
    <path d="M 435 75 459 95 446 108 Q 426 236 395 318 Q 413 373 426 402 Q 439 430 451 441 Q 463 452 494 457 V 468 H 422 Q 422 452 413 427 Q 404 402 384 346 Q 344 428 289 486 Q 289 512 280 510 L 260 466 Q 269 461 269 437 V 364 Q 152 408 154 413 L 121 388 Q 152 384 179 375 V 79 Q 176 98 150 86 L 128 62 Q 163 62 253 53 Q 342 44 344 40 L 369 64 Q 324 64 289 68 V 342 L 344 324 L 349 335 L 289 358 V 444 V 470 Q 349 391 373 318 Q 340 203 333 190 Q 327 177 316 168 V 163 L 351 166 Q 351 185 358 212 Q 364 238 384 291 Q 410 201 422 110 Q 355 119 333 126 L 305 106 Q 375 97 424 88 Z M 168 227 108 267 V 419 Q 110 466 93 501 Q 68 463 20 419 L 24 413 L 84 450 Q 86 435 88 395 V 280 Q 33 320 31 327 L 0 305 Q 18 298 88 258 V 174 Q 40 181 33 185 L 13 161 Q 49 161 88 154 V 77 Q 88 22 79 4 L 86 0 L 119 33 Q 104 38 108 79 V 152 Q 141 148 150 143 L 170 166 Q 141 168 108 172 V 249 L 161 218 Z M 199 163 Q 252 159 254 154 L 269 163 V 73 L 199 79 Z M 199 369 269 346 V 271 L 199 280 Z M 199 258 Q 247 254 249 249 L 269 260 V 177 L 199 183 Z" fill="black" />
  </g>
  <g class="defect" id="01">
    <path d="M 179 79 Q 176 98 150 86" fill="none" stroke="red" stroke-width="3" />
  </g>
</svg>