<svg xmlns="http://www.w3.org/2000/svg" width="512" height="512" viewBox="0 0 512 512">
  <g class="glyph">
    <path d="M 382 258 406 284 391 295 Q 351 358 321 393 Q 397 458 418 468 Q 438 477 486 477 V 488 L 401 501 Q 399 495 377 472 Q 356 449 308 410 Q 232 482 128 512 L 126 503 Q 228 462 291 395 L 226 336 Q 177 362 156 410 L 150 401 Q 200 345 228 294 Q 256 243 254 226 L 260 221 L 280 254 Q 273 258 256 286 L 367 273 Z M 182 236 119 278 V 434 Q 119 486 104 512 Q 76 477 28 430 L 33 423 L 89 462 Q 98 471 100 432 V 291 Q 30 330 30 336 L 0 315 Q 26 310 100 269 V 187 Q 35 197 37 202 L 13 176 Q 37 178 100 163 V 82 Q 100 35 87 11 L 93 7 L 130 39 Q 117 46 119 85 V 158 Q 148 154 165 145 L 189 169 Q 169 169 119 182 V 260 L 178 226 Z M 354 67 Q 412 102 445 128 Q 443 148 438 167 Q 427 152 401 126 Q 206 154 210 158 L 184 132 L 213 130 Q 243 102 274 56 Q 319 25 302 2 L 308 0 L 325 41 Q 321 35 296 63 Q 271 91 239 130 L 393 111 L 347 74 Z M 232 325 304 382 Q 336 343 360 295 L 245 308 Z M 269 191 Q 263 195 245 213 Q 215 245 167 284 L 161 276 Q 202 236 223 206 Q 245 176 245 161 L 252 158 Z M 336 158 343 152 Q 406 191 438 213 Q 436 232 430 249 Q 393 204 336 158 Z" fill="black" />
  </g>
  <g class="defect" id="01">
    <path d="M 226 336 Q 177 362 156 410" fill="none" stroke="red" stroke-width="3" />
  </g>
  <g class="defect" id="02">
    <path d="M 274 56 Q 319 25 302 2" fill="none" stroke="red" stroke-width="3" />
  </g>
</svg>