<svg xmlns="http://www.w3.org/2000/svg" width="512" height="512" viewBox="0 0 512 512">
  <g class="glyph">
    <path d="M 442 255 Q 409 257 325 266 V 321 Q 466 310 464 305 L 490 327 Q 446 327 299 345 L 314 369 Q 303 374 283 396 Q 257 424 224 457 L 389 433 L 354 385 L 360 378 Q 413 433 444 461 L 426 501 Q 415 475 398 444 Q 305 464 259 475 Q 213 486 200 492 L 180 461 L 209 455 Q 231 428 255 398 Q 279 367 290 345 Q 198 354 176 360 L 147 334 Q 187 336 305 323 V 268 Q 231 277 220 281 L 191 257 Q 210 257 305 248 V 215 Q 303 200 297 185 L 218 193 Q 218 218 211 211 L 191 187 Q 198 180 198 160 L 196 81 Q 196 59 189 29 L 196 24 L 215 64 L 409 42 L 420 22 L 446 42 L 431 62 L 420 152 L 433 171 L 310 185 L 332 200 Q 323 207 325 231 V 246 Q 418 237 420 231 Z M 125 246 185 213 187 224 125 264 123 422 Q 123 486 103 512 Q 79 470 33 422 L 40 415 L 97 461 Q 103 468 103 418 L 105 275 Q 48 310 35 323 L 0 305 Q 20 301 105 255 V 171 Q 44 185 40 189 L 13 163 Q 27 163 105 149 L 108 66 Q 110 29 97 4 L 103 0 L 138 31 Q 125 31 127 75 L 125 147 Q 163 138 167 134 L 189 156 Q 169 158 125 167 Z M 411 64 352 70 347 160 400 154 Z M 266 79 215 86 218 174 266 169 Z M 332 73 286 77 V 167 L 327 163 Z" fill="black" />
  </g>
  <g class="defect" id="01">
    <path d="M 191 257 Q 210 257 305 248" fill="none" stroke="red" stroke-width="3" />
  </g>
  <g class="defect" id="02">
    <path d="M 13 163 Q 27 163 105 149" fill="none" stroke="red" stroke-width="3" />
  </g>
</svg>