<svg xmlns="http://www.w3.org/2000/svg" width="512" height="512" viewBox="0 0 512 512">
  <g class="glyph">
    <path d="M 275 443 280 437 344 471 Q 349 452 349 428 V 372 L 226 383 Q 241 400 258 417 Q 256 432 245 450 Q 232 417 215 383 Q 172 387 163 392 L 138 370 Q 168 370 349 353 Q 351 316 342 305 L 213 316 Q 213 346 207 338 L 185 308 Q 196 301 194 278 V 191 Q 183 143 187 138 L 194 136 L 209 157 L 258 153 V 110 Q 189 118 172 123 L 146 99 Q 174 99 312 86 Q 333 58 344 34 Q 355 11 351 2 L 357 0 L 379 39 Q 372 37 361 48 Q 368 78 331 84 Q 424 75 443 69 L 465 95 Q 454 90 323 103 V 146 L 385 142 L 396 125 L 419 144 L 407 157 L 402 282 L 419 299 L 351 305 L 376 321 Q 366 327 368 338 V 351 Q 452 340 456 338 L 478 364 Q 471 361 368 370 V 443 Q 368 495 353 512 Q 340 495 275 443 Z M 30 407 95 445 Q 101 424 101 400 V 282 Q 34 321 32 329 L 0 310 Q 26 303 101 262 V 179 Q 43 189 37 194 L 13 168 Q 37 168 101 157 V 90 Q 103 32 86 13 L 93 9 L 131 41 Q 118 41 120 93 V 153 Q 142 151 157 144 L 176 168 Q 142 168 120 176 V 254 L 172 226 L 179 237 L 120 271 V 430 Q 120 471 105 495 Q 75 460 24 413 Z M 213 297 383 280 385 217 Q 327 222 314 211 Q 301 200 303 168 L 278 172 Q 275 194 264 215 Q 252 237 213 254 Z M 323 185 Q 329 200 344 200 Q 361 200 376 196 L 385 211 L 387 161 L 323 166 Z M 213 243 Q 252 215 256 174 L 213 179 Z M 353 256 Q 333 256 307 259 Q 280 262 258 267 L 237 247 Q 267 247 298 243 Q 329 239 333 237 Z M 254 88 Q 234 54 209 22 L 215 15 L 267 54 Q 262 73 254 88 Z M 278 151 303 148 V 105 L 278 108 Z" fill="black" />
  </g>
  <g class="defect" id="01">
    <path d="M 194 191 Q 183 143 187 138" fill="none" stroke="red" stroke-width="3" />
  </g>
  <g class="defect" id="02">
    <path d="M 361 48 Q 368 78 331 84" fill="none" stroke="red" stroke-width="3" />
  </g>
</svg>