<svg xmlns="http://www.w3.org/2000/svg" width="512" height="512" viewBox="0 0 512 512">
  <g class="glyph">
    <path d="M 470 167 Q 433 167 387 174 L 409 198 Q 402 202 396 227 Q 389 253 381 276 Q 374 299 352 352 Q 380 404 396 430 Q 411 455 423 460 Q 435 466 488 470 V 481 L 396 488 Q 411 467 385 450 Q 369 420 341 367 Q 308 415 264 452 Q 220 488 167 512 L 163 505 Q 268 448 330 349 Q 303 301 281 259 Q 268 290 251 319 L 242 314 Q 283 220 298 145 Q 312 70 315 41 Q 319 11 310 7 L 316 0 L 347 29 Q 341 24 334 59 Q 327 97 310 165 Q 442 147 442 141 Z M 145 305 Q 130 354 100 400 Q 70 446 7 494 L 0 488 Q 59 437 89 385 Q 119 332 134 253 Q 55 266 42 272 L 13 248 Q 40 251 152 233 V 187 Q 110 193 97 198 L 77 176 Q 101 176 152 167 V 125 Q 81 136 77 138 L 48 116 Q 75 119 152 105 V 51 Q 152 24 143 9 L 147 4 L 182 33 Q 169 40 171 64 V 103 Q 235 94 240 90 L 264 114 Q 244 114 171 123 V 165 Q 220 156 226 149 L 248 171 Q 235 171 171 182 V 231 Q 246 218 246 213 L 266 235 Q 244 237 156 251 Q 152 272 147 297 L 204 286 L 215 268 L 237 292 L 224 303 Q 228 354 201 407 Q 187 459 174 481 Q 154 446 123 411 L 125 404 L 169 439 Q 178 415 187 381 Q 196 347 202 308 Q 158 316 160 319 Z M 286 248 299 246 Q 301 259 313 286 Q 325 312 338 332 Q 358 292 370 242 Q 394 206 378 176 L 305 187 Q 294 226 286 248 Z" fill="black" />
  </g>
  <g class="defect" id="01">
    <path d="M 370 242 Q 394 206 378 176" fill="none" stroke="red" stroke-width="3" />
  </g>
  <g class="defect" id="02">
    <path d="M 224 303 Q 228 354 201 407" fill="none" stroke="red" stroke-width="3" />
  </g>
  <g class="defect" id="03">
    <path d="M 396 488 Q 411 467 385 450" fill="none" stroke="red" stroke-width="3" />
  </g>
</svg>