<svg xmlns="http://www.w3.org/2000/svg" width="512" height="512" viewBox="0 0 512 512">
  <g class="glyph">
    <path d="M 229 303 203 272 Q 205 261 214 233 Q 211 205 210 173 Q 209 142 205 126 L 211 122 L 233 153 L 325 146 Q 355 87 368 52 Q 381 17 375 2 L 381 0 L 412 39 Q 405 35 387 66 Q 368 98 342 146 L 397 142 L 410 122 L 436 146 L 418 163 L 410 246 L 427 266 L 235 277 Q 237 305 229 303 Z M 109 512 Q 85 473 33 423 L 41 416 L 102 460 Q 107 449 107 405 V 275 Q 33 320 33 325 L 0 307 Q 54 285 107 255 V 166 Q 52 174 41 179 L 13 155 Q 37 155 107 144 V 63 Q 107 26 94 4 L 102 0 L 137 35 Q 126 33 126 65 V 139 Q 174 131 172 126 L 194 153 Q 168 155 126 161 V 244 L 187 211 L 192 220 L 126 264 V 431 Q 126 484 109 512 Z M 235 255 388 246 397 163 233 174 Z M 392 403 Q 427 471 458 499 Q 359 508 305 476 Q 238 444 227 353 L 235 351 Q 266 425 306 450 Q 346 475 405 475 L 381 405 Z M 394 309 481 379 Q 479 397 471 420 Q 429 362 388 316 Z M 139 438 Q 174 418 194 346 L 205 349 Q 187 436 153 471 Z M 272 135 Q 246 72 222 26 L 229 22 Q 261 63 292 102 Q 283 120 272 135 Z M 277 301 Q 307 325 344 355 Q 340 366 331 392 Q 298 344 266 305 Z" fill="black" />
  </g>
  <g class="defect" id="01">
    <path d="M 305 476 Q 238 444 227 353" fill="none" stroke="red" stroke-width="3" />
  </g>
  <g class="defect" id="02">
    <path d="M 203 272 Q 205 261 214 233" fill="none" stroke="red" stroke-width="3" />
  </g>
</svg>