<svg xmlns="http://www.w3.org/2000/svg" width="512" height="512" viewBox="0 0 512 512">
  <g class="glyph">
    <path d="M 423 114 367 121 389 143 Q 382 147 373 170 Q 351 192 346 227 Q 363 238 372 246 Q 367 264 363 277 Q 348 259 333 246 Q 294 298 225 341 L 220 333 Q 283 283 315 235 Q 300 225 283 214 Q 244 261 188 294 L 184 287 Q 242 244 268 203 L 240 184 L 244 175 L 277 192 Q 302 149 302 127 Q 283 132 274 136 L 259 119 Q 227 173 190 210 L 181 203 Q 212 166 232 130 Q 253 93 266 57 Q 279 22 277 4 L 281 0 L 309 37 Q 305 32 289 60 Q 274 91 264 112 L 426 93 L 436 76 L 460 99 L 445 114 Q 428 220 408 280 Q 389 339 372 365 Q 346 331 318 300 L 322 294 L 367 322 Q 376 307 393 256 Q 410 205 423 114 Z M 110 510 Q 82 471 39 430 L 43 421 L 104 462 Q 110 443 108 404 V 272 Q 35 320 32 326 L 0 307 Q 48 289 108 253 V 164 Q 52 173 41 179 L 13 156 Q 41 156 108 145 V 65 Q 110 26 95 6 L 99 2 L 136 30 Q 127 39 127 58 V 140 Q 171 132 177 127 L 201 151 Q 164 153 127 160 V 244 L 177 218 L 181 227 L 127 261 V 439 Q 127 488 110 510 Z M 380 408 Q 402 454 436 508 Q 410 512 359 502 Q 307 493 269 452 Q 231 410 216 359 L 225 356 Q 242 402 284 442 Q 326 482 395 484 L 374 413 Z M 328 216 Q 339 197 349 167 Q 359 138 356 121 L 311 127 L 328 149 Q 322 153 296 199 Q 309 205 328 216 Z M 147 454 Q 175 434 192 367 H 203 Q 192 449 160 490 Z M 395 359 400 350 Q 449 385 473 402 Q 471 430 467 449 Q 439 402 395 359 Z M 283 335 Q 320 363 335 380 Q 331 395 320 417 Q 307 387 277 341 Z" fill="black" />
  </g>
  <g class="defect" id="01">
    <path d="M 373 170 Q 351 192 346 227" fill="none" stroke="red" stroke-width="3" />
  </g>
</svg>