<svg xmlns="http://www.w3.org/2000/svg" width="512" height="512" viewBox="0 0 512 512">
  <g class="glyph">
    <path d="M 155 129 129 105 Q 179 103 230 98 Q 244 11 249 4 L 254 0 L 282 37 Q 278 35 274 46 Q 269 59 254 96 Q 385 83 396 77 L 420 105 Q 387 105 295 114 Q 328 155 358 191 Q 405 208 407 236 Q 427 245 462 245 V 256 L 385 267 Q 383 256 372 245 L 357 260 L 346 365 L 363 383 L 269 392 V 451 Q 269 479 286 485 Q 302 490 341 490 Q 383 490 409 481 L 407 383 H 418 Q 424 473 438 494 Q 422 505 394 508 Q 365 510 339 511 Q 313 512 280 505 Q 247 499 249 451 V 394 L 190 398 Q 193 429 184 420 L 162 385 Q 171 381 171 354 V 300 Q 171 271 168 245 Q 153 263 114 300 L 107 293 Q 107 309 107 317 Q 105 359 101 379 Q 96 398 94 391 Q 92 383 81 350 L 31 359 Q 33 403 24 398 L 0 350 Q 11 344 10 300 Q 9 256 8 176 Q 7 96 2 61 L 9 59 L 24 103 L 90 92 L 101 72 L 127 90 L 114 107 Q 109 236 107 291 Q 173 219 221 118 Q 164 125 155 129 Z M 193 252 249 247 Q 252 186 238 166 L 245 162 L 280 193 Q 267 208 269 245 L 337 236 L 350 219 L 365 234 Q 313 160 278 114 L 245 116 Q 236 175 175 232 Z M 28 210 Q 37 210 63 201 L 85 221 L 28 230 L 31 335 Q 59 333 68 328 L 83 348 Q 92 254 92 116 L 26 125 Z M 190 374 249 370 V 326 Q 230 328 219 330 L 197 309 L 249 304 V 267 L 190 271 Z M 269 302 Q 300 300 306 295 L 326 319 Q 302 322 269 324 V 368 L 324 363 L 335 260 L 269 267 Z" fill="black" />
  </g>
  <g class="defect" id="01">
    <path d="M 358 191 Q 405 208 407 236" fill="none" stroke="red" stroke-width="3" />
  </g>
  <g class="defect" id="02">
    <path d="M 230 98 Q 244 11 249 4" fill="none" stroke="red" stroke-width="3" />
  </g>
  <g class="defect" id="03">
    <path d="M 245 116 Q 236 175 175 232" fill="none" stroke="red" stroke-width="3" />
  </g>
</svg>