<svg xmlns="http://www.w3.org/2000/svg" width="512" height="512" viewBox="0 0 512 512">
  <g class="glyph">
    <path d="M 242 322 344 312 357 298 381 322 368 331 Q 342 370 301 412 Q 353 460 377 474 Q 401 488 468 486 V 497 L 368 508 Q 376 490 288 425 Q 214 481 109 512 L 107 503 Q 207 464 272 412 Q 239 375 214 368 Q 174 412 137 440 L 133 431 Q 187 375 211 331 Q 235 288 233 266 L 240 264 L 264 296 Q 259 296 242 322 Z M 359 139 429 131 442 113 471 139 Q 455 139 405 200 L 397 194 L 420 153 L 179 176 Q 174 216 146 246 L 137 207 Q 168 185 172 129 H 183 L 181 157 L 231 153 Q 216 122 190 92 L 194 83 Q 218 100 251 129 L 240 153 L 296 146 Q 283 107 264 76 L 270 72 Q 318 100 318 120 L 305 146 L 342 142 Q 364 100 371 82 Q 379 63 375 48 L 381 46 L 407 81 Q 394 78 359 139 Z M 157 72 V 61 Q 251 48 322 28 Q 394 9 399 0 L 427 26 Q 388 33 333 46 Q 279 59 157 72 Z M 364 266 355 220 362 218 Q 379 259 399 290 Q 346 294 300 278 Q 253 261 224 207 L 231 203 Q 279 268 364 266 Z M 218 359 242 357 Q 242 368 283 401 Q 320 362 338 333 L 231 344 Z M 455 240 Q 455 261 449 277 Q 425 248 379 207 L 383 198 Q 420 218 455 240 Z M 161 312 155 275 Q 185 264 196 216 H 207 Q 205 270 161 312 Z M 320 240 Q 279 198 268 190 L 270 179 Q 298 192 327 207 Q 327 224 320 240 Z M 94 359 Q 98 312 102 258 Q 107 205 109 120 L 28 126 V 220 Q 76 216 76 211 L 98 233 Q 50 237 28 242 V 357 Q 70 353 78 349 Z M 28 377 Q 31 438 22 425 L 0 388 Q 11 377 9 349 V 131 Q 9 102 4 65 L 13 63 L 31 105 L 109 98 L 120 78 L 146 100 L 131 118 Q 124 264 120 317 Q 115 370 111 389 Q 107 407 105 407 Q 102 407 94 370 Z" fill="black" />
  </g>
  <g class="defect" id="01">
    <path d="M 368 508 Q 376 490 288 425" fill="none" stroke="red" stroke-width="3" />
  </g>
  <g class="defect" id="02">
    <path d="M 272 412 Q 239 375 214 368" fill="none" stroke="red" stroke-width="3" />
  </g>
  <g class="defect" id="03">
    <path d="M 270 72 Q 318 100 318 120" fill="none" stroke="red" stroke-width="3" />
  </g>
</svg>