<svg xmlns="http://www.w3.org/2000/svg" width="512" height="512" viewBox="0 0 512 512">
  <g class="glyph">
    <path d="M 247 505 241 499 Q 280 412 323 369 Q 347 306 360 210 Q 336 215 328 219 L 299 195 Q 330 195 362 189 Q 367 165 370 98 Q 373 30 360 20 L 364 13 L 401 43 Q 395 41 393 75 Q 391 108 384 187 L 438 176 L 449 158 L 475 180 L 460 197 Q 464 322 439 350 Q 434 388 422 432 Q 410 475 391 501 Q 371 462 338 425 L 343 417 L 391 456 Q 404 427 414 369 Q 425 310 436 200 L 382 208 Q 367 312 341 376 Q 315 440 247 505 Z M 124 228 121 466 Q 121 512 115 505 L 91 462 Q 104 451 102 417 L 104 226 Q 69 304 9 384 L 0 377 Q 59 289 98 180 Q 46 191 43 195 L 15 167 Q 50 169 104 158 V 69 Q 106 28 95 4 L 100 0 L 135 33 Q 121 39 124 74 V 156 Q 166 165 167 145 L 193 169 Q 163 169 124 176 V 213 Q 150 232 176 249 Q 176 269 169 293 Q 152 260 124 228 Z M 263 297 267 293 Q 291 328 310 360 Q 304 380 291 397 Q 289 384 284 362 Q 206 397 187 414 L 158 388 L 182 380 Q 215 319 256 223 Q 204 243 193 252 L 169 221 L 193 217 Q 219 148 229 112 Q 239 76 242 54 Q 245 33 239 17 L 245 13 L 278 50 Q 269 50 257 87 Q 245 124 213 217 L 263 206 Q 280 169 284 149 Q 289 128 284 117 L 291 111 L 321 152 Q 308 156 302 171 Q 295 187 204 377 L 280 349 Z" fill="black" />
  </g>
  <g class="defect" id="01">
    <path d="M 124 156 Q 166 165 167 145" fill="none" stroke="red" stroke-width="3" />
  </g>
  <g class="defect" id="02">
    <path d="M 460 197 Q 464 322 439 350" fill="none" stroke="red" stroke-width="3" />
  </g>
  <g class="defect" id="03">
    <path d="M 241 499 Q 280 412 323 369" fill="none" stroke="red" stroke-width="3" />
  </g>
</svg>