<svg xmlns="http://www.w3.org/2000/svg" width="512" height="512" viewBox="0 0 512 512">
  <g class="glyph">
    <path d="M 315 210 Q 271 215 256 219 L 236 206 Q 223 249 187 308 L 180 302 Q 208 243 229 169 Q 249 95 239 82 L 243 76 L 276 106 Q 267 113 263 124 Q 258 135 239 197 L 315 189 L 317 67 Q 299 40 308 4 L 312 0 L 345 30 Q 336 41 336 74 L 334 187 Q 406 178 427 169 L 456 195 Q 417 195 334 208 L 332 304 Q 388 297 408 293 L 436 319 Q 399 319 332 325 L 330 451 Q 436 443 453 436 L 484 462 Q 469 462 337 471 Q 219 479 189 486 L 158 462 Q 200 464 310 451 L 312 328 Q 260 334 243 341 L 217 315 Q 252 317 312 306 Z M 135 76 V 148 Q 174 141 187 135 L 217 158 Q 174 146 135 169 V 200 Q 165 217 189 232 Q 187 256 180 271 Q 163 243 135 215 L 132 490 Q 132 512 126 510 L 104 471 Q 113 460 113 421 L 115 223 Q 76 315 7 399 L 0 393 Q 72 282 111 171 Q 59 178 46 184 L 15 158 Q 54 158 115 150 V 46 Q 115 26 108 7 L 113 2 L 145 35 Q 132 37 135 76 Z" fill="black" />
  </g>
  <g class="defect" id="01">
    <path d="M 484 462 Q 469 462 337 471" fill="none" stroke="red" stroke-width="3" />
  </g>
  <g class="defect" id="02">
    <path d="M 217 158 Q 174 146 135 169" fill="none" stroke="red" stroke-width="3" />
  </g>
  <g class="defect" id="03">
    <path d="M 317 67 Q 299 40 308 4" fill="none" stroke="red" stroke-width="3" />
  </g>
</svg>