<svg xmlns="http://www.w3.org/2000/svg" width="512" height="512" viewBox="0 0 512 512">
  <g class="glyph">
    <path d="M 327 192 Q 302 181 310 212 Q 303 227 283 266 Q 427 253 453 246 L 481 270 Q 464 270 386 277 Q 364 342 331 397 Q 423 436 444 451 Q 442 471 442 492 Q 401 458 318 410 Q 242 484 144 512 L 139 503 Q 229 462 301 401 Q 255 379 216 362 L 251 290 Q 205 294 183 301 L 159 277 Q 190 277 261 268 Q 288 211 293 192 Q 298 172 294 161 L 301 157 Z M 170 266 Q 150 237 124 209 L 120 473 Q 122 510 115 505 L 92 464 Q 102 455 100 436 L 105 214 Q 68 301 7 381 L 0 375 Q 72 257 98 163 Q 52 170 37 176 L 13 153 Q 35 155 105 144 L 107 81 Q 109 20 98 7 L 102 0 L 135 31 Q 129 37 126 81 L 124 142 Q 155 137 170 131 L 192 153 Q 176 153 124 161 V 196 Q 155 216 179 231 Q 176 248 170 266 Z M 312 386 Q 344 336 362 279 L 275 288 L 237 355 Z M 207 205 192 174 Q 218 155 224 89 L 233 92 L 231 131 L 429 118 L 442 100 L 473 124 Q 460 129 412 194 L 403 190 L 429 137 L 229 150 Q 220 190 207 205 Z M 329 102 Q 314 59 281 4 L 288 0 Q 322 37 351 68 Z" fill="black" />
  </g>
  <g class="defect" id="01">
    <path d="M 139 503 Q 229 462 301 401" fill="none" stroke="red" stroke-width="3" />
  </g>
  <g class="defect" id="02">
    <path d="M 331 397 Q 423 436 444 451" fill="none" stroke="red" stroke-width="3" />
  </g>
  <g class="defect" id="03">
    <path d="M 327 192 Q 302 181 310 212" fill="none" stroke="red" stroke-width="3" />
  </g>
</svg>