<svg xmlns="http://www.w3.org/2000/svg" width="512" height="512" viewBox="0 0 512 512">
  <g class="glyph">
    <path d="M 300 272 Q 292 274 274 302 L 359 292 L 372 274 L 398 300 L 382 311 Q 348 374 320 406 Q 395 471 422 476 Q 449 482 480 484 V 495 L 400 506 Q 395 490 309 419 Q 242 484 134 512 L 130 503 Q 240 460 292 406 Q 266 382 229 356 Q 205 387 171 413 L 164 406 Q 210 363 244 310 Q 279 257 274 244 L 281 242 Z M 121 60 119 143 Q 151 138 169 132 L 190 156 Q 145 160 119 164 V 201 L 171 240 Q 173 257 166 281 Q 149 257 119 218 L 114 490 Q 117 510 108 510 L 82 464 Q 93 456 93 419 L 97 223 Q 67 302 6 385 L 0 376 Q 69 255 93 166 Q 43 175 32 179 L 9 153 Q 37 156 97 145 L 99 39 Q 99 17 91 4 L 97 0 L 132 37 Q 123 39 121 60 Z M 207 212 184 190 201 177 Q 203 80 192 71 L 199 65 L 229 95 Q 218 99 220 177 L 398 160 Q 417 69 402 54 L 408 48 L 439 80 Q 430 84 427 107 Q 423 130 417 167 Q 410 205 406 204 Q 402 203 398 179 L 223 194 Z M 369 43 Q 363 39 324 91 Q 346 106 372 125 Q 367 145 359 156 Q 339 132 311 106 Q 279 140 235 166 L 231 158 Q 270 125 296 93 Q 257 56 238 37 L 244 30 L 309 78 Q 326 54 337 35 Q 348 15 343 2 L 350 0 Z M 235 350 H 261 Q 280 352 302 393 Q 339 350 354 313 L 259 324 Z M 279 231 Q 270 229 244 253 Q 218 277 166 311 L 160 302 Q 194 277 226 245 Q 257 214 259 203 L 268 201 Z M 441 287 Q 395 251 337 214 L 341 205 Q 393 227 443 248 Q 443 272 441 287 Z" fill="black" />
  </g>
  <g class="defect" id="01">
    <path d="M 261 350 Q 280 352 302 393" fill="none" stroke="red" stroke-width="3" />
  </g>
</svg>