<svg xmlns="http://www.w3.org/2000/svg" width="512" height="512" viewBox="0 0 512 512">
  <g class="glyph">
    <path d="M 120 273 Q 162 275 242 266 Q 264 215 273 191 Q 281 166 273 151 L 279 149 L 308 184 Q 304 184 297 195 Q 290 206 264 266 Q 463 250 461 246 L 490 273 Q 448 270 375 279 Q 355 339 319 397 Q 400 439 434 452 Q 453 474 439 494 Q 379 448 304 412 Q 231 488 98 512 L 95 505 Q 226 465 281 403 Q 244 383 193 366 Q 213 328 233 288 Q 157 297 151 299 Z M 197 140 Q 191 180 166 206 L 155 171 Q 182 151 195 75 H 204 L 199 120 L 428 95 L 441 71 L 477 100 Q 435 121 395 188 L 386 184 L 423 117 Z M 222 359 295 386 Q 330 341 350 281 L 255 288 Z M 4 388 53 417 137 168 146 171 Q 86 381 64 472 Q 51 446 0 392 Z M 315 84 Q 295 49 259 4 L 266 0 Q 297 22 330 49 Q 324 66 315 84 Z M 66 38 129 86 Q 124 113 117 126 Q 93 82 62 44 Z M 66 257 Q 51 231 11 182 L 16 175 Q 49 199 78 222 Q 75 239 66 257 Z" fill="black" />
  </g>
  <g class="defect" id="01">
    <path d="M 477 100 Q 435 121 395 188" fill="none" stroke="red" stroke-width="3" />
  </g>
  <g class="defect" id="02">
    <path d="M 319 397 Q 400 439 434 452" fill="none" stroke="red" stroke-width="3" />
  </g>
  <g class="defect" id="03">
    <path d="M 434 452 Q 453 474 439 494" fill="none" stroke="red" stroke-width="3" />
  </g>
</svg>