<svg xmlns="http://www.w3.org/2000/svg" width="512" height="512" viewBox="0 0 512 512">
  <g class="glyph">
    <path d="M 418 372 411 464 Q 445 461 468 457 L 501 482 Q 454 482 307 491 Q 170 501 122 510 L 90 484 Q 147 484 181 482 Q 181 381 172 347 L 179 342 L 200 370 L 390 351 L 409 331 L 436 356 Z M 195 333 168 312 Q 200 308 222 294 Q 243 280 278 246 Q 207 257 177 264 L 147 236 Q 184 239 287 225 L 289 191 Q 243 195 218 204 L 184 179 Q 232 179 292 170 Q 296 133 287 119 L 296 115 L 324 140 Q 315 152 315 168 Q 372 161 402 154 L 432 177 Q 379 179 312 188 L 310 223 Q 409 214 443 207 L 478 230 Q 424 230 298 243 L 310 259 Q 296 259 234 305 L 374 287 Q 356 273 335 257 L 340 246 Q 383 271 427 294 Q 425 312 418 328 Q 422 330 386 301 Q 214 326 195 333 Z M 390 34 Q 379 39 372 71 Q 420 67 441 60 L 473 87 Q 432 87 367 92 L 344 156 L 335 154 L 347 96 L 264 103 Q 269 170 255 158 L 239 131 Q 246 126 243 106 Q 225 106 177 115 L 152 87 Q 174 87 243 83 Q 243 32 230 21 L 236 14 L 273 41 Q 262 55 264 80 L 349 73 Q 360 34 354 5 L 358 0 Z M 5 422 53 455 140 184 152 186 Q 76 461 64 512 Q 34 471 0 429 Z M 204 478 253 475 255 386 202 390 Z M 273 473 321 471 324 379 276 383 Z M 342 468 386 466 395 372 344 377 Z M 9 200 16 193 Q 51 220 83 246 Q 80 269 71 292 Q 44 239 9 200 Z M 64 46 71 37 Q 106 67 135 96 L 122 138 Q 96 85 64 46 Z" fill="black" />
  </g>
  <g class="defect" id="01">
    <path d="M 501 482 Q 454 482 307 491" fill="none" stroke="red" stroke-width="3" />
  </g>
  <g class="defect" id="02">
    <path d="M 478 230 Q 424 230 298 243" fill="none" stroke="red" stroke-width="3" />
  </g>
  <g class="defect" id="03">
    <path d="M 418 328 Q 422 330 386 301" fill="none" stroke="red" stroke-width="3" />
  </g>
</svg>