<svg xmlns="http://www.w3.org/2000/svg" width="512" height="512" viewBox="0 0 512 512">
  <g class="glyph">
    <path d="M 353 301 327 277 Q 290 322 237 359 L 231 353 Q 283 307 309 268 L 279 253 Q 246 296 194 329 L 190 322 Q 240 279 261 246 L 242 233 L 246 222 L 270 231 Q 279 218 288 200 L 235 207 Q 209 244 172 275 L 166 266 Q 209 218 228 185 Q 246 153 244 131 L 251 129 L 272 163 Q 264 159 248 185 L 407 163 L 420 142 L 447 163 L 429 179 Q 399 318 364 375 Q 338 340 320 320 L 327 314 L 359 340 Q 388 275 407 183 L 370 190 Q 355 227 338 259 L 357 270 Z M 9 501 0 492 Q 39 444 62 383 Q 85 322 90 257 Q 96 192 98 112 Q 100 33 87 22 L 94 15 L 133 50 Q 126 54 123 78 Q 120 102 115 207 Q 142 170 151 149 Q 161 129 159 113 L 168 111 L 185 159 Q 179 157 163 171 Q 131 197 115 227 Q 111 277 105 316 Q 153 346 170 359 Q 170 379 166 403 Q 153 383 100 329 Q 68 438 9 501 Z M 264 122 V 111 Q 242 113 198 122 L 170 100 Q 229 98 264 92 V 74 Q 264 31 253 24 L 257 17 L 294 44 Q 281 46 283 68 V 92 L 357 81 Q 377 17 368 4 L 373 0 L 403 33 Q 397 28 377 78 Q 436 70 442 65 L 466 94 Q 447 92 370 100 L 342 163 L 331 161 L 351 102 L 283 111 V 129 Q 283 159 279 157 L 259 133 Q 264 131 264 122 Z M 237 373 Q 264 444 305 465 Q 346 486 392 481 L 375 405 L 383 403 Q 416 484 429 501 Q 351 512 301 487 Q 251 462 229 375 Z M 207 379 Q 198 462 155 495 L 144 460 Q 181 442 198 377 Z M 466 451 Q 431 401 392 366 L 399 357 Q 438 383 473 410 Q 473 431 466 451 Z M 15 148 22 142 Q 61 194 76 216 Q 72 246 63 264 Q 52 222 15 148 Z M 320 253 Q 340 216 346 194 L 314 198 Q 303 220 288 240 Z M 275 357 279 349 Q 309 366 331 383 Q 333 399 327 420 Q 298 379 275 357 Z" fill="black" />
  </g>
  <g class="defect" id="01">
    <path d="M 163 171 Q 131 197 115 227" fill="none" stroke="red" stroke-width="3" />
  </g>
</svg>