<svg xmlns="http://www.w3.org/2000/svg" width="512" height="512" viewBox="0 0 512 512">
  <g class="glyph">
    <path d="M 139 216 126 255 192 246 205 227 229 248 214 264 Q 207 288 194 327 Q 181 366 161 388 Q 148 364 120 336 L 124 329 L 161 351 Q 179 318 192 266 L 120 275 Q 78 346 4 392 L 0 383 Q 46 351 76 308 Q 125 266 118 218 Q 39 231 33 235 L 7 214 Q 41 214 144 198 V 161 Q 107 166 92 170 L 70 150 Q 98 148 144 142 V 107 Q 74 115 61 120 L 37 100 Q 59 102 144 89 V 54 Q 144 24 131 7 L 135 2 L 172 31 Q 163 41 163 63 V 87 Q 216 76 229 70 L 251 92 Q 229 92 163 105 V 139 Q 203 133 209 131 L 231 148 Q 216 148 163 157 V 194 Q 211 185 231 179 L 248 200 Q 224 200 139 216 Z M 294 4 301 0 336 37 Q 325 39 317 64 Q 309 89 294 137 Q 412 122 416 118 L 440 142 Q 416 142 368 148 L 388 174 Q 383 176 371 205 Q 359 233 336 268 Q 381 327 403 334 Q 425 342 462 342 V 353 Q 425 355 381 364 Q 377 349 327 283 Q 272 346 200 386 L 196 377 Q 272 329 314 268 Q 294 240 268 203 Q 259 222 240 253 L 233 246 Q 248 220 260 188 Q 272 157 288 100 Q 303 44 304 27 Q 305 11 294 4 Z M 325 255 Q 349 211 358 184 Q 368 157 362 148 L 290 157 L 275 192 Q 305 233 325 255 Z M 388 501 Q 346 455 333 390 L 342 383 Q 386 434 412 464 Q 403 484 388 501 Z M 54 512 37 475 Q 63 460 81 386 H 92 Q 81 471 54 512 Z M 166 497 Q 176 451 144 397 L 153 392 Q 174 427 192 462 Q 181 484 166 497 Z M 242 399 253 392 Q 283 427 298 453 Q 290 475 277 490 Q 264 440 242 399 Z" fill="black" />
  </g>
  <g class="defect" id="01">
    <path d="M 166 497 Q 176 451 144 397" fill="none" stroke="red" stroke-width="3" />
  </g>
  <g class="defect" id="02">
    <path d="M 388 501 Q 346 455 333 390" fill="none" stroke="red" stroke-width="3" />
  </g>
  <g class="defect" id="03">
    <path d="M 76 308 Q 125 266 118 218" fill="none" stroke="red" stroke-width="3" />
  </g>
</svg>