<svg xmlns="http://www.w3.org/2000/svg" width="512" height="512" viewBox="0 0 512 512">
  <g class="glyph">
    <path d="M 449 241 Q 421 241 364 252 L 362 417 Q 447 408 451 401 L 475 425 Q 443 425 363 436 Q 284 447 263 451 L 239 425 Q 265 427 343 419 L 345 254 Q 312 258 302 263 L 278 241 Q 306 241 345 232 V 108 Q 310 115 306 119 L 276 100 Q 310 95 361 85 Q 412 74 421 67 L 447 89 Q 423 91 364 104 V 230 Q 401 226 427 217 Z M 26 241 Q 56 239 95 230 L 98 121 Q 50 130 43 135 L 17 113 Q 52 111 106 99 Q 161 87 163 82 L 182 106 Q 161 106 117 117 L 115 228 Q 141 223 154 217 L 171 241 Q 156 241 115 249 L 113 386 L 184 358 L 187 367 Q 124 397 78 419 Q 45 429 22 449 L 0 423 Q 13 423 93 393 L 95 252 Q 63 256 48 265 Z M 239 0 273 33 Q 267 37 265 74 Q 265 113 265 150 Q 282 197 255 271 Q 245 356 214 408 Q 182 460 106 512 L 102 503 Q 171 449 200 396 Q 228 343 236 260 Q 245 178 246 101 Q 247 24 232 4 Z M 210 137 Q 222 252 169 295 L 158 260 Q 195 234 200 137 Z" fill="black" />
  </g>
  <g class="defect" id="01">
    <path d="M 210 137 Q 222 252 169 295" fill="none" stroke="red" stroke-width="3" />
  </g>
  <g class="defect" id="02">
    <path d="M 78 419 Q 45 429 22 449" fill="none" stroke="red" stroke-width="3" />
  </g>
  <g class="defect" id="03">
    <path d="M 265 150 Q 282 197 255 271" fill="none" stroke="red" stroke-width="3" />
  </g>
</svg>