<svg xmlns="http://www.w3.org/2000/svg" width="512" height="512" viewBox="0 0 512 512">
  <g class="glyph">
    <path d="M 326 192 Q 318 210 313 216 Q 395 210 415 201 L 447 225 Q 426 223 356 231 L 380 255 Q 374 253 363 272 Q 385 285 413 305 Q 413 324 406 341 Q 396 305 359 281 Q 341 309 313 337 L 324 346 Q 318 348 318 365 Q 441 352 447 346 L 480 372 Q 471 383 318 385 V 480 Q 318 512 309 510 L 292 475 Q 298 467 298 456 V 387 Q 173 398 164 404 L 134 380 Q 181 380 298 367 Q 298 339 292 326 L 296 322 L 307 333 Q 328 298 341 271 Q 354 244 348 233 L 248 246 L 266 264 Q 259 268 246 289 L 285 320 Q 283 337 274 354 Q 261 326 240 296 Q 216 331 173 369 L 166 361 Q 223 302 242 246 Q 201 264 207 253 L 179 231 Q 231 229 307 216 Q 302 192 292 171 L 296 166 Z M 166 207 Q 138 210 106 216 L 102 328 L 175 300 L 179 309 Q 138 331 85 356 Q 32 382 32 387 L 0 363 Q 37 354 82 337 L 84 220 Q 58 225 54 229 L 22 205 Q 50 203 86 197 L 89 93 Q 48 102 45 104 L 15 78 Q 41 80 98 68 Q 156 56 156 52 L 177 80 Q 158 80 110 89 L 108 194 Q 130 190 143 184 Z M 428 0 449 26 434 41 Q 428 145 425 170 Q 421 194 417 190 L 400 162 Q 406 158 409 123 Q 413 89 415 43 Q 354 50 343 54 L 315 32 Q 346 32 413 22 Z M 253 171 Q 259 166 265 131 Q 270 95 272 52 Q 216 58 199 65 L 173 43 Q 197 43 272 32 L 285 13 L 309 35 L 294 48 Q 287 106 282 150 Q 277 194 268 197 Z M 257 130 Q 192 181 186 190 L 160 173 Q 175 175 255 119 Z M 406 104 Q 346 166 337 181 L 315 164 Q 331 162 402 95 Z M 324 63 331 56 Q 356 67 374 80 Q 376 97 369 110 Q 350 91 324 63 Z M 186 80 188 69 Q 214 80 233 93 Q 233 110 231 125 Q 207 97 186 80 Z" fill="black" />
  </g>
  <g class="defect" id="01">
    <path d="M 406 341 Q 396 305 359 281" fill="none" stroke="red" stroke-width="3" />
  </g>
  <g class="defect" id="02">
    <path d="M 480 372 Q 471 383 318 385" fill="none" stroke="red" stroke-width="3" />
  </g>
  <g class="defect" id="03">
    <path d="M 242 246 Q 201 264 207 253" fill="none" stroke="red" stroke-width="3" />
  </g>
</svg>