<svg xmlns="http://www.w3.org/2000/svg" width="512" height="512" viewBox="0 0 512 512">
  <g class="glyph">
    <path d="M 127 314 V 312 Q 100 432 11 512 L 7 503 Q 53 452 78 397 Q 102 343 114 272 Q 51 321 36 341 L 0 323 Q 47 312 116 254 Q 122 214 125 159 Q 127 105 122 73 L 131 71 L 147 116 Q 232 107 292 100 Q 280 73 236 7 L 243 0 Q 292 47 307 62 Q 305 73 296 100 Q 423 87 436 80 L 470 107 Q 432 105 147 138 Q 145 169 142 203 Q 187 198 240 183 L 258 209 Q 240 207 203 216 V 301 Q 223 298 232 294 L 249 316 Q 232 316 203 321 V 416 L 254 403 L 256 407 Q 269 383 278 361 L 236 276 L 243 272 L 287 343 Q 307 276 307 254 Q 263 260 240 267 L 216 247 Q 240 245 286 236 Q 332 227 343 220 L 363 247 Q 343 247 314 254 L 334 280 Q 327 287 321 303 Q 314 318 301 361 Q 325 398 338 419 Q 332 441 325 459 Q 318 436 292 378 Q 249 461 194 510 L 187 503 Q 216 470 254 416 Q 136 456 127 463 L 98 441 Q 102 436 183 421 V 325 Q 154 329 149 334 L 131 314 Q 145 312 183 305 V 218 Q 175 220 154 225 L 142 209 Q 136 278 127 314 Z M 461 198 Q 439 198 396 205 V 316 Q 436 309 443 307 L 467 329 Q 452 327 396 341 V 463 Q 436 459 454 454 L 483 474 Q 459 476 395 484 Q 332 492 314 499 L 292 472 Q 323 472 376 465 V 343 Q 347 345 343 349 L 325 325 Q 343 323 376 318 V 207 Q 356 209 343 214 L 323 194 Q 343 189 386 183 Q 430 176 443 171 Z M 42 125 49 120 Q 85 174 98 198 Q 89 216 80 232 Q 73 207 42 125 Z M 258 134 265 131 Q 289 160 307 183 Q 303 207 292 220 Q 287 196 258 134 Z" fill="black" />
  </g>
  <g class="defect" id="01">
    <path d="M 0 323 Q 47 312 116 254" fill="none" stroke="red" stroke-width="3" />
  </g>
  <g class="defect" id="02">
    <path d="M 98 441 Q 102 436 183 421" fill="none" stroke="red" stroke-width="3" />
  </g>
  <g class="defect" id="03">
    <path d="M 183 218 Q 175 220 154 225" fill="none" stroke="red" stroke-width="3" />
  </g>
</svg>