<svg xmlns="http://www.w3.org/2000/svg" width="512" height="512" viewBox="0 0 512 512">
  <g class="glyph">
    <path d="M 162 208 V 197 Q 188 186 197 118 H 206 L 203 149 L 256 142 Q 249 129 217 81 L 221 72 Q 247 92 274 114 Q 267 129 260 142 L 357 131 Q 394 61 387 42 L 394 37 L 416 74 Q 403 77 374 129 L 442 120 L 455 103 L 481 131 Q 462 138 420 193 L 411 184 L 438 142 L 201 173 Q 179 230 171 238 L 164 212 Q 153 214 114 219 L 112 335 L 182 306 L 186 315 Q 142 337 92 363 Q 42 389 31 400 L 0 374 Q 28 372 92 346 L 94 225 Q 68 230 55 234 L 26 208 Q 53 208 96 201 L 98 96 Q 59 103 53 109 L 24 83 Q 48 83 102 72 Q 155 61 158 57 L 182 83 Q 160 83 118 90 L 116 197 Q 133 195 142 190 Z M 293 287 Q 289 282 263 315 L 361 300 L 374 282 L 405 306 L 381 324 Q 354 365 319 405 Q 350 429 372 444 Q 394 459 414 467 Q 433 475 486 475 V 486 L 398 501 Q 396 490 375 472 Q 354 453 306 418 Q 217 486 116 512 L 109 503 Q 223 462 289 405 Q 263 381 230 359 Q 199 389 164 420 L 158 411 Q 195 374 231 325 Q 267 276 265 252 L 271 249 Z M 365 203 372 201 Q 394 247 418 276 Q 280 298 249 186 L 258 184 Q 293 265 381 256 Z M 190 66 V 55 Q 278 37 342 22 Q 407 7 409 0 L 438 22 Q 416 26 364 36 Q 313 46 259 55 Q 206 63 190 66 Z M 263 319 234 352 256 348 Q 256 359 302 389 Q 339 350 354 322 Q 293 330 278 337 Z M 188 291 184 252 Q 212 243 230 197 L 241 199 Q 223 263 188 291 Z M 440 249 Q 409 214 372 179 L 376 173 Q 411 190 444 212 Q 444 230 440 249 Z M 322 129 Q 311 109 287 63 L 293 59 Q 313 77 335 96 Q 330 114 322 129 Z M 341 195 Q 341 210 335 230 Q 317 203 289 177 L 293 171 Q 317 182 341 195 Z" fill="black" />
  </g>
  <g class="defect" id="01">
    <path d="M 201 173 Q 179 230 171 238" fill="none" stroke="red" stroke-width="3" />
  </g>
  <g class="defect" id="02">
    <path d="M 164 212 Q 153 214 114 219" fill="none" stroke="red" stroke-width="3" />
  </g>
</svg>