<svg xmlns="http://www.w3.org/2000/svg" width="512" height="512" viewBox="0 0 512 512">
  <g class="glyph">
    <path d="M 4 333 0 326 Q 46 267 75 208 Q 105 149 114 114 Q 61 118 50 127 L 31 101 Q 63 101 126 92 Q 188 83 197 79 L 219 103 Q 182 103 127 112 L 140 129 Q 133 129 120 158 Q 107 186 92 219 L 96 236 L 160 228 L 173 206 L 199 230 L 184 243 L 168 348 L 188 365 L 98 376 Q 101 433 92 427 L 70 385 Q 81 376 81 339 V 234 Q 48 291 4 333 Z M 479 470 V 481 Q 411 484 379 488 Q 379 477 350 431 Q 322 385 302 359 Q 230 459 123 512 L 118 501 Q 225 433 291 341 Q 269 304 249 272 Q 230 241 217 236 V 225 H 252 Q 252 241 267 269 Q 282 298 302 330 Q 346 258 354 230 Q 363 201 357 190 L 363 186 L 389 232 Q 361 218 370 252 Q 359 271 315 344 Q 365 420 379 434 Q 392 449 407 457 Q 422 466 479 470 Z M 258 164 V 131 Q 221 136 212 140 L 188 116 Q 217 116 258 112 V 68 Q 258 33 249 20 L 256 11 L 289 44 Q 278 48 278 74 V 109 L 352 103 Q 363 55 365 38 Q 368 22 361 7 L 368 0 L 398 33 Q 392 28 387 42 Q 397 76 372 101 Q 424 96 435 92 L 459 116 Q 431 116 365 123 L 339 201 L 333 195 L 348 123 L 276 129 V 179 Q 276 217 269 214 L 252 186 Q 258 182 258 164 Z M 149 350 164 247 101 256 V 357 Z" fill="black" />
  </g>
  <g class="defect" id="01">
    <path d="M 389 232 Q 361 218 370 252" fill="none" stroke="red" stroke-width="3" />
  </g>
  <g class="defect" id="02">
    <path d="M 387 42 Q 397 76 372 101" fill="none" stroke="red" stroke-width="3" />
  </g>
</svg>