<svg xmlns="http://www.w3.org/2000/svg" width="512" height="512" viewBox="0 0 512 512">
  <g class="glyph">
    <path d="M 107 98 118 74 146 100 129 118 Q 122 264 118 324 Q 113 383 110 399 Q 107 414 102 415 Q 98 416 92 379 L 28 388 Q 31 447 22 436 L 0 397 Q 11 388 9 357 V 131 Q 9 102 7 65 L 15 63 L 28 105 Z M 237 320 340 309 355 292 386 320 362 333 Q 336 373 296 412 Q 346 460 370 474 Q 394 488 460 486 V 497 L 362 508 Q 355 490 283 425 Q 209 481 107 512 L 105 503 Q 203 464 266 412 Q 218 366 209 364 Q 170 412 135 440 L 129 434 Q 185 375 210 328 Q 235 281 229 266 L 235 264 L 259 301 Q 253 296 237 320 Z M 28 192 Q 72 185 81 179 L 102 205 Q 59 207 28 211 V 272 Q 74 268 78 264 L 96 290 Q 68 290 28 294 V 366 Q 70 362 74 357 L 92 377 Q 98 342 102 248 Q 107 155 107 118 L 28 124 Z M 353 139 416 131 431 107 468 133 Q 449 135 405 200 L 397 194 L 416 153 L 174 176 Q 170 216 142 246 L 135 207 Q 163 185 168 129 H 181 L 179 157 L 227 153 Q 211 122 187 92 L 192 83 Q 214 100 244 126 L 231 153 L 292 146 Q 279 109 259 78 L 266 72 Q 276 102 312 120 L 296 146 L 336 142 Q 353 100 358 82 Q 364 63 362 48 L 370 44 L 394 81 Q 381 78 353 139 Z M 153 72 V 61 Q 246 48 317 28 Q 388 9 392 0 L 420 26 Q 381 33 328 46 Q 275 59 153 72 Z M 357 266 349 220 355 218 Q 373 259 392 290 Q 340 294 294 278 Q 231 274 220 207 L 227 203 Q 275 268 357 266 Z M 214 359 237 357 Q 235 366 279 401 Q 318 359 333 329 L 227 342 Z M 447 240 Q 447 261 440 277 Q 418 248 373 207 L 377 198 Q 414 218 447 240 Z M 157 312 150 275 Q 183 264 194 216 H 203 Q 200 270 157 312 Z M 320 240 Q 281 198 266 190 L 268 179 Q 298 192 325 207 Q 327 222 320 240 Z" fill="black" />
  </g>
  <g class="defect" id="01">
    <path d="M 266 72 Q 276 102 312 120" fill="none" stroke="red" stroke-width="3" />
  </g>
  <g class="defect" id="02">
    <path d="M 294 278 Q 231 274 220 207" fill="none" stroke="red" stroke-width="3" />
  </g>
</svg>