<svg xmlns="http://www.w3.org/2000/svg" width="512" height="512" viewBox="0 0 512 512">
  <g class="glyph">
    <path d="M 115 77 144 95 126 113 Q 126 230 125 319 Q 124 408 121 433 Q 117 458 112 445 Q 106 433 97 411 L 32 422 Q 34 474 23 456 L 0 417 Q 14 404 11 361 V 167 Q 9 108 5 63 L 14 61 L 29 106 L 104 95 Z M 167 257 Q 167 201 158 183 L 165 176 L 198 210 Q 185 219 187 257 V 456 L 223 442 V 95 Q 223 45 208 27 L 217 20 L 257 54 Q 241 63 244 99 V 223 Q 275 219 286 214 L 304 235 Q 280 237 244 244 V 433 L 291 408 L 295 417 Q 162 492 151 505 L 120 478 Q 140 476 167 462 Z M 334 262 Q 372 223 389 196 Q 406 169 404 151 L 413 149 L 433 194 Q 424 192 400 217 Q 377 241 334 280 V 447 Q 332 483 363 489 H 411 Q 433 492 436 477 Q 440 462 440 374 H 451 Q 451 422 454 453 Q 458 485 471 496 Q 453 510 429 512 H 359 Q 307 510 314 447 V 79 Q 316 25 298 7 L 304 0 L 345 34 Q 332 45 334 83 Z M 83 196 99 219 Q 68 221 32 226 V 289 Q 77 284 86 282 L 99 304 Q 54 318 32 311 V 399 Q 81 392 86 390 L 99 408 Q 101 397 104 319 Q 106 241 106 117 L 32 129 V 208 Q 74 198 83 196 Z" fill="black" />
  </g>
  <g class="defect" id="01">
    <path d="M 99 304 Q 54 318 32 311" fill="none" stroke="red" stroke-width="3" />
  </g>
</svg>