<svg xmlns="http://www.w3.org/2000/svg" width="512" height="512" viewBox="0 0 512 512">
  <g class="glyph">
    <path d="M 113 192 115 190 Q 64 221 7 241 L 0 236 Q 130 172 188 110 Q 66 124 51 128 L 24 104 Q 57 108 234 90 V 49 Q 177 60 99 66 L 97 55 Q 203 40 275 24 Q 346 9 353 0 H 355 L 384 24 Q 358 26 254 44 V 88 Q 417 77 428 73 L 455 95 Q 426 93 276 102 Q 340 143 381 166 Q 403 188 479 181 L 481 190 Q 437 196 399 207 Q 393 196 355 172 L 254 104 L 252 166 Q 252 199 245 188 L 225 161 Q 232 154 232 139 L 234 106 L 221 108 Q 172 154 117 188 L 135 207 L 188 205 Q 205 166 196 154 L 203 150 L 227 174 Q 218 179 199 205 L 338 196 L 351 183 L 373 205 L 358 218 L 349 287 L 362 302 L 135 313 V 338 Q 329 327 393 318 L 413 338 Q 267 344 135 355 L 132 377 L 410 362 L 426 346 L 448 369 L 433 382 Q 406 472 382 512 Q 355 481 322 459 L 324 455 L 377 477 Q 397 439 410 380 L 130 395 Q 130 406 124 404 L 106 377 Q 115 369 115 358 L 117 265 Q 119 218 113 192 Z M 137 254 Q 263 247 307 241 L 324 258 Q 280 280 137 269 L 135 296 L 329 285 L 340 214 L 137 225 Z M 64 490 51 461 Q 82 448 99 402 H 106 Q 93 466 64 490 Z M 331 455 Q 313 426 289 393 L 294 388 Q 324 410 344 426 Q 340 441 331 455 Z M 188 457 Q 181 470 168 481 Q 157 439 143 408 L 150 406 Q 170 433 188 457 Z M 249 468 Q 242 433 212 402 L 216 397 Q 241 419 267 444 Q 260 455 249 468 Z" fill="black" />
  </g>
  <g class="defect" id="01">
    <path d="M 324 258 Q 280 280 137 269" fill="none" stroke="red" stroke-width="3" />
  </g>
  <g class="defect" id="02">
    <path d="M 249 468 Q 242 433 212 402" fill="none" stroke="red" stroke-width="3" />
  </g>
  <g class="defect" id="03">
    <path d="M 381 166 Q 403 188 479 181" fill="none" stroke="red" stroke-width="3" />
  </g>
</svg>