<svg xmlns="http://www.w3.org/2000/svg" width="512" height="512" viewBox="0 0 512 512">
  <g class="glyph">
    <path d="M 206 58 Q 193 60 135 86 L 131 174 Q 195 165 193 161 L 223 184 Q 201 184 131 191 L 129 216 Q 163 236 186 249 Q 189 266 182 283 Q 171 259 129 234 L 122 446 Q 124 506 114 493 L 94 450 Q 103 448 103 420 L 109 240 Q 62 330 9 388 L 0 381 Q 69 291 105 195 Q 45 204 45 208 L 13 184 Q 49 184 111 178 L 116 94 Q 69 111 41 118 L 36 109 Q 94 88 136 63 Q 178 39 178 34 L 182 32 Z M 364 116 266 131 291 152 Q 283 148 263 206 L 308 236 L 300 272 Q 283 244 259 216 Q 234 268 193 306 L 186 300 Q 223 257 242 208 Q 261 159 261 131 Q 234 135 225 139 L 184 118 Q 227 120 320 104 Q 413 88 431 77 L 461 103 Q 424 105 366 116 L 394 139 Q 388 135 371 186 Q 403 206 435 227 Q 435 244 431 266 Q 407 236 366 199 Q 349 240 317 278 L 308 274 Q 336 236 351 187 Q 366 139 364 116 Z M 323 321 Q 433 311 446 304 L 473 330 Q 439 328 321 338 L 315 467 Q 315 512 308 508 L 287 461 Q 293 458 298 437 L 302 341 Q 199 349 180 353 L 150 330 Q 197 334 302 323 Q 306 298 296 283 L 300 276 L 332 302 Q 326 304 323 321 Z M 326 94 Q 304 51 274 6 L 281 0 Q 313 30 341 58 Q 336 73 326 94 Z" fill="black" />
  </g>
  <g class="defect" id="01">
    <path d="M 182 283 Q 171 259 129 234" fill="none" stroke="red" stroke-width="3" />
  </g>
</svg>