<svg xmlns="http://www.w3.org/2000/svg" width="512" height="512" viewBox="0 0 512 512">
  <g class="glyph">
    <path d="M 227 436 V 374 Q 52 385 30 389 L 0 367 Q 45 367 227 356 Q 225 320 214 305 L 223 298 L 240 313 Q 264 292 281 256 Q 298 220 298 207 L 169 218 L 188 240 Q 171 251 158 268 Q 190 285 207 296 Q 207 318 203 335 Q 186 309 151 277 Q 117 315 69 348 L 63 339 Q 106 302 133 266 Q 160 229 158 218 Q 112 223 89 225 L 63 205 Q 104 205 235 194 Q 225 166 201 136 L 207 130 Q 240 153 257 166 Q 248 179 242 194 Q 367 181 387 173 L 417 197 Q 387 199 307 207 L 328 229 Q 318 235 309 251 Q 354 272 376 283 Q 378 305 374 320 Q 346 294 302 261 Q 272 302 248 324 L 257 331 Q 246 341 246 354 Q 426 343 439 335 L 471 359 Q 419 361 246 372 V 469 Q 246 512 238 506 L 216 475 Q 227 460 227 436 Z M 283 104 Q 266 123 238 151 L 229 145 Q 268 99 285 62 Q 315 39 302 2 L 311 0 L 333 37 Q 320 48 296 84 Q 421 71 432 65 L 460 86 Q 428 89 341 97 Q 367 117 376 125 Q 374 143 361 160 Q 350 136 328 99 Z M 151 102 117 106 Q 89 136 39 177 L 30 171 Q 80 125 108 80 Q 136 35 143 9 H 151 L 166 50 Q 158 54 150 62 Q 143 69 127 89 Q 212 73 229 69 L 251 89 Q 252 104 162 99 Q 184 112 197 125 Q 192 143 184 158 Q 173 136 151 102 Z" fill="black" />
  </g>
  <g class="defect" id="01">
    <path d="M 251 89 Q 252 104 162 99" fill="none" stroke="red" stroke-width="3" />
  </g>
  <g class="defect" id="02">
    <path d="M 285 62 Q 315 39 302 2" fill="none" stroke="red" stroke-width="3" />
  </g>
</svg>