<svg xmlns="http://www.w3.org/2000/svg" width="512" height="512" viewBox="0 0 512 512">
  <g class="glyph">
    <path d="M 132 41 Q 119 50 99 87 Q 78 124 48 174 L 115 158 Q 139 119 141 89 L 150 87 L 169 128 Q 148 152 125 187 Q 119 221 59 282 L 143 267 Q 130 241 124 226 L 132 219 Q 169 265 182 282 Q 169 306 158 317 Q 152 293 148 280 Q 56 304 37 317 L 11 291 L 39 280 Q 74 236 106 178 Q 43 193 28 204 L 4 180 L 30 167 Q 69 106 85 67 Q 100 28 100 2 L 108 0 Z M 312 278 315 449 Q 312 492 299 512 Q 260 471 219 438 L 226 430 L 291 469 Q 295 456 295 423 L 293 280 Q 239 289 206 295 L 182 273 Q 239 269 313 259 Q 388 249 417 243 L 447 265 Q 401 269 312 278 Z M 393 163 382 158 397 106 219 128 Q 213 165 193 197 L 176 161 Q 202 139 206 69 H 219 V 108 L 395 87 L 410 65 L 445 95 Q 414 113 393 163 Z M 263 338 Q 254 347 229 379 Q 204 410 158 453 L 150 447 Q 184 410 208 370 Q 232 330 232 306 L 241 304 Z M 236 215 213 195 Q 265 189 299 183 Q 334 178 360 169 L 388 191 Q 351 195 306 202 Q 271 225 236 215 Z M 425 440 Q 395 393 334 325 L 341 319 Q 395 362 438 399 Q 436 423 425 440 Z M 9 473 0 427 Q 22 410 35 334 H 46 Q 48 427 9 473 Z M 115 393 Q 104 419 87 434 Q 82 380 74 332 L 85 330 Q 88 367 115 393 Z M 306 93 Q 289 41 267 7 L 276 2 Q 312 39 328 59 Q 319 78 306 93 Z M 176 375 Q 165 399 154 414 Q 137 356 119 323 L 128 319 Q 154 349 176 375 Z" fill="black" />
  </g>
  <g class="defect" id="01">
    <path d="M 125 187 Q 119 221 59 282" fill="none" stroke="red" stroke-width="3" />
  </g>
  <g class="defect" id="02">
    <path d="M 306 202 Q 271 225 236 215" fill="none" stroke="red" stroke-width="3" />
  </g>
  <g class="defect" id="03">
    <path d="M 85 330 Q 88 367 115 393" fill="none" stroke="red" stroke-width="3" />
  </g>
</svg>