<svg xmlns="http://www.w3.org/2000/svg" width="512" height="512" viewBox="0 0 512 512">
  <g class="glyph">
    <path d="M 131 39 Q 125 39 117 54 Q 109 70 99 92 Q 88 113 54 177 L 134 170 Q 174 111 163 93 L 170 88 L 197 127 Q 193 125 173 150 Q 154 174 130 208 Q 106 242 57 306 L 156 290 Q 140 254 131 236 L 138 231 Q 159 258 197 315 Q 190 326 174 344 Q 163 313 161 304 Q 63 326 27 340 L 11 308 L 39 304 Q 79 254 122 186 Q 69 218 29 206 L 16 174 H 36 Q 63 125 84 72 Q 92 20 95 5 L 102 0 Z M 360 174 442 270 Q 430 285 421 299 Q 412 283 399 256 Q 251 279 231 285 L 217 254 L 238 251 Q 324 131 310 109 L 317 106 L 340 150 Q 335 145 319 167 Q 304 188 251 258 L 392 242 Q 374 213 353 181 Z M 408 403 Q 428 453 460 512 Q 295 507 258 347 L 265 344 Q 304 464 419 483 L 401 406 Z M 331 7 V 0 L 360 2 Q 360 16 392 67 Q 424 118 440 138 Q 455 159 464 163 Q 473 168 505 172 V 181 L 437 186 Q 437 172 412 131 Q 387 91 365 50 Q 342 9 331 7 Z M 186 186 Q 240 118 258 79 Q 276 41 270 29 L 276 25 L 299 63 Q 295 61 267 102 Q 238 147 195 193 Z M 0 464 Q 32 437 39 362 H 48 Q 52 455 18 498 Z M 417 317 Q 458 358 496 392 Q 494 406 483 433 Q 446 372 410 324 Z M 236 351 Q 238 430 202 492 L 181 460 Q 215 437 229 351 Z M 127 440 Q 116 449 102 462 Q 93 406 84 360 L 91 356 Q 113 396 127 440 Z M 301 292 Q 333 326 367 360 Q 362 378 353 399 Q 326 347 297 297 Z M 168 435 Q 150 378 134 344 L 143 340 Q 172 381 188 408 Q 181 419 168 435 Z" fill="black" />
  </g>
  <g class="defect" id="01">
    <path d="M 122 186 Q 69 218 29 206" fill="none" stroke="red" stroke-width="3" />
  </g>
  <g class="defect" id="02">
    <path d="M 84 72 Q 92 20 95 5" fill="none" stroke="red" stroke-width="3" />
  </g>
</svg>