<svg xmlns="http://www.w3.org/2000/svg" width="512" height="512" viewBox="0 0 512 512">
  <g class="glyph">
    <path d="M 215 275 Q 224 259 222 236 Q 221 212 220 187 Q 219 161 210 125 L 219 123 L 239 157 L 326 148 Q 353 98 362 66 Q 371 34 373 9 L 385 7 L 407 49 Q 398 56 381 83 Q 364 110 344 145 L 387 139 L 400 121 L 427 148 L 409 163 L 400 244 L 416 264 L 244 279 Q 244 309 241 311 Q 239 313 215 275 Z M 47 186 121 177 Q 150 143 154 105 L 163 103 L 179 148 Q 163 161 142 189 Q 121 217 58 295 L 150 282 Q 141 266 127 237 L 136 233 Q 172 271 190 297 Q 177 322 168 333 Q 161 313 154 297 Q 78 309 34 326 L 7 304 L 38 293 Q 78 246 114 195 Q 40 208 22 219 L 0 197 L 25 183 Q 69 125 93 78 Q 116 31 114 2 L 123 0 L 152 40 Q 134 51 107 94 Q 80 136 47 186 Z M 244 262 376 248 387 161 241 174 Z M 402 407 Q 425 476 449 512 Q 368 512 312 484 Q 266 456 246 347 L 257 344 Q 286 445 320 462 Q 353 478 402 483 L 391 409 Z M 174 449 Q 203 429 215 355 H 228 Q 228 443 197 487 Z M 16 492 0 445 Q 34 420 38 347 H 49 Q 51 445 16 492 Z M 396 317 Q 454 360 483 382 Q 481 407 472 427 Q 432 371 389 324 Z M 174 389 Q 168 418 154 434 Q 136 378 121 331 L 130 326 Q 154 358 174 389 Z M 228 27 237 22 Q 273 65 295 94 Q 288 118 275 132 Q 257 85 228 27 Z M 89 449 Q 83 398 76 344 L 85 338 Q 101 371 118 414 Q 103 436 89 449 Z M 297 300 Q 335 331 358 355 Q 351 378 342 396 Q 315 347 288 306 Z" fill="black" />
  </g>
  <g class="defect" id="01">
    <path d="M 449 512 Q 368 512 312 484" fill="none" stroke="red" stroke-width="3" />
  </g>
</svg>