<svg xmlns="http://www.w3.org/2000/svg" width="512" height="512" viewBox="0 0 512 512">
  <g class="glyph">
    <path d="M 42 183 106 172 Q 139 119 139 93 L 148 88 L 166 130 Q 150 148 114 201 Q 77 254 42 296 L 139 280 Q 130 260 117 238 L 124 232 L 154 265 Q 188 225 211 184 Q 234 143 236 121 L 243 119 L 256 163 Q 245 174 221 212 V 472 Q 245 413 259 351 Q 274 289 269 256 L 276 252 L 307 291 Q 296 305 278 366 Q 309 391 331 406 V 274 Q 331 234 324 205 H 335 Q 358 163 375 104 Q 393 44 388 13 L 397 11 L 424 51 Q 413 64 391 126 Q 419 148 452 174 Q 448 194 444 212 Q 431 192 386 141 Q 362 190 344 214 L 360 227 Q 351 245 351 298 Q 397 291 419 285 L 446 305 Q 406 309 351 318 V 422 Q 402 459 426 466 Q 450 472 479 474 V 483 L 408 497 Q 353 450 274 380 Q 268 416 230 481 L 221 474 Q 223 508 214 512 L 192 474 Q 203 457 201 408 V 232 Q 181 254 161 274 L 172 289 Q 163 309 154 324 Q 148 302 143 294 Q 66 309 22 329 L 2 302 L 29 287 Q 68 236 102 185 Q 49 199 22 214 L 4 190 L 26 179 Q 60 130 82 83 Q 104 35 106 2 L 113 0 L 135 42 Q 128 46 106 82 Q 65 133 42 183 Z M 338 51 Q 331 62 326 75 Q 320 88 311 119 Q 333 139 346 150 Q 342 168 335 185 Q 322 157 307 132 Q 282 194 243 254 L 234 247 Q 271 177 289 117 Q 307 57 307 13 L 316 11 Z M 161 177 152 170 Q 190 124 212 82 Q 234 40 236 9 L 243 7 L 260 46 Q 249 62 232 88 Q 214 115 161 177 Z M 18 479 0 444 Q 20 415 26 349 H 38 Q 40 444 18 479 Z M 77 444 Q 75 386 68 346 L 77 344 Q 97 386 106 413 Q 99 430 77 444 Z M 170 391 Q 161 417 152 430 Q 141 393 115 338 L 124 333 Q 150 364 170 391 Z" fill="black" />
  </g>
  <g class="defect" id="01">
    <path d="M 444 212 Q 431 192 386 141" fill="none" stroke="red" stroke-width="3" />
  </g>
  <g class="defect" id="02">
    <path d="M 106 82 Q 65 133 42 183" fill="none" stroke="red" stroke-width="3" />
  </g>
  <g class="defect" id="03">
    <path d="M 274 380 Q 268 416 230 481" fill="none" stroke="red" stroke-width="3" />
  </g>
</svg>