<svg xmlns="http://www.w3.org/2000/svg" width="512" height="512" viewBox="0 0 512 512">
  <g class="glyph">
    <path d="M 405 21 435 49 412 70 410 465 Q 453 458 489 454 L 512 479 Q 424 484 337 491 Q 251 498 163 510 L 140 484 Q 163 484 233 479 L 230 105 Q 248 49 221 28 L 230 23 L 251 70 L 389 49 Z M 391 72 251 93 V 193 Q 335 184 356 175 L 379 200 Q 347 202 251 219 L 254 319 Q 326 307 351 300 L 375 323 Q 347 326 254 342 V 479 L 389 465 Z M 193 300 Q 61 358 44 370 L 26 335 L 49 328 Q 88 272 119 212 Q 40 228 30 237 L 12 205 L 28 200 Q 47 175 63 137 Q 79 100 97 61 Q 114 21 102 5 L 109 0 L 140 40 Q 128 42 104 92 Q 79 142 47 205 L 130 195 Q 147 168 155 150 Q 163 133 158 116 L 165 112 L 191 156 Q 179 151 137 222 Q 95 293 70 328 L 191 291 Z M 205 391 Q 46 454 33 477 L 0 454 Q 49 440 205 379 Z" fill="black" />
  </g>
  <g class="defect" id="01">
    <path d="M 410 465 Q 453 458 489 454" fill="none" stroke="red" stroke-width="3" />
  </g>
  <g class="defect" id="02">
    <path d="M 205 391 Q 46 454 33 477" fill="none" stroke="red" stroke-width="3" />
  </g>
  <g class="defect" id="03">
    <path d="M 230 105 Q 248 49 221 28" fill="none" stroke="red" stroke-width="3" />
  </g>
</svg>