<svg xmlns="http://www.w3.org/2000/svg" width="512" height="512" viewBox="0 0 512 512">
  <g class="glyph">
    <path d="M 61 59 80 87 111 85 Q 130 24 121 4 L 128 0 L 154 30 Q 145 30 124 82 L 202 76 L 213 59 L 236 78 L 221 93 L 213 187 L 223 206 L 130 213 L 154 234 Q 148 243 148 256 V 280 L 154 282 Q 208 241 208 219 H 215 L 223 258 Q 219 252 167 289 Q 197 297 226 304 Q 232 319 230 336 Q 195 315 148 295 V 358 Q 208 351 221 347 L 252 367 Q 203 379 148 377 V 477 Q 150 512 141 512 L 119 473 Q 130 462 128 434 V 380 Q 43 388 28 393 L 0 371 Q 59 369 128 360 V 302 Q 63 343 52 358 L 17 341 Q 52 332 128 284 V 252 Q 140 234 124 213 L 80 217 Q 82 239 74 236 L 54 206 Q 63 195 61 176 V 108 Q 61 78 54 61 Z M 432 80 Q 397 87 384 89 L 358 69 Q 377 69 430 61 L 440 41 L 464 61 L 451 76 V 412 Q 451 479 434 508 Q 417 482 367 423 L 373 419 L 427 464 Q 432 447 432 410 V 260 Q 380 347 373 362 L 345 351 Q 364 336 432 236 Z M 334 48 356 69 343 85 V 425 Q 343 482 325 505 Q 284 453 256 425 L 263 419 L 319 462 Q 323 447 323 423 V 263 Q 263 354 258 362 L 232 351 Q 254 336 323 241 V 87 Q 278 93 269 95 L 243 76 Q 269 76 321 67 Z M 80 141 Q 152 135 176 130 L 195 150 Q 137 154 80 161 V 197 L 193 189 L 202 95 L 80 106 Z M 354 148 358 141 Q 388 163 417 189 Q 414 204 408 221 Q 397 202 354 148 Z M 247 145 254 141 Q 286 174 302 191 Q 309 208 291 226 Q 280 200 247 145 Z M 95 295 Q 54 258 30 243 L 37 236 Q 67 249 95 263 Z" fill="black" />
  </g>
  <g class="defect" id="01">
    <path d="M 252 367 Q 203 379 148 377" fill="none" stroke="red" stroke-width="3" />
  </g>
  <g class="defect" id="02">
    <path d="M 128 252 Q 140 234 124 213" fill="none" stroke="red" stroke-width="3" />
  </g>
  <g class="defect" id="03">
    <path d="M 302 191 Q 309 208 291 226" fill="none" stroke="red" stroke-width="3" />
  </g>
</svg>