<svg xmlns="http://www.w3.org/2000/svg" width="512" height="512" viewBox="0 0 512 512">
  <g class="glyph">
    <path d="M 426 67 447 86 435 103 422 224 437 243 260 262 V 413 Q 260 467 329 467 H 383 Q 435 467 440 454 Q 445 441 445 353 H 454 Q 456 394 460 425 Q 465 456 471 473 Q 445 488 381 488 H 327 Q 256 500 241 426 V 133 Q 253 70 234 62 L 243 60 L 258 103 L 413 82 Z M 148 140 Q 200 129 202 127 L 226 148 Q 191 151 142 159 L 140 224 Q 183 217 185 215 L 211 237 Q 157 243 140 247 Q 138 275 131 312 Q 191 303 207 299 L 232 318 Q 207 321 127 333 Q 101 443 4 512 L 0 503 Q 84 435 105 336 Q 58 342 34 346 L 6 325 Q 28 325 110 314 Q 114 282 116 250 Q 71 256 54 260 L 26 241 Q 67 239 118 226 L 120 163 Q 60 172 49 176 L 22 157 Q 37 157 136 142 Q 183 22 172 4 L 176 0 L 202 34 Q 198 32 185 59 Q 172 86 148 140 Z M 413 105 342 114 V 230 L 400 224 Z M 323 116 260 125 V 241 L 323 234 Z M 93 133 Q 71 75 47 32 L 54 28 Q 84 65 108 99 Q 101 116 93 133 Z" fill="black" />
  </g>
  <g class="defect" id="01">
    <path d="M 241 133 Q 253 70 234 62" fill="none" stroke="red" stroke-width="3" />
  </g>
  <g class="defect" id="02">
    <path d="M 327 488 Q 256 500 241 426" fill="none" stroke="red" stroke-width="3" />
  </g>
</svg>