<svg xmlns="http://www.w3.org/2000/svg" width="512" height="512" viewBox="0 0 512 512">
  <g class="glyph">
    <path d="M 134 434 136 287 Q 98 372 6 432 L 0 426 Q 67 363 130 255 Q 58 264 41 268 L 11 248 Q 54 246 136 231 V 192 Q 80 203 73 205 L 50 184 Q 67 184 136 173 V 134 Q 78 140 58 145 L 35 125 Q 65 123 136 114 V 67 Q 136 22 123 6 L 130 0 L 164 35 Q 156 43 156 76 V 110 Q 214 102 218 97 L 240 121 Q 218 123 156 132 V 171 Q 192 164 203 162 L 225 181 Q 207 181 156 190 V 229 Q 220 220 227 216 L 255 238 Q 225 240 156 251 V 277 Q 199 300 216 309 Q 218 328 216 348 Q 199 326 156 289 L 153 484 Q 156 512 147 510 L 125 473 Q 134 460 134 434 Z M 395 39 421 65 Q 408 73 385 104 Q 361 134 328 179 Q 341 210 348 244 Q 436 227 449 223 L 480 244 Q 449 248 350 264 Q 361 439 326 510 Q 311 488 244 426 L 248 417 L 320 467 Q 337 389 331 266 Q 268 274 246 283 L 220 261 Q 251 259 328 246 Q 318 184 296 147 L 302 140 L 322 169 L 376 78 Q 287 91 261 97 L 235 78 Q 285 73 382 56 Z" fill="black" />
  </g>
  <g class="defect" id="01">
    <path d="M 136 287 Q 98 372 6 432" fill="none" stroke="red" stroke-width="3" />
  </g>
</svg>