<svg xmlns="http://www.w3.org/2000/svg" width="512" height="512" viewBox="0 0 512 512">
  <g class="glyph">
    <path d="M 236 359 Q 131 466 2 512 L 0 503 Q 133 442 223 344 Q 201 317 165 276 Q 129 234 114 241 L 112 232 L 153 225 Q 149 232 173 260 Q 199 291 234 330 Q 284 271 305 233 Q 326 195 315 177 L 324 175 L 346 225 Q 339 221 315 257 Q 291 293 247 346 Q 319 422 342 442 Q 365 462 388 469 Q 411 477 475 477 V 488 Q 414 492 365 503 Q 363 492 330 458 Q 298 424 236 359 Z M 199 182 Q 218 219 197 217 L 171 182 Q 179 177 177 168 L 175 138 Q 83 144 55 149 L 26 125 Q 45 127 171 118 L 166 72 Q 164 39 147 20 L 149 15 L 188 37 Q 182 42 186 74 L 190 116 L 289 109 Q 302 70 307 42 Q 313 13 302 4 L 309 0 L 341 37 Q 335 33 328 53 Q 319 72 309 109 Q 420 98 427 94 L 455 118 Q 433 118 302 129 L 269 217 L 260 212 L 284 129 L 195 136 Z" fill="black" />
  </g>
  <g class="defect" id="01">
    <path d="M 199 182 Q 218 219 197 217" fill="none" stroke="red" stroke-width="3" />
  </g>
  <g class="defect" id="02">
    <path d="M 26 125 Q 45 127 171 118" fill="none" stroke="red" stroke-width="3" />
  </g>
</svg>