<svg xmlns="http://www.w3.org/2000/svg" width="512" height="512" viewBox="0 0 512 512">
  <g class="glyph">
    <path d="M 26 508 2 479 Q 13 462 13 431 V 166 Q 13 127 0 94 L 11 90 L 33 138 L 88 131 Q 122 94 116 55 Q 129 15 118 2 L 125 0 L 153 35 Q 147 35 136 58 Q 125 81 103 129 L 271 114 L 284 90 L 311 112 L 293 131 Q 278 429 271 465 Q 265 501 259 496 Q 254 490 252 451 Q 190 451 33 462 Q 35 512 26 508 Z M 236 335 Q 184 337 33 352 V 442 Q 203 431 228 424 L 252 446 Q 258 396 274 133 L 33 158 V 236 Q 177 219 210 212 L 234 236 Q 197 238 33 256 V 333 Q 177 317 212 311 Z" fill="black" />
  </g>
  <g class="defect" id="01">
    <path d="M 88 131 Q 122 94 116 55" fill="none" stroke="red" stroke-width="3" />
  </g>
</svg>