<svg xmlns="http://www.w3.org/2000/svg" width="512" height="512" viewBox="0 0 512 512">
  <g class="glyph">
    <path d="M 123 110 166 103 181 84 202 103 189 123 187 400 Q 185 458 163 497 Q 138 458 101 419 L 105 413 L 157 450 Q 166 419 166 389 L 168 256 L 93 273 Q 93 318 77 380 Q 62 441 9 501 L 2 495 Q 41 445 56 389 Q 71 333 73 278 Q 43 284 28 293 L 0 267 Q 26 267 73 258 Q 77 123 71 82 L 77 80 L 90 116 L 108 112 Q 118 77 124 47 Q 129 17 123 4 L 127 0 L 157 32 Q 151 37 143 54 Q 136 71 123 110 Z M 318 280 Q 310 286 299 303 L 374 293 L 389 278 L 411 303 Q 400 305 385 332 Q 370 359 342 400 Q 392 447 407 461 Q 422 475 439 479 Q 456 482 480 482 V 493 L 404 503 Q 402 493 383 467 Q 364 441 331 411 Q 269 478 179 512 L 174 506 Q 267 458 316 396 Q 278 361 262 355 Q 239 385 204 417 L 198 411 Q 243 361 268 315 Q 293 269 288 256 L 293 252 Z M 445 77 Q 439 86 435 112 Q 430 138 428 156 Q 426 174 422 196 Q 402 217 412 218 Q 407 219 404 196 L 288 209 L 308 234 Q 299 234 269 258 Q 239 282 198 314 L 194 303 Q 219 282 245 256 Q 271 230 282 209 L 247 213 L 234 224 L 215 200 L 228 194 V 112 Q 230 90 222 73 L 226 67 L 256 99 Q 250 103 247 131 V 194 L 404 176 Q 409 153 415 108 Q 422 62 413 52 L 417 47 Z M 93 254 168 241 V 125 L 95 136 Q 95 189 93 254 Z M 389 39 Q 381 43 373 56 Q 366 69 346 99 Q 372 118 389 131 Q 389 153 383 170 Q 366 144 336 116 Q 303 151 258 185 L 254 179 Q 293 142 323 101 L 256 37 L 262 32 L 331 86 Q 339 47 361 30 Q 368 13 366 6 L 372 4 Z M 297 310 Q 267 338 269 349 L 284 344 Q 290 357 327 385 Q 355 346 370 312 Q 338 316 314 325 Z M 458 299 Q 413 260 351 222 L 355 215 Q 394 234 456 260 Q 460 278 458 299 Z M 131 366 Q 125 327 110 288 L 116 282 Q 133 310 148 333 Q 144 351 131 366 Z M 146 191 Q 142 209 131 224 Q 123 189 105 151 L 112 146 Q 131 172 146 191 Z" fill="black" />
  </g>
  <g class="defect" id="01">
    <path d="M 422 196 Q 402 217 412 218" fill="none" stroke="red" stroke-width="3" />
  </g>
  <g class="defect" id="02">
    <path d="M 297 310 Q 267 338 269 349" fill="none" stroke="red" stroke-width="3" />
  </g>
  <g class="defect" id="03">
    <path d="M 331 86 Q 339 47 361 30" fill="none" stroke="red" stroke-width="3" />
  </g>
</svg>