<svg xmlns="http://www.w3.org/2000/svg" width="512" height="512" viewBox="0 0 512 512">
  <g class="glyph">
    <path d="M 209 299 Q 224 312 230 321 L 288 271 Q 123 284 108 293 L 82 269 Q 118 269 305 250 L 325 234 L 351 262 Q 338 267 313 281 Q 288 295 237 331 L 241 344 Q 383 336 411 327 L 445 349 Q 385 351 245 364 Q 256 456 215 512 Q 194 482 129 428 L 133 419 L 213 469 Q 230 422 224 366 Q 67 379 28 383 L 0 361 Q 58 364 222 346 Q 219 327 202 305 Z M 170 101 Q 170 174 159 161 L 140 133 Q 148 131 148 103 Q 47 112 41 116 L 11 93 Q 41 95 148 86 V 56 Q 151 28 138 13 L 142 9 L 179 34 Q 168 43 170 60 V 84 L 275 75 Q 295 17 280 4 L 288 0 L 318 32 Q 312 30 297 73 Q 392 69 407 60 L 432 90 Q 402 86 290 95 L 262 155 L 254 151 L 269 95 Z M 187 129 Q 200 167 239 168 L 224 191 L 387 179 L 402 159 L 432 185 Q 409 194 372 245 L 364 241 L 385 198 L 71 224 Q 65 247 37 275 L 28 243 Q 41 234 52 216 Q 62 198 65 163 H 75 L 73 202 L 219 191 Q 204 166 183 136 Z" fill="black" />
  </g>
  <g class="defect" id="01">
    <path d="M 187 129 Q 200 167 239 168" fill="none" stroke="red" stroke-width="3" />
  </g>
</svg>