<svg xmlns="http://www.w3.org/2000/svg" width="512" height="512" viewBox="0 0 512 512">
  <g class="glyph">
    <path d="M 314 252 312 290 329 310 280 314 295 329 Q 288 338 288 364 Q 353 359 411 351 L 437 370 Q 376 374 288 381 Q 288 488 286 510 Q 269 490 258 478 Q 269 454 267 383 L 194 387 Q 172 439 139 464 Q 105 488 47 512 L 43 501 Q 92 475 115 460 Q 153 435 170 389 Q 67 396 45 400 L 22 379 Q 73 379 172 372 L 174 325 L 153 327 L 151 351 Q 142 346 129 323 Q 138 286 129 234 L 136 230 L 151 250 L 293 234 L 303 217 L 329 237 Z M 301 69 Q 370 65 411 58 L 437 77 Q 346 84 297 88 Q 286 123 271 157 Q 327 200 357 219 Q 387 239 410 243 Q 432 247 465 247 L 467 258 Q 432 260 385 271 Q 324 237 297 200 Q 254 163 226 138 Q 200 168 159 200 Q 200 198 218 196 Q 237 194 269 187 L 293 204 Q 191 217 163 222 L 148 209 Q 101 252 4 297 L 0 288 Q 62 254 104 223 Q 146 191 168 168 Q 157 157 148 146 Q 155 136 155 97 Q 84 101 47 105 L 22 86 Q 60 86 155 80 Q 153 41 140 17 L 146 11 L 183 37 Q 172 49 174 77 L 282 71 Q 286 30 282 6 L 288 0 L 318 32 Q 290 29 301 69 Z M 153 308 293 293 295 252 153 267 Z M 202 340 Q 198 351 196 370 L 267 366 Q 267 336 262 316 L 189 323 Z M 174 159 Q 209 127 219 93 L 174 97 Z M 245 120 237 129 260 148 Q 271 110 278 88 L 230 90 Z" fill="black" />
  </g>
  <g class="defect" id="01">
    <path d="M 43 501 Q 92 475 115 460" fill="none" stroke="red" stroke-width="3" />
  </g>
  <g class="defect" id="02">
    <path d="M 385 271 Q 324 237 297 200" fill="none" stroke="red" stroke-width="3" />
  </g>
  <g class="defect" id="03">
    <path d="M 318 32 Q 290 29 301 69" fill="none" stroke="red" stroke-width="3" />
  </g>
</svg>