<svg xmlns="http://www.w3.org/2000/svg" width="512" height="512" viewBox="0 0 512 512">
  <g class="glyph">
    <path d="M 181 327 207 349 189 364 179 450 196 467 77 478 Q 80 512 71 510 L 49 484 Q 58 473 58 456 L 54 381 Q 54 355 45 323 L 54 321 L 73 353 L 168 344 Z M 344 140 H 353 L 366 174 Q 353 179 323 197 Q 293 215 256 232 V 260 Q 243 290 299 290 H 342 Q 366 290 376 284 Q 387 278 389 226 H 400 Q 404 282 415 301 Q 387 310 342 310 H 286 Q 234 310 234 265 V 239 Q 191 258 153 271 L 148 262 Q 194 243 234 222 V 176 Q 234 148 228 127 L 234 125 L 267 151 Q 254 161 256 213 Q 299 187 319 171 Q 324 155 344 140 Z M 161 86 V 123 Q 161 133 156 129 Q 151 125 136 112 Q 142 105 142 88 Q 43 93 30 95 L 2 75 Q 43 75 142 71 V 54 Q 144 34 131 11 L 138 6 L 172 30 Q 161 41 161 54 V 69 L 265 65 Q 278 22 267 4 L 275 0 L 308 28 Q 299 34 286 62 Q 376 58 398 54 L 422 75 Q 368 75 282 80 L 256 131 L 247 129 L 260 82 Z M 359 333 H 366 L 379 372 Q 366 374 333 395 Q 301 415 269 430 V 445 Q 269 471 297 471 H 370 Q 398 471 408 464 Q 417 456 417 394 H 428 Q 432 460 443 480 Q 424 490 372 490 H 299 Q 250 490 250 447 V 374 Q 252 338 241 314 L 247 310 L 278 338 Q 267 346 269 417 Q 303 387 333 370 Q 353 353 359 333 Z M 157 452 168 361 75 370 77 460 Z M 131 301 Q 133 338 123 336 L 101 303 Q 110 295 110 267 V 196 Q 60 237 4 267 L 0 258 Q 67 213 100 180 Q 133 146 140 125 H 146 L 163 155 Q 151 159 131 179 Z" fill="black" />
  </g>
  <g class="defect" id="01">
    <path d="M 319 171 Q 324 155 344 140" fill="none" stroke="red" stroke-width="3" />
  </g>
  <g class="defect" id="02">
    <path d="M 256 260 Q 243 290 299 290" fill="none" stroke="red" stroke-width="3" />
  </g>
  <g class="defect" id="03">
    <path d="M 269 417 Q 303 387 333 370" fill="none" stroke="red" stroke-width="3" />
  </g>
</svg>