<svg xmlns="http://www.w3.org/2000/svg" width="512" height="512" viewBox="0 0 512 512">
  <g class="glyph">
    <path d="M 469 373 Q 428 373 330 383 V 478 Q 330 512 323 506 L 300 478 Q 311 469 311 441 V 386 Q 206 396 189 401 L 163 381 L 216 377 Q 253 349 270 311 L 234 317 Q 234 336 229 335 Q 225 334 208 313 Q 214 302 214 283 L 212 219 Q 210 199 201 178 L 208 174 L 231 199 L 253 197 Q 268 169 278 148 Q 289 126 285 116 L 293 114 L 317 141 Q 306 144 296 157 Q 285 171 268 195 L 381 176 L 394 161 L 420 182 L 405 195 L 392 283 L 407 300 L 306 308 L 338 328 Q 330 341 330 353 V 366 Q 431 356 446 349 Z M 137 281 Q 169 296 191 306 Q 191 326 186 341 Q 161 311 137 291 V 480 Q 137 510 131 503 L 107 478 Q 118 461 118 439 V 296 Q 59 352 6 411 L 0 405 Q 60 353 111 266 Q 47 274 34 276 L 13 259 Q 45 257 118 249 V 189 Q 70 182 36 210 L 32 201 Q 88 182 122 165 Q 156 148 165 139 H 171 L 199 161 Q 180 163 137 180 V 246 Q 169 242 186 236 L 206 255 Q 186 255 137 263 Z M 193 96 Q 193 152 189 141 L 167 126 Q 171 118 171 99 Q 58 109 47 114 L 19 92 Q 43 94 171 81 V 64 Q 169 26 156 13 L 163 6 L 201 34 Q 193 41 193 62 V 79 L 274 73 Q 289 17 278 6 L 287 0 L 319 36 Q 308 41 296 71 Q 396 62 411 58 L 435 81 Q 407 79 291 88 L 268 146 L 257 144 L 270 90 Z M 366 249 Q 345 249 308 255 Q 306 268 298 293 L 373 285 L 386 195 L 315 206 Q 313 223 311 238 Q 336 234 351 229 Z M 311 347 Q 311 326 304 308 L 291 311 Q 270 351 231 377 L 311 368 Z M 289 255 Q 261 259 251 263 L 231 253 L 234 300 L 278 293 Q 287 272 289 255 Z M 296 208 231 216 V 244 Q 246 244 291 240 Q 293 227 296 208 Z" fill="black" />
  </g>
  <g class="defect" id="01">
    <path d="M 118 296 Q 59 352 6 411" fill="none" stroke="red" stroke-width="3" />
  </g>
  <g class="defect" id="02">
    <path d="M 118 189 Q 70 182 36 210" fill="none" stroke="red" stroke-width="3" />
  </g>
</svg>