<svg xmlns="http://www.w3.org/2000/svg" width="512" height="512" viewBox="0 0 512 512">
  <g class="glyph">
    <path d="M 136 378 132 371 Q 211 312 244 261 L 218 266 Q 218 281 214 283 Q 211 286 193 257 Q 200 246 200 233 L 198 185 Q 198 156 191 143 L 198 138 L 213 154 L 352 136 L 363 116 L 387 136 L 374 152 L 367 229 L 382 246 L 248 261 L 264 286 Q 255 281 235 303 L 396 281 L 409 264 L 435 288 L 418 301 Q 407 365 394 421 Q 382 477 360 512 Q 336 481 297 450 L 301 444 L 356 475 Q 378 422 396 301 L 292 314 L 305 330 Q 294 334 290 347 Q 323 360 349 371 Q 352 385 347 402 Q 332 385 286 356 Q 259 387 226 411 L 222 404 Q 261 367 283 314 Q 255 319 246 325 L 233 308 Q 227 341 193 341 L 215 358 Q 209 360 207 385 L 204 422 Q 301 413 323 407 L 345 428 Q 303 428 202 442 L 189 453 L 171 426 L 187 418 L 189 345 Q 163 363 136 378 Z M 270 138 281 88 189 97 191 121 Q 191 138 185 136 L 165 116 Q 169 110 169 97 Q 81 105 59 112 L 35 88 Q 77 88 167 79 Q 165 29 149 18 L 152 11 L 189 31 Q 182 31 185 51 L 187 77 L 286 68 Q 292 42 293 31 Q 294 20 290 4 L 294 0 L 327 33 Q 316 33 305 68 Q 404 57 413 53 L 435 77 Q 400 75 301 86 L 279 141 Z M 354 156 215 174 218 202 Q 319 189 323 187 L 338 204 Q 294 207 218 220 V 246 L 347 231 Z M 0 264 Q 37 261 90 251 L 99 231 L 127 248 L 114 266 L 110 433 L 165 389 L 169 396 Q 119 446 94 477 L 75 455 L 90 439 L 94 268 Q 31 279 22 286 Z M 62 143 68 136 Q 103 156 130 174 Q 137 191 123 209 Q 97 178 62 143 Z" fill="black" />
  </g>
  <g class="defect" id="01">
    <path d="M 233 308 Q 227 341 193 341" fill="none" stroke="red" stroke-width="3" />
  </g>
  <g class="defect" id="02">
    <path d="M 130 174 Q 137 191 123 209" fill="none" stroke="red" stroke-width="3" />
  </g>
</svg>