<svg xmlns="http://www.w3.org/2000/svg" width="512" height="512" viewBox="0 0 512 512">
  <g class="glyph">
    <path d="M 434 283 Q 408 283 337 296 L 354 311 Q 346 318 346 341 V 443 Q 436 432 456 421 L 482 452 Q 449 449 340 461 Q 231 473 214 475 L 190 454 Q 227 456 326 445 V 298 Q 289 302 279 307 L 257 287 Q 218 361 166 421 L 160 415 Q 244 298 287 166 Q 223 177 214 181 L 190 160 Q 222 143 294 145 Q 318 73 321 46 Q 324 19 320 6 L 326 0 L 354 35 Q 346 41 341 56 Q 337 71 318 143 Q 419 127 443 119 L 469 143 Q 443 143 309 164 Q 287 229 257 285 Q 289 283 346 274 Q 402 266 410 261 Z M 140 272 Q 169 283 197 298 Q 197 318 192 337 Q 177 315 127 277 L 125 480 Q 127 512 117 508 L 97 462 Q 104 454 106 443 L 108 251 Q 60 311 6 354 L 0 346 Q 30 315 54 287 Q 78 259 98 229 Q 119 199 147 151 Q 56 166 37 173 L 11 149 Q 78 143 149 127 L 162 108 L 194 134 Q 184 136 167 161 Q 151 186 127 220 V 266 Q 147 248 164 226 Q 181 203 181 192 H 188 L 201 225 Q 190 227 140 272 Z M 151 93 Q 130 52 95 11 L 102 0 Q 143 32 164 52 Q 160 73 151 93 Z" fill="black" />
  </g>
  <g class="defect" id="01">
    <path d="M 190 160 Q 222 143 294 145" fill="none" stroke="red" stroke-width="3" />
  </g>
</svg>