<svg xmlns="http://www.w3.org/2000/svg" width="512" height="512" viewBox="0 0 512 512">
  <g class="glyph">
    <path d="M 158 503 Q 155 510 151 505 L 129 468 Q 120 462 136 446 V 418 Q 74 427 26 438 L 0 418 Q 44 416 136 400 V 372 L 88 379 Q 88 394 81 394 L 59 372 Q 63 359 62 347 Q 61 335 62 327 Q 63 319 59 295 L 63 293 L 79 309 L 133 302 V 274 L 107 276 Q 107 293 101 291 L 81 265 Q 88 256 85 238 Q 59 241 42 245 L 13 225 Q 46 225 85 219 Q 85 206 79 190 L 83 184 L 114 201 Q 109 206 107 217 L 177 210 Q 194 193 175 173 L 107 179 L 101 186 L 81 162 Q 88 133 79 79 L 85 74 L 98 94 L 184 88 V 50 Q 116 55 90 58 Q 63 61 48 63 L 15 39 Q 59 39 236 24 Q 414 9 435 0 L 468 24 Q 416 24 300 37 L 298 77 L 376 68 L 389 53 L 416 70 L 403 83 L 394 131 L 414 151 L 184 173 L 206 188 Q 199 190 199 208 Q 232 206 243 199 L 267 221 Q 238 221 199 228 L 197 249 L 210 267 L 155 271 V 300 L 208 293 L 221 278 L 241 298 L 230 309 L 228 344 L 243 361 L 158 370 V 398 Q 201 392 234 383 L 258 405 Q 221 407 158 416 Z M 284 177 302 206 392 195 407 177 431 197 418 212 V 440 Q 420 486 396 508 Q 376 479 328 440 L 333 433 L 392 466 Q 398 446 396 418 V 214 L 304 228 V 278 Q 337 276 370 265 L 392 287 Q 376 287 304 298 Q 284 317 300 341 Q 341 335 368 328 L 389 350 Q 346 352 298 359 Q 287 403 266 437 Q 245 470 199 512 L 193 505 Q 230 468 254 423 Q 278 379 281 296 Q 284 214 276 179 Z M 293 140 374 133 379 88 295 96 Z M 107 158 184 151 V 109 L 103 116 Z M 203 149 271 142 274 98 203 105 Z M 203 85 276 79 278 39 203 46 Z M 155 352 208 346 V 311 L 155 317 Z M 85 361 133 354 V 319 L 83 326 Z M 107 258 177 252 V 230 L 107 236 Z" fill="black" />
  </g>
  <g class="defect" id="01">
    <path d="M 177 210 Q 194 193 175 173" fill="none" stroke="red" stroke-width="3" />
  </g>
  <g class="defect" id="02">
    <path d="M 304 298 Q 284 317 300 341" fill="none" stroke="red" stroke-width="3" />
  </g>
  <g class="defect" id="03">
    <path d="M 129 468 Q 120 462 136 446" fill="none" stroke="red" stroke-width="3" />
  </g>
</svg>