<svg xmlns="http://www.w3.org/2000/svg" width="512" height="512" viewBox="0 0 512 512">
  <g class="glyph">
    <path d="M 314 149 V 143 L 343 145 Q 341 156 347 178 Q 356 209 378 279 Q 409 174 415 101 Q 352 110 330 119 L 308 97 Q 352 94 415 79 L 424 62 L 448 79 L 437 94 Q 426 189 389 310 Q 415 380 430 413 Q 444 446 456 456 Q 468 466 488 468 V 479 H 426 Q 426 466 415 433 Q 404 400 380 338 Q 343 418 286 488 V 501 Q 283 512 277 499 L 257 457 Q 268 450 266 428 V 369 Q 191 404 180 415 L 154 396 L 191 382 V 90 Q 180 92 169 97 L 147 73 Q 180 73 244 64 Q 308 55 323 48 L 343 73 Q 299 75 286 77 V 347 L 345 323 L 349 332 L 286 360 V 472 Q 330 409 369 310 Q 345 215 335 183 Q 306 168 314 149 Z M 51 325 123 314 136 297 156 321 143 334 134 413 149 431 57 442 Q 62 492 51 481 L 33 444 Q 40 437 37 390 Q 35 343 31 299 L 37 297 Z M 211 374 266 352 V 275 L 211 286 Z M 59 420 114 413 121 338 55 345 Z M 211 169 Q 242 165 253 158 L 266 171 V 81 L 211 88 Z M 211 266 Q 242 261 253 255 L 266 268 V 180 L 211 189 Z M 26 154 0 130 Q 24 132 81 123 Q 138 114 156 108 L 176 132 Q 158 130 100 138 Q 42 147 26 154 Z M 48 275 29 251 Q 37 251 87 246 Q 123 242 141 237 L 154 259 Q 138 257 100 263 Q 62 268 48 275 Z M 55 211 33 187 Q 55 189 93 182 Q 132 176 143 171 L 156 196 Q 138 196 103 200 Q 68 204 55 211 Z M 112 97 Q 99 51 79 4 L 86 0 L 130 62 Q 123 79 112 97 Z" fill="black" />
  </g>
  <g class="defect" id="01">
    <path d="M 29 251 Q 37 251 87 246" fill="none" stroke="red" stroke-width="3" />
  </g>
  <g class="defect" id="02">
    <path d="M 335 183 Q 306 168 314 149" fill="none" stroke="red" stroke-width="3" />
  </g>
</svg>