<svg xmlns="http://www.w3.org/2000/svg" width="512" height="512" viewBox="0 0 512 512">
  <g class="glyph">
    <path d="M 393 319 408 304 434 325 414 343 406 421 430 443 258 458 V 503 Q 244 512 249 508 L 230 471 Q 239 460 239 443 V 358 Q 239 343 234 323 L 243 319 L 254 330 Z M 67 338 150 328 163 312 187 334 169 351 161 427 176 449 74 462 Q 78 512 67 501 L 46 464 Q 52 458 50 409 Q 48 360 43 315 L 50 310 Z M 258 436 386 425 395 338 258 351 Z M 273 169 Q 291 137 310 77 Q 330 17 323 7 L 328 0 L 358 33 Q 351 33 343 49 Q 334 65 321 98 L 410 85 L 423 67 L 453 89 Q 427 113 399 165 L 391 161 L 410 104 L 312 121 Q 299 152 276 182 L 269 178 Q 226 254 208 295 L 182 280 Q 215 247 265 163 Z M 223 310 Q 288 278 293 247 Q 317 217 328 184 Q 338 152 332 132 L 336 126 L 367 150 Q 360 154 354 180 Q 386 223 404 243 Q 421 263 434 271 Q 447 280 482 280 V 293 L 414 302 Q 414 293 398 269 Q 382 245 345 195 Q 315 271 230 317 Z M 74 438 139 432 148 349 69 360 Z M 30 165 0 143 Q 39 143 107 133 Q 176 124 187 117 L 219 139 Q 187 141 131 149 Q 76 156 30 165 Z M 65 289 41 265 Q 52 267 103 259 Q 154 252 163 247 L 180 269 Q 171 267 123 276 Q 74 284 65 289 Z M 69 223 46 202 Q 67 202 112 195 Q 156 189 167 184 L 187 206 Q 169 206 125 213 Q 80 219 69 223 Z M 132 104 Q 121 59 102 11 L 108 4 Q 141 48 154 67 Q 145 87 132 104 Z M 263 89 Q 258 115 252 132 Q 232 89 202 48 L 213 41 Z" fill="black" />
  </g>
  <g class="defect" id="01">
    <path d="M 258 503 Q 244 512 249 508" fill="none" stroke="red" stroke-width="3" />
  </g>
  <g class="defect" id="02">
    <path d="M 223 310 Q 288 278 293 247" fill="none" stroke="red" stroke-width="3" />
  </g>
</svg>