<svg xmlns="http://www.w3.org/2000/svg" width="512" height="512" viewBox="0 0 512 512">
  <g class="glyph">
    <path d="M 64 51 155 40 171 18 197 40 180 53 171 146 188 168 124 175 V 268 Q 155 264 175 255 L 197 277 Q 164 281 124 290 V 401 L 188 375 L 193 386 Q 51 452 27 470 L 0 446 Q 20 441 42 432 V 313 Q 44 273 31 253 L 38 248 L 73 281 Q 62 286 62 308 V 426 L 104 408 V 177 L 66 182 Q 69 211 60 206 L 38 171 Q 47 168 47 157 L 44 84 Q 47 55 35 24 L 42 20 Z M 66 160 151 151 160 60 64 71 Z M 262 115 Q 299 144 313 153 L 304 191 Q 275 144 259 124 Q 220 162 188 242 L 182 235 Q 217 182 233 141 Q 248 100 255 62 Q 262 24 253 7 L 257 4 L 293 40 Q 286 38 279 57 Q 273 75 262 115 Z M 304 208 Q 337 157 349 123 Q 361 89 367 54 Q 372 20 363 4 L 368 0 L 406 33 Q 397 31 392 43 Q 388 55 372 115 Q 414 142 452 166 L 450 211 Q 419 168 368 124 Q 330 175 313 213 Z M 299 215 335 242 Q 324 248 324 266 V 297 Q 381 293 414 281 L 441 306 Q 430 304 324 319 V 419 Q 379 452 409 463 Q 439 474 490 470 V 481 L 410 499 Q 412 492 368 465 Q 324 439 231 390 Q 195 463 140 512 L 133 505 Q 195 437 218 363 Q 242 290 226 270 L 233 266 L 266 306 Q 262 304 255 319 Q 230 349 235 375 L 304 410 V 279 Q 306 237 290 219 Z" fill="black" />
  </g>
  <g class="defect" id="01">
    <path d="M 368 124 Q 330 175 313 213" fill="none" stroke="red" stroke-width="3" />
  </g>
  <g class="defect" id="02">
    <path d="M 255 319 Q 230 349 235 375" fill="none" stroke="red" stroke-width="3" />
  </g>
  <g class="defect" id="03">
    <path d="M 259 124 Q 220 162 188 242" fill="none" stroke="red" stroke-width="3" />
  </g>
</svg>