<svg xmlns="http://www.w3.org/2000/svg" width="512" height="512" viewBox="0 0 512 512">
  <g class="glyph">
    <path d="M 133 183 Q 138 169 138 149 L 135 68 Q 133 34 124 16 L 133 9 L 156 50 L 341 25 L 359 0 L 383 27 L 368 47 L 354 140 L 377 162 L 259 176 V 271 Q 359 253 383 244 L 408 266 Q 372 271 259 289 V 395 Q 311 424 343 439 Q 374 453 392 460 Q 411 467 501 471 L 503 483 Q 447 485 388 496 Q 363 474 135 343 Q 83 442 9 512 L 0 503 Q 63 435 98 368 Q 133 300 139 273 Q 144 246 135 230 L 142 226 L 174 273 Q 167 268 159 286 Q 151 304 142 327 Q 194 359 239 381 V 178 L 160 187 Q 160 208 159 214 Q 141 221 133 183 Z M 347 45 156 68 158 169 334 147 Z" fill="black" />
  </g>
  <g class="defect" id="01">
    <path d="M 159 214 Q 141 221 133 183" fill="none" stroke="red" stroke-width="3" />
  </g>
</svg>