<svg xmlns="http://www.w3.org/2000/svg" width="512" height="512" viewBox="0 0 512 512">
  <g class="glyph">
    <path d="M 231 63 Q 231 22 213 7 L 220 0 L 263 34 Q 249 43 252 74 L 249 117 Q 339 103 355 97 L 388 119 Q 348 121 249 137 L 247 216 Q 387 209 411 186 L 447 209 Q 404 211 231 238 L 263 256 Q 252 256 249 287 V 310 Q 344 294 359 287 L 388 312 Q 353 314 249 328 L 247 409 Q 367 469 371 476 Q 393 483 487 487 L 492 499 Q 422 503 368 512 Q 357 496 126 359 Q 101 404 73 441 Q 45 478 4 512 L 0 505 Q 36 469 64 428 Q 92 386 111 337 Q 130 287 124 265 L 128 260 L 159 305 Q 148 308 144 317 L 130 344 Q 208 363 227 397 L 229 292 Q 229 256 222 238 Q 76 256 61 263 L 25 240 Q 65 240 227 218 L 229 139 Q 146 150 126 157 L 94 135 Q 126 132 229 119 Z" fill="black" />
  </g>
  <g class="defect" id="01">
    <path d="M 247 409 Q 367 469 371 476" fill="none" stroke="red" stroke-width="3" />
  </g>
  <g class="defect" id="02">
    <path d="M 130 344 Q 208 363 227 397" fill="none" stroke="red" stroke-width="3" />
  </g>
  <g class="defect" id="03">
    <path d="M 247 216 Q 387 209 411 186" fill="none" stroke="red" stroke-width="3" />
  </g>
</svg>