<svg xmlns="http://www.w3.org/2000/svg" width="512" height="512" viewBox="0 0 512 512">
  <g class="glyph">
    <path d="M 155 219 Q 162 217 162 193 Q 120 202 84 209 Q 49 217 22 226 L 7 202 Q 33 199 75 193 V 49 Q 55 51 35 55 L 16 33 Q 58 31 124 24 Q 191 18 204 11 L 224 35 Q 208 35 182 38 V 213 Q 184 242 175 244 Z M 421 27 434 4 463 29 448 44 403 155 Q 454 215 459 266 Q 463 317 426 363 Q 395 324 359 290 L 363 284 L 426 324 Q 463 262 390 157 L 423 47 L 346 60 L 344 434 Q 346 508 335 499 L 313 452 Q 326 450 324 397 L 326 71 Q 324 33 317 2 L 324 0 L 341 40 Z M 279 253 262 250 182 268 V 350 Q 215 328 237 307 Q 259 286 255 279 L 264 277 L 273 317 Q 266 313 244 326 L 224 339 Q 262 381 281 408 Q 266 426 266 441 Q 248 399 217 344 L 182 366 L 180 459 Q 198 526 168 496 L 149 463 Q 160 459 160 428 L 162 273 Q 100 284 40 290 V 279 Q 106 268 176 250 Q 246 233 257 217 Z M 297 208 Q 281 182 253 155 Q 228 193 193 222 L 186 217 Q 217 182 237 142 L 195 100 L 199 93 L 248 126 Q 264 98 275 58 Q 228 66 215 73 L 191 53 Q 222 51 275 40 L 284 24 L 313 49 L 297 58 Q 284 100 264 137 Q 288 157 308 173 Q 306 195 297 208 Z M 95 84 Q 124 80 135 73 L 153 93 Q 137 93 95 102 V 133 Q 120 131 133 126 L 153 144 Q 137 144 95 151 V 188 Q 137 182 162 180 V 40 L 95 47 Z M 0 457 Q 24 443 76 401 Q 129 359 124 344 L 131 341 L 142 381 Q 140 375 89 412 Q 38 450 4 465 Z M 126 321 Q 124 317 84 345 Q 44 372 11 386 L 7 379 Q 47 357 79 330 Q 111 304 106 293 L 113 290 Z" fill="black" />
  </g>
  <g class="defect" id="01">
    <path d="M 281 408 Q 266 426 266 441" fill="none" stroke="red" stroke-width="3" />
  </g>
  <g class="defect" id="02">
    <path d="M 180 459 Q 198 526 168 496" fill="none" stroke="red" stroke-width="3" />
  </g>
</svg>