<svg xmlns="http://www.w3.org/2000/svg" width="512" height="512" viewBox="0 0 512 512">
  <g class="glyph">
    <path d="M 281 71 414 59 427 37 453 59 439 78 432 466 Q 494 473 489 457 L 512 482 Q 457 487 354 496 Q 251 505 213 512 L 185 489 Q 213 489 261 485 V 101 Q 261 62 254 32 L 263 27 Z M 281 190 Q 382 178 384 176 L 407 199 Q 373 199 281 213 V 313 Q 359 306 384 302 L 407 325 Q 370 325 281 336 V 482 L 411 469 L 418 82 L 281 94 Z M 169 39 Q 160 39 144 82 Q 185 105 235 133 Q 238 155 238 178 Q 183 123 139 96 Q 112 151 80 208 Q 162 194 199 185 L 219 208 Q 174 215 149 219 V 283 Q 197 277 215 272 L 238 293 Q 213 297 149 306 V 441 L 235 414 L 240 427 Q 190 443 122 469 Q 55 494 46 501 L 16 475 Q 53 469 128 446 V 309 Q 85 315 71 318 L 46 297 Q 78 293 128 286 V 222 Q 101 226 91 229 L 78 213 Q 53 251 7 302 L 0 293 Q 46 231 71 185 Q 96 139 120 79 Q 144 18 135 2 L 142 0 Z M 169 421 160 416 Q 171 391 181 361 Q 190 331 190 311 L 197 309 L 217 343 Q 225 347 201 362 Q 192 377 169 421 Z M 87 439 Q 88 391 53 354 L 59 347 Q 82 373 103 398 Q 98 418 87 439 Z" fill="black" />
  </g>
  <g class="defect" id="01">
    <path d="M 217 343 Q 225 347 201 362" fill="none" stroke="red" stroke-width="3" />
  </g>
  <g class="defect" id="02">
    <path d="M 87 439 Q 88 391 53 354" fill="none" stroke="red" stroke-width="3" />
  </g>
  <g class="defect" id="03">
    <path d="M 432 466 Q 494 473 489 457" fill="none" stroke="red" stroke-width="3" />
  </g>
</svg>