<svg xmlns="http://www.w3.org/2000/svg" width="512" height="512" viewBox="0 0 512 512">
  <g class="glyph">
    <path d="M 310 254 Q 445 243 456 239 L 486 258 Q 428 260 397 265 Q 373 343 341 391 Q 397 425 449 460 V 499 Q 401 453 330 406 Q 258 482 161 512 L 156 503 Q 258 460 312 395 Q 278 377 243 358 Q 265 312 280 276 Q 258 280 228 284 L 202 260 Q 232 260 289 256 Q 302 221 309 194 Q 317 167 315 154 L 321 152 L 343 187 Q 336 193 333 200 Q 330 206 310 254 Z M 158 41 Q 150 35 132 78 Q 167 98 208 119 Q 210 137 210 163 Q 180 130 128 91 Q 113 121 78 178 Q 143 167 169 156 L 197 176 Q 171 178 132 189 V 245 Q 182 236 189 232 L 213 252 Q 169 258 132 265 L 130 425 L 217 395 L 219 406 Q 77 466 43 479 L 15 453 Q 37 453 111 430 L 113 269 Q 87 273 65 282 L 37 258 Q 72 256 113 249 V 193 L 87 200 L 76 180 Q 41 234 7 267 L 0 258 Q 68 191 85 131 Q 115 72 121 43 Q 128 15 126 2 L 132 0 Z M 410 189 401 184 425 121 258 143 Q 249 187 226 213 L 217 178 Q 247 154 252 89 H 263 L 260 121 L 425 102 L 440 80 L 466 106 Q 449 117 410 189 Z M 267 351 323 382 Q 356 336 375 267 L 302 273 Z M 154 397 145 393 Q 161 354 168 325 Q 176 297 171 289 L 178 284 L 202 315 Q 195 312 154 397 Z M 345 93 Q 328 52 297 7 L 304 0 Q 334 28 358 56 Z M 76 412 Q 63 362 46 312 L 52 308 Q 74 345 93 380 Z" fill="black" />
  </g>
  <g class="defect" id="01">
    <path d="M 219 406 Q 77 466 43 479" fill="none" stroke="red" stroke-width="3" />
  </g>
  <g class="defect" id="02">
    <path d="M 0 258 Q 68 191 85 131" fill="none" stroke="red" stroke-width="3" />
  </g>
  <g class="defect" id="03">
    <path d="M 486 258 Q 428 260 397 265" fill="none" stroke="red" stroke-width="3" />
  </g>
</svg>