<svg xmlns="http://www.w3.org/2000/svg" width="512" height="512" viewBox="0 0 512 512">
  <g class="glyph">
    <path d="M 234 80 Q 232 78 154 85 V 158 L 184 154 L 200 132 L 226 154 L 208 171 Q 197 399 196 411 Q 195 423 192 441 Q 189 460 183 458 Q 178 456 174 421 L 54 427 Q 54 486 48 475 L 26 436 Q 37 427 35 382 V 202 Q 37 176 28 145 L 35 143 L 52 167 L 89 165 V 91 Q 39 95 24 102 L 0 78 Q 41 78 120 69 Q 200 61 210 52 Z M 54 408 Q 143 404 154 399 L 171 419 Q 178 393 182 295 Q 161 297 148 294 Q 135 291 135 265 V 180 L 108 182 Q 106 276 54 321 Z M 299 37 Q 299 20 293 4 L 297 0 L 330 28 Q 323 24 320 41 Q 327 59 315 100 L 367 91 L 380 74 L 401 93 L 386 108 L 380 200 Q 380 234 410 230 H 430 Q 449 230 451 218 Q 471 206 453 148 H 462 Q 462 174 464 197 Q 466 221 479 236 Q 464 247 434 249 H 410 Q 362 254 360 213 L 364 111 L 312 119 Q 297 232 213 291 L 210 282 Q 280 217 293 124 Q 254 132 249 137 L 223 113 Q 243 113 295 104 Q 299 54 299 37 Z M 438 282 466 306 Q 447 306 336 319 L 334 453 Q 336 512 325 501 L 306 466 Q 317 462 315 436 L 317 321 Q 249 330 241 334 L 215 310 Q 234 312 317 302 Q 323 232 310 215 L 315 208 L 347 239 Q 336 247 336 299 Q 425 289 438 282 Z M 182 276 187 176 154 178 V 263 Q 154 273 161 276 Q 167 278 182 276 Z M 89 184 54 189 V 308 Q 89 260 89 184 Z M 135 161 V 87 L 108 89 V 163 Z M 169 347 Q 150 349 129 351 Q 108 354 85 358 L 65 338 Q 93 336 116 334 Q 139 332 152 328 Z" fill="black" />
  </g>
  <g class="defect" id="01">
    <path d="M 320 41 Q 327 59 315 100" fill="none" stroke="red" stroke-width="3" />
  </g>
  <g class="defect" id="02">
    <path d="M 451 218 Q 471 206 453 148" fill="none" stroke="red" stroke-width="3" />
  </g>
  <g class="defect" id="03">
    <path d="M 234 80 Q 232 78 154 85" fill="none" stroke="red" stroke-width="3" />
  </g>
</svg>