<svg xmlns="http://www.w3.org/2000/svg" width="512" height="512" viewBox="0 0 512 512">
  <g class="glyph">
    <path d="M 317 158 V 150 L 351 156 Q 349 165 355 185 Q 360 206 380 267 Q 401 180 412 104 Q 351 115 341 117 L 315 95 Q 347 95 414 82 L 423 65 L 449 85 L 432 106 Q 417 215 388 295 Q 432 419 443 430 Q 436 440 484 447 V 458 L 419 456 Q 414 425 380 321 Q 349 406 302 464 L 297 460 Q 299 512 291 505 L 269 464 Q 280 453 278 419 V 356 Q 197 401 176 417 L 143 401 Q 180 386 195 377 V 85 Q 174 85 171 89 L 145 67 Q 193 65 254 57 Q 315 50 328 46 L 349 67 Q 336 67 297 72 V 332 L 328 317 L 332 323 L 297 345 V 453 Q 347 373 369 291 Q 345 208 337 188 Q 330 167 317 158 Z M 111 74 Q 141 91 174 113 Q 171 130 171 148 Q 143 119 106 87 Q 89 128 61 174 Q 128 161 143 154 L 165 174 Q 154 174 115 182 V 239 Q 145 232 152 228 L 176 245 Q 165 247 115 258 L 113 388 L 169 364 L 174 373 Q 63 432 30 451 L 2 432 Q 41 421 93 397 L 95 263 Q 67 269 48 276 L 24 256 Q 69 249 95 243 V 187 Q 76 191 72 193 L 61 176 Q 37 217 7 249 L 0 243 Q 30 197 51 159 Q 72 121 88 75 Q 104 28 100 2 L 106 0 L 132 35 Q 124 35 111 74 Z M 278 263 215 269 V 369 L 278 341 Z M 263 152 278 165 V 76 L 215 82 V 161 Q 249 156 263 152 Z M 258 243 278 254 V 174 L 215 180 V 249 Q 243 247 258 243 Z M 171 289 Q 165 302 139 367 L 130 362 Q 137 343 141 317 Q 145 291 143 267 L 148 263 Z M 63 388 Q 59 358 41 297 L 48 293 Q 65 325 82 360 Q 76 373 63 388 Z" fill="black" />
  </g>
  <g class="defect" id="01">
    <path d="M 443 430 Q 436 440 484 447" fill="none" stroke="red" stroke-width="3" />
  </g>
  <g class="defect" id="02">
    <path d="M 195 85 Q 174 85 171 89" fill="none" stroke="red" stroke-width="3" />
  </g>
</svg>