<svg xmlns="http://www.w3.org/2000/svg" width="512" height="512" viewBox="0 0 512 512">
  <g class="glyph">
    <path d="M 0 258 Q 61 209 78 141 Q 105 90 119 51 Q 133 13 125 4 L 129 0 L 158 35 Q 149 33 133 72 Q 168 94 210 118 Q 210 138 206 155 Q 188 131 129 83 Q 103 140 70 186 Q 140 175 171 166 L 190 186 Q 177 186 136 195 L 133 249 Q 175 243 177 236 L 201 256 Q 184 258 133 269 L 129 407 L 195 385 L 197 394 Q 160 409 102 435 Q 44 462 42 466 L 13 442 Q 48 435 112 411 L 114 274 Q 66 282 57 284 L 37 265 Q 63 263 114 254 L 116 199 Q 96 201 85 203 L 68 188 Q 39 230 7 265 Z M 241 339 Q 276 341 341 333 L 344 274 Q 302 278 289 282 L 269 260 Q 319 258 370 252 Q 420 245 431 243 L 453 263 Q 416 265 363 271 L 361 330 Q 458 324 449 319 L 477 341 Q 429 344 361 350 L 359 464 Q 361 512 350 505 L 330 468 Q 341 462 339 442 L 341 352 Q 291 357 267 363 Z M 468 197 Q 442 195 252 217 Q 249 311 231 377 Q 212 444 158 501 L 151 497 Q 199 433 213 380 Q 228 326 230 258 Q 232 190 230 164 L 236 162 L 249 197 Q 442 179 446 173 Z M 256 155 236 133 249 127 247 90 Q 249 61 236 46 L 241 42 L 274 61 Q 265 70 267 92 L 269 125 L 333 118 L 335 61 Q 337 24 324 4 L 328 0 L 365 26 Q 352 37 354 61 L 352 116 L 424 109 Q 429 83 431 67 Q 433 50 424 37 L 429 33 L 459 55 Q 451 55 446 91 Q 442 127 439 137 Q 435 147 430 148 Q 424 149 424 129 L 269 142 Z M 203 313 Q 197 309 182 336 Q 166 363 153 385 L 147 381 Q 164 339 171 317 Q 177 295 171 280 L 177 278 Z M 96 368 Q 92 383 77 398 Q 63 354 44 313 L 50 309 Q 74 339 96 368 Z" fill="black" />
  </g>
  <g class="defect" id="01">
    <path d="M 0 258 Q 61 209 78 141" fill="none" stroke="red" stroke-width="3" />
  </g>
  <g class="defect" id="02">
    <path d="M 361 330 Q 458 324 449 319" fill="none" stroke="red" stroke-width="3" />
  </g>
</svg>