<svg xmlns="http://www.w3.org/2000/svg" width="512" height="512" viewBox="0 0 512 512">
  <g class="glyph">
    <path d="M 401 178 393 239 410 258 321 267 332 284 321 297 358 356 Q 373 341 394 318 Q 414 295 421 269 H 427 L 438 308 Q 427 312 414 323 Q 401 334 364 367 Q 406 432 425 441 Q 445 451 479 453 V 466 L 401 471 Q 399 451 312 310 Q 293 336 269 362 L 282 373 Q 276 380 273 404 L 271 469 L 345 421 L 349 430 Q 308 464 292 478 Q 276 492 256 512 L 239 490 Q 252 477 252 462 L 254 377 Q 210 421 150 458 L 145 449 Q 195 414 242 364 Q 289 315 312 267 L 265 273 Q 265 295 258 291 L 236 263 Q 245 256 245 236 V 189 Q 245 165 241 148 L 249 143 L 263 167 L 382 154 L 393 139 L 417 161 Z M 121 87 Q 104 128 65 182 Q 100 178 135 170 Q 169 163 171 161 L 195 182 Q 167 187 126 193 V 245 Q 150 241 174 234 L 197 254 Q 167 258 126 265 V 410 L 187 388 L 189 399 Q 126 425 98 436 Q 69 447 39 464 L 11 438 Q 24 453 106 414 V 269 Q 67 276 54 282 L 28 260 Q 58 272 106 249 V 197 Q 91 200 80 204 L 63 184 Q 24 234 7 247 L 0 241 Q 35 200 61 159 Q 87 119 103 75 Q 119 30 119 7 L 126 4 L 148 39 Q 141 39 126 76 Q 161 93 191 111 V 148 Q 156 113 121 87 Z M 265 252 373 241 382 176 265 189 Z M 464 102 Q 421 104 340 114 Q 258 124 230 128 L 200 104 Q 245 104 332 95 Q 419 87 438 82 Z M 148 386 139 382 Q 152 349 158 327 Q 165 304 165 280 L 169 278 L 193 310 Q 189 308 179 328 Q 169 347 148 386 Z M 341 87 Q 329 48 284 7 L 289 0 Q 319 26 351 52 Q 349 67 341 87 Z M 63 406 Q 56 356 43 308 L 50 304 Q 67 336 85 371 Q 76 386 63 406 Z" fill="black" />
  </g>
  <g class="defect" id="01">
    <path d="M 11 438 Q 24 453 106 414" fill="none" stroke="red" stroke-width="3" />
  </g>
  <g class="defect" id="02">
    <path d="M 28 260 Q 58 272 106 249" fill="none" stroke="red" stroke-width="3" />
  </g>
  <g class="defect" id="03">
    <path d="M 341 87 Q 329 48 284 7" fill="none" stroke="red" stroke-width="3" />
  </g>
</svg>