<svg xmlns="http://www.w3.org/2000/svg" width="512" height="512" viewBox="0 0 512 512">
  <g class="glyph">
    <path d="M 248 341 Q 231 310 207 283 V 446 Q 207 512 198 501 L 176 457 Q 187 450 187 428 V 112 Q 170 55 182 26 L 191 24 L 204 62 L 255 57 L 268 40 L 292 62 L 277 77 L 242 165 Q 279 218 276 260 Q 272 303 248 341 Z M 136 37 Q 130 37 119 64 Q 147 84 174 103 Q 174 121 171 141 Q 145 105 114 75 Q 86 127 64 165 Q 81 163 102 159 Q 123 156 147 149 L 167 169 Q 145 171 116 180 V 231 Q 132 229 156 222 L 176 240 Q 154 244 116 251 L 114 398 L 174 380 L 176 391 Q 64 428 33 446 L 4 424 Q 33 420 94 402 L 97 255 Q 75 259 53 266 L 26 246 Q 44 246 97 235 V 182 Q 86 185 75 189 L 62 169 Q 40 204 7 240 L 0 233 Q 26 196 37 176 Q 48 156 59 137 Q 70 119 90 74 Q 110 29 110 2 L 116 0 Z M 466 59 490 81 Q 479 81 437 88 V 400 Q 437 475 420 501 Q 391 464 338 411 L 345 404 L 413 455 Q 418 426 418 396 V 90 Q 323 103 305 105 L 279 86 Q 336 81 397 73 Q 457 64 466 59 Z M 316 174 363 169 374 149 398 171 385 187 378 283 393 301 319 308 Q 321 338 312 341 L 292 308 Q 301 292 299 270 V 198 Q 299 171 292 152 L 301 147 Z M 207 268 246 301 Q 266 290 256 263 Q 257 251 254 226 Q 251 202 229 165 L 255 77 L 207 81 Z M 319 288 358 283 365 191 319 196 Z M 171 299 Q 165 305 156 323 L 132 371 L 123 367 Q 147 301 147 268 L 154 266 Z M 57 382 Q 48 334 37 288 L 44 283 Q 59 308 77 349 Q 73 360 57 382 Z" fill="black" />
  </g>
  <g class="defect" id="01">
    <path d="M 246 301 Q 266 290 256 263" fill="none" stroke="red" stroke-width="3" />
  </g>
  <g class="defect" id="02">
    <path d="M 187 112 Q 170 55 182 26" fill="none" stroke="red" stroke-width="3" />
  </g>
</svg>