<svg xmlns="http://www.w3.org/2000/svg" width="512" height="512" viewBox="0 0 512 512">
  <g class="glyph">
    <path d="M 233 211 253 235 244 246 Q 306 295 346 321 Q 386 348 398 352 Q 410 357 421 359 Q 432 361 485 359 L 488 368 L 397 390 Q 397 383 330 332 L 248 344 V 383 Q 319 377 337 375 L 357 397 Q 341 399 326 401 L 337 423 Q 328 432 321 442 Q 315 452 306 468 Q 388 461 408 457 L 432 477 Q 408 477 255 493 Q 102 510 73 512 L 44 492 Q 86 492 173 481 Q 160 454 144 430 L 151 423 Q 171 441 193 459 L 177 481 L 228 477 V 408 Q 160 414 135 417 L 109 397 Q 153 397 228 386 V 346 Q 186 350 162 355 L 146 341 Q 89 383 4 426 L 0 417 Q 66 379 114 341 Q 162 304 195 264 Q 228 224 226 213 Z M 264 120 H 270 L 290 151 Q 277 151 259 173 L 286 191 L 281 208 Q 328 149 339 104 Q 326 106 313 111 L 295 89 Q 315 86 344 82 V 53 Q 346 24 335 7 L 339 0 L 370 27 Q 361 33 363 53 V 80 Q 408 73 426 69 L 448 89 Q 428 89 363 102 V 135 Q 400 153 441 180 V 217 Q 412 186 363 149 V 217 Q 366 266 357 262 L 335 226 Q 346 215 344 195 V 149 Q 310 206 270 239 L 266 231 L 275 217 L 246 184 Q 211 215 180 235 L 173 228 Q 213 197 233 173 L 202 146 L 208 137 L 244 162 Q 268 131 264 120 Z M 133 64 Q 135 22 124 7 L 131 2 L 162 31 Q 151 38 153 62 V 98 Q 171 95 184 93 L 202 111 Q 180 113 153 117 V 146 Q 175 155 197 166 Q 199 182 197 199 Q 173 173 153 157 V 224 Q 155 284 144 270 L 124 242 Q 135 226 133 206 V 149 Q 77 206 27 273 L 20 266 Q 84 199 124 120 Q 69 129 58 131 L 31 111 Q 69 109 133 100 Z M 308 315 Q 268 281 233 257 Q 197 299 153 332 Q 180 330 231 325 Q 281 319 308 315 Z M 237 80 195 40 199 33 248 66 Q 257 55 266 41 Q 275 27 275 9 L 281 7 L 299 47 Q 286 49 280 55 Q 275 62 262 75 Q 275 84 286 93 L 281 120 Q 266 106 250 89 Q 224 117 193 137 L 186 129 Q 215 106 237 80 Z M 248 406 V 474 L 290 470 Q 306 430 310 401 Q 286 403 248 406 Z" fill="black" />
  </g>
  <g class="defect" id="01">
    <path d="M 133 149 Q 77 206 27 273" fill="none" stroke="red" stroke-width="3" />
  </g>
  <g class="defect" id="02">
    <path d="M 363 135 Q 400 153 441 180" fill="none" stroke="red" stroke-width="3" />
  </g>
</svg>