<svg xmlns="http://www.w3.org/2000/svg" width="512" height="512" viewBox="0 0 512 512">
  <g class="glyph">
    <path d="M 181 166 157 146 Q 191 144 241 136 Q 290 127 295 125 L 314 142 Q 333 101 343 65 Q 353 28 351 11 L 357 9 L 383 47 Q 379 47 372 58 Q 366 69 344 116 Q 426 105 441 99 L 465 120 Q 407 127 336 138 Q 323 161 297 198 L 290 194 Q 303 166 314 144 Q 284 148 215 159 L 237 174 Q 230 176 228 226 L 258 222 L 269 202 L 293 219 L 282 237 Q 275 331 266 390 Q 256 450 243 478 Q 219 439 196 415 L 200 409 L 239 435 Q 258 340 262 243 L 226 247 Q 211 407 127 499 L 120 493 Q 161 439 185 362 Q 209 286 211 159 Q 196 161 181 166 Z M 32 447 2 426 Q 28 422 95 400 L 97 271 Q 60 278 49 280 L 26 258 Q 43 258 97 252 V 198 L 71 204 L 65 187 Q 28 247 6 269 L 0 265 Q 52 183 74 130 Q 97 77 106 48 Q 116 19 112 2 L 118 0 L 142 37 Q 136 37 120 77 Q 146 93 170 105 Q 172 125 170 142 Q 146 118 116 90 Q 65 166 67 183 Q 133 174 148 166 L 166 187 Q 144 191 118 196 V 250 Q 151 245 163 241 L 183 262 Q 163 262 118 269 L 116 392 L 174 372 L 176 381 Q 123 407 83 423 Q 43 439 32 447 Z M 357 237 331 241 Q 308 288 297 303 L 288 299 Q 297 278 308 248 Q 318 219 324 197 Q 329 174 327 159 L 331 155 L 355 185 Q 349 191 338 217 Q 417 207 422 202 L 447 224 Q 426 224 370 234 L 385 247 Q 379 254 372 305 Q 437 299 439 297 L 463 316 Q 432 318 374 325 Q 419 454 430 468 Q 441 482 480 488 V 497 H 409 Q 409 482 400 447 Q 392 413 368 338 Q 355 392 329 433 Q 303 475 252 512 L 245 506 Q 282 480 311 431 Q 340 383 351 327 Q 310 331 303 333 L 280 314 Q 303 314 353 308 Q 359 250 357 237 Z M 179 305 Q 172 308 160 327 Q 148 346 136 370 L 127 366 Q 140 336 147 312 Q 155 288 153 275 L 159 273 Z M 250 110 Q 230 60 213 30 L 219 24 Q 250 60 265 80 Q 256 99 250 110 Z M 62 392 Q 52 340 41 308 L 49 303 Q 77 333 80 355 Q 75 372 62 392 Z" fill="black" />
  </g>
  <g class="defect" id="01">
    <path d="M 49 303 Q 77 333 80 355" fill="none" stroke="red" stroke-width="3" />
  </g>
  <g class="defect" id="02">
    <path d="M 116 90 Q 65 166 67 183" fill="none" stroke="red" stroke-width="3" />
  </g>
</svg>