<svg xmlns="http://www.w3.org/2000/svg" width="512" height="512" viewBox="0 0 512 512">
  <g class="glyph">
    <path d="M 318 491 H 423 Q 453 491 457 473 Q 462 455 464 375 H 475 Q 455 418 480 450 Q 485 482 491 498 Q 471 512 421 512 H 313 Q 231 499 245 434 V 135 Q 245 80 238 57 L 247 50 L 265 101 L 416 85 L 427 66 L 455 87 L 439 105 L 430 231 L 448 254 L 265 267 V 430 Q 248 471 318 491 Z M 194 197 210 222 Q 181 224 139 233 L 137 309 Q 178 302 199 295 L 217 318 Q 190 318 137 329 L 135 455 L 219 400 L 222 409 Q 135 480 112 505 L 94 478 Q 114 469 114 441 L 117 334 Q 69 343 43 350 L 21 325 Q 37 327 117 311 L 119 235 Q 82 242 71 247 L 50 222 Q 69 222 126 213 Q 183 203 194 197 Z M 265 123 V 247 L 329 242 L 331 117 Z M 418 105 352 112 V 240 L 409 233 Z M 0 251 Q 53 176 89 94 Q 123 14 110 2 L 117 0 L 144 39 Q 139 37 133 48 Q 126 62 103 112 Q 174 103 197 96 L 215 119 Q 181 121 91 137 Q 55 203 9 256 Z" fill="black" />
  </g>
  <g class="defect" id="01">
    <path d="M 313 512 Q 231 499 245 434" fill="none" stroke="red" stroke-width="3" />
  </g>
  <g class="defect" id="02">
    <path d="M 265 430 Q 248 471 318 491" fill="none" stroke="red" stroke-width="3" />
  </g>
  <g class="defect" id="03">
    <path d="M 475 375 Q 455 418 480 450" fill="none" stroke="red" stroke-width="3" />
  </g>
</svg>