<svg xmlns="http://www.w3.org/2000/svg" width="512" height="512" viewBox="0 0 512 512">
  <g class="glyph">
    <path d="M 138 235 Q 173 181 194 131 Q 216 80 227 49 Q 238 17 227 4 L 233 0 L 264 35 Q 255 37 241 70 Q 227 104 214 132 Q 408 112 413 108 L 434 130 Q 408 130 248 149 V 229 Q 339 218 374 210 L 398 231 Q 378 233 332 239 Q 285 244 266 248 L 248 238 V 324 Q 270 322 326 314 Q 382 307 398 302 L 423 322 Q 398 324 336 333 Q 274 341 264 343 L 248 333 V 452 Q 251 510 242 503 L 218 469 Q 231 456 229 423 V 151 L 205 153 Q 177 203 147 242 Z M 32 89 30 445 Q 32 512 24 506 L 0 473 Q 13 458 11 428 L 13 93 Q 13 60 4 32 L 13 28 L 30 69 L 112 56 L 127 32 L 153 56 L 138 73 L 89 175 Q 130 220 135 252 Q 140 283 132 313 Q 123 343 106 367 Q 81 313 43 292 L 48 285 L 104 322 Q 99 296 114 259 Q 110 223 76 177 L 112 76 Z" fill="black" />
  </g>
  <g class="defect" id="01">
    <path d="M 104 322 Q 99 296 114 259" fill="none" stroke="red" stroke-width="3" />
  </g>
  <g class="defect" id="02">
    <path d="M 106 367 Q 81 313 43 292" fill="none" stroke="red" stroke-width="3" />
  </g>
</svg>