<svg xmlns="http://www.w3.org/2000/svg" width="512" height="512" viewBox="0 0 512 512">
  <g class="glyph">
    <path d="M 161 32 Q 154 34 144 60 Q 193 94 240 124 Q 240 154 238 163 Q 184 107 139 71 Q 120 116 86 176 L 96 195 L 184 186 L 197 169 L 221 189 L 206 204 L 197 311 L 214 328 L 96 341 V 441 L 178 394 L 150 356 L 156 349 Q 201 392 223 413 L 212 450 Q 199 424 184 403 Q 103 463 88 480 L 66 461 Q 79 448 77 435 V 191 Q 56 225 6 274 L 0 266 Q 39 225 67 175 Q 96 124 116 75 Q 135 26 133 4 L 137 0 Z M 302 6 311 4 334 39 Q 328 45 322 61 Q 317 77 289 141 Q 411 126 437 120 L 465 139 Q 400 148 321 159 V 231 Q 415 229 407 214 L 435 236 Q 396 240 321 251 V 328 Q 418 317 422 313 L 452 334 Q 416 336 321 347 V 478 Q 323 512 315 506 L 291 473 Q 302 463 300 416 V 161 L 283 163 Q 255 219 219 266 L 212 259 Q 240 214 256 178 Q 272 141 284 108 Q 296 75 300 50 Q 304 26 302 6 Z M 96 257 Q 159 251 163 249 L 182 261 L 186 206 L 96 214 Z M 96 321 178 313 182 268 96 276 Z M 156 178 Q 148 152 131 116 L 137 111 L 174 148 Z" fill="black" />
  </g>
  <g class="defect" id="01">
    <path d="M 321 231 Q 415 229 407 214" fill="none" stroke="red" stroke-width="3" />
  </g>
  <g class="defect" id="02">
    <path d="M 465 139 Q 400 148 321 159" fill="none" stroke="red" stroke-width="3" />
  </g>
</svg>