<svg xmlns="http://www.w3.org/2000/svg" width="512" height="512" viewBox="0 0 512 512">
  <g class="glyph">
    <path d="M 324 227 Q 309 232 294 252 L 444 234 L 455 212 L 479 234 L 468 249 Q 463 324 454 399 Q 444 474 424 512 Q 386 472 351 437 L 358 430 L 415 472 Q 437 413 446 254 L 349 265 L 371 282 Q 377 287 351 302 Q 382 322 415 338 Q 415 351 410 371 Q 391 349 346 311 Q 324 353 278 382 V 404 Q 384 391 397 386 L 415 408 Q 402 408 278 422 L 267 437 L 247 413 L 258 404 V 294 Q 236 322 214 340 L 207 333 Q 234 305 266 262 Q 298 218 300 199 H 307 Z M 265 179 Q 274 166 271 141 V 64 Q 274 35 263 4 L 269 0 L 291 33 L 410 22 L 422 2 L 446 26 L 433 40 L 422 157 L 437 177 L 291 192 Q 291 210 285 207 Z M 68 450 Q 77 439 75 415 V 307 Q 77 274 66 249 L 75 245 L 90 276 L 183 263 L 194 245 L 221 263 L 207 282 Q 203 430 200 454 Q 196 477 190 471 Q 183 466 181 435 L 95 446 Q 97 492 88 488 Z M 130 199 V 154 Q 84 232 4 296 L 0 287 Q 64 230 119 130 Q 57 137 44 139 L 18 119 Q 60 117 130 108 V 55 Q 95 68 42 79 L 40 71 Q 110 49 142 32 Q 174 15 185 2 L 194 0 L 216 26 Q 196 35 150 49 V 106 Q 214 97 232 93 L 254 115 Q 218 117 150 126 V 137 Q 201 168 227 183 Q 227 205 225 221 Q 196 190 150 152 V 214 Q 152 258 143 260 L 124 232 Q 132 221 130 199 Z M 373 90 397 113 Q 369 115 291 124 V 170 L 402 159 L 413 42 L 291 53 V 104 Q 355 95 373 90 Z M 166 415 181 422 Q 185 399 188 285 L 95 296 V 344 Q 148 340 163 335 L 183 358 Q 141 362 95 366 V 424 Q 162 417 166 415 Z M 278 369 Q 320 333 338 267 Q 309 282 309 274 L 289 258 L 263 289 L 285 307 Q 276 316 278 333 Z" fill="black" />
  </g>
  <g class="defect" id="01">
    <path d="M 371 282 Q 377 287 351 302" fill="none" stroke="red" stroke-width="3" />
  </g>
  <g class="defect" id="02">
    <path d="M 95 424 Q 162 417 166 415" fill="none" stroke="red" stroke-width="3" />
  </g>
  <g class="defect" id="03">
    <path d="M 338 267 Q 309 282 309 274" fill="none" stroke="red" stroke-width="3" />
  </g>
</svg>