<svg xmlns="http://www.w3.org/2000/svg" width="512" height="512" viewBox="0 0 512 512">
  <g class="glyph">
    <path d="M 60 52 Q 173 39 184 35 L 203 56 Q 162 60 132 65 V 114 Q 160 108 175 104 L 190 125 Q 158 130 132 134 V 177 Q 160 173 173 171 L 190 190 Q 171 190 132 197 V 248 L 181 242 L 192 225 L 216 246 L 201 261 Q 192 348 179 405 Q 166 462 145 493 Q 121 458 89 419 L 95 413 L 143 454 Q 158 426 169 361 Q 179 296 179 261 L 63 274 Q 65 302 56 300 L 37 266 Q 45 257 43 244 V 86 Q 43 58 37 19 L 43 17 Z M 315 255 Q 307 261 298 279 L 372 272 L 387 253 L 410 277 L 395 292 Q 369 350 341 389 Q 398 443 420 459 Q 443 475 480 475 V 486 L 410 495 Q 410 488 392 468 Q 374 447 331 404 Q 272 475 184 512 L 181 503 Q 266 460 318 389 L 268 337 Q 233 389 201 419 L 194 415 Q 233 367 262 309 Q 292 251 287 231 L 294 229 Z M 261 181 251 197 229 175 240 164 V 114 Q 240 82 233 69 L 238 65 L 266 91 Q 259 97 259 119 V 160 L 410 149 Q 432 78 421 65 L 426 60 L 452 86 Q 445 93 439 121 Q 432 149 425 175 Q 417 201 412 197 Q 406 192 406 171 L 292 179 L 307 210 Q 296 212 275 237 Q 274 261 205 305 L 199 296 Q 240 257 259 230 Q 279 203 283 179 Z M 63 255 112 251 V 199 Q 95 201 82 203 L 65 184 Q 95 184 112 179 V 136 Q 93 138 80 143 L 65 121 Q 82 121 112 117 V 67 L 63 73 Z M 400 32 Q 389 39 352 84 Q 374 102 391 114 Q 389 130 385 147 Q 356 119 339 99 Q 311 125 272 149 L 268 140 Q 305 114 324 86 L 270 35 L 277 28 L 337 73 Q 359 43 365 30 Q 372 17 374 0 H 382 Z M 274 326 326 376 Q 354 333 369 294 L 289 300 Z M 452 281 Q 408 235 350 194 L 354 186 Q 406 214 454 244 Q 454 264 452 281 Z M 9 423 0 389 Q 22 367 30 309 H 39 Q 39 385 9 423 Z M 63 406 Q 56 339 52 313 L 58 311 Q 73 350 82 378 Q 76 391 63 406 Z M 110 387 Q 97 343 84 305 L 91 302 Q 110 328 125 359 Q 121 372 110 387 Z M 147 374 Q 138 333 123 296 L 130 292 L 164 343 Q 158 361 147 374 Z" fill="black" />
  </g>
  <g class="defect" id="01">
    <path d="M 275 237 Q 274 261 205 305" fill="none" stroke="red" stroke-width="3" />
  </g>
</svg>