<svg xmlns="http://www.w3.org/2000/svg" width="512" height="512" viewBox="0 0 512 512">
  <g class="glyph">
    <path d="M 232 250 212 223 Q 221 212 219 201 V 106 Q 219 86 214 68 L 221 65 L 237 83 L 295 79 L 304 36 Q 253 41 203 47 L 176 25 Q 214 25 323 17 Q 431 9 451 5 L 474 27 Q 438 25 314 36 L 329 50 Q 325 50 307 79 L 404 70 L 417 54 L 440 72 L 426 88 Q 422 180 417 214 Q 413 248 408 254 Q 404 259 395 226 L 282 235 L 295 264 Q 291 262 259 280 Q 228 298 187 320 L 183 311 Q 210 295 244 271 Q 273 246 277 235 L 239 237 Q 239 255 232 250 Z M 239 131 Q 332 122 374 117 L 392 138 Q 374 135 239 149 V 176 Q 332 169 377 162 L 395 180 Q 334 183 239 194 V 219 Q 359 212 379 205 L 395 223 Q 404 178 406 88 L 239 101 Z M 61 347 65 343 101 374 Q 88 383 90 411 V 471 L 149 460 V 359 Q 151 309 135 291 L 140 286 L 178 316 Q 167 327 169 347 V 363 Q 223 356 228 354 L 248 377 Q 212 377 169 386 V 456 L 250 440 L 253 451 Q 29 505 27 512 L 0 483 Q 18 483 70 474 V 397 Q 72 363 61 347 Z M 273 291 304 320 Q 293 327 295 354 L 293 401 Q 363 363 385 346 Q 406 329 406 316 H 415 L 420 356 Q 417 354 377 374 Q 336 395 293 415 V 444 Q 293 474 316 476 Q 338 478 370 478 Q 404 478 418 476 Q 433 474 436 462 Q 440 451 442 406 H 451 Q 451 467 467 485 Q 460 489 441 494 Q 422 498 388 498 Q 356 498 314 496 Q 271 494 273 451 L 275 350 Q 277 309 266 295 Z M 189 210 Q 187 205 140 241 Q 92 277 14 318 L 11 307 Q 65 277 121 235 Q 176 192 176 171 L 180 169 Z M 167 38 Q 160 36 143 52 Q 126 68 105 86 Q 83 104 29 138 L 25 129 Q 59 104 87 79 Q 115 54 132 33 Q 149 11 144 2 L 151 0 Z M 174 131 Q 169 126 145 145 Q 122 165 98 180 Q 74 196 36 217 L 34 208 Q 86 171 124 138 Q 162 104 156 92 L 160 90 Z M 449 320 Q 399 280 336 237 L 343 232 Q 401 259 453 286 Q 453 309 449 320 Z" fill="black" />
  </g>
  <g class="defect" id="01">
    <path d="M 248 377 Q 212 377 169 386" fill="none" stroke="red" stroke-width="3" />
  </g>
</svg>