<svg xmlns="http://www.w3.org/2000/svg" width="512" height="512" viewBox="0 0 512 512">
  <g class="glyph">
    <path d="M 7 512 0 508 Q 49 446 73 386 Q 97 327 108 263 L 62 267 Q 64 296 55 289 L 33 256 Q 44 238 42 210 V 137 Q 44 108 33 75 L 42 73 L 62 104 L 95 102 Q 104 75 109 49 Q 115 22 110 2 L 117 0 L 143 33 Q 135 42 127 57 Q 119 73 108 99 L 203 88 L 216 73 L 238 93 L 225 108 L 218 230 L 234 252 L 130 260 Q 117 327 88 392 Q 60 457 7 512 Z M 168 287 Q 159 298 159 327 L 157 386 Q 168 377 180 342 Q 192 307 188 278 L 194 276 L 218 305 Q 210 313 202 333 Q 194 353 179 382 L 227 373 Q 227 364 216 338 L 223 333 L 230 342 Q 252 311 269 264 Q 287 216 294 170 Q 260 174 252 179 L 230 159 Q 252 157 296 152 Q 302 124 307 73 Q 311 22 298 9 L 305 4 L 340 35 Q 331 42 329 60 Q 327 77 318 150 Q 422 139 437 132 L 466 154 Q 419 157 316 170 L 302 223 L 382 212 L 395 194 L 424 218 L 410 227 Q 397 274 371 320 Q 406 351 435 375 Q 433 397 424 408 Q 395 375 360 333 Q 318 393 243 444 L 238 437 Q 307 382 344 318 L 298 267 L 305 260 L 355 305 Q 373 274 386 232 Q 331 241 322 245 L 300 232 Q 278 302 236 349 Q 245 362 260 380 Q 236 395 243 410 Q 238 391 234 382 Q 225 386 206 393 Q 188 399 168 413 L 157 395 V 439 Q 157 457 173 470 Q 190 483 230 483 L 340 481 Q 384 481 409 478 Q 435 474 446 468 Q 450 446 450 377 H 459 Q 459 406 465 438 Q 470 470 481 479 Q 461 490 429 494 Q 397 499 344 499 L 221 501 Q 183 501 162 489 Q 141 477 137 446 L 139 331 Q 143 278 135 269 L 141 265 Z M 201 174 205 108 143 115 Q 143 141 141 168 Q 166 166 177 161 Z M 132 241 196 236 201 183 Q 152 188 139 190 Q 137 212 132 241 Z M 124 119 62 126 V 177 Q 77 177 121 170 Q 124 148 124 119 Z M 62 188 V 247 L 113 243 Q 128 231 119 192 L 84 196 Z M 360 53 364 46 Q 397 62 428 77 Q 428 95 422 110 Q 386 70 360 53 Z" fill="black" />
  </g>
  <g class="defect" id="01">
    <path d="M 422 110 Q 386 70 360 53" fill="none" stroke="red" stroke-width="3" />
  </g>
  <g class="defect" id="02">
    <path d="M 260 380 Q 236 395 243 410" fill="none" stroke="red" stroke-width="3" />
  </g>
  <g class="defect" id="03">
    <path d="M 113 243 Q 128 231 119 192" fill="none" stroke="red" stroke-width="3" />
  </g>
</svg>