<svg xmlns="http://www.w3.org/2000/svg" width="512" height="512" viewBox="0 0 512 512">
  <g class="glyph">
    <path d="M 137 39 Q 129 46 100 105 L 153 100 L 168 81 L 194 107 L 179 118 L 139 174 L 183 170 L 194 153 L 218 172 L 203 192 L 198 305 L 214 322 L 78 340 Q 81 370 72 370 L 52 336 Q 61 318 61 285 V 209 Q 61 192 57 174 Q 41 196 4 231 L 0 222 Q 52 159 82 95 Q 111 31 111 2 L 118 0 Z M 342 327 Q 414 318 425 314 L 447 336 L 342 349 V 434 Q 409 465 416 485 Q 434 490 486 492 V 503 L 399 512 Q 375 488 259 388 Q 237 455 187 508 L 181 501 Q 211 460 228 418 Q 244 377 249 344 Q 255 312 253 285 L 259 281 L 281 318 Q 277 322 273 333 Q 270 344 264 370 Q 292 397 322 416 V 288 Q 325 259 318 244 Q 259 251 242 255 L 220 233 Q 257 231 320 220 V 148 Q 290 153 248 159 L 227 139 Q 246 139 320 126 V 98 Q 322 48 307 15 L 316 11 L 346 44 Q 338 59 340 98 V 124 Q 399 115 412 111 L 434 129 Q 407 133 340 146 V 218 Q 425 205 447 200 L 471 220 Q 447 222 329 242 L 351 261 Q 342 272 342 296 Z M 68 159 76 181 122 176 150 120 89 124 Z M 137 244 Q 155 242 168 240 L 181 246 L 183 192 L 137 196 Z M 137 312 179 307 181 259 137 264 Z M 35 508 13 481 Q 35 451 44 390 H 52 Q 52 466 35 508 Z M 118 314 V 266 L 96 270 L 81 257 V 318 Z M 81 251 118 246 V 198 L 81 203 Z M 120 440 Q 115 453 100 468 Q 92 425 81 388 L 87 383 Q 107 414 120 440 Z M 153 449 Q 137 399 126 370 L 133 366 Q 174 399 170 418 Q 161 438 153 449 Z M 209 427 Q 192 386 176 353 L 183 349 Q 207 377 224 399 Q 218 416 209 427 Z" fill="black" />
  </g>
  <g class="defect" id="01">
    <path d="M 133 366 Q 174 399 170 418" fill="none" stroke="red" stroke-width="3" />
  </g>
  <g class="defect" id="02">
    <path d="M 342 434 Q 409 465 416 485" fill="none" stroke="red" stroke-width="3" />
  </g>
</svg>