<svg xmlns="http://www.w3.org/2000/svg" width="512" height="512" viewBox="0 0 512 512">
  <g class="glyph">
    <path d="M 192 257 Q 184 410 179 441 Q 175 471 162 493 Q 145 464 114 428 L 117 419 L 158 452 Q 166 415 169 350 L 110 354 V 449 Q 110 469 106 469 L 84 434 Q 93 428 93 415 V 356 Q 78 359 58 365 L 41 348 L 43 462 Q 45 493 37 490 L 17 458 Q 24 454 24 430 Q 24 404 23 373 Q 22 341 22 322 Q 22 300 21 280 Q 19 259 17 223 L 24 220 L 37 253 L 171 238 L 184 218 L 205 240 Z M 313 268 Q 305 270 296 289 L 361 283 L 372 266 L 395 285 L 382 302 Q 361 354 333 393 Q 387 449 407 462 Q 428 475 471 473 V 484 L 400 497 Q 402 488 322 408 Q 266 473 173 512 L 169 503 Q 261 458 309 391 L 268 343 Q 238 385 207 410 L 201 404 Q 238 365 265 313 Q 292 261 285 244 L 292 242 Z M 337 89 Q 356 106 376 121 L 372 156 Q 350 130 324 104 Q 289 140 255 171 L 393 156 Q 408 80 398 58 L 404 54 L 428 82 Q 421 95 416 133 Q 410 171 406 186 Q 402 201 398 196 Q 393 190 391 175 L 283 186 L 300 218 Q 296 214 277 234 Q 257 255 199 305 L 192 296 Q 235 257 258 227 Q 281 197 281 186 L 251 190 L 240 203 L 220 179 L 231 173 V 130 Q 233 86 223 67 L 227 65 L 257 93 Q 248 99 251 127 V 160 Q 274 136 311 91 L 259 39 L 264 32 L 322 78 Q 359 30 356 2 L 363 0 L 382 39 Q 378 37 337 89 Z M 162 127 156 175 171 192 69 207 Q 58 225 63 229 L 45 199 Q 52 192 51 176 Q 50 160 51 147 Q 52 134 50 121 Q 48 108 45 102 L 52 97 L 67 119 L 143 108 L 153 93 L 175 114 Z M 41 343 Q 67 341 102 339 Q 127 283 127 261 L 39 272 Z M 22 82 0 60 Q 67 58 122 52 Q 177 45 188 43 L 212 63 Q 145 67 100 72 Q 56 78 22 82 Z M 270 339 287 335 Q 287 339 294 348 Q 300 356 320 380 Q 343 346 359 302 L 289 309 Z M 69 186 136 177 143 130 69 138 Z M 117 337 Q 151 333 156 331 L 169 346 Q 173 298 173 257 L 132 261 L 151 281 Q 138 289 117 337 Z M 436 251 Q 436 270 434 289 Q 398 246 333 201 L 337 190 Q 400 227 436 251 Z M 95 309 Q 89 326 80 339 Q 71 309 56 277 L 60 272 Q 78 292 95 309 Z" fill="black" />
  </g>
  <g class="defect" id="01">
    <path d="M 69 207 Q 58 225 63 229" fill="none" stroke="red" stroke-width="3" />
  </g>
</svg>