<svg xmlns="http://www.w3.org/2000/svg" width="512" height="512" viewBox="0 0 512 512">
  <g class="glyph">
    <path d="M 136 37 Q 127 44 96 101 L 149 94 L 162 77 L 193 101 L 173 114 L 136 171 L 179 166 L 190 149 L 214 166 L 201 186 L 195 295 L 210 313 L 77 328 Q 79 359 70 359 L 50 324 Q 59 309 57 276 V 203 Q 57 186 53 171 Q 37 190 4 219 L 0 210 Q 50 151 80 91 Q 109 31 107 2 L 114 0 Z M 333 276 Q 326 280 313 300 L 383 293 L 398 274 L 422 300 L 407 313 Q 399 381 354 398 Q 403 449 422 463 Q 442 477 488 484 V 492 L 416 497 Q 385 457 344 414 Q 282 479 186 512 L 182 503 Q 281 468 330 398 Q 306 370 282 350 Q 249 394 206 429 L 199 422 Q 238 383 269 334 Q 300 284 309 245 H 317 Z M 414 184 306 190 322 214 Q 311 221 289 247 Q 267 274 219 317 L 212 309 Q 278 243 295 193 L 267 195 L 258 208 L 236 188 L 249 175 V 123 Q 249 94 241 72 L 245 68 L 276 94 Q 269 101 269 127 V 175 L 414 162 Q 418 138 420 114 Q 422 90 418 63 L 422 59 L 449 85 Q 444 92 440 119 Q 435 147 432 174 Q 429 201 423 205 Q 418 208 414 184 Z M 357 94 Q 385 114 398 127 Q 398 142 394 158 Q 363 125 346 109 Q 322 142 284 166 L 280 160 Q 309 133 333 98 Q 300 72 271 46 L 276 39 Q 324 72 341 83 Q 365 44 365 15 L 372 13 L 392 44 Q 385 48 357 94 Z M 289 339 306 341 Q 313 359 341 385 Q 365 354 383 313 L 304 319 Z M 63 155 72 179 118 175 147 114 85 123 Z M 455 302 Q 407 252 363 210 L 368 203 Q 424 241 462 265 Q 464 284 455 302 Z M 133 236 Q 153 234 164 230 L 177 241 L 179 188 L 133 193 Z M 26 492 7 468 Q 26 435 35 376 H 44 Q 44 455 26 492 Z M 133 302 173 298 177 252 133 256 Z M 114 304 V 258 Q 96 260 90 263 L 77 254 V 309 Z M 77 243 114 238 V 195 L 77 199 Z M 112 429 Q 107 442 94 457 Q 85 418 74 381 L 81 376 Q 98 403 112 429 Z M 149 435 Q 136 387 125 363 L 131 359 Q 153 385 166 407 Q 158 424 149 435 Z M 206 409 Q 190 368 177 341 L 184 337 Q 203 359 219 376 Q 212 394 206 409 Z" fill="black" />
  </g>
  <g class="defect" id="01">
    <path d="M 407 313 Q 399 381 354 398" fill="none" stroke="red" stroke-width="3" />
  </g>
  <g class="defect" id="02">
    <path d="M 182 503 Q 281 468 330 398" fill="none" stroke="red" stroke-width="3" />
  </g>
</svg>