<svg xmlns="http://www.w3.org/2000/svg" width="512" height="512" viewBox="0 0 512 512">
  <g class="glyph">
    <path d="M 183 174 196 157 222 179 205 196 196 312 211 331 70 346 Q 72 381 61 368 L 46 342 Q 52 331 52 307 V 227 Q 52 196 48 185 Q 28 214 7 235 L 0 229 Q 50 157 82 86 Q 113 15 100 4 L 107 0 L 135 39 Q 129 37 121 50 Q 113 63 96 98 L 155 89 L 166 70 L 192 94 Q 176 105 131 179 Z M 336 383 Q 283 460 200 512 L 194 505 Q 268 451 322 366 Q 283 301 272 288 Q 229 405 153 486 L 144 481 Q 246 362 277 176 Q 261 176 244 181 L 222 159 Q 237 159 281 155 Q 288 126 295 71 Q 303 15 288 4 L 294 0 L 329 28 Q 322 31 319 48 Q 316 65 301 153 Q 403 142 431 137 L 458 157 Q 434 157 298 172 Q 294 203 283 242 Q 320 237 373 229 L 386 211 L 412 235 L 397 248 Q 375 316 346 366 Q 394 440 410 455 Q 425 471 438 474 Q 451 477 479 477 V 488 Q 423 495 403 497 Q 399 466 336 383 Z M 301 261 285 244 Q 281 264 272 283 L 292 285 Q 292 296 333 349 Q 362 296 375 248 Q 307 259 301 261 Z M 109 120 96 102 Q 90 153 54 170 L 65 185 L 120 181 L 153 109 Q 126 113 109 120 Z M 203 386 Q 163 403 109 425 Q 54 447 33 462 L 7 440 Q 39 434 98 412 Q 174 390 200 377 Z M 168 248 181 259 185 194 137 198 135 251 Q 153 251 168 248 Z M 118 200 72 203 V 255 Q 96 255 115 253 Z M 72 325 113 320 115 270 Q 102 272 87 275 L 72 261 Z M 133 318 176 314 181 266 Q 161 268 135 268 Z M 342 48 346 41 Q 383 65 412 85 Q 407 102 399 118 Q 391 61 342 48 Z" fill="black" />
  </g>
  <g class="defect" id="01">
    <path d="M 399 118 Q 391 61 342 48" fill="none" stroke="red" stroke-width="3" />
  </g>
  <g class="defect" id="02">
    <path d="M 96 102 Q 90 153 54 170" fill="none" stroke="red" stroke-width="3" />
  </g>
  <g class="defect" id="03">
    <path d="M 98 412 Q 174 390 200 377" fill="none" stroke="red" stroke-width="3" />
  </g>
</svg>