<svg xmlns="http://www.w3.org/2000/svg" width="512" height="512" viewBox="0 0 512 512">
  <g class="glyph">
    <path d="M 76 165 91 184 145 182 Q 171 152 167 130 L 174 128 L 193 158 Q 182 163 165 180 L 286 169 L 299 150 L 323 169 L 308 184 L 302 260 L 319 278 L 91 293 V 323 Q 291 308 345 302 L 371 319 Q 217 330 91 341 V 367 L 371 347 L 386 332 L 408 351 L 393 367 Q 351 475 330 512 Q 304 482 269 451 L 273 445 L 325 475 Q 345 440 371 367 L 91 386 Q 91 406 85 401 L 63 373 Q 72 360 72 345 V 208 Q 58 196 69 167 Z M 91 232 Q 236 221 245 217 L 267 234 Q 204 241 91 249 V 273 L 282 260 L 289 189 L 91 206 Z M 295 74 Q 362 37 358 22 H 364 L 371 59 Q 367 56 348 62 Q 330 67 291 85 L 286 100 L 384 132 Q 386 152 382 163 Q 341 135 284 106 Q 265 139 208 169 L 204 163 Q 232 145 252 123 Q 271 100 280 57 Q 289 15 278 2 L 282 0 L 312 20 Q 306 24 303 40 Q 299 56 295 74 Z M 106 72 Q 163 39 161 26 H 167 L 176 56 Q 167 56 150 64 Q 132 72 106 82 L 104 91 Q 132 104 161 124 L 152 152 Q 121 115 102 98 Q 89 124 64 146 Q 39 169 7 187 L 0 180 Q 50 150 69 118 Q 89 87 93 50 Q 98 13 85 4 L 89 0 L 119 20 Q 115 22 113 40 Q 111 59 106 72 Z M 9 492 0 458 Q 35 443 48 395 H 56 Q 50 456 9 492 Z M 145 456 Q 135 466 121 477 Q 113 434 104 397 L 108 395 Q 128 421 145 456 Z M 206 464 Q 195 423 182 391 L 189 386 Q 210 414 228 434 Q 221 449 206 464 Z M 291 453 Q 276 421 258 388 L 265 384 Q 289 406 308 425 Q 302 443 291 453 Z M 239 98 Q 221 65 204 35 L 210 33 Q 232 52 254 74 Q 245 87 239 98 Z M 52 98 Q 35 65 15 39 L 22 35 Q 43 52 65 72 Q 61 85 52 98 Z" fill="black" />
  </g>
  <g class="defect" id="01">
    <path d="M 72 208 Q 58 196 69 167" fill="none" stroke="red" stroke-width="3" />
  </g>
</svg>