<svg xmlns="http://www.w3.org/2000/svg" width="512" height="512" viewBox="0 0 512 512">
  <g class="glyph">
    <path d="M 331 172 Q 379 213 396 219 Q 431 214 454 230 V 241 L 379 247 Q 364 230 353 221 Q 342 211 321 189 Q 275 234 222 252 L 217 245 Q 271 217 303 174 Q 284 153 262 133 Q 247 157 228 176 L 222 170 Q 230 155 237 146 Q 217 148 136 157 Q 125 172 120 179 L 176 172 L 189 157 L 213 176 L 196 189 Q 174 245 157 258 Q 138 234 118 219 L 123 213 L 155 228 Q 161 217 174 189 L 112 196 Q 75 245 6 284 L 0 273 Q 75 226 108 159 Q 56 166 26 170 L 2 153 Q 13 155 131 140 V 116 Q 84 120 77 125 L 56 108 Q 88 105 131 99 V 73 Q 58 80 49 84 L 28 67 Q 73 62 131 56 V 39 Q 131 24 120 9 L 123 2 L 155 22 Q 148 39 151 54 Q 194 47 211 45 L 230 62 Q 211 62 151 71 V 97 Q 187 93 200 86 L 222 105 Q 204 105 151 114 V 138 Q 215 129 230 125 L 245 131 Q 265 97 278 59 Q 290 22 286 2 L 293 0 L 323 30 Q 316 37 308 49 Q 299 62 288 90 Q 383 75 404 71 L 428 90 Q 404 93 370 97 Q 353 146 331 172 Z M 222 237 Q 211 241 194 260 L 295 252 L 308 234 L 333 254 L 318 271 L 310 312 L 327 329 L 131 349 V 364 Q 305 349 346 340 L 372 355 Q 299 361 131 381 V 396 L 361 372 L 376 357 L 400 381 L 383 394 Q 361 486 349 497 Q 336 508 331 512 Q 303 484 262 460 L 267 452 L 331 480 Q 328 451 361 392 L 131 411 Q 136 439 125 437 L 105 400 Q 112 385 112 372 V 295 Q 112 262 103 245 L 110 241 L 129 267 L 176 262 Q 205 222 196 217 L 202 215 Z M 131 299 Q 232 290 265 282 L 286 299 Q 237 303 131 314 V 333 L 290 314 L 297 267 L 131 284 Z M 344 99 280 108 269 120 Q 290 140 316 159 Q 331 138 344 99 Z M 58 488 47 460 Q 73 443 80 409 H 88 Q 88 463 58 488 Z M 310 460 Q 295 439 271 411 L 275 404 Q 301 419 318 430 Q 316 452 310 460 Z M 228 467 Q 217 439 200 415 L 209 411 L 243 441 Q 237 458 228 467 Z M 176 458 Q 166 473 157 480 Q 153 460 140 426 L 144 419 Q 163 443 176 458 Z" fill="black" />
  </g>
  <g class="defect" id="01">
    <path d="M 176 262 Q 205 222 196 217" fill="none" stroke="red" stroke-width="3" />
  </g>
  <g class="defect" id="02">
    <path d="M 331 480 Q 328 451 361 392" fill="none" stroke="red" stroke-width="3" />
  </g>
  <g class="defect" id="03">
    <path d="M 396 219 Q 431 214 454 230" fill="none" stroke="red" stroke-width="3" />
  </g>
</svg>