<svg xmlns="http://www.w3.org/2000/svg" width="512" height="512" viewBox="0 0 512 512">
  <g class="glyph">
    <path d="M 105 437 110 430 157 458 Q 163 456 163 445 V 364 L 65 374 Q 82 396 99 415 Q 95 426 82 441 Q 69 409 54 374 Q 28 376 22 381 L 0 361 Q 15 361 163 344 Q 161 310 159 299 L 58 308 Q 44 340 49 331 L 30 301 Q 37 295 39 275 V 191 Q 39 170 32 151 L 39 146 L 54 161 L 90 159 V 118 Q 43 123 24 127 L 4 105 Q 32 105 136 97 Q 153 60 159 43 Q 166 26 161 15 L 170 11 L 191 45 Q 181 47 173 57 Q 151 54 151 95 Q 213 88 232 82 L 247 103 Q 222 105 151 114 V 148 L 196 144 L 209 129 L 232 148 L 217 163 L 213 280 L 228 295 L 170 299 L 191 312 Q 183 323 183 331 V 342 Q 207 338 219 333 L 239 355 Q 215 357 183 361 V 426 Q 183 478 166 503 Q 155 482 105 437 Z M 357 30 Q 346 37 329 84 L 394 77 L 409 56 L 435 80 L 419 95 L 411 172 L 428 194 L 286 209 V 239 Q 411 226 443 217 L 469 239 Q 437 241 286 258 V 293 L 439 275 L 452 260 L 475 282 L 463 295 Q 445 407 429 451 Q 413 495 402 512 Q 385 486 342 435 L 349 428 L 398 469 Q 426 398 441 295 L 286 312 Q 286 329 278 331 L 256 303 Q 262 295 265 282 V 103 Q 265 88 260 54 L 269 49 L 286 88 L 314 86 Q 331 43 323 2 L 331 0 Z M 58 288 191 275 194 217 Q 155 222 142 212 Q 129 202 131 172 L 110 174 Q 108 196 97 214 Q 86 232 58 252 Z M 286 138 Q 346 131 364 125 L 387 144 L 286 157 V 187 L 392 176 L 400 97 L 286 108 Z M 151 187 Q 155 198 166 200 Q 176 200 185 196 L 194 207 L 196 163 L 151 168 Z M 247 435 230 411 Q 245 396 256 344 H 265 Q 267 398 247 435 Z M 176 258 Q 159 258 134 261 Q 110 265 99 269 L 80 252 Q 101 250 127 245 Q 153 241 163 237 Z M 82 93 Q 65 56 45 32 L 52 22 Q 75 43 99 58 Q 90 80 82 93 Z M 58 241 Q 72 217 88 176 L 58 179 Z M 303 419 Q 299 383 286 346 L 293 342 Q 314 374 327 392 Q 314 411 303 419 Z M 353 409 Q 344 374 329 336 L 336 331 L 372 385 Q 366 394 353 409 Z M 404 396 Q 396 368 376 327 L 385 323 L 419 374 Q 413 385 404 396 Z M 110 157 131 155 V 114 L 110 116 Z" fill="black" />
  </g>
  <g class="defect" id="01">
    <path d="M 58 241 Q 72 217 88 176" fill="none" stroke="red" stroke-width="3" />
  </g>
  <g class="defect" id="02">
    <path d="M 173 57 Q 151 54 151 95" fill="none" stroke="red" stroke-width="3" />
  </g>
  <g class="defect" id="03">
    <path d="M 58 308 Q 44 340 49 331" fill="none" stroke="red" stroke-width="3" />
  </g>
</svg>