<svg xmlns="http://www.w3.org/2000/svg" width="512" height="512" viewBox="0 0 512 512">
  <g class="glyph">
    <path d="M 219 262 Q 262 219 297 157 Q 278 159 265 163 L 252 157 Q 215 161 194 166 V 176 Q 224 189 237 196 Q 225 211 237 226 Q 222 211 194 191 V 260 Q 194 290 185 275 L 168 254 Q 174 241 174 226 V 198 Q 142 247 93 286 L 86 278 Q 136 230 168 168 Q 142 170 136 174 L 110 155 Q 127 155 174 148 V 129 Q 172 108 168 97 L 97 103 Q 97 366 9 484 L 0 480 Q 45 392 59 307 Q 73 222 75 152 Q 77 82 67 45 L 75 39 L 97 82 L 245 69 Q 237 43 215 6 L 222 0 Q 252 28 267 45 Q 262 54 254 67 Q 374 54 387 49 L 419 69 Q 381 71 303 80 L 329 99 Q 323 110 323 123 V 133 Q 376 125 389 120 L 417 142 Q 374 146 323 155 V 170 Q 387 209 407 222 Q 407 237 404 254 Q 366 217 323 183 V 234 Q 325 275 316 269 L 297 245 Q 303 237 303 217 V 187 Q 275 230 226 269 Z M 370 299 398 321 383 333 Q 364 379 340 413 Q 368 445 380 455 Q 392 465 399 470 Q 407 475 460 480 V 488 Q 394 495 376 497 Q 359 469 329 430 Q 299 463 252 497 Q 252 512 245 512 L 226 484 Q 232 475 232 452 V 430 Q 153 456 123 469 L 101 445 Q 129 443 148 435 V 312 Q 127 314 116 316 L 93 297 Q 123 297 260 282 Q 398 267 407 262 L 439 284 Q 413 284 252 301 V 407 L 288 396 L 293 404 L 252 422 V 484 Q 284 458 316 413 Q 280 364 267 361 L 265 355 L 297 353 Q 301 368 327 398 Q 349 364 359 336 Q 305 342 288 346 L 262 329 Q 297 325 359 316 Z M 303 123 Q 303 101 293 82 L 174 95 L 202 112 Q 194 123 194 138 V 146 Q 228 142 239 138 L 252 144 Q 265 142 303 138 Z M 168 336 Q 191 333 202 331 L 222 349 Q 198 351 168 353 V 379 Q 191 374 209 372 L 224 392 L 168 396 V 430 L 232 411 V 303 L 168 310 Z" fill="black" />
  </g>
  <g class="defect" id="01">
    <path d="M 252 157 Q 215 161 194 166" fill="none" stroke="red" stroke-width="3" />
  </g>
  <g class="defect" id="02">
    <path d="M 101 445 Q 129 443 148 435" fill="none" stroke="red" stroke-width="3" />
  </g>
  <g class="defect" id="03">
    <path d="M 237 196 Q 225 211 237 226" fill="none" stroke="red" stroke-width="3" />
  </g>
</svg>