<svg xmlns="http://www.w3.org/2000/svg" width="512" height="512" viewBox="0 0 512 512">
  <g class="glyph">
    <path d="M 125 389 337 379 344 365 326 337 Q 335 326 334 306 Q 333 287 333 267 Q 333 245 326 234 L 330 230 L 361 256 Q 352 260 352 287 Q 352 313 352 339 Q 354 357 348 363 L 376 383 L 361 400 L 352 477 Q 420 475 442 470 L 470 492 Q 374 494 229 501 Q 83 508 33 512 L 4 490 Q 50 490 109 488 Q 107 394 98 381 L 107 374 Z M 212 234 Q 221 234 221 219 V 151 L 236 158 Q 271 105 271 83 Q 208 88 138 93 Q 68 98 39 101 L 13 79 Q 72 79 236 66 Q 225 37 201 4 L 208 0 Q 238 24 258 39 Q 249 53 243 66 Q 322 59 362 56 Q 403 53 424 48 L 451 68 Q 309 79 278 81 L 293 112 Q 271 123 238 160 L 249 166 L 241 177 V 245 Q 243 265 234 265 Z M 179 153 Q 164 225 144 252 Q 125 228 96 199 Q 68 254 4 293 L 0 287 Q 33 260 56 230 Q 79 199 85 160 Q 77 162 50 166 L 28 147 Q 81 144 153 136 L 166 120 L 190 142 Z M 361 138 Q 379 162 393 185 Q 407 208 419 220 Q 431 232 473 234 V 245 Q 424 249 405 254 Q 396 223 380 194 Q 363 164 348 140 L 306 155 V 212 L 363 188 L 368 197 Q 306 232 289 249 L 274 223 L 287 214 V 166 Q 287 147 282 127 L 291 125 L 306 142 Q 374 112 385 92 L 414 116 Q 392 123 361 138 Z M 203 484 258 481 263 403 203 405 Z M 278 481 333 477 341 398 282 403 Z M 129 488 184 486 V 407 L 127 409 Z M 155 346 131 326 Q 168 324 220 321 Q 271 317 298 313 L 324 333 Q 289 335 245 338 Q 201 341 155 346 Z M 39 409 Q 81 376 95 349 Q 109 322 113 289 Q 116 256 105 245 L 109 241 L 138 265 Q 133 269 129 304 Q 125 339 103 368 Q 81 396 44 418 Z M 322 284 Q 258 289 224 291 Q 190 293 168 298 L 147 276 Q 184 276 225 272 Q 267 269 300 265 Z M 98 195 Q 138 206 140 217 Q 169 195 158 153 L 107 160 Z M 171 96 177 94 223 125 210 158 Q 195 127 171 96 Z" fill="black" />
  </g>
  <g class="defect" id="01">
    <path d="M 98 195 Q 138 206 140 217" fill="none" stroke="red" stroke-width="3" />
  </g>
  <g class="defect" id="02">
    <path d="M 140 217 Q 169 195 158 153" fill="none" stroke="red" stroke-width="3" />
  </g>
</svg>