<svg xmlns="http://www.w3.org/2000/svg" width="512" height="512" viewBox="0 0 512 512">
  <g class="glyph">
    <path d="M 410 36 Q 401 52 401 88 V 236 Q 464 177 467 134 L 476 131 L 489 184 Q 483 186 470 195 Q 458 204 401 256 V 446 Q 401 483 418 486 Q 435 489 469 487 Q 471 449 471 381 H 483 Q 487 471 498 505 Q 476 510 453 510 Q 430 510 417 509 Q 403 507 392 496 Q 381 485 381 449 V 408 Q 274 458 247 476 L 224 462 Q 222 487 219 496 Q 215 505 211 500 Q 206 494 204 462 L 70 494 L 61 512 L 32 487 L 48 473 Q 48 292 34 256 L 41 249 L 70 283 Q 66 292 66 331 Q 116 324 139 321 Q 163 317 202 310 L 213 319 Q 215 258 208 236 L 215 231 L 245 265 Q 238 279 234 334 Q 231 390 224 455 L 270 435 V 301 Q 272 236 258 197 L 265 193 L 297 231 Q 290 245 290 281 V 428 L 317 417 V 111 Q 319 66 304 39 L 310 34 L 344 70 Q 335 84 338 111 V 211 Q 362 206 369 202 L 381 211 V 77 Q 383 36 372 5 L 378 0 Z M 172 36 Q 165 48 163 100 Q 199 93 224 86 L 251 106 L 163 118 L 161 168 Q 231 159 249 154 L 281 177 L 172 188 L 190 215 Q 181 227 174 245 Q 188 258 206 274 Q 204 299 197 304 L 168 261 Q 156 285 140 315 L 131 310 Q 161 245 161 190 L 113 195 L 129 224 L 116 247 L 140 270 Q 134 295 125 304 Q 120 281 111 261 Q 95 292 79 319 L 70 313 Q 102 245 100 197 Q 57 202 25 206 L 0 186 Q 52 184 79 179 Q 79 104 68 72 L 75 68 L 106 100 Q 97 116 100 177 L 140 170 L 143 102 Q 143 32 129 7 L 136 2 Z M 184 442 170 392 Q 156 426 136 455 L 129 451 Q 156 392 159 338 L 116 342 L 127 362 Q 120 374 116 387 Q 129 399 138 410 L 125 437 L 111 396 Q 100 419 79 449 L 70 440 Q 102 385 102 344 L 82 349 L 66 342 L 68 471 Q 152 458 184 442 Z M 338 410 381 390 V 227 L 338 231 Z M 186 351 Q 179 360 174 381 L 204 410 Q 202 424 195 440 L 204 449 Q 196 451 213 331 L 172 335 Z" fill="black" />
  </g>
  <g class="defect" id="01">
    <path d="M 204 449 Q 196 451 213 331" fill="none" stroke="red" stroke-width="3" />
  </g>
</svg>