<svg xmlns="http://www.w3.org/2000/svg" width="512" height="512" viewBox="0 0 512 512">
  <g class="glyph">
    <path d="M 150 60 V 88 Q 186 81 199 75 L 223 96 L 150 105 V 156 Q 197 148 216 141 L 225 152 Q 263 92 274 60 Q 285 28 289 4 L 296 2 L 317 39 Q 302 54 283 88 L 413 73 L 426 54 L 452 75 L 437 94 Q 424 186 413 216 Q 403 246 394 261 L 420 257 L 435 240 L 458 263 L 441 276 Q 431 390 413 440 Q 396 491 377 512 Q 347 473 317 443 L 323 437 L 375 473 Q 409 418 420 278 L 319 291 L 341 313 Q 334 321 326 371 L 360 366 Q 366 317 362 298 L 368 296 L 392 323 Q 386 336 381 357 Q 377 377 374 389 Q 371 401 366 403 Q 362 405 358 386 L 321 388 Q 293 454 208 495 L 204 486 Q 270 450 300 390 L 276 392 L 261 405 L 244 383 L 255 375 Q 255 341 253 319 L 214 353 Q 210 428 206 447 Q 201 465 196 455 Q 191 446 189 420 L 62 450 L 47 463 L 28 439 L 41 428 Q 43 263 30 216 L 36 214 L 64 244 Q 56 266 58 296 Q 124 289 182 274 L 199 283 Q 201 225 195 201 L 201 197 L 227 231 Q 223 238 221 265 Q 219 291 216 338 Q 270 274 278 238 L 244 263 L 238 255 Q 272 229 293 193 L 270 197 L 259 206 L 242 191 L 255 180 Q 255 154 253 133 L 231 159 L 236 165 Q 189 169 163 174 L 178 193 Q 163 210 161 227 L 186 240 L 178 263 L 154 236 Q 144 259 126 283 L 118 281 Q 152 210 150 176 L 109 180 L 118 197 L 105 225 L 126 240 Q 124 259 121 260 Q 118 261 99 236 Q 86 259 69 283 L 62 276 Q 90 223 90 182 Q 39 189 28 191 L 0 171 Q 30 169 71 165 Q 71 122 69 96 Q 66 71 58 58 L 64 54 L 94 84 Q 90 92 90 105 V 163 L 131 159 V 66 Q 131 30 120 2 L 126 0 L 156 30 Q 150 34 150 60 Z M 334 120 Q 330 131 327 139 Q 323 148 319 171 L 349 167 Q 360 144 358 107 L 364 105 L 388 129 Q 377 137 373 157 Q 368 178 359 197 Q 349 216 347 186 L 315 191 Q 304 212 291 227 L 306 253 Q 298 263 285 274 L 383 263 Q 375 253 341 214 L 347 208 L 386 234 Q 405 191 416 94 L 315 103 Z M 171 317 Q 163 330 159 345 L 184 360 Q 186 377 180 388 L 154 356 Q 141 386 120 416 Q 138 428 176 401 L 189 411 Q 197 386 199 293 L 159 300 Z M 107 418 Q 146 345 148 302 L 107 308 L 118 323 Q 111 330 105 347 L 124 364 L 116 386 L 99 358 Q 86 388 60 411 V 426 Q 92 422 107 418 Z M 259 311 276 326 Q 274 338 274 375 L 304 373 Q 317 328 308 291 L 272 296 Z M 259 124 276 141 272 152 V 178 L 300 174 Q 311 133 304 105 L 272 107 Z M 90 311 73 315 58 306 60 401 Q 90 347 90 311 Z" fill="black" />
  </g>
  <g class="defect" id="01">
    <path d="M 120 416 Q 138 428 176 401" fill="none" stroke="red" stroke-width="3" />
  </g>
</svg>