<svg xmlns="http://www.w3.org/2000/svg" width="512" height="512" viewBox="0 0 512 512">
  <g class="glyph">
    <path d="M 232 296 Q 242 273 250 237 Q 252 228 246 223 Q 241 218 231 219 Q 190 227 150 242 Q 147 268 147 304 Z M 217 326 148 333 Q 151 379 160 405 Q 173 445 250 456 Q 320 457 395 449 Q 436 434 468 400 Q 454 393 454 378 Q 454 367 462 360 Q 489 352 482 352 Q 497 352 505 362 Q 512 372 507 386 Q 493 430 442 460 Q 405 483 342 491 Q 280 498 221 488 Q 168 480 132 461 Q 96 441 83 416 Q 66 372 59 321 Q 51 261 53 199 L 158 174 Q 154 192 152 211 Q 201 192 258 181 Q 291 174 312 192 Q 330 207 330 233 Q 330 297 307 371 L 199 357 Q 210 339 217 326 Z M 127 98 Q 239 68 357 58 Q 416 51 448 87 Q 479 119 475 177 Q 468 262 441 342 L 339 315 Q 378 239 388 165 Q 393 132 376 111 Q 359 88 327 94 Q 210 113 77 149 L 37 191 L 0 177 L 83 0 L 201 22 Z" fill="black" />
  </g>
  <g class="defect" id="01">
    <path d="M 250 456 Q 320 457 395 449" fill="none" stroke="red" stroke-width="3" />
  </g>
  <g class="defect" id="02">
    <path d="M 462 360 Q 489 352 482 352" fill="none" stroke="red" stroke-width="3" />
  </g>
  <g class="defect" id="03">
    <path d="M 127 98 Q 239 68 357 58" fill="none" stroke="red" stroke-width="3" />
  </g>
</svg>