<svg xmlns="http://www.w3.org/2000/svg" width="512" height="512" viewBox="0 0 512 512">
  <g class="glyph">
    <path d="M 475 104 Q 474 126 451 129 L 126 159 L 121 132 L 427 104 Q 427 95 433 88 Q 440 82 450 81 Q 459 81 467 87 Q 460 112 475 104 Z M 334 240 413 233 Q 414 213 435 210 Q 444 209 452 215 Q 459 222 460 233 Q 461 242 454 249 Q 447 257 436 257 L 331 267 L 316 368 L 443 360 Q 444 339 466 337 Q 476 335 483 342 Q 490 349 491 360 Q 507 370 484 377 Q 477 384 467 384 L 104 408 L 100 382 L 272 371 L 257 273 L 148 283 L 144 256 L 253 247 L 240 163 L 346 154 Z M 104 59 443 27 Q 442 16 449 8 Q 455 0 466 1 Q 477 1 484 8 Q 491 16 490 26 Q 489 37 480 44 Q 472 50 460 51 L 102 85 L 74 461 L 457 437 Q 456 426 464 418 Q 470 410 481 410 Q 492 411 499 418 Q 506 425 505 436 Q 504 446 495 454 Q 466 471 474 461 L 72 487 L 71 506 L 30 512 L 0 30 L 107 14 Z" fill="black" />
  </g>
  <g class="defect" id="01">
    <path d="M 495 454 Q 466 471 474 461" fill="none" stroke="red" stroke-width="3" />
  </g>
  <g class="defect" id="02">
    <path d="M 467 87 Q 460 112 475 104" fill="none" stroke="red" stroke-width="3" />
  </g>
  <g class="defect" id="03">
    <path d="M 491 360 Q 507 370 484 377" fill="none" stroke="red" stroke-width="3" />
  </g>
</svg>