<svg xmlns="http://www.w3.org/2000/svg" width="512" height="512" viewBox="0 0 512 512">
  <g class="glyph">
    <path d="M 391 136 433 132 Q 433 122 439 115 Q 445 109 455 108 Q 464 108 470 114 Q 477 120 477 129 Q 478 140 468 148 Q 474 154 447 155 L 387 161 L 375 237 L 425 233 Q 424 224 431 216 Q 437 209 446 208 Q 455 208 462 215 Q 469 222 469 231 Q 469 242 459 249 Q 451 256 438 257 L 371 262 L 358 338 L 442 332 Q 442 323 448 315 Q 454 307 464 306 Q 473 305 480 313 Q 487 320 487 330 Q 487 341 477 349 Q 468 355 455 356 L 354 364 L 345 421 L 306 428 L 300 89 L 401 74 Z M 209 373 102 381 97 356 205 348 193 277 111 283 107 258 189 252 178 180 111 186 106 161 174 155 166 104 266 90 257 423 218 429 Z M 99 60 443 27 Q 442 16 449 8 Q 455 0 466 1 Q 477 1 484 8 Q 480 16 490 26 Q 489 37 480 44 Q 472 50 460 51 L 98 85 L 74 461 L 457 437 Q 456 426 464 418 Q 470 410 481 410 Q 492 411 499 418 Q 506 425 505 436 Q 504 446 495 454 Q 485 460 474 461 L 72 487 L 71 506 L 30 512 L 0 30 L 102 15 Z" fill="black" />
  </g>
  <g class="defect" id="01">
    <path d="M 468 148 Q 474 154 447 155" fill="none" stroke="red" stroke-width="3" />
  </g>
  <g class="defect" id="02">
    <path d="M 484 8 Q 480 16 490 26" fill="none" stroke="red" stroke-width="3" />
  </g>
</svg>