<svg xmlns="http://www.w3.org/2000/svg" width="512" height="512" viewBox="0 0 512 512">
  <g class="glyph">
    <path d="M 454 0 509 72 47 108 35 74 Z M 373 435 Q 391 375 393 331 Q 396 304 389 297 Q 383 289 355 289 Q 292 289 220 307 L 221 443 Z M 365 461 221 471 V 497 L 186 506 L 114 276 L 220 248 V 278 Q 292 262 377 258 Q 438 257 461 283 Q 476 300 475 344 Q 472 414 451 497 L 356 486 Q 373 481 365 461 Z M 115 189 460 161 Q 459 149 467 141 Q 474 133 486 133 Q 496 132 503 139 Q 511 146 511 156 Q 512 169 504 177 Q 496 184 481 186 L 111 216 L 89 359 L 37 502 L 0 489 L 39 346 L 19 133 L 126 121 Z" fill="black" />
  </g>
  <g class="defect" id="01">
    <path d="M 356 486 Q 373 481 365 461" fill="none" stroke="red" stroke-width="3" />
  </g>
</svg>