<svg xmlns="http://www.w3.org/2000/svg" width="512" height="512" viewBox="0 0 512 512">
  <g class="glyph">
    <path d="M 68 123 147 162 29 278 1 252 Z M 403 85 510 176 437 242 375 110 Z M 366 73 339 237 300 242 279 81 236 85 215 245 176 250 148 93 29 104 24 78 237 58 168 18 283 0 272 44 238 58 435 40 Q 416 42 441 19 Q 448 11 461 11 Q 471 11 479 18 Q 468 9 486 36 Q 487 49 477 57 Q 468 64 453 65 Z M 344 396 512 478 495 505 278 430 Q 194 469 66 504 L 0 453 Q 108 424 183 397 L 98 368 L 144 306 Q 80 319 58 324 L 55 297 Q 231 257 389 254 Q 437 253 451 279 Q 449 297 420 347 Q 385 372 344 396 Z M 270 360 Q 316 339 383 301 Q 397 293 396 285 Q 394 277 379 277 Q 274 281 155 304 Z" fill="black" />
  </g>
  <g class="defect" id="01">
    <path d="M 435 40 Q 416 42 441 19" fill="none" stroke="red" stroke-width="3" />
  </g>
  <g class="defect" id="02">
    <path d="M 479 18 Q 468 9 486 36" fill="none" stroke="red" stroke-width="3" />
  </g>
  <g class="defect" id="03">
    <path d="M 451 279 Q 449 297 420 347" fill="none" stroke="red" stroke-width="3" />
  </g>
</svg>