<svg xmlns="http://www.w3.org/2000/svg" width="512" height="512" viewBox="0 0 512 512">
  <g class="glyph">
    <path d="M 276 255 364 288 224 501 193 484 Z M 258 14 346 51 220 230 193 212 Z M 435 208 Q 465 213 462 224 Q 491 249 486 303 Q 481 351 466 404 Q 449 464 424 507 L 331 475 Q 396 384 412 282 Q 416 253 406 242 Q 396 232 365 236 Q 274 246 214 280 L 203 255 Q 232 240 279 225 Q 320 213 358 207 Q 393 201 416 204 L 353 15 L 385 0 L 512 167 Z M 111 371 Q 121 267 120 141 Q 119 118 112 115 Q 106 112 93 121 Q 85 126 81 130 L 76 374 Z M 108 399 75 403 74 445 39 455 0 86 83 63 82 94 Q 77 68 109 76 Q 141 59 158 68 Q 179 80 181 135 Q 188 299 178 443 L 104 436 Q 106 425 108 399 Z" fill="black" />
  </g>
  <g class="defect" id="01">
    <path d="M 435 208 Q 465 213 462 224" fill="none" stroke="red" stroke-width="3" />
  </g>
  <g class="defect" id="02">
    <path d="M 82 94 Q 77 68 109 76" fill="none" stroke="red" stroke-width="3" />
  </g>
</svg>