<svg xmlns="http://www.w3.org/2000/svg" width="512" height="512" viewBox="0 0 512 512">
  <g class="glyph">
    <path d="M 499 285 Q 502 292 497 303 Q 492 314 480 323 Q 442 351 395 366 Q 426 438 387 509 L 288 490 Q 322 458 334 427 Q 346 395 340 350 Q 375 332 398 307 Q 403 301 401 298 Q 399 294 391 295 Q 317 303 233 332 L 228 303 Q 270 289 332 276 Q 393 266 453 264 Q 494 263 499 285 Z M 404 206 Q 407 194 409 188 Q 415 166 408 158 Q 402 149 381 152 Q 343 157 302 172 L 304 217 Z M 393 233 305 242 306 259 268 270 212 147 300 122 302 147 Q 359 127 409 123 Q 446 119 466 136 Q 490 155 485 194 Q 481 224 472 253 L 387 247 Q 391 237 393 233 Z M 346 76 457 63 Q 456 51 463 43 Q 470 34 482 34 Q 492 34 499 40 Q 507 46 509 55 Q 512 69 502 78 Q 480 86 478 88 L 200 121 L 195 95 L 341 77 L 273 32 L 378 0 V 60 Z M 115 371 Q 124 261 124 138 Q 124 120 119 116 Q 112 110 97 120 Q 91 125 82 133 L 78 375 Z M 112 400 77 403 76 446 41 456 0 86 84 63 83 99 Q 91 91 105 81 Q 139 58 158 66 Q 184 76 185 136 Q 191 302 181 445 L 108 437 Q 109 423 112 400 Z" fill="black" />
  </g>
  <g class="defect" id="01">
    <path d="M 502 78 Q 480 86 478 88" fill="none" stroke="red" stroke-width="3" />
  </g>
</svg>