<svg xmlns="http://www.w3.org/2000/svg" width="512" height="512" viewBox="0 0 512 512">
  <g class="glyph">
    <path d="M 462 174 Q 466 181 466 189 Q 464 212 441 215 L 373 222 L 361 277 L 447 268 Q 446 257 454 249 Q 462 241 473 241 Q 484 241 491 248 Q 499 255 499 266 Q 497 289 473 292 L 206 319 L 201 293 L 320 281 L 308 230 L 226 239 L 221 213 L 302 204 L 290 152 L 393 136 L 379 195 L 415 191 Q 415 180 422 172 Q 429 164 441 164 Q 444 164 448 165 L 348 95 L 208 209 L 180 188 Q 185 319 175 444 L 103 436 Q 105 424 107 400 L 75 403 L 74 446 L 39 455 L 0 86 L 81 62 L 80 95 Q 92 85 105 76 Q 136 57 155 68 Q 189 79 178 133 Q 167 170 180 187 L 270 101 L 198 110 L 193 83 L 294 71 L 281 15 L 380 0 L 367 63 L 442 54 Q 441 42 448 34 Q 455 26 466 25 Q 478 25 486 32 Q 494 39 494 51 Q 495 63 487 70 Q 479 78 466 79 L 412 85 L 512 127 L 493 196 Z M 383 365 424 361 Q 424 350 431 342 Q 438 334 450 334 Q 480 351 469 342 Q 476 349 476 360 Q 474 383 450 386 L 377 393 L 364 458 L 448 451 Q 447 440 455 432 Q 463 424 474 424 Q 485 424 492 431 Q 499 438 499 449 Q 498 472 473 475 L 209 498 L 205 472 L 324 462 L 307 399 L 221 407 L 216 380 L 299 372 L 288 334 L 392 320 Z M 110 371 Q 121 259 119 140 Q 119 118 112 114 Q 106 111 94 120 Q 83 128 80 131 L 75 375 Z" fill="black" />
  </g>
  <g class="defect" id="01">
    <path d="M 450 334 Q 480 351 469 342" fill="none" stroke="red" stroke-width="3" />
  </g>
  <g class="defect" id="02">
    <path d="M 155 68 Q 189 79 178 133" fill="none" stroke="red" stroke-width="3" />
  </g>
  <g class="defect" id="03">
    <path d="M 178 133 Q 167 170 180 187" fill="none" stroke="red" stroke-width="3" />
  </g>
</svg>