<svg xmlns="http://www.w3.org/2000/svg" width="512" height="512" viewBox="0 0 512 512">
  <g class="glyph">
    <path d="M 395 425 Q 396 447 371 460 Q 342 474 304 472 Q 247 470 228 431 Q 209 392 205 334 L 282 313 Q 271 379 280 423 Q 285 443 306 448 Q 331 451 351 442 Q 341 426 353 411 Q 363 400 378 405 Q 394 410 395 425 Z M 411 138 Q 417 108 418 88 Q 420 59 408 47 Q 395 34 367 38 Q 331 43 290 61 L 289 90 L 351 83 Q 350 73 357 64 Q 378 68 375 55 Q 385 55 392 62 Q 399 69 399 80 Q 396 101 375 104 L 288 113 L 287 152 Z M 404 164 285 177 285 191 249 201 200 31 292 6 291 31 Q 331 16 373 10 Q 434 0 464 22 Q 493 42 493 90 Q 491 156 476 207 L 394 193 Q 399 180 404 164 Z M 368 301 432 342 390 399 351 347 324 418 292 411 310 266 385 257 Z M 315 223 Q 348 214 383 211 Q 450 206 481 235 Q 531 265 506 336 Q 499 435 475 509 L 387 491 Q 430 402 439 316 Q 443 273 427 255 Q 413 239 381 240 Q 332 242 273 272 L 232 318 L 196 311 L 236 205 L 336 200 Z M 118 371 Q 128 245 126 136 Q 126 120 122 116 Q 133 111 102 119 Q 91 125 82 133 L 77 375 Z M 115 400 77 404 76 447 41 456 0 85 84 62 83 98 Q 95 89 110 79 Q 145 58 162 66 Q 186 76 188 135 Q 195 303 185 444 L 111 437 Q 113 419 115 400 Z" fill="black" />
  </g>
  <g class="defect" id="01">
    <path d="M 122 116 Q 133 111 102 119" fill="none" stroke="red" stroke-width="3" />
  </g>
  <g class="defect" id="02">
    <path d="M 357 64 Q 378 68 375 55" fill="none" stroke="red" stroke-width="3" />
  </g>
  <g class="defect" id="03">
    <path d="M 481 235 Q 531 265 506 336" fill="none" stroke="red" stroke-width="3" />
  </g>
</svg>