<svg xmlns="http://www.w3.org/2000/svg" width="512" height="512" viewBox="0 0 512 512">
  <g class="glyph">
    <path d="M 415 306 455 303 Q 455 290 463 282 Q 471 274 483 274 Q 493 275 500 281 Q 506 288 507 298 Q 489 293 499 319 Q 491 327 476 328 L 411 332 L 389 499 L 353 505 L 330 338 L 182 348 L 171 413 L 56 507 L 29 487 L 110 385 L 105 353 L 10 359 L 5 333 L 100 327 L 91 274 L 196 259 L 186 321 L 326 311 L 319 256 L 424 240 Z M 396 172 Q 403 178 403 187 Q 403 197 396 206 Q 389 214 379 215 L 290 222 L 277 290 L 242 295 L 223 227 L 118 236 L 112 210 L 216 202 L 202 152 L 306 141 L 295 195 L 356 191 Q 356 181 362 175 Q 369 168 378 167 Q 384 167 386 168 L 272 113 L 293 86 L 512 126 L 472 209 Z M 294 57 446 43 Q 445 29 453 22 Q 461 13 473 14 Q 483 14 490 20 Q 480 27 498 36 Q 498 63 468 66 L 282 83 L 23 255 L 0 231 L 181 93 L 19 108 L 14 83 L 217 64 L 199 15 L 312 0 Z" fill="black" />
  </g>
  <g class="defect" id="01">
    <path d="M 490 20 Q 480 27 498 36" fill="none" stroke="red" stroke-width="3" />
  </g>
  <g class="defect" id="02">
    <path d="M 507 298 Q 489 293 499 319" fill="none" stroke="red" stroke-width="3" />
  </g>
</svg>