<svg xmlns="http://www.w3.org/2000/svg" width="512" height="512" viewBox="0 0 512 512">
  <g class="glyph">
    <path d="M 433 180 484 108 506 190 429 231 Q 421 338 421 434 Q 421 454 429 459 Q 437 464 452 454 Q 466 444 472 427 Q 463 423 459 413 Q 455 403 459 393 Q 463 384 474 380 Q 485 376 494 381 Q 512 393 501 425 Q 490 453 473 468 Q 446 492 417 491 Q 397 490 385 476 Q 371 461 368 434 Q 351 235 362 14 L 455 0 Q 441 86 433 180 Z M 290 198 304 197 Q 306 178 324 175 Q 341 175 347 190 Q 352 217 325 221 L 288 225 Q 278 361 285 450 Q 286 463 294 466 Q 301 468 310 459 Q 318 450 324 437 Q 314 434 310 424 Q 306 414 310 404 Q 313 394 324 390 Q 334 386 343 391 Q 364 401 352 434 Q 342 462 325 478 Q 289 516 285 500 Q 265 501 251 487 Q 236 473 232 444 Q 231 434 230 422 L 177 472 L 117 406 Q 100 456 59 500 L 1 452 Q 42 402 69 354 L 19 299 L 35 189 Q 20 196 11 202 L 0 176 Q 26 163 40 157 L 61 13 L 142 31 L 109 137 Q 155 129 174 143 Q 198 161 188 220 Q 180 278 143 355 L 230 419 Q 212 262 218 22 L 311 8 Q 297 92 290 198 Z M 101 165 62 293 91 315 Q 122 255 135 192 Q 138 175 129 168 Q 120 162 101 165 Z" fill="black" />
  </g>
  <g class="defect" id="01">
    <path d="M 117 406 Q 100 456 59 500" fill="none" stroke="red" stroke-width="3" />
  </g>
  <g class="defect" id="02">
    <path d="M 325 478 Q 289 516 285 500" fill="none" stroke="red" stroke-width="3" />
  </g>
</svg>