<svg xmlns="http://www.w3.org/2000/svg" width="512" height="512" viewBox="0 0 512 512">
  <g class="glyph">
    <path d="M 465 368 510 448 484 471 339 332 414 279 443 330 475 285 511 343 Z M 397 69 450 63 Q 449 50 457 41 Q 465 33 478 33 Q 507 34 497 45 Q 504 55 500 66 Q 494 83 465 86 L 392 95 L 385 142 L 432 137 Q 431 123 439 115 Q 447 107 461 108 Q 471 108 479 118 Q 486 128 483 139 Q 480 148 469 154 Q 459 160 447 161 L 380 168 L 372 217 L 458 208 Q 456 195 466 186 Q 475 176 488 178 Q 498 179 505 188 Q 512 197 510 208 Q 506 229 473 232 L 294 251 L 399 257 L 252 371 L 339 354 Q 330 400 337 452 Q 338 463 346 470 Q 353 476 363 476 Q 376 477 386 467 Q 370 455 378 436 Q 384 425 396 422 Q 409 420 418 429 Q 435 447 421 467 Q 410 484 390 493 Q 356 482 350 502 Q 328 502 308 495 Q 285 485 275 470 Q 255 440 248 374 L 220 395 L 196 370 L 284 252 L 213 259 L 209 233 L 329 221 L 321 175 L 237 184 L 233 159 L 316 150 L 308 104 L 214 116 L 209 91 L 304 80 L 293 18 L 409 0 Z M 152 364 234 428 175 485 120 420 Q 92 466 64 502 L 1 454 Q 45 402 71 361 L 19 299 L 39 188 Q 20 197 11 203 L 0 176 Q 20 165 45 157 L 70 12 L 161 30 L 121 137 Q 165 132 186 154 Q 210 178 200 231 Q 190 289 152 364 Z M 111 164 61 294 95 320 Q 126 260 140 192 Q 144 174 136 167 Q 129 161 111 164 Z" fill="black" />
  </g>
  <g class="defect" id="01">
    <path d="M 478 33 Q 507 34 497 45" fill="none" stroke="red" stroke-width="3" />
  </g>
  <g class="defect" id="02">
    <path d="M 390 493 Q 356 482 350 502" fill="none" stroke="red" stroke-width="3" />
  </g>
</svg>