<svg xmlns="http://www.w3.org/2000/svg" width="512" height="512" viewBox="0 0 512 512">
  <g class="glyph">
    <path d="M 319 331 458 322 Q 457 310 465 301 Q 474 293 486 293 Q 495 293 502 300 Q 509 306 510 316 Q 510 343 480 346 L 282 359 Q 307 395 305 439 Q 304 480 281 512 L 182 493 Q 216 457 228 428 Q 241 397 234 363 L 6 378 L 1 352 L 235 337 Q 280 305 305 267 Q 311 260 309 255 Q 307 251 299 252 Q 207 258 85 283 L 80 257 Q 212 230 344 220 Q 382 219 391 238 Q 397 250 395 262 Q 392 277 379 290 Q 355 313 319 331 Z M 293 65 424 53 Q 423 33 439 26 Q 451 21 462 26 Q 485 42 475 44 Q 478 58 470 66 Q 476 76 445 77 L 287 90 L 278 140 Q 349 133 422 128 Q 467 125 486 139 Q 510 154 501 192 Q 497 212 486 230 L 394 216 Q 408 203 417 183 Q 437 171 420 164 Q 417 156 402 156 Q 262 166 93 196 L 89 242 L 52 254 L 0 166 L 99 138 L 96 166 Q 166 155 234 145 L 220 97 L 32 113 L 27 88 L 214 72 L 198 13 L 305 0 Z" fill="black" />
  </g>
  <g class="defect" id="01">
    <path d="M 417 183 Q 437 171 420 164" fill="none" stroke="red" stroke-width="3" />
  </g>
  <g class="defect" id="02">
    <path d="M 462 26 Q 485 42 475 44" fill="none" stroke="red" stroke-width="3" />
  </g>
  <g class="defect" id="03">
    <path d="M 470 66 Q 476 76 445 77" fill="none" stroke="red" stroke-width="3" />
  </g>
</svg>