<svg xmlns="http://www.w3.org/2000/svg" width="512" height="512" viewBox="0 0 512 512">
  <g class="glyph">
    <path d="M 461 443 470 443 Q 470 432 479 425 Q 487 419 496 421 Q 511 426 512 442 Q 512 462 485 466 L 169 495 L 165 470 L 218 465 L 180 285 L 261 262 L 260 285 Q 313 269 370 263 Q 421 258 446 271 Q 474 286 474 331 Q 474 383 461 443 Z M 389 450 Q 403 386 405 325 Q 406 306 397 298 Q 388 291 367 292 Q 315 294 259 316 L 254 462 L 284 459 L 276 331 L 317 320 L 311 457 L 341 454 L 338 322 L 379 310 L 368 452 Z M 360 186 Q 373 133 377 86 Q 379 56 369 46 Q 358 36 330 41 Q 298 47 267 65 L 268 116 L 311 111 Q 310 101 317 94 Q 324 87 334 87 Q 343 87 349 95 Q 356 102 356 111 Q 354 132 329 134 L 268 142 L 270 197 Z M 353 213 270 222 270 248 237 258 174 41 267 11 267 35 Q 314 35 335 14 Q 399 0 430 27 Q 456 48 452 101 Q 447 175 428 245 L 344 239 Q 352 217 353 213 Z M 143 362 203 411 153 462 115 417 Q 75 449 62 504 L 1 456 Q 39 408 68 360 L 19 302 L 37 191 Q 19 200 11 205 L 0 179 Q 9 168 42 160 L 65 15 L 146 32 L 112 138 Q 152 132 172 145 Q 197 165 188 224 Q 179 285 143 362 Z M 103 168 62 296 91 320 Q 123 254 134 197 Q 138 178 131 170 Q 123 163 103 168 Z" fill="black" />
  </g>
  <g class="defect" id="01">
    <path d="M 115 417 Q 75 449 62 504" fill="none" stroke="red" stroke-width="3" />
  </g>
  <g class="defect" id="02">
    <path d="M 267 35 Q 314 35 335 14" fill="none" stroke="red" stroke-width="3" />
  </g>
  <g class="defect" id="03">
    <path d="M 0 179 Q 9 168 42 160" fill="none" stroke="red" stroke-width="3" />
  </g>
</svg>