<svg xmlns="http://www.w3.org/2000/svg" width="512" height="512" viewBox="0 0 512 512">
  <g class="glyph">
    <path d="M 365 113 80 138 76 157 36 162 1 56 102 41 87 109 199 100 170 17 284 0 251 95 359 86 346 28 447 13 410 128 370 134 Z M 339 316 Q 352 264 359 215 Q 362 199 356 194 Q 351 189 334 190 Q 220 200 86 229 Q 85 271 88 333 L 204 325 L 163 234 L 275 224 L 251 322 Z M 331 344 90 362 Q 93 385 94 396 Q 98 429 123 450 Q 145 467 180 473 Q 253 484 329 469 Q 424 456 441 428 Q 426 411 437 392 Q 454 372 476 386 Q 484 392 485 405 Q 485 418 478 428 Q 444 476 327 496 Q 242 512 165 507 Q 99 503 65 475 Q 30 447 20 392 Q 0 283 3 182 L 90 162 Q 89 174 87 200 Q 227 172 356 160 Q 416 166 425 174 Q 444 189 439 236 Q 432 300 418 366 L 323 370 Q 327 357 331 344 Z" fill="black" />
  </g>
  <g class="defect" id="01">
    <path d="M 329 469 Q 424 456 441 428" fill="none" stroke="red" stroke-width="3" />
  </g>
  <g class="defect" id="02">
    <path d="M 356 160 Q 416 166 425 174" fill="none" stroke="red" stroke-width="3" />
  </g>
  <g class="defect" id="03">
    <path d="M 180 473 Q 253 484 329 469" fill="none" stroke="red" stroke-width="3" />
  </g>
</svg>