<svg xmlns="http://www.w3.org/2000/svg" width="512" height="512" viewBox="0 0 512 512">
  <g class="glyph">
    <path d="M 419 158 512 210 487 237 375 195 Q 313 241 236 266 L 204 215 L 187 479 L 156 483 L 157 447 L 54 456 V 491 L 24 497 L 0 125 L 51 116 L 53 429 L 86 426 L 64 25 L 147 12 L 125 422 L 157 419 L 160 105 L 211 97 L 204 200 Q 259 187 300 168 L 253 151 L 306 96 L 364 128 Q 377 118 395 100 Q 412 84 409 72 Q 405 60 376 64 Q 334 72 294 90 L 249 141 L 219 120 L 261 0 L 359 16 L 330 49 Q 356 41 381 37 Q 440 28 460 57 Q 471 71 466 91 Q 461 113 439 137 Q 430 147 419 158 Z M 411 271 443 268 Q 443 258 450 251 Q 457 245 467 245 Q 476 245 484 252 Q 491 259 491 269 Q 491 279 484 285 Q 457 292 467 293 L 407 299 L 403 333 L 425 330 Q 426 320 432 313 Q 439 306 449 306 Q 459 306 466 313 Q 454 332 473 330 Q 490 368 449 355 L 399 359 L 395 396 L 452 391 Q 452 381 459 374 Q 466 367 476 367 Q 486 367 493 374 Q 500 381 500 391 Q 498 413 476 415 L 391 423 L 380 505 L 344 510 L 336 428 L 235 438 L 231 411 L 334 401 L 330 366 L 257 373 L 252 346 L 328 340 L 324 307 L 234 316 L 229 290 L 322 280 L 317 234 L 417 221 Z" fill="black" />
  </g>
  <g class="defect" id="01">
    <path d="M 466 313 Q 454 332 473 330" fill="none" stroke="red" stroke-width="3" />
  </g>
  <g class="defect" id="02">
    <path d="M 473 330 Q 490 368 449 355" fill="none" stroke="red" stroke-width="3" />
  </g>
  <g class="defect" id="03">
    <path d="M 484 285 Q 457 292 467 293" fill="none" stroke="red" stroke-width="3" />
  </g>
</svg>