<svg xmlns="http://www.w3.org/2000/svg" width="512" height="512" viewBox="0 0 512 512">
  <g class="glyph">
    <path d="M 425 389 512 471 450 512 395 427 331 510 299 492 370 387 319 298 351 281 390 346 416 211 493 222 427 386 Z M 401 169 465 163 Q 465 155 471 150 Q 478 144 485 144 Q 495 144 501 150 Q 507 157 507 166 Q 507 186 483 189 L 385 196 L 344 262 L 309 253 L 347 91 L 437 110 Z M 297 57 439 43 Q 438 33 445 25 Q 451 17 461 16 Q 489 15 482 23 Q 490 31 490 42 Q 489 53 482 59 Q 475 65 465 66 L 101 99 L 82 366 L 34 511 L 0 498 L 31 353 L 18 57 L 105 43 L 103 74 L 251 61 L 193 21 L 305 0 Z M 234 157 262 155 Q 261 142 269 134 Q 276 125 288 125 Q 298 125 306 132 Q 313 139 314 150 Q 315 164 304 172 Q 296 178 281 179 L 231 183 L 228 217 L 246 215 Q 245 204 250 196 Q 256 188 267 188 Q 278 187 285 194 Q 293 201 293 212 Q 294 238 260 240 L 225 243 L 221 279 L 262 276 Q 260 265 267 255 Q 275 247 286 247 Q 297 247 305 254 Q 313 262 313 273 Q 300 313 280 301 L 102 313 L 98 288 L 182 282 L 175 247 L 126 251 L 121 226 L 170 222 L 163 189 L 109 194 L 105 168 L 157 163 L 149 122 L 240 106 Z M 215 352 Q 226 350 232 349 Q 270 321 303 369 Q 325 401 299 450 Q 279 488 262 511 L 179 487 Q 217 455 239 422 Q 251 405 249 391 Q 246 376 230 377 Q 217 378 203 383 L 183 437 L 105 511 L 69 498 L 123 421 L 131 329 L 228 318 Z" fill="black" />
  </g>
  <g class="defect" id="01">
    <path d="M 313 273 Q 300 313 280 301" fill="none" stroke="red" stroke-width="3" />
  </g>
  <g class="defect" id="02">
    <path d="M 232 349 Q 270 321 303 369" fill="none" stroke="red" stroke-width="3" />
  </g>
  <g class="defect" id="03">
    <path d="M 461 16 Q 489 15 482 23" fill="none" stroke="red" stroke-width="3" />
  </g>
</svg>