<svg xmlns="http://www.w3.org/2000/svg" width="512" height="512" viewBox="0 0 512 512">
  <g class="glyph">
    <path d="M 404 179 Q 414 151 421 126 Q 425 109 420 103 Q 415 97 395 98 Q 376 99 367 99 L 361 183 Z M 392 209 359 211 354 274 Q 389 272 424 270 Q 463 250 494 286 Q 510 306 501 344 Q 486 398 457 456 L 366 426 Q 403 382 425 330 Q 432 312 428 306 Q 408 310 401 299 Q 368 300 352 301 L 336 508 L 299 512 L 291 305 Q 253 309 233 311 L 231 369 L 29 511 L 0 496 L 161 354 L 159 320 Q 113 327 97 329 L 94 351 L 57 359 L 24 192 L 116 172 L 111 204 L 153 201 L 149 117 Q 86 124 16 138 L 9 112 Q 75 100 147 90 L 144 22 L 243 13 L 241 81 Q 261 79 282 78 L 279 10 L 375 0 L 369 72 Q 398 71 426 70 Q 482 67 485 85 Q 499 103 494 136 Q 484 196 469 253 L 381 236 Q 391 214 392 209 Z M 290 279 287 218 236 222 234 284 Q 254 282 290 279 Z M 286 190 283 105 Q 268 105 240 107 L 237 194 Z M 158 294 155 229 109 233 100 302 Q 147 295 158 294 Z" fill="black" />
  </g>
  <g class="defect" id="01">
    <path d="M 428 306 Q 408 310 401 299" fill="none" stroke="red" stroke-width="3" />
  </g>
  <g class="defect" id="02">
    <path d="M 424 270 Q 463 250 494 286" fill="none" stroke="red" stroke-width="3" />
  </g>
  <g class="defect" id="03">
    <path d="M 426 70 Q 482 67 485 85" fill="none" stroke="red" stroke-width="3" />
  </g>
</svg>