<svg xmlns="http://www.w3.org/2000/svg" width="512" height="512" viewBox="0 0 512 512">
  <g class="glyph">
    <path d="M 252 89 354 108 275 152 241 138 Z M 411 216 Q 411 213 411 211 Q 416 185 398 174 Q 383 164 356 168 Q 283 177 212 203 L 211 231 L 269 227 L 266 205 L 360 184 L 351 220 Z M 407 241 345 246 335 287 396 283 Q 403 263 407 241 Z M 388 309 329 313 196 400 162 386 255 318 205 322 204 344 168 354 117 167 215 143 213 173 Q 301 141 364 141 Q 419 133 451 153 Q 489 177 483 227 Q 476 288 457 342 L 379 332 Q 381 327 388 309 Z M 372 395 455 390 Q 454 379 462 371 Q 457 364 482 365 Q 491 366 498 374 Q 504 382 503 391 Q 502 400 493 407 Q 485 412 474 414 L 368 420 L 352 506 L 316 512 L 299 424 L 112 436 L 106 412 L 293 400 L 284 354 L 382 345 Z M 301 57 439 43 Q 439 33 446 25 Q 452 17 462 17 Q 474 15 482 23 Q 491 31 490 43 Q 490 53 482 59 Q 476 65 466 66 L 114 99 L 94 366 L 34 511 L 0 499 L 43 354 L 20 57 L 118 43 L 116 74 L 255 61 L 196 21 L 309 0 Z M 277 291 272 252 209 257 207 296 Z" fill="black" />
  </g>
  <g class="defect" id="01">
    <path d="M 213 173 Q 301 141 364 141" fill="none" stroke="red" stroke-width="3" />
  </g>
  <g class="defect" id="02">
    <path d="M 462 371 Q 457 364 482 365" fill="none" stroke="red" stroke-width="3" />
  </g>
</svg>