<svg xmlns="http://www.w3.org/2000/svg" width="512" height="512" viewBox="0 0 512 512">
  <g class="glyph">
    <path d="M 169 149 217 272 163 311 141 161 Z M 420 429 512 478 485 509 366 459 Q 296 493 224 509 L 167 456 Q 227 445 285 425 L 236 404 L 294 363 L 358 396 Q 394 379 410 364 Q 423 353 419 346 Q 433 339 398 340 Q 334 342 286 354 L 211 405 L 179 381 L 265 286 L 382 289 L 340 317 Q 385 311 417 311 Q 473 313 481 341 Q 489 370 454 403 Q 440 416 420 429 Z M 409 228 Q 415 203 417 177 Q 420 157 413 149 Q 405 140 386 142 Q 326 148 290 163 L 288 187 L 361 179 Q 361 171 367 165 Q 374 158 383 158 Q 392 158 399 165 Q 405 170 405 179 Q 405 187 399 193 Q 392 199 383 200 L 285 211 L 282 241 Z M 401 254 279 267 278 278 239 289 210 150 195 164 164 138 241 0 336 22 287 71 461 52 Q 461 43 468 35 Q 476 28 486 28 Q 496 28 503 35 Q 511 42 511 51 Q 511 62 501 69 Q 493 75 481 76 L 257 101 L 230 129 L 296 110 L 293 135 Q 344 117 407 111 Q 451 107 470 122 Q 493 138 490 178 Q 500 211 473 287 L 391 278 Q 395 270 401 254 Z M 67 165 29 338 0 328 11 144 67 164 59 27 145 13 125 502 88 507 Z" fill="black" />
  </g>
  <g class="defect" id="01">
    <path d="M 419 346 Q 433 339 398 340" fill="none" stroke="red" stroke-width="3" />
  </g>
  <g class="defect" id="02">
    <path d="M 490 178 Q 500 211 473 287" fill="none" stroke="red" stroke-width="3" />
  </g>
</svg>