<svg xmlns="http://www.w3.org/2000/svg" width="512" height="512" viewBox="0 0 512 512">
  <g class="glyph">
    <path d="M 434 340 510 403 434 461 403 357 Z M 350 380 Q 357 371 370 370 Q 381 370 389 378 Q 406 394 388 422 Q 366 455 315 471 Q 276 485 233 482 Q 174 482 155 431 Q 144 401 144 363 L 236 344 Q 228 382 231 410 Q 233 432 244 443 Q 257 455 281 453 Q 289 467 322 443 Q 345 433 357 420 Q 335 403 350 380 Z M 9 473 44 357 133 394 42 485 Z M 278 317 356 356 284 409 251 333 Z M 376 231 Q 379 212 372 204 Q 364 195 343 197 Q 259 201 145 223 L 143 249 L 212 244 L 205 225 L 308 208 L 297 237 Z M 370 255 287 262 275 291 360 285 Q 365 271 370 255 Z M 349 104 512 140 497 168 279 132 Q 161 174 37 195 L 0 153 Q 88 139 174 114 L 117 105 L 178 66 L 266 86 Q 328 63 372 44 Q 367 22 383 35 Q 382 29 365 30 Q 261 36 135 66 L 71 112 L 40 95 L 119 0 L 216 8 L 186 29 Q 276 11 364 5 Q 428 2 436 32 Q 441 60 398 82 Q 366 97 349 104 Z M 348 310 139 324 138 341 103 349 54 203 147 181 146 197 Q 252 176 352 169 Q 413 164 438 186 Q 460 205 453 245 Q 443 297 425 336 L 340 325 Q 344 317 348 310 Z M 229 294 220 267 142 273 140 300 Z" fill="black" />
  </g>
  <g class="defect" id="01">
    <path d="M 281 453 Q 289 467 322 443" fill="none" stroke="red" stroke-width="3" />
  </g>
  <g class="defect" id="02">
    <path d="M 372 44 Q 367 22 383 35" fill="none" stroke="red" stroke-width="3" />
  </g>
</svg>