<svg xmlns="http://www.w3.org/2000/svg" width="512" height="512" viewBox="0 0 512 512">
  <g class="glyph">
    <path d="M 402 158 Q 409 130 411 120 Q 433 98 408 90 Q 401 81 378 82 Q 250 86 109 119 L 104 182 Z M 398 252 460 247 Q 463 232 480 231 Q 488 230 495 236 Q 501 242 501 251 Q 502 269 479 272 L 396 278 L 389 330 L 454 326 Q 457 311 474 309 Q 483 309 489 315 Q 496 320 496 329 Q 496 339 489 345 Q 484 350 473 351 L 386 356 L 380 410 L 470 404 Q 473 389 490 387 Q 487 386 505 393 Q 511 398 511 407 Q 512 416 505 422 Q 499 428 489 428 L 377 436 L 371 491 L 334 497 L 312 217 L 404 202 Z M 394 184 102 207 88 373 34 506 0 493 38 360 17 74 114 61 112 90 Q 175 75 254 65 L 177 30 L 282 0 L 293 50 L 272 63 Q 327 56 383 52 Q 439 48 468 61 Q 504 79 498 126 Q 492 178 481 209 L 388 199 Q 390 194 394 184 Z M 218 447 101 455 97 431 215 422 209 370 119 377 116 353 207 346 201 293 111 299 107 276 198 268 193 230 286 217 262 501 225 506 Z" fill="black" />
  </g>
  <g class="defect" id="01">
    <path d="M 490 387 Q 487 386 505 393" fill="none" stroke="red" stroke-width="3" />
  </g>
  <g class="defect" id="02">
    <path d="M 411 120 Q 433 98 408 90" fill="none" stroke="red" stroke-width="3" />
  </g>
</svg>