<svg xmlns="http://www.w3.org/2000/svg" width="512" height="512" viewBox="0 0 512 512">
  <g class="glyph">
    <path d="M 267 178 364 392 281 433 232 189 Z M 504 99 Q 504 109 496 117 Q 488 124 477 125 L 207 156 L 202 130 L 451 101 Q 450 90 458 82 Q 466 73 477 73 Q 488 73 496 81 Q 504 89 504 99 Z M 367 0 373 98 339 112 254 34 Z M 407 448 458 444 Q 445 446 466 422 Q 476 413 489 416 Q 501 419 506 427 Q 512 435 511 444 Q 509 467 476 470 L 194 495 L 188 468 L 363 452 L 391 161 L 487 176 Z M 148 289 Q 134 408 122 504 L 38 465 Q 70 403 80 323 L 22 353 L 0 276 L 85 253 V 245 Q 85 211 82 170 L 10 179 L 5 153 L 80 144 Q 76 99 63 30 L 99 14 Q 97 73 130 138 L 147 136 Q 147 126 153 120 Q 160 113 170 113 Q 180 113 187 120 Q 193 126 193 136 Q 192 157 170 160 L 134 164 Q 140 207 143 233 Q 143 236 144 237 L 208 219 L 216 254 Z" fill="black" />
  </g>
  <g class="defect" id="01">
    <path d="M 99 14 Q 97 73 130 138" fill="none" stroke="red" stroke-width="3" />
  </g>
  <g class="defect" id="02">
    <path d="M 148 289 Q 134 408 122 504" fill="none" stroke="red" stroke-width="3" />
  </g>
  <g class="defect" id="03">
    <path d="M 458 444 Q 445 446 466 422" fill="none" stroke="red" stroke-width="3" />
  </g>
</svg>