<svg xmlns="http://www.w3.org/2000/svg" width="512" height="512" viewBox="0 0 512 512">
  <g class="glyph">
    <path d="M 396 190 433 346 389 382 371 205 Z M 420 432 Q 450 288 444 83 Q 444 54 427 43 Q 429 44 380 35 Q 352 36 316 46 Q 275 57 244 73 L 242 447 Z M 414 458 242 474 V 502 L 207 511 L 161 28 L 244 3 V 42 Q 322 10 390 5 Q 451 0 476 20 Q 504 40 506 104 Q 509 202 504 307 Q 499 430 484 503 L 405 491 Q 410 475 414 458 Z M 373 140 391 138 Q 392 130 399 125 Q 406 119 414 120 Q 406 121 428 127 Q 435 134 434 143 Q 432 161 408 164 L 371 168 L 354 422 L 322 425 L 311 244 L 277 395 L 251 380 L 268 204 L 310 220 L 308 175 L 259 181 L 256 154 L 306 148 L 301 67 L 379 55 Z M 136 290 Q 138 418 102 512 L 23 473 Q 53 410 66 334 L 26 358 L 0 279 L 73 258 Q 74 218 70 166 L 8 173 L 3 146 L 68 139 Q 63 91 52 26 L 88 9 Q 109 69 121 133 L 130 132 Q 131 123 138 118 Q 144 113 152 114 Q 170 116 170 137 Q 169 156 144 158 L 125 160 Q 130 195 134 240 L 167 230 L 175 266 Z" fill="black" />
  </g>
  <g class="defect" id="01">
    <path d="M 414 120 Q 406 121 428 127" fill="none" stroke="red" stroke-width="3" />
  </g>
  <g class="defect" id="02">
    <path d="M 427 43 Q 429 44 380 35" fill="none" stroke="red" stroke-width="3" />
  </g>
</svg>