<svg xmlns="http://www.w3.org/2000/svg" width="512" height="512" viewBox="0 0 512 512">
  <g class="glyph">
    <path d="M 172 7 227 79 16 122 5 88 Z M 498 26 Q 478 49 466 55 L 236 84 L 230 57 L 451 28 Q 449 16 457 8 Q 464 1 473 1 Q 494 0 498 26 Z M 413 131 447 127 Q 445 114 453 106 Q 460 99 470 99 Q 481 98 488 106 Q 495 114 495 125 Q 494 135 487 142 Q 478 150 463 152 L 410 159 L 403 230 L 447 225 Q 446 212 453 204 Q 460 197 470 197 Q 470 197 488 205 Q 495 212 495 223 Q 494 234 487 241 Q 478 249 463 251 L 400 258 L 394 329 L 464 323 Q 451 290 470 302 Q 477 295 488 295 Q 498 294 505 302 Q 512 309 512 320 Q 511 331 504 338 Q 496 346 480 348 L 391 357 L 377 495 L 344 501 L 337 363 L 233 374 L 228 346 L 335 336 L 331 265 L 254 273 L 249 246 L 329 237 L 326 168 L 254 176 L 249 149 L 324 141 L 321 89 L 418 79 Z M 157 181 175 179 Q 174 167 181 159 Q 188 150 200 150 Q 224 151 226 175 Q 228 188 218 196 Q 209 203 194 204 L 155 209 L 148 297 L 193 292 Q 193 281 200 272 Q 208 264 220 263 Q 232 263 240 272 Q 247 280 245 293 Q 244 303 234 310 Q 226 316 214 317 L 143 324 L 56 501 L 22 489 L 82 331 L 5 338 L 0 311 L 90 303 L 79 217 L 21 224 L 16 196 L 75 190 L 67 129 L 162 114 Z" fill="black" />
  </g>
  <g class="defect" id="01">
    <path d="M 464 323 Q 451 290 470 302" fill="none" stroke="red" stroke-width="3" />
  </g>
  <g class="defect" id="02">
    <path d="M 470 197 Q 470 197 488 205" fill="none" stroke="red" stroke-width="3" />
  </g>
  <g class="defect" id="03">
    <path d="M 498 26 Q 478 49 466 55" fill="none" stroke="red" stroke-width="3" />
  </g>
</svg>