<svg xmlns="http://www.w3.org/2000/svg" width="512" height="512" viewBox="0 0 512 512">
  <g class="glyph">
    <path d="M 286 162 382 181 330 238 268 185 Z M 500 228 Q 500 247 476 250 L 269 272 L 264 247 L 458 227 Q 442 219 465 213 Q 471 207 478 207 Q 488 207 494 213 Q 500 219 500 228 Z M 413 153 482 184 395 232 374 213 Z M 458 327 469 326 Q 471 318 476 312 Q 482 306 490 306 Q 485 324 506 313 Q 512 319 512 328 Q 512 347 488 349 L 455 353 L 442 497 L 406 500 L 390 359 L 356 363 L 353 391 L 277 499 L 243 484 L 295 380 L 294 369 L 262 372 L 257 347 L 290 343 L 282 289 L 363 280 L 358 336 L 388 334 L 381 279 L 463 268 Z M 398 108 Q 403 95 407 83 Q 414 60 409 48 Q 403 37 383 38 Q 330 40 269 60 L 265 124 Z M 386 136 263 150 248 368 183 498 149 486 193 356 175 13 273 0 270 31 Q 348 0 394 6 Q 459 1 481 20 Q 502 40 493 90 Q 487 124 476 149 L 377 151 Q 382 144 386 136 Z M 135 278 Q 144 406 117 499 L 40 460 Q 64 395 72 317 L 22 347 L 0 269 L 74 247 Q 74 206 69 159 L 10 166 L 5 140 L 66 133 Q 60 82 50 22 L 86 5 Q 102 63 115 127 L 124 126 Q 124 117 131 110 Q 139 103 148 103 Q 158 103 165 110 Q 172 117 172 127 Q 169 147 148 151 L 120 154 Q 128 202 131 228 L 170 217 L 180 251 Z" fill="black" />
  </g>
  <g class="defect" id="01">
    <path d="M 458 227 Q 442 219 465 213" fill="none" stroke="red" stroke-width="3" />
  </g>
  <g class="defect" id="02">
    <path d="M 270 31 Q 348 0 394 6" fill="none" stroke="red" stroke-width="3" />
  </g>
  <g class="defect" id="03">
    <path d="M 490 306 Q 485 324 506 313" fill="none" stroke="red" stroke-width="3" />
  </g>
</svg>