<svg xmlns="http://www.w3.org/2000/svg" width="512" height="512" viewBox="0 0 512 512">
  <g class="glyph">
    <path d="M 229 205 303 238 186 301 158 278 Z M 405 188 512 216 468 281 379 214 Z M 432 0 486 61 188 96 177 59 Z M 425 151 457 148 Q 460 128 480 127 Q 490 127 497 133 Q 504 140 504 150 Q 504 160 496 166 Q 489 171 478 173 L 370 185 L 356 272 L 318 279 L 304 192 L 182 206 L 177 179 L 221 174 L 206 111 L 240 98 L 287 146 L 227 173 L 300 165 L 289 96 L 388 84 L 375 157 L 424 151 L 394 136 L 421 77 L 483 104 Z M 423 359 Q 424 349 425 344 Q 410 321 413 313 Q 401 306 375 309 Q 321 315 270 334 V 374 L 311 370 L 307 339 L 388 321 L 377 363 Z M 419 384 371 389 359 434 408 429 Q 415 410 419 384 Z M 400 455 270 467 V 492 L 234 501 L 185 308 L 270 284 V 304 Q 314 288 388 279 Q 441 272 464 289 Q 490 309 489 352 Q 488 418 472 495 L 390 480 Q 397 466 400 455 Z M 319 438 314 394 270 398 V 442 Z M 138 267 Q 146 394 122 502 L 47 466 Q 69 394 75 312 L 18 353 L 0 272 L 77 241 Q 75 203 71 156 L 10 164 L 5 138 L 68 130 Q 62 89 50 28 L 86 12 Q 105 62 118 124 L 141 121 Q 141 112 147 105 Q 152 98 161 97 Q 181 96 187 114 Q 190 125 183 134 Q 161 157 164 145 L 124 150 Q 130 185 134 218 L 169 204 L 177 239 Z" fill="black" />
  </g>
  <g class="defect" id="01">
    <path d="M 425 344 Q 410 321 413 313" fill="none" stroke="red" stroke-width="3" />
  </g>
  <g class="defect" id="02">
    <path d="M 183 134 Q 161 157 164 145" fill="none" stroke="red" stroke-width="3" />
  </g>
</svg>