<svg xmlns="http://www.w3.org/2000/svg" width="512" height="512" viewBox="0 0 512 512">
  <g class="glyph">
    <path d="M 91 165 116 211 89 238 75 179 Z M 290 195 354 183 325 375 281 492 254 480 285 359 Z M 174 152 204 165 176 222 158 215 Z M 57 18 134 47 91 109 32 41 Z M 377 161 441 150 402 366 342 505 315 492 360 351 Z M 360 88 Q 385 79 403 76 Q 448 67 472 82 Q 507 102 507 166 Q 509 253 502 317 Q 489 430 445 511 L 379 467 Q 425 401 444 307 Q 456 245 458 152 Q 460 98 403 107 Q 373 113 333 132 L 298 188 L 271 175 L 316 0 L 398 27 Z M 193 236 Q 187 183 205 175 Q 210 143 201 133 Q 178 140 165 124 Q 123 130 68 156 L 70 249 L 122 243 L 107 153 L 162 136 L 148 241 Z M 186 262 71 275 71 295 42 305 0 129 67 104 68 129 Q 119 105 167 97 L 139 86 L 173 11 L 243 37 L 172 96 Q 174 96 176 96 Q 223 89 242 106 Q 265 126 262 171 Q 260 239 248 289 L 180 281 Q 183 275 186 262 Z M 179 439 Q 185 408 186 371 Q 187 349 180 341 Q 173 333 154 336 Q 130 339 104 350 L 103 385 L 138 381 Q 141 364 155 364 Q 173 363 174 385 Q 173 403 156 406 L 103 410 L 102 445 Z M 174 464 102 471 101 502 73 512 32 320 105 295 104 322 Q 131 311 155 305 Q 182 296 221 312 Q 243 328 246 366 Q 251 435 236 510 L 165 495 Q 168 485 174 464 Z" fill="black" />
  </g>
  <g class="defect" id="01">
    <path d="M 155 305 Q 182 296 221 312" fill="none" stroke="red" stroke-width="3" />
  </g>
  <g class="defect" id="02">
    <path d="M 201 133 Q 178 140 165 124" fill="none" stroke="red" stroke-width="3" />
  </g>
  <g class="defect" id="03">
    <path d="M 193 236 Q 187 183 205 175" fill="none" stroke="red" stroke-width="3" />
  </g>
</svg>