<svg xmlns="http://www.w3.org/2000/svg" width="512" height="512" viewBox="0 0 512 512">
  <g class="glyph">
    <path d="M 379 114 455 104 Q 469 82 462 85 Q 470 77 482 77 Q 493 77 499 84 Q 506 92 506 103 Q 504 126 480 129 L 307 150 L 291 366 L 229 512 L 196 499 L 240 354 L 217 104 L 312 91 L 310 123 L 376 114 L 279 44 L 377 0 L 407 92 Z M 132 224 Q 134 174 134 124 Q 134 108 125 104 Q 117 100 104 110 Q 94 116 82 128 L 80 230 Z M 131 251 79 257 76 380 118 376 Q 126 317 131 251 Z M 114 403 76 408 75 450 39 459 0 84 84 60 83 92 Q 93 84 105 77 Q 140 56 165 67 Q 191 79 193 127 Q 203 273 182 447 L 107 440 Q 94 447 114 403 Z" fill="black" />
  </g>
  <g class="defect" id="01">
    <path d="M 455 104 Q 469 82 462 85" fill="none" stroke="red" stroke-width="3" />
  </g>
  <g class="defect" id="02">
    <path d="M 107 440 Q 94 447 114 403" fill="none" stroke="red" stroke-width="3" />
  </g>
</svg>