<svg xmlns="http://www.w3.org/2000/svg" width="512" height="512" viewBox="0 0 512 512">
  <g class="glyph">
    <path d="M 478 7 485 51 451 66 413 22 Z M 430 258 Q 431 245 431 230 Q 431 204 420 196 Q 410 188 387 192 L 382 263 Z M 429 286 381 290 375 358 424 353 Q 428 310 429 286 Z M 422 381 374 385 366 491 332 498 325 390 278 394 278 498 244 507 190 176 275 152 276 187 Q 294 181 311 177 L 307 124 L 188 138 L 183 112 L 305 98 L 300 15 L 400 0 L 394 87 L 469 79 Q 469 70 476 64 Q 496 57 492 58 Q 500 59 506 65 Q 512 72 511 81 Q 510 100 481 104 L 393 114 L 389 162 Q 445 154 468 168 Q 496 184 498 234 Q 499 379 486 503 L 408 484 Q 417 432 422 381 Z M 323 363 319 296 276 301 277 368 Z M 317 270 313 207 Q 288 214 276 217 L 276 274 Z M 117 224 Q 119 179 119 122 Q 129 90 110 103 Q 103 100 89 108 Q 82 113 74 119 L 71 229 Z M 115 251 71 255 68 377 104 374 Q 112 308 115 251 Z M 101 401 68 404 67 447 31 456 0 82 75 59 75 82 Q 94 79 85 76 Q 119 56 144 65 Q 172 77 173 125 Q 178 282 159 444 L 95 436 Q 97 427 101 401 Z" fill="black" />
  </g>
  <g class="defect" id="01">
    <path d="M 476 64 Q 496 57 492 58" fill="none" stroke="red" stroke-width="3" />
  </g>
  <g class="defect" id="02">
    <path d="M 75 82 Q 94 79 85 76" fill="none" stroke="red" stroke-width="3" />
  </g>
  <g class="defect" id="03">
    <path d="M 119 122 Q 129 90 110 103" fill="none" stroke="red" stroke-width="3" />
  </g>
</svg>