<svg xmlns="http://www.w3.org/2000/svg" width="512" height="512" viewBox="0 0 512 512">
  <g class="glyph">
    <path d="M 18 198 70 213 32 410 0 399 Z M 171 181 206 348 158 374 144 191 Z M 412 397 364 437 330 353 279 448 248 430 310 306 302 287 277 136 308 121 332 256 350 93 410 116 364 287 358 299 412 385 Q 408 239 417 83 Q 419 55 409 46 Q 399 37 373 42 Q 317 52 274 77 L 262 372 L 208 504 L 173 493 L 215 363 L 201 26 L 277 15 L 275 46 Q 318 26 358 16 Q 425 0 458 20 Q 511 56 487 104 Q 466 288 463 466 Q 462 475 467 477 Q 472 479 479 471 Q 470 463 474 451 Q 478 443 488 441 Q 497 439 503 446 Q 512 456 506 471 Q 496 490 476 500 Q 451 511 433 499 Q 399 489 415 458 Q 413 438 412 397 Z M 136 128 150 127 Q 150 118 157 112 Q 164 105 173 105 Q 183 105 190 112 Q 197 118 197 128 Q 197 139 189 145 Q 182 150 171 152 L 135 155 L 127 498 L 92 504 L 68 163 L 9 170 L 5 143 L 66 136 L 58 29 L 139 15 Z" fill="black" />
  </g>
  <g class="defect" id="01">
    <path d="M 458 20 Q 511 56 487 104" fill="none" stroke="red" stroke-width="3" />
  </g>
  <g class="defect" id="02">
    <path d="M 433 499 Q 399 489 415 458" fill="none" stroke="red" stroke-width="3" />
  </g>
</svg>