<svg xmlns="http://www.w3.org/2000/svg" width="512" height="512" viewBox="0 0 512 512">
  <g class="glyph">
    <path d="M 144 370 204 430 22 497 0 469 Z M 341 358 512 402 465 477 320 386 Z M 337 156 433 166 381 219 335 233 494 251 429 297 246 261 35 328 9 300 165 245 94 231 136 170 15 179 12 153 155 142 190 91 297 98 249 136 449 121 Q 449 101 465 94 Q 477 90 487 96 Q 508 103 500 114 Q 502 129 492 138 Q 482 145 468 146 Z M 329 156 213 165 152 213 230 221 320 190 Z M 301 322 455 312 Q 454 299 462 291 Q 470 282 482 283 Q 492 283 498 289 Q 489 295 506 305 Q 507 318 499 327 Q 490 335 476 337 L 297 349 L 276 500 L 237 503 L 215 355 L 11 369 L 7 343 L 211 329 L 205 292 L 307 284 Z M 292 40 Q 356 31 414 30 Q 437 30 447 30 Q 466 31 477 36 Q 496 44 499 60 Q 501 68 493 85 L 391 90 Q 402 83 410 74 Q 402 67 413 62 Q 410 57 399 57 Q 271 60 106 102 L 103 124 L 66 135 L 0 75 L 111 46 L 108 72 Q 172 58 233 48 L 190 18 L 295 0 Z" fill="black" />
  </g>
  <g class="defect" id="01">
    <path d="M 498 289 Q 489 295 506 305" fill="none" stroke="red" stroke-width="3" />
  </g>
  <g class="defect" id="02">
    <path d="M 487 96 Q 508 103 500 114" fill="none" stroke="red" stroke-width="3" />
  </g>
  <g class="defect" id="03">
    <path d="M 410 74 Q 402 67 413 62" fill="none" stroke="red" stroke-width="3" />
  </g>
</svg>