<svg xmlns="http://www.w3.org/2000/svg" width="512" height="512" viewBox="0 0 512 512">
  <g class="glyph">
    <path d="M 300 393 314 416 225 489 188 425 Z M 27 95 58 239 9 265 0 107 Z M 151 83 205 100 166 250 136 240 Z M 407 385 504 409 464 471 390 411 Z M 406 316 449 352 400 377 380 349 Z M 431 275 512 306 475 360 381 281 319 287 219 380 192 358 247 294 182 301 177 277 283 266 272 234 197 243 193 218 265 210 256 183 339 172 332 202 361 199 356 172 439 161 429 191 452 188 Q 452 180 458 174 Q 464 168 471 168 Q 489 170 492 188 Q 493 208 471 211 L 420 217 L 408 254 L 464 248 Q 462 238 469 230 Q 455 238 486 222 Q 495 222 502 229 Q 509 236 509 246 Q 508 268 483 270 Z M 395 119 Q 404 86 407 63 Q 408 46 400 39 Q 393 32 376 33 Q 351 35 273 58 V 79 L 346 72 Q 345 62 351 55 Q 357 48 366 48 Q 375 48 381 55 Q 386 61 386 70 Q 385 89 366 91 L 273 102 V 133 Z M 388 143 273 157 V 170 L 238 180 L 190 32 L 273 7 V 33 Q 314 18 371 8 Q 419 0 445 15 Q 473 32 473 70 Q 475 109 462 160 L 383 157 Q 386 148 388 143 Z M 372 257 366 224 327 228 320 262 Z M 332 347 305 388 270 349 291 326 331 336 Q 331 329 328 305 L 369 296 Q 397 399 370 501 L 297 479 Q 335 413 332 347 Z M 113 317 141 304 206 395 140 429 110 323 34 500 1 488 69 282 54 24 133 11 122 294 Z" fill="black" />
  </g>
  <g class="defect" id="01">
    <path d="M 376 33 Q 351 35 273 58" fill="none" stroke="red" stroke-width="3" />
  </g>
  <g class="defect" id="02">
    <path d="M 469 230 Q 455 238 486 222" fill="none" stroke="red" stroke-width="3" />
  </g>
</svg>