<svg xmlns="http://www.w3.org/2000/svg" width="512" height="512" viewBox="0 0 512 512">
  <g class="glyph">
    <path d="M 336 493 315 473 392 336 385 182 446 173 431 348 Z M 438 362 512 428 471 492 418 388 Z M 204 360 237 353 Q 258 426 246 493 L 171 473 Q 208 430 204 360 Z M 109 460 146 366 193 398 130 481 Z M 273 358 334 413 291 470 254 383 Z M 0 168 17 137 125 179 79 262 Z M 11 32 29 1 109 64 80 139 Z M 55 482 2 412 99 268 127 289 Z M 398 50 457 63 410 120 383 116 379 52 315 59 312 32 458 19 Q 461 2 479 0 Q 498 1 501 19 Q 500 39 479 42 Z M 372 144 Q 404 126 437 119 Q 468 112 483 125 Q 511 141 500 193 Q 501 268 496 352 L 446 339 Q 458 270 462 183 Q 463 159 455 150 Q 447 142 430 146 Q 402 152 372 172 L 370 353 L 345 364 L 318 137 L 372 115 Z M 245 313 Q 248 304 249 291 Q 251 275 247 270 Q 243 264 232 267 Q 208 272 191 280 L 191 317 Z M 242 125 Q 250 100 250 76 Q 251 56 246 47 Q 240 36 224 39 Q 201 42 176 55 V 85 L 202 83 Q 201 75 207 69 Q 212 63 220 63 Q 228 63 234 69 Q 240 75 241 82 Q 240 99 220 103 L 175 106 V 131 Z M 241 200 280 197 Q 285 182 299 181 Q 318 184 319 200 Q 319 208 313 214 Q 308 219 299 220 L 120 237 L 117 211 L 202 203 L 167 178 L 249 165 Z M 237 336 192 339 V 350 L 163 360 L 126 261 L 190 239 V 256 Q 217 245 248 240 Q 278 234 291 249 Q 304 264 302 296 Q 300 325 294 352 L 233 343 Q 235 339 237 336 Z M 234 148 174 154 V 171 L 147 181 L 110 37 L 176 12 V 31 Q 213 13 245 10 Q 272 6 287 24 Q 302 40 303 75 Q 305 121 292 164 L 229 158 Q 232 153 234 148 Z" fill="black" />
  </g>
  <g class="defect" id="01">
    <path d="M 483 125 Q 511 141 500 193" fill="none" stroke="red" stroke-width="3" />
  </g>
</svg>