<svg xmlns="http://www.w3.org/2000/svg" width="512" height="512" viewBox="0 0 512 512">
  <g class="glyph">
    <path d="M 131 237 152 74 204 91 160 246 Z M 8 262 0 104 25 91 56 236 Z M 416 156 512 207 487 234 373 191 Q 308 239 223 266 L 181 212 Q 262 193 308 167 L 255 147 L 302 96 L 361 127 Q 352 105 391 99 Q 408 82 405 71 Q 402 59 373 63 Q 329 70 284 90 L 235 152 L 204 133 L 250 0 L 342 16 L 315 51 Q 348 41 378 36 Q 438 28 459 56 Q 470 70 465 90 Q 459 112 437 136 Q 426 148 416 156 Z M 399 270 442 265 Q 442 255 449 249 Q 455 242 466 242 Q 476 242 483 249 Q 490 257 490 266 Q 490 275 483 282 Q 476 288 466 289 L 396 296 L 392 330 L 423 327 Q 425 305 448 303 Q 458 303 466 310 Q 472 316 472 326 Q 472 336 465 343 Q 444 349 447 351 L 389 356 L 385 392 L 451 386 Q 451 376 458 370 Q 466 363 475 363 Q 486 363 493 370 Q 500 377 500 387 Q 500 396 493 403 Q 485 409 475 411 L 382 419 L 373 500 L 336 504 L 328 424 L 221 433 L 216 408 L 326 398 L 323 362 L 244 370 L 238 344 L 321 336 L 318 304 L 219 314 L 214 288 L 315 278 L 311 231 L 404 219 Z M 105 332 134 318 222 450 156 484 103 336 32 505 1 492 67 285 48 25 130 13 119 297 Z" fill="black" />
  </g>
  <g class="defect" id="01">
    <path d="M 465 343 Q 444 349 447 351" fill="none" stroke="red" stroke-width="3" />
  </g>
  <g class="defect" id="02">
    <path d="M 361 127 Q 352 105 391 99" fill="none" stroke="red" stroke-width="3" />
  </g>
</svg>