<svg xmlns="http://www.w3.org/2000/svg" width="512" height="512" viewBox="0 0 512 512">
  <g class="glyph">
    <path d="M 177 58 Q 176 78 149 82 L 5 100 L 0 74 L 130 58 Q 130 47 137 40 Q 144 32 154 33 Q 164 34 171 41 Q 177 48 177 58 Z M 421 322 478 262 505 340 419 360 Q 416 413 416 440 Q 417 455 426 462 Q 434 468 443 466 Q 458 462 469 445 Q 450 432 458 411 Q 472 389 495 400 Q 512 411 505 434 Q 497 458 477 475 Q 457 490 434 492 Q 411 495 393 484 Q 373 472 366 444 Q 347 367 342 258 L 431 239 Q 425 281 421 322 Z M 386 172 Q 385 142 400 86 Q 402 58 391 47 Q 379 35 353 41 Q 315 48 274 69 L 276 107 L 334 101 Q 333 91 340 84 Q 347 77 357 77 Q 366 77 373 84 Q 379 91 379 101 Q 378 120 352 124 L 277 132 L 279 184 Z M 379 198 280 209 282 239 249 249 181 40 271 11 273 41 Q 313 21 358 13 Q 422 0 455 25 Q 481 46 477 100 Q 474 167 458 230 L 370 227 Q 373 218 379 198 Z M 276 342 291 341 Q 290 331 297 323 Q 304 316 314 317 Q 332 318 335 336 Q 338 361 311 363 L 274 367 Q 271 412 273 454 Q 274 467 281 472 Q 286 476 295 472 Q 308 468 315 453 Q 300 446 300 430 Q 302 410 327 406 Q 341 405 349 417 Q 367 429 351 442 Q 342 467 324 482 Q 307 497 286 500 Q 268 504 252 496 Q 234 487 227 468 Q 217 379 197 276 L 285 260 Q 280 292 276 342 Z M 131 222 157 219 Q 156 208 164 200 Q 172 193 183 194 Q 192 195 198 203 Q 203 209 203 219 Q 203 240 175 243 L 130 248 L 124 387 L 188 375 L 197 407 L 28 497 L 1 411 L 85 395 L 67 256 L 16 261 L 11 235 L 63 229 L 48 116 L 137 104 Z" fill="black" />
  </g>
  <g class="defect" id="01">
    <path d="M 349 417 Q 367 429 351 442" fill="none" stroke="red" stroke-width="3" />
  </g>
  <g class="defect" id="02">
    <path d="M 386 172 Q 385 142 400 86" fill="none" stroke="red" stroke-width="3" />
  </g>
  <g class="defect" id="03">
    <path d="M 227 468 Q 217 379 197 276" fill="none" stroke="red" stroke-width="3" />
  </g>
</svg>