<svg xmlns="http://www.w3.org/2000/svg" width="512" height="512" viewBox="0 0 512 512">
  <g class="glyph">
    <path d="M 426 168 460 165 Q 444 155 466 148 Q 473 142 483 142 Q 492 142 499 148 Q 505 154 505 164 Q 504 175 495 182 Q 486 187 474 188 L 423 193 L 414 270 L 453 267 Q 452 257 459 250 Q 466 243 475 243 Q 484 243 491 250 Q 477 273 497 266 Q 496 277 487 283 Q 479 289 466 290 L 411 294 L 402 377 L 467 372 Q 466 363 473 355 Q 480 348 490 348 Q 482 360 505 354 Q 512 361 511 370 Q 511 381 501 388 Q 493 393 481 395 L 399 400 L 388 494 L 353 501 L 344 120 L 433 106 Z M 328 66 448 55 Q 447 44 455 35 Q 463 27 474 27 Q 485 27 492 34 Q 500 42 500 52 Q 497 76 473 79 L 164 106 L 141 392 L 72 500 L 39 485 L 88 385 L 84 299 L 31 362 L 0 297 L 81 247 L 80 203 L 28 232 L 2 125 L 28 111 L 79 182 L 73 58 L 169 44 L 166 80 L 279 70 L 223 22 L 337 0 Z M 251 415 163 421 158 396 248 391 240 314 172 318 167 293 237 288 229 216 170 221 166 196 226 191 220 135 310 121 297 494 261 500 Z" fill="black" />
  </g>
  <g class="defect" id="01">
    <path d="M 491 250 Q 477 273 497 266" fill="none" stroke="red" stroke-width="3" />
  </g>
  <g class="defect" id="02">
    <path d="M 490 348 Q 482 360 505 354" fill="none" stroke="red" stroke-width="3" />
  </g>
  <g class="defect" id="03">
    <path d="M 460 165 Q 444 155 466 148" fill="none" stroke="red" stroke-width="3" />
  </g>
</svg>