<svg xmlns="http://www.w3.org/2000/svg" width="512" height="512" viewBox="0 0 512 512">
  <g class="glyph">
    <path d="M 453 400 506 476 480 499 425 439 Q 403 468 370 500 L 317 467 Q 361 432 388 399 L 338 344 L 386 306 L 420 354 Q 433 331 441 314 Q 449 297 442 290 Q 436 283 418 287 Q 376 295 337 317 L 329 297 Q 368 274 425 262 Q 469 254 484 280 Q 497 301 483 339 Q 473 368 453 400 Z M 394 113 Q 395 103 428 98 Q 450 92 464 104 Q 479 117 472 146 Q 461 190 460 220 Q 459 227 466 229 Q 472 232 479 228 Q 471 215 479 205 Q 493 195 505 205 Q 512 219 504 233 Q 497 242 482 247 Q 459 256 441 247 Q 423 237 421 215 Q 416 181 419 144 Q 420 136 417 133 Q 413 130 407 133 Q 399 136 391 142 L 386 202 L 362 271 L 329 262 L 348 195 L 328 103 L 395 90 Z M 327 53 448 42 Q 446 31 454 22 Q 462 14 473 14 Q 484 14 491 21 Q 481 10 499 39 Q 496 63 472 66 L 145 95 L 128 391 L 72 499 L 39 484 L 84 384 L 80 302 L 31 361 L 0 296 L 78 248 L 76 204 L 27 231 L 2 124 L 28 110 L 75 176 L 70 57 L 147 43 L 146 70 L 277 57 L 223 22 L 336 0 Z M 270 248 237 274 215 209 214 283 270 278 Z M 270 248 Q 269 227 268 205 Q 267 187 257 180 Q 249 174 235 179 Q 223 184 216 189 L 215 207 L 236 192 Z M 269 305 214 308 213 377 168 499 135 487 172 367 167 312 146 313 142 288 165 286 155 163 213 147 199 144 197 98 280 109 225 150 216 148 V 162 Q 214 158 236 153 Q 276 137 297 156 Q 315 173 316 208 Q 323 346 297 499 L 245 479 Q 255 432 260 398 L 233 418 L 215 334 L 237 318 L 262 378 Q 266 347 269 305 Z" fill="black" />
  </g>
  <g class="defect" id="01">
    <path d="M 491 21 Q 481 10 499 39" fill="none" stroke="red" stroke-width="3" />
  </g>
  <g class="defect" id="02">
    <path d="M 216 162 Q 214 158 236 153" fill="none" stroke="red" stroke-width="3" />
  </g>
  <g class="defect" id="03">
    <path d="M 394 113 Q 395 103 428 98" fill="none" stroke="red" stroke-width="3" />
  </g>
</svg>