<svg xmlns="http://www.w3.org/2000/svg" width="512" height="512" viewBox="0 0 512 512">
  <g class="glyph">
    <path d="M 303 302 395 288 380 397 201 504 171 482 318 386 Z M 389 402 512 443 452 504 358 425 Z M 409 124 Q 415 105 417 87 Q 420 71 416 65 Q 411 59 395 60 Q 385 61 379 62 L 369 128 Z M 401 149 365 153 359 194 468 182 Q 469 173 475 168 Q 497 162 491 162 Q 499 162 505 168 Q 511 175 511 184 Q 510 203 481 207 L 197 238 L 193 213 L 320 198 L 314 159 L 269 164 L 270 187 L 233 195 L 182 64 L 266 38 L 267 56 Q 282 53 297 49 L 292 17 L 389 0 L 383 35 Q 396 33 421 32 Q 457 31 472 46 Q 487 59 485 94 Q 482 128 470 167 L 392 170 Q 397 161 401 149 Z M 311 135 301 75 Q 286 78 268 83 L 269 140 Z M 286 261 Q 345 245 411 242 Q 456 240 473 256 Q 486 270 486 302 Q 486 336 477 386 L 401 381 Q 415 339 420 293 Q 408 291 414 274 Q 408 269 394 269 Q 347 271 285 287 L 283 396 L 249 402 L 198 267 L 286 247 Z M 123 171 V 168 Q 123 150 122 114 Q 121 95 111 92 Q 102 90 88 102 Q 81 108 73 115 V 177 Z M 122 197 73 202 V 274 L 119 269 Q 121 245 122 197 Z M 118 295 73 300 V 377 L 111 374 Q 114 348 118 295 Z M 108 401 73 404 V 445 L 38 455 L 0 70 L 73 49 V 80 Q 76 78 86 70 Q 138 27 148 55 Q 176 66 177 117 Q 184 284 167 444 L 103 437 Q 105 419 108 401 Z" fill="black" />
  </g>
  <g class="defect" id="01">
    <path d="M 420 293 Q 408 291 414 274" fill="none" stroke="red" stroke-width="3" />
  </g>
  <g class="defect" id="02">
    <path d="M 86 70 Q 138 27 148 55" fill="none" stroke="red" stroke-width="3" />
  </g>
  <g class="defect" id="03">
    <path d="M 475 168 Q 497 162 491 162" fill="none" stroke="red" stroke-width="3" />
  </g>
</svg>