<svg xmlns="http://www.w3.org/2000/svg" width="512" height="512" viewBox="0 0 512 512">
  <g class="glyph">
    <path d="M 387 348 511 447 439 512 359 372 Z M 454 169 511 241 486 267 432 214 388 219 376 311 449 304 Q 437 309 455 283 Q 463 274 475 274 Q 485 274 493 282 Q 501 290 501 301 Q 501 325 466 329 L 371 338 L 202 512 L 174 490 L 289 346 L 188 356 L 184 330 L 308 318 L 300 229 L 267 233 Q 246 269 223 300 L 170 258 Q 185 388 162 463 L 101 448 Q 114 422 105 411 L 68 415 V 456 L 34 466 L 0 73 L 68 51 V 86 Q 79 76 85 71 Q 116 50 137 57 Q 165 68 167 120 Q 170 194 170 254 Q 204 219 233 174 L 173 151 L 209 87 L 253 136 Q 267 106 273 82 Q 276 66 273 61 Q 269 54 252 58 Q 224 64 184 87 L 179 60 Q 211 40 249 31 Q 289 19 310 38 Q 335 59 321 107 Q 307 156 282 204 L 407 190 L 374 159 L 326 26 L 399 0 L 408 58 L 446 9 L 495 54 L 416 103 L 421 129 L 429 139 L 467 88 L 509 136 Z M 116 202 68 207 68 282 115 277 Q 116 227 116 202 Z M 116 176 Q 116 156 115 115 Q 115 99 109 96 Q 103 92 90 101 Q 78 111 68 122 V 182 Z M 114 302 68 308 V 388 L 108 384 Q 113 330 114 302 Z" fill="black" />
  </g>
  <g class="defect" id="01">
    <path d="M 449 304 Q 437 309 455 283" fill="none" stroke="red" stroke-width="3" />
  </g>
  <g class="defect" id="02">
    <path d="M 101 448 Q 114 422 105 411" fill="none" stroke="red" stroke-width="3" />
  </g>
  <g class="defect" id="03">
    <path d="M 170 258 Q 185 388 162 463" fill="none" stroke="red" stroke-width="3" />
  </g>
</svg>