<svg xmlns="http://www.w3.org/2000/svg" width="512" height="512" viewBox="0 0 512 512">
  <g class="glyph">
    <path d="M 404 429 Q 413 400 418 366 Q 421 344 406 334 Q 391 323 363 335 Q 338 344 316 359 V 437 Z M 398 233 464 226 Q 463 215 471 208 Q 479 201 490 202 Q 508 205 511 223 Q 512 237 503 244 Q 495 250 482 251 L 216 279 L 211 253 L 289 245 L 233 155 L 259 132 L 352 183 L 292 245 L 393 234 L 365 219 L 392 117 L 476 150 Z M 396 457 316 464 V 493 L 281 502 L 224 320 L 317 295 V 326 Q 352 303 386 297 Q 445 286 473 317 Q 495 342 491 387 Q 486 447 470 496 L 386 482 Q 393 466 396 457 Z M 343 88 438 78 Q 438 61 452 55 Q 444 62 474 57 Q 483 64 484 76 Q 487 99 456 103 L 214 130 L 210 103 L 336 89 L 260 35 L 365 0 L 369 74 Z M 134 405 Q 144 337 143 268 Q 142 252 135 248 Q 128 244 115 253 Q 108 259 103 263 L 98 409 Z M 130 433 97 436 96 475 61 485 35 260 21 278 0 248 69 89 11 96 6 70 170 49 Q 170 39 178 31 Q 187 23 198 25 Q 221 30 216 55 Q 229 62 203 68 Q 209 87 184 74 L 76 88 L 154 115 L 68 220 L 105 205 L 104 229 Q 115 220 127 212 Q 161 193 181 210 Q 198 223 200 266 Q 202 367 192 476 L 125 465 Q 128 449 130 433 Z" fill="black" />
  </g>
  <g class="defect" id="01">
    <path d="M 203 68 Q 209 87 184 74" fill="none" stroke="red" stroke-width="3" />
  </g>
  <g class="defect" id="02">
    <path d="M 452 55 Q 444 62 474 57" fill="none" stroke="red" stroke-width="3" />
  </g>
  <g class="defect" id="03">
    <path d="M 216 55 Q 229 62 203 68" fill="none" stroke="red" stroke-width="3" />
  </g>
</svg>