<svg xmlns="http://www.w3.org/2000/svg" width="512" height="512" viewBox="0 0 512 512">
  <g class="glyph">
    <path d="M 15 251 75 266 34 437 0 426 Z M 193 236 232 351 174 379 162 244 Z M 167 12 207 83 16 120 5 86 Z M 300 0 396 18 326 73 296 60 Z M 432 155 Q 420 139 433 133 Q 433 84 383 91 Q 333 97 287 126 V 172 L 323 168 L 321 128 L 401 106 L 392 160 Z M 429 181 388 185 379 243 418 239 Q 425 207 429 181 Z M 423 357 463 353 Q 463 342 471 334 Q 479 326 490 327 Q 500 328 506 336 Q 512 343 511 353 Q 510 362 501 369 Q 493 374 482 376 L 419 381 L 403 500 L 370 505 L 353 387 L 215 400 L 211 376 L 350 363 L 343 309 L 430 300 Z M 410 266 373 270 283 366 253 352 313 276 287 279 V 298 L 255 308 L 211 94 L 287 71 V 97 Q 318 71 384 63 Q 433 55 463 75 Q 492 97 492 147 Q 490 219 468 296 L 403 285 Q 406 279 410 266 Z M 328 249 325 193 287 197 V 253 Z M 151 182 174 180 Q 174 170 181 164 Q 187 157 197 157 Q 207 157 214 164 Q 220 170 220 180 Q 220 190 213 197 Q 206 203 195 204 L 149 209 L 133 498 L 95 505 L 72 217 L 8 224 L 3 198 L 70 190 L 65 126 L 155 109 Z" fill="black" />
  </g>
  <g class="defect" id="01">
    <path d="M 287 97 Q 318 71 384 63" fill="none" stroke="red" stroke-width="3" />
  </g>
  <g class="defect" id="02">
    <path d="M 432 155 Q 420 139 433 133" fill="none" stroke="red" stroke-width="3" />
  </g>
</svg>