<svg xmlns="http://www.w3.org/2000/svg" width="512" height="512" viewBox="0 0 512 512">
  <g class="glyph">
    <path d="M 299 0 394 19 320 73 288 60 Z M 429 155 Q 431 143 431 133 Q 432 83 378 90 Q 329 95 280 127 L 281 172 L 316 168 L 314 127 L 398 106 L 389 160 Z M 426 180 384 185 374 241 413 237 Q 435 223 426 180 Z M 416 356 465 352 Q 464 341 472 333 Q 480 325 491 326 Q 512 331 512 352 Q 511 362 502 368 Q 495 374 483 375 L 412 382 L 395 497 L 362 503 L 345 388 L 213 400 L 209 376 L 341 363 L 333 308 L 424 298 Z M 406 263 369 268 280 364 249 351 308 275 283 277 283 297 250 306 201 89 279 66 280 96 Q 322 72 381 63 Q 434 54 463 76 Q 492 96 492 149 Q 492 224 467 294 L 399 284 Q 401 278 406 263 Z M 323 247 319 193 281 197 283 251 Z M 137 405 Q 133 337 145 269 Q 145 251 138 248 Q 130 244 116 254 Q 107 261 104 263 L 100 408 Z M 133 432 99 436 98 475 63 485 36 259 21 277 0 248 69 87 11 95 6 69 167 48 Q 166 37 175 29 Q 184 21 195 24 Q 218 29 213 54 Q 210 61 200 67 Q 192 72 181 73 L 76 86 L 156 113 L 68 219 L 106 204 L 105 229 Q 116 219 131 211 Q 176 192 187 211 Q 202 224 203 268 Q 205 367 196 476 L 127 465 Q 130 449 133 432 Z" fill="black" />
  </g>
  <g class="defect" id="01">
    <path d="M 137 405 Q 133 337 145 269" fill="none" stroke="red" stroke-width="3" />
  </g>
  <g class="defect" id="02">
    <path d="M 131 211 Q 176 192 187 211" fill="none" stroke="red" stroke-width="3" />
  </g>
  <g class="defect" id="03">
    <path d="M 413 237 Q 435 223 426 180" fill="none" stroke="red" stroke-width="3" />
  </g>
</svg>