<svg xmlns="http://www.w3.org/2000/svg" width="512" height="512" viewBox="0 0 512 512">
  <g class="glyph">
    <path d="M 119 388 225 381 200 458 56 508 29 488 138 440 Z M 291 376 398 369 362 500 325 506 Z M 511 320 Q 512 332 503 340 Q 496 348 482 348 L 6 381 L 2 356 L 461 324 Q 460 312 468 303 Q 476 295 488 296 Q 509 299 511 320 Z M 386 61 498 78 440 127 359 85 381 62 347 65 284 128 249 109 306 0 397 15 375 37 463 30 Q 464 20 470 14 Q 477 7 486 7 Q 497 7 504 14 Q 511 20 511 30 Q 511 39 503 46 Q 496 52 486 53 Z M 385 204 Q 389 180 379 171 Q 369 161 337 159 Q 247 157 148 191 L 148 223 L 217 217 L 208 189 L 307 173 L 297 211 Z M 378 230 290 238 278 278 361 272 Q 372 251 378 230 Z M 346 299 146 313 146 328 110 338 42 169 150 139 149 162 Q 257 129 355 132 Q 389 133 410 139 Q 434 145 447 158 Q 479 168 465 224 Q 462 261 444 311 L 337 315 Q 342 308 346 299 Z M 236 281 224 243 147 249 147 287 Z M 147 83 246 94 188 139 115 105 135 84 101 88 34 161 0 142 65 13 154 28 126 59 210 51 Q 210 43 217 36 Q 224 29 233 29 Q 243 29 250 36 Q 257 43 257 52 Q 257 62 250 68 Q 253 74 233 75 Z" fill="black" />
  </g>
  <g class="defect" id="01">
    <path d="M 447 158 Q 479 168 465 224" fill="none" stroke="red" stroke-width="3" />
  </g>
  <g class="defect" id="02">
    <path d="M 250 68 Q 253 74 233 75" fill="none" stroke="red" stroke-width="3" />
  </g>
</svg>