<svg xmlns="http://www.w3.org/2000/svg" width="512" height="512" viewBox="0 0 512 512">
  <g class="glyph">
    <path d="M 216 378 226 410 28 498 0 411 Z M 394 104 464 96 Q 464 87 471 79 Q 465 72 488 72 Q 498 72 505 79 Q 512 85 512 96 Q 512 105 504 112 Q 497 118 486 120 L 325 138 L 314 361 L 239 507 L 207 492 L 256 350 L 227 98 L 327 87 L 326 112 L 391 105 L 313 39 L 415 0 L 427 88 Z M 84 218 Q 115 162 158 103 L 231 149 Q 144 238 86 320 Q 80 327 83 331 Q 86 335 96 334 Q 138 327 175 310 Q 171 300 177 289 Q 182 280 193 277 Q 203 276 211 281 Q 219 287 220 297 Q 222 316 207 324 Q 154 351 87 364 Q 52 371 40 358 Q 32 349 31 335 Q 30 320 39 302 Q 53 275 67 248 Q 63 249 59 250 Q 28 255 18 243 Q 3 230 10 196 Q 25 116 72 12 L 157 45 Q 95 120 56 207 Q 52 216 56 220 Q 59 223 68 222 Q 75 221 84 218 Z" fill="black" />
  </g>
  <g class="defect" id="01">
    <path d="M 471 79 Q 465 72 488 72" fill="none" stroke="red" stroke-width="3" />
  </g>
</svg>