<svg xmlns="http://www.w3.org/2000/svg" width="512" height="512" viewBox="0 0 512 512">
  <g class="glyph">
    <path d="M 242 357 251 389 30 481 0 396 Z M 497 38 Q 498 49 490 57 Q 481 67 464 69 L 229 96 L 224 69 L 445 43 Q 444 31 451 22 Q 477 15 469 14 Q 480 13 488 19 Q 496 26 497 38 Z M 376 420 460 413 Q 459 401 465 392 Q 492 399 484 383 Q 496 383 503 391 Q 512 399 512 410 Q 512 423 501 431 Q 493 436 478 438 L 199 464 L 194 436 L 338 423 L 300 107 L 414 94 Z M 92 204 Q 124 154 173 93 L 251 134 Q 163 215 91 305 Q 85 313 89 317 Q 92 321 102 319 Q 147 309 186 288 Q 179 261 200 255 Q 224 250 231 270 Q 236 287 217 300 Q 169 331 91 349 Q 57 357 43 343 Q 34 334 33 320 Q 31 304 41 287 Q 61 252 73 234 Q 70 235 62 236 Q 31 241 19 229 Q 16 216 13 182 Q 30 99 78 0 L 168 32 Q 94 116 60 193 Q 56 201 60 205 Q 63 209 72 207 Q 78 206 92 204 Z" fill="black" />
  </g>
  <g class="defect" id="01">
    <path d="M 19 229 Q 16 216 13 182" fill="none" stroke="red" stroke-width="3" />
  </g>
  <g class="defect" id="02">
    <path d="M 465 392 Q 492 399 484 383" fill="none" stroke="red" stroke-width="3" />
  </g>
  <g class="defect" id="03">
    <path d="M 451 22 Q 477 15 469 14" fill="none" stroke="red" stroke-width="3" />
  </g>
</svg>