<svg xmlns="http://www.w3.org/2000/svg" width="512" height="512" viewBox="0 0 512 512">
  <g class="glyph">
    <path d="M 206 367 310 353 291 445 44 509 16 482 216 418 Z M 313 433 502 448 436 509 292 462 Z M 379 62 499 83 442 134 355 86 377 62 343 65 293 111 258 92 307 0 399 15 375 36 464 29 Q 465 20 472 13 Q 478 6 487 6 Q 498 6 505 13 Q 512 19 512 30 Q 512 39 505 46 Q 498 51 487 52 Z M 367 205 Q 354 215 371 190 Q 376 162 348 164 Q 322 165 296 167 L 287 211 Z M 357 232 282 238 276 268 457 255 Q 457 246 464 239 Q 470 232 479 231 Q 489 231 496 238 Q 503 245 504 255 Q 503 276 481 278 L 15 311 L 11 286 L 233 271 L 226 242 L 140 248 L 140 261 L 104 270 L 47 173 L 144 146 L 143 164 Q 165 159 205 152 L 199 127 L 308 110 L 302 141 Q 330 139 385 135 Q 421 133 441 150 Q 457 164 453 197 Q 452 218 440 249 L 350 246 Q 353 239 357 232 Z M 220 216 211 177 Q 179 182 142 190 L 141 222 Z M 148 363 148 421 111 430 43 342 147 313 V 336 Q 242 312 378 307 Q 427 306 444 322 Q 461 336 457 372 Q 453 400 444 425 L 347 413 Q 364 387 371 364 Q 376 350 369 343 Q 362 335 338 335 Q 231 338 148 363 Z M 137 84 241 92 178 139 110 107 132 84 104 87 34 167 0 148 65 13 155 28 128 59 210 51 Q 210 42 217 35 Q 208 46 234 29 Q 244 29 251 35 Q 258 42 258 52 Q 258 62 251 68 Q 244 74 233 75 Z" fill="black" />
  </g>
  <g class="defect" id="01">
    <path d="M 217 35 Q 208 46 234 29" fill="none" stroke="red" stroke-width="3" />
  </g>
  <g class="defect" id="02">
    <path d="M 367 205 Q 354 215 371 190" fill="none" stroke="red" stroke-width="3" />
  </g>
</svg>