<svg xmlns="http://www.w3.org/2000/svg" width="512" height="512" viewBox="0 0 512 512">
  <g class="glyph">
    <path d="M 248 41 Q 248 61 225 63 L 5 90 L 0 63 L 205 38 Q 206 30 212 24 Q 219 19 227 19 Q 221 32 242 25 Q 248 32 248 41 Z M 457 166 Q 459 122 458 66 Q 457 48 451 43 Q 445 36 431 40 Q 414 45 391 62 L 383 38 Q 408 18 437 10 Q 470 0 487 11 Q 507 24 507 65 Q 511 168 505 290 Q 496 423 462 511 L 395 476 Q 438 401 447 311 Q 455 235 457 169 L 421 222 L 391 99 L 410 78 Z M 372 349 424 234 445 255 405 402 370 367 Q 357 454 335 511 L 268 476 Q 313 402 320 311 Q 328 238 330 180 L 294 233 L 259 111 L 278 89 L 330 178 Q 332 120 331 77 Q 330 61 324 54 Q 298 37 304 53 Q 285 58 263 76 L 255 51 Q 283 31 311 22 Q 343 12 360 23 Q 379 36 381 76 Q 385 193 378 290 Q 376 322 372 349 Z M 256 340 297 245 319 266 280 413 254 386 Q 250 449 241 511 L 177 491 Q 200 414 203 311 Q 203 288 195 281 Q 188 275 165 277 Q 119 282 75 301 L 80 504 L 42 512 L 9 263 L 73 245 L 74 272 Q 115 256 168 248 Q 218 240 237 257 Q 257 275 256 322 Q 256 331 256 340 Z M 171 179 Q 177 163 179 151 Q 182 135 178 129 Q 174 124 158 126 Q 125 129 95 140 L 94 188 Z M 162 397 150 494 118 500 107 402 88 403 84 381 144 376 129 369 136 347 102 369 86 313 100 303 138 341 152 295 192 311 150 375 157 375 Q 158 366 163 361 Q 168 357 175 357 Q 184 357 189 362 Q 195 368 195 376 Q 195 394 174 396 Z M 158 207 92 215 92 233 54 244 13 117 97 94 96 114 Q 121 104 154 99 Q 198 90 220 100 Q 248 112 243 159 Q 239 198 225 234 L 148 225 Q 153 216 158 207 Z" fill="black" />
  </g>
  <g class="defect" id="01">
    <path d="M 227 19 Q 221 32 242 25" fill="none" stroke="red" stroke-width="3" />
  </g>
  <g class="defect" id="02">
    <path d="M 324 54 Q 298 37 304 53" fill="none" stroke="red" stroke-width="3" />
  </g>
</svg>