<svg xmlns="http://www.w3.org/2000/svg" width="512" height="512" viewBox="0 0 512 512">
  <g class="glyph">
    <path d="M 178 377 186 409 27 498 0 411 Z M 485 191 Q 491 196 497 203 Q 512 225 509 269 Q 505 324 490 365 Q 474 409 439 452 L 409 403 L 406 501 L 373 507 L 346 22 L 424 0 L 423 26 Q 434 19 443 15 Q 470 1 485 11 Q 503 25 503 57 Q 503 131 485 191 Z M 436 188 Q 459 136 465 64 Q 466 53 461 49 Q 456 45 446 50 Q 434 56 422 66 L 417 197 Q 426 192 435 189 Z M 416 234 410 384 Q 436 357 449 326 Q 460 298 466 253 Q 469 232 460 225 Q 432 217 432 225 Q 426 227 416 234 Z M 288 90 298 89 Q 312 61 319 71 Q 328 71 334 77 Q 341 84 341 92 Q 355 131 319 114 L 287 118 L 286 204 L 298 203 Q 301 186 320 185 Q 329 185 335 191 Q 341 198 341 206 Q 341 215 334 221 Q 328 227 319 228 L 285 231 L 283 321 L 307 318 Q 308 310 314 305 Q 320 300 328 300 Q 337 300 344 306 Q 350 313 350 322 Q 350 330 343 337 Q 337 343 328 344 L 282 348 L 224 507 L 188 498 L 229 353 L 180 358 L 176 332 L 230 326 L 223 238 L 185 242 L 180 216 L 220 211 L 213 127 L 172 132 L 167 105 L 211 100 L 204 18 L 290 4 Z M 74 219 Q 98 169 129 117 L 193 160 Q 128 236 82 318 Q 77 327 80 331 Q 82 335 92 333 Q 113 327 128 317 Q 123 306 129 296 Q 135 286 145 285 Q 156 282 164 288 Q 172 294 173 304 Q 175 318 159 330 Q 131 353 90 362 Q 50 371 36 353 Q 22 336 37 301 Q 49 274 60 248 Q 58 249 56 249 Q 27 254 17 243 Q 5 228 10 195 Q 17 152 31 109 Q 42 80 69 17 L 143 50 Q 82 126 54 206 Q 50 215 53 219 Q 56 222 65 220 Q 69 220 74 219 Z" fill="black" />
  </g>
  <g class="defect" id="01">
    <path d="M 341 92 Q 355 131 319 114" fill="none" stroke="red" stroke-width="3" />
  </g>
  <g class="defect" id="02">
    <path d="M 298 89 Q 312 61 319 71" fill="none" stroke="red" stroke-width="3" />
  </g>
  <g class="defect" id="03">
    <path d="M 460 225 Q 432 217 432 225" fill="none" stroke="red" stroke-width="3" />
  </g>
</svg>