<svg xmlns="http://www.w3.org/2000/svg" width="512" height="512" viewBox="0 0 512 512">
  <g class="glyph">
    <path d="M 289 245 311 266 272 412 232 372 Z M 375 76 Q 381 178 375 274 Q 364 424 330 511 L 261 476 Q 304 404 319 275 Q 328 193 325 77 Q 324 61 317 55 Q 310 48 296 52 Q 273 59 248 77 L 239 52 Q 272 31 303 22 Q 339 12 355 22 Q 375 35 375 76 Z M 421 233 442 254 406 401 367 362 Z M 270 89 323 179 287 233 251 111 Z M 507 65 Q 512 189 506 270 Q 497 418 460 511 L 391 476 Q 436 396 451 269 Q 461 185 457 65 Q 457 49 450 43 Q 442 36 428 40 Q 405 50 387 62 L 378 37 Q 408 17 435 10 Q 469 0 487 11 Q 507 24 507 65 Z M 408 77 455 167 417 221 387 99 Z M 214 362 Q 228 368 229 385 Q 229 394 223 401 Q 216 407 205 408 L 164 412 L 152 506 L 115 511 L 103 417 L 50 423 L 44 397 L 99 393 L 92 333 L 170 320 L 149 290 L 127 292 L 25 401 L 0 377 L 50 300 L 9 305 L 5 280 L 68 273 L 101 223 L 181 235 L 153 265 L 213 258 Q 214 236 236 234 Q 246 234 254 240 Q 261 247 261 257 Q 261 267 254 273 Q 233 298 236 281 L 202 284 L 254 312 Z M 199 362 174 326 167 386 182 385 Q 183 367 199 362 Z M 158 182 Q 170 140 172 108 Q 174 92 168 86 Q 161 80 144 82 Q 104 86 89 101 L 89 130 L 114 127 Q 114 116 121 110 Q 129 102 140 103 Q 162 107 159 130 Q 157 139 148 145 Q 140 149 127 151 L 90 156 L 91 190 Z M 153 55 H 154 Q 198 47 216 61 Q 238 75 236 116 Q 235 176 222 224 L 145 221 Q 147 215 149 209 L 91 216 V 234 L 55 245 L 9 82 L 88 57 V 74 Q 93 72 101 69 L 90 9 L 185 17 Z" fill="black" />
  </g>
  <g class="defect" id="01">
    <path d="M 144 82 Q 104 86 89 101" fill="none" stroke="red" stroke-width="3" />
  </g>
  <g class="defect" id="02">
    <path d="M 254 273 Q 233 298 236 281" fill="none" stroke="red" stroke-width="3" />
  </g>
</svg>