<svg xmlns="http://www.w3.org/2000/svg" width="512" height="512" viewBox="0 0 512 512">
  <g class="glyph">
    <path d="M 347 78 467 16 494 94 341 121 V 126 Q 326 163 356 166 Q 385 158 397 177 Q 438 176 469 159 Q 454 149 459 132 Q 462 122 472 117 Q 481 112 490 115 Q 512 119 506 150 Q 500 175 464 189 Q 423 206 373 203 Q 328 201 304 181 Q 282 163 274 124 Q 284 67 272 18 L 368 0 Q 353 41 347 78 Z M 160 169 34 234 0 156 153 128 148 98 15 111 10 85 143 71 135 24 231 9 205 217 169 222 Z M 143 248 Q 238 228 337 221 Q 399 215 426 237 Q 453 259 451 313 Q 448 403 425 507 L 331 487 Q 363 399 366 296 Q 367 267 360 259 Q 352 248 322 250 Q 227 256 142 276 L 140 327 L 280 316 Q 280 307 287 299 Q 294 292 303 292 Q 314 292 321 299 Q 328 306 328 316 Q 328 327 320 334 Q 313 340 302 340 L 139 352 L 138 399 L 280 389 Q 280 380 287 372 Q 294 365 303 365 Q 313 365 320 372 Q 328 380 328 389 Q 328 399 320 406 Q 313 413 302 413 L 136 424 L 134 497 L 99 506 L 42 248 L 144 223 Z" fill="black" />
  </g>
  <g class="defect" id="01">
    <path d="M 274 124 Q 284 67 272 18" fill="none" stroke="red" stroke-width="3" />
  </g>
  <g class="defect" id="02">
    <path d="M 341 126 Q 326 163 356 166" fill="none" stroke="red" stroke-width="3" />
  </g>
  <g class="defect" id="03">
    <path d="M 356 166 Q 385 158 397 177" fill="none" stroke="red" stroke-width="3" />
  </g>
</svg>