<svg xmlns="http://www.w3.org/2000/svg" width="512" height="512" viewBox="0 0 512 512">
  <g class="glyph">
    <path d="M 418 182 Q 415 199 395 202 L 277 215 L 273 191 L 222 257 L 190 240 L 250 116 L 205 121 L 200 95 L 264 88 L 307 0 L 399 29 L 363 76 L 440 67 Q 440 57 448 50 Q 456 42 466 43 Q 475 43 482 51 Q 504 58 487 68 Q 487 88 459 91 L 408 98 L 512 157 L 454 229 Z M 400 159 357 103 340 105 275 189 377 178 Q 376 170 383 164 Q 389 158 397 158 Q 399 158 400 159 Z M 373 275 321 334 Q 367 322 403 319 Q 454 316 474 346 Q 491 375 468 417 Q 441 465 389 502 L 299 474 Q 328 457 359 431 Q 395 401 409 379 Q 418 364 414 356 Q 409 347 391 348 Q 341 352 286 374 L 267 397 L 233 391 L 280 284 L 214 291 L 209 265 L 459 240 Q 460 232 466 226 Q 473 219 482 219 Q 490 220 496 227 Q 502 233 501 242 Q 501 262 472 264 Z M 123 184 77 190 72 283 120 278 Q 122 246 123 184 Z M 123 157 Q 122 109 121 87 Q 120 73 114 69 Q 109 65 99 70 Q 94 72 84 79 L 79 163 Z M 118 306 70 311 64 414 34 502 0 491 21 412 4 45 87 22 86 46 Q 99 38 112 32 Q 123 4 159 32 Q 181 47 184 90 Q 189 165 184 297 Q 178 445 164 502 L 89 478 Q 109 408 118 306 Z" fill="black" />
  </g>
  <g class="defect" id="01">
    <path d="M 112 32 Q 123 4 159 32" fill="none" stroke="red" stroke-width="3" />
  </g>
  <g class="defect" id="02">
    <path d="M 482 51 Q 504 58 487 68" fill="none" stroke="red" stroke-width="3" />
  </g>
</svg>