<svg xmlns="http://www.w3.org/2000/svg" width="512" height="512" viewBox="0 0 512 512">
  <g class="glyph">
    <path d="M 231 366 302 398 208 488 175 467 Z M 431 347 512 414 448 471 401 372 Z M 470 249 Q 469 269 441 273 L 231 294 L 226 268 L 428 248 Q 428 238 436 233 Q 442 227 451 227 Q 459 228 465 235 Q 471 241 470 249 Z M 433 184 Q 437 166 440 143 Q 442 126 434 121 Q 426 114 406 117 H 406 L 403 188 Z M 427 55 425 89 Q 457 87 475 97 Q 489 113 499 150 Q 497 188 485 222 L 420 222 Q 410 218 425 210 L 262 228 L 263 243 L 233 251 L 192 124 L 259 105 L 260 122 Q 264 121 274 117 L 271 75 L 191 85 L 187 59 L 457 25 Q 456 15 463 7 Q 471 0 481 1 Q 491 2 497 8 Q 504 16 503 25 Q 503 46 474 49 Z M 375 341 Q 397 427 369 500 L 278 481 Q 304 452 315 421 Q 325 391 324 346 L 195 358 L 190 333 L 463 306 Q 463 296 470 289 Q 477 282 487 282 Q 497 282 504 289 Q 510 296 510 306 Q 508 327 487 330 Z M 368 192 364 123 Q 344 127 334 128 L 331 196 Z M 363 98 361 63 337 67 335 103 Q 354 100 363 98 Z M 296 200 293 138 Q 273 144 260 149 L 261 204 Z M 119 157 Q 119 106 118 83 Q 102 82 111 69 Q 106 66 96 71 Q 86 75 77 83 L 74 162 Z M 118 185 73 190 70 282 113 278 Q 117 230 118 185 Z M 110 306 69 309 65 411 37 501 0 490 18 408 6 37 79 21 78 50 Q 91 41 111 32 Q 139 19 157 31 Q 174 41 177 77 Q 190 306 156 499 L 86 476 Q 103 393 110 306 Z" fill="black" />
  </g>
  <g class="defect" id="01">
    <path d="M 475 97 Q 489 113 499 150" fill="none" stroke="red" stroke-width="3" />
  </g>
  <g class="defect" id="02">
    <path d="M 118 83 Q 102 82 111 69" fill="none" stroke="red" stroke-width="3" />
  </g>
  <g class="defect" id="03">
    <path d="M 420 222 Q 410 218 425 210" fill="none" stroke="red" stroke-width="3" />
  </g>
</svg>