<svg xmlns="http://www.w3.org/2000/svg" width="512" height="512" viewBox="0 0 512 512">
  <g class="glyph">
    <path d="M 244 274 344 369 264 429 214 294 Z M 446 235 Q 454 287 452 340 Q 449 435 416 506 L 309 478 Q 356 417 373 335 Q 382 291 382 240 L 189 255 L 184 229 L 381 214 Q 394 181 371 145 L 422 134 Q 435 174 442 209 L 464 208 Q 463 196 473 188 Q 482 181 494 184 Q 512 191 511 210 Q 495 230 481 232 Z M 376 72 464 64 Q 464 54 471 47 Q 478 40 488 40 Q 497 40 505 48 Q 511 54 511 65 Q 511 74 504 81 Q 497 88 487 89 L 369 99 L 357 144 L 321 149 L 311 104 L 193 115 L 183 155 L 154 160 L 206 179 L 82 297 L 179 282 L 161 500 L 126 505 L 79 300 L 24 353 L 0 325 L 115 146 L 146 157 L 137 120 L 6 132 L 1 105 L 130 94 L 114 29 L 219 13 L 201 87 L 305 78 L 290 15 L 396 0 Z" fill="black" />
  </g>
  <g class="defect" id="01">
    <path d="M 511 210 Q 495 230 481 232" fill="none" stroke="red" stroke-width="3" />
  </g>
  <g class="defect" id="02">
    <path d="M 381 214 Q 394 181 371 145" fill="none" stroke="red" stroke-width="3" />
  </g>
</svg>