<svg xmlns="http://www.w3.org/2000/svg" width="512" height="512" viewBox="0 0 512 512">
  <g class="glyph">
    <path d="M 204 354 308 341 289 428 44 508 11 487 214 405 Z M 306 423 501 449 443 509 286 449 Z M 387 42 465 34 Q 465 24 472 17 Q 478 9 489 9 Q 498 9 505 16 Q 512 23 512 33 Q 510 54 488 57 L 376 67 L 362 101 L 326 105 L 314 73 L 190 85 L 178 117 L 142 121 L 130 90 L 5 102 L 0 77 L 121 66 L 107 29 L 217 13 L 200 59 L 305 49 L 293 17 L 404 0 Z M 370 189 Q 372 182 375 170 Q 379 154 372 149 Q 367 145 350 146 Q 330 147 294 150 L 287 196 Z M 358 214 282 220 277 252 465 237 Q 465 227 472 220 Q 458 196 489 212 Q 498 212 505 219 Q 512 226 512 236 Q 510 257 488 260 L 5 298 L 0 273 L 234 255 L 228 225 L 136 232 V 250 L 100 259 L 39 152 L 136 129 V 149 Q 173 141 211 135 L 205 104 L 305 89 L 299 124 Q 337 121 375 119 Q 421 117 436 132 Q 452 146 449 181 Q 448 199 437 232 L 350 228 Q 358 215 358 214 Z M 224 202 216 159 Q 165 167 136 173 L 136 208 Z M 145 352 145 424 107 431 40 325 144 302 V 326 Q 245 298 376 290 Q 420 288 440 304 Q 459 320 456 350 Q 452 385 438 416 L 341 407 Q 362 372 367 347 Q 371 330 362 323 Q 353 317 328 319 Q 219 329 145 352 Z" fill="black" />
  </g>
  <g class="defect" id="01">
    <path d="M 472 220 Q 458 196 489 212" fill="none" stroke="red" stroke-width="3" />
  </g>
</svg>