<svg xmlns="http://www.w3.org/2000/svg" width="512" height="512" viewBox="0 0 512 512">
  <g class="glyph">
    <path d="M 226 379 292 424 193 496 162 470 Z M 418 370 512 433 449 488 388 397 Z M 391 48 465 41 Q 465 31 472 24 Q 479 17 489 17 Q 498 17 505 24 Q 512 31 512 41 Q 512 51 505 57 Q 498 64 488 65 L 381 75 L 368 115 L 332 120 L 318 81 L 192 93 L 179 137 L 143 142 L 129 99 L 6 110 L 1 85 L 121 73 L 106 29 L 217 13 L 200 66 L 310 56 L 296 15 L 406 0 Z M 383 237 Q 389 220 395 194 Q 400 171 389 162 Q 378 153 355 159 Q 312 169 272 184 L 273 246 Z M 383 328 455 323 Q 454 313 462 306 Q 470 300 481 301 Q 491 301 497 309 Q 514 317 503 327 Q 500 346 473 349 L 378 355 L 356 502 L 315 506 L 297 360 L 174 368 L 169 342 L 294 334 L 289 299 L 388 289 Z M 372 264 273 272 274 292 236 301 173 152 271 127 271 154 Q 352 130 389 125 Q 435 120 456 140 Q 476 158 473 203 Q 468 249 456 284 L 364 282 Q 372 265 372 264 Z M 65 290 145 278 119 500 80 506 52 304 25 332 0 305 82 135 174 175 Z" fill="black" />
  </g>
  <g class="defect" id="01">
    <path d="M 271 154 Q 352 130 389 125" fill="none" stroke="red" stroke-width="3" />
  </g>
  <g class="defect" id="02">
    <path d="M 497 309 Q 514 317 503 327" fill="none" stroke="red" stroke-width="3" />
  </g>
</svg>