<svg xmlns="http://www.w3.org/2000/svg" width="512" height="512" viewBox="0 0 512 512">
  <g class="glyph">
    <path d="M 382 51 465 43 Q 465 34 472 27 Q 459 20 489 20 Q 498 20 505 27 Q 492 34 512 44 Q 510 65 488 68 L 373 78 L 360 117 L 324 122 L 313 84 L 198 94 L 185 136 L 150 142 L 137 99 L 5 111 L 0 84 L 129 73 L 116 29 L 222 13 L 207 66 L 305 57 L 294 15 L 399 0 Z M 365 188 444 183 Q 444 172 452 165 Q 460 158 470 159 Q 489 161 491 183 Q 507 180 484 200 Q 477 207 467 208 L 362 215 L 356 285 L 433 279 Q 433 269 441 262 Q 449 255 459 256 Q 477 258 480 280 Q 477 302 456 304 L 353 312 L 346 383 L 456 375 Q 457 364 465 357 Q 472 350 482 352 Q 501 354 503 375 Q 503 385 497 392 Q 490 399 480 400 L 344 410 L 336 498 L 298 504 L 278 142 L 370 129 Z M 166 417 9 427 6 400 164 390 158 322 35 331 31 304 155 295 150 232 24 241 21 215 147 205 143 158 236 144 213 501 175 507 Z" fill="black" />
  </g>
  <g class="defect" id="01">
    <path d="M 472 27 Q 459 20 489 20" fill="none" stroke="red" stroke-width="3" />
  </g>
  <g class="defect" id="02">
    <path d="M 505 27 Q 492 34 512 44" fill="none" stroke="red" stroke-width="3" />
  </g>
  <g class="defect" id="03">
    <path d="M 491 183 Q 507 180 484 200" fill="none" stroke="red" stroke-width="3" />
  </g>
</svg>