<svg xmlns="http://www.w3.org/2000/svg" width="512" height="512" viewBox="0 0 512 512">
  <g class="glyph">
    <path d="M 142 340 168 364 62 507 3 443 Z M 30 254 149 284 98 358 12 284 Z M 38 144 155 181 107 253 20 175 Z M 418 410 512 481 485 506 375 446 Q 329 480 269 506 L 217 455 Q 270 434 310 410 L 247 376 L 308 328 L 366 371 Q 387 354 402 336 Q 396 336 413 310 Q 410 299 385 300 Q 318 304 239 335 L 233 391 L 175 506 L 141 494 L 182 384 L 165 180 L 257 163 L 254 191 Q 274 183 297 175 L 288 131 L 389 115 L 381 156 Q 393 154 417 152 Q 472 149 480 163 Q 504 179 495 220 Q 490 241 477 263 L 400 242 Q 417 226 427 203 Q 422 190 427 184 Q 421 178 406 179 Q 398 180 376 183 L 359 278 Q 384 274 402 273 Q 455 270 470 295 Q 488 323 455 368 Q 440 389 418 410 Z M 380 54 464 47 Q 464 37 471 30 Q 477 23 488 23 Q 497 23 504 30 Q 511 37 511 47 Q 509 69 487 72 L 370 82 L 360 107 L 325 112 L 317 86 L 190 98 L 179 137 L 143 142 L 131 103 L 5 114 L 0 88 L 123 77 L 109 29 L 215 13 L 198 70 L 309 61 L 295 15 L 401 0 Z M 320 284 303 202 Q 272 212 251 220 L 242 305 Q 286 292 320 284 Z" fill="black" />
  </g>
  <g class="defect" id="01">
    <path d="M 427 203 Q 422 190 427 184" fill="none" stroke="red" stroke-width="3" />
  </g>
  <g class="defect" id="02">
    <path d="M 402 336 Q 396 336 413 310" fill="none" stroke="red" stroke-width="3" />
  </g>
  <g class="defect" id="03">
    <path d="M 417 152 Q 472 149 480 163" fill="none" stroke="red" stroke-width="3" />
  </g>
</svg>