<svg xmlns="http://www.w3.org/2000/svg" width="512" height="512" viewBox="0 0 512 512">
  <g class="glyph">
    <path d="M 181 293 231 403 175 423 153 300 Z M 174 197 209 221 170 283 145 268 Z M 111 13 138 87 105 107 21 68 Z M 427 73 480 21 506 83 422 106 Q 421 128 422 137 Q 439 161 442 165 Q 458 169 472 155 Q 443 129 462 133 Q 466 113 488 111 Q 501 111 506 123 Q 512 134 508 147 Q 500 167 480 180 Q 462 190 440 192 Q 376 198 364 142 Q 353 92 356 18 L 446 0 Q 434 40 427 73 Z M 306 244 Q 335 225 367 214 Q 427 194 457 218 Q 483 239 483 285 Q 482 397 469 500 L 383 478 Q 412 393 419 281 Q 421 252 407 243 Q 395 235 373 242 Q 345 249 305 276 L 303 308 L 357 302 Q 357 291 364 285 Q 370 277 380 277 Q 390 277 396 284 Q 402 291 402 301 Q 401 321 380 324 L 302 332 L 301 379 L 350 375 Q 350 365 356 358 Q 363 351 372 351 Q 381 351 388 357 Q 395 364 395 374 Q 393 394 372 397 L 300 403 L 296 488 L 264 497 L 220 238 L 307 212 Z M 275 165 216 220 184 163 268 129 262 95 196 103 192 76 258 69 250 24 339 8 316 201 282 207 Z M 79 294 142 283 122 494 86 500 65 304 Q 46 318 36 324 L 0 254 Q 68 223 117 165 Q 124 153 119 147 Q 114 141 101 143 Q 56 151 17 174 L 10 147 Q 58 121 113 114 Q 161 111 174 136 Q 186 158 165 196 Q 134 250 79 294 Z" fill="black" />
  </g>
  <g class="defect" id="01">
    <path d="M 472 155 Q 443 129 462 133" fill="none" stroke="red" stroke-width="3" />
  </g>
  <g class="defect" id="02">
    <path d="M 422 137 Q 439 161 442 165" fill="none" stroke="red" stroke-width="3" />
  </g>
</svg>