<svg xmlns="http://www.w3.org/2000/svg" width="512" height="512" viewBox="0 0 512 512">
  <g class="glyph">
    <path d="M 271 435 244 422 288 314 V 194 L 351 183 L 329 330 Z M 312 504 285 491 357 347 374 161 439 150 399 362 Z M 233 11 Q 253 12 256 31 Q 255 51 234 54 L 9 83 L 5 56 L 213 31 Q 213 24 219 18 Q 225 12 233 11 Z M 334 99 Q 377 81 412 76 Q 463 68 486 95 Q 503 118 505 175 Q 506 263 497 323 Q 482 435 441 511 L 380 457 Q 417 405 438 323 Q 453 263 455 161 Q 455 128 440 115 Q 427 103 400 108 Q 362 115 310 143 L 284 188 L 257 175 L 294 0 L 376 27 Z M 188 418 279 448 242 511 133 448 19 512 0 485 91 424 45 398 71 335 12 341 8 314 81 307 105 248 77 252 77 269 49 278 10 140 70 117 71 143 Q 79 139 83 137 L 81 87 L 126 79 L 125 119 Q 128 118 142 114 L 140 80 L 188 71 L 186 105 Q 216 103 230 116 Q 255 135 249 189 Q 246 221 232 262 L 171 253 Q 174 247 176 240 L 105 248 L 175 269 L 153 300 L 221 294 Q 224 276 242 274 Q 251 273 257 280 Q 264 286 264 294 Q 250 301 243 317 L 174 324 L 238 346 L 210 405 Z M 185 214 Q 193 188 195 169 Q 197 149 193 140 Q 174 144 175 133 L 171 216 Z M 170 325 132 329 90 386 128 398 161 376 Z M 146 219 143 140 Q 134 144 124 147 L 122 222 Z M 96 225 93 161 Q 74 171 73 172 L 75 227 Z" fill="black" />
  </g>
  <g class="defect" id="01">
    <path d="M 264 294 Q 250 301 243 317" fill="none" stroke="red" stroke-width="3" />
  </g>
  <g class="defect" id="02">
    <path d="M 193 140 Q 174 144 175 133" fill="none" stroke="red" stroke-width="3" />
  </g>
</svg>