<svg xmlns="http://www.w3.org/2000/svg" width="512" height="512" viewBox="0 0 512 512">
  <g class="glyph">
    <path d="M 168 357 262 451 185 505 136 380 Z M 85 103 172 94 145 343 34 507 0 490 97 331 Z M 301 188 381 226 284 418 251 410 Z M 453 140 Q 465 201 467 258 Q 476 406 436 507 L 347 467 Q 392 376 396 255 Q 398 203 392 148 L 263 164 L 258 138 L 388 120 Q 380 68 368 17 L 411 0 Q 432 49 447 113 L 460 111 Q 460 100 467 92 Q 474 84 486 84 Q 497 84 505 91 Q 512 99 512 110 Q 495 117 486 136 Z M 65 57 Q 92 34 158 26 Q 199 19 219 34 Q 239 49 239 85 Q 243 209 227 333 L 178 322 Q 195 212 195 85 Q 195 66 187 59 Q 193 52 161 55 Q 119 59 65 88 L 61 336 L 30 342 L 6 37 L 66 28 Z" fill="black" />
  </g>
  <g class="defect" id="01">
    <path d="M 512 110 Q 495 117 486 136" fill="none" stroke="red" stroke-width="3" />
  </g>
  <g class="defect" id="02">
    <path d="M 65 57 Q 92 34 158 26" fill="none" stroke="red" stroke-width="3" />
  </g>
  <g class="defect" id="03">
    <path d="M 187 59 Q 193 52 161 55" fill="none" stroke="red" stroke-width="3" />
  </g>
</svg>