<svg xmlns="http://www.w3.org/2000/svg" width="512" height="512" viewBox="0 0 512 512">
  <g class="glyph">
    <path d="M 6 264 50 280 25 417 0 410 Z M 52 236 120 228 107 402 60 498 26 486 57 396 Z M 140 226 186 219 Q 213 413 182 501 L 107 477 Q 134 423 140 364 Q 145 319 140 226 Z M 299 232 367 224 354 402 293 498 259 486 304 396 Z M 387 222 434 215 Q 462 409 429 501 L 354 477 Q 381 424 387 361 Q 392 312 387 222 Z M 473 236 512 367 470 388 450 246 Z M 401 81 432 77 Q 432 67 439 60 Q 446 52 456 53 Q 465 53 471 59 Q 478 65 478 75 Q 479 87 470 95 Q 462 100 450 102 L 397 108 L 390 177 L 452 170 Q 452 162 459 155 Q 465 147 474 147 Q 484 146 492 152 Q 499 158 500 168 Q 500 180 492 187 Q 484 194 471 195 L 253 220 L 248 194 L 349 182 L 334 116 L 263 124 L 259 98 L 327 89 L 309 15 L 409 0 Z M 250 354 254 260 295 275 272 417 248 410 249 367 218 382 204 253 222 244 Z M 153 95 182 91 Q 181 81 189 74 Q 176 66 206 67 Q 215 67 222 73 Q 228 79 229 89 Q 230 101 220 108 Q 212 114 200 115 L 150 122 L 142 182 L 203 176 Q 202 167 208 160 Q 215 152 224 152 Q 234 151 242 157 Q 238 163 250 173 Q 250 185 242 192 Q 234 199 222 200 L 5 224 L 0 199 L 102 187 L 87 129 L 16 137 L 12 111 L 80 104 L 61 34 L 162 18 Z" fill="black" />
  </g>
  <g class="defect" id="01">
    <path d="M 242 157 Q 238 163 250 173" fill="none" stroke="red" stroke-width="3" />
  </g>
  <g class="defect" id="02">
    <path d="M 189 74 Q 176 66 206 67" fill="none" stroke="red" stroke-width="3" />
  </g>
</svg>