<svg xmlns="http://www.w3.org/2000/svg" width="512" height="512" viewBox="0 0 512 512">
  <g class="glyph">
    <path d="M 153 359 256 455 179 510 123 382 Z M 75 101 160 91 134 345 32 512 0 495 86 332 Z M 413 146 Q 413 155 407 161 Q 401 166 391 167 L 323 176 L 319 151 L 370 145 Q 370 137 377 131 Q 383 125 391 125 Q 400 125 407 131 Q 413 138 413 146 Z M 422 83 Q 422 92 415 98 Q 410 103 400 104 L 329 113 L 325 89 L 378 82 Q 379 73 385 67 Q 391 61 400 61 Q 409 61 415 68 Q 422 74 422 83 Z M 412 440 Q 426 368 430 276 Q 432 257 422 249 Q 414 242 396 246 Q 373 252 334 275 L 333 307 L 370 303 Q 373 285 392 283 Q 402 283 408 289 Q 414 296 414 304 Q 412 325 392 327 L 332 333 L 331 378 L 364 375 Q 367 356 385 355 Q 395 355 401 361 Q 407 367 407 377 Q 406 396 385 399 L 330 404 L 328 448 Z M 407 467 327 475 326 499 290 508 249 237 337 214 336 243 Q 359 229 393 219 Q 450 202 476 225 Q 500 246 499 307 Q 496 418 484 502 L 401 493 Q 404 480 407 467 Z M 314 37 Q 392 8 436 4 Q 481 0 499 27 Q 511 44 511 84 Q 509 165 500 201 L 417 191 Q 433 144 439 73 Q 441 46 433 38 Q 425 30 401 35 Q 356 43 312 67 L 304 204 L 268 215 L 222 27 L 315 3 Z M 59 53 Q 105 30 143 22 Q 174 16 193 24 Q 218 36 218 82 Q 222 204 207 334 L 162 323 Q 179 211 178 82 Q 178 62 170 56 Q 163 49 145 51 Q 109 56 59 84 L 56 338 L 29 343 L 6 33 L 60 24 Z" fill="black" />
  </g>
  <g class="defect" id="01">
    <path d="M 314 37 Q 392 8 436 4" fill="none" stroke="red" stroke-width="3" />
  </g>
</svg>