<svg xmlns="http://www.w3.org/2000/svg" width="512" height="512" viewBox="0 0 512 512">
  <g class="glyph">
    <path d="M 89 302 165 288 149 397 23 501 0 478 100 384 Z M 163 397 263 437 208 500 138 421 Z M 340 300 416 286 400 397 272 501 248 478 351 384 Z M 408 402 512 439 462 502 384 426 Z M 204 81 307 63 288 169 54 245 25 218 214 140 Z M 310 156 494 168 442 229 290 180 Z M 323 264 Q 368 244 416 237 Q 459 231 475 245 Q 493 258 493 302 Q 493 349 487 387 L 424 379 Q 434 335 437 295 Q 419 277 432 270 Q 427 263 411 265 Q 371 270 323 292 L 322 397 L 294 403 L 251 265 L 323 241 Z M 144 76 145 155 107 164 40 49 144 21 V 48 Q 235 14 368 4 Q 419 0 440 22 Q 455 39 453 72 Q 451 111 435 145 L 339 134 Q 359 106 366 71 Q 370 49 360 40 Q 351 32 326 35 Q 220 46 144 76 Z M 72 295 V 397 L 44 403 L 0 270 L 72 247 V 265 Q 119 245 166 239 Q 209 233 226 249 Q 243 265 243 304 Q 243 339 236 387 L 174 379 Q 202 338 186 296 Q 187 278 182 272 Q 177 265 161 267 Q 121 272 72 295 Z" fill="black" />
  </g>
  <g class="defect" id="01">
    <path d="M 437 295 Q 419 277 432 270" fill="none" stroke="red" stroke-width="3" />
  </g>
  <g class="defect" id="02">
    <path d="M 174 379 Q 202 338 186 296" fill="none" stroke="red" stroke-width="3" />
  </g>
</svg>