<svg xmlns="http://www.w3.org/2000/svg" width="512" height="512" viewBox="0 0 512 512">
  <g class="glyph">
    <path d="M 210 305 314 287 295 409 58 511 29 484 219 380 Z M 312 401 504 441 456 512 292 431 Z M 415 141 Q 426 100 429 67 Q 430 51 422 45 Q 414 38 398 42 Q 375 46 354 61 L 355 146 Z M 406 168 355 173 V 201 L 318 212 L 257 32 L 354 2 V 32 Q 391 13 422 7 Q 468 0 490 24 Q 508 43 505 85 Q 501 156 479 216 L 393 203 Q 404 177 406 168 Z M 149 302 150 404 111 413 44 274 149 246 V 273 Q 245 238 383 228 Q 427 225 445 241 Q 465 257 463 297 Q 459 347 444 394 L 347 382 Q 364 347 374 296 Q 358 292 368 266 Q 359 258 334 261 Q 221 273 149 302 Z M 146 50 Q 149 49 153 49 Q 213 41 236 64 Q 260 87 250 141 Q 238 197 213 243 L 126 207 Q 154 170 183 118 Q 189 99 182 91 Q 174 81 152 83 Q 148 83 140 84 L 129 147 L 31 250 L 1 225 L 76 134 L 73 100 Q 62 110 13 124 L 0 93 Q 38 76 71 66 L 67 13 L 154 0 Z" fill="black" />
  </g>
  <g class="defect" id="01">
    <path d="M 374 296 Q 358 292 368 266" fill="none" stroke="red" stroke-width="3" />
  </g>
  <g class="defect" id="02">
    <path d="M 126 207 Q 154 170 183 118" fill="none" stroke="red" stroke-width="3" />
  </g>
  <g class="defect" id="03">
    <path d="M 73 100 Q 62 110 13 124" fill="none" stroke="red" stroke-width="3" />
  </g>
</svg>