<svg xmlns="http://www.w3.org/2000/svg" width="512" height="512" viewBox="0 0 512 512">
  <g class="glyph">
    <path d="M 51 11 163 84 82 151 23 34 Z M 365 0 458 29 376 93 339 81 Z M 423 232 448 229 Q 448 219 455 213 Q 462 205 472 205 Q 481 205 488 212 Q 495 219 495 229 Q 492 250 471 253 L 421 259 L 402 439 L 365 444 L 353 265 L 301 271 L 297 317 L 202 440 L 170 426 L 240 306 L 237 278 L 170 285 L 165 259 L 234 251 L 222 154 L 311 144 L 303 245 L 351 239 L 344 140 L 434 130 Z M 252 110 431 89 Q 431 79 437 72 Q 444 65 454 65 Q 464 65 471 72 Q 477 79 477 89 Q 475 109 454 113 L 178 145 L 172 120 L 251 110 L 206 29 L 237 7 L 322 56 Z M 116 413 Q 167 446 218 457 Q 275 471 363 462 Q 436 454 466 429 Q 457 412 469 399 Q 483 389 497 399 Q 512 409 502 431 Q 495 448 459 463 Q 420 480 366 486 Q 281 497 213 483 Q 171 454 105 439 Q 90 472 72 500 L 0 445 Q 16 398 61 335 Q 82 278 90 218 Q 93 202 86 196 Q 81 191 68 194 Q 53 202 15 221 L 3 195 Q 33 175 71 166 Q 112 158 133 172 Q 156 190 154 234 Q 151 298 132 365 Q 126 389 116 413 Z" fill="black" />
  </g>
  <g class="defect" id="01">
    <path d="M 68 194 Q 53 202 15 221" fill="none" stroke="red" stroke-width="3" />
  </g>
  <g class="defect" id="02">
    <path d="M 213 483 Q 171 454 105 439" fill="none" stroke="red" stroke-width="3" />
  </g>
  <g class="defect" id="03">
    <path d="M 0 445 Q 16 398 61 335" fill="none" stroke="red" stroke-width="3" />
  </g>
</svg>