<svg xmlns="http://www.w3.org/2000/svg" width="512" height="512" viewBox="0 0 512 512">
  <g class="glyph">
    <path d="M 48 12 152 86 78 151 20 33 Z M 482 399 Q 492 399 498 405 Q 512 417 500 438 Q 485 462 445 475 Q 410 486 359 488 Q 299 479 216 478 Q 156 465 108 427 Q 90 467 64 497 L 0 426 Q 38 388 61 335 Q 83 289 93 231 Q 95 215 86 210 Q 79 205 63 210 Q 42 215 23 233 L 11 207 Q 42 185 62 181 Q 99 171 123 183 Q 156 200 151 251 Q 146 307 132 359 Q 127 376 119 400 Q 175 442 230 455 Q 290 468 359 463 Q 427 459 466 438 Q 457 429 459 417 L 424 410 Q 433 376 438 337 L 415 339 L 406 423 L 379 428 L 378 343 L 358 345 L 352 428 L 326 434 L 321 349 L 299 351 L 298 427 L 269 438 L 242 244 L 301 224 L 301 246 Q 348 228 402 220 Q 446 213 469 228 Q 492 244 492 281 Q 491 346 482 399 Z M 440 311 Q 441 298 442 286 Q 457 280 434 254 Q 425 245 398 248 Q 344 255 301 273 L 300 325 L 319 323 L 316 281 L 363 271 L 360 319 L 378 317 L 377 267 L 424 257 L 418 313 Z M 404 158 Q 412 141 416 128 Q 420 112 416 105 Q 411 98 396 99 Q 332 101 244 134 L 240 177 Z M 389 186 238 202 227 326 174 413 142 401 183 313 171 80 250 68 247 107 Q 283 94 327 84 L 250 35 L 354 0 L 358 67 L 331 83 Q 370 74 392 71 Q 450 63 474 86 Q 491 105 486 144 Q 485 161 479 177 Q 476 185 466 208 L 379 203 Q 384 195 389 186 Z" fill="black" />
  </g>
  <g class="defect" id="01">
    <path d="M 359 488 Q 299 479 216 478" fill="none" stroke="red" stroke-width="3" />
  </g>
  <g class="defect" id="02">
    <path d="M 442 286 Q 457 280 434 254" fill="none" stroke="red" stroke-width="3" />
  </g>
</svg>