<svg xmlns="http://www.w3.org/2000/svg" width="512" height="512" viewBox="0 0 512 512">
  <g class="glyph">
    <path d="M 478 179 Q 486 184 492 193 Q 512 222 503 272 Q 484 383 420 443 L 366 383 L 361 494 L 324 501 L 290 16 L 386 0 L 384 40 Q 404 22 420 14 Q 436 7 452 7 Q 469 8 479 18 Q 497 34 496 69 Q 485 125 478 179 Z M 408 182 Q 435 129 439 72 Q 440 55 432 51 Q 426 47 413 55 Q 397 64 382 80 L 375 205 Q 394 189 408 182 Z M 374 240 366 381 Q 399 357 419 318 Q 437 282 442 239 Q 444 220 437 213 Q 430 206 413 213 Q 395 221 374 240 Z M 196 427 Q 203 401 209 367 Q 212 344 200 334 Q 189 325 173 328 Q 141 336 105 361 L 104 435 Z M 188 237 246 230 Q 245 219 253 212 Q 261 204 272 205 Q 290 208 293 226 Q 294 240 285 248 Q 278 254 265 255 L 7 283 L 2 257 L 81 249 L 23 164 L 49 140 L 143 185 L 84 248 L 180 238 L 153 223 L 182 126 L 266 159 Z M 187 455 104 463 103 492 68 501 15 320 106 295 106 328 Q 141 304 174 298 Q 232 284 261 316 Q 284 340 280 387 Q 274 451 259 494 L 176 480 Q 180 472 187 455 Z M 137 96 226 85 Q 226 68 241 61 Q 253 56 263 64 Q 291 60 274 83 Q 276 106 245 110 L 5 138 L 0 112 L 126 97 L 51 43 L 157 7 L 161 82 Z" fill="black" />
  </g>
  <g class="defect" id="01">
    <path d="M 496 69 Q 485 125 478 179" fill="none" stroke="red" stroke-width="3" />
  </g>
  <g class="defect" id="02">
    <path d="M 263 64 Q 291 60 274 83" fill="none" stroke="red" stroke-width="3" />
  </g>
</svg>