<svg xmlns="http://www.w3.org/2000/svg" width="512" height="512" viewBox="0 0 512 512">
  <g class="glyph">
    <path d="M 186 183 Q 186 205 155 210 L 28 224 L 23 198 L 139 185 Q 138 174 145 167 Q 151 160 162 160 Q 172 160 179 167 Q 196 173 186 183 Z M 209 168 279 182 246 360 212 351 Z M 449 252 511 357 434 393 416 269 Z M 256 0 424 19 390 99 242 33 Z M 360 256 443 77 512 122 357 349 Q 357 392 361 426 Q 364 445 373 454 Q 383 467 403 466 Q 432 465 448 444 Q 442 433 438 413 Q 443 402 453 398 Q 463 394 474 399 Q 484 403 487 414 Q 491 424 486 435 Q 475 462 448 478 Q 421 495 390 493 Q 356 493 334 476 Q 308 456 301 413 Q 301 411 300 409 L 226 480 L 204 452 L 294 359 Q 289 322 287 291 Q 282 221 285 130 L 375 105 Q 363 198 360 256 Z M 134 298 151 296 Q 151 286 157 279 Q 153 287 174 271 Q 185 271 191 278 Q 198 285 198 295 Q 198 307 189 314 Q 181 320 168 321 L 131 325 Q 124 397 126 449 Q 126 465 135 467 Q 143 470 152 460 Q 164 444 170 425 Q 157 418 159 402 Q 159 389 169 383 Q 178 378 190 381 Q 211 388 204 417 Q 195 443 182 464 Q 157 502 125 502 Q 110 504 97 496 Q 83 487 77 467 Q 62 421 56 332 L 14 337 L 9 311 L 54 307 Q 52 279 52 236 L 145 227 Q 137 267 134 298 Z M 90 102 163 93 Q 161 82 168 75 Q 175 68 186 68 Q 195 68 202 75 Q 209 81 209 91 Q 209 115 178 118 L 69 131 L 32 184 L 0 167 L 46 12 L 134 38 Z" fill="black" />
  </g>
  <g class="defect" id="01">
    <path d="M 179 167 Q 196 173 186 183" fill="none" stroke="red" stroke-width="3" />
  </g>
  <g class="defect" id="02">
    <path d="M 157 279 Q 153 287 174 271" fill="none" stroke="red" stroke-width="3" />
  </g>
  <g class="defect" id="03">
    <path d="M 448 444 Q 442 433 438 413" fill="none" stroke="red" stroke-width="3" />
  </g>
</svg>