<svg xmlns="http://www.w3.org/2000/svg" width="512" height="512" viewBox="0 0 512 512">
  <g class="glyph">
    <path d="M 178 183 Q 178 195 168 203 Q 161 208 148 210 L 28 223 L 23 197 L 131 185 Q 130 175 137 168 Q 144 160 154 160 Q 164 160 171 167 Q 178 173 178 183 Z M 453 316 463 315 Q 465 294 486 292 Q 496 292 503 299 Q 510 305 510 315 Q 510 324 504 331 Q 497 339 486 339 L 449 343 L 432 494 L 394 501 L 383 350 L 295 358 L 287 415 L 228 501 L 192 487 L 234 406 L 230 365 L 191 369 L 186 343 L 227 339 L 221 285 L 307 271 L 299 332 L 381 323 L 377 266 L 460 252 Z M 444 177 Q 449 184 449 192 Q 448 212 423 218 L 372 224 L 360 301 L 325 309 L 313 230 L 249 237 L 244 211 L 309 204 L 299 141 L 387 130 L 377 197 L 398 194 Q 397 184 405 175 Q 413 167 424 167 Q 433 167 442 174 L 366 92 L 331 96 L 213 236 L 183 213 L 249 106 L 197 113 L 192 87 L 267 78 L 315 0 L 401 12 L 356 66 L 456 54 Q 455 43 461 34 Q 468 25 479 25 Q 490 24 498 30 Q 507 37 507 48 Q 509 72 478 77 L 415 85 L 512 146 L 472 207 Z M 129 298 148 296 Q 147 286 154 278 Q 161 270 171 270 Q 181 270 188 277 Q 194 284 194 293 Q 194 318 164 321 L 127 325 Q 138 409 122 448 Q 122 463 130 467 Q 137 470 146 465 Q 157 458 162 448 Q 149 440 150 426 Q 151 413 161 407 Q 170 402 180 404 Q 191 407 196 416 Q 202 426 195 440 Q 187 464 168 481 Q 145 502 118 501 Q 84 498 74 465 Q 43 394 55 332 L 14 336 L 9 310 L 54 306 Q 53 282 53 235 L 137 226 Q 132 260 129 298 Z M 90 101 135 95 Q 149 85 141 78 Q 148 70 158 70 Q 180 72 182 92 Q 182 116 152 120 L 69 131 L 32 184 L 0 166 L 47 12 L 133 38 Z" fill="black" />
  </g>
  <g class="defect" id="01">
    <path d="M 127 325 Q 138 409 122 448" fill="none" stroke="red" stroke-width="3" />
  </g>
  <g class="defect" id="02">
    <path d="M 74 465 Q 43 394 55 332" fill="none" stroke="red" stroke-width="3" />
  </g>
  <g class="defect" id="03">
    <path d="M 135 95 Q 149 85 141 78" fill="none" stroke="red" stroke-width="3" />
  </g>
</svg>