<svg xmlns="http://www.w3.org/2000/svg" width="512" height="512" viewBox="0 0 512 512">
  <g class="glyph">
    <path d="M 167 186 Q 167 209 136 213 L 24 224 L 20 199 L 120 188 Q 119 178 126 170 Q 133 163 143 163 Q 154 163 160 169 Q 167 176 167 186 Z M 226 76 290 107 227 145 179 79 214 7 288 25 Z M 325 64 389 92 327 129 279 67 313 4 388 21 Z M 425 58 489 87 426 124 379 61 412 0 487 17 Z M 415 401 Q 411 370 410 342 L 386 377 L 362 334 Q 353 410 357 460 Q 359 477 370 477 Q 380 478 384 468 Q 375 462 378 451 Q 381 438 398 438 Q 416 441 411 464 Q 406 478 393 487 Q 380 495 365 496 Q 351 497 340 492 Q 345 486 322 473 Q 312 446 307 405 L 272 444 L 253 401 L 264 388 L 307 405 Q 304 387 302 351 L 278 387 L 255 345 Q 246 414 250 466 Q 250 474 254 479 Q 258 483 263 483 Q 272 483 276 474 Q 266 469 268 458 Q 272 443 289 445 Q 307 448 302 471 Q 297 486 284 494 Q 272 502 257 503 Q 244 504 232 498 Q 220 493 215 480 Q 194 423 195 325 L 261 312 Q 258 326 256 340 L 266 330 L 302 340 Q 302 331 302 315 L 367 303 Q 365 317 363 331 L 374 321 L 409 330 Q 408 315 408 307 L 477 293 Q 461 385 460 460 Q 460 466 463 469 Q 465 471 469 470 Q 476 469 480 460 Q 468 450 476 437 Q 489 424 502 435 Q 512 444 505 459 Q 492 484 466 492 Q 454 495 444 489 Q 433 482 428 466 Q 419 432 415 401 Z M 414 396 379 435 360 391 372 379 Z M 405 250 Q 425 231 417 189 Q 423 147 382 151 Q 323 156 250 181 L 253 264 L 374 253 L 325 226 L 276 258 L 259 245 L 297 210 L 268 194 L 280 175 L 320 188 L 353 155 L 400 176 L 361 201 L 405 216 L 377 252 Z M 396 275 254 289 254 303 218 308 173 165 249 142 249 154 Q 324 129 392 124 Q 440 119 462 140 Q 480 158 478 197 Q 475 249 460 293 L 392 288 Q 408 277 396 275 Z M 124 299 142 297 Q 141 286 150 279 Q 158 272 168 273 Q 177 273 183 280 Q 188 286 188 296 Q 188 317 161 321 L 122 326 Q 116 394 116 456 Q 117 470 123 471 Q 131 473 138 466 Q 146 461 152 448 Q 137 441 138 428 Q 138 416 148 410 Q 156 406 166 407 Q 186 411 181 441 Q 174 465 157 482 Q 133 505 107 503 Q 91 502 79 491 Q 66 478 63 456 Q 54 401 52 334 L 8 339 L 3 312 L 51 307 Q 50 273 51 237 L 131 228 Q 125 278 124 299 Z M 86 103 129 98 Q 128 88 134 80 Q 141 73 152 73 Q 161 73 168 80 Q 175 87 175 96 Q 175 120 145 123 L 68 132 L 32 187 L 0 169 L 48 14 L 127 39 Z" fill="black" />
  </g>
  <g class="defect" id="01">
    <path d="M 392 288 Q 408 277 396 275" fill="none" stroke="red" stroke-width="3" />
  </g>
  <g class="defect" id="02">
    <path d="M 340 492 Q 345 486 322 473" fill="none" stroke="red" stroke-width="3" />
  </g>
  <g class="defect" id="03">
    <path d="M 405 250 Q 425 231 417 189" fill="none" stroke="red" stroke-width="3" />
  </g>
</svg>