<svg xmlns="http://www.w3.org/2000/svg" width="512" height="512" viewBox="0 0 512 512">
  <g class="glyph">
    <path d="M 302 335 392 322 376 413 215 504 189 479 315 402 Z M 172 184 Q 172 208 142 211 L 28 224 L 23 198 L 125 186 Q 125 176 131 169 Q 139 161 148 161 Q 159 161 165 168 Q 172 174 172 184 Z M 389 422 512 443 465 505 353 443 Z M 441 100 Q 443 93 444 87 Q 448 65 426 66 Q 418 66 414 66 L 410 103 Z M 431 126 407 129 404 161 Q 435 159 447 159 Q 476 157 490 168 Q 505 182 497 209 Q 492 228 484 240 Q 478 250 465 262 L 408 236 Q 432 223 442 200 Q 446 191 444 188 Q 441 184 432 184 Q 416 185 401 186 L 392 263 L 362 268 L 359 191 Q 347 192 322 195 L 321 229 L 216 285 L 196 268 L 278 215 L 276 203 Q 251 207 238 210 L 238 223 L 207 229 L 184 121 L 244 108 L 243 121 L 267 118 L 263 82 Q 236 86 190 95 L 183 70 Q 223 63 259 57 L 255 21 L 328 10 L 327 47 Q 339 46 351 45 L 349 10 L 421 0 L 417 40 Q 423 40 429 39 Q 448 37 480 51 Q 495 63 491 95 Q 486 123 475 146 L 423 140 Q 426 135 431 126 Z M 357 167 356 134 323 138 322 170 Q 340 169 357 167 Z M 355 109 352 71 Q 344 71 326 74 L 325 112 Z M 274 178 270 144 242 147 240 184 Q 251 181 274 178 Z M 274 324 274 416 238 421 194 298 273 281 V 297 Q 333 281 404 274 Q 444 270 464 280 Q 492 294 487 334 Q 486 372 469 412 L 402 400 Q 420 361 424 328 Q 428 298 397 301 Q 339 305 274 324 Z M 125 300 139 298 Q 139 288 146 280 Q 152 272 163 272 Q 173 272 180 279 Q 186 285 186 295 Q 186 319 155 323 L 122 326 Q 118 381 117 458 Q 116 468 123 472 Q 130 475 139 472 Q 154 463 160 449 Q 131 446 148 437 Q 145 430 148 422 Q 155 404 178 407 Q 189 409 193 419 Q 197 429 193 442 Q 182 471 160 488 Q 136 506 109 503 Q 74 499 66 457 Q 57 408 54 333 L 11 338 L 7 312 L 53 307 Q 52 272 52 237 L 133 228 Q 127 272 125 300 Z M 91 101 131 96 Q 130 86 137 78 Q 144 70 154 70 Q 164 70 171 76 Q 178 83 178 92 Q 178 105 169 113 Q 162 118 147 121 L 71 130 L 32 186 L 0 168 L 49 12 L 134 38 Z" fill="black" />
  </g>
  <g class="defect" id="01">
    <path d="M 160 449 Q 131 446 148 437" fill="none" stroke="red" stroke-width="3" />
  </g>
  <g class="defect" id="02">
    <path d="M 429 39 Q 448 37 480 51" fill="none" stroke="red" stroke-width="3" />
  </g>
</svg>