<svg xmlns="http://www.w3.org/2000/svg" width="512" height="512" viewBox="0 0 512 512">
  <g class="glyph">
    <path d="M 429 92 482 32 506 106 424 131 Q 419 178 422 211 Q 424 228 433 233 Q 441 237 454 230 Q 466 223 472 214 Q 471 221 457 190 Q 457 180 465 172 Q 473 165 483 165 Q 497 165 505 176 Q 512 187 507 200 Q 501 222 484 241 Q 460 265 428 264 Q 410 264 396 256 Q 381 247 374 228 Q 361 198 353 127 Q 346 67 346 19 L 449 0 Q 439 43 429 92 Z M 379 348 433 343 Q 433 332 440 325 Q 448 317 458 318 Q 468 318 474 325 Q 480 332 480 342 Q 480 364 452 366 L 374 374 L 358 457 L 459 448 Q 458 436 467 429 Q 474 423 486 424 Q 505 425 507 448 Q 507 470 480 473 L 178 498 L 174 473 L 319 460 L 305 380 L 206 390 L 202 364 L 300 355 L 289 292 L 392 276 Z M 281 120 301 118 Q 300 107 307 100 Q 325 79 322 94 Q 342 95 343 117 Q 343 137 314 141 L 277 145 Q 272 198 274 230 Q 275 245 284 249 Q 292 253 303 245 Q 312 240 317 229 Q 302 219 302 205 Q 302 195 310 187 Q 318 179 329 179 Q 343 179 350 191 Q 358 202 353 216 Q 345 241 327 259 Q 306 281 277 280 Q 244 278 226 243 Q 212 212 204 142 Q 199 88 198 32 L 302 13 Q 290 59 281 120 Z M 170 193 Q 174 195 177 200 Q 202 227 192 285 Q 176 387 114 448 L 68 394 L 63 501 L 30 507 L 0 39 L 85 23 L 83 60 Q 96 47 105 40 Q 128 24 148 27 Q 181 32 185 86 Q 190 134 170 193 Z M 103 196 Q 129 140 131 89 Q 132 73 126 69 Q 120 64 107 74 Q 92 86 81 100 L 76 216 Q 87 205 103 196 Z M 74 251 68 383 Q 129 333 139 252 Q 141 232 132 226 Q 123 219 109 226 Q 93 232 74 251 Z" fill="black" />
  </g>
  <g class="defect" id="01">
    <path d="M 472 214 Q 471 221 457 190" fill="none" stroke="red" stroke-width="3" />
  </g>
  <g class="defect" id="02">
    <path d="M 307 100 Q 325 79 322 94" fill="none" stroke="red" stroke-width="3" />
  </g>
</svg>