<svg xmlns="http://www.w3.org/2000/svg" width="512" height="512" viewBox="0 0 512 512">
  <g class="glyph">
    <path d="M 210 432 Q 198 461 177 478 Q 152 499 126 500 Q 107 501 92 490 Q 76 478 70 454 Q 49 367 49 228 L 137 212 Q 118 359 120 452 Q 137 465 129 469 Q 138 473 150 468 Q 167 459 176 443 Q 161 435 159 420 Q 161 399 186 395 Q 200 395 208 407 Q 215 419 210 432 Z M 328 294 Q 334 269 338 234 Q 339 223 334 218 Q 329 214 320 217 Q 308 219 290 231 Q 286 261 285 298 Z M 321 323 284 327 Q 283 371 289 397 Q 296 440 331 454 Q 367 467 408 449 Q 445 432 470 400 Q 456 394 456 377 Q 456 366 464 358 Q 472 350 482 350 Q 497 350 505 362 Q 512 372 508 386 Q 493 430 449 459 Q 409 495 332 490 Q 285 486 259 458 Q 239 434 227 387 Q 210 308 212 199 L 296 175 Q 295 185 293 198 Q 307 190 325 183 Q 360 170 378 182 Q 398 195 396 235 Q 393 305 380 370 L 310 356 Q 314 347 321 323 Z M 300 92 Q 344 68 375 62 Q 435 48 473 81 Q 511 114 506 181 Q 501 267 474 341 L 400 314 Q 435 242 439 165 Q 442 125 422 106 Q 401 85 362 98 Q 310 113 268 144 L 241 186 L 207 178 L 244 0 L 345 21 Z M 106 94 Q 121 87 135 83 Q 168 75 186 89 Q 204 104 202 136 Q 200 176 185 217 L 108 196 Q 135 159 144 130 Q 147 120 143 115 Q 139 111 129 113 Q 102 121 77 140 L 30 215 L 0 199 L 56 12 L 143 35 Z" fill="black" />
  </g>
  <g class="defect" id="01">
    <path d="M 120 452 Q 137 465 129 469" fill="none" stroke="red" stroke-width="3" />
  </g>
  <g class="defect" id="02">
    <path d="M 449 459 Q 409 495 332 490" fill="none" stroke="red" stroke-width="3" />
  </g>
</svg>