<svg xmlns="http://www.w3.org/2000/svg" width="512" height="512" viewBox="0 0 512 512">
  <g class="glyph">
    <path d="M 230 388 239 421 24 496 0 424 Z M 443 174 Q 445 178 446 181 Q 449 209 421 213 L 287 228 L 282 202 L 395 190 Q 396 166 416 161 Q 426 160 435 165 L 365 89 L 241 232 L 219 212 Q 223 226 223 245 Q 221 319 210 383 L 146 377 Q 148 368 150 357 L 82 364 L 82 386 L 49 394 L 7 194 L 78 173 L 79 195 Q 109 175 137 169 Q 140 169 143 168 L 89 156 Q 124 136 139 113 Q 145 104 143 100 Q 141 96 131 98 Q 110 100 84 113 L 31 179 L 1 162 L 60 13 L 145 38 L 113 78 Q 128 74 143 72 Q 176 68 190 86 Q 204 103 191 133 Q 193 152 164 168 Q 181 168 195 177 Q 211 186 217 207 L 334 0 L 422 24 L 392 58 L 512 130 L 474 208 Z M 422 467 Q 367 489 289 497 Q 255 499 243 477 Q 231 455 247 423 Q 272 370 319 309 L 249 316 L 245 291 L 458 269 Q 458 257 464 249 Q 472 240 483 240 Q 509 241 510 265 Q 511 276 502 284 Q 494 291 480 292 L 330 308 L 411 329 Q 342 392 304 449 Q 300 455 301 463 Q 303 470 312 469 Q 363 463 416 441 L 401 374 L 429 359 L 506 458 L 431 506 Z M 164 253 Q 165 244 165 240 Q 166 215 156 204 Q 134 195 130 199 Q 106 205 79 225 L 80 263 L 106 260 L 105 219 L 139 216 L 135 257 Z M 161 281 133 284 129 332 155 330 Q 144 308 161 281 Z M 108 334 107 287 80 290 81 337 Z" fill="black" />
  </g>
  <g class="defect" id="01">
    <path d="M 155 330 Q 144 308 161 281" fill="none" stroke="red" stroke-width="3" />
  </g>
  <g class="defect" id="02">
    <path d="M 156 204 Q 134 195 130 199" fill="none" stroke="red" stroke-width="3" />
  </g>
  <g class="defect" id="03">
    <path d="M 191 133 Q 193 152 164 168" fill="none" stroke="red" stroke-width="3" />
  </g>
</svg>