<svg xmlns="http://www.w3.org/2000/svg" width="512" height="512" viewBox="0 0 512 512">
  <g class="glyph">
    <path d="M 286 0 Q 310 12 345 14 Q 330 39 318 106 Q 316 116 314 133 Q 310 153 308 165 Q 353 222 386 265 Q 408 298 457 322 Q 481 335 504 353 Q 512 357 510 365 Q 508 371 498 371 Q 455 371 412 359 Q 388 355 369 322 Q 353 294 335 259 Q 332 255 328 247 Q 318 220 300 196 Q 273 292 233 343 Q 208 371 173 371 Q 153 373 133 363 Q 249 304 284 114 Q 296 53 286 0 Z M 126 33 Q 149 45 184 49 Q 169 69 159 118 Q 147 171 139 192 Q 162 201 210 231 Q 195 232 206 277 Q 204 284 202 286 Q 200 286 196 279 Q 173 259 135 204 Q 114 269 90 302 Q 65 341 33 341 Q 31 354 0 332 Q 90 263 122 118 Q 131 80 126 33 Z" fill="black" />
  </g>
  <g class="defect" id="01">
    <path d="M 139 192 Q 162 201 210 231" fill="none" stroke="red" stroke-width="3" />
  </g>
  <g class="defect" id="02">
    <path d="M 210 231 Q 195 232 206 277" fill="none" stroke="red" stroke-width="3" />
  </g>
  <g class="defect" id="03">
    <path d="M 33 341 Q 31 354 0 332" fill="none" stroke="red" stroke-width="3" />
  </g>
</svg>