<svg xmlns="http://www.w3.org/2000/svg" width="512" height="512" viewBox="0 0 512 512">
  <g class="glyph">
    <path d="M 151 0 Q 175 19 207 28 Q 188 45 175 82 Q 171 89 166 104 Q 153 132 132 171 Q 145 175 160 175 Q 149 207 149 255 Q 149 264 149 283 Q 153 464 147 454 Q 127 452 91 423 Q 99 406 104 380 Q 112 322 112 203 Q 97 225 80 242 Q 48 272 0 246 Q 93 192 138 67 Q 151 28 151 0 Z M 253 179 242 166 Q 235 210 240 177 Q 252 210 227 255 Q 199 238 181 229 Q 173 227 179 216 Q 210 179 235 130 Q 238 125 242 127 Q 244 127 244 132 Q 244 140 244 151 Q 395 130 443 106 Q 469 140 512 158 Q 471 188 421 216 Q 413 220 410 218 Q 408 216 410 207 Q 415 197 428 164 Q 419 149 436 143 Q 385 156 253 179 Z M 469 333 Q 482 333 486 339 Q 493 350 506 369 Q 497 380 499 380 Q 395 369 223 402 Q 210 406 181 372 Q 233 367 346 350 Q 428 337 469 333 Z M 296 17 Q 354 39 365 54 Q 363 71 359 91 Q 350 110 343 102 Q 311 67 289 26 Q 285 17 285 15 Q 287 13 296 17 Z" fill="black" />
  </g>
  <g class="defect" id="01">
    <path d="M 428 164 Q 419 149 436 143" fill="none" stroke="red" stroke-width="3" />
  </g>
  <g class="defect" id="02">
    <path d="M 240 177 Q 252 210 227 255" fill="none" stroke="red" stroke-width="3" />
  </g>
  <g class="defect" id="03">
    <path d="M 506 369 Q 497 380 499 380" fill="none" stroke="red" stroke-width="3" />
  </g>
</svg>