<svg xmlns="http://www.w3.org/2000/svg" width="512" height="512" viewBox="0 0 512 512">
  <g class="glyph">
    <path d="M 490 109 Q 497 116 505 125 Q 512 133 503 136 Q 409 153 335 168 Q 359 173 376 173 Q 368 193 365 230 Q 368 230 374 228 Q 403 219 453 208 Q 462 208 466 212 Q 479 232 481 236 Q 427 247 365 256 V 326 Q 424 311 459 304 Q 468 304 473 309 Q 475 311 479 319 Q 486 330 488 333 Q 477 335 455 339 Q 381 352 370 352 Q 368 352 365 350 Q 365 403 365 457 Q 365 484 357 494 Q 324 475 309 451 Q 335 438 326 223 Q 326 188 319 171 Q 313 171 311 171 Q 304 166 295 160 Q 276 197 258 221 Q 234 263 182 245 Q 287 149 313 0 Q 354 34 368 24 Q 350 37 337 72 Q 322 107 304 144 Q 319 140 365 129 Q 440 109 473 103 Q 484 103 490 109 Z M 162 9 Q 184 26 217 37 Q 199 53 186 85 Q 182 94 171 114 Q 164 129 142 166 Q 149 173 184 175 Q 175 203 175 249 Q 175 276 175 322 Q 177 464 171 455 Q 147 446 120 424 Q 127 411 133 381 Q 140 335 140 182 Q 138 177 138 177 Q 136 182 131 186 Q 109 221 81 254 Q 46 291 0 265 Q 94 208 149 72 Q 162 46 162 9 Z" fill="black" />
  </g>
  <g class="defect" id="01">
    <path d="M 313 0 Q 354 34 368 24" fill="none" stroke="red" stroke-width="3" />
  </g>
  <g class="defect" id="02">
    <path d="M 142 166 Q 149 173 184 175" fill="none" stroke="red" stroke-width="3" />
  </g>
</svg>