<svg xmlns="http://www.w3.org/2000/svg" width="512" height="512" viewBox="0 0 512 512">
  <g class="glyph">
    <path d="M 471 359 Q 484 359 488 366 Q 488 368 493 370 Q 503 387 508 394 Q 512 400 510 404 Q 510 407 503 407 Q 376 396 196 422 Q 187 426 181 419 Q 179 417 172 413 Q 168 409 157 398 Q 207 398 314 381 Q 314 346 314 314 Q 305 314 293 316 Q 256 323 252 321 Q 239 316 226 299 Q 243 297 273 290 Q 299 286 312 284 Q 312 245 301 213 Q 267 222 228 237 Q 219 215 204 198 Q 237 189 258 166 Q 295 125 303 86 Q 265 90 245 93 Q 228 86 217 69 Q 239 69 336 47 Q 392 34 415 30 Q 422 28 426 32 Q 426 30 428 32 Q 432 34 439 43 Q 445 49 447 54 Q 450 58 450 60 Q 447 62 443 62 Q 424 65 370 73 Q 353 60 323 82 Q 336 93 353 99 Q 340 108 323 129 Q 297 163 265 189 Q 353 174 396 168 Q 385 151 372 136 Q 368 129 370 127 Q 372 127 381 129 Q 417 144 445 161 Q 454 166 454 174 Q 454 185 450 207 Q 447 215 445 215 Q 441 217 437 211 Q 424 200 411 185 Q 379 191 318 207 Q 321 207 323 207 Q 342 211 357 211 Q 349 239 346 275 Q 376 269 404 262 Q 417 269 430 286 Q 437 293 428 295 Q 409 297 372 305 Q 355 308 346 310 Q 346 342 346 376 Q 409 366 471 359 Z M 153 0 Q 174 19 207 28 Q 189 43 176 71 Q 153 125 129 163 Q 146 170 155 170 Q 144 198 144 241 Q 144 275 144 333 Q 146 458 142 450 Q 112 439 93 417 Q 99 407 103 383 Q 112 327 112 194 Q 97 217 77 237 Q 49 267 0 245 Q 88 189 142 62 Q 153 34 153 0 Z" fill="black" />
  </g>
  <g class="defect" id="01">
    <path d="M 370 73 Q 353 60 323 82" fill="none" stroke="red" stroke-width="3" />
  </g>
</svg>