<svg xmlns="http://www.w3.org/2000/svg" width="512" height="512" viewBox="0 0 512 512">
  <g class="glyph">
    <path d="M 428 90 Q 399 97 291 117 Q 263 121 252 124 V 366 Q 252 430 247 430 Q 234 426 203 393 Q 221 344 221 225 Q 221 121 205 77 Q 210 79 216 82 Q 232 86 249 95 Q 382 82 437 49 Q 470 82 512 90 Q 490 119 488 183 Q 488 203 488 241 Q 486 309 488 349 Q 494 466 479 463 Q 435 452 388 402 Q 380 393 382 388 Q 384 384 397 386 Q 413 388 426 388 Q 441 388 441 377 Q 444 333 444 104 Q 444 90 428 90 Z M 166 0 Q 192 18 225 31 Q 205 42 192 71 Q 190 75 183 86 Q 157 146 137 177 Q 157 183 166 183 Q 154 207 154 247 Q 137 441 150 459 Q 119 448 102 428 Q 106 417 113 388 Q 126 300 119 201 Q 99 234 79 258 Q 41 266 35 280 Q 15 280 0 265 Q 86 212 150 66 Q 166 35 166 0 Z M 413 320 Q 369 322 324 327 Q 324 351 322 351 Q 309 344 296 333 Q 294 269 267 232 Q 274 232 287 234 Q 300 234 307 236 Q 368 227 371 214 Q 391 234 435 247 Q 408 265 393 298 Q 408 313 413 320 Z M 395 146 Q 404 152 413 161 Q 417 166 408 170 Q 397 172 369 177 Q 311 185 305 185 Q 287 181 274 166 Q 307 161 338 152 Q 346 150 362 146 Q 377 143 384 141 Q 391 141 395 146 Z M 322 307 Q 329 305 342 302 Q 355 298 362 298 Q 364 285 369 258 Q 371 249 371 245 Q 366 245 340 249 Q 322 254 316 254 Q 320 280 322 307 Z" fill="black" />
  </g>
  <g class="defect" id="01">
    <path d="M 307 236 Q 368 227 371 214" fill="none" stroke="red" stroke-width="3" />
  </g>
  <g class="defect" id="02">
    <path d="M 154 247 Q 137 441 150 459" fill="none" stroke="red" stroke-width="3" />
  </g>
  <g class="defect" id="03">
    <path d="M 79 258 Q 41 266 35 280" fill="none" stroke="red" stroke-width="3" />
  </g>
</svg>