<svg xmlns="http://www.w3.org/2000/svg" width="512" height="512" viewBox="0 0 512 512">
  <g class="glyph">
    <path d="M 237 157 Q 245 157 252 161 Q 271 138 281 116 Q 279 114 275 112 Q 267 106 264 102 Q 245 125 228 138 Q 201 163 169 138 Q 254 91 281 0 Q 300 21 322 32 Q 318 56 288 66 Q 279 80 269 93 Q 362 87 402 63 Q 438 91 470 95 Q 455 106 446 135 Q 440 161 425 220 Q 406 315 398 311 Q 372 305 324 256 Q 319 252 322 250 Q 324 245 330 248 Q 377 258 379 239 Q 383 222 396 167 Q 404 125 408 106 Q 413 95 402 95 Q 377 102 343 108 Q 360 121 381 129 Q 366 140 349 171 L 339 188 Q 345 193 349 193 Q 353 197 353 231 Q 353 245 339 237 Q 334 235 326 231 Q 319 226 315 224 Q 296 256 273 275 Q 233 317 188 286 Q 252 258 290 207 Q 286 205 277 199 Q 269 195 264 193 Q 254 203 243 214 Q 214 235 182 214 Q 214 199 241 173 Q 235 169 233 167 Q 224 159 226 157 Q 226 154 237 157 Z M 154 13 Q 180 36 207 42 Q 193 49 182 76 Q 154 133 127 173 Q 140 176 150 176 Q 150 178 148 184 Q 144 222 144 248 Q 144 368 144 404 Q 142 446 140 446 Q 108 438 97 421 Q 97 415 104 387 Q 114 334 114 195 Q 108 203 93 220 Q 80 237 72 245 Q 42 275 0 250 Q 89 199 146 68 Q 150 53 152 28 Q 154 17 154 13 Z M 231 326 Q 228 315 233 313 Q 237 309 241 317 Q 294 410 391 400 Q 402 400 400 389 Q 396 379 394 355 Q 391 347 391 345 Q 389 336 391 334 Q 396 332 402 339 Q 413 349 436 377 Q 459 404 470 415 Q 478 429 463 434 Q 271 470 231 326 Z M 440 279 Q 472 286 506 298 Q 512 300 512 336 Q 512 349 510 351 Q 506 353 497 347 Q 470 328 434 288 Q 429 281 429 279 Q 432 277 440 279 Z M 209 324 Q 209 328 209 336 Q 205 385 201 406 Q 195 413 165 408 Q 159 408 157 406 Q 154 402 159 394 Q 163 387 169 374 Q 193 339 201 324 Q 203 317 207 317 Q 209 317 209 324 Z M 298 296 Q 343 315 355 328 Q 353 345 349 362 Q 347 377 339 370 Q 317 347 292 305 Q 290 296 290 296 Q 292 294 298 296 Z M 322 129 Q 305 140 292 159 Q 288 165 284 169 Q 288 169 298 173 Q 307 176 311 178 Q 317 167 324 154 Q 336 125 336 108 Q 317 114 298 116 Q 315 129 322 129 Z" fill="black" />
  </g>
  <g class="defect" id="01">
    <path d="M 322 32 Q 318 56 288 66" fill="none" stroke="red" stroke-width="3" />
  </g>
</svg>