<svg xmlns="http://www.w3.org/2000/svg" width="512" height="512" viewBox="0 0 512 512">
  <g class="glyph">
    <path d="M 309 184 Q 319 193 323 203 Q 325 209 319 209 Q 255 218 198 230 Q 198 250 198 275 Q 230 269 241 257 Q 266 282 305 282 Q 291 300 291 341 Q 291 355 294 378 Q 296 410 296 428 Q 296 446 280 439 Q 253 430 216 398 Q 209 394 209 389 Q 212 387 223 387 Q 253 389 250 380 Q 253 364 250 335 Q 250 316 250 305 Q 250 296 248 296 Q 248 294 241 296 Q 223 298 198 303 Q 198 314 198 339 Q 200 371 200 387 Q 200 412 203 455 Q 203 512 200 510 Q 175 503 148 473 Q 159 455 162 380 Q 162 371 162 353 Q 164 323 164 307 Q 159 307 152 309 Q 134 314 107 319 Q 109 348 107 375 Q 107 387 107 391 Q 107 446 102 446 Q 82 439 64 414 Q 68 360 61 278 Q 64 278 73 282 Q 100 289 107 294 Q 137 289 164 282 V 237 Q 66 257 34 269 Q 32 266 18 253 Q 5 239 0 234 Q 27 232 112 216 Q 146 209 164 207 V 157 Q 152 157 134 159 Q 123 162 121 162 Q 112 159 102 152 Q 96 173 84 191 Q 61 218 20 205 Q 89 143 86 66 Q 107 86 137 86 Q 121 105 114 125 Q 109 132 109 139 Q 118 137 137 132 Q 155 130 164 127 V 109 Q 162 41 148 5 Q 168 16 207 20 Q 198 52 198 112 V 118 Q 207 116 228 112 Q 246 107 255 105 Q 275 114 284 134 Q 230 146 196 150 Q 196 157 196 173 Q 198 191 198 200 Q 246 189 298 182 Q 307 182 309 184 Z M 410 0 Q 437 9 471 7 Q 464 48 462 118 Q 462 180 466 294 Q 471 430 471 489 Q 471 507 455 503 Q 410 482 360 448 Q 353 441 353 437 Q 355 435 364 435 Q 366 435 373 435 Q 423 439 426 435 Q 428 432 428 250 Q 428 177 428 141 Q 426 27 410 0 Z M 362 346 Q 337 328 325 309 Q 344 282 339 189 Q 339 152 328 118 Q 357 130 382 130 Q 373 150 373 189 Q 373 216 375 271 Q 375 319 375 341 Q 375 348 371 350 Q 369 350 362 346 Z" fill="black" />
  </g>
  <g class="defect" id="01">
    <path d="M 64 414 Q 68 360 61 278" fill="none" stroke="red" stroke-width="3" />
  </g>
</svg>