<svg xmlns="http://www.w3.org/2000/svg" width="512" height="512" viewBox="0 0 512 512">
  <g class="glyph">
    <path d="M 157 341 Q 165 343 182 349 Q 188 351 190 353 Q 252 347 267 330 Q 281 351 313 362 Q 286 379 286 419 Q 286 451 336 451 Q 370 451 400 446 Q 415 442 415 429 Q 417 421 419 406 Q 421 394 421 385 Q 423 379 425 379 Q 429 379 432 385 Q 446 417 459 457 Q 461 472 444 476 Q 398 482 326 482 Q 256 478 254 421 Q 254 394 262 364 Q 233 370 190 377 Q 180 446 142 476 Q 127 487 106 487 Q 85 487 61 474 Q 144 446 157 389 Q 163 364 157 341 Z M 501 207 Q 512 214 512 220 Q 510 224 497 226 Q 429 226 413 224 Q 383 220 368 203 Q 339 173 313 142 Q 252 66 222 51 Q 241 38 252 38 Q 262 44 277 59 Q 305 34 324 0 Q 332 17 362 38 Q 347 40 322 55 Q 317 57 309 61 Q 296 68 290 72 L 317 99 Q 362 72 381 42 Q 398 66 423 87 Q 398 89 370 102 Q 353 108 334 114 Q 385 161 421 171 Q 470 188 501 207 Z M 169 40 Q 195 61 224 63 Q 207 76 188 104 Q 132 201 74 250 Q 55 262 36 262 Q 17 262 0 248 Q 116 201 171 68 Q 165 70 152 74 Q 135 83 129 83 Q 123 83 99 68 Q 95 63 95 61 Q 97 59 104 57 Q 146 55 169 40 Z M 171 256 Q 205 264 209 269 Q 212 275 207 296 Q 235 292 250 290 Q 267 262 269 235 Q 290 252 315 256 Q 298 262 288 277 Q 286 277 284 281 Q 279 284 277 286 Q 315 279 288 284 Q 315 279 349 275 Q 358 275 364 281 Q 368 286 374 292 Q 377 296 379 298 Q 383 307 372 309 Q 273 307 138 336 Q 125 336 116 332 Q 108 328 93 313 Q 144 307 193 298 Q 180 284 165 264 Q 163 256 171 256 Z M 315 231 Q 313 231 307 231 Q 226 239 199 243 Q 199 256 197 258 Q 190 258 173 250 Q 184 248 171 248 Q 171 205 148 180 Q 165 180 180 184 Q 256 176 286 159 Q 300 173 332 180 Q 315 188 303 212 Q 311 218 315 231 Z M 279 123 Q 281 125 288 131 Q 290 133 292 135 Q 294 138 294 142 Q 292 144 288 144 Q 260 146 203 159 Q 195 159 188 157 Q 182 152 171 142 Q 166 140 214 133 Q 235 129 235 129 Q 252 123 267 121 Q 277 118 279 123 Z M 190 203 Q 190 214 195 226 Q 207 224 239 220 Q 264 216 275 214 Q 279 201 281 190 Q 281 186 277 186 Q 273 186 260 188 Q 209 199 190 203 Z M 76 95 Q 118 104 123 108 Q 127 114 127 138 Q 127 154 112 148 Q 80 123 70 106 Q 66 102 68 97 Q 70 95 76 95 Z" fill="black" />
  </g>
  <g class="defect" id="01">
    <path d="M 173 250 Q 184 248 171 248" fill="none" stroke="red" stroke-width="3" />
  </g>
  <g class="defect" id="02">
    <path d="M 171 142 Q 166 140 214 133" fill="none" stroke="red" stroke-width="3" />
  </g>
  <g class="defect" id="03">
    <path d="M 188 104 Q 132 201 74 250" fill="none" stroke="red" stroke-width="3" />
  </g>
</svg>