<svg xmlns="http://www.w3.org/2000/svg" width="512" height="512" viewBox="0 0 512 512">
  <g class="glyph">
    <path d="M 30 404 Q 95 352 104 218 Q 97 218 86 220 Q 65 223 48 229 Q 35 227 6 207 Q 0 203 2 199 Q 2 197 11 194 Q 17 194 35 192 Q 80 188 106 186 Q 110 136 106 86 Q 106 52 95 17 Q 102 19 114 24 Q 132 30 136 32 Q 166 30 184 15 Q 203 32 238 37 Q 206 45 225 171 Q 233 169 248 166 Q 266 164 272 164 Q 277 108 272 60 Q 272 28 259 2 Q 270 4 287 13 Q 298 17 302 17 Q 339 15 356 0 Q 376 19 410 19 Q 398 58 398 149 Q 434 145 467 145 Q 480 143 486 151 Q 493 156 503 171 Q 491 194 508 177 Q 512 184 510 190 Q 506 194 499 192 Q 448 186 398 190 Q 398 229 400 343 Q 400 413 389 417 Q 369 417 313 369 Q 307 363 307 356 Q 309 352 318 354 Q 335 359 346 359 Q 359 359 359 348 Q 361 272 361 190 Q 352 192 333 192 Q 313 194 305 194 Q 302 300 285 352 Q 270 404 207 400 Q 266 343 270 197 Q 248 201 225 201 Q 225 274 225 302 Q 225 382 214 387 Q 188 380 147 339 Q 140 333 143 328 Q 143 326 153 328 Q 166 328 175 328 Q 188 328 186 318 Q 186 298 188 261 Q 188 223 190 205 Q 179 207 160 210 Q 145 214 136 214 Q 134 294 117 356 Q 99 410 30 404 Z M 318 41 Q 311 39 305 35 Q 307 65 305 121 Q 305 147 305 160 L 361 153 Q 361 91 361 37 Q 361 32 354 32 Q 343 32 318 41 Z M 149 58 Q 143 54 138 52 Q 138 86 138 181 Q 162 177 190 175 Q 190 95 188 54 Q 188 48 184 48 Q 164 52 149 58 Z" fill="black" />
  </g>
  <g class="defect" id="01">
    <path d="M 499 192 Q 448 186 398 190" fill="none" stroke="red" stroke-width="3" />
  </g>
  <g class="defect" id="02">
    <path d="M 238 37 Q 206 45 225 171" fill="none" stroke="red" stroke-width="3" />
  </g>
  <g class="defect" id="03">
    <path d="M 503 171 Q 491 194 508 177" fill="none" stroke="red" stroke-width="3" />
  </g>
</svg>