<svg xmlns="http://www.w3.org/2000/svg" width="512" height="512" viewBox="0 0 512 512">
  <g class="glyph">
    <path d="M 170 103 Q 186 83 179 106 Q 197 108 202 110 Q 236 53 236 0 Q 266 23 298 30 Q 280 37 266 60 Q 243 87 223 108 Q 250 101 262 92 Q 287 113 328 122 Q 312 138 308 223 Q 308 250 303 282 Q 298 296 289 289 Q 282 282 273 271 Q 243 271 211 278 V 287 Q 211 292 209 294 Q 207 294 202 292 Q 193 285 179 271 Q 186 246 186 209 Q 184 135 170 103 Z M 319 310 Q 296 358 294 425 Q 294 464 360 464 Q 404 464 436 457 Q 459 450 461 432 Q 484 404 473 379 Q 475 370 482 370 Q 487 370 489 379 Q 503 427 512 475 Q 510 489 498 494 Q 429 507 351 503 Q 257 501 259 439 Q 259 427 264 388 Q 266 367 266 358 Q 271 324 262 294 Q 289 308 319 310 Z M 236 326 Q 218 340 204 365 Q 158 445 99 491 Q 78 512 53 510 Q 28 512 0 484 Q 87 468 158 367 Q 181 333 181 292 Q 200 310 236 326 Z M 326 113 Q 363 113 390 94 Q 425 122 468 138 Q 448 152 422 216 Q 418 230 416 234 Q 404 278 397 278 Q 393 276 383 269 Q 356 273 333 280 Q 321 273 312 255 Q 340 248 372 243 Q 388 170 399 133 Q 399 126 393 126 Q 392 141 354 135 Q 349 138 344 138 Q 333 126 326 113 Z M 142 145 Q 140 147 135 149 Q 119 158 108 163 Q 115 202 115 262 Q 133 250 168 236 Q 174 234 179 239 Q 181 243 174 248 Q 115 296 99 328 Q 90 301 62 292 Q 83 276 83 241 Q 83 236 83 225 Q 80 207 80 197 Q 78 168 53 140 Q 90 145 101 147 Q 124 119 124 90 Q 156 117 174 124 Q 172 126 168 129 Q 152 138 142 145 Z M 273 126 Q 273 119 266 119 Q 239 122 209 133 Q 209 154 209 181 Q 216 179 232 177 Q 246 172 248 172 Q 257 177 264 197 Q 236 197 211 202 Q 211 230 211 255 Q 220 253 239 250 Q 257 246 266 246 Q 271 220 273 126 Z" fill="black" />
  </g>
  <g class="defect" id="01">
    <path d="M 461 432 Q 484 404 473 379" fill="none" stroke="red" stroke-width="3" />
  </g>
  <g class="defect" id="02">
    <path d="M 170 103 Q 186 83 179 106" fill="none" stroke="red" stroke-width="3" />
  </g>
  <g class="defect" id="03">
    <path d="M 393 126 Q 392 141 354 135" fill="none" stroke="red" stroke-width="3" />
  </g>
</svg>