<svg xmlns="http://www.w3.org/2000/svg" width="512" height="512" viewBox="0 0 512 512">
  <g class="glyph">
    <path d="M 83 282 Q 87 285 96 289 Q 106 296 110 298 Q 142 276 168 248 Q 154 239 140 232 Q 113 257 80 271 Q 44 282 23 257 Q 115 225 172 154 Q 140 158 122 161 Q 110 156 92 138 Q 108 135 202 117 Q 259 108 280 103 Q 292 99 294 106 Q 278 108 301 113 Q 305 119 310 124 Q 315 131 308 133 Q 230 145 188 152 Q 202 165 223 174 Q 202 179 163 216 Q 211 234 241 271 Q 308 220 331 168 Q 351 197 383 214 Q 365 220 317 248 Q 273 276 253 285 Q 273 296 317 321 Q 374 360 406 370 Q 452 386 496 413 Q 510 422 507 429 Q 507 434 491 436 Q 388 441 370 422 Q 351 411 310 367 Q 280 335 262 319 Q 262 319 262 321 Q 269 365 269 445 Q 269 501 253 512 Q 223 505 163 455 Q 154 448 156 445 Q 156 441 168 443 Q 223 450 223 439 Q 232 409 225 342 Q 147 416 94 452 Q 46 480 2 448 Q 113 411 216 301 Q 209 282 193 269 Q 168 294 140 319 Q 142 321 149 326 Q 152 331 142 360 Q 138 370 135 370 Q 133 372 126 365 Q 119 356 108 342 Q 106 344 101 349 Q 92 356 76 365 Q 34 395 0 363 Q 41 349 90 315 Q 80 301 76 292 Q 71 282 71 280 Q 73 278 83 282 Z M 62 156 Q 34 138 11 131 Q -10 148 11 119 Q 41 87 73 30 Q 76 25 78 25 Q 80 28 80 32 Q 98 25 80 57 Q 349 21 370 0 Q 404 37 455 57 Q 397 92 354 110 Q 344 115 342 113 Q 338 110 342 101 Q 356 76 365 41 Q 262 55 87 85 L 78 73 Q 78 76 78 80 Q 69 138 62 156 Z" fill="black" />
  </g>
  <g class="defect" id="01">
    <path d="M 11 131 Q -10 148 11 119" fill="none" stroke="red" stroke-width="3" />
  </g>
  <g class="defect" id="02">
    <path d="M 294 106 Q 278 108 301 113" fill="none" stroke="red" stroke-width="3" />
  </g>
  <g class="defect" id="03">
    <path d="M 80 32 Q 98 25 80 57" fill="none" stroke="red" stroke-width="3" />
  </g>
</svg>