<svg xmlns="http://www.w3.org/2000/svg" width="512" height="512" viewBox="0 0 512 512">
  <g class="glyph">
    <path d="M 269 175 Q 298 198 335 203 Q 296 241 291 346 Q 282 410 348 403 Q 446 405 446 373 Q 453 339 460 309 Q 462 300 466 300 Q 469 300 473 309 Q 494 364 507 423 Q 512 435 494 437 Q 419 453 337 446 Q 250 451 259 344 Q 262 278 275 209 Q 254 212 237 221 Q 205 228 196 232 Q 196 230 191 228 Q 189 225 187 225 Q 187 239 182 266 Q 171 387 102 437 Q 55 473 0 437 Q 134 398 148 259 Q 155 216 139 187 Q 146 189 162 196 Q 177 203 182 205 Q 239 203 269 175 Z M 353 0 Q 389 25 430 34 Q 400 50 380 100 Q 391 107 403 123 Q 341 127 296 137 Q 296 162 291 162 Q 271 148 266 143 Q 264 64 234 20 Q 237 20 239 20 Q 269 25 280 30 Q 344 14 353 0 Z M 157 23 Q 184 46 232 55 Q 203 75 187 123 Q 189 125 198 132 Q 205 139 207 141 Q 159 148 107 162 Q 112 187 107 187 Q 96 182 80 168 Q 51 82 41 50 Q 59 50 86 55 Q 141 39 157 23 Z M 105 139 159 125 Q 164 105 166 57 Q 155 59 118 71 Q 100 75 91 77 Q 93 86 98 107 Q 102 130 105 139 Z M 294 114 348 100 Q 350 89 353 68 Q 357 46 360 34 Q 350 36 323 41 Q 296 48 284 50 Q 284 59 289 80 Q 291 102 294 114 Z" fill="black" />
  </g>
  <g class="defect" id="01">
    <path d="M 275 209 Q 254 212 237 221" fill="none" stroke="red" stroke-width="3" />
  </g>
  <g class="defect" id="02">
    <path d="M 80 168 Q 51 82 41 50" fill="none" stroke="red" stroke-width="3" />
  </g>
</svg>