<svg xmlns="http://www.w3.org/2000/svg" width="512" height="512" viewBox="0 0 512 512">
  <g class="glyph">
    <path d="M 388 252 Q 457 269 495 283 Q 512 290 510 296 Q 512 302 493 304 Q 453 311 409 311 Q 376 311 355 298 Q 327 275 292 243 Q 250 199 214 180 Q 214 180 212 180 Q 212 225 208 256 Q 220 252 243 241 Q 260 235 266 233 Q 273 231 277 235 Q 279 239 275 243 Q 204 290 180 321 Q 172 298 151 283 Q 185 266 183 189 Q 178 189 172 191 Q 164 195 147 178 Q 132 277 94 380 Q 69 436 23 436 Q 13 436 0 434 Q 92 340 124 107 Q 128 59 113 21 Q 143 23 162 34 Q 174 31 201 25 Q 296 8 338 2 Q 346 0 353 6 Q 365 15 369 23 Q 374 27 371 31 Q 369 34 363 34 Q 254 46 159 63 Q 157 109 149 164 Q 183 159 252 145 Q 279 141 292 138 Q 315 134 353 128 Q 365 126 371 124 Q 382 120 386 130 Q 392 136 399 147 Q 403 157 392 157 Q 317 157 241 174 Q 243 176 250 178 Q 269 191 279 197 Q 296 208 315 220 Q 365 185 374 159 Q 390 180 411 197 Q 423 210 401 199 Q 384 206 371 210 Q 353 220 327 227 Q 359 246 388 252 Z M 206 443 Q 206 474 204 472 Q 187 468 172 455 Q 174 445 174 432 Q 170 359 145 323 Q 168 327 191 334 Q 287 329 329 302 Q 365 329 413 340 Q 378 361 363 405 Q 380 420 384 426 Q 292 432 206 443 Z M 204 418 Q 243 418 321 407 Q 332 369 334 344 Q 260 355 195 359 Q 199 378 204 413 Q 204 418 204 418 Z M 319 73 Q 329 80 334 88 Q 336 90 336 94 Q 334 97 329 97 Q 225 118 206 120 Q 182 118 176 97 Q 208 92 246 84 Q 254 82 269 80 Q 294 73 306 71 Q 317 69 319 73 Z" fill="black" />
  </g>
  <g class="defect" id="01">
    <path d="M 411 197 Q 423 210 401 199" fill="none" stroke="red" stroke-width="3" />
  </g>
  <g class="defect" id="02">
    <path d="M 206 120 Q 182 118 176 97" fill="none" stroke="red" stroke-width="3" />
  </g>
</svg>