<svg xmlns="http://www.w3.org/2000/svg" width="512" height="512" viewBox="0 0 512 512">
  <g class="glyph">
    <path d="M 297 68 Q 321 90 343 101 Q 321 112 301 147 Q 297 152 288 165 Q 283 171 281 174 Q 288 171 297 169 Q 308 167 312 167 Q 323 167 325 169 Q 332 176 338 187 Q 341 196 334 196 Q 305 198 255 207 Q 248 213 237 226 Q 215 253 202 266 Q 246 259 261 244 Q 283 261 323 268 Q 308 288 305 382 Q 305 420 305 442 Q 305 448 297 444 Q 283 433 268 420 Q 235 420 200 424 V 435 Q 200 442 198 444 Q 212 456 191 444 Q 171 431 163 420 Q 174 374 167 305 Q 132 341 99 371 Q 59 402 22 371 Q 84 345 160 268 Q 160 264 160 261 Q 160 261 165 264 Q 189 240 211 213 Q 176 220 152 222 Q 136 211 130 202 Q 160 198 204 189 Q 204 167 204 141 Q 202 141 196 143 Q 180 145 176 143 Q 165 138 156 123 Q 169 123 198 116 Q 178 121 204 114 V 108 Q 204 29 191 0 Q 222 9 246 9 Q 235 46 235 108 Q 251 103 264 103 Q 272 108 279 121 Q 292 90 297 68 Z M 402 193 426 97 382 105 V 369 Q 382 398 382 442 Q 385 512 380 505 Q 356 497 332 472 Q 345 453 347 382 Q 352 235 349 149 Q 349 97 334 73 Q 381 77 378 84 Q 415 79 431 59 Q 453 79 501 88 Q 468 108 422 191 Q 475 231 488 264 Q 508 312 486 341 Q 461 341 400 297 Q 391 290 391 286 Q 391 281 400 283 Q 457 288 442 264 Q 426 220 402 193 Z M 141 251 Q 101 255 55 261 Q 55 275 55 288 Q 38 275 53 292 Q 53 292 48 290 Q 46 288 40 283 Q 26 272 22 270 Q 29 178 0 121 Q 33 127 42 130 Q 90 121 99 108 Q 130 132 163 136 Q 134 167 121 226 Q 134 237 141 251 Z M 200 354 Q 200 380 200 404 Q 204 404 211 402 Q 244 396 266 393 Q 268 352 268 292 Q 270 275 261 275 Q 246 279 224 283 Q 207 288 198 290 Q 198 312 198 334 Q 207 332 226 327 Q 244 323 251 323 Q 257 330 264 347 Q 255 347 233 349 Q 211 352 200 354 Z M 46 152 Q 48 176 53 237 Q 59 237 70 233 Q 86 231 94 229 Q 99 176 101 147 Q 99 141 94 143 Q 88 143 70 147 Q 55 149 46 152 Z M 235 182 Q 255 156 272 130 Q 266 130 251 132 Q 240 136 233 136 V 182 Z" fill="black" />
  </g>
  <g class="defect" id="01">
    <path d="M 334 73 Q 381 77 378 84" fill="none" stroke="red" stroke-width="3" />
  </g>
  <g class="defect" id="02">
    <path d="M 198 444 Q 212 456 191 444" fill="none" stroke="red" stroke-width="3" />
  </g>
  <g class="defect" id="03">
    <path d="M 55 288 Q 38 275 53 292" fill="none" stroke="red" stroke-width="3" />
  </g>
</svg>