<svg xmlns="http://www.w3.org/2000/svg" width="512" height="512" viewBox="0 0 512 512">
  <g class="glyph">
    <path d="M 432 231 Q 423 252 352 247 Q 311 256 293 261 Q 309 274 338 279 Q 318 288 302 306 Q 290 313 283 325 Q 398 304 434 286 Q 478 311 512 315 Q 494 338 489 370 Q 489 384 485 409 Q 482 437 480 450 Q 473 507 464 505 Q 439 498 389 450 Q 382 446 384 441 Q 386 437 395 439 Q 414 443 423 443 Q 432 443 434 434 Q 441 391 446 327 Q 446 320 441 322 Q 439 322 430 325 Q 384 329 352 336 Q 368 343 386 343 Q 379 359 379 391 Q 379 402 379 430 Q 379 475 373 475 Q 352 466 334 450 Q 345 441 345 384 Q 345 357 341 338 Q 302 345 267 352 Q 286 357 295 357 Q 288 370 288 395 Q 290 423 290 434 Q 290 464 283 473 Q 261 459 245 443 Q 273 434 256 395 Q 258 370 251 354 Q 247 354 240 357 Q 224 359 217 361 Q 213 363 206 354 Q 203 352 201 350 Q 203 386 203 453 Q 203 491 197 494 Q 183 487 160 459 Q 169 453 169 414 Q 169 373 153 325 Q 162 325 176 329 Q 192 331 199 334 Q 226 334 258 327 Q 274 295 281 263 Q 251 270 235 270 Q 222 267 203 247 Q 219 245 277 233 Q 304 226 320 224 Q 329 222 350 217 Q 389 208 400 206 Q 418 213 432 231 Z M 121 126 Q 149 149 185 153 Q 158 185 144 242 Q 155 254 167 267 Q 110 274 66 283 Q 71 320 66 327 Q 55 322 37 309 Q 30 185 0 149 Q 14 149 43 155 Q 46 155 48 155 Q 101 146 121 126 Z M 411 41 Q 432 57 466 64 Q 453 75 439 126 Q 437 133 432 146 Q 425 167 421 176 Q 414 183 407 176 Q 402 165 395 151 Q 256 174 219 197 Q 199 188 197 160 Q 222 144 222 103 Q 222 85 215 69 Q 238 82 272 87 Q 263 103 256 123 Q 254 137 247 151 Q 261 149 286 144 Q 299 142 306 142 V 71 Q 306 27 295 0 Q 318 7 359 14 Q 345 39 341 137 Q 368 133 400 130 Q 411 89 411 41 Z M 114 167 Q 71 178 53 183 Q 55 199 57 215 Q 59 235 62 258 Q 91 254 112 247 Q 117 222 121 178 Q 121 174 121 171 Q 121 167 114 167 Z" fill="black" />
  </g>
  <g class="defect" id="01">
    <path d="M 245 443 Q 273 434 256 395" fill="none" stroke="red" stroke-width="3" />
  </g>
  <g class="defect" id="02">
    <path d="M 219 197 Q 199 188 197 160" fill="none" stroke="red" stroke-width="3" />
  </g>
  <g class="defect" id="03">
    <path d="M 432 231 Q 423 252 352 247" fill="none" stroke="red" stroke-width="3" />
  </g>
</svg>