<svg xmlns="http://www.w3.org/2000/svg" width="512" height="512" viewBox="0 0 512 512">
  <g class="glyph">
    <path d="M 444 313 Q 454 313 458 319 Q 460 321 464 328 Q 468 334 471 336 Q 477 350 464 350 Q 429 329 311 361 Q 311 419 309 468 Q 309 512 301 512 Q 280 500 263 471 Q 278 446 278 365 Q 191 375 160 386 Q 153 388 145 383 Q 151 388 143 383 Q 129 369 120 359 Q 205 350 276 336 Q 278 315 272 294 Q 259 298 245 298 Q 245 315 240 315 Q 224 307 209 286 Q 216 272 216 220 Q 216 126 201 99 Q 226 106 238 112 Q 269 44 269 0 Q 298 23 334 35 Q 319 39 301 60 Q 298 64 296 66 Q 282 85 259 108 Q 313 97 338 81 Q 365 102 402 106 Q 379 118 361 145 Q 373 153 379 164 Q 309 172 245 182 Q 245 189 247 201 Q 247 214 247 220 Q 330 205 342 195 Q 367 214 406 222 Q 381 234 365 263 Q 379 274 383 282 Q 369 284 336 288 Q 305 290 290 292 Q 311 296 319 296 Q 315 305 311 328 Q 311 330 311 332 Q 379 319 444 313 Z M 191 199 Q 182 201 168 205 Q 143 211 124 216 Q 124 251 124 301 Q 166 276 180 265 Q 176 276 191 267 Q 193 272 189 276 Q 112 338 46 406 Q 21 383 0 373 Q 54 342 93 319 V 224 Q 89 224 79 226 Q 48 232 44 232 Q 33 232 15 214 Q 31 211 81 199 Q 89 197 93 195 Q 91 116 73 73 Q 77 73 87 75 Q 120 81 137 81 Q 126 114 124 184 Q 147 178 166 174 Q 180 184 191 199 Z M 247 280 Q 252 276 319 265 Q 328 263 332 263 Q 338 243 342 224 Q 290 234 247 238 Z M 245 131 Q 245 145 245 164 Q 265 160 298 151 Q 317 147 325 145 Q 330 139 334 116 Q 334 114 334 112 Q 303 118 245 131 Z" fill="black" />
  </g>
  <g class="defect" id="01">
    <path d="M 247 280 Q 252 276 319 265" fill="none" stroke="red" stroke-width="3" />
  </g>
  <g class="defect" id="02">
    <path d="M 464 350 Q 429 329 311 361" fill="none" stroke="red" stroke-width="3" />
  </g>
  <g class="defect" id="03">
    <path d="M 180 265 Q 176 276 191 267" fill="none" stroke="red" stroke-width="3" />
  </g>
</svg>