<svg xmlns="http://www.w3.org/2000/svg" width="512" height="512" viewBox="0 0 512 512">
  <g class="glyph">
    <path d="M 417 80 Q 428 86 439 102 Q 445 108 436 110 Q 369 121 320 127 Q 318 140 307 166 Q 305 177 302 181 Q 341 173 359 162 Q 391 179 428 181 Q 417 203 413 244 Q 410 281 410 395 Q 449 389 477 389 Q 488 389 493 395 Q 499 404 510 426 Q 512 430 512 430 Q 510 432 506 432 Q 456 426 348 432 Q 231 439 149 454 Q 145 454 132 445 Q 114 430 112 426 Q 134 423 199 417 Q 216 415 225 415 Q 227 387 227 350 Q 227 318 227 242 Q 227 194 216 175 Q 223 177 235 181 Q 251 186 255 188 Q 259 188 268 186 Q 274 186 279 186 Q 281 177 285 160 Q 287 143 289 134 Q 251 140 227 140 Q 216 138 197 121 Q 216 119 255 110 Q 283 104 296 102 Q 309 24 300 0 Q 324 17 363 22 Q 348 37 331 93 Q 346 91 374 84 Q 395 80 406 78 Q 413 78 417 80 Z M 197 190 Q 188 192 164 199 Q 143 205 132 207 Q 112 232 132 298 Q 164 281 188 268 Q 197 266 203 270 Q 207 277 201 281 Q 192 287 164 307 Q 58 378 39 398 Q 28 376 0 352 Q 4 350 17 346 Q 67 326 102 311 Q 102 248 99 214 Q 54 225 50 223 Q 41 218 30 207 Q 28 205 26 203 Q 71 192 99 184 V 160 Q 99 73 82 37 Q 112 48 145 48 Q 134 78 132 175 Q 156 169 173 164 Q 188 171 197 190 Z M 266 212 Q 266 212 264 210 Q 261 210 259 210 Q 273 237 259 244 Q 289 238 328 229 Q 337 233 343 253 Q 320 255 259 264 V 298 Q 268 298 289 292 Q 318 287 333 285 Q 337 289 346 309 Q 307 311 259 320 V 354 Q 274 352 305 348 Q 326 343 337 341 Q 343 348 350 367 Q 311 367 259 376 V 413 Q 315 402 369 400 Q 369 274 369 197 Q 369 190 361 192 Q 324 197 266 212 Z" fill="black" />
  </g>
  <g class="defect" id="01">
    <path d="M 132 207 Q 112 232 132 298" fill="none" stroke="red" stroke-width="3" />
  </g>
  <g class="defect" id="02">
    <path d="M 259 210 Q 273 237 259 244" fill="none" stroke="red" stroke-width="3" />
  </g>
</svg>