<svg xmlns="http://www.w3.org/2000/svg" width="512" height="512" viewBox="0 0 512 512">
  <g class="glyph">
    <path d="M 312 229 Q 305 243 303 267 Q 314 265 336 263 Q 421 254 470 249 Q 479 249 488 258 Q 494 269 501 289 Q 419 287 303 298 Q 303 321 303 363 Q 305 407 305 432 Q 307 510 292 512 Q 254 496 203 456 Q 196 452 198 450 Q 200 447 207 447 Q 211 447 225 447 Q 245 450 252 447 Q 265 447 265 432 Q 269 365 265 303 Q 109 321 40 338 Q 31 334 7 307 Q 2 303 0 301 Q 96 296 263 274 Q 260 247 254 223 Q 214 223 205 223 Q 127 225 129 163 Q 131 105 134 76 Q 123 31 120 16 Q 158 27 169 33 Q 260 20 298 0 Q 323 22 365 27 Q 338 45 323 91 Q 336 107 343 114 Q 325 116 280 120 Q 191 131 163 136 Q 163 151 163 156 Q 158 189 203 187 Q 283 185 343 174 Q 356 169 358 154 Q 358 149 361 140 Q 361 120 365 109 Q 365 100 370 100 Q 374 100 378 107 Q 398 147 412 185 Q 416 203 401 207 Q 341 216 267 220 Q 292 227 312 229 Z M 169 56 Q 167 82 163 114 Q 256 98 287 91 Q 289 82 294 65 Q 284 45 298 38 Q 301 31 294 33 Q 267 38 194 51 Q 176 53 169 56 Z M 129 329 Q 171 341 189 349 Q 196 363 194 390 Q 191 403 189 405 Q 185 407 176 401 Q 151 381 120 343 Q 116 334 118 332 Q 120 327 129 329 Z" fill="black" />
  </g>
  <g class="defect" id="01">
    <path d="M 294 65 Q 284 45 298 38" fill="none" stroke="red" stroke-width="3" />
  </g>
  <g class="defect" id="02">
    <path d="M 134 76 Q 123 31 120 16" fill="none" stroke="red" stroke-width="3" />
  </g>
</svg>