<svg xmlns="http://www.w3.org/2000/svg" width="512" height="512" viewBox="0 0 512 512">
  <g class="glyph">
    <path d="M 129 16 Q 115 47 117 117 V 136 Q 150 124 157 115 Q 181 139 221 141 Q 207 160 207 209 Q 207 214 207 221 Q 211 272 209 310 Q 209 324 195 319 Q 169 308 132 277 Q 124 270 127 268 Q 129 263 139 265 Q 169 268 167 258 Q 169 251 167 200 Q 167 174 167 162 Q 167 153 164 153 Q 164 150 157 153 Q 155 153 150 153 Q 139 155 117 162 Q 120 200 120 272 Q 122 334 122 373 Q 122 390 122 418 Q 124 512 117 510 Q 101 507 70 470 Q 82 442 85 366 Q 85 350 85 312 Q 87 218 85 169 Q 66 171 45 176 Q 45 193 47 235 Q 47 265 47 275 Q 47 336 40 331 Q 14 315 2 298 Q 21 209 0 136 Q 7 139 28 146 Q 38 148 42 150 Q 68 146 85 143 Q 85 124 85 108 Q 85 40 68 0 Q 96 16 129 16 Z M 467 230 Q 383 235 301 247 Q 301 265 301 275 Q 294 277 263 254 Q 263 146 233 80 Q 247 80 284 89 Q 385 78 413 52 Q 446 87 503 94 Q 477 110 444 200 Q 446 202 453 209 Q 465 223 467 230 Z M 289 115 Q 289 117 289 124 Q 296 186 298 218 Q 317 216 359 209 Q 392 204 406 202 Q 420 106 416 99 Q 413 96 357 106 Q 315 113 289 115 Z M 287 305 Q 305 324 336 336 Q 317 348 301 378 Q 270 430 240 456 Q 204 479 162 456 Q 230 423 270 357 Q 284 329 287 305 Z M 399 324 Q 479 364 507 395 Q 512 404 500 451 Q 498 460 493 460 Q 489 463 481 458 Q 444 418 390 334 Q 372 308 385 322 Q 388 319 399 324 Z" fill="black" />
  </g>
  <g class="defect" id="01">
    <path d="M 390 334 Q 372 308 385 322" fill="none" stroke="red" stroke-width="3" />
  </g>
</svg>