<svg xmlns="http://www.w3.org/2000/svg" width="512" height="512" viewBox="0 0 512 512">
  <g class="glyph">
    <path d="M 396 167 Q 387 165 374 150 Q 326 154 290 161 Q 290 180 286 180 Q 275 176 256 161 Q 245 70 220 30 Q 248 32 262 36 Q 355 19 389 0 Q 410 21 463 36 Q 449 44 434 74 Q 429 85 421 108 Q 417 118 415 125 Q 404 167 396 167 Z M 478 239 Q 487 239 495 245 Q 497 248 499 252 Q 506 260 508 264 Q 512 273 501 275 Q 449 275 381 281 Q 381 296 383 328 Q 385 383 387 423 Q 389 476 377 484 Q 345 480 288 436 Q 281 432 284 429 Q 284 425 292 425 Q 317 427 336 425 Q 349 425 349 402 Q 349 366 345 286 Q 339 288 324 290 Q 241 303 220 309 Q 203 313 197 307 Q 188 300 176 288 Q 262 275 345 260 Q 343 233 334 216 Q 324 218 298 222 Q 279 224 273 226 Q 256 224 237 207 Q 288 199 374 178 Q 398 173 406 171 Q 413 171 419 173 Q 425 180 436 190 Q 438 193 438 197 Q 436 199 432 199 Q 413 201 379 207 Q 358 212 347 214 Q 362 216 387 218 Q 385 231 381 254 Q 417 258 478 239 Z M 161 127 Q 188 146 209 154 Q 195 165 171 199 Q 154 226 135 252 Q 142 254 154 256 Q 148 292 148 341 Q 148 476 144 468 Q 121 459 102 438 Q 102 436 104 432 Q 108 421 110 406 Q 116 364 116 279 Q 106 292 83 313 Q 72 324 68 328 Q 53 341 36 343 Q 17 343 0 326 Q 89 271 140 184 Q 159 150 161 127 Z M 271 55 275 89 Q 296 85 334 74 Q 347 72 351 70 Q 362 68 364 74 Q 372 80 379 91 Q 339 97 279 108 L 286 142 Q 328 131 370 127 Q 370 127 374 129 Q 387 85 398 38 Q 400 32 391 32 Q 339 42 271 55 Z M 150 8 Q 169 30 199 38 Q 178 55 163 76 Q 129 129 99 152 Q 87 165 68 165 Q 65 182 36 154 Q 97 114 133 57 Q 146 32 150 8 Z M 245 313 Q 279 326 298 339 Q 303 345 296 374 Q 292 387 288 387 Q 284 389 275 379 Q 260 362 239 322 Q 237 317 239 315 Q 241 311 245 313 Z" fill="black" />
  </g>
  <g class="defect" id="01">
    <path d="M 381 254 Q 417 258 478 239" fill="none" stroke="red" stroke-width="3" />
  </g>
  <g class="defect" id="02">
    <path d="M 68 165 Q 65 182 36 154" fill="none" stroke="red" stroke-width="3" />
  </g>
</svg>