<svg xmlns="http://www.w3.org/2000/svg" width="512" height="512" viewBox="0 0 512 512">
  <g class="glyph">
    <path d="M 240 246 Q 240 349 242 389 Q 242 444 233 444 Q 215 435 193 415 Q 207 358 204 272 Q 202 226 191 198 Q 226 209 240 215 Q 244 215 251 215 Q 277 213 321 207 Q 321 165 321 119 Q 319 35 305 0 Q 338 13 371 11 Q 354 51 356 200 Q 431 185 444 174 Q 472 209 512 215 Q 490 231 490 288 Q 490 314 492 365 Q 494 428 492 448 Q 492 466 477 459 Q 442 448 393 409 Q 387 402 389 400 Q 391 396 400 398 Q 444 400 444 389 Q 444 323 444 231 Q 446 213 433 218 Q 352 233 240 246 Z M 200 152 Q 176 167 163 193 Q 156 202 145 220 Q 134 240 127 248 Q 132 248 138 251 Q 145 251 147 253 Q 126 275 143 319 Q 143 479 136 475 Q 112 470 84 444 Q 105 420 105 279 V 277 Q 97 286 86 297 Q 48 332 0 303 Q 123 233 152 121 Q 178 143 200 152 Z M 393 354 Q 391 354 387 354 Q 354 356 310 363 Q 312 380 308 380 Q 299 378 286 365 Q 283 308 264 279 Q 250 279 281 281 Q 294 283 301 283 Q 345 277 360 264 Q 378 283 413 286 Q 398 297 385 327 Q 382 332 382 334 Q 389 343 393 354 Z M 196 29 Q 174 46 163 68 Q 134 119 101 149 Q 66 180 26 149 Q 130 94 149 0 Q 171 20 196 29 Z M 382 158 374 149 Q 426 92 431 48 Q 457 81 488 92 Q 470 99 444 119 Q 411 141 382 158 Z M 226 105 Q 272 121 283 132 Q 286 134 281 156 Q 279 165 279 169 Q 277 178 275 180 Q 270 180 264 174 Q 244 154 218 114 Q 213 108 215 105 Q 220 103 226 105 Z M 303 303 Q 308 325 308 343 Q 319 341 341 336 Q 352 334 356 334 Q 356 314 360 301 Q 360 294 360 294 Q 358 292 354 294 Q 352 294 347 294 Q 330 297 303 303 Z" fill="black" />
  </g>
  <g class="defect" id="01">
    <path d="M 264 279 Q 250 279 281 281" fill="none" stroke="red" stroke-width="3" />
  </g>
  <g class="defect" id="02">
    <path d="M 147 253 Q 126 275 143 319" fill="none" stroke="red" stroke-width="3" />
  </g>
</svg>