<svg xmlns="http://www.w3.org/2000/svg" width="512" height="512" viewBox="0 0 512 512">
  <g class="glyph">
    <path d="M 219 216 Q 189 236 156 259 Q 156 278 159 321 Q 159 362 161 381 Q 161 463 154 461 Q 124 456 60 411 Q 54 405 56 403 Q 58 398 69 401 Q 105 405 120 401 Q 122 403 122 285 Q 79 317 43 345 Q 26 326 0 306 Q 28 296 101 259 Q 116 253 122 249 Q 122 206 122 169 Q 94 178 75 182 Q 64 184 56 182 Q 51 178 41 169 Q 30 161 26 159 Q 79 148 122 137 Q 120 30 101 0 Q 133 13 167 13 Q 156 45 154 114 V 129 Q 161 126 174 124 Q 184 122 191 122 Q 201 118 206 124 Q 216 137 221 148 Q 191 154 154 161 Q 154 171 156 195 Q 156 219 156 231 Q 165 227 182 219 Q 195 210 201 208 Q 219 206 219 216 Z M 413 225 Q 418 229 426 240 Q 428 242 428 244 Q 435 251 426 253 Q 389 257 351 266 Q 351 304 351 351 Q 413 341 476 334 Q 484 334 491 341 Q 495 347 506 364 Q 510 366 510 368 Q 512 373 512 377 Q 510 379 506 379 Q 388 377 221 405 Q 214 407 206 401 Q 199 392 182 375 Q 204 373 261 366 Q 298 360 319 358 Q 319 311 319 272 Q 276 278 259 278 Q 253 276 240 263 Q 236 257 234 255 Q 261 255 317 240 Q 317 191 311 163 Q 272 171 261 169 Q 251 167 229 148 Q 268 144 383 116 Q 407 109 418 107 Q 424 107 428 109 Q 439 120 448 131 Q 452 137 443 139 Q 418 146 364 154 Q 341 159 330 161 Q 347 163 362 163 Q 356 184 353 234 Q 360 231 371 229 Q 381 227 403 223 Q 409 219 413 225 Z M 304 13 Q 328 17 371 30 Q 377 45 375 69 Q 375 79 371 79 Q 368 81 358 77 Q 328 54 298 26 Q 291 19 291 15 Q 293 13 304 13 Z" fill="black" />
  </g>
  <g class="defect" id="01">
    <path d="M 426 253 Q 389 257 351 266" fill="none" stroke="red" stroke-width="3" />
  </g>
</svg>