<svg xmlns="http://www.w3.org/2000/svg" width="512" height="512" viewBox="0 0 512 512">
  <g class="glyph">
    <path d="M 481 205 Q 487 205 493 211 Q 495 216 500 220 Q 506 226 508 230 Q 512 238 502 240 Q 471 236 425 240 Q 425 243 425 247 Q 423 259 417 282 Q 429 294 433 301 Q 435 303 435 307 Q 433 309 429 309 Q 408 309 363 313 Q 344 315 336 315 Q 336 328 336 359 Q 338 390 338 404 Q 340 466 330 473 Q 290 458 249 421 Q 243 417 243 415 Q 245 410 251 413 Q 305 419 301 406 Q 305 375 305 319 Q 278 321 243 325 Q 232 328 232 328 Q 222 328 205 303 Q 220 303 265 296 Q 290 294 305 292 Q 305 288 305 280 Q 303 272 303 265 Q 303 259 303 253 Q 232 261 205 267 Q 199 267 191 261 Q 180 251 174 240 Q 199 238 251 234 Q 286 230 303 228 Q 301 201 294 189 Q 276 191 249 197 Q 247 197 245 197 Q 232 193 218 172 Q 253 172 323 160 Q 344 118 357 87 Q 315 95 301 99 Q 296 99 290 93 Q 272 129 255 145 Q 230 176 191 158 Q 240 126 278 50 Q 290 17 288 0 Q 307 15 334 25 Q 317 37 309 58 Q 303 66 298 77 Q 350 70 363 54 Q 381 77 423 83 Q 390 102 344 155 Q 388 149 398 141 Q 429 166 462 170 Q 448 184 437 209 Q 460 209 481 205 Z M 201 203 Q 191 209 170 228 Q 155 238 149 245 Q 149 267 149 290 Q 151 336 151 386 Q 153 458 147 456 Q 124 458 68 410 Q 62 406 64 402 Q 64 400 73 402 Q 110 404 114 402 Q 118 383 118 269 Q 93 290 52 325 Q 46 334 41 336 Q 29 319 0 301 Q 33 288 118 236 Q 118 199 118 166 Q 95 172 77 178 Q 70 182 62 176 Q 46 168 37 160 Q 60 153 118 137 Q 116 35 102 10 Q 131 19 160 19 Q 151 60 149 126 Q 166 124 178 118 Q 189 118 193 122 Q 195 124 201 131 Q 221 117 207 139 Q 205 139 201 141 Q 154 149 147 158 Q 147 187 147 218 Q 170 205 189 193 Q 203 191 201 203 Z M 342 189 Q 336 203 334 224 Q 365 218 396 216 Q 400 195 402 176 Q 402 170 394 170 Q 386 172 359 176 Q 323 182 307 187 Q 317 189 342 189 Z M 388 282 Q 388 280 388 276 Q 392 261 392 243 Q 383 243 363 245 Q 344 247 334 249 Q 334 261 334 276 V 288 Q 363 282 388 282 Z" fill="black" />
  </g>
  <g class="defect" id="01">
    <path d="M 201 131 Q 221 117 207 139" fill="none" stroke="red" stroke-width="3" />
  </g>
  <g class="defect" id="02">
    <path d="M 201 141 Q 154 149 147 158" fill="none" stroke="red" stroke-width="3" />
  </g>
</svg>