<svg xmlns="http://www.w3.org/2000/svg" width="512" height="512" viewBox="0 0 512 512">
  <g class="glyph">
    <path d="M 200 233 Q 192 240 170 255 Q 150 270 139 279 Q 139 307 142 353 Q 142 383 142 397 Q 216 331 218 155 Q 222 105 205 72 Q 216 72 244 81 Q 246 83 248 83 Q 327 44 344 0 Q 370 26 397 39 Q 368 44 325 70 Q 344 72 362 72 Q 359 76 359 87 Q 357 96 357 100 Q 364 98 377 94 Q 399 87 412 85 Q 425 96 431 109 Q 392 113 355 120 Q 355 124 355 133 Q 353 148 353 157 Q 418 144 442 133 Q 460 155 492 166 Q 486 168 473 174 Q 442 192 425 198 Q 418 200 416 200 Q 416 198 418 192 Q 420 187 423 183 Q 427 172 429 163 Q 401 170 351 176 Q 342 179 338 179 Q 355 185 375 187 Q 368 196 366 214 Q 390 207 407 203 Q 416 209 427 224 Q 397 231 364 237 Q 364 240 366 244 Q 366 246 368 251 Q 373 259 394 259 Q 440 257 442 240 Q 442 227 447 214 Q 447 209 449 209 Q 451 209 453 214 Q 458 222 464 242 Q 471 255 473 261 Q 477 275 464 277 Q 434 288 381 288 Q 336 283 340 244 Q 327 246 314 248 Q 307 248 296 237 Q 285 346 244 416 Q 220 455 172 440 Q 251 381 266 237 Q 272 176 261 150 Q 277 155 301 161 Q 312 161 329 159 Q 329 94 318 72 Q 290 89 248 102 Q 248 275 216 359 Q 194 416 142 405 Q 142 464 133 468 Q 109 464 57 420 Q 50 414 50 412 Q 52 410 61 410 Q 89 414 105 410 Q 109 405 109 303 Q 96 312 68 333 Q 46 351 35 359 Q 24 338 0 320 Q 41 303 109 268 V 194 Q 83 200 61 207 Q 59 205 57 203 Q 39 187 35 179 Q 65 174 109 166 V 153 Q 89 41 92 13 Q 120 24 153 24 Q 155 44 139 135 V 157 Q 157 153 172 150 Q 179 148 185 155 Q 194 166 198 174 Q 168 179 139 187 V 251 Q 166 237 187 224 Q 200 222 200 233 Z M 388 296 Q 401 312 434 316 Q 407 329 405 388 Q 403 418 434 420 Q 462 420 466 403 Q 471 381 475 357 Q 477 351 479 351 Q 481 351 484 357 Q 484 359 488 366 Q 499 405 508 436 Q 512 440 501 444 Q 475 453 427 453 Q 373 455 377 388 Q 379 353 386 327 Q 366 331 349 338 Q 346 336 344 336 Q 342 333 340 333 Q 333 416 305 442 Q 270 475 231 451 Q 296 427 309 353 Q 312 329 305 303 Q 322 309 342 314 Q 375 309 388 296 Z M 301 187 Q 301 194 298 209 Q 298 224 296 231 Q 303 229 322 224 Q 333 222 340 220 Q 340 196 336 181 Q 316 183 301 187 Z" fill="black" />
  </g>
  <g class="defect" id="01">
    <path d="M 153 24 Q 155 44 139 135" fill="none" stroke="red" stroke-width="3" />
  </g>
  <g class="defect" id="02">
    <path d="M 109 153 Q 89 41 92 13" fill="none" stroke="red" stroke-width="3" />
  </g>
</svg>