<svg xmlns="http://www.w3.org/2000/svg" width="512" height="512" viewBox="0 0 512 512">
  <g class="glyph">
    <path d="M 14 258 Q 32 261 59 272 Q 171 261 226 240 Q 263 267 302 272 Q 279 293 279 350 Q 279 469 277 503 Q 277 512 272 512 Q 267 512 258 505 Q 235 487 219 466 Q 149 466 66 475 V 494 Q 66 503 64 505 Q 59 507 55 503 Q 50 498 37 485 Q 8 459 21 471 Q 32 439 30 357 Q 27 283 14 258 Z M 0 0 Q 25 14 62 18 Q 48 37 46 69 Q 41 89 41 110 Q 206 53 226 14 Q 249 48 274 66 Q 256 69 208 85 Q 119 114 41 130 V 139 Q 37 181 89 178 Q 187 178 251 162 Q 267 160 270 146 Q 272 121 281 87 Q 296 78 286 78 Q 288 78 293 85 Q 318 146 329 176 Q 336 197 315 199 Q 203 217 82 215 Q 0 217 5 142 Q 7 119 7 66 Q 7 27 0 0 Z M 66 386 V 455 Q 146 448 213 439 Q 219 446 224 455 Q 224 455 226 453 Q 229 448 229 441 Q 229 425 229 382 Q 231 329 231 304 Q 231 274 222 277 Q 208 279 155 286 Q 89 293 66 297 V 361 Q 87 357 133 350 Q 176 343 187 341 Q 199 350 210 373 Q 185 373 91 384 Q 73 386 66 386 Z" fill="black" />
  </g>
  <g class="defect" id="01">
    <path d="M 37 485 Q 8 459 21 471" fill="none" stroke="red" stroke-width="3" />
  </g>
  <g class="defect" id="02">
    <path d="M 281 87 Q 296 78 286 78" fill="none" stroke="red" stroke-width="3" />
  </g>
</svg>