<svg xmlns="http://www.w3.org/2000/svg" width="512" height="512" viewBox="0 0 512 512">
  <g class="glyph">
    <path d="M 234 165 Q 238 169 242 176 Q 247 180 249 182 Q 251 188 245 190 Q 207 190 161 201 Q 157 247 157 267 Q 178 263 190 253 Q 215 276 255 280 Q 222 311 207 345 Q 219 355 230 368 Q 217 370 194 372 Q 132 378 107 380 Q 111 408 104 408 Q 92 403 79 391 Q 79 389 77 382 Q 73 355 65 320 Q 59 290 44 274 Q 52 274 65 276 Q 79 276 86 278 Q 107 278 125 274 Q 127 263 127 240 Q 130 217 130 205 Q 90 213 42 226 Q 33 228 23 222 Q 13 215 0 199 Q 61 192 130 178 Q 134 140 130 113 Q 123 113 111 117 Q 96 121 90 121 Q 65 119 48 98 Q 115 88 178 56 Q 201 46 213 31 Q 222 46 247 71 Q 217 77 196 88 Q 176 98 150 104 Q 163 109 173 109 Q 163 136 163 171 Q 192 165 222 161 Q 232 161 234 165 Z M 255 236 Q 265 230 272 230 Q 295 245 324 276 Q 341 234 339 180 Q 334 180 326 182 Q 320 184 313 184 Q 307 182 301 178 Q 299 184 288 199 Q 284 205 282 209 Q 270 230 240 230 Q 228 230 213 224 Q 278 182 309 56 Q 316 25 316 0 Q 341 19 368 23 Q 351 40 343 67 Q 324 134 311 157 Q 345 153 385 138 Q 414 130 426 125 Q 435 121 441 127 Q 451 136 460 146 Q 464 153 456 155 Q 401 167 347 178 Q 364 188 387 188 Q 387 215 368 232 Q 362 270 349 301 Q 389 343 418 355 Q 424 357 437 364 Q 476 380 493 393 Q 512 403 510 408 Q 510 412 489 412 Q 453 412 422 408 Q 397 405 376 385 Q 364 368 334 330 Q 309 380 270 401 Q 257 408 242 408 Q 224 408 201 389 Q 280 370 311 301 Q 280 263 255 245 Q 249 240 255 236 Z M 94 299 Q 96 307 100 328 Q 102 349 104 359 Q 142 353 178 347 Q 180 334 184 305 Q 188 290 188 284 Q 169 286 134 293 Q 109 297 94 299 Z" fill="black" />
  </g>
  <g class="defect" id="01">
    <path d="M 311 157 Q 345 153 385 138" fill="none" stroke="red" stroke-width="3" />
  </g>
  <g class="defect" id="02">
    <path d="M 387 188 Q 387 215 368 232" fill="none" stroke="red" stroke-width="3" />
  </g>
</svg>