<svg xmlns="http://www.w3.org/2000/svg" width="512" height="512" viewBox="0 0 512 512">
  <g class="glyph">
    <path d="M 137 356 Q 119 371 98 360 Q 98 377 94 387 Q 119 385 184 373 Q 223 365 240 362 Q 246 360 252 367 Q 260 375 266 387 Q 268 393 266 393 Q 266 395 262 395 Q 150 395 70 422 Q 68 406 55 391 Q 84 367 70 299 Q 55 301 39 305 Q 29 309 23 303 Q 4 285 0 279 Q 51 272 100 266 Q 102 195 102 127 Q 98 127 90 129 Q 76 131 72 129 Q 66 127 53 115 Q 51 113 49 111 Q 57 111 86 104 Q 94 102 100 102 Q 100 70 90 39 Q 119 51 141 51 Q 135 61 131 96 Q 143 94 164 88 Q 186 84 197 82 V 72 Q 197 29 184 2 Q 211 14 242 14 Q 233 27 229 74 Q 236 74 242 72 Q 250 72 254 74 Q 258 76 262 84 Q 266 90 268 92 Q 270 96 266 98 Q 266 96 264 98 Q 246 100 227 104 Q 225 158 225 244 Q 244 240 262 238 Q 279 223 276 242 Q 279 244 283 248 Q 285 252 287 256 Q 291 262 285 264 Q 188 272 78 297 Q 98 301 109 301 Q 104 313 100 350 Q 139 328 147 287 Q 156 297 174 307 Q 172 305 178 309 Q 168 313 158 332 Q 147 348 137 356 Z M 418 12 Q 403 41 403 121 V 248 Q 444 238 483 231 Q 487 227 496 238 Q 506 248 510 258 Q 512 262 512 264 Q 510 266 506 266 Q 455 270 403 279 Q 403 317 403 352 Q 408 455 403 469 Q 389 465 354 428 Q 373 406 371 334 V 285 Q 358 287 338 291 Q 301 297 287 301 Q 281 301 272 299 Q 262 293 252 283 Q 248 279 250 279 Q 250 276 256 276 Q 309 270 373 254 Q 373 178 373 100 Q 371 23 358 0 Q 395 12 418 12 Z M 197 111 Q 154 119 129 121 Q 129 137 129 154 Q 137 152 152 147 Q 168 143 174 143 Q 182 152 186 166 Q 184 166 178 166 Q 143 170 129 174 Q 129 178 129 190 Q 127 203 127 209 Q 150 203 174 197 Q 180 201 190 219 Q 186 219 176 221 Q 141 223 127 227 V 260 Q 162 254 195 248 Q 197 168 197 111 Z M 276 168 Q 309 174 332 184 Q 336 195 332 215 Q 332 223 330 225 Q 326 227 322 223 Q 297 205 272 176 Q 268 170 270 168 Q 270 166 276 168 Z M 193 293 Q 225 301 248 313 Q 250 324 244 346 Q 242 354 233 348 Q 205 324 186 299 Q 182 295 184 293 Q 184 293 193 293 Z M 299 100 Q 319 102 350 113 Q 352 117 352 141 Q 352 154 342 150 Q 319 137 295 111 Q 291 104 293 102 Q 293 100 299 100 Z" fill="black" />
  </g>
  <g class="defect" id="01">
    <path d="M 262 238 Q 279 223 276 242" fill="none" stroke="red" stroke-width="3" />
  </g>
</svg>