<svg xmlns="http://www.w3.org/2000/svg" width="512" height="512" viewBox="0 0 512 512">
  <g class="glyph">
    <path d="M 254 153 Q 231 134 225 122 Q 332 109 382 83 Q 407 109 444 120 Q 419 132 403 182 Q 378 244 349 293 Q 388 337 419 349 Q 465 374 504 401 Q 512 407 512 413 Q 510 417 500 417 Q 442 417 407 411 Q 384 411 363 382 Q 363 359 324 328 Q 299 359 275 378 Q 217 421 171 378 Q 250 357 303 297 Q 301 293 295 285 Q 252 227 225 204 Q 219 198 223 194 Q 242 195 244 190 Q 270 209 324 266 Q 365 204 384 116 Q 310 132 254 153 Z M 209 147 Q 219 147 221 151 Q 229 163 233 171 Q 227 173 215 175 Q 202 178 163 186 V 233 Q 167 235 175 237 Q 211 246 221 252 Q 227 260 225 289 Q 225 297 223 299 Q 219 301 215 297 Q 180 268 163 250 V 297 Q 163 308 163 330 Q 165 458 157 454 Q 142 452 114 417 Q 128 374 132 248 Q 107 293 81 334 Q 52 380 0 357 Q 60 320 128 194 Q 91 202 62 213 Q 41 192 33 182 Q 47 180 83 173 Q 135 146 132 163 Q 132 145 132 130 Q 130 41 109 0 Q 114 0 120 2 Q 147 6 175 8 Q 165 39 163 118 Q 163 134 163 157 Q 186 151 209 147 Z M 285 161 Q 326 167 332 171 Q 337 178 337 202 Q 337 209 334 211 Q 330 213 326 209 Q 299 192 281 171 Q 277 167 277 163 Q 279 161 285 161 Z" fill="black" />
  </g>
  <g class="defect" id="01">
    <path d="M 363 382 Q 363 359 324 328" fill="none" stroke="red" stroke-width="3" />
  </g>
  <g class="defect" id="02">
    <path d="M 223 194 Q 242 195 244 190" fill="none" stroke="red" stroke-width="3" />
  </g>
  <g class="defect" id="03">
    <path d="M 83 173 Q 135 146 132 163" fill="none" stroke="red" stroke-width="3" />
  </g>
</svg>