<svg xmlns="http://www.w3.org/2000/svg" width="512" height="512" viewBox="0 0 512 512">
  <g class="glyph">
    <path d="M 111 0 Q 138 10 173 10 Q 154 37 156 113 Q 154 125 154 140 Q 160 138 175 136 Q 185 132 189 132 Q 197 130 204 136 Q 208 138 214 146 Q 218 150 220 152 Q 181 162 154 171 V 218 Q 158 218 164 220 Q 189 226 204 234 Q 210 239 210 269 Q 206 284 199 278 Q 175 255 154 232 V 288 Q 154 345 154 391 Q 278 333 298 156 Q 288 160 269 164 Q 265 164 263 164 L 251 152 Q 251 193 239 232 Q 230 224 214 216 Q 208 212 204 210 Q 195 204 202 197 Q 220 175 245 121 Q 247 117 249 117 Q 251 117 251 123 Q 253 132 253 142 Q 265 138 292 136 Q 298 134 300 134 Q 300 132 302 130 Q 302 127 302 127 Q 306 45 292 14 Q 317 23 350 23 Q 335 53 335 105 Q 333 115 333 125 Q 397 113 415 101 Q 442 130 481 146 Q 448 169 395 187 Q 385 189 382 187 Q 380 185 385 177 Q 395 162 409 134 Q 393 136 354 146 Q 339 148 331 150 Q 329 177 323 204 Q 343 214 370 214 Q 358 226 354 259 Q 348 296 345 327 Q 341 366 401 362 Q 461 364 461 341 Q 463 335 467 317 Q 469 302 471 296 Q 473 290 477 288 Q 481 288 483 294 Q 496 327 508 382 Q 512 391 500 395 Q 461 405 405 403 Q 310 405 319 329 Q 319 321 321 288 Q 325 261 325 249 Q 325 226 321 210 Q 300 302 251 366 Q 208 417 154 393 Q 154 438 148 440 Q 130 432 107 405 Q 106 362 125 236 Q 90 302 76 321 Q 49 362 0 341 Q 66 300 125 177 Q 105 183 72 191 Q 84 189 62 195 Q 56 197 47 191 Q 45 189 37 181 Q 27 175 25 173 Q 39 169 72 160 Q 109 152 125 148 V 125 Q 123 25 111 0 Z" fill="black" />
  </g>
  <g class="defect" id="01">
    <path d="M 107 405 Q 106 362 125 236" fill="none" stroke="red" stroke-width="3" />
  </g>
</svg>