<svg xmlns="http://www.w3.org/2000/svg" width="512" height="512" viewBox="0 0 512 512">
  <g class="glyph">
    <path d="M 206 136 Q 216 136 218 141 Q 218 143 220 145 Q 229 157 231 162 Q 199 166 166 172 Q 166 195 166 218 Q 197 227 214 233 Q 220 239 220 273 Q 218 281 216 281 Q 198 283 208 279 Q 189 262 166 239 Q 166 256 166 292 Q 168 334 168 355 Q 168 367 168 392 Q 170 466 164 464 Q 151 462 118 420 Q 130 386 134 233 Q 109 290 82 329 Q 52 374 0 353 Q 63 313 126 183 Q 94 191 65 201 Q 48 187 36 172 Q 84 164 134 151 Q 134 136 134 124 Q 132 27 115 0 Q 147 10 178 10 Q 166 52 166 111 Q 166 130 166 145 Q 172 143 187 141 Q 199 136 206 136 Z M 418 225 Q 426 233 432 243 Q 436 246 434 248 Q 434 252 430 252 Q 386 262 353 266 Q 353 302 353 353 Q 415 342 476 336 Q 485 336 491 342 Q 495 348 506 365 Q 510 367 510 369 Q 512 374 512 378 Q 510 380 506 380 Q 392 376 225 403 Q 218 405 210 399 Q 187 405 187 374 Q 241 369 321 357 Q 321 311 321 271 Q 277 279 264 277 Q 254 273 239 256 Q 285 250 319 241 Q 319 193 313 168 Q 271 174 264 172 Q 254 170 233 151 Q 269 147 380 122 Q 407 115 422 113 Q 428 111 432 115 Q 436 118 443 126 Q 449 132 451 134 Q 457 141 449 143 Q 378 159 334 164 Q 342 166 363 166 Q 357 187 355 235 Q 384 229 407 222 Q 413 222 418 225 Z M 302 19 Q 348 25 371 31 Q 376 42 376 73 Q 376 82 371 84 Q 369 86 361 82 Q 340 69 296 29 Q 290 21 290 19 Q 292 17 302 19 Z" fill="black" />
  </g>
  <g class="defect" id="01">
    <path d="M 210 399 Q 187 405 187 374" fill="none" stroke="red" stroke-width="3" />
  </g>
  <g class="defect" id="02">
    <path d="M 216 281 Q 198 283 208 279" fill="none" stroke="red" stroke-width="3" />
  </g>
</svg>