<svg xmlns="http://www.w3.org/2000/svg" width="512" height="512" viewBox="0 0 512 512">
  <g class="glyph">
    <path d="M 472 353 Q 484 353 489 360 Q 506 377 508 387 Q 512 394 510 396 Q 510 398 504 398 Q 382 394 216 415 Q 205 419 199 413 Q 184 398 178 387 Q 218 387 315 372 V 311 Q 303 311 281 313 Q 258 317 256 315 Q 243 309 231 294 Q 275 288 313 279 Q 313 237 303 216 Q 260 226 237 239 Q 228 214 216 201 Q 252 188 269 167 Q 307 121 313 87 Q 305 87 290 89 Q 252 95 250 93 Q 237 89 224 70 Q 243 70 332 49 Q 391 36 415 32 Q 421 30 425 34 Q 425 32 427 34 Q 432 36 438 44 Q 444 51 446 55 Q 449 59 449 61 Q 446 63 442 63 Q 445 80 387 72 Q 341 80 319 85 Q 336 102 362 108 Q 347 118 324 144 Q 298 176 279 190 Q 284 190 292 188 Q 360 176 394 171 Q 381 159 372 146 Q 368 140 370 138 Q 372 135 379 138 Q 432 154 449 167 Q 455 169 455 180 Q 455 201 453 212 Q 451 220 449 222 Q 444 222 438 218 Q 425 203 410 190 Q 372 197 313 212 Q 334 216 360 216 Q 353 231 349 262 Q 349 269 349 273 Q 360 271 379 267 Q 398 264 406 262 Q 419 271 429 284 Q 436 290 427 292 Q 417 294 396 298 Q 364 303 349 305 Q 347 336 347 368 Q 408 360 472 353 Z M 110 0 Q 142 11 178 11 Q 163 40 163 121 Q 161 129 161 138 Q 184 135 205 129 Q 212 127 218 133 Q 228 144 233 157 Q 218 159 180 165 Q 167 167 161 167 V 218 Q 201 228 214 235 Q 218 243 218 273 Q 218 286 209 281 Q 193 271 161 233 Q 161 264 161 298 Q 161 311 161 341 Q 163 461 157 459 Q 135 453 110 421 Q 125 374 129 233 Q 110 279 78 328 Q 51 372 0 351 Q 61 309 127 173 Q 72 186 57 193 Q 47 186 28 161 Q 55 159 114 148 Q 125 146 131 146 V 133 Q 127 17 110 0 Z" fill="black" />
  </g>
  <g class="defect" id="01">
    <path d="M 442 63 Q 445 80 387 72" fill="none" stroke="red" stroke-width="3" />
  </g>
  <g class="defect" id="02">
    <path d="M 504 398 Q 382 394 216 415" fill="none" stroke="red" stroke-width="3" />
  </g>
</svg>