<svg xmlns="http://www.w3.org/2000/svg" width="512" height="512" viewBox="0 0 512 512">
  <g class="glyph">
    <path d="M 487 339 Q 491 343 504 360 Q 506 362 508 364 Q 512 373 502 373 Q 429 370 298 395 Q 287 389 281 381 Q 281 393 279 414 Q 279 472 275 468 Q 244 456 233 437 Q 237 429 244 408 Q 254 291 252 181 Q 250 187 246 194 Q 221 227 181 208 Q 237 164 283 60 Q 300 19 298 0 Q 314 12 343 23 Q 325 46 314 69 Q 298 106 262 167 Q 266 167 277 169 Q 285 171 289 173 Q 281 189 281 248 Q 281 314 281 368 Q 321 364 360 356 Q 360 327 360 302 Q 329 308 327 306 Q 321 306 302 287 Q 333 283 360 275 V 231 Q 335 235 321 237 Q 308 231 300 219 Q 323 214 360 206 Q 358 177 352 162 Q 335 182 312 169 Q 304 164 285 148 Q 316 144 375 129 Q 420 117 443 112 Q 450 110 456 117 Q 458 119 460 121 Q 468 129 470 131 Q 475 137 468 139 Q 416 148 358 160 Q 379 167 402 167 Q 400 177 395 196 Q 412 191 427 189 Q 437 187 437 191 Q 425 194 445 200 Q 450 204 452 204 Q 454 210 452 210 Q 452 212 447 212 Q 423 219 393 225 Q 393 231 393 244 Q 391 260 391 268 Q 395 266 404 264 Q 416 262 435 258 Q 439 258 445 260 Q 443 260 447 262 Q 454 268 460 277 Q 464 281 462 281 Q 462 283 458 283 Q 441 287 391 296 Q 391 321 393 350 Q 414 345 458 337 Q 468 335 475 335 Q 470 333 487 339 Z M 114 0 Q 137 8 171 8 Q 158 42 156 121 Q 156 129 156 146 L 194 137 Q 202 135 208 139 Q 210 142 216 150 Q 221 158 223 162 Q 191 164 156 173 V 223 Q 164 225 177 229 Q 202 237 210 241 Q 214 246 214 279 Q 212 293 206 287 Q 179 266 156 239 V 283 Q 156 296 156 325 Q 158 454 152 452 Q 137 447 112 414 Q 127 373 129 235 Q 100 293 75 329 Q 48 368 0 350 Q 65 308 125 179 Q 79 189 65 198 Q 50 183 35 169 Q 77 162 129 150 V 133 Q 127 25 114 0 Z M 352 52 Q 383 58 406 67 Q 412 71 408 96 Q 408 96 408 100 Q 406 110 402 110 Q 400 112 391 106 Q 366 87 348 62 Q 341 56 343 54 Q 343 50 352 52 Z" fill="black" />
  </g>
  <g class="defect" id="01">
    <path d="M 475 335 Q 470 333 487 339" fill="none" stroke="red" stroke-width="3" />
  </g>
  <g class="defect" id="02">
    <path d="M 352 162 Q 335 182 312 169" fill="none" stroke="red" stroke-width="3" />
  </g>
  <g class="defect" id="03">
    <path d="M 437 191 Q 425 194 445 200" fill="none" stroke="red" stroke-width="3" />
  </g>
</svg>