<svg xmlns="http://www.w3.org/2000/svg" width="512" height="512" viewBox="0 0 512 512">
  <g class="glyph">
    <path d="M 114 0 Q 133 8 173 8 Q 158 38 158 114 Q 158 126 158 137 Q 177 133 192 131 Q 200 129 206 133 Q 209 135 211 139 Q 219 152 221 156 Q 190 160 158 166 V 206 Q 164 209 177 213 Q 190 215 206 221 Q 211 230 211 259 Q 209 268 206 270 Q 206 272 202 268 Q 188 257 158 223 V 280 Q 158 348 158 405 Q 234 339 242 188 Q 249 126 232 91 Q 251 95 276 105 Q 346 95 438 76 Q 449 74 453 80 Q 459 84 468 99 Q 472 103 470 105 Q 470 107 466 107 Q 392 114 278 131 Q 274 297 230 379 Q 206 415 158 405 Q 158 409 156 417 Q 156 440 152 438 Q 141 436 110 400 Q 126 362 129 221 Q 101 280 76 316 Q 44 352 0 333 Q 67 293 122 175 Q 110 177 84 185 Q 72 188 65 190 Q 46 177 38 162 Q 53 160 95 152 Q 118 147 129 145 V 126 Q 129 116 126 99 Q 124 21 114 0 Z M 440 215 Q 445 219 451 225 Q 455 232 457 234 Q 461 242 451 242 Q 440 244 415 249 Q 392 251 381 253 Q 381 308 381 350 Q 388 350 400 348 Q 455 341 476 339 Q 487 339 491 346 Q 497 352 510 371 Q 512 375 512 379 Q 510 381 506 381 Q 400 375 274 394 Q 265 396 259 392 Q 257 388 249 379 Q 242 369 238 367 Q 243 367 339 356 Q 335 356 350 354 Q 350 312 350 257 Q 348 257 343 257 Q 320 261 310 259 Q 301 259 280 238 Q 299 236 350 228 Q 350 166 337 133 Q 365 143 394 143 Q 383 175 383 221 Q 392 219 407 217 Q 421 213 428 213 Q 438 213 440 215 Z M 327 6 Q 373 15 388 23 Q 392 25 388 55 Q 388 61 388 63 Q 386 70 383 72 Q 381 72 375 67 Q 354 55 322 17 Q 316 8 318 6 Q 318 4 327 6 Z" fill="black" />
  </g>
  <g class="defect" id="01">
    <path d="M 238 367 Q 243 367 339 356" fill="none" stroke="red" stroke-width="3" />
  </g>
</svg>