<svg xmlns="http://www.w3.org/2000/svg" width="512" height="512" viewBox="0 0 512 512">
  <g class="glyph">
    <path d="M 132 0 Q 166 14 200 14 Q 204 41 184 116 Q 184 127 184 132 Q 184 141 184 155 Q 189 155 196 152 Q 207 148 228 143 Q 241 143 246 148 Q 253 155 262 173 Q 257 173 248 175 Q 230 180 184 189 V 246 Q 232 257 243 264 Q 248 273 248 309 Q 246 316 243 319 Q 243 321 239 316 Q 209 289 184 262 V 309 Q 184 460 177 498 Q 152 487 125 453 Q 148 416 150 253 Q 125 305 89 360 Q 59 405 0 380 Q 71 337 143 198 Q 102 205 68 212 Q 46 200 36 184 Q 64 184 150 164 V 148 Q 148 32 132 0 Z M 323 191 316 182 V 225 V 332 Q 316 380 312 385 Q 289 373 269 344 Q 287 325 282 214 Q 282 173 273 148 Q 280 150 294 155 Q 309 159 314 162 Q 328 162 355 157 Q 351 162 360 157 Q 364 30 346 0 Q 375 9 410 9 Q 398 25 396 66 Q 410 61 437 55 Q 462 46 476 43 Q 482 39 487 46 Q 498 52 503 61 Q 507 68 501 71 Q 403 96 394 91 Q 394 114 394 150 Q 426 143 437 132 Q 471 157 505 157 Q 492 180 496 296 Q 496 305 496 309 Q 498 375 492 387 Q 471 378 439 346 Q 446 339 446 325 Q 446 228 444 173 Q 444 166 437 168 Q 391 175 323 191 Z M 353 207 Q 373 216 414 218 Q 403 230 396 294 Q 387 416 321 469 Q 273 507 221 473 Q 346 430 360 294 Q 366 241 353 207 Z M 403 382 Q 469 407 505 432 Q 512 437 505 476 Q 516 487 498 487 Q 496 489 487 482 Q 441 448 396 391 Q 389 385 391 382 Q 394 380 403 382 Z" fill="black" />
  </g>
  <g class="defect" id="01">
    <path d="M 355 157 Q 351 162 360 157" fill="none" stroke="red" stroke-width="3" />
  </g>
  <g class="defect" id="02">
    <path d="M 200 14 Q 204 41 184 116" fill="none" stroke="red" stroke-width="3" />
  </g>
  <g class="defect" id="03">
    <path d="M 505 476 Q 516 487 498 487" fill="none" stroke="red" stroke-width="3" />
  </g>
</svg>