<svg xmlns="http://www.w3.org/2000/svg" width="512" height="512" viewBox="0 0 512 512">
  <g class="glyph">
    <path d="M 480 300 Q 489 300 495 307 Q 497 309 504 317 Q 508 324 510 328 Q 512 332 512 334 Q 510 336 504 336 Q 453 336 391 343 Q 391 353 394 372 Q 396 421 396 442 Q 396 495 387 495 Q 355 487 311 449 Q 300 440 303 440 Q 303 436 315 438 Q 362 442 360 432 Q 364 389 360 345 Q 315 351 273 360 Q 307 377 317 387 Q 319 389 305 421 Q 298 429 294 421 Q 275 394 262 362 Q 260 362 260 362 Q 237 364 218 370 Q 205 374 197 368 Q 180 351 176 343 Q 228 341 358 317 Q 353 292 349 286 Q 290 294 269 296 Q 269 300 269 300 Q 269 309 267 311 Q 264 311 258 307 Q 250 300 237 288 Q 250 218 231 161 Q 233 161 235 161 Q 254 165 262 169 Q 269 167 279 167 Q 290 165 296 165 Q 296 146 294 127 Q 262 133 237 140 Q 233 140 226 135 Q 212 125 203 116 Q 241 112 347 93 Q 431 98 451 74 Q 457 72 463 80 Q 474 91 478 99 Q 482 104 480 106 Q 480 108 474 108 Q 421 108 343 118 Q 349 123 366 127 Q 368 127 370 127 Q 364 133 362 150 Q 385 146 391 140 Q 419 150 451 157 Q 436 173 440 243 Q 442 275 436 290 Q 434 296 432 296 Q 429 296 425 292 Q 423 290 417 286 Q 413 281 408 279 Q 383 279 351 286 Q 362 288 381 290 Q 391 292 396 292 Q 391 298 391 313 Q 436 307 480 300 Z M 102 21 Q 129 32 161 32 Q 154 57 150 121 Q 150 135 150 142 Q 150 148 150 154 Q 167 150 182 148 Q 190 146 197 150 Q 205 163 212 176 Q 180 180 150 186 V 231 Q 161 233 178 239 Q 188 243 193 243 Q 199 245 199 279 Q 197 294 188 288 Q 184 284 176 275 Q 157 258 150 250 Q 150 284 150 319 Q 150 339 150 383 Q 152 487 148 484 Q 123 476 97 446 Q 114 404 118 256 Q 99 300 76 334 Q 51 372 0 351 Q 63 307 116 193 Q 110 195 97 199 Q 85 201 61 209 Q 51 203 30 178 Q 80 171 118 161 V 152 Q 116 53 102 21 Z M 269 190 267 188 Q 267 235 267 277 Q 284 275 319 269 Q 377 258 400 256 Q 402 250 402 245 Q 402 195 402 171 Q 402 167 394 167 Q 377 169 358 173 V 180 Q 358 197 368 197 Q 389 197 381 190 Q 398 199 400 209 Q 387 216 362 216 Q 334 214 339 182 Q 339 182 339 178 Q 328 178 315 182 Q 315 201 309 216 Q 306 256 271 231 Q 286 214 292 186 Q 288 186 279 188 Q 273 188 269 190 Z M 353 91 347 85 Q 391 30 387 0 Q 413 21 436 32 Q 425 36 402 55 Q 374 78 353 91 Z M 262 32 Q 307 49 309 55 Q 313 59 303 87 Q 300 93 298 93 Q 296 93 294 89 Q 267 61 256 38 Q 254 32 254 30 Q 256 28 262 32 Z M 290 241 Q 303 239 328 233 Q 349 226 360 224 Q 366 222 372 228 Q 374 231 377 233 Q 381 237 381 243 Q 366 245 339 250 Q 319 254 313 254 Q 300 254 290 241 Z M 324 131 Q 322 135 319 150 Q 317 157 317 161 Q 322 161 330 159 Q 336 159 341 157 Q 341 133 339 121 L 300 127 Q 303 127 305 129 Q 313 131 324 131 Z" fill="black" />
  </g>
  <g class="defect" id="01">
    <path d="M 309 216 Q 306 256 271 231" fill="none" stroke="red" stroke-width="3" />
  </g>
  <g class="defect" id="02">
    <path d="M 368 197 Q 389 197 381 190" fill="none" stroke="red" stroke-width="3" />
  </g>
  <g class="defect" id="03">
    <path d="M 347 93 Q 431 98 451 74" fill="none" stroke="red" stroke-width="3" />
  </g>
</svg>