<svg xmlns="http://www.w3.org/2000/svg" width="512" height="512" viewBox="0 0 512 512">
  <g class="glyph">
    <path d="M 475 169 Q 487 167 491 171 Q 495 175 506 189 Q 508 191 508 194 Q 512 198 510 200 Q 508 202 502 202 Q 441 202 389 210 Q 385 221 373 239 Q 362 260 356 271 Q 381 264 395 252 Q 414 268 458 273 Q 445 291 445 331 Q 445 352 445 385 Q 445 416 443 435 Q 441 445 433 439 Q 431 435 423 427 Q 414 418 410 414 Q 362 414 331 420 V 433 Q 331 441 329 443 Q 327 445 321 441 Q 300 425 296 420 Q 304 387 302 343 Q 283 370 264 391 Q 229 423 185 402 Q 244 366 298 296 Q 296 277 289 266 Q 293 266 304 268 Q 312 271 316 273 Q 339 244 354 214 Q 308 221 273 231 Q 266 235 256 227 Q 254 225 248 216 Q 241 210 239 208 Q 246 206 260 204 Q 281 202 331 194 V 139 Q 306 144 298 144 Q 284 132 296 142 Q 281 133 275 125 Q 304 119 331 112 V 108 Q 329 23 312 0 Q 345 8 373 8 Q 362 31 360 104 Q 364 102 370 102 Q 377 100 379 100 Q 385 98 389 104 Q 389 104 393 106 Q 400 114 402 119 Q 414 85 414 60 Q 435 77 460 83 Q 445 100 429 131 Q 425 144 412 167 Q 408 175 406 179 Q 441 173 475 169 Z M 92 8 Q 119 19 150 19 Q 159 60 137 96 Q 137 114 137 139 Q 142 137 152 135 Q 160 133 164 133 Q 175 133 177 135 Q 181 139 191 154 Q 194 156 194 158 Q 185 160 169 162 Q 148 167 137 169 V 221 Q 164 225 177 231 Q 181 241 179 264 Q 179 271 177 273 Q 177 275 171 273 Q 152 256 137 241 V 289 Q 137 308 137 352 Q 139 450 135 445 Q 119 441 89 410 Q 102 377 106 241 Q 87 291 65 325 Q 42 356 0 339 Q 56 291 106 177 Q 92 181 62 189 Q 56 191 52 194 Q 50 191 48 189 Q 29 173 25 164 Q 44 160 87 152 Q 100 150 106 148 Q 106 123 106 98 Q 104 35 92 8 Z M 235 221 Q 235 235 233 258 Q 231 281 229 298 Q 246 289 266 277 Q 277 273 281 275 Q 283 277 277 285 Q 248 318 206 375 Q 198 352 177 331 Q 200 316 202 289 Q 202 273 204 246 Q 206 212 208 191 Q 187 200 175 210 Q 167 200 150 185 Q 196 179 208 160 Q 231 175 256 177 Q 239 194 235 221 Z M 339 296 331 306 V 337 Q 348 333 341 333 Q 370 327 383 323 Q 389 329 398 345 Q 387 348 364 352 Q 341 354 331 356 V 404 Q 350 400 383 395 Q 398 393 406 391 Q 406 341 406 300 Q 406 275 398 281 Q 389 283 368 287 Q 350 293 339 296 Z M 208 65 Q 254 77 258 85 Q 262 92 256 117 Q 254 125 252 127 Q 250 129 244 123 Q 225 106 202 73 Q 198 67 200 65 Q 200 62 208 65 Z M 398 127 Q 391 127 379 131 Q 366 133 360 135 V 187 Q 362 187 366 185 Q 368 185 370 185 Q 379 171 391 139 Q 395 131 398 127 Z" fill="black" />
  </g>
  <g class="defect" id="01">
    <path d="M 150 19 Q 159 60 137 96" fill="none" stroke="red" stroke-width="3" />
  </g>
  <g class="defect" id="02">
    <path d="M 298 144 Q 284 132 296 142" fill="none" stroke="red" stroke-width="3" />
  </g>
</svg>