<svg xmlns="http://www.w3.org/2000/svg" width="512" height="512" viewBox="0 0 512 512">
  <g class="glyph">
    <path d="M 326 16 Q 315 59 315 129 V 177 Q 331 174 362 168 Q 412 159 437 154 Q 449 152 455 159 Q 455 156 458 159 Q 467 168 480 188 Q 485 193 483 197 Q 480 199 473 199 Q 399 199 315 213 Q 315 238 315 290 Q 317 351 317 385 Q 322 512 317 510 Q 292 503 258 467 Q 272 446 274 367 Q 276 331 276 217 Q 272 217 263 220 Q 204 231 174 240 Q 165 242 154 233 Q 138 222 127 208 Q 206 197 276 184 V 104 Q 276 45 261 0 Q 299 16 326 16 Z M 120 272 Q 131 254 138 254 Q 143 258 134 279 Q 95 374 66 469 Q 41 449 11 406 Q -6 408 11 394 Q 16 390 25 394 Q 32 399 36 392 Q 43 383 59 360 Q 104 297 120 272 Z M 14 161 Q 20 163 36 168 Q 84 184 84 188 Q 91 193 82 229 Q 79 240 75 240 Q 72 242 63 236 Q 41 215 7 172 Q -15 179 2 161 Q 5 159 14 161 Z M 70 34 Q 136 52 145 59 Q 135 77 143 100 Q 143 109 140 109 Q 136 111 129 106 Q 95 77 63 43 Q 59 36 59 34 Q 61 32 70 34 Z" fill="black" />
  </g>
  <g class="defect" id="01">
    <path d="M 7 172 Q -15 179 2 161" fill="none" stroke="red" stroke-width="3" />
  </g>
  <g class="defect" id="02">
    <path d="M 11 406 Q -6 408 11 394" fill="none" stroke="red" stroke-width="3" />
  </g>
  <g class="defect" id="03">
    <path d="M 145 59 Q 135 77 143 100" fill="none" stroke="red" stroke-width="3" />
  </g>
</svg>