<svg xmlns="http://www.w3.org/2000/svg" width="512" height="512" viewBox="0 0 512 512">
  <g class="glyph">
    <path d="M 284 280 Q 274 278 252 260 Q 260 247 260 234 Q 260 230 260 221 Q 258 214 258 210 Q 252 214 241 214 Q 236 217 230 214 Q 228 214 225 212 Q 219 208 206 197 Q 193 352 140 442 Q 116 473 85 473 Q 68 473 53 464 Q 151 398 171 208 Q 177 136 164 90 Q 168 92 177 94 Q 201 101 208 103 Q 238 98 322 81 Q 387 70 387 66 Q 396 63 403 70 Q 414 79 416 85 Q 420 90 420 94 Q 435 96 411 96 Q 400 96 379 101 Q 354 103 344 105 Q 368 118 396 120 Q 387 133 376 162 Q 385 160 400 158 Q 416 153 422 153 Q 433 151 435 158 Q 444 162 451 173 Q 455 179 446 182 Q 431 184 400 186 Q 379 190 368 190 Q 368 195 365 203 Q 361 221 361 230 Q 370 241 376 254 Q 326 254 287 263 Q 287 280 284 280 Z M 236 335 Q 265 344 302 365 Q 326 335 337 306 Q 284 319 260 328 Q 236 313 232 304 Q 309 295 339 274 Q 368 295 398 306 Q 374 319 354 354 Q 346 372 335 385 Q 376 416 409 424 Q 457 440 501 457 Q 512 464 512 470 Q 510 475 497 477 Q 418 481 389 473 Q 370 466 311 414 Q 287 440 247 459 Q 232 473 208 473 Q 177 473 158 446 Q 223 440 282 389 Q 252 361 230 354 Q 221 352 223 346 Q 228 333 236 335 Z M 212 127 Q 210 162 206 195 Q 208 195 212 195 Q 230 193 258 186 Q 252 149 245 129 Q 267 140 295 140 Q 289 153 287 179 Q 315 175 341 168 Q 341 136 339 105 Q 247 118 212 127 Z M 107 247 Q 116 234 123 234 Q 127 236 123 252 Q 94 326 44 438 Q 28 422 2 383 Q 0 376 4 370 Q 9 365 15 370 Q 6 374 26 368 Q 53 333 107 247 Z M 282 2 Q 317 4 344 15 Q 352 22 350 50 Q 348 70 330 59 Q 302 42 276 15 Q 269 9 271 4 Q 274 0 282 2 Z M 26 158 Q 77 177 83 184 Q 85 197 81 223 Q 79 232 72 234 Q 68 234 61 228 Q 33 195 18 171 Q 13 162 15 160 Q 18 155 26 158 Z M 74 55 Q 120 68 131 77 Q 136 83 131 116 Q 129 125 125 127 Q 120 127 112 120 Q 85 94 66 68 Q 61 61 63 57 Q 66 53 74 55 Z M 339 197 Q 311 199 287 203 V 243 Q 322 234 333 232 Q 337 212 339 197 Z" fill="black" />
  </g>
  <g class="defect" id="01">
    <path d="M 420 94 Q 435 96 411 96" fill="none" stroke="red" stroke-width="3" />
  </g>
  <g class="defect" id="02">
    <path d="M 322 81 Q 387 70 387 66" fill="none" stroke="red" stroke-width="3" />
  </g>
  <g class="defect" id="03">
    <path d="M 15 370 Q 6 374 26 368" fill="none" stroke="red" stroke-width="3" />
  </g>
</svg>