<svg xmlns="http://www.w3.org/2000/svg" width="512" height="512" viewBox="0 0 512 512">
  <g class="glyph">
    <path d="M 462 497 Q 460 497 437 477 Q 425 470 422 467 Q 310 475 227 487 Q 227 510 225 510 Q 212 502 190 477 Q 195 337 165 270 Q 197 275 212 282 Q 410 255 427 240 Q 462 267 512 277 Q 495 300 480 422 Q 470 497 462 497 Z M 432 280 Q 425 280 405 285 Q 340 292 307 297 Q 340 305 357 302 Q 347 315 345 345 Q 365 337 382 335 Q 390 332 397 342 Q 407 355 412 362 Q 397 367 342 377 Q 342 405 342 442 Q 362 440 395 435 Q 407 432 412 432 Q 417 432 422 442 Q 427 410 435 327 Q 440 302 440 290 Q 427 288 432 280 Z M 235 370 Q 245 367 285 357 Q 300 355 307 352 Q 307 347 305 335 Q 305 307 300 300 Q 262 302 232 310 L 217 295 Q 222 342 227 445 Q 227 457 227 462 Q 245 460 290 452 Q 302 450 307 450 Q 307 412 307 385 Q 277 387 265 392 Q 257 390 235 370 Z M 117 277 Q 130 257 135 260 Q 137 262 132 285 Q 112 347 60 497 Q 22 457 5 427 Q 0 417 2 412 Q 7 407 15 415 Q 25 422 35 410 Q 50 385 80 340 Q 105 300 117 277 Z M 160 152 Q 152 142 157 142 Q 212 75 220 2 Q 250 32 282 40 Q 265 47 227 90 Q 192 130 172 147 Q 235 175 252 195 Q 257 202 250 242 Q 247 250 242 252 Q 240 252 232 245 Q 195 207 160 152 Z M 270 150 Q 262 142 270 137 Q 320 62 327 0 Q 357 30 390 37 Q 375 47 342 85 Q 305 125 282 142 Q 352 175 360 185 Q 365 192 357 227 Q 357 237 355 237 Q 350 237 342 232 Q 287 177 270 150 Z M 380 135 Q 377 125 380 125 Q 440 47 440 0 Q 470 30 505 37 Q 487 45 450 82 Q 415 115 395 130 Q 452 152 477 172 Q 482 180 477 217 Q 475 227 472 227 Q 467 230 460 222 Q 412 177 380 135 Z M 25 172 Q 75 195 92 212 Q 92 235 82 252 Q 77 262 72 265 Q 67 265 62 255 Q 27 215 12 182 Q 7 175 12 172 Q 15 170 25 172 Z M 62 32 Q 120 50 130 60 Q 137 72 127 102 Q 125 115 120 115 Q 117 115 107 107 Q 75 75 55 45 Q 47 35 50 32 Q 52 30 62 32 Z" fill="black" />
  </g>
  <g class="defect" id="01">
    <path d="M 440 290 Q 427 288 432 280" fill="none" stroke="red" stroke-width="3" />
  </g>
  <g class="defect" id="02">
    <path d="M 172 147 Q 235 175 252 195" fill="none" stroke="red" stroke-width="3" />
  </g>
</svg>