<svg xmlns="http://www.w3.org/2000/svg" width="512" height="512" viewBox="0 0 512 512">
  <g class="glyph">
    <path d="M 363 333 Q 339 335 284 339 Q 245 343 230 343 Q 233 358 226 361 Q 213 358 198 343 Q 198 339 196 329 Q 192 307 190 297 Q 183 271 169 256 Q 194 256 215 260 Q 301 250 320 235 Q 343 252 388 256 Q 367 271 348 314 Q 358 322 363 333 Z M 343 4 Q 350 11 369 26 Q 378 30 382 34 Q 361 41 311 81 Q 326 94 339 113 Q 367 94 382 73 Q 390 64 390 51 Q 390 47 393 47 Q 395 47 397 49 Q 410 64 435 81 Q 395 105 352 126 Q 395 173 433 190 Q 471 207 503 226 Q 512 233 512 235 Q 512 241 499 243 Q 459 243 425 239 Q 401 237 388 222 Q 361 194 331 149 Q 306 98 269 75 Q 262 70 269 66 Q 284 60 290 62 Q 299 64 301 68 Q 318 49 331 26 Q 335 15 335 6 Q 335 2 337 0 Q 341 0 343 4 Z M 420 405 Q 429 405 435 412 Q 444 425 450 439 Q 452 442 450 444 Q 448 448 444 446 Q 390 442 307 444 Q 218 450 149 463 Q 139 465 132 459 Q 115 448 109 439 Q 169 435 286 418 Q 303 382 311 337 Q 337 354 363 358 Q 341 371 333 386 Q 329 395 316 412 Q 314 414 311 416 Q 367 410 420 405 Z M 213 51 Q 230 70 260 79 Q 247 92 239 117 Q 205 209 169 245 Q 151 258 134 258 Q 117 258 100 245 Q 145 226 181 173 Q 149 154 130 130 Q 126 128 128 126 Q 130 122 134 124 Q 173 128 183 134 Q 188 137 192 154 Q 209 111 213 83 Q 205 90 173 98 Q 166 100 160 96 Q 154 92 145 85 Q 141 81 143 81 Q 143 79 147 77 Q 190 70 213 51 Z M 94 282 Q 105 262 111 262 Q 117 267 111 288 Q 100 320 73 401 Q 60 442 53 459 Q 23 433 4 401 Q 0 395 4 390 Q 11 384 17 388 Q 23 393 26 386 Q 49 322 94 282 Z M 322 267 Q 311 267 282 271 Q 237 277 220 279 Q 222 301 228 324 Q 237 324 260 320 Q 299 316 316 314 Q 320 288 322 267 Z M 322 175 Q 326 177 333 186 Q 335 188 337 190 Q 343 198 335 201 Q 299 207 230 220 Q 222 220 205 198 Q 233 192 271 183 Q 294 177 309 175 Q 316 171 322 175 Z M 62 62 Q 111 77 122 85 Q 128 96 119 126 Q 117 134 113 137 Q 109 137 102 130 Q 87 119 64 90 Q 55 79 51 75 Q 45 66 49 62 Q 53 58 62 62 Z M 21 171 Q 73 190 79 201 Q 81 211 75 237 Q 73 245 68 247 Q 62 247 58 241 Q 32 218 11 181 Q 6 173 9 171 Q 13 169 21 171 Z M 209 363 Q 245 380 250 384 Q 252 386 247 407 Q 245 412 245 414 Q 243 420 239 420 Q 237 420 233 416 Q 215 395 203 369 Q 201 367 203 363 Q 205 361 209 363 Z" fill="black" />
  </g>
  <g class="defect" id="01">
    <path d="M 213 83 Q 205 90 173 98" fill="none" stroke="red" stroke-width="3" />
  </g>
  <g class="defect" id="02">
    <path d="M 331 149 Q 306 98 269 75" fill="none" stroke="red" stroke-width="3" />
  </g>
  <g class="defect" id="03">
    <path d="M 26 386 Q 49 322 94 282" fill="none" stroke="red" stroke-width="3" />
  </g>
</svg>