<svg xmlns="http://www.w3.org/2000/svg" width="512" height="512" viewBox="0 0 512 512">
  <g class="glyph">
    <path d="M 419 68 Q 428 66 435 73 Q 446 84 448 91 Q 453 98 451 100 Q 451 102 444 102 Q 375 109 218 132 Q 203 134 196 134 Q 198 353 118 460 Q 91 501 52 498 Q 32 498 16 489 Q 114 437 143 298 Q 98 328 43 378 Q 30 350 0 330 Q 75 305 148 273 Q 157 218 157 180 Q 157 123 141 93 Q 152 98 173 102 Q 187 107 193 109 Q 200 109 212 107 Q 234 102 294 91 Q 319 86 369 77 Q 403 71 419 68 Z M 278 335 Q 282 355 278 357 Q 246 350 248 339 Q 241 284 212 243 Q 239 246 257 253 Q 339 241 380 218 Q 421 243 451 250 Q 423 266 407 298 Q 419 309 423 319 Q 414 319 396 321 Q 316 328 278 335 Z M 471 403 Q 478 403 489 410 Q 494 414 505 430 Q 507 432 507 435 Q 512 444 501 446 Q 339 444 193 471 Q 180 471 173 466 Q 157 455 148 444 Q 189 441 337 421 Q 362 364 357 328 Q 360 330 364 332 Q 398 350 419 355 Q 398 366 382 387 Q 378 394 369 403 Q 360 412 355 419 Q 391 412 457 405 Q 402 410 471 403 Z M 403 152 Q 414 159 419 166 Q 419 166 419 168 Q 423 175 416 177 Q 287 203 255 203 Q 239 196 225 180 Q 264 175 309 164 Q 314 164 323 162 Q 348 157 391 148 Q 398 146 403 152 Z M 378 248 Q 362 253 309 264 Q 280 271 264 273 Q 271 294 273 314 Q 301 293 375 298 Q 375 291 380 275 Q 382 259 382 253 Q 385 250 378 248 Z M 266 2 Q 312 11 330 20 Q 337 23 337 34 Q 337 46 332 59 Q 330 71 328 73 Q 323 73 314 66 Q 287 48 259 14 Q 253 7 255 5 Q 257 0 266 2 Z M 64 150 Q 109 182 116 193 Q 114 207 102 230 Q 98 239 93 239 Q 86 239 82 230 Q 66 198 52 159 Q 50 152 52 150 Q 57 148 64 150 Z M 248 364 Q 282 378 289 389 Q 291 396 280 421 Q 278 430 269 421 Q 255 405 241 369 Q 239 364 241 362 Q 243 362 248 364 Z" fill="black" />
  </g>
  <g class="defect" id="01">
    <path d="M 278 357 Q 246 350 248 339" fill="none" stroke="red" stroke-width="3" />
  </g>
  <g class="defect" id="02">
    <path d="M 457 405 Q 402 410 471 403" fill="none" stroke="red" stroke-width="3" />
  </g>
  <g class="defect" id="03">
    <path d="M 273 314 Q 301 293 375 298" fill="none" stroke="red" stroke-width="3" />
  </g>
</svg>