<svg xmlns="http://www.w3.org/2000/svg" width="512" height="512" viewBox="0 0 512 512">
  <g class="glyph">
    <path d="M 386 81 Q 402 97 406 103 Q 413 112 402 115 Q 321 121 249 132 Q 238 159 225 191 Q 283 180 301 164 Q 326 182 375 191 Q 359 213 357 254 Q 353 285 353 442 Q 398 436 366 440 Q 413 436 467 431 Q 481 431 485 438 Q 487 440 492 447 Q 503 458 505 465 Q 512 469 510 472 Q 508 476 499 474 Q 294 467 45 505 Q 36 508 4 483 Q 0 478 0 476 Q 2 474 9 474 Q 22 474 52 469 Q 110 467 144 465 Q 146 330 141 272 Q 139 211 128 184 Q 139 186 173 198 Q 177 198 186 195 Q 195 195 200 195 Q 204 186 209 164 Q 216 146 218 137 Q 144 148 110 150 Q 97 146 81 126 Q 101 124 157 115 Q 181 108 225 103 Q 240 27 231 0 Q 247 31 299 25 Q 287 34 269 83 Q 265 92 263 97 Q 317 85 371 79 Q 377 76 384 81 Q 384 79 386 81 Z M 276 382 Q 278 384 283 388 Q 287 395 290 400 Q 294 402 292 404 Q 292 406 287 406 Q 231 411 180 420 V 460 Q 243 454 310 447 Q 310 326 310 211 Q 310 200 303 202 Q 225 216 193 227 Q 193 227 189 222 Q 182 218 177 213 Q 180 238 180 265 Q 198 263 231 254 Q 249 252 256 249 Q 258 245 265 249 Q 276 260 283 267 Q 285 272 285 272 Q 283 274 281 274 Q 272 276 254 278 Q 207 285 180 290 V 330 Q 195 328 227 321 Q 245 317 254 314 Q 260 314 265 317 Q 274 323 281 335 Q 283 337 283 339 Q 283 339 278 341 Q 229 346 180 355 V 395 Q 204 391 245 384 Q 258 380 263 380 Q 267 380 276 382 Z" fill="black" />
  </g>
  <g class="defect" id="01">
    <path d="M 231 0 Q 247 31 299 25" fill="none" stroke="red" stroke-width="3" />
  </g>
  <g class="defect" id="02">
    <path d="M 157 115 Q 181 108 225 103" fill="none" stroke="red" stroke-width="3" />
  </g>
  <g class="defect" id="03">
    <path d="M 353 442 Q 398 436 366 440" fill="none" stroke="red" stroke-width="3" />
  </g>
</svg>