<svg xmlns="http://www.w3.org/2000/svg" width="512" height="512" viewBox="0 0 512 512">
  <g class="glyph">
    <path d="M 478 172 Q 491 172 494 179 Q 503 191 507 200 Q 512 204 510 209 Q 507 211 501 211 Q 432 211 342 225 Q 321 259 296 296 Q 338 289 358 273 Q 399 296 429 298 Q 416 317 413 358 Q 418 434 411 489 Q 411 494 409 496 Q 404 496 399 491 Q 381 478 370 459 Q 312 459 269 464 V 484 Q 269 491 266 494 Q 262 494 257 489 Q 234 475 230 464 Q 239 445 239 377 Q 228 437 177 448 Q 156 466 129 466 Q 108 466 87 455 Q 152 418 234 319 Q 232 305 225 294 Q 239 296 248 301 Q 276 266 296 232 Q 204 246 188 255 Q 181 257 172 250 Q 163 243 152 227 Q 202 220 271 207 V 145 Q 264 145 250 147 Q 241 149 230 149 Q 214 145 200 129 Q 214 126 236 122 Q 259 117 271 115 Q 269 32 253 0 Q 289 9 319 9 Q 305 41 305 106 Q 315 101 328 99 Q 335 96 342 103 Q 351 113 354 117 Q 358 124 349 129 Q 347 129 342 129 Q 328 131 303 138 V 202 Q 310 200 319 200 Q 354 135 367 101 Q 386 60 381 32 Q 409 55 441 62 Q 425 76 399 122 Q 383 156 363 191 Q 383 188 420 181 Q 461 174 478 172 Z M 30 427 Q 9 413 0 397 Q 11 344 11 234 Q 11 122 2 103 Q 5 103 7 103 Q 28 108 34 113 Q 76 106 96 87 Q 122 106 161 113 Q 147 131 147 191 Q 147 319 145 406 Q 142 420 131 413 Q 113 397 101 383 Q 92 383 71 386 Q 53 388 41 390 Q 41 404 41 420 Q 41 432 30 427 Z M 46 135 41 131 Q 41 145 41 191 Q 64 184 85 179 Q 96 191 101 207 Q 87 209 64 211 Q 51 214 41 214 V 273 Q 53 271 78 262 Q 85 259 87 259 Q 72 262 103 289 Q 87 292 62 294 Q 48 296 41 296 V 367 Q 53 365 78 358 Q 90 356 96 354 Q 101 358 103 365 Q 106 358 106 347 Q 110 223 106 129 Q 106 117 96 122 Q 67 129 46 135 Z M 269 335 Q 269 354 269 372 Q 280 370 301 363 Q 324 358 333 356 Q 340 358 351 386 Q 347 386 340 386 Q 287 390 269 395 V 445 Q 315 439 356 432 Q 358 432 363 439 Q 365 441 367 443 Q 367 393 367 315 Q 367 303 358 308 Q 303 317 276 326 Q 276 326 273 331 Q 271 333 269 335 Z" fill="black" />
  </g>
  <g class="defect" id="01">
    <path d="M 296 232 Q 204 246 188 255" fill="none" stroke="red" stroke-width="3" />
  </g>
  <g class="defect" id="02">
    <path d="M 239 377 Q 228 437 177 448" fill="none" stroke="red" stroke-width="3" />
  </g>
  <g class="defect" id="03">
    <path d="M 87 259 Q 72 262 103 289" fill="none" stroke="red" stroke-width="3" />
  </g>
</svg>