<svg xmlns="http://www.w3.org/2000/svg" width="512" height="512" viewBox="0 0 512 512">
  <g class="glyph">
    <path d="M 483 281 Q 489 279 495 285 Q 506 295 510 306 Q 512 310 512 312 Q 510 314 506 314 Q 487 312 429 316 Q 475 312 423 316 Q 423 341 419 367 H 450 Q 458 367 465 374 Q 469 380 475 398 Q 477 405 475 407 Q 475 407 469 405 Q 462 405 452 403 Q 429 398 417 398 Q 417 401 415 405 Q 415 409 415 409 Q 415 413 413 423 Q 409 487 398 483 Q 361 473 328 431 Q 322 427 324 425 Q 324 423 332 425 Q 370 431 374 421 Q 374 419 374 411 Q 376 403 376 396 Q 301 396 229 415 Q 227 394 215 380 Q 231 361 239 334 Q 219 337 202 341 Q 196 341 190 337 Q 186 332 175 320 Q 173 316 171 314 Q 186 314 219 310 Q 237 308 248 308 Q 258 258 252 221 Q 264 225 283 237 Q 343 231 386 215 Q 403 229 442 237 Q 429 244 427 285 Q 456 281 483 281 Z M 215 89 Q 217 91 221 95 Q 225 97 231 105 Q 233 111 227 114 Q 182 126 138 134 Q 140 134 147 136 Q 159 140 163 140 Q 151 151 140 173 Q 138 182 130 198 Q 124 209 122 215 Q 151 211 165 198 Q 190 217 223 221 Q 204 239 192 285 Q 206 299 209 303 Q 190 308 136 314 Q 149 314 116 318 V 322 Q 118 341 111 349 Q 107 347 95 332 Q 91 326 89 324 Q 93 314 89 279 Q 78 295 66 312 Q 43 351 0 330 Q 47 301 83 233 Q 83 223 76 211 Q 78 211 85 211 Q 91 213 93 213 Q 114 171 120 136 Q 85 145 76 142 Q 68 140 56 124 Q 66 138 54 122 Q 72 122 169 95 Q 192 89 200 87 Q 211 83 215 89 Z M 419 56 Q 423 60 427 64 Q 429 68 431 70 Q 436 74 427 78 Q 396 85 361 91 Q 361 103 359 116 Q 370 114 386 109 Q 394 107 398 107 Q 420 107 411 109 Q 413 111 417 116 Q 421 122 423 124 Q 429 130 421 132 Q 390 138 359 145 V 171 Q 438 159 469 157 Q 469 157 471 157 Q 475 153 481 159 Q 493 169 498 182 Q 500 188 500 188 Q 500 190 493 190 Q 411 186 242 217 Q 235 219 227 213 Q 225 211 219 202 Q 211 194 209 192 Q 252 190 328 178 Q 328 173 328 165 Q 330 155 330 149 Q 303 153 289 155 Q 279 151 266 136 Q 277 136 312 128 Q 322 126 328 124 V 109 Q 328 103 328 97 Q 299 101 281 103 Q 270 97 256 85 Q 295 78 326 70 Q 326 29 314 0 Q 345 10 374 10 Q 365 29 363 62 Q 367 62 380 58 Q 396 56 407 54 Q 413 54 419 56 Z M 301 326 Q 328 332 339 339 Q 341 343 337 365 Q 337 367 334 367 Q 334 372 332 372 Q 339 372 355 372 Q 372 370 380 370 Q 380 355 384 324 Q 380 345 384 318 Q 324 324 270 330 Q 264 357 254 380 Q 293 378 332 372 Q 330 372 326 370 Q 303 347 297 332 Q 295 330 295 328 Q 297 326 301 326 Z M 161 227 Q 142 231 116 237 V 297 L 163 287 L 167 233 Q 167 227 167 227 Q 165 225 161 227 Z M 382 239 Q 347 244 314 254 Q 345 258 351 262 Q 353 264 351 275 Q 349 285 349 289 Q 349 291 347 291 Q 347 295 345 295 Q 353 295 365 293 Q 380 291 386 291 Q 386 285 386 268 Q 388 252 388 244 Q 388 237 382 239 Z M 287 250 Q 281 277 275 306 Q 310 299 343 297 L 339 293 Q 318 273 312 260 Q 310 256 310 254 Q 308 254 303 256 Q 301 256 297 258 Q 293 256 287 250 Z" fill="black" />
  </g>
  <g class="defect" id="01">
    <path d="M 398 107 Q 420 107 411 109" fill="none" stroke="red" stroke-width="3" />
  </g>
</svg>