<svg xmlns="http://www.w3.org/2000/svg" width="512" height="512" viewBox="0 0 512 512">
  <g class="glyph">
    <path d="M 122 134 Q 105 164 98 173 Q 81 192 58 192 Q 60 192 32 183 Q 115 130 128 0 Q 156 17 181 21 Q 164 36 158 53 Q 145 85 132 115 Q 175 100 211 94 Q 220 92 226 98 Q 237 109 243 122 Q 186 128 141 141 Q 160 147 181 149 Q 171 162 166 186 Q 166 194 164 201 Q 171 198 181 196 Q 196 194 220 190 Q 230 190 235 196 Q 241 203 247 213 Q 252 220 241 222 Q 215 222 158 233 Q 139 335 102 382 Q 81 403 55 403 Q 41 403 17 393 Q 94 361 124 239 Q 105 243 66 254 Q 51 258 45 260 Q 32 265 26 258 Q 13 250 0 237 Q 62 226 130 209 Q 139 175 132 143 Q 132 143 128 141 Q 124 137 122 134 Z M 425 224 Q 322 219 303 239 Q 303 256 301 256 Q 282 252 273 241 Q 262 160 237 137 Q 267 137 279 139 Q 369 122 393 105 Q 418 126 463 143 Q 439 156 412 205 Q 414 207 416 211 Q 422 218 425 224 Z M 474 331 Q 482 331 489 337 Q 499 348 508 361 Q 512 365 510 369 Q 508 371 499 371 Q 352 373 215 397 Q 201 399 194 393 Q 179 382 169 367 Q 205 365 329 350 Q 341 348 348 348 Q 378 284 378 239 Q 403 258 433 267 Q 420 275 403 297 Q 393 316 367 346 Q 418 337 474 331 Z M 288 158 Q 294 183 299 218 Q 311 215 339 209 Q 367 205 380 203 Q 386 171 395 137 Q 378 139 341 147 Q 305 154 288 158 Z M 416 26 Q 427 32 433 41 Q 437 47 429 51 Q 412 55 367 64 Q 294 79 275 81 Q 258 79 237 60 Q 258 58 309 45 Q 322 43 331 41 Q 346 36 373 30 Q 393 23 403 21 Q 423 19 416 26 Z M 169 265 Q 209 282 224 294 Q 226 305 220 326 Q 218 337 215 339 Q 211 339 205 333 Q 186 314 160 273 Q 158 267 160 262 Q 162 260 169 265 Z M 271 275 Q 301 286 316 297 Q 318 301 311 326 Q 309 335 305 335 Q 301 335 297 331 Q 275 305 265 282 Q 262 277 265 275 Q 267 273 271 275 Z" fill="black" />
  </g>
  <g class="defect" id="01">
    <path d="M 403 21 Q 423 19 416 26" fill="none" stroke="red" stroke-width="3" />
  </g>
  <g class="defect" id="02">
    <path d="M 58 192 Q 60 192 32 183" fill="none" stroke="red" stroke-width="3" />
  </g>
  <g class="defect" id="03">
    <path d="M 425 224 Q 322 219 303 239" fill="none" stroke="red" stroke-width="3" />
  </g>
</svg>