<svg xmlns="http://www.w3.org/2000/svg" width="512" height="512" viewBox="0 0 512 512">
  <g class="glyph">
    <path d="M 491 334 Q 493 336 504 351 Q 508 357 510 359 Q 512 364 512 366 Q 510 368 506 368 Q 435 366 299 391 Q 297 389 295 387 Q 290 382 288 382 Q 288 472 284 466 Q 261 458 236 433 Q 247 422 249 403 Q 261 274 259 178 Q 257 180 257 182 Q 255 186 249 192 Q 228 228 184 209 Q 240 167 286 63 Q 303 21 301 0 Q 318 17 347 23 Q 330 44 318 71 Q 305 107 270 161 Q 284 167 301 167 Q 290 184 290 242 Q 288 309 288 364 Q 322 357 359 351 Q 359 341 362 322 Q 362 305 362 297 Q 332 303 328 301 Q 322 301 303 282 Q 313 280 341 276 Q 355 274 362 272 Q 362 245 362 224 Q 336 228 322 230 Q 309 224 301 211 Q 332 205 359 199 Q 359 171 353 157 Q 322 163 313 163 Q 305 159 286 142 Q 318 138 376 123 Q 422 111 445 107 Q 451 104 458 111 Q 460 113 462 115 Q 470 123 472 125 Q 457 132 470 134 Q 418 142 359 155 Q 380 161 403 161 Q 401 171 397 188 Q 414 184 428 182 Q 439 180 441 184 Q 443 184 447 190 Q 451 194 453 196 Q 456 203 453 203 Q 453 205 449 205 Q 424 211 395 217 Q 395 224 395 236 Q 393 255 393 263 Q 397 261 405 259 Q 418 257 437 253 Q 441 253 447 255 Q 445 255 449 257 Q 456 263 462 272 Q 466 276 464 276 Q 464 278 460 278 Q 443 282 393 290 Q 393 316 395 345 Q 420 339 464 332 Q 472 330 476 330 Q 487 330 491 334 Z M 215 73 Q 226 79 232 90 Q 234 96 228 96 Q 171 111 138 115 Q 159 130 176 130 Q 165 138 153 165 Q 150 171 144 186 Q 142 192 130 217 Q 153 211 163 201 Q 190 222 226 228 Q 203 247 190 301 Q 203 313 207 322 Q 169 328 115 336 L 117 347 Q 117 370 113 370 Q 92 355 88 349 Q 92 332 86 295 L 71 316 Q 48 355 0 334 Q 44 305 79 247 Q 77 234 73 217 Q 71 215 71 215 Q 79 215 96 219 Q 121 171 130 117 Q 82 127 75 125 Q 63 119 52 107 Q 71 104 161 79 Q 190 71 201 69 Q 209 67 215 73 Z M 117 242 Q 115 247 111 253 L 115 313 L 161 303 L 165 240 Q 165 232 165 232 Q 163 230 159 232 Q 153 234 134 238 Q 123 240 117 242 Z M 353 48 Q 385 54 408 63 Q 414 67 410 92 Q 410 92 410 96 Q 408 107 403 107 Q 401 109 393 102 Q 348 71 349 61 Q 343 52 345 50 Q 345 48 353 48 Z" fill="black" />
  </g>
  <g class="defect" id="01">
    <path d="M 393 102 Q 348 71 349 61" fill="none" stroke="red" stroke-width="3" />
  </g>
  <g class="defect" id="02">
    <path d="M 472 125 Q 457 132 470 134" fill="none" stroke="red" stroke-width="3" />
  </g>
</svg>