<svg xmlns="http://www.w3.org/2000/svg" width="512" height="512" viewBox="0 0 512 512">
  <g class="glyph">
    <path d="M 373 25 Q 395 49 436 61 Q 410 78 383 131 Q 397 141 403 154 Q 378 173 367 156 Q 340 158 328 160 Q 344 168 371 168 Q 354 186 348 289 Q 342 324 389 319 Q 467 322 465 289 Q 467 281 469 268 Q 471 256 473 248 Q 473 242 477 242 Q 479 242 483 246 Q 500 293 508 334 Q 512 350 496 354 Q 461 365 387 362 Q 311 362 319 283 Q 330 186 322 160 Q 313 160 299 162 Q 274 166 266 166 Q 270 184 266 184 Q 258 184 240 166 Q 233 84 211 43 Q 242 49 252 53 Q 336 43 373 25 Z M 160 209 Q 156 215 156 219 Q 158 219 162 221 Q 186 227 199 233 Q 205 240 203 266 Q 203 270 201 272 Q 197 272 195 270 Q 166 250 154 229 Q 150 246 152 264 Q 152 324 152 371 Q 152 403 145 412 Q 137 410 106 383 Q 121 362 121 260 V 236 Q 98 270 68 301 Q 39 334 0 311 Q 90 254 145 135 Q 139 137 121 143 Q 78 160 55 168 Q 37 166 20 141 Q 109 133 147 104 Q 174 125 197 131 Q 178 143 158 176 Q 154 184 145 197 Q 139 205 137 209 Q 152 211 160 209 Z M 270 168 Q 299 184 317 184 Q 305 199 295 229 Q 262 313 227 350 Q 183 395 156 350 Q 225 319 260 233 Q 276 193 270 168 Z M 369 57 Q 348 59 309 68 Q 272 76 256 78 Q 264 131 264 147 Q 279 143 315 137 Q 344 131 356 129 Q 349 84 369 57 Z M 109 2 Q 154 10 180 20 Q 182 27 178 57 Q 176 72 168 68 Q 131 41 104 10 Q 100 6 100 2 Q 102 0 109 2 Z" fill="black" />
  </g>
  <g class="defect" id="01">
    <path d="M 227 350 Q 183 395 156 350" fill="none" stroke="red" stroke-width="3" />
  </g>
  <g class="defect" id="02">
    <path d="M 403 154 Q 378 173 367 156" fill="none" stroke="red" stroke-width="3" />
  </g>
  <g class="defect" id="03">
    <path d="M 356 129 Q 349 84 369 57" fill="none" stroke="red" stroke-width="3" />
  </g>
</svg>