<svg xmlns="http://www.w3.org/2000/svg" width="512" height="512" viewBox="0 0 512 512">
  <g class="glyph">
    <path d="M 341 455 Q 428 460 487 469 Q 503 473 505 480 Q 505 487 489 492 Q 419 512 346 512 Q 300 494 289 503 Q 102 435 7 466 Q 0 469 0 462 Q 0 448 5 435 Q 7 426 20 426 Q 59 426 107 428 Q 107 391 86 362 Q 86 355 84 344 Q 84 325 82 316 Q 75 303 52 289 Q 46 284 46 280 Q 46 275 55 275 Q 86 273 137 278 Q 137 280 137 284 Q 130 325 118 357 Q 143 387 141 432 Q 180 435 218 446 Q 275 455 341 455 Z M 246 171 Q 269 182 303 182 Q 298 196 291 230 Q 355 216 360 209 Q 382 234 426 246 Q 407 262 391 366 Q 380 439 371 439 Q 337 426 284 371 Q 280 366 282 362 Q 284 357 291 360 Q 341 375 341 355 Q 355 303 362 257 Q 362 250 360 250 Q 357 248 350 250 Q 316 255 287 262 Q 273 339 246 385 Q 212 437 155 416 Q 228 369 246 269 Q 232 271 207 278 Q 200 280 196 280 Q 182 269 164 246 Q 189 246 253 237 Q 255 196 246 171 Z M 432 43 Q 439 52 444 59 Q 448 61 448 66 Q 446 68 441 71 Q 375 82 330 91 Q 323 91 309 82 Q 309 84 307 89 Q 294 118 280 143 Q 253 182 207 162 Q 287 98 289 0 Q 309 18 341 23 Q 313 39 314 68 Q 332 66 387 48 Q 410 41 419 39 Q 426 39 432 43 Z M 234 66 Q 243 73 250 84 Q 253 86 253 89 Q 250 91 246 91 Q 173 109 155 109 Q 143 107 132 100 Q 114 146 93 168 Q 68 200 18 182 Q 109 116 118 11 Q 132 27 168 34 Q 150 55 141 82 Q 139 84 139 86 Q 173 80 221 64 Q 230 64 234 66 Z M 82 191 Q 112 200 139 214 Q 141 221 137 243 Q 132 257 130 257 Q 127 259 121 253 Q 91 228 77 200 Q 75 196 75 193 Q 77 191 82 191 Z M 307 127 Q 305 123 305 121 Q 307 118 312 118 Q 362 125 369 134 Q 373 139 369 166 Q 366 175 364 175 Q 362 177 355 173 Q 328 152 307 127 Z M 125 143 Q 123 139 123 137 Q 125 134 130 134 Q 134 134 143 137 Q 171 143 182 148 Q 187 159 182 184 Q 180 191 177 193 Q 175 193 171 189 Q 139 164 125 143 Z" fill="black" />
  </g>
  <g class="defect" id="01">
    <path d="M 346 512 Q 300 494 289 503" fill="none" stroke="red" stroke-width="3" />
  </g>
  <g class="defect" id="02">
    <path d="M 341 23 Q 313 39 314 68" fill="none" stroke="red" stroke-width="3" />
  </g>
  <g class="defect" id="03">
    <path d="M 441 71 Q 375 82 330 91" fill="none" stroke="red" stroke-width="3" />
  </g>
</svg>