<svg xmlns="http://www.w3.org/2000/svg" width="512" height="512" viewBox="0 0 512 512">
  <g class="glyph">
    <path d="M 283 0 Q 300 13 328 24 Q 313 37 300 60 Q 298 69 292 80 Q 341 73 361 56 Q 385 82 410 89 Q 385 108 363 145 Q 359 151 348 166 Q 339 181 333 190 Q 339 194 348 201 Q 393 231 415 235 Q 469 257 501 281 Q 512 287 510 294 Q 510 300 497 300 Q 428 300 395 289 Q 380 285 335 238 Q 320 223 313 216 Q 257 287 212 302 Q 173 320 143 287 Q 220 268 287 192 Q 287 192 285 190 Q 259 169 244 160 Q 240 160 240 164 Q 207 199 169 171 Q 231 140 270 54 Q 281 26 283 0 Z M 67 270 Q 106 259 156 251 Q 164 248 171 253 Q 177 257 169 259 Q 91 292 30 333 Q 30 309 11 283 Q 54 259 108 186 Q 58 199 24 218 Q 19 192 9 177 Q 76 127 99 11 Q 121 30 153 43 Q 143 50 114 91 Q 80 140 54 169 Q 89 166 121 166 Q 123 164 125 160 Q 127 158 127 156 Q 143 130 149 104 Q 169 127 192 136 Q 177 145 160 169 Q 119 225 67 270 Z M 181 333 Q 176 343 127 365 Q 58 406 32 428 Q 24 404 0 385 Q 65 365 164 326 Q 200 322 181 333 Z M 248 385 Q 307 398 346 413 Q 354 428 354 460 Q 354 475 339 469 Q 283 428 244 395 Q 238 391 240 387 Q 240 382 248 385 Z M 292 106 Q 292 104 287 102 Q 301 99 283 99 Q 270 123 257 140 Q 283 153 307 171 Q 339 127 359 89 Q 331 95 292 106 Z M 266 287 Q 318 294 341 302 Q 348 307 352 346 Q 354 354 350 356 Q 348 359 341 354 Q 300 331 259 296 Q 253 292 255 289 Q 257 287 266 287 Z" fill="black" />
  </g>
  <g class="defect" id="01">
    <path d="M 164 326 Q 200 322 181 333" fill="none" stroke="red" stroke-width="3" />
  </g>
  <g class="defect" id="02">
    <path d="M 287 102 Q 301 99 283 99" fill="none" stroke="red" stroke-width="3" />
  </g>
  <g class="defect" id="03">
    <path d="M 181 333 Q 176 343 127 365" fill="none" stroke="red" stroke-width="3" />
  </g>
</svg>