<svg xmlns="http://www.w3.org/2000/svg" width="512" height="512" viewBox="0 0 512 512">
  <g class="glyph">
    <path d="M 479 353 Q 488 353 492 360 Q 494 362 497 366 Q 508 386 510 393 Q 512 397 510 399 Q 508 402 505 399 Q 397 386 190 417 Q 183 417 172 413 Q 159 402 152 388 Q 157 388 166 388 Q 192 386 245 380 Q 247 280 247 238 Q 247 190 245 157 Q 241 86 230 64 Q 252 66 278 77 Q 351 66 373 46 Q 397 68 439 73 Q 428 90 424 143 Q 422 188 422 360 Q 452 355 479 353 Z M 280 294 Q 280 335 280 375 Q 298 373 331 369 Q 364 364 380 364 Q 377 307 380 188 Q 380 126 380 93 Q 380 84 380 84 Q 377 82 371 84 Q 366 84 351 88 Q 300 97 278 102 Q 280 135 280 172 Q 294 170 318 163 Q 335 159 342 157 Q 355 166 362 185 Q 349 188 324 190 Q 296 194 280 196 Q 280 232 280 269 Q 294 267 316 260 Q 340 256 351 254 Q 380 281 371 282 Q 351 285 320 289 Q 296 291 280 294 Z M 86 267 Q 154 252 185 247 Q 192 245 194 252 Q 196 258 190 260 Q 99 291 49 322 Q 56 316 26 280 Q 64 267 119 188 Q 57 203 26 218 Q 20 199 7 181 Q 86 124 113 0 Q 137 22 166 33 Q 152 44 117 93 Q 79 150 55 174 Q 64 174 88 170 Q 119 168 132 166 Q 157 121 161 93 Q 188 115 210 126 Q 196 135 161 183 Q 110 247 86 267 Z M 203 327 Q 118 397 33 426 Q 26 415 0 380 Q 42 375 192 313 Q 214 318 203 327 Z" fill="black" />
  </g>
  <g class="defect" id="01">
    <path d="M 351 254 Q 380 281 371 282" fill="none" stroke="red" stroke-width="3" />
  </g>
  <g class="defect" id="02">
    <path d="M 203 327 Q 118 397 33 426" fill="none" stroke="red" stroke-width="3" />
  </g>
  <g class="defect" id="03">
    <path d="M 49 322 Q 56 316 26 280" fill="none" stroke="red" stroke-width="3" />
  </g>
</svg>