<svg xmlns="http://www.w3.org/2000/svg" width="512" height="512" viewBox="0 0 512 512">
  <g class="glyph">
    <path d="M 450 335 Q 474 350 510 386 Q 512 399 499 420 Q 495 431 491 431 Q 484 433 480 422 Q 469 407 459 384 Q 393 405 371 418 Q 365 397 350 380 Q 371 369 397 335 Q 416 305 429 277 Q 388 290 365 305 Q 363 286 346 273 Q 393 239 403 160 Q 339 166 275 179 Q 303 196 318 198 Q 305 209 286 237 Q 262 269 245 286 Q 271 282 297 279 Q 309 250 314 230 Q 331 250 356 254 Q 341 267 311 311 Q 277 365 252 393 Q 282 388 309 382 Q 307 369 303 352 Q 301 348 303 346 Q 305 346 309 348 Q 339 369 354 393 Q 352 405 341 422 Q 339 429 335 429 Q 331 429 326 422 Q 326 420 324 416 Q 320 407 318 401 Q 239 422 224 435 Q 220 418 203 397 Q 224 388 245 361 Q 256 348 275 318 Q 282 307 286 301 Q 284 301 282 303 Q 241 316 226 329 Q 222 309 209 292 Q 260 254 271 179 Q 269 179 265 181 Q 258 181 256 183 Q 243 188 237 181 Q 226 171 215 158 Q 262 151 358 134 Q 444 119 482 115 Q 489 115 495 122 Q 497 124 499 128 Q 508 141 510 145 Q 512 149 512 151 Q 510 154 503 154 Q 476 154 418 158 Q 459 154 412 158 Q 431 171 452 173 Q 423 183 420 215 Q 401 250 386 265 Q 369 251 395 262 Q 422 260 437 256 Q 446 233 452 207 Q 471 230 499 237 Q 486 247 461 286 Q 427 341 395 375 Q 420 369 450 365 Q 450 361 446 352 Q 444 343 442 339 Q 439 333 444 331 Q 446 331 450 335 Z M 111 0 Q 141 6 177 9 Q 162 36 164 122 Q 164 141 164 171 Q 181 166 196 164 Q 205 162 207 166 Q 218 177 220 181 Q 224 188 218 190 Q 209 192 188 196 Q 171 198 162 201 Q 162 211 162 222 Q 190 226 209 237 Q 215 241 211 271 Q 209 282 201 277 Q 198 275 190 269 Q 171 250 162 237 Q 162 271 162 301 Q 162 467 156 465 Q 141 465 109 422 Q 126 386 130 260 Q 102 311 77 346 Q 47 386 0 361 Q 64 326 126 209 Q 75 222 55 228 Q 47 230 41 226 Q 36 222 26 209 Q 19 203 17 201 Q 51 196 132 179 V 134 Q 132 23 111 0 Z M 412 4 Q 435 28 465 41 Q 452 47 425 75 Q 388 111 365 128 L 354 122 Q 410 51 412 4 Z M 277 51 Q 324 77 329 83 Q 331 94 320 122 Q 297 128 311 128 Q 307 128 305 119 Q 303 117 299 111 Q 275 75 271 60 Q 269 53 271 49 Q 271 47 277 51 Z M 183 151 175 147 Q 205 107 209 68 Q 222 85 254 96 Q 243 100 226 117 Q 203 139 183 151 Z M 64 105 Q 94 117 109 128 Q 107 147 102 158 Q 100 166 96 169 Q 94 171 87 164 Q 64 134 55 111 Q 53 107 55 105 Q 58 102 64 105 Z" fill="black" />
  </g>
  <g class="defect" id="01">
    <path d="M 386 265 Q 369 251 395 262" fill="none" stroke="red" stroke-width="3" />
  </g>
  <g class="defect" id="02">
    <path d="M 320 122 Q 297 128 311 128" fill="none" stroke="red" stroke-width="3" />
  </g>
  <g class="defect" id="03">
    <path d="M 452 173 Q 423 183 420 215" fill="none" stroke="red" stroke-width="3" />
  </g>
</svg>