<svg xmlns="http://www.w3.org/2000/svg" width="512" height="512" viewBox="0 0 512 512">
  <g class="glyph">
    <path d="M 473 145 Q 483 143 487 150 Q 505 168 510 179 Q 512 181 512 186 Q 510 188 505 188 Q 460 188 390 199 Q 390 227 392 290 Q 396 396 396 410 Q 396 489 387 492 Q 360 489 281 426 Q 276 421 279 417 Q 281 412 288 415 Q 338 421 347 417 Q 351 392 347 206 Q 261 220 229 227 Q 222 231 208 220 Q 197 208 186 195 Q 229 190 347 168 Q 347 163 347 152 Q 344 143 344 138 Q 342 34 324 0 Q 372 14 401 11 Q 381 68 387 138 Q 387 145 387 161 Q 451 147 473 145 Z M 82 279 Q 138 270 179 261 Q 186 258 190 265 Q 193 272 186 274 Q 91 308 36 344 Q 34 315 14 295 Q 61 270 122 190 Q 59 204 25 224 Q 20 204 5 181 Q 77 125 104 9 Q 120 27 161 45 Q 147 52 116 100 Q 79 150 57 174 Q 111 170 136 170 Q 138 168 140 163 Q 143 161 143 159 Q 163 122 165 97 Q 181 120 220 138 Q 199 147 179 174 Q 134 233 82 279 Z M 204 347 Q 102 403 39 446 Q 40 424 0 401 Q 70 385 190 333 Q 199 331 204 335 Q 211 342 204 347 Z M 231 249 Q 256 258 292 281 Q 297 285 299 285 Q 301 295 292 326 Q 290 338 285 340 Q 281 340 274 333 Q 247 297 224 258 Q 220 249 220 247 Q 222 245 231 249 Z" fill="black" />
  </g>
  <g class="defect" id="01">
    <path d="M 39 446 Q 40 424 0 401" fill="none" stroke="red" stroke-width="3" />
  </g>
</svg>