<svg xmlns="http://www.w3.org/2000/svg" width="512" height="512" viewBox="0 0 512 512">
  <g class="glyph">
    <path d="M 293 278 Q 286 271 289 265 Q 293 260 302 265 Q 328 280 354 306 Q 375 269 384 232 Q 347 241 328 254 Q 310 245 302 232 Q 367 221 386 202 Q 406 219 436 228 Q 421 239 408 267 Q 397 299 377 330 Q 404 354 421 364 Q 477 388 501 406 Q 512 410 512 414 Q 510 419 499 419 Q 423 419 401 410 Q 388 410 358 360 Q 351 369 338 384 Q 332 391 330 395 Q 295 430 249 408 Q 297 386 338 332 Q 308 289 293 278 Z M 72 239 Q 80 236 117 228 Q 141 221 150 219 Q 158 217 161 223 Q 163 230 154 232 Q 117 245 43 286 Q 41 271 24 245 Q 59 234 102 165 Q 56 178 24 193 Q 20 171 7 158 Q 69 113 91 0 Q 106 20 139 28 Q 124 41 98 85 Q 69 132 50 152 Q 74 150 67 150 Q 89 148 113 145 Q 128 115 135 85 Q 150 104 178 113 Q 163 126 132 167 Q 93 221 72 239 Z M 187 293 Q 195 297 213 304 Q 221 306 226 308 Q 243 282 252 252 Q 232 256 195 273 Q 178 265 169 252 Q 217 247 252 221 Q 267 236 299 247 Q 284 258 271 286 Q 265 304 254 323 Q 265 328 273 334 Q 280 338 280 371 Q 280 380 278 382 Q 273 384 267 380 Q 252 367 234 354 Q 215 384 197 401 Q 169 425 126 408 Q 178 377 210 332 Q 206 328 197 319 Q 189 308 182 302 Q 176 295 178 293 Q 180 291 187 293 Z M 397 15 Q 419 33 449 39 Q 427 50 419 76 Q 417 89 406 111 Q 401 119 399 124 Q 419 130 430 139 Q 436 143 440 176 Q 440 187 438 187 Q 436 189 427 184 Q 406 171 382 152 Q 363 144 364 178 Q 360 182 358 184 Q 336 208 302 189 Q 336 165 358 135 Q 338 119 321 100 Q 315 93 317 91 Q 319 89 328 93 Q 347 100 371 111 Q 388 80 399 43 Q 380 48 343 65 Q 330 61 315 46 Q 362 41 397 15 Z M 269 35 Q 295 54 317 59 Q 297 72 289 98 Q 282 119 271 139 Q 284 143 289 150 Q 297 158 295 184 Q 295 193 293 195 Q 289 197 282 193 Q 278 189 269 182 Q 260 174 256 171 Q 243 193 226 213 Q 202 239 165 219 Q 210 189 234 150 Q 230 145 221 137 Q 215 130 193 108 Q 187 102 187 100 Q 189 98 195 102 Q 226 113 247 126 Q 263 93 269 63 Q 265 65 252 69 Q 219 82 208 87 Q 195 85 184 67 Q 232 61 269 35 Z M 169 293 Q 63 356 33 386 Q 24 364 0 345 Q 52 332 158 284 Q 163 280 169 284 Q 174 291 169 293 Z" fill="black" />
  </g>
  <g class="defect" id="01">
    <path d="M 382 152 Q 363 144 364 178" fill="none" stroke="red" stroke-width="3" />
  </g>
  <g class="defect" id="02">
    <path d="M 67 150 Q 89 148 113 145" fill="none" stroke="red" stroke-width="3" />
  </g>
</svg>