<svg xmlns="http://www.w3.org/2000/svg" width="512" height="512" viewBox="0 0 512 512">
  <g class="glyph">
    <path d="M 258 87 Q 278 91 297 104 Q 299 104 302 102 Q 304 102 304 102 Q 336 43 336 0 Q 364 22 386 28 Q 371 35 345 72 Q 332 91 323 100 Q 375 87 384 76 Q 408 98 443 106 Q 419 126 406 156 Q 419 165 423 178 Q 412 180 382 182 Q 325 189 302 193 V 239 Q 371 228 386 215 Q 408 234 447 245 Q 425 260 408 304 Q 424 308 427 328 Q 371 328 299 338 Q 299 371 295 375 Q 280 364 258 341 Q 273 319 271 174 Q 271 117 258 87 Z M 388 401 Q 445 401 497 414 Q 510 417 512 423 Q 512 430 499 432 Q 451 445 388 451 Q 364 456 347 445 Q 210 361 135 391 Q 130 393 130 386 Q 130 382 132 377 Q 132 371 132 369 Q 137 360 145 360 Q 174 360 208 367 Q 206 328 189 304 Q 189 260 182 247 Q 174 232 158 223 Q 150 210 163 208 Q 197 208 228 208 Q 223 232 215 276 Q 213 289 213 295 Q 236 319 232 371 Q 265 377 297 388 Q 330 397 388 401 Z M 69 269 Q 115 258 145 254 Q 154 252 158 256 Q 163 260 156 263 Q 74 302 37 325 Q 49 297 15 278 Q 61 254 106 184 Q 54 197 22 213 Q 17 191 7 176 Q 72 135 100 9 Q 119 30 150 41 Q 135 52 117 82 Q 85 139 52 174 Q 87 169 115 167 Q 119 161 121 158 Q 121 156 124 154 Q 137 126 139 104 Q 158 126 182 137 Q 165 152 154 171 Q 115 226 69 269 Z M 167 334 Q 78 386 35 425 Q 22 404 0 384 Q 33 375 115 341 Q 139 330 152 325 Q 171 323 167 334 Z M 299 263 V 315 Q 338 308 380 302 Q 384 267 386 247 Q 347 252 299 263 Z M 299 124 Q 302 150 302 171 Q 315 167 338 163 Q 362 158 375 156 Q 384 130 384 108 Q 375 111 358 113 Q 321 119 299 124 Z M 176 98 Q 174 93 176 91 Q 178 91 182 93 Q 210 106 230 124 Q 228 148 217 163 Q 213 169 210 169 Q 208 169 204 163 Q 191 143 176 98 Z" fill="black" />
  </g>
  <g class="defect" id="01">
    <path d="M 347 445 Q 210 361 135 391" fill="none" stroke="red" stroke-width="3" />
  </g>
  <g class="defect" id="02">
    <path d="M 408 304 Q 424 308 427 328" fill="none" stroke="red" stroke-width="3" />
  </g>
  <g class="defect" id="03">
    <path d="M 37 325 Q 49 297 15 278" fill="none" stroke="red" stroke-width="3" />
  </g>
</svg>