<svg xmlns="http://www.w3.org/2000/svg" width="512" height="512" viewBox="0 0 512 512">
  <g class="glyph">
    <path d="M 183 342 Q 179 344 168 351 Q 157 358 135 373 Q 157 371 203 364 Q 214 362 221 362 Q 221 192 207 154 Q 227 159 245 166 Q 252 166 269 163 Q 239 182 274 161 Q 278 137 280 115 Q 230 126 221 126 Q 207 119 190 104 Q 210 102 269 88 Q 280 86 285 84 Q 294 26 287 0 Q 311 15 344 15 Q 329 42 322 75 Q 342 68 382 62 Q 388 60 391 60 Q 399 57 406 62 Q 410 66 415 73 Q 422 77 424 82 Q 426 86 426 88 Q 424 90 419 90 Q 399 95 355 102 Q 324 108 311 110 Q 309 119 305 143 Q 302 152 300 157 Q 333 150 349 137 Q 373 157 417 161 Q 393 183 399 338 Q 435 335 474 329 Q 486 329 490 335 Q 499 346 508 362 Q 510 366 510 369 Q 508 371 501 371 Q 353 369 168 402 Q 159 402 152 397 Q 146 393 137 382 Q 132 377 130 375 Q 75 408 35 439 Q 20 410 0 393 Q 57 375 166 333 Q 190 329 183 342 Z M 71 282 Q 84 280 113 274 Q 148 265 161 263 Q 172 260 177 267 Q 181 271 174 276 Q 77 318 33 344 Q 33 316 11 296 Q 46 280 108 199 Q 55 214 24 230 Q 15 201 7 188 Q 73 146 102 26 Q 124 46 157 57 Q 143 64 117 104 Q 84 152 55 181 Q 60 181 66 181 Q 102 177 121 177 Q 126 172 128 166 Q 141 139 146 115 Q 172 137 194 146 Q 163 159 161 181 Q 115 247 71 282 Z M 258 190 252 183 Q 252 199 252 216 Q 267 214 298 205 Q 320 201 329 199 Q 338 207 342 223 Q 318 225 252 236 V 265 Q 265 263 291 256 Q 318 252 329 249 Q 338 258 342 271 Q 324 274 265 282 Q 271 282 252 285 V 311 Q 263 309 285 305 Q 316 298 331 296 Q 335 298 346 318 Q 331 320 280 327 Q 260 329 252 331 V 358 Q 305 351 360 344 Q 360 267 360 243 Q 360 212 358 194 Q 358 168 349 168 Q 302 181 258 190 Z M 245 388 Q 263 406 289 417 Q 276 424 249 452 Q 227 479 212 490 Q 179 512 139 486 Q 236 455 245 388 Z M 344 399 Q 406 422 435 441 Q 439 441 435 483 Q 433 497 428 497 Q 424 499 417 492 Q 377 459 338 410 Q 331 402 333 399 Q 335 397 344 399 Z" fill="black" />
  </g>
  <g class="defect" id="01">
    <path d="M 194 146 Q 163 159 161 181" fill="none" stroke="red" stroke-width="3" />
  </g>
  <g class="defect" id="02">
    <path d="M 269 163 Q 239 182 274 161" fill="none" stroke="red" stroke-width="3" />
  </g>
  <g class="defect" id="03">
    <path d="M 139 486 Q 236 455 245 388" fill="none" stroke="red" stroke-width="3" />
  </g>
</svg>