<svg xmlns="http://www.w3.org/2000/svg" width="512" height="512" viewBox="0 0 512 512">
  <g class="glyph">
    <path d="M 0 420 Q 49 386 64 301 Q 79 228 79 109 Q 79 68 68 26 Q 73 28 85 32 Q 105 38 109 41 Q 151 36 169 21 Q 188 38 224 45 Q 211 68 209 105 Q 207 196 209 343 Q 254 337 324 326 V 222 Q 290 228 273 228 Q 265 228 239 207 Q 284 201 324 190 V 130 Q 324 38 305 0 Q 341 9 378 9 Q 358 68 358 183 Q 390 173 422 169 Q 429 166 435 171 Q 442 175 448 183 Q 450 186 452 188 Q 452 188 452 190 Q 457 198 448 198 Q 433 203 401 207 Q 373 213 358 215 Q 356 286 358 322 Q 444 309 480 305 Q 491 305 495 311 Q 506 324 510 335 Q 512 341 512 343 Q 512 346 506 346 Q 384 346 252 371 Q 243 375 233 369 Q 220 358 209 346 Q 205 422 198 422 Q 138 407 117 369 Q 111 363 113 358 Q 115 354 124 356 Q 145 361 154 361 Q 169 361 169 350 Q 177 230 173 60 Q 173 53 169 53 Q 147 53 119 64 L 111 55 Q 130 108 111 130 Q 117 130 128 126 Q 143 124 151 122 Q 162 134 166 149 Q 137 149 111 154 Q 111 166 109 190 Q 109 215 107 228 Q 117 224 141 218 Q 147 215 151 215 Q 162 233 166 243 Q 151 243 122 247 Q 111 250 105 250 Q 82 339 85 369 Q 73 425 0 420 Z" fill="black" />
  </g>
  <g class="defect" id="01">
    <path d="M 105 250 Q 82 339 85 369" fill="none" stroke="red" stroke-width="3" />
  </g>
  <g class="defect" id="02">
    <path d="M 198 422 Q 138 407 117 369" fill="none" stroke="red" stroke-width="3" />
  </g>
  <g class="defect" id="03">
    <path d="M 111 55 Q 130 108 111 130" fill="none" stroke="red" stroke-width="3" />
  </g>
</svg>