<svg xmlns="http://www.w3.org/2000/svg" width="512" height="512" viewBox="0 0 512 512">
  <g class="glyph">
    <path d="M 31 227 Q 76 218 126 204 Q 126 193 128 172 Q 128 153 128 145 Q 92 155 84 155 Q 65 147 55 136 Q 78 134 128 118 Q 128 44 111 0 Q 149 10 174 10 Q 164 46 159 105 Q 176 101 189 94 Q 197 90 204 97 Q 204 97 206 99 Q 214 107 218 111 Q 222 113 222 118 Q 220 120 216 120 Q 208 122 187 128 Q 168 134 157 138 Q 155 164 155 191 Q 168 187 176 180 Q 199 197 231 197 Q 208 218 191 256 Q 187 262 180 275 Q 172 294 166 304 Q 168 304 172 306 Q 208 327 231 338 Q 273 365 355 384 Q 420 397 493 422 Q 512 428 512 436 Q 510 445 491 447 Q 420 449 346 441 Q 321 436 292 420 Q 199 361 147 332 Q 124 357 92 380 Q 69 392 46 392 Q 23 392 0 374 Q 67 361 115 313 Q 78 290 57 281 Q 52 279 52 277 Q 50 275 55 273 Q 67 258 80 264 Q 103 273 134 290 Q 162 252 174 214 Q 162 218 134 227 Q 110 255 76 248 Q 67 250 59 248 Q 44 239 31 227 Z M 403 176 409 185 V 78 Q 411 71 405 73 Q 394 76 361 84 Q 350 80 336 63 Q 384 57 405 42 Q 428 55 457 59 Q 443 90 441 145 Q 441 170 443 225 Q 443 264 443 279 Q 443 363 430 363 Q 403 361 350 306 Q 346 302 346 298 Q 348 294 355 294 Q 384 298 392 298 Q 407 298 407 285 Q 409 252 409 185 Q 399 199 376 229 Q 359 252 353 260 Q 340 243 321 229 V 256 Q 323 344 308 350 Q 279 342 235 298 Q 229 292 229 287 Q 231 283 239 283 Q 250 285 271 285 Q 287 285 290 275 Q 292 250 292 212 Q 283 222 266 241 Q 246 266 239 275 Q 231 260 208 241 Q 237 231 294 195 Q 294 151 294 90 Q 294 86 290 88 Q 264 92 243 99 Q 235 97 218 78 Q 277 69 290 57 Q 315 73 338 73 Q 325 99 323 136 Q 321 172 321 227 Q 355 214 403 176 Z M 340 120 Q 357 124 388 134 Q 394 143 390 162 Q 388 172 384 172 Q 382 174 374 168 Q 355 149 336 128 Q 332 122 340 120 Z M 237 130 Q 269 138 277 145 Q 283 147 283 153 Q 283 155 283 164 Q 281 174 281 178 Q 277 187 269 180 Q 232 142 233 136 Q 231 134 231 130 Q 233 128 237 130 Z" fill="black" />
  </g>
  <g class="defect" id="01">
    <path d="M 134 227 Q 110 255 76 248" fill="none" stroke="red" stroke-width="3" />
  </g>
  <g class="defect" id="02">
    <path d="M 269 180 Q 232 142 233 136" fill="none" stroke="red" stroke-width="3" />
  </g>
</svg>