<svg xmlns="http://www.w3.org/2000/svg" width="512" height="512" viewBox="0 0 512 512">
  <g class="glyph">
    <path d="M 0 406 Q 91 378 166 333 Q 164 318 160 309 Q 162 309 164 311 Q 173 311 190 318 Q 210 302 246 272 Q 248 270 248 270 Q 130 281 58 300 Q 48 305 41 298 Q 24 283 11 270 Q 60 266 223 242 V 203 Q 214 205 194 207 Q 179 212 173 212 Q 160 214 153 210 Q 143 201 130 188 Q 151 186 194 179 Q 214 177 223 175 Q 223 134 216 114 Q 240 123 266 123 Q 259 136 257 169 Q 281 164 302 162 Q 307 158 311 164 Q 313 169 320 179 Q 324 184 324 186 Q 328 181 333 177 Q 354 143 356 125 Q 374 140 402 153 Q 382 162 363 190 Q 346 210 333 229 Q 402 218 467 212 Q 480 210 486 218 Q 497 231 503 244 Q 506 248 506 251 Q 503 253 499 253 Q 415 253 300 264 Q 283 283 248 313 Q 251 311 246 315 Q 289 305 313 296 Q 343 318 382 322 Q 356 325 369 434 Q 369 484 367 503 Q 367 510 363 512 Q 359 512 352 506 Q 315 490 322 475 Q 270 475 205 480 V 499 Q 205 508 203 510 Q 203 512 197 508 Q 171 490 164 480 Q 173 436 171 372 Q 143 393 86 417 Q 58 432 43 428 Q 17 421 0 406 Z M 436 50 Q 439 52 441 56 Q 449 69 452 73 Q 456 78 454 82 Q 452 84 445 84 Q 389 84 326 89 Q 322 108 315 123 Q 302 147 268 143 Q 285 119 292 93 Q 274 95 240 97 Q 212 102 197 102 Q 197 119 199 132 Q 199 158 194 156 Q 186 153 164 130 Q 164 121 164 108 Q 112 114 86 121 Q 78 125 73 119 Q 67 117 56 106 Q 50 102 48 99 Q 45 95 45 93 Q 45 93 52 93 Q 102 89 160 80 Q 153 45 138 30 Q 166 37 192 30 Q 190 39 194 71 Q 194 69 194 76 Q 199 76 210 73 Q 242 69 300 60 Q 305 26 298 0 Q 322 11 348 11 Q 339 26 333 52 Q 333 56 333 56 Q 356 54 408 48 Q 374 52 419 45 Q 432 43 436 50 Z M 212 343 Q 210 346 203 350 V 391 Q 253 380 296 376 Q 305 382 311 402 Q 277 402 203 415 L 205 458 Q 218 458 244 454 Q 296 452 315 452 Q 315 452 322 456 Q 322 454 324 454 Q 326 447 326 439 Q 328 395 328 333 Q 328 326 318 326 Q 307 328 277 333 Q 231 339 212 343 Z M 324 188 Q 322 188 318 188 Q 292 190 255 197 Q 253 214 253 240 Q 270 235 285 235 Q 305 210 324 188 Z" fill="black" />
  </g>
  <g class="defect" id="01">
    <path d="M 382 322 Q 356 325 369 434" fill="none" stroke="red" stroke-width="3" />
  </g>
  <g class="defect" id="02">
    <path d="M 352 506 Q 315 490 322 475" fill="none" stroke="red" stroke-width="3" />
  </g>
</svg>