<svg xmlns="http://www.w3.org/2000/svg" width="512" height="512" viewBox="0 0 512 512">
  <g class="glyph">
    <path d="M 391 216 Q 398 216 404 220 Q 413 228 419 241 Q 421 243 421 248 Q 419 250 415 250 Q 364 252 311 256 Q 336 269 353 281 Q 381 300 408 311 Q 470 334 501 360 Q 510 366 508 370 Q 506 374 495 374 Q 425 381 391 366 Q 381 362 351 330 Q 341 319 336 315 Q 309 286 279 258 Q 233 264 184 271 Q 167 336 93 383 Q 74 400 44 400 Q 21 400 0 387 Q 93 341 138 279 Q 129 279 112 284 Q 95 286 87 288 Q 80 288 74 286 Q 63 277 51 264 Q 70 262 129 254 Q 148 252 157 250 Q 161 245 167 233 Q 171 224 173 220 Q 161 222 150 226 Q 142 226 133 222 Q 129 218 125 214 Q 118 209 116 205 Q 131 203 169 197 Q 180 195 184 195 Q 190 182 195 167 Q 165 173 140 178 Q 131 182 123 176 Q 121 171 114 167 Q 124 176 104 159 Q 123 157 171 146 Q 190 144 201 142 Q 205 129 205 116 Q 205 110 203 97 Q 205 104 201 93 Q 216 102 252 112 Q 254 112 254 112 Q 245 123 239 135 Q 311 121 326 121 Q 339 118 343 125 Q 345 127 349 133 Q 353 140 353 142 Q 358 148 349 150 Q 288 154 228 163 Q 224 176 220 188 Q 239 184 277 178 Q 296 176 305 173 Q 315 171 319 176 Q 328 184 332 193 Q 334 199 328 201 Q 309 203 275 207 Q 233 212 209 214 Q 203 231 197 243 Q 256 235 391 216 Z M 330 341 Q 339 345 347 360 Q 349 364 349 366 Q 347 368 343 368 Q 336 368 319 370 Q 307 370 250 377 Q 252 421 252 459 Q 252 512 250 510 Q 226 504 207 480 Q 220 463 220 402 Q 188 440 142 472 Q 125 484 106 482 Q 80 482 68 472 Q 127 449 201 383 Q 171 389 142 394 Q 133 396 127 391 Q 134 392 112 372 Q 167 366 220 355 Q 220 339 216 326 Q 205 330 195 330 Q 176 330 161 311 Q 241 296 267 269 Q 277 286 294 298 Q 273 300 252 311 Q 248 313 241 315 Q 233 319 228 322 Q 243 324 258 324 Q 252 330 252 349 Q 254 349 260 347 Q 286 343 319 339 Q 326 334 330 341 Z M 423 47 Q 429 51 440 66 Q 442 72 440 74 Q 438 76 432 76 Q 364 76 324 80 Q 313 121 271 114 Q 281 97 288 83 Q 237 87 186 93 Q 190 127 184 129 Q 165 123 152 110 Q 154 106 154 97 Q 112 102 76 108 Q 66 104 47 87 Q 42 83 44 83 Q 44 80 49 80 Q 66 78 102 74 Q 133 72 150 70 Q 146 44 129 25 Q 159 28 182 25 Q 180 44 182 68 Q 237 59 298 53 Q 307 25 300 0 Q 319 11 345 11 Q 341 19 334 36 Q 332 44 330 49 Q 341 49 364 44 Q 391 42 404 40 Q 419 40 423 47 Z M 267 396 Q 326 408 368 427 Q 372 436 368 470 Q 368 476 366 476 Q 364 476 358 474 Q 290 429 262 402 Q 260 398 262 396 Q 264 394 267 396 Z" fill="black" />
  </g>
  <g class="defect" id="01">
    <path d="M 184 271 Q 167 336 93 383" fill="none" stroke="red" stroke-width="3" />
  </g>
  <g class="defect" id="02">
    <path d="M 114 167 Q 124 176 104 159" fill="none" stroke="red" stroke-width="3" />
  </g>
  <g class="defect" id="03">
    <path d="M 127 391 Q 134 392 112 372" fill="none" stroke="red" stroke-width="3" />
  </g>
</svg>