<svg xmlns="http://www.w3.org/2000/svg" width="512" height="512" viewBox="0 0 512 512">
  <g class="glyph">
    <path d="M 469 346 Q 482 346 488 352 Q 495 361 508 380 Q 512 387 510 389 Q 508 393 501 391 Q 369 382 207 406 Q 197 410 190 404 Q 188 404 184 400 Q 171 389 166 380 Q 190 378 266 369 Q 294 367 309 365 V 298 Q 272 305 257 305 Q 244 298 231 283 Q 255 279 296 270 Q 305 268 309 268 Q 309 227 296 194 Q 292 197 281 199 Q 259 207 240 216 Q 231 194 216 177 Q 240 171 264 145 Q 296 104 300 69 Q 257 76 251 73 Q 235 71 223 50 Q 246 48 356 24 Q 400 15 417 11 Q 423 9 430 15 Q 445 30 449 37 Q 452 41 452 43 Q 449 45 445 45 Q 372 58 322 67 Q 335 73 352 80 Q 339 89 324 110 Q 302 140 272 166 Q 292 162 333 156 Q 372 149 391 147 Q 380 134 374 121 Q 369 114 372 112 Q 374 110 380 112 Q 432 138 445 147 Q 456 153 452 162 Q 452 169 447 190 Q 445 192 445 194 Q 443 203 441 203 Q 436 205 432 199 Q 419 186 404 166 Q 382 171 333 186 Q 313 190 305 192 Q 331 199 354 199 Q 346 227 343 259 Q 369 253 402 246 Q 423 261 428 272 Q 413 261 430 279 Q 430 281 426 281 Q 380 287 343 294 Q 341 326 341 361 Q 404 352 469 346 Z M 158 261 Q 203 294 212 305 Q 210 322 201 343 Q 199 350 197 350 Q 192 350 188 343 Q 184 337 171 311 Q 134 333 65 374 Q 43 387 35 393 Q 19 367 0 348 Q 13 346 52 333 Q 78 324 93 320 V 242 Q 80 244 65 248 Q 67 268 63 270 Q 60 270 35 248 Q 30 181 9 143 Q 28 143 54 147 Q 78 145 93 138 V 99 Q 93 41 76 0 Q 110 11 136 11 Q 125 48 125 97 Q 123 112 123 130 Q 138 125 156 112 Q 181 134 225 143 Q 203 158 179 207 Q 192 216 197 227 Q 186 229 160 231 Q 136 235 123 238 V 309 Q 130 307 143 300 Q 156 296 162 294 Q 156 281 149 268 Q 147 261 149 259 Q 151 257 158 261 Z M 56 173 Q 58 184 63 227 L 93 218 Q 93 192 93 164 Q 76 171 56 173 Z M 153 151 Q 149 151 143 156 Q 130 158 123 160 V 212 L 153 205 Q 158 177 160 156 Q 160 149 153 151 Z" fill="black" />
  </g>
  <g class="defect" id="01">
    <path d="M 428 272 Q 413 261 430 279" fill="none" stroke="red" stroke-width="3" />
  </g>
</svg>