<svg xmlns="http://www.w3.org/2000/svg" width="512" height="512" viewBox="0 0 512 512">
  <g class="glyph">
    <path d="M 293 0 Q 308 11 342 19 Q 327 34 321 58 Q 366 52 331 56 Q 366 52 407 47 Q 422 45 424 54 Q 428 58 435 69 Q 437 73 439 75 Q 441 82 441 84 Q 439 86 432 86 Q 374 84 308 90 Q 305 93 303 99 Q 299 105 297 110 Q 282 133 247 125 Q 260 112 271 93 Q 256 95 228 97 Q 204 101 191 101 Q 191 110 194 116 Q 194 144 189 142 Q 176 136 161 116 Q 161 110 161 105 Q 112 112 69 118 Q 56 108 43 95 Q 39 93 39 90 Q 41 88 45 88 Q 75 86 144 80 Q 97 84 159 77 Q 151 39 138 22 Q 157 39 189 22 Q 187 37 189 73 Q 239 67 284 62 Q 297 30 293 0 Z M 258 241 Q 252 239 256 232 Q 265 226 271 228 Q 288 234 303 245 Q 364 200 374 163 Q 417 194 422 207 Q 400 213 355 237 Q 333 250 321 256 Q 323 256 325 260 Q 374 293 402 301 Q 447 316 499 342 Q 512 351 512 355 Q 512 359 501 361 Q 419 366 396 355 Q 381 349 325 297 Q 275 250 258 241 Z M 232 207 Q 254 181 280 157 Q 209 170 153 187 Q 138 179 123 159 Q 230 153 282 129 Q 303 155 338 172 Q 310 179 247 209 Q 256 239 256 288 Q 252 342 243 342 Q 228 342 183 305 Q 176 299 179 297 Q 179 293 187 295 Q 224 301 222 288 Q 230 228 204 202 Q 209 204 217 204 Q 228 207 232 207 Z M 153 211 Q 172 232 198 241 Q 183 252 151 295 Q 105 357 73 379 Q 30 407 0 374 Q 88 346 148 245 Q 114 252 75 267 Q 56 252 47 239 Q 118 237 153 211 Z M 318 340 Q 323 344 329 353 Q 327 351 331 357 Q 333 359 333 361 Q 333 364 327 366 Q 278 372 181 383 Q 157 387 153 387 Q 138 381 125 366 Q 159 364 260 346 Q 293 340 308 338 Q 314 338 318 340 Z M 349 383 Q 407 407 430 426 Q 437 428 426 463 Q 424 469 422 471 Q 419 473 413 469 Q 372 437 342 392 Q 338 385 340 381 Q 342 379 349 383 Z M 82 499 Q 71 493 52 484 Q 43 480 39 478 Q 32 478 37 469 Q 65 441 88 396 Q 90 392 95 394 Q 97 394 97 400 Q 90 460 82 499 Z M 254 394 Q 303 419 303 424 Q 310 430 295 458 Q 293 463 290 463 Q 288 463 284 458 Q 267 441 250 407 Q 247 402 245 400 Q 243 396 245 394 Q 250 392 254 394 Z M 159 404 Q 207 432 209 437 Q 211 441 196 471 Q 191 475 191 475 Q 189 475 185 471 Q 163 437 153 411 Q 151 404 153 404 Q 155 402 159 404 Z" fill="black" />
  </g>
  <g class="defect" id="01">
    <path d="M 138 22 Q 157 39 189 22" fill="none" stroke="red" stroke-width="3" />
  </g>
  <g class="defect" id="02">
    <path d="M 374 163 Q 417 194 422 207" fill="none" stroke="red" stroke-width="3" />
  </g>
</svg>