<svg xmlns="http://www.w3.org/2000/svg" width="512" height="512" viewBox="0 0 512 512">
  <g class="glyph">
    <path d="M 400 75 Q 423 95 453 104 Q 433 120 425 148 Q 412 205 396 250 Q 427 297 445 307 Q 499 320 504 354 Q 512 362 510 368 Q 510 372 500 372 Q 451 372 425 358 Q 410 354 380 291 Q 362 329 341 345 Q 317 366 291 356 V 358 Q 293 437 286 437 Q 274 435 246 402 Q 258 376 258 307 Q 240 317 203 339 Q 169 360 154 368 Q 152 366 150 364 Q 132 339 122 331 Q 116 339 104 354 Q 89 370 83 378 Q 77 356 51 331 Q 77 307 81 276 Q 81 266 85 238 Q 89 189 91 167 Q 63 179 30 195 Q 18 179 0 163 Q 73 156 95 128 Q 112 146 146 150 Q 126 173 122 215 Q 116 258 114 297 Q 118 295 124 293 Q 134 286 154 280 Q 169 272 173 276 Q 175 280 163 293 Q 154 299 138 317 Q 130 325 126 329 Q 150 319 181 311 Q 185 128 173 100 Q 167 100 163 100 Q 148 98 132 79 Q 161 75 242 55 Q 284 45 305 41 Q 311 39 315 45 Q 325 51 333 63 Q 337 69 329 71 Q 295 77 264 83 Q 278 89 295 89 Q 286 110 286 152 Q 286 205 289 272 Q 295 268 305 266 Q 313 262 319 266 Q 323 272 317 276 Q 301 282 289 293 Q 289 311 289 331 Q 331 307 358 248 Q 317 195 309 177 Q 303 171 307 167 Q 321 154 329 163 Q 343 173 370 211 Q 368 209 374 215 Q 390 167 400 112 Q 392 116 372 122 Q 349 130 339 134 Q 319 126 307 108 Q 384 100 400 75 Z M 258 152 Q 258 106 252 85 Q 211 91 187 98 Q 203 102 215 102 Q 209 106 209 154 Q 215 152 228 148 Q 238 146 244 144 Q 252 152 258 169 Q 248 169 226 173 Q 215 175 209 175 Q 207 197 207 221 Q 215 219 230 217 Q 220 194 246 213 Q 254 226 258 238 Q 252 238 242 240 Q 219 240 207 244 V 301 Q 217 297 234 291 Q 252 284 260 282 Q 260 268 260 234 Q 258 183 258 152 Z M 85 2 Q 89 4 100 6 Q 140 16 140 20 Q 146 26 138 61 Q 136 71 134 71 Q 132 71 126 65 Q 102 47 75 12 Q 71 4 73 2 Q 75 0 85 2 Z" fill="black" />
  </g>
  <g class="defect" id="01">
    <path d="M 358 248 Q 317 195 309 177" fill="none" stroke="red" stroke-width="3" />
  </g>
  <g class="defect" id="02">
    <path d="M 230 217 Q 220 194 246 213" fill="none" stroke="red" stroke-width="3" />
  </g>
  <g class="defect" id="03">
    <path d="M 445 307 Q 499 320 504 354" fill="none" stroke="red" stroke-width="3" />
  </g>
</svg>