<svg xmlns="http://www.w3.org/2000/svg" width="512" height="512" viewBox="0 0 512 512">
  <g class="glyph">
    <path d="M 475 302 Q 485 302 491 310 Q 500 323 506 331 Q 512 343 502 343 Q 443 339 360 345 Q 271 352 204 364 Q 196 364 187 358 Q 185 354 179 348 Q 169 337 167 333 Q 198 329 237 327 Q 241 185 237 129 Q 235 67 225 40 Q 246 40 266 50 Q 341 40 358 23 Q 381 42 423 46 Q 408 71 410 308 Q 445 304 475 302 Z M 277 75 271 65 Q 271 98 271 139 Q 277 137 293 133 Q 318 127 333 125 Q 335 127 350 152 Q 312 156 271 162 V 229 Q 279 227 296 223 Q 325 216 339 214 Q 350 227 356 244 Q 340 244 271 252 V 323 Q 321 318 368 312 Q 373 187 368 81 Q 368 56 358 56 Q 325 62 277 75 Z M 142 210 Q 142 214 139 225 Q 135 273 135 300 Q 144 296 173 281 Q 189 273 196 268 Q 208 262 212 266 Q 216 273 204 283 Q 146 335 106 381 Q 96 348 75 331 Q 98 316 102 287 Q 106 250 110 175 Q 110 164 110 160 Q 71 175 31 196 Q 23 191 6 173 Q 2 169 0 167 Q 79 156 108 123 Q 129 139 162 146 Q 146 156 142 210 Z M 98 2 Q 152 10 164 19 Q 171 27 167 58 Q 179 69 162 71 Q 158 73 152 67 Q 133 56 87 10 Q 83 4 85 2 Q 87 0 98 2 Z" fill="black" />
  </g>
  <g class="defect" id="01">
    <path d="M 356 244 Q 340 244 271 252" fill="none" stroke="red" stroke-width="3" />
  </g>
  <g class="defect" id="02">
    <path d="M 167 58 Q 179 69 162 71" fill="none" stroke="red" stroke-width="3" />
  </g>
</svg>