<svg xmlns="http://www.w3.org/2000/svg" width="512" height="512" viewBox="0 0 512 512">
  <g class="glyph">
    <path d="M 134 261 130 255 Q 127 290 127 355 Q 123 403 119 401 Q 92 380 84 364 Q 98 351 98 290 Q 98 251 88 232 Q 98 234 119 238 Q 125 240 130 240 Q 215 230 251 209 Q 272 226 313 232 Q 313 234 311 236 Q 301 242 301 326 Q 301 336 301 355 Q 303 401 297 397 Q 274 387 251 359 Q 257 353 259 345 Q 259 343 259 341 Q 259 282 257 242 Q 259 238 253 238 Q 236 240 190 251 Q 146 259 134 261 Z M 224 90 Q 242 100 265 107 Q 255 115 249 125 Q 265 132 295 150 Q 334 176 355 182 Q 399 196 441 219 Q 449 224 447 230 Q 464 245 437 234 Q 391 234 368 232 Q 349 234 332 222 Q 322 213 301 194 Q 259 155 240 142 Q 226 171 196 201 Q 163 240 123 213 Q 180 188 211 134 Q 226 107 224 90 Z M 171 267 Q 188 276 222 280 Q 211 295 207 326 Q 196 420 134 470 Q 88 512 36 474 Q 157 445 176 326 Q 180 286 171 267 Z M 309 31 Q 330 56 372 71 Q 343 92 299 109 Q 290 111 288 109 Q 286 107 290 100 Q 303 79 309 61 Q 288 63 253 75 Q 234 82 226 84 Q 224 84 219 77 Q 215 73 213 71 Q 201 96 182 119 Q 161 144 125 125 Q 194 77 201 0 Q 222 15 247 19 Q 232 29 222 54 Q 222 54 222 56 Q 219 59 219 61 Q 266 62 309 31 Z M 123 153 Q 136 146 140 148 Q 142 150 132 161 Q 59 226 19 255 Q 8 232 2 196 Q 0 190 4 188 Q 8 188 13 194 Q 17 201 25 196 Q 36 190 75 173 Q 109 159 123 153 Z M 217 395 Q 301 422 320 435 Q 326 439 320 481 Q 318 493 305 485 Q 265 458 213 403 Q 211 399 211 395 Q 224 410 217 395 Z M 52 69 Q 102 75 109 77 Q 119 88 115 113 Q 113 121 111 121 Q 109 123 100 117 Q 67 98 46 77 Q 40 71 42 69 Q 44 67 52 69 Z" fill="black" />
  </g>
  <g class="defect" id="01">
    <path d="M 211 395 Q 224 410 217 395" fill="none" stroke="red" stroke-width="3" />
  </g>
  <g class="defect" id="02">
    <path d="M 219 61 Q 266 62 309 31" fill="none" stroke="red" stroke-width="3" />
  </g>
  <g class="defect" id="03">
    <path d="M 447 230 Q 464 245 437 234" fill="none" stroke="red" stroke-width="3" />
  </g>
</svg>