<svg xmlns="http://www.w3.org/2000/svg" width="512" height="512" viewBox="0 0 512 512">
  <g class="glyph">
    <path d="M 96 70 92 66 Q 108 152 87 290 Q 87 299 85 299 Q 85 301 79 297 Q 66 290 47 271 Q 58 235 58 149 Q 58 70 47 38 Q 66 41 83 47 Q 147 43 171 21 Q 201 45 235 47 Q 218 64 218 115 Q 218 132 220 181 Q 222 258 222 297 Q 222 303 220 305 Q 215 307 211 303 Q 186 286 173 273 Q 181 250 181 230 Q 181 151 181 66 Q 181 66 181 64 Q 179 49 173 51 Q 169 53 154 55 Q 111 66 96 70 Z M 115 105 Q 141 113 166 115 Q 158 126 154 160 Q 154 162 154 164 Q 149 339 87 397 Q 51 431 0 403 Q 126 354 122 158 Q 122 128 115 105 Z M 271 215 Q 252 201 233 194 Q 224 188 230 179 Q 258 147 279 98 Q 282 94 284 96 Q 286 96 286 100 Q 286 109 286 117 Q 401 105 448 79 Q 476 113 512 128 Q 508 130 499 137 Q 452 166 429 179 Q 420 183 418 181 Q 416 181 418 173 Q 420 169 425 156 Q 437 126 444 113 Q 414 119 348 132 Q 314 139 294 143 L 286 130 Q 286 134 284 141 Q 279 173 271 215 Z M 478 290 Q 486 288 493 294 Q 503 311 510 322 Q 512 329 510 331 Q 497 343 503 331 Q 395 320 269 346 Q 258 350 233 318 Q 271 316 350 305 Q 433 292 478 290 Z M 156 314 Q 229 335 233 348 Q 235 363 226 397 Q 226 399 224 399 Q 220 399 215 397 Q 183 371 147 320 Q 143 314 145 314 Q 149 311 156 314 Z M 314 2 Q 375 28 380 36 Q 378 58 371 73 Q 367 90 361 81 Q 333 53 309 11 Q 305 4 305 2 Q 307 0 314 2 Z" fill="black" />
  </g>
  <g class="defect" id="01">
    <path d="M 156 314 Q 229 335 233 348" fill="none" stroke="red" stroke-width="3" />
  </g>
  <g class="defect" id="02">
    <path d="M 92 66 Q 108 152 87 290" fill="none" stroke="red" stroke-width="3" />
  </g>
  <g class="defect" id="03">
    <path d="M 510 331 Q 497 343 503 331" fill="none" stroke="red" stroke-width="3" />
  </g>
</svg>