<svg xmlns="http://www.w3.org/2000/svg" width="512" height="512" viewBox="0 0 512 512">
  <g class="glyph">
    <path d="M 181 303 Q 194 303 211 306 Q 274 259 371 173 Q 375 169 367 169 Q 306 190 251 215 Q 238 221 228 215 Q 206 202 196 192 Q 244 188 316 162 Q 293 141 274 110 Q 250 101 270 99 Q 272 95 282 99 Q 295 101 318 112 Q 324 114 327 116 Q 331 120 331 126 Q 331 143 324 158 Q 371 143 379 133 Q 409 158 453 175 Q 419 183 377 219 Q 316 268 242 312 Q 299 322 369 346 Q 386 352 402 354 Q 421 356 466 362 Q 487 365 497 367 Q 510 371 512 377 Q 512 386 499 390 Q 453 400 402 402 Q 367 402 324 377 Q 265 333 183 324 Q 169 324 171 316 Q 171 303 181 303 Z M 82 80 Q 78 80 76 78 Q 76 105 74 175 Q 72 265 70 293 Q 70 299 65 301 Q 63 301 57 297 Q 40 280 34 270 Q 33 238 44 143 Q 44 72 36 48 Q 53 53 67 59 Q 126 51 150 29 Q 175 53 204 55 Q 194 70 194 112 Q 192 169 194 225 Q 194 234 192 255 Q 192 272 192 278 Q 190 284 188 287 Q 183 287 179 282 Q 171 274 158 257 Q 152 251 150 249 Q 160 238 160 217 Q 160 135 160 65 Q 160 61 154 61 Q 120 70 82 80 Z M 99 103 Q 120 114 143 114 Q 137 124 131 154 Q 131 158 131 160 Q 129 320 74 388 Q 57 400 32 400 Q 17 400 0 396 Q 103 341 103 162 Q 103 124 99 103 Z M 405 44 Q 373 51 350 61 Q 291 88 247 95 Q 221 97 200 70 Q 322 48 360 0 Q 377 27 405 44 Z M 135 312 Q 181 331 192 343 Q 192 367 183 379 Q 179 390 175 390 Q 171 390 164 381 Q 145 354 126 322 Q 120 314 124 310 Q 126 308 135 312 Z" fill="black" />
  </g>
  <g class="defect" id="01">
    <path d="M 211 306 Q 274 259 371 173" fill="none" stroke="red" stroke-width="3" />
  </g>
  <g class="defect" id="02">
    <path d="M 34 270 Q 33 238 44 143" fill="none" stroke="red" stroke-width="3" />
  </g>
  <g class="defect" id="03">
    <path d="M 274 110 Q 250 101 270 99" fill="none" stroke="red" stroke-width="3" />
  </g>
</svg>