<svg xmlns="http://www.w3.org/2000/svg" width="512" height="512" viewBox="0 0 512 512">
  <g class="glyph">
    <path d="M 455 7 Q 459 11 466 23 Q 471 30 473 32 Q 478 37 475 41 Q 473 43 466 41 Q 379 39 249 53 Q 254 53 261 55 Q 270 57 272 59 Q 251 80 245 94 Q 299 89 320 75 Q 343 91 384 98 Q 370 112 363 130 Q 361 139 354 162 Q 345 201 341 203 Q 366 222 400 233 Q 373 245 345 272 Q 359 286 366 297 Q 322 299 240 309 Q 242 309 249 311 Q 265 315 274 313 Q 272 322 270 336 Q 267 343 267 347 Q 279 345 306 341 Q 338 334 354 331 Q 361 329 379 361 Q 311 366 265 373 Q 265 391 265 418 Q 299 434 363 448 Q 439 459 491 478 Q 507 485 507 491 Q 507 496 494 498 Q 368 512 331 496 Q 315 489 270 464 Q 185 421 139 398 Q 117 448 89 466 Q 50 491 0 466 Q 80 441 114 370 Q 128 341 126 315 Q 153 334 176 336 Q 167 345 155 366 Q 153 370 151 373 Q 165 377 192 389 Q 217 400 231 405 Q 231 384 231 345 Q 218 329 226 309 Q 208 313 194 313 Q 194 334 192 334 Q 187 334 165 318 Q 160 315 158 313 Q 151 263 126 222 Q 146 222 174 226 Q 277 215 315 197 Q 295 183 265 155 Q 261 151 261 149 Q 261 146 267 146 Q 325 155 318 139 Q 322 128 325 112 Q 327 107 325 107 Q 325 105 318 107 Q 309 110 274 117 Q 256 119 249 121 Q 247 121 240 117 Q 235 112 233 110 Q 176 192 128 213 Q 80 233 39 201 Q 146 174 203 89 Q 213 75 219 57 Q 144 64 89 75 Q 75 69 55 41 Q 91 41 210 25 Q 363 7 439 2 Q 448 0 455 7 Z M 183 251 Q 185 258 187 279 Q 201 260 190 290 L 313 272 Q 318 249 325 229 Q 302 231 261 240 Q 213 247 183 251 Z" fill="black" />
  </g>
  <g class="defect" id="01">
    <path d="M 231 345 Q 218 329 226 309" fill="none" stroke="red" stroke-width="3" />
  </g>
  <g class="defect" id="02">
    <path d="M 187 279 Q 201 260 190 290" fill="none" stroke="red" stroke-width="3" />
  </g>
</svg>