<svg xmlns="http://www.w3.org/2000/svg" width="512" height="512" viewBox="0 0 512 512">
  <g class="glyph">
    <path d="M 335 98 Q 343 107 352 115 Q 354 117 354 122 Q 352 124 348 124 Q 324 128 265 141 V 201 Q 294 196 352 186 Q 390 177 407 175 Q 420 175 425 181 Q 429 188 435 196 Q 439 203 442 205 Q 446 211 446 213 Q 444 215 435 215 Q 348 220 230 239 Q 256 243 273 243 Q 267 260 267 290 Q 282 288 311 282 Q 341 275 354 273 Q 365 277 378 303 Q 350 305 265 316 Q 265 343 265 380 Q 324 414 367 420 Q 442 433 495 450 Q 512 457 512 461 Q 512 467 497 469 Q 363 489 331 467 Q 299 448 243 410 Q 183 367 151 350 Q 115 427 83 450 Q 51 484 0 459 Q 79 431 124 324 Q 134 290 132 267 Q 158 279 183 284 Q 175 292 160 326 Q 173 331 205 348 Q 222 356 230 361 Q 230 331 230 284 Q 230 254 224 239 Q 158 250 75 267 Q 68 265 43 243 Q 38 239 38 235 Q 41 233 47 233 Q 81 230 179 215 Q 211 209 228 207 Q 230 179 230 147 Q 222 149 205 151 Q 189 156 169 156 Q 154 151 137 134 Q 179 128 228 115 V 87 Q 228 21 215 0 Q 239 11 277 9 Q 269 23 265 79 Q 265 81 265 83 Q 265 92 265 107 Q 271 105 284 102 Q 311 96 322 94 Q 333 92 335 98 Z" fill="black" />
  </g>
  <g class="defect" id="01">
    <path d="M 205 151 Q 189 156 169 156" fill="none" stroke="red" stroke-width="3" />
  </g>
</svg>