<svg xmlns="http://www.w3.org/2000/svg" width="512" height="512" viewBox="0 0 512 512">
  <g class="glyph">
    <path d="M 458 192 Q 467 188 475 198 Q 485 206 487 217 Q 491 221 489 223 Q 489 225 483 225 Q 462 225 415 229 Q 450 225 403 229 Q 396 244 390 266 Q 396 273 403 279 Q 409 285 401 287 Q 382 291 351 295 Q 347 295 345 295 Q 353 301 372 318 Q 415 355 434 363 Q 479 384 504 401 Q 512 407 512 413 Q 512 417 500 417 Q 404 417 411 407 Q 398 398 370 357 Q 351 328 341 318 Q 341 345 341 367 Q 341 367 341 378 Q 345 444 345 460 Q 345 467 341 469 Q 337 469 332 465 Q 330 462 322 454 Q 301 436 299 431 Q 316 421 314 301 Q 310 301 297 303 Q 287 303 283 306 Q 283 332 283 361 Q 283 425 281 456 Q 281 462 279 462 Q 277 462 270 458 Q 248 440 239 425 Q 248 415 254 345 Q 223 390 196 415 Q 165 442 128 417 Q 190 394 246 312 Q 242 312 233 314 Q 221 316 221 316 Q 209 310 198 293 Q 202 293 209 291 Q 225 291 256 285 Q 256 268 256 250 Q 244 252 225 256 Q 219 258 215 258 Q 206 260 200 254 Q 196 252 186 242 Q 186 295 184 314 Q 184 320 175 316 Q 159 297 147 287 Q 153 275 153 256 Q 155 211 155 116 Q 153 99 147 103 Q 140 105 124 109 Q 95 118 83 120 L 74 111 Q 74 204 74 308 Q 74 316 72 318 Q 70 320 66 316 Q 60 312 45 301 Q 39 297 37 295 Q 45 268 47 196 Q 45 122 37 87 Q 43 89 56 91 Q 68 95 72 97 Q 124 93 145 74 Q 173 95 200 97 Q 184 109 186 157 Q 186 188 186 237 Q 198 235 221 231 Q 246 229 256 227 V 204 V 198 Q 237 200 225 204 Q 221 202 206 188 Q 202 184 200 182 Q 202 182 209 180 Q 239 178 256 173 Q 256 171 256 169 Q 252 147 248 136 Q 229 138 225 138 Q 215 136 198 120 Q 231 118 314 99 Q 351 39 349 0 Q 372 19 403 27 Q 392 33 370 58 Q 349 81 337 93 Q 365 87 392 81 Q 398 78 405 85 Q 409 87 411 93 Q 415 97 417 99 Q 421 103 419 103 Q 419 105 415 105 Q 403 107 370 116 Q 330 122 312 126 Q 316 126 322 128 Q 339 132 349 130 Q 347 138 343 155 Q 374 147 376 142 Q 401 161 440 171 Q 429 180 417 198 Z M 120 308 Q 151 320 182 337 Q 184 347 178 374 Q 173 382 167 376 Q 138 351 114 316 Q 101 376 70 407 Q 39 436 0 415 Q 103 367 101 194 Q 101 167 95 145 Q 122 155 138 155 Q 128 182 128 200 Q 126 262 116 306 Q 118 306 118 306 Q 120 308 120 308 Z M 231 29 Q 270 50 281 60 Q 283 66 270 93 Q 268 99 264 99 Q 262 99 258 93 Q 239 68 225 35 Q 223 31 225 29 Q 227 27 231 29 Z M 339 198 V 213 Q 357 209 376 206 Q 376 200 378 192 Q 380 182 380 171 Q 361 173 341 180 Q 339 188 339 198 Z M 283 281 Q 299 279 314 273 V 239 Q 310 239 297 242 Q 287 244 281 246 Q 281 262 283 281 Z M 283 169 Q 299 165 314 163 Q 312 140 308 126 Q 293 130 266 132 Q 258 134 256 134 Q 275 138 289 138 Q 283 149 283 169 Z M 281 206 V 223 Q 287 221 297 219 Q 326 217 314 217 V 198 Q 314 190 314 184 Q 312 184 310 184 Q 297 186 281 192 Z M 365 262 Q 370 250 372 233 Q 363 233 345 237 Q 357 233 339 237 V 268 Q 353 264 365 262 Z" fill="black" />
  </g>
  <g class="defect" id="01">
    <path d="M 500 417 Q 404 417 411 407" fill="none" stroke="red" stroke-width="3" />
  </g>
  <g class="defect" id="02">
    <path d="M 297 219 Q 326 217 314 217" fill="none" stroke="red" stroke-width="3" />
  </g>
</svg>