<svg xmlns="http://www.w3.org/2000/svg" width="512" height="512" viewBox="0 0 512 512">
  <g class="glyph">
    <path d="M 406 328 Q 412 336 419 347 Q 421 349 421 351 Q 419 354 414 354 Q 395 358 358 360 Q 351 362 347 362 V 401 Q 375 397 432 391 Q 460 388 473 386 Q 482 386 486 393 Q 488 397 492 401 Q 497 408 501 419 Q 503 423 503 425 Q 503 425 497 425 Q 336 425 215 445 Q 210 449 200 438 Q 187 425 180 421 Q 193 419 219 417 Q 282 410 317 406 V 367 Q 273 373 269 371 Q 256 364 243 351 Q 282 347 317 341 Q 317 325 317 306 Q 297 308 280 312 Q 280 330 278 328 Q 273 328 256 315 Q 252 310 249 310 Q 247 236 215 187 Q 234 187 256 193 Q 260 193 271 191 Q 302 187 317 184 V 154 V 150 Q 306 152 284 156 Q 267 158 230 167 Q 219 167 215 161 Q 204 154 197 143 Q 265 135 317 124 Q 317 117 315 104 Q 315 91 312 87 Q 304 87 297 91 Q 267 95 245 72 Q 341 52 384 0 Q 399 24 419 39 Q 401 39 375 54 Q 351 67 325 80 Q 325 80 328 80 Q 341 85 356 82 Q 349 93 349 117 Q 440 100 479 95 Q 490 91 492 102 Q 497 106 503 117 Q 505 121 508 124 Q 512 132 501 132 Q 430 132 347 145 V 178 Q 388 171 410 161 Q 436 187 473 193 Q 456 210 436 284 Q 427 312 425 312 Q 417 310 404 295 Q 380 297 347 302 V 334 Q 356 332 375 330 Q 386 325 393 325 Q 399 323 404 328 Q 404 325 406 328 Z M 208 317 Q 104 371 39 414 Q 20 384 0 371 Q 22 364 54 354 Q 54 258 37 223 Q 54 232 89 241 Q 82 258 82 345 Q 100 338 117 334 Q 117 200 113 174 Q 108 174 104 176 Q 100 176 98 176 Q 100 193 95 193 Q 82 189 69 180 Q 65 115 37 74 Q 39 74 43 74 Q 74 78 80 82 Q 150 65 163 50 Q 180 72 219 80 Q 195 100 184 141 Q 191 148 200 161 Q 180 163 128 171 Q 150 176 154 176 Q 152 189 148 230 Q 158 228 178 219 Q 184 217 187 215 Q 193 210 200 217 Q 204 221 210 228 Q 215 234 208 236 Q 200 239 178 245 Q 173 267 156 249 Q 156 247 152 247 Q 150 245 148 245 Q 148 278 148 323 Q 154 321 169 315 Q 193 306 204 304 Q 210 302 213 306 Q 215 312 208 317 Z M 87 104 Q 87 108 89 115 Q 91 143 95 156 L 154 141 Q 156 119 163 91 Q 163 87 161 87 Q 161 85 154 87 Q 117 95 87 104 Z M 408 191 Q 404 191 393 193 Q 362 197 347 200 V 228 Q 362 223 375 221 Q 360 229 384 223 Q 386 226 386 226 Q 393 236 397 243 Q 388 245 360 247 Q 367 247 347 249 V 280 Q 360 278 386 273 Q 395 271 399 271 V 273 Q 401 267 404 249 Q 412 208 414 197 Q 417 189 408 191 Z M 273 241 Q 282 241 302 236 Q 312 234 317 234 V 206 Q 297 208 271 215 L 258 202 Q 267 232 276 291 Q 284 291 299 286 Q 310 284 317 284 Q 317 269 317 256 Q 312 256 302 258 Q 297 258 295 258 Q 297 270 273 241 Z" fill="black" />
  </g>
  <g class="defect" id="01">
    <path d="M 295 258 Q 297 270 273 241" fill="none" stroke="red" stroke-width="3" />
  </g>
  <g class="defect" id="02">
    <path d="M 375 221 Q 360 229 384 223" fill="none" stroke="red" stroke-width="3" />
  </g>
  <g class="defect" id="03">
    <path d="M 178 245 Q 173 267 156 249" fill="none" stroke="red" stroke-width="3" />
  </g>
</svg>