<svg xmlns="http://www.w3.org/2000/svg" width="512" height="512" viewBox="0 0 512 512">
  <g class="glyph">
    <path d="M 311 390 Q 289 368 282 363 Q 307 300 286 217 Q 307 221 318 228 Q 323 228 332 226 Q 341 226 345 226 Q 347 214 350 194 Q 354 180 354 174 Q 320 180 307 180 Q 295 176 280 165 Q 271 329 226 429 Q 198 478 131 467 Q 237 372 246 160 Q 248 104 232 65 Q 250 68 282 79 Q 397 45 420 0 Q 440 25 471 45 Q 451 47 406 63 Q 383 72 370 77 Q 390 83 417 83 Q 404 101 395 135 Q 404 133 422 129 Q 458 117 476 115 Q 485 111 489 117 Q 489 117 492 120 Q 505 129 510 138 Q 512 140 512 142 Q 512 144 505 147 Q 420 160 383 167 Q 377 194 365 221 Q 406 214 426 201 Q 449 223 480 226 Q 465 244 469 332 Q 469 363 469 381 Q 467 388 465 388 Q 462 390 458 386 Q 435 368 426 356 Q 429 350 429 341 Q 444 332 431 327 Q 431 277 431 237 Q 431 230 422 232 Q 361 246 334 253 L 325 246 Q 325 341 323 386 Q 323 392 320 392 Q 318 395 311 390 Z M 210 329 Q 83 397 38 431 Q 27 411 0 383 Q 11 381 43 372 Q 52 370 56 368 Q 54 257 38 232 Q 61 244 92 250 Q 86 262 83 334 Q 83 350 83 359 Q 104 352 124 345 Q 124 226 117 180 Q 134 180 111 180 Q 106 183 104 183 Q 104 201 101 201 Q 88 196 74 187 Q 65 117 41 79 Q 68 79 86 86 Q 88 86 90 83 Q 158 68 169 54 Q 192 79 228 83 Q 208 97 192 147 Q 203 156 208 169 Q 185 169 135 178 Q 138 178 142 180 Q 153 183 162 183 Q 156 198 156 239 Q 167 237 187 228 Q 192 226 194 226 Q 203 226 208 228 Q 210 230 214 235 Q 219 239 219 241 Q 223 244 217 248 Q 169 262 165 259 Q 158 259 156 255 Q 153 289 153 334 Q 165 329 185 323 Q 198 318 205 316 Q 212 314 214 318 Q 217 325 210 329 Z M 354 266 Q 407 280 406 280 Q 392 300 390 332 Q 372 447 314 485 Q 271 510 232 474 Q 343 447 359 329 Q 365 293 354 266 Z M 282 101 Q 282 131 280 158 Q 320 151 359 142 Q 363 104 359 81 Q 327 90 282 101 Z M 392 401 Q 460 424 485 440 Q 492 447 489 485 Q 487 496 485 496 Q 480 498 474 492 Q 413 442 386 408 Q 381 404 383 401 Q 386 399 392 401 Z M 90 108 Q 92 117 95 135 Q 99 156 99 165 L 162 149 Q 162 142 165 131 Q 167 108 169 95 Q 169 90 169 88 Q 167 88 162 90 Q 131 97 90 108 Z" fill="black" />
  </g>
  <g class="defect" id="01">
    <path d="M 429 341 Q 444 332 431 327" fill="none" stroke="red" stroke-width="3" />
  </g>
  <g class="defect" id="02">
    <path d="M 354 266 Q 407 280 406 280" fill="none" stroke="red" stroke-width="3" />
  </g>
  <g class="defect" id="03">
    <path d="M 117 180 Q 134 180 111 180" fill="none" stroke="red" stroke-width="3" />
  </g>
</svg>