<svg xmlns="http://www.w3.org/2000/svg" width="512" height="512" viewBox="0 0 512 512">
  <g class="glyph">
    <path d="M 28 251 Q 58 231 90 155 Q 53 161 46 159 Q 46 159 44 157 Q 28 148 21 136 Q 30 136 76 127 Q 92 125 101 122 Q 125 46 125 0 Q 145 18 180 25 Q 166 42 150 85 Q 143 99 141 113 Q 178 101 198 99 Q 205 95 212 101 Q 221 108 228 120 Q 233 127 226 131 Q 198 134 152 143 Q 134 145 127 148 Q 97 217 78 244 Q 106 238 127 231 Q 127 203 118 171 Q 145 182 173 182 Q 166 203 164 224 Q 171 221 182 217 Q 196 214 201 212 Q 205 212 228 235 Q 231 242 228 242 Q 228 244 224 244 Q 221 244 217 244 Q 196 247 164 254 V 263 Q 180 299 164 318 Q 171 316 185 311 Q 203 304 214 302 Q 235 304 228 314 Q 212 323 178 337 Q 168 341 164 344 Q 164 362 166 401 Q 166 441 166 457 Q 166 507 159 512 Q 117 487 108 461 Q 125 450 127 404 Q 127 381 127 360 Q 78 385 35 406 Q 16 378 0 362 Q 62 348 129 327 Q 129 300 129 270 V 263 Q 69 279 42 295 Q 42 279 28 251 Z M 464 261 Q 353 270 309 277 Q 309 304 307 304 Q 291 298 270 281 Q 270 180 240 113 Q 274 118 291 125 Q 383 111 408 88 Q 441 120 498 129 Q 470 148 441 231 Q 443 235 450 242 Q 461 256 464 261 Z M 295 152 Q 295 157 298 171 Q 302 224 304 249 Q 378 235 401 231 Q 415 141 411 134 Q 408 131 357 141 Q 318 148 295 152 Z M 298 309 Q 318 327 346 341 Q 325 360 314 381 Q 291 420 263 450 Q 226 473 187 450 Q 249 422 281 360 Q 298 334 298 309 Z M 397 323 Q 406 330 427 341 Q 489 378 500 390 Q 505 394 496 438 Q 494 445 494 447 Q 491 457 487 459 Q 482 459 475 452 Q 431 404 387 332 Q 383 321 385 321 Q 385 318 397 323 Z" fill="black" />
  </g>
  <g class="defect" id="01">
    <path d="M 164 263 Q 180 299 164 318" fill="none" stroke="red" stroke-width="3" />
  </g>
  <g class="defect" id="02">
    <path d="M 159 512 Q 117 487 108 461" fill="none" stroke="red" stroke-width="3" />
  </g>
</svg>