<svg xmlns="http://www.w3.org/2000/svg" width="512" height="512" viewBox="0 0 512 512">
  <g class="glyph">
    <path d="M 176 252 Q 200 239 200 204 Q 200 187 191 170 Q 198 172 211 176 Q 226 181 230 183 Q 232 183 237 183 Q 254 181 280 174 Q 280 153 273 138 Q 250 140 224 146 Q 217 148 209 144 Q 215 148 207 144 Q 198 140 183 125 Q 234 125 327 105 Q 346 101 361 93 Q 389 114 430 118 Q 429 114 402 138 Q 402 140 398 142 Q 396 148 387 161 Q 396 166 409 185 Q 394 185 364 189 Q 329 191 312 194 V 230 Q 342 226 364 222 Q 385 217 392 209 Q 415 230 454 234 Q 441 245 432 271 Q 430 278 428 290 Q 426 303 424 312 Q 415 359 404 359 Q 376 351 331 310 Q 327 301 338 299 Q 342 299 351 299 Q 361 301 364 301 Q 385 301 385 288 Q 389 280 394 258 Q 394 256 394 254 Q 396 241 385 243 Q 359 245 314 254 Q 314 275 316 321 Q 316 359 316 376 Q 316 415 310 417 Q 288 409 273 387 Q 282 361 282 288 Q 247 340 209 364 Q 191 374 174 374 Q 153 374 131 359 Q 133 368 131 385 Q 131 392 131 396 Q 146 398 179 407 Q 200 411 211 413 Q 288 432 357 435 Q 435 437 493 454 Q 510 454 510 460 Q 512 467 497 471 Q 435 486 355 486 Q 325 488 299 475 Q 163 422 65 422 Q 30 422 9 428 Q 2 430 0 424 Q 0 409 6 400 Q 9 392 22 392 Q 55 375 103 394 Q 101 340 82 308 Q 80 271 73 245 Q 69 232 43 215 Q 30 200 47 196 Q 105 196 127 198 Q 120 243 110 301 Q 131 323 131 359 Q 202 340 260 262 Q 247 265 234 269 Q 198 278 183 295 Q 183 282 179 258 Q 176 254 176 252 Z M 312 103 301 97 Q 351 45 361 0 Q 381 24 411 41 Q 389 47 368 67 Q 340 88 312 103 Z M 69 75 Q 95 80 133 95 Q 140 101 138 133 Q 138 146 133 151 Q 129 153 120 146 Q 86 118 62 88 Q 58 82 60 77 Q 62 73 69 75 Z M 224 43 Q 265 52 273 56 Q 278 62 273 93 Q 271 101 269 101 Q 265 101 258 97 Q 239 80 217 54 Q 213 45 224 43 Z M 226 243 Q 230 243 237 241 Q 250 241 282 234 Q 282 215 282 198 Q 271 200 250 204 Q 239 207 234 207 Q 234 209 234 213 Q 232 224 226 243 Z M 368 123 Q 349 125 297 133 Q 312 136 318 136 Q 316 144 314 159 Q 312 166 312 170 Q 336 166 355 163 Q 357 155 361 142 Q 366 129 368 123 Z" fill="black" />
  </g>
  <g class="defect" id="01">
    <path d="M 430 118 Q 429 114 402 138" fill="none" stroke="red" stroke-width="3" />
  </g>
  <g class="defect" id="02">
    <path d="M 22 392 Q 55 375 103 394" fill="none" stroke="red" stroke-width="3" />
  </g>
</svg>