<svg xmlns="http://www.w3.org/2000/svg" width="512" height="512" viewBox="0 0 512 512">
  <g class="glyph">
    <path d="M 359 397 Q 431 397 490 410 Q 510 412 512 420 Q 512 427 495 429 Q 460 440 394 453 Q 336 464 296 444 Q 139 383 54 383 Q 31 383 11 390 Q 0 392 0 379 Q 4 368 4 364 Q 9 351 22 353 Q 48 351 94 355 Q 92 312 74 279 Q 74 275 72 264 Q 72 233 65 220 Q 80 195 37 192 Q 28 187 28 181 Q 31 174 39 172 Q 100 172 120 176 Q 113 224 105 272 Q 131 301 124 357 Q 135 359 157 364 Q 187 373 207 377 Q 283 394 359 397 Z M 255 0 Q 292 11 322 15 Q 307 41 303 83 Q 303 96 301 120 Q 298 124 298 129 Q 322 124 373 115 Q 383 113 390 113 Q 401 109 407 120 Q 410 122 412 126 Q 418 137 420 139 Q 427 153 414 153 Q 357 153 294 163 Q 294 166 294 168 Q 292 187 285 211 Q 355 246 397 283 Q 403 301 397 333 Q 394 344 390 346 Q 386 349 377 340 Q 327 288 281 224 Q 268 277 244 312 Q 220 355 179 355 Q 159 355 139 346 Q 235 294 255 170 Q 227 176 203 183 Q 187 187 179 181 Q 166 168 157 155 Q 207 148 259 137 Q 264 89 264 61 Q 276 26 255 0 Z M 61 50 Q 92 57 126 74 Q 133 81 129 118 Q 122 135 109 122 Q 89 107 52 61 Q 48 54 50 52 Q 52 48 61 50 Z" fill="black" />
  </g>
  <g class="defect" id="01">
    <path d="M 264 61 Q 276 26 255 0" fill="none" stroke="red" stroke-width="3" />
  </g>
  <g class="defect" id="02">
    <path d="M 65 220 Q 80 195 37 192" fill="none" stroke="red" stroke-width="3" />
  </g>
</svg>