<svg xmlns="http://www.w3.org/2000/svg" width="512" height="512" viewBox="0 0 512 512">
  <g class="glyph">
    <path d="M 374 15 Q 364 47 362 129 V 135 Q 368 133 377 131 Q 387 129 391 129 Q 425 123 434 112 Q 465 138 512 148 Q 476 173 451 222 Q 468 235 476 250 Q 457 250 408 254 Q 379 256 364 256 Q 364 275 366 311 Q 366 349 366 368 Q 370 459 366 484 Q 351 480 315 446 Q 328 423 330 351 Q 330 341 330 315 Q 332 279 332 260 Q 313 260 288 264 Q 292 286 288 292 Q 286 292 254 271 Q 241 171 216 142 Q 222 142 235 144 Q 260 146 267 148 Q 269 148 273 148 Q 296 146 330 140 Q 330 121 330 106 Q 326 30 313 0 Q 345 13 374 15 Z M 152 362 224 328 Q 231 326 235 330 Q 237 334 231 339 Q 152 398 116 440 Q 114 438 112 434 Q 99 408 87 400 Q 118 377 123 328 Q 127 309 127 292 Q 91 298 68 305 Q 59 303 38 281 Q 59 279 116 264 Q 123 262 127 262 Q 129 231 123 207 Q 121 207 116 209 Q 104 212 99 209 Q 93 209 85 205 Q 83 207 78 212 Q 74 218 72 220 Q 47 250 0 233 Q 87 169 121 59 Q 131 25 129 2 Q 152 19 180 25 Q 165 40 152 70 Q 158 66 142 99 Q 138 106 138 108 Q 150 106 176 99 Q 195 93 203 91 Q 214 87 218 93 Q 228 104 231 108 Q 235 112 233 112 Q 233 114 228 116 Q 140 133 140 129 Q 138 129 131 127 Q 135 129 129 125 Q 114 163 95 190 Q 121 184 180 165 Q 188 163 190 163 Q 199 163 205 165 Q 221 167 214 173 Q 220 180 220 182 Q 224 186 222 186 Q 222 188 218 188 Q 178 199 140 205 Q 146 207 159 212 Q 163 214 165 214 Q 161 228 161 254 Q 163 254 167 254 Q 178 252 197 245 Q 207 243 209 250 Q 218 256 224 264 Q 228 271 224 273 Q 224 273 222 273 Q 190 277 159 284 Q 159 296 157 322 Q 154 349 152 362 Z M 434 148 Q 421 150 396 154 Q 372 157 362 159 Q 364 193 364 231 Q 372 228 387 226 Q 408 222 417 220 Q 419 209 425 184 Q 432 159 434 148 Z M 332 163 Q 298 165 273 169 L 284 241 Q 307 237 332 235 Q 332 197 332 163 Z" fill="black" />
  </g>
  <g class="defect" id="01">
    <path d="M 205 165 Q 221 167 214 173" fill="none" stroke="red" stroke-width="3" />
  </g>
  <g class="defect" id="02">
    <path d="M 152 70 Q 158 66 142 99" fill="none" stroke="red" stroke-width="3" />
  </g>
</svg>