<svg xmlns="http://www.w3.org/2000/svg" width="512" height="512" viewBox="0 0 512 512">
  <g class="glyph">
    <path d="M 162 242 Q 194 222 238 130 Q 192 137 190 135 Q 176 126 165 112 Q 181 112 233 103 Q 245 101 251 98 Q 281 30 277 0 Q 306 21 336 27 Q 322 39 302 73 Q 299 78 299 80 Q 299 80 299 82 Q 297 87 297 89 Q 302 87 313 85 Q 345 78 389 71 Q 395 66 402 73 Q 414 80 421 91 Q 427 101 418 103 Q 411 105 395 107 Q 315 117 279 126 Q 245 197 210 242 Q 242 235 281 229 Q 281 183 270 160 Q 293 169 331 171 Q 322 192 320 222 Q 361 213 402 206 Q 407 206 425 231 Q 427 233 430 235 Q 432 240 432 245 Q 430 247 425 247 Q 393 245 318 254 Q 318 277 318 311 Q 398 297 469 290 Q 462 288 485 297 Q 489 302 503 320 Q 505 322 505 325 Q 507 329 505 331 Q 505 331 498 331 Q 416 331 318 345 V 352 Q 318 409 318 455 Q 315 512 309 512 Q 288 501 263 462 Q 274 446 279 395 Q 281 375 281 350 Q 219 357 139 373 Q 133 375 121 366 Q 107 352 96 341 Q 174 331 281 315 V 258 Q 197 274 171 290 Q 171 263 162 242 Z M 87 146 105 71 50 91 V 370 Q 50 386 50 416 Q 53 475 48 471 Q 16 459 0 430 Q 18 361 21 219 Q 21 96 2 53 Q 41 64 48 69 Q 89 62 105 34 Q 126 55 174 64 Q 139 87 103 144 Q 126 162 144 206 Q 162 254 142 274 Q 112 272 64 233 Q 57 229 57 226 Q 57 222 64 222 Q 89 222 98 219 Q 114 219 107 201 Q 107 199 105 194 Q 96 162 87 146 Z" fill="black" />
  </g>
  <g class="defect" id="01">
    <path d="M 469 290 Q 462 288 485 297" fill="none" stroke="red" stroke-width="3" />
  </g>
</svg>