<svg xmlns="http://www.w3.org/2000/svg" width="512" height="512" viewBox="0 0 512 512">
  <g class="glyph">
    <path d="M 373 330 Q 405 346 421 360 Q 426 366 414 391 Q 412 398 410 398 Q 407 398 403 394 Q 396 382 385 369 Q 296 398 253 423 Q 246 403 225 380 Q 246 380 305 369 Q 300 369 314 366 V 325 Q 300 330 287 330 V 332 Q 287 348 284 348 Q 275 344 262 332 Q 262 289 243 259 Q 257 259 273 264 Q 271 262 275 264 Q 294 259 314 257 Q 312 225 305 212 Q 298 221 287 232 Q 257 255 225 232 Q 296 200 316 141 Q 309 143 305 143 Q 305 157 305 159 Q 300 159 275 141 Q 271 80 241 34 Q 246 34 259 34 Q 273 36 282 36 Q 394 23 444 0 Q 473 25 507 34 Q 487 43 471 100 Q 460 137 453 141 Q 448 139 435 123 Q 391 127 332 139 Q 348 150 357 150 Q 344 162 328 182 Q 421 168 448 150 Q 469 173 512 182 Q 501 198 496 248 Q 496 253 496 266 Q 489 357 489 407 Q 489 480 478 480 Q 457 482 391 423 Q 385 414 387 412 Q 387 407 396 410 Q 451 416 446 396 Q 451 330 457 191 Q 457 184 451 187 Q 430 191 385 203 Q 355 207 339 212 Q 332 212 319 193 Q 312 200 305 212 Q 323 221 350 223 Q 348 232 344 248 Q 369 241 378 234 Q 394 253 428 264 Q 412 269 403 296 Q 405 300 410 309 Q 412 312 412 314 Q 378 316 341 323 V 362 Q 348 360 360 357 Q 373 355 378 355 Q 378 350 373 344 Q 371 337 369 335 Q 362 325 373 330 Z M 43 266 Q 41 266 36 262 Q 16 253 9 248 Q 0 243 7 234 Q 20 216 43 171 Q 33 143 50 157 Q 52 152 55 155 Q 57 155 57 159 V 177 Q 61 175 68 175 Q 77 173 82 173 Q 73 59 57 32 Q 61 34 77 36 Q 91 39 96 39 Q 152 30 180 9 Q 198 30 239 41 Q 218 57 205 143 Q 218 139 223 134 Q 248 164 278 177 Q 241 203 218 209 Q 212 214 207 212 Q 205 209 209 203 Q 216 187 223 166 Q 173 175 64 200 L 55 191 Q 55 225 43 266 Z M 157 207 Q 187 225 216 225 Q 207 253 207 289 Q 207 357 209 403 Q 209 473 203 473 Q 175 469 132 426 Q 125 419 127 416 Q 127 412 137 414 Q 175 419 171 400 Q 171 287 168 243 Q 168 234 162 237 Q 146 241 127 250 Q 121 253 116 255 Q 114 250 109 248 Q 107 264 107 289 Q 114 287 130 284 Q 141 280 146 280 Q 157 284 164 303 Q 134 305 107 309 Q 105 325 105 346 Q 114 344 127 339 Q 143 337 150 335 Q 167 341 164 360 Q 157 360 143 362 Q 118 364 102 366 Q 102 373 102 389 Q 100 403 100 412 Q 96 469 91 466 Q 61 446 55 426 Q 75 400 77 289 Q 82 241 71 221 Q 77 223 93 228 Q 102 230 105 230 Q 139 225 157 207 Z M 98 61 Q 100 73 100 91 Q 118 86 123 80 Q 141 93 168 98 Q 150 118 148 159 Q 162 155 175 152 Q 177 130 180 86 Q 184 59 184 48 Q 187 41 180 41 Q 166 43 127 55 Q 107 59 98 61 Z M 444 41 Q 446 36 444 34 Q 444 32 439 34 Q 416 36 389 43 Q 403 50 423 50 Q 416 55 405 77 Q 398 96 391 105 Q 396 105 405 102 Q 426 100 432 98 Q 439 75 444 41 Z M 346 114 Q 353 112 362 109 Q 373 107 378 107 Q 378 102 380 96 Q 382 71 382 43 Q 373 46 355 48 Q 339 52 332 52 Q 355 77 355 89 Q 357 93 346 114 Z M 300 123 Q 319 118 332 116 Q 332 109 328 89 Q 323 64 321 55 Q 303 59 289 59 Q 296 93 300 123 Z M 102 112 Q 102 121 105 139 Q 105 159 105 168 Q 109 168 123 166 Q 114 168 127 164 Q 127 116 130 105 Q 141 92 112 109 Q 105 112 102 112 Z M 373 264 Q 360 266 341 271 Q 341 284 341 300 Q 362 296 375 294 Q 375 289 375 282 Q 378 275 378 269 Q 380 262 373 264 Z M 280 282 Q 282 287 282 296 Q 284 307 284 312 Q 300 307 314 307 V 280 V 275 Q 298 278 280 282 Z" fill="black" />
  </g>
  <g class="defect" id="01">
    <path d="M 43 171 Q 33 143 50 157" fill="none" stroke="red" stroke-width="3" />
  </g>
  <g class="defect" id="02">
    <path d="M 150 335 Q 167 341 164 360" fill="none" stroke="red" stroke-width="3" />
  </g>
  <g class="defect" id="03">
    <path d="M 130 105 Q 141 92 112 109" fill="none" stroke="red" stroke-width="3" />
  </g>
</svg>