<svg xmlns="http://www.w3.org/2000/svg" width="512" height="512" viewBox="0 0 512 512">
  <g class="glyph">
    <path d="M 168 315 Q 162 322 155 339 Q 149 354 144 361 Q 151 361 162 359 Q 228 352 260 346 Q 254 341 252 337 Q 254 326 258 309 Q 260 295 263 287 Q 265 284 263 282 Q 263 282 256 282 Q 163 293 140 304 Q 125 293 114 278 Q 210 274 265 252 Q 289 276 319 282 Q 300 293 289 341 Q 330 335 346 326 Q 376 352 420 363 Q 400 379 379 462 Q 365 512 359 512 Q 330 508 280 453 Q 276 449 278 446 Q 280 444 287 446 Q 339 455 335 440 Q 335 438 337 433 Q 350 387 354 370 Q 354 361 346 361 Q 186 372 118 398 Q 114 376 101 363 Q 131 341 123 300 Q 142 313 168 315 Z M 361 120 Q 370 140 398 153 Q 379 158 354 177 Q 298 221 247 245 Q 197 269 162 232 Q 212 230 276 197 Q 276 142 267 123 Q 245 125 203 133 Q 195 136 190 136 Q 182 136 175 131 Q 168 127 158 116 Q 155 114 153 112 Q 166 112 190 107 Q 206 105 214 105 Q 212 63 201 48 Q 221 55 247 55 Q 241 70 241 101 Q 256 96 276 94 Q 278 22 265 0 Q 298 9 315 7 Q 309 22 306 44 Q 317 42 339 35 Q 361 31 372 28 Q 383 33 389 50 Q 381 53 365 55 Q 322 61 306 63 Q 304 77 304 90 Q 357 83 409 72 Q 418 72 422 79 Q 433 88 435 96 Q 440 101 438 103 Q 438 105 431 105 Q 376 107 274 120 Q 282 123 298 123 Q 309 125 313 125 Q 304 144 304 179 Q 341 153 361 120 Z M 103 125 Q 118 88 123 59 Q 120 59 114 61 Q 88 70 77 74 Q 77 103 79 153 Q 79 188 79 203 Q 79 302 74 295 Q 48 282 31 254 Q 46 221 48 151 Q 50 81 35 39 Q 39 42 48 44 Q 68 50 74 53 Q 112 44 120 26 Q 149 48 186 55 Q 155 68 125 125 Q 162 149 164 190 Q 166 223 153 228 Q 125 217 92 188 Q 85 186 85 182 Q 88 177 92 179 Q 107 179 118 179 Q 125 177 125 171 Q 125 147 103 125 Z M 282 396 Q 295 394 298 400 Q 300 403 302 407 Q 309 416 311 420 Q 313 424 313 427 Q 311 431 306 429 Q 203 431 37 453 Q 24 455 22 453 Q 9 442 0 429 Q 50 427 188 407 Q 256 398 282 396 Z M 234 147 Q 230 175 219 206 Q 208 210 188 203 Q 182 201 179 199 Q 179 197 186 190 Q 197 177 214 158 Q 223 147 228 142 Q 232 138 234 138 Q 236 140 234 147 Z" fill="black" />
  </g>
  <g class="defect" id="01">
    <path d="M 256 282 Q 163 293 140 304" fill="none" stroke="red" stroke-width="3" />
  </g>
</svg>