<svg xmlns="http://www.w3.org/2000/svg" width="512" height="512" viewBox="0 0 512 512">
  <g class="glyph">
    <path d="M 468 475 Q 449 468 433 444 V 442 Q 351 447 290 456 Q 292 456 292 456 Q 292 477 288 479 Q 281 479 252 454 Q 252 348 224 255 Q 236 255 262 262 Q 271 264 274 264 Q 414 250 440 229 Q 468 257 512 267 Q 496 288 482 409 Q 472 475 468 475 Z M 105 0 Q 126 14 152 23 Q 133 42 124 68 Q 122 75 117 82 Q 145 77 161 65 Q 185 87 222 96 Q 189 110 147 173 Q 152 171 159 168 Q 168 164 173 161 Q 199 185 236 192 Q 217 213 203 311 Q 196 348 194 348 Q 187 346 168 330 Q 150 334 101 341 Q 110 341 79 346 Q 82 360 77 365 Q 63 360 49 344 Q 33 234 9 189 Q 30 189 56 192 Q 58 192 63 192 Q 82 189 117 180 Q 126 154 145 115 Q 152 103 154 96 Q 138 103 119 110 Q 115 108 108 101 Q 91 136 72 159 Q 47 185 7 166 Q 91 105 105 0 Z M 442 269 Q 437 269 430 271 Q 395 276 348 285 Q 362 288 386 288 Q 379 302 376 330 Q 381 327 393 327 Q 402 325 407 325 Q 414 323 418 327 Q 423 332 430 348 Q 433 351 433 351 Q 423 353 404 355 Q 383 360 374 362 Q 374 383 374 414 Q 388 411 416 407 Q 425 404 430 404 Q 433 404 433 407 Q 435 409 435 411 Q 437 390 442 339 Q 447 297 449 278 Q 449 269 442 269 Z M 402 136 Q 400 129 402 126 Q 449 58 449 14 Q 465 42 503 49 Q 491 56 468 82 Q 437 112 414 131 Q 458 154 484 173 Q 489 187 484 217 Q 484 224 482 227 Q 477 227 472 222 Q 418 164 402 136 Z M 318 150 Q 313 143 318 140 Q 365 58 365 14 Q 388 40 418 49 Q 404 56 379 89 Q 351 124 330 143 Q 372 166 395 185 Q 400 189 395 227 Q 393 234 390 236 Q 386 236 381 229 Q 344 189 318 150 Z M 231 154 Q 224 145 231 145 Q 276 75 278 19 Q 290 63 330 51 Q 316 61 292 91 Q 264 129 241 150 Q 281 173 309 194 Q 313 201 306 238 Q 304 245 302 248 Q 299 248 295 241 Q 255 196 231 154 Z M 213 381 Q 196 388 168 400 Q 101 430 35 458 Q 21 430 0 411 Q 124 388 203 367 Q 210 365 215 372 Q 220 379 213 381 Z M 288 348 Q 316 346 344 339 Q 344 332 341 323 Q 341 295 337 285 Q 325 288 306 292 Q 292 295 288 295 L 276 278 Q 278 306 285 372 Q 288 409 290 428 Q 297 428 313 423 Q 334 421 344 418 V 367 Q 339 367 330 369 Q 323 369 313 372 Q 306 372 288 348 Z M 159 241 Q 168 250 171 255 Q 173 262 166 262 Q 164 262 161 262 Q 150 267 133 267 Q 133 288 133 311 Q 140 309 152 306 Q 164 302 168 302 Q 178 241 180 199 Q 182 192 175 194 Q 164 196 140 201 Q 119 203 110 206 Q 126 210 140 210 Q 136 222 136 243 L 150 238 Q 157 238 159 241 Z M 77 320 Q 89 320 108 316 Q 108 292 108 271 Q 105 271 101 274 Q 98 274 94 276 Q 87 276 72 262 Q 70 260 70 260 Q 91 252 108 250 Q 105 222 101 208 Q 77 210 58 215 Q 63 234 72 290 Q 75 311 77 320 Z" fill="black" />
  </g>
  <g class="defect" id="01">
    <path d="M 278 19 Q 290 63 330 51" fill="none" stroke="red" stroke-width="3" />
  </g>
  <g class="defect" id="02">
    <path d="M 449 14 Q 465 42 503 49" fill="none" stroke="red" stroke-width="3" />
  </g>
</svg>