<svg xmlns="http://www.w3.org/2000/svg" width="512" height="512" viewBox="0 0 512 512">
  <g class="glyph">
    <path d="M 208 166 Q 214 175 213 185 Q 213 197 203 204 Q 138 245 50 296 Q 23 308 9 287 Q -10 278 3 267 Q 5 255 13 249 Q 89 202 167 158 Q 180 151 192 154 Q 201 156 208 166 Z M 488 248 Q 485 260 477 266 Q 469 273 456 270 Q 373 245 291 217 Q 278 213 274 203 Q 270 194 272 183 Q 279 156 305 160 Q 329 167 472 212 Q 484 216 488 227 Q 491 236 488 248 Z M 289 83 Q 344 87 470 97 Q 496 98 495 126 Q 495 139 490 146 Q 484 155 471 154 Q 248 138 25 121 Q 0 119 0 93 Q 1 81 6 73 Q 14 64 26 64 Q 114 69 212 77 Q 198 42 196 37 Q 190 22 205 11 Q 210 6 220 4 Q 233 0 245 3 Q 258 7 263 18 Q 274 43 287 75 Q 289 80 289 83 Z M 275 372 Q 387 411 480 444 Q 493 449 497 461 Q 499 472 495 483 Q 490 494 482 498 Q 472 503 459 499 Q 336 457 213 415 Q 199 426 85 503 Q 71 512 59 509 Q 49 507 42 497 Q 35 488 36 477 Q 37 466 47 459 Q 73 445 143 391 Q 109 379 74 366 Q 48 355 60 329 Q 71 303 94 311 Q 184 341 205 348 Q 323 267 330 262 Q 353 249 368 269 Q 388 292 366 308 Q 290 361 275 372 Z" fill="black" />
  </g>
  <g class="defect" id="01">
    <path d="M 9 287 Q -10 278 3 267" fill="none" stroke="red" stroke-width="3" />
  </g>
  <g class="defect" id="02">
    <path d="M 47 459 Q 73 445 143 391" fill="none" stroke="red" stroke-width="3" />
  </g>
</svg>