<svg xmlns="http://www.w3.org/2000/svg" width="512" height="512" viewBox="0 0 512 512">
  <g class="glyph">
    <path d="M 413 289 Q 453 269 469 259 Q 496 251 504 272 Q 509 281 507 292 Q 504 303 495 308 Q 494 309 406 355 Q 405 372 403 389 Q 402 399 409 403 Q 414 406 425 405 Q 447 403 483 391 Q 494 387 502 396 Q 507 403 509 416 Q 526 421 494 446 Q 452 458 411 461 Q 378 463 359 447 Q 340 431 342 393 Q 344 348 357 238 Q 359 225 369 218 Q 378 212 389 213 Q 422 216 418 243 Q 403 286 413 289 Z M 291 189 Q 298 313 303 471 Q 302 500 273 501 Q 258 501 250 496 Q 239 490 239 473 Q 234 400 224 183 Q 97 172 27 165 Q 6 163 7 138 Q 8 127 13 120 Q 20 112 31 112 Q 166 122 222 127 Q 221 99 220 72 Q 213 72 61 83 Q 50 84 43 76 Q 38 69 37 60 Q 37 49 42 42 Q 47 32 57 32 Q 259 14 454 1 Q 464 0 472 7 Q 478 13 479 23 Q 480 32 475 41 Q 470 50 460 51 Q 402 57 285 66 Q 286 88 288 133 Q 408 143 484 150 Q 510 152 507 179 Q 506 190 500 196 Q 493 204 482 203 Q 350 194 291 189 Z M 120 403 Q 71 423 33 437 Q 16 444 5 421 Q 0 411 2 400 Q 5 389 15 385 Q 67 365 119 344 V 309 Q 68 299 25 290 Q 16 288 12 278 Q 8 269 10 258 Q 16 233 35 236 Q 77 244 118 252 V 227 Q 118 197 150 195 Q 164 195 172 203 Q 179 210 180 225 Q 180 246 184 440 Q 184 454 174 461 Q 166 468 153 468 Q 139 469 131 463 Q 121 457 121 443 Q 121 423 120 403 Z" fill="black" />
  </g>
  <g class="defect" id="01">
    <path d="M 418 243 Q 403 286 413 289" fill="none" stroke="red" stroke-width="3" />
  </g>
  <g class="defect" id="02">
    <path d="M 509 416 Q 526 421 494 446" fill="none" stroke="red" stroke-width="3" />
  </g>
</svg>