<svg xmlns="http://www.w3.org/2000/svg" width="512" height="512" viewBox="0 0 512 512">
  <g class="glyph">
    <path d="M 130 443 Q 131 459 121 468 Q 113 474 99 476 Q 81 477 72 467 Q 66 461 65 452 Q 53 339 47 251 Q 46 238 55 229 Q 64 221 77 220 Q 102 202 99 225 Q 110 232 111 244 Q 122 347 130 443 Z M 151 43 Q 108 123 62 190 Q 55 200 42 202 Q 29 204 18 198 Q 8 191 4 181 Q 0 169 7 155 Q 49 84 93 15 Q 101 3 114 1 Q 126 0 138 7 Q 160 20 151 43 Z M 424 310 Q 344 332 308 347 Q 286 350 280 328 Q 277 318 280 309 Q 284 299 294 295 Q 361 271 420 255 Q 418 247 417 239 Q 406 188 342 188 Q 264 192 196 216 Q 184 222 173 217 Q 164 213 159 202 Q 154 191 158 180 Q 162 168 175 162 Q 209 149 262 139 Q 276 112 291 83 Q 225 78 192 75 Q 179 73 173 62 Q 167 53 169 41 Q 170 31 177 25 Q 185 18 196 18 Q 351 28 489 42 Q 500 43 506 52 Q 512 60 511 71 Q 510 82 504 90 Q 496 99 485 98 Q 452 96 362 89 Q 355 105 340 132 Q 385 132 416 144 Q 472 165 486 231 Q 495 276 490 325 Q 484 401 450 441 Q 410 488 325 487 Q 226 485 198 417 Q 175 365 183 259 Q 184 243 195 235 Q 205 229 220 229 Q 233 230 243 238 Q 254 246 253 260 Q 243 338 255 381 Q 263 409 286 423 Q 308 437 340 435 Q 392 431 409 388 Q 422 354 423 315 Q 423 311 424 310 Z" fill="black" />
  </g>
  <g class="defect" id="01">
    <path d="M 77 220 Q 102 202 99 225" fill="none" stroke="red" stroke-width="3" />
  </g>
  <g class="defect" id="02">
    <path d="M 424 310 Q 344 332 308 347" fill="none" stroke="red" stroke-width="3" />
  </g>
</svg>