<svg xmlns="http://www.w3.org/2000/svg" width="512" height="512" viewBox="0 0 512 512">
  <g class="glyph">
    <path d="M 141 432 Q 142 449 133 456 Q 125 463 112 464 Q 82 468 78 441 Q 62 312 55 242 Q 53 215 83 212 Q 97 211 106 215 Q 117 221 118 234 Q 123 280 141 432 Z M 270 272 Q 273 305 265 333 Q 249 393 221 463 Q 215 481 197 485 Q 190 486 182 484 Q 169 480 163 472 Q 156 463 160 451 Q 190 371 200 328 Q 208 301 206 275 Q 199 211 190 161 Q 187 137 217 130 Q 231 128 240 133 Q 250 139 253 152 Q 263 208 270 272 Z M 169 45 Q 128 108 65 198 Q 59 207 45 207 Q 32 207 22 199 Q 0 181 15 157 Q 47 109 115 10 Q 122 0 136 1 Q 150 1 161 10 Q 180 23 169 45 Z M 510 419 Q 512 438 505 448 Q 516 454 494 455 Q 436 465 398 468 Q 368 471 354 458 Q 340 444 344 412 Q 378 285 394 84 Q 396 75 389 71 Q 383 69 373 71 Q 297 85 212 108 Q 184 115 174 90 Q 169 78 173 67 Q 178 55 191 52 Q 282 29 369 14 Q 415 6 437 22 Q 479 44 459 86 Q 420 271 407 398 Q 408 404 414 405 Q 443 403 487 394 Q 497 392 503 400 Q 508 406 510 419 Z" fill="black" />
  </g>
  <g class="defect" id="01">
    <path d="M 344 412 Q 378 285 394 84" fill="none" stroke="red" stroke-width="3" />
  </g>
  <g class="defect" id="02">
    <path d="M 437 22 Q 479 44 459 86" fill="none" stroke="red" stroke-width="3" />
  </g>
  <g class="defect" id="03">
    <path d="M 505 448 Q 516 454 494 455" fill="none" stroke="red" stroke-width="3" />
  </g>
</svg>