<svg xmlns="http://www.w3.org/2000/svg" width="512" height="512" viewBox="0 0 512 512">
  <g class="glyph">
    <path d="M 146 441 Q 147 455 137 464 Q 129 473 116 474 Q 103 475 94 469 Q 83 462 81 449 Q 72 369 63 246 Q 42 248 72 224 Q 81 217 95 216 Q 108 214 117 221 Q 127 227 128 239 Q 137 333 146 441 Z M 163 47 Q 109 135 66 196 Q 58 206 44 208 Q 32 209 22 200 Q 0 184 15 156 Q 66 71 111 9 Q 117 0 130 0 Q 142 0 153 7 Q 176 24 163 47 Z M 443 158 Q 411 165 374 171 Q 373 204 372 237 Q 402 231 420 214 Q 441 193 443 158 Z M 440 116 Q 435 97 423 86 Q 408 72 377 66 Q 377 92 376 127 Q 438 119 440 116 Z M 369 287 Q 369 302 368 317 Q 433 321 464 324 Q 475 324 481 332 Q 487 339 486 350 Q 484 372 461 372 Q 428 369 366 367 Q 365 387 364 407 Q 459 400 485 397 Q 498 397 505 404 Q 510 411 511 422 Q 512 433 507 441 Q 502 450 493 451 Q 342 467 197 477 Q 169 477 168 453 Q 166 425 189 423 Q 247 418 306 412 Q 306 396 307 363 Q 249 359 218 356 Q 204 355 199 348 Q 195 342 196 331 Q 197 308 217 308 Q 263 311 308 314 Q 309 300 310 287 Q 253 281 224 251 Q 186 210 193 128 Q 194 104 221 103 Q 234 103 242 108 Q 250 113 250 124 Q 247 156 250 172 Q 253 194 263 210 Q 277 230 311 237 Q 312 200 314 182 Q 300 185 286 187 Q 270 189 266 169 Q 263 149 278 146 Q 311 139 315 139 Q 317 97 319 66 Q 264 71 210 90 Q 197 95 187 88 Q 178 83 175 71 Q 172 62 176 53 Q 180 44 190 39 Q 263 15 350 14 Q 422 15 461 48 Q 503 83 499 151 Q 498 219 452 255 Q 422 281 369 287 Z" fill="black" />
  </g>
  <g class="defect" id="01">
    <path d="M 63 246 Q 42 248 72 224" fill="none" stroke="red" stroke-width="3" />
  </g>
  <g class="defect" id="02">
    <path d="M 376 127 Q 438 119 440 116" fill="none" stroke="red" stroke-width="3" />
  </g>
</svg>