<svg xmlns="http://www.w3.org/2000/svg" width="512" height="512" viewBox="0 0 512 512">
  <g class="glyph">
    <path d="M 124 250 Q 128 364 127 457 Q 127 470 118 478 Q 110 485 98 485 Q 84 487 75 480 Q 65 473 64 460 Q 61 348 62 253 Q 62 240 72 232 Q 81 224 94 224 Q 106 223 115 230 Q 124 237 124 250 Z M 154 63 Q 105 148 67 203 Q 58 215 45 217 Q 32 219 22 212 Q 0 196 15 168 Q 67 84 102 32 Q 109 22 122 21 Q 134 20 145 26 Q 165 39 154 63 Z M 418 343 Q 418 355 412 361 Q 406 367 397 367 Q 388 368 382 362 Q 374 356 374 343 Q 369 211 369 105 Q 368 84 389 82 Q 399 81 406 86 Q 412 91 412 104 Q 416 186 418 343 Z M 512 412 Q 512 451 498 466 Q 482 483 446 480 Q 414 477 380 470 Q 346 467 360 451 Q 358 444 359 436 Q 360 424 367 416 Q 375 407 385 410 Q 412 415 439 418 Q 448 419 452 416 Q 456 413 456 403 Q 456 228 446 46 Q 445 23 471 21 Q 483 19 491 24 Q 500 30 501 43 Q 510 239 512 412 Z M 300 156 Q 318 158 336 160 Q 359 162 357 189 Q 356 202 351 209 Q 345 219 333 218 Q 325 218 298 215 Q 297 256 296 297 Q 298 298 300 299 Q 314 306 351 329 Q 365 342 358 360 Q 347 382 322 373 Q 308 364 294 356 Q 292 443 290 482 Q 289 493 279 500 Q 270 507 258 506 Q 246 505 238 499 Q 230 492 230 480 Q 233 396 234 311 Q 208 338 188 355 Q 165 371 149 354 Q 134 337 149 316 Q 178 288 228 240 Q 231 238 237 235 Q 237 227 237 210 Q 205 207 173 204 Q 160 202 154 192 Q 150 183 152 170 Q 153 159 159 151 Q 165 143 175 144 Q 208 147 240 149 Q 241 126 241 102 Q 241 94 245 87 Q 222 93 198 99 Q 185 102 176 94 Q 168 88 165 76 Q 162 59 170 49 Q 174 44 181 42 Q 216 32 325 5 Q 351 0 358 28 Q 362 55 341 61 Q 303 72 283 78 Q 300 83 301 100 Q 300 128 300 156 Z" fill="black" />
  </g>
  <g class="defect" id="01">
    <path d="M 380 470 Q 346 467 360 451" fill="none" stroke="red" stroke-width="3" />
  </g>
</svg>