<svg xmlns="http://www.w3.org/2000/svg" width="512" height="512" viewBox="0 0 512 512">
  <g class="glyph">
    <path d="M 131 457 Q 130 486 103 490 Q 75 505 79 486 Q 67 480 66 466 Q 53 369 43 265 Q 42 252 51 243 Q 59 236 72 235 Q 86 233 96 239 Q 106 245 107 257 Q 122 372 131 457 Z M 149 76 Q 107 151 67 212 Q 61 221 46 221 Q 47 210 23 214 Q 0 197 15 172 Q 68 83 93 43 Q 100 32 115 32 Q 128 32 139 40 Q 159 53 149 76 Z M 378 306 Q 372 365 365 408 Q 437 398 478 393 Q 506 389 510 420 Q 512 449 488 453 Q 418 463 190 494 Q 172 496 164 488 Q 158 482 156 468 Q 153 437 181 434 Q 201 428 295 417 Q 303 359 311 301 Q 275 298 247 296 Q 239 295 233 292 Q 204 342 200 348 Q 193 359 180 361 Q 168 364 156 357 Q 133 345 142 321 Q 194 230 246 139 Q 235 137 187 129 Q 172 127 167 116 Q 162 107 165 94 Q 167 83 175 76 Q 183 69 194 71 Q 253 79 278 83 Q 303 40 318 15 Q 324 4 336 2 Q 348 0 359 6 Q 385 17 376 40 Q 375 41 346 93 Q 417 104 489 116 Q 502 118 507 128 Q 512 138 510 150 Q 507 162 501 168 Q 493 176 482 174 Q 398 163 315 149 Q 273 223 265 237 Q 362 245 458 253 Q 472 253 479 262 Q 486 270 486 281 Q 486 294 479 303 Q 471 312 457 312 Q 386 307 378 306 Z" fill="black" />
  </g>
  <g class="defect" id="01">
    <path d="M 46 221 Q 47 210 23 214" fill="none" stroke="red" stroke-width="3" />
  </g>
  <g class="defect" id="02">
    <path d="M 103 490 Q 75 505 79 486" fill="none" stroke="red" stroke-width="3" />
  </g>
  <g class="defect" id="03">
    <path d="M 181 434 Q 201 428 295 417" fill="none" stroke="red" stroke-width="3" />
  </g>
</svg>