<svg xmlns="http://www.w3.org/2000/svg" width="512" height="512" viewBox="0 0 512 512">
  <g class="glyph">
    <path d="M 487 483 Q 482 494 470 499 Q 457 505 444 501 Q 353 462 274 422 Q 263 417 259 404 Q 256 392 261 381 Q 273 358 301 363 Q 409 411 470 442 Q 485 449 489 461 Q 493 473 487 483 Z M 205 72 Q 221 94 201 113 Q 173 111 178 123 Q 165 124 153 114 Q 111 67 107 62 Q 99 52 101 39 Q 103 28 112 18 Q 122 9 133 8 Q 146 7 156 17 Q 184 47 205 72 Z M 365 108 Q 395 106 448 103 Q 460 102 468 109 Q 475 116 476 128 Q 477 140 471 149 Q 464 160 450 161 Q 399 168 312 174 L 311 176 Q 288 217 257 270 Q 422 283 476 288 Q 487 289 493 299 Q 498 307 497 319 Q 497 331 490 339 Q 483 347 470 347 Q 305 334 224 328 Q 182 400 125 495 Q 117 507 102 510 Q 88 512 76 506 Q 64 500 60 489 Q 56 478 63 465 Q 97 404 145 322 Q 99 318 24 312 Q 12 311 6 302 Q 0 294 1 283 Q 1 271 7 262 Q 15 253 30 253 Q 79 256 179 264 Q 192 242 227 181 Q 176 185 54 194 Q 40 194 33 186 Q 38 163 26 166 Q 25 155 31 146 Q 38 136 51 135 Q 213 120 287 114 Q 306 75 335 19 Q 342 6 355 3 Q 367 0 380 6 Q 391 10 396 19 Q 402 30 397 42 Q 383 74 365 108 Z" fill="black" />
  </g>
  <g class="defect" id="01">
    <path d="M 201 113 Q 173 111 178 123" fill="none" stroke="red" stroke-width="3" />
  </g>
  <g class="defect" id="02">
    <path d="M 33 186 Q 38 163 26 166" fill="none" stroke="red" stroke-width="3" />
  </g>
  <g class="defect" id="03">
    <path d="M 450 161 Q 399 168 312 174" fill="none" stroke="red" stroke-width="3" />
  </g>
</svg>