<svg xmlns="http://www.w3.org/2000/svg" width="512" height="512" viewBox="0 0 512 512">
  <g class="glyph">
    <path d="M 219 326 Q 219 334 216 373 Q 122 454 58 502 Q 43 512 29 509 Q 15 506 7 494 Q 0 485 2 474 Q 3 462 15 451 Q 100 380 172 323 Q 184 313 197 315 Q 210 317 219 326 Z M 168 144 Q 175 156 171 169 Q 168 180 157 188 Q 146 195 133 193 Q 119 192 109 178 Q 79 141 47 91 Q 40 80 43 68 Q 46 57 56 49 Q 66 41 79 41 Q 94 40 101 50 Q 147 112 168 144 Z M 472 112 Q 400 157 373 171 Q 358 180 345 176 Q 333 172 326 160 Q 311 134 334 116 Q 385 84 436 56 Q 463 43 479 66 Q 497 92 472 112 Z M 353 286 Q 355 365 363 421 Q 367 445 390 435 Q 422 420 456 394 Q 467 385 479 388 Q 490 391 497 402 Q 491 412 503 424 Q 503 436 494 442 Q 457 471 408 493 Q 368 509 341 502 Q 310 495 300 449 Q 289 388 286 284 Q 153 280 29 274 Q 15 273 8 264 Q 2 255 2 243 Q 3 231 10 224 Q 17 215 31 216 Q 167 219 232 221 Q 243 107 221 31 Q 220 18 231 10 Q 240 2 254 1 Q 268 0 277 6 Q 288 13 289 26 Q 297 126 302 224 Q 418 229 476 232 Q 490 232 497 241 Q 504 250 503 262 Q 502 273 494 281 Q 486 290 473 290 Q 393 288 353 286 Z" fill="black" />
  </g>
  <g class="defect" id="01">
    <path d="M 219 326 Q 219 334 216 373" fill="none" stroke="red" stroke-width="3" />
  </g>
  <g class="defect" id="02">
    <path d="M 232 221 Q 243 107 221 31" fill="none" stroke="red" stroke-width="3" />
  </g>
  <g class="defect" id="03">
    <path d="M 497 402 Q 491 412 503 424" fill="none" stroke="red" stroke-width="3" />
  </g>
</svg>