<svg xmlns="http://www.w3.org/2000/svg" width="512" height="512" viewBox="0 0 512 512">
  <g class="glyph">
    <path d="M 385 114 Q 384 207 376 347 Q 376 359 368 366 Q 360 372 350 371 Q 339 371 331 365 Q 342 358 323 345 Q 328 190 331 112 Q 332 100 341 94 Q 349 87 360 88 Q 383 89 385 114 Z M 490 410 Q 491 450 476 464 Q 461 479 419 477 Q 377 476 329 466 Q 303 460 307 433 Q 308 420 314 413 Q 321 405 334 407 Q 369 414 412 417 Q 422 417 425 414 Q 429 412 429 402 Q 428 235 420 56 Q 419 45 429 37 Q 438 30 450 30 Q 467 29 476 40 Q 480 45 481 53 Q 489 241 490 410 Z M 244 209 Q 205 216 150 222 Q 155 231 149 241 Q 146 247 143 253 Q 192 258 242 266 Q 284 273 293 303 Q 301 328 280 364 Q 230 438 169 497 Q 147 512 129 498 Q 120 492 117 481 Q 115 470 124 461 Q 143 440 153 430 Q 132 414 112 399 Q 92 384 108 359 Q 124 335 148 351 Q 156 357 192 384 Q 219 364 227 339 Q 232 331 230 326 Q 229 320 221 318 Q 163 311 113 305 Q 99 330 58 399 Q 50 412 38 414 Q 27 416 16 408 Q 6 402 3 393 Q 0 382 7 370 Q 68 262 90 225 Q 54 224 41 212 Q 23 196 24 146 Q 26 116 31 85 Q 32 75 42 70 Q 51 65 61 66 Q 73 68 79 73 Q 87 79 86 89 Q 82 111 81 144 Q 80 161 88 167 Q 95 173 113 171 Q 122 170 128 170 Q 125 86 125 26 Q 125 14 135 7 Q 144 1 156 1 Q 169 0 178 6 Q 187 12 187 24 Q 190 107 190 162 Q 211 160 239 154 Q 234 101 233 74 Q 232 63 240 56 Q 246 50 258 49 Q 269 48 278 53 Q 287 58 287 68 Q 295 123 300 212 Q 300 235 278 240 Q 247 244 245 222 Q 244 216 244 209 Z" fill="black" />
  </g>
  <g class="defect" id="01">
    <path d="M 192 384 Q 219 364 227 339" fill="none" stroke="red" stroke-width="3" />
  </g>
  <g class="defect" id="02">
    <path d="M 331 365 Q 342 358 323 345" fill="none" stroke="red" stroke-width="3" />
  </g>
</svg>