<svg xmlns="http://www.w3.org/2000/svg" width="512" height="512" viewBox="0 0 512 512">
  <g class="glyph">
    <path d="M 186 234 Q 178 296 153 332 Q 119 380 76 373 Q 57 371 42 356 Q 26 341 18 315 Q -13 249 21 167 Q 38 105 76 65 Q 86 52 99 52 Q 112 52 122 61 Q 132 70 134 81 Q 135 93 124 104 Q 93 134 80 173 Q 75 199 69 276 Q 73 306 87 307 Q 103 309 115 284 Q 128 255 131 216 Q 136 167 123 148 Q 118 127 140 120 Q 165 114 174 134 Q 196 170 186 234 Z M 381 235 Q 401 230 414 213 Q 429 191 429 145 Q 430 91 410 74 Q 395 63 368 63 H 367 Q 374 147 381 235 Z M 330 234 Q 323 144 318 69 Q 261 81 224 99 Q 210 104 199 99 Q 190 95 185 85 Q 180 74 183 64 Q 186 52 199 47 Q 264 18 338 9 Q 419 0 456 32 Q 492 64 492 144 Q 492 218 464 253 Q 430 295 361 294 Q 328 294 288 283 Q 295 343 301 372 Q 304 394 320 401 Q 332 406 356 401 Q 436 377 476 361 Q 489 357 497 364 Q 504 369 506 382 Q 512 407 494 418 Q 438 443 363 460 Q 303 471 277 458 Q 245 442 236 377 Q 222 281 209 147 Q 206 117 236 114 Q 249 112 259 118 Q 269 124 271 136 Q 276 178 281 220 Q 306 230 330 234 Z" fill="black" />
  </g>
  <g class="defect" id="01">
    <path d="M 80 173 Q 75 199 69 276" fill="none" stroke="red" stroke-width="3" />
  </g>
  <g class="defect" id="02">
    <path d="M 18 315 Q -13 249 21 167" fill="none" stroke="red" stroke-width="3" />
  </g>
</svg>