<svg xmlns="http://www.w3.org/2000/svg" width="512" height="512" viewBox="0 0 512 512">
  <g class="glyph">
    <path d="M 100 459 Q 101 475 91 484 Q 83 490 69 491 Q 37 493 35 462 Q 20 272 9 101 Q -2 105 18 82 Q 26 75 39 74 Q 54 72 63 78 Q 74 84 74 98 Q 91 309 100 459 Z M 27 56 Q 13 56 6 46 Q 0 39 1 27 Q 1 16 8 8 Q 15 0 27 1 Q 286 19 440 19 Q 466 21 466 46 Q 466 57 459 65 Q 453 74 440 73 Q 263 69 27 56 Z M 271 194 Q 266 215 261 235 Q 327 243 410 258 Q 450 264 467 283 Q 482 301 478 339 Q 472 398 464 449 Q 459 484 440 498 Q 420 511 381 503 Q 334 490 298 476 Q 287 473 283 461 Q 280 451 284 439 Q 288 429 296 423 Q 305 417 313 420 Q 350 437 376 444 Q 396 451 398 430 Q 408 386 411 342 Q 412 327 407 321 Q 402 315 387 312 Q 343 304 249 292 Q 239 333 210 454 Q 206 466 194 472 Q 182 478 168 475 Q 155 473 148 465 Q 140 456 143 443 Q 167 333 200 201 Q 179 203 139 206 Q 112 206 107 184 Q 104 173 110 163 Q 116 152 129 150 Q 362 126 478 115 Q 507 115 510 137 Q 512 147 507 157 Q 501 168 490 170 Q 362 187 271 194 Z" fill="black" />
  </g>
  <g class="defect" id="01">
    <path d="M 490 170 Q 362 187 271 194" fill="none" stroke="red" stroke-width="3" />
  </g>
  <g class="defect" id="02">
    <path d="M 27 1 Q 286 19 440 19" fill="none" stroke="red" stroke-width="3" />
  </g>
  <g class="defect" id="03">
    <path d="M 9 101 Q -2 105 18 82" fill="none" stroke="red" stroke-width="3" />
  </g>
</svg>