<svg xmlns="http://www.w3.org/2000/svg" width="512" height="512" viewBox="0 0 512 512">
  <g class="glyph">
    <path d="M 9 305 Q 13 276 1 233 Q 2 195 11 158 Q 29 91 68 47 Q 89 22 115 43 Q 126 52 127 63 Q 129 75 118 87 Q 87 116 72 166 Q 57 217 60 265 Q 62 294 81 297 Q 101 299 116 268 Q 126 240 130 196 Q 133 151 119 133 Q 115 111 137 103 Q 163 96 173 117 Q 193 151 188 213 Q 181 277 154 320 Q 121 369 75 364 Q 54 362 37 348 Q 19 332 9 305 Z M 388 289 Q 389 344 341 381 Q 275 434 218 475 Q 188 492 168 473 Q 160 465 160 453 Q 161 441 173 432 Q 235 389 290 343 Q 310 326 316 313 Q 321 302 321 275 Q 321 193 320 132 Q 319 122 328 115 Q 337 108 350 108 Q 370 106 380 117 Q 386 123 386 132 Q 388 207 388 289 Z M 508 435 Q 517 476 469 454 Q 431 442 384 426 Q 370 422 366 409 Q 362 397 368 386 Q 380 361 409 369 Q 433 378 492 398 Q 504 402 508 414 Q 512 424 508 435 Z M 283 288 Q 282 309 260 312 Q 248 313 240 309 Q 230 303 229 291 Q 217 184 211 105 Q 210 94 219 88 Q 225 84 236 82 Q 248 81 255 86 Q 264 91 265 102 Q 277 210 283 288 Z M 494 93 Q 501 187 476 293 Q 476 303 468 309 Q 461 314 449 314 Q 439 313 431 308 Q 423 302 424 290 Q 433 213 441 114 Q 442 94 433 87 Q 424 79 399 77 Q 305 64 222 60 Q 209 59 201 48 Q 194 37 195 25 Q 196 13 205 7 Q 214 0 230 1 Q 300 5 404 16 Q 453 21 471 34 Q 497 53 494 93 Z" fill="black" />
  </g>
  <g class="defect" id="01">
    <path d="M 9 305 Q 13 276 1 233" fill="none" stroke="red" stroke-width="3" />
  </g>
  <g class="defect" id="02">
    <path d="M 508 435 Q 517 476 469 454" fill="none" stroke="red" stroke-width="3" />
  </g>
  <g class="defect" id="03">
    <path d="M 494 93 Q 501 187 476 293" fill="none" stroke="red" stroke-width="3" />
  </g>
</svg>