<svg xmlns="http://www.w3.org/2000/svg" width="512" height="512" viewBox="0 0 512 512">
  <g class="glyph">
    <path d="M 92 467 Q 93 481 84 489 Q 75 497 61 498 Q 47 500 37 494 Q 25 488 23 475 Q 10 381 1 289 Q 0 275 10 265 Q 3 245 32 255 Q 46 254 57 260 Q 69 267 71 281 Q 84 380 92 467 Z M 365 409 Q 360 420 353 425 Q 343 432 331 428 Q 282 411 247 396 Q 238 393 236 382 Q 234 371 239 360 Q 251 334 275 342 Q 344 370 355 374 Q 365 378 368 389 Q 370 398 365 409 Z M 294 217 Q 296 224 293 231 Q 287 243 281 255 Q 336 251 389 249 Q 436 248 456 262 Q 482 278 481 327 Q 476 409 467 465 Q 462 490 449 500 Q 433 512 403 505 Q 377 499 355 490 Q 346 487 344 478 Q 341 469 345 458 Q 348 447 354 441 Q 361 435 367 439 Q 377 445 388 449 Q 397 450 400 440 Q 411 383 410 324 Q 410 302 382 303 Q 312 307 254 312 Q 229 364 193 437 Q 187 449 173 452 Q 161 455 148 450 Q 135 445 130 435 Q 124 424 129 412 Q 159 350 174 320 Q 141 324 124 326 Q 100 329 95 301 Q 94 286 103 277 Q 107 271 117 270 Q 151 267 203 261 Q 214 239 226 217 Q 165 214 115 199 Q 62 185 46 158 Q 33 137 37 102 Q 37 93 48 88 Q 57 83 70 83 Q 84 83 94 89 Q 106 95 105 104 Q 103 116 105 123 Q 108 142 142 150 Q 182 163 232 165 Q 289 168 328 159 Q 353 155 368 144 Q 385 133 386 118 Q 386 106 376 95 Q 365 83 344 76 Q 302 60 223 57 Q 118 53 54 69 Q 28 78 20 51 Q 16 40 20 32 Q 24 22 37 18 Q 104 0 228 5 Q 334 10 388 32 Q 423 46 440 70 Q 455 92 453 119 Q 451 150 428 172 Q 406 193 370 204 Q 337 214 294 217 Z" fill="black" />
  </g>
  <g class="defect" id="01">
    <path d="M 10 265 Q 3 245 32 255" fill="none" stroke="red" stroke-width="3" />
  </g>
</svg>