<svg xmlns="http://www.w3.org/2000/svg" width="512" height="512" viewBox="0 0 512 512">
  <g class="glyph">
    <path d="M 178 215 Q 177 280 154 325 Q 125 375 84 374 Q 65 373 49 360 Q 33 346 23 321 Q 0 261 14 173 Q 28 98 61 56 Q 70 42 84 41 Q 95 40 105 49 Q 115 58 117 69 Q 101 82 110 95 Q 79 131 71 177 Q 62 222 69 277 Q 84 309 78 300 Q 84 307 91 306 Q 106 304 115 279 Q 124 250 125 208 Q 126 167 117 147 Q 111 122 133 115 Q 157 108 167 132 Q 181 164 178 215 Z M 275 414 Q 275 427 266 434 Q 258 440 244 440 Q 215 441 214 415 Q 206 287 197 104 Q 197 91 206 84 Q 214 79 228 78 Q 241 77 249 83 Q 258 89 258 101 Q 270 302 275 414 Z M 426 328 Q 430 357 417 377 Q 400 407 358 408 Q 317 408 301 378 Q 287 356 293 321 Q 300 287 318 270 Q 330 260 345 270 Q 357 281 348 294 Q 331 307 333 335 Q 334 358 359 360 Q 385 357 387 335 Q 388 316 374 306 Q 365 291 380 281 Q 395 271 405 284 Q 423 302 426 328 Z M 512 91 Q 511 238 498 427 Q 496 470 480 483 Q 464 498 423 495 Q 376 490 336 478 Q 318 473 322 447 Q 324 436 331 430 Q 338 422 348 425 Q 380 434 417 438 Q 432 440 435 434 Q 438 431 438 423 Q 451 234 452 101 Q 452 87 448 82 Q 444 77 430 75 Q 313 63 201 58 Q 187 57 181 48 Q 175 40 177 27 Q 180 0 204 2 Q 321 9 437 19 Q 477 24 492 35 Q 512 49 512 91 Z M 388 117 Q 400 115 412 114 Q 424 113 428 117 Q 432 121 433 131 Q 437 154 417 157 Q 402 159 386 162 Q 385 183 383 204 Q 402 206 420 207 Q 432 208 436 214 Q 440 219 438 230 Q 438 241 434 247 Q 430 255 420 254 Q 351 251 296 247 Q 275 245 277 223 Q 277 211 281 206 Q 285 199 298 200 Q 314 201 331 201 Q 331 191 332 168 Q 314 171 305 171 Q 284 172 282 150 Q 281 131 301 128 Q 343 107 334 123 Q 335 115 336 99 Q 337 79 364 79 Q 388 80 388 101 Q 388 109 388 117 Z" fill="black" />
  </g>
  <g class="defect" id="01">
    <path d="M 301 128 Q 343 107 334 123" fill="none" stroke="red" stroke-width="3" />
  </g>
  <g class="defect" id="02">
    <path d="M 117 69 Q 101 82 110 95" fill="none" stroke="red" stroke-width="3" />
  </g>
  <g class="defect" id="03">
    <path d="M 69 277 Q 84 309 78 300" fill="none" stroke="red" stroke-width="3" />
  </g>
</svg>