<svg xmlns="http://www.w3.org/2000/svg" width="512" height="512" viewBox="0 0 512 512">
  <g class="glyph">
    <path d="M 455 201 Q 472 204 489 205 Q 501 207 507 217 Q 512 226 510 237 Q 507 258 484 260 Q 388 251 347 245 Q 346 248 344 251 Q 335 264 326 278 Q 331 278 334 279 Q 347 280 355 286 Q 364 294 362 306 Q 360 318 358 337 Q 400 318 466 292 Q 493 286 501 307 Q 505 318 503 327 Q 500 338 491 343 Q 426 372 374 393 Q 361 398 351 391 Q 350 409 348 427 Q 347 440 354 444 Q 360 447 373 443 Q 420 433 468 416 Q 481 412 490 418 Q 497 423 500 433 Q 503 443 501 454 Q 498 464 490 467 Q 450 483 377 500 Q 332 509 308 493 Q 282 475 284 427 Q 287 387 295 323 Q 263 368 249 386 Q 240 397 229 398 Q 218 399 208 392 Q 189 378 202 351 Q 243 291 280 238 Q 265 237 241 233 Q 227 232 221 222 Q 216 213 217 201 Q 223 178 245 179 Q 261 181 298 184 Q 296 159 295 132 Q 271 135 247 137 Q 233 138 225 130 Q 218 123 217 112 Q 216 101 222 93 Q 229 84 241 83 Q 252 82 291 77 Q 290 54 289 30 Q 288 18 298 10 Q 306 3 319 2 Q 349 0 351 26 Q 353 43 354 71 Q 376 69 396 67 Q 421 68 424 91 Q 425 101 420 110 Q 413 120 400 121 Q 378 124 358 126 Q 360 158 362 190 Q 378 193 394 194 Q 423 114 447 55 Q 451 44 463 40 Q 474 37 486 41 Q 506 48 502 73 Q 486 122 455 201 Z M 160 386 Q 217 437 221 440 Q 229 448 229 459 Q 228 470 221 478 Q 213 487 202 489 Q 190 491 178 480 Q 153 460 117 425 Q 100 440 54 478 Q 41 486 30 484 Q 20 483 13 474 Q 6 466 7 456 Q 7 445 17 437 Q 50 413 79 388 Q 68 376 56 363 Q 48 329 33 323 Q 29 306 33 276 Q 37 241 42 205 Q 40 206 37 206 Q 22 211 13 203 Q 5 196 3 183 Q 0 158 23 151 Q 37 147 51 143 Q 56 111 65 54 Q 68 41 78 36 Q 87 31 99 33 Q 111 34 119 42 Q 127 50 124 62 Q 118 100 113 130 Q 131 126 140 125 Q 178 119 194 132 Q 212 146 208 186 Q 204 240 195 302 Q 190 335 185 348 Q 178 369 160 386 Z M 121 349 Q 139 331 142 305 Q 144 287 155 196 Q 156 188 153 185 Q 150 181 142 183 Q 123 186 103 190 Q 101 200 91 272 Q 87 294 89 305 Q 92 319 105 333 Q 115 343 121 349 Z" fill="black" />
  </g>
  <g class="defect" id="01">
    <path d="M 56 363 Q 48 329 33 323" fill="none" stroke="red" stroke-width="3" />
  </g>
</svg>