<svg xmlns="http://www.w3.org/2000/svg" width="512" height="512" viewBox="0 0 512 512">
  <g class="glyph">
    <path d="M 490 413 Q 491 424 488 432 Q 483 441 472 443 Q 351 472 230 501 Q 221 503 214 498 Q 209 494 207 484 Q 204 473 208 465 Q 212 455 223 453 Q 380 413 463 394 Q 484 390 490 413 Z M 445 349 Q 448 360 442 367 Q 438 371 433 372 Q 357 390 280 408 Q 263 411 260 395 Q 258 387 261 381 Q 265 375 273 372 Q 333 357 424 336 Q 441 333 445 349 Z M 369 299 Q 371 307 369 313 Q 366 320 357 323 Q 277 349 243 358 Q 230 363 223 347 Q 219 336 225 329 Q 228 324 234 322 Q 338 289 347 287 Q 358 284 365 292 Q 368 295 369 299 Z M 258 171 Q 253 193 244 217 Q 240 238 219 233 Q 209 232 205 226 Q 201 220 202 212 Q 213 172 215 165 Q 217 156 225 152 Q 231 148 239 149 Q 259 152 258 171 Z M 497 104 Q 490 147 476 206 Q 468 231 441 225 Q 430 223 424 216 Q 416 207 420 195 Q 435 134 442 91 Q 444 76 430 73 Q 396 67 356 63 Q 347 62 342 53 Q 338 44 339 35 Q 343 15 363 17 Q 412 22 458 33 Q 485 39 494 55 Q 502 71 497 104 Z M 426 118 Q 419 133 402 127 Q 373 123 356 106 Q 349 102 347 95 Q 345 88 349 81 Q 355 69 371 71 Q 391 80 419 93 Q 434 101 426 118 Z M 390 221 Q 408 229 496 272 Q 507 277 510 288 Q 512 298 507 308 Q 498 327 470 319 Q 406 289 342 258 L 341 258 Q 251 297 219 311 Q 197 320 186 299 Q 181 288 182 279 Q 183 268 195 263 Q 274 227 349 196 Q 356 193 357 193 Q 350 191 346 183 Q 336 167 353 157 Q 360 154 394 137 Q 413 128 422 145 Q 430 159 417 170 Q 395 181 373 192 Q 372 193 370 193 Q 378 195 385 206 Q 390 213 390 221 Z M 209 82 Q 228 89 254 101 Q 263 106 265 114 Q 266 120 262 128 Q 254 146 236 140 Q 218 132 191 119 Q 182 115 180 107 Q 179 100 183 92 L 181 93 Q 171 97 163 92 Q 156 88 153 79 Q 146 58 168 50 Q 217 32 249 23 Q 283 15 298 22 Q 318 31 325 67 Q 333 120 337 172 Q 337 184 330 191 Q 323 198 311 199 Q 283 204 281 179 Q 275 117 268 77 Q 267 69 263 67 Q 260 65 253 67 Q 240 70 209 82 Z M 145 369 Q 178 399 194 412 Q 211 431 193 450 Q 174 470 153 453 Q 134 436 107 411 Q 76 442 49 466 Q 29 482 10 464 Q 2 454 2 445 Q 2 433 13 424 Q 51 390 69 372 Q 56 358 50 351 Q 31 329 27 310 Q 24 296 28 264 Q 37 192 40 170 Q 27 167 21 167 Q 4 164 1 148 Q 0 141 1 134 Q 3 122 8 115 Q 14 107 26 109 Q 37 111 47 112 Q 55 62 61 23 Q 62 13 67 7 Q 76 0 95 3 Q 105 5 111 11 Q 118 19 116 31 Q 106 90 101 122 Q 118 126 135 129 Q 167 135 176 148 Q 188 163 185 198 Q 167 250 173 295 Q 168 323 164 335 Q 159 352 145 369 Z M 105 331 Q 116 317 121 293 Q 127 246 133 201 Q 134 187 121 185 Q 107 182 93 179 Q 85 234 81 259 Q 78 281 81 293 Q 84 308 96 321 Q 100 326 105 331 Z" fill="black" />
  </g>
  <g class="defect" id="01">
    <path d="M 402 127 Q 373 123 356 106" fill="none" stroke="red" stroke-width="3" />
  </g>
  <g class="defect" id="02">
    <path d="M 185 198 Q 167 250 173 295" fill="none" stroke="red" stroke-width="3" />
  </g>
</svg>