<svg xmlns="http://www.w3.org/2000/svg" width="512" height="512" viewBox="0 0 512 512">
  <g class="glyph">
    <path d="M 100 308 Q 89 369 68 468 Q 65 480 54 486 Q 45 491 32 489 Q 0 483 5 456 Q 17 383 36 293 Q 41 276 58 273 Q 65 271 74 273 Q 104 277 100 308 Z M 384 227 Q 168 224 48 259 Q 32 261 25 255 Q 20 251 18 241 Q 17 230 21 222 Q 25 212 36 211 Q 211 191 372 179 Q 425 176 446 192 Q 477 212 464 265 Q 444 350 430 436 Q 430 439 432 440 Q 434 442 437 441 Q 460 437 478 430 Q 488 426 495 433 Q 502 439 504 449 Q 507 461 504 472 Q 501 483 494 486 Q 472 495 437 502 Q 394 512 377 494 Q 361 479 367 440 Q 379 354 403 245 Q 405 235 399 230 Q 394 226 384 227 Z M 418 139 Q 269 162 115 161 Q 66 160 49 135 Q 33 115 42 72 Q 44 67 51 42 Q 52 34 64 30 Q 75 27 88 29 Q 100 32 108 38 Q 130 24 115 52 Q 111 66 108 79 Q 105 94 111 100 Q 117 106 135 107 Q 172 107 223 106 Q 222 69 219 32 Q 218 5 250 3 Q 282 0 285 26 Q 288 60 289 102 Q 348 98 409 87 Q 405 59 403 44 Q 402 33 412 26 Q 421 20 435 18 Q 445 17 455 22 Q 466 27 468 36 Q 480 101 484 140 Q 487 163 460 168 Q 438 172 427 164 Q 421 159 420 152 Q 438 143 418 139 Z M 271 386 Q 309 412 326 422 Q 347 435 334 457 Q 324 482 296 471 Q 271 456 233 430 Q 218 448 185 484 Q 177 492 166 492 Q 155 492 144 485 Q 134 479 132 469 Q 130 457 138 447 Q 161 422 183 397 Q 139 369 136 367 Q 125 360 123 348 Q 121 338 127 327 Q 139 304 169 319 Q 189 331 221 352 Q 255 313 289 274 Q 298 263 311 263 Q 322 263 332 270 Q 352 288 335 312 Q 308 345 271 386 Z" fill="black" />
  </g>
  <g class="defect" id="01">
    <path d="M 108 38 Q 130 24 115 52" fill="none" stroke="red" stroke-width="3" />
  </g>
  <g class="defect" id="02">
    <path d="M 384 227 Q 168 224 48 259" fill="none" stroke="red" stroke-width="3" />
  </g>
  <g class="defect" id="03">
    <path d="M 420 152 Q 438 143 418 139" fill="none" stroke="red" stroke-width="3" />
  </g>
</svg>