<svg xmlns="http://www.w3.org/2000/svg" width="512" height="512" viewBox="0 0 512 512">
  <g class="glyph">
    <path d="M 80 397 Q 82 428 52 433 Q 37 435 28 429 Q 16 422 16 406 Q 3 175 0 126 Q 2 100 28 97 Q 63 94 65 119 Q 67 147 80 397 Z M 261 90 Q 342 85 366 84 Q 406 82 428 98 Q 450 115 450 157 Q 447 269 442 381 Q 441 408 424 421 Q 408 435 381 430 Q 353 438 314 413 Q 306 410 304 399 Q 301 389 303 378 Q 305 367 310 361 Q 316 354 323 355 Q 336 361 366 369 Q 378 371 379 359 Q 363 255 384 165 Q 384 153 378 148 Q 373 143 360 144 Q 310 147 260 150 Q 256 317 252 483 Q 251 498 241 505 Q 232 512 219 511 Q 205 511 196 505 Q 184 497 185 481 Q 189 325 193 154 Q 152 158 111 161 Q 100 161 93 153 Q 86 145 85 133 Q 84 120 89 112 Q 96 101 109 100 Q 152 97 195 94 Q 196 54 196 24 Q 197 12 208 5 Q 217 0 230 0 Q 244 0 252 5 Q 264 10 263 23 Q 263 51 261 90 Z" fill="black" />
  </g>
  <g class="defect" id="01">
    <path d="M 379 359 Q 363 255 384 165" fill="none" stroke="red" stroke-width="3" />
  </g>
  <g class="defect" id="02">
    <path d="M 381 430 Q 353 438 314 413" fill="none" stroke="red" stroke-width="3" />
  </g>
</svg>