<svg xmlns="http://www.w3.org/2000/svg" width="512" height="512" viewBox="0 0 512 512">
  <g class="glyph">
    <path d="M 62 395 Q 62 408 55 415 Q 48 421 37 421 Q 25 422 16 417 Q 6 411 6 399 Q 2 249 1 148 Q 0 134 9 127 Q 16 120 28 120 Q 39 121 48 128 Q 56 135 57 145 Q 60 243 62 395 Z M 191 27 Q 181 181 154 486 Q 153 499 142 506 Q 132 512 120 511 Q 107 510 99 503 Q 90 495 90 482 Q 109 218 127 26 Q 128 12 139 6 Q 149 0 162 1 Q 176 2 184 9 Q 192 16 191 27 Z M 412 246 Q 411 194 400 148 Q 395 125 378 117 Q 363 109 334 110 Q 298 112 250 125 Q 236 128 226 121 Q 217 114 214 103 Q 212 91 217 81 Q 222 70 234 67 Q 285 51 349 50 Q 400 51 426 66 Q 450 81 460 113 Q 477 172 477 247 Q 477 314 465 377 Q 457 430 432 452 Q 409 473 362 478 Q 282 486 208 465 Q 196 461 192 449 Q 188 437 192 426 Q 195 416 204 410 Q 213 404 226 407 Q 292 425 343 420 Q 367 418 380 407 Q 394 396 400 369 Q 421 352 410 307 Q 290 292 237 283 Q 220 281 216 265 Q 214 258 215 250 Q 217 237 224 230 Q 231 222 244 223 Q 365 238 412 246 Z" fill="black" />
  </g>
  <g class="defect" id="01">
    <path d="M 400 369 Q 421 352 410 307" fill="none" stroke="red" stroke-width="3" />
  </g>
</svg>