<svg xmlns="http://www.w3.org/2000/svg" width="512" height="512" viewBox="0 0 512 512">
  <g class="glyph">
    <path d="M 109 149 Q 103 193 62 461 Q 61 473 50 479 Q 40 484 27 482 Q 0 479 2 454 Q 15 362 49 142 Q 52 129 62 124 Q 72 119 85 120 Q 109 124 109 149 Z M 436 377 Q 464 400 492 422 Q 500 429 500 439 Q 500 450 493 458 Q 486 467 476 469 Q 465 471 455 463 Q 413 430 410 428 Q 400 446 386 471 Q 380 481 370 483 Q 360 485 349 481 Q 326 471 333 448 Q 350 418 363 392 Q 346 380 329 367 Q 322 362 322 351 Q 322 342 328 333 Q 335 322 343 320 Q 354 316 364 324 Q 390 345 389 342 Q 412 295 423 271 Q 436 247 463 261 Q 482 271 477 292 Q 455 341 436 377 Z M 408 161 Q 450 174 484 184 Q 494 188 496 198 Q 498 206 494 217 Q 500 256 465 237 Q 449 232 392 215 Q 384 242 376 268 Q 368 289 345 283 Q 333 281 326 272 Q 318 263 322 250 Q 341 184 359 119 Q 363 110 375 106 Q 385 103 397 108 Q 419 115 414 137 Q 412 145 408 161 Z M 286 40 Q 376 36 443 33 Q 457 33 463 40 Q 468 46 468 57 Q 469 83 448 84 Q 253 96 43 105 Q 30 106 24 98 Q 19 91 19 80 Q 16 54 39 53 Q 93 50 203 44 Q 201 42 199 40 Q 193 29 200 19 Q 207 9 222 4 Q 234 0 246 2 Q 259 4 265 14 Q 278 28 286 40 Z M 254 292 Q 284 295 304 296 Q 324 298 322 319 Q 321 329 316 335 Q 309 343 301 342 Q 257 341 212 338 Q 213 342 212 347 Q 205 362 199 377 Q 213 373 241 367 Q 274 360 290 373 Q 307 387 310 416 Q 312 429 313 453 Q 313 481 295 496 Q 274 512 247 502 Q 227 494 207 484 Q 199 480 198 472 Q 197 465 200 458 Q 208 441 220 445 Q 237 453 247 455 Q 253 458 257 456 Q 260 454 261 447 Q 261 437 259 423 Q 258 414 254 411 Q 251 408 242 409 Q 215 414 186 422 Q 183 423 181 422 Q 170 446 156 475 Q 151 485 139 489 Q 127 492 116 488 Q 110 486 106 482 Q 96 473 101 457 Q 128 396 156 335 Q 146 334 128 333 Q 116 332 110 324 Q 104 317 106 307 Q 107 298 112 292 Q 119 286 131 287 Q 150 287 196 289 Q 195 275 195 261 Q 171 263 148 264 Q 139 265 133 259 Q 129 254 129 245 Q 128 236 132 231 Q 137 225 146 224 Q 169 223 194 221 Q 193 205 192 188 Q 156 185 137 183 Q 117 180 117 161 Q 117 151 123 144 Q 129 136 141 137 Q 164 139 191 140 V 129 Q 190 112 205 105 Q 212 102 220 102 Q 231 102 238 107 Q 247 113 247 125 Q 248 135 248 144 Q 286 148 305 149 Q 297 132 322 158 Q 328 165 326 174 Q 326 183 320 189 Q 313 196 302 195 Q 284 195 250 192 Q 251 205 251 217 Q 280 215 292 214 Q 301 213 307 219 Q 311 224 311 233 Q 311 242 307 247 Q 303 254 295 255 Q 274 257 253 258 Q 253 275 254 292 Z" fill="black" />
  </g>
  <g class="defect" id="01">
    <path d="M 305 149 Q 297 132 322 158" fill="none" stroke="red" stroke-width="3" />
  </g>
  <g class="defect" id="02">
    <path d="M 494 217 Q 500 256 465 237" fill="none" stroke="red" stroke-width="3" />
  </g>
  <g class="defect" id="03">
    <path d="M 364 324 Q 390 345 389 342" fill="none" stroke="red" stroke-width="3" />
  </g>
</svg>