<svg xmlns="http://www.w3.org/2000/svg" width="512" height="512" viewBox="0 0 512 512">
  <g class="glyph">
    <path d="M 94 363 Q 79 427 68 463 Q 62 491 31 488 Q 3 485 5 455 Q 18 405 31 355 Q 33 342 44 336 Q 55 331 68 333 Q 96 337 94 363 Z M 389 460 Q 390 470 384 479 Q 378 488 364 489 Q 268 502 194 505 Q 157 507 138 491 Q 121 472 123 435 Q 129 375 135 315 Q 137 300 154 295 Q 161 293 170 293 Q 183 295 191 301 Q 201 309 200 322 Q 195 372 190 422 Q 189 437 195 442 Q 201 446 217 445 Q 282 441 356 430 Q 372 430 381 439 Q 389 447 389 460 Z M 362 389 Q 349 413 324 403 Q 293 370 247 363 Q 223 348 235 320 Q 248 293 275 304 Q 304 319 352 346 Q 364 353 366 366 Q 368 377 362 389 Z M 505 441 Q 512 470 489 480 Q 477 485 465 481 Q 451 477 445 464 Q 420 409 391 341 Q 386 328 394 315 Q 401 305 413 301 Q 424 297 434 301 Q 446 305 451 318 Q 482 382 505 441 Z M 288 68 Q 477 84 487 84 Q 500 85 506 97 Q 510 107 509 121 Q 507 131 501 138 Q 495 145 485 144 Q 417 139 285 129 Q 283 167 280 205 Q 385 195 432 190 Q 431 178 450 198 Q 455 205 457 218 Q 458 229 454 237 Q 449 246 440 247 Q 421 250 74 285 Q 62 287 55 278 Q 50 271 49 258 Q 48 247 53 238 Q 58 229 67 228 Q 140 220 213 212 Q 216 168 218 123 Q 159 119 25 108 Q 16 108 10 102 Q 0 92 2 73 Q 4 62 10 55 Q 17 47 29 48 Q 92 52 222 63 Q 223 44 224 24 Q 225 12 235 6 Q 244 0 258 0 Q 271 0 280 6 Q 270 23 290 25 Q 289 47 288 68 Z" fill="black" />
  </g>
  <g class="defect" id="01">
    <path d="M 432 190 Q 431 178 450 198" fill="none" stroke="red" stroke-width="3" />
  </g>
  <g class="defect" id="02">
    <path d="M 324 403 Q 293 370 247 363" fill="none" stroke="red" stroke-width="3" />
  </g>
  <g class="defect" id="03">
    <path d="M 280 6 Q 270 23 290 25" fill="none" stroke="red" stroke-width="3" />
  </g>
</svg>