<svg xmlns="http://www.w3.org/2000/svg" width="512" height="512" viewBox="0 0 512 512">
  <g class="glyph">
    <path d="M 55 131 Q 47 224 44 263 Q 43 275 36 280 Q 29 285 20 284 Q 0 283 1 261 Q 8 176 13 129 Q 13 110 34 110 Q 44 111 49 116 Q 55 121 55 131 Z M 396 85 Q 400 96 393 105 Q 358 149 335 178 Q 345 173 359 175 Q 373 176 380 183 Q 389 190 388 202 Q 385 228 382 254 Q 384 249 388 243 Q 406 224 425 233 Q 492 285 499 290 Q 511 300 511 312 Q 512 323 503 333 Q 470 333 464 340 Q 422 309 391 284 Q 382 277 380 268 Q 369 362 354 474 Q 351 487 342 494 Q 333 499 320 499 Q 285 495 289 467 Q 302 346 322 199 Q 323 196 324 191 Q 307 213 236 300 Q 228 310 214 310 Q 202 310 191 302 Q 171 286 184 262 Q 291 130 320 94 Q 231 104 209 106 Q 198 107 190 99 Q 183 92 181 81 Q 179 50 204 46 Q 311 43 482 13 Q 506 10 508 38 Q 511 70 489 72 Q 443 79 396 85 Z M 153 202 Q 170 321 165 441 Q 166 456 157 463 Q 149 470 135 470 Q 103 473 102 444 Q 87 206 79 30 Q 79 16 88 8 Q 96 2 110 1 Q 142 0 143 27 Q 143 30 150 139 Q 191 149 205 153 Q 228 159 224 185 Q 221 198 215 205 Q 207 214 197 212 Q 180 209 153 202 Z" fill="black" />
  </g>
  <g class="defect" id="01">
    <path d="M 204 46 Q 311 43 482 13" fill="none" stroke="red" stroke-width="3" />
  </g>
  <g class="defect" id="02">
    <path d="M 503 333 Q 470 333 464 340" fill="none" stroke="red" stroke-width="3" />
  </g>
  <g class="defect" id="03">
    <path d="M 153 202 Q 170 321 165 441" fill="none" stroke="red" stroke-width="3" />
  </g>
</svg>