<svg xmlns="http://www.w3.org/2000/svg" width="512" height="512" viewBox="0 0 512 512">
  <g class="glyph">
    <path d="M 511 121 Q 511 182 472 210 Q 435 237 366 237 Q 333 238 304 230 Q 273 222 256 207 Q 224 181 231 129 Q 232 119 242 112 Q 252 107 264 107 Q 277 107 286 112 Q 296 118 296 129 Q 289 152 306 166 Q 323 178 357 181 Q 405 183 428 165 Q 446 149 447 121 Q 447 87 419 77 Q 391 68 342 72 Q 289 77 249 95 Q 221 106 211 78 Q 206 66 209 57 Q 213 45 226 40 Q 278 17 348 16 Q 435 12 472 37 Q 512 63 511 121 Z M 371 299 Q 399 303 427 306 Q 475 312 492 331 Q 506 348 506 383 Q 504 422 499 458 Q 495 483 476 495 Q 454 508 419 500 Q 382 491 365 483 Q 355 478 352 467 Q 349 457 354 445 Q 362 423 382 429 Q 401 437 421 440 Q 434 442 436 429 Q 440 405 440 384 Q 440 371 435 366 Q 429 361 413 358 Q 380 355 347 351 Q 315 418 280 484 Q 273 499 259 503 Q 246 507 233 501 Q 222 495 217 485 Q 212 472 218 459 Q 237 419 274 344 Q 253 342 231 340 Q 220 339 214 330 Q 210 323 210 312 Q 211 299 216 293 Q 223 285 235 286 Q 268 289 301 292 Q 308 277 315 263 Q 321 252 334 249 Q 347 246 359 251 Q 372 256 377 265 Q 382 275 377 287 Q 374 293 371 299 Z M 156 301 Q 159 355 163 409 Q 165 447 145 465 Q 126 482 87 472 Q 57 464 27 453 Q 18 449 15 439 Q 12 429 15 419 Q 19 407 26 401 Q 34 395 44 398 Q 61 406 79 410 Q 89 414 94 411 Q 99 407 98 397 Q 95 348 93 323 Q 69 331 45 340 Q 22 347 13 320 Q 9 309 12 299 Q 16 288 28 283 Q 47 276 87 261 Q 67 232 77 155 Q 57 150 25 142 Q 0 135 8 105 Q 12 93 17 87 Q 24 80 38 83 Q 49 86 71 90 Q 68 58 65 26 Q 63 13 74 6 Q 82 1 97 0 Q 126 0 129 25 Q 134 73 137 106 Q 153 110 187 119 Q 199 122 204 133 Q 208 142 204 154 Q 202 165 195 172 Q 186 180 175 178 Q 165 175 144 171 Q 146 193 150 239 Q 170 233 187 227 Q 201 222 210 228 Q 218 233 222 245 Q 225 256 222 266 Q 218 277 207 281 Q 181 291 156 301 Z" fill="black" />
  </g>
  <g class="defect" id="01">
    <path d="M 87 261 Q 67 232 77 155" fill="none" stroke="red" stroke-width="3" />
  </g>
</svg>