<svg xmlns="http://www.w3.org/2000/svg" width="512" height="512" viewBox="0 0 512 512">
  <g class="glyph">
    <path d="M 403 348 Q 445 381 487 415 Q 506 435 489 456 Q 480 467 469 469 Q 457 471 444 461 Q 421 443 370 404 Q 322 485 321 487 Q 305 512 278 500 Q 250 495 262 485 Q 257 474 264 461 Q 303 393 320 364 Q 290 342 277 331 Q 266 322 267 309 Q 268 297 277 286 Q 295 267 319 285 Q 335 297 352 309 Q 375 270 411 208 Q 426 183 452 195 Q 480 206 468 233 Q 435 291 403 348 Z M 365 93 Q 420 104 475 114 Q 504 121 498 148 Q 509 178 464 173 Q 428 167 344 150 Q 329 191 317 222 Q 312 235 299 239 Q 287 243 275 238 Q 250 228 258 201 Q 285 121 322 20 Q 327 7 339 3 Q 351 0 363 4 Q 374 7 380 16 Q 386 26 383 40 Q 374 67 365 93 Z M 164 241 Q 197 246 219 264 Q 254 295 255 357 Q 255 413 226 445 Q 195 480 138 482 Q 86 483 59 454 Q 27 424 31 362 Q 32 352 40 344 Q 48 338 59 336 Q 70 335 78 341 Q 87 347 88 360 Q 86 393 96 408 Q 109 428 138 427 Q 169 425 184 403 Q 198 384 196 356 Q 195 325 174 309 Q 155 293 118 299 Q 92 304 55 321 Q 37 329 25 318 Q 20 313 17 306 Q 13 295 16 285 Q 20 273 32 267 Q 65 251 101 244 Q 99 213 98 181 Q 67 188 35 194 Q 11 199 5 173 Q 0 147 20 141 Q 62 131 96 123 Q 95 90 94 59 Q 93 47 103 39 Q 112 32 124 30 Q 137 29 146 36 Q 155 43 156 56 Q 158 92 159 110 Q 190 104 221 97 Q 236 95 243 98 Q 251 102 254 115 Q 262 143 236 150 Q 206 158 161 167 Q 163 204 164 241 Z" fill="black" />
  </g>
  <g class="defect" id="01">
    <path d="M 498 148 Q 509 178 464 173" fill="none" stroke="red" stroke-width="3" />
  </g>
  <g class="defect" id="02">
    <path d="M 278 500 Q 250 495 262 485" fill="none" stroke="red" stroke-width="3" />
  </g>
</svg>