<svg xmlns="http://www.w3.org/2000/svg" width="512" height="512" viewBox="0 0 512 512">
  <g class="glyph">
    <path d="M 423 426 Q 468 421 480 420 Q 494 418 502 426 Q 509 432 510 443 Q 512 455 507 463 Q 501 472 488 474 Q 332 494 262 501 Q 234 503 231 476 Q 230 465 236 457 Q 242 448 255 447 Q 335 437 358 434 Q 356 409 355 376 Q 287 372 277 371 Q 262 370 255 360 Q 250 351 252 340 Q 254 317 278 317 Q 327 318 351 320 Q 350 303 348 269 Q 297 274 284 275 Q 282 281 279 287 Q 275 298 263 302 Q 254 306 242 302 Q 220 295 225 270 Q 254 195 259 183 Q 263 173 273 169 Q 282 166 293 169 Q 304 172 309 179 Q 316 187 313 197 Q 309 207 306 218 Q 334 232 344 213 Q 343 191 342 168 Q 342 155 351 148 Q 359 141 373 140 Q 405 139 406 162 Q 409 191 410 206 Q 422 205 475 200 Q 499 198 501 220 Q 503 232 499 241 Q 495 251 484 253 Q 458 256 414 261 Q 416 304 418 324 Q 447 327 476 328 Q 501 330 500 356 Q 499 368 494 375 Q 487 383 474 383 Q 459 382 421 380 Q 422 404 423 426 Z M 338 56 Q 435 75 482 86 Q 495 89 501 98 Q 505 106 503 118 Q 501 130 493 135 Q 484 142 469 139 Q 397 126 315 107 Q 309 119 297 145 Q 291 156 278 159 Q 266 162 255 157 Q 243 153 239 143 Q 234 133 239 119 Q 258 73 284 17 Q 290 6 303 3 Q 315 0 327 5 Q 339 10 344 18 Q 350 28 345 40 Q 342 48 338 56 Z M 151 110 Q 170 106 189 101 Q 205 98 214 103 Q 222 108 225 122 Q 232 153 203 161 Q 157 173 111 184 Q 109 204 106 223 Q 124 226 154 234 Q 187 242 197 255 Q 210 270 212 308 Q 216 376 216 436 Q 216 467 200 478 Q 182 490 152 480 Q 131 474 107 461 Q 96 457 94 447 Q 91 437 95 427 Q 100 405 118 409 Q 133 416 148 421 Q 154 424 157 422 Q 159 420 158 414 Q 158 374 154 318 Q 154 306 150 300 Q 145 294 134 291 Q 111 286 97 284 Q 94 307 79 397 Q 77 413 65 419 Q 55 424 40 422 Q 11 419 15 390 Q 31 279 45 200 L 43 200 Q 26 204 18 197 Q 10 192 7 178 Q 0 149 29 141 Q 58 134 87 126 Q 69 78 66 67 Q 63 55 70 45 Q 77 37 90 34 Q 103 30 114 34 Q 125 38 130 49 Q 142 83 151 110 Z" fill="black" />
  </g>
  <g class="defect" id="01">
    <path d="M 278 317 Q 327 318 351 320" fill="none" stroke="red" stroke-width="3" />
  </g>
  <g class="defect" id="02">
    <path d="M 306 218 Q 334 232 344 213" fill="none" stroke="red" stroke-width="3" />
  </g>
</svg>