<svg xmlns="http://www.w3.org/2000/svg" width="512" height="512" viewBox="0 0 512 512">
  <g class="glyph">
    <path d="M 280 120 Q 273 261 260 470 Q 258 498 227 497 Q 197 496 198 465 Q 207 297 218 118 Q 219 104 229 97 Q 238 90 251 91 Q 264 91 272 99 Q 280 107 280 120 Z M 510 62 Q 510 72 503 79 Q 496 87 486 86 Q 369 80 225 68 Q 212 67 205 58 Q 199 49 201 38 Q 203 18 225 16 Q 379 27 485 36 Q 497 37 504 45 Q 510 52 510 62 Z M 410 163 Q 454 155 474 166 Q 497 180 500 229 Q 506 318 504 451 Q 503 488 485 500 Q 466 512 422 503 Q 393 497 364 481 Q 346 472 351 449 Q 354 438 362 432 Q 370 426 379 429 Q 406 442 421 446 Q 444 451 445 433 Q 427 349 442 244 Q 441 228 434 223 Q 428 218 413 221 Q 408 222 398 225 Q 376 333 364 390 Q 360 404 350 410 Q 340 415 328 413 Q 302 407 307 378 Q 312 354 333 244 Q 329 246 325 247 Q 310 251 300 244 Q 291 239 289 227 Q 283 199 313 191 Q 327 186 347 180 Q 357 132 360 118 Q 362 104 372 98 Q 381 94 394 96 Q 405 98 411 106 Q 418 115 416 129 Q 413 147 410 163 Z M 143 279 Q 147 394 150 450 Q 150 463 143 470 Q 136 477 121 478 Q 91 480 90 451 Q 86 379 84 349 Q 71 365 58 382 Q 39 407 17 389 Q 0 375 12 353 Q 37 317 80 259 Q 78 227 76 196 Q 72 181 41 204 Q 27 207 19 198 Q 13 192 11 179 Q 8 161 15 153 Q 19 148 30 145 Q 52 140 74 134 Q 70 61 69 30 Q 69 14 77 7 Q 84 2 99 1 Q 127 0 129 25 Q 131 66 134 120 Q 143 118 167 113 Q 182 110 189 117 Q 194 122 197 134 Q 204 165 180 170 Q 159 176 137 182 Q 138 195 139 209 Q 140 209 141 211 Q 164 232 187 252 Q 201 268 188 285 Q 182 292 173 294 Q 163 297 155 290 Q 147 283 143 279 Z" fill="black" />
  </g>
  <g class="defect" id="01">
    <path d="M 76 196 Q 72 181 41 204" fill="none" stroke="red" stroke-width="3" />
  </g>
  <g class="defect" id="02">
    <path d="M 445 433 Q 427 349 442 244" fill="none" stroke="red" stroke-width="3" />
  </g>
</svg>