<svg xmlns="http://www.w3.org/2000/svg" width="512" height="512" viewBox="0 0 512 512">
  <g class="glyph">
    <path d="M 435 197 Q 463 200 489 203 Q 501 205 507 215 Q 512 224 510 235 Q 489 269 485 257 Q 455 254 317 241 Q 316 242 316 244 Q 304 265 291 285 Q 301 272 323 276 Q 352 279 350 303 Q 349 318 347 332 Q 360 327 466 289 Q 493 283 501 304 Q 505 314 503 324 Q 500 335 491 339 Q 473 347 361 389 Q 350 393 341 388 Q 339 406 337 422 Q 337 435 343 439 Q 349 442 362 439 Q 412 429 469 412 Q 481 408 490 414 Q 497 418 500 429 Q 503 439 501 449 Q 498 460 490 463 Q 437 482 365 495 Q 320 502 297 488 Q 271 470 274 423 Q 277 377 287 295 Q 288 291 289 288 Q 254 347 225 391 Q 219 402 207 404 Q 196 406 186 400 Q 176 394 173 384 Q 170 372 176 360 Q 194 330 253 234 Q 236 233 219 230 Q 205 228 199 219 Q 194 210 195 199 Q 200 176 223 177 Q 228 177 275 181 Q 272 133 272 130 Q 247 132 222 135 Q 209 135 201 128 Q 183 121 193 110 Q 192 100 199 91 Q 205 82 217 81 Q 246 78 268 76 Q 267 61 266 30 Q 266 18 275 10 Q 283 3 296 2 Q 325 0 327 26 Q 329 43 330 70 Q 352 69 374 66 Q 399 68 402 90 Q 404 100 397 109 Q 391 119 377 120 Q 356 122 334 124 Q 337 156 338 187 Q 362 189 373 190 Q 405 122 440 52 Q 446 43 458 40 Q 469 39 480 44 Q 501 53 492 78 Q 474 122 435 197 Z M 152 296 Q 156 374 160 452 Q 160 465 152 473 Q 144 479 132 480 Q 100 485 98 456 Q 93 393 91 355 Q 60 397 57 402 Q 38 426 17 408 Q 0 395 12 372 Q 67 293 83 271 Q 85 270 86 268 Q 85 234 82 200 Q 49 203 35 205 Q 11 208 9 178 Q 7 165 11 158 Q 15 149 30 147 Q 57 143 79 141 Q 77 102 75 62 Q 74 47 83 40 Q 91 34 104 33 Q 117 32 126 37 Q 136 43 137 55 Q 140 95 142 134 Q 153 133 172 131 Q 184 130 192 137 Q 199 144 200 156 Q 202 167 197 177 Q 192 187 181 189 Q 163 191 146 193 Q 147 209 148 225 Q 175 250 192 267 Q 207 279 193 298 Q 181 315 161 305 Q 158 302 152 296 Z" fill="black" />
  </g>
  <g class="defect" id="01">
    <path d="M 510 235 Q 489 269 485 257" fill="none" stroke="red" stroke-width="3" />
  </g>
  <g class="defect" id="02">
    <path d="M 201 128 Q 183 121 193 110" fill="none" stroke="red" stroke-width="3" />
  </g>
</svg>