<svg xmlns="http://www.w3.org/2000/svg" width="512" height="512" viewBox="0 0 512 512">
  <g class="glyph">
    <path d="M 191 394 Q 197 414 170 429 Q 101 461 40 484 Q 26 489 17 483 Q 9 478 7 468 Q 5 459 10 449 Q 15 439 23 435 Q 89 404 156 377 Q 168 373 178 379 Q 187 384 191 394 Z M 508 442 Q 507 452 500 457 Q 492 463 481 461 Q 413 446 337 421 Q 315 414 318 391 Q 330 392 325 374 Q 334 366 345 369 Q 446 395 488 408 Q 499 411 504 421 Q 510 431 508 442 Z M 354 91 Q 382 92 406 94 Q 443 98 464 121 Q 484 142 482 171 Q 481 198 460 219 Q 436 242 396 246 Q 344 253 241 256 Q 176 256 119 253 Q 78 250 56 241 Q 31 229 30 197 Q 29 187 39 177 Q 48 167 60 166 Q 92 168 96 185 Q 98 198 109 204 Q 118 209 139 210 Q 203 213 242 212 Q 262 212 280 211 Q 276 204 277 194 Q 281 164 285 133 Q 260 134 235 134 Q 227 135 219 135 Q 221 148 223 162 Q 224 174 216 182 Q 209 190 197 191 Q 181 194 171 185 Q 166 180 164 173 Q 160 156 157 138 Q 103 142 31 149 Q 24 149 18 143 Q 13 137 12 128 Q 9 108 26 106 Q 108 98 149 95 Q 147 80 145 65 Q 144 56 147 49 Q 62 47 18 45 Q 9 45 4 38 Q 0 32 1 23 Q 1 12 5 7 Q 10 0 20 1 Q 347 8 490 13 Q 502 13 507 20 Q 512 26 511 37 Q 511 46 506 52 Q 500 59 490 59 Q 428 57 348 55 Q 356 63 356 76 Q 355 84 354 91 Z M 348 134 Q 339 183 335 204 Q 335 206 334 208 Q 356 206 379 203 Q 399 201 411 190 Q 423 180 423 168 Q 424 156 414 148 Q 404 138 384 137 Q 372 135 348 134 Z M 302 54 Q 253 53 203 51 L 204 53 Q 207 71 211 92 Q 227 91 235 91 Q 264 90 292 89 Q 295 78 296 66 Q 298 58 302 54 Z M 281 346 Q 288 411 291 461 Q 292 474 282 482 Q 273 489 260 490 Q 246 492 236 487 Q 224 481 223 468 Q 217 409 212 350 Q 101 356 40 359 Q 26 359 19 352 Q 12 346 13 336 Q 13 318 38 314 Q 91 310 207 303 Q 207 296 206 289 Q 206 277 216 270 Q 224 263 238 262 Q 252 260 263 266 Q 274 271 275 282 Q 276 293 277 299 Q 347 295 473 289 Q 500 291 500 309 Q 501 318 495 325 Q 489 334 477 334 Q 374 341 281 346 Z" fill="black" />
  </g>
  <g class="defect" id="01">
    <path d="M 318 391 Q 330 392 325 374" fill="none" stroke="red" stroke-width="3" />
  </g>
</svg>