<svg xmlns="http://www.w3.org/2000/svg" width="512" height="512" viewBox="0 0 512 512">
  <g class="glyph">
    <path d="M 451 92 Q 358 81 214 61 Q 187 57 188 30 Q 190 16 197 9 Q 206 0 222 1 Q 356 19 459 33 Q 488 37 484 64 Q 481 77 475 84 Q 466 93 451 92 Z M 427 380 Q 416 370 416 359 Q 416 348 424 339 Q 440 324 455 334 Q 475 352 496 370 Q 508 380 510 391 Q 512 401 506 410 Q 492 429 469 416 Q 454 405 427 380 Z M 295 360 Q 263 402 230 443 Q 221 453 209 454 Q 197 454 189 446 Q 172 430 190 406 Q 221 367 251 327 Q 259 317 270 316 Q 279 315 289 320 Q 309 335 295 360 Z M 413 216 Q 441 209 467 201 Q 494 193 501 218 Q 504 229 500 240 Q 496 251 488 253 Q 436 269 410 277 Q 405 355 399 420 Q 395 458 376 470 Q 358 480 329 474 Q 302 467 278 453 Q 262 443 270 420 Q 274 408 283 402 Q 291 396 300 401 Q 316 410 321 412 Q 328 414 332 412 Q 337 409 337 402 Q 341 364 346 292 Q 342 293 335 294 Q 294 302 271 288 Q 250 275 240 234 Q 227 175 220 114 Q 218 102 225 94 Q 216 88 243 85 Q 255 83 265 87 Q 290 92 277 105 Q 283 156 295 218 Q 300 245 331 237 Q 341 235 350 233 Q 353 164 354 132 Q 354 121 363 114 Q 371 109 384 108 Q 398 108 407 114 Q 416 121 416 135 Q 415 164 413 216 Z M 156 325 Q 157 356 161 419 Q 161 433 153 441 Q 145 447 132 448 Q 101 453 98 424 Q 92 328 89 275 Q 79 288 58 313 Q 48 325 37 325 Q 27 325 18 317 Q 0 303 14 282 Q 59 222 84 192 Q 84 176 83 160 Q 71 162 35 169 Q 10 172 7 142 Q 6 128 8 122 Q 12 113 27 110 Q 49 106 79 100 Q 77 54 76 31 Q 75 16 84 9 Q 92 3 106 2 Q 118 1 127 7 Q 137 12 138 25 Q 140 57 142 88 Q 166 83 173 82 Q 187 80 194 87 Q 199 92 201 105 Q 206 135 184 139 Q 175 141 146 147 Q 148 180 152 253 Q 182 276 210 298 Q 218 304 219 314 Q 220 323 214 332 Q 208 342 200 345 Q 190 349 180 343 Q 158 326 156 325 Z" fill="black" />
  </g>
  <g class="defect" id="01">
    <path d="M 222 1 Q 356 19 459 33" fill="none" stroke="red" stroke-width="3" />
  </g>
  <g class="defect" id="02">
    <path d="M 265 87 Q 290 92 277 105" fill="none" stroke="red" stroke-width="3" />
  </g>
  <g class="defect" id="03">
    <path d="M 225 94 Q 216 88 243 85" fill="none" stroke="red" stroke-width="3" />
  </g>
</svg>