<svg xmlns="http://www.w3.org/2000/svg" width="512" height="512" viewBox="0 0 512 512">
  <g class="glyph">
    <path d="M 402 66 Q 399 92 396 118 Q 394 135 376 134 Q 368 133 363 129 Q 357 124 358 116 Q 358 108 363 63 Q 357 63 351 63 Q 326 65 299 70 Q 279 74 276 51 Q 273 27 292 24 Q 328 17 377 17 Q 428 17 458 29 Q 503 49 502 106 Q 499 167 437 186 Q 405 195 354 197 Q 363 201 365 208 Q 369 216 376 236 Q 447 240 486 243 Q 501 244 507 251 Q 512 257 511 270 Q 511 283 506 288 Q 499 296 483 295 Q 421 293 325 289 Q 315 311 301 337 Q 352 327 404 321 Q 437 317 451 325 Q 470 334 473 371 Q 477 410 477 442 Q 478 470 464 483 Q 451 495 417 495 Q 357 508 339 481 Q 328 477 325 467 Q 322 458 326 447 Q 336 424 356 431 Q 381 438 402 441 Q 407 442 410 439 Q 414 436 413 431 Q 413 413 411 385 Q 409 366 390 372 Q 325 382 273 393 Q 268 405 233 470 Q 227 482 215 486 Q 203 489 190 483 Q 164 471 178 441 Q 217 363 256 285 Q 224 283 204 281 Q 189 281 183 273 Q 178 268 178 255 Q 179 242 184 236 Q 191 229 207 229 Q 257 231 307 233 Q 305 227 303 220 Q 302 204 322 198 Q 311 197 300 197 Q 244 195 217 175 Q 187 152 184 106 Q 184 63 201 25 Q 211 3 239 13 Q 252 17 258 24 Q 265 33 260 43 Q 248 69 248 99 Q 248 131 275 143 Q 283 146 292 148 Q 287 103 287 98 Q 286 91 291 87 Q 296 83 304 82 Q 312 80 318 84 Q 324 87 325 94 Q 325 100 330 151 H 345 Q 389 148 409 140 Q 439 128 440 100 Q 440 76 413 68 Q 406 66 402 66 Z M 138 328 Q 141 384 143 439 Q 144 452 136 459 Q 138 466 114 467 Q 84 469 83 441 Q 80 389 76 312 Q 62 330 58 334 Q 47 346 36 347 Q 26 348 17 339 Q 0 326 13 303 Q 41 266 71 226 Q 71 209 70 191 Q 62 193 38 199 Q 14 203 10 174 Q 7 161 10 154 Q 13 144 27 141 Q 64 131 67 131 Q 64 60 63 29 Q 62 13 71 6 Q 78 1 92 1 Q 104 0 113 6 Q 122 12 123 24 Q 124 54 128 116 Q 138 114 147 112 Q 160 110 167 116 Q 172 122 175 134 Q 180 164 156 170 Q 148 172 131 176 Q 134 232 135 263 Q 154 276 183 299 Q 190 305 190 314 Q 190 322 184 330 Q 171 349 152 337 Q 145 333 138 328 Z" fill="black" />
  </g>
  <g class="defect" id="01">
    <path d="M 417 495 Q 357 508 339 481" fill="none" stroke="red" stroke-width="3" />
  </g>
  <g class="defect" id="02">
    <path d="M 136 459 Q 138 466 114 467" fill="none" stroke="red" stroke-width="3" />
  </g>
</svg>