<svg xmlns="http://www.w3.org/2000/svg" width="512" height="512" viewBox="0 0 512 512">
  <g class="glyph">
    <path d="M 330 191 Q 335 198 333 208 Q 332 219 323 224 Q 283 247 234 270 Q 222 276 211 272 Q 201 268 196 258 Q 191 249 193 240 Q 194 231 204 225 Q 229 212 295 181 Q 317 171 330 191 Z M 429 188 Q 475 226 501 252 Q 510 261 509 272 Q 509 281 501 288 Q 493 297 481 298 Q 468 299 459 291 Q 418 255 376 219 Q 360 198 376 183 Q 311 176 212 164 Q 200 163 194 155 Q 189 149 190 138 Q 191 128 196 122 Q 202 115 213 115 Q 265 120 316 125 Q 317 114 320 90 H 247 Q 235 90 229 82 Q 223 75 224 67 Q 225 58 230 52 Q 235 44 244 44 Q 269 44 327 44 Q 329 33 331 22 Q 332 10 342 5 Q 352 0 366 1 Q 393 3 391 29 Q 391 36 390 43 Q 426 44 462 44 Q 473 44 479 50 Q 484 57 484 67 Q 484 76 479 82 Q 474 89 464 90 Q 442 90 383 90 Q 380 113 376 132 Q 384 133 487 144 Q 499 145 505 153 Q 510 159 509 169 Q 509 178 502 186 Q 496 194 487 193 Q 458 191 429 188 Z M 422 428 Q 454 438 492 450 Q 503 454 508 462 Q 512 469 509 479 Q 503 500 479 496 Q 468 493 368 464 Q 323 490 305 501 Q 291 509 278 506 Q 266 503 260 493 Q 254 485 256 476 Q 259 465 273 456 Q 281 452 297 443 Q 254 430 210 417 Q 191 411 198 388 Q 201 378 209 374 Q 217 368 230 372 Q 249 378 355 408 Q 377 395 402 378 Q 412 372 408 366 Q 405 363 400 362 Q 341 349 302 342 Q 293 350 283 358 Q 273 366 261 365 Q 252 364 244 357 Q 226 339 243 323 Q 285 285 327 247 Q 345 232 365 246 Q 375 253 376 263 Q 378 273 368 282 Q 361 289 346 302 Q 383 309 424 318 Q 468 326 476 349 Q 483 362 478 376 Q 473 391 458 403 Q 446 412 422 428 Z M 143 315 Q 147 403 149 451 Q 150 464 142 471 Q 134 477 120 478 Q 90 480 89 452 Q 87 413 84 371 Q 71 390 57 408 Q 38 432 17 414 Q 0 401 12 379 Q 46 331 79 283 Q 77 246 77 227 Q 48 228 35 229 Q 10 229 11 198 Q 11 185 14 180 Q 19 171 34 170 Q 54 169 74 167 Q 70 92 69 58 Q 69 43 78 36 Q 84 31 99 31 Q 111 30 119 36 Q 128 42 129 54 Q 133 123 135 164 Q 151 164 167 163 Q 181 163 187 171 Q 191 176 192 189 Q 193 202 188 211 Q 182 221 170 221 Q 149 222 138 223 Q 139 239 139 248 L 141 248 Q 178 281 207 305 Q 215 311 214 320 Q 214 328 208 336 Q 195 354 176 343 Q 142 329 143 315 Z" fill="black" />
  </g>
  <g class="defect" id="01">
    <path d="M 176 343 Q 142 329 143 315" fill="none" stroke="red" stroke-width="3" />
  </g>
</svg>