<svg xmlns="http://www.w3.org/2000/svg" width="512" height="512" viewBox="0 0 512 512">
  <g class="glyph">
    <path d="M 153 369 Q 120 410 64 473 Q 41 492 18 476 Q 7 468 4 458 Q 0 445 10 433 Q 50 384 100 328 Q 123 305 147 327 Q 171 345 153 369 Z M 154 264 Q 134 289 135 281 Q 123 286 109 278 Q 63 256 15 227 Q 3 220 3 207 Q 3 196 11 185 Q 28 160 54 174 Q 96 195 147 224 Q 169 240 154 264 Z M 511 442 Q 524 452 507 460 Q 502 469 491 470 Q 340 486 191 495 Q 177 496 171 488 Q 166 483 165 471 Q 163 447 186 445 Q 282 435 483 419 Q 497 419 504 425 Q 510 432 511 442 Z M 147 99 Q 166 120 147 140 Q 137 151 124 153 Q 110 154 97 143 Q 61 114 26 81 Q 18 72 20 59 Q 22 48 32 39 Q 53 21 77 39 Q 105 60 147 99 Z M 269 117 Q 286 134 274 152 Q 245 181 212 208 Q 200 217 187 217 Q 177 216 168 208 Q 161 201 159 190 Q 158 179 166 172 Q 190 147 229 116 Q 250 100 269 117 Z M 505 191 Q 497 214 473 211 Q 435 200 409 188 Q 397 183 393 171 Q 390 161 394 150 Q 401 128 425 133 Q 455 142 491 157 Q 502 161 505 171 Q 509 181 505 191 Z M 432 321 Q 362 330 290 336 Q 283 337 279 331 Q 275 327 274 320 Q 273 314 276 310 Q 280 304 286 304 Q 373 292 427 287 Q 421 278 412 274 Q 397 266 364 265 Q 336 265 307 271 Q 287 271 283 253 Q 282 244 286 236 Q 290 228 300 225 Q 331 217 380 219 Q 436 223 459 239 Q 492 260 492 310 Q 491 364 447 390 Q 410 411 333 412 Q 261 411 227 389 Q 186 362 189 307 Q 191 263 217 229 Q 224 220 235 219 Q 245 218 255 224 Q 276 236 266 260 Q 249 287 250 314 Q 251 345 278 357 Q 299 366 343 365 Q 391 364 411 351 Q 428 341 432 321 Z M 367 108 Q 370 143 370 181 Q 372 206 342 210 Q 328 227 306 185 Q 304 164 299 105 Q 253 103 187 99 Q 163 98 163 73 Q 164 49 188 49 Q 260 50 296 52 Q 296 42 295 32 Q 296 4 323 2 Q 338 0 348 6 Q 358 11 359 22 Q 362 44 362 55 Q 406 57 479 61 Q 503 62 502 86 Q 501 112 479 112 Q 422 111 367 108 Z" fill="black" />
  </g>
  <g class="defect" id="01">
    <path d="M 154 264 Q 134 289 135 281" fill="none" stroke="red" stroke-width="3" />
  </g>
  <g class="defect" id="02">
    <path d="M 511 442 Q 524 452 507 460" fill="none" stroke="red" stroke-width="3" />
  </g>
  <g class="defect" id="03">
    <path d="M 342 210 Q 328 227 306 185" fill="none" stroke="red" stroke-width="3" />
  </g>
</svg>