<svg xmlns="http://www.w3.org/2000/svg" width="512" height="512" viewBox="0 0 512 512">
  <g class="glyph">
    <path d="M 132 368 Q 97 429 66 472 Q 47 495 20 482 Q 9 475 5 466 Q 0 455 7 440 Q 40 386 75 334 Q 91 311 122 327 Q 147 340 132 368 Z M 135 257 Q 129 270 120 275 Q 108 282 94 276 Q 46 255 17 239 Q 5 233 3 221 Q 1 209 7 197 Q 20 171 48 180 Q 84 197 123 217 Q 146 229 135 257 Z M 129 99 Q 145 118 130 140 Q 121 152 109 155 Q 95 157 83 148 Q 43 110 22 87 Q 13 78 14 65 Q 15 53 24 44 Q 46 23 69 40 Q 89 57 129 99 Z M 212 79 Q 211 155 206 220 Q 206 242 181 241 Q 159 241 159 222 Q 160 138 164 78 Q 164 68 172 63 Q 179 59 190 59 Q 212 60 212 79 Z M 318 236 Q 318 249 310 256 Q 303 263 291 264 Q 278 265 270 260 Q 260 253 259 239 Q 248 155 237 29 Q 236 17 244 10 Q 252 3 264 2 Q 281 1 291 11 Q 295 16 296 23 Q 310 125 318 236 Z M 481 226 Q 492 233 494 245 Q 496 256 490 265 Q 478 286 453 276 Q 419 257 374 227 Q 361 220 360 207 Q 359 195 367 185 Q 379 168 399 176 Q 442 199 481 226 Z M 468 425 Q 475 425 482 425 Q 506 423 509 447 Q 510 462 501 470 Q 495 475 487 475 Q 328 488 162 498 Q 136 499 132 477 Q 131 465 136 457 Q 143 448 156 447 Q 171 446 186 445 Q 178 402 172 360 Q 171 351 178 344 Q 186 337 198 336 Q 228 333 234 351 Q 243 399 248 440 Q 257 439 275 438 Q 276 396 279 356 Q 280 344 295 344 Q 303 345 307 348 Q 312 351 312 358 Q 313 395 309 436 Q 374 431 406 429 Q 412 395 415 350 Q 418 332 398 331 Q 386 330 374 329 Q 377 360 380 402 Q 380 414 366 416 Q 359 417 353 414 Q 347 411 346 405 Q 341 361 339 327 Q 194 308 174 320 Q 153 320 156 293 Q 158 273 178 274 Q 279 275 407 284 Q 452 288 465 301 Q 479 315 477 349 Q 473 393 468 425 Z M 411 73 Q 435 68 476 60 Q 502 57 506 83 Q 512 110 489 117 Q 432 130 385 138 Q 381 148 377 157 Q 371 172 357 176 Q 345 180 333 175 Q 308 164 318 137 Q 336 92 365 20 Q 371 6 383 3 Q 394 0 406 5 Q 429 16 424 39 Q 405 69 411 73 Z" fill="black" />
  </g>
  <g class="defect" id="01">
    <path d="M 424 39 Q 405 69 411 73" fill="none" stroke="red" stroke-width="3" />
  </g>
  <g class="defect" id="02">
    <path d="M 339 327 Q 194 308 174 320" fill="none" stroke="red" stroke-width="3" />
  </g>
</svg>