<svg xmlns="http://www.w3.org/2000/svg" width="512" height="512" viewBox="0 0 512 512">
  <g class="glyph">
    <path d="M 309 182 Q 295 323 275 481 Q 274 495 263 502 Q 253 509 240 507 Q 228 506 220 498 Q 210 489 212 476 Q 225 346 246 178 Q 247 164 259 158 Q 269 152 282 153 Q 294 154 302 162 Q 311 170 309 182 Z M 406 92 Q 448 98 489 103 Q 512 107 510 134 Q 508 146 502 152 Q 496 160 486 160 Q 364 146 238 130 Q 241 128 220 118 Q 216 110 217 98 Q 221 70 243 72 Q 275 76 342 84 Q 334 69 318 37 Q 313 27 320 17 Q 325 9 336 5 Q 348 0 358 2 Q 370 5 377 15 Q 394 43 408 73 Q 412 83 406 92 Z M 145 127 Q 147 129 148 131 Q 183 190 188 275 Q 193 325 185 416 Q 181 456 159 470 Q 136 484 100 476 Q 81 471 42 459 Q 32 456 29 445 Q 26 436 28 424 Q 31 412 38 406 Q 46 399 57 402 Q 79 410 102 416 Q 113 420 117 417 Q 140 425 123 402 Q 130 335 128 293 Q 102 309 47 340 Q 22 349 12 326 Q 0 302 22 288 Q 72 260 121 231 Q 114 197 100 170 Q 78 189 63 203 Q 52 212 39 211 Q 27 210 19 200 Q 12 191 11 181 Q 11 169 20 160 Q 34 147 62 120 Q 47 106 27 92 Q 14 81 15 69 Q 16 57 26 48 Q 45 28 69 49 Q 85 61 106 79 Q 129 59 151 39 Q 161 30 174 32 Q 185 34 193 42 Q 212 60 195 80 Q 170 104 145 127 Z" fill="black" />
  </g>
  <g class="defect" id="01">
    <path d="M 238 130 Q 241 128 220 118" fill="none" stroke="red" stroke-width="3" />
  </g>
  <g class="defect" id="02">
    <path d="M 117 417 Q 140 425 123 402" fill="none" stroke="red" stroke-width="3" />
  </g>
</svg>