<svg xmlns="http://www.w3.org/2000/svg" width="512" height="512" viewBox="0 0 512 512">
  <g class="glyph">
    <path d="M 445 118 Q 441 92 424 79 Q 409 68 384 65 V 68 Q 383 82 381 111 Q 425 116 445 118 Z M 442 153 Q 411 150 379 147 Q 377 172 375 196 Q 408 192 424 179 Q 452 155 442 153 Z M 433 332 Q 430 317 410 315 Q 313 305 219 300 Q 199 299 199 275 Q 200 265 205 259 Q 210 252 221 252 Q 330 259 433 269 Q 471 273 484 288 Q 498 303 496 338 Q 493 392 483 453 Q 478 487 461 499 Q 440 512 406 505 Q 392 503 362 494 Q 349 490 347 478 Q 346 473 348 467 Q 350 458 357 454 Q 364 448 373 451 Q 394 458 403 459 Q 417 464 419 449 Q 428 394 431 365 Q 374 372 324 375 Q 308 376 306 361 Q 305 355 308 350 Q 312 343 319 343 Q 382 335 424 332 Q 429 331 433 332 Z M 341 65 Q 330 66 324 67 Q 269 74 231 89 Q 205 97 199 75 Q 195 66 198 58 Q 200 49 212 44 Q 271 22 339 18 Q 419 13 461 40 Q 482 55 494 79 Q 504 101 504 127 Q 505 154 493 178 Q 482 202 459 217 Q 423 241 355 243 Q 283 245 245 217 Q 206 190 208 130 Q 208 106 240 103 Q 270 103 272 126 Q 269 163 288 180 Q 302 192 332 195 Q 333 178 335 142 Q 317 140 298 137 Q 283 136 285 120 Q 286 105 302 104 Q 320 106 338 107 Q 338 92 341 67 Z M 285 425 Q 288 447 290 468 Q 292 479 282 486 Q 274 493 260 494 Q 247 496 238 492 Q 229 486 226 476 Q 215 411 207 343 Q 206 332 215 325 Q 223 319 236 317 Q 250 315 259 319 Q 269 324 271 335 Q 276 364 280 392 Q 327 393 388 399 Q 397 400 401 404 Q 404 409 404 415 Q 415 432 386 432 Q 336 429 285 425 Z M 131 106 Q 136 113 139 119 Q 172 179 175 286 Q 177 347 170 416 Q 166 455 146 469 Q 124 483 83 475 Q 55 469 29 458 Q 20 455 16 445 Q 13 435 16 424 Q 19 411 26 404 Q 34 397 46 400 Q 59 405 85 413 Q 97 417 102 414 Q 106 411 108 399 Q 114 336 112 285 Q 69 312 41 327 Q 16 336 5 314 Q 0 303 2 294 Q 4 283 16 275 Q 59 249 105 222 Q 99 182 85 151 Q 76 161 57 178 Q 33 198 13 177 Q 5 168 4 158 Q 3 146 13 136 Q 37 110 50 96 Q 34 78 19 67 Q 6 54 6 41 Q 7 31 17 22 Q 37 0 61 23 Q 79 37 94 53 Q 123 24 137 11 Q 148 1 160 2 Q 171 4 181 13 Q 199 31 184 51 Q 133 104 131 106 Z" fill="black" />
  </g>
  <g class="defect" id="01">
    <path d="M 424 179 Q 452 155 442 153" fill="none" stroke="red" stroke-width="3" />
  </g>
  <g class="defect" id="02">
    <path d="M 404 415 Q 415 432 386 432" fill="none" stroke="red" stroke-width="3" />
  </g>
</svg>