<svg xmlns="http://www.w3.org/2000/svg" width="512" height="512" viewBox="0 0 512 512">
  <g class="glyph">
    <path d="M 446 402 Q 475 429 496 449 Q 506 460 504 471 Q 502 482 492 491 Q 472 509 448 491 Q 385 435 318 371 Q 309 361 312 349 Q 326 339 324 331 Q 344 313 366 330 Q 386 347 405 364 Q 425 337 445 310 Q 453 299 465 299 Q 476 298 485 305 Q 504 318 493 340 Q 474 366 446 402 Z M 432 163 Q 430 128 412 116 Q 395 105 345 110 Q 278 119 243 134 Q 222 143 209 131 Q 204 126 202 118 Q 191 91 218 81 Q 250 69 301 60 Q 297 51 291 33 Q 289 21 297 13 Q 304 6 316 3 Q 329 0 339 3 Q 350 6 354 16 Q 360 28 369 54 Q 423 52 453 73 Q 493 101 492 174 Q 491 240 457 273 Q 423 303 348 302 Q 309 302 275 292 Q 269 382 266 430 Q 266 439 269 441 Q 273 444 282 441 Q 303 432 324 424 Q 344 420 352 443 Q 356 453 353 462 Q 351 472 341 476 Q 304 492 277 500 Q 235 512 217 495 Q 200 481 202 445 Q 209 290 220 173 Q 222 145 256 148 Q 288 150 285 177 Q 282 203 279 238 Q 308 247 348 249 Q 399 250 415 230 Q 423 223 426 211 Q 418 210 320 199 Q 297 195 300 172 Q 283 148 323 150 Q 371 154 432 163 Z M 138 350 Q 153 343 159 339 Q 185 327 196 353 Q 209 379 190 390 Q 135 422 51 467 Q 24 480 12 454 Q -14 416 22 415 Q 45 401 80 382 Q 76 335 71 287 Q 54 289 37 291 Q 9 292 8 263 Q 7 250 11 242 Q 16 233 29 231 Q 52 228 66 227 Q 62 167 59 138 Q 52 135 28 129 Q 2 120 10 91 Q 17 65 41 70 Q 139 97 161 104 Q 188 111 181 139 Q 178 151 171 157 Q 163 165 151 163 Q 137 159 122 155 Q 125 178 128 220 Q 145 219 160 217 Q 176 217 182 225 Q 187 231 188 244 Q 190 273 169 276 Q 151 278 133 281 Q 136 316 138 350 Z" fill="black" />
  </g>
  <g class="defect" id="01">
    <path d="M 12 454 Q -14 416 22 415" fill="none" stroke="red" stroke-width="3" />
  </g>
  <g class="defect" id="02">
    <path d="M 312 349 Q 326 339 324 331" fill="none" stroke="red" stroke-width="3" />
  </g>
  <g class="defect" id="03">
    <path d="M 300 172 Q 283 148 323 150" fill="none" stroke="red" stroke-width="3" />
  </g>
</svg>