<svg xmlns="http://www.w3.org/2000/svg" width="512" height="512" viewBox="0 0 512 512">
  <g class="glyph">
    <path d="M 74 244 Q 81 264 65 273 Q 58 277 51 277 Q 42 276 38 268 Q 21 236 4 205 Q 0 195 3 187 Q 6 180 14 177 Q 30 170 40 184 Q 60 218 74 244 Z M 373 225 Q 375 230 374 236 Q 367 304 367 307 Q 400 299 449 290 Q 463 289 471 293 Q 478 298 481 309 Q 484 322 481 331 Q 477 341 464 344 Q 416 355 361 366 Q 356 410 354 429 Q 394 426 479 423 Q 495 422 503 430 Q 509 437 510 449 Q 512 478 487 479 Q 288 507 162 497 Q 145 497 137 490 Q 130 483 130 471 Q 129 443 156 441 Q 171 440 187 439 Q 180 386 173 291 Q 190 278 181 271 Q 188 265 200 263 Q 214 262 222 268 Q 232 274 233 288 Q 244 399 246 435 Q 267 433 289 432 Q 296 356 310 235 Q 311 227 316 220 Q 234 215 193 211 Q 164 208 167 180 Q 169 153 197 154 Q 327 162 474 175 Q 503 177 499 206 Q 497 232 470 232 Q 421 228 373 225 Z M 316 57 Q 385 52 454 46 Q 466 46 473 55 Q 479 63 480 74 Q 481 91 472 99 Q 467 103 460 104 Q 277 123 92 137 Q 80 138 73 129 Q 67 122 67 111 Q 66 99 71 90 Q 76 80 88 79 Q 189 69 247 64 Q 246 62 233 37 Q 228 27 234 17 Q 240 9 252 5 Q 263 0 275 2 Q 287 5 294 14 Q 301 28 314 51 Q 316 55 316 57 Z M 69 315 Q 85 211 90 179 Q 91 166 103 160 Q 113 154 125 156 Q 136 158 143 166 Q 152 174 150 185 Q 138 280 109 471 Q 107 484 95 490 Q 86 495 72 494 Q 58 491 52 484 Q 46 477 48 463 Q 51 440 60 380 Q 45 386 30 391 Q 21 394 13 388 Q 6 383 3 373 Q 0 361 2 352 Q 5 342 15 338 Q 42 324 69 315 Z" fill="black" />
  </g>
  <g class="defect" id="01">
    <path d="M 487 479 Q 288 507 162 497" fill="none" stroke="red" stroke-width="3" />
  </g>
  <g class="defect" id="02">
    <path d="M 173 291 Q 190 278 181 271" fill="none" stroke="red" stroke-width="3" />
  </g>
</svg>