<svg xmlns="http://www.w3.org/2000/svg" width="512" height="512" viewBox="0 0 512 512">
  <g class="glyph">
    <path d="M 310 219 Q 313 227 310 235 Q 300 259 290 282 Q 333 276 396 271 Q 431 269 449 284 Q 470 299 466 343 Q 461 405 449 456 Q 442 491 423 502 Q 406 512 371 504 Q 338 496 305 481 Q 295 477 293 468 Q 290 459 293 449 Q 295 440 303 434 Q 310 428 318 431 Q 349 446 373 453 Q 388 458 392 442 Q 418 410 407 349 Q 409 335 403 328 Q 398 322 385 323 Q 322 329 265 339 Q 249 373 220 437 Q 215 448 202 450 Q 192 452 180 447 Q 169 443 164 435 Q 159 426 165 412 Q 194 344 252 215 L 253 214 Q 220 211 187 208 Q 161 206 165 176 Q 166 166 173 160 Q 181 153 194 154 Q 282 161 469 178 Q 480 179 486 188 Q 491 195 490 206 Q 489 218 483 224 Q 476 232 463 232 Q 386 226 310 219 Z M 309 63 Q 376 55 443 48 Q 455 47 462 53 Q 468 59 469 70 Q 471 82 466 90 Q 461 99 449 101 Q 287 122 91 141 Q 80 143 73 135 Q 66 128 65 116 Q 64 105 69 98 Q 76 90 88 89 Q 149 81 245 69 Q 236 53 227 36 Q 222 26 228 17 Q 234 9 246 5 Q 257 0 269 2 Q 281 5 287 14 Q 300 35 307 51 Q 310 57 309 63 Z M 77 238 Q 83 197 86 176 Q 88 164 98 159 Q 108 155 121 156 Q 132 157 140 164 Q 147 171 147 181 Q 130 325 110 467 Q 109 478 98 483 Q 89 488 76 486 Q 63 485 56 479 Q 48 472 49 461 Q 53 430 59 377 Q 45 384 30 388 Q 10 391 4 369 Q 1 359 3 350 Q 6 340 15 336 Q 48 320 67 313 Q 69 301 73 267 Q 73 267 68 270 Q 46 259 49 274 Q 39 273 34 263 Q 16 226 4 198 Q 0 188 4 180 Q 7 173 16 168 Q 26 164 34 165 Q 43 166 48 175 Q 64 206 77 238 Z" fill="black" />
  </g>
  <g class="defect" id="01">
    <path d="M 68 270 Q 46 259 49 274" fill="none" stroke="red" stroke-width="3" />
  </g>
  <g class="defect" id="02">
    <path d="M 392 442 Q 418 410 407 349" fill="none" stroke="red" stroke-width="3" />
  </g>
</svg>