<svg xmlns="http://www.w3.org/2000/svg" width="512" height="512" viewBox="0 0 512 512">
  <g class="glyph">
    <path d="M 278 408 Q 250 441 212 482 Q 187 500 168 482 Q 160 474 160 463 Q 159 450 170 439 Q 204 398 231 367 Q 243 355 257 356 Q 269 357 278 367 Q 293 385 278 408 Z M 506 444 Q 502 455 492 460 Q 483 464 470 459 Q 442 445 399 418 Q 389 413 387 400 Q 385 389 391 378 Q 402 356 424 362 Q 458 381 492 399 Q 505 406 509 420 Q 512 432 506 444 Z M 288 204 Q 296 216 293 227 Q 291 236 281 243 Q 261 257 243 239 Q 225 216 201 179 Q 194 167 197 156 Q 200 147 211 141 Q 219 135 230 135 Q 241 136 246 143 Q 263 168 288 204 Z M 480 189 Q 464 215 448 236 Q 441 244 430 244 Q 420 244 410 238 Q 387 222 401 200 Q 416 178 433 154 Q 439 146 450 145 Q 460 145 470 150 Q 480 157 484 166 Q 488 177 480 189 Z M 384 63 Q 443 70 472 74 Q 471 76 492 86 Q 498 94 496 106 Q 494 118 488 125 Q 481 132 469 131 Q 440 129 382 123 Q 380 193 377 262 Q 444 253 474 249 Q 488 248 497 255 Q 505 262 506 273 Q 507 285 502 294 Q 496 304 484 306 Q 445 312 374 323 Q 370 418 367 483 Q 367 497 357 504 Q 348 511 336 510 Q 320 510 312 505 Q 302 497 302 480 Q 305 420 308 332 Q 226 343 225 343 Q 212 344 204 338 Q 196 332 195 321 Q 193 309 198 299 Q 204 288 216 286 Q 285 276 310 272 Q 312 216 316 116 Q 288 113 218 104 Q 205 103 198 93 Q 192 84 193 72 Q 194 61 201 55 Q 210 46 222 47 Q 286 53 319 56 Q 319 45 320 25 Q 321 12 331 6 Q 340 0 353 0 Q 367 0 376 6 Q 386 13 385 25 Q 385 44 384 63 Z M 133 260 Q 133 245 131 232 Q 124 181 101 150 Q 93 127 113 117 Q 135 105 149 126 Q 179 162 185 230 Q 190 278 181 329 Q 174 369 153 392 Q 133 414 104 417 Q 73 420 48 397 Q 24 375 15 338 Q 0 281 3 210 Q 10 129 50 79 Q 57 68 67 67 Q 77 66 86 73 Q 105 86 94 107 Q 69 143 60 188 Q 63 187 80 180 Q 98 174 106 192 Q 114 213 95 222 Q 90 225 56 238 Q 57 289 68 322 Q 73 342 82 352 Q 90 361 100 360 Q 120 357 129 317 Q 130 312 131 306 Q 101 298 87 293 Q 77 290 75 282 Q 72 274 75 266 Q 81 247 98 251 Q 111 254 133 260 Z" fill="black" />
  </g>
  <g class="defect" id="01">
    <path d="M 472 74 Q 471 76 492 86" fill="none" stroke="red" stroke-width="3" />
  </g>
</svg>