<svg xmlns="http://www.w3.org/2000/svg" width="512" height="512" viewBox="0 0 512 512">
  <g class="glyph">
    <path d="M 197 350 Q 196 390 180 416 Q 155 453 104 454 Q 55 456 34 425 Q 16 402 18 355 Q 19 333 45 332 Q 75 330 75 351 Q 73 370 77 383 Q 84 400 103 400 Q 124 399 133 379 Q 139 364 137 346 Q 136 322 123 311 Q 110 301 88 305 Q 65 308 49 316 Q 20 328 11 300 Q 3 272 28 263 Q 58 249 90 248 Q 140 244 168 270 Q 197 297 197 350 Z M 298 372 Q 274 415 245 458 Q 238 469 227 471 Q 216 473 206 467 Q 196 442 195 429 Q 221 388 247 346 Q 254 335 266 333 Q 276 330 286 336 Q 309 349 298 372 Z M 505 424 Q 499 433 489 436 Q 479 439 469 431 Q 441 409 412 384 Q 394 367 408 347 Q 422 327 441 337 Q 470 361 498 384 Q 510 393 511 405 Q 512 415 505 424 Z M 489 80 Q 486 92 478 99 Q 469 107 457 104 Q 356 87 224 61 Q 198 56 200 29 Q 202 16 210 9 Q 219 0 235 2 Q 374 26 465 45 Q 485 49 489 65 Q 491 73 489 80 Z M 400 234 Q 430 226 471 215 Q 500 207 506 233 Q 509 244 505 255 Q 501 265 491 268 Q 457 277 400 290 Q 399 374 396 434 Q 394 468 375 482 Q 358 494 327 488 Q 307 484 282 469 Q 267 461 276 436 Q 279 425 285 419 Q 292 413 300 416 Q 310 423 322 428 Q 328 430 332 428 Q 356 405 337 417 Q 340 357 340 304 Q 322 307 314 309 Q 273 315 252 304 Q 228 292 218 252 Q 208 206 200 128 Q 200 116 207 108 Q 215 100 225 99 Q 238 97 247 101 Q 258 107 259 120 Q 265 184 273 231 Q 276 247 285 252 Q 293 256 308 253 Q 318 252 339 247 Q 339 213 337 142 Q 337 131 346 124 Q 354 118 367 117 Q 380 116 389 122 Q 399 129 399 143 Q 400 189 400 234 Z M 136 106 Q 138 116 132 126 Q 104 174 60 234 Q 51 245 38 245 Q 26 245 17 236 Q 13 219 15 198 Q 42 157 69 116 Q 54 118 39 120 Q 26 122 19 113 Q 13 106 11 93 Q 8 67 30 62 Q 85 51 166 40 Q 179 39 187 47 Q 193 54 194 67 Q 195 79 191 87 Q 186 97 175 99 Q 156 103 136 106 Z" fill="black" />
  </g>
  <g class="defect" id="01">
    <path d="M 206 467 Q 196 442 195 429" fill="none" stroke="red" stroke-width="3" />
  </g>
  <g class="defect" id="02">
    <path d="M 17 236 Q 13 219 15 198" fill="none" stroke="red" stroke-width="3" />
  </g>
  <g class="defect" id="03">
    <path d="M 332 428 Q 356 405 337 417" fill="none" stroke="red" stroke-width="3" />
  </g>
</svg>