<svg xmlns="http://www.w3.org/2000/svg" width="512" height="512" viewBox="0 0 512 512">
  <g class="glyph">
    <path d="M 189 344 Q 172 398 169 418 Q 145 453 98 453 Q 51 452 32 423 Q 15 398 17 352 Q 17 330 44 329 Q 72 327 72 349 Q 70 368 75 380 Q 81 397 97 397 Q 112 397 122 383 Q 132 368 132 346 Q 132 322 120 310 Q 107 298 84 300 Q 69 301 46 311 Q 33 316 23 311 Q 14 306 11 295 Q 7 285 11 275 Q 15 264 27 259 Q 54 247 87 244 Q 131 241 159 265 Q 189 291 189 344 Z M 292 427 Q 302 435 302 448 Q 302 459 294 469 Q 281 487 260 478 Q 244 459 204 432 Q 190 417 202 396 Q 208 385 218 381 Q 229 376 239 383 Q 272 409 292 427 Z M 454 270 Q 453 286 452 295 Q 465 294 490 292 Q 501 292 506 299 Q 510 304 511 315 Q 512 340 493 341 Q 470 343 447 345 Q 439 413 435 442 Q 429 474 415 483 Q 398 494 372 484 Q 341 472 321 460 Q 313 456 312 445 Q 311 435 316 424 Q 320 415 326 410 Q 333 405 340 409 Q 350 416 364 422 Q 373 425 374 416 Q 378 394 383 350 Q 318 355 221 361 Q 209 362 204 356 Q 200 351 198 341 Q 195 314 216 312 Q 314 303 388 299 Q 390 278 391 268 Q 294 265 209 261 Q 189 261 191 238 Q 192 229 196 224 Q 201 218 209 219 Q 392 224 478 228 Q 497 229 497 249 Q 497 259 493 264 Q 487 271 478 271 Q 466 271 454 270 Z M 430 112 Q 358 123 304 127 Q 290 128 289 113 Q 288 96 300 95 Q 329 91 425 80 Q 419 68 407 63 Q 392 57 366 57 Q 345 57 321 61 Q 310 64 303 57 Q 298 52 296 41 Q 294 17 314 13 Q 351 5 393 8 Q 433 12 456 27 Q 505 62 492 100 Q 492 158 443 185 Q 405 204 343 205 Q 264 207 230 175 Q 191 144 201 79 Q 208 40 229 10 Q 237 1 248 1 Q 259 0 268 6 Q 279 13 283 22 Q 287 34 279 46 Q 265 67 261 91 Q 256 127 280 143 Q 300 155 341 155 Q 381 155 407 143 Q 425 135 430 112 Z M 130 119 Q 96 179 60 227 Q 50 239 38 240 Q 26 241 17 232 Q 0 218 13 193 Q 40 150 70 105 Q 49 100 27 95 Q 12 91 9 75 Q 8 69 10 61 Q 12 50 19 43 Q 28 36 39 38 Q 105 52 171 68 Q 183 71 187 83 Q 191 93 188 105 Q 182 126 159 125 Q 149 123 130 119 Z" fill="black" />
  </g>
  <g class="defect" id="01">
    <path d="M 260 478 Q 244 459 204 432" fill="none" stroke="red" stroke-width="3" />
  </g>
  <g class="defect" id="02">
    <path d="M 456 27 Q 505 62 492 100" fill="none" stroke="red" stroke-width="3" />
  </g>
  <g class="defect" id="03">
    <path d="M 189 344 Q 172 398 169 418" fill="none" stroke="red" stroke-width="3" />
  </g>
</svg>