<svg xmlns="http://www.w3.org/2000/svg" width="512" height="512" viewBox="0 0 512 512">
  <g class="glyph">
    <path d="M 420 392 Q 344 390 241 385 Q 234 384 231 379 Q 227 375 228 369 Q 229 356 241 357 Q 344 361 411 365 Q 419 336 378 340 Q 358 334 323 334 Q 284 333 254 339 Q 230 343 228 320 Q 225 298 245 295 Q 285 287 337 287 Q 392 289 426 306 Q 482 333 480 399 Q 477 433 458 457 Q 440 480 409 491 Q 367 508 291 510 Q 201 512 163 484 Q 126 458 125 396 Q 126 334 158 297 Q 173 280 197 292 Q 208 297 212 308 Q 216 319 208 331 Q 190 356 188 386 Q 187 404 191 417 Q 235 413 363 405 Q 376 405 378 416 Q 379 425 373 429 Q 369 432 366 432 Q 287 438 207 444 Q 208 445 209 446 Q 227 464 290 464 Q 350 464 379 450 Q 418 435 420 392 Z M 372 58 Q 417 61 462 63 Q 485 64 485 85 Q 486 94 480 101 Q 474 109 464 109 Q 323 103 274 101 Q 274 104 271 109 Q 258 127 251 137 Q 307 136 431 136 Q 442 137 448 143 Q 451 147 452 157 Q 452 166 447 172 Q 442 178 433 178 Q 358 179 219 180 Q 208 196 196 211 Q 342 215 486 219 Q 508 220 509 242 Q 510 251 504 258 Q 498 266 488 266 Q 278 261 163 256 Q 87 359 58 398 Q 50 410 36 412 Q 23 413 14 406 Q 4 399 2 389 Q -12 377 9 365 Q 50 309 90 254 Q 61 253 32 252 Q 37 251 15 244 Q 11 238 11 228 Q 11 218 15 212 Q 21 205 32 206 Q 78 207 124 208 Q 134 194 145 180 H 84 Q 65 179 64 160 Q 64 147 72 141 Q 76 138 83 138 Q 116 137 176 137 Q 191 117 206 97 Q 117 93 57 90 Q 45 90 40 83 Q 35 77 35 67 Q 36 57 41 51 Q 46 44 57 45 Q 100 47 145 48 Q 143 45 140 37 Q 133 21 158 10 Q 171 4 182 5 Q 195 6 201 17 Q 211 32 218 49 Q 219 51 219 52 Q 261 54 301 55 Q 301 52 303 49 Q 313 31 323 13 Q 329 4 340 2 Q 350 0 362 5 Q 389 14 384 32 Q 378 47 372 58 Z" fill="black" />
  </g>
  <g class="defect" id="01">
    <path d="M 2 389 Q -12 377 9 365" fill="none" stroke="red" stroke-width="3" />
  </g>
  <g class="defect" id="02">
    <path d="M 32 252 Q 37 251 15 244" fill="none" stroke="red" stroke-width="3" />
  </g>
  <g class="defect" id="03">
    <path d="M 411 365 Q 419 336 378 340" fill="none" stroke="red" stroke-width="3" />
  </g>
</svg>