<svg xmlns="http://www.w3.org/2000/svg" width="512" height="512" viewBox="0 0 512 512">
  <g class="glyph">
    <path d="M 192 336 Q 191 377 174 402 Q 151 440 102 441 Q 55 441 34 410 Q 16 386 19 341 Q 19 320 46 319 Q 75 316 75 338 Q 74 357 77 369 Q 83 386 100 386 Q 119 385 127 364 Q 132 352 131 336 Q 131 312 118 300 Q 107 290 85 292 Q 68 294 48 302 Q 19 315 12 287 Q 2 259 29 249 Q 61 234 97 234 Q 138 234 163 258 Q 193 286 192 336 Z M 307 205 Q 308 212 306 218 Q 303 225 296 226 Q 263 234 233 236 Q 218 235 216 221 Q 214 204 227 199 Q 250 194 289 189 Q 305 191 307 205 Z M 484 226 Q 480 241 465 240 Q 436 234 405 225 Q 389 220 391 203 Q 395 188 409 188 Q 439 194 472 203 Q 479 205 482 212 Q 485 218 484 226 Z M 448 162 Q 444 166 438 168 Q 433 170 408 172 Q 402 173 398 168 Q 394 163 394 156 Q 393 150 395 144 Q 398 139 404 138 Q 418 135 435 133 Q 441 132 444 135 Q 447 128 448 121 Q 449 117 447 115 Q 445 112 441 113 Q 414 114 386 116 Q 381 188 377 217 Q 375 229 366 234 Q 358 238 346 238 Q 335 237 327 232 Q 319 225 319 215 Q 321 187 326 122 Q 302 124 291 126 Q 280 127 274 121 Q 269 115 268 107 Q 267 98 272 92 Q 277 84 287 84 Q 300 82 330 80 Q 331 67 333 47 Q 283 44 242 42 Q 230 42 224 35 Q 218 28 219 20 Q 220 2 242 0 Q 344 3 467 10 Q 478 11 484 18 Q 489 23 489 32 Q 488 49 468 51 Q 424 50 391 49 Q 391 61 390 75 Q 415 73 463 71 Q 493 70 503 84 Q 512 96 506 118 Q 501 140 494 157 Q 485 173 461 168 Q 453 167 448 162 Z M 441 341 Q 437 319 419 308 Q 402 297 373 295 Q 381 325 382 335 Q 412 338 441 341 Z M 439 373 Q 415 370 390 368 Q 394 389 399 410 Q 413 406 422 398 Q 434 389 439 373 Z M 360 415 Q 355 390 349 364 Q 328 362 314 361 Q 279 358 301 344 Q 303 329 318 329 Q 336 331 342 332 Q 338 313 336 302 Q 335 300 335 296 Q 295 302 247 320 Q 224 327 216 308 Q 211 299 215 289 Q 220 278 233 274 Q 291 253 344 250 Q 417 245 460 272 Q 499 298 500 350 Q 502 408 455 437 Q 418 460 360 460 Q 294 461 260 433 Q 227 408 227 353 Q 226 341 236 334 Q 243 328 256 328 Q 269 328 279 333 Q 289 338 290 347 Q 288 382 304 397 Q 320 415 360 415 Z M 261 137 Q 265 135 269 135 Q 283 137 304 141 Q 317 144 315 161 Q 313 168 309 172 Q 304 177 297 176 Q 267 170 263 169 Q 256 167 253 161 Q 247 165 240 168 Q 229 171 220 168 Q 209 164 207 154 Q 200 132 194 104 Q 192 94 198 87 Q 203 81 213 77 Q 225 73 235 77 Q 246 80 249 90 Q 255 114 261 137 Z M 142 86 Q 148 98 139 110 Q 117 145 65 218 Q 55 230 42 231 Q 28 232 19 222 Q 0 205 15 183 Q 40 145 76 94 Q 66 96 43 98 Q 28 99 21 90 Q 16 83 15 69 Q 13 42 36 39 Q 61 35 164 24 Q 189 21 191 51 Q 193 79 170 82 Q 156 84 142 86 Z" fill="black" />
  </g>
  <g class="defect" id="01">
    <path d="M 314 361 Q 279 358 301 344" fill="none" stroke="red" stroke-width="3" />
  </g>
</svg>