<svg xmlns="http://www.w3.org/2000/svg" width="512" height="512" viewBox="0 0 512 512">
  <g class="glyph">
    <path d="M 178 364 Q 178 407 159 438 Q 136 472 90 472 Q 44 471 26 442 Q 9 418 11 372 Q 12 351 38 349 Q 65 347 65 369 Q 64 389 67 400 Q 74 418 89 417 Q 103 418 113 403 Q 123 386 123 364 Q 122 339 107 328 Q 95 318 72 320 Q 68 333 39 331 Q 27 336 17 331 Q 9 327 5 316 Q 2 306 5 296 Q 9 285 20 280 Q 49 267 80 265 Q 122 263 149 286 Q 178 312 178 364 Z M 297 116 Q 306 123 307 132 Q 309 142 299 152 Q 242 202 210 228 Q 199 236 186 236 Q 175 235 167 227 Q 160 219 160 209 Q 160 197 169 189 Q 211 151 253 117 Q 277 99 297 116 Z M 498 189 Q 494 199 487 203 Q 478 209 467 205 Q 414 186 362 166 Q 352 162 348 152 Q 346 143 349 132 Q 356 113 378 116 Q 430 133 485 155 Q 496 160 499 170 Q 502 179 498 189 Z M 444 411 Q 465 426 492 446 Q 512 461 497 483 Q 490 492 481 495 Q 470 498 459 490 Q 410 456 344 409 Q 335 402 335 392 Q 335 382 341 374 Q 356 354 376 364 Q 388 372 399 380 Q 449 338 455 334 Q 472 322 488 338 Q 496 346 497 354 Q 498 364 488 373 Q 484 377 444 411 Z M 420 301 Q 417 304 410 306 Q 319 318 261 324 Q 224 326 215 302 Q 207 279 227 256 Q 270 211 314 184 Q 338 170 352 189 Q 359 197 358 205 Q 357 214 350 219 Q 319 238 285 269 Q 282 271 283 274 Q 284 277 287 277 Q 334 272 388 263 Q 381 255 374 247 Q 368 238 371 229 Q 373 221 382 214 Q 391 209 401 209 Q 413 210 421 219 Q 443 242 475 282 Q 487 304 472 315 Q 464 323 452 323 Q 440 323 432 314 Q 426 307 420 301 Z M 379 59 Q 435 66 479 73 Q 490 74 496 82 Q 501 90 500 99 Q 497 120 477 121 Q 360 109 202 88 Q 192 86 186 77 Q 181 70 183 60 Q 184 51 190 45 Q 198 38 207 39 Q 277 47 306 50 Q 302 41 298 31 Q 295 9 322 2 Q 335 0 346 3 Q 357 7 361 18 Q 370 39 379 59 Z M 303 385 Q 310 392 307 404 Q 299 431 297 449 Q 297 455 299 457 Q 301 459 307 458 Q 321 456 350 446 Q 366 444 372 464 Q 376 477 369 486 Q 365 491 358 493 Q 326 503 291 507 Q 262 510 248 498 Q 232 485 235 455 Q 239 432 243 414 Q 228 421 214 427 Q 192 434 182 411 Q 178 401 180 392 Q 182 382 192 377 Q 238 355 298 328 Q 308 324 318 328 Q 327 332 332 342 Q 337 351 335 360 Q 334 371 323 375 Q 314 380 303 385 Z M 125 134 Q 125 135 122 140 Q 90 195 54 249 Q 45 260 33 261 Q 22 262 13 255 Q 5 248 2 239 Q 0 227 7 215 Q 27 181 55 138 Q 43 139 31 139 Q 7 139 6 109 Q 7 97 11 90 Q 16 81 28 80 Q 97 74 150 73 Q 176 73 176 102 Q 176 118 166 127 Q 161 132 154 132 Q 144 133 125 134 Z" fill="black" />
  </g>
  <g class="defect" id="01">
    <path d="M 410 306 Q 319 318 261 324" fill="none" stroke="red" stroke-width="3" />
  </g>
  <g class="defect" id="02">
    <path d="M 72 320 Q 68 333 39 331" fill="none" stroke="red" stroke-width="3" />
  </g>
</svg>