<svg xmlns="http://www.w3.org/2000/svg" width="512" height="512" viewBox="0 0 512 512">
  <g class="glyph">
    <path d="M 212 384 Q 216 395 212 406 Q 208 417 198 421 Q 65 464 35 473 Q 23 476 14 469 Q 6 463 3 452 Q 0 441 4 431 Q 8 421 19 417 Q 104 389 179 367 Q 177 364 201 369 Q 208 374 212 384 Z M 383 323 Q 434 380 485 437 Q 505 461 482 482 Q 471 491 460 491 Q 447 492 437 482 Q 395 436 345 379 Q 297 449 272 485 Q 254 512 226 492 Q 201 477 217 452 Q 258 390 299 329 Q 266 291 241 262 Q 224 242 245 221 Q 270 199 291 222 Q 314 248 337 273 Q 354 246 406 170 Q 414 159 428 159 Q 440 159 451 166 Q 474 184 461 204 Q 407 285 383 323 Z M 380 83 Q 437 75 464 70 Q 479 68 486 77 Q 491 82 493 95 Q 495 108 492 117 Q 474 143 475 131 Q 384 147 231 170 Q 207 174 202 145 Q 201 132 204 123 Q 209 112 222 110 Q 256 104 314 94 Q 294 58 285 39 Q 280 28 285 18 Q 290 10 302 5 Q 314 0 326 2 Q 339 5 346 16 Q 361 40 378 76 Q 380 80 380 83 Z M 104 175 Q 122 157 139 140 Q 162 124 180 141 Q 188 149 189 160 Q 189 172 179 181 Q 130 229 81 276 Q 75 281 77 286 Q 80 290 88 288 Q 111 286 173 274 Q 184 272 191 278 Q 197 284 198 295 Q 200 306 196 314 Q 192 324 183 326 Q 128 338 71 345 Q 20 348 9 318 Q 4 305 7 288 Q 11 270 24 256 Q 48 231 60 219 Q 54 218 49 216 Q 11 206 6 176 Q 2 151 25 117 Q 60 69 83 41 Q 91 31 103 29 Q 114 28 122 34 Q 132 41 134 51 Q 137 63 127 74 Q 78 135 66 151 Q 62 157 63 161 Q 64 165 71 166 Q 88 171 104 175 Z" fill="black" />
  </g>
  <g class="defect" id="01">
    <path d="M 492 117 Q 474 143 475 131" fill="none" stroke="red" stroke-width="3" />
  </g>
  <g class="defect" id="02">
    <path d="M 179 367 Q 177 364 201 369" fill="none" stroke="red" stroke-width="3" />
  </g>
</svg>