<svg xmlns="http://www.w3.org/2000/svg" width="512" height="512" viewBox="0 0 512 512">
  <g class="glyph">
    <path d="M 201 377 Q 204 388 201 398 Q 197 409 185 412 Q 114 435 37 457 Q 24 460 15 452 Q 7 445 5 433 Q 3 421 7 413 Q 12 403 23 400 Q 68 387 168 356 Q 193 349 201 377 Z M 262 407 Q 270 415 272 424 Q 273 435 265 443 Q 235 468 216 482 Q 195 496 178 479 Q 171 471 171 462 Q 170 451 179 443 Q 208 420 228 404 Q 246 391 262 407 Z M 509 461 Q 503 481 480 479 Q 427 463 413 458 Q 390 451 394 428 Q 395 418 403 411 Q 411 404 421 406 Q 456 417 491 427 Q 521 430 507 441 Q 512 450 509 461 Z M 436 359 Q 416 364 374 374 Q 375 377 375 378 Q 381 404 385 444 Q 387 475 371 486 Q 358 496 326 492 Q 298 487 288 484 Q 272 478 274 457 Q 276 448 281 441 Q 287 434 295 436 Q 307 442 312 443 Q 318 446 321 443 Q 323 440 322 432 Q 320 407 315 389 Q 315 387 314 386 Q 285 390 273 391 Q 227 395 214 368 Q 207 356 211 341 Q 215 324 232 313 Q 242 306 243 305 Q 239 304 234 303 Q 205 293 201 270 Q 198 249 220 229 Q 236 216 263 197 Q 238 190 223 178 Q 195 155 195 109 Q 195 99 203 92 Q 210 86 223 85 Q 243 84 253 92 Q 259 97 259 104 Q 257 129 273 142 Q 285 156 322 160 Q 323 130 325 119 Q 306 117 287 115 Q 280 114 277 108 Q 273 103 274 97 Q 276 83 291 84 Q 302 85 326 87 Q 327 68 328 55 Q 326 55 322 55 Q 251 60 201 77 Q 177 82 171 62 Q 170 53 173 45 Q 177 36 187 33 Q 244 14 321 10 Q 405 5 449 31 Q 491 57 492 108 Q 493 167 436 190 Q 393 206 333 204 Q 332 213 321 219 Q 291 235 268 255 Q 263 258 264 261 Q 265 263 272 265 Q 274 265 303 269 Q 344 245 394 220 Q 421 209 431 228 Q 436 237 434 246 Q 431 257 421 261 Q 336 302 284 335 Q 278 338 280 342 Q 282 345 289 345 Q 345 337 411 319 Q 409 315 407 312 Q 401 294 419 282 Q 439 272 452 285 Q 478 324 495 353 Q 500 363 496 372 Q 493 381 484 386 Q 475 391 466 391 Q 457 390 451 383 Q 446 375 436 359 Z M 432 99 Q 428 80 411 68 Q 397 58 369 55 Q 368 80 367 91 Q 409 95 432 99 Z M 429 130 Q 411 128 365 123 Q 364 141 363 159 Q 394 156 409 148 Q 424 140 429 130 Z M 93 155 Q 122 123 135 109 Q 153 90 173 106 Q 183 113 185 123 Q 187 135 178 145 Q 116 206 78 261 Q 73 268 75 271 Q 77 275 86 273 Q 143 263 157 252 Q 168 247 176 253 Q 183 258 187 270 Q 194 294 176 302 Q 129 320 83 331 Q 59 338 40 331 Q 22 325 14 308 Q 0 280 25 241 Q 38 222 54 202 Q 13 190 7 163 Q 2 138 17 110 Q 41 59 73 14 Q 81 2 93 1 Q 103 0 114 6 Q 123 12 127 22 Q 130 34 123 44 Q 91 86 68 128 Q 58 147 79 152 Q 86 155 93 155 Z" fill="black" />
  </g>
  <g class="defect" id="01">
    <path d="M 491 427 Q 521 430 507 441" fill="none" stroke="red" stroke-width="3" />
  </g>
  <g class="defect" id="02">
    <path d="M 86 273 Q 143 263 157 252" fill="none" stroke="red" stroke-width="3" />
  </g>
</svg>