<svg xmlns="http://www.w3.org/2000/svg" width="512" height="512" viewBox="0 0 512 512">
  <g class="glyph">
    <path d="M 197 394 Q 200 405 196 415 Q 192 427 181 430 Q 132 447 35 475 Q 22 478 14 471 Q 6 464 4 452 Q 0 426 22 418 Q 101 392 165 374 Q 178 371 186 378 Q 194 383 197 394 Z M 275 382 Q 278 406 252 410 Q 241 412 233 408 Q 222 403 220 390 Q 215 355 211 320 Q 211 298 234 294 Q 246 292 255 297 Q 265 302 267 313 Q 270 335 275 382 Z M 390 355 Q 367 394 302 498 Q 294 510 282 511 Q 271 512 262 505 Q 252 499 249 490 Q 246 479 253 467 Q 293 401 341 326 Q 348 315 360 314 Q 370 313 380 319 Q 401 333 390 355 Z M 502 440 Q 510 458 497 468 Q 461 489 427 499 Q 399 506 387 501 Q 371 495 365 471 Q 358 441 357 433 Q 354 412 380 406 Q 398 402 408 408 Q 414 411 414 418 Q 419 445 420 447 Q 423 459 436 453 Q 455 445 477 432 Q 494 425 502 440 Z M 487 314 Q 485 351 478 379 Q 477 392 467 398 Q 459 404 447 403 Q 420 402 429 395 Q 421 388 423 377 Q 429 348 431 315 Q 433 301 426 295 Q 421 290 406 289 Q 318 281 222 279 Q 211 279 205 271 Q 200 265 200 254 Q 182 243 206 237 Q 213 229 224 229 Q 319 230 419 239 Q 465 243 477 258 Q 491 273 487 314 Z M 249 177 Q 249 190 242 197 Q 236 203 226 203 Q 202 206 200 185 Q 196 149 189 60 Q 187 47 195 40 Q 201 34 213 34 Q 235 33 237 53 Q 245 126 249 177 Z M 335 26 Q 334 99 330 193 Q 330 206 321 212 Q 313 218 302 218 Q 290 218 282 212 Q 273 205 273 194 Q 277 64 279 26 Q 262 33 288 7 Q 296 1 309 1 Q 321 1 328 7 Q 336 14 335 26 Z M 490 211 Q 486 222 479 227 Q 470 234 460 230 Q 406 206 394 199 Q 381 194 378 183 Q 376 174 381 163 Q 390 145 411 148 Q 446 163 475 178 Q 497 187 490 211 Z M 426 54 Q 448 48 473 41 Q 497 35 504 59 Q 511 87 490 94 Q 436 111 410 118 Q 409 122 407 130 Q 403 145 391 149 Q 381 153 368 149 Q 357 146 353 141 Q 348 134 350 121 Q 363 70 376 19 Q 379 8 389 3 Q 398 0 409 2 Q 421 4 427 11 Q 434 19 431 32 Q 429 44 426 54 Z M 96 175 Q 111 157 131 136 Q 149 117 169 133 Q 179 141 181 150 Q 183 162 174 171 Q 120 225 78 281 Q 73 288 75 291 Q 77 295 86 293 Q 106 288 156 272 Q 167 267 176 273 Q 183 278 187 290 Q 190 301 188 309 Q 185 319 175 322 Q 124 341 82 351 Q 31 362 16 329 Q 0 298 25 261 Q 41 240 56 222 Q 54 222 53 222 Q 13 210 7 182 Q 4 160 16 130 Q 39 77 68 35 Q 75 23 87 22 Q 97 21 107 27 Q 117 34 120 43 Q 123 54 115 65 Q 85 108 67 148 Q 58 167 78 172 Q 87 174 96 175 Z" fill="black" />
  </g>
  <g class="defect" id="01">
    <path d="M 279 26 Q 262 33 288 7" fill="none" stroke="red" stroke-width="3" />
  </g>
  <g class="defect" id="02">
    <path d="M 200 254 Q 182 243 206 237" fill="none" stroke="red" stroke-width="3" />
  </g>
  <g class="defect" id="03">
    <path d="M 447 403 Q 420 402 429 395" fill="none" stroke="red" stroke-width="3" />
  </g>
</svg>