<svg xmlns="http://www.w3.org/2000/svg" width="512" height="512" viewBox="0 0 512 512">
  <g class="glyph">
    <path d="M 180 378 Q 188 390 187 401 Q 186 414 176 421 Q 92 475 50 499 Q 23 512 10 490 Q 5 480 5 470 Q 6 458 14 453 Q 81 407 141 371 Q 164 358 180 378 Z M 492 490 Q 486 500 475 503 Q 464 507 452 499 Q 358 442 327 421 Q 316 414 315 401 Q 315 390 323 378 Q 338 357 362 371 Q 447 424 488 453 Q 497 458 497 470 Q 498 480 492 490 Z M 286 339 Q 289 403 293 480 Q 293 494 283 502 Q 272 510 257 511 Q 227 511 225 484 Q 221 424 216 336 Q 120 332 25 327 Q 0 326 1 301 Q 3 274 29 275 Q 151 278 213 280 Q 212 261 209 223 Q 146 227 83 231 Q 70 231 64 225 Q 60 220 59 210 Q 74 168 84 184 Q 125 181 207 175 Q 205 145 204 115 Q 157 112 49 104 Q 26 101 28 77 Q 41 29 55 51 Q 150 57 201 60 Q 201 45 200 29 Q 199 17 209 9 Q 217 2 232 1 Q 246 0 256 6 Q 267 11 268 22 Q 269 43 271 65 Q 313 68 451 78 Q 459 78 465 83 Q 471 89 470 105 Q 469 117 464 123 Q 458 131 445 130 Q 359 126 274 120 Q 275 137 277 170 Q 343 166 408 162 Q 419 162 424 168 Q 428 173 430 182 Q 432 208 407 209 Q 343 213 279 218 Q 281 240 283 283 Q 415 289 476 292 Q 499 293 497 320 Q 494 346 471 345 Q 410 343 286 339 Z" fill="black" />
  </g>
  <g class="defect" id="01">
    <path d="M 28 77 Q 41 29 55 51" fill="none" stroke="red" stroke-width="3" />
  </g>
  <g class="defect" id="02">
    <path d="M 59 210 Q 74 168 84 184" fill="none" stroke="red" stroke-width="3" />
  </g>
</svg>