<svg xmlns="http://www.w3.org/2000/svg" width="512" height="512" viewBox="0 0 512 512">
  <g class="glyph">
    <path d="M 456 301 Q 448 323 415 340 Q 384 358 283 363 Q 284 372 284 381 Q 367 382 426 383 Q 438 383 439 394 Q 439 409 427 409 Q 331 409 285 409 Q 286 418 287 427 Q 427 422 477 420 Q 494 419 497 434 Q 498 441 493 448 Q 488 455 480 455 Q 415 458 288 463 Q 289 476 289 488 Q 290 498 280 505 Q 271 511 258 511 Q 246 512 237 507 Q 228 502 228 492 Q 227 475 226 466 Q 38 474 21 474 Q 3 475 1 458 Q 0 452 5 446 Q 10 439 18 439 Q 121 435 224 429 Q 223 423 222 408 Q 171 408 70 407 Q 57 407 56 393 Q 56 379 70 379 Q 119 379 220 380 Q 220 375 219 365 Q 129 363 81 352 Q 67 348 71 333 Q 86 304 91 322 Q 138 332 218 335 Q 217 325 216 307 Q 114 309 21 310 Q 14 310 9 303 Q 6 298 5 290 Q 16 288 19 272 Q 83 270 214 267 Q 214 255 212 242 Q 133 247 98 258 Q 82 263 77 249 Q 70 233 86 230 Q 140 216 211 212 Q 211 207 211 202 Q 210 192 220 186 Q 229 181 242 180 Q 271 179 273 198 Q 274 205 274 210 Q 302 210 315 211 Q 307 209 302 203 Q 297 197 297 188 Q 297 179 303 175 Q 314 168 324 160 Q 316 158 303 153 Q 293 149 290 140 Q 288 133 293 124 Q 301 105 322 111 Q 339 118 373 130 Q 412 107 418 103 Q 424 100 430 98 Q 381 90 324 79 Q 317 88 310 96 Q 292 114 272 102 Q 262 96 259 88 Q 256 77 263 67 Q 283 42 301 17 Q 320 0 341 11 Q 358 20 352 40 Q 426 51 476 62 Q 486 64 490 72 Q 494 79 492 88 Q 488 105 466 104 Q 459 103 451 102 Q 453 103 455 105 Q 462 112 462 120 Q 462 129 453 135 Q 444 140 428 150 Q 454 160 479 170 Q 488 173 490 182 Q 492 189 489 198 Q 482 218 457 210 Q 418 196 378 181 Q 352 197 339 205 Q 331 210 323 211 Q 382 214 409 224 Q 444 236 455 263 Q 463 262 479 262 Q 488 262 493 268 Q 496 272 497 280 Q 498 299 481 300 Q 469 300 456 301 Z M 396 264 Q 388 251 368 245 Q 342 237 275 239 Q 276 252 277 266 Q 315 265 396 264 Z M 396 302 Q 323 305 280 305 Q 281 320 281 334 Q 352 331 375 320 Q 388 314 396 302 Z M 162 53 Q 192 55 207 59 Q 228 64 239 82 Q 249 98 249 119 Q 250 138 241 153 Q 231 170 212 175 Q 166 204 124 185 Q 92 183 73 179 Q 70 205 68 220 Q 64 242 40 242 Q 29 242 21 236 Q 13 229 14 217 Q 18 167 23 129 Q 25 115 41 112 Q 48 111 55 112 Q 66 113 71 118 Q 77 124 77 132 Q 77 137 76 141 Q 98 146 125 146 Q 155 147 178 142 Q 194 138 195 122 Q 196 114 191 107 Q 186 100 177 99 Q 147 96 112 98 Q 69 99 36 106 Q 12 109 10 86 Q 9 77 14 70 Q 19 62 28 60 Q 50 56 101 54 Q 99 47 96 33 Q 95 13 119 9 Q 130 6 140 10 Q 151 14 154 24 Q 159 44 162 53 Z" fill="black" />
  </g>
  <g class="defect" id="01">
    <path d="M 71 333 Q 86 304 91 322" fill="none" stroke="red" stroke-width="3" />
  </g>
  <g class="defect" id="02">
    <path d="M 5 290 Q 16 288 19 272" fill="none" stroke="red" stroke-width="3" />
  </g>
  <g class="defect" id="03">
    <path d="M 212 175 Q 166 204 124 185" fill="none" stroke="red" stroke-width="3" />
  </g>
</svg>