<svg xmlns="http://www.w3.org/2000/svg" width="512" height="512" viewBox="0 0 512 512">
  <g class="glyph">
    <path d="M 313 319 Q 302 377 277 489 Q 274 503 256 507 Q 249 509 241 507 Q 229 505 221 500 Q 211 492 213 479 Q 236 368 249 308 Q 251 299 263 294 Q 274 289 285 291 Q 296 292 305 300 Q 314 308 313 319 Z M 506 455 Q 512 479 500 488 Q 482 498 466 503 Q 439 511 422 503 Q 404 493 400 464 Q 390 357 384 255 Q 383 228 357 235 Q 304 250 238 276 Q 226 281 216 275 Q 207 269 203 258 Q 199 247 203 237 Q 207 225 219 221 Q 293 194 350 181 Q 401 170 424 188 Q 446 207 448 251 Q 451 331 462 440 Q 463 447 470 444 Q 479 440 487 437 Q 493 433 499 438 Q 504 443 506 455 Z M 385 82 Q 432 86 479 91 Q 504 93 503 120 Q 502 135 498 142 Q 492 152 479 151 Q 422 146 217 127 Q 193 124 194 96 Q 195 83 199 75 Q 205 66 219 66 Q 263 70 308 74 Q 301 60 292 39 Q 287 28 293 18 Q 299 10 312 5 Q 324 0 335 2 Q 348 5 354 16 Q 372 49 383 75 Q 384 76 385 82 Z M 137 329 Q 136 329 106 336 Q 96 337 89 331 Q 83 326 82 317 Q 79 303 86 293 Q 89 289 95 287 Q 108 283 133 277 Q 129 223 121 129 Q 120 117 116 114 Q 112 111 100 112 Q 74 116 33 128 Q 20 132 12 124 Q 5 118 2 106 Q 0 95 4 86 Q 8 77 18 73 Q 44 64 97 54 Q 134 48 148 57 Q 169 70 172 110 Q 174 282 197 428 Q 199 461 182 477 Q 164 493 128 486 Q 108 483 77 475 Q 57 469 62 445 Q 67 423 84 424 Q 108 430 124 433 Q 133 434 138 431 Q 142 427 142 418 Q 140 373 137 329 Z M 72 190 Q 80 191 104 198 Q 112 200 115 208 Q 119 216 116 225 Q 114 238 105 245 Q 101 247 96 247 Q 82 244 69 241 Q 64 328 59 383 Q 57 408 28 407 Q 3 406 5 381 Q 17 191 19 162 Q 20 152 28 146 Q 36 141 47 142 Q 58 142 65 148 Q 74 154 74 166 Q 73 178 72 190 Z" fill="black" />
  </g>
  <g class="defect" id="01">
    <path d="M 172 110 Q 174 282 197 428" fill="none" stroke="red" stroke-width="3" />
  </g>
</svg>