<svg xmlns="http://www.w3.org/2000/svg" width="512" height="512" viewBox="0 0 512 512">
  <g class="glyph">
    <path d="M 402 169 Q 425 173 487 182 Q 500 185 506 195 Q 512 204 511 215 Q 509 228 500 235 Q 491 243 476 241 Q 436 236 398 230 Q 395 260 395 276 Q 422 279 445 293 Q 492 319 489 380 Q 467 454 416 476 Q 355 494 301 468 Q 258 447 257 390 Q 257 378 267 370 Q 275 364 288 363 Q 302 362 312 367 Q 322 373 323 384 Q 322 408 338 421 Q 361 439 387 428 Q 416 420 424 380 Q 428 351 406 337 Q 386 324 350 328 Q 317 332 274 353 Q 250 361 243 339 Q 239 328 241 318 Q 243 307 253 302 Q 293 286 327 279 Q 327 260 330 221 Q 310 218 252 209 Q 243 208 237 202 Q 226 191 229 174 Q 233 150 263 150 Q 286 153 333 160 Q 335 140 337 102 Q 339 90 346 83 Q 298 91 282 93 Q 251 94 247 69 Q 245 57 251 47 Q 257 36 272 34 Q 383 14 468 2 Q 482 0 491 8 Q 499 14 502 25 Q 504 38 498 47 Q 492 58 478 61 Q 454 65 387 77 Q 406 84 406 103 Q 403 147 402 169 Z M 204 119 Q 200 214 196 308 Q 222 302 227 328 Q 234 360 213 365 Q 203 368 193 370 Q 191 411 189 451 Q 188 477 158 477 Q 144 476 138 472 Q 129 465 129 451 Q 131 418 132 386 Q 98 395 36 410 Q 9 416 3 388 Q 0 377 3 368 Q 8 357 20 353 Q 29 351 33 349 Q 26 246 21 134 Q 20 122 28 116 Q 35 110 49 109 Q 77 107 79 130 Q 84 208 85 234 Q 106 237 115 240 Q 130 243 128 263 Q 126 272 122 278 Q 117 283 110 283 Q 99 281 88 279 Q 89 307 91 334 Q 113 328 135 323 Q 139 235 141 194 Q 127 197 117 199 Q 107 201 102 197 Q 99 193 96 184 Q 92 165 109 160 Q 119 158 143 152 Q 144 131 145 110 Q 79 100 29 92 Q 4 88 9 58 Q 13 31 38 33 Q 155 51 216 61 Q 242 66 238 94 Q 238 107 227 115 Q 201 103 204 119 Z" fill="black" />
  </g>
  <g class="defect" id="01">
    <path d="M 227 115 Q 201 103 204 119" fill="none" stroke="red" stroke-width="3" />
  </g>
  <g class="defect" id="02">
    <path d="M 489 380 Q 467 454 416 476" fill="none" stroke="red" stroke-width="3" />
  </g>
</svg>