<svg xmlns="http://www.w3.org/2000/svg" width="512" height="512" viewBox="0 0 512 512">
  <g class="glyph">
    <path d="M 318 382 Q 273 464 256 490 Q 248 505 234 509 Q 221 512 209 506 Q 198 501 194 491 Q 189 481 194 468 Q 229 403 259 352 Q 273 326 302 339 Q 329 354 318 382 Z M 297 189 Q 299 217 278 223 Q 266 226 257 222 Q 245 218 243 205 Q 220 135 211 100 Q 208 88 214 79 Q 220 71 230 68 Q 241 65 251 69 Q 262 74 265 84 Q 288 158 297 189 Z M 411 293 Q 424 301 421 317 Q 413 396 411 423 Q 410 429 413 431 Q 416 433 421 430 Q 438 423 468 406 Q 477 401 485 407 Q 493 411 498 421 Q 503 431 502 441 Q 501 453 493 458 Q 454 481 412 498 Q 379 509 360 497 Q 342 485 344 448 Q 349 385 357 311 Q 359 305 360 302 Q 300 313 237 324 Q 222 326 214 319 Q 206 312 205 300 Q 191 288 208 280 Q 213 270 224 267 Q 263 259 328 248 Q 314 86 310 29 Q 309 18 317 10 Q 324 3 336 2 Q 350 0 360 6 Q 371 11 372 23 Q 377 69 383 137 Q 384 135 389 132 Q 456 83 461 80 Q 470 74 481 77 Q 491 80 497 88 Q 504 98 503 109 Q 502 121 490 131 Q 448 164 420 182 Q 400 193 387 178 Q 389 208 391 237 Q 405 234 469 224 Q 482 222 490 229 Q 497 235 498 247 Q 501 258 497 267 Q 492 277 483 279 Q 436 288 411 293 Z M 140 165 Q 140 152 141 139 Q 141 127 136 122 Q 131 116 120 115 Q 81 111 21 107 Q 9 107 5 97 Q 0 88 2 74 Q 3 62 10 55 Q 17 47 28 48 Q 66 50 131 58 Q 170 62 182 75 Q 196 90 196 127 Q 192 277 184 438 Q 182 470 165 482 Q 149 494 116 488 Q 101 486 78 480 Q 46 476 63 449 Q 64 440 70 433 Q 76 426 85 428 Q 98 430 111 433 Q 127 437 127 422 Q 150 330 137 218 Q 123 222 108 226 Q 86 230 80 207 Q 76 194 83 185 Q 86 180 92 178 Q 105 173 140 165 Z M 76 322 Q 78 349 79 376 Q 81 400 54 403 Q 36 405 28 395 Q 23 390 22 380 Q 14 267 5 147 Q 5 136 13 130 Q 19 125 31 123 Q 44 121 52 127 Q 61 132 62 145 Q 65 185 72 269 Q 94 273 115 278 Q 134 282 130 306 Q 127 328 107 328 Q 78 323 76 322 Z" fill="black" />
  </g>
  <g class="defect" id="01">
    <path d="M 78 480 Q 46 476 63 449" fill="none" stroke="red" stroke-width="3" />
  </g>
  <g class="defect" id="02">
    <path d="M 205 300 Q 191 288 208 280" fill="none" stroke="red" stroke-width="3" />
  </g>
  <g class="defect" id="03">
    <path d="M 127 422 Q 150 330 137 218" fill="none" stroke="red" stroke-width="3" />
  </g>
</svg>