<svg xmlns="http://www.w3.org/2000/svg" width="512" height="512" viewBox="0 0 512 512">
  <g class="glyph">
    <path d="M 484 118 Q 491 118 498 118 Q 505 119 509 125 Q 512 131 511 140 Q 510 148 506 153 Q 502 159 496 159 H 483 Q 478 199 452 215 Q 455 239 418 228 Q 418 235 419 251 Q 457 248 474 247 Q 481 246 485 252 Q 489 256 490 265 Q 491 273 488 280 Q 485 286 476 287 Q 424 292 421 292 Q 422 311 423 330 Q 457 334 490 338 Q 506 340 503 361 Q 503 371 499 376 Q 495 382 486 382 Q 463 380 426 376 Q 426 385 427 393 Q 427 406 419 413 Q 411 418 399 419 Q 355 431 371 399 Q 370 385 369 370 Q 334 366 299 362 Q 291 361 288 353 Q 285 346 286 336 Q 289 318 305 318 Q 335 322 365 324 Q 365 310 364 296 Q 339 298 314 300 Q 306 301 302 294 Q 298 288 298 279 Q 298 261 311 260 Q 336 258 361 256 Q 361 243 360 229 Q 332 226 311 218 Q 299 211 304 194 Q 307 178 324 181 Q 340 186 357 190 Q 356 177 355 155 Q 328 154 301 153 Q 293 152 289 147 Q 284 142 285 134 Q 285 126 290 119 Q 295 112 303 112 Q 328 113 353 113 Q 352 103 351 84 Q 328 90 320 92 Q 303 94 299 78 Q 298 70 300 64 Q 303 57 310 55 Q 328 49 349 45 Q 349 36 348 27 Q 346 3 374 1 Q 386 0 395 5 Q 404 10 405 20 Q 406 34 406 41 Q 444 43 461 62 Q 481 80 484 118 Z M 447 157 Q 430 157 413 157 Q 414 180 415 190 Q 428 188 436 180 Q 444 172 447 157 Z M 447 116 Q 444 99 436 91 Q 427 80 408 78 Q 409 90 410 114 Q 428 115 447 116 Z M 268 386 Q 377 419 486 451 Q 503 456 505 472 Q 505 479 503 485 Q 500 497 493 502 Q 484 509 472 506 Q 397 484 255 442 Q 251 461 243 489 Q 240 504 224 507 Q 219 508 211 506 Q 185 501 190 471 Q 194 456 202 426 Q 192 423 182 421 Q 159 414 165 387 Q 168 376 174 369 Q 182 362 192 365 Q 204 368 215 372 Q 220 351 228 310 Q 230 296 219 293 Q 207 290 196 288 Q 180 285 175 269 Q 170 253 180 236 Q 205 186 226 133 Q 228 126 226 123 Q 223 120 216 122 Q 206 123 189 128 Q 181 132 175 125 Q 169 119 167 107 Q 161 81 180 76 Q 210 67 231 64 Q 264 59 280 83 Q 294 106 279 144 Q 261 185 235 238 Q 233 242 234 243 Q 234 244 238 245 Q 248 247 258 249 Q 278 253 283 268 Q 288 282 283 313 Q 261 349 268 386 Z M 112 166 Q 113 152 113 138 Q 113 126 109 121 Q 104 115 93 114 Q 56 109 20 107 Q 0 105 3 73 Q 5 61 10 55 Q 16 47 27 48 Q 52 49 103 57 Q 137 61 147 73 Q 160 88 159 126 Q 157 274 147 436 Q 145 468 130 480 Q 115 492 88 486 Q 73 484 55 478 Q 38 474 41 447 Q 43 438 48 431 Q 54 424 61 426 Q 72 428 83 431 Q 99 435 100 420 Q 105 347 110 220 Q 105 223 97 224 Q 78 229 74 206 Q 69 183 84 177 Q 93 173 112 166 Z M 68 318 Q 70 346 72 374 Q 72 398 49 401 Q 25 404 23 378 Q 16 263 9 146 Q 9 126 31 122 Q 42 121 48 126 Q 56 131 57 144 Q 61 203 65 265 Q 80 268 92 272 Q 108 277 105 299 Q 101 324 86 322 Q 73 319 68 318 Z" fill="black" />
  </g>
  <g class="defect" id="01">
    <path d="M 399 419 Q 355 431 371 399" fill="none" stroke="red" stroke-width="3" />
  </g>
  <g class="defect" id="02">
    <path d="M 452 215 Q 455 239 418 228" fill="none" stroke="red" stroke-width="3" />
  </g>
  <g class="defect" id="03">
    <path d="M 283 313 Q 261 349 268 386" fill="none" stroke="red" stroke-width="3" />
  </g>
</svg>