<svg xmlns="http://www.w3.org/2000/svg" width="512" height="512" viewBox="0 0 512 512">
  <g class="glyph">
    <path d="M 420 208 Q 446 210 472 212 Q 485 212 492 221 Q 498 228 498 238 Q 497 249 490 256 Q 480 265 466 264 Q 406 261 212 249 Q 192 278 171 307 Q 268 292 359 287 Q 416 283 434 310 Q 443 323 442 339 Q 441 358 427 373 Q 405 395 378 421 Q 413 433 484 445 Q 499 449 504 461 Q 509 471 504 483 Q 501 494 493 498 Q 484 504 471 501 Q 389 483 320 467 Q 295 486 267 503 Q 253 512 239 510 Q 225 509 217 501 Q 201 487 218 470 Q 228 463 245 451 Q 190 438 161 432 Q 146 429 146 413 Q 146 407 148 400 Q 157 378 184 380 Q 233 389 303 404 Q 334 380 361 354 Q 368 347 364 343 Q 361 339 350 339 Q 244 347 132 365 L 130 365 Q 111 392 65 456 Q 57 468 42 469 Q 29 470 18 463 Q 7 456 4 447 Q 0 435 9 424 Q 26 400 136 244 Q 73 226 46 237 Q 33 236 26 228 Q 20 220 21 209 Q 22 199 30 192 Q 38 185 52 185 Q 113 189 174 191 Q 189 170 204 149 Q 211 139 224 138 Q 236 137 247 143 Q 259 150 263 160 Q 268 171 259 183 Q 253 190 250 196 Q 290 199 329 201 Q 323 191 321 177 Q 320 169 329 162 Q 338 157 350 156 Q 386 162 411 185 Q 417 193 420 208 Z M 382 51 Q 431 49 479 46 Q 488 46 494 55 Q 499 62 500 73 Q 501 85 496 92 Q 491 100 482 100 Q 436 103 376 105 Q 374 118 372 131 Q 370 141 359 146 Q 350 150 337 148 Q 323 146 316 140 Q 307 132 308 122 Q 310 115 310 108 Q 255 111 198 114 Q 199 119 200 125 Q 200 135 192 142 Q 185 148 172 150 Q 152 153 142 144 Q 136 139 135 131 Q 134 121 134 116 Q 103 118 27 121 Q 18 121 13 114 Q 8 107 8 95 Q -4 84 13 76 Q 17 68 26 68 Q 76 65 128 62 Q 127 49 126 36 Q 124 19 140 13 Q 147 10 154 10 Q 187 7 190 30 Q 191 44 193 60 Q 255 57 317 54 Q 319 38 321 22 Q 323 10 334 5 Q 343 0 357 2 Q 369 3 377 9 Q 385 16 385 29 Q 384 44 382 51 Z" fill="black" />
  </g>
  <g class="defect" id="01">
    <path d="M 8 95 Q -4 84 13 76" fill="none" stroke="red" stroke-width="3" />
  </g>
  <g class="defect" id="02">
    <path d="M 136 244 Q 73 226 46 237" fill="none" stroke="red" stroke-width="3" />
  </g>
  <g class="defect" id="03">
    <path d="M 378 421 Q 413 433 484 445" fill="none" stroke="red" stroke-width="3" />
  </g>
</svg>