<svg xmlns="http://www.w3.org/2000/svg" width="512" height="512" viewBox="0 0 512 512">
  <g class="glyph">
    <path d="M 493 333 Q 494 430 413 476 Q 350 512 245 512 Q 147 512 91 485 Q 25 456 15 393 Q 6 350 20 289 Q 22 278 34 272 Q 44 267 57 268 Q 71 269 78 275 Q 87 282 85 293 Q 74 340 80 372 Q 88 410 126 432 Q 170 456 252 454 Q 334 452 379 420 Q 431 384 428 330 Q 424 281 379 243 Q 331 200 222 207 Q 114 196 48 240 Q 34 245 23 239 Q 12 234 8 223 Q 3 210 8 199 Q 13 187 27 183 Q 115 156 219 150 Q 351 142 421 192 Q 457 217 476 257 Q 493 293 493 333 Z M 165 395 Q 124 365 136 321 Q 144 289 177 251 Q 183 242 195 239 Q 205 237 217 240 Q 230 244 235 252 Q 241 261 234 271 Q 224 279 215 289 Q 205 299 199 312 Q 188 332 209 348 Q 224 361 251 362 Q 276 364 293 353 Q 313 340 302 317 Q 296 303 275 288 Q 265 281 269 271 Q 272 261 283 255 Q 294 250 306 251 Q 320 254 328 265 Q 376 318 366 332 Q 375 371 341 396 Q 308 420 250 419 Q 197 418 165 395 Z M 378 41 Q 431 40 482 38 Q 491 38 497 47 Q 502 55 502 66 Q 502 78 497 85 Q 492 94 483 95 Q 426 97 369 99 Q 368 110 366 122 Q 364 133 353 137 Q 344 140 330 139 Q 317 137 309 130 Q 300 122 301 112 Q 302 107 303 102 Q 266 103 199 106 Q 199 113 200 116 Q 200 127 192 133 Q 185 139 171 141 Q 151 144 140 135 Q 134 130 134 123 Q 133 116 133 109 Q 54 111 19 113 Q 2 113 1 88 Q 0 75 5 67 Q 10 57 19 56 Q 99 53 128 51 Q 128 43 127 35 Q 127 23 136 16 Q 144 10 157 9 Q 190 6 192 29 Q 193 39 194 49 Q 236 28 312 44 Q 312 38 314 22 Q 317 0 351 1 Q 363 2 371 8 Q 380 16 379 29 Q 379 33 378 41 Z" fill="black" />
  </g>
  <g class="defect" id="01">
    <path d="M 194 49 Q 236 28 312 44" fill="none" stroke="red" stroke-width="3" />
  </g>
  <g class="defect" id="02">
    <path d="M 328 265 Q 376 318 366 332" fill="none" stroke="red" stroke-width="3" />
  </g>
  <g class="defect" id="03">
    <path d="M 222 207 Q 114 196 48 240" fill="none" stroke="red" stroke-width="3" />
  </g>
</svg>