<svg xmlns="http://www.w3.org/2000/svg" width="512" height="512" viewBox="0 0 512 512">
  <g class="glyph">
    <path d="M 420 347 Q 420 359 414 365 Q 408 371 399 371 Q 376 371 376 346 Q 376 183 377 105 Q 377 84 399 83 Q 409 82 415 87 Q 421 93 421 106 Q 442 160 420 347 Z M 511 412 Q 511 451 497 467 Q 481 485 444 481 Q 419 478 381 471 Q 369 469 363 459 Q 359 450 360 437 Q 361 425 368 416 Q 376 408 386 410 Q 405 414 437 419 Q 447 420 451 417 Q 455 413 455 404 Q 454 257 444 47 Q 444 24 469 22 Q 482 20 490 25 Q 499 31 500 44 Q 508 217 511 412 Z M 308 362 Q 308 423 309 485 Q 310 497 301 504 Q 294 509 281 511 Q 251 512 251 486 Q 250 428 248 310 Q 237 323 225 336 Q 214 346 203 345 Q 193 345 185 336 Q 177 328 176 319 Q 175 308 183 300 Q 215 265 246 230 Q 247 229 248 228 V 208 Q 249 195 215 203 Q 190 199 195 168 Q 197 156 202 149 Q 209 142 220 143 Q 229 145 247 147 Q 247 125 247 104 Q 247 93 252 87 Q 227 94 202 100 Q 189 104 180 96 Q 173 90 170 78 Q 163 50 185 43 Q 241 26 331 3 Q 343 0 353 7 Q 360 13 363 24 Q 366 36 363 45 Q 359 56 348 59 Q 314 70 287 77 Q 305 81 305 99 Q 306 128 306 156 Q 324 159 339 162 Q 353 164 358 174 Q 362 182 360 194 Q 359 206 352 213 Q 345 221 334 220 Q 316 218 307 216 Q 307 244 307 300 Q 315 304 355 328 Q 369 336 360 359 Q 355 370 346 374 Q 336 378 326 372 Q 320 369 308 362 Z M 168 441 Q 101 462 38 481 Q 12 486 7 461 Q -18 435 22 429 Q 43 423 63 416 V 416 Q 64 375 65 334 Q 24 319 13 268 Q 3 227 15 185 Q 17 171 37 176 Q 50 180 47 194 Q 40 225 48 250 Q 54 269 67 278 Q 69 213 71 149 Q 57 152 44 159 Q 28 167 18 161 Q 9 156 6 142 Q 0 115 22 107 Q 47 97 73 94 Q 73 69 75 41 Q 75 20 103 21 Q 114 22 121 27 Q 128 33 128 44 Q 127 71 127 97 Q 148 104 162 120 Q 190 150 186 218 Q 184 261 165 293 Q 149 321 120 332 Q 118 377 117 400 Q 136 395 155 390 Q 153 382 152 374 Q 150 356 169 352 Q 183 349 191 355 Q 195 359 197 364 Q 206 395 222 460 Q 223 479 204 483 Q 194 485 187 482 Q 178 479 176 471 Q 169 445 168 441 Z M 125 153 Q 123 239 121 276 Q 129 272 137 261 Q 152 242 153 214 Q 155 178 134 159 Q 130 156 125 153 Z" fill="black" />
  </g>
  <g class="defect" id="01">
    <path d="M 7 461 Q -18 435 22 429" fill="none" stroke="red" stroke-width="3" />
  </g>
  <g class="defect" id="02">
    <path d="M 248 208 Q 249 195 215 203" fill="none" stroke="red" stroke-width="3" />
  </g>
  <g class="defect" id="03">
    <path d="M 421 106 Q 442 160 420 347" fill="none" stroke="red" stroke-width="3" />
  </g>
</svg>