<svg xmlns="http://www.w3.org/2000/svg" width="512" height="512" viewBox="0 0 512 512">
  <g class="glyph">
    <path d="M 185 224 Q 156 251 114 289 Q 99 300 86 288 Q 73 275 87 261 Q 132 216 157 196 Q 171 185 184 198 Q 197 212 185 224 Z M 248 232 Q 209 291 207 294 Q 196 310 179 300 Q 164 290 173 274 Q 191 245 214 212 Q 225 196 241 208 Q 257 217 248 232 Z M 460 487 Q 458 489 452 490 Q 330 501 299 502 Q 286 503 279 498 Q 273 494 273 487 Q 272 471 293 468 Q 323 466 353 463 Q 354 442 355 432 Q 318 428 299 419 Q 273 405 273 384 Q 273 377 280 373 Q 286 370 294 369 Q 315 369 319 378 Q 319 388 339 395 Q 347 398 357 400 Q 358 384 360 355 Q 322 357 295 361 Q 273 362 270 346 Q 268 338 272 332 Q 276 325 285 323 Q 318 318 363 318 Q 364 313 364 307 Q 365 289 394 289 Q 407 290 414 294 Q 422 299 421 308 Q 421 315 421 322 Q 459 327 477 340 Q 501 355 498 388 Q 495 416 466 427 Q 445 435 413 436 Q 412 448 411 458 Q 428 457 445 456 L 444 454 Q 440 441 459 436 Q 478 431 486 445 Q 497 464 510 493 Q 511 505 495 510 Q 487 512 479 510 Q 471 509 468 502 Q 464 495 460 487 Z M 436 221 Q 463 245 495 275 Q 505 289 494 303 Q 483 316 463 305 Q 431 277 388 238 Q 386 236 384 232 Q 370 236 355 239 Q 358 244 360 249 Q 370 280 350 296 Q 337 308 304 307 Q 272 304 253 298 Q 247 296 244 287 Q 242 279 244 271 Q 249 254 261 255 Q 282 260 286 260 Q 294 261 296 257 Q 299 253 295 247 Q 263 201 226 162 Q 224 160 223 158 Q 204 158 185 158 Q 182 161 179 163 Q 149 183 44 249 Q 22 260 10 244 Q 0 227 16 214 Q 34 201 105 156 Q 75 156 37 155 Q 27 154 22 149 Q 17 144 17 136 Q 17 119 37 118 Q 131 119 298 121 Q 310 105 314 100 Q 268 103 171 106 Q 132 107 116 96 Q 101 86 97 63 Q 95 46 92 20 Q 91 11 102 6 Q 111 1 125 1 Q 139 0 148 3 Q 161 7 161 15 Q 162 18 162 21 Q 282 21 372 26 Q 404 28 414 41 Q 441 55 410 76 Q 393 100 374 123 Q 443 124 480 124 Q 499 125 498 144 Q 498 151 494 156 Q 488 162 479 162 Q 333 160 299 159 Q 316 177 333 201 Q 419 182 461 174 Q 481 170 485 189 Q 487 197 484 204 Q 480 212 471 213 Q 453 218 436 221 Z M 419 359 Q 417 381 415 402 Q 426 402 433 401 Q 458 398 459 384 Q 459 376 452 371 Q 447 366 434 362 Q 427 361 419 359 Z M 336 71 Q 339 66 341 64 Q 343 60 342 57 Q 339 54 333 54 Q 267 50 165 50 Q 166 55 167 62 Q 169 77 190 77 Q 263 76 336 71 Z M 216 487 214 487 Q 84 499 42 501 Q 30 502 24 497 Q 18 493 18 486 Q 17 469 37 467 Q 79 463 119 460 Q 119 454 116 440 Q 83 441 60 435 Q 46 431 37 423 Q 28 415 26 403 Q 24 397 30 392 Q 36 388 45 386 Q 67 383 69 392 Q 72 404 93 406 Q 104 407 112 407 Q 110 385 107 362 Q 73 368 40 378 Q 17 382 11 366 Q 7 355 13 347 Q 16 343 22 342 Q 58 331 103 325 Q 102 321 101 317 Q 101 307 109 302 Q 115 298 128 296 Q 157 293 159 312 Q 159 317 160 322 Q 200 322 218 331 Q 245 342 248 375 Q 251 403 223 419 Q 206 429 174 435 Q 175 445 177 455 Q 193 454 209 453 H 210 Q 210 449 209 445 Q 209 438 215 434 Q 221 431 230 429 Q 251 428 253 441 Q 259 463 263 495 Q 263 501 258 505 Q 253 509 244 510 Q 235 511 228 509 Q 220 505 218 498 Q 217 491 216 487 Z M 170 401 Q 179 400 186 397 Q 210 390 209 376 Q 207 361 178 359 Q 170 358 165 358 Q 169 391 170 401 Z" fill="black" />
  </g>
  <g class="defect" id="01">
    <path d="M 414 41 Q 441 55 410 76" fill="none" stroke="red" stroke-width="3" />
  </g>
</svg>