<svg xmlns="http://www.w3.org/2000/svg" width="512" height="512" viewBox="0 0 512 512">
  <g class="glyph">
    <path d="M 430 343 Q 429 347 426 350 Q 425 351 386 392 Q 424 391 462 390 Q 473 389 480 397 Q 486 403 486 413 Q 486 424 482 430 Q 476 438 463 438 Q 420 439 339 439 Q 325 452 297 479 Q 276 500 254 482 Q 244 475 242 465 Q 241 454 249 444 Q 252 441 255 437 Q 215 437 146 433 Q 102 430 87 408 Q 71 386 93 347 Q 97 340 102 332 Q 62 331 23 329 Q 13 329 7 322 Q 1 315 2 305 Q 2 287 26 285 Q 78 287 129 288 Q 141 271 152 253 Q 142 253 126 252 Q 82 249 60 234 Q 36 222 34 188 Q 33 176 43 169 Q 52 162 65 161 Q 78 159 89 163 Q 100 166 100 174 Q 103 192 114 200 Q 123 207 142 208 Q 186 211 255 210 Q 337 207 392 200 Q 408 197 417 187 Q 426 177 426 165 Q 424 141 389 137 Q 358 136 351 135 Q 346 163 342 176 Q 335 203 308 198 Q 295 196 289 190 Q 282 182 284 166 Q 287 151 290 134 Q 256 135 239 136 Q 231 137 223 137 Q 227 152 228 159 Q 231 175 223 183 Q 217 189 203 192 Q 176 198 169 172 Q 166 162 162 141 Q 95 145 39 153 Q 19 154 16 135 Q 15 127 19 120 Q 25 112 35 110 Q 84 103 151 97 Q 148 83 145 69 Q 144 64 145 59 Q 103 61 19 63 Q 10 64 5 57 Q 0 50 0 41 Q 0 32 5 25 Q 9 19 19 18 Q 256 8 489 1 Q 500 0 506 8 Q 511 13 512 23 Q 512 32 507 39 Q 501 46 492 46 Q 448 48 358 51 Q 365 60 363 74 Q 362 83 360 91 Q 405 94 409 95 Q 445 98 468 119 Q 487 137 489 163 Q 489 191 471 212 Q 466 236 410 242 Q 349 250 260 253 Q 234 253 206 253 Q 221 269 210 283 Q 207 287 204 290 Q 398 296 488 299 Q 499 300 506 308 Q 512 314 511 322 Q 510 342 485 344 Q 457 343 430 343 Z M 355 340 Q 232 337 173 335 Q 148 334 152 368 Q 147 375 151 379 Q 154 384 163 385 Q 239 391 302 391 Q 337 357 355 340 Z M 308 53 Q 256 55 203 57 Q 207 69 213 93 Q 228 93 242 92 Q 271 90 299 90 Q 301 81 304 64 Q 305 59 308 53 Z" fill="black" />
  </g>
  <g class="defect" id="01">
    <path d="M 389 137 Q 358 136 351 135" fill="none" stroke="red" stroke-width="3" />
  </g>
  <g class="defect" id="02">
    <path d="M 173 335 Q 148 334 152 368" fill="none" stroke="red" stroke-width="3" />
  </g>
  <g class="defect" id="03">
    <path d="M 471 212 Q 466 236 410 242" fill="none" stroke="red" stroke-width="3" />
  </g>
</svg>