<svg xmlns="http://www.w3.org/2000/svg" width="512" height="512" viewBox="0 0 512 512">
  <g class="glyph">
    <path d="M 449 218 Q 469 230 492 247 Q 502 253 506 264 Q 509 274 505 285 Q 499 297 489 301 Q 478 307 465 301 Q 453 293 447 288 Q 442 403 440 466 Q 439 480 430 488 Q 422 495 410 494 Q 399 494 391 488 Q 381 480 382 465 Q 388 289 396 56 Q 397 44 406 37 Q 414 31 426 31 Q 437 31 445 38 Q 454 45 453 57 Q 452 115 449 218 Z M 306 168 Q 336 163 346 161 Q 358 160 365 168 Q 371 175 373 186 Q 374 198 371 207 Q 366 217 355 219 Q 313 228 206 245 Q 183 247 180 221 Q 178 209 181 199 Q 185 189 196 187 Q 223 181 247 177 Q 245 159 240 119 Q 210 116 195 113 Q 185 111 180 101 Q 176 92 178 80 Q 181 57 203 56 Q 224 57 234 58 Q 233 49 232 31 Q 231 18 240 11 Q 248 5 261 3 Q 288 0 290 22 Q 292 35 295 64 Q 319 66 343 69 Q 355 72 360 82 Q 364 92 362 104 Q 361 115 355 121 Q 347 128 335 128 Q 325 127 302 125 Q 304 139 306 168 Z M 304 313 Q 316 314 339 319 Q 361 323 356 352 Q 353 378 331 377 Q 314 374 298 372 Q 294 406 292 423 Q 314 418 336 412 Q 349 410 357 417 Q 364 423 367 435 Q 369 451 361 461 Q 357 467 350 468 Q 303 482 195 510 Q 183 512 175 505 Q 185 498 165 487 Q 162 471 171 460 Q 176 454 182 452 Q 206 446 230 439 Q 235 386 238 363 Q 211 359 196 355 Q 176 351 180 322 Q 181 311 188 304 Q 194 297 205 297 Q 218 299 244 302 Q 263 292 247 273 Q 249 260 259 254 Q 268 249 281 250 Q 309 254 307 278 Q 306 295 304 313 Z M 153 319 Q 161 327 170 334 Q 185 351 174 367 Q 163 386 144 374 Q 126 360 111 348 Q 118 402 123 455 Q 126 477 99 482 Q 71 486 68 461 Q 59 397 48 308 Q 47 309 45 311 Q 35 319 23 316 Q 14 313 7 304 Q 0 296 1 286 Q 1 276 9 269 Q 57 226 107 169 Q 110 165 109 162 Q 107 159 102 160 Q 78 163 34 176 Q 23 180 14 173 Q 7 166 5 154 Q 2 143 5 135 Q 9 124 18 122 Q 43 114 56 111 Q 52 82 48 53 Q 47 30 73 27 Q 85 25 94 29 Q 103 34 105 44 Q 111 82 113 99 Q 153 95 168 124 Q 184 156 161 189 Q 138 247 100 258 Q 102 268 103 277 Q 109 282 121 293 Q 131 267 136 255 Q 143 237 159 244 Q 177 252 170 270 Q 163 291 153 319 Z" fill="black" />
  </g>
  <g class="defect" id="01">
    <path d="M 244 302 Q 263 292 247 273" fill="none" stroke="red" stroke-width="3" />
  </g>
  <g class="defect" id="02">
    <path d="M 175 505 Q 185 498 165 487" fill="none" stroke="red" stroke-width="3" />
  </g>
  <g class="defect" id="03">
    <path d="M 161 189 Q 138 247 100 258" fill="none" stroke="red" stroke-width="3" />
  </g>
</svg>