<svg xmlns="http://www.w3.org/2000/svg" width="512" height="512" viewBox="0 0 512 512">
  <g class="glyph">
    <path d="M 113 390 Q 112 415 88 421 Q 77 422 67 417 Q 55 411 54 398 Q 42 336 34 264 Q 33 251 42 243 Q 49 236 62 235 Q 74 234 82 239 Q 91 244 93 255 Q 106 331 113 390 Z M 84 74 Q 76 109 56 179 Q 53 193 42 198 Q 32 202 20 200 Q 0 194 2 173 Q 16 114 30 61 Q 32 51 43 47 Q 52 43 64 46 Q 86 52 84 74 Z M 449 310 Q 441 351 432 380 Q 428 391 418 396 Q 409 400 398 399 Q 386 396 380 388 Q 373 380 376 368 Q 383 340 389 307 Q 393 288 376 287 Q 244 281 144 282 Q 132 282 125 274 Q 119 268 119 256 Q 119 234 147 231 Q 274 230 386 238 Q 419 239 438 257 Q 454 273 449 310 Z M 198 181 Q 200 195 191 204 Q 184 212 171 213 Q 158 215 148 209 Q 137 201 136 186 Q 123 89 116 29 Q 114 7 141 2 Q 155 0 165 5 Q 177 10 178 22 Q 189 98 198 181 Z M 421 223 Q 380 204 338 184 Q 325 177 323 165 Q 320 154 327 143 Q 338 125 360 132 Q 419 160 448 175 Q 459 179 462 191 Q 465 201 460 211 Q 450 232 421 223 Z M 344 56 Q 379 51 452 44 Q 479 45 480 67 Q 482 77 477 85 Q 471 94 461 96 Q 396 106 332 112 Q 323 112 315 109 Q 304 130 288 156 Q 282 167 269 170 Q 257 173 246 167 Q 236 162 233 153 Q 229 143 235 131 Q 268 73 301 14 Q 307 5 319 2 Q 330 0 341 6 Q 362 17 351 43 Q 347 52 344 56 Z M 265 366 H 267 Q 279 365 288 369 Q 297 374 297 384 Q 299 421 301 439 Q 304 463 326 457 Q 350 454 429 440 Q 441 437 448 443 Q 453 448 455 458 Q 456 466 453 474 Q 449 483 441 485 Q 383 499 322 506 Q 285 510 268 502 Q 250 494 244 462 Q 240 437 238 399 Q 193 452 146 501 Q 135 512 123 512 Q 112 512 102 505 Q 93 497 93 486 Q 92 473 102 463 Q 156 402 234 310 Q 244 299 258 297 Q 270 296 280 304 Q 289 311 289 323 Q 290 335 278 350 Q 284 344 265 366 Z" fill="black" />
  </g>
  <g class="defect" id="01">
    <path d="M 278 350 Q 284 344 265 366" fill="none" stroke="red" stroke-width="3" />
  </g>
</svg>