<svg xmlns="http://www.w3.org/2000/svg" width="512" height="512" viewBox="0 0 512 512">
  <g class="glyph">
    <path d="M 90 322 Q 87 353 57 356 Q 43 358 33 352 Q 21 345 19 330 Q 7 183 1 41 Q 0 27 11 16 Q 20 7 34 6 Q 48 5 58 11 Q 70 18 71 31 Q 84 181 90 322 Z M 311 167 Q 209 346 138 491 Q 130 506 115 509 Q 101 512 87 505 Q 75 498 71 487 Q 66 473 74 458 Q 142 326 246 132 Q 254 116 270 113 Q 285 110 298 117 Q 323 131 311 167 Z M 487 484 Q 472 509 446 499 Q 336 451 264 417 Q 250 411 247 396 Q 244 382 251 369 Q 265 341 292 352 Q 391 394 475 435 Q 488 441 491 457 Q 495 470 487 484 Z M 477 81 Q 464 235 449 321 Q 447 335 434 343 Q 423 349 409 347 Q 396 344 388 336 Q 379 326 381 312 Q 401 181 408 84 Q 408 72 402 66 Q 396 61 384 62 Q 233 76 135 93 Q 122 95 114 86 Q 89 93 106 65 Q 104 52 110 43 Q 116 32 130 30 Q 245 12 395 2 Q 435 0 455 16 Q 481 35 477 81 Z" fill="black" />
  </g>
  <g class="defect" id="01">
    <path d="M 311 167 Q 209 346 138 491" fill="none" stroke="red" stroke-width="3" />
  </g>
  <g class="defect" id="02">
    <path d="M 114 86 Q 89 93 106 65" fill="none" stroke="red" stroke-width="3" />
  </g>
</svg>