<svg xmlns="http://www.w3.org/2000/svg" width="512" height="512" viewBox="0 0 512 512">
  <g class="glyph">
    <path d="M 414 470 Q 370 490 265 491 Q 163 494 124 468 Q 92 448 94 399 Q 94 389 106 382 Q 117 376 132 376 Q 144 376 153 381 Q 163 387 164 396 Q 163 425 183 433 Q 221 443 274 443 Q 335 442 367 430 Q 386 425 396 412 Q 405 400 405 385 Q 404 373 396 363 Q 387 352 371 348 Q 324 337 254 342 Q 174 348 93 366 Q 69 371 64 349 Q 61 339 65 330 Q 69 320 80 318 Q 171 297 253 292 Q 296 289 337 291 Q 387 294 414 305 Q 443 317 458 341 Q 471 362 470 387 Q 470 444 414 470 Z M 213 54 Q 145 121 70 191 Q 60 200 47 197 Q 35 195 26 184 Q 18 175 18 165 Q 17 153 26 144 Q 120 52 166 10 Q 179 0 192 2 Q 203 3 212 13 Q 230 33 213 54 Z M 494 111 Q 512 132 495 154 Q 486 163 473 165 Q 459 166 447 155 Q 409 124 346 69 Q 339 34 352 27 Q 362 18 372 18 Q 384 16 394 26 Q 431 54 494 111 Z M 301 143 Q 438 203 489 228 Q 502 234 505 247 Q 508 258 502 269 Q 492 292 460 283 Q 354 233 246 183 Q 151 253 65 313 Q 39 330 20 310 Q 0 286 23 268 Q 176 157 273 89 Q 299 71 318 91 Q 340 115 317 132 Q 309 137 301 143 Z" fill="black" />
  </g>
  <g class="defect" id="01">
    <path d="M 346 69 Q 339 34 352 27" fill="none" stroke="red" stroke-width="3" />
  </g>
  <g class="defect" id="02">
    <path d="M 23 268 Q 176 157 273 89" fill="none" stroke="red" stroke-width="3" />
  </g>
</svg>