<svg xmlns="http://www.w3.org/2000/svg" width="512" height="512" viewBox="0 0 512 512">
  <g class="glyph">
    <path d="M 341 404 Q 343 428 320 434 Q 309 437 300 433 Q 289 428 286 417 Q 280 398 267 352 Q 265 342 272 334 Q 278 327 289 324 Q 305 321 315 330 Q 320 334 322 342 Q 331 373 341 404 Z M 339 197 Q 344 205 339 213 Q 335 221 326 226 Q 316 231 307 230 Q 296 228 290 217 Q 266 176 254 150 Q 247 132 268 121 Q 278 116 286 117 Q 297 119 303 129 Q 314 148 339 197 Z M 408 169 Q 409 179 403 186 Q 398 193 389 194 Q 378 197 370 193 Q 360 189 358 178 Q 353 155 346 121 Q 345 103 366 98 Q 380 95 388 104 Q 393 108 394 114 Q 401 142 408 169 Z M 503 23 Q 505 35 501 43 Q 496 53 484 56 Q 422 68 271 95 Q 260 97 253 90 Q 245 83 244 74 Q 242 63 247 54 Q 252 44 263 42 Q 334 26 476 3 Q 499 0 503 23 Z M 499 118 Q 488 143 471 173 Q 466 182 455 185 Q 445 187 437 182 Q 419 173 426 152 Q 447 110 457 94 Q 469 78 488 87 Q 509 97 499 118 Z M 468 330 Q 471 389 473 447 Q 473 484 454 495 Q 438 503 411 498 Q 377 492 347 482 Q 338 478 336 468 Q 334 458 337 447 Q 343 427 361 430 Q 377 435 397 438 Q 404 440 407 438 Q 411 435 411 427 Q 409 373 406 320 Q 382 316 264 296 Q 243 293 247 263 Q 250 239 273 242 Q 305 247 402 262 Q 401 243 399 224 Q 399 211 408 203 Q 417 196 429 194 Q 440 194 449 201 Q 459 209 461 223 Q 463 247 464 273 Q 474 275 492 278 Q 512 281 509 309 Q 507 320 502 326 Q 495 334 486 333 Q 477 331 468 330 Z M 188 304 Q 171 301 161 299 Q 141 293 134 283 Q 127 273 127 247 Q 127 224 127 200 Q 116 199 104 200 Q 101 270 98 310 Q 97 320 86 320 Q 74 320 74 309 Q 75 273 77 204 Q 49 209 35 216 Q 14 225 5 202 Q 1 191 4 180 Q 7 168 17 165 Q 36 158 56 154 Q 58 125 59 97 Q 47 95 22 92 Q 0 89 3 61 Q 6 36 28 37 Q 128 46 217 59 Q 238 62 235 90 Q 231 114 211 113 Q 193 112 176 110 Q 175 142 175 156 Q 206 170 221 203 Q 239 244 235 320 Q 231 388 210 425 Q 181 474 120 475 Q 55 477 26 428 Q 6 392 7 331 Q 7 293 15 246 Q 17 236 25 232 Q 32 228 42 229 Q 60 231 60 252 Q 53 291 53 325 V 346 Q 89 339 186 326 Q 188 314 188 310 Z M 186 265 Q 184 255 182 246 Q 174 212 152 204 Q 151 224 151 244 Q 151 251 153 254 Q 155 258 162 259 Q 173 262 186 265 Z M 181 366 Q 138 375 60 385 Q 62 389 65 396 Q 73 411 89 419 Q 104 426 122 426 Q 156 424 173 391 Q 177 383 181 366 Z M 130 105 Q 122 105 107 102 Q 106 125 105 147 Q 117 146 129 147 Q 110 145 130 105 Z" fill="black" />
  </g>
  <g class="defect" id="01">
    <path d="M 129 147 Q 110 145 130 105" fill="none" stroke="red" stroke-width="3" />
  </g>
</svg>