<svg xmlns="http://www.w3.org/2000/svg" width="512" height="512" viewBox="0 0 512 512">
  <g class="glyph">
    <path d="M 507 479 Q 502 490 493 495 Q 484 500 473 494 Q 456 487 428 470 Q 419 464 417 453 Q 415 442 420 431 Q 425 420 434 415 Q 443 410 454 415 Q 466 421 498 441 Q 508 446 510 457 Q 511 467 507 479 Z M 455 241 Q 446 280 436 319 Q 462 323 488 326 Q 498 328 503 337 Q 508 346 507 357 Q 505 370 498 377 Q 491 384 481 383 Q 453 379 422 375 Q 408 430 394 484 Q 390 497 380 503 Q 369 508 359 505 Q 348 502 344 494 Q 338 485 341 472 Q 353 421 367 368 Q 356 367 346 365 Q 332 363 328 348 Q 326 341 326 333 Q 330 307 352 308 Q 362 309 381 312 Q 384 299 395 253 Q 383 257 375 258 Q 363 260 355 248 Q 354 251 352 253 Q 345 262 334 263 Q 326 263 319 257 Q 302 246 313 225 Q 333 196 355 164 Q 362 154 373 154 Q 382 153 390 159 Q 407 171 393 192 Q 391 194 390 196 Q 450 182 475 178 Q 494 177 500 198 Q 502 210 498 221 Q 494 232 484 234 Q 470 238 455 241 Z M 405 61 Q 434 69 493 86 Q 512 93 506 119 Q 504 131 497 137 Q 490 145 480 142 Q 420 126 384 115 Q 382 121 377 131 Q 373 142 361 145 Q 350 149 341 144 Q 321 136 328 106 Q 345 61 363 16 Q 368 2 382 1 Q 389 0 396 2 Q 407 6 412 15 Q 431 35 414 37 Q 408 53 405 61 Z M 251 100 Q 278 94 291 92 Q 302 91 309 98 Q 316 105 317 115 Q 319 128 315 138 Q 311 149 300 152 Q 274 158 246 164 Q 247 169 247 171 Q 246 184 240 222 Q 251 225 260 228 Q 288 235 300 251 Q 309 264 311 301 Q 316 364 317 419 Q 317 454 304 466 Q 290 478 266 468 Q 254 463 242 454 Q 226 446 233 419 Q 239 398 251 402 Q 256 405 266 410 Q 272 412 274 410 Q 277 408 276 402 Q 275 362 271 311 Q 271 291 255 288 Q 244 285 234 282 Q 223 376 213 471 Q 212 479 208 485 Q 199 496 184 493 Q 162 490 164 464 Q 181 320 197 174 Q 182 178 175 179 Q 156 181 151 156 Q 148 144 152 134 Q 156 122 166 119 Q 175 117 195 112 Q 186 82 181 63 Q 161 35 185 42 Q 191 35 202 32 Q 213 29 222 33 Q 233 38 236 49 Q 244 75 251 100 Z M 102 349 Q 105 386 106 406 Q 106 410 108 411 Q 110 414 117 408 Q 125 400 130 394 Q 137 385 145 388 Q 152 390 158 401 Q 169 423 155 437 Q 139 457 117 469 Q 79 464 79 477 Q 59 471 57 436 Q 54 398 51 360 Q 44 362 36 363 Q 21 365 14 360 Q 8 355 6 341 Q 0 315 27 308 Q 37 306 49 303 Q 48 268 47 251 Q 47 238 56 231 Q 39 231 24 229 Q 7 226 7 199 Q 7 188 13 180 Q 19 171 29 172 Q 87 177 144 182 Q 167 184 165 212 Q 165 223 160 230 Q 153 239 140 238 Q 128 237 96 235 Q 99 240 99 248 Q 100 270 100 292 Q 117 289 133 285 Q 147 283 154 288 Q 161 293 163 306 Q 168 335 143 340 Q 133 342 102 349 Z M 85 63 Q 113 73 130 79 Q 152 87 145 113 Q 143 124 136 130 Q 127 137 115 133 Q 97 127 66 116 Q 63 126 59 136 Q 56 145 46 149 Q 38 153 28 152 Q 16 150 11 142 Q 5 133 9 117 Q 31 56 39 36 Q 45 14 71 20 Q 95 27 89 50 Q 87 57 85 63 Z" fill="black" />
  </g>
  <g class="defect" id="01">
    <path d="M 412 15 Q 431 35 414 37" fill="none" stroke="red" stroke-width="3" />
  </g>
  <g class="defect" id="02">
    <path d="M 117 469 Q 79 464 79 477" fill="none" stroke="red" stroke-width="3" />
  </g>
  <g class="defect" id="03">
    <path d="M 181 63 Q 161 35 185 42" fill="none" stroke="red" stroke-width="3" />
  </g>
</svg>