<svg xmlns="http://www.w3.org/2000/svg" width="512" height="512" viewBox="0 0 512 512">
  <g class="glyph">
    <path d="M 428 309 Q 437 349 412 380 Q 388 410 347 407 Q 307 405 285 371 Q 262 335 277 291 Q 285 266 305 247 Q 319 232 338 245 Q 345 251 348 259 Q 350 268 343 275 Q 329 284 323 302 Q 316 321 323 340 Q 331 358 349 361 Q 370 363 379 346 Q 389 329 381 310 Q 376 296 363 286 Q 357 278 360 269 Q 363 260 371 256 Q 388 248 402 263 Q 422 284 428 309 Z M 199 150 Q 202 136 211 129 Q 220 123 231 124 Q 242 125 249 132 Q 257 139 256 150 Q 247 204 247 277 Q 247 366 265 400 Q 287 439 341 442 Q 402 445 431 403 Q 449 376 455 330 Q 459 304 460 247 Q 460 137 439 105 Q 415 66 351 69 Q 291 72 225 104 Q 213 111 202 105 Q 191 100 188 89 Q 183 79 186 69 Q 190 58 201 52 Q 264 22 348 16 Q 439 14 476 64 Q 512 110 512 243 Q 511 310 505 350 Q 496 406 472 439 Q 430 496 341 494 Q 253 493 218 429 Q 193 385 191 283 Q 190 216 199 150 Z M 390 148 Q 401 150 426 153 Q 437 155 443 164 Q 448 171 447 182 Q 446 192 439 199 Q 432 206 421 204 Q 390 200 384 200 Q 383 205 382 217 Q 381 228 372 233 Q 365 238 353 237 Q 327 235 329 211 Q 330 198 330 192 Q 309 189 287 186 Q 275 184 270 176 Q 265 168 267 158 Q 268 147 274 140 Q 281 133 291 135 Q 313 137 336 140 Q 338 122 340 104 Q 340 93 349 88 Q 357 83 368 84 Q 380 85 387 91 Q 394 97 393 107 Q 391 128 390 148 Z M 116 342 Q 117 365 121 402 Q 102 412 126 413 Q 129 414 137 408 Q 146 401 157 389 Q 165 381 173 384 Q 181 388 186 398 Q 200 422 184 436 Q 161 457 146 467 Q 116 486 94 480 Q 66 473 63 432 Q 58 383 57 355 Q 43 357 37 358 Q 20 361 12 355 Q 5 349 2 335 Q 0 321 5 312 Q 10 303 26 300 Q 38 298 52 295 Q 51 280 50 246 Q 50 232 61 225 Q 55 224 23 221 Q 12 220 7 210 Q 2 201 3 189 Q 5 177 10 170 Q 17 161 29 161 Q 98 166 151 172 Q 178 175 175 203 Q 173 231 146 231 Q 134 231 106 228 Q 110 235 110 243 Q 111 263 112 282 Q 126 280 140 277 Q 157 274 165 280 Q 173 285 175 299 Q 181 329 151 335 Q 133 339 116 342 Z M 91 52 Q 110 59 156 77 Q 183 86 174 113 Q 170 125 162 131 Q 152 138 137 134 Q 118 127 70 110 Q 69 115 64 126 Q 61 140 48 144 Q 37 149 24 144 Q 13 140 8 131 Q 2 121 6 107 Q 22 64 38 22 Q 41 9 52 5 Q 62 0 75 3 Q 101 10 97 36 Q 94 44 91 52 Z" fill="black" />
  </g>
  <g class="defect" id="01">
    <path d="M 121 402 Q 102 412 126 413" fill="none" stroke="red" stroke-width="3" />
  </g>
</svg>