<svg xmlns="http://www.w3.org/2000/svg" width="512" height="512" viewBox="0 0 512 512">
  <g class="glyph">
    <path d="M 301 225 Q 302 233 299 238 Q 296 245 289 246 Q 262 252 216 256 Q 200 256 198 242 Q 197 234 200 227 Q 204 220 210 219 Q 239 214 281 210 Q 289 209 294 214 Q 300 219 301 225 Z M 487 246 Q 483 261 467 260 Q 421 252 401 246 Q 384 241 387 223 Q 391 208 405 208 Q 461 219 474 223 Q 483 225 486 233 Q 489 239 487 246 Z M 446 182 Q 443 186 436 188 Q 429 189 405 192 Q 398 193 394 188 Q 390 183 389 176 Q 388 170 391 164 Q 394 158 401 157 Q 412 155 434 152 Q 439 152 443 154 Q 445 147 447 140 Q 447 136 446 134 Q 443 131 439 132 Q 410 133 382 135 Q 376 207 372 237 Q 371 249 361 255 Q 353 259 340 259 Q 328 258 320 252 Q 312 246 313 236 Q 316 188 320 141 Q 294 143 282 145 Q 261 147 259 126 Q 258 117 263 110 Q 268 103 278 102 Q 301 100 324 98 Q 326 81 327 65 Q 257 62 223 60 Q 211 59 205 53 Q 199 46 200 38 Q 201 20 223 17 Q 352 21 466 28 Q 477 28 484 35 Q 489 41 489 50 Q 488 68 467 69 Q 427 69 387 68 Q 386 80 385 94 Q 410 92 462 89 Q 494 88 503 102 Q 512 114 506 137 Q 500 159 494 177 Q 474 174 459 188 Q 454 187 446 182 Z M 441 366 Q 438 340 418 328 Q 401 317 368 315 Q 373 336 378 356 Q 409 361 441 366 Z M 438 398 Q 400 393 385 390 Q 390 412 394 434 Q 412 429 421 421 Q 432 413 438 398 Z M 355 438 Q 352 421 343 384 Q 325 382 305 378 Q 289 375 291 360 Q 293 345 308 345 Q 322 347 336 350 Q 335 347 330 323 Q 330 320 330 316 Q 285 322 237 341 Q 216 349 207 329 Q 203 319 205 309 Q 209 298 222 293 Q 289 270 344 268 Q 419 266 459 292 Q 499 318 500 373 Q 501 431 455 461 Q 413 486 346 484 Q 282 483 250 457 Q 216 432 216 375 Q 216 362 226 355 Q 234 349 246 348 Q 260 348 269 353 Q 279 359 279 368 Q 278 401 294 420 Q 311 437 353 438 Z M 252 155 Q 256 154 260 154 Q 282 158 298 160 Q 310 166 308 181 Q 306 196 290 196 Q 256 189 254 189 Q 247 187 243 181 Q 238 186 230 188 Q 219 191 210 188 Q 199 184 196 173 Q 185 130 184 126 Q 184 106 204 100 Q 216 96 226 99 Q 238 102 241 113 Q 246 131 252 155 Z M 124 335 Q 126 380 128 401 Q 129 411 134 412 Q 139 412 147 406 Q 156 399 165 389 Q 174 380 184 384 Q 192 387 199 397 Q 212 421 195 435 Q 178 450 155 465 Q 126 482 105 479 Q 91 477 81 465 Q 71 453 69 431 Q 65 386 62 343 Q 55 344 39 346 Q 40 349 14 342 Q 6 337 5 322 Q 0 293 30 289 Q 45 287 59 285 Q 58 257 58 244 Q 57 231 68 224 Q 54 223 39 221 Q 29 221 24 211 Q 19 202 20 190 Q 22 177 27 170 Q 34 162 46 162 Q 94 166 160 173 Q 187 175 185 204 Q 181 233 155 231 Q 145 231 117 229 Q 120 234 120 241 Q 121 259 121 275 Q 134 274 159 270 Q 175 268 183 274 Q 190 279 192 293 Q 194 309 190 316 Q 185 326 169 328 Q 139 332 124 335 Z M 97 55 Q 128 52 159 48 Q 185 46 189 73 Q 192 104 165 107 Q 121 113 75 117 Q 73 125 67 140 Q 61 160 41 162 Q 33 163 24 160 Q 13 156 8 148 Q 2 139 5 127 Q 24 74 43 21 Q 47 9 59 4 Q 69 0 82 4 Q 107 11 103 36 Q 100 46 97 55 Z" fill="black" />
  </g>
  <g class="defect" id="01">
    <path d="M 39 346 Q 40 349 14 342" fill="none" stroke="red" stroke-width="3" />
  </g>
  <g class="defect" id="02">
    <path d="M 494 177 Q 474 174 459 188" fill="none" stroke="red" stroke-width="3" />
  </g>
</svg>