<svg xmlns="http://www.w3.org/2000/svg" width="512" height="512" viewBox="0 0 512 512">
  <g class="glyph">
    <path d="M 191 398 Q 195 407 194 417 Q 193 428 183 433 Q 135 453 49 485 Q 38 489 28 485 Q 20 481 15 472 Q 10 462 13 451 Q 15 440 25 436 Q 78 414 155 384 Q 179 376 191 398 Z M 195 347 Q 192 370 168 370 Q 103 358 38 346 Q 26 345 21 335 Q 16 326 18 315 Q 21 294 42 294 Q 136 309 175 317 Q 186 319 191 328 Q 196 336 195 347 Z M 462 148 Q 474 149 485 149 Q 495 150 501 158 Q 505 165 505 175 Q 504 186 499 193 Q 493 201 481 200 Q 470 199 459 199 Q 450 246 418 266 Q 386 286 306 286 H 295 Q 296 309 297 332 Q 298 332 300 333 Q 307 337 357 361 Q 388 319 404 297 Q 411 289 424 288 Q 435 287 446 294 Q 456 301 459 309 Q 462 319 455 331 Q 414 389 413 390 Q 467 417 490 431 Q 502 438 505 450 Q 507 461 500 471 Q 494 481 484 485 Q 473 490 459 483 Q 356 432 299 401 Q 299 421 300 441 Q 301 477 287 494 Q 271 512 237 509 Q 210 507 186 502 Q 163 497 166 469 Q 181 455 173 448 Q 180 440 192 442 Q 207 446 217 446 Q 225 447 228 445 Q 231 442 231 434 Q 229 360 226 283 Q 133 279 67 269 Q 59 267 56 259 Q 53 252 54 244 Q 57 223 79 226 Q 137 234 224 238 Q 223 213 222 188 Q 77 182 22 178 Q 10 178 5 169 Q 0 161 1 150 Q 3 127 26 127 Q 131 132 219 136 Q 218 115 216 93 Q 147 97 76 106 Q 53 109 49 89 Q 46 75 54 67 Q 58 62 66 62 Q 123 53 213 47 Q 213 41 211 29 Q 210 13 222 6 Q 230 1 246 1 Q 279 0 280 25 Q 281 38 281 45 Q 297 44 321 44 Q 407 56 426 69 Q 459 93 462 148 Z M 401 145 Q 399 122 389 110 Q 369 87 317 89 Q 311 89 285 90 Q 285 106 287 139 Q 363 143 401 145 Z M 398 196 Q 369 195 290 191 Q 291 216 293 241 Q 360 241 378 226 Q 393 215 398 196 Z" fill="black" />
  </g>
  <g class="defect" id="01">
    <path d="M 321 44 Q 407 56 426 69" fill="none" stroke="red" stroke-width="3" />
  </g>
  <g class="defect" id="02">
    <path d="M 166 469 Q 181 455 173 448" fill="none" stroke="red" stroke-width="3" />
  </g>
</svg>