<svg xmlns="http://www.w3.org/2000/svg" width="512" height="512" viewBox="0 0 512 512">
  <g class="glyph">
    <path d="M 78 465 Q 79 478 69 487 Q 62 494 48 496 Q 34 497 25 490 Q 13 482 13 468 Q -12 252 1 156 Q 0 142 10 134 Q 19 127 33 127 Q 41 126 48 129 Q 65 135 65 151 Q 75 333 78 465 Z M 351 398 Q 338 428 308 445 Q 281 460 249 461 Q 224 464 177 443 Q 143 422 131 383 Q 113 323 124 266 Q 134 207 183 158 Q 193 146 207 145 Q 220 144 231 151 Q 241 158 243 169 Q 245 180 237 191 Q 198 232 189 269 Q 176 312 196 367 Q 203 385 217 395 Q 229 403 246 403 Q 262 402 275 393 Q 289 382 296 365 Q 308 326 301 290 Q 295 253 267 217 Q 261 205 266 194 Q 271 184 283 179 Q 294 175 306 179 Q 319 183 326 195 Q 356 234 365 283 Q 375 343 351 398 Z M 145 120 Q 137 130 125 133 Q 112 136 100 128 Q 58 95 16 61 Q 5 52 6 39 Q 6 26 16 15 Q 25 5 37 3 Q 50 0 62 8 Q 116 49 142 71 Q 166 94 145 120 Z M 486 98 Q 482 292 471 455 Q 469 487 445 501 Q 427 512 401 506 Q 378 500 344 486 Q 334 481 332 469 Q 330 458 334 447 Q 344 419 362 424 Q 381 434 392 436 Q 406 440 407 423 Q 418 273 419 113 Q 419 93 412 86 Q 405 78 385 79 Q 304 88 224 113 Q 191 124 183 91 Q 180 78 184 68 Q 190 56 207 52 Q 292 27 391 19 Q 441 18 462 32 Q 487 50 486 98 Z" fill="black" />
  </g>
  <g class="defect" id="01">
    <path d="M 13 468 Q -12 252 1 156" fill="none" stroke="red" stroke-width="3" />
  </g>
  <g class="defect" id="02">
    <path d="M 249 461 Q 224 464 177 443" fill="none" stroke="red" stroke-width="3" />
  </g>
</svg>