<svg xmlns="http://www.w3.org/2000/svg" width="512" height="512" viewBox="0 0 512 512">
  <g class="glyph">
    <path d="M 197 424 Q 164 459 131 480 Q 102 498 79 491 Q 50 482 47 440 Q 40 331 40 282 Q 40 269 50 262 Q 58 255 71 255 Q 65 236 92 261 Q 101 267 101 279 Q 107 411 107 420 Q 108 428 111 428 Q 115 429 121 424 Q 149 401 165 384 Q 172 377 182 378 Q 192 379 198 388 Q 212 404 197 424 Z M 493 398 Q 492 452 456 478 Q 427 498 371 501 Q 314 503 275 482 Q 241 460 241 408 Q 241 396 251 390 Q 261 385 273 385 Q 305 385 306 407 Q 305 425 320 438 Q 342 450 370 450 Q 400 448 416 433 Q 428 420 429 397 Q 429 366 404 357 Q 383 348 343 353 Q 292 359 255 376 Q 231 386 222 360 Q 212 335 235 326 Q 278 306 345 300 Q 410 295 448 316 Q 495 340 493 398 Z M 400 201 Q 448 228 499 257 Q 509 263 511 274 Q 512 285 505 295 Q 499 305 489 308 Q 477 312 464 305 Q 371 251 348 238 Q 297 274 242 300 Q 211 310 200 290 Q 194 279 196 267 Q 199 255 212 249 Q 255 230 294 206 Q 290 204 285 201 Q 276 195 275 185 Q 275 175 281 165 Q 295 142 317 153 Q 332 162 347 170 Q 376 149 412 119 Q 415 115 413 111 Q 411 107 405 107 Q 331 119 292 128 Q 291 128 289 128 Q 263 167 259 172 Q 251 182 239 184 Q 228 184 218 177 Q 209 171 206 161 Q 203 149 210 139 Q 257 68 287 22 Q 303 0 331 15 Q 355 30 341 50 Q 337 57 332 63 Q 379 55 423 51 Q 468 50 480 81 Q 487 98 483 115 Q 480 135 463 149 Q 435 173 400 201 Z M 108 99 Q 126 105 143 111 Q 177 122 186 142 Q 196 161 186 195 Q 162 227 168 256 Q 162 271 148 273 Q 141 273 135 271 Q 124 267 120 260 Q 114 251 118 241 Q 128 211 134 188 Q 141 169 123 164 Q 124 167 88 152 Q 71 196 64 214 Q 59 227 46 231 Q 35 235 23 231 Q 0 222 7 192 Q 32 119 66 39 Q 70 29 82 25 Q 94 22 105 26 Q 128 35 123 60 Q 116 80 108 99 Z" fill="black" />
  </g>
  <g class="defect" id="01">
    <path d="M 71 255 Q 65 236 92 261" fill="none" stroke="red" stroke-width="3" />
  </g>
  <g class="defect" id="02">
    <path d="M 186 195 Q 162 227 168 256" fill="none" stroke="red" stroke-width="3" />
  </g>
  <g class="defect" id="03">
    <path d="M 123 164 Q 124 167 88 152" fill="none" stroke="red" stroke-width="3" />
  </g>
</svg>