<svg xmlns="http://www.w3.org/2000/svg" width="512" height="512" viewBox="0 0 512 512">
  <g class="glyph">
    <path d="M 317 398 Q 295 439 279 460 Q 263 479 242 469 Q 223 457 233 436 Q 260 390 271 374 Q 281 358 303 367 Q 325 377 317 398 Z M 41 475 Q 18 479 12 457 Q 10 446 13 437 Q 17 427 27 425 Q 109 407 191 389 Q 217 382 223 407 Q 226 417 222 426 Q 218 436 208 438 Q 131 456 41 475 Z M 447 323 Q 442 328 435 330 Q 412 336 405 337 L 405 339 Q 408 353 412 382 Q 424 369 439 375 Q 461 385 497 405 Q 506 411 509 420 Q 510 429 506 437 Q 496 457 474 449 Q 447 436 419 420 Q 417 418 415 417 Q 416 430 417 436 Q 418 468 403 480 Q 391 491 363 488 Q 339 487 323 482 Q 306 476 308 456 Q 310 447 315 440 Q 321 434 328 435 Q 336 437 341 439 Q 348 439 351 438 Q 354 435 354 430 Q 352 396 345 348 Q 326 350 322 351 Q 279 354 262 328 Q 253 313 256 295 Q 259 276 275 263 Q 296 245 307 236 H 305 Q 268 236 258 212 Q 249 191 267 162 Q 301 108 329 72 Q 281 78 258 81 Q 232 85 228 61 Q 224 36 250 33 Q 321 21 466 2 Q 493 0 497 21 Q 502 47 474 51 Q 437 57 399 63 Q 401 70 395 78 Q 353 126 319 176 Q 314 182 317 186 Q 319 189 328 189 Q 346 188 375 183 Q 405 160 438 138 Q 461 123 479 140 Q 488 148 488 159 Q 488 170 476 178 Q 383 239 324 289 Q 317 294 320 299 Q 323 304 332 303 Q 375 297 424 284 Q 426 284 427 283 Q 425 279 423 274 Q 430 278 423 255 Q 426 248 435 244 Q 444 240 453 241 Q 464 243 468 250 Q 491 294 504 324 Q 512 342 493 352 Q 470 363 458 345 Q 452 334 447 323 Z M 193 266 Q 167 271 147 274 Q 148 301 149 328 Q 169 322 179 307 Q 192 291 193 266 Z M 190 236 Q 184 211 166 201 Q 157 195 143 193 Q 143 209 145 244 Q 168 240 190 236 Z M 181 155 Q 192 160 200 166 Q 237 191 241 249 Q 244 307 213 340 Q 184 369 135 373 Q 104 376 78 367 Q 50 357 36 336 Q 26 321 21 296 Q 17 271 19 249 Q 21 225 46 225 Q 56 225 63 230 Q 70 236 70 246 Q 66 282 77 310 Q 88 329 114 332 Q 114 315 112 280 Q 104 281 96 283 Q 82 284 80 272 Q 77 263 82 258 Q 85 254 90 254 Q 100 252 110 250 Q 109 222 108 193 H 107 Q 56 196 46 210 Q 23 219 14 200 Q 10 191 12 182 Q 14 173 24 167 Q 61 152 103 147 Q 106 146 113 146 Q 123 137 132 127 Q 139 121 135 116 Q 133 114 130 113 Q 104 108 81 106 Q 74 118 67 130 Q 58 144 45 147 Q 51 149 23 143 Q 0 131 11 109 Q 39 60 63 25 Q 76 3 103 14 Q 127 24 118 46 Q 113 54 108 63 Q 131 65 161 71 Q 194 76 201 100 Q 209 122 187 149 Q 184 152 181 155 Z" fill="black" />
  </g>
  <g class="defect" id="01">
    <path d="M 45 147 Q 51 149 23 143" fill="none" stroke="red" stroke-width="3" />
  </g>
  <g class="defect" id="02">
    <path d="M 423 274 Q 430 278 423 255" fill="none" stroke="red" stroke-width="3" />
  </g>
  <g class="defect" id="03">
    <path d="M 107 193 Q 56 196 46 210" fill="none" stroke="red" stroke-width="3" />
  </g>
</svg>