<svg xmlns="http://www.w3.org/2000/svg" width="512" height="512" viewBox="0 0 512 512">
  <g class="glyph">
    <path d="M 414 411 Q 415 420 410 428 Q 405 437 397 439 Q 331 453 266 466 Q 246 466 242 447 Q 239 431 248 423 Q 252 417 260 417 Q 325 403 390 388 Q 402 387 408 394 Q 413 400 414 411 Z M 505 460 Q 506 486 491 499 Q 476 512 452 507 Q 409 501 393 497 Q 384 494 380 487 Q 376 480 378 471 Q 379 461 384 454 Q 391 447 398 448 Q 415 452 432 456 Q 438 458 440 455 Q 442 453 442 447 Q 441 409 435 367 Q 431 345 407 350 Q 374 355 335 364 Q 306 372 286 363 Q 259 353 259 319 Q 260 253 268 140 Q 269 129 280 123 Q 289 118 302 118 Q 314 119 322 125 Q 331 131 330 142 Q 320 293 320 301 Q 320 312 325 314 Q 329 316 341 314 Q 375 307 421 301 Q 447 298 463 305 Q 486 314 492 348 Q 501 400 505 460 Z M 412 175 Q 417 188 404 197 Q 386 208 376 195 Q 361 178 348 158 Q 342 143 357 134 Q 371 126 383 136 Q 400 154 412 175 Z M 398 61 Q 407 62 423 64 Q 461 71 475 83 Q 493 99 491 135 Q 490 167 483 234 Q 480 263 465 274 Q 447 286 409 280 Q 387 276 367 270 Q 358 268 355 259 Q 351 250 354 240 Q 359 220 379 222 Q 407 228 411 228 Q 424 230 425 218 Q 429 184 431 136 Q 431 125 425 120 Q 421 115 409 113 Q 338 105 274 100 Q 264 99 259 91 Q 255 83 255 72 Q 256 63 262 56 Q 269 49 279 49 Q 313 51 327 53 Q 342 27 354 11 Q 359 3 371 2 Q 382 0 393 3 Q 423 13 414 34 Q 409 44 398 61 Z M 158 292 Q 185 298 200 310 Q 234 334 235 383 Q 235 426 211 456 Q 178 491 121 490 Q 62 488 39 457 Q 26 438 27 402 Q 25 390 34 380 Q 41 373 54 370 Q 69 366 79 373 Q 84 376 85 382 Q 84 404 90 420 Q 97 437 121 438 Q 152 439 165 423 Q 175 410 175 387 Q 175 364 161 350 Q 147 337 113 340 Q 79 342 44 356 Q 31 361 21 355 Q 13 350 10 339 Q 7 330 10 322 Q 14 314 23 310 Q 59 295 96 291 Q 95 272 92 235 Q 64 233 25 229 Q 10 228 5 219 Q 0 212 1 200 Q 2 187 7 181 Q 14 173 28 174 Q 69 177 89 179 Q 88 151 87 124 Q 68 130 49 136 Q 25 143 18 116 Q 14 101 21 91 Q 25 85 32 83 Q 97 61 196 29 Q 211 26 219 30 Q 227 33 231 45 Q 240 73 214 82 Q 195 89 148 104 Q 148 105 148 108 Q 150 146 153 185 Q 186 187 218 190 Q 246 191 240 199 Q 245 206 244 219 Q 242 248 215 245 Q 185 243 155 241 Q 157 275 158 292 Z" fill="black" />
  </g>
  <g class="defect" id="01">
    <path d="M 218 190 Q 246 191 240 199" fill="none" stroke="red" stroke-width="3" />
  </g>
  <g class="defect" id="02">
    <path d="M 409 113 Q 338 105 274 100" fill="none" stroke="red" stroke-width="3" />
  </g>
</svg>