<svg xmlns="http://www.w3.org/2000/svg" width="512" height="512" viewBox="0 0 512 512">
  <g class="glyph">
    <path d="M 336 69 Q 354 117 342 148 Q 347 178 360 204 Q 412 156 443 98 Q 462 121 486 141 Q 462 154 441 177 Q 421 200 377 243 Q 406 297 434 334 Q 478 390 512 404 Q 482 417 466 443 Q 382 367 334 236 V 436 Q 334 482 310 490 Q 286 499 252 505 Q 247 475 232 447 Q 267 453 280 449 Q 293 445 293 419 V 80 Q 293 33 291 0 H 341 Q 336 22 336 69 Z M 267 141 Q 258 252 233 318 Q 208 384 148 458 Q 126 436 100 425 Q 139 399 178 336 Q 217 273 226 180 Q 171 180 141 182 V 139 Q 171 141 210 141 Z M 39 434 Q 4 424 0 393 Q 39 345 65 299 Q 91 254 108 217 Q 124 241 139 254 Q 115 293 85 348 Q 54 404 39 434 Z M 128 143 Q 104 158 87 174 Q 78 154 15 76 Q 35 61 50 46 Q 89 91 128 143 Z" fill="black" />
  </g>
  <g class="defect" id="01">
    <path d="M 336 69 Q 354 117 342 148" fill="none" stroke="red" stroke-width="3" />
  </g>
  <g class="defect" id="02">
    <path d="M 434 334 Q 478 390 512 404" fill="none" stroke="red" stroke-width="3" />
  </g>
  <g class="defect" id="03">
    <path d="M 39 434 Q 4 424 0 393" fill="none" stroke="red" stroke-width="3" />
  </g>
</svg>