<svg xmlns="http://www.w3.org/2000/svg" width="512" height="512" viewBox="0 0 512 512">
  <g class="glyph">
    <path d="M 143 444 V 415 H 79 Q 55 415 29 417 V 380 Q 60 382 79 382 H 143 V 349 H 46 Q 26 349 0 351 V 313 Q 26 316 49 316 H 143 V 282 H 75 Q 55 282 29 285 V 247 Q 55 249 75 249 H 143 V 218 H 38 Q 40 192 40 163 Q 40 135 38 113 H 143 V 82 H 46 Q 31 82 2 84 V 46 Q 29 49 44 49 H 143 Q 143 29 141 0 H 188 Q 183 22 183 49 H 280 Q 296 49 329 46 V 84 Q 296 82 280 82 H 183 V 113 H 289 Q 287 137 287 166 Q 287 192 289 218 H 183 V 249 H 305 Q 302 278 302 298 V 316 Q 320 316 340 313 V 351 Q 316 349 302 349 V 417 L 183 415 V 463 Q 183 488 168 497 Q 162 492 97 510 Q 93 483 84 461 Q 121 466 132 463 Q 143 461 143 444 Z M 457 437 V 68 Q 457 35 455 4 H 499 Q 477 47 497 68 V 463 Q 497 488 478 497 Q 459 505 413 512 Q 406 488 393 461 Q 430 463 444 461 Q 457 459 457 437 Z M 366 130 Q 366 102 364 68 H 406 Q 404 102 404 130 V 313 Q 404 362 406 388 H 364 Q 366 355 366 313 Z M 263 382 V 349 H 183 V 382 Z M 263 316 V 282 H 183 V 316 Z M 249 185 V 146 H 183 V 185 Z M 143 185 V 146 H 79 V 185 Z" fill="black" />
  </g>
  <g class="defect" id="01">
    <path d="M 499 4 Q 477 47 497 68" fill="none" stroke="red" stroke-width="3" />
  </g>
  <g class="defect" id="02">
    <path d="M 168 497 Q 162 492 97 510" fill="none" stroke="red" stroke-width="3" />
  </g>
</svg>