<svg xmlns="http://www.w3.org/2000/svg" width="512" height="512" viewBox="0 0 512 512">
  <g class="glyph">
    <path d="M 452 242 Q 449 287 449 333 Q 449 378 452 413 H 372 V 458 Q 372 475 391 475 H 432 Q 445 475 449 466 Q 454 456 458 430 Q 473 443 499 452 Q 490 473 482 488 Q 473 503 441 503 H 376 Q 337 503 337 473 V 413 H 281 Q 279 445 253 472 Q 227 499 134 512 Q 137 505 114 473 Q 188 471 215 456 Q 242 441 244 413 H 169 Q 171 387 171 331 Q 171 272 169 242 Z M 123 138 V 309 Q 138 358 125 398 H 91 V 367 H 37 V 410 H 0 Q 2 382 2 363 V 138 Q 2 95 0 56 H 125 Q 123 95 123 138 Z M 292 17 V 48 Q 270 45 251 45 V 80 H 292 V 158 H 251 V 194 Q 274 194 300 192 V 223 Q 272 220 255 220 H 147 Q 149 192 149 179 V 69 Q 149 45 147 19 H 235 Q 270 19 292 17 Z M 488 171 Q 488 197 490 220 H 320 Q 322 197 322 171 Q 322 143 320 119 H 490 Q 488 143 488 171 Z M 91 341 V 84 H 37 V 341 Z M 486 67 Q 462 65 432 65 Q 441 80 454 102 Q 436 106 421 112 Q 410 84 398 65 H 369 Q 348 95 333 112 Q 315 97 298 91 Q 318 73 333 50 Q 348 26 356 0 Q 378 9 400 15 Q 389 26 380 37 H 436 Q 458 37 486 35 Z M 415 289 V 268 H 207 V 289 Z M 415 337 V 315 H 207 V 337 Z M 415 382 V 363 H 207 V 382 Z M 259 132 V 106 H 179 V 132 Z M 220 80 V 45 H 179 V 80 Z M 220 190 V 158 H 179 V 190 Z M 460 194 V 147 H 439 V 194 Z M 369 194 V 147 H 348 V 194 Z M 415 194 V 147 H 393 V 194 Z" fill="black" />
  </g>
  <g class="defect" id="01">
    <path d="M 134 512 Q 137 505 114 473" fill="none" stroke="red" stroke-width="3" />
  </g>
  <g class="defect" id="02">
    <path d="M 123 309 Q 138 358 125 398" fill="none" stroke="red" stroke-width="3" />
  </g>
</svg>