<svg xmlns="http://www.w3.org/2000/svg" width="512" height="512" viewBox="0 0 512 512">
  <g class="glyph">
    <path d="M 122 381 Q 105 405 86 431 Q 66 456 43 482 Q 21 465 0 452 Q 60 411 88 358 Q 69 345 49 334 Q 30 323 13 313 Q 41 214 56 146 Q 28 146 6 150 V 111 Q 30 114 62 114 Q 66 88 71 63 Q 75 39 79 13 Q 99 17 126 24 Q 114 43 108 64 Q 103 86 99 114 H 167 Q 165 191 159 243 Q 152 296 139 345 Q 174 366 186 375 Q 174 392 163 411 Q 141 392 122 381 Z M 450 231 Q 432 257 452 293 H 225 Q 227 257 227 231 Q 227 206 225 178 H 452 Q 450 204 450 231 Z M 261 381 H 236 Q 222 362 189 383 V 347 Q 206 349 238 349 H 263 V 302 Q 283 304 308 306 Q 302 328 302 349 H 383 Q 383 326 381 304 H 424 Q 422 326 422 349 H 454 Q 471 349 501 347 V 383 Q 467 381 454 381 H 422 V 439 Q 422 476 424 503 H 381 Q 383 480 383 443 V 381 H 298 Q 296 431 280 457 Q 263 484 216 512 Q 201 491 189 473 Q 242 461 251 434 Q 259 407 261 381 Z M 403 116 V 146 H 274 V 120 Q 249 139 201 163 Q 186 141 174 124 Q 227 109 263 77 Q 300 45 321 0 Q 334 4 377 17 L 360 32 Q 379 60 421 87 Q 463 114 512 120 Q 495 139 488 163 Q 426 139 403 116 Z M 133 146 H 90 Q 66 242 54 296 Q 71 308 105 323 Q 116 291 123 250 Q 131 208 133 146 Z M 413 266 V 208 H 263 V 266 Z M 398 114 Q 368 94 336 51 Q 302 96 278 114 Z" fill="black" />
  </g>
  <g class="defect" id="01">
    <path d="M 450 231 Q 432 257 452 293" fill="none" stroke="red" stroke-width="3" />
  </g>
  <g class="defect" id="02">
    <path d="M 236 381 Q 222 362 189 383" fill="none" stroke="red" stroke-width="3" />
  </g>
</svg>