<svg xmlns="http://www.w3.org/2000/svg" width="512" height="512" viewBox="0 0 512 512">
  <g class="glyph">
    <path d="M 481 459 Q 457 481 448 499 Q 417 481 355 454 Q 294 426 260 413 Q 243 435 222 449 Q 201 463 173 474 Q 163 486 60 503 Q 55 486 31 463 Q 62 461 96 456 Q 145 437 174 431 Q 218 413 234 371 H 148 Q 119 371 84 373 V 335 Q 119 338 143 338 H 238 Q 241 318 241 296 H 154 V 280 Q 135 298 108 314 Q 82 331 33 353 Q 26 333 0 313 Q 38 307 82 285 Q 126 263 166 221 H 77 Q 44 221 11 223 V 188 Q 44 190 77 190 H 185 Q 194 172 199 154 H 128 Q 93 154 60 157 V 121 Q 93 124 128 124 H 210 Q 214 104 218 82 H 108 Q 73 82 40 84 V 46 Q 83 68 108 49 H 225 Q 227 26 227 0 Q 256 4 282 2 Q 274 22 269 49 H 404 Q 437 49 477 46 V 84 Q 439 82 404 82 H 263 Q 256 106 252 124 H 393 Q 419 124 452 121 V 157 Q 419 154 393 154 H 243 L 230 190 H 428 Q 461 190 494 188 V 223 Q 463 221 428 221 H 369 Q 395 249 428 268 Q 461 287 512 302 Q 486 318 483 338 Q 437 320 409 305 Q 382 289 364 269 V 296 H 282 Q 280 316 280 338 H 382 Q 413 338 444 335 V 373 Q 413 371 384 371 H 278 Q 276 380 274 384 Q 322 402 372 418 Q 422 435 481 459 Z M 358 263 Q 344 247 327 221 H 212 Q 194 245 177 263 Z" fill="black" />
  </g>
  <g class="defect" id="01">
    <path d="M 173 474 Q 163 486 60 503" fill="none" stroke="red" stroke-width="3" />
  </g>
  <g class="defect" id="02">
    <path d="M 96 456 Q 145 437 174 431" fill="none" stroke="red" stroke-width="3" />
  </g>
  <g class="defect" id="03">
    <path d="M 40 46 Q 83 68 108 49" fill="none" stroke="red" stroke-width="3" />
  </g>
</svg>