<svg xmlns="http://www.w3.org/2000/svg" width="512" height="512" viewBox="0 0 512 512">
  <g class="glyph">
    <path d="M 181 283 Q 214 266 242 240 Q 270 214 294 179 H 244 Q 250 164 192 181 V 149 Q 244 151 272 151 H 328 V 63 Q 302 65 274 69 L 218 78 Q 212 60 203 43 Q 283 39 350 27 Q 417 15 449 0 Q 458 19 477 43 Q 452 43 418 50 Q 374 44 363 58 V 151 H 426 Q 462 151 506 149 V 181 Q 462 179 428 179 H 393 Q 413 207 440 230 Q 467 253 512 268 Q 511 263 484 307 Q 469 296 458 287 V 426 Q 458 462 460 501 H 423 V 469 H 259 V 501 H 227 Q 229 467 229 430 V 300 Q 218 307 212 315 Q 199 298 181 283 Z M 179 350 Q 179 391 181 423 H 147 V 387 L 0 421 Q 2 376 2 339 V 160 Q 2 125 0 97 H 37 Q 35 125 35 160 V 382 L 73 374 V 50 Q 73 28 71 6 H 108 Q 106 28 106 50 V 365 L 147 356 V 158 Q 147 123 145 86 H 181 Q 179 114 179 158 Z M 326 270 Q 328 251 328 235 V 184 Q 315 205 293 233 Q 270 261 246 285 H 456 Q 417 259 399 238 Q 380 216 363 184 V 235 Q 363 251 365 270 Z M 328 365 V 313 H 259 V 365 Z M 328 441 V 393 H 259 V 441 Z M 423 365 V 313 H 363 V 365 Z M 423 441 V 393 H 363 V 441 Z M 419 143 Q 406 134 387 127 Q 413 91 421 69 Q 436 76 460 86 Q 430 123 419 143 Z M 296 125 Q 281 132 266 143 Q 251 117 238 99 Q 251 89 266 80 Z" fill="black" />
  </g>
  <g class="defect" id="01">
    <path d="M 418 50 Q 374 44 363 58" fill="none" stroke="red" stroke-width="3" />
  </g>
  <g class="defect" id="02">
    <path d="M 512 268 Q 511 263 484 307" fill="none" stroke="red" stroke-width="3" />
  </g>
  <g class="defect" id="03">
    <path d="M 244 179 Q 250 164 192 181" fill="none" stroke="red" stroke-width="3" />
  </g>
</svg>