<svg xmlns="http://www.w3.org/2000/svg" width="512" height="512" viewBox="0 0 512 512">
  <g class="glyph">
    <path d="M 194 351 Q 194 396 196 428 H 159 V 389 L 0 426 Q 2 376 2 340 V 166 Q 2 131 0 99 H 41 Q 39 131 39 166 V 385 L 77 374 V 54 Q 77 41 75 11 H 114 Q 112 37 112 54 V 364 L 159 355 V 161 Q 159 129 157 88 H 196 Q 179 157 194 161 Z M 463 271 Q 480 271 506 269 V 303 Q 482 301 465 301 H 336 Q 336 325 331 351 H 480 Q 473 400 469 446 Q 465 493 445 497 Q 426 501 387 506 Q 381 484 372 465 Q 422 469 426 458 Q 441 447 435 381 H 325 Q 321 411 302 442 Q 284 473 239 512 Q 224 497 198 486 Q 267 441 281 389 Q 282 338 295 301 H 269 Q 252 301 222 303 V 269 Q 252 271 273 271 H 351 Q 346 252 340 226 Q 355 222 381 217 Q 385 241 394 271 Z M 469 232 V 194 H 258 V 237 H 222 Q 224 217 224 200 Q 224 181 222 163 H 383 Q 387 153 402 95 Q 417 99 445 110 Q 435 129 422 163 H 506 Q 503 179 503 196 Q 503 213 506 232 Z M 387 56 H 445 Q 480 56 506 54 V 88 Q 480 86 445 86 H 286 Q 250 86 222 88 V 54 Q 250 56 286 56 H 344 Q 338 32 331 11 Q 353 4 372 0 Q 383 43 387 56 Z M 278 110 Q 288 99 312 93 Q 321 116 333 146 Q 316 151 299 159 Q 288 136 278 110 Z" fill="black" />
  </g>
  <g class="defect" id="01">
    <path d="M 281 389 Q 282 338 295 301" fill="none" stroke="red" stroke-width="3" />
  </g>
  <g class="defect" id="02">
    <path d="M 196 88 Q 179 157 194 161" fill="none" stroke="red" stroke-width="3" />
  </g>
  <g class="defect" id="03">
    <path d="M 426 458 Q 441 447 435 381" fill="none" stroke="red" stroke-width="3" />
  </g>
</svg>