<svg xmlns="http://www.w3.org/2000/svg" width="512" height="512" viewBox="0 0 512 512">
  <g class="glyph">
    <path d="M 186 268 V 130 Q 186 82 184 65 H 274 Q 283 35 287 0 Q 315 9 335 13 Q 320 37 311 65 H 471 Q 453 111 469 134 V 266 Q 469 305 471 343 H 434 V 93 H 218 V 348 H 184 Q 186 307 186 268 Z M 352 398 Q 380 434 420 453 Q 460 471 508 473 Q 488 499 486 512 Q 430 503 390 479 Q 350 454 322 413 Q 302 445 257 472 Q 212 499 151 512 Q 158 493 130 473 Q 184 469 227 448 Q 270 428 287 398 H 229 Q 181 398 147 400 V 365 Q 177 367 231 367 H 298 Q 305 350 305 328 Q 326 335 350 337 Q 341 354 339 367 H 436 Q 484 367 501 365 V 400 Q 484 398 441 398 Z M 106 89 V 419 Q 106 462 108 508 H 69 Q 71 462 71 417 V 93 Q 71 54 69 15 H 108 Q 106 37 106 89 Z M 341 188 H 421 V 216 H 341 V 315 H 309 V 238 Q 277 292 248 318 Q 235 305 220 296 Q 244 279 259 259 Q 274 240 285 216 H 229 V 188 H 309 Q 309 153 307 108 H 343 Q 341 138 341 188 Z M 17 134 Q 32 140 58 140 Q 54 162 50 189 Q 45 216 39 268 L 0 264 Q 17 186 17 134 Z M 175 210 Q 162 214 140 220 Q 134 177 119 127 Q 136 123 151 117 Q 169 177 175 210 Z M 421 300 Q 406 307 391 320 Q 374 287 346 246 Q 377 240 372 227 Q 380 240 421 300 Z M 354 171 Q 363 156 380 112 Q 398 121 415 125 Q 404 140 398 154 Q 391 169 385 181 Q 372 175 354 171 Z M 289 164 Q 274 169 259 177 Q 251 149 235 125 Q 251 119 266 110 Q 279 138 289 164 Z" fill="black" />
  </g>
  <g class="defect" id="01">
    <path d="M 151 512 Q 158 493 130 473" fill="none" stroke="red" stroke-width="3" />
  </g>
  <g class="defect" id="02">
    <path d="M 346 246 Q 377 240 372 227" fill="none" stroke="red" stroke-width="3" />
  </g>
  <g class="defect" id="03">
    <path d="M 471 65 Q 453 111 469 134" fill="none" stroke="red" stroke-width="3" />
  </g>
</svg>