<svg xmlns="http://www.w3.org/2000/svg" width="512" height="512" viewBox="0 0 512 512">
  <g class="glyph">
    <path d="M 311 431 Q 287 409 257 358 Q 225 388 197 409 L 169 381 Q 221 370 231 332 Q 257 304 276 263 Q 296 274 315 283 Q 300 300 291 313 H 456 Q 448 328 428 360 Q 409 392 368 431 Q 383 443 425 455 Q 467 467 510 469 Q 493 488 486 512 Q 450 506 410 491 Q 371 476 338 454 Q 304 473 265 487 Q 225 501 167 512 Q 161 491 148 469 Q 197 471 239 462 Q 281 452 311 431 Z M 107 79 V 398 Q 107 456 109 510 H 73 Q 75 456 75 401 V 77 Q 86 58 73 4 H 109 Q 107 39 107 79 Z M 240 45 Q 238 90 238 165 H 437 Q 437 86 435 45 H 476 Q 473 79 473 122 Q 473 163 476 193 H 204 Q 206 163 206 120 Q 206 77 204 45 Z M 315 79 Q 293 56 263 30 Q 276 17 287 2 Q 319 32 343 54 Q 366 34 388 0 Q 403 17 418 30 Q 371 47 366 79 L 420 133 Q 405 141 390 159 Q 368 131 341 105 Q 304 133 268 154 Q 255 133 246 122 Q 285 107 315 79 Z M 506 278 Q 493 296 482 315 Q 448 281 381 236 Q 390 221 401 208 Q 478 259 506 278 Z M 26 122 Q 43 126 62 129 Q 45 214 32 266 Q 17 259 0 255 Q 13 216 26 122 Z M 401 341 H 285 Q 311 388 343 409 Q 366 392 401 341 Z M 184 300 Q 174 283 161 270 Q 231 244 276 201 Q 289 216 304 234 Q 259 255 184 300 Z M 171 221 Q 154 227 139 234 Q 133 199 114 131 Q 126 124 144 118 Q 165 195 171 221 Z" fill="black" />
  </g>
  <g class="defect" id="01">
    <path d="M 418 30 Q 371 47 366 79" fill="none" stroke="red" stroke-width="3" />
  </g>
  <g class="defect" id="02">
    <path d="M 75 77 Q 86 58 73 4" fill="none" stroke="red" stroke-width="3" />
  </g>
  <g class="defect" id="03">
    <path d="M 169 381 Q 221 370 231 332" fill="none" stroke="red" stroke-width="3" />
  </g>
</svg>