<svg xmlns="http://www.w3.org/2000/svg" width="512" height="512" viewBox="0 0 512 512">
  <g class="glyph">
    <path d="M 253 503 H 205 Q 209 460 211 412 V 227 Q 211 216 205 144 H 331 V 54 H 275 Q 214 54 192 57 V 20 Q 214 20 275 22 H 425 Q 488 20 512 20 V 57 Q 488 54 425 54 H 375 V 144 H 495 Q 490 163 490 222 V 431 Q 490 462 477 478 Q 464 495 416 501 Q 414 486 406 474 Q 399 462 388 449 Q 429 453 438 448 Q 447 442 449 418 V 353 Q 427 359 407 368 Q 397 346 359 281 Q 344 318 322 345 Q 301 373 277 392 Q 279 361 253 368 Z M 85 161 Q 37 161 2 163 V 124 Q 35 126 85 126 Q 85 44 81 0 H 129 Q 126 46 126 126 Q 155 124 192 124 V 161 H 126 V 251 Q 150 240 176 229 Q 179 244 185 264 Q 139 283 126 290 V 447 Q 129 471 111 484 Q 94 497 39 510 Q 19 497 24 453 Q 57 455 70 453 Q 83 451 85 429 V 307 Q 46 325 22 342 Q 9 314 0 294 Q 22 288 85 266 Z M 331 176 H 253 V 344 Q 298 314 314 272 Q 329 231 331 176 Z M 449 344 V 176 H 375 Q 375 203 364 261 Q 379 255 394 251 Q 436 320 449 344 Z" fill="black" />
  </g>
  <g class="defect" id="01">
    <path d="M 277 392 Q 279 361 253 368" fill="none" stroke="red" stroke-width="3" />
  </g>
  <g class="defect" id="02">
    <path d="M 39 510 Q 19 497 24 453" fill="none" stroke="red" stroke-width="3" />
  </g>
</svg>