<svg xmlns="http://www.w3.org/2000/svg" width="512" height="512" viewBox="0 0 512 512">
  <g class="glyph">
    <path d="M 328 87 V 61 Q 328 26 325 2 H 367 Q 364 26 364 61 V 87 H 425 Q 464 87 512 85 V 124 Q 482 121 440 121 H 364 V 171 H 492 Q 490 202 490 239 V 449 Q 490 477 476 486 Q 462 495 414 505 Q 410 482 395 460 Q 434 458 443 455 Q 437 434 451 430 V 397 H 364 V 492 H 328 V 397 H 247 V 508 H 202 Q 206 464 206 419 V 241 Q 206 202 204 171 H 328 V 121 H 280 Q 234 121 187 124 V 85 Q 234 87 280 87 Z M 174 256 Q 145 265 121 278 V 438 Q 121 473 105 484 Q 89 495 37 503 Q 30 477 17 453 Q 56 456 67 452 Q 78 449 78 425 V 295 Q 49 310 17 321 Q 21 306 0 278 Q 30 273 78 256 V 154 Q 37 154 2 156 V 115 Q 35 117 78 117 V 54 Q 78 26 76 0 H 124 Q 121 24 121 56 V 117 Q 141 117 174 115 V 156 Q 141 154 121 154 V 239 Q 152 228 171 217 Q 171 236 174 256 Z M 451 362 V 302 H 364 V 362 Z M 451 267 V 206 H 364 V 267 Z M 328 362 V 302 H 247 V 362 Z M 328 267 V 206 H 247 V 267 Z M 477 52 Q 460 59 440 72 Q 425 46 406 22 Q 423 13 438 2 Q 458 24 477 52 Z" fill="black" />
  </g>
  <g class="defect" id="01">
    <path d="M 443 455 Q 437 434 451 430" fill="none" stroke="red" stroke-width="3" />
  </g>
  <g class="defect" id="02">
    <path d="M 17 321 Q 21 306 0 278" fill="none" stroke="red" stroke-width="3" />
  </g>
  <g class="defect" id="03">
    <path d="M 78 295 Q 49 310 17 321" fill="none" stroke="red" stroke-width="3" />
  </g>
</svg>