<svg xmlns="http://www.w3.org/2000/svg" width="512" height="512" viewBox="0 0 512 512">
  <g class="glyph">
    <path d="M 338 46 H 315 V 364 Q 343 351 349 349 Q 347 371 345 388 Q 341 391 315 401 V 440 Q 315 473 317 503 H 273 Q 276 473 276 443 V 417 Q 239 432 216 441 Q 193 451 174 464 Q 161 434 154 423 Q 182 414 193 410 V 46 Q 187 46 167 48 V 11 Q 173 13 223 13 H 295 Q 323 13 349 11 V 46 Q 364 48 404 48 H 482 Q 471 200 460 263 Q 449 325 434 377 Q 445 406 471 433 Q 497 460 512 469 Q 501 477 479 501 Q 445 469 414 423 Q 397 458 360 508 Q 351 497 323 482 Q 338 471 357 444 Q 375 417 391 384 Q 375 345 362 270 Q 349 195 349 78 H 338 Z M 117 449 Q 117 471 102 482 Q 87 492 48 503 Q 37 475 24 453 Q 67 453 73 447 Q 78 440 78 421 V 302 Q 50 315 20 332 Q 11 308 0 289 Q 43 276 78 263 V 158 H 61 Q 30 158 0 161 V 126 Q 28 128 61 128 H 78 V 59 Q 78 28 76 0 H 119 Q 117 24 117 59 V 128 Q 143 128 169 126 V 161 Q 143 158 117 158 V 249 Q 145 239 169 226 Q 169 247 171 263 Q 145 273 117 286 Z M 410 330 Q 432 252 440 78 H 384 Q 377 200 410 330 Z M 276 377 V 286 H 232 V 395 Q 256 384 276 377 Z M 276 139 V 46 H 232 V 139 Z M 276 256 V 169 H 232 V 256 Z" fill="black" />
  </g>
  <g class="defect" id="01">
    <path d="M 167 11 Q 173 13 223 13" fill="none" stroke="red" stroke-width="3" />
  </g>
</svg>