<svg xmlns="http://www.w3.org/2000/svg" width="512" height="512" viewBox="0 0 512 512">
  <g class="glyph">
    <path d="M 361 439 Q 421 441 434 432 Q 447 423 451 372 Q 454 321 456 256 L 461 127 H 316 Q 305 147 292 174 Q 278 200 260 225 Q 234 209 218 203 Q 278 109 293 67 Q 307 24 312 0 Q 354 11 372 16 Q 358 24 332 89 H 512 Q 503 234 501 288 Q 499 343 494 405 Q 490 467 457 481 Q 425 494 381 496 Q 381 481 361 439 Z M 156 499 H 111 Q 111 454 114 412 V 229 Q 102 267 86 304 Q 69 341 38 390 Q 20 370 0 352 Q 16 332 29 313 Q 42 294 56 269 Q 69 245 80 216 Q 91 187 102 145 Q 65 145 18 147 V 105 Q 67 107 114 107 V 53 Q 114 31 111 2 H 158 Q 154 31 154 53 V 107 Q 189 107 232 105 V 147 Q 189 145 154 145 V 412 Q 154 456 156 499 Z M 383 334 Q 363 343 336 356 Q 323 316 309 286 Q 296 256 292 245 L 329 225 Q 331 225 355 272 Q 383 298 383 334 Z M 240 285 Q 218 301 200 309 Q 187 276 176 257 Q 165 238 158 227 Q 164 216 191 205 Q 225 254 240 285 Z" fill="black" />
  </g>
  <g class="defect" id="01">
    <path d="M 329 225 Q 331 225 355 272" fill="none" stroke="red" stroke-width="3" />
  </g>
  <g class="defect" id="02">
    <path d="M 355 272 Q 383 298 383 334" fill="none" stroke="red" stroke-width="3" />
  </g>
  <g class="defect" id="03">
    <path d="M 158 227 Q 164 216 191 205" fill="none" stroke="red" stroke-width="3" />
  </g>
</svg>