<svg xmlns="http://www.w3.org/2000/svg" width="512" height="512" viewBox="0 0 512 512">
  <g class="glyph">
    <path d="M 50 257 Q 80 259 138 259 H 454 V 302 Q 419 311 387 322 Q 354 333 323 347 Q 292 361 250 378 Q 207 395 172 414 Q 136 432 138 446 Q 140 460 179 460 H 426 Q 445 462 453 452 Q 460 441 462 402 Q 486 417 512 426 Q 499 495 456 495 H 171 Q 136 495 107 486 Q 78 477 71 456 Q 65 434 81 419 Q 97 404 137 382 Q 177 361 233 338 Q 300 315 350 294 H 138 Q 82 296 50 298 Z M 419 65 Q 454 65 488 63 V 104 Q 456 102 419 102 H 320 Q 331 119 347 136 Q 363 153 386 169 Q 408 184 437 194 Q 467 205 503 212 Q 488 233 482 259 Q 441 246 410 231 Q 393 229 355 197 Q 346 177 311 153 Q 292 130 277 102 V 162 Q 277 181 281 244 H 233 Q 235 181 235 162 V 106 Q 220 132 198 156 Q 175 179 148 200 Q 121 220 91 235 Q 60 251 28 264 Q 17 238 0 218 Q 24 214 52 203 Q 80 192 109 177 Q 138 162 158 143 Q 177 123 192 102 H 108 Q 73 102 32 104 V 63 Q 73 65 106 65 H 235 Q 235 17 233 0 H 281 Q 277 17 277 65 Z" fill="black" />
  </g>
  <g class="defect" id="01">
    <path d="M 410 231 Q 393 229 355 197" fill="none" stroke="red" stroke-width="3" />
  </g>
  <g class="defect" id="02">
    <path d="M 355 197 Q 346 177 311 153" fill="none" stroke="red" stroke-width="3" />
  </g>
  <g class="defect" id="03">
    <path d="M 233 338 Q 300 315 350 294" fill="none" stroke="red" stroke-width="3" />
  </g>
</svg>