<svg xmlns="http://www.w3.org/2000/svg" width="512" height="512" viewBox="0 0 512 512">
  <g class="glyph">
    <path d="M 43 239 V 87 Q 43 41 41 9 H 171 Q 169 41 169 82 V 410 Q 171 443 156 457 Q 141 471 102 477 Q 95 451 87 432 Q 113 432 124 426 Q 135 421 132 388 V 317 H 80 Q 78 347 69 387 Q 61 427 37 473 Q 17 460 0 449 Q 17 421 27 388 Q 37 356 40 324 Q 43 293 43 239 Z M 330 412 Q 293 377 269 332 Q 254 347 240 358 Q 226 369 213 377 Q 200 360 187 345 Q 219 325 254 297 Q 289 269 317 232 L 356 260 Q 347 265 323 286 H 464 Q 456 310 433 349 Q 410 388 391 410 Q 417 425 451 434 Q 486 443 512 445 Q 495 462 484 488 Q 449 479 425 470 Q 401 460 362 436 Q 334 456 302 469 Q 269 482 210 492 Q 204 473 187 451 Q 223 451 265 440 Q 306 430 330 412 Z M 473 124 Q 473 137 475 180 H 204 Q 206 145 206 128 V 39 Q 206 24 204 4 H 245 Q 243 22 243 39 V 150 H 436 V 39 Q 436 20 434 0 H 475 Q 473 17 473 39 Z M 347 100 Q 332 115 318 125 Q 304 135 286 143 L 256 117 Q 278 111 292 102 Q 306 93 323 80 Q 295 56 263 33 Q 286 32 282 9 Q 293 15 347 56 Q 356 50 369 33 Q 382 15 388 4 L 423 28 Q 410 39 395 54 L 371 78 Q 401 106 412 117 Q 397 130 382 141 Q 364 119 347 100 Z M 132 152 V 39 H 80 V 152 Z M 132 286 V 182 H 80 V 286 Z M 197 291 Q 187 271 178 254 Q 202 245 228 228 Q 254 210 271 187 L 306 215 Q 291 228 259 251 Q 228 273 197 291 Z M 408 317 H 297 Q 317 354 360 388 Q 386 360 408 317 Z M 384 219 401 189 Q 430 202 452 214 Q 475 226 499 241 Q 486 260 475 278 Q 449 256 427 243 Q 406 230 384 219 Z" fill="black" />
  </g>
  <g class="defect" id="01">
    <path d="M 263 33 Q 286 32 282 9" fill="none" stroke="red" stroke-width="3" />
  </g>
</svg>