<svg xmlns="http://www.w3.org/2000/svg" width="512" height="512" viewBox="0 0 512 512">
  <g class="glyph">
    <path d="M 187 200 Q 211 183 227 161 Q 254 140 255 116 Q 267 93 279 61 Q 290 30 297 0 L 342 15 Q 331 26 310 86 H 482 Q 480 103 480 157 L 475 344 Q 475 385 409 396 Q 402 372 392 353 Q 439 355 439 323 L 441 116 H 297 Q 275 155 256 183 H 389 Q 387 213 387 232 V 275 Q 387 301 389 333 H 278 V 428 Q 278 460 303 458 H 426 Q 447 460 458 450 Q 469 439 471 409 Q 488 424 512 428 Q 499 488 458 488 H 297 Q 241 493 243 441 V 200 Q 230 215 219 228 Q 207 215 187 200 Z M 93 488 Q 111 435 95 389 V 252 Q 84 280 73 303 Q 62 327 32 370 Q 17 351 0 338 Q 13 325 26 303 Q 39 282 49 261 Q 60 241 71 212 Q 82 183 88 146 H 71 Q 43 146 13 148 V 114 Q 43 116 69 116 H 95 V 69 Q 95 37 93 6 H 131 Q 129 28 129 69 V 116 H 142 Q 163 116 198 114 V 148 Q 155 146 129 146 V 215 Q 118 207 155 194 Q 168 209 204 267 Q 183 280 168 290 Q 161 275 150 254 Q 138 232 129 222 V 389 Q 129 430 131 488 Z M 353 303 V 213 H 278 V 303 Z" fill="black" />
  </g>
  <g class="defect" id="01">
    <path d="M 93 488 Q 111 435 95 389" fill="none" stroke="red" stroke-width="3" />
  </g>
  <g class="defect" id="02">
    <path d="M 227 161 Q 254 140 255 116" fill="none" stroke="red" stroke-width="3" />
  </g>
  <g class="defect" id="03">
    <path d="M 129 215 Q 118 207 155 194" fill="none" stroke="red" stroke-width="3" />
  </g>
</svg>