<svg xmlns="http://www.w3.org/2000/svg" width="512" height="512" viewBox="0 0 512 512">
  <g class="glyph">
    <path d="M 306 66 Q 314 13 312 0 L 359 6 Q 357 13 355 17 Q 367 21 342 66 H 419 Q 438 66 474 64 V 98 Q 446 96 414 96 H 338 Q 334 110 327 138 H 397 Q 433 138 453 136 V 170 Q 429 168 393 168 H 321 Q 317 181 306 206 H 419 Q 467 206 495 204 V 236 Q 461 234 419 234 H 404 Q 421 261 457 284 Q 493 306 512 310 Q 491 331 484 342 Q 442 321 411 290 Q 380 259 368 234 H 297 Q 287 251 273 269 Q 259 287 240 306 Q 270 308 289 308 H 310 Q 310 285 308 259 H 348 Q 346 287 346 308 H 365 Q 385 308 425 306 V 340 Q 380 338 363 338 H 346 V 382 H 412 Q 453 382 482 380 V 414 Q 446 412 412 412 H 346 V 427 Q 346 465 348 497 H 308 Q 310 465 310 427 V 412 H 259 Q 219 412 183 414 V 380 Q 208 382 257 382 H 310 V 338 H 291 Q 274 338 238 340 V 308 Q 221 323 176 353 Q 166 340 147 323 Q 176 312 206 289 Q 236 266 257 234 H 242 Q 207 234 187 236 V 204 Q 210 206 251 206 H 270 Q 280 183 285 168 H 263 Q 244 168 215 170 V 136 Q 227 120 261 138 H 291 Q 297 113 300 96 H 263 Q 225 96 198 98 V 64 Q 217 66 257 66 Z M 119 410 Q 119 444 121 495 H 81 Q 83 453 83 410 V 244 Q 66 291 28 361 Q 17 344 0 334 Q 28 287 47 239 Q 66 191 74 151 Q 38 151 8 153 V 119 Q 38 121 83 121 V 59 Q 83 30 81 8 H 121 Q 119 32 119 59 V 121 Q 149 121 183 119 V 153 Q 147 151 119 151 V 221 Q 130 215 144 200 Q 168 232 187 266 Q 176 272 155 289 Q 140 257 119 227 Z" fill="black" />
  </g>
  <g class="defect" id="01">
    <path d="M 355 17 Q 367 21 342 66" fill="none" stroke="red" stroke-width="3" />
  </g>
  <g class="defect" id="02">
    <path d="M 215 136 Q 227 120 261 138" fill="none" stroke="red" stroke-width="3" />
  </g>
  <g class="defect" id="03">
    <path d="M 242 234 Q 207 234 187 236" fill="none" stroke="red" stroke-width="3" />
  </g>
</svg>