<svg xmlns="http://www.w3.org/2000/svg" width="512" height="512" viewBox="0 0 512 512">
  <g class="glyph">
    <path d="M 287 76 H 430 Q 467 76 499 73 V 108 Q 467 106 430 106 H 404 V 136 H 428 Q 471 136 488 134 V 169 Q 456 166 430 166 H 404 V 197 H 428 Q 456 197 493 194 V 229 Q 456 227 428 227 H 404 V 259 H 445 Q 480 259 512 257 V 292 Q 480 289 445 289 H 281 V 309 H 244 Q 246 283 246 248 V 158 Q 242 166 233 180 Q 225 194 216 207 Q 201 192 184 186 Q 199 169 212 148 Q 225 127 234 105 Q 244 82 252 58 Q 259 35 266 6 Q 287 22 311 28 Q 298 45 287 76 Z M 99 495 Q 102 458 102 391 V 210 Q 82 274 63 311 Q 43 348 30 374 Q 19 352 0 343 Q 35 294 46 269 Q 58 244 69 212 Q 80 179 86 143 H 78 Q 52 143 22 145 V 112 Q 52 114 76 114 H 102 V 69 Q 102 35 99 0 H 140 Q 138 26 138 69 V 114 H 151 Q 173 114 194 112 V 145 Q 169 143 151 143 H 138 V 218 Q 147 212 162 199 Q 175 216 184 233 Q 192 251 207 270 Q 170 281 175 292 Q 166 272 138 229 V 391 Q 138 462 140 495 Z M 452 318 439 369 H 503 Q 499 382 497 400 Q 495 417 486 448 Q 477 480 461 486 Q 445 493 406 495 Q 404 473 389 454 Q 441 462 446 448 Q 452 434 460 400 H 391 L 406 348 H 343 Q 328 413 296 445 Q 264 477 212 497 Q 190 488 184 460 Q 240 449 266 425 Q 292 400 305 348 H 277 Q 242 348 212 350 V 315 Q 251 318 313 318 Z M 367 259 V 227 H 281 V 259 Z M 367 197 V 166 H 281 V 197 Z M 367 136 V 106 H 281 V 136 Z M 415 58 Q 400 60 376 71 Q 374 60 367 45 Q 361 30 354 17 Q 369 6 387 0 Q 393 9 400 24 Q 406 39 415 58 Z" fill="black" />
  </g>
  <g class="defect" id="01">
    <path d="M 212 497 Q 190 488 184 460" fill="none" stroke="red" stroke-width="3" />
  </g>
  <g class="defect" id="02">
    <path d="M 207 270 Q 170 281 175 292" fill="none" stroke="red" stroke-width="3" />
  </g>
  <g class="defect" id="03">
    <path d="M 428 136 Q 471 136 488 134" fill="none" stroke="red" stroke-width="3" />
  </g>
</svg>