<svg xmlns="http://www.w3.org/2000/svg" width="512" height="512" viewBox="0 0 512 512">
  <g class="glyph">
    <path d="M 381 261 H 452 Q 473 261 508 259 V 298 Q 473 296 454 296 H 323 L 315 338 H 461 Q 454 396 448 443 Q 441 484 420 495 Q 398 506 358 510 Q 353 484 341 467 Q 392 467 404 456 Q 416 446 420 373 H 308 Q 300 405 280 442 Q 259 480 231 512 Q 227 495 193 488 Q 240 450 259 401 Q 278 351 283 296 H 259 Q 240 296 199 298 V 283 Q 184 291 169 304 Q 150 266 135 244 V 433 Q 135 467 137 506 H 94 Q 94 476 96 431 V 261 Q 88 283 70 316 Q 51 349 30 379 Q 17 360 0 347 Q 28 315 54 260 Q 79 206 88 161 Q 56 161 21 163 V 126 Q 56 129 96 129 V 66 Q 96 39 94 15 H 137 Q 135 39 135 66 V 129 Q 159 129 184 126 V 163 Q 161 161 135 161 V 238 Q 150 229 161 216 Q 196 242 199 276 V 259 Q 238 261 259 261 H 334 Q 330 242 313 219 Q 332 214 349 204 Q 368 229 381 261 Z M 409 167 H 501 Q 499 178 499 195 Q 499 210 501 236 H 461 V 199 H 249 V 240 H 208 Q 223 223 210 201 Q 210 180 208 167 H 291 Q 278 139 259 111 Q 276 105 289 94 H 285 Q 246 94 208 96 V 60 Q 259 62 278 62 H 330 Q 323 34 311 15 Q 336 11 351 0 Q 366 30 377 62 H 448 Q 476 62 503 60 V 96 Q 476 94 446 94 H 403 Q 422 101 441 107 Q 424 135 409 167 Z M 296 94 Q 313 120 332 150 Q 308 161 296 167 H 368 Q 388 118 394 94 Z" fill="black" />
  </g>
  <g class="defect" id="01">
    <path d="M 208 240 Q 223 223 210 201" fill="none" stroke="red" stroke-width="3" />
  </g>
  <g class="defect" id="02">
    <path d="M 161 216 Q 196 242 199 276" fill="none" stroke="red" stroke-width="3" />
  </g>
  <g class="defect" id="03">
    <path d="M 231 512 Q 227 495 193 488" fill="none" stroke="red" stroke-width="3" />
  </g>
</svg>