<svg xmlns="http://www.w3.org/2000/svg" width="512" height="512" viewBox="0 0 512 512">
  <g class="glyph">
    <path d="M 349 280 V 319 Q 373 315 401 310 Q 430 306 477 295 L 482 332 Q 451 336 422 341 Q 393 345 349 351 V 386 Q 382 382 415 377 Q 449 373 499 362 L 503 399 Q 466 404 438 407 Q 410 410 349 419 V 432 Q 327 444 380 460 H 432 Q 453 460 460 423 Q 484 432 501 438 Q 488 473 477 483 Q 466 492 445 492 H 349 Q 328 492 318 479 Q 308 466 310 451 V 423 Q 284 425 251 431 Q 217 436 178 443 L 171 408 Q 206 404 240 399 Q 273 395 310 391 V 356 Q 289 360 264 362 Q 239 364 200 371 L 193 336 Q 226 334 253 331 Q 280 328 310 323 V 286 Q 291 291 264 294 Q 236 297 208 304 Q 200 286 189 269 Q 208 269 239 266 Q 269 263 304 255 Q 338 247 376 235 Q 414 223 447 208 Q 456 228 471 247 Q 440 254 412 261 Q 384 269 349 280 Z M 87 59 Q 87 28 85 2 H 130 Q 128 26 128 59 V 121 Q 158 121 191 119 V 154 Q 158 152 128 152 V 236 Q 137 230 152 222 Q 167 215 187 202 Q 184 221 184 243 Q 171 252 157 258 Q 143 265 128 276 V 443 Q 126 479 108 487 Q 91 495 46 501 Q 37 473 26 451 Q 61 453 75 451 Q 89 449 87 423 V 297 Q 67 306 54 313 Q 41 321 24 334 Q 9 310 0 295 Q 26 286 44 278 Q 63 269 87 256 V 152 Q 39 152 7 154 V 119 Q 39 121 87 121 Z M 217 241 Q 206 219 193 197 Q 223 200 258 193 Q 293 187 325 176 Q 358 165 387 149 Q 417 132 436 113 Q 449 135 464 150 Q 451 152 434 163 Q 417 174 388 188 Q 360 202 319 216 Q 278 230 217 241 Z M 323 145 Q 325 113 325 72 Q 325 30 323 0 H 367 L 364 28 Q 364 113 367 145 Z M 512 100 Q 497 113 482 130 Q 460 102 441 84 Q 423 65 397 41 Q 410 26 423 15 Q 451 41 469 57 Q 486 74 512 100 Z M 234 152 Q 215 139 200 130 Q 219 111 231 88 Q 243 65 254 37 Q 271 46 295 56 Q 282 67 272 91 Q 263 115 234 152 Z" fill="black" />
  </g>
  <g class="defect" id="01">
    <path d="M 349 432 Q 327 444 380 460" fill="none" stroke="red" stroke-width="3" />
  </g>
</svg>