<svg xmlns="http://www.w3.org/2000/svg" width="512" height="512" viewBox="0 0 512 512">
  <g class="glyph">
    <path d="M 326 221 Q 347 182 366 121 Q 386 60 392 0 Q 416 9 439 13 Q 433 28 424 58 L 407 118 H 461 Q 493 118 508 116 V 152 Q 495 150 478 150 Q 476 195 468 257 Q 461 319 435 386 Q 458 428 512 458 Q 491 473 478 493 Q 437 463 411 420 Q 366 469 321 499 Q 311 482 287 467 Q 319 450 341 434 Q 362 418 388 383 Q 388 341 363 307 Q 356 274 349 249 L 343 263 Q 330 229 326 221 Z M 274 66 Q 317 66 341 64 V 101 Q 302 85 274 99 V 144 Q 306 144 328 141 V 178 Q 311 176 274 176 V 219 Q 306 219 321 216 V 253 Q 298 251 285 251 H 244 Q 242 272 240 291 H 326 Q 319 330 317 364 Q 315 398 307 416 Q 300 433 285 437 Q 270 441 244 448 Q 238 418 229 403 Q 272 403 275 392 Q 278 381 283 323 H 234 Q 223 371 202 405 Q 182 439 144 476 Q 131 458 105 446 Q 154 418 179 370 Q 204 321 206 251 Q 186 251 165 253 V 216 Q 184 219 236 219 V 176 Q 212 176 186 178 V 141 Q 210 144 236 144 V 101 Q 199 99 176 101 V 64 Q 197 66 236 66 Q 236 30 234 9 H 276 Q 274 19 274 66 Z M 116 49 Q 139 49 163 47 V 86 Q 137 84 116 84 H 101 V 195 Q 129 195 154 193 V 231 Q 129 229 101 229 V 358 Q 137 345 161 332 Q 165 351 169 366 Q 133 381 89 401 Q 32 401 17 435 Q 11 416 0 392 Q 26 388 66 368 V 229 Q 32 229 6 231 V 193 Q 34 195 66 195 V 84 H 45 Q 26 84 0 86 V 47 Q 26 49 45 49 Z M 411 345 Q 428 300 434 256 Q 439 212 443 150 H 396 Q 381 189 362 223 L 381 216 Q 392 302 411 345 Z" fill="black" />
  </g>
  <g class="defect" id="01">
    <path d="M 388 383 Q 388 341 363 307" fill="none" stroke="red" stroke-width="3" />
  </g>
  <g class="defect" id="02">
    <path d="M 341 101 Q 302 85 274 99" fill="none" stroke="red" stroke-width="3" />
  </g>
  <g class="defect" id="03">
    <path d="M 89 401 Q 32 401 17 435" fill="none" stroke="red" stroke-width="3" />
  </g>
</svg>