<svg xmlns="http://www.w3.org/2000/svg" width="512" height="512" viewBox="0 0 512 512">
  <g class="glyph">
    <path d="M 482 223 V 449 Q 482 493 461 500 Q 441 508 408 512 Q 408 490 387 467 Q 421 467 433 464 Q 445 462 445 439 V 354 H 385 Q 382 404 376 435 Q 369 467 348 510 Q 331 497 307 488 Q 335 452 341 407 Q 348 363 348 331 V 253 Q 348 207 346 151 H 484 Q 482 194 482 223 Z M 335 67 H 430 Q 464 67 503 63 V 110 Q 464 106 430 106 H 145 Q 145 261 139 312 Q 134 363 117 414 Q 109 479 67 506 Q 52 490 28 477 Q 69 430 82 390 Q 95 350 102 287 Q 86 294 63 308 Q 25 302 22 335 Q 13 313 0 287 Q 28 279 52 268 Q 76 257 102 242 Q 104 197 104 162 Q 104 125 99 67 H 287 Q 285 41 277 9 L 324 0 Q 331 32 335 67 Z M 305 231 V 449 Q 305 480 286 488 Q 268 497 238 503 Q 238 480 220 458 Q 255 458 261 454 Q 268 449 268 426 V 354 H 212 Q 210 389 199 426 Q 188 462 164 501 Q 145 484 125 477 Q 156 441 165 402 Q 175 363 175 315 V 225 Q 175 179 173 153 H 307 Q 305 194 305 231 Z M 95 186 Q 82 194 63 214 Q 35 175 2 138 Q 19 123 30 110 Q 63 147 95 186 Z M 445 238 V 186 H 385 V 238 Z M 445 322 V 272 H 385 V 322 Z M 268 238 V 188 H 212 V 238 Z M 268 322 V 272 H 212 V 322 Z" fill="black" />
  </g>
  <g class="defect" id="01">
    <path d="M 63 308 Q 25 302 22 335" fill="none" stroke="red" stroke-width="3" />
  </g>
  <g class="defect" id="02">
    <path d="M 117 414 Q 109 479 67 506" fill="none" stroke="red" stroke-width="3" />
  </g>
</svg>