<svg xmlns="http://www.w3.org/2000/svg" width="512" height="512" viewBox="0 0 512 512">
  <g class="glyph">
    <path d="M 450 353 V 426 Q 450 471 452 506 H 409 V 482 H 114 V 506 H 71 Q 73 460 73 430 V 359 Q 73 318 71 288 H 452 Q 450 312 450 353 Z M 426 37 Q 445 58 463 80 Q 441 90 413 109 Q 385 127 340 157 Q 379 194 421 216 Q 463 239 512 241 Q 490 262 486 290 Q 432 271 403 255 Q 374 239 344 212 Q 314 185 284 142 V 215 Q 284 252 266 260 Q 247 269 196 278 Q 196 252 181 228 Q 211 247 233 227 Q 245 224 243 200 V 60 Q 243 32 239 0 H 286 Q 284 22 284 39 V 80 Q 299 105 318 127 Q 338 116 369 93 Q 400 69 426 37 Z M 213 60 Q 200 101 184 132 Q 168 163 147 188 Q 127 213 100 234 Q 73 256 41 280 Q 28 258 0 241 Q 54 222 94 184 Q 133 146 155 95 H 95 Q 65 95 26 97 V 58 Q 65 60 95 60 Z M 409 447 V 402 H 278 V 447 Z M 409 368 V 323 H 278 V 368 Z M 239 447 V 402 H 114 V 447 Z M 239 368 V 323 H 114 V 368 Z" fill="black" />
  </g>
  <g class="defect" id="01">
    <path d="M 181 228 Q 211 247 233 227" fill="none" stroke="red" stroke-width="3" />
  </g>
</svg>