<svg xmlns="http://www.w3.org/2000/svg" width="512" height="512" viewBox="0 0 512 512">
  <g class="glyph">
    <path d="M 203 98 Q 181 96 143 96 Q 118 149 107 205 H 205 Q 203 241 203 326 Q 203 410 205 448 H 164 V 410 H 105 V 469 H 64 Q 66 412 66 390 V 269 Q 53 288 30 316 Q 17 290 0 277 Q 21 262 43 234 Q 64 205 79 166 Q 94 128 98 96 Q 53 96 28 98 V 62 Q 68 64 117 64 Q 181 64 203 62 Z M 425 503 V 459 H 299 V 512 H 258 Q 260 461 260 399 Q 260 337 258 301 H 465 Q 463 341 463 401 Q 463 461 465 503 Z M 457 145 Q 439 166 422 222 Q 480 222 508 220 V 256 Q 482 254 450 254 H 288 Q 250 254 224 256 V 220 Q 260 222 384 222 Q 403 160 410 130 Q 422 158 457 145 Z M 425 427 V 335 H 299 V 427 Z M 433 81 Q 469 81 495 79 V 115 Q 469 113 431 113 H 305 Q 267 113 235 115 V 79 Q 267 81 305 81 Z M 164 375 V 239 H 105 V 375 Z M 365 0 Q 378 30 390 62 Q 373 68 350 77 Q 339 38 326 15 Q 348 9 365 0 Z M 286 151 Q 301 143 318 134 Q 335 164 346 192 Q 326 201 309 207 Q 299 177 286 151 Z" fill="black" />
  </g>
  <g class="defect" id="01">
    <path d="M 143 96 Q 118 149 107 205" fill="none" stroke="red" stroke-width="3" />
  </g>
  <g class="defect" id="02">
    <path d="M 28 62 Q 68 64 117 64" fill="none" stroke="red" stroke-width="3" />
  </g>
  <g class="defect" id="03">
    <path d="M 410 130 Q 422 158 457 145" fill="none" stroke="red" stroke-width="3" />
  </g>
</svg>