<svg xmlns="http://www.w3.org/2000/svg" width="512" height="512" viewBox="0 0 512 512">
  <g class="glyph">
    <path d="M 453 135 V 453 Q 486 453 512 451 V 492 Q 479 490 444 490 H 261 Q 216 490 176 492 V 451 Q 200 453 229 453 V 133 Q 229 81 227 44 H 455 Q 453 81 453 135 Z M 133 144 H 76 Q 48 144 13 146 V 105 Q 46 107 74 107 H 194 Q 187 131 169 171 Q 150 211 135 237 V 277 Q 146 266 161 253 Q 174 266 188 285 Q 203 305 216 320 Q 198 336 183 353 Q 168 331 157 316 Q 146 301 135 288 V 438 Q 135 473 137 512 H 92 Q 94 473 94 438 V 294 Q 78 314 62 333 Q 46 353 24 375 Q 11 351 0 329 Q 17 318 36 298 Q 54 279 72 255 Q 89 231 102 208 Q 115 185 133 144 Z M 412 453 V 344 H 270 V 453 Z M 412 179 V 83 H 270 V 179 Z M 412 307 V 216 H 270 V 307 Z M 74 24 Q 82 11 111 0 Q 120 11 132 27 Q 144 44 155 63 Q 129 78 109 89 Q 102 74 94 57 Q 85 39 74 24 Z" fill="black" />
  </g>
  <g class="defect" id="01">
    <path d="M 74 24 Q 82 11 111 0" fill="none" stroke="red" stroke-width="3" />
  </g>
</svg>