<svg xmlns="http://www.w3.org/2000/svg" width="512" height="512" viewBox="0 0 512 512">
  <g class="glyph">
    <path d="M 209 316 Q 191 327 176 342 Q 153 301 131 284 V 432 Q 131 469 133 510 H 86 Q 90 469 90 432 V 312 Q 77 331 65 347 Q 52 364 39 383 Q 19 366 0 353 Q 32 329 71 273 Q 110 217 129 170 H 82 Q 54 170 17 174 V 133 Q 52 136 80 136 H 181 Q 168 176 154 204 Q 140 232 131 252 V 269 Q 138 258 148 247 Q 196 293 209 316 Z M 333 344 Q 333 325 331 299 H 374 Q 372 323 372 344 H 456 Q 484 344 512 342 V 383 Q 488 379 458 379 H 372 V 428 Q 372 471 374 510 H 331 Q 333 471 333 428 V 379 H 282 Q 232 379 185 383 V 342 Q 232 344 282 344 Z M 368 75 H 428 Q 460 75 493 71 V 112 Q 460 110 428 110 H 262 Q 241 110 209 112 V 71 Q 241 75 262 75 H 327 Q 321 47 310 15 Q 333 11 355 4 Q 364 45 368 75 Z M 473 273 Q 454 250 439 237 Q 424 224 413 217 Q 400 239 388 257 Q 376 275 366 288 Q 346 275 323 265 Q 359 228 378 193 Q 396 157 404 127 Q 424 133 452 148 Q 435 166 428 183 Q 447 196 464 208 Q 480 219 501 239 Q 486 256 473 273 Z M 301 174 Q 318 185 346 209 Q 329 224 318 239 Q 301 219 286 207 Q 271 232 262 248 Q 254 265 245 280 Q 230 267 204 256 Q 228 234 246 198 Q 265 161 273 125 Q 288 131 325 144 Q 310 157 301 174 Z M 157 82 Q 136 93 120 105 Q 112 93 100 71 Q 99 49 69 22 Q 86 13 105 0 Q 120 17 131 37 Q 142 56 157 82 Z" fill="black" />
  </g>
  <g class="defect" id="01">
    <path d="M 100 71 Q 99 49 69 22" fill="none" stroke="red" stroke-width="3" />
  </g>
</svg>