<svg xmlns="http://www.w3.org/2000/svg" width="512" height="512" viewBox="0 0 512 512">
  <g class="glyph">
    <path d="M 90 194 H 71 Q 34 194 11 196 V 157 Q 34 159 71 159 H 90 V 62 Q 69 62 30 67 Q 19 47 6 28 Q 34 28 56 27 Q 77 26 100 23 Q 123 19 144 14 Q 166 9 189 0 Q 196 19 217 45 Q 198 43 177 46 Q 157 49 131 54 V 159 Q 166 159 200 157 V 198 Q 166 194 131 194 V 435 Q 133 486 133 512 H 88 Q 90 486 90 435 V 290 Q 82 314 69 336 Q 56 357 41 376 Q 26 359 0 338 Q 26 316 48 284 Q 71 252 90 194 Z M 333 353 Q 333 327 331 308 H 374 Q 372 331 372 353 H 439 Q 478 353 510 351 V 392 Q 478 387 441 387 H 372 V 435 Q 372 475 376 512 H 331 Q 333 473 333 435 V 387 H 288 Q 239 387 191 392 V 351 Q 239 353 288 353 Z M 344 2 Q 351 13 359 30 Q 368 47 376 71 H 419 Q 452 71 486 69 V 105 Q 454 103 419 103 H 280 Q 245 103 211 105 V 69 Q 245 71 280 71 H 329 Q 314 43 299 22 Q 323 11 344 2 Z M 426 194 Q 447 204 467 219 Q 486 234 508 250 Q 486 265 471 286 Q 456 265 446 256 Q 437 247 413 228 Q 398 250 389 265 L 372 295 Q 351 280 331 269 Q 359 241 375 208 Q 392 174 407 120 Q 428 127 454 136 Q 445 148 440 160 Q 435 172 426 194 Z M 271 123 Q 290 131 331 144 Q 316 148 309 162 Q 301 176 295 189 Q 329 213 346 228 Q 329 241 314 258 Q 295 234 280 224 Q 269 241 259 258 Q 250 275 239 295 Q 219 284 196 275 Q 232 234 248 196 Q 249 157 271 123 Z M 136 252 Q 155 243 172 237 Q 181 256 191 283 Q 202 310 213 331 Q 189 340 170 351 Q 161 323 154 300 Q 146 278 136 252 Z" fill="black" />
  </g>
  <g class="defect" id="01">
    <path d="M 248 196 Q 249 157 271 123" fill="none" stroke="red" stroke-width="3" />
  </g>
</svg>