<svg xmlns="http://www.w3.org/2000/svg" width="512" height="512" viewBox="0 0 512 512">
  <g class="glyph">
    <path d="M 316 428 Q 290 407 265 366 Q 241 389 226 402 Q 209 387 189 372 Q 217 357 248 325 Q 280 293 293 262 Q 303 273 333 286 Q 323 297 312 310 H 463 Q 452 338 429 371 Q 407 404 376 432 Q 407 450 439 458 Q 471 467 512 469 Q 490 488 484 512 Q 437 499 403 486 Q 370 473 346 454 Q 318 471 283 483 Q 247 495 189 510 Q 185 484 163 465 Q 207 465 247 455 Q 288 445 316 428 Z M 88 191 H 69 Q 16 202 9 194 V 157 Q 32 159 69 159 H 90 V 60 Q 69 62 30 67 Q 19 45 6 28 Q 56 28 96 24 Q 136 19 174 2 Q 179 17 196 47 Q 153 49 129 54 V 159 Q 163 159 196 157 V 194 Q 163 191 129 191 V 422 Q 129 478 131 512 H 86 Q 88 478 90 422 V 282 Q 80 308 68 326 Q 56 344 41 368 Q 28 349 0 331 Q 28 310 49 281 Q 71 252 88 191 Z M 400 166 Q 368 127 349 110 Q 333 127 284 170 H 439 V 95 Q 439 73 437 54 H 478 Q 475 71 475 95 V 142 Q 475 170 478 200 H 202 Q 204 166 204 146 V 95 Q 204 80 202 58 H 245 Q 243 75 243 95 V 170 H 280 Q 265 155 254 142 Q 280 125 289 116 Q 299 108 321 88 Q 290 62 258 41 Q 271 26 282 13 Q 293 19 312 33 Q 331 47 346 60 Q 381 24 392 0 Q 411 17 432 28 Q 411 45 401 56 Q 392 67 374 86 Q 407 112 430 136 Z M 506 260 Q 490 273 478 297 Q 454 280 431 268 Q 409 256 370 241 Q 381 228 392 209 Q 422 222 447 233 Q 473 245 506 260 Z M 407 340 H 288 Q 318 385 346 409 Q 379 383 407 340 Z M 194 252 Q 226 247 253 236 Q 280 224 301 207 Q 301 238 333 241 Q 282 260 258 271 Q 234 282 222 290 Q 209 271 194 252 Z M 136 237 Q 151 232 172 224 Q 179 245 185 265 Q 191 284 202 321 Q 183 325 163 333 Q 159 310 154 290 Q 148 271 136 237 Z" fill="black" />
  </g>
  <g class="defect" id="01">
    <path d="M 69 191 Q 16 202 9 194" fill="none" stroke="red" stroke-width="3" />
  </g>
  <g class="defect" id="02">
    <path d="M 301 207 Q 301 238 333 241" fill="none" stroke="red" stroke-width="3" />
  </g>
</svg>