<svg xmlns="http://www.w3.org/2000/svg" width="512" height="512" viewBox="0 0 512 512">
  <g class="glyph">
    <path d="M 378 214 259 225 V 270 Q 400 264 454 259 L 456 300 Q 430 300 385 302 Q 339 305 259 309 V 354 Q 294 354 355 352 Q 417 350 488 346 L 493 387 Q 458 387 391 390 Q 324 393 259 395 V 434 Q 259 467 294 467 H 423 Q 441 467 446 455 Q 452 443 458 408 Q 482 428 512 434 Q 490 484 479 493 Q 467 501 443 501 H 279 Q 214 501 214 443 V 398 Q 162 400 118 401 Q 53 382 6 406 L 4 363 Q 50 363 110 361 Q 171 359 214 356 V 311 Q 166 313 118 315 Q 69 318 35 320 L 32 279 Q 143 277 214 274 V 227 Q 171 229 138 230 Q 106 231 60 235 Q 54 212 45 194 Q 125 197 241 189 Q 356 181 421 166 Q 430 188 452 210 Q 426 210 378 214 Z M 117 56 H 192 Q 233 56 261 54 V 93 Q 235 91 201 91 H 184 Q 197 125 216 160 Q 190 166 169 177 Q 160 140 145 91 H 97 Q 76 132 39 184 Q 19 162 0 153 Q 32 121 55 80 Q 78 39 93 0 Q 119 13 147 19 Q 130 37 117 56 Z M 251 151 Q 277 123 295 81 Q 313 39 322 2 L 374 19 Q 359 39 350 56 H 434 Q 456 56 508 54 V 93 Q 464 91 426 91 Q 443 114 460 143 Q 439 151 417 162 Q 406 130 382 91 H 335 Q 315 132 292 171 Q 250 173 251 151 Z" fill="black" />
  </g>
  <g class="defect" id="01">
    <path d="M 292 171 Q 250 173 251 151" fill="none" stroke="red" stroke-width="3" />
  </g>
  <g class="defect" id="02">
    <path d="M 118 401 Q 53 382 6 406" fill="none" stroke="red" stroke-width="3" />
  </g>
</svg>