<svg xmlns="http://www.w3.org/2000/svg" width="512" height="512" viewBox="0 0 512 512">
  <g class="glyph">
    <path d="M 318 441 Q 293 447 270 455 Q 247 463 215 478 Q 209 452 202 432 Q 217 430 234 426 V 224 Q 226 224 215 226 V 189 Q 239 191 271 191 H 450 Q 482 191 508 189 V 226 Q 482 224 450 224 H 357 V 392 Q 366 387 376 385 V 424 Q 366 426 357 430 V 454 Q 357 475 359 499 H 316 Q 318 475 318 454 Z M 478 67 V 97 Q 478 127 480 161 H 245 Q 247 127 247 99 V 69 Q 247 37 245 2 H 480 Q 497 51 478 67 Z M 11 37 Q 45 32 93 24 Q 140 15 179 0 Q 187 22 207 41 Q 183 41 166 44 Q 148 47 129 52 V 159 Q 172 159 202 157 V 194 Q 172 191 151 191 H 129 V 385 Q 129 473 131 506 H 88 Q 90 465 90 385 V 284 Q 77 318 62 347 Q 47 376 34 402 Q 19 389 0 379 Q 11 364 23 343 Q 34 323 47 298 Q 60 273 70 246 Q 80 219 88 191 H 69 Q 45 191 4 194 V 157 Q 45 159 69 159 H 90 V 60 Q 67 65 26 71 Q 19 49 11 37 Z M 370 267 Q 402 269 430 269 H 506 Q 501 308 492 349 Q 482 389 460 422 Q 478 437 488 445 Q 499 454 512 465 Q 499 475 486 499 Q 465 480 456 472 Q 447 465 439 450 Q 428 465 417 473 L 394 499 Q 381 480 366 467 Q 381 456 389 450 Q 398 443 415 422 Q 407 402 398 373 Q 389 344 383 301 L 370 303 Z M 441 69 V 34 H 284 V 69 Z M 441 129 V 99 H 284 V 129 Z M 133 239 Q 146 230 163 224 Q 176 252 188 274 Q 200 297 209 318 Q 185 325 168 333 Q 159 303 152 283 Q 144 262 133 239 Z M 463 301 H 417 Q 422 338 426 354 Q 430 370 439 389 Q 443 379 450 360 Q 456 342 463 301 Z M 318 269 V 224 H 269 V 269 Z M 318 342 V 301 H 269 V 342 Z M 318 404 V 372 H 269 V 419 Z" fill="black" />
  </g>
  <g class="defect" id="01">
    <path d="M 480 2 Q 497 51 478 67" fill="none" stroke="red" stroke-width="3" />
  </g>
</svg>