<svg xmlns="http://www.w3.org/2000/svg" width="512" height="512" viewBox="0 0 512 512">
  <g class="glyph">
    <path d="M 227 152 Q 221 165 216 178 H 433 V 266 Q 433 285 435 308 H 133 V 336 H 377 Q 454 336 495 334 V 364 Q 454 362 373 362 H 133 V 388 H 486 L 469 465 Q 463 495 450 501 Q 437 508 394 512 Q 386 491 375 471 Q 403 471 416 470 Q 428 469 435 448 L 441 413 H 133 V 426 H 90 Q 94 375 94 349 V 249 Q 94 219 90 178 H 171 Q 176 163 178 146 Q 204 148 227 152 Z M 394 0 Q 403 17 420 36 Q 377 36 343 39 L 274 43 V 69 H 411 Q 452 69 478 66 V 96 Q 450 94 411 94 H 330 Q 368 111 406 119 Q 443 126 508 133 Q 491 150 484 169 Q 452 161 426 155 Q 401 150 377 144 Q 353 137 333 126 Q 313 116 289 99 H 274 V 126 Q 274 148 276 171 H 234 Q 236 148 236 126 V 99 Q 212 118 193 130 Q 174 141 152 151 Q 131 161 101 167 Q 71 174 24 182 Q 13 159 0 141 Q 39 141 67 139 Q 96 137 120 131 Q 144 124 160 116 Q 176 107 189 94 H 124 Q 51 94 28 96 V 66 Q 51 69 124 69 H 236 V 45 H 176 Q 146 45 118 47 Q 111 28 103 15 Q 174 17 254 15 Q 334 13 394 0 Z M 133 206 V 231 H 394 V 206 Z M 133 257 V 283 H 394 V 257 Z M 36 463 Q 49 448 60 424 Q 79 435 101 443 Q 63 463 69 480 Q 56 497 45 512 Q 8 501 11 493 Z M 343 422 Q 349 437 356 450 Q 362 463 368 482 Q 347 486 332 495 Q 326 482 321 468 Q 317 454 308 435 Q 323 428 343 422 Z M 255 428 Q 261 441 270 455 Q 278 469 285 484 Q 268 491 249 499 Q 242 480 235 467 Q 227 454 221 441 Q 238 433 255 428 Z M 159 501 Q 154 488 148 475 Q 141 461 133 443 Q 146 435 165 428 Q 171 441 179 457 Q 186 473 191 486 Q 174 493 159 501 Z" fill="black" />
  </g>
  <g class="defect" id="01">
    <path d="M 45 512 Q 8 501 11 493" fill="none" stroke="red" stroke-width="3" />
  </g>
  <g class="defect" id="02">
    <path d="M 101 443 Q 63 463 69 480" fill="none" stroke="red" stroke-width="3" />
  </g>
</svg>