<svg xmlns="http://www.w3.org/2000/svg" width="512" height="512" viewBox="0 0 512 512">
  <g class="glyph">
    <path d="M 274 156 Q 302 176 323 184 Q 302 204 287 227 H 424 Q 441 227 491 225 V 261 Q 441 259 424 259 H 343 V 311 H 409 Q 422 311 471 308 V 347 Q 422 345 409 345 H 343 V 398 H 413 Q 426 398 471 396 V 435 Q 426 433 413 433 H 343 V 458 Q 343 480 345 512 H 300 Q 302 469 302 450 V 259 H 266 Q 242 285 206 332 Q 191 313 169 296 Q 199 274 229 236 Q 259 197 274 156 Z M 0 308 Q 49 281 86 243 Q 122 206 141 163 Q 161 174 193 191 Q 176 201 162 217 Q 148 234 133 253 V 409 Q 133 439 135 510 H 92 Q 94 448 94 409 V 293 Q 77 308 62 322 Q 47 336 32 349 Q 19 326 0 308 Z M 266 90 Q 223 88 189 88 Q 195 111 206 135 Q 182 141 165 152 Q 161 124 150 88 H 122 Q 103 116 85 134 Q 66 152 49 167 Q 36 150 13 135 Q 60 105 86 65 Q 111 26 120 0 Q 141 11 174 19 Q 161 32 146 54 H 212 Q 240 54 266 51 Z M 403 161 Q 396 129 386 92 H 343 Q 315 126 300 144 Q 276 131 259 122 Q 289 96 306 69 Q 323 41 338 2 Q 351 30 388 19 Q 373 34 364 58 H 446 Q 463 58 506 56 V 94 Q 446 92 422 92 Q 431 111 446 141 Q 422 152 403 161 Z" fill="black" />
  </g>
  <g class="defect" id="01">
    <path d="M 338 2 Q 351 30 388 19" fill="none" stroke="red" stroke-width="3" />
  </g>
</svg>