<svg xmlns="http://www.w3.org/2000/svg" width="512" height="512" viewBox="0 0 512 512">
  <g class="glyph">
    <path d="M 212 114 Q 193 126 165 172 Q 137 219 75 300 Q 109 296 154 289 Q 148 274 137 255 Q 154 246 169 238 Q 197 293 216 334 Q 193 343 178 351 Q 174 334 165 317 Q 120 323 91 329 Q 62 334 26 347 Q 15 323 6 304 Q 30 300 51 277 Q 73 255 111 191 Q 73 195 58 197 Q 43 199 19 208 Q 11 180 2 163 Q 26 161 49 112 Q 73 64 88 0 Q 111 9 141 17 Q 122 39 101 84 Q 79 129 56 165 Q 96 149 129 163 Q 146 137 163 90 Q 180 101 212 114 Z M 458 251 H 428 Q 386 251 386 208 V 103 H 332 Q 323 161 303 194 Q 283 227 234 268 Q 221 249 199 236 Q 238 216 262 185 Q 287 154 293 103 Q 263 103 225 105 V 69 Q 266 71 298 71 Q 300 36 296 4 Q 321 9 345 9 Q 341 21 340 33 Q 338 45 336 71 H 426 Q 424 94 424 120 V 191 Q 424 216 435 217 Q 446 219 456 216 Q 467 214 469 176 Q 491 191 512 195 Q 499 236 488 243 Q 488 251 458 251 Z M 330 499 Q 332 450 332 426 V 362 H 272 Q 246 362 223 364 V 328 Q 244 330 278 330 H 332 V 298 Q 332 274 330 253 H 371 Q 368 274 368 300 V 330 H 431 Q 458 330 499 328 V 364 Q 465 362 431 362 H 368 V 428 Q 368 465 371 499 Z M 24 373 Q 39 377 64 377 Q 58 394 52 427 Q 47 461 41 484 Q 35 482 0 480 Q 15 433 24 373 Z M 144 471 Q 124 471 105 476 Q 103 439 96 377 Q 114 377 133 373 Q 139 424 144 471 Z M 229 456 Q 212 461 191 465 Q 182 413 171 371 Q 191 368 206 364 Q 219 409 229 456 Z" fill="black" />
  </g>
  <g class="defect" id="01">
    <path d="M 41 484 Q 35 482 0 480" fill="none" stroke="red" stroke-width="3" />
  </g>
  <g class="defect" id="02">
    <path d="M 56 165 Q 96 149 129 163" fill="none" stroke="red" stroke-width="3" />
  </g>
  <g class="defect" id="03">
    <path d="M 488 243 Q 488 251 458 251" fill="none" stroke="red" stroke-width="3" />
  </g>
</svg>