<svg xmlns="http://www.w3.org/2000/svg" width="512" height="512" viewBox="0 0 512 512">
  <g class="glyph">
    <path d="M 210 119 Q 192 138 159 185 Q 125 231 78 294 Q 97 292 160 285 Q 151 253 147 240 Q 162 233 179 229 Q 186 248 210 322 Q 190 326 175 335 Q 171 324 171 313 Q 134 318 99 324 Q 65 331 28 343 Q 22 322 13 302 Q 41 285 62 262 Q 82 240 108 199 Q 82 199 59 203 Q 37 207 13 214 Q 6 192 0 175 Q 35 162 55 110 Q 76 58 95 6 Q 108 13 147 22 Q 119 54 98 96 Q 78 138 56 173 Q 104 171 123 171 Q 153 127 166 93 Q 186 104 210 119 Z M 471 274 432 292 Q 426 272 419 255 Q 356 264 319 272 Q 281 281 255 289 Q 246 268 235 246 Q 268 235 292 194 Q 315 153 326 119 Q 354 134 372 138 Q 356 158 336 190 Q 297 241 298 244 Q 343 238 406 227 Q 398 210 387 192 Q 404 188 423 177 Q 460 251 471 274 Z M 318 389 V 430 Q 318 458 335 458 H 400 Q 415 458 419 444 Q 423 430 423 413 Q 439 426 467 432 Q 458 471 448 482 Q 439 493 421 493 H 324 Q 281 493 281 445 V 389 Q 281 354 279 328 H 320 Q 318 348 318 389 Z M 512 166 Q 488 181 473 199 Q 434 166 406 120 Q 378 73 361 11 Q 376 11 398 0 Q 410 50 439 95 Q 467 140 512 166 Z M 238 199 Q 218 186 199 175 Q 233 147 253 105 Q 272 63 283 22 Q 309 35 328 39 Q 313 65 293 109 Q 272 153 238 199 Z M 30 369 Q 50 372 71 376 Q 58 410 55 433 Q 52 456 45 495 Q 22 493 4 493 Q 15 460 21 433 Q 26 406 30 369 Z M 253 452 Q 231 449 214 447 Q 220 415 224 387 Q 227 359 229 333 Q 246 337 268 339 Q 261 365 258 394 Q 255 423 253 452 Z M 477 419 Q 458 382 432 339 Q 445 331 462 320 Q 477 341 512 398 Q 490 408 477 419 Z M 91 372 Q 106 367 125 367 Q 132 421 136 464 Q 117 464 102 469 Q 116 404 91 372 Z M 363 285 Q 378 305 410 354 Q 391 365 378 378 Q 348 324 333 305 Q 350 298 363 285 Z M 156 361 Q 171 356 188 354 Q 180 392 207 441 Q 188 445 171 452 Q 169 432 165 408 Q 162 385 156 361 Z" fill="black" />
  </g>
  <g class="defect" id="01">
    <path d="M 102 469 Q 116 404 91 372" fill="none" stroke="red" stroke-width="3" />
  </g>
  <g class="defect" id="02">
    <path d="M 188 354 Q 180 392 207 441" fill="none" stroke="red" stroke-width="3" />
  </g>
  <g class="defect" id="03">
    <path d="M 336 190 Q 297 241 298 244" fill="none" stroke="red" stroke-width="3" />
  </g>
</svg>