<svg xmlns="http://www.w3.org/2000/svg" width="512" height="512" viewBox="0 0 512 512">
  <g class="glyph">
    <path d="M 468 141 V 455 Q 492 455 512 452 V 494 Q 479 490 426 490 H 260 Q 249 503 203 494 V 452 Q 223 455 249 455 V 146 Q 249 84 247 35 H 470 Q 468 71 468 141 Z M 185 320 Q 141 327 100 332 Q 76 338 26 349 Q 20 329 9 309 Q 40 289 60 266 Q 79 243 115 199 Q 86 201 65 205 Q 44 210 18 216 Q 11 192 2 174 Q 35 159 62 104 Q 88 49 97 0 Q 115 7 148 20 Q 144 51 104 94 Q 82 137 57 172 Q 93 170 132 168 Q 168 110 174 90 Q 192 108 212 119 Q 201 135 174 173 Q 148 212 119 247 Q 90 282 75 300 Q 135 294 177 289 Q 170 269 148 234 Q 163 223 183 216 Q 221 291 230 324 Q 210 333 192 342 Z M 428 455 V 342 H 289 V 455 Z M 428 174 V 68 H 289 V 174 Z M 428 309 V 210 H 289 V 309 Z M 42 499 Q 18 492 0 490 Q 13 457 23 431 Q 33 406 42 369 Q 62 377 82 380 Q 66 419 60 441 Q 53 463 42 499 Z M 115 474 Q 102 413 93 380 Q 108 377 128 369 Q 137 395 152 461 Q 130 468 115 474 Z M 154 366 Q 168 358 185 349 Q 199 375 223 433 Q 205 441 190 450 Q 172 404 154 366 Z" fill="black" />
  </g>
  <g class="defect" id="01">
    <path d="M 100 332 Q 76 338 26 349" fill="none" stroke="red" stroke-width="3" />
  </g>
  <g class="defect" id="02">
    <path d="M 148 20 Q 144 51 104 94" fill="none" stroke="red" stroke-width="3" />
  </g>
  <g class="defect" id="03">
    <path d="M 260 490 Q 249 503 203 494" fill="none" stroke="red" stroke-width="3" />
  </g>
</svg>