<svg xmlns="http://www.w3.org/2000/svg" width="512" height="512" viewBox="0 0 512 512">
  <g class="glyph">
    <path d="M 278 231 H 223 Q 225 208 225 199 V 81 Q 225 71 223 43 H 304 Q 311 24 317 0 Q 338 4 368 9 Q 351 28 341 43 H 482 Q 480 60 480 81 V 195 Q 480 212 482 231 H 321 Q 304 253 280 276 Q 255 300 229 319 Q 214 304 199 291 Q 219 283 242 267 Q 266 251 278 231 Z M 308 270 Q 328 281 351 289 Q 334 302 323 317 H 461 Q 450 343 432 371 Q 413 398 381 431 Q 405 450 440 458 Q 476 467 512 469 Q 495 488 486 510 Q 443 501 412 486 Q 381 471 353 452 Q 326 469 290 486 Q 255 503 227 510 Q 214 491 197 473 Q 225 469 262 457 Q 300 446 326 431 Q 296 392 285 364 Q 272 383 240 418 Q 225 405 206 394 Q 231 377 259 343 Q 287 308 308 270 Z M 62 296 Q 84 296 148 291 Q 139 270 133 253 Q 148 244 167 240 Q 174 261 201 330 Q 182 334 165 341 L 161 319 Q 118 321 85 323 Q 51 326 17 345 Q 11 323 0 304 Q 30 287 50 265 Q 71 242 99 201 Q 71 201 57 206 Q 43 210 19 216 Q 13 195 4 178 Q 41 163 62 114 Q 84 64 103 13 Q 120 26 144 39 Q 122 60 102 101 Q 81 141 56 178 Q 81 174 114 174 Q 148 124 163 90 Q 178 105 199 118 Q 174 144 139 191 Q 105 238 62 296 Z M 332 135 Q 291 107 272 101 Q 289 86 298 75 Q 313 84 362 114 Q 392 88 403 75 Q 416 88 433 103 Q 418 107 386 135 Q 408 165 439 174 Q 433 184 420 204 H 443 V 71 H 259 V 204 H 283 Q 274 191 263 176 Q 283 167 302 154 Q 321 141 332 135 Z M 28 368 Q 47 371 69 375 Q 56 401 52 424 Q 49 448 41 486 Q 19 482 0 482 Q 13 450 18 424 Q 24 398 28 368 Z M 497 283 Q 486 298 478 317 Q 458 302 436 289 Q 413 276 388 263 Q 396 251 407 238 Q 433 249 454 259 Q 476 270 497 283 Z M 405 345 H 311 Q 317 362 328 380 Q 338 398 353 409 Q 368 396 382 378 Q 396 360 405 345 Z M 204 458 Q 184 461 169 467 Q 154 394 146 364 Q 163 362 180 358 Q 195 424 204 458 Z M 416 204 Q 401 186 358 154 Q 338 165 320 179 Q 302 193 287 204 Z M 118 366 Q 124 437 129 467 Q 111 467 94 471 Q 90 392 86 371 Q 101 368 118 366 Z" fill="black" />
  </g>
  <g class="defect" id="01">
    <path d="M 386 135 Q 408 165 439 174" fill="none" stroke="red" stroke-width="3" />
  </g>
</svg>