<svg xmlns="http://www.w3.org/2000/svg" width="512" height="512" viewBox="0 0 512 512">
  <g class="glyph">
    <path d="M 484 65 Q 482 103 482 138 V 237 Q 482 273 484 299 H 215 Q 217 273 217 239 V 142 Q 217 108 215 65 H 314 Q 327 30 333 0 Q 351 9 379 19 Q 359 41 353 65 Z M 99 198 Q 67 198 52 202 Q 37 207 13 215 Q 6 191 0 174 Q 34 159 55 109 Q 75 58 95 4 Q 112 17 138 32 Q 118 54 98 96 Q 77 138 54 172 Q 97 170 114 170 Q 142 131 155 97 Q 170 112 191 129 Q 161 166 129 212 Q 97 258 67 297 Q 84 295 151 286 Q 144 267 136 247 Q 151 241 168 234 Q 176 254 185 275 Q 194 297 202 323 Q 181 329 166 338 L 161 316 Q 118 323 87 328 Q 56 333 22 344 Q 13 325 4 301 Q 26 295 49 268 Q 73 241 99 198 Z M 314 497 Q 273 497 273 460 V 404 Q 271 357 269 336 H 310 Q 308 364 308 402 V 437 Q 308 463 340 463 H 379 Q 396 463 406 456 Q 415 450 419 417 Q 439 428 463 437 Q 456 456 446 477 Q 437 497 419 497 Z M 426 237 Q 413 247 400 260 Q 381 245 366 234 Q 344 247 323 255 Q 301 262 282 269 H 445 V 95 H 325 Q 340 101 359 108 Q 346 116 338 129 H 430 Q 424 153 414 173 Q 404 194 394 209 Q 407 224 426 237 Z M 275 269 Q 269 252 260 239 Q 282 237 304 230 Q 327 224 338 215 Q 323 200 308 191 Q 323 176 329 166 Q 342 176 366 191 Q 376 176 385 155 H 321 Q 310 168 293 187 Q 280 176 262 170 Q 282 153 297 131 Q 312 112 318 95 H 254 V 269 Z M 49 486 Q 26 484 6 482 Q 15 450 19 426 Q 24 402 28 364 Q 47 366 69 368 Q 62 394 57 425 Q 52 456 49 486 Z M 232 490 Q 213 484 194 480 Q 204 454 211 423 Q 217 392 222 361 Q 239 364 260 368 Q 256 383 247 424 Q 239 465 232 490 Z M 430 364 Q 450 355 463 349 Q 499 419 512 445 Q 490 454 478 460 Q 460 417 430 364 Z M 120 364 Q 125 392 133 460 Q 110 460 97 465 Q 95 422 88 368 Q 103 364 120 364 Z M 200 445 Q 179 450 163 456 Q 161 435 158 410 Q 171 385 148 359 Q 163 357 183 353 Q 194 419 200 445 Z M 355 402 Q 351 381 329 329 Q 349 323 364 316 Q 370 333 396 385 Q 374 392 355 402 Z" fill="black" />
  </g>
  <g class="defect" id="01">
    <path d="M 158 410 Q 171 385 148 359" fill="none" stroke="red" stroke-width="3" />
  </g>
</svg>