<svg xmlns="http://www.w3.org/2000/svg" width="512" height="512" viewBox="0 0 512 512">
  <g class="glyph">
    <path d="M 470 67 Q 470 104 473 141 H 46 Q 51 104 51 67 Q 51 28 48 0 H 473 Q 450 43 470 67 Z M 337 196 H 401 Q 441 196 491 194 V 233 Q 429 241 401 231 H 337 V 295 H 397 Q 427 295 475 293 V 332 Q 427 330 397 330 H 337 V 394 H 427 Q 473 394 512 392 V 431 Q 473 429 427 429 H 337 Q 337 473 339 503 H 293 V 226 Q 293 187 291 161 H 339 Q 337 182 337 196 Z M 217 224 V 503 H 173 Q 175 447 175 429 H 95 Q 32 429 0 431 V 392 Q 32 394 95 394 H 175 V 330 H 122 Q 78 330 37 332 V 293 Q 78 295 122 295 H 175 V 231 H 106 Q 60 231 23 233 V 194 Q 60 196 106 196 H 175 Q 175 175 173 159 H 219 Q 217 185 217 224 Z M 302 104 V 35 H 217 V 104 Z M 424 104 V 35 H 344 V 104 Z M 175 104 V 35 H 95 V 104 Z" fill="black" />
  </g>
  <g class="defect" id="01">
    <path d="M 491 233 Q 429 241 401 231" fill="none" stroke="red" stroke-width="3" />
  </g>
  <g class="defect" id="02">
    <path d="M 473 0 Q 450 43 470 67" fill="none" stroke="red" stroke-width="3" />
  </g>
</svg>