<svg xmlns="http://www.w3.org/2000/svg" width="512" height="512" viewBox="0 0 512 512">
  <g class="glyph">
    <path d="M 46 299 V 100 Q 46 63 43 26 H 189 Q 187 61 187 104 V 438 Q 182 495 111 495 Q 111 473 98 445 Q 150 456 148 421 V 321 H 85 Q 82 356 75 400 Q 67 445 41 497 Q 22 486 0 477 Q 24 440 35 396 Q 46 351 46 299 Z M 443 258 Q 475 258 510 256 V 295 Q 475 293 443 293 H 377 V 440 Q 382 501 304 508 Q 302 484 293 462 Q 321 448 336 432 V 293 H 278 Q 241 293 208 295 V 256 Q 241 258 273 258 Z M 512 67 Q 510 91 510 111 Q 510 128 512 148 H 469 V 100 H 249 V 152 H 204 Q 206 132 206 111 Q 206 89 204 67 H 336 Q 334 39 325 7 Q 347 4 375 0 Q 382 35 386 67 Z M 447 202 Q 417 200 356 200 Q 295 200 265 202 V 163 Q 295 165 354 165 Q 412 165 447 163 Z M 148 289 V 191 H 85 V 289 Z M 148 156 V 61 H 85 V 156 Z M 234 475 Q 213 460 200 445 Q 215 423 233 392 Q 252 360 265 334 Q 280 349 302 362 Q 289 382 271 410 Q 254 438 234 475 Z M 414 360 Q 427 349 447 334 Q 464 360 481 385 Q 497 410 512 434 Q 490 445 475 460 Q 460 432 447 410 Q 434 388 414 360 Z" fill="black" />
  </g>
  <g class="defect" id="01">
    <path d="M 293 462 Q 321 448 336 432" fill="none" stroke="red" stroke-width="3" />
  </g>
</svg>