<svg xmlns="http://www.w3.org/2000/svg" width="512" height="512" viewBox="0 0 512 512">
  <g class="glyph">
    <path d="M 433 310 V 448 Q 433 481 408 490 Q 382 499 343 505 Q 336 479 323 459 Q 376 459 385 455 Q 393 450 391 411 H 132 V 505 H 88 Q 90 461 90 363 Q 90 264 88 229 H 435 Q 433 270 433 310 Z M 336 66 Q 404 53 457 31 Q 464 51 477 70 Q 455 75 421 81 Q 387 88 336 99 V 141 Q 336 167 360 169 H 433 Q 450 169 456 160 Q 461 152 466 123 Q 486 143 512 147 Q 499 178 488 189 Q 477 200 455 200 H 345 Q 297 200 297 149 V 62 Q 297 29 294 0 H 338 Q 336 24 336 66 Z M 171 55 Q 157 24 169 0 H 213 Q 224 18 211 57 V 138 Q 211 169 213 200 H 171 V 165 Q 127 171 84 179 Q 40 187 15 193 Q 11 174 0 152 Q 37 149 75 145 Q 112 141 171 132 V 88 H 90 Q 59 88 26 90 V 53 Q 59 55 88 55 Z M 391 305 V 261 H 132 V 305 Z M 391 378 V 338 H 132 V 378 Z" fill="black" />
  </g>
  <g class="defect" id="01">
    <path d="M 213 0 Q 224 18 211 57" fill="none" stroke="red" stroke-width="3" />
  </g>
  <g class="defect" id="02">
    <path d="M 171 55 Q 157 24 169 0" fill="none" stroke="red" stroke-width="3" />
  </g>
</svg>