<svg xmlns="http://www.w3.org/2000/svg" width="512" height="512" viewBox="0 0 512 512">
  <g class="glyph">
    <path d="M 449 498 H 334 Q 289 498 289 462 V 214 Q 289 189 286 162 H 334 Q 332 187 332 212 V 286 Q 370 275 405 259 Q 440 244 460 228 L 501 268 Q 465 277 418 294 Q 372 311 332 325 V 438 Q 314 470 361 460 H 433 Q 447 460 453 452 Q 460 444 465 408 Q 489 424 512 429 Q 498 480 486 489 Q 474 498 449 498 Z M 189 56 H 314 Q 314 25 311 0 H 356 Q 354 25 354 56 H 442 Q 478 56 512 54 V 97 Q 478 95 442 95 H 354 Q 354 117 356 144 H 314 V 95 H 189 V 140 H 144 Q 147 111 147 95 H 74 Q 41 95 0 97 V 54 Q 45 56 74 56 H 147 Q 147 29 144 0 H 192 Q 189 29 189 56 Z M 160 268 V 214 Q 160 183 158 160 H 205 Q 203 180 203 210 V 442 Q 203 480 205 512 H 158 Q 160 483 160 442 Q 129 451 90 461 Q 36 471 27 483 Q 16 460 2 435 Q 34 433 85 423 Q 135 413 160 406 V 309 H 79 Q 56 309 20 311 V 266 Q 56 268 79 268 Z" fill="black" />
  </g>
  <g class="defect" id="01">
    <path d="M 332 438 Q 314 470 361 460" fill="none" stroke="red" stroke-width="3" />
  </g>
  <g class="defect" id="02">
    <path d="M 90 461 Q 36 471 27 483" fill="none" stroke="red" stroke-width="3" />
  </g>
</svg>