<svg xmlns="http://www.w3.org/2000/svg" width="512" height="512" viewBox="0 0 512 512">
  <g class="glyph">
    <path d="M 243 444 V 366 H 104 Q 60 366 29 369 V 329 Q 66 331 104 331 H 243 V 265 H 161 Q 112 265 104 267 V 227 Q 132 230 161 230 H 358 Q 380 230 410 227 V 267 Q 380 265 362 265 H 285 V 331 H 402 Q 450 331 481 329 V 369 Q 450 366 402 366 H 285 V 459 Q 285 483 267 493 Q 249 503 199 510 Q 192 488 172 463 Q 214 466 228 463 Q 243 461 243 444 Z M 364 0 Q 362 26 362 49 H 437 Q 453 63 512 46 V 86 Q 468 84 439 84 H 362 V 126 H 320 V 84 H 188 V 126 H 146 V 84 H 66 Q 31 84 0 86 V 46 Q 29 49 62 49 H 146 Q 146 24 143 0 H 190 Q 188 26 188 49 H 320 Q 320 20 316 0 Z M 446 225 V 188 H 64 V 227 H 22 Q 24 207 24 192 Q 24 174 22 152 H 243 Q 238 128 225 108 Q 249 104 271 95 Q 282 124 289 152 H 486 Q 483 170 483 188 Q 483 205 486 225 Z" fill="black" />
  </g>
  <g class="defect" id="01">
    <path d="M 161 265 Q 112 265 104 267" fill="none" stroke="red" stroke-width="3" />
  </g>
  <g class="defect" id="02">
    <path d="M 437 49 Q 453 63 512 46" fill="none" stroke="red" stroke-width="3" />
  </g>
</svg>