<svg xmlns="http://www.w3.org/2000/svg" width="512" height="512" viewBox="0 0 512 512">
  <g class="glyph">
    <path d="M 69 409 V 167 Q 43 167 17 169 V 133 Q 43 135 71 135 H 420 Q 458 135 495 133 V 169 Q 458 167 420 167 H 244 V 381 Q 257 379 272 375 V 409 Q 257 411 244 416 Q 244 458 246 495 H 201 Q 191 458 204 422 Q 154 433 96 445 Q 39 456 17 465 Q 13 446 0 418 Q 26 416 69 409 Z M 347 405 Q 330 381 313 343 Q 298 306 281 238 H 270 V 206 Q 304 208 332 208 H 463 Q 458 240 442 297 Q 426 353 401 403 Q 426 426 453 438 Q 480 450 512 458 Q 488 473 476 497 Q 450 484 423 467 Q 396 450 377 431 Q 341 467 293 497 Q 281 482 257 467 Q 311 443 347 405 Z M 358 0 Q 356 19 356 45 H 411 Q 458 45 497 43 V 81 Q 456 79 411 79 H 356 Q 356 96 358 118 H 315 Q 317 99 317 79 H 189 V 116 H 146 Q 148 94 148 79 H 103 Q 56 79 13 81 V 43 Q 56 45 103 45 H 148 Q 148 24 146 2 H 191 Q 189 24 189 45 H 317 Q 317 19 315 0 Z M 321 238 Q 334 317 373 371 Q 396 328 413 238 Z M 204 227 V 167 H 109 V 227 Z M 204 313 V 257 H 109 V 313 Z M 204 390 V 343 H 109 V 405 Z" fill="black" />
  </g>
  <g class="defect" id="01">
    <path d="M 201 495 Q 191 458 204 422" fill="none" stroke="red" stroke-width="3" />
  </g>
</svg>