<svg xmlns="http://www.w3.org/2000/svg" width="512" height="512" viewBox="0 0 512 512">
  <g class="glyph">
    <path d="M 342 105 Q 361 114 387 120 Q 372 136 365 153 Q 357 170 349 187 H 413 Q 452 187 493 185 V 219 Q 460 217 445 217 Q 432 333 398 389 Q 419 417 451 437 Q 482 456 512 463 Q 486 478 478 497 Q 435 478 381 422 Q 338 469 288 503 Q 275 486 252 473 Q 305 450 355 392 Q 342 372 327 342 Q 312 312 301 280 L 288 303 Q 282 295 271 286 V 318 Q 237 316 204 316 H 131 Q 129 344 127 355 H 258 Q 252 381 250 408 Q 263 447 242 456 Q 237 478 219 483 Q 202 488 168 493 Q 166 478 146 454 Q 194 456 201 451 Q 209 445 213 385 H 123 Q 116 426 95 457 Q 73 488 49 510 Q 32 495 11 484 Q 54 458 73 414 Q 93 370 95 316 Q 43 316 0 318 V 282 Q 43 286 80 286 H 127 V 247 Q 82 247 41 250 V 215 Q 82 217 127 217 V 179 H 84 Q 58 179 22 181 V 146 Q 58 148 84 148 H 127 Q 127 125 125 101 H 166 Q 163 123 163 148 H 209 Q 232 148 267 146 V 181 Q 232 179 209 179 H 163 V 217 Q 211 217 247 215 V 250 Q 213 247 163 247 V 286 H 202 Q 247 303 267 284 Q 262 280 258 275 Q 286 243 308 198 Q 329 153 342 105 Z M 153 37 Q 141 24 151 0 H 194 Q 191 19 191 37 H 314 Q 314 22 312 0 H 355 Q 353 24 353 37 H 413 Q 458 37 499 34 V 71 Q 458 69 413 69 H 353 V 101 H 314 V 69 H 191 V 99 H 153 V 69 H 99 Q 49 69 11 71 V 34 Q 49 37 99 37 Z M 338 265 Q 349 314 376 361 Q 398 312 411 217 H 338 Q 321 250 303 275 Q 321 273 338 265 Z" fill="black" />
  </g>
  <g class="defect" id="01">
    <path d="M 202 286 Q 247 303 267 284" fill="none" stroke="red" stroke-width="3" />
  </g>
  <g class="defect" id="02">
    <path d="M 250 408 Q 263 447 242 456" fill="none" stroke="red" stroke-width="3" />
  </g>
  <g class="defect" id="03">
    <path d="M 153 37 Q 141 24 151 0" fill="none" stroke="red" stroke-width="3" />
  </g>
</svg>