<svg xmlns="http://www.w3.org/2000/svg" width="512" height="512" viewBox="0 0 512 512">
  <g class="glyph">
    <path d="M 242 285 Q 231 296 216 305 Q 210 292 192 274 Q 225 261 252 234 Q 279 207 292 179 Q 253 190 210 207 Q 201 186 194 171 L 220 164 V 93 Q 220 69 218 39 H 255 Q 253 69 253 86 V 156 L 283 149 V 69 Q 283 32 281 9 H 318 Q 315 26 315 65 Q 331 65 350 63 V 95 Q 331 93 315 93 V 143 Q 333 136 356 130 V 164 Q 328 169 298 177 Q 311 184 331 192 Q 338 201 315 212 H 430 Q 419 225 410 240 Q 402 255 395 268 H 473 Q 471 298 471 331 V 469 Q 471 493 457 499 Q 443 506 417 510 Q 417 490 402 469 Q 440 482 432 467 Q 436 464 436 449 V 419 H 367 V 490 H 335 V 419 H 266 Q 259 443 247 464 Q 235 486 214 512 Q 210 499 175 488 Q 201 471 218 440 Q 235 408 240 364 Q 244 320 242 285 Z M 147 300 H 117 V 391 Q 138 387 156 382 Q 151 365 143 346 Q 158 343 175 337 Q 190 382 203 426 Q 181 430 169 436 Q 152 421 162 408 Q 121 419 77 432 Q 32 445 19 454 Q 11 428 0 410 Q 48 404 82 398 V 300 H 54 V 337 H 17 Q 19 294 19 214 Q 19 132 17 99 H 82 Q 82 35 80 6 H 119 Q 117 48 117 99 H 184 Q 181 134 181 201 Q 181 268 184 311 H 147 Z M 501 63 Q 477 67 458 81 Q 439 95 406 110 V 136 Q 406 158 426 158 H 445 Q 460 158 466 147 Q 471 136 471 114 Q 493 123 512 125 Q 503 166 491 176 Q 480 186 454 186 H 406 Q 374 186 374 149 V 60 Q 374 28 372 0 H 408 Q 406 32 406 54 V 78 Q 421 69 439 55 Q 456 41 467 24 Q 484 45 501 63 Z M 147 270 V 130 H 117 V 270 Z M 82 270 V 130 H 54 V 270 Z M 356 268 Q 365 253 374 240 H 294 Q 277 253 261 268 Z M 439 391 V 359 H 367 V 391 Z M 335 391 V 359 H 274 Q 270 374 270 391 Z M 439 328 V 300 H 367 V 328 Z M 335 328 V 300 H 277 V 328 Z" fill="black" />
  </g>
  <g class="defect" id="01">
    <path d="M 331 192 Q 338 201 315 212" fill="none" stroke="red" stroke-width="3" />
  </g>
  <g class="defect" id="02">
    <path d="M 169 436 Q 152 421 162 408" fill="none" stroke="red" stroke-width="3" />
  </g>
  <g class="defect" id="03">
    <path d="M 402 469 Q 440 482 432 467" fill="none" stroke="red" stroke-width="3" />
  </g>
</svg>