<svg xmlns="http://www.w3.org/2000/svg" width="512" height="512" viewBox="0 0 512 512">
  <g class="glyph">
    <path d="M 24 466 Q 15 443 0 423 Q 30 421 85 410 V 312 H 59 V 347 H 20 Q 22 269 22 208 Q 22 145 20 98 H 85 Q 85 24 82 0 H 124 Q 119 26 119 98 H 189 Q 187 145 187 210 Q 187 276 189 325 H 150 V 312 H 119 V 404 Q 143 399 165 395 L 152 360 Q 169 356 187 347 Q 208 401 221 443 Q 200 449 184 458 Q 180 438 176 423 Q 128 434 86 445 Q 43 456 24 466 Z M 321 213 Q 338 221 362 230 Q 343 249 330 271 H 445 Q 432 312 419 348 Q 406 384 377 425 Q 397 443 432 455 Q 466 466 512 473 Q 490 490 482 510 Q 443 476 397 479 Q 369 464 354 451 Q 328 471 298 485 Q 269 499 230 512 Q 219 490 206 475 Q 249 469 273 460 Q 297 451 325 427 Q 310 410 298 386 Q 286 362 278 343 Q 260 367 247 382 Q 232 369 215 358 Q 245 334 273 294 Q 302 254 321 213 Z M 490 24 Q 507 39 488 91 Q 488 143 490 178 H 217 Q 219 141 219 93 Q 219 46 217 22 H 258 Q 256 46 256 59 V 143 H 451 V 59 Q 451 39 449 24 Z M 332 67 Q 325 32 280 33 L 306 11 Q 330 30 354 46 Q 382 13 386 0 Q 401 13 421 24 Q 414 30 401 42 Q 388 54 380 63 Q 412 87 432 102 Q 417 113 401 130 Q 382 111 356 87 Q 336 108 304 135 Q 293 121 276 113 Q 308 91 332 67 Z M 349 404 Q 364 380 375 357 Q 386 334 395 304 H 310 Q 297 321 284 336 Q 297 334 310 330 Q 317 351 323 364 Q 330 377 349 404 Z M 150 278 V 132 H 119 V 278 Z M 278 180 Q 293 195 310 206 Q 293 221 273 242 Q 254 263 226 289 Q 213 276 195 263 Q 223 243 243 222 Q 263 202 278 180 Z M 510 256 Q 488 271 479 284 Q 462 263 447 245 Q 432 228 408 208 Q 421 197 434 182 Q 449 195 472 217 Q 495 239 510 256 Z M 85 278 V 132 H 59 V 278 Z" fill="black" />
  </g>
  <g class="defect" id="01">
    <path d="M 332 67 Q 325 32 280 33" fill="none" stroke="red" stroke-width="3" />
  </g>
  <g class="defect" id="02">
    <path d="M 490 24 Q 507 39 488 91" fill="none" stroke="red" stroke-width="3" />
  </g>
  <g class="defect" id="03">
    <path d="M 482 510 Q 443 476 397 479" fill="none" stroke="red" stroke-width="3" />
  </g>
</svg>