<svg xmlns="http://www.w3.org/2000/svg" width="512" height="512" viewBox="0 0 512 512">
  <g class="glyph">
    <path d="M 335 6 H 378 Q 376 37 376 93 H 503 Q 493 123 477 175 Q 462 169 434 166 Q 447 136 449 125 H 376 V 225 H 464 Q 452 274 434 318 Q 417 361 387 406 Q 408 426 447 441 Q 486 456 512 458 Q 488 480 482 501 Q 443 486 415 470 Q 387 454 363 432 Q 326 471 261 508 Q 246 484 229 475 Q 292 454 337 404 Q 300 356 277 257 H 266 Q 264 318 250 374 Q 235 430 186 501 Q 171 488 145 480 Q 188 434 207 382 Q 227 331 229 268 V 162 Q 229 117 227 93 H 337 Q 337 39 335 6 Z M 181 199 Q 199 218 212 229 Q 192 246 162 277 L 203 318 Q 190 328 173 348 Q 153 318 119 283 V 408 Q 119 454 121 508 H 80 Q 82 439 82 393 V 274 Q 60 298 28 326 Q 17 309 0 294 Q 41 266 72 229 Q 104 192 125 149 H 82 Q 52 149 17 151 V 114 Q 47 98 95 117 H 186 Q 151 188 117 233 Q 113 240 140 253 Q 162 229 181 199 Z M 337 225 V 125 H 266 V 225 Z M 313 257 Q 333 335 363 376 Q 380 350 392 323 Q 386 296 415 257 Z M 151 76 112 95 Q 97 52 76 19 Q 95 13 112 0 Q 134 39 151 76 Z" fill="black" />
  </g>
  <g class="defect" id="01">
    <path d="M 17 114 Q 47 98 95 117" fill="none" stroke="red" stroke-width="3" />
  </g>
  <g class="defect" id="02">
    <path d="M 117 233 Q 113 240 140 253" fill="none" stroke="red" stroke-width="3" />
  </g>
  <g class="defect" id="03">
    <path d="M 392 323 Q 386 296 415 257" fill="none" stroke="red" stroke-width="3" />
  </g>
</svg>