<svg xmlns="http://www.w3.org/2000/svg" width="512" height="512" viewBox="0 0 512 512">
  <g class="glyph">
    <path d="M 30 204 Q 30 88 28 26 H 210 Q 208 88 208 197 Q 208 306 210 351 H 28 Q 30 317 30 204 Z M 221 255 Q 236 244 257 225 Q 278 206 306 165 Q 319 178 338 195 Q 319 206 302 226 Q 285 246 263 266 H 471 Q 446 244 424 226 Q 403 208 383 195 Q 394 182 405 167 Q 444 166 453 202 Q 459 219 501 242 Q 488 259 480 278 L 471 268 L 469 336 V 452 Q 484 452 512 450 V 484 Q 478 482 461 482 H 291 Q 259 482 236 484 V 450 Q 251 452 263 452 V 334 Q 263 304 261 270 L 249 283 Q 236 268 221 255 Z M 409 111 Q 476 111 503 109 V 144 Q 478 141 368 141 Q 261 141 227 144 V 109 Q 261 111 375 111 Q 383 90 394 62 Q 405 34 413 0 Q 431 11 456 24 Q 441 43 432 63 Q 422 84 409 111 Z M 176 133 V 58 H 64 V 133 Z M 176 319 V 255 H 64 V 319 Z M 176 225 V 161 H 64 V 225 Z M 328 452 V 296 H 296 V 452 Z M 0 482 Q 24 461 45 434 Q 53 407 84 379 Q 94 392 114 409 Q 88 437 66 463 Q 45 488 26 508 Q 13 493 0 482 Z M 437 452 V 296 H 409 V 452 Z M 137 405 Q 152 392 167 381 Q 184 405 231 478 Q 216 486 201 501 Q 165 441 137 405 Z M 379 452 V 296 H 358 V 452 Z M 341 75 Q 326 81 311 94 Q 304 75 278 26 Q 289 17 306 9 Q 315 26 341 75 Z" fill="black" />
  </g>
  <g class="defect" id="01">
    <path d="M 45 434 Q 53 407 84 379" fill="none" stroke="red" stroke-width="3" />
  </g>
  <g class="defect" id="02">
    <path d="M 405 167 Q 444 166 453 202" fill="none" stroke="red" stroke-width="3" />
  </g>
  <g class="defect" id="03">
    <path d="M 453 202 Q 459 219 501 242" fill="none" stroke="red" stroke-width="3" />
  </g>
</svg>