<svg xmlns="http://www.w3.org/2000/svg" width="512" height="512" viewBox="0 0 512 512">
  <g class="glyph">
    <path d="M 215 114 Q 215 60 213 28 H 349 Q 346 60 346 101 V 129 Q 346 161 349 194 H 245 V 256 H 349 Q 346 282 346 321 V 368 Q 346 422 349 473 H 314 V 445 H 273 V 480 H 241 Q 243 426 243 381 V 293 Q 232 351 222 390 Q 211 430 176 499 Q 155 482 138 475 Q 168 441 184 397 Q 200 353 207 307 Q 213 260 214 214 Q 215 168 215 114 Z M 129 172 V 256 Q 151 256 176 254 V 286 Q 151 284 129 284 V 398 Q 163 404 163 381 V 415 Q 144 424 101 442 Q 58 460 17 482 Q 11 460 0 441 Q 13 437 28 432 V 295 Q 28 269 26 241 H 62 Q 60 265 60 293 V 424 Q 82 415 99 409 V 172 H 26 Q 28 146 28 95 Q 28 43 26 22 H 179 Q 176 43 176 97 Q 176 148 179 172 Z M 460 241 Q 482 241 512 239 V 271 Q 484 269 447 269 V 349 Q 475 349 508 346 V 379 Q 475 376 447 376 V 419 Q 447 465 450 508 H 415 Q 417 465 417 419 V 376 Q 387 376 359 379 V 346 Q 385 349 417 349 V 271 Q 396 271 357 273 V 239 Q 383 241 432 241 Q 439 215 446 190 Q 454 166 460 133 Q 480 146 501 153 Q 484 172 460 241 Z M 146 144 V 49 H 60 V 144 Z M 314 166 V 56 H 245 V 166 Z M 314 417 V 284 H 273 V 417 Z M 512 123 Q 475 120 430 120 Q 385 120 357 123 V 86 Q 385 88 435 88 Q 484 88 512 86 Z M 458 67 Q 439 69 424 77 Q 411 30 404 13 Q 419 6 437 0 Q 452 47 458 67 Z M 368 155 Q 385 148 396 140 Q 404 157 426 209 Q 409 213 396 222 Q 402 175 368 155 Z" fill="black" />
  </g>
  <g class="defect" id="01">
    <path d="M 396 222 Q 402 175 368 155" fill="none" stroke="red" stroke-width="3" />
  </g>
  <g class="defect" id="02">
    <path d="M 129 398 Q 163 404 163 381" fill="none" stroke="red" stroke-width="3" />
  </g>
</svg>