<svg xmlns="http://www.w3.org/2000/svg" width="512" height="512" viewBox="0 0 512 512">
  <g class="glyph">
    <path d="M 471 303 Q 471 342 473 400 H 161 Q 163 342 163 305 Q 163 267 161 207 H 473 Q 471 265 471 303 Z M 101 254 V 394 Q 161 439 299 440 Q 437 441 512 435 Q 499 458 495 484 Q 402 484 339 483 Q 275 482 233 477 Q 175 490 166 463 Q 140 454 115 439 Q 90 424 77 440 Q 65 456 43 486 Q 26 471 0 458 Q 30 430 62 398 V 211 Q 34 211 2 213 V 172 Q 34 174 103 174 Q 101 217 101 254 Z M 445 127 Q 445 153 447 179 H 183 Q 185 151 185 125 Q 185 99 183 71 H 447 Q 445 99 445 127 Z M 413 4 Q 450 4 486 2 V 41 Q 450 39 413 39 H 228 Q 194 39 153 41 V 2 Q 191 4 226 4 Z M 407 144 V 110 H 226 V 144 Z M 116 101 Q 111 91 71 118 Q 62 93 30 17 Q 54 6 73 0 Q 103 69 116 101 Z M 299 288 V 243 H 202 V 288 Z M 432 288 V 243 H 340 V 288 Z M 299 364 V 323 H 202 V 364 Z M 432 364 V 323 H 340 V 364 Z" fill="black" />
  </g>
  <g class="defect" id="01">
    <path d="M 116 101 Q 111 91 71 118" fill="none" stroke="red" stroke-width="3" />
  </g>
  <g class="defect" id="02">
    <path d="M 233 477 Q 175 490 166 463" fill="none" stroke="red" stroke-width="3" />
  </g>
</svg>