<svg xmlns="http://www.w3.org/2000/svg" width="512" height="512" viewBox="0 0 512 512">
  <g class="glyph">
    <path d="M 315 97 H 434 Q 475 97 512 95 V 132 Q 477 130 432 130 H 378 V 225 H 413 Q 449 225 490 223 V 261 Q 452 259 413 259 H 378 V 365 H 428 Q 475 365 510 363 V 400 Q 461 382 428 398 H 378 Q 378 477 380 506 H 337 Q 339 477 339 421 V 127 H 305 Q 279 194 257 238 Q 240 220 223 207 Q 244 173 262 124 Q 281 76 296 2 Q 320 9 346 15 Q 333 45 315 97 Z M 76 212 V 175 Q 89 175 110 177 H 156 Q 197 177 220 175 V 212 Q 194 210 156 210 V 272 Q 190 272 233 270 V 309 Q 188 307 156 307 V 436 L 246 421 Q 242 436 244 456 Q 210 460 149 472 Q 89 484 28 499 Q 19 477 13 458 Q 54 454 117 445 V 307 Q 65 307 39 309 V 270 Q 65 272 117 272 V 210 Q 91 210 76 212 Z M 220 143 Q 190 106 138 67 Q 121 99 98 134 Q 76 169 32 214 Q 19 201 0 184 Q 28 160 49 135 Q 69 110 87 78 Q 106 45 119 0 Q 134 6 162 17 L 151 35 Q 218 82 251 106 Q 238 121 220 143 Z M 203 421 Q 179 410 171 406 Q 192 352 199 331 Q 214 335 233 343 Q 200 385 203 421 Z M 69 430 Q 58 393 35 354 L 65 337 Q 91 393 99 413 Q 82 421 69 430 Z" fill="black" />
  </g>
  <g class="defect" id="01">
    <path d="M 510 400 Q 461 382 428 398" fill="none" stroke="red" stroke-width="3" />
  </g>
  <g class="defect" id="02">
    <path d="M 233 343 Q 200 385 203 421" fill="none" stroke="red" stroke-width="3" />
  </g>
</svg>