<svg xmlns="http://www.w3.org/2000/svg" width="512" height="512" viewBox="0 0 512 512">
  <g class="glyph">
    <path d="M 336 67 V 374 L 366 359 Q 368 374 374 389 L 336 409 V 447 Q 336 480 338 510 H 299 Q 301 471 301 450 V 424 Q 230 454 209 465 Q 200 445 191 430 L 224 419 V 67 Q 215 67 198 69 V 34 Q 222 37 252 37 H 318 Q 342 37 359 34 V 67 Z M 422 71 H 493 Q 466 178 472 236 Q 458 305 443 351 Q 469 396 512 430 Q 497 447 486 469 Q 445 424 426 387 Q 411 426 398 444 Q 385 463 370 482 Q 364 467 344 450 Q 364 432 376 412 Q 389 392 404 357 Q 389 321 380 258 Q 370 196 368 101 H 361 V 69 Q 392 71 422 71 Z M 69 189 V 155 Q 88 157 99 157 H 131 Q 159 157 183 155 V 189 Q 179 201 136 187 V 245 H 144 Q 166 245 194 243 V 280 Q 179 278 144 278 H 136 V 415 Q 166 409 183 400 Q 183 409 181 435 Q 140 447 102 459 Q 65 471 32 484 Q 17 458 11 445 Q 43 439 101 426 V 278 H 77 Q 67 278 37 280 V 243 Q 67 245 77 245 H 101 V 187 Q 86 187 69 189 Z M 174 133 Q 155 103 143 93 Q 131 82 116 69 Q 99 97 81 130 Q 62 163 30 200 Q 15 185 0 172 Q 34 140 59 97 Q 84 54 103 0 Q 129 11 148 17 Q 140 28 133 39 Q 140 45 159 59 Q 179 73 204 99 Q 196 110 174 133 Z M 400 101 Q 400 148 404 196 Q 409 243 424 312 Q 441 247 447 191 Q 454 136 456 101 Z M 301 387 V 301 H 258 V 407 Z M 301 155 V 67 H 258 V 155 Z M 301 271 V 185 H 258 V 271 Z M 58 413 Q 49 383 28 336 L 54 318 Q 80 370 88 398 Q 73 407 58 413 Z M 174 398 Q 159 389 146 385 Q 163 342 172 314 L 204 327 Q 189 359 174 398 Z" fill="black" />
  </g>
  <g class="defect" id="01">
    <path d="M 493 71 Q 466 178 472 236" fill="none" stroke="red" stroke-width="3" />
  </g>
  <g class="defect" id="02">
    <path d="M 183 189 Q 179 201 136 187" fill="none" stroke="red" stroke-width="3" />
  </g>
</svg>