<svg xmlns="http://www.w3.org/2000/svg" width="512" height="512" viewBox="0 0 512 512">
  <g class="glyph">
    <path d="M 292 218 Q 311 264 319 299 Q 326 335 321 359 Q 315 382 301 396 Q 287 410 266 417 Q 261 400 251 374 Q 296 367 289 324 Q 283 281 259 223 Q 279 184 275 152 Q 283 121 289 78 H 246 V 503 H 210 Q 212 460 212 421 V 138 Q 224 86 210 45 H 331 Q 324 71 314 116 Q 305 160 292 218 Z M 58 205 V 169 Q 84 171 91 171 H 130 Q 164 171 190 169 V 205 Q 162 203 132 203 V 261 H 145 Q 158 261 199 259 V 294 Q 179 292 145 292 H 132 V 419 Q 175 413 201 406 Q 199 428 199 441 Q 171 443 124 454 Q 78 464 24 482 Q 17 464 4 441 Q 43 434 97 426 V 292 H 76 Q 54 292 30 294 V 259 Q 56 261 76 261 H 97 V 203 Q 82 203 58 205 Z M 430 225 V 305 Q 430 341 432 374 H 335 Q 337 337 337 300 V 225 Q 337 188 335 149 H 432 Q 430 186 430 225 Z M 456 56 Q 486 56 512 54 V 89 Q 481 86 490 86 V 436 Q 493 471 473 480 Q 454 488 419 495 Q 417 471 404 452 Q 439 452 446 449 Q 454 447 456 428 V 86 H 398 Q 367 86 339 89 V 54 Q 374 56 395 56 Z M 177 140 Q 149 99 114 67 Q 99 97 79 132 Q 58 166 28 205 Q 15 186 0 173 Q 35 140 62 89 Q 89 37 102 0 L 147 15 Q 138 22 132 35 Q 140 41 162 60 Q 184 80 205 106 Q 199 112 177 140 Z M 395 343 V 179 H 372 V 343 Z M 84 402 Q 71 408 56 417 Q 45 380 28 346 Q 41 339 56 326 Q 76 374 84 402 Z M 173 408 Q 158 402 145 393 Q 164 346 171 324 Q 197 335 203 339 Q 184 378 173 408 Z" fill="black" />
  </g>
  <g class="defect" id="01">
    <path d="M 259 223 Q 279 184 275 152" fill="none" stroke="red" stroke-width="3" />
  </g>
  <g class="defect" id="02">
    <path d="M 512 89 Q 481 86 490 86" fill="none" stroke="red" stroke-width="3" />
  </g>
  <g class="defect" id="03">
    <path d="M 212 138 Q 224 86 210 45" fill="none" stroke="red" stroke-width="3" />
  </g>
</svg>