<svg xmlns="http://www.w3.org/2000/svg" width="512" height="512" viewBox="0 0 512 512">
  <g class="glyph">
    <path d="M 457 468 Q 474 468 499 466 V 501 Q 466 499 444 499 H 236 Q 159 499 132 501 V 466 Q 157 468 185 468 V 355 Q 185 324 183 300 H 459 Q 457 307 457 349 Z M 108 196 Q 143 249 152 296 Q 146 331 142 370 Q 124 397 68 406 Q 64 380 49 358 Q 102 360 113 342 Q 121 322 111 288 Q 102 254 66 205 Q 90 132 108 62 H 40 V 512 H 0 Q 2 463 2 263 Q 2 62 0 29 H 163 Q 154 49 138 99 Q 121 150 108 196 Z M 373 121 H 410 Q 448 121 477 119 V 157 Q 448 154 410 154 H 236 Q 199 154 166 157 V 119 Q 192 121 236 121 H 331 Q 362 64 382 0 Q 406 13 433 22 Q 430 53 403 64 Q 386 93 373 121 Z M 362 159 Q 437 212 492 260 Q 477 271 461 291 Q 406 236 338 190 Q 353 172 362 159 Z M 422 468 V 331 H 375 V 468 Z M 267 468 V 331 H 221 V 468 Z M 256 159 Q 274 177 294 190 Q 280 201 253 227 Q 225 254 181 294 Q 172 278 152 265 Q 212 223 256 159 Z M 342 468 V 331 H 300 V 468 Z M 298 86 Q 280 95 260 110 Q 238 66 205 31 Q 225 20 238 4 Q 274 49 298 86 Z" fill="black" />
  </g>
  <g class="defect" id="01">
    <path d="M 433 22 Q 430 53 403 64" fill="none" stroke="red" stroke-width="3" />
  </g>
  <g class="defect" id="02">
    <path d="M 152 296 Q 146 331 142 370" fill="none" stroke="red" stroke-width="3" />
  </g>
</svg>