<svg xmlns="http://www.w3.org/2000/svg" width="512" height="512" viewBox="0 0 512 512">
  <g class="glyph">
    <path d="M 105 88 Q 154 88 195 86 V 122 Q 152 120 90 120 Q 73 152 51 184 Q 81 186 120 186 Q 159 186 191 184 V 223 Q 148 221 124 221 V 285 Q 156 285 191 283 V 321 Q 152 319 124 319 V 428 Q 169 392 182 377 Q 189 398 199 413 Q 178 433 150 454 Q 122 476 96 503 Q 84 486 69 469 Q 84 458 86 441 V 319 Q 56 319 19 321 V 283 Q 51 285 86 285 V 221 Q 71 221 51 223 V 186 Q 39 204 28 216 Q 15 197 0 186 Q 21 165 47 118 Q 73 71 94 4 Q 116 21 137 28 Q 124 43 105 88 Z M 407 167 H 497 Q 495 178 495 195 Q 495 210 497 236 H 458 V 199 H 251 V 240 H 212 Q 214 223 214 201 Q 214 180 212 167 H 293 Q 281 139 263 111 Q 278 105 291 94 H 287 Q 249 94 212 96 V 60 Q 261 62 281 62 H 330 Q 323 34 313 15 Q 336 11 351 0 Q 366 30 375 62 H 446 Q 471 62 499 60 V 96 Q 471 94 443 94 H 398 Q 420 101 439 107 Q 420 135 407 167 Z M 379 261 H 450 Q 469 261 501 259 V 298 Q 469 296 452 296 H 323 Q 321 317 317 338 H 458 Q 452 396 446 443 Q 439 484 415 495 Q 390 506 358 510 Q 353 484 341 467 Q 392 465 401 453 Q 428 441 416 373 H 311 Q 302 405 283 442 Q 263 480 234 512 Q 216 495 197 488 Q 242 450 261 401 Q 281 351 285 296 H 261 Q 242 296 214 298 V 259 Q 254 242 261 261 H 334 Q 330 242 315 219 Q 334 214 353 204 Q 371 229 379 261 Z M 298 94 Q 315 120 332 150 Q 311 161 298 167 H 368 Q 386 118 392 94 Z" fill="black" />
  </g>
  <g class="defect" id="01">
    <path d="M 401 453 Q 428 441 416 373" fill="none" stroke="red" stroke-width="3" />
  </g>
  <g class="defect" id="02">
    <path d="M 214 259 Q 254 242 261 261" fill="none" stroke="red" stroke-width="3" />
  </g>
</svg>