<svg xmlns="http://www.w3.org/2000/svg" width="512" height="512" viewBox="0 0 512 512">
  <g class="glyph">
    <path d="M 281 2 Q 308 2 330 0 V 27 Q 375 29 403 29 H 474 Q 470 144 465 194 Q 461 244 453 288 Q 446 332 430 379 Q 461 428 512 450 Q 494 463 479 488 Q 434 450 410 414 Q 377 461 341 492 Q 330 477 308 463 Q 348 439 386 379 Q 368 335 360 294 Q 352 253 348 204 Q 344 155 344 60 H 330 V 33 H 301 V 346 Q 321 337 339 330 Q 341 350 344 366 Q 324 372 301 381 Q 301 437 304 496 H 262 Q 264 441 264 395 Q 228 406 202 416 Q 175 426 142 439 Q 135 419 124 399 Q 144 395 168 388 V 33 Q 162 33 151 35 V 0 Q 175 2 202 2 Z M 95 177 Q 124 228 136 259 Q 149 290 146 318 Q 144 346 121 362 Q 98 379 75 388 Q 71 361 55 341 Q 95 339 103 318 Q 95 285 100 267 Q 89 237 58 180 Q 86 69 93 31 H 42 V 496 H 0 Q 2 426 2 359 V 91 Q 2 40 0 0 H 142 Q 130 120 95 177 Z M 377 60 Q 377 131 382 204 Q 388 277 408 335 Q 419 293 426 237 Q 432 182 437 60 Z M 264 357 V 270 H 206 V 375 Q 253 361 264 357 Z M 264 122 V 33 H 206 V 122 Z M 264 239 V 153 H 206 V 239 Z" fill="black" />
  </g>
  <g class="defect" id="01">
    <path d="M 142 0 Q 130 120 95 177" fill="none" stroke="red" stroke-width="3" />
  </g>
  <g class="defect" id="02">
    <path d="M 103 318 Q 95 285 100 267" fill="none" stroke="red" stroke-width="3" />
  </g>
</svg>