<svg xmlns="http://www.w3.org/2000/svg" width="512" height="512" viewBox="0 0 512 512">
  <g class="glyph">
    <path d="M 68 490 Q 54 468 44 449 Q 59 436 63 407 V 242 Q 63 216 61 181 H 231 Q 229 227 229 261 Q 229 294 231 340 H 100 V 429 Q 129 420 149 413 Q 170 405 187 397 Q 176 381 170 368 L 209 351 Q 220 373 231 397 Q 242 420 255 447 Q 222 455 218 466 Q 209 444 203 429 Q 166 442 131 458 Q 96 473 68 490 Z M 370 146 V 231 H 423 Q 453 231 486 229 V 268 Q 453 266 423 266 H 370 V 349 H 436 Q 464 349 490 346 V 386 Q 464 383 436 383 H 370 V 434 Q 370 460 373 512 H 331 Q 333 473 333 434 V 148 H 316 Q 318 166 279 196 Q 261 181 242 168 Q 281 131 307 87 Q 333 44 346 4 Q 368 15 403 26 Q 383 48 370 66 Q 357 85 340 111 H 440 Q 468 111 503 109 V 148 Q 471 146 440 146 Z M 163 41 Q 183 57 202 71 Q 220 85 253 109 Q 237 124 224 142 Q 219 122 183 105 Q 163 87 144 72 Q 113 109 92 134 Q 70 159 31 192 Q 15 170 0 157 Q 46 131 80 88 Q 113 46 135 0 Q 159 11 187 22 Q 174 31 163 41 Z M 192 246 V 209 H 100 V 246 Z M 192 312 V 275 H 100 V 312 Z M 118 135 Q 133 122 146 111 Q 163 133 183 159 Q 166 168 153 179 Q 137 157 118 135 Z" fill="black" />
  </g>
  <g class="defect" id="01">
    <path d="M 316 148 Q 318 166 279 196" fill="none" stroke="red" stroke-width="3" />
  </g>
  <g class="defect" id="02">
    <path d="M 255 447 Q 222 455 218 466" fill="none" stroke="red" stroke-width="3" />
  </g>
  <g class="defect" id="03">
    <path d="M 224 142 Q 219 122 183 105" fill="none" stroke="red" stroke-width="3" />
  </g>
</svg>