<svg xmlns="http://www.w3.org/2000/svg" width="512" height="512" viewBox="0 0 512 512">
  <g class="glyph">
    <path d="M 313 417 Q 292 395 283 381 Q 274 367 264 350 Q 281 341 294 328 Q 300 341 310 356 Q 320 372 335 385 Q 341 365 345 350 Q 348 335 350 307 H 257 Q 259 281 259 246 V 166 Q 259 138 257 114 H 352 V 67 H 326 Q 285 67 257 69 V 35 Q 283 37 324 37 H 408 Q 449 37 482 35 V 69 Q 452 67 410 67 H 385 V 114 H 477 Q 475 138 475 164 V 248 Q 475 283 477 307 H 385 Q 382 326 379 349 Q 376 372 363 406 Q 389 428 429 441 Q 469 454 512 454 Q 497 475 490 499 Q 443 490 406 474 Q 369 458 346 439 Q 326 458 297 476 Q 268 495 238 508 Q 229 486 210 467 Q 235 462 262 452 Q 289 441 313 417 Z M 162 60 V 35 Q 162 26 160 0 H 201 Q 199 22 199 35 V 58 Q 216 58 238 56 V 93 Q 216 91 199 91 V 119 Q 199 132 201 166 H 140 V 205 H 229 Q 227 227 227 248 V 283 Q 227 298 229 318 H 140 V 363 H 181 Q 210 363 238 361 V 395 Q 210 393 177 393 H 140 V 426 Q 140 473 143 503 H 106 Q 108 471 108 423 V 393 H 58 Q 9 412 0 395 V 361 Q 28 363 58 363 H 108 V 318 H 22 Q 12 298 24 277 V 244 Q 24 225 22 205 H 108 V 166 H 52 Q 54 140 54 125 V 91 Q 35 91 13 93 V 56 Q 35 58 54 58 V 35 Q 54 24 52 0 H 91 Q 89 22 89 32 V 60 Z M 162 136 V 91 H 89 V 136 Z M 352 277 V 227 H 294 V 277 Z M 194 287 V 235 H 140 V 287 Z M 352 197 V 149 H 294 V 197 Z M 439 277 V 227 H 385 V 277 Z M 108 287 V 235 H 58 V 287 Z M 439 197 V 149 H 385 V 197 Z" fill="black" />
  </g>
  <g class="defect" id="01">
    <path d="M 58 393 Q 9 412 0 395" fill="none" stroke="red" stroke-width="3" />
  </g>
  <g class="defect" id="02">
    <path d="M 22 318 Q 12 298 24 277" fill="none" stroke="red" stroke-width="3" />
  </g>
</svg>