<svg xmlns="http://www.w3.org/2000/svg" width="512" height="512" viewBox="0 0 512 512">
  <g class="glyph">
    <path d="M 59 15 H 95 Q 93 37 93 76 H 161 Q 161 37 158 15 H 195 Q 193 33 193 76 Q 210 76 230 74 V 106 Q 208 104 193 104 Q 193 154 195 178 H 141 V 221 H 223 Q 221 258 221 282 Q 221 304 223 330 H 141 V 375 H 178 Q 213 375 245 373 V 408 Q 206 406 174 406 H 141 V 436 Q 141 479 143 510 H 104 Q 108 479 108 436 V 406 H 65 Q 30 406 0 408 V 373 Q 28 375 65 375 H 108 V 330 H 22 Q 24 299 24 271 Q 38 243 22 221 H 108 V 178 H 59 Q 61 152 61 104 Q 33 104 11 106 V 74 Q 33 76 61 76 Q 61 37 59 15 Z M 354 245 H 464 Q 508 264 512 243 V 278 Q 499 276 466 276 Q 451 347 421 401 Q 464 427 512 464 Q 495 477 482 497 Q 443 460 397 430 Q 373 458 329 477 Q 284 497 241 510 Q 234 488 219 471 Q 249 466 289 455 Q 328 443 364 410 Q 317 380 265 360 Q 282 332 304 276 Q 279 276 241 278 V 243 Q 267 245 315 245 Q 332 195 341 154 Q 362 163 384 167 Q 364 217 354 245 Z M 501 135 Q 501 163 503 184 H 466 V 117 H 276 V 184 H 241 Q 243 167 243 137 Q 243 106 241 87 H 503 Q 501 106 501 135 Z M 388 382 Q 414 341 427 276 H 343 Q 330 306 310 345 Q 354 364 388 382 Z M 161 150 V 104 H 93 V 150 Z M 321 17 Q 336 11 354 0 Q 380 37 393 59 Q 373 67 358 78 Q 343 48 321 17 Z M 108 302 V 249 H 59 V 302 Z M 189 302 V 249 H 141 V 302 Z" fill="black" />
  </g>
  <g class="defect" id="01">
    <path d="M 24 271 Q 38 243 22 221" fill="none" stroke="red" stroke-width="3" />
  </g>
  <g class="defect" id="02">
    <path d="M 304 276 Q 279 276 241 278" fill="none" stroke="red" stroke-width="3" />
  </g>
  <g class="defect" id="03">
    <path d="M 464 245 Q 508 264 512 243" fill="none" stroke="red" stroke-width="3" />
  </g>
</svg>