<svg xmlns="http://www.w3.org/2000/svg" width="512" height="512" viewBox="0 0 512 512">
  <g class="glyph">
    <path d="M 235 212 Q 227 199 223 192 Q 164 194 114 201 Q 65 207 41 214 Q 32 192 28 179 Q 52 173 86 145 H 54 Q 35 145 0 147 V 123 Q 32 125 54 125 V 45 Q 54 30 52 11 H 216 Q 242 11 272 9 V 32 Q 244 30 216 30 H 93 V 50 H 194 Q 216 50 251 48 V 71 Q 216 69 194 69 H 93 V 86 H 201 Q 214 86 251 84 V 108 Q 214 106 201 106 H 93 V 125 H 274 V 147 Q 240 145 235 145 Q 248 164 272 199 Q 251 203 235 212 Z M 318 205 Q 302 190 289 179 Q 311 177 361 165 Q 410 153 477 125 Q 493 138 512 151 Q 454 166 400 183 Q 346 199 318 205 Z M 313 84 Q 298 69 285 58 Q 313 54 364 39 Q 415 24 456 0 Q 473 11 497 26 Q 443 39 393 56 Q 343 73 313 84 Z M 320 145 294 119 Q 337 114 383 99 Q 430 84 462 67 Q 461 78 503 91 Q 445 106 398 121 Q 350 136 320 145 Z M 52 410 26 385 Q 67 374 97 359 Q 127 343 149 326 Q 164 333 186 343 Q 99 393 52 410 Z M 207 402 Q 244 439 270 449 Q 298 436 341 402 Z M 223 145 H 127 Q 99 166 78 181 Q 121 177 212 171 Q 203 160 199 153 Q 210 147 223 145 Z M 302 462 Q 331 471 382 475 Q 434 480 510 475 Q 495 497 493 510 Q 406 508 358 501 Q 309 495 268 480 Q 212 499 154 504 Q 97 510 45 512 Q 41 499 24 477 Q 90 495 132 480 Q 186 477 240 464 Q 210 447 184 415 Q 149 436 123 449 Q 112 439 93 428 Q 121 417 161 391 Q 201 365 227 335 Q 246 346 270 356 Q 244 367 225 380 H 406 Q 350 436 302 462 Z M 322 343 Q 339 333 339 322 H 78 Q 80 294 80 279 Q 80 264 78 225 H 121 Q 119 246 119 261 V 300 H 164 Q 151 287 140 279 Q 207 268 235 255 Q 207 242 149 231 Q 178 220 179 212 Q 207 218 270 240 Q 289 233 328 210 Q 343 218 372 227 Q 320 244 305 253 Q 369 270 389 277 Q 369 287 361 298 Q 331 285 266 268 Q 210 289 173 300 H 400 V 266 Q 400 246 398 225 H 441 Q 439 270 439 281 Q 439 292 441 322 H 346 Q 372 331 413 346 Q 454 361 488 374 Q 475 385 464 402 Q 449 393 410 377 Q 372 361 322 343 Z" fill="black" />
  </g>
  <g class="defect" id="01">
    <path d="M 149 231 Q 178 220 179 212" fill="none" stroke="red" stroke-width="3" />
  </g>
  <g class="defect" id="02">
    <path d="M 24 477 Q 90 495 132 480" fill="none" stroke="red" stroke-width="3" />
  </g>
  <g class="defect" id="03">
    <path d="M 462 67 Q 461 78 503 91" fill="none" stroke="red" stroke-width="3" />
  </g>
</svg>