<svg xmlns="http://www.w3.org/2000/svg" width="512" height="512" viewBox="0 0 512 512">
  <g class="glyph">
    <path d="M 174 37 Q 170 65 168 99 L 159 256 H 202 Q 198 282 194 325 L 185 435 Q 183 480 159 486 Q 136 493 97 501 Q 90 473 80 454 Q 120 454 133 453 Q 146 452 151 424 L 161 290 H 28 Q 42 243 33 193 Q 34 142 34 110 H 75 Q 71 136 69 179 L 67 256 H 120 L 131 69 H 65 Q 37 69 9 71 V 34 Q 37 37 65 37 Z M 439 265 Q 471 265 503 262 V 301 Q 471 299 439 299 H 381 V 465 Q 381 488 365 495 Q 349 501 312 508 Q 308 484 295 463 Q 323 463 332 461 Q 342 460 342 445 V 299 H 293 Q 258 299 228 301 V 262 Q 258 265 293 265 Z M 392 65 H 508 Q 506 86 506 110 Q 506 131 508 155 H 465 V 99 H 254 V 157 H 211 Q 213 129 213 108 Q 213 86 211 65 H 349 Q 342 34 333 13 Q 353 9 379 0 Q 385 30 392 65 Z M 394 168 Q 419 168 450 166 V 202 Q 419 200 394 200 H 329 Q 297 200 269 202 V 166 Q 297 168 327 168 Z M 234 465 Q 217 450 200 437 Q 222 415 237 396 Q 252 376 269 340 Q 286 353 310 366 Q 297 379 279 406 Q 260 432 234 465 Z M 512 439 Q 493 447 473 463 Q 458 435 442 411 Q 426 387 409 364 Q 424 351 441 338 Q 458 361 475 386 Q 493 411 512 439 Z M 11 402 Q 4 385 0 361 Q 22 361 56 357 Q 90 353 129 346 Q 125 364 125 381 Q 97 385 66 390 Q 34 396 11 402 Z" fill="black" />
  </g>
  <g class="defect" id="01">
    <path d="M 28 290 Q 42 243 33 193" fill="none" stroke="red" stroke-width="3" />
  </g>
</svg>