<svg xmlns="http://www.w3.org/2000/svg" width="512" height="512" viewBox="0 0 512 512">
  <g class="glyph">
    <path d="M 324 271 H 448 Q 433 318 418 349 Q 404 380 384 408 Q 402 422 427 439 Q 452 457 508 474 Q 486 492 472 510 Q 433 490 403 468 Q 373 446 360 435 Q 333 459 306 477 Q 278 494 236 512 Q 227 497 210 481 Q 223 472 276 455 Q 309 437 335 408 Q 307 371 287 331 Q 263 364 247 382 Q 230 369 214 362 Q 245 333 266 299 Q 287 265 302 225 Q 322 234 346 241 Q 335 249 324 271 Z M 258 53 V 132 H 291 Q 278 119 267 110 Q 287 99 301 89 Q 316 79 327 68 Q 318 57 278 33 L 300 7 Q 335 33 351 42 Q 373 18 384 0 Q 402 11 419 22 Q 408 29 396 40 Q 384 51 373 64 Q 419 102 426 110 Q 410 121 402 132 H 430 V 51 Q 430 38 428 20 H 468 Q 466 38 466 51 V 117 Q 466 130 468 161 H 294 Q 313 177 324 188 Q 311 196 286 216 Q 260 236 227 258 Q 214 238 201 230 Q 227 218 247 203 Q 267 188 287 161 H 221 Q 223 137 223 119 V 53 Q 223 40 221 18 H 260 Q 258 38 258 53 Z M 203 311 V 450 Q 203 472 189 477 Q 174 481 148 486 Q 143 466 132 448 Q 159 448 163 446 Q 168 444 168 426 V 278 H 40 V 497 H 0 Q 4 446 4 424 V 331 Q 4 291 0 247 H 205 Q 203 287 203 311 Z M 183 159 Q 183 185 185 212 H 20 Q 22 185 22 159 Q 22 130 20 102 H 185 Q 183 130 183 159 Z M 130 362 H 152 V 393 H 117 V 463 H 84 V 393 H 53 V 362 H 106 Q 110 349 115 337 Q 119 324 126 294 Q 139 300 159 307 Q 150 318 143 332 Q 137 346 130 362 Z M 135 31 Q 166 31 201 29 V 64 Q 166 62 135 62 H 62 Q 40 62 7 64 V 29 Q 40 31 62 31 Z M 150 183 V 132 H 57 V 183 Z M 399 300 H 311 Q 318 320 332 343 Q 346 366 358 380 Q 371 360 382 340 Q 393 320 399 300 Z M 494 227 Q 477 241 466 256 Q 444 234 424 220 Q 404 205 380 192 L 404 168 Q 426 181 446 194 Q 466 207 494 227 Z M 395 132 Q 382 115 353 88 Q 322 119 298 132 Z M 93 344 Q 77 349 68 353 Q 62 327 55 307 Q 64 302 79 298 Q 86 320 93 344 Z" fill="black" />
  </g>
  <g class="defect" id="01">
    <path d="M 210 481 Q 223 472 276 455" fill="none" stroke="red" stroke-width="3" />
  </g>
</svg>