<svg xmlns="http://www.w3.org/2000/svg" width="512" height="512" viewBox="0 0 512 512">
  <g class="glyph">
    <path d="M 223 405 V 371 Q 246 373 274 373 H 411 V 338 H 251 Q 235 322 253 276 V 195 Q 253 167 251 141 H 321 V 101 H 287 Q 255 101 225 103 V 71 Q 255 73 287 73 H 388 Q 409 19 411 0 Q 428 6 450 17 Q 441 26 435 41 Q 428 56 420 73 H 454 Q 482 73 510 71 V 101 Q 484 99 456 99 H 416 V 141 H 488 Q 486 174 486 193 V 276 Q 486 308 488 338 H 443 V 373 Q 486 373 512 368 V 405 Q 478 403 443 403 V 469 Q 443 493 431 498 Q 418 503 379 508 Q 375 486 364 469 Q 390 469 401 468 Q 411 467 411 450 V 403 H 274 Q 244 403 223 405 Z M 88 0 Q 105 11 129 19 Q 118 28 99 64 H 191 L 159 159 H 214 Q 212 191 212 221 V 306 Q 212 349 214 364 H 36 Q 39 343 39 306 V 167 L 26 186 Q 15 171 0 163 Q 13 146 40 102 Q 66 58 88 0 Z M 454 253 V 227 Q 407 231 394 219 Q 381 206 383 169 H 349 Q 347 193 341 210 Q 334 227 321 240 Q 308 229 293 221 Q 306 212 313 200 Q 319 189 319 169 H 285 V 253 Z M 216 392 Q 216 409 219 426 Q 141 439 123 443 Q 105 448 79 453 Q 54 458 28 467 Q 21 446 13 424 Q 101 413 216 392 Z M 454 308 V 278 H 285 V 308 Z M 124 159 146 96 H 84 Q 64 129 45 159 Z M 180 336 V 274 H 141 V 336 Z M 109 336 V 274 H 73 V 336 Z M 180 244 V 186 H 141 V 244 Z M 109 244 V 186 H 73 V 244 Z M 278 15 Q 289 9 306 0 Q 319 26 332 54 L 302 69 Q 291 43 278 15 Z M 306 478 Q 300 467 295 455 Q 289 443 281 431 Q 289 424 306 416 Q 313 426 320 440 Q 328 454 334 463 Q 319 469 306 478 Z M 383 141 V 101 H 351 V 141 Z M 454 169 H 416 Q 413 195 423 198 Q 433 201 454 201 Z" fill="black" />
  </g>
  <g class="defect" id="01">
    <path d="M 251 338 Q 235 322 253 276" fill="none" stroke="red" stroke-width="3" />
  </g>
</svg>