<svg xmlns="http://www.w3.org/2000/svg" width="512" height="512" viewBox="0 0 512 512">
  <g class="glyph">
    <path d="M 114 344 H 404 Q 469 344 510 342 V 368 Q 469 366 398 366 H 114 V 385 H 506 Q 499 398 497 426 L 488 480 Q 484 497 465 501 Q 445 506 394 512 Q 389 488 376 469 Q 419 471 435 471 Q 450 471 452 458 L 458 407 H 114 V 419 H 71 Q 73 366 73 353 V 273 Q 83 233 71 215 H 170 Q 176 202 185 181 Q 207 187 234 194 Q 217 209 215 215 H 430 Q 428 239 428 258 V 286 Q 428 303 430 325 H 114 Z M 486 176 Q 471 189 452 209 Q 428 181 364 138 Q 346 159 332 170 Q 318 181 273 209 Q 256 194 232 179 Q 318 155 333 110 Q 349 65 344 4 Q 364 6 389 9 Q 385 24 385 41 Q 385 58 376 108 Q 413 127 486 176 Z M 47 215 Q 32 200 9 183 Q 47 168 69 151 Q 90 133 99 111 Q 108 88 109 61 Q 110 34 108 0 Q 131 2 153 4 Q 148 19 146 34 L 144 80 Q 144 105 126 140 Q 108 174 47 215 Z M 114 282 V 303 H 387 V 282 Z M 114 239 V 260 H 387 V 239 Z M 428 112 Q 413 99 394 90 Q 424 60 441 30 L 480 49 Q 465 62 456 74 Q 447 86 428 112 Z M 39 499 Q 17 490 0 488 Q 9 480 17 461 Q 26 443 37 419 Q 52 424 73 426 Q 65 439 55 463 Q 45 486 39 499 Z M 228 155 Q 211 168 198 179 Q 187 166 140 127 Q 151 116 163 105 Q 183 120 228 155 Z M 69 67 56 108 Q 34 97 19 95 Q 34 71 43 30 Q 60 34 84 39 Q 75 49 69 67 Z M 153 80 Q 176 47 187 22 Q 202 30 226 39 Q 211 49 179 97 Q 161 86 153 80 Z M 282 112 Q 262 105 247 99 Q 269 67 275 37 Q 286 41 314 47 Q 305 60 300 73 Q 295 86 282 112 Z M 267 490 Q 250 493 230 495 Q 224 469 209 435 Q 226 430 247 428 Q 254 447 267 490 Z M 370 484 Q 355 484 331 490 Q 325 460 310 430 Q 327 428 349 424 Q 357 456 370 484 Z M 166 493 Q 146 493 131 497 Q 127 469 114 435 Q 129 432 153 428 Q 159 467 166 493 Z" fill="black" />
  </g>
  <g class="defect" id="01">
    <path d="M 73 273 Q 83 233 71 215" fill="none" stroke="red" stroke-width="3" />
  </g>
</svg>