<svg xmlns="http://www.w3.org/2000/svg" width="512" height="512" viewBox="0 0 512 512">
  <g class="glyph">
    <path d="M 336 172 Q 331 166 328 157 Q 325 148 326 137 Q 327 126 329 115 Q 296 120 272 125 Q 231 131 228 118 Q 207 105 233 105 Q 259 105 331 89 Q 333 63 333 48 Q 333 31 325 16 Q 316 2 326 1 Q 336 0 357 11 Q 379 22 373 33 Q 366 44 362 85 Q 401 78 423 72 Q 444 65 459 78 Q 473 92 451 97 Q 429 102 359 113 Q 357 155 344 170 Q 366 166 375 157 Q 383 148 399 151 Q 414 155 427 166 Q 440 176 436 183 Q 431 190 428 212 Q 425 235 427 280 Q 429 325 423 358 Q 416 392 407 391 Q 399 390 393 373 Q 388 355 385 357 Q 381 359 305 362 Q 303 375 293 383 Q 283 392 280 364 Q 277 336 278 302 Q 279 268 278 232 Q 266 196 269 182 Q 261 168 273 170 Q 285 172 294 174 Q 303 176 336 172 Z M 126 190 Q 102 222 72 248 Q 41 275 21 285 Q 0 296 32 265 Q 63 233 87 198 Q 111 163 137 107 Q 163 50 160 31 Q 157 11 171 15 Q 185 20 200 34 Q 216 48 208 56 Q 200 63 196 72 Q 192 81 135 176 Q 166 205 159 229 Q 153 253 154 351 Q 155 449 145 468 Q 135 488 124 459 Q 113 429 119 414 Q 124 399 129 358 Q 133 318 132 260 Q 131 203 126 190 Z M 216 331 Q 216 259 205 244 Q 194 229 210 232 Q 227 235 241 246 Q 255 257 248 271 Q 242 285 240 418 Q 305 414 358 410 Q 412 405 440 401 Q 468 397 490 414 Q 512 431 447 430 Q 381 429 315 434 Q 248 438 236 448 Q 224 458 214 441 Q 203 425 209 414 Q 216 403 216 331 Z M 390 346 Q 394 314 395 248 Q 397 183 388 181 Q 379 179 305 190 V 233 Q 320 231 338 225 Q 355 220 366 229 Q 377 237 351 244 Q 325 251 305 248 V 288 Q 318 288 338 283 Q 357 279 367 287 Q 377 294 355 301 Q 333 307 305 303 V 346 Q 357 340 367 339 Q 377 338 390 346 Z" fill="black" />
  </g>
  <g class="defect" id="01">
    <path d="M 278 232 Q 266 196 269 182" fill="none" stroke="red" stroke-width="3" />
  </g>
  <g class="defect" id="02">
    <path d="M 272 125 Q 231 131 228 118" fill="none" stroke="red" stroke-width="3" />
  </g>
</svg>