<svg xmlns="http://www.w3.org/2000/svg" width="512" height="512" viewBox="0 0 512 512">
  <g class="glyph">
    <path d="M 295 206 Q 303 60 291 33 Q 280 5 299 10 Q 319 16 329 24 Q 340 31 374 26 Q 408 21 424 10 Q 441 0 460 10 Q 478 21 495 39 Q 512 57 503 68 Q 494 78 486 93 Q 478 107 472 153 Q 465 199 460 248 Q 455 298 445 347 Q 436 397 417 421 Q 397 444 389 422 Q 381 400 376 384 Q 311 379 219 389 Q 139 418 94 402 Q 86 439 74 426 Q 63 413 59 384 Q 55 355 51 296 Q 33 238 38 162 Q 29 86 14 68 Q 0 50 18 52 Q 37 55 47 60 Q 57 65 93 57 Q 128 50 140 35 Q 152 21 167 26 Q 183 31 200 42 Q 217 52 206 68 Q 211 72 196 144 V 227 Q 240 219 295 206 Z M 327 201 Q 360 225 338 227 Q 316 230 196 251 Q 188 269 183 270 Q 178 272 170 252 Q 162 232 163 221 Q 165 209 165 146 Q 165 84 161 73 Q 157 63 141 65 Q 125 68 65 81 Q 76 162 89 379 Q 172 371 232 363 Q 293 355 321 349 Q 350 342 363 349 Q 376 355 389 360 Q 402 342 418 253 Q 434 165 436 125 Q 439 86 438 67 Q 436 47 410 47 Q 384 47 340 52 Q 334 94 327 201 Z" fill="black" />
  </g>
  <g class="defect" id="01">
    <path d="M 51 296 Q 33 238 38 162" fill="none" stroke="red" stroke-width="3" />
  </g>
  <g class="defect" id="02">
    <path d="M 206 68 Q 211 72 196 144" fill="none" stroke="red" stroke-width="3" />
  </g>
  <g class="defect" id="03">
    <path d="M 219 389 Q 139 418 94 402" fill="none" stroke="red" stroke-width="3" />
  </g>
</svg>