<svg xmlns="http://www.w3.org/2000/svg" width="512" height="512" viewBox="0 0 512 512">
  <g class="glyph">
    <path d="M 374 123 324 129 Q 353 142 350 149 Q 347 157 343 167 Q 362 161 377 157 Q 391 152 403 162 Q 415 171 404 176 Q 394 180 336 190 Q 332 207 326 231 Q 358 224 382 217 Q 406 209 419 220 Q 432 231 417 235 Q 402 239 384 241 Q 366 243 319 250 Q 347 269 376 286 Q 404 303 440 314 Q 476 326 494 331 Q 512 336 496 341 Q 480 345 447 346 Q 415 347 402 341 Q 389 334 364 309 Q 339 284 307 254 Q 271 258 248 264 Q 256 286 249 295 Q 241 305 233 313 Q 224 322 214 334 Q 248 341 249 359 Q 250 377 233 367 Q 216 358 207 343 Q 171 372 144 385 Q 116 398 142 376 Q 167 353 186 330 Q 205 307 217 290 Q 228 273 222 273 Q 216 273 200 278 Q 184 284 173 280 Q 163 277 153 269 Q 144 260 157 260 Q 169 260 243 248 Q 241 231 235 212 Q 218 218 208 221 Q 199 224 182 214 Q 165 203 182 201 Q 199 199 226 193 Q 220 178 211 167 Q 201 157 218 158 Q 235 159 245 163 Q 256 167 256 186 Q 300 176 313 173 Q 317 148 309 131 Q 281 135 250 144 Q 243 167 231 142 Q 218 116 207 89 Q 197 61 187 50 Q 178 38 193 38 Q 207 38 217 39 Q 226 40 270 30 Q 313 19 332 10 Q 351 0 365 4 Q 379 8 398 22 Q 417 36 402 50 Q 387 63 374 102 Q 391 121 374 123 Z M 99 233 Q 99 197 95 173 Q 72 209 50 233 Q 28 256 14 262 Q 0 269 14 252 Q 28 235 51 199 Q 74 163 92 123 Q 127 83 114 62 Q 118 42 116 28 Q 114 13 131 21 Q 148 30 156 38 Q 163 47 157 54 Q 150 61 139 83 Q 127 104 110 150 Q 125 171 123 220 Q 121 269 118 333 Q 116 398 113 418 Q 110 438 103 453 Q 95 468 86 442 Q 76 417 83 397 Q 89 377 92 352 Q 95 328 97 297 Q 99 267 99 233 Z M 235 83 Q 258 76 267 74 Q 294 56 291 66 Q 307 59 318 68 Q 330 76 307 84 Q 284 91 241 97 Q 243 112 248 127 Q 269 123 293 117 Q 317 112 349 106 Q 355 44 350 37 Q 345 30 330 32 Q 315 34 293 39 Q 271 44 228 55 Q 233 72 235 83 Z M 273 358 Q 273 336 271 319 Q 269 303 262 288 Q 256 273 269 277 Q 284 279 294 285 Q 305 290 301 298 Q 298 307 297 331 Q 296 355 298 390 Q 300 425 298 442 Q 296 459 286 471 Q 275 482 268 465 Q 260 449 240 438 Q 220 427 238 428 Q 256 429 263 426 Q 271 423 272 400 Q 273 377 273 358 Z M 322 381 Q 349 385 371 391 Q 394 398 402 412 Q 410 425 408 435 Q 406 444 392 438 Q 379 432 356 419 Q 334 406 314 391 Q 294 377 322 381 Z M 256 370 Q 269 364 254 379 Q 239 394 220 407 Q 201 421 194 431 Q 186 440 173 432 Q 161 423 157 414 Q 152 404 167 403 Q 182 402 213 388 Q 243 374 256 370 Z M 260 241 Q 269 241 303 235 Q 307 214 309 195 Q 284 199 258 205 Q 260 224 260 241 Z M 349 313 Q 362 322 367 331 Q 372 341 364 344 Q 355 347 340 355 Q 324 364 311 370 Q 298 377 307 366 Q 315 355 324 344 Q 332 332 334 318 Q 336 305 349 313 Z" fill="black" />
  </g>
  <g class="defect" id="01">
    <path d="M 267 74 Q 294 56 291 66" fill="none" stroke="red" stroke-width="3" />
  </g>
  <g class="defect" id="02">
    <path d="M 92 123 Q 127 83 114 62" fill="none" stroke="red" stroke-width="3" />
  </g>
</svg>