<svg xmlns="http://www.w3.org/2000/svg" width="512" height="512" viewBox="0 0 512 512">
  <g class="glyph">
    <path d="M 480 108 417 115 Q 381 120 341 129 V 183 Q 388 171 401 165 Q 415 158 429 165 Q 442 171 454 180 Q 467 189 458 203 Q 449 217 450 259 Q 451 302 458 367 Q 445 445 462 452 Q 460 474 445 493 Q 431 512 425 492 Q 420 471 395 451 Q 370 431 392 436 Q 415 442 418 440 Q 422 438 426 431 Q 431 424 430 367 Q 429 309 426 273 Q 424 237 422 214 Q 420 192 406 189 Q 392 187 341 196 V 255 Q 363 250 372 246 Q 381 241 395 251 Q 408 262 391 267 Q 374 273 341 282 V 323 Q 365 318 374 314 Q 383 309 399 320 Q 415 332 396 337 Q 377 343 341 350 Q 343 399 341 432 Q 338 465 330 473 Q 323 480 319 442 Q 316 404 316 354 Q 302 356 293 357 Q 284 359 272 351 Q 259 343 272 341 Q 284 338 316 329 V 289 Q 300 289 293 291 Q 286 293 274 284 Q 262 275 277 272 Q 293 268 316 262 V 203 Q 286 208 253 217 Q 255 302 254 363 Q 253 424 242 458 Q 232 492 221 466 Q 210 440 217 421 Q 223 401 226 376 Q 228 350 230 295 Q 232 241 222 220 Q 212 198 223 200 Q 235 201 246 201 Q 257 201 316 189 V 133 Q 262 144 241 149 Q 221 153 202 141 Q 183 129 201 129 Q 219 129 247 124 Q 275 120 316 111 Q 314 56 310 39 Q 307 23 300 11 Q 293 0 324 8 Q 354 16 347 33 Q 341 50 341 104 Q 413 92 445 83 Q 478 74 493 89 Q 507 104 480 108 Z M 61 284 Q 59 314 52 316 Q 45 318 41 301 Q 36 284 29 235 Q 23 185 11 167 Q 0 149 15 150 Q 29 151 39 156 Q 50 160 77 152 Q 104 144 116 136 Q 129 129 143 133 Q 158 138 173 149 Q 187 160 171 174 Q 156 187 140 244 Q 173 278 144 267 Q 126 271 61 284 Z M 59 264 Q 74 262 115 250 Q 117 223 120 203 Q 122 183 120 175 Q 117 167 111 166 Q 104 165 54 176 Q 56 228 59 264 Z M 404 45 Q 390 32 382 21 Q 374 11 397 12 Q 420 14 433 21 Q 447 29 445 47 Q 444 65 432 61 Q 420 56 404 45 Z" fill="black" />
  </g>
  <g class="defect" id="01">
    <path d="M 458 367 Q 445 445 462 452" fill="none" stroke="red" stroke-width="3" />
  </g>
  <g class="defect" id="02">
    <path d="M 140 244 Q 173 278 144 267" fill="none" stroke="red" stroke-width="3" />
  </g>
</svg>