<svg xmlns="http://www.w3.org/2000/svg" width="512" height="512" viewBox="0 0 512 512">
  <g class="glyph">
    <path d="M 251 152 Q 251 72 238 52 Q 225 31 242 34 Q 258 36 268 40 Q 278 43 332 33 Q 386 22 406 11 Q 425 0 447 12 Q 469 24 479 35 Q 490 46 481 62 Q 456 77 475 158 Q 478 239 476 274 Q 473 309 462 331 Q 452 353 443 324 Q 435 295 437 269 Q 440 244 440 167 Q 440 87 431 60 Q 423 34 389 40 Q 355 46 278 58 Q 280 147 279 202 Q 278 256 274 287 Q 270 319 261 332 Q 251 345 240 322 Q 229 299 240 264 Q 251 229 251 152 Z M 65 237 Q 63 270 57 273 Q 51 275 43 256 Q 36 237 30 180 Q 24 123 12 103 Q 0 82 16 85 Q 16 87 42 91 Q 53 94 71 91 Q 89 87 104 83 Q 118 80 130 69 Q 142 58 157 64 Q 171 70 192 83 Q 213 97 194 116 Q 176 135 159 191 Q 186 215 164 219 Q 142 222 65 237 Z M 336 191 Q 336 140 326 120 Q 316 99 336 104 Q 355 106 372 115 Q 389 123 383 134 Q 377 145 373 196 Q 370 246 361 290 Q 353 333 326 374 Q 299 415 258 440 Q 217 464 182 471 Q 147 478 196 453 Q 244 427 279 385 Q 314 343 325 291 Q 336 239 336 191 Z M 63 215 Q 85 213 130 200 Q 135 169 136 144 Q 138 118 136 111 Q 152 93 127 101 Q 118 99 58 114 Z M 384 362 Q 333 312 396 338 Q 459 365 485 388 Q 512 411 505 442 Q 498 473 467 442 Q 437 411 384 362 Z" fill="black" />
  </g>
  <g class="defect" id="01">
    <path d="M 481 62 Q 456 77 475 158" fill="none" stroke="red" stroke-width="3" />
  </g>
  <g class="defect" id="02">
    <path d="M 16 85 Q 16 87 42 91" fill="none" stroke="red" stroke-width="3" />
  </g>
  <g class="defect" id="03">
    <path d="M 136 111 Q 152 93 127 101" fill="none" stroke="red" stroke-width="3" />
  </g>
</svg>