<svg xmlns="http://www.w3.org/2000/svg" width="512" height="512" viewBox="0 0 512 512">
  <g class="glyph">
    <path d="M 342 143 Q 354 158 350 167 Q 346 176 340 214 Q 386 203 417 197 Q 448 191 463 204 Q 479 218 457 220 Q 435 222 406 225 Q 377 228 340 234 Q 371 292 400 332 Q 429 371 452 385 Q 475 398 493 406 Q 512 415 482 416 Q 452 417 427 414 Q 402 410 393 390 Q 383 369 367 330 Q 350 290 332 253 Q 328 274 310 308 Q 292 342 267 370 Q 243 398 203 411 Q 164 425 196 404 Q 228 383 261 338 Q 294 292 307 238 Q 282 247 255 254 Q 238 261 209 248 Q 191 234 205 234 L 236 232 Q 253 230 311 218 Q 315 182 315 147 Q 296 147 288 143 Q 253 180 229 193 Q 205 205 225 186 Q 245 166 263 134 Q 282 102 292 68 Q 303 35 298 18 Q 294 0 306 2 Q 317 4 334 16 Q 350 27 341 36 Q 332 46 321 74 Q 311 102 294 126 Q 338 120 345 115 Q 365 110 382 104 Q 400 97 416 109 Q 431 120 408 127 Q 386 135 342 143 Z M 189 168 Q 199 168 204 172 Q 209 176 201 186 Q 193 195 151 209 Q 149 251 149 290 Q 214 261 219 266 Q 224 272 153 312 Q 83 352 66 363 Q 50 373 25 353 Q 0 334 30 332 Q 60 330 129 301 V 216 Q 85 226 67 220 Q 50 214 70 207 Q 91 201 126 189 Q 126 120 123 98 Q 120 77 109 55 Q 97 33 135 48 Q 172 62 163 77 Q 153 91 151 178 Q 180 168 189 168 Z" fill="black" />
  </g>
  <g class="defect" id="01">
    <path d="M 294 126 Q 338 120 345 115" fill="none" stroke="red" stroke-width="3" />
  </g>
  <g class="defect" id="02">
    <path d="M 255 254 Q 238 261 209 248" fill="none" stroke="red" stroke-width="3" />
  </g>
</svg>