<svg xmlns="http://www.w3.org/2000/svg" width="512" height="512" viewBox="0 0 512 512">
  <g class="glyph">
    <path d="M 251 297 Q 299 343 338 368 Q 378 393 412 405 Q 446 418 479 425 Q 512 433 472 441 Q 448 448 401 447 Q 369 446 353 431 Q 336 415 307 388 Q 277 360 235 319 Q 191 367 159 389 Q 127 411 92 427 Q 57 444 29 446 Q 0 448 35 433 Q 70 418 124 379 Q 178 341 211 297 Q 167 244 146 232 Q 125 220 142 214 Q 158 209 166 216 Q 161 205 178 231 Q 182 237 226 277 Q 261 226 277 188 Q 292 149 291 140 Q 290 130 267 133 Q 244 136 222 141 Q 200 145 180 136 Q 156 180 135 208 Q 114 235 92 255 Q 70 275 51 286 Q 31 297 57 269 Q 84 242 116 189 Q 149 136 169 82 Q 189 29 186 14 Q 182 0 200 9 Q 218 18 226 27 Q 235 37 226 49 Q 218 62 210 76 Q 202 90 187 123 Q 215 123 246 116 Q 277 110 291 101 Q 287 79 320 100 Q 334 108 348 120 Q 363 132 347 145 Q 332 158 310 199 Q 288 240 251 297 Z" fill="black" />
  </g>
  <g class="defect" id="01">
    <path d="M 166 216 Q 161 205 178 231" fill="none" stroke="red" stroke-width="3" />
  </g>
  <g class="defect" id="02">
    <path d="M 291 101 Q 287 79 320 100" fill="none" stroke="red" stroke-width="3" />
  </g>
  <g class="defect" id="03">
    <path d="M 472 441 Q 448 448 401 447" fill="none" stroke="red" stroke-width="3" />
  </g>
</svg>