<svg xmlns="http://www.w3.org/2000/svg" width="512" height="512" viewBox="0 0 512 512">
  <g class="glyph">
    <path d="M 329 209 Q 363 205 387 198 Q 392 154 384 138 Q 376 122 392 127 Q 407 131 419 138 Q 430 145 424 158 Q 419 171 414 194 Q 450 189 466 188 Q 483 187 493 200 Q 503 214 481 214 Q 461 214 410 220 Q 403 254 396 289 Q 419 314 398 313 Q 378 312 327 316 Q 318 341 311 325 Q 303 309 304 298 Q 305 287 305 238 Q 276 245 262 234 Q 247 223 264 221 Q 280 220 305 214 Q 303 176 293 161 Q 283 147 298 149 Q 314 151 325 158 Q 336 165 334 171 Q 332 178 329 209 Z M 256 125 Q 252 200 247 236 Q 243 272 228 316 Q 214 361 188 401 Q 163 441 134 464 Q 105 488 132 450 Q 160 412 180 367 Q 200 323 210 279 Q 220 236 225 184 Q 229 131 220 115 Q 211 98 224 100 Q 236 102 247 106 Q 258 109 319 97 Q 381 85 408 78 Q 436 71 455 79 Q 474 87 460 95 Q 445 102 378 114 Q 312 125 256 125 Z M 136 198 Q 134 243 131 285 Q 176 267 183 264 Q 189 260 191 267 Q 194 274 159 292 Q 125 309 95 328 Q 65 347 56 355 Q 47 363 35 357 Q 22 352 11 339 Q 14 310 21 325 Q 42 323 111 294 V 205 Q 73 216 53 207 Q 33 198 56 194 Q 78 189 111 180 Q 111 118 107 91 Q 102 65 95 49 Q 87 33 105 38 Q 122 42 135 51 Q 147 60 142 72 Q 138 85 137 102 Q 136 120 136 171 Q 178 158 188 167 Q 198 176 180 183 Q 163 189 136 198 Z M 447 334 Q 479 352 495 373 Q 512 394 509 416 Q 505 439 498 440 Q 490 441 474 414 Q 459 387 439 352 Q 419 316 447 334 Z M 327 298 Q 352 296 376 292 Q 381 260 383 225 Q 365 227 329 234 Q 327 265 327 298 Z M 258 367 Q 263 387 258 415 Q 254 443 243 459 Q 232 474 226 462 Q 220 450 219 437 Q 218 425 224 417 Q 229 410 237 394 Q 245 378 250 362 Q 256 345 258 367 Z M 325 2 Q 345 2 363 11 Q 381 20 383 35 Q 385 49 380 58 Q 374 67 356 53 Q 338 40 322 20 Q 305 0 325 2 Z M 378 361 Q 401 372 407 386 Q 414 401 406 415 Q 398 430 387 413 Q 376 396 366 373 Q 356 349 378 361 Z M 305 370 Q 321 376 329 385 Q 338 394 341 405 Q 343 416 335 427 Q 327 439 321 427 Q 314 416 303 390 Q 292 363 305 370 Z" fill="black" />
  </g>
  <g class="defect" id="01">
    <path d="M 11 339 Q 14 310 21 325" fill="none" stroke="red" stroke-width="3" />
  </g>
</svg>