<svg xmlns="http://www.w3.org/2000/svg" width="512" height="512" viewBox="0 0 512 512">
  <g class="glyph">
    <path d="M 171 252 Q 243 243 291 230 Q 338 218 354 224 Q 370 229 373 237 Q 376 245 362 249 Q 347 254 296 258 Q 312 269 307 280 Q 303 292 298 336 Q 347 332 386 328 Q 425 325 450 325 Q 474 325 488 344 Q 501 363 485 363 Q 472 363 442 361 Q 412 358 363 358 Q 316 358 205 367 Q 105 376 77 382 Q 49 387 24 371 Q 0 354 32 355 Q 65 356 149 347 Q 142 249 138 223 Q 134 196 127 185 Q 120 174 136 176 Q 151 178 158 180 Q 165 183 194 175 Q 223 167 245 156 Q 267 145 272 136 Q 276 127 293 134 Q 309 140 322 151 Q 334 163 325 165 Q 316 167 283 174 Q 249 180 169 196 Q 169 223 171 252 Z M 114 102 Q 191 96 280 81 Q 370 67 380 62 Q 390 58 412 70 Q 434 82 447 97 Q 461 111 435 116 Q 410 120 383 139 Q 356 158 372 131 Q 374 124 380 96 Q 372 87 324 92 Q 276 98 213 108 Q 149 118 114 118 Q 100 167 87 184 Q 73 200 65 183 Q 56 165 68 145 Q 80 125 89 99 Q 98 73 105 79 Q 111 85 114 102 Z M 272 338 Q 274 307 273 292 Q 272 276 265 263 Q 219 267 171 267 Q 171 294 174 345 Q 223 343 272 338 Z M 307 383 Q 363 403 385 430 Q 407 456 398 484 Q 390 512 358 472 Q 327 432 298 401 Q 269 370 307 383 Z M 167 390 Q 167 374 184 382 Q 200 390 211 398 Q 223 405 207 415 Q 171 405 165 447 Q 138 470 110 484 Q 82 499 61 503 Q 40 508 76 484 Q 111 461 139 432 Q 167 403 167 390 Z M 229 42 Q 218 27 210 13 Q 203 0 230 7 Q 258 13 268 28 Q 278 42 272 59 Q 265 76 253 66 Q 240 56 229 42 Z" fill="black" />
  </g>
  <g class="defect" id="01">
    <path d="M 207 415 Q 171 405 165 447" fill="none" stroke="red" stroke-width="3" />
  </g>
  <g class="defect" id="02">
    <path d="M 265 263 Q 219 267 171 267" fill="none" stroke="red" stroke-width="3" />
  </g>
  <g class="defect" id="03">
    <path d="M 372 131 Q 374 124 380 96" fill="none" stroke="red" stroke-width="3" />
  </g>
</svg>