<svg xmlns="http://www.w3.org/2000/svg" width="512" height="512" viewBox="0 0 512 512">
  <g class="glyph">
    <path d="M 298 193 Q 311 174 319 159 Q 327 145 319 141 Q 300 143 286 148 Q 273 153 260 143 Q 248 132 262 132 Q 277 132 297 127 Q 317 122 323 118 Q 329 113 344 121 Q 359 128 369 142 Q 380 155 356 163 Q 332 170 302 201 Q 342 248 383 275 Q 424 302 468 319 Q 512 336 494 338 Q 476 340 434 341 Q 392 342 372 316 Q 353 290 336 270 Q 319 250 296 219 Q 273 189 258 179 Q 243 170 256 168 Q 269 166 298 193 Z M 174 170 Q 162 170 153 166 Q 145 176 132 189 Q 151 193 156 205 Q 162 216 156 225 Q 151 233 142 222 Q 132 212 124 197 Q 55 239 89 205 Q 124 170 137 147 Q 151 124 152 108 Q 153 92 172 109 Q 195 126 186 132 Q 176 138 162 155 Q 187 157 198 151 Q 210 145 217 149 Q 225 153 233 162 Q 241 170 231 174 Q 220 178 190 227 Q 159 275 120 313 Q 94 368 40 366 Q 0 382 44 349 Q 88 317 126 274 Q 164 231 177 206 Q 191 180 189 175 Q 187 170 174 170 Z M 248 382 V 420 Q 248 441 242 456 Q 237 472 225 484 Q 212 495 208 481 Q 204 466 179 450 Q 155 434 178 439 Q 201 443 209 441 Q 216 439 217 418 Q 218 397 218 376 Q 218 353 210 338 Q 193 340 173 344 Q 153 348 136 335 Q 120 321 134 321 Q 151 321 188 317 Q 225 313 251 308 Q 277 304 295 300 Q 332 282 329 308 Q 346 321 328 324 Q 311 327 239 336 Q 254 348 251 357 Q 248 365 248 382 Z M 124 73 Q 180 69 232 65 Q 283 61 319 55 Q 355 48 369 43 Q 384 38 419 62 Q 453 86 428 89 Q 403 92 375 109 Q 346 126 361 103 Q 376 80 369 72 Q 363 65 314 69 Q 264 73 215 79 Q 166 84 124 86 Q 107 130 93 143 Q 80 155 77 135 Q 73 115 84 102 Q 94 88 103 70 Q 111 52 115 57 Q 120 61 124 73 Z M 334 380 Q 359 388 367 401 Q 376 413 371 431 Q 367 449 350 434 Q 334 420 318 407 Q 302 394 287 380 Q 273 365 292 368 Q 311 371 334 380 Z M 151 378 Q 151 405 130 435 Q 109 466 104 445 Q 99 424 107 413 Q 115 403 124 390 Q 134 378 143 364 Q 151 350 151 378 Z M 214 256 Q 233 252 255 248 Q 277 243 285 253 Q 294 262 272 269 Q 263 275 231 277 Q 212 279 194 273 Q 176 266 187 263 Q 197 260 214 256 Z M 246 44 Q 218 23 213 12 Q 208 0 235 4 Q 262 8 269 23 Q 275 38 266 55 Q 260 59 246 44 Z M 86 237 Q 86 229 99 234 Q 111 239 118 249 Q 124 258 118 272 Q 111 285 94 262 Q 86 246 86 237 Z" fill="black" />
  </g>
  <g class="defect" id="01">
    <path d="M 120 313 Q 94 368 40 366" fill="none" stroke="red" stroke-width="3" />
  </g>
  <g class="defect" id="02">
    <path d="M 295 300 Q 332 282 329 308" fill="none" stroke="red" stroke-width="3" />
  </g>
  <g class="defect" id="03">
    <path d="M 272 269 Q 263 275 231 277" fill="none" stroke="red" stroke-width="3" />
  </g>
</svg>