<svg xmlns="http://www.w3.org/2000/svg" width="512" height="512" viewBox="0 0 512 512">
  <g class="glyph">
    <path d="M 380 81 344 117 Q 386 108 406 102 Q 427 97 440 97 Q 454 97 460 106 Q 467 115 432 124 Q 397 132 347 140 Q 296 148 258 148 Q 258 191 256 216 Q 274 202 284 188 Q 294 173 293 164 Q 292 155 305 159 Q 319 164 327 171 Q 335 177 321 185 Q 308 193 293 204 Q 278 216 254 229 V 243 Q 274 243 353 231 Q 326 207 324 199 Q 323 191 347 198 Q 356 204 377 225 Q 413 218 440 213 Q 467 209 479 211 Q 475 223 502 220 Q 512 227 506 232 Q 501 238 469 238 Q 440 238 414 240 Q 388 243 368 246 Q 348 249 322 255 Q 296 260 283 260 Q 269 260 254 252 Q 240 335 221 377 Q 202 420 180 445 Q 157 469 137 482 Q 117 494 140 465 Q 164 436 182 401 Q 200 366 211 324 Q 222 283 227 240 Q 231 198 231 180 Q 231 159 225 144 Q 218 128 230 129 Q 243 130 258 132 Q 274 135 326 121 Q 350 81 357 64 Q 364 47 350 51 Q 337 54 310 52 Q 276 99 255 113 Q 234 128 249 104 Q 265 81 278 56 Q 292 31 284 16 Q 276 0 298 6 Q 319 11 324 17 Q 330 22 321 36 Q 353 34 364 25 Q 375 16 394 21 Q 413 27 423 34 Q 433 40 417 51 Q 400 61 380 81 Z M 157 200 Q 157 166 148 166 Q 141 166 112 173 Q 108 312 104 377 Q 101 442 98 465 Q 94 487 81 461 Q 67 436 73 413 Q 79 391 82 347 Q 72 303 88 177 Q 58 184 40 186 Q 38 258 36 283 Q 34 308 28 322 Q 22 337 11 319 Q 0 301 8 283 Q 16 265 17 229 Q 18 193 12 179 Q 7 164 16 166 Q 25 168 31 172 Q 38 175 88 164 V 106 Q 88 67 77 46 Q 67 25 79 27 Q 90 29 110 39 Q 130 49 125 65 Q 119 81 117 106 L 112 155 Q 135 148 146 140 Q 157 132 171 139 Q 184 146 195 153 Q 207 159 199 171 Q 191 182 189 216 Q 186 249 181 269 Q 175 290 167 299 Q 159 308 149 295 Q 139 283 125 268 Q 110 254 121 255 Q 132 256 143 258 Q 153 260 155 246 Q 157 231 157 200 Z M 314 490 Q 308 510 302 501 Q 296 492 286 457 Q 276 422 268 409 Q 260 395 274 395 Q 287 395 299 399 Q 310 402 348 395 Q 386 388 401 380 Q 415 371 428 375 Q 440 380 458 392 Q 476 404 459 411 Q 442 418 427 449 Q 456 481 436 479 Q 415 478 378 482 Q 341 485 314 490 Z M 312 474 Q 373 465 397 456 Q 409 422 408 413 Q 406 404 384 406 Q 362 409 305 418 Q 308 442 312 474 Z M 420 335 Q 420 344 396 350 Q 373 357 344 362 Q 314 366 293 359 Q 272 353 300 346 Q 328 339 355 332 Q 382 326 400 326 Q 420 326 420 335 Z M 411 274 Q 422 278 405 290 Q 388 301 348 308 Q 308 314 295 307 Q 283 299 300 296 Q 317 294 338 289 Q 359 283 381 276 Q 402 269 411 274 Z M 375 153 Q 388 153 406 159 Q 424 166 429 177 Q 433 189 429 195 Q 424 202 403 189 Q 382 175 372 164 Q 362 153 375 153 Z" fill="black" />
  </g>
  <g class="defect" id="01">
    <path d="M 347 198 Q 356 204 377 225" fill="none" stroke="red" stroke-width="3" />
  </g>
  <g class="defect" id="02">
    <path d="M 82 347 Q 72 303 88 177" fill="none" stroke="red" stroke-width="3" />
  </g>
  <g class="defect" id="03">
    <path d="M 479 211 Q 475 223 502 220" fill="none" stroke="red" stroke-width="3" />
  </g>
</svg>