<svg xmlns="http://www.w3.org/2000/svg" width="512" height="512" viewBox="0 0 512 512">
  <g class="glyph">
    <path d="M 424 59 Q 440 59 443 69 Q 446 79 417 85 Q 387 92 350 94 L 348 160 Q 416 149 442 143 Q 468 138 486 149 Q 503 160 498 164 Q 492 168 462 172 Q 431 175 333 188 Q 346 199 341 222 Q 337 245 335 283 Q 333 322 326 349 Q 319 376 306 349 Q 293 322 301 304 Q 309 287 310 252 Q 311 217 304 193 Q 269 199 255 202 Q 241 206 226 208 Q 212 210 194 200 Q 175 190 191 189 Q 208 188 241 184 Q 238 151 235 138 Q 232 125 221 106 Q 210 88 240 97 Q 269 107 266 123 Q 263 138 263 179 Q 287 175 319 166 Q 319 94 316 65 Q 313 35 299 18 Q 284 0 324 11 Q 363 22 357 35 Q 350 48 350 74 Q 357 77 383 68 Q 409 59 424 59 Z M 136 151 Q 153 145 159 147 Q 182 162 183 171 Q 184 179 159 211 Q 133 243 132 251 Q 131 258 133 294 Q 136 330 132 386 Q 129 442 126 461 Q 123 479 117 489 Q 112 499 102 482 Q 78 479 95 444 Q 98 422 105 389 Q 112 357 112 276 Q 96 293 67 327 Q 37 361 19 374 Q 0 387 8 376 Q 15 365 43 329 Q 70 293 94 252 Q 118 210 127 190 Q 136 171 136 151 Z M 431 238 Q 459 258 450 267 Q 440 276 417 316 Q 394 357 358 392 Q 322 427 286 451 Q 249 475 186 493 Q 123 512 186 481 Q 249 451 288 417 Q 326 383 352 348 Q 379 313 393 284 Q 407 256 405 237 Q 403 219 431 238 Z M 127 35 Q 127 18 138 24 Q 151 28 165 43 Q 179 57 172 63 Q 164 70 146 92 Q 127 114 102 139 Q 77 164 53 181 Q 28 197 54 167 Q 79 138 89 125 Q 98 112 113 81 Q 127 50 127 35 Z M 214 249 Q 217 223 231 240 Q 245 256 243 281 Q 241 306 225 328 Q 210 350 201 328 Q 193 306 203 291 Q 214 276 214 249 Z" fill="black" />
  </g>
  <g class="defect" id="01">
    <path d="M 102 482 Q 78 479 95 444" fill="none" stroke="red" stroke-width="3" />
  </g>
  <g class="defect" id="02">
    <path d="M 136 151 Q 153 145 159 147" fill="none" stroke="red" stroke-width="3" />
  </g>
</svg>