<svg xmlns="http://www.w3.org/2000/svg" width="512" height="512" viewBox="0 0 512 512">
  <g class="glyph">
    <path d="M 492 127 V 294 Q 492 392 496 421 Q 500 451 483 481 Q 465 512 456 486 Q 446 461 420 437 Q 394 414 412 421 Q 429 429 443 431 Q 458 434 462 412 Q 465 390 465 311 V 140 Q 465 47 452 27 Q 439 7 456 9 Q 473 10 492 20 Q 512 29 502 44 Q 510 78 492 127 Z M 118 140 Q 118 343 110 425 Q 103 507 85 470 Q 66 434 75 404 Q 83 375 87 329 Q 91 284 92 165 Q 93 47 81 23 Q 69 0 83 2 Q 98 5 115 13 Q 132 22 125 36 Q 118 49 118 120 Q 137 122 154 132 Q 171 142 169 158 Q 167 174 149 164 Q 132 154 118 140 Z M 174 311 Q 174 289 181 258 Q 189 228 189 171 Q 189 113 180 97 Q 171 81 191 87 Q 211 93 243 86 Q 290 91 285 70 Q 296 61 306 64 Q 316 66 337 80 Q 358 93 348 105 Q 338 118 338 186 Q 338 255 337 280 Q 336 306 328 325 Q 321 343 315 327 Q 309 311 310 293 Q 311 274 312 206 Q 314 137 307 115 Q 301 93 278 97 Q 255 100 213 108 Q 211 189 208 239 Q 206 289 198 315 Q 191 341 183 336 Q 174 331 174 311 Z M 255 333 Q 240 375 212 404 Q 184 434 151 446 Q 118 458 138 443 Q 159 429 185 402 Q 211 375 223 341 Q 235 306 240 263 Q 245 220 245 189 Q 245 154 238 141 Q 230 127 245 130 Q 260 132 271 137 Q 282 142 277 153 Q 272 164 269 214 Q 267 265 257 323 Q 318 355 334 375 Q 350 394 342 416 Q 333 439 312 407 Q 292 375 255 333 Z M 416 189 Q 416 216 413 268 Q 409 321 401 311 Q 392 301 390 279 Q 387 257 388 206 Q 390 154 382 141 Q 375 127 387 129 Q 399 130 412 135 Q 426 140 421 151 Q 416 162 416 189 Z M 12 198 Q 17 179 20 157 Q 22 135 38 170 Q 54 206 38 254 Q 22 301 11 279 Q 0 257 5 236 Q 10 216 12 198 Z" fill="black" />
  </g>
  <g class="defect" id="01">
    <path d="M 502 44 Q 510 78 492 127" fill="none" stroke="red" stroke-width="3" />
  </g>
  <g class="defect" id="02">
    <path d="M 243 86 Q 290 91 285 70" fill="none" stroke="red" stroke-width="3" />
  </g>
</svg>