<svg xmlns="http://www.w3.org/2000/svg" width="512" height="512" viewBox="0 0 512 512">
  <g class="glyph">
    <path d="M 127 220 V 225 Q 141 206 153 182 V 105 Q 120 112 106 115 Q 93 117 73 106 Q 53 96 80 95 Q 108 93 153 84 Q 153 38 141 19 Q 129 0 147 4 Q 165 7 179 14 Q 194 22 188 32 Q 182 43 179 79 Q 223 69 234 65 Q 246 60 263 68 Q 263 77 257 84 Q 234 91 179 100 V 182 Q 182 184 187 187 Q 201 170 207 150 Q 213 129 211 116 Q 208 103 232 111 Q 256 120 249 128 Q 242 136 232 153 Q 256 158 270 169 Q 285 179 276 194 Q 268 208 255 191 Q 242 175 230 163 Q 211 182 196 191 Q 215 201 230 211 Q 254 225 260 242 Q 266 258 258 272 Q 251 285 230 261 Q 211 239 179 201 V 275 Q 179 306 173 337 Q 167 368 153 343 Q 139 318 146 301 Q 153 285 153 230 Q 132 258 102 282 Q 72 306 36 324 Q 0 342 29 318 Q 57 294 93 261 Q 110 246 124 227 Q 120 230 110 223 Q 96 211 84 196 Q 62 223 39 232 Q 17 242 35 225 Q 53 208 61 185 Q 69 163 67 148 Q 65 134 89 147 Q 112 160 104 166 Q 96 172 89 187 Q 108 189 120 197 Q 150 187 127 220 Z M 364 318 Q 364 299 346 281 Q 328 263 345 270 Q 361 278 377 280 Q 392 282 404 234 Q 416 187 416 158 Q 416 127 404 128 Q 392 129 364 139 Q 349 199 319 246 Q 289 294 246 316 Q 203 337 239 305 Q 275 273 297 232 Q 318 191 330 144 Q 309 146 299 147 Q 289 148 274 136 Q 258 124 279 126 Q 299 127 333 122 Q 345 72 334 50 Q 323 29 358 45 Q 392 62 383 73 Q 373 84 366 117 Q 397 112 408 105 Q 419 98 428 99 Q 438 100 456 112 Q 474 124 463 136 Q 452 148 444 208 Q 435 268 422 291 Q 409 313 386 324 Q 364 335 364 318 Z M 158 376 Q 177 419 208 443 Q 239 467 297 469 Q 354 471 364 464 Q 373 457 368 440 Q 364 423 349 396 Q 335 368 368 404 Q 402 440 429 453 Q 457 467 421 489 Q 385 512 305 510 Q 225 507 191 471 Q 158 435 150 384 Q 141 333 158 376 Z M 402 349 Q 443 356 462 374 Q 481 392 474 419 Q 467 445 445 425 Q 423 404 394 373 Q 364 342 402 349 Z M 57 404 Q 74 383 78 356 Q 81 330 93 362 Q 105 395 79 444 Q 53 493 38 470 Q 24 447 33 435 Q 43 423 57 404 Z M 246 337 Q 289 345 295 360 Q 301 376 293 391 Q 285 407 266 391 Q 246 376 225 353 Q 203 330 246 337 Z" fill="black" />
  </g>
  <g class="defect" id="01">
    <path d="M 263 68 Q 263 77 257 84" fill="none" stroke="red" stroke-width="3" />
  </g>
  <g class="defect" id="02">
    <path d="M 120 197 Q 150 187 127 220" fill="none" stroke="red" stroke-width="3" />
  </g>
</svg>