<svg xmlns="http://www.w3.org/2000/svg" width="512" height="512" viewBox="0 0 512 512">
  <g class="glyph">
    <path d="M 231 448 Q 219 486 210 443 Q 200 400 194 361 Q 188 321 177 299 Q 167 276 180 280 Q 193 283 202 286 Q 212 288 236 281 Q 260 274 326 260 Q 393 245 405 241 Q 417 236 437 245 Q 457 255 475 264 Q 493 274 480 291 Q 467 307 466 361 Q 464 414 461 435 Q 440 435 444 476 Q 431 498 426 477 Q 409 472 414 431 Q 297 444 231 448 Z M 267 221 Q 267 236 261 238 Q 255 241 249 220 Q 243 200 233 176 Q 224 152 213 141 Q 202 129 214 129 Q 229 129 241 130 Q 252 131 304 119 Q 355 107 367 99 Q 379 90 394 98 Q 410 105 426 117 Q 443 129 430 135 Q 417 141 386 181 Q 412 200 376 205 Q 341 210 267 221 Z M 124 131 Q 121 279 118 352 Q 114 426 113 454 Q 112 481 105 497 Q 98 512 90 500 Q 83 488 79 469 Q 74 450 81 423 Q 88 395 93 333 Q 98 271 98 221 V 107 Q 98 45 85 23 Q 71 0 92 7 Q 112 14 126 25 Q 141 36 135 50 Q 129 64 124 119 Q 160 126 174 137 Q 188 148 187 163 Q 186 179 174 176 Q 162 174 124 131 Z M 324 329 Q 371 319 379 325 Q 386 331 377 339 Q 369 348 321 360 Q 321 386 319 412 Q 357 402 377 399 Q 398 395 412 404 Q 426 412 429 394 Q 431 376 432 339 Q 433 302 427 283 Q 422 264 402 264 Q 386 264 317 276 Q 331 288 329 300 Q 326 312 324 329 Z M 231 426 Q 271 419 295 414 Q 298 393 298 364 Q 260 369 246 361 Q 233 352 248 348 L 295 333 Q 295 310 293 286 Q 255 293 214 300 Q 224 383 231 426 Z M 267 202 Q 310 195 364 179 Q 369 148 371 136 Q 374 124 355 125 Q 336 126 257 145 Q 260 171 267 202 Z M 302 31 374 17 Q 398 12 405 19 Q 414 24 401 35 Q 388 45 341 55 Q 293 64 271 62 Q 250 60 241 54 Q 231 48 243 44 Q 255 40 302 31 Z M 48 200 Q 48 229 40 251 Q 33 274 24 288 Q 14 302 7 282 Q 0 262 12 223 Q 24 183 24 167 Q 24 150 36 162 Q 48 171 48 200 Z" fill="black" />
  </g>
  <g class="defect" id="01">
    <path d="M 414 431 Q 297 444 231 448" fill="none" stroke="red" stroke-width="3" />
  </g>
  <g class="defect" id="02">
    <path d="M 426 477 Q 409 472 414 431" fill="none" stroke="red" stroke-width="3" />
  </g>
  <g class="defect" id="03">
    <path d="M 461 435 Q 440 435 444 476" fill="none" stroke="red" stroke-width="3" />
  </g>
</svg>