<svg xmlns="http://www.w3.org/2000/svg" width="512" height="512" viewBox="0 0 512 512">
  <g class="glyph">
    <path d="M 304 221 Q 246 230 222 222 Q 199 215 222 211 Q 246 208 304 195 Q 304 121 302 85 Q 300 49 286 25 Q 273 0 314 15 Q 355 29 348 44 Q 340 58 336 91 Q 333 123 333 188 Q 400 172 415 181 Q 429 190 418 197 Q 407 203 333 217 V 271 Q 409 259 443 255 Q 476 250 494 262 Q 512 273 512 282 Q 512 291 490 288 Q 467 286 423 286 Q 392 268 333 295 V 425 Q 333 461 328 482 Q 322 503 316 505 Q 311 508 307 453 Q 304 398 304 300 Q 224 313 205 320 Q 186 326 162 313 Q 139 300 163 298 Q 188 297 304 277 Z M 118 132 V 288 Q 118 391 116 425 Q 114 458 106 474 Q 98 490 86 466 Q 74 443 80 425 Q 71 418 91 361 Q 94 315 94 217 Q 94 116 92 85 Q 89 54 79 35 Q 69 16 88 21 Q 107 27 121 36 Q 134 45 129 58 Q 123 72 118 123 Q 186 132 188 157 Q 190 181 176 180 Q 161 179 118 132 Z M 407 51 Q 425 58 443 70 Q 461 83 447 91 Q 434 98 392 124 Q 351 150 350 146 Q 349 143 360 133 Q 371 123 383 102 Q 396 80 392 63 Q 389 45 407 51 Z M 45 186 Q 56 219 50 247 Q 45 275 35 290 Q 25 304 12 287 Q 0 271 15 244 Q 29 217 31 184 Q 34 152 45 186 Z M 221 107 Q 239 116 252 124 Q 264 132 266 145 Q 268 159 258 168 Q 248 177 236 160 Q 224 143 214 121 Q 191 98 221 107 Z" fill="black" />
  </g>
  <g class="defect" id="01">
    <path d="M 423 286 Q 392 268 333 295" fill="none" stroke="red" stroke-width="3" />
  </g>
  <g class="defect" id="02">
    <path d="M 80 425 Q 71 418 91 361" fill="none" stroke="red" stroke-width="3" />
  </g>
  <g class="defect" id="03">
    <path d="M 214 121 Q 191 98 221 107" fill="none" stroke="red" stroke-width="3" />
  </g>
</svg>