<svg xmlns="http://www.w3.org/2000/svg" width="512" height="512" viewBox="0 0 512 512">
  <g class="glyph">
    <path d="M 257 456 Q 252 503 240 484 Q 227 465 227 444 Q 227 421 230 395 Q 234 369 230 335 Q 227 302 217 286 Q 208 271 221 272 Q 234 274 251 277 Q 269 281 319 272 Q 369 264 379 257 Q 388 250 404 256 Q 421 262 437 274 Q 454 285 448 295 Q 442 304 435 312 Q 428 320 430 352 Q 433 383 431 425 Q 412 487 418 490 Q 407 512 400 497 Q 393 482 383 444 Q 323 447 257 456 Z M 248 117 Q 248 171 271 179 Q 295 187 337 185 Q 379 182 404 174 Q 430 166 440 152 Q 449 138 452 105 Q 456 72 461 108 Q 465 143 479 159 Q 493 175 470 189 Q 447 203 415 209 Q 383 215 346 220 Q 309 224 274 215 Q 238 206 233 186 Q 227 166 227 119 Q 227 72 223 50 Q 220 28 213 14 Q 206 0 222 4 Q 238 7 251 15 Q 264 23 257 37 Q 250 51 248 105 Q 302 84 333 65 Q 365 47 367 32 Q 369 16 381 23 Q 393 30 408 49 Q 423 68 404 70 Q 386 72 346 87 Q 306 101 248 117 Z M 257 355 Q 288 346 317 343 Q 346 339 353 347 Q 360 355 332 362 Q 304 369 257 372 V 437 Q 369 418 390 430 Q 395 362 394 333 Q 393 304 387 293 Q 381 283 365 283 Q 351 283 323 289 Q 295 295 257 299 Z M 129 131 Q 126 278 126 348 Q 126 418 120 452 Q 115 486 109 485 Q 103 484 94 462 Q 84 440 92 394 Q 101 348 103 288 Q 105 227 105 164 Q 105 98 103 68 Q 101 37 89 25 Q 77 12 91 11 Q 105 9 125 19 Q 145 28 138 39 Q 131 49 129 122 Q 180 126 189 145 Q 212 149 191 173 Q 182 182 168 168 Q 154 154 129 131 Z M 37 182 Q 49 201 48 227 Q 47 252 36 275 Q 26 297 18 291 Q 9 285 5 274 Q 0 262 12 238 Q 23 215 26 188 Q 28 161 37 182 Z" fill="black" />
  </g>
  <g class="defect" id="01">
    <path d="M 431 425 Q 412 487 418 490" fill="none" stroke="red" stroke-width="3" />
  </g>
  <g class="defect" id="02">
    <path d="M 189 145 Q 212 149 191 173" fill="none" stroke="red" stroke-width="3" />
  </g>
</svg>