<svg xmlns="http://www.w3.org/2000/svg" width="512" height="512" viewBox="0 0 512 512">
  <g class="glyph">
    <path d="M 239 329 Q 232 404 256 425 Q 280 447 333 449 Q 386 451 423 442 Q 460 433 473 416 Q 485 399 492 373 Q 498 347 497 387 Q 496 426 504 442 Q 512 458 476 468 Q 440 478 381 482 Q 323 485 282 471 Q 251 458 230 439 Q 219 420 218 387 Q 217 354 218 304 Q 219 255 212 241 Q 205 228 215 230 Q 208 221 233 236 Q 241 239 259 233 Q 277 228 286 220 Q 295 212 308 217 Q 320 221 330 228 Q 341 235 330 242 Q 320 250 309 295 Q 323 314 300 317 Q 277 320 239 329 Z M 361 291 Q 372 291 381 258 Q 390 226 391 187 Q 392 149 372 153 Q 352 158 328 161 Q 304 165 264 160 Q 239 185 224 191 Q 210 196 230 173 Q 250 149 274 94 Q 298 38 291 25 Q 284 11 288 6 Q 291 0 323 12 Q 354 25 341 41 Q 327 56 316 77 Q 304 97 275 147 Q 300 147 332 141 Q 363 135 377 126 Q 390 117 404 122 Q 417 126 435 138 Q 453 149 445 156 Q 438 162 432 178 Q 426 194 422 229 Q 417 264 408 290 Q 399 316 380 334 Q 361 352 354 332 Q 347 311 333 293 Q 318 275 335 283 Q 352 291 361 291 Z M 120 142 V 300 Q 120 401 117 436 Q 115 471 107 487 Q 99 503 87 479 Q 74 456 81 438 Q 88 420 91 373 Q 95 327 95 228 Q 95 126 92 95 Q 90 63 80 44 Q 70 25 90 30 Q 111 36 123 45 Q 135 54 130 68 Q 124 81 120 133 Q 187 142 189 167 Q 192 192 178 191 Q 165 189 120 142 Z M 20 221 Q 29 198 35 179 Q 41 160 50 197 Q 59 235 41 275 Q 23 316 11 298 Q 0 280 7 261 Q 14 241 20 221 Z M 293 257 Q 293 244 282 245 Q 271 246 241 253 Q 239 273 239 314 Q 259 309 289 298 Q 275 268 293 257 Z" fill="black" />
  </g>
  <g class="defect" id="01">
    <path d="M 289 298 Q 275 268 293 257" fill="none" stroke="red" stroke-width="3" />
  </g>
  <g class="defect" id="02">
    <path d="M 282 471 Q 251 458 230 439" fill="none" stroke="red" stroke-width="3" />
  </g>
  <g class="defect" id="03">
    <path d="M 215 230 Q 208 221 233 236" fill="none" stroke="red" stroke-width="3" />
  </g>
</svg>