<svg xmlns="http://www.w3.org/2000/svg" width="512" height="512" viewBox="0 0 512 512">
  <g class="glyph">
    <path d="M 329 356 Q 299 388 269 398 Q 239 407 214 409 Q 190 410 211 403 Q 233 397 260 380 Q 288 363 311 335 Q 269 271 252 250 Q 243 273 229 294 Q 215 316 196 340 Q 177 365 159 377 Q 141 388 155 370 Q 169 352 176 342 Q 183 333 202 297 Q 220 260 235 220 Q 250 179 254 132 Q 237 137 228 135 Q 220 134 204 125 Q 188 115 207 115 Q 226 115 243 113 Q 260 111 284 103 Q 307 96 326 87 Q 346 79 352 75 Q 358 70 369 76 Q 380 81 391 90 Q 403 98 406 105 Q 410 111 395 118 Q 380 126 369 146 Q 358 166 351 183 Q 343 201 343 207 Q 343 213 352 213 Q 361 213 369 222 Q 397 230 382 238 Q 386 245 377 253 Q 367 260 365 277 Q 363 294 348 333 Q 382 363 414 378 Q 446 393 479 398 Q 512 403 489 409 Q 465 414 433 418 Q 401 422 389 415 Q 378 407 363 390 Q 348 373 329 356 Z M 145 179 V 237 Q 171 222 183 215 Q 196 209 185 222 Q 173 235 145 258 Q 143 373 142 399 Q 141 425 129 443 Q 117 461 109 443 Q 100 425 90 411 Q 79 397 68 387 Q 58 378 74 383 Q 90 388 96 388 Q 105 388 111 381 Q 117 373 118 355 Q 119 337 122 277 Q 55 335 47 345 Q 38 354 26 347 Q 13 339 6 329 Q 0 318 16 316 Q 43 314 53 300 Q 75 286 90 276 Q 105 267 122 254 Q 122 224 124 188 Q 81 198 58 192 Q 34 186 50 181 Q 66 177 80 172 Q 94 166 122 158 Q 122 107 119 74 Q 117 41 108 20 Q 98 0 117 5 Q 137 11 148 18 Q 160 26 156 38 Q 151 51 148 79 Q 145 107 145 147 Q 179 137 189 145 Q 198 154 180 163 Q 162 173 145 179 Z M 258 230 Q 267 241 287 266 Q 307 290 324 307 Q 331 294 338 266 Q 346 237 336 234 Q 326 230 318 226 Q 309 222 318 203 Q 326 183 335 159 Q 343 134 345 124 Q 346 113 335 112 Q 324 111 286 122 Q 290 134 284 147 Q 277 160 275 173 Q 273 186 258 230 Z" fill="black" />
  </g>
  <g class="defect" id="01">
    <path d="M 369 222 Q 397 230 382 238" fill="none" stroke="red" stroke-width="3" />
  </g>
  <g class="defect" id="02">
    <path d="M 16 316 Q 43 314 53 300" fill="none" stroke="red" stroke-width="3" />
  </g>
</svg>