<svg xmlns="http://www.w3.org/2000/svg" width="512" height="512" viewBox="0 0 512 512">
  <g class="glyph">
    <path d="M 316 198 V 235 Q 383 220 392 212 Q 401 205 413 212 Q 440 202 435 228 Q 444 235 436 245 Q 427 255 422 281 Q 416 307 400 325 Q 383 342 378 327 Q 373 312 357 297 Q 342 283 361 290 Q 379 296 387 293 Q 394 290 399 263 Q 403 235 388 239 Q 373 242 316 251 V 307 Q 373 362 412 382 Q 451 403 481 413 Q 512 423 478 426 Q 444 429 423 426 Q 401 423 381 398 Q 362 373 316 325 Q 318 397 319 431 Q 320 466 313 488 Q 305 510 295 486 Q 285 462 291 441 Q 296 420 296 331 Q 270 368 233 399 Q 196 429 156 444 Q 115 460 151 438 Q 187 416 230 374 Q 272 331 296 292 V 255 L 229 270 Q 229 290 234 309 Q 240 329 230 337 Q 220 344 214 315 Q 207 285 197 270 Q 169 271 195 254 Q 203 253 211 255 Q 220 257 239 254 Q 257 251 296 242 V 200 Q 281 205 259 209 Q 237 214 221 206 Q 205 198 229 196 Q 253 194 296 183 Q 296 161 287 150 Q 277 139 290 141 Q 303 142 314 146 Q 325 150 321 157 Q 318 163 318 176 Q 351 166 365 160 Q 379 155 393 166 Q 407 176 379 184 Q 351 192 316 198 Z M 115 172 Q 107 375 106 410 Q 105 444 99 467 Q 94 490 80 464 Q 65 438 73 422 Q 81 405 84 368 Q 87 331 89 240 Q 92 148 88 109 Q 72 83 76 49 Q 68 28 87 33 Q 107 37 121 49 Q 135 61 127 71 Q 120 81 115 157 Q 144 161 161 174 Q 179 187 174 202 Q 170 216 155 206 Q 139 196 115 172 Z M 359 65 Q 342 102 315 123 Q 288 144 301 125 Q 314 107 328 73 Q 342 39 338 20 Q 333 0 361 12 Q 388 24 379 32 Q 370 39 364 54 Q 412 48 432 40 Q 453 33 467 45 Q 481 57 434 65 Q 386 74 359 65 Z M 220 78 Q 198 124 170 150 Q 142 176 160 149 Q 179 122 192 82 Q 205 41 198 22 Q 192 2 220 13 Q 248 24 242 33 Q 235 41 224 72 Q 259 68 279 61 Q 298 54 307 65 Q 316 76 277 84 Q 237 92 220 78 Z M 39 183 Q 50 203 47 232 Q 44 261 33 279 Q 22 296 11 277 Q 0 257 11 243 Q 22 229 26 195 Q 31 161 39 183 Z M 233 150 Q 216 131 211 119 Q 207 107 224 112 Q 242 118 254 125 Q 266 133 259 150 Q 253 168 233 150 Z M 381 98 Q 399 98 415 105 Q 431 111 427 126 Q 423 142 405 133 Q 388 124 377 111 Q 366 98 381 98 Z" fill="black" />
  </g>
  <g class="defect" id="01">
    <path d="M 413 212 Q 440 202 435 228" fill="none" stroke="red" stroke-width="3" />
  </g>
  <g class="defect" id="02">
    <path d="M 197 270 Q 169 271 195 254" fill="none" stroke="red" stroke-width="3" />
  </g>
  <g class="defect" id="03">
    <path d="M 88 109 Q 72 83 76 49" fill="none" stroke="red" stroke-width="3" />
  </g>
</svg>