<svg xmlns="http://www.w3.org/2000/svg" width="512" height="512" viewBox="0 0 512 512">
  <g class="glyph">
    <path d="M 164 178 V 234 Q 176 223 194 209 Q 212 195 203 210 Q 193 225 164 255 Q 164 289 165 318 Q 166 346 166 374 Q 166 402 156 420 Q 147 438 133 449 Q 119 461 116 443 Q 113 425 95 408 Q 76 391 89 395 Q 102 399 114 402 Q 125 404 131 395 Q 136 387 137 362 Q 138 338 138 325 V 276 Q 100 310 82 327 Q 64 344 54 354 Q 45 363 35 360 Q 25 357 15 349 Q 4 342 2 338 Q 0 334 16 329 Q 32 325 51 313 Q 70 302 91 287 Q 102 260 138 249 V 183 Q 93 193 69 187 Q 45 181 69 175 Q 93 170 138 157 Q 138 119 135 78 Q 132 36 124 18 Q 117 0 133 4 Q 149 8 164 18 Q 178 28 172 41 Q 166 55 164 151 Q 181 147 189 143 Q 198 140 209 148 Q 221 155 207 161 Q 193 168 164 178 Z M 300 302 Q 289 344 278 358 Q 268 372 252 387 Q 236 402 218 410 Q 200 419 183 422 Q 166 425 193 410 Q 221 395 236 375 Q 251 355 258 338 Q 266 321 271 295 Q 276 270 274 251 Q 272 232 263 220 Q 255 208 274 214 Q 293 219 301 224 Q 308 229 306 238 Q 304 246 302 285 Q 322 311 363 348 Q 385 368 402 378 Q 419 389 441 398 Q 463 408 488 413 Q 512 419 499 422 Q 487 425 456 427 Q 425 429 408 428 Q 391 427 379 417 Q 368 408 352 386 Q 336 363 327 349 Q 319 336 300 302 Z M 291 53 Q 291 36 289 29 Q 287 21 290 17 Q 293 13 308 20 Q 323 28 334 35 Q 344 42 336 52 Q 327 62 322 74 Q 317 87 302 116 Q 287 144 283 150 Q 278 155 277 159 Q 276 164 302 159 Q 327 155 341 151 Q 355 147 375 135 Q 395 123 405 130 Q 414 136 423 144 L 438 161 Q 446 168 446 174 Q 446 181 429 183 Q 412 185 394 194 Q 376 204 364 216 Q 353 227 359 209 Q 365 191 371 180 Q 376 168 378 164 Q 380 159 370 161 Q 359 164 339 169 Q 319 174 302 174 Q 287 174 272 170 Q 249 198 238 203 Q 227 208 236 195 Q 244 183 256 159 Q 268 136 279 103 Q 291 70 291 53 Z" fill="black" />
  </g>
  <g class="defect" id="01">
    <path d="M 91 287 Q 102 260 138 249" fill="none" stroke="red" stroke-width="3" />
  </g>
  <g class="defect" id="02">
    <path d="M 302 285 Q 322 311 363 348" fill="none" stroke="red" stroke-width="3" />
  </g>
</svg>