<svg xmlns="http://www.w3.org/2000/svg" width="512" height="512" viewBox="0 0 512 512">
  <g class="glyph">
    <path d="M 266 237 Q 326 246 338 210 Q 360 194 374 200 Q 387 206 400 212 Q 412 219 404 228 Q 395 237 387 270 Q 379 302 368 331 Q 395 354 427 369 Q 458 385 485 392 Q 512 400 489 406 Q 466 412 439 414 Q 412 416 403 404 Q 393 391 354 352 Q 327 375 307 382 Q 287 389 275 389 Q 262 389 286 377 Q 310 364 335 333 Q 316 308 305 292 Q 293 277 281 270 Q 268 262 284 260 Q 300 258 310 273 Q 321 287 348 314 Q 356 289 359 266 Q 362 244 361 235 Q 360 227 352 227 Q 345 227 330 234 Q 314 241 302 248 Q 289 254 266 244 Q 266 366 260 409 Q 254 452 246 443 Q 237 435 231 415 Q 225 395 232 374 Q 239 352 241 319 Q 244 287 244 198 Q 244 108 240 92 Q 237 75 230 65 Q 223 54 235 54 Q 248 54 256 57 Q 264 60 275 59 Q 285 58 310 52 Q 335 46 348 34 Q 360 23 376 28 Q 407 13 406 42 Q 420 50 409 59 Q 398 69 391 87 L 377 131 Q 368 156 355 170 Q 341 183 335 168 Q 329 152 308 134 Q 287 117 317 126 Q 348 135 355 109 Q 362 83 360 70 Q 358 56 338 59 Q 318 62 264 77 Q 266 158 266 237 Z M 152 154 V 221 Q 177 208 194 202 Q 210 196 195 211 Q 179 227 152 244 Q 154 341 154 366 Q 154 389 148 409 Q 142 429 130 439 Q 119 450 110 427 Q 102 404 84 388 Q 67 373 88 379 Q 110 385 119 380 Q 127 375 128 340 Q 129 306 129 260 Q 58 304 50 314 Q 42 325 31 317 Q 21 310 10 298 Q 0 285 14 284 Q 27 283 37 279 Q 48 275 72 264 Q 96 254 129 233 V 160 Q 102 164 87 164 Q 73 164 60 158 Q 31 163 66 148 Q 83 144 129 129 Q 129 98 128 66 Q 127 33 117 18 Q 106 2 117 1 Q 127 0 150 7 Q 173 15 162 31 Q 152 48 152 123 Q 210 108 209 124 Q 208 139 152 154 Z" fill="black" />
  </g>
  <g class="defect" id="01">
    <path d="M 266 237 Q 326 246 338 210" fill="none" stroke="red" stroke-width="3" />
  </g>
  <g class="defect" id="02">
    <path d="M 60 158 Q 31 163 66 148" fill="none" stroke="red" stroke-width="3" />
  </g>
  <g class="defect" id="03">
    <path d="M 376 28 Q 407 13 406 42" fill="none" stroke="red" stroke-width="3" />
  </g>
</svg>