<svg xmlns="http://www.w3.org/2000/svg" width="512" height="512" viewBox="0 0 512 512">
  <g class="glyph">
    <path d="M 426 298 H 459 Q 477 298 465 264 Q 452 230 419 201 Q 428 172 436 140 Q 444 108 430 109 Q 417 110 391 117 V 386 Q 391 417 386 465 Q 382 512 372 503 Q 362 494 364 410 Q 366 327 366 232 Q 366 135 356 113 Q 346 90 359 93 Q 371 95 377 97 Q 384 99 406 95 Q 428 90 440 81 Q 452 71 470 77 Q 488 84 498 92 Q 508 99 489 113 Q 470 126 430 199 Q 490 232 498 266 Q 505 300 495 330 Q 499 360 469 340 Q 452 320 430 309 Q 408 298 426 298 Z M 137 163 V 216 Q 170 194 174 199 Q 179 203 137 241 Q 135 320 136 366 Q 137 413 122 439 Q 108 466 100 442 Q 93 419 71 401 Q 49 382 71 388 Q 93 395 99 391 Q 106 386 107 353 Q 108 320 110 260 Q 49 311 42 321 Q 35 331 18 312 Q 0 294 9 294 Q 20 294 45 279 Q 57 265 110 232 V 168 Q 90 177 77 177 Q 64 177 49 169 Q 33 161 58 157 Q 84 152 110 143 V 62 Q 110 31 103 15 Q 95 0 109 3 Q 124 7 140 17 Q 157 26 149 43 Q 141 60 137 137 Q 146 135 157 131 Q 168 128 180 139 Q 192 150 137 163 Z M 269 263 Q 267 280 263 296 Q 307 311 321 328 Q 335 344 328 366 Q 320 388 301 362 Q 282 335 260 309 Q 252 342 225 373 Q 199 404 169 418 Q 139 433 166 408 Q 192 384 212 350 Q 232 316 241 271 Q 197 278 199 284 Q 181 289 163 278 Q 146 267 168 265 Q 190 263 245 247 Q 247 225 247 212 Q 247 199 245 190 Q 216 196 199 188 Q 181 179 202 175 Q 223 172 256 160 Q 289 148 301 143 Q 313 139 326 149 Q 338 159 321 166 Q 305 172 271 181 Q 278 196 276 203 Q 274 210 271 238 Q 305 230 319 224 Q 333 218 349 228 Q 364 238 338 245 Q 311 252 269 263 Z M 316 38 Q 342 46 343 52 Q 344 57 337 65 Q 329 73 308 102 Q 287 130 274 140 Q 260 150 270 131 Q 280 113 290 85 Q 300 57 295 42 Q 289 26 316 38 Z M 201 97 Q 194 75 212 83 Q 230 90 237 104 Q 245 117 237 131 Q 230 146 218 131 Q 207 117 201 97 Z" fill="black" />
  </g>
  <g class="defect" id="01">
    <path d="M 45 279 Q 57 265 110 232" fill="none" stroke="red" stroke-width="3" />
  </g>
  <g class="defect" id="02">
    <path d="M 241 271 Q 197 278 199 284" fill="none" stroke="red" stroke-width="3" />
  </g>
  <g class="defect" id="03">
    <path d="M 495 330 Q 499 360 469 340" fill="none" stroke="red" stroke-width="3" />
  </g>
</svg>