<svg xmlns="http://www.w3.org/2000/svg" width="512" height="512" viewBox="0 0 512 512">
  <g class="glyph">
    <path d="M 344 99 Q 393 51 394 39 Q 395 28 400 27 Q 405 26 419 39 Q 433 53 428 56 Q 423 59 404 70 Q 385 81 352 105 Q 378 127 401 145 Q 423 162 449 173 Q 476 184 494 189 Q 512 194 493 197 Q 474 200 443 203 Q 413 206 395 184 Q 376 162 356 138 Q 336 113 315 91 Q 293 69 285 63 Q 265 125 247 159 Q 229 192 203 217 Q 178 241 167 244 Q 156 247 169 233 Q 182 219 201 192 Q 221 166 237 130 Q 221 125 205 106 Q 190 87 198 86 Q 206 85 219 88 Q 231 91 245 109 Q 249 97 254 76 Q 259 55 255 54 Q 251 53 240 56 Q 213 76 215 51 Q 200 42 221 41 Q 241 40 253 30 Q 265 20 274 23 Q 283 26 293 33 Q 304 40 297 47 L 291 53 Q 304 63 314 71 Q 344 28 340 14 Q 336 0 342 0 Q 348 0 362 8 Q 376 16 374 22 Q 372 28 360 40 Q 348 53 322 81 Q 332 91 344 99 Z M 140 146 V 204 Q 196 152 190 164 Q 184 176 169 192 Q 154 208 140 225 Q 142 352 137 378 Q 132 405 121 416 Q 111 427 102 415 Q 93 403 84 393 Q 75 382 63 371 Q 51 360 69 367 Q 87 374 98 371 Q 109 368 112 355 Q 115 342 118 312 Q 121 281 121 245 Q 101 263 82 283 Q 63 304 55 315 Q 47 326 33 320 Q 20 314 10 306 Q 0 297 18 291 Q 36 285 58 271 Q 79 257 121 221 V 152 Q 77 162 59 156 Q 40 150 49 147 Q 57 144 121 127 Q 119 71 116 51 Q 113 30 106 15 Q 99 0 111 2 Q 123 4 140 12 Q 156 20 150 31 Q 144 42 142 66 Q 140 89 140 121 Q 166 115 179 119 Q 192 123 181 131 Q 170 138 140 146 Z M 265 302 Q 263 322 251 293 Q 239 265 231 249 Q 223 233 218 227 Q 212 221 237 226 Q 261 231 291 222 Q 322 212 335 204 Q 348 196 364 205 Q 380 215 388 220 Q 395 225 386 230 Q 376 235 356 267 Q 368 283 350 285 Q 332 287 265 302 Z M 443 387 Q 435 387 400 385 Q 364 382 294 393 Q 225 403 209 408 Q 194 413 181 404 Q 151 412 167 391 Q 166 387 180 387 Q 196 387 312 372 Q 332 320 327 305 Q 322 289 347 301 Q 372 312 366 317 Q 360 322 344 342 L 320 372 Q 370 364 396 362 Q 421 360 435 366 Q 449 372 451 379 Q 453 387 443 387 Z M 263 285 Q 291 281 338 269 Q 340 257 343 243 Q 346 229 344 225 Q 342 221 321 227 Q 300 233 257 243 Q 257 249 263 285 Z M 348 158 Q 358 162 333 172 Q 308 182 287 185 Q 267 188 254 183 Q 241 178 249 176 Q 257 174 274 169 Q 291 164 316 158 Q 340 152 348 158 Z M 251 322 Q 267 332 270 344 Q 273 356 268 362 Q 263 368 256 361 Q 249 354 242 332 Q 235 310 251 322 Z" fill="black" />
  </g>
  <g class="defect" id="01">
    <path d="M 181 404 Q 151 412 167 391" fill="none" stroke="red" stroke-width="3" />
  </g>
  <g class="defect" id="02">
    <path d="M 240 56 Q 213 76 215 51" fill="none" stroke="red" stroke-width="3" />
  </g>
</svg>