<svg xmlns="http://www.w3.org/2000/svg" width="512" height="512" viewBox="0 0 512 512">
  <g class="glyph">
    <path d="M 238 131 Q 238 145 232 153 Q 225 160 217 146 Q 209 133 198 112 Q 169 118 140 129 Q 112 139 86 152 Q 122 169 115 175 Q 107 181 95 206 Q 114 204 138 198 Q 162 192 182 188 Q 202 183 214 192 Q 241 200 205 206 Q 185 213 141 219 Q 162 228 159 236 Q 156 244 154 272 Q 190 265 212 262 Q 234 259 243 267 Q 253 274 240 277 Q 228 280 208 282 Q 204 268 152 291 Q 150 308 145 322 Q 171 331 186 340 Q 182 350 210 365 Q 217 379 215 390 Q 213 400 204 397 Q 196 394 178 371 Q 160 348 143 331 Q 129 367 111 383 Q 93 400 80 410 Q 67 419 45 427 Q 23 434 44 418 Q 65 402 83 382 Q 101 362 113 338 Q 124 314 126 295 Q 72 310 52 317 Q 32 324 24 319 Q 17 314 8 300 Q 0 287 18 290 Q 36 293 64 289 Q 93 284 129 276 Q 131 234 124 221 Q 105 221 88 219 Q 70 247 52 260 Q 34 274 47 253 Q 61 232 68 214 Q 76 196 79 182 Q 82 169 76 158 Q 67 141 67 133 Q 67 122 80 114 Q 93 105 107 85 Q 122 65 131 48 Q 139 32 138 16 Q 137 0 151 8 Q 164 17 172 26 Q 179 36 171 42 Q 162 48 153 59 Q 143 70 130 86 Q 116 103 106 112 Q 97 120 117 116 Q 137 112 194 101 Q 188 93 182 82 Q 177 72 186 75 Q 196 78 208 87 Q 219 97 229 106 Q 238 116 238 131 Z M 301 301 Q 291 350 279 368 Q 268 386 251 398 Q 234 411 214 417 Q 194 424 212 411 Q 230 398 244 377 Q 259 356 267 336 Q 274 316 277 278 Q 280 240 271 229 Q 261 217 274 218 Q 287 219 299 225 Q 312 232 309 241 Q 306 251 303 280 Q 369 352 403 371 Q 438 390 475 399 Q 512 409 498 411 Q 485 413 448 417 Q 411 421 394 416 Q 377 411 362 391 Q 348 371 332 347 Q 316 322 301 301 Z M 282 179 Q 270 198 261 208 Q 253 217 240 229 Q 228 240 242 213 Q 257 185 263 169 Q 270 152 276 133 Q 282 114 288 84 Q 293 55 288 41 Q 282 27 287 22 Q 291 17 302 24 Q 314 32 327 41 Q 339 51 332 57 Q 324 63 310 107 Q 295 152 287 166 Q 306 166 332 160 Q 358 154 369 143 Q 379 133 399 149 Q 419 164 424 173 Q 428 181 412 183 Q 396 185 365 212 Q 333 238 344 219 Q 356 200 362 183 Q 369 166 360 169 Q 352 171 332 175 Q 312 179 282 179 Z" fill="black" />
  </g>
  <g class="defect" id="01">
    <path d="M 186 340 Q 182 350 210 365" fill="none" stroke="red" stroke-width="3" />
  </g>
  <g class="defect" id="02">
    <path d="M 208 282 Q 204 268 152 291" fill="none" stroke="red" stroke-width="3" />
  </g>
  <g class="defect" id="03">
    <path d="M 214 192 Q 241 200 205 206" fill="none" stroke="red" stroke-width="3" />
  </g>
</svg>