<svg xmlns="http://www.w3.org/2000/svg" width="512" height="512" viewBox="0 0 512 512">
  <g class="glyph">
    <path d="M 152 310 Q 165 308 188 304 Q 211 299 221 293 Q 245 306 245 292 Q 258 297 270 305 Q 281 313 271 322 Q 261 331 263 384 Q 265 437 259 459 Q 254 480 241 496 Q 229 512 220 493 Q 211 473 191 458 Q 172 442 196 449 Q 220 455 227 444 Q 233 433 236 399 Q 238 365 234 342 Q 231 319 222 317 Q 213 315 150 324 Q 145 340 143 351 Q 161 353 184 364 Q 206 374 210 390 Q 213 406 202 407 Q 190 408 171 389 Q 152 369 140 360 Q 131 385 118 400 Q 104 415 93 420 Q 82 426 95 406 Q 109 385 114 365 Q 120 344 122 328 Q 84 333 68 335 Q 68 424 67 438 Q 66 453 59 468 Q 52 483 44 463 Q 36 444 41 427 Q 45 410 45 372 Q 45 331 37 323 Q 29 315 39 315 Q 48 315 59 319 Q 70 324 125 315 Q 125 292 122 256 Q 77 263 56 267 Q 34 272 17 261 Q 0 249 16 249 Q 32 249 76 244 Q 120 238 155 230 Q 190 222 222 216 Q 238 211 266 216 Q 279 222 282 229 Q 285 236 259 238 Q 233 240 205 244 Q 177 247 145 251 Q 161 265 157 275 Q 154 285 152 310 Z M 72 170 Q 97 170 143 162 Q 188 154 241 142 Q 295 129 306 122 Q 317 116 333 121 Q 349 127 359 136 Q 369 145 355 156 Q 340 168 331 184 Q 322 199 321 239 Q 319 279 331 319 Q 342 360 364 391 Q 385 421 409 436 Q 433 451 446 451 Q 460 451 466 429 Q 471 408 476 389 Q 480 369 483 375 Q 485 381 484 403 Q 483 426 486 445 Q 489 464 495 479 Q 501 494 494 500 Q 487 505 462 500 Q 437 494 409 479 Q 381 464 352 428 Q 324 392 313 351 Q 301 310 299 265 Q 297 220 304 150 Q 265 152 216 164 Q 168 177 135 186 Q 102 195 88 191 Q 75 188 61 179 Q 48 170 72 170 Z M 179 50 Q 154 79 140 88 Q 127 97 110 106 Q 93 116 116 91 Q 138 66 151 44 Q 163 23 159 15 Q 154 7 157 3 Q 161 0 176 5 Q 190 9 198 15 Q 206 20 200 26 Q 195 32 186 39 Q 227 32 259 23 Q 292 14 314 12 Q 335 11 334 20 Q 333 29 316 35 Q 299 41 255 50 Q 211 59 179 50 Z M 204 113 Q 186 113 176 108 Q 165 102 180 99 Q 195 95 213 91 Q 231 86 251 82 Q 272 77 279 77 Q 288 77 292 84 Q 297 91 284 96 Q 272 102 247 108 Q 222 113 204 113 Z" fill="black" />
  </g>
  <g class="defect" id="01">
    <path d="M 221 293 Q 245 306 245 292" fill="none" stroke="red" stroke-width="3" />
  </g>
  <g class="defect" id="02">
    <path d="M 222 216 Q 238 211 266 216" fill="none" stroke="red" stroke-width="3" />
  </g>
</svg>