<svg xmlns="http://www.w3.org/2000/svg" width="512" height="512" viewBox="0 0 512 512">
  <g class="glyph">
    <path d="M 327 110 Q 312 155 306 172 Q 344 166 359 159 Q 374 153 399 167 Q 425 181 419 189 Q 412 198 408 248 Q 404 297 399 385 Q 444 380 460 379 Q 476 378 490 386 Q 504 393 508 405 Q 512 416 484 413 Q 457 410 430 409 Q 404 408 355 411 Q 306 414 261 423 L 198 431 Q 178 436 160 421 Q 124 406 163 407 Q 183 408 249 399 Q 249 351 248 281 Q 246 212 236 193 Q 225 174 245 177 Q 266 181 283 176 Q 293 149 302 115 Q 263 123 245 114 Q 227 104 250 101 Q 272 98 306 91 Q 310 68 312 44 Q 314 19 310 10 Q 306 0 312 0 Q 321 0 341 11 Q 361 21 355 32 Q 348 42 334 83 Q 372 74 391 69 Q 410 64 426 76 Q 442 89 410 96 Q 378 102 327 110 Z M 121 185 Q 153 183 159 177 Q 166 172 185 183 Q 204 193 197 205 Q 189 217 184 232 Q 178 246 158 297 Q 138 348 106 386 Q 74 423 37 438 Q 0 453 33 428 Q 66 404 95 364 Q 123 325 142 267 Q 161 208 155 205 Q 149 202 139 203 Q 130 204 115 195 Q 96 229 72 259 Q 104 268 113 277 Q 121 287 118 301 Q 115 314 100 301 Q 85 287 68 263 Q 53 276 33 286 Q 13 295 37 268 Q 62 240 86 197 Q 110 153 113 108 Q 85 115 58 107 Q 32 100 57 96 Q 83 91 112 83 Q 140 74 166 67 Q 191 59 205 66 Q 219 72 208 81 Q 198 89 125 106 Q 151 127 146 139 Q 140 151 121 185 Z M 270 244 V 283 Q 300 278 320 273 Q 340 268 351 276 Q 361 285 331 291 Q 302 297 270 293 V 336 Q 304 331 321 327 Q 338 323 349 330 Q 361 338 341 344 Q 321 351 270 351 V 397 L 376 387 Q 376 329 377 267 Q 378 204 374 192 Q 370 181 355 181 Q 340 181 270 193 V 232 Q 287 229 308 223 Q 329 217 343 224 Q 357 232 338 238 Q 319 244 270 244 Z" fill="black" />
  </g>
  <g class="defect" id="01">
    <path d="M 160 421 Q 124 406 163 407" fill="none" stroke="red" stroke-width="3" />
  </g>
</svg>