<svg xmlns="http://www.w3.org/2000/svg" width="512" height="512" viewBox="0 0 512 512">
  <g class="glyph">
    <path d="M 286 160 282 232 Q 298 228 307 221 Q 316 214 329 220 Q 343 226 356 235 Q 350 258 360 254 Q 350 264 342 286 Q 334 309 304 359 Q 341 388 374 408 Q 408 429 435 436 Q 462 444 487 452 Q 512 460 468 466 Q 424 471 399 470 Q 374 469 356 449 Q 326 446 286 379 Q 255 411 217 430 Q 178 449 144 453 Q 111 458 142 444 Q 174 431 202 413 Q 230 395 262 359 Q 212 304 189 298 Q 167 291 186 288 Q 205 284 223 297 Q 241 309 280 341 Q 300 311 307 285 Q 314 259 312 250 Q 311 241 270 254 Q 228 266 210 273 Q 192 280 175 267 Q 158 255 182 254 Q 205 253 255 239 Q 255 203 257 167 Q 226 174 206 175 Q 187 176 174 167 Q 160 158 186 153 Q 212 149 257 135 Q 259 36 249 18 Q 239 0 256 3 Q 273 7 292 16 Q 311 25 302 39 Q 293 54 289 126 Q 325 117 346 109 Q 368 101 383 113 Q 399 124 362 135 Q 325 147 286 160 Z M 18 381 Q 34 381 56 352 Q 79 323 115 273 Q 151 223 138 255 Q 124 286 92 350 Q 61 413 55 443 Q 50 474 26 427 Q 2 381 18 381 Z M 41 228 Q 14 198 7 182 Q 0 165 42 177 Q 83 189 77 222 Q 70 255 41 228 Z M 92 108 Q 63 79 55 64 Q 47 50 90 59 Q 133 68 129 103 Q 124 138 92 108 Z" fill="black" />
  </g>
  <g class="defect" id="01">
    <path d="M 356 449 Q 326 446 286 379" fill="none" stroke="red" stroke-width="3" />
  </g>
  <g class="defect" id="02">
    <path d="M 356 235 Q 350 258 360 254" fill="none" stroke="red" stroke-width="3" />
  </g>
</svg>