<svg xmlns="http://www.w3.org/2000/svg" width="512" height="512" viewBox="0 0 512 512">
  <g class="glyph">
    <path d="M 319 119 Q 317 150 317 173 Q 404 155 441 149 Q 478 144 494 162 Q 510 180 472 179 Q 433 177 341 191 Q 359 209 357 218 Q 355 227 357 249 Q 411 243 426 240 Q 440 238 455 252 Q 469 265 441 266 Q 413 267 359 272 Q 364 328 365 378 Q 366 429 357 455 Q 348 481 331 496 Q 314 512 309 492 Q 303 472 276 456 Q 249 440 278 444 Q 308 447 320 435 Q 332 422 332 362 Q 332 299 330 276 Q 310 278 262 289 Q 213 299 205 301 Q 198 303 175 291 Q 153 278 190 277 Q 227 276 328 254 Q 328 231 310 195 Q 213 216 191 223 Q 168 231 157 228 Q 146 225 131 213 Q 117 202 146 202 Q 175 202 290 177 V 126 Q 272 128 258 128 Q 261 114 235 120 Q 222 112 235 110 Q 247 108 290 94 Q 290 72 287 49 Q 285 27 276 13 Q 267 0 278 0 Q 292 0 312 8 Q 332 16 327 27 Q 321 38 319 88 Q 341 81 353 79 Q 364 76 375 85 Q 386 94 372 102 Q 357 110 319 119 Z M 119 278 Q 146 240 129 278 Q 112 317 86 362 Q 61 406 53 445 Q 45 483 22 440 Q 0 397 17 392 Q 34 386 63 350 Q 92 314 119 278 Z M 34 216 Q 18 195 12 182 Q 7 168 30 173 Q 54 177 71 189 Q 88 200 83 225 Q 79 249 65 243 Q 52 236 34 216 Z M 74 58 Q 49 27 94 39 Q 139 52 137 84 Q 135 117 117 103 Q 99 90 74 58 Z M 218 332 Q 209 308 232 318 Q 256 328 263 341 Q 269 355 262 373 Q 254 391 240 373 Q 227 355 218 332 Z" fill="black" />
  </g>
  <g class="defect" id="01">
    <path d="M 258 128 Q 261 114 235 120" fill="none" stroke="red" stroke-width="3" />
  </g>
</svg>