<svg xmlns="http://www.w3.org/2000/svg" width="512" height="512" viewBox="0 0 512 512">
  <g class="glyph">
    <path d="M 335 303 Q 333 365 333 411 Q 360 409 395 404 Q 429 399 451 396 Q 473 393 490 403 Q 507 413 510 424 Q 512 434 460 433 Q 409 432 357 435 Q 305 439 265 443 Q 214 448 195 452 Q 165 457 150 460 Q 135 464 113 444 Q 90 425 116 426 Q 142 427 200 422 Q 200 301 186 279 Q 172 257 191 261 Q 209 264 223 272 Q 236 280 232 297 Q 227 315 225 420 Q 248 418 308 411 Q 320 280 305 245 Q 303 209 295 193 Q 287 177 294 176 Q 301 174 326 183 Q 351 191 344 205 Q 338 220 335 287 Q 372 280 396 271 Q 406 262 437 274 Q 455 287 440 294 Q 425 301 393 303 Q 360 305 335 303 Z M 360 92 Q 372 30 365 15 Q 358 0 372 3 Q 386 7 404 17 Q 422 28 414 38 Q 406 48 393 87 Q 422 83 444 77 Q 466 71 487 90 Q 507 108 466 109 Q 425 110 383 115 Q 370 154 356 174 Q 342 195 346 173 Q 349 152 356 117 Q 328 119 269 126 Q 269 154 266 170 Q 264 186 257 173 Q 250 161 243 129 Q 207 135 192 139 Q 177 142 157 127 Q 138 113 162 114 Q 186 115 239 106 Q 227 64 217 51 Q 207 37 215 34 Q 223 32 246 38 Q 269 44 266 55 Q 264 67 266 103 Q 324 96 360 92 Z M 133 262 Q 119 303 98 348 Q 76 393 65 433 Q 55 473 34 429 Q 14 386 24 383 Q 34 381 51 364 Q 67 347 108 284 Q 149 220 133 262 Z M 39 227 Q 14 197 7 178 Q 0 158 41 174 Q 83 191 73 224 Q 64 257 39 227 Z M 99 115 Q 71 90 64 69 Q 57 48 96 62 Q 135 76 131 108 Q 126 140 99 115 Z" fill="black" />
  </g>
  <g class="defect" id="01">
    <path d="M 265 443 Q 214 448 195 452" fill="none" stroke="red" stroke-width="3" />
  </g>
  <g class="defect" id="02">
    <path d="M 308 411 Q 320 280 305 245" fill="none" stroke="red" stroke-width="3" />
  </g>
  <g class="defect" id="03">
    <path d="M 396 271 Q 406 262 437 274" fill="none" stroke="red" stroke-width="3" />
  </g>
</svg>