<svg xmlns="http://www.w3.org/2000/svg" width="512" height="512" viewBox="0 0 512 512">
  <g class="glyph">
    <path d="M 248 109 227 115 224 153 Q 253 146 261 148 Q 270 150 264 158 Q 257 166 224 176 Q 222 190 222 211 Q 259 203 263 200 Q 266 198 279 180 Q 292 161 304 134 Q 316 107 327 82 Q 338 57 337 46 Q 336 35 330 25 Q 325 15 339 20 Q 364 6 368 34 Q 383 44 378 50 Q 373 57 355 89 Q 338 122 309 168 Q 397 144 412 135 Q 427 126 442 135 Q 458 144 439 154 Q 420 163 353 179 Q 379 190 376 203 Q 373 216 370 245 Q 368 275 359 309 Q 399 355 418 367 Q 438 379 453 387 Q 468 394 479 398 Q 490 401 501 406 Q 512 412 472 414 Q 441 416 413 412 Q 394 407 378 382 Q 362 357 346 338 Q 322 364 306 376 Q 290 388 276 391 Q 261 394 253 395 Q 244 397 265 385 Q 285 373 302 352 Q 318 331 327 309 Q 305 275 294 259 Q 283 244 273 239 Q 264 233 276 231 Q 288 229 292 230 Q 296 231 309 251 Q 322 270 338 288 Q 344 255 344 229 Q 344 200 338 181 Q 309 183 298 181 L 275 205 Q 281 211 271 215 Q 261 218 211 231 Q 214 235 218 241 Q 222 246 217 253 Q 211 259 207 266 Q 220 268 229 265 Q 237 261 249 270 Q 261 279 265 283 Q 268 288 261 294 Q 255 301 245 338 Q 235 375 222 397 Q 209 418 191 434 Q 172 449 168 430 Q 163 412 148 393 Q 133 375 151 385 Q 170 394 180 393 Q 190 392 198 378 Q 207 364 216 339 Q 224 314 224 301 Q 224 285 218 282 Q 211 279 200 275 Q 179 314 155 340 Q 131 366 103 380 Q 76 394 89 383 Q 102 373 117 355 Q 131 338 150 309 Q 170 281 178 261 Q 185 242 185 240 Q 150 248 139 254 Q 129 259 119 254 Q 109 248 100 241 Q 92 233 122 231 Q 153 229 200 216 V 181 Q 161 183 154 178 Q 146 172 159 169 Q 172 166 200 157 V 122 Q 161 124 151 120 Q 142 115 156 112 Q 170 109 200 98 Q 198 41 195 29 Q 192 17 186 9 Q 181 0 202 3 Q 222 7 230 13 Q 237 20 234 28 Q 231 37 230 49 Q 229 61 227 92 Q 261 83 273 86 Q 285 89 276 96 Q 266 102 248 109 Z M 89 255 Q 96 248 77 310 Q 59 373 54 403 Q 50 434 37 415 Q 24 397 17 380 Q 11 364 19 362 Q 26 359 36 348 Q 46 336 65 297 Q 85 259 89 255 Z M 17 157 Q 35 157 50 164 Q 65 172 68 183 Q 70 194 66 207 Q 63 220 56 218 Q 48 216 36 203 Q 24 190 12 172 Q 0 155 17 157 Z M 111 96 Q 102 96 88 81 Q 74 65 66 52 Q 59 39 70 39 Q 81 39 96 44 Q 111 48 118 57 Q 124 65 122 81 Q 120 96 111 96 Z" fill="black" />
  </g>
  <g class="defect" id="01">
    <path d="M 472 414 Q 441 416 413 412" fill="none" stroke="red" stroke-width="3" />
  </g>
  <g class="defect" id="02">
    <path d="M 339 20 Q 364 6 368 34" fill="none" stroke="red" stroke-width="3" />
  </g>
</svg>