<svg xmlns="http://www.w3.org/2000/svg" width="512" height="512" viewBox="0 0 512 512">
  <g class="glyph">
    <path d="M 327 238 Q 325 211 336 213 Q 347 214 365 234 Q 425 227 451 221 Q 476 216 494 235 Q 512 254 486 252 Q 461 249 363 256 Q 349 321 329 354 Q 367 374 391 392 Q 414 410 423 430 Q 432 450 427 464 Q 423 479 390 446 Q 356 414 309 378 Q 278 414 234 436 Q 205 459 136 461 Q 82 463 128 450 Q 174 436 214 416 Q 268 412 280 365 Q 240 338 225 332 Q 209 325 217 313 Q 225 301 240 269 Q 205 276 188 282 Q 171 287 151 273 Q 131 258 151 258 Q 171 258 196 255 Q 220 252 249 247 Q 269 189 266 171 Q 263 154 275 157 Q 287 160 301 171 Q 314 183 307 189 Q 301 196 296 207 Q 292 218 278 243 Z M 209 122 Q 238 122 286 111 Q 334 100 358 93 Q 383 87 398 81 Q 414 76 435 88 Q 456 100 469 116 Q 481 131 450 135 Q 419 138 391 158 Q 363 178 374 157 Q 385 136 390 124 Q 394 111 363 116 Q 332 120 277 130 Q 223 140 207 138 Q 198 171 184 197 Q 169 223 159 201 Q 149 180 164 160 Q 178 140 186 111 Q 194 82 200 93 Q 207 105 209 122 Z M 91 352 Q 71 396 65 434 Q 58 472 37 426 Q 16 381 27 378 Q 38 376 63 341 Q 89 305 116 265 Q 142 225 127 266 Q 111 307 91 352 Z M 325 258 Q 303 260 269 265 Q 256 296 250 307 Q 245 318 253 322 Q 260 325 301 343 Q 318 312 325 258 Z M 265 29 Q 247 0 278 6 Q 309 11 319 33 Q 329 56 325 71 Q 321 87 302 72 Q 283 58 265 29 Z M 47 232 Q 24 211 12 186 Q 0 160 40 173 Q 80 185 76 218 Q 71 252 47 232 Z M 100 102 Q 69 73 67 58 Q 65 42 101 55 Q 138 67 135 99 Q 131 131 100 102 Z" fill="black" />
  </g>
  <g class="defect" id="01">
    <path d="M 214 416 Q 268 412 280 365" fill="none" stroke="red" stroke-width="3" />
  </g>
  <g class="defect" id="02">
    <path d="M 234 436 Q 205 459 136 461" fill="none" stroke="red" stroke-width="3" />
  </g>
</svg>