<svg xmlns="http://www.w3.org/2000/svg" width="512" height="512" viewBox="0 0 512 512">
  <g class="glyph">
    <path d="M 242 379 Q 242 344 240 313 Q 237 281 229 265 Q 220 248 235 253 Q 237 253 240 253 Q 240 251 248 240 Q 261 220 272 183 Q 235 168 241 162 Q 246 157 281 159 Q 285 139 288 115 Q 270 120 264 121 Q 257 122 245 112 Q 233 102 248 102 Q 264 102 290 96 Q 292 48 280 34 Q 268 20 289 23 Q 309 26 319 32 Q 329 37 325 46 Q 320 54 318 89 Q 338 85 345 78 Q 353 72 363 74 Q 353 93 388 85 Q 403 94 388 106 Q 373 118 374 150 Q 375 183 380 200 Q 386 218 399 229 Q 412 240 420 240 Q 429 240 431 225 Q 434 211 437 192 Q 440 172 447 207 Q 453 242 465 258 Q 477 275 458 278 Q 438 281 420 276 Q 403 270 387 258 Q 370 246 362 227 Q 353 207 352 182 Q 351 157 351 129 Q 351 100 343 102 Q 336 105 316 111 Q 312 144 307 168 Q 342 179 337 197 Q 331 216 298 194 Q 288 220 272 234 Q 257 248 246 253 L 244 255 Q 255 257 264 264 Q 279 270 271 281 Q 264 292 266 316 Q 288 331 305 344 Q 316 340 332 325 Q 349 309 351 301 Q 353 292 367 296 Q 381 301 393 310 Q 405 320 386 325 Q 366 329 316 353 Q 355 373 391 388 Q 427 403 452 407 Q 477 412 491 414 Q 505 416 486 423 Q 466 429 435 432 Q 403 436 388 426 Q 373 416 340 392 Q 307 368 266 336 Q 268 410 270 437 Q 272 464 255 488 Q 237 512 229 492 Q 220 473 195 456 Q 170 440 195 447 Q 220 453 229 451 Q 237 449 240 430 Q 242 412 242 379 Z M 172 185 Q 200 176 211 183 Q 222 190 215 195 Q 207 200 166 211 V 233 Q 209 224 224 225 Q 240 227 225 233 Q 211 240 198 244 Q 185 248 163 253 Q 161 283 155 296 Q 148 309 143 304 Q 137 298 137 261 Q 105 270 81 279 Q 57 288 45 280 Q 33 272 26 265 Q 20 257 41 257 Q 65 257 137 240 V 218 Q 107 224 94 224 Q 81 224 71 216 Q 61 207 85 205 Q 109 203 148 192 Q 168 168 168 142 Q 65 161 48 167 Q 31 172 15 161 Q 0 150 0 146 Q 0 139 28 139 Q 57 139 153 122 V 96 Q 124 100 113 97 Q 102 94 96 88 Q 89 83 107 81 Q 124 78 153 70 Q 153 31 141 15 Q 129 0 145 1 Q 161 2 176 9 Q 192 15 187 29 Q 183 44 181 63 Q 207 57 221 60 Q 235 63 230 72 Q 224 81 181 89 L 179 118 Q 198 115 215 111 Q 231 107 242 117 Q 253 126 231 130 Q 209 133 187 137 Q 209 153 200 160 Q 192 168 172 185 Z M 198 314 Q 214 320 221 329 Q 229 338 219 343 Q 228 349 197 365 Q 185 381 146 418 Q 107 455 57 464 Q 7 473 44 456 Q 81 440 113 412 Q 130 401 161 363 Q 176 342 173 337 Q 170 331 142 341 Q 113 351 102 349 Q 92 346 81 336 Q 70 325 93 326 Q 115 327 142 321 Q 168 316 176 310 Q 185 305 198 314 Z M 98 161 Q 113 159 124 164 Q 135 170 133 181 Q 131 192 121 190 Q 111 187 97 174 Q 83 161 98 161 Z" fill="black" />
  </g>
  <g class="defect" id="01">
    <path d="M 113 412 Q 130 401 161 363" fill="none" stroke="red" stroke-width="3" />
  </g>
  <g class="defect" id="02">
    <path d="M 363 74 Q 353 93 388 85" fill="none" stroke="red" stroke-width="3" />
  </g>
  <g class="defect" id="03">
    <path d="M 219 343 Q 228 349 197 365" fill="none" stroke="red" stroke-width="3" />
  </g>
</svg>