<svg xmlns="http://www.w3.org/2000/svg" width="512" height="512" viewBox="0 0 512 512">
  <g class="glyph">
    <path d="M 244 454 Q 240 493 228 477 Q 216 461 219 438 Q 221 414 220 368 Q 219 321 209 301 Q 200 282 213 286 Q 226 291 235 293 Q 244 296 303 284 Q 361 272 367 266 Q 391 261 391 268 Q 410 275 422 286 Q 435 298 422 315 Q 410 333 414 385 Q 419 438 407 475 Q 396 512 385 492 Q 375 472 363 442 Q 263 454 244 454 Z M 240 112 Q 228 112 216 109 Q 175 147 165 148 Q 156 149 172 129 Q 189 109 207 72 Q 226 35 221 17 Q 216 0 243 14 Q 270 28 261 40 Q 251 51 244 63 L 223 93 Q 242 91 262 84 Q 282 77 293 71 Q 305 65 320 76 Q 335 86 317 93 Q 298 100 263 109 Q 282 121 276 130 Q 270 140 263 156 L 303 149 Q 321 144 332 151 Q 342 158 323 163 L 258 179 Q 247 212 219 246 Q 191 279 152 297 Q 114 314 140 294 Q 165 275 190 243 Q 214 212 226 184 Q 168 195 154 201 Q 140 207 121 187 Q 102 168 128 172 Q 154 177 230 161 Q 242 133 240 112 Z M 382 223 Q 375 258 365 235 Q 356 212 351 173 Q 347 135 336 120 Q 326 105 337 105 Q 351 105 361 108 Q 370 112 397 104 Q 424 95 432 87 Q 420 60 456 84 Q 472 88 488 99 Q 503 109 486 123 Q 470 137 458 186 Q 486 205 462 208 Q 454 212 382 223 Z M 244 438 Q 307 428 329 424 Q 351 419 372 438 Q 382 442 382 386 Q 382 328 377 312 Q 372 296 351 296 Q 333 296 244 312 V 363 Q 272 361 304 350 Q 335 340 349 354 Q 363 368 328 374 Q 293 379 244 379 Z M 438 191 Q 440 156 440 140 Q 440 121 429 118 Q 419 114 375 128 Q 377 172 379 207 Q 417 198 438 191 Z M 107 323 Q 77 398 69 438 Q 61 477 38 440 Q 16 403 28 399 Q 40 396 55 375 Q 70 354 105 300 Q 140 247 107 323 Z M 40 230 Q 16 198 8 182 Q 0 165 42 180 Q 84 195 73 228 Q 63 261 40 230 Z M 102 112 Q 81 84 74 63 Q 67 42 106 61 Q 144 79 134 108 Q 123 137 102 112 Z M 293 251 Q 275 228 266 212 Q 258 195 292 205 Q 326 214 320 244 Q 314 275 293 251 Z" fill="black" />
  </g>
  <g class="defect" id="01">
    <path d="M 432 87 Q 420 60 456 84" fill="none" stroke="red" stroke-width="3" />
  </g>
  <g class="defect" id="02">
    <path d="M 462 208 Q 454 212 382 223" fill="none" stroke="red" stroke-width="3" />
  </g>
  <g class="defect" id="03">
    <path d="M 367 266 Q 391 261 391 268" fill="none" stroke="red" stroke-width="3" />
  </g>
</svg>