<svg xmlns="http://www.w3.org/2000/svg" width="512" height="512" viewBox="0 0 512 512">
  <g class="glyph">
    <path d="M 356 181 Q 442 160 461 154 Q 480 147 496 153 Q 512 158 502 165 Q 493 173 431 188 Q 439 205 436 214 Q 433 224 432 268 Q 431 311 429 368 Q 439 414 420 438 Q 414 452 411 442 Q 407 431 407 393 V 305 Q 407 256 405 194 Q 375 196 356 196 Q 358 273 337 318 Q 316 363 287 382 Q 258 401 279 375 Q 301 350 315 311 Q 329 273 330 220 Q 331 166 327 142 Q 324 117 318 105 Q 311 92 350 107 Q 399 58 397 42 Q 395 26 413 33 Q 431 41 441 50 Q 450 60 438 64 Q 427 68 354 115 Q 356 145 356 181 Z M 124 209 Q 90 262 64 288 Q 38 314 19 324 Q 0 335 18 315 Q 36 294 57 266 Q 77 237 92 207 Q 107 177 117 160 L 109 130 Q 79 162 54 173 Q 30 183 42 173 Q 53 162 68 146 Q 83 130 100 107 Q 85 85 66 67 Q 47 49 64 54 Q 81 60 92 67 Q 102 75 117 90 Q 141 53 144 39 Q 147 26 146 13 Q 145 0 158 7 Q 171 15 182 27 Q 194 38 185 47 Q 175 55 130 111 Q 147 158 149 247 Q 151 337 143 369 Q 134 401 119 417 Q 105 433 98 415 Q 92 397 69 378 Q 47 358 64 365 Q 81 371 94 373 Q 107 375 113 358 Q 119 341 123 302 Q 126 262 124 209 Z M 254 154 V 213 Q 275 198 297 185 Q 318 171 299 192 Q 279 213 254 237 Q 254 294 255 324 Q 256 354 256 375 Q 256 397 241 419 Q 226 442 217 421 Q 207 401 185 384 Q 162 367 181 372 Q 201 378 211 378 Q 224 378 226 350 Q 228 322 230 260 Q 209 277 202 287 Q 206 297 183 292 Q 173 288 161 278 Q 149 269 164 269 Q 181 269 230 228 V 160 Q 215 164 203 166 Q 190 169 176 162 Q 162 156 174 154 Q 186 151 230 137 Q 230 38 218 19 Q 205 0 228 6 Q 252 13 259 20 Q 267 28 260 39 Q 254 51 254 128 Q 269 124 279 121 Q 290 117 300 124 Q 309 130 300 137 Q 290 143 254 154 Z" fill="black" />
  </g>
  <g class="defect" id="01">
    <path d="M 202 287 Q 206 297 183 292" fill="none" stroke="red" stroke-width="3" />
  </g>
  <g class="defect" id="02">
    <path d="M 429 368 Q 439 414 420 438" fill="none" stroke="red" stroke-width="3" />
  </g>
</svg>