<svg xmlns="http://www.w3.org/2000/svg" width="512" height="512" viewBox="0 0 512 512">
  <g class="glyph">
    <path d="M 312 136 Q 352 132 370 122 Q 388 113 400 117 Q 413 122 426 132 Q 439 141 432 149 Q 425 157 425 186 Q 425 214 426 267 Q 427 319 420 342 Q 413 364 405 368 Q 397 371 383 322 Q 359 322 337 324 Q 315 326 279 331 Q 275 371 262 344 Q 249 317 254 297 Q 258 277 260 241 Q 261 204 258 177 Q 256 150 251 137 Q 247 124 262 132 Q 277 139 301 136 Q 315 92 317 76 Q 319 61 317 47 Q 277 56 264 61 Q 251 66 234 55 Q 216 45 227 42 Q 237 40 279 34 Q 322 28 357 21 Q 392 14 424 7 Q 456 0 472 15 Q 489 31 467 31 Q 446 31 411 34 Q 376 38 331 45 Q 350 52 356 63 Q 362 75 352 79 Q 343 82 312 136 Z M 87 162 Q 120 157 133 151 Q 146 146 159 139 Q 171 132 184 141 Q 197 150 201 156 Q 204 162 193 175 Q 181 188 175 214 Q 169 240 170 292 Q 171 345 207 370 Q 242 395 301 397 Q 359 399 404 392 Q 449 385 463 368 Q 465 350 484 310 Q 491 270 493 314 Q 496 357 504 375 Q 512 392 499 403 Q 486 413 450 420 Q 413 427 348 430 Q 282 432 249 424 Q 216 416 187 395 Q 144 373 149 336 Q 141 298 146 254 Q 150 209 154 186 Q 157 162 143 168 Q 129 174 117 180 Q 106 186 87 174 Q 85 200 82 214 Q 115 216 124 233 Q 134 249 132 258 Q 129 268 119 264 Q 108 261 80 225 Q 73 298 68 321 Q 63 343 86 332 Q 108 322 123 316 Q 139 310 122 324 Q 92 318 82 361 Q 59 383 46 400 Q 33 418 25 406 Q 16 395 14 384 Q 12 373 22 359 Q 33 345 42 315 Q 52 284 58 229 Q 63 174 65 143 Q 66 113 61 73 Q 31 73 15 67 Q 0 61 16 59 Q 33 56 72 47 Q 110 38 149 26 Q 188 14 202 23 Q 216 33 190 41 Q 164 49 142 55 Q 120 61 75 70 Q 101 87 97 101 Q 94 115 87 162 Z M 282 216 Q 298 216 315 211 Q 331 207 341 204 Q 350 202 359 209 Q 369 216 363 221 Q 357 225 337 228 Q 317 230 282 230 L 279 315 Q 315 310 332 305 Q 350 301 390 303 Q 395 247 393 202 Q 392 157 386 149 Q 380 141 355 144 Q 329 148 282 155 Z" fill="black" />
  </g>
  <g class="defect" id="01">
    <path d="M 463 368 Q 465 350 484 310" fill="none" stroke="red" stroke-width="3" />
  </g>
  <g class="defect" id="02">
    <path d="M 122 324 Q 92 318 82 361" fill="none" stroke="red" stroke-width="3" />
  </g>
  <g class="defect" id="03">
    <path d="M 187 395 Q 144 373 149 336" fill="none" stroke="red" stroke-width="3" />
  </g>
</svg>