<svg xmlns="http://www.w3.org/2000/svg" width="512" height="512" viewBox="0 0 512 512">
  <g class="glyph">
    <path d="M 324 150 V 324 Q 324 336 327 335 Q 330 334 358 314 Q 348 295 343 282 Q 338 269 355 279 Q 372 289 383 305 Q 395 320 389 339 Q 382 358 364 322 Q 354 334 338 350 Q 322 366 315 379 Q 308 393 298 379 Q 289 366 296 350 Q 304 334 305 307 Q 306 279 306 206 Q 306 132 305 116 Q 304 101 300 91 L 277 101 V 148 Q 277 184 271 242 Q 265 300 251 330 Q 237 360 212 373 Q 188 387 203 369 Q 219 352 229 333 Q 224 333 245 283 Q 251 253 254 216 Q 257 178 257 144 Q 257 109 251 96 Q 245 83 252 84 Q 259 85 266 87 Q 273 89 290 79 Q 308 69 334 47 Q 360 24 360 12 Q 360 0 375 8 Q 391 16 399 29 Q 407 42 394 45 Q 380 47 308 87 Q 336 101 330 112 Q 324 123 324 150 Z M 142 257 Q 154 259 158 265 Q 162 271 159 277 Q 156 283 154 293 Q 190 289 205 285 Q 221 281 234 288 Q 247 295 227 300 Q 206 304 154 314 L 150 395 Q 148 435 138 439 Q 132 445 131 393 Q 130 340 130 318 Q 75 328 58 336 Q 40 344 20 329 Q 0 314 28 314 Q 57 314 130 302 Q 130 271 127 259 L 93 265 Q 72 267 61 258 Q 38 249 67 248 Q 95 247 146 235 Q 158 212 163 193 Q 168 174 166 166 Q 164 158 179 164 Q 194 170 200 177 Q 206 184 199 188 Q 192 192 158 235 Q 166 233 185 227 Q 204 221 219 231 Q 233 241 201 247 Q 170 253 142 257 Z M 140 101 Q 119 105 101 105 Q 85 105 74 99 Q 63 93 83 91 Q 103 89 140 83 Q 142 36 133 18 Q 123 0 152 9 Q 180 18 173 30 Q 166 42 162 75 Q 182 71 195 67 Q 208 63 220 74 Q 231 85 210 89 Q 190 93 162 99 Q 147 90 158 140 Q 194 132 214 126 Q 233 121 247 133 Q 261 144 243 147 Q 225 150 176 156 Q 148 160 131 162 Q 113 164 97 168 Q 59 174 51 175 Q 42 176 27 168 Q 12 160 29 159 Q 47 158 59 157 Q 71 156 140 144 Z M 330 81 Q 336 77 347 85 Q 358 93 380 164 Q 403 235 428 278 Q 453 322 483 337 Q 512 352 503 354 Q 494 356 465 355 Q 437 354 422 341 Q 407 328 391 265 Q 374 202 359 152 Q 344 101 334 93 Q 324 85 330 81 Z M 103 188 Q 125 198 119 218 Q 113 237 99 220 Q 85 202 83 190 Q 81 178 103 188 Z" fill="black" />
  </g>
  <g class="defect" id="01">
    <path d="M 162 99 Q 147 90 158 140" fill="none" stroke="red" stroke-width="3" />
  </g>
  <g class="defect" id="02">
    <path d="M 229 333 Q 224 333 245 283" fill="none" stroke="red" stroke-width="3" />
  </g>
  <g class="defect" id="03">
    <path d="M 93 265 Q 72 267 61 258" fill="none" stroke="red" stroke-width="3" />
  </g>
</svg>