<svg xmlns="http://www.w3.org/2000/svg" width="512" height="512" viewBox="0 0 512 512">
  <g class="glyph">
    <path d="M 346 242 Q 372 234 391 226 Q 410 219 422 222 Q 433 225 439 233 Q 444 240 415 246 Q 405 242 353 266 Q 370 323 394 356 Q 419 389 436 400 Q 453 412 462 410 Q 472 408 477 393 Q 482 378 485 365 Q 489 353 493 346 Q 497 340 496 382 Q 495 425 504 445 Q 512 465 504 468 Q 495 472 478 466 Q 461 461 441 448 Q 421 436 399 411 Q 378 387 360 355 Q 342 323 327 270 Q 308 274 293 277 Q 278 280 264 274 Q 251 268 268 263 Q 285 259 321 249 Q 314 217 311 198 Q 308 178 302 164 Q 272 172 246 181 Q 244 268 243 300 Q 242 331 241 354 Q 240 376 258 366 Q 276 357 303 342 Q 329 327 319 339 Q 308 351 284 372 Q 259 393 244 409 Q 229 425 223 438 Q 217 450 210 441 Q 204 431 200 417 Q 195 404 204 390 Q 212 376 216 329 Q 219 283 220 234 Q 221 185 215 176 Q 208 168 208 164 Q 208 159 228 163 Q 249 166 266 158 Q 283 151 309 134 Q 336 117 338 107 Q 340 98 357 105 Q 374 113 383 123 Q 393 134 378 137 Q 363 140 319 159 Q 342 168 340 176 Q 324 167 339 202 Q 340 219 346 242 Z M 142 251 Q 100 276 81 291 Q 80 292 50 315 Q 38 325 28 317 Q 17 308 8 298 Q 0 289 11 288 Q 21 287 36 284 Q 51 280 144 236 Q 151 168 151 136 Q 151 104 144 89 Q 138 74 152 78 Q 166 81 175 84 Q 185 87 231 81 Q 276 74 308 67 Q 340 59 365 52 Q 391 45 407 53 Q 423 62 417 68 Q 412 74 371 81 Q 329 87 286 95 Q 242 102 181 104 Q 178 200 166 266 Q 153 331 130 373 Q 106 414 73 438 Q 40 461 66 431 Q 91 402 110 360 Q 130 319 142 251 Z M 272 6 Q 302 13 309 24 Q 317 36 311 51 Q 306 66 289 53 Q 272 40 258 20 Q 244 0 272 6 Z M 353 423 Q 353 433 346 441 Q 340 448 327 436 Q 314 423 302 403 Q 289 382 308 387 Q 329 391 341 400 Q 353 410 353 423 Z M 72 144 Q 96 151 103 160 Q 110 170 108 184 Q 106 198 99 201 Q 91 204 84 193 Q 76 183 64 159 Q 51 136 72 144 Z" fill="black" />
  </g>
  <g class="defect" id="01">
    <path d="M 340 176 Q 324 167 339 202" fill="none" stroke="red" stroke-width="3" />
  </g>
  <g class="defect" id="02">
    <path d="M 81 291 Q 80 292 50 315" fill="none" stroke="red" stroke-width="3" />
  </g>
  <g class="defect" id="03">
    <path d="M 415 246 Q 405 242 353 266" fill="none" stroke="red" stroke-width="3" />
  </g>
</svg>