<svg xmlns="http://www.w3.org/2000/svg" width="512" height="512" viewBox="0 0 512 512">
  <g class="glyph">
    <path d="M 235 281 Q 229 304 217 276 Q 206 248 199 221 Q 193 195 184 182 Q 174 168 186 169 Q 197 170 202 172 Q 208 174 279 163 Q 350 151 361 147 Q 371 143 383 147 Q 394 151 408 161 Q 422 170 413 177 Q 405 185 398 206 Q 390 227 386 240 Q 382 254 375 266 Q 367 279 359 264 Q 287 271 235 281 Z M 302 338 376 323 Q 397 319 407 321 Q 418 323 425 334 Q 432 344 411 345 Q 390 346 304 353 Q 342 376 385 400 Q 428 424 455 430 Q 483 436 497 441 Q 498 463 475 451 Q 439 457 422 456 Q 405 455 396 448 Q 386 441 367 423 Q 348 405 302 363 V 430 Q 302 457 297 474 Q 292 491 284 483 Q 277 474 274 462 Q 271 449 274 434 Q 277 420 279 369 Q 254 397 219 421 Q 185 445 147 452 Q 109 460 143 444 Q 176 428 209 402 Q 241 376 254 359 Q 216 365 201 368 Q 187 371 168 360 Q 149 348 172 348 Q 195 348 220 347 Q 246 346 279 340 Q 283 323 275 311 Q 241 319 225 319 Q 210 319 231 312 Q 252 304 275 293 Q 298 281 299 274 Q 300 266 324 279 Q 348 292 337 294 Q 325 296 296 304 Q 295 301 307 322 Q 323 312 302 338 Z M 130 252 Q 67 300 60 314 Q 52 327 43 324 Q 34 321 17 308 Q 0 296 22 293 Q 44 290 134 233 Q 143 109 136 95 Q 130 82 130 76 Q 130 67 148 76 Q 166 84 187 81 Q 208 78 253 68 Q 298 59 336 48 Q 374 38 387 48 Q 401 59 386 64 Q 371 69 333 76 Q 294 82 250 87 Q 206 92 166 97 Q 159 246 148 295 Q 136 344 111 384 Q 86 424 45 449 Q 4 474 39 442 Q 73 409 92 372 Q 111 336 130 252 Z M 361 248 Q 371 201 371 189 Q 371 174 364 171 Q 357 168 328 170 Q 300 172 216 185 Q 229 248 231 264 Q 325 252 361 248 Z M 283 120 Q 271 113 261 102 Q 252 90 269 90 Q 287 90 295 97 Q 302 103 300 118 Q 342 109 360 104 Q 378 99 391 111 Q 405 124 381 125 Q 357 126 300 135 Q 243 145 226 148 Q 208 151 192 143 Q 176 134 196 133 Q 216 132 283 120 Z M 315 233 Q 290 237 271 239 Q 264 254 259 241 Q 254 229 251 219 Q 248 210 242 204 Q 237 197 243 196 Q 250 195 256 196 Q 262 197 273 195 Q 308 189 314 186 Q 319 183 327 185 Q 336 187 344 192 Q 353 197 347 202 Q 342 208 337 217 Q 332 227 325 235 Q 319 243 315 233 Z M 252 4 Q 273 6 287 14 Q 302 21 301 35 Q 300 48 291 52 Q 281 57 257 28 Q 233 0 252 4 Z M 69 143 Q 86 145 99 154 Q 111 164 112 175 Q 113 187 106 195 Q 99 204 76 171 Q 52 138 69 143 Z M 315 222 Q 323 199 312 200 Q 300 201 266 208 L 269 229 Q 294 225 315 222 Z" fill="black" />
  </g>
  <g class="defect" id="01">
    <path d="M 497 441 Q 498 463 475 451" fill="none" stroke="red" stroke-width="3" />
  </g>
  <g class="defect" id="02">
    <path d="M 307 322 Q 323 312 302 338" fill="none" stroke="red" stroke-width="3" />
  </g>
  <g class="defect" id="03">
    <path d="M 296 304 Q 295 301 307 322" fill="none" stroke="red" stroke-width="3" />
  </g>
</svg>