<svg xmlns="http://www.w3.org/2000/svg" width="512" height="512" viewBox="0 0 512 512">
  <g class="glyph">
    <path d="M 272 303 Q 272 367 271 388 Q 269 408 256 427 Q 243 446 237 430 Q 232 415 212 401 Q 193 388 212 391 Q 232 394 238 391 Q 245 388 248 354 Q 251 321 251 276 Q 218 282 197 286 Q 191 340 172 380 Q 153 421 126 440 Q 99 460 117 438 Q 135 417 150 378 Q 166 340 176 290 Q 153 294 142 285 Q 131 276 143 276 Q 158 276 178 272 Q 180 226 180 214 Q 180 199 175 186 Q 170 172 179 175 Q 189 178 201 180 Q 230 133 230 118 Q 230 102 250 116 Q 269 131 259 136 Q 249 141 211 178 Q 236 176 245 172 Q 253 168 261 170 Q 269 172 278 178 Q 286 184 280 194 Q 274 203 273 221 Q 272 238 272 303 Z M 118 243 Q 52 288 45 297 Q 37 307 19 289 Q 0 272 24 271 Q 48 269 124 226 Q 131 164 132 137 Q 133 110 129 92 Q 124 75 134 78 Q 143 81 157 86 Q 170 91 198 88 Q 226 85 258 81 Q 290 77 318 70 Q 346 64 370 63 Q 394 62 403 73 Q 413 83 358 91 Q 303 99 243 105 Q 182 110 160 104 Q 155 174 146 226 Q 137 278 122 315 Q 108 352 81 385 Q 54 417 29 430 Q 4 444 31 417 Q 58 390 83 344 Q 108 298 118 243 Z M 361 396 Q 338 417 318 426 Q 298 435 275 436 Q 251 437 271 429 Q 290 421 308 409 Q 325 398 344 377 Q 338 369 320 352 Q 303 336 291 330 Q 280 323 291 321 Q 303 319 309 323 Q 315 328 329 340 Q 342 352 352 359 Q 361 338 363 317 Q 365 296 359 296 Q 354 296 343 300 Q 332 303 321 306 Q 311 309 300 301 Q 299 279 306 291 Q 323 290 341 285 Q 359 280 364 276 Q 369 272 379 275 Q 390 278 398 284 Q 406 290 402 295 Q 398 301 392 310 Q 386 319 383 336 Q 381 352 373 375 Q 400 400 429 413 Q 458 425 485 432 Q 512 439 499 445 Q 500 450 451 453 Q 417 456 401 439 Q 386 423 361 396 Z M 340 168 Q 340 203 331 229 Q 321 255 296 269 Q 272 284 291 261 Q 311 238 314 204 Q 317 170 312 157 Q 307 143 316 145 Q 325 147 332 150 Q 355 170 351 149 Q 365 145 371 138 Q 377 131 386 133 Q 394 135 405 142 Q 417 149 404 160 Q 392 170 388 199 Q 383 228 409 224 Q 435 220 443 228 Q 450 236 439 243 Q 429 249 401 248 Q 373 247 369 226 Q 365 205 369 182 Q 373 160 366 162 Q 359 164 340 168 Z M 251 259 Q 251 203 250 195 Q 249 187 239 188 Q 230 189 201 193 Q 201 234 199 269 Q 216 267 251 259 Z M 274 48 Q 249 23 244 11 Q 238 0 275 8 Q 311 17 306 44 Q 301 70 274 48 Z M 64 184 Q 48 153 47 138 Q 46 122 74 145 Q 102 168 91 191 Q 81 214 64 184 Z M 214 338 Q 205 313 208 306 Q 211 298 226 313 Q 240 328 232 344 Q 224 361 214 338 Z M 222 247 Q 214 232 211 218 Q 209 203 226 215 Q 243 226 237 243 Q 232 259 222 247 Z" fill="black" />
  </g>
  <g class="defect" id="01">
    <path d="M 499 445 Q 500 450 451 453" fill="none" stroke="red" stroke-width="3" />
  </g>
  <g class="defect" id="02">
    <path d="M 332 150 Q 355 170 351 149" fill="none" stroke="red" stroke-width="3" />
  </g>
  <g class="defect" id="03">
    <path d="M 300 301 Q 299 279 306 291" fill="none" stroke="red" stroke-width="3" />
  </g>
</svg>