<svg xmlns="http://www.w3.org/2000/svg" width="512" height="512" viewBox="0 0 512 512">
  <g class="glyph">
    <path d="M 337 317 Q 335 362 335 406 Q 377 402 402 397 Q 427 393 452 392 Q 478 391 495 410 Q 512 429 488 427 Q 465 424 427 424 Q 391 424 326 430 Q 260 436 217 442 Q 173 449 162 451 Q 150 454 132 440 Q 115 427 130 427 Q 148 427 216 420 Q 216 344 213 324 Q 211 305 203 290 Q 195 274 213 278 Q 231 283 244 289 Q 256 294 249 312 Q 243 330 243 418 Q 274 413 308 409 Q 308 326 307 289 Q 305 252 299 222 Q 242 208 240 217 Q 225 209 248 205 Q 272 202 320 189 Q 368 175 391 174 Q 413 173 421 182 Q 429 191 411 195 Q 393 200 330 213 Q 348 234 342 245 Q 337 256 337 299 Q 371 292 394 286 Q 418 281 427 293 Q 436 305 402 312 Q 368 319 337 317 Z M 135 281 Q 56 330 46 341 Q 36 353 18 331 Q 0 310 11 310 Q 25 310 49 302 Q 74 294 137 263 Q 144 231 146 185 Q 148 139 139 124 Q 130 108 139 109 Q 148 110 164 116 Q 180 121 220 115 Q 260 108 301 99 Q 341 90 376 80 Q 411 70 428 84 Q 445 99 412 106 Q 380 112 304 124 Q 229 135 182 137 Q 175 227 163 284 Q 150 341 127 382 Q 103 422 79 447 Q 54 472 28 485 Q 2 499 37 463 Q 72 427 99 377 Q 126 328 135 281 Z M 290 7 Q 337 11 335 40 Q 332 70 302 52 Q 272 34 258 17 Q 245 0 290 7 Z M 74 211 Q 54 182 49 163 Q 45 144 80 162 Q 115 180 106 210 Q 112 240 74 211 Z" fill="black" />
  </g>
  <g class="defect" id="01">
    <path d="M 299 222 Q 242 208 240 217" fill="none" stroke="red" stroke-width="3" />
  </g>
  <g class="defect" id="02">
    <path d="M 106 210 Q 112 240 74 211" fill="none" stroke="red" stroke-width="3" />
  </g>
</svg>