<svg xmlns="http://www.w3.org/2000/svg" width="512" height="512" viewBox="0 0 512 512">
  <g class="glyph">
    <path d="M 369 168 Q 403 162 418 154 Q 432 147 448 156 Q 464 166 443 175 Q 422 185 369 183 Q 384 250 367 306 Q 415 300 446 296 Q 476 292 494 305 Q 512 319 504 323 Q 495 327 458 324 Q 422 321 357 330 Q 292 340 268 345 Q 243 350 229 350 Q 216 350 202 337 Q 189 323 206 325 Q 222 327 258 321 Q 258 260 255 215 Q 252 170 243 153 Q 235 136 251 141 Q 266 145 280 153 Q 294 162 286 177 Q 279 193 281 319 Q 315 315 344 311 Q 344 151 341 94 Q 338 38 327 19 Q 317 0 339 5 Q 361 10 374 19 Q 386 27 379 41 Q 371 55 369 168 Z M 107 201 Q 143 195 157 185 Q 172 174 190 179 Q 208 185 217 191 Q 227 197 214 210 Q 201 222 185 266 Q 208 287 195 291 Q 183 294 111 306 Q 103 346 97 330 Q 90 315 89 302 Q 88 290 84 246 Q 52 287 26 308 Q 0 329 14 311 Q 27 292 39 276 Q 50 260 76 212 Q 37 183 86 191 Q 101 120 115 80 Q 80 76 72 71 Q 65 67 89 62 Q 113 57 150 48 Q 187 40 193 39 Q 199 38 208 40 Q 216 42 220 48 Q 225 55 193 64 Q 162 73 130 78 Q 143 94 147 106 Q 151 118 145 126 Q 138 134 107 201 Z M 109 292 Q 134 285 164 277 Q 168 233 168 220 Q 168 208 165 207 Q 162 206 107 216 Z" fill="black" />
  </g>
  <g class="defect" id="01">
    <path d="M 86 191 Q 101 120 115 80" fill="none" stroke="red" stroke-width="3" />
  </g>
  <g class="defect" id="02">
    <path d="M 369 183 Q 384 250 367 306" fill="none" stroke="red" stroke-width="3" />
  </g>
  <g class="defect" id="03">
    <path d="M 76 212 Q 37 183 86 191" fill="none" stroke="red" stroke-width="3" />
  </g>
</svg>