<svg xmlns="http://www.w3.org/2000/svg" width="512" height="512" viewBox="0 0 512 512">
  <g class="glyph">
    <path d="M 136 453 Q 131 412 126 385 Q 120 358 109 343 Q 97 328 112 330 Q 127 331 137 335 Q 147 340 188 334 Q 229 328 274 322 Q 319 315 334 308 Q 349 301 372 312 Q 394 322 407 333 Q 419 344 403 356 Q 387 367 369 433 Q 415 430 446 428 Q 488 406 492 436 Q 505 446 509 458 Q 512 469 477 464 Q 442 460 370 461 Q 299 462 231 468 Q 163 473 118 479 Q 72 485 58 486 Q 43 487 22 473 Q 0 460 26 461 Q 52 462 136 453 Z M 353 177 Q 385 172 410 169 Q 435 165 449 173 Q 462 181 466 189 Q 469 197 435 197 Q 384 197 359 198 Q 315 199 288 202 Q 319 227 358 248 Q 396 270 427 279 Q 458 288 484 296 Q 510 304 471 307 Q 433 310 406 312 Q 378 313 361 296 Q 344 279 321 256 Q 297 233 267 204 H 254 Q 224 258 174 292 Q 125 326 76 339 Q 27 351 75 330 Q 122 308 160 278 Q 197 247 217 208 Q 138 217 116 223 Q 93 229 70 214 Q 48 199 71 200 Q 95 202 161 197 Q 156 165 151 147 Q 161 109 138 117 Q 131 104 143 104 Q 154 104 169 108 Q 184 111 245 100 Q 245 72 244 51 Q 242 29 233 15 Q 224 0 242 3 Q 261 7 276 14 Q 292 20 284 31 Q 276 41 272 97 Q 315 91 327 85 Q 340 79 355 83 Q 369 86 384 96 Q 399 106 384 118 Q 369 129 353 177 Z M 283 437 342 433 Q 349 396 353 365 Q 358 333 340 333 Q 324 333 295 340 Q 310 358 305 372 Q 299 385 283 437 Z M 326 179 Q 333 143 335 126 Q 338 109 324 109 Q 310 109 272 116 Q 270 143 258 188 Z M 220 444 263 440 Q 270 412 272 389 Q 274 365 270 342 L 211 349 Q 222 367 225 384 Q 229 401 220 444 Z M 156 449 204 444 Q 204 417 202 395 Q 199 374 197 351 L 150 356 Q 152 381 156 449 Z M 242 118 Q 204 122 177 125 Q 179 147 184 195 Q 206 193 227 190 Q 238 163 242 118 Z" fill="black" />
  </g>
  <g class="defect" id="01">
    <path d="M 446 428 Q 488 406 492 436" fill="none" stroke="red" stroke-width="3" />
  </g>
  <g class="defect" id="02">
    <path d="M 435 197 Q 384 197 359 198" fill="none" stroke="red" stroke-width="3" />
  </g>
  <g class="defect" id="03">
    <path d="M 151 147 Q 161 109 138 117" fill="none" stroke="red" stroke-width="3" />
  </g>
</svg>