<svg xmlns="http://www.w3.org/2000/svg" width="512" height="512" viewBox="0 0 512 512">
  <g class="glyph">
    <path d="M 103 224 Q 140 214 146 209 Q 152 204 166 208 Q 179 212 187 220 Q 195 228 186 239 Q 177 249 167 284 Q 189 300 172 302 Q 154 304 101 317 Q 101 343 97 349 Q 93 354 88 336 Q 84 319 82 307 Q 80 296 76 280 Q 64 296 49 315 Q 35 333 17 343 Q 0 354 12 339 Q 25 325 43 291 Q 47 243 68 247 Q 68 241 64 233 Q 60 226 80 224 Q 90 204 99 178 Q 107 152 111 127 H 86 Q 74 127 61 122 Q 47 117 76 112 Q 105 107 137 99 Q 169 90 183 87 Q 197 84 208 92 Q 218 99 190 108 Q 162 117 134 123 Q 144 134 141 143 Q 138 152 127 174 Q 104 195 103 224 Z M 362 134 Q 372 132 391 126 Q 409 121 418 129 Q 428 136 411 140 Q 395 144 362 146 L 360 175 Q 385 169 397 162 Q 409 156 433 168 Q 456 179 447 187 Q 438 195 433 219 Q 428 243 420 258 Q 413 273 407 260 Q 401 247 403 241 Q 405 234 410 216 Q 415 197 415 191 Q 415 183 408 180 Q 401 177 360 187 V 206 Q 370 204 376 202 Q 382 199 390 204 Q 397 208 391 213 Q 385 218 360 224 V 243 Q 366 241 377 239 Q 389 236 394 241 Q 399 245 389 249 Q 378 253 360 257 Q 354 292 349 287 Q 343 282 341 259 Q 323 261 315 258 Q 306 255 314 252 Q 321 249 341 245 V 228 Q 323 230 317 227 Q 310 224 316 221 Q 321 218 341 212 V 189 L 296 197 Q 300 271 297 283 Q 294 294 284 283 Q 273 271 276 255 Q 278 239 275 220 Q 271 202 265 193 Q 259 185 268 186 Q 278 187 285 188 Q 292 189 341 177 V 150 Q 315 154 305 156 Q 296 158 283 152 Q 269 146 282 146 Q 294 146 341 136 Q 341 119 335 112 Q 329 105 349 109 Q 381 95 366 119 Q 364 125 362 134 Z M 407 306 Q 409 356 409 368 Q 409 378 411 411 Q 413 444 398 466 Q 382 487 376 473 Q 370 459 359 449 Q 348 440 333 432 Q 319 424 346 430 Q 374 436 378 423 Q 382 409 382 397 V 352 Q 382 333 380 310 Q 335 319 316 323 Q 296 327 281 329 Q 265 331 250 321 Q 234 310 255 309 Q 276 308 302 305 Q 329 302 378 296 Q 376 280 372 272 Q 368 265 387 268 Q 405 271 407 276 Q 409 280 407 290 Q 438 286 459 281 Q 479 276 496 287 Q 512 298 485 299 Q 459 300 407 306 Z M 368 51 Q 374 25 369 12 Q 364 0 390 9 Q 415 19 409 26 Q 403 33 397 49 L 411 47 Q 452 41 465 53 Q 477 66 456 66 Q 438 66 389 70 Q 378 88 370 102 Q 362 115 362 103 Q 362 88 366 70 L 306 78 Q 308 119 303 118 Q 298 117 296 110 Q 294 103 288 82 Q 257 88 248 90 Q 239 93 223 83 Q 208 74 223 73 Q 239 72 280 66 Q 276 49 266 40 Q 257 31 281 33 Q 304 35 304 41 V 62 Q 333 56 368 51 Z M 197 339 Q 216 315 230 290 Q 245 265 248 271 Q 251 278 240 300 Q 228 323 216 358 Q 204 393 199 405 Q 195 417 186 409 Q 177 401 168 386 Q 158 370 170 366 Q 181 362 197 339 Z M 150 290 Q 152 245 150 234 Q 148 224 97 241 Q 99 276 101 302 Q 127 296 150 290 Z M 288 370 Q 265 341 270 338 Q 276 335 300 344 Q 325 354 319 376 Q 313 399 288 370 Z M 239 181 Q 224 167 214 152 Q 204 138 230 142 Q 257 146 255 170 Q 253 193 239 181 Z M 483 130 Q 483 146 452 130 Q 422 111 431 106 Q 440 101 462 106 Q 483 111 483 130 Z M 216 232 Q 195 218 191 208 Q 187 197 212 202 Q 236 206 237 226 Q 239 247 216 232 Z" fill="black" />
  </g>
  <g class="defect" id="01">
    <path d="M 349 109 Q 381 95 366 119" fill="none" stroke="red" stroke-width="3" />
  </g>
  <g class="defect" id="02">
    <path d="M 127 174 Q 104 195 103 224" fill="none" stroke="red" stroke-width="3" />
  </g>
  <g class="defect" id="03">
    <path d="M 43 291 Q 47 243 68 247" fill="none" stroke="red" stroke-width="3" />
  </g>
</svg>