<svg xmlns="http://www.w3.org/2000/svg" width="512" height="512" viewBox="0 0 512 512">
  <g class="glyph">
    <path d="M 305 228 V 157 Q 260 167 237 160 Q 214 152 243 146 Q 273 140 305 129 Q 305 89 304 62 Q 303 36 293 18 Q 284 0 295 1 Q 307 2 328 13 Q 349 23 341 37 Q 332 51 328 123 Q 358 114 384 107 Q 410 99 421 110 Q 432 121 401 130 Q 370 140 328 152 Q 326 188 326 222 Q 349 212 356 208 Q 364 205 381 215 Q 398 224 387 235 Q 377 245 368 278 Q 360 311 341 353 Q 364 381 396 399 Q 427 417 470 425 Q 512 434 494 439 Q 457 463 440 450 Q 404 455 383 436 Q 362 417 324 374 Q 296 404 268 416 Q 239 427 213 429 Q 186 432 213 421 Q 239 410 266 394 Q 292 377 307 351 Q 262 296 249 287 Q 235 277 250 277 Q 267 277 282 294 Q 298 311 319 334 Q 332 305 340 275 Q 347 245 344 240 Q 341 235 315 243 Q 290 252 275 257 Q 260 262 244 254 Q 228 245 250 242 Q 271 239 305 228 Z M 91 97 133 70 Q 154 55 160 37 Q 165 19 187 33 Q 209 47 216 53 Q 222 59 206 62 Q 190 66 175 72 Q 159 78 148 84 Q 138 89 150 95 Q 163 102 160 111 Q 168 104 154 157 Q 193 142 201 141 Q 209 140 214 147 Q 218 154 190 163 Q 163 171 152 176 V 224 Q 184 226 199 238 Q 214 250 211 262 Q 207 275 195 270 Q 182 264 152 237 Q 152 332 150 376 Q 148 419 144 436 Q 140 453 129 432 Q 118 410 123 382 Q 108 353 129 313 Q 131 273 131 241 Q 83 303 61 325 Q 40 347 20 361 Q 0 374 17 354 Q 34 334 50 314 Q 66 294 85 264 Q 104 235 125 186 Q 80 203 71 207 Q 61 212 48 207 Q 34 203 21 194 Q 8 184 31 183 Q 53 182 75 178 Q 97 173 133 163 Q 133 118 125 95 Q 70 110 91 97 Z" fill="black" />
  </g>
  <g class="defect" id="01">
    <path d="M 123 382 Q 108 353 129 313" fill="none" stroke="red" stroke-width="3" />
  </g>
  <g class="defect" id="02">
    <path d="M 160 111 Q 168 104 154 157" fill="none" stroke="red" stroke-width="3" />
  </g>
  <g class="defect" id="03">
    <path d="M 494 439 Q 457 463 440 450" fill="none" stroke="red" stroke-width="3" />
  </g>
</svg>