<svg xmlns="http://www.w3.org/2000/svg" width="512" height="512" viewBox="0 0 512 512">
  <g class="glyph">
    <path d="M 369 177 Q 408 159 420 158 Q 433 157 439 164 Q 446 172 434 179 Q 422 185 375 205 Q 399 276 422 305 Q 444 333 459 346 Q 474 360 480 351 Q 486 342 498 300 Q 510 258 508 301 Q 505 344 508 367 Q 492 391 511 405 Q 512 419 487 409 Q 461 399 441 377 Q 422 355 407 334 Q 393 313 381 285 Q 369 256 353 212 Q 324 218 305 215 Q 285 212 302 206 Q 320 201 344 185 Q 338 157 334 140 Q 331 124 320 95 Q 302 102 278 113 Q 276 161 275 230 Q 274 298 271 320 Q 318 289 329 284 Q 340 278 327 294 Q 313 309 290 333 Q 267 358 254 380 Q 241 402 234 390 Q 227 377 225 363 Q 223 349 233 338 Q 243 327 247 305 Q 252 282 253 259 Q 254 236 255 182 Q 256 128 244 115 Q 232 102 252 102 Q 274 102 288 93 Q 302 84 330 62 Q 358 40 355 28 Q 353 15 380 25 Q 406 35 417 42 Q 428 49 398 58 Q 369 68 338 86 Q 364 95 359 105 Q 353 115 369 177 Z M 174 150 Q 210 141 217 145 Q 225 148 224 152 Q 223 157 172 170 Q 170 201 170 223 Q 212 223 218 235 Q 225 247 218 258 Q 212 269 170 236 Q 170 298 169 335 Q 168 373 167 391 Q 166 408 159 425 Q 152 441 142 423 Q 132 404 136 388 Q 139 373 142 348 Q 146 322 150 227 Q 110 282 79 312 Q 49 342 28 353 Q 7 364 32 337 Q 57 309 89 268 Q 121 227 141 181 Q 97 201 75 209 Q 53 216 43 213 Q 33 210 17 198 Q 0 185 20 185 Q 42 185 68 180 Q 95 174 152 157 V 113 Q 152 104 150 86 Q 97 102 119 87 Q 141 73 169 51 Q 196 29 196 15 Q 196 0 211 7 Q 225 13 239 25 Q 254 38 234 44 Q 214 51 172 73 Q 190 90 183 97 Q 177 104 174 150 Z M 331 346 Q 353 344 367 350 Q 382 355 383 375 Q 384 395 366 387 Q 349 380 329 363 Q 309 346 331 346 Z" fill="black" />
  </g>
  <g class="defect" id="01">
    <path d="M 508 367 Q 492 391 511 405" fill="none" stroke="red" stroke-width="3" />
  </g>
</svg>