<svg xmlns="http://www.w3.org/2000/svg" width="512" height="512" viewBox="0 0 512 512">
  <g class="glyph">
    <path d="M 394 174 Q 373 157 367 148 Q 362 139 388 144 Q 414 148 430 159 Q 447 170 450 184 Q 453 198 444 205 Q 436 211 410 185 Q 373 192 338 203 Q 357 222 354 232 Q 351 242 349 277 Q 407 264 420 271 Q 434 279 427 283 Q 420 288 400 293 Q 379 298 349 303 Q 346 333 346 355 Q 397 351 411 349 Q 425 346 446 345 Q 466 344 481 349 Q 497 353 504 366 Q 512 379 466 377 Q 420 375 388 377 Q 355 379 309 386 Q 264 392 242 397 Q 220 401 207 395 Q 177 390 185 382 Q 176 375 207 374 Q 237 373 264 368 Q 290 364 320 357 V 307 Q 288 314 264 306 Q 240 298 255 295 Q 270 292 320 281 Q 320 255 319 239 Q 318 222 312 209 Q 264 220 248 229 Q 233 237 229 229 Q 224 220 230 209 Q 235 198 251 188 Q 266 179 280 161 Q 294 144 300 126 Q 305 109 305 89 Q 270 87 256 81 Q 242 74 270 70 Q 298 65 320 61 Q 342 57 379 49 Q 416 41 429 41 Q 442 41 452 50 Q 462 59 441 64 Q 420 70 399 73 Q 377 76 331 87 Q 351 107 344 113 Q 338 120 325 138 Q 312 157 301 172 Q 290 187 302 186 Q 314 185 394 174 Z M 163 142 Q 207 126 219 134 Q 231 142 221 146 Q 211 150 163 161 Q 161 185 161 222 Q 194 220 207 231 Q 220 242 215 254 Q 209 266 196 260 Q 183 255 161 235 Q 161 346 159 386 Q 157 425 151 441 Q 146 458 134 435 Q 122 412 126 394 Q 131 377 134 343 Q 137 309 139 231 Q 85 316 42 346 Q 0 377 34 338 Q 68 298 98 245 Q 129 192 135 168 Q 85 183 68 193 Q 50 203 36 194 Q 22 185 14 176 Q 7 168 38 167 Q 70 166 139 146 Q 139 96 131 81 Q 109 89 96 92 Q 83 94 105 78 Q 126 63 147 46 Q 168 28 168 15 Q 168 0 182 4 Q 196 9 216 23 Q 235 37 218 41 Q 200 46 148 70 Q 176 89 170 103 Q 163 118 163 142 Z" fill="black" />
  </g>
  <g class="defect" id="01">
    <path d="M 207 395 Q 177 390 185 382" fill="none" stroke="red" stroke-width="3" />
  </g>
</svg>