<svg xmlns="http://www.w3.org/2000/svg" width="512" height="512" viewBox="0 0 512 512">
  <g class="glyph">
    <path d="M 358 97 Q 377 110 374 118 Q 371 126 370 157 Q 369 188 357 178 Q 346 169 347 156 Q 348 143 347 125 Q 346 107 341 101 Q 308 105 268 107 Q 259 217 223 299 Q 261 299 350 289 V 257 Q 316 259 299 253 Q 268 276 254 280 Q 240 284 251 275 Q 261 265 274 248 Q 287 230 287 219 Q 287 206 297 210 Q 308 213 317 220 Q 327 228 320 232 Q 314 236 306 242 Q 324 240 350 236 Q 348 209 341 198 Q 335 188 340 186 Q 346 185 366 193 Q 386 200 382 206 Q 379 213 377 230 Q 398 225 415 222 Q 432 219 440 228 Q 449 236 433 241 Q 417 247 377 253 V 284 Q 424 276 445 272 Q 466 268 483 274 Q 499 280 506 290 Q 512 299 489 297 Q 466 295 440 297 Q 415 299 377 306 Q 377 365 376 386 Q 375 407 373 427 Q 371 447 366 452 Q 360 457 355 440 Q 350 424 350 386 V 308 Q 289 316 272 319 Q 255 322 240 317 Q 225 312 219 308 Q 190 358 173 371 Q 156 383 161 373 Q 166 362 181 338 Q 196 314 211 267 Q 225 219 233 177 Q 240 135 242 97 Q 244 59 236 47 Q 228 36 241 37 Q 255 38 264 40 Q 274 42 322 31 Q 371 19 382 12 Q 394 4 403 5 Q 413 6 432 16 Q 451 25 451 32 Q 451 36 435 44 Q 419 53 407 70 Q 421 88 410 90 Q 398 91 358 97 Z M 158 131 Q 175 126 188 122 Q 200 118 211 125 Q 221 133 203 139 Q 185 145 158 152 L 156 200 Q 185 202 194 210 Q 202 217 200 230 Q 198 242 185 236 Q 173 230 156 215 Q 156 284 154 319 Q 152 354 151 378 Q 150 402 144 415 Q 139 428 134 424 Q 129 419 122 406 Q 116 392 121 372 Q 126 352 129 323 Q 131 295 135 192 Q 88 265 64 291 Q 40 316 20 330 Q 0 343 14 326 Q 27 308 43 289 Q 59 270 82 232 Q 105 194 118 164 Q 86 177 67 183 Q 48 190 31 178 Q 13 166 22 164 Q 32 162 51 160 Q 70 158 137 137 Q 137 88 131 78 Q 107 88 99 90 Q 91 91 122 66 Q 154 42 160 28 Q 166 15 169 7 Q 171 0 186 6 Q 202 13 214 20 Q 225 27 215 34 Q 204 40 186 48 Q 169 57 150 67 Q 171 86 165 93 Q 160 99 158 131 Z M 268 95 Q 316 88 383 72 Q 376 53 390 44 Q 390 36 383 36 Q 377 36 353 40 Q 329 44 270 55 Q 270 63 268 95 Z M 424 95 Q 424 84 440 93 Q 459 99 468 105 Q 476 112 461 115 Q 447 118 432 126 Q 417 135 398 140 Q 379 145 390 136 Q 400 126 412 115 Q 424 103 424 95 Z M 455 188 Q 455 198 445 196 Q 434 194 407 176 Q 379 158 388 156 Q 396 154 417 156 Q 438 158 447 166 Q 455 175 455 188 Z M 333 166 Q 316 185 309 198 Q 301 211 287 195 Q 272 179 283 178 Q 295 177 308 171 Q 320 164 336 155 Q 352 145 333 166 Z M 303 124 Q 318 124 324 132 Q 331 139 329 146 Q 327 154 319 152 Q 312 150 301 142 Q 291 135 290 129 Q 289 122 303 124 Z" fill="black" />
  </g>
  <g class="defect" id="01">
    <path d="M 383 72 Q 376 53 390 44" fill="none" stroke="red" stroke-width="3" />
  </g>
</svg>