<svg xmlns="http://www.w3.org/2000/svg" width="512" height="512" viewBox="0 0 512 512">
  <g class="glyph">
    <path d="M 185 312 286 298 Q 274 284 263 269 Q 252 255 280 263 Q 308 272 331 288 Q 353 305 352 325 Q 351 344 340 345 Q 329 346 296 310 Q 260 320 216 327 Q 245 341 242 353 Q 238 365 236 382 L 293 375 Q 312 373 329 383 Q 346 394 317 398 Q 288 401 236 411 L 233 464 Q 325 454 350 451 Q 375 447 399 451 Q 423 454 440 474 Q 457 493 400 488 Q 344 483 281 487 Q 219 490 155 498 Q 91 505 66 508 Q 41 512 26 505 Q 23 478 6 492 Q 0 486 24 486 Q 48 486 87 482 Q 125 478 204 466 V 416 Q 180 418 156 423 Q 132 428 109 416 Q 87 404 113 401 Q 139 399 204 387 Q 207 353 200 332 Q 137 344 114 359 Q 91 375 84 355 Q 77 334 91 329 Q 106 325 131 306 Q 156 288 175 245 Q 159 250 142 249 Q 125 248 111 239 Q 96 231 119 230 Q 142 228 204 215 Q 267 202 293 197 Q 308 192 335 203 Q 351 214 297 226 Q 243 238 207 243 Q 224 252 213 260 Q 202 267 189 281 Q 175 296 163 306 Q 151 317 185 312 Z M 87 115 Q 79 151 59 177 Q 38 202 30 184 Q 22 166 31 154 Q 41 142 50 120 Q 60 99 65 82 Q 70 65 87 99 Q 149 96 215 88 Q 281 79 312 75 Q 344 70 359 64 Q 375 58 400 70 Q 425 82 445 102 Q 464 123 441 124 Q 418 125 394 136 Q 370 147 361 153 Q 351 159 368 127 Q 385 96 368 90 Q 351 84 282 95 Q 214 106 163 113 Q 113 120 87 115 Z M 209 53 Q 183 26 172 13 Q 161 0 200 6 Q 238 12 246 32 Q 255 53 246 66 Q 238 79 209 53 Z M 154 139 Q 171 132 160 129 Q 166 125 186 137 Q 207 149 192 159 Q 178 168 150 186 Q 123 204 101 212 Q 79 219 95 206 Q 111 192 132 169 Q 154 147 154 139 Z M 245 127 Q 245 123 290 132 Q 334 142 333 172 Q 332 202 288 168 Q 245 132 245 127 Z" fill="black" />
  </g>
  <g class="defect" id="01">
    <path d="M 154 139 Q 171 132 160 129" fill="none" stroke="red" stroke-width="3" />
  </g>
  <g class="defect" id="02">
    <path d="M 293 197 Q 308 192 335 203" fill="none" stroke="red" stroke-width="3" />
  </g>
  <g class="defect" id="03">
    <path d="M 26 505 Q 23 478 6 492" fill="none" stroke="red" stroke-width="3" />
  </g>
</svg>