<svg xmlns="http://www.w3.org/2000/svg" width="512" height="512" viewBox="0 0 512 512">
  <g class="glyph">
    <path d="M 216 181 Q 184 233 150 268 Q 117 302 76 328 Q 35 354 17 359 Q 0 363 42 331 Q 84 298 124 256 Q 164 214 177 187 Q 190 160 190 145 Q 190 130 216 143 Q 242 156 235 162 Q 229 169 225 171 Q 268 201 306 223 Q 343 244 373 258 Q 402 272 429 281 Q 456 289 484 299 Q 512 309 463 312 Q 415 315 401 314 Q 387 313 366 300 Q 346 287 313 259 Q 281 231 216 181 Z M 259 361 Q 259 352 218 361 Q 177 369 158 374 Q 138 378 129 375 Q 119 372 106 364 Q 93 356 124 355 Q 156 354 203 342 Q 251 331 259 325 Q 268 320 281 324 Q 274 328 306 338 Q 318 348 308 358 Q 284 367 293 380 Q 287 393 272 435 Q 257 477 245 491 Q 233 506 231 483 Q 229 460 240 434 Q 251 408 255 389 Q 259 369 259 361 Z M 119 91 Q 86 130 73 140 Q 60 151 50 154 Q 39 158 54 140 Q 69 123 84 95 Q 99 67 105 51 Q 110 35 108 24 Q 106 13 132 22 Q 158 30 150 39 Q 143 48 125 76 Q 147 69 175 66 Q 203 63 215 65 Q 227 67 216 73 Q 205 80 187 84 Q 169 89 119 91 Z M 289 71 Q 268 97 248 114 Q 229 132 223 133 Q 216 134 234 109 Q 253 84 268 54 Q 283 24 281 12 Q 279 0 294 4 Q 309 9 318 16 Q 326 24 319 31 Q 311 39 298 56 Q 354 43 372 42 Q 389 41 399 48 Q 408 54 393 58 Q 378 63 354 67 Q 331 71 289 71 Z M 190 274 Q 175 248 202 257 Q 229 266 235 280 Q 242 294 237 308 Q 231 322 219 310 Q 207 298 190 274 Z M 156 171 Q 145 171 130 153 Q 114 136 114 132 Q 114 125 138 130 Q 164 132 167 144 Q 171 156 169 163 Q 166 171 156 171 Z M 318 117 Q 348 119 353 133 Q 359 147 352 152 Q 346 158 332 151 Q 318 145 307 134 Q 296 123 293 118 Q 289 112 318 117 Z" fill="black" />
  </g>
  <g class="defect" id="01">
    <path d="M 281 324 Q 274 328 306 338" fill="none" stroke="red" stroke-width="3" />
  </g>
  <g class="defect" id="02">
    <path d="M 308 358 Q 284 367 293 380" fill="none" stroke="red" stroke-width="3" />
  </g>
</svg>