<svg xmlns="http://www.w3.org/2000/svg" width="512" height="512" viewBox="0 0 512 512">
  <g class="glyph">
    <path d="M 380 316 Q 406 340 386 340 Q 366 340 298 346 V 446 Q 298 477 291 494 Q 285 512 280 502 Q 276 492 274 466 Q 271 439 271 351 Q 238 355 214 362 Q 207 386 201 373 Q 194 360 190 341 Q 185 322 180 302 Q 174 282 164 270 Q 154 258 170 258 H 194 Q 203 258 271 247 Q 271 212 270 194 Q 269 177 263 163 Q 256 150 267 151 Q 278 152 296 159 Q 313 166 307 181 Q 300 196 298 243 Q 344 234 355 227 Q 366 221 381 226 Q 395 232 412 242 Q 428 252 416 260 Q 404 269 380 316 Z M 124 309 Q 124 331 122 396 Q 121 461 111 483 Q 102 505 93 482 Q 84 459 88 445 Q 93 430 96 413 Q 99 395 100 350 Q 102 305 93 282 Q 73 305 54 317 Q 35 329 18 335 Q 0 342 19 327 Q 38 311 61 285 Q 84 258 103 223 Q 121 188 119 172 Q 117 157 128 159 Q 139 161 154 174 Q 170 188 160 195 Q 150 203 135 225 Q 119 247 102 269 Q 124 285 124 309 Z M 117 86 Q 86 124 72 137 Q 57 150 40 160 Q 22 170 41 148 Q 60 126 82 88 Q 122 67 104 38 V 15 Q 104 7 132 15 Q 161 24 154 33 Q 148 42 121 71 Q 148 64 177 57 Q 205 51 216 56 Q 227 62 217 68 Q 207 75 188 79 Q 168 84 117 86 Z M 373 40 Q 393 40 402 44 Q 410 49 399 55 Q 388 62 361 66 Q 333 71 287 71 Q 271 95 252 115 Q 232 135 216 143 Q 201 152 227 119 Q 254 86 264 62 Q 274 38 275 30 Q 276 22 274 11 Q 271 0 278 0 Q 287 0 302 6 Q 318 11 322 15 Q 327 20 298 51 Q 355 40 373 40 Z M 212 344 Q 245 335 271 331 V 260 Q 223 269 203 274 Q 210 313 212 344 Z M 358 318 Q 362 289 365 270 Q 369 252 354 253 Q 340 254 298 258 V 327 Q 333 320 358 318 Z M 313 102 Q 351 108 356 124 Q 362 139 355 145 Q 349 150 335 143 Q 322 137 309 127 Q 296 117 286 106 Q 276 95 313 102 Z M 115 117 Q 115 108 139 119 Q 166 128 171 138 Q 177 148 174 156 Q 172 163 161 162 Q 150 161 132 142 Q 115 124 115 117 Z" fill="black" />
  </g>
  <g class="defect" id="01">
    <path d="M 82 88 Q 122 67 104 38" fill="none" stroke="red" stroke-width="3" />
  </g>
</svg>