<svg xmlns="http://www.w3.org/2000/svg" width="512" height="512" viewBox="0 0 512 512">
  <g class="glyph">
    <path d="M 382 211 Q 355 211 322 219 Q 303 257 288 280 L 332 274 Q 332 242 326 233 Q 320 224 336 226 Q 353 228 362 232 Q 370 236 367 245 Q 364 253 362 267 Q 418 263 444 259 Q 470 255 485 261 Q 499 267 506 279 Q 512 290 484 289 Q 456 288 423 289 Q 391 290 362 293 Q 362 426 357 456 Q 353 485 343 490 Q 332 495 332 295 Q 247 305 224 308 Q 201 311 191 307 Q 182 303 174 296 Q 167 288 188 289 Q 209 290 272 282 Q 284 253 297 222 L 270 226 Q 261 245 253 215 Q 245 186 240 163 Q 236 140 227 124 Q 217 109 230 110 Q 242 111 259 111 Q 309 31 304 16 Q 299 0 317 6 Q 334 13 346 20 Q 357 27 347 34 Q 347 53 320 60 Q 303 77 274 109 Q 380 82 394 75 Q 408 69 424 75 Q 441 82 452 90 Q 464 98 453 109 Q 424 107 435 146 Q 426 173 419 188 Q 412 203 408 213 Q 403 224 396 228 Q 389 232 382 211 Z M 155 192 V 230 Q 188 234 195 248 Q 203 261 199 270 Q 194 278 179 266 Q 163 255 155 245 Q 157 428 147 445 Q 138 462 130 438 Q 121 414 121 401 Q 121 389 125 378 Q 130 368 134 245 Q 90 313 53 342 Q 17 370 8 370 Q 0 370 20 353 Q 40 336 68 300 Q 96 263 127 196 Q 63 217 54 222 Q 46 226 24 212 Q 2 199 24 197 Q 46 196 134 176 Q 136 63 133 46 Q 130 29 125 15 Q 121 0 142 10 Q 163 21 168 28 Q 173 36 166 53 Q 159 71 155 171 Q 201 161 210 170 Q 238 197 155 192 Z M 339 140 Q 372 134 377 139 Q 382 144 377 150 Q 372 157 339 165 Q 332 186 326 201 Q 362 192 382 196 Q 395 173 400 142 Q 405 111 402 104 Q 399 98 385 98 Q 372 98 339 109 Q 347 113 346 119 Q 345 125 339 140 Z M 270 209 303 205 Q 309 192 313 167 Q 297 169 285 162 Q 274 155 286 153 L 316 144 Q 320 119 316 115 Q 282 121 259 125 Z M 211 59 Q 224 63 239 74 Q 255 86 248 89 Q 240 92 226 100 Q 211 109 197 117 Q 184 125 170 131 Q 157 136 182 108 Q 207 79 204 66 Q 201 52 211 59 Z M 67 88 Q 75 88 90 94 Q 104 100 109 113 Q 113 125 108 136 Q 102 146 92 136 Q 82 125 70 106 Q 59 86 67 88 Z" fill="black" />
  </g>
  <g class="defect" id="01">
    <path d="M 210 170 Q 238 197 155 192" fill="none" stroke="red" stroke-width="3" />
  </g>
  <g class="defect" id="02">
    <path d="M 453 109 Q 424 107 435 146" fill="none" stroke="red" stroke-width="3" />
  </g>
  <g class="defect" id="03">
    <path d="M 347 34 Q 347 53 320 60" fill="none" stroke="red" stroke-width="3" />
  </g>
</svg>