<svg xmlns="http://www.w3.org/2000/svg" width="512" height="512" viewBox="0 0 512 512">
  <g class="glyph">
    <path d="M 354 109 Q 348 109 363 119 Q 378 130 373 141 Q 368 153 368 192 Q 368 229 372 316 Q 375 403 368 426 Q 361 449 349 466 Q 336 482 327 470 Q 317 459 300 441 Q 283 424 265 412 Q 248 401 276 405 Q 303 410 315 409 Q 327 408 332 392 Q 338 375 341 313 Q 343 250 339 218 Q 336 185 335 156 Q 334 127 328 119 Q 322 111 301 117 Q 280 123 261 126 Q 241 130 225 118 Q 209 107 228 105 Q 248 104 277 100 Q 306 95 367 83 Q 429 72 447 68 Q 466 65 477 70 Q 491 72 502 83 Q 512 95 493 97 Q 475 100 431 102 Q 387 104 374 107 Q 361 109 354 109 Z M 162 255 Q 155 239 151 225 Q 146 211 173 227 Q 199 243 204 261 Q 209 278 199 292 Q 190 306 169 269 Q 102 292 85 301 Q 67 310 57 319 Q 46 327 41 317 Q 35 308 32 295 Q 30 283 47 270 Q 65 257 120 192 Q 86 199 71 203 Q 56 206 43 212 Q 30 218 23 197 Q 16 176 37 162 Q 77 160 92 94 Q 125 39 120 20 Q 116 0 132 8 Q 148 16 160 28 Q 171 39 161 47 Q 151 56 125 93 Q 100 130 78 156 Q 56 183 66 181 Q 76 178 130 174 Q 164 130 162 114 Q 160 97 169 101 Q 178 104 196 119 Q 213 134 202 141 Q 205 130 158 183 Q 125 218 98 246 Q 72 273 97 270 Q 123 266 162 255 Z M 32 361 Q 65 385 67 408 Q 70 431 60 442 Q 51 454 39 434 Q 28 415 14 376 Q 0 338 32 361 Z M 167 315 Q 190 322 204 338 Q 218 354 212 372 Q 206 389 196 383 Q 185 378 166 342 Q 146 306 167 315 Z M 97 336 Q 114 341 127 356 Q 141 371 144 385 Q 146 398 138 408 Q 130 417 117 396 Q 104 375 94 352 Q 83 329 97 336 Z" fill="black" />
  </g>
  <g class="defect" id="01">
    <path d="M 202 141 Q 205 130 158 183" fill="none" stroke="red" stroke-width="3" />
  </g>
  <g class="defect" id="02">
    <path d="M 37 162 Q 77 160 92 94" fill="none" stroke="red" stroke-width="3" />
  </g>
</svg>