<svg xmlns="http://www.w3.org/2000/svg" width="512" height="512" viewBox="0 0 512 512">
  <g class="glyph">
    <path d="M 489 304 Q 491 304 494 344 Q 496 384 504 403 Q 512 423 505 431 Q 498 439 478 426 Q 457 414 430 391 Q 402 368 376 325 Q 350 281 325 217 Q 302 224 288 227 Q 274 231 263 226 Q 256 224 254 224 V 240 Q 254 283 247 361 Q 258 354 290 334 Q 322 313 329 317 Q 336 320 288 362 Q 240 405 226 422 Q 213 439 202 416 Q 192 393 200 384 Q 208 375 215 354 Q 222 334 225 295 Q 229 256 227 214 Q 226 171 221 152 Q 215 133 208 117 Q 201 101 242 110 Q 293 80 307 63 Q 322 46 325 34 Q 327 23 366 35 Q 405 48 383 55 Q 361 62 309 91 Q 329 103 327 113 Q 325 123 338 185 Q 363 178 384 170 Q 405 162 424 168 Q 454 174 416 187 Q 389 201 350 210 Q 361 256 393 303 Q 425 350 446 363 Q 466 377 471 366 Q 475 354 489 304 Z M 162 114 Q 162 96 183 110 Q 203 123 198 131 Q 192 139 177 154 Q 162 169 135 205 Q 107 240 96 254 Q 85 267 112 257 Q 139 247 168 241 Q 197 235 141 264 Q 85 293 74 305 Q 64 318 48 297 Q 32 277 50 267 Q 69 258 119 185 Q 50 203 38 214 Q 25 224 16 202 Q 7 181 21 176 Q 34 171 50 153 Q 66 135 90 91 Q 114 48 110 24 Q 105 0 134 17 Q 162 34 150 45 Q 137 55 66 174 Q 105 171 128 169 Q 162 130 162 114 Z M 254 215 Q 256 215 258 213 Q 270 210 315 197 Q 309 162 303 143 Q 297 123 295 117 Q 293 110 286 105 Q 265 112 249 119 Q 251 176 254 215 Z M 139 331 Q 174 315 191 310 Q 208 304 181 325 Q 153 345 111 370 Q 69 395 57 407 Q 46 418 23 397 Q 0 375 17 374 Q 34 373 71 359 Q 107 345 139 331 Z" fill="black" />
  </g>
  <g class="defect" id="01">
    <path d="M 424 168 Q 454 174 416 187" fill="none" stroke="red" stroke-width="3" />
  </g>
</svg>