<svg xmlns="http://www.w3.org/2000/svg" width="512" height="512" viewBox="0 0 512 512">
  <g class="glyph">
    <path d="M 207 225 Q 247 212 259 216 Q 271 221 207 247 Q 210 377 203 406 Q 196 435 184 410 Q 172 386 177 363 Q 181 340 183 256 Q 53 302 53 310 Q 40 318 31 310 Q 22 302 11 291 Q 0 280 22 279 Q 44 278 95 265 V 137 Q 95 90 88 53 Q 73 46 64 39 Q 55 31 77 29 Q 99 26 154 18 Q 210 9 233 4 Q 256 0 266 10 Q 276 20 258 26 Q 241 33 194 38 Q 207 51 213 58 Q 218 66 213 83 Q 207 99 207 225 Z M 331 183 Q 316 212 309 175 Q 302 139 296 110 Q 289 82 277 63 Q 265 44 287 47 Q 309 51 360 42 Q 410 33 422 24 Q 433 15 451 24 Q 470 33 483 45 Q 497 57 480 67 Q 463 77 437 148 Q 455 170 435 171 Q 415 172 331 183 Z M 121 128 V 177 L 148 168 Q 161 163 171 172 Q 181 181 166 188 Q 150 194 121 192 V 256 Q 152 245 183 236 V 99 Q 183 53 174 40 Q 141 44 110 49 Q 128 64 126 73 Q 124 82 121 117 Q 153 124 149 107 Q 161 104 169 113 Q 177 121 157 128 Q 137 135 121 128 Z M 320 68 Q 324 110 329 166 Q 371 157 415 152 Q 422 128 425 98 Q 428 68 425 58 Q 422 49 402 53 Q 382 57 320 68 Z M 426 276 Q 399 238 401 232 Q 402 225 446 247 Q 490 269 501 292 Q 512 316 505 342 Q 499 369 477 340 Q 455 311 426 276 Z M 353 234 Q 371 245 358 255 Q 344 265 332 280 Q 320 296 298 317 Q 276 338 256 351 Q 236 364 233 361 Q 230 358 246 342 Q 263 327 291 286 Q 320 245 314 228 Q 309 212 322 216 Q 335 221 353 234 Z" fill="black" />
  </g>
  <g class="defect" id="01">
    <path d="M 121 117 Q 153 124 149 107" fill="none" stroke="red" stroke-width="3" />
  </g>
  <g class="defect" id="02">
    <path d="M 183 256 Q 53 302 53 310" fill="none" stroke="red" stroke-width="3" />
  </g>
</svg>