<svg xmlns="http://www.w3.org/2000/svg" width="512" height="512" viewBox="0 0 512 512">
  <g class="glyph">
    <path d="M 432 206 Q 462 234 425 234 Q 390 234 286 241 Q 281 273 272 256 Q 263 239 261 210 Q 258 181 254 147 Q 249 112 237 92 Q 226 72 257 80 Q 288 87 342 77 Q 395 67 409 55 Q 423 42 461 65 Q 500 87 477 102 Q 455 117 432 206 Z M 189 268 Q 239 266 178 291 Q 117 316 94 326 Q 72 336 57 345 Q 42 355 34 333 Q 40 311 45 301 Q 65 291 127 196 Q 57 206 41 216 Q 25 226 19 205 Q 12 184 22 179 Q 32 174 50 157 Q 67 139 89 87 Q 112 35 107 20 Q 102 5 106 2 Q 109 0 127 7 Q 144 15 154 24 Q 164 32 155 41 Q 147 50 137 66 Q 127 82 109 107 Q 92 132 75 158 Q 57 184 65 184 Q 72 184 139 181 Q 176 127 173 103 Q 169 80 198 98 Q 226 117 219 128 Q 211 139 198 150 Q 184 162 154 201 Q 124 241 102 270 Q 80 298 108 291 Q 137 283 189 268 Z M 403 209 Q 410 169 413 139 Q 415 109 414 96 Q 413 82 391 89 Q 370 97 281 104 Q 286 191 288 219 Q 341 214 403 209 Z M 405 350 Q 365 308 373 304 Q 380 301 429 323 Q 477 345 495 374 Q 512 403 507 431 Q 502 460 473 426 Q 445 393 405 350 Z M 321 313 Q 341 323 328 334 Q 316 345 280 386 Q 244 427 216 442 Q 189 457 171 462 Q 154 467 184 442 Q 214 418 249 373 Q 283 328 277 313 Q 271 298 287 301 Q 303 303 321 313 Z M 17 413 Q 37 413 80 395 Q 122 378 142 370 Q 162 363 200 345 Q 239 328 198 358 Q 157 388 118 411 Q 80 435 68 452 Q 57 470 29 441 Q 0 413 17 413 Z" fill="black" />
  </g>
  <g class="defect" id="01">
    <path d="M 34 333 Q 40 311 45 301" fill="none" stroke="red" stroke-width="3" />
  </g>
</svg>