<svg xmlns="http://www.w3.org/2000/svg" width="512" height="512" viewBox="0 0 512 512">
  <g class="glyph">
    <path d="M 174 181 Q 181 181 194 189 Q 208 198 202 205 Q 195 212 190 222 Q 185 232 177 248 Q 170 263 155 276 L 151 278 Q 170 276 193 272 Q 240 263 270 257 Q 300 251 322 248 Q 344 244 356 256 Q 368 268 346 270 Q 325 272 289 278 Q 306 293 302 306 Q 297 319 297 378 Q 361 374 394 370 Q 427 365 440 379 Q 453 393 451 400 Q 450 408 431 404 Q 412 399 376 399 Q 340 399 297 402 Q 297 463 293 485 Q 289 508 283 510 Q 276 512 274 489 Q 272 465 272 404 Q 174 412 138 417 Q 102 423 85 427 Q 68 431 57 429 Q 47 427 31 417 Q 15 408 42 408 Q 70 408 144 399 V 338 Q 144 317 140 297 Q 123 295 114 289 Q 104 283 125 280 Q 132 280 138 280 Q 136 278 134 276 Q 130 263 116 250 Q 102 236 115 240 Q 127 244 137 245 Q 147 246 152 240 Q 157 234 163 219 Q 168 204 161 200 L 149 185 Q 145 208 103 228 Q 66 233 52 258 Q 25 268 38 257 Q 51 246 65 236 Q 79 225 97 207 Q 115 189 123 168 Q 87 178 66 183 Q 45 187 22 175 Q 0 164 34 163 Q 68 161 147 147 V 130 Q 132 132 120 133 Q 108 134 97 126 Q 85 119 103 116 Q 121 113 147 106 V 83 Q 121 87 106 87 Q 93 87 84 82 Q 74 76 96 73 Q 117 70 147 62 Q 144 34 135 20 Q 125 6 141 10 Q 157 13 169 16 Q 181 19 176 25 Q 172 32 170 57 Q 187 53 201 51 Q 215 49 223 57 Q 232 66 212 70 Q 193 74 170 79 L 168 102 Q 208 93 210 103 Q 212 113 168 125 L 166 144 Q 185 140 195 138 Q 206 136 215 141 Q 223 147 206 152 Q 189 157 157 161 Q 161 164 153 178 Q 168 181 174 181 Z M 283 98 Q 334 83 353 75 Q 372 68 387 78 Q 402 87 385 92 Q 368 98 329 104 Q 344 119 340 129 Q 336 138 332 151 Q 329 164 321 189 Q 353 208 376 216 Q 399 223 432 234 Q 465 244 450 246 Q 436 249 404 251 Q 372 253 360 246 Q 348 240 308 206 Q 278 234 251 244 Q 223 255 212 255 Q 202 255 216 248 Q 229 240 252 225 Q 274 210 289 189 Q 263 164 245 157 Q 227 151 242 149 Q 257 147 267 151 Q 276 155 297 174 Q 306 159 308 140 Q 310 121 308 108 Q 285 113 274 110 Q 251 138 234 146 Q 217 153 231 138 Q 244 123 261 92 Q 278 62 283 39 Q 287 17 285 8 Q 283 0 294 2 Q 306 4 318 14 Q 329 23 324 30 Q 319 36 314 42 Q 310 49 303 63 Q 295 76 283 98 Z M 225 331 168 340 Q 166 351 166 357 Q 198 353 221 349 Q 244 346 252 353 Q 259 359 233 365 Q 206 372 166 372 V 397 Q 219 389 272 382 V 319 Q 272 291 270 278 Q 229 287 204 291 Q 178 295 161 295 Q 172 306 171 311 Q 170 317 170 323 Q 208 314 226 311 Q 244 308 251 317 Q 257 325 225 331 Z" fill="black" />
  </g>
  <g class="defect" id="01">
    <path d="M 149 185 Q 145 208 103 228" fill="none" stroke="red" stroke-width="3" />
  </g>
  <g class="defect" id="02">
    <path d="M 103 228 Q 66 233 52 258" fill="none" stroke="red" stroke-width="3" />
  </g>
</svg>