<svg xmlns="http://www.w3.org/2000/svg" width="512" height="512" viewBox="0 0 512 512">
  <g class="glyph">
    <path d="M 252 222 Q 252 191 250 162 Q 248 132 234 114 Q 220 97 240 101 Q 260 105 271 98 Q 281 90 310 69 Q 338 48 346 36 Q 355 23 357 12 Q 359 0 379 6 Q 399 13 413 23 Q 428 34 415 40 Q 403 46 386 52 Q 369 59 334 82 Q 363 99 357 108 Q 350 118 361 168 L 392 157 Q 411 151 424 155 Q 436 159 432 165 Q 428 170 417 176 Q 405 183 367 195 Q 371 227 393 273 Q 415 319 440 341 Q 464 363 469 359 Q 474 355 481 329 Q 487 304 491 294 Q 495 283 496 327 Q 497 371 505 390 Q 512 409 504 412 Q 495 415 473 405 Q 451 394 431 377 Q 411 359 386 313 Q 361 266 344 204 Q 321 210 308 212 Q 296 214 282 207 Q 269 199 292 193 Q 315 187 336 176 Q 332 157 327 128 Q 341 110 315 90 Q 298 99 269 111 Q 277 126 274 138 Q 271 151 272 216 Q 273 281 274 298 Q 275 315 289 310 Q 302 304 329 291 Q 357 277 341 293 Q 325 308 317 315 Q 308 321 287 342 Q 266 363 257 375 Q 248 386 238 365 Q 229 344 238 329 Q 248 315 250 283 Q 252 252 252 222 Z M 101 250 Q 81 315 74 346 Q 52 392 26 413 Q 0 434 19 406 Q 38 378 57 330 Q 76 283 81 186 Q 86 88 76 68 Q 65 48 76 50 Q 86 52 99 51 Q 111 50 131 46 Q 151 42 159 38 Q 168 34 180 38 Q 193 42 204 49 Q 214 57 206 70 Q 197 84 194 112 Q 191 141 191 199 Q 191 256 193 311 Q 195 365 182 398 Q 168 430 155 406 Q 143 382 122 365 Q 101 348 119 354 Q 136 359 147 361 Q 157 363 159 348 Q 162 334 164 295 Q 166 256 166 178 Q 166 101 165 81 Q 164 61 158 59 Q 153 57 141 59 L 107 65 Q 105 109 105 153 Q 120 153 133 150 Q 147 147 155 155 Q 164 164 145 168 Q 126 172 105 168 Q 103 216 101 235 Q 115 233 132 229 Q 149 225 156 234 Q 164 243 146 248 Q 128 252 101 250 Z M 338 344 Q 355 348 362 357 Q 369 365 368 382 Q 367 399 359 396 Q 350 392 342 384 Q 334 376 322 358 Q 311 340 317 339 Q 323 338 338 344 Z" fill="black" />
  </g>
  <g class="defect" id="01">
    <path d="M 101 250 Q 81 315 74 346" fill="none" stroke="red" stroke-width="3" />
  </g>
  <g class="defect" id="02">
    <path d="M 327 128 Q 341 110 315 90" fill="none" stroke="red" stroke-width="3" />
  </g>
</svg>