<svg xmlns="http://www.w3.org/2000/svg" width="512" height="512" viewBox="0 0 512 512">
  <g class="glyph">
    <path d="M 351 239 Q 397 234 432 230 Q 450 226 484 241 Q 501 256 494 261 Q 486 267 463 264 Q 440 260 351 263 Q 354 332 357 374 Q 360 417 356 443 Q 351 469 334 487 Q 305 488 309 486 Q 316 479 273 446 Q 245 425 268 430 Q 291 434 304 434 Q 319 434 321 411 Q 323 388 323 358 Q 323 328 321 267 Q 267 271 195 278 Q 191 328 179 369 Q 167 410 141 441 Q 115 473 76 492 Q 37 512 75 478 Q 113 445 137 396 Q 161 347 167 280 Q 80 293 61 297 Q 41 302 21 284 Q 0 267 21 268 Q 41 269 85 266 Q 128 263 167 258 Q 169 180 166 152 Q 163 124 154 112 Q 145 100 156 100 Q 169 100 182 104 Q 191 91 212 59 Q 232 26 229 13 Q 226 0 238 2 Q 249 4 272 16 Q 295 28 272 38 Q 249 48 197 104 Q 293 87 305 78 Q 317 69 346 82 Q 375 95 362 110 Q 349 124 351 239 Z M 321 243 Q 321 180 319 149 Q 317 117 310 111 Q 304 104 278 108 Q 252 113 195 121 V 256 Q 256 249 321 243 Z M 245 200 Q 226 178 217 163 Q 208 148 242 157 Q 276 167 270 194 Q 265 221 245 200 Z M 247 362 Q 228 341 219 327 Q 210 312 244 323 Q 278 334 273 359 Q 269 384 247 362 Z" fill="black" />
  </g>
  <g class="defect" id="01">
    <path d="M 334 487 Q 305 488 309 486" fill="none" stroke="red" stroke-width="3" />
  </g>
  <g class="defect" id="02">
    <path d="M 309 486 Q 316 479 273 446" fill="none" stroke="red" stroke-width="3" />
  </g>
  <g class="defect" id="03">
    <path d="M 432 230 Q 450 226 484 241" fill="none" stroke="red" stroke-width="3" />
  </g>
</svg>