<svg xmlns="http://www.w3.org/2000/svg" width="512" height="512" viewBox="0 0 512 512">
  <g class="glyph">
    <path d="M 276 338 Q 274 379 274 417 Q 348 410 406 402 Q 464 395 486 410 Q 507 424 510 438 Q 512 452 469 443 Q 426 433 302 442 Q 179 450 126 460 Q 74 469 57 472 Q 40 474 20 455 Q 0 436 20 438 Q 40 441 107 435 Q 174 429 245 419 V 343 Q 188 352 168 355 Q 148 357 126 343 Q 105 329 137 326 Q 169 324 245 312 Q 245 257 232 238 Q 219 219 235 220 Q 250 221 269 230 Q 288 238 283 248 Q 279 257 276 307 Q 317 300 342 295 Q 367 291 387 308 Q 407 326 370 327 Q 333 329 276 338 Z M 198 191 Q 203 191 350 174 Q 336 160 321 141 Q 307 121 321 121 Q 338 121 373 141 Q 407 160 414 181 Q 422 202 414 214 Q 407 226 393 214 Q 379 202 364 188 Q 250 214 201 225 Q 152 236 132 246 Q 112 257 107 243 Q 102 229 104 214 Q 105 200 136 188 Q 167 176 196 135 Q 226 93 231 60 Q 179 67 160 65 Q 141 64 124 54 Q 107 43 126 42 Q 145 40 204 33 Q 262 26 307 18 Q 352 10 373 5 Q 393 0 414 15 Q 436 31 397 38 Q 357 45 260 55 Q 288 76 269 95 Q 250 114 236 131 Q 221 148 201 169 Q 181 191 198 191 Z" fill="black" />
  </g>
  <g class="defect" id="01">
    <path d="M 198 191 Q 203 191 350 174" fill="none" stroke="red" stroke-width="3" />
  </g>
</svg>