<svg xmlns="http://www.w3.org/2000/svg" width="512" height="512" viewBox="0 0 512 512">
  <g class="glyph">
    <path d="M 343 174 Q 366 195 361 202 Q 356 210 350 249 Q 345 287 332 326 Q 362 356 394 376 Q 426 396 469 408 Q 512 420 493 425 Q 473 431 436 434 Q 398 437 380 422 Q 362 407 315 347 Q 289 377 262 392 Q 236 407 204 411 Q 171 416 204 400 Q 236 383 257 368 Q 278 353 298 328 Q 259 278 236 266 Q 212 253 223 250 Q 234 246 251 252 Q 268 257 308 300 Q 317 278 321 237 Q 326 195 321 178 Q 304 182 274 180 Q 242 216 225 224 Q 208 231 217 222 Q 227 212 243 185 Q 259 159 273 131 Q 287 103 297 69 Q 306 34 298 17 Q 289 0 302 0 Q 315 0 337 10 Q 360 19 355 30 Q 349 41 334 67 Q 319 94 310 118 Q 300 141 287 161 Q 313 159 359 142 Q 405 126 419 138 Q 433 150 409 157 Q 386 165 343 174 Z M 148 268 Q 165 263 179 261 Q 193 259 199 266 Q 206 272 192 280 Q 178 287 148 296 Q 146 336 146 358 Q 189 345 211 343 Q 234 341 216 350 Q 199 360 162 373 Q 124 386 95 397 Q 66 409 54 418 Q 41 426 30 419 Q 4 411 10 398 Q 0 386 13 386 Q 26 386 37 385 Q 49 383 122 364 V 302 Q 90 313 72 302 Q 54 291 73 288 Q 92 285 122 276 Q 122 255 120 241 Q 118 227 114 219 Q 84 227 67 237 Q 51 246 44 236 Q 36 225 36 216 Q 36 208 58 198 Q 79 189 104 151 Q 129 114 135 90 Q 114 94 100 93 Q 86 92 74 81 Q 62 71 92 67 Q 122 64 152 58 Q 182 51 202 47 Q 223 43 237 54 Q 251 64 221 71 Q 191 77 152 86 Q 174 101 164 110 Q 154 120 138 141 Q 122 163 107 180 Q 92 197 107 194 Q 122 191 186 176 Q 174 148 178 145 Q 182 141 200 152 Q 219 163 222 176 Q 225 189 222 201 Q 219 214 210 212 Q 201 210 191 189 L 135 210 Q 154 223 152 229 Q 150 236 148 268 Z" fill="black" />
  </g>
  <g class="defect" id="01">
    <path d="M 30 419 Q 4 411 10 398" fill="none" stroke="red" stroke-width="3" />
  </g>
</svg>