<svg xmlns="http://www.w3.org/2000/svg" width="512" height="512" viewBox="0 0 512 512">
  <g class="glyph">
    <path d="M 372 203 Q 376 253 391 300 Q 417 272 425 256 Q 432 240 431 229 Q 430 218 444 230 Q 458 242 462 248 Q 467 255 452 270 Q 436 285 402 322 Q 428 382 453 408 Q 477 434 481 429 Q 484 423 485 420 Q 486 417 496 392 Q 506 367 506 382 Q 506 398 504 417 Q 503 436 508 460 Q 512 484 506 483 Q 499 482 487 476 Q 475 471 454 453 Q 432 434 413 402 Q 393 369 380 343 Q 354 361 338 365 Q 322 369 337 355 Q 352 341 372 322 Q 359 261 348 210 Q 283 225 266 229 Q 248 233 225 238 Q 201 242 183 234 Q 164 227 188 225 Q 212 223 277 205 Q 285 171 281 140 Q 231 153 215 146 Q 199 138 223 134 Q 246 130 274 121 Q 302 112 313 112 Q 324 112 328 118 Q 333 123 323 127 Q 313 132 298 135 Q 283 138 304 147 Q 324 156 314 167 Q 305 179 294 201 L 346 188 Q 341 151 340 112 Q 339 73 337 53 Q 335 32 326 16 Q 334 0 332 3 Q 346 6 363 16 Q 380 26 373 42 Q 365 58 364 95 Q 363 132 367 184 Q 413 171 425 169 Q 436 166 449 178 Q 462 190 432 193 Q 402 197 372 203 Z M 95 184 Q 106 181 118 179 Q 130 177 138 183 Q 147 188 136 196 Q 125 203 95 199 V 261 Q 127 255 136 259 Q 145 264 144 270 Q 143 277 129 279 Q 114 281 95 277 Q 86 356 64 393 Q 41 430 21 447 Q 0 464 16 441 Q 32 417 52 365 Q 71 313 75 218 Q 78 123 65 100 Q 35 94 70 79 Q 89 80 112 77 Q 136 73 145 68 Q 153 63 174 77 Q 194 91 190 98 Q 186 106 178 121 Q 171 136 171 229 Q 171 322 176 364 Q 181 406 174 422 Q 166 439 157 454 Q 147 469 137 447 Q 127 426 110 406 Q 93 387 111 392 Q 130 398 138 398 Q 149 398 148 286 Q 147 175 147 145 Q 147 114 146 103 Q 145 91 136 92 Q 127 93 95 97 Z M 238 398 Q 238 413 231 417 Q 225 421 220 406 Q 216 391 216 385 V 348 Q 216 318 214 309 Q 212 300 208 288 Q 205 277 221 279 Q 238 281 260 277 Q 283 272 291 269 Q 298 266 309 269 Q 320 272 329 282 Q 339 292 333 297 Q 326 302 326 326 V 374 Q 326 398 320 410 Q 313 423 308 412 Q 302 400 300 391 Q 272 391 238 398 Z M 235 328 268 322 Q 279 320 286 325 Q 294 331 286 336 Q 279 341 238 341 V 382 Q 266 378 300 378 Q 302 305 296 297 Q 289 289 277 292 Q 264 294 235 296 Z M 380 76 Q 372 63 399 67 Q 426 71 437 85 Q 449 99 440 112 Q 430 125 409 106 Q 389 86 380 76 Z M 289 82 Q 283 82 273 77 Q 264 71 248 51 Q 233 30 253 35 Q 272 37 286 45 Q 300 54 298 68 Q 296 82 289 82 Z M 220 169 Q 238 175 242 184 Q 246 192 239 203 Q 231 214 221 200 Q 212 186 207 174 Q 203 162 220 169 Z" fill="black" />
  </g>
  <g class="defect" id="01">
    <path d="M 65 100 Q 35 94 70 79" fill="none" stroke="red" stroke-width="3" />
  </g>
  <g class="defect" id="02">
    <path d="M 326 16 Q 334 0 332 3" fill="none" stroke="red" stroke-width="3" />
  </g>
</svg>