<svg xmlns="http://www.w3.org/2000/svg" width="512" height="512" viewBox="0 0 512 512">
  <g class="glyph">
    <path d="M 244 285 Q 299 337 355 365 Q 411 394 461 403 Q 512 411 477 416 Q 442 421 403 425 Q 363 429 341 404 Q 318 378 242 299 Q 244 436 237 469 Q 231 502 216 476 Q 200 450 209 428 Q 217 407 217 299 Q 184 345 141 377 Q 83 423 50 424 Q 0 440 44 416 Q 89 392 126 360 Q 163 328 190 291 Q 132 299 108 305 Q 85 310 65 296 Q 45 283 70 283 Q 95 283 213 270 Q 213 252 204 241 Q 196 229 215 232 Q 233 235 241 239 Q 267 244 245 250 Q 242 256 242 266 Q 308 260 340 254 Q 372 248 392 265 Q 413 283 378 282 Q 343 281 244 285 Z M 297 64 Q 308 23 303 11 Q 299 0 315 4 Q 330 8 342 14 Q 353 21 346 27 Q 339 33 326 58 Q 367 54 390 50 Q 413 45 430 62 Q 448 78 409 77 Q 370 76 316 81 Q 297 114 288 121 Q 279 128 281 121 Q 283 114 291 83 L 204 93 Q 206 116 205 127 Q 204 138 199 131 Q 194 124 186 97 Q 98 91 102 109 Q 87 114 69 98 Q 52 83 79 84 Q 107 85 180 76 Q 169 39 158 26 Q 147 12 165 13 Q 184 14 196 18 Q 209 21 205 33 Q 202 45 204 74 Z M 147 182 Q 126 182 154 174 Q 182 167 217 152 Q 252 136 256 127 Q 260 118 274 124 Q 287 130 299 140 Q 312 151 297 153 Q 283 155 226 168 Q 169 182 147 182 Z M 370 178 Q 382 188 369 190 Q 355 192 327 207 Q 299 223 274 230 Q 248 237 265 226 Q 283 215 305 195 Q 326 175 328 164 Q 330 153 345 160 Q 359 167 370 178 Z M 124 227 Q 103 200 113 199 Q 122 198 140 205 Q 159 213 164 221 Q 169 229 163 246 Q 157 262 124 227 Z M 219 221 Q 206 202 199 189 Q 192 175 215 182 Q 237 188 245 198 Q 252 209 245 223 Q 237 237 219 221 Z" fill="black" />
  </g>
  <g class="defect" id="01">
    <path d="M 241 239 Q 267 244 245 250" fill="none" stroke="red" stroke-width="3" />
  </g>
  <g class="defect" id="02">
    <path d="M 186 97 Q 98 91 102 109" fill="none" stroke="red" stroke-width="3" />
  </g>
  <g class="defect" id="03">
    <path d="M 141 377 Q 83 423 50 424" fill="none" stroke="red" stroke-width="3" />
  </g>
</svg>