<svg xmlns="http://www.w3.org/2000/svg" width="512" height="512" viewBox="0 0 512 512">
  <g class="glyph">
    <path d="M 240 316 Q 259 306 248 294 Q 247 282 263 290 Q 280 297 280 312 Q 343 308 371 303 Q 398 299 412 304 Q 426 310 433 321 Q 440 333 409 332 Q 377 331 276 333 Q 255 377 232 413 Q 310 432 330 444 Q 350 455 358 468 Q 367 480 366 496 Q 365 512 333 490 Q 301 468 276 456 Q 251 445 219 432 Q 190 464 149 479 Q 107 495 67 498 Q 27 501 26 497 Q 25 493 57 487 Q 88 480 129 461 Q 169 442 190 421 Q 143 407 129 406 Q 114 405 121 390 Q 129 375 139 350 Q 88 356 68 360 Q 37 377 37 360 Q 25 356 13 347 Q 0 337 19 337 Q 40 337 82 333 L 145 327 Q 156 297 156 282 Q 156 265 152 255 Q 147 244 166 251 Q 185 257 193 264 Q 200 272 193 283 Q 185 295 173 324 Q 219 320 240 316 Z M 251 86 Q 261 40 253 20 Q 244 0 274 12 Q 303 23 300 31 Q 297 38 280 82 Q 308 80 341 75 Q 375 70 394 86 Q 413 103 371 103 Q 329 103 274 105 Q 263 126 255 142 Q 247 158 239 160 Q 232 162 235 149 Q 238 135 247 107 Q 202 112 156 118 Q 158 166 149 161 Q 139 156 133 122 Q 84 129 65 133 Q 46 137 24 120 Q 2 103 31 105 Q 59 107 126 101 Q 118 59 105 44 Q 93 29 123 35 Q 154 40 155 58 Q 156 76 156 97 Q 202 93 251 86 Z M 82 221 Q 240 206 277 202 Q 314 198 333 193 Q 352 188 373 203 Q 394 219 406 234 Q 417 249 397 251 Q 377 253 362 257 Q 348 261 332 268 Q 316 274 313 273 Q 310 272 319 261 Q 329 251 334 238 Q 339 225 334 219 Q 329 213 268 219 Q 206 225 157 232 Q 107 238 82 236 Q 78 257 71 274 Q 63 291 52 297 Q 40 303 36 287 Q 32 270 42 258 Q 53 247 58 231 Q 63 215 70 203 Q 76 192 82 221 Z M 145 390 Q 175 398 204 405 Q 228 377 240 335 Q 221 335 166 346 Q 156 367 145 390 Z M 204 154 Q 228 164 225 190 Q 223 215 203 198 Q 168 191 174 161 Q 164 141 204 154 Z" fill="black" />
  </g>
  <g class="defect" id="01">
    <path d="M 240 316 Q 259 306 248 294" fill="none" stroke="red" stroke-width="3" />
  </g>
  <g class="defect" id="02">
    <path d="M 68 360 Q 37 377 37 360" fill="none" stroke="red" stroke-width="3" />
  </g>
  <g class="defect" id="03">
    <path d="M 203 198 Q 168 191 174 161" fill="none" stroke="red" stroke-width="3" />
  </g>
</svg>