<svg xmlns="http://www.w3.org/2000/svg" width="512" height="512" viewBox="0 0 512 512">
  <g class="glyph">
    <path d="M 273 237 Q 355 224 394 214 Q 432 204 444 207 Q 456 209 465 215 Q 473 222 468 227 Q 463 232 368 241 Q 392 252 389 257 Q 387 262 385 280 Q 432 269 441 274 Q 450 280 435 288 Q 419 297 383 305 V 346 Q 432 331 444 336 Q 456 340 449 349 Q 441 357 383 368 V 413 Q 441 407 456 404 Q 471 402 485 409 Q 499 415 504 425 Q 510 435 467 432 Q 424 430 384 433 Q 344 437 278 441 Q 278 499 271 506 Q 265 512 255 494 Q 245 475 250 457 Q 254 439 255 413 Q 256 387 256 336 Q 256 282 252 241 Q 234 262 215 271 Q 196 280 212 262 Q 228 245 238 231 Q 247 217 264 186 Q 280 155 275 141 Q 271 127 290 132 Q 310 138 319 144 Q 329 151 323 157 Q 316 163 297 185 Q 278 207 262 230 Q 269 234 273 237 Z M 155 252 Q 174 267 169 274 Q 163 282 159 308 Q 204 297 222 294 Q 239 290 243 299 Q 247 308 212 315 Q 176 323 159 327 L 155 355 Q 196 370 205 379 Q 215 387 219 398 Q 224 409 219 421 Q 215 432 204 425 Q 194 417 177 396 Q 161 374 153 364 Q 129 422 95 450 Q 60 478 42 482 Q 24 486 55 459 Q 86 432 104 406 Q 123 379 131 338 Q 65 357 55 361 Q 45 366 28 360 Q 11 355 5 347 Q 0 340 20 338 Q 41 336 71 330 Q 101 325 136 316 Q 138 288 138 271 Q 138 254 133 255 Q 129 256 116 252 Q 84 280 70 288 Q 56 297 65 285 Q 73 273 93 246 Q 112 219 125 186 Q 138 153 133 142 Q 129 131 143 136 Q 157 140 173 148 Q 189 157 176 168 Q 163 179 155 193 Q 146 207 125 239 Q 159 230 173 225 Q 187 219 199 216 Q 211 213 224 223 Q 237 232 219 237 Q 202 241 155 252 Z M 207 99 Q 209 129 205 140 Q 202 151 196 138 Q 189 125 183 103 Q 123 114 109 116 Q 95 118 84 113 Q 73 108 61 100 Q 49 93 67 91 Q 84 90 102 89 Q 120 88 179 84 Q 170 54 158 43 Q 146 32 159 32 Q 172 32 187 37 Q 202 41 202 54 Q 202 65 204 80 Q 250 75 293 71 Q 299 45 299 34 Q 299 24 295 12 Q 290 0 303 3 Q 316 6 331 15 Q 361 39 339 32 Q 331 41 321 67 Q 381 60 399 57 Q 403 34 432 65 Q 447 75 447 82 Q 447 88 429 87 Q 411 86 381 86 Q 351 86 314 88 Q 295 127 289 128 Q 284 129 284 125 Q 284 118 288 90 Q 247 93 207 99 Z M 278 333 V 424 Q 318 419 357 415 V 372 Q 327 376 311 373 Q 295 370 300 366 Q 305 361 357 351 V 310 Q 308 310 301 304 Q 295 299 324 294 Q 353 288 357 286 Q 355 245 351 245 Q 349 245 324 248 Q 299 252 273 250 Q 278 265 278 333 Z M 351 151 Q 364 151 379 157 Q 394 163 397 176 Q 400 189 395 197 Q 389 204 374 194 Q 359 183 349 166 Q 338 148 351 151 Z" fill="black" />
  </g>
  <g class="defect" id="01">
    <path d="M 331 15 Q 361 39 339 32" fill="none" stroke="red" stroke-width="3" />
  </g>
  <g class="defect" id="02">
    <path d="M 399 57 Q 403 34 432 65" fill="none" stroke="red" stroke-width="3" />
  </g>
</svg>