<svg xmlns="http://www.w3.org/2000/svg" width="512" height="512" viewBox="0 0 512 512">
  <g class="glyph">
    <path d="M 283 251 Q 304 258 310 265 Q 317 272 290 279 Q 335 279 375 273 Q 415 267 427 263 Q 440 258 455 262 Q 471 265 488 275 Q 505 285 497 296 Q 489 306 487 333 Q 485 360 483 406 Q 462 436 467 471 Q 453 492 435 502 Q 417 512 407 494 Q 396 476 373 455 Q 349 435 376 444 Q 403 453 421 453 Q 440 453 446 419 Q 453 385 454 347 Q 455 308 451 293 Q 446 279 424 282 Q 401 285 340 292 Q 365 306 360 312 Q 356 317 342 326 Q 372 331 390 339 Q 408 347 406 361 Q 403 376 382 362 Q 360 349 335 333 Q 315 356 282 370 Q 249 385 270 367 Q 290 349 309 327 Q 328 306 328 295 Q 310 297 304 297 Q 297 297 283 288 Q 249 313 228 323 Q 206 333 190 335 Q 174 338 208 317 Q 242 299 276 256 Q 270 261 267 242 Q 263 222 258 198 Q 254 174 245 161 Q 236 147 247 147 Q 258 147 270 150 Q 281 152 332 145 Q 383 138 396 134 Q 410 129 426 134 Q 442 138 455 148 Q 469 159 458 168 Q 446 177 428 207 Q 410 238 399 249 Q 387 261 385 242 Q 324 245 283 251 Z M 322 79 Q 335 25 330 12 Q 324 0 338 2 Q 351 5 368 14 Q 385 23 375 32 Q 365 41 349 75 Q 408 68 430 66 Q 453 63 471 77 Q 489 91 444 91 Q 401 91 342 95 Q 328 122 318 135 Q 308 147 307 139 Q 306 131 317 97 Q 281 102 229 111 Q 231 145 225 154 Q 220 163 206 113 Q 143 122 122 127 Q 102 131 82 116 Q 61 100 91 100 Q 122 100 202 93 Q 193 66 180 52 Q 168 39 172 34 Q 177 29 203 39 Q 229 48 227 58 Q 224 68 227 91 Q 274 86 322 79 Z M 20 274 Q 41 274 69 270 Q 97 265 112 256 Q 110 261 147 258 Q 170 270 160 282 Q 150 295 144 339 Q 127 371 137 399 Q 136 415 147 404 Q 159 394 193 370 Q 227 347 213 365 Q 199 383 168 417 Q 136 451 122 471 Q 109 492 97 466 Q 86 440 94 432 Q 102 424 110 394 Q 118 365 120 322 Q 122 279 110 281 Q 97 283 84 287 Q 70 290 53 296 Q 36 301 18 288 Q 0 274 20 274 Z M 387 229 Q 401 197 408 177 Q 415 156 409 152 Q 403 147 355 154 Q 306 161 279 168 Q 279 184 281 195 Q 322 188 342 181 Q 362 174 373 186 Q 383 197 347 203 Q 310 208 281 208 Q 283 222 285 238 Q 324 233 347 228 Q 369 222 387 229 Z M 367 415 Q 270 421 253 433 Q 236 444 230 429 Q 224 415 231 404 Q 238 394 238 374 Q 238 353 230 344 Q 222 335 227 334 Q 231 333 248 339 Q 265 344 262 353 Q 258 362 258 406 Q 301 401 323 396 Q 344 392 369 389 Q 394 385 407 402 Q 419 419 367 415 Z M 140 170 Q 170 177 176 190 Q 181 204 176 215 Q 170 227 148 211 Q 127 195 114 178 Q 102 161 140 170 Z" fill="black" />
  </g>
  <g class="defect" id="01">
    <path d="M 483 406 Q 462 436 467 471" fill="none" stroke="red" stroke-width="3" />
  </g>
  <g class="defect" id="02">
    <path d="M 112 256 Q 110 261 147 258" fill="none" stroke="red" stroke-width="3" />
  </g>
  <g class="defect" id="03">
    <path d="M 144 339 Q 127 371 137 399" fill="none" stroke="red" stroke-width="3" />
  </g>
</svg>