<svg xmlns="http://www.w3.org/2000/svg" width="512" height="512" viewBox="0 0 512 512">
  <g class="glyph">
    <path d="M 196 286 Q 194 288 191 288 V 306 Q 191 359 185 375 Q 179 391 171 373 Q 163 355 167 340 Q 171 325 174 263 Q 177 202 170 185 Q 163 169 174 170 Q 185 171 196 171 Q 191 181 240 165 V 85 Q 240 40 232 24 Q 224 8 226 4 Q 228 0 246 5 Q 264 10 270 16 Q 276 22 268 44 Q 260 67 260 161 Q 280 157 289 154 Q 298 151 311 157 Q 325 163 330 168 Q 335 173 327 185 Q 318 198 319 221 Q 321 244 323 286 Q 325 329 321 351 Q 316 373 310 384 Q 304 395 299 400 Q 294 405 286 387 Q 278 369 265 357 Q 252 345 268 349 Q 284 353 291 348 Q 298 343 298 306 Q 298 270 296 223 Q 294 175 285 174 Q 276 173 260 175 Q 256 264 254 302 Q 252 341 247 344 Q 242 347 233 328 Q 224 308 231 286 Q 238 264 240 181 Q 210 187 196 187 Q 194 242 191 286 L 196 278 Q 202 262 207 246 Q 212 230 209 220 Q 206 210 214 212 Q 224 214 232 220 Q 240 226 233 236 Q 226 246 215 263 Q 204 280 196 286 Z M 470 139 Q 480 139 480 147 Q 480 153 460 159 Q 439 165 399 175 Q 419 196 416 205 Q 413 214 411 247 Q 409 280 403 296 Q 441 337 458 346 Q 474 355 492 361 Q 510 367 511 369 Q 512 371 480 371 Q 447 371 433 368 Q 419 365 391 321 Q 353 357 337 363 Q 321 369 330 359 Q 339 349 349 337 Q 359 325 375 298 Q 339 238 329 229 Q 318 220 330 218 Q 341 216 352 233 Q 363 250 385 274 Q 389 250 389 232 Q 389 212 385 177 H 357 Q 345 194 334 201 Q 323 208 329 198 Q 335 187 346 167 Q 357 147 369 112 Q 381 77 386 52 Q 391 28 387 17 Q 383 6 387 3 Q 391 0 402 5 Q 413 10 422 20 Q 431 30 426 38 Q 421 46 401 93 Q 381 139 365 165 Q 417 151 438 145 Q 460 139 470 139 Z M 117 222 133 224 Q 145 202 141 189 Q 137 177 156 186 Q 175 196 167 201 Q 159 206 141 226 Q 157 234 160 242 Q 163 250 161 260 Q 177 287 144 257 Q 129 244 117 234 Q 117 268 116 319 Q 115 371 111 386 Q 107 401 100 391 Q 93 381 89 370 Q 85 359 89 344 Q 93 329 96 298 Q 99 268 99 214 Q 44 272 22 284 Q 0 296 22 274 Q 44 252 71 218 Q 97 183 110 160 Q 123 137 103 143 Q 83 149 70 153 Q 56 157 47 160 Q 38 163 25 156 Q 12 149 15 146 Q 18 143 40 142 Q 62 141 91 132 Q 119 123 128 117 Q 137 111 148 114 Q 159 117 166 124 Q 173 131 160 141 Q 147 151 117 191 Z M 335 58 Q 357 77 345 83 Q 333 89 300 115 Q 268 141 284 120 Q 300 99 306 84 Q 312 69 313 54 Q 314 40 335 58 Z M 117 30 Q 95 6 129 15 Q 163 24 166 37 Q 169 50 164 59 Q 159 69 149 61 Q 139 54 117 30 Z M 220 125 Q 220 135 214 139 Q 208 143 198 130 Q 187 117 176 100 Q 165 83 185 91 Q 206 99 213 106 Q 220 113 220 125 Z M 264 224 Q 272 224 284 235 Q 296 246 291 262 Q 286 278 280 272 Q 274 266 266 245 Q 258 224 264 224 Z" fill="black" />
  </g>
  <g class="defect" id="01">
    <path d="M 196 171 Q 191 181 240 165" fill="none" stroke="red" stroke-width="3" />
  </g>
  <g class="defect" id="02">
    <path d="M 161 260 Q 177 287 144 257" fill="none" stroke="red" stroke-width="3" />
  </g>
</svg>