<svg xmlns="http://www.w3.org/2000/svg" width="512" height="512" viewBox="0 0 512 512">
  <g class="glyph">
    <path d="M 324 243 Q 365 275 395 297 Q 424 318 445 325 Q 465 332 489 341 Q 512 349 478 352 Q 445 355 428 355 Q 412 355 397 339 Q 381 322 324 261 Q 326 335 326 363 Q 326 390 320 416 Q 314 443 304 417 Q 294 392 299 376 Q 304 361 304 269 Q 261 316 236 335 Q 210 353 182 363 Q 153 373 183 352 Q 212 330 248 294 Q 284 257 288 247 Q 245 255 233 258 Q 220 261 206 248 Q 192 235 208 236 Q 224 237 302 226 Q 298 212 292 204 Q 286 196 298 196 Q 310 196 318 200 Q 326 204 326 210 Q 326 214 324 224 Q 406 216 425 212 Q 445 208 462 219 Q 479 231 470 233 Q 461 235 429 236 Q 398 237 324 243 Z M 137 222 Q 147 222 159 224 Q 169 202 168 191 Q 167 180 173 178 Q 180 177 193 188 Q 206 198 199 204 Q 192 210 169 228 Q 196 233 199 248 Q 202 263 195 267 Q 188 271 137 233 Q 155 343 140 374 Q 139 406 136 417 Q 133 428 120 408 Q 108 388 111 370 Q 114 353 117 305 Q 120 257 118 226 Q 86 273 64 294 Q 43 314 21 326 Q 0 339 25 311 Q 51 284 88 231 Q 124 177 133 158 Q 141 139 123 144 Q 106 149 83 158 Q 59 167 48 164 Q 55 141 29 154 Q 20 147 39 147 Q 59 147 95 136 Q 131 124 138 115 Q 145 106 161 111 Q 177 116 185 122 Q 192 129 183 136 Q 173 143 159 163 Q 145 184 137 202 Z M 284 92 Q 271 110 261 78 Q 251 45 246 37 Q 241 29 240 23 Q 239 18 260 19 Q 281 20 311 14 Q 341 8 348 5 Q 355 2 364 5 Q 373 8 385 17 Q 396 27 387 33 Q 377 39 374 43 Q 371 47 361 65 Q 379 78 363 82 Q 347 86 284 92 Z M 355 177 Q 347 192 343 181 Q 339 169 332 154 Q 326 139 319 125 Q 312 112 322 112 H 345 Q 359 112 378 108 Q 398 104 404 100 Q 410 96 422 103 Q 434 110 443 115 Q 451 120 439 129 Q 426 137 418 155 Q 437 169 411 171 Q 386 173 355 177 Z M 237 194 Q 231 214 218 181 Q 206 147 198 136 Q 190 124 208 124 Q 228 124 248 120 Q 267 116 275 113 Q 284 110 295 114 Q 306 118 311 125 Q 316 133 308 139 Q 286 127 290 165 Q 306 177 294 181 Q 281 184 237 194 Z M 281 78 Q 314 71 345 67 Q 349 49 351 38 Q 353 27 337 29 Q 320 31 273 37 Z M 355 163 Q 377 161 402 157 Q 404 133 405 125 Q 406 118 392 120 L 349 126 Q 353 147 355 163 Z M 124 6 Q 147 12 162 22 Q 177 33 170 53 Q 163 73 145 53 Q 126 33 114 16 Q 102 0 124 6 Z M 235 177 Q 255 173 273 169 Q 275 141 275 135 Q 275 129 264 132 Q 253 135 228 141 Q 233 161 235 177 Z" fill="black" />
  </g>
  <g class="defect" id="01">
    <path d="M 308 139 Q 286 127 290 165" fill="none" stroke="red" stroke-width="3" />
  </g>
  <g class="defect" id="02">
    <path d="M 137 233 Q 155 343 140 374" fill="none" stroke="red" stroke-width="3" />
  </g>
  <g class="defect" id="03">
    <path d="M 48 164 Q 55 141 29 154" fill="none" stroke="red" stroke-width="3" />
  </g>
</svg>