<svg xmlns="http://www.w3.org/2000/svg" width="512" height="512" viewBox="0 0 512 512">
  <g class="glyph">
    <path d="M 338 165 Q 377 156 389 151 Q 401 146 418 154 Q 435 163 441 168 Q 448 174 439 182 Q 431 191 418 221 Q 469 212 484 217 Q 499 223 506 231 Q 512 240 501 240 Q 491 240 475 239 Q 458 238 413 240 Q 405 266 401 281 Q 422 300 407 300 Q 392 300 334 308 Q 334 383 332 403 Q 330 422 323 440 Q 317 458 304 470 Q 291 482 282 465 Q 272 448 249 427 Q 225 407 258 416 Q 291 424 297 416 Q 302 407 305 382 Q 308 358 308 313 Q 268 321 255 320 Q 242 319 229 311 Q 216 302 242 301 Q 268 300 308 293 Q 308 274 306 249 Q 266 255 258 256 Q 251 257 235 260 Q 219 263 202 254 Q 186 244 199 244 L 242 240 Q 270 238 304 231 Q 302 208 293 186 Q 270 189 258 191 Q 246 193 228 184 Q 210 176 243 174 Q 276 171 319 165 Q 345 118 351 103 Q 358 88 343 92 Q 328 96 293 94 Q 270 118 256 131 Q 242 144 236 144 Q 229 144 241 130 Q 253 116 265 97 Q 276 79 288 54 Q 300 28 298 14 Q 296 0 310 7 Q 323 15 332 24 Q 341 32 330 42 Q 319 51 300 84 Q 341 77 355 67 Q 368 58 388 66 Q 407 75 415 81 Q 422 88 408 94 Q 394 101 380 112 Q 366 124 338 165 Z M 109 396 Q 107 431 101 422 Q 94 413 90 394 Q 86 375 79 355 Q 73 334 65 323 Q 58 313 79 315 Q 101 317 123 310 Q 146 302 154 297 Q 163 291 186 303 Q 210 315 199 325 Q 189 334 176 360 Q 201 379 178 381 Q 154 383 109 396 Z M 21 141 Q 45 141 66 138 Q 88 135 126 125 Q 165 116 180 111 Q 195 107 208 111 Q 223 116 217 120 Q 212 124 147 145 Q 81 165 69 170 Q 56 176 43 170 Q 30 165 15 153 Q 0 141 21 141 Z M 328 229 Q 358 225 388 225 Q 392 199 393 186 Q 394 174 374 176 Q 353 178 315 182 Q 323 195 328 229 Z M 107 379 Q 137 373 156 366 Q 159 343 157 330 Q 156 317 146 319 Q 135 321 103 330 Q 105 356 107 379 Z M 133 30 Q 146 28 163 30 Q 180 32 192 41 Q 204 49 200 70 Q 197 90 183 84 Q 169 77 145 54 Q 120 30 133 30 Z M 332 289 377 283 Q 379 270 383 242 Q 362 242 330 246 Q 332 270 332 289 Z M 178 182 Q 193 186 182 195 Q 171 204 146 210 Q 120 216 104 210 Q 88 204 106 198 Q 124 193 145 184 Q 165 176 178 182 Z M 159 242 Q 169 240 180 246 Q 191 253 171 261 Q 140 256 133 271 Q 114 272 101 267 Q 88 261 107 256 Q 126 251 137 246 Q 148 242 159 242 Z" fill="black" />
  </g>
  <g class="defect" id="01">
    <path d="M 171 261 Q 140 256 133 271" fill="none" stroke="red" stroke-width="3" />
  </g>
</svg>