<svg xmlns="http://www.w3.org/2000/svg" width="512" height="512" viewBox="0 0 512 512">
  <g class="glyph">
    <path d="M 414 90 Q 420 90 429 93 Q 438 96 453 106 Q 468 116 458 128 Q 449 140 441 159 Q 433 177 422 208 Q 411 238 403 246 Q 394 254 392 230 Q 344 236 326 238 Q 304 282 280 313 Q 324 309 357 304 Q 357 274 349 259 Q 341 245 359 249 Q 376 254 385 260 Q 394 267 389 276 Q 385 284 383 300 Q 424 293 439 290 Q 453 287 468 287 Q 486 287 499 295 Q 512 304 509 309 Q 505 313 468 313 Q 431 313 383 317 Q 381 420 375 459 Q 370 499 364 503 Q 359 508 357 465 Q 354 422 356 402 Q 357 381 357 322 Q 309 328 286 333 Q 263 337 247 340 Q 251 355 211 333 Q 190 322 209 321 Q 228 319 263 315 Q 289 274 298 247 L 267 252 Q 258 271 254 254 Q 249 236 238 197 Q 228 158 220 141 Q 212 125 228 127 Q 243 129 260 129 Q 278 105 294 74 Q 311 44 309 22 Q 306 0 323 8 Q 339 15 350 26 Q 361 37 346 48 Q 330 59 278 127 Q 330 116 369 103 Q 407 90 414 90 Z M 83 260 Q 83 289 73 274 Q 63 258 59 243 Q 55 228 46 207 Q 37 186 27 173 Q 18 160 40 163 Q 63 166 68 164 Q 72 162 97 156 Q 123 151 135 142 Q 147 133 164 138 Q 182 142 191 149 Q 201 155 189 166 Q 177 177 166 225 Q 188 236 177 240 Q 166 243 83 260 Z M 123 363 Q 129 341 136 313 Q 142 284 140 270 Q 138 256 151 260 Q 164 265 175 271 Q 186 278 175 289 Q 164 300 133 361 Q 164 352 182 346 Q 199 339 207 346 Q 214 352 194 359 Q 173 365 118 386 Q 63 407 53 415 Q 42 422 22 411 Q 2 400 1 394 Q 0 387 24 386 Q 48 385 123 363 Z M 339 162 Q 365 158 376 159 Q 387 160 383 167 Q 379 175 337 186 L 330 221 L 394 212 Q 405 173 407 151 Q 409 129 405 120 Q 400 112 382 116 Q 376 136 333 129 Q 348 138 339 162 Z M 81 245 Q 123 234 142 230 Q 144 206 146 186 Q 147 166 139 164 Q 131 162 121 166 Q 112 171 68 182 Q 70 195 81 245 Z M 267 234 Q 282 232 304 228 Q 309 208 311 190 Q 293 188 281 184 Q 269 179 281 176 Q 293 173 313 168 V 136 Q 289 140 254 147 Q 258 171 267 234 Z M 175 57 Q 193 59 188 67 Q 184 74 146 85 Q 107 96 85 97 Q 63 98 49 94 Q 35 90 59 84 Q 83 79 120 66 Q 158 53 175 57 Z M 66 302 Q 92 313 96 324 Q 101 335 93 348 Q 85 361 71 342 Q 57 324 48 307 Q 55 275 66 302 Z" fill="black" />
  </g>
  <g class="defect" id="01">
    <path d="M 382 116 Q 376 136 333 129" fill="none" stroke="red" stroke-width="3" />
  </g>
  <g class="defect" id="02">
    <path d="M 247 340 Q 251 355 211 333" fill="none" stroke="red" stroke-width="3" />
  </g>
  <g class="defect" id="03">
    <path d="M 48 307 Q 55 275 66 302" fill="none" stroke="red" stroke-width="3" />
  </g>
</svg>