<svg xmlns="http://www.w3.org/2000/svg" width="512" height="512" viewBox="0 0 512 512">
  <g class="glyph">
    <path d="M 175 155 Q 168 151 168 149 Q 160 221 151 258 Q 140 306 123 344 Q 105 381 79 407 Q 53 433 26 447 Q 16 462 31 431 Q 61 400 86 352 Q 112 304 124 248 Q 136 193 138 143 Q 140 94 133 77 Q 127 59 175 83 Q 241 66 289 46 Q 337 26 345 13 Q 352 0 374 10 Q 396 20 405 30 Q 414 39 393 43 Q 372 46 325 59 Q 278 72 173 98 Q 171 125 168 144 Q 171 142 177 142 Q 195 142 220 140 Q 245 138 282 133 Q 287 103 280 88 Q 274 72 289 77 Q 290 63 316 88 Q 328 94 323 101 Q 317 107 311 129 Q 370 120 404 114 Q 438 107 455 124 Q 473 140 438 140 Q 405 140 306 151 Q 302 171 295 195 Q 335 188 350 184 Q 365 179 379 183 Q 392 186 405 195 Q 418 203 410 213 Q 403 223 400 245 Q 398 267 399 312 Q 400 357 389 382 Q 379 407 371 395 Q 363 383 357 361 Q 306 361 234 370 Q 228 411 214 388 Q 201 365 206 351 Q 210 337 210 282 Q 210 225 201 209 Q 193 193 206 197 L 228 201 Q 236 203 274 199 Q 278 179 280 155 Q 232 160 211 163 Q 190 166 175 155 Z M 234 260 V 298 Q 260 295 288 288 Q 315 280 326 291 Q 337 302 305 306 Q 274 311 234 309 V 354 Q 276 350 304 344 Q 333 337 361 348 Q 368 302 366 260 Q 365 219 358 211 Q 350 203 330 206 Q 311 208 234 217 V 247 Q 254 259 289 240 Q 309 236 322 244 Q 335 252 298 258 Q 260 265 234 260 Z M 335 405 Q 359 414 377 423 Q 396 433 404 446 Q 411 459 408 479 Q 405 499 392 490 Q 379 481 356 454 Q 333 427 322 410 Q 311 394 335 405 Z M 232 403 Q 232 389 245 396 Q 260 403 271 411 Q 282 420 270 426 Q 258 431 226 459 Q 195 488 163 500 Q 131 512 161 490 Q 190 468 211 442 Q 232 416 232 403 Z" fill="black" />
  </g>
  <g class="defect" id="01">
    <path d="M 26 447 Q 16 462 31 431" fill="none" stroke="red" stroke-width="3" />
  </g>
  <g class="defect" id="02">
    <path d="M 289 77 Q 290 63 316 88" fill="none" stroke="red" stroke-width="3" />
  </g>
  <g class="defect" id="03">
    <path d="M 234 247 Q 254 259 289 240" fill="none" stroke="red" stroke-width="3" />
  </g>
</svg>