<svg xmlns="http://www.w3.org/2000/svg" width="512" height="512" viewBox="0 0 512 512">
  <g class="glyph">
    <path d="M 383 204 Q 401 161 412 137 Q 424 113 404 117 Q 385 120 335 129 Q 335 229 336 280 Q 338 331 334 420 Q 331 510 319 511 Q 308 512 308 424 V 240 Q 308 143 296 121 Q 283 100 298 104 Q 313 109 323 112 Q 333 116 370 106 Q 408 97 420 84 Q 433 70 451 77 Q 469 84 483 95 Q 496 106 469 121 Q 442 136 399 199 Q 446 238 463 258 Q 480 279 489 307 Q 498 335 484 373 Q 469 410 451 383 Q 433 356 395 335 Q 358 315 378 317 Q 399 319 428 322 Q 458 324 442 288 Q 426 251 383 204 Z M 177 231 Q 227 220 248 215 Q 270 211 283 221 Q 312 231 268 236 Q 240 240 174 254 L 165 290 Q 231 322 248 339 Q 265 356 257 379 Q 249 403 232 378 Q 215 353 163 301 Q 150 347 125 381 Q 100 415 59 435 Q 18 455 52 427 Q 86 399 111 356 Q 136 313 143 261 Q 82 279 60 284 Q 39 290 19 273 Q 0 256 27 256 Q 57 256 147 236 Q 150 206 150 179 Q 104 181 87 172 Q 70 163 95 160 Q 120 156 159 148 Q 197 140 220 134 Q 242 127 258 137 Q 274 147 251 154 Q 229 161 172 174 Q 190 188 186 195 Q 181 202 177 231 Z M 236 7 Q 256 14 266 20 Q 276 27 263 42 Q 249 57 236 77 Q 222 97 204 116 Q 186 134 198 109 Q 211 84 219 59 Q 227 34 221 17 Q 215 0 236 7 Z M 102 82 Q 93 66 94 60 Q 95 54 118 62 Q 140 70 148 85 Q 156 100 148 113 Q 140 127 126 111 Q 111 95 102 82 Z" fill="black" />
  </g>
  <g class="defect" id="01">
    <path d="M 283 221 Q 312 231 268 236" fill="none" stroke="red" stroke-width="3" />
  </g>
</svg>