<svg xmlns="http://www.w3.org/2000/svg" width="512" height="512" viewBox="0 0 512 512">
  <g class="glyph">
    <path d="M 168 127 163 170 Q 204 157 213 153 Q 222 148 233 153 Q 245 157 258 167 Q 271 176 260 187 Q 250 198 239 231 Q 228 265 218 281 Q 209 297 204 280 L 163 288 V 321 Q 194 314 212 309 Q 230 303 243 311 Q 256 318 231 324 Q 207 329 163 340 Q 161 424 160 443 Q 159 463 155 478 Q 151 493 141 478 Q 131 463 132 449 Q 133 435 137 416 Q 140 398 142 346 Q 49 374 41 379 Q 32 383 20 373 Q 9 364 4 356 Q 0 349 16 350 Q 32 351 66 344 Q 99 338 142 325 L 144 293 Q 123 297 95 301 Q 90 325 82 307 Q 73 288 65 254 Q 56 219 46 205 Q 37 191 39 188 Q 41 185 57 186 Q 73 187 86 186 Q 99 185 144 174 V 131 Q 116 129 106 124 Q 97 118 109 116 Q 120 114 144 108 Q 144 67 141 45 Q 138 24 131 12 Q 125 0 142 5 Q 159 11 171 18 Q 183 26 176 38 Q 170 49 168 99 Q 181 95 194 91 Q 194 102 218 93 Q 230 97 222 105 Q 213 114 168 127 Z M 419 200 Q 398 174 388 159 Q 379 144 399 151 Q 419 157 432 168 Q 445 179 453 190 Q 460 202 455 223 Q 450 243 426 211 Q 387 222 355 230 Q 379 247 374 256 Q 370 265 370 297 Q 407 288 422 288 Q 439 288 440 297 Q 427 305 419 312 Q 398 318 368 325 Q 366 359 366 389 Q 422 381 445 378 Q 469 374 483 380 Q 497 385 504 395 Q 512 404 498 407 Q 484 409 454 407 Q 424 404 399 408 Q 374 411 337 416 Q 299 422 276 426 Q 254 430 243 432 Q 232 435 215 423 Q 198 411 215 411 Q 234 411 265 406 Q 295 400 344 392 V 331 Q 301 336 283 329 Q 265 323 288 318 Q 312 314 344 305 Q 344 258 336 237 Q 293 247 284 255 Q 275 262 267 244 Q 258 226 278 217 Q 297 209 310 187 Q 323 166 329 148 Q 336 131 333 116 Q 310 123 288 115 Q 267 108 296 102 Q 325 97 366 84 Q 407 71 416 72 Q 426 73 433 80 Q 441 86 418 95 Q 396 103 355 112 Q 379 127 370 134 Q 361 142 347 162 Q 333 183 323 201 Q 312 219 336 214 Q 359 209 419 200 Z M 93 286 Q 105 284 144 275 V 241 Q 120 241 113 237 Q 105 232 114 230 L 144 219 V 189 Q 105 196 82 202 Q 86 228 93 286 Z M 163 213 Q 196 209 195 218 Q 194 228 163 237 V 269 Q 183 265 204 262 Q 213 228 215 207 Q 217 185 215 181 Q 213 176 208 175 Q 202 174 163 183 Z" fill="black" />
  </g>
  <g class="defect" id="01">
    <path d="M 194 91 Q 194 102 218 93" fill="none" stroke="red" stroke-width="3" />
  </g>
  <g class="defect" id="02">
    <path d="M 440 297 Q 427 305 419 312" fill="none" stroke="red" stroke-width="3" />
  </g>
</svg>