<svg xmlns="http://www.w3.org/2000/svg" width="512" height="512" viewBox="0 0 512 512">
  <g class="glyph">
    <path d="M 383 194 Q 432 183 453 175 Q 474 167 493 179 Q 512 191 485 196 Q 459 200 381 216 Q 387 225 385 233 Q 383 240 383 254 Q 425 247 437 243 Q 450 238 470 250 Q 490 263 465 266 Q 441 269 383 278 Q 383 385 378 430 Q 374 474 366 481 Q 358 488 357 432 Q 356 376 356 283 Q 325 289 314 292 Q 303 294 287 285 Q 272 276 291 274 Q 309 272 356 260 Q 356 240 352 223 Q 327 227 312 227 Q 298 227 284 219 Q 269 211 291 210 Q 312 209 367 196 Q 381 169 384 148 Q 387 127 385 111 Q 363 116 349 117 Q 336 118 323 114 Q 309 109 322 105 Q 334 100 374 87 L 423 71 Q 434 67 450 75 Q 465 82 444 91 Q 423 100 396 109 Q 436 127 424 138 Q 412 149 383 194 Z M 116 247 Q 134 252 132 257 Q 131 263 129 285 Q 145 280 154 278 Q 163 276 174 283 Q 185 289 170 295 Q 156 301 127 307 Q 116 376 91 414 Q 67 452 42 466 Q 18 481 38 457 Q 58 434 76 393 Q 93 352 96 314 Q 73 321 62 325 Q 51 329 33 318 Q 16 307 39 305 Q 62 303 100 292 Q 100 269 98 252 Q 67 260 52 266 Q 38 272 19 256 Q 0 240 27 240 Q 56 240 116 227 Q 147 167 144 149 Q 140 131 155 138 Q 169 145 177 154 Q 185 163 171 173 Q 158 183 134 223 Q 160 216 175 213 Q 189 209 203 218 Q 216 227 189 233 Q 163 238 116 247 Z M 272 73 Q 283 78 279 89 Q 276 100 275 129 Q 274 158 270 199 Q 267 240 260 278 Q 254 316 228 352 Q 203 387 166 404 Q 129 421 161 392 Q 194 363 217 319 Q 222 264 245 185 Q 249 93 237 77 Q 225 60 243 63 Q 260 67 272 73 Z M 69 114 Q 140 100 161 92 Q 183 85 196 96 Q 209 107 176 117 Q 142 127 106 131 Q 69 136 51 127 Q 33 118 69 114 Z M 358 40 Q 343 27 334 13 Q 325 0 352 2 Q 378 4 393 14 Q 407 24 403 42 Q 398 60 386 56 Q 374 51 358 40 Z M 107 51 Q 91 36 86 21 Q 80 7 115 14 Q 149 22 151 47 Q 154 71 139 69 Q 125 67 107 51 Z M 203 200 Q 196 187 193 176 Q 207 182 203 168 Q 216 171 226 183 Q 236 194 233 209 Q 229 225 219 218 Q 209 211 203 200 Z M 71 183 Q 65 174 60 164 Q 56 154 73 160 Q 91 167 101 176 Q 111 185 106 201 Q 100 218 89 205 Q 78 191 71 183 Z M 318 167 Q 314 158 311 147 Q 307 136 319 139 Q 332 142 344 155 Q 356 167 352 178 Q 347 189 336 183 Q 325 176 318 167 Z" fill="black" />
  </g>
  <g class="defect" id="01">
    <path d="M 217 319 Q 222 264 245 185" fill="none" stroke="red" stroke-width="3" />
  </g>
  <g class="defect" id="02">
    <path d="M 193 176 Q 207 182 203 168" fill="none" stroke="red" stroke-width="3" />
  </g>
</svg>