<svg xmlns="http://www.w3.org/2000/svg" width="512" height="512" viewBox="0 0 512 512">
  <g class="glyph">
    <path d="M 263 128 Q 300 123 347 116 Q 393 109 428 105 Q 463 100 486 113 Q 510 126 507 134 Q 505 142 450 138 Q 396 135 263 147 Q 261 172 261 198 Q 335 191 346 185 Q 356 179 372 186 Q 389 193 404 204 Q 419 214 405 227 Q 391 240 379 270 Q 368 300 353 327 Q 337 354 328 326 Q 296 328 258 333 V 384 Q 296 377 313 374 Q 330 370 344 383 Q 358 396 334 398 Q 310 400 258 407 L 256 463 Q 328 456 377 451 Q 426 447 445 463 Q 463 479 451 485 Q 440 491 387 485 Q 335 479 271 485 Q 207 491 161 499 Q 114 507 101 510 Q 88 512 71 500 Q 54 489 57 485 Q 61 482 79 482 Q 98 482 136 477 Q 175 472 233 465 V 412 Q 207 414 190 417 Q 172 419 154 410 Q 135 400 164 398 Q 193 396 233 389 V 335 Q 202 337 170 342 Q 156 372 137 312 Q 119 251 104 230 Q 88 209 104 211 Q 119 212 130 213 Q 142 214 233 202 V 151 Q 214 151 155 159 Q 95 168 74 172 Q 54 177 38 173 Q 23 170 12 161 Q 0 151 16 151 Q 33 151 94 145 Q 156 140 233 130 Q 233 88 221 74 Q 184 79 165 80 Q 147 81 143 79 Q 140 77 168 69 Q 195 61 241 43 Q 286 26 297 13 Q 307 0 319 5 Q 317 9 349 27 Q 368 44 351 47 Q 335 49 300 57 Q 265 65 249 70 Q 270 91 268 95 Q 265 100 263 128 Z M 261 275 258 317 Q 303 310 330 310 Q 354 228 347 214 Q 340 200 261 214 V 251 Q 296 244 308 255 Q 321 265 261 275 Z M 168 328 233 319 V 279 Q 205 282 183 275 Q 161 268 233 254 V 216 Q 151 228 144 228 Q 140 284 168 328 Z" fill="black" />
  </g>
  <g class="defect" id="01">
    <path d="M 319 5 Q 317 9 349 27" fill="none" stroke="red" stroke-width="3" />
  </g>
  <g class="defect" id="02">
    <path d="M 144 228 Q 140 284 168 328" fill="none" stroke="red" stroke-width="3" />
  </g>
</svg>