<svg xmlns="http://www.w3.org/2000/svg" width="512" height="512" viewBox="0 0 512 512">
  <g class="glyph">
    <path d="M 460 192 Q 487 201 480 212 Q 474 223 474 250 V 309 Q 474 341 470 353 Q 467 365 461 370 Q 456 374 450 359 Q 444 343 447 330 Q 449 318 450 292 Q 451 266 449 241 Q 447 217 441 213 Q 435 210 409 212 Q 383 214 338 223 Q 338 307 337 339 Q 336 372 330 377 Q 325 381 316 363 Q 307 345 311 335 Q 316 325 317 279 Q 318 232 310 217 Q 302 201 314 202 Q 325 203 334 205 Q 343 208 370 203 L 377 160 Q 345 167 332 168 Q 318 169 303 159 Q 289 149 309 148 Q 329 147 379 138 Q 383 92 378 80 Q 372 68 386 71 Q 399 74 412 81 Q 424 88 416 97 Q 408 106 404 133 Q 447 124 467 120 Q 487 115 500 127 Q 512 140 493 141 Q 474 142 399 153 L 390 201 Q 422 196 432 191 Q 442 185 460 192 Z M 300 92 Q 284 203 275 250 Q 266 298 250 334 Q 235 370 217 392 Q 198 415 182 426 Q 165 438 188 405 Q 212 372 229 326 Q 246 280 254 233 Q 262 187 264 139 Q 266 90 263 72 Q 259 54 300 81 Q 347 59 376 39 Q 404 20 405 10 Q 406 0 435 17 Q 465 34 449 41 Q 433 47 403 58 Q 372 68 300 92 Z M 153 271 Q 203 257 214 268 Q 226 280 206 285 Q 187 291 151 298 Q 147 347 144 379 Q 160 370 183 356 Q 205 343 204 347 Q 203 352 186 369 Q 169 386 153 405 Q 138 424 127 439 Q 117 453 109 457 Q 101 460 98 440 Q 95 420 103 406 Q 111 392 118 373 Q 126 354 129 300 Q 106 302 89 301 Q 72 300 67 295 Q 61 291 77 288 Q 92 284 131 275 Q 131 250 126 232 Q 108 232 91 227 Q 74 221 97 217 Q 120 212 141 205 Q 162 198 176 196 Q 189 194 200 200 Q 210 205 188 215 Q 167 226 147 230 Q 158 246 156 254 Q 153 262 153 271 Z M 129 149 Q 99 198 70 232 Q 41 266 20 280 Q 0 293 19 270 Q 38 246 61 213 Q 83 180 103 143 Q 122 106 131 78 Q 140 50 138 30 Q 135 11 150 19 Q 165 27 176 38 Q 187 50 177 60 Q 167 70 138 131 Q 171 124 186 120 Q 201 115 213 123 Q 226 131 206 140 Q 187 149 129 149 Z M 370 250 Q 379 250 395 259 Q 413 266 408 277 Q 404 289 395 341 Q 386 392 363 421 Q 341 449 323 461 Q 304 474 284 478 Q 264 483 289 466 Q 314 449 334 421 Q 354 392 363 361 Q 372 329 373 302 Q 355 275 369 263 Q 363 250 370 250 Z M 422 415 Q 404 390 403 385 Q 415 379 431 391 Q 460 404 478 422 Q 481 429 492 466 Q 487 492 464 465 Q 440 438 422 415 Z" fill="black" />
  </g>
  <g class="defect" id="01">
    <path d="M 373 302 Q 355 275 369 263" fill="none" stroke="red" stroke-width="3" />
  </g>
  <g class="defect" id="02">
    <path d="M 478 422 Q 481 429 492 466" fill="none" stroke="red" stroke-width="3" />
  </g>
  <g class="defect" id="03">
    <path d="M 403 385 Q 415 379 431 391" fill="none" stroke="red" stroke-width="3" />
  </g>
</svg>