<svg xmlns="http://www.w3.org/2000/svg" width="512" height="512" viewBox="0 0 512 512">
  <g class="glyph">
    <path d="M 319 184 V 146 Q 268 156 253 161 Q 238 165 219 155 Q 199 146 225 142 Q 251 139 319 124 Q 319 107 313 92 Q 251 109 291 85 Q 342 60 345 44 Q 358 28 358 21 Q 358 13 393 28 Q 428 43 406 49 Q 383 56 328 84 Q 345 94 349 101 Q 353 107 351 118 Q 388 111 424 101 Q 461 90 486 105 Q 512 120 461 123 Q 409 126 347 137 Q 345 169 345 180 Q 386 171 400 165 Q 413 159 427 165 Q 441 171 456 182 Q 471 193 458 204 Q 446 214 435 239 Q 424 263 411 287 Q 398 311 392 289 Q 364 293 341 298 Q 338 323 338 341 Q 347 341 367 336 Q 388 332 397 342 Q 407 351 387 356 Q 366 360 338 364 Q 336 388 336 401 Q 366 398 412 391 Q 458 383 481 407 Q 503 431 464 423 Q 424 416 328 422 Q 246 435 230 440 Q 214 446 191 432 Q 167 418 199 418 Q 231 418 317 405 V 366 Q 300 368 285 368 Q 270 368 258 363 Q 246 358 261 356 Q 276 353 317 345 V 302 Q 300 304 268 311 Q 261 332 254 313 Q 246 293 239 261 Q 231 229 222 214 Q 212 199 222 198 Q 231 197 243 198 Q 255 199 319 184 Z M 133 251 Q 133 234 131 206 Q 81 197 102 192 Q 122 186 156 171 Q 191 156 205 166 Q 219 176 154 197 Q 163 219 156 244 L 197 231 Q 212 227 221 235 Q 229 242 210 252 Q 191 261 156 272 Q 152 351 153 363 Q 154 375 169 365 Q 184 356 206 342 Q 227 328 223 335 Q 219 343 186 377 Q 154 411 146 430 Q 153 428 123 428 Q 109 409 121 388 Q 133 366 133 278 Q 99 283 76 277 Q 54 272 76 268 Q 99 263 133 251 Z M 133 116 Q 163 107 185 97 Q 208 88 221 97 Q 234 107 195 120 Q 156 133 124 131 Q 71 216 35 242 Q 0 268 24 237 Q 47 206 69 174 Q 90 141 106 110 Q 122 79 130 58 Q 137 36 135 18 Q 133 0 161 18 Q 189 36 176 46 Q 163 56 133 116 Z M 343 225 Q 356 223 366 222 Q 377 221 381 226 Q 386 231 375 237 Q 364 242 343 246 L 341 281 Q 368 276 394 272 Q 403 238 407 211 Q 411 184 398 184 Q 386 184 345 193 Z M 317 251 Q 300 253 287 247 Q 274 242 290 238 Q 306 234 319 229 V 199 Q 281 208 255 212 Q 259 240 261 257 Q 263 274 266 296 Q 304 289 317 285 Z" fill="black" />
  </g>
  <g class="defect" id="01">
    <path d="M 291 85 Q 342 60 345 44" fill="none" stroke="red" stroke-width="3" />
  </g>
  <g class="defect" id="02">
    <path d="M 146 430 Q 153 428 123 428" fill="none" stroke="red" stroke-width="3" />
  </g>
</svg>