<svg xmlns="http://www.w3.org/2000/svg" width="512" height="512" viewBox="0 0 512 512">
  <g class="glyph">
    <path d="M 328 426 Q 342 426 346 407 Q 349 388 351 323 Q 352 258 348 190 Q 345 122 333 110 Q 234 124 212 128 Q 189 132 171 118 Q 153 105 171 104 Q 189 103 240 98 Q 292 93 362 80 Q 433 67 453 65 Q 474 62 493 80 Q 512 98 470 99 Q 428 100 366 105 Q 385 129 382 147 Q 378 165 379 250 Q 380 335 384 376 Q 404 402 382 440 Q 376 464 359 484 Q 342 505 331 482 Q 321 459 294 435 Q 268 412 291 419 Q 313 426 328 426 Z M 122 132 Q 122 156 138 173 Q 153 191 140 218 Q 127 244 116 223 Q 105 201 78 185 Q 50 170 66 171 Q 81 172 96 175 Q 110 177 102 153 Q 93 129 99 102 Q 105 74 110 59 Q 115 43 98 48 Q 81 53 45 60 Q 45 69 48 152 Q 50 234 49 305 Q 48 376 43 412 Q 38 447 31 451 Q 24 455 12 426 Q 0 397 10 373 Q 19 349 22 292 Q 35 222 22 154 Q 19 74 11 61 Q 2 48 1 42 Q 0 36 14 38 Q 29 41 37 43 Q 45 45 67 39 Q 89 33 99 25 Q 120 0 118 8 Q 127 0 142 5 Q 158 10 173 22 Q 189 33 172 43 Q 156 53 139 79 Q 122 105 122 132 Z M 189 289 Q 184 311 179 313 Q 175 316 171 293 Q 167 270 164 244 Q 160 218 154 203 Q 148 189 157 190 Q 165 191 176 194 Q 187 196 211 193 Q 234 189 249 179 Q 263 170 278 176 Q 292 182 306 191 Q 321 201 307 212 Q 294 223 280 254 Q 306 275 275 279 Q 244 282 189 289 Z M 254 258 Q 258 230 257 214 Q 256 199 239 201 Q 223 203 187 211 Q 187 249 189 270 Q 213 268 254 258 Z" fill="black" />
  </g>
  <g class="defect" id="01">
    <path d="M 99 25 Q 120 0 118 8" fill="none" stroke="red" stroke-width="3" />
  </g>
  <g class="defect" id="02">
    <path d="M 22 292 Q 35 222 22 154" fill="none" stroke="red" stroke-width="3" />
  </g>
  <g class="defect" id="03">
    <path d="M 384 376 Q 404 402 382 440" fill="none" stroke="red" stroke-width="3" />
  </g>
</svg>