<svg xmlns="http://www.w3.org/2000/svg" width="512" height="512" viewBox="0 0 512 512">
  <g class="glyph">
    <path d="M 176 251 164 263 Q 265 249 276 243 Q 287 237 301 242 Q 315 247 330 254 Q 345 261 341 269 Q 336 277 329 289 Q 322 301 315 343 Q 308 385 292 405 Q 277 425 269 410 Q 261 395 255 389 Q 249 383 238 375 Q 228 366 242 368 Q 256 369 267 368 Q 277 366 284 338 Q 291 310 291 287 Q 291 263 282 262 Q 272 261 242 268 Q 211 275 193 281 Q 174 287 155 272 Q 127 301 99 324 Q 113 331 127 332 Q 141 334 160 329 Q 178 324 186 317 Q 193 310 207 314 Q 221 317 231 323 Q 242 329 231 338 Q 221 348 207 376 Q 223 397 204 397 Q 188 397 120 409 Q 117 446 139 464 Q 160 481 221 483 Q 282 484 326 479 Q 371 474 395 466 Q 418 458 424 436 Q 430 413 434 393 Q 439 373 440 410 Q 442 446 456 463 Q 470 479 432 491 Q 395 503 314 507 Q 233 512 187 507 Q 141 503 117 477 Q 94 451 97 396 Q 101 341 89 331 Q 45 357 25 361 Q 5 364 32 346 Q 59 329 86 304 Q 113 279 127 262 Q 141 244 142 233 Q 143 221 155 228 Q 167 235 175 240 Q 183 244 176 251 Z M 193 49 Q 177 39 146 50 Q 127 49 120 42 Q 113 35 137 32 Q 162 28 210 19 Q 258 9 279 5 Q 301 0 317 2 Q 334 5 338 12 Q 343 19 325 23 Q 308 28 275 34 Q 252 20 204 47 Q 230 49 231 58 Q 233 66 228 89 Q 341 75 365 67 Q 390 59 409 68 Q 427 78 451 100 Q 474 122 446 122 Q 418 122 390 136 Q 362 150 376 130 Q 390 110 392 96 Q 395 82 362 87 Q 329 92 228 108 Q 230 141 228 181 Q 225 221 218 229 Q 211 237 202 215 Q 193 193 196 175 Q 200 157 200 110 Q 155 117 117 122 Q 80 127 59 127 Q 52 162 36 190 Q 21 218 12 211 Q 2 204 1 189 Q 0 174 14 155 Q 28 136 33 117 Q 38 99 40 90 Q 42 82 61 113 Q 150 106 200 94 Q 200 70 193 49 Z M 186 380 Q 188 359 188 350 Q 188 338 174 341 Q 160 343 122 352 Q 120 371 120 392 Q 153 388 186 380 Z M 82 216 Q 68 200 85 198 Q 101 197 119 202 Q 136 207 135 222 Q 134 237 116 235 Q 99 233 82 216 Z M 275 195 Q 258 181 277 178 Q 296 176 315 183 Q 334 190 331 203 Q 329 216 310 213 Q 291 209 275 195 Z M 303 153 Q 289 146 278 136 Q 268 127 284 124 Q 301 122 317 126 Q 334 129 338 141 Q 343 153 330 155 Q 317 157 303 153 Z M 141 178 Q 148 178 115 174 Q 103 169 94 160 Q 85 150 101 148 Q 117 146 133 149 Q 148 153 150 166 Q 153 178 141 178 Z" fill="black" />
  </g>
  <g class="defect" id="01">
    <path d="M 275 34 Q 252 20 204 47" fill="none" stroke="red" stroke-width="3" />
  </g>
  <g class="defect" id="02">
    <path d="M 141 178 Q 148 178 115 174" fill="none" stroke="red" stroke-width="3" />
  </g>
  <g class="defect" id="03">
    <path d="M 193 49 Q 177 39 146 50" fill="none" stroke="red" stroke-width="3" />
  </g>
</svg>