<svg xmlns="http://www.w3.org/2000/svg" width="512" height="512" viewBox="0 0 512 512">
  <g class="glyph">
    <path d="M 324 75 Q 324 111 321 142 Q 361 133 385 127 Q 408 122 430 136 Q 452 151 412 154 Q 372 157 336 165 Q 299 173 286 175 Q 324 186 318 209 Q 332 247 314 267 Q 315 301 307 335 Q 299 368 287 339 Q 275 310 279 301 Q 284 293 286 258 Q 288 224 284 207 Q 279 191 270 180 Q 219 191 207 196 Q 195 202 173 191 Q 164 199 168 177 Q 186 175 213 168 Q 208 122 194 104 Q 180 86 196 88 Q 213 89 224 93 Q 235 98 234 109 Q 233 120 233 164 Q 266 155 295 149 Q 297 42 281 21 Q 266 0 299 8 Q 332 16 329 27 Q 326 38 324 60 Q 344 58 362 48 Q 381 38 399 50 Q 417 62 382 71 Q 348 80 324 75 Z M 51 297 Q 51 377 48 408 Q 44 439 37 444 Q 29 450 19 422 Q 9 395 18 370 Q 27 346 28 226 Q 29 106 14 88 Q 0 69 22 73 Q 33 61 65 68 Q 86 58 94 43 Q 102 29 134 43 Q 166 58 144 66 Q 122 75 110 111 Q 98 146 116 181 Q 135 215 135 235 Q 135 253 117 239 Q 100 226 74 221 Q 49 215 75 209 Q 102 204 93 176 Q 84 149 92 110 Q 100 71 91 74 Q 82 78 47 89 Q 51 215 51 297 Z M 410 219 Q 443 237 431 247 Q 419 257 382 316 Q 346 375 286 426 Q 226 477 156 494 Q 86 512 146 487 Q 206 461 258 417 Q 310 372 352 309 Q 395 246 387 223 Q 379 199 410 219 Z M 199 231 Q 211 204 216 233 Q 222 262 201 303 Q 180 344 173 316 Q 166 288 177 272 Q 188 255 199 231 Z" fill="black" />
  </g>
  <g class="defect" id="01">
    <path d="M 173 191 Q 164 199 168 177" fill="none" stroke="red" stroke-width="3" />
  </g>
  <g class="defect" id="02">
    <path d="M 318 209 Q 332 247 314 267" fill="none" stroke="red" stroke-width="3" />
  </g>
  <g class="defect" id="03">
    <path d="M 22 73 Q 33 61 65 68" fill="none" stroke="red" stroke-width="3" />
  </g>
</svg>