<svg xmlns="http://www.w3.org/2000/svg" width="512" height="512" viewBox="0 0 512 512">
  <g class="glyph">
    <path d="M 178 88 Q 211 81 220 87 Q 229 92 220 97 Q 211 101 178 108 V 154 Q 213 147 220 151 Q 226 154 220 162 Q 213 169 178 176 Q 176 207 176 220 Q 189 218 199 214 Q 220 211 219 214 Q 229 218 241 226 Q 253 235 243 249 Q 233 264 227 300 Q 222 336 214 370 Q 207 404 185 427 Q 163 450 157 431 Q 152 411 130 392 Q 108 374 134 382 Q 160 391 169 389 Q 167 402 187 363 Q 196 338 200 297 Q 204 255 201 244 Q 198 233 185 233 Q 174 233 99 244 Q 90 272 85 252 Q 79 231 80 218 Q 81 204 84 126 Q 86 48 79 32 Q 73 15 78 12 Q 84 9 103 24 Q 160 18 190 9 Q 220 0 234 2 Q 248 4 236 14 Q 224 24 174 35 Q 185 46 182 54 Q 180 62 178 88 Z M 367 86 Q 380 101 368 120 Q 356 138 308 193 Q 358 185 420 176 Q 413 167 403 149 Q 393 132 414 140 Q 435 147 445 157 Q 455 167 458 186 Q 480 204 453 212 Q 444 220 426 191 Q 382 196 345 204 Q 358 207 367 212 Q 376 218 374 230 Q 371 242 371 283 Q 391 281 413 277 Q 435 272 447 279 Q 459 286 441 291 Q 422 297 371 305 Q 369 352 369 365 Q 420 360 449 357 Q 479 354 496 361 Q 512 369 511 379 Q 510 389 476 385 Q 442 380 404 383 Q 367 387 331 392 Q 294 398 275 403 Q 255 409 235 396 Q 215 382 227 381 Q 240 380 279 377 Q 319 374 345 369 V 308 Q 323 310 310 313 Q 297 316 286 310 Q 275 303 274 300 Q 272 297 296 294 Q 319 292 345 288 Q 345 218 330 209 Q 301 218 288 225 Q 275 233 271 225 Q 268 218 267 205 Q 266 193 280 187 Q 294 180 316 146 Q 338 112 338 90 Q 290 97 275 89 Q 259 81 287 77 Q 314 73 336 69 Q 358 66 393 57 Q 428 48 438 58 Q 448 68 436 74 Q 424 79 367 86 Z M 152 224 V 180 Q 136 182 120 179 Q 103 176 119 170 Q 134 165 154 160 V 112 Q 136 112 122 108 Q 108 103 124 99 Q 141 94 154 92 Q 154 53 151 46 Q 147 40 136 40 H 105 Q 101 198 99 231 Q 119 229 152 224 Z M 31 341 Q 31 360 19 371 Q 7 382 3 361 Q 0 341 11 310 Q 22 277 26 298 Q 31 319 31 341 Z M 66 288 Q 75 303 80 321 Q 86 338 77 348 Q 68 358 60 344 Q 53 330 55 301 Q 57 272 66 288 Z M 130 316 Q 130 330 120 332 Q 110 334 104 322 Q 99 310 97 288 Q 94 266 112 283 Q 130 301 130 316 Z M 152 261 Q 169 272 174 285 Q 178 297 171 308 Q 165 319 157 308 Q 149 297 143 274 Q 136 251 152 261 Z" fill="black" />
  </g>
  <g class="defect" id="01">
    <path d="M 169 389 Q 167 402 187 363" fill="none" stroke="red" stroke-width="3" />
  </g>
  <g class="defect" id="02">
    <path d="M 199 214 Q 220 211 219 214" fill="none" stroke="red" stroke-width="3" />
  </g>
  <g class="defect" id="03">
    <path d="M 458 186 Q 480 204 453 212" fill="none" stroke="red" stroke-width="3" />
  </g>
</svg>