<svg xmlns="http://www.w3.org/2000/svg" width="512" height="512" viewBox="0 0 512 512">
  <g class="glyph">
    <path d="M 341 199 Q 300 204 263 210 L 259 242 Q 298 236 320 229 Q 343 223 352 231 Q 362 240 337 246 Q 313 253 259 255 L 257 289 Q 313 283 352 274 Q 392 266 402 261 Q 411 257 427 262 Q 443 268 457 280 Q 471 291 465 299 Q 447 306 454 317 Q 450 328 443 389 Q 437 450 416 481 Q 394 512 386 494 Q 377 476 358 455 Q 338 435 341 434 Q 343 433 367 440 Q 392 448 401 428 Q 409 409 415 366 Q 420 323 417 307 Q 413 291 403 287 Q 392 283 364 288 Q 336 293 257 302 Q 251 330 242 317 Q 234 304 237 281 Q 240 257 240 193 Q 240 126 232 108 Q 225 90 231 90 Q 238 90 263 94 Q 302 41 298 20 Q 293 0 317 10 Q 341 19 346 25 Q 351 30 337 40 Q 336 62 276 94 Q 298 90 321 86 Q 345 81 357 77 Q 368 73 381 78 Q 394 84 407 93 Q 420 103 407 114 Q 394 124 377 162 Q 360 199 353 206 Q 347 212 345 210 Q 343 208 341 199 Z M 129 156 Q 126 204 126 229 Q 156 221 161 217 Q 165 214 175 216 Q 184 219 194 228 Q 204 238 194 246 Q 184 255 177 277 Q 169 300 146 343 Q 167 362 174 376 Q 180 390 176 410 Q 171 431 163 417 Q 154 403 129 368 Q 105 401 80 421 Q 56 441 30 453 Q 4 465 2 463 Q 0 461 18 448 Q 36 435 62 408 Q 88 381 111 347 Q 81 311 72 298 Q 62 285 82 295 Q 103 304 126 323 Q 141 293 148 274 Q 154 255 153 247 Q 152 240 116 249 Q 79 257 67 259 Q 56 261 48 259 Q 41 257 30 251 Q 19 244 40 243 Q 60 242 105 234 V 161 Q 69 169 58 171 Q 47 174 29 164 Q 11 154 32 153 Q 54 152 105 141 Q 105 120 103 96 Q 101 73 91 58 Q 81 43 102 47 Q 122 51 132 58 Q 141 64 137 74 Q 133 84 131 137 Q 163 131 175 127 Q 186 124 199 133 Q 212 141 196 146 Q 180 150 129 156 Z M 263 148 Q 291 141 306 139 Q 321 137 328 142 Q 334 148 321 152 Q 308 156 263 163 V 197 Q 298 189 343 184 Q 356 146 358 126 Q 360 107 355 102 Q 349 96 333 97 Q 317 99 263 111 Z M 225 347 Q 231 368 228 392 Q 225 416 217 430 Q 210 443 199 427 Q 189 411 199 393 Q 210 375 215 350 Q 221 326 225 347 Z M 358 321 Q 377 330 385 343 Q 392 356 386 370 Q 379 383 370 374 Q 360 364 350 338 Q 341 313 358 321 Z M 263 345 Q 278 358 280 372 Q 281 386 274 394 Q 268 403 260 388 Q 253 373 251 351 Q 249 330 263 345 Z M 308 332 Q 321 341 327 352 Q 332 364 328 375 Q 323 386 314 379 Q 304 373 300 348 Q 296 323 308 332 Z" fill="black" />
  </g>
  <g class="defect" id="01">
    <path d="M 465 299 Q 447 306 454 317" fill="none" stroke="red" stroke-width="3" />
  </g>
  <g class="defect" id="02">
    <path d="M 337 40 Q 336 62 276 94" fill="none" stroke="red" stroke-width="3" />
  </g>
</svg>