<svg xmlns="http://www.w3.org/2000/svg" width="512" height="512" viewBox="0 0 512 512">
  <g class="glyph">
    <path d="M 124 278 H 146 Q 156 278 234 266 Q 234 238 230 207 Q 227 176 219 169 Q 122 184 99 192 Q 75 199 57 201 Q 39 204 19 192 Q 0 180 19 180 Q 41 180 87 174 Q 133 167 197 154 Q 197 114 193 81 Q 189 49 181 41 Q 174 32 179 29 Q 184 26 206 33 Q 227 41 222 59 Q 216 77 216 96 V 150 Q 255 146 266 144 V 71 Q 266 36 258 24 Q 251 11 254 5 Q 257 0 283 11 Q 308 21 301 35 Q 293 49 287 141 Q 381 126 412 120 Q 443 114 468 124 Q 493 135 491 145 Q 488 154 462 152 Q 435 150 413 150 Q 394 150 368 151 Q 343 152 244 165 L 255 178 Q 263 184 259 190 Q 255 195 255 261 Q 330 251 337 244 Q 345 238 362 245 Q 379 253 390 260 Q 418 268 393 277 Q 386 287 383 322 Q 381 358 390 409 Q 398 461 379 486 Q 360 512 349 490 Q 338 467 316 451 Q 293 435 306 438 Q 319 441 335 446 Q 351 450 357 437 Q 362 424 359 361 Q 356 298 350 280 Q 345 261 332 263 L 255 276 V 364 Q 255 398 252 437 Q 249 476 236 452 Q 223 428 228 404 Q 234 379 234 281 L 148 291 Q 148 317 146 374 Q 144 431 138 458 Q 133 486 121 462 Q 109 437 117 418 Q 124 398 126 352 Q 129 306 121 292 Q 114 278 124 278 Z M 371 26 Q 377 26 401 41 Q 426 54 409 62 Q 392 71 346 102 Q 300 133 329 101 Q 358 69 361 47 Q 364 26 371 26 Z M 315 184 Q 315 174 320 175 Q 326 176 347 189 Q 371 201 356 207 Q 341 212 330 219 Q 319 225 315 228 Q 311 231 288 243 Q 266 255 283 236 Q 300 216 307 205 Q 315 193 315 184 Z M 308 373 Q 287 349 272 333 Q 257 317 299 329 Q 341 341 335 367 Q 330 394 308 373 Z M 184 317 Q 191 317 204 321 Q 219 326 210 341 Q 201 356 189 374 Q 176 392 162 405 Q 148 418 167 381 Q 186 345 182 331 Q 178 317 184 317 Z M 135 124 Q 116 99 112 87 Q 109 75 139 87 Q 169 99 163 123 Q 156 148 135 124 Z M 169 249 Q 150 227 148 219 Q 146 210 175 221 Q 204 231 196 250 Q 189 268 169 249 Z" fill="black" />
  </g>
  <g class="defect" id="01">
    <path d="M 390 260 Q 418 268 393 277" fill="none" stroke="red" stroke-width="3" />
  </g>
</svg>