<svg xmlns="http://www.w3.org/2000/svg" width="512" height="512" viewBox="0 0 512 512">
  <g class="glyph">
    <path d="M 153 190 Q 117 196 84 203 V 234 Q 121 228 139 223 Q 157 217 166 225 Q 176 232 158 237 Q 140 242 84 247 V 284 Q 155 270 166 263 Q 178 257 192 263 Q 207 270 215 276 Q 224 282 216 294 Q 209 305 209 330 Q 209 353 206 389 Q 203 424 187 447 Q 171 470 163 453 Q 155 437 143 423 Q 132 410 125 403 Q 119 397 143 404 Q 167 412 173 395 Q 180 378 182 352 Q 199 326 181 305 Q 178 284 159 285 Q 140 286 82 299 Q 75 322 68 305 Q 61 288 63 273 Q 65 257 65 209 Q 65 161 62 140 Q 59 119 50 106 Q 42 92 59 96 Q 75 100 96 98 Q 134 31 126 16 Q 119 0 134 4 Q 148 8 163 17 Q 178 25 164 34 Q 150 44 111 94 Q 146 86 159 82 Q 171 77 184 83 Q 196 88 205 96 Q 213 104 207 111 Q 201 117 195 130 Q 190 142 182 165 Q 173 188 166 196 Q 159 205 153 190 Z M 347 188 Q 378 215 415 231 Q 451 247 482 256 Q 512 265 487 270 Q 462 274 435 275 Q 408 276 395 265 L 370 242 Q 357 230 334 207 Q 311 234 285 256 Q 259 278 233 288 Q 207 299 227 283 Q 247 267 272 243 Q 297 219 316 190 Q 293 163 267 142 Q 251 161 233 169 Q 215 178 234 157 Q 253 136 277 87 Q 301 38 297 23 Q 293 8 308 15 Q 324 21 332 28 Q 341 36 334 42 Q 328 48 307 86 Q 349 86 359 78 Q 370 71 381 76 Q 393 82 403 92 Q 414 102 404 107 Q 395 111 381 133 Q 368 155 347 188 Z M 84 144 Q 130 134 136 134 Q 144 134 145 139 Q 146 144 127 150 Q 109 157 84 159 V 190 Q 98 188 155 173 Q 169 121 165 111 Q 161 100 154 101 Q 146 102 84 113 Z M 326 173 Q 345 146 352 122 Q 359 98 341 101 Q 322 104 301 98 Q 286 123 278 134 Q 293 142 326 173 Z M 305 403 Q 290 389 281 375 Q 272 362 303 373 Q 334 385 355 400 Q 376 416 373 442 Q 370 468 346 443 Q 322 418 305 403 Z M 297 288 Q 280 267 313 278 Q 347 288 355 299 Q 364 309 359 327 Q 355 345 335 327 Q 316 309 297 288 Z M 19 341 Q 27 357 28 377 Q 29 397 21 411 Q 13 424 6 411 Q 0 397 2 381 Q 4 366 8 344 Q 13 322 19 341 Z M 140 313 Q 155 322 161 333 Q 167 345 162 362 Q 157 378 146 360 Q 136 343 131 323 Q 125 303 140 313 Z M 54 336 Q 71 349 73 365 Q 75 380 68 386 Q 61 391 53 377 Q 46 364 43 344 Q 40 324 54 336 Z M 96 326 Q 113 334 117 348 Q 121 362 116 370 Q 111 378 102 370 Q 94 362 88 339 Q 82 316 96 326 Z" fill="black" />
  </g>
  <g class="defect" id="01">
    <path d="M 182 352 Q 199 326 181 305" fill="none" stroke="red" stroke-width="3" />
  </g>
</svg>